<?xml version="1.0" standalone="no"?>
<!DOCTYPE svg PUBLIC "-//W3C//DTD SVG 1.1//EN" 
  "http://www.w3.org/Graphics/SVG/1.1/DTD/svg11.dtd">
<svg width="510" height="510" version="1.1" id="toplevel"
    xmlns="http://www.w3.org/2000/svg"
    xmlns:xlink="http://www.w3.org/1999/xlink">
  <polygon points="165,172 318,172 345,163 290,5 165,5" fill="bisque"/>
  <g stroke="chocolate" stroke-width="1">
    <line x1="317" y1="172" x2="317" y2="171"/>
    <circle cx="317" cy="172" r="2"/>
    <circle cx="317" cy="171" r="2"/>
  </g>
  <g stroke="chocolate" stroke-width="1">
    <line x1="289" y1="172" x2="303" y2="154"/>
    <circle cx="289" cy="172" r="2"/>
    <circle cx="303" cy="154" r="2"/>
  </g>
  <g stroke="chocolate" stroke-width="1">
    <line x1="335" y1="166" x2="340" y2="149"/>
    <circle cx="335" cy="166" r="2"/>
    <circle cx="340" cy="149" r="2"/>
  </g>
  <g stroke="chocolate" stroke-width="1">
    <line x1="233" y1="172" x2="290" y2="5"/>
    <circle cx="233" cy="172" r="2"/>
    <circle cx="290" cy="5" r="2"/>
  </g>
  <g stroke="chocolate" stroke-width="1">
    <line x1="318" y1="172" x2="341" y2="154"/>
    <circle cx="318" cy="172" r="2"/>
    <circle cx="341" cy="154" r="2"/>
  </g>
  <g stroke="chocolate" stroke-width="1">
    <line x1="297" y1="172" x2="320" y2="154"/>
    <circle cx="297" cy="172" r="2"/>
    <circle cx="320" cy="154" r="2"/>
  </g>
  <g stroke="chocolate" stroke-width="1">
    <line x1="165" y1="172" x2="165" y2="5"/>
    <circle cx="165" cy="172" r="2"/>
    <circle cx="165" cy="5" r="2"/>
  </g>
  <g stroke="chocolate" stroke-width="1">
    <line x1="218" y1="172" x2="218" y2="143"/>
    <circle cx="218" cy="172" r="2"/>
    <circle cx="218" cy="143" r="2"/>
  </g>
  <g stroke="chocolate" stroke-width="1">
    <line x1="307" y1="172" x2="307" y2="71"/>
    <circle cx="307" cy="172" r="2"/>
    <circle cx="307" cy="71" r="2"/>
  </g>
  <g stroke="chocolate" stroke-width="1">
    <line x1="317" y1="172" x2="317" y2="84"/>
    <circle cx="317" cy="172" r="2"/>
    <circle cx="317" cy="84" r="2"/>
  </g>
  <g stroke="chocolate" stroke-width="1">
    <line x1="165" y1="102" x2="290" y2="5"/>
    <circle cx="165" cy="102" r="2"/>
    <circle cx="290" cy="5" r="2"/>
  </g>
  <g stroke="chocolate" stroke-width="1">
    <line x1="165" y1="13" x2="176" y2="5"/>
    <circle cx="165" cy="13" r="2"/>
    <circle cx="176" cy="5" r="2"/>
  </g>
  <g stroke="chocolate" stroke-width="1">
    <line x1="318" y1="172" x2="345" y2="163"/>
    <circle cx="318" cy="172" r="2"/>
    <circle cx="345" cy="163" r="2"/>
  </g>
  <g stroke="chocolate" stroke-width="1">
    <line x1="233" y1="172" x2="176" y2="5"/>
    <circle cx="233" cy="172" r="2"/>
    <circle cx="176" cy="5" r="2"/>
  </g>
  <g stroke="chocolate" stroke-width="1">
    <line x1="345" y1="163" x2="290" y2="5"/>
    <circle cx="345" cy="163" r="2"/>
    <circle cx="290" cy="5" r="2"/>
  </g>
  <g stroke="chocolate" stroke-width="1">
    <line x1="225" y1="172" x2="279" y2="158"/>
    <circle cx="225" cy="172" r="2"/>
    <circle cx="279" cy="158" r="2"/>
  </g>
  <g stroke="chocolate" stroke-width="1">
    <line x1="165" y1="119" x2="307" y2="71"/>
    <circle cx="165" cy="119" r="2"/>
    <circle cx="307" cy="71" r="2"/>
  </g>
  <g stroke="chocolate" stroke-width="1">
    <line x1="165" y1="156" x2="218" y2="143"/>
    <circle cx="165" cy="156" r="2"/>
    <circle cx="218" cy="143" r="2"/>
  </g>
  <g stroke="chocolate" stroke-width="1">
    <line x1="165" y1="172" x2="318" y2="172"/>
    <circle cx="165" cy="172" r="2"/>
    <circle cx="318" cy="172" r="2"/>
  </g>
  <g stroke="chocolate" stroke-width="1">
    <line x1="165" y1="158" x2="280" y2="158"/>
    <circle cx="165" cy="158" r="2"/>
    <circle cx="280" cy="158" r="2"/>
  </g>
  <g stroke="chocolate" stroke-width="1">
    <line x1="165" y1="154" x2="341" y2="154"/>
    <circle cx="165" cy="154" r="2"/>
    <circle cx="341" cy="154" r="2"/>
  </g>
  <g stroke="chocolate" stroke-width="1">
    <line x1="289" y1="172" x2="279" y2="158"/>
    <circle cx="289" cy="172" r="2"/>
    <circle cx="279" cy="158" r="2"/>
  </g>
  <g stroke="chocolate" stroke-width="1">
    <line x1="317" y1="172" x2="303" y2="154"/>
    <circle cx="317" cy="172" r="2"/>
    <circle cx="303" cy="154" r="2"/>
  </g>
  <g stroke="chocolate" stroke-width="1">
    <line x1="317" y1="84" x2="307" y2="71"/>
    <circle cx="317" cy="84" r="2"/>
    <circle cx="307" cy="71" r="2"/>
  </g>
  <g stroke="chocolate" stroke-width="1">
    <line x1="225" y1="172" x2="165" y2="156"/>
    <circle cx="225" cy="172" r="2"/>
    <circle cx="165" cy="156" r="2"/>
  </g>
  <g stroke="chocolate" stroke-width="1">
    <line x1="218" y1="143" x2="165" y2="102"/>
    <circle cx="218" cy="143" r="2"/>
    <circle cx="165" cy="102" r="2"/>
  </g>
  <g stroke="chocolate" stroke-width="1">
    <line x1="297" y1="172" x2="280" y2="158"/>
    <circle cx="297" cy="172" r="2"/>
    <circle cx="280" cy="158" r="2"/>
  </g>
  <g stroke="chocolate" stroke-width="1">
    <line x1="318" y1="172" x2="165" y2="119"/>
    <circle cx="318" cy="172" r="2"/>
    <circle cx="165" cy="119" r="2"/>
  </g>
  <g stroke="chocolate" stroke-width="1">
    <line x1="335" y1="166" x2="320" y2="154"/>
    <circle cx="335" cy="166" r="2"/>
    <circle cx="320" cy="154" r="2"/>
  </g>
  <g stroke="chocolate" stroke-width="1">
    <line x1="340" y1="149" x2="165" y2="13"/>
    <circle cx="340" cy="149" r="2"/>
    <circle cx="165" cy="13" r="2"/>
  </g>
  <g stroke="chocolate" stroke-width="1">
    <line x1="165" y1="5" x2="290" y2="5"/>
    <circle cx="165" cy="5" r="2"/>
    <circle cx="290" cy="5" r="2"/>
  </g>
  <g stroke="black" stroke-width="1">
    <line x1="5" y1="5" x2="505" y2="5"/>
    <line x1="5" y1="5" x2="5" y2="505"/>
    <line x1="505" y1="505" x2="5" y2="505"/>
    <line x1="505" y1="505" x2="505" y2="5"/>
    <line x1="105" y1="2" x2="105" y2="8"/>
    <line x1="2" y1="105" x2="8" y2="105"/>
    <line x1="105" y1="502" x2="105" y2="508"/>
    <line x1="502" y1="105" x2="508" y2="105"/>
    <line x1="205" y1="2" x2="205" y2="8"/>
    <line x1="2" y1="205" x2="8" y2="205"/>
    <line x1="205" y1="502" x2="205" y2="508"/>
    <line x1="502" y1="205" x2="508" y2="205"/>
    <line x1="305" y1="2" x2="305" y2="8"/>
    <line x1="2" y1="305" x2="8" y2="305"/>
    <line x1="305" y1="502" x2="305" y2="508"/>
    <line x1="502" y1="305" x2="508" y2="305"/>
    <line x1="405" y1="2" x2="405" y2="8"/>
    <line x1="2" y1="405" x2="8" y2="405"/>
    <line x1="405" y1="502" x2="405" y2="508"/>
    <line x1="502" y1="405" x2="508" y2="405"/>
  </g>
  <g stroke="gray" stroke-width="1" stroke-dasharray="5,5">
    <line x1="105" y1="5" x2="105" y2="505"/>
    <line x1="5" y1="105" x2="505" y2="105"/>
    <line x1="205" y1="5" x2="205" y2="505"/>
    <line x1="5" y1="205" x2="505" y2="205"/>
    <line x1="305" y1="5" x2="305" y2="505"/>
    <line x1="5" y1="305" x2="505" y2="305"/>
    <line x1="405" y1="5" x2="405" y2="505"/>
    <line x1="5" y1="405" x2="505" y2="405"/>
  </g>
</svg>
