<?xml version="1.0" standalone="no"?>
<!DOCTYPE svg PUBLIC "-//W3C//DTD SVG 1.1//EN" 
  "http://www.w3.org/Graphics/SVG/1.1/DTD/svg11.dtd">
<svg width="510" height="510" version="1.1" id="toplevel"
    xmlns="http://www.w3.org/2000/svg"
    xmlns:xlink="http://www.w3.org/1999/xlink">
  <polygon points="376,438 385,82 135,72 134,97 134,97 125,431 128,431 128,433"
           fill="bisque"/>
  <g stroke="chocolate" stroke-width="1">
    <line x1="376" y1="438" x2="128" y2="433"/>
    <circle cx="376" cy="438" r="2"/>
    <circle cx="128" cy="433" r="2"/>
  </g>
  <g stroke="chocolate" stroke-width="1">
    <line x1="376" y1="438" x2="125" y2="431"/>
    <circle cx="376" cy="438" r="2"/>
    <circle cx="125" cy="431" r="2"/>
  </g>
  <g stroke="chocolate" stroke-width="1">
    <line x1="376" y1="438" x2="385" y2="82"/>
    <circle cx="376" cy="438" r="2"/>
    <circle cx="385" cy="82" r="2"/>
  </g>
  <g stroke="chocolate" stroke-width="1">
    <line x1="135" y1="109" x2="136" y2="80"/>
    <circle cx="135" cy="109" r="2"/>
    <circle cx="136" cy="80" r="2"/>
  </g>
  <g stroke="chocolate" stroke-width="1">
    <line x1="136" y1="85" x2="136" y2="80"/>
    <circle cx="136" cy="85" r="2"/>
    <circle cx="136" cy="80" r="2"/>
  </g>
  <g stroke="chocolate" stroke-width="1">
    <line x1="136" y1="109" x2="136" y2="80"/>
    <circle cx="136" cy="109" r="2"/>
    <circle cx="136" cy="80" r="2"/>
  </g>
  <g stroke="chocolate" stroke-width="1">
    <line x1="128" y1="433" x2="136" y2="80"/>
    <circle cx="128" cy="433" r="2"/>
    <circle cx="136" cy="80" r="2"/>
  </g>
  <g stroke="chocolate" stroke-width="1">
    <line x1="136" y1="73" x2="136" y2="72"/>
    <circle cx="136" cy="73" r="2"/>
    <circle cx="136" cy="72" r="2"/>
  </g>
  <g stroke="chocolate" stroke-width="1">
    <line x1="136" y1="74" x2="136" y2="72"/>
    <circle cx="136" cy="74" r="2"/>
    <circle cx="136" cy="72" r="2"/>
  </g>
  <g stroke="chocolate" stroke-width="1">
    <line x1="136" y1="74" x2="136" y2="72"/>
    <circle cx="136" cy="74" r="2"/>
    <circle cx="136" cy="72" r="2"/>
  </g>
  <g stroke="chocolate" stroke-width="1">
    <line x1="135" y1="109" x2="385" y2="109"/>
    <circle cx="135" cy="109" r="2"/>
    <circle cx="385" cy="109" r="2"/>
  </g>
  <g stroke="chocolate" stroke-width="1">
    <line x1="135" y1="109" x2="135" y2="83"/>
    <circle cx="135" cy="109" r="2"/>
    <circle cx="135" cy="83" r="2"/>
  </g>
  <g stroke="chocolate" stroke-width="1">
    <line x1="136" y1="109" x2="136" y2="80"/>
    <circle cx="136" cy="109" r="2"/>
    <circle cx="136" cy="80" r="2"/>
  </g>
  <g stroke="chocolate" stroke-width="1">
    <line x1="136" y1="85" x2="136" y2="80"/>
    <circle cx="136" cy="85" r="2"/>
    <circle cx="136" cy="80" r="2"/>
  </g>
  <g stroke="chocolate" stroke-width="1">
    <line x1="135" y1="109" x2="135" y2="83"/>
    <circle cx="135" cy="109" r="2"/>
    <circle cx="135" cy="83" r="2"/>
  </g>
  <g stroke="chocolate" stroke-width="1">
    <line x1="136" y1="73" x2="136" y2="72"/>
    <circle cx="136" cy="73" r="2"/>
    <circle cx="136" cy="72" r="2"/>
  </g>
  <g stroke="chocolate" stroke-width="1">
    <line x1="125" y1="431" x2="135" y2="72"/>
    <circle cx="125" cy="431" r="2"/>
    <circle cx="135" cy="72" r="2"/>
  </g>
  <g stroke="chocolate" stroke-width="1">
    <line x1="134" y1="97" x2="135" y2="72"/>
    <circle cx="134" cy="97" r="2"/>
    <circle cx="135" cy="72" r="2"/>
  </g>
  <g stroke="chocolate" stroke-width="1">
    <line x1="134" y1="97" x2="136" y2="72"/>
    <circle cx="134" cy="97" r="2"/>
    <circle cx="136" cy="72" r="2"/>
  </g>
  <g stroke="chocolate" stroke-width="1">
    <line x1="135" y1="73" x2="135" y2="72"/>
    <circle cx="135" cy="73" r="2"/>
    <circle cx="135" cy="72" r="2"/>
  </g>
  <g stroke="chocolate" stroke-width="1">
    <line x1="134" y1="97" x2="135" y2="72"/>
    <circle cx="134" cy="97" r="2"/>
    <circle cx="135" cy="72" r="2"/>
  </g>
  <g stroke="chocolate" stroke-width="1">
    <line x1="136" y1="73" x2="136" y2="72"/>
    <circle cx="136" cy="73" r="2"/>
    <circle cx="136" cy="72" r="2"/>
  </g>
  <g stroke="chocolate" stroke-width="1">
    <line x1="134" y1="97" x2="135" y2="72"/>
    <circle cx="134" cy="97" r="2"/>
    <circle cx="135" cy="72" r="2"/>
  </g>
  <g stroke="chocolate" stroke-width="1">
    <line x1="135" y1="73" x2="135" y2="72"/>
    <circle cx="135" cy="73" r="2"/>
    <circle cx="135" cy="72" r="2"/>
  </g>
  <g stroke="chocolate" stroke-width="1">
    <line x1="134" y1="97" x2="136" y2="72"/>
    <circle cx="134" cy="97" r="2"/>
    <circle cx="136" cy="72" r="2"/>
  </g>
  <g stroke="chocolate" stroke-width="1">
    <line x1="136" y1="73" x2="136" y2="72"/>
    <circle cx="136" cy="73" r="2"/>
    <circle cx="136" cy="72" r="2"/>
  </g>
  <g stroke="chocolate" stroke-width="1">
    <line x1="385" y1="109" x2="134" y2="97"/>
    <circle cx="385" cy="109" r="2"/>
    <circle cx="134" cy="97" r="2"/>
  </g>
  <g stroke="chocolate" stroke-width="1">
    <line x1="385" y1="85" x2="136" y2="85"/>
    <circle cx="385" cy="85" r="2"/>
    <circle cx="136" cy="85" r="2"/>
  </g>
  <g stroke="chocolate" stroke-width="1">
    <line x1="135" y1="83" x2="304" y2="82"/>
    <circle cx="135" cy="83" r="2"/>
    <circle cx="304" cy="82" r="2"/>
  </g>
  <g stroke="chocolate" stroke-width="1">
    <line x1="385" y1="82" x2="136" y2="80"/>
    <circle cx="385" cy="82" r="2"/>
    <circle cx="136" cy="80" r="2"/>
  </g>
  <g stroke="chocolate" stroke-width="1">
    <line x1="385" y1="84" x2="306" y2="82"/>
    <circle cx="385" cy="84" r="2"/>
    <circle cx="306" cy="82" r="2"/>
  </g>
  <g stroke="chocolate" stroke-width="1">
    <line x1="385" y1="84" x2="304" y2="82"/>
    <circle cx="385" cy="84" r="2"/>
    <circle cx="304" cy="82" r="2"/>
  </g>
  <g stroke="chocolate" stroke-width="1">
    <line x1="210" y1="75" x2="136" y2="74"/>
    <circle cx="210" cy="75" r="2"/>
    <circle cx="136" cy="74" r="2"/>
  </g>
  <g stroke="chocolate" stroke-width="1">
    <line x1="385" y1="85" x2="135" y2="73"/>
    <circle cx="385" cy="85" r="2"/>
    <circle cx="135" cy="73" r="2"/>
  </g>
  <g stroke="chocolate" stroke-width="1">
    <line x1="385" y1="82" x2="135" y2="72"/>
    <circle cx="385" cy="82" r="2"/>
    <circle cx="135" cy="72" r="2"/>
  </g>
  <g stroke="chocolate" stroke-width="1">
    <line x1="306" y1="82" x2="210" y2="75"/>
    <circle cx="306" cy="82" r="2"/>
    <circle cx="210" cy="75" r="2"/>
  </g>
  <g stroke="black" stroke-width="1">
    <line x1="5" y1="5" x2="505" y2="5"/>
    <line x1="5" y1="5" x2="5" y2="505"/>
    <line x1="505" y1="505" x2="5" y2="505"/>
    <line x1="505" y1="505" x2="505" y2="5"/>
    <line x1="105" y1="2" x2="105" y2="8"/>
    <line x1="2" y1="105" x2="8" y2="105"/>
    <line x1="105" y1="502" x2="105" y2="508"/>
    <line x1="502" y1="105" x2="508" y2="105"/>
    <line x1="205" y1="2" x2="205" y2="8"/>
    <line x1="2" y1="205" x2="8" y2="205"/>
    <line x1="205" y1="502" x2="205" y2="508"/>
    <line x1="502" y1="205" x2="508" y2="205"/>
    <line x1="305" y1="2" x2="305" y2="8"/>
    <line x1="2" y1="305" x2="8" y2="305"/>
    <line x1="305" y1="502" x2="305" y2="508"/>
    <line x1="502" y1="305" x2="508" y2="305"/>
    <line x1="405" y1="2" x2="405" y2="8"/>
    <line x1="2" y1="405" x2="8" y2="405"/>
    <line x1="405" y1="502" x2="405" y2="508"/>
    <line x1="502" y1="405" x2="508" y2="405"/>
  </g>
  <g stroke="gray" stroke-width="1" stroke-dasharray="5,5">
    <line x1="105" y1="5" x2="105" y2="505"/>
    <line x1="5" y1="105" x2="505" y2="105"/>
    <line x1="205" y1="5" x2="205" y2="505"/>
    <line x1="5" y1="205" x2="505" y2="205"/>
    <line x1="305" y1="5" x2="305" y2="505"/>
    <line x1="5" y1="305" x2="505" y2="305"/>
    <line x1="405" y1="5" x2="405" y2="505"/>
    <line x1="5" y1="405" x2="505" y2="405"/>
  </g>
</svg>
