<?xml version="1.0" standalone="no"?>
<!DOCTYPE svg PUBLIC "-//W3C//DTD SVG 1.1//EN" 
  "http://www.w3.org/Graphics/SVG/1.1/DTD/svg11.dtd">
<svg width="638" height="638" version="1.1" id="toplevel"
    xmlns="http://www.w3.org/2000/svg"
    xmlns:xlink="http://www.w3.org/1999/xlink">
  <polygon points="187,633 486,505 383,5 310,5 310,36 152,104 186,631"
           fill="bisque"/>
  <g stroke="chocolate" stroke-width="1">
    <line x1="187" y1="633" x2="186" y2="631"/>
    <circle cx="187" cy="633" r="2"/>
    <circle cx="186" cy="631" r="2"/>
  </g>
  <g stroke="chocolate" stroke-width="1">
    <line x1="187" y1="633" x2="486" y2="505"/>
    <circle cx="187" cy="633" r="2"/>
    <circle cx="486" cy="505" r="2"/>
  </g>
  <g stroke="chocolate" stroke-width="1">
    <line x1="186" y1="631" x2="152" y2="104"/>
    <circle cx="186" cy="631" r="2"/>
    <circle cx="152" cy="104" r="2"/>
  </g>
  <g stroke="chocolate" stroke-width="1">
    <line x1="310" y1="505" x2="486" y2="505"/>
    <circle cx="310" cy="505" r="2"/>
    <circle cx="486" cy="505" r="2"/>
  </g>
  <g stroke="chocolate" stroke-width="1">
    <line x1="310" y1="505" x2="310" y2="5"/>
    <circle cx="310" cy="505" r="2"/>
    <circle cx="310" cy="5" r="2"/>
  </g>
  <g stroke="chocolate" stroke-width="1">
    <line x1="186" y1="631" x2="322" y2="152"/>
    <circle cx="186" cy="631" r="2"/>
    <circle cx="322" cy="152" r="2"/>
  </g>
  <g stroke="chocolate" stroke-width="1">
    <line x1="486" y1="505" x2="383" y2="5"/>
    <circle cx="486" cy="505" r="2"/>
    <circle cx="383" cy="5" r="2"/>
  </g>
  <g stroke="chocolate" stroke-width="1">
    <line x1="322" y1="152" x2="152" y2="104"/>
    <circle cx="322" cy="152" r="2"/>
    <circle cx="152" cy="104" r="2"/>
  </g>
  <g stroke="chocolate" stroke-width="1">
    <line x1="152" y1="104" x2="383" y2="5"/>
    <circle cx="152" cy="104" r="2"/>
    <circle cx="383" cy="5" r="2"/>
  </g>
  <g stroke="chocolate" stroke-width="1">
    <line x1="310" y1="5" x2="383" y2="5"/>
    <circle cx="310" cy="5" r="2"/>
    <circle cx="383" cy="5" r="2"/>
  </g>
  <g stroke="black" stroke-width="1">
    <line x1="69" y1="69" x2="569" y2="69"/>
    <line x1="69" y1="69" x2="69" y2="569"/>
    <line x1="569" y1="569" x2="69" y2="569"/>
    <line x1="569" y1="569" x2="569" y2="69"/>
    <line x1="169" y1="66" x2="169" y2="72"/>
    <line x1="66" y1="169" x2="72" y2="169"/>
    <line x1="169" y1="566" x2="169" y2="572"/>
    <line x1="566" y1="169" x2="572" y2="169"/>
    <line x1="269" y1="66" x2="269" y2="72"/>
    <line x1="66" y1="269" x2="72" y2="269"/>
    <line x1="269" y1="566" x2="269" y2="572"/>
    <line x1="566" y1="269" x2="572" y2="269"/>
    <line x1="369" y1="66" x2="369" y2="72"/>
    <line x1="66" y1="369" x2="72" y2="369"/>
    <line x1="369" y1="566" x2="369" y2="572"/>
    <line x1="566" y1="369" x2="572" y2="369"/>
    <line x1="469" y1="66" x2="469" y2="72"/>
    <line x1="66" y1="469" x2="72" y2="469"/>
    <line x1="469" y1="566" x2="469" y2="572"/>
    <line x1="566" y1="469" x2="572" y2="469"/>
  </g>
  <g stroke="gray" stroke-width="1" stroke-dasharray="5,5">
    <line x1="169" y1="69" x2="169" y2="569"/>
    <line x1="69" y1="169" x2="569" y2="169"/>
    <line x1="269" y1="69" x2="269" y2="569"/>
    <line x1="69" y1="269" x2="569" y2="269"/>
    <line x1="369" y1="69" x2="369" y2="569"/>
    <line x1="69" y1="369" x2="569" y2="369"/>
    <line x1="469" y1="69" x2="469" y2="569"/>
    <line x1="69" y1="469" x2="569" y2="469"/>
  </g>
</svg>
