<?xml version="1.0" standalone="no"?>
<!DOCTYPE svg PUBLIC "-//W3C//DTD SVG 1.1//EN" 
  "http://www.w3.org/Graphics/SVG/1.1/DTD/svg11.dtd">
<svg width="510" height="510" version="1.1" id="toplevel"
    xmlns="http://www.w3.org/2000/svg"
    xmlns:xlink="http://www.w3.org/1999/xlink">
  <polygon points="243,505 267,505 280,480 449,362 402,198 359,211 324,165 255,216 186,165 151,211 108,198 61,362 230,480"
           fill="orange"/>
  <g stroke="darkorange" stroke-width="1">
    <line x1="243" y1="505" x2="118" y2="255"/>
    <circle cx="243" cy="505" r="2"/>
    <circle cx="118" cy="255" r="2"/>
  </g>
  <g stroke="darkorange" stroke-width="1">
    <line x1="267" y1="505" x2="392" y2="255"/>
    <circle cx="267" cy="505" r="2"/>
    <circle cx="392" cy="255" r="2"/>
  </g>
  <g stroke="darkorange" stroke-width="1">
    <line x1="243" y1="505" x2="207" y2="255"/>
    <circle cx="243" cy="505" r="2"/>
    <circle cx="207" cy="255" r="2"/>
  </g>
  <g stroke="darkorange" stroke-width="1">
    <line x1="267" y1="505" x2="303" y2="255"/>
    <circle cx="267" cy="505" r="2"/>
    <circle cx="303" cy="255" r="2"/>
  </g>
  <g stroke="darkorange" stroke-width="1">
    <line x1="243" y1="505" x2="267" y2="505"/>
    <circle cx="243" cy="505" r="2"/>
    <circle cx="267" cy="505" r="2"/>
  </g>
  <g stroke="darkorange" stroke-width="1">
    <line x1="243" y1="505" x2="449" y2="362"/>
    <circle cx="243" cy="505" r="2"/>
    <circle cx="449" cy="362" r="2"/>
  </g>
  <g stroke="darkorange" stroke-width="1">
    <line x1="267" y1="505" x2="61" y2="362"/>
    <circle cx="267" cy="505" r="2"/>
    <circle cx="61" cy="362" r="2"/>
  </g>
  <g stroke="darkorange" stroke-width="1">
    <line x1="61" y1="362" x2="108" y2="198"/>
    <circle cx="61" cy="362" r="2"/>
    <circle cx="108" cy="198" r="2"/>
  </g>
  <g stroke="darkorange" stroke-width="1">
    <line x1="449" y1="362" x2="402" y2="198"/>
    <circle cx="449" cy="362" r="2"/>
    <circle cx="402" cy="198" r="2"/>
  </g>
  <g stroke="darkorange" stroke-width="1">
    <line x1="118" y1="255" x2="186" y2="165"/>
    <circle cx="118" cy="255" r="2"/>
    <circle cx="186" cy="165" r="2"/>
  </g>
  <g stroke="darkorange" stroke-width="1">
    <line x1="392" y1="255" x2="324" y2="165"/>
    <circle cx="392" cy="255" r="2"/>
    <circle cx="324" cy="165" r="2"/>
  </g>
  <g stroke="darkorange" stroke-width="1">
    <line x1="61" y1="362" x2="324" y2="165"/>
    <circle cx="61" cy="362" r="2"/>
    <circle cx="324" cy="165" r="2"/>
  </g>
  <g stroke="darkorange" stroke-width="1">
    <line x1="449" y1="362" x2="186" y2="165"/>
    <circle cx="449" cy="362" r="2"/>
    <circle cx="186" cy="165" r="2"/>
  </g>
  <g stroke="darkorange" stroke-width="1">
    <line x1="207" y1="255" x2="402" y2="198"/>
    <circle cx="207" cy="255" r="2"/>
    <circle cx="402" cy="198" r="2"/>
  </g>
  <g stroke="darkorange" stroke-width="1">
    <line x1="303" y1="255" x2="108" y2="198"/>
    <circle cx="303" cy="255" r="2"/>
    <circle cx="108" cy="198" r="2"/>
  </g>
  <g stroke="darkorange" stroke-width="1">
    <line x1="118" y1="255" x2="392" y2="255"/>
    <circle cx="118" cy="255" r="2"/>
    <circle cx="392" cy="255" r="2"/>
  </g>
  <g stroke="black" stroke-width="1">
    <line x1="5" y1="5" x2="505" y2="5"/>
    <line x1="5" y1="5" x2="5" y2="505"/>
    <line x1="505" y1="505" x2="5" y2="505"/>
    <line x1="505" y1="505" x2="505" y2="5"/>
    <line x1="105" y1="2" x2="105" y2="8"/>
    <line x1="2" y1="105" x2="8" y2="105"/>
    <line x1="105" y1="502" x2="105" y2="508"/>
    <line x1="502" y1="105" x2="508" y2="105"/>
    <line x1="205" y1="2" x2="205" y2="8"/>
    <line x1="2" y1="205" x2="8" y2="205"/>
    <line x1="205" y1="502" x2="205" y2="508"/>
    <line x1="502" y1="205" x2="508" y2="205"/>
    <line x1="305" y1="2" x2="305" y2="8"/>
    <line x1="2" y1="305" x2="8" y2="305"/>
    <line x1="305" y1="502" x2="305" y2="508"/>
    <line x1="502" y1="305" x2="508" y2="305"/>
    <line x1="405" y1="2" x2="405" y2="8"/>
    <line x1="2" y1="405" x2="8" y2="405"/>
    <line x1="405" y1="502" x2="405" y2="508"/>
    <line x1="502" y1="405" x2="508" y2="405"/>
  </g>
  <g stroke="gray" stroke-width="1" stroke-dasharray="5,5">
    <line x1="105" y1="5" x2="105" y2="505"/>
    <line x1="5" y1="105" x2="505" y2="105"/>
    <line x1="205" y1="5" x2="205" y2="505"/>
    <line x1="5" y1="205" x2="505" y2="205"/>
    <line x1="305" y1="5" x2="305" y2="505"/>
    <line x1="5" y1="305" x2="505" y2="305"/>
    <line x1="405" y1="5" x2="405" y2="505"/>
    <line x1="5" y1="405" x2="505" y2="405"/>
  </g>
</svg>
