<?xml version="1.0" standalone="no"?>
<!DOCTYPE svg PUBLIC "-//W3C//DTD SVG 1.1//EN" 
  "http://www.w3.org/Graphics/SVG/1.1/DTD/svg11.dtd">
<svg width="510" height="510" version="1.1" id="toplevel"
    xmlns="http://www.w3.org/2000/svg"
    xmlns:xlink="http://www.w3.org/1999/xlink">
  <polygon points="82,315 127,281 167,311 205,292 205,215 167,195 122,229 82,199 43,218 43,295"
           fill="bisque"/>
  <polygon points="82,267 82,247 95,257" fill="bisque"/>
  <polygon points="167,263 154,253 167,243" fill="bisque"/>
  <g stroke="chocolate" stroke-width="1">
    <line x1="167" y1="311" x2="205" y2="292"/>
    <circle cx="167" cy="311" r="2"/>
    <circle cx="205" cy="292" r="2"/>
  </g>
  <g stroke="chocolate" stroke-width="1">
    <line x1="82" y1="315" x2="128" y2="280"/>
    <circle cx="82" cy="315" r="2"/>
    <circle cx="128" cy="280" r="2"/>
  </g>
  <g stroke="chocolate" stroke-width="1">
    <line x1="128" y1="272" x2="205" y2="215"/>
    <circle cx="128" cy="272" r="2"/>
    <circle cx="205" cy="215" r="2"/>
  </g>
  <g stroke="chocolate" stroke-width="1">
    <line x1="43" y1="295" x2="105" y2="249"/>
    <circle cx="43" cy="295" r="2"/>
    <circle cx="105" cy="249" r="2"/>
  </g>
  <g stroke="chocolate" stroke-width="1">
    <line x1="105" y1="242" x2="167" y2="195"/>
    <circle cx="105" cy="242" r="2"/>
    <circle cx="167" cy="195" r="2"/>
  </g>
  <g stroke="chocolate" stroke-width="1">
    <line x1="43" y1="295" x2="43" y2="218"/>
    <circle cx="43" cy="295" r="2"/>
    <circle cx="43" cy="218" r="2"/>
  </g>
  <g stroke="chocolate" stroke-width="1">
    <line x1="82" y1="315" x2="82" y2="199"/>
    <circle cx="82" cy="315" r="2"/>
    <circle cx="82" cy="199" r="2"/>
  </g>
  <g stroke="chocolate" stroke-width="1">
    <line x1="167" y1="311" x2="167" y2="195"/>
    <circle cx="167" cy="311" r="2"/>
    <circle cx="167" cy="195" r="2"/>
  </g>
  <g stroke="chocolate" stroke-width="1">
    <line x1="205" y1="292" x2="205" y2="215"/>
    <circle cx="205" cy="292" r="2"/>
    <circle cx="205" cy="215" r="2"/>
  </g>
  <g stroke="chocolate" stroke-width="1">
    <line x1="82" y1="315" x2="43" y2="295"/>
    <circle cx="82" cy="315" r="2"/>
    <circle cx="43" cy="295" r="2"/>
  </g>
  <g stroke="chocolate" stroke-width="1">
    <line x1="43" y1="218" x2="82" y2="199"/>
    <circle cx="43" cy="218" r="2"/>
    <circle cx="82" cy="199" r="2"/>
  </g>
  <g stroke="chocolate" stroke-width="1">
    <line x1="128" y1="280" x2="105" y2="249"/>
    <circle cx="128" cy="280" r="2"/>
    <circle cx="105" cy="249" r="2"/>
  </g>
  <g stroke="chocolate" stroke-width="1">
    <line x1="128" y1="272" x2="105" y2="242"/>
    <circle cx="128" cy="272" r="2"/>
    <circle cx="105" cy="242" r="2"/>
  </g>
  <g stroke="chocolate" stroke-width="1">
    <line x1="167" y1="311" x2="43" y2="218"/>
    <circle cx="167" cy="311" r="2"/>
    <circle cx="43" cy="218" r="2"/>
  </g>
  <g stroke="chocolate" stroke-width="1">
    <line x1="205" y1="292" x2="82" y2="199"/>
    <circle cx="205" cy="292" r="2"/>
    <circle cx="82" cy="199" r="2"/>
  </g>
  <g stroke="chocolate" stroke-width="1">
    <line x1="205" y1="215" x2="167" y2="195"/>
    <circle cx="205" cy="215" r="2"/>
    <circle cx="167" cy="195" r="2"/>
  </g>
  <g stroke="black" stroke-width="1">
    <line x1="5" y1="5" x2="505" y2="5"/>
    <line x1="5" y1="5" x2="5" y2="505"/>
    <line x1="505" y1="505" x2="5" y2="505"/>
    <line x1="505" y1="505" x2="505" y2="5"/>
    <line x1="105" y1="2" x2="105" y2="8"/>
    <line x1="2" y1="105" x2="8" y2="105"/>
    <line x1="105" y1="502" x2="105" y2="508"/>
    <line x1="502" y1="105" x2="508" y2="105"/>
    <line x1="205" y1="2" x2="205" y2="8"/>
    <line x1="2" y1="205" x2="8" y2="205"/>
    <line x1="205" y1="502" x2="205" y2="508"/>
    <line x1="502" y1="205" x2="508" y2="205"/>
    <line x1="305" y1="2" x2="305" y2="8"/>
    <line x1="2" y1="305" x2="8" y2="305"/>
    <line x1="305" y1="502" x2="305" y2="508"/>
    <line x1="502" y1="305" x2="508" y2="305"/>
    <line x1="405" y1="2" x2="405" y2="8"/>
    <line x1="2" y1="405" x2="8" y2="405"/>
    <line x1="405" y1="502" x2="405" y2="508"/>
    <line x1="502" y1="405" x2="508" y2="405"/>
  </g>
  <g stroke="gray" stroke-width="1" stroke-dasharray="5,5">
    <line x1="105" y1="5" x2="105" y2="505"/>
    <line x1="5" y1="105" x2="505" y2="105"/>
    <line x1="205" y1="5" x2="205" y2="505"/>
    <line x1="5" y1="205" x2="505" y2="205"/>
    <line x1="305" y1="5" x2="305" y2="505"/>
    <line x1="5" y1="305" x2="505" y2="305"/>
    <line x1="405" y1="5" x2="405" y2="505"/>
    <line x1="5" y1="405" x2="505" y2="405"/>
  </g>
</svg>
