<?xml version="1.0" standalone="no"?>
<!DOCTYPE svg PUBLIC "-//W3C//DTD SVG 1.1//EN" 
  "http://www.w3.org/Graphics/SVG/1.1/DTD/svg11.dtd">
<svg width="510" height="510" version="1.1" id="toplevel"
    xmlns="http://www.w3.org/2000/svg"
    xmlns:xlink="http://www.w3.org/1999/xlink">
  <polygon points="220,448 298,446 413,325 217,330 215,251 411,246 290,131 212,133 97,254 99,333"
           fill="orange"/>
  <g stroke="darkorange" stroke-width="1">
    <line x1="298" y1="446" x2="413" y2="325"/>
    <circle cx="298" cy="446" r="2"/>
    <circle cx="413" cy="325" r="2"/>
  </g>
  <g stroke="darkorange" stroke-width="1">
    <line x1="139" y1="371" x2="216" y2="290"/>
    <circle cx="139" cy="371" r="2"/>
    <circle cx="216" cy="290" r="2"/>
  </g>
  <g stroke="darkorange" stroke-width="1">
    <line x1="175" y1="252" x2="290" y2="131"/>
    <circle cx="175" cy="252" r="2"/>
    <circle cx="290" cy="131" r="2"/>
  </g>
  <g stroke="darkorange" stroke-width="1">
    <line x1="97" y1="254" x2="212" y2="133"/>
    <circle cx="97" cy="254" r="2"/>
    <circle cx="212" cy="133" r="2"/>
  </g>
  <g stroke="darkorange" stroke-width="1">
    <line x1="99" y1="333" x2="97" y2="254"/>
    <circle cx="99" cy="333" r="2"/>
    <circle cx="97" cy="254" r="2"/>
  </g>
  <g stroke="darkorange" stroke-width="1">
    <line x1="220" y1="448" x2="212" y2="133"/>
    <circle cx="220" cy="448" r="2"/>
    <circle cx="212" cy="133" r="2"/>
  </g>
  <g stroke="darkorange" stroke-width="1">
    <line x1="220" y1="448" x2="298" y2="446"/>
    <circle cx="220" cy="448" r="2"/>
    <circle cx="298" cy="446" r="2"/>
  </g>
  <g stroke="darkorange" stroke-width="1">
    <line x1="99" y1="333" x2="413" y2="325"/>
    <circle cx="99" cy="333" r="2"/>
    <circle cx="413" cy="325" r="2"/>
  </g>
  <g stroke="darkorange" stroke-width="1">
    <line x1="220" y1="448" x2="99" y2="333"/>
    <circle cx="220" cy="448" r="2"/>
    <circle cx="99" cy="333" r="2"/>
  </g>
  <g stroke="darkorange" stroke-width="1">
    <line x1="97" y1="254" x2="411" y2="246"/>
    <circle cx="97" cy="254" r="2"/>
    <circle cx="411" cy="246" r="2"/>
  </g>
  <g stroke="darkorange" stroke-width="1">
    <line x1="298" y1="446" x2="177" y2="331"/>
    <circle cx="298" cy="446" r="2"/>
    <circle cx="177" cy="331" r="2"/>
  </g>
  <g stroke="darkorange" stroke-width="1">
    <line x1="216" y1="290" x2="135" y2="214"/>
    <circle cx="216" cy="290" r="2"/>
    <circle cx="135" cy="214" r="2"/>
  </g>
  <g stroke="darkorange" stroke-width="1">
    <line x1="212" y1="133" x2="290" y2="131"/>
    <circle cx="212" cy="133" r="2"/>
    <circle cx="290" cy="131" r="2"/>
  </g>
  <g stroke="darkorange" stroke-width="1">
    <line x1="411" y1="246" x2="290" y2="131"/>
    <circle cx="411" cy="246" r="2"/>
    <circle cx="290" cy="131" r="2"/>
  </g>
  <g stroke="black" stroke-width="1">
    <line x1="5" y1="5" x2="505" y2="5"/>
    <line x1="5" y1="5" x2="5" y2="505"/>
    <line x1="505" y1="505" x2="5" y2="505"/>
    <line x1="505" y1="505" x2="505" y2="5"/>
    <line x1="105" y1="2" x2="105" y2="8"/>
    <line x1="2" y1="105" x2="8" y2="105"/>
    <line x1="105" y1="502" x2="105" y2="508"/>
    <line x1="502" y1="105" x2="508" y2="105"/>
    <line x1="205" y1="2" x2="205" y2="8"/>
    <line x1="2" y1="205" x2="8" y2="205"/>
    <line x1="205" y1="502" x2="205" y2="508"/>
    <line x1="502" y1="205" x2="508" y2="205"/>
    <line x1="305" y1="2" x2="305" y2="8"/>
    <line x1="2" y1="305" x2="8" y2="305"/>
    <line x1="305" y1="502" x2="305" y2="508"/>
    <line x1="502" y1="305" x2="508" y2="305"/>
    <line x1="405" y1="2" x2="405" y2="8"/>
    <line x1="2" y1="405" x2="8" y2="405"/>
    <line x1="405" y1="502" x2="405" y2="508"/>
    <line x1="502" y1="405" x2="508" y2="405"/>
  </g>
  <g stroke="gray" stroke-width="1" stroke-dasharray="5,5">
    <line x1="105" y1="5" x2="105" y2="505"/>
    <line x1="5" y1="105" x2="505" y2="105"/>
    <line x1="205" y1="5" x2="205" y2="505"/>
    <line x1="5" y1="205" x2="505" y2="205"/>
    <line x1="305" y1="5" x2="305" y2="505"/>
    <line x1="5" y1="305" x2="505" y2="305"/>
    <line x1="405" y1="5" x2="405" y2="505"/>
    <line x1="5" y1="405" x2="505" y2="405"/>
  </g>
</svg>
