<?xml version="1.0" standalone="no"?>
<!DOCTYPE svg PUBLIC "-//W3C//DTD SVG 1.1//EN" 
  "http://www.w3.org/Graphics/SVG/1.1/DTD/svg11.dtd">
<svg width="638" height="638" version="1.1" id="toplevel"
    xmlns="http://www.w3.org/2000/svg"
    xmlns:xlink="http://www.w3.org/1999/xlink">
  <polygon points="33,521 577,340 633,247 533,186 444,236 405,183 328,241 214,195 138,383 5,483"
           fill="orange"/>
  <g stroke="darkorange" stroke-width="1">
    <line x1="577" y1="340" x2="633" y2="247"/>
    <circle cx="577" cy="340" r="2"/>
    <circle cx="633" cy="247" r="2"/>
  </g>
  <g stroke="darkorange" stroke-width="1">
    <line x1="91" y1="502" x2="214" y2="195"/>
    <circle cx="91" cy="502" r="2"/>
    <circle cx="214" cy="195" r="2"/>
  </g>
  <g stroke="darkorange" stroke-width="1">
    <line x1="33" y1="521" x2="33" y2="467"/>
    <circle cx="33" cy="521" r="2"/>
    <circle cx="33" cy="467" r="2"/>
  </g>
  <g stroke="darkorange" stroke-width="1">
    <line x1="533" y1="355" x2="533" y2="186"/>
    <circle cx="533" cy="355" r="2"/>
    <circle cx="533" cy="186" r="2"/>
  </g>
  <g stroke="darkorange" stroke-width="1">
    <line x1="33" y1="521" x2="5" y2="483"/>
    <circle cx="33" cy="521" r="2"/>
    <circle cx="5" cy="483" r="2"/>
  </g>
  <g stroke="darkorange" stroke-width="1">
    <line x1="33" y1="521" x2="577" y2="340"/>
    <circle cx="33" cy="521" r="2"/>
    <circle cx="577" cy="340" r="2"/>
  </g>
  <g stroke="darkorange" stroke-width="1">
    <line x1="5" y1="483" x2="405" y2="183"/>
    <circle cx="5" cy="483" r="2"/>
    <circle cx="405" cy="183" r="2"/>
  </g>
  <g stroke="darkorange" stroke-width="1">
    <line x1="91" y1="502" x2="33" y2="467"/>
    <circle cx="91" cy="502" r="2"/>
    <circle cx="33" cy="467" r="2"/>
  </g>
  <g stroke="darkorange" stroke-width="1">
    <line x1="33" y1="467" x2="533" y2="186"/>
    <circle cx="33" cy="467" r="2"/>
    <circle cx="533" cy="186" r="2"/>
  </g>
  <g stroke="darkorange" stroke-width="1">
    <line x1="533" y1="355" x2="405" y2="183"/>
    <circle cx="533" cy="355" r="2"/>
    <circle cx="405" cy="183" r="2"/>
  </g>
  <g stroke="darkorange" stroke-width="1">
    <line x1="577" y1="340" x2="214" y2="195"/>
    <circle cx="577" cy="340" r="2"/>
    <circle cx="214" cy="195" r="2"/>
  </g>
  <g stroke="darkorange" stroke-width="1">
    <line x1="633" y1="247" x2="533" y2="186"/>
    <circle cx="633" cy="247" r="2"/>
    <circle cx="533" cy="186" r="2"/>
  </g>
  <g stroke="black" stroke-width="1">
    <line x1="69" y1="69" x2="569" y2="69"/>
    <line x1="69" y1="69" x2="69" y2="569"/>
    <line x1="569" y1="569" x2="69" y2="569"/>
    <line x1="569" y1="569" x2="569" y2="69"/>
    <line x1="169" y1="66" x2="169" y2="72"/>
    <line x1="66" y1="169" x2="72" y2="169"/>
    <line x1="169" y1="566" x2="169" y2="572"/>
    <line x1="566" y1="169" x2="572" y2="169"/>
    <line x1="269" y1="66" x2="269" y2="72"/>
    <line x1="66" y1="269" x2="72" y2="269"/>
    <line x1="269" y1="566" x2="269" y2="572"/>
    <line x1="566" y1="269" x2="572" y2="269"/>
    <line x1="369" y1="66" x2="369" y2="72"/>
    <line x1="66" y1="369" x2="72" y2="369"/>
    <line x1="369" y1="566" x2="369" y2="572"/>
    <line x1="566" y1="369" x2="572" y2="369"/>
    <line x1="469" y1="66" x2="469" y2="72"/>
    <line x1="66" y1="469" x2="72" y2="469"/>
    <line x1="469" y1="566" x2="469" y2="572"/>
    <line x1="566" y1="469" x2="572" y2="469"/>
  </g>
  <g stroke="gray" stroke-width="1" stroke-dasharray="5,5">
    <line x1="169" y1="69" x2="169" y2="569"/>
    <line x1="69" y1="169" x2="569" y2="169"/>
    <line x1="269" y1="69" x2="269" y2="569"/>
    <line x1="69" y1="269" x2="569" y2="269"/>
    <line x1="369" y1="69" x2="369" y2="569"/>
    <line x1="69" y1="369" x2="569" y2="369"/>
    <line x1="469" y1="69" x2="469" y2="569"/>
    <line x1="69" y1="469" x2="569" y2="469"/>
  </g>
</svg>
