<?xml version="1.0" standalone="no"?>
<!DOCTYPE svg PUBLIC "-//W3C//DTD SVG 1.1//EN" 
  "http://www.w3.org/Graphics/SVG/1.1/DTD/svg11.dtd">
<svg width="582" height="582" version="1.1" id="toplevel"
    xmlns="http://www.w3.org/2000/svg"
    xmlns:xlink="http://www.w3.org/1999/xlink">
  <polygon points="489,450 511,365 554,374 577,319 554,309 554,196 54,132 5,325"
           fill="orange"/>
  <g stroke="darkorange" stroke-width="1">
    <line x1="554" y1="374" x2="577" y2="319"/>
    <circle cx="554" cy="374" r="2"/>
    <circle cx="577" cy="319" r="2"/>
  </g>
  <g stroke="darkorange" stroke-width="1">
    <line x1="489" y1="450" x2="554" y2="196"/>
    <circle cx="489" cy="450" r="2"/>
    <circle cx="554" cy="196" r="2"/>
  </g>
  <g stroke="darkorange" stroke-width="1">
    <line x1="54" y1="274" x2="54" y2="132"/>
    <circle cx="54" cy="274" r="2"/>
    <circle cx="54" cy="132" r="2"/>
  </g>
  <g stroke="darkorange" stroke-width="1">
    <line x1="554" y1="374" x2="554" y2="196"/>
    <circle cx="554" cy="374" r="2"/>
    <circle cx="554" cy="196" r="2"/>
  </g>
  <g stroke="darkorange" stroke-width="1">
    <line x1="112" y1="154" x2="110" y2="140"/>
    <circle cx="112" cy="154" r="2"/>
    <circle cx="110" cy="140" r="2"/>
  </g>
  <g stroke="darkorange" stroke-width="1">
    <line x1="5" y1="325" x2="54" y2="132"/>
    <circle cx="5" cy="325" r="2"/>
    <circle cx="54" cy="132" r="2"/>
  </g>
  <g stroke="darkorange" stroke-width="1">
    <line x1="54" y1="274" x2="110" y2="140"/>
    <circle cx="54" cy="274" r="2"/>
    <circle cx="110" cy="140" r="2"/>
  </g>
  <g stroke="darkorange" stroke-width="1">
    <line x1="489" y1="450" x2="5" y2="325"/>
    <circle cx="489" cy="450" r="2"/>
    <circle cx="5" cy="325" r="2"/>
  </g>
  <g stroke="darkorange" stroke-width="1">
    <line x1="554" y1="374" x2="54" y2="274"/>
    <circle cx="554" cy="374" r="2"/>
    <circle cx="54" cy="274" r="2"/>
  </g>
  <g stroke="darkorange" stroke-width="1">
    <line x1="112" y1="154" x2="164" y2="146"/>
    <circle cx="112" cy="154" r="2"/>
    <circle cx="164" cy="146" r="2"/>
  </g>
  <g stroke="darkorange" stroke-width="1">
    <line x1="577" y1="319" x2="164" y2="146"/>
    <circle cx="577" cy="319" r="2"/>
    <circle cx="164" cy="146" r="2"/>
  </g>
  <g stroke="darkorange" stroke-width="1">
    <line x1="554" y1="196" x2="54" y2="132"/>
    <circle cx="554" cy="196" r="2"/>
    <circle cx="54" cy="132" r="2"/>
  </g>
  <g stroke="black" stroke-width="1">
    <line x1="41" y1="41" x2="541" y2="41"/>
    <line x1="41" y1="41" x2="41" y2="541"/>
    <line x1="541" y1="541" x2="41" y2="541"/>
    <line x1="541" y1="541" x2="541" y2="41"/>
    <line x1="141" y1="38" x2="141" y2="44"/>
    <line x1="38" y1="141" x2="44" y2="141"/>
    <line x1="141" y1="538" x2="141" y2="544"/>
    <line x1="538" y1="141" x2="544" y2="141"/>
    <line x1="241" y1="38" x2="241" y2="44"/>
    <line x1="38" y1="241" x2="44" y2="241"/>
    <line x1="241" y1="538" x2="241" y2="544"/>
    <line x1="538" y1="241" x2="544" y2="241"/>
    <line x1="341" y1="38" x2="341" y2="44"/>
    <line x1="38" y1="341" x2="44" y2="341"/>
    <line x1="341" y1="538" x2="341" y2="544"/>
    <line x1="538" y1="341" x2="544" y2="341"/>
    <line x1="441" y1="38" x2="441" y2="44"/>
    <line x1="38" y1="441" x2="44" y2="441"/>
    <line x1="441" y1="538" x2="441" y2="544"/>
    <line x1="538" y1="441" x2="544" y2="441"/>
  </g>
  <g stroke="gray" stroke-width="1" stroke-dasharray="5,5">
    <line x1="141" y1="41" x2="141" y2="541"/>
    <line x1="41" y1="141" x2="541" y2="141"/>
    <line x1="241" y1="41" x2="241" y2="541"/>
    <line x1="41" y1="241" x2="541" y2="241"/>
    <line x1="341" y1="41" x2="341" y2="541"/>
    <line x1="41" y1="341" x2="541" y2="341"/>
    <line x1="441" y1="41" x2="441" y2="541"/>
    <line x1="41" y1="441" x2="541" y2="441"/>
  </g>
</svg>
