<?xml version="1.0" standalone="no"?>
<!DOCTYPE svg PUBLIC "-//W3C//DTD SVG 1.1//EN" 
  "http://www.w3.org/Graphics/SVG/1.1/DTD/svg11.dtd">
<svg width="610" height="610" version="1.1" id="toplevel"
    xmlns="http://www.w3.org/2000/svg"
    xmlns:xlink="http://www.w3.org/1999/xlink">
  <polygon points="174,605 191,605 236,543 351,105 184,11 177,5 175,7 187,105 55,105 55,473"
           fill="orange"/>
  <g stroke="darkorange" stroke-width="1">
    <line x1="191" y1="605" x2="236" y2="543"/>
    <circle cx="191" cy="605" r="2"/>
    <circle cx="236" cy="543" r="2"/>
  </g>
  <g stroke="darkorange" stroke-width="1">
    <line x1="236" y1="543" x2="351" y2="105"/>
    <circle cx="236" cy="543" r="2"/>
    <circle cx="351" cy="105" r="2"/>
  </g>
  <g stroke="darkorange" stroke-width="1">
    <line x1="174" y1="605" x2="186" y2="487"/>
    <circle cx="174" cy="605" r="2"/>
    <circle cx="186" cy="487" r="2"/>
  </g>
  <g stroke="darkorange" stroke-width="1">
    <line x1="174" y1="605" x2="191" y2="605"/>
    <circle cx="174" cy="605" r="2"/>
    <circle cx="191" cy="605" r="2"/>
  </g>
  <g stroke="darkorange" stroke-width="1">
    <line x1="55" y1="473" x2="55" y2="105"/>
    <circle cx="55" cy="473" r="2"/>
    <circle cx="55" cy="105" r="2"/>
  </g>
  <g stroke="darkorange" stroke-width="1">
    <line x1="236" y1="543" x2="175" y2="7"/>
    <circle cx="236" cy="543" r="2"/>
    <circle cx="175" cy="7" r="2"/>
  </g>
  <g stroke="darkorange" stroke-width="1">
    <line x1="191" y1="605" x2="76" y2="260"/>
    <circle cx="191" cy="605" r="2"/>
    <circle cx="76" cy="260" r="2"/>
  </g>
  <g stroke="darkorange" stroke-width="1">
    <line x1="174" y1="605" x2="55" y2="473"/>
    <circle cx="174" cy="605" r="2"/>
    <circle cx="55" cy="473" r="2"/>
  </g>
  <g stroke="darkorange" stroke-width="1">
    <line x1="186" y1="487" x2="55" y2="473"/>
    <circle cx="186" cy="487" r="2"/>
    <circle cx="55" cy="473" r="2"/>
  </g>
  <g stroke="darkorange" stroke-width="1">
    <line x1="175" y1="7" x2="177" y2="5"/>
    <circle cx="175" cy="7" r="2"/>
    <circle cx="177" cy="5" r="2"/>
  </g>
  <g stroke="darkorange" stroke-width="1">
    <line x1="76" y1="260" x2="333" y2="175"/>
    <circle cx="76" cy="260" r="2"/>
    <circle cx="333" cy="175" r="2"/>
  </g>
  <g stroke="darkorange" stroke-width="1">
    <line x1="333" y1="175" x2="177" y2="5"/>
    <circle cx="333" cy="175" r="2"/>
    <circle cx="177" cy="5" r="2"/>
  </g>
  <g stroke="darkorange" stroke-width="1">
    <line x1="55" y1="105" x2="351" y2="105"/>
    <circle cx="55" cy="105" r="2"/>
    <circle cx="351" cy="105" r="2"/>
  </g>
  <g stroke="darkorange" stroke-width="1">
    <line x1="351" y1="105" x2="175" y2="7"/>
    <circle cx="351" cy="105" r="2"/>
    <circle cx="175" cy="7" r="2"/>
  </g>
  <g stroke="black" stroke-width="1">
    <line x1="55" y1="55" x2="555" y2="55"/>
    <line x1="55" y1="55" x2="55" y2="555"/>
    <line x1="555" y1="555" x2="55" y2="555"/>
    <line x1="555" y1="555" x2="555" y2="55"/>
    <line x1="155" y1="52" x2="155" y2="58"/>
    <line x1="52" y1="155" x2="58" y2="155"/>
    <line x1="155" y1="552" x2="155" y2="558"/>
    <line x1="552" y1="155" x2="558" y2="155"/>
    <line x1="255" y1="52" x2="255" y2="58"/>
    <line x1="52" y1="255" x2="58" y2="255"/>
    <line x1="255" y1="552" x2="255" y2="558"/>
    <line x1="552" y1="255" x2="558" y2="255"/>
    <line x1="355" y1="52" x2="355" y2="58"/>
    <line x1="52" y1="355" x2="58" y2="355"/>
    <line x1="355" y1="552" x2="355" y2="558"/>
    <line x1="552" y1="355" x2="558" y2="355"/>
    <line x1="455" y1="52" x2="455" y2="58"/>
    <line x1="52" y1="455" x2="58" y2="455"/>
    <line x1="455" y1="552" x2="455" y2="558"/>
    <line x1="552" y1="455" x2="558" y2="455"/>
  </g>
  <g stroke="gray" stroke-width="1" stroke-dasharray="5,5">
    <line x1="155" y1="55" x2="155" y2="555"/>
    <line x1="55" y1="155" x2="555" y2="155"/>
    <line x1="255" y1="55" x2="255" y2="555"/>
    <line x1="55" y1="255" x2="555" y2="255"/>
    <line x1="355" y1="55" x2="355" y2="555"/>
    <line x1="55" y1="355" x2="555" y2="355"/>
    <line x1="455" y1="55" x2="455" y2="555"/>
    <line x1="55" y1="455" x2="555" y2="455"/>
  </g>
</svg>
