<?xml version="1.0" standalone="no"?>
<!DOCTYPE svg PUBLIC "-//W3C//DTD SVG 1.1//EN" 
  "http://www.w3.org/Graphics/SVG/1.1/DTD/svg11.dtd">
<svg width="664" height="664" version="1.1" id="toplevel"
    xmlns="http://www.w3.org/2000/svg"
    xmlns:xlink="http://www.w3.org/1999/xlink">
  <polygon points="590,509 659,425 495,292 259,405 9,376 5,399 7,400 6,404 14,404 116,474"
           fill="orange"/>
  <g stroke="darkorange" stroke-width="1">
    <line x1="590" y1="509" x2="659" y2="425"/>
    <circle cx="590" cy="509" r="2"/>
    <circle cx="659" cy="425" r="2"/>
  </g>
  <g stroke="darkorange" stroke-width="1">
    <line x1="534" y1="505" x2="572" y2="477"/>
    <circle cx="534" cy="505" r="2"/>
    <circle cx="572" cy="477" r="2"/>
  </g>
  <g stroke="darkorange" stroke-width="1">
    <line x1="495" y1="502" x2="506" y2="434"/>
    <circle cx="495" cy="502" r="2"/>
    <circle cx="506" cy="434" r="2"/>
  </g>
  <g stroke="darkorange" stroke-width="1">
    <line x1="505" y1="445" x2="506" y2="434"/>
    <circle cx="505" cy="445" r="2"/>
    <circle cx="506" cy="434" r="2"/>
  </g>
  <g stroke="darkorange" stroke-width="1">
    <line x1="128" y1="474" x2="141" y2="462"/>
    <circle cx="128" cy="474" r="2"/>
    <circle cx="141" cy="462" r="2"/>
  </g>
  <g stroke="darkorange" stroke-width="1">
    <line x1="495" y1="502" x2="495" y2="292"/>
    <circle cx="495" cy="502" r="2"/>
    <circle cx="495" cy="292" r="2"/>
  </g>
  <g stroke="darkorange" stroke-width="1">
    <line x1="6" y1="404" x2="9" y2="376"/>
    <circle cx="6" cy="404" r="2"/>
    <circle cx="9" cy="376" r="2"/>
  </g>
  <g stroke="darkorange" stroke-width="1">
    <line x1="5" y1="399" x2="9" y2="376"/>
    <circle cx="5" cy="399" r="2"/>
    <circle cx="9" cy="376" r="2"/>
  </g>
  <g stroke="darkorange" stroke-width="1">
    <line x1="116" y1="474" x2="495" y2="292"/>
    <circle cx="116" cy="474" r="2"/>
    <circle cx="495" cy="292" r="2"/>
  </g>
  <g stroke="darkorange" stroke-width="1">
    <line x1="389" y1="434" x2="379" y2="348"/>
    <circle cx="389" cy="434" r="2"/>
    <circle cx="379" cy="348" r="2"/>
  </g>
  <g stroke="darkorange" stroke-width="1">
    <line x1="49" y1="390" x2="59" y2="382"/>
    <circle cx="49" cy="390" r="2"/>
    <circle cx="59" cy="382" r="2"/>
  </g>
  <g stroke="darkorange" stroke-width="1">
    <line x1="128" y1="474" x2="59" y2="382"/>
    <circle cx="128" cy="474" r="2"/>
    <circle cx="59" cy="382" r="2"/>
  </g>
  <g stroke="darkorange" stroke-width="1">
    <line x1="141" y1="462" x2="389" y2="434"/>
    <circle cx="141" cy="462" r="2"/>
    <circle cx="389" cy="434" r="2"/>
  </g>
  <g stroke="darkorange" stroke-width="1">
    <line x1="590" y1="509" x2="116" y2="474"/>
    <circle cx="590" cy="509" r="2"/>
    <circle cx="116" cy="474" r="2"/>
  </g>
  <g stroke="darkorange" stroke-width="1">
    <line x1="49" y1="390" x2="38" y2="379"/>
    <circle cx="49" cy="390" r="2"/>
    <circle cx="38" cy="379" r="2"/>
  </g>
  <g stroke="darkorange" stroke-width="1">
    <line x1="116" y1="474" x2="5" y2="399"/>
    <circle cx="116" cy="474" r="2"/>
    <circle cx="5" cy="399" r="2"/>
  </g>
  <g stroke="darkorange" stroke-width="1">
    <line x1="5" y1="399" x2="38" y2="379"/>
    <circle cx="5" cy="399" r="2"/>
    <circle cx="38" cy="379" r="2"/>
  </g>
  <g stroke="darkorange" stroke-width="1">
    <line x1="505" y1="445" x2="6" y2="404"/>
    <circle cx="505" cy="445" r="2"/>
    <circle cx="6" cy="404" r="2"/>
  </g>
  <g stroke="darkorange" stroke-width="1">
    <line x1="157" y1="393" x2="49" y2="390"/>
    <circle cx="157" cy="393" r="2"/>
    <circle cx="49" cy="390" r="2"/>
  </g>
  <g stroke="darkorange" stroke-width="1">
    <line x1="506" y1="434" x2="9" y2="376"/>
    <circle cx="506" cy="434" r="2"/>
    <circle cx="9" cy="376" r="2"/>
  </g>
  <g stroke="darkorange" stroke-width="1">
    <line x1="572" y1="477" x2="157" y2="393"/>
    <circle cx="572" cy="477" r="2"/>
    <circle cx="157" cy="393" r="2"/>
  </g>
  <g stroke="darkorange" stroke-width="1">
    <line x1="590" y1="509" x2="572" y2="477"/>
    <circle cx="590" cy="509" r="2"/>
    <circle cx="572" cy="477" r="2"/>
  </g>
  <g stroke="darkorange" stroke-width="1">
    <line x1="534" y1="505" x2="379" y2="348"/>
    <circle cx="534" cy="505" r="2"/>
    <circle cx="379" cy="348" r="2"/>
  </g>
  <g stroke="darkorange" stroke-width="1">
    <line x1="659" y1="425" x2="495" y2="292"/>
    <circle cx="659" cy="425" r="2"/>
    <circle cx="495" cy="292" r="2"/>
  </g>
  <g stroke="black" stroke-width="1">
    <line x1="82" y1="82" x2="582" y2="82"/>
    <line x1="82" y1="82" x2="82" y2="582"/>
    <line x1="582" y1="582" x2="82" y2="582"/>
    <line x1="582" y1="582" x2="582" y2="82"/>
    <line x1="182" y1="79" x2="182" y2="85"/>
    <line x1="79" y1="182" x2="85" y2="182"/>
    <line x1="182" y1="579" x2="182" y2="585"/>
    <line x1="579" y1="182" x2="585" y2="182"/>
    <line x1="282" y1="79" x2="282" y2="85"/>
    <line x1="79" y1="282" x2="85" y2="282"/>
    <line x1="282" y1="579" x2="282" y2="585"/>
    <line x1="579" y1="282" x2="585" y2="282"/>
    <line x1="382" y1="79" x2="382" y2="85"/>
    <line x1="79" y1="382" x2="85" y2="382"/>
    <line x1="382" y1="579" x2="382" y2="585"/>
    <line x1="579" y1="382" x2="585" y2="382"/>
    <line x1="482" y1="79" x2="482" y2="85"/>
    <line x1="79" y1="482" x2="85" y2="482"/>
    <line x1="482" y1="579" x2="482" y2="585"/>
    <line x1="579" y1="482" x2="585" y2="482"/>
  </g>
  <g stroke="gray" stroke-width="1" stroke-dasharray="5,5">
    <line x1="182" y1="82" x2="182" y2="582"/>
    <line x1="82" y1="182" x2="582" y2="182"/>
    <line x1="282" y1="82" x2="282" y2="582"/>
    <line x1="82" y1="282" x2="582" y2="282"/>
    <line x1="382" y1="82" x2="382" y2="582"/>
    <line x1="82" y1="382" x2="582" y2="382"/>
    <line x1="482" y1="82" x2="482" y2="582"/>
    <line x1="82" y1="482" x2="582" y2="482"/>
  </g>
</svg>
