<?xml version="1.0" standalone="no"?>
<!DOCTYPE svg PUBLIC "-//W3C//DTD SVG 1.1//EN" 
  "http://www.w3.org/Graphics/SVG/1.1/DTD/svg11.dtd">
<svg width="510" height="510" version="1.1" id="toplevel"
    xmlns="http://www.w3.org/2000/svg"
    xmlns:xlink="http://www.w3.org/1999/xlink">
  <polygon points="151,263 409,244 424,164 339,138 186,70 86,126 145,231 126,231 126,245"
           fill="bisque"/>
  <g stroke="chocolate" stroke-width="1">
    <line x1="409" y1="244" x2="424" y2="164"/>
    <circle cx="409" cy="244" r="2"/>
    <circle cx="424" cy="164" r="2"/>
  </g>
  <g stroke="chocolate" stroke-width="1">
    <line x1="330" y1="250" x2="379" y2="156"/>
    <circle cx="330" cy="250" r="2"/>
    <circle cx="379" cy="156" r="2"/>
  </g>
  <g stroke="chocolate" stroke-width="1">
    <line x1="228" y1="258" x2="238" y2="107"/>
    <circle cx="228" cy="258" r="2"/>
    <circle cx="238" cy="107" r="2"/>
  </g>
  <g stroke="chocolate" stroke-width="1">
    <line x1="126" y1="245" x2="126" y2="231"/>
    <circle cx="126" cy="245" r="2"/>
    <circle cx="126" cy="231" r="2"/>
  </g>
  <g stroke="chocolate" stroke-width="1">
    <line x1="186" y1="261" x2="223" y2="103"/>
    <circle cx="186" cy="261" r="2"/>
    <circle cx="223" cy="103" r="2"/>
  </g>
  <g stroke="chocolate" stroke-width="1">
    <line x1="163" y1="263" x2="223" y2="103"/>
    <circle cx="163" cy="263" r="2"/>
    <circle cx="223" cy="103" r="2"/>
  </g>
  <g stroke="chocolate" stroke-width="1">
    <line x1="228" y1="258" x2="186" y2="70"/>
    <circle cx="228" cy="258" r="2"/>
    <circle cx="186" cy="70" r="2"/>
  </g>
  <g stroke="chocolate" stroke-width="1">
    <line x1="391" y1="245" x2="406" y2="234"/>
    <circle cx="391" cy="245" r="2"/>
    <circle cx="406" cy="234" r="2"/>
  </g>
  <g stroke="chocolate" stroke-width="1">
    <line x1="186" y1="261" x2="182" y2="251"/>
    <circle cx="186" cy="261" r="2"/>
    <circle cx="182" cy="251" r="2"/>
  </g>
  <g stroke="chocolate" stroke-width="1">
    <line x1="216" y1="144" x2="238" y2="107"/>
    <circle cx="216" cy="144" r="2"/>
    <circle cx="238" cy="107" r="2"/>
  </g>
  <g stroke="chocolate" stroke-width="1">
    <line x1="163" y1="263" x2="86" y2="126"/>
    <circle cx="163" cy="263" r="2"/>
    <circle cx="86" cy="126" r="2"/>
  </g>
  <g stroke="chocolate" stroke-width="1">
    <line x1="151" y1="263" x2="258" y2="153"/>
    <circle cx="151" cy="263" r="2"/>
    <circle cx="258" cy="153" r="2"/>
  </g>
  <g stroke="chocolate" stroke-width="1">
    <line x1="409" y1="244" x2="379" y2="156"/>
    <circle cx="409" cy="244" r="2"/>
    <circle cx="379" cy="156" r="2"/>
  </g>
  <g stroke="chocolate" stroke-width="1">
    <line x1="151" y1="263" x2="126" y2="245"/>
    <circle cx="151" cy="263" r="2"/>
    <circle cx="126" cy="245" r="2"/>
  </g>
  <g stroke="chocolate" stroke-width="1">
    <line x1="330" y1="250" x2="258" y2="153"/>
    <circle cx="330" cy="250" r="2"/>
    <circle cx="258" cy="153" r="2"/>
  </g>
  <g stroke="chocolate" stroke-width="1">
    <line x1="182" y1="251" x2="384" y2="170"/>
    <circle cx="182" cy="251" r="2"/>
    <circle cx="384" cy="170" r="2"/>
  </g>
  <g stroke="chocolate" stroke-width="1">
    <line x1="151" y1="263" x2="409" y2="244"/>
    <circle cx="151" cy="263" r="2"/>
    <circle cx="409" cy="244" r="2"/>
  </g>
  <g stroke="chocolate" stroke-width="1">
    <line x1="126" y1="245" x2="384" y2="170"/>
    <circle cx="126" cy="245" r="2"/>
    <circle cx="384" cy="170" r="2"/>
  </g>
  <g stroke="chocolate" stroke-width="1">
    <line x1="406" y1="234" x2="126" y2="231"/>
    <circle cx="406" cy="234" r="2"/>
    <circle cx="126" cy="231" r="2"/>
  </g>
  <g stroke="chocolate" stroke-width="1">
    <line x1="391" y1="245" x2="216" y2="144"/>
    <circle cx="391" cy="245" r="2"/>
    <circle cx="216" cy="144" r="2"/>
  </g>
  <g stroke="chocolate" stroke-width="1">
    <line x1="86" y1="126" x2="186" y2="70"/>
    <circle cx="86" cy="126" r="2"/>
    <circle cx="186" cy="70" r="2"/>
  </g>
  <g stroke="chocolate" stroke-width="1">
    <line x1="424" y1="164" x2="258" y2="153"/>
    <circle cx="424" cy="164" r="2"/>
    <circle cx="258" cy="153" r="2"/>
  </g>
  <g stroke="chocolate" stroke-width="1">
    <line x1="379" y1="156" x2="186" y2="70"/>
    <circle cx="379" cy="156" r="2"/>
    <circle cx="186" cy="70" r="2"/>
  </g>
  <g stroke="chocolate" stroke-width="1">
    <line x1="424" y1="164" x2="223" y2="103"/>
    <circle cx="424" cy="164" r="2"/>
    <circle cx="223" cy="103" r="2"/>
  </g>
  <g stroke="black" stroke-width="1">
    <line x1="5" y1="5" x2="505" y2="5"/>
    <line x1="5" y1="5" x2="5" y2="505"/>
    <line x1="505" y1="505" x2="5" y2="505"/>
    <line x1="505" y1="505" x2="505" y2="5"/>
    <line x1="105" y1="2" x2="105" y2="8"/>
    <line x1="2" y1="105" x2="8" y2="105"/>
    <line x1="105" y1="502" x2="105" y2="508"/>
    <line x1="502" y1="105" x2="508" y2="105"/>
    <line x1="205" y1="2" x2="205" y2="8"/>
    <line x1="2" y1="205" x2="8" y2="205"/>
    <line x1="205" y1="502" x2="205" y2="508"/>
    <line x1="502" y1="205" x2="508" y2="205"/>
    <line x1="305" y1="2" x2="305" y2="8"/>
    <line x1="2" y1="305" x2="8" y2="305"/>
    <line x1="305" y1="502" x2="305" y2="508"/>
    <line x1="502" y1="305" x2="508" y2="305"/>
    <line x1="405" y1="2" x2="405" y2="8"/>
    <line x1="2" y1="405" x2="8" y2="405"/>
    <line x1="405" y1="502" x2="405" y2="508"/>
    <line x1="502" y1="405" x2="508" y2="405"/>
  </g>
  <g stroke="gray" stroke-width="1" stroke-dasharray="5,5">
    <line x1="105" y1="5" x2="105" y2="505"/>
    <line x1="5" y1="105" x2="505" y2="105"/>
    <line x1="205" y1="5" x2="205" y2="505"/>
    <line x1="5" y1="205" x2="505" y2="205"/>
    <line x1="305" y1="5" x2="305" y2="505"/>
    <line x1="5" y1="305" x2="505" y2="305"/>
    <line x1="405" y1="5" x2="405" y2="505"/>
    <line x1="5" y1="405" x2="505" y2="405"/>
  </g>
</svg>
