<?xml version="1.0" standalone="no"?>
<!DOCTYPE svg PUBLIC "-//W3C//DTD SVG 1.1//EN" 
  "http://www.w3.org/Graphics/SVG/1.1/DTD/svg11.dtd">
<svg width="510" height="510" version="1.1" id="toplevel"
    xmlns="http://www.w3.org/2000/svg"
    xmlns:xlink="http://www.w3.org/1999/xlink">
  <polygon points="68,489 305,477 491,373 352,125 380,106 379,78 411,26 409,21 390,29 378,30 202,230 117,394 42,362 19,415"
           fill="orange"/>
  <g stroke="darkorange" stroke-width="1">
    <line x1="353" y1="125" x2="374" y2="35"/>
    <circle cx="353" cy="125" r="2"/>
    <circle cx="374" cy="35" r="2"/>
  </g>
  <g stroke="darkorange" stroke-width="1">
    <line x1="56" y1="471" x2="71" y2="415"/>
    <circle cx="56" cy="471" r="2"/>
    <circle cx="71" cy="415" r="2"/>
  </g>
  <g stroke="darkorange" stroke-width="1">
    <line x1="380" y1="106" x2="378" y2="30"/>
    <circle cx="380" cy="106" r="2"/>
    <circle cx="378" cy="30" r="2"/>
  </g>
  <g stroke="darkorange" stroke-width="1">
    <line x1="126" y1="486" x2="411" y2="26"/>
    <circle cx="126" cy="486" r="2"/>
    <circle cx="411" cy="26" r="2"/>
  </g>
  <g stroke="darkorange" stroke-width="1">
    <line x1="68" y1="489" x2="202" y2="230"/>
    <circle cx="68" cy="489" r="2"/>
    <circle cx="202" cy="230" r="2"/>
  </g>
  <g stroke="darkorange" stroke-width="1">
    <line x1="19" y1="415" x2="42" y2="362"/>
    <circle cx="19" cy="415" r="2"/>
    <circle cx="42" cy="362" r="2"/>
  </g>
  <g stroke="darkorange" stroke-width="1">
    <line x1="380" y1="424" x2="300" y2="118"/>
    <circle cx="380" cy="424" r="2"/>
    <circle cx="300" cy="118" r="2"/>
  </g>
  <g stroke="darkorange" stroke-width="1">
    <line x1="68" y1="489" x2="19" y2="415"/>
    <circle cx="68" cy="489" r="2"/>
    <circle cx="19" cy="415" r="2"/>
  </g>
  <g stroke="darkorange" stroke-width="1">
    <line x1="202" y1="230" x2="378" y2="30"/>
    <circle cx="202" cy="230" r="2"/>
    <circle cx="378" cy="30" r="2"/>
  </g>
  <g stroke="darkorange" stroke-width="1">
    <line x1="305" y1="477" x2="491" y2="373"/>
    <circle cx="305" cy="477" r="2"/>
    <circle cx="491" cy="373" r="2"/>
  </g>
  <g stroke="darkorange" stroke-width="1">
    <line x1="126" y1="486" x2="71" y2="415"/>
    <circle cx="126" cy="486" r="2"/>
    <circle cx="71" cy="415" r="2"/>
  </g>
  <g stroke="darkorange" stroke-width="1">
    <line x1="411" y1="26" x2="409" y2="21"/>
    <circle cx="411" cy="26" r="2"/>
    <circle cx="409" cy="21" r="2"/>
  </g>
  <g stroke="darkorange" stroke-width="1">
    <line x1="202" y1="230" x2="380" y2="106"/>
    <circle cx="202" cy="230" r="2"/>
    <circle cx="380" cy="106" r="2"/>
  </g>
  <g stroke="darkorange" stroke-width="1">
    <line x1="491" y1="373" x2="329" y2="85"/>
    <circle cx="491" cy="373" r="2"/>
    <circle cx="329" cy="85" r="2"/>
  </g>
  <g stroke="darkorange" stroke-width="1">
    <line x1="146" y1="485" x2="380" y2="424"/>
    <circle cx="146" cy="485" r="2"/>
    <circle cx="380" cy="424" r="2"/>
  </g>
  <g stroke="darkorange" stroke-width="1">
    <line x1="68" y1="489" x2="305" y2="477"/>
    <circle cx="68" cy="489" r="2"/>
    <circle cx="305" cy="477" r="2"/>
  </g>
  <g stroke="darkorange" stroke-width="1">
    <line x1="146" y1="485" x2="56" y2="471"/>
    <circle cx="146" cy="485" r="2"/>
    <circle cx="56" cy="471" r="2"/>
  </g>
  <g stroke="darkorange" stroke-width="1">
    <line x1="305" y1="477" x2="42" y2="362"/>
    <circle cx="305" cy="477" r="2"/>
    <circle cx="42" cy="362" r="2"/>
  </g>
  <g stroke="darkorange" stroke-width="1">
    <line x1="19" y1="415" x2="71" y2="415"/>
    <circle cx="19" cy="415" r="2"/>
    <circle cx="71" cy="415" r="2"/>
  </g>
  <g stroke="darkorange" stroke-width="1">
    <line x1="374" y1="35" x2="409" y2="21"/>
    <circle cx="374" cy="35" r="2"/>
    <circle cx="409" cy="21" r="2"/>
  </g>
  <g stroke="darkorange" stroke-width="1">
    <line x1="353" y1="125" x2="300" y2="118"/>
    <circle cx="353" cy="125" r="2"/>
    <circle cx="300" cy="118" r="2"/>
  </g>
  <g stroke="darkorange" stroke-width="1">
    <line x1="378" y1="30" x2="411" y2="26"/>
    <circle cx="378" cy="30" r="2"/>
    <circle cx="411" cy="26" r="2"/>
  </g>
  <g stroke="darkorange" stroke-width="1">
    <line x1="380" y1="106" x2="329" y2="85"/>
    <circle cx="380" cy="106" r="2"/>
    <circle cx="329" cy="85" r="2"/>
  </g>
  <g stroke="black" stroke-width="1">
    <line x1="5" y1="5" x2="505" y2="5"/>
    <line x1="5" y1="5" x2="5" y2="505"/>
    <line x1="505" y1="505" x2="5" y2="505"/>
    <line x1="505" y1="505" x2="505" y2="5"/>
    <line x1="105" y1="2" x2="105" y2="8"/>
    <line x1="2" y1="105" x2="8" y2="105"/>
    <line x1="105" y1="502" x2="105" y2="508"/>
    <line x1="502" y1="105" x2="508" y2="105"/>
    <line x1="205" y1="2" x2="205" y2="8"/>
    <line x1="2" y1="205" x2="8" y2="205"/>
    <line x1="205" y1="502" x2="205" y2="508"/>
    <line x1="502" y1="205" x2="508" y2="205"/>
    <line x1="305" y1="2" x2="305" y2="8"/>
    <line x1="2" y1="305" x2="8" y2="305"/>
    <line x1="305" y1="502" x2="305" y2="508"/>
    <line x1="502" y1="305" x2="508" y2="305"/>
    <line x1="405" y1="2" x2="405" y2="8"/>
    <line x1="2" y1="405" x2="8" y2="405"/>
    <line x1="405" y1="502" x2="405" y2="508"/>
    <line x1="502" y1="405" x2="508" y2="405"/>
  </g>
  <g stroke="gray" stroke-width="1" stroke-dasharray="5,5">
    <line x1="105" y1="5" x2="105" y2="505"/>
    <line x1="5" y1="105" x2="505" y2="105"/>
    <line x1="205" y1="5" x2="205" y2="505"/>
    <line x1="5" y1="205" x2="505" y2="205"/>
    <line x1="305" y1="5" x2="305" y2="505"/>
    <line x1="5" y1="305" x2="505" y2="305"/>
    <line x1="405" y1="5" x2="405" y2="505"/>
    <line x1="5" y1="405" x2="505" y2="405"/>
  </g>
</svg>
