<?xml version="1.0" standalone="no"?>
<!DOCTYPE svg PUBLIC "-//W3C//DTD SVG 1.1//EN" 
  "http://www.w3.org/Graphics/SVG/1.1/DTD/svg11.dtd">
<svg width="526" height="526" version="1.1" id="toplevel"
    xmlns="http://www.w3.org/2000/svg"
    xmlns:xlink="http://www.w3.org/1999/xlink">
  <polygon points="31,521 136,490 490,490 490,40 504,12 490,5 295,126 22,490"
           fill="bisque"/>
  <g stroke="chocolate" stroke-width="1">
    <line x1="462" y1="96" x2="504" y2="12"/>
    <circle cx="462" cy="96" r="2"/>
    <circle cx="504" cy="12" r="2"/>
  </g>
  <g stroke="chocolate" stroke-width="1">
    <line x1="283" y1="447" x2="428" y2="96"/>
    <circle cx="283" cy="447" r="2"/>
    <circle cx="428" cy="96" r="2"/>
  </g>
  <g stroke="chocolate" stroke-width="1">
    <line x1="221" y1="279" x2="239" y2="200"/>
    <circle cx="221" cy="279" r="2"/>
    <circle cx="239" cy="200" r="2"/>
  </g>
  <g stroke="chocolate" stroke-width="1">
    <line x1="31" y1="521" x2="283" y2="447"/>
    <circle cx="31" cy="521" r="2"/>
    <circle cx="283" cy="447" r="2"/>
  </g>
  <g stroke="chocolate" stroke-width="1">
    <line x1="22" y1="490" x2="295" y2="126"/>
    <circle cx="22" cy="490" r="2"/>
    <circle cx="295" cy="126" r="2"/>
  </g>
  <g stroke="chocolate" stroke-width="1">
    <line x1="22" y1="490" x2="490" y2="490"/>
    <circle cx="22" cy="490" r="2"/>
    <circle cx="490" cy="490" r="2"/>
  </g>
  <g stroke="chocolate" stroke-width="1">
    <line x1="490" y1="490" x2="490" y2="5"/>
    <circle cx="490" cy="490" r="2"/>
    <circle cx="490" cy="5" r="2"/>
  </g>
  <g stroke="chocolate" stroke-width="1">
    <line x1="31" y1="521" x2="22" y2="490"/>
    <circle cx="31" cy="521" r="2"/>
    <circle cx="22" cy="490" r="2"/>
  </g>
  <g stroke="chocolate" stroke-width="1">
    <line x1="239" y1="200" x2="428" y2="96"/>
    <circle cx="239" cy="200" r="2"/>
    <circle cx="428" cy="96" r="2"/>
  </g>
  <g stroke="chocolate" stroke-width="1">
    <line x1="295" y1="126" x2="490" y2="5"/>
    <circle cx="295" cy="126" r="2"/>
    <circle cx="490" cy="5" r="2"/>
  </g>
  <g stroke="chocolate" stroke-width="1">
    <line x1="283" y1="447" x2="186" y2="271"/>
    <circle cx="283" cy="447" r="2"/>
    <circle cx="186" cy="271" r="2"/>
  </g>
  <g stroke="chocolate" stroke-width="1">
    <line x1="428" y1="96" x2="415" y2="52"/>
    <circle cx="428" cy="96" r="2"/>
    <circle cx="415" cy="52" r="2"/>
  </g>
  <g stroke="chocolate" stroke-width="1">
    <line x1="221" y1="279" x2="186" y2="271"/>
    <circle cx="221" cy="279" r="2"/>
    <circle cx="186" cy="271" r="2"/>
  </g>
  <g stroke="chocolate" stroke-width="1">
    <line x1="295" y1="126" x2="462" y2="96"/>
    <circle cx="295" cy="126" r="2"/>
    <circle cx="462" cy="96" r="2"/>
  </g>
  <g stroke="chocolate" stroke-width="1">
    <line x1="462" y1="96" x2="415" y2="52"/>
    <circle cx="462" cy="96" r="2"/>
    <circle cx="415" cy="52" r="2"/>
  </g>
  <g stroke="chocolate" stroke-width="1">
    <line x1="504" y1="12" x2="490" y2="5"/>
    <circle cx="504" cy="12" r="2"/>
    <circle cx="490" cy="5" r="2"/>
  </g>
  <g stroke="black" stroke-width="1">
    <line x1="13" y1="13" x2="513" y2="13"/>
    <line x1="13" y1="13" x2="13" y2="513"/>
    <line x1="513" y1="513" x2="13" y2="513"/>
    <line x1="513" y1="513" x2="513" y2="13"/>
    <line x1="113" y1="10" x2="113" y2="16"/>
    <line x1="10" y1="113" x2="16" y2="113"/>
    <line x1="113" y1="510" x2="113" y2="516"/>
    <line x1="510" y1="113" x2="516" y2="113"/>
    <line x1="213" y1="10" x2="213" y2="16"/>
    <line x1="10" y1="213" x2="16" y2="213"/>
    <line x1="213" y1="510" x2="213" y2="516"/>
    <line x1="510" y1="213" x2="516" y2="213"/>
    <line x1="313" y1="10" x2="313" y2="16"/>
    <line x1="10" y1="313" x2="16" y2="313"/>
    <line x1="313" y1="510" x2="313" y2="516"/>
    <line x1="510" y1="313" x2="516" y2="313"/>
    <line x1="413" y1="10" x2="413" y2="16"/>
    <line x1="10" y1="413" x2="16" y2="413"/>
    <line x1="413" y1="510" x2="413" y2="516"/>
    <line x1="510" y1="413" x2="516" y2="413"/>
  </g>
  <g stroke="gray" stroke-width="1" stroke-dasharray="5,5">
    <line x1="113" y1="13" x2="113" y2="513"/>
    <line x1="13" y1="113" x2="513" y2="113"/>
    <line x1="213" y1="13" x2="213" y2="513"/>
    <line x1="13" y1="213" x2="513" y2="213"/>
    <line x1="313" y1="13" x2="313" y2="513"/>
    <line x1="13" y1="313" x2="513" y2="313"/>
    <line x1="413" y1="13" x2="413" y2="513"/>
    <line x1="13" y1="413" x2="513" y2="413"/>
  </g>
</svg>
