<?xml version="1.0" standalone="no"?>
<!DOCTYPE svg PUBLIC "-//W3C//DTD SVG 1.1//EN" 
  "http://www.w3.org/Graphics/SVG/1.1/DTD/svg11.dtd">
<svg width="586" height="586" version="1.1" id="toplevel"
    xmlns="http://www.w3.org/2000/svg"
    xmlns:xlink="http://www.w3.org/1999/xlink">
  <polygon points="469,581 510,453 158,38 117,5 76,11 92,119 81,152 102,185 148,506 285,486 312,531"
           fill="bisque"/>
  <g stroke="chocolate" stroke-width="1">
    <line x1="469" y1="581" x2="312" y2="531"/>
    <circle cx="469" cy="581" r="2"/>
    <circle cx="312" cy="531" r="2"/>
  </g>
  <g stroke="chocolate" stroke-width="1">
    <line x1="148" y1="506" x2="510" y2="453"/>
    <circle cx="148" cy="506" r="2"/>
    <circle cx="510" cy="453" r="2"/>
  </g>
  <g stroke="chocolate" stroke-width="1">
    <line x1="469" y1="581" x2="510" y2="453"/>
    <circle cx="469" cy="581" r="2"/>
    <circle cx="510" cy="453" r="2"/>
  </g>
  <g stroke="chocolate" stroke-width="1">
    <line x1="312" y1="531" x2="81" y2="152"/>
    <circle cx="312" cy="531" r="2"/>
    <circle cx="81" cy="152" r="2"/>
  </g>
  <g stroke="chocolate" stroke-width="1">
    <line x1="148" y1="506" x2="76" y2="11"/>
    <circle cx="148" cy="506" r="2"/>
    <circle cx="76" cy="11" r="2"/>
  </g>
  <g stroke="chocolate" stroke-width="1">
    <line x1="312" y1="531" x2="356" y2="271"/>
    <circle cx="312" cy="531" r="2"/>
    <circle cx="356" cy="271" r="2"/>
  </g>
  <g stroke="chocolate" stroke-width="1">
    <line x1="118" y1="17" x2="117" y2="5"/>
    <circle cx="118" cy="17" r="2"/>
    <circle cx="117" cy="5" r="2"/>
  </g>
  <g stroke="chocolate" stroke-width="1">
    <line x1="284" y1="271" x2="356" y2="271"/>
    <circle cx="284" cy="271" r="2"/>
    <circle cx="356" cy="271" r="2"/>
  </g>
  <g stroke="chocolate" stroke-width="1">
    <line x1="284" y1="271" x2="284" y2="186"/>
    <circle cx="284" cy="271" r="2"/>
    <circle cx="284" cy="186" r="2"/>
  </g>
  <g stroke="chocolate" stroke-width="1">
    <line x1="510" y1="453" x2="158" y2="38"/>
    <circle cx="510" cy="453" r="2"/>
    <circle cx="158" cy="38" r="2"/>
  </g>
  <g stroke="chocolate" stroke-width="1">
    <line x1="81" y1="152" x2="126" y2="12"/>
    <circle cx="81" cy="152" r="2"/>
    <circle cx="126" cy="12" r="2"/>
  </g>
  <g stroke="chocolate" stroke-width="1">
    <line x1="158" y1="38" x2="117" y2="5"/>
    <circle cx="158" cy="38" r="2"/>
    <circle cx="117" cy="5" r="2"/>
  </g>
  <g stroke="chocolate" stroke-width="1">
    <line x1="284" y1="186" x2="81" y2="152"/>
    <circle cx="284" cy="186" r="2"/>
    <circle cx="81" cy="152" r="2"/>
  </g>
  <g stroke="chocolate" stroke-width="1">
    <line x1="158" y1="38" x2="118" y2="17"/>
    <circle cx="158" cy="38" r="2"/>
    <circle cx="118" cy="17" r="2"/>
  </g>
  <g stroke="chocolate" stroke-width="1">
    <line x1="118" y1="17" x2="126" y2="12"/>
    <circle cx="118" cy="17" r="2"/>
    <circle cx="126" cy="12" r="2"/>
  </g>
  <g stroke="chocolate" stroke-width="1">
    <line x1="76" y1="11" x2="117" y2="5"/>
    <circle cx="76" cy="11" r="2"/>
    <circle cx="117" cy="5" r="2"/>
  </g>
  <g stroke="black" stroke-width="1">
    <line x1="43" y1="43" x2="543" y2="43"/>
    <line x1="43" y1="43" x2="43" y2="543"/>
    <line x1="543" y1="543" x2="43" y2="543"/>
    <line x1="543" y1="543" x2="543" y2="43"/>
    <line x1="143" y1="40" x2="143" y2="46"/>
    <line x1="40" y1="143" x2="46" y2="143"/>
    <line x1="143" y1="540" x2="143" y2="546"/>
    <line x1="540" y1="143" x2="546" y2="143"/>
    <line x1="243" y1="40" x2="243" y2="46"/>
    <line x1="40" y1="243" x2="46" y2="243"/>
    <line x1="243" y1="540" x2="243" y2="546"/>
    <line x1="540" y1="243" x2="546" y2="243"/>
    <line x1="343" y1="40" x2="343" y2="46"/>
    <line x1="40" y1="343" x2="46" y2="343"/>
    <line x1="343" y1="540" x2="343" y2="546"/>
    <line x1="540" y1="343" x2="546" y2="343"/>
    <line x1="443" y1="40" x2="443" y2="46"/>
    <line x1="40" y1="443" x2="46" y2="443"/>
    <line x1="443" y1="540" x2="443" y2="546"/>
    <line x1="540" y1="443" x2="546" y2="443"/>
  </g>
  <g stroke="gray" stroke-width="1" stroke-dasharray="5,5">
    <line x1="143" y1="43" x2="143" y2="543"/>
    <line x1="43" y1="143" x2="543" y2="143"/>
    <line x1="243" y1="43" x2="243" y2="543"/>
    <line x1="43" y1="243" x2="543" y2="243"/>
    <line x1="343" y1="43" x2="343" y2="543"/>
    <line x1="43" y1="343" x2="543" y2="343"/>
    <line x1="443" y1="43" x2="443" y2="543"/>
    <line x1="43" y1="443" x2="543" y2="443"/>
  </g>
</svg>
