<?xml version="1.0" standalone="no"?>
<!DOCTYPE svg PUBLIC "-//W3C//DTD SVG 1.1//EN" 
  "http://www.w3.org/Graphics/SVG/1.1/DTD/svg11.dtd">
<svg width="510" height="510" version="1.1" id="toplevel"
    xmlns="http://www.w3.org/2000/svg"
    xmlns:xlink="http://www.w3.org/1999/xlink">
  <polygon points="284,365 297,13 13,310 13,361" fill="bisque"/>
  <g stroke="chocolate" stroke-width="1">
    <line x1="295" y1="20" x2="297" y2="13"/>
    <circle cx="295" cy="20" r="2"/>
    <circle cx="297" cy="13" r="2"/>
  </g>
  <g stroke="chocolate" stroke-width="1">
    <line x1="249" y1="215" x2="287" y2="23"/>
    <circle cx="249" cy="215" r="2"/>
    <circle cx="287" cy="23" r="2"/>
  </g>
  <g stroke="chocolate" stroke-width="1">
    <line x1="255" y1="294" x2="288" y2="22"/>
    <circle cx="255" cy="294" r="2"/>
    <circle cx="288" cy="22" r="2"/>
  </g>
  <g stroke="chocolate" stroke-width="1">
    <line x1="284" y1="365" x2="297" y2="13"/>
    <circle cx="284" cy="365" r="2"/>
    <circle cx="297" cy="13" r="2"/>
  </g>
  <g stroke="chocolate" stroke-width="1">
    <line x1="62" y1="362" x2="71" y2="249"/>
    <circle cx="62" cy="362" r="2"/>
    <circle cx="71" cy="249" r="2"/>
  </g>
  <g stroke="chocolate" stroke-width="1">
    <line x1="85" y1="264" x2="85" y2="235"/>
    <circle cx="85" cy="264" r="2"/>
    <circle cx="85" cy="235" r="2"/>
  </g>
  <g stroke="chocolate" stroke-width="1">
    <line x1="13" y1="361" x2="13" y2="310"/>
    <circle cx="13" cy="361" r="2"/>
    <circle cx="13" cy="310" r="2"/>
  </g>
  <g stroke="chocolate" stroke-width="1">
    <line x1="21" y1="361" x2="21" y2="302"/>
    <circle cx="21" cy="361" r="2"/>
    <circle cx="21" cy="302" r="2"/>
  </g>
  <g stroke="chocolate" stroke-width="1">
    <line x1="21" y1="361" x2="19" y2="303"/>
    <circle cx="21" cy="361" r="2"/>
    <circle cx="19" cy="303" r="2"/>
  </g>
  <g stroke="chocolate" stroke-width="1">
    <line x1="105" y1="306" x2="105" y2="302"/>
    <circle cx="105" cy="306" r="2"/>
    <circle cx="105" cy="302" r="2"/>
  </g>
  <g stroke="chocolate" stroke-width="1">
    <line x1="284" y1="365" x2="282" y2="225"/>
    <circle cx="284" cy="365" r="2"/>
    <circle cx="282" cy="225" r="2"/>
  </g>
  <g stroke="chocolate" stroke-width="1">
    <line x1="62" y1="362" x2="57" y2="263"/>
    <circle cx="62" cy="362" r="2"/>
    <circle cx="57" cy="263" r="2"/>
  </g>
  <g stroke="chocolate" stroke-width="1">
    <line x1="105" y1="306" x2="99" y2="220"/>
    <circle cx="105" cy="306" r="2"/>
    <circle cx="99" cy="220" r="2"/>
  </g>
  <g stroke="chocolate" stroke-width="1">
    <line x1="13" y1="310" x2="297" y2="13"/>
    <circle cx="13" cy="310" r="2"/>
    <circle cx="297" cy="13" r="2"/>
  </g>
  <g stroke="chocolate" stroke-width="1">
    <line x1="13" y1="361" x2="21" y2="361"/>
    <circle cx="13" cy="361" r="2"/>
    <circle cx="21" cy="361" r="2"/>
  </g>
  <g stroke="chocolate" stroke-width="1">
    <line x1="284" y1="365" x2="13" y2="361"/>
    <circle cx="284" cy="365" r="2"/>
    <circle cx="13" cy="361" r="2"/>
  </g>
  <g stroke="chocolate" stroke-width="1">
    <line x1="13" y1="310" x2="286" y2="298"/>
    <circle cx="13" cy="310" r="2"/>
    <circle cx="286" cy="298" r="2"/>
  </g>
  <g stroke="chocolate" stroke-width="1">
    <line x1="19" y1="303" x2="105" y2="302"/>
    <circle cx="19" cy="303" r="2"/>
    <circle cx="105" cy="302" r="2"/>
  </g>
  <g stroke="chocolate" stroke-width="1">
    <line x1="21" y1="302" x2="286" y2="290"/>
    <circle cx="21" cy="302" r="2"/>
    <circle cx="286" cy="290" r="2"/>
  </g>
  <g stroke="chocolate" stroke-width="1">
    <line x1="286" y1="298" x2="255" y2="294"/>
    <circle cx="286" cy="298" r="2"/>
    <circle cx="255" cy="294" r="2"/>
  </g>
  <g stroke="chocolate" stroke-width="1">
    <line x1="85" y1="264" x2="57" y2="263"/>
    <circle cx="85" cy="264" r="2"/>
    <circle cx="57" cy="263" r="2"/>
  </g>
  <g stroke="chocolate" stroke-width="1">
    <line x1="71" y1="249" x2="289" y2="223"/>
    <circle cx="71" cy="249" r="2"/>
    <circle cx="289" cy="223" r="2"/>
  </g>
  <g stroke="chocolate" stroke-width="1">
    <line x1="286" y1="290" x2="256" y2="287"/>
    <circle cx="286" cy="290" r="2"/>
    <circle cx="256" cy="287" r="2"/>
  </g>
  <g stroke="chocolate" stroke-width="1">
    <line x1="85" y1="235" x2="282" y2="225"/>
    <circle cx="85" cy="235" r="2"/>
    <circle cx="282" cy="225" r="2"/>
  </g>
  <g stroke="chocolate" stroke-width="1">
    <line x1="282" y1="225" x2="99" y2="220"/>
    <circle cx="282" cy="225" r="2"/>
    <circle cx="99" cy="220" r="2"/>
  </g>
  <g stroke="chocolate" stroke-width="1">
    <line x1="289" y1="223" x2="249" y2="215"/>
    <circle cx="289" cy="223" r="2"/>
    <circle cx="249" cy="215" r="2"/>
  </g>
  <g stroke="chocolate" stroke-width="1">
    <line x1="287" y1="23" x2="297" y2="21"/>
    <circle cx="287" cy="23" r="2"/>
    <circle cx="297" cy="21" r="2"/>
  </g>
  <g stroke="chocolate" stroke-width="1">
    <line x1="288" y1="22" x2="297" y2="21"/>
    <circle cx="288" cy="22" r="2"/>
    <circle cx="297" cy="21" r="2"/>
  </g>
  <g stroke="chocolate" stroke-width="1">
    <line x1="297" y1="21" x2="295" y2="20"/>
    <circle cx="297" cy="21" r="2"/>
    <circle cx="295" cy="20" r="2"/>
  </g>
  <g stroke="chocolate" stroke-width="1">
    <line x1="297" y1="21" x2="295" y2="20"/>
    <circle cx="297" cy="21" r="2"/>
    <circle cx="295" cy="20" r="2"/>
  </g>
  <g stroke="black" stroke-width="1">
    <line x1="5" y1="5" x2="505" y2="5"/>
    <line x1="5" y1="5" x2="5" y2="505"/>
    <line x1="505" y1="505" x2="5" y2="505"/>
    <line x1="505" y1="505" x2="505" y2="5"/>
    <line x1="105" y1="2" x2="105" y2="8"/>
    <line x1="2" y1="105" x2="8" y2="105"/>
    <line x1="105" y1="502" x2="105" y2="508"/>
    <line x1="502" y1="105" x2="508" y2="105"/>
    <line x1="205" y1="2" x2="205" y2="8"/>
    <line x1="2" y1="205" x2="8" y2="205"/>
    <line x1="205" y1="502" x2="205" y2="508"/>
    <line x1="502" y1="205" x2="508" y2="205"/>
    <line x1="305" y1="2" x2="305" y2="8"/>
    <line x1="2" y1="305" x2="8" y2="305"/>
    <line x1="305" y1="502" x2="305" y2="508"/>
    <line x1="502" y1="305" x2="508" y2="305"/>
    <line x1="405" y1="2" x2="405" y2="8"/>
    <line x1="2" y1="405" x2="8" y2="405"/>
    <line x1="405" y1="502" x2="405" y2="508"/>
    <line x1="502" y1="405" x2="508" y2="405"/>
  </g>
  <g stroke="gray" stroke-width="1" stroke-dasharray="5,5">
    <line x1="105" y1="5" x2="105" y2="505"/>
    <line x1="5" y1="105" x2="505" y2="105"/>
    <line x1="205" y1="5" x2="205" y2="505"/>
    <line x1="5" y1="205" x2="505" y2="205"/>
    <line x1="305" y1="5" x2="305" y2="505"/>
    <line x1="5" y1="305" x2="505" y2="305"/>
    <line x1="405" y1="5" x2="405" y2="505"/>
    <line x1="5" y1="405" x2="505" y2="405"/>
  </g>
</svg>
