<?xml version="1.0" standalone="no"?>
<!DOCTYPE svg PUBLIC "-//W3C//DTD SVG 1.1//EN" 
  "http://www.w3.org/Graphics/SVG/1.1/DTD/svg11.dtd">
<svg width="510" height="510" version="1.1" id="toplevel"
    xmlns="http://www.w3.org/2000/svg"
    xmlns:xlink="http://www.w3.org/1999/xlink">
  <polygon points="157,372 180,308 218,286 432,247 418,171 372,150 83,138 78,168 88,194 102,352"
           fill="bisque"/>
  <g stroke="chocolate" stroke-width="1">
    <line x1="102" y1="352" x2="418" y2="171"/>
    <circle cx="102" cy="352" r="2"/>
    <circle cx="418" cy="171" r="2"/>
  </g>
  <g stroke="chocolate" stroke-width="1">
    <line x1="118" y1="258" x2="212" y2="143"/>
    <circle cx="118" cy="258" r="2"/>
    <circle cx="212" cy="143" r="2"/>
  </g>
  <g stroke="chocolate" stroke-width="1">
    <line x1="157" y1="372" x2="238" y2="144"/>
    <circle cx="157" cy="372" r="2"/>
    <circle cx="238" cy="144" r="2"/>
  </g>
  <g stroke="chocolate" stroke-width="1">
    <line x1="119" y1="206" x2="169" y2="157"/>
    <circle cx="119" cy="206" r="2"/>
    <circle cx="169" cy="157" r="2"/>
  </g>
  <g stroke="chocolate" stroke-width="1">
    <line x1="109" y1="247" x2="156" y2="228"/>
    <circle cx="109" cy="247" r="2"/>
    <circle cx="156" cy="228" r="2"/>
  </g>
  <g stroke="chocolate" stroke-width="1">
    <line x1="109" y1="247" x2="372" y2="150"/>
    <circle cx="109" cy="247" r="2"/>
    <circle cx="372" cy="150" r="2"/>
  </g>
  <g stroke="chocolate" stroke-width="1">
    <line x1="98" y1="308" x2="432" y2="247"/>
    <circle cx="98" cy="308" r="2"/>
    <circle cx="432" cy="247" r="2"/>
  </g>
  <g stroke="chocolate" stroke-width="1">
    <line x1="143" y1="329" x2="156" y2="228"/>
    <circle cx="143" cy="329" r="2"/>
    <circle cx="156" cy="228" r="2"/>
  </g>
  <g stroke="chocolate" stroke-width="1">
    <line x1="78" y1="168" x2="83" y2="138"/>
    <circle cx="78" cy="168" r="2"/>
    <circle cx="83" cy="138" r="2"/>
  </g>
  <g stroke="chocolate" stroke-width="1">
    <line x1="249" y1="268" x2="254" y2="204"/>
    <circle cx="249" cy="268" r="2"/>
    <circle cx="254" cy="204" r="2"/>
  </g>
  <g stroke="chocolate" stroke-width="1">
    <line x1="98" y1="308" x2="180" y2="308"/>
    <circle cx="98" cy="308" r="2"/>
    <circle cx="180" cy="308" r="2"/>
  </g>
  <g stroke="chocolate" stroke-width="1">
    <line x1="102" y1="352" x2="83" y2="138"/>
    <circle cx="102" cy="352" r="2"/>
    <circle cx="83" cy="138" r="2"/>
  </g>
  <g stroke="chocolate" stroke-width="1">
    <line x1="140" y1="328" x2="119" y2="206"/>
    <circle cx="140" cy="328" r="2"/>
    <circle cx="119" cy="206" r="2"/>
  </g>
  <g stroke="chocolate" stroke-width="1">
    <line x1="157" y1="372" x2="102" y2="352"/>
    <circle cx="157" cy="372" r="2"/>
    <circle cx="102" cy="352" r="2"/>
  </g>
  <g stroke="chocolate" stroke-width="1">
    <line x1="143" y1="329" x2="140" y2="328"/>
    <circle cx="143" cy="329" r="2"/>
    <circle cx="140" cy="328" r="2"/>
  </g>
  <g stroke="chocolate" stroke-width="1">
    <line x1="432" y1="247" x2="418" y2="171"/>
    <circle cx="432" cy="247" r="2"/>
    <circle cx="418" cy="171" r="2"/>
  </g>
  <g stroke="chocolate" stroke-width="1">
    <line x1="141" y1="330" x2="78" y2="168"/>
    <circle cx="141" cy="330" r="2"/>
    <circle cx="78" cy="168" r="2"/>
  </g>
  <g stroke="chocolate" stroke-width="1">
    <line x1="268" y1="257" x2="238" y2="144"/>
    <circle cx="268" cy="257" r="2"/>
    <circle cx="238" cy="144" r="2"/>
  </g>
  <g stroke="chocolate" stroke-width="1">
    <line x1="141" y1="330" x2="140" y2="328"/>
    <circle cx="141" cy="330" r="2"/>
    <circle cx="140" cy="328" r="2"/>
  </g>
  <g stroke="chocolate" stroke-width="1">
    <line x1="372" y1="150" x2="83" y2="138"/>
    <circle cx="372" cy="150" r="2"/>
    <circle cx="83" cy="138" r="2"/>
  </g>
  <g stroke="chocolate" stroke-width="1">
    <line x1="180" y1="308" x2="118" y2="258"/>
    <circle cx="180" cy="308" r="2"/>
    <circle cx="118" cy="258" r="2"/>
  </g>
  <g stroke="chocolate" stroke-width="1">
    <line x1="249" y1="268" x2="119" y2="206"/>
    <circle cx="249" cy="268" r="2"/>
    <circle cx="119" cy="206" r="2"/>
  </g>
  <g stroke="chocolate" stroke-width="1">
    <line x1="156" y1="228" x2="78" y2="168"/>
    <circle cx="156" cy="228" r="2"/>
    <circle cx="78" cy="168" r="2"/>
  </g>
  <g stroke="chocolate" stroke-width="1">
    <line x1="254" y1="204" x2="212" y2="143"/>
    <circle cx="254" cy="204" r="2"/>
    <circle cx="212" cy="143" r="2"/>
  </g>
  <g stroke="chocolate" stroke-width="1">
    <line x1="268" y1="257" x2="169" y2="157"/>
    <circle cx="268" cy="257" r="2"/>
    <circle cx="169" cy="157" r="2"/>
  </g>
  <g stroke="chocolate" stroke-width="1">
    <line x1="418" y1="171" x2="372" y2="150"/>
    <circle cx="418" cy="171" r="2"/>
    <circle cx="372" cy="150" r="2"/>
  </g>
  <g stroke="black" stroke-width="1">
    <line x1="5" y1="5" x2="505" y2="5"/>
    <line x1="5" y1="5" x2="5" y2="505"/>
    <line x1="505" y1="505" x2="5" y2="505"/>
    <line x1="505" y1="505" x2="505" y2="5"/>
    <line x1="105" y1="2" x2="105" y2="8"/>
    <line x1="2" y1="105" x2="8" y2="105"/>
    <line x1="105" y1="502" x2="105" y2="508"/>
    <line x1="502" y1="105" x2="508" y2="105"/>
    <line x1="205" y1="2" x2="205" y2="8"/>
    <line x1="2" y1="205" x2="8" y2="205"/>
    <line x1="205" y1="502" x2="205" y2="508"/>
    <line x1="502" y1="205" x2="508" y2="205"/>
    <line x1="305" y1="2" x2="305" y2="8"/>
    <line x1="2" y1="305" x2="8" y2="305"/>
    <line x1="305" y1="502" x2="305" y2="508"/>
    <line x1="502" y1="305" x2="508" y2="305"/>
    <line x1="405" y1="2" x2="405" y2="8"/>
    <line x1="2" y1="405" x2="8" y2="405"/>
    <line x1="405" y1="502" x2="405" y2="508"/>
    <line x1="502" y1="405" x2="508" y2="405"/>
  </g>
  <g stroke="gray" stroke-width="1" stroke-dasharray="5,5">
    <line x1="105" y1="5" x2="105" y2="505"/>
    <line x1="5" y1="105" x2="505" y2="105"/>
    <line x1="205" y1="5" x2="205" y2="505"/>
    <line x1="5" y1="205" x2="505" y2="205"/>
    <line x1="305" y1="5" x2="305" y2="505"/>
    <line x1="5" y1="305" x2="505" y2="305"/>
    <line x1="405" y1="5" x2="405" y2="505"/>
    <line x1="5" y1="405" x2="505" y2="405"/>
  </g>
</svg>
