<?xml version="1.0" standalone="no"?>
<!DOCTYPE svg PUBLIC "-//W3C//DTD SVG 1.1//EN" 
  "http://www.w3.org/Graphics/SVG/1.1/DTD/svg11.dtd">
<svg width="510" height="510" version="1.1" id="toplevel"
    xmlns="http://www.w3.org/2000/svg"
    xmlns:xlink="http://www.w3.org/1999/xlink">
  <polygon points="5,505 36,505 36,474 68,474 99,442 99,411 130,411 161,380 161,349 192,349 224,318 224,286 255,286 286,255 224,255 192,286 192,318 161,318 130,349 130,380 99,380 68,411 68,442 36,442 5,474"
           fill="orange"/>
  <g stroke="darkorange" stroke-width="1">
    <line x1="68" y1="474" x2="99" y2="442"/>
    <circle cx="68" cy="474" r="2"/>
    <circle cx="99" cy="442" r="2"/>
  </g>
  <g stroke="darkorange" stroke-width="1">
    <line x1="130" y1="411" x2="161" y2="380"/>
    <circle cx="130" cy="411" r="2"/>
    <circle cx="161" cy="380" r="2"/>
  </g>
  <g stroke="darkorange" stroke-width="1">
    <line x1="192" y1="349" x2="224" y2="318"/>
    <circle cx="192" cy="349" r="2"/>
    <circle cx="224" cy="318" r="2"/>
  </g>
  <g stroke="darkorange" stroke-width="1">
    <line x1="255" y1="286" x2="286" y2="255"/>
    <circle cx="255" cy="286" r="2"/>
    <circle cx="286" cy="255" r="2"/>
  </g>
  <g stroke="darkorange" stroke-width="1">
    <line x1="5" y1="505" x2="36" y2="505"/>
    <circle cx="5" cy="505" r="2"/>
    <circle cx="36" cy="505" r="2"/>
  </g>
  <g stroke="darkorange" stroke-width="1">
    <line x1="5" y1="505" x2="5" y2="474"/>
    <circle cx="5" cy="505" r="2"/>
    <circle cx="5" cy="474" r="2"/>
  </g>
  <g stroke="darkorange" stroke-width="1">
    <line x1="36" y1="505" x2="36" y2="442"/>
    <circle cx="36" cy="505" r="2"/>
    <circle cx="36" cy="442" r="2"/>
  </g>
  <g stroke="darkorange" stroke-width="1">
    <line x1="68" y1="474" x2="68" y2="411"/>
    <circle cx="68" cy="474" r="2"/>
    <circle cx="68" cy="411" r="2"/>
  </g>
  <g stroke="darkorange" stroke-width="1">
    <line x1="99" y1="442" x2="99" y2="380"/>
    <circle cx="99" cy="442" r="2"/>
    <circle cx="99" cy="380" r="2"/>
  </g>
  <g stroke="darkorange" stroke-width="1">
    <line x1="130" y1="411" x2="130" y2="349"/>
    <circle cx="130" cy="411" r="2"/>
    <circle cx="130" cy="349" r="2"/>
  </g>
  <g stroke="darkorange" stroke-width="1">
    <line x1="161" y1="380" x2="161" y2="318"/>
    <circle cx="161" cy="380" r="2"/>
    <circle cx="161" cy="318" r="2"/>
  </g>
  <g stroke="darkorange" stroke-width="1">
    <line x1="192" y1="349" x2="192" y2="286"/>
    <circle cx="192" cy="349" r="2"/>
    <circle cx="192" cy="286" r="2"/>
  </g>
  <g stroke="darkorange" stroke-width="1">
    <line x1="224" y1="318" x2="224" y2="255"/>
    <circle cx="224" cy="318" r="2"/>
    <circle cx="224" cy="255" r="2"/>
  </g>
  <g stroke="darkorange" stroke-width="1">
    <line x1="255" y1="286" x2="255" y2="255"/>
    <circle cx="255" cy="286" r="2"/>
    <circle cx="255" cy="255" r="2"/>
  </g>
  <g stroke="darkorange" stroke-width="1">
    <line x1="5" y1="474" x2="36" y2="442"/>
    <circle cx="5" cy="474" r="2"/>
    <circle cx="36" cy="442" r="2"/>
  </g>
  <g stroke="darkorange" stroke-width="1">
    <line x1="68" y1="411" x2="99" y2="380"/>
    <circle cx="68" cy="411" r="2"/>
    <circle cx="99" cy="380" r="2"/>
  </g>
  <g stroke="darkorange" stroke-width="1">
    <line x1="130" y1="349" x2="161" y2="318"/>
    <circle cx="130" cy="349" r="2"/>
    <circle cx="161" cy="318" r="2"/>
  </g>
  <g stroke="darkorange" stroke-width="1">
    <line x1="192" y1="286" x2="224" y2="255"/>
    <circle cx="192" cy="286" r="2"/>
    <circle cx="224" cy="255" r="2"/>
  </g>
  <g stroke="darkorange" stroke-width="1">
    <line x1="5" y1="474" x2="68" y2="474"/>
    <circle cx="5" cy="474" r="2"/>
    <circle cx="68" cy="474" r="2"/>
  </g>
  <g stroke="darkorange" stroke-width="1">
    <line x1="36" y1="442" x2="99" y2="442"/>
    <circle cx="36" cy="442" r="2"/>
    <circle cx="99" cy="442" r="2"/>
  </g>
  <g stroke="darkorange" stroke-width="1">
    <line x1="68" y1="411" x2="130" y2="411"/>
    <circle cx="68" cy="411" r="2"/>
    <circle cx="130" cy="411" r="2"/>
  </g>
  <g stroke="darkorange" stroke-width="1">
    <line x1="99" y1="380" x2="161" y2="380"/>
    <circle cx="99" cy="380" r="2"/>
    <circle cx="161" cy="380" r="2"/>
  </g>
  <g stroke="darkorange" stroke-width="1">
    <line x1="130" y1="349" x2="192" y2="349"/>
    <circle cx="130" cy="349" r="2"/>
    <circle cx="192" cy="349" r="2"/>
  </g>
  <g stroke="darkorange" stroke-width="1">
    <line x1="161" y1="318" x2="224" y2="318"/>
    <circle cx="161" cy="318" r="2"/>
    <circle cx="224" cy="318" r="2"/>
  </g>
  <g stroke="darkorange" stroke-width="1">
    <line x1="192" y1="286" x2="255" y2="286"/>
    <circle cx="192" cy="286" r="2"/>
    <circle cx="255" cy="286" r="2"/>
  </g>
  <g stroke="darkorange" stroke-width="1">
    <line x1="224" y1="255" x2="286" y2="255"/>
    <circle cx="224" cy="255" r="2"/>
    <circle cx="286" cy="255" r="2"/>
  </g>
  <g stroke="black" stroke-width="1">
    <line x1="5" y1="5" x2="505" y2="5"/>
    <line x1="5" y1="5" x2="5" y2="505"/>
    <line x1="505" y1="505" x2="5" y2="505"/>
    <line x1="505" y1="505" x2="505" y2="5"/>
    <line x1="105" y1="2" x2="105" y2="8"/>
    <line x1="2" y1="105" x2="8" y2="105"/>
    <line x1="105" y1="502" x2="105" y2="508"/>
    <line x1="502" y1="105" x2="508" y2="105"/>
    <line x1="205" y1="2" x2="205" y2="8"/>
    <line x1="2" y1="205" x2="8" y2="205"/>
    <line x1="205" y1="502" x2="205" y2="508"/>
    <line x1="502" y1="205" x2="508" y2="205"/>
    <line x1="305" y1="2" x2="305" y2="8"/>
    <line x1="2" y1="305" x2="8" y2="305"/>
    <line x1="305" y1="502" x2="305" y2="508"/>
    <line x1="502" y1="305" x2="508" y2="305"/>
    <line x1="405" y1="2" x2="405" y2="8"/>
    <line x1="2" y1="405" x2="8" y2="405"/>
    <line x1="405" y1="502" x2="405" y2="508"/>
    <line x1="502" y1="405" x2="508" y2="405"/>
  </g>
  <g stroke="gray" stroke-width="1" stroke-dasharray="5,5">
    <line x1="105" y1="5" x2="105" y2="505"/>
    <line x1="5" y1="105" x2="505" y2="105"/>
    <line x1="205" y1="5" x2="205" y2="505"/>
    <line x1="5" y1="205" x2="505" y2="205"/>
    <line x1="305" y1="5" x2="305" y2="505"/>
    <line x1="5" y1="305" x2="505" y2="305"/>
    <line x1="405" y1="5" x2="405" y2="505"/>
    <line x1="5" y1="405" x2="505" y2="405"/>
  </g>
</svg>
