<?xml version="1.0" standalone="no"?>
<!DOCTYPE svg PUBLIC "-//W3C//DTD SVG 1.1//EN" 
  "http://www.w3.org/Graphics/SVG/1.1/DTD/svg11.dtd">
<svg width="608" height="608" version="1.1" id="toplevel"
    xmlns="http://www.w3.org/2000/svg"
    xmlns:xlink="http://www.w3.org/1999/xlink">
  <polygon points="115,603 603,493 493,5 5,115" fill="bisque"/>
  <g stroke="chocolate" stroke-width="1">
    <line x1="115" y1="603" x2="603" y2="493"/>
    <circle cx="115" cy="603" r="2"/>
    <circle cx="603" cy="493" r="2"/>
  </g>
  <g stroke="chocolate" stroke-width="1">
    <line x1="115" y1="603" x2="5" y2="115"/>
    <circle cx="115" cy="603" r="2"/>
    <circle cx="5" cy="115" r="2"/>
  </g>
  <g stroke="chocolate" stroke-width="1">
    <line x1="603" y1="493" x2="493" y2="5"/>
    <circle cx="603" cy="493" r="2"/>
    <circle cx="493" cy="5" r="2"/>
  </g>
  <g stroke="chocolate" stroke-width="1">
    <line x1="5" y1="115" x2="493" y2="5"/>
    <circle cx="5" cy="115" r="2"/>
    <circle cx="493" cy="5" r="2"/>
  </g>
  <g stroke="black" stroke-width="1">
    <line x1="54" y1="54" x2="554" y2="54"/>
    <line x1="54" y1="54" x2="54" y2="554"/>
    <line x1="554" y1="554" x2="54" y2="554"/>
    <line x1="554" y1="554" x2="554" y2="54"/>
    <line x1="154" y1="51" x2="154" y2="57"/>
    <line x1="51" y1="154" x2="57" y2="154"/>
    <line x1="154" y1="551" x2="154" y2="557"/>
    <line x1="551" y1="154" x2="557" y2="154"/>
    <line x1="254" y1="51" x2="254" y2="57"/>
    <line x1="51" y1="254" x2="57" y2="254"/>
    <line x1="254" y1="551" x2="254" y2="557"/>
    <line x1="551" y1="254" x2="557" y2="254"/>
    <line x1="354" y1="51" x2="354" y2="57"/>
    <line x1="51" y1="354" x2="57" y2="354"/>
    <line x1="354" y1="551" x2="354" y2="557"/>
    <line x1="551" y1="354" x2="557" y2="354"/>
    <line x1="454" y1="51" x2="454" y2="57"/>
    <line x1="51" y1="454" x2="57" y2="454"/>
    <line x1="454" y1="551" x2="454" y2="557"/>
    <line x1="551" y1="454" x2="557" y2="454"/>
  </g>
  <g stroke="gray" stroke-width="1" stroke-dasharray="5,5">
    <line x1="154" y1="54" x2="154" y2="554"/>
    <line x1="54" y1="154" x2="554" y2="154"/>
    <line x1="254" y1="54" x2="254" y2="554"/>
    <line x1="54" y1="254" x2="554" y2="254"/>
    <line x1="354" y1="54" x2="354" y2="554"/>
    <line x1="54" y1="354" x2="554" y2="354"/>
    <line x1="454" y1="54" x2="454" y2="554"/>
    <line x1="54" y1="454" x2="554" y2="454"/>
  </g>
</svg>
