<?xml version="1.0" standalone="no"?>
<!DOCTYPE svg PUBLIC "-//W3C//DTD SVG 1.1//EN" 
  "http://www.w3.org/Graphics/SVG/1.1/DTD/svg11.dtd">
<svg width="520" height="520" version="1.1" id="toplevel"
    xmlns="http://www.w3.org/2000/svg"
    xmlns:xlink="http://www.w3.org/1999/xlink">
  <polygon points="5,402 94,232 293,87 515,396 463,433 26,431" fill="bisque"/>
  <polygon points="26,431 81,355 246,274 463,433" fill="bisque"/>
  <polygon points="246,274 243,361 81,355" fill="bisque"/>
  <polygon points="293,87 364,182 360,185 94,232" fill="bisque"/>
  <polygon points="94,232 217,142 213,405 5,402" fill="bisque"/>
  <polygon points="217,142 360,185 94,232" fill="bisque"/>
  <polygon points="48,321 126,432 26,431 5,402" fill="bisque"/>
  <polygon points="26,431 81,355 235,280 126,432" fill="bisque"/>
  <polygon points="235,280 246,280 243,361 81,355" fill="bisque"/>
  <polygon points="213,405 5,402 48,321 213,322" fill="bisque"/>
  <g stroke="chocolate" stroke-width="1">
    <line x1="213" y1="322" x2="213" y2="405"/>
    <circle cx="213" cy="322" r="2"/>
    <circle cx="213" cy="405" r="2"/>
  </g>
  <g stroke="chocolate" stroke-width="1">
    <line x1="48" y1="321" x2="213" y2="322"/>
    <circle cx="48" cy="321" r="2"/>
    <circle cx="213" cy="322" r="2"/>
  </g>
  <g stroke="chocolate" stroke-width="1">
    <line x1="5" y1="402" x2="48" y2="321"/>
    <circle cx="5" cy="402" r="2"/>
    <circle cx="48" cy="321" r="2"/>
  </g>
  <g stroke="chocolate" stroke-width="1">
    <line x1="213" y1="405" x2="5" y2="402"/>
    <circle cx="213" cy="405" r="2"/>
    <circle cx="5" cy="402" r="2"/>
  </g>
  <g stroke="chocolate" stroke-width="1">
    <line x1="81" y1="355" x2="235" y2="280"/>
    <circle cx="81" cy="355" r="2"/>
    <circle cx="235" cy="280" r="2"/>
  </g>
  <g stroke="chocolate" stroke-width="1">
    <line x1="243" y1="361" x2="81" y2="355"/>
    <circle cx="243" cy="361" r="2"/>
    <circle cx="81" cy="355" r="2"/>
  </g>
  <g stroke="chocolate" stroke-width="1">
    <line x1="246" y1="280" x2="243" y2="361"/>
    <circle cx="246" cy="280" r="2"/>
    <circle cx="243" cy="361" r="2"/>
  </g>
  <g stroke="chocolate" stroke-width="1">
    <line x1="235" y1="280" x2="246" y2="280"/>
    <circle cx="235" cy="280" r="2"/>
    <circle cx="246" cy="280" r="2"/>
  </g>
  <g stroke="chocolate" stroke-width="1">
    <line x1="126" y1="432" x2="26" y2="431"/>
    <circle cx="126" cy="432" r="2"/>
    <circle cx="26" cy="431" r="2"/>
  </g>
  <g stroke="chocolate" stroke-width="1">
    <line x1="235" y1="280" x2="126" y2="432"/>
    <circle cx="235" cy="280" r="2"/>
    <circle cx="126" cy="432" r="2"/>
  </g>
  <g stroke="chocolate" stroke-width="1">
    <line x1="81" y1="355" x2="235" y2="280"/>
    <circle cx="81" cy="355" r="2"/>
    <circle cx="235" cy="280" r="2"/>
  </g>
  <g stroke="chocolate" stroke-width="1">
    <line x1="26" y1="431" x2="81" y2="355"/>
    <circle cx="26" cy="431" r="2"/>
    <circle cx="81" cy="355" r="2"/>
  </g>
  <g stroke="chocolate" stroke-width="1">
    <line x1="5" y1="402" x2="48" y2="321"/>
    <circle cx="5" cy="402" r="2"/>
    <circle cx="48" cy="321" r="2"/>
  </g>
  <g stroke="chocolate" stroke-width="1">
    <line x1="26" y1="431" x2="5" y2="402"/>
    <circle cx="26" cy="431" r="2"/>
    <circle cx="5" cy="402" r="2"/>
  </g>
  <g stroke="chocolate" stroke-width="1">
    <line x1="126" y1="432" x2="26" y2="431"/>
    <circle cx="126" cy="432" r="2"/>
    <circle cx="26" cy="431" r="2"/>
  </g>
  <g stroke="chocolate" stroke-width="1">
    <line x1="48" y1="321" x2="126" y2="432"/>
    <circle cx="48" cy="321" r="2"/>
    <circle cx="126" cy="432" r="2"/>
  </g>
  <g stroke="chocolate" stroke-width="1">
    <line x1="94" y1="232" x2="217" y2="142"/>
    <circle cx="94" cy="232" r="2"/>
    <circle cx="217" cy="142" r="2"/>
  </g>
  <g stroke="chocolate" stroke-width="1">
    <line x1="360" y1="185" x2="94" y2="232"/>
    <circle cx="360" cy="185" r="2"/>
    <circle cx="94" cy="232" r="2"/>
  </g>
  <g stroke="chocolate" stroke-width="1">
    <line x1="217" y1="142" x2="360" y2="185"/>
    <circle cx="217" cy="142" r="2"/>
    <circle cx="360" cy="185" r="2"/>
  </g>
  <g stroke="chocolate" stroke-width="1">
    <line x1="5" y1="402" x2="94" y2="232"/>
    <circle cx="5" cy="402" r="2"/>
    <circle cx="94" cy="232" r="2"/>
  </g>
  <g stroke="chocolate" stroke-width="1">
    <line x1="213" y1="405" x2="5" y2="402"/>
    <circle cx="213" cy="405" r="2"/>
    <circle cx="5" cy="402" r="2"/>
  </g>
  <g stroke="chocolate" stroke-width="1">
    <line x1="217" y1="142" x2="213" y2="405"/>
    <circle cx="217" cy="142" r="2"/>
    <circle cx="213" cy="405" r="2"/>
  </g>
  <g stroke="chocolate" stroke-width="1">
    <line x1="94" y1="232" x2="217" y2="142"/>
    <circle cx="94" cy="232" r="2"/>
    <circle cx="217" cy="142" r="2"/>
  </g>
  <g stroke="chocolate" stroke-width="1">
    <line x1="94" y1="232" x2="293" y2="87"/>
    <circle cx="94" cy="232" r="2"/>
    <circle cx="293" cy="87" r="2"/>
  </g>
  <g stroke="chocolate" stroke-width="1">
    <line x1="360" y1="185" x2="94" y2="232"/>
    <circle cx="360" cy="185" r="2"/>
    <circle cx="94" cy="232" r="2"/>
  </g>
  <g stroke="chocolate" stroke-width="1">
    <line x1="364" y1="182" x2="360" y2="185"/>
    <circle cx="364" cy="182" r="2"/>
    <circle cx="360" cy="185" r="2"/>
  </g>
  <g stroke="chocolate" stroke-width="1">
    <line x1="293" y1="87" x2="364" y2="182"/>
    <circle cx="293" cy="87" r="2"/>
    <circle cx="364" cy="182" r="2"/>
  </g>
  <g stroke="chocolate" stroke-width="1">
    <line x1="81" y1="355" x2="246" y2="274"/>
    <circle cx="81" cy="355" r="2"/>
    <circle cx="246" cy="274" r="2"/>
  </g>
  <g stroke="chocolate" stroke-width="1">
    <line x1="243" y1="361" x2="81" y2="355"/>
    <circle cx="243" cy="361" r="2"/>
    <circle cx="81" cy="355" r="2"/>
  </g>
  <g stroke="chocolate" stroke-width="1">
    <line x1="246" y1="274" x2="243" y2="361"/>
    <circle cx="246" cy="274" r="2"/>
    <circle cx="243" cy="361" r="2"/>
  </g>
  <g stroke="chocolate" stroke-width="1">
    <line x1="463" y1="433" x2="26" y2="431"/>
    <circle cx="463" cy="433" r="2"/>
    <circle cx="26" cy="431" r="2"/>
  </g>
  <g stroke="chocolate" stroke-width="1">
    <line x1="246" y1="274" x2="463" y2="433"/>
    <circle cx="246" cy="274" r="2"/>
    <circle cx="463" cy="433" r="2"/>
  </g>
  <g stroke="chocolate" stroke-width="1">
    <line x1="81" y1="355" x2="246" y2="274"/>
    <circle cx="81" cy="355" r="2"/>
    <circle cx="246" cy="274" r="2"/>
  </g>
  <g stroke="chocolate" stroke-width="1">
    <line x1="26" y1="431" x2="81" y2="355"/>
    <circle cx="26" cy="431" r="2"/>
    <circle cx="81" cy="355" r="2"/>
  </g>
  <g stroke="chocolate" stroke-width="1">
    <line x1="26" y1="431" x2="5" y2="402"/>
    <circle cx="26" cy="431" r="2"/>
    <circle cx="5" cy="402" r="2"/>
  </g>
  <g stroke="chocolate" stroke-width="1">
    <line x1="463" y1="433" x2="26" y2="431"/>
    <circle cx="463" cy="433" r="2"/>
    <circle cx="26" cy="431" r="2"/>
  </g>
  <g stroke="chocolate" stroke-width="1">
    <line x1="515" y1="396" x2="463" y2="433"/>
    <circle cx="515" cy="396" r="2"/>
    <circle cx="463" cy="433" r="2"/>
  </g>
  <g stroke="chocolate" stroke-width="1">
    <line x1="293" y1="87" x2="515" y2="396"/>
    <circle cx="293" cy="87" r="2"/>
    <circle cx="515" cy="396" r="2"/>
  </g>
  <g stroke="chocolate" stroke-width="1">
    <line x1="94" y1="232" x2="293" y2="87"/>
    <circle cx="94" cy="232" r="2"/>
    <circle cx="293" cy="87" r="2"/>
  </g>
  <g stroke="chocolate" stroke-width="1">
    <line x1="5" y1="402" x2="94" y2="232"/>
    <circle cx="5" cy="402" r="2"/>
    <circle cx="94" cy="232" r="2"/>
  </g>
  <g stroke="black" stroke-width="1">
    <line x1="10" y1="10" x2="510" y2="10"/>
    <line x1="10" y1="10" x2="10" y2="510"/>
    <line x1="510" y1="510" x2="10" y2="510"/>
    <line x1="510" y1="510" x2="510" y2="10"/>
    <line x1="110" y1="7" x2="110" y2="13"/>
    <line x1="7" y1="110" x2="13" y2="110"/>
    <line x1="110" y1="507" x2="110" y2="513"/>
    <line x1="507" y1="110" x2="513" y2="110"/>
    <line x1="210" y1="7" x2="210" y2="13"/>
    <line x1="7" y1="210" x2="13" y2="210"/>
    <line x1="210" y1="507" x2="210" y2="513"/>
    <line x1="507" y1="210" x2="513" y2="210"/>
    <line x1="310" y1="7" x2="310" y2="13"/>
    <line x1="7" y1="310" x2="13" y2="310"/>
    <line x1="310" y1="507" x2="310" y2="513"/>
    <line x1="507" y1="310" x2="513" y2="310"/>
    <line x1="410" y1="7" x2="410" y2="13"/>
    <line x1="7" y1="410" x2="13" y2="410"/>
    <line x1="410" y1="507" x2="410" y2="513"/>
    <line x1="507" y1="410" x2="513" y2="410"/>
  </g>
  <g stroke="gray" stroke-width="1" stroke-dasharray="5,5">
    <line x1="110" y1="10" x2="110" y2="510"/>
    <line x1="10" y1="110" x2="510" y2="110"/>
    <line x1="210" y1="10" x2="210" y2="510"/>
    <line x1="10" y1="210" x2="510" y2="210"/>
    <line x1="310" y1="10" x2="310" y2="510"/>
    <line x1="10" y1="310" x2="510" y2="310"/>
    <line x1="410" y1="10" x2="410" y2="510"/>
    <line x1="10" y1="410" x2="510" y2="410"/>
  </g>
</svg>
