<?xml version="1.0" standalone="no"?>
<!DOCTYPE svg PUBLIC "-//W3C//DTD SVG 1.1//EN" 
  "http://www.w3.org/Graphics/SVG/1.1/DTD/svg11.dtd">
<svg width="608" height="608" version="1.1" id="toplevel"
    xmlns="http://www.w3.org/2000/svg"
    xmlns:xlink="http://www.w3.org/1999/xlink">
  <polygon points="554,357 304,357 303,353 302,105" fill="bisque"/>
  <polygon points="302,105 304,103 305,343 303,353" fill="bisque"/>
  <polygon points="303,348 304,350 304,357 304,357 303,353" fill="bisque"/>
  <polygon points="303,353 303,348 305,343" fill="bisque"/>
  <polygon points="303,352 305,354 304,356 303,353" fill="bisque"/>
  <polygon points="303,353 303,352 303,352" fill="bisque"/>
  <polygon points="304,357 304,356 303,353 303,352 304,350" fill="bisque"/>
  <polygon points="303,352 303,352 303,353" fill="bisque"/>
  <polygon points="302,105 554,357 554,603 549,603 304,358 303,353"
           fill="bisque"/>
  <polygon points="303,353 302,105 304,103 364,103" fill="bisque"/>
  <polygon points="304,358 303,353 303,309" fill="bisque"/>
  <polygon points="303,309 308,73 364,103 303,353" fill="bisque"/>
  <polygon points="304,358 303,353 303,349" fill="bisque"/>
  <polygon points="303,349 351,8 355,5 380,38 303,353" fill="bisque"/>
  <polygon points="303,309 304,358 303,353" fill="bisque"/>
  <polygon points="303,353 303,309 308,73 380,38" fill="bisque"/>
  <polygon points="549,603 304,358 303,353 302,112" fill="bisque"/>
  <polygon points="302,112 304,108 363,108 303,353" fill="bisque"/>
  <polygon points="303,309 304,358 303,353" fill="bisque"/>
  <polygon points="303,353 303,309 308,78 363,108" fill="bisque"/>
  <polygon points="303,349 304,358 303,353" fill="bisque"/>
  <polygon points="303,353 303,349 351,8 379,45" fill="bisque"/>
  <polygon points="304,358 303,353 303,309" fill="bisque"/>
  <polygon points="303,309 308,78 379,45 303,353" fill="bisque"/>
  <polygon points="549,603 304,358 303,353 303,272" fill="bisque"/>
  <polygon points="303,272 333,230 303,353" fill="bisque"/>
  <polygon points="303,309 304,358 303,353" fill="bisque"/>
  <polygon points="303,353 303,309 305,204 328,200 333,230" fill="bisque"/>
  <polygon points="303,349 304,358 303,353" fill="bisque"/>
  <polygon points="303,353 303,349 323,206 338,210" fill="bisque"/>
  <polygon points="304,358 303,353 303,309" fill="bisque"/>
  <polygon points="303,309 305,204 338,210 303,353" fill="bisque"/>
  <polygon points="302,112 549,603 304,358 303,353" fill="bisque"/>
  <polygon points="303,353 302,112 304,108 349,167" fill="bisque"/>
  <polygon points="304,358 303,353 303,309" fill="bisque"/>
  <polygon points="303,309 305,188 349,167 303,353" fill="bisque"/>
  <polygon points="304,358 303,353 303,349" fill="bisque"/>
  <polygon points="303,349 323,206 339,206 303,353" fill="bisque"/>
  <polygon points="303,309 304,358 303,353" fill="bisque"/>
  <polygon points="303,353 303,309 305,188 339,206" fill="bisque"/>
  <g stroke="chocolate" stroke-width="1">
    <line x1="339" y1="206" x2="303" y2="353"/>
    <circle cx="339" cy="206" r="2"/>
    <circle cx="303" cy="353" r="2"/>
  </g>
  <g stroke="chocolate" stroke-width="1">
    <line x1="305" y1="188" x2="339" y2="206"/>
    <circle cx="305" cy="188" r="2"/>
    <circle cx="339" cy="206" r="2"/>
  </g>
  <g stroke="chocolate" stroke-width="1">
    <line x1="303" y1="309" x2="305" y2="188"/>
    <circle cx="303" cy="309" r="2"/>
    <circle cx="305" cy="188" r="2"/>
  </g>
  <g stroke="chocolate" stroke-width="1">
    <line x1="303" y1="353" x2="303" y2="309"/>
    <circle cx="303" cy="353" r="2"/>
    <circle cx="303" cy="309" r="2"/>
  </g>
  <g stroke="chocolate" stroke-width="1">
    <line x1="303" y1="353" x2="303" y2="309"/>
    <circle cx="303" cy="353" r="2"/>
    <circle cx="303" cy="309" r="2"/>
  </g>
  <g stroke="chocolate" stroke-width="1">
    <line x1="304" y1="358" x2="303" y2="353"/>
    <circle cx="304" cy="358" r="2"/>
    <circle cx="303" cy="353" r="2"/>
  </g>
  <g stroke="chocolate" stroke-width="1">
    <line x1="303" y1="309" x2="304" y2="358"/>
    <circle cx="303" cy="309" r="2"/>
    <circle cx="304" cy="358" r="2"/>
  </g>
  <g stroke="chocolate" stroke-width="1">
    <line x1="303" y1="353" x2="303" y2="349"/>
    <circle cx="303" cy="353" r="2"/>
    <circle cx="303" cy="349" r="2"/>
  </g>
  <g stroke="chocolate" stroke-width="1">
    <line x1="339" y1="206" x2="303" y2="353"/>
    <circle cx="339" cy="206" r="2"/>
    <circle cx="303" cy="353" r="2"/>
  </g>
  <g stroke="chocolate" stroke-width="1">
    <line x1="323" y1="206" x2="339" y2="206"/>
    <circle cx="323" cy="206" r="2"/>
    <circle cx="339" cy="206" r="2"/>
  </g>
  <g stroke="chocolate" stroke-width="1">
    <line x1="303" y1="349" x2="323" y2="206"/>
    <circle cx="303" cy="349" r="2"/>
    <circle cx="323" cy="206" r="2"/>
  </g>
  <g stroke="chocolate" stroke-width="1">
    <line x1="303" y1="349" x2="304" y2="358"/>
    <circle cx="303" cy="349" r="2"/>
    <circle cx="304" cy="358" r="2"/>
  </g>
  <g stroke="chocolate" stroke-width="1">
    <line x1="303" y1="353" x2="303" y2="349"/>
    <circle cx="303" cy="353" r="2"/>
    <circle cx="303" cy="349" r="2"/>
  </g>
  <g stroke="chocolate" stroke-width="1">
    <line x1="304" y1="358" x2="303" y2="353"/>
    <circle cx="304" cy="358" r="2"/>
    <circle cx="303" cy="353" r="2"/>
  </g>
  <g stroke="chocolate" stroke-width="1">
    <line x1="303" y1="353" x2="303" y2="309"/>
    <circle cx="303" cy="353" r="2"/>
    <circle cx="303" cy="309" r="2"/>
  </g>
  <g stroke="chocolate" stroke-width="1">
    <line x1="349" y1="167" x2="303" y2="353"/>
    <circle cx="349" cy="167" r="2"/>
    <circle cx="303" cy="353" r="2"/>
  </g>
  <g stroke="chocolate" stroke-width="1">
    <line x1="305" y1="188" x2="349" y2="167"/>
    <circle cx="305" cy="188" r="2"/>
    <circle cx="349" cy="167" r="2"/>
  </g>
  <g stroke="chocolate" stroke-width="1">
    <line x1="303" y1="309" x2="305" y2="188"/>
    <circle cx="303" cy="309" r="2"/>
    <circle cx="305" cy="188" r="2"/>
  </g>
  <g stroke="chocolate" stroke-width="1">
    <line x1="303" y1="309" x2="304" y2="358"/>
    <circle cx="303" cy="309" r="2"/>
    <circle cx="304" cy="358" r="2"/>
  </g>
  <g stroke="chocolate" stroke-width="1">
    <line x1="303" y1="353" x2="303" y2="309"/>
    <circle cx="303" cy="353" r="2"/>
    <circle cx="303" cy="309" r="2"/>
  </g>
  <g stroke="chocolate" stroke-width="1">
    <line x1="304" y1="358" x2="303" y2="353"/>
    <circle cx="304" cy="358" r="2"/>
    <circle cx="303" cy="353" r="2"/>
  </g>
  <g stroke="chocolate" stroke-width="1">
    <line x1="349" y1="167" x2="303" y2="353"/>
    <circle cx="349" cy="167" r="2"/>
    <circle cx="303" cy="353" r="2"/>
  </g>
  <g stroke="chocolate" stroke-width="1">
    <line x1="304" y1="108" x2="349" y2="167"/>
    <circle cx="304" cy="108" r="2"/>
    <circle cx="349" cy="167" r="2"/>
  </g>
  <g stroke="chocolate" stroke-width="1">
    <line x1="302" y1="112" x2="304" y2="108"/>
    <circle cx="302" cy="112" r="2"/>
    <circle cx="304" cy="108" r="2"/>
  </g>
  <g stroke="chocolate" stroke-width="1">
    <line x1="303" y1="353" x2="302" y2="112"/>
    <circle cx="303" cy="353" r="2"/>
    <circle cx="302" cy="112" r="2"/>
  </g>
  <g stroke="chocolate" stroke-width="1">
    <line x1="303" y1="353" x2="302" y2="112"/>
    <circle cx="303" cy="353" r="2"/>
    <circle cx="302" cy="112" r="2"/>
  </g>
  <g stroke="chocolate" stroke-width="1">
    <line x1="304" y1="358" x2="303" y2="353"/>
    <circle cx="304" cy="358" r="2"/>
    <circle cx="303" cy="353" r="2"/>
  </g>
  <g stroke="chocolate" stroke-width="1">
    <line x1="549" y1="603" x2="304" y2="358"/>
    <circle cx="549" cy="603" r="2"/>
    <circle cx="304" cy="358" r="2"/>
  </g>
  <g stroke="chocolate" stroke-width="1">
    <line x1="302" y1="112" x2="549" y2="603"/>
    <circle cx="302" cy="112" r="2"/>
    <circle cx="549" cy="603" r="2"/>
  </g>
  <g stroke="chocolate" stroke-width="1">
    <line x1="303" y1="353" x2="303" y2="309"/>
    <circle cx="303" cy="353" r="2"/>
    <circle cx="303" cy="309" r="2"/>
  </g>
  <g stroke="chocolate" stroke-width="1">
    <line x1="338" y1="210" x2="303" y2="353"/>
    <circle cx="338" cy="210" r="2"/>
    <circle cx="303" cy="353" r="2"/>
  </g>
  <g stroke="chocolate" stroke-width="1">
    <line x1="305" y1="204" x2="338" y2="210"/>
    <circle cx="305" cy="204" r="2"/>
    <circle cx="338" cy="210" r="2"/>
  </g>
  <g stroke="chocolate" stroke-width="1">
    <line x1="303" y1="309" x2="305" y2="204"/>
    <circle cx="303" cy="309" r="2"/>
    <circle cx="305" cy="204" r="2"/>
  </g>
  <g stroke="chocolate" stroke-width="1">
    <line x1="303" y1="309" x2="304" y2="358"/>
    <circle cx="303" cy="309" r="2"/>
    <circle cx="304" cy="358" r="2"/>
  </g>
  <g stroke="chocolate" stroke-width="1">
    <line x1="303" y1="353" x2="303" y2="309"/>
    <circle cx="303" cy="353" r="2"/>
    <circle cx="303" cy="309" r="2"/>
  </g>
  <g stroke="chocolate" stroke-width="1">
    <line x1="304" y1="358" x2="303" y2="353"/>
    <circle cx="304" cy="358" r="2"/>
    <circle cx="303" cy="353" r="2"/>
  </g>
  <g stroke="chocolate" stroke-width="1">
    <line x1="338" y1="210" x2="303" y2="353"/>
    <circle cx="338" cy="210" r="2"/>
    <circle cx="303" cy="353" r="2"/>
  </g>
  <g stroke="chocolate" stroke-width="1">
    <line x1="323" y1="206" x2="338" y2="210"/>
    <circle cx="323" cy="206" r="2"/>
    <circle cx="338" cy="210" r="2"/>
  </g>
  <g stroke="chocolate" stroke-width="1">
    <line x1="303" y1="349" x2="323" y2="206"/>
    <circle cx="303" cy="349" r="2"/>
    <circle cx="323" cy="206" r="2"/>
  </g>
  <g stroke="chocolate" stroke-width="1">
    <line x1="303" y1="353" x2="303" y2="349"/>
    <circle cx="303" cy="353" r="2"/>
    <circle cx="303" cy="349" r="2"/>
  </g>
  <g stroke="chocolate" stroke-width="1">
    <line x1="303" y1="353" x2="303" y2="349"/>
    <circle cx="303" cy="353" r="2"/>
    <circle cx="303" cy="349" r="2"/>
  </g>
  <g stroke="chocolate" stroke-width="1">
    <line x1="304" y1="358" x2="303" y2="353"/>
    <circle cx="304" cy="358" r="2"/>
    <circle cx="303" cy="353" r="2"/>
  </g>
  <g stroke="chocolate" stroke-width="1">
    <line x1="303" y1="349" x2="304" y2="358"/>
    <circle cx="303" cy="349" r="2"/>
    <circle cx="304" cy="358" r="2"/>
  </g>
  <g stroke="chocolate" stroke-width="1">
    <line x1="333" y1="230" x2="303" y2="353"/>
    <circle cx="333" cy="230" r="2"/>
    <circle cx="303" cy="353" r="2"/>
  </g>
  <g stroke="chocolate" stroke-width="1">
    <line x1="328" y1="200" x2="333" y2="230"/>
    <circle cx="328" cy="200" r="2"/>
    <circle cx="333" cy="230" r="2"/>
  </g>
  <g stroke="chocolate" stroke-width="1">
    <line x1="305" y1="204" x2="328" y2="200"/>
    <circle cx="305" cy="204" r="2"/>
    <circle cx="328" cy="200" r="2"/>
  </g>
  <g stroke="chocolate" stroke-width="1">
    <line x1="303" y1="309" x2="305" y2="204"/>
    <circle cx="303" cy="309" r="2"/>
    <circle cx="305" cy="204" r="2"/>
  </g>
  <g stroke="chocolate" stroke-width="1">
    <line x1="303" y1="353" x2="303" y2="309"/>
    <circle cx="303" cy="353" r="2"/>
    <circle cx="303" cy="309" r="2"/>
  </g>
  <g stroke="chocolate" stroke-width="1">
    <line x1="303" y1="353" x2="303" y2="309"/>
    <circle cx="303" cy="353" r="2"/>
    <circle cx="303" cy="309" r="2"/>
  </g>
  <g stroke="chocolate" stroke-width="1">
    <line x1="304" y1="358" x2="303" y2="353"/>
    <circle cx="304" cy="358" r="2"/>
    <circle cx="303" cy="353" r="2"/>
  </g>
  <g stroke="chocolate" stroke-width="1">
    <line x1="303" y1="309" x2="304" y2="358"/>
    <circle cx="303" cy="309" r="2"/>
    <circle cx="304" cy="358" r="2"/>
  </g>
  <g stroke="chocolate" stroke-width="1">
    <line x1="303" y1="353" x2="303" y2="272"/>
    <circle cx="303" cy="353" r="2"/>
    <circle cx="303" cy="272" r="2"/>
  </g>
  <g stroke="chocolate" stroke-width="1">
    <line x1="333" y1="230" x2="303" y2="353"/>
    <circle cx="333" cy="230" r="2"/>
    <circle cx="303" cy="353" r="2"/>
  </g>
  <g stroke="chocolate" stroke-width="1">
    <line x1="303" y1="272" x2="333" y2="230"/>
    <circle cx="303" cy="272" r="2"/>
    <circle cx="333" cy="230" r="2"/>
  </g>
  <g stroke="chocolate" stroke-width="1">
    <line x1="303" y1="272" x2="549" y2="603"/>
    <circle cx="303" cy="272" r="2"/>
    <circle cx="549" cy="603" r="2"/>
  </g>
  <g stroke="chocolate" stroke-width="1">
    <line x1="303" y1="353" x2="303" y2="272"/>
    <circle cx="303" cy="353" r="2"/>
    <circle cx="303" cy="272" r="2"/>
  </g>
  <g stroke="chocolate" stroke-width="1">
    <line x1="304" y1="358" x2="303" y2="353"/>
    <circle cx="304" cy="358" r="2"/>
    <circle cx="303" cy="353" r="2"/>
  </g>
  <g stroke="chocolate" stroke-width="1">
    <line x1="549" y1="603" x2="304" y2="358"/>
    <circle cx="549" cy="603" r="2"/>
    <circle cx="304" cy="358" r="2"/>
  </g>
  <g stroke="chocolate" stroke-width="1">
    <line x1="303" y1="353" x2="303" y2="309"/>
    <circle cx="303" cy="353" r="2"/>
    <circle cx="303" cy="309" r="2"/>
  </g>
  <g stroke="chocolate" stroke-width="1">
    <line x1="379" y1="45" x2="303" y2="353"/>
    <circle cx="379" cy="45" r="2"/>
    <circle cx="303" cy="353" r="2"/>
  </g>
  <g stroke="chocolate" stroke-width="1">
    <line x1="308" y1="78" x2="379" y2="45"/>
    <circle cx="308" cy="78" r="2"/>
    <circle cx="379" cy="45" r="2"/>
  </g>
  <g stroke="chocolate" stroke-width="1">
    <line x1="303" y1="309" x2="308" y2="78"/>
    <circle cx="303" cy="309" r="2"/>
    <circle cx="308" cy="78" r="2"/>
  </g>
  <g stroke="chocolate" stroke-width="1">
    <line x1="303" y1="309" x2="304" y2="358"/>
    <circle cx="303" cy="309" r="2"/>
    <circle cx="304" cy="358" r="2"/>
  </g>
  <g stroke="chocolate" stroke-width="1">
    <line x1="303" y1="353" x2="303" y2="309"/>
    <circle cx="303" cy="353" r="2"/>
    <circle cx="303" cy="309" r="2"/>
  </g>
  <g stroke="chocolate" stroke-width="1">
    <line x1="304" y1="358" x2="303" y2="353"/>
    <circle cx="304" cy="358" r="2"/>
    <circle cx="303" cy="353" r="2"/>
  </g>
  <g stroke="chocolate" stroke-width="1">
    <line x1="379" y1="45" x2="303" y2="353"/>
    <circle cx="379" cy="45" r="2"/>
    <circle cx="303" cy="353" r="2"/>
  </g>
  <g stroke="chocolate" stroke-width="1">
    <line x1="351" y1="8" x2="379" y2="45"/>
    <circle cx="351" cy="8" r="2"/>
    <circle cx="379" cy="45" r="2"/>
  </g>
  <g stroke="chocolate" stroke-width="1">
    <line x1="303" y1="349" x2="351" y2="8"/>
    <circle cx="303" cy="349" r="2"/>
    <circle cx="351" cy="8" r="2"/>
  </g>
  <g stroke="chocolate" stroke-width="1">
    <line x1="303" y1="353" x2="303" y2="349"/>
    <circle cx="303" cy="353" r="2"/>
    <circle cx="303" cy="349" r="2"/>
  </g>
  <g stroke="chocolate" stroke-width="1">
    <line x1="303" y1="353" x2="303" y2="349"/>
    <circle cx="303" cy="353" r="2"/>
    <circle cx="303" cy="349" r="2"/>
  </g>
  <g stroke="chocolate" stroke-width="1">
    <line x1="304" y1="358" x2="303" y2="353"/>
    <circle cx="304" cy="358" r="2"/>
    <circle cx="303" cy="353" r="2"/>
  </g>
  <g stroke="chocolate" stroke-width="1">
    <line x1="303" y1="349" x2="304" y2="358"/>
    <circle cx="303" cy="349" r="2"/>
    <circle cx="304" cy="358" r="2"/>
  </g>
  <g stroke="chocolate" stroke-width="1">
    <line x1="363" y1="108" x2="303" y2="353"/>
    <circle cx="363" cy="108" r="2"/>
    <circle cx="303" cy="353" r="2"/>
  </g>
  <g stroke="chocolate" stroke-width="1">
    <line x1="308" y1="78" x2="363" y2="108"/>
    <circle cx="308" cy="78" r="2"/>
    <circle cx="363" cy="108" r="2"/>
  </g>
  <g stroke="chocolate" stroke-width="1">
    <line x1="303" y1="309" x2="308" y2="78"/>
    <circle cx="303" cy="309" r="2"/>
    <circle cx="308" cy="78" r="2"/>
  </g>
  <g stroke="chocolate" stroke-width="1">
    <line x1="303" y1="353" x2="303" y2="309"/>
    <circle cx="303" cy="353" r="2"/>
    <circle cx="303" cy="309" r="2"/>
  </g>
  <g stroke="chocolate" stroke-width="1">
    <line x1="303" y1="353" x2="303" y2="309"/>
    <circle cx="303" cy="353" r="2"/>
    <circle cx="303" cy="309" r="2"/>
  </g>
  <g stroke="chocolate" stroke-width="1">
    <line x1="304" y1="358" x2="303" y2="353"/>
    <circle cx="304" cy="358" r="2"/>
    <circle cx="303" cy="353" r="2"/>
  </g>
  <g stroke="chocolate" stroke-width="1">
    <line x1="303" y1="309" x2="304" y2="358"/>
    <circle cx="303" cy="309" r="2"/>
    <circle cx="304" cy="358" r="2"/>
  </g>
  <g stroke="chocolate" stroke-width="1">
    <line x1="303" y1="353" x2="302" y2="112"/>
    <circle cx="303" cy="353" r="2"/>
    <circle cx="302" cy="112" r="2"/>
  </g>
  <g stroke="chocolate" stroke-width="1">
    <line x1="363" y1="108" x2="303" y2="353"/>
    <circle cx="363" cy="108" r="2"/>
    <circle cx="303" cy="353" r="2"/>
  </g>
  <g stroke="chocolate" stroke-width="1">
    <line x1="304" y1="108" x2="363" y2="108"/>
    <circle cx="304" cy="108" r="2"/>
    <circle cx="363" cy="108" r="2"/>
  </g>
  <g stroke="chocolate" stroke-width="1">
    <line x1="302" y1="112" x2="304" y2="108"/>
    <circle cx="302" cy="112" r="2"/>
    <circle cx="304" cy="108" r="2"/>
  </g>
  <g stroke="chocolate" stroke-width="1">
    <line x1="302" y1="112" x2="549" y2="603"/>
    <circle cx="302" cy="112" r="2"/>
    <circle cx="549" cy="603" r="2"/>
  </g>
  <g stroke="chocolate" stroke-width="1">
    <line x1="303" y1="353" x2="302" y2="112"/>
    <circle cx="303" cy="353" r="2"/>
    <circle cx="302" cy="112" r="2"/>
  </g>
  <g stroke="chocolate" stroke-width="1">
    <line x1="304" y1="358" x2="303" y2="353"/>
    <circle cx="304" cy="358" r="2"/>
    <circle cx="303" cy="353" r="2"/>
  </g>
  <g stroke="chocolate" stroke-width="1">
    <line x1="549" y1="603" x2="304" y2="358"/>
    <circle cx="549" cy="603" r="2"/>
    <circle cx="304" cy="358" r="2"/>
  </g>
  <g stroke="chocolate" stroke-width="1">
    <line x1="380" y1="38" x2="303" y2="353"/>
    <circle cx="380" cy="38" r="2"/>
    <circle cx="303" cy="353" r="2"/>
  </g>
  <g stroke="chocolate" stroke-width="1">
    <line x1="308" y1="73" x2="380" y2="38"/>
    <circle cx="308" cy="73" r="2"/>
    <circle cx="380" cy="38" r="2"/>
  </g>
  <g stroke="chocolate" stroke-width="1">
    <line x1="303" y1="309" x2="308" y2="73"/>
    <circle cx="303" cy="309" r="2"/>
    <circle cx="308" cy="73" r="2"/>
  </g>
  <g stroke="chocolate" stroke-width="1">
    <line x1="303" y1="353" x2="303" y2="309"/>
    <circle cx="303" cy="353" r="2"/>
    <circle cx="303" cy="309" r="2"/>
  </g>
  <g stroke="chocolate" stroke-width="1">
    <line x1="303" y1="353" x2="303" y2="309"/>
    <circle cx="303" cy="353" r="2"/>
    <circle cx="303" cy="309" r="2"/>
  </g>
  <g stroke="chocolate" stroke-width="1">
    <line x1="304" y1="358" x2="303" y2="353"/>
    <circle cx="304" cy="358" r="2"/>
    <circle cx="303" cy="353" r="2"/>
  </g>
  <g stroke="chocolate" stroke-width="1">
    <line x1="303" y1="309" x2="304" y2="358"/>
    <circle cx="303" cy="309" r="2"/>
    <circle cx="304" cy="358" r="2"/>
  </g>
  <g stroke="chocolate" stroke-width="1">
    <line x1="303" y1="353" x2="303" y2="349"/>
    <circle cx="303" cy="353" r="2"/>
    <circle cx="303" cy="349" r="2"/>
  </g>
  <g stroke="chocolate" stroke-width="1">
    <line x1="380" y1="38" x2="303" y2="353"/>
    <circle cx="380" cy="38" r="2"/>
    <circle cx="303" cy="353" r="2"/>
  </g>
  <g stroke="chocolate" stroke-width="1">
    <line x1="355" y1="5" x2="380" y2="38"/>
    <circle cx="355" cy="5" r="2"/>
    <circle cx="380" cy="38" r="2"/>
  </g>
  <g stroke="chocolate" stroke-width="1">
    <line x1="351" y1="8" x2="355" y2="5"/>
    <circle cx="351" cy="8" r="2"/>
    <circle cx="355" cy="5" r="2"/>
  </g>
  <g stroke="chocolate" stroke-width="1">
    <line x1="303" y1="349" x2="351" y2="8"/>
    <circle cx="303" cy="349" r="2"/>
    <circle cx="351" cy="8" r="2"/>
  </g>
  <g stroke="chocolate" stroke-width="1">
    <line x1="303" y1="349" x2="304" y2="358"/>
    <circle cx="303" cy="349" r="2"/>
    <circle cx="304" cy="358" r="2"/>
  </g>
  <g stroke="chocolate" stroke-width="1">
    <line x1="303" y1="353" x2="303" y2="349"/>
    <circle cx="303" cy="353" r="2"/>
    <circle cx="303" cy="349" r="2"/>
  </g>
  <g stroke="chocolate" stroke-width="1">
    <line x1="304" y1="358" x2="303" y2="353"/>
    <circle cx="304" cy="358" r="2"/>
    <circle cx="303" cy="353" r="2"/>
  </g>
  <g stroke="chocolate" stroke-width="1">
    <line x1="303" y1="353" x2="303" y2="309"/>
    <circle cx="303" cy="353" r="2"/>
    <circle cx="303" cy="309" r="2"/>
  </g>
  <g stroke="chocolate" stroke-width="1">
    <line x1="364" y1="103" x2="303" y2="353"/>
    <circle cx="364" cy="103" r="2"/>
    <circle cx="303" cy="353" r="2"/>
  </g>
  <g stroke="chocolate" stroke-width="1">
    <line x1="308" y1="73" x2="364" y2="103"/>
    <circle cx="308" cy="73" r="2"/>
    <circle cx="364" cy="103" r="2"/>
  </g>
  <g stroke="chocolate" stroke-width="1">
    <line x1="303" y1="309" x2="308" y2="73"/>
    <circle cx="303" cy="309" r="2"/>
    <circle cx="308" cy="73" r="2"/>
  </g>
  <g stroke="chocolate" stroke-width="1">
    <line x1="303" y1="309" x2="304" y2="358"/>
    <circle cx="303" cy="309" r="2"/>
    <circle cx="304" cy="358" r="2"/>
  </g>
  <g stroke="chocolate" stroke-width="1">
    <line x1="303" y1="353" x2="303" y2="309"/>
    <circle cx="303" cy="353" r="2"/>
    <circle cx="303" cy="309" r="2"/>
  </g>
  <g stroke="chocolate" stroke-width="1">
    <line x1="304" y1="358" x2="303" y2="353"/>
    <circle cx="304" cy="358" r="2"/>
    <circle cx="303" cy="353" r="2"/>
  </g>
  <g stroke="chocolate" stroke-width="1">
    <line x1="364" y1="103" x2="303" y2="353"/>
    <circle cx="364" cy="103" r="2"/>
    <circle cx="303" cy="353" r="2"/>
  </g>
  <g stroke="chocolate" stroke-width="1">
    <line x1="304" y1="103" x2="364" y2="103"/>
    <circle cx="304" cy="103" r="2"/>
    <circle cx="364" cy="103" r="2"/>
  </g>
  <g stroke="chocolate" stroke-width="1">
    <line x1="302" y1="105" x2="304" y2="103"/>
    <circle cx="302" cy="105" r="2"/>
    <circle cx="304" cy="103" r="2"/>
  </g>
  <g stroke="chocolate" stroke-width="1">
    <line x1="303" y1="353" x2="302" y2="105"/>
    <circle cx="303" cy="353" r="2"/>
    <circle cx="302" cy="105" r="2"/>
  </g>
  <g stroke="chocolate" stroke-width="1">
    <line x1="303" y1="353" x2="302" y2="105"/>
    <circle cx="303" cy="353" r="2"/>
    <circle cx="302" cy="105" r="2"/>
  </g>
  <g stroke="chocolate" stroke-width="1">
    <line x1="304" y1="358" x2="303" y2="353"/>
    <circle cx="304" cy="358" r="2"/>
    <circle cx="303" cy="353" r="2"/>
  </g>
  <g stroke="chocolate" stroke-width="1">
    <line x1="549" y1="603" x2="304" y2="358"/>
    <circle cx="549" cy="603" r="2"/>
    <circle cx="304" cy="358" r="2"/>
  </g>
  <g stroke="chocolate" stroke-width="1">
    <line x1="554" y1="603" x2="549" y2="603"/>
    <circle cx="554" cy="603" r="2"/>
    <circle cx="549" cy="603" r="2"/>
  </g>
  <g stroke="chocolate" stroke-width="1">
    <line x1="554" y1="357" x2="554" y2="603"/>
    <circle cx="554" cy="357" r="2"/>
    <circle cx="554" cy="603" r="2"/>
  </g>
  <g stroke="chocolate" stroke-width="1">
    <line x1="302" y1="105" x2="554" y2="357"/>
    <circle cx="302" cy="105" r="2"/>
    <circle cx="554" cy="357" r="2"/>
  </g>
  <g stroke="chocolate" stroke-width="1">
    <line x1="303" y1="353" x2="303" y2="352"/>
    <circle cx="303" cy="353" r="2"/>
    <circle cx="303" cy="352" r="2"/>
  </g>
  <g stroke="chocolate" stroke-width="1">
    <line x1="303" y1="352" x2="303" y2="353"/>
    <circle cx="303" cy="352" r="2"/>
    <circle cx="303" cy="353" r="2"/>
  </g>
  <g stroke="chocolate" stroke-width="1">
    <line x1="303" y1="352" x2="303" y2="352"/>
    <circle cx="303" cy="352" r="2"/>
    <circle cx="303" cy="352" r="2"/>
  </g>
  <g stroke="chocolate" stroke-width="1">
    <line x1="304" y1="350" x2="304" y2="357"/>
    <circle cx="304" cy="350" r="2"/>
    <circle cx="304" cy="357" r="2"/>
  </g>
  <g stroke="chocolate" stroke-width="1">
    <line x1="303" y1="352" x2="304" y2="350"/>
    <circle cx="303" cy="352" r="2"/>
    <circle cx="304" cy="350" r="2"/>
  </g>
  <g stroke="chocolate" stroke-width="1">
    <line x1="303" y1="353" x2="303" y2="352"/>
    <circle cx="303" cy="353" r="2"/>
    <circle cx="303" cy="352" r="2"/>
  </g>
  <g stroke="chocolate" stroke-width="1">
    <line x1="304" y1="356" x2="303" y2="353"/>
    <circle cx="304" cy="356" r="2"/>
    <circle cx="303" cy="353" r="2"/>
  </g>
  <g stroke="chocolate" stroke-width="1">
    <line x1="304" y1="357" x2="304" y2="356"/>
    <circle cx="304" cy="357" r="2"/>
    <circle cx="304" cy="356" r="2"/>
  </g>
  <g stroke="chocolate" stroke-width="1">
    <line x1="303" y1="352" x2="303" y2="353"/>
    <circle cx="303" cy="352" r="2"/>
    <circle cx="303" cy="353" r="2"/>
  </g>
  <g stroke="chocolate" stroke-width="1">
    <line x1="303" y1="352" x2="303" y2="352"/>
    <circle cx="303" cy="352" r="2"/>
    <circle cx="303" cy="352" r="2"/>
  </g>
  <g stroke="chocolate" stroke-width="1">
    <line x1="303" y1="353" x2="303" y2="352"/>
    <circle cx="303" cy="353" r="2"/>
    <circle cx="303" cy="352" r="2"/>
  </g>
  <g stroke="chocolate" stroke-width="1">
    <line x1="303" y1="353" x2="303" y2="352"/>
    <circle cx="303" cy="353" r="2"/>
    <circle cx="303" cy="352" r="2"/>
  </g>
  <g stroke="chocolate" stroke-width="1">
    <line x1="304" y1="356" x2="303" y2="353"/>
    <circle cx="304" cy="356" r="2"/>
    <circle cx="303" cy="353" r="2"/>
  </g>
  <g stroke="chocolate" stroke-width="1">
    <line x1="305" y1="354" x2="304" y2="356"/>
    <circle cx="305" cy="354" r="2"/>
    <circle cx="304" cy="356" r="2"/>
  </g>
  <g stroke="chocolate" stroke-width="1">
    <line x1="303" y1="352" x2="305" y2="354"/>
    <circle cx="303" cy="352" r="2"/>
    <circle cx="305" cy="354" r="2"/>
  </g>
  <g stroke="chocolate" stroke-width="1">
    <line x1="305" y1="343" x2="303" y2="353"/>
    <circle cx="305" cy="343" r="2"/>
    <circle cx="303" cy="353" r="2"/>
  </g>
  <g stroke="chocolate" stroke-width="1">
    <line x1="303" y1="348" x2="305" y2="343"/>
    <circle cx="303" cy="348" r="2"/>
    <circle cx="305" cy="343" r="2"/>
  </g>
  <g stroke="chocolate" stroke-width="1">
    <line x1="303" y1="353" x2="303" y2="348"/>
    <circle cx="303" cy="353" r="2"/>
    <circle cx="303" cy="348" r="2"/>
  </g>
  <g stroke="chocolate" stroke-width="1">
    <line x1="303" y1="353" x2="303" y2="348"/>
    <circle cx="303" cy="353" r="2"/>
    <circle cx="303" cy="348" r="2"/>
  </g>
  <g stroke="chocolate" stroke-width="1">
    <line x1="304" y1="357" x2="303" y2="353"/>
    <circle cx="304" cy="357" r="2"/>
    <circle cx="303" cy="353" r="2"/>
  </g>
  <g stroke="chocolate" stroke-width="1">
    <line x1="304" y1="357" x2="304" y2="357"/>
    <circle cx="304" cy="357" r="2"/>
    <circle cx="304" cy="357" r="2"/>
  </g>
  <g stroke="chocolate" stroke-width="1">
    <line x1="304" y1="350" x2="304" y2="357"/>
    <circle cx="304" cy="350" r="2"/>
    <circle cx="304" cy="357" r="2"/>
  </g>
  <g stroke="chocolate" stroke-width="1">
    <line x1="303" y1="348" x2="304" y2="350"/>
    <circle cx="303" cy="348" r="2"/>
    <circle cx="304" cy="350" r="2"/>
  </g>
  <g stroke="chocolate" stroke-width="1">
    <line x1="303" y1="353" x2="302" y2="105"/>
    <circle cx="303" cy="353" r="2"/>
    <circle cx="302" cy="105" r="2"/>
  </g>
  <g stroke="chocolate" stroke-width="1">
    <line x1="305" y1="343" x2="303" y2="353"/>
    <circle cx="305" cy="343" r="2"/>
    <circle cx="303" cy="353" r="2"/>
  </g>
  <g stroke="chocolate" stroke-width="1">
    <line x1="304" y1="103" x2="305" y2="343"/>
    <circle cx="304" cy="103" r="2"/>
    <circle cx="305" cy="343" r="2"/>
  </g>
  <g stroke="chocolate" stroke-width="1">
    <line x1="302" y1="105" x2="304" y2="103"/>
    <circle cx="302" cy="105" r="2"/>
    <circle cx="304" cy="103" r="2"/>
  </g>
  <g stroke="chocolate" stroke-width="1">
    <line x1="302" y1="105" x2="554" y2="357"/>
    <circle cx="302" cy="105" r="2"/>
    <circle cx="554" cy="357" r="2"/>
  </g>
  <g stroke="chocolate" stroke-width="1">
    <line x1="303" y1="353" x2="302" y2="105"/>
    <circle cx="303" cy="353" r="2"/>
    <circle cx="302" cy="105" r="2"/>
  </g>
  <g stroke="chocolate" stroke-width="1">
    <line x1="304" y1="357" x2="303" y2="353"/>
    <circle cx="304" cy="357" r="2"/>
    <circle cx="303" cy="353" r="2"/>
  </g>
  <g stroke="chocolate" stroke-width="1">
    <line x1="554" y1="357" x2="304" y2="357"/>
    <circle cx="554" cy="357" r="2"/>
    <circle cx="304" cy="357" r="2"/>
  </g>
  <g stroke="black" stroke-width="1">
    <line x1="54" y1="54" x2="554" y2="54"/>
    <line x1="54" y1="54" x2="54" y2="554"/>
    <line x1="554" y1="554" x2="54" y2="554"/>
    <line x1="554" y1="554" x2="554" y2="54"/>
    <line x1="154" y1="51" x2="154" y2="57"/>
    <line x1="51" y1="154" x2="57" y2="154"/>
    <line x1="154" y1="551" x2="154" y2="557"/>
    <line x1="551" y1="154" x2="557" y2="154"/>
    <line x1="254" y1="51" x2="254" y2="57"/>
    <line x1="51" y1="254" x2="57" y2="254"/>
    <line x1="254" y1="551" x2="254" y2="557"/>
    <line x1="551" y1="254" x2="557" y2="254"/>
    <line x1="354" y1="51" x2="354" y2="57"/>
    <line x1="51" y1="354" x2="57" y2="354"/>
    <line x1="354" y1="551" x2="354" y2="557"/>
    <line x1="551" y1="354" x2="557" y2="354"/>
    <line x1="454" y1="51" x2="454" y2="57"/>
    <line x1="51" y1="454" x2="57" y2="454"/>
    <line x1="454" y1="551" x2="454" y2="557"/>
    <line x1="551" y1="454" x2="557" y2="454"/>
  </g>
  <g stroke="gray" stroke-width="1" stroke-dasharray="5,5">
    <line x1="154" y1="54" x2="154" y2="554"/>
    <line x1="54" y1="154" x2="554" y2="154"/>
    <line x1="254" y1="54" x2="254" y2="554"/>
    <line x1="54" y1="254" x2="554" y2="254"/>
    <line x1="354" y1="54" x2="354" y2="554"/>
    <line x1="54" y1="354" x2="554" y2="354"/>
    <line x1="454" y1="54" x2="454" y2="554"/>
    <line x1="54" y1="454" x2="554" y2="454"/>
  </g>
</svg>
