<?xml version="1.0" standalone="no"?>
<!DOCTYPE svg PUBLIC "-//W3C//DTD SVG 1.1//EN" 
  "http://www.w3.org/Graphics/SVG/1.1/DTD/svg11.dtd">
<svg width="510" height="510" version="1.1" id="toplevel"
    xmlns="http://www.w3.org/2000/svg"
    xmlns:xlink="http://www.w3.org/1999/xlink">
  <polygon points="11,257 11,256 134,255 135,319" fill="bisque"/>
  <polygon points="135,319 11,257 144,159 255,139 268,220" fill="bisque"/>
  <polygon points="11,256 11,256 11,257 11,257" fill="bisque"/>
  <polygon points="11,257 144,159 143,159 11,257" fill="bisque"/>
  <polygon points="144,159 255,139 261,171 223,183 143,159" fill="bisque"/>
  <polygon points="143,159 143,159 144,159" fill="bisque"/>
  <polygon points="223,183 251,149 261,171" fill="bisque"/>
  <polygon points="11,256 265,257 265,384 11,257" fill="bisque"/>
  <polygon points="11,257 144,159 331,126 499,209 265,384" fill="bisque"/>
  <polygon points="11,257 11,256 11,256 11,257" fill="bisque"/>
  <polygon points="11,257 11,257 144,159 143,159" fill="bisque"/>
  <polygon points="144,159 331,126 299,159 223,183 143,159" fill="bisque"/>
  <polygon points="143,159 143,159 144,159" fill="bisque"/>
  <polygon points="223,183 251,149 299,159" fill="bisque"/>
  <polygon points="12,257 12,255 134,255 135,319" fill="bisque"/>
  <polygon points="268,220 135,319 12,257 145,159" fill="bisque"/>
  <polygon points="11,242 75,289 11,257" fill="bisque"/>
  <polygon points="11,257 144,159 255,139 268,220 145,311 75,289" fill="bisque"/>
  <polygon points="11,257 11,242 11,242 11,257" fill="bisque"/>
  <polygon points="11,257 11,257 144,159 143,159" fill="bisque"/>
  <polygon points="144,159 255,139 261,171 223,183 143,159" fill="bisque"/>
  <polygon points="143,159 143,159 144,159" fill="bisque"/>
  <polygon points="223,183 251,149 261,171" fill="bisque"/>
  <polygon points="11,257 11,242 31,227 79,291" fill="bisque"/>
  <polygon points="79,291 11,257 144,159 331,126 499,209 499,290" fill="bisque"/>
  <polygon points="11,242 11,242 11,257 11,257" fill="bisque"/>
  <polygon points="11,257 144,159 143,159 11,257" fill="bisque"/>
  <polygon points="144,159 331,126 299,159 223,183 143,159" fill="bisque"/>
  <polygon points="143,159 143,159 144,159" fill="bisque"/>
  <polygon points="223,183 251,149 299,159" fill="bisque"/>
  <polygon points="145,311 145,159 268,220" fill="bisque"/>
  <g stroke="chocolate" stroke-width="1">
    <line x1="268" y1="220" x2="145" y2="311"/>
    <circle cx="268" cy="220" r="2"/>
    <circle cx="145" cy="311" r="2"/>
  </g>
  <g stroke="chocolate" stroke-width="1">
    <line x1="145" y1="159" x2="268" y2="220"/>
    <circle cx="145" cy="159" r="2"/>
    <circle cx="268" cy="220" r="2"/>
  </g>
  <g stroke="chocolate" stroke-width="1">
    <line x1="145" y1="311" x2="145" y2="159"/>
    <circle cx="145" cy="311" r="2"/>
    <circle cx="145" cy="159" r="2"/>
  </g>
  <g stroke="chocolate" stroke-width="1">
    <line x1="299" y1="159" x2="223" y2="183"/>
    <circle cx="299" cy="159" r="2"/>
    <circle cx="223" cy="183" r="2"/>
  </g>
  <g stroke="chocolate" stroke-width="1">
    <line x1="251" y1="149" x2="299" y2="159"/>
    <circle cx="251" cy="149" r="2"/>
    <circle cx="299" cy="159" r="2"/>
  </g>
  <g stroke="chocolate" stroke-width="1">
    <line x1="223" y1="183" x2="251" y2="149"/>
    <circle cx="223" cy="183" r="2"/>
    <circle cx="251" cy="149" r="2"/>
  </g>
  <g stroke="chocolate" stroke-width="1">
    <line x1="144" y1="159" x2="143" y2="159"/>
    <circle cx="144" cy="159" r="2"/>
    <circle cx="143" cy="159" r="2"/>
  </g>
  <g stroke="chocolate" stroke-width="1">
    <line x1="143" y1="159" x2="144" y2="159"/>
    <circle cx="143" cy="159" r="2"/>
    <circle cx="144" cy="159" r="2"/>
  </g>
  <g stroke="chocolate" stroke-width="1">
    <line x1="143" y1="159" x2="143" y2="159"/>
    <circle cx="143" cy="159" r="2"/>
    <circle cx="143" cy="159" r="2"/>
  </g>
  <g stroke="chocolate" stroke-width="1">
    <line x1="143" y1="159" x2="144" y2="159"/>
    <circle cx="143" cy="159" r="2"/>
    <circle cx="144" cy="159" r="2"/>
  </g>
  <g stroke="chocolate" stroke-width="1">
    <line x1="223" y1="183" x2="143" y2="159"/>
    <circle cx="223" cy="183" r="2"/>
    <circle cx="143" cy="159" r="2"/>
  </g>
  <g stroke="chocolate" stroke-width="1">
    <line x1="299" y1="159" x2="223" y2="183"/>
    <circle cx="299" cy="159" r="2"/>
    <circle cx="223" cy="183" r="2"/>
  </g>
  <g stroke="chocolate" stroke-width="1">
    <line x1="331" y1="126" x2="299" y2="159"/>
    <circle cx="331" cy="126" r="2"/>
    <circle cx="299" cy="159" r="2"/>
  </g>
  <g stroke="chocolate" stroke-width="1">
    <line x1="144" y1="159" x2="331" y2="126"/>
    <circle cx="144" cy="159" r="2"/>
    <circle cx="331" cy="126" r="2"/>
  </g>
  <g stroke="chocolate" stroke-width="1">
    <line x1="11" y1="257" x2="11" y2="257"/>
    <circle cx="11" cy="257" r="2"/>
    <circle cx="11" cy="257" r="2"/>
  </g>
  <g stroke="chocolate" stroke-width="1">
    <line x1="143" y1="159" x2="11" y2="257"/>
    <circle cx="143" cy="159" r="2"/>
    <circle cx="11" cy="257" r="2"/>
  </g>
  <g stroke="chocolate" stroke-width="1">
    <line x1="144" y1="159" x2="143" y2="159"/>
    <circle cx="144" cy="159" r="2"/>
    <circle cx="143" cy="159" r="2"/>
  </g>
  <g stroke="chocolate" stroke-width="1">
    <line x1="11" y1="257" x2="144" y2="159"/>
    <circle cx="11" cy="257" r="2"/>
    <circle cx="144" cy="159" r="2"/>
  </g>
  <g stroke="chocolate" stroke-width="1">
    <line x1="11" y1="257" x2="11" y2="242"/>
    <circle cx="11" cy="257" r="2"/>
    <circle cx="11" cy="242" r="2"/>
  </g>
  <g stroke="chocolate" stroke-width="1">
    <line x1="11" y1="257" x2="11" y2="257"/>
    <circle cx="11" cy="257" r="2"/>
    <circle cx="11" cy="257" r="2"/>
  </g>
  <g stroke="chocolate" stroke-width="1">
    <line x1="11" y1="242" x2="11" y2="257"/>
    <circle cx="11" cy="242" r="2"/>
    <circle cx="11" cy="257" r="2"/>
  </g>
  <g stroke="chocolate" stroke-width="1">
    <line x1="11" y1="242" x2="11" y2="242"/>
    <circle cx="11" cy="242" r="2"/>
    <circle cx="11" cy="242" r="2"/>
  </g>
  <g stroke="chocolate" stroke-width="1">
    <line x1="499" y1="290" x2="79" y2="291"/>
    <circle cx="499" cy="290" r="2"/>
    <circle cx="79" cy="291" r="2"/>
  </g>
  <g stroke="chocolate" stroke-width="1">
    <line x1="499" y1="209" x2="499" y2="290"/>
    <circle cx="499" cy="209" r="2"/>
    <circle cx="499" cy="290" r="2"/>
  </g>
  <g stroke="chocolate" stroke-width="1">
    <line x1="331" y1="126" x2="499" y2="209"/>
    <circle cx="331" cy="126" r="2"/>
    <circle cx="499" cy="209" r="2"/>
  </g>
  <g stroke="chocolate" stroke-width="1">
    <line x1="144" y1="159" x2="331" y2="126"/>
    <circle cx="144" cy="159" r="2"/>
    <circle cx="331" cy="126" r="2"/>
  </g>
  <g stroke="chocolate" stroke-width="1">
    <line x1="11" y1="257" x2="144" y2="159"/>
    <circle cx="11" cy="257" r="2"/>
    <circle cx="144" cy="159" r="2"/>
  </g>
  <g stroke="chocolate" stroke-width="1">
    <line x1="79" y1="291" x2="11" y2="257"/>
    <circle cx="79" cy="291" r="2"/>
    <circle cx="11" cy="257" r="2"/>
  </g>
  <g stroke="chocolate" stroke-width="1">
    <line x1="79" y1="291" x2="11" y2="257"/>
    <circle cx="79" cy="291" r="2"/>
    <circle cx="11" cy="257" r="2"/>
  </g>
  <g stroke="chocolate" stroke-width="1">
    <line x1="31" y1="227" x2="79" y2="291"/>
    <circle cx="31" cy="227" r="2"/>
    <circle cx="79" cy="291" r="2"/>
  </g>
  <g stroke="chocolate" stroke-width="1">
    <line x1="11" y1="242" x2="31" y2="227"/>
    <circle cx="11" cy="242" r="2"/>
    <circle cx="31" cy="227" r="2"/>
  </g>
  <g stroke="chocolate" stroke-width="1">
    <line x1="11" y1="257" x2="11" y2="242"/>
    <circle cx="11" cy="257" r="2"/>
    <circle cx="11" cy="242" r="2"/>
  </g>
  <g stroke="chocolate" stroke-width="1">
    <line x1="261" y1="171" x2="223" y2="183"/>
    <circle cx="261" cy="171" r="2"/>
    <circle cx="223" cy="183" r="2"/>
  </g>
  <g stroke="chocolate" stroke-width="1">
    <line x1="251" y1="149" x2="261" y2="171"/>
    <circle cx="251" cy="149" r="2"/>
    <circle cx="261" cy="171" r="2"/>
  </g>
  <g stroke="chocolate" stroke-width="1">
    <line x1="223" y1="183" x2="251" y2="149"/>
    <circle cx="223" cy="183" r="2"/>
    <circle cx="251" cy="149" r="2"/>
  </g>
  <g stroke="chocolate" stroke-width="1">
    <line x1="144" y1="159" x2="143" y2="159"/>
    <circle cx="144" cy="159" r="2"/>
    <circle cx="143" cy="159" r="2"/>
  </g>
  <g stroke="chocolate" stroke-width="1">
    <line x1="143" y1="159" x2="144" y2="159"/>
    <circle cx="143" cy="159" r="2"/>
    <circle cx="144" cy="159" r="2"/>
  </g>
  <g stroke="chocolate" stroke-width="1">
    <line x1="143" y1="159" x2="143" y2="159"/>
    <circle cx="143" cy="159" r="2"/>
    <circle cx="143" cy="159" r="2"/>
  </g>
  <g stroke="chocolate" stroke-width="1">
    <line x1="143" y1="159" x2="144" y2="159"/>
    <circle cx="143" cy="159" r="2"/>
    <circle cx="144" cy="159" r="2"/>
  </g>
  <g stroke="chocolate" stroke-width="1">
    <line x1="223" y1="183" x2="143" y2="159"/>
    <circle cx="223" cy="183" r="2"/>
    <circle cx="143" cy="159" r="2"/>
  </g>
  <g stroke="chocolate" stroke-width="1">
    <line x1="261" y1="171" x2="223" y2="183"/>
    <circle cx="261" cy="171" r="2"/>
    <circle cx="223" cy="183" r="2"/>
  </g>
  <g stroke="chocolate" stroke-width="1">
    <line x1="255" y1="139" x2="261" y2="171"/>
    <circle cx="255" cy="139" r="2"/>
    <circle cx="261" cy="171" r="2"/>
  </g>
  <g stroke="chocolate" stroke-width="1">
    <line x1="144" y1="159" x2="255" y2="139"/>
    <circle cx="144" cy="159" r="2"/>
    <circle cx="255" cy="139" r="2"/>
  </g>
  <g stroke="chocolate" stroke-width="1">
    <line x1="143" y1="159" x2="11" y2="257"/>
    <circle cx="143" cy="159" r="2"/>
    <circle cx="11" cy="257" r="2"/>
  </g>
  <g stroke="chocolate" stroke-width="1">
    <line x1="144" y1="159" x2="143" y2="159"/>
    <circle cx="144" cy="159" r="2"/>
    <circle cx="143" cy="159" r="2"/>
  </g>
  <g stroke="chocolate" stroke-width="1">
    <line x1="11" y1="257" x2="144" y2="159"/>
    <circle cx="11" cy="257" r="2"/>
    <circle cx="144" cy="159" r="2"/>
  </g>
  <g stroke="chocolate" stroke-width="1">
    <line x1="11" y1="257" x2="11" y2="257"/>
    <circle cx="11" cy="257" r="2"/>
    <circle cx="11" cy="257" r="2"/>
  </g>
  <g stroke="chocolate" stroke-width="1">
    <line x1="11" y1="257" x2="11" y2="257"/>
    <circle cx="11" cy="257" r="2"/>
    <circle cx="11" cy="257" r="2"/>
  </g>
  <g stroke="chocolate" stroke-width="1">
    <line x1="11" y1="242" x2="11" y2="257"/>
    <circle cx="11" cy="242" r="2"/>
    <circle cx="11" cy="257" r="2"/>
  </g>
  <g stroke="chocolate" stroke-width="1">
    <line x1="11" y1="242" x2="11" y2="242"/>
    <circle cx="11" cy="242" r="2"/>
    <circle cx="11" cy="242" r="2"/>
  </g>
  <g stroke="chocolate" stroke-width="1">
    <line x1="11" y1="257" x2="11" y2="242"/>
    <circle cx="11" cy="257" r="2"/>
    <circle cx="11" cy="242" r="2"/>
  </g>
  <g stroke="chocolate" stroke-width="1">
    <line x1="75" y1="289" x2="11" y2="257"/>
    <circle cx="75" cy="289" r="2"/>
    <circle cx="11" cy="257" r="2"/>
  </g>
  <g stroke="chocolate" stroke-width="1">
    <line x1="145" y1="311" x2="75" y2="289"/>
    <circle cx="145" cy="311" r="2"/>
    <circle cx="75" cy="289" r="2"/>
  </g>
  <g stroke="chocolate" stroke-width="1">
    <line x1="268" y1="220" x2="145" y2="311"/>
    <circle cx="268" cy="220" r="2"/>
    <circle cx="145" cy="311" r="2"/>
  </g>
  <g stroke="chocolate" stroke-width="1">
    <line x1="255" y1="139" x2="268" y2="220"/>
    <circle cx="255" cy="139" r="2"/>
    <circle cx="268" cy="220" r="2"/>
  </g>
  <g stroke="chocolate" stroke-width="1">
    <line x1="144" y1="159" x2="255" y2="139"/>
    <circle cx="144" cy="159" r="2"/>
    <circle cx="255" cy="139" r="2"/>
  </g>
  <g stroke="chocolate" stroke-width="1">
    <line x1="11" y1="257" x2="144" y2="159"/>
    <circle cx="11" cy="257" r="2"/>
    <circle cx="144" cy="159" r="2"/>
  </g>
  <g stroke="chocolate" stroke-width="1">
    <line x1="11" y1="257" x2="11" y2="242"/>
    <circle cx="11" cy="257" r="2"/>
    <circle cx="11" cy="242" r="2"/>
  </g>
  <g stroke="chocolate" stroke-width="1">
    <line x1="75" y1="289" x2="11" y2="257"/>
    <circle cx="75" cy="289" r="2"/>
    <circle cx="11" cy="257" r="2"/>
  </g>
  <g stroke="chocolate" stroke-width="1">
    <line x1="11" y1="242" x2="75" y2="289"/>
    <circle cx="11" cy="242" r="2"/>
    <circle cx="75" cy="289" r="2"/>
  </g>
  <g stroke="chocolate" stroke-width="1">
    <line x1="145" y1="159" x2="268" y2="220"/>
    <circle cx="145" cy="159" r="2"/>
    <circle cx="268" cy="220" r="2"/>
  </g>
  <g stroke="chocolate" stroke-width="1">
    <line x1="12" y1="257" x2="145" y2="159"/>
    <circle cx="12" cy="257" r="2"/>
    <circle cx="145" cy="159" r="2"/>
  </g>
  <g stroke="chocolate" stroke-width="1">
    <line x1="135" y1="319" x2="12" y2="257"/>
    <circle cx="135" cy="319" r="2"/>
    <circle cx="12" cy="257" r="2"/>
  </g>
  <g stroke="chocolate" stroke-width="1">
    <line x1="268" y1="220" x2="135" y2="319"/>
    <circle cx="268" cy="220" r="2"/>
    <circle cx="135" cy="319" r="2"/>
  </g>
  <g stroke="chocolate" stroke-width="1">
    <line x1="135" y1="319" x2="12" y2="257"/>
    <circle cx="135" cy="319" r="2"/>
    <circle cx="12" cy="257" r="2"/>
  </g>
  <g stroke="chocolate" stroke-width="1">
    <line x1="134" y1="255" x2="135" y2="319"/>
    <circle cx="134" cy="255" r="2"/>
    <circle cx="135" cy="319" r="2"/>
  </g>
  <g stroke="chocolate" stroke-width="1">
    <line x1="12" y1="255" x2="134" y2="255"/>
    <circle cx="12" cy="255" r="2"/>
    <circle cx="134" cy="255" r="2"/>
  </g>
  <g stroke="chocolate" stroke-width="1">
    <line x1="12" y1="257" x2="12" y2="255"/>
    <circle cx="12" cy="257" r="2"/>
    <circle cx="12" cy="255" r="2"/>
  </g>
  <g stroke="chocolate" stroke-width="1">
    <line x1="299" y1="159" x2="223" y2="183"/>
    <circle cx="299" cy="159" r="2"/>
    <circle cx="223" cy="183" r="2"/>
  </g>
  <g stroke="chocolate" stroke-width="1">
    <line x1="251" y1="149" x2="299" y2="159"/>
    <circle cx="251" cy="149" r="2"/>
    <circle cx="299" cy="159" r="2"/>
  </g>
  <g stroke="chocolate" stroke-width="1">
    <line x1="223" y1="183" x2="251" y2="149"/>
    <circle cx="223" cy="183" r="2"/>
    <circle cx="251" cy="149" r="2"/>
  </g>
  <g stroke="chocolate" stroke-width="1">
    <line x1="144" y1="159" x2="143" y2="159"/>
    <circle cx="144" cy="159" r="2"/>
    <circle cx="143" cy="159" r="2"/>
  </g>
  <g stroke="chocolate" stroke-width="1">
    <line x1="143" y1="159" x2="144" y2="159"/>
    <circle cx="143" cy="159" r="2"/>
    <circle cx="144" cy="159" r="2"/>
  </g>
  <g stroke="chocolate" stroke-width="1">
    <line x1="143" y1="159" x2="143" y2="159"/>
    <circle cx="143" cy="159" r="2"/>
    <circle cx="143" cy="159" r="2"/>
  </g>
  <g stroke="chocolate" stroke-width="1">
    <line x1="143" y1="159" x2="144" y2="159"/>
    <circle cx="143" cy="159" r="2"/>
    <circle cx="144" cy="159" r="2"/>
  </g>
  <g stroke="chocolate" stroke-width="1">
    <line x1="223" y1="183" x2="143" y2="159"/>
    <circle cx="223" cy="183" r="2"/>
    <circle cx="143" cy="159" r="2"/>
  </g>
  <g stroke="chocolate" stroke-width="1">
    <line x1="299" y1="159" x2="223" y2="183"/>
    <circle cx="299" cy="159" r="2"/>
    <circle cx="223" cy="183" r="2"/>
  </g>
  <g stroke="chocolate" stroke-width="1">
    <line x1="331" y1="126" x2="299" y2="159"/>
    <circle cx="331" cy="126" r="2"/>
    <circle cx="299" cy="159" r="2"/>
  </g>
  <g stroke="chocolate" stroke-width="1">
    <line x1="144" y1="159" x2="331" y2="126"/>
    <circle cx="144" cy="159" r="2"/>
    <circle cx="331" cy="126" r="2"/>
  </g>
  <g stroke="chocolate" stroke-width="1">
    <line x1="143" y1="159" x2="11" y2="257"/>
    <circle cx="143" cy="159" r="2"/>
    <circle cx="11" cy="257" r="2"/>
  </g>
  <g stroke="chocolate" stroke-width="1">
    <line x1="144" y1="159" x2="143" y2="159"/>
    <circle cx="144" cy="159" r="2"/>
    <circle cx="143" cy="159" r="2"/>
  </g>
  <g stroke="chocolate" stroke-width="1">
    <line x1="11" y1="257" x2="144" y2="159"/>
    <circle cx="11" cy="257" r="2"/>
    <circle cx="144" cy="159" r="2"/>
  </g>
  <g stroke="chocolate" stroke-width="1">
    <line x1="11" y1="257" x2="11" y2="257"/>
    <circle cx="11" cy="257" r="2"/>
    <circle cx="11" cy="257" r="2"/>
  </g>
  <g stroke="chocolate" stroke-width="1">
    <line x1="11" y1="257" x2="11" y2="257"/>
    <circle cx="11" cy="257" r="2"/>
    <circle cx="11" cy="257" r="2"/>
  </g>
  <g stroke="chocolate" stroke-width="1">
    <line x1="11" y1="256" x2="11" y2="257"/>
    <circle cx="11" cy="256" r="2"/>
    <circle cx="11" cy="257" r="2"/>
  </g>
  <g stroke="chocolate" stroke-width="1">
    <line x1="11" y1="256" x2="11" y2="256"/>
    <circle cx="11" cy="256" r="2"/>
    <circle cx="11" cy="256" r="2"/>
  </g>
  <g stroke="chocolate" stroke-width="1">
    <line x1="11" y1="257" x2="11" y2="256"/>
    <circle cx="11" cy="257" r="2"/>
    <circle cx="11" cy="256" r="2"/>
  </g>
  <g stroke="chocolate" stroke-width="1">
    <line x1="265" y1="384" x2="11" y2="257"/>
    <circle cx="265" cy="384" r="2"/>
    <circle cx="11" cy="257" r="2"/>
  </g>
  <g stroke="chocolate" stroke-width="1">
    <line x1="499" y1="209" x2="265" y2="384"/>
    <circle cx="499" cy="209" r="2"/>
    <circle cx="265" cy="384" r="2"/>
  </g>
  <g stroke="chocolate" stroke-width="1">
    <line x1="331" y1="126" x2="499" y2="209"/>
    <circle cx="331" cy="126" r="2"/>
    <circle cx="499" cy="209" r="2"/>
  </g>
  <g stroke="chocolate" stroke-width="1">
    <line x1="144" y1="159" x2="331" y2="126"/>
    <circle cx="144" cy="159" r="2"/>
    <circle cx="331" cy="126" r="2"/>
  </g>
  <g stroke="chocolate" stroke-width="1">
    <line x1="11" y1="257" x2="144" y2="159"/>
    <circle cx="11" cy="257" r="2"/>
    <circle cx="144" cy="159" r="2"/>
  </g>
  <g stroke="chocolate" stroke-width="1">
    <line x1="11" y1="257" x2="11" y2="256"/>
    <circle cx="11" cy="257" r="2"/>
    <circle cx="11" cy="256" r="2"/>
  </g>
  <g stroke="chocolate" stroke-width="1">
    <line x1="265" y1="384" x2="11" y2="257"/>
    <circle cx="265" cy="384" r="2"/>
    <circle cx="11" cy="257" r="2"/>
  </g>
  <g stroke="chocolate" stroke-width="1">
    <line x1="265" y1="257" x2="265" y2="384"/>
    <circle cx="265" cy="257" r="2"/>
    <circle cx="265" cy="384" r="2"/>
  </g>
  <g stroke="chocolate" stroke-width="1">
    <line x1="11" y1="256" x2="265" y2="257"/>
    <circle cx="11" cy="256" r="2"/>
    <circle cx="265" cy="257" r="2"/>
  </g>
  <g stroke="chocolate" stroke-width="1">
    <line x1="261" y1="171" x2="223" y2="183"/>
    <circle cx="261" cy="171" r="2"/>
    <circle cx="223" cy="183" r="2"/>
  </g>
  <g stroke="chocolate" stroke-width="1">
    <line x1="251" y1="149" x2="261" y2="171"/>
    <circle cx="251" cy="149" r="2"/>
    <circle cx="261" cy="171" r="2"/>
  </g>
  <g stroke="chocolate" stroke-width="1">
    <line x1="223" y1="183" x2="251" y2="149"/>
    <circle cx="223" cy="183" r="2"/>
    <circle cx="251" cy="149" r="2"/>
  </g>
  <g stroke="chocolate" stroke-width="1">
    <line x1="144" y1="159" x2="143" y2="159"/>
    <circle cx="144" cy="159" r="2"/>
    <circle cx="143" cy="159" r="2"/>
  </g>
  <g stroke="chocolate" stroke-width="1">
    <line x1="143" y1="159" x2="144" y2="159"/>
    <circle cx="143" cy="159" r="2"/>
    <circle cx="144" cy="159" r="2"/>
  </g>
  <g stroke="chocolate" stroke-width="1">
    <line x1="143" y1="159" x2="143" y2="159"/>
    <circle cx="143" cy="159" r="2"/>
    <circle cx="143" cy="159" r="2"/>
  </g>
  <g stroke="chocolate" stroke-width="1">
    <line x1="143" y1="159" x2="144" y2="159"/>
    <circle cx="143" cy="159" r="2"/>
    <circle cx="144" cy="159" r="2"/>
  </g>
  <g stroke="chocolate" stroke-width="1">
    <line x1="223" y1="183" x2="143" y2="159"/>
    <circle cx="223" cy="183" r="2"/>
    <circle cx="143" cy="159" r="2"/>
  </g>
  <g stroke="chocolate" stroke-width="1">
    <line x1="261" y1="171" x2="223" y2="183"/>
    <circle cx="261" cy="171" r="2"/>
    <circle cx="223" cy="183" r="2"/>
  </g>
  <g stroke="chocolate" stroke-width="1">
    <line x1="255" y1="139" x2="261" y2="171"/>
    <circle cx="255" cy="139" r="2"/>
    <circle cx="261" cy="171" r="2"/>
  </g>
  <g stroke="chocolate" stroke-width="1">
    <line x1="144" y1="159" x2="255" y2="139"/>
    <circle cx="144" cy="159" r="2"/>
    <circle cx="255" cy="139" r="2"/>
  </g>
  <g stroke="chocolate" stroke-width="1">
    <line x1="11" y1="257" x2="11" y2="257"/>
    <circle cx="11" cy="257" r="2"/>
    <circle cx="11" cy="257" r="2"/>
  </g>
  <g stroke="chocolate" stroke-width="1">
    <line x1="143" y1="159" x2="11" y2="257"/>
    <circle cx="143" cy="159" r="2"/>
    <circle cx="11" cy="257" r="2"/>
  </g>
  <g stroke="chocolate" stroke-width="1">
    <line x1="144" y1="159" x2="143" y2="159"/>
    <circle cx="144" cy="159" r="2"/>
    <circle cx="143" cy="159" r="2"/>
  </g>
  <g stroke="chocolate" stroke-width="1">
    <line x1="11" y1="257" x2="144" y2="159"/>
    <circle cx="11" cy="257" r="2"/>
    <circle cx="144" cy="159" r="2"/>
  </g>
  <g stroke="chocolate" stroke-width="1">
    <line x1="11" y1="257" x2="11" y2="256"/>
    <circle cx="11" cy="257" r="2"/>
    <circle cx="11" cy="256" r="2"/>
  </g>
  <g stroke="chocolate" stroke-width="1">
    <line x1="11" y1="257" x2="11" y2="257"/>
    <circle cx="11" cy="257" r="2"/>
    <circle cx="11" cy="257" r="2"/>
  </g>
  <g stroke="chocolate" stroke-width="1">
    <line x1="11" y1="256" x2="11" y2="257"/>
    <circle cx="11" cy="256" r="2"/>
    <circle cx="11" cy="257" r="2"/>
  </g>
  <g stroke="chocolate" stroke-width="1">
    <line x1="11" y1="256" x2="11" y2="256"/>
    <circle cx="11" cy="256" r="2"/>
    <circle cx="11" cy="256" r="2"/>
  </g>
  <g stroke="chocolate" stroke-width="1">
    <line x1="268" y1="220" x2="135" y2="319"/>
    <circle cx="268" cy="220" r="2"/>
    <circle cx="135" cy="319" r="2"/>
  </g>
  <g stroke="chocolate" stroke-width="1">
    <line x1="255" y1="139" x2="268" y2="220"/>
    <circle cx="255" cy="139" r="2"/>
    <circle cx="268" cy="220" r="2"/>
  </g>
  <g stroke="chocolate" stroke-width="1">
    <line x1="144" y1="159" x2="255" y2="139"/>
    <circle cx="144" cy="159" r="2"/>
    <circle cx="255" cy="139" r="2"/>
  </g>
  <g stroke="chocolate" stroke-width="1">
    <line x1="11" y1="257" x2="144" y2="159"/>
    <circle cx="11" cy="257" r="2"/>
    <circle cx="144" cy="159" r="2"/>
  </g>
  <g stroke="chocolate" stroke-width="1">
    <line x1="135" y1="319" x2="11" y2="257"/>
    <circle cx="135" cy="319" r="2"/>
    <circle cx="11" cy="257" r="2"/>
  </g>
  <g stroke="chocolate" stroke-width="1">
    <line x1="135" y1="319" x2="11" y2="257"/>
    <circle cx="135" cy="319" r="2"/>
    <circle cx="11" cy="257" r="2"/>
  </g>
  <g stroke="chocolate" stroke-width="1">
    <line x1="134" y1="255" x2="135" y2="319"/>
    <circle cx="134" cy="255" r="2"/>
    <circle cx="135" cy="319" r="2"/>
  </g>
  <g stroke="chocolate" stroke-width="1">
    <line x1="11" y1="256" x2="134" y2="255"/>
    <circle cx="11" cy="256" r="2"/>
    <circle cx="134" cy="255" r="2"/>
  </g>
  <g stroke="chocolate" stroke-width="1">
    <line x1="11" y1="257" x2="11" y2="256"/>
    <circle cx="11" cy="257" r="2"/>
    <circle cx="11" cy="256" r="2"/>
  </g>
  <g stroke="black" stroke-width="1">
    <line x1="5" y1="5" x2="505" y2="5"/>
    <line x1="5" y1="5" x2="5" y2="505"/>
    <line x1="505" y1="505" x2="5" y2="505"/>
    <line x1="505" y1="505" x2="505" y2="5"/>
    <line x1="105" y1="2" x2="105" y2="8"/>
    <line x1="2" y1="105" x2="8" y2="105"/>
    <line x1="105" y1="502" x2="105" y2="508"/>
    <line x1="502" y1="105" x2="508" y2="105"/>
    <line x1="205" y1="2" x2="205" y2="8"/>
    <line x1="2" y1="205" x2="8" y2="205"/>
    <line x1="205" y1="502" x2="205" y2="508"/>
    <line x1="502" y1="205" x2="508" y2="205"/>
    <line x1="305" y1="2" x2="305" y2="8"/>
    <line x1="2" y1="305" x2="8" y2="305"/>
    <line x1="305" y1="502" x2="305" y2="508"/>
    <line x1="502" y1="305" x2="508" y2="305"/>
    <line x1="405" y1="2" x2="405" y2="8"/>
    <line x1="2" y1="405" x2="8" y2="405"/>
    <line x1="405" y1="502" x2="405" y2="508"/>
    <line x1="502" y1="405" x2="508" y2="405"/>
  </g>
  <g stroke="gray" stroke-width="1" stroke-dasharray="5,5">
    <line x1="105" y1="5" x2="105" y2="505"/>
    <line x1="5" y1="105" x2="505" y2="105"/>
    <line x1="205" y1="5" x2="205" y2="505"/>
    <line x1="5" y1="205" x2="505" y2="205"/>
    <line x1="305" y1="5" x2="305" y2="505"/>
    <line x1="5" y1="305" x2="505" y2="305"/>
    <line x1="405" y1="5" x2="405" y2="505"/>
    <line x1="5" y1="405" x2="505" y2="405"/>
  </g>
</svg>
