<?xml version="1.0" standalone="no"?>
<!DOCTYPE svg PUBLIC "-//W3C//DTD SVG 1.1//EN" 
  "http://www.w3.org/Graphics/SVG/1.1/DTD/svg11.dtd">
<svg width="522" height="522" version="1.1" id="toplevel"
    xmlns="http://www.w3.org/2000/svg"
    xmlns:xlink="http://www.w3.org/1999/xlink">
  <polygon points="314,512 306,517 306,517 314,491" fill="bisque"/>
  <polygon points="306,517 306,517 306,517" fill="bisque"/>
  <polygon points="279,463 300,448 314,491 314,512 300,505" fill="bisque"/>
  <polygon points="300,505 279,463 309,455" fill="bisque"/>
  <polygon points="132,171 314,202 314,512 306,517" fill="bisque"/>
  <polygon points="390,271 306,517 306,517 132,171 176,85 256,5" fill="bisque"/>
  <polygon points="203,131 201,14 256,5 390,271 321,249" fill="bisque"/>
  <polygon points="321,249 203,131 283,132" fill="bisque"/>
  <polygon points="314,512 300,505 255,415 257,212 314,202" fill="bisque"/>
  <polygon points="255,415 309,455 300,505" fill="bisque"/>
  <polygon points="314,202 314,259 145,197 132,171" fill="bisque"/>
  <polygon points="132,171 176,85 173,102 145,197" fill="bisque"/>
  <polygon points="314,259 279,272 257,212 314,202" fill="bisque"/>
  <polygon points="176,85 256,5 264,22 174,90" fill="bisque"/>
  <polygon points="264,22 209,38 201,14 256,5" fill="bisque"/>
  <polygon points="173,102 174,90 176,85" fill="bisque"/>
  <polygon points="314,512 306,517 306,517 314,491" fill="bisque"/>
  <polygon points="306,517 306,517 306,517" fill="bisque"/>
  <polygon points="271,448 300,448 314,491 314,512 300,505" fill="bisque"/>
  <polygon points="300,505 271,448 319,383 321,385" fill="bisque"/>
  <polygon points="175,256 314,359 314,512 306,517" fill="bisque"/>
  <polygon points="297,86 390,271 306,517 306,517 175,256 176,85" fill="bisque"/>
  <polygon points="390,271 321,249 238,166 297,86" fill="bisque"/>
  <polygon points="238,166 283,132 321,249" fill="bisque"/>
  <polygon points="314,512 300,505 250,406 314,359" fill="bisque"/>
  <polygon points="250,406 321,385 300,505" fill="bisque"/>
  <g stroke="chocolate" stroke-width="1">
    <line x1="300" y1="505" x2="250" y2="406"/>
    <circle cx="300" cy="505" r="2"/>
    <circle cx="250" cy="406" r="2"/>
  </g>
  <g stroke="chocolate" stroke-width="1">
    <line x1="321" y1="385" x2="300" y2="505"/>
    <circle cx="321" cy="385" r="2"/>
    <circle cx="300" cy="505" r="2"/>
  </g>
  <g stroke="chocolate" stroke-width="1">
    <line x1="250" y1="406" x2="321" y2="385"/>
    <circle cx="250" cy="406" r="2"/>
    <circle cx="321" cy="385" r="2"/>
  </g>
  <g stroke="chocolate" stroke-width="1">
    <line x1="314" y1="359" x2="314" y2="512"/>
    <circle cx="314" cy="359" r="2"/>
    <circle cx="314" cy="512" r="2"/>
  </g>
  <g stroke="chocolate" stroke-width="1">
    <line x1="250" y1="406" x2="314" y2="359"/>
    <circle cx="250" cy="406" r="2"/>
    <circle cx="314" cy="359" r="2"/>
  </g>
  <g stroke="chocolate" stroke-width="1">
    <line x1="300" y1="505" x2="250" y2="406"/>
    <circle cx="300" cy="505" r="2"/>
    <circle cx="250" cy="406" r="2"/>
  </g>
  <g stroke="chocolate" stroke-width="1">
    <line x1="314" y1="512" x2="300" y2="505"/>
    <circle cx="314" cy="512" r="2"/>
    <circle cx="300" cy="505" r="2"/>
  </g>
  <g stroke="chocolate" stroke-width="1">
    <line x1="321" y1="249" x2="238" y2="166"/>
    <circle cx="321" cy="249" r="2"/>
    <circle cx="238" cy="166" r="2"/>
  </g>
  <g stroke="chocolate" stroke-width="1">
    <line x1="283" y1="132" x2="321" y2="249"/>
    <circle cx="283" cy="132" r="2"/>
    <circle cx="321" cy="249" r="2"/>
  </g>
  <g stroke="chocolate" stroke-width="1">
    <line x1="238" y1="166" x2="283" y2="132"/>
    <circle cx="238" cy="166" r="2"/>
    <circle cx="283" cy="132" r="2"/>
  </g>
  <g stroke="chocolate" stroke-width="1">
    <line x1="297" y1="86" x2="390" y2="271"/>
    <circle cx="297" cy="86" r="2"/>
    <circle cx="390" cy="271" r="2"/>
  </g>
  <g stroke="chocolate" stroke-width="1">
    <line x1="238" y1="166" x2="297" y2="86"/>
    <circle cx="238" cy="166" r="2"/>
    <circle cx="297" cy="86" r="2"/>
  </g>
  <g stroke="chocolate" stroke-width="1">
    <line x1="321" y1="249" x2="238" y2="166"/>
    <circle cx="321" cy="249" r="2"/>
    <circle cx="238" cy="166" r="2"/>
  </g>
  <g stroke="chocolate" stroke-width="1">
    <line x1="390" y1="271" x2="321" y2="249"/>
    <circle cx="390" cy="271" r="2"/>
    <circle cx="321" cy="249" r="2"/>
  </g>
  <g stroke="chocolate" stroke-width="1">
    <line x1="176" y1="85" x2="297" y2="86"/>
    <circle cx="176" cy="85" r="2"/>
    <circle cx="297" cy="86" r="2"/>
  </g>
  <g stroke="chocolate" stroke-width="1">
    <line x1="175" y1="256" x2="176" y2="85"/>
    <circle cx="175" cy="256" r="2"/>
    <circle cx="176" cy="85" r="2"/>
  </g>
  <g stroke="chocolate" stroke-width="1">
    <line x1="306" y1="517" x2="175" y2="256"/>
    <circle cx="306" cy="517" r="2"/>
    <circle cx="175" cy="256" r="2"/>
  </g>
  <g stroke="chocolate" stroke-width="1">
    <line x1="306" y1="517" x2="306" y2="517"/>
    <circle cx="306" cy="517" r="2"/>
    <circle cx="306" cy="517" r="2"/>
  </g>
  <g stroke="chocolate" stroke-width="1">
    <line x1="390" y1="271" x2="306" y2="517"/>
    <circle cx="390" cy="271" r="2"/>
    <circle cx="306" cy="517" r="2"/>
  </g>
  <g stroke="chocolate" stroke-width="1">
    <line x1="297" y1="86" x2="390" y2="271"/>
    <circle cx="297" cy="86" r="2"/>
    <circle cx="390" cy="271" r="2"/>
  </g>
  <g stroke="chocolate" stroke-width="1">
    <line x1="306" y1="517" x2="175" y2="256"/>
    <circle cx="306" cy="517" r="2"/>
    <circle cx="175" cy="256" r="2"/>
  </g>
  <g stroke="chocolate" stroke-width="1">
    <line x1="314" y1="512" x2="306" y2="517"/>
    <circle cx="314" cy="512" r="2"/>
    <circle cx="306" cy="517" r="2"/>
  </g>
  <g stroke="chocolate" stroke-width="1">
    <line x1="314" y1="359" x2="314" y2="512"/>
    <circle cx="314" cy="359" r="2"/>
    <circle cx="314" cy="512" r="2"/>
  </g>
  <g stroke="chocolate" stroke-width="1">
    <line x1="175" y1="256" x2="314" y2="359"/>
    <circle cx="175" cy="256" r="2"/>
    <circle cx="314" cy="359" r="2"/>
  </g>
  <g stroke="chocolate" stroke-width="1">
    <line x1="321" y1="385" x2="300" y2="505"/>
    <circle cx="321" cy="385" r="2"/>
    <circle cx="300" cy="505" r="2"/>
  </g>
  <g stroke="chocolate" stroke-width="1">
    <line x1="319" y1="383" x2="321" y2="385"/>
    <circle cx="319" cy="383" r="2"/>
    <circle cx="321" cy="385" r="2"/>
  </g>
  <g stroke="chocolate" stroke-width="1">
    <line x1="271" y1="448" x2="319" y2="383"/>
    <circle cx="271" cy="448" r="2"/>
    <circle cx="319" cy="383" r="2"/>
  </g>
  <g stroke="chocolate" stroke-width="1">
    <line x1="300" y1="505" x2="271" y2="448"/>
    <circle cx="300" cy="505" r="2"/>
    <circle cx="271" cy="448" r="2"/>
  </g>
  <g stroke="chocolate" stroke-width="1">
    <line x1="300" y1="505" x2="271" y2="448"/>
    <circle cx="300" cy="505" r="2"/>
    <circle cx="271" cy="448" r="2"/>
  </g>
  <g stroke="chocolate" stroke-width="1">
    <line x1="314" y1="512" x2="300" y2="505"/>
    <circle cx="314" cy="512" r="2"/>
    <circle cx="300" cy="505" r="2"/>
  </g>
  <g stroke="chocolate" stroke-width="1">
    <line x1="314" y1="491" x2="314" y2="512"/>
    <circle cx="314" cy="491" r="2"/>
    <circle cx="314" cy="512" r="2"/>
  </g>
  <g stroke="chocolate" stroke-width="1">
    <line x1="300" y1="448" x2="314" y2="491"/>
    <circle cx="300" cy="448" r="2"/>
    <circle cx="314" cy="491" r="2"/>
  </g>
  <g stroke="chocolate" stroke-width="1">
    <line x1="271" y1="448" x2="300" y2="448"/>
    <circle cx="271" cy="448" r="2"/>
    <circle cx="300" cy="448" r="2"/>
  </g>
  <g stroke="chocolate" stroke-width="1">
    <line x1="306" y1="517" x2="306" y2="517"/>
    <circle cx="306" cy="517" r="2"/>
    <circle cx="306" cy="517" r="2"/>
  </g>
  <g stroke="chocolate" stroke-width="1">
    <line x1="306" y1="517" x2="306" y2="517"/>
    <circle cx="306" cy="517" r="2"/>
    <circle cx="306" cy="517" r="2"/>
  </g>
  <g stroke="chocolate" stroke-width="1">
    <line x1="306" y1="517" x2="306" y2="517"/>
    <circle cx="306" cy="517" r="2"/>
    <circle cx="306" cy="517" r="2"/>
  </g>
  <g stroke="chocolate" stroke-width="1">
    <line x1="314" y1="491" x2="314" y2="512"/>
    <circle cx="314" cy="491" r="2"/>
    <circle cx="314" cy="512" r="2"/>
  </g>
  <g stroke="chocolate" stroke-width="1">
    <line x1="306" y1="517" x2="314" y2="491"/>
    <circle cx="306" cy="517" r="2"/>
    <circle cx="314" cy="491" r="2"/>
  </g>
  <g stroke="chocolate" stroke-width="1">
    <line x1="306" y1="517" x2="306" y2="517"/>
    <circle cx="306" cy="517" r="2"/>
    <circle cx="306" cy="517" r="2"/>
  </g>
  <g stroke="chocolate" stroke-width="1">
    <line x1="314" y1="512" x2="306" y2="517"/>
    <circle cx="314" cy="512" r="2"/>
    <circle cx="306" cy="517" r="2"/>
  </g>
  <g stroke="chocolate" stroke-width="1">
    <line x1="176" y1="85" x2="173" y2="102"/>
    <circle cx="176" cy="85" r="2"/>
    <circle cx="173" cy="102" r="2"/>
  </g>
  <g stroke="chocolate" stroke-width="1">
    <line x1="174" y1="90" x2="176" y2="85"/>
    <circle cx="174" cy="90" r="2"/>
    <circle cx="176" cy="85" r="2"/>
  </g>
  <g stroke="chocolate" stroke-width="1">
    <line x1="173" y1="102" x2="174" y2="90"/>
    <circle cx="173" cy="102" r="2"/>
    <circle cx="174" cy="90" r="2"/>
  </g>
  <g stroke="chocolate" stroke-width="1">
    <line x1="256" y1="5" x2="264" y2="22"/>
    <circle cx="256" cy="5" r="2"/>
    <circle cx="264" cy="22" r="2"/>
  </g>
  <g stroke="chocolate" stroke-width="1">
    <line x1="201" y1="14" x2="256" y2="5"/>
    <circle cx="201" cy="14" r="2"/>
    <circle cx="256" cy="5" r="2"/>
  </g>
  <g stroke="chocolate" stroke-width="1">
    <line x1="209" y1="38" x2="201" y2="14"/>
    <circle cx="209" cy="38" r="2"/>
    <circle cx="201" cy="14" r="2"/>
  </g>
  <g stroke="chocolate" stroke-width="1">
    <line x1="264" y1="22" x2="209" y2="38"/>
    <circle cx="264" cy="22" r="2"/>
    <circle cx="209" cy="38" r="2"/>
  </g>
  <g stroke="chocolate" stroke-width="1">
    <line x1="174" y1="90" x2="176" y2="85"/>
    <circle cx="174" cy="90" r="2"/>
    <circle cx="176" cy="85" r="2"/>
  </g>
  <g stroke="chocolate" stroke-width="1">
    <line x1="264" y1="22" x2="174" y2="90"/>
    <circle cx="264" cy="22" r="2"/>
    <circle cx="174" cy="90" r="2"/>
  </g>
  <g stroke="chocolate" stroke-width="1">
    <line x1="256" y1="5" x2="264" y2="22"/>
    <circle cx="256" cy="5" r="2"/>
    <circle cx="264" cy="22" r="2"/>
  </g>
  <g stroke="chocolate" stroke-width="1">
    <line x1="176" y1="85" x2="256" y2="5"/>
    <circle cx="176" cy="85" r="2"/>
    <circle cx="256" cy="5" r="2"/>
  </g>
  <g stroke="chocolate" stroke-width="1">
    <line x1="314" y1="202" x2="314" y2="259"/>
    <circle cx="314" cy="202" r="2"/>
    <circle cx="314" cy="259" r="2"/>
  </g>
  <g stroke="chocolate" stroke-width="1">
    <line x1="257" y1="212" x2="314" y2="202"/>
    <circle cx="257" cy="212" r="2"/>
    <circle cx="314" cy="202" r="2"/>
  </g>
  <g stroke="chocolate" stroke-width="1">
    <line x1="279" y1="272" x2="257" y2="212"/>
    <circle cx="279" cy="272" r="2"/>
    <circle cx="257" cy="212" r="2"/>
  </g>
  <g stroke="chocolate" stroke-width="1">
    <line x1="314" y1="259" x2="279" y2="272"/>
    <circle cx="314" cy="259" r="2"/>
    <circle cx="279" cy="272" r="2"/>
  </g>
  <g stroke="chocolate" stroke-width="1">
    <line x1="145" y1="197" x2="132" y2="171"/>
    <circle cx="145" cy="197" r="2"/>
    <circle cx="132" cy="171" r="2"/>
  </g>
  <g stroke="chocolate" stroke-width="1">
    <line x1="173" y1="102" x2="145" y2="197"/>
    <circle cx="173" cy="102" r="2"/>
    <circle cx="145" cy="197" r="2"/>
  </g>
  <g stroke="chocolate" stroke-width="1">
    <line x1="176" y1="85" x2="173" y2="102"/>
    <circle cx="176" cy="85" r="2"/>
    <circle cx="173" cy="102" r="2"/>
  </g>
  <g stroke="chocolate" stroke-width="1">
    <line x1="132" y1="171" x2="176" y2="85"/>
    <circle cx="132" cy="171" r="2"/>
    <circle cx="176" cy="85" r="2"/>
  </g>
  <g stroke="chocolate" stroke-width="1">
    <line x1="132" y1="171" x2="314" y2="202"/>
    <circle cx="132" cy="171" r="2"/>
    <circle cx="314" cy="202" r="2"/>
  </g>
  <g stroke="chocolate" stroke-width="1">
    <line x1="145" y1="197" x2="132" y2="171"/>
    <circle cx="145" cy="197" r="2"/>
    <circle cx="132" cy="171" r="2"/>
  </g>
  <g stroke="chocolate" stroke-width="1">
    <line x1="314" y1="259" x2="145" y2="197"/>
    <circle cx="314" cy="259" r="2"/>
    <circle cx="145" cy="197" r="2"/>
  </g>
  <g stroke="chocolate" stroke-width="1">
    <line x1="314" y1="202" x2="314" y2="259"/>
    <circle cx="314" cy="202" r="2"/>
    <circle cx="314" cy="259" r="2"/>
  </g>
  <g stroke="chocolate" stroke-width="1">
    <line x1="300" y1="505" x2="255" y2="415"/>
    <circle cx="300" cy="505" r="2"/>
    <circle cx="255" cy="415" r="2"/>
  </g>
  <g stroke="chocolate" stroke-width="1">
    <line x1="309" y1="455" x2="300" y2="505"/>
    <circle cx="309" cy="455" r="2"/>
    <circle cx="300" cy="505" r="2"/>
  </g>
  <g stroke="chocolate" stroke-width="1">
    <line x1="255" y1="415" x2="309" y2="455"/>
    <circle cx="255" cy="415" r="2"/>
    <circle cx="309" cy="455" r="2"/>
  </g>
  <g stroke="chocolate" stroke-width="1">
    <line x1="314" y1="202" x2="314" y2="512"/>
    <circle cx="314" cy="202" r="2"/>
    <circle cx="314" cy="512" r="2"/>
  </g>
  <g stroke="chocolate" stroke-width="1">
    <line x1="257" y1="212" x2="314" y2="202"/>
    <circle cx="257" cy="212" r="2"/>
    <circle cx="314" cy="202" r="2"/>
  </g>
  <g stroke="chocolate" stroke-width="1">
    <line x1="255" y1="415" x2="257" y2="212"/>
    <circle cx="255" cy="415" r="2"/>
    <circle cx="257" cy="212" r="2"/>
  </g>
  <g stroke="chocolate" stroke-width="1">
    <line x1="300" y1="505" x2="255" y2="415"/>
    <circle cx="300" cy="505" r="2"/>
    <circle cx="255" cy="415" r="2"/>
  </g>
  <g stroke="chocolate" stroke-width="1">
    <line x1="314" y1="512" x2="300" y2="505"/>
    <circle cx="314" cy="512" r="2"/>
    <circle cx="300" cy="505" r="2"/>
  </g>
  <g stroke="chocolate" stroke-width="1">
    <line x1="283" y1="132" x2="321" y2="249"/>
    <circle cx="283" cy="132" r="2"/>
    <circle cx="321" cy="249" r="2"/>
  </g>
  <g stroke="chocolate" stroke-width="1">
    <line x1="203" y1="131" x2="283" y2="132"/>
    <circle cx="203" cy="131" r="2"/>
    <circle cx="283" cy="132" r="2"/>
  </g>
  <g stroke="chocolate" stroke-width="1">
    <line x1="321" y1="249" x2="203" y2="131"/>
    <circle cx="321" cy="249" r="2"/>
    <circle cx="203" cy="131" r="2"/>
  </g>
  <g stroke="chocolate" stroke-width="1">
    <line x1="321" y1="249" x2="203" y2="131"/>
    <circle cx="321" cy="249" r="2"/>
    <circle cx="203" cy="131" r="2"/>
  </g>
  <g stroke="chocolate" stroke-width="1">
    <line x1="390" y1="271" x2="321" y2="249"/>
    <circle cx="390" cy="271" r="2"/>
    <circle cx="321" cy="249" r="2"/>
  </g>
  <g stroke="chocolate" stroke-width="1">
    <line x1="256" y1="5" x2="390" y2="271"/>
    <circle cx="256" cy="5" r="2"/>
    <circle cx="390" cy="271" r="2"/>
  </g>
  <g stroke="chocolate" stroke-width="1">
    <line x1="201" y1="14" x2="256" y2="5"/>
    <circle cx="201" cy="14" r="2"/>
    <circle cx="256" cy="5" r="2"/>
  </g>
  <g stroke="chocolate" stroke-width="1">
    <line x1="203" y1="131" x2="201" y2="14"/>
    <circle cx="203" cy="131" r="2"/>
    <circle cx="201" cy="14" r="2"/>
  </g>
  <g stroke="chocolate" stroke-width="1">
    <line x1="256" y1="5" x2="390" y2="271"/>
    <circle cx="256" cy="5" r="2"/>
    <circle cx="390" cy="271" r="2"/>
  </g>
  <g stroke="chocolate" stroke-width="1">
    <line x1="176" y1="85" x2="256" y2="5"/>
    <circle cx="176" cy="85" r="2"/>
    <circle cx="256" cy="5" r="2"/>
  </g>
  <g stroke="chocolate" stroke-width="1">
    <line x1="132" y1="171" x2="176" y2="85"/>
    <circle cx="132" cy="171" r="2"/>
    <circle cx="176" cy="85" r="2"/>
  </g>
  <g stroke="chocolate" stroke-width="1">
    <line x1="306" y1="517" x2="132" y2="171"/>
    <circle cx="306" cy="517" r="2"/>
    <circle cx="132" cy="171" r="2"/>
  </g>
  <g stroke="chocolate" stroke-width="1">
    <line x1="306" y1="517" x2="306" y2="517"/>
    <circle cx="306" cy="517" r="2"/>
    <circle cx="306" cy="517" r="2"/>
  </g>
  <g stroke="chocolate" stroke-width="1">
    <line x1="390" y1="271" x2="306" y2="517"/>
    <circle cx="390" cy="271" r="2"/>
    <circle cx="306" cy="517" r="2"/>
  </g>
  <g stroke="chocolate" stroke-width="1">
    <line x1="306" y1="517" x2="132" y2="171"/>
    <circle cx="306" cy="517" r="2"/>
    <circle cx="132" cy="171" r="2"/>
  </g>
  <g stroke="chocolate" stroke-width="1">
    <line x1="314" y1="512" x2="306" y2="517"/>
    <circle cx="314" cy="512" r="2"/>
    <circle cx="306" cy="517" r="2"/>
  </g>
  <g stroke="chocolate" stroke-width="1">
    <line x1="314" y1="202" x2="314" y2="512"/>
    <circle cx="314" cy="202" r="2"/>
    <circle cx="314" cy="512" r="2"/>
  </g>
  <g stroke="chocolate" stroke-width="1">
    <line x1="132" y1="171" x2="314" y2="202"/>
    <circle cx="132" cy="171" r="2"/>
    <circle cx="314" cy="202" r="2"/>
  </g>
  <g stroke="chocolate" stroke-width="1">
    <line x1="309" y1="455" x2="300" y2="505"/>
    <circle cx="309" cy="455" r="2"/>
    <circle cx="300" cy="505" r="2"/>
  </g>
  <g stroke="chocolate" stroke-width="1">
    <line x1="279" y1="463" x2="309" y2="455"/>
    <circle cx="279" cy="463" r="2"/>
    <circle cx="309" cy="455" r="2"/>
  </g>
  <g stroke="chocolate" stroke-width="1">
    <line x1="300" y1="505" x2="279" y2="463"/>
    <circle cx="300" cy="505" r="2"/>
    <circle cx="279" cy="463" r="2"/>
  </g>
  <g stroke="chocolate" stroke-width="1">
    <line x1="300" y1="505" x2="279" y2="463"/>
    <circle cx="300" cy="505" r="2"/>
    <circle cx="279" cy="463" r="2"/>
  </g>
  <g stroke="chocolate" stroke-width="1">
    <line x1="314" y1="512" x2="300" y2="505"/>
    <circle cx="314" cy="512" r="2"/>
    <circle cx="300" cy="505" r="2"/>
  </g>
  <g stroke="chocolate" stroke-width="1">
    <line x1="314" y1="491" x2="314" y2="512"/>
    <circle cx="314" cy="491" r="2"/>
    <circle cx="314" cy="512" r="2"/>
  </g>
  <g stroke="chocolate" stroke-width="1">
    <line x1="300" y1="448" x2="314" y2="491"/>
    <circle cx="300" cy="448" r="2"/>
    <circle cx="314" cy="491" r="2"/>
  </g>
  <g stroke="chocolate" stroke-width="1">
    <line x1="279" y1="463" x2="300" y2="448"/>
    <circle cx="279" cy="463" r="2"/>
    <circle cx="300" cy="448" r="2"/>
  </g>
  <g stroke="chocolate" stroke-width="1">
    <line x1="306" y1="517" x2="306" y2="517"/>
    <circle cx="306" cy="517" r="2"/>
    <circle cx="306" cy="517" r="2"/>
  </g>
  <g stroke="chocolate" stroke-width="1">
    <line x1="306" y1="517" x2="306" y2="517"/>
    <circle cx="306" cy="517" r="2"/>
    <circle cx="306" cy="517" r="2"/>
  </g>
  <g stroke="chocolate" stroke-width="1">
    <line x1="306" y1="517" x2="306" y2="517"/>
    <circle cx="306" cy="517" r="2"/>
    <circle cx="306" cy="517" r="2"/>
  </g>
  <g stroke="chocolate" stroke-width="1">
    <line x1="314" y1="491" x2="314" y2="512"/>
    <circle cx="314" cy="491" r="2"/>
    <circle cx="314" cy="512" r="2"/>
  </g>
  <g stroke="chocolate" stroke-width="1">
    <line x1="306" y1="517" x2="314" y2="491"/>
    <circle cx="306" cy="517" r="2"/>
    <circle cx="314" cy="491" r="2"/>
  </g>
  <g stroke="chocolate" stroke-width="1">
    <line x1="306" y1="517" x2="306" y2="517"/>
    <circle cx="306" cy="517" r="2"/>
    <circle cx="306" cy="517" r="2"/>
  </g>
  <g stroke="chocolate" stroke-width="1">
    <line x1="314" y1="512" x2="306" y2="517"/>
    <circle cx="314" cy="512" r="2"/>
    <circle cx="306" cy="517" r="2"/>
  </g>
  <g stroke="black" stroke-width="1">
    <line x1="11" y1="11" x2="511" y2="11"/>
    <line x1="11" y1="11" x2="11" y2="511"/>
    <line x1="511" y1="511" x2="11" y2="511"/>
    <line x1="511" y1="511" x2="511" y2="11"/>
    <line x1="111" y1="8" x2="111" y2="14"/>
    <line x1="8" y1="111" x2="14" y2="111"/>
    <line x1="111" y1="508" x2="111" y2="514"/>
    <line x1="508" y1="111" x2="514" y2="111"/>
    <line x1="211" y1="8" x2="211" y2="14"/>
    <line x1="8" y1="211" x2="14" y2="211"/>
    <line x1="211" y1="508" x2="211" y2="514"/>
    <line x1="508" y1="211" x2="514" y2="211"/>
    <line x1="311" y1="8" x2="311" y2="14"/>
    <line x1="8" y1="311" x2="14" y2="311"/>
    <line x1="311" y1="508" x2="311" y2="514"/>
    <line x1="508" y1="311" x2="514" y2="311"/>
    <line x1="411" y1="8" x2="411" y2="14"/>
    <line x1="8" y1="411" x2="14" y2="411"/>
    <line x1="411" y1="508" x2="411" y2="514"/>
    <line x1="508" y1="411" x2="514" y2="411"/>
  </g>
  <g stroke="gray" stroke-width="1" stroke-dasharray="5,5">
    <line x1="111" y1="11" x2="111" y2="511"/>
    <line x1="11" y1="111" x2="511" y2="111"/>
    <line x1="211" y1="11" x2="211" y2="511"/>
    <line x1="11" y1="211" x2="511" y2="211"/>
    <line x1="311" y1="11" x2="311" y2="511"/>
    <line x1="11" y1="311" x2="511" y2="311"/>
    <line x1="411" y1="11" x2="411" y2="511"/>
    <line x1="11" y1="411" x2="511" y2="411"/>
  </g>
</svg>
