<?xml version="1.0" standalone="no"?>
<!DOCTYPE svg PUBLIC "-//W3C//DTD SVG 1.1//EN" 
  "http://www.w3.org/Graphics/SVG/1.1/DTD/svg11.dtd">
<svg width="510" height="510" version="1.1" id="toplevel"
    xmlns="http://www.w3.org/2000/svg"
    xmlns:xlink="http://www.w3.org/1999/xlink">
  <polygon points="193,101 202,105 42,448 37,442" fill="bisque"/>
  <polygon points="219,434 37,442 193,101 473,225" fill="bisque"/>
  <polygon points="83,342 148,360 161,423 42,448 37,442" fill="bisque"/>
  <polygon points="37,442 83,342 219,434" fill="bisque"/>
  <polygon points="174,182 96,442 55,464 37,442 173,145" fill="bisque"/>
  <polygon points="173,145 242,89 432,46 473,225 219,434 37,442" fill="bisque"/>
  <polygon points="83,342 148,360 55,464 37,442" fill="bisque"/>
  <polygon points="37,442 83,342 219,434" fill="bisque"/>
  <polygon points="173,145 174,182 166,160" fill="bisque"/>
  <polygon points="166,160 173,145 242,89 219,140" fill="bisque"/>
  <polygon points="173,145 174,182 96,442 64,384" fill="bisque"/>
  <polygon points="64,384 173,145 193,128 242,344" fill="bisque"/>
  <polygon points="174,182 166,160 173,145" fill="bisque"/>
  <polygon points="173,145 193,128 219,140 166,160" fill="bisque"/>
  <g stroke="chocolate" stroke-width="1">
    <line x1="166" y1="160" x2="173" y2="145"/>
    <circle cx="166" cy="160" r="2"/>
    <circle cx="173" cy="145" r="2"/>
  </g>
  <g stroke="chocolate" stroke-width="1">
    <line x1="219" y1="140" x2="166" y2="160"/>
    <circle cx="219" cy="140" r="2"/>
    <circle cx="166" cy="160" r="2"/>
  </g>
  <g stroke="chocolate" stroke-width="1">
    <line x1="193" y1="128" x2="219" y2="140"/>
    <circle cx="193" cy="128" r="2"/>
    <circle cx="219" cy="140" r="2"/>
  </g>
  <g stroke="chocolate" stroke-width="1">
    <line x1="173" y1="145" x2="193" y2="128"/>
    <circle cx="173" cy="145" r="2"/>
    <circle cx="193" cy="128" r="2"/>
  </g>
  <g stroke="chocolate" stroke-width="1">
    <line x1="173" y1="145" x2="174" y2="182"/>
    <circle cx="173" cy="145" r="2"/>
    <circle cx="174" cy="182" r="2"/>
  </g>
  <g stroke="chocolate" stroke-width="1">
    <line x1="166" y1="160" x2="173" y2="145"/>
    <circle cx="166" cy="160" r="2"/>
    <circle cx="173" cy="145" r="2"/>
  </g>
  <g stroke="chocolate" stroke-width="1">
    <line x1="174" y1="182" x2="166" y2="160"/>
    <circle cx="174" cy="182" r="2"/>
    <circle cx="166" cy="160" r="2"/>
  </g>
  <g stroke="chocolate" stroke-width="1">
    <line x1="242" y1="344" x2="64" y2="384"/>
    <circle cx="242" cy="344" r="2"/>
    <circle cx="64" cy="384" r="2"/>
  </g>
  <g stroke="chocolate" stroke-width="1">
    <line x1="193" y1="128" x2="242" y2="344"/>
    <circle cx="193" cy="128" r="2"/>
    <circle cx="242" cy="344" r="2"/>
  </g>
  <g stroke="chocolate" stroke-width="1">
    <line x1="173" y1="145" x2="193" y2="128"/>
    <circle cx="173" cy="145" r="2"/>
    <circle cx="193" cy="128" r="2"/>
  </g>
  <g stroke="chocolate" stroke-width="1">
    <line x1="64" y1="384" x2="173" y2="145"/>
    <circle cx="64" cy="384" r="2"/>
    <circle cx="173" cy="145" r="2"/>
  </g>
  <g stroke="chocolate" stroke-width="1">
    <line x1="64" y1="384" x2="173" y2="145"/>
    <circle cx="64" cy="384" r="2"/>
    <circle cx="173" cy="145" r="2"/>
  </g>
  <g stroke="chocolate" stroke-width="1">
    <line x1="96" y1="442" x2="64" y2="384"/>
    <circle cx="96" cy="442" r="2"/>
    <circle cx="64" cy="384" r="2"/>
  </g>
  <g stroke="chocolate" stroke-width="1">
    <line x1="174" y1="182" x2="96" y2="442"/>
    <circle cx="174" cy="182" r="2"/>
    <circle cx="96" cy="442" r="2"/>
  </g>
  <g stroke="chocolate" stroke-width="1">
    <line x1="173" y1="145" x2="174" y2="182"/>
    <circle cx="173" cy="145" r="2"/>
    <circle cx="174" cy="182" r="2"/>
  </g>
  <g stroke="chocolate" stroke-width="1">
    <line x1="219" y1="140" x2="166" y2="160"/>
    <circle cx="219" cy="140" r="2"/>
    <circle cx="166" cy="160" r="2"/>
  </g>
  <g stroke="chocolate" stroke-width="1">
    <line x1="242" y1="89" x2="219" y2="140"/>
    <circle cx="242" cy="89" r="2"/>
    <circle cx="219" cy="140" r="2"/>
  </g>
  <g stroke="chocolate" stroke-width="1">
    <line x1="173" y1="145" x2="242" y2="89"/>
    <circle cx="173" cy="145" r="2"/>
    <circle cx="242" cy="89" r="2"/>
  </g>
  <g stroke="chocolate" stroke-width="1">
    <line x1="166" y1="160" x2="173" y2="145"/>
    <circle cx="166" cy="160" r="2"/>
    <circle cx="173" cy="145" r="2"/>
  </g>
  <g stroke="chocolate" stroke-width="1">
    <line x1="166" y1="160" x2="173" y2="145"/>
    <circle cx="166" cy="160" r="2"/>
    <circle cx="173" cy="145" r="2"/>
  </g>
  <g stroke="chocolate" stroke-width="1">
    <line x1="174" y1="182" x2="166" y2="160"/>
    <circle cx="174" cy="182" r="2"/>
    <circle cx="166" cy="160" r="2"/>
  </g>
  <g stroke="chocolate" stroke-width="1">
    <line x1="173" y1="145" x2="174" y2="182"/>
    <circle cx="173" cy="145" r="2"/>
    <circle cx="174" cy="182" r="2"/>
  </g>
  <g stroke="chocolate" stroke-width="1">
    <line x1="219" y1="434" x2="37" y2="442"/>
    <circle cx="219" cy="434" r="2"/>
    <circle cx="37" cy="442" r="2"/>
  </g>
  <g stroke="chocolate" stroke-width="1">
    <line x1="83" y1="342" x2="219" y2="434"/>
    <circle cx="83" cy="342" r="2"/>
    <circle cx="219" cy="434" r="2"/>
  </g>
  <g stroke="chocolate" stroke-width="1">
    <line x1="37" y1="442" x2="83" y2="342"/>
    <circle cx="37" cy="442" r="2"/>
    <circle cx="83" cy="342" r="2"/>
  </g>
  <g stroke="chocolate" stroke-width="1">
    <line x1="37" y1="442" x2="83" y2="342"/>
    <circle cx="37" cy="442" r="2"/>
    <circle cx="83" cy="342" r="2"/>
  </g>
  <g stroke="chocolate" stroke-width="1">
    <line x1="55" y1="464" x2="37" y2="442"/>
    <circle cx="55" cy="464" r="2"/>
    <circle cx="37" cy="442" r="2"/>
  </g>
  <g stroke="chocolate" stroke-width="1">
    <line x1="148" y1="360" x2="55" y2="464"/>
    <circle cx="148" cy="360" r="2"/>
    <circle cx="55" cy="464" r="2"/>
  </g>
  <g stroke="chocolate" stroke-width="1">
    <line x1="83" y1="342" x2="148" y2="360"/>
    <circle cx="83" cy="342" r="2"/>
    <circle cx="148" cy="360" r="2"/>
  </g>
  <g stroke="chocolate" stroke-width="1">
    <line x1="37" y1="442" x2="173" y2="145"/>
    <circle cx="37" cy="442" r="2"/>
    <circle cx="173" cy="145" r="2"/>
  </g>
  <g stroke="chocolate" stroke-width="1">
    <line x1="219" y1="434" x2="37" y2="442"/>
    <circle cx="219" cy="434" r="2"/>
    <circle cx="37" cy="442" r="2"/>
  </g>
  <g stroke="chocolate" stroke-width="1">
    <line x1="473" y1="225" x2="219" y2="434"/>
    <circle cx="473" cy="225" r="2"/>
    <circle cx="219" cy="434" r="2"/>
  </g>
  <g stroke="chocolate" stroke-width="1">
    <line x1="432" y1="46" x2="473" y2="225"/>
    <circle cx="432" cy="46" r="2"/>
    <circle cx="473" cy="225" r="2"/>
  </g>
  <g stroke="chocolate" stroke-width="1">
    <line x1="242" y1="89" x2="432" y2="46"/>
    <circle cx="242" cy="89" r="2"/>
    <circle cx="432" cy="46" r="2"/>
  </g>
  <g stroke="chocolate" stroke-width="1">
    <line x1="173" y1="145" x2="242" y2="89"/>
    <circle cx="173" cy="145" r="2"/>
    <circle cx="242" cy="89" r="2"/>
  </g>
  <g stroke="chocolate" stroke-width="1">
    <line x1="173" y1="145" x2="174" y2="182"/>
    <circle cx="173" cy="145" r="2"/>
    <circle cx="174" cy="182" r="2"/>
  </g>
  <g stroke="chocolate" stroke-width="1">
    <line x1="37" y1="442" x2="173" y2="145"/>
    <circle cx="37" cy="442" r="2"/>
    <circle cx="173" cy="145" r="2"/>
  </g>
  <g stroke="chocolate" stroke-width="1">
    <line x1="55" y1="464" x2="37" y2="442"/>
    <circle cx="55" cy="464" r="2"/>
    <circle cx="37" cy="442" r="2"/>
  </g>
  <g stroke="chocolate" stroke-width="1">
    <line x1="96" y1="442" x2="55" y2="464"/>
    <circle cx="96" cy="442" r="2"/>
    <circle cx="55" cy="464" r="2"/>
  </g>
  <g stroke="chocolate" stroke-width="1">
    <line x1="174" y1="182" x2="96" y2="442"/>
    <circle cx="174" cy="182" r="2"/>
    <circle cx="96" cy="442" r="2"/>
  </g>
  <g stroke="chocolate" stroke-width="1">
    <line x1="219" y1="434" x2="37" y2="442"/>
    <circle cx="219" cy="434" r="2"/>
    <circle cx="37" cy="442" r="2"/>
  </g>
  <g stroke="chocolate" stroke-width="1">
    <line x1="83" y1="342" x2="219" y2="434"/>
    <circle cx="83" cy="342" r="2"/>
    <circle cx="219" cy="434" r="2"/>
  </g>
  <g stroke="chocolate" stroke-width="1">
    <line x1="37" y1="442" x2="83" y2="342"/>
    <circle cx="37" cy="442" r="2"/>
    <circle cx="83" cy="342" r="2"/>
  </g>
  <g stroke="chocolate" stroke-width="1">
    <line x1="37" y1="442" x2="83" y2="342"/>
    <circle cx="37" cy="442" r="2"/>
    <circle cx="83" cy="342" r="2"/>
  </g>
  <g stroke="chocolate" stroke-width="1">
    <line x1="42" y1="448" x2="37" y2="442"/>
    <circle cx="42" cy="448" r="2"/>
    <circle cx="37" cy="442" r="2"/>
  </g>
  <g stroke="chocolate" stroke-width="1">
    <line x1="161" y1="423" x2="42" y2="448"/>
    <circle cx="161" cy="423" r="2"/>
    <circle cx="42" cy="448" r="2"/>
  </g>
  <g stroke="chocolate" stroke-width="1">
    <line x1="148" y1="360" x2="161" y2="423"/>
    <circle cx="148" cy="360" r="2"/>
    <circle cx="161" cy="423" r="2"/>
  </g>
  <g stroke="chocolate" stroke-width="1">
    <line x1="83" y1="342" x2="148" y2="360"/>
    <circle cx="83" cy="342" r="2"/>
    <circle cx="148" cy="360" r="2"/>
  </g>
  <g stroke="chocolate" stroke-width="1">
    <line x1="473" y1="225" x2="219" y2="434"/>
    <circle cx="473" cy="225" r="2"/>
    <circle cx="219" cy="434" r="2"/>
  </g>
  <g stroke="chocolate" stroke-width="1">
    <line x1="193" y1="101" x2="473" y2="225"/>
    <circle cx="193" cy="101" r="2"/>
    <circle cx="473" cy="225" r="2"/>
  </g>
  <g stroke="chocolate" stroke-width="1">
    <line x1="37" y1="442" x2="193" y2="101"/>
    <circle cx="37" cy="442" r="2"/>
    <circle cx="193" cy="101" r="2"/>
  </g>
  <g stroke="chocolate" stroke-width="1">
    <line x1="219" y1="434" x2="37" y2="442"/>
    <circle cx="219" cy="434" r="2"/>
    <circle cx="37" cy="442" r="2"/>
  </g>
  <g stroke="chocolate" stroke-width="1">
    <line x1="37" y1="442" x2="193" y2="101"/>
    <circle cx="37" cy="442" r="2"/>
    <circle cx="193" cy="101" r="2"/>
  </g>
  <g stroke="chocolate" stroke-width="1">
    <line x1="42" y1="448" x2="37" y2="442"/>
    <circle cx="42" cy="448" r="2"/>
    <circle cx="37" cy="442" r="2"/>
  </g>
  <g stroke="chocolate" stroke-width="1">
    <line x1="202" y1="105" x2="42" y2="448"/>
    <circle cx="202" cy="105" r="2"/>
    <circle cx="42" cy="448" r="2"/>
  </g>
  <g stroke="chocolate" stroke-width="1">
    <line x1="193" y1="101" x2="202" y2="105"/>
    <circle cx="193" cy="101" r="2"/>
    <circle cx="202" cy="105" r="2"/>
  </g>
  <g stroke="black" stroke-width="1">
    <line x1="5" y1="5" x2="505" y2="5"/>
    <line x1="5" y1="5" x2="5" y2="505"/>
    <line x1="505" y1="505" x2="5" y2="505"/>
    <line x1="505" y1="505" x2="505" y2="5"/>
    <line x1="105" y1="2" x2="105" y2="8"/>
    <line x1="2" y1="105" x2="8" y2="105"/>
    <line x1="105" y1="502" x2="105" y2="508"/>
    <line x1="502" y1="105" x2="508" y2="105"/>
    <line x1="205" y1="2" x2="205" y2="8"/>
    <line x1="2" y1="205" x2="8" y2="205"/>
    <line x1="205" y1="502" x2="205" y2="508"/>
    <line x1="502" y1="205" x2="508" y2="205"/>
    <line x1="305" y1="2" x2="305" y2="8"/>
    <line x1="2" y1="305" x2="8" y2="305"/>
    <line x1="305" y1="502" x2="305" y2="508"/>
    <line x1="502" y1="305" x2="508" y2="305"/>
    <line x1="405" y1="2" x2="405" y2="8"/>
    <line x1="2" y1="405" x2="8" y2="405"/>
    <line x1="405" y1="502" x2="405" y2="508"/>
    <line x1="502" y1="405" x2="508" y2="405"/>
  </g>
  <g stroke="gray" stroke-width="1" stroke-dasharray="5,5">
    <line x1="105" y1="5" x2="105" y2="505"/>
    <line x1="5" y1="105" x2="505" y2="105"/>
    <line x1="205" y1="5" x2="205" y2="505"/>
    <line x1="5" y1="205" x2="505" y2="205"/>
    <line x1="305" y1="5" x2="305" y2="505"/>
    <line x1="5" y1="305" x2="505" y2="305"/>
    <line x1="405" y1="5" x2="405" y2="505"/>
    <line x1="5" y1="405" x2="505" y2="405"/>
  </g>
</svg>
