<?xml version="1.0" standalone="no"?>
<!DOCTYPE svg PUBLIC "-//W3C//DTD SVG 1.1//EN" 
  "http://www.w3.org/Graphics/SVG/1.1/DTD/svg11.dtd">
<svg width="556" height="556" version="1.1" id="toplevel"
    xmlns="http://www.w3.org/2000/svg"
    xmlns:xlink="http://www.w3.org/1999/xlink">
  <polygon points="203,77 221,77 211,86" fill="bisque"/>
  <polygon points="5,315 19,247 81,230 59,340" fill="bisque"/>
  <polygon points="221,77 256,106 59,340 5,315 203,77" fill="bisque"/>
  <polygon points="222,77 211,86 203,77" fill="bisque"/>
  <polygon points="5,315 19,247 260,437" fill="bisque"/>
  <polygon points="260,437 5,315 203,77 222,77 551,350 443,479" fill="bisque"/>
  <polygon points="5,315 19,247 81,230 135,289 71,347" fill="bisque"/>
  <polygon points="71,347 5,315 78,227" fill="bisque"/>
  <polygon points="19,247 260,437 5,315" fill="bisque"/>
  <polygon points="5,315 78,227 365,157 443,479 260,437" fill="bisque"/>
  <g stroke="chocolate" stroke-width="1">
    <line x1="260" y1="437" x2="5" y2="315"/>
    <circle cx="260" cy="437" r="2"/>
    <circle cx="5" cy="315" r="2"/>
  </g>
  <g stroke="chocolate" stroke-width="1">
    <line x1="443" y1="479" x2="260" y2="437"/>
    <circle cx="443" cy="479" r="2"/>
    <circle cx="260" cy="437" r="2"/>
  </g>
  <g stroke="chocolate" stroke-width="1">
    <line x1="365" y1="157" x2="443" y2="479"/>
    <circle cx="365" cy="157" r="2"/>
    <circle cx="443" cy="479" r="2"/>
  </g>
  <g stroke="chocolate" stroke-width="1">
    <line x1="78" y1="227" x2="365" y2="157"/>
    <circle cx="78" cy="227" r="2"/>
    <circle cx="365" cy="157" r="2"/>
  </g>
  <g stroke="chocolate" stroke-width="1">
    <line x1="5" y1="315" x2="78" y2="227"/>
    <circle cx="5" cy="315" r="2"/>
    <circle cx="78" cy="227" r="2"/>
  </g>
  <g stroke="chocolate" stroke-width="1">
    <line x1="5" y1="315" x2="19" y2="247"/>
    <circle cx="5" cy="315" r="2"/>
    <circle cx="19" cy="247" r="2"/>
  </g>
  <g stroke="chocolate" stroke-width="1">
    <line x1="260" y1="437" x2="5" y2="315"/>
    <circle cx="260" cy="437" r="2"/>
    <circle cx="5" cy="315" r="2"/>
  </g>
  <g stroke="chocolate" stroke-width="1">
    <line x1="19" y1="247" x2="260" y2="437"/>
    <circle cx="19" cy="247" r="2"/>
    <circle cx="260" cy="437" r="2"/>
  </g>
  <g stroke="chocolate" stroke-width="1">
    <line x1="78" y1="227" x2="71" y2="347"/>
    <circle cx="78" cy="227" r="2"/>
    <circle cx="71" cy="347" r="2"/>
  </g>
  <g stroke="chocolate" stroke-width="1">
    <line x1="5" y1="315" x2="78" y2="227"/>
    <circle cx="5" cy="315" r="2"/>
    <circle cx="78" cy="227" r="2"/>
  </g>
  <g stroke="chocolate" stroke-width="1">
    <line x1="71" y1="347" x2="5" y2="315"/>
    <circle cx="71" cy="347" r="2"/>
    <circle cx="5" cy="315" r="2"/>
  </g>
  <g stroke="chocolate" stroke-width="1">
    <line x1="71" y1="347" x2="5" y2="315"/>
    <circle cx="71" cy="347" r="2"/>
    <circle cx="5" cy="315" r="2"/>
  </g>
  <g stroke="chocolate" stroke-width="1">
    <line x1="135" y1="289" x2="71" y2="347"/>
    <circle cx="135" cy="289" r="2"/>
    <circle cx="71" cy="347" r="2"/>
  </g>
  <g stroke="chocolate" stroke-width="1">
    <line x1="81" y1="230" x2="135" y2="289"/>
    <circle cx="81" cy="230" r="2"/>
    <circle cx="135" cy="289" r="2"/>
  </g>
  <g stroke="chocolate" stroke-width="1">
    <line x1="19" y1="247" x2="81" y2="230"/>
    <circle cx="19" cy="247" r="2"/>
    <circle cx="81" cy="230" r="2"/>
  </g>
  <g stroke="chocolate" stroke-width="1">
    <line x1="5" y1="315" x2="19" y2="247"/>
    <circle cx="5" cy="315" r="2"/>
    <circle cx="19" cy="247" r="2"/>
  </g>
  <g stroke="chocolate" stroke-width="1">
    <line x1="443" y1="479" x2="260" y2="437"/>
    <circle cx="443" cy="479" r="2"/>
    <circle cx="260" cy="437" r="2"/>
  </g>
  <g stroke="chocolate" stroke-width="1">
    <line x1="551" y1="350" x2="443" y2="479"/>
    <circle cx="551" cy="350" r="2"/>
    <circle cx="443" cy="479" r="2"/>
  </g>
  <g stroke="chocolate" stroke-width="1">
    <line x1="222" y1="77" x2="551" y2="350"/>
    <circle cx="222" cy="77" r="2"/>
    <circle cx="551" cy="350" r="2"/>
  </g>
  <g stroke="chocolate" stroke-width="1">
    <line x1="203" y1="77" x2="222" y2="77"/>
    <circle cx="203" cy="77" r="2"/>
    <circle cx="222" cy="77" r="2"/>
  </g>
  <g stroke="chocolate" stroke-width="1">
    <line x1="5" y1="315" x2="203" y2="77"/>
    <circle cx="5" cy="315" r="2"/>
    <circle cx="203" cy="77" r="2"/>
  </g>
  <g stroke="chocolate" stroke-width="1">
    <line x1="260" y1="437" x2="5" y2="315"/>
    <circle cx="260" cy="437" r="2"/>
    <circle cx="5" cy="315" r="2"/>
  </g>
  <g stroke="chocolate" stroke-width="1">
    <line x1="260" y1="437" x2="5" y2="315"/>
    <circle cx="260" cy="437" r="2"/>
    <circle cx="5" cy="315" r="2"/>
  </g>
  <g stroke="chocolate" stroke-width="1">
    <line x1="19" y1="247" x2="260" y2="437"/>
    <circle cx="19" cy="247" r="2"/>
    <circle cx="260" cy="437" r="2"/>
  </g>
  <g stroke="chocolate" stroke-width="1">
    <line x1="5" y1="315" x2="19" y2="247"/>
    <circle cx="5" cy="315" r="2"/>
    <circle cx="19" cy="247" r="2"/>
  </g>
  <g stroke="chocolate" stroke-width="1">
    <line x1="203" y1="77" x2="222" y2="77"/>
    <circle cx="203" cy="77" r="2"/>
    <circle cx="222" cy="77" r="2"/>
  </g>
  <g stroke="chocolate" stroke-width="1">
    <line x1="211" y1="86" x2="203" y2="77"/>
    <circle cx="211" cy="86" r="2"/>
    <circle cx="203" cy="77" r="2"/>
  </g>
  <g stroke="chocolate" stroke-width="1">
    <line x1="222" y1="77" x2="211" y2="86"/>
    <circle cx="222" cy="77" r="2"/>
    <circle cx="211" cy="86" r="2"/>
  </g>
  <g stroke="chocolate" stroke-width="1">
    <line x1="203" y1="77" x2="221" y2="77"/>
    <circle cx="203" cy="77" r="2"/>
    <circle cx="221" cy="77" r="2"/>
  </g>
  <g stroke="chocolate" stroke-width="1">
    <line x1="5" y1="315" x2="203" y2="77"/>
    <circle cx="5" cy="315" r="2"/>
    <circle cx="203" cy="77" r="2"/>
  </g>
  <g stroke="chocolate" stroke-width="1">
    <line x1="59" y1="340" x2="5" y2="315"/>
    <circle cx="59" cy="340" r="2"/>
    <circle cx="5" cy="315" r="2"/>
  </g>
  <g stroke="chocolate" stroke-width="1">
    <line x1="256" y1="106" x2="59" y2="340"/>
    <circle cx="256" cy="106" r="2"/>
    <circle cx="59" cy="340" r="2"/>
  </g>
  <g stroke="chocolate" stroke-width="1">
    <line x1="221" y1="77" x2="256" y2="106"/>
    <circle cx="221" cy="77" r="2"/>
    <circle cx="256" cy="106" r="2"/>
  </g>
  <g stroke="chocolate" stroke-width="1">
    <line x1="59" y1="340" x2="5" y2="315"/>
    <circle cx="59" cy="340" r="2"/>
    <circle cx="5" cy="315" r="2"/>
  </g>
  <g stroke="chocolate" stroke-width="1">
    <line x1="81" y1="230" x2="59" y2="340"/>
    <circle cx="81" cy="230" r="2"/>
    <circle cx="59" cy="340" r="2"/>
  </g>
  <g stroke="chocolate" stroke-width="1">
    <line x1="19" y1="247" x2="81" y2="230"/>
    <circle cx="19" cy="247" r="2"/>
    <circle cx="81" cy="230" r="2"/>
  </g>
  <g stroke="chocolate" stroke-width="1">
    <line x1="5" y1="315" x2="19" y2="247"/>
    <circle cx="5" cy="315" r="2"/>
    <circle cx="19" cy="247" r="2"/>
  </g>
  <g stroke="chocolate" stroke-width="1">
    <line x1="211" y1="86" x2="203" y2="77"/>
    <circle cx="211" cy="86" r="2"/>
    <circle cx="203" cy="77" r="2"/>
  </g>
  <g stroke="chocolate" stroke-width="1">
    <line x1="221" y1="77" x2="211" y2="86"/>
    <circle cx="221" cy="77" r="2"/>
    <circle cx="211" cy="86" r="2"/>
  </g>
  <g stroke="chocolate" stroke-width="1">
    <line x1="203" y1="77" x2="221" y2="77"/>
    <circle cx="203" cy="77" r="2"/>
    <circle cx="221" cy="77" r="2"/>
  </g>
  <g stroke="black" stroke-width="1">
    <line x1="28" y1="28" x2="528" y2="28"/>
    <line x1="28" y1="28" x2="28" y2="528"/>
    <line x1="528" y1="528" x2="28" y2="528"/>
    <line x1="528" y1="528" x2="528" y2="28"/>
    <line x1="128" y1="25" x2="128" y2="31"/>
    <line x1="25" y1="128" x2="31" y2="128"/>
    <line x1="128" y1="525" x2="128" y2="531"/>
    <line x1="525" y1="128" x2="531" y2="128"/>
    <line x1="228" y1="25" x2="228" y2="31"/>
    <line x1="25" y1="228" x2="31" y2="228"/>
    <line x1="228" y1="525" x2="228" y2="531"/>
    <line x1="525" y1="228" x2="531" y2="228"/>
    <line x1="328" y1="25" x2="328" y2="31"/>
    <line x1="25" y1="328" x2="31" y2="328"/>
    <line x1="328" y1="525" x2="328" y2="531"/>
    <line x1="525" y1="328" x2="531" y2="328"/>
    <line x1="428" y1="25" x2="428" y2="31"/>
    <line x1="25" y1="428" x2="31" y2="428"/>
    <line x1="428" y1="525" x2="428" y2="531"/>
    <line x1="525" y1="428" x2="531" y2="428"/>
  </g>
  <g stroke="gray" stroke-width="1" stroke-dasharray="5,5">
    <line x1="128" y1="28" x2="128" y2="528"/>
    <line x1="28" y1="128" x2="528" y2="128"/>
    <line x1="228" y1="28" x2="228" y2="528"/>
    <line x1="28" y1="228" x2="528" y2="228"/>
    <line x1="328" y1="28" x2="328" y2="528"/>
    <line x1="28" y1="328" x2="528" y2="328"/>
    <line x1="428" y1="28" x2="428" y2="528"/>
    <line x1="28" y1="428" x2="528" y2="428"/>
  </g>
</svg>
