<?xml version="1.0" standalone="no"?>
<!DOCTYPE svg PUBLIC "-//W3C//DTD SVG 1.1//EN" 
  "http://www.w3.org/Graphics/SVG/1.1/DTD/svg11.dtd">
<svg width="510" height="510" version="1.1" id="toplevel"
    xmlns="http://www.w3.org/2000/svg"
    xmlns:xlink="http://www.w3.org/1999/xlink">
  <polygon points="305,391 443,201 324,309 329,288 264,120 264,119 263,120 190,284 194,306 131,242 114,242 81,292 120,253 209,388 258,369" 
           fill="bisque"/>
  <g stroke="chocolate" stroke-width="1">
    <line x1="312" y1="320" x2="312" y2="320"/>
    <circle cx="312" cy="320" r="2"/>
    <circle cx="312" cy="320" r="2"/>
  </g>
  <g stroke="chocolate" stroke-width="1">
    <line x1="314" y1="322" x2="312" y2="320"/>
    <circle cx="314" cy="322" r="2"/>
    <circle cx="312" cy="320" r="2"/>
  </g>
  <g stroke="chocolate" stroke-width="1">
    <line x1="312" y1="320" x2="324" y2="309"/>
    <circle cx="312" cy="320" r="2"/>
    <circle cx="324" cy="309" r="2"/>
  </g>
  <g stroke="chocolate" stroke-width="1">
    <line x1="292" y1="338" x2="312" y2="320"/>
    <circle cx="292" cy="338" r="2"/>
    <circle cx="312" cy="320" r="2"/>
  </g>
  <g stroke="chocolate" stroke-width="1">
    <line x1="206" y1="317" x2="206" y2="317"/>
    <circle cx="206" cy="317" r="2"/>
    <circle cx="206" cy="317" r="2"/>
  </g>
  <g stroke="chocolate" stroke-width="1">
    <line x1="204" y1="319" x2="206" y2="317"/>
    <circle cx="204" cy="319" r="2"/>
    <circle cx="206" cy="317" r="2"/>
  </g>
  <g stroke="chocolate" stroke-width="1">
    <line x1="206" y1="317" x2="194" y2="306"/>
    <circle cx="206" cy="317" r="2"/>
    <circle cx="194" cy="306" r="2"/>
  </g>
  <g stroke="chocolate" stroke-width="1">
    <line x1="224" y1="336" x2="206" y2="317"/>
    <circle cx="224" cy="336" r="2"/>
    <circle cx="206" cy="317" r="2"/>
  </g>
  <g stroke="chocolate" stroke-width="1">
    <line x1="292" y1="338" x2="312" y2="320"/>
    <circle cx="292" cy="338" r="2"/>
    <circle cx="312" cy="320" r="2"/>
  </g>
  <g stroke="chocolate" stroke-width="1">
    <line x1="274" y1="354" x2="292" y2="338"/>
    <circle cx="274" cy="354" r="2"/>
    <circle cx="292" cy="338" r="2"/>
  </g>
  <g stroke="chocolate" stroke-width="1">
    <line x1="292" y1="338" x2="292" y2="338"/>
    <circle cx="292" cy="338" r="2"/>
    <circle cx="292" cy="338" r="2"/>
  </g>
  <g stroke="chocolate" stroke-width="1">
    <line x1="262" y1="349" x2="292" y2="338"/>
    <circle cx="262" cy="349" r="2"/>
    <circle cx="292" cy="338" r="2"/>
  </g>
  <g stroke="chocolate" stroke-width="1">
    <line x1="225" y1="336" x2="224" y2="336"/>
    <circle cx="225" cy="336" r="2"/>
    <circle cx="224" cy="336" r="2"/>
  </g>
  <g stroke="chocolate" stroke-width="1">
    <line x1="254" y1="348" x2="225" y2="336"/>
    <circle cx="254" cy="348" r="2"/>
    <circle cx="225" cy="336" r="2"/>
  </g>
  <g stroke="chocolate" stroke-width="1">
    <line x1="225" y1="336" x2="206" y2="317"/>
    <circle cx="225" cy="336" r="2"/>
    <circle cx="206" cy="317" r="2"/>
  </g>
  <g stroke="chocolate" stroke-width="1">
    <line x1="242" y1="353" x2="225" y2="336"/>
    <circle cx="242" cy="353" r="2"/>
    <circle cx="225" cy="336" r="2"/>
  </g>
  <g stroke="chocolate" stroke-width="1">
    <line x1="241" y1="353" x2="224" y2="336"/>
    <circle cx="241" cy="353" r="2"/>
    <circle cx="224" cy="336" r="2"/>
  </g>
  <g stroke="chocolate" stroke-width="1">
    <line x1="253" y1="365" x2="241" y2="353"/>
    <circle cx="253" cy="365" r="2"/>
    <circle cx="241" cy="353" r="2"/>
  </g>
  <g stroke="chocolate" stroke-width="1">
    <line x1="241" y1="353" x2="242" y2="353"/>
    <circle cx="241" cy="353" r="2"/>
    <circle cx="242" cy="353" r="2"/>
  </g>
  <g stroke="chocolate" stroke-width="1">
    <line x1="238" y1="355" x2="241" y2="353"/>
    <circle cx="238" cy="355" r="2"/>
    <circle cx="241" cy="353" r="2"/>
  </g>
  <g stroke="chocolate" stroke-width="1">
    <line x1="120" y1="253" x2="130" y2="243"/>
    <circle cx="120" cy="253" r="2"/>
    <circle cx="130" cy="243" r="2"/>
  </g>
  <g stroke="chocolate" stroke-width="1">
    <line x1="81" y1="292" x2="120" y2="253"/>
    <circle cx="81" cy="292" r="2"/>
    <circle cx="120" cy="253" r="2"/>
  </g>
  <g stroke="chocolate" stroke-width="1">
    <line x1="120" y1="253" x2="120" y2="253"/>
    <circle cx="120" cy="253" r="2"/>
    <circle cx="120" cy="253" r="2"/>
  </g>
  <g stroke="chocolate" stroke-width="1">
    <line x1="209" y1="388" x2="120" y2="253"/>
    <circle cx="209" cy="388" r="2"/>
    <circle cx="120" cy="253" r="2"/>
  </g>
  <g stroke="chocolate" stroke-width="1">
    <line x1="312" y1="320" x2="324" y2="309"/>
    <circle cx="312" cy="320" r="2"/>
    <circle cx="324" cy="309" r="2"/>
  </g>
  <g stroke="chocolate" stroke-width="1">
    <line x1="312" y1="320" x2="303" y2="311"/>
    <circle cx="312" cy="320" r="2"/>
    <circle cx="303" cy="311" r="2"/>
  </g>
  <g stroke="chocolate" stroke-width="1">
    <line x1="194" y1="306" x2="131" y2="242"/>
    <circle cx="194" cy="306" r="2"/>
    <circle cx="131" cy="242" r="2"/>
  </g>
  <g stroke="chocolate" stroke-width="1">
    <line x1="206" y1="317" x2="194" y2="306"/>
    <circle cx="206" cy="317" r="2"/>
    <circle cx="194" cy="306" r="2"/>
  </g>
  <g stroke="chocolate" stroke-width="1">
    <line x1="194" y1="306" x2="190" y2="284"/>
    <circle cx="194" cy="306" r="2"/>
    <circle cx="190" cy="284" r="2"/>
  </g>
  <g stroke="chocolate" stroke-width="1">
    <line x1="194" y1="306" x2="194" y2="306"/>
    <circle cx="194" cy="306" r="2"/>
    <circle cx="194" cy="306" r="2"/>
  </g>
  <g stroke="chocolate" stroke-width="1">
    <line x1="252" y1="369" x2="238" y2="355"/>
    <circle cx="252" cy="369" r="2"/>
    <circle cx="238" cy="355" r="2"/>
  </g>
  <g stroke="chocolate" stroke-width="1">
    <line x1="253" y1="371" x2="252" y2="369"/>
    <circle cx="253" cy="371" r="2"/>
    <circle cx="252" cy="369" r="2"/>
  </g>
  <g stroke="chocolate" stroke-width="1">
    <line x1="252" y1="369" x2="206" y2="368"/>
    <circle cx="252" cy="369" r="2"/>
    <circle cx="206" cy="368" r="2"/>
  </g>
  <g stroke="chocolate" stroke-width="1">
    <line x1="253" y1="369" x2="252" y2="369"/>
    <circle cx="253" cy="369" r="2"/>
    <circle cx="252" cy="369" r="2"/>
  </g>
  <g stroke="chocolate" stroke-width="1">
    <line x1="257" y1="369" x2="257" y2="369"/>
    <circle cx="257" cy="369" r="2"/>
    <circle cx="257" cy="369" r="2"/>
  </g>
  <g stroke="chocolate" stroke-width="1">
    <line x1="258" y1="369" x2="257" y2="369"/>
    <circle cx="258" cy="369" r="2"/>
    <circle cx="257" cy="369" r="2"/>
  </g>
  <g stroke="chocolate" stroke-width="1">
    <line x1="257" y1="369" x2="257" y2="369"/>
    <circle cx="257" cy="369" r="2"/>
    <circle cx="257" cy="369" r="2"/>
  </g>
  <g stroke="chocolate" stroke-width="1">
    <line x1="257" y1="369" x2="257" y2="369"/>
    <circle cx="257" cy="369" r="2"/>
    <circle cx="257" cy="369" r="2"/>
  </g>
  <g stroke="chocolate" stroke-width="1">
    <line x1="324" y1="309" x2="443" y2="201"/>
    <circle cx="324" cy="309" r="2"/>
    <circle cx="443" cy="201" r="2"/>
  </g>
  <g stroke="chocolate" stroke-width="1">
    <line x1="324" y1="309" x2="324" y2="309"/>
    <circle cx="324" cy="309" r="2"/>
    <circle cx="324" cy="309" r="2"/>
  </g>
  <g stroke="chocolate" stroke-width="1">
    <line x1="323" y1="314" x2="324" y2="309"/>
    <circle cx="323" cy="314" r="2"/>
    <circle cx="324" cy="309" r="2"/>
  </g>
  <g stroke="chocolate" stroke-width="1">
    <line x1="198" y1="325" x2="204" y2="319"/>
    <circle cx="198" cy="325" r="2"/>
    <circle cx="204" cy="319" r="2"/>
  </g>
  <g stroke="chocolate" stroke-width="1">
    <line x1="204" y1="319" x2="195" y2="311"/>
    <circle cx="204" cy="319" r="2"/>
    <circle cx="195" cy="311" r="2"/>
  </g>
  <g stroke="chocolate" stroke-width="1">
    <line x1="217" y1="333" x2="204" y2="319"/>
    <circle cx="217" cy="333" r="2"/>
    <circle cx="204" cy="319" r="2"/>
  </g>
  <g stroke="chocolate" stroke-width="1">
    <line x1="224" y1="336" x2="217" y2="333"/>
    <circle cx="224" cy="336" r="2"/>
    <circle cx="217" cy="333" r="2"/>
  </g>
  <g stroke="chocolate" stroke-width="1">
    <line x1="262" y1="365" x2="274" y2="354"/>
    <circle cx="262" cy="365" r="2"/>
    <circle cx="274" cy="354" r="2"/>
  </g>
  <g stroke="chocolate" stroke-width="1">
    <line x1="274" y1="354" x2="262" y2="349"/>
    <circle cx="274" cy="354" r="2"/>
    <circle cx="262" cy="349" r="2"/>
  </g>
  <g stroke="chocolate" stroke-width="1">
    <line x1="274" y1="354" x2="274" y2="354"/>
    <circle cx="274" cy="354" r="2"/>
    <circle cx="274" cy="354" r="2"/>
  </g>
  <g stroke="chocolate" stroke-width="1">
    <line x1="278" y1="356" x2="300" y2="335"/>
    <circle cx="278" cy="356" r="2"/>
    <circle cx="300" cy="335" r="2"/>
  </g>
  <g stroke="chocolate" stroke-width="1">
    <line x1="263" y1="369" x2="278" y2="356"/>
    <circle cx="263" cy="369" r="2"/>
    <circle cx="278" cy="356" r="2"/>
  </g>
  <g stroke="chocolate" stroke-width="1">
    <line x1="278" y1="356" x2="274" y2="354"/>
    <circle cx="278" cy="356" r="2"/>
    <circle cx="274" cy="354" r="2"/>
  </g>
  <g stroke="chocolate" stroke-width="1">
    <line x1="309" y1="370" x2="278" y2="356"/>
    <circle cx="309" cy="370" r="2"/>
    <circle cx="278" cy="356" r="2"/>
  </g>
  <g stroke="chocolate" stroke-width="1">
    <line x1="263" y1="369" x2="262" y2="369"/>
    <circle cx="263" cy="369" r="2"/>
    <circle cx="262" cy="369" r="2"/>
  </g>
  <g stroke="chocolate" stroke-width="1">
    <line x1="309" y1="370" x2="263" y2="369"/>
    <circle cx="309" cy="370" r="2"/>
    <circle cx="263" cy="369" r="2"/>
  </g>
  <g stroke="chocolate" stroke-width="1">
    <line x1="262" y1="371" x2="263" y2="369"/>
    <circle cx="262" cy="371" r="2"/>
    <circle cx="263" cy="369" r="2"/>
  </g>
  <g stroke="chocolate" stroke-width="1">
    <line x1="274" y1="354" x2="292" y2="338"/>
    <circle cx="274" cy="354" r="2"/>
    <circle cx="292" cy="338" r="2"/>
  </g>
  <g stroke="chocolate" stroke-width="1">
    <line x1="292" y1="338" x2="300" y2="335"/>
    <circle cx="292" cy="338" r="2"/>
    <circle cx="300" cy="335" r="2"/>
  </g>
  <g stroke="chocolate" stroke-width="1">
    <line x1="206" y1="317" x2="215" y2="309"/>
    <circle cx="206" cy="317" r="2"/>
    <circle cx="215" cy="309" r="2"/>
  </g>
  <g stroke="chocolate" stroke-width="1">
    <line x1="238" y1="355" x2="217" y2="333"/>
    <circle cx="238" cy="355" r="2"/>
    <circle cx="217" cy="333" r="2"/>
  </g>
  <g stroke="chocolate" stroke-width="1">
    <line x1="206" y1="368" x2="238" y2="355"/>
    <circle cx="206" cy="368" r="2"/>
    <circle cx="238" cy="355" r="2"/>
  </g>
  <g stroke="chocolate" stroke-width="1">
    <line x1="130" y1="243" x2="131" y2="242"/>
    <circle cx="130" cy="243" r="2"/>
    <circle cx="131" cy="242" r="2"/>
  </g>
  <g stroke="chocolate" stroke-width="1">
    <line x1="130" y1="243" x2="130" y2="243"/>
    <circle cx="130" cy="243" r="2"/>
    <circle cx="130" cy="243" r="2"/>
  </g>
  <g stroke="chocolate" stroke-width="1">
    <line x1="195" y1="311" x2="130" y2="243"/>
    <circle cx="195" cy="311" r="2"/>
    <circle cx="130" cy="243" r="2"/>
  </g>
  <g stroke="chocolate" stroke-width="1">
    <line x1="120" y1="253" x2="130" y2="243"/>
    <circle cx="120" cy="253" r="2"/>
    <circle cx="130" cy="243" r="2"/>
  </g>
  <g stroke="chocolate" stroke-width="1">
    <line x1="81" y1="292" x2="120" y2="253"/>
    <circle cx="81" cy="292" r="2"/>
    <circle cx="120" cy="253" r="2"/>
  </g>
  <g stroke="chocolate" stroke-width="1">
    <line x1="120" y1="253" x2="120" y2="252"/>
    <circle cx="120" cy="253" r="2"/>
    <circle cx="120" cy="252" r="2"/>
  </g>
  <g stroke="chocolate" stroke-width="1">
    <line x1="314" y1="322" x2="323" y2="314"/>
    <circle cx="314" cy="322" r="2"/>
    <circle cx="323" cy="314" r="2"/>
  </g>
  <g stroke="chocolate" stroke-width="1">
    <line x1="300" y1="335" x2="314" y2="322"/>
    <circle cx="300" cy="335" r="2"/>
    <circle cx="314" cy="322" r="2"/>
  </g>
  <g stroke="chocolate" stroke-width="1">
    <line x1="319" y1="328" x2="314" y2="322"/>
    <circle cx="319" cy="328" r="2"/>
    <circle cx="314" cy="322" r="2"/>
  </g>
  <g stroke="chocolate" stroke-width="1">
    <line x1="194" y1="306" x2="131" y2="242"/>
    <circle cx="194" cy="306" r="2"/>
    <circle cx="131" cy="242" r="2"/>
  </g>
  <g stroke="chocolate" stroke-width="1">
    <line x1="195" y1="311" x2="194" y2="306"/>
    <circle cx="195" cy="311" r="2"/>
    <circle cx="194" cy="306" r="2"/>
  </g>
  <g stroke="chocolate" stroke-width="1">
    <line x1="257" y1="369" x2="253" y2="369"/>
    <circle cx="257" cy="369" r="2"/>
    <circle cx="253" cy="369" r="2"/>
  </g>
  <g stroke="chocolate" stroke-width="1">
    <line x1="257" y1="369" x2="253" y2="365"/>
    <circle cx="257" cy="369" r="2"/>
    <circle cx="253" cy="365" r="2"/>
  </g>
  <g stroke="chocolate" stroke-width="1">
    <line x1="257" y1="369" x2="257" y2="369"/>
    <circle cx="257" cy="369" r="2"/>
    <circle cx="257" cy="369" r="2"/>
  </g>
  <g stroke="chocolate" stroke-width="1">
    <line x1="253" y1="365" x2="242" y2="353"/>
    <circle cx="253" cy="365" r="2"/>
    <circle cx="242" cy="353" r="2"/>
  </g>
  <g stroke="chocolate" stroke-width="1">
    <line x1="257" y1="369" x2="253" y2="365"/>
    <circle cx="257" cy="369" r="2"/>
    <circle cx="253" cy="365" r="2"/>
  </g>
  <g stroke="chocolate" stroke-width="1">
    <line x1="253" y1="365" x2="254" y2="348"/>
    <circle cx="253" cy="365" r="2"/>
    <circle cx="254" cy="348" r="2"/>
  </g>
  <g stroke="chocolate" stroke-width="1">
    <line x1="253" y1="365" x2="253" y2="365"/>
    <circle cx="253" cy="365" r="2"/>
    <circle cx="253" cy="365" r="2"/>
  </g>
  <g stroke="chocolate" stroke-width="1">
    <line x1="253" y1="369" x2="253" y2="365"/>
    <circle cx="253" cy="369" r="2"/>
    <circle cx="253" cy="365" r="2"/>
  </g>
  <g stroke="chocolate" stroke-width="1">
    <line x1="253" y1="371" x2="253" y2="369"/>
    <circle cx="253" cy="371" r="2"/>
    <circle cx="253" cy="369" r="2"/>
  </g>
  <g stroke="chocolate" stroke-width="1">
    <line x1="258" y1="369" x2="257" y2="369"/>
    <circle cx="258" cy="369" r="2"/>
    <circle cx="257" cy="369" r="2"/>
  </g>
  <g stroke="chocolate" stroke-width="1">
    <line x1="257" y1="369" x2="260" y2="266"/>
    <circle cx="257" cy="369" r="2"/>
    <circle cx="260" cy="266" r="2"/>
  </g>
  <g stroke="chocolate" stroke-width="1">
    <line x1="260" y1="266" x2="260" y2="266"/>
    <circle cx="260" cy="266" r="2"/>
    <circle cx="260" cy="266" r="2"/>
  </g>
  <g stroke="chocolate" stroke-width="1">
    <line x1="303" y1="311" x2="260" y2="266"/>
    <circle cx="303" cy="311" r="2"/>
    <circle cx="260" cy="266" r="2"/>
  </g>
  <g stroke="chocolate" stroke-width="1">
    <line x1="260" y1="266" x2="264" y2="120"/>
    <circle cx="260" cy="266" r="2"/>
    <circle cx="264" cy="120" r="2"/>
  </g>
  <g stroke="chocolate" stroke-width="1">
    <line x1="258" y1="369" x2="260" y2="266"/>
    <circle cx="258" cy="369" r="2"/>
    <circle cx="260" cy="266" r="2"/>
  </g>
  <g stroke="chocolate" stroke-width="1">
    <line x1="258" y1="369" x2="258" y2="369"/>
    <circle cx="258" cy="369" r="2"/>
    <circle cx="258" cy="369" r="2"/>
  </g>
  <g stroke="chocolate" stroke-width="1">
    <line x1="258" y1="369" x2="258" y2="369"/>
    <circle cx="258" cy="369" r="2"/>
    <circle cx="258" cy="369" r="2"/>
  </g>
  <g stroke="chocolate" stroke-width="1">
    <line x1="258" y1="369" x2="258" y2="369"/>
    <circle cx="258" cy="369" r="2"/>
    <circle cx="258" cy="369" r="2"/>
  </g>
  <g stroke="chocolate" stroke-width="1">
    <line x1="262" y1="369" x2="258" y2="369"/>
    <circle cx="262" cy="369" r="2"/>
    <circle cx="258" cy="369" r="2"/>
  </g>
  <g stroke="chocolate" stroke-width="1">
    <line x1="258" y1="369" x2="262" y2="366"/>
    <circle cx="258" cy="369" r="2"/>
    <circle cx="262" cy="366" r="2"/>
  </g>
  <g stroke="chocolate" stroke-width="1">
    <line x1="258" y1="369" x2="258" y2="369"/>
    <circle cx="258" cy="369" r="2"/>
    <circle cx="258" cy="369" r="2"/>
  </g>
  <g stroke="chocolate" stroke-width="1">
    <line x1="258" y1="369" x2="262" y2="365"/>
    <circle cx="258" cy="369" r="2"/>
    <circle cx="262" cy="365" r="2"/>
  </g>
  <g stroke="chocolate" stroke-width="1">
    <line x1="262" y1="365" x2="262" y2="349"/>
    <circle cx="262" cy="365" r="2"/>
    <circle cx="262" cy="349" r="2"/>
  </g>
  <g stroke="chocolate" stroke-width="1">
    <line x1="262" y1="366" x2="262" y2="365"/>
    <circle cx="262" cy="366" r="2"/>
    <circle cx="262" cy="365" r="2"/>
  </g>
  <g stroke="chocolate" stroke-width="1">
    <line x1="324" y1="309" x2="443" y2="201"/>
    <circle cx="324" cy="309" r="2"/>
    <circle cx="443" cy="201" r="2"/>
  </g>
  <g stroke="chocolate" stroke-width="1">
    <line x1="324" y1="309" x2="329" y2="288"/>
    <circle cx="324" cy="309" r="2"/>
    <circle cx="329" cy="288" r="2"/>
  </g>
  <g stroke="chocolate" stroke-width="1">
    <line x1="217" y1="333" x2="198" y2="325"/>
    <circle cx="217" cy="333" r="2"/>
    <circle cx="198" cy="325" r="2"/>
  </g>
  <g stroke="chocolate" stroke-width="1">
    <line x1="262" y1="366" x2="274" y2="354"/>
    <circle cx="262" cy="366" r="2"/>
    <circle cx="274" cy="354" r="2"/>
  </g>
  <g stroke="chocolate" stroke-width="1">
    <line x1="262" y1="369" x2="262" y2="366"/>
    <circle cx="262" cy="369" r="2"/>
    <circle cx="262" cy="366" r="2"/>
  </g>
  <g stroke="chocolate" stroke-width="1">
    <line x1="262" y1="371" x2="262" y2="369"/>
    <circle cx="262" cy="371" r="2"/>
    <circle cx="262" cy="369" r="2"/>
  </g>
  <g stroke="chocolate" stroke-width="1">
    <line x1="215" y1="309" x2="260" y2="266"/>
    <circle cx="215" cy="309" r="2"/>
    <circle cx="260" cy="266" r="2"/>
  </g>
  <g stroke="chocolate" stroke-width="1">
    <line x1="215" y1="309" x2="190" y2="284"/>
    <circle cx="215" cy="309" r="2"/>
    <circle cx="190" cy="284" r="2"/>
  </g>
  <g stroke="chocolate" stroke-width="1">
    <line x1="254" y1="348" x2="215" y2="309"/>
    <circle cx="254" cy="348" r="2"/>
    <circle cx="215" cy="309" r="2"/>
  </g>
  <g stroke="chocolate" stroke-width="1">
    <line x1="300" y1="335" x2="319" y2="328"/>
    <circle cx="300" cy="335" r="2"/>
    <circle cx="319" cy="328" r="2"/>
  </g>
  <g stroke="chocolate" stroke-width="1">
    <line x1="242" y1="353" x2="254" y2="348"/>
    <circle cx="242" cy="353" r="2"/>
    <circle cx="254" cy="348" r="2"/>
  </g>
  <g stroke="chocolate" stroke-width="1">
    <line x1="131" y1="242" x2="131" y2="242"/>
    <circle cx="131" cy="242" r="2"/>
    <circle cx="131" cy="242" r="2"/>
  </g>
  <g stroke="chocolate" stroke-width="1">
    <line x1="131" y1="242" x2="131" y2="242"/>
    <circle cx="131" cy="242" r="2"/>
    <circle cx="131" cy="242" r="2"/>
  </g>
  <g stroke="chocolate" stroke-width="1">
    <line x1="130" y1="243" x2="129" y2="242"/>
    <circle cx="130" cy="243" r="2"/>
    <circle cx="129" cy="242" r="2"/>
  </g>
  <g stroke="chocolate" stroke-width="1">
    <line x1="130" y1="243" x2="131" y2="242"/>
    <circle cx="130" cy="243" r="2"/>
    <circle cx="131" cy="242" r="2"/>
  </g>
  <g stroke="chocolate" stroke-width="1">
    <line x1="120" y1="252" x2="114" y2="242"/>
    <circle cx="120" cy="252" r="2"/>
    <circle cx="114" cy="242" r="2"/>
  </g>
  <g stroke="chocolate" stroke-width="1">
    <line x1="120" y1="252" x2="129" y2="242"/>
    <circle cx="120" cy="252" r="2"/>
    <circle cx="129" cy="242" r="2"/>
  </g>
  <g stroke="chocolate" stroke-width="1">
    <line x1="81" y1="292" x2="120" y2="252"/>
    <circle cx="81" cy="292" r="2"/>
    <circle cx="120" cy="252" r="2"/>
  </g>
  <g stroke="chocolate" stroke-width="1">
    <line x1="303" y1="311" x2="329" y2="288"/>
    <circle cx="303" cy="311" r="2"/>
    <circle cx="329" cy="288" r="2"/>
  </g>
  <g stroke="chocolate" stroke-width="1">
    <line x1="262" y1="349" x2="303" y2="311"/>
    <circle cx="262" cy="349" r="2"/>
    <circle cx="303" cy="311" r="2"/>
  </g>
  <g stroke="chocolate" stroke-width="1">
    <line x1="209" y1="388" x2="195" y2="311"/>
    <circle cx="209" cy="388" r="2"/>
    <circle cx="195" cy="311" r="2"/>
  </g>
  <g stroke="chocolate" stroke-width="1">
    <line x1="260" y1="266" x2="260" y2="266"/>
    <circle cx="260" cy="266" r="2"/>
    <circle cx="260" cy="266" r="2"/>
  </g>
  <g stroke="chocolate" stroke-width="1">
    <line x1="260" y1="266" x2="263" y2="120"/>
    <circle cx="260" cy="266" r="2"/>
    <circle cx="263" cy="120" r="2"/>
  </g>
  <g stroke="chocolate" stroke-width="1">
    <line x1="258" y1="369" x2="258" y2="369"/>
    <circle cx="258" cy="369" r="2"/>
    <circle cx="258" cy="369" r="2"/>
  </g>
  <g stroke="chocolate" stroke-width="1">
    <line x1="323" y1="314" x2="443" y2="201"/>
    <circle cx="323" cy="314" r="2"/>
    <circle cx="443" cy="201" r="2"/>
  </g>
  <g stroke="chocolate" stroke-width="1">
    <line x1="305" y1="391" x2="323" y2="314"/>
    <circle cx="305" cy="391" r="2"/>
    <circle cx="323" cy="314" r="2"/>
  </g>
  <g stroke="chocolate" stroke-width="1">
    <line x1="114" y1="242" x2="131" y2="242"/>
    <circle cx="114" cy="242" r="2"/>
    <circle cx="131" cy="242" r="2"/>
  </g>
  <g stroke="chocolate" stroke-width="1">
    <line x1="264" y1="120" x2="264" y2="119"/>
    <circle cx="264" cy="120" r="2"/>
    <circle cx="264" cy="119" r="2"/>
  </g>
  <g stroke="chocolate" stroke-width="1">
    <line x1="305" y1="391" x2="258" y2="369"/>
    <circle cx="305" cy="391" r="2"/>
    <circle cx="258" cy="369" r="2"/>
  </g>
  <g stroke="chocolate" stroke-width="1">
    <line x1="209" y1="388" x2="258" y2="369"/>
    <circle cx="209" cy="388" r="2"/>
    <circle cx="258" cy="369" r="2"/>
  </g>
  <g stroke="chocolate" stroke-width="1">
    <line x1="263" y1="120" x2="264" y2="119"/>
    <circle cx="263" cy="120" r="2"/>
    <circle cx="264" cy="119" r="2"/>
  </g>
  <g stroke="chocolate" stroke-width="1">
    <line x1="329" y1="288" x2="264" y2="120"/>
    <circle cx="329" cy="288" r="2"/>
    <circle cx="264" cy="120" r="2"/>
  </g>
  <g stroke="chocolate" stroke-width="1">
    <line x1="81" y1="292" x2="114" y2="242"/>
    <circle cx="81" cy="292" r="2"/>
    <circle cx="114" cy="242" r="2"/>
  </g>
  <g stroke="chocolate" stroke-width="1">
    <line x1="190" y1="284" x2="263" y2="120"/>
    <circle cx="190" cy="284" r="2"/>
    <circle cx="263" cy="120" r="2"/>
  </g>
  <g stroke="chocolate" stroke-width="1">
    <line x1="258" y1="369" x2="260" y2="266"/>
    <circle cx="258" cy="369" r="2"/>
    <circle cx="260" cy="266" r="2"/>
  </g>
  <g stroke="chocolate" stroke-width="1">
    <line x1="305" y1="391" x2="443" y2="201"/>
    <circle cx="305" cy="391" r="2"/>
    <circle cx="443" cy="201" r="2"/>
  </g>
  <g stroke="black" stroke-width="1">
    <line x1="5" y1="5" x2="505" y2="5"/>
    <line x1="5" y1="5" x2="5" y2="505"/>
    <line x1="505" y1="505" x2="5" y2="505"/>
    <line x1="505" y1="505" x2="505" y2="5"/>
    <line x1="105" y1="2" x2="105" y2="8"/>
    <line x1="2" y1="105" x2="8" y2="105"/>
    <line x1="105" y1="502" x2="105" y2="508"/>
    <line x1="502" y1="105" x2="508" y2="105"/>
    <line x1="205" y1="2" x2="205" y2="8"/>
    <line x1="2" y1="205" x2="8" y2="205"/>
    <line x1="205" y1="502" x2="205" y2="508"/>
    <line x1="502" y1="205" x2="508" y2="205"/>
    <line x1="305" y1="2" x2="305" y2="8"/>
    <line x1="2" y1="305" x2="8" y2="305"/>
    <line x1="305" y1="502" x2="305" y2="508"/>
    <line x1="502" y1="305" x2="508" y2="305"/>
    <line x1="405" y1="2" x2="405" y2="8"/>
    <line x1="2" y1="405" x2="8" y2="405"/>
    <line x1="405" y1="502" x2="405" y2="508"/>
    <line x1="502" y1="405" x2="508" y2="405"/>
  </g>
  <g stroke="gray" stroke-width="1" stroke-dasharray="5,5">
    <line x1="105" y1="5" x2="105" y2="505"/>
    <line x1="5" y1="105" x2="505" y2="105"/>
    <line x1="205" y1="5" x2="205" y2="505"/>
    <line x1="5" y1="205" x2="505" y2="205"/>
    <line x1="305" y1="5" x2="305" y2="505"/>
    <line x1="5" y1="305" x2="505" y2="305"/>
    <line x1="405" y1="5" x2="405" y2="505"/>
    <line x1="5" y1="405" x2="505" y2="405"/>
  </g>
</svg>
