<?xml version="1.0" standalone="no"?>
<!DOCTYPE svg PUBLIC "-//W3C//DTD SVG 1.1//EN" 
  "http://www.w3.org/Graphics/SVG/1.1/DTD/svg11.dtd">
<svg width="510" height="510" version="1.1" id="toplevel"
    xmlns="http://www.w3.org/2000/svg"
    xmlns:xlink="http://www.w3.org/1999/xlink">
  <polygon points="326,397 384,388 376,330 309,280 292,163 242,230 226,113 126,247"
           fill="bisque"/>
  <g stroke="chocolate" stroke-width="1">
    <line x1="251" y1="288" x2="218" y2="263"/>
    <circle cx="251" cy="288" r="2"/>
    <circle cx="218" cy="263" r="2"/>
  </g>
  <g stroke="chocolate" stroke-width="1">
    <line x1="318" y1="338" x2="251" y2="288"/>
    <circle cx="318" cy="338" r="2"/>
    <circle cx="251" cy="288" r="2"/>
  </g>
  <g stroke="chocolate" stroke-width="1">
    <line x1="251" y1="288" x2="242" y2="230"/>
    <circle cx="251" cy="288" r="2"/>
    <circle cx="242" cy="230" r="2"/>
  </g>
  <g stroke="chocolate" stroke-width="1">
    <line x1="259" y1="347" x2="251" y2="288"/>
    <circle cx="259" cy="347" r="2"/>
    <circle cx="251" cy="288" r="2"/>
  </g>
  <g stroke="chocolate" stroke-width="1">
    <line x1="309" y1="280" x2="292" y2="163"/>
    <circle cx="309" cy="280" r="2"/>
    <circle cx="292" cy="163" r="2"/>
  </g>
  <g stroke="chocolate" stroke-width="1">
    <line x1="318" y1="338" x2="309" y2="280"/>
    <circle cx="318" cy="338" r="2"/>
    <circle cx="309" cy="280" r="2"/>
  </g>
  <g stroke="chocolate" stroke-width="1">
    <line x1="309" y1="280" x2="176" y2="180"/>
    <circle cx="309" cy="280" r="2"/>
    <circle cx="176" cy="180" r="2"/>
  </g>
  <g stroke="chocolate" stroke-width="1">
    <line x1="376" y1="330" x2="309" y2="280"/>
    <circle cx="376" cy="330" r="2"/>
    <circle cx="309" cy="280" r="2"/>
  </g>
  <g stroke="chocolate" stroke-width="1">
    <line x1="218" y1="263" x2="242" y2="230"/>
    <circle cx="218" cy="263" r="2"/>
    <circle cx="242" cy="230" r="2"/>
  </g>
  <g stroke="chocolate" stroke-width="1">
    <line x1="192" y1="297" x2="218" y2="263"/>
    <circle cx="192" cy="297" r="2"/>
    <circle cx="218" cy="263" r="2"/>
  </g>
  <g stroke="chocolate" stroke-width="1">
    <line x1="218" y1="263" x2="151" y2="213"/>
    <circle cx="218" cy="263" r="2"/>
    <circle cx="151" cy="213" r="2"/>
  </g>
  <g stroke="chocolate" stroke-width="1">
    <line x1="318" y1="338" x2="376" y2="330"/>
    <circle cx="318" cy="338" r="2"/>
    <circle cx="376" cy="330" r="2"/>
  </g>
  <g stroke="chocolate" stroke-width="1">
    <line x1="259" y1="347" x2="318" y2="338"/>
    <circle cx="259" cy="347" r="2"/>
    <circle cx="318" cy="338" r="2"/>
  </g>
  <g stroke="chocolate" stroke-width="1">
    <line x1="326" y1="397" x2="318" y2="338"/>
    <circle cx="326" cy="397" r="2"/>
    <circle cx="318" cy="338" r="2"/>
  </g>
  <g stroke="chocolate" stroke-width="1">
    <line x1="242" y1="230" x2="226" y2="113"/>
    <circle cx="242" cy="230" r="2"/>
    <circle cx="226" cy="113" r="2"/>
  </g>
  <g stroke="chocolate" stroke-width="1">
    <line x1="242" y1="230" x2="292" y2="163"/>
    <circle cx="242" cy="230" r="2"/>
    <circle cx="292" cy="163" r="2"/>
  </g>
  <g stroke="chocolate" stroke-width="1">
    <line x1="326" y1="397" x2="126" y2="247"/>
    <circle cx="326" cy="397" r="2"/>
    <circle cx="126" cy="247" r="2"/>
  </g>
  <g stroke="chocolate" stroke-width="1">
    <line x1="326" y1="397" x2="384" y2="388"/>
    <circle cx="326" cy="397" r="2"/>
    <circle cx="384" cy="388" r="2"/>
  </g>
  <g stroke="chocolate" stroke-width="1">
    <line x1="384" y1="388" x2="376" y2="330"/>
    <circle cx="384" cy="388" r="2"/>
    <circle cx="376" cy="330" r="2"/>
  </g>
  <g stroke="chocolate" stroke-width="1">
    <line x1="126" y1="247" x2="226" y2="113"/>
    <circle cx="126" cy="247" r="2"/>
    <circle cx="226" cy="113" r="2"/>
  </g>
  <g stroke="black" stroke-width="1">
    <line x1="5" y1="5" x2="505" y2="5"/>
    <line x1="5" y1="5" x2="5" y2="505"/>
    <line x1="505" y1="505" x2="5" y2="505"/>
    <line x1="505" y1="505" x2="505" y2="5"/>
    <line x1="105" y1="2" x2="105" y2="8"/>
    <line x1="2" y1="105" x2="8" y2="105"/>
    <line x1="105" y1="502" x2="105" y2="508"/>
    <line x1="502" y1="105" x2="508" y2="105"/>
    <line x1="205" y1="2" x2="205" y2="8"/>
    <line x1="2" y1="205" x2="8" y2="205"/>
    <line x1="205" y1="502" x2="205" y2="508"/>
    <line x1="502" y1="205" x2="508" y2="205"/>
    <line x1="305" y1="2" x2="305" y2="8"/>
    <line x1="2" y1="305" x2="8" y2="305"/>
    <line x1="305" y1="502" x2="305" y2="508"/>
    <line x1="502" y1="305" x2="508" y2="305"/>
    <line x1="405" y1="2" x2="405" y2="8"/>
    <line x1="2" y1="405" x2="8" y2="405"/>
    <line x1="405" y1="502" x2="405" y2="508"/>
    <line x1="502" y1="405" x2="508" y2="405"/>
  </g>
  <g stroke="gray" stroke-width="1" stroke-dasharray="5,5">
    <line x1="105" y1="5" x2="105" y2="505"/>
    <line x1="5" y1="105" x2="505" y2="105"/>
    <line x1="205" y1="5" x2="205" y2="505"/>
    <line x1="5" y1="205" x2="505" y2="205"/>
    <line x1="305" y1="5" x2="305" y2="505"/>
    <line x1="5" y1="305" x2="505" y2="305"/>
    <line x1="405" y1="5" x2="405" y2="505"/>
    <line x1="5" y1="405" x2="505" y2="405"/>
  </g>
</svg>
