<?xml version="1.0" standalone="no"?>
<!DOCTYPE svg PUBLIC "-//W3C//DTD SVG 1.1//EN" 
  "http://www.w3.org/Graphics/SVG/1.1/DTD/svg11.dtd">
<svg width="510" height="510" version="1.1" id="toplevel"
    xmlns="http://www.w3.org/2000/svg"
    xmlns:xlink="http://www.w3.org/1999/xlink">
  <polygon points="388,505 505,505 505,255 388,138 388,122 372,122 255,5 71,189"
           fill="bisque"/>
  <g stroke="chocolate" stroke-width="1">
    <line x1="388" y1="138" x2="372" y2="122"/>
    <circle cx="388" cy="138" r="2"/>
    <circle cx="372" cy="122" r="2"/>
  </g>
  <g stroke="chocolate" stroke-width="1">
    <line x1="505" y1="255" x2="388" y2="138"/>
    <circle cx="505" cy="255" r="2"/>
    <circle cx="388" cy="138" r="2"/>
  </g>
  <g stroke="chocolate" stroke-width="1">
    <line x1="388" y1="138" x2="388" y2="122"/>
    <circle cx="388" cy="138" r="2"/>
    <circle cx="388" cy="122" r="2"/>
  </g>
  <g stroke="chocolate" stroke-width="1">
    <line x1="388" y1="255" x2="388" y2="138"/>
    <circle cx="388" cy="255" r="2"/>
    <circle cx="388" cy="138" r="2"/>
  </g>
  <g stroke="chocolate" stroke-width="1">
    <line x1="372" y1="122" x2="388" y2="122"/>
    <circle cx="372" cy="122" r="2"/>
    <circle cx="388" cy="122" r="2"/>
  </g>
  <g stroke="chocolate" stroke-width="1">
    <line x1="255" y1="122" x2="372" y2="122"/>
    <circle cx="255" cy="122" r="2"/>
    <circle cx="372" cy="122" r="2"/>
  </g>
  <g stroke="chocolate" stroke-width="1">
    <line x1="372" y1="122" x2="255" y2="5"/>
    <circle cx="372" cy="122" r="2"/>
    <circle cx="255" cy="5" r="2"/>
  </g>
  <g stroke="chocolate" stroke-width="1">
    <line x1="388" y1="255" x2="505" y2="255"/>
    <circle cx="388" cy="255" r="2"/>
    <circle cx="505" cy="255" r="2"/>
  </g>
  <g stroke="chocolate" stroke-width="1">
    <line x1="138" y1="255" x2="388" y2="255"/>
    <circle cx="138" cy="255" r="2"/>
    <circle cx="388" cy="255" r="2"/>
  </g>
  <g stroke="chocolate" stroke-width="1">
    <line x1="388" y1="505" x2="388" y2="255"/>
    <circle cx="388" cy="505" r="2"/>
    <circle cx="388" cy="255" r="2"/>
  </g>
  <g stroke="chocolate" stroke-width="1">
    <line x1="138" y1="122" x2="255" y2="122"/>
    <circle cx="138" cy="122" r="2"/>
    <circle cx="255" cy="122" r="2"/>
  </g>
  <g stroke="chocolate" stroke-width="1">
    <line x1="255" y1="122" x2="255" y2="5"/>
    <circle cx="255" cy="122" r="2"/>
    <circle cx="255" cy="5" r="2"/>
  </g>
  <g stroke="chocolate" stroke-width="1">
    <line x1="255" y1="255" x2="255" y2="122"/>
    <circle cx="255" cy="255" r="2"/>
    <circle cx="255" cy="122" r="2"/>
  </g>
  <g stroke="chocolate" stroke-width="1">
    <line x1="388" y1="505" x2="71" y2="189"/>
    <circle cx="388" cy="505" r="2"/>
    <circle cx="71" cy="189" r="2"/>
  </g>
  <g stroke="chocolate" stroke-width="1">
    <line x1="71" y1="189" x2="255" y2="5"/>
    <circle cx="71" cy="189" r="2"/>
    <circle cx="255" cy="5" r="2"/>
  </g>
  <g stroke="chocolate" stroke-width="1">
    <line x1="505" y1="505" x2="505" y2="255"/>
    <circle cx="505" cy="505" r="2"/>
    <circle cx="505" cy="255" r="2"/>
  </g>
  <g stroke="chocolate" stroke-width="1">
    <line x1="138" y1="255" x2="138" y2="122"/>
    <circle cx="138" cy="255" r="2"/>
    <circle cx="138" cy="122" r="2"/>
  </g>
  <g stroke="chocolate" stroke-width="1">
    <line x1="388" y1="505" x2="505" y2="505"/>
    <circle cx="388" cy="505" r="2"/>
    <circle cx="505" cy="505" r="2"/>
  </g>
  <g stroke="black" stroke-width="1">
    <line x1="5" y1="5" x2="505" y2="5"/>
    <line x1="5" y1="5" x2="5" y2="505"/>
    <line x1="505" y1="505" x2="5" y2="505"/>
    <line x1="505" y1="505" x2="505" y2="5"/>
    <line x1="105" y1="2" x2="105" y2="8"/>
    <line x1="2" y1="105" x2="8" y2="105"/>
    <line x1="105" y1="502" x2="105" y2="508"/>
    <line x1="502" y1="105" x2="508" y2="105"/>
    <line x1="205" y1="2" x2="205" y2="8"/>
    <line x1="2" y1="205" x2="8" y2="205"/>
    <line x1="205" y1="502" x2="205" y2="508"/>
    <line x1="502" y1="205" x2="508" y2="205"/>
    <line x1="305" y1="2" x2="305" y2="8"/>
    <line x1="2" y1="305" x2="8" y2="305"/>
    <line x1="305" y1="502" x2="305" y2="508"/>
    <line x1="502" y1="305" x2="508" y2="305"/>
    <line x1="405" y1="2" x2="405" y2="8"/>
    <line x1="2" y1="405" x2="8" y2="405"/>
    <line x1="405" y1="502" x2="405" y2="508"/>
    <line x1="502" y1="405" x2="508" y2="405"/>
  </g>
  <g stroke="gray" stroke-width="1" stroke-dasharray="5,5">
    <line x1="105" y1="5" x2="105" y2="505"/>
    <line x1="5" y1="105" x2="505" y2="105"/>
    <line x1="205" y1="5" x2="205" y2="505"/>
    <line x1="5" y1="205" x2="505" y2="205"/>
    <line x1="305" y1="5" x2="305" y2="505"/>
    <line x1="5" y1="305" x2="505" y2="305"/>
    <line x1="405" y1="5" x2="405" y2="505"/>
    <line x1="5" y1="405" x2="505" y2="405"/>
  </g>
</svg>
