<?xml version="1.0" standalone="no"?>
<!DOCTYPE svg PUBLIC "-//W3C//DTD SVG 1.1//EN" 
  "http://www.w3.org/Graphics/SVG/1.1/DTD/svg11.dtd">
<svg width="510" height="510" version="1.1" id="toplevel"
    xmlns="http://www.w3.org/2000/svg"
    xmlns:xlink="http://www.w3.org/1999/xlink">
  <polygon points="122,505 155,505 155,438 188,438 188,305 205,305 205,288 105,188 38,255 38,272 22,272 5,288 55,338 72,338 72,455"
           fill="bisque"/>
  <g stroke="chocolate" stroke-width="1">
    <line x1="122" y1="305" x2="138" y2="305"/>
    <circle cx="122" cy="305" r="2"/>
    <circle cx="138" cy="305" r="2"/>
  </g>
  <g stroke="chocolate" stroke-width="1">
    <line x1="88" y1="305" x2="122" y2="305"/>
    <circle cx="88" cy="305" r="2"/>
    <circle cx="122" cy="305" r="2"/>
  </g>
  <g stroke="chocolate" stroke-width="1">
    <line x1="122" y1="305" x2="122" y2="272"/>
    <circle cx="122" cy="305" r="2"/>
    <circle cx="122" cy="272" r="2"/>
  </g>
  <g stroke="chocolate" stroke-width="1">
    <line x1="122" y1="338" x2="122" y2="305"/>
    <circle cx="122" cy="338" r="2"/>
    <circle cx="122" cy="305" r="2"/>
  </g>
  <g stroke="chocolate" stroke-width="1">
    <line x1="138" y1="338" x2="138" y2="305"/>
    <circle cx="138" cy="338" r="2"/>
    <circle cx="138" cy="305" r="2"/>
  </g>
  <g stroke="chocolate" stroke-width="1">
    <line x1="138" y1="355" x2="138" y2="338"/>
    <circle cx="138" cy="355" r="2"/>
    <circle cx="138" cy="338" r="2"/>
  </g>
  <g stroke="chocolate" stroke-width="1">
    <line x1="138" y1="338" x2="172" y2="338"/>
    <circle cx="138" cy="338" r="2"/>
    <circle cx="172" cy="338" r="2"/>
  </g>
  <g stroke="chocolate" stroke-width="1">
    <line x1="122" y1="338" x2="138" y2="338"/>
    <circle cx="122" cy="338" r="2"/>
    <circle cx="138" cy="338" r="2"/>
  </g>
  <g stroke="chocolate" stroke-width="1">
    <line x1="172" y1="305" x2="188" y2="305"/>
    <circle cx="172" cy="305" r="2"/>
    <circle cx="188" cy="305" r="2"/>
  </g>
  <g stroke="chocolate" stroke-width="1">
    <line x1="155" y1="305" x2="172" y2="305"/>
    <circle cx="155" cy="305" r="2"/>
    <circle cx="172" cy="305" r="2"/>
  </g>
  <g stroke="chocolate" stroke-width="1">
    <line x1="172" y1="305" x2="172" y2="288"/>
    <circle cx="172" cy="305" r="2"/>
    <circle cx="172" cy="288" r="2"/>
  </g>
  <g stroke="chocolate" stroke-width="1">
    <line x1="172" y1="322" x2="172" y2="305"/>
    <circle cx="172" cy="322" r="2"/>
    <circle cx="172" cy="305" r="2"/>
  </g>
  <g stroke="chocolate" stroke-width="1">
    <line x1="155" y1="305" x2="138" y2="288"/>
    <circle cx="155" cy="305" r="2"/>
    <circle cx="138" cy="288" r="2"/>
  </g>
  <g stroke="chocolate" stroke-width="1">
    <line x1="172" y1="322" x2="155" y2="305"/>
    <circle cx="172" cy="322" r="2"/>
    <circle cx="155" cy="305" r="2"/>
  </g>
  <g stroke="chocolate" stroke-width="1">
    <line x1="138" y1="305" x2="155" y2="305"/>
    <circle cx="138" cy="305" r="2"/>
    <circle cx="155" cy="305" r="2"/>
  </g>
  <g stroke="chocolate" stroke-width="1">
    <line x1="88" y1="305" x2="105" y2="288"/>
    <circle cx="88" cy="305" r="2"/>
    <circle cx="105" cy="288" r="2"/>
  </g>
  <g stroke="chocolate" stroke-width="1">
    <line x1="72" y1="322" x2="88" y2="305"/>
    <circle cx="72" cy="322" r="2"/>
    <circle cx="88" cy="305" r="2"/>
  </g>
  <g stroke="chocolate" stroke-width="1">
    <line x1="72" y1="305" x2="88" y2="305"/>
    <circle cx="72" cy="305" r="2"/>
    <circle cx="88" cy="305" r="2"/>
  </g>
  <g stroke="chocolate" stroke-width="1">
    <line x1="138" y1="422" x2="138" y2="355"/>
    <circle cx="138" cy="422" r="2"/>
    <circle cx="138" cy="355" r="2"/>
  </g>
  <g stroke="chocolate" stroke-width="1">
    <line x1="138" y1="355" x2="172" y2="355"/>
    <circle cx="138" cy="355" r="2"/>
    <circle cx="172" cy="355" r="2"/>
  </g>
  <g stroke="chocolate" stroke-width="1">
    <line x1="122" y1="355" x2="138" y2="355"/>
    <circle cx="122" cy="355" r="2"/>
    <circle cx="138" cy="355" r="2"/>
  </g>
  <g stroke="chocolate" stroke-width="1">
    <line x1="122" y1="355" x2="122" y2="338"/>
    <circle cx="122" cy="355" r="2"/>
    <circle cx="122" cy="338" r="2"/>
  </g>
  <g stroke="chocolate" stroke-width="1">
    <line x1="88" y1="338" x2="122" y2="338"/>
    <circle cx="88" cy="338" r="2"/>
    <circle cx="122" cy="338" r="2"/>
  </g>
  <g stroke="chocolate" stroke-width="1">
    <line x1="122" y1="372" x2="122" y2="355"/>
    <circle cx="122" cy="372" r="2"/>
    <circle cx="122" cy="355" r="2"/>
  </g>
  <g stroke="chocolate" stroke-width="1">
    <line x1="122" y1="422" x2="122" y2="372"/>
    <circle cx="122" cy="422" r="2"/>
    <circle cx="122" cy="372" r="2"/>
  </g>
  <g stroke="chocolate" stroke-width="1">
    <line x1="122" y1="372" x2="105" y2="355"/>
    <circle cx="122" cy="372" r="2"/>
    <circle cx="105" cy="355" r="2"/>
  </g>
  <g stroke="chocolate" stroke-width="1">
    <line x1="138" y1="388" x2="122" y2="372"/>
    <circle cx="138" cy="388" r="2"/>
    <circle cx="122" cy="372" r="2"/>
  </g>
  <g stroke="chocolate" stroke-width="1">
    <line x1="122" y1="438" x2="122" y2="422"/>
    <circle cx="122" cy="438" r="2"/>
    <circle cx="122" cy="422" r="2"/>
  </g>
  <g stroke="chocolate" stroke-width="1">
    <line x1="122" y1="422" x2="113" y2="413"/>
    <circle cx="122" cy="422" r="2"/>
    <circle cx="113" cy="413" r="2"/>
  </g>
  <g stroke="chocolate" stroke-width="1">
    <line x1="130" y1="430" x2="122" y2="422"/>
    <circle cx="130" cy="430" r="2"/>
    <circle cx="122" cy="422" r="2"/>
  </g>
  <g stroke="chocolate" stroke-width="1">
    <line x1="105" y1="272" x2="122" y2="272"/>
    <circle cx="105" cy="272" r="2"/>
    <circle cx="122" cy="272" r="2"/>
  </g>
  <g stroke="chocolate" stroke-width="1">
    <line x1="88" y1="272" x2="105" y2="272"/>
    <circle cx="88" cy="272" r="2"/>
    <circle cx="105" cy="272" r="2"/>
  </g>
  <g stroke="chocolate" stroke-width="1">
    <line x1="105" y1="272" x2="88" y2="255"/>
    <circle cx="105" cy="272" r="2"/>
    <circle cx="88" cy="255" r="2"/>
  </g>
  <g stroke="chocolate" stroke-width="1">
    <line x1="113" y1="280" x2="105" y2="272"/>
    <circle cx="113" cy="280" r="2"/>
    <circle cx="105" cy="272" r="2"/>
  </g>
  <g stroke="chocolate" stroke-width="1">
    <line x1="72" y1="272" x2="72" y2="222"/>
    <circle cx="72" cy="272" r="2"/>
    <circle cx="72" cy="222" r="2"/>
  </g>
  <g stroke="chocolate" stroke-width="1">
    <line x1="72" y1="288" x2="72" y2="272"/>
    <circle cx="72" cy="288" r="2"/>
    <circle cx="72" cy="272" r="2"/>
  </g>
  <g stroke="chocolate" stroke-width="1">
    <line x1="72" y1="272" x2="88" y2="272"/>
    <circle cx="72" cy="272" r="2"/>
    <circle cx="88" cy="272" r="2"/>
  </g>
  <g stroke="chocolate" stroke-width="1">
    <line x1="55" y1="272" x2="72" y2="272"/>
    <circle cx="55" cy="272" r="2"/>
    <circle cx="72" cy="272" r="2"/>
  </g>
  <g stroke="chocolate" stroke-width="1">
    <line x1="172" y1="288" x2="172" y2="272"/>
    <circle cx="172" cy="288" r="2"/>
    <circle cx="172" cy="272" r="2"/>
  </g>
  <g stroke="chocolate" stroke-width="1">
    <line x1="172" y1="288" x2="188" y2="288"/>
    <circle cx="172" cy="288" r="2"/>
    <circle cx="188" cy="288" r="2"/>
  </g>
  <g stroke="chocolate" stroke-width="1">
    <line x1="122" y1="288" x2="172" y2="288"/>
    <circle cx="122" cy="288" r="2"/>
    <circle cx="172" cy="288" r="2"/>
  </g>
  <g stroke="chocolate" stroke-width="1">
    <line x1="105" y1="288" x2="122" y2="288"/>
    <circle cx="105" cy="288" r="2"/>
    <circle cx="122" cy="288" r="2"/>
  </g>
  <g stroke="chocolate" stroke-width="1">
    <line x1="72" y1="288" x2="105" y2="288"/>
    <circle cx="72" cy="288" r="2"/>
    <circle cx="105" cy="288" r="2"/>
  </g>
  <g stroke="chocolate" stroke-width="1">
    <line x1="105" y1="288" x2="113" y2="280"/>
    <circle cx="105" cy="288" r="2"/>
    <circle cx="113" cy="280" r="2"/>
  </g>
  <g stroke="chocolate" stroke-width="1">
    <line x1="122" y1="272" x2="138" y2="272"/>
    <circle cx="122" cy="272" r="2"/>
    <circle cx="138" cy="272" r="2"/>
  </g>
  <g stroke="chocolate" stroke-width="1">
    <line x1="122" y1="272" x2="105" y2="255"/>
    <circle cx="122" cy="272" r="2"/>
    <circle cx="105" cy="255" r="2"/>
  </g>
  <g stroke="chocolate" stroke-width="1">
    <line x1="138" y1="288" x2="122" y2="272"/>
    <circle cx="138" cy="288" r="2"/>
    <circle cx="122" cy="272" r="2"/>
  </g>
  <g stroke="chocolate" stroke-width="1">
    <line x1="172" y1="338" x2="172" y2="322"/>
    <circle cx="172" cy="338" r="2"/>
    <circle cx="172" cy="322" r="2"/>
  </g>
  <g stroke="chocolate" stroke-width="1">
    <line x1="188" y1="338" x2="172" y2="322"/>
    <circle cx="188" cy="338" r="2"/>
    <circle cx="172" cy="322" r="2"/>
  </g>
  <g stroke="chocolate" stroke-width="1">
    <line x1="138" y1="305" x2="138" y2="288"/>
    <circle cx="138" cy="305" r="2"/>
    <circle cx="138" cy="288" r="2"/>
  </g>
  <g stroke="chocolate" stroke-width="1">
    <line x1="72" y1="305" x2="72" y2="288"/>
    <circle cx="72" cy="305" r="2"/>
    <circle cx="72" cy="288" r="2"/>
  </g>
  <g stroke="chocolate" stroke-width="1">
    <line x1="38" y1="288" x2="72" y2="288"/>
    <circle cx="38" cy="288" r="2"/>
    <circle cx="72" cy="288" r="2"/>
  </g>
  <g stroke="chocolate" stroke-width="1">
    <line x1="138" y1="272" x2="138" y2="255"/>
    <circle cx="138" cy="272" r="2"/>
    <circle cx="138" cy="255" r="2"/>
  </g>
  <g stroke="chocolate" stroke-width="1">
    <line x1="138" y1="288" x2="138" y2="272"/>
    <circle cx="138" cy="288" r="2"/>
    <circle cx="138" cy="272" r="2"/>
  </g>
  <g stroke="chocolate" stroke-width="1">
    <line x1="138" y1="272" x2="155" y2="272"/>
    <circle cx="138" cy="272" r="2"/>
    <circle cx="155" cy="272" r="2"/>
  </g>
  <g stroke="chocolate" stroke-width="1">
    <line x1="105" y1="355" x2="122" y2="355"/>
    <circle cx="105" cy="355" r="2"/>
    <circle cx="122" cy="355" r="2"/>
  </g>
  <g stroke="chocolate" stroke-width="1">
    <line x1="72" y1="338" x2="88" y2="338"/>
    <circle cx="72" cy="338" r="2"/>
    <circle cx="88" cy="338" r="2"/>
  </g>
  <g stroke="chocolate" stroke-width="1">
    <line x1="88" y1="338" x2="72" y2="322"/>
    <circle cx="88" cy="338" r="2"/>
    <circle cx="72" cy="322" r="2"/>
  </g>
  <g stroke="chocolate" stroke-width="1">
    <line x1="105" y1="355" x2="88" y2="338"/>
    <circle cx="105" cy="355" r="2"/>
    <circle cx="88" cy="338" r="2"/>
  </g>
  <g stroke="chocolate" stroke-width="1">
    <line x1="155" y1="405" x2="138" y2="388"/>
    <circle cx="155" cy="405" r="2"/>
    <circle cx="138" cy="388" r="2"/>
  </g>
  <g stroke="chocolate" stroke-width="1">
    <line x1="138" y1="388" x2="188" y2="338"/>
    <circle cx="138" cy="388" r="2"/>
    <circle cx="188" cy="338" r="2"/>
  </g>
  <g stroke="chocolate" stroke-width="1">
    <line x1="122" y1="405" x2="138" y2="388"/>
    <circle cx="122" cy="405" r="2"/>
    <circle cx="138" cy="388" r="2"/>
  </g>
  <g stroke="chocolate" stroke-width="1">
    <line x1="113" y1="413" x2="88" y2="388"/>
    <circle cx="113" cy="413" r="2"/>
    <circle cx="88" cy="388" r="2"/>
  </g>
  <g stroke="chocolate" stroke-width="1">
    <line x1="113" y1="413" x2="122" y2="405"/>
    <circle cx="113" cy="413" r="2"/>
    <circle cx="122" cy="405" r="2"/>
  </g>
  <g stroke="chocolate" stroke-width="1">
    <line x1="88" y1="438" x2="113" y2="413"/>
    <circle cx="88" cy="438" r="2"/>
    <circle cx="113" cy="413" r="2"/>
  </g>
  <g stroke="chocolate" stroke-width="1">
    <line x1="88" y1="255" x2="80" y2="247"/>
    <circle cx="88" cy="255" r="2"/>
    <circle cx="80" cy="247" r="2"/>
  </g>
  <g stroke="chocolate" stroke-width="1">
    <line x1="88" y1="255" x2="172" y2="255"/>
    <circle cx="88" cy="255" r="2"/>
    <circle cx="172" cy="255" r="2"/>
  </g>
  <g stroke="chocolate" stroke-width="1">
    <line x1="72" y1="255" x2="88" y2="255"/>
    <circle cx="72" cy="255" r="2"/>
    <circle cx="88" cy="255" r="2"/>
  </g>
  <g stroke="chocolate" stroke-width="1">
    <line x1="38" y1="272" x2="55" y2="272"/>
    <circle cx="38" cy="272" r="2"/>
    <circle cx="55" cy="272" r="2"/>
  </g>
  <g stroke="chocolate" stroke-width="1">
    <line x1="55" y1="272" x2="72" y2="255"/>
    <circle cx="55" cy="272" r="2"/>
    <circle cx="72" cy="255" r="2"/>
  </g>
  <g stroke="chocolate" stroke-width="1">
    <line x1="38" y1="288" x2="55" y2="272"/>
    <circle cx="38" cy="288" r="2"/>
    <circle cx="55" cy="272" r="2"/>
  </g>
  <g stroke="chocolate" stroke-width="1">
    <line x1="188" y1="288" x2="205" y2="288"/>
    <circle cx="188" cy="288" r="2"/>
    <circle cx="205" cy="288" r="2"/>
  </g>
  <g stroke="chocolate" stroke-width="1">
    <line x1="188" y1="288" x2="188" y2="272"/>
    <circle cx="188" cy="288" r="2"/>
    <circle cx="188" cy="272" r="2"/>
  </g>
  <g stroke="chocolate" stroke-width="1">
    <line x1="188" y1="305" x2="188" y2="288"/>
    <circle cx="188" cy="305" r="2"/>
    <circle cx="188" cy="288" r="2"/>
  </g>
  <g stroke="chocolate" stroke-width="1">
    <line x1="172" y1="272" x2="172" y2="255"/>
    <circle cx="172" cy="272" r="2"/>
    <circle cx="172" cy="255" r="2"/>
  </g>
  <g stroke="chocolate" stroke-width="1">
    <line x1="172" y1="272" x2="188" y2="272"/>
    <circle cx="172" cy="272" r="2"/>
    <circle cx="188" cy="272" r="2"/>
  </g>
  <g stroke="chocolate" stroke-width="1">
    <line x1="155" y1="272" x2="172" y2="272"/>
    <circle cx="155" cy="272" r="2"/>
    <circle cx="172" cy="272" r="2"/>
  </g>
  <g stroke="chocolate" stroke-width="1">
    <line x1="88" y1="238" x2="122" y2="205"/>
    <circle cx="88" cy="238" r="2"/>
    <circle cx="122" cy="205" r="2"/>
  </g>
  <g stroke="chocolate" stroke-width="1">
    <line x1="72" y1="255" x2="88" y2="238"/>
    <circle cx="72" cy="255" r="2"/>
    <circle cx="88" cy="238" r="2"/>
  </g>
  <g stroke="chocolate" stroke-width="1">
    <line x1="88" y1="238" x2="72" y2="222"/>
    <circle cx="88" cy="238" r="2"/>
    <circle cx="72" cy="222" r="2"/>
  </g>
  <g stroke="chocolate" stroke-width="1">
    <line x1="105" y1="255" x2="88" y2="238"/>
    <circle cx="105" cy="255" r="2"/>
    <circle cx="88" cy="238" r="2"/>
  </g>
  <g stroke="chocolate" stroke-width="1">
    <line x1="122" y1="288" x2="113" y2="280"/>
    <circle cx="122" cy="288" r="2"/>
    <circle cx="113" cy="280" r="2"/>
  </g>
  <g stroke="chocolate" stroke-width="1">
    <line x1="113" y1="280" x2="122" y2="272"/>
    <circle cx="113" cy="280" r="2"/>
    <circle cx="122" cy="272" r="2"/>
  </g>
  <g stroke="chocolate" stroke-width="1">
    <line x1="38" y1="305" x2="72" y2="305"/>
    <circle cx="38" cy="305" r="2"/>
    <circle cx="72" cy="305" r="2"/>
  </g>
  <g stroke="chocolate" stroke-width="1">
    <line x1="72" y1="322" x2="72" y2="305"/>
    <circle cx="72" cy="322" r="2"/>
    <circle cx="72" cy="305" r="2"/>
  </g>
  <g stroke="chocolate" stroke-width="1">
    <line x1="55" y1="338" x2="72" y2="338"/>
    <circle cx="55" cy="338" r="2"/>
    <circle cx="72" cy="338" r="2"/>
  </g>
  <g stroke="chocolate" stroke-width="1">
    <line x1="72" y1="338" x2="72" y2="322"/>
    <circle cx="72" cy="338" r="2"/>
    <circle cx="72" cy="322" r="2"/>
  </g>
  <g stroke="chocolate" stroke-width="1">
    <line x1="72" y1="455" x2="72" y2="338"/>
    <circle cx="72" cy="455" r="2"/>
    <circle cx="72" cy="338" r="2"/>
  </g>
  <g stroke="chocolate" stroke-width="1">
    <line x1="22" y1="272" x2="38" y2="272"/>
    <circle cx="22" cy="272" r="2"/>
    <circle cx="38" cy="272" r="2"/>
  </g>
  <g stroke="chocolate" stroke-width="1">
    <line x1="38" y1="272" x2="38" y2="255"/>
    <circle cx="38" cy="272" r="2"/>
    <circle cx="38" cy="255" r="2"/>
  </g>
  <g stroke="chocolate" stroke-width="1">
    <line x1="38" y1="288" x2="38" y2="272"/>
    <circle cx="38" cy="288" r="2"/>
    <circle cx="38" cy="272" r="2"/>
  </g>
  <g stroke="chocolate" stroke-width="1">
    <line x1="88" y1="388" x2="72" y2="372"/>
    <circle cx="88" cy="388" r="2"/>
    <circle cx="72" cy="372" r="2"/>
  </g>
  <g stroke="chocolate" stroke-width="1">
    <line x1="88" y1="388" x2="88" y2="372"/>
    <circle cx="88" cy="388" r="2"/>
    <circle cx="88" cy="372" r="2"/>
  </g>
  <g stroke="chocolate" stroke-width="1">
    <line x1="88" y1="438" x2="88" y2="388"/>
    <circle cx="88" cy="438" r="2"/>
    <circle cx="88" cy="388" r="2"/>
  </g>
  <g stroke="chocolate" stroke-width="1">
    <line x1="122" y1="455" x2="122" y2="438"/>
    <circle cx="122" cy="455" r="2"/>
    <circle cx="122" cy="438" r="2"/>
  </g>
  <g stroke="chocolate" stroke-width="1">
    <line x1="122" y1="438" x2="138" y2="438"/>
    <circle cx="122" cy="438" r="2"/>
    <circle cx="138" cy="438" r="2"/>
  </g>
  <g stroke="chocolate" stroke-width="1">
    <line x1="72" y1="438" x2="122" y2="438"/>
    <circle cx="72" cy="438" r="2"/>
    <circle cx="122" cy="438" r="2"/>
  </g>
  <g stroke="chocolate" stroke-width="1">
    <line x1="138" y1="305" x2="122" y2="288"/>
    <circle cx="138" cy="305" r="2"/>
    <circle cx="122" cy="288" r="2"/>
  </g>
  <g stroke="chocolate" stroke-width="1">
    <line x1="88" y1="272" x2="72" y2="255"/>
    <circle cx="88" cy="272" r="2"/>
    <circle cx="72" cy="255" r="2"/>
  </g>
  <g stroke="chocolate" stroke-width="1">
    <line x1="105" y1="288" x2="88" y2="272"/>
    <circle cx="105" cy="288" r="2"/>
    <circle cx="88" cy="272" r="2"/>
  </g>
  <g stroke="chocolate" stroke-width="1">
    <line x1="72" y1="355" x2="105" y2="355"/>
    <circle cx="72" cy="355" r="2"/>
    <circle cx="105" cy="355" r="2"/>
  </g>
  <g stroke="chocolate" stroke-width="1">
    <line x1="122" y1="405" x2="72" y2="355"/>
    <circle cx="122" cy="405" r="2"/>
    <circle cx="72" cy="355" r="2"/>
  </g>
  <g stroke="chocolate" stroke-width="1">
    <line x1="155" y1="438" x2="122" y2="405"/>
    <circle cx="155" cy="438" r="2"/>
    <circle cx="122" cy="405" r="2"/>
  </g>
  <g stroke="chocolate" stroke-width="1">
    <line x1="130" y1="430" x2="138" y2="422"/>
    <circle cx="130" cy="430" r="2"/>
    <circle cx="138" cy="422" r="2"/>
  </g>
  <g stroke="chocolate" stroke-width="1">
    <line x1="122" y1="438" x2="130" y2="430"/>
    <circle cx="122" cy="438" r="2"/>
    <circle cx="130" cy="430" r="2"/>
  </g>
  <g stroke="chocolate" stroke-width="1">
    <line x1="138" y1="438" x2="130" y2="430"/>
    <circle cx="138" cy="438" r="2"/>
    <circle cx="130" cy="430" r="2"/>
  </g>
  <g stroke="chocolate" stroke-width="1">
    <line x1="38" y1="255" x2="72" y2="255"/>
    <circle cx="38" cy="255" r="2"/>
    <circle cx="72" cy="255" r="2"/>
  </g>
  <g stroke="chocolate" stroke-width="1">
    <line x1="188" y1="305" x2="205" y2="305"/>
    <circle cx="188" cy="305" r="2"/>
    <circle cx="205" cy="305" r="2"/>
  </g>
  <g stroke="chocolate" stroke-width="1">
    <line x1="188" y1="438" x2="188" y2="305"/>
    <circle cx="188" cy="438" r="2"/>
    <circle cx="188" cy="305" r="2"/>
  </g>
  <g stroke="chocolate" stroke-width="1">
    <line x1="172" y1="338" x2="188" y2="338"/>
    <circle cx="172" cy="338" r="2"/>
    <circle cx="188" cy="338" r="2"/>
  </g>
  <g stroke="chocolate" stroke-width="1">
    <line x1="172" y1="355" x2="172" y2="338"/>
    <circle cx="172" cy="355" r="2"/>
    <circle cx="172" cy="338" r="2"/>
  </g>
  <g stroke="chocolate" stroke-width="1">
    <line x1="155" y1="272" x2="155" y2="255"/>
    <circle cx="155" cy="272" r="2"/>
    <circle cx="155" cy="255" r="2"/>
  </g>
  <g stroke="chocolate" stroke-width="1">
    <line x1="155" y1="288" x2="155" y2="272"/>
    <circle cx="155" cy="288" r="2"/>
    <circle cx="155" cy="272" r="2"/>
  </g>
  <g stroke="chocolate" stroke-width="1">
    <line x1="155" y1="438" x2="188" y2="438"/>
    <circle cx="155" cy="438" r="2"/>
    <circle cx="188" cy="438" r="2"/>
  </g>
  <g stroke="chocolate" stroke-width="1">
    <line x1="138" y1="438" x2="155" y2="438"/>
    <circle cx="138" cy="438" r="2"/>
    <circle cx="155" cy="438" r="2"/>
  </g>
  <g stroke="chocolate" stroke-width="1">
    <line x1="155" y1="438" x2="155" y2="405"/>
    <circle cx="155" cy="438" r="2"/>
    <circle cx="155" cy="405" r="2"/>
  </g>
  <g stroke="chocolate" stroke-width="1">
    <line x1="155" y1="505" x2="155" y2="438"/>
    <circle cx="155" cy="505" r="2"/>
    <circle cx="155" cy="438" r="2"/>
  </g>
  <g stroke="chocolate" stroke-width="1">
    <line x1="122" y1="455" x2="155" y2="455"/>
    <circle cx="122" cy="455" r="2"/>
    <circle cx="155" cy="455" r="2"/>
  </g>
  <g stroke="chocolate" stroke-width="1">
    <line x1="88" y1="455" x2="122" y2="455"/>
    <circle cx="88" cy="455" r="2"/>
    <circle cx="122" cy="455" r="2"/>
  </g>
  <g stroke="chocolate" stroke-width="1">
    <line x1="122" y1="505" x2="122" y2="455"/>
    <circle cx="122" cy="505" r="2"/>
    <circle cx="122" cy="455" r="2"/>
  </g>
  <g stroke="chocolate" stroke-width="1">
    <line x1="105" y1="255" x2="105" y2="222"/>
    <circle cx="105" cy="255" r="2"/>
    <circle cx="105" cy="222" r="2"/>
  </g>
  <g stroke="chocolate" stroke-width="1">
    <line x1="105" y1="272" x2="105" y2="255"/>
    <circle cx="105" cy="272" r="2"/>
    <circle cx="105" cy="255" r="2"/>
  </g>
  <g stroke="chocolate" stroke-width="1">
    <line x1="55" y1="338" x2="72" y2="322"/>
    <circle cx="55" cy="338" r="2"/>
    <circle cx="72" cy="322" r="2"/>
  </g>
  <g stroke="chocolate" stroke-width="1">
    <line x1="5" y1="288" x2="38" y2="288"/>
    <circle cx="5" cy="288" r="2"/>
    <circle cx="38" cy="288" r="2"/>
  </g>
  <g stroke="chocolate" stroke-width="1">
    <line x1="38" y1="305" x2="38" y2="288"/>
    <circle cx="38" cy="305" r="2"/>
    <circle cx="38" cy="288" r="2"/>
  </g>
  <g stroke="chocolate" stroke-width="1">
    <line x1="88" y1="455" x2="88" y2="438"/>
    <circle cx="88" cy="455" r="2"/>
    <circle cx="88" cy="438" r="2"/>
  </g>
  <g stroke="chocolate" stroke-width="1">
    <line x1="72" y1="455" x2="88" y2="438"/>
    <circle cx="72" cy="455" r="2"/>
    <circle cx="88" cy="438" r="2"/>
  </g>
  <g stroke="chocolate" stroke-width="1">
    <line x1="138" y1="438" x2="138" y2="422"/>
    <circle cx="138" cy="438" r="2"/>
    <circle cx="138" cy="422" r="2"/>
  </g>
  <g stroke="chocolate" stroke-width="1">
    <line x1="138" y1="422" x2="155" y2="405"/>
    <circle cx="138" cy="422" r="2"/>
    <circle cx="155" cy="405" r="2"/>
  </g>
  <g stroke="chocolate" stroke-width="1">
    <line x1="138" y1="438" x2="147" y2="430"/>
    <circle cx="138" cy="438" r="2"/>
    <circle cx="147" cy="430" r="2"/>
  </g>
  <g stroke="chocolate" stroke-width="1">
    <line x1="122" y1="455" x2="138" y2="438"/>
    <circle cx="122" cy="455" r="2"/>
    <circle cx="138" cy="438" r="2"/>
  </g>
  <g stroke="chocolate" stroke-width="1">
    <line x1="205" y1="288" x2="105" y2="188"/>
    <circle cx="205" cy="288" r="2"/>
    <circle cx="105" cy="188" r="2"/>
  </g>
  <g stroke="chocolate" stroke-width="1">
    <line x1="138" y1="255" x2="105" y2="222"/>
    <circle cx="138" cy="255" r="2"/>
    <circle cx="105" cy="222" r="2"/>
  </g>
  <g stroke="chocolate" stroke-width="1">
    <line x1="72" y1="372" x2="88" y2="372"/>
    <circle cx="72" cy="372" r="2"/>
    <circle cx="88" cy="372" r="2"/>
  </g>
  <g stroke="chocolate" stroke-width="1">
    <line x1="38" y1="288" x2="22" y2="272"/>
    <circle cx="38" cy="288" r="2"/>
    <circle cx="22" cy="272" r="2"/>
  </g>
  <g stroke="chocolate" stroke-width="1">
    <line x1="55" y1="338" x2="5" y2="288"/>
    <circle cx="55" cy="338" r="2"/>
    <circle cx="5" cy="288" r="2"/>
  </g>
  <g stroke="chocolate" stroke-width="1">
    <line x1="38" y1="255" x2="105" y2="188"/>
    <circle cx="38" cy="255" r="2"/>
    <circle cx="105" cy="188" r="2"/>
  </g>
  <g stroke="chocolate" stroke-width="1">
    <line x1="5" y1="288" x2="22" y2="272"/>
    <circle cx="5" cy="288" r="2"/>
    <circle cx="22" cy="272" r="2"/>
  </g>
  <g stroke="chocolate" stroke-width="1">
    <line x1="122" y1="505" x2="72" y2="455"/>
    <circle cx="122" cy="505" r="2"/>
    <circle cx="72" cy="455" r="2"/>
  </g>
  <g stroke="chocolate" stroke-width="1">
    <line x1="155" y1="272" x2="172" y2="255"/>
    <circle cx="155" cy="272" r="2"/>
    <circle cx="172" cy="255" r="2"/>
  </g>
  <g stroke="chocolate" stroke-width="1">
    <line x1="205" y1="305" x2="205" y2="288"/>
    <circle cx="205" cy="305" r="2"/>
    <circle cx="205" cy="288" r="2"/>
  </g>
  <g stroke="chocolate" stroke-width="1">
    <line x1="88" y1="255" x2="88" y2="238"/>
    <circle cx="88" cy="255" r="2"/>
    <circle cx="88" cy="238" r="2"/>
  </g>
  <g stroke="chocolate" stroke-width="1">
    <line x1="122" y1="505" x2="155" y2="505"/>
    <circle cx="122" cy="505" r="2"/>
    <circle cx="155" cy="505" r="2"/>
  </g>
  <g stroke="black" stroke-width="1">
    <line x1="5" y1="5" x2="505" y2="5"/>
    <line x1="5" y1="5" x2="5" y2="505"/>
    <line x1="505" y1="505" x2="5" y2="505"/>
    <line x1="505" y1="505" x2="505" y2="5"/>
    <line x1="105" y1="2" x2="105" y2="8"/>
    <line x1="2" y1="105" x2="8" y2="105"/>
    <line x1="105" y1="502" x2="105" y2="508"/>
    <line x1="502" y1="105" x2="508" y2="105"/>
    <line x1="205" y1="2" x2="205" y2="8"/>
    <line x1="2" y1="205" x2="8" y2="205"/>
    <line x1="205" y1="502" x2="205" y2="508"/>
    <line x1="502" y1="205" x2="508" y2="205"/>
    <line x1="305" y1="2" x2="305" y2="8"/>
    <line x1="2" y1="305" x2="8" y2="305"/>
    <line x1="305" y1="502" x2="305" y2="508"/>
    <line x1="502" y1="305" x2="508" y2="305"/>
    <line x1="405" y1="2" x2="405" y2="8"/>
    <line x1="2" y1="405" x2="8" y2="405"/>
    <line x1="405" y1="502" x2="405" y2="508"/>
    <line x1="502" y1="405" x2="508" y2="405"/>
  </g>
  <g stroke="gray" stroke-width="1" stroke-dasharray="5,5">
    <line x1="105" y1="5" x2="105" y2="505"/>
    <line x1="5" y1="105" x2="505" y2="105"/>
    <line x1="205" y1="5" x2="205" y2="505"/>
    <line x1="5" y1="205" x2="505" y2="205"/>
    <line x1="305" y1="5" x2="305" y2="505"/>
    <line x1="5" y1="305" x2="505" y2="305"/>
    <line x1="405" y1="5" x2="405" y2="505"/>
    <line x1="5" y1="405" x2="505" y2="405"/>
  </g>
</svg>
