<?xml version="1.0" standalone="no"?>
<!DOCTYPE svg PUBLIC "-//W3C//DTD SVG 1.1//EN" 
  "http://www.w3.org/Graphics/SVG/1.1/DTD/svg11.dtd">
<svg width="510" height="510" version="1.1" id="toplevel"
    xmlns="http://www.w3.org/2000/svg"
    xmlns:xlink="http://www.w3.org/1999/xlink">
  <polygon points="200,505 212,498 194,473 190,473 183,451 194,353 135,306 178,231 163,222 189,204 324,37 310,5 273,21 269,26 221,17 95,145 73,151 68,150 67,152 49,157 27,315 177,497"
           fill="bisque"/>
  <g stroke="chocolate" stroke-width="1">
    <line x1="52" y1="241" x2="39" y2="229"/>
    <circle cx="52" cy="241" r="2"/>
    <circle cx="39" cy="229" r="2"/>
  </g>
  <g stroke="chocolate" stroke-width="1">
    <line x1="76" y1="259" x2="52" y2="241"/>
    <circle cx="76" cy="259" r="2"/>
    <circle cx="52" cy="241" r="2"/>
  </g>
  <g stroke="chocolate" stroke-width="1">
    <line x1="52" y1="241" x2="55" y2="223"/>
    <circle cx="52" cy="241" r="2"/>
    <circle cx="55" cy="223" r="2"/>
  </g>
  <g stroke="chocolate" stroke-width="1">
    <line x1="42" y1="303" x2="52" y2="241"/>
    <circle cx="42" cy="303" r="2"/>
    <circle cx="52" cy="241" r="2"/>
  </g>
  <g stroke="chocolate" stroke-width="1">
    <line x1="184" y1="169" x2="87" y2="153"/>
    <circle cx="184" cy="169" r="2"/>
    <circle cx="87" cy="153" r="2"/>
  </g>
  <g stroke="chocolate" stroke-width="1">
    <line x1="202" y1="172" x2="184" y2="169"/>
    <circle cx="202" cy="172" r="2"/>
    <circle cx="184" cy="169" r="2"/>
  </g>
  <g stroke="chocolate" stroke-width="1">
    <line x1="184" y1="169" x2="207" y2="160"/>
    <circle cx="184" cy="169" r="2"/>
    <circle cx="207" cy="160" r="2"/>
  </g>
  <g stroke="chocolate" stroke-width="1">
    <line x1="119" y1="196" x2="184" y2="169"/>
    <circle cx="119" cy="196" r="2"/>
    <circle cx="184" cy="169" r="2"/>
  </g>
  <g stroke="chocolate" stroke-width="1">
    <line x1="56" y1="222" x2="56" y2="221"/>
    <circle cx="56" cy="222" r="2"/>
    <circle cx="56" cy="221" r="2"/>
  </g>
  <g stroke="chocolate" stroke-width="1">
    <line x1="76" y1="259" x2="56" y2="222"/>
    <circle cx="76" cy="259" r="2"/>
    <circle cx="56" cy="222" r="2"/>
  </g>
  <g stroke="chocolate" stroke-width="1">
    <line x1="56" y1="222" x2="119" y2="196"/>
    <circle cx="56" cy="222" r="2"/>
    <circle cx="119" cy="196" r="2"/>
  </g>
  <g stroke="chocolate" stroke-width="1">
    <line x1="55" y1="223" x2="56" y2="222"/>
    <circle cx="55" cy="223" r="2"/>
    <circle cx="56" cy="222" r="2"/>
  </g>
  <g stroke="chocolate" stroke-width="1">
    <line x1="163" y1="222" x2="119" y2="196"/>
    <circle cx="163" cy="222" r="2"/>
    <circle cx="119" cy="196" r="2"/>
  </g>
  <g stroke="chocolate" stroke-width="1">
    <line x1="178" y1="231" x2="163" y2="222"/>
    <circle cx="178" cy="231" r="2"/>
    <circle cx="163" cy="222" r="2"/>
  </g>
  <g stroke="chocolate" stroke-width="1">
    <line x1="163" y1="222" x2="189" y2="204"/>
    <circle cx="163" cy="222" r="2"/>
    <circle cx="189" cy="204" r="2"/>
  </g>
  <g stroke="chocolate" stroke-width="1">
    <line x1="91" y1="271" x2="163" y2="222"/>
    <circle cx="91" cy="271" r="2"/>
    <circle cx="163" cy="222" r="2"/>
  </g>
  <g stroke="chocolate" stroke-width="1">
    <line x1="85" y1="275" x2="76" y2="259"/>
    <circle cx="85" cy="275" r="2"/>
    <circle cx="76" cy="259" r="2"/>
  </g>
  <g stroke="chocolate" stroke-width="1">
    <line x1="102" y1="307" x2="85" y2="275"/>
    <circle cx="102" cy="307" r="2"/>
    <circle cx="85" cy="275" r="2"/>
  </g>
  <g stroke="chocolate" stroke-width="1">
    <line x1="85" y1="275" x2="91" y2="271"/>
    <circle cx="85" cy="275" r="2"/>
    <circle cx="91" cy="271" r="2"/>
  </g>
  <g stroke="chocolate" stroke-width="1">
    <line x1="44" y1="303" x2="85" y2="275"/>
    <circle cx="44" cy="303" r="2"/>
    <circle cx="85" cy="275" r="2"/>
  </g>
  <g stroke="chocolate" stroke-width="1">
    <line x1="91" y1="271" x2="76" y2="259"/>
    <circle cx="91" cy="271" r="2"/>
    <circle cx="76" cy="259" r="2"/>
  </g>
  <g stroke="chocolate" stroke-width="1">
    <line x1="133" y1="310" x2="102" y2="307"/>
    <circle cx="133" cy="310" r="2"/>
    <circle cx="102" cy="307" r="2"/>
  </g>
  <g stroke="chocolate" stroke-width="1">
    <line x1="140" y1="310" x2="133" y2="310"/>
    <circle cx="140" cy="310" r="2"/>
    <circle cx="133" cy="310" r="2"/>
  </g>
  <g stroke="chocolate" stroke-width="1">
    <line x1="133" y1="310" x2="135" y2="306"/>
    <circle cx="133" cy="310" r="2"/>
    <circle cx="135" cy="306" r="2"/>
  </g>
  <g stroke="chocolate" stroke-width="1">
    <line x1="118" y1="337" x2="133" y2="310"/>
    <circle cx="118" cy="337" r="2"/>
    <circle cx="133" cy="310" r="2"/>
  </g>
  <g stroke="chocolate" stroke-width="1">
    <line x1="87" y1="153" x2="95" y2="145"/>
    <circle cx="87" cy="153" r="2"/>
    <circle cx="95" cy="145" r="2"/>
  </g>
  <g stroke="chocolate" stroke-width="1">
    <line x1="71" y1="169" x2="87" y2="153"/>
    <circle cx="71" cy="169" r="2"/>
    <circle cx="87" cy="153" r="2"/>
  </g>
  <g stroke="chocolate" stroke-width="1">
    <line x1="87" y1="153" x2="73" y2="151"/>
    <circle cx="87" cy="153" r="2"/>
    <circle cx="73" cy="151" r="2"/>
  </g>
  <g stroke="chocolate" stroke-width="1">
    <line x1="226" y1="113" x2="240" y2="110"/>
    <circle cx="226" cy="113" r="2"/>
    <circle cx="240" cy="110" r="2"/>
  </g>
  <g stroke="chocolate" stroke-width="1">
    <line x1="95" y1="145" x2="226" y2="113"/>
    <circle cx="95" cy="145" r="2"/>
    <circle cx="226" cy="113" r="2"/>
  </g>
  <g stroke="chocolate" stroke-width="1">
    <line x1="226" y1="113" x2="237" y2="88"/>
    <circle cx="226" cy="113" r="2"/>
    <circle cx="237" cy="88" r="2"/>
  </g>
  <g stroke="chocolate" stroke-width="1">
    <line x1="207" y1="160" x2="226" y2="113"/>
    <circle cx="207" cy="160" r="2"/>
    <circle cx="226" cy="113" r="2"/>
  </g>
  <g stroke="chocolate" stroke-width="1">
    <line x1="240" y1="110" x2="241" y2="110"/>
    <circle cx="240" cy="110" r="2"/>
    <circle cx="241" cy="110" r="2"/>
  </g>
  <g stroke="chocolate" stroke-width="1">
    <line x1="240" y1="110" x2="241" y2="108"/>
    <circle cx="240" cy="110" r="2"/>
    <circle cx="241" cy="108" r="2"/>
  </g>
  <g stroke="chocolate" stroke-width="1">
    <line x1="236" y1="133" x2="240" y2="110"/>
    <circle cx="236" cy="133" r="2"/>
    <circle cx="240" cy="110" r="2"/>
  </g>
  <g stroke="chocolate" stroke-width="1">
    <line x1="67" y1="152" x2="68" y2="150"/>
    <circle cx="67" cy="152" r="2"/>
    <circle cx="68" cy="150" r="2"/>
  </g>
  <g stroke="chocolate" stroke-width="1">
    <line x1="65" y1="166" x2="67" y2="152"/>
    <circle cx="65" cy="166" r="2"/>
    <circle cx="67" cy="152" r="2"/>
  </g>
  <g stroke="chocolate" stroke-width="1">
    <line x1="67" y1="152" x2="73" y2="151"/>
    <circle cx="67" cy="152" r="2"/>
    <circle cx="73" cy="151" r="2"/>
  </g>
  <g stroke="chocolate" stroke-width="1">
    <line x1="49" y1="157" x2="67" y2="152"/>
    <circle cx="49" cy="157" r="2"/>
    <circle cx="67" cy="152" r="2"/>
  </g>
  <g stroke="chocolate" stroke-width="1">
    <line x1="42" y1="304" x2="42" y2="303"/>
    <circle cx="42" cy="304" r="2"/>
    <circle cx="42" cy="303" r="2"/>
  </g>
  <g stroke="chocolate" stroke-width="1">
    <line x1="42" y1="303" x2="28" y2="302"/>
    <circle cx="42" cy="303" r="2"/>
    <circle cx="28" cy="302" r="2"/>
  </g>
  <g stroke="chocolate" stroke-width="1">
    <line x1="44" y1="303" x2="42" y2="303"/>
    <circle cx="44" cy="303" r="2"/>
    <circle cx="42" cy="303" r="2"/>
  </g>
  <g stroke="chocolate" stroke-width="1">
    <line x1="118" y1="337" x2="102" y2="307"/>
    <circle cx="118" cy="337" r="2"/>
    <circle cx="102" cy="307" r="2"/>
  </g>
  <g stroke="chocolate" stroke-width="1">
    <line x1="102" y1="307" x2="44" y2="303"/>
    <circle cx="102" cy="307" r="2"/>
    <circle cx="44" cy="303" r="2"/>
  </g>
  <g stroke="chocolate" stroke-width="1">
    <line x1="63" y1="178" x2="65" y2="166"/>
    <circle cx="63" cy="178" r="2"/>
    <circle cx="65" cy="166" r="2"/>
  </g>
  <g stroke="chocolate" stroke-width="1">
    <line x1="65" y1="166" x2="49" y2="157"/>
    <circle cx="65" cy="166" r="2"/>
    <circle cx="49" cy="157" r="2"/>
  </g>
  <g stroke="chocolate" stroke-width="1">
    <line x1="71" y1="169" x2="65" y2="166"/>
    <circle cx="71" cy="169" r="2"/>
    <circle cx="65" cy="166" r="2"/>
  </g>
  <g stroke="chocolate" stroke-width="1">
    <line x1="119" y1="196" x2="71" y2="169"/>
    <circle cx="119" cy="196" r="2"/>
    <circle cx="71" cy="169" r="2"/>
  </g>
  <g stroke="chocolate" stroke-width="1">
    <line x1="73" y1="151" x2="95" y2="145"/>
    <circle cx="73" cy="151" r="2"/>
    <circle cx="95" cy="145" r="2"/>
  </g>
  <g stroke="chocolate" stroke-width="1">
    <line x1="95" y1="145" x2="221" y2="17"/>
    <circle cx="95" cy="145" r="2"/>
    <circle cx="221" cy="17" r="2"/>
  </g>
  <g stroke="chocolate" stroke-width="1">
    <line x1="137" y1="372" x2="118" y2="337"/>
    <circle cx="137" cy="372" r="2"/>
    <circle cx="118" cy="337" r="2"/>
  </g>
  <g stroke="chocolate" stroke-width="1">
    <line x1="167" y1="428" x2="137" y2="372"/>
    <circle cx="167" cy="428" r="2"/>
    <circle cx="137" cy="372" r="2"/>
  </g>
  <g stroke="chocolate" stroke-width="1">
    <line x1="137" y1="372" x2="157" y2="366"/>
    <circle cx="137" cy="372" r="2"/>
    <circle cx="157" cy="366" r="2"/>
  </g>
  <g stroke="chocolate" stroke-width="1">
    <line x1="88" y1="389" x2="137" y2="372"/>
    <circle cx="88" cy="389" r="2"/>
    <circle cx="137" cy="372" r="2"/>
  </g>
  <g stroke="chocolate" stroke-width="1">
    <line x1="135" y1="306" x2="91" y2="271"/>
    <circle cx="135" cy="306" r="2"/>
    <circle cx="91" cy="271" r="2"/>
  </g>
  <g stroke="chocolate" stroke-width="1">
    <line x1="88" y1="389" x2="118" y2="337"/>
    <circle cx="88" cy="389" r="2"/>
    <circle cx="118" cy="337" r="2"/>
  </g>
  <g stroke="chocolate" stroke-width="1">
    <line x1="63" y1="178" x2="71" y2="169"/>
    <circle cx="63" cy="178" r="2"/>
    <circle cx="71" cy="169" r="2"/>
  </g>
  <g stroke="chocolate" stroke-width="1">
    <line x1="43" y1="198" x2="63" y2="178"/>
    <circle cx="43" cy="198" r="2"/>
    <circle cx="63" cy="178" r="2"/>
  </g>
  <g stroke="chocolate" stroke-width="1">
    <line x1="56" y1="221" x2="63" y2="178"/>
    <circle cx="56" cy="221" r="2"/>
    <circle cx="63" cy="178" r="2"/>
  </g>
  <g stroke="chocolate" stroke-width="1">
    <line x1="55" y1="223" x2="56" y2="221"/>
    <circle cx="55" cy="223" r="2"/>
    <circle cx="56" cy="221" r="2"/>
  </g>
  <g stroke="chocolate" stroke-width="1">
    <line x1="39" y1="229" x2="55" y2="223"/>
    <circle cx="39" cy="229" r="2"/>
    <circle cx="55" cy="223" r="2"/>
  </g>
  <g stroke="chocolate" stroke-width="1">
    <line x1="213" y1="174" x2="202" y2="172"/>
    <circle cx="213" cy="174" r="2"/>
    <circle cx="202" cy="172" r="2"/>
  </g>
  <g stroke="chocolate" stroke-width="1">
    <line x1="202" y1="172" x2="207" y2="160"/>
    <circle cx="202" cy="172" r="2"/>
    <circle cx="207" cy="160" r="2"/>
  </g>
  <g stroke="chocolate" stroke-width="1">
    <line x1="189" y1="204" x2="202" y2="172"/>
    <circle cx="189" cy="204" r="2"/>
    <circle cx="202" cy="172" r="2"/>
  </g>
  <g stroke="chocolate" stroke-width="1">
    <line x1="190" y1="473" x2="183" y2="451"/>
    <circle cx="190" cy="473" r="2"/>
    <circle cx="183" cy="451" r="2"/>
  </g>
  <g stroke="chocolate" stroke-width="1">
    <line x1="192" y1="477" x2="190" y2="473"/>
    <circle cx="192" cy="477" r="2"/>
    <circle cx="190" cy="473" r="2"/>
  </g>
  <g stroke="chocolate" stroke-width="1">
    <line x1="190" y1="473" x2="194" y2="473"/>
    <circle cx="190" cy="473" r="2"/>
    <circle cx="194" cy="473" r="2"/>
  </g>
  <g stroke="chocolate" stroke-width="1">
    <line x1="181" y1="473" x2="190" y2="473"/>
    <circle cx="181" cy="473" r="2"/>
    <circle cx="190" cy="473" r="2"/>
  </g>
  <g stroke="chocolate" stroke-width="1">
    <line x1="183" y1="451" x2="157" y2="366"/>
    <circle cx="183" cy="451" r="2"/>
    <circle cx="157" cy="366" r="2"/>
  </g>
  <g stroke="chocolate" stroke-width="1">
    <line x1="183" y1="451" x2="194" y2="353"/>
    <circle cx="183" cy="451" r="2"/>
    <circle cx="194" cy="353" r="2"/>
  </g>
  <g stroke="chocolate" stroke-width="1">
    <line x1="181" y1="473" x2="183" y2="451"/>
    <circle cx="181" cy="473" r="2"/>
    <circle cx="183" cy="451" r="2"/>
  </g>
  <g stroke="chocolate" stroke-width="1">
    <line x1="237" y1="88" x2="251" y2="54"/>
    <circle cx="237" cy="88" r="2"/>
    <circle cx="251" cy="54" r="2"/>
  </g>
  <g stroke="chocolate" stroke-width="1">
    <line x1="237" y1="88" x2="221" y2="17"/>
    <circle cx="237" cy="88" r="2"/>
    <circle cx="221" cy="17" r="2"/>
  </g>
  <g stroke="chocolate" stroke-width="1">
    <line x1="241" y1="108" x2="237" y2="88"/>
    <circle cx="241" cy="108" r="2"/>
    <circle cx="237" cy="88" r="2"/>
  </g>
  <g stroke="chocolate" stroke-width="1">
    <line x1="241" y1="110" x2="271" y2="102"/>
    <circle cx="241" cy="110" r="2"/>
    <circle cx="271" cy="102" r="2"/>
  </g>
  <g stroke="chocolate" stroke-width="1">
    <line x1="241" y1="110" x2="241" y2="108"/>
    <circle cx="241" cy="110" r="2"/>
    <circle cx="241" cy="108" r="2"/>
  </g>
  <g stroke="chocolate" stroke-width="1">
    <line x1="246" y1="133" x2="241" y2="110"/>
    <circle cx="246" cy="133" r="2"/>
    <circle cx="241" cy="110" r="2"/>
  </g>
  <g stroke="chocolate" stroke-width="1">
    <line x1="233" y1="149" x2="236" y2="133"/>
    <circle cx="233" cy="149" r="2"/>
    <circle cx="236" cy="133" r="2"/>
  </g>
  <g stroke="chocolate" stroke-width="1">
    <line x1="236" y1="133" x2="246" y2="133"/>
    <circle cx="236" cy="133" r="2"/>
    <circle cx="246" cy="133" r="2"/>
  </g>
  <g stroke="chocolate" stroke-width="1">
    <line x1="218" y1="133" x2="236" y2="133"/>
    <circle cx="218" cy="133" r="2"/>
    <circle cx="236" cy="133" r="2"/>
  </g>
  <g stroke="chocolate" stroke-width="1">
    <line x1="73" y1="151" x2="68" y2="150"/>
    <circle cx="73" cy="151" r="2"/>
    <circle cx="68" cy="150" r="2"/>
  </g>
  <g stroke="chocolate" stroke-width="1">
    <line x1="27" y1="315" x2="44" y2="303"/>
    <circle cx="27" cy="315" r="2"/>
    <circle cx="44" cy="303" r="2"/>
  </g>
  <g stroke="chocolate" stroke-width="1">
    <line x1="157" y1="366" x2="140" y2="310"/>
    <circle cx="157" cy="366" r="2"/>
    <circle cx="140" cy="310" r="2"/>
  </g>
  <g stroke="chocolate" stroke-width="1">
    <line x1="157" y1="366" x2="194" y2="353"/>
    <circle cx="157" cy="366" r="2"/>
    <circle cx="194" cy="353" r="2"/>
  </g>
  <g stroke="chocolate" stroke-width="1">
    <line x1="207" y1="160" x2="233" y2="149"/>
    <circle cx="207" cy="160" r="2"/>
    <circle cx="233" cy="149" r="2"/>
  </g>
  <g stroke="chocolate" stroke-width="1">
    <line x1="207" y1="160" x2="207" y2="160"/>
    <circle cx="207" cy="160" r="2"/>
    <circle cx="207" cy="160" r="2"/>
  </g>
  <g stroke="chocolate" stroke-width="1">
    <line x1="207" y1="160" x2="207" y2="160"/>
    <circle cx="207" cy="160" r="2"/>
    <circle cx="207" cy="160" r="2"/>
  </g>
  <g stroke="chocolate" stroke-width="1">
    <line x1="213" y1="174" x2="207" y2="160"/>
    <circle cx="213" cy="174" r="2"/>
    <circle cx="207" cy="160" r="2"/>
  </g>
  <g stroke="chocolate" stroke-width="1">
    <line x1="269" y1="26" x2="221" y2="17"/>
    <circle cx="269" cy="26" r="2"/>
    <circle cx="221" cy="17" r="2"/>
  </g>
  <g stroke="chocolate" stroke-width="1">
    <line x1="273" y1="27" x2="269" y2="26"/>
    <circle cx="273" cy="27" r="2"/>
    <circle cx="269" cy="26" r="2"/>
  </g>
  <g stroke="chocolate" stroke-width="1">
    <line x1="269" y1="26" x2="273" y2="21"/>
    <circle cx="269" cy="26" r="2"/>
    <circle cx="273" cy="21" r="2"/>
  </g>
  <g stroke="chocolate" stroke-width="1">
    <line x1="251" y1="54" x2="269" y2="26"/>
    <circle cx="251" cy="54" r="2"/>
    <circle cx="269" cy="26" r="2"/>
  </g>
  <g stroke="chocolate" stroke-width="1">
    <line x1="173" y1="473" x2="181" y2="473"/>
    <circle cx="173" cy="473" r="2"/>
    <circle cx="181" cy="473" r="2"/>
  </g>
  <g stroke="chocolate" stroke-width="1">
    <line x1="157" y1="473" x2="173" y2="473"/>
    <circle cx="157" cy="473" r="2"/>
    <circle cx="173" cy="473" r="2"/>
  </g>
  <g stroke="chocolate" stroke-width="1">
    <line x1="173" y1="473" x2="167" y2="428"/>
    <circle cx="173" cy="473" r="2"/>
    <circle cx="167" cy="428" r="2"/>
  </g>
  <g stroke="chocolate" stroke-width="1">
    <line x1="177" y1="497" x2="173" y2="473"/>
    <circle cx="177" cy="497" r="2"/>
    <circle cx="173" cy="473" r="2"/>
  </g>
  <g stroke="chocolate" stroke-width="1">
    <line x1="194" y1="353" x2="135" y2="306"/>
    <circle cx="194" cy="353" r="2"/>
    <circle cx="135" cy="306" r="2"/>
  </g>
  <g stroke="chocolate" stroke-width="1">
    <line x1="135" y1="306" x2="178" y2="231"/>
    <circle cx="135" cy="306" r="2"/>
    <circle cx="178" cy="231" r="2"/>
  </g>
  <g stroke="chocolate" stroke-width="1">
    <line x1="56" y1="221" x2="43" y2="198"/>
    <circle cx="56" cy="221" r="2"/>
    <circle cx="43" cy="198" r="2"/>
  </g>
  <g stroke="chocolate" stroke-width="1">
    <line x1="324" y1="37" x2="273" y2="27"/>
    <circle cx="324" cy="37" r="2"/>
    <circle cx="273" cy="27" r="2"/>
  </g>
  <g stroke="chocolate" stroke-width="1">
    <line x1="273" y1="27" x2="273" y2="21"/>
    <circle cx="273" cy="27" r="2"/>
    <circle cx="273" cy="21" r="2"/>
  </g>
  <g stroke="chocolate" stroke-width="1">
    <line x1="271" y1="102" x2="273" y2="27"/>
    <circle cx="271" cy="102" r="2"/>
    <circle cx="273" cy="27" r="2"/>
  </g>
  <g stroke="chocolate" stroke-width="1">
    <line x1="178" y1="498" x2="181" y2="473"/>
    <circle cx="178" cy="498" r="2"/>
    <circle cx="181" cy="473" r="2"/>
  </g>
  <g stroke="chocolate" stroke-width="1">
    <line x1="241" y1="108" x2="251" y2="54"/>
    <circle cx="241" cy="108" r="2"/>
    <circle cx="251" cy="54" r="2"/>
  </g>
  <g stroke="chocolate" stroke-width="1">
    <line x1="200" y1="505" x2="192" y2="477"/>
    <circle cx="200" cy="505" r="2"/>
    <circle cx="192" cy="477" r="2"/>
  </g>
  <g stroke="chocolate" stroke-width="1">
    <line x1="192" y1="477" x2="194" y2="473"/>
    <circle cx="192" cy="477" r="2"/>
    <circle cx="194" cy="473" r="2"/>
  </g>
  <g stroke="chocolate" stroke-width="1">
    <line x1="178" y1="498" x2="192" y2="477"/>
    <circle cx="178" cy="498" r="2"/>
    <circle cx="192" cy="477" r="2"/>
  </g>
  <g stroke="chocolate" stroke-width="1">
    <line x1="273" y1="21" x2="310" y2="5"/>
    <circle cx="273" cy="21" r="2"/>
    <circle cx="310" cy="5" r="2"/>
  </g>
  <g stroke="chocolate" stroke-width="1">
    <line x1="233" y1="148" x2="218" y2="133"/>
    <circle cx="233" cy="148" r="2"/>
    <circle cx="218" cy="133" r="2"/>
  </g>
  <g stroke="chocolate" stroke-width="1">
    <line x1="42" y1="304" x2="28" y2="302"/>
    <circle cx="42" cy="304" r="2"/>
    <circle cx="28" cy="302" r="2"/>
  </g>
  <g stroke="chocolate" stroke-width="1">
    <line x1="207" y1="160" x2="233" y2="148"/>
    <circle cx="207" cy="160" r="2"/>
    <circle cx="233" cy="148" r="2"/>
  </g>
  <g stroke="chocolate" stroke-width="1">
    <line x1="324" y1="37" x2="310" y2="5"/>
    <circle cx="324" cy="37" r="2"/>
    <circle cx="310" cy="5" r="2"/>
  </g>
  <g stroke="chocolate" stroke-width="1">
    <line x1="200" y1="505" x2="177" y2="497"/>
    <circle cx="200" cy="505" r="2"/>
    <circle cx="177" cy="497" r="2"/>
  </g>
  <g stroke="chocolate" stroke-width="1">
    <line x1="212" y1="498" x2="194" y2="473"/>
    <circle cx="212" cy="498" r="2"/>
    <circle cx="194" cy="473" r="2"/>
  </g>
  <g stroke="chocolate" stroke-width="1">
    <line x1="177" y1="497" x2="27" y2="315"/>
    <circle cx="177" cy="497" r="2"/>
    <circle cx="27" cy="315" r="2"/>
  </g>
  <g stroke="chocolate" stroke-width="1">
    <line x1="189" y1="204" x2="324" y2="37"/>
    <circle cx="189" cy="204" r="2"/>
    <circle cx="324" cy="37" r="2"/>
  </g>
  <g stroke="chocolate" stroke-width="1">
    <line x1="27" y1="315" x2="49" y2="157"/>
    <circle cx="27" cy="315" r="2"/>
    <circle cx="49" cy="157" r="2"/>
  </g>
  <g stroke="chocolate" stroke-width="1">
    <line x1="200" y1="505" x2="212" y2="498"/>
    <circle cx="200" cy="505" r="2"/>
    <circle cx="212" cy="498" r="2"/>
  </g>
  <g stroke="chocolate" stroke-width="1">
    <line x1="157" y1="473" x2="167" y2="428"/>
    <circle cx="157" cy="473" r="2"/>
    <circle cx="167" cy="428" r="2"/>
  </g>
  <g stroke="black" stroke-width="1">
    <line x1="5" y1="5" x2="505" y2="5"/>
    <line x1="5" y1="5" x2="5" y2="505"/>
    <line x1="505" y1="505" x2="5" y2="505"/>
    <line x1="505" y1="505" x2="505" y2="5"/>
    <line x1="105" y1="2" x2="105" y2="8"/>
    <line x1="2" y1="105" x2="8" y2="105"/>
    <line x1="105" y1="502" x2="105" y2="508"/>
    <line x1="502" y1="105" x2="508" y2="105"/>
    <line x1="205" y1="2" x2="205" y2="8"/>
    <line x1="2" y1="205" x2="8" y2="205"/>
    <line x1="205" y1="502" x2="205" y2="508"/>
    <line x1="502" y1="205" x2="508" y2="205"/>
    <line x1="305" y1="2" x2="305" y2="8"/>
    <line x1="2" y1="305" x2="8" y2="305"/>
    <line x1="305" y1="502" x2="305" y2="508"/>
    <line x1="502" y1="305" x2="508" y2="305"/>
    <line x1="405" y1="2" x2="405" y2="8"/>
    <line x1="2" y1="405" x2="8" y2="405"/>
    <line x1="405" y1="502" x2="405" y2="508"/>
    <line x1="502" y1="405" x2="508" y2="405"/>
  </g>
  <g stroke="gray" stroke-width="1" stroke-dasharray="5,5">
    <line x1="105" y1="5" x2="105" y2="505"/>
    <line x1="5" y1="105" x2="505" y2="105"/>
    <line x1="205" y1="5" x2="205" y2="505"/>
    <line x1="5" y1="205" x2="505" y2="205"/>
    <line x1="305" y1="5" x2="305" y2="505"/>
    <line x1="5" y1="305" x2="505" y2="305"/>
    <line x1="405" y1="5" x2="405" y2="505"/>
    <line x1="5" y1="405" x2="505" y2="405"/>
  </g>
</svg>
