<?xml version="1.0" standalone="no"?>
<!DOCTYPE svg PUBLIC "-//W3C//DTD SVG 1.1//EN" 
  "http://www.w3.org/Graphics/SVG/1.1/DTD/svg11.dtd">
<svg width="620" height="620" version="1.1" id="toplevel"
    xmlns="http://www.w3.org/2000/svg"
    xmlns:xlink="http://www.w3.org/1999/xlink">
  <polygon points="200,519 337,427 505,435 511,309 615,239 522,101 213,187 7,383 5,409 131,416"
           fill="bisque"/>
  <g stroke="chocolate" stroke-width="1">
    <line x1="337" y1="427" x2="131" y2="416"/>
    <circle cx="337" cy="427" r="2"/>
    <circle cx="131" cy="416" r="2"/>
  </g>
  <g stroke="chocolate" stroke-width="1">
    <line x1="505" y1="435" x2="337" y2="427"/>
    <circle cx="505" cy="435" r="2"/>
    <circle cx="337" cy="427" r="2"/>
  </g>
  <g stroke="chocolate" stroke-width="1">
    <line x1="337" y1="427" x2="511" y2="309"/>
    <circle cx="337" cy="427" r="2"/>
    <circle cx="511" cy="309" r="2"/>
  </g>
  <g stroke="chocolate" stroke-width="1">
    <line x1="200" y1="519" x2="337" y2="427"/>
    <circle cx="200" cy="519" r="2"/>
    <circle cx="337" cy="427" r="2"/>
  </g>
  <g stroke="chocolate" stroke-width="1">
    <line x1="109" y1="383" x2="69" y2="324"/>
    <circle cx="109" cy="383" r="2"/>
    <circle cx="69" cy="324" r="2"/>
  </g>
  <g stroke="chocolate" stroke-width="1">
    <line x1="131" y1="416" x2="109" y2="383"/>
    <circle cx="131" cy="416" r="2"/>
    <circle cx="109" cy="383" r="2"/>
  </g>
  <g stroke="chocolate" stroke-width="1">
    <line x1="109" y1="383" x2="147" y2="383"/>
    <circle cx="109" cy="383" r="2"/>
    <circle cx="147" cy="383" r="2"/>
  </g>
  <g stroke="chocolate" stroke-width="1">
    <line x1="7" y1="383" x2="109" y2="383"/>
    <circle cx="7" cy="383" r="2"/>
    <circle cx="109" cy="383" r="2"/>
  </g>
  <g stroke="chocolate" stroke-width="1">
    <line x1="200" y1="519" x2="131" y2="416"/>
    <circle cx="200" cy="519" r="2"/>
    <circle cx="131" cy="416" r="2"/>
  </g>
  <g stroke="chocolate" stroke-width="1">
    <line x1="131" y1="416" x2="5" y2="409"/>
    <circle cx="131" cy="416" r="2"/>
    <circle cx="5" cy="409" r="2"/>
  </g>
  <g stroke="chocolate" stroke-width="1">
    <line x1="511" y1="309" x2="522" y2="101"/>
    <circle cx="511" cy="309" r="2"/>
    <circle cx="522" cy="101" r="2"/>
  </g>
  <g stroke="chocolate" stroke-width="1">
    <line x1="505" y1="435" x2="511" y2="309"/>
    <circle cx="505" cy="435" r="2"/>
    <circle cx="511" cy="309" r="2"/>
  </g>
  <g stroke="chocolate" stroke-width="1">
    <line x1="511" y1="309" x2="615" y2="239"/>
    <circle cx="511" cy="309" r="2"/>
    <circle cx="615" cy="239" r="2"/>
  </g>
  <g stroke="chocolate" stroke-width="1">
    <line x1="615" y1="239" x2="522" y2="101"/>
    <circle cx="615" cy="239" r="2"/>
    <circle cx="522" cy="101" r="2"/>
  </g>
  <g stroke="chocolate" stroke-width="1">
    <line x1="213" y1="187" x2="522" y2="101"/>
    <circle cx="213" cy="187" r="2"/>
    <circle cx="522" cy="101" r="2"/>
  </g>
  <g stroke="chocolate" stroke-width="1">
    <line x1="147" y1="383" x2="69" y2="324"/>
    <circle cx="147" cy="383" r="2"/>
    <circle cx="69" cy="324" r="2"/>
  </g>
  <g stroke="chocolate" stroke-width="1">
    <line x1="5" y1="409" x2="7" y2="383"/>
    <circle cx="5" cy="409" r="2"/>
    <circle cx="7" cy="383" r="2"/>
  </g>
  <g stroke="chocolate" stroke-width="1">
    <line x1="7" y1="383" x2="213" y2="187"/>
    <circle cx="7" cy="383" r="2"/>
    <circle cx="213" cy="187" r="2"/>
  </g>
  <g stroke="chocolate" stroke-width="1">
    <line x1="147" y1="383" x2="213" y2="187"/>
    <circle cx="147" cy="383" r="2"/>
    <circle cx="213" cy="187" r="2"/>
  </g>
  <g stroke="black" stroke-width="1">
    <line x1="60" y1="60" x2="560" y2="60"/>
    <line x1="60" y1="60" x2="60" y2="560"/>
    <line x1="560" y1="560" x2="60" y2="560"/>
    <line x1="560" y1="560" x2="560" y2="60"/>
    <line x1="160" y1="57" x2="160" y2="63"/>
    <line x1="57" y1="160" x2="63" y2="160"/>
    <line x1="160" y1="557" x2="160" y2="563"/>
    <line x1="557" y1="160" x2="563" y2="160"/>
    <line x1="260" y1="57" x2="260" y2="63"/>
    <line x1="57" y1="260" x2="63" y2="260"/>
    <line x1="260" y1="557" x2="260" y2="563"/>
    <line x1="557" y1="260" x2="563" y2="260"/>
    <line x1="360" y1="57" x2="360" y2="63"/>
    <line x1="57" y1="360" x2="63" y2="360"/>
    <line x1="360" y1="557" x2="360" y2="563"/>
    <line x1="557" y1="360" x2="563" y2="360"/>
    <line x1="460" y1="57" x2="460" y2="63"/>
    <line x1="57" y1="460" x2="63" y2="460"/>
    <line x1="460" y1="557" x2="460" y2="563"/>
    <line x1="557" y1="460" x2="563" y2="460"/>
  </g>
  <g stroke="gray" stroke-width="1" stroke-dasharray="5,5">
    <line x1="160" y1="60" x2="160" y2="560"/>
    <line x1="60" y1="160" x2="560" y2="160"/>
    <line x1="260" y1="60" x2="260" y2="560"/>
    <line x1="60" y1="260" x2="560" y2="260"/>
    <line x1="360" y1="60" x2="360" y2="560"/>
    <line x1="60" y1="360" x2="560" y2="360"/>
    <line x1="460" y1="60" x2="460" y2="560"/>
    <line x1="60" y1="460" x2="560" y2="460"/>
  </g>
</svg>
