<?xml version="1.0" standalone="no"?>
<!DOCTYPE svg PUBLIC "-//W3C//DTD SVG 1.1//EN" 
  "http://www.w3.org/Graphics/SVG/1.1/DTD/svg11.dtd">
<svg width="510" height="510" version="1.1" id="toplevel"
    xmlns="http://www.w3.org/2000/svg"
    xmlns:xlink="http://www.w3.org/1999/xlink">
  <polygon points="91,418 486,236 466,5 91,5 91,284 24,361" fill="bisque"/>
  <g stroke="chocolate" stroke-width="1">
    <line x1="242" y1="108" x2="296" y2="45"/>
    <circle cx="242" cy="108" r="2"/>
    <circle cx="296" cy="45" r="2"/>
  </g>
  <g stroke="chocolate" stroke-width="1">
    <line x1="91" y1="284" x2="242" y2="108"/>
    <circle cx="91" cy="284" r="2"/>
    <circle cx="242" cy="108" r="2"/>
  </g>
  <g stroke="chocolate" stroke-width="1">
    <line x1="242" y1="108" x2="233" y2="98"/>
    <circle cx="242" cy="108" r="2"/>
    <circle cx="233" cy="98" r="2"/>
  </g>
  <g stroke="chocolate" stroke-width="1">
    <line x1="387" y1="282" x2="242" y2="108"/>
    <circle cx="387" cy="282" r="2"/>
    <circle cx="242" cy="108" r="2"/>
  </g>
  <g stroke="chocolate" stroke-width="1">
    <line x1="357" y1="106" x2="296" y2="45"/>
    <circle cx="357" cy="106" r="2"/>
    <circle cx="296" cy="45" r="2"/>
  </g>
  <g stroke="chocolate" stroke-width="1">
    <line x1="486" y1="236" x2="357" y2="106"/>
    <circle cx="486" cy="236" r="2"/>
    <circle cx="357" cy="106" r="2"/>
  </g>
  <g stroke="chocolate" stroke-width="1">
    <line x1="357" y1="106" x2="344" y2="25"/>
    <circle cx="357" cy="106" r="2"/>
    <circle cx="344" cy="25" r="2"/>
  </g>
  <g stroke="chocolate" stroke-width="1">
    <line x1="387" y1="282" x2="357" y2="106"/>
    <circle cx="387" cy="282" r="2"/>
    <circle cx="357" cy="106" r="2"/>
  </g>
  <g stroke="chocolate" stroke-width="1">
    <line x1="24" y1="361" x2="91" y2="284"/>
    <circle cx="24" cy="361" r="2"/>
    <circle cx="91" cy="284" r="2"/>
  </g>
  <g stroke="chocolate" stroke-width="1">
    <line x1="91" y1="284" x2="91" y2="5"/>
    <circle cx="91" cy="284" r="2"/>
    <circle cx="91" cy="5" r="2"/>
  </g>
  <g stroke="chocolate" stroke-width="1">
    <line x1="91" y1="418" x2="91" y2="284"/>
    <circle cx="91" cy="418" r="2"/>
    <circle cx="91" cy="284" r="2"/>
  </g>
  <g stroke="chocolate" stroke-width="1">
    <line x1="91" y1="5" x2="466" y2="5"/>
    <circle cx="91" cy="5" r="2"/>
    <circle cx="466" cy="5" r="2"/>
  </g>
  <g stroke="chocolate" stroke-width="1">
    <line x1="344" y1="25" x2="466" y2="5"/>
    <circle cx="344" cy="25" r="2"/>
    <circle cx="466" cy="5" r="2"/>
  </g>
  <g stroke="chocolate" stroke-width="1">
    <line x1="233" y1="98" x2="296" y2="45"/>
    <circle cx="233" cy="98" r="2"/>
    <circle cx="296" cy="45" r="2"/>
  </g>
  <g stroke="chocolate" stroke-width="1">
    <line x1="91" y1="418" x2="486" y2="236"/>
    <circle cx="91" cy="418" r="2"/>
    <circle cx="486" cy="236" r="2"/>
  </g>
  <g stroke="chocolate" stroke-width="1">
    <line x1="91" y1="418" x2="24" y2="361"/>
    <circle cx="91" cy="418" r="2"/>
    <circle cx="24" cy="361" r="2"/>
  </g>
  <g stroke="chocolate" stroke-width="1">
    <line x1="486" y1="236" x2="466" y2="5"/>
    <circle cx="486" cy="236" r="2"/>
    <circle cx="466" cy="5" r="2"/>
  </g>
  <g stroke="black" stroke-width="1">
    <line x1="5" y1="5" x2="505" y2="5"/>
    <line x1="5" y1="5" x2="5" y2="505"/>
    <line x1="505" y1="505" x2="5" y2="505"/>
    <line x1="505" y1="505" x2="505" y2="5"/>
    <line x1="105" y1="2" x2="105" y2="8"/>
    <line x1="2" y1="105" x2="8" y2="105"/>
    <line x1="105" y1="502" x2="105" y2="508"/>
    <line x1="502" y1="105" x2="508" y2="105"/>
    <line x1="205" y1="2" x2="205" y2="8"/>
    <line x1="2" y1="205" x2="8" y2="205"/>
    <line x1="205" y1="502" x2="205" y2="508"/>
    <line x1="502" y1="205" x2="508" y2="205"/>
    <line x1="305" y1="2" x2="305" y2="8"/>
    <line x1="2" y1="305" x2="8" y2="305"/>
    <line x1="305" y1="502" x2="305" y2="508"/>
    <line x1="502" y1="305" x2="508" y2="305"/>
    <line x1="405" y1="2" x2="405" y2="8"/>
    <line x1="2" y1="405" x2="8" y2="405"/>
    <line x1="405" y1="502" x2="405" y2="508"/>
    <line x1="502" y1="405" x2="508" y2="405"/>
  </g>
  <g stroke="gray" stroke-width="1" stroke-dasharray="5,5">
    <line x1="105" y1="5" x2="105" y2="505"/>
    <line x1="5" y1="105" x2="505" y2="105"/>
    <line x1="205" y1="5" x2="205" y2="505"/>
    <line x1="5" y1="205" x2="505" y2="205"/>
    <line x1="305" y1="5" x2="305" y2="505"/>
    <line x1="5" y1="305" x2="505" y2="305"/>
    <line x1="405" y1="5" x2="405" y2="505"/>
    <line x1="5" y1="405" x2="505" y2="405"/>
  </g>
</svg>
