<?xml version="1.0" standalone="no"?>
<!DOCTYPE svg PUBLIC "-//W3C//DTD SVG 1.1//EN" 
  "http://www.w3.org/Graphics/SVG/1.1/DTD/svg11.dtd">
<svg width="510" height="510" version="1.1" id="toplevel"
    xmlns="http://www.w3.org/2000/svg"
    xmlns:xlink="http://www.w3.org/1999/xlink">
  <polygon points="167,396 315,396 328,301 334,294 329,291 343,188 242,114 193,181 191,174 167,181"
           fill="bisque"/>
  <g stroke="chocolate" stroke-width="1">
    <line x1="207" y1="230" x2="207" y2="229"/>
    <circle cx="207" cy="230" r="2"/>
    <circle cx="207" cy="229" r="2"/>
  </g>
  <g stroke="chocolate" stroke-width="1">
    <line x1="209" y1="238" x2="207" y2="230"/>
    <circle cx="209" cy="238" r="2"/>
    <circle cx="207" cy="230" r="2"/>
  </g>
  <g stroke="chocolate" stroke-width="1">
    <line x1="207" y1="230" x2="206" y2="229"/>
    <circle cx="207" cy="230" r="2"/>
    <circle cx="206" cy="229" r="2"/>
  </g>
  <g stroke="chocolate" stroke-width="1">
    <line x1="216" y1="236" x2="207" y2="230"/>
    <circle cx="216" cy="236" r="2"/>
    <circle cx="207" cy="230" r="2"/>
  </g>
  <g stroke="chocolate" stroke-width="1">
    <line x1="292" y1="286" x2="292" y2="261"/>
    <circle cx="292" cy="286" r="2"/>
    <circle cx="292" cy="261" r="2"/>
  </g>
  <g stroke="chocolate" stroke-width="1">
    <line x1="292" y1="300" x2="292" y2="286"/>
    <circle cx="292" cy="300" r="2"/>
    <circle cx="292" cy="286" r="2"/>
  </g>
  <g stroke="chocolate" stroke-width="1">
    <line x1="292" y1="286" x2="216" y2="236"/>
    <circle cx="292" cy="286" r="2"/>
    <circle cx="216" cy="236" r="2"/>
  </g>
  <g stroke="chocolate" stroke-width="1">
    <line x1="323" y1="307" x2="292" y2="286"/>
    <circle cx="323" cy="307" r="2"/>
    <circle cx="292" cy="286" r="2"/>
  </g>
  <g stroke="chocolate" stroke-width="1">
    <line x1="219" y1="273" x2="209" y2="238"/>
    <circle cx="219" cy="273" r="2"/>
    <circle cx="209" cy="238" r="2"/>
  </g>
  <g stroke="chocolate" stroke-width="1">
    <line x1="209" y1="238" x2="216" y2="236"/>
    <circle cx="209" cy="238" r="2"/>
    <circle cx="216" cy="236" r="2"/>
  </g>
  <g stroke="chocolate" stroke-width="1">
    <line x1="187" y1="246" x2="209" y2="238"/>
    <circle cx="187" cy="246" r="2"/>
    <circle cx="209" cy="238" r="2"/>
  </g>
  <g stroke="chocolate" stroke-width="1">
    <line x1="203" y1="191" x2="194" y2="184"/>
    <circle cx="203" cy="191" r="2"/>
    <circle cx="194" cy="184" r="2"/>
  </g>
  <g stroke="chocolate" stroke-width="1">
    <line x1="245" y1="225" x2="203" y2="191"/>
    <circle cx="245" cy="225" r="2"/>
    <circle cx="203" cy="191" r="2"/>
  </g>
  <g stroke="chocolate" stroke-width="1">
    <line x1="203" y1="191" x2="196" y2="189"/>
    <circle cx="203" cy="191" r="2"/>
    <circle cx="196" cy="189" r="2"/>
  </g>
  <g stroke="chocolate" stroke-width="1">
    <line x1="278" y1="212" x2="203" y2="191"/>
    <circle cx="278" cy="212" r="2"/>
    <circle cx="203" cy="191" r="2"/>
  </g>
  <g stroke="chocolate" stroke-width="1">
    <line x1="292" y1="261" x2="292" y2="229"/>
    <circle cx="292" cy="261" r="2"/>
    <circle cx="292" cy="229" r="2"/>
  </g>
  <g stroke="chocolate" stroke-width="1">
    <line x1="292" y1="261" x2="251" y2="229"/>
    <circle cx="292" cy="261" r="2"/>
    <circle cx="251" cy="229" r="2"/>
  </g>
  <g stroke="chocolate" stroke-width="1">
    <line x1="329" y1="291" x2="292" y2="261"/>
    <circle cx="329" cy="291" r="2"/>
    <circle cx="292" cy="261" r="2"/>
  </g>
  <g stroke="chocolate" stroke-width="1">
    <line x1="207" y1="229" x2="196" y2="189"/>
    <circle cx="207" cy="229" r="2"/>
    <circle cx="196" cy="189" r="2"/>
  </g>
  <g stroke="chocolate" stroke-width="1">
    <line x1="207" y1="229" x2="233" y2="229"/>
    <circle cx="207" cy="229" r="2"/>
    <circle cx="233" cy="229" r="2"/>
  </g>
  <g stroke="chocolate" stroke-width="1">
    <line x1="206" y1="229" x2="207" y2="229"/>
    <circle cx="206" cy="229" r="2"/>
    <circle cx="207" cy="229" r="2"/>
  </g>
  <g stroke="chocolate" stroke-width="1">
    <line x1="216" y1="236" x2="233" y2="229"/>
    <circle cx="216" cy="236" r="2"/>
    <circle cx="233" cy="229" r="2"/>
  </g>
  <g stroke="chocolate" stroke-width="1">
    <line x1="175" y1="229" x2="206" y2="229"/>
    <circle cx="175" cy="229" r="2"/>
    <circle cx="206" cy="229" r="2"/>
  </g>
  <g stroke="chocolate" stroke-width="1">
    <line x1="167" y1="229" x2="175" y2="229"/>
    <circle cx="167" cy="229" r="2"/>
    <circle cx="175" cy="229" r="2"/>
  </g>
  <g stroke="chocolate" stroke-width="1">
    <line x1="175" y1="229" x2="167" y2="217"/>
    <circle cx="175" cy="229" r="2"/>
    <circle cx="167" cy="217" r="2"/>
  </g>
  <g stroke="chocolate" stroke-width="1">
    <line x1="187" y1="246" x2="175" y2="229"/>
    <circle cx="187" cy="246" r="2"/>
    <circle cx="175" cy="229" r="2"/>
  </g>
  <g stroke="chocolate" stroke-width="1">
    <line x1="251" y1="229" x2="245" y2="225"/>
    <circle cx="251" cy="229" r="2"/>
    <circle cx="245" cy="225" r="2"/>
  </g>
  <g stroke="chocolate" stroke-width="1">
    <line x1="245" y1="225" x2="278" y2="212"/>
    <circle cx="245" cy="225" r="2"/>
    <circle cx="278" cy="212" r="2"/>
  </g>
  <g stroke="chocolate" stroke-width="1">
    <line x1="233" y1="229" x2="245" y2="225"/>
    <circle cx="233" cy="229" r="2"/>
    <circle cx="245" cy="225" r="2"/>
  </g>
  <g stroke="chocolate" stroke-width="1">
    <line x1="174" y1="208" x2="167" y2="203"/>
    <circle cx="174" cy="208" r="2"/>
    <circle cx="167" cy="203" r="2"/>
  </g>
  <g stroke="chocolate" stroke-width="1">
    <line x1="206" y1="229" x2="174" y2="208"/>
    <circle cx="206" cy="229" r="2"/>
    <circle cx="174" cy="208" r="2"/>
  </g>
  <g stroke="chocolate" stroke-width="1">
    <line x1="174" y1="208" x2="187" y2="189"/>
    <circle cx="174" cy="208" r="2"/>
    <circle cx="187" cy="189" r="2"/>
  </g>
  <g stroke="chocolate" stroke-width="1">
    <line x1="167" y1="217" x2="174" y2="208"/>
    <circle cx="167" cy="217" r="2"/>
    <circle cx="174" cy="208" r="2"/>
  </g>
  <g stroke="chocolate" stroke-width="1">
    <line x1="196" y1="189" x2="190" y2="187"/>
    <circle cx="196" cy="189" r="2"/>
    <circle cx="190" cy="187" r="2"/>
  </g>
  <g stroke="chocolate" stroke-width="1">
    <line x1="196" y1="189" x2="193" y2="181"/>
    <circle cx="196" cy="189" r="2"/>
    <circle cx="193" cy="181" r="2"/>
  </g>
  <g stroke="chocolate" stroke-width="1">
    <line x1="227" y1="300" x2="203" y2="267"/>
    <circle cx="227" cy="300" r="2"/>
    <circle cx="203" cy="267" r="2"/>
  </g>
  <g stroke="chocolate" stroke-width="1">
    <line x1="249" y1="331" x2="227" y2="300"/>
    <circle cx="249" cy="331" r="2"/>
    <circle cx="227" cy="300" r="2"/>
  </g>
  <g stroke="chocolate" stroke-width="1">
    <line x1="227" y1="300" x2="219" y2="273"/>
    <circle cx="227" cy="300" r="2"/>
    <circle cx="219" cy="273" r="2"/>
  </g>
  <g stroke="chocolate" stroke-width="1">
    <line x1="236" y1="334" x2="227" y2="300"/>
    <circle cx="236" cy="334" r="2"/>
    <circle cx="227" cy="300" r="2"/>
  </g>
  <g stroke="chocolate" stroke-width="1">
    <line x1="203" y1="267" x2="187" y2="246"/>
    <circle cx="203" cy="267" r="2"/>
    <circle cx="187" cy="246" r="2"/>
  </g>
  <g stroke="chocolate" stroke-width="1">
    <line x1="203" y1="267" x2="167" y2="254"/>
    <circle cx="203" cy="267" r="2"/>
    <circle cx="167" cy="254" r="2"/>
  </g>
  <g stroke="chocolate" stroke-width="1">
    <line x1="219" y1="273" x2="203" y2="267"/>
    <circle cx="219" cy="273" r="2"/>
    <circle cx="203" cy="267" r="2"/>
  </g>
  <g stroke="chocolate" stroke-width="1">
    <line x1="292" y1="319" x2="292" y2="300"/>
    <circle cx="292" cy="319" r="2"/>
    <circle cx="292" cy="300" r="2"/>
  </g>
  <g stroke="chocolate" stroke-width="1">
    <line x1="292" y1="300" x2="219" y2="273"/>
    <circle cx="292" cy="300" r="2"/>
    <circle cx="219" cy="273" r="2"/>
  </g>
  <g stroke="chocolate" stroke-width="1">
    <line x1="320" y1="311" x2="292" y2="300"/>
    <circle cx="320" cy="311" r="2"/>
    <circle cx="292" cy="300" r="2"/>
  </g>
  <g stroke="chocolate" stroke-width="1">
    <line x1="251" y1="229" x2="338" y2="229"/>
    <circle cx="251" cy="229" r="2"/>
    <circle cx="338" cy="229" r="2"/>
  </g>
  <g stroke="chocolate" stroke-width="1">
    <line x1="233" y1="229" x2="251" y2="229"/>
    <circle cx="233" cy="229" r="2"/>
    <circle cx="251" cy="229" r="2"/>
  </g>
  <g stroke="chocolate" stroke-width="1">
    <line x1="167" y1="254" x2="187" y2="246"/>
    <circle cx="167" cy="254" r="2"/>
    <circle cx="187" cy="246" r="2"/>
  </g>
  <g stroke="chocolate" stroke-width="1">
    <line x1="252" y1="334" x2="292" y2="321"/>
    <circle cx="252" cy="334" r="2"/>
    <circle cx="292" cy="321" r="2"/>
  </g>
  <g stroke="chocolate" stroke-width="1">
    <line x1="179" y1="358" x2="252" y2="334"/>
    <circle cx="179" cy="358" r="2"/>
    <circle cx="252" cy="334" r="2"/>
  </g>
  <g stroke="chocolate" stroke-width="1">
    <line x1="252" y1="334" x2="249" y2="331"/>
    <circle cx="252" cy="334" r="2"/>
    <circle cx="249" cy="331" r="2"/>
  </g>
  <g stroke="chocolate" stroke-width="1">
    <line x1="292" y1="389" x2="252" y2="334"/>
    <circle cx="292" cy="389" r="2"/>
    <circle cx="252" cy="334" r="2"/>
  </g>
  <g stroke="chocolate" stroke-width="1">
    <line x1="188" y1="187" x2="193" y2="181"/>
    <circle cx="188" cy="187" r="2"/>
    <circle cx="193" cy="181" r="2"/>
  </g>
  <g stroke="chocolate" stroke-width="1">
    <line x1="187" y1="189" x2="188" y2="187"/>
    <circle cx="187" cy="189" r="2"/>
    <circle cx="188" cy="187" r="2"/>
  </g>
  <g stroke="chocolate" stroke-width="1">
    <line x1="188" y1="187" x2="167" y2="181"/>
    <circle cx="188" cy="187" r="2"/>
    <circle cx="167" cy="181" r="2"/>
  </g>
  <g stroke="chocolate" stroke-width="1">
    <line x1="190" y1="187" x2="188" y2="187"/>
    <circle cx="190" cy="187" r="2"/>
    <circle cx="188" cy="187" r="2"/>
  </g>
  <g stroke="chocolate" stroke-width="1">
    <line x1="278" y1="212" x2="343" y2="188"/>
    <circle cx="278" cy="212" r="2"/>
    <circle cx="343" cy="188" r="2"/>
  </g>
  <g stroke="chocolate" stroke-width="1">
    <line x1="338" y1="229" x2="278" y2="212"/>
    <circle cx="338" cy="229" r="2"/>
    <circle cx="278" cy="212" r="2"/>
  </g>
  <g stroke="chocolate" stroke-width="1">
    <line x1="179" y1="358" x2="167" y2="354"/>
    <circle cx="179" cy="358" r="2"/>
    <circle cx="167" cy="354" r="2"/>
  </g>
  <g stroke="chocolate" stroke-width="1">
    <line x1="291" y1="389" x2="179" y2="358"/>
    <circle cx="291" cy="389" r="2"/>
    <circle cx="179" cy="358" r="2"/>
  </g>
  <g stroke="chocolate" stroke-width="1">
    <line x1="167" y1="362" x2="179" y2="358"/>
    <circle cx="167" cy="362" r="2"/>
    <circle cx="179" cy="358" r="2"/>
  </g>
  <g stroke="chocolate" stroke-width="1">
    <line x1="292" y1="319" x2="320" y2="311"/>
    <circle cx="292" cy="319" r="2"/>
    <circle cx="320" cy="311" r="2"/>
  </g>
  <g stroke="chocolate" stroke-width="1">
    <line x1="249" y1="331" x2="292" y2="319"/>
    <circle cx="249" cy="331" r="2"/>
    <circle cx="292" cy="319" r="2"/>
  </g>
  <g stroke="chocolate" stroke-width="1">
    <line x1="292" y1="321" x2="292" y2="319"/>
    <circle cx="292" cy="321" r="2"/>
    <circle cx="292" cy="319" r="2"/>
  </g>
  <g stroke="chocolate" stroke-width="1">
    <line x1="187" y1="189" x2="190" y2="187"/>
    <circle cx="187" cy="189" r="2"/>
    <circle cx="190" cy="187" r="2"/>
  </g>
  <g stroke="chocolate" stroke-width="1">
    <line x1="167" y1="203" x2="187" y2="189"/>
    <circle cx="167" cy="203" r="2"/>
    <circle cx="187" cy="189" r="2"/>
  </g>
  <g stroke="chocolate" stroke-width="1">
    <line x1="323" y1="307" x2="328" y2="301"/>
    <circle cx="323" cy="307" r="2"/>
    <circle cx="328" cy="301" r="2"/>
  </g>
  <g stroke="chocolate" stroke-width="1">
    <line x1="320" y1="311" x2="323" y2="307"/>
    <circle cx="320" cy="311" r="2"/>
    <circle cx="323" cy="307" r="2"/>
  </g>
  <g stroke="chocolate" stroke-width="1">
    <line x1="327" y1="310" x2="323" y2="307"/>
    <circle cx="327" cy="310" r="2"/>
    <circle cx="323" cy="307" r="2"/>
  </g>
  <g stroke="chocolate" stroke-width="1">
    <line x1="329" y1="291" x2="343" y2="188"/>
    <circle cx="329" cy="291" r="2"/>
    <circle cx="343" cy="188" r="2"/>
  </g>
  <g stroke="chocolate" stroke-width="1">
    <line x1="328" y1="301" x2="329" y2="291"/>
    <circle cx="328" cy="301" r="2"/>
    <circle cx="329" cy="291" r="2"/>
  </g>
  <g stroke="chocolate" stroke-width="1">
    <line x1="334" y1="294" x2="329" y2="291"/>
    <circle cx="334" cy="294" r="2"/>
    <circle cx="329" cy="291" r="2"/>
  </g>
  <g stroke="chocolate" stroke-width="1">
    <line x1="167" y1="354" x2="249" y2="331"/>
    <circle cx="167" cy="354" r="2"/>
    <circle cx="249" cy="331" r="2"/>
  </g>
  <g stroke="chocolate" stroke-width="1">
    <line x1="190" y1="187" x2="194" y2="184"/>
    <circle cx="190" cy="187" r="2"/>
    <circle cx="194" cy="184" r="2"/>
  </g>
  <g stroke="chocolate" stroke-width="1">
    <line x1="315" y1="396" x2="291" y2="389"/>
    <circle cx="315" cy="396" r="2"/>
    <circle cx="291" cy="389" r="2"/>
  </g>
  <g stroke="chocolate" stroke-width="1">
    <line x1="291" y1="389" x2="292" y2="389"/>
    <circle cx="291" cy="389" r="2"/>
    <circle cx="292" cy="389" r="2"/>
  </g>
  <g stroke="chocolate" stroke-width="1">
    <line x1="271" y1="396" x2="291" y2="389"/>
    <circle cx="271" cy="396" r="2"/>
    <circle cx="291" cy="389" r="2"/>
  </g>
  <g stroke="chocolate" stroke-width="1">
    <line x1="292" y1="321" x2="327" y2="310"/>
    <circle cx="292" cy="321" r="2"/>
    <circle cx="327" cy="310" r="2"/>
  </g>
  <g stroke="chocolate" stroke-width="1">
    <line x1="292" y1="389" x2="292" y2="321"/>
    <circle cx="292" cy="389" r="2"/>
    <circle cx="292" cy="321" r="2"/>
  </g>
  <g stroke="chocolate" stroke-width="1">
    <line x1="193" y1="181" x2="191" y2="174"/>
    <circle cx="193" cy="181" r="2"/>
    <circle cx="191" cy="174" r="2"/>
  </g>
  <g stroke="chocolate" stroke-width="1">
    <line x1="193" y1="181" x2="242" y2="114"/>
    <circle cx="193" cy="181" r="2"/>
    <circle cx="242" cy="114" r="2"/>
  </g>
  <g stroke="chocolate" stroke-width="1">
    <line x1="315" y1="396" x2="328" y2="301"/>
    <circle cx="315" cy="396" r="2"/>
    <circle cx="328" cy="301" r="2"/>
  </g>
  <g stroke="chocolate" stroke-width="1">
    <line x1="328" y1="301" x2="334" y2="294"/>
    <circle cx="328" cy="301" r="2"/>
    <circle cx="334" cy="294" r="2"/>
  </g>
  <g stroke="chocolate" stroke-width="1">
    <line x1="343" y1="188" x2="242" y2="114"/>
    <circle cx="343" cy="188" r="2"/>
    <circle cx="242" cy="114" r="2"/>
  </g>
  <g stroke="chocolate" stroke-width="1">
    <line x1="271" y1="396" x2="167" y2="362"/>
    <circle cx="271" cy="396" r="2"/>
    <circle cx="167" cy="362" r="2"/>
  </g>
  <g stroke="chocolate" stroke-width="1">
    <line x1="167" y1="181" x2="191" y2="174"/>
    <circle cx="167" cy="181" r="2"/>
    <circle cx="191" cy="174" r="2"/>
  </g>
  <g stroke="chocolate" stroke-width="1">
    <line x1="167" y1="396" x2="315" y2="396"/>
    <circle cx="167" cy="396" r="2"/>
    <circle cx="315" cy="396" r="2"/>
  </g>
  <g stroke="chocolate" stroke-width="1">
    <line x1="167" y1="396" x2="167" y2="181"/>
    <circle cx="167" cy="396" r="2"/>
    <circle cx="167" cy="181" r="2"/>
  </g>
  <g stroke="black" stroke-width="1">
    <line x1="5" y1="5" x2="505" y2="5"/>
    <line x1="5" y1="5" x2="5" y2="505"/>
    <line x1="505" y1="505" x2="5" y2="505"/>
    <line x1="505" y1="505" x2="505" y2="5"/>
    <line x1="105" y1="2" x2="105" y2="8"/>
    <line x1="2" y1="105" x2="8" y2="105"/>
    <line x1="105" y1="502" x2="105" y2="508"/>
    <line x1="502" y1="105" x2="508" y2="105"/>
    <line x1="205" y1="2" x2="205" y2="8"/>
    <line x1="2" y1="205" x2="8" y2="205"/>
    <line x1="205" y1="502" x2="205" y2="508"/>
    <line x1="502" y1="205" x2="508" y2="205"/>
    <line x1="305" y1="2" x2="305" y2="8"/>
    <line x1="2" y1="305" x2="8" y2="305"/>
    <line x1="305" y1="502" x2="305" y2="508"/>
    <line x1="502" y1="305" x2="508" y2="305"/>
    <line x1="405" y1="2" x2="405" y2="8"/>
    <line x1="2" y1="405" x2="8" y2="405"/>
    <line x1="405" y1="502" x2="405" y2="508"/>
    <line x1="502" y1="405" x2="508" y2="405"/>
  </g>
  <g stroke="gray" stroke-width="1" stroke-dasharray="5,5">
    <line x1="105" y1="5" x2="105" y2="505"/>
    <line x1="5" y1="105" x2="505" y2="105"/>
    <line x1="205" y1="5" x2="205" y2="505"/>
    <line x1="5" y1="205" x2="505" y2="205"/>
    <line x1="305" y1="5" x2="305" y2="505"/>
    <line x1="5" y1="305" x2="505" y2="305"/>
    <line x1="405" y1="5" x2="405" y2="505"/>
    <line x1="5" y1="405" x2="505" y2="405"/>
  </g>
</svg>
