<?xml version="1.0" standalone="no"?>
<!DOCTYPE svg PUBLIC "-//W3C//DTD SVG 1.1//EN" 
  "http://www.w3.org/Graphics/SVG/1.1/DTD/svg11.dtd">
<svg width="510" height="510" version="1.1" id="toplevel"
    xmlns="http://www.w3.org/2000/svg"
    xmlns:xlink="http://www.w3.org/1999/xlink">
  <polygon points="250,447 407,106 403,104 412,90 377,58 350,68 229,24 98,342 106,380"
           fill="bisque"/>
  <g stroke="chocolate" stroke-width="1">
    <line x1="335" y1="73" x2="229" y2="24"/>
    <circle cx="335" cy="73" r="2"/>
    <circle cx="229" cy="24" r="2"/>
  </g>
  <g stroke="chocolate" stroke-width="1">
    <line x1="342" y1="76" x2="335" y2="73"/>
    <circle cx="342" cy="76" r="2"/>
    <circle cx="335" cy="73" r="2"/>
  </g>
  <g stroke="chocolate" stroke-width="1">
    <line x1="335" y1="73" x2="350" y2="68"/>
    <circle cx="335" cy="73" r="2"/>
    <circle cx="350" cy="68" r="2"/>
  </g>
  <g stroke="chocolate" stroke-width="1">
    <line x1="266" y1="99" x2="335" y2="73"/>
    <circle cx="266" cy="99" r="2"/>
    <circle cx="335" cy="73" r="2"/>
  </g>
  <g stroke="chocolate" stroke-width="1">
    <line x1="321" y1="177" x2="313" y2="169"/>
    <circle cx="321" cy="177" r="2"/>
    <circle cx="313" cy="169" r="2"/>
  </g>
  <g stroke="chocolate" stroke-width="1">
    <line x1="323" y1="179" x2="321" y2="177"/>
    <circle cx="323" cy="179" r="2"/>
    <circle cx="321" cy="177" r="2"/>
  </g>
  <g stroke="chocolate" stroke-width="1">
    <line x1="321" y1="177" x2="288" y2="173"/>
    <circle cx="321" cy="177" r="2"/>
    <circle cx="288" cy="173" r="2"/>
  </g>
  <g stroke="chocolate" stroke-width="1">
    <line x1="323" y1="177" x2="321" y2="177"/>
    <circle cx="323" cy="177" r="2"/>
    <circle cx="321" cy="177" r="2"/>
  </g>
  <g stroke="chocolate" stroke-width="1">
    <line x1="368" y1="88" x2="342" y2="76"/>
    <circle cx="368" cy="88" r="2"/>
    <circle cx="342" cy="76" r="2"/>
  </g>
  <g stroke="chocolate" stroke-width="1">
    <line x1="370" y1="89" x2="368" y2="88"/>
    <circle cx="370" cy="89" r="2"/>
    <circle cx="368" cy="88" r="2"/>
  </g>
  <g stroke="chocolate" stroke-width="1">
    <line x1="368" y1="88" x2="368" y2="86"/>
    <circle cx="368" cy="88" r="2"/>
    <circle cx="368" cy="86" r="2"/>
  </g>
  <g stroke="chocolate" stroke-width="1">
    <line x1="359" y1="118" x2="368" y2="88"/>
    <circle cx="359" cy="118" r="2"/>
    <circle cx="368" cy="88" r="2"/>
  </g>
  <g stroke="chocolate" stroke-width="1">
    <line x1="342" y1="76" x2="358" y2="71"/>
    <circle cx="342" cy="76" r="2"/>
    <circle cx="358" cy="71" r="2"/>
  </g>
  <g stroke="chocolate" stroke-width="1">
    <line x1="266" y1="99" x2="342" y2="76"/>
    <circle cx="266" cy="99" r="2"/>
    <circle cx="342" cy="76" r="2"/>
  </g>
  <g stroke="chocolate" stroke-width="1">
    <line x1="350" y1="68" x2="229" y2="24"/>
    <circle cx="350" cy="68" r="2"/>
    <circle cx="229" cy="24" r="2"/>
  </g>
  <g stroke="chocolate" stroke-width="1">
    <line x1="371" y1="75" x2="350" y2="68"/>
    <circle cx="371" cy="75" r="2"/>
    <circle cx="350" cy="68" r="2"/>
  </g>
  <g stroke="chocolate" stroke-width="1">
    <line x1="350" y1="68" x2="377" y2="58"/>
    <circle cx="350" cy="68" r="2"/>
    <circle cx="377" cy="58" r="2"/>
  </g>
  <g stroke="chocolate" stroke-width="1">
    <line x1="204" y1="150" x2="182" y2="140"/>
    <circle cx="204" cy="150" r="2"/>
    <circle cx="182" cy="140" r="2"/>
  </g>
  <g stroke="chocolate" stroke-width="1">
    <line x1="271" y1="181" x2="204" y2="150"/>
    <circle cx="271" cy="181" r="2"/>
    <circle cx="204" cy="150" r="2"/>
  </g>
  <g stroke="chocolate" stroke-width="1">
    <line x1="204" y1="150" x2="202" y2="147"/>
    <circle cx="204" cy="150" r="2"/>
    <circle cx="202" cy="147" r="2"/>
  </g>
  <g stroke="chocolate" stroke-width="1">
    <line x1="230" y1="199" x2="204" y2="150"/>
    <circle cx="230" cy="199" r="2"/>
    <circle cx="204" cy="150" r="2"/>
  </g>
  <g stroke="chocolate" stroke-width="1">
    <line x1="282" y1="176" x2="288" y2="173"/>
    <circle cx="282" cy="176" r="2"/>
    <circle cx="288" cy="173" r="2"/>
  </g>
  <g stroke="chocolate" stroke-width="1">
    <line x1="271" y1="181" x2="282" y2="176"/>
    <circle cx="271" cy="181" r="2"/>
    <circle cx="282" cy="176" r="2"/>
  </g>
  <g stroke="chocolate" stroke-width="1">
    <line x1="282" y1="176" x2="202" y2="147"/>
    <circle cx="282" cy="176" r="2"/>
    <circle cx="202" cy="147" r="2"/>
  </g>
  <g stroke="chocolate" stroke-width="1">
    <line x1="323" y1="191" x2="282" y2="176"/>
    <circle cx="323" cy="191" r="2"/>
    <circle cx="282" cy="176" r="2"/>
  </g>
  <g stroke="chocolate" stroke-width="1">
    <line x1="311" y1="199" x2="271" y2="181"/>
    <circle cx="311" cy="199" r="2"/>
    <circle cx="271" cy="181" r="2"/>
  </g>
  <g stroke="chocolate" stroke-width="1">
    <line x1="230" y1="199" x2="271" y2="181"/>
    <circle cx="230" cy="199" r="2"/>
    <circle cx="271" cy="181" r="2"/>
  </g>
  <g stroke="chocolate" stroke-width="1">
    <line x1="313" y1="169" x2="345" y2="164"/>
    <circle cx="313" cy="169" r="2"/>
    <circle cx="345" cy="164" r="2"/>
  </g>
  <g stroke="chocolate" stroke-width="1">
    <line x1="288" y1="173" x2="313" y2="169"/>
    <circle cx="288" cy="173" r="2"/>
    <circle cx="313" cy="169" r="2"/>
  </g>
  <g stroke="chocolate" stroke-width="1">
    <line x1="313" y1="169" x2="246" y2="106"/>
    <circle cx="313" cy="169" r="2"/>
    <circle cx="246" cy="106" r="2"/>
  </g>
  <g stroke="chocolate" stroke-width="1">
    <line x1="328" y1="177" x2="323" y2="177"/>
    <circle cx="328" cy="177" r="2"/>
    <circle cx="323" cy="177" r="2"/>
  </g>
  <g stroke="chocolate" stroke-width="1">
    <line x1="323" y1="177" x2="324" y2="167"/>
    <circle cx="323" cy="177" r="2"/>
    <circle cx="324" cy="167" r="2"/>
  </g>
  <g stroke="chocolate" stroke-width="1">
    <line x1="323" y1="179" x2="323" y2="177"/>
    <circle cx="323" cy="179" r="2"/>
    <circle cx="323" cy="177" r="2"/>
  </g>
  <g stroke="chocolate" stroke-width="1">
    <line x1="145" y1="310" x2="163" y2="298"/>
    <circle cx="145" cy="310" r="2"/>
    <circle cx="163" cy="298" r="2"/>
  </g>
  <g stroke="chocolate" stroke-width="1">
    <line x1="98" y1="342" x2="145" y2="310"/>
    <circle cx="98" cy="342" r="2"/>
    <circle cx="145" cy="310" r="2"/>
  </g>
  <g stroke="chocolate" stroke-width="1">
    <line x1="145" y1="310" x2="126" y2="308"/>
    <circle cx="145" cy="310" r="2"/>
    <circle cx="126" cy="308" r="2"/>
  </g>
  <g stroke="chocolate" stroke-width="1">
    <line x1="168" y1="313" x2="145" y2="310"/>
    <circle cx="168" cy="313" r="2"/>
    <circle cx="145" cy="310" r="2"/>
  </g>
  <g stroke="chocolate" stroke-width="1">
    <line x1="403" y1="104" x2="370" y2="89"/>
    <circle cx="403" cy="104" r="2"/>
    <circle cx="370" cy="89" r="2"/>
  </g>
  <g stroke="chocolate" stroke-width="1">
    <line x1="370" y1="89" x2="368" y2="86"/>
    <circle cx="370" cy="89" r="2"/>
    <circle cx="368" cy="86" r="2"/>
  </g>
  <g stroke="chocolate" stroke-width="1">
    <line x1="392" y1="122" x2="370" y2="89"/>
    <circle cx="392" cy="122" r="2"/>
    <circle cx="370" cy="89" r="2"/>
  </g>
  <g stroke="chocolate" stroke-width="1">
    <line x1="371" y1="75" x2="377" y2="58"/>
    <circle cx="371" cy="75" r="2"/>
    <circle cx="377" cy="58" r="2"/>
  </g>
  <g stroke="chocolate" stroke-width="1">
    <line x1="368" y1="86" x2="371" y2="75"/>
    <circle cx="368" cy="86" r="2"/>
    <circle cx="371" cy="75" r="2"/>
  </g>
  <g stroke="chocolate" stroke-width="1">
    <line x1="412" y1="90" x2="371" y2="75"/>
    <circle cx="412" cy="90" r="2"/>
    <circle cx="371" cy="75" r="2"/>
  </g>
  <g stroke="chocolate" stroke-width="1">
    <line x1="345" y1="164" x2="359" y2="118"/>
    <circle cx="345" cy="164" r="2"/>
    <circle cx="359" cy="118" r="2"/>
  </g>
  <g stroke="chocolate" stroke-width="1">
    <line x1="359" y1="118" x2="246" y2="106"/>
    <circle cx="359" cy="118" r="2"/>
    <circle cx="246" cy="106" r="2"/>
  </g>
  <g stroke="chocolate" stroke-width="1">
    <line x1="392" y1="122" x2="359" y2="118"/>
    <circle cx="392" cy="122" r="2"/>
    <circle cx="359" cy="118" r="2"/>
  </g>
  <g stroke="chocolate" stroke-width="1">
    <line x1="189" y1="122" x2="266" y2="99"/>
    <circle cx="189" cy="122" r="2"/>
    <circle cx="266" cy="99" r="2"/>
  </g>
  <g stroke="chocolate" stroke-width="1">
    <line x1="246" y1="106" x2="266" y2="99"/>
    <circle cx="246" cy="106" r="2"/>
    <circle cx="266" cy="99" r="2"/>
  </g>
  <g stroke="chocolate" stroke-width="1">
    <line x1="202" y1="147" x2="189" y2="122"/>
    <circle cx="202" cy="147" r="2"/>
    <circle cx="189" cy="122" r="2"/>
  </g>
  <g stroke="chocolate" stroke-width="1">
    <line x1="202" y1="147" x2="182" y2="140"/>
    <circle cx="202" cy="147" r="2"/>
    <circle cx="182" cy="140" r="2"/>
  </g>
  <g stroke="chocolate" stroke-width="1">
    <line x1="341" y1="179" x2="345" y2="164"/>
    <circle cx="341" cy="179" r="2"/>
    <circle cx="345" cy="164" r="2"/>
  </g>
  <g stroke="chocolate" stroke-width="1">
    <line x1="345" y1="164" x2="369" y2="160"/>
    <circle cx="345" cy="164" r="2"/>
    <circle cx="369" cy="160" r="2"/>
  </g>
  <g stroke="chocolate" stroke-width="1">
    <line x1="311" y1="199" x2="369" y2="160"/>
    <circle cx="311" cy="199" r="2"/>
    <circle cx="369" cy="160" r="2"/>
  </g>
  <g stroke="chocolate" stroke-width="1">
    <line x1="163" y1="298" x2="311" y2="199"/>
    <circle cx="163" cy="298" r="2"/>
    <circle cx="311" cy="199" r="2"/>
  </g>
  <g stroke="chocolate" stroke-width="1">
    <line x1="355" y1="220" x2="311" y2="199"/>
    <circle cx="355" cy="220" r="2"/>
    <circle cx="311" cy="199" r="2"/>
  </g>
  <g stroke="chocolate" stroke-width="1">
    <line x1="153" y1="272" x2="140" y2="240"/>
    <circle cx="153" cy="272" r="2"/>
    <circle cx="140" cy="240" r="2"/>
  </g>
  <g stroke="chocolate" stroke-width="1">
    <line x1="163" y1="298" x2="153" y2="272"/>
    <circle cx="163" cy="298" r="2"/>
    <circle cx="153" cy="272" r="2"/>
  </g>
  <g stroke="chocolate" stroke-width="1">
    <line x1="153" y1="272" x2="243" y2="223"/>
    <circle cx="153" cy="272" r="2"/>
    <circle cx="243" cy="223" r="2"/>
  </g>
  <g stroke="chocolate" stroke-width="1">
    <line x1="120" y1="289" x2="153" y2="272"/>
    <circle cx="120" cy="289" r="2"/>
    <circle cx="153" cy="272" r="2"/>
  </g>
  <g stroke="chocolate" stroke-width="1">
    <line x1="341" y1="179" x2="328" y2="177"/>
    <circle cx="341" cy="179" r="2"/>
    <circle cx="328" cy="177" r="2"/>
  </g>
  <g stroke="chocolate" stroke-width="1">
    <line x1="328" y1="177" x2="324" y2="167"/>
    <circle cx="328" cy="177" r="2"/>
    <circle cx="324" cy="167" r="2"/>
  </g>
  <g stroke="chocolate" stroke-width="1">
    <line x1="331" y1="186" x2="328" y2="177"/>
    <circle cx="331" cy="186" r="2"/>
    <circle cx="328" cy="177" r="2"/>
  </g>
  <g stroke="chocolate" stroke-width="1">
    <line x1="140" y1="240" x2="230" y2="199"/>
    <circle cx="140" cy="240" r="2"/>
    <circle cx="230" cy="199" r="2"/>
  </g>
  <g stroke="chocolate" stroke-width="1">
    <line x1="243" y1="223" x2="230" y2="199"/>
    <circle cx="243" cy="223" r="2"/>
    <circle cx="230" cy="199" r="2"/>
  </g>
  <g stroke="chocolate" stroke-width="1">
    <line x1="407" y1="106" x2="403" y2="104"/>
    <circle cx="407" cy="106" r="2"/>
    <circle cx="403" cy="104" r="2"/>
  </g>
  <g stroke="chocolate" stroke-width="1">
    <line x1="403" y1="104" x2="412" y2="90"/>
    <circle cx="403" cy="104" r="2"/>
    <circle cx="412" cy="90" r="2"/>
  </g>
  <g stroke="chocolate" stroke-width="1">
    <line x1="369" y1="160" x2="403" y2="104"/>
    <circle cx="369" cy="160" r="2"/>
    <circle cx="403" cy="104" r="2"/>
  </g>
  <g stroke="chocolate" stroke-width="1">
    <line x1="168" y1="313" x2="163" y2="298"/>
    <circle cx="168" cy="313" r="2"/>
    <circle cx="163" cy="298" r="2"/>
  </g>
  <g stroke="chocolate" stroke-width="1">
    <line x1="331" y1="186" x2="323" y2="179"/>
    <circle cx="331" cy="186" r="2"/>
    <circle cx="323" cy="179" r="2"/>
  </g>
  <g stroke="chocolate" stroke-width="1">
    <line x1="323" y1="191" x2="323" y2="179"/>
    <circle cx="323" cy="191" r="2"/>
    <circle cx="323" cy="179" r="2"/>
  </g>
  <g stroke="chocolate" stroke-width="1">
    <line x1="126" y1="308" x2="113" y2="307"/>
    <circle cx="126" cy="308" r="2"/>
    <circle cx="113" cy="307" r="2"/>
  </g>
  <g stroke="chocolate" stroke-width="1">
    <line x1="126" y1="308" x2="120" y2="289"/>
    <circle cx="126" cy="308" r="2"/>
    <circle cx="120" cy="289" r="2"/>
  </g>
  <g stroke="chocolate" stroke-width="1">
    <line x1="130" y1="321" x2="126" y2="308"/>
    <circle cx="130" cy="321" r="2"/>
    <circle cx="126" cy="308" r="2"/>
  </g>
  <g stroke="chocolate" stroke-width="1">
    <line x1="368" y1="86" x2="358" y2="71"/>
    <circle cx="368" cy="86" r="2"/>
    <circle cx="358" cy="71" r="2"/>
  </g>
  <g stroke="chocolate" stroke-width="1">
    <line x1="412" y1="90" x2="377" y2="58"/>
    <circle cx="412" cy="90" r="2"/>
    <circle cx="377" cy="58" r="2"/>
  </g>
  <g stroke="chocolate" stroke-width="1">
    <line x1="106" y1="380" x2="168" y2="313"/>
    <circle cx="106" cy="380" r="2"/>
    <circle cx="168" cy="313" r="2"/>
  </g>
  <g stroke="chocolate" stroke-width="1">
    <line x1="130" y1="321" x2="113" y2="307"/>
    <circle cx="130" cy="321" r="2"/>
    <circle cx="113" cy="307" r="2"/>
  </g>
  <g stroke="chocolate" stroke-width="1">
    <line x1="250" y1="447" x2="106" y2="380"/>
    <circle cx="250" cy="447" r="2"/>
    <circle cx="106" cy="380" r="2"/>
  </g>
  <g stroke="chocolate" stroke-width="1">
    <line x1="98" y1="342" x2="229" y2="24"/>
    <circle cx="98" cy="342" r="2"/>
    <circle cx="229" cy="24" r="2"/>
  </g>
  <g stroke="chocolate" stroke-width="1">
    <line x1="250" y1="447" x2="407" y2="106"/>
    <circle cx="250" cy="447" r="2"/>
    <circle cx="407" cy="106" r="2"/>
  </g>
  <g stroke="chocolate" stroke-width="1">
    <line x1="106" y1="380" x2="98" y2="342"/>
    <circle cx="106" cy="380" r="2"/>
    <circle cx="98" cy="342" r="2"/>
  </g>
  <g stroke="black" stroke-width="1">
    <line x1="5" y1="5" x2="505" y2="5"/>
    <line x1="5" y1="5" x2="5" y2="505"/>
    <line x1="505" y1="505" x2="5" y2="505"/>
    <line x1="505" y1="505" x2="505" y2="5"/>
    <line x1="105" y1="2" x2="105" y2="8"/>
    <line x1="2" y1="105" x2="8" y2="105"/>
    <line x1="105" y1="502" x2="105" y2="508"/>
    <line x1="502" y1="105" x2="508" y2="105"/>
    <line x1="205" y1="2" x2="205" y2="8"/>
    <line x1="2" y1="205" x2="8" y2="205"/>
    <line x1="205" y1="502" x2="205" y2="508"/>
    <line x1="502" y1="205" x2="508" y2="205"/>
    <line x1="305" y1="2" x2="305" y2="8"/>
    <line x1="2" y1="305" x2="8" y2="305"/>
    <line x1="305" y1="502" x2="305" y2="508"/>
    <line x1="502" y1="305" x2="508" y2="305"/>
    <line x1="405" y1="2" x2="405" y2="8"/>
    <line x1="2" y1="405" x2="8" y2="405"/>
    <line x1="405" y1="502" x2="405" y2="508"/>
    <line x1="502" y1="405" x2="508" y2="405"/>
  </g>
  <g stroke="gray" stroke-width="1" stroke-dasharray="5,5">
    <line x1="105" y1="5" x2="105" y2="505"/>
    <line x1="5" y1="105" x2="505" y2="105"/>
    <line x1="205" y1="5" x2="205" y2="505"/>
    <line x1="5" y1="205" x2="505" y2="205"/>
    <line x1="305" y1="5" x2="305" y2="505"/>
    <line x1="5" y1="305" x2="505" y2="305"/>
    <line x1="405" y1="5" x2="405" y2="505"/>
    <line x1="5" y1="405" x2="505" y2="405"/>
  </g>
</svg>
