<?xml version="1.0" standalone="no"?>
<!DOCTYPE svg PUBLIC "-//W3C//DTD SVG 1.1//EN" 
  "http://www.w3.org/Graphics/SVG/1.1/DTD/svg11.dtd">
<svg width="608" height="608" version="1.1" id="toplevel"
    xmlns="http://www.w3.org/2000/svg"
    xmlns:xlink="http://www.w3.org/1999/xlink">
  <polygon points="238,421 421,237 521,237 545,214 549,215 571,237 597,231 603,219 571,187 61,187 5,283"
           fill="bisque"/>
  <g stroke="chocolate" stroke-width="1">
    <line x1="517" y1="209" x2="502" y2="207"/>
    <circle cx="517" cy="209" r="2"/>
    <circle cx="502" cy="207" r="2"/>
  </g>
  <g stroke="chocolate" stroke-width="1">
    <line x1="525" y1="211" x2="517" y2="209"/>
    <circle cx="525" cy="211" r="2"/>
    <circle cx="517" cy="209" r="2"/>
  </g>
  <g stroke="chocolate" stroke-width="1">
    <line x1="517" y1="209" x2="524" y2="191"/>
    <circle cx="517" cy="209" r="2"/>
    <circle cx="524" cy="191" r="2"/>
  </g>
  <g stroke="chocolate" stroke-width="1">
    <line x1="514" y1="216" x2="517" y2="209"/>
    <circle cx="514" cy="216" r="2"/>
    <circle cx="517" cy="209" r="2"/>
  </g>
  <g stroke="chocolate" stroke-width="1">
    <line x1="545" y1="214" x2="525" y2="211"/>
    <circle cx="545" cy="214" r="2"/>
    <circle cx="525" cy="211" r="2"/>
  </g>
  <g stroke="chocolate" stroke-width="1">
    <line x1="525" y1="211" x2="538" y2="204"/>
    <circle cx="525" cy="211" r="2"/>
    <circle cx="538" cy="204" r="2"/>
  </g>
  <g stroke="chocolate" stroke-width="1">
    <line x1="514" y1="216" x2="525" y2="211"/>
    <circle cx="514" cy="216" r="2"/>
    <circle cx="525" cy="211" r="2"/>
  </g>
  <g stroke="chocolate" stroke-width="1">
    <line x1="505" y1="221" x2="514" y2="216"/>
    <circle cx="505" cy="221" r="2"/>
    <circle cx="514" cy="216" r="2"/>
  </g>
  <g stroke="chocolate" stroke-width="1">
    <line x1="499" y1="224" x2="505" y2="221"/>
    <circle cx="499" cy="224" r="2"/>
    <circle cx="505" cy="221" r="2"/>
  </g>
  <g stroke="chocolate" stroke-width="1">
    <line x1="505" y1="221" x2="496" y2="212"/>
    <circle cx="505" cy="221" r="2"/>
    <circle cx="496" cy="212" r="2"/>
  </g>
  <g stroke="chocolate" stroke-width="1">
    <line x1="510" y1="226" x2="505" y2="221"/>
    <circle cx="510" cy="226" r="2"/>
    <circle cx="505" cy="221" r="2"/>
  </g>
  <g stroke="chocolate" stroke-width="1">
    <line x1="502" y1="207" x2="497" y2="206"/>
    <circle cx="502" cy="207" r="2"/>
    <circle cx="497" cy="206" r="2"/>
  </g>
  <g stroke="chocolate" stroke-width="1">
    <line x1="502" y1="207" x2="519" y2="190"/>
    <circle cx="502" cy="207" r="2"/>
    <circle cx="519" cy="190" r="2"/>
  </g>
  <g stroke="chocolate" stroke-width="1">
    <line x1="496" y1="212" x2="502" y2="207"/>
    <circle cx="496" cy="212" r="2"/>
    <circle cx="502" cy="207" r="2"/>
  </g>
  <g stroke="chocolate" stroke-width="1">
    <line x1="497" y1="206" x2="488" y2="204"/>
    <circle cx="497" cy="206" r="2"/>
    <circle cx="488" cy="204" r="2"/>
  </g>
  <g stroke="chocolate" stroke-width="1">
    <line x1="497" y1="206" x2="519" y2="189"/>
    <circle cx="497" cy="206" r="2"/>
    <circle cx="519" cy="189" r="2"/>
  </g>
  <g stroke="chocolate" stroke-width="1">
    <line x1="493" y1="209" x2="497" y2="206"/>
    <circle cx="493" cy="209" r="2"/>
    <circle cx="497" cy="206" r="2"/>
  </g>
  <g stroke="chocolate" stroke-width="1">
    <line x1="428" y1="193" x2="441" y2="187"/>
    <circle cx="428" cy="193" r="2"/>
    <circle cx="441" cy="187" r="2"/>
  </g>
  <g stroke="chocolate" stroke-width="1">
    <line x1="427" y1="193" x2="428" y2="193"/>
    <circle cx="427" cy="193" r="2"/>
    <circle cx="428" cy="193" r="2"/>
  </g>
  <g stroke="chocolate" stroke-width="1">
    <line x1="428" y1="193" x2="427" y2="193"/>
    <circle cx="428" cy="193" r="2"/>
    <circle cx="427" cy="193" r="2"/>
  </g>
  <g stroke="chocolate" stroke-width="1">
    <line x1="460" y1="199" x2="428" y2="193"/>
    <circle cx="460" cy="199" r="2"/>
    <circle cx="428" cy="193" r="2"/>
  </g>
  <g stroke="chocolate" stroke-width="1">
    <line x1="470" y1="201" x2="472" y2="200"/>
    <circle cx="470" cy="201" r="2"/>
    <circle cx="472" cy="200" r="2"/>
  </g>
  <g stroke="chocolate" stroke-width="1">
    <line x1="453" y1="206" x2="470" y2="201"/>
    <circle cx="453" cy="206" r="2"/>
    <circle cx="470" cy="201" r="2"/>
  </g>
  <g stroke="chocolate" stroke-width="1">
    <line x1="470" y1="201" x2="460" y2="199"/>
    <circle cx="470" cy="201" r="2"/>
    <circle cx="460" cy="199" r="2"/>
  </g>
  <g stroke="chocolate" stroke-width="1">
    <line x1="476" y1="202" x2="470" y2="201"/>
    <circle cx="476" cy="202" r="2"/>
    <circle cx="470" cy="201" r="2"/>
  </g>
  <g stroke="chocolate" stroke-width="1">
    <line x1="443" y1="209" x2="453" y2="206"/>
    <circle cx="443" cy="209" r="2"/>
    <circle cx="453" cy="206" r="2"/>
  </g>
  <g stroke="chocolate" stroke-width="1">
    <line x1="453" y1="206" x2="460" y2="199"/>
    <circle cx="453" cy="206" r="2"/>
    <circle cx="460" cy="199" r="2"/>
  </g>
  <g stroke="chocolate" stroke-width="1">
    <line x1="446" y1="212" x2="453" y2="206"/>
    <circle cx="446" cy="212" r="2"/>
    <circle cx="453" cy="206" r="2"/>
  </g>
  <g stroke="chocolate" stroke-width="1">
    <line x1="403" y1="203" x2="427" y2="193"/>
    <circle cx="403" cy="203" r="2"/>
    <circle cx="427" cy="193" r="2"/>
  </g>
  <g stroke="chocolate" stroke-width="1">
    <line x1="427" y1="193" x2="427" y2="193"/>
    <circle cx="427" cy="193" r="2"/>
    <circle cx="427" cy="193" r="2"/>
  </g>
  <g stroke="chocolate" stroke-width="1">
    <line x1="443" y1="209" x2="427" y2="193"/>
    <circle cx="443" cy="209" r="2"/>
    <circle cx="427" cy="193" r="2"/>
  </g>
  <g stroke="chocolate" stroke-width="1">
    <line x1="405" y1="204" x2="403" y2="203"/>
    <circle cx="405" cy="204" r="2"/>
    <circle cx="403" cy="203" r="2"/>
  </g>
  <g stroke="chocolate" stroke-width="1">
    <line x1="421" y1="212" x2="405" y2="204"/>
    <circle cx="421" cy="212" r="2"/>
    <circle cx="405" cy="204" r="2"/>
  </g>
  <g stroke="chocolate" stroke-width="1">
    <line x1="405" y1="204" x2="407" y2="202"/>
    <circle cx="405" cy="204" r="2"/>
    <circle cx="407" cy="202" r="2"/>
  </g>
  <g stroke="chocolate" stroke-width="1">
    <line x1="380" y1="229" x2="405" y2="204"/>
    <circle cx="380" cy="229" r="2"/>
    <circle cx="405" cy="204" r="2"/>
  </g>
  <g stroke="chocolate" stroke-width="1">
    <line x1="371" y1="237" x2="421" y2="237"/>
    <circle cx="371" cy="237" r="2"/>
    <circle cx="421" cy="237" r="2"/>
  </g>
  <g stroke="chocolate" stroke-width="1">
    <line x1="321" y1="237" x2="371" y2="237"/>
    <circle cx="321" cy="237" r="2"/>
    <circle cx="371" cy="237" r="2"/>
  </g>
  <g stroke="chocolate" stroke-width="1">
    <line x1="371" y1="237" x2="380" y2="229"/>
    <circle cx="371" cy="237" r="2"/>
    <circle cx="380" cy="229" r="2"/>
  </g>
  <g stroke="chocolate" stroke-width="1">
    <line x1="233" y1="376" x2="371" y2="237"/>
    <circle cx="233" cy="376" r="2"/>
    <circle cx="371" cy="237" r="2"/>
  </g>
  <g stroke="chocolate" stroke-width="1">
    <line x1="335" y1="232" x2="403" y2="203"/>
    <circle cx="335" cy="232" r="2"/>
    <circle cx="403" cy="203" r="2"/>
  </g>
  <g stroke="chocolate" stroke-width="1">
    <line x1="403" y1="203" x2="381" y2="192"/>
    <circle cx="403" cy="203" r="2"/>
    <circle cx="381" cy="192" r="2"/>
  </g>
  <g stroke="chocolate" stroke-width="1">
    <line x1="385" y1="189" x2="390" y2="189"/>
    <circle cx="385" cy="189" r="2"/>
    <circle cx="390" cy="189" r="2"/>
  </g>
  <g stroke="chocolate" stroke-width="1">
    <line x1="378" y1="191" x2="385" y2="189"/>
    <circle cx="378" cy="191" r="2"/>
    <circle cx="385" cy="189" r="2"/>
  </g>
  <g stroke="chocolate" stroke-width="1">
    <line x1="385" y1="189" x2="388" y2="187"/>
    <circle cx="385" cy="189" r="2"/>
    <circle cx="388" cy="187" r="2"/>
  </g>
  <g stroke="chocolate" stroke-width="1">
    <line x1="381" y1="192" x2="385" y2="189"/>
    <circle cx="381" cy="192" r="2"/>
    <circle cx="385" cy="189" r="2"/>
  </g>
  <g stroke="chocolate" stroke-width="1">
    <line x1="541" y1="202" x2="534" y2="197"/>
    <circle cx="541" cy="202" r="2"/>
    <circle cx="534" cy="197" r="2"/>
  </g>
  <g stroke="chocolate" stroke-width="1">
    <line x1="550" y1="209" x2="541" y2="202"/>
    <circle cx="550" cy="209" r="2"/>
    <circle cx="541" cy="202" r="2"/>
  </g>
  <g stroke="chocolate" stroke-width="1">
    <line x1="541" y1="202" x2="544" y2="201"/>
    <circle cx="541" cy="202" r="2"/>
    <circle cx="544" cy="201" r="2"/>
  </g>
  <g stroke="chocolate" stroke-width="1">
    <line x1="538" y1="204" x2="541" y2="202"/>
    <circle cx="538" cy="204" r="2"/>
    <circle cx="541" cy="202" r="2"/>
  </g>
  <g stroke="chocolate" stroke-width="1">
    <line x1="510" y1="226" x2="514" y2="216"/>
    <circle cx="510" cy="226" r="2"/>
    <circle cx="514" cy="216" r="2"/>
  </g>
  <g stroke="chocolate" stroke-width="1">
    <line x1="438" y1="221" x2="446" y2="212"/>
    <circle cx="438" cy="221" r="2"/>
    <circle cx="446" cy="212" r="2"/>
  </g>
  <g stroke="chocolate" stroke-width="1">
    <line x1="436" y1="223" x2="438" y2="221"/>
    <circle cx="436" cy="223" r="2"/>
    <circle cx="438" cy="221" r="2"/>
  </g>
  <g stroke="chocolate" stroke-width="1">
    <line x1="438" y1="221" x2="426" y2="215"/>
    <circle cx="438" cy="221" r="2"/>
    <circle cx="426" cy="215" r="2"/>
  </g>
  <g stroke="chocolate" stroke-width="1">
    <line x1="461" y1="232" x2="438" y2="221"/>
    <circle cx="461" cy="232" r="2"/>
    <circle cx="438" cy="221" r="2"/>
  </g>
  <g stroke="chocolate" stroke-width="1">
    <line x1="488" y1="204" x2="476" y2="202"/>
    <circle cx="488" cy="204" r="2"/>
    <circle cx="476" cy="202" r="2"/>
  </g>
  <g stroke="chocolate" stroke-width="1">
    <line x1="488" y1="204" x2="481" y2="197"/>
    <circle cx="488" cy="204" r="2"/>
    <circle cx="481" cy="197" r="2"/>
  </g>
  <g stroke="chocolate" stroke-width="1">
    <line x1="493" y1="209" x2="488" y2="204"/>
    <circle cx="493" cy="209" r="2"/>
    <circle cx="488" cy="204" r="2"/>
  </g>
  <g stroke="chocolate" stroke-width="1">
    <line x1="565" y1="218" x2="563" y2="217"/>
    <circle cx="565" cy="218" r="2"/>
    <circle cx="563" cy="217" r="2"/>
  </g>
  <g stroke="chocolate" stroke-width="1">
    <line x1="571" y1="221" x2="565" y2="218"/>
    <circle cx="571" cy="221" r="2"/>
    <circle cx="565" cy="218" r="2"/>
  </g>
  <g stroke="chocolate" stroke-width="1">
    <line x1="565" y1="218" x2="560" y2="217"/>
    <circle cx="565" cy="218" r="2"/>
    <circle cx="560" cy="217" r="2"/>
  </g>
  <g stroke="chocolate" stroke-width="1">
    <line x1="571" y1="219" x2="565" y2="218"/>
    <circle cx="571" cy="219" r="2"/>
    <circle cx="565" cy="218" r="2"/>
  </g>
  <g stroke="chocolate" stroke-width="1">
    <line x1="576" y1="223" x2="571" y2="221"/>
    <circle cx="576" cy="223" r="2"/>
    <circle cx="571" cy="221" r="2"/>
  </g>
  <g stroke="chocolate" stroke-width="1">
    <line x1="571" y1="221" x2="571" y2="219"/>
    <circle cx="571" cy="221" r="2"/>
    <circle cx="571" cy="219" r="2"/>
  </g>
  <g stroke="chocolate" stroke-width="1">
    <line x1="571" y1="237" x2="571" y2="221"/>
    <circle cx="571" cy="237" r="2"/>
    <circle cx="571" cy="221" r="2"/>
  </g>
  <g stroke="chocolate" stroke-width="1">
    <line x1="268" y1="211" x2="357" y2="195"/>
    <circle cx="268" cy="211" r="2"/>
    <circle cx="357" cy="195" r="2"/>
  </g>
  <g stroke="chocolate" stroke-width="1">
    <line x1="242" y1="215" x2="268" y2="211"/>
    <circle cx="242" cy="215" r="2"/>
    <circle cx="268" cy="211" r="2"/>
  </g>
  <g stroke="chocolate" stroke-width="1">
    <line x1="268" y1="211" x2="230" y2="199"/>
    <circle cx="268" cy="211" r="2"/>
    <circle cx="230" cy="199" r="2"/>
  </g>
  <g stroke="chocolate" stroke-width="1">
    <line x1="303" y1="222" x2="268" y2="211"/>
    <circle cx="303" cy="222" r="2"/>
    <circle cx="268" cy="211" r="2"/>
  </g>
  <g stroke="chocolate" stroke-width="1">
    <line x1="357" y1="195" x2="378" y2="191"/>
    <circle cx="357" cy="195" r="2"/>
    <circle cx="378" cy="191" r="2"/>
  </g>
  <g stroke="chocolate" stroke-width="1">
    <line x1="357" y1="195" x2="371" y2="187"/>
    <circle cx="357" cy="195" r="2"/>
    <circle cx="371" cy="187" r="2"/>
  </g>
  <g stroke="chocolate" stroke-width="1">
    <line x1="303" y1="222" x2="357" y2="195"/>
    <circle cx="303" cy="222" r="2"/>
    <circle cx="357" cy="195" r="2"/>
  </g>
  <g stroke="chocolate" stroke-width="1">
    <line x1="421" y1="237" x2="436" y2="223"/>
    <circle cx="421" cy="237" r="2"/>
    <circle cx="436" cy="223" r="2"/>
  </g>
  <g stroke="chocolate" stroke-width="1">
    <line x1="238" y1="421" x2="421" y2="237"/>
    <circle cx="238" cy="421" r="2"/>
    <circle cx="421" cy="237" r="2"/>
  </g>
  <g stroke="chocolate" stroke-width="1">
    <line x1="421" y1="237" x2="521" y2="237"/>
    <circle cx="421" cy="237" r="2"/>
    <circle cx="521" cy="237" r="2"/>
  </g>
  <g stroke="chocolate" stroke-width="1">
    <line x1="194" y1="224" x2="242" y2="215"/>
    <circle cx="194" cy="224" r="2"/>
    <circle cx="242" cy="215" r="2"/>
  </g>
  <g stroke="chocolate" stroke-width="1">
    <line x1="242" y1="215" x2="230" y2="199"/>
    <circle cx="242" cy="215" r="2"/>
    <circle cx="230" cy="199" r="2"/>
  </g>
  <g stroke="chocolate" stroke-width="1">
    <line x1="259" y1="237" x2="242" y2="215"/>
    <circle cx="259" cy="237" r="2"/>
    <circle cx="242" cy="215" r="2"/>
  </g>
  <g stroke="chocolate" stroke-width="1">
    <line x1="528" y1="192" x2="528" y2="192"/>
    <circle cx="528" cy="192" r="2"/>
    <circle cx="528" cy="192" r="2"/>
  </g>
  <g stroke="chocolate" stroke-width="1">
    <line x1="549" y1="199" x2="528" y2="192"/>
    <circle cx="549" cy="199" r="2"/>
    <circle cx="528" cy="192" r="2"/>
  </g>
  <g stroke="chocolate" stroke-width="1">
    <line x1="528" y1="192" x2="528" y2="192"/>
    <circle cx="528" cy="192" r="2"/>
    <circle cx="528" cy="192" r="2"/>
  </g>
  <g stroke="chocolate" stroke-width="1">
    <line x1="534" y1="197" x2="528" y2="192"/>
    <circle cx="534" cy="197" r="2"/>
    <circle cx="528" cy="192" r="2"/>
  </g>
  <g stroke="chocolate" stroke-width="1">
    <line x1="557" y1="202" x2="549" y2="199"/>
    <circle cx="557" cy="202" r="2"/>
    <circle cx="549" cy="199" r="2"/>
  </g>
  <g stroke="chocolate" stroke-width="1">
    <line x1="582" y1="209" x2="557" y2="202"/>
    <circle cx="582" cy="209" r="2"/>
    <circle cx="557" cy="202" r="2"/>
  </g>
  <g stroke="chocolate" stroke-width="1">
    <line x1="557" y1="202" x2="571" y2="187"/>
    <circle cx="557" cy="202" r="2"/>
    <circle cx="571" cy="187" r="2"/>
  </g>
  <g stroke="chocolate" stroke-width="1">
    <line x1="554" y1="205" x2="557" y2="202"/>
    <circle cx="554" cy="205" r="2"/>
    <circle cx="557" cy="202" r="2"/>
  </g>
  <g stroke="chocolate" stroke-width="1">
    <line x1="559" y1="216" x2="550" y2="209"/>
    <circle cx="559" cy="216" r="2"/>
    <circle cx="550" cy="209" r="2"/>
  </g>
  <g stroke="chocolate" stroke-width="1">
    <line x1="550" y1="209" x2="554" y2="205"/>
    <circle cx="550" cy="209" r="2"/>
    <circle cx="554" cy="205" r="2"/>
  </g>
  <g stroke="chocolate" stroke-width="1">
    <line x1="546" y1="212" x2="550" y2="209"/>
    <circle cx="546" cy="212" r="2"/>
    <circle cx="550" cy="209" r="2"/>
  </g>
  <g stroke="chocolate" stroke-width="1">
    <line x1="590" y1="227" x2="591" y2="227"/>
    <circle cx="590" cy="227" r="2"/>
    <circle cx="591" cy="227" r="2"/>
  </g>
  <g stroke="chocolate" stroke-width="1">
    <line x1="589" y1="228" x2="590" y2="227"/>
    <circle cx="589" cy="228" r="2"/>
    <circle cx="590" cy="227" r="2"/>
  </g>
  <g stroke="chocolate" stroke-width="1">
    <line x1="590" y1="227" x2="583" y2="223"/>
    <circle cx="590" cy="227" r="2"/>
    <circle cx="583" cy="223" r="2"/>
  </g>
  <g stroke="chocolate" stroke-width="1">
    <line x1="592" y1="228" x2="590" y2="227"/>
    <circle cx="592" cy="228" r="2"/>
    <circle cx="590" cy="227" r="2"/>
  </g>
  <g stroke="chocolate" stroke-width="1">
    <line x1="589" y1="222" x2="583" y2="211"/>
    <circle cx="589" cy="222" r="2"/>
    <circle cx="583" cy="211" r="2"/>
  </g>
  <g stroke="chocolate" stroke-width="1">
    <line x1="590" y1="224" x2="589" y2="222"/>
    <circle cx="590" cy="224" r="2"/>
    <circle cx="589" cy="222" r="2"/>
  </g>
  <g stroke="chocolate" stroke-width="1">
    <line x1="589" y1="222" x2="585" y2="222"/>
    <circle cx="589" cy="222" r="2"/>
    <circle cx="585" cy="222" r="2"/>
  </g>
  <g stroke="chocolate" stroke-width="1">
    <line x1="596" y1="224" x2="589" y2="222"/>
    <circle cx="596" cy="224" r="2"/>
    <circle cx="589" cy="222" r="2"/>
  </g>
  <g stroke="chocolate" stroke-width="1">
    <line x1="472" y1="200" x2="481" y2="197"/>
    <circle cx="472" cy="200" r="2"/>
    <circle cx="481" cy="197" r="2"/>
  </g>
  <g stroke="chocolate" stroke-width="1">
    <line x1="472" y1="200" x2="463" y2="196"/>
    <circle cx="472" cy="200" r="2"/>
    <circle cx="463" cy="196" r="2"/>
  </g>
  <g stroke="chocolate" stroke-width="1">
    <line x1="476" y1="202" x2="472" y2="200"/>
    <circle cx="476" cy="202" r="2"/>
    <circle cx="472" cy="200" r="2"/>
  </g>
  <g stroke="chocolate" stroke-width="1">
    <line x1="496" y1="212" x2="493" y2="209"/>
    <circle cx="496" cy="212" r="2"/>
    <circle cx="493" cy="209" r="2"/>
  </g>
  <g stroke="chocolate" stroke-width="1">
    <line x1="495" y1="214" x2="496" y2="212"/>
    <circle cx="495" cy="214" r="2"/>
    <circle cx="496" cy="212" r="2"/>
  </g>
  <g stroke="chocolate" stroke-width="1">
    <line x1="519" y1="189" x2="521" y2="187"/>
    <circle cx="519" cy="189" r="2"/>
    <circle cx="521" cy="187" r="2"/>
  </g>
  <g stroke="chocolate" stroke-width="1">
    <line x1="519" y1="189" x2="512" y2="187"/>
    <circle cx="519" cy="189" r="2"/>
    <circle cx="512" cy="187" r="2"/>
  </g>
  <g stroke="chocolate" stroke-width="1">
    <line x1="519" y1="190" x2="519" y2="189"/>
    <circle cx="519" cy="190" r="2"/>
    <circle cx="519" cy="189" r="2"/>
  </g>
  <g stroke="chocolate" stroke-width="1">
    <line x1="524" y1="191" x2="519" y2="190"/>
    <circle cx="524" cy="191" r="2"/>
    <circle cx="519" cy="190" r="2"/>
  </g>
  <g stroke="chocolate" stroke-width="1">
    <line x1="526" y1="192" x2="524" y2="191"/>
    <circle cx="526" cy="192" r="2"/>
    <circle cx="524" cy="191" r="2"/>
  </g>
  <g stroke="chocolate" stroke-width="1">
    <line x1="524" y1="191" x2="524" y2="190"/>
    <circle cx="524" cy="191" r="2"/>
    <circle cx="524" cy="190" r="2"/>
  </g>
  <g stroke="chocolate" stroke-width="1">
    <line x1="587" y1="227" x2="576" y2="223"/>
    <circle cx="587" cy="227" r="2"/>
    <circle cx="576" cy="223" r="2"/>
  </g>
  <g stroke="chocolate" stroke-width="1">
    <line x1="589" y1="228" x2="587" y2="227"/>
    <circle cx="589" cy="228" r="2"/>
    <circle cx="587" cy="227" r="2"/>
  </g>
  <g stroke="chocolate" stroke-width="1">
    <line x1="587" y1="227" x2="583" y2="223"/>
    <circle cx="587" cy="227" r="2"/>
    <circle cx="583" cy="223" r="2"/>
  </g>
  <g stroke="chocolate" stroke-width="1">
    <line x1="588" y1="228" x2="587" y2="227"/>
    <circle cx="588" cy="228" r="2"/>
    <circle cx="587" cy="227" r="2"/>
  </g>
  <g stroke="chocolate" stroke-width="1">
    <line x1="561" y1="217" x2="559" y2="216"/>
    <circle cx="561" cy="217" r="2"/>
    <circle cx="559" cy="216" r="2"/>
  </g>
  <g stroke="chocolate" stroke-width="1">
    <line x1="563" y1="217" x2="561" y2="217"/>
    <circle cx="563" cy="217" r="2"/>
    <circle cx="561" cy="217" r="2"/>
  </g>
  <g stroke="chocolate" stroke-width="1">
    <line x1="561" y1="217" x2="571" y2="212"/>
    <circle cx="561" cy="217" r="2"/>
    <circle cx="571" cy="212" r="2"/>
  </g>
  <g stroke="chocolate" stroke-width="1">
    <line x1="561" y1="217" x2="561" y2="217"/>
    <circle cx="561" cy="217" r="2"/>
    <circle cx="561" cy="217" r="2"/>
  </g>
  <g stroke="chocolate" stroke-width="1">
    <line x1="460" y1="199" x2="463" y2="196"/>
    <circle cx="460" cy="199" r="2"/>
    <circle cx="463" cy="196" r="2"/>
  </g>
  <g stroke="chocolate" stroke-width="1">
    <line x1="426" y1="215" x2="443" y2="209"/>
    <circle cx="426" cy="215" r="2"/>
    <circle cx="443" cy="209" r="2"/>
  </g>
  <g stroke="chocolate" stroke-width="1">
    <line x1="446" y1="212" x2="443" y2="209"/>
    <circle cx="446" cy="212" r="2"/>
    <circle cx="443" cy="209" r="2"/>
  </g>
  <g stroke="chocolate" stroke-width="1">
    <line x1="464" y1="230" x2="493" y2="209"/>
    <circle cx="464" cy="230" r="2"/>
    <circle cx="493" cy="209" r="2"/>
  </g>
  <g stroke="chocolate" stroke-width="1">
    <line x1="461" y1="232" x2="464" y2="230"/>
    <circle cx="461" cy="232" r="2"/>
    <circle cx="464" cy="230" r="2"/>
  </g>
  <g stroke="chocolate" stroke-width="1">
    <line x1="464" y1="230" x2="446" y2="212"/>
    <circle cx="464" cy="230" r="2"/>
    <circle cx="446" cy="212" r="2"/>
  </g>
  <g stroke="chocolate" stroke-width="1">
    <line x1="471" y1="237" x2="464" y2="230"/>
    <circle cx="471" cy="237" r="2"/>
    <circle cx="464" cy="230" r="2"/>
  </g>
  <g stroke="chocolate" stroke-width="1">
    <line x1="380" y1="229" x2="425" y2="215"/>
    <circle cx="380" cy="229" r="2"/>
    <circle cx="425" cy="215" r="2"/>
  </g>
  <g stroke="chocolate" stroke-width="1">
    <line x1="353" y1="237" x2="380" y2="229"/>
    <circle cx="353" cy="237" r="2"/>
    <circle cx="380" cy="229" r="2"/>
  </g>
  <g stroke="chocolate" stroke-width="1">
    <line x1="436" y1="223" x2="425" y2="215"/>
    <circle cx="436" cy="223" r="2"/>
    <circle cx="425" cy="215" r="2"/>
  </g>
  <g stroke="chocolate" stroke-width="1">
    <line x1="455" y1="237" x2="436" y2="223"/>
    <circle cx="455" cy="237" r="2"/>
    <circle cx="436" cy="223" r="2"/>
  </g>
  <g stroke="chocolate" stroke-width="1">
    <line x1="171" y1="228" x2="194" y2="224"/>
    <circle cx="171" cy="228" r="2"/>
    <circle cx="194" cy="224" r="2"/>
  </g>
  <g stroke="chocolate" stroke-width="1">
    <line x1="194" y1="224" x2="216" y2="194"/>
    <circle cx="194" cy="224" r="2"/>
    <circle cx="216" cy="194" r="2"/>
  </g>
  <g stroke="chocolate" stroke-width="1">
    <line x1="184" y1="237" x2="194" y2="224"/>
    <circle cx="184" cy="237" r="2"/>
    <circle cx="194" cy="224" r="2"/>
  </g>
  <g stroke="chocolate" stroke-width="1">
    <line x1="390" y1="189" x2="396" y2="187"/>
    <circle cx="390" cy="189" r="2"/>
    <circle cx="396" cy="187" r="2"/>
  </g>
  <g stroke="chocolate" stroke-width="1">
    <line x1="390" y1="189" x2="388" y2="187"/>
    <circle cx="390" cy="189" r="2"/>
    <circle cx="388" cy="187" r="2"/>
  </g>
  <g stroke="chocolate" stroke-width="1">
    <line x1="407" y1="202" x2="390" y2="189"/>
    <circle cx="407" cy="202" r="2"/>
    <circle cx="390" cy="189" r="2"/>
  </g>
  <g stroke="chocolate" stroke-width="1">
    <line x1="274" y1="257" x2="335" y2="232"/>
    <circle cx="274" cy="257" r="2"/>
    <circle cx="335" cy="232" r="2"/>
  </g>
  <g stroke="chocolate" stroke-width="1">
    <line x1="335" y1="232" x2="331" y2="230"/>
    <circle cx="335" cy="232" r="2"/>
    <circle cx="331" cy="230" r="2"/>
  </g>
  <g stroke="chocolate" stroke-width="1">
    <line x1="353" y1="237" x2="335" y2="232"/>
    <circle cx="353" cy="237" r="2"/>
    <circle cx="335" cy="232" r="2"/>
  </g>
  <g stroke="chocolate" stroke-width="1">
    <line x1="381" y1="192" x2="378" y2="191"/>
    <circle cx="381" cy="192" r="2"/>
    <circle cx="378" cy="191" r="2"/>
  </g>
  <g stroke="chocolate" stroke-width="1">
    <line x1="331" y1="230" x2="381" y2="192"/>
    <circle cx="331" cy="230" r="2"/>
    <circle cx="381" cy="192" r="2"/>
  </g>
  <g stroke="chocolate" stroke-width="1">
    <line x1="538" y1="204" x2="526" y2="192"/>
    <circle cx="538" cy="204" r="2"/>
    <circle cx="526" cy="192" r="2"/>
  </g>
  <g stroke="chocolate" stroke-width="1">
    <line x1="546" y1="212" x2="538" y2="204"/>
    <circle cx="546" cy="212" r="2"/>
    <circle cx="538" cy="204" r="2"/>
  </g>
  <g stroke="chocolate" stroke-width="1">
    <line x1="549" y1="215" x2="545" y2="214"/>
    <circle cx="549" cy="215" r="2"/>
    <circle cx="545" cy="214" r="2"/>
  </g>
  <g stroke="chocolate" stroke-width="1">
    <line x1="555" y1="216" x2="549" y2="215"/>
    <circle cx="555" cy="216" r="2"/>
    <circle cx="549" cy="215" r="2"/>
  </g>
  <g stroke="chocolate" stroke-width="1">
    <line x1="549" y1="215" x2="546" y2="212"/>
    <circle cx="549" cy="215" r="2"/>
    <circle cx="546" cy="212" r="2"/>
  </g>
  <g stroke="chocolate" stroke-width="1">
    <line x1="571" y1="237" x2="549" y2="215"/>
    <circle cx="571" cy="237" r="2"/>
    <circle cx="549" cy="215" r="2"/>
  </g>
  <g stroke="chocolate" stroke-width="1">
    <line x1="545" y1="214" x2="546" y2="212"/>
    <circle cx="545" cy="214" r="2"/>
    <circle cx="546" cy="212" r="2"/>
  </g>
  <g stroke="chocolate" stroke-width="1">
    <line x1="521" y1="237" x2="545" y2="214"/>
    <circle cx="521" cy="237" r="2"/>
    <circle cx="545" cy="214" r="2"/>
  </g>
  <g stroke="chocolate" stroke-width="1">
    <line x1="425" y1="215" x2="426" y2="215"/>
    <circle cx="425" cy="215" r="2"/>
    <circle cx="426" cy="215" r="2"/>
  </g>
  <g stroke="chocolate" stroke-width="1">
    <line x1="426" y1="215" x2="421" y2="212"/>
    <circle cx="426" cy="215" r="2"/>
    <circle cx="421" cy="212" r="2"/>
  </g>
  <g stroke="chocolate" stroke-width="1">
    <line x1="576" y1="223" x2="577" y2="220"/>
    <circle cx="576" cy="223" r="2"/>
    <circle cx="577" cy="220" r="2"/>
  </g>
  <g stroke="chocolate" stroke-width="1">
    <line x1="571" y1="237" x2="576" y2="223"/>
    <circle cx="571" cy="237" r="2"/>
    <circle cx="576" cy="223" r="2"/>
  </g>
  <g stroke="chocolate" stroke-width="1">
    <line x1="591" y1="227" x2="590" y2="224"/>
    <circle cx="591" cy="227" r="2"/>
    <circle cx="590" cy="224" r="2"/>
  </g>
  <g stroke="chocolate" stroke-width="1">
    <line x1="592" y1="228" x2="591" y2="227"/>
    <circle cx="592" cy="228" r="2"/>
    <circle cx="591" cy="227" r="2"/>
  </g>
  <g stroke="chocolate" stroke-width="1">
    <line x1="591" y1="227" x2="594" y2="226"/>
    <circle cx="591" cy="227" r="2"/>
    <circle cx="594" cy="226" r="2"/>
  </g>
  <g stroke="chocolate" stroke-width="1">
    <line x1="577" y1="220" x2="571" y2="219"/>
    <circle cx="577" cy="220" r="2"/>
    <circle cx="571" cy="219" r="2"/>
  </g>
  <g stroke="chocolate" stroke-width="1">
    <line x1="571" y1="219" x2="571" y2="215"/>
    <circle cx="571" cy="219" r="2"/>
    <circle cx="571" cy="215" r="2"/>
  </g>
  <g stroke="chocolate" stroke-width="1">
    <line x1="583" y1="211" x2="582" y2="209"/>
    <circle cx="583" cy="211" r="2"/>
    <circle cx="582" cy="209" r="2"/>
  </g>
  <g stroke="chocolate" stroke-width="1">
    <line x1="583" y1="211" x2="585" y2="210"/>
    <circle cx="583" cy="211" r="2"/>
    <circle cx="585" cy="210" r="2"/>
  </g>
  <g stroke="chocolate" stroke-width="1">
    <line x1="571" y1="215" x2="583" y2="211"/>
    <circle cx="571" cy="215" r="2"/>
    <circle cx="583" cy="211" r="2"/>
  </g>
  <g stroke="chocolate" stroke-width="1">
    <line x1="563" y1="217" x2="571" y2="215"/>
    <circle cx="563" cy="217" r="2"/>
    <circle cx="571" cy="215" r="2"/>
  </g>
  <g stroke="chocolate" stroke-width="1">
    <line x1="561" y1="217" x2="563" y2="217"/>
    <circle cx="561" cy="217" r="2"/>
    <circle cx="563" cy="217" r="2"/>
  </g>
  <g stroke="chocolate" stroke-width="1">
    <line x1="331" y1="230" x2="303" y2="222"/>
    <circle cx="331" cy="230" r="2"/>
    <circle cx="303" cy="222" r="2"/>
  </g>
  <g stroke="chocolate" stroke-width="1">
    <line x1="271" y1="237" x2="303" y2="222"/>
    <circle cx="271" cy="237" r="2"/>
    <circle cx="303" cy="222" r="2"/>
  </g>
  <g stroke="chocolate" stroke-width="1">
    <line x1="262" y1="242" x2="259" y2="237"/>
    <circle cx="262" cy="242" r="2"/>
    <circle cx="259" cy="237" r="2"/>
  </g>
  <g stroke="chocolate" stroke-width="1">
    <line x1="274" y1="257" x2="262" y2="242"/>
    <circle cx="274" cy="257" r="2"/>
    <circle cx="262" cy="242" r="2"/>
  </g>
  <g stroke="chocolate" stroke-width="1">
    <line x1="262" y1="242" x2="271" y2="237"/>
    <circle cx="262" cy="242" r="2"/>
    <circle cx="271" cy="237" r="2"/>
  </g>
  <g stroke="chocolate" stroke-width="1">
    <line x1="178" y1="284" x2="262" y2="242"/>
    <circle cx="178" cy="284" r="2"/>
    <circle cx="262" cy="242" r="2"/>
  </g>
  <g stroke="chocolate" stroke-width="1">
    <line x1="321" y1="237" x2="331" y2="230"/>
    <circle cx="321" cy="237" r="2"/>
    <circle cx="331" cy="230" r="2"/>
  </g>
  <g stroke="chocolate" stroke-width="1">
    <line x1="281" y1="267" x2="321" y2="237"/>
    <circle cx="281" cy="267" r="2"/>
    <circle cx="321" cy="237" r="2"/>
  </g>
  <g stroke="chocolate" stroke-width="1">
    <line x1="271" y1="237" x2="321" y2="237"/>
    <circle cx="271" cy="237" r="2"/>
    <circle cx="321" cy="237" r="2"/>
  </g>
  <g stroke="chocolate" stroke-width="1">
    <line x1="259" y1="237" x2="271" y2="237"/>
    <circle cx="259" cy="237" r="2"/>
    <circle cx="271" cy="237" r="2"/>
  </g>
  <g stroke="chocolate" stroke-width="1">
    <line x1="121" y1="237" x2="259" y2="237"/>
    <circle cx="121" cy="237" r="2"/>
    <circle cx="259" cy="237" r="2"/>
  </g>
  <g stroke="chocolate" stroke-width="1">
    <line x1="525" y1="190" x2="526" y2="187"/>
    <circle cx="525" cy="190" r="2"/>
    <circle cx="526" cy="187" r="2"/>
  </g>
  <g stroke="chocolate" stroke-width="1">
    <line x1="524" y1="190" x2="525" y2="190"/>
    <circle cx="524" cy="190" r="2"/>
    <circle cx="525" cy="190" r="2"/>
  </g>
  <g stroke="chocolate" stroke-width="1">
    <line x1="525" y1="190" x2="521" y2="187"/>
    <circle cx="525" cy="190" r="2"/>
    <circle cx="521" cy="187" r="2"/>
  </g>
  <g stroke="chocolate" stroke-width="1">
    <line x1="528" y1="192" x2="525" y2="190"/>
    <circle cx="528" cy="192" r="2"/>
    <circle cx="525" cy="190" r="2"/>
  </g>
  <g stroke="chocolate" stroke-width="1">
    <line x1="528" y1="192" x2="526" y2="192"/>
    <circle cx="528" cy="192" r="2"/>
    <circle cx="526" cy="192" r="2"/>
  </g>
  <g stroke="chocolate" stroke-width="1">
    <line x1="528" y1="192" x2="528" y2="192"/>
    <circle cx="528" cy="192" r="2"/>
    <circle cx="528" cy="192" r="2"/>
  </g>
  <g stroke="chocolate" stroke-width="1">
    <line x1="529" y1="195" x2="528" y2="192"/>
    <circle cx="529" cy="195" r="2"/>
    <circle cx="528" cy="192" r="2"/>
  </g>
  <g stroke="chocolate" stroke-width="1">
    <line x1="549" y1="199" x2="571" y2="187"/>
    <circle cx="549" cy="199" r="2"/>
    <circle cx="571" cy="187" r="2"/>
  </g>
  <g stroke="chocolate" stroke-width="1">
    <line x1="544" y1="201" x2="549" y2="199"/>
    <circle cx="544" cy="201" r="2"/>
    <circle cx="549" cy="199" r="2"/>
  </g>
  <g stroke="chocolate" stroke-width="1">
    <line x1="499" y1="224" x2="495" y2="214"/>
    <circle cx="499" cy="224" r="2"/>
    <circle cx="495" cy="214" r="2"/>
  </g>
  <g stroke="chocolate" stroke-width="1">
    <line x1="505" y1="237" x2="499" y2="224"/>
    <circle cx="505" cy="237" r="2"/>
    <circle cx="499" cy="224" r="2"/>
  </g>
  <g stroke="chocolate" stroke-width="1">
    <line x1="471" y1="237" x2="499" y2="224"/>
    <circle cx="471" cy="237" r="2"/>
    <circle cx="499" cy="224" r="2"/>
  </g>
  <g stroke="chocolate" stroke-width="1">
    <line x1="534" y1="197" x2="529" y2="195"/>
    <circle cx="534" cy="197" r="2"/>
    <circle cx="529" cy="195" r="2"/>
  </g>
  <g stroke="chocolate" stroke-width="1">
    <line x1="544" y1="201" x2="534" y2="197"/>
    <circle cx="544" cy="201" r="2"/>
    <circle cx="534" cy="197" r="2"/>
  </g>
  <g stroke="chocolate" stroke-width="1">
    <line x1="554" y1="205" x2="544" y2="201"/>
    <circle cx="554" cy="205" r="2"/>
    <circle cx="544" cy="201" r="2"/>
  </g>
  <g stroke="chocolate" stroke-width="1">
    <line x1="571" y1="212" x2="554" y2="205"/>
    <circle cx="571" cy="212" r="2"/>
    <circle cx="554" cy="205" r="2"/>
  </g>
  <g stroke="chocolate" stroke-width="1">
    <line x1="594" y1="229" x2="592" y2="228"/>
    <circle cx="594" cy="229" r="2"/>
    <circle cx="592" cy="228" r="2"/>
  </g>
  <g stroke="chocolate" stroke-width="1">
    <line x1="594" y1="232" x2="592" y2="228"/>
    <circle cx="594" cy="232" r="2"/>
    <circle cx="592" cy="228" r="2"/>
  </g>
  <g stroke="chocolate" stroke-width="1">
    <line x1="585" y1="222" x2="582" y2="221"/>
    <circle cx="585" cy="222" r="2"/>
    <circle cx="582" cy="221" r="2"/>
  </g>
  <g stroke="chocolate" stroke-width="1">
    <line x1="585" y1="222" x2="580" y2="219"/>
    <circle cx="585" cy="222" r="2"/>
    <circle cx="580" cy="219" r="2"/>
  </g>
  <g stroke="chocolate" stroke-width="1">
    <line x1="590" y1="224" x2="585" y2="222"/>
    <circle cx="590" cy="224" r="2"/>
    <circle cx="585" cy="222" r="2"/>
  </g>
  <g stroke="chocolate" stroke-width="1">
    <line x1="493" y1="209" x2="476" y2="202"/>
    <circle cx="493" cy="209" r="2"/>
    <circle cx="476" cy="202" r="2"/>
  </g>
  <g stroke="chocolate" stroke-width="1">
    <line x1="519" y1="190" x2="521" y2="187"/>
    <circle cx="519" cy="190" r="2"/>
    <circle cx="521" cy="187" r="2"/>
  </g>
  <g stroke="chocolate" stroke-width="1">
    <line x1="582" y1="209" x2="571" y2="187"/>
    <circle cx="582" cy="209" r="2"/>
    <circle cx="571" cy="187" r="2"/>
  </g>
  <g stroke="chocolate" stroke-width="1">
    <line x1="585" y1="210" x2="582" y2="209"/>
    <circle cx="585" cy="210" r="2"/>
    <circle cx="582" cy="209" r="2"/>
  </g>
  <g stroke="chocolate" stroke-width="1">
    <line x1="524" y1="190" x2="521" y2="187"/>
    <circle cx="524" cy="190" r="2"/>
    <circle cx="521" cy="187" r="2"/>
  </g>
  <g stroke="chocolate" stroke-width="1">
    <line x1="526" y1="192" x2="524" y2="190"/>
    <circle cx="526" cy="192" r="2"/>
    <circle cx="524" cy="190" r="2"/>
  </g>
  <g stroke="chocolate" stroke-width="1">
    <line x1="582" y1="221" x2="579" y2="221"/>
    <circle cx="582" cy="221" r="2"/>
    <circle cx="579" cy="221" r="2"/>
  </g>
  <g stroke="chocolate" stroke-width="1">
    <line x1="582" y1="221" x2="580" y2="219"/>
    <circle cx="582" cy="221" r="2"/>
    <circle cx="580" cy="219" r="2"/>
  </g>
  <g stroke="chocolate" stroke-width="1">
    <line x1="583" y1="223" x2="582" y2="221"/>
    <circle cx="583" cy="223" r="2"/>
    <circle cx="582" cy="221" r="2"/>
  </g>
  <g stroke="chocolate" stroke-width="1">
    <line x1="588" y1="228" x2="589" y2="228"/>
    <circle cx="588" cy="228" r="2"/>
    <circle cx="589" cy="228" r="2"/>
  </g>
  <g stroke="chocolate" stroke-width="1">
    <line x1="571" y1="237" x2="588" y2="228"/>
    <circle cx="571" cy="237" r="2"/>
    <circle cx="588" cy="228" r="2"/>
  </g>
  <g stroke="chocolate" stroke-width="1">
    <line x1="592" y1="232" x2="588" y2="228"/>
    <circle cx="592" cy="232" r="2"/>
    <circle cx="588" cy="228" r="2"/>
  </g>
  <g stroke="chocolate" stroke-width="1">
    <line x1="579" y1="221" x2="577" y2="220"/>
    <circle cx="579" cy="221" r="2"/>
    <circle cx="577" cy="220" r="2"/>
  </g>
  <g stroke="chocolate" stroke-width="1">
    <line x1="579" y1="221" x2="577" y2="219"/>
    <circle cx="579" cy="221" r="2"/>
    <circle cx="577" cy="219" r="2"/>
  </g>
  <g stroke="chocolate" stroke-width="1">
    <line x1="583" y1="223" x2="579" y2="221"/>
    <circle cx="583" cy="223" r="2"/>
    <circle cx="579" cy="221" r="2"/>
  </g>
  <g stroke="chocolate" stroke-width="1">
    <line x1="560" y1="217" x2="561" y2="217"/>
    <circle cx="560" cy="217" r="2"/>
    <circle cx="561" cy="217" r="2"/>
  </g>
  <g stroke="chocolate" stroke-width="1">
    <line x1="561" y1="217" x2="559" y2="216"/>
    <circle cx="561" cy="217" r="2"/>
    <circle cx="559" cy="216" r="2"/>
  </g>
  <g stroke="chocolate" stroke-width="1">
    <line x1="561" y1="217" x2="561" y2="217"/>
    <circle cx="561" cy="217" r="2"/>
    <circle cx="561" cy="217" r="2"/>
  </g>
  <g stroke="chocolate" stroke-width="1">
    <line x1="418" y1="191" x2="421" y2="187"/>
    <circle cx="418" cy="191" r="2"/>
    <circle cx="421" cy="187" r="2"/>
  </g>
  <g stroke="chocolate" stroke-width="1">
    <line x1="407" y1="202" x2="418" y2="191"/>
    <circle cx="407" cy="202" r="2"/>
    <circle cx="418" cy="191" r="2"/>
  </g>
  <g stroke="chocolate" stroke-width="1">
    <line x1="418" y1="191" x2="396" y2="187"/>
    <circle cx="418" cy="191" r="2"/>
    <circle cx="396" cy="187" r="2"/>
  </g>
  <g stroke="chocolate" stroke-width="1">
    <line x1="427" y1="193" x2="418" y2="191"/>
    <circle cx="427" cy="193" r="2"/>
    <circle cx="418" cy="191" r="2"/>
  </g>
  <g stroke="chocolate" stroke-width="1">
    <line x1="220" y1="389" x2="233" y2="376"/>
    <circle cx="220" cy="389" r="2"/>
    <circle cx="233" cy="376" r="2"/>
  </g>
  <g stroke="chocolate" stroke-width="1">
    <line x1="233" y1="376" x2="185" y2="294"/>
    <circle cx="233" cy="376" r="2"/>
    <circle cx="185" cy="294" r="2"/>
  </g>
  <g stroke="chocolate" stroke-width="1">
    <line x1="251" y1="408" x2="233" y2="376"/>
    <circle cx="251" cy="408" r="2"/>
    <circle cx="233" cy="376" r="2"/>
  </g>
  <g stroke="chocolate" stroke-width="1">
    <line x1="378" y1="191" x2="371" y2="187"/>
    <circle cx="378" cy="191" r="2"/>
    <circle cx="371" cy="187" r="2"/>
  </g>
  <g stroke="chocolate" stroke-width="1">
    <line x1="425" y1="215" x2="421" y2="212"/>
    <circle cx="425" cy="215" r="2"/>
    <circle cx="421" cy="212" r="2"/>
  </g>
  <g stroke="chocolate" stroke-width="1">
    <line x1="185" y1="294" x2="274" y2="257"/>
    <circle cx="185" cy="294" r="2"/>
    <circle cx="274" cy="257" r="2"/>
  </g>
  <g stroke="chocolate" stroke-width="1">
    <line x1="281" y1="267" x2="274" y2="257"/>
    <circle cx="281" cy="267" r="2"/>
    <circle cx="274" cy="257" r="2"/>
  </g>
  <g stroke="chocolate" stroke-width="1">
    <line x1="216" y1="194" x2="194" y2="187"/>
    <circle cx="216" cy="194" r="2"/>
    <circle cx="194" cy="187" r="2"/>
  </g>
  <g stroke="chocolate" stroke-width="1">
    <line x1="230" y1="199" x2="216" y2="194"/>
    <circle cx="230" cy="199" r="2"/>
    <circle cx="216" cy="194" r="2"/>
  </g>
  <g stroke="chocolate" stroke-width="1">
    <line x1="216" y1="194" x2="221" y2="187"/>
    <circle cx="216" cy="194" r="2"/>
    <circle cx="221" cy="187" r="2"/>
  </g>
  <g stroke="chocolate" stroke-width="1">
    <line x1="421" y1="212" x2="407" y2="202"/>
    <circle cx="421" cy="212" r="2"/>
    <circle cx="407" cy="202" r="2"/>
  </g>
  <g stroke="chocolate" stroke-width="1">
    <line x1="471" y1="237" x2="461" y2="232"/>
    <circle cx="471" cy="237" r="2"/>
    <circle cx="461" cy="232" r="2"/>
  </g>
  <g stroke="chocolate" stroke-width="1">
    <line x1="455" y1="237" x2="461" y2="232"/>
    <circle cx="455" cy="237" r="2"/>
    <circle cx="461" cy="232" r="2"/>
  </g>
  <g stroke="chocolate" stroke-width="1">
    <line x1="521" y1="237" x2="510" y2="226"/>
    <circle cx="521" cy="237" r="2"/>
    <circle cx="510" cy="226" r="2"/>
  </g>
  <g stroke="chocolate" stroke-width="1">
    <line x1="505" y1="237" x2="510" y2="226"/>
    <circle cx="505" cy="237" r="2"/>
    <circle cx="510" cy="226" r="2"/>
  </g>
  <g stroke="chocolate" stroke-width="1">
    <line x1="560" y1="217" x2="555" y2="216"/>
    <circle cx="560" cy="217" r="2"/>
    <circle cx="555" cy="216" r="2"/>
  </g>
  <g stroke="chocolate" stroke-width="1">
    <line x1="555" y1="216" x2="556" y2="214"/>
    <circle cx="555" cy="216" r="2"/>
    <circle cx="556" cy="214" r="2"/>
  </g>
  <g stroke="chocolate" stroke-width="1">
    <line x1="554" y1="220" x2="555" y2="216"/>
    <circle cx="554" cy="220" r="2"/>
    <circle cx="555" cy="216" r="2"/>
  </g>
  <g stroke="chocolate" stroke-width="1">
    <line x1="577" y1="220" x2="577" y2="219"/>
    <circle cx="577" cy="220" r="2"/>
    <circle cx="577" cy="219" r="2"/>
  </g>
  <g stroke="chocolate" stroke-width="1">
    <line x1="162" y1="197" x2="159" y2="187"/>
    <circle cx="162" cy="197" r="2"/>
    <circle cx="159" cy="187" r="2"/>
  </g>
  <g stroke="chocolate" stroke-width="1">
    <line x1="171" y1="228" x2="162" y2="197"/>
    <circle cx="171" cy="228" r="2"/>
    <circle cx="162" cy="197" r="2"/>
  </g>
  <g stroke="chocolate" stroke-width="1">
    <line x1="162" y1="197" x2="194" y2="187"/>
    <circle cx="162" cy="197" r="2"/>
    <circle cx="194" cy="187" r="2"/>
  </g>
  <g stroke="chocolate" stroke-width="1">
    <line x1="155" y1="199" x2="162" y2="197"/>
    <circle cx="155" cy="199" r="2"/>
    <circle cx="162" cy="197" r="2"/>
  </g>
  <g stroke="chocolate" stroke-width="1">
    <line x1="593" y1="230" x2="589" y2="228"/>
    <circle cx="593" cy="230" r="2"/>
    <circle cx="589" cy="228" r="2"/>
  </g>
  <g stroke="chocolate" stroke-width="1">
    <line x1="554" y1="220" x2="560" y2="217"/>
    <circle cx="554" cy="220" r="2"/>
    <circle cx="560" cy="217" r="2"/>
  </g>
  <g stroke="chocolate" stroke-width="1">
    <line x1="571" y1="215" x2="571" y2="212"/>
    <circle cx="571" cy="215" r="2"/>
    <circle cx="571" cy="212" r="2"/>
  </g>
  <g stroke="chocolate" stroke-width="1">
    <line x1="597" y1="231" x2="594" y2="229"/>
    <circle cx="597" cy="231" r="2"/>
    <circle cx="594" cy="229" r="2"/>
  </g>
  <g stroke="chocolate" stroke-width="1">
    <line x1="594" y1="229" x2="594" y2="226"/>
    <circle cx="594" cy="229" r="2"/>
    <circle cx="594" cy="226" r="2"/>
  </g>
  <g stroke="chocolate" stroke-width="1">
    <line x1="594" y1="232" x2="594" y2="229"/>
    <circle cx="594" cy="232" r="2"/>
    <circle cx="594" cy="229" r="2"/>
  </g>
  <g stroke="chocolate" stroke-width="1">
    <line x1="528" y1="192" x2="526" y2="187"/>
    <circle cx="528" cy="192" r="2"/>
    <circle cx="526" cy="187" r="2"/>
  </g>
  <g stroke="chocolate" stroke-width="1">
    <line x1="121" y1="237" x2="171" y2="228"/>
    <circle cx="121" cy="237" r="2"/>
    <circle cx="171" cy="228" r="2"/>
  </g>
  <g stroke="chocolate" stroke-width="1">
    <line x1="174" y1="237" x2="171" y2="228"/>
    <circle cx="174" cy="237" r="2"/>
    <circle cx="171" cy="228" r="2"/>
  </g>
  <g stroke="chocolate" stroke-width="1">
    <line x1="471" y1="237" x2="495" y2="214"/>
    <circle cx="471" cy="237" r="2"/>
    <circle cx="495" cy="214" r="2"/>
  </g>
  <g stroke="chocolate" stroke-width="1">
    <line x1="495" y1="214" x2="493" y2="209"/>
    <circle cx="495" cy="214" r="2"/>
    <circle cx="493" cy="209" r="2"/>
  </g>
  <g stroke="chocolate" stroke-width="1">
    <line x1="594" y1="226" x2="590" y2="224"/>
    <circle cx="594" cy="226" r="2"/>
    <circle cx="590" cy="224" r="2"/>
  </g>
  <g stroke="chocolate" stroke-width="1">
    <line x1="463" y1="196" x2="471" y2="187"/>
    <circle cx="463" cy="196" r="2"/>
    <circle cx="471" cy="187" r="2"/>
  </g>
  <g stroke="chocolate" stroke-width="1">
    <line x1="463" y1="196" x2="441" y2="187"/>
    <circle cx="463" cy="196" r="2"/>
    <circle cx="441" cy="187" r="2"/>
  </g>
  <g stroke="chocolate" stroke-width="1">
    <line x1="559" y1="216" x2="556" y2="214"/>
    <circle cx="559" cy="216" r="2"/>
    <circle cx="556" cy="214" r="2"/>
  </g>
  <g stroke="chocolate" stroke-width="1">
    <line x1="481" y1="197" x2="512" y2="187"/>
    <circle cx="481" cy="197" r="2"/>
    <circle cx="512" cy="187" r="2"/>
  </g>
  <g stroke="chocolate" stroke-width="1">
    <line x1="481" y1="197" x2="471" y2="187"/>
    <circle cx="481" cy="197" r="2"/>
    <circle cx="471" cy="187" r="2"/>
  </g>
  <g stroke="chocolate" stroke-width="1">
    <line x1="427" y1="193" x2="421" y2="187"/>
    <circle cx="427" cy="193" r="2"/>
    <circle cx="421" cy="187" r="2"/>
  </g>
  <g stroke="chocolate" stroke-width="1">
    <line x1="183" y1="295" x2="185" y2="294"/>
    <circle cx="183" cy="295" r="2"/>
    <circle cx="185" cy="294" r="2"/>
  </g>
  <g stroke="chocolate" stroke-width="1">
    <line x1="185" y1="294" x2="178" y2="284"/>
    <circle cx="185" cy="294" r="2"/>
    <circle cx="178" cy="284" r="2"/>
  </g>
  <g stroke="chocolate" stroke-width="1">
    <line x1="230" y1="199" x2="221" y2="187"/>
    <circle cx="230" cy="199" r="2"/>
    <circle cx="221" cy="187" r="2"/>
  </g>
  <g stroke="chocolate" stroke-width="1">
    <line x1="5" y1="283" x2="61" y2="187"/>
    <circle cx="5" cy="283" r="2"/>
    <circle cx="61" cy="187" r="2"/>
  </g>
  <g stroke="chocolate" stroke-width="1">
    <line x1="86" y1="231" x2="141" y2="187"/>
    <circle cx="86" cy="231" r="2"/>
    <circle cx="141" cy="187" r="2"/>
  </g>
  <g stroke="chocolate" stroke-width="1">
    <line x1="155" y1="199" x2="159" y2="187"/>
    <circle cx="155" cy="199" r="2"/>
    <circle cx="159" cy="187" r="2"/>
  </g>
  <g stroke="chocolate" stroke-width="1">
    <line x1="174" y1="237" x2="176" y2="227"/>
    <circle cx="174" cy="237" r="2"/>
    <circle cx="176" cy="227" r="2"/>
  </g>
  <g stroke="chocolate" stroke-width="1">
    <line x1="597" y1="231" x2="603" y2="219"/>
    <circle cx="597" cy="231" r="2"/>
    <circle cx="603" cy="219" r="2"/>
  </g>
  <g stroke="chocolate" stroke-width="1">
    <line x1="592" y1="232" x2="593" y2="230"/>
    <circle cx="592" cy="232" r="2"/>
    <circle cx="593" cy="230" r="2"/>
  </g>
  <g stroke="chocolate" stroke-width="1">
    <line x1="596" y1="224" x2="603" y2="219"/>
    <circle cx="596" cy="224" r="2"/>
    <circle cx="603" cy="219" r="2"/>
  </g>
  <g stroke="chocolate" stroke-width="1">
    <line x1="571" y1="237" x2="597" y2="231"/>
    <circle cx="571" cy="237" r="2"/>
    <circle cx="597" cy="231" r="2"/>
  </g>
  <g stroke="chocolate" stroke-width="1">
    <line x1="61" y1="187" x2="571" y2="187"/>
    <circle cx="61" cy="187" r="2"/>
    <circle cx="571" cy="187" r="2"/>
  </g>
  <g stroke="chocolate" stroke-width="1">
    <line x1="580" y1="219" x2="577" y2="219"/>
    <circle cx="580" cy="219" r="2"/>
    <circle cx="577" cy="219" r="2"/>
  </g>
  <g stroke="chocolate" stroke-width="1">
    <line x1="183" y1="295" x2="178" y2="284"/>
    <circle cx="183" cy="295" r="2"/>
    <circle cx="178" cy="284" r="2"/>
  </g>
  <g stroke="chocolate" stroke-width="1">
    <line x1="121" y1="237" x2="86" y2="231"/>
    <circle cx="121" cy="237" r="2"/>
    <circle cx="86" cy="231" r="2"/>
  </g>
  <g stroke="chocolate" stroke-width="1">
    <line x1="596" y1="224" x2="585" y2="210"/>
    <circle cx="596" cy="224" r="2"/>
    <circle cx="585" cy="210" r="2"/>
  </g>
  <g stroke="chocolate" stroke-width="1">
    <line x1="603" y1="219" x2="571" y2="187"/>
    <circle cx="603" cy="219" r="2"/>
    <circle cx="571" cy="187" r="2"/>
  </g>
  <g stroke="chocolate" stroke-width="1">
    <line x1="238" y1="421" x2="220" y2="389"/>
    <circle cx="238" cy="421" r="2"/>
    <circle cx="220" cy="389" r="2"/>
  </g>
  <g stroke="chocolate" stroke-width="1">
    <line x1="86" y1="231" x2="61" y2="187"/>
    <circle cx="86" cy="231" r="2"/>
    <circle cx="61" cy="187" r="2"/>
  </g>
  <g stroke="chocolate" stroke-width="1">
    <line x1="184" y1="237" x2="176" y2="227"/>
    <circle cx="184" cy="237" r="2"/>
    <circle cx="176" cy="227" r="2"/>
  </g>
  <g stroke="chocolate" stroke-width="1">
    <line x1="155" y1="199" x2="141" y2="187"/>
    <circle cx="155" cy="199" r="2"/>
    <circle cx="141" cy="187" r="2"/>
  </g>
  <g stroke="chocolate" stroke-width="1">
    <line x1="251" y1="408" x2="220" y2="389"/>
    <circle cx="251" cy="408" r="2"/>
    <circle cx="220" cy="389" r="2"/>
  </g>
  <g stroke="chocolate" stroke-width="1">
    <line x1="238" y1="421" x2="5" y2="283"/>
    <circle cx="238" cy="421" r="2"/>
    <circle cx="5" cy="283" r="2"/>
  </g>
  <g stroke="black" stroke-width="1">
    <line x1="54" y1="54" x2="554" y2="54"/>
    <line x1="54" y1="54" x2="54" y2="554"/>
    <line x1="554" y1="554" x2="54" y2="554"/>
    <line x1="554" y1="554" x2="554" y2="54"/>
    <line x1="154" y1="51" x2="154" y2="57"/>
    <line x1="51" y1="154" x2="57" y2="154"/>
    <line x1="154" y1="551" x2="154" y2="557"/>
    <line x1="551" y1="154" x2="557" y2="154"/>
    <line x1="254" y1="51" x2="254" y2="57"/>
    <line x1="51" y1="254" x2="57" y2="254"/>
    <line x1="254" y1="551" x2="254" y2="557"/>
    <line x1="551" y1="254" x2="557" y2="254"/>
    <line x1="354" y1="51" x2="354" y2="57"/>
    <line x1="51" y1="354" x2="57" y2="354"/>
    <line x1="354" y1="551" x2="354" y2="557"/>
    <line x1="551" y1="354" x2="557" y2="354"/>
    <line x1="454" y1="51" x2="454" y2="57"/>
    <line x1="51" y1="454" x2="57" y2="454"/>
    <line x1="454" y1="551" x2="454" y2="557"/>
    <line x1="551" y1="454" x2="557" y2="454"/>
  </g>
  <g stroke="gray" stroke-width="1" stroke-dasharray="5,5">
    <line x1="154" y1="54" x2="154" y2="554"/>
    <line x1="54" y1="154" x2="554" y2="154"/>
    <line x1="254" y1="54" x2="254" y2="554"/>
    <line x1="54" y1="254" x2="554" y2="254"/>
    <line x1="354" y1="54" x2="354" y2="554"/>
    <line x1="54" y1="354" x2="554" y2="354"/>
    <line x1="454" y1="54" x2="454" y2="554"/>
    <line x1="54" y1="454" x2="554" y2="454"/>
  </g>
</svg>
