<?xml version="1.0" standalone="no"?>
<!DOCTYPE svg PUBLIC "-//W3C//DTD SVG 1.1//EN" 
  "http://www.w3.org/Graphics/SVG/1.1/DTD/svg11.dtd">
<svg width="530" height="530" version="1.1" id="toplevel"
    xmlns="http://www.w3.org/2000/svg"
    xmlns:xlink="http://www.w3.org/1999/xlink">
  <polygon points="27,515 525,472 254,244 5,266" fill="bisque"/>
  <g stroke="chocolate" stroke-width="1">
    <line x1="525" y1="472" x2="254" y2="244"/>
    <circle cx="525" cy="472" r="2"/>
    <circle cx="254" cy="244" r="2"/>
  </g>
  <g stroke="chocolate" stroke-width="1">
    <line x1="5" y1="266" x2="254" y2="244"/>
    <circle cx="5" cy="266" r="2"/>
    <circle cx="254" cy="244" r="2"/>
  </g>
  <g stroke="chocolate" stroke-width="1">
    <line x1="27" y1="515" x2="5" y2="266"/>
    <circle cx="27" cy="515" r="2"/>
    <circle cx="5" cy="266" r="2"/>
  </g>
  <g stroke="chocolate" stroke-width="1">
    <line x1="27" y1="515" x2="525" y2="472"/>
    <circle cx="27" cy="515" r="2"/>
    <circle cx="525" cy="472" r="2"/>
  </g>
  <g stroke="chocolate" stroke-width="1">
    <line x1="27" y1="515" x2="254" y2="244"/>
    <circle cx="27" cy="515" r="2"/>
    <circle cx="254" cy="244" r="2"/>
  </g>
  <g stroke="black" stroke-width="1">
    <line x1="15" y1="15" x2="515" y2="15"/>
    <line x1="15" y1="15" x2="15" y2="515"/>
    <line x1="515" y1="515" x2="15" y2="515"/>
    <line x1="515" y1="515" x2="515" y2="15"/>
    <line x1="115" y1="12" x2="115" y2="18"/>
    <line x1="12" y1="115" x2="18" y2="115"/>
    <line x1="115" y1="512" x2="115" y2="518"/>
    <line x1="512" y1="115" x2="518" y2="115"/>
    <line x1="215" y1="12" x2="215" y2="18"/>
    <line x1="12" y1="215" x2="18" y2="215"/>
    <line x1="215" y1="512" x2="215" y2="518"/>
    <line x1="512" y1="215" x2="518" y2="215"/>
    <line x1="315" y1="12" x2="315" y2="18"/>
    <line x1="12" y1="315" x2="18" y2="315"/>
    <line x1="315" y1="512" x2="315" y2="518"/>
    <line x1="512" y1="315" x2="518" y2="315"/>
    <line x1="415" y1="12" x2="415" y2="18"/>
    <line x1="12" y1="415" x2="18" y2="415"/>
    <line x1="415" y1="512" x2="415" y2="518"/>
    <line x1="512" y1="415" x2="518" y2="415"/>
  </g>
  <g stroke="gray" stroke-width="1" stroke-dasharray="5,5">
    <line x1="115" y1="15" x2="115" y2="515"/>
    <line x1="15" y1="115" x2="515" y2="115"/>
    <line x1="215" y1="15" x2="215" y2="515"/>
    <line x1="15" y1="215" x2="515" y2="215"/>
    <line x1="315" y1="15" x2="315" y2="515"/>
    <line x1="15" y1="315" x2="515" y2="315"/>
    <line x1="415" y1="15" x2="415" y2="515"/>
    <line x1="15" y1="415" x2="515" y2="415"/>
  </g>
</svg>
