<?xml version="1.0" standalone="no"?>
<!DOCTYPE svg PUBLIC "-//W3C//DTD SVG 1.1//EN" 
  "http://www.w3.org/Graphics/SVG/1.1/DTD/svg11.dtd">
<svg width="510" height="510" version="1.1" id="toplevel"
    xmlns="http://www.w3.org/2000/svg"
    xmlns:xlink="http://www.w3.org/1999/xlink">
  <polygon points="455,345 463,320 321,17 56,140 47,168 257,230 265,233 275,292"
           fill="bisque"/>
  <g stroke="chocolate" stroke-width="1">
    <line x1="257" y1="230" x2="47" y2="168"/>
    <circle cx="257" cy="230" r="2"/>
    <circle cx="47" cy="168" r="2"/>
  </g>
  <g stroke="chocolate" stroke-width="1">
    <line x1="264" y1="232" x2="257" y2="230"/>
    <circle cx="264" cy="232" r="2"/>
    <circle cx="257" cy="230" r="2"/>
  </g>
  <g stroke="chocolate" stroke-width="1">
    <line x1="257" y1="230" x2="56" y2="140"/>
    <circle cx="257" cy="230" r="2"/>
    <circle cx="56" cy="140" r="2"/>
  </g>
  <g stroke="chocolate" stroke-width="1">
    <line x1="265" y1="233" x2="257" y2="230"/>
    <circle cx="265" cy="233" r="2"/>
    <circle cx="257" cy="230" r="2"/>
  </g>
  <g stroke="chocolate" stroke-width="1">
    <line x1="331" y1="251" x2="264" y2="232"/>
    <circle cx="331" cy="251" r="2"/>
    <circle cx="264" cy="232" r="2"/>
  </g>
  <g stroke="chocolate" stroke-width="1">
    <line x1="264" y1="232" x2="264" y2="228"/>
    <circle cx="264" cy="232" r="2"/>
    <circle cx="264" cy="228" r="2"/>
  </g>
  <g stroke="chocolate" stroke-width="1">
    <line x1="265" y1="233" x2="264" y2="232"/>
    <circle cx="265" cy="233" r="2"/>
    <circle cx="264" cy="232" r="2"/>
  </g>
  <g stroke="chocolate" stroke-width="1">
    <line x1="331" y1="213" x2="356" y2="207"/>
    <circle cx="331" cy="213" r="2"/>
    <circle cx="356" cy="207" r="2"/>
  </g>
  <g stroke="chocolate" stroke-width="1">
    <line x1="264" y1="228" x2="331" y2="213"/>
    <circle cx="264" cy="228" r="2"/>
    <circle cx="331" cy="213" r="2"/>
  </g>
  <g stroke="chocolate" stroke-width="1">
    <line x1="331" y1="213" x2="239" y2="90"/>
    <circle cx="331" cy="213" r="2"/>
    <circle cx="239" cy="90" r="2"/>
  </g>
  <g stroke="chocolate" stroke-width="1">
    <line x1="349" y1="237" x2="331" y2="213"/>
    <circle cx="349" cy="237" r="2"/>
    <circle cx="331" cy="213" r="2"/>
  </g>
  <g stroke="chocolate" stroke-width="1">
    <line x1="367" y1="262" x2="331" y2="251"/>
    <circle cx="367" cy="262" r="2"/>
    <circle cx="331" cy="251" r="2"/>
  </g>
  <g stroke="chocolate" stroke-width="1">
    <line x1="331" y1="251" x2="349" y2="237"/>
    <circle cx="331" cy="251" r="2"/>
    <circle cx="349" cy="237" r="2"/>
  </g>
  <g stroke="chocolate" stroke-width="1">
    <line x1="321" y1="258" x2="331" y2="251"/>
    <circle cx="321" cy="258" r="2"/>
    <circle cx="331" cy="251" r="2"/>
  </g>
  <g stroke="chocolate" stroke-width="1">
    <line x1="386" y1="287" x2="367" y2="262"/>
    <circle cx="386" cy="287" r="2"/>
    <circle cx="367" cy="262" r="2"/>
  </g>
  <g stroke="chocolate" stroke-width="1">
    <line x1="417" y1="328" x2="386" y2="287"/>
    <circle cx="417" cy="328" r="2"/>
    <circle cx="386" cy="287" r="2"/>
  </g>
  <g stroke="chocolate" stroke-width="1">
    <line x1="386" y1="287" x2="321" y2="258"/>
    <circle cx="386" cy="287" r="2"/>
    <circle cx="321" cy="258" r="2"/>
  </g>
  <g stroke="chocolate" stroke-width="1">
    <line x1="441" y1="311" x2="386" y2="287"/>
    <circle cx="441" cy="311" r="2"/>
    <circle cx="386" cy="287" r="2"/>
  </g>
  <g stroke="chocolate" stroke-width="1">
    <line x1="356" y1="207" x2="233" y2="58"/>
    <circle cx="356" cy="207" r="2"/>
    <circle cx="233" cy="58" r="2"/>
  </g>
  <g stroke="chocolate" stroke-width="1">
    <line x1="369" y1="223" x2="356" y2="207"/>
    <circle cx="369" cy="223" r="2"/>
    <circle cx="356" cy="207" r="2"/>
  </g>
  <g stroke="chocolate" stroke-width="1">
    <line x1="356" y1="207" x2="405" y2="196"/>
    <circle cx="356" cy="207" r="2"/>
    <circle cx="405" cy="196" r="2"/>
  </g>
  <g stroke="chocolate" stroke-width="1">
    <line x1="321" y1="258" x2="265" y2="233"/>
    <circle cx="321" cy="258" r="2"/>
    <circle cx="265" cy="233" r="2"/>
  </g>
  <g stroke="chocolate" stroke-width="1">
    <line x1="275" y1="292" x2="265" y2="233"/>
    <circle cx="275" cy="292" r="2"/>
    <circle cx="265" cy="233" r="2"/>
  </g>
  <g stroke="chocolate" stroke-width="1">
    <line x1="239" y1="90" x2="233" y2="58"/>
    <circle cx="239" cy="90" r="2"/>
    <circle cx="233" cy="58" r="2"/>
  </g>
  <g stroke="chocolate" stroke-width="1">
    <line x1="264" y1="228" x2="239" y2="90"/>
    <circle cx="264" cy="228" r="2"/>
    <circle cx="239" cy="90" r="2"/>
  </g>
  <g stroke="chocolate" stroke-width="1">
    <line x1="239" y1="90" x2="219" y2="64"/>
    <circle cx="239" cy="90" r="2"/>
    <circle cx="219" cy="64" r="2"/>
  </g>
  <g stroke="chocolate" stroke-width="1">
    <line x1="412" y1="275" x2="367" y2="262"/>
    <circle cx="412" cy="275" r="2"/>
    <circle cx="367" cy="262" r="2"/>
  </g>
  <g stroke="chocolate" stroke-width="1">
    <line x1="367" y1="262" x2="349" y2="237"/>
    <circle cx="367" cy="262" r="2"/>
    <circle cx="349" cy="237" r="2"/>
  </g>
  <g stroke="chocolate" stroke-width="1">
    <line x1="412" y1="275" x2="369" y2="223"/>
    <circle cx="412" cy="275" r="2"/>
    <circle cx="369" cy="223" r="2"/>
  </g>
  <g stroke="chocolate" stroke-width="1">
    <line x1="369" y1="223" x2="405" y2="196"/>
    <circle cx="369" cy="223" r="2"/>
    <circle cx="405" cy="196" r="2"/>
  </g>
  <g stroke="chocolate" stroke-width="1">
    <line x1="349" y1="237" x2="369" y2="223"/>
    <circle cx="349" cy="237" r="2"/>
    <circle cx="369" cy="223" r="2"/>
  </g>
  <g stroke="chocolate" stroke-width="1">
    <line x1="275" y1="292" x2="321" y2="258"/>
    <circle cx="275" cy="292" r="2"/>
    <circle cx="321" cy="258" r="2"/>
  </g>
  <g stroke="chocolate" stroke-width="1">
    <line x1="446" y1="285" x2="412" y2="275"/>
    <circle cx="446" cy="285" r="2"/>
    <circle cx="412" cy="275" r="2"/>
  </g>
  <g stroke="chocolate" stroke-width="1">
    <line x1="437" y1="305" x2="412" y2="275"/>
    <circle cx="437" cy="305" r="2"/>
    <circle cx="412" cy="275" r="2"/>
  </g>
  <g stroke="chocolate" stroke-width="1">
    <line x1="257" y1="230" x2="264" y2="228"/>
    <circle cx="257" cy="230" r="2"/>
    <circle cx="264" cy="228" r="2"/>
  </g>
  <g stroke="chocolate" stroke-width="1">
    <line x1="463" y1="320" x2="441" y2="311"/>
    <circle cx="463" cy="320" r="2"/>
    <circle cx="441" cy="311" r="2"/>
  </g>
  <g stroke="chocolate" stroke-width="1">
    <line x1="441" y1="311" x2="454" y2="301"/>
    <circle cx="441" cy="311" r="2"/>
    <circle cx="454" cy="301" r="2"/>
  </g>
  <g stroke="chocolate" stroke-width="1">
    <line x1="417" y1="328" x2="441" y2="311"/>
    <circle cx="417" cy="328" r="2"/>
    <circle cx="441" cy="311" r="2"/>
  </g>
  <g stroke="chocolate" stroke-width="1">
    <line x1="455" y1="345" x2="275" y2="292"/>
    <circle cx="455" cy="345" r="2"/>
    <circle cx="275" cy="292" r="2"/>
  </g>
  <g stroke="chocolate" stroke-width="1">
    <line x1="56" y1="140" x2="321" y2="17"/>
    <circle cx="56" cy="140" r="2"/>
    <circle cx="321" cy="17" r="2"/>
  </g>
  <g stroke="chocolate" stroke-width="1">
    <line x1="463" y1="320" x2="321" y2="17"/>
    <circle cx="463" cy="320" r="2"/>
    <circle cx="321" cy="17" r="2"/>
  </g>
  <g stroke="chocolate" stroke-width="1">
    <line x1="257" y1="230" x2="219" y2="64"/>
    <circle cx="257" cy="230" r="2"/>
    <circle cx="219" cy="64" r="2"/>
  </g>
  <g stroke="chocolate" stroke-width="1">
    <line x1="437" y1="305" x2="454" y2="301"/>
    <circle cx="437" cy="305" r="2"/>
    <circle cx="454" cy="301" r="2"/>
  </g>
  <g stroke="chocolate" stroke-width="1">
    <line x1="47" y1="168" x2="56" y2="140"/>
    <circle cx="47" cy="168" r="2"/>
    <circle cx="56" cy="140" r="2"/>
  </g>
  <g stroke="chocolate" stroke-width="1">
    <line x1="455" y1="345" x2="463" y2="320"/>
    <circle cx="455" cy="345" r="2"/>
    <circle cx="463" cy="320" r="2"/>
  </g>
  <g stroke="chocolate" stroke-width="1">
    <line x1="437" y1="305" x2="446" y2="285"/>
    <circle cx="437" cy="305" r="2"/>
    <circle cx="446" cy="285" r="2"/>
  </g>
  <g stroke="black" stroke-width="1">
    <line x1="5" y1="5" x2="505" y2="5"/>
    <line x1="5" y1="5" x2="5" y2="505"/>
    <line x1="505" y1="505" x2="5" y2="505"/>
    <line x1="505" y1="505" x2="505" y2="5"/>
    <line x1="105" y1="2" x2="105" y2="8"/>
    <line x1="2" y1="105" x2="8" y2="105"/>
    <line x1="105" y1="502" x2="105" y2="508"/>
    <line x1="502" y1="105" x2="508" y2="105"/>
    <line x1="205" y1="2" x2="205" y2="8"/>
    <line x1="2" y1="205" x2="8" y2="205"/>
    <line x1="205" y1="502" x2="205" y2="508"/>
    <line x1="502" y1="205" x2="508" y2="205"/>
    <line x1="305" y1="2" x2="305" y2="8"/>
    <line x1="2" y1="305" x2="8" y2="305"/>
    <line x1="305" y1="502" x2="305" y2="508"/>
    <line x1="502" y1="305" x2="508" y2="305"/>
    <line x1="405" y1="2" x2="405" y2="8"/>
    <line x1="2" y1="405" x2="8" y2="405"/>
    <line x1="405" y1="502" x2="405" y2="508"/>
    <line x1="502" y1="405" x2="508" y2="405"/>
  </g>
  <g stroke="gray" stroke-width="1" stroke-dasharray="5,5">
    <line x1="105" y1="5" x2="105" y2="505"/>
    <line x1="5" y1="105" x2="505" y2="105"/>
    <line x1="205" y1="5" x2="205" y2="505"/>
    <line x1="5" y1="205" x2="505" y2="205"/>
    <line x1="305" y1="5" x2="305" y2="505"/>
    <line x1="5" y1="305" x2="505" y2="305"/>
    <line x1="405" y1="5" x2="405" y2="505"/>
    <line x1="5" y1="405" x2="505" y2="405"/>
  </g>
</svg>
