<?xml version="1.0" standalone="no"?>
<!DOCTYPE svg PUBLIC "-//W3C//DTD SVG 1.1//EN" 
  "http://www.w3.org/Graphics/SVG/1.1/DTD/svg11.dtd">
<svg width="558" height="558" version="1.1" id="toplevel"
    xmlns="http://www.w3.org/2000/svg"
    xmlns:xlink="http://www.w3.org/1999/xlink">
  <polygon points="310,553 525,471 402,150 431,64 380,25 381,24 358,6 357,7 354,5 349,11 276,519 278,523"
           fill="bisque"/>
  <g stroke="chocolate" stroke-width="1">
    <line x1="370" y1="72" x2="371" y2="68"/>
    <circle cx="370" cy="72" r="2"/>
    <circle cx="371" cy="68" r="2"/>
  </g>
  <g stroke="chocolate" stroke-width="1">
    <line x1="370" y1="73" x2="370" y2="72"/>
    <circle cx="370" cy="73" r="2"/>
    <circle cx="370" cy="72" r="2"/>
  </g>
  <g stroke="chocolate" stroke-width="1">
    <line x1="370" y1="72" x2="370" y2="72"/>
    <circle cx="370" cy="72" r="2"/>
    <circle cx="370" cy="72" r="2"/>
  </g>
  <g stroke="chocolate" stroke-width="1">
    <line x1="373" y1="73" x2="370" y2="72"/>
    <circle cx="373" cy="73" r="2"/>
    <circle cx="370" cy="72" r="2"/>
  </g>
  <g stroke="chocolate" stroke-width="1">
    <line x1="371" y1="68" x2="372" y2="64"/>
    <circle cx="371" cy="68" r="2"/>
    <circle cx="372" cy="64" r="2"/>
  </g>
  <g stroke="chocolate" stroke-width="1">
    <line x1="371" y1="68" x2="369" y2="64"/>
    <circle cx="371" cy="68" r="2"/>
    <circle cx="369" cy="64" r="2"/>
  </g>
  <g stroke="chocolate" stroke-width="1">
    <line x1="373" y1="73" x2="371" y2="68"/>
    <circle cx="373" cy="73" r="2"/>
    <circle cx="371" cy="68" r="2"/>
  </g>
  <g stroke="chocolate" stroke-width="1">
    <line x1="370" y1="72" x2="366" y2="64"/>
    <circle cx="370" cy="72" r="2"/>
    <circle cx="366" cy="64" r="2"/>
  </g>
  <g stroke="chocolate" stroke-width="1">
    <line x1="370" y1="73" x2="370" y2="72"/>
    <circle cx="370" cy="73" r="2"/>
    <circle cx="370" cy="72" r="2"/>
  </g>
  <g stroke="chocolate" stroke-width="1">
    <line x1="370" y1="72" x2="342" y2="64"/>
    <circle cx="370" cy="72" r="2"/>
    <circle cx="342" cy="64" r="2"/>
  </g>
  <g stroke="chocolate" stroke-width="1">
    <line x1="344" y1="281" x2="343" y2="280"/>
    <circle cx="344" cy="281" r="2"/>
    <circle cx="343" cy="280" r="2"/>
  </g>
  <g stroke="chocolate" stroke-width="1">
    <line x1="357" y1="285" x2="344" y2="281"/>
    <circle cx="357" cy="285" r="2"/>
    <circle cx="344" cy="281" r="2"/>
  </g>
  <g stroke="chocolate" stroke-width="1">
    <line x1="344" y1="281" x2="347" y2="270"/>
    <circle cx="344" cy="281" r="2"/>
    <circle cx="347" cy="270" r="2"/>
  </g>
  <g stroke="chocolate" stroke-width="1">
    <line x1="292" y1="478" x2="344" y2="281"/>
    <circle cx="292" cy="478" r="2"/>
    <circle cx="344" cy="281" r="2"/>
  </g>
  <g stroke="chocolate" stroke-width="1">
    <line x1="332" y1="245" x2="317" y2="234"/>
    <circle cx="332" cy="245" r="2"/>
    <circle cx="317" cy="234" r="2"/>
  </g>
  <g stroke="chocolate" stroke-width="1">
    <line x1="349" y1="259" x2="332" y2="245"/>
    <circle cx="349" cy="259" r="2"/>
    <circle cx="332" cy="245" r="2"/>
  </g>
  <g stroke="chocolate" stroke-width="1">
    <line x1="332" y1="245" x2="336" y2="226"/>
    <circle cx="332" cy="245" r="2"/>
    <circle cx="336" cy="226" r="2"/>
  </g>
  <g stroke="chocolate" stroke-width="1">
    <line x1="327" y1="270" x2="332" y2="245"/>
    <circle cx="327" cy="270" r="2"/>
    <circle cx="332" cy="245" r="2"/>
  </g>
  <g stroke="chocolate" stroke-width="1">
    <line x1="326" y1="275" x2="312" y2="270"/>
    <circle cx="326" cy="275" r="2"/>
    <circle cx="312" cy="270" r="2"/>
  </g>
  <g stroke="chocolate" stroke-width="1">
    <line x1="343" y1="280" x2="326" y2="275"/>
    <circle cx="343" cy="280" r="2"/>
    <circle cx="326" cy="275" r="2"/>
  </g>
  <g stroke="chocolate" stroke-width="1">
    <line x1="326" y1="275" x2="327" y2="270"/>
    <circle cx="326" cy="275" r="2"/>
    <circle cx="327" cy="270" r="2"/>
  </g>
  <g stroke="chocolate" stroke-width="1">
    <line x1="284" y1="466" x2="326" y2="275"/>
    <circle cx="284" cy="466" r="2"/>
    <circle cx="326" cy="275" r="2"/>
  </g>
  <g stroke="chocolate" stroke-width="1">
    <line x1="389" y1="114" x2="373" y2="73"/>
    <circle cx="389" cy="114" r="2"/>
    <circle cx="373" cy="73" r="2"/>
  </g>
  <g stroke="chocolate" stroke-width="1">
    <line x1="390" y1="118" x2="389" y2="114"/>
    <circle cx="390" cy="118" r="2"/>
    <circle cx="389" cy="114" r="2"/>
  </g>
  <g stroke="chocolate" stroke-width="1">
    <line x1="389" y1="114" x2="397" y2="80"/>
    <circle cx="389" cy="114" r="2"/>
    <circle cx="397" cy="80" r="2"/>
  </g>
  <g stroke="chocolate" stroke-width="1">
    <line x1="362" y1="215" x2="389" y2="114"/>
    <circle cx="362" cy="215" r="2"/>
    <circle cx="389" cy="114" r="2"/>
  </g>
  <g stroke="chocolate" stroke-width="1">
    <line x1="356" y1="38" x2="346" y2="32"/>
    <circle cx="356" cy="38" r="2"/>
    <circle cx="346" cy="32" r="2"/>
  </g>
  <g stroke="chocolate" stroke-width="1">
    <line x1="360" y1="40" x2="356" y2="38"/>
    <circle cx="360" cy="40" r="2"/>
    <circle cx="356" cy="38" r="2"/>
  </g>
  <g stroke="chocolate" stroke-width="1">
    <line x1="356" y1="38" x2="353" y2="31"/>
    <circle cx="356" cy="38" r="2"/>
    <circle cx="353" cy="31" r="2"/>
  </g>
  <g stroke="chocolate" stroke-width="1">
    <line x1="366" y1="64" x2="356" y2="38"/>
    <circle cx="366" cy="64" r="2"/>
    <circle cx="356" cy="38" r="2"/>
  </g>
  <g stroke="chocolate" stroke-width="1">
    <line x1="354" y1="144" x2="370" y2="73"/>
    <circle cx="354" cy="144" r="2"/>
    <circle cx="370" cy="73" r="2"/>
  </g>
  <g stroke="chocolate" stroke-width="1">
    <line x1="388" y1="118" x2="370" y2="73"/>
    <circle cx="388" cy="118" r="2"/>
    <circle cx="370" cy="73" r="2"/>
  </g>
  <g stroke="chocolate" stroke-width="1">
    <line x1="356" y1="30" x2="351" y2="15"/>
    <circle cx="356" cy="30" r="2"/>
    <circle cx="351" cy="15" r="2"/>
  </g>
  <g stroke="chocolate" stroke-width="1">
    <line x1="360" y1="40" x2="356" y2="30"/>
    <circle cx="360" cy="40" r="2"/>
    <circle cx="356" cy="30" r="2"/>
  </g>
  <g stroke="chocolate" stroke-width="1">
    <line x1="356" y1="30" x2="379" y2="24"/>
    <circle cx="356" cy="30" r="2"/>
    <circle cx="379" cy="24" r="2"/>
  </g>
  <g stroke="chocolate" stroke-width="1">
    <line x1="353" y1="31" x2="356" y2="30"/>
    <circle cx="353" cy="31" r="2"/>
    <circle cx="356" cy="30" r="2"/>
  </g>
  <g stroke="chocolate" stroke-width="1">
    <line x1="397" y1="80" x2="373" y2="73"/>
    <circle cx="397" cy="80" r="2"/>
    <circle cx="373" cy="73" r="2"/>
  </g>
  <g stroke="chocolate" stroke-width="1">
    <line x1="380" y1="25" x2="379" y2="24"/>
    <circle cx="380" cy="25" r="2"/>
    <circle cx="379" cy="24" r="2"/>
  </g>
  <g stroke="chocolate" stroke-width="1">
    <line x1="431" y1="64" x2="380" y2="25"/>
    <circle cx="431" cy="64" r="2"/>
    <circle cx="380" cy="25" r="2"/>
  </g>
  <g stroke="chocolate" stroke-width="1">
    <line x1="380" y1="25" x2="381" y2="24"/>
    <circle cx="380" cy="25" r="2"/>
    <circle cx="381" cy="24" r="2"/>
  </g>
  <g stroke="chocolate" stroke-width="1">
    <line x1="375" y1="49" x2="380" y2="25"/>
    <circle cx="375" cy="49" r="2"/>
    <circle cx="380" cy="25" r="2"/>
  </g>
  <g stroke="chocolate" stroke-width="1">
    <line x1="369" y1="64" x2="360" y2="40"/>
    <circle cx="369" cy="64" r="2"/>
    <circle cx="360" cy="40" r="2"/>
  </g>
  <g stroke="chocolate" stroke-width="1">
    <line x1="375" y1="49" x2="360" y2="40"/>
    <circle cx="375" cy="49" r="2"/>
    <circle cx="360" cy="40" r="2"/>
  </g>
  <g stroke="chocolate" stroke-width="1">
    <line x1="372" y1="64" x2="375" y2="49"/>
    <circle cx="372" cy="64" r="2"/>
    <circle cx="375" cy="49" r="2"/>
  </g>
  <g stroke="chocolate" stroke-width="1">
    <line x1="372" y1="64" x2="431" y2="64"/>
    <circle cx="372" cy="64" r="2"/>
    <circle cx="431" cy="64" r="2"/>
  </g>
  <g stroke="chocolate" stroke-width="1">
    <line x1="369" y1="64" x2="372" y2="64"/>
    <circle cx="369" cy="64" r="2"/>
    <circle cx="372" cy="64" r="2"/>
  </g>
  <g stroke="chocolate" stroke-width="1">
    <line x1="343" y1="280" x2="346" y2="270"/>
    <circle cx="343" cy="280" r="2"/>
    <circle cx="346" cy="270" r="2"/>
  </g>
  <g stroke="chocolate" stroke-width="1">
    <line x1="282" y1="485" x2="343" y2="280"/>
    <circle cx="282" cy="485" r="2"/>
    <circle cx="343" cy="280" r="2"/>
  </g>
  <g stroke="chocolate" stroke-width="1">
    <line x1="350" y1="260" x2="349" y2="259"/>
    <circle cx="350" cy="260" r="2"/>
    <circle cx="349" cy="259" r="2"/>
  </g>
  <g stroke="chocolate" stroke-width="1">
    <line x1="349" y1="259" x2="361" y2="216"/>
    <circle cx="349" cy="259" r="2"/>
    <circle cx="361" cy="216" r="2"/>
  </g>
  <g stroke="chocolate" stroke-width="1">
    <line x1="346" y1="270" x2="349" y2="259"/>
    <circle cx="346" cy="270" r="2"/>
    <circle cx="349" cy="259" r="2"/>
  </g>
  <g stroke="chocolate" stroke-width="1">
    <line x1="347" y1="270" x2="350" y2="260"/>
    <circle cx="347" cy="270" r="2"/>
    <circle cx="350" cy="260" r="2"/>
  </g>
  <g stroke="chocolate" stroke-width="1">
    <line x1="347" y1="270" x2="362" y2="269"/>
    <circle cx="347" cy="270" r="2"/>
    <circle cx="362" cy="269" r="2"/>
  </g>
  <g stroke="chocolate" stroke-width="1">
    <line x1="346" y1="270" x2="347" y2="270"/>
    <circle cx="346" cy="270" r="2"/>
    <circle cx="347" cy="270" r="2"/>
  </g>
  <g stroke="chocolate" stroke-width="1">
    <line x1="327" y1="270" x2="346" y2="270"/>
    <circle cx="327" cy="270" r="2"/>
    <circle cx="346" cy="270" r="2"/>
  </g>
  <g stroke="chocolate" stroke-width="1">
    <line x1="312" y1="270" x2="327" y2="270"/>
    <circle cx="312" cy="270" r="2"/>
    <circle cx="327" cy="270" r="2"/>
  </g>
  <g stroke="chocolate" stroke-width="1">
    <line x1="362" y1="215" x2="362" y2="215"/>
    <circle cx="362" cy="215" r="2"/>
    <circle cx="362" cy="215" r="2"/>
  </g>
  <g stroke="chocolate" stroke-width="1">
    <line x1="362" y1="215" x2="344" y2="190"/>
    <circle cx="362" cy="215" r="2"/>
    <circle cx="344" cy="190" r="2"/>
  </g>
  <g stroke="chocolate" stroke-width="1">
    <line x1="362" y1="215" x2="362" y2="215"/>
    <circle cx="362" cy="215" r="2"/>
    <circle cx="362" cy="215" r="2"/>
  </g>
  <g stroke="chocolate" stroke-width="1">
    <line x1="366" y1="64" x2="369" y2="64"/>
    <circle cx="366" cy="64" r="2"/>
    <circle cx="369" cy="64" r="2"/>
  </g>
  <g stroke="chocolate" stroke-width="1">
    <line x1="342" y1="64" x2="366" y2="64"/>
    <circle cx="342" cy="64" r="2"/>
    <circle cx="366" cy="64" r="2"/>
  </g>
  <g stroke="chocolate" stroke-width="1">
    <line x1="336" y1="226" x2="344" y2="190"/>
    <circle cx="336" cy="226" r="2"/>
    <circle cx="344" cy="190" r="2"/>
  </g>
  <g stroke="chocolate" stroke-width="1">
    <line x1="336" y1="226" x2="362" y2="215"/>
    <circle cx="336" cy="226" r="2"/>
    <circle cx="362" cy="215" r="2"/>
  </g>
  <g stroke="chocolate" stroke-width="1">
    <line x1="317" y1="234" x2="336" y2="226"/>
    <circle cx="317" cy="234" r="2"/>
    <circle cx="336" cy="226" r="2"/>
  </g>
  <g stroke="chocolate" stroke-width="1">
    <line x1="379" y1="24" x2="381" y2="24"/>
    <circle cx="379" cy="24" r="2"/>
    <circle cx="381" cy="24" r="2"/>
  </g>
  <g stroke="chocolate" stroke-width="1">
    <line x1="379" y1="24" x2="357" y2="7"/>
    <circle cx="379" cy="24" r="2"/>
    <circle cx="357" cy="7" r="2"/>
  </g>
  <g stroke="chocolate" stroke-width="1">
    <line x1="351" y1="15" x2="349" y2="11"/>
    <circle cx="351" cy="15" r="2"/>
    <circle cx="349" cy="11" r="2"/>
  </g>
  <g stroke="chocolate" stroke-width="1">
    <line x1="351" y1="15" x2="357" y2="7"/>
    <circle cx="351" cy="15" r="2"/>
    <circle cx="357" cy="7" r="2"/>
  </g>
  <g stroke="chocolate" stroke-width="1">
    <line x1="348" y1="19" x2="351" y2="15"/>
    <circle cx="348" cy="19" r="2"/>
    <circle cx="351" cy="15" r="2"/>
  </g>
  <g stroke="chocolate" stroke-width="1">
    <line x1="402" y1="150" x2="390" y2="118"/>
    <circle cx="402" cy="150" r="2"/>
    <circle cx="390" cy="118" r="2"/>
  </g>
  <g stroke="chocolate" stroke-width="1">
    <line x1="390" y1="118" x2="401" y2="81"/>
    <circle cx="390" cy="118" r="2"/>
    <circle cx="401" cy="81" r="2"/>
  </g>
  <g stroke="chocolate" stroke-width="1">
    <line x1="361" y1="216" x2="390" y2="118"/>
    <circle cx="361" cy="216" r="2"/>
    <circle cx="390" cy="118" r="2"/>
  </g>
  <g stroke="chocolate" stroke-width="1">
    <line x1="280" y1="494" x2="282" y2="485"/>
    <circle cx="280" cy="494" r="2"/>
    <circle cx="282" cy="485" r="2"/>
  </g>
  <g stroke="chocolate" stroke-width="1">
    <line x1="282" y1="485" x2="284" y2="466"/>
    <circle cx="282" cy="485" r="2"/>
    <circle cx="284" cy="466" r="2"/>
  </g>
  <g stroke="chocolate" stroke-width="1">
    <line x1="281" y1="504" x2="282" y2="485"/>
    <circle cx="281" cy="504" r="2"/>
    <circle cx="282" cy="485" r="2"/>
  </g>
  <g stroke="chocolate" stroke-width="1">
    <line x1="280" y1="508" x2="281" y2="504"/>
    <circle cx="280" cy="508" r="2"/>
    <circle cx="281" cy="504" r="2"/>
  </g>
  <g stroke="chocolate" stroke-width="1">
    <line x1="277" y1="515" x2="280" y2="508"/>
    <circle cx="277" cy="515" r="2"/>
    <circle cx="280" cy="508" r="2"/>
  </g>
  <g stroke="chocolate" stroke-width="1">
    <line x1="280" y1="508" x2="280" y2="494"/>
    <circle cx="280" cy="508" r="2"/>
    <circle cx="280" cy="494" r="2"/>
  </g>
  <g stroke="chocolate" stroke-width="1">
    <line x1="280" y1="513" x2="280" y2="508"/>
    <circle cx="280" cy="513" r="2"/>
    <circle cx="280" cy="508" r="2"/>
  </g>
  <g stroke="chocolate" stroke-width="1">
    <line x1="277" y1="517" x2="280" y2="513"/>
    <circle cx="277" cy="517" r="2"/>
    <circle cx="280" cy="513" r="2"/>
  </g>
  <g stroke="chocolate" stroke-width="1">
    <line x1="276" y1="518" x2="277" y2="517"/>
    <circle cx="276" cy="518" r="2"/>
    <circle cx="277" cy="517" r="2"/>
  </g>
  <g stroke="chocolate" stroke-width="1">
    <line x1="277" y1="517" x2="277" y2="515"/>
    <circle cx="277" cy="517" r="2"/>
    <circle cx="277" cy="515" r="2"/>
  </g>
  <g stroke="chocolate" stroke-width="1">
    <line x1="277" y1="518" x2="277" y2="517"/>
    <circle cx="277" cy="518" r="2"/>
    <circle cx="277" cy="517" r="2"/>
  </g>
  <g stroke="chocolate" stroke-width="1">
    <line x1="397" y1="80" x2="402" y2="64"/>
    <circle cx="397" cy="80" r="2"/>
    <circle cx="402" cy="64" r="2"/>
  </g>
  <g stroke="chocolate" stroke-width="1">
    <line x1="401" y1="81" x2="397" y2="80"/>
    <circle cx="401" cy="81" r="2"/>
    <circle cx="397" cy="80" r="2"/>
  </g>
  <g stroke="chocolate" stroke-width="1">
    <line x1="402" y1="64" x2="375" y2="49"/>
    <circle cx="402" cy="64" r="2"/>
    <circle cx="375" cy="49" r="2"/>
  </g>
  <g stroke="chocolate" stroke-width="1">
    <line x1="357" y1="285" x2="402" y2="150"/>
    <circle cx="357" cy="285" r="2"/>
    <circle cx="402" cy="150" r="2"/>
  </g>
  <g stroke="chocolate" stroke-width="1">
    <line x1="280" y1="514" x2="357" y2="285"/>
    <circle cx="280" cy="514" r="2"/>
    <circle cx="357" cy="285" r="2"/>
  </g>
  <g stroke="chocolate" stroke-width="1">
    <line x1="392" y1="296" x2="357" y2="285"/>
    <circle cx="392" cy="296" r="2"/>
    <circle cx="357" cy="285" r="2"/>
  </g>
  <g stroke="chocolate" stroke-width="1">
    <line x1="350" y1="260" x2="361" y2="216"/>
    <circle cx="350" cy="260" r="2"/>
    <circle cx="361" cy="216" r="2"/>
  </g>
  <g stroke="chocolate" stroke-width="1">
    <line x1="362" y1="269" x2="350" y2="260"/>
    <circle cx="362" cy="269" r="2"/>
    <circle cx="350" cy="260" r="2"/>
  </g>
  <g stroke="chocolate" stroke-width="1">
    <line x1="344" y1="190" x2="354" y2="144"/>
    <circle cx="344" cy="190" r="2"/>
    <circle cx="354" cy="144" r="2"/>
  </g>
  <g stroke="chocolate" stroke-width="1">
    <line x1="344" y1="190" x2="327" y2="166"/>
    <circle cx="344" cy="190" r="2"/>
    <circle cx="327" cy="166" r="2"/>
  </g>
  <g stroke="chocolate" stroke-width="1">
    <line x1="346" y1="32" x2="353" y2="31"/>
    <circle cx="346" cy="32" r="2"/>
    <circle cx="353" cy="31" r="2"/>
  </g>
  <g stroke="chocolate" stroke-width="1">
    <line x1="353" y1="31" x2="348" y2="19"/>
    <circle cx="353" cy="31" r="2"/>
    <circle cx="348" cy="19" r="2"/>
  </g>
  <g stroke="chocolate" stroke-width="1">
    <line x1="361" y1="216" x2="362" y2="215"/>
    <circle cx="361" cy="216" r="2"/>
    <circle cx="362" cy="215" r="2"/>
  </g>
  <g stroke="chocolate" stroke-width="1">
    <line x1="362" y1="215" x2="362" y2="215"/>
    <circle cx="362" cy="215" r="2"/>
    <circle cx="362" cy="215" r="2"/>
  </g>
  <g stroke="chocolate" stroke-width="1">
    <line x1="276" y1="519" x2="277" y2="518"/>
    <circle cx="276" cy="519" r="2"/>
    <circle cx="277" cy="518" r="2"/>
  </g>
  <g stroke="chocolate" stroke-width="1">
    <line x1="276" y1="519" x2="276" y2="519"/>
    <circle cx="276" cy="519" r="2"/>
    <circle cx="276" cy="519" r="2"/>
  </g>
  <g stroke="chocolate" stroke-width="1">
    <line x1="276" y1="519" x2="276" y2="518"/>
    <circle cx="276" cy="519" r="2"/>
    <circle cx="276" cy="518" r="2"/>
  </g>
  <g stroke="chocolate" stroke-width="1">
    <line x1="278" y1="523" x2="276" y2="519"/>
    <circle cx="278" cy="523" r="2"/>
    <circle cx="276" cy="519" r="2"/>
  </g>
  <g stroke="chocolate" stroke-width="1">
    <line x1="357" y1="7" x2="354" y2="5"/>
    <circle cx="357" cy="7" r="2"/>
    <circle cx="354" cy="5" r="2"/>
  </g>
  <g stroke="chocolate" stroke-width="1">
    <line x1="357" y1="7" x2="358" y2="6"/>
    <circle cx="357" cy="7" r="2"/>
    <circle cx="358" cy="6" r="2"/>
  </g>
  <g stroke="chocolate" stroke-width="1">
    <line x1="354" y1="144" x2="388" y2="118"/>
    <circle cx="354" cy="144" r="2"/>
    <circle cx="388" cy="118" r="2"/>
  </g>
  <g stroke="chocolate" stroke-width="1">
    <line x1="327" y1="166" x2="354" y2="144"/>
    <circle cx="327" cy="166" r="2"/>
    <circle cx="354" cy="144" r="2"/>
  </g>
  <g stroke="chocolate" stroke-width="1">
    <line x1="525" y1="471" x2="402" y2="150"/>
    <circle cx="525" cy="471" r="2"/>
    <circle cx="402" cy="150" r="2"/>
  </g>
  <g stroke="chocolate" stroke-width="1">
    <line x1="402" y1="150" x2="431" y2="64"/>
    <circle cx="402" cy="150" r="2"/>
    <circle cx="431" cy="64" r="2"/>
  </g>
  <g stroke="chocolate" stroke-width="1">
    <line x1="280" y1="512" x2="281" y2="504"/>
    <circle cx="280" cy="512" r="2"/>
    <circle cx="281" cy="504" r="2"/>
  </g>
  <g stroke="chocolate" stroke-width="1">
    <line x1="281" y1="504" x2="292" y2="478"/>
    <circle cx="281" cy="504" r="2"/>
    <circle cx="292" cy="478" r="2"/>
  </g>
  <g stroke="chocolate" stroke-width="1">
    <line x1="280" y1="514" x2="280" y2="513"/>
    <circle cx="280" cy="514" r="2"/>
    <circle cx="280" cy="513" r="2"/>
  </g>
  <g stroke="chocolate" stroke-width="1">
    <line x1="280" y1="513" x2="280" y2="512"/>
    <circle cx="280" cy="513" r="2"/>
    <circle cx="280" cy="512" r="2"/>
  </g>
  <g stroke="chocolate" stroke-width="1">
    <line x1="278" y1="523" x2="277" y2="518"/>
    <circle cx="278" cy="523" r="2"/>
    <circle cx="277" cy="518" r="2"/>
  </g>
  <g stroke="chocolate" stroke-width="1">
    <line x1="277" y1="518" x2="280" y2="514"/>
    <circle cx="277" cy="518" r="2"/>
    <circle cx="280" cy="514" r="2"/>
  </g>
  <g stroke="chocolate" stroke-width="1">
    <line x1="381" y1="24" x2="358" y2="6"/>
    <circle cx="381" cy="24" r="2"/>
    <circle cx="358" cy="6" r="2"/>
  </g>
  <g stroke="chocolate" stroke-width="1">
    <line x1="310" y1="553" x2="278" y2="523"/>
    <circle cx="310" cy="553" r="2"/>
    <circle cx="278" cy="523" r="2"/>
  </g>
  <g stroke="chocolate" stroke-width="1">
    <line x1="278" y1="523" x2="276" y2="519"/>
    <circle cx="278" cy="523" r="2"/>
    <circle cx="276" cy="519" r="2"/>
  </g>
  <g stroke="chocolate" stroke-width="1">
    <line x1="349" y1="11" x2="354" y2="5"/>
    <circle cx="349" cy="11" r="2"/>
    <circle cx="354" cy="5" r="2"/>
  </g>
  <g stroke="chocolate" stroke-width="1">
    <line x1="276" y1="519" x2="349" y2="11"/>
    <circle cx="276" cy="519" r="2"/>
    <circle cx="349" cy="11" r="2"/>
  </g>
  <g stroke="chocolate" stroke-width="1">
    <line x1="310" y1="553" x2="392" y2="296"/>
    <circle cx="310" cy="553" r="2"/>
    <circle cx="392" cy="296" r="2"/>
  </g>
  <g stroke="chocolate" stroke-width="1">
    <line x1="310" y1="553" x2="525" y2="471"/>
    <circle cx="310" cy="553" r="2"/>
    <circle cx="525" cy="471" r="2"/>
  </g>
  <g stroke="black" stroke-width="1">
    <line x1="29" y1="29" x2="529" y2="29"/>
    <line x1="29" y1="29" x2="29" y2="529"/>
    <line x1="529" y1="529" x2="29" y2="529"/>
    <line x1="529" y1="529" x2="529" y2="29"/>
    <line x1="129" y1="26" x2="129" y2="32"/>
    <line x1="26" y1="129" x2="32" y2="129"/>
    <line x1="129" y1="526" x2="129" y2="532"/>
    <line x1="526" y1="129" x2="532" y2="129"/>
    <line x1="229" y1="26" x2="229" y2="32"/>
    <line x1="26" y1="229" x2="32" y2="229"/>
    <line x1="229" y1="526" x2="229" y2="532"/>
    <line x1="526" y1="229" x2="532" y2="229"/>
    <line x1="329" y1="26" x2="329" y2="32"/>
    <line x1="26" y1="329" x2="32" y2="329"/>
    <line x1="329" y1="526" x2="329" y2="532"/>
    <line x1="526" y1="329" x2="532" y2="329"/>
    <line x1="429" y1="26" x2="429" y2="32"/>
    <line x1="26" y1="429" x2="32" y2="429"/>
    <line x1="429" y1="526" x2="429" y2="532"/>
    <line x1="526" y1="429" x2="532" y2="429"/>
  </g>
  <g stroke="gray" stroke-width="1" stroke-dasharray="5,5">
    <line x1="129" y1="29" x2="129" y2="529"/>
    <line x1="29" y1="129" x2="529" y2="129"/>
    <line x1="229" y1="29" x2="229" y2="529"/>
    <line x1="29" y1="229" x2="529" y2="229"/>
    <line x1="329" y1="29" x2="329" y2="529"/>
    <line x1="29" y1="329" x2="529" y2="329"/>
    <line x1="429" y1="29" x2="429" y2="529"/>
    <line x1="29" y1="429" x2="529" y2="429"/>
  </g>
</svg>
