<?xml version="1.0" standalone="no"?>
<!DOCTYPE svg PUBLIC "-//W3C//DTD SVG 1.1//EN" 
  "http://www.w3.org/Graphics/SVG/1.1/DTD/svg11.dtd">
<svg width="510" height="510" version="1.1" id="toplevel"
    xmlns="http://www.w3.org/2000/svg"
    xmlns:xlink="http://www.w3.org/1999/xlink">
  <polygon points="162,394 237,386 336,381 383,388 384,379 149,116 140,116 139,143 134,143 136,186 126,353 130,353 130,353 140,354 140,378 145,378 146,390 161,390"
           fill="bisque"/>
  <g stroke="chocolate" stroke-width="1">
    <line x1="160" y1="378" x2="306" y2="378"/>
    <circle cx="160" cy="378" r="2"/>
    <circle cx="306" cy="378" r="2"/>
  </g>
  <g stroke="chocolate" stroke-width="1">
    <line x1="145" y1="378" x2="160" y2="378"/>
    <circle cx="145" cy="378" r="2"/>
    <circle cx="160" cy="378" r="2"/>
  </g>
  <g stroke="chocolate" stroke-width="1">
    <line x1="160" y1="378" x2="157" y2="357"/>
    <circle cx="160" cy="378" r="2"/>
    <circle cx="157" cy="357" r="2"/>
  </g>
  <g stroke="chocolate" stroke-width="1">
    <line x1="161" y1="390" x2="160" y2="378"/>
    <circle cx="161" cy="390" r="2"/>
    <circle cx="160" cy="378" r="2"/>
  </g>
  <g stroke="chocolate" stroke-width="1">
    <line x1="144" y1="355" x2="140" y2="354"/>
    <circle cx="144" cy="355" r="2"/>
    <circle cx="140" cy="354" r="2"/>
  </g>
  <g stroke="chocolate" stroke-width="1">
    <line x1="157" y1="357" x2="144" y2="355"/>
    <circle cx="157" cy="357" r="2"/>
    <circle cx="144" cy="355" r="2"/>
  </g>
  <g stroke="chocolate" stroke-width="1">
    <line x1="144" y1="355" x2="144" y2="354"/>
    <circle cx="144" cy="355" r="2"/>
    <circle cx="144" cy="354" r="2"/>
  </g>
  <g stroke="chocolate" stroke-width="1">
    <line x1="145" y1="378" x2="144" y2="355"/>
    <circle cx="145" cy="378" r="2"/>
    <circle cx="144" cy="355" r="2"/>
  </g>
  <g stroke="chocolate" stroke-width="1">
    <line x1="157" y1="354" x2="144" y2="354"/>
    <circle cx="157" cy="354" r="2"/>
    <circle cx="144" cy="354" r="2"/>
  </g>
  <g stroke="chocolate" stroke-width="1">
    <line x1="374" y1="368" x2="157" y2="354"/>
    <circle cx="374" cy="368" r="2"/>
    <circle cx="157" cy="354" r="2"/>
  </g>
  <g stroke="chocolate" stroke-width="1">
    <line x1="157" y1="354" x2="147" y2="263"/>
    <circle cx="157" cy="354" r="2"/>
    <circle cx="147" cy="263" r="2"/>
  </g>
  <g stroke="chocolate" stroke-width="1">
    <line x1="157" y1="357" x2="157" y2="354"/>
    <circle cx="157" cy="357" r="2"/>
    <circle cx="157" cy="354" r="2"/>
  </g>
  <g stroke="chocolate" stroke-width="1">
    <line x1="306" y1="378" x2="315" y2="378"/>
    <circle cx="306" cy="378" r="2"/>
    <circle cx="315" cy="378" r="2"/>
  </g>
  <g stroke="chocolate" stroke-width="1">
    <line x1="306" y1="378" x2="311" y2="378"/>
    <circle cx="306" cy="378" r="2"/>
    <circle cx="311" cy="378" r="2"/>
  </g>
  <g stroke="chocolate" stroke-width="1">
    <line x1="237" y1="386" x2="306" y2="378"/>
    <circle cx="237" cy="386" r="2"/>
    <circle cx="306" cy="378" r="2"/>
  </g>
  <g stroke="chocolate" stroke-width="1">
    <line x1="162" y1="394" x2="161" y2="390"/>
    <circle cx="162" cy="394" r="2"/>
    <circle cx="161" cy="390" r="2"/>
  </g>
  <g stroke="chocolate" stroke-width="1">
    <line x1="161" y1="390" x2="237" y2="386"/>
    <circle cx="161" cy="390" r="2"/>
    <circle cx="237" cy="386" r="2"/>
  </g>
  <g stroke="chocolate" stroke-width="1">
    <line x1="146" y1="390" x2="161" y2="390"/>
    <circle cx="146" cy="390" r="2"/>
    <circle cx="161" cy="390" r="2"/>
  </g>
  <g stroke="chocolate" stroke-width="1">
    <line x1="140" y1="354" x2="130" y2="353"/>
    <circle cx="140" cy="354" r="2"/>
    <circle cx="130" cy="353" r="2"/>
  </g>
  <g stroke="chocolate" stroke-width="1">
    <line x1="140" y1="354" x2="140" y2="353"/>
    <circle cx="140" cy="354" r="2"/>
    <circle cx="140" cy="353" r="2"/>
  </g>
  <g stroke="chocolate" stroke-width="1">
    <line x1="140" y1="378" x2="140" y2="354"/>
    <circle cx="140" cy="378" r="2"/>
    <circle cx="140" cy="354" r="2"/>
  </g>
  <g stroke="chocolate" stroke-width="1">
    <line x1="144" y1="354" x2="140" y2="353"/>
    <circle cx="144" cy="354" r="2"/>
    <circle cx="140" cy="353" r="2"/>
  </g>
  <g stroke="chocolate" stroke-width="1">
    <line x1="144" y1="354" x2="141" y2="294"/>
    <circle cx="144" cy="354" r="2"/>
    <circle cx="141" cy="294" r="2"/>
  </g>
  <g stroke="chocolate" stroke-width="1">
    <line x1="147" y1="263" x2="141" y2="211"/>
    <circle cx="147" cy="263" r="2"/>
    <circle cx="141" cy="211" r="2"/>
  </g>
  <g stroke="chocolate" stroke-width="1">
    <line x1="147" y1="263" x2="171" y2="140"/>
    <circle cx="147" cy="263" r="2"/>
    <circle cx="171" cy="140" r="2"/>
  </g>
  <g stroke="chocolate" stroke-width="1">
    <line x1="141" y1="294" x2="147" y2="263"/>
    <circle cx="141" cy="294" r="2"/>
    <circle cx="147" cy="263" r="2"/>
  </g>
  <g stroke="chocolate" stroke-width="1">
    <line x1="140" y1="298" x2="140" y2="274"/>
    <circle cx="140" cy="298" r="2"/>
    <circle cx="140" cy="274" r="2"/>
  </g>
  <g stroke="chocolate" stroke-width="1">
    <line x1="140" y1="353" x2="140" y2="298"/>
    <circle cx="140" cy="353" r="2"/>
    <circle cx="140" cy="298" r="2"/>
  </g>
  <g stroke="chocolate" stroke-width="1">
    <line x1="140" y1="298" x2="141" y2="294"/>
    <circle cx="140" cy="298" r="2"/>
    <circle cx="141" cy="294" r="2"/>
  </g>
  <g stroke="chocolate" stroke-width="1">
    <line x1="130" y1="353" x2="140" y2="298"/>
    <circle cx="130" cy="353" r="2"/>
    <circle cx="140" cy="298" r="2"/>
  </g>
  <g stroke="chocolate" stroke-width="1">
    <line x1="139" y1="242" x2="136" y2="186"/>
    <circle cx="139" cy="242" r="2"/>
    <circle cx="136" cy="186" r="2"/>
  </g>
  <g stroke="chocolate" stroke-width="1">
    <line x1="140" y1="274" x2="139" y2="242"/>
    <circle cx="140" cy="274" r="2"/>
    <circle cx="139" cy="242" r="2"/>
  </g>
  <g stroke="chocolate" stroke-width="1">
    <line x1="139" y1="242" x2="140" y2="224"/>
    <circle cx="139" cy="242" r="2"/>
    <circle cx="140" cy="224" r="2"/>
  </g>
  <g stroke="chocolate" stroke-width="1">
    <line x1="130" y1="353" x2="139" y2="242"/>
    <circle cx="130" cy="353" r="2"/>
    <circle cx="139" cy="242" r="2"/>
  </g>
  <g stroke="chocolate" stroke-width="1">
    <line x1="374" y1="378" x2="375" y2="378"/>
    <circle cx="374" cy="378" r="2"/>
    <circle cx="375" cy="378" r="2"/>
  </g>
  <g stroke="chocolate" stroke-width="1">
    <line x1="315" y1="378" x2="374" y2="378"/>
    <circle cx="315" cy="378" r="2"/>
    <circle cx="374" cy="378" r="2"/>
  </g>
  <g stroke="chocolate" stroke-width="1">
    <line x1="374" y1="378" x2="374" y2="371"/>
    <circle cx="374" cy="378" r="2"/>
    <circle cx="374" cy="371" r="2"/>
  </g>
  <g stroke="chocolate" stroke-width="1">
    <line x1="374" y1="379" x2="374" y2="378"/>
    <circle cx="374" cy="379" r="2"/>
    <circle cx="374" cy="378" r="2"/>
  </g>
  <g stroke="chocolate" stroke-width="1">
    <line x1="311" y1="378" x2="157" y2="357"/>
    <circle cx="311" cy="378" r="2"/>
    <circle cx="157" cy="357" r="2"/>
  </g>
  <g stroke="chocolate" stroke-width="1">
    <line x1="315" y1="378" x2="311" y2="378"/>
    <circle cx="315" cy="378" r="2"/>
    <circle cx="311" cy="378" r="2"/>
  </g>
  <g stroke="chocolate" stroke-width="1">
    <line x1="336" y1="381" x2="315" y2="378"/>
    <circle cx="336" cy="381" r="2"/>
    <circle cx="315" cy="378" r="2"/>
  </g>
  <g stroke="chocolate" stroke-width="1">
    <line x1="140" y1="201" x2="137" y2="171"/>
    <circle cx="140" cy="201" r="2"/>
    <circle cx="137" cy="171" r="2"/>
  </g>
  <g stroke="chocolate" stroke-width="1">
    <line x1="141" y1="211" x2="140" y2="201"/>
    <circle cx="141" cy="211" r="2"/>
    <circle cx="140" cy="201" r="2"/>
  </g>
  <g stroke="chocolate" stroke-width="1">
    <line x1="140" y1="201" x2="140" y2="143"/>
    <circle cx="140" cy="201" r="2"/>
    <circle cx="140" cy="143" r="2"/>
  </g>
  <g stroke="chocolate" stroke-width="1">
    <line x1="140" y1="224" x2="140" y2="201"/>
    <circle cx="140" cy="224" r="2"/>
    <circle cx="140" cy="201" r="2"/>
  </g>
  <g stroke="chocolate" stroke-width="1">
    <line x1="147" y1="142" x2="149" y2="116"/>
    <circle cx="147" cy="142" r="2"/>
    <circle cx="149" cy="116" r="2"/>
  </g>
  <g stroke="chocolate" stroke-width="1">
    <line x1="141" y1="211" x2="147" y2="142"/>
    <circle cx="141" cy="211" r="2"/>
    <circle cx="147" cy="142" r="2"/>
  </g>
  <g stroke="chocolate" stroke-width="1">
    <line x1="147" y1="142" x2="171" y2="140"/>
    <circle cx="147" cy="142" r="2"/>
    <circle cx="171" cy="140" r="2"/>
  </g>
  <g stroke="chocolate" stroke-width="1">
    <line x1="140" y1="143" x2="147" y2="142"/>
    <circle cx="140" cy="143" r="2"/>
    <circle cx="147" cy="142" r="2"/>
  </g>
  <g stroke="chocolate" stroke-width="1">
    <line x1="162" y1="394" x2="237" y2="386"/>
    <circle cx="162" cy="394" r="2"/>
    <circle cx="237" cy="386" r="2"/>
  </g>
  <g stroke="chocolate" stroke-width="1">
    <line x1="237" y1="386" x2="336" y2="381"/>
    <circle cx="237" cy="386" r="2"/>
    <circle cx="336" cy="381" r="2"/>
  </g>
  <g stroke="chocolate" stroke-width="1">
    <line x1="140" y1="353" x2="130" y2="353"/>
    <circle cx="140" cy="353" r="2"/>
    <circle cx="130" cy="353" r="2"/>
  </g>
  <g stroke="chocolate" stroke-width="1">
    <line x1="141" y1="294" x2="140" y2="274"/>
    <circle cx="141" cy="294" r="2"/>
    <circle cx="140" cy="274" r="2"/>
  </g>
  <g stroke="chocolate" stroke-width="1">
    <line x1="139" y1="143" x2="140" y2="143"/>
    <circle cx="139" cy="143" r="2"/>
    <circle cx="140" cy="143" r="2"/>
  </g>
  <g stroke="chocolate" stroke-width="1">
    <line x1="134" y1="143" x2="139" y2="143"/>
    <circle cx="134" cy="143" r="2"/>
    <circle cx="139" cy="143" r="2"/>
  </g>
  <g stroke="chocolate" stroke-width="1">
    <line x1="139" y1="143" x2="140" y2="116"/>
    <circle cx="139" cy="143" r="2"/>
    <circle cx="140" cy="116" r="2"/>
  </g>
  <g stroke="chocolate" stroke-width="1">
    <line x1="137" y1="171" x2="139" y2="143"/>
    <circle cx="137" cy="171" r="2"/>
    <circle cx="139" cy="143" r="2"/>
  </g>
  <g stroke="chocolate" stroke-width="1">
    <line x1="136" y1="186" x2="134" y2="143"/>
    <circle cx="136" cy="186" r="2"/>
    <circle cx="134" cy="143" r="2"/>
  </g>
  <g stroke="chocolate" stroke-width="1">
    <line x1="136" y1="186" x2="137" y2="171"/>
    <circle cx="136" cy="186" r="2"/>
    <circle cx="137" cy="171" r="2"/>
  </g>
  <g stroke="chocolate" stroke-width="1">
    <line x1="126" y1="353" x2="136" y2="186"/>
    <circle cx="126" cy="353" r="2"/>
    <circle cx="136" cy="186" r="2"/>
  </g>
  <g stroke="chocolate" stroke-width="1">
    <line x1="140" y1="224" x2="141" y2="211"/>
    <circle cx="140" cy="224" r="2"/>
    <circle cx="141" cy="211" r="2"/>
  </g>
  <g stroke="chocolate" stroke-width="1">
    <line x1="130" y1="353" x2="126" y2="353"/>
    <circle cx="130" cy="353" r="2"/>
    <circle cx="126" cy="353" r="2"/>
  </g>
  <g stroke="chocolate" stroke-width="1">
    <line x1="130" y1="353" x2="130" y2="353"/>
    <circle cx="130" cy="353" r="2"/>
    <circle cx="130" cy="353" r="2"/>
  </g>
  <g stroke="chocolate" stroke-width="1">
    <line x1="130" y1="353" x2="130" y2="353"/>
    <circle cx="130" cy="353" r="2"/>
    <circle cx="130" cy="353" r="2"/>
  </g>
  <g stroke="chocolate" stroke-width="1">
    <line x1="140" y1="274" x2="140" y2="224"/>
    <circle cx="140" cy="274" r="2"/>
    <circle cx="140" cy="224" r="2"/>
  </g>
  <g stroke="chocolate" stroke-width="1">
    <line x1="374" y1="379" x2="375" y2="379"/>
    <circle cx="374" cy="379" r="2"/>
    <circle cx="375" cy="379" r="2"/>
  </g>
  <g stroke="chocolate" stroke-width="1">
    <line x1="336" y1="381" x2="374" y2="379"/>
    <circle cx="336" cy="381" r="2"/>
    <circle cx="374" cy="379" r="2"/>
  </g>
  <g stroke="chocolate" stroke-width="1">
    <line x1="373" y1="386" x2="374" y2="379"/>
    <circle cx="373" cy="386" r="2"/>
    <circle cx="374" cy="379" r="2"/>
  </g>
  <g stroke="chocolate" stroke-width="1">
    <line x1="311" y1="378" x2="374" y2="371"/>
    <circle cx="311" cy="378" r="2"/>
    <circle cx="374" cy="371" r="2"/>
  </g>
  <g stroke="chocolate" stroke-width="1">
    <line x1="375" y1="378" x2="384" y2="378"/>
    <circle cx="375" cy="378" r="2"/>
    <circle cx="384" cy="378" r="2"/>
  </g>
  <g stroke="chocolate" stroke-width="1">
    <line x1="375" y1="378" x2="377" y2="371"/>
    <circle cx="375" cy="378" r="2"/>
    <circle cx="377" cy="371" r="2"/>
  </g>
  <g stroke="chocolate" stroke-width="1">
    <line x1="375" y1="379" x2="375" y2="378"/>
    <circle cx="375" cy="379" r="2"/>
    <circle cx="375" cy="378" r="2"/>
  </g>
  <g stroke="chocolate" stroke-width="1">
    <line x1="140" y1="143" x2="140" y2="116"/>
    <circle cx="140" cy="143" r="2"/>
    <circle cx="140" cy="116" r="2"/>
  </g>
  <g stroke="chocolate" stroke-width="1">
    <line x1="383" y1="388" x2="336" y2="381"/>
    <circle cx="383" cy="388" r="2"/>
    <circle cx="336" cy="381" r="2"/>
  </g>
  <g stroke="chocolate" stroke-width="1">
    <line x1="130" y1="353" x2="130" y2="353"/>
    <circle cx="130" cy="353" r="2"/>
    <circle cx="130" cy="353" r="2"/>
  </g>
  <g stroke="chocolate" stroke-width="1">
    <line x1="137" y1="171" x2="134" y2="143"/>
    <circle cx="137" cy="171" r="2"/>
    <circle cx="134" cy="143" r="2"/>
  </g>
  <g stroke="chocolate" stroke-width="1">
    <line x1="146" y1="390" x2="145" y2="378"/>
    <circle cx="146" cy="390" r="2"/>
    <circle cx="145" cy="378" r="2"/>
  </g>
  <g stroke="chocolate" stroke-width="1">
    <line x1="140" y1="378" x2="145" y2="378"/>
    <circle cx="140" cy="378" r="2"/>
    <circle cx="145" cy="378" r="2"/>
  </g>
  <g stroke="chocolate" stroke-width="1">
    <line x1="374" y1="371" x2="374" y2="368"/>
    <circle cx="374" cy="371" r="2"/>
    <circle cx="374" cy="368" r="2"/>
  </g>
  <g stroke="chocolate" stroke-width="1">
    <line x1="374" y1="371" x2="377" y2="371"/>
    <circle cx="374" cy="371" r="2"/>
    <circle cx="377" cy="371" r="2"/>
  </g>
  <g stroke="chocolate" stroke-width="1">
    <line x1="384" y1="379" x2="384" y2="379"/>
    <circle cx="384" cy="379" r="2"/>
    <circle cx="384" cy="379" r="2"/>
  </g>
  <g stroke="chocolate" stroke-width="1">
    <line x1="375" y1="379" x2="384" y2="379"/>
    <circle cx="375" cy="379" r="2"/>
    <circle cx="384" cy="379" r="2"/>
  </g>
  <g stroke="chocolate" stroke-width="1">
    <line x1="384" y1="379" x2="384" y2="378"/>
    <circle cx="384" cy="379" r="2"/>
    <circle cx="384" cy="378" r="2"/>
  </g>
  <g stroke="chocolate" stroke-width="1">
    <line x1="383" y1="388" x2="384" y2="379"/>
    <circle cx="383" cy="388" r="2"/>
    <circle cx="384" cy="379" r="2"/>
  </g>
  <g stroke="chocolate" stroke-width="1">
    <line x1="373" y1="386" x2="375" y2="379"/>
    <circle cx="373" cy="386" r="2"/>
    <circle cx="375" cy="379" r="2"/>
  </g>
  <g stroke="chocolate" stroke-width="1">
    <line x1="149" y1="116" x2="140" y2="116"/>
    <circle cx="149" cy="116" r="2"/>
    <circle cx="140" cy="116" r="2"/>
  </g>
  <g stroke="chocolate" stroke-width="1">
    <line x1="384" y1="379" x2="149" y2="116"/>
    <circle cx="384" cy="379" r="2"/>
    <circle cx="149" cy="116" r="2"/>
  </g>
  <g stroke="chocolate" stroke-width="1">
    <line x1="383" y1="388" x2="384" y2="379"/>
    <circle cx="383" cy="388" r="2"/>
    <circle cx="384" cy="379" r="2"/>
  </g>
  <g stroke="black" stroke-width="1">
    <line x1="5" y1="5" x2="505" y2="5"/>
    <line x1="5" y1="5" x2="5" y2="505"/>
    <line x1="505" y1="505" x2="5" y2="505"/>
    <line x1="505" y1="505" x2="505" y2="5"/>
    <line x1="105" y1="2" x2="105" y2="8"/>
    <line x1="2" y1="105" x2="8" y2="105"/>
    <line x1="105" y1="502" x2="105" y2="508"/>
    <line x1="502" y1="105" x2="508" y2="105"/>
    <line x1="205" y1="2" x2="205" y2="8"/>
    <line x1="2" y1="205" x2="8" y2="205"/>
    <line x1="205" y1="502" x2="205" y2="508"/>
    <line x1="502" y1="205" x2="508" y2="205"/>
    <line x1="305" y1="2" x2="305" y2="8"/>
    <line x1="2" y1="305" x2="8" y2="305"/>
    <line x1="305" y1="502" x2="305" y2="508"/>
    <line x1="502" y1="305" x2="508" y2="305"/>
    <line x1="405" y1="2" x2="405" y2="8"/>
    <line x1="2" y1="405" x2="8" y2="405"/>
    <line x1="405" y1="502" x2="405" y2="508"/>
    <line x1="502" y1="405" x2="508" y2="405"/>
  </g>
  <g stroke="gray" stroke-width="1" stroke-dasharray="5,5">
    <line x1="105" y1="5" x2="105" y2="505"/>
    <line x1="5" y1="105" x2="505" y2="105"/>
    <line x1="205" y1="5" x2="205" y2="505"/>
    <line x1="5" y1="205" x2="505" y2="205"/>
    <line x1="305" y1="5" x2="305" y2="505"/>
    <line x1="5" y1="305" x2="505" y2="305"/>
    <line x1="405" y1="5" x2="405" y2="505"/>
    <line x1="5" y1="405" x2="505" y2="405"/>
  </g>
</svg>
