<?xml version="1.0" standalone="no"?>
<!DOCTYPE svg PUBLIC "-//W3C//DTD SVG 1.1//EN" 
  "http://www.w3.org/Graphics/SVG/1.1/DTD/svg11.dtd">
<svg width="510" height="510" version="1.1" id="toplevel"
    xmlns="http://www.w3.org/2000/svg"
    xmlns:xlink="http://www.w3.org/1999/xlink">
  <polygon points="239,387 255,373 258,368 505,368 505,366 392,132 117,123 6,368 6,369 7,368 209,368 215,385"
           fill="bisque"/>
  <g stroke="chocolate" stroke-width="1">
    <line x1="209" y1="368" x2="215" y2="368"/>
    <circle cx="209" cy="368" r="2"/>
    <circle cx="215" cy="368" r="2"/>
  </g>
  <g stroke="chocolate" stroke-width="1">
    <line x1="7" y1="368" x2="209" y2="368"/>
    <circle cx="7" cy="368" r="2"/>
    <circle cx="209" cy="368" r="2"/>
  </g>
  <g stroke="chocolate" stroke-width="1">
    <line x1="209" y1="368" x2="159" y2="235"/>
    <circle cx="209" cy="368" r="2"/>
    <circle cx="159" cy="235" r="2"/>
  </g>
  <g stroke="chocolate" stroke-width="1">
    <line x1="215" y1="385" x2="209" y2="368"/>
    <circle cx="215" cy="385" r="2"/>
    <circle cx="209" cy="368" r="2"/>
  </g>
  <g stroke="chocolate" stroke-width="1">
    <line x1="6" y1="368" x2="7" y2="368"/>
    <circle cx="6" cy="368" r="2"/>
    <circle cx="7" cy="368" r="2"/>
  </g>
  <g stroke="chocolate" stroke-width="1">
    <line x1="7" y1="368" x2="159" y2="235"/>
    <circle cx="7" cy="368" r="2"/>
    <circle cx="159" cy="235" r="2"/>
  </g>
  <g stroke="chocolate" stroke-width="1">
    <line x1="6" y1="369" x2="7" y2="368"/>
    <circle cx="6" cy="369" r="2"/>
    <circle cx="7" cy="368" r="2"/>
  </g>
  <g stroke="chocolate" stroke-width="1">
    <line x1="216" y1="368" x2="240" y2="368"/>
    <circle cx="216" cy="368" r="2"/>
    <circle cx="240" cy="368" r="2"/>
  </g>
  <g stroke="chocolate" stroke-width="1">
    <line x1="215" y1="368" x2="216" y2="368"/>
    <circle cx="215" cy="368" r="2"/>
    <circle cx="216" cy="368" r="2"/>
  </g>
  <g stroke="chocolate" stroke-width="1">
    <line x1="216" y1="368" x2="216" y2="343"/>
    <circle cx="216" cy="368" r="2"/>
    <circle cx="216" cy="343" r="2"/>
  </g>
  <g stroke="chocolate" stroke-width="1">
    <line x1="216" y1="385" x2="216" y2="368"/>
    <circle cx="216" cy="385" r="2"/>
    <circle cx="216" cy="368" r="2"/>
  </g>
  <g stroke="chocolate" stroke-width="1">
    <line x1="218" y1="158" x2="219" y2="127"/>
    <circle cx="218" cy="158" r="2"/>
    <circle cx="219" cy="127" r="2"/>
  </g>
  <g stroke="chocolate" stroke-width="1">
    <line x1="216" y1="343" x2="218" y2="158"/>
    <circle cx="216" cy="343" r="2"/>
    <circle cx="218" cy="158" r="2"/>
  </g>
  <g stroke="chocolate" stroke-width="1">
    <line x1="218" y1="158" x2="217" y2="158"/>
    <circle cx="218" cy="158" r="2"/>
    <circle cx="217" cy="158" r="2"/>
  </g>
  <g stroke="chocolate" stroke-width="1">
    <line x1="225" y1="158" x2="218" y2="158"/>
    <circle cx="225" cy="158" r="2"/>
    <circle cx="218" cy="158" r="2"/>
  </g>
  <g stroke="chocolate" stroke-width="1">
    <line x1="215" y1="368" x2="216" y2="343"/>
    <circle cx="215" cy="368" r="2"/>
    <circle cx="216" cy="343" r="2"/>
  </g>
  <g stroke="chocolate" stroke-width="1">
    <line x1="215" y1="383" x2="215" y2="368"/>
    <circle cx="215" cy="383" r="2"/>
    <circle cx="215" cy="368" r="2"/>
  </g>
  <g stroke="chocolate" stroke-width="1">
    <line x1="298" y1="142" x2="255" y2="139"/>
    <circle cx="298" cy="142" r="2"/>
    <circle cx="255" cy="139" r="2"/>
  </g>
  <g stroke="chocolate" stroke-width="1">
    <line x1="302" y1="142" x2="298" y2="142"/>
    <circle cx="302" cy="142" r="2"/>
    <circle cx="298" cy="142" r="2"/>
  </g>
  <g stroke="chocolate" stroke-width="1">
    <line x1="298" y1="142" x2="301" y2="129"/>
    <circle cx="298" cy="142" r="2"/>
    <circle cx="301" cy="129" r="2"/>
  </g>
  <g stroke="chocolate" stroke-width="1">
    <line x1="256" y1="368" x2="298" y2="142"/>
    <circle cx="256" cy="368" r="2"/>
    <circle cx="298" cy="142" r="2"/>
  </g>
  <g stroke="chocolate" stroke-width="1">
    <line x1="336" y1="232" x2="392" y2="132"/>
    <circle cx="336" cy="232" r="2"/>
    <circle cx="392" cy="132" r="2"/>
  </g>
  <g stroke="chocolate" stroke-width="1">
    <line x1="258" y1="368" x2="336" y2="232"/>
    <circle cx="258" cy="368" r="2"/>
    <circle cx="336" cy="232" r="2"/>
  </g>
  <g stroke="chocolate" stroke-width="1">
    <line x1="336" y1="232" x2="310" y2="212"/>
    <circle cx="336" cy="232" r="2"/>
    <circle cx="310" cy="212" r="2"/>
  </g>
  <g stroke="chocolate" stroke-width="1">
    <line x1="505" y1="366" x2="336" y2="232"/>
    <circle cx="505" cy="366" r="2"/>
    <circle cx="336" cy="232" r="2"/>
  </g>
  <g stroke="chocolate" stroke-width="1">
    <line x1="188" y1="157" x2="129" y2="154"/>
    <circle cx="188" cy="157" r="2"/>
    <circle cx="129" cy="154" r="2"/>
  </g>
  <g stroke="chocolate" stroke-width="1">
    <line x1="217" y1="158" x2="188" y2="157"/>
    <circle cx="217" cy="158" r="2"/>
    <circle cx="188" cy="157" r="2"/>
  </g>
  <g stroke="chocolate" stroke-width="1">
    <line x1="188" y1="157" x2="159" y2="125"/>
    <circle cx="188" cy="157" r="2"/>
    <circle cx="159" cy="125" r="2"/>
  </g>
  <g stroke="chocolate" stroke-width="1">
    <line x1="215" y1="186" x2="188" y2="157"/>
    <circle cx="215" cy="186" r="2"/>
    <circle cx="188" cy="157" r="2"/>
  </g>
  <g stroke="chocolate" stroke-width="1">
    <line x1="362" y1="146" x2="302" y2="142"/>
    <circle cx="362" cy="146" r="2"/>
    <circle cx="302" cy="142" r="2"/>
  </g>
  <g stroke="chocolate" stroke-width="1">
    <line x1="302" y1="142" x2="301" y2="129"/>
    <circle cx="302" cy="142" r="2"/>
    <circle cx="301" cy="129" r="2"/>
  </g>
  <g stroke="chocolate" stroke-width="1">
    <line x1="310" y1="212" x2="302" y2="142"/>
    <circle cx="310" cy="212" r="2"/>
    <circle cx="302" cy="142" r="2"/>
  </g>
  <g stroke="chocolate" stroke-width="1">
    <line x1="159" y1="235" x2="117" y2="123"/>
    <circle cx="159" cy="235" r="2"/>
    <circle cx="117" cy="123" r="2"/>
  </g>
  <g stroke="chocolate" stroke-width="1">
    <line x1="159" y1="235" x2="215" y2="186"/>
    <circle cx="159" cy="235" r="2"/>
    <circle cx="215" cy="186" r="2"/>
  </g>
  <g stroke="chocolate" stroke-width="1">
    <line x1="216" y1="343" x2="225" y2="158"/>
    <circle cx="216" cy="343" r="2"/>
    <circle cx="225" cy="158" r="2"/>
  </g>
  <g stroke="chocolate" stroke-width="1">
    <line x1="217" y1="158" x2="219" y2="127"/>
    <circle cx="217" cy="158" r="2"/>
    <circle cx="219" cy="127" r="2"/>
  </g>
  <g stroke="chocolate" stroke-width="1">
    <line x1="215" y1="186" x2="217" y2="158"/>
    <circle cx="215" cy="186" r="2"/>
    <circle cx="217" cy="158" r="2"/>
  </g>
  <g stroke="chocolate" stroke-width="1">
    <line x1="240" y1="368" x2="256" y2="368"/>
    <circle cx="240" cy="368" r="2"/>
    <circle cx="256" cy="368" r="2"/>
  </g>
  <g stroke="chocolate" stroke-width="1">
    <line x1="240" y1="368" x2="255" y2="139"/>
    <circle cx="240" cy="368" r="2"/>
    <circle cx="255" cy="139" r="2"/>
  </g>
  <g stroke="chocolate" stroke-width="1">
    <line x1="239" y1="387" x2="240" y2="368"/>
    <circle cx="239" cy="387" r="2"/>
    <circle cx="240" cy="368" r="2"/>
  </g>
  <g stroke="chocolate" stroke-width="1">
    <line x1="256" y1="368" x2="258" y2="368"/>
    <circle cx="256" cy="368" r="2"/>
    <circle cx="258" cy="368" r="2"/>
  </g>
  <g stroke="chocolate" stroke-width="1">
    <line x1="255" y1="373" x2="256" y2="368"/>
    <circle cx="255" cy="373" r="2"/>
    <circle cx="256" cy="368" r="2"/>
  </g>
  <g stroke="chocolate" stroke-width="1">
    <line x1="384" y1="147" x2="362" y2="146"/>
    <circle cx="384" cy="147" r="2"/>
    <circle cx="362" cy="146" r="2"/>
  </g>
  <g stroke="chocolate" stroke-width="1">
    <line x1="362" y1="146" x2="373" y2="132"/>
    <circle cx="362" cy="146" r="2"/>
    <circle cx="373" cy="132" r="2"/>
  </g>
  <g stroke="chocolate" stroke-width="1">
    <line x1="310" y1="212" x2="362" y2="146"/>
    <circle cx="310" cy="212" r="2"/>
    <circle cx="362" cy="146" r="2"/>
  </g>
  <g stroke="chocolate" stroke-width="1">
    <line x1="258" y1="368" x2="505" y2="368"/>
    <circle cx="258" cy="368" r="2"/>
    <circle cx="505" cy="368" r="2"/>
  </g>
  <g stroke="chocolate" stroke-width="1">
    <line x1="255" y1="373" x2="258" y2="368"/>
    <circle cx="255" cy="373" r="2"/>
    <circle cx="258" cy="368" r="2"/>
  </g>
  <g stroke="chocolate" stroke-width="1">
    <line x1="392" y1="132" x2="117" y2="123"/>
    <circle cx="392" cy="132" r="2"/>
    <circle cx="117" cy="123" r="2"/>
  </g>
  <g stroke="chocolate" stroke-width="1">
    <line x1="384" y1="147" x2="373" y2="132"/>
    <circle cx="384" cy="147" r="2"/>
    <circle cx="373" cy="132" r="2"/>
  </g>
  <g stroke="chocolate" stroke-width="1">
    <line x1="505" y1="366" x2="392" y2="132"/>
    <circle cx="505" cy="366" r="2"/>
    <circle cx="392" cy="132" r="2"/>
  </g>
  <g stroke="chocolate" stroke-width="1">
    <line x1="216" y1="385" x2="215" y2="383"/>
    <circle cx="216" cy="385" r="2"/>
    <circle cx="215" cy="383" r="2"/>
  </g>
  <g stroke="chocolate" stroke-width="1">
    <line x1="129" y1="154" x2="159" y2="125"/>
    <circle cx="129" cy="154" r="2"/>
    <circle cx="159" cy="125" r="2"/>
  </g>
  <g stroke="chocolate" stroke-width="1">
    <line x1="6" y1="369" x2="6" y2="368"/>
    <circle cx="6" cy="369" r="2"/>
    <circle cx="6" cy="368" r="2"/>
  </g>
  <g stroke="chocolate" stroke-width="1">
    <line x1="505" y1="368" x2="505" y2="366"/>
    <circle cx="505" cy="368" r="2"/>
    <circle cx="505" cy="366" r="2"/>
  </g>
  <g stroke="chocolate" stroke-width="1">
    <line x1="6" y1="368" x2="117" y2="123"/>
    <circle cx="6" cy="368" r="2"/>
    <circle cx="117" cy="123" r="2"/>
  </g>
  <g stroke="chocolate" stroke-width="1">
    <line x1="239" y1="387" x2="215" y2="385"/>
    <circle cx="239" cy="387" r="2"/>
    <circle cx="215" cy="385" r="2"/>
  </g>
  <g stroke="chocolate" stroke-width="1">
    <line x1="215" y1="385" x2="216" y2="385"/>
    <circle cx="215" cy="385" r="2"/>
    <circle cx="216" cy="385" r="2"/>
  </g>
  <g stroke="chocolate" stroke-width="1">
    <line x1="239" y1="387" x2="255" y2="373"/>
    <circle cx="239" cy="387" r="2"/>
    <circle cx="255" cy="373" r="2"/>
  </g>
  <g stroke="black" stroke-width="1">
    <line x1="5" y1="5" x2="505" y2="5"/>
    <line x1="5" y1="5" x2="5" y2="505"/>
    <line x1="505" y1="505" x2="5" y2="505"/>
    <line x1="505" y1="505" x2="505" y2="5"/>
    <line x1="105" y1="2" x2="105" y2="8"/>
    <line x1="2" y1="105" x2="8" y2="105"/>
    <line x1="105" y1="502" x2="105" y2="508"/>
    <line x1="502" y1="105" x2="508" y2="105"/>
    <line x1="205" y1="2" x2="205" y2="8"/>
    <line x1="2" y1="205" x2="8" y2="205"/>
    <line x1="205" y1="502" x2="205" y2="508"/>
    <line x1="502" y1="205" x2="508" y2="205"/>
    <line x1="305" y1="2" x2="305" y2="8"/>
    <line x1="2" y1="305" x2="8" y2="305"/>
    <line x1="305" y1="502" x2="305" y2="508"/>
    <line x1="502" y1="305" x2="508" y2="305"/>
    <line x1="405" y1="2" x2="405" y2="8"/>
    <line x1="2" y1="405" x2="8" y2="405"/>
    <line x1="405" y1="502" x2="405" y2="508"/>
    <line x1="502" y1="405" x2="508" y2="405"/>
  </g>
  <g stroke="gray" stroke-width="1" stroke-dasharray="5,5">
    <line x1="105" y1="5" x2="105" y2="505"/>
    <line x1="5" y1="105" x2="505" y2="105"/>
    <line x1="205" y1="5" x2="205" y2="505"/>
    <line x1="5" y1="205" x2="505" y2="205"/>
    <line x1="305" y1="5" x2="305" y2="505"/>
    <line x1="5" y1="305" x2="505" y2="305"/>
    <line x1="405" y1="5" x2="405" y2="505"/>
    <line x1="5" y1="405" x2="505" y2="405"/>
  </g>
</svg>
