<?xml version="1.0" standalone="no"?>
<!DOCTYPE svg PUBLIC "-//W3C//DTD SVG 1.1//EN" 
  "http://www.w3.org/Graphics/SVG/1.1/DTD/svg11.dtd">
<svg width="540" height="540" version="1.1" id="toplevel"
    xmlns="http://www.w3.org/2000/svg"
    xmlns:xlink="http://www.w3.org/1999/xlink">
  <polygon points="504,429 527,132 531,132 531,130 535,130 535,125 535,125 535,114 27,111 5,390"
           fill="bisque"/>
  <g stroke="chocolate" stroke-width="1">
    <line x1="530" y1="125" x2="531" y2="125"/>
    <circle cx="530" cy="125" r="2"/>
    <circle cx="531" cy="125" r="2"/>
  </g>
  <g stroke="chocolate" stroke-width="1">
    <line x1="527" y1="125" x2="530" y2="125"/>
    <circle cx="527" cy="125" r="2"/>
    <circle cx="530" cy="125" r="2"/>
  </g>
  <g stroke="chocolate" stroke-width="1">
    <line x1="530" y1="125" x2="530" y2="114"/>
    <circle cx="530" cy="125" r="2"/>
    <circle cx="530" cy="114" r="2"/>
  </g>
  <g stroke="chocolate" stroke-width="1">
    <line x1="530" y1="128" x2="530" y2="125"/>
    <circle cx="530" cy="128" r="2"/>
    <circle cx="530" cy="125" r="2"/>
  </g>
  <g stroke="chocolate" stroke-width="1">
    <line x1="35" y1="125" x2="51" y2="125"/>
    <circle cx="35" cy="125" r="2"/>
    <circle cx="51" cy="125" r="2"/>
  </g>
  <g stroke="chocolate" stroke-width="1">
    <line x1="35" y1="125" x2="35" y2="125"/>
    <circle cx="35" cy="125" r="2"/>
    <circle cx="35" cy="125" r="2"/>
  </g>
  <g stroke="chocolate" stroke-width="1">
    <line x1="35" y1="125" x2="35" y2="125"/>
    <circle cx="35" cy="125" r="2"/>
    <circle cx="35" cy="125" r="2"/>
  </g>
  <g stroke="chocolate" stroke-width="1">
    <line x1="35" y1="130" x2="35" y2="125"/>
    <circle cx="35" cy="130" r="2"/>
    <circle cx="35" cy="125" r="2"/>
  </g>
  <g stroke="chocolate" stroke-width="1">
    <line x1="531" y1="125" x2="534" y2="125"/>
    <circle cx="531" cy="125" r="2"/>
    <circle cx="534" cy="125" r="2"/>
  </g>
  <g stroke="chocolate" stroke-width="1">
    <line x1="531" y1="125" x2="532" y2="114"/>
    <circle cx="531" cy="125" r="2"/>
    <circle cx="532" cy="114" r="2"/>
  </g>
  <g stroke="chocolate" stroke-width="1">
    <line x1="531" y1="128" x2="531" y2="125"/>
    <circle cx="531" cy="128" r="2"/>
    <circle cx="531" cy="125" r="2"/>
  </g>
  <g stroke="chocolate" stroke-width="1">
    <line x1="51" y1="125" x2="35" y2="125"/>
    <circle cx="51" cy="125" r="2"/>
    <circle cx="35" cy="125" r="2"/>
  </g>
  <g stroke="chocolate" stroke-width="1">
    <line x1="385" y1="131" x2="51" y2="125"/>
    <circle cx="385" cy="131" r="2"/>
    <circle cx="51" cy="125" r="2"/>
  </g>
  <g stroke="chocolate" stroke-width="1">
    <line x1="51" y1="125" x2="527" y2="125"/>
    <circle cx="51" cy="125" r="2"/>
    <circle cx="527" cy="125" r="2"/>
  </g>
  <g stroke="chocolate" stroke-width="1">
    <line x1="530" y1="128" x2="531" y2="128"/>
    <circle cx="530" cy="128" r="2"/>
    <circle cx="531" cy="128" r="2"/>
  </g>
  <g stroke="chocolate" stroke-width="1">
    <line x1="527" y1="128" x2="530" y2="128"/>
    <circle cx="527" cy="128" r="2"/>
    <circle cx="530" cy="128" r="2"/>
  </g>
  <g stroke="chocolate" stroke-width="1">
    <line x1="531" y1="130" x2="530" y2="128"/>
    <circle cx="531" cy="130" r="2"/>
    <circle cx="530" cy="128" r="2"/>
  </g>
  <g stroke="chocolate" stroke-width="1">
    <line x1="534" y1="125" x2="534" y2="125"/>
    <circle cx="534" cy="125" r="2"/>
    <circle cx="534" cy="125" r="2"/>
  </g>
  <g stroke="chocolate" stroke-width="1">
    <line x1="534" y1="125" x2="533" y2="114"/>
    <circle cx="534" cy="125" r="2"/>
    <circle cx="533" cy="114" r="2"/>
  </g>
  <g stroke="chocolate" stroke-width="1">
    <line x1="534" y1="128" x2="534" y2="125"/>
    <circle cx="534" cy="128" r="2"/>
    <circle cx="534" cy="125" r="2"/>
  </g>
  <g stroke="chocolate" stroke-width="1">
    <line x1="34" y1="125" x2="34" y2="125"/>
    <circle cx="34" cy="125" r="2"/>
    <circle cx="34" cy="125" r="2"/>
  </g>
  <g stroke="chocolate" stroke-width="1">
    <line x1="34" y1="130" x2="34" y2="125"/>
    <circle cx="34" cy="130" r="2"/>
    <circle cx="34" cy="125" r="2"/>
  </g>
  <g stroke="chocolate" stroke-width="1">
    <line x1="34" y1="125" x2="35" y2="125"/>
    <circle cx="34" cy="125" r="2"/>
    <circle cx="35" cy="125" r="2"/>
  </g>
  <g stroke="chocolate" stroke-width="1">
    <line x1="34" y1="125" x2="34" y2="125"/>
    <circle cx="34" cy="125" r="2"/>
    <circle cx="34" cy="125" r="2"/>
  </g>
  <g stroke="chocolate" stroke-width="1">
    <line x1="35" y1="125" x2="34" y2="125"/>
    <circle cx="35" cy="125" r="2"/>
    <circle cx="34" cy="125" r="2"/>
  </g>
  <g stroke="chocolate" stroke-width="1">
    <line x1="35" y1="125" x2="35" y2="125"/>
    <circle cx="35" cy="125" r="2"/>
    <circle cx="35" cy="125" r="2"/>
  </g>
  <g stroke="chocolate" stroke-width="1">
    <line x1="35" y1="125" x2="35" y2="111"/>
    <circle cx="35" cy="125" r="2"/>
    <circle cx="35" cy="111" r="2"/>
  </g>
  <g stroke="chocolate" stroke-width="1">
    <line x1="35" y1="125" x2="35" y2="125"/>
    <circle cx="35" cy="125" r="2"/>
    <circle cx="35" cy="125" r="2"/>
  </g>
  <g stroke="chocolate" stroke-width="1">
    <line x1="35" y1="125" x2="35" y2="125"/>
    <circle cx="35" cy="125" r="2"/>
    <circle cx="35" cy="125" r="2"/>
  </g>
  <g stroke="chocolate" stroke-width="1">
    <line x1="35" y1="125" x2="35" y2="111"/>
    <circle cx="35" cy="125" r="2"/>
    <circle cx="35" cy="111" r="2"/>
  </g>
  <g stroke="chocolate" stroke-width="1">
    <line x1="535" y1="125" x2="535" y2="114"/>
    <circle cx="535" cy="125" r="2"/>
    <circle cx="535" cy="114" r="2"/>
  </g>
  <g stroke="chocolate" stroke-width="1">
    <line x1="535" y1="129" x2="535" y2="125"/>
    <circle cx="535" cy="129" r="2"/>
    <circle cx="535" cy="125" r="2"/>
  </g>
  <g stroke="chocolate" stroke-width="1">
    <line x1="535" y1="125" x2="535" y2="125"/>
    <circle cx="535" cy="125" r="2"/>
    <circle cx="535" cy="125" r="2"/>
  </g>
  <g stroke="chocolate" stroke-width="1">
    <line x1="534" y1="125" x2="535" y2="125"/>
    <circle cx="534" cy="125" r="2"/>
    <circle cx="535" cy="125" r="2"/>
  </g>
  <g stroke="chocolate" stroke-width="1">
    <line x1="527" y1="130" x2="531" y2="130"/>
    <circle cx="527" cy="130" r="2"/>
    <circle cx="531" cy="130" r="2"/>
  </g>
  <g stroke="chocolate" stroke-width="1">
    <line x1="389" y1="132" x2="527" y2="130"/>
    <circle cx="389" cy="132" r="2"/>
    <circle cx="527" cy="130" r="2"/>
  </g>
  <g stroke="chocolate" stroke-width="1">
    <line x1="527" y1="130" x2="527" y2="128"/>
    <circle cx="527" cy="130" r="2"/>
    <circle cx="527" cy="128" r="2"/>
  </g>
  <g stroke="chocolate" stroke-width="1">
    <line x1="527" y1="132" x2="527" y2="130"/>
    <circle cx="527" cy="132" r="2"/>
    <circle cx="527" cy="130" r="2"/>
  </g>
  <g stroke="chocolate" stroke-width="1">
    <line x1="534" y1="127" x2="535" y2="127"/>
    <circle cx="534" cy="127" r="2"/>
    <circle cx="535" cy="127" r="2"/>
  </g>
  <g stroke="chocolate" stroke-width="1">
    <line x1="534" y1="128" x2="534" y2="127"/>
    <circle cx="534" cy="128" r="2"/>
    <circle cx="534" cy="127" r="2"/>
  </g>
  <g stroke="chocolate" stroke-width="1">
    <line x1="534" y1="127" x2="534" y2="125"/>
    <circle cx="534" cy="127" r="2"/>
    <circle cx="534" cy="125" r="2"/>
  </g>
  <g stroke="chocolate" stroke-width="1">
    <line x1="534" y1="130" x2="534" y2="127"/>
    <circle cx="534" cy="130" r="2"/>
    <circle cx="534" cy="127" r="2"/>
  </g>
  <g stroke="chocolate" stroke-width="1">
    <line x1="531" y1="128" x2="534" y2="128"/>
    <circle cx="531" cy="128" r="2"/>
    <circle cx="534" cy="128" r="2"/>
  </g>
  <g stroke="chocolate" stroke-width="1">
    <line x1="531" y1="130" x2="531" y2="128"/>
    <circle cx="531" cy="130" r="2"/>
    <circle cx="531" cy="128" r="2"/>
  </g>
  <g stroke="chocolate" stroke-width="1">
    <line x1="389" y1="132" x2="385" y2="131"/>
    <circle cx="389" cy="132" r="2"/>
    <circle cx="385" cy="131" r="2"/>
  </g>
  <g stroke="chocolate" stroke-width="1">
    <line x1="385" y1="131" x2="527" y2="128"/>
    <circle cx="385" cy="131" r="2"/>
    <circle cx="527" cy="128" r="2"/>
  </g>
  <g stroke="chocolate" stroke-width="1">
    <line x1="383" y1="131" x2="385" y2="131"/>
    <circle cx="383" cy="131" r="2"/>
    <circle cx="385" cy="131" r="2"/>
  </g>
  <g stroke="chocolate" stroke-width="1">
    <line x1="527" y1="125" x2="528" y2="114"/>
    <circle cx="527" cy="125" r="2"/>
    <circle cx="528" cy="114" r="2"/>
  </g>
  <g stroke="chocolate" stroke-width="1">
    <line x1="527" y1="128" x2="527" y2="125"/>
    <circle cx="527" cy="128" r="2"/>
    <circle cx="527" cy="125" r="2"/>
  </g>
  <g stroke="chocolate" stroke-width="1">
    <line x1="531" y1="130" x2="531" y2="130"/>
    <circle cx="531" cy="130" r="2"/>
    <circle cx="531" cy="130" r="2"/>
  </g>
  <g stroke="chocolate" stroke-width="1">
    <line x1="531" y1="132" x2="531" y2="130"/>
    <circle cx="531" cy="132" r="2"/>
    <circle cx="531" cy="130" r="2"/>
  </g>
  <g stroke="chocolate" stroke-width="1">
    <line x1="534" y1="130" x2="534" y2="128"/>
    <circle cx="534" cy="130" r="2"/>
    <circle cx="534" cy="128" r="2"/>
  </g>
  <g stroke="chocolate" stroke-width="1">
    <line x1="535" y1="129" x2="535" y2="127"/>
    <circle cx="535" cy="129" r="2"/>
    <circle cx="535" cy="127" r="2"/>
  </g>
  <g stroke="chocolate" stroke-width="1">
    <line x1="535" y1="130" x2="535" y2="129"/>
    <circle cx="535" cy="130" r="2"/>
    <circle cx="535" cy="129" r="2"/>
  </g>
  <g stroke="chocolate" stroke-width="1">
    <line x1="535" y1="130" x2="535" y2="129"/>
    <circle cx="535" cy="130" r="2"/>
    <circle cx="535" cy="129" r="2"/>
  </g>
  <g stroke="chocolate" stroke-width="1">
    <line x1="30" y1="125" x2="33" y2="125"/>
    <circle cx="30" cy="125" r="2"/>
    <circle cx="33" cy="125" r="2"/>
  </g>
  <g stroke="chocolate" stroke-width="1">
    <line x1="29" y1="125" x2="30" y2="125"/>
    <circle cx="29" cy="125" r="2"/>
    <circle cx="30" cy="125" r="2"/>
  </g>
  <g stroke="chocolate" stroke-width="1">
    <line x1="30" y1="125" x2="31" y2="111"/>
    <circle cx="30" cy="125" r="2"/>
    <circle cx="31" cy="111" r="2"/>
  </g>
  <g stroke="chocolate" stroke-width="1">
    <line x1="30" y1="130" x2="30" y2="125"/>
    <circle cx="30" cy="130" r="2"/>
    <circle cx="30" cy="125" r="2"/>
  </g>
  <g stroke="chocolate" stroke-width="1">
    <line x1="34" y1="125" x2="34" y2="125"/>
    <circle cx="34" cy="125" r="2"/>
    <circle cx="34" cy="125" r="2"/>
  </g>
  <g stroke="chocolate" stroke-width="1">
    <line x1="33" y1="125" x2="34" y2="125"/>
    <circle cx="33" cy="125" r="2"/>
    <circle cx="34" cy="125" r="2"/>
  </g>
  <g stroke="chocolate" stroke-width="1">
    <line x1="34" y1="125" x2="34" y2="125"/>
    <circle cx="34" cy="125" r="2"/>
    <circle cx="34" cy="125" r="2"/>
  </g>
  <g stroke="chocolate" stroke-width="1">
    <line x1="33" y1="130" x2="34" y2="125"/>
    <circle cx="33" cy="130" r="2"/>
    <circle cx="34" cy="125" r="2"/>
  </g>
  <g stroke="chocolate" stroke-width="1">
    <line x1="34" y1="125" x2="34" y2="125"/>
    <circle cx="34" cy="125" r="2"/>
    <circle cx="34" cy="125" r="2"/>
  </g>
  <g stroke="chocolate" stroke-width="1">
    <line x1="34" y1="125" x2="34" y2="125"/>
    <circle cx="34" cy="125" r="2"/>
    <circle cx="34" cy="125" r="2"/>
  </g>
  <g stroke="chocolate" stroke-width="1">
    <line x1="34" y1="125" x2="34" y2="111"/>
    <circle cx="34" cy="125" r="2"/>
    <circle cx="34" cy="111" r="2"/>
  </g>
  <g stroke="chocolate" stroke-width="1">
    <line x1="34" y1="125" x2="34" y2="125"/>
    <circle cx="34" cy="125" r="2"/>
    <circle cx="34" cy="125" r="2"/>
  </g>
  <g stroke="chocolate" stroke-width="1">
    <line x1="34" y1="125" x2="35" y2="111"/>
    <circle cx="34" cy="125" r="2"/>
    <circle cx="35" cy="111" r="2"/>
  </g>
  <g stroke="chocolate" stroke-width="1">
    <line x1="34" y1="125" x2="34" y2="125"/>
    <circle cx="34" cy="125" r="2"/>
    <circle cx="34" cy="125" r="2"/>
  </g>
  <g stroke="chocolate" stroke-width="1">
    <line x1="35" y1="125" x2="35" y2="111"/>
    <circle cx="35" cy="125" r="2"/>
    <circle cx="35" cy="111" r="2"/>
  </g>
  <g stroke="chocolate" stroke-width="1">
    <line x1="35" y1="125" x2="35" y2="125"/>
    <circle cx="35" cy="125" r="2"/>
    <circle cx="35" cy="125" r="2"/>
  </g>
  <g stroke="chocolate" stroke-width="1">
    <line x1="35" y1="130" x2="35" y2="125"/>
    <circle cx="35" cy="130" r="2"/>
    <circle cx="35" cy="125" r="2"/>
  </g>
  <g stroke="chocolate" stroke-width="1">
    <line x1="34" y1="125" x2="34" y2="111"/>
    <circle cx="34" cy="125" r="2"/>
    <circle cx="34" cy="111" r="2"/>
  </g>
  <g stroke="chocolate" stroke-width="1">
    <line x1="34" y1="125" x2="34" y2="125"/>
    <circle cx="34" cy="125" r="2"/>
    <circle cx="34" cy="125" r="2"/>
  </g>
  <g stroke="chocolate" stroke-width="1">
    <line x1="34" y1="125" x2="34" y2="125"/>
    <circle cx="34" cy="125" r="2"/>
    <circle cx="34" cy="125" r="2"/>
  </g>
  <g stroke="chocolate" stroke-width="1">
    <line x1="34" y1="130" x2="34" y2="125"/>
    <circle cx="34" cy="130" r="2"/>
    <circle cx="34" cy="125" r="2"/>
  </g>
  <g stroke="chocolate" stroke-width="1">
    <line x1="33" y1="125" x2="33" y2="111"/>
    <circle cx="33" cy="125" r="2"/>
    <circle cx="33" cy="111" r="2"/>
  </g>
  <g stroke="chocolate" stroke-width="1">
    <line x1="33" y1="130" x2="33" y2="125"/>
    <circle cx="33" cy="130" r="2"/>
    <circle cx="33" cy="125" r="2"/>
  </g>
  <g stroke="chocolate" stroke-width="1">
    <line x1="28" y1="125" x2="29" y2="125"/>
    <circle cx="28" cy="125" r="2"/>
    <circle cx="29" cy="125" r="2"/>
  </g>
  <g stroke="chocolate" stroke-width="1">
    <line x1="29" y1="125" x2="29" y2="111"/>
    <circle cx="29" cy="125" r="2"/>
    <circle cx="29" cy="111" r="2"/>
  </g>
  <g stroke="chocolate" stroke-width="1">
    <line x1="30" y1="130" x2="29" y2="125"/>
    <circle cx="30" cy="130" r="2"/>
    <circle cx="29" cy="125" r="2"/>
  </g>
  <g stroke="chocolate" stroke-width="1">
    <line x1="35" y1="130" x2="35" y2="130"/>
    <circle cx="35" cy="130" r="2"/>
    <circle cx="35" cy="130" r="2"/>
  </g>
  <g stroke="chocolate" stroke-width="1">
    <line x1="35" y1="130" x2="35" y2="130"/>
    <circle cx="35" cy="130" r="2"/>
    <circle cx="35" cy="130" r="2"/>
  </g>
  <g stroke="chocolate" stroke-width="1">
    <line x1="376" y1="131" x2="35" y2="130"/>
    <circle cx="376" cy="131" r="2"/>
    <circle cx="35" cy="130" r="2"/>
  </g>
  <g stroke="chocolate" stroke-width="1">
    <line x1="535" y1="125" x2="535" y2="125"/>
    <circle cx="535" cy="125" r="2"/>
    <circle cx="535" cy="125" r="2"/>
  </g>
  <g stroke="chocolate" stroke-width="1">
    <line x1="535" y1="125" x2="535" y2="114"/>
    <circle cx="535" cy="125" r="2"/>
    <circle cx="535" cy="114" r="2"/>
  </g>
  <g stroke="chocolate" stroke-width="1">
    <line x1="535" y1="130" x2="535" y2="125"/>
    <circle cx="535" cy="130" r="2"/>
    <circle cx="535" cy="125" r="2"/>
  </g>
  <g stroke="chocolate" stroke-width="1">
    <line x1="504" y1="429" x2="527" y2="132"/>
    <circle cx="504" cy="429" r="2"/>
    <circle cx="527" cy="132" r="2"/>
  </g>
  <g stroke="chocolate" stroke-width="1">
    <line x1="527" y1="132" x2="30" y2="130"/>
    <circle cx="527" cy="132" r="2"/>
    <circle cx="30" cy="130" r="2"/>
  </g>
  <g stroke="chocolate" stroke-width="1">
    <line x1="531" y1="132" x2="527" y2="132"/>
    <circle cx="531" cy="132" r="2"/>
    <circle cx="527" cy="132" r="2"/>
  </g>
  <g stroke="chocolate" stroke-width="1">
    <line x1="534" y1="125" x2="534" y2="114"/>
    <circle cx="534" cy="125" r="2"/>
    <circle cx="534" cy="114" r="2"/>
  </g>
  <g stroke="chocolate" stroke-width="1">
    <line x1="531" y1="130" x2="535" y2="130"/>
    <circle cx="531" cy="130" r="2"/>
    <circle cx="535" cy="130" r="2"/>
  </g>
  <g stroke="chocolate" stroke-width="1">
    <line x1="531" y1="132" x2="531" y2="130"/>
    <circle cx="531" cy="132" r="2"/>
    <circle cx="531" cy="130" r="2"/>
  </g>
  <g stroke="chocolate" stroke-width="1">
    <line x1="529" y1="125" x2="528" y2="114"/>
    <circle cx="529" cy="125" r="2"/>
    <circle cx="528" cy="114" r="2"/>
  </g>
  <g stroke="chocolate" stroke-width="1">
    <line x1="533" y1="125" x2="532" y2="114"/>
    <circle cx="533" cy="125" r="2"/>
    <circle cx="532" cy="114" r="2"/>
  </g>
  <g stroke="chocolate" stroke-width="1">
    <line x1="535" y1="114" x2="27" y2="111"/>
    <circle cx="535" cy="114" r="2"/>
    <circle cx="27" cy="111" r="2"/>
  </g>
  <g stroke="chocolate" stroke-width="1">
    <line x1="535" y1="130" x2="535" y2="127"/>
    <circle cx="535" cy="130" r="2"/>
    <circle cx="535" cy="127" r="2"/>
  </g>
  <g stroke="chocolate" stroke-width="1">
    <line x1="535" y1="125" x2="534" y2="114"/>
    <circle cx="535" cy="125" r="2"/>
    <circle cx="534" cy="114" r="2"/>
  </g>
  <g stroke="chocolate" stroke-width="1">
    <line x1="383" y1="131" x2="376" y2="131"/>
    <circle cx="383" cy="131" r="2"/>
    <circle cx="376" cy="131" r="2"/>
  </g>
  <g stroke="chocolate" stroke-width="1">
    <line x1="5" y1="390" x2="27" y2="111"/>
    <circle cx="5" cy="390" r="2"/>
    <circle cx="27" cy="111" r="2"/>
  </g>
  <g stroke="chocolate" stroke-width="1">
    <line x1="28" y1="125" x2="29" y2="111"/>
    <circle cx="28" cy="125" r="2"/>
    <circle cx="29" cy="111" r="2"/>
  </g>
  <g stroke="chocolate" stroke-width="1">
    <line x1="32" y1="125" x2="33" y2="111"/>
    <circle cx="32" cy="125" r="2"/>
    <circle cx="33" cy="111" r="2"/>
  </g>
  <g stroke="chocolate" stroke-width="1">
    <line x1="35" y1="130" x2="35" y2="130"/>
    <circle cx="35" cy="130" r="2"/>
    <circle cx="35" cy="130" r="2"/>
  </g>
  <g stroke="chocolate" stroke-width="1">
    <line x1="535" y1="125" x2="535" y2="114"/>
    <circle cx="535" cy="125" r="2"/>
    <circle cx="535" cy="114" r="2"/>
  </g>
  <g stroke="chocolate" stroke-width="1">
    <line x1="35" y1="130" x2="35" y2="130"/>
    <circle cx="35" cy="130" r="2"/>
    <circle cx="35" cy="130" r="2"/>
  </g>
  <g stroke="chocolate" stroke-width="1">
    <line x1="32" y1="125" x2="31" y2="111"/>
    <circle cx="32" cy="125" r="2"/>
    <circle cx="31" cy="111" r="2"/>
  </g>
  <g stroke="chocolate" stroke-width="1">
    <line x1="28" y1="125" x2="27" y2="111"/>
    <circle cx="28" cy="125" r="2"/>
    <circle cx="27" cy="111" r="2"/>
  </g>
  <g stroke="chocolate" stroke-width="1">
    <line x1="535" y1="125" x2="535" y2="114"/>
    <circle cx="535" cy="125" r="2"/>
    <circle cx="535" cy="114" r="2"/>
  </g>
  <g stroke="chocolate" stroke-width="1">
    <line x1="533" y1="125" x2="533" y2="114"/>
    <circle cx="533" cy="125" r="2"/>
    <circle cx="533" cy="114" r="2"/>
  </g>
  <g stroke="chocolate" stroke-width="1">
    <line x1="529" y1="125" x2="530" y2="114"/>
    <circle cx="529" cy="125" r="2"/>
    <circle cx="530" cy="114" r="2"/>
  </g>
  <g stroke="chocolate" stroke-width="1">
    <line x1="504" y1="429" x2="5" y2="390"/>
    <circle cx="504" cy="429" r="2"/>
    <circle cx="5" cy="390" r="2"/>
  </g>
  <g stroke="black" stroke-width="1">
    <line x1="20" y1="20" x2="520" y2="20"/>
    <line x1="20" y1="20" x2="20" y2="520"/>
    <line x1="520" y1="520" x2="20" y2="520"/>
    <line x1="520" y1="520" x2="520" y2="20"/>
    <line x1="120" y1="17" x2="120" y2="23"/>
    <line x1="17" y1="120" x2="23" y2="120"/>
    <line x1="120" y1="517" x2="120" y2="523"/>
    <line x1="517" y1="120" x2="523" y2="120"/>
    <line x1="220" y1="17" x2="220" y2="23"/>
    <line x1="17" y1="220" x2="23" y2="220"/>
    <line x1="220" y1="517" x2="220" y2="523"/>
    <line x1="517" y1="220" x2="523" y2="220"/>
    <line x1="320" y1="17" x2="320" y2="23"/>
    <line x1="17" y1="320" x2="23" y2="320"/>
    <line x1="320" y1="517" x2="320" y2="523"/>
    <line x1="517" y1="320" x2="523" y2="320"/>
    <line x1="420" y1="17" x2="420" y2="23"/>
    <line x1="17" y1="420" x2="23" y2="420"/>
    <line x1="420" y1="517" x2="420" y2="523"/>
    <line x1="517" y1="420" x2="523" y2="420"/>
  </g>
  <g stroke="gray" stroke-width="1" stroke-dasharray="5,5">
    <line x1="120" y1="20" x2="120" y2="520"/>
    <line x1="20" y1="120" x2="520" y2="120"/>
    <line x1="220" y1="20" x2="220" y2="520"/>
    <line x1="20" y1="220" x2="520" y2="220"/>
    <line x1="320" y1="20" x2="320" y2="520"/>
    <line x1="20" y1="320" x2="520" y2="320"/>
    <line x1="420" y1="20" x2="420" y2="520"/>
    <line x1="20" y1="420" x2="520" y2="420"/>
  </g>
</svg>
