<?xml version="1.0" standalone="no"?>
<!DOCTYPE svg PUBLIC "-//W3C//DTD SVG 1.1//EN" 
  "http://www.w3.org/Graphics/SVG/1.1/DTD/svg11.dtd">
<svg width="510" height="510" version="1.1" id="toplevel"
    xmlns="http://www.w3.org/2000/svg"
    xmlns:xlink="http://www.w3.org/1999/xlink">
  <polygon points="108,505 358,505 497,297 268,143 233,5 108,5 108,36 82,19 13,123 108,228"
           fill="bisque"/>
  <g stroke="chocolate" stroke-width="1">
    <line x1="108" y1="36" x2="82" y2="19"/>
    <circle cx="108" cy="36" r="2"/>
    <circle cx="82" cy="19" r="2"/>
  </g>
  <g stroke="chocolate" stroke-width="1">
    <line x1="138" y1="56" x2="108" y2="36"/>
    <circle cx="138" cy="56" r="2"/>
    <circle cx="108" cy="36" r="2"/>
  </g>
  <g stroke="chocolate" stroke-width="1">
    <line x1="108" y1="36" x2="108" y2="5"/>
    <circle cx="108" cy="36" r="2"/>
    <circle cx="108" cy="5" r="2"/>
  </g>
  <g stroke="chocolate" stroke-width="1">
    <line x1="108" y1="72" x2="108" y2="36"/>
    <circle cx="108" cy="72" r="2"/>
    <circle cx="108" cy="36" r="2"/>
  </g>
  <g stroke="chocolate" stroke-width="1">
    <line x1="138" y1="56" x2="233" y2="5"/>
    <circle cx="138" cy="56" r="2"/>
    <circle cx="233" cy="5" r="2"/>
  </g>
  <g stroke="chocolate" stroke-width="1">
    <line x1="108" y1="72" x2="138" y2="56"/>
    <circle cx="108" cy="72" r="2"/>
    <circle cx="138" cy="56" r="2"/>
  </g>
  <g stroke="chocolate" stroke-width="1">
    <line x1="268" y1="143" x2="138" y2="56"/>
    <circle cx="268" cy="143" r="2"/>
    <circle cx="138" cy="56" r="2"/>
  </g>
  <g stroke="chocolate" stroke-width="1">
    <line x1="108" y1="228" x2="108" y2="72"/>
    <circle cx="108" cy="228" r="2"/>
    <circle cx="108" cy="72" r="2"/>
  </g>
  <g stroke="chocolate" stroke-width="1">
    <line x1="13" y1="123" x2="108" y2="72"/>
    <circle cx="13" cy="123" r="2"/>
    <circle cx="108" cy="72" r="2"/>
  </g>
  <g stroke="chocolate" stroke-width="1">
    <line x1="497" y1="297" x2="268" y2="143"/>
    <circle cx="497" cy="297" r="2"/>
    <circle cx="268" cy="143" r="2"/>
  </g>
  <g stroke="chocolate" stroke-width="1">
    <line x1="268" y1="143" x2="233" y2="5"/>
    <circle cx="268" cy="143" r="2"/>
    <circle cx="233" cy="5" r="2"/>
  </g>
  <g stroke="chocolate" stroke-width="1">
    <line x1="358" y1="505" x2="268" y2="143"/>
    <circle cx="358" cy="505" r="2"/>
    <circle cx="268" cy="143" r="2"/>
  </g>
  <g stroke="chocolate" stroke-width="1">
    <line x1="108" y1="228" x2="13" y2="123"/>
    <circle cx="108" cy="228" r="2"/>
    <circle cx="13" cy="123" r="2"/>
  </g>
  <g stroke="chocolate" stroke-width="1">
    <line x1="358" y1="505" x2="108" y2="228"/>
    <circle cx="358" cy="505" r="2"/>
    <circle cx="108" cy="228" r="2"/>
  </g>
  <g stroke="chocolate" stroke-width="1">
    <line x1="108" y1="505" x2="108" y2="228"/>
    <circle cx="108" cy="505" r="2"/>
    <circle cx="108" cy="228" r="2"/>
  </g>
  <g stroke="chocolate" stroke-width="1">
    <line x1="108" y1="5" x2="233" y2="5"/>
    <circle cx="108" cy="5" r="2"/>
    <circle cx="233" cy="5" r="2"/>
  </g>
  <g stroke="chocolate" stroke-width="1">
    <line x1="13" y1="123" x2="82" y2="19"/>
    <circle cx="13" cy="123" r="2"/>
    <circle cx="82" cy="19" r="2"/>
  </g>
  <g stroke="chocolate" stroke-width="1">
    <line x1="108" y1="505" x2="358" y2="505"/>
    <circle cx="108" cy="505" r="2"/>
    <circle cx="358" cy="505" r="2"/>
  </g>
  <g stroke="chocolate" stroke-width="1">
    <line x1="358" y1="505" x2="497" y2="297"/>
    <circle cx="358" cy="505" r="2"/>
    <circle cx="497" cy="297" r="2"/>
  </g>
  <g stroke="black" stroke-width="1">
    <line x1="5" y1="5" x2="505" y2="5"/>
    <line x1="5" y1="5" x2="5" y2="505"/>
    <line x1="505" y1="505" x2="5" y2="505"/>
    <line x1="505" y1="505" x2="505" y2="5"/>
    <line x1="105" y1="2" x2="105" y2="8"/>
    <line x1="2" y1="105" x2="8" y2="105"/>
    <line x1="105" y1="502" x2="105" y2="508"/>
    <line x1="502" y1="105" x2="508" y2="105"/>
    <line x1="205" y1="2" x2="205" y2="8"/>
    <line x1="2" y1="205" x2="8" y2="205"/>
    <line x1="205" y1="502" x2="205" y2="508"/>
    <line x1="502" y1="205" x2="508" y2="205"/>
    <line x1="305" y1="2" x2="305" y2="8"/>
    <line x1="2" y1="305" x2="8" y2="305"/>
    <line x1="305" y1="502" x2="305" y2="508"/>
    <line x1="502" y1="305" x2="508" y2="305"/>
    <line x1="405" y1="2" x2="405" y2="8"/>
    <line x1="2" y1="405" x2="8" y2="405"/>
    <line x1="405" y1="502" x2="405" y2="508"/>
    <line x1="502" y1="405" x2="508" y2="405"/>
  </g>
  <g stroke="gray" stroke-width="1" stroke-dasharray="5,5">
    <line x1="105" y1="5" x2="105" y2="505"/>
    <line x1="5" y1="105" x2="505" y2="105"/>
    <line x1="205" y1="5" x2="205" y2="505"/>
    <line x1="5" y1="205" x2="505" y2="205"/>
    <line x1="305" y1="5" x2="305" y2="505"/>
    <line x1="5" y1="305" x2="505" y2="305"/>
    <line x1="405" y1="5" x2="405" y2="505"/>
    <line x1="5" y1="405" x2="505" y2="405"/>
  </g>
</svg>
