<?xml version="1.0" standalone="no"?>
<!DOCTYPE svg PUBLIC "-//W3C//DTD SVG 1.1//EN" 
  "http://www.w3.org/Graphics/SVG/1.1/DTD/svg11.dtd">
<svg width="676" height="676" version="1.1" id="toplevel"
    xmlns="http://www.w3.org/2000/svg"
    xmlns:xlink="http://www.w3.org/1999/xlink">
  <polygon points="277,671 588,523 551,86 512,5 137,184 88,277" fill="bisque"/>
  <g stroke="chocolate" stroke-width="1">
    <line x1="88" y1="277" x2="137" y2="184"/>
    <circle cx="88" cy="277" r="2"/>
    <circle cx="137" cy="184" r="2"/>
  </g>
  <g stroke="chocolate" stroke-width="1">
    <line x1="137" y1="184" x2="512" y2="5"/>
    <circle cx="137" cy="184" r="2"/>
    <circle cx="512" cy="5" r="2"/>
  </g>
  <g stroke="chocolate" stroke-width="1">
    <line x1="438" y1="479" x2="551" y2="86"/>
    <circle cx="438" cy="479" r="2"/>
    <circle cx="551" cy="86" r="2"/>
  </g>
  <g stroke="chocolate" stroke-width="1">
    <line x1="88" y1="277" x2="150" y2="267"/>
    <circle cx="88" cy="277" r="2"/>
    <circle cx="150" cy="267" r="2"/>
  </g>
  <g stroke="chocolate" stroke-width="1">
    <line x1="588" y1="523" x2="551" y2="86"/>
    <circle cx="588" cy="523" r="2"/>
    <circle cx="551" cy="86" r="2"/>
  </g>
  <g stroke="chocolate" stroke-width="1">
    <line x1="277" y1="671" x2="588" y2="523"/>
    <circle cx="277" cy="671" r="2"/>
    <circle cx="588" cy="523" r="2"/>
  </g>
  <g stroke="chocolate" stroke-width="1">
    <line x1="150" y1="267" x2="137" y2="184"/>
    <circle cx="150" cy="267" r="2"/>
    <circle cx="137" cy="184" r="2"/>
  </g>
  <g stroke="chocolate" stroke-width="1">
    <line x1="551" y1="86" x2="512" y2="5"/>
    <circle cx="551" cy="86" r="2"/>
    <circle cx="512" cy="5" r="2"/>
  </g>
  <g stroke="chocolate" stroke-width="1">
    <line x1="277" y1="671" x2="88" y2="277"/>
    <circle cx="277" cy="671" r="2"/>
    <circle cx="88" cy="277" r="2"/>
  </g>
  <g stroke="chocolate" stroke-width="1">
    <line x1="588" y1="523" x2="438" y2="479"/>
    <circle cx="588" cy="523" r="2"/>
    <circle cx="438" cy="479" r="2"/>
  </g>
  <g stroke="black" stroke-width="1">
    <line x1="88" y1="88" x2="588" y2="88"/>
    <line x1="88" y1="88" x2="88" y2="588"/>
    <line x1="588" y1="588" x2="88" y2="588"/>
    <line x1="588" y1="588" x2="588" y2="88"/>
    <line x1="188" y1="85" x2="188" y2="91"/>
    <line x1="85" y1="188" x2="91" y2="188"/>
    <line x1="188" y1="585" x2="188" y2="591"/>
    <line x1="585" y1="188" x2="591" y2="188"/>
    <line x1="288" y1="85" x2="288" y2="91"/>
    <line x1="85" y1="288" x2="91" y2="288"/>
    <line x1="288" y1="585" x2="288" y2="591"/>
    <line x1="585" y1="288" x2="591" y2="288"/>
    <line x1="388" y1="85" x2="388" y2="91"/>
    <line x1="85" y1="388" x2="91" y2="388"/>
    <line x1="388" y1="585" x2="388" y2="591"/>
    <line x1="585" y1="388" x2="591" y2="388"/>
    <line x1="488" y1="85" x2="488" y2="91"/>
    <line x1="85" y1="488" x2="91" y2="488"/>
    <line x1="488" y1="585" x2="488" y2="591"/>
    <line x1="585" y1="488" x2="591" y2="488"/>
  </g>
  <g stroke="gray" stroke-width="1" stroke-dasharray="5,5">
    <line x1="188" y1="88" x2="188" y2="588"/>
    <line x1="88" y1="188" x2="588" y2="188"/>
    <line x1="288" y1="88" x2="288" y2="588"/>
    <line x1="88" y1="288" x2="588" y2="288"/>
    <line x1="388" y1="88" x2="388" y2="588"/>
    <line x1="88" y1="388" x2="588" y2="388"/>
    <line x1="488" y1="88" x2="488" y2="588"/>
    <line x1="88" y1="488" x2="588" y2="488"/>
  </g>
</svg>
