<?xml version="1.0" standalone="no"?>
<!DOCTYPE svg PUBLIC "-//W3C//DTD SVG 1.1//EN" 
  "http://www.w3.org/Graphics/SVG/1.1/DTD/svg11.dtd">
<svg width="556" height="556" version="1.1" id="toplevel"
    xmlns="http://www.w3.org/2000/svg"
    xmlns:xlink="http://www.w3.org/1999/xlink">
  <polygon points="480,466 551,243 486,222 486,200 411,198 75,90 49,171 5,170 5,188 231,424"
           fill="bisque"/>
  <g stroke="chocolate" stroke-width="1">
    <line x1="44" y1="189" x2="5" y2="188"/>
    <circle cx="44" cy="189" r="2"/>
    <circle cx="5" cy="188" r="2"/>
  </g>
  <g stroke="chocolate" stroke-width="1">
    <line x1="133" y1="191" x2="44" y2="189"/>
    <circle cx="133" cy="191" r="2"/>
    <circle cx="44" cy="189" r="2"/>
  </g>
  <g stroke="chocolate" stroke-width="1">
    <line x1="44" y1="189" x2="49" y2="171"/>
    <circle cx="44" cy="189" r="2"/>
    <circle cx="49" cy="171" r="2"/>
  </g>
  <g stroke="chocolate" stroke-width="1">
    <line x1="34" y1="219" x2="44" y2="189"/>
    <circle cx="34" cy="219" r="2"/>
    <circle cx="44" cy="189" r="2"/>
  </g>
  <g stroke="chocolate" stroke-width="1">
    <line x1="411" y1="198" x2="75" y2="90"/>
    <circle cx="411" cy="198" r="2"/>
    <circle cx="75" cy="90" r="2"/>
  </g>
  <g stroke="chocolate" stroke-width="1">
    <line x1="486" y1="222" x2="411" y2="198"/>
    <circle cx="486" cy="222" r="2"/>
    <circle cx="411" cy="198" r="2"/>
  </g>
  <g stroke="chocolate" stroke-width="1">
    <line x1="411" y1="198" x2="201" y2="193"/>
    <circle cx="411" cy="198" r="2"/>
    <circle cx="201" cy="193" r="2"/>
  </g>
  <g stroke="chocolate" stroke-width="1">
    <line x1="486" y1="200" x2="411" y2="198"/>
    <circle cx="486" cy="200" r="2"/>
    <circle cx="411" cy="198" r="2"/>
  </g>
  <g stroke="chocolate" stroke-width="1">
    <line x1="201" y1="193" x2="133" y2="191"/>
    <circle cx="201" cy="193" r="2"/>
    <circle cx="133" cy="191" r="2"/>
  </g>
  <g stroke="chocolate" stroke-width="1">
    <line x1="133" y1="191" x2="199" y2="173"/>
    <circle cx="133" cy="191" r="2"/>
    <circle cx="199" cy="173" r="2"/>
  </g>
  <g stroke="chocolate" stroke-width="1">
    <line x1="34" y1="219" x2="133" y2="191"/>
    <circle cx="34" cy="219" r="2"/>
    <circle cx="133" cy="191" r="2"/>
  </g>
  <g stroke="chocolate" stroke-width="1">
    <line x1="49" y1="171" x2="5" y2="170"/>
    <circle cx="49" cy="171" r="2"/>
    <circle cx="5" cy="170" r="2"/>
  </g>
  <g stroke="chocolate" stroke-width="1">
    <line x1="199" y1="173" x2="49" y2="171"/>
    <circle cx="199" cy="173" r="2"/>
    <circle cx="49" cy="171" r="2"/>
  </g>
  <g stroke="chocolate" stroke-width="1">
    <line x1="49" y1="171" x2="75" y2="90"/>
    <circle cx="49" cy="171" r="2"/>
    <circle cx="75" cy="90" r="2"/>
  </g>
  <g stroke="chocolate" stroke-width="1">
    <line x1="551" y1="243" x2="486" y2="222"/>
    <circle cx="551" cy="243" r="2"/>
    <circle cx="486" cy="222" r="2"/>
  </g>
  <g stroke="chocolate" stroke-width="1">
    <line x1="486" y1="222" x2="486" y2="200"/>
    <circle cx="486" cy="222" r="2"/>
    <circle cx="486" cy="200" r="2"/>
  </g>
  <g stroke="chocolate" stroke-width="1">
    <line x1="480" y1="466" x2="486" y2="222"/>
    <circle cx="480" cy="466" r="2"/>
    <circle cx="486" cy="222" r="2"/>
  </g>
  <g stroke="chocolate" stroke-width="1">
    <line x1="201" y1="193" x2="199" y2="173"/>
    <circle cx="201" cy="193" r="2"/>
    <circle cx="199" cy="173" r="2"/>
  </g>
  <g stroke="chocolate" stroke-width="1">
    <line x1="231" y1="424" x2="201" y2="193"/>
    <circle cx="231" cy="424" r="2"/>
    <circle cx="201" cy="193" r="2"/>
  </g>
  <g stroke="chocolate" stroke-width="1">
    <line x1="480" y1="466" x2="231" y2="424"/>
    <circle cx="480" cy="466" r="2"/>
    <circle cx="231" cy="424" r="2"/>
  </g>
  <g stroke="chocolate" stroke-width="1">
    <line x1="480" y1="466" x2="551" y2="243"/>
    <circle cx="480" cy="466" r="2"/>
    <circle cx="551" cy="243" r="2"/>
  </g>
  <g stroke="chocolate" stroke-width="1">
    <line x1="5" y1="188" x2="5" y2="170"/>
    <circle cx="5" cy="188" r="2"/>
    <circle cx="5" cy="170" r="2"/>
  </g>
  <g stroke="chocolate" stroke-width="1">
    <line x1="231" y1="424" x2="5" y2="188"/>
    <circle cx="231" cy="424" r="2"/>
    <circle cx="5" cy="188" r="2"/>
  </g>
  <g stroke="black" stroke-width="1">
    <line x1="28" y1="28" x2="528" y2="28"/>
    <line x1="28" y1="28" x2="28" y2="528"/>
    <line x1="528" y1="528" x2="28" y2="528"/>
    <line x1="528" y1="528" x2="528" y2="28"/>
    <line x1="128" y1="25" x2="128" y2="31"/>
    <line x1="25" y1="128" x2="31" y2="128"/>
    <line x1="128" y1="525" x2="128" y2="531"/>
    <line x1="525" y1="128" x2="531" y2="128"/>
    <line x1="228" y1="25" x2="228" y2="31"/>
    <line x1="25" y1="228" x2="31" y2="228"/>
    <line x1="228" y1="525" x2="228" y2="531"/>
    <line x1="525" y1="228" x2="531" y2="228"/>
    <line x1="328" y1="25" x2="328" y2="31"/>
    <line x1="25" y1="328" x2="31" y2="328"/>
    <line x1="328" y1="525" x2="328" y2="531"/>
    <line x1="525" y1="328" x2="531" y2="328"/>
    <line x1="428" y1="25" x2="428" y2="31"/>
    <line x1="25" y1="428" x2="31" y2="428"/>
    <line x1="428" y1="525" x2="428" y2="531"/>
    <line x1="525" y1="428" x2="531" y2="428"/>
  </g>
  <g stroke="gray" stroke-width="1" stroke-dasharray="5,5">
    <line x1="128" y1="28" x2="128" y2="528"/>
    <line x1="28" y1="128" x2="528" y2="128"/>
    <line x1="228" y1="28" x2="228" y2="528"/>
    <line x1="28" y1="228" x2="528" y2="228"/>
    <line x1="328" y1="28" x2="328" y2="528"/>
    <line x1="28" y1="328" x2="528" y2="328"/>
    <line x1="428" y1="28" x2="428" y2="528"/>
    <line x1="28" y1="428" x2="528" y2="428"/>
  </g>
</svg>
