<?xml version="1.0" standalone="no"?>
<!DOCTYPE svg PUBLIC "-//W3C//DTD SVG 1.1//EN" 
  "http://www.w3.org/Graphics/SVG/1.1/DTD/svg11.dtd">
<svg width="510" height="510" version="1.1" id="toplevel"
    xmlns="http://www.w3.org/2000/svg"
    xmlns:xlink="http://www.w3.org/1999/xlink">
  <polygon points="133,465 351,395 387,332 288,137 313,117 202,45 173,49 152,78 152,79 157,80 151,92 134,444 123,453"
           fill="bisque"/>
  <g stroke="chocolate" stroke-width="1">
    <line x1="184" y1="398" x2="201" y2="382"/>
    <circle cx="184" cy="398" r="2"/>
    <circle cx="201" cy="382" r="2"/>
  </g>
  <g stroke="chocolate" stroke-width="1">
    <line x1="134" y1="444" x2="184" y2="398"/>
    <circle cx="134" cy="444" r="2"/>
    <circle cx="184" cy="398" r="2"/>
  </g>
  <g stroke="chocolate" stroke-width="1">
    <line x1="184" y1="398" x2="187" y2="372"/>
    <circle cx="184" cy="398" r="2"/>
    <circle cx="187" cy="372" r="2"/>
  </g>
  <g stroke="chocolate" stroke-width="1">
    <line x1="182" y1="413" x2="184" y2="398"/>
    <circle cx="182" cy="413" r="2"/>
    <circle cx="184" cy="398" r="2"/>
  </g>
  <g stroke="chocolate" stroke-width="1">
    <line x1="200" y1="362" x2="195" y2="359"/>
    <circle cx="200" cy="362" r="2"/>
    <circle cx="195" cy="359" r="2"/>
  </g>
  <g stroke="chocolate" stroke-width="1">
    <line x1="214" y1="370" x2="200" y2="362"/>
    <circle cx="214" cy="370" r="2"/>
    <circle cx="200" cy="362" r="2"/>
  </g>
  <g stroke="chocolate" stroke-width="1">
    <line x1="200" y1="362" x2="224" y2="344"/>
    <circle cx="200" cy="362" r="2"/>
    <circle cx="224" cy="344" r="2"/>
  </g>
  <g stroke="chocolate" stroke-width="1">
    <line x1="191" y1="369" x2="200" y2="362"/>
    <circle cx="191" cy="369" r="2"/>
    <circle cx="200" cy="362" r="2"/>
  </g>
  <g stroke="chocolate" stroke-width="1">
    <line x1="201" y1="382" x2="214" y2="370"/>
    <circle cx="201" cy="382" r="2"/>
    <circle cx="214" cy="370" r="2"/>
  </g>
  <g stroke="chocolate" stroke-width="1">
    <line x1="201" y1="382" x2="191" y2="369"/>
    <circle cx="201" cy="382" r="2"/>
    <circle cx="191" cy="369" r="2"/>
  </g>
  <g stroke="chocolate" stroke-width="1">
    <line x1="230" y1="418" x2="201" y2="382"/>
    <circle cx="230" cy="418" r="2"/>
    <circle cx="201" cy="382" r="2"/>
  </g>
  <g stroke="chocolate" stroke-width="1">
    <line x1="195" y1="359" x2="202" y2="345"/>
    <circle cx="195" cy="359" r="2"/>
    <circle cx="202" cy="345" r="2"/>
  </g>
  <g stroke="chocolate" stroke-width="1">
    <line x1="190" y1="367" x2="195" y2="359"/>
    <circle cx="190" cy="367" r="2"/>
    <circle cx="195" cy="359" r="2"/>
  </g>
  <g stroke="chocolate" stroke-width="1">
    <line x1="195" y1="359" x2="139" y2="328"/>
    <circle cx="195" cy="359" r="2"/>
    <circle cx="139" cy="328" r="2"/>
  </g>
  <g stroke="chocolate" stroke-width="1">
    <line x1="232" y1="380" x2="232" y2="369"/>
    <circle cx="232" cy="380" r="2"/>
    <circle cx="232" cy="369" r="2"/>
  </g>
  <g stroke="chocolate" stroke-width="1">
    <line x1="230" y1="418" x2="232" y2="380"/>
    <circle cx="230" cy="418" r="2"/>
    <circle cx="232" cy="380" r="2"/>
  </g>
  <g stroke="chocolate" stroke-width="1">
    <line x1="232" y1="380" x2="214" y2="370"/>
    <circle cx="232" cy="380" r="2"/>
    <circle cx="214" cy="370" r="2"/>
  </g>
  <g stroke="chocolate" stroke-width="1">
    <line x1="241" y1="385" x2="232" y2="380"/>
    <circle cx="241" cy="385" r="2"/>
    <circle cx="232" cy="380" r="2"/>
  </g>
  <g stroke="chocolate" stroke-width="1">
    <line x1="182" y1="417" x2="182" y2="413"/>
    <circle cx="182" cy="417" r="2"/>
    <circle cx="182" cy="413" r="2"/>
  </g>
  <g stroke="chocolate" stroke-width="1">
    <line x1="182" y1="413" x2="202" y2="399"/>
    <circle cx="182" cy="413" r="2"/>
    <circle cx="202" cy="399" r="2"/>
  </g>
  <g stroke="chocolate" stroke-width="1">
    <line x1="134" y1="446" x2="182" y2="413"/>
    <circle cx="134" cy="446" r="2"/>
    <circle cx="182" cy="413" r="2"/>
  </g>
  <g stroke="chocolate" stroke-width="1">
    <line x1="123" y1="453" x2="134" y2="444"/>
    <circle cx="123" cy="453" r="2"/>
    <circle cx="134" cy="444" r="2"/>
  </g>
  <g stroke="chocolate" stroke-width="1">
    <line x1="134" y1="444" x2="151" y2="92"/>
    <circle cx="134" cy="444" r="2"/>
    <circle cx="151" cy="92" r="2"/>
  </g>
  <g stroke="chocolate" stroke-width="1">
    <line x1="134" y1="446" x2="134" y2="444"/>
    <circle cx="134" cy="446" r="2"/>
    <circle cx="134" cy="444" r="2"/>
  </g>
  <g stroke="chocolate" stroke-width="1">
    <line x1="233" y1="343" x2="387" y2="332"/>
    <circle cx="233" cy="343" r="2"/>
    <circle cx="387" cy="332" r="2"/>
  </g>
  <g stroke="chocolate" stroke-width="1">
    <line x1="224" y1="344" x2="233" y2="343"/>
    <circle cx="224" cy="344" r="2"/>
    <circle cx="233" cy="343" r="2"/>
  </g>
  <g stroke="chocolate" stroke-width="1">
    <line x1="233" y1="343" x2="236" y2="285"/>
    <circle cx="233" cy="343" r="2"/>
    <circle cx="236" cy="285" r="2"/>
  </g>
  <g stroke="chocolate" stroke-width="1">
    <line x1="232" y1="362" x2="233" y2="343"/>
    <circle cx="232" cy="362" r="2"/>
    <circle cx="233" cy="343" r="2"/>
  </g>
  <g stroke="chocolate" stroke-width="1">
    <line x1="158" y1="79" x2="174" y2="50"/>
    <circle cx="158" cy="79" r="2"/>
    <circle cx="174" cy="50" r="2"/>
  </g>
  <g stroke="chocolate" stroke-width="1">
    <line x1="157" y1="80" x2="158" y2="79"/>
    <circle cx="157" cy="80" r="2"/>
    <circle cx="158" cy="79" r="2"/>
  </g>
  <g stroke="chocolate" stroke-width="1">
    <line x1="158" y1="79" x2="152" y2="79"/>
    <circle cx="158" cy="79" r="2"/>
    <circle cx="152" cy="79" r="2"/>
  </g>
  <g stroke="chocolate" stroke-width="1">
    <line x1="260" y1="83" x2="158" y2="79"/>
    <circle cx="260" cy="83" r="2"/>
    <circle cx="158" cy="79" r="2"/>
  </g>
  <g stroke="chocolate" stroke-width="1">
    <line x1="288" y1="137" x2="313" y2="117"/>
    <circle cx="288" cy="137" r="2"/>
    <circle cx="313" cy="117" r="2"/>
  </g>
  <g stroke="chocolate" stroke-width="1">
    <line x1="201" y1="205" x2="288" y2="137"/>
    <circle cx="201" cy="205" r="2"/>
    <circle cx="288" cy="137" r="2"/>
  </g>
  <g stroke="chocolate" stroke-width="1">
    <line x1="288" y1="137" x2="273" y2="107"/>
    <circle cx="288" cy="137" r="2"/>
    <circle cx="273" cy="107" r="2"/>
  </g>
  <g stroke="chocolate" stroke-width="1">
    <line x1="387" y1="332" x2="288" y2="137"/>
    <circle cx="387" cy="332" r="2"/>
    <circle cx="288" cy="137" r="2"/>
  </g>
  <g stroke="chocolate" stroke-width="1">
    <line x1="157" y1="80" x2="152" y2="79"/>
    <circle cx="157" cy="80" r="2"/>
    <circle cx="152" cy="79" r="2"/>
  </g>
  <g stroke="chocolate" stroke-width="1">
    <line x1="273" y1="107" x2="157" y2="80"/>
    <circle cx="273" cy="107" r="2"/>
    <circle cx="157" cy="80" r="2"/>
  </g>
  <g stroke="chocolate" stroke-width="1">
    <line x1="151" y1="92" x2="157" y2="80"/>
    <circle cx="151" cy="92" r="2"/>
    <circle cx="157" cy="80" r="2"/>
  </g>
  <g stroke="chocolate" stroke-width="1">
    <line x1="202" y1="345" x2="224" y2="344"/>
    <circle cx="202" cy="345" r="2"/>
    <circle cx="224" cy="344" r="2"/>
  </g>
  <g stroke="chocolate" stroke-width="1">
    <line x1="224" y1="344" x2="234" y2="336"/>
    <circle cx="224" cy="344" r="2"/>
    <circle cx="234" cy="336" r="2"/>
  </g>
  <g stroke="chocolate" stroke-width="1">
    <line x1="187" y1="372" x2="190" y2="367"/>
    <circle cx="187" cy="372" r="2"/>
    <circle cx="190" cy="367" r="2"/>
  </g>
  <g stroke="chocolate" stroke-width="1">
    <line x1="190" y1="367" x2="175" y2="348"/>
    <circle cx="190" cy="367" r="2"/>
    <circle cx="175" cy="348" r="2"/>
  </g>
  <g stroke="chocolate" stroke-width="1">
    <line x1="191" y1="369" x2="190" y2="367"/>
    <circle cx="191" cy="369" r="2"/>
    <circle cx="190" cy="367" r="2"/>
  </g>
  <g stroke="chocolate" stroke-width="1">
    <line x1="217" y1="320" x2="236" y2="285"/>
    <circle cx="217" cy="320" r="2"/>
    <circle cx="236" cy="285" r="2"/>
  </g>
  <g stroke="chocolate" stroke-width="1">
    <line x1="202" y1="345" x2="217" y2="320"/>
    <circle cx="202" cy="345" r="2"/>
    <circle cx="217" cy="320" r="2"/>
  </g>
  <g stroke="chocolate" stroke-width="1">
    <line x1="217" y1="320" x2="198" y2="302"/>
    <circle cx="217" cy="320" r="2"/>
    <circle cx="198" cy="302" r="2"/>
  </g>
  <g stroke="chocolate" stroke-width="1">
    <line x1="234" y1="336" x2="217" y2="320"/>
    <circle cx="234" cy="336" r="2"/>
    <circle cx="217" cy="320" r="2"/>
  </g>
  <g stroke="chocolate" stroke-width="1">
    <line x1="239" y1="430" x2="230" y2="418"/>
    <circle cx="239" cy="430" r="2"/>
    <circle cx="230" cy="418" r="2"/>
  </g>
  <g stroke="chocolate" stroke-width="1">
    <line x1="229" y1="434" x2="230" y2="418"/>
    <circle cx="229" cy="434" r="2"/>
    <circle cx="230" cy="418" r="2"/>
  </g>
  <g stroke="chocolate" stroke-width="1">
    <line x1="242" y1="373" x2="232" y2="369"/>
    <circle cx="242" cy="373" r="2"/>
    <circle cx="232" cy="369" r="2"/>
  </g>
  <g stroke="chocolate" stroke-width="1">
    <line x1="248" y1="376" x2="242" y2="373"/>
    <circle cx="248" cy="376" r="2"/>
    <circle cx="242" cy="373" r="2"/>
  </g>
  <g stroke="chocolate" stroke-width="1">
    <line x1="242" y1="373" x2="242" y2="360"/>
    <circle cx="242" cy="373" r="2"/>
    <circle cx="242" cy="360" r="2"/>
  </g>
  <g stroke="chocolate" stroke-width="1">
    <line x1="241" y1="385" x2="242" y2="373"/>
    <circle cx="241" cy="385" r="2"/>
    <circle cx="242" cy="373" r="2"/>
  </g>
  <g stroke="chocolate" stroke-width="1">
    <line x1="214" y1="370" x2="221" y2="364"/>
    <circle cx="214" cy="370" r="2"/>
    <circle cx="221" cy="364" r="2"/>
  </g>
  <g stroke="chocolate" stroke-width="1">
    <line x1="182" y1="417" x2="202" y2="399"/>
    <circle cx="182" cy="417" r="2"/>
    <circle cx="202" cy="399" r="2"/>
  </g>
  <g stroke="chocolate" stroke-width="1">
    <line x1="163" y1="434" x2="182" y2="417"/>
    <circle cx="163" cy="434" r="2"/>
    <circle cx="182" cy="417" r="2"/>
  </g>
  <g stroke="chocolate" stroke-width="1">
    <line x1="178" y1="450" x2="182" y2="417"/>
    <circle cx="178" cy="450" r="2"/>
    <circle cx="182" cy="417" r="2"/>
  </g>
  <g stroke="chocolate" stroke-width="1">
    <line x1="123" y1="453" x2="134" y2="446"/>
    <circle cx="123" cy="453" r="2"/>
    <circle cx="134" cy="446" r="2"/>
  </g>
  <g stroke="chocolate" stroke-width="1">
    <line x1="133" y1="465" x2="134" y2="446"/>
    <circle cx="133" cy="465" r="2"/>
    <circle cx="134" cy="446" r="2"/>
  </g>
  <g stroke="chocolate" stroke-width="1">
    <line x1="232" y1="369" x2="232" y2="362"/>
    <circle cx="232" cy="369" r="2"/>
    <circle cx="232" cy="362" r="2"/>
  </g>
  <g stroke="chocolate" stroke-width="1">
    <line x1="232" y1="362" x2="268" y2="356"/>
    <circle cx="232" cy="362" r="2"/>
    <circle cx="268" cy="356" r="2"/>
  </g>
  <g stroke="chocolate" stroke-width="1">
    <line x1="221" y1="364" x2="232" y2="362"/>
    <circle cx="221" cy="364" r="2"/>
    <circle cx="232" cy="362" r="2"/>
  </g>
  <g stroke="chocolate" stroke-width="1">
    <line x1="143" y1="250" x2="201" y2="205"/>
    <circle cx="143" cy="250" r="2"/>
    <circle cx="201" cy="205" r="2"/>
  </g>
  <g stroke="chocolate" stroke-width="1">
    <line x1="201" y1="205" x2="151" y2="92"/>
    <circle cx="201" cy="205" r="2"/>
    <circle cx="151" cy="92" r="2"/>
  </g>
  <g stroke="chocolate" stroke-width="1">
    <line x1="236" y1="285" x2="201" y2="205"/>
    <circle cx="236" cy="285" r="2"/>
    <circle cx="201" cy="205" r="2"/>
  </g>
  <g stroke="chocolate" stroke-width="1">
    <line x1="175" y1="348" x2="202" y2="345"/>
    <circle cx="175" cy="348" r="2"/>
    <circle cx="202" cy="345" r="2"/>
  </g>
  <g stroke="chocolate" stroke-width="1">
    <line x1="152" y1="79" x2="152" y2="79"/>
    <circle cx="152" cy="79" r="2"/>
    <circle cx="152" cy="79" r="2"/>
  </g>
  <g stroke="chocolate" stroke-width="1">
    <line x1="152" y1="79" x2="152" y2="78"/>
    <circle cx="152" cy="79" r="2"/>
    <circle cx="152" cy="78" r="2"/>
  </g>
  <g stroke="chocolate" stroke-width="1">
    <line x1="152" y1="79" x2="152" y2="79"/>
    <circle cx="152" cy="79" r="2"/>
    <circle cx="152" cy="79" r="2"/>
  </g>
  <g stroke="chocolate" stroke-width="1">
    <line x1="273" y1="107" x2="260" y2="83"/>
    <circle cx="273" cy="107" r="2"/>
    <circle cx="260" cy="83" r="2"/>
  </g>
  <g stroke="chocolate" stroke-width="1">
    <line x1="313" y1="117" x2="273" y2="107"/>
    <circle cx="313" cy="117" r="2"/>
    <circle cx="273" cy="107" r="2"/>
  </g>
  <g stroke="chocolate" stroke-width="1">
    <line x1="174" y1="50" x2="175" y2="49"/>
    <circle cx="174" cy="50" r="2"/>
    <circle cx="175" cy="49" r="2"/>
  </g>
  <g stroke="chocolate" stroke-width="1">
    <line x1="174" y1="50" x2="173" y2="49"/>
    <circle cx="174" cy="50" r="2"/>
    <circle cx="173" cy="49" r="2"/>
  </g>
  <g stroke="chocolate" stroke-width="1">
    <line x1="187" y1="61" x2="174" y2="50"/>
    <circle cx="187" cy="61" r="2"/>
    <circle cx="174" cy="50" r="2"/>
  </g>
  <g stroke="chocolate" stroke-width="1">
    <line x1="187" y1="372" x2="191" y2="369"/>
    <circle cx="187" cy="372" r="2"/>
    <circle cx="191" cy="369" r="2"/>
  </g>
  <g stroke="chocolate" stroke-width="1">
    <line x1="198" y1="302" x2="236" y2="285"/>
    <circle cx="198" cy="302" r="2"/>
    <circle cx="236" cy="285" r="2"/>
  </g>
  <g stroke="chocolate" stroke-width="1">
    <line x1="139" y1="328" x2="198" y2="302"/>
    <circle cx="139" cy="328" r="2"/>
    <circle cx="198" cy="302" r="2"/>
  </g>
  <g stroke="chocolate" stroke-width="1">
    <line x1="198" y1="302" x2="143" y2="250"/>
    <circle cx="198" cy="302" r="2"/>
    <circle cx="143" cy="250" r="2"/>
  </g>
  <g stroke="chocolate" stroke-width="1">
    <line x1="232" y1="369" x2="221" y2="364"/>
    <circle cx="232" cy="369" r="2"/>
    <circle cx="221" cy="364" r="2"/>
  </g>
  <g stroke="chocolate" stroke-width="1">
    <line x1="239" y1="430" x2="241" y2="385"/>
    <circle cx="239" cy="430" r="2"/>
    <circle cx="241" cy="385" r="2"/>
  </g>
  <g stroke="chocolate" stroke-width="1">
    <line x1="292" y1="414" x2="241" y2="385"/>
    <circle cx="292" cy="414" r="2"/>
    <circle cx="241" cy="385" r="2"/>
  </g>
  <g stroke="chocolate" stroke-width="1">
    <line x1="152" y1="78" x2="173" y2="49"/>
    <circle cx="152" cy="78" r="2"/>
    <circle cx="173" cy="49" r="2"/>
  </g>
  <g stroke="chocolate" stroke-width="1">
    <line x1="187" y1="61" x2="202" y2="45"/>
    <circle cx="187" cy="61" r="2"/>
    <circle cx="202" cy="45" r="2"/>
  </g>
  <g stroke="chocolate" stroke-width="1">
    <line x1="292" y1="414" x2="310" y2="375"/>
    <circle cx="292" cy="414" r="2"/>
    <circle cx="310" cy="375" r="2"/>
  </g>
  <g stroke="chocolate" stroke-width="1">
    <line x1="351" y1="395" x2="387" y2="332"/>
    <circle cx="351" cy="395" r="2"/>
    <circle cx="387" cy="332" r="2"/>
  </g>
  <g stroke="chocolate" stroke-width="1">
    <line x1="248" y1="376" x2="268" y2="356"/>
    <circle cx="248" cy="376" r="2"/>
    <circle cx="268" cy="356" r="2"/>
  </g>
  <g stroke="chocolate" stroke-width="1">
    <line x1="152" y1="79" x2="152" y2="78"/>
    <circle cx="152" cy="79" r="2"/>
    <circle cx="152" cy="78" r="2"/>
  </g>
  <g stroke="chocolate" stroke-width="1">
    <line x1="173" y1="49" x2="202" y2="45"/>
    <circle cx="173" cy="49" r="2"/>
    <circle cx="202" cy="45" r="2"/>
  </g>
  <g stroke="chocolate" stroke-width="1">
    <line x1="152" y1="79" x2="152" y2="79"/>
    <circle cx="152" cy="79" r="2"/>
    <circle cx="152" cy="79" r="2"/>
  </g>
  <g stroke="chocolate" stroke-width="1">
    <line x1="133" y1="465" x2="351" y2="395"/>
    <circle cx="133" cy="465" r="2"/>
    <circle cx="351" cy="395" r="2"/>
  </g>
  <g stroke="chocolate" stroke-width="1">
    <line x1="152" y1="79" x2="152" y2="79"/>
    <circle cx="152" cy="79" r="2"/>
    <circle cx="152" cy="79" r="2"/>
  </g>
  <g stroke="chocolate" stroke-width="1">
    <line x1="248" y1="376" x2="242" y2="360"/>
    <circle cx="248" cy="376" r="2"/>
    <circle cx="242" cy="360" r="2"/>
  </g>
  <g stroke="chocolate" stroke-width="1">
    <line x1="187" y1="61" x2="175" y2="49"/>
    <circle cx="187" cy="61" r="2"/>
    <circle cx="175" cy="49" r="2"/>
  </g>
  <g stroke="chocolate" stroke-width="1">
    <line x1="313" y1="117" x2="202" y2="45"/>
    <circle cx="313" cy="117" r="2"/>
    <circle cx="202" cy="45" r="2"/>
  </g>
  <g stroke="chocolate" stroke-width="1">
    <line x1="229" y1="434" x2="202" y2="399"/>
    <circle cx="229" cy="434" r="2"/>
    <circle cx="202" cy="399" r="2"/>
  </g>
  <g stroke="chocolate" stroke-width="1">
    <line x1="133" y1="465" x2="123" y2="453"/>
    <circle cx="133" cy="465" r="2"/>
    <circle cx="123" cy="453" r="2"/>
  </g>
  <g stroke="chocolate" stroke-width="1">
    <line x1="178" y1="450" x2="163" y2="434"/>
    <circle cx="178" cy="450" r="2"/>
    <circle cx="163" cy="434" r="2"/>
  </g>
  <g stroke="chocolate" stroke-width="1">
    <line x1="351" y1="395" x2="268" y2="356"/>
    <circle cx="351" cy="395" r="2"/>
    <circle cx="268" cy="356" r="2"/>
  </g>
  <g stroke="black" stroke-width="1">
    <line x1="5" y1="5" x2="505" y2="5"/>
    <line x1="5" y1="5" x2="5" y2="505"/>
    <line x1="505" y1="505" x2="5" y2="505"/>
    <line x1="505" y1="505" x2="505" y2="5"/>
    <line x1="105" y1="2" x2="105" y2="8"/>
    <line x1="2" y1="105" x2="8" y2="105"/>
    <line x1="105" y1="502" x2="105" y2="508"/>
    <line x1="502" y1="105" x2="508" y2="105"/>
    <line x1="205" y1="2" x2="205" y2="8"/>
    <line x1="2" y1="205" x2="8" y2="205"/>
    <line x1="205" y1="502" x2="205" y2="508"/>
    <line x1="502" y1="205" x2="508" y2="205"/>
    <line x1="305" y1="2" x2="305" y2="8"/>
    <line x1="2" y1="305" x2="8" y2="305"/>
    <line x1="305" y1="502" x2="305" y2="508"/>
    <line x1="502" y1="305" x2="508" y2="305"/>
    <line x1="405" y1="2" x2="405" y2="8"/>
    <line x1="2" y1="405" x2="8" y2="405"/>
    <line x1="405" y1="502" x2="405" y2="508"/>
    <line x1="502" y1="405" x2="508" y2="405"/>
  </g>
  <g stroke="gray" stroke-width="1" stroke-dasharray="5,5">
    <line x1="105" y1="5" x2="105" y2="505"/>
    <line x1="5" y1="105" x2="505" y2="105"/>
    <line x1="205" y1="5" x2="205" y2="505"/>
    <line x1="5" y1="205" x2="505" y2="205"/>
    <line x1="305" y1="5" x2="305" y2="505"/>
    <line x1="5" y1="305" x2="505" y2="305"/>
    <line x1="405" y1="5" x2="405" y2="505"/>
    <line x1="5" y1="405" x2="505" y2="405"/>
  </g>
</svg>
