<?xml version="1.0" standalone="no"?>
<!DOCTYPE svg PUBLIC "-//W3C//DTD SVG 1.1//EN" 
  "http://www.w3.org/Graphics/SVG/1.1/DTD/svg11.dtd">
<svg width="510" height="510" version="1.1" id="toplevel"
    xmlns="http://www.w3.org/2000/svg"
    xmlns:xlink="http://www.w3.org/1999/xlink">
  <polygon points="57,469 58,465 61,465 67,460 68,460 68,459 69,457 80,458 290,250 88,41 84,41 76,93 59,104 31,465"
           fill="bisque"/>
  <g stroke="chocolate" stroke-width="1">
    <line x1="79" y1="190" x2="73" y2="179"/>
    <circle cx="79" cy="190" r="2"/>
    <circle cx="73" cy="179" r="2"/>
  </g>
  <g stroke="chocolate" stroke-width="1">
    <line x1="79" y1="192" x2="79" y2="190"/>
    <circle cx="79" cy="192" r="2"/>
    <circle cx="79" cy="190" r="2"/>
  </g>
  <g stroke="chocolate" stroke-width="1">
    <line x1="79" y1="190" x2="80" y2="164"/>
    <circle cx="79" cy="190" r="2"/>
    <circle cx="80" cy="164" r="2"/>
  </g>
  <g stroke="chocolate" stroke-width="1">
    <line x1="78" y1="192" x2="79" y2="190"/>
    <circle cx="78" cy="192" r="2"/>
    <circle cx="79" cy="190" r="2"/>
  </g>
  <g stroke="chocolate" stroke-width="1">
    <line x1="100" y1="171" x2="80" y2="164"/>
    <circle cx="100" cy="171" r="2"/>
    <circle cx="80" cy="164" r="2"/>
  </g>
  <g stroke="chocolate" stroke-width="1">
    <line x1="122" y1="178" x2="100" y2="171"/>
    <circle cx="122" cy="178" r="2"/>
    <circle cx="100" cy="171" r="2"/>
  </g>
  <g stroke="chocolate" stroke-width="1">
    <line x1="100" y1="171" x2="103" y2="145"/>
    <circle cx="100" cy="171" r="2"/>
    <circle cx="103" cy="145" r="2"/>
  </g>
  <g stroke="chocolate" stroke-width="1">
    <line x1="99" y1="186" x2="100" y2="171"/>
    <circle cx="99" cy="186" r="2"/>
    <circle cx="100" cy="171" r="2"/>
  </g>
  <g stroke="chocolate" stroke-width="1">
    <line x1="75" y1="252" x2="77" y2="213"/>
    <circle cx="75" cy="252" r="2"/>
    <circle cx="77" cy="213" r="2"/>
  </g>
  <g stroke="chocolate" stroke-width="1">
    <line x1="63" y1="434" x2="75" y2="252"/>
    <circle cx="63" cy="434" r="2"/>
    <circle cx="75" cy="252" r="2"/>
  </g>
  <g stroke="chocolate" stroke-width="1">
    <line x1="75" y1="252" x2="73" y2="211"/>
    <circle cx="75" cy="252" r="2"/>
    <circle cx="73" cy="211" r="2"/>
  </g>
  <g stroke="chocolate" stroke-width="1">
    <line x1="77" y1="341" x2="75" y2="252"/>
    <circle cx="77" cy="341" r="2"/>
    <circle cx="75" cy="252" r="2"/>
  </g>
  <g stroke="chocolate" stroke-width="1">
    <line x1="78" y1="371" x2="93" y2="239"/>
    <circle cx="78" cy="371" r="2"/>
    <circle cx="93" cy="239" r="2"/>
  </g>
  <g stroke="chocolate" stroke-width="1">
    <line x1="68" y1="457" x2="78" y2="371"/>
    <circle cx="68" cy="457" r="2"/>
    <circle cx="78" cy="371" r="2"/>
  </g>
  <g stroke="chocolate" stroke-width="1">
    <line x1="78" y1="371" x2="77" y2="341"/>
    <circle cx="78" cy="371" r="2"/>
    <circle cx="77" cy="341" r="2"/>
  </g>
  <g stroke="chocolate" stroke-width="1">
    <line x1="80" y1="447" x2="78" y2="371"/>
    <circle cx="80" cy="447" r="2"/>
    <circle cx="78" cy="371" r="2"/>
  </g>
  <g stroke="chocolate" stroke-width="1">
    <line x1="73" y1="179" x2="72" y2="161"/>
    <circle cx="73" cy="179" r="2"/>
    <circle cx="72" cy="161" r="2"/>
  </g>
  <g stroke="chocolate" stroke-width="1">
    <line x1="73" y1="194" x2="73" y2="179"/>
    <circle cx="73" cy="194" r="2"/>
    <circle cx="73" cy="179" r="2"/>
  </g>
  <g stroke="chocolate" stroke-width="1">
    <line x1="73" y1="179" x2="61" y2="157"/>
    <circle cx="73" cy="179" r="2"/>
    <circle cx="61" cy="157" r="2"/>
  </g>
  <g stroke="chocolate" stroke-width="1">
    <line x1="80" y1="164" x2="72" y2="161"/>
    <circle cx="80" cy="164" r="2"/>
    <circle cx="72" cy="161" r="2"/>
  </g>
  <g stroke="chocolate" stroke-width="1">
    <line x1="80" y1="164" x2="81" y2="149"/>
    <circle cx="80" cy="164" r="2"/>
    <circle cx="81" cy="149" r="2"/>
  </g>
  <g stroke="chocolate" stroke-width="1">
    <line x1="77" y1="213" x2="73" y2="211"/>
    <circle cx="77" cy="213" r="2"/>
    <circle cx="73" cy="211" r="2"/>
  </g>
  <g stroke="chocolate" stroke-width="1">
    <line x1="94" y1="221" x2="77" y2="213"/>
    <circle cx="94" cy="221" r="2"/>
    <circle cx="77" cy="213" r="2"/>
  </g>
  <g stroke="chocolate" stroke-width="1">
    <line x1="77" y1="213" x2="78" y2="192"/>
    <circle cx="77" cy="213" r="2"/>
    <circle cx="78" cy="192" r="2"/>
  </g>
  <g stroke="chocolate" stroke-width="1">
    <line x1="73" y1="211" x2="73" y2="194"/>
    <circle cx="73" cy="211" r="2"/>
    <circle cx="73" cy="194" r="2"/>
  </g>
  <g stroke="chocolate" stroke-width="1">
    <line x1="73" y1="194" x2="78" y2="192"/>
    <circle cx="73" cy="194" r="2"/>
    <circle cx="78" cy="192" r="2"/>
  </g>
  <g stroke="chocolate" stroke-width="1">
    <line x1="51" y1="200" x2="73" y2="194"/>
    <circle cx="51" cy="200" r="2"/>
    <circle cx="73" cy="194" r="2"/>
  </g>
  <g stroke="chocolate" stroke-width="1">
    <line x1="99" y1="186" x2="122" y2="178"/>
    <circle cx="99" cy="186" r="2"/>
    <circle cx="122" cy="178" r="2"/>
  </g>
  <g stroke="chocolate" stroke-width="1">
    <line x1="79" y1="192" x2="99" y2="186"/>
    <circle cx="79" cy="192" r="2"/>
    <circle cx="99" cy="186" r="2"/>
  </g>
  <g stroke="chocolate" stroke-width="1">
    <line x1="95" y1="221" x2="99" y2="186"/>
    <circle cx="95" cy="221" r="2"/>
    <circle cx="99" cy="186" r="2"/>
  </g>
  <g stroke="chocolate" stroke-width="1">
    <line x1="84" y1="107" x2="85" y2="86"/>
    <circle cx="84" cy="107" r="2"/>
    <circle cx="85" cy="86" r="2"/>
  </g>
  <g stroke="chocolate" stroke-width="1">
    <line x1="83" y1="126" x2="84" y2="107"/>
    <circle cx="83" cy="126" r="2"/>
    <circle cx="84" cy="107" r="2"/>
  </g>
  <g stroke="chocolate" stroke-width="1">
    <line x1="84" y1="107" x2="114" y2="67"/>
    <circle cx="84" cy="107" r="2"/>
    <circle cx="114" cy="67" r="2"/>
  </g>
  <g stroke="chocolate" stroke-width="1">
    <line x1="75" y1="119" x2="84" y2="107"/>
    <circle cx="75" cy="119" r="2"/>
    <circle cx="84" cy="107" r="2"/>
  </g>
  <g stroke="chocolate" stroke-width="1">
    <line x1="81" y1="149" x2="83" y2="126"/>
    <circle cx="81" cy="149" r="2"/>
    <circle cx="83" cy="126" r="2"/>
  </g>
  <g stroke="chocolate" stroke-width="1">
    <line x1="83" y1="126" x2="75" y2="119"/>
    <circle cx="83" cy="126" r="2"/>
    <circle cx="75" cy="119" r="2"/>
  </g>
  <g stroke="chocolate" stroke-width="1">
    <line x1="103" y1="145" x2="83" y2="126"/>
    <circle cx="103" cy="145" r="2"/>
    <circle cx="83" cy="126" r="2"/>
  </g>
  <g stroke="chocolate" stroke-width="1">
    <line x1="59" y1="457" x2="63" y2="434"/>
    <circle cx="59" cy="457" r="2"/>
    <circle cx="63" cy="434" r="2"/>
  </g>
  <g stroke="chocolate" stroke-width="1">
    <line x1="59" y1="459" x2="59" y2="457"/>
    <circle cx="59" cy="459" r="2"/>
    <circle cx="59" cy="457" r="2"/>
  </g>
  <g stroke="chocolate" stroke-width="1">
    <line x1="59" y1="457" x2="32" y2="456"/>
    <circle cx="59" cy="457" r="2"/>
    <circle cx="32" cy="456" r="2"/>
  </g>
  <g stroke="chocolate" stroke-width="1">
    <line x1="61" y1="457" x2="59" y2="457"/>
    <circle cx="61" cy="457" r="2"/>
    <circle cx="59" cy="457" r="2"/>
  </g>
  <g stroke="chocolate" stroke-width="1">
    <line x1="61" y1="459" x2="59" y2="459"/>
    <circle cx="61" cy="459" r="2"/>
    <circle cx="59" cy="459" r="2"/>
  </g>
  <g stroke="chocolate" stroke-width="1">
    <line x1="67" y1="460" x2="61" y2="459"/>
    <circle cx="67" cy="460" r="2"/>
    <circle cx="61" cy="459" r="2"/>
  </g>
  <g stroke="chocolate" stroke-width="1">
    <line x1="61" y1="459" x2="61" y2="457"/>
    <circle cx="61" cy="459" r="2"/>
    <circle cx="61" cy="457" r="2"/>
  </g>
  <g stroke="chocolate" stroke-width="1">
    <line x1="61" y1="465" x2="61" y2="459"/>
    <circle cx="61" cy="465" r="2"/>
    <circle cx="61" cy="459" r="2"/>
  </g>
  <g stroke="chocolate" stroke-width="1">
    <line x1="68" y1="457" x2="61" y2="457"/>
    <circle cx="68" cy="457" r="2"/>
    <circle cx="61" cy="457" r="2"/>
  </g>
  <g stroke="chocolate" stroke-width="1">
    <line x1="69" y1="457" x2="68" y2="457"/>
    <circle cx="69" cy="457" r="2"/>
    <circle cx="68" cy="457" r="2"/>
  </g>
  <g stroke="chocolate" stroke-width="1">
    <line x1="68" y1="459" x2="68" y2="457"/>
    <circle cx="68" cy="459" r="2"/>
    <circle cx="68" cy="457" r="2"/>
  </g>
  <g stroke="chocolate" stroke-width="1">
    <line x1="77" y1="341" x2="93" y2="239"/>
    <circle cx="77" cy="341" r="2"/>
    <circle cx="93" cy="239" r="2"/>
  </g>
  <g stroke="chocolate" stroke-width="1">
    <line x1="63" y1="434" x2="77" y2="341"/>
    <circle cx="63" cy="434" r="2"/>
    <circle cx="77" cy="341" r="2"/>
  </g>
  <g stroke="chocolate" stroke-width="1">
    <line x1="72" y1="151" x2="81" y2="149"/>
    <circle cx="72" cy="151" r="2"/>
    <circle cx="81" cy="149" r="2"/>
  </g>
  <g stroke="chocolate" stroke-width="1">
    <line x1="59" y1="154" x2="72" y2="151"/>
    <circle cx="59" cy="154" r="2"/>
    <circle cx="72" cy="151" r="2"/>
  </g>
  <g stroke="chocolate" stroke-width="1">
    <line x1="72" y1="151" x2="71" y2="125"/>
    <circle cx="72" cy="151" r="2"/>
    <circle cx="71" cy="125" r="2"/>
  </g>
  <g stroke="chocolate" stroke-width="1">
    <line x1="72" y1="161" x2="72" y2="151"/>
    <circle cx="72" cy="161" r="2"/>
    <circle cx="72" cy="151" r="2"/>
  </g>
  <g stroke="chocolate" stroke-width="1">
    <line x1="61" y1="157" x2="59" y2="154"/>
    <circle cx="61" cy="157" r="2"/>
    <circle cx="59" cy="154" r="2"/>
  </g>
  <g stroke="chocolate" stroke-width="1">
    <line x1="61" y1="157" x2="55" y2="155"/>
    <circle cx="61" cy="157" r="2"/>
    <circle cx="55" cy="155" r="2"/>
  </g>
  <g stroke="chocolate" stroke-width="1">
    <line x1="72" y1="161" x2="61" y2="157"/>
    <circle cx="72" cy="161" r="2"/>
    <circle cx="61" cy="157" r="2"/>
  </g>
  <g stroke="chocolate" stroke-width="1">
    <line x1="73" y1="211" x2="51" y2="200"/>
    <circle cx="73" cy="211" r="2"/>
    <circle cx="51" cy="200" r="2"/>
  </g>
  <g stroke="chocolate" stroke-width="1">
    <line x1="181" y1="200" x2="122" y2="178"/>
    <circle cx="181" cy="200" r="2"/>
    <circle cx="122" cy="178" r="2"/>
  </g>
  <g stroke="chocolate" stroke-width="1">
    <line x1="122" y1="178" x2="198" y2="155"/>
    <circle cx="122" cy="178" r="2"/>
    <circle cx="198" cy="155" r="2"/>
  </g>
  <g stroke="chocolate" stroke-width="1">
    <line x1="78" y1="192" x2="79" y2="192"/>
    <circle cx="78" cy="192" r="2"/>
    <circle cx="79" cy="192" r="2"/>
  </g>
  <g stroke="chocolate" stroke-width="1">
    <line x1="55" y1="155" x2="59" y2="154"/>
    <circle cx="55" cy="155" r="2"/>
    <circle cx="59" cy="154" r="2"/>
  </g>
  <g stroke="chocolate" stroke-width="1">
    <line x1="59" y1="154" x2="56" y2="146"/>
    <circle cx="59" cy="154" r="2"/>
    <circle cx="56" cy="146" r="2"/>
  </g>
  <g stroke="chocolate" stroke-width="1">
    <line x1="94" y1="221" x2="95" y2="221"/>
    <circle cx="94" cy="221" r="2"/>
    <circle cx="95" cy="221" r="2"/>
  </g>
  <g stroke="chocolate" stroke-width="1">
    <line x1="95" y1="221" x2="79" y2="192"/>
    <circle cx="95" cy="221" r="2"/>
    <circle cx="79" cy="192" r="2"/>
  </g>
  <g stroke="chocolate" stroke-width="1">
    <line x1="95" y1="222" x2="95" y2="221"/>
    <circle cx="95" cy="222" r="2"/>
    <circle cx="95" cy="221" r="2"/>
  </g>
  <g stroke="chocolate" stroke-width="1">
    <line x1="85" y1="86" x2="86" y2="80"/>
    <circle cx="85" cy="86" r="2"/>
    <circle cx="86" cy="80" r="2"/>
  </g>
  <g stroke="chocolate" stroke-width="1">
    <line x1="85" y1="86" x2="114" y2="67"/>
    <circle cx="85" cy="86" r="2"/>
    <circle cx="114" cy="67" r="2"/>
  </g>
  <g stroke="chocolate" stroke-width="1">
    <line x1="83" y1="88" x2="85" y2="86"/>
    <circle cx="83" cy="88" r="2"/>
    <circle cx="85" cy="86" r="2"/>
  </g>
  <g stroke="chocolate" stroke-width="1">
    <line x1="86" y1="80" x2="88" y2="43"/>
    <circle cx="86" cy="80" r="2"/>
    <circle cx="88" cy="43" r="2"/>
  </g>
  <g stroke="chocolate" stroke-width="1">
    <line x1="86" y1="80" x2="96" y2="49"/>
    <circle cx="86" cy="80" r="2"/>
    <circle cx="96" cy="49" r="2"/>
  </g>
  <g stroke="chocolate" stroke-width="1">
    <line x1="83" y1="88" x2="86" y2="80"/>
    <circle cx="83" cy="88" r="2"/>
    <circle cx="86" cy="80" r="2"/>
  </g>
  <g stroke="chocolate" stroke-width="1">
    <line x1="73" y1="117" x2="72" y2="116"/>
    <circle cx="73" cy="117" r="2"/>
    <circle cx="72" cy="116" r="2"/>
  </g>
  <g stroke="chocolate" stroke-width="1">
    <line x1="75" y1="119" x2="73" y2="117"/>
    <circle cx="75" cy="119" r="2"/>
    <circle cx="73" cy="117" r="2"/>
  </g>
  <g stroke="chocolate" stroke-width="1">
    <line x1="73" y1="117" x2="83" y2="88"/>
    <circle cx="73" cy="117" r="2"/>
    <circle cx="83" cy="88" r="2"/>
  </g>
  <g stroke="chocolate" stroke-width="1">
    <line x1="71" y1="122" x2="73" y2="117"/>
    <circle cx="71" cy="122" r="2"/>
    <circle cx="73" cy="117" r="2"/>
  </g>
  <g stroke="chocolate" stroke-width="1">
    <line x1="80" y1="458" x2="80" y2="447"/>
    <circle cx="80" cy="458" r="2"/>
    <circle cx="80" cy="447" r="2"/>
  </g>
  <g stroke="chocolate" stroke-width="1">
    <line x1="80" y1="447" x2="290" y2="250"/>
    <circle cx="80" cy="447" r="2"/>
    <circle cx="290" cy="250" r="2"/>
  </g>
  <g stroke="chocolate" stroke-width="1">
    <line x1="69" y1="457" x2="80" y2="447"/>
    <circle cx="69" cy="457" r="2"/>
    <circle cx="80" cy="447" r="2"/>
  </g>
  <g stroke="chocolate" stroke-width="1">
    <line x1="59" y1="459" x2="32" y2="456"/>
    <circle cx="59" cy="459" r="2"/>
    <circle cx="32" cy="456" r="2"/>
  </g>
  <g stroke="chocolate" stroke-width="1">
    <line x1="58" y1="465" x2="59" y2="459"/>
    <circle cx="58" cy="465" r="2"/>
    <circle cx="59" cy="459" r="2"/>
  </g>
  <g stroke="chocolate" stroke-width="1">
    <line x1="71" y1="125" x2="75" y2="119"/>
    <circle cx="71" cy="125" r="2"/>
    <circle cx="75" cy="119" r="2"/>
  </g>
  <g stroke="chocolate" stroke-width="1">
    <line x1="76" y1="93" x2="83" y2="88"/>
    <circle cx="76" cy="93" r="2"/>
    <circle cx="83" cy="88" r="2"/>
  </g>
  <g stroke="chocolate" stroke-width="1">
    <line x1="59" y1="104" x2="76" y2="93"/>
    <circle cx="59" cy="104" r="2"/>
    <circle cx="76" cy="93" r="2"/>
  </g>
  <g stroke="chocolate" stroke-width="1">
    <line x1="76" y1="93" x2="84" y2="41"/>
    <circle cx="76" cy="93" r="2"/>
    <circle cx="84" cy="41" r="2"/>
  </g>
  <g stroke="chocolate" stroke-width="1">
    <line x1="72" y1="116" x2="76" y2="93"/>
    <circle cx="72" cy="116" r="2"/>
    <circle cx="76" cy="93" r="2"/>
  </g>
  <g stroke="chocolate" stroke-width="1">
    <line x1="61" y1="457" x2="63" y2="434"/>
    <circle cx="61" cy="457" r="2"/>
    <circle cx="63" cy="434" r="2"/>
  </g>
  <g stroke="chocolate" stroke-width="1">
    <line x1="93" y1="239" x2="94" y2="221"/>
    <circle cx="93" cy="239" r="2"/>
    <circle cx="94" cy="221" r="2"/>
  </g>
  <g stroke="chocolate" stroke-width="1">
    <line x1="93" y1="239" x2="95" y2="222"/>
    <circle cx="93" cy="239" r="2"/>
    <circle cx="95" cy="222" r="2"/>
  </g>
  <g stroke="chocolate" stroke-width="1">
    <line x1="88" y1="43" x2="88" y2="41"/>
    <circle cx="88" cy="43" r="2"/>
    <circle cx="88" cy="41" r="2"/>
  </g>
  <g stroke="chocolate" stroke-width="1">
    <line x1="88" y1="43" x2="84" y2="41"/>
    <circle cx="88" cy="43" r="2"/>
    <circle cx="84" cy="41" r="2"/>
  </g>
  <g stroke="chocolate" stroke-width="1">
    <line x1="91" y1="43" x2="88" y2="43"/>
    <circle cx="91" cy="43" r="2"/>
    <circle cx="88" cy="43" r="2"/>
  </g>
  <g stroke="chocolate" stroke-width="1">
    <line x1="81" y1="149" x2="103" y2="145"/>
    <circle cx="81" cy="149" r="2"/>
    <circle cx="103" cy="145" r="2"/>
  </g>
  <g stroke="chocolate" stroke-width="1">
    <line x1="95" y1="222" x2="94" y2="221"/>
    <circle cx="95" cy="222" r="2"/>
    <circle cx="94" cy="221" r="2"/>
  </g>
  <g stroke="chocolate" stroke-width="1">
    <line x1="67" y1="460" x2="68" y2="459"/>
    <circle cx="67" cy="460" r="2"/>
    <circle cx="68" cy="459" r="2"/>
  </g>
  <g stroke="chocolate" stroke-width="1">
    <line x1="61" y1="465" x2="67" y2="460"/>
    <circle cx="61" cy="465" r="2"/>
    <circle cx="67" cy="460" r="2"/>
  </g>
  <g stroke="chocolate" stroke-width="1">
    <line x1="68" y1="460" x2="67" y2="460"/>
    <circle cx="68" cy="460" r="2"/>
    <circle cx="67" cy="460" r="2"/>
  </g>
  <g stroke="chocolate" stroke-width="1">
    <line x1="68" y1="459" x2="69" y2="457"/>
    <circle cx="68" cy="459" r="2"/>
    <circle cx="69" cy="457" r="2"/>
  </g>
  <g stroke="chocolate" stroke-width="1">
    <line x1="80" y1="458" x2="69" y2="457"/>
    <circle cx="80" cy="458" r="2"/>
    <circle cx="69" cy="457" r="2"/>
  </g>
  <g stroke="chocolate" stroke-width="1">
    <line x1="56" y1="146" x2="71" y2="125"/>
    <circle cx="56" cy="146" r="2"/>
    <circle cx="71" cy="125" r="2"/>
  </g>
  <g stroke="chocolate" stroke-width="1">
    <line x1="71" y1="125" x2="71" y2="122"/>
    <circle cx="71" cy="125" r="2"/>
    <circle cx="71" cy="122" r="2"/>
  </g>
  <g stroke="chocolate" stroke-width="1">
    <line x1="57" y1="469" x2="58" y2="465"/>
    <circle cx="57" cy="469" r="2"/>
    <circle cx="58" cy="465" r="2"/>
  </g>
  <g stroke="chocolate" stroke-width="1">
    <line x1="58" y1="465" x2="61" y2="465"/>
    <circle cx="58" cy="465" r="2"/>
    <circle cx="61" cy="465" r="2"/>
  </g>
  <g stroke="chocolate" stroke-width="1">
    <line x1="31" y1="465" x2="58" y2="465"/>
    <circle cx="31" cy="465" r="2"/>
    <circle cx="58" cy="465" r="2"/>
  </g>
  <g stroke="chocolate" stroke-width="1">
    <line x1="72" y1="116" x2="59" y2="104"/>
    <circle cx="72" cy="116" r="2"/>
    <circle cx="59" cy="104" r="2"/>
  </g>
  <g stroke="chocolate" stroke-width="1">
    <line x1="71" y1="122" x2="72" y2="116"/>
    <circle cx="71" cy="122" r="2"/>
    <circle cx="72" cy="116" r="2"/>
  </g>
  <g stroke="chocolate" stroke-width="1">
    <line x1="68" y1="460" x2="68" y2="459"/>
    <circle cx="68" cy="460" r="2"/>
    <circle cx="68" cy="459" r="2"/>
  </g>
  <g stroke="chocolate" stroke-width="1">
    <line x1="84" y1="41" x2="88" y2="41"/>
    <circle cx="84" cy="41" r="2"/>
    <circle cx="88" cy="41" r="2"/>
  </g>
  <g stroke="chocolate" stroke-width="1">
    <line x1="93" y1="50" x2="96" y2="49"/>
    <circle cx="93" cy="50" r="2"/>
    <circle cx="96" cy="49" r="2"/>
  </g>
  <g stroke="chocolate" stroke-width="1">
    <line x1="290" y1="250" x2="88" y2="41"/>
    <circle cx="290" cy="250" r="2"/>
    <circle cx="88" cy="41" r="2"/>
  </g>
  <g stroke="chocolate" stroke-width="1">
    <line x1="93" y1="50" x2="91" y2="43"/>
    <circle cx="93" cy="50" r="2"/>
    <circle cx="91" cy="43" r="2"/>
  </g>
  <g stroke="chocolate" stroke-width="1">
    <line x1="57" y1="469" x2="31" y2="465"/>
    <circle cx="57" cy="469" r="2"/>
    <circle cx="31" cy="465" r="2"/>
  </g>
  <g stroke="chocolate" stroke-width="1">
    <line x1="31" y1="465" x2="59" y2="104"/>
    <circle cx="31" cy="465" r="2"/>
    <circle cx="59" cy="104" r="2"/>
  </g>
  <g stroke="chocolate" stroke-width="1">
    <line x1="181" y1="200" x2="198" y2="155"/>
    <circle cx="181" cy="200" r="2"/>
    <circle cx="198" cy="155" r="2"/>
  </g>
  <g stroke="chocolate" stroke-width="1">
    <line x1="80" y1="458" x2="290" y2="250"/>
    <circle cx="80" cy="458" r="2"/>
    <circle cx="290" cy="250" r="2"/>
  </g>
  <g stroke="black" stroke-width="1">
    <line x1="5" y1="5" x2="505" y2="5"/>
    <line x1="5" y1="5" x2="5" y2="505"/>
    <line x1="505" y1="505" x2="5" y2="505"/>
    <line x1="505" y1="505" x2="505" y2="5"/>
    <line x1="105" y1="2" x2="105" y2="8"/>
    <line x1="2" y1="105" x2="8" y2="105"/>
    <line x1="105" y1="502" x2="105" y2="508"/>
    <line x1="502" y1="105" x2="508" y2="105"/>
    <line x1="205" y1="2" x2="205" y2="8"/>
    <line x1="2" y1="205" x2="8" y2="205"/>
    <line x1="205" y1="502" x2="205" y2="508"/>
    <line x1="502" y1="205" x2="508" y2="205"/>
    <line x1="305" y1="2" x2="305" y2="8"/>
    <line x1="2" y1="305" x2="8" y2="305"/>
    <line x1="305" y1="502" x2="305" y2="508"/>
    <line x1="502" y1="305" x2="508" y2="305"/>
    <line x1="405" y1="2" x2="405" y2="8"/>
    <line x1="2" y1="405" x2="8" y2="405"/>
    <line x1="405" y1="502" x2="405" y2="508"/>
    <line x1="502" y1="405" x2="508" y2="405"/>
  </g>
  <g stroke="gray" stroke-width="1" stroke-dasharray="5,5">
    <line x1="105" y1="5" x2="105" y2="505"/>
    <line x1="5" y1="105" x2="505" y2="105"/>
    <line x1="205" y1="5" x2="205" y2="505"/>
    <line x1="5" y1="205" x2="505" y2="205"/>
    <line x1="305" y1="5" x2="305" y2="505"/>
    <line x1="5" y1="305" x2="505" y2="305"/>
    <line x1="405" y1="5" x2="405" y2="505"/>
    <line x1="5" y1="405" x2="505" y2="405"/>
  </g>
</svg>
