<?xml version="1.0" standalone="no"?>
<!DOCTYPE svg PUBLIC "-//W3C//DTD SVG 1.1//EN" 
  "http://www.w3.org/Graphics/SVG/1.1/DTD/svg11.dtd">
<svg width="510" height="510" version="1.1" id="toplevel"
    xmlns="http://www.w3.org/2000/svg"
    xmlns:xlink="http://www.w3.org/1999/xlink">
  <polygon points="505,505 505,480 30,5 5,5" fill="bisque"/>
  <g stroke="chocolate" stroke-width="1">
    <line x1="505" y1="480" x2="30" y2="5"/>
    <circle cx="505" cy="480" r="2"/>
    <circle cx="30" cy="5" r="2"/>
  </g>
  <g stroke="chocolate" stroke-width="1">
    <line x1="505" y1="505" x2="5" y2="5"/>
    <circle cx="505" cy="505" r="2"/>
    <circle cx="5" cy="5" r="2"/>
  </g>
  <g stroke="chocolate" stroke-width="1">
    <line x1="5" y1="5" x2="30" y2="5"/>
    <circle cx="5" cy="5" r="2"/>
    <circle cx="30" cy="5" r="2"/>
  </g>
  <g stroke="chocolate" stroke-width="1">
    <line x1="30" y1="30" x2="55" y2="30"/>
    <circle cx="30" cy="30" r="2"/>
    <circle cx="55" cy="30" r="2"/>
  </g>
  <g stroke="chocolate" stroke-width="1">
    <line x1="55" y1="55" x2="80" y2="55"/>
    <circle cx="55" cy="55" r="2"/>
    <circle cx="80" cy="55" r="2"/>
  </g>
  <g stroke="chocolate" stroke-width="1">
    <line x1="80" y1="80" x2="105" y2="80"/>
    <circle cx="80" cy="80" r="2"/>
    <circle cx="105" cy="80" r="2"/>
  </g>
  <g stroke="chocolate" stroke-width="1">
    <line x1="105" y1="105" x2="130" y2="105"/>
    <circle cx="105" cy="105" r="2"/>
    <circle cx="130" cy="105" r="2"/>
  </g>
  <g stroke="chocolate" stroke-width="1">
    <line x1="130" y1="130" x2="155" y2="130"/>
    <circle cx="130" cy="130" r="2"/>
    <circle cx="155" cy="130" r="2"/>
  </g>
  <g stroke="chocolate" stroke-width="1">
    <line x1="155" y1="155" x2="180" y2="155"/>
    <circle cx="155" cy="155" r="2"/>
    <circle cx="180" cy="155" r="2"/>
  </g>
  <g stroke="chocolate" stroke-width="1">
    <line x1="180" y1="180" x2="205" y2="180"/>
    <circle cx="180" cy="180" r="2"/>
    <circle cx="205" cy="180" r="2"/>
  </g>
  <g stroke="chocolate" stroke-width="1">
    <line x1="205" y1="205" x2="230" y2="205"/>
    <circle cx="205" cy="205" r="2"/>
    <circle cx="230" cy="205" r="2"/>
  </g>
  <g stroke="chocolate" stroke-width="1">
    <line x1="230" y1="230" x2="255" y2="230"/>
    <circle cx="230" cy="230" r="2"/>
    <circle cx="255" cy="230" r="2"/>
  </g>
  <g stroke="chocolate" stroke-width="1">
    <line x1="255" y1="255" x2="280" y2="255"/>
    <circle cx="255" cy="255" r="2"/>
    <circle cx="280" cy="255" r="2"/>
  </g>
  <g stroke="chocolate" stroke-width="1">
    <line x1="505" y1="505" x2="505" y2="480"/>
    <circle cx="505" cy="505" r="2"/>
    <circle cx="505" cy="480" r="2"/>
  </g>
  <g stroke="chocolate" stroke-width="1">
    <line x1="480" y1="480" x2="480" y2="455"/>
    <circle cx="480" cy="480" r="2"/>
    <circle cx="480" cy="455" r="2"/>
  </g>
  <g stroke="chocolate" stroke-width="1">
    <line x1="455" y1="455" x2="455" y2="430"/>
    <circle cx="455" cy="455" r="2"/>
    <circle cx="455" cy="430" r="2"/>
  </g>
  <g stroke="chocolate" stroke-width="1">
    <line x1="430" y1="430" x2="430" y2="405"/>
    <circle cx="430" cy="430" r="2"/>
    <circle cx="430" cy="405" r="2"/>
  </g>
  <g stroke="chocolate" stroke-width="1">
    <line x1="405" y1="405" x2="405" y2="380"/>
    <circle cx="405" cy="405" r="2"/>
    <circle cx="405" cy="380" r="2"/>
  </g>
  <g stroke="chocolate" stroke-width="1">
    <line x1="380" y1="380" x2="380" y2="355"/>
    <circle cx="380" cy="380" r="2"/>
    <circle cx="380" cy="355" r="2"/>
  </g>
  <g stroke="chocolate" stroke-width="1">
    <line x1="355" y1="355" x2="355" y2="330"/>
    <circle cx="355" cy="355" r="2"/>
    <circle cx="355" cy="330" r="2"/>
  </g>
  <g stroke="chocolate" stroke-width="1">
    <line x1="330" y1="330" x2="330" y2="305"/>
    <circle cx="330" cy="330" r="2"/>
    <circle cx="330" cy="305" r="2"/>
  </g>
  <g stroke="chocolate" stroke-width="1">
    <line x1="305" y1="305" x2="305" y2="280"/>
    <circle cx="305" cy="305" r="2"/>
    <circle cx="305" cy="280" r="2"/>
  </g>
  <g stroke="chocolate" stroke-width="1">
    <line x1="280" y1="280" x2="280" y2="255"/>
    <circle cx="280" cy="280" r="2"/>
    <circle cx="280" cy="255" r="2"/>
  </g>
  <g stroke="chocolate" stroke-width="1">
    <line x1="255" y1="255" x2="255" y2="230"/>
    <circle cx="255" cy="255" r="2"/>
    <circle cx="255" cy="230" r="2"/>
  </g>
  <g stroke="chocolate" stroke-width="1">
    <line x1="230" y1="230" x2="230" y2="205"/>
    <circle cx="230" cy="230" r="2"/>
    <circle cx="230" cy="205" r="2"/>
  </g>
  <g stroke="chocolate" stroke-width="1">
    <line x1="205" y1="205" x2="205" y2="180"/>
    <circle cx="205" cy="205" r="2"/>
    <circle cx="205" cy="180" r="2"/>
  </g>
  <g stroke="chocolate" stroke-width="1">
    <line x1="180" y1="180" x2="180" y2="155"/>
    <circle cx="180" cy="180" r="2"/>
    <circle cx="180" cy="155" r="2"/>
  </g>
  <g stroke="chocolate" stroke-width="1">
    <line x1="155" y1="155" x2="155" y2="130"/>
    <circle cx="155" cy="155" r="2"/>
    <circle cx="155" cy="130" r="2"/>
  </g>
  <g stroke="chocolate" stroke-width="1">
    <line x1="130" y1="130" x2="130" y2="105"/>
    <circle cx="130" cy="130" r="2"/>
    <circle cx="130" cy="105" r="2"/>
  </g>
  <g stroke="chocolate" stroke-width="1">
    <line x1="105" y1="105" x2="105" y2="80"/>
    <circle cx="105" cy="105" r="2"/>
    <circle cx="105" cy="80" r="2"/>
  </g>
  <g stroke="chocolate" stroke-width="1">
    <line x1="80" y1="80" x2="80" y2="55"/>
    <circle cx="80" cy="80" r="2"/>
    <circle cx="80" cy="55" r="2"/>
  </g>
  <g stroke="chocolate" stroke-width="1">
    <line x1="55" y1="55" x2="55" y2="30"/>
    <circle cx="55" cy="55" r="2"/>
    <circle cx="55" cy="30" r="2"/>
  </g>
  <g stroke="chocolate" stroke-width="1">
    <line x1="30" y1="30" x2="30" y2="5"/>
    <circle cx="30" cy="30" r="2"/>
    <circle cx="30" cy="5" r="2"/>
  </g>
  <g stroke="chocolate" stroke-width="1">
    <line x1="280" y1="280" x2="305" y2="280"/>
    <circle cx="280" cy="280" r="2"/>
    <circle cx="305" cy="280" r="2"/>
  </g>
  <g stroke="chocolate" stroke-width="1">
    <line x1="305" y1="305" x2="330" y2="305"/>
    <circle cx="305" cy="305" r="2"/>
    <circle cx="330" cy="305" r="2"/>
  </g>
  <g stroke="chocolate" stroke-width="1">
    <line x1="330" y1="330" x2="355" y2="330"/>
    <circle cx="330" cy="330" r="2"/>
    <circle cx="355" cy="330" r="2"/>
  </g>
  <g stroke="chocolate" stroke-width="1">
    <line x1="355" y1="355" x2="380" y2="355"/>
    <circle cx="355" cy="355" r="2"/>
    <circle cx="380" cy="355" r="2"/>
  </g>
  <g stroke="chocolate" stroke-width="1">
    <line x1="380" y1="380" x2="405" y2="380"/>
    <circle cx="380" cy="380" r="2"/>
    <circle cx="405" cy="380" r="2"/>
  </g>
  <g stroke="chocolate" stroke-width="1">
    <line x1="405" y1="405" x2="430" y2="405"/>
    <circle cx="405" cy="405" r="2"/>
    <circle cx="430" cy="405" r="2"/>
  </g>
  <g stroke="chocolate" stroke-width="1">
    <line x1="430" y1="430" x2="455" y2="430"/>
    <circle cx="430" cy="430" r="2"/>
    <circle cx="455" cy="430" r="2"/>
  </g>
  <g stroke="chocolate" stroke-width="1">
    <line x1="455" y1="455" x2="480" y2="455"/>
    <circle cx="455" cy="455" r="2"/>
    <circle cx="480" cy="455" r="2"/>
  </g>
  <g stroke="chocolate" stroke-width="1">
    <line x1="480" y1="480" x2="505" y2="480"/>
    <circle cx="480" cy="480" r="2"/>
    <circle cx="505" cy="480" r="2"/>
  </g>
  <g stroke="black" stroke-width="1">
    <line x1="5" y1="5" x2="505" y2="5"/>
    <line x1="5" y1="5" x2="5" y2="505"/>
    <line x1="505" y1="505" x2="5" y2="505"/>
    <line x1="505" y1="505" x2="505" y2="5"/>
    <line x1="105" y1="2" x2="105" y2="8"/>
    <line x1="2" y1="105" x2="8" y2="105"/>
    <line x1="105" y1="502" x2="105" y2="508"/>
    <line x1="502" y1="105" x2="508" y2="105"/>
    <line x1="205" y1="2" x2="205" y2="8"/>
    <line x1="2" y1="205" x2="8" y2="205"/>
    <line x1="205" y1="502" x2="205" y2="508"/>
    <line x1="502" y1="205" x2="508" y2="205"/>
    <line x1="305" y1="2" x2="305" y2="8"/>
    <line x1="2" y1="305" x2="8" y2="305"/>
    <line x1="305" y1="502" x2="305" y2="508"/>
    <line x1="502" y1="305" x2="508" y2="305"/>
    <line x1="405" y1="2" x2="405" y2="8"/>
    <line x1="2" y1="405" x2="8" y2="405"/>
    <line x1="405" y1="502" x2="405" y2="508"/>
    <line x1="502" y1="405" x2="508" y2="405"/>
  </g>
  <g stroke="gray" stroke-width="1" stroke-dasharray="5,5">
    <line x1="105" y1="5" x2="105" y2="505"/>
    <line x1="5" y1="105" x2="505" y2="105"/>
    <line x1="205" y1="5" x2="205" y2="505"/>
    <line x1="5" y1="205" x2="505" y2="205"/>
    <line x1="305" y1="5" x2="305" y2="505"/>
    <line x1="5" y1="305" x2="505" y2="305"/>
    <line x1="405" y1="5" x2="405" y2="505"/>
    <line x1="5" y1="405" x2="505" y2="405"/>
  </g>
</svg>
