<?xml version="1.0" standalone="no"?>
<!DOCTYPE svg PUBLIC "-//W3C//DTD SVG 1.1//EN" 
  "http://www.w3.org/Graphics/SVG/1.1/DTD/svg11.dtd">
<svg width="716" height="716" version="1.1" id="toplevel"
    xmlns="http://www.w3.org/2000/svg"
    xmlns:xlink="http://www.w3.org/1999/xlink">
  <polygon points="505,413 512,387 574,392 584,377 631,379 649,357 677,357 711,319 694,303 633,307 631,305 5,347"
           fill="bisque"/>
  <g stroke="chocolate" stroke-width="1">
    <line x1="543" y1="344" x2="548" y2="344"/>
    <circle cx="543" cy="344" r="2"/>
    <circle cx="548" cy="344" r="2"/>
  </g>
  <g stroke="chocolate" stroke-width="1">
    <line x1="524" y1="344" x2="543" y2="344"/>
    <circle cx="524" cy="344" r="2"/>
    <circle cx="543" cy="344" r="2"/>
  </g>
  <g stroke="chocolate" stroke-width="1">
    <line x1="543" y1="344" x2="543" y2="343"/>
    <circle cx="543" cy="344" r="2"/>
    <circle cx="543" cy="343" r="2"/>
  </g>
  <g stroke="chocolate" stroke-width="1">
    <line x1="540" y1="350" x2="543" y2="344"/>
    <circle cx="540" cy="350" r="2"/>
    <circle cx="543" cy="344" r="2"/>
  </g>
  <g stroke="chocolate" stroke-width="1">
    <line x1="559" y1="343" x2="559" y2="343"/>
    <circle cx="559" cy="343" r="2"/>
    <circle cx="559" cy="343" r="2"/>
  </g>
  <g stroke="chocolate" stroke-width="1">
    <line x1="562" y1="350" x2="559" y2="343"/>
    <circle cx="562" cy="350" r="2"/>
    <circle cx="559" cy="343" r="2"/>
  </g>
  <g stroke="chocolate" stroke-width="1">
    <line x1="559" y1="343" x2="574" y2="343"/>
    <circle cx="559" cy="343" r="2"/>
    <circle cx="574" cy="343" r="2"/>
  </g>
  <g stroke="chocolate" stroke-width="1">
    <line x1="553" y1="343" x2="559" y2="343"/>
    <circle cx="553" cy="343" r="2"/>
    <circle cx="559" cy="343" r="2"/>
  </g>
  <g stroke="chocolate" stroke-width="1">
    <line x1="508" y1="350" x2="505" y2="350"/>
    <circle cx="508" cy="350" r="2"/>
    <circle cx="505" cy="350" r="2"/>
  </g>
  <g stroke="chocolate" stroke-width="1">
    <line x1="510" y1="350" x2="508" y2="350"/>
    <circle cx="510" cy="350" r="2"/>
    <circle cx="508" cy="350" r="2"/>
  </g>
  <g stroke="chocolate" stroke-width="1">
    <line x1="508" y1="350" x2="508" y2="350"/>
    <circle cx="508" cy="350" r="2"/>
    <circle cx="508" cy="350" r="2"/>
  </g>
  <g stroke="chocolate" stroke-width="1">
    <line x1="508" y1="355" x2="508" y2="350"/>
    <circle cx="508" cy="355" r="2"/>
    <circle cx="508" cy="350" r="2"/>
  </g>
  <g stroke="chocolate" stroke-width="1">
    <line x1="511" y1="355" x2="508" y2="355"/>
    <circle cx="511" cy="355" r="2"/>
    <circle cx="508" cy="355" r="2"/>
  </g>
  <g stroke="chocolate" stroke-width="1">
    <line x1="514" y1="355" x2="511" y2="355"/>
    <circle cx="514" cy="355" r="2"/>
    <circle cx="511" cy="355" r="2"/>
  </g>
  <g stroke="chocolate" stroke-width="1">
    <line x1="511" y1="355" x2="510" y2="350"/>
    <circle cx="511" cy="355" r="2"/>
    <circle cx="510" cy="350" r="2"/>
  </g>
  <g stroke="chocolate" stroke-width="1">
    <line x1="511" y1="357" x2="511" y2="355"/>
    <circle cx="511" cy="357" r="2"/>
    <circle cx="511" cy="355" r="2"/>
  </g>
  <g stroke="chocolate" stroke-width="1">
    <line x1="505" y1="350" x2="505" y2="350"/>
    <circle cx="505" cy="350" r="2"/>
    <circle cx="505" cy="350" r="2"/>
  </g>
  <g stroke="chocolate" stroke-width="1">
    <line x1="505" y1="354" x2="505" y2="350"/>
    <circle cx="505" cy="354" r="2"/>
    <circle cx="505" cy="350" r="2"/>
  </g>
  <g stroke="chocolate" stroke-width="1">
    <line x1="505" y1="350" x2="5" y2="347"/>
    <circle cx="505" cy="350" r="2"/>
    <circle cx="5" cy="347" r="2"/>
  </g>
  <g stroke="chocolate" stroke-width="1">
    <line x1="520" y1="355" x2="514" y2="355"/>
    <circle cx="520" cy="355" r="2"/>
    <circle cx="514" cy="355" r="2"/>
  </g>
  <g stroke="chocolate" stroke-width="1">
    <line x1="524" y1="355" x2="520" y2="355"/>
    <circle cx="524" cy="355" r="2"/>
    <circle cx="520" cy="355" r="2"/>
  </g>
  <g stroke="chocolate" stroke-width="1">
    <line x1="520" y1="355" x2="521" y2="350"/>
    <circle cx="520" cy="355" r="2"/>
    <circle cx="521" cy="350" r="2"/>
  </g>
  <g stroke="chocolate" stroke-width="1">
    <line x1="520" y1="357" x2="520" y2="355"/>
    <circle cx="520" cy="357" r="2"/>
    <circle cx="520" cy="355" r="2"/>
  </g>
  <g stroke="chocolate" stroke-width="1">
    <line x1="515" y1="373" x2="505" y2="373"/>
    <circle cx="515" cy="373" r="2"/>
    <circle cx="505" cy="373" r="2"/>
  </g>
  <g stroke="chocolate" stroke-width="1">
    <line x1="529" y1="374" x2="515" y2="373"/>
    <circle cx="529" cy="374" r="2"/>
    <circle cx="515" cy="373" r="2"/>
  </g>
  <g stroke="chocolate" stroke-width="1">
    <line x1="515" y1="373" x2="520" y2="357"/>
    <circle cx="515" cy="373" r="2"/>
    <circle cx="520" cy="357" r="2"/>
  </g>
  <g stroke="chocolate" stroke-width="1">
    <line x1="515" y1="376" x2="515" y2="373"/>
    <circle cx="515" cy="376" r="2"/>
    <circle cx="515" cy="373" r="2"/>
  </g>
  <g stroke="chocolate" stroke-width="1">
    <line x1="528" y1="355" x2="524" y2="355"/>
    <circle cx="528" cy="355" r="2"/>
    <circle cx="524" cy="355" r="2"/>
  </g>
  <g stroke="chocolate" stroke-width="1">
    <line x1="524" y1="355" x2="523" y2="350"/>
    <circle cx="524" cy="355" r="2"/>
    <circle cx="523" cy="350" r="2"/>
  </g>
  <g stroke="chocolate" stroke-width="1">
    <line x1="525" y1="357" x2="524" y2="355"/>
    <circle cx="525" cy="357" r="2"/>
    <circle cx="524" cy="355" r="2"/>
  </g>
  <g stroke="chocolate" stroke-width="1">
    <line x1="538" y1="355" x2="528" y2="355"/>
    <circle cx="538" cy="355" r="2"/>
    <circle cx="528" cy="355" r="2"/>
  </g>
  <g stroke="chocolate" stroke-width="1">
    <line x1="528" y1="355" x2="526" y2="350"/>
    <circle cx="528" cy="355" r="2"/>
    <circle cx="526" cy="350" r="2"/>
  </g>
  <g stroke="chocolate" stroke-width="1">
    <line x1="528" y1="357" x2="528" y2="355"/>
    <circle cx="528" cy="357" r="2"/>
    <circle cx="528" cy="355" r="2"/>
  </g>
  <g stroke="chocolate" stroke-width="1">
    <line x1="540" y1="350" x2="540" y2="350"/>
    <circle cx="540" cy="350" r="2"/>
    <circle cx="540" cy="350" r="2"/>
  </g>
  <g stroke="chocolate" stroke-width="1">
    <line x1="538" y1="355" x2="540" y2="350"/>
    <circle cx="538" cy="355" r="2"/>
    <circle cx="540" cy="350" r="2"/>
  </g>
  <g stroke="chocolate" stroke-width="1">
    <line x1="540" y1="350" x2="526" y2="350"/>
    <circle cx="540" cy="350" r="2"/>
    <circle cx="526" cy="350" r="2"/>
  </g>
  <g stroke="chocolate" stroke-width="1">
    <line x1="545" y1="350" x2="540" y2="350"/>
    <circle cx="545" cy="350" r="2"/>
    <circle cx="540" cy="350" r="2"/>
  </g>
  <g stroke="chocolate" stroke-width="1">
    <line x1="524" y1="344" x2="524" y2="343"/>
    <circle cx="524" cy="344" r="2"/>
    <circle cx="524" cy="343" r="2"/>
  </g>
  <g stroke="chocolate" stroke-width="1">
    <line x1="526" y1="350" x2="524" y2="344"/>
    <circle cx="526" cy="350" r="2"/>
    <circle cx="524" cy="344" r="2"/>
  </g>
  <g stroke="chocolate" stroke-width="1">
    <line x1="523" y1="344" x2="524" y2="344"/>
    <circle cx="523" cy="344" r="2"/>
    <circle cx="524" cy="344" r="2"/>
  </g>
  <g stroke="chocolate" stroke-width="1">
    <line x1="545" y1="350" x2="540" y2="350"/>
    <circle cx="545" cy="350" r="2"/>
    <circle cx="540" cy="350" r="2"/>
  </g>
  <g stroke="chocolate" stroke-width="1">
    <line x1="556" y1="350" x2="545" y2="350"/>
    <circle cx="556" cy="350" r="2"/>
    <circle cx="545" cy="350" r="2"/>
  </g>
  <g stroke="chocolate" stroke-width="1">
    <line x1="545" y1="350" x2="548" y2="344"/>
    <circle cx="545" cy="350" r="2"/>
    <circle cx="548" cy="344" r="2"/>
  </g>
  <g stroke="chocolate" stroke-width="1">
    <line x1="545" y1="350" x2="545" y2="350"/>
    <circle cx="545" cy="350" r="2"/>
    <circle cx="545" cy="350" r="2"/>
  </g>
  <g stroke="chocolate" stroke-width="1">
    <line x1="529" y1="374" x2="525" y2="357"/>
    <circle cx="529" cy="374" r="2"/>
    <circle cx="525" cy="357" r="2"/>
  </g>
  <g stroke="chocolate" stroke-width="1">
    <line x1="530" y1="377" x2="529" y2="374"/>
    <circle cx="530" cy="377" r="2"/>
    <circle cx="529" cy="374" r="2"/>
  </g>
  <g stroke="chocolate" stroke-width="1">
    <line x1="531" y1="374" x2="529" y2="374"/>
    <circle cx="531" cy="374" r="2"/>
    <circle cx="529" cy="374" r="2"/>
  </g>
  <g stroke="chocolate" stroke-width="1">
    <line x1="505" y1="373" x2="5" y2="347"/>
    <circle cx="505" cy="373" r="2"/>
    <circle cx="5" cy="347" r="2"/>
  </g>
  <g stroke="chocolate" stroke-width="1">
    <line x1="505" y1="373" x2="505" y2="373"/>
    <circle cx="505" cy="373" r="2"/>
    <circle cx="505" cy="373" r="2"/>
  </g>
  <g stroke="chocolate" stroke-width="1">
    <line x1="505" y1="373" x2="505" y2="363"/>
    <circle cx="505" cy="373" r="2"/>
    <circle cx="505" cy="363" r="2"/>
  </g>
  <g stroke="chocolate" stroke-width="1">
    <line x1="505" y1="375" x2="505" y2="373"/>
    <circle cx="505" cy="375" r="2"/>
    <circle cx="505" cy="373" r="2"/>
  </g>
  <g stroke="chocolate" stroke-width="1">
    <line x1="548" y1="343" x2="550" y2="338"/>
    <circle cx="548" cy="343" r="2"/>
    <circle cx="550" cy="338" r="2"/>
  </g>
  <g stroke="chocolate" stroke-width="1">
    <line x1="548" y1="344" x2="548" y2="343"/>
    <circle cx="548" cy="344" r="2"/>
    <circle cx="548" cy="343" r="2"/>
  </g>
  <g stroke="chocolate" stroke-width="1">
    <line x1="548" y1="343" x2="552" y2="343"/>
    <circle cx="548" cy="343" r="2"/>
    <circle cx="552" cy="343" r="2"/>
  </g>
  <g stroke="chocolate" stroke-width="1">
    <line x1="543" y1="343" x2="548" y2="343"/>
    <circle cx="543" cy="343" r="2"/>
    <circle cx="548" cy="343" r="2"/>
  </g>
  <g stroke="chocolate" stroke-width="1">
    <line x1="540" y1="350" x2="526" y2="350"/>
    <circle cx="540" cy="350" r="2"/>
    <circle cx="526" cy="350" r="2"/>
  </g>
  <g stroke="chocolate" stroke-width="1">
    <line x1="562" y1="350" x2="562" y2="350"/>
    <circle cx="562" cy="350" r="2"/>
    <circle cx="562" cy="350" r="2"/>
  </g>
  <g stroke="chocolate" stroke-width="1">
    <line x1="562" y1="350" x2="556" y2="350"/>
    <circle cx="562" cy="350" r="2"/>
    <circle cx="556" cy="350" r="2"/>
  </g>
  <g stroke="chocolate" stroke-width="1">
    <line x1="570" y1="350" x2="562" y2="350"/>
    <circle cx="570" cy="350" r="2"/>
    <circle cx="562" cy="350" r="2"/>
  </g>
  <g stroke="chocolate" stroke-width="1">
    <line x1="548" y1="344" x2="553" y2="343"/>
    <circle cx="548" cy="344" r="2"/>
    <circle cx="553" cy="343" r="2"/>
  </g>
  <g stroke="chocolate" stroke-width="1">
    <line x1="553" y1="343" x2="552" y2="343"/>
    <circle cx="553" cy="343" r="2"/>
    <circle cx="552" cy="343" r="2"/>
  </g>
  <g stroke="chocolate" stroke-width="1">
    <line x1="556" y1="350" x2="553" y2="343"/>
    <circle cx="556" cy="350" r="2"/>
    <circle cx="553" cy="343" r="2"/>
  </g>
  <g stroke="chocolate" stroke-width="1">
    <line x1="508" y1="350" x2="509" y2="344"/>
    <circle cx="508" cy="350" r="2"/>
    <circle cx="509" cy="344" r="2"/>
  </g>
  <g stroke="chocolate" stroke-width="1">
    <line x1="508" y1="350" x2="505" y2="350"/>
    <circle cx="508" cy="350" r="2"/>
    <circle cx="505" cy="350" r="2"/>
  </g>
  <g stroke="chocolate" stroke-width="1">
    <line x1="510" y1="350" x2="508" y2="350"/>
    <circle cx="510" cy="350" r="2"/>
    <circle cx="508" cy="350" r="2"/>
  </g>
  <g stroke="chocolate" stroke-width="1">
    <line x1="505" y1="354" x2="5" y2="347"/>
    <circle cx="505" cy="354" r="2"/>
    <circle cx="5" cy="347" r="2"/>
  </g>
  <g stroke="chocolate" stroke-width="1">
    <line x1="508" y1="355" x2="505" y2="354"/>
    <circle cx="508" cy="355" r="2"/>
    <circle cx="505" cy="354" r="2"/>
  </g>
  <g stroke="chocolate" stroke-width="1">
    <line x1="505" y1="356" x2="505" y2="354"/>
    <circle cx="505" cy="356" r="2"/>
    <circle cx="505" cy="354" r="2"/>
  </g>
  <g stroke="chocolate" stroke-width="1">
    <line x1="507" y1="356" x2="508" y2="355"/>
    <circle cx="507" cy="356" r="2"/>
    <circle cx="508" cy="355" r="2"/>
  </g>
  <g stroke="chocolate" stroke-width="1">
    <line x1="507" y1="363" x2="507" y2="356"/>
    <circle cx="507" cy="363" r="2"/>
    <circle cx="507" cy="356" r="2"/>
  </g>
  <g stroke="chocolate" stroke-width="1">
    <line x1="507" y1="356" x2="505" y2="356"/>
    <circle cx="507" cy="356" r="2"/>
    <circle cx="505" cy="356" r="2"/>
  </g>
  <g stroke="chocolate" stroke-width="1">
    <line x1="511" y1="357" x2="507" y2="356"/>
    <circle cx="511" cy="357" r="2"/>
    <circle cx="507" cy="356" r="2"/>
  </g>
  <g stroke="chocolate" stroke-width="1">
    <line x1="509" y1="344" x2="509" y2="343"/>
    <circle cx="509" cy="344" r="2"/>
    <circle cx="509" cy="343" r="2"/>
  </g>
  <g stroke="chocolate" stroke-width="1">
    <line x1="509" y1="344" x2="509" y2="344"/>
    <circle cx="509" cy="344" r="2"/>
    <circle cx="509" cy="344" r="2"/>
  </g>
  <g stroke="chocolate" stroke-width="1">
    <line x1="5" y1="347" x2="509" y2="344"/>
    <circle cx="5" cy="347" r="2"/>
    <circle cx="509" cy="344" r="2"/>
  </g>
  <g stroke="chocolate" stroke-width="1">
    <line x1="515" y1="350" x2="510" y2="350"/>
    <circle cx="515" cy="350" r="2"/>
    <circle cx="510" cy="350" r="2"/>
  </g>
  <g stroke="chocolate" stroke-width="1">
    <line x1="521" y1="350" x2="515" y2="350"/>
    <circle cx="521" cy="350" r="2"/>
    <circle cx="515" cy="350" r="2"/>
  </g>
  <g stroke="chocolate" stroke-width="1">
    <line x1="515" y1="350" x2="516" y2="344"/>
    <circle cx="515" cy="350" r="2"/>
    <circle cx="516" cy="344" r="2"/>
  </g>
  <g stroke="chocolate" stroke-width="1">
    <line x1="515" y1="350" x2="515" y2="350"/>
    <circle cx="515" cy="350" r="2"/>
    <circle cx="515" cy="350" r="2"/>
  </g>
  <g stroke="chocolate" stroke-width="1">
    <line x1="514" y1="355" x2="515" y2="350"/>
    <circle cx="514" cy="355" r="2"/>
    <circle cx="515" cy="350" r="2"/>
  </g>
  <g stroke="chocolate" stroke-width="1">
    <line x1="514" y1="357" x2="514" y2="355"/>
    <circle cx="514" cy="357" r="2"/>
    <circle cx="514" cy="355" r="2"/>
  </g>
  <g stroke="chocolate" stroke-width="1">
    <line x1="510" y1="350" x2="510" y2="350"/>
    <circle cx="510" cy="350" r="2"/>
    <circle cx="510" cy="350" r="2"/>
  </g>
  <g stroke="chocolate" stroke-width="1">
    <line x1="515" y1="350" x2="510" y2="350"/>
    <circle cx="515" cy="350" r="2"/>
    <circle cx="510" cy="350" r="2"/>
  </g>
  <g stroke="chocolate" stroke-width="1">
    <line x1="521" y1="350" x2="521" y2="350"/>
    <circle cx="521" cy="350" r="2"/>
    <circle cx="521" cy="350" r="2"/>
  </g>
  <g stroke="chocolate" stroke-width="1">
    <line x1="521" y1="350" x2="515" y2="350"/>
    <circle cx="521" cy="350" r="2"/>
    <circle cx="515" cy="350" r="2"/>
  </g>
  <g stroke="chocolate" stroke-width="1">
    <line x1="523" y1="350" x2="521" y2="350"/>
    <circle cx="523" cy="350" r="2"/>
    <circle cx="521" cy="350" r="2"/>
  </g>
  <g stroke="chocolate" stroke-width="1">
    <line x1="523" y1="350" x2="521" y2="350"/>
    <circle cx="523" cy="350" r="2"/>
    <circle cx="521" cy="350" r="2"/>
  </g>
  <g stroke="chocolate" stroke-width="1">
    <line x1="521" y1="350" x2="522" y2="347"/>
    <circle cx="521" cy="350" r="2"/>
    <circle cx="522" cy="347" r="2"/>
  </g>
  <g stroke="chocolate" stroke-width="1">
    <line x1="515" y1="376" x2="505" y2="375"/>
    <circle cx="515" cy="376" r="2"/>
    <circle cx="505" cy="375" r="2"/>
  </g>
  <g stroke="chocolate" stroke-width="1">
    <line x1="530" y1="377" x2="515" y2="376"/>
    <circle cx="530" cy="377" r="2"/>
    <circle cx="515" cy="376" r="2"/>
  </g>
  <g stroke="chocolate" stroke-width="1">
    <line x1="514" y1="376" x2="515" y2="376"/>
    <circle cx="514" cy="376" r="2"/>
    <circle cx="515" cy="376" r="2"/>
  </g>
  <g stroke="chocolate" stroke-width="1">
    <line x1="525" y1="357" x2="520" y2="357"/>
    <circle cx="525" cy="357" r="2"/>
    <circle cx="520" cy="357" r="2"/>
  </g>
  <g stroke="chocolate" stroke-width="1">
    <line x1="528" y1="357" x2="525" y2="357"/>
    <circle cx="528" cy="357" r="2"/>
    <circle cx="525" cy="357" r="2"/>
  </g>
  <g stroke="chocolate" stroke-width="1">
    <line x1="524" y1="343" x2="543" y2="343"/>
    <circle cx="524" cy="343" r="2"/>
    <circle cx="543" cy="343" r="2"/>
  </g>
  <g stroke="chocolate" stroke-width="1">
    <line x1="523" y1="343" x2="524" y2="343"/>
    <circle cx="523" cy="343" r="2"/>
    <circle cx="524" cy="343" r="2"/>
  </g>
  <g stroke="chocolate" stroke-width="1">
    <line x1="524" y1="343" x2="524" y2="341"/>
    <circle cx="524" cy="343" r="2"/>
    <circle cx="524" cy="341" r="2"/>
  </g>
  <g stroke="chocolate" stroke-width="1">
    <line x1="526" y1="350" x2="526" y2="350"/>
    <circle cx="526" cy="350" r="2"/>
    <circle cx="526" cy="350" r="2"/>
  </g>
  <g stroke="chocolate" stroke-width="1">
    <line x1="526" y1="350" x2="523" y2="350"/>
    <circle cx="526" cy="350" r="2"/>
    <circle cx="523" cy="350" r="2"/>
  </g>
  <g stroke="chocolate" stroke-width="1">
    <line x1="559" y1="357" x2="558" y2="355"/>
    <circle cx="559" cy="357" r="2"/>
    <circle cx="558" cy="355" r="2"/>
  </g>
  <g stroke="chocolate" stroke-width="1">
    <line x1="567" y1="376" x2="559" y2="357"/>
    <circle cx="567" cy="376" r="2"/>
    <circle cx="559" cy="357" r="2"/>
  </g>
  <g stroke="chocolate" stroke-width="1">
    <line x1="559" y1="357" x2="542" y2="357"/>
    <circle cx="559" cy="357" r="2"/>
    <circle cx="542" cy="357" r="2"/>
  </g>
  <g stroke="chocolate" stroke-width="1">
    <line x1="566" y1="358" x2="559" y2="357"/>
    <circle cx="566" cy="358" r="2"/>
    <circle cx="559" cy="357" r="2"/>
  </g>
  <g stroke="chocolate" stroke-width="1">
    <line x1="574" y1="343" x2="587" y2="343"/>
    <circle cx="574" cy="343" r="2"/>
    <circle cx="587" cy="343" r="2"/>
  </g>
  <g stroke="chocolate" stroke-width="1">
    <line x1="559" y1="343" x2="574" y2="343"/>
    <circle cx="559" cy="343" r="2"/>
    <circle cx="574" cy="343" r="2"/>
  </g>
  <g stroke="chocolate" stroke-width="1">
    <line x1="574" y1="343" x2="580" y2="331"/>
    <circle cx="574" cy="343" r="2"/>
    <circle cx="580" cy="331" r="2"/>
  </g>
  <g stroke="chocolate" stroke-width="1">
    <line x1="574" y1="343" x2="574" y2="343"/>
    <circle cx="574" cy="343" r="2"/>
    <circle cx="574" cy="343" r="2"/>
  </g>
  <g stroke="chocolate" stroke-width="1">
    <line x1="521" y1="344" x2="523" y2="344"/>
    <circle cx="521" cy="344" r="2"/>
    <circle cx="523" cy="344" r="2"/>
  </g>
  <g stroke="chocolate" stroke-width="1">
    <line x1="516" y1="344" x2="521" y2="344"/>
    <circle cx="516" cy="344" r="2"/>
    <circle cx="521" cy="344" r="2"/>
  </g>
  <g stroke="chocolate" stroke-width="1">
    <line x1="521" y1="344" x2="521" y2="343"/>
    <circle cx="521" cy="344" r="2"/>
    <circle cx="521" cy="343" r="2"/>
  </g>
  <g stroke="chocolate" stroke-width="1">
    <line x1="522" y1="347" x2="521" y2="344"/>
    <circle cx="522" cy="347" r="2"/>
    <circle cx="521" cy="344" r="2"/>
  </g>
  <g stroke="chocolate" stroke-width="1">
    <line x1="516" y1="343" x2="521" y2="343"/>
    <circle cx="516" cy="343" r="2"/>
    <circle cx="521" cy="343" r="2"/>
  </g>
  <g stroke="chocolate" stroke-width="1">
    <line x1="509" y1="343" x2="516" y2="343"/>
    <circle cx="509" cy="343" r="2"/>
    <circle cx="516" cy="343" r="2"/>
  </g>
  <g stroke="chocolate" stroke-width="1">
    <line x1="516" y1="343" x2="517" y2="341"/>
    <circle cx="516" cy="343" r="2"/>
    <circle cx="517" cy="341" r="2"/>
  </g>
  <g stroke="chocolate" stroke-width="1">
    <line x1="516" y1="344" x2="516" y2="343"/>
    <circle cx="516" cy="344" r="2"/>
    <circle cx="516" cy="343" r="2"/>
  </g>
  <g stroke="chocolate" stroke-width="1">
    <line x1="537" y1="357" x2="528" y2="357"/>
    <circle cx="537" cy="357" r="2"/>
    <circle cx="528" cy="357" r="2"/>
  </g>
  <g stroke="chocolate" stroke-width="1">
    <line x1="542" y1="357" x2="537" y2="357"/>
    <circle cx="542" cy="357" r="2"/>
    <circle cx="537" cy="357" r="2"/>
  </g>
  <g stroke="chocolate" stroke-width="1">
    <line x1="537" y1="357" x2="538" y2="355"/>
    <circle cx="537" cy="357" r="2"/>
    <circle cx="538" cy="355" r="2"/>
  </g>
  <g stroke="chocolate" stroke-width="1">
    <line x1="532" y1="370" x2="537" y2="357"/>
    <circle cx="532" cy="370" r="2"/>
    <circle cx="537" cy="357" r="2"/>
  </g>
  <g stroke="chocolate" stroke-width="1">
    <line x1="517" y1="339" x2="518" y2="334"/>
    <circle cx="517" cy="339" r="2"/>
    <circle cx="518" cy="334" r="2"/>
  </g>
  <g stroke="chocolate" stroke-width="1">
    <line x1="517" y1="341" x2="517" y2="339"/>
    <circle cx="517" cy="341" r="2"/>
    <circle cx="517" cy="339" r="2"/>
  </g>
  <g stroke="chocolate" stroke-width="1">
    <line x1="517" y1="339" x2="520" y2="339"/>
    <circle cx="517" cy="339" r="2"/>
    <circle cx="520" cy="339" r="2"/>
  </g>
  <g stroke="chocolate" stroke-width="1">
    <line x1="5" y1="347" x2="517" y2="339"/>
    <circle cx="5" cy="347" r="2"/>
    <circle cx="517" cy="339" r="2"/>
  </g>
  <g stroke="chocolate" stroke-width="1">
    <line x1="505" y1="373" x2="507" y2="363"/>
    <circle cx="505" cy="373" r="2"/>
    <circle cx="507" cy="363" r="2"/>
  </g>
  <g stroke="chocolate" stroke-width="1">
    <line x1="505" y1="375" x2="505" y2="373"/>
    <circle cx="505" cy="375" r="2"/>
    <circle cx="505" cy="373" r="2"/>
  </g>
  <g stroke="chocolate" stroke-width="1">
    <line x1="505" y1="375" x2="505" y2="375"/>
    <circle cx="505" cy="375" r="2"/>
    <circle cx="505" cy="375" r="2"/>
  </g>
  <g stroke="chocolate" stroke-width="1">
    <line x1="505" y1="375" x2="5" y2="347"/>
    <circle cx="505" cy="375" r="2"/>
    <circle cx="5" cy="347" r="2"/>
  </g>
  <g stroke="chocolate" stroke-width="1">
    <line x1="505" y1="375" x2="505" y2="375"/>
    <circle cx="505" cy="375" r="2"/>
    <circle cx="505" cy="375" r="2"/>
  </g>
  <g stroke="chocolate" stroke-width="1">
    <line x1="552" y1="343" x2="559" y2="343"/>
    <circle cx="552" cy="343" r="2"/>
    <circle cx="559" cy="343" r="2"/>
  </g>
  <g stroke="chocolate" stroke-width="1">
    <line x1="559" y1="343" x2="553" y2="332"/>
    <circle cx="559" cy="343" r="2"/>
    <circle cx="553" cy="332" r="2"/>
  </g>
  <g stroke="chocolate" stroke-width="1">
    <line x1="543" y1="343" x2="545" y2="338"/>
    <circle cx="543" cy="343" r="2"/>
    <circle cx="545" cy="338" r="2"/>
  </g>
  <g stroke="chocolate" stroke-width="1">
    <line x1="556" y1="350" x2="556" y2="350"/>
    <circle cx="556" cy="350" r="2"/>
    <circle cx="556" cy="350" r="2"/>
  </g>
  <g stroke="chocolate" stroke-width="1">
    <line x1="565" y1="355" x2="562" y2="350"/>
    <circle cx="565" cy="355" r="2"/>
    <circle cx="562" cy="350" r="2"/>
  </g>
  <g stroke="chocolate" stroke-width="1">
    <line x1="566" y1="358" x2="565" y2="355"/>
    <circle cx="566" cy="358" r="2"/>
    <circle cx="565" cy="355" r="2"/>
  </g>
  <g stroke="chocolate" stroke-width="1">
    <line x1="565" y1="355" x2="558" y2="355"/>
    <circle cx="565" cy="355" r="2"/>
    <circle cx="558" cy="355" r="2"/>
  </g>
  <g stroke="chocolate" stroke-width="1">
    <line x1="567" y1="355" x2="565" y2="355"/>
    <circle cx="567" cy="355" r="2"/>
    <circle cx="565" cy="355" r="2"/>
  </g>
  <g stroke="chocolate" stroke-width="1">
    <line x1="505" y1="350" x2="5" y2="347"/>
    <circle cx="505" cy="350" r="2"/>
    <circle cx="5" cy="347" r="2"/>
  </g>
  <g stroke="chocolate" stroke-width="1">
    <line x1="505" y1="350" x2="505" y2="347"/>
    <circle cx="505" cy="350" r="2"/>
    <circle cx="505" cy="347" r="2"/>
  </g>
  <g stroke="chocolate" stroke-width="1">
    <line x1="512" y1="363" x2="511" y2="357"/>
    <circle cx="512" cy="363" r="2"/>
    <circle cx="511" cy="357" r="2"/>
  </g>
  <g stroke="chocolate" stroke-width="1">
    <line x1="514" y1="357" x2="511" y2="357"/>
    <circle cx="514" cy="357" r="2"/>
    <circle cx="511" cy="357" r="2"/>
  </g>
  <g stroke="chocolate" stroke-width="1">
    <line x1="509" y1="344" x2="509" y2="343"/>
    <circle cx="509" cy="344" r="2"/>
    <circle cx="509" cy="343" r="2"/>
  </g>
  <g stroke="chocolate" stroke-width="1">
    <line x1="510" y1="350" x2="509" y2="344"/>
    <circle cx="510" cy="350" r="2"/>
    <circle cx="509" cy="344" r="2"/>
  </g>
  <g stroke="chocolate" stroke-width="1">
    <line x1="509" y1="344" x2="516" y2="344"/>
    <circle cx="509" cy="344" r="2"/>
    <circle cx="516" cy="344" r="2"/>
  </g>
  <g stroke="chocolate" stroke-width="1">
    <line x1="526" y1="350" x2="523" y2="350"/>
    <circle cx="526" cy="350" r="2"/>
    <circle cx="523" cy="350" r="2"/>
  </g>
  <g stroke="chocolate" stroke-width="1">
    <line x1="523" y1="350" x2="522" y2="347"/>
    <circle cx="523" cy="350" r="2"/>
    <circle cx="522" cy="347" r="2"/>
  </g>
  <g stroke="chocolate" stroke-width="1">
    <line x1="523" y1="350" x2="523" y2="350"/>
    <circle cx="523" cy="350" r="2"/>
    <circle cx="523" cy="350" r="2"/>
  </g>
  <g stroke="chocolate" stroke-width="1">
    <line x1="530" y1="377" x2="530" y2="377"/>
    <circle cx="530" cy="377" r="2"/>
    <circle cx="530" cy="377" r="2"/>
  </g>
  <g stroke="chocolate" stroke-width="1">
    <line x1="530" y1="377" x2="530" y2="377"/>
    <circle cx="530" cy="377" r="2"/>
    <circle cx="530" cy="377" r="2"/>
  </g>
  <g stroke="chocolate" stroke-width="1">
    <line x1="523" y1="344" x2="523" y2="343"/>
    <circle cx="523" cy="344" r="2"/>
    <circle cx="523" cy="343" r="2"/>
  </g>
  <g stroke="chocolate" stroke-width="1">
    <line x1="522" y1="347" x2="523" y2="344"/>
    <circle cx="522" cy="347" r="2"/>
    <circle cx="523" cy="344" r="2"/>
  </g>
  <g stroke="chocolate" stroke-width="1">
    <line x1="520" y1="357" x2="514" y2="357"/>
    <circle cx="520" cy="357" r="2"/>
    <circle cx="514" cy="357" r="2"/>
  </g>
  <g stroke="chocolate" stroke-width="1">
    <line x1="574" y1="392" x2="567" y2="376"/>
    <circle cx="574" cy="392" r="2"/>
    <circle cx="567" cy="376" r="2"/>
  </g>
  <g stroke="chocolate" stroke-width="1">
    <line x1="567" y1="376" x2="535" y2="374"/>
    <circle cx="567" cy="376" r="2"/>
    <circle cx="535" cy="374" r="2"/>
  </g>
  <g stroke="chocolate" stroke-width="1">
    <line x1="584" y1="377" x2="567" y2="376"/>
    <circle cx="584" cy="377" r="2"/>
    <circle cx="567" cy="376" r="2"/>
  </g>
  <g stroke="chocolate" stroke-width="1">
    <line x1="556" y1="350" x2="545" y2="350"/>
    <circle cx="556" cy="350" r="2"/>
    <circle cx="545" cy="350" r="2"/>
  </g>
  <g stroke="chocolate" stroke-width="1">
    <line x1="543" y1="355" x2="545" y2="350"/>
    <circle cx="543" cy="355" r="2"/>
    <circle cx="545" cy="350" r="2"/>
  </g>
  <g stroke="chocolate" stroke-width="1">
    <line x1="542" y1="357" x2="543" y2="355"/>
    <circle cx="542" cy="357" r="2"/>
    <circle cx="543" cy="355" r="2"/>
  </g>
  <g stroke="chocolate" stroke-width="1">
    <line x1="535" y1="374" x2="542" y2="357"/>
    <circle cx="535" cy="374" r="2"/>
    <circle cx="542" cy="357" r="2"/>
  </g>
  <g stroke="chocolate" stroke-width="1">
    <line x1="574" y1="343" x2="587" y2="343"/>
    <circle cx="574" cy="343" r="2"/>
    <circle cx="587" cy="343" r="2"/>
  </g>
  <g stroke="chocolate" stroke-width="1">
    <line x1="570" y1="350" x2="574" y2="343"/>
    <circle cx="570" cy="350" r="2"/>
    <circle cx="574" cy="343" r="2"/>
  </g>
  <g stroke="chocolate" stroke-width="1">
    <line x1="570" y1="350" x2="562" y2="350"/>
    <circle cx="570" cy="350" r="2"/>
    <circle cx="562" cy="350" r="2"/>
  </g>
  <g stroke="chocolate" stroke-width="1">
    <line x1="601" y1="351" x2="570" y2="350"/>
    <circle cx="601" cy="351" r="2"/>
    <circle cx="570" cy="350" r="2"/>
  </g>
  <g stroke="chocolate" stroke-width="1">
    <line x1="570" y1="350" x2="570" y2="350"/>
    <circle cx="570" cy="350" r="2"/>
    <circle cx="570" cy="350" r="2"/>
  </g>
  <g stroke="chocolate" stroke-width="1">
    <line x1="567" y1="355" x2="570" y2="350"/>
    <circle cx="567" cy="355" r="2"/>
    <circle cx="570" cy="350" r="2"/>
  </g>
  <g stroke="chocolate" stroke-width="1">
    <line x1="521" y1="343" x2="523" y2="343"/>
    <circle cx="521" cy="343" r="2"/>
    <circle cx="523" cy="343" r="2"/>
  </g>
  <g stroke="chocolate" stroke-width="1">
    <line x1="521" y1="343" x2="520" y2="341"/>
    <circle cx="521" cy="343" r="2"/>
    <circle cx="520" cy="341" r="2"/>
  </g>
  <g stroke="chocolate" stroke-width="1">
    <line x1="517" y1="341" x2="520" y2="341"/>
    <circle cx="517" cy="341" r="2"/>
    <circle cx="520" cy="341" r="2"/>
  </g>
  <g stroke="chocolate" stroke-width="1">
    <line x1="5" y1="347" x2="517" y2="341"/>
    <circle cx="5" cy="347" r="2"/>
    <circle cx="517" cy="341" r="2"/>
  </g>
  <g stroke="chocolate" stroke-width="1">
    <line x1="543" y1="355" x2="538" y2="355"/>
    <circle cx="543" cy="355" r="2"/>
    <circle cx="538" cy="355" r="2"/>
  </g>
  <g stroke="chocolate" stroke-width="1">
    <line x1="520" y1="339" x2="518" y2="334"/>
    <circle cx="520" cy="339" r="2"/>
    <circle cx="518" cy="334" r="2"/>
  </g>
  <g stroke="chocolate" stroke-width="1">
    <line x1="520" y1="341" x2="520" y2="339"/>
    <circle cx="520" cy="341" r="2"/>
    <circle cx="520" cy="339" r="2"/>
  </g>
  <g stroke="chocolate" stroke-width="1">
    <line x1="520" y1="339" x2="545" y2="338"/>
    <circle cx="520" cy="339" r="2"/>
    <circle cx="545" cy="338" r="2"/>
  </g>
  <g stroke="chocolate" stroke-width="1">
    <line x1="505" y1="363" x2="505" y2="356"/>
    <circle cx="505" cy="363" r="2"/>
    <circle cx="505" cy="356" r="2"/>
  </g>
  <g stroke="chocolate" stroke-width="1">
    <line x1="505" y1="363" x2="5" y2="347"/>
    <circle cx="505" cy="363" r="2"/>
    <circle cx="5" cy="347" r="2"/>
  </g>
  <g stroke="chocolate" stroke-width="1">
    <line x1="507" y1="363" x2="505" y2="363"/>
    <circle cx="507" cy="363" r="2"/>
    <circle cx="505" cy="363" r="2"/>
  </g>
  <g stroke="chocolate" stroke-width="1">
    <line x1="533" y1="374" x2="531" y2="374"/>
    <circle cx="533" cy="374" r="2"/>
    <circle cx="531" cy="374" r="2"/>
  </g>
  <g stroke="chocolate" stroke-width="1">
    <line x1="531" y1="374" x2="532" y2="370"/>
    <circle cx="531" cy="374" r="2"/>
    <circle cx="532" cy="370" r="2"/>
  </g>
  <g stroke="chocolate" stroke-width="1">
    <line x1="530" y1="377" x2="531" y2="374"/>
    <circle cx="530" cy="377" r="2"/>
    <circle cx="531" cy="374" r="2"/>
  </g>
  <g stroke="chocolate" stroke-width="1">
    <line x1="505" y1="375" x2="505" y2="375"/>
    <circle cx="505" cy="375" r="2"/>
    <circle cx="505" cy="375" r="2"/>
  </g>
  <g stroke="chocolate" stroke-width="1">
    <line x1="598" y1="356" x2="630" y2="308"/>
    <circle cx="598" cy="356" r="2"/>
    <circle cx="630" cy="308" r="2"/>
  </g>
  <g stroke="chocolate" stroke-width="1">
    <line x1="584" y1="377" x2="598" y2="356"/>
    <circle cx="584" cy="377" r="2"/>
    <circle cx="598" cy="356" r="2"/>
  </g>
  <g stroke="chocolate" stroke-width="1">
    <line x1="598" y1="356" x2="567" y2="355"/>
    <circle cx="598" cy="356" r="2"/>
    <circle cx="567" cy="355" r="2"/>
  </g>
  <g stroke="chocolate" stroke-width="1">
    <line x1="615" y1="356" x2="598" y2="356"/>
    <circle cx="615" cy="356" r="2"/>
    <circle cx="598" cy="356" r="2"/>
  </g>
  <g stroke="chocolate" stroke-width="1">
    <line x1="587" y1="343" x2="596" y2="343"/>
    <circle cx="587" cy="343" r="2"/>
    <circle cx="596" cy="343" r="2"/>
  </g>
  <g stroke="chocolate" stroke-width="1">
    <line x1="587" y1="343" x2="580" y2="331"/>
    <circle cx="587" cy="343" r="2"/>
    <circle cx="580" cy="331" r="2"/>
  </g>
  <g stroke="chocolate" stroke-width="1">
    <line x1="587" y1="343" x2="587" y2="343"/>
    <circle cx="587" cy="343" r="2"/>
    <circle cx="587" cy="343" r="2"/>
  </g>
  <g stroke="chocolate" stroke-width="1">
    <line x1="547" y1="332" x2="550" y2="325"/>
    <circle cx="547" cy="332" r="2"/>
    <circle cx="550" cy="325" r="2"/>
  </g>
  <g stroke="chocolate" stroke-width="1">
    <line x1="545" y1="338" x2="547" y2="332"/>
    <circle cx="545" cy="338" r="2"/>
    <circle cx="547" cy="332" r="2"/>
  </g>
  <g stroke="chocolate" stroke-width="1">
    <line x1="547" y1="332" x2="553" y2="332"/>
    <circle cx="547" cy="332" r="2"/>
    <circle cx="553" cy="332" r="2"/>
  </g>
  <g stroke="chocolate" stroke-width="1">
    <line x1="5" y1="347" x2="547" y2="332"/>
    <circle cx="5" cy="347" r="2"/>
    <circle cx="547" cy="332" r="2"/>
  </g>
  <g stroke="chocolate" stroke-width="1">
    <line x1="562" y1="350" x2="556" y2="350"/>
    <circle cx="562" cy="350" r="2"/>
    <circle cx="556" cy="350" r="2"/>
  </g>
  <g stroke="chocolate" stroke-width="1">
    <line x1="552" y1="343" x2="550" y2="338"/>
    <circle cx="552" cy="343" r="2"/>
    <circle cx="550" cy="338" r="2"/>
  </g>
  <g stroke="chocolate" stroke-width="1">
    <line x1="558" y1="355" x2="543" y2="355"/>
    <circle cx="558" cy="355" r="2"/>
    <circle cx="543" cy="355" r="2"/>
  </g>
  <g stroke="chocolate" stroke-width="1">
    <line x1="558" y1="355" x2="556" y2="350"/>
    <circle cx="558" cy="355" r="2"/>
    <circle cx="556" cy="350" r="2"/>
  </g>
  <g stroke="chocolate" stroke-width="1">
    <line x1="509" y1="343" x2="509" y2="343"/>
    <circle cx="509" cy="343" r="2"/>
    <circle cx="509" cy="343" r="2"/>
  </g>
  <g stroke="chocolate" stroke-width="1">
    <line x1="509" y1="343" x2="509" y2="343"/>
    <circle cx="509" cy="343" r="2"/>
    <circle cx="509" cy="343" r="2"/>
  </g>
  <g stroke="chocolate" stroke-width="1">
    <line x1="5" y1="347" x2="509" y2="343"/>
    <circle cx="5" cy="347" r="2"/>
    <circle cx="509" cy="343" r="2"/>
  </g>
  <g stroke="chocolate" stroke-width="1">
    <line x1="512" y1="387" x2="514" y2="376"/>
    <circle cx="512" cy="387" r="2"/>
    <circle cx="514" cy="376" r="2"/>
  </g>
  <g stroke="chocolate" stroke-width="1">
    <line x1="505" y1="413" x2="512" y2="387"/>
    <circle cx="505" cy="413" r="2"/>
    <circle cx="512" cy="387" r="2"/>
  </g>
  <g stroke="chocolate" stroke-width="1">
    <line x1="512" y1="387" x2="505" y2="386"/>
    <circle cx="512" cy="387" r="2"/>
    <circle cx="505" cy="386" r="2"/>
  </g>
  <g stroke="chocolate" stroke-width="1">
    <line x1="574" y1="392" x2="512" y2="387"/>
    <circle cx="574" cy="392" r="2"/>
    <circle cx="512" cy="387" r="2"/>
  </g>
  <g stroke="chocolate" stroke-width="1">
    <line x1="505" y1="386" x2="505" y2="375"/>
    <circle cx="505" cy="386" r="2"/>
    <circle cx="505" cy="375" r="2"/>
  </g>
  <g stroke="chocolate" stroke-width="1">
    <line x1="505" y1="375" x2="5" y2="347"/>
    <circle cx="505" cy="375" r="2"/>
    <circle cx="5" cy="347" r="2"/>
  </g>
  <g stroke="chocolate" stroke-width="1">
    <line x1="505" y1="375" x2="505" y2="375"/>
    <circle cx="505" cy="375" r="2"/>
    <circle cx="505" cy="375" r="2"/>
  </g>
  <g stroke="chocolate" stroke-width="1">
    <line x1="505" y1="356" x2="5" y2="347"/>
    <circle cx="505" cy="356" r="2"/>
    <circle cx="5" cy="347" r="2"/>
  </g>
  <g stroke="chocolate" stroke-width="1">
    <line x1="523" y1="343" x2="524" y2="341"/>
    <circle cx="523" cy="343" r="2"/>
    <circle cx="524" cy="341" r="2"/>
  </g>
  <g stroke="chocolate" stroke-width="1">
    <line x1="514" y1="376" x2="505" y2="375"/>
    <circle cx="514" cy="376" r="2"/>
    <circle cx="505" cy="375" r="2"/>
  </g>
  <g stroke="chocolate" stroke-width="1">
    <line x1="530" y1="377" x2="514" y2="376"/>
    <circle cx="530" cy="377" r="2"/>
    <circle cx="514" cy="376" r="2"/>
  </g>
  <g stroke="chocolate" stroke-width="1">
    <line x1="649" y1="357" x2="615" y2="356"/>
    <circle cx="649" cy="357" r="2"/>
    <circle cx="615" cy="356" r="2"/>
  </g>
  <g stroke="chocolate" stroke-width="1">
    <line x1="677" y1="357" x2="649" y2="357"/>
    <circle cx="677" cy="357" r="2"/>
    <circle cx="649" cy="357" r="2"/>
  </g>
  <g stroke="chocolate" stroke-width="1">
    <line x1="649" y1="357" x2="663" y2="341"/>
    <circle cx="649" cy="357" r="2"/>
    <circle cx="663" cy="341" r="2"/>
  </g>
  <g stroke="chocolate" stroke-width="1">
    <line x1="631" y1="379" x2="649" y2="357"/>
    <circle cx="631" cy="379" r="2"/>
    <circle cx="649" cy="357" r="2"/>
  </g>
  <g stroke="chocolate" stroke-width="1">
    <line x1="532" y1="370" x2="528" y2="357"/>
    <circle cx="532" cy="370" r="2"/>
    <circle cx="528" cy="357" r="2"/>
  </g>
  <g stroke="chocolate" stroke-width="1">
    <line x1="533" y1="374" x2="532" y2="370"/>
    <circle cx="533" cy="374" r="2"/>
    <circle cx="532" cy="370" r="2"/>
  </g>
  <g stroke="chocolate" stroke-width="1">
    <line x1="534" y1="377" x2="533" y2="374"/>
    <circle cx="534" cy="377" r="2"/>
    <circle cx="533" cy="374" r="2"/>
  </g>
  <g stroke="chocolate" stroke-width="1">
    <line x1="535" y1="374" x2="533" y2="374"/>
    <circle cx="535" cy="374" r="2"/>
    <circle cx="533" cy="374" r="2"/>
  </g>
  <g stroke="chocolate" stroke-width="1">
    <line x1="633" y1="307" x2="631" y2="305"/>
    <circle cx="633" cy="307" r="2"/>
    <circle cx="631" cy="305" r="2"/>
  </g>
  <g stroke="chocolate" stroke-width="1">
    <line x1="663" y1="341" x2="633" y2="307"/>
    <circle cx="663" cy="341" r="2"/>
    <circle cx="633" cy="307" r="2"/>
  </g>
  <g stroke="chocolate" stroke-width="1">
    <line x1="633" y1="307" x2="694" y2="303"/>
    <circle cx="633" cy="307" r="2"/>
    <circle cx="694" cy="303" r="2"/>
  </g>
  <g stroke="chocolate" stroke-width="1">
    <line x1="630" y1="308" x2="633" y2="307"/>
    <circle cx="630" cy="308" r="2"/>
    <circle cx="633" cy="307" r="2"/>
  </g>
  <g stroke="chocolate" stroke-width="1">
    <line x1="631" y1="379" x2="584" y2="377"/>
    <circle cx="631" cy="379" r="2"/>
    <circle cx="584" cy="377" r="2"/>
  </g>
  <g stroke="chocolate" stroke-width="1">
    <line x1="574" y1="392" x2="584" y2="377"/>
    <circle cx="574" cy="392" r="2"/>
    <circle cx="584" cy="377" r="2"/>
  </g>
  <g stroke="chocolate" stroke-width="1">
    <line x1="592" y1="350" x2="570" y2="350"/>
    <circle cx="592" cy="350" r="2"/>
    <circle cx="570" cy="350" r="2"/>
  </g>
  <g stroke="chocolate" stroke-width="1">
    <line x1="520" y1="341" x2="524" y2="341"/>
    <circle cx="520" cy="341" r="2"/>
    <circle cx="524" cy="341" r="2"/>
  </g>
  <g stroke="chocolate" stroke-width="1">
    <line x1="545" y1="338" x2="550" y2="338"/>
    <circle cx="545" cy="338" r="2"/>
    <circle cx="550" cy="338" r="2"/>
  </g>
  <g stroke="chocolate" stroke-width="1">
    <line x1="512" y1="363" x2="507" y2="363"/>
    <circle cx="512" cy="363" r="2"/>
    <circle cx="507" cy="363" r="2"/>
  </g>
  <g stroke="chocolate" stroke-width="1">
    <line x1="530" y1="377" x2="530" y2="377"/>
    <circle cx="530" cy="377" r="2"/>
    <circle cx="530" cy="377" r="2"/>
  </g>
  <g stroke="chocolate" stroke-width="1">
    <line x1="534" y1="377" x2="530" y2="377"/>
    <circle cx="534" cy="377" r="2"/>
    <circle cx="530" cy="377" r="2"/>
  </g>
  <g stroke="chocolate" stroke-width="1">
    <line x1="615" y1="356" x2="606" y2="343"/>
    <circle cx="615" cy="356" r="2"/>
    <circle cx="606" cy="343" r="2"/>
  </g>
  <g stroke="chocolate" stroke-width="1">
    <line x1="631" y1="379" x2="615" y2="356"/>
    <circle cx="631" cy="379" r="2"/>
    <circle cx="615" cy="356" r="2"/>
  </g>
  <g stroke="chocolate" stroke-width="1">
    <line x1="597" y1="343" x2="606" y2="343"/>
    <circle cx="597" cy="343" r="2"/>
    <circle cx="606" cy="343" r="2"/>
  </g>
  <g stroke="chocolate" stroke-width="1">
    <line x1="596" y1="343" x2="597" y2="343"/>
    <circle cx="596" cy="343" r="2"/>
    <circle cx="597" cy="343" r="2"/>
  </g>
  <g stroke="chocolate" stroke-width="1">
    <line x1="597" y1="343" x2="596" y2="343"/>
    <circle cx="597" cy="343" r="2"/>
    <circle cx="596" cy="343" r="2"/>
  </g>
  <g stroke="chocolate" stroke-width="1">
    <line x1="601" y1="351" x2="597" y2="343"/>
    <circle cx="601" cy="351" r="2"/>
    <circle cx="597" cy="343" r="2"/>
  </g>
  <g stroke="chocolate" stroke-width="1">
    <line x1="587" y1="343" x2="596" y2="343"/>
    <circle cx="587" cy="343" r="2"/>
    <circle cx="596" cy="343" r="2"/>
  </g>
  <g stroke="chocolate" stroke-width="1">
    <line x1="592" y1="350" x2="587" y2="343"/>
    <circle cx="592" cy="350" r="2"/>
    <circle cx="587" cy="343" r="2"/>
  </g>
  <g stroke="chocolate" stroke-width="1">
    <line x1="553" y1="332" x2="580" y2="331"/>
    <circle cx="553" cy="332" r="2"/>
    <circle cx="580" cy="331" r="2"/>
  </g>
  <g stroke="chocolate" stroke-width="1">
    <line x1="553" y1="332" x2="550" y2="325"/>
    <circle cx="553" cy="332" r="2"/>
    <circle cx="550" cy="325" r="2"/>
  </g>
  <g stroke="chocolate" stroke-width="1">
    <line x1="509" y1="343" x2="509" y2="343"/>
    <circle cx="509" cy="343" r="2"/>
    <circle cx="509" cy="343" r="2"/>
  </g>
  <g stroke="chocolate" stroke-width="1">
    <line x1="505" y1="386" x2="5" y2="347"/>
    <circle cx="505" cy="386" r="2"/>
    <circle cx="5" cy="347" r="2"/>
  </g>
  <g stroke="chocolate" stroke-width="1">
    <line x1="505" y1="413" x2="505" y2="386"/>
    <circle cx="505" cy="413" r="2"/>
    <circle cx="505" cy="386" r="2"/>
  </g>
  <g stroke="chocolate" stroke-width="1">
    <line x1="505" y1="379" x2="505" y2="375"/>
    <circle cx="505" cy="379" r="2"/>
    <circle cx="505" cy="375" r="2"/>
  </g>
  <g stroke="chocolate" stroke-width="1">
    <line x1="512" y1="363" x2="514" y2="357"/>
    <circle cx="512" cy="363" r="2"/>
    <circle cx="514" cy="357" r="2"/>
  </g>
  <g stroke="chocolate" stroke-width="1">
    <line x1="677" y1="357" x2="663" y2="341"/>
    <circle cx="677" cy="357" r="2"/>
    <circle cx="663" cy="341" r="2"/>
  </g>
  <g stroke="chocolate" stroke-width="1">
    <line x1="663" y1="341" x2="694" y2="303"/>
    <circle cx="663" cy="341" r="2"/>
    <circle cx="694" cy="303" r="2"/>
  </g>
  <g stroke="chocolate" stroke-width="1">
    <line x1="534" y1="377" x2="535" y2="374"/>
    <circle cx="534" cy="377" r="2"/>
    <circle cx="535" cy="374" r="2"/>
  </g>
  <g stroke="chocolate" stroke-width="1">
    <line x1="5" y1="347" x2="630" y2="308"/>
    <circle cx="5" cy="347" r="2"/>
    <circle cx="630" cy="308" r="2"/>
  </g>
  <g stroke="chocolate" stroke-width="1">
    <line x1="630" y1="308" x2="631" y2="305"/>
    <circle cx="630" cy="308" r="2"/>
    <circle cx="631" cy="305" r="2"/>
  </g>
  <g stroke="chocolate" stroke-width="1">
    <line x1="566" y1="358" x2="567" y2="355"/>
    <circle cx="566" cy="358" r="2"/>
    <circle cx="567" cy="355" r="2"/>
  </g>
  <g stroke="chocolate" stroke-width="1">
    <line x1="596" y1="343" x2="596" y2="343"/>
    <circle cx="596" cy="343" r="2"/>
    <circle cx="596" cy="343" r="2"/>
  </g>
  <g stroke="chocolate" stroke-width="1">
    <line x1="592" y1="350" x2="596" y2="343"/>
    <circle cx="592" cy="350" r="2"/>
    <circle cx="596" cy="343" r="2"/>
  </g>
  <g stroke="chocolate" stroke-width="1">
    <line x1="711" y1="319" x2="694" y2="303"/>
    <circle cx="711" cy="319" r="2"/>
    <circle cx="694" cy="303" r="2"/>
  </g>
  <g stroke="chocolate" stroke-width="1">
    <line x1="5" y1="347" x2="505" y2="347"/>
    <circle cx="5" cy="347" r="2"/>
    <circle cx="505" cy="347" r="2"/>
  </g>
  <g stroke="chocolate" stroke-width="1">
    <line x1="5" y1="347" x2="509" y2="343"/>
    <circle cx="5" cy="347" r="2"/>
    <circle cx="509" cy="343" r="2"/>
  </g>
  <g stroke="chocolate" stroke-width="1">
    <line x1="5" y1="347" x2="518" y2="334"/>
    <circle cx="5" cy="347" r="2"/>
    <circle cx="518" cy="334" r="2"/>
  </g>
  <g stroke="chocolate" stroke-width="1">
    <line x1="5" y1="347" x2="550" y2="325"/>
    <circle cx="5" cy="347" r="2"/>
    <circle cx="550" cy="325" r="2"/>
  </g>
  <g stroke="chocolate" stroke-width="1">
    <line x1="505" y1="379" x2="5" y2="347"/>
    <circle cx="505" cy="379" r="2"/>
    <circle cx="5" cy="347" r="2"/>
  </g>
  <g stroke="chocolate" stroke-width="1">
    <line x1="5" y1="347" x2="631" y2="305"/>
    <circle cx="5" cy="347" r="2"/>
    <circle cx="631" cy="305" r="2"/>
  </g>
  <g stroke="chocolate" stroke-width="1">
    <line x1="505" y1="413" x2="5" y2="347"/>
    <circle cx="505" cy="413" r="2"/>
    <circle cx="5" cy="347" r="2"/>
  </g>
  <g stroke="chocolate" stroke-width="1">
    <line x1="677" y1="357" x2="711" y2="319"/>
    <circle cx="677" cy="357" r="2"/>
    <circle cx="711" cy="319" r="2"/>
  </g>
  <g stroke="black" stroke-width="1">
    <line x1="108" y1="108" x2="608" y2="108"/>
    <line x1="108" y1="108" x2="108" y2="608"/>
    <line x1="608" y1="608" x2="108" y2="608"/>
    <line x1="608" y1="608" x2="608" y2="108"/>
    <line x1="208" y1="105" x2="208" y2="111"/>
    <line x1="105" y1="208" x2="111" y2="208"/>
    <line x1="208" y1="605" x2="208" y2="611"/>
    <line x1="605" y1="208" x2="611" y2="208"/>
    <line x1="308" y1="105" x2="308" y2="111"/>
    <line x1="105" y1="308" x2="111" y2="308"/>
    <line x1="308" y1="605" x2="308" y2="611"/>
    <line x1="605" y1="308" x2="611" y2="308"/>
    <line x1="408" y1="105" x2="408" y2="111"/>
    <line x1="105" y1="408" x2="111" y2="408"/>
    <line x1="408" y1="605" x2="408" y2="611"/>
    <line x1="605" y1="408" x2="611" y2="408"/>
    <line x1="508" y1="105" x2="508" y2="111"/>
    <line x1="105" y1="508" x2="111" y2="508"/>
    <line x1="508" y1="605" x2="508" y2="611"/>
    <line x1="605" y1="508" x2="611" y2="508"/>
  </g>
  <g stroke="gray" stroke-width="1" stroke-dasharray="5,5">
    <line x1="208" y1="108" x2="208" y2="608"/>
    <line x1="108" y1="208" x2="608" y2="208"/>
    <line x1="308" y1="108" x2="308" y2="608"/>
    <line x1="108" y1="308" x2="608" y2="308"/>
    <line x1="408" y1="108" x2="408" y2="608"/>
    <line x1="108" y1="408" x2="608" y2="408"/>
    <line x1="508" y1="108" x2="508" y2="608"/>
    <line x1="108" y1="508" x2="608" y2="508"/>
  </g>
</svg>
