<?xml version="1.0" standalone="no"?>
<!DOCTYPE svg PUBLIC "-//W3C//DTD SVG 1.1//EN" 
  "http://www.w3.org/Graphics/SVG/1.1/DTD/svg11.dtd">
<svg width="718" height="718" version="1.1" id="toplevel"
    xmlns="http://www.w3.org/2000/svg"
    xmlns:xlink="http://www.w3.org/1999/xlink">
  <polygon points="526,417 540,387 665,395 713,347 667,301 513,313 512,307 5,350"
           fill="bisque"/>
  <g stroke="chocolate" stroke-width="1">
    <line x1="517" y1="365" x2="506" y2="365"/>
    <circle cx="517" cy="365" r="2"/>
    <circle cx="506" cy="365" r="2"/>
  </g>
  <g stroke="chocolate" stroke-width="1">
    <line x1="550" y1="366" x2="517" y2="365"/>
    <circle cx="550" cy="366" r="2"/>
    <circle cx="517" cy="365" r="2"/>
  </g>
  <g stroke="chocolate" stroke-width="1">
    <line x1="517" y1="365" x2="516" y2="360"/>
    <circle cx="517" cy="365" r="2"/>
    <circle cx="516" cy="360" r="2"/>
  </g>
  <g stroke="chocolate" stroke-width="1">
    <line x1="517" y1="365" x2="517" y2="365"/>
    <circle cx="517" cy="365" r="2"/>
    <circle cx="517" cy="365" r="2"/>
  </g>
  <g stroke="chocolate" stroke-width="1">
    <line x1="509" y1="346" x2="510" y2="343"/>
    <circle cx="509" cy="346" r="2"/>
    <circle cx="510" cy="343" r="2"/>
  </g>
  <g stroke="chocolate" stroke-width="1">
    <line x1="508" y1="354" x2="509" y2="346"/>
    <circle cx="508" cy="354" r="2"/>
    <circle cx="509" cy="346" r="2"/>
  </g>
  <g stroke="chocolate" stroke-width="1">
    <line x1="509" y1="346" x2="513" y2="346"/>
    <circle cx="509" cy="346" r="2"/>
    <circle cx="513" cy="346" r="2"/>
  </g>
  <g stroke="chocolate" stroke-width="1">
    <line x1="508" y1="346" x2="509" y2="346"/>
    <circle cx="508" cy="346" r="2"/>
    <circle cx="509" cy="346" r="2"/>
  </g>
  <g stroke="chocolate" stroke-width="1">
    <line x1="505" y1="354" x2="505" y2="352"/>
    <circle cx="505" cy="354" r="2"/>
    <circle cx="505" cy="352" r="2"/>
  </g>
  <g stroke="chocolate" stroke-width="1">
    <line x1="505" y1="358" x2="505" y2="354"/>
    <circle cx="505" cy="358" r="2"/>
    <circle cx="505" cy="354" r="2"/>
  </g>
  <g stroke="chocolate" stroke-width="1">
    <line x1="505" y1="354" x2="5" y2="350"/>
    <circle cx="505" cy="354" r="2"/>
    <circle cx="5" cy="350" r="2"/>
  </g>
  <g stroke="chocolate" stroke-width="1">
    <line x1="506" y1="354" x2="505" y2="354"/>
    <circle cx="506" cy="354" r="2"/>
    <circle cx="505" cy="354" r="2"/>
  </g>
  <g stroke="chocolate" stroke-width="1">
    <line x1="506" y1="354" x2="506" y2="352"/>
    <circle cx="506" cy="354" r="2"/>
    <circle cx="506" cy="352" r="2"/>
  </g>
  <g stroke="chocolate" stroke-width="1">
    <line x1="506" y1="358" x2="506" y2="354"/>
    <circle cx="506" cy="358" r="2"/>
    <circle cx="506" cy="354" r="2"/>
  </g>
  <g stroke="chocolate" stroke-width="1">
    <line x1="506" y1="354" x2="506" y2="354"/>
    <circle cx="506" cy="354" r="2"/>
    <circle cx="506" cy="354" r="2"/>
  </g>
  <g stroke="chocolate" stroke-width="1">
    <line x1="507" y1="354" x2="506" y2="354"/>
    <circle cx="507" cy="354" r="2"/>
    <circle cx="506" cy="354" r="2"/>
  </g>
  <g stroke="chocolate" stroke-width="1">
    <line x1="506" y1="360" x2="505" y2="360"/>
    <circle cx="506" cy="360" r="2"/>
    <circle cx="505" cy="360" r="2"/>
  </g>
  <g stroke="chocolate" stroke-width="1">
    <line x1="506" y1="360" x2="506" y2="360"/>
    <circle cx="506" cy="360" r="2"/>
    <circle cx="506" cy="360" r="2"/>
  </g>
  <g stroke="chocolate" stroke-width="1">
    <line x1="506" y1="360" x2="506" y2="358"/>
    <circle cx="506" cy="360" r="2"/>
    <circle cx="506" cy="358" r="2"/>
  </g>
  <g stroke="chocolate" stroke-width="1">
    <line x1="506" y1="361" x2="506" y2="360"/>
    <circle cx="506" cy="361" r="2"/>
    <circle cx="506" cy="360" r="2"/>
  </g>
  <g stroke="chocolate" stroke-width="1">
    <line x1="510" y1="343" x2="513" y2="343"/>
    <circle cx="510" cy="343" r="2"/>
    <circle cx="513" cy="343" r="2"/>
  </g>
  <g stroke="chocolate" stroke-width="1">
    <line x1="508" y1="343" x2="510" y2="343"/>
    <circle cx="508" cy="343" r="2"/>
    <circle cx="510" cy="343" r="2"/>
  </g>
  <g stroke="chocolate" stroke-width="1">
    <line x1="510" y1="343" x2="511" y2="334"/>
    <circle cx="510" cy="343" r="2"/>
    <circle cx="511" cy="334" r="2"/>
  </g>
  <g stroke="chocolate" stroke-width="1">
    <line x1="522" y1="345" x2="522" y2="343"/>
    <circle cx="522" cy="345" r="2"/>
    <circle cx="522" cy="343" r="2"/>
  </g>
  <g stroke="chocolate" stroke-width="1">
    <line x1="525" y1="355" x2="522" y2="345"/>
    <circle cx="525" cy="355" r="2"/>
    <circle cx="522" cy="345" r="2"/>
  </g>
  <g stroke="chocolate" stroke-width="1">
    <line x1="522" y1="345" x2="528" y2="345"/>
    <circle cx="522" cy="345" r="2"/>
    <circle cx="528" cy="345" r="2"/>
  </g>
  <g stroke="chocolate" stroke-width="1">
    <line x1="513" y1="346" x2="522" y2="345"/>
    <circle cx="513" cy="346" r="2"/>
    <circle cx="522" cy="345" r="2"/>
  </g>
  <g stroke="chocolate" stroke-width="1">
    <line x1="506" y1="352" x2="507" y2="348"/>
    <circle cx="506" cy="352" r="2"/>
    <circle cx="507" cy="348" r="2"/>
  </g>
  <g stroke="chocolate" stroke-width="1">
    <line x1="506" y1="354" x2="506" y2="352"/>
    <circle cx="506" cy="354" r="2"/>
    <circle cx="506" cy="352" r="2"/>
  </g>
  <g stroke="chocolate" stroke-width="1">
    <line x1="506" y1="352" x2="505" y2="352"/>
    <circle cx="506" cy="352" r="2"/>
    <circle cx="505" cy="352" r="2"/>
  </g>
  <g stroke="chocolate" stroke-width="1">
    <line x1="506" y1="352" x2="506" y2="352"/>
    <circle cx="506" cy="352" r="2"/>
    <circle cx="506" cy="352" r="2"/>
  </g>
  <g stroke="chocolate" stroke-width="1">
    <line x1="570" y1="367" x2="550" y2="366"/>
    <circle cx="570" cy="367" r="2"/>
    <circle cx="550" cy="366" r="2"/>
  </g>
  <g stroke="chocolate" stroke-width="1">
    <line x1="550" y1="366" x2="552" y2="361"/>
    <circle cx="550" cy="366" r="2"/>
    <circle cx="552" cy="361" r="2"/>
  </g>
  <g stroke="chocolate" stroke-width="1">
    <line x1="550" y1="366" x2="550" y2="366"/>
    <circle cx="550" cy="366" r="2"/>
    <circle cx="550" cy="366" r="2"/>
  </g>
  <g stroke="chocolate" stroke-width="1">
    <line x1="516" y1="360" x2="515" y2="358"/>
    <circle cx="516" cy="360" r="2"/>
    <circle cx="515" cy="358" r="2"/>
  </g>
  <g stroke="chocolate" stroke-width="1">
    <line x1="516" y1="360" x2="508" y2="360"/>
    <circle cx="516" cy="360" r="2"/>
    <circle cx="508" cy="360" r="2"/>
  </g>
  <g stroke="chocolate" stroke-width="1">
    <line x1="552" y1="361" x2="516" y2="360"/>
    <circle cx="552" cy="361" r="2"/>
    <circle cx="516" cy="360" r="2"/>
  </g>
  <g stroke="chocolate" stroke-width="1">
    <line x1="508" y1="346" x2="508" y2="343"/>
    <circle cx="508" cy="346" r="2"/>
    <circle cx="508" cy="343" r="2"/>
  </g>
  <g stroke="chocolate" stroke-width="1">
    <line x1="508" y1="352" x2="508" y2="346"/>
    <circle cx="508" cy="352" r="2"/>
    <circle cx="508" cy="346" r="2"/>
  </g>
  <g stroke="chocolate" stroke-width="1">
    <line x1="507" y1="346" x2="508" y2="346"/>
    <circle cx="507" cy="346" r="2"/>
    <circle cx="508" cy="346" r="2"/>
  </g>
  <g stroke="chocolate" stroke-width="1">
    <line x1="513" y1="343" x2="522" y2="343"/>
    <circle cx="513" cy="343" r="2"/>
    <circle cx="522" cy="343" r="2"/>
  </g>
  <g stroke="chocolate" stroke-width="1">
    <line x1="513" y1="343" x2="511" y2="334"/>
    <circle cx="513" cy="343" r="2"/>
    <circle cx="511" cy="334" r="2"/>
  </g>
  <g stroke="chocolate" stroke-width="1">
    <line x1="513" y1="346" x2="513" y2="343"/>
    <circle cx="513" cy="346" r="2"/>
    <circle cx="513" cy="343" r="2"/>
  </g>
  <g stroke="chocolate" stroke-width="1">
    <line x1="505" y1="360" x2="505" y2="358"/>
    <circle cx="505" cy="360" r="2"/>
    <circle cx="505" cy="358" r="2"/>
  </g>
  <g stroke="chocolate" stroke-width="1">
    <line x1="505" y1="358" x2="5" y2="350"/>
    <circle cx="505" cy="358" r="2"/>
    <circle cx="5" cy="350" r="2"/>
  </g>
  <g stroke="chocolate" stroke-width="1">
    <line x1="506" y1="358" x2="505" y2="358"/>
    <circle cx="506" cy="358" r="2"/>
    <circle cx="505" cy="358" r="2"/>
  </g>
  <g stroke="chocolate" stroke-width="1">
    <line x1="506" y1="360" x2="506" y2="358"/>
    <circle cx="506" cy="360" r="2"/>
    <circle cx="506" cy="358" r="2"/>
  </g>
  <g stroke="chocolate" stroke-width="1">
    <line x1="506" y1="358" x2="506" y2="358"/>
    <circle cx="506" cy="358" r="2"/>
    <circle cx="506" cy="358" r="2"/>
  </g>
  <g stroke="chocolate" stroke-width="1">
    <line x1="507" y1="358" x2="506" y2="358"/>
    <circle cx="507" cy="358" r="2"/>
    <circle cx="506" cy="358" r="2"/>
  </g>
  <g stroke="chocolate" stroke-width="1">
    <line x1="506" y1="358" x2="506" y2="354"/>
    <circle cx="506" cy="358" r="2"/>
    <circle cx="506" cy="354" r="2"/>
  </g>
  <g stroke="chocolate" stroke-width="1">
    <line x1="508" y1="360" x2="506" y2="360"/>
    <circle cx="508" cy="360" r="2"/>
    <circle cx="506" cy="360" r="2"/>
  </g>
  <g stroke="chocolate" stroke-width="1">
    <line x1="506" y1="361" x2="506" y2="360"/>
    <circle cx="506" cy="361" r="2"/>
    <circle cx="506" cy="360" r="2"/>
  </g>
  <g stroke="chocolate" stroke-width="1">
    <line x1="506" y1="365" x2="506" y2="365"/>
    <circle cx="506" cy="365" r="2"/>
    <circle cx="506" cy="365" r="2"/>
  </g>
  <g stroke="chocolate" stroke-width="1">
    <line x1="506" y1="365" x2="506" y2="361"/>
    <circle cx="506" cy="365" r="2"/>
    <circle cx="506" cy="361" r="2"/>
  </g>
  <g stroke="chocolate" stroke-width="1">
    <line x1="506" y1="365" x2="506" y2="365"/>
    <circle cx="506" cy="365" r="2"/>
    <circle cx="506" cy="365" r="2"/>
  </g>
  <g stroke="chocolate" stroke-width="1">
    <line x1="506" y1="365" x2="506" y2="361"/>
    <circle cx="506" cy="365" r="2"/>
    <circle cx="506" cy="361" r="2"/>
  </g>
  <g stroke="chocolate" stroke-width="1">
    <line x1="506" y1="361" x2="505" y2="361"/>
    <circle cx="506" cy="361" r="2"/>
    <circle cx="505" cy="361" r="2"/>
  </g>
  <g stroke="chocolate" stroke-width="1">
    <line x1="506" y1="361" x2="506" y2="361"/>
    <circle cx="506" cy="361" r="2"/>
    <circle cx="506" cy="361" r="2"/>
  </g>
  <g stroke="chocolate" stroke-width="1">
    <line x1="505" y1="365" x2="505" y2="365"/>
    <circle cx="505" cy="365" r="2"/>
    <circle cx="505" cy="365" r="2"/>
  </g>
  <g stroke="chocolate" stroke-width="1">
    <line x1="505" y1="367" x2="505" y2="365"/>
    <circle cx="505" cy="367" r="2"/>
    <circle cx="505" cy="365" r="2"/>
  </g>
  <g stroke="chocolate" stroke-width="1">
    <line x1="505" y1="365" x2="5" y2="350"/>
    <circle cx="505" cy="365" r="2"/>
    <circle cx="5" cy="350" r="2"/>
  </g>
  <g stroke="chocolate" stroke-width="1">
    <line x1="506" y1="365" x2="505" y2="365"/>
    <circle cx="506" cy="365" r="2"/>
    <circle cx="505" cy="365" r="2"/>
  </g>
  <g stroke="chocolate" stroke-width="1">
    <line x1="515" y1="358" x2="515" y2="354"/>
    <circle cx="515" cy="358" r="2"/>
    <circle cx="515" cy="354" r="2"/>
  </g>
  <g stroke="chocolate" stroke-width="1">
    <line x1="515" y1="358" x2="508" y2="358"/>
    <circle cx="515" cy="358" r="2"/>
    <circle cx="508" cy="358" r="2"/>
  </g>
  <g stroke="chocolate" stroke-width="1">
    <line x1="551" y1="359" x2="515" y2="358"/>
    <circle cx="551" cy="359" r="2"/>
    <circle cx="515" cy="358" r="2"/>
  </g>
  <g stroke="chocolate" stroke-width="1">
    <line x1="508" y1="354" x2="507" y2="354"/>
    <circle cx="508" cy="354" r="2"/>
    <circle cx="507" cy="354" r="2"/>
  </g>
  <g stroke="chocolate" stroke-width="1">
    <line x1="515" y1="354" x2="508" y2="354"/>
    <circle cx="515" cy="354" r="2"/>
    <circle cx="508" cy="354" r="2"/>
  </g>
  <g stroke="chocolate" stroke-width="1">
    <line x1="508" y1="358" x2="508" y2="354"/>
    <circle cx="508" cy="358" r="2"/>
    <circle cx="508" cy="354" r="2"/>
  </g>
  <g stroke="chocolate" stroke-width="1">
    <line x1="522" y1="343" x2="528" y2="343"/>
    <circle cx="522" cy="343" r="2"/>
    <circle cx="528" cy="343" r="2"/>
  </g>
  <g stroke="chocolate" stroke-width="1">
    <line x1="522" y1="343" x2="518" y2="328"/>
    <circle cx="522" cy="343" r="2"/>
    <circle cx="518" cy="328" r="2"/>
  </g>
  <g stroke="chocolate" stroke-width="1">
    <line x1="528" y1="345" x2="545" y2="345"/>
    <circle cx="528" cy="345" r="2"/>
    <circle cx="545" cy="345" r="2"/>
  </g>
  <g stroke="chocolate" stroke-width="1">
    <line x1="528" y1="345" x2="528" y2="343"/>
    <circle cx="528" cy="345" r="2"/>
    <circle cx="528" cy="343" r="2"/>
  </g>
  <g stroke="chocolate" stroke-width="1">
    <line x1="525" y1="355" x2="528" y2="345"/>
    <circle cx="525" cy="355" r="2"/>
    <circle cx="528" cy="345" r="2"/>
  </g>
  <g stroke="chocolate" stroke-width="1">
    <line x1="520" y1="385" x2="517" y2="365"/>
    <circle cx="520" cy="385" r="2"/>
    <circle cx="517" cy="365" r="2"/>
  </g>
  <g stroke="chocolate" stroke-width="1">
    <line x1="517" y1="365" x2="506" y2="365"/>
    <circle cx="517" cy="365" r="2"/>
    <circle cx="506" cy="365" r="2"/>
  </g>
  <g stroke="chocolate" stroke-width="1">
    <line x1="550" y1="366" x2="517" y2="365"/>
    <circle cx="550" cy="366" r="2"/>
    <circle cx="517" cy="365" r="2"/>
  </g>
  <g stroke="chocolate" stroke-width="1">
    <line x1="505" y1="352" x2="505" y2="350"/>
    <circle cx="505" cy="352" r="2"/>
    <circle cx="505" cy="350" r="2"/>
  </g>
  <g stroke="chocolate" stroke-width="1">
    <line x1="505" y1="352" x2="5" y2="350"/>
    <circle cx="505" cy="352" r="2"/>
    <circle cx="5" cy="350" r="2"/>
  </g>
  <g stroke="chocolate" stroke-width="1">
    <line x1="507" y1="352" x2="507" y2="348"/>
    <circle cx="507" cy="352" r="2"/>
    <circle cx="507" cy="348" r="2"/>
  </g>
  <g stroke="chocolate" stroke-width="1">
    <line x1="507" y1="354" x2="507" y2="352"/>
    <circle cx="507" cy="354" r="2"/>
    <circle cx="507" cy="352" r="2"/>
  </g>
  <g stroke="chocolate" stroke-width="1">
    <line x1="507" y1="352" x2="506" y2="352"/>
    <circle cx="507" cy="352" r="2"/>
    <circle cx="506" cy="352" r="2"/>
  </g>
  <g stroke="chocolate" stroke-width="1">
    <line x1="508" y1="352" x2="507" y2="352"/>
    <circle cx="508" cy="352" r="2"/>
    <circle cx="507" cy="352" r="2"/>
  </g>
  <g stroke="chocolate" stroke-width="1">
    <line x1="510" y1="328" x2="518" y2="328"/>
    <circle cx="510" cy="328" r="2"/>
    <circle cx="518" cy="328" r="2"/>
  </g>
  <g stroke="chocolate" stroke-width="1">
    <line x1="5" y1="350" x2="510" y2="328"/>
    <circle cx="5" cy="350" r="2"/>
    <circle cx="510" cy="328" r="2"/>
  </g>
  <g stroke="chocolate" stroke-width="1">
    <line x1="510" y1="328" x2="510" y2="322"/>
    <circle cx="510" cy="328" r="2"/>
    <circle cx="510" cy="322" r="2"/>
  </g>
  <g stroke="chocolate" stroke-width="1">
    <line x1="509" y1="334" x2="510" y2="328"/>
    <circle cx="509" cy="334" r="2"/>
    <circle cx="510" cy="328" r="2"/>
  </g>
  <g stroke="chocolate" stroke-width="1">
    <line x1="5" y1="350" x2="508" y2="343"/>
    <circle cx="5" cy="350" r="2"/>
    <circle cx="508" cy="343" r="2"/>
  </g>
  <g stroke="chocolate" stroke-width="1">
    <line x1="508" y1="343" x2="509" y2="334"/>
    <circle cx="508" cy="343" r="2"/>
    <circle cx="509" cy="334" r="2"/>
  </g>
  <g stroke="chocolate" stroke-width="1">
    <line x1="516" y1="321" x2="515" y2="317"/>
    <circle cx="516" cy="321" r="2"/>
    <circle cx="515" cy="317" r="2"/>
  </g>
  <g stroke="chocolate" stroke-width="1">
    <line x1="518" y1="328" x2="516" y2="321"/>
    <circle cx="518" cy="328" r="2"/>
    <circle cx="516" cy="321" r="2"/>
  </g>
  <g stroke="chocolate" stroke-width="1">
    <line x1="516" y1="321" x2="535" y2="320"/>
    <circle cx="516" cy="321" r="2"/>
    <circle cx="535" cy="320" r="2"/>
  </g>
  <g stroke="chocolate" stroke-width="1">
    <line x1="510" y1="322" x2="516" y2="321"/>
    <circle cx="510" cy="322" r="2"/>
    <circle cx="516" cy="321" r="2"/>
  </g>
  <g stroke="chocolate" stroke-width="1">
    <line x1="552" y1="361" x2="560" y2="345"/>
    <circle cx="552" cy="361" r="2"/>
    <circle cx="560" cy="345" r="2"/>
  </g>
  <g stroke="chocolate" stroke-width="1">
    <line x1="567" y1="361" x2="552" y2="361"/>
    <circle cx="567" cy="361" r="2"/>
    <circle cx="552" cy="361" r="2"/>
  </g>
  <g stroke="chocolate" stroke-width="1">
    <line x1="573" y1="362" x2="580" y2="350"/>
    <circle cx="573" cy="362" r="2"/>
    <circle cx="580" cy="350" r="2"/>
  </g>
  <g stroke="chocolate" stroke-width="1">
    <line x1="570" y1="367" x2="573" y2="362"/>
    <circle cx="570" cy="367" r="2"/>
    <circle cx="573" cy="362" r="2"/>
  </g>
  <g stroke="chocolate" stroke-width="1">
    <line x1="573" y1="362" x2="567" y2="361"/>
    <circle cx="573" cy="362" r="2"/>
    <circle cx="567" cy="361" r="2"/>
  </g>
  <g stroke="chocolate" stroke-width="1">
    <line x1="587" y1="362" x2="573" y2="362"/>
    <circle cx="587" cy="362" r="2"/>
    <circle cx="573" cy="362" r="2"/>
  </g>
  <g stroke="chocolate" stroke-width="1">
    <line x1="570" y1="367" x2="570" y2="367"/>
    <circle cx="570" cy="367" r="2"/>
    <circle cx="570" cy="367" r="2"/>
  </g>
  <g stroke="chocolate" stroke-width="1">
    <line x1="570" y1="367" x2="567" y2="361"/>
    <circle cx="570" cy="367" r="2"/>
    <circle cx="567" cy="361" r="2"/>
  </g>
  <g stroke="chocolate" stroke-width="1">
    <line x1="570" y1="367" x2="570" y2="367"/>
    <circle cx="570" cy="367" r="2"/>
    <circle cx="570" cy="367" r="2"/>
  </g>
  <g stroke="chocolate" stroke-width="1">
    <line x1="545" y1="345" x2="557" y2="345"/>
    <circle cx="545" cy="345" r="2"/>
    <circle cx="557" cy="345" r="2"/>
  </g>
  <g stroke="chocolate" stroke-width="1">
    <line x1="545" y1="345" x2="544" y2="343"/>
    <circle cx="545" cy="345" r="2"/>
    <circle cx="544" cy="343" r="2"/>
  </g>
  <g stroke="chocolate" stroke-width="1">
    <line x1="551" y1="359" x2="545" y2="345"/>
    <circle cx="551" cy="359" r="2"/>
    <circle cx="545" cy="345" r="2"/>
  </g>
  <g stroke="chocolate" stroke-width="1">
    <line x1="511" y1="317" x2="511" y2="313"/>
    <circle cx="511" cy="317" r="2"/>
    <circle cx="511" cy="313" r="2"/>
  </g>
  <g stroke="chocolate" stroke-width="1">
    <line x1="510" y1="322" x2="511" y2="317"/>
    <circle cx="510" cy="322" r="2"/>
    <circle cx="511" cy="317" r="2"/>
  </g>
  <g stroke="chocolate" stroke-width="1">
    <line x1="511" y1="317" x2="515" y2="317"/>
    <circle cx="511" cy="317" r="2"/>
    <circle cx="515" cy="317" r="2"/>
  </g>
  <g stroke="chocolate" stroke-width="1">
    <line x1="5" y1="350" x2="511" y2="317"/>
    <circle cx="5" cy="350" r="2"/>
    <circle cx="511" cy="317" r="2"/>
  </g>
  <g stroke="chocolate" stroke-width="1">
    <line x1="515" y1="354" x2="513" y2="346"/>
    <circle cx="515" cy="354" r="2"/>
    <circle cx="513" cy="346" r="2"/>
  </g>
  <g stroke="chocolate" stroke-width="1">
    <line x1="507" y1="346" x2="507" y2="344"/>
    <circle cx="507" cy="346" r="2"/>
    <circle cx="507" cy="344" r="2"/>
  </g>
  <g stroke="chocolate" stroke-width="1">
    <line x1="507" y1="348" x2="507" y2="346"/>
    <circle cx="507" cy="348" r="2"/>
    <circle cx="507" cy="346" r="2"/>
  </g>
  <g stroke="chocolate" stroke-width="1">
    <line x1="507" y1="346" x2="507" y2="346"/>
    <circle cx="507" cy="346" r="2"/>
    <circle cx="507" cy="346" r="2"/>
  </g>
  <g stroke="chocolate" stroke-width="1">
    <line x1="5" y1="350" x2="507" y2="346"/>
    <circle cx="5" cy="350" r="2"/>
    <circle cx="507" cy="346" r="2"/>
  </g>
  <g stroke="chocolate" stroke-width="1">
    <line x1="507" y1="358" x2="507" y2="354"/>
    <circle cx="507" cy="358" r="2"/>
    <circle cx="507" cy="354" r="2"/>
  </g>
  <g stroke="chocolate" stroke-width="1">
    <line x1="508" y1="360" x2="508" y2="360"/>
    <circle cx="508" cy="360" r="2"/>
    <circle cx="508" cy="360" r="2"/>
  </g>
  <g stroke="chocolate" stroke-width="1">
    <line x1="508" y1="360" x2="507" y2="358"/>
    <circle cx="508" cy="360" r="2"/>
    <circle cx="507" cy="358" r="2"/>
  </g>
  <g stroke="chocolate" stroke-width="1">
    <line x1="508" y1="361" x2="508" y2="360"/>
    <circle cx="508" cy="361" r="2"/>
    <circle cx="508" cy="360" r="2"/>
  </g>
  <g stroke="chocolate" stroke-width="1">
    <line x1="508" y1="361" x2="506" y2="361"/>
    <circle cx="508" cy="361" r="2"/>
    <circle cx="506" cy="361" r="2"/>
  </g>
  <g stroke="chocolate" stroke-width="1">
    <line x1="505" y1="365" x2="505" y2="361"/>
    <circle cx="505" cy="365" r="2"/>
    <circle cx="505" cy="361" r="2"/>
  </g>
  <g stroke="chocolate" stroke-width="1">
    <line x1="505" y1="365" x2="5" y2="350"/>
    <circle cx="505" cy="365" r="2"/>
    <circle cx="5" cy="350" r="2"/>
  </g>
  <g stroke="chocolate" stroke-width="1">
    <line x1="506" y1="365" x2="505" y2="365"/>
    <circle cx="506" cy="365" r="2"/>
    <circle cx="505" cy="365" r="2"/>
  </g>
  <g stroke="chocolate" stroke-width="1">
    <line x1="506" y1="365" x2="506" y2="365"/>
    <circle cx="506" cy="365" r="2"/>
    <circle cx="506" cy="365" r="2"/>
  </g>
  <g stroke="chocolate" stroke-width="1">
    <line x1="505" y1="366" x2="506" y2="365"/>
    <circle cx="505" cy="366" r="2"/>
    <circle cx="506" cy="365" r="2"/>
  </g>
  <g stroke="chocolate" stroke-width="1">
    <line x1="506" y1="365" x2="506" y2="365"/>
    <circle cx="506" cy="365" r="2"/>
    <circle cx="506" cy="365" r="2"/>
  </g>
  <g stroke="chocolate" stroke-width="1">
    <line x1="513" y1="313" x2="512" y2="307"/>
    <circle cx="513" cy="313" r="2"/>
    <circle cx="512" cy="307" r="2"/>
  </g>
  <g stroke="chocolate" stroke-width="1">
    <line x1="515" y1="317" x2="513" y2="313"/>
    <circle cx="515" cy="317" r="2"/>
    <circle cx="513" cy="313" r="2"/>
  </g>
  <g stroke="chocolate" stroke-width="1">
    <line x1="513" y1="313" x2="667" y2="301"/>
    <circle cx="513" cy="313" r="2"/>
    <circle cx="667" cy="301" r="2"/>
  </g>
  <g stroke="chocolate" stroke-width="1">
    <line x1="511" y1="313" x2="513" y2="313"/>
    <circle cx="511" cy="313" r="2"/>
    <circle cx="513" cy="313" r="2"/>
  </g>
  <g stroke="chocolate" stroke-width="1">
    <line x1="505" y1="361" x2="505" y2="360"/>
    <circle cx="505" cy="361" r="2"/>
    <circle cx="505" cy="360" r="2"/>
  </g>
  <g stroke="chocolate" stroke-width="1">
    <line x1="505" y1="360" x2="5" y2="350"/>
    <circle cx="505" cy="360" r="2"/>
    <circle cx="5" cy="350" r="2"/>
  </g>
  <g stroke="chocolate" stroke-width="1">
    <line x1="508" y1="358" x2="507" y2="358"/>
    <circle cx="508" cy="358" r="2"/>
    <circle cx="507" cy="358" r="2"/>
  </g>
  <g stroke="chocolate" stroke-width="1">
    <line x1="508" y1="360" x2="508" y2="358"/>
    <circle cx="508" cy="360" r="2"/>
    <circle cx="508" cy="358" r="2"/>
  </g>
  <g stroke="chocolate" stroke-width="1">
    <line x1="538" y1="327" x2="535" y2="320"/>
    <circle cx="538" cy="327" r="2"/>
    <circle cx="535" cy="320" r="2"/>
  </g>
  <g stroke="chocolate" stroke-width="1">
    <line x1="544" y1="343" x2="538" y2="327"/>
    <circle cx="544" cy="343" r="2"/>
    <circle cx="538" cy="327" r="2"/>
  </g>
  <g stroke="chocolate" stroke-width="1">
    <line x1="538" y1="327" x2="566" y2="325"/>
    <circle cx="538" cy="327" r="2"/>
    <circle cx="566" cy="325" r="2"/>
  </g>
  <g stroke="chocolate" stroke-width="1">
    <line x1="533" y1="327" x2="538" y2="327"/>
    <circle cx="533" cy="327" r="2"/>
    <circle cx="538" cy="327" r="2"/>
  </g>
  <g stroke="chocolate" stroke-width="1">
    <line x1="518" y1="328" x2="533" y2="327"/>
    <circle cx="518" cy="328" r="2"/>
    <circle cx="533" cy="327" r="2"/>
  </g>
  <g stroke="chocolate" stroke-width="1">
    <line x1="528" y1="343" x2="544" y2="343"/>
    <circle cx="528" cy="343" r="2"/>
    <circle cx="544" cy="343" r="2"/>
  </g>
  <g stroke="chocolate" stroke-width="1">
    <line x1="528" y1="343" x2="533" y2="327"/>
    <circle cx="528" cy="343" r="2"/>
    <circle cx="533" cy="327" r="2"/>
  </g>
  <g stroke="chocolate" stroke-width="1">
    <line x1="557" y1="345" x2="560" y2="345"/>
    <circle cx="557" cy="345" r="2"/>
    <circle cx="560" cy="345" r="2"/>
  </g>
  <g stroke="chocolate" stroke-width="1">
    <line x1="557" y1="345" x2="558" y2="342"/>
    <circle cx="557" cy="345" r="2"/>
    <circle cx="558" cy="342" r="2"/>
  </g>
  <g stroke="chocolate" stroke-width="1">
    <line x1="551" y1="359" x2="557" y2="345"/>
    <circle cx="551" cy="359" r="2"/>
    <circle cx="557" cy="345" r="2"/>
  </g>
  <g stroke="chocolate" stroke-width="1">
    <line x1="526" y1="417" x2="520" y2="385"/>
    <circle cx="526" cy="417" r="2"/>
    <circle cx="520" cy="385" r="2"/>
  </g>
  <g stroke="chocolate" stroke-width="1">
    <line x1="520" y1="385" x2="5" y2="350"/>
    <circle cx="520" cy="385" r="2"/>
    <circle cx="5" cy="350" r="2"/>
  </g>
  <g stroke="chocolate" stroke-width="1">
    <line x1="540" y1="387" x2="520" y2="385"/>
    <circle cx="540" cy="387" r="2"/>
    <circle cx="520" cy="385" r="2"/>
  </g>
  <g stroke="chocolate" stroke-width="1">
    <line x1="570" y1="367" x2="550" y2="366"/>
    <circle cx="570" cy="367" r="2"/>
    <circle cx="550" cy="366" r="2"/>
  </g>
  <g stroke="chocolate" stroke-width="1">
    <line x1="540" y1="387" x2="550" y2="366"/>
    <circle cx="540" cy="387" r="2"/>
    <circle cx="550" cy="366" r="2"/>
  </g>
  <g stroke="chocolate" stroke-width="1">
    <line x1="576" y1="342" x2="584" y2="342"/>
    <circle cx="576" cy="342" r="2"/>
    <circle cx="584" cy="342" r="2"/>
  </g>
  <g stroke="chocolate" stroke-width="1">
    <line x1="558" y1="342" x2="576" y2="342"/>
    <circle cx="558" cy="342" r="2"/>
    <circle cx="576" cy="342" r="2"/>
  </g>
  <g stroke="chocolate" stroke-width="1">
    <line x1="576" y1="342" x2="566" y2="325"/>
    <circle cx="576" cy="342" r="2"/>
    <circle cx="566" cy="325" r="2"/>
  </g>
  <g stroke="chocolate" stroke-width="1">
    <line x1="580" y1="350" x2="576" y2="342"/>
    <circle cx="580" cy="350" r="2"/>
    <circle cx="576" cy="342" r="2"/>
  </g>
  <g stroke="chocolate" stroke-width="1">
    <line x1="584" y1="342" x2="599" y2="342"/>
    <circle cx="584" cy="342" r="2"/>
    <circle cx="599" cy="342" r="2"/>
  </g>
  <g stroke="chocolate" stroke-width="1">
    <line x1="584" y1="342" x2="602" y2="311"/>
    <circle cx="584" cy="342" r="2"/>
    <circle cx="602" cy="311" r="2"/>
  </g>
  <g stroke="chocolate" stroke-width="1">
    <line x1="580" y1="350" x2="584" y2="342"/>
    <circle cx="580" cy="350" r="2"/>
    <circle cx="584" cy="342" r="2"/>
  </g>
  <g stroke="chocolate" stroke-width="1">
    <line x1="617" y1="368" x2="570" y2="367"/>
    <circle cx="617" cy="368" r="2"/>
    <circle cx="570" cy="367" r="2"/>
  </g>
  <g stroke="chocolate" stroke-width="1">
    <line x1="570" y1="367" x2="570" y2="367"/>
    <circle cx="570" cy="367" r="2"/>
    <circle cx="570" cy="367" r="2"/>
  </g>
  <g stroke="chocolate" stroke-width="1">
    <line x1="507" y1="348" x2="507" y2="348"/>
    <circle cx="507" cy="348" r="2"/>
    <circle cx="507" cy="348" r="2"/>
  </g>
  <g stroke="chocolate" stroke-width="1">
    <line x1="5" y1="350" x2="507" y2="348"/>
    <circle cx="5" cy="350" r="2"/>
    <circle cx="507" cy="348" r="2"/>
  </g>
  <g stroke="chocolate" stroke-width="1">
    <line x1="506" y1="352" x2="507" y2="348"/>
    <circle cx="506" cy="352" r="2"/>
    <circle cx="507" cy="348" r="2"/>
  </g>
  <g stroke="chocolate" stroke-width="1">
    <line x1="509" y1="334" x2="511" y2="334"/>
    <circle cx="509" cy="334" r="2"/>
    <circle cx="511" cy="334" r="2"/>
  </g>
  <g stroke="chocolate" stroke-width="1">
    <line x1="5" y1="350" x2="509" y2="334"/>
    <circle cx="5" cy="350" r="2"/>
    <circle cx="509" cy="334" r="2"/>
  </g>
  <g stroke="chocolate" stroke-width="1">
    <line x1="5" y1="350" x2="510" y2="322"/>
    <circle cx="5" cy="350" r="2"/>
    <circle cx="510" cy="322" r="2"/>
  </g>
  <g stroke="chocolate" stroke-width="1">
    <line x1="567" y1="361" x2="560" y2="345"/>
    <circle cx="567" cy="361" r="2"/>
    <circle cx="560" cy="345" r="2"/>
  </g>
  <g stroke="chocolate" stroke-width="1">
    <line x1="544" y1="343" x2="558" y2="342"/>
    <circle cx="544" cy="343" r="2"/>
    <circle cx="558" cy="342" r="2"/>
  </g>
  <g stroke="chocolate" stroke-width="1">
    <line x1="515" y1="317" x2="602" y2="311"/>
    <circle cx="515" cy="317" r="2"/>
    <circle cx="602" cy="311" r="2"/>
  </g>
  <g stroke="chocolate" stroke-width="1">
    <line x1="525" y1="355" x2="515" y2="354"/>
    <circle cx="525" cy="355" r="2"/>
    <circle cx="515" cy="354" r="2"/>
  </g>
  <g stroke="chocolate" stroke-width="1">
    <line x1="507" y1="346" x2="507" y2="344"/>
    <circle cx="507" cy="346" r="2"/>
    <circle cx="507" cy="344" r="2"/>
  </g>
  <g stroke="chocolate" stroke-width="1">
    <line x1="508" y1="352" x2="507" y2="346"/>
    <circle cx="508" cy="352" r="2"/>
    <circle cx="507" cy="346" r="2"/>
  </g>
  <g stroke="chocolate" stroke-width="1">
    <line x1="505" y1="361" x2="5" y2="350"/>
    <circle cx="505" cy="361" r="2"/>
    <circle cx="5" cy="350" r="2"/>
  </g>
  <g stroke="chocolate" stroke-width="1">
    <line x1="505" y1="367" x2="506" y2="365"/>
    <circle cx="505" cy="367" r="2"/>
    <circle cx="506" cy="365" r="2"/>
  </g>
  <g stroke="chocolate" stroke-width="1">
    <line x1="5" y1="350" x2="511" y2="313"/>
    <circle cx="5" cy="350" r="2"/>
    <circle cx="511" cy="313" r="2"/>
  </g>
  <g stroke="chocolate" stroke-width="1">
    <line x1="511" y1="313" x2="512" y2="307"/>
    <circle cx="511" cy="313" r="2"/>
    <circle cx="512" cy="307" r="2"/>
  </g>
  <g stroke="chocolate" stroke-width="1">
    <line x1="508" y1="361" x2="508" y2="360"/>
    <circle cx="508" cy="361" r="2"/>
    <circle cx="508" cy="360" r="2"/>
  </g>
  <g stroke="chocolate" stroke-width="1">
    <line x1="533" y1="327" x2="535" y2="320"/>
    <circle cx="533" cy="327" r="2"/>
    <circle cx="535" cy="320" r="2"/>
  </g>
  <g stroke="chocolate" stroke-width="1">
    <line x1="630" y1="350" x2="602" y2="311"/>
    <circle cx="630" cy="350" r="2"/>
    <circle cx="602" cy="311" r="2"/>
  </g>
  <g stroke="chocolate" stroke-width="1">
    <line x1="665" y1="395" x2="630" y2="350"/>
    <circle cx="665" cy="395" r="2"/>
    <circle cx="630" cy="350" r="2"/>
  </g>
  <g stroke="chocolate" stroke-width="1">
    <line x1="630" y1="350" x2="667" y2="301"/>
    <circle cx="630" cy="350" r="2"/>
    <circle cx="667" cy="301" r="2"/>
  </g>
  <g stroke="chocolate" stroke-width="1">
    <line x1="617" y1="368" x2="630" y2="350"/>
    <circle cx="617" cy="368" r="2"/>
    <circle cx="630" cy="350" r="2"/>
  </g>
  <g stroke="chocolate" stroke-width="1">
    <line x1="558" y1="342" x2="566" y2="325"/>
    <circle cx="558" cy="342" r="2"/>
    <circle cx="566" cy="325" r="2"/>
  </g>
  <g stroke="chocolate" stroke-width="1">
    <line x1="665" y1="395" x2="540" y2="387"/>
    <circle cx="665" cy="395" r="2"/>
    <circle cx="540" cy="387" r="2"/>
  </g>
  <g stroke="chocolate" stroke-width="1">
    <line x1="526" y1="417" x2="540" y2="387"/>
    <circle cx="526" cy="417" r="2"/>
    <circle cx="540" cy="387" r="2"/>
  </g>
  <g stroke="chocolate" stroke-width="1">
    <line x1="587" y1="362" x2="580" y2="350"/>
    <circle cx="587" cy="362" r="2"/>
    <circle cx="580" cy="350" r="2"/>
  </g>
  <g stroke="chocolate" stroke-width="1">
    <line x1="713" y1="347" x2="667" y2="301"/>
    <circle cx="713" cy="347" r="2"/>
    <circle cx="667" cy="301" r="2"/>
  </g>
  <g stroke="chocolate" stroke-width="1">
    <line x1="5" y1="350" x2="505" y2="350"/>
    <circle cx="5" cy="350" r="2"/>
    <circle cx="505" cy="350" r="2"/>
  </g>
  <g stroke="chocolate" stroke-width="1">
    <line x1="5" y1="350" x2="507" y2="344"/>
    <circle cx="5" cy="350" r="2"/>
    <circle cx="507" cy="344" r="2"/>
  </g>
  <g stroke="chocolate" stroke-width="1">
    <line x1="505" y1="366" x2="5" y2="350"/>
    <circle cx="505" cy="366" r="2"/>
    <circle cx="5" cy="350" r="2"/>
  </g>
  <g stroke="chocolate" stroke-width="1">
    <line x1="505" y1="367" x2="5" y2="350"/>
    <circle cx="505" cy="367" r="2"/>
    <circle cx="5" cy="350" r="2"/>
  </g>
  <g stroke="chocolate" stroke-width="1">
    <line x1="5" y1="350" x2="512" y2="307"/>
    <circle cx="5" cy="350" r="2"/>
    <circle cx="512" cy="307" r="2"/>
  </g>
  <g stroke="chocolate" stroke-width="1">
    <line x1="526" y1="417" x2="5" y2="350"/>
    <circle cx="526" cy="417" r="2"/>
    <circle cx="5" cy="350" r="2"/>
  </g>
  <g stroke="chocolate" stroke-width="1">
    <line x1="617" y1="368" x2="599" y2="342"/>
    <circle cx="617" cy="368" r="2"/>
    <circle cx="599" cy="342" r="2"/>
  </g>
  <g stroke="chocolate" stroke-width="1">
    <line x1="665" y1="395" x2="713" y2="347"/>
    <circle cx="665" cy="395" r="2"/>
    <circle cx="713" cy="347" r="2"/>
  </g>
  <g stroke="chocolate" stroke-width="1">
    <line x1="587" y1="362" x2="599" y2="342"/>
    <circle cx="587" cy="362" r="2"/>
    <circle cx="599" cy="342" r="2"/>
  </g>
  <g stroke="black" stroke-width="1">
    <line x1="109" y1="109" x2="609" y2="109"/>
    <line x1="109" y1="109" x2="109" y2="609"/>
    <line x1="609" y1="609" x2="109" y2="609"/>
    <line x1="609" y1="609" x2="609" y2="109"/>
    <line x1="209" y1="106" x2="209" y2="112"/>
    <line x1="106" y1="209" x2="112" y2="209"/>
    <line x1="209" y1="606" x2="209" y2="612"/>
    <line x1="606" y1="209" x2="612" y2="209"/>
    <line x1="309" y1="106" x2="309" y2="112"/>
    <line x1="106" y1="309" x2="112" y2="309"/>
    <line x1="309" y1="606" x2="309" y2="612"/>
    <line x1="606" y1="309" x2="612" y2="309"/>
    <line x1="409" y1="106" x2="409" y2="112"/>
    <line x1="106" y1="409" x2="112" y2="409"/>
    <line x1="409" y1="606" x2="409" y2="612"/>
    <line x1="606" y1="409" x2="612" y2="409"/>
    <line x1="509" y1="106" x2="509" y2="112"/>
    <line x1="106" y1="509" x2="112" y2="509"/>
    <line x1="509" y1="606" x2="509" y2="612"/>
    <line x1="606" y1="509" x2="612" y2="509"/>
  </g>
  <g stroke="gray" stroke-width="1" stroke-dasharray="5,5">
    <line x1="209" y1="109" x2="209" y2="609"/>
    <line x1="109" y1="209" x2="609" y2="209"/>
    <line x1="309" y1="109" x2="309" y2="609"/>
    <line x1="109" y1="309" x2="609" y2="309"/>
    <line x1="409" y1="109" x2="409" y2="609"/>
    <line x1="109" y1="409" x2="609" y2="409"/>
    <line x1="509" y1="109" x2="509" y2="609"/>
    <line x1="109" y1="509" x2="609" y2="509"/>
  </g>
</svg>
