<?xml version="1.0" standalone="no"?>
<!DOCTYPE svg PUBLIC "-//W3C//DTD SVG 1.1//EN" 
  "http://www.w3.org/Graphics/SVG/1.1/DTD/svg11.dtd">
<svg width="716" height="716" version="1.1" id="toplevel"
    xmlns="http://www.w3.org/2000/svg"
    xmlns:xlink="http://www.w3.org/1999/xlink">
  <polygon points="519,405 520,400 556,402 561,393 605,396 617,379 677,381 711,345 654,347 647,339 592,341 592,340 523,343 513,311 5,362"
           fill="bisque"/>
  <g stroke="chocolate" stroke-width="1">
    <line x1="505" y1="373" x2="505" y2="373"/>
    <circle cx="505" cy="373" r="2"/>
    <circle cx="505" cy="373" r="2"/>
  </g>
  <g stroke="chocolate" stroke-width="1">
    <line x1="506" y1="373" x2="505" y2="373"/>
    <circle cx="506" cy="373" r="2"/>
    <circle cx="505" cy="373" r="2"/>
  </g>
  <g stroke="chocolate" stroke-width="1">
    <line x1="505" y1="373" x2="506" y2="358"/>
    <circle cx="505" cy="373" r="2"/>
    <circle cx="506" cy="358" r="2"/>
  </g>
  <g stroke="chocolate" stroke-width="1">
    <line x1="505" y1="373" x2="505" y2="373"/>
    <circle cx="505" cy="373" r="2"/>
    <circle cx="505" cy="373" r="2"/>
  </g>
  <g stroke="chocolate" stroke-width="1">
    <line x1="513" y1="373" x2="506" y2="373"/>
    <circle cx="513" cy="373" r="2"/>
    <circle cx="506" cy="373" r="2"/>
  </g>
  <g stroke="chocolate" stroke-width="1">
    <line x1="529" y1="374" x2="513" y2="373"/>
    <circle cx="529" cy="374" r="2"/>
    <circle cx="513" cy="373" r="2"/>
  </g>
  <g stroke="chocolate" stroke-width="1">
    <line x1="513" y1="373" x2="511" y2="358"/>
    <circle cx="513" cy="373" r="2"/>
    <circle cx="511" cy="358" r="2"/>
  </g>
  <g stroke="chocolate" stroke-width="1">
    <line x1="513" y1="374" x2="513" y2="373"/>
    <circle cx="513" cy="374" r="2"/>
    <circle cx="513" cy="373" r="2"/>
  </g>
  <g stroke="chocolate" stroke-width="1">
    <line x1="508" y1="357" x2="508" y2="355"/>
    <circle cx="508" cy="357" r="2"/>
    <circle cx="508" cy="355" r="2"/>
  </g>
  <g stroke="chocolate" stroke-width="1">
    <line x1="508" y1="358" x2="508" y2="357"/>
    <circle cx="508" cy="358" r="2"/>
    <circle cx="508" cy="357" r="2"/>
  </g>
  <g stroke="chocolate" stroke-width="1">
    <line x1="508" y1="357" x2="511" y2="357"/>
    <circle cx="508" cy="357" r="2"/>
    <circle cx="511" cy="357" r="2"/>
  </g>
  <g stroke="chocolate" stroke-width="1">
    <line x1="506" y1="357" x2="508" y2="357"/>
    <circle cx="506" cy="357" r="2"/>
    <circle cx="508" cy="357" r="2"/>
  </g>
  <g stroke="chocolate" stroke-width="1">
    <line x1="527" y1="358" x2="535" y2="358"/>
    <circle cx="527" cy="358" r="2"/>
    <circle cx="535" cy="358" r="2"/>
  </g>
  <g stroke="chocolate" stroke-width="1">
    <line x1="511" y1="358" x2="527" y2="358"/>
    <circle cx="511" cy="358" r="2"/>
    <circle cx="527" cy="358" r="2"/>
  </g>
  <g stroke="chocolate" stroke-width="1">
    <line x1="527" y1="358" x2="527" y2="357"/>
    <circle cx="527" cy="358" r="2"/>
    <circle cx="527" cy="357" r="2"/>
  </g>
  <g stroke="chocolate" stroke-width="1">
    <line x1="531" y1="369" x2="527" y2="358"/>
    <circle cx="531" cy="369" r="2"/>
    <circle cx="527" cy="358" r="2"/>
  </g>
  <g stroke="chocolate" stroke-width="1">
    <line x1="505" y1="373" x2="5" y2="362"/>
    <circle cx="505" cy="373" r="2"/>
    <circle cx="5" cy="362" r="2"/>
  </g>
  <g stroke="chocolate" stroke-width="1">
    <line x1="505" y1="373" x2="505" y2="373"/>
    <circle cx="505" cy="373" r="2"/>
    <circle cx="505" cy="373" r="2"/>
  </g>
  <g stroke="chocolate" stroke-width="1">
    <line x1="505" y1="373" x2="505" y2="373"/>
    <circle cx="505" cy="373" r="2"/>
    <circle cx="505" cy="373" r="2"/>
  </g>
  <g stroke="chocolate" stroke-width="1">
    <line x1="505" y1="374" x2="505" y2="373"/>
    <circle cx="505" cy="374" r="2"/>
    <circle cx="505" cy="373" r="2"/>
  </g>
  <g stroke="chocolate" stroke-width="1">
    <line x1="505" y1="376" x2="505" y2="376"/>
    <circle cx="505" cy="376" r="2"/>
    <circle cx="505" cy="376" r="2"/>
  </g>
  <g stroke="chocolate" stroke-width="1">
    <line x1="506" y1="376" x2="505" y2="376"/>
    <circle cx="506" cy="376" r="2"/>
    <circle cx="505" cy="376" r="2"/>
  </g>
  <g stroke="chocolate" stroke-width="1">
    <line x1="505" y1="376" x2="505" y2="376"/>
    <circle cx="505" cy="376" r="2"/>
    <circle cx="505" cy="376" r="2"/>
  </g>
  <g stroke="chocolate" stroke-width="1">
    <line x1="505" y1="381" x2="505" y2="376"/>
    <circle cx="505" cy="381" r="2"/>
    <circle cx="505" cy="376" r="2"/>
  </g>
  <g stroke="chocolate" stroke-width="1">
    <line x1="505" y1="376" x2="505" y2="374"/>
    <circle cx="505" cy="376" r="2"/>
    <circle cx="505" cy="374" r="2"/>
  </g>
  <g stroke="chocolate" stroke-width="1">
    <line x1="505" y1="376" x2="505" y2="376"/>
    <circle cx="505" cy="376" r="2"/>
    <circle cx="505" cy="376" r="2"/>
  </g>
  <g stroke="chocolate" stroke-width="1">
    <line x1="505" y1="376" x2="5" y2="362"/>
    <circle cx="505" cy="376" r="2"/>
    <circle cx="5" cy="362" r="2"/>
  </g>
  <g stroke="chocolate" stroke-width="1">
    <line x1="505" y1="376" x2="505" y2="376"/>
    <circle cx="505" cy="376" r="2"/>
    <circle cx="505" cy="376" r="2"/>
  </g>
  <g stroke="chocolate" stroke-width="1">
    <line x1="528" y1="377" x2="514" y2="376"/>
    <circle cx="528" cy="377" r="2"/>
    <circle cx="514" cy="376" r="2"/>
  </g>
  <g stroke="chocolate" stroke-width="1">
    <line x1="547" y1="377" x2="528" y2="377"/>
    <circle cx="547" cy="377" r="2"/>
    <circle cx="528" cy="377" r="2"/>
  </g>
  <g stroke="chocolate" stroke-width="1">
    <line x1="528" y1="377" x2="528" y2="376"/>
    <circle cx="528" cy="377" r="2"/>
    <circle cx="528" cy="376" r="2"/>
  </g>
  <g stroke="chocolate" stroke-width="1">
    <line x1="525" y1="386" x2="528" y2="377"/>
    <circle cx="525" cy="386" r="2"/>
    <circle cx="528" cy="377" r="2"/>
  </g>
  <g stroke="chocolate" stroke-width="1">
    <line x1="514" y1="376" x2="513" y2="374"/>
    <circle cx="514" cy="376" r="2"/>
    <circle cx="513" cy="374" r="2"/>
  </g>
  <g stroke="chocolate" stroke-width="1">
    <line x1="514" y1="376" x2="514" y2="376"/>
    <circle cx="514" cy="376" r="2"/>
    <circle cx="514" cy="376" r="2"/>
  </g>
  <g stroke="chocolate" stroke-width="1">
    <line x1="514" y1="376" x2="506" y2="376"/>
    <circle cx="514" cy="376" r="2"/>
    <circle cx="506" cy="376" r="2"/>
  </g>
  <g stroke="chocolate" stroke-width="1">
    <line x1="528" y1="376" x2="514" y2="376"/>
    <circle cx="528" cy="376" r="2"/>
    <circle cx="514" cy="376" r="2"/>
  </g>
  <g stroke="chocolate" stroke-width="1">
    <line x1="547" y1="377" x2="546" y2="374"/>
    <circle cx="547" cy="377" r="2"/>
    <circle cx="546" cy="374" r="2"/>
  </g>
  <g stroke="chocolate" stroke-width="1">
    <line x1="547" y1="377" x2="547" y2="377"/>
    <circle cx="547" cy="377" r="2"/>
    <circle cx="547" cy="377" r="2"/>
  </g>
  <g stroke="chocolate" stroke-width="1">
    <line x1="547" y1="377" x2="528" y2="376"/>
    <circle cx="547" cy="377" r="2"/>
    <circle cx="528" cy="376" r="2"/>
  </g>
  <g stroke="chocolate" stroke-width="1">
    <line x1="559" y1="377" x2="547" y2="377"/>
    <circle cx="559" cy="377" r="2"/>
    <circle cx="547" cy="377" r="2"/>
  </g>
  <g stroke="chocolate" stroke-width="1">
    <line x1="572" y1="375" x2="587" y2="348"/>
    <circle cx="572" cy="375" r="2"/>
    <circle cx="587" cy="348" r="2"/>
  </g>
  <g stroke="chocolate" stroke-width="1">
    <line x1="571" y1="377" x2="572" y2="375"/>
    <circle cx="571" cy="377" r="2"/>
    <circle cx="572" cy="375" r="2"/>
  </g>
  <g stroke="chocolate" stroke-width="1">
    <line x1="572" y1="375" x2="558" y2="374"/>
    <circle cx="572" cy="375" r="2"/>
    <circle cx="558" cy="374" r="2"/>
  </g>
  <g stroke="chocolate" stroke-width="1">
    <line x1="592" y1="375" x2="572" y2="375"/>
    <circle cx="592" cy="375" r="2"/>
    <circle cx="572" cy="375" r="2"/>
  </g>
  <g stroke="chocolate" stroke-width="1">
    <line x1="570" y1="378" x2="571" y2="377"/>
    <circle cx="570" cy="378" r="2"/>
    <circle cx="571" cy="377" r="2"/>
  </g>
  <g stroke="chocolate" stroke-width="1">
    <line x1="561" y1="393" x2="570" y2="378"/>
    <circle cx="561" cy="393" r="2"/>
    <circle cx="570" cy="378" r="2"/>
  </g>
  <g stroke="chocolate" stroke-width="1">
    <line x1="570" y1="378" x2="560" y2="378"/>
    <circle cx="570" cy="378" r="2"/>
    <circle cx="560" cy="378" r="2"/>
  </g>
  <g stroke="chocolate" stroke-width="1">
    <line x1="594" y1="379" x2="570" y2="378"/>
    <circle cx="594" cy="379" r="2"/>
    <circle cx="570" cy="378" r="2"/>
  </g>
  <g stroke="chocolate" stroke-width="1">
    <line x1="514" y1="376" x2="506" y2="376"/>
    <circle cx="514" cy="376" r="2"/>
    <circle cx="506" cy="376" r="2"/>
  </g>
  <g stroke="chocolate" stroke-width="1">
    <line x1="506" y1="376" x2="506" y2="376"/>
    <circle cx="506" cy="376" r="2"/>
    <circle cx="506" cy="376" r="2"/>
  </g>
  <g stroke="chocolate" stroke-width="1">
    <line x1="505" y1="386" x2="506" y2="376"/>
    <circle cx="505" cy="386" r="2"/>
    <circle cx="506" cy="376" r="2"/>
  </g>
  <g stroke="chocolate" stroke-width="1">
    <line x1="516" y1="386" x2="514" y2="376"/>
    <circle cx="516" cy="386" r="2"/>
    <circle cx="514" cy="376" r="2"/>
  </g>
  <g stroke="chocolate" stroke-width="1">
    <line x1="516" y1="391" x2="516" y2="386"/>
    <circle cx="516" cy="391" r="2"/>
    <circle cx="516" cy="386" r="2"/>
  </g>
  <g stroke="chocolate" stroke-width="1">
    <line x1="516" y1="386" x2="505" y2="386"/>
    <circle cx="516" cy="386" r="2"/>
    <circle cx="505" cy="386" r="2"/>
  </g>
  <g stroke="chocolate" stroke-width="1">
    <line x1="525" y1="386" x2="516" y2="386"/>
    <circle cx="525" cy="386" r="2"/>
    <circle cx="516" cy="386" r="2"/>
  </g>
  <g stroke="chocolate" stroke-width="1">
    <line x1="560" y1="378" x2="547" y2="377"/>
    <circle cx="560" cy="378" r="2"/>
    <circle cx="547" cy="377" r="2"/>
  </g>
  <g stroke="chocolate" stroke-width="1">
    <line x1="551" y1="388" x2="547" y2="377"/>
    <circle cx="551" cy="388" r="2"/>
    <circle cx="547" cy="377" r="2"/>
  </g>
  <g stroke="chocolate" stroke-width="1">
    <line x1="507" y1="347" x2="507" y2="344"/>
    <circle cx="507" cy="347" r="2"/>
    <circle cx="507" cy="344" r="2"/>
  </g>
  <g stroke="chocolate" stroke-width="1">
    <line x1="507" y1="350" x2="507" y2="347"/>
    <circle cx="507" cy="350" r="2"/>
    <circle cx="507" cy="347" r="2"/>
  </g>
  <g stroke="chocolate" stroke-width="1">
    <line x1="507" y1="347" x2="509" y2="347"/>
    <circle cx="507" cy="347" r="2"/>
    <circle cx="509" cy="347" r="2"/>
  </g>
  <g stroke="chocolate" stroke-width="1">
    <line x1="5" y1="362" x2="507" y2="347"/>
    <circle cx="5" cy="362" r="2"/>
    <circle cx="507" cy="347" r="2"/>
  </g>
  <g stroke="chocolate" stroke-width="1">
    <line x1="523" y1="343" x2="591" y2="341"/>
    <circle cx="523" cy="343" r="2"/>
    <circle cx="591" cy="341" r="2"/>
  </g>
  <g stroke="chocolate" stroke-width="1">
    <line x1="509" y1="344" x2="523" y2="343"/>
    <circle cx="509" cy="344" r="2"/>
    <circle cx="523" cy="343" r="2"/>
  </g>
  <g stroke="chocolate" stroke-width="1">
    <line x1="523" y1="343" x2="523" y2="343"/>
    <circle cx="523" cy="343" r="2"/>
    <circle cx="523" cy="343" r="2"/>
  </g>
  <g stroke="chocolate" stroke-width="1">
    <line x1="524" y1="346" x2="523" y2="343"/>
    <circle cx="524" cy="346" r="2"/>
    <circle cx="523" cy="343" r="2"/>
  </g>
  <g stroke="chocolate" stroke-width="1">
    <line x1="506" y1="373" x2="508" y2="358"/>
    <circle cx="506" cy="373" r="2"/>
    <circle cx="508" cy="358" r="2"/>
  </g>
  <g stroke="chocolate" stroke-width="1">
    <line x1="506" y1="373" x2="506" y2="373"/>
    <circle cx="506" cy="373" r="2"/>
    <circle cx="506" cy="373" r="2"/>
  </g>
  <g stroke="chocolate" stroke-width="1">
    <line x1="506" y1="358" x2="506" y2="358"/>
    <circle cx="506" cy="358" r="2"/>
    <circle cx="506" cy="358" r="2"/>
  </g>
  <g stroke="chocolate" stroke-width="1">
    <line x1="506" y1="358" x2="508" y2="358"/>
    <circle cx="506" cy="358" r="2"/>
    <circle cx="508" cy="358" r="2"/>
  </g>
  <g stroke="chocolate" stroke-width="1">
    <line x1="5" y1="362" x2="506" y2="358"/>
    <circle cx="5" cy="362" r="2"/>
    <circle cx="506" cy="358" r="2"/>
  </g>
  <g stroke="chocolate" stroke-width="1">
    <line x1="597" y1="348" x2="594" y2="344"/>
    <circle cx="597" cy="348" r="2"/>
    <circle cx="594" cy="344" r="2"/>
  </g>
  <g stroke="chocolate" stroke-width="1">
    <line x1="616" y1="376" x2="597" y2="348"/>
    <circle cx="616" cy="376" r="2"/>
    <circle cx="597" cy="348" r="2"/>
  </g>
  <g stroke="chocolate" stroke-width="1">
    <line x1="597" y1="348" x2="641" y2="347"/>
    <circle cx="597" cy="348" r="2"/>
    <circle cx="641" cy="347" r="2"/>
  </g>
  <g stroke="chocolate" stroke-width="1">
    <line x1="587" y1="348" x2="597" y2="348"/>
    <circle cx="587" cy="348" r="2"/>
    <circle cx="597" cy="348" r="2"/>
  </g>
  <g stroke="chocolate" stroke-width="1">
    <line x1="518" y1="399" x2="516" y2="391"/>
    <circle cx="518" cy="399" r="2"/>
    <circle cx="516" cy="391" r="2"/>
  </g>
  <g stroke="chocolate" stroke-width="1">
    <line x1="516" y1="391" x2="5" y2="362"/>
    <circle cx="516" cy="391" r="2"/>
    <circle cx="5" cy="362" r="2"/>
  </g>
  <g stroke="chocolate" stroke-width="1">
    <line x1="523" y1="391" x2="516" y2="391"/>
    <circle cx="523" cy="391" r="2"/>
    <circle cx="516" cy="391" r="2"/>
  </g>
  <g stroke="chocolate" stroke-width="1">
    <line x1="506" y1="356" x2="507" y2="350"/>
    <circle cx="506" cy="356" r="2"/>
    <circle cx="507" cy="350" r="2"/>
  </g>
  <g stroke="chocolate" stroke-width="1">
    <line x1="507" y1="350" x2="509" y2="350"/>
    <circle cx="507" cy="350" r="2"/>
    <circle cx="509" cy="350" r="2"/>
  </g>
  <g stroke="chocolate" stroke-width="1">
    <line x1="5" y1="362" x2="507" y2="350"/>
    <circle cx="5" cy="362" r="2"/>
    <circle cx="507" cy="350" r="2"/>
  </g>
  <g stroke="chocolate" stroke-width="1">
    <line x1="508" y1="355" x2="510" y2="355"/>
    <circle cx="508" cy="355" r="2"/>
    <circle cx="510" cy="355" r="2"/>
  </g>
  <g stroke="chocolate" stroke-width="1">
    <line x1="506" y1="356" x2="508" y2="355"/>
    <circle cx="506" cy="356" r="2"/>
    <circle cx="508" cy="355" r="2"/>
  </g>
  <g stroke="chocolate" stroke-width="1">
    <line x1="508" y1="355" x2="509" y2="350"/>
    <circle cx="508" cy="355" r="2"/>
    <circle cx="509" cy="350" r="2"/>
  </g>
  <g stroke="chocolate" stroke-width="1">
    <line x1="508" y1="358" x2="511" y2="358"/>
    <circle cx="508" cy="358" r="2"/>
    <circle cx="511" cy="358" r="2"/>
  </g>
  <g stroke="chocolate" stroke-width="1">
    <line x1="511" y1="358" x2="511" y2="358"/>
    <circle cx="511" cy="358" r="2"/>
    <circle cx="511" cy="358" r="2"/>
  </g>
  <g stroke="chocolate" stroke-width="1">
    <line x1="511" y1="357" x2="510" y2="355"/>
    <circle cx="511" cy="357" r="2"/>
    <circle cx="510" cy="355" r="2"/>
  </g>
  <g stroke="chocolate" stroke-width="1">
    <line x1="511" y1="358" x2="511" y2="357"/>
    <circle cx="511" cy="358" r="2"/>
    <circle cx="511" cy="357" r="2"/>
  </g>
  <g stroke="chocolate" stroke-width="1">
    <line x1="511" y1="357" x2="527" y2="357"/>
    <circle cx="511" cy="357" r="2"/>
    <circle cx="527" cy="357" r="2"/>
  </g>
  <g stroke="chocolate" stroke-width="1">
    <line x1="527" y1="357" x2="535" y2="357"/>
    <circle cx="527" cy="357" r="2"/>
    <circle cx="535" cy="357" r="2"/>
  </g>
  <g stroke="chocolate" stroke-width="1">
    <line x1="511" y1="358" x2="527" y2="357"/>
    <circle cx="511" cy="358" r="2"/>
    <circle cx="527" cy="357" r="2"/>
  </g>
  <g stroke="chocolate" stroke-width="1">
    <line x1="527" y1="357" x2="527" y2="357"/>
    <circle cx="527" cy="357" r="2"/>
    <circle cx="527" cy="357" r="2"/>
  </g>
  <g stroke="chocolate" stroke-width="1">
    <line x1="506" y1="357" x2="506" y2="356"/>
    <circle cx="506" cy="357" r="2"/>
    <circle cx="506" cy="356" r="2"/>
  </g>
  <g stroke="chocolate" stroke-width="1">
    <line x1="5" y1="362" x2="506" y2="356"/>
    <circle cx="5" cy="362" r="2"/>
    <circle cx="506" cy="356" r="2"/>
  </g>
  <g stroke="chocolate" stroke-width="1">
    <line x1="509" y1="350" x2="525" y2="350"/>
    <circle cx="509" cy="350" r="2"/>
    <circle cx="525" cy="350" r="2"/>
  </g>
  <g stroke="chocolate" stroke-width="1">
    <line x1="509" y1="350" x2="509" y2="350"/>
    <circle cx="509" cy="350" r="2"/>
    <circle cx="509" cy="350" r="2"/>
  </g>
  <g stroke="chocolate" stroke-width="1">
    <line x1="509" y1="350" x2="509" y2="347"/>
    <circle cx="509" cy="350" r="2"/>
    <circle cx="509" cy="347" r="2"/>
  </g>
  <g stroke="chocolate" stroke-width="1">
    <line x1="510" y1="355" x2="509" y2="350"/>
    <circle cx="510" cy="355" r="2"/>
    <circle cx="509" cy="350" r="2"/>
  </g>
  <g stroke="chocolate" stroke-width="1">
    <line x1="505" y1="374" x2="505" y2="373"/>
    <circle cx="505" cy="374" r="2"/>
    <circle cx="505" cy="373" r="2"/>
  </g>
  <g stroke="chocolate" stroke-width="1">
    <line x1="506" y1="373" x2="505" y2="373"/>
    <circle cx="506" cy="373" r="2"/>
    <circle cx="505" cy="373" r="2"/>
  </g>
  <g stroke="chocolate" stroke-width="1">
    <line x1="532" y1="374" x2="529" y2="374"/>
    <circle cx="532" cy="374" r="2"/>
    <circle cx="529" cy="374" r="2"/>
  </g>
  <g stroke="chocolate" stroke-width="1">
    <line x1="529" y1="374" x2="531" y2="369"/>
    <circle cx="529" cy="374" r="2"/>
    <circle cx="531" cy="369" r="2"/>
  </g>
  <g stroke="chocolate" stroke-width="1">
    <line x1="529" y1="374" x2="529" y2="374"/>
    <circle cx="529" cy="374" r="2"/>
    <circle cx="529" cy="374" r="2"/>
  </g>
  <g stroke="chocolate" stroke-width="1">
    <line x1="505" y1="374" x2="5" y2="362"/>
    <circle cx="505" cy="374" r="2"/>
    <circle cx="5" cy="362" r="2"/>
  </g>
  <g stroke="chocolate" stroke-width="1">
    <line x1="505" y1="374" x2="505" y2="374"/>
    <circle cx="505" cy="374" r="2"/>
    <circle cx="505" cy="374" r="2"/>
  </g>
  <g stroke="chocolate" stroke-width="1">
    <line x1="513" y1="374" x2="513" y2="374"/>
    <circle cx="513" cy="374" r="2"/>
    <circle cx="513" cy="374" r="2"/>
  </g>
  <g stroke="chocolate" stroke-width="1">
    <line x1="513" y1="374" x2="506" y2="374"/>
    <circle cx="513" cy="374" r="2"/>
    <circle cx="506" cy="374" r="2"/>
  </g>
  <g stroke="chocolate" stroke-width="1">
    <line x1="529" y1="374" x2="513" y2="374"/>
    <circle cx="529" cy="374" r="2"/>
    <circle cx="513" cy="374" r="2"/>
  </g>
  <g stroke="chocolate" stroke-width="1">
    <line x1="509" y1="344" x2="509" y2="343"/>
    <circle cx="509" cy="344" r="2"/>
    <circle cx="509" cy="343" r="2"/>
  </g>
  <g stroke="chocolate" stroke-width="1">
    <line x1="509" y1="347" x2="509" y2="344"/>
    <circle cx="509" cy="347" r="2"/>
    <circle cx="509" cy="344" r="2"/>
  </g>
  <g stroke="chocolate" stroke-width="1">
    <line x1="508" y1="344" x2="509" y2="344"/>
    <circle cx="508" cy="344" r="2"/>
    <circle cx="509" cy="344" r="2"/>
  </g>
  <g stroke="chocolate" stroke-width="1">
    <line x1="525" y1="350" x2="587" y2="348"/>
    <circle cx="525" cy="350" r="2"/>
    <circle cx="587" cy="348" r="2"/>
  </g>
  <g stroke="chocolate" stroke-width="1">
    <line x1="525" y1="350" x2="524" y2="346"/>
    <circle cx="525" cy="350" r="2"/>
    <circle cx="524" cy="346" r="2"/>
  </g>
  <g stroke="chocolate" stroke-width="1">
    <line x1="527" y1="355" x2="525" y2="350"/>
    <circle cx="527" cy="355" r="2"/>
    <circle cx="525" cy="350" r="2"/>
  </g>
  <g stroke="chocolate" stroke-width="1">
    <line x1="505" y1="376" x2="505" y2="374"/>
    <circle cx="505" cy="376" r="2"/>
    <circle cx="505" cy="374" r="2"/>
  </g>
  <g stroke="chocolate" stroke-width="1">
    <line x1="506" y1="376" x2="505" y2="376"/>
    <circle cx="506" cy="376" r="2"/>
    <circle cx="505" cy="376" r="2"/>
  </g>
  <g stroke="chocolate" stroke-width="1">
    <line x1="528" y1="376" x2="529" y2="374"/>
    <circle cx="528" cy="376" r="2"/>
    <circle cx="529" cy="374" r="2"/>
  </g>
  <g stroke="chocolate" stroke-width="1">
    <line x1="571" y1="377" x2="559" y2="377"/>
    <circle cx="571" cy="377" r="2"/>
    <circle cx="559" cy="377" r="2"/>
  </g>
  <g stroke="chocolate" stroke-width="1">
    <line x1="594" y1="378" x2="571" y2="377"/>
    <circle cx="594" cy="378" r="2"/>
    <circle cx="571" cy="377" r="2"/>
  </g>
  <g stroke="chocolate" stroke-width="1">
    <line x1="558" y1="374" x2="546" y2="374"/>
    <circle cx="558" cy="374" r="2"/>
    <circle cx="546" cy="374" r="2"/>
  </g>
  <g stroke="chocolate" stroke-width="1">
    <line x1="558" y1="374" x2="550" y2="358"/>
    <circle cx="558" cy="374" r="2"/>
    <circle cx="550" cy="358" r="2"/>
  </g>
  <g stroke="chocolate" stroke-width="1">
    <line x1="559" y1="377" x2="558" y2="374"/>
    <circle cx="559" cy="377" r="2"/>
    <circle cx="558" cy="374" r="2"/>
  </g>
  <g stroke="chocolate" stroke-width="1">
    <line x1="594" y1="379" x2="594" y2="378"/>
    <circle cx="594" cy="379" r="2"/>
    <circle cx="594" cy="378" r="2"/>
  </g>
  <g stroke="chocolate" stroke-width="1">
    <line x1="605" y1="396" x2="594" y2="379"/>
    <circle cx="605" cy="396" r="2"/>
    <circle cx="594" cy="379" r="2"/>
  </g>
  <g stroke="chocolate" stroke-width="1">
    <line x1="617" y1="379" x2="594" y2="379"/>
    <circle cx="617" cy="379" r="2"/>
    <circle cx="594" cy="379" r="2"/>
  </g>
  <g stroke="chocolate" stroke-width="1">
    <line x1="505" y1="389" x2="505" y2="386"/>
    <circle cx="505" cy="389" r="2"/>
    <circle cx="505" cy="386" r="2"/>
  </g>
  <g stroke="chocolate" stroke-width="1">
    <line x1="505" y1="386" x2="505" y2="386"/>
    <circle cx="505" cy="386" r="2"/>
    <circle cx="505" cy="386" r="2"/>
  </g>
  <g stroke="chocolate" stroke-width="1">
    <line x1="553" y1="393" x2="551" y2="388"/>
    <circle cx="553" cy="393" r="2"/>
    <circle cx="551" cy="388" r="2"/>
  </g>
  <g stroke="chocolate" stroke-width="1">
    <line x1="551" y1="388" x2="525" y2="386"/>
    <circle cx="551" cy="388" r="2"/>
    <circle cx="525" cy="386" r="2"/>
  </g>
  <g stroke="chocolate" stroke-width="1">
    <line x1="564" y1="388" x2="551" y2="388"/>
    <circle cx="564" cy="388" r="2"/>
    <circle cx="551" cy="388" r="2"/>
  </g>
  <g stroke="chocolate" stroke-width="1">
    <line x1="509" y1="347" x2="509" y2="347"/>
    <circle cx="509" cy="347" r="2"/>
    <circle cx="509" cy="347" r="2"/>
  </g>
  <g stroke="chocolate" stroke-width="1">
    <line x1="509" y1="347" x2="508" y2="344"/>
    <circle cx="509" cy="347" r="2"/>
    <circle cx="508" cy="344" r="2"/>
  </g>
  <g stroke="chocolate" stroke-width="1">
    <line x1="509" y1="347" x2="509" y2="347"/>
    <circle cx="509" cy="347" r="2"/>
    <circle cx="509" cy="347" r="2"/>
  </g>
  <g stroke="chocolate" stroke-width="1">
    <line x1="523" y1="343" x2="513" y2="311"/>
    <circle cx="523" cy="343" r="2"/>
    <circle cx="513" cy="311" r="2"/>
  </g>
  <g stroke="chocolate" stroke-width="1">
    <line x1="523" y1="343" x2="592" y2="340"/>
    <circle cx="523" cy="343" r="2"/>
    <circle cx="592" cy="340" r="2"/>
  </g>
  <g stroke="chocolate" stroke-width="1">
    <line x1="509" y1="343" x2="523" y2="343"/>
    <circle cx="509" cy="343" r="2"/>
    <circle cx="523" cy="343" r="2"/>
  </g>
  <g stroke="chocolate" stroke-width="1">
    <line x1="508" y1="343" x2="508" y2="339"/>
    <circle cx="508" cy="343" r="2"/>
    <circle cx="508" cy="339" r="2"/>
  </g>
  <g stroke="chocolate" stroke-width="1">
    <line x1="508" y1="344" x2="508" y2="343"/>
    <circle cx="508" cy="344" r="2"/>
    <circle cx="508" cy="343" r="2"/>
  </g>
  <g stroke="chocolate" stroke-width="1">
    <line x1="508" y1="343" x2="509" y2="343"/>
    <circle cx="508" cy="343" r="2"/>
    <circle cx="509" cy="343" r="2"/>
  </g>
  <g stroke="chocolate" stroke-width="1">
    <line x1="507" y1="343" x2="508" y2="343"/>
    <circle cx="507" cy="343" r="2"/>
    <circle cx="508" cy="343" r="2"/>
  </g>
  <g stroke="chocolate" stroke-width="1">
    <line x1="509" y1="347" x2="524" y2="346"/>
    <circle cx="509" cy="347" r="2"/>
    <circle cx="524" cy="346" r="2"/>
  </g>
  <g stroke="chocolate" stroke-width="1">
    <line x1="509" y1="347" x2="509" y2="347"/>
    <circle cx="509" cy="347" r="2"/>
    <circle cx="509" cy="347" r="2"/>
  </g>
  <g stroke="chocolate" stroke-width="1">
    <line x1="508" y1="358" x2="508" y2="358"/>
    <circle cx="508" cy="358" r="2"/>
    <circle cx="508" cy="358" r="2"/>
  </g>
  <g stroke="chocolate" stroke-width="1">
    <line x1="505" y1="373" x2="5" y2="362"/>
    <circle cx="505" cy="373" r="2"/>
    <circle cx="5" cy="362" r="2"/>
  </g>
  <g stroke="chocolate" stroke-width="1">
    <line x1="505" y1="373" x2="505" y2="362"/>
    <circle cx="505" cy="373" r="2"/>
    <circle cx="505" cy="362" r="2"/>
  </g>
  <g stroke="chocolate" stroke-width="1">
    <line x1="617" y1="379" x2="616" y2="376"/>
    <circle cx="617" cy="379" r="2"/>
    <circle cx="616" cy="376" r="2"/>
  </g>
  <g stroke="chocolate" stroke-width="1">
    <line x1="616" y1="376" x2="592" y2="375"/>
    <circle cx="616" cy="376" r="2"/>
    <circle cx="592" cy="375" r="2"/>
  </g>
  <g stroke="chocolate" stroke-width="1">
    <line x1="620" y1="376" x2="616" y2="376"/>
    <circle cx="620" cy="376" r="2"/>
    <circle cx="616" cy="376" r="2"/>
  </g>
  <g stroke="chocolate" stroke-width="1">
    <line x1="641" y1="347" x2="648" y2="347"/>
    <circle cx="641" cy="347" r="2"/>
    <circle cx="648" cy="347" r="2"/>
  </g>
  <g stroke="chocolate" stroke-width="1">
    <line x1="641" y1="347" x2="647" y2="339"/>
    <circle cx="641" cy="347" r="2"/>
    <circle cx="647" cy="339" r="2"/>
  </g>
  <g stroke="chocolate" stroke-width="1">
    <line x1="620" y1="376" x2="641" y2="347"/>
    <circle cx="620" cy="376" r="2"/>
    <circle cx="641" cy="347" r="2"/>
  </g>
  <g stroke="chocolate" stroke-width="1">
    <line x1="546" y1="374" x2="541" y2="374"/>
    <circle cx="546" cy="374" r="2"/>
    <circle cx="541" cy="374" r="2"/>
  </g>
  <g stroke="chocolate" stroke-width="1">
    <line x1="546" y1="374" x2="544" y2="369"/>
    <circle cx="546" cy="374" r="2"/>
    <circle cx="544" cy="369" r="2"/>
  </g>
  <g stroke="chocolate" stroke-width="1">
    <line x1="523" y1="391" x2="525" y2="386"/>
    <circle cx="523" cy="391" r="2"/>
    <circle cx="525" cy="386" r="2"/>
  </g>
  <g stroke="chocolate" stroke-width="1">
    <line x1="520" y1="400" x2="523" y2="391"/>
    <circle cx="520" cy="400" r="2"/>
    <circle cx="523" cy="391" r="2"/>
  </g>
  <g stroke="chocolate" stroke-width="1">
    <line x1="553" y1="393" x2="523" y2="391"/>
    <circle cx="553" cy="393" r="2"/>
    <circle cx="523" cy="391" r="2"/>
  </g>
  <g stroke="chocolate" stroke-width="1">
    <line x1="509" y1="350" x2="509" y2="347"/>
    <circle cx="509" cy="350" r="2"/>
    <circle cx="509" cy="347" r="2"/>
  </g>
  <g stroke="chocolate" stroke-width="1">
    <line x1="508" y1="358" x2="511" y2="358"/>
    <circle cx="508" cy="358" r="2"/>
    <circle cx="511" cy="358" r="2"/>
  </g>
  <g stroke="chocolate" stroke-width="1">
    <line x1="506" y1="358" x2="506" y2="357"/>
    <circle cx="506" cy="358" r="2"/>
    <circle cx="506" cy="357" r="2"/>
  </g>
  <g stroke="chocolate" stroke-width="1">
    <line x1="506" y1="358" x2="508" y2="358"/>
    <circle cx="506" cy="358" r="2"/>
    <circle cx="508" cy="358" r="2"/>
  </g>
  <g stroke="chocolate" stroke-width="1">
    <line x1="5" y1="362" x2="506" y2="358"/>
    <circle cx="5" cy="362" r="2"/>
    <circle cx="506" cy="358" r="2"/>
  </g>
  <g stroke="chocolate" stroke-width="1">
    <line x1="507" y1="344" x2="508" y2="344"/>
    <circle cx="507" cy="344" r="2"/>
    <circle cx="508" cy="344" r="2"/>
  </g>
  <g stroke="chocolate" stroke-width="1">
    <line x1="5" y1="362" x2="507" y2="344"/>
    <circle cx="5" cy="362" r="2"/>
    <circle cx="507" cy="344" r="2"/>
  </g>
  <g stroke="chocolate" stroke-width="1">
    <line x1="507" y1="344" x2="507" y2="343"/>
    <circle cx="507" cy="344" r="2"/>
    <circle cx="507" cy="343" r="2"/>
  </g>
  <g stroke="chocolate" stroke-width="1">
    <line x1="527" y1="357" x2="539" y2="357"/>
    <circle cx="527" cy="357" r="2"/>
    <circle cx="539" cy="357" r="2"/>
  </g>
  <g stroke="chocolate" stroke-width="1">
    <line x1="527" y1="357" x2="527" y2="355"/>
    <circle cx="527" cy="357" r="2"/>
    <circle cx="527" cy="355" r="2"/>
  </g>
  <g stroke="chocolate" stroke-width="1">
    <line x1="510" y1="355" x2="527" y2="355"/>
    <circle cx="510" cy="355" r="2"/>
    <circle cx="527" cy="355" r="2"/>
  </g>
  <g stroke="chocolate" stroke-width="1">
    <line x1="506" y1="374" x2="506" y2="373"/>
    <circle cx="506" cy="374" r="2"/>
    <circle cx="506" cy="373" r="2"/>
  </g>
  <g stroke="chocolate" stroke-width="1">
    <line x1="513" y1="374" x2="506" y2="373"/>
    <circle cx="513" cy="374" r="2"/>
    <circle cx="506" cy="373" r="2"/>
  </g>
  <g stroke="chocolate" stroke-width="1">
    <line x1="529" y1="374" x2="529" y2="374"/>
    <circle cx="529" cy="374" r="2"/>
    <circle cx="529" cy="374" r="2"/>
  </g>
  <g stroke="chocolate" stroke-width="1">
    <line x1="529" y1="374" x2="513" y2="374"/>
    <circle cx="529" cy="374" r="2"/>
    <circle cx="513" cy="374" r="2"/>
  </g>
  <g stroke="chocolate" stroke-width="1">
    <line x1="532" y1="374" x2="529" y2="374"/>
    <circle cx="532" cy="374" r="2"/>
    <circle cx="529" cy="374" r="2"/>
  </g>
  <g stroke="chocolate" stroke-width="1">
    <line x1="506" y1="374" x2="505" y2="374"/>
    <circle cx="506" cy="374" r="2"/>
    <circle cx="505" cy="374" r="2"/>
  </g>
  <g stroke="chocolate" stroke-width="1">
    <line x1="541" y1="375" x2="529" y2="374"/>
    <circle cx="541" cy="375" r="2"/>
    <circle cx="529" cy="374" r="2"/>
  </g>
  <g stroke="chocolate" stroke-width="1">
    <line x1="674" y1="377" x2="620" y2="376"/>
    <circle cx="674" cy="377" r="2"/>
    <circle cx="620" cy="376" r="2"/>
  </g>
  <g stroke="chocolate" stroke-width="1">
    <line x1="681" y1="377" x2="674" y2="377"/>
    <circle cx="681" cy="377" r="2"/>
    <circle cx="674" cy="377" r="2"/>
  </g>
  <g stroke="chocolate" stroke-width="1">
    <line x1="674" y1="377" x2="648" y2="347"/>
    <circle cx="674" cy="377" r="2"/>
    <circle cx="648" cy="347" r="2"/>
  </g>
  <g stroke="chocolate" stroke-width="1">
    <line x1="677" y1="381" x2="674" y2="377"/>
    <circle cx="677" cy="381" r="2"/>
    <circle cx="674" cy="377" r="2"/>
  </g>
  <g stroke="chocolate" stroke-width="1">
    <line x1="591" y1="341" x2="592" y2="341"/>
    <circle cx="591" cy="341" r="2"/>
    <circle cx="592" cy="341" r="2"/>
  </g>
  <g stroke="chocolate" stroke-width="1">
    <line x1="591" y1="341" x2="592" y2="340"/>
    <circle cx="591" cy="341" r="2"/>
    <circle cx="592" cy="340" r="2"/>
  </g>
  <g stroke="chocolate" stroke-width="1">
    <line x1="589" y1="344" x2="591" y2="341"/>
    <circle cx="589" cy="344" r="2"/>
    <circle cx="591" cy="341" r="2"/>
  </g>
  <g stroke="chocolate" stroke-width="1">
    <line x1="587" y1="348" x2="589" y2="344"/>
    <circle cx="587" cy="348" r="2"/>
    <circle cx="589" cy="344" r="2"/>
  </g>
  <g stroke="chocolate" stroke-width="1">
    <line x1="524" y1="346" x2="589" y2="344"/>
    <circle cx="524" cy="346" r="2"/>
    <circle cx="589" cy="344" r="2"/>
  </g>
  <g stroke="chocolate" stroke-width="1">
    <line x1="519" y1="405" x2="518" y2="399"/>
    <circle cx="519" cy="405" r="2"/>
    <circle cx="518" cy="399" r="2"/>
  </g>
  <g stroke="chocolate" stroke-width="1">
    <line x1="518" y1="399" x2="5" y2="362"/>
    <circle cx="518" cy="399" r="2"/>
    <circle cx="5" cy="362" r="2"/>
  </g>
  <g stroke="chocolate" stroke-width="1">
    <line x1="520" y1="400" x2="518" y2="399"/>
    <circle cx="520" cy="400" r="2"/>
    <circle cx="518" cy="399" r="2"/>
  </g>
  <g stroke="chocolate" stroke-width="1">
    <line x1="594" y1="344" x2="645" y2="342"/>
    <circle cx="594" cy="344" r="2"/>
    <circle cx="645" cy="342" r="2"/>
  </g>
  <g stroke="chocolate" stroke-width="1">
    <line x1="589" y1="344" x2="594" y2="344"/>
    <circle cx="589" cy="344" r="2"/>
    <circle cx="594" cy="344" r="2"/>
  </g>
  <g stroke="chocolate" stroke-width="1">
    <line x1="594" y1="344" x2="592" y2="341"/>
    <circle cx="594" cy="344" r="2"/>
    <circle cx="592" cy="341" r="2"/>
  </g>
  <g stroke="chocolate" stroke-width="1">
    <line x1="506" y1="376" x2="506" y2="374"/>
    <circle cx="506" cy="376" r="2"/>
    <circle cx="506" cy="374" r="2"/>
  </g>
  <g stroke="chocolate" stroke-width="1">
    <line x1="594" y1="378" x2="592" y2="375"/>
    <circle cx="594" cy="378" r="2"/>
    <circle cx="592" cy="375" r="2"/>
  </g>
  <g stroke="chocolate" stroke-width="1">
    <line x1="617" y1="379" x2="594" y2="378"/>
    <circle cx="617" cy="379" r="2"/>
    <circle cx="594" cy="378" r="2"/>
  </g>
  <g stroke="chocolate" stroke-width="1">
    <line x1="550" y1="358" x2="582" y2="357"/>
    <circle cx="550" cy="358" r="2"/>
    <circle cx="582" cy="357" r="2"/>
  </g>
  <g stroke="chocolate" stroke-width="1">
    <line x1="548" y1="358" x2="550" y2="358"/>
    <circle cx="548" cy="358" r="2"/>
    <circle cx="550" cy="358" r="2"/>
  </g>
  <g stroke="chocolate" stroke-width="1">
    <line x1="550" y1="358" x2="549" y2="355"/>
    <circle cx="550" cy="358" r="2"/>
    <circle cx="549" cy="355" r="2"/>
  </g>
  <g stroke="chocolate" stroke-width="1">
    <line x1="560" y1="378" x2="559" y2="377"/>
    <circle cx="560" cy="378" r="2"/>
    <circle cx="559" cy="377" r="2"/>
  </g>
  <g stroke="chocolate" stroke-width="1">
    <line x1="564" y1="388" x2="560" y2="378"/>
    <circle cx="564" cy="388" r="2"/>
    <circle cx="560" cy="378" r="2"/>
  </g>
  <g stroke="chocolate" stroke-width="1">
    <line x1="509" y1="343" x2="513" y2="311"/>
    <circle cx="509" cy="343" r="2"/>
    <circle cx="513" cy="311" r="2"/>
  </g>
  <g stroke="chocolate" stroke-width="1">
    <line x1="533" y1="374" x2="532" y2="374"/>
    <circle cx="533" cy="374" r="2"/>
    <circle cx="532" cy="374" r="2"/>
  </g>
  <g stroke="chocolate" stroke-width="1">
    <line x1="532" y1="374" x2="531" y2="369"/>
    <circle cx="532" cy="374" r="2"/>
    <circle cx="531" cy="369" r="2"/>
  </g>
  <g stroke="chocolate" stroke-width="1">
    <line x1="532" y1="374" x2="532" y2="374"/>
    <circle cx="532" cy="374" r="2"/>
    <circle cx="532" cy="374" r="2"/>
  </g>
  <g stroke="chocolate" stroke-width="1">
    <line x1="535" y1="358" x2="535" y2="358"/>
    <circle cx="535" cy="358" r="2"/>
    <circle cx="535" cy="358" r="2"/>
  </g>
  <g stroke="chocolate" stroke-width="1">
    <line x1="535" y1="358" x2="535" y2="357"/>
    <circle cx="535" cy="358" r="2"/>
    <circle cx="535" cy="357" r="2"/>
  </g>
  <g stroke="chocolate" stroke-width="1">
    <line x1="531" y1="369" x2="535" y2="358"/>
    <circle cx="531" cy="369" r="2"/>
    <circle cx="535" cy="358" r="2"/>
  </g>
  <g stroke="chocolate" stroke-width="1">
    <line x1="535" y1="358" x2="538" y2="358"/>
    <circle cx="535" cy="358" r="2"/>
    <circle cx="538" cy="358" r="2"/>
  </g>
  <g stroke="chocolate" stroke-width="1">
    <line x1="535" y1="358" x2="535" y2="357"/>
    <circle cx="535" cy="358" r="2"/>
    <circle cx="535" cy="357" r="2"/>
  </g>
  <g stroke="chocolate" stroke-width="1">
    <line x1="537" y1="362" x2="535" y2="358"/>
    <circle cx="537" cy="362" r="2"/>
    <circle cx="535" cy="358" r="2"/>
  </g>
  <g stroke="chocolate" stroke-width="1">
    <line x1="541" y1="374" x2="533" y2="374"/>
    <circle cx="541" cy="374" r="2"/>
    <circle cx="533" cy="374" r="2"/>
  </g>
  <g stroke="chocolate" stroke-width="1">
    <line x1="541" y1="374" x2="541" y2="374"/>
    <circle cx="541" cy="374" r="2"/>
    <circle cx="541" cy="374" r="2"/>
  </g>
  <g stroke="chocolate" stroke-width="1">
    <line x1="541" y1="374" x2="537" y2="362"/>
    <circle cx="541" cy="374" r="2"/>
    <circle cx="537" cy="362" r="2"/>
  </g>
  <g stroke="chocolate" stroke-width="1">
    <line x1="541" y1="375" x2="541" y2="374"/>
    <circle cx="541" cy="375" r="2"/>
    <circle cx="541" cy="374" r="2"/>
  </g>
  <g stroke="chocolate" stroke-width="1">
    <line x1="538" y1="358" x2="539" y2="358"/>
    <circle cx="538" cy="358" r="2"/>
    <circle cx="539" cy="358" r="2"/>
  </g>
  <g stroke="chocolate" stroke-width="1">
    <line x1="538" y1="358" x2="539" y2="357"/>
    <circle cx="538" cy="358" r="2"/>
    <circle cx="539" cy="357" r="2"/>
  </g>
  <g stroke="chocolate" stroke-width="1">
    <line x1="537" y1="362" x2="538" y2="358"/>
    <circle cx="537" cy="362" r="2"/>
    <circle cx="538" cy="358" r="2"/>
  </g>
  <g stroke="chocolate" stroke-width="1">
    <line x1="533" y1="374" x2="537" y2="362"/>
    <circle cx="533" cy="374" r="2"/>
    <circle cx="537" cy="362" r="2"/>
  </g>
  <g stroke="chocolate" stroke-width="1">
    <line x1="532" y1="374" x2="533" y2="374"/>
    <circle cx="532" cy="374" r="2"/>
    <circle cx="533" cy="374" r="2"/>
  </g>
  <g stroke="chocolate" stroke-width="1">
    <line x1="539" y1="358" x2="548" y2="358"/>
    <circle cx="539" cy="358" r="2"/>
    <circle cx="548" cy="358" r="2"/>
  </g>
  <g stroke="chocolate" stroke-width="1">
    <line x1="539" y1="358" x2="539" y2="357"/>
    <circle cx="539" cy="358" r="2"/>
    <circle cx="539" cy="357" r="2"/>
  </g>
  <g stroke="chocolate" stroke-width="1">
    <line x1="544" y1="369" x2="539" y2="358"/>
    <circle cx="544" cy="369" r="2"/>
    <circle cx="539" cy="358" r="2"/>
  </g>
  <g stroke="chocolate" stroke-width="1">
    <line x1="541" y1="374" x2="544" y2="369"/>
    <circle cx="541" cy="374" r="2"/>
    <circle cx="544" cy="369" r="2"/>
  </g>
  <g stroke="chocolate" stroke-width="1">
    <line x1="541" y1="375" x2="541" y2="374"/>
    <circle cx="541" cy="375" r="2"/>
    <circle cx="541" cy="374" r="2"/>
  </g>
  <g stroke="chocolate" stroke-width="1">
    <line x1="505" y1="386" x2="505" y2="376"/>
    <circle cx="505" cy="386" r="2"/>
    <circle cx="505" cy="376" r="2"/>
  </g>
  <g stroke="chocolate" stroke-width="1">
    <line x1="505" y1="376" x2="5" y2="362"/>
    <circle cx="505" cy="376" r="2"/>
    <circle cx="5" cy="362" r="2"/>
  </g>
  <g stroke="chocolate" stroke-width="1">
    <line x1="617" y1="379" x2="620" y2="376"/>
    <circle cx="617" cy="379" r="2"/>
    <circle cx="620" cy="376" r="2"/>
  </g>
  <g stroke="chocolate" stroke-width="1">
    <line x1="556" y1="402" x2="553" y2="393"/>
    <circle cx="556" cy="402" r="2"/>
    <circle cx="553" cy="393" r="2"/>
  </g>
  <g stroke="chocolate" stroke-width="1">
    <line x1="561" y1="393" x2="553" y2="393"/>
    <circle cx="561" cy="393" r="2"/>
    <circle cx="553" cy="393" r="2"/>
  </g>
  <g stroke="chocolate" stroke-width="1">
    <line x1="654" y1="347" x2="711" y2="345"/>
    <circle cx="654" cy="347" r="2"/>
    <circle cx="711" cy="345" r="2"/>
  </g>
  <g stroke="chocolate" stroke-width="1">
    <line x1="648" y1="347" x2="654" y2="347"/>
    <circle cx="648" cy="347" r="2"/>
    <circle cx="654" cy="347" r="2"/>
  </g>
  <g stroke="chocolate" stroke-width="1">
    <line x1="654" y1="347" x2="647" y2="339"/>
    <circle cx="654" cy="347" r="2"/>
    <circle cx="647" cy="339" r="2"/>
  </g>
  <g stroke="chocolate" stroke-width="1">
    <line x1="681" y1="377" x2="654" y2="347"/>
    <circle cx="681" cy="377" r="2"/>
    <circle cx="654" cy="347" r="2"/>
  </g>
  <g stroke="chocolate" stroke-width="1">
    <line x1="548" y1="358" x2="549" y2="355"/>
    <circle cx="548" cy="358" r="2"/>
    <circle cx="549" cy="355" r="2"/>
  </g>
  <g stroke="chocolate" stroke-width="1">
    <line x1="544" y1="369" x2="548" y2="358"/>
    <circle cx="544" cy="369" r="2"/>
    <circle cx="548" cy="358" r="2"/>
  </g>
  <g stroke="chocolate" stroke-width="1">
    <line x1="5" y1="362" x2="506" y2="357"/>
    <circle cx="5" cy="362" r="2"/>
    <circle cx="506" cy="357" r="2"/>
  </g>
  <g stroke="chocolate" stroke-width="1">
    <line x1="527" y1="355" x2="549" y2="355"/>
    <circle cx="527" cy="355" r="2"/>
    <circle cx="549" cy="355" r="2"/>
  </g>
  <g stroke="chocolate" stroke-width="1">
    <line x1="648" y1="347" x2="645" y2="342"/>
    <circle cx="648" cy="347" r="2"/>
    <circle cx="645" cy="342" r="2"/>
  </g>
  <g stroke="chocolate" stroke-width="1">
    <line x1="519" y1="405" x2="520" y2="400"/>
    <circle cx="519" cy="405" r="2"/>
    <circle cx="520" cy="400" r="2"/>
  </g>
  <g stroke="chocolate" stroke-width="1">
    <line x1="556" y1="402" x2="520" y2="400"/>
    <circle cx="556" cy="402" r="2"/>
    <circle cx="520" cy="400" r="2"/>
  </g>
  <g stroke="chocolate" stroke-width="1">
    <line x1="592" y1="341" x2="647" y2="339"/>
    <circle cx="592" cy="341" r="2"/>
    <circle cx="647" cy="339" r="2"/>
  </g>
  <g stroke="chocolate" stroke-width="1">
    <line x1="592" y1="341" x2="592" y2="340"/>
    <circle cx="592" cy="341" r="2"/>
    <circle cx="592" cy="340" r="2"/>
  </g>
  <g stroke="chocolate" stroke-width="1">
    <line x1="592" y1="375" x2="582" y2="357"/>
    <circle cx="592" cy="375" r="2"/>
    <circle cx="582" cy="357" r="2"/>
  </g>
  <g stroke="chocolate" stroke-width="1">
    <line x1="505" y1="386" x2="5" y2="362"/>
    <circle cx="505" cy="386" r="2"/>
    <circle cx="5" cy="362" r="2"/>
  </g>
  <g stroke="chocolate" stroke-width="1">
    <line x1="505" y1="389" x2="505" y2="386"/>
    <circle cx="505" cy="389" r="2"/>
    <circle cx="505" cy="386" r="2"/>
  </g>
  <g stroke="chocolate" stroke-width="1">
    <line x1="5" y1="362" x2="507" y2="343"/>
    <circle cx="5" cy="362" r="2"/>
    <circle cx="507" cy="343" r="2"/>
  </g>
  <g stroke="chocolate" stroke-width="1">
    <line x1="507" y1="343" x2="508" y2="339"/>
    <circle cx="507" cy="343" r="2"/>
    <circle cx="508" cy="339" r="2"/>
  </g>
  <g stroke="chocolate" stroke-width="1">
    <line x1="677" y1="381" x2="617" y2="379"/>
    <circle cx="677" cy="381" r="2"/>
    <circle cx="617" cy="379" r="2"/>
  </g>
  <g stroke="chocolate" stroke-width="1">
    <line x1="605" y1="396" x2="617" y2="379"/>
    <circle cx="605" cy="396" r="2"/>
    <circle cx="617" cy="379" r="2"/>
  </g>
  <g stroke="chocolate" stroke-width="1">
    <line x1="605" y1="396" x2="561" y2="393"/>
    <circle cx="605" cy="396" r="2"/>
    <circle cx="561" cy="393" r="2"/>
  </g>
  <g stroke="chocolate" stroke-width="1">
    <line x1="556" y1="402" x2="561" y2="393"/>
    <circle cx="556" cy="402" r="2"/>
    <circle cx="561" cy="393" r="2"/>
  </g>
  <g stroke="chocolate" stroke-width="1">
    <line x1="5" y1="362" x2="505" y2="362"/>
    <circle cx="5" cy="362" r="2"/>
    <circle cx="505" cy="362" r="2"/>
  </g>
  <g stroke="chocolate" stroke-width="1">
    <line x1="505" y1="381" x2="5" y2="362"/>
    <circle cx="505" cy="381" r="2"/>
    <circle cx="5" cy="362" r="2"/>
  </g>
  <g stroke="chocolate" stroke-width="1">
    <line x1="5" y1="362" x2="508" y2="339"/>
    <circle cx="5" cy="362" r="2"/>
    <circle cx="508" cy="339" r="2"/>
  </g>
  <g stroke="chocolate" stroke-width="1">
    <line x1="505" y1="389" x2="5" y2="362"/>
    <circle cx="505" cy="389" r="2"/>
    <circle cx="5" cy="362" r="2"/>
  </g>
  <g stroke="chocolate" stroke-width="1">
    <line x1="519" y1="405" x2="5" y2="362"/>
    <circle cx="519" cy="405" r="2"/>
    <circle cx="5" cy="362" r="2"/>
  </g>
  <g stroke="chocolate" stroke-width="1">
    <line x1="5" y1="362" x2="513" y2="311"/>
    <circle cx="5" cy="362" r="2"/>
    <circle cx="513" cy="311" r="2"/>
  </g>
  <g stroke="chocolate" stroke-width="1">
    <line x1="677" y1="381" x2="711" y2="345"/>
    <circle cx="677" cy="381" r="2"/>
    <circle cx="711" cy="345" r="2"/>
  </g>
  <g stroke="black" stroke-width="1">
    <line x1="108" y1="108" x2="608" y2="108"/>
    <line x1="108" y1="108" x2="108" y2="608"/>
    <line x1="608" y1="608" x2="108" y2="608"/>
    <line x1="608" y1="608" x2="608" y2="108"/>
    <line x1="208" y1="105" x2="208" y2="111"/>
    <line x1="105" y1="208" x2="111" y2="208"/>
    <line x1="208" y1="605" x2="208" y2="611"/>
    <line x1="605" y1="208" x2="611" y2="208"/>
    <line x1="308" y1="105" x2="308" y2="111"/>
    <line x1="105" y1="308" x2="111" y2="308"/>
    <line x1="308" y1="605" x2="308" y2="611"/>
    <line x1="605" y1="308" x2="611" y2="308"/>
    <line x1="408" y1="105" x2="408" y2="111"/>
    <line x1="105" y1="408" x2="111" y2="408"/>
    <line x1="408" y1="605" x2="408" y2="611"/>
    <line x1="605" y1="408" x2="611" y2="408"/>
    <line x1="508" y1="105" x2="508" y2="111"/>
    <line x1="105" y1="508" x2="111" y2="508"/>
    <line x1="508" y1="605" x2="508" y2="611"/>
    <line x1="605" y1="508" x2="611" y2="508"/>
  </g>
  <g stroke="gray" stroke-width="1" stroke-dasharray="5,5">
    <line x1="208" y1="108" x2="208" y2="608"/>
    <line x1="108" y1="208" x2="608" y2="208"/>
    <line x1="308" y1="108" x2="308" y2="608"/>
    <line x1="108" y1="308" x2="608" y2="308"/>
    <line x1="408" y1="108" x2="408" y2="608"/>
    <line x1="108" y1="408" x2="608" y2="408"/>
    <line x1="508" y1="108" x2="508" y2="608"/>
    <line x1="108" y1="508" x2="608" y2="508"/>
  </g>
</svg>
