<?xml version="1.0" standalone="no"?>
<!DOCTYPE svg PUBLIC "-//W3C//DTD SVG 1.1//EN" 
  "http://www.w3.org/Graphics/SVG/1.1/DTD/svg11.dtd">
<svg width="716" height="716" version="1.1" id="toplevel"
    xmlns="http://www.w3.org/2000/svg"
    xmlns:xlink="http://www.w3.org/1999/xlink">
  <polygon points="505,409 509,388 551,391 554,385 658,391 662,387 692,389 711,370 695,353 662,353 645,333 615,334 595,307 5,353"
           fill="bisque"/>
  <g stroke="chocolate" stroke-width="1">
    <line x1="517" y1="353" x2="521" y2="337"/>
    <circle cx="517" cy="353" r="2"/>
    <circle cx="521" cy="337" r="2"/>
  </g>
  <g stroke="chocolate" stroke-width="1">
    <line x1="517" y1="355" x2="517" y2="353"/>
    <circle cx="517" cy="355" r="2"/>
    <circle cx="517" cy="353" r="2"/>
  </g>
  <g stroke="chocolate" stroke-width="1">
    <line x1="517" y1="353" x2="519" y2="353"/>
    <circle cx="517" cy="353" r="2"/>
    <circle cx="519" cy="353" r="2"/>
  </g>
  <g stroke="chocolate" stroke-width="1">
    <line x1="515" y1="353" x2="517" y2="353"/>
    <circle cx="515" cy="353" r="2"/>
    <circle cx="517" cy="353" r="2"/>
  </g>
  <g stroke="chocolate" stroke-width="1">
    <line x1="509" y1="383" x2="505" y2="382"/>
    <circle cx="509" cy="383" r="2"/>
    <circle cx="505" cy="382" r="2"/>
  </g>
  <g stroke="chocolate" stroke-width="1">
    <line x1="510" y1="383" x2="509" y2="383"/>
    <circle cx="510" cy="383" r="2"/>
    <circle cx="509" cy="383" r="2"/>
  </g>
  <g stroke="chocolate" stroke-width="1">
    <line x1="509" y1="383" x2="510" y2="379"/>
    <circle cx="509" cy="383" r="2"/>
    <circle cx="510" cy="379" r="2"/>
  </g>
  <g stroke="chocolate" stroke-width="1">
    <line x1="508" y1="388" x2="509" y2="383"/>
    <circle cx="508" cy="388" r="2"/>
    <circle cx="509" cy="383" r="2"/>
  </g>
  <g stroke="chocolate" stroke-width="1">
    <line x1="511" y1="379" x2="516" y2="355"/>
    <circle cx="511" cy="379" r="2"/>
    <circle cx="516" cy="355" r="2"/>
  </g>
  <g stroke="chocolate" stroke-width="1">
    <line x1="510" y1="383" x2="511" y2="379"/>
    <circle cx="510" cy="383" r="2"/>
    <circle cx="511" cy="379" r="2"/>
  </g>
  <g stroke="chocolate" stroke-width="1">
    <line x1="511" y1="379" x2="510" y2="379"/>
    <circle cx="511" cy="379" r="2"/>
    <circle cx="510" cy="379" r="2"/>
  </g>
  <g stroke="chocolate" stroke-width="1">
    <line x1="539" y1="381" x2="511" y2="379"/>
    <circle cx="539" cy="381" r="2"/>
    <circle cx="511" cy="379" r="2"/>
  </g>
  <g stroke="chocolate" stroke-width="1">
    <line x1="530" y1="353" x2="537" y2="353"/>
    <circle cx="530" cy="353" r="2"/>
    <circle cx="537" cy="353" r="2"/>
  </g>
  <g stroke="chocolate" stroke-width="1">
    <line x1="520" y1="353" x2="530" y2="353"/>
    <circle cx="520" cy="353" r="2"/>
    <circle cx="530" cy="353" r="2"/>
  </g>
  <g stroke="chocolate" stroke-width="1">
    <line x1="530" y1="353" x2="528" y2="345"/>
    <circle cx="530" cy="353" r="2"/>
    <circle cx="528" cy="345" r="2"/>
  </g>
  <g stroke="chocolate" stroke-width="1">
    <line x1="531" y1="355" x2="530" y2="353"/>
    <circle cx="531" cy="355" r="2"/>
    <circle cx="530" cy="353" r="2"/>
  </g>
  <g stroke="chocolate" stroke-width="1">
    <line x1="571" y1="353" x2="579" y2="353"/>
    <circle cx="571" cy="353" r="2"/>
    <circle cx="579" cy="353" r="2"/>
  </g>
  <g stroke="chocolate" stroke-width="1">
    <line x1="561" y1="353" x2="571" y2="353"/>
    <circle cx="561" cy="353" r="2"/>
    <circle cx="571" cy="353" r="2"/>
  </g>
  <g stroke="chocolate" stroke-width="1">
    <line x1="571" y1="353" x2="575" y2="346"/>
    <circle cx="571" cy="353" r="2"/>
    <circle cx="575" cy="346" r="2"/>
  </g>
  <g stroke="chocolate" stroke-width="1">
    <line x1="570" y1="355" x2="571" y2="353"/>
    <circle cx="570" cy="355" r="2"/>
    <circle cx="571" cy="353" r="2"/>
  </g>
  <g stroke="chocolate" stroke-width="1">
    <line x1="537" y1="353" x2="561" y2="353"/>
    <circle cx="537" cy="353" r="2"/>
    <circle cx="561" cy="353" r="2"/>
  </g>
  <g stroke="chocolate" stroke-width="1">
    <line x1="537" y1="353" x2="531" y2="337"/>
    <circle cx="537" cy="353" r="2"/>
    <circle cx="531" cy="337" r="2"/>
  </g>
  <g stroke="chocolate" stroke-width="1">
    <line x1="537" y1="355" x2="537" y2="353"/>
    <circle cx="537" cy="355" r="2"/>
    <circle cx="537" cy="353" r="2"/>
  </g>
  <g stroke="chocolate" stroke-width="1">
    <line x1="547" y1="381" x2="539" y2="381"/>
    <circle cx="547" cy="381" r="2"/>
    <circle cx="539" cy="381" r="2"/>
  </g>
  <g stroke="chocolate" stroke-width="1">
    <line x1="547" y1="381" x2="547" y2="381"/>
    <circle cx="547" cy="381" r="2"/>
    <circle cx="547" cy="381" r="2"/>
  </g>
  <g stroke="chocolate" stroke-width="1">
    <line x1="547" y1="381" x2="537" y2="355"/>
    <circle cx="547" cy="381" r="2"/>
    <circle cx="537" cy="355" r="2"/>
  </g>
  <g stroke="chocolate" stroke-width="1">
    <line x1="547" y1="381" x2="547" y2="381"/>
    <circle cx="547" cy="381" r="2"/>
    <circle cx="547" cy="381" r="2"/>
  </g>
  <g stroke="chocolate" stroke-width="1">
    <line x1="515" y1="355" x2="515" y2="355"/>
    <circle cx="515" cy="355" r="2"/>
    <circle cx="515" cy="355" r="2"/>
  </g>
  <g stroke="chocolate" stroke-width="1">
    <line x1="510" y1="379" x2="515" y2="355"/>
    <circle cx="510" cy="379" r="2"/>
    <circle cx="515" cy="355" r="2"/>
  </g>
  <g stroke="chocolate" stroke-width="1">
    <line x1="515" y1="355" x2="505" y2="355"/>
    <circle cx="515" cy="355" r="2"/>
    <circle cx="505" cy="355" r="2"/>
  </g>
  <g stroke="chocolate" stroke-width="1">
    <line x1="516" y1="355" x2="515" y2="355"/>
    <circle cx="516" cy="355" r="2"/>
    <circle cx="515" cy="355" r="2"/>
  </g>
  <g stroke="chocolate" stroke-width="1">
    <line x1="505" y1="379" x2="5" y2="353"/>
    <circle cx="505" cy="379" r="2"/>
    <circle cx="5" cy="353" r="2"/>
  </g>
  <g stroke="chocolate" stroke-width="1">
    <line x1="510" y1="379" x2="505" y2="379"/>
    <circle cx="510" cy="379" r="2"/>
    <circle cx="505" cy="379" r="2"/>
  </g>
  <g stroke="chocolate" stroke-width="1">
    <line x1="505" y1="379" x2="505" y2="355"/>
    <circle cx="505" cy="379" r="2"/>
    <circle cx="505" cy="355" r="2"/>
  </g>
  <g stroke="chocolate" stroke-width="1">
    <line x1="505" y1="382" x2="505" y2="379"/>
    <circle cx="505" cy="382" r="2"/>
    <circle cx="505" cy="379" r="2"/>
  </g>
  <g stroke="chocolate" stroke-width="1">
    <line x1="540" y1="384" x2="510" y2="383"/>
    <circle cx="540" cy="384" r="2"/>
    <circle cx="510" cy="383" r="2"/>
  </g>
  <g stroke="chocolate" stroke-width="1">
    <line x1="509" y1="388" x2="510" y2="383"/>
    <circle cx="509" cy="388" r="2"/>
    <circle cx="510" cy="383" r="2"/>
  </g>
  <g stroke="chocolate" stroke-width="1">
    <line x1="505" y1="355" x2="505" y2="353"/>
    <circle cx="505" cy="355" r="2"/>
    <circle cx="505" cy="353" r="2"/>
  </g>
  <g stroke="chocolate" stroke-width="1">
    <line x1="505" y1="355" x2="505" y2="355"/>
    <circle cx="505" cy="355" r="2"/>
    <circle cx="505" cy="355" r="2"/>
  </g>
  <g stroke="chocolate" stroke-width="1">
    <line x1="505" y1="355" x2="5" y2="353"/>
    <circle cx="505" cy="355" r="2"/>
    <circle cx="5" cy="353" r="2"/>
  </g>
  <g stroke="chocolate" stroke-width="1">
    <line x1="515" y1="355" x2="505" y2="355"/>
    <circle cx="515" cy="355" r="2"/>
    <circle cx="505" cy="355" r="2"/>
  </g>
  <g stroke="chocolate" stroke-width="1">
    <line x1="516" y1="355" x2="517" y2="355"/>
    <circle cx="516" cy="355" r="2"/>
    <circle cx="517" cy="355" r="2"/>
  </g>
  <g stroke="chocolate" stroke-width="1">
    <line x1="517" y1="355" x2="515" y2="355"/>
    <circle cx="517" cy="355" r="2"/>
    <circle cx="515" cy="355" r="2"/>
  </g>
  <g stroke="chocolate" stroke-width="1">
    <line x1="520" y1="355" x2="517" y2="355"/>
    <circle cx="520" cy="355" r="2"/>
    <circle cx="517" cy="355" r="2"/>
  </g>
  <g stroke="chocolate" stroke-width="1">
    <line x1="5" y1="353" x2="515" y2="353"/>
    <circle cx="5" cy="353" r="2"/>
    <circle cx="515" cy="353" r="2"/>
  </g>
  <g stroke="chocolate" stroke-width="1">
    <line x1="515" y1="353" x2="516" y2="349"/>
    <circle cx="515" cy="353" r="2"/>
    <circle cx="516" cy="349" r="2"/>
  </g>
  <g stroke="chocolate" stroke-width="1">
    <line x1="515" y1="355" x2="515" y2="353"/>
    <circle cx="515" cy="355" r="2"/>
    <circle cx="515" cy="353" r="2"/>
  </g>
  <g stroke="chocolate" stroke-width="1">
    <line x1="505" y1="388" x2="505" y2="388"/>
    <circle cx="505" cy="388" r="2"/>
    <circle cx="505" cy="388" r="2"/>
  </g>
  <g stroke="chocolate" stroke-width="1">
    <line x1="505" y1="409" x2="505" y2="388"/>
    <circle cx="505" cy="409" r="2"/>
    <circle cx="505" cy="388" r="2"/>
  </g>
  <g stroke="chocolate" stroke-width="1">
    <line x1="505" y1="388" x2="5" y2="353"/>
    <circle cx="505" cy="388" r="2"/>
    <circle cx="5" cy="353" r="2"/>
  </g>
  <g stroke="chocolate" stroke-width="1">
    <line x1="508" y1="388" x2="505" y2="388"/>
    <circle cx="508" cy="388" r="2"/>
    <circle cx="505" cy="388" r="2"/>
  </g>
  <g stroke="chocolate" stroke-width="1">
    <line x1="524" y1="337" x2="525" y2="337"/>
    <circle cx="524" cy="337" r="2"/>
    <circle cx="525" cy="337" r="2"/>
  </g>
  <g stroke="chocolate" stroke-width="1">
    <line x1="521" y1="337" x2="524" y2="337"/>
    <circle cx="521" cy="337" r="2"/>
    <circle cx="524" cy="337" r="2"/>
  </g>
  <g stroke="chocolate" stroke-width="1">
    <line x1="524" y1="337" x2="525" y2="337"/>
    <circle cx="524" cy="337" r="2"/>
    <circle cx="525" cy="337" r="2"/>
  </g>
  <g stroke="chocolate" stroke-width="1">
    <line x1="523" y1="344" x2="524" y2="337"/>
    <circle cx="523" cy="344" r="2"/>
    <circle cx="524" cy="337" r="2"/>
  </g>
  <g stroke="chocolate" stroke-width="1">
    <line x1="520" y1="355" x2="520" y2="355"/>
    <circle cx="520" cy="355" r="2"/>
    <circle cx="520" cy="355" r="2"/>
  </g>
  <g stroke="chocolate" stroke-width="1">
    <line x1="531" y1="355" x2="520" y2="355"/>
    <circle cx="531" cy="355" r="2"/>
    <circle cx="520" cy="355" r="2"/>
  </g>
  <g stroke="chocolate" stroke-width="1">
    <line x1="520" y1="355" x2="520" y2="353"/>
    <circle cx="520" cy="355" r="2"/>
    <circle cx="520" cy="353" r="2"/>
  </g>
  <g stroke="chocolate" stroke-width="1">
    <line x1="520" y1="355" x2="520" y2="355"/>
    <circle cx="520" cy="355" r="2"/>
    <circle cx="520" cy="355" r="2"/>
  </g>
  <g stroke="chocolate" stroke-width="1">
    <line x1="525" y1="337" x2="530" y2="337"/>
    <circle cx="525" cy="337" r="2"/>
    <circle cx="530" cy="337" r="2"/>
  </g>
  <g stroke="chocolate" stroke-width="1">
    <line x1="525" y1="337" x2="525" y2="337"/>
    <circle cx="525" cy="337" r="2"/>
    <circle cx="525" cy="337" r="2"/>
  </g>
  <g stroke="chocolate" stroke-width="1">
    <line x1="525" y1="337" x2="525" y2="336"/>
    <circle cx="525" cy="337" r="2"/>
    <circle cx="525" cy="336" r="2"/>
  </g>
  <g stroke="chocolate" stroke-width="1">
    <line x1="525" y1="337" x2="525" y2="337"/>
    <circle cx="525" cy="337" r="2"/>
    <circle cx="525" cy="337" r="2"/>
  </g>
  <g stroke="chocolate" stroke-width="1">
    <line x1="537" y1="355" x2="531" y2="355"/>
    <circle cx="537" cy="355" r="2"/>
    <circle cx="531" cy="355" r="2"/>
  </g>
  <g stroke="chocolate" stroke-width="1">
    <line x1="539" y1="381" x2="531" y2="355"/>
    <circle cx="539" cy="381" r="2"/>
    <circle cx="531" cy="355" r="2"/>
  </g>
  <g stroke="chocolate" stroke-width="1">
    <line x1="561" y1="353" x2="569" y2="336"/>
    <circle cx="561" cy="353" r="2"/>
    <circle cx="569" cy="336" r="2"/>
  </g>
  <g stroke="chocolate" stroke-width="1">
    <line x1="560" y1="355" x2="561" y2="353"/>
    <circle cx="560" cy="355" r="2"/>
    <circle cx="561" cy="353" r="2"/>
  </g>
  <g stroke="chocolate" stroke-width="1">
    <line x1="556" y1="382" x2="547" y2="381"/>
    <circle cx="556" cy="382" r="2"/>
    <circle cx="547" cy="381" r="2"/>
  </g>
  <g stroke="chocolate" stroke-width="1">
    <line x1="547" y1="381" x2="560" y2="355"/>
    <circle cx="547" cy="381" r="2"/>
    <circle cx="560" cy="355" r="2"/>
  </g>
  <g stroke="chocolate" stroke-width="1">
    <line x1="547" y1="381" x2="547" y2="381"/>
    <circle cx="547" cy="381" r="2"/>
    <circle cx="547" cy="381" r="2"/>
  </g>
  <g stroke="chocolate" stroke-width="1">
    <line x1="540" y1="384" x2="539" y2="381"/>
    <circle cx="540" cy="384" r="2"/>
    <circle cx="539" cy="381" r="2"/>
  </g>
  <g stroke="chocolate" stroke-width="1">
    <line x1="542" y1="391" x2="540" y2="384"/>
    <circle cx="542" cy="391" r="2"/>
    <circle cx="540" cy="384" r="2"/>
  </g>
  <g stroke="chocolate" stroke-width="1">
    <line x1="545" y1="385" x2="540" y2="384"/>
    <circle cx="545" cy="385" r="2"/>
    <circle cx="540" cy="384" r="2"/>
  </g>
  <g stroke="chocolate" stroke-width="1">
    <line x1="570" y1="355" x2="560" y2="355"/>
    <circle cx="570" cy="355" r="2"/>
    <circle cx="560" cy="355" r="2"/>
  </g>
  <g stroke="chocolate" stroke-width="1">
    <line x1="580" y1="355" x2="570" y2="355"/>
    <circle cx="580" cy="355" r="2"/>
    <circle cx="570" cy="355" r="2"/>
  </g>
  <g stroke="chocolate" stroke-width="1">
    <line x1="556" y1="382" x2="570" y2="355"/>
    <circle cx="556" cy="382" r="2"/>
    <circle cx="570" cy="355" r="2"/>
  </g>
  <g stroke="chocolate" stroke-width="1">
    <line x1="554" y1="385" x2="548" y2="385"/>
    <circle cx="554" cy="385" r="2"/>
    <circle cx="548" cy="385" r="2"/>
  </g>
  <g stroke="chocolate" stroke-width="1">
    <line x1="658" y1="391" x2="554" y2="385"/>
    <circle cx="658" cy="391" r="2"/>
    <circle cx="554" cy="385" r="2"/>
  </g>
  <g stroke="chocolate" stroke-width="1">
    <line x1="554" y1="385" x2="556" y2="382"/>
    <circle cx="554" cy="385" r="2"/>
    <circle cx="556" cy="382" r="2"/>
  </g>
  <g stroke="chocolate" stroke-width="1">
    <line x1="551" y1="391" x2="554" y2="385"/>
    <circle cx="551" cy="391" r="2"/>
    <circle cx="554" cy="385" r="2"/>
  </g>
  <g stroke="chocolate" stroke-width="1">
    <line x1="530" y1="337" x2="531" y2="337"/>
    <circle cx="530" cy="337" r="2"/>
    <circle cx="531" cy="337" r="2"/>
  </g>
  <g stroke="chocolate" stroke-width="1">
    <line x1="525" y1="337" x2="530" y2="337"/>
    <circle cx="525" cy="337" r="2"/>
    <circle cx="530" cy="337" r="2"/>
  </g>
  <g stroke="chocolate" stroke-width="1">
    <line x1="530" y1="337" x2="530" y2="337"/>
    <circle cx="530" cy="337" r="2"/>
    <circle cx="530" cy="337" r="2"/>
  </g>
  <g stroke="chocolate" stroke-width="1">
    <line x1="528" y1="345" x2="530" y2="337"/>
    <circle cx="528" cy="345" r="2"/>
    <circle cx="530" cy="337" r="2"/>
  </g>
  <g stroke="chocolate" stroke-width="1">
    <line x1="521" y1="337" x2="521" y2="337"/>
    <circle cx="521" cy="337" r="2"/>
    <circle cx="521" cy="337" r="2"/>
  </g>
  <g stroke="chocolate" stroke-width="1">
    <line x1="5" y1="353" x2="521" y2="337"/>
    <circle cx="5" cy="353" r="2"/>
    <circle cx="521" cy="337" r="2"/>
  </g>
  <g stroke="chocolate" stroke-width="1">
    <line x1="521" y1="337" x2="521" y2="337"/>
    <circle cx="521" cy="337" r="2"/>
    <circle cx="521" cy="337" r="2"/>
  </g>
  <g stroke="chocolate" stroke-width="1">
    <line x1="531" y1="337" x2="581" y2="335"/>
    <circle cx="531" cy="337" r="2"/>
    <circle cx="581" cy="335" r="2"/>
  </g>
  <g stroke="chocolate" stroke-width="1">
    <line x1="530" y1="337" x2="531" y2="337"/>
    <circle cx="530" cy="337" r="2"/>
    <circle cx="531" cy="337" r="2"/>
  </g>
  <g stroke="chocolate" stroke-width="1">
    <line x1="531" y1="337" x2="530" y2="336"/>
    <circle cx="531" cy="337" r="2"/>
    <circle cx="530" cy="336" r="2"/>
  </g>
  <g stroke="chocolate" stroke-width="1">
    <line x1="531" y1="337" x2="531" y2="337"/>
    <circle cx="531" cy="337" r="2"/>
    <circle cx="531" cy="337" r="2"/>
  </g>
  <g stroke="chocolate" stroke-width="1">
    <line x1="560" y1="355" x2="537" y2="355"/>
    <circle cx="560" cy="355" r="2"/>
    <circle cx="537" cy="355" r="2"/>
  </g>
  <g stroke="chocolate" stroke-width="1">
    <line x1="581" y1="335" x2="592" y2="335"/>
    <circle cx="581" cy="335" r="2"/>
    <circle cx="592" cy="335" r="2"/>
  </g>
  <g stroke="chocolate" stroke-width="1">
    <line x1="581" y1="335" x2="590" y2="317"/>
    <circle cx="581" cy="335" r="2"/>
    <circle cx="590" cy="317" r="2"/>
  </g>
  <g stroke="chocolate" stroke-width="1">
    <line x1="575" y1="346" x2="581" y2="335"/>
    <circle cx="575" cy="346" r="2"/>
    <circle cx="581" cy="335" r="2"/>
  </g>
  <g stroke="chocolate" stroke-width="1">
    <line x1="662" y1="353" x2="645" y2="333"/>
    <circle cx="662" cy="353" r="2"/>
    <circle cx="645" cy="333" r="2"/>
  </g>
  <g stroke="chocolate" stroke-width="1">
    <line x1="677" y1="371" x2="662" y2="353"/>
    <circle cx="677" cy="371" r="2"/>
    <circle cx="662" cy="353" r="2"/>
  </g>
  <g stroke="chocolate" stroke-width="1">
    <line x1="662" y1="353" x2="695" y2="353"/>
    <circle cx="662" cy="353" r="2"/>
    <circle cx="695" cy="353" r="2"/>
  </g>
  <g stroke="chocolate" stroke-width="1">
    <line x1="630" y1="353" x2="662" y2="353"/>
    <circle cx="630" cy="353" r="2"/>
    <circle cx="662" cy="353" r="2"/>
  </g>
  <g stroke="chocolate" stroke-width="1">
    <line x1="655" y1="387" x2="556" y2="382"/>
    <circle cx="655" cy="387" r="2"/>
    <circle cx="556" cy="382" r="2"/>
  </g>
  <g stroke="chocolate" stroke-width="1">
    <line x1="662" y1="387" x2="655" y2="387"/>
    <circle cx="662" cy="387" r="2"/>
    <circle cx="655" cy="387" r="2"/>
  </g>
  <g stroke="chocolate" stroke-width="1">
    <line x1="655" y1="387" x2="630" y2="353"/>
    <circle cx="655" cy="387" r="2"/>
    <circle cx="630" cy="353" r="2"/>
  </g>
  <g stroke="chocolate" stroke-width="1">
    <line x1="658" y1="391" x2="655" y2="387"/>
    <circle cx="658" cy="391" r="2"/>
    <circle cx="655" cy="387" r="2"/>
  </g>
  <g stroke="chocolate" stroke-width="1">
    <line x1="519" y1="353" x2="520" y2="353"/>
    <circle cx="519" cy="353" r="2"/>
    <circle cx="520" cy="353" r="2"/>
  </g>
  <g stroke="chocolate" stroke-width="1">
    <line x1="519" y1="353" x2="518" y2="348"/>
    <circle cx="519" cy="353" r="2"/>
    <circle cx="518" cy="348" r="2"/>
  </g>
  <g stroke="chocolate" stroke-width="1">
    <line x1="520" y1="355" x2="519" y2="353"/>
    <circle cx="520" cy="355" r="2"/>
    <circle cx="519" cy="353" r="2"/>
  </g>
  <g stroke="chocolate" stroke-width="1">
    <line x1="505" y1="355" x2="5" y2="353"/>
    <circle cx="505" cy="355" r="2"/>
    <circle cx="5" cy="353" r="2"/>
  </g>
  <g stroke="chocolate" stroke-width="1">
    <line x1="505" y1="388" x2="505" y2="382"/>
    <circle cx="505" cy="388" r="2"/>
    <circle cx="505" cy="382" r="2"/>
  </g>
  <g stroke="chocolate" stroke-width="1">
    <line x1="505" y1="388" x2="5" y2="353"/>
    <circle cx="505" cy="388" r="2"/>
    <circle cx="5" cy="353" r="2"/>
  </g>
  <g stroke="chocolate" stroke-width="1">
    <line x1="508" y1="388" x2="505" y2="388"/>
    <circle cx="508" cy="388" r="2"/>
    <circle cx="505" cy="388" r="2"/>
  </g>
  <g stroke="chocolate" stroke-width="1">
    <line x1="509" y1="388" x2="509" y2="388"/>
    <circle cx="509" cy="388" r="2"/>
    <circle cx="509" cy="388" r="2"/>
  </g>
  <g stroke="chocolate" stroke-width="1">
    <line x1="509" y1="388" x2="508" y2="388"/>
    <circle cx="509" cy="388" r="2"/>
    <circle cx="508" cy="388" r="2"/>
  </g>
  <g stroke="chocolate" stroke-width="1">
    <line x1="542" y1="391" x2="509" y2="388"/>
    <circle cx="542" cy="391" r="2"/>
    <circle cx="509" cy="388" r="2"/>
  </g>
  <g stroke="chocolate" stroke-width="1">
    <line x1="508" y1="388" x2="508" y2="388"/>
    <circle cx="508" cy="388" r="2"/>
    <circle cx="508" cy="388" r="2"/>
  </g>
  <g stroke="chocolate" stroke-width="1">
    <line x1="505" y1="405" x2="508" y2="388"/>
    <circle cx="505" cy="405" r="2"/>
    <circle cx="508" cy="388" r="2"/>
  </g>
  <g stroke="chocolate" stroke-width="1">
    <line x1="509" y1="388" x2="508" y2="388"/>
    <circle cx="509" cy="388" r="2"/>
    <circle cx="508" cy="388" r="2"/>
  </g>
  <g stroke="chocolate" stroke-width="1">
    <line x1="521" y1="337" x2="521" y2="337"/>
    <circle cx="521" cy="337" r="2"/>
    <circle cx="521" cy="337" r="2"/>
  </g>
  <g stroke="chocolate" stroke-width="1">
    <line x1="523" y1="344" x2="521" y2="337"/>
    <circle cx="523" cy="344" r="2"/>
    <circle cx="521" cy="337" r="2"/>
  </g>
  <g stroke="chocolate" stroke-width="1">
    <line x1="5" y1="353" x2="525" y2="337"/>
    <circle cx="5" cy="353" r="2"/>
    <circle cx="525" cy="337" r="2"/>
  </g>
  <g stroke="chocolate" stroke-width="1">
    <line x1="525" y1="337" x2="525" y2="336"/>
    <circle cx="525" cy="337" r="2"/>
    <circle cx="525" cy="336" r="2"/>
  </g>
  <g stroke="chocolate" stroke-width="1">
    <line x1="520" y1="353" x2="523" y2="344"/>
    <circle cx="520" cy="353" r="2"/>
    <circle cx="523" cy="344" r="2"/>
  </g>
  <g stroke="chocolate" stroke-width="1">
    <line x1="528" y1="345" x2="525" y2="337"/>
    <circle cx="528" cy="345" r="2"/>
    <circle cx="525" cy="337" r="2"/>
  </g>
  <g stroke="chocolate" stroke-width="1">
    <line x1="548" y1="385" x2="545" y2="385"/>
    <circle cx="548" cy="385" r="2"/>
    <circle cx="545" cy="385" r="2"/>
  </g>
  <g stroke="chocolate" stroke-width="1">
    <line x1="548" y1="385" x2="547" y2="381"/>
    <circle cx="548" cy="385" r="2"/>
    <circle cx="547" cy="381" r="2"/>
  </g>
  <g stroke="chocolate" stroke-width="1">
    <line x1="551" y1="391" x2="548" y2="385"/>
    <circle cx="551" cy="391" r="2"/>
    <circle cx="548" cy="385" r="2"/>
  </g>
  <g stroke="chocolate" stroke-width="1">
    <line x1="545" y1="385" x2="547" y2="381"/>
    <circle cx="545" cy="385" r="2"/>
    <circle cx="547" cy="381" r="2"/>
  </g>
  <g stroke="chocolate" stroke-width="1">
    <line x1="542" y1="391" x2="545" y2="385"/>
    <circle cx="542" cy="391" r="2"/>
    <circle cx="545" cy="385" r="2"/>
  </g>
  <g stroke="chocolate" stroke-width="1">
    <line x1="579" y1="353" x2="581" y2="353"/>
    <circle cx="579" cy="353" r="2"/>
    <circle cx="581" cy="353" r="2"/>
  </g>
  <g stroke="chocolate" stroke-width="1">
    <line x1="579" y1="353" x2="575" y2="346"/>
    <circle cx="579" cy="353" r="2"/>
    <circle cx="575" cy="346" r="2"/>
  </g>
  <g stroke="chocolate" stroke-width="1">
    <line x1="580" y1="355" x2="579" y2="353"/>
    <circle cx="580" cy="355" r="2"/>
    <circle cx="579" cy="353" r="2"/>
  </g>
  <g stroke="chocolate" stroke-width="1">
    <line x1="615" y1="334" x2="595" y2="307"/>
    <circle cx="615" cy="334" r="2"/>
    <circle cx="595" cy="307" r="2"/>
  </g>
  <g stroke="chocolate" stroke-width="1">
    <line x1="630" y1="353" x2="615" y2="334"/>
    <circle cx="630" cy="353" r="2"/>
    <circle cx="615" cy="334" r="2"/>
  </g>
  <g stroke="chocolate" stroke-width="1">
    <line x1="615" y1="334" x2="645" y2="333"/>
    <circle cx="615" cy="334" r="2"/>
    <circle cx="645" cy="333" r="2"/>
  </g>
  <g stroke="chocolate" stroke-width="1">
    <line x1="592" y1="335" x2="615" y2="334"/>
    <circle cx="592" cy="335" r="2"/>
    <circle cx="615" cy="334" r="2"/>
  </g>
  <g stroke="chocolate" stroke-width="1">
    <line x1="530" y1="337" x2="530" y2="336"/>
    <circle cx="530" cy="337" r="2"/>
    <circle cx="530" cy="336" r="2"/>
  </g>
  <g stroke="chocolate" stroke-width="1">
    <line x1="581" y1="353" x2="630" y2="353"/>
    <circle cx="581" cy="353" r="2"/>
    <circle cx="630" cy="353" r="2"/>
  </g>
  <g stroke="chocolate" stroke-width="1">
    <line x1="581" y1="353" x2="592" y2="335"/>
    <circle cx="581" cy="353" r="2"/>
    <circle cx="592" cy="335" r="2"/>
  </g>
  <g stroke="chocolate" stroke-width="1">
    <line x1="580" y1="355" x2="581" y2="353"/>
    <circle cx="580" cy="355" r="2"/>
    <circle cx="581" cy="353" r="2"/>
  </g>
  <g stroke="chocolate" stroke-width="1">
    <line x1="677" y1="371" x2="695" y2="353"/>
    <circle cx="677" cy="371" r="2"/>
    <circle cx="695" cy="353" r="2"/>
  </g>
  <g stroke="chocolate" stroke-width="1">
    <line x1="662" y1="387" x2="677" y2="371"/>
    <circle cx="662" cy="387" r="2"/>
    <circle cx="677" cy="371" r="2"/>
  </g>
  <g stroke="chocolate" stroke-width="1">
    <line x1="692" y1="389" x2="677" y2="371"/>
    <circle cx="692" cy="389" r="2"/>
    <circle cx="677" cy="371" r="2"/>
  </g>
  <g stroke="chocolate" stroke-width="1">
    <line x1="520" y1="355" x2="516" y2="355"/>
    <circle cx="520" cy="355" r="2"/>
    <circle cx="516" cy="355" r="2"/>
  </g>
  <g stroke="chocolate" stroke-width="1">
    <line x1="531" y1="337" x2="569" y2="336"/>
    <circle cx="531" cy="337" r="2"/>
    <circle cx="569" cy="336" r="2"/>
  </g>
  <g stroke="chocolate" stroke-width="1">
    <line x1="590" y1="317" x2="595" y2="307"/>
    <circle cx="590" cy="317" r="2"/>
    <circle cx="595" cy="307" r="2"/>
  </g>
  <g stroke="chocolate" stroke-width="1">
    <line x1="590" y1="317" x2="602" y2="316"/>
    <circle cx="590" cy="317" r="2"/>
    <circle cx="602" cy="316" r="2"/>
  </g>
  <g stroke="chocolate" stroke-width="1">
    <line x1="5" y1="353" x2="590" y2="317"/>
    <circle cx="5" cy="353" r="2"/>
    <circle cx="590" cy="317" r="2"/>
  </g>
  <g stroke="chocolate" stroke-width="1">
    <line x1="520" y1="355" x2="520" y2="355"/>
    <circle cx="520" cy="355" r="2"/>
    <circle cx="520" cy="355" r="2"/>
  </g>
  <g stroke="chocolate" stroke-width="1">
    <line x1="505" y1="382" x2="5" y2="353"/>
    <circle cx="505" cy="382" r="2"/>
    <circle cx="5" cy="353" r="2"/>
  </g>
  <g stroke="chocolate" stroke-width="1">
    <line x1="551" y1="391" x2="509" y2="388"/>
    <circle cx="551" cy="391" r="2"/>
    <circle cx="509" cy="388" r="2"/>
  </g>
  <g stroke="chocolate" stroke-width="1">
    <line x1="505" y1="409" x2="509" y2="388"/>
    <circle cx="505" cy="409" r="2"/>
    <circle cx="509" cy="388" r="2"/>
  </g>
  <g stroke="chocolate" stroke-width="1">
    <line x1="525" y1="353" x2="523" y2="344"/>
    <circle cx="525" cy="353" r="2"/>
    <circle cx="523" cy="344" r="2"/>
  </g>
  <g stroke="chocolate" stroke-width="1">
    <line x1="525" y1="353" x2="528" y2="345"/>
    <circle cx="525" cy="353" r="2"/>
    <circle cx="528" cy="345" r="2"/>
  </g>
  <g stroke="chocolate" stroke-width="1">
    <line x1="692" y1="389" x2="662" y2="387"/>
    <circle cx="692" cy="389" r="2"/>
    <circle cx="662" cy="387" r="2"/>
  </g>
  <g stroke="chocolate" stroke-width="1">
    <line x1="658" y1="391" x2="662" y2="387"/>
    <circle cx="658" cy="391" r="2"/>
    <circle cx="662" cy="387" r="2"/>
  </g>
  <g stroke="chocolate" stroke-width="1">
    <line x1="575" y1="346" x2="569" y2="336"/>
    <circle cx="575" cy="346" r="2"/>
    <circle cx="569" cy="336" r="2"/>
  </g>
  <g stroke="chocolate" stroke-width="1">
    <line x1="592" y1="335" x2="602" y2="316"/>
    <circle cx="592" cy="335" r="2"/>
    <circle cx="602" cy="316" r="2"/>
  </g>
  <g stroke="chocolate" stroke-width="1">
    <line x1="711" y1="370" x2="695" y2="353"/>
    <circle cx="711" cy="370" r="2"/>
    <circle cx="695" cy="353" r="2"/>
  </g>
  <g stroke="chocolate" stroke-width="1">
    <line x1="5" y1="353" x2="516" y2="349"/>
    <circle cx="5" cy="353" r="2"/>
    <circle cx="516" cy="349" r="2"/>
  </g>
  <g stroke="chocolate" stroke-width="1">
    <line x1="5" y1="353" x2="518" y2="348"/>
    <circle cx="5" cy="353" r="2"/>
    <circle cx="518" cy="348" r="2"/>
  </g>
  <g stroke="chocolate" stroke-width="1">
    <line x1="5" y1="353" x2="525" y2="336"/>
    <circle cx="5" cy="353" r="2"/>
    <circle cx="525" cy="336" r="2"/>
  </g>
  <g stroke="chocolate" stroke-width="1">
    <line x1="5" y1="353" x2="530" y2="336"/>
    <circle cx="5" cy="353" r="2"/>
    <circle cx="530" cy="336" r="2"/>
  </g>
  <g stroke="chocolate" stroke-width="1">
    <line x1="5" y1="353" x2="595" y2="307"/>
    <circle cx="5" cy="353" r="2"/>
    <circle cx="595" cy="307" r="2"/>
  </g>
  <g stroke="chocolate" stroke-width="1">
    <line x1="505" y1="405" x2="5" y2="353"/>
    <circle cx="505" cy="405" r="2"/>
    <circle cx="5" cy="353" r="2"/>
  </g>
  <g stroke="chocolate" stroke-width="1">
    <line x1="505" y1="409" x2="5" y2="353"/>
    <circle cx="505" cy="409" r="2"/>
    <circle cx="5" cy="353" r="2"/>
  </g>
  <g stroke="chocolate" stroke-width="1">
    <line x1="517" y1="353" x2="516" y2="349"/>
    <circle cx="517" cy="353" r="2"/>
    <circle cx="516" cy="349" r="2"/>
  </g>
  <g stroke="chocolate" stroke-width="1">
    <line x1="692" y1="389" x2="711" y2="370"/>
    <circle cx="692" cy="389" r="2"/>
    <circle cx="711" cy="370" r="2"/>
  </g>
  <g stroke="chocolate" stroke-width="1">
    <line x1="630" y1="353" x2="645" y2="333"/>
    <circle cx="630" cy="353" r="2"/>
    <circle cx="645" cy="333" r="2"/>
  </g>
  <g stroke="black" stroke-width="1">
    <line x1="108" y1="108" x2="608" y2="108"/>
    <line x1="108" y1="108" x2="108" y2="608"/>
    <line x1="608" y1="608" x2="108" y2="608"/>
    <line x1="608" y1="608" x2="608" y2="108"/>
    <line x1="208" y1="105" x2="208" y2="111"/>
    <line x1="105" y1="208" x2="111" y2="208"/>
    <line x1="208" y1="605" x2="208" y2="611"/>
    <line x1="605" y1="208" x2="611" y2="208"/>
    <line x1="308" y1="105" x2="308" y2="111"/>
    <line x1="105" y1="308" x2="111" y2="308"/>
    <line x1="308" y1="605" x2="308" y2="611"/>
    <line x1="605" y1="308" x2="611" y2="308"/>
    <line x1="408" y1="105" x2="408" y2="111"/>
    <line x1="105" y1="408" x2="111" y2="408"/>
    <line x1="408" y1="605" x2="408" y2="611"/>
    <line x1="605" y1="408" x2="611" y2="408"/>
    <line x1="508" y1="105" x2="508" y2="111"/>
    <line x1="105" y1="508" x2="111" y2="508"/>
    <line x1="508" y1="605" x2="508" y2="611"/>
    <line x1="605" y1="508" x2="611" y2="508"/>
  </g>
  <g stroke="gray" stroke-width="1" stroke-dasharray="5,5">
    <line x1="208" y1="108" x2="208" y2="608"/>
    <line x1="108" y1="208" x2="608" y2="208"/>
    <line x1="308" y1="108" x2="308" y2="608"/>
    <line x1="108" y1="308" x2="608" y2="308"/>
    <line x1="408" y1="108" x2="408" y2="608"/>
    <line x1="108" y1="408" x2="608" y2="408"/>
    <line x1="508" y1="108" x2="508" y2="608"/>
    <line x1="108" y1="508" x2="608" y2="508"/>
  </g>
</svg>
