<?xml version="1.0" standalone="no"?>
<!DOCTYPE svg PUBLIC "-//W3C//DTD SVG 1.1//EN" 
  "http://www.w3.org/Graphics/SVG/1.1/DTD/svg11.dtd">
<svg width="528" height="528" version="1.1" id="toplevel"
    xmlns="http://www.w3.org/2000/svg"
    xmlns:xlink="http://www.w3.org/1999/xlink">
  <polygon points="68,523 93,523 97,505 468,505 468,346 297,5 197,5 194,9 168,73 60,505 68,509"
           fill="bisque"/>
  <g stroke="chocolate" stroke-width="1">
    <line x1="197" y1="77" x2="186" y2="40"/>
    <circle cx="197" cy="77" r="2"/>
    <circle cx="186" cy="40" r="2"/>
  </g>
  <g stroke="chocolate" stroke-width="1">
    <line x1="201" y1="89" x2="197" y2="77"/>
    <circle cx="201" cy="89" r="2"/>
    <circle cx="197" cy="77" r="2"/>
  </g>
  <g stroke="chocolate" stroke-width="1">
    <line x1="197" y1="77" x2="197" y2="5"/>
    <circle cx="197" cy="77" r="2"/>
    <circle cx="197" cy="5" r="2"/>
  </g>
  <g stroke="chocolate" stroke-width="1">
    <line x1="197" y1="93" x2="197" y2="77"/>
    <circle cx="197" cy="93" r="2"/>
    <circle cx="197" cy="77" r="2"/>
  </g>
  <g stroke="chocolate" stroke-width="1">
    <line x1="197" y1="105" x2="201" y2="89"/>
    <circle cx="197" cy="105" r="2"/>
    <circle cx="201" cy="89" r="2"/>
  </g>
  <g stroke="chocolate" stroke-width="1">
    <line x1="172" y1="205" x2="197" y2="105"/>
    <circle cx="172" cy="205" r="2"/>
    <circle cx="197" cy="105" r="2"/>
  </g>
  <g stroke="chocolate" stroke-width="1">
    <line x1="197" y1="105" x2="197" y2="93"/>
    <circle cx="197" cy="105" r="2"/>
    <circle cx="197" cy="93" r="2"/>
  </g>
  <g stroke="chocolate" stroke-width="1">
    <line x1="197" y1="205" x2="197" y2="105"/>
    <circle cx="197" cy="205" r="2"/>
    <circle cx="197" cy="105" r="2"/>
  </g>
  <g stroke="chocolate" stroke-width="1">
    <line x1="172" y1="207" x2="172" y2="205"/>
    <circle cx="172" cy="207" r="2"/>
    <circle cx="172" cy="205" r="2"/>
  </g>
  <g stroke="chocolate" stroke-width="1">
    <line x1="164" y1="240" x2="172" y2="207"/>
    <circle cx="164" cy="240" r="2"/>
    <circle cx="172" cy="207" r="2"/>
  </g>
  <g stroke="chocolate" stroke-width="1">
    <line x1="172" y1="207" x2="171" y2="205"/>
    <circle cx="172" cy="207" r="2"/>
    <circle cx="171" cy="205" r="2"/>
  </g>
  <g stroke="chocolate" stroke-width="1">
    <line x1="186" y1="252" x2="172" y2="207"/>
    <circle cx="186" cy="252" r="2"/>
    <circle cx="172" cy="207" r="2"/>
  </g>
  <g stroke="chocolate" stroke-width="1">
    <line x1="172" y1="205" x2="197" y2="205"/>
    <circle cx="172" cy="205" r="2"/>
    <circle cx="197" cy="205" r="2"/>
  </g>
  <g stroke="chocolate" stroke-width="1">
    <line x1="171" y1="205" x2="172" y2="205"/>
    <circle cx="171" cy="205" r="2"/>
    <circle cx="172" cy="205" r="2"/>
  </g>
  <g stroke="chocolate" stroke-width="1">
    <line x1="97" y1="505" x2="139" y2="340"/>
    <circle cx="97" cy="505" r="2"/>
    <circle cx="139" cy="340" r="2"/>
  </g>
  <g stroke="chocolate" stroke-width="1">
    <line x1="93" y1="523" x2="97" y2="505"/>
    <circle cx="93" cy="523" r="2"/>
    <circle cx="97" cy="505" r="2"/>
  </g>
  <g stroke="chocolate" stroke-width="1">
    <line x1="97" y1="505" x2="468" y2="505"/>
    <circle cx="97" cy="505" r="2"/>
    <circle cx="468" cy="505" r="2"/>
  </g>
  <g stroke="chocolate" stroke-width="1">
    <line x1="68" y1="505" x2="97" y2="505"/>
    <circle cx="68" cy="505" r="2"/>
    <circle cx="97" cy="505" r="2"/>
  </g>
  <g stroke="chocolate" stroke-width="1">
    <line x1="139" y1="340" x2="164" y2="240"/>
    <circle cx="139" cy="340" r="2"/>
    <circle cx="164" cy="240" r="2"/>
  </g>
  <g stroke="chocolate" stroke-width="1">
    <line x1="139" y1="340" x2="186" y2="252"/>
    <circle cx="139" cy="340" r="2"/>
    <circle cx="186" cy="252" r="2"/>
  </g>
  <g stroke="chocolate" stroke-width="1">
    <line x1="68" y1="473" x2="139" y2="340"/>
    <circle cx="68" cy="473" r="2"/>
    <circle cx="139" cy="340" r="2"/>
  </g>
  <g stroke="chocolate" stroke-width="1">
    <line x1="186" y1="40" x2="194" y2="27"/>
    <circle cx="186" cy="40" r="2"/>
    <circle cx="194" cy="27" r="2"/>
  </g>
  <g stroke="chocolate" stroke-width="1">
    <line x1="168" y1="73" x2="186" y2="40"/>
    <circle cx="168" cy="73" r="2"/>
    <circle cx="186" cy="40" r="2"/>
  </g>
  <g stroke="chocolate" stroke-width="1">
    <line x1="186" y1="40" x2="184" y2="33"/>
    <circle cx="186" cy="40" r="2"/>
    <circle cx="184" cy="33" r="2"/>
  </g>
  <g stroke="chocolate" stroke-width="1">
    <line x1="197" y1="93" x2="201" y2="89"/>
    <circle cx="197" cy="93" r="2"/>
    <circle cx="201" cy="89" r="2"/>
  </g>
  <g stroke="chocolate" stroke-width="1">
    <line x1="151" y1="139" x2="197" y2="93"/>
    <circle cx="151" cy="139" r="2"/>
    <circle cx="197" cy="93" r="2"/>
  </g>
  <g stroke="chocolate" stroke-width="1">
    <line x1="455" y1="373" x2="468" y2="346"/>
    <circle cx="455" cy="373" r="2"/>
    <circle cx="468" cy="346" r="2"/>
  </g>
  <g stroke="chocolate" stroke-width="1">
    <line x1="439" y1="405" x2="455" y2="373"/>
    <circle cx="439" cy="405" r="2"/>
    <circle cx="455" cy="373" r="2"/>
  </g>
  <g stroke="chocolate" stroke-width="1">
    <line x1="455" y1="373" x2="297" y2="255"/>
    <circle cx="455" cy="373" r="2"/>
    <circle cx="297" cy="255" r="2"/>
  </g>
  <g stroke="chocolate" stroke-width="1">
    <line x1="468" y1="383" x2="455" y2="373"/>
    <circle cx="468" cy="383" r="2"/>
    <circle cx="455" cy="373" r="2"/>
  </g>
  <g stroke="chocolate" stroke-width="1">
    <line x1="164" y1="240" x2="131" y2="223"/>
    <circle cx="164" cy="240" r="2"/>
    <circle cx="131" cy="223" r="2"/>
  </g>
  <g stroke="chocolate" stroke-width="1">
    <line x1="186" y1="252" x2="164" y2="240"/>
    <circle cx="186" cy="252" r="2"/>
    <circle cx="164" cy="240" r="2"/>
  </g>
  <g stroke="chocolate" stroke-width="1">
    <line x1="171" y1="205" x2="151" y2="139"/>
    <circle cx="171" cy="205" r="2"/>
    <circle cx="151" cy="139" r="2"/>
  </g>
  <g stroke="chocolate" stroke-width="1">
    <line x1="135" y1="205" x2="171" y2="205"/>
    <circle cx="135" cy="205" r="2"/>
    <circle cx="171" cy="205" r="2"/>
  </g>
  <g stroke="chocolate" stroke-width="1">
    <line x1="68" y1="509" x2="68" y2="505"/>
    <circle cx="68" cy="509" r="2"/>
    <circle cx="68" cy="505" r="2"/>
  </g>
  <g stroke="chocolate" stroke-width="1">
    <line x1="68" y1="523" x2="68" y2="509"/>
    <circle cx="68" cy="523" r="2"/>
    <circle cx="68" cy="509" r="2"/>
  </g>
  <g stroke="chocolate" stroke-width="1">
    <line x1="68" y1="509" x2="60" y2="505"/>
    <circle cx="68" cy="509" r="2"/>
    <circle cx="60" cy="505" r="2"/>
  </g>
  <g stroke="chocolate" stroke-width="1">
    <line x1="93" y1="523" x2="68" y2="509"/>
    <circle cx="93" cy="523" r="2"/>
    <circle cx="68" cy="509" r="2"/>
  </g>
  <g stroke="chocolate" stroke-width="1">
    <line x1="68" y1="505" x2="68" y2="473"/>
    <circle cx="68" cy="505" r="2"/>
    <circle cx="68" cy="473" r="2"/>
  </g>
  <g stroke="chocolate" stroke-width="1">
    <line x1="60" y1="505" x2="68" y2="505"/>
    <circle cx="60" cy="505" r="2"/>
    <circle cx="68" cy="505" r="2"/>
  </g>
  <g stroke="chocolate" stroke-width="1">
    <line x1="60" y1="505" x2="168" y2="73"/>
    <circle cx="60" cy="505" r="2"/>
    <circle cx="168" cy="73" r="2"/>
  </g>
  <g stroke="chocolate" stroke-width="1">
    <line x1="168" y1="73" x2="194" y2="9"/>
    <circle cx="168" cy="73" r="2"/>
    <circle cx="194" cy="9" r="2"/>
  </g>
  <g stroke="chocolate" stroke-width="1">
    <line x1="468" y1="505" x2="468" y2="346"/>
    <circle cx="468" cy="505" r="2"/>
    <circle cx="468" cy="346" r="2"/>
  </g>
  <g stroke="chocolate" stroke-width="1">
    <line x1="439" y1="505" x2="439" y2="405"/>
    <circle cx="439" cy="505" r="2"/>
    <circle cx="439" cy="405" r="2"/>
  </g>
  <g stroke="chocolate" stroke-width="1">
    <line x1="347" y1="155" x2="347" y2="105"/>
    <circle cx="347" cy="155" r="2"/>
    <circle cx="347" cy="105" r="2"/>
  </g>
  <g stroke="chocolate" stroke-width="1">
    <line x1="194" y1="27" x2="194" y2="9"/>
    <circle cx="194" cy="27" r="2"/>
    <circle cx="194" cy="9" r="2"/>
  </g>
  <g stroke="chocolate" stroke-width="1">
    <line x1="297" y1="255" x2="267" y2="45"/>
    <circle cx="297" cy="255" r="2"/>
    <circle cx="267" cy="45" r="2"/>
  </g>
  <g stroke="chocolate" stroke-width="1">
    <line x1="267" y1="45" x2="297" y2="5"/>
    <circle cx="267" cy="45" r="2"/>
    <circle cx="297" cy="5" r="2"/>
  </g>
  <g stroke="chocolate" stroke-width="1">
    <line x1="194" y1="9" x2="197" y2="5"/>
    <circle cx="194" cy="9" r="2"/>
    <circle cx="197" cy="5" r="2"/>
  </g>
  <g stroke="chocolate" stroke-width="1">
    <line x1="297" y1="255" x2="372" y2="155"/>
    <circle cx="297" cy="255" r="2"/>
    <circle cx="372" cy="155" r="2"/>
  </g>
  <g stroke="chocolate" stroke-width="1">
    <line x1="468" y1="346" x2="297" y2="5"/>
    <circle cx="468" cy="346" r="2"/>
    <circle cx="297" cy="5" r="2"/>
  </g>
  <g stroke="chocolate" stroke-width="1">
    <line x1="184" y1="33" x2="194" y2="27"/>
    <circle cx="184" cy="33" r="2"/>
    <circle cx="194" cy="27" r="2"/>
  </g>
  <g stroke="chocolate" stroke-width="1">
    <line x1="347" y1="105" x2="267" y2="45"/>
    <circle cx="347" cy="105" r="2"/>
    <circle cx="267" cy="45" r="2"/>
  </g>
  <g stroke="chocolate" stroke-width="1">
    <line x1="439" y1="405" x2="468" y2="383"/>
    <circle cx="439" cy="405" r="2"/>
    <circle cx="468" cy="383" r="2"/>
  </g>
  <g stroke="chocolate" stroke-width="1">
    <line x1="197" y1="5" x2="297" y2="5"/>
    <circle cx="197" cy="5" r="2"/>
    <circle cx="297" cy="5" r="2"/>
  </g>
  <g stroke="chocolate" stroke-width="1">
    <line x1="347" y1="155" x2="372" y2="155"/>
    <circle cx="347" cy="155" r="2"/>
    <circle cx="372" cy="155" r="2"/>
  </g>
  <g stroke="chocolate" stroke-width="1">
    <line x1="168" y1="223" x2="135" y2="205"/>
    <circle cx="168" cy="223" r="2"/>
    <circle cx="135" cy="205" r="2"/>
  </g>
  <g stroke="chocolate" stroke-width="1">
    <line x1="131" y1="223" x2="168" y2="223"/>
    <circle cx="131" cy="223" r="2"/>
    <circle cx="168" cy="223" r="2"/>
  </g>
  <g stroke="chocolate" stroke-width="1">
    <line x1="68" y1="523" x2="93" y2="523"/>
    <circle cx="68" cy="523" r="2"/>
    <circle cx="93" cy="523" r="2"/>
  </g>
  <g stroke="black" stroke-width="1">
    <line x1="14" y1="14" x2="514" y2="14"/>
    <line x1="14" y1="14" x2="14" y2="514"/>
    <line x1="514" y1="514" x2="14" y2="514"/>
    <line x1="514" y1="514" x2="514" y2="14"/>
    <line x1="114" y1="11" x2="114" y2="17"/>
    <line x1="11" y1="114" x2="17" y2="114"/>
    <line x1="114" y1="511" x2="114" y2="517"/>
    <line x1="511" y1="114" x2="517" y2="114"/>
    <line x1="214" y1="11" x2="214" y2="17"/>
    <line x1="11" y1="214" x2="17" y2="214"/>
    <line x1="214" y1="511" x2="214" y2="517"/>
    <line x1="511" y1="214" x2="517" y2="214"/>
    <line x1="314" y1="11" x2="314" y2="17"/>
    <line x1="11" y1="314" x2="17" y2="314"/>
    <line x1="314" y1="511" x2="314" y2="517"/>
    <line x1="511" y1="314" x2="517" y2="314"/>
    <line x1="414" y1="11" x2="414" y2="17"/>
    <line x1="11" y1="414" x2="17" y2="414"/>
    <line x1="414" y1="511" x2="414" y2="517"/>
    <line x1="511" y1="414" x2="517" y2="414"/>
  </g>
  <g stroke="gray" stroke-width="1" stroke-dasharray="5,5">
    <line x1="114" y1="14" x2="114" y2="514"/>
    <line x1="14" y1="114" x2="514" y2="114"/>
    <line x1="214" y1="14" x2="214" y2="514"/>
    <line x1="14" y1="214" x2="514" y2="214"/>
    <line x1="314" y1="14" x2="314" y2="514"/>
    <line x1="14" y1="314" x2="514" y2="314"/>
    <line x1="414" y1="14" x2="414" y2="514"/>
    <line x1="14" y1="414" x2="514" y2="414"/>
  </g>
</svg>
