<?xml version="1.0" standalone="no"?>
<!DOCTYPE svg PUBLIC "-//W3C//DTD SVG 1.1//EN" 
  "http://www.w3.org/Graphics/SVG/1.1/DTD/svg11.dtd">
<svg width="644" height="644" version="1.1" id="toplevel"
    xmlns="http://www.w3.org/2000/svg"
    xmlns:xlink="http://www.w3.org/1999/xlink">
  <polygon points="416,543 639,467 585,308 161,101 5,154 105,450" fill="bisque"/>
  <g stroke="chocolate" stroke-width="1">
    <line x1="245" y1="341" x2="161" y2="101"/>
    <circle cx="245" cy="341" r="2"/>
    <circle cx="161" cy="101" r="2"/>
  </g>
  <g stroke="chocolate" stroke-width="1">
    <line x1="271" y1="418" x2="245" y2="341"/>
    <circle cx="271" cy="418" r="2"/>
    <circle cx="245" cy="341" r="2"/>
  </g>
  <g stroke="chocolate" stroke-width="1">
    <line x1="245" y1="341" x2="253" y2="335"/>
    <circle cx="245" cy="341" r="2"/>
    <circle cx="253" cy="335" r="2"/>
  </g>
  <g stroke="chocolate" stroke-width="1">
    <line x1="105" y1="450" x2="245" y2="341"/>
    <circle cx="105" cy="450" r="2"/>
    <circle cx="245" cy="341" r="2"/>
  </g>
  <g stroke="chocolate" stroke-width="1">
    <line x1="308" y1="405" x2="253" y2="335"/>
    <circle cx="308" cy="405" r="2"/>
    <circle cx="253" cy="335" r="2"/>
  </g>
  <g stroke="chocolate" stroke-width="1">
    <line x1="416" y1="543" x2="308" y2="405"/>
    <circle cx="416" cy="543" r="2"/>
    <circle cx="308" cy="405" r="2"/>
  </g>
  <g stroke="chocolate" stroke-width="1">
    <line x1="308" y1="405" x2="585" y2="308"/>
    <circle cx="308" cy="405" r="2"/>
    <circle cx="585" cy="308" r="2"/>
  </g>
  <g stroke="chocolate" stroke-width="1">
    <line x1="271" y1="418" x2="308" y2="405"/>
    <circle cx="271" cy="418" r="2"/>
    <circle cx="308" cy="405" r="2"/>
  </g>
  <g stroke="chocolate" stroke-width="1">
    <line x1="639" y1="467" x2="585" y2="308"/>
    <circle cx="639" cy="467" r="2"/>
    <circle cx="585" cy="308" r="2"/>
  </g>
  <g stroke="chocolate" stroke-width="1">
    <line x1="5" y1="154" x2="161" y2="101"/>
    <circle cx="5" cy="154" r="2"/>
    <circle cx="161" cy="101" r="2"/>
  </g>
  <g stroke="chocolate" stroke-width="1">
    <line x1="105" y1="450" x2="5" y2="154"/>
    <circle cx="105" cy="450" r="2"/>
    <circle cx="5" cy="154" r="2"/>
  </g>
  <g stroke="chocolate" stroke-width="1">
    <line x1="585" y1="308" x2="161" y2="101"/>
    <circle cx="585" cy="308" r="2"/>
    <circle cx="161" cy="101" r="2"/>
  </g>
  <g stroke="chocolate" stroke-width="1">
    <line x1="416" y1="543" x2="639" y2="467"/>
    <circle cx="416" cy="543" r="2"/>
    <circle cx="639" cy="467" r="2"/>
  </g>
  <g stroke="chocolate" stroke-width="1">
    <line x1="416" y1="543" x2="105" y2="450"/>
    <circle cx="416" cy="543" r="2"/>
    <circle cx="105" cy="450" r="2"/>
  </g>
  <g stroke="black" stroke-width="1">
    <line x1="72" y1="72" x2="572" y2="72"/>
    <line x1="72" y1="72" x2="72" y2="572"/>
    <line x1="572" y1="572" x2="72" y2="572"/>
    <line x1="572" y1="572" x2="572" y2="72"/>
    <line x1="172" y1="69" x2="172" y2="75"/>
    <line x1="69" y1="172" x2="75" y2="172"/>
    <line x1="172" y1="569" x2="172" y2="575"/>
    <line x1="569" y1="172" x2="575" y2="172"/>
    <line x1="272" y1="69" x2="272" y2="75"/>
    <line x1="69" y1="272" x2="75" y2="272"/>
    <line x1="272" y1="569" x2="272" y2="575"/>
    <line x1="569" y1="272" x2="575" y2="272"/>
    <line x1="372" y1="69" x2="372" y2="75"/>
    <line x1="69" y1="372" x2="75" y2="372"/>
    <line x1="372" y1="569" x2="372" y2="575"/>
    <line x1="569" y1="372" x2="575" y2="372"/>
    <line x1="472" y1="69" x2="472" y2="75"/>
    <line x1="69" y1="472" x2="75" y2="472"/>
    <line x1="472" y1="569" x2="472" y2="575"/>
    <line x1="569" y1="472" x2="575" y2="472"/>
  </g>
  <g stroke="gray" stroke-width="1" stroke-dasharray="5,5">
    <line x1="172" y1="72" x2="172" y2="572"/>
    <line x1="72" y1="172" x2="572" y2="172"/>
    <line x1="272" y1="72" x2="272" y2="572"/>
    <line x1="72" y1="272" x2="572" y2="272"/>
    <line x1="372" y1="72" x2="372" y2="572"/>
    <line x1="72" y1="372" x2="572" y2="372"/>
    <line x1="472" y1="72" x2="472" y2="572"/>
    <line x1="72" y1="472" x2="572" y2="472"/>
  </g>
</svg>
