<?xml version="1.0" standalone="no"?>
<!DOCTYPE svg PUBLIC "-//W3C//DTD SVG 1.1//EN" 
  "http://www.w3.org/Graphics/SVG/1.1/DTD/svg11.dtd">
<svg width="510" height="510" version="1.1" id="toplevel"
    xmlns="http://www.w3.org/2000/svg"
    xmlns:xlink="http://www.w3.org/1999/xlink">
  <polygon points="284,463 346,403 451,378 495,259 168,47 52,210 65,220 15,305"
           fill="bisque"/>
  <g stroke="chocolate" stroke-width="1">
    <line x1="374" y1="376" x2="411" y2="340"/>
    <circle cx="374" cy="376" r="2"/>
    <circle cx="411" cy="340" r="2"/>
  </g>
  <g stroke="chocolate" stroke-width="1">
    <line x1="365" y1="385" x2="374" y2="376"/>
    <circle cx="365" cy="385" r="2"/>
    <circle cx="374" cy="376" r="2"/>
  </g>
  <g stroke="chocolate" stroke-width="1">
    <line x1="374" y1="376" x2="380" y2="311"/>
    <circle cx="374" cy="376" r="2"/>
    <circle cx="380" cy="311" r="2"/>
  </g>
  <g stroke="chocolate" stroke-width="1">
    <line x1="373" y1="397" x2="374" y2="376"/>
    <circle cx="373" cy="397" r="2"/>
    <circle cx="374" cy="376" r="2"/>
  </g>
  <g stroke="chocolate" stroke-width="1">
    <line x1="411" y1="340" x2="495" y2="259"/>
    <circle cx="411" cy="340" r="2"/>
    <circle cx="495" cy="259" r="2"/>
  </g>
  <g stroke="chocolate" stroke-width="1">
    <line x1="411" y1="340" x2="380" y2="311"/>
    <circle cx="411" cy="340" r="2"/>
    <circle cx="380" cy="311" r="2"/>
  </g>
  <g stroke="chocolate" stroke-width="1">
    <line x1="451" y1="378" x2="411" y2="340"/>
    <circle cx="451" cy="378" r="2"/>
    <circle cx="411" cy="340" r="2"/>
  </g>
  <g stroke="chocolate" stroke-width="1">
    <line x1="346" y1="403" x2="365" y2="385"/>
    <circle cx="346" cy="403" r="2"/>
    <circle cx="365" cy="385" r="2"/>
  </g>
  <g stroke="chocolate" stroke-width="1">
    <line x1="365" y1="385" x2="352" y2="363"/>
    <circle cx="365" cy="385" r="2"/>
    <circle cx="352" cy="363" r="2"/>
  </g>
  <g stroke="chocolate" stroke-width="1">
    <line x1="373" y1="397" x2="365" y2="385"/>
    <circle cx="373" cy="397" r="2"/>
    <circle cx="365" cy="385" r="2"/>
  </g>
  <g stroke="chocolate" stroke-width="1">
    <line x1="65" y1="220" x2="52" y2="210"/>
    <circle cx="65" cy="220" r="2"/>
    <circle cx="52" cy="210" r="2"/>
  </g>
  <g stroke="chocolate" stroke-width="1">
    <line x1="205" y1="319" x2="65" y2="220"/>
    <circle cx="205" cy="319" r="2"/>
    <circle cx="65" cy="220" r="2"/>
  </g>
  <g stroke="chocolate" stroke-width="1">
    <line x1="65" y1="220" x2="168" y2="47"/>
    <circle cx="65" cy="220" r="2"/>
    <circle cx="168" cy="47" r="2"/>
  </g>
  <g stroke="chocolate" stroke-width="1">
    <line x1="15" y1="305" x2="65" y2="220"/>
    <circle cx="15" cy="305" r="2"/>
    <circle cx="65" cy="220" r="2"/>
  </g>
  <g stroke="chocolate" stroke-width="1">
    <line x1="284" y1="463" x2="346" y2="403"/>
    <circle cx="284" cy="463" r="2"/>
    <circle cx="346" cy="403" r="2"/>
  </g>
  <g stroke="chocolate" stroke-width="1">
    <line x1="346" y1="403" x2="451" y2="378"/>
    <circle cx="346" cy="403" r="2"/>
    <circle cx="451" cy="378" r="2"/>
  </g>
  <g stroke="chocolate" stroke-width="1">
    <line x1="329" y1="407" x2="346" y2="403"/>
    <circle cx="329" cy="407" r="2"/>
    <circle cx="346" cy="403" r="2"/>
  </g>
  <g stroke="chocolate" stroke-width="1">
    <line x1="380" y1="311" x2="390" y2="191"/>
    <circle cx="380" cy="311" r="2"/>
    <circle cx="390" cy="191" r="2"/>
  </g>
  <g stroke="chocolate" stroke-width="1">
    <line x1="380" y1="311" x2="379" y2="311"/>
    <circle cx="380" cy="311" r="2"/>
    <circle cx="379" cy="311" r="2"/>
  </g>
  <g stroke="chocolate" stroke-width="1">
    <line x1="352" y1="363" x2="379" y2="311"/>
    <circle cx="352" cy="363" r="2"/>
    <circle cx="379" cy="311" r="2"/>
  </g>
  <g stroke="chocolate" stroke-width="1">
    <line x1="329" y1="407" x2="352" y2="363"/>
    <circle cx="329" cy="407" r="2"/>
    <circle cx="352" cy="363" r="2"/>
  </g>
  <g stroke="chocolate" stroke-width="1">
    <line x1="352" y1="363" x2="336" y2="337"/>
    <circle cx="352" cy="363" r="2"/>
    <circle cx="336" cy="337" r="2"/>
  </g>
  <g stroke="chocolate" stroke-width="1">
    <line x1="329" y1="407" x2="205" y2="319"/>
    <circle cx="329" cy="407" r="2"/>
    <circle cx="205" cy="319" r="2"/>
  </g>
  <g stroke="chocolate" stroke-width="1">
    <line x1="205" y1="319" x2="193" y2="298"/>
    <circle cx="205" cy="319" r="2"/>
    <circle cx="193" cy="298" r="2"/>
  </g>
  <g stroke="chocolate" stroke-width="1">
    <line x1="284" y1="463" x2="205" y2="319"/>
    <circle cx="284" cy="463" r="2"/>
    <circle cx="205" cy="319" r="2"/>
  </g>
  <g stroke="chocolate" stroke-width="1">
    <line x1="52" y1="210" x2="168" y2="47"/>
    <circle cx="52" cy="210" r="2"/>
    <circle cx="168" cy="47" r="2"/>
  </g>
  <g stroke="chocolate" stroke-width="1">
    <line x1="193" y1="298" x2="390" y2="191"/>
    <circle cx="193" cy="298" r="2"/>
    <circle cx="390" cy="191" r="2"/>
  </g>
  <g stroke="chocolate" stroke-width="1">
    <line x1="336" y1="337" x2="379" y2="311"/>
    <circle cx="336" cy="337" r="2"/>
    <circle cx="379" cy="311" r="2"/>
  </g>
  <g stroke="chocolate" stroke-width="1">
    <line x1="451" y1="378" x2="495" y2="259"/>
    <circle cx="451" cy="378" r="2"/>
    <circle cx="495" cy="259" r="2"/>
  </g>
  <g stroke="chocolate" stroke-width="1">
    <line x1="495" y1="259" x2="168" y2="47"/>
    <circle cx="495" cy="259" r="2"/>
    <circle cx="168" cy="47" r="2"/>
  </g>
  <g stroke="chocolate" stroke-width="1">
    <line x1="284" y1="463" x2="15" y2="305"/>
    <circle cx="284" cy="463" r="2"/>
    <circle cx="15" cy="305" r="2"/>
  </g>
  <g stroke="black" stroke-width="1">
    <line x1="5" y1="5" x2="505" y2="5"/>
    <line x1="5" y1="5" x2="5" y2="505"/>
    <line x1="505" y1="505" x2="5" y2="505"/>
    <line x1="505" y1="505" x2="505" y2="5"/>
    <line x1="105" y1="2" x2="105" y2="8"/>
    <line x1="2" y1="105" x2="8" y2="105"/>
    <line x1="105" y1="502" x2="105" y2="508"/>
    <line x1="502" y1="105" x2="508" y2="105"/>
    <line x1="205" y1="2" x2="205" y2="8"/>
    <line x1="2" y1="205" x2="8" y2="205"/>
    <line x1="205" y1="502" x2="205" y2="508"/>
    <line x1="502" y1="205" x2="508" y2="205"/>
    <line x1="305" y1="2" x2="305" y2="8"/>
    <line x1="2" y1="305" x2="8" y2="305"/>
    <line x1="305" y1="502" x2="305" y2="508"/>
    <line x1="502" y1="305" x2="508" y2="305"/>
    <line x1="405" y1="2" x2="405" y2="8"/>
    <line x1="2" y1="405" x2="8" y2="405"/>
    <line x1="405" y1="502" x2="405" y2="508"/>
    <line x1="502" y1="405" x2="508" y2="405"/>
  </g>
  <g stroke="gray" stroke-width="1" stroke-dasharray="5,5">
    <line x1="105" y1="5" x2="105" y2="505"/>
    <line x1="5" y1="105" x2="505" y2="105"/>
    <line x1="205" y1="5" x2="205" y2="505"/>
    <line x1="5" y1="205" x2="505" y2="205"/>
    <line x1="305" y1="5" x2="305" y2="505"/>
    <line x1="5" y1="305" x2="505" y2="305"/>
    <line x1="405" y1="5" x2="405" y2="505"/>
    <line x1="5" y1="405" x2="505" y2="405"/>
  </g>
</svg>
