<?xml version="1.0" standalone="no"?>
<!DOCTYPE svg PUBLIC "-//W3C//DTD SVG 1.1//EN" 
  "http://www.w3.org/Graphics/SVG/1.1/DTD/svg11.dtd">
<svg width="510" height="510" version="1.1" id="toplevel"
    xmlns="http://www.w3.org/2000/svg"
    xmlns:xlink="http://www.w3.org/1999/xlink">
  <polygon points="366,446 428,445 444,411 204,64 165,88 166,94 159,100 168,111 210,431 366,443"
           fill="bisque"/>
  <g stroke="chocolate" stroke-width="1">
    <line x1="259" y1="228" x2="229" y2="189"/>
    <circle cx="259" cy="228" r="2"/>
    <circle cx="229" cy="189" r="2"/>
  </g>
  <g stroke="chocolate" stroke-width="1">
    <line x1="286" y1="263" x2="259" y2="228"/>
    <circle cx="286" cy="263" r="2"/>
    <circle cx="259" cy="228" r="2"/>
  </g>
  <g stroke="chocolate" stroke-width="1">
    <line x1="259" y1="228" x2="231" y2="184"/>
    <circle cx="259" cy="228" r="2"/>
    <circle cx="231" cy="184" r="2"/>
  </g>
  <g stroke="chocolate" stroke-width="1">
    <line x1="279" y1="260" x2="259" y2="228"/>
    <circle cx="279" cy="260" r="2"/>
    <circle cx="259" cy="228" r="2"/>
  </g>
  <g stroke="chocolate" stroke-width="1">
    <line x1="364" y1="362" x2="286" y2="263"/>
    <circle cx="364" cy="362" r="2"/>
    <circle cx="286" cy="263" r="2"/>
  </g>
  <g stroke="chocolate" stroke-width="1">
    <line x1="286" y1="263" x2="279" y2="260"/>
    <circle cx="286" cy="263" r="2"/>
    <circle cx="279" cy="260" r="2"/>
  </g>
  <g stroke="chocolate" stroke-width="1">
    <line x1="363" y1="293" x2="286" y2="263"/>
    <circle cx="363" cy="293" r="2"/>
    <circle cx="286" cy="263" r="2"/>
  </g>
  <g stroke="chocolate" stroke-width="1">
    <line x1="365" y1="418" x2="379" y2="417"/>
    <circle cx="365" cy="418" r="2"/>
    <circle cx="379" cy="417" r="2"/>
  </g>
  <g stroke="chocolate" stroke-width="1">
    <line x1="210" y1="431" x2="365" y2="418"/>
    <circle cx="210" cy="431" r="2"/>
    <circle cx="365" cy="418" r="2"/>
  </g>
  <g stroke="chocolate" stroke-width="1">
    <line x1="365" y1="418" x2="365" y2="402"/>
    <circle cx="365" cy="418" r="2"/>
    <circle cx="365" cy="402" r="2"/>
  </g>
  <g stroke="chocolate" stroke-width="1">
    <line x1="366" y1="443" x2="365" y2="418"/>
    <circle cx="366" cy="443" r="2"/>
    <circle cx="365" cy="418" r="2"/>
  </g>
  <g stroke="chocolate" stroke-width="1">
    <line x1="379" y1="417" x2="405" y2="414"/>
    <circle cx="379" cy="417" r="2"/>
    <circle cx="405" cy="414" r="2"/>
  </g>
  <g stroke="chocolate" stroke-width="1">
    <line x1="379" y1="417" x2="369" y2="402"/>
    <circle cx="379" cy="417" r="2"/>
    <circle cx="369" cy="402" r="2"/>
  </g>
  <g stroke="chocolate" stroke-width="1">
    <line x1="397" y1="445" x2="379" y2="417"/>
    <circle cx="397" cy="445" r="2"/>
    <circle cx="379" cy="417" r="2"/>
  </g>
  <g stroke="chocolate" stroke-width="1">
    <line x1="229" y1="189" x2="227" y2="187"/>
    <circle cx="229" cy="189" r="2"/>
    <circle cx="227" cy="187" r="2"/>
  </g>
  <g stroke="chocolate" stroke-width="1">
    <line x1="229" y1="189" x2="229" y2="186"/>
    <circle cx="229" cy="189" r="2"/>
    <circle cx="229" cy="186" r="2"/>
  </g>
  <g stroke="chocolate" stroke-width="1">
    <line x1="225" y1="238" x2="229" y2="189"/>
    <circle cx="225" cy="238" r="2"/>
    <circle cx="229" cy="189" r="2"/>
  </g>
  <g stroke="chocolate" stroke-width="1">
    <line x1="365" y1="394" x2="279" y2="260"/>
    <circle cx="365" cy="394" r="2"/>
    <circle cx="279" cy="260" r="2"/>
  </g>
  <g stroke="chocolate" stroke-width="1">
    <line x1="279" y1="260" x2="225" y2="238"/>
    <circle cx="279" cy="260" r="2"/>
    <circle cx="225" cy="238" r="2"/>
  </g>
  <g stroke="chocolate" stroke-width="1">
    <line x1="365" y1="402" x2="369" y2="402"/>
    <circle cx="365" cy="402" r="2"/>
    <circle cx="369" cy="402" r="2"/>
  </g>
  <g stroke="chocolate" stroke-width="1">
    <line x1="210" y1="431" x2="365" y2="402"/>
    <circle cx="210" cy="431" r="2"/>
    <circle cx="365" cy="402" r="2"/>
  </g>
  <g stroke="chocolate" stroke-width="1">
    <line x1="365" y1="402" x2="365" y2="394"/>
    <circle cx="365" cy="402" r="2"/>
    <circle cx="365" cy="394" r="2"/>
  </g>
  <g stroke="chocolate" stroke-width="1">
    <line x1="405" y1="414" x2="416" y2="414"/>
    <circle cx="405" cy="414" r="2"/>
    <circle cx="416" cy="414" r="2"/>
  </g>
  <g stroke="chocolate" stroke-width="1">
    <line x1="405" y1="414" x2="391" y2="398"/>
    <circle cx="405" cy="414" r="2"/>
    <circle cx="391" cy="398" r="2"/>
  </g>
  <g stroke="chocolate" stroke-width="1">
    <line x1="411" y1="422" x2="405" y2="414"/>
    <circle cx="411" cy="422" r="2"/>
    <circle cx="405" cy="414" r="2"/>
  </g>
  <g stroke="chocolate" stroke-width="1">
    <line x1="168" y1="111" x2="159" y2="100"/>
    <circle cx="168" cy="111" r="2"/>
    <circle cx="159" cy="100" r="2"/>
  </g>
  <g stroke="chocolate" stroke-width="1">
    <line x1="227" y1="187" x2="168" y2="111"/>
    <circle cx="227" cy="187" r="2"/>
    <circle cx="168" cy="111" r="2"/>
  </g>
  <g stroke="chocolate" stroke-width="1">
    <line x1="168" y1="111" x2="166" y2="94"/>
    <circle cx="168" cy="111" r="2"/>
    <circle cx="166" cy="94" r="2"/>
  </g>
  <g stroke="chocolate" stroke-width="1">
    <line x1="210" y1="431" x2="168" y2="111"/>
    <circle cx="210" cy="431" r="2"/>
    <circle cx="168" cy="111" r="2"/>
  </g>
  <g stroke="chocolate" stroke-width="1">
    <line x1="369" y1="402" x2="391" y2="398"/>
    <circle cx="369" cy="402" r="2"/>
    <circle cx="391" cy="398" r="2"/>
  </g>
  <g stroke="chocolate" stroke-width="1">
    <line x1="369" y1="402" x2="365" y2="394"/>
    <circle cx="369" cy="402" r="2"/>
    <circle cx="365" cy="394" r="2"/>
  </g>
  <g stroke="chocolate" stroke-width="1">
    <line x1="391" y1="398" x2="364" y2="362"/>
    <circle cx="391" cy="398" r="2"/>
    <circle cx="364" cy="362" r="2"/>
  </g>
  <g stroke="chocolate" stroke-width="1">
    <line x1="364" y1="362" x2="363" y2="293"/>
    <circle cx="364" cy="362" r="2"/>
    <circle cx="363" cy="293" r="2"/>
  </g>
  <g stroke="chocolate" stroke-width="1">
    <line x1="365" y1="394" x2="364" y2="362"/>
    <circle cx="365" cy="394" r="2"/>
    <circle cx="364" cy="362" r="2"/>
  </g>
  <g stroke="chocolate" stroke-width="1">
    <line x1="231" y1="184" x2="230" y2="181"/>
    <circle cx="231" cy="184" r="2"/>
    <circle cx="230" cy="181" r="2"/>
  </g>
  <g stroke="chocolate" stroke-width="1">
    <line x1="231" y1="184" x2="268" y2="157"/>
    <circle cx="231" cy="184" r="2"/>
    <circle cx="268" cy="157" r="2"/>
  </g>
  <g stroke="chocolate" stroke-width="1">
    <line x1="229" y1="186" x2="231" y2="184"/>
    <circle cx="229" cy="186" r="2"/>
    <circle cx="231" cy="184" r="2"/>
  </g>
  <g stroke="chocolate" stroke-width="1">
    <line x1="227" y1="187" x2="229" y2="186"/>
    <circle cx="227" cy="187" r="2"/>
    <circle cx="229" cy="186" r="2"/>
  </g>
  <g stroke="chocolate" stroke-width="1">
    <line x1="182" y1="221" x2="227" y2="187"/>
    <circle cx="182" cy="221" r="2"/>
    <circle cx="227" cy="187" r="2"/>
  </g>
  <g stroke="chocolate" stroke-width="1">
    <line x1="171" y1="90" x2="204" y2="64"/>
    <circle cx="171" cy="90" r="2"/>
    <circle cx="204" cy="64" r="2"/>
  </g>
  <g stroke="chocolate" stroke-width="1">
    <line x1="166" y1="94" x2="171" y2="90"/>
    <circle cx="166" cy="94" r="2"/>
    <circle cx="171" cy="90" r="2"/>
  </g>
  <g stroke="chocolate" stroke-width="1">
    <line x1="171" y1="90" x2="165" y2="88"/>
    <circle cx="171" cy="90" r="2"/>
    <circle cx="165" cy="88" r="2"/>
  </g>
  <g stroke="chocolate" stroke-width="1">
    <line x1="235" y1="109" x2="171" y2="90"/>
    <circle cx="235" cy="109" r="2"/>
    <circle cx="171" cy="90" r="2"/>
  </g>
  <g stroke="chocolate" stroke-width="1">
    <line x1="210" y1="431" x2="225" y2="238"/>
    <circle cx="210" cy="431" r="2"/>
    <circle cx="225" cy="238" r="2"/>
  </g>
  <g stroke="chocolate" stroke-width="1">
    <line x1="225" y1="238" x2="182" y2="221"/>
    <circle cx="225" cy="238" r="2"/>
    <circle cx="182" cy="221" r="2"/>
  </g>
  <g stroke="chocolate" stroke-width="1">
    <line x1="366" y1="446" x2="366" y2="443"/>
    <circle cx="366" cy="446" r="2"/>
    <circle cx="366" cy="443" r="2"/>
  </g>
  <g stroke="chocolate" stroke-width="1">
    <line x1="366" y1="443" x2="210" y2="431"/>
    <circle cx="366" cy="443" r="2"/>
    <circle cx="210" cy="431" r="2"/>
  </g>
  <g stroke="chocolate" stroke-width="1">
    <line x1="397" y1="445" x2="366" y2="443"/>
    <circle cx="397" cy="445" r="2"/>
    <circle cx="366" cy="443" r="2"/>
  </g>
  <g stroke="chocolate" stroke-width="1">
    <line x1="416" y1="414" x2="430" y2="391"/>
    <circle cx="416" cy="414" r="2"/>
    <circle cx="430" cy="391" r="2"/>
  </g>
  <g stroke="chocolate" stroke-width="1">
    <line x1="411" y1="422" x2="416" y2="414"/>
    <circle cx="411" cy="422" r="2"/>
    <circle cx="416" cy="414" r="2"/>
  </g>
  <g stroke="chocolate" stroke-width="1">
    <line x1="416" y1="414" x2="444" y2="411"/>
    <circle cx="416" cy="414" r="2"/>
    <circle cx="444" cy="411" r="2"/>
  </g>
  <g stroke="chocolate" stroke-width="1">
    <line x1="391" y1="398" x2="430" y2="391"/>
    <circle cx="391" cy="398" r="2"/>
    <circle cx="430" cy="391" r="2"/>
  </g>
  <g stroke="chocolate" stroke-width="1">
    <line x1="159" y1="100" x2="166" y2="94"/>
    <circle cx="159" cy="100" r="2"/>
    <circle cx="166" cy="94" r="2"/>
  </g>
  <g stroke="chocolate" stroke-width="1">
    <line x1="166" y1="94" x2="165" y2="88"/>
    <circle cx="166" cy="94" r="2"/>
    <circle cx="165" cy="88" r="2"/>
  </g>
  <g stroke="chocolate" stroke-width="1">
    <line x1="229" y1="186" x2="235" y2="109"/>
    <circle cx="229" cy="186" r="2"/>
    <circle cx="235" cy="109" r="2"/>
  </g>
  <g stroke="chocolate" stroke-width="1">
    <line x1="428" y1="445" x2="411" y2="422"/>
    <circle cx="428" cy="445" r="2"/>
    <circle cx="411" cy="422" r="2"/>
  </g>
  <g stroke="chocolate" stroke-width="1">
    <line x1="397" y1="445" x2="411" y2="422"/>
    <circle cx="397" cy="445" r="2"/>
    <circle cx="411" cy="422" r="2"/>
  </g>
  <g stroke="chocolate" stroke-width="1">
    <line x1="165" y1="88" x2="204" y2="64"/>
    <circle cx="165" cy="88" r="2"/>
    <circle cx="204" cy="64" r="2"/>
  </g>
  <g stroke="chocolate" stroke-width="1">
    <line x1="366" y1="446" x2="428" y2="445"/>
    <circle cx="366" cy="446" r="2"/>
    <circle cx="428" cy="445" r="2"/>
  </g>
  <g stroke="chocolate" stroke-width="1">
    <line x1="230" y1="181" x2="268" y2="157"/>
    <circle cx="230" cy="181" r="2"/>
    <circle cx="268" cy="157" r="2"/>
  </g>
  <g stroke="chocolate" stroke-width="1">
    <line x1="444" y1="411" x2="204" y2="64"/>
    <circle cx="444" cy="411" r="2"/>
    <circle cx="204" cy="64" r="2"/>
  </g>
  <g stroke="chocolate" stroke-width="1">
    <line x1="428" y1="445" x2="444" y2="411"/>
    <circle cx="428" cy="445" r="2"/>
    <circle cx="444" cy="411" r="2"/>
  </g>
  <g stroke="black" stroke-width="1">
    <line x1="5" y1="5" x2="505" y2="5"/>
    <line x1="5" y1="5" x2="5" y2="505"/>
    <line x1="505" y1="505" x2="5" y2="505"/>
    <line x1="505" y1="505" x2="505" y2="5"/>
    <line x1="105" y1="2" x2="105" y2="8"/>
    <line x1="2" y1="105" x2="8" y2="105"/>
    <line x1="105" y1="502" x2="105" y2="508"/>
    <line x1="502" y1="105" x2="508" y2="105"/>
    <line x1="205" y1="2" x2="205" y2="8"/>
    <line x1="2" y1="205" x2="8" y2="205"/>
    <line x1="205" y1="502" x2="205" y2="508"/>
    <line x1="502" y1="205" x2="508" y2="205"/>
    <line x1="305" y1="2" x2="305" y2="8"/>
    <line x1="2" y1="305" x2="8" y2="305"/>
    <line x1="305" y1="502" x2="305" y2="508"/>
    <line x1="502" y1="305" x2="508" y2="305"/>
    <line x1="405" y1="2" x2="405" y2="8"/>
    <line x1="2" y1="405" x2="8" y2="405"/>
    <line x1="405" y1="502" x2="405" y2="508"/>
    <line x1="502" y1="405" x2="508" y2="405"/>
  </g>
  <g stroke="gray" stroke-width="1" stroke-dasharray="5,5">
    <line x1="105" y1="5" x2="105" y2="505"/>
    <line x1="5" y1="105" x2="505" y2="105"/>
    <line x1="205" y1="5" x2="205" y2="505"/>
    <line x1="5" y1="205" x2="505" y2="205"/>
    <line x1="305" y1="5" x2="305" y2="505"/>
    <line x1="5" y1="305" x2="505" y2="305"/>
    <line x1="405" y1="5" x2="405" y2="505"/>
    <line x1="5" y1="405" x2="505" y2="405"/>
  </g>
</svg>
