<?xml version="1.0" standalone="no"?>
<!DOCTYPE svg PUBLIC "-//W3C//DTD SVG 1.1//EN" 
  "http://www.w3.org/Graphics/SVG/1.1/DTD/svg11.dtd">
<svg width="666" height="666" version="1.1" id="toplevel"
    xmlns="http://www.w3.org/2000/svg"
    xmlns:xlink="http://www.w3.org/1999/xlink">
  <polygon points="120,661 579,464 382,5 316,169 87,268 185,497" fill="bisque"/>
  <g stroke="chocolate" stroke-width="1">
    <line x1="316" y1="169" x2="382" y2="5"/>
    <circle cx="316" cy="169" r="2"/>
    <circle cx="382" cy="5" r="2"/>
  </g>
  <g stroke="chocolate" stroke-width="1">
    <line x1="185" y1="497" x2="316" y2="169"/>
    <circle cx="185" cy="497" r="2"/>
    <circle cx="316" cy="169" r="2"/>
  </g>
  <g stroke="chocolate" stroke-width="1">
    <line x1="316" y1="169" x2="431" y2="119"/>
    <circle cx="316" cy="169" r="2"/>
    <circle cx="431" cy="119" r="2"/>
  </g>
  <g stroke="chocolate" stroke-width="1">
    <line x1="87" y1="268" x2="316" y2="169"/>
    <circle cx="87" cy="268" r="2"/>
    <circle cx="316" cy="169" r="2"/>
  </g>
  <g stroke="chocolate" stroke-width="1">
    <line x1="120" y1="661" x2="185" y2="497"/>
    <circle cx="120" cy="661" r="2"/>
    <circle cx="185" cy="497" r="2"/>
  </g>
  <g stroke="chocolate" stroke-width="1">
    <line x1="185" y1="497" x2="87" y2="268"/>
    <circle cx="185" cy="497" r="2"/>
    <circle cx="87" cy="268" r="2"/>
  </g>
  <g stroke="chocolate" stroke-width="1">
    <line x1="235" y1="612" x2="185" y2="497"/>
    <circle cx="235" cy="612" r="2"/>
    <circle cx="185" cy="497" r="2"/>
  </g>
  <g stroke="chocolate" stroke-width="1">
    <line x1="235" y1="612" x2="431" y2="119"/>
    <circle cx="235" cy="612" r="2"/>
    <circle cx="431" cy="119" r="2"/>
  </g>
  <g stroke="chocolate" stroke-width="1">
    <line x1="120" y1="661" x2="579" y2="464"/>
    <circle cx="120" cy="661" r="2"/>
    <circle cx="579" cy="464" r="2"/>
  </g>
  <g stroke="chocolate" stroke-width="1">
    <line x1="579" y1="464" x2="382" y2="5"/>
    <circle cx="579" cy="464" r="2"/>
    <circle cx="382" cy="5" r="2"/>
  </g>
  <g stroke="black" stroke-width="1">
    <line x1="83" y1="83" x2="583" y2="83"/>
    <line x1="83" y1="83" x2="83" y2="583"/>
    <line x1="583" y1="583" x2="83" y2="583"/>
    <line x1="583" y1="583" x2="583" y2="83"/>
    <line x1="183" y1="80" x2="183" y2="86"/>
    <line x1="80" y1="183" x2="86" y2="183"/>
    <line x1="183" y1="580" x2="183" y2="586"/>
    <line x1="580" y1="183" x2="586" y2="183"/>
    <line x1="283" y1="80" x2="283" y2="86"/>
    <line x1="80" y1="283" x2="86" y2="283"/>
    <line x1="283" y1="580" x2="283" y2="586"/>
    <line x1="580" y1="283" x2="586" y2="283"/>
    <line x1="383" y1="80" x2="383" y2="86"/>
    <line x1="80" y1="383" x2="86" y2="383"/>
    <line x1="383" y1="580" x2="383" y2="586"/>
    <line x1="580" y1="383" x2="586" y2="383"/>
    <line x1="483" y1="80" x2="483" y2="86"/>
    <line x1="80" y1="483" x2="86" y2="483"/>
    <line x1="483" y1="580" x2="483" y2="586"/>
    <line x1="580" y1="483" x2="586" y2="483"/>
  </g>
  <g stroke="gray" stroke-width="1" stroke-dasharray="5,5">
    <line x1="183" y1="83" x2="183" y2="583"/>
    <line x1="83" y1="183" x2="583" y2="183"/>
    <line x1="283" y1="83" x2="283" y2="583"/>
    <line x1="83" y1="283" x2="583" y2="283"/>
    <line x1="383" y1="83" x2="383" y2="583"/>
    <line x1="83" y1="383" x2="583" y2="383"/>
    <line x1="483" y1="83" x2="483" y2="583"/>
    <line x1="83" y1="483" x2="583" y2="483"/>
  </g>
</svg>
