<?xml version="1.0" standalone="no"?>
<!DOCTYPE svg PUBLIC "-//W3C//DTD SVG 1.1//EN" 
  "http://www.w3.org/Graphics/SVG/1.1/DTD/svg11.dtd">
<svg width="510" height="510" version="1.1" id="toplevel"
    xmlns="http://www.w3.org/2000/svg"
    xmlns:xlink="http://www.w3.org/1999/xlink">
  <polygon points="371,268 428,159 468,130 468,86 292,42 245,97 283,150 311,130 338,251"
           fill="bisque"/>
  <g stroke="chocolate" stroke-width="1">
    <line x1="405" y1="83" x2="405" y2="70"/>
    <circle cx="405" cy="83" r="2"/>
    <circle cx="405" cy="70" r="2"/>
  </g>
  <g stroke="chocolate" stroke-width="1">
    <line x1="405" y1="86" x2="405" y2="83"/>
    <circle cx="405" cy="86" r="2"/>
    <circle cx="405" cy="83" r="2"/>
  </g>
  <g stroke="chocolate" stroke-width="1">
    <line x1="405" y1="83" x2="402" y2="77"/>
    <circle cx="405" cy="83" r="2"/>
    <circle cx="402" cy="77" r="2"/>
  </g>
  <g stroke="chocolate" stroke-width="1">
    <line x1="406" y1="86" x2="405" y2="83"/>
    <circle cx="406" cy="86" r="2"/>
    <circle cx="405" cy="83" r="2"/>
  </g>
  <g stroke="chocolate" stroke-width="1">
    <line x1="405" y1="86" x2="406" y2="86"/>
    <circle cx="405" cy="86" r="2"/>
    <circle cx="406" cy="86" r="2"/>
  </g>
  <g stroke="chocolate" stroke-width="1">
    <line x1="394" y1="91" x2="405" y2="86"/>
    <circle cx="394" cy="91" r="2"/>
    <circle cx="405" cy="86" r="2"/>
  </g>
  <g stroke="chocolate" stroke-width="1">
    <line x1="405" y1="130" x2="405" y2="86"/>
    <circle cx="405" cy="130" r="2"/>
    <circle cx="405" cy="86" r="2"/>
  </g>
  <g stroke="chocolate" stroke-width="1">
    <line x1="444" y1="130" x2="468" y2="130"/>
    <circle cx="444" cy="130" r="2"/>
    <circle cx="468" cy="130" r="2"/>
  </g>
  <g stroke="chocolate" stroke-width="1">
    <line x1="405" y1="130" x2="444" y2="130"/>
    <circle cx="405" cy="130" r="2"/>
    <circle cx="444" cy="130" r="2"/>
  </g>
  <g stroke="chocolate" stroke-width="1">
    <line x1="444" y1="130" x2="454" y2="112"/>
    <circle cx="444" cy="130" r="2"/>
    <circle cx="454" cy="112" r="2"/>
  </g>
  <g stroke="chocolate" stroke-width="1">
    <line x1="428" y1="159" x2="444" y2="130"/>
    <circle cx="428" cy="159" r="2"/>
    <circle cx="444" cy="130" r="2"/>
  </g>
  <g stroke="chocolate" stroke-width="1">
    <line x1="340" y1="110" x2="302" y2="90"/>
    <circle cx="340" cy="110" r="2"/>
    <circle cx="302" cy="90" r="2"/>
  </g>
  <g stroke="chocolate" stroke-width="1">
    <line x1="347" y1="113" x2="340" y2="110"/>
    <circle cx="347" cy="113" r="2"/>
    <circle cx="340" cy="110" r="2"/>
  </g>
  <g stroke="chocolate" stroke-width="1">
    <line x1="340" y1="110" x2="398" y2="69"/>
    <circle cx="340" cy="110" r="2"/>
    <circle cx="398" cy="69" r="2"/>
  </g>
  <g stroke="chocolate" stroke-width="1">
    <line x1="311" y1="130" x2="340" y2="110"/>
    <circle cx="311" cy="130" r="2"/>
    <circle cx="340" cy="110" r="2"/>
  </g>
  <g stroke="chocolate" stroke-width="1">
    <line x1="302" y1="90" x2="267" y2="71"/>
    <circle cx="302" cy="90" r="2"/>
    <circle cx="267" cy="71" r="2"/>
  </g>
  <g stroke="chocolate" stroke-width="1">
    <line x1="302" y1="90" x2="292" y2="42"/>
    <circle cx="302" cy="90" r="2"/>
    <circle cx="292" cy="42" r="2"/>
  </g>
  <g stroke="chocolate" stroke-width="1">
    <line x1="311" y1="130" x2="302" y2="90"/>
    <circle cx="311" cy="130" r="2"/>
    <circle cx="302" cy="90" r="2"/>
  </g>
  <g stroke="chocolate" stroke-width="1">
    <line x1="428" y1="130" x2="406" y2="86"/>
    <circle cx="428" cy="130" r="2"/>
    <circle cx="406" cy="86" r="2"/>
  </g>
  <g stroke="chocolate" stroke-width="1">
    <line x1="406" y1="86" x2="427" y2="76"/>
    <circle cx="406" cy="86" r="2"/>
    <circle cx="427" cy="76" r="2"/>
  </g>
  <g stroke="chocolate" stroke-width="1">
    <line x1="347" y1="113" x2="394" y2="91"/>
    <circle cx="347" cy="113" r="2"/>
    <circle cx="394" cy="91" r="2"/>
  </g>
  <g stroke="chocolate" stroke-width="1">
    <line x1="311" y1="130" x2="347" y2="113"/>
    <circle cx="311" cy="130" r="2"/>
    <circle cx="347" cy="113" r="2"/>
  </g>
  <g stroke="chocolate" stroke-width="1">
    <line x1="374" y1="128" x2="347" y2="113"/>
    <circle cx="374" cy="128" r="2"/>
    <circle cx="347" cy="113" r="2"/>
  </g>
  <g stroke="chocolate" stroke-width="1">
    <line x1="396" y1="173" x2="405" y2="161"/>
    <circle cx="396" cy="173" r="2"/>
    <circle cx="405" cy="161" r="2"/>
  </g>
  <g stroke="chocolate" stroke-width="1">
    <line x1="338" y1="251" x2="396" y2="173"/>
    <circle cx="338" cy="251" r="2"/>
    <circle cx="396" cy="173" r="2"/>
  </g>
  <g stroke="chocolate" stroke-width="1">
    <line x1="396" y1="173" x2="245" y2="97"/>
    <circle cx="396" cy="173" r="2"/>
    <circle cx="245" cy="97" r="2"/>
  </g>
  <g stroke="chocolate" stroke-width="1">
    <line x1="405" y1="177" x2="396" y2="173"/>
    <circle cx="405" cy="177" r="2"/>
    <circle cx="396" cy="173" r="2"/>
  </g>
  <g stroke="chocolate" stroke-width="1">
    <line x1="405" y1="161" x2="405" y2="130"/>
    <circle cx="405" cy="161" r="2"/>
    <circle cx="405" cy="130" r="2"/>
  </g>
  <g stroke="chocolate" stroke-width="1">
    <line x1="311" y1="130" x2="405" y2="130"/>
    <circle cx="311" cy="130" r="2"/>
    <circle cx="405" cy="130" r="2"/>
  </g>
  <g stroke="chocolate" stroke-width="1">
    <line x1="454" y1="112" x2="468" y2="86"/>
    <circle cx="454" cy="112" r="2"/>
    <circle cx="468" cy="86" r="2"/>
  </g>
  <g stroke="chocolate" stroke-width="1">
    <line x1="454" y1="112" x2="427" y2="76"/>
    <circle cx="454" cy="112" r="2"/>
    <circle cx="427" cy="76" r="2"/>
  </g>
  <g stroke="chocolate" stroke-width="1">
    <line x1="468" y1="130" x2="454" y2="112"/>
    <circle cx="468" cy="130" r="2"/>
    <circle cx="454" cy="112" r="2"/>
  </g>
  <g stroke="chocolate" stroke-width="1">
    <line x1="402" y1="77" x2="405" y2="70"/>
    <circle cx="402" cy="77" r="2"/>
    <circle cx="405" cy="70" r="2"/>
  </g>
  <g stroke="chocolate" stroke-width="1">
    <line x1="394" y1="91" x2="402" y2="77"/>
    <circle cx="394" cy="91" r="2"/>
    <circle cx="402" cy="77" r="2"/>
  </g>
  <g stroke="chocolate" stroke-width="1">
    <line x1="402" y1="77" x2="398" y2="69"/>
    <circle cx="402" cy="77" r="2"/>
    <circle cx="398" cy="69" r="2"/>
  </g>
  <g stroke="chocolate" stroke-width="1">
    <line x1="283" y1="150" x2="311" y2="130"/>
    <circle cx="283" cy="150" r="2"/>
    <circle cx="311" cy="130" r="2"/>
  </g>
  <g stroke="chocolate" stroke-width="1">
    <line x1="338" y1="251" x2="311" y2="130"/>
    <circle cx="338" cy="251" r="2"/>
    <circle cx="311" cy="130" r="2"/>
  </g>
  <g stroke="chocolate" stroke-width="1">
    <line x1="405" y1="177" x2="405" y2="161"/>
    <circle cx="405" cy="177" r="2"/>
    <circle cx="405" cy="161" r="2"/>
  </g>
  <g stroke="chocolate" stroke-width="1">
    <line x1="405" y1="161" x2="428" y2="130"/>
    <circle cx="405" cy="161" r="2"/>
    <circle cx="428" cy="130" r="2"/>
  </g>
  <g stroke="chocolate" stroke-width="1">
    <line x1="374" y1="128" x2="394" y2="91"/>
    <circle cx="374" cy="128" r="2"/>
    <circle cx="394" cy="91" r="2"/>
  </g>
  <g stroke="chocolate" stroke-width="1">
    <line x1="428" y1="159" x2="468" y2="130"/>
    <circle cx="428" cy="159" r="2"/>
    <circle cx="468" cy="130" r="2"/>
  </g>
  <g stroke="chocolate" stroke-width="1">
    <line x1="405" y1="177" x2="428" y2="159"/>
    <circle cx="405" cy="177" r="2"/>
    <circle cx="428" cy="159" r="2"/>
  </g>
  <g stroke="chocolate" stroke-width="1">
    <line x1="371" y1="268" x2="428" y2="159"/>
    <circle cx="371" cy="268" r="2"/>
    <circle cx="428" cy="159" r="2"/>
  </g>
  <g stroke="chocolate" stroke-width="1">
    <line x1="468" y1="86" x2="292" y2="42"/>
    <circle cx="468" cy="86" r="2"/>
    <circle cx="292" cy="42" r="2"/>
  </g>
  <g stroke="chocolate" stroke-width="1">
    <line x1="371" y1="268" x2="338" y2="251"/>
    <circle cx="371" cy="268" r="2"/>
    <circle cx="338" cy="251" r="2"/>
  </g>
  <g stroke="chocolate" stroke-width="1">
    <line x1="311" y1="130" x2="267" y2="71"/>
    <circle cx="311" cy="130" r="2"/>
    <circle cx="267" cy="71" r="2"/>
  </g>
  <g stroke="chocolate" stroke-width="1">
    <line x1="283" y1="150" x2="245" y2="97"/>
    <circle cx="283" cy="150" r="2"/>
    <circle cx="245" cy="97" r="2"/>
  </g>
  <g stroke="chocolate" stroke-width="1">
    <line x1="340" y1="110" x2="331" y2="52"/>
    <circle cx="340" cy="110" r="2"/>
    <circle cx="331" cy="52" r="2"/>
  </g>
  <g stroke="chocolate" stroke-width="1">
    <line x1="245" y1="97" x2="292" y2="42"/>
    <circle cx="245" cy="97" r="2"/>
    <circle cx="292" cy="42" r="2"/>
  </g>
  <g stroke="chocolate" stroke-width="1">
    <line x1="302" y1="90" x2="331" y2="52"/>
    <circle cx="302" cy="90" r="2"/>
    <circle cx="331" cy="52" r="2"/>
  </g>
  <g stroke="chocolate" stroke-width="1">
    <line x1="468" y1="130" x2="468" y2="86"/>
    <circle cx="468" cy="130" r="2"/>
    <circle cx="468" cy="86" r="2"/>
  </g>
  <g stroke="black" stroke-width="1">
    <line x1="5" y1="5" x2="505" y2="5"/>
    <line x1="5" y1="5" x2="5" y2="505"/>
    <line x1="505" y1="505" x2="5" y2="505"/>
    <line x1="505" y1="505" x2="505" y2="5"/>
    <line x1="105" y1="2" x2="105" y2="8"/>
    <line x1="2" y1="105" x2="8" y2="105"/>
    <line x1="105" y1="502" x2="105" y2="508"/>
    <line x1="502" y1="105" x2="508" y2="105"/>
    <line x1="205" y1="2" x2="205" y2="8"/>
    <line x1="2" y1="205" x2="8" y2="205"/>
    <line x1="205" y1="502" x2="205" y2="508"/>
    <line x1="502" y1="205" x2="508" y2="205"/>
    <line x1="305" y1="2" x2="305" y2="8"/>
    <line x1="2" y1="305" x2="8" y2="305"/>
    <line x1="305" y1="502" x2="305" y2="508"/>
    <line x1="502" y1="305" x2="508" y2="305"/>
    <line x1="405" y1="2" x2="405" y2="8"/>
    <line x1="2" y1="405" x2="8" y2="405"/>
    <line x1="405" y1="502" x2="405" y2="508"/>
    <line x1="502" y1="405" x2="508" y2="405"/>
  </g>
  <g stroke="gray" stroke-width="1" stroke-dasharray="5,5">
    <line x1="105" y1="5" x2="105" y2="505"/>
    <line x1="5" y1="105" x2="505" y2="105"/>
    <line x1="205" y1="5" x2="205" y2="505"/>
    <line x1="5" y1="205" x2="505" y2="205"/>
    <line x1="305" y1="5" x2="305" y2="505"/>
    <line x1="5" y1="305" x2="505" y2="305"/>
    <line x1="405" y1="5" x2="405" y2="505"/>
    <line x1="5" y1="405" x2="505" y2="405"/>
  </g>
</svg>
