<?xml version="1.0" standalone="no"?>
<!DOCTYPE svg PUBLIC "-//W3C//DTD SVG 1.1//EN" 
  "http://www.w3.org/Graphics/SVG/1.1/DTD/svg11.dtd">
<svg width="564" height="564" version="1.1" id="toplevel"
    xmlns="http://www.w3.org/2000/svg"
    xmlns:xlink="http://www.w3.org/1999/xlink">
  <polygon points="508,456 559,397 527,271 436,276 424,247 216,108 93,293 17,296 5,370"
           fill="bisque"/>
  <g stroke="chocolate" stroke-width="1">
    <line x1="480" y1="388" x2="436" y2="276"/>
    <circle cx="480" cy="388" r="2"/>
    <circle cx="436" cy="276" r="2"/>
  </g>
  <g stroke="chocolate" stroke-width="1">
    <line x1="500" y1="438" x2="480" y2="388"/>
    <circle cx="500" cy="438" r="2"/>
    <circle cx="480" cy="388" r="2"/>
  </g>
  <g stroke="chocolate" stroke-width="1">
    <line x1="480" y1="388" x2="395" y2="378"/>
    <circle cx="480" cy="388" r="2"/>
    <circle cx="395" cy="378" r="2"/>
  </g>
  <g stroke="chocolate" stroke-width="1">
    <line x1="508" y1="391" x2="480" y2="388"/>
    <circle cx="508" cy="391" r="2"/>
    <circle cx="480" cy="388" r="2"/>
  </g>
  <g stroke="chocolate" stroke-width="1">
    <line x1="418" y1="277" x2="436" y2="276"/>
    <circle cx="418" cy="277" r="2"/>
    <circle cx="436" cy="276" r="2"/>
  </g>
  <g stroke="chocolate" stroke-width="1">
    <line x1="93" y1="293" x2="418" y2="277"/>
    <circle cx="93" cy="293" r="2"/>
    <circle cx="418" cy="277" r="2"/>
  </g>
  <g stroke="chocolate" stroke-width="1">
    <line x1="418" y1="277" x2="424" y2="247"/>
    <circle cx="418" cy="277" r="2"/>
    <circle cx="424" cy="247" r="2"/>
  </g>
  <g stroke="chocolate" stroke-width="1">
    <line x1="395" y1="378" x2="418" y2="277"/>
    <circle cx="395" cy="378" r="2"/>
    <circle cx="418" cy="277" r="2"/>
  </g>
  <g stroke="chocolate" stroke-width="1">
    <line x1="385" y1="420" x2="384" y2="420"/>
    <circle cx="385" cy="420" r="2"/>
    <circle cx="384" cy="420" r="2"/>
  </g>
  <g stroke="chocolate" stroke-width="1">
    <line x1="500" y1="441" x2="385" y2="420"/>
    <circle cx="500" cy="441" r="2"/>
    <circle cx="385" cy="420" r="2"/>
  </g>
  <g stroke="chocolate" stroke-width="1">
    <line x1="385" y1="420" x2="395" y2="378"/>
    <circle cx="385" cy="420" r="2"/>
    <circle cx="395" cy="378" r="2"/>
  </g>
  <g stroke="chocolate" stroke-width="1">
    <line x1="382" y1="435" x2="385" y2="420"/>
    <circle cx="382" cy="435" r="2"/>
    <circle cx="385" cy="420" r="2"/>
  </g>
  <g stroke="chocolate" stroke-width="1">
    <line x1="49" y1="358" x2="93" y2="293"/>
    <circle cx="49" cy="358" r="2"/>
    <circle cx="93" cy="293" r="2"/>
  </g>
  <g stroke="chocolate" stroke-width="1">
    <line x1="37" y1="376" x2="49" y2="358"/>
    <circle cx="37" cy="376" r="2"/>
    <circle cx="49" cy="358" r="2"/>
  </g>
  <g stroke="chocolate" stroke-width="1">
    <line x1="49" y1="358" x2="32" y2="354"/>
    <circle cx="49" cy="358" r="2"/>
    <circle cx="32" cy="354" r="2"/>
  </g>
  <g stroke="chocolate" stroke-width="1">
    <line x1="384" y1="420" x2="49" y2="358"/>
    <circle cx="384" cy="420" r="2"/>
    <circle cx="49" cy="358" r="2"/>
  </g>
  <g stroke="chocolate" stroke-width="1">
    <line x1="436" y1="276" x2="527" y2="271"/>
    <circle cx="436" cy="276" r="2"/>
    <circle cx="527" cy="271" r="2"/>
  </g>
  <g stroke="chocolate" stroke-width="1">
    <line x1="436" y1="276" x2="424" y2="247"/>
    <circle cx="436" cy="276" r="2"/>
    <circle cx="424" cy="247" r="2"/>
  </g>
  <g stroke="chocolate" stroke-width="1">
    <line x1="559" y1="397" x2="508" y2="391"/>
    <circle cx="559" cy="397" r="2"/>
    <circle cx="508" cy="391" r="2"/>
  </g>
  <g stroke="chocolate" stroke-width="1">
    <line x1="508" y1="391" x2="527" y2="271"/>
    <circle cx="508" cy="391" r="2"/>
    <circle cx="527" cy="271" r="2"/>
  </g>
  <g stroke="chocolate" stroke-width="1">
    <line x1="500" y1="438" x2="508" y2="391"/>
    <circle cx="500" cy="438" r="2"/>
    <circle cx="508" cy="391" r="2"/>
  </g>
  <g stroke="chocolate" stroke-width="1">
    <line x1="500" y1="441" x2="500" y2="441"/>
    <circle cx="500" cy="441" r="2"/>
    <circle cx="500" cy="441" r="2"/>
  </g>
  <g stroke="chocolate" stroke-width="1">
    <line x1="500" y1="441" x2="500" y2="438"/>
    <circle cx="500" cy="441" r="2"/>
    <circle cx="500" cy="438" r="2"/>
  </g>
  <g stroke="chocolate" stroke-width="1">
    <line x1="498" y1="454" x2="500" y2="441"/>
    <circle cx="498" cy="454" r="2"/>
    <circle cx="500" cy="441" r="2"/>
  </g>
  <g stroke="chocolate" stroke-width="1">
    <line x1="17" y1="296" x2="93" y2="293"/>
    <circle cx="17" cy="296" r="2"/>
    <circle cx="93" cy="293" r="2"/>
  </g>
  <g stroke="chocolate" stroke-width="1">
    <line x1="93" y1="293" x2="216" y2="108"/>
    <circle cx="93" cy="293" r="2"/>
    <circle cx="216" cy="108" r="2"/>
  </g>
  <g stroke="chocolate" stroke-width="1">
    <line x1="395" y1="378" x2="389" y2="377"/>
    <circle cx="395" cy="378" r="2"/>
    <circle cx="389" cy="377" r="2"/>
  </g>
  <g stroke="chocolate" stroke-width="1">
    <line x1="384" y1="420" x2="389" y2="377"/>
    <circle cx="384" cy="420" r="2"/>
    <circle cx="389" cy="377" r="2"/>
  </g>
  <g stroke="chocolate" stroke-width="1">
    <line x1="382" y1="435" x2="384" y2="420"/>
    <circle cx="382" cy="435" r="2"/>
    <circle cx="384" cy="420" r="2"/>
  </g>
  <g stroke="chocolate" stroke-width="1">
    <line x1="508" y1="456" x2="500" y2="438"/>
    <circle cx="508" cy="456" r="2"/>
    <circle cx="500" cy="438" r="2"/>
  </g>
  <g stroke="chocolate" stroke-width="1">
    <line x1="32" y1="354" x2="9" y2="350"/>
    <circle cx="32" cy="354" r="2"/>
    <circle cx="9" cy="350" r="2"/>
  </g>
  <g stroke="chocolate" stroke-width="1">
    <line x1="32" y1="354" x2="17" y2="296"/>
    <circle cx="32" cy="354" r="2"/>
    <circle cx="17" cy="296" r="2"/>
  </g>
  <g stroke="chocolate" stroke-width="1">
    <line x1="37" y1="376" x2="32" y2="354"/>
    <circle cx="37" cy="376" r="2"/>
    <circle cx="32" cy="354" r="2"/>
  </g>
  <g stroke="chocolate" stroke-width="1">
    <line x1="508" y1="456" x2="5" y2="370"/>
    <circle cx="508" cy="456" r="2"/>
    <circle cx="5" cy="370" r="2"/>
  </g>
  <g stroke="chocolate" stroke-width="1">
    <line x1="424" y1="247" x2="216" y2="108"/>
    <circle cx="424" cy="247" r="2"/>
    <circle cx="216" cy="108" r="2"/>
  </g>
  <g stroke="chocolate" stroke-width="1">
    <line x1="508" y1="456" x2="559" y2="397"/>
    <circle cx="508" cy="456" r="2"/>
    <circle cx="559" cy="397" r="2"/>
  </g>
  <g stroke="chocolate" stroke-width="1">
    <line x1="5" y1="370" x2="9" y2="350"/>
    <circle cx="5" cy="370" r="2"/>
    <circle cx="9" cy="350" r="2"/>
  </g>
  <g stroke="chocolate" stroke-width="1">
    <line x1="5" y1="370" x2="17" y2="296"/>
    <circle cx="5" cy="370" r="2"/>
    <circle cx="17" cy="296" r="2"/>
  </g>
  <g stroke="chocolate" stroke-width="1">
    <line x1="498" y1="454" x2="500" y2="441"/>
    <circle cx="498" cy="454" r="2"/>
    <circle cx="500" cy="441" r="2"/>
  </g>
  <g stroke="chocolate" stroke-width="1">
    <line x1="559" y1="397" x2="527" y2="271"/>
    <circle cx="559" cy="397" r="2"/>
    <circle cx="527" cy="271" r="2"/>
  </g>
  <g stroke="black" stroke-width="1">
    <line x1="32" y1="32" x2="532" y2="32"/>
    <line x1="32" y1="32" x2="32" y2="532"/>
    <line x1="532" y1="532" x2="32" y2="532"/>
    <line x1="532" y1="532" x2="532" y2="32"/>
    <line x1="132" y1="29" x2="132" y2="35"/>
    <line x1="29" y1="132" x2="35" y2="132"/>
    <line x1="132" y1="529" x2="132" y2="535"/>
    <line x1="529" y1="132" x2="535" y2="132"/>
    <line x1="232" y1="29" x2="232" y2="35"/>
    <line x1="29" y1="232" x2="35" y2="232"/>
    <line x1="232" y1="529" x2="232" y2="535"/>
    <line x1="529" y1="232" x2="535" y2="232"/>
    <line x1="332" y1="29" x2="332" y2="35"/>
    <line x1="29" y1="332" x2="35" y2="332"/>
    <line x1="332" y1="529" x2="332" y2="535"/>
    <line x1="529" y1="332" x2="535" y2="332"/>
    <line x1="432" y1="29" x2="432" y2="35"/>
    <line x1="29" y1="432" x2="35" y2="432"/>
    <line x1="432" y1="529" x2="432" y2="535"/>
    <line x1="529" y1="432" x2="535" y2="432"/>
  </g>
  <g stroke="gray" stroke-width="1" stroke-dasharray="5,5">
    <line x1="132" y1="32" x2="132" y2="532"/>
    <line x1="32" y1="132" x2="532" y2="132"/>
    <line x1="232" y1="32" x2="232" y2="532"/>
    <line x1="32" y1="232" x2="532" y2="232"/>
    <line x1="332" y1="32" x2="332" y2="532"/>
    <line x1="32" y1="332" x2="532" y2="332"/>
    <line x1="432" y1="32" x2="432" y2="532"/>
    <line x1="32" y1="432" x2="532" y2="432"/>
  </g>
</svg>
