<?xml version="1.0" standalone="no"?>
<!DOCTYPE svg PUBLIC "-//W3C//DTD SVG 1.1//EN" 
  "http://www.w3.org/Graphics/SVG/1.1/DTD/svg11.dtd">
<svg width="510" height="510" version="1.1" id="toplevel"
    xmlns="http://www.w3.org/2000/svg"
    xmlns:xlink="http://www.w3.org/1999/xlink">
  <polygon points="5,505 455,505 455,483 483,483 483,33 455,33 5,483"
           fill="bisque"/>
  <g stroke="chocolate" stroke-width="1">
    <line x1="455" y1="483" x2="455" y2="83"/>
    <circle cx="455" cy="483" r="2"/>
    <circle cx="455" cy="83" r="2"/>
  </g>
  <g stroke="chocolate" stroke-width="1">
    <line x1="455" y1="505" x2="455" y2="483"/>
    <circle cx="455" cy="505" r="2"/>
    <circle cx="455" cy="483" r="2"/>
  </g>
  <g stroke="chocolate" stroke-width="1">
    <line x1="455" y1="483" x2="483" y2="483"/>
    <circle cx="455" cy="483" r="2"/>
    <circle cx="483" cy="483" r="2"/>
  </g>
  <g stroke="chocolate" stroke-width="1">
    <line x1="405" y1="483" x2="455" y2="483"/>
    <circle cx="405" cy="483" r="2"/>
    <circle cx="455" cy="483" r="2"/>
  </g>
  <g stroke="chocolate" stroke-width="1">
    <line x1="455" y1="83" x2="483" y2="83"/>
    <circle cx="455" cy="83" r="2"/>
    <circle cx="483" cy="83" r="2"/>
  </g>
  <g stroke="chocolate" stroke-width="1">
    <line x1="405" y1="83" x2="455" y2="83"/>
    <circle cx="405" cy="83" r="2"/>
    <circle cx="455" cy="83" r="2"/>
  </g>
  <g stroke="chocolate" stroke-width="1">
    <line x1="455" y1="83" x2="455" y2="33"/>
    <circle cx="455" cy="83" r="2"/>
    <circle cx="455" cy="33" r="2"/>
  </g>
  <g stroke="chocolate" stroke-width="1">
    <line x1="5" y1="483" x2="405" y2="483"/>
    <circle cx="5" cy="483" r="2"/>
    <circle cx="405" cy="483" r="2"/>
  </g>
  <g stroke="chocolate" stroke-width="1">
    <line x1="405" y1="483" x2="405" y2="83"/>
    <circle cx="405" cy="483" r="2"/>
    <circle cx="405" cy="83" r="2"/>
  </g>
  <g stroke="chocolate" stroke-width="1">
    <line x1="405" y1="505" x2="405" y2="483"/>
    <circle cx="405" cy="505" r="2"/>
    <circle cx="405" cy="483" r="2"/>
  </g>
  <g stroke="chocolate" stroke-width="1">
    <line x1="455" y1="33" x2="483" y2="33"/>
    <circle cx="455" cy="33" r="2"/>
    <circle cx="483" cy="33" r="2"/>
  </g>
  <g stroke="chocolate" stroke-width="1">
    <line x1="5" y1="483" x2="455" y2="33"/>
    <circle cx="5" cy="483" r="2"/>
    <circle cx="455" cy="33" r="2"/>
  </g>
  <g stroke="chocolate" stroke-width="1">
    <line x1="483" y1="483" x2="483" y2="33"/>
    <circle cx="483" cy="483" r="2"/>
    <circle cx="483" cy="33" r="2"/>
  </g>
  <g stroke="chocolate" stroke-width="1">
    <line x1="5" y1="505" x2="5" y2="483"/>
    <circle cx="5" cy="505" r="2"/>
    <circle cx="5" cy="483" r="2"/>
  </g>
  <g stroke="chocolate" stroke-width="1">
    <line x1="5" y1="505" x2="455" y2="505"/>
    <circle cx="5" cy="505" r="2"/>
    <circle cx="455" cy="505" r="2"/>
  </g>
  <g stroke="black" stroke-width="1">
    <line x1="5" y1="5" x2="505" y2="5"/>
    <line x1="5" y1="5" x2="5" y2="505"/>
    <line x1="505" y1="505" x2="5" y2="505"/>
    <line x1="505" y1="505" x2="505" y2="5"/>
    <line x1="105" y1="2" x2="105" y2="8"/>
    <line x1="2" y1="105" x2="8" y2="105"/>
    <line x1="105" y1="502" x2="105" y2="508"/>
    <line x1="502" y1="105" x2="508" y2="105"/>
    <line x1="205" y1="2" x2="205" y2="8"/>
    <line x1="2" y1="205" x2="8" y2="205"/>
    <line x1="205" y1="502" x2="205" y2="508"/>
    <line x1="502" y1="205" x2="508" y2="205"/>
    <line x1="305" y1="2" x2="305" y2="8"/>
    <line x1="2" y1="305" x2="8" y2="305"/>
    <line x1="305" y1="502" x2="305" y2="508"/>
    <line x1="502" y1="305" x2="508" y2="305"/>
    <line x1="405" y1="2" x2="405" y2="8"/>
    <line x1="2" y1="405" x2="8" y2="405"/>
    <line x1="405" y1="502" x2="405" y2="508"/>
    <line x1="502" y1="405" x2="508" y2="405"/>
  </g>
  <g stroke="gray" stroke-width="1" stroke-dasharray="5,5">
    <line x1="105" y1="5" x2="105" y2="505"/>
    <line x1="5" y1="105" x2="505" y2="105"/>
    <line x1="205" y1="5" x2="205" y2="505"/>
    <line x1="5" y1="205" x2="505" y2="205"/>
    <line x1="305" y1="5" x2="305" y2="505"/>
    <line x1="5" y1="305" x2="505" y2="305"/>
    <line x1="405" y1="5" x2="405" y2="505"/>
    <line x1="5" y1="405" x2="505" y2="405"/>
  </g>
</svg>
