<?xml version="1.0" standalone="no"?>
<!DOCTYPE svg PUBLIC "-//W3C//DTD SVG 1.1//EN" 
  "http://www.w3.org/Graphics/SVG/1.1/DTD/svg11.dtd">
<svg width="510" height="510" version="1.1" id="toplevel"
    xmlns="http://www.w3.org/2000/svg"
    xmlns:xlink="http://www.w3.org/1999/xlink">
  <polygon points="247,423 306,397 405,123 358,87 327,120 166,115 105,218 213,282 205,328"
           fill="bisque"/>
  <g stroke="chocolate" stroke-width="1">
    <line x1="243" y1="230" x2="274" y2="178"/>
    <circle cx="243" cy="230" r="2"/>
    <circle cx="274" cy="178" r="2"/>
  </g>
  <g stroke="chocolate" stroke-width="1">
    <line x1="236" y1="242" x2="243" y2="230"/>
    <circle cx="236" cy="242" r="2"/>
    <circle cx="243" cy="230" r="2"/>
  </g>
  <g stroke="chocolate" stroke-width="1">
    <line x1="243" y1="230" x2="272" y2="223"/>
    <circle cx="243" cy="230" r="2"/>
    <circle cx="272" cy="223" r="2"/>
  </g>
  <g stroke="chocolate" stroke-width="1">
    <line x1="227" y1="234" x2="243" y2="230"/>
    <circle cx="227" cy="234" r="2"/>
    <circle cx="243" cy="230" r="2"/>
  </g>
  <g stroke="chocolate" stroke-width="1">
    <line x1="224" y1="231" x2="166" y2="115"/>
    <circle cx="224" cy="231" r="2"/>
    <circle cx="166" cy="115" r="2"/>
  </g>
  <g stroke="chocolate" stroke-width="1">
    <line x1="225" y1="234" x2="224" y2="231"/>
    <circle cx="225" cy="234" r="2"/>
    <circle cx="224" cy="231" r="2"/>
  </g>
  <g stroke="chocolate" stroke-width="1">
    <line x1="224" y1="231" x2="224" y2="231"/>
    <circle cx="224" cy="231" r="2"/>
    <circle cx="224" cy="231" r="2"/>
  </g>
  <g stroke="chocolate" stroke-width="1">
    <line x1="220" y1="235" x2="224" y2="231"/>
    <circle cx="220" cy="235" r="2"/>
    <circle cx="224" cy="231" r="2"/>
  </g>
  <g stroke="chocolate" stroke-width="1">
    <line x1="274" y1="178" x2="315" y2="134"/>
    <circle cx="274" cy="178" r="2"/>
    <circle cx="315" cy="134" r="2"/>
  </g>
  <g stroke="chocolate" stroke-width="1">
    <line x1="224" y1="231" x2="274" y2="178"/>
    <circle cx="224" cy="231" r="2"/>
    <circle cx="274" cy="178" r="2"/>
  </g>
  <g stroke="chocolate" stroke-width="1">
    <line x1="274" y1="178" x2="282" y2="163"/>
    <circle cx="274" cy="178" r="2"/>
    <circle cx="282" cy="163" r="2"/>
  </g>
  <g stroke="chocolate" stroke-width="1">
    <line x1="321" y1="146" x2="329" y2="133"/>
    <circle cx="321" cy="146" r="2"/>
    <circle cx="329" cy="133" r="2"/>
  </g>
  <g stroke="chocolate" stroke-width="1">
    <line x1="272" y1="223" x2="321" y2="146"/>
    <circle cx="272" cy="223" r="2"/>
    <circle cx="321" cy="146" r="2"/>
  </g>
  <g stroke="chocolate" stroke-width="1">
    <line x1="321" y1="146" x2="315" y2="134"/>
    <circle cx="321" cy="146" r="2"/>
    <circle cx="315" cy="134" r="2"/>
  </g>
  <g stroke="chocolate" stroke-width="1">
    <line x1="350" y1="204" x2="321" y2="146"/>
    <circle cx="350" cy="204" r="2"/>
    <circle cx="321" cy="146" r="2"/>
  </g>
  <g stroke="chocolate" stroke-width="1">
    <line x1="242" y1="269" x2="232" y2="248"/>
    <circle cx="242" cy="269" r="2"/>
    <circle cx="232" cy="248" r="2"/>
  </g>
  <g stroke="chocolate" stroke-width="1">
    <line x1="250" y1="285" x2="242" y2="269"/>
    <circle cx="250" cy="285" r="2"/>
    <circle cx="242" cy="269" r="2"/>
  </g>
  <g stroke="chocolate" stroke-width="1">
    <line x1="242" y1="269" x2="251" y2="255"/>
    <circle cx="242" cy="269" r="2"/>
    <circle cx="251" cy="255" r="2"/>
  </g>
  <g stroke="chocolate" stroke-width="1">
    <line x1="228" y1="291" x2="242" y2="269"/>
    <circle cx="228" cy="291" r="2"/>
    <circle cx="242" cy="269" r="2"/>
  </g>
  <g stroke="chocolate" stroke-width="1">
    <line x1="251" y1="255" x2="272" y2="223"/>
    <circle cx="251" cy="255" r="2"/>
    <circle cx="272" cy="223" r="2"/>
  </g>
  <g stroke="chocolate" stroke-width="1">
    <line x1="272" y1="223" x2="350" y2="204"/>
    <circle cx="272" cy="223" r="2"/>
    <circle cx="350" cy="204" r="2"/>
  </g>
  <g stroke="chocolate" stroke-width="1">
    <line x1="232" y1="248" x2="225" y2="234"/>
    <circle cx="232" cy="248" r="2"/>
    <circle cx="225" cy="234" r="2"/>
  </g>
  <g stroke="chocolate" stroke-width="1">
    <line x1="225" y1="234" x2="227" y2="234"/>
    <circle cx="225" cy="234" r="2"/>
    <circle cx="227" cy="234" r="2"/>
  </g>
  <g stroke="chocolate" stroke-width="1">
    <line x1="220" y1="235" x2="225" y2="234"/>
    <circle cx="220" cy="235" r="2"/>
    <circle cx="225" cy="234" r="2"/>
  </g>
  <g stroke="chocolate" stroke-width="1">
    <line x1="224" y1="231" x2="224" y2="231"/>
    <circle cx="224" cy="231" r="2"/>
    <circle cx="224" cy="231" r="2"/>
  </g>
  <g stroke="chocolate" stroke-width="1">
    <line x1="227" y1="234" x2="224" y2="231"/>
    <circle cx="227" cy="234" r="2"/>
    <circle cx="224" cy="231" r="2"/>
  </g>
  <g stroke="chocolate" stroke-width="1">
    <line x1="232" y1="248" x2="236" y2="242"/>
    <circle cx="232" cy="248" r="2"/>
    <circle cx="236" cy="242" r="2"/>
  </g>
  <g stroke="chocolate" stroke-width="1">
    <line x1="236" y1="242" x2="227" y2="234"/>
    <circle cx="236" cy="242" r="2"/>
    <circle cx="227" cy="234" r="2"/>
  </g>
  <g stroke="chocolate" stroke-width="1">
    <line x1="251" y1="255" x2="236" y2="242"/>
    <circle cx="251" cy="255" r="2"/>
    <circle cx="236" cy="242" r="2"/>
  </g>
  <g stroke="chocolate" stroke-width="1">
    <line x1="232" y1="293" x2="228" y2="291"/>
    <circle cx="232" cy="293" r="2"/>
    <circle cx="228" cy="291" r="2"/>
  </g>
  <g stroke="chocolate" stroke-width="1">
    <line x1="264" y1="312" x2="232" y2="293"/>
    <circle cx="264" cy="312" r="2"/>
    <circle cx="232" cy="293" r="2"/>
  </g>
  <g stroke="chocolate" stroke-width="1">
    <line x1="232" y1="293" x2="250" y2="285"/>
    <circle cx="232" cy="293" r="2"/>
    <circle cx="250" cy="285" r="2"/>
  </g>
  <g stroke="chocolate" stroke-width="1">
    <line x1="225" y1="296" x2="232" y2="293"/>
    <circle cx="225" cy="296" r="2"/>
    <circle cx="232" cy="293" r="2"/>
  </g>
  <g stroke="chocolate" stroke-width="1">
    <line x1="312" y1="129" x2="308" y2="120"/>
    <circle cx="312" cy="129" r="2"/>
    <circle cx="308" cy="120" r="2"/>
  </g>
  <g stroke="chocolate" stroke-width="1">
    <line x1="315" y1="134" x2="312" y2="129"/>
    <circle cx="315" cy="134" r="2"/>
    <circle cx="312" cy="129" r="2"/>
  </g>
  <g stroke="chocolate" stroke-width="1">
    <line x1="312" y1="129" x2="320" y2="120"/>
    <circle cx="312" cy="129" r="2"/>
    <circle cx="320" cy="120" r="2"/>
  </g>
  <g stroke="chocolate" stroke-width="1">
    <line x1="282" y1="163" x2="312" y2="129"/>
    <circle cx="282" cy="163" r="2"/>
    <circle cx="312" cy="129" r="2"/>
  </g>
  <g stroke="chocolate" stroke-width="1">
    <line x1="213" y1="282" x2="232" y2="248"/>
    <circle cx="213" cy="282" r="2"/>
    <circle cx="232" cy="248" r="2"/>
  </g>
  <g stroke="chocolate" stroke-width="1">
    <line x1="327" y1="120" x2="166" y2="115"/>
    <circle cx="327" cy="120" r="2"/>
    <circle cx="166" cy="115" r="2"/>
  </g>
  <g stroke="chocolate" stroke-width="1">
    <line x1="337" y1="121" x2="327" y2="120"/>
    <circle cx="337" cy="121" r="2"/>
    <circle cx="327" cy="120" r="2"/>
  </g>
  <g stroke="chocolate" stroke-width="1">
    <line x1="327" y1="120" x2="358" y2="87"/>
    <circle cx="327" cy="120" r="2"/>
    <circle cx="358" cy="87" r="2"/>
  </g>
  <g stroke="chocolate" stroke-width="1">
    <line x1="323" y1="125" x2="327" y2="120"/>
    <circle cx="323" cy="125" r="2"/>
    <circle cx="327" cy="120" r="2"/>
  </g>
  <g stroke="chocolate" stroke-width="1">
    <line x1="329" y1="133" x2="337" y2="121"/>
    <circle cx="329" cy="133" r="2"/>
    <circle cx="337" cy="121" r="2"/>
  </g>
  <g stroke="chocolate" stroke-width="1">
    <line x1="329" y1="133" x2="323" y2="125"/>
    <circle cx="329" cy="133" r="2"/>
    <circle cx="323" cy="125" r="2"/>
  </g>
  <g stroke="chocolate" stroke-width="1">
    <line x1="378" y1="198" x2="329" y2="133"/>
    <circle cx="378" cy="198" r="2"/>
    <circle cx="329" cy="133" r="2"/>
  </g>
  <g stroke="chocolate" stroke-width="1">
    <line x1="271" y1="326" x2="288" y2="326"/>
    <circle cx="271" cy="326" r="2"/>
    <circle cx="288" cy="326" r="2"/>
  </g>
  <g stroke="chocolate" stroke-width="1">
    <line x1="205" y1="328" x2="271" y2="326"/>
    <circle cx="205" cy="328" r="2"/>
    <circle cx="271" cy="326" r="2"/>
  </g>
  <g stroke="chocolate" stroke-width="1">
    <line x1="271" y1="326" x2="264" y2="312"/>
    <circle cx="271" cy="326" r="2"/>
    <circle cx="264" cy="312" r="2"/>
  </g>
  <g stroke="chocolate" stroke-width="1">
    <line x1="278" y1="340" x2="271" y2="326"/>
    <circle cx="278" cy="340" r="2"/>
    <circle cx="271" cy="326" r="2"/>
  </g>
  <g stroke="chocolate" stroke-width="1">
    <line x1="315" y1="134" x2="323" y2="125"/>
    <circle cx="315" cy="134" r="2"/>
    <circle cx="323" cy="125" r="2"/>
  </g>
  <g stroke="chocolate" stroke-width="1">
    <line x1="228" y1="291" x2="213" y2="282"/>
    <circle cx="228" cy="291" r="2"/>
    <circle cx="213" cy="282" r="2"/>
  </g>
  <g stroke="chocolate" stroke-width="1">
    <line x1="205" y1="328" x2="228" y2="291"/>
    <circle cx="205" cy="328" r="2"/>
    <circle cx="228" cy="291" r="2"/>
  </g>
  <g stroke="chocolate" stroke-width="1">
    <line x1="274" y1="275" x2="365" y2="234"/>
    <circle cx="274" cy="275" r="2"/>
    <circle cx="365" cy="234" r="2"/>
  </g>
  <g stroke="chocolate" stroke-width="1">
    <line x1="250" y1="285" x2="274" y2="275"/>
    <circle cx="250" cy="285" r="2"/>
    <circle cx="274" cy="275" r="2"/>
  </g>
  <g stroke="chocolate" stroke-width="1">
    <line x1="274" y1="275" x2="251" y2="255"/>
    <circle cx="274" cy="275" r="2"/>
    <circle cx="251" cy="255" r="2"/>
  </g>
  <g stroke="chocolate" stroke-width="1">
    <line x1="332" y1="325" x2="274" y2="275"/>
    <circle cx="332" cy="325" r="2"/>
    <circle cx="274" cy="275" r="2"/>
  </g>
  <g stroke="chocolate" stroke-width="1">
    <line x1="337" y1="121" x2="358" y2="87"/>
    <circle cx="337" cy="121" r="2"/>
    <circle cx="358" cy="87" r="2"/>
  </g>
  <g stroke="chocolate" stroke-width="1">
    <line x1="405" y1="123" x2="337" y2="121"/>
    <circle cx="405" cy="123" r="2"/>
    <circle cx="337" cy="121" r="2"/>
  </g>
  <g stroke="chocolate" stroke-width="1">
    <line x1="264" y1="312" x2="250" y2="285"/>
    <circle cx="264" cy="312" r="2"/>
    <circle cx="250" cy="285" r="2"/>
  </g>
  <g stroke="chocolate" stroke-width="1">
    <line x1="224" y1="231" x2="282" y2="163"/>
    <circle cx="224" cy="231" r="2"/>
    <circle cx="282" cy="163" r="2"/>
  </g>
  <g stroke="chocolate" stroke-width="1">
    <line x1="282" y1="163" x2="308" y2="120"/>
    <circle cx="282" cy="163" r="2"/>
    <circle cx="308" cy="120" r="2"/>
  </g>
  <g stroke="chocolate" stroke-width="1">
    <line x1="213" y1="282" x2="105" y2="218"/>
    <circle cx="213" cy="282" r="2"/>
    <circle cx="105" cy="218" r="2"/>
  </g>
  <g stroke="chocolate" stroke-width="1">
    <line x1="213" y1="282" x2="220" y2="235"/>
    <circle cx="213" cy="282" r="2"/>
    <circle cx="220" cy="235" r="2"/>
  </g>
  <g stroke="chocolate" stroke-width="1">
    <line x1="205" y1="328" x2="213" y2="282"/>
    <circle cx="205" cy="328" r="2"/>
    <circle cx="213" cy="282" r="2"/>
  </g>
  <g stroke="chocolate" stroke-width="1">
    <line x1="288" y1="326" x2="264" y2="312"/>
    <circle cx="288" cy="326" r="2"/>
    <circle cx="264" cy="312" r="2"/>
  </g>
  <g stroke="chocolate" stroke-width="1">
    <line x1="324" y1="347" x2="288" y2="326"/>
    <circle cx="324" cy="347" r="2"/>
    <circle cx="288" cy="326" r="2"/>
  </g>
  <g stroke="chocolate" stroke-width="1">
    <line x1="288" y1="326" x2="332" y2="325"/>
    <circle cx="288" cy="326" r="2"/>
    <circle cx="332" cy="325" r="2"/>
  </g>
  <g stroke="chocolate" stroke-width="1">
    <line x1="323" y1="125" x2="320" y2="120"/>
    <circle cx="323" cy="125" r="2"/>
    <circle cx="320" cy="120" r="2"/>
  </g>
  <g stroke="chocolate" stroke-width="1">
    <line x1="306" y1="397" x2="278" y2="340"/>
    <circle cx="306" cy="397" r="2"/>
    <circle cx="278" cy="340" r="2"/>
  </g>
  <g stroke="chocolate" stroke-width="1">
    <line x1="278" y1="340" x2="205" y2="328"/>
    <circle cx="278" cy="340" r="2"/>
    <circle cx="205" cy="328" r="2"/>
  </g>
  <g stroke="chocolate" stroke-width="1">
    <line x1="324" y1="347" x2="278" y2="340"/>
    <circle cx="324" cy="347" r="2"/>
    <circle cx="278" cy="340" r="2"/>
  </g>
  <g stroke="chocolate" stroke-width="1">
    <line x1="350" y1="204" x2="378" y2="198"/>
    <circle cx="350" cy="204" r="2"/>
    <circle cx="378" cy="198" r="2"/>
  </g>
  <g stroke="chocolate" stroke-width="1">
    <line x1="365" y1="234" x2="350" y2="204"/>
    <circle cx="365" cy="234" r="2"/>
    <circle cx="350" cy="204" r="2"/>
  </g>
  <g stroke="chocolate" stroke-width="1">
    <line x1="105" y1="218" x2="166" y2="115"/>
    <circle cx="105" cy="218" r="2"/>
    <circle cx="166" cy="115" r="2"/>
  </g>
  <g stroke="chocolate" stroke-width="1">
    <line x1="405" y1="123" x2="358" y2="87"/>
    <circle cx="405" cy="123" r="2"/>
    <circle cx="358" cy="87" r="2"/>
  </g>
  <g stroke="chocolate" stroke-width="1">
    <line x1="306" y1="397" x2="405" y2="123"/>
    <circle cx="306" cy="397" r="2"/>
    <circle cx="405" cy="123" r="2"/>
  </g>
  <g stroke="chocolate" stroke-width="1">
    <line x1="247" y1="423" x2="306" y2="397"/>
    <circle cx="247" cy="423" r="2"/>
    <circle cx="306" cy="397" r="2"/>
  </g>
  <g stroke="chocolate" stroke-width="1">
    <line x1="226" y1="327" x2="225" y2="296"/>
    <circle cx="226" cy="327" r="2"/>
    <circle cx="225" cy="296" r="2"/>
  </g>
  <g stroke="chocolate" stroke-width="1">
    <line x1="247" y1="423" x2="205" y2="328"/>
    <circle cx="247" cy="423" r="2"/>
    <circle cx="205" cy="328" r="2"/>
  </g>
  <g stroke="black" stroke-width="1">
    <line x1="5" y1="5" x2="505" y2="5"/>
    <line x1="5" y1="5" x2="5" y2="505"/>
    <line x1="505" y1="505" x2="5" y2="505"/>
    <line x1="505" y1="505" x2="505" y2="5"/>
    <line x1="105" y1="2" x2="105" y2="8"/>
    <line x1="2" y1="105" x2="8" y2="105"/>
    <line x1="105" y1="502" x2="105" y2="508"/>
    <line x1="502" y1="105" x2="508" y2="105"/>
    <line x1="205" y1="2" x2="205" y2="8"/>
    <line x1="2" y1="205" x2="8" y2="205"/>
    <line x1="205" y1="502" x2="205" y2="508"/>
    <line x1="502" y1="205" x2="508" y2="205"/>
    <line x1="305" y1="2" x2="305" y2="8"/>
    <line x1="2" y1="305" x2="8" y2="305"/>
    <line x1="305" y1="502" x2="305" y2="508"/>
    <line x1="502" y1="305" x2="508" y2="305"/>
    <line x1="405" y1="2" x2="405" y2="8"/>
    <line x1="2" y1="405" x2="8" y2="405"/>
    <line x1="405" y1="502" x2="405" y2="508"/>
    <line x1="502" y1="405" x2="508" y2="405"/>
  </g>
  <g stroke="gray" stroke-width="1" stroke-dasharray="5,5">
    <line x1="105" y1="5" x2="105" y2="505"/>
    <line x1="5" y1="105" x2="505" y2="105"/>
    <line x1="205" y1="5" x2="205" y2="505"/>
    <line x1="5" y1="205" x2="505" y2="205"/>
    <line x1="305" y1="5" x2="305" y2="505"/>
    <line x1="5" y1="305" x2="505" y2="305"/>
    <line x1="405" y1="5" x2="405" y2="505"/>
    <line x1="5" y1="405" x2="505" y2="405"/>
  </g>
</svg>
