<?xml version="1.0" standalone="no"?>
<!DOCTYPE svg PUBLIC "-//W3C//DTD SVG 1.1//EN" 
  "http://www.w3.org/Graphics/SVG/1.1/DTD/svg11.dtd">
<svg width="558" height="558" version="1.1" id="toplevel"
    xmlns="http://www.w3.org/2000/svg"
    xmlns:xlink="http://www.w3.org/1999/xlink">
  <polygon points="285,553 490,240 466,224 480,143 282,110 112,5 68,75 233,438 164,483 207,550 217,553"
           fill="bisque"/>
  <g stroke="chocolate" stroke-width="1">
    <line x1="233" y1="438" x2="68" y2="75"/>
    <circle cx="233" cy="438" r="2"/>
    <circle cx="68" cy="75" r="2"/>
  </g>
  <g stroke="chocolate" stroke-width="1">
    <line x1="255" y1="486" x2="233" y2="438"/>
    <circle cx="255" cy="486" r="2"/>
    <circle cx="233" cy="438" r="2"/>
  </g>
  <g stroke="chocolate" stroke-width="1">
    <line x1="233" y1="438" x2="331" y2="373"/>
    <circle cx="233" cy="438" r="2"/>
    <circle cx="331" cy="373" r="2"/>
  </g>
  <g stroke="chocolate" stroke-width="1">
    <line x1="164" y1="483" x2="233" y2="438"/>
    <circle cx="164" cy="483" r="2"/>
    <circle cx="233" cy="438" r="2"/>
  </g>
  <g stroke="chocolate" stroke-width="1">
    <line x1="442" y1="210" x2="282" y2="110"/>
    <circle cx="442" cy="210" r="2"/>
    <circle cx="282" cy="110" r="2"/>
  </g>
  <g stroke="chocolate" stroke-width="1">
    <line x1="466" y1="225" x2="442" y2="210"/>
    <circle cx="466" cy="225" r="2"/>
    <circle cx="442" cy="210" r="2"/>
  </g>
  <g stroke="chocolate" stroke-width="1">
    <line x1="442" y1="210" x2="444" y2="208"/>
    <circle cx="442" cy="210" r="2"/>
    <circle cx="444" cy="208" r="2"/>
  </g>
  <g stroke="chocolate" stroke-width="1">
    <line x1="331" y1="373" x2="442" y2="210"/>
    <circle cx="331" cy="373" r="2"/>
    <circle cx="442" cy="210" r="2"/>
  </g>
  <g stroke="chocolate" stroke-width="1">
    <line x1="490" y1="240" x2="466" y2="225"/>
    <circle cx="490" cy="240" r="2"/>
    <circle cx="466" cy="225" r="2"/>
  </g>
  <g stroke="chocolate" stroke-width="1">
    <line x1="466" y1="225" x2="466" y2="224"/>
    <circle cx="466" cy="225" r="2"/>
    <circle cx="466" cy="224" r="2"/>
  </g>
  <g stroke="chocolate" stroke-width="1">
    <line x1="455" y1="293" x2="466" y2="225"/>
    <circle cx="455" cy="293" r="2"/>
    <circle cx="466" cy="225" r="2"/>
  </g>
  <g stroke="chocolate" stroke-width="1">
    <line x1="282" y1="110" x2="68" y2="75"/>
    <circle cx="282" cy="110" r="2"/>
    <circle cx="68" cy="75" r="2"/>
  </g>
  <g stroke="chocolate" stroke-width="1">
    <line x1="480" y1="143" x2="282" y2="110"/>
    <circle cx="480" cy="143" r="2"/>
    <circle cx="282" cy="110" r="2"/>
  </g>
  <g stroke="chocolate" stroke-width="1">
    <line x1="282" y1="110" x2="112" y2="5"/>
    <circle cx="282" cy="110" r="2"/>
    <circle cx="112" cy="5" r="2"/>
  </g>
  <g stroke="chocolate" stroke-width="1">
    <line x1="212" y1="549" x2="255" y2="486"/>
    <circle cx="212" cy="549" r="2"/>
    <circle cx="255" cy="486" r="2"/>
  </g>
  <g stroke="chocolate" stroke-width="1">
    <line x1="210" y1="551" x2="212" y2="549"/>
    <circle cx="210" cy="551" r="2"/>
    <circle cx="212" cy="549" r="2"/>
  </g>
  <g stroke="chocolate" stroke-width="1">
    <line x1="212" y1="549" x2="210" y2="548"/>
    <circle cx="212" cy="549" r="2"/>
    <circle cx="210" cy="548" r="2"/>
  </g>
  <g stroke="chocolate" stroke-width="1">
    <line x1="217" y1="553" x2="212" y2="549"/>
    <circle cx="217" cy="553" r="2"/>
    <circle cx="212" cy="549" r="2"/>
  </g>
  <g stroke="chocolate" stroke-width="1">
    <line x1="255" y1="486" x2="331" y2="373"/>
    <circle cx="255" cy="486" r="2"/>
    <circle cx="331" cy="373" r="2"/>
  </g>
  <g stroke="chocolate" stroke-width="1">
    <line x1="285" y1="553" x2="255" y2="486"/>
    <circle cx="285" cy="553" r="2"/>
    <circle cx="255" cy="486" r="2"/>
  </g>
  <g stroke="chocolate" stroke-width="1">
    <line x1="331" y1="373" x2="455" y2="293"/>
    <circle cx="331" cy="373" r="2"/>
    <circle cx="455" cy="293" r="2"/>
  </g>
  <g stroke="chocolate" stroke-width="1">
    <line x1="466" y1="224" x2="444" y2="208"/>
    <circle cx="466" cy="224" r="2"/>
    <circle cx="444" cy="208" r="2"/>
  </g>
  <g stroke="chocolate" stroke-width="1">
    <line x1="490" y1="240" x2="466" y2="224"/>
    <circle cx="490" cy="240" r="2"/>
    <circle cx="466" cy="224" r="2"/>
  </g>
  <g stroke="chocolate" stroke-width="1">
    <line x1="466" y1="224" x2="480" y2="143"/>
    <circle cx="466" cy="224" r="2"/>
    <circle cx="480" cy="143" r="2"/>
  </g>
  <g stroke="chocolate" stroke-width="1">
    <line x1="217" y1="553" x2="207" y2="550"/>
    <circle cx="217" cy="553" r="2"/>
    <circle cx="207" cy="550" r="2"/>
  </g>
  <g stroke="chocolate" stroke-width="1">
    <line x1="285" y1="553" x2="217" y2="553"/>
    <circle cx="285" cy="553" r="2"/>
    <circle cx="217" cy="553" r="2"/>
  </g>
  <g stroke="chocolate" stroke-width="1">
    <line x1="207" y1="550" x2="164" y2="483"/>
    <circle cx="207" cy="550" r="2"/>
    <circle cx="164" cy="483" r="2"/>
  </g>
  <g stroke="chocolate" stroke-width="1">
    <line x1="207" y1="550" x2="210" y2="548"/>
    <circle cx="207" cy="550" r="2"/>
    <circle cx="210" cy="548" r="2"/>
  </g>
  <g stroke="chocolate" stroke-width="1">
    <line x1="68" y1="75" x2="112" y2="5"/>
    <circle cx="68" cy="75" r="2"/>
    <circle cx="112" cy="5" r="2"/>
  </g>
  <g stroke="chocolate" stroke-width="1">
    <line x1="210" y1="551" x2="210" y2="548"/>
    <circle cx="210" cy="551" r="2"/>
    <circle cx="210" cy="548" r="2"/>
  </g>
  <g stroke="chocolate" stroke-width="1">
    <line x1="285" y1="553" x2="490" y2="240"/>
    <circle cx="285" cy="553" r="2"/>
    <circle cx="490" cy="240" r="2"/>
  </g>
  <g stroke="black" stroke-width="1">
    <line x1="29" y1="29" x2="529" y2="29"/>
    <line x1="29" y1="29" x2="29" y2="529"/>
    <line x1="529" y1="529" x2="29" y2="529"/>
    <line x1="529" y1="529" x2="529" y2="29"/>
    <line x1="129" y1="26" x2="129" y2="32"/>
    <line x1="26" y1="129" x2="32" y2="129"/>
    <line x1="129" y1="526" x2="129" y2="532"/>
    <line x1="526" y1="129" x2="532" y2="129"/>
    <line x1="229" y1="26" x2="229" y2="32"/>
    <line x1="26" y1="229" x2="32" y2="229"/>
    <line x1="229" y1="526" x2="229" y2="532"/>
    <line x1="526" y1="229" x2="532" y2="229"/>
    <line x1="329" y1="26" x2="329" y2="32"/>
    <line x1="26" y1="329" x2="32" y2="329"/>
    <line x1="329" y1="526" x2="329" y2="532"/>
    <line x1="526" y1="329" x2="532" y2="329"/>
    <line x1="429" y1="26" x2="429" y2="32"/>
    <line x1="26" y1="429" x2="32" y2="429"/>
    <line x1="429" y1="526" x2="429" y2="532"/>
    <line x1="526" y1="429" x2="532" y2="429"/>
  </g>
  <g stroke="gray" stroke-width="1" stroke-dasharray="5,5">
    <line x1="129" y1="29" x2="129" y2="529"/>
    <line x1="29" y1="129" x2="529" y2="129"/>
    <line x1="229" y1="29" x2="229" y2="529"/>
    <line x1="29" y1="229" x2="529" y2="229"/>
    <line x1="329" y1="29" x2="329" y2="529"/>
    <line x1="29" y1="329" x2="529" y2="329"/>
    <line x1="429" y1="29" x2="429" y2="529"/>
    <line x1="29" y1="429" x2="529" y2="429"/>
  </g>
</svg>
