<?xml version="1.0" standalone="no"?>
<!DOCTYPE svg PUBLIC "-//W3C//DTD SVG 1.1//EN" 
  "http://www.w3.org/Graphics/SVG/1.1/DTD/svg11.dtd">
<svg width="510" height="510" version="1.1" id="toplevel"
    xmlns="http://www.w3.org/2000/svg"
    xmlns:xlink="http://www.w3.org/1999/xlink">
  <polygon points="185,448 331,431 383,299 314,159 314,159 277,77 139,62 127,183 128,192 261,349 251,362 179,392 176,441"
           fill="bisque"/>
  <g stroke="chocolate" stroke-width="1">
    <line x1="319" y1="333" x2="332" y2="328"/>
    <circle cx="319" cy="333" r="2"/>
    <circle cx="332" cy="328" r="2"/>
  </g>
  <g stroke="chocolate" stroke-width="1">
    <line x1="279" y1="350" x2="319" y2="333"/>
    <circle cx="279" cy="350" r="2"/>
    <circle cx="319" cy="333" r="2"/>
  </g>
  <g stroke="chocolate" stroke-width="1">
    <line x1="319" y1="333" x2="329" y2="319"/>
    <circle cx="319" cy="333" r="2"/>
    <circle cx="329" cy="319" r="2"/>
  </g>
  <g stroke="chocolate" stroke-width="1">
    <line x1="300" y1="359" x2="319" y2="333"/>
    <circle cx="300" cy="359" r="2"/>
    <circle cx="319" cy="333" r="2"/>
  </g>
  <g stroke="chocolate" stroke-width="1">
    <line x1="266" y1="355" x2="278" y2="351"/>
    <circle cx="266" cy="355" r="2"/>
    <circle cx="278" cy="351" r="2"/>
  </g>
  <g stroke="chocolate" stroke-width="1">
    <line x1="264" y1="356" x2="266" y2="355"/>
    <circle cx="264" cy="356" r="2"/>
    <circle cx="266" cy="355" r="2"/>
  </g>
  <g stroke="chocolate" stroke-width="1">
    <line x1="266" y1="355" x2="265" y2="353"/>
    <circle cx="266" cy="355" r="2"/>
    <circle cx="265" cy="353" r="2"/>
  </g>
  <g stroke="chocolate" stroke-width="1">
    <line x1="273" y1="363" x2="266" y2="355"/>
    <circle cx="273" cy="363" r="2"/>
    <circle cx="266" cy="355" r="2"/>
  </g>
  <g stroke="chocolate" stroke-width="1">
    <line x1="332" y1="328" x2="346" y2="322"/>
    <circle cx="332" cy="328" r="2"/>
    <circle cx="346" cy="322" r="2"/>
  </g>
  <g stroke="chocolate" stroke-width="1">
    <line x1="332" y1="328" x2="334" y2="318"/>
    <circle cx="332" cy="328" r="2"/>
    <circle cx="334" cy="318" r="2"/>
  </g>
  <g stroke="chocolate" stroke-width="1">
    <line x1="328" y1="354" x2="332" y2="328"/>
    <circle cx="328" cy="354" r="2"/>
    <circle cx="332" cy="328" r="2"/>
  </g>
  <g stroke="chocolate" stroke-width="1">
    <line x1="329" y1="319" x2="334" y2="318"/>
    <circle cx="329" cy="319" r="2"/>
    <circle cx="334" cy="318" r="2"/>
  </g>
  <g stroke="chocolate" stroke-width="1">
    <line x1="278" y1="338" x2="329" y2="319"/>
    <circle cx="278" cy="338" r="2"/>
    <circle cx="329" cy="319" r="2"/>
  </g>
  <g stroke="chocolate" stroke-width="1">
    <line x1="329" y1="319" x2="335" y2="311"/>
    <circle cx="329" cy="319" r="2"/>
    <circle cx="335" cy="311" r="2"/>
  </g>
  <g stroke="chocolate" stroke-width="1">
    <line x1="291" y1="370" x2="282" y2="362"/>
    <circle cx="291" cy="370" r="2"/>
    <circle cx="282" cy="362" r="2"/>
  </g>
  <g stroke="chocolate" stroke-width="1">
    <line x1="320" y1="398" x2="291" y2="370"/>
    <circle cx="320" cy="398" r="2"/>
    <circle cx="291" cy="370" r="2"/>
  </g>
  <g stroke="chocolate" stroke-width="1">
    <line x1="291" y1="370" x2="300" y2="359"/>
    <circle cx="291" cy="370" r="2"/>
    <circle cx="300" cy="359" r="2"/>
  </g>
  <g stroke="chocolate" stroke-width="1">
    <line x1="286" y1="378" x2="291" y2="370"/>
    <circle cx="286" cy="378" r="2"/>
    <circle cx="291" cy="370" r="2"/>
  </g>
  <g stroke="chocolate" stroke-width="1">
    <line x1="282" y1="362" x2="280" y2="360"/>
    <circle cx="282" cy="362" r="2"/>
    <circle cx="280" cy="360" r="2"/>
  </g>
  <g stroke="chocolate" stroke-width="1">
    <line x1="282" y1="362" x2="300" y2="359"/>
    <circle cx="282" cy="362" r="2"/>
    <circle cx="300" cy="359" r="2"/>
  </g>
  <g stroke="chocolate" stroke-width="1">
    <line x1="281" y1="362" x2="282" y2="362"/>
    <circle cx="281" cy="362" r="2"/>
    <circle cx="282" cy="362" r="2"/>
  </g>
  <g stroke="chocolate" stroke-width="1">
    <line x1="278" y1="351" x2="279" y2="350"/>
    <circle cx="278" cy="351" r="2"/>
    <circle cx="279" cy="350" r="2"/>
  </g>
  <g stroke="chocolate" stroke-width="1">
    <line x1="278" y1="351" x2="275" y2="339"/>
    <circle cx="278" cy="351" r="2"/>
    <circle cx="275" cy="339" r="2"/>
  </g>
  <g stroke="chocolate" stroke-width="1">
    <line x1="280" y1="359" x2="278" y2="351"/>
    <circle cx="280" cy="359" r="2"/>
    <circle cx="278" cy="351" r="2"/>
  </g>
  <g stroke="chocolate" stroke-width="1">
    <line x1="279" y1="350" x2="278" y2="338"/>
    <circle cx="279" cy="350" r="2"/>
    <circle cx="278" cy="338" r="2"/>
  </g>
  <g stroke="chocolate" stroke-width="1">
    <line x1="280" y1="360" x2="279" y2="350"/>
    <circle cx="280" cy="360" r="2"/>
    <circle cx="279" cy="350" r="2"/>
  </g>
  <g stroke="chocolate" stroke-width="1">
    <line x1="252" y1="361" x2="252" y2="360"/>
    <circle cx="252" cy="361" r="2"/>
    <circle cx="252" cy="360" r="2"/>
  </g>
  <g stroke="chocolate" stroke-width="1">
    <line x1="254" y1="421" x2="252" y2="361"/>
    <circle cx="254" cy="421" r="2"/>
    <circle cx="252" cy="361" r="2"/>
  </g>
  <g stroke="chocolate" stroke-width="1">
    <line x1="252" y1="361" x2="253" y2="361"/>
    <circle cx="252" cy="361" r="2"/>
    <circle cx="253" cy="361" r="2"/>
  </g>
  <g stroke="chocolate" stroke-width="1">
    <line x1="251" y1="362" x2="252" y2="361"/>
    <circle cx="251" cy="362" r="2"/>
    <circle cx="252" cy="361" r="2"/>
  </g>
  <g stroke="chocolate" stroke-width="1">
    <line x1="265" y1="353" x2="266" y2="343"/>
    <circle cx="265" cy="353" r="2"/>
    <circle cx="266" cy="343" r="2"/>
  </g>
  <g stroke="chocolate" stroke-width="1">
    <line x1="264" y1="356" x2="265" y2="353"/>
    <circle cx="264" cy="356" r="2"/>
    <circle cx="265" cy="353" r="2"/>
  </g>
  <g stroke="chocolate" stroke-width="1">
    <line x1="265" y1="353" x2="261" y2="349"/>
    <circle cx="265" cy="353" r="2"/>
    <circle cx="261" cy="349" r="2"/>
  </g>
  <g stroke="chocolate" stroke-width="1">
    <line x1="373" y1="303" x2="377" y2="302"/>
    <circle cx="373" cy="303" r="2"/>
    <circle cx="377" cy="302" r="2"/>
  </g>
  <g stroke="chocolate" stroke-width="1">
    <line x1="357" y1="309" x2="373" y2="303"/>
    <circle cx="357" cy="309" r="2"/>
    <circle cx="373" cy="303" r="2"/>
  </g>
  <g stroke="chocolate" stroke-width="1">
    <line x1="373" y1="303" x2="260" y2="197"/>
    <circle cx="373" cy="303" r="2"/>
    <circle cx="260" cy="197" r="2"/>
  </g>
  <g stroke="chocolate" stroke-width="1">
    <line x1="379" y1="308" x2="373" y2="303"/>
    <circle cx="379" cy="308" r="2"/>
    <circle cx="373" cy="303" r="2"/>
  </g>
  <g stroke="chocolate" stroke-width="1">
    <line x1="346" y1="322" x2="377" y2="309"/>
    <circle cx="346" cy="322" r="2"/>
    <circle cx="377" cy="309" r="2"/>
  </g>
  <g stroke="chocolate" stroke-width="1">
    <line x1="346" y1="322" x2="341" y2="315"/>
    <circle cx="346" cy="322" r="2"/>
    <circle cx="341" cy="315" r="2"/>
  </g>
  <g stroke="chocolate" stroke-width="1">
    <line x1="365" y1="347" x2="346" y2="322"/>
    <circle cx="365" cy="347" r="2"/>
    <circle cx="346" cy="322" r="2"/>
  </g>
  <g stroke="chocolate" stroke-width="1">
    <line x1="341" y1="315" x2="357" y2="309"/>
    <circle cx="341" cy="315" r="2"/>
    <circle cx="357" cy="309" r="2"/>
  </g>
  <g stroke="chocolate" stroke-width="1">
    <line x1="357" y1="309" x2="337" y2="309"/>
    <circle cx="357" cy="309" r="2"/>
    <circle cx="337" cy="309" r="2"/>
  </g>
  <g stroke="chocolate" stroke-width="1">
    <line x1="377" y1="309" x2="357" y2="309"/>
    <circle cx="377" cy="309" r="2"/>
    <circle cx="357" cy="309" r="2"/>
  </g>
  <g stroke="chocolate" stroke-width="1">
    <line x1="334" y1="318" x2="341" y2="315"/>
    <circle cx="334" cy="318" r="2"/>
    <circle cx="341" cy="315" r="2"/>
  </g>
  <g stroke="chocolate" stroke-width="1">
    <line x1="334" y1="318" x2="335" y2="311"/>
    <circle cx="334" cy="318" r="2"/>
    <circle cx="335" cy="311" r="2"/>
  </g>
  <g stroke="chocolate" stroke-width="1">
    <line x1="338" y1="415" x2="320" y2="398"/>
    <circle cx="338" cy="415" r="2"/>
    <circle cx="320" cy="398" r="2"/>
  </g>
  <g stroke="chocolate" stroke-width="1">
    <line x1="320" y1="398" x2="328" y2="354"/>
    <circle cx="320" cy="398" r="2"/>
    <circle cx="328" cy="354" r="2"/>
  </g>
  <g stroke="chocolate" stroke-width="1">
    <line x1="317" y1="415" x2="320" y2="398"/>
    <circle cx="317" cy="415" r="2"/>
    <circle cx="320" cy="398" r="2"/>
  </g>
  <g stroke="chocolate" stroke-width="1">
    <line x1="300" y1="359" x2="328" y2="354"/>
    <circle cx="300" cy="359" r="2"/>
    <circle cx="328" cy="354" r="2"/>
  </g>
  <g stroke="chocolate" stroke-width="1">
    <line x1="377" y1="302" x2="383" y2="299"/>
    <circle cx="377" cy="302" r="2"/>
    <circle cx="383" cy="299" r="2"/>
  </g>
  <g stroke="chocolate" stroke-width="1">
    <line x1="377" y1="302" x2="314" y2="159"/>
    <circle cx="377" cy="302" r="2"/>
    <circle cx="314" cy="159" r="2"/>
  </g>
  <g stroke="chocolate" stroke-width="1">
    <line x1="380" y1="308" x2="377" y2="302"/>
    <circle cx="380" cy="308" r="2"/>
    <circle cx="377" cy="302" r="2"/>
  </g>
  <g stroke="chocolate" stroke-width="1">
    <line x1="209" y1="417" x2="251" y2="362"/>
    <circle cx="209" cy="417" r="2"/>
    <circle cx="251" cy="362" r="2"/>
  </g>
  <g stroke="chocolate" stroke-width="1">
    <line x1="194" y1="436" x2="209" y2="417"/>
    <circle cx="194" cy="436" r="2"/>
    <circle cx="209" cy="417" r="2"/>
  </g>
  <g stroke="chocolate" stroke-width="1">
    <line x1="209" y1="417" x2="179" y2="392"/>
    <circle cx="209" cy="417" r="2"/>
    <circle cx="179" cy="392" r="2"/>
  </g>
  <g stroke="chocolate" stroke-width="1">
    <line x1="222" y1="428" x2="209" y2="417"/>
    <circle cx="222" cy="428" r="2"/>
    <circle cx="209" cy="417" r="2"/>
  </g>
  <g stroke="chocolate" stroke-width="1">
    <line x1="275" y1="339" x2="264" y2="293"/>
    <circle cx="275" cy="339" r="2"/>
    <circle cx="264" cy="293" r="2"/>
  </g>
  <g stroke="chocolate" stroke-width="1">
    <line x1="275" y1="339" x2="278" y2="338"/>
    <circle cx="275" cy="339" r="2"/>
    <circle cx="278" cy="338" r="2"/>
  </g>
  <g stroke="chocolate" stroke-width="1">
    <line x1="266" y1="343" x2="275" y2="339"/>
    <circle cx="266" cy="343" r="2"/>
    <circle cx="275" cy="339" r="2"/>
  </g>
  <g stroke="chocolate" stroke-width="1">
    <line x1="280" y1="360" x2="280" y2="359"/>
    <circle cx="280" cy="360" r="2"/>
    <circle cx="280" cy="359" r="2"/>
  </g>
  <g stroke="chocolate" stroke-width="1">
    <line x1="281" y1="362" x2="280" y2="360"/>
    <circle cx="281" cy="362" r="2"/>
    <circle cx="280" cy="360" r="2"/>
  </g>
  <g stroke="chocolate" stroke-width="1">
    <line x1="251" y1="425" x2="254" y2="421"/>
    <circle cx="251" cy="425" r="2"/>
    <circle cx="254" cy="421" r="2"/>
  </g>
  <g stroke="chocolate" stroke-width="1">
    <line x1="251" y1="425" x2="251" y2="425"/>
    <circle cx="251" cy="425" r="2"/>
    <circle cx="251" cy="425" r="2"/>
  </g>
  <g stroke="chocolate" stroke-width="1">
    <line x1="251" y1="425" x2="250" y2="421"/>
    <circle cx="251" cy="425" r="2"/>
    <circle cx="250" cy="421" r="2"/>
  </g>
  <g stroke="chocolate" stroke-width="1">
    <line x1="254" y1="433" x2="251" y2="425"/>
    <circle cx="254" cy="433" r="2"/>
    <circle cx="251" cy="425" r="2"/>
  </g>
  <g stroke="chocolate" stroke-width="1">
    <line x1="254" y1="421" x2="259" y2="415"/>
    <circle cx="254" cy="421" r="2"/>
    <circle cx="259" cy="415" r="2"/>
  </g>
  <g stroke="chocolate" stroke-width="1">
    <line x1="254" y1="433" x2="254" y2="421"/>
    <circle cx="254" cy="433" r="2"/>
    <circle cx="254" cy="421" r="2"/>
  </g>
  <g stroke="chocolate" stroke-width="1">
    <line x1="272" y1="396" x2="286" y2="378"/>
    <circle cx="272" cy="396" r="2"/>
    <circle cx="286" cy="378" r="2"/>
  </g>
  <g stroke="chocolate" stroke-width="1">
    <line x1="286" y1="378" x2="273" y2="363"/>
    <circle cx="286" cy="378" r="2"/>
    <circle cx="273" cy="363" r="2"/>
  </g>
  <g stroke="chocolate" stroke-width="1">
    <line x1="331" y1="431" x2="286" y2="378"/>
    <circle cx="331" cy="431" r="2"/>
    <circle cx="286" cy="378" r="2"/>
  </g>
  <g stroke="chocolate" stroke-width="1">
    <line x1="264" y1="407" x2="272" y2="396"/>
    <circle cx="264" cy="407" r="2"/>
    <circle cx="272" cy="396" r="2"/>
  </g>
  <g stroke="chocolate" stroke-width="1">
    <line x1="272" y1="396" x2="273" y2="363"/>
    <circle cx="272" cy="396" r="2"/>
    <circle cx="273" cy="363" r="2"/>
  </g>
  <g stroke="chocolate" stroke-width="1">
    <line x1="272" y1="438" x2="272" y2="396"/>
    <circle cx="272" cy="438" r="2"/>
    <circle cx="272" cy="396" r="2"/>
  </g>
  <g stroke="chocolate" stroke-width="1">
    <line x1="253" y1="361" x2="264" y2="356"/>
    <circle cx="253" cy="361" r="2"/>
    <circle cx="264" cy="356" r="2"/>
  </g>
  <g stroke="chocolate" stroke-width="1">
    <line x1="253" y1="361" x2="252" y2="360"/>
    <circle cx="253" cy="361" r="2"/>
    <circle cx="252" cy="360" r="2"/>
  </g>
  <g stroke="chocolate" stroke-width="1">
    <line x1="261" y1="393" x2="253" y2="361"/>
    <circle cx="261" cy="393" r="2"/>
    <circle cx="253" cy="361" r="2"/>
  </g>
  <g stroke="chocolate" stroke-width="1">
    <line x1="259" y1="415" x2="264" y2="407"/>
    <circle cx="259" cy="415" r="2"/>
    <circle cx="264" cy="407" r="2"/>
  </g>
  <g stroke="chocolate" stroke-width="1">
    <line x1="264" y1="407" x2="261" y2="393"/>
    <circle cx="264" cy="407" r="2"/>
    <circle cx="261" cy="393" r="2"/>
  </g>
  <g stroke="chocolate" stroke-width="1">
    <line x1="272" y1="438" x2="264" y2="407"/>
    <circle cx="272" cy="438" r="2"/>
    <circle cx="264" cy="407" r="2"/>
  </g>
  <g stroke="chocolate" stroke-width="1">
    <line x1="261" y1="393" x2="264" y2="356"/>
    <circle cx="261" cy="393" r="2"/>
    <circle cx="264" cy="356" r="2"/>
  </g>
  <g stroke="chocolate" stroke-width="1">
    <line x1="259" y1="415" x2="261" y2="393"/>
    <circle cx="259" cy="415" r="2"/>
    <circle cx="261" cy="393" r="2"/>
  </g>
  <g stroke="chocolate" stroke-width="1">
    <line x1="256" y1="440" x2="259" y2="415"/>
    <circle cx="256" cy="440" r="2"/>
    <circle cx="259" cy="415" r="2"/>
  </g>
  <g stroke="chocolate" stroke-width="1">
    <line x1="239" y1="196" x2="314" y2="159"/>
    <circle cx="239" cy="196" r="2"/>
    <circle cx="314" cy="159" r="2"/>
  </g>
  <g stroke="chocolate" stroke-width="1">
    <line x1="163" y1="234" x2="239" y2="196"/>
    <circle cx="163" cy="234" r="2"/>
    <circle cx="239" cy="196" r="2"/>
  </g>
  <g stroke="chocolate" stroke-width="1">
    <line x1="239" y1="196" x2="193" y2="193"/>
    <circle cx="239" cy="196" r="2"/>
    <circle cx="193" cy="193" r="2"/>
  </g>
  <g stroke="chocolate" stroke-width="1">
    <line x1="260" y1="197" x2="239" y2="196"/>
    <circle cx="260" cy="197" r="2"/>
    <circle cx="239" cy="196" r="2"/>
  </g>
  <g stroke="chocolate" stroke-width="1">
    <line x1="261" y1="349" x2="128" y2="192"/>
    <circle cx="261" cy="349" r="2"/>
    <circle cx="128" cy="192" r="2"/>
  </g>
  <g stroke="chocolate" stroke-width="1">
    <line x1="261" y1="349" x2="266" y2="343"/>
    <circle cx="261" cy="349" r="2"/>
    <circle cx="266" cy="343" r="2"/>
  </g>
  <g stroke="chocolate" stroke-width="1">
    <line x1="251" y1="362" x2="261" y2="349"/>
    <circle cx="251" cy="362" r="2"/>
    <circle cx="261" cy="349" r="2"/>
  </g>
  <g stroke="chocolate" stroke-width="1">
    <line x1="194" y1="436" x2="222" y2="428"/>
    <circle cx="194" cy="436" r="2"/>
    <circle cx="222" cy="428" r="2"/>
  </g>
  <g stroke="chocolate" stroke-width="1">
    <line x1="176" y1="441" x2="194" y2="436"/>
    <circle cx="176" cy="441" r="2"/>
    <circle cx="194" cy="436" r="2"/>
  </g>
  <g stroke="chocolate" stroke-width="1">
    <line x1="185" y1="448" x2="194" y2="436"/>
    <circle cx="185" cy="448" r="2"/>
    <circle cx="194" cy="436" r="2"/>
  </g>
  <g stroke="chocolate" stroke-width="1">
    <line x1="379" y1="308" x2="380" y2="308"/>
    <circle cx="379" cy="308" r="2"/>
    <circle cx="380" cy="308" r="2"/>
  </g>
  <g stroke="chocolate" stroke-width="1">
    <line x1="377" y1="309" x2="379" y2="308"/>
    <circle cx="377" cy="309" r="2"/>
    <circle cx="379" cy="308" r="2"/>
  </g>
  <g stroke="chocolate" stroke-width="1">
    <line x1="380" y1="309" x2="379" y2="308"/>
    <circle cx="380" cy="309" r="2"/>
    <circle cx="379" cy="308" r="2"/>
  </g>
  <g stroke="chocolate" stroke-width="1">
    <line x1="341" y1="315" x2="337" y2="309"/>
    <circle cx="341" cy="315" r="2"/>
    <circle cx="337" cy="309" r="2"/>
  </g>
  <g stroke="chocolate" stroke-width="1">
    <line x1="380" y1="309" x2="377" y2="309"/>
    <circle cx="380" cy="309" r="2"/>
    <circle cx="377" cy="309" r="2"/>
  </g>
  <g stroke="chocolate" stroke-width="1">
    <line x1="272" y1="291" x2="260" y2="197"/>
    <circle cx="272" cy="291" r="2"/>
    <circle cx="260" cy="197" r="2"/>
  </g>
  <g stroke="chocolate" stroke-width="1">
    <line x1="278" y1="338" x2="272" y2="291"/>
    <circle cx="278" cy="338" r="2"/>
    <circle cx="272" cy="291" r="2"/>
  </g>
  <g stroke="chocolate" stroke-width="1">
    <line x1="272" y1="291" x2="342" y2="274"/>
    <circle cx="272" cy="291" r="2"/>
    <circle cx="342" cy="274" r="2"/>
  </g>
  <g stroke="chocolate" stroke-width="1">
    <line x1="264" y1="293" x2="272" y2="291"/>
    <circle cx="264" cy="293" r="2"/>
    <circle cx="272" cy="291" r="2"/>
  </g>
  <g stroke="chocolate" stroke-width="1">
    <line x1="328" y1="354" x2="365" y2="347"/>
    <circle cx="328" cy="354" r="2"/>
    <circle cx="365" cy="347" r="2"/>
  </g>
  <g stroke="chocolate" stroke-width="1">
    <line x1="314" y1="159" x2="277" y2="77"/>
    <circle cx="314" cy="159" r="2"/>
    <circle cx="277" cy="77" r="2"/>
  </g>
  <g stroke="chocolate" stroke-width="1">
    <line x1="314" y1="159" x2="314" y2="159"/>
    <circle cx="314" cy="159" r="2"/>
    <circle cx="314" cy="159" r="2"/>
  </g>
  <g stroke="chocolate" stroke-width="1">
    <line x1="238" y1="442" x2="222" y2="428"/>
    <circle cx="238" cy="442" r="2"/>
    <circle cx="222" cy="428" r="2"/>
  </g>
  <g stroke="chocolate" stroke-width="1">
    <line x1="222" y1="428" x2="250" y2="421"/>
    <circle cx="222" cy="428" r="2"/>
    <circle cx="250" cy="421" r="2"/>
  </g>
  <g stroke="chocolate" stroke-width="1">
    <line x1="280" y1="359" x2="273" y2="353"/>
    <circle cx="280" cy="359" r="2"/>
    <circle cx="273" cy="353" r="2"/>
  </g>
  <g stroke="chocolate" stroke-width="1">
    <line x1="281" y1="362" x2="280" y2="359"/>
    <circle cx="281" cy="362" r="2"/>
    <circle cx="280" cy="359" r="2"/>
  </g>
  <g stroke="chocolate" stroke-width="1">
    <line x1="238" y1="442" x2="251" y2="425"/>
    <circle cx="238" cy="442" r="2"/>
    <circle cx="251" cy="425" r="2"/>
  </g>
  <g stroke="chocolate" stroke-width="1">
    <line x1="251" y1="425" x2="250" y2="421"/>
    <circle cx="251" cy="425" r="2"/>
    <circle cx="250" cy="421" r="2"/>
  </g>
  <g stroke="chocolate" stroke-width="1">
    <line x1="254" y1="440" x2="251" y2="425"/>
    <circle cx="254" cy="440" r="2"/>
    <circle cx="251" cy="425" r="2"/>
  </g>
  <g stroke="chocolate" stroke-width="1">
    <line x1="256" y1="440" x2="254" y2="433"/>
    <circle cx="256" cy="440" r="2"/>
    <circle cx="254" cy="433" r="2"/>
  </g>
  <g stroke="chocolate" stroke-width="1">
    <line x1="254" y1="440" x2="254" y2="433"/>
    <circle cx="254" cy="440" r="2"/>
    <circle cx="254" cy="433" r="2"/>
  </g>
  <g stroke="chocolate" stroke-width="1">
    <line x1="273" y1="363" x2="273" y2="353"/>
    <circle cx="273" cy="363" r="2"/>
    <circle cx="273" cy="353" r="2"/>
  </g>
  <g stroke="chocolate" stroke-width="1">
    <line x1="193" y1="193" x2="129" y2="189"/>
    <circle cx="193" cy="193" r="2"/>
    <circle cx="129" cy="189" r="2"/>
  </g>
  <g stroke="chocolate" stroke-width="1">
    <line x1="193" y1="193" x2="277" y2="77"/>
    <circle cx="193" cy="193" r="2"/>
    <circle cx="277" cy="77" r="2"/>
  </g>
  <g stroke="chocolate" stroke-width="1">
    <line x1="163" y1="234" x2="193" y2="193"/>
    <circle cx="163" cy="234" r="2"/>
    <circle cx="193" cy="193" r="2"/>
  </g>
  <g stroke="chocolate" stroke-width="1">
    <line x1="129" y1="189" x2="128" y2="189"/>
    <circle cx="129" cy="189" r="2"/>
    <circle cx="128" cy="189" r="2"/>
  </g>
  <g stroke="chocolate" stroke-width="1">
    <line x1="129" y1="189" x2="129" y2="189"/>
    <circle cx="129" cy="189" r="2"/>
    <circle cx="129" cy="189" r="2"/>
  </g>
  <g stroke="chocolate" stroke-width="1">
    <line x1="128" y1="192" x2="129" y2="189"/>
    <circle cx="128" cy="192" r="2"/>
    <circle cx="129" cy="189" r="2"/>
  </g>
  <g stroke="chocolate" stroke-width="1">
    <line x1="179" y1="392" x2="251" y2="362"/>
    <circle cx="179" cy="392" r="2"/>
    <circle cx="251" cy="362" r="2"/>
  </g>
  <g stroke="chocolate" stroke-width="1">
    <line x1="335" y1="311" x2="342" y2="274"/>
    <circle cx="335" cy="311" r="2"/>
    <circle cx="342" cy="274" r="2"/>
  </g>
  <g stroke="chocolate" stroke-width="1">
    <line x1="335" y1="311" x2="337" y2="309"/>
    <circle cx="335" cy="311" r="2"/>
    <circle cx="337" cy="309" r="2"/>
  </g>
  <g stroke="chocolate" stroke-width="1">
    <line x1="277" y1="77" x2="139" y2="62"/>
    <circle cx="277" cy="77" r="2"/>
    <circle cx="139" cy="62" r="2"/>
  </g>
  <g stroke="chocolate" stroke-width="1">
    <line x1="185" y1="448" x2="176" y2="441"/>
    <circle cx="185" cy="448" r="2"/>
    <circle cx="176" cy="441" r="2"/>
  </g>
  <g stroke="chocolate" stroke-width="1">
    <line x1="383" y1="299" x2="314" y2="159"/>
    <circle cx="383" cy="299" r="2"/>
    <circle cx="314" cy="159" r="2"/>
  </g>
  <g stroke="chocolate" stroke-width="1">
    <line x1="317" y1="415" x2="338" y2="415"/>
    <circle cx="317" cy="415" r="2"/>
    <circle cx="338" cy="415" r="2"/>
  </g>
  <g stroke="chocolate" stroke-width="1">
    <line x1="129" y1="189" x2="127" y2="183"/>
    <circle cx="129" cy="189" r="2"/>
    <circle cx="127" cy="183" r="2"/>
  </g>
  <g stroke="chocolate" stroke-width="1">
    <line x1="185" y1="448" x2="331" y2="431"/>
    <circle cx="185" cy="448" r="2"/>
    <circle cx="331" cy="431" r="2"/>
  </g>
  <g stroke="chocolate" stroke-width="1">
    <line x1="128" y1="189" x2="129" y2="189"/>
    <circle cx="128" cy="189" r="2"/>
    <circle cx="129" cy="189" r="2"/>
  </g>
  <g stroke="chocolate" stroke-width="1">
    <line x1="128" y1="192" x2="127" y2="183"/>
    <circle cx="128" cy="192" r="2"/>
    <circle cx="127" cy="183" r="2"/>
  </g>
  <g stroke="chocolate" stroke-width="1">
    <line x1="176" y1="441" x2="179" y2="392"/>
    <circle cx="176" cy="441" r="2"/>
    <circle cx="179" cy="392" r="2"/>
  </g>
  <g stroke="chocolate" stroke-width="1">
    <line x1="127" y1="183" x2="139" y2="62"/>
    <circle cx="127" cy="183" r="2"/>
    <circle cx="139" cy="62" r="2"/>
  </g>
  <g stroke="chocolate" stroke-width="1">
    <line x1="331" y1="431" x2="383" y2="299"/>
    <circle cx="331" cy="431" r="2"/>
    <circle cx="383" cy="299" r="2"/>
  </g>
  <g stroke="black" stroke-width="1">
    <line x1="5" y1="5" x2="505" y2="5"/>
    <line x1="5" y1="5" x2="5" y2="505"/>
    <line x1="505" y1="505" x2="5" y2="505"/>
    <line x1="505" y1="505" x2="505" y2="5"/>
    <line x1="105" y1="2" x2="105" y2="8"/>
    <line x1="2" y1="105" x2="8" y2="105"/>
    <line x1="105" y1="502" x2="105" y2="508"/>
    <line x1="502" y1="105" x2="508" y2="105"/>
    <line x1="205" y1="2" x2="205" y2="8"/>
    <line x1="2" y1="205" x2="8" y2="205"/>
    <line x1="205" y1="502" x2="205" y2="508"/>
    <line x1="502" y1="205" x2="508" y2="205"/>
    <line x1="305" y1="2" x2="305" y2="8"/>
    <line x1="2" y1="305" x2="8" y2="305"/>
    <line x1="305" y1="502" x2="305" y2="508"/>
    <line x1="502" y1="305" x2="508" y2="305"/>
    <line x1="405" y1="2" x2="405" y2="8"/>
    <line x1="2" y1="405" x2="8" y2="405"/>
    <line x1="405" y1="502" x2="405" y2="508"/>
    <line x1="502" y1="405" x2="508" y2="405"/>
  </g>
  <g stroke="gray" stroke-width="1" stroke-dasharray="5,5">
    <line x1="105" y1="5" x2="105" y2="505"/>
    <line x1="5" y1="105" x2="505" y2="105"/>
    <line x1="205" y1="5" x2="205" y2="505"/>
    <line x1="5" y1="205" x2="505" y2="205"/>
    <line x1="305" y1="5" x2="305" y2="505"/>
    <line x1="5" y1="305" x2="505" y2="305"/>
    <line x1="405" y1="5" x2="405" y2="505"/>
    <line x1="5" y1="405" x2="505" y2="405"/>
  </g>
</svg>
