<?xml version="1.0" standalone="no"?>
<!DOCTYPE svg PUBLIC "-//W3C//DTD SVG 1.1//EN" 
  "http://www.w3.org/Graphics/SVG/1.1/DTD/svg11.dtd">
<svg width="510" height="510" version="1.1" id="toplevel"
    xmlns="http://www.w3.org/2000/svg"
    xmlns:xlink="http://www.w3.org/1999/xlink">
  <polygon points="256,478 272,404 278,399 357,129 392,99 372,76 374,71 329,32 179,94 118,109 188,463"
           fill="bisque"/>
  <g stroke="chocolate" stroke-width="1">
    <line x1="346" y1="75" x2="352" y2="51"/>
    <circle cx="346" cy="75" r="2"/>
    <circle cx="352" cy="51" r="2"/>
  </g>
  <g stroke="chocolate" stroke-width="1">
    <line x1="329" y1="153" x2="346" y2="75"/>
    <circle cx="329" cy="153" r="2"/>
    <circle cx="346" cy="75" r="2"/>
  </g>
  <g stroke="chocolate" stroke-width="1">
    <line x1="346" y1="75" x2="369" y2="71"/>
    <circle cx="346" cy="75" r="2"/>
    <circle cx="369" cy="71" r="2"/>
  </g>
  <g stroke="chocolate" stroke-width="1">
    <line x1="317" y1="79" x2="346" y2="75"/>
    <circle cx="317" cy="79" r="2"/>
    <circle cx="346" cy="75" r="2"/>
  </g>
  <g stroke="chocolate" stroke-width="1">
    <line x1="252" y1="332" x2="250" y2="331"/>
    <circle cx="252" cy="332" r="2"/>
    <circle cx="250" cy="331" r="2"/>
  </g>
  <g stroke="chocolate" stroke-width="1">
    <line x1="286" y1="343" x2="252" y2="332"/>
    <circle cx="286" cy="343" r="2"/>
    <circle cx="252" cy="332" r="2"/>
  </g>
  <g stroke="chocolate" stroke-width="1">
    <line x1="252" y1="332" x2="289" y2="186"/>
    <circle cx="252" cy="332" r="2"/>
    <circle cx="289" cy="186" r="2"/>
  </g>
  <g stroke="chocolate" stroke-width="1">
    <line x1="251" y1="334" x2="252" y2="332"/>
    <circle cx="251" cy="334" r="2"/>
    <circle cx="252" cy="332" r="2"/>
  </g>
  <g stroke="chocolate" stroke-width="1">
    <line x1="286" y1="343" x2="329" y2="153"/>
    <circle cx="286" cy="343" r="2"/>
    <circle cx="329" cy="153" r="2"/>
  </g>
  <g stroke="chocolate" stroke-width="1">
    <line x1="329" y1="153" x2="357" y2="129"/>
    <circle cx="329" cy="153" r="2"/>
    <circle cx="357" cy="129" r="2"/>
  </g>
  <g stroke="chocolate" stroke-width="1">
    <line x1="289" y1="186" x2="329" y2="153"/>
    <circle cx="289" cy="186" r="2"/>
    <circle cx="329" cy="153" r="2"/>
  </g>
  <g stroke="chocolate" stroke-width="1">
    <line x1="317" y1="79" x2="322" y2="58"/>
    <circle cx="317" cy="79" r="2"/>
    <circle cx="322" cy="58" r="2"/>
  </g>
  <g stroke="chocolate" stroke-width="1">
    <line x1="289" y1="186" x2="317" y2="79"/>
    <circle cx="289" cy="186" r="2"/>
    <circle cx="317" cy="79" r="2"/>
  </g>
  <g stroke="chocolate" stroke-width="1">
    <line x1="118" y1="109" x2="317" y2="79"/>
    <circle cx="118" cy="109" r="2"/>
    <circle cx="317" cy="79" r="2"/>
  </g>
  <g stroke="chocolate" stroke-width="1">
    <line x1="286" y1="343" x2="286" y2="343"/>
    <circle cx="286" cy="343" r="2"/>
    <circle cx="286" cy="343" r="2"/>
  </g>
  <g stroke="chocolate" stroke-width="1">
    <line x1="294" y1="345" x2="286" y2="343"/>
    <circle cx="294" cy="345" r="2"/>
    <circle cx="286" cy="343" r="2"/>
  </g>
  <g stroke="chocolate" stroke-width="1">
    <line x1="216" y1="249" x2="289" y2="186"/>
    <circle cx="216" cy="249" r="2"/>
    <circle cx="289" cy="186" r="2"/>
  </g>
  <g stroke="chocolate" stroke-width="1">
    <line x1="156" y1="300" x2="216" y2="249"/>
    <circle cx="156" cy="300" r="2"/>
    <circle cx="216" cy="249" r="2"/>
  </g>
  <g stroke="chocolate" stroke-width="1">
    <line x1="216" y1="249" x2="156" y2="103"/>
    <circle cx="216" cy="249" r="2"/>
    <circle cx="156" cy="103" r="2"/>
  </g>
  <g stroke="chocolate" stroke-width="1">
    <line x1="250" y1="331" x2="216" y2="249"/>
    <circle cx="250" cy="331" r="2"/>
    <circle cx="216" cy="249" r="2"/>
  </g>
  <g stroke="chocolate" stroke-width="1">
    <line x1="275" y1="392" x2="286" y2="343"/>
    <circle cx="275" cy="392" r="2"/>
    <circle cx="286" cy="343" r="2"/>
  </g>
  <g stroke="chocolate" stroke-width="1">
    <line x1="272" y1="404" x2="275" y2="392"/>
    <circle cx="272" cy="404" r="2"/>
    <circle cx="275" cy="392" r="2"/>
  </g>
  <g stroke="chocolate" stroke-width="1">
    <line x1="275" y1="392" x2="250" y2="331"/>
    <circle cx="275" cy="392" r="2"/>
    <circle cx="250" cy="331" r="2"/>
  </g>
  <g stroke="chocolate" stroke-width="1">
    <line x1="278" y1="399" x2="275" y2="392"/>
    <circle cx="278" cy="399" r="2"/>
    <circle cx="275" cy="392" r="2"/>
  </g>
  <g stroke="chocolate" stroke-width="1">
    <line x1="372" y1="76" x2="369" y2="71"/>
    <circle cx="372" cy="76" r="2"/>
    <circle cx="369" cy="71" r="2"/>
  </g>
  <g stroke="chocolate" stroke-width="1">
    <line x1="392" y1="99" x2="372" y2="76"/>
    <circle cx="392" cy="99" r="2"/>
    <circle cx="372" cy="76" r="2"/>
  </g>
  <g stroke="chocolate" stroke-width="1">
    <line x1="372" y1="76" x2="374" y2="71"/>
    <circle cx="372" cy="76" r="2"/>
    <circle cx="374" cy="71" r="2"/>
  </g>
  <g stroke="chocolate" stroke-width="1">
    <line x1="357" y1="129" x2="372" y2="76"/>
    <circle cx="357" cy="129" r="2"/>
    <circle cx="372" cy="76" r="2"/>
  </g>
  <g stroke="chocolate" stroke-width="1">
    <line x1="286" y1="343" x2="251" y2="334"/>
    <circle cx="286" cy="343" r="2"/>
    <circle cx="251" cy="334" r="2"/>
  </g>
  <g stroke="chocolate" stroke-width="1">
    <line x1="294" y1="345" x2="286" y2="343"/>
    <circle cx="294" cy="345" r="2"/>
    <circle cx="286" cy="343" r="2"/>
  </g>
  <g stroke="chocolate" stroke-width="1">
    <line x1="369" y1="71" x2="352" y2="51"/>
    <circle cx="369" cy="71" r="2"/>
    <circle cx="352" cy="51" r="2"/>
  </g>
  <g stroke="chocolate" stroke-width="1">
    <line x1="369" y1="71" x2="374" y2="71"/>
    <circle cx="369" cy="71" r="2"/>
    <circle cx="374" cy="71" r="2"/>
  </g>
  <g stroke="chocolate" stroke-width="1">
    <line x1="250" y1="331" x2="156" y2="300"/>
    <circle cx="250" cy="331" r="2"/>
    <circle cx="156" cy="300" r="2"/>
  </g>
  <g stroke="chocolate" stroke-width="1">
    <line x1="179" y1="94" x2="322" y2="58"/>
    <circle cx="179" cy="94" r="2"/>
    <circle cx="322" cy="58" r="2"/>
  </g>
  <g stroke="chocolate" stroke-width="1">
    <line x1="118" y1="109" x2="179" y2="94"/>
    <circle cx="118" cy="109" r="2"/>
    <circle cx="179" cy="94" r="2"/>
  </g>
  <g stroke="chocolate" stroke-width="1">
    <line x1="179" y1="94" x2="329" y2="32"/>
    <circle cx="179" cy="94" r="2"/>
    <circle cx="329" cy="32" r="2"/>
  </g>
  <g stroke="chocolate" stroke-width="1">
    <line x1="156" y1="103" x2="179" y2="94"/>
    <circle cx="156" cy="103" r="2"/>
    <circle cx="179" cy="94" r="2"/>
  </g>
  <g stroke="chocolate" stroke-width="1">
    <line x1="272" y1="404" x2="278" y2="399"/>
    <circle cx="272" cy="404" r="2"/>
    <circle cx="278" cy="399" r="2"/>
  </g>
  <g stroke="chocolate" stroke-width="1">
    <line x1="188" y1="463" x2="272" y2="404"/>
    <circle cx="188" cy="463" r="2"/>
    <circle cx="272" cy="404" r="2"/>
  </g>
  <g stroke="chocolate" stroke-width="1">
    <line x1="256" y1="478" x2="272" y2="404"/>
    <circle cx="256" cy="478" r="2"/>
    <circle cx="272" cy="404" r="2"/>
  </g>
  <g stroke="chocolate" stroke-width="1">
    <line x1="322" y1="58" x2="352" y2="51"/>
    <circle cx="322" cy="58" r="2"/>
    <circle cx="352" cy="51" r="2"/>
  </g>
  <g stroke="chocolate" stroke-width="1">
    <line x1="322" y1="58" x2="329" y2="32"/>
    <circle cx="322" cy="58" r="2"/>
    <circle cx="329" cy="32" r="2"/>
  </g>
  <g stroke="chocolate" stroke-width="1">
    <line x1="357" y1="129" x2="392" y2="99"/>
    <circle cx="357" cy="129" r="2"/>
    <circle cx="392" cy="99" r="2"/>
  </g>
  <g stroke="chocolate" stroke-width="1">
    <line x1="278" y1="399" x2="357" y2="129"/>
    <circle cx="278" cy="399" r="2"/>
    <circle cx="357" cy="129" r="2"/>
  </g>
  <g stroke="chocolate" stroke-width="1">
    <line x1="374" y1="71" x2="329" y2="32"/>
    <circle cx="374" cy="71" r="2"/>
    <circle cx="329" cy="32" r="2"/>
  </g>
  <g stroke="chocolate" stroke-width="1">
    <line x1="256" y1="478" x2="188" y2="463"/>
    <circle cx="256" cy="478" r="2"/>
    <circle cx="188" cy="463" r="2"/>
  </g>
  <g stroke="chocolate" stroke-width="1">
    <line x1="188" y1="463" x2="118" y2="109"/>
    <circle cx="188" cy="463" r="2"/>
    <circle cx="118" cy="109" r="2"/>
  </g>
  <g stroke="black" stroke-width="1">
    <line x1="5" y1="5" x2="505" y2="5"/>
    <line x1="5" y1="5" x2="5" y2="505"/>
    <line x1="505" y1="505" x2="5" y2="505"/>
    <line x1="505" y1="505" x2="505" y2="5"/>
    <line x1="105" y1="2" x2="105" y2="8"/>
    <line x1="2" y1="105" x2="8" y2="105"/>
    <line x1="105" y1="502" x2="105" y2="508"/>
    <line x1="502" y1="105" x2="508" y2="105"/>
    <line x1="205" y1="2" x2="205" y2="8"/>
    <line x1="2" y1="205" x2="8" y2="205"/>
    <line x1="205" y1="502" x2="205" y2="508"/>
    <line x1="502" y1="205" x2="508" y2="205"/>
    <line x1="305" y1="2" x2="305" y2="8"/>
    <line x1="2" y1="305" x2="8" y2="305"/>
    <line x1="305" y1="502" x2="305" y2="508"/>
    <line x1="502" y1="305" x2="508" y2="305"/>
    <line x1="405" y1="2" x2="405" y2="8"/>
    <line x1="2" y1="405" x2="8" y2="405"/>
    <line x1="405" y1="502" x2="405" y2="508"/>
    <line x1="502" y1="405" x2="508" y2="405"/>
  </g>
  <g stroke="gray" stroke-width="1" stroke-dasharray="5,5">
    <line x1="105" y1="5" x2="105" y2="505"/>
    <line x1="5" y1="105" x2="505" y2="105"/>
    <line x1="205" y1="5" x2="205" y2="505"/>
    <line x1="5" y1="205" x2="505" y2="205"/>
    <line x1="305" y1="5" x2="305" y2="505"/>
    <line x1="5" y1="305" x2="505" y2="305"/>
    <line x1="405" y1="5" x2="405" y2="505"/>
    <line x1="5" y1="405" x2="505" y2="405"/>
  </g>
</svg>
