<?xml version="1.0" standalone="no"?>
<!DOCTYPE svg PUBLIC "-//W3C//DTD SVG 1.1//EN" 
  "http://www.w3.org/Graphics/SVG/1.1/DTD/svg11.dtd">
<svg width="584" height="584" version="1.1" id="toplevel"
    xmlns="http://www.w3.org/2000/svg"
    xmlns:xlink="http://www.w3.org/1999/xlink">
  <polygon points="200,518 292,439 533,393 507,255 579,192 579,192 471,66 5,290 42,487 155,465"
           fill="bisque"/>
  <g stroke="chocolate" stroke-width="1">
    <line x1="292" y1="439" x2="507" y2="255"/>
    <circle cx="292" cy="439" r="2"/>
    <circle cx="507" cy="255" r="2"/>
  </g>
  <g stroke="chocolate" stroke-width="1">
    <line x1="200" y1="518" x2="292" y2="439"/>
    <circle cx="200" cy="518" r="2"/>
    <circle cx="292" cy="439" r="2"/>
  </g>
  <g stroke="chocolate" stroke-width="1">
    <line x1="292" y1="439" x2="533" y2="393"/>
    <circle cx="292" cy="439" r="2"/>
    <circle cx="533" cy="393" r="2"/>
  </g>
  <g stroke="chocolate" stroke-width="1">
    <line x1="155" y1="465" x2="292" y2="439"/>
    <circle cx="155" cy="465" r="2"/>
    <circle cx="292" cy="439" r="2"/>
  </g>
  <g stroke="chocolate" stroke-width="1">
    <line x1="507" y1="255" x2="579" y2="192"/>
    <circle cx="507" cy="255" r="2"/>
    <circle cx="579" cy="192" r="2"/>
  </g>
  <g stroke="chocolate" stroke-width="1">
    <line x1="507" y1="255" x2="471" y2="66"/>
    <circle cx="507" cy="255" r="2"/>
    <circle cx="471" cy="66" r="2"/>
  </g>
  <g stroke="chocolate" stroke-width="1">
    <line x1="533" y1="393" x2="507" y2="255"/>
    <circle cx="533" cy="393" r="2"/>
    <circle cx="507" cy="255" r="2"/>
  </g>
  <g stroke="chocolate" stroke-width="1">
    <line x1="42" y1="487" x2="155" y2="465"/>
    <circle cx="42" cy="487" r="2"/>
    <circle cx="155" cy="465" r="2"/>
  </g>
  <g stroke="chocolate" stroke-width="1">
    <line x1="155" y1="465" x2="5" y2="290"/>
    <circle cx="155" cy="465" r="2"/>
    <circle cx="5" cy="290" r="2"/>
  </g>
  <g stroke="chocolate" stroke-width="1">
    <line x1="200" y1="518" x2="155" y2="465"/>
    <circle cx="200" cy="518" r="2"/>
    <circle cx="155" cy="465" r="2"/>
  </g>
  <g stroke="chocolate" stroke-width="1">
    <line x1="5" y1="290" x2="471" y2="66"/>
    <circle cx="5" cy="290" r="2"/>
    <circle cx="471" cy="66" r="2"/>
  </g>
  <g stroke="chocolate" stroke-width="1">
    <line x1="579" y1="192" x2="579" y2="192"/>
    <circle cx="579" cy="192" r="2"/>
    <circle cx="579" cy="192" r="2"/>
  </g>
  <g stroke="chocolate" stroke-width="1">
    <line x1="579" y1="192" x2="579" y2="192"/>
    <circle cx="579" cy="192" r="2"/>
    <circle cx="579" cy="192" r="2"/>
  </g>
  <g stroke="chocolate" stroke-width="1">
    <line x1="579" y1="192" x2="579" y2="192"/>
    <circle cx="579" cy="192" r="2"/>
    <circle cx="579" cy="192" r="2"/>
  </g>
  <g stroke="chocolate" stroke-width="1">
    <line x1="579" y1="192" x2="471" y2="66"/>
    <circle cx="579" cy="192" r="2"/>
    <circle cx="471" cy="66" r="2"/>
  </g>
  <g stroke="chocolate" stroke-width="1">
    <line x1="42" y1="487" x2="5" y2="290"/>
    <circle cx="42" cy="487" r="2"/>
    <circle cx="5" cy="290" r="2"/>
  </g>
  <g stroke="black" stroke-width="1">
    <line x1="42" y1="42" x2="542" y2="42"/>
    <line x1="42" y1="42" x2="42" y2="542"/>
    <line x1="542" y1="542" x2="42" y2="542"/>
    <line x1="542" y1="542" x2="542" y2="42"/>
    <line x1="142" y1="39" x2="142" y2="45"/>
    <line x1="39" y1="142" x2="45" y2="142"/>
    <line x1="142" y1="539" x2="142" y2="545"/>
    <line x1="539" y1="142" x2="545" y2="142"/>
    <line x1="242" y1="39" x2="242" y2="45"/>
    <line x1="39" y1="242" x2="45" y2="242"/>
    <line x1="242" y1="539" x2="242" y2="545"/>
    <line x1="539" y1="242" x2="545" y2="242"/>
    <line x1="342" y1="39" x2="342" y2="45"/>
    <line x1="39" y1="342" x2="45" y2="342"/>
    <line x1="342" y1="539" x2="342" y2="545"/>
    <line x1="539" y1="342" x2="545" y2="342"/>
    <line x1="442" y1="39" x2="442" y2="45"/>
    <line x1="39" y1="442" x2="45" y2="442"/>
    <line x1="442" y1="539" x2="442" y2="545"/>
    <line x1="539" y1="442" x2="545" y2="442"/>
  </g>
  <g stroke="gray" stroke-width="1" stroke-dasharray="5,5">
    <line x1="142" y1="42" x2="142" y2="542"/>
    <line x1="42" y1="142" x2="542" y2="142"/>
    <line x1="242" y1="42" x2="242" y2="542"/>
    <line x1="42" y1="242" x2="542" y2="242"/>
    <line x1="342" y1="42" x2="342" y2="542"/>
    <line x1="42" y1="342" x2="542" y2="342"/>
    <line x1="442" y1="42" x2="442" y2="542"/>
    <line x1="42" y1="442" x2="542" y2="442"/>
  </g>
</svg>
