<?xml version="1.0" standalone="no"?>
<!DOCTYPE svg PUBLIC "-//W3C//DTD SVG 1.1//EN" 
  "http://www.w3.org/Graphics/SVG/1.1/DTD/svg11.dtd">
<svg width="652" height="652" version="1.1" id="toplevel"
    xmlns="http://www.w3.org/2000/svg"
    xmlns:xlink="http://www.w3.org/1999/xlink">
  <polygon points="530,502 647,459 487,385 400,150 165,237 5,163 48,280 209,354 252,471 369,428"
           fill="bisque"/>
  <g stroke="chocolate" stroke-width="1">
    <line x1="487" y1="385" x2="165" y2="237"/>
    <circle cx="487" cy="385" r="2"/>
    <circle cx="165" cy="237" r="2"/>
  </g>
  <g stroke="chocolate" stroke-width="1">
    <line x1="647" y1="459" x2="487" y2="385"/>
    <circle cx="647" cy="459" r="2"/>
    <circle cx="487" cy="385" r="2"/>
  </g>
  <g stroke="chocolate" stroke-width="1">
    <line x1="487" y1="385" x2="400" y2="150"/>
    <circle cx="487" cy="385" r="2"/>
    <circle cx="400" cy="150" r="2"/>
  </g>
  <g stroke="chocolate" stroke-width="1">
    <line x1="530" y1="502" x2="487" y2="385"/>
    <circle cx="530" cy="502" r="2"/>
    <circle cx="487" cy="385" r="2"/>
  </g>
  <g stroke="chocolate" stroke-width="1">
    <line x1="209" y1="354" x2="48" y2="280"/>
    <circle cx="209" cy="354" r="2"/>
    <circle cx="48" cy="280" r="2"/>
  </g>
  <g stroke="chocolate" stroke-width="1">
    <line x1="369" y1="428" x2="209" y2="354"/>
    <circle cx="369" cy="428" r="2"/>
    <circle cx="209" cy="354" r="2"/>
  </g>
  <g stroke="chocolate" stroke-width="1">
    <line x1="209" y1="354" x2="165" y2="237"/>
    <circle cx="209" cy="354" r="2"/>
    <circle cx="165" cy="237" r="2"/>
  </g>
  <g stroke="chocolate" stroke-width="1">
    <line x1="252" y1="471" x2="209" y2="354"/>
    <circle cx="252" cy="471" r="2"/>
    <circle cx="209" cy="354" r="2"/>
  </g>
  <g stroke="chocolate" stroke-width="1">
    <line x1="165" y1="237" x2="5" y2="163"/>
    <circle cx="165" cy="237" r="2"/>
    <circle cx="5" cy="163" r="2"/>
  </g>
  <g stroke="chocolate" stroke-width="1">
    <line x1="165" y1="237" x2="400" y2="150"/>
    <circle cx="165" cy="237" r="2"/>
    <circle cx="400" cy="150" r="2"/>
  </g>
  <g stroke="chocolate" stroke-width="1">
    <line x1="48" y1="280" x2="165" y2="237"/>
    <circle cx="48" cy="280" r="2"/>
    <circle cx="165" cy="237" r="2"/>
  </g>
  <g stroke="chocolate" stroke-width="1">
    <line x1="530" y1="502" x2="369" y2="428"/>
    <circle cx="530" cy="502" r="2"/>
    <circle cx="369" cy="428" r="2"/>
  </g>
  <g stroke="chocolate" stroke-width="1">
    <line x1="369" y1="428" x2="487" y2="385"/>
    <circle cx="369" cy="428" r="2"/>
    <circle cx="487" cy="385" r="2"/>
  </g>
  <g stroke="chocolate" stroke-width="1">
    <line x1="252" y1="471" x2="369" y2="428"/>
    <circle cx="252" cy="471" r="2"/>
    <circle cx="369" cy="428" r="2"/>
  </g>
  <g stroke="chocolate" stroke-width="1">
    <line x1="48" y1="280" x2="5" y2="163"/>
    <circle cx="48" cy="280" r="2"/>
    <circle cx="5" cy="163" r="2"/>
  </g>
  <g stroke="chocolate" stroke-width="1">
    <line x1="530" y1="502" x2="647" y2="459"/>
    <circle cx="530" cy="502" r="2"/>
    <circle cx="647" cy="459" r="2"/>
  </g>
  <g stroke="black" stroke-width="1">
    <line x1="76" y1="76" x2="576" y2="76"/>
    <line x1="76" y1="76" x2="76" y2="576"/>
    <line x1="576" y1="576" x2="76" y2="576"/>
    <line x1="576" y1="576" x2="576" y2="76"/>
    <line x1="176" y1="73" x2="176" y2="79"/>
    <line x1="73" y1="176" x2="79" y2="176"/>
    <line x1="176" y1="573" x2="176" y2="579"/>
    <line x1="573" y1="176" x2="579" y2="176"/>
    <line x1="276" y1="73" x2="276" y2="79"/>
    <line x1="73" y1="276" x2="79" y2="276"/>
    <line x1="276" y1="573" x2="276" y2="579"/>
    <line x1="573" y1="276" x2="579" y2="276"/>
    <line x1="376" y1="73" x2="376" y2="79"/>
    <line x1="73" y1="376" x2="79" y2="376"/>
    <line x1="376" y1="573" x2="376" y2="579"/>
    <line x1="573" y1="376" x2="579" y2="376"/>
    <line x1="476" y1="73" x2="476" y2="79"/>
    <line x1="73" y1="476" x2="79" y2="476"/>
    <line x1="476" y1="573" x2="476" y2="579"/>
    <line x1="573" y1="476" x2="579" y2="476"/>
  </g>
  <g stroke="gray" stroke-width="1" stroke-dasharray="5,5">
    <line x1="176" y1="76" x2="176" y2="576"/>
    <line x1="76" y1="176" x2="576" y2="176"/>
    <line x1="276" y1="76" x2="276" y2="576"/>
    <line x1="76" y1="276" x2="576" y2="276"/>
    <line x1="376" y1="76" x2="376" y2="576"/>
    <line x1="76" y1="376" x2="576" y2="376"/>
    <line x1="476" y1="76" x2="476" y2="576"/>
    <line x1="76" y1="476" x2="576" y2="476"/>
  </g>
</svg>
