<?xml version="1.0" standalone="no"?>
<!DOCTYPE svg PUBLIC "-//W3C//DTD SVG 1.1//EN" 
  "http://www.w3.org/Graphics/SVG/1.1/DTD/svg11.dtd">
<svg width="522" height="522" version="1.1" id="toplevel"
    xmlns="http://www.w3.org/2000/svg"
    xmlns:xlink="http://www.w3.org/1999/xlink">
  <polygon points="17,392 136,261 267,380 517,368 255,130 5,142" fill="bisque"/>
  <g stroke="chocolate" stroke-width="1">
    <line x1="136" y1="261" x2="5" y2="142"/>
    <circle cx="136" cy="261" r="2"/>
    <circle cx="5" cy="142" r="2"/>
  </g>
  <g stroke="chocolate" stroke-width="1">
    <line x1="267" y1="380" x2="136" y2="261"/>
    <circle cx="267" cy="380" r="2"/>
    <circle cx="136" cy="261" r="2"/>
  </g>
  <g stroke="chocolate" stroke-width="1">
    <line x1="136" y1="261" x2="255" y2="130"/>
    <circle cx="136" cy="261" r="2"/>
    <circle cx="255" cy="130" r="2"/>
  </g>
  <g stroke="chocolate" stroke-width="1">
    <line x1="17" y1="392" x2="136" y2="261"/>
    <circle cx="17" cy="392" r="2"/>
    <circle cx="136" cy="261" r="2"/>
  </g>
  <g stroke="chocolate" stroke-width="1">
    <line x1="517" y1="368" x2="255" y2="130"/>
    <circle cx="517" cy="368" r="2"/>
    <circle cx="255" cy="130" r="2"/>
  </g>
  <g stroke="chocolate" stroke-width="1">
    <line x1="5" y1="142" x2="255" y2="130"/>
    <circle cx="5" cy="142" r="2"/>
    <circle cx="255" cy="130" r="2"/>
  </g>
  <g stroke="chocolate" stroke-width="1">
    <line x1="267" y1="380" x2="255" y2="130"/>
    <circle cx="267" cy="380" r="2"/>
    <circle cx="255" cy="130" r="2"/>
  </g>
  <g stroke="chocolate" stroke-width="1">
    <line x1="17" y1="392" x2="5" y2="142"/>
    <circle cx="17" cy="392" r="2"/>
    <circle cx="5" cy="142" r="2"/>
  </g>
  <g stroke="chocolate" stroke-width="1">
    <line x1="267" y1="380" x2="517" y2="368"/>
    <circle cx="267" cy="380" r="2"/>
    <circle cx="517" cy="368" r="2"/>
  </g>
  <g stroke="black" stroke-width="1">
    <line x1="11" y1="11" x2="511" y2="11"/>
    <line x1="11" y1="11" x2="11" y2="511"/>
    <line x1="511" y1="511" x2="11" y2="511"/>
    <line x1="511" y1="511" x2="511" y2="11"/>
    <line x1="111" y1="8" x2="111" y2="14"/>
    <line x1="8" y1="111" x2="14" y2="111"/>
    <line x1="111" y1="508" x2="111" y2="514"/>
    <line x1="508" y1="111" x2="514" y2="111"/>
    <line x1="211" y1="8" x2="211" y2="14"/>
    <line x1="8" y1="211" x2="14" y2="211"/>
    <line x1="211" y1="508" x2="211" y2="514"/>
    <line x1="508" y1="211" x2="514" y2="211"/>
    <line x1="311" y1="8" x2="311" y2="14"/>
    <line x1="8" y1="311" x2="14" y2="311"/>
    <line x1="311" y1="508" x2="311" y2="514"/>
    <line x1="508" y1="311" x2="514" y2="311"/>
    <line x1="411" y1="8" x2="411" y2="14"/>
    <line x1="8" y1="411" x2="14" y2="411"/>
    <line x1="411" y1="508" x2="411" y2="514"/>
    <line x1="508" y1="411" x2="514" y2="411"/>
  </g>
  <g stroke="gray" stroke-width="1" stroke-dasharray="5,5">
    <line x1="111" y1="11" x2="111" y2="511"/>
    <line x1="11" y1="111" x2="511" y2="111"/>
    <line x1="211" y1="11" x2="211" y2="511"/>
    <line x1="11" y1="211" x2="511" y2="211"/>
    <line x1="311" y1="11" x2="311" y2="511"/>
    <line x1="11" y1="311" x2="511" y2="311"/>
    <line x1="411" y1="11" x2="411" y2="511"/>
    <line x1="11" y1="411" x2="511" y2="411"/>
  </g>
</svg>
