<?xml version="1.0" standalone="no"?>
<!DOCTYPE svg PUBLIC "-//W3C//DTD SVG 1.1//EN" 
  "http://www.w3.org/Graphics/SVG/1.1/DTD/svg11.dtd">
<svg width="528" height="528" version="1.1" id="toplevel"
    xmlns="http://www.w3.org/2000/svg"
    xmlns:xlink="http://www.w3.org/1999/xlink">
  <polygon points="359,523 379,274 264,139 398,25 149,5 130,254" fill="bisque"/>
  <g stroke="chocolate" stroke-width="1">
    <line x1="264" y1="139" x2="149" y2="5"/>
    <circle cx="264" cy="139" r="2"/>
    <circle cx="149" cy="5" r="2"/>
  </g>
  <g stroke="chocolate" stroke-width="1">
    <line x1="379" y1="274" x2="264" y2="139"/>
    <circle cx="379" cy="274" r="2"/>
    <circle cx="264" cy="139" r="2"/>
  </g>
  <g stroke="chocolate" stroke-width="1">
    <line x1="264" y1="139" x2="398" y2="25"/>
    <circle cx="264" cy="139" r="2"/>
    <circle cx="398" cy="25" r="2"/>
  </g>
  <g stroke="chocolate" stroke-width="1">
    <line x1="130" y1="254" x2="264" y2="139"/>
    <circle cx="130" cy="254" r="2"/>
    <circle cx="264" cy="139" r="2"/>
  </g>
  <g stroke="chocolate" stroke-width="1">
    <line x1="398" y1="25" x2="149" y2="5"/>
    <circle cx="398" cy="25" r="2"/>
    <circle cx="149" cy="5" r="2"/>
  </g>
  <g stroke="chocolate" stroke-width="1">
    <line x1="379" y1="274" x2="130" y2="254"/>
    <circle cx="379" cy="274" r="2"/>
    <circle cx="130" cy="254" r="2"/>
  </g>
  <g stroke="chocolate" stroke-width="1">
    <line x1="359" y1="523" x2="130" y2="254"/>
    <circle cx="359" cy="523" r="2"/>
    <circle cx="130" cy="254" r="2"/>
  </g>
  <g stroke="chocolate" stroke-width="1">
    <line x1="130" y1="254" x2="149" y2="5"/>
    <circle cx="130" cy="254" r="2"/>
    <circle cx="149" cy="5" r="2"/>
  </g>
  <g stroke="chocolate" stroke-width="1">
    <line x1="359" y1="523" x2="379" y2="274"/>
    <circle cx="359" cy="523" r="2"/>
    <circle cx="379" cy="274" r="2"/>
  </g>
  <g stroke="black" stroke-width="1">
    <line x1="14" y1="14" x2="514" y2="14"/>
    <line x1="14" y1="14" x2="14" y2="514"/>
    <line x1="514" y1="514" x2="14" y2="514"/>
    <line x1="514" y1="514" x2="514" y2="14"/>
    <line x1="114" y1="11" x2="114" y2="17"/>
    <line x1="11" y1="114" x2="17" y2="114"/>
    <line x1="114" y1="511" x2="114" y2="517"/>
    <line x1="511" y1="114" x2="517" y2="114"/>
    <line x1="214" y1="11" x2="214" y2="17"/>
    <line x1="11" y1="214" x2="17" y2="214"/>
    <line x1="214" y1="511" x2="214" y2="517"/>
    <line x1="511" y1="214" x2="517" y2="214"/>
    <line x1="314" y1="11" x2="314" y2="17"/>
    <line x1="11" y1="314" x2="17" y2="314"/>
    <line x1="314" y1="511" x2="314" y2="517"/>
    <line x1="511" y1="314" x2="517" y2="314"/>
    <line x1="414" y1="11" x2="414" y2="17"/>
    <line x1="11" y1="414" x2="17" y2="414"/>
    <line x1="414" y1="511" x2="414" y2="517"/>
    <line x1="511" y1="414" x2="517" y2="414"/>
  </g>
  <g stroke="gray" stroke-width="1" stroke-dasharray="5,5">
    <line x1="114" y1="14" x2="114" y2="514"/>
    <line x1="14" y1="114" x2="514" y2="114"/>
    <line x1="214" y1="14" x2="214" y2="514"/>
    <line x1="14" y1="214" x2="514" y2="214"/>
    <line x1="314" y1="14" x2="314" y2="514"/>
    <line x1="14" y1="314" x2="514" y2="314"/>
    <line x1="414" y1="14" x2="414" y2="514"/>
    <line x1="14" y1="414" x2="514" y2="414"/>
  </g>
</svg>
