<?xml version="1.0" standalone="no"?>
<!DOCTYPE svg PUBLIC "-//W3C//DTD SVG 1.1//EN" 
  "http://www.w3.org/Graphics/SVG/1.1/DTD/svg11.dtd">
<svg width="648" height="648" version="1.1" id="toplevel"
    xmlns="http://www.w3.org/2000/svg"
    xmlns:xlink="http://www.w3.org/1999/xlink">
  <polygon points="556,340 643,209 518,126 518,125 12,135 5,180 20,182 27,222 104,246 187,263 234,328 294,285"
           fill="bisque"/>
  <g stroke="chocolate" stroke-width="1">
    <line x1="57" y1="187" x2="20" y2="182"/>
    <circle cx="57" cy="187" r="2"/>
    <circle cx="20" cy="182" r="2"/>
  </g>
  <g stroke="chocolate" stroke-width="1">
    <line x1="140" y1="199" x2="57" y2="187"/>
    <circle cx="140" cy="199" r="2"/>
    <circle cx="57" cy="187" r="2"/>
  </g>
  <g stroke="chocolate" stroke-width="1">
    <line x1="57" y1="187" x2="93" y2="133"/>
    <circle cx="57" cy="187" r="2"/>
    <circle cx="93" cy="133" r="2"/>
  </g>
  <g stroke="chocolate" stroke-width="1">
    <line x1="36" y1="218" x2="57" y2="187"/>
    <circle cx="36" cy="218" r="2"/>
    <circle cx="57" cy="187" r="2"/>
  </g>
  <g stroke="chocolate" stroke-width="1">
    <line x1="187" y1="263" x2="140" y2="199"/>
    <circle cx="187" cy="263" r="2"/>
    <circle cx="140" cy="199" r="2"/>
  </g>
  <g stroke="chocolate" stroke-width="1">
    <line x1="234" y1="328" x2="187" y2="263"/>
    <circle cx="234" cy="328" r="2"/>
    <circle cx="187" cy="263" r="2"/>
  </g>
  <g stroke="chocolate" stroke-width="1">
    <line x1="187" y1="263" x2="104" y2="246"/>
    <circle cx="187" cy="263" r="2"/>
    <circle cx="104" cy="246" r="2"/>
  </g>
  <g stroke="chocolate" stroke-width="1">
    <line x1="294" y1="285" x2="187" y2="263"/>
    <circle cx="294" cy="285" r="2"/>
    <circle cx="187" cy="263" r="2"/>
  </g>
  <g stroke="chocolate" stroke-width="1">
    <line x1="370" y1="230" x2="140" y2="199"/>
    <circle cx="370" cy="230" r="2"/>
    <circle cx="140" cy="199" r="2"/>
  </g>
  <g stroke="chocolate" stroke-width="1">
    <line x1="501" y1="248" x2="370" y2="230"/>
    <circle cx="501" cy="248" r="2"/>
    <circle cx="370" cy="230" r="2"/>
  </g>
  <g stroke="chocolate" stroke-width="1">
    <line x1="370" y1="230" x2="516" y2="125"/>
    <circle cx="370" cy="230" r="2"/>
    <circle cx="516" cy="125" r="2"/>
  </g>
  <g stroke="chocolate" stroke-width="1">
    <line x1="294" y1="285" x2="370" y2="230"/>
    <circle cx="294" cy="285" r="2"/>
    <circle cx="370" cy="230" r="2"/>
  </g>
  <g stroke="chocolate" stroke-width="1">
    <line x1="140" y1="199" x2="93" y2="133"/>
    <circle cx="140" cy="199" r="2"/>
    <circle cx="93" cy="133" r="2"/>
  </g>
  <g stroke="chocolate" stroke-width="1">
    <line x1="36" y1="218" x2="32" y2="217"/>
    <circle cx="36" cy="218" r="2"/>
    <circle cx="32" cy="217" r="2"/>
  </g>
  <g stroke="chocolate" stroke-width="1">
    <line x1="104" y1="246" x2="36" y2="218"/>
    <circle cx="104" cy="246" r="2"/>
    <circle cx="36" cy="218" r="2"/>
  </g>
  <g stroke="chocolate" stroke-width="1">
    <line x1="32" y1="224" x2="36" y2="218"/>
    <circle cx="32" cy="224" r="2"/>
    <circle cx="36" cy="218" r="2"/>
  </g>
  <g stroke="chocolate" stroke-width="1">
    <line x1="518" y1="126" x2="517" y2="126"/>
    <circle cx="518" cy="126" r="2"/>
    <circle cx="517" cy="126" r="2"/>
  </g>
  <g stroke="chocolate" stroke-width="1">
    <line x1="643" y1="209" x2="518" y2="126"/>
    <circle cx="643" cy="209" r="2"/>
    <circle cx="518" cy="126" r="2"/>
  </g>
  <g stroke="chocolate" stroke-width="1">
    <line x1="518" y1="126" x2="518" y2="125"/>
    <circle cx="518" cy="126" r="2"/>
    <circle cx="518" cy="125" r="2"/>
  </g>
  <g stroke="chocolate" stroke-width="1">
    <line x1="556" y1="340" x2="518" y2="126"/>
    <circle cx="556" cy="340" r="2"/>
    <circle cx="518" cy="126" r="2"/>
  </g>
  <g stroke="chocolate" stroke-width="1">
    <line x1="556" y1="340" x2="294" y2="285"/>
    <circle cx="556" cy="340" r="2"/>
    <circle cx="294" cy="285" r="2"/>
  </g>
  <g stroke="chocolate" stroke-width="1">
    <line x1="234" y1="328" x2="294" y2="285"/>
    <circle cx="234" cy="328" r="2"/>
    <circle cx="294" cy="285" r="2"/>
  </g>
  <g stroke="chocolate" stroke-width="1">
    <line x1="20" y1="182" x2="5" y2="180"/>
    <circle cx="20" cy="182" r="2"/>
    <circle cx="5" cy="180" r="2"/>
  </g>
  <g stroke="chocolate" stroke-width="1">
    <line x1="20" y1="182" x2="12" y2="135"/>
    <circle cx="20" cy="182" r="2"/>
    <circle cx="12" cy="135" r="2"/>
  </g>
  <g stroke="chocolate" stroke-width="1">
    <line x1="27" y1="222" x2="20" y2="182"/>
    <circle cx="27" cy="222" r="2"/>
    <circle cx="20" cy="182" r="2"/>
  </g>
  <g stroke="chocolate" stroke-width="1">
    <line x1="517" y1="126" x2="516" y2="125"/>
    <circle cx="517" cy="126" r="2"/>
    <circle cx="516" cy="125" r="2"/>
  </g>
  <g stroke="chocolate" stroke-width="1">
    <line x1="517" y1="126" x2="518" y2="125"/>
    <circle cx="517" cy="126" r="2"/>
    <circle cx="518" cy="125" r="2"/>
  </g>
  <g stroke="chocolate" stroke-width="1">
    <line x1="501" y1="248" x2="517" y2="126"/>
    <circle cx="501" cy="248" r="2"/>
    <circle cx="517" cy="126" r="2"/>
  </g>
  <g stroke="chocolate" stroke-width="1">
    <line x1="12" y1="135" x2="518" y2="125"/>
    <circle cx="12" cy="135" r="2"/>
    <circle cx="518" cy="125" r="2"/>
  </g>
  <g stroke="chocolate" stroke-width="1">
    <line x1="104" y1="246" x2="27" y2="222"/>
    <circle cx="104" cy="246" r="2"/>
    <circle cx="27" cy="222" r="2"/>
  </g>
  <g stroke="chocolate" stroke-width="1">
    <line x1="27" y1="222" x2="32" y2="217"/>
    <circle cx="27" cy="222" r="2"/>
    <circle cx="32" cy="217" r="2"/>
  </g>
  <g stroke="chocolate" stroke-width="1">
    <line x1="5" y1="180" x2="12" y2="135"/>
    <circle cx="5" cy="180" r="2"/>
    <circle cx="12" cy="135" r="2"/>
  </g>
  <g stroke="chocolate" stroke-width="1">
    <line x1="32" y1="224" x2="32" y2="217"/>
    <circle cx="32" cy="224" r="2"/>
    <circle cx="32" cy="217" r="2"/>
  </g>
  <g stroke="chocolate" stroke-width="1">
    <line x1="556" y1="340" x2="643" y2="209"/>
    <circle cx="556" cy="340" r="2"/>
    <circle cx="643" cy="209" r="2"/>
  </g>
  <g stroke="black" stroke-width="1">
    <line x1="74" y1="74" x2="574" y2="74"/>
    <line x1="74" y1="74" x2="74" y2="574"/>
    <line x1="574" y1="574" x2="74" y2="574"/>
    <line x1="574" y1="574" x2="574" y2="74"/>
    <line x1="174" y1="71" x2="174" y2="77"/>
    <line x1="71" y1="174" x2="77" y2="174"/>
    <line x1="174" y1="571" x2="174" y2="577"/>
    <line x1="571" y1="174" x2="577" y2="174"/>
    <line x1="274" y1="71" x2="274" y2="77"/>
    <line x1="71" y1="274" x2="77" y2="274"/>
    <line x1="274" y1="571" x2="274" y2="577"/>
    <line x1="571" y1="274" x2="577" y2="274"/>
    <line x1="374" y1="71" x2="374" y2="77"/>
    <line x1="71" y1="374" x2="77" y2="374"/>
    <line x1="374" y1="571" x2="374" y2="577"/>
    <line x1="571" y1="374" x2="577" y2="374"/>
    <line x1="474" y1="71" x2="474" y2="77"/>
    <line x1="71" y1="474" x2="77" y2="474"/>
    <line x1="474" y1="571" x2="474" y2="577"/>
    <line x1="571" y1="474" x2="577" y2="474"/>
  </g>
  <g stroke="gray" stroke-width="1" stroke-dasharray="5,5">
    <line x1="174" y1="74" x2="174" y2="574"/>
    <line x1="74" y1="174" x2="574" y2="174"/>
    <line x1="274" y1="74" x2="274" y2="574"/>
    <line x1="74" y1="274" x2="574" y2="274"/>
    <line x1="374" y1="74" x2="374" y2="574"/>
    <line x1="74" y1="374" x2="574" y2="374"/>
    <line x1="474" y1="74" x2="474" y2="574"/>
    <line x1="74" y1="474" x2="574" y2="474"/>
  </g>
</svg>
