<?xml version="1.0" standalone="no"?>
<!DOCTYPE svg PUBLIC "-//W3C//DTD SVG 1.1//EN" 
  "http://www.w3.org/Graphics/SVG/1.1/DTD/svg11.dtd">
<svg width="510" height="510" version="1.1" id="toplevel"
    xmlns="http://www.w3.org/2000/svg"
    xmlns:xlink="http://www.w3.org/1999/xlink">
  <polygon points="68,442 130,380 151,380 161,411 192,442 442,442 380,380 380,359 411,349 442,318 442,68 380,130 359,130 349,99 318,68 68,68 130,130 130,151 99,161 68,192"
           fill="bisque"/>
  <g stroke="chocolate" stroke-width="1">
    <line x1="318" y1="192" x2="286" y2="161"/>
    <circle cx="318" cy="192" r="2"/>
    <circle cx="286" cy="161" r="2"/>
  </g>
  <g stroke="chocolate" stroke-width="1">
    <line x1="333" y1="208" x2="318" y2="192"/>
    <circle cx="333" cy="208" r="2"/>
    <circle cx="318" cy="192" r="2"/>
  </g>
  <g stroke="chocolate" stroke-width="1">
    <line x1="318" y1="192" x2="349" y2="161"/>
    <circle cx="318" cy="192" r="2"/>
    <circle cx="349" cy="161" r="2"/>
  </g>
  <g stroke="chocolate" stroke-width="1">
    <line x1="286" y1="224" x2="318" y2="192"/>
    <circle cx="286" cy="224" r="2"/>
    <circle cx="318" cy="192" r="2"/>
  </g>
  <g stroke="chocolate" stroke-width="1">
    <line x1="192" y1="318" x2="177" y2="302"/>
    <circle cx="192" cy="318" r="2"/>
    <circle cx="177" cy="302" r="2"/>
  </g>
  <g stroke="chocolate" stroke-width="1">
    <line x1="224" y1="349" x2="192" y2="318"/>
    <circle cx="224" cy="349" r="2"/>
    <circle cx="192" cy="318" r="2"/>
  </g>
  <g stroke="chocolate" stroke-width="1">
    <line x1="192" y1="318" x2="224" y2="286"/>
    <circle cx="192" cy="318" r="2"/>
    <circle cx="224" cy="286" r="2"/>
  </g>
  <g stroke="chocolate" stroke-width="1">
    <line x1="161" y1="349" x2="192" y2="318"/>
    <circle cx="161" cy="349" r="2"/>
    <circle cx="192" cy="318" r="2"/>
  </g>
  <g stroke="chocolate" stroke-width="1">
    <line x1="161" y1="224" x2="192" y2="192"/>
    <circle cx="161" cy="224" r="2"/>
    <circle cx="192" cy="192" r="2"/>
  </g>
  <g stroke="chocolate" stroke-width="1">
    <line x1="130" y1="255" x2="161" y2="224"/>
    <circle cx="130" cy="255" r="2"/>
    <circle cx="161" cy="224" r="2"/>
  </g>
  <g stroke="chocolate" stroke-width="1">
    <line x1="161" y1="224" x2="99" y2="161"/>
    <circle cx="161" cy="224" r="2"/>
    <circle cx="99" cy="161" r="2"/>
  </g>
  <g stroke="chocolate" stroke-width="1">
    <line x1="177" y1="239" x2="161" y2="224"/>
    <circle cx="177" cy="239" r="2"/>
    <circle cx="161" cy="224" r="2"/>
  </g>
  <g stroke="chocolate" stroke-width="1">
    <line x1="146" y1="146" x2="130" y2="130"/>
    <circle cx="146" cy="146" r="2"/>
    <circle cx="130" cy="130" r="2"/>
  </g>
  <g stroke="chocolate" stroke-width="1">
    <line x1="161" y1="161" x2="146" y2="146"/>
    <circle cx="161" cy="161" r="2"/>
    <circle cx="146" cy="146" r="2"/>
  </g>
  <g stroke="chocolate" stroke-width="1">
    <line x1="146" y1="146" x2="192" y2="130"/>
    <circle cx="146" cy="146" r="2"/>
    <circle cx="192" cy="130" r="2"/>
  </g>
  <g stroke="chocolate" stroke-width="1">
    <line x1="130" y1="151" x2="146" y2="146"/>
    <circle cx="130" cy="151" r="2"/>
    <circle cx="146" cy="146" r="2"/>
  </g>
  <g stroke="chocolate" stroke-width="1">
    <line x1="130" y1="130" x2="130" y2="68"/>
    <circle cx="130" cy="130" r="2"/>
    <circle cx="130" cy="68" r="2"/>
  </g>
  <g stroke="chocolate" stroke-width="1">
    <line x1="130" y1="151" x2="130" y2="130"/>
    <circle cx="130" cy="151" r="2"/>
    <circle cx="130" cy="130" r="2"/>
  </g>
  <g stroke="chocolate" stroke-width="1">
    <line x1="130" y1="130" x2="68" y2="68"/>
    <circle cx="130" cy="130" r="2"/>
    <circle cx="68" cy="68" r="2"/>
  </g>
  <g stroke="chocolate" stroke-width="1">
    <line x1="349" y1="286" x2="380" y2="255"/>
    <circle cx="349" cy="286" r="2"/>
    <circle cx="380" cy="255" r="2"/>
  </g>
  <g stroke="chocolate" stroke-width="1">
    <line x1="318" y1="318" x2="349" y2="286"/>
    <circle cx="318" cy="318" r="2"/>
    <circle cx="349" cy="286" r="2"/>
  </g>
  <g stroke="chocolate" stroke-width="1">
    <line x1="349" y1="286" x2="333" y2="271"/>
    <circle cx="349" cy="286" r="2"/>
    <circle cx="333" cy="271" r="2"/>
  </g>
  <g stroke="chocolate" stroke-width="1">
    <line x1="411" y1="349" x2="349" y2="286"/>
    <circle cx="411" cy="349" r="2"/>
    <circle cx="349" cy="286" r="2"/>
  </g>
  <g stroke="chocolate" stroke-width="1">
    <line x1="192" y1="192" x2="161" y2="161"/>
    <circle cx="192" cy="192" r="2"/>
    <circle cx="161" cy="161" r="2"/>
  </g>
  <g stroke="chocolate" stroke-width="1">
    <line x1="224" y1="224" x2="192" y2="192"/>
    <circle cx="224" cy="224" r="2"/>
    <circle cx="192" cy="192" r="2"/>
  </g>
  <g stroke="chocolate" stroke-width="1">
    <line x1="192" y1="192" x2="208" y2="177"/>
    <circle cx="192" cy="192" r="2"/>
    <circle cx="208" cy="177" r="2"/>
  </g>
  <g stroke="chocolate" stroke-width="1">
    <line x1="286" y1="161" x2="255" y2="130"/>
    <circle cx="286" cy="161" r="2"/>
    <circle cx="255" cy="130" r="2"/>
  </g>
  <g stroke="chocolate" stroke-width="1">
    <line x1="286" y1="161" x2="349" y2="99"/>
    <circle cx="286" cy="161" r="2"/>
    <circle cx="349" cy="99" r="2"/>
  </g>
  <g stroke="chocolate" stroke-width="1">
    <line x1="271" y1="177" x2="286" y2="161"/>
    <circle cx="271" cy="177" r="2"/>
    <circle cx="286" cy="161" r="2"/>
  </g>
  <g stroke="chocolate" stroke-width="1">
    <line x1="359" y1="130" x2="380" y2="130"/>
    <circle cx="359" cy="130" r="2"/>
    <circle cx="380" cy="130" r="2"/>
  </g>
  <g stroke="chocolate" stroke-width="1">
    <line x1="318" y1="130" x2="359" y2="130"/>
    <circle cx="318" cy="130" r="2"/>
    <circle cx="359" cy="130" r="2"/>
  </g>
  <g stroke="chocolate" stroke-width="1">
    <line x1="359" y1="130" x2="349" y2="99"/>
    <circle cx="359" cy="130" r="2"/>
    <circle cx="349" cy="99" r="2"/>
  </g>
  <g stroke="chocolate" stroke-width="1">
    <line x1="364" y1="146" x2="359" y2="130"/>
    <circle cx="364" cy="146" r="2"/>
    <circle cx="359" cy="130" r="2"/>
  </g>
  <g stroke="chocolate" stroke-width="1">
    <line x1="151" y1="380" x2="146" y2="364"/>
    <circle cx="151" cy="380" r="2"/>
    <circle cx="146" cy="364" r="2"/>
  </g>
  <g stroke="chocolate" stroke-width="1">
    <line x1="161" y1="411" x2="151" y2="380"/>
    <circle cx="161" cy="411" r="2"/>
    <circle cx="151" cy="380" r="2"/>
  </g>
  <g stroke="chocolate" stroke-width="1">
    <line x1="151" y1="380" x2="192" y2="380"/>
    <circle cx="151" cy="380" r="2"/>
    <circle cx="192" cy="380" r="2"/>
  </g>
  <g stroke="chocolate" stroke-width="1">
    <line x1="130" y1="380" x2="151" y2="380"/>
    <circle cx="130" cy="380" r="2"/>
    <circle cx="151" cy="380" r="2"/>
  </g>
  <g stroke="chocolate" stroke-width="1">
    <line x1="380" y1="380" x2="364" y2="364"/>
    <circle cx="380" cy="380" r="2"/>
    <circle cx="364" cy="364" r="2"/>
  </g>
  <g stroke="chocolate" stroke-width="1">
    <line x1="442" y1="442" x2="380" y2="380"/>
    <circle cx="442" cy="442" r="2"/>
    <circle cx="380" cy="380" r="2"/>
  </g>
  <g stroke="chocolate" stroke-width="1">
    <line x1="380" y1="380" x2="380" y2="359"/>
    <circle cx="380" cy="380" r="2"/>
    <circle cx="380" cy="359" r="2"/>
  </g>
  <g stroke="chocolate" stroke-width="1">
    <line x1="380" y1="442" x2="380" y2="380"/>
    <circle cx="380" cy="442" r="2"/>
    <circle cx="380" cy="380" r="2"/>
  </g>
  <g stroke="chocolate" stroke-width="1">
    <line x1="255" y1="380" x2="224" y2="349"/>
    <circle cx="255" cy="380" r="2"/>
    <circle cx="224" cy="349" r="2"/>
  </g>
  <g stroke="chocolate" stroke-width="1">
    <line x1="224" y1="349" x2="239" y2="333"/>
    <circle cx="224" cy="349" r="2"/>
    <circle cx="239" cy="333" r="2"/>
  </g>
  <g stroke="chocolate" stroke-width="1">
    <line x1="161" y1="411" x2="224" y2="349"/>
    <circle cx="161" cy="411" r="2"/>
    <circle cx="224" cy="349" r="2"/>
  </g>
  <g stroke="chocolate" stroke-width="1">
    <line x1="302" y1="333" x2="318" y2="318"/>
    <circle cx="302" cy="333" r="2"/>
    <circle cx="318" cy="318" r="2"/>
  </g>
  <g stroke="chocolate" stroke-width="1">
    <line x1="318" y1="318" x2="286" y2="286"/>
    <circle cx="318" cy="318" r="2"/>
    <circle cx="286" cy="286" r="2"/>
  </g>
  <g stroke="chocolate" stroke-width="1">
    <line x1="349" y1="349" x2="318" y2="318"/>
    <circle cx="349" cy="349" r="2"/>
    <circle cx="318" cy="318" r="2"/>
  </g>
  <g stroke="chocolate" stroke-width="1">
    <line x1="364" y1="364" x2="380" y2="359"/>
    <circle cx="364" cy="364" r="2"/>
    <circle cx="380" cy="359" r="2"/>
  </g>
  <g stroke="chocolate" stroke-width="1">
    <line x1="318" y1="380" x2="364" y2="364"/>
    <circle cx="318" cy="380" r="2"/>
    <circle cx="364" cy="364" r="2"/>
  </g>
  <g stroke="chocolate" stroke-width="1">
    <line x1="364" y1="364" x2="349" y2="349"/>
    <circle cx="364" cy="364" r="2"/>
    <circle cx="349" cy="349" r="2"/>
  </g>
  <g stroke="chocolate" stroke-width="1">
    <line x1="349" y1="161" x2="364" y2="146"/>
    <circle cx="349" cy="161" r="2"/>
    <circle cx="364" cy="146" r="2"/>
  </g>
  <g stroke="chocolate" stroke-width="1">
    <line x1="349" y1="161" x2="318" y2="130"/>
    <circle cx="349" cy="161" r="2"/>
    <circle cx="318" cy="130" r="2"/>
  </g>
  <g stroke="chocolate" stroke-width="1">
    <line x1="380" y1="192" x2="349" y2="161"/>
    <circle cx="380" cy="192" r="2"/>
    <circle cx="349" cy="161" r="2"/>
  </g>
  <g stroke="chocolate" stroke-width="1">
    <line x1="380" y1="130" x2="442" y2="68"/>
    <circle cx="380" cy="130" r="2"/>
    <circle cx="442" cy="68" r="2"/>
  </g>
  <g stroke="chocolate" stroke-width="1">
    <line x1="364" y1="146" x2="380" y2="130"/>
    <circle cx="364" cy="146" r="2"/>
    <circle cx="380" cy="130" r="2"/>
  </g>
  <g stroke="chocolate" stroke-width="1">
    <line x1="380" y1="130" x2="442" y2="130"/>
    <circle cx="380" cy="130" r="2"/>
    <circle cx="442" cy="130" r="2"/>
  </g>
  <g stroke="chocolate" stroke-width="1">
    <line x1="146" y1="364" x2="161" y2="349"/>
    <circle cx="146" cy="364" r="2"/>
    <circle cx="161" cy="349" r="2"/>
  </g>
  <g stroke="chocolate" stroke-width="1">
    <line x1="161" y1="349" x2="130" y2="318"/>
    <circle cx="161" cy="349" r="2"/>
    <circle cx="130" cy="318" r="2"/>
  </g>
  <g stroke="chocolate" stroke-width="1">
    <line x1="192" y1="380" x2="161" y2="349"/>
    <circle cx="192" cy="380" r="2"/>
    <circle cx="161" cy="349" r="2"/>
  </g>
  <g stroke="chocolate" stroke-width="1">
    <line x1="109" y1="192" x2="130" y2="192"/>
    <circle cx="109" cy="192" r="2"/>
    <circle cx="130" cy="192" r="2"/>
  </g>
  <g stroke="chocolate" stroke-width="1">
    <line x1="68" y1="192" x2="109" y2="192"/>
    <circle cx="68" cy="192" r="2"/>
    <circle cx="109" cy="192" r="2"/>
  </g>
  <g stroke="chocolate" stroke-width="1">
    <line x1="109" y1="192" x2="99" y2="161"/>
    <circle cx="109" cy="192" r="2"/>
    <circle cx="99" cy="161" r="2"/>
  </g>
  <g stroke="chocolate" stroke-width="1">
    <line x1="130" y1="255" x2="109" y2="192"/>
    <circle cx="130" cy="255" r="2"/>
    <circle cx="109" cy="192" r="2"/>
  </g>
  <g stroke="chocolate" stroke-width="1">
    <line x1="130" y1="380" x2="146" y2="364"/>
    <circle cx="130" cy="380" r="2"/>
    <circle cx="146" cy="364" r="2"/>
  </g>
  <g stroke="chocolate" stroke-width="1">
    <line x1="146" y1="364" x2="130" y2="318"/>
    <circle cx="146" cy="364" r="2"/>
    <circle cx="130" cy="318" r="2"/>
  </g>
  <g stroke="chocolate" stroke-width="1">
    <line x1="401" y1="318" x2="380" y2="255"/>
    <circle cx="401" cy="318" r="2"/>
    <circle cx="380" cy="255" r="2"/>
  </g>
  <g stroke="chocolate" stroke-width="1">
    <line x1="411" y1="349" x2="401" y2="318"/>
    <circle cx="411" cy="349" r="2"/>
    <circle cx="401" cy="318" r="2"/>
  </g>
  <g stroke="chocolate" stroke-width="1">
    <line x1="401" y1="318" x2="442" y2="318"/>
    <circle cx="401" cy="318" r="2"/>
    <circle cx="442" cy="318" r="2"/>
  </g>
  <g stroke="chocolate" stroke-width="1">
    <line x1="380" y1="318" x2="401" y2="318"/>
    <circle cx="380" cy="318" r="2"/>
    <circle cx="401" cy="318" r="2"/>
  </g>
  <g stroke="chocolate" stroke-width="1">
    <line x1="224" y1="286" x2="177" y2="239"/>
    <circle cx="224" cy="286" r="2"/>
    <circle cx="177" cy="239" r="2"/>
  </g>
  <g stroke="chocolate" stroke-width="1">
    <line x1="177" y1="239" x2="224" y2="224"/>
    <circle cx="177" cy="239" r="2"/>
    <circle cx="224" cy="224" r="2"/>
  </g>
  <g stroke="chocolate" stroke-width="1">
    <line x1="130" y1="255" x2="177" y2="239"/>
    <circle cx="130" cy="255" r="2"/>
    <circle cx="177" cy="239" r="2"/>
  </g>
  <g stroke="chocolate" stroke-width="1">
    <line x1="380" y1="255" x2="333" y2="208"/>
    <circle cx="380" cy="255" r="2"/>
    <circle cx="333" cy="208" r="2"/>
  </g>
  <g stroke="chocolate" stroke-width="1">
    <line x1="333" y1="208" x2="380" y2="192"/>
    <circle cx="333" cy="208" r="2"/>
    <circle cx="380" cy="192" r="2"/>
  </g>
  <g stroke="chocolate" stroke-width="1">
    <line x1="286" y1="224" x2="333" y2="208"/>
    <circle cx="286" cy="224" r="2"/>
    <circle cx="333" cy="208" r="2"/>
  </g>
  <g stroke="chocolate" stroke-width="1">
    <line x1="318" y1="109" x2="349" y2="99"/>
    <circle cx="318" cy="109" r="2"/>
    <circle cx="349" cy="99" r="2"/>
  </g>
  <g stroke="chocolate" stroke-width="1">
    <line x1="255" y1="130" x2="318" y2="109"/>
    <circle cx="255" cy="130" r="2"/>
    <circle cx="318" cy="109" r="2"/>
  </g>
  <g stroke="chocolate" stroke-width="1">
    <line x1="318" y1="109" x2="318" y2="68"/>
    <circle cx="318" cy="109" r="2"/>
    <circle cx="318" cy="68" r="2"/>
  </g>
  <g stroke="chocolate" stroke-width="1">
    <line x1="318" y1="130" x2="318" y2="109"/>
    <circle cx="318" cy="130" r="2"/>
    <circle cx="318" cy="109" r="2"/>
  </g>
  <g stroke="chocolate" stroke-width="1">
    <line x1="99" y1="161" x2="130" y2="151"/>
    <circle cx="99" cy="161" r="2"/>
    <circle cx="130" cy="151" r="2"/>
  </g>
  <g stroke="chocolate" stroke-width="1">
    <line x1="130" y1="192" x2="130" y2="151"/>
    <circle cx="130" cy="192" r="2"/>
    <circle cx="130" cy="151" r="2"/>
  </g>
  <g stroke="chocolate" stroke-width="1">
    <line x1="177" y1="302" x2="130" y2="255"/>
    <circle cx="177" cy="302" r="2"/>
    <circle cx="130" cy="255" r="2"/>
  </g>
  <g stroke="chocolate" stroke-width="1">
    <line x1="177" y1="302" x2="224" y2="286"/>
    <circle cx="177" cy="302" r="2"/>
    <circle cx="224" cy="286" r="2"/>
  </g>
  <g stroke="chocolate" stroke-width="1">
    <line x1="130" y1="318" x2="177" y2="302"/>
    <circle cx="130" cy="318" r="2"/>
    <circle cx="177" cy="302" r="2"/>
  </g>
  <g stroke="chocolate" stroke-width="1">
    <line x1="161" y1="161" x2="192" y2="130"/>
    <circle cx="161" cy="161" r="2"/>
    <circle cx="192" cy="130" r="2"/>
  </g>
  <g stroke="chocolate" stroke-width="1">
    <line x1="130" y1="192" x2="161" y2="161"/>
    <circle cx="130" cy="192" r="2"/>
    <circle cx="161" cy="161" r="2"/>
  </g>
  <g stroke="chocolate" stroke-width="1">
    <line x1="333" y1="271" x2="286" y2="224"/>
    <circle cx="333" cy="271" r="2"/>
    <circle cx="286" cy="224" r="2"/>
  </g>
  <g stroke="chocolate" stroke-width="1">
    <line x1="333" y1="271" x2="380" y2="255"/>
    <circle cx="333" cy="271" r="2"/>
    <circle cx="380" cy="255" r="2"/>
  </g>
  <g stroke="chocolate" stroke-width="1">
    <line x1="286" y1="286" x2="333" y2="271"/>
    <circle cx="286" cy="286" r="2"/>
    <circle cx="333" cy="271" r="2"/>
  </g>
  <g stroke="chocolate" stroke-width="1">
    <line x1="208" y1="177" x2="192" y2="130"/>
    <circle cx="208" cy="177" r="2"/>
    <circle cx="192" cy="130" r="2"/>
  </g>
  <g stroke="chocolate" stroke-width="1">
    <line x1="224" y1="224" x2="208" y2="177"/>
    <circle cx="224" cy="224" r="2"/>
    <circle cx="208" cy="177" r="2"/>
  </g>
  <g stroke="chocolate" stroke-width="1">
    <line x1="208" y1="177" x2="255" y2="130"/>
    <circle cx="208" cy="177" r="2"/>
    <circle cx="255" cy="130" r="2"/>
  </g>
  <g stroke="chocolate" stroke-width="1">
    <line x1="271" y1="177" x2="255" y2="130"/>
    <circle cx="271" cy="177" r="2"/>
    <circle cx="255" cy="130" r="2"/>
  </g>
  <g stroke="chocolate" stroke-width="1">
    <line x1="286" y1="224" x2="271" y2="177"/>
    <circle cx="286" cy="224" r="2"/>
    <circle cx="271" cy="177" r="2"/>
  </g>
  <g stroke="chocolate" stroke-width="1">
    <line x1="224" y1="224" x2="271" y2="177"/>
    <circle cx="224" cy="224" r="2"/>
    <circle cx="271" cy="177" r="2"/>
  </g>
  <g stroke="chocolate" stroke-width="1">
    <line x1="192" y1="401" x2="192" y2="380"/>
    <circle cx="192" cy="401" r="2"/>
    <circle cx="192" cy="380" r="2"/>
  </g>
  <g stroke="chocolate" stroke-width="1">
    <line x1="192" y1="442" x2="192" y2="401"/>
    <circle cx="192" cy="442" r="2"/>
    <circle cx="192" cy="401" r="2"/>
  </g>
  <g stroke="chocolate" stroke-width="1">
    <line x1="192" y1="401" x2="255" y2="380"/>
    <circle cx="192" cy="401" r="2"/>
    <circle cx="255" cy="380" r="2"/>
  </g>
  <g stroke="chocolate" stroke-width="1">
    <line x1="161" y1="411" x2="192" y2="401"/>
    <circle cx="161" cy="411" r="2"/>
    <circle cx="192" cy="401" r="2"/>
  </g>
  <g stroke="chocolate" stroke-width="1">
    <line x1="380" y1="192" x2="364" y2="146"/>
    <circle cx="380" cy="192" r="2"/>
    <circle cx="364" cy="146" r="2"/>
  </g>
  <g stroke="chocolate" stroke-width="1">
    <line x1="68" y1="380" x2="130" y2="380"/>
    <circle cx="68" cy="380" r="2"/>
    <circle cx="130" cy="380" r="2"/>
  </g>
  <g stroke="chocolate" stroke-width="1">
    <line x1="68" y1="442" x2="130" y2="380"/>
    <circle cx="68" cy="442" r="2"/>
    <circle cx="130" cy="380" r="2"/>
  </g>
  <g stroke="chocolate" stroke-width="1">
    <line x1="380" y1="359" x2="380" y2="318"/>
    <circle cx="380" cy="359" r="2"/>
    <circle cx="380" cy="318" r="2"/>
  </g>
  <g stroke="chocolate" stroke-width="1">
    <line x1="380" y1="359" x2="411" y2="349"/>
    <circle cx="380" cy="359" r="2"/>
    <circle cx="411" cy="349" r="2"/>
  </g>
  <g stroke="chocolate" stroke-width="1">
    <line x1="239" y1="333" x2="224" y2="286"/>
    <circle cx="239" cy="333" r="2"/>
    <circle cx="224" cy="286" r="2"/>
  </g>
  <g stroke="chocolate" stroke-width="1">
    <line x1="255" y1="380" x2="239" y2="333"/>
    <circle cx="255" cy="380" r="2"/>
    <circle cx="239" cy="333" r="2"/>
  </g>
  <g stroke="chocolate" stroke-width="1">
    <line x1="239" y1="333" x2="286" y2="286"/>
    <circle cx="239" cy="333" r="2"/>
    <circle cx="286" cy="286" r="2"/>
  </g>
  <g stroke="chocolate" stroke-width="1">
    <line x1="302" y1="333" x2="286" y2="286"/>
    <circle cx="302" cy="333" r="2"/>
    <circle cx="286" cy="286" r="2"/>
  </g>
  <g stroke="chocolate" stroke-width="1">
    <line x1="318" y1="380" x2="302" y2="333"/>
    <circle cx="318" cy="380" r="2"/>
    <circle cx="302" cy="333" r="2"/>
  </g>
  <g stroke="chocolate" stroke-width="1">
    <line x1="255" y1="380" x2="302" y2="333"/>
    <circle cx="255" cy="380" r="2"/>
    <circle cx="302" cy="333" r="2"/>
  </g>
  <g stroke="chocolate" stroke-width="1">
    <line x1="349" y1="349" x2="380" y2="318"/>
    <circle cx="349" cy="349" r="2"/>
    <circle cx="380" cy="318" r="2"/>
  </g>
  <g stroke="chocolate" stroke-width="1">
    <line x1="318" y1="380" x2="349" y2="349"/>
    <circle cx="318" cy="380" r="2"/>
    <circle cx="349" cy="349" r="2"/>
  </g>
  <g stroke="chocolate" stroke-width="1">
    <line x1="349" y1="99" x2="318" y2="68"/>
    <circle cx="349" cy="99" r="2"/>
    <circle cx="318" cy="68" r="2"/>
  </g>
  <g stroke="chocolate" stroke-width="1">
    <line x1="68" y1="68" x2="318" y2="68"/>
    <circle cx="68" cy="68" r="2"/>
    <circle cx="318" cy="68" r="2"/>
  </g>
  <g stroke="chocolate" stroke-width="1">
    <line x1="192" y1="130" x2="130" y2="68"/>
    <circle cx="192" cy="130" r="2"/>
    <circle cx="130" cy="68" r="2"/>
  </g>
  <g stroke="chocolate" stroke-width="1">
    <line x1="380" y1="442" x2="318" y2="380"/>
    <circle cx="380" cy="442" r="2"/>
    <circle cx="318" cy="380" r="2"/>
  </g>
  <g stroke="chocolate" stroke-width="1">
    <line x1="192" y1="442" x2="161" y2="411"/>
    <circle cx="192" cy="442" r="2"/>
    <circle cx="161" cy="411" r="2"/>
  </g>
  <g stroke="chocolate" stroke-width="1">
    <line x1="442" y1="318" x2="442" y2="68"/>
    <circle cx="442" cy="318" r="2"/>
    <circle cx="442" cy="68" r="2"/>
  </g>
  <g stroke="chocolate" stroke-width="1">
    <line x1="68" y1="442" x2="68" y2="192"/>
    <circle cx="68" cy="442" r="2"/>
    <circle cx="68" cy="192" r="2"/>
  </g>
  <g stroke="chocolate" stroke-width="1">
    <line x1="68" y1="192" x2="99" y2="161"/>
    <circle cx="68" cy="192" r="2"/>
    <circle cx="99" cy="161" r="2"/>
  </g>
  <g stroke="chocolate" stroke-width="1">
    <line x1="192" y1="442" x2="442" y2="442"/>
    <circle cx="192" cy="442" r="2"/>
    <circle cx="442" cy="442" r="2"/>
  </g>
  <g stroke="chocolate" stroke-width="1">
    <line x1="68" y1="380" x2="130" y2="318"/>
    <circle cx="68" cy="380" r="2"/>
    <circle cx="130" cy="318" r="2"/>
  </g>
  <g stroke="chocolate" stroke-width="1">
    <line x1="380" y1="192" x2="442" y2="130"/>
    <circle cx="380" cy="192" r="2"/>
    <circle cx="442" cy="130" r="2"/>
  </g>
  <g stroke="chocolate" stroke-width="1">
    <line x1="411" y1="349" x2="442" y2="318"/>
    <circle cx="411" cy="349" r="2"/>
    <circle cx="442" cy="318" r="2"/>
  </g>
  <g stroke="black" stroke-width="1">
    <line x1="5" y1="5" x2="505" y2="5"/>
    <line x1="5" y1="5" x2="5" y2="505"/>
    <line x1="505" y1="505" x2="5" y2="505"/>
    <line x1="505" y1="505" x2="505" y2="5"/>
    <line x1="105" y1="2" x2="105" y2="8"/>
    <line x1="2" y1="105" x2="8" y2="105"/>
    <line x1="105" y1="502" x2="105" y2="508"/>
    <line x1="502" y1="105" x2="508" y2="105"/>
    <line x1="205" y1="2" x2="205" y2="8"/>
    <line x1="2" y1="205" x2="8" y2="205"/>
    <line x1="205" y1="502" x2="205" y2="508"/>
    <line x1="502" y1="205" x2="508" y2="205"/>
    <line x1="305" y1="2" x2="305" y2="8"/>
    <line x1="2" y1="305" x2="8" y2="305"/>
    <line x1="305" y1="502" x2="305" y2="508"/>
    <line x1="502" y1="305" x2="508" y2="305"/>
    <line x1="405" y1="2" x2="405" y2="8"/>
    <line x1="2" y1="405" x2="8" y2="405"/>
    <line x1="405" y1="502" x2="405" y2="508"/>
    <line x1="502" y1="405" x2="508" y2="405"/>
  </g>
  <g stroke="gray" stroke-width="1" stroke-dasharray="5,5">
    <line x1="105" y1="5" x2="105" y2="505"/>
    <line x1="5" y1="105" x2="505" y2="105"/>
    <line x1="205" y1="5" x2="205" y2="505"/>
    <line x1="5" y1="205" x2="505" y2="205"/>
    <line x1="305" y1="5" x2="305" y2="505"/>
    <line x1="5" y1="305" x2="505" y2="305"/>
    <line x1="405" y1="5" x2="405" y2="505"/>
    <line x1="5" y1="405" x2="505" y2="405"/>
  </g>
</svg>
