<?xml version="1.0" standalone="no"?>
<!DOCTYPE svg PUBLIC "-//W3C//DTD SVG 1.1//EN" 
  "http://www.w3.org/Graphics/SVG/1.1/DTD/svg11.dtd">
<svg width="510" height="510" version="1.1" id="toplevel"
    xmlns="http://www.w3.org/2000/svg"
    xmlns:xlink="http://www.w3.org/1999/xlink">
  <polygon points="168,455 468,55 318,76 318,5 192,5 42,205 78,325 146,305"
           fill="bisque"/>
  <g stroke="chocolate" stroke-width="1">
    <line x1="318" y1="99" x2="318" y2="76"/>
    <circle cx="318" cy="99" r="2"/>
    <circle cx="318" cy="76" r="2"/>
  </g>
  <g stroke="chocolate" stroke-width="1">
    <line x1="318" y1="255" x2="318" y2="99"/>
    <circle cx="318" cy="255" r="2"/>
    <circle cx="318" cy="99" r="2"/>
  </g>
  <g stroke="chocolate" stroke-width="1">
    <line x1="318" y1="99" x2="192" y2="5"/>
    <circle cx="318" cy="99" r="2"/>
    <circle cx="192" cy="5" r="2"/>
  </g>
  <g stroke="chocolate" stroke-width="1">
    <line x1="392" y1="155" x2="318" y2="99"/>
    <circle cx="392" cy="155" r="2"/>
    <circle cx="318" cy="99" r="2"/>
  </g>
  <g stroke="chocolate" stroke-width="1">
    <line x1="180" y1="230" x2="255" y2="130"/>
    <circle cx="180" cy="230" r="2"/>
    <circle cx="255" cy="130" r="2"/>
  </g>
  <g stroke="chocolate" stroke-width="1">
    <line x1="142" y1="280" x2="180" y2="230"/>
    <circle cx="142" cy="280" r="2"/>
    <circle cx="180" cy="230" r="2"/>
  </g>
  <g stroke="chocolate" stroke-width="1">
    <line x1="180" y1="230" x2="42" y2="205"/>
    <circle cx="180" cy="230" r="2"/>
    <circle cx="42" cy="205" r="2"/>
  </g>
  <g stroke="chocolate" stroke-width="1">
    <line x1="318" y1="255" x2="180" y2="230"/>
    <circle cx="318" cy="255" r="2"/>
    <circle cx="180" cy="230" r="2"/>
  </g>
  <g stroke="chocolate" stroke-width="1">
    <line x1="168" y1="299" x2="318" y2="255"/>
    <circle cx="168" cy="299" r="2"/>
    <circle cx="318" cy="255" r="2"/>
  </g>
  <g stroke="chocolate" stroke-width="1">
    <line x1="146" y1="305" x2="168" y2="299"/>
    <circle cx="146" cy="305" r="2"/>
    <circle cx="168" cy="299" r="2"/>
  </g>
  <g stroke="chocolate" stroke-width="1">
    <line x1="168" y1="299" x2="42" y2="205"/>
    <circle cx="168" cy="299" r="2"/>
    <circle cx="42" cy="205" r="2"/>
  </g>
  <g stroke="chocolate" stroke-width="1">
    <line x1="242" y1="355" x2="168" y2="299"/>
    <circle cx="242" cy="355" r="2"/>
    <circle cx="168" cy="299" r="2"/>
  </g>
  <g stroke="chocolate" stroke-width="1">
    <line x1="78" y1="325" x2="146" y2="305"/>
    <circle cx="78" cy="325" r="2"/>
    <circle cx="146" cy="305" r="2"/>
  </g>
  <g stroke="chocolate" stroke-width="1">
    <line x1="146" y1="305" x2="142" y2="280"/>
    <circle cx="146" cy="305" r="2"/>
    <circle cx="142" cy="280" r="2"/>
  </g>
  <g stroke="chocolate" stroke-width="1">
    <line x1="168" y1="455" x2="146" y2="305"/>
    <circle cx="168" cy="455" r="2"/>
    <circle cx="146" cy="305" r="2"/>
  </g>
  <g stroke="chocolate" stroke-width="1">
    <line x1="318" y1="76" x2="468" y2="55"/>
    <circle cx="318" cy="76" r="2"/>
    <circle cx="468" cy="55" r="2"/>
  </g>
  <g stroke="chocolate" stroke-width="1">
    <line x1="292" y1="80" x2="318" y2="76"/>
    <circle cx="292" cy="80" r="2"/>
    <circle cx="318" cy="76" r="2"/>
  </g>
  <g stroke="chocolate" stroke-width="1">
    <line x1="318" y1="76" x2="318" y2="5"/>
    <circle cx="318" cy="76" r="2"/>
    <circle cx="318" cy="5" r="2"/>
  </g>
  <g stroke="chocolate" stroke-width="1">
    <line x1="255" y1="130" x2="192" y2="5"/>
    <circle cx="255" cy="130" r="2"/>
    <circle cx="192" cy="5" r="2"/>
  </g>
  <g stroke="chocolate" stroke-width="1">
    <line x1="318" y1="255" x2="255" y2="130"/>
    <circle cx="318" cy="255" r="2"/>
    <circle cx="255" cy="130" r="2"/>
  </g>
  <g stroke="chocolate" stroke-width="1">
    <line x1="255" y1="130" x2="292" y2="80"/>
    <circle cx="255" cy="130" r="2"/>
    <circle cx="292" cy="80" r="2"/>
  </g>
  <g stroke="chocolate" stroke-width="1">
    <line x1="192" y1="5" x2="318" y2="5"/>
    <circle cx="192" cy="5" r="2"/>
    <circle cx="318" cy="5" r="2"/>
  </g>
  <g stroke="chocolate" stroke-width="1">
    <line x1="142" y1="280" x2="318" y2="255"/>
    <circle cx="142" cy="280" r="2"/>
    <circle cx="318" cy="255" r="2"/>
  </g>
  <g stroke="chocolate" stroke-width="1">
    <line x1="78" y1="325" x2="42" y2="205"/>
    <circle cx="78" cy="325" r="2"/>
    <circle cx="42" cy="205" r="2"/>
  </g>
  <g stroke="chocolate" stroke-width="1">
    <line x1="318" y1="255" x2="292" y2="80"/>
    <circle cx="318" cy="255" r="2"/>
    <circle cx="292" cy="80" r="2"/>
  </g>
  <g stroke="chocolate" stroke-width="1">
    <line x1="42" y1="205" x2="192" y2="5"/>
    <circle cx="42" cy="205" r="2"/>
    <circle cx="192" cy="5" r="2"/>
  </g>
  <g stroke="chocolate" stroke-width="1">
    <line x1="168" y1="455" x2="468" y2="55"/>
    <circle cx="168" cy="455" r="2"/>
    <circle cx="468" cy="55" r="2"/>
  </g>
  <g stroke="black" stroke-width="1">
    <line x1="5" y1="5" x2="505" y2="5"/>
    <line x1="5" y1="5" x2="5" y2="505"/>
    <line x1="505" y1="505" x2="5" y2="505"/>
    <line x1="505" y1="505" x2="505" y2="5"/>
    <line x1="105" y1="2" x2="105" y2="8"/>
    <line x1="2" y1="105" x2="8" y2="105"/>
    <line x1="105" y1="502" x2="105" y2="508"/>
    <line x1="502" y1="105" x2="508" y2="105"/>
    <line x1="205" y1="2" x2="205" y2="8"/>
    <line x1="2" y1="205" x2="8" y2="205"/>
    <line x1="205" y1="502" x2="205" y2="508"/>
    <line x1="502" y1="205" x2="508" y2="205"/>
    <line x1="305" y1="2" x2="305" y2="8"/>
    <line x1="2" y1="305" x2="8" y2="305"/>
    <line x1="305" y1="502" x2="305" y2="508"/>
    <line x1="502" y1="305" x2="508" y2="305"/>
    <line x1="405" y1="2" x2="405" y2="8"/>
    <line x1="2" y1="405" x2="8" y2="405"/>
    <line x1="405" y1="502" x2="405" y2="508"/>
    <line x1="502" y1="405" x2="508" y2="405"/>
  </g>
  <g stroke="gray" stroke-width="1" stroke-dasharray="5,5">
    <line x1="105" y1="5" x2="105" y2="505"/>
    <line x1="5" y1="105" x2="505" y2="105"/>
    <line x1="205" y1="5" x2="205" y2="505"/>
    <line x1="5" y1="205" x2="505" y2="205"/>
    <line x1="305" y1="5" x2="305" y2="505"/>
    <line x1="5" y1="305" x2="505" y2="305"/>
    <line x1="405" y1="5" x2="405" y2="505"/>
    <line x1="5" y1="405" x2="505" y2="405"/>
  </g>
</svg>
