<?xml version="1.0" standalone="no"?>
<!DOCTYPE svg PUBLIC "-//W3C//DTD SVG 1.1//EN" 
  "http://www.w3.org/Graphics/SVG/1.1/DTD/svg11.dtd">
<svg width="510" height="510" version="1.1" id="toplevel"
    xmlns="http://www.w3.org/2000/svg"
    xmlns:xlink="http://www.w3.org/1999/xlink">
  <polygon points="253,376 384,262 384,204 255,78 180,81 185,209 254,207 254,244 143,228 126,347 127,347 126,355 127,355 126,359"
           fill="bisque"/>
  <g stroke="chocolate" stroke-width="1">
    <line x1="254" y1="244" x2="254" y2="207"/>
    <circle cx="254" cy="244" r="2"/>
    <circle cx="254" cy="207" r="2"/>
  </g>
  <g stroke="chocolate" stroke-width="1">
    <line x1="254" y1="365" x2="254" y2="244"/>
    <circle cx="254" cy="365" r="2"/>
    <circle cx="254" cy="244" r="2"/>
  </g>
  <g stroke="chocolate" stroke-width="1">
    <line x1="254" y1="244" x2="143" y2="228"/>
    <circle cx="254" cy="244" r="2"/>
    <circle cx="143" cy="228" r="2"/>
  </g>
  <g stroke="chocolate" stroke-width="1">
    <line x1="256" y1="244" x2="254" y2="244"/>
    <circle cx="256" cy="244" r="2"/>
    <circle cx="254" cy="244" r="2"/>
  </g>
  <g stroke="chocolate" stroke-width="1">
    <line x1="256" y1="85" x2="261" y2="85"/>
    <circle cx="256" cy="85" r="2"/>
    <circle cx="261" cy="85" r="2"/>
  </g>
  <g stroke="chocolate" stroke-width="1">
    <line x1="255" y1="85" x2="256" y2="85"/>
    <circle cx="255" cy="85" r="2"/>
    <circle cx="256" cy="85" r="2"/>
  </g>
  <g stroke="chocolate" stroke-width="1">
    <line x1="256" y1="85" x2="256" y2="80"/>
    <circle cx="256" cy="85" r="2"/>
    <circle cx="256" cy="80" r="2"/>
  </g>
  <g stroke="chocolate" stroke-width="1">
    <line x1="256" y1="207" x2="256" y2="85"/>
    <circle cx="256" cy="207" r="2"/>
    <circle cx="256" cy="85" r="2"/>
  </g>
  <g stroke="chocolate" stroke-width="1">
    <line x1="254" y1="207" x2="255" y2="85"/>
    <circle cx="254" cy="207" r="2"/>
    <circle cx="255" cy="85" r="2"/>
  </g>
  <g stroke="chocolate" stroke-width="1">
    <line x1="254" y1="207" x2="256" y2="207"/>
    <circle cx="254" cy="207" r="2"/>
    <circle cx="256" cy="207" r="2"/>
  </g>
  <g stroke="chocolate" stroke-width="1">
    <line x1="185" y1="209" x2="254" y2="207"/>
    <circle cx="185" cy="209" r="2"/>
    <circle cx="254" cy="207" r="2"/>
  </g>
  <g stroke="chocolate" stroke-width="1">
    <line x1="127" y1="347" x2="138" y2="269"/>
    <circle cx="127" cy="347" r="2"/>
    <circle cx="138" cy="269" r="2"/>
  </g>
  <g stroke="chocolate" stroke-width="1">
    <line x1="126" y1="355" x2="127" y2="347"/>
    <circle cx="126" cy="355" r="2"/>
    <circle cx="127" cy="347" r="2"/>
  </g>
  <g stroke="chocolate" stroke-width="1">
    <line x1="127" y1="347" x2="126" y2="347"/>
    <circle cx="127" cy="347" r="2"/>
    <circle cx="126" cy="347" r="2"/>
  </g>
  <g stroke="chocolate" stroke-width="1">
    <line x1="128" y1="347" x2="127" y2="347"/>
    <circle cx="128" cy="347" r="2"/>
    <circle cx="127" cy="347" r="2"/>
  </g>
  <g stroke="chocolate" stroke-width="1">
    <line x1="253" y1="373" x2="254" y2="365"/>
    <circle cx="253" cy="373" r="2"/>
    <circle cx="254" cy="365" r="2"/>
  </g>
  <g stroke="chocolate" stroke-width="1">
    <line x1="254" y1="365" x2="128" y2="347"/>
    <circle cx="254" cy="365" r="2"/>
    <circle cx="128" cy="347" r="2"/>
  </g>
  <g stroke="chocolate" stroke-width="1">
    <line x1="256" y1="366" x2="254" y2="365"/>
    <circle cx="256" cy="366" r="2"/>
    <circle cx="254" cy="365" r="2"/>
  </g>
  <g stroke="chocolate" stroke-width="1">
    <line x1="256" y1="244" x2="256" y2="207"/>
    <circle cx="256" cy="244" r="2"/>
    <circle cx="256" cy="207" r="2"/>
  </g>
  <g stroke="chocolate" stroke-width="1">
    <line x1="256" y1="366" x2="256" y2="244"/>
    <circle cx="256" cy="366" r="2"/>
    <circle cx="256" cy="244" r="2"/>
  </g>
  <g stroke="chocolate" stroke-width="1">
    <line x1="263" y1="245" x2="256" y2="244"/>
    <circle cx="263" cy="245" r="2"/>
    <circle cx="256" cy="244" r="2"/>
  </g>
  <g stroke="chocolate" stroke-width="1">
    <line x1="262" y1="207" x2="384" y2="204"/>
    <circle cx="262" cy="207" r="2"/>
    <circle cx="384" cy="204" r="2"/>
  </g>
  <g stroke="chocolate" stroke-width="1">
    <line x1="256" y1="207" x2="262" y2="207"/>
    <circle cx="256" cy="207" r="2"/>
    <circle cx="262" cy="207" r="2"/>
  </g>
  <g stroke="chocolate" stroke-width="1">
    <line x1="262" y1="207" x2="261" y2="85"/>
    <circle cx="262" cy="207" r="2"/>
    <circle cx="261" cy="85" r="2"/>
  </g>
  <g stroke="chocolate" stroke-width="1">
    <line x1="263" y1="245" x2="262" y2="207"/>
    <circle cx="263" cy="245" r="2"/>
    <circle cx="262" cy="207" r="2"/>
  </g>
  <g stroke="chocolate" stroke-width="1">
    <line x1="127" y1="355" x2="128" y2="347"/>
    <circle cx="127" cy="355" r="2"/>
    <circle cx="128" cy="347" r="2"/>
  </g>
  <g stroke="chocolate" stroke-width="1">
    <line x1="126" y1="359" x2="127" y2="355"/>
    <circle cx="126" cy="359" r="2"/>
    <circle cx="127" cy="355" r="2"/>
  </g>
  <g stroke="chocolate" stroke-width="1">
    <line x1="127" y1="355" x2="126" y2="355"/>
    <circle cx="127" cy="355" r="2"/>
    <circle cx="126" cy="355" r="2"/>
  </g>
  <g stroke="chocolate" stroke-width="1">
    <line x1="253" y1="373" x2="127" y2="355"/>
    <circle cx="253" cy="373" r="2"/>
    <circle cx="127" cy="355" r="2"/>
  </g>
  <g stroke="chocolate" stroke-width="1">
    <line x1="255" y1="80" x2="255" y2="78"/>
    <circle cx="255" cy="80" r="2"/>
    <circle cx="255" cy="78" r="2"/>
  </g>
  <g stroke="chocolate" stroke-width="1">
    <line x1="255" y1="85" x2="255" y2="80"/>
    <circle cx="255" cy="85" r="2"/>
    <circle cx="255" cy="80" r="2"/>
  </g>
  <g stroke="chocolate" stroke-width="1">
    <line x1="255" y1="80" x2="256" y2="80"/>
    <circle cx="255" cy="80" r="2"/>
    <circle cx="256" cy="80" r="2"/>
  </g>
  <g stroke="chocolate" stroke-width="1">
    <line x1="181" y1="83" x2="255" y2="80"/>
    <circle cx="181" cy="83" r="2"/>
    <circle cx="255" cy="80" r="2"/>
  </g>
  <g stroke="chocolate" stroke-width="1">
    <line x1="182" y1="87" x2="255" y2="85"/>
    <circle cx="182" cy="87" r="2"/>
    <circle cx="255" cy="85" r="2"/>
  </g>
  <g stroke="chocolate" stroke-width="1">
    <line x1="138" y1="269" x2="144" y2="228"/>
    <circle cx="138" cy="269" r="2"/>
    <circle cx="144" cy="228" r="2"/>
  </g>
  <g stroke="chocolate" stroke-width="1">
    <line x1="126" y1="347" x2="138" y2="269"/>
    <circle cx="126" cy="347" r="2"/>
    <circle cx="138" cy="269" r="2"/>
  </g>
  <g stroke="chocolate" stroke-width="1">
    <line x1="138" y1="269" x2="143" y2="228"/>
    <circle cx="138" cy="269" r="2"/>
    <circle cx="143" cy="228" r="2"/>
  </g>
  <g stroke="chocolate" stroke-width="1">
    <line x1="128" y1="347" x2="144" y2="228"/>
    <circle cx="128" cy="347" r="2"/>
    <circle cx="144" cy="228" r="2"/>
  </g>
  <g stroke="chocolate" stroke-width="1">
    <line x1="384" y1="262" x2="263" y2="245"/>
    <circle cx="384" cy="262" r="2"/>
    <circle cx="263" cy="245" r="2"/>
  </g>
  <g stroke="chocolate" stroke-width="1">
    <line x1="264" y1="367" x2="263" y2="245"/>
    <circle cx="264" cy="367" r="2"/>
    <circle cx="263" cy="245" r="2"/>
  </g>
  <g stroke="chocolate" stroke-width="1">
    <line x1="256" y1="373" x2="253" y2="373"/>
    <circle cx="256" cy="373" r="2"/>
    <circle cx="253" cy="373" r="2"/>
  </g>
  <g stroke="chocolate" stroke-width="1">
    <line x1="253" y1="376" x2="253" y2="373"/>
    <circle cx="253" cy="376" r="2"/>
    <circle cx="253" cy="373" r="2"/>
  </g>
  <g stroke="chocolate" stroke-width="1">
    <line x1="264" y1="367" x2="256" y2="366"/>
    <circle cx="264" cy="367" r="2"/>
    <circle cx="256" cy="366" r="2"/>
  </g>
  <g stroke="chocolate" stroke-width="1">
    <line x1="256" y1="373" x2="256" y2="366"/>
    <circle cx="256" cy="373" r="2"/>
    <circle cx="256" cy="366" r="2"/>
  </g>
  <g stroke="chocolate" stroke-width="1">
    <line x1="184" y1="167" x2="182" y2="87"/>
    <circle cx="184" cy="167" r="2"/>
    <circle cx="182" cy="87" r="2"/>
  </g>
  <g stroke="chocolate" stroke-width="1">
    <line x1="185" y1="209" x2="184" y2="167"/>
    <circle cx="185" cy="209" r="2"/>
    <circle cx="184" cy="167" r="2"/>
  </g>
  <g stroke="chocolate" stroke-width="1">
    <line x1="184" y1="167" x2="181" y2="83"/>
    <circle cx="184" cy="167" r="2"/>
    <circle cx="181" cy="83" r="2"/>
  </g>
  <g stroke="chocolate" stroke-width="1">
    <line x1="185" y1="209" x2="184" y2="167"/>
    <circle cx="185" cy="209" r="2"/>
    <circle cx="184" cy="167" r="2"/>
  </g>
  <g stroke="chocolate" stroke-width="1">
    <line x1="180" y1="81" x2="255" y2="78"/>
    <circle cx="180" cy="81" r="2"/>
    <circle cx="255" cy="78" r="2"/>
  </g>
  <g stroke="chocolate" stroke-width="1">
    <line x1="384" y1="204" x2="255" y2="78"/>
    <circle cx="384" cy="204" r="2"/>
    <circle cx="255" cy="78" r="2"/>
  </g>
  <g stroke="chocolate" stroke-width="1">
    <line x1="253" y1="376" x2="126" y2="359"/>
    <circle cx="253" cy="376" r="2"/>
    <circle cx="126" cy="359" r="2"/>
  </g>
  <g stroke="chocolate" stroke-width="1">
    <line x1="253" y1="376" x2="384" y2="262"/>
    <circle cx="253" cy="376" r="2"/>
    <circle cx="384" cy="262" r="2"/>
  </g>
  <g stroke="chocolate" stroke-width="1">
    <line x1="126" y1="347" x2="143" y2="228"/>
    <circle cx="126" cy="347" r="2"/>
    <circle cx="143" cy="228" r="2"/>
  </g>
  <g stroke="chocolate" stroke-width="1">
    <line x1="384" y1="262" x2="384" y2="204"/>
    <circle cx="384" cy="262" r="2"/>
    <circle cx="384" cy="204" r="2"/>
  </g>
  <g stroke="chocolate" stroke-width="1">
    <line x1="185" y1="209" x2="182" y2="87"/>
    <circle cx="185" cy="209" r="2"/>
    <circle cx="182" cy="87" r="2"/>
  </g>
  <g stroke="chocolate" stroke-width="1">
    <line x1="185" y1="209" x2="180" y2="81"/>
    <circle cx="185" cy="209" r="2"/>
    <circle cx="180" cy="81" r="2"/>
  </g>
  <g stroke="black" stroke-width="1">
    <line x1="5" y1="5" x2="505" y2="5"/>
    <line x1="5" y1="5" x2="5" y2="505"/>
    <line x1="505" y1="505" x2="5" y2="505"/>
    <line x1="505" y1="505" x2="505" y2="5"/>
    <line x1="105" y1="2" x2="105" y2="8"/>
    <line x1="2" y1="105" x2="8" y2="105"/>
    <line x1="105" y1="502" x2="105" y2="508"/>
    <line x1="502" y1="105" x2="508" y2="105"/>
    <line x1="205" y1="2" x2="205" y2="8"/>
    <line x1="2" y1="205" x2="8" y2="205"/>
    <line x1="205" y1="502" x2="205" y2="508"/>
    <line x1="502" y1="205" x2="508" y2="205"/>
    <line x1="305" y1="2" x2="305" y2="8"/>
    <line x1="2" y1="305" x2="8" y2="305"/>
    <line x1="305" y1="502" x2="305" y2="508"/>
    <line x1="502" y1="305" x2="508" y2="305"/>
    <line x1="405" y1="2" x2="405" y2="8"/>
    <line x1="2" y1="405" x2="8" y2="405"/>
    <line x1="405" y1="502" x2="405" y2="508"/>
    <line x1="502" y1="405" x2="508" y2="405"/>
  </g>
  <g stroke="gray" stroke-width="1" stroke-dasharray="5,5">
    <line x1="105" y1="5" x2="105" y2="505"/>
    <line x1="5" y1="105" x2="505" y2="105"/>
    <line x1="205" y1="5" x2="205" y2="505"/>
    <line x1="5" y1="205" x2="505" y2="205"/>
    <line x1="305" y1="5" x2="305" y2="505"/>
    <line x1="5" y1="305" x2="505" y2="305"/>
    <line x1="405" y1="5" x2="405" y2="505"/>
    <line x1="5" y1="405" x2="505" y2="405"/>
  </g>
</svg>
