<?xml version="1.0" standalone="no"?>
<!DOCTYPE svg PUBLIC "-//W3C//DTD SVG 1.1//EN" 
  "http://www.w3.org/Graphics/SVG/1.1/DTD/svg11.dtd">
<svg width="510" height="510" version="1.1" id="toplevel"
    xmlns="http://www.w3.org/2000/svg"
    xmlns:xlink="http://www.w3.org/1999/xlink">
  <polygon points="323,331 492,291 480,235 478,235 477,230 477,231 472,214 404,231 428,188 322,126 248,169 247,271"
           fill="bisque"/>
  <polygon points="322,252 322,211 373,239" fill="bisque"/>
  <g stroke="chocolate" stroke-width="1">
    <line x1="373" y1="239" x2="322" y2="211"/>
    <circle cx="373" cy="239" r="2"/>
    <circle cx="322" cy="211" r="2"/>
  </g>
  <g stroke="chocolate" stroke-width="1">
    <line x1="390" y1="248" x2="373" y2="239"/>
    <circle cx="390" cy="248" r="2"/>
    <circle cx="373" cy="239" r="2"/>
  </g>
  <g stroke="chocolate" stroke-width="1">
    <line x1="373" y1="239" x2="384" y2="236"/>
    <circle cx="373" cy="239" r="2"/>
    <circle cx="384" cy="236" r="2"/>
  </g>
  <g stroke="chocolate" stroke-width="1">
    <line x1="322" y1="252" x2="373" y2="239"/>
    <circle cx="322" cy="252" r="2"/>
    <circle cx="373" cy="239" r="2"/>
  </g>
  <g stroke="chocolate" stroke-width="1">
    <line x1="322" y1="211" x2="263" y2="177"/>
    <circle cx="322" cy="211" r="2"/>
    <circle cx="263" cy="177" r="2"/>
  </g>
  <g stroke="chocolate" stroke-width="1">
    <line x1="322" y1="211" x2="322" y2="199"/>
    <circle cx="322" cy="211" r="2"/>
    <circle cx="322" cy="199" r="2"/>
  </g>
  <g stroke="chocolate" stroke-width="1">
    <line x1="322" y1="252" x2="322" y2="211"/>
    <circle cx="322" cy="252" r="2"/>
    <circle cx="322" cy="211" r="2"/>
  </g>
  <g stroke="chocolate" stroke-width="1">
    <line x1="262" y1="267" x2="262" y2="267"/>
    <circle cx="262" cy="267" r="2"/>
    <circle cx="262" cy="267" r="2"/>
  </g>
  <g stroke="chocolate" stroke-width="1">
    <line x1="261" y1="268" x2="262" y2="267"/>
    <circle cx="261" cy="268" r="2"/>
    <circle cx="262" cy="267" r="2"/>
  </g>
  <g stroke="chocolate" stroke-width="1">
    <line x1="262" y1="267" x2="262" y2="248"/>
    <circle cx="262" cy="267" r="2"/>
    <circle cx="262" cy="248" r="2"/>
  </g>
  <g stroke="chocolate" stroke-width="1">
    <line x1="262" y1="282" x2="262" y2="267"/>
    <circle cx="262" cy="282" r="2"/>
    <circle cx="262" cy="267" r="2"/>
  </g>
  <g stroke="chocolate" stroke-width="1">
    <line x1="263" y1="164" x2="263" y2="163"/>
    <circle cx="263" cy="164" r="2"/>
    <circle cx="263" cy="163" r="2"/>
  </g>
  <g stroke="chocolate" stroke-width="1">
    <line x1="322" y1="199" x2="263" y2="164"/>
    <circle cx="322" cy="199" r="2"/>
    <circle cx="263" cy="164" r="2"/>
  </g>
  <g stroke="chocolate" stroke-width="1">
    <line x1="263" y1="164" x2="263" y2="160"/>
    <circle cx="263" cy="164" r="2"/>
    <circle cx="263" cy="160" r="2"/>
  </g>
  <g stroke="chocolate" stroke-width="1">
    <line x1="263" y1="177" x2="263" y2="164"/>
    <circle cx="263" cy="177" r="2"/>
    <circle cx="263" cy="164" r="2"/>
  </g>
  <g stroke="chocolate" stroke-width="1">
    <line x1="322" y1="194" x2="263" y2="160"/>
    <circle cx="322" cy="194" r="2"/>
    <circle cx="263" cy="160" r="2"/>
  </g>
  <g stroke="chocolate" stroke-width="1">
    <line x1="392" y1="234" x2="322" y2="194"/>
    <circle cx="392" cy="234" r="2"/>
    <circle cx="322" cy="194" r="2"/>
  </g>
  <g stroke="chocolate" stroke-width="1">
    <line x1="322" y1="194" x2="322" y2="192"/>
    <circle cx="322" cy="194" r="2"/>
    <circle cx="322" cy="192" r="2"/>
  </g>
  <g stroke="chocolate" stroke-width="1">
    <line x1="322" y1="199" x2="322" y2="194"/>
    <circle cx="322" cy="199" r="2"/>
    <circle cx="322" cy="194" r="2"/>
  </g>
  <g stroke="chocolate" stroke-width="1">
    <line x1="396" y1="233" x2="398" y2="232"/>
    <circle cx="396" cy="233" r="2"/>
    <circle cx="398" cy="232" r="2"/>
  </g>
  <g stroke="chocolate" stroke-width="1">
    <line x1="392" y1="234" x2="396" y2="233"/>
    <circle cx="392" cy="234" r="2"/>
    <circle cx="396" cy="233" r="2"/>
  </g>
  <g stroke="chocolate" stroke-width="1">
    <line x1="396" y1="233" x2="322" y2="192"/>
    <circle cx="396" cy="233" r="2"/>
    <circle cx="322" cy="192" r="2"/>
  </g>
  <g stroke="chocolate" stroke-width="1">
    <line x1="398" y1="234" x2="396" y2="233"/>
    <circle cx="398" cy="234" r="2"/>
    <circle cx="396" cy="233" r="2"/>
  </g>
  <g stroke="chocolate" stroke-width="1">
    <line x1="399" y1="234" x2="398" y2="234"/>
    <circle cx="399" cy="234" r="2"/>
    <circle cx="398" cy="234" r="2"/>
  </g>
  <g stroke="chocolate" stroke-width="1">
    <line x1="399" y1="234" x2="399" y2="234"/>
    <circle cx="399" cy="234" r="2"/>
    <circle cx="399" cy="234" r="2"/>
  </g>
  <g stroke="chocolate" stroke-width="1">
    <line x1="399" y1="234" x2="400" y2="232"/>
    <circle cx="399" cy="234" r="2"/>
    <circle cx="400" cy="232" r="2"/>
  </g>
  <g stroke="chocolate" stroke-width="1">
    <line x1="397" y1="237" x2="399" y2="234"/>
    <circle cx="397" cy="237" r="2"/>
    <circle cx="399" cy="234" r="2"/>
  </g>
  <g stroke="chocolate" stroke-width="1">
    <line x1="400" y1="232" x2="400" y2="232"/>
    <circle cx="400" cy="232" r="2"/>
    <circle cx="400" cy="232" r="2"/>
  </g>
  <g stroke="chocolate" stroke-width="1">
    <line x1="400" y1="232" x2="400" y2="232"/>
    <circle cx="400" cy="232" r="2"/>
    <circle cx="400" cy="232" r="2"/>
  </g>
  <g stroke="chocolate" stroke-width="1">
    <line x1="400" y1="232" x2="401" y2="230"/>
    <circle cx="400" cy="232" r="2"/>
    <circle cx="401" cy="230" r="2"/>
  </g>
  <g stroke="chocolate" stroke-width="1">
    <line x1="399" y1="234" x2="400" y2="232"/>
    <circle cx="399" cy="234" r="2"/>
    <circle cx="400" cy="232" r="2"/>
  </g>
  <g stroke="chocolate" stroke-width="1">
    <line x1="401" y1="232" x2="404" y2="231"/>
    <circle cx="401" cy="232" r="2"/>
    <circle cx="404" cy="231" r="2"/>
  </g>
  <g stroke="chocolate" stroke-width="1">
    <line x1="400" y1="232" x2="401" y2="232"/>
    <circle cx="400" cy="232" r="2"/>
    <circle cx="401" cy="232" r="2"/>
  </g>
  <g stroke="chocolate" stroke-width="1">
    <line x1="401" y1="232" x2="407" y2="222"/>
    <circle cx="401" cy="232" r="2"/>
    <circle cx="407" cy="222" r="2"/>
  </g>
  <g stroke="chocolate" stroke-width="1">
    <line x1="399" y1="235" x2="401" y2="232"/>
    <circle cx="399" cy="235" r="2"/>
    <circle cx="401" cy="232" r="2"/>
  </g>
  <g stroke="chocolate" stroke-width="1">
    <line x1="478" y1="235" x2="477" y2="231"/>
    <circle cx="478" cy="235" r="2"/>
    <circle cx="477" cy="231" r="2"/>
  </g>
  <g stroke="chocolate" stroke-width="1">
    <line x1="483" y1="254" x2="478" y2="235"/>
    <circle cx="483" cy="254" r="2"/>
    <circle cx="478" cy="235" r="2"/>
  </g>
  <g stroke="chocolate" stroke-width="1">
    <line x1="478" y1="235" x2="478" y2="235"/>
    <circle cx="478" cy="235" r="2"/>
    <circle cx="478" cy="235" r="2"/>
  </g>
  <g stroke="chocolate" stroke-width="1">
    <line x1="476" y1="236" x2="478" y2="235"/>
    <circle cx="476" cy="236" r="2"/>
    <circle cx="478" cy="235" r="2"/>
  </g>
  <g stroke="chocolate" stroke-width="1">
    <line x1="478" y1="235" x2="480" y2="235"/>
    <circle cx="478" cy="235" r="2"/>
    <circle cx="480" cy="235" r="2"/>
  </g>
  <g stroke="chocolate" stroke-width="1">
    <line x1="478" y1="235" x2="478" y2="235"/>
    <circle cx="478" cy="235" r="2"/>
    <circle cx="478" cy="235" r="2"/>
  </g>
  <g stroke="chocolate" stroke-width="1">
    <line x1="478" y1="235" x2="477" y2="230"/>
    <circle cx="478" cy="235" r="2"/>
    <circle cx="477" cy="230" r="2"/>
  </g>
  <g stroke="chocolate" stroke-width="1">
    <line x1="481" y1="245" x2="478" y2="235"/>
    <circle cx="481" cy="245" r="2"/>
    <circle cx="478" cy="235" r="2"/>
  </g>
  <g stroke="chocolate" stroke-width="1">
    <line x1="391" y1="249" x2="390" y2="248"/>
    <circle cx="391" cy="249" r="2"/>
    <circle cx="390" cy="248" r="2"/>
  </g>
  <g stroke="chocolate" stroke-width="1">
    <line x1="390" y1="248" x2="392" y2="248"/>
    <circle cx="390" cy="248" r="2"/>
    <circle cx="392" cy="248" r="2"/>
  </g>
  <g stroke="chocolate" stroke-width="1">
    <line x1="322" y1="266" x2="390" y2="248"/>
    <circle cx="322" cy="266" r="2"/>
    <circle cx="390" cy="248" r="2"/>
  </g>
  <g stroke="chocolate" stroke-width="1">
    <line x1="262" y1="267" x2="322" y2="252"/>
    <circle cx="262" cy="267" r="2"/>
    <circle cx="322" cy="252" r="2"/>
  </g>
  <g stroke="chocolate" stroke-width="1">
    <line x1="262" y1="267" x2="263" y2="198"/>
    <circle cx="262" cy="267" r="2"/>
    <circle cx="263" cy="198" r="2"/>
  </g>
  <g stroke="chocolate" stroke-width="1">
    <line x1="262" y1="282" x2="262" y2="267"/>
    <circle cx="262" cy="282" r="2"/>
    <circle cx="262" cy="267" r="2"/>
  </g>
  <g stroke="chocolate" stroke-width="1">
    <line x1="322" y1="266" x2="322" y2="252"/>
    <circle cx="322" cy="266" r="2"/>
    <circle cx="322" cy="252" r="2"/>
  </g>
  <g stroke="chocolate" stroke-width="1">
    <line x1="263" y1="283" x2="322" y2="270"/>
    <circle cx="263" cy="283" r="2"/>
    <circle cx="322" cy="270" r="2"/>
  </g>
  <g stroke="chocolate" stroke-width="1">
    <line x1="262" y1="284" x2="263" y2="283"/>
    <circle cx="262" cy="284" r="2"/>
    <circle cx="263" cy="283" r="2"/>
  </g>
  <g stroke="chocolate" stroke-width="1">
    <line x1="263" y1="283" x2="322" y2="269"/>
    <circle cx="263" cy="283" r="2"/>
    <circle cx="322" cy="269" r="2"/>
  </g>
  <g stroke="chocolate" stroke-width="1">
    <line x1="262" y1="284" x2="263" y2="283"/>
    <circle cx="262" cy="284" r="2"/>
    <circle cx="263" cy="283" r="2"/>
  </g>
  <g stroke="chocolate" stroke-width="1">
    <line x1="322" y1="270" x2="476" y2="236"/>
    <circle cx="322" cy="270" r="2"/>
    <circle cx="476" cy="236" r="2"/>
  </g>
  <g stroke="chocolate" stroke-width="1">
    <line x1="322" y1="270" x2="322" y2="269"/>
    <circle cx="322" cy="270" r="2"/>
    <circle cx="322" cy="269" r="2"/>
  </g>
  <g stroke="chocolate" stroke-width="1">
    <line x1="323" y1="331" x2="322" y2="270"/>
    <circle cx="323" cy="331" r="2"/>
    <circle cx="322" cy="270" r="2"/>
  </g>
  <g stroke="chocolate" stroke-width="1">
    <line x1="263" y1="163" x2="260" y2="162"/>
    <circle cx="263" cy="163" r="2"/>
    <circle cx="260" cy="162" r="2"/>
  </g>
  <g stroke="chocolate" stroke-width="1">
    <line x1="263" y1="163" x2="263" y2="160"/>
    <circle cx="263" cy="163" r="2"/>
    <circle cx="263" cy="160" r="2"/>
  </g>
  <g stroke="chocolate" stroke-width="1">
    <line x1="263" y1="177" x2="263" y2="163"/>
    <circle cx="263" cy="177" r="2"/>
    <circle cx="263" cy="163" r="2"/>
  </g>
  <g stroke="chocolate" stroke-width="1">
    <line x1="262" y1="282" x2="262" y2="282"/>
    <circle cx="262" cy="282" r="2"/>
    <circle cx="262" cy="282" r="2"/>
  </g>
  <g stroke="chocolate" stroke-width="1">
    <line x1="261" y1="283" x2="262" y2="282"/>
    <circle cx="261" cy="283" r="2"/>
    <circle cx="262" cy="282" r="2"/>
  </g>
  <g stroke="chocolate" stroke-width="1">
    <line x1="262" y1="284" x2="262" y2="282"/>
    <circle cx="262" cy="284" r="2"/>
    <circle cx="262" cy="282" r="2"/>
  </g>
  <g stroke="chocolate" stroke-width="1">
    <line x1="263" y1="177" x2="263" y2="177"/>
    <circle cx="263" cy="177" r="2"/>
    <circle cx="263" cy="177" r="2"/>
  </g>
  <g stroke="chocolate" stroke-width="1">
    <line x1="263" y1="198" x2="263" y2="177"/>
    <circle cx="263" cy="198" r="2"/>
    <circle cx="263" cy="177" r="2"/>
  </g>
  <g stroke="chocolate" stroke-width="1">
    <line x1="384" y1="236" x2="392" y2="234"/>
    <circle cx="384" cy="236" r="2"/>
    <circle cx="392" cy="234" r="2"/>
  </g>
  <g stroke="chocolate" stroke-width="1">
    <line x1="396" y1="236" x2="392" y2="234"/>
    <circle cx="396" cy="236" r="2"/>
    <circle cx="392" cy="234" r="2"/>
  </g>
  <g stroke="chocolate" stroke-width="1">
    <line x1="322" y1="192" x2="322" y2="126"/>
    <circle cx="322" cy="192" r="2"/>
    <circle cx="322" cy="126" r="2"/>
  </g>
  <g stroke="chocolate" stroke-width="1">
    <line x1="322" y1="192" x2="263" y2="160"/>
    <circle cx="322" cy="192" r="2"/>
    <circle cx="263" cy="160" r="2"/>
  </g>
  <g stroke="chocolate" stroke-width="1">
    <line x1="398" y1="234" x2="399" y2="232"/>
    <circle cx="398" cy="234" r="2"/>
    <circle cx="399" cy="232" r="2"/>
  </g>
  <g stroke="chocolate" stroke-width="1">
    <line x1="396" y1="236" x2="398" y2="234"/>
    <circle cx="396" cy="236" r="2"/>
    <circle cx="398" cy="234" r="2"/>
  </g>
  <g stroke="chocolate" stroke-width="1">
    <line x1="398" y1="234" x2="398" y2="234"/>
    <circle cx="398" cy="234" r="2"/>
    <circle cx="398" cy="234" r="2"/>
  </g>
  <g stroke="chocolate" stroke-width="1">
    <line x1="400" y1="232" x2="403" y2="228"/>
    <circle cx="400" cy="232" r="2"/>
    <circle cx="403" cy="228" r="2"/>
  </g>
  <g stroke="chocolate" stroke-width="1">
    <line x1="399" y1="234" x2="400" y2="232"/>
    <circle cx="399" cy="234" r="2"/>
    <circle cx="400" cy="232" r="2"/>
  </g>
  <g stroke="chocolate" stroke-width="1">
    <line x1="400" y1="232" x2="400" y2="232"/>
    <circle cx="400" cy="232" r="2"/>
    <circle cx="400" cy="232" r="2"/>
  </g>
  <g stroke="chocolate" stroke-width="1">
    <line x1="400" y1="232" x2="411" y2="214"/>
    <circle cx="400" cy="232" r="2"/>
    <circle cx="411" cy="214" r="2"/>
  </g>
  <g stroke="chocolate" stroke-width="1">
    <line x1="399" y1="232" x2="400" y2="232"/>
    <circle cx="399" cy="232" r="2"/>
    <circle cx="400" cy="232" r="2"/>
  </g>
  <g stroke="chocolate" stroke-width="1">
    <line x1="401" y1="230" x2="403" y2="228"/>
    <circle cx="401" cy="230" r="2"/>
    <circle cx="403" cy="228" r="2"/>
  </g>
  <g stroke="chocolate" stroke-width="1">
    <line x1="401" y1="230" x2="411" y2="214"/>
    <circle cx="401" cy="230" r="2"/>
    <circle cx="411" cy="214" r="2"/>
  </g>
  <g stroke="chocolate" stroke-width="1">
    <line x1="400" y1="232" x2="401" y2="230"/>
    <circle cx="400" cy="232" r="2"/>
    <circle cx="401" cy="230" r="2"/>
  </g>
  <g stroke="chocolate" stroke-width="1">
    <line x1="399" y1="234" x2="400" y2="232"/>
    <circle cx="399" cy="234" r="2"/>
    <circle cx="400" cy="232" r="2"/>
  </g>
  <g stroke="chocolate" stroke-width="1">
    <line x1="397" y1="237" x2="399" y2="234"/>
    <circle cx="397" cy="237" r="2"/>
    <circle cx="399" cy="234" r="2"/>
  </g>
  <g stroke="chocolate" stroke-width="1">
    <line x1="399" y1="234" x2="399" y2="234"/>
    <circle cx="399" cy="234" r="2"/>
    <circle cx="399" cy="234" r="2"/>
  </g>
  <g stroke="chocolate" stroke-width="1">
    <line x1="399" y1="234" x2="399" y2="234"/>
    <circle cx="399" cy="234" r="2"/>
    <circle cx="399" cy="234" r="2"/>
  </g>
  <g stroke="chocolate" stroke-width="1">
    <line x1="392" y1="248" x2="399" y2="235"/>
    <circle cx="392" cy="248" r="2"/>
    <circle cx="399" cy="235" r="2"/>
  </g>
  <g stroke="chocolate" stroke-width="1">
    <line x1="399" y1="235" x2="399" y2="234"/>
    <circle cx="399" cy="235" r="2"/>
    <circle cx="399" cy="234" r="2"/>
  </g>
  <g stroke="chocolate" stroke-width="1">
    <line x1="401" y1="236" x2="399" y2="235"/>
    <circle cx="401" cy="236" r="2"/>
    <circle cx="399" cy="235" r="2"/>
  </g>
  <g stroke="chocolate" stroke-width="1">
    <line x1="403" y1="228" x2="415" y2="207"/>
    <circle cx="403" cy="228" r="2"/>
    <circle cx="415" cy="207" r="2"/>
  </g>
  <g stroke="chocolate" stroke-width="1">
    <line x1="403" y1="228" x2="407" y2="222"/>
    <circle cx="403" cy="228" r="2"/>
    <circle cx="407" cy="222" r="2"/>
  </g>
  <g stroke="chocolate" stroke-width="1">
    <line x1="398" y1="232" x2="426" y2="187"/>
    <circle cx="398" cy="232" r="2"/>
    <circle cx="426" cy="187" r="2"/>
  </g>
  <g stroke="chocolate" stroke-width="1">
    <line x1="398" y1="234" x2="398" y2="232"/>
    <circle cx="398" cy="234" r="2"/>
    <circle cx="398" cy="232" r="2"/>
  </g>
  <g stroke="chocolate" stroke-width="1">
    <line x1="398" y1="232" x2="399" y2="232"/>
    <circle cx="398" cy="232" r="2"/>
    <circle cx="399" cy="232" r="2"/>
  </g>
  <g stroke="chocolate" stroke-width="1">
    <line x1="261" y1="268" x2="262" y2="248"/>
    <circle cx="261" cy="268" r="2"/>
    <circle cx="262" cy="248" r="2"/>
  </g>
  <g stroke="chocolate" stroke-width="1">
    <line x1="261" y1="283" x2="261" y2="268"/>
    <circle cx="261" cy="283" r="2"/>
    <circle cx="261" cy="268" r="2"/>
  </g>
  <g stroke="chocolate" stroke-width="1">
    <line x1="247" y1="271" x2="261" y2="268"/>
    <circle cx="247" cy="271" r="2"/>
    <circle cx="261" cy="268" r="2"/>
  </g>
  <g stroke="chocolate" stroke-width="1">
    <line x1="477" y1="231" x2="472" y2="214"/>
    <circle cx="477" cy="231" r="2"/>
    <circle cx="472" cy="214" r="2"/>
  </g>
  <g stroke="chocolate" stroke-width="1">
    <line x1="477" y1="231" x2="477" y2="230"/>
    <circle cx="477" cy="231" r="2"/>
    <circle cx="477" cy="230" r="2"/>
  </g>
  <g stroke="chocolate" stroke-width="1">
    <line x1="475" y1="231" x2="477" y2="231"/>
    <circle cx="475" cy="231" r="2"/>
    <circle cx="477" cy="231" r="2"/>
  </g>
  <g stroke="chocolate" stroke-width="1">
    <line x1="476" y1="236" x2="475" y2="231"/>
    <circle cx="476" cy="236" r="2"/>
    <circle cx="475" cy="231" r="2"/>
  </g>
  <g stroke="chocolate" stroke-width="1">
    <line x1="491" y1="291" x2="476" y2="236"/>
    <circle cx="491" cy="291" r="2"/>
    <circle cx="476" cy="236" r="2"/>
  </g>
  <g stroke="chocolate" stroke-width="1">
    <line x1="484" y1="258" x2="481" y2="245"/>
    <circle cx="484" cy="258" r="2"/>
    <circle cx="481" cy="245" r="2"/>
  </g>
  <g stroke="chocolate" stroke-width="1">
    <line x1="491" y1="284" x2="484" y2="258"/>
    <circle cx="491" cy="284" r="2"/>
    <circle cx="484" cy="258" r="2"/>
  </g>
  <g stroke="chocolate" stroke-width="1">
    <line x1="484" y1="258" x2="479" y2="235"/>
    <circle cx="484" cy="258" r="2"/>
    <circle cx="479" cy="235" r="2"/>
  </g>
  <g stroke="chocolate" stroke-width="1">
    <line x1="488" y1="274" x2="484" y2="258"/>
    <circle cx="488" cy="274" r="2"/>
    <circle cx="484" cy="258" r="2"/>
  </g>
  <g stroke="chocolate" stroke-width="1">
    <line x1="478" y1="235" x2="477" y2="230"/>
    <circle cx="478" cy="235" r="2"/>
    <circle cx="477" cy="230" r="2"/>
  </g>
  <g stroke="chocolate" stroke-width="1">
    <line x1="482" y1="250" x2="478" y2="235"/>
    <circle cx="482" cy="250" r="2"/>
    <circle cx="478" cy="235" r="2"/>
  </g>
  <g stroke="chocolate" stroke-width="1">
    <line x1="485" y1="263" x2="483" y2="254"/>
    <circle cx="485" cy="263" r="2"/>
    <circle cx="483" cy="254" r="2"/>
  </g>
  <g stroke="chocolate" stroke-width="1">
    <line x1="488" y1="274" x2="485" y2="263"/>
    <circle cx="488" cy="274" r="2"/>
    <circle cx="485" cy="263" r="2"/>
  </g>
  <g stroke="chocolate" stroke-width="1">
    <line x1="485" y1="263" x2="482" y2="250"/>
    <circle cx="485" cy="263" r="2"/>
    <circle cx="482" cy="250" r="2"/>
  </g>
  <g stroke="chocolate" stroke-width="1">
    <line x1="492" y1="291" x2="485" y2="263"/>
    <circle cx="492" cy="291" r="2"/>
    <circle cx="485" cy="263" r="2"/>
  </g>
  <g stroke="chocolate" stroke-width="1">
    <line x1="481" y1="245" x2="479" y2="235"/>
    <circle cx="481" cy="245" r="2"/>
    <circle cx="479" cy="235" r="2"/>
  </g>
  <g stroke="chocolate" stroke-width="1">
    <line x1="482" y1="250" x2="481" y2="245"/>
    <circle cx="482" cy="250" r="2"/>
    <circle cx="481" cy="245" r="2"/>
  </g>
  <g stroke="chocolate" stroke-width="1">
    <line x1="483" y1="254" x2="482" y2="250"/>
    <circle cx="483" cy="254" r="2"/>
    <circle cx="482" cy="250" r="2"/>
  </g>
  <g stroke="chocolate" stroke-width="1">
    <line x1="491" y1="291" x2="483" y2="254"/>
    <circle cx="491" cy="291" r="2"/>
    <circle cx="483" cy="254" r="2"/>
  </g>
  <g stroke="chocolate" stroke-width="1">
    <line x1="391" y1="249" x2="392" y2="248"/>
    <circle cx="391" cy="249" r="2"/>
    <circle cx="392" cy="248" r="2"/>
  </g>
  <g stroke="chocolate" stroke-width="1">
    <line x1="392" y1="248" x2="473" y2="226"/>
    <circle cx="392" cy="248" r="2"/>
    <circle cx="473" cy="226" r="2"/>
  </g>
  <g stroke="chocolate" stroke-width="1">
    <line x1="262" y1="284" x2="262" y2="282"/>
    <circle cx="262" cy="284" r="2"/>
    <circle cx="262" cy="282" r="2"/>
  </g>
  <g stroke="chocolate" stroke-width="1">
    <line x1="262" y1="282" x2="322" y2="266"/>
    <circle cx="262" cy="282" r="2"/>
    <circle cx="322" cy="266" r="2"/>
  </g>
  <g stroke="chocolate" stroke-width="1">
    <line x1="384" y1="236" x2="322" y2="199"/>
    <circle cx="384" cy="236" r="2"/>
    <circle cx="322" cy="199" r="2"/>
  </g>
  <g stroke="chocolate" stroke-width="1">
    <line x1="322" y1="269" x2="475" y2="231"/>
    <circle cx="322" cy="269" r="2"/>
    <circle cx="475" cy="231" r="2"/>
  </g>
  <g stroke="chocolate" stroke-width="1">
    <line x1="322" y1="269" x2="322" y2="266"/>
    <circle cx="322" cy="269" r="2"/>
    <circle cx="322" cy="266" r="2"/>
  </g>
  <g stroke="chocolate" stroke-width="1">
    <line x1="263" y1="177" x2="260" y2="176"/>
    <circle cx="263" cy="177" r="2"/>
    <circle cx="260" cy="176" r="2"/>
  </g>
  <g stroke="chocolate" stroke-width="1">
    <line x1="263" y1="198" x2="263" y2="177"/>
    <circle cx="263" cy="198" r="2"/>
    <circle cx="263" cy="177" r="2"/>
  </g>
  <g stroke="chocolate" stroke-width="1">
    <line x1="262" y1="248" x2="260" y2="176"/>
    <circle cx="262" cy="248" r="2"/>
    <circle cx="260" cy="176" r="2"/>
  </g>
  <g stroke="chocolate" stroke-width="1">
    <line x1="262" y1="248" x2="263" y2="198"/>
    <circle cx="262" cy="248" r="2"/>
    <circle cx="263" cy="198" r="2"/>
  </g>
  <g stroke="chocolate" stroke-width="1">
    <line x1="396" y1="236" x2="396" y2="236"/>
    <circle cx="396" cy="236" r="2"/>
    <circle cx="396" cy="236" r="2"/>
  </g>
  <g stroke="chocolate" stroke-width="1">
    <line x1="397" y1="237" x2="396" y2="236"/>
    <circle cx="397" cy="237" r="2"/>
    <circle cx="396" cy="236" r="2"/>
  </g>
  <g stroke="chocolate" stroke-width="1">
    <line x1="393" y1="242" x2="396" y2="236"/>
    <circle cx="393" cy="242" r="2"/>
    <circle cx="396" cy="236" r="2"/>
  </g>
  <g stroke="chocolate" stroke-width="1">
    <line x1="397" y1="237" x2="397" y2="237"/>
    <circle cx="397" cy="237" r="2"/>
    <circle cx="397" cy="237" r="2"/>
  </g>
  <g stroke="chocolate" stroke-width="1">
    <line x1="397" y1="237" x2="397" y2="237"/>
    <circle cx="397" cy="237" r="2"/>
    <circle cx="397" cy="237" r="2"/>
  </g>
  <g stroke="chocolate" stroke-width="1">
    <line x1="397" y1="237" x2="399" y2="234"/>
    <circle cx="397" cy="237" r="2"/>
    <circle cx="399" cy="234" r="2"/>
  </g>
  <g stroke="chocolate" stroke-width="1">
    <line x1="394" y1="242" x2="397" y2="237"/>
    <circle cx="394" cy="242" r="2"/>
    <circle cx="397" cy="237" r="2"/>
  </g>
  <g stroke="chocolate" stroke-width="1">
    <line x1="263" y1="160" x2="263" y2="160"/>
    <circle cx="263" cy="160" r="2"/>
    <circle cx="263" cy="160" r="2"/>
  </g>
  <g stroke="chocolate" stroke-width="1">
    <line x1="263" y1="160" x2="263" y2="160"/>
    <circle cx="263" cy="160" r="2"/>
    <circle cx="263" cy="160" r="2"/>
  </g>
  <g stroke="chocolate" stroke-width="1">
    <line x1="396" y1="236" x2="398" y2="234"/>
    <circle cx="396" cy="236" r="2"/>
    <circle cx="398" cy="234" r="2"/>
  </g>
  <g stroke="chocolate" stroke-width="1">
    <line x1="394" y1="242" x2="397" y2="237"/>
    <circle cx="394" cy="242" r="2"/>
    <circle cx="397" cy="237" r="2"/>
  </g>
  <g stroke="chocolate" stroke-width="1">
    <line x1="422" y1="193" x2="426" y2="187"/>
    <circle cx="422" cy="193" r="2"/>
    <circle cx="426" cy="187" r="2"/>
  </g>
  <g stroke="chocolate" stroke-width="1">
    <line x1="399" y1="232" x2="422" y2="193"/>
    <circle cx="399" cy="232" r="2"/>
    <circle cx="422" cy="193" r="2"/>
  </g>
  <g stroke="chocolate" stroke-width="1">
    <line x1="422" y1="193" x2="426" y2="187"/>
    <circle cx="422" cy="193" r="2"/>
    <circle cx="426" cy="187" r="2"/>
  </g>
  <g stroke="chocolate" stroke-width="1">
    <line x1="411" y1="214" x2="422" y2="193"/>
    <circle cx="411" cy="214" r="2"/>
    <circle cx="422" cy="193" r="2"/>
  </g>
  <g stroke="chocolate" stroke-width="1">
    <line x1="397" y1="237" x2="399" y2="234"/>
    <circle cx="397" cy="237" r="2"/>
    <circle cx="399" cy="234" r="2"/>
  </g>
  <g stroke="chocolate" stroke-width="1">
    <line x1="419" y1="199" x2="426" y2="187"/>
    <circle cx="419" cy="199" r="2"/>
    <circle cx="426" cy="187" r="2"/>
  </g>
  <g stroke="chocolate" stroke-width="1">
    <line x1="411" y1="214" x2="419" y2="199"/>
    <circle cx="411" cy="214" r="2"/>
    <circle cx="419" cy="199" r="2"/>
  </g>
  <g stroke="chocolate" stroke-width="1">
    <line x1="419" y1="199" x2="426" y2="187"/>
    <circle cx="419" cy="199" r="2"/>
    <circle cx="426" cy="187" r="2"/>
  </g>
  <g stroke="chocolate" stroke-width="1">
    <line x1="415" y1="207" x2="419" y2="199"/>
    <circle cx="415" cy="207" r="2"/>
    <circle cx="419" cy="199" r="2"/>
  </g>
  <g stroke="chocolate" stroke-width="1">
    <line x1="407" y1="222" x2="428" y2="188"/>
    <circle cx="407" cy="222" r="2"/>
    <circle cx="428" cy="188" r="2"/>
  </g>
  <g stroke="chocolate" stroke-width="1">
    <line x1="407" y1="222" x2="415" y2="207"/>
    <circle cx="407" cy="222" r="2"/>
    <circle cx="415" cy="207" r="2"/>
  </g>
  <g stroke="chocolate" stroke-width="1">
    <line x1="394" y1="242" x2="384" y2="236"/>
    <circle cx="394" cy="242" r="2"/>
    <circle cx="384" cy="236" r="2"/>
  </g>
  <g stroke="chocolate" stroke-width="1">
    <line x1="262" y1="284" x2="262" y2="284"/>
    <circle cx="262" cy="284" r="2"/>
    <circle cx="262" cy="284" r="2"/>
  </g>
  <g stroke="chocolate" stroke-width="1">
    <line x1="262" y1="284" x2="262" y2="284"/>
    <circle cx="262" cy="284" r="2"/>
    <circle cx="262" cy="284" r="2"/>
  </g>
  <g stroke="chocolate" stroke-width="1">
    <line x1="475" y1="231" x2="473" y2="226"/>
    <circle cx="475" cy="231" r="2"/>
    <circle cx="473" cy="226" r="2"/>
  </g>
  <g stroke="chocolate" stroke-width="1">
    <line x1="492" y1="291" x2="488" y2="274"/>
    <circle cx="492" cy="291" r="2"/>
    <circle cx="488" cy="274" r="2"/>
  </g>
  <g stroke="chocolate" stroke-width="1">
    <line x1="492" y1="291" x2="488" y2="274"/>
    <circle cx="492" cy="291" r="2"/>
    <circle cx="488" cy="274" r="2"/>
  </g>
  <g stroke="chocolate" stroke-width="1">
    <line x1="492" y1="291" x2="491" y2="284"/>
    <circle cx="492" cy="291" r="2"/>
    <circle cx="491" cy="284" r="2"/>
  </g>
  <g stroke="chocolate" stroke-width="1">
    <line x1="491" y1="284" x2="480" y2="235"/>
    <circle cx="491" cy="284" r="2"/>
    <circle cx="480" cy="235" r="2"/>
  </g>
  <g stroke="chocolate" stroke-width="1">
    <line x1="492" y1="291" x2="491" y2="284"/>
    <circle cx="492" cy="291" r="2"/>
    <circle cx="491" cy="284" r="2"/>
  </g>
  <g stroke="chocolate" stroke-width="1">
    <line x1="260" y1="176" x2="248" y2="169"/>
    <circle cx="260" cy="176" r="2"/>
    <circle cx="248" cy="169" r="2"/>
  </g>
  <g stroke="chocolate" stroke-width="1">
    <line x1="260" y1="176" x2="260" y2="162"/>
    <circle cx="260" cy="176" r="2"/>
    <circle cx="260" cy="162" r="2"/>
  </g>
  <g stroke="chocolate" stroke-width="1">
    <line x1="393" y1="242" x2="396" y2="236"/>
    <circle cx="393" cy="242" r="2"/>
    <circle cx="396" cy="236" r="2"/>
  </g>
  <g stroke="chocolate" stroke-width="1">
    <line x1="415" y1="207" x2="426" y2="187"/>
    <circle cx="415" cy="207" r="2"/>
    <circle cx="426" cy="187" r="2"/>
  </g>
  <g stroke="chocolate" stroke-width="1">
    <line x1="404" y1="231" x2="472" y2="214"/>
    <circle cx="404" cy="231" r="2"/>
    <circle cx="472" cy="214" r="2"/>
  </g>
  <g stroke="chocolate" stroke-width="1">
    <line x1="404" y1="231" x2="428" y2="188"/>
    <circle cx="404" cy="231" r="2"/>
    <circle cx="428" cy="188" r="2"/>
  </g>
  <g stroke="chocolate" stroke-width="1">
    <line x1="401" y1="236" x2="404" y2="231"/>
    <circle cx="401" cy="236" r="2"/>
    <circle cx="404" cy="231" r="2"/>
  </g>
  <g stroke="chocolate" stroke-width="1">
    <line x1="428" y1="188" x2="322" y2="126"/>
    <circle cx="428" cy="188" r="2"/>
    <circle cx="322" cy="126" r="2"/>
  </g>
  <g stroke="chocolate" stroke-width="1">
    <line x1="323" y1="331" x2="247" y2="271"/>
    <circle cx="323" cy="331" r="2"/>
    <circle cx="247" cy="271" r="2"/>
  </g>
  <g stroke="chocolate" stroke-width="1">
    <line x1="248" y1="169" x2="322" y2="126"/>
    <circle cx="248" cy="169" r="2"/>
    <circle cx="322" cy="126" r="2"/>
  </g>
  <g stroke="chocolate" stroke-width="1">
    <line x1="492" y1="291" x2="480" y2="235"/>
    <circle cx="492" cy="291" r="2"/>
    <circle cx="480" cy="235" r="2"/>
  </g>
  <g stroke="chocolate" stroke-width="1">
    <line x1="323" y1="331" x2="492" y2="291"/>
    <circle cx="323" cy="331" r="2"/>
    <circle cx="492" cy="291" r="2"/>
  </g>
  <g stroke="chocolate" stroke-width="1">
    <line x1="247" y1="271" x2="248" y2="169"/>
    <circle cx="247" cy="271" r="2"/>
    <circle cx="248" cy="169" r="2"/>
  </g>
  <g stroke="black" stroke-width="1">
    <line x1="5" y1="5" x2="505" y2="5"/>
    <line x1="5" y1="5" x2="5" y2="505"/>
    <line x1="505" y1="505" x2="5" y2="505"/>
    <line x1="505" y1="505" x2="505" y2="5"/>
    <line x1="105" y1="2" x2="105" y2="8"/>
    <line x1="2" y1="105" x2="8" y2="105"/>
    <line x1="105" y1="502" x2="105" y2="508"/>
    <line x1="502" y1="105" x2="508" y2="105"/>
    <line x1="205" y1="2" x2="205" y2="8"/>
    <line x1="2" y1="205" x2="8" y2="205"/>
    <line x1="205" y1="502" x2="205" y2="508"/>
    <line x1="502" y1="205" x2="508" y2="205"/>
    <line x1="305" y1="2" x2="305" y2="8"/>
    <line x1="2" y1="305" x2="8" y2="305"/>
    <line x1="305" y1="502" x2="305" y2="508"/>
    <line x1="502" y1="305" x2="508" y2="305"/>
    <line x1="405" y1="2" x2="405" y2="8"/>
    <line x1="2" y1="405" x2="8" y2="405"/>
    <line x1="405" y1="502" x2="405" y2="508"/>
    <line x1="502" y1="405" x2="508" y2="405"/>
  </g>
  <g stroke="gray" stroke-width="1" stroke-dasharray="5,5">
    <line x1="105" y1="5" x2="105" y2="505"/>
    <line x1="5" y1="105" x2="505" y2="105"/>
    <line x1="205" y1="5" x2="205" y2="505"/>
    <line x1="5" y1="205" x2="505" y2="205"/>
    <line x1="305" y1="5" x2="305" y2="505"/>
    <line x1="5" y1="305" x2="505" y2="305"/>
    <line x1="405" y1="5" x2="405" y2="505"/>
    <line x1="5" y1="405" x2="505" y2="405"/>
  </g>
</svg>
