<?xml version="1.0" standalone="no"?>
<!DOCTYPE svg PUBLIC "-//W3C//DTD SVG 1.1//EN" 
  "http://www.w3.org/Graphics/SVG/1.1/DTD/svg11.dtd">
<svg width="510" height="510" version="1.1" id="toplevel"
    xmlns="http://www.w3.org/2000/svg"
    xmlns:xlink="http://www.w3.org/1999/xlink">
  <polygon points="250,391 299,391 299,354 311,363 387,344 428,249 354,130 223,119 220,127 195,134 207,173 163,214 174,331"
           fill="bisque"/>
  <polygon points="291,337 224,281 223,277 299,192 343,267 342,267"
           fill="bisque"/>
  <g stroke="chocolate" stroke-width="1">
    <line x1="307" y1="182" x2="325" y2="162"/>
    <circle cx="307" cy="182" r="2"/>
    <circle cx="325" cy="162" r="2"/>
  </g>
  <g stroke="chocolate" stroke-width="1">
    <line x1="303" y1="187" x2="307" y2="182"/>
    <circle cx="303" cy="187" r="2"/>
    <circle cx="307" cy="182" r="2"/>
  </g>
  <g stroke="chocolate" stroke-width="1">
    <line x1="307" y1="182" x2="272" y2="135"/>
    <circle cx="307" cy="182" r="2"/>
    <circle cx="272" cy="135" r="2"/>
  </g>
  <g stroke="chocolate" stroke-width="1">
    <line x1="312" y1="190" x2="307" y2="182"/>
    <circle cx="312" cy="190" r="2"/>
    <circle cx="307" cy="182" r="2"/>
  </g>
  <g stroke="chocolate" stroke-width="1">
    <line x1="299" y1="192" x2="303" y2="187"/>
    <circle cx="299" cy="192" r="2"/>
    <circle cx="303" cy="187" r="2"/>
  </g>
  <g stroke="chocolate" stroke-width="1">
    <line x1="303" y1="187" x2="294" y2="184"/>
    <circle cx="303" cy="187" r="2"/>
    <circle cx="294" cy="184" r="2"/>
  </g>
  <g stroke="chocolate" stroke-width="1">
    <line x1="312" y1="190" x2="303" y2="187"/>
    <circle cx="312" cy="190" r="2"/>
    <circle cx="303" cy="187" r="2"/>
  </g>
  <g stroke="chocolate" stroke-width="1">
    <line x1="227" y1="158" x2="242" y2="140"/>
    <circle cx="227" cy="158" r="2"/>
    <circle cx="242" cy="140" r="2"/>
  </g>
  <g stroke="chocolate" stroke-width="1">
    <line x1="223" y1="163" x2="227" y2="158"/>
    <circle cx="223" cy="163" r="2"/>
    <circle cx="227" cy="158" r="2"/>
  </g>
  <g stroke="chocolate" stroke-width="1">
    <line x1="227" y1="158" x2="227" y2="155"/>
    <circle cx="227" cy="158" r="2"/>
    <circle cx="227" cy="155" r="2"/>
  </g>
  <g stroke="chocolate" stroke-width="1">
    <line x1="228" y1="164" x2="227" y2="158"/>
    <circle cx="228" cy="164" r="2"/>
    <circle cx="227" cy="158" r="2"/>
  </g>
  <g stroke="chocolate" stroke-width="1">
    <line x1="395" y1="297" x2="392" y2="295"/>
    <circle cx="395" cy="297" r="2"/>
    <circle cx="392" cy="295" r="2"/>
  </g>
  <g stroke="chocolate" stroke-width="1">
    <line x1="395" y1="297" x2="395" y2="297"/>
    <circle cx="395" cy="297" r="2"/>
    <circle cx="395" cy="297" r="2"/>
  </g>
  <g stroke="chocolate" stroke-width="1">
    <line x1="395" y1="297" x2="395" y2="292"/>
    <circle cx="395" cy="297" r="2"/>
    <circle cx="395" cy="292" r="2"/>
  </g>
  <g stroke="chocolate" stroke-width="1">
    <line x1="395" y1="298" x2="395" y2="297"/>
    <circle cx="395" cy="298" r="2"/>
    <circle cx="395" cy="297" r="2"/>
  </g>
  <g stroke="chocolate" stroke-width="1">
    <line x1="203" y1="258" x2="202" y2="251"/>
    <circle cx="203" cy="258" r="2"/>
    <circle cx="202" cy="251" r="2"/>
  </g>
  <g stroke="chocolate" stroke-width="1">
    <line x1="203" y1="258" x2="203" y2="258"/>
    <circle cx="203" cy="258" r="2"/>
    <circle cx="203" cy="258" r="2"/>
  </g>
  <g stroke="chocolate" stroke-width="1">
    <line x1="203" y1="258" x2="200" y2="258"/>
    <circle cx="203" cy="258" r="2"/>
    <circle cx="200" cy="258" r="2"/>
  </g>
  <g stroke="chocolate" stroke-width="1">
    <line x1="218" y1="258" x2="203" y2="258"/>
    <circle cx="218" cy="258" r="2"/>
    <circle cx="203" cy="258" r="2"/>
  </g>
  <g stroke="chocolate" stroke-width="1">
    <line x1="219" y1="261" x2="203" y2="258"/>
    <circle cx="219" cy="261" r="2"/>
    <circle cx="203" cy="258" r="2"/>
  </g>
  <g stroke="chocolate" stroke-width="1">
    <line x1="234" y1="264" x2="219" y2="261"/>
    <circle cx="234" cy="264" r="2"/>
    <circle cx="219" cy="261" r="2"/>
  </g>
  <g stroke="chocolate" stroke-width="1">
    <line x1="219" y1="261" x2="218" y2="258"/>
    <circle cx="219" cy="261" r="2"/>
    <circle cx="218" cy="258" r="2"/>
  </g>
  <g stroke="chocolate" stroke-width="1">
    <line x1="223" y1="277" x2="219" y2="261"/>
    <circle cx="223" cy="277" r="2"/>
    <circle cx="219" cy="261" r="2"/>
  </g>
  <g stroke="chocolate" stroke-width="1">
    <line x1="299" y1="192" x2="294" y2="184"/>
    <circle cx="299" cy="192" r="2"/>
    <circle cx="294" cy="184" r="2"/>
  </g>
  <g stroke="chocolate" stroke-width="1">
    <line x1="343" y1="267" x2="299" y2="192"/>
    <circle cx="343" cy="267" r="2"/>
    <circle cx="299" cy="192" r="2"/>
  </g>
  <g stroke="chocolate" stroke-width="1">
    <line x1="223" y1="277" x2="299" y2="192"/>
    <circle cx="223" cy="277" r="2"/>
    <circle cx="299" cy="192" r="2"/>
  </g>
  <g stroke="chocolate" stroke-width="1">
    <line x1="190" y1="253" x2="182" y2="246"/>
    <circle cx="190" cy="253" r="2"/>
    <circle cx="182" cy="246" r="2"/>
  </g>
  <g stroke="chocolate" stroke-width="1">
    <line x1="195" y1="257" x2="190" y2="253"/>
    <circle cx="195" cy="257" r="2"/>
    <circle cx="190" cy="253" r="2"/>
  </g>
  <g stroke="chocolate" stroke-width="1">
    <line x1="190" y1="253" x2="202" y2="251"/>
    <circle cx="190" cy="253" r="2"/>
    <circle cx="202" cy="251" r="2"/>
  </g>
  <g stroke="chocolate" stroke-width="1">
    <line x1="182" y1="255" x2="190" y2="253"/>
    <circle cx="182" cy="255" r="2"/>
    <circle cx="190" cy="253" r="2"/>
  </g>
  <g stroke="chocolate" stroke-width="1">
    <line x1="196" y1="258" x2="195" y2="257"/>
    <circle cx="196" cy="258" r="2"/>
    <circle cx="195" cy="257" r="2"/>
  </g>
  <g stroke="chocolate" stroke-width="1">
    <line x1="195" y1="257" x2="182" y2="255"/>
    <circle cx="195" cy="257" r="2"/>
    <circle cx="182" cy="255" r="2"/>
  </g>
  <g stroke="chocolate" stroke-width="1">
    <line x1="200" y1="258" x2="195" y2="257"/>
    <circle cx="200" cy="258" r="2"/>
    <circle cx="195" cy="257" r="2"/>
  </g>
  <g stroke="chocolate" stroke-width="1">
    <line x1="203" y1="264" x2="203" y2="258"/>
    <circle cx="203" cy="264" r="2"/>
    <circle cx="203" cy="258" r="2"/>
  </g>
  <g stroke="chocolate" stroke-width="1">
    <line x1="203" y1="258" x2="200" y2="258"/>
    <circle cx="203" cy="258" r="2"/>
    <circle cx="200" cy="258" r="2"/>
  </g>
  <g stroke="chocolate" stroke-width="1">
    <line x1="272" y1="135" x2="263" y2="131"/>
    <circle cx="272" cy="135" r="2"/>
    <circle cx="263" cy="131" r="2"/>
  </g>
  <g stroke="chocolate" stroke-width="1">
    <line x1="325" y1="162" x2="272" y2="135"/>
    <circle cx="325" cy="162" r="2"/>
    <circle cx="272" cy="135" r="2"/>
  </g>
  <g stroke="chocolate" stroke-width="1">
    <line x1="272" y1="135" x2="262" y2="122"/>
    <circle cx="272" cy="135" r="2"/>
    <circle cx="262" cy="122" r="2"/>
  </g>
  <g stroke="chocolate" stroke-width="1">
    <line x1="392" y1="295" x2="355" y2="274"/>
    <circle cx="392" cy="295" r="2"/>
    <circle cx="355" cy="274" r="2"/>
  </g>
  <g stroke="chocolate" stroke-width="1">
    <line x1="392" y1="295" x2="381" y2="280"/>
    <circle cx="392" cy="295" r="2"/>
    <circle cx="381" cy="280" r="2"/>
  </g>
  <g stroke="chocolate" stroke-width="1">
    <line x1="395" y1="300" x2="392" y2="295"/>
    <circle cx="395" cy="300" r="2"/>
    <circle cx="392" cy="295" r="2"/>
  </g>
  <g stroke="chocolate" stroke-width="1">
    <line x1="294" y1="184" x2="228" y2="164"/>
    <circle cx="294" cy="184" r="2"/>
    <circle cx="228" cy="164" r="2"/>
  </g>
  <g stroke="chocolate" stroke-width="1">
    <line x1="294" y1="184" x2="263" y2="131"/>
    <circle cx="294" cy="184" r="2"/>
    <circle cx="263" cy="131" r="2"/>
  </g>
  <g stroke="chocolate" stroke-width="1">
    <line x1="209" y1="180" x2="223" y2="163"/>
    <circle cx="209" cy="180" r="2"/>
    <circle cx="223" cy="163" r="2"/>
  </g>
  <g stroke="chocolate" stroke-width="1">
    <line x1="223" y1="163" x2="219" y2="162"/>
    <circle cx="223" cy="163" r="2"/>
    <circle cx="219" cy="162" r="2"/>
  </g>
  <g stroke="chocolate" stroke-width="1">
    <line x1="228" y1="164" x2="223" y2="163"/>
    <circle cx="228" cy="164" r="2"/>
    <circle cx="223" cy="163" r="2"/>
  </g>
  <g stroke="chocolate" stroke-width="1">
    <line x1="207" y1="173" x2="195" y2="134"/>
    <circle cx="207" cy="173" r="2"/>
    <circle cx="195" cy="134" r="2"/>
  </g>
  <g stroke="chocolate" stroke-width="1">
    <line x1="209" y1="180" x2="207" y2="173"/>
    <circle cx="209" cy="180" r="2"/>
    <circle cx="207" cy="173" r="2"/>
  </g>
  <g stroke="chocolate" stroke-width="1">
    <line x1="207" y1="173" x2="219" y2="162"/>
    <circle cx="207" cy="173" r="2"/>
    <circle cx="219" cy="162" r="2"/>
  </g>
  <g stroke="chocolate" stroke-width="1">
    <line x1="163" y1="214" x2="207" y2="173"/>
    <circle cx="163" cy="214" r="2"/>
    <circle cx="207" cy="173" r="2"/>
  </g>
  <g stroke="chocolate" stroke-width="1">
    <line x1="256" y1="128" x2="259" y2="124"/>
    <circle cx="256" cy="128" r="2"/>
    <circle cx="259" cy="124" r="2"/>
  </g>
  <g stroke="chocolate" stroke-width="1">
    <line x1="242" y1="140" x2="256" y2="128"/>
    <circle cx="242" cy="140" r="2"/>
    <circle cx="256" cy="128" r="2"/>
  </g>
  <g stroke="chocolate" stroke-width="1">
    <line x1="256" y1="128" x2="254" y2="127"/>
    <circle cx="256" cy="128" r="2"/>
    <circle cx="254" cy="127" r="2"/>
  </g>
  <g stroke="chocolate" stroke-width="1">
    <line x1="263" y1="131" x2="256" y2="128"/>
    <circle cx="263" cy="131" r="2"/>
    <circle cx="256" cy="128" r="2"/>
  </g>
  <g stroke="chocolate" stroke-width="1">
    <line x1="227" y1="155" x2="242" y2="140"/>
    <circle cx="227" cy="155" r="2"/>
    <circle cx="242" cy="140" r="2"/>
  </g>
  <g stroke="chocolate" stroke-width="1">
    <line x1="219" y1="162" x2="227" y2="155"/>
    <circle cx="219" cy="162" r="2"/>
    <circle cx="227" cy="155" r="2"/>
  </g>
  <g stroke="chocolate" stroke-width="1">
    <line x1="227" y1="155" x2="223" y2="126"/>
    <circle cx="227" cy="155" r="2"/>
    <circle cx="223" cy="126" r="2"/>
  </g>
  <g stroke="chocolate" stroke-width="1">
    <line x1="395" y1="214" x2="312" y2="190"/>
    <circle cx="395" cy="214" r="2"/>
    <circle cx="312" cy="190" r="2"/>
  </g>
  <g stroke="chocolate" stroke-width="1">
    <line x1="409" y1="218" x2="395" y2="214"/>
    <circle cx="409" cy="218" r="2"/>
    <circle cx="395" cy="214" r="2"/>
  </g>
  <g stroke="chocolate" stroke-width="1">
    <line x1="395" y1="214" x2="395" y2="197"/>
    <circle cx="395" cy="214" r="2"/>
    <circle cx="395" cy="197" r="2"/>
  </g>
  <g stroke="chocolate" stroke-width="1">
    <line x1="395" y1="256" x2="395" y2="214"/>
    <circle cx="395" cy="256" r="2"/>
    <circle cx="395" cy="214" r="2"/>
  </g>
  <g stroke="chocolate" stroke-width="1">
    <line x1="395" y1="292" x2="381" y2="280"/>
    <circle cx="395" cy="292" r="2"/>
    <circle cx="381" cy="280" r="2"/>
  </g>
  <g stroke="chocolate" stroke-width="1">
    <line x1="396" y1="293" x2="395" y2="292"/>
    <circle cx="396" cy="293" r="2"/>
    <circle cx="395" cy="292" r="2"/>
  </g>
  <g stroke="chocolate" stroke-width="1">
    <line x1="395" y1="292" x2="395" y2="256"/>
    <circle cx="395" cy="292" r="2"/>
    <circle cx="395" cy="256" r="2"/>
  </g>
  <g stroke="chocolate" stroke-width="1">
    <line x1="196" y1="258" x2="167" y2="258"/>
    <circle cx="196" cy="258" r="2"/>
    <circle cx="167" cy="258" r="2"/>
  </g>
  <g stroke="chocolate" stroke-width="1">
    <line x1="200" y1="258" x2="196" y2="258"/>
    <circle cx="200" cy="258" r="2"/>
    <circle cx="196" cy="258" r="2"/>
  </g>
  <g stroke="chocolate" stroke-width="1">
    <line x1="203" y1="264" x2="196" y2="258"/>
    <circle cx="203" cy="264" r="2"/>
    <circle cx="196" cy="258" r="2"/>
  </g>
  <g stroke="chocolate" stroke-width="1">
    <line x1="232" y1="258" x2="218" y2="258"/>
    <circle cx="232" cy="258" r="2"/>
    <circle cx="218" cy="258" r="2"/>
  </g>
  <g stroke="chocolate" stroke-width="1">
    <line x1="218" y1="258" x2="216" y2="249"/>
    <circle cx="218" cy="258" r="2"/>
    <circle cx="216" cy="249" r="2"/>
  </g>
  <g stroke="chocolate" stroke-width="1">
    <line x1="224" y1="281" x2="221" y2="279"/>
    <circle cx="224" cy="281" r="2"/>
    <circle cx="221" cy="279" r="2"/>
  </g>
  <g stroke="chocolate" stroke-width="1">
    <line x1="291" y1="337" x2="224" y2="281"/>
    <circle cx="291" cy="337" r="2"/>
    <circle cx="224" cy="281" r="2"/>
  </g>
  <g stroke="chocolate" stroke-width="1">
    <line x1="224" y1="281" x2="223" y2="277"/>
    <circle cx="224" cy="281" r="2"/>
    <circle cx="223" cy="277" r="2"/>
  </g>
  <g stroke="chocolate" stroke-width="1">
    <line x1="241" y1="354" x2="224" y2="281"/>
    <circle cx="241" cy="354" r="2"/>
    <circle cx="224" cy="281" r="2"/>
  </g>
  <g stroke="chocolate" stroke-width="1">
    <line x1="221" y1="279" x2="203" y2="264"/>
    <circle cx="221" cy="279" r="2"/>
    <circle cx="203" cy="264" r="2"/>
  </g>
  <g stroke="chocolate" stroke-width="1">
    <line x1="221" y1="279" x2="223" y2="277"/>
    <circle cx="221" cy="279" r="2"/>
    <circle cx="223" cy="277" r="2"/>
  </g>
  <g stroke="chocolate" stroke-width="1">
    <line x1="205" y1="296" x2="221" y2="279"/>
    <circle cx="205" cy="296" r="2"/>
    <circle cx="221" cy="279" r="2"/>
  </g>
  <g stroke="chocolate" stroke-width="1">
    <line x1="343" y1="267" x2="343" y2="267"/>
    <circle cx="343" cy="267" r="2"/>
    <circle cx="343" cy="267" r="2"/>
  </g>
  <g stroke="chocolate" stroke-width="1">
    <line x1="351" y1="282" x2="343" y2="267"/>
    <circle cx="351" cy="282" r="2"/>
    <circle cx="343" cy="267" r="2"/>
  </g>
  <g stroke="chocolate" stroke-width="1">
    <line x1="343" y1="267" x2="342" y2="267"/>
    <circle cx="343" cy="267" r="2"/>
    <circle cx="342" cy="267" r="2"/>
  </g>
  <g stroke="chocolate" stroke-width="1">
    <line x1="355" y1="274" x2="343" y2="267"/>
    <circle cx="355" cy="274" r="2"/>
    <circle cx="343" cy="267" r="2"/>
  </g>
  <g stroke="chocolate" stroke-width="1">
    <line x1="325" y1="162" x2="354" y2="130"/>
    <circle cx="325" cy="162" r="2"/>
    <circle cx="354" cy="130" r="2"/>
  </g>
  <g stroke="chocolate" stroke-width="1">
    <line x1="395" y1="197" x2="325" y2="162"/>
    <circle cx="395" cy="197" r="2"/>
    <circle cx="325" cy="162" r="2"/>
  </g>
  <g stroke="chocolate" stroke-width="1">
    <line x1="403" y1="254" x2="428" y2="249"/>
    <circle cx="403" cy="254" r="2"/>
    <circle cx="428" cy="249" r="2"/>
  </g>
  <g stroke="chocolate" stroke-width="1">
    <line x1="395" y1="256" x2="403" y2="254"/>
    <circle cx="395" cy="256" r="2"/>
    <circle cx="403" cy="254" r="2"/>
  </g>
  <g stroke="chocolate" stroke-width="1">
    <line x1="403" y1="254" x2="409" y2="218"/>
    <circle cx="403" cy="254" r="2"/>
    <circle cx="409" cy="218" r="2"/>
  </g>
  <g stroke="chocolate" stroke-width="1">
    <line x1="396" y1="293" x2="403" y2="254"/>
    <circle cx="396" cy="293" r="2"/>
    <circle cx="403" cy="254" r="2"/>
  </g>
  <g stroke="chocolate" stroke-width="1">
    <line x1="400" y1="300" x2="395" y2="297"/>
    <circle cx="400" cy="300" r="2"/>
    <circle cx="395" cy="297" r="2"/>
  </g>
  <g stroke="chocolate" stroke-width="1">
    <line x1="395" y1="297" x2="396" y2="293"/>
    <circle cx="395" cy="297" r="2"/>
    <circle cx="396" cy="293" r="2"/>
  </g>
  <g stroke="chocolate" stroke-width="1">
    <line x1="395" y1="298" x2="395" y2="297"/>
    <circle cx="395" cy="298" r="2"/>
    <circle cx="395" cy="297" r="2"/>
  </g>
  <g stroke="chocolate" stroke-width="1">
    <line x1="202" y1="251" x2="201" y2="239"/>
    <circle cx="202" cy="251" r="2"/>
    <circle cx="201" cy="239" r="2"/>
  </g>
  <g stroke="chocolate" stroke-width="1">
    <line x1="202" y1="251" x2="216" y2="249"/>
    <circle cx="202" cy="251" r="2"/>
    <circle cx="216" cy="249" r="2"/>
  </g>
  <g stroke="chocolate" stroke-width="1">
    <line x1="174" y1="221" x2="209" y2="180"/>
    <circle cx="174" cy="221" r="2"/>
    <circle cx="209" cy="180" r="2"/>
  </g>
  <g stroke="chocolate" stroke-width="1">
    <line x1="232" y1="258" x2="209" y2="180"/>
    <circle cx="232" cy="258" r="2"/>
    <circle cx="209" cy="180" r="2"/>
  </g>
  <g stroke="chocolate" stroke-width="1">
    <line x1="367" y1="262" x2="312" y2="190"/>
    <circle cx="367" cy="262" r="2"/>
    <circle cx="312" cy="190" r="2"/>
  </g>
  <g stroke="chocolate" stroke-width="1">
    <line x1="381" y1="280" x2="360" y2="263"/>
    <circle cx="381" cy="280" r="2"/>
    <circle cx="360" cy="263" r="2"/>
  </g>
  <g stroke="chocolate" stroke-width="1">
    <line x1="381" y1="280" x2="367" y2="262"/>
    <circle cx="381" cy="280" r="2"/>
    <circle cx="367" cy="262" r="2"/>
  </g>
  <g stroke="chocolate" stroke-width="1">
    <line x1="343" y1="267" x2="367" y2="262"/>
    <circle cx="343" cy="267" r="2"/>
    <circle cx="367" cy="262" r="2"/>
  </g>
  <g stroke="chocolate" stroke-width="1">
    <line x1="342" y1="267" x2="343" y2="267"/>
    <circle cx="342" cy="267" r="2"/>
    <circle cx="343" cy="267" r="2"/>
  </g>
  <g stroke="chocolate" stroke-width="1">
    <line x1="259" y1="124" x2="258" y2="122"/>
    <circle cx="259" cy="124" r="2"/>
    <circle cx="258" cy="122" r="2"/>
  </g>
  <g stroke="chocolate" stroke-width="1">
    <line x1="263" y1="131" x2="259" y2="124"/>
    <circle cx="263" cy="131" r="2"/>
    <circle cx="259" cy="124" r="2"/>
  </g>
  <g stroke="chocolate" stroke-width="1">
    <line x1="259" y1="124" x2="262" y2="122"/>
    <circle cx="259" cy="124" r="2"/>
    <circle cx="262" cy="122" r="2"/>
  </g>
  <g stroke="chocolate" stroke-width="1">
    <line x1="219" y1="162" x2="211" y2="159"/>
    <circle cx="219" cy="162" r="2"/>
    <circle cx="211" cy="159" r="2"/>
  </g>
  <g stroke="chocolate" stroke-width="1">
    <line x1="254" y1="127" x2="241" y2="120"/>
    <circle cx="254" cy="127" r="2"/>
    <circle cx="241" cy="120" r="2"/>
  </g>
  <g stroke="chocolate" stroke-width="1">
    <line x1="254" y1="127" x2="258" y2="122"/>
    <circle cx="254" cy="127" r="2"/>
    <circle cx="258" cy="122" r="2"/>
  </g>
  <g stroke="chocolate" stroke-width="1">
    <line x1="242" y1="140" x2="254" y2="127"/>
    <circle cx="242" cy="140" r="2"/>
    <circle cx="254" cy="127" r="2"/>
  </g>
  <g stroke="chocolate" stroke-width="1">
    <line x1="287" y1="346" x2="286" y2="345"/>
    <circle cx="287" cy="346" r="2"/>
    <circle cx="286" cy="345" r="2"/>
  </g>
  <g stroke="chocolate" stroke-width="1">
    <line x1="299" y1="354" x2="287" y2="346"/>
    <circle cx="299" cy="354" r="2"/>
    <circle cx="287" cy="346" r="2"/>
  </g>
  <g stroke="chocolate" stroke-width="1">
    <line x1="287" y1="346" x2="299" y2="343"/>
    <circle cx="287" cy="346" r="2"/>
    <circle cx="299" cy="343" r="2"/>
  </g>
  <g stroke="chocolate" stroke-width="1">
    <line x1="241" y1="354" x2="287" y2="346"/>
    <circle cx="241" cy="354" r="2"/>
    <circle cx="287" cy="346" r="2"/>
  </g>
  <g stroke="chocolate" stroke-width="1">
    <line x1="223" y1="126" x2="223" y2="119"/>
    <circle cx="223" cy="126" r="2"/>
    <circle cx="223" cy="119" r="2"/>
  </g>
  <g stroke="chocolate" stroke-width="1">
    <line x1="223" y1="126" x2="241" y2="120"/>
    <circle cx="223" cy="126" r="2"/>
    <circle cx="241" cy="120" r="2"/>
  </g>
  <g stroke="chocolate" stroke-width="1">
    <line x1="220" y1="127" x2="223" y2="126"/>
    <circle cx="220" cy="127" r="2"/>
    <circle cx="223" cy="126" r="2"/>
  </g>
  <g stroke="chocolate" stroke-width="1">
    <line x1="367" y1="262" x2="395" y2="256"/>
    <circle cx="367" cy="262" r="2"/>
    <circle cx="395" cy="256" r="2"/>
  </g>
  <g stroke="chocolate" stroke-width="1">
    <line x1="395" y1="299" x2="395" y2="299"/>
    <circle cx="395" cy="299" r="2"/>
    <circle cx="395" cy="299" r="2"/>
  </g>
  <g stroke="chocolate" stroke-width="1">
    <line x1="400" y1="300" x2="395" y2="299"/>
    <circle cx="400" cy="300" r="2"/>
    <circle cx="395" cy="299" r="2"/>
  </g>
  <g stroke="chocolate" stroke-width="1">
    <line x1="395" y1="299" x2="395" y2="298"/>
    <circle cx="395" cy="299" r="2"/>
    <circle cx="395" cy="298" r="2"/>
  </g>
  <g stroke="chocolate" stroke-width="1">
    <line x1="395" y1="300" x2="395" y2="299"/>
    <circle cx="395" cy="300" r="2"/>
    <circle cx="395" cy="299" r="2"/>
  </g>
  <g stroke="chocolate" stroke-width="1">
    <line x1="205" y1="296" x2="203" y2="264"/>
    <circle cx="205" cy="296" r="2"/>
    <circle cx="203" cy="264" r="2"/>
  </g>
  <g stroke="chocolate" stroke-width="1">
    <line x1="355" y1="274" x2="360" y2="263"/>
    <circle cx="355" cy="274" r="2"/>
    <circle cx="360" cy="263" r="2"/>
  </g>
  <g stroke="chocolate" stroke-width="1">
    <line x1="351" y1="282" x2="355" y2="274"/>
    <circle cx="351" cy="282" r="2"/>
    <circle cx="355" cy="274" r="2"/>
  </g>
  <g stroke="chocolate" stroke-width="1">
    <line x1="406" y1="301" x2="396" y2="293"/>
    <circle cx="406" cy="301" r="2"/>
    <circle cx="396" cy="293" r="2"/>
  </g>
  <g stroke="chocolate" stroke-width="1">
    <line x1="165" y1="232" x2="174" y2="221"/>
    <circle cx="165" cy="232" r="2"/>
    <circle cx="174" cy="221" r="2"/>
  </g>
  <g stroke="chocolate" stroke-width="1">
    <line x1="174" y1="221" x2="163" y2="214"/>
    <circle cx="174" cy="221" r="2"/>
    <circle cx="163" cy="214" r="2"/>
  </g>
  <g stroke="chocolate" stroke-width="1">
    <line x1="216" y1="249" x2="174" y2="221"/>
    <circle cx="216" cy="249" r="2"/>
    <circle cx="174" cy="221" r="2"/>
  </g>
  <g stroke="chocolate" stroke-width="1">
    <line x1="405" y1="303" x2="400" y2="300"/>
    <circle cx="405" cy="303" r="2"/>
    <circle cx="400" cy="300" r="2"/>
  </g>
  <g stroke="chocolate" stroke-width="1">
    <line x1="406" y1="301" x2="400" y2="300"/>
    <circle cx="406" cy="301" r="2"/>
    <circle cx="400" cy="300" r="2"/>
  </g>
  <g stroke="chocolate" stroke-width="1">
    <line x1="182" y1="255" x2="167" y2="252"/>
    <circle cx="182" cy="255" r="2"/>
    <circle cx="167" cy="252" r="2"/>
  </g>
  <g stroke="chocolate" stroke-width="1">
    <line x1="167" y1="258" x2="182" y2="255"/>
    <circle cx="167" cy="258" r="2"/>
    <circle cx="182" cy="255" r="2"/>
  </g>
  <g stroke="chocolate" stroke-width="1">
    <line x1="239" y1="258" x2="232" y2="258"/>
    <circle cx="239" cy="258" r="2"/>
    <circle cx="232" cy="258" r="2"/>
  </g>
  <g stroke="chocolate" stroke-width="1">
    <line x1="234" y1="264" x2="232" y2="258"/>
    <circle cx="234" cy="264" r="2"/>
    <circle cx="232" cy="258" r="2"/>
  </g>
  <g stroke="chocolate" stroke-width="1">
    <line x1="182" y1="246" x2="165" y2="232"/>
    <circle cx="182" cy="246" r="2"/>
    <circle cx="165" cy="232" r="2"/>
  </g>
  <g stroke="chocolate" stroke-width="1">
    <line x1="182" y1="246" x2="201" y2="239"/>
    <circle cx="182" cy="246" r="2"/>
    <circle cx="201" cy="239" r="2"/>
  </g>
  <g stroke="chocolate" stroke-width="1">
    <line x1="167" y1="252" x2="182" y2="246"/>
    <circle cx="167" cy="252" r="2"/>
    <circle cx="182" cy="246" r="2"/>
  </g>
  <g stroke="chocolate" stroke-width="1">
    <line x1="239" y1="258" x2="228" y2="164"/>
    <circle cx="239" cy="258" r="2"/>
    <circle cx="228" cy="164" r="2"/>
  </g>
  <g stroke="chocolate" stroke-width="1">
    <line x1="311" y1="363" x2="299" y2="354"/>
    <circle cx="311" cy="363" r="2"/>
    <circle cx="299" cy="354" r="2"/>
  </g>
  <g stroke="chocolate" stroke-width="1">
    <line x1="299" y1="354" x2="299" y2="343"/>
    <circle cx="299" cy="354" r="2"/>
    <circle cx="299" cy="343" r="2"/>
  </g>
  <g stroke="chocolate" stroke-width="1">
    <line x1="299" y1="391" x2="299" y2="354"/>
    <circle cx="299" cy="391" r="2"/>
    <circle cx="299" cy="354" r="2"/>
  </g>
  <g stroke="chocolate" stroke-width="1">
    <line x1="250" y1="391" x2="241" y2="354"/>
    <circle cx="250" cy="391" r="2"/>
    <circle cx="241" cy="354" r="2"/>
  </g>
  <g stroke="chocolate" stroke-width="1">
    <line x1="209" y1="359" x2="241" y2="354"/>
    <circle cx="209" cy="359" r="2"/>
    <circle cx="241" cy="354" r="2"/>
  </g>
  <g stroke="chocolate" stroke-width="1">
    <line x1="195" y1="134" x2="220" y2="127"/>
    <circle cx="195" cy="134" r="2"/>
    <circle cx="220" cy="127" r="2"/>
  </g>
  <g stroke="chocolate" stroke-width="1">
    <line x1="220" y1="127" x2="223" y2="119"/>
    <circle cx="220" cy="127" r="2"/>
    <circle cx="223" cy="119" r="2"/>
  </g>
  <g stroke="chocolate" stroke-width="1">
    <line x1="211" y1="159" x2="220" y2="127"/>
    <circle cx="211" cy="159" r="2"/>
    <circle cx="220" cy="127" r="2"/>
  </g>
  <g stroke="chocolate" stroke-width="1">
    <line x1="395" y1="299" x2="395" y2="298"/>
    <circle cx="395" cy="299" r="2"/>
    <circle cx="395" cy="298" r="2"/>
  </g>
  <g stroke="chocolate" stroke-width="1">
    <line x1="209" y1="359" x2="205" y2="296"/>
    <circle cx="209" cy="359" r="2"/>
    <circle cx="205" cy="296" r="2"/>
  </g>
  <g stroke="chocolate" stroke-width="1">
    <line x1="174" y1="331" x2="205" y2="296"/>
    <circle cx="174" cy="331" r="2"/>
    <circle cx="205" cy="296" r="2"/>
  </g>
  <g stroke="chocolate" stroke-width="1">
    <line x1="387" y1="344" x2="351" y2="282"/>
    <circle cx="387" cy="344" r="2"/>
    <circle cx="351" cy="282" r="2"/>
  </g>
  <g stroke="chocolate" stroke-width="1">
    <line x1="311" y1="363" x2="351" y2="282"/>
    <circle cx="311" cy="363" r="2"/>
    <circle cx="351" cy="282" r="2"/>
  </g>
  <g stroke="chocolate" stroke-width="1">
    <line x1="299" y1="343" x2="291" y2="337"/>
    <circle cx="299" cy="343" r="2"/>
    <circle cx="291" cy="337" r="2"/>
  </g>
  <g stroke="chocolate" stroke-width="1">
    <line x1="291" y1="337" x2="342" y2="267"/>
    <circle cx="291" cy="337" r="2"/>
    <circle cx="342" cy="267" r="2"/>
  </g>
  <g stroke="chocolate" stroke-width="1">
    <line x1="286" y1="345" x2="291" y2="337"/>
    <circle cx="286" cy="345" r="2"/>
    <circle cx="291" cy="337" r="2"/>
  </g>
  <g stroke="chocolate" stroke-width="1">
    <line x1="354" y1="130" x2="223" y2="119"/>
    <circle cx="354" cy="130" r="2"/>
    <circle cx="223" cy="119" r="2"/>
  </g>
  <g stroke="chocolate" stroke-width="1">
    <line x1="428" y1="249" x2="354" y2="130"/>
    <circle cx="428" cy="249" r="2"/>
    <circle cx="354" cy="130" r="2"/>
  </g>
  <g stroke="chocolate" stroke-width="1">
    <line x1="405" y1="303" x2="395" y2="300"/>
    <circle cx="405" cy="303" r="2"/>
    <circle cx="395" cy="300" r="2"/>
  </g>
  <g stroke="chocolate" stroke-width="1">
    <line x1="250" y1="391" x2="174" y2="331"/>
    <circle cx="250" cy="391" r="2"/>
    <circle cx="174" cy="331" r="2"/>
  </g>
  <g stroke="chocolate" stroke-width="1">
    <line x1="174" y1="331" x2="163" y2="214"/>
    <circle cx="174" cy="331" r="2"/>
    <circle cx="163" cy="214" r="2"/>
  </g>
  <g stroke="chocolate" stroke-width="1">
    <line x1="250" y1="391" x2="299" y2="391"/>
    <circle cx="250" cy="391" r="2"/>
    <circle cx="299" cy="391" r="2"/>
  </g>
  <g stroke="chocolate" stroke-width="1">
    <line x1="311" y1="363" x2="387" y2="344"/>
    <circle cx="311" cy="363" r="2"/>
    <circle cx="387" cy="344" r="2"/>
  </g>
  <g stroke="chocolate" stroke-width="1">
    <line x1="387" y1="344" x2="428" y2="249"/>
    <circle cx="387" cy="344" r="2"/>
    <circle cx="428" cy="249" r="2"/>
  </g>
  <g stroke="black" stroke-width="1">
    <line x1="5" y1="5" x2="505" y2="5"/>
    <line x1="5" y1="5" x2="5" y2="505"/>
    <line x1="505" y1="505" x2="5" y2="505"/>
    <line x1="505" y1="505" x2="505" y2="5"/>
    <line x1="105" y1="2" x2="105" y2="8"/>
    <line x1="2" y1="105" x2="8" y2="105"/>
    <line x1="105" y1="502" x2="105" y2="508"/>
    <line x1="502" y1="105" x2="508" y2="105"/>
    <line x1="205" y1="2" x2="205" y2="8"/>
    <line x1="2" y1="205" x2="8" y2="205"/>
    <line x1="205" y1="502" x2="205" y2="508"/>
    <line x1="502" y1="205" x2="508" y2="205"/>
    <line x1="305" y1="2" x2="305" y2="8"/>
    <line x1="2" y1="305" x2="8" y2="305"/>
    <line x1="305" y1="502" x2="305" y2="508"/>
    <line x1="502" y1="305" x2="508" y2="305"/>
    <line x1="405" y1="2" x2="405" y2="8"/>
    <line x1="2" y1="405" x2="8" y2="405"/>
    <line x1="405" y1="502" x2="405" y2="508"/>
    <line x1="502" y1="405" x2="508" y2="405"/>
  </g>
  <g stroke="gray" stroke-width="1" stroke-dasharray="5,5">
    <line x1="105" y1="5" x2="105" y2="505"/>
    <line x1="5" y1="105" x2="505" y2="105"/>
    <line x1="205" y1="5" x2="205" y2="505"/>
    <line x1="5" y1="205" x2="505" y2="205"/>
    <line x1="305" y1="5" x2="305" y2="505"/>
    <line x1="5" y1="305" x2="505" y2="305"/>
    <line x1="405" y1="5" x2="405" y2="505"/>
    <line x1="5" y1="405" x2="505" y2="405"/>
  </g>
</svg>
