<?xml version="1.0" standalone="no"?>
<!DOCTYPE svg PUBLIC "-//W3C//DTD SVG 1.1//EN" 
  "http://www.w3.org/Graphics/SVG/1.1/DTD/svg11.dtd">
<svg width="510" height="510" version="1.1" id="toplevel"
    xmlns="http://www.w3.org/2000/svg"
    xmlns:xlink="http://www.w3.org/1999/xlink">
  <polygon points="251,419 318,191 242,91 5,91 5,191 213,191 155,391"
           fill="bisque"/>
  <g stroke="chocolate" stroke-width="1">
    <line x1="234" y1="119" x2="218" y2="107"/>
    <circle cx="234" cy="119" r="2"/>
    <circle cx="218" cy="107" r="2"/>
  </g>
  <g stroke="chocolate" stroke-width="1">
    <line x1="272" y1="147" x2="234" y2="119"/>
    <circle cx="272" cy="147" r="2"/>
    <circle cx="234" cy="119" r="2"/>
  </g>
  <g stroke="chocolate" stroke-width="1">
    <line x1="234" y1="119" x2="240" y2="99"/>
    <circle cx="234" cy="119" r="2"/>
    <circle cx="240" cy="99" r="2"/>
  </g>
  <g stroke="chocolate" stroke-width="1">
    <line x1="213" y1="191" x2="234" y2="119"/>
    <circle cx="213" cy="191" r="2"/>
    <circle cx="234" cy="119" r="2"/>
  </g>
  <g stroke="chocolate" stroke-width="1">
    <line x1="288" y1="191" x2="272" y2="147"/>
    <circle cx="288" cy="191" r="2"/>
    <circle cx="272" cy="147" r="2"/>
  </g>
  <g stroke="chocolate" stroke-width="1">
    <line x1="295" y1="210" x2="288" y2="191"/>
    <circle cx="295" cy="210" r="2"/>
    <circle cx="288" cy="191" r="2"/>
  </g>
  <g stroke="chocolate" stroke-width="1">
    <line x1="288" y1="191" x2="309" y2="191"/>
    <circle cx="288" cy="191" r="2"/>
    <circle cx="309" cy="191" r="2"/>
  </g>
  <g stroke="chocolate" stroke-width="1">
    <line x1="213" y1="191" x2="288" y2="191"/>
    <circle cx="213" cy="191" r="2"/>
    <circle cx="288" cy="191" r="2"/>
  </g>
  <g stroke="chocolate" stroke-width="1">
    <line x1="301" y1="170" x2="272" y2="147"/>
    <circle cx="301" cy="170" r="2"/>
    <circle cx="272" cy="147" r="2"/>
  </g>
  <g stroke="chocolate" stroke-width="1">
    <line x1="272" y1="147" x2="259" y2="112"/>
    <circle cx="272" cy="147" r="2"/>
    <circle cx="259" cy="112" r="2"/>
  </g>
  <g stroke="chocolate" stroke-width="1">
    <line x1="240" y1="99" x2="242" y2="91"/>
    <circle cx="240" cy="99" r="2"/>
    <circle cx="242" cy="91" r="2"/>
  </g>
  <g stroke="chocolate" stroke-width="1">
    <line x1="240" y1="99" x2="230" y2="91"/>
    <circle cx="240" cy="99" r="2"/>
    <circle cx="230" cy="91" r="2"/>
  </g>
  <g stroke="chocolate" stroke-width="1">
    <line x1="259" y1="112" x2="240" y2="99"/>
    <circle cx="259" cy="112" r="2"/>
    <circle cx="240" cy="99" r="2"/>
  </g>
  <g stroke="chocolate" stroke-width="1">
    <line x1="309" y1="191" x2="318" y2="191"/>
    <circle cx="309" cy="191" r="2"/>
    <circle cx="318" cy="191" r="2"/>
  </g>
  <g stroke="chocolate" stroke-width="1">
    <line x1="309" y1="191" x2="301" y2="170"/>
    <circle cx="309" cy="191" r="2"/>
    <circle cx="301" cy="170" r="2"/>
  </g>
  <g stroke="chocolate" stroke-width="1">
    <line x1="314" y1="203" x2="309" y2="191"/>
    <circle cx="314" cy="203" r="2"/>
    <circle cx="309" cy="191" r="2"/>
  </g>
  <g stroke="chocolate" stroke-width="1">
    <line x1="26" y1="163" x2="80" y2="91"/>
    <circle cx="26" cy="163" r="2"/>
    <circle cx="80" cy="91" r="2"/>
  </g>
  <g stroke="chocolate" stroke-width="1">
    <line x1="5" y1="191" x2="26" y2="163"/>
    <circle cx="5" cy="191" r="2"/>
    <circle cx="26" cy="163" r="2"/>
  </g>
  <g stroke="chocolate" stroke-width="1">
    <line x1="26" y1="163" x2="5" y2="147"/>
    <circle cx="26" cy="163" r="2"/>
    <circle cx="5" cy="147" r="2"/>
  </g>
  <g stroke="chocolate" stroke-width="1">
    <line x1="63" y1="191" x2="26" y2="163"/>
    <circle cx="63" cy="191" r="2"/>
    <circle cx="26" cy="163" r="2"/>
  </g>
  <g stroke="chocolate" stroke-width="1">
    <line x1="122" y1="147" x2="80" y2="91"/>
    <circle cx="122" cy="147" r="2"/>
    <circle cx="80" cy="91" r="2"/>
  </g>
  <g stroke="chocolate" stroke-width="1">
    <line x1="155" y1="191" x2="122" y2="147"/>
    <circle cx="155" cy="191" r="2"/>
    <circle cx="122" cy="147" r="2"/>
  </g>
  <g stroke="chocolate" stroke-width="1">
    <line x1="122" y1="147" x2="197" y2="91"/>
    <circle cx="122" cy="147" r="2"/>
    <circle cx="197" cy="91" r="2"/>
  </g>
  <g stroke="chocolate" stroke-width="1">
    <line x1="63" y1="191" x2="122" y2="147"/>
    <circle cx="63" cy="191" r="2"/>
    <circle cx="122" cy="147" r="2"/>
  </g>
  <g stroke="chocolate" stroke-width="1">
    <line x1="155" y1="391" x2="213" y2="191"/>
    <circle cx="155" cy="391" r="2"/>
    <circle cx="213" cy="191" r="2"/>
  </g>
  <g stroke="chocolate" stroke-width="1">
    <line x1="5" y1="191" x2="213" y2="191"/>
    <circle cx="5" cy="191" r="2"/>
    <circle cx="213" cy="191" r="2"/>
  </g>
  <g stroke="chocolate" stroke-width="1">
    <line x1="218" y1="107" x2="197" y2="91"/>
    <circle cx="218" cy="107" r="2"/>
    <circle cx="197" cy="91" r="2"/>
  </g>
  <g stroke="chocolate" stroke-width="1">
    <line x1="218" y1="107" x2="230" y2="91"/>
    <circle cx="218" cy="107" r="2"/>
    <circle cx="230" cy="91" r="2"/>
  </g>
  <g stroke="chocolate" stroke-width="1">
    <line x1="155" y1="191" x2="218" y2="107"/>
    <circle cx="155" cy="191" r="2"/>
    <circle cx="218" cy="107" r="2"/>
  </g>
  <g stroke="chocolate" stroke-width="1">
    <line x1="305" y1="235" x2="295" y2="210"/>
    <circle cx="305" cy="235" r="2"/>
    <circle cx="295" cy="210" r="2"/>
  </g>
  <g stroke="chocolate" stroke-width="1">
    <line x1="295" y1="210" x2="314" y2="203"/>
    <circle cx="295" cy="210" r="2"/>
    <circle cx="314" cy="203" r="2"/>
  </g>
  <g stroke="chocolate" stroke-width="1">
    <line x1="197" y1="247" x2="295" y2="210"/>
    <circle cx="197" cy="247" r="2"/>
    <circle cx="295" cy="210" r="2"/>
  </g>
  <g stroke="chocolate" stroke-width="1">
    <line x1="230" y1="291" x2="197" y2="247"/>
    <circle cx="230" cy="291" r="2"/>
    <circle cx="197" cy="247" r="2"/>
  </g>
  <g stroke="chocolate" stroke-width="1">
    <line x1="272" y1="347" x2="230" y2="291"/>
    <circle cx="272" cy="347" r="2"/>
    <circle cx="230" cy="291" r="2"/>
  </g>
  <g stroke="chocolate" stroke-width="1">
    <line x1="230" y1="291" x2="305" y2="235"/>
    <circle cx="230" cy="291" r="2"/>
    <circle cx="305" cy="235" r="2"/>
  </g>
  <g stroke="chocolate" stroke-width="1">
    <line x1="171" y1="335" x2="230" y2="291"/>
    <circle cx="171" cy="335" r="2"/>
    <circle cx="230" cy="291" r="2"/>
  </g>
  <g stroke="chocolate" stroke-width="1">
    <line x1="188" y1="379" x2="171" y2="335"/>
    <circle cx="188" cy="379" r="2"/>
    <circle cx="171" cy="335" r="2"/>
  </g>
  <g stroke="chocolate" stroke-width="1">
    <line x1="197" y1="403" x2="188" y2="379"/>
    <circle cx="197" cy="403" r="2"/>
    <circle cx="188" cy="379" r="2"/>
  </g>
  <g stroke="chocolate" stroke-width="1">
    <line x1="188" y1="379" x2="272" y2="347"/>
    <circle cx="188" cy="379" r="2"/>
    <circle cx="272" cy="347" r="2"/>
  </g>
  <g stroke="chocolate" stroke-width="1">
    <line x1="155" y1="391" x2="188" y2="379"/>
    <circle cx="155" cy="391" r="2"/>
    <circle cx="188" cy="379" r="2"/>
  </g>
  <g stroke="chocolate" stroke-width="1">
    <line x1="318" y1="191" x2="242" y2="91"/>
    <circle cx="318" cy="191" r="2"/>
    <circle cx="242" cy="91" r="2"/>
  </g>
  <g stroke="chocolate" stroke-width="1">
    <line x1="5" y1="191" x2="5" y2="91"/>
    <circle cx="5" cy="191" r="2"/>
    <circle cx="5" cy="91" r="2"/>
  </g>
  <g stroke="chocolate" stroke-width="1">
    <line x1="5" y1="91" x2="242" y2="91"/>
    <circle cx="5" cy="91" r="2"/>
    <circle cx="242" cy="91" r="2"/>
  </g>
  <g stroke="chocolate" stroke-width="1">
    <line x1="5" y1="147" x2="80" y2="91"/>
    <circle cx="5" cy="147" r="2"/>
    <circle cx="80" cy="91" r="2"/>
  </g>
  <g stroke="chocolate" stroke-width="1">
    <line x1="251" y1="419" x2="318" y2="191"/>
    <circle cx="251" cy="419" r="2"/>
    <circle cx="318" cy="191" r="2"/>
  </g>
  <g stroke="chocolate" stroke-width="1">
    <line x1="251" y1="419" x2="155" y2="391"/>
    <circle cx="251" cy="419" r="2"/>
    <circle cx="155" cy="391" r="2"/>
  </g>
  <g stroke="chocolate" stroke-width="1">
    <line x1="197" y1="403" x2="272" y2="347"/>
    <circle cx="197" cy="403" r="2"/>
    <circle cx="272" cy="347" r="2"/>
  </g>
  <g stroke="black" stroke-width="1">
    <line x1="5" y1="5" x2="505" y2="5"/>
    <line x1="5" y1="5" x2="5" y2="505"/>
    <line x1="505" y1="505" x2="5" y2="505"/>
    <line x1="505" y1="505" x2="505" y2="5"/>
    <line x1="105" y1="2" x2="105" y2="8"/>
    <line x1="2" y1="105" x2="8" y2="105"/>
    <line x1="105" y1="502" x2="105" y2="508"/>
    <line x1="502" y1="105" x2="508" y2="105"/>
    <line x1="205" y1="2" x2="205" y2="8"/>
    <line x1="2" y1="205" x2="8" y2="205"/>
    <line x1="205" y1="502" x2="205" y2="508"/>
    <line x1="502" y1="205" x2="508" y2="205"/>
    <line x1="305" y1="2" x2="305" y2="8"/>
    <line x1="2" y1="305" x2="8" y2="305"/>
    <line x1="305" y1="502" x2="305" y2="508"/>
    <line x1="502" y1="305" x2="508" y2="305"/>
    <line x1="405" y1="2" x2="405" y2="8"/>
    <line x1="2" y1="405" x2="8" y2="405"/>
    <line x1="405" y1="502" x2="405" y2="508"/>
    <line x1="502" y1="405" x2="508" y2="405"/>
  </g>
  <g stroke="gray" stroke-width="1" stroke-dasharray="5,5">
    <line x1="105" y1="5" x2="105" y2="505"/>
    <line x1="5" y1="105" x2="505" y2="105"/>
    <line x1="205" y1="5" x2="205" y2="505"/>
    <line x1="5" y1="205" x2="505" y2="205"/>
    <line x1="305" y1="5" x2="305" y2="505"/>
    <line x1="5" y1="305" x2="505" y2="305"/>
    <line x1="405" y1="5" x2="405" y2="505"/>
    <line x1="5" y1="405" x2="505" y2="405"/>
  </g>
</svg>
