<?xml version="1.0" standalone="no"?>
<!DOCTYPE svg PUBLIC "-//W3C//DTD SVG 1.1//EN" 
  "http://www.w3.org/Graphics/SVG/1.1/DTD/svg11.dtd">
<svg width="710" height="710" version="1.1" id="toplevel"
    xmlns="http://www.w3.org/2000/svg"
    xmlns:xlink="http://www.w3.org/1999/xlink">
  <polygon points="329,530 429,455 604,481 705,407 530,381 381,180 180,329 5,303 80,403 255,429"
           fill="bisque"/>
  <g stroke="chocolate" stroke-width="1">
    <line x1="180" y1="329" x2="5" y2="303"/>
    <circle cx="180" cy="329" r="2"/>
    <circle cx="5" cy="303" r="2"/>
  </g>
  <g stroke="chocolate" stroke-width="1">
    <line x1="530" y1="381" x2="180" y2="329"/>
    <circle cx="530" cy="381" r="2"/>
    <circle cx="180" cy="329" r="2"/>
  </g>
  <g stroke="chocolate" stroke-width="1">
    <line x1="180" y1="329" x2="381" y2="180"/>
    <circle cx="180" cy="329" r="2"/>
    <circle cx="381" cy="180" r="2"/>
  </g>
  <g stroke="chocolate" stroke-width="1">
    <line x1="80" y1="403" x2="180" y2="329"/>
    <circle cx="80" cy="403" r="2"/>
    <circle cx="180" cy="329" r="2"/>
  </g>
  <g stroke="chocolate" stroke-width="1">
    <line x1="429" y1="455" x2="255" y2="429"/>
    <circle cx="429" cy="455" r="2"/>
    <circle cx="255" cy="429" r="2"/>
  </g>
  <g stroke="chocolate" stroke-width="1">
    <line x1="604" y1="481" x2="429" y2="455"/>
    <circle cx="604" cy="481" r="2"/>
    <circle cx="429" cy="455" r="2"/>
  </g>
  <g stroke="chocolate" stroke-width="1">
    <line x1="429" y1="455" x2="530" y2="381"/>
    <circle cx="429" cy="455" r="2"/>
    <circle cx="530" cy="381" r="2"/>
  </g>
  <g stroke="chocolate" stroke-width="1">
    <line x1="329" y1="530" x2="429" y2="455"/>
    <circle cx="329" cy="530" r="2"/>
    <circle cx="429" cy="455" r="2"/>
  </g>
  <g stroke="chocolate" stroke-width="1">
    <line x1="530" y1="381" x2="381" y2="180"/>
    <circle cx="530" cy="381" r="2"/>
    <circle cx="381" cy="180" r="2"/>
  </g>
  <g stroke="chocolate" stroke-width="1">
    <line x1="604" y1="481" x2="530" y2="381"/>
    <circle cx="604" cy="481" r="2"/>
    <circle cx="530" cy="381" r="2"/>
  </g>
  <g stroke="chocolate" stroke-width="1">
    <line x1="705" y1="407" x2="530" y2="381"/>
    <circle cx="705" cy="407" r="2"/>
    <circle cx="530" cy="381" r="2"/>
  </g>
  <g stroke="chocolate" stroke-width="1">
    <line x1="255" y1="429" x2="180" y2="329"/>
    <circle cx="255" cy="429" r="2"/>
    <circle cx="180" cy="329" r="2"/>
  </g>
  <g stroke="chocolate" stroke-width="1">
    <line x1="329" y1="530" x2="255" y2="429"/>
    <circle cx="329" cy="530" r="2"/>
    <circle cx="255" cy="429" r="2"/>
  </g>
  <g stroke="chocolate" stroke-width="1">
    <line x1="255" y1="429" x2="80" y2="403"/>
    <circle cx="255" cy="429" r="2"/>
    <circle cx="80" cy="403" r="2"/>
  </g>
  <g stroke="chocolate" stroke-width="1">
    <line x1="604" y1="481" x2="705" y2="407"/>
    <circle cx="604" cy="481" r="2"/>
    <circle cx="705" cy="407" r="2"/>
  </g>
  <g stroke="chocolate" stroke-width="1">
    <line x1="80" y1="403" x2="5" y2="303"/>
    <circle cx="80" cy="403" r="2"/>
    <circle cx="5" cy="303" r="2"/>
  </g>
  <g stroke="black" stroke-width="1">
    <line x1="105" y1="105" x2="605" y2="105"/>
    <line x1="105" y1="105" x2="105" y2="605"/>
    <line x1="605" y1="605" x2="105" y2="605"/>
    <line x1="605" y1="605" x2="605" y2="105"/>
    <line x1="205" y1="102" x2="205" y2="108"/>
    <line x1="102" y1="205" x2="108" y2="205"/>
    <line x1="205" y1="602" x2="205" y2="608"/>
    <line x1="602" y1="205" x2="608" y2="205"/>
    <line x1="305" y1="102" x2="305" y2="108"/>
    <line x1="102" y1="305" x2="108" y2="305"/>
    <line x1="305" y1="602" x2="305" y2="608"/>
    <line x1="602" y1="305" x2="608" y2="305"/>
    <line x1="405" y1="102" x2="405" y2="108"/>
    <line x1="102" y1="405" x2="108" y2="405"/>
    <line x1="405" y1="602" x2="405" y2="608"/>
    <line x1="602" y1="405" x2="608" y2="405"/>
    <line x1="505" y1="102" x2="505" y2="108"/>
    <line x1="102" y1="505" x2="108" y2="505"/>
    <line x1="505" y1="602" x2="505" y2="608"/>
    <line x1="602" y1="505" x2="608" y2="505"/>
  </g>
  <g stroke="gray" stroke-width="1" stroke-dasharray="5,5">
    <line x1="205" y1="105" x2="205" y2="605"/>
    <line x1="105" y1="205" x2="605" y2="205"/>
    <line x1="305" y1="105" x2="305" y2="605"/>
    <line x1="105" y1="305" x2="605" y2="305"/>
    <line x1="405" y1="105" x2="405" y2="605"/>
    <line x1="105" y1="405" x2="605" y2="405"/>
    <line x1="505" y1="105" x2="505" y2="605"/>
    <line x1="105" y1="505" x2="605" y2="505"/>
  </g>
</svg>
