<?xml version="1.0" standalone="no"?>
<!DOCTYPE svg PUBLIC "-//W3C//DTD SVG 1.1//EN" 
  "http://www.w3.org/Graphics/SVG/1.1/DTD/svg11.dtd">
<svg width="526" height="526" version="1.1" id="toplevel"
    xmlns="http://www.w3.org/2000/svg"
    xmlns:xlink="http://www.w3.org/1999/xlink">
  <polygon points="255,521 354,508 356,29 338,5 329,7 305,81 282,103 290,112 209,212 220,238 185,241 176,260 170,292 227,320 221,337 231,341"
           fill="bisque"/>
  <g stroke="chocolate" stroke-width="1">
    <line x1="239" y1="282" x2="220" y2="238"/>
    <circle cx="239" cy="282" r="2"/>
    <circle cx="220" cy="238" r="2"/>
  </g>
  <g stroke="chocolate" stroke-width="1">
    <line x1="243" y1="292" x2="239" y2="282"/>
    <circle cx="243" cy="292" r="2"/>
    <circle cx="239" cy="282" r="2"/>
  </g>
  <g stroke="chocolate" stroke-width="1">
    <line x1="239" y1="282" x2="254" y2="235"/>
    <circle cx="239" cy="282" r="2"/>
    <circle cx="254" cy="235" r="2"/>
  </g>
  <g stroke="chocolate" stroke-width="1">
    <line x1="231" y1="305" x2="239" y2="282"/>
    <circle cx="231" cy="305" r="2"/>
    <circle cx="239" cy="282" r="2"/>
  </g>
  <g stroke="chocolate" stroke-width="1">
    <line x1="267" y1="354" x2="231" y2="341"/>
    <circle cx="267" cy="354" r="2"/>
    <circle cx="231" cy="341" r="2"/>
  </g>
  <g stroke="chocolate" stroke-width="1">
    <line x1="270" y1="356" x2="267" y2="354"/>
    <circle cx="270" cy="356" r="2"/>
    <circle cx="267" cy="354" r="2"/>
  </g>
  <g stroke="chocolate" stroke-width="1">
    <line x1="267" y1="354" x2="251" y2="332"/>
    <circle cx="267" cy="354" r="2"/>
    <circle cx="251" cy="332" r="2"/>
  </g>
  <g stroke="chocolate" stroke-width="1">
    <line x1="274" y1="364" x2="267" y2="354"/>
    <circle cx="274" cy="364" r="2"/>
    <circle cx="267" cy="354" r="2"/>
  </g>
  <g stroke="chocolate" stroke-width="1">
    <line x1="245" y1="297" x2="243" y2="292"/>
    <circle cx="245" cy="297" r="2"/>
    <circle cx="243" cy="292" r="2"/>
  </g>
  <g stroke="chocolate" stroke-width="1">
    <line x1="263" y1="337" x2="245" y2="297"/>
    <circle cx="263" cy="337" r="2"/>
    <circle cx="245" cy="297" r="2"/>
  </g>
  <g stroke="chocolate" stroke-width="1">
    <line x1="245" y1="297" x2="310" y2="230"/>
    <circle cx="245" cy="297" r="2"/>
    <circle cx="310" cy="230" r="2"/>
  </g>
  <g stroke="chocolate" stroke-width="1">
    <line x1="241" y1="302" x2="245" y2="297"/>
    <circle cx="241" cy="302" r="2"/>
    <circle cx="245" cy="297" r="2"/>
  </g>
  <g stroke="chocolate" stroke-width="1">
    <line x1="260" y1="217" x2="293" y2="115"/>
    <circle cx="260" cy="217" r="2"/>
    <circle cx="293" cy="115" r="2"/>
  </g>
  <g stroke="chocolate" stroke-width="1">
    <line x1="254" y1="235" x2="260" y2="217"/>
    <circle cx="254" cy="235" r="2"/>
    <circle cx="260" cy="217" r="2"/>
  </g>
  <g stroke="chocolate" stroke-width="1">
    <line x1="260" y1="217" x2="209" y2="212"/>
    <circle cx="260" cy="217" r="2"/>
    <circle cx="209" cy="212" r="2"/>
  </g>
  <g stroke="chocolate" stroke-width="1">
    <line x1="264" y1="217" x2="260" y2="217"/>
    <circle cx="264" cy="217" r="2"/>
    <circle cx="260" cy="217" r="2"/>
  </g>
  <g stroke="chocolate" stroke-width="1">
    <line x1="238" y1="313" x2="241" y2="302"/>
    <circle cx="238" cy="313" r="2"/>
    <circle cx="241" cy="302" r="2"/>
  </g>
  <g stroke="chocolate" stroke-width="1">
    <line x1="235" y1="324" x2="238" y2="313"/>
    <circle cx="235" cy="324" r="2"/>
    <circle cx="238" cy="313" r="2"/>
  </g>
  <g stroke="chocolate" stroke-width="1">
    <line x1="238" y1="313" x2="234" y2="309"/>
    <circle cx="238" cy="313" r="2"/>
    <circle cx="234" cy="309" r="2"/>
  </g>
  <g stroke="chocolate" stroke-width="1">
    <line x1="251" y1="332" x2="238" y2="313"/>
    <circle cx="251" cy="332" r="2"/>
    <circle cx="238" cy="313" r="2"/>
  </g>
  <g stroke="chocolate" stroke-width="1">
    <line x1="270" y1="356" x2="263" y2="337"/>
    <circle cx="270" cy="356" r="2"/>
    <circle cx="263" cy="337" r="2"/>
  </g>
  <g stroke="chocolate" stroke-width="1">
    <line x1="263" y1="337" x2="251" y2="332"/>
    <circle cx="263" cy="337" r="2"/>
    <circle cx="251" cy="332" r="2"/>
  </g>
  <g stroke="chocolate" stroke-width="1">
    <line x1="355" y1="382" x2="263" y2="337"/>
    <circle cx="355" cy="382" r="2"/>
    <circle cx="263" cy="337" r="2"/>
  </g>
  <g stroke="chocolate" stroke-width="1">
    <line x1="298" y1="102" x2="305" y2="81"/>
    <circle cx="298" cy="102" r="2"/>
    <circle cx="305" cy="81" r="2"/>
  </g>
  <g stroke="chocolate" stroke-width="1">
    <line x1="293" y1="115" x2="298" y2="102"/>
    <circle cx="293" cy="115" r="2"/>
    <circle cx="298" cy="102" r="2"/>
  </g>
  <g stroke="chocolate" stroke-width="1">
    <line x1="298" y1="102" x2="303" y2="95"/>
    <circle cx="298" cy="102" r="2"/>
    <circle cx="303" cy="95" r="2"/>
  </g>
  <g stroke="chocolate" stroke-width="1">
    <line x1="290" y1="112" x2="298" y2="102"/>
    <circle cx="290" cy="112" r="2"/>
    <circle cx="298" cy="102" r="2"/>
  </g>
  <g stroke="chocolate" stroke-width="1">
    <line x1="293" y1="115" x2="290" y2="112"/>
    <circle cx="293" cy="115" r="2"/>
    <circle cx="290" cy="112" r="2"/>
  </g>
  <g stroke="chocolate" stroke-width="1">
    <line x1="295" y1="117" x2="293" y2="115"/>
    <circle cx="295" cy="117" r="2"/>
    <circle cx="293" cy="115" r="2"/>
  </g>
  <g stroke="chocolate" stroke-width="1">
    <line x1="311" y1="75" x2="335" y2="12"/>
    <circle cx="311" cy="75" r="2"/>
    <circle cx="335" cy="12" r="2"/>
  </g>
  <g stroke="chocolate" stroke-width="1">
    <line x1="303" y1="95" x2="311" y2="75"/>
    <circle cx="303" cy="95" r="2"/>
    <circle cx="311" cy="75" r="2"/>
  </g>
  <g stroke="chocolate" stroke-width="1">
    <line x1="311" y1="75" x2="344" y2="44"/>
    <circle cx="311" cy="75" r="2"/>
    <circle cx="344" cy="44" r="2"/>
  </g>
  <g stroke="chocolate" stroke-width="1">
    <line x1="305" y1="81" x2="311" y2="75"/>
    <circle cx="305" cy="81" r="2"/>
    <circle cx="311" cy="75" r="2"/>
  </g>
  <g stroke="chocolate" stroke-width="1">
    <line x1="243" y1="292" x2="259" y2="234"/>
    <circle cx="243" cy="292" r="2"/>
    <circle cx="259" cy="234" r="2"/>
  </g>
  <g stroke="chocolate" stroke-width="1">
    <line x1="241" y1="302" x2="243" y2="292"/>
    <circle cx="241" cy="302" r="2"/>
    <circle cx="243" cy="292" r="2"/>
  </g>
  <g stroke="chocolate" stroke-width="1">
    <line x1="235" y1="324" x2="229" y2="321"/>
    <circle cx="235" cy="324" r="2"/>
    <circle cx="229" cy="321" r="2"/>
  </g>
  <g stroke="chocolate" stroke-width="1">
    <line x1="251" y1="332" x2="235" y2="324"/>
    <circle cx="251" cy="332" r="2"/>
    <circle cx="235" cy="324" r="2"/>
  </g>
  <g stroke="chocolate" stroke-width="1">
    <line x1="231" y1="338" x2="235" y2="324"/>
    <circle cx="231" cy="338" r="2"/>
    <circle cx="235" cy="324" r="2"/>
  </g>
  <g stroke="chocolate" stroke-width="1">
    <line x1="227" y1="320" x2="231" y2="305"/>
    <circle cx="227" cy="320" r="2"/>
    <circle cx="231" cy="305" r="2"/>
  </g>
  <g stroke="chocolate" stroke-width="1">
    <line x1="231" y1="305" x2="185" y2="241"/>
    <circle cx="231" cy="305" r="2"/>
    <circle cx="185" cy="241" r="2"/>
  </g>
  <g stroke="chocolate" stroke-width="1">
    <line x1="234" y1="309" x2="231" y2="305"/>
    <circle cx="234" cy="309" r="2"/>
    <circle cx="231" cy="305" r="2"/>
  </g>
  <g stroke="chocolate" stroke-width="1">
    <line x1="335" y1="12" x2="338" y2="5"/>
    <circle cx="335" cy="12" r="2"/>
    <circle cx="338" cy="5" r="2"/>
  </g>
  <g stroke="chocolate" stroke-width="1">
    <line x1="335" y1="12" x2="329" y2="7"/>
    <circle cx="335" cy="12" r="2"/>
    <circle cx="329" cy="7" r="2"/>
  </g>
  <g stroke="chocolate" stroke-width="1">
    <line x1="354" y1="31" x2="335" y2="12"/>
    <circle cx="354" cy="31" r="2"/>
    <circle cx="335" cy="12" r="2"/>
  </g>
  <g stroke="chocolate" stroke-width="1">
    <line x1="231" y1="341" x2="231" y2="338"/>
    <circle cx="231" cy="341" r="2"/>
    <circle cx="231" cy="338" r="2"/>
  </g>
  <g stroke="chocolate" stroke-width="1">
    <line x1="255" y1="521" x2="231" y2="341"/>
    <circle cx="255" cy="521" r="2"/>
    <circle cx="231" cy="341" r="2"/>
  </g>
  <g stroke="chocolate" stroke-width="1">
    <line x1="231" y1="341" x2="221" y2="337"/>
    <circle cx="231" cy="341" r="2"/>
    <circle cx="221" cy="337" r="2"/>
  </g>
  <g stroke="chocolate" stroke-width="1">
    <line x1="304" y1="406" x2="274" y2="364"/>
    <circle cx="304" cy="406" r="2"/>
    <circle cx="274" cy="364" r="2"/>
  </g>
  <g stroke="chocolate" stroke-width="1">
    <line x1="274" y1="364" x2="270" y2="356"/>
    <circle cx="274" cy="364" r="2"/>
    <circle cx="270" cy="356" r="2"/>
  </g>
  <g stroke="chocolate" stroke-width="1">
    <line x1="334" y1="505" x2="274" y2="364"/>
    <circle cx="334" cy="505" r="2"/>
    <circle cx="274" cy="364" r="2"/>
  </g>
  <g stroke="chocolate" stroke-width="1">
    <line x1="310" y1="230" x2="355" y2="226"/>
    <circle cx="310" cy="230" r="2"/>
    <circle cx="355" cy="226" r="2"/>
  </g>
  <g stroke="chocolate" stroke-width="1">
    <line x1="259" y1="234" x2="310" y2="230"/>
    <circle cx="259" cy="234" r="2"/>
    <circle cx="310" cy="230" r="2"/>
  </g>
  <g stroke="chocolate" stroke-width="1">
    <line x1="310" y1="230" x2="317" y2="222"/>
    <circle cx="310" cy="230" r="2"/>
    <circle cx="317" cy="222" r="2"/>
  </g>
  <g stroke="chocolate" stroke-width="1">
    <line x1="264" y1="217" x2="281" y2="152"/>
    <circle cx="264" cy="217" r="2"/>
    <circle cx="281" cy="152" r="2"/>
  </g>
  <g stroke="chocolate" stroke-width="1">
    <line x1="259" y1="234" x2="264" y2="217"/>
    <circle cx="259" cy="234" r="2"/>
    <circle cx="264" cy="217" r="2"/>
  </g>
  <g stroke="chocolate" stroke-width="1">
    <line x1="317" y1="222" x2="264" y2="217"/>
    <circle cx="317" cy="222" r="2"/>
    <circle cx="264" cy="217" r="2"/>
  </g>
  <g stroke="chocolate" stroke-width="1">
    <line x1="220" y1="238" x2="209" y2="212"/>
    <circle cx="220" cy="238" r="2"/>
    <circle cx="209" cy="212" r="2"/>
  </g>
  <g stroke="chocolate" stroke-width="1">
    <line x1="220" y1="238" x2="254" y2="235"/>
    <circle cx="220" cy="238" r="2"/>
    <circle cx="254" cy="235" r="2"/>
  </g>
  <g stroke="chocolate" stroke-width="1">
    <line x1="185" y1="241" x2="220" y2="238"/>
    <circle cx="185" cy="241" r="2"/>
    <circle cx="220" cy="238" r="2"/>
  </g>
  <g stroke="chocolate" stroke-width="1">
    <line x1="227" y1="320" x2="170" y2="292"/>
    <circle cx="227" cy="320" r="2"/>
    <circle cx="170" cy="292" r="2"/>
  </g>
  <g stroke="chocolate" stroke-width="1">
    <line x1="229" y1="321" x2="227" y2="320"/>
    <circle cx="229" cy="321" r="2"/>
    <circle cx="227" cy="320" r="2"/>
  </g>
  <g stroke="chocolate" stroke-width="1">
    <line x1="221" y1="337" x2="227" y2="320"/>
    <circle cx="221" cy="337" r="2"/>
    <circle cx="227" cy="320" r="2"/>
  </g>
  <g stroke="chocolate" stroke-width="1">
    <line x1="209" y1="212" x2="290" y2="112"/>
    <circle cx="209" cy="212" r="2"/>
    <circle cx="290" cy="112" r="2"/>
  </g>
  <g stroke="chocolate" stroke-width="1">
    <line x1="290" y1="112" x2="282" y2="103"/>
    <circle cx="290" cy="112" r="2"/>
    <circle cx="282" cy="103" r="2"/>
  </g>
  <g stroke="chocolate" stroke-width="1">
    <line x1="305" y1="81" x2="329" y2="7"/>
    <circle cx="305" cy="81" r="2"/>
    <circle cx="329" cy="7" r="2"/>
  </g>
  <g stroke="chocolate" stroke-width="1">
    <line x1="282" y1="103" x2="305" y2="81"/>
    <circle cx="282" cy="103" r="2"/>
    <circle cx="305" cy="81" r="2"/>
  </g>
  <g stroke="chocolate" stroke-width="1">
    <line x1="295" y1="117" x2="303" y2="95"/>
    <circle cx="295" cy="117" r="2"/>
    <circle cx="303" cy="95" r="2"/>
  </g>
  <g stroke="chocolate" stroke-width="1">
    <line x1="303" y1="95" x2="344" y2="44"/>
    <circle cx="303" cy="95" r="2"/>
    <circle cx="344" cy="44" r="2"/>
  </g>
  <g stroke="chocolate" stroke-width="1">
    <line x1="254" y1="235" x2="259" y2="234"/>
    <circle cx="254" cy="235" r="2"/>
    <circle cx="259" cy="234" r="2"/>
  </g>
  <g stroke="chocolate" stroke-width="1">
    <line x1="231" y1="338" x2="229" y2="321"/>
    <circle cx="231" cy="338" r="2"/>
    <circle cx="229" cy="321" r="2"/>
  </g>
  <g stroke="chocolate" stroke-width="1">
    <line x1="231" y1="339" x2="231" y2="338"/>
    <circle cx="231" cy="339" r="2"/>
    <circle cx="231" cy="338" r="2"/>
  </g>
  <g stroke="chocolate" stroke-width="1">
    <line x1="234" y1="309" x2="241" y2="302"/>
    <circle cx="234" cy="309" r="2"/>
    <circle cx="241" cy="302" r="2"/>
  </g>
  <g stroke="chocolate" stroke-width="1">
    <line x1="228" y1="315" x2="234" y2="309"/>
    <circle cx="228" cy="315" r="2"/>
    <circle cx="234" cy="309" r="2"/>
  </g>
  <g stroke="chocolate" stroke-width="1">
    <line x1="305" y1="407" x2="304" y2="406"/>
    <circle cx="305" cy="407" r="2"/>
    <circle cx="304" cy="406" r="2"/>
  </g>
  <g stroke="chocolate" stroke-width="1">
    <line x1="304" y1="406" x2="348" y2="385"/>
    <circle cx="304" cy="406" r="2"/>
    <circle cx="348" cy="385" r="2"/>
  </g>
  <g stroke="chocolate" stroke-width="1">
    <line x1="294" y1="411" x2="304" y2="406"/>
    <circle cx="294" cy="411" r="2"/>
    <circle cx="304" cy="406" r="2"/>
  </g>
  <g stroke="chocolate" stroke-width="1">
    <line x1="354" y1="31" x2="356" y2="29"/>
    <circle cx="354" cy="31" r="2"/>
    <circle cx="356" cy="29" r="2"/>
  </g>
  <g stroke="chocolate" stroke-width="1">
    <line x1="344" y1="44" x2="354" y2="31"/>
    <circle cx="344" cy="44" r="2"/>
    <circle cx="354" cy="31" r="2"/>
  </g>
  <g stroke="chocolate" stroke-width="1">
    <line x1="356" y1="33" x2="354" y2="31"/>
    <circle cx="356" cy="33" r="2"/>
    <circle cx="354" cy="31" r="2"/>
  </g>
  <g stroke="chocolate" stroke-width="1">
    <line x1="348" y1="385" x2="270" y2="356"/>
    <circle cx="348" cy="385" r="2"/>
    <circle cx="270" cy="356" r="2"/>
  </g>
  <g stroke="chocolate" stroke-width="1">
    <line x1="317" y1="222" x2="356" y2="182"/>
    <circle cx="317" cy="222" r="2"/>
    <circle cx="356" cy="182" r="2"/>
  </g>
  <g stroke="chocolate" stroke-width="1">
    <line x1="355" y1="226" x2="317" y2="222"/>
    <circle cx="355" cy="226" r="2"/>
    <circle cx="317" cy="222" r="2"/>
  </g>
  <g stroke="chocolate" stroke-width="1">
    <line x1="229" y1="321" x2="228" y2="315"/>
    <circle cx="229" cy="321" r="2"/>
    <circle cx="228" cy="315" r="2"/>
  </g>
  <g stroke="chocolate" stroke-width="1">
    <line x1="356" y1="182" x2="295" y2="117"/>
    <circle cx="356" cy="182" r="2"/>
    <circle cx="295" cy="117" r="2"/>
  </g>
  <g stroke="chocolate" stroke-width="1">
    <line x1="281" y1="152" x2="295" y2="117"/>
    <circle cx="281" cy="152" r="2"/>
    <circle cx="295" cy="117" r="2"/>
  </g>
  <g stroke="chocolate" stroke-width="1">
    <line x1="344" y1="44" x2="356" y2="33"/>
    <circle cx="344" cy="44" r="2"/>
    <circle cx="356" cy="33" r="2"/>
  </g>
  <g stroke="chocolate" stroke-width="1">
    <line x1="354" y1="476" x2="305" y2="407"/>
    <circle cx="354" cy="476" r="2"/>
    <circle cx="305" cy="407" r="2"/>
  </g>
  <g stroke="chocolate" stroke-width="1">
    <line x1="305" y1="407" x2="355" y2="388"/>
    <circle cx="305" cy="407" r="2"/>
    <circle cx="355" cy="388" r="2"/>
  </g>
  <g stroke="chocolate" stroke-width="1">
    <line x1="294" y1="411" x2="305" y2="407"/>
    <circle cx="294" cy="411" r="2"/>
    <circle cx="305" cy="407" r="2"/>
  </g>
  <g stroke="chocolate" stroke-width="1">
    <line x1="355" y1="388" x2="348" y2="385"/>
    <circle cx="355" cy="388" r="2"/>
    <circle cx="348" cy="385" r="2"/>
  </g>
  <g stroke="chocolate" stroke-width="1">
    <line x1="348" y1="385" x2="355" y2="382"/>
    <circle cx="348" cy="385" r="2"/>
    <circle cx="355" cy="382" r="2"/>
  </g>
  <g stroke="chocolate" stroke-width="1">
    <line x1="356" y1="29" x2="338" y2="5"/>
    <circle cx="356" cy="29" r="2"/>
    <circle cx="338" cy="5" r="2"/>
  </g>
  <g stroke="chocolate" stroke-width="1">
    <line x1="329" y1="7" x2="338" y2="5"/>
    <circle cx="329" cy="7" r="2"/>
    <circle cx="338" cy="5" r="2"/>
  </g>
  <g stroke="chocolate" stroke-width="1">
    <line x1="231" y1="339" x2="221" y2="337"/>
    <circle cx="231" cy="339" r="2"/>
    <circle cx="221" cy="337" r="2"/>
  </g>
  <g stroke="chocolate" stroke-width="1">
    <line x1="178" y1="292" x2="176" y2="260"/>
    <circle cx="178" cy="292" r="2"/>
    <circle cx="176" cy="260" r="2"/>
  </g>
  <g stroke="chocolate" stroke-width="1">
    <line x1="354" y1="508" x2="356" y2="29"/>
    <circle cx="354" cy="508" r="2"/>
    <circle cx="356" cy="29" r="2"/>
  </g>
  <g stroke="chocolate" stroke-width="1">
    <line x1="170" y1="292" x2="178" y2="292"/>
    <circle cx="170" cy="292" r="2"/>
    <circle cx="178" cy="292" r="2"/>
  </g>
  <g stroke="chocolate" stroke-width="1">
    <line x1="354" y1="508" x2="334" y2="505"/>
    <circle cx="354" cy="508" r="2"/>
    <circle cx="334" cy="505" r="2"/>
  </g>
  <g stroke="chocolate" stroke-width="1">
    <line x1="170" y1="292" x2="176" y2="260"/>
    <circle cx="170" cy="292" r="2"/>
    <circle cx="176" cy="260" r="2"/>
  </g>
  <g stroke="chocolate" stroke-width="1">
    <line x1="176" y1="260" x2="185" y2="241"/>
    <circle cx="176" cy="260" r="2"/>
    <circle cx="185" cy="241" r="2"/>
  </g>
  <g stroke="chocolate" stroke-width="1">
    <line x1="255" y1="521" x2="354" y2="508"/>
    <circle cx="255" cy="521" r="2"/>
    <circle cx="354" cy="508" r="2"/>
  </g>
  <g stroke="chocolate" stroke-width="1">
    <line x1="334" y1="505" x2="354" y2="476"/>
    <circle cx="334" cy="505" r="2"/>
    <circle cx="354" cy="476" r="2"/>
  </g>
  <g stroke="black" stroke-width="1">
    <line x1="13" y1="13" x2="513" y2="13"/>
    <line x1="13" y1="13" x2="13" y2="513"/>
    <line x1="513" y1="513" x2="13" y2="513"/>
    <line x1="513" y1="513" x2="513" y2="13"/>
    <line x1="113" y1="10" x2="113" y2="16"/>
    <line x1="10" y1="113" x2="16" y2="113"/>
    <line x1="113" y1="510" x2="113" y2="516"/>
    <line x1="510" y1="113" x2="516" y2="113"/>
    <line x1="213" y1="10" x2="213" y2="16"/>
    <line x1="10" y1="213" x2="16" y2="213"/>
    <line x1="213" y1="510" x2="213" y2="516"/>
    <line x1="510" y1="213" x2="516" y2="213"/>
    <line x1="313" y1="10" x2="313" y2="16"/>
    <line x1="10" y1="313" x2="16" y2="313"/>
    <line x1="313" y1="510" x2="313" y2="516"/>
    <line x1="510" y1="313" x2="516" y2="313"/>
    <line x1="413" y1="10" x2="413" y2="16"/>
    <line x1="10" y1="413" x2="16" y2="413"/>
    <line x1="413" y1="510" x2="413" y2="516"/>
    <line x1="510" y1="413" x2="516" y2="413"/>
  </g>
  <g stroke="gray" stroke-width="1" stroke-dasharray="5,5">
    <line x1="113" y1="13" x2="113" y2="513"/>
    <line x1="13" y1="113" x2="513" y2="113"/>
    <line x1="213" y1="13" x2="213" y2="513"/>
    <line x1="13" y1="213" x2="513" y2="213"/>
    <line x1="313" y1="13" x2="313" y2="513"/>
    <line x1="13" y1="313" x2="513" y2="313"/>
    <line x1="413" y1="13" x2="413" y2="513"/>
    <line x1="13" y1="413" x2="513" y2="413"/>
  </g>
</svg>
