<?xml version="1.0" standalone="no"?>
<!DOCTYPE svg PUBLIC "-//W3C//DTD SVG 1.1//EN" 
  "http://www.w3.org/Graphics/SVG/1.1/DTD/svg11.dtd">
<svg width="510" height="510" version="1.1" id="toplevel"
    xmlns="http://www.w3.org/2000/svg"
    xmlns:xlink="http://www.w3.org/1999/xlink">
  <polygon points="192,457 252,411 242,235 271,146 313,154 326,147 333,156 394,182 426,109 418,96 251,53 149,95 84,327 98,338 99,337"
           fill="bisque"/>
  <g stroke="chocolate" stroke-width="1">
    <line x1="258" y1="144" x2="280" y2="116"/>
    <circle cx="258" cy="144" r="2"/>
    <circle cx="280" cy="116" r="2"/>
  </g>
  <g stroke="chocolate" stroke-width="1">
    <line x1="238" y1="168" x2="258" y2="144"/>
    <circle cx="238" cy="168" r="2"/>
    <circle cx="258" cy="144" r="2"/>
  </g>
  <g stroke="chocolate" stroke-width="1">
    <line x1="258" y1="144" x2="236" y2="140"/>
    <circle cx="258" cy="144" r="2"/>
    <circle cx="236" cy="140" r="2"/>
  </g>
  <g stroke="chocolate" stroke-width="1">
    <line x1="271" y1="146" x2="258" y2="144"/>
    <circle cx="271" cy="146" r="2"/>
    <circle cx="258" cy="144" r="2"/>
  </g>
  <g stroke="chocolate" stroke-width="1">
    <line x1="242" y1="235" x2="271" y2="146"/>
    <circle cx="242" cy="235" r="2"/>
    <circle cx="271" cy="146" r="2"/>
  </g>
  <g stroke="chocolate" stroke-width="1">
    <line x1="220" y1="299" x2="242" y2="235"/>
    <circle cx="220" cy="299" r="2"/>
    <circle cx="242" cy="235" r="2"/>
  </g>
  <g stroke="chocolate" stroke-width="1">
    <line x1="242" y1="235" x2="238" y2="168"/>
    <circle cx="242" cy="235" r="2"/>
    <circle cx="238" cy="168" r="2"/>
  </g>
  <g stroke="chocolate" stroke-width="1">
    <line x1="252" y1="411" x2="242" y2="235"/>
    <circle cx="252" cy="411" r="2"/>
    <circle cx="242" cy="235" r="2"/>
  </g>
  <g stroke="chocolate" stroke-width="1">
    <line x1="149" y1="276" x2="153" y2="272"/>
    <circle cx="149" cy="276" r="2"/>
    <circle cx="153" cy="272" r="2"/>
  </g>
  <g stroke="chocolate" stroke-width="1">
    <line x1="125" y1="306" x2="149" y2="276"/>
    <circle cx="125" cy="306" r="2"/>
    <circle cx="149" cy="276" r="2"/>
  </g>
  <g stroke="chocolate" stroke-width="1">
    <line x1="149" y1="276" x2="103" y2="260"/>
    <circle cx="149" cy="276" r="2"/>
    <circle cx="103" cy="260" r="2"/>
  </g>
  <g stroke="chocolate" stroke-width="1">
    <line x1="178" y1="286" x2="149" y2="276"/>
    <circle cx="178" cy="286" r="2"/>
    <circle cx="149" cy="276" r="2"/>
  </g>
  <g stroke="chocolate" stroke-width="1">
    <line x1="120" y1="312" x2="125" y2="306"/>
    <circle cx="120" cy="312" r="2"/>
    <circle cx="125" cy="306" r="2"/>
  </g>
  <g stroke="chocolate" stroke-width="1">
    <line x1="125" y1="306" x2="178" y2="286"/>
    <circle cx="125" cy="306" r="2"/>
    <circle cx="178" cy="286" r="2"/>
  </g>
  <g stroke="chocolate" stroke-width="1">
    <line x1="110" y1="312" x2="125" y2="306"/>
    <circle cx="110" cy="312" r="2"/>
    <circle cx="125" cy="306" r="2"/>
  </g>
  <g stroke="chocolate" stroke-width="1">
    <line x1="280" y1="116" x2="282" y2="114"/>
    <circle cx="280" cy="116" r="2"/>
    <circle cx="282" cy="114" r="2"/>
  </g>
  <g stroke="chocolate" stroke-width="1">
    <line x1="280" y1="116" x2="232" y2="61"/>
    <circle cx="280" cy="116" r="2"/>
    <circle cx="232" cy="61" r="2"/>
  </g>
  <g stroke="chocolate" stroke-width="1">
    <line x1="281" y1="117" x2="280" y2="116"/>
    <circle cx="281" cy="117" r="2"/>
    <circle cx="280" cy="116" r="2"/>
  </g>
  <g stroke="chocolate" stroke-width="1">
    <line x1="188" y1="229" x2="238" y2="168"/>
    <circle cx="188" cy="229" r="2"/>
    <circle cx="238" cy="168" r="2"/>
  </g>
  <g stroke="chocolate" stroke-width="1">
    <line x1="153" y1="272" x2="188" y2="229"/>
    <circle cx="153" cy="272" r="2"/>
    <circle cx="188" cy="229" r="2"/>
  </g>
  <g stroke="chocolate" stroke-width="1">
    <line x1="188" y1="229" x2="180" y2="113"/>
    <circle cx="188" cy="229" r="2"/>
    <circle cx="180" cy="113" r="2"/>
  </g>
  <g stroke="chocolate" stroke-width="1">
    <line x1="193" y1="290" x2="188" y2="229"/>
    <circle cx="193" cy="290" r="2"/>
    <circle cx="188" cy="229" r="2"/>
  </g>
  <g stroke="chocolate" stroke-width="1">
    <line x1="99" y1="337" x2="110" y2="324"/>
    <circle cx="99" cy="337" r="2"/>
    <circle cx="110" cy="324" r="2"/>
  </g>
  <g stroke="chocolate" stroke-width="1">
    <line x1="98" y1="338" x2="99" y2="337"/>
    <circle cx="98" cy="338" r="2"/>
    <circle cx="99" cy="337" r="2"/>
  </g>
  <g stroke="chocolate" stroke-width="1">
    <line x1="99" y1="337" x2="91" y2="326"/>
    <circle cx="99" cy="337" r="2"/>
    <circle cx="91" cy="326" r="2"/>
  </g>
  <g stroke="chocolate" stroke-width="1">
    <line x1="192" y1="457" x2="99" y2="337"/>
    <circle cx="192" cy="457" r="2"/>
    <circle cx="99" cy="337" r="2"/>
  </g>
  <g stroke="chocolate" stroke-width="1">
    <line x1="271" y1="146" x2="281" y2="117"/>
    <circle cx="271" cy="146" r="2"/>
    <circle cx="281" cy="117" r="2"/>
  </g>
  <g stroke="chocolate" stroke-width="1">
    <line x1="313" y1="154" x2="271" y2="146"/>
    <circle cx="313" cy="154" r="2"/>
    <circle cx="271" cy="146" r="2"/>
  </g>
  <g stroke="chocolate" stroke-width="1">
    <line x1="238" y1="168" x2="236" y2="140"/>
    <circle cx="238" cy="168" r="2"/>
    <circle cx="236" cy="140" r="2"/>
  </g>
  <g stroke="chocolate" stroke-width="1">
    <line x1="110" y1="324" x2="110" y2="323"/>
    <circle cx="110" cy="324" r="2"/>
    <circle cx="110" cy="323" r="2"/>
  </g>
  <g stroke="chocolate" stroke-width="1">
    <line x1="110" y1="324" x2="109" y2="324"/>
    <circle cx="110" cy="324" r="2"/>
    <circle cx="109" cy="324" r="2"/>
  </g>
  <g stroke="chocolate" stroke-width="1">
    <line x1="252" y1="411" x2="110" y2="324"/>
    <circle cx="252" cy="411" r="2"/>
    <circle cx="110" cy="324" r="2"/>
  </g>
  <g stroke="chocolate" stroke-width="1">
    <line x1="110" y1="323" x2="120" y2="312"/>
    <circle cx="110" cy="323" r="2"/>
    <circle cx="120" cy="312" r="2"/>
  </g>
  <g stroke="chocolate" stroke-width="1">
    <line x1="110" y1="323" x2="194" y2="312"/>
    <circle cx="110" cy="323" r="2"/>
    <circle cx="194" cy="312" r="2"/>
  </g>
  <g stroke="chocolate" stroke-width="1">
    <line x1="109" y1="324" x2="110" y2="323"/>
    <circle cx="109" cy="324" r="2"/>
    <circle cx="110" cy="323" r="2"/>
  </g>
  <g stroke="chocolate" stroke-width="1">
    <line x1="291" y1="103" x2="287" y2="98"/>
    <circle cx="291" cy="103" r="2"/>
    <circle cx="287" cy="98" r="2"/>
  </g>
  <g stroke="chocolate" stroke-width="1">
    <line x1="326" y1="147" x2="291" y2="103"/>
    <circle cx="326" cy="147" r="2"/>
    <circle cx="291" cy="103" r="2"/>
  </g>
  <g stroke="chocolate" stroke-width="1">
    <line x1="291" y1="103" x2="291" y2="103"/>
    <circle cx="291" cy="103" r="2"/>
    <circle cx="291" cy="103" r="2"/>
  </g>
  <g stroke="chocolate" stroke-width="1">
    <line x1="282" y1="114" x2="291" y2="103"/>
    <circle cx="282" cy="114" r="2"/>
    <circle cx="291" cy="103" r="2"/>
  </g>
  <g stroke="chocolate" stroke-width="1">
    <line x1="324" y1="105" x2="291" y2="103"/>
    <circle cx="324" cy="105" r="2"/>
    <circle cx="291" cy="103" r="2"/>
  </g>
  <g stroke="chocolate" stroke-width="1">
    <line x1="397" y1="108" x2="324" y2="105"/>
    <circle cx="397" cy="108" r="2"/>
    <circle cx="324" cy="105" r="2"/>
  </g>
  <g stroke="chocolate" stroke-width="1">
    <line x1="324" y1="105" x2="318" y2="70"/>
    <circle cx="324" cy="105" r="2"/>
    <circle cx="318" cy="70" r="2"/>
  </g>
  <g stroke="chocolate" stroke-width="1">
    <line x1="331" y1="144" x2="324" y2="105"/>
    <circle cx="331" cy="144" r="2"/>
    <circle cx="324" cy="105" r="2"/>
  </g>
  <g stroke="chocolate" stroke-width="1">
    <line x1="333" y1="156" x2="326" y2="147"/>
    <circle cx="333" cy="156" r="2"/>
    <circle cx="326" cy="147" r="2"/>
  </g>
  <g stroke="chocolate" stroke-width="1">
    <line x1="326" y1="147" x2="331" y2="144"/>
    <circle cx="326" cy="147" r="2"/>
    <circle cx="331" cy="144" r="2"/>
  </g>
  <g stroke="chocolate" stroke-width="1">
    <line x1="313" y1="154" x2="326" y2="147"/>
    <circle cx="313" cy="154" r="2"/>
    <circle cx="326" cy="147" r="2"/>
  </g>
  <g stroke="chocolate" stroke-width="1">
    <line x1="120" y1="312" x2="194" y2="312"/>
    <circle cx="120" cy="312" r="2"/>
    <circle cx="194" cy="312" r="2"/>
  </g>
  <g stroke="chocolate" stroke-width="1">
    <line x1="110" y1="312" x2="120" y2="312"/>
    <circle cx="110" cy="312" r="2"/>
    <circle cx="120" cy="312" r="2"/>
  </g>
  <g stroke="chocolate" stroke-width="1">
    <line x1="193" y1="290" x2="178" y2="286"/>
    <circle cx="193" cy="290" r="2"/>
    <circle cx="178" cy="286" r="2"/>
  </g>
  <g stroke="chocolate" stroke-width="1">
    <line x1="178" y1="286" x2="192" y2="280"/>
    <circle cx="178" cy="286" r="2"/>
    <circle cx="192" cy="280" r="2"/>
  </g>
  <g stroke="chocolate" stroke-width="1">
    <line x1="97" y1="316" x2="89" y2="312"/>
    <circle cx="97" cy="316" r="2"/>
    <circle cx="89" cy="312" r="2"/>
  </g>
  <g stroke="chocolate" stroke-width="1">
    <line x1="109" y1="324" x2="97" y2="316"/>
    <circle cx="109" cy="324" r="2"/>
    <circle cx="97" cy="316" r="2"/>
  </g>
  <g stroke="chocolate" stroke-width="1">
    <line x1="97" y1="316" x2="110" y2="312"/>
    <circle cx="97" cy="316" r="2"/>
    <circle cx="110" cy="312" r="2"/>
  </g>
  <g stroke="chocolate" stroke-width="1">
    <line x1="86" y1="321" x2="97" y2="316"/>
    <circle cx="86" cy="321" r="2"/>
    <circle cx="97" cy="316" r="2"/>
  </g>
  <g stroke="chocolate" stroke-width="1">
    <line x1="281" y1="117" x2="282" y2="114"/>
    <circle cx="281" cy="117" r="2"/>
    <circle cx="282" cy="114" r="2"/>
  </g>
  <g stroke="chocolate" stroke-width="1">
    <line x1="313" y1="154" x2="281" y2="117"/>
    <circle cx="313" cy="154" r="2"/>
    <circle cx="281" cy="117" r="2"/>
  </g>
  <g stroke="chocolate" stroke-width="1">
    <line x1="287" y1="98" x2="298" y2="65"/>
    <circle cx="287" cy="98" r="2"/>
    <circle cx="298" cy="65" r="2"/>
  </g>
  <g stroke="chocolate" stroke-width="1">
    <line x1="282" y1="114" x2="287" y2="98"/>
    <circle cx="282" cy="114" r="2"/>
    <circle cx="287" cy="98" r="2"/>
  </g>
  <g stroke="chocolate" stroke-width="1">
    <line x1="287" y1="98" x2="251" y2="53"/>
    <circle cx="287" cy="98" r="2"/>
    <circle cx="251" cy="53" r="2"/>
  </g>
  <g stroke="chocolate" stroke-width="1">
    <line x1="180" y1="113" x2="178" y2="83"/>
    <circle cx="180" cy="113" r="2"/>
    <circle cx="178" cy="83" r="2"/>
  </g>
  <g stroke="chocolate" stroke-width="1">
    <line x1="180" y1="113" x2="149" y2="95"/>
    <circle cx="180" cy="113" r="2"/>
    <circle cx="149" cy="95" r="2"/>
  </g>
  <g stroke="chocolate" stroke-width="1">
    <line x1="225" y1="138" x2="180" y2="113"/>
    <circle cx="225" cy="138" r="2"/>
    <circle cx="180" cy="113" r="2"/>
  </g>
  <g stroke="chocolate" stroke-width="1">
    <line x1="397" y1="108" x2="418" y2="96"/>
    <circle cx="397" cy="108" r="2"/>
    <circle cx="418" cy="96" r="2"/>
  </g>
  <g stroke="chocolate" stroke-width="1">
    <line x1="331" y1="144" x2="397" y2="108"/>
    <circle cx="331" cy="144" r="2"/>
    <circle cx="397" cy="108" r="2"/>
  </g>
  <g stroke="chocolate" stroke-width="1">
    <line x1="426" y1="109" x2="397" y2="108"/>
    <circle cx="426" cy="109" r="2"/>
    <circle cx="397" cy="108" r="2"/>
  </g>
  <g stroke="chocolate" stroke-width="1">
    <line x1="91" y1="326" x2="109" y2="324"/>
    <circle cx="91" cy="326" r="2"/>
    <circle cx="109" cy="324" r="2"/>
  </g>
  <g stroke="chocolate" stroke-width="1">
    <line x1="84" y1="327" x2="91" y2="326"/>
    <circle cx="84" cy="327" r="2"/>
    <circle cx="91" cy="326" r="2"/>
  </g>
  <g stroke="chocolate" stroke-width="1">
    <line x1="91" y1="326" x2="86" y2="321"/>
    <circle cx="91" cy="326" r="2"/>
    <circle cx="86" cy="321" r="2"/>
  </g>
  <g stroke="chocolate" stroke-width="1">
    <line x1="153" y1="272" x2="103" y2="260"/>
    <circle cx="153" cy="272" r="2"/>
    <circle cx="103" cy="260" r="2"/>
  </g>
  <g stroke="chocolate" stroke-width="1">
    <line x1="192" y1="280" x2="153" y2="272"/>
    <circle cx="192" cy="280" r="2"/>
    <circle cx="153" cy="272" r="2"/>
  </g>
  <g stroke="chocolate" stroke-width="1">
    <line x1="220" y1="299" x2="193" y2="290"/>
    <circle cx="220" cy="299" r="2"/>
    <circle cx="193" cy="290" r="2"/>
  </g>
  <g stroke="chocolate" stroke-width="1">
    <line x1="194" y1="312" x2="193" y2="290"/>
    <circle cx="194" cy="312" r="2"/>
    <circle cx="193" cy="290" r="2"/>
  </g>
  <g stroke="chocolate" stroke-width="1">
    <line x1="236" y1="140" x2="225" y2="138"/>
    <circle cx="236" cy="140" r="2"/>
    <circle cx="225" cy="138" r="2"/>
  </g>
  <g stroke="chocolate" stroke-width="1">
    <line x1="236" y1="140" x2="232" y2="61"/>
    <circle cx="236" cy="140" r="2"/>
    <circle cx="232" cy="61" r="2"/>
  </g>
  <g stroke="chocolate" stroke-width="1">
    <line x1="291" y1="103" x2="318" y2="70"/>
    <circle cx="291" cy="103" r="2"/>
    <circle cx="318" cy="70" r="2"/>
  </g>
  <g stroke="chocolate" stroke-width="1">
    <line x1="291" y1="103" x2="298" y2="65"/>
    <circle cx="291" cy="103" r="2"/>
    <circle cx="298" cy="65" r="2"/>
  </g>
  <g stroke="chocolate" stroke-width="1">
    <line x1="291" y1="103" x2="291" y2="103"/>
    <circle cx="291" cy="103" r="2"/>
    <circle cx="291" cy="103" r="2"/>
  </g>
  <g stroke="chocolate" stroke-width="1">
    <line x1="333" y1="156" x2="331" y2="144"/>
    <circle cx="333" cy="156" r="2"/>
    <circle cx="331" cy="144" r="2"/>
  </g>
  <g stroke="chocolate" stroke-width="1">
    <line x1="89" y1="312" x2="110" y2="312"/>
    <circle cx="89" cy="312" r="2"/>
    <circle cx="110" cy="312" r="2"/>
  </g>
  <g stroke="chocolate" stroke-width="1">
    <line x1="418" y1="96" x2="251" y2="53"/>
    <circle cx="418" cy="96" r="2"/>
    <circle cx="251" cy="53" r="2"/>
  </g>
  <g stroke="chocolate" stroke-width="1">
    <line x1="426" y1="109" x2="418" y2="96"/>
    <circle cx="426" cy="109" r="2"/>
    <circle cx="418" cy="96" r="2"/>
  </g>
  <g stroke="chocolate" stroke-width="1">
    <line x1="394" y1="182" x2="333" y2="156"/>
    <circle cx="394" cy="182" r="2"/>
    <circle cx="333" cy="156" r="2"/>
  </g>
  <g stroke="chocolate" stroke-width="1">
    <line x1="225" y1="138" x2="178" y2="83"/>
    <circle cx="225" cy="138" r="2"/>
    <circle cx="178" cy="83" r="2"/>
  </g>
  <g stroke="chocolate" stroke-width="1">
    <line x1="98" y1="338" x2="84" y2="327"/>
    <circle cx="98" cy="338" r="2"/>
    <circle cx="84" cy="327" r="2"/>
  </g>
  <g stroke="chocolate" stroke-width="1">
    <line x1="149" y1="95" x2="251" y2="53"/>
    <circle cx="149" cy="95" r="2"/>
    <circle cx="251" cy="53" r="2"/>
  </g>
  <g stroke="chocolate" stroke-width="1">
    <line x1="84" y1="327" x2="149" y2="95"/>
    <circle cx="84" cy="327" r="2"/>
    <circle cx="149" cy="95" r="2"/>
  </g>
  <g stroke="chocolate" stroke-width="1">
    <line x1="394" y1="182" x2="426" y2="109"/>
    <circle cx="394" cy="182" r="2"/>
    <circle cx="426" cy="109" r="2"/>
  </g>
  <g stroke="chocolate" stroke-width="1">
    <line x1="192" y1="457" x2="252" y2="411"/>
    <circle cx="192" cy="457" r="2"/>
    <circle cx="252" cy="411" r="2"/>
  </g>
  <g stroke="black" stroke-width="1">
    <line x1="5" y1="5" x2="505" y2="5"/>
    <line x1="5" y1="5" x2="5" y2="505"/>
    <line x1="505" y1="505" x2="5" y2="505"/>
    <line x1="505" y1="505" x2="505" y2="5"/>
    <line x1="105" y1="2" x2="105" y2="8"/>
    <line x1="2" y1="105" x2="8" y2="105"/>
    <line x1="105" y1="502" x2="105" y2="508"/>
    <line x1="502" y1="105" x2="508" y2="105"/>
    <line x1="205" y1="2" x2="205" y2="8"/>
    <line x1="2" y1="205" x2="8" y2="205"/>
    <line x1="205" y1="502" x2="205" y2="508"/>
    <line x1="502" y1="205" x2="508" y2="205"/>
    <line x1="305" y1="2" x2="305" y2="8"/>
    <line x1="2" y1="305" x2="8" y2="305"/>
    <line x1="305" y1="502" x2="305" y2="508"/>
    <line x1="502" y1="305" x2="508" y2="305"/>
    <line x1="405" y1="2" x2="405" y2="8"/>
    <line x1="2" y1="405" x2="8" y2="405"/>
    <line x1="405" y1="502" x2="405" y2="508"/>
    <line x1="502" y1="405" x2="508" y2="405"/>
  </g>
  <g stroke="gray" stroke-width="1" stroke-dasharray="5,5">
    <line x1="105" y1="5" x2="105" y2="505"/>
    <line x1="5" y1="105" x2="505" y2="105"/>
    <line x1="205" y1="5" x2="205" y2="505"/>
    <line x1="5" y1="205" x2="505" y2="205"/>
    <line x1="305" y1="5" x2="305" y2="505"/>
    <line x1="5" y1="305" x2="505" y2="305"/>
    <line x1="405" y1="5" x2="405" y2="505"/>
    <line x1="5" y1="405" x2="505" y2="405"/>
  </g>
</svg>
