<?xml version="1.0" standalone="no"?>
<!DOCTYPE svg PUBLIC "-//W3C//DTD SVG 1.1//EN" 
  "http://www.w3.org/Graphics/SVG/1.1/DTD/svg11.dtd">
<svg width="510" height="510" version="1.1" id="toplevel"
    xmlns="http://www.w3.org/2000/svg"
    xmlns:xlink="http://www.w3.org/1999/xlink">
  <polygon points="197,505 380,505 422,235 197,129 102,208 118,228 197,233 197,307 193,355 92,413 88,428 185,450 182,477 197,478"
           fill="bisque"/>
  <g stroke="chocolate" stroke-width="1">
    <line x1="197" y1="447" x2="197" y2="352"/>
    <circle cx="197" cy="447" r="2"/>
    <circle cx="197" cy="352" r="2"/>
  </g>
  <g stroke="chocolate" stroke-width="1">
    <line x1="197" y1="453" x2="197" y2="447"/>
    <circle cx="197" cy="453" r="2"/>
    <circle cx="197" cy="447" r="2"/>
  </g>
  <g stroke="chocolate" stroke-width="1">
    <line x1="197" y1="447" x2="185" y2="443"/>
    <circle cx="197" cy="447" r="2"/>
    <circle cx="185" cy="443" r="2"/>
  </g>
  <g stroke="chocolate" stroke-width="1">
    <line x1="260" y1="467" x2="197" y2="447"/>
    <circle cx="260" cy="467" r="2"/>
    <circle cx="197" cy="447" r="2"/>
  </g>
  <g stroke="chocolate" stroke-width="1">
    <line x1="193" y1="355" x2="197" y2="352"/>
    <circle cx="193" cy="355" r="2"/>
    <circle cx="197" cy="352" r="2"/>
  </g>
  <g stroke="chocolate" stroke-width="1">
    <line x1="92" y1="413" x2="193" y2="355"/>
    <circle cx="92" cy="413" r="2"/>
    <circle cx="193" cy="355" r="2"/>
  </g>
  <g stroke="chocolate" stroke-width="1">
    <line x1="193" y1="355" x2="197" y2="307"/>
    <circle cx="193" cy="355" r="2"/>
    <circle cx="197" cy="307" r="2"/>
  </g>
  <g stroke="chocolate" stroke-width="1">
    <line x1="185" y1="443" x2="193" y2="355"/>
    <circle cx="185" cy="443" r="2"/>
    <circle cx="193" cy="355" r="2"/>
  </g>
  <g stroke="chocolate" stroke-width="1">
    <line x1="197" y1="233" x2="118" y2="228"/>
    <circle cx="197" cy="233" r="2"/>
    <circle cx="118" cy="228" r="2"/>
  </g>
  <g stroke="chocolate" stroke-width="1">
    <line x1="204" y1="233" x2="197" y2="233"/>
    <circle cx="204" cy="233" r="2"/>
    <circle cx="197" cy="233" r="2"/>
  </g>
  <g stroke="chocolate" stroke-width="1">
    <line x1="197" y1="233" x2="197" y2="151"/>
    <circle cx="197" cy="233" r="2"/>
    <circle cx="197" cy="151" r="2"/>
  </g>
  <g stroke="chocolate" stroke-width="1">
    <line x1="197" y1="307" x2="197" y2="233"/>
    <circle cx="197" cy="307" r="2"/>
    <circle cx="197" cy="233" r="2"/>
  </g>
  <g stroke="chocolate" stroke-width="1">
    <line x1="197" y1="352" x2="389" y2="243"/>
    <circle cx="197" cy="352" r="2"/>
    <circle cx="389" cy="243" r="2"/>
  </g>
  <g stroke="chocolate" stroke-width="1">
    <line x1="197" y1="352" x2="197" y2="307"/>
    <circle cx="197" cy="352" r="2"/>
    <circle cx="197" cy="307" r="2"/>
  </g>
  <g stroke="chocolate" stroke-width="1">
    <line x1="185" y1="450" x2="185" y2="443"/>
    <circle cx="185" cy="450" r="2"/>
    <circle cx="185" cy="443" r="2"/>
  </g>
  <g stroke="chocolate" stroke-width="1">
    <line x1="182" y1="477" x2="185" y2="450"/>
    <circle cx="182" cy="477" r="2"/>
    <circle cx="185" cy="450" r="2"/>
  </g>
  <g stroke="chocolate" stroke-width="1">
    <line x1="185" y1="450" x2="88" y2="428"/>
    <circle cx="185" cy="450" r="2"/>
    <circle cx="88" cy="428" r="2"/>
  </g>
  <g stroke="chocolate" stroke-width="1">
    <line x1="197" y1="453" x2="185" y2="450"/>
    <circle cx="197" cy="453" r="2"/>
    <circle cx="185" cy="450" r="2"/>
  </g>
  <g stroke="chocolate" stroke-width="1">
    <line x1="332" y1="490" x2="260" y2="467"/>
    <circle cx="332" cy="490" r="2"/>
    <circle cx="260" cy="467" r="2"/>
  </g>
  <g stroke="chocolate" stroke-width="1">
    <line x1="260" y1="467" x2="197" y2="453"/>
    <circle cx="260" cy="467" r="2"/>
    <circle cx="197" cy="453" r="2"/>
  </g>
  <g stroke="chocolate" stroke-width="1">
    <line x1="381" y1="494" x2="260" y2="467"/>
    <circle cx="381" cy="494" r="2"/>
    <circle cx="260" cy="467" r="2"/>
  </g>
  <g stroke="chocolate" stroke-width="1">
    <line x1="197" y1="478" x2="197" y2="453"/>
    <circle cx="197" cy="478" r="2"/>
    <circle cx="197" cy="453" r="2"/>
  </g>
  <g stroke="chocolate" stroke-width="1">
    <line x1="197" y1="505" x2="197" y2="478"/>
    <circle cx="197" cy="505" r="2"/>
    <circle cx="197" cy="478" r="2"/>
  </g>
  <g stroke="chocolate" stroke-width="1">
    <line x1="197" y1="478" x2="182" y2="477"/>
    <circle cx="197" cy="478" r="2"/>
    <circle cx="182" cy="477" r="2"/>
  </g>
  <g stroke="chocolate" stroke-width="1">
    <line x1="332" y1="490" x2="197" y2="478"/>
    <circle cx="332" cy="490" r="2"/>
    <circle cx="197" cy="478" r="2"/>
  </g>
  <g stroke="chocolate" stroke-width="1">
    <line x1="389" y1="243" x2="204" y2="233"/>
    <circle cx="389" cy="243" r="2"/>
    <circle cx="204" cy="233" r="2"/>
  </g>
  <g stroke="chocolate" stroke-width="1">
    <line x1="204" y1="233" x2="212" y2="136"/>
    <circle cx="204" cy="233" r="2"/>
    <circle cx="212" cy="136" r="2"/>
  </g>
  <g stroke="chocolate" stroke-width="1">
    <line x1="197" y1="307" x2="204" y2="233"/>
    <circle cx="197" cy="307" r="2"/>
    <circle cx="204" cy="233" r="2"/>
  </g>
  <g stroke="chocolate" stroke-width="1">
    <line x1="185" y1="443" x2="92" y2="413"/>
    <circle cx="185" cy="443" r="2"/>
    <circle cx="92" cy="413" r="2"/>
  </g>
  <g stroke="chocolate" stroke-width="1">
    <line x1="197" y1="151" x2="197" y2="129"/>
    <circle cx="197" cy="151" r="2"/>
    <circle cx="197" cy="129" r="2"/>
  </g>
  <g stroke="chocolate" stroke-width="1">
    <line x1="197" y1="151" x2="212" y2="136"/>
    <circle cx="197" cy="151" r="2"/>
    <circle cx="212" cy="136" r="2"/>
  </g>
  <g stroke="chocolate" stroke-width="1">
    <line x1="118" y1="228" x2="197" y2="151"/>
    <circle cx="118" cy="228" r="2"/>
    <circle cx="197" cy="151" r="2"/>
  </g>
  <g stroke="chocolate" stroke-width="1">
    <line x1="414" y1="244" x2="389" y2="243"/>
    <circle cx="414" cy="244" r="2"/>
    <circle cx="389" cy="243" r="2"/>
  </g>
  <g stroke="chocolate" stroke-width="1">
    <line x1="389" y1="243" x2="411" y2="230"/>
    <circle cx="389" cy="243" r="2"/>
    <circle cx="411" cy="230" r="2"/>
  </g>
  <g stroke="chocolate" stroke-width="1">
    <line x1="380" y1="505" x2="332" y2="490"/>
    <circle cx="380" cy="505" r="2"/>
    <circle cx="332" cy="490" r="2"/>
  </g>
  <g stroke="chocolate" stroke-width="1">
    <line x1="381" y1="494" x2="332" y2="490"/>
    <circle cx="381" cy="494" r="2"/>
    <circle cx="332" cy="490" r="2"/>
  </g>
  <g stroke="chocolate" stroke-width="1">
    <line x1="422" y1="235" x2="197" y2="129"/>
    <circle cx="422" cy="235" r="2"/>
    <circle cx="197" cy="129" r="2"/>
  </g>
  <g stroke="chocolate" stroke-width="1">
    <line x1="102" y1="208" x2="197" y2="129"/>
    <circle cx="102" cy="208" r="2"/>
    <circle cx="197" cy="129" r="2"/>
  </g>
  <g stroke="chocolate" stroke-width="1">
    <line x1="118" y1="228" x2="102" y2="208"/>
    <circle cx="118" cy="228" r="2"/>
    <circle cx="102" cy="208" r="2"/>
  </g>
  <g stroke="chocolate" stroke-width="1">
    <line x1="414" y1="244" x2="411" y2="230"/>
    <circle cx="414" cy="244" r="2"/>
    <circle cx="411" cy="230" r="2"/>
  </g>
  <g stroke="chocolate" stroke-width="1">
    <line x1="88" y1="428" x2="92" y2="413"/>
    <circle cx="88" cy="428" r="2"/>
    <circle cx="92" cy="413" r="2"/>
  </g>
  <g stroke="chocolate" stroke-width="1">
    <line x1="414" y1="244" x2="422" y2="235"/>
    <circle cx="414" cy="244" r="2"/>
    <circle cx="422" cy="235" r="2"/>
  </g>
  <g stroke="chocolate" stroke-width="1">
    <line x1="197" y1="505" x2="380" y2="505"/>
    <circle cx="197" cy="505" r="2"/>
    <circle cx="380" cy="505" r="2"/>
  </g>
  <g stroke="chocolate" stroke-width="1">
    <line x1="380" y1="505" x2="422" y2="235"/>
    <circle cx="380" cy="505" r="2"/>
    <circle cx="422" cy="235" r="2"/>
  </g>
  <g stroke="black" stroke-width="1">
    <line x1="5" y1="5" x2="505" y2="5"/>
    <line x1="5" y1="5" x2="5" y2="505"/>
    <line x1="505" y1="505" x2="5" y2="505"/>
    <line x1="505" y1="505" x2="505" y2="5"/>
    <line x1="105" y1="2" x2="105" y2="8"/>
    <line x1="2" y1="105" x2="8" y2="105"/>
    <line x1="105" y1="502" x2="105" y2="508"/>
    <line x1="502" y1="105" x2="508" y2="105"/>
    <line x1="205" y1="2" x2="205" y2="8"/>
    <line x1="2" y1="205" x2="8" y2="205"/>
    <line x1="205" y1="502" x2="205" y2="508"/>
    <line x1="502" y1="205" x2="508" y2="205"/>
    <line x1="305" y1="2" x2="305" y2="8"/>
    <line x1="2" y1="305" x2="8" y2="305"/>
    <line x1="305" y1="502" x2="305" y2="508"/>
    <line x1="502" y1="305" x2="508" y2="305"/>
    <line x1="405" y1="2" x2="405" y2="8"/>
    <line x1="2" y1="405" x2="8" y2="405"/>
    <line x1="405" y1="502" x2="405" y2="508"/>
    <line x1="502" y1="405" x2="508" y2="405"/>
  </g>
  <g stroke="gray" stroke-width="1" stroke-dasharray="5,5">
    <line x1="105" y1="5" x2="105" y2="505"/>
    <line x1="5" y1="105" x2="505" y2="105"/>
    <line x1="205" y1="5" x2="205" y2="505"/>
    <line x1="5" y1="205" x2="505" y2="205"/>
    <line x1="305" y1="5" x2="305" y2="505"/>
    <line x1="5" y1="305" x2="505" y2="305"/>
    <line x1="405" y1="5" x2="405" y2="505"/>
    <line x1="5" y1="405" x2="505" y2="405"/>
  </g>
</svg>
