<?xml version="1.0" standalone="no"?>
<!DOCTYPE svg PUBLIC "-//W3C//DTD SVG 1.1//EN" 
  "http://www.w3.org/Graphics/SVG/1.1/DTD/svg11.dtd">
<svg width="664" height="664" version="1.1" id="toplevel"
    xmlns="http://www.w3.org/2000/svg"
    xmlns:xlink="http://www.w3.org/1999/xlink">
  <polygon points="159,582 659,582 159,249 5,313 159,376" fill="bisque"/>
  <g stroke="chocolate" stroke-width="1">
    <line x1="159" y1="376" x2="5" y2="313"/>
    <circle cx="159" cy="376" r="2"/>
    <circle cx="5" cy="313" r="2"/>
  </g>
  <g stroke="chocolate" stroke-width="1">
    <line x1="659" y1="582" x2="159" y2="376"/>
    <circle cx="659" cy="582" r="2"/>
    <circle cx="159" cy="376" r="2"/>
  </g>
  <g stroke="chocolate" stroke-width="1">
    <line x1="159" y1="376" x2="159" y2="249"/>
    <circle cx="159" cy="376" r="2"/>
    <circle cx="159" cy="249" r="2"/>
  </g>
  <g stroke="chocolate" stroke-width="1">
    <line x1="159" y1="582" x2="159" y2="376"/>
    <circle cx="159" cy="582" r="2"/>
    <circle cx="159" cy="376" r="2"/>
  </g>
  <g stroke="chocolate" stroke-width="1">
    <line x1="5" y1="313" x2="159" y2="249"/>
    <circle cx="5" cy="313" r="2"/>
    <circle cx="159" cy="249" r="2"/>
  </g>
  <g stroke="chocolate" stroke-width="1">
    <line x1="659" y1="582" x2="159" y2="249"/>
    <circle cx="659" cy="582" r="2"/>
    <circle cx="159" cy="249" r="2"/>
  </g>
  <g stroke="chocolate" stroke-width="1">
    <line x1="159" y1="582" x2="659" y2="582"/>
    <circle cx="159" cy="582" r="2"/>
    <circle cx="659" cy="582" r="2"/>
  </g>
  <g stroke="black" stroke-width="1">
    <line x1="82" y1="82" x2="582" y2="82"/>
    <line x1="82" y1="82" x2="82" y2="582"/>
    <line x1="582" y1="582" x2="82" y2="582"/>
    <line x1="582" y1="582" x2="582" y2="82"/>
    <line x1="182" y1="79" x2="182" y2="85"/>
    <line x1="79" y1="182" x2="85" y2="182"/>
    <line x1="182" y1="579" x2="182" y2="585"/>
    <line x1="579" y1="182" x2="585" y2="182"/>
    <line x1="282" y1="79" x2="282" y2="85"/>
    <line x1="79" y1="282" x2="85" y2="282"/>
    <line x1="282" y1="579" x2="282" y2="585"/>
    <line x1="579" y1="282" x2="585" y2="282"/>
    <line x1="382" y1="79" x2="382" y2="85"/>
    <line x1="79" y1="382" x2="85" y2="382"/>
    <line x1="382" y1="579" x2="382" y2="585"/>
    <line x1="579" y1="382" x2="585" y2="382"/>
    <line x1="482" y1="79" x2="482" y2="85"/>
    <line x1="79" y1="482" x2="85" y2="482"/>
    <line x1="482" y1="579" x2="482" y2="585"/>
    <line x1="579" y1="482" x2="585" y2="482"/>
  </g>
  <g stroke="gray" stroke-width="1" stroke-dasharray="5,5">
    <line x1="182" y1="82" x2="182" y2="582"/>
    <line x1="82" y1="182" x2="582" y2="182"/>
    <line x1="282" y1="82" x2="282" y2="582"/>
    <line x1="82" y1="282" x2="582" y2="282"/>
    <line x1="382" y1="82" x2="382" y2="582"/>
    <line x1="82" y1="382" x2="582" y2="382"/>
    <line x1="482" y1="82" x2="482" y2="582"/>
    <line x1="82" y1="482" x2="582" y2="482"/>
  </g>
</svg>
