<?xml version="1.0" standalone="no"?>
<!DOCTYPE svg PUBLIC "-//W3C//DTD SVG 1.1//EN" 
  "http://www.w3.org/Graphics/SVG/1.1/DTD/svg11.dtd">
<svg width="510" height="510" version="1.1" id="toplevel"
    xmlns="http://www.w3.org/2000/svg"
    xmlns:xlink="http://www.w3.org/1999/xlink">
  <polygon points="155,405 305,405 330,380 355,405 355,255 330,230 355,205 205,205 180,230 155,205 155,355 180,380"
           fill="bisque"/>
  <g stroke="chocolate" stroke-width="1">
    <line x1="255" y1="305" x2="272" y2="288"/>
    <circle cx="255" cy="305" r="2"/>
    <circle cx="272" cy="288" r="2"/>
  </g>
  <g stroke="chocolate" stroke-width="1">
    <line x1="238" y1="322" x2="255" y2="305"/>
    <circle cx="238" cy="322" r="2"/>
    <circle cx="255" cy="305" r="2"/>
  </g>
  <g stroke="chocolate" stroke-width="1">
    <line x1="255" y1="305" x2="280" y2="305"/>
    <circle cx="255" cy="305" r="2"/>
    <circle cx="280" cy="305" r="2"/>
  </g>
  <g stroke="chocolate" stroke-width="1">
    <line x1="230" y1="305" x2="255" y2="305"/>
    <circle cx="230" cy="305" r="2"/>
    <circle cx="255" cy="305" r="2"/>
  </g>
  <g stroke="chocolate" stroke-width="1">
    <line x1="238" y1="322" x2="230" y2="305"/>
    <circle cx="238" cy="322" r="2"/>
    <circle cx="230" cy="305" r="2"/>
  </g>
  <g stroke="chocolate" stroke-width="1">
    <line x1="245" y1="335" x2="238" y2="322"/>
    <circle cx="245" cy="335" r="2"/>
    <circle cx="238" cy="322" r="2"/>
  </g>
  <g stroke="chocolate" stroke-width="1">
    <line x1="230" y1="330" x2="238" y2="322"/>
    <circle cx="230" cy="330" r="2"/>
    <circle cx="238" cy="322" r="2"/>
  </g>
  <g stroke="chocolate" stroke-width="1">
    <line x1="238" y1="288" x2="255" y2="280"/>
    <circle cx="238" cy="288" r="2"/>
    <circle cx="255" cy="280" r="2"/>
  </g>
  <g stroke="chocolate" stroke-width="1">
    <line x1="225" y1="295" x2="238" y2="288"/>
    <circle cx="225" cy="295" r="2"/>
    <circle cx="238" cy="288" r="2"/>
  </g>
  <g stroke="chocolate" stroke-width="1">
    <line x1="238" y1="288" x2="230" y2="280"/>
    <circle cx="238" cy="288" r="2"/>
    <circle cx="230" cy="280" r="2"/>
  </g>
  <g stroke="chocolate" stroke-width="1">
    <line x1="255" y1="305" x2="238" y2="288"/>
    <circle cx="255" cy="305" r="2"/>
    <circle cx="238" cy="288" r="2"/>
  </g>
  <g stroke="chocolate" stroke-width="1">
    <line x1="280" y1="305" x2="305" y2="305"/>
    <circle cx="280" cy="305" r="2"/>
    <circle cx="305" cy="305" r="2"/>
  </g>
  <g stroke="chocolate" stroke-width="1">
    <line x1="280" y1="305" x2="272" y2="288"/>
    <circle cx="280" cy="305" r="2"/>
    <circle cx="272" cy="288" r="2"/>
  </g>
  <g stroke="chocolate" stroke-width="1">
    <line x1="285" y1="315" x2="280" y2="305"/>
    <circle cx="285" cy="315" r="2"/>
    <circle cx="280" cy="305" r="2"/>
  </g>
  <g stroke="chocolate" stroke-width="1">
    <line x1="255" y1="280" x2="265" y2="275"/>
    <circle cx="255" cy="280" r="2"/>
    <circle cx="265" cy="275" r="2"/>
  </g>
  <g stroke="chocolate" stroke-width="1">
    <line x1="255" y1="280" x2="255" y2="255"/>
    <circle cx="255" cy="280" r="2"/>
    <circle cx="255" cy="255" r="2"/>
  </g>
  <g stroke="chocolate" stroke-width="1">
    <line x1="255" y1="305" x2="255" y2="280"/>
    <circle cx="255" cy="305" r="2"/>
    <circle cx="255" cy="280" r="2"/>
  </g>
  <g stroke="chocolate" stroke-width="1">
    <line x1="205" y1="305" x2="230" y2="305"/>
    <circle cx="205" cy="305" r="2"/>
    <circle cx="230" cy="305" r="2"/>
  </g>
  <g stroke="chocolate" stroke-width="1">
    <line x1="230" y1="305" x2="225" y2="295"/>
    <circle cx="230" cy="305" r="2"/>
    <circle cx="225" cy="295" r="2"/>
  </g>
  <g stroke="chocolate" stroke-width="1">
    <line x1="222" y1="338" x2="230" y2="330"/>
    <circle cx="222" cy="338" r="2"/>
    <circle cx="230" cy="330" r="2"/>
  </g>
  <g stroke="chocolate" stroke-width="1">
    <line x1="230" y1="330" x2="205" y2="305"/>
    <circle cx="230" cy="330" r="2"/>
    <circle cx="205" cy="305" r="2"/>
  </g>
  <g stroke="chocolate" stroke-width="1">
    <line x1="238" y1="338" x2="230" y2="330"/>
    <circle cx="238" cy="338" r="2"/>
    <circle cx="230" cy="330" r="2"/>
  </g>
  <g stroke="chocolate" stroke-width="1">
    <line x1="272" y1="322" x2="285" y2="315"/>
    <circle cx="272" cy="322" r="2"/>
    <circle cx="285" cy="315" r="2"/>
  </g>
  <g stroke="chocolate" stroke-width="1">
    <line x1="255" y1="330" x2="272" y2="322"/>
    <circle cx="255" cy="330" r="2"/>
    <circle cx="272" cy="322" r="2"/>
  </g>
  <g stroke="chocolate" stroke-width="1">
    <line x1="272" y1="322" x2="255" y2="305"/>
    <circle cx="272" cy="322" r="2"/>
    <circle cx="255" cy="305" r="2"/>
  </g>
  <g stroke="chocolate" stroke-width="1">
    <line x1="280" y1="330" x2="272" y2="322"/>
    <circle cx="280" cy="330" r="2"/>
    <circle cx="272" cy="322" r="2"/>
  </g>
  <g stroke="chocolate" stroke-width="1">
    <line x1="230" y1="280" x2="255" y2="255"/>
    <circle cx="230" cy="280" r="2"/>
    <circle cx="255" cy="255" r="2"/>
  </g>
  <g stroke="chocolate" stroke-width="1">
    <line x1="222" y1="288" x2="230" y2="280"/>
    <circle cx="222" cy="288" r="2"/>
    <circle cx="230" cy="280" r="2"/>
  </g>
  <g stroke="chocolate" stroke-width="1">
    <line x1="230" y1="280" x2="222" y2="272"/>
    <circle cx="230" cy="280" r="2"/>
    <circle cx="222" cy="272" r="2"/>
  </g>
  <g stroke="chocolate" stroke-width="1">
    <line x1="188" y1="288" x2="180" y2="280"/>
    <circle cx="188" cy="288" r="2"/>
    <circle cx="180" cy="280" r="2"/>
  </g>
  <g stroke="chocolate" stroke-width="1">
    <line x1="205" y1="305" x2="188" y2="288"/>
    <circle cx="205" cy="305" r="2"/>
    <circle cx="188" cy="288" r="2"/>
  </g>
  <g stroke="chocolate" stroke-width="1">
    <line x1="188" y1="288" x2="205" y2="280"/>
    <circle cx="188" cy="288" r="2"/>
    <circle cx="205" cy="280" r="2"/>
  </g>
  <g stroke="chocolate" stroke-width="1">
    <line x1="175" y1="295" x2="188" y2="288"/>
    <circle cx="175" cy="295" r="2"/>
    <circle cx="188" cy="288" r="2"/>
  </g>
  <g stroke="chocolate" stroke-width="1">
    <line x1="265" y1="275" x2="255" y2="255"/>
    <circle cx="265" cy="275" r="2"/>
    <circle cx="255" cy="255" r="2"/>
  </g>
  <g stroke="chocolate" stroke-width="1">
    <line x1="272" y1="288" x2="265" y2="275"/>
    <circle cx="272" cy="288" r="2"/>
    <circle cx="265" cy="275" r="2"/>
  </g>
  <g stroke="chocolate" stroke-width="1">
    <line x1="265" y1="275" x2="272" y2="272"/>
    <circle cx="265" cy="275" r="2"/>
    <circle cx="272" cy="272" r="2"/>
  </g>
  <g stroke="chocolate" stroke-width="1">
    <line x1="305" y1="305" x2="330" y2="305"/>
    <circle cx="305" cy="305" r="2"/>
    <circle cx="330" cy="305" r="2"/>
  </g>
  <g stroke="chocolate" stroke-width="1">
    <line x1="305" y1="305" x2="280" y2="280"/>
    <circle cx="305" cy="305" r="2"/>
    <circle cx="280" cy="280" r="2"/>
  </g>
  <g stroke="chocolate" stroke-width="1">
    <line x1="322" y1="322" x2="305" y2="305"/>
    <circle cx="322" cy="322" r="2"/>
    <circle cx="305" cy="305" r="2"/>
  </g>
  <g stroke="chocolate" stroke-width="1">
    <line x1="288" y1="322" x2="285" y2="315"/>
    <circle cx="288" cy="322" r="2"/>
    <circle cx="285" cy="315" r="2"/>
  </g>
  <g stroke="chocolate" stroke-width="1">
    <line x1="285" y1="315" x2="305" y2="305"/>
    <circle cx="285" cy="315" r="2"/>
    <circle cx="305" cy="305" r="2"/>
  </g>
  <g stroke="chocolate" stroke-width="1">
    <line x1="188" y1="372" x2="222" y2="338"/>
    <circle cx="188" cy="372" r="2"/>
    <circle cx="222" cy="338" r="2"/>
  </g>
  <g stroke="chocolate" stroke-width="1">
    <line x1="222" y1="338" x2="205" y2="305"/>
    <circle cx="222" cy="338" r="2"/>
    <circle cx="205" cy="305" r="2"/>
  </g>
  <g stroke="chocolate" stroke-width="1">
    <line x1="225" y1="345" x2="222" y2="338"/>
    <circle cx="225" cy="345" r="2"/>
    <circle cx="222" cy="338" r="2"/>
  </g>
  <g stroke="chocolate" stroke-width="1">
    <line x1="265" y1="225" x2="272" y2="222"/>
    <circle cx="265" cy="225" r="2"/>
    <circle cx="272" cy="222" r="2"/>
  </g>
  <g stroke="chocolate" stroke-width="1">
    <line x1="255" y1="230" x2="265" y2="225"/>
    <circle cx="255" cy="230" r="2"/>
    <circle cx="265" cy="225" r="2"/>
  </g>
  <g stroke="chocolate" stroke-width="1">
    <line x1="265" y1="225" x2="255" y2="205"/>
    <circle cx="265" cy="225" r="2"/>
    <circle cx="255" cy="205" r="2"/>
  </g>
  <g stroke="chocolate" stroke-width="1">
    <line x1="272" y1="238" x2="265" y2="225"/>
    <circle cx="272" cy="238" r="2"/>
    <circle cx="265" cy="225" r="2"/>
  </g>
  <g stroke="chocolate" stroke-width="1">
    <line x1="280" y1="255" x2="305" y2="255"/>
    <circle cx="280" cy="255" r="2"/>
    <circle cx="305" cy="255" r="2"/>
  </g>
  <g stroke="chocolate" stroke-width="1">
    <line x1="255" y1="255" x2="280" y2="255"/>
    <circle cx="255" cy="255" r="2"/>
    <circle cx="280" cy="255" r="2"/>
  </g>
  <g stroke="chocolate" stroke-width="1">
    <line x1="280" y1="255" x2="272" y2="238"/>
    <circle cx="280" cy="255" r="2"/>
    <circle cx="272" cy="238" r="2"/>
  </g>
  <g stroke="chocolate" stroke-width="1">
    <line x1="285" y1="265" x2="280" y2="255"/>
    <circle cx="285" cy="265" r="2"/>
    <circle cx="280" cy="255" r="2"/>
  </g>
  <g stroke="chocolate" stroke-width="1">
    <line x1="280" y1="230" x2="272" y2="222"/>
    <circle cx="280" cy="230" r="2"/>
    <circle cx="272" cy="222" r="2"/>
  </g>
  <g stroke="chocolate" stroke-width="1">
    <line x1="305" y1="255" x2="280" y2="230"/>
    <circle cx="305" cy="255" r="2"/>
    <circle cx="280" cy="230" r="2"/>
  </g>
  <g stroke="chocolate" stroke-width="1">
    <line x1="280" y1="230" x2="305" y2="205"/>
    <circle cx="280" cy="230" r="2"/>
    <circle cx="305" cy="205" r="2"/>
  </g>
  <g stroke="chocolate" stroke-width="1">
    <line x1="272" y1="238" x2="280" y2="230"/>
    <circle cx="272" cy="238" r="2"/>
    <circle cx="280" cy="230" r="2"/>
  </g>
  <g stroke="chocolate" stroke-width="1">
    <line x1="255" y1="255" x2="255" y2="230"/>
    <circle cx="255" cy="255" r="2"/>
    <circle cx="255" cy="230" r="2"/>
  </g>
  <g stroke="chocolate" stroke-width="1">
    <line x1="255" y1="255" x2="272" y2="238"/>
    <circle cx="255" cy="255" r="2"/>
    <circle cx="272" cy="238" r="2"/>
  </g>
  <g stroke="chocolate" stroke-width="1">
    <line x1="245" y1="335" x2="255" y2="330"/>
    <circle cx="245" cy="335" r="2"/>
    <circle cx="255" cy="330" r="2"/>
  </g>
  <g stroke="chocolate" stroke-width="1">
    <line x1="238" y1="338" x2="245" y2="335"/>
    <circle cx="238" cy="338" r="2"/>
    <circle cx="245" cy="335" r="2"/>
  </g>
  <g stroke="chocolate" stroke-width="1">
    <line x1="255" y1="355" x2="245" y2="335"/>
    <circle cx="255" cy="355" r="2"/>
    <circle cx="245" cy="335" r="2"/>
  </g>
  <g stroke="chocolate" stroke-width="1">
    <line x1="180" y1="305" x2="205" y2="305"/>
    <circle cx="180" cy="305" r="2"/>
    <circle cx="205" cy="305" r="2"/>
  </g>
  <g stroke="chocolate" stroke-width="1">
    <line x1="335" y1="315" x2="355" y2="305"/>
    <circle cx="335" cy="315" r="2"/>
    <circle cx="355" cy="305" r="2"/>
  </g>
  <g stroke="chocolate" stroke-width="1">
    <line x1="322" y1="322" x2="335" y2="315"/>
    <circle cx="322" cy="322" r="2"/>
    <circle cx="335" cy="315" r="2"/>
  </g>
  <g stroke="chocolate" stroke-width="1">
    <line x1="335" y1="315" x2="330" y2="305"/>
    <circle cx="335" cy="315" r="2"/>
    <circle cx="330" cy="305" r="2"/>
  </g>
  <g stroke="chocolate" stroke-width="1">
    <line x1="338" y1="322" x2="335" y2="315"/>
    <circle cx="338" cy="322" r="2"/>
    <circle cx="335" cy="315" r="2"/>
  </g>
  <g stroke="chocolate" stroke-width="1">
    <line x1="330" y1="330" x2="322" y2="322"/>
    <circle cx="330" cy="330" r="2"/>
    <circle cx="322" cy="322" r="2"/>
  </g>
  <g stroke="chocolate" stroke-width="1">
    <line x1="355" y1="355" x2="330" y2="330"/>
    <circle cx="355" cy="355" r="2"/>
    <circle cx="330" cy="330" r="2"/>
  </g>
  <g stroke="chocolate" stroke-width="1">
    <line x1="330" y1="330" x2="338" y2="322"/>
    <circle cx="330" cy="330" r="2"/>
    <circle cx="338" cy="322" r="2"/>
  </g>
  <g stroke="chocolate" stroke-width="1">
    <line x1="305" y1="355" x2="330" y2="330"/>
    <circle cx="305" cy="355" r="2"/>
    <circle cx="330" cy="330" r="2"/>
  </g>
  <g stroke="chocolate" stroke-width="1">
    <line x1="288" y1="338" x2="280" y2="330"/>
    <circle cx="288" cy="338" r="2"/>
    <circle cx="280" cy="330" r="2"/>
  </g>
  <g stroke="chocolate" stroke-width="1">
    <line x1="280" y1="330" x2="288" y2="322"/>
    <circle cx="280" cy="330" r="2"/>
    <circle cx="288" cy="322" r="2"/>
  </g>
  <g stroke="chocolate" stroke-width="1">
    <line x1="255" y1="355" x2="280" y2="330"/>
    <circle cx="255" cy="355" r="2"/>
    <circle cx="280" cy="330" r="2"/>
  </g>
  <g stroke="chocolate" stroke-width="1">
    <line x1="230" y1="380" x2="205" y2="355"/>
    <circle cx="230" cy="380" r="2"/>
    <circle cx="205" cy="355" r="2"/>
  </g>
  <g stroke="chocolate" stroke-width="1">
    <line x1="238" y1="388" x2="230" y2="380"/>
    <circle cx="238" cy="388" r="2"/>
    <circle cx="230" cy="380" r="2"/>
  </g>
  <g stroke="chocolate" stroke-width="1">
    <line x1="230" y1="380" x2="238" y2="372"/>
    <circle cx="230" cy="380" r="2"/>
    <circle cx="238" cy="372" r="2"/>
  </g>
  <g stroke="chocolate" stroke-width="1">
    <line x1="205" y1="405" x2="230" y2="380"/>
    <circle cx="205" cy="405" r="2"/>
    <circle cx="230" cy="380" r="2"/>
  </g>
  <g stroke="chocolate" stroke-width="1">
    <line x1="222" y1="272" x2="255" y2="255"/>
    <circle cx="222" cy="272" r="2"/>
    <circle cx="255" cy="255" r="2"/>
  </g>
  <g stroke="chocolate" stroke-width="1">
    <line x1="215" y1="275" x2="222" y2="272"/>
    <circle cx="215" cy="275" r="2"/>
    <circle cx="222" cy="272" r="2"/>
  </g>
  <g stroke="chocolate" stroke-width="1">
    <line x1="222" y1="272" x2="205" y2="255"/>
    <circle cx="222" cy="272" r="2"/>
    <circle cx="205" cy="255" r="2"/>
  </g>
  <g stroke="chocolate" stroke-width="1">
    <line x1="175" y1="295" x2="172" y2="288"/>
    <circle cx="175" cy="295" r="2"/>
    <circle cx="172" cy="288" r="2"/>
  </g>
  <g stroke="chocolate" stroke-width="1">
    <line x1="180" y1="305" x2="175" y2="295"/>
    <circle cx="180" cy="305" r="2"/>
    <circle cx="175" cy="295" r="2"/>
  </g>
  <g stroke="chocolate" stroke-width="1">
    <line x1="155" y1="305" x2="175" y2="295"/>
    <circle cx="155" cy="305" r="2"/>
    <circle cx="175" cy="295" r="2"/>
  </g>
  <g stroke="chocolate" stroke-width="1">
    <line x1="188" y1="238" x2="205" y2="230"/>
    <circle cx="188" cy="238" r="2"/>
    <circle cx="205" cy="230" r="2"/>
  </g>
  <g stroke="chocolate" stroke-width="1">
    <line x1="155" y1="255" x2="188" y2="238"/>
    <circle cx="155" cy="255" r="2"/>
    <circle cx="188" cy="238" r="2"/>
  </g>
  <g stroke="chocolate" stroke-width="1">
    <line x1="188" y1="238" x2="180" y2="230"/>
    <circle cx="188" cy="238" r="2"/>
    <circle cx="180" cy="230" r="2"/>
  </g>
  <g stroke="chocolate" stroke-width="1">
    <line x1="205" y1="255" x2="188" y2="238"/>
    <circle cx="205" cy="255" r="2"/>
    <circle cx="188" cy="238" r="2"/>
  </g>
  <g stroke="chocolate" stroke-width="1">
    <line x1="255" y1="230" x2="255" y2="205"/>
    <circle cx="255" cy="230" r="2"/>
    <circle cx="255" cy="205" r="2"/>
  </g>
  <g stroke="chocolate" stroke-width="1">
    <line x1="205" y1="255" x2="255" y2="230"/>
    <circle cx="205" cy="255" r="2"/>
    <circle cx="255" cy="230" r="2"/>
  </g>
  <g stroke="chocolate" stroke-width="1">
    <line x1="272" y1="288" x2="280" y2="280"/>
    <circle cx="272" cy="288" r="2"/>
    <circle cx="280" cy="280" r="2"/>
  </g>
  <g stroke="chocolate" stroke-width="1">
    <line x1="272" y1="272" x2="285" y2="265"/>
    <circle cx="272" cy="272" r="2"/>
    <circle cx="285" cy="265" r="2"/>
  </g>
  <g stroke="chocolate" stroke-width="1">
    <line x1="272" y1="272" x2="255" y2="255"/>
    <circle cx="272" cy="272" r="2"/>
    <circle cx="255" cy="255" r="2"/>
  </g>
  <g stroke="chocolate" stroke-width="1">
    <line x1="280" y1="280" x2="272" y2="272"/>
    <circle cx="280" cy="280" r="2"/>
    <circle cx="272" cy="272" r="2"/>
  </g>
  <g stroke="chocolate" stroke-width="1">
    <line x1="305" y1="330" x2="322" y2="322"/>
    <circle cx="305" cy="330" r="2"/>
    <circle cx="322" cy="322" r="2"/>
  </g>
  <g stroke="chocolate" stroke-width="1">
    <line x1="355" y1="305" x2="305" y2="255"/>
    <circle cx="355" cy="305" r="2"/>
    <circle cx="305" cy="255" r="2"/>
  </g>
  <g stroke="chocolate" stroke-width="1">
    <line x1="305" y1="255" x2="330" y2="255"/>
    <circle cx="305" cy="255" r="2"/>
    <circle cx="330" cy="255" r="2"/>
  </g>
  <g stroke="chocolate" stroke-width="1">
    <line x1="322" y1="238" x2="330" y2="230"/>
    <circle cx="322" cy="238" r="2"/>
    <circle cx="330" cy="230" r="2"/>
  </g>
  <g stroke="chocolate" stroke-width="1">
    <line x1="288" y1="272" x2="322" y2="238"/>
    <circle cx="288" cy="272" r="2"/>
    <circle cx="322" cy="238" r="2"/>
  </g>
  <g stroke="chocolate" stroke-width="1">
    <line x1="322" y1="238" x2="305" y2="205"/>
    <circle cx="322" cy="238" r="2"/>
    <circle cx="305" cy="205" r="2"/>
  </g>
  <g stroke="chocolate" stroke-width="1">
    <line x1="330" y1="255" x2="322" y2="238"/>
    <circle cx="330" cy="255" r="2"/>
    <circle cx="322" cy="238" r="2"/>
  </g>
  <g stroke="chocolate" stroke-width="1">
    <line x1="322" y1="372" x2="288" y2="338"/>
    <circle cx="322" cy="372" r="2"/>
    <circle cx="288" cy="338" r="2"/>
  </g>
  <g stroke="chocolate" stroke-width="1">
    <line x1="330" y1="380" x2="322" y2="372"/>
    <circle cx="330" cy="380" r="2"/>
    <circle cx="322" cy="372" r="2"/>
  </g>
  <g stroke="chocolate" stroke-width="1">
    <line x1="322" y1="372" x2="355" y2="355"/>
    <circle cx="322" cy="372" r="2"/>
    <circle cx="355" cy="355" r="2"/>
  </g>
  <g stroke="chocolate" stroke-width="1">
    <line x1="305" y1="380" x2="322" y2="372"/>
    <circle cx="305" cy="380" r="2"/>
    <circle cx="322" cy="372" r="2"/>
  </g>
  <g stroke="chocolate" stroke-width="1">
    <line x1="255" y1="330" x2="255" y2="305"/>
    <circle cx="255" cy="330" r="2"/>
    <circle cx="255" cy="305" r="2"/>
  </g>
  <g stroke="chocolate" stroke-width="1">
    <line x1="255" y1="355" x2="255" y2="330"/>
    <circle cx="255" cy="355" r="2"/>
    <circle cx="255" cy="330" r="2"/>
  </g>
  <g stroke="chocolate" stroke-width="1">
    <line x1="230" y1="355" x2="225" y2="345"/>
    <circle cx="230" cy="355" r="2"/>
    <circle cx="225" cy="345" r="2"/>
  </g>
  <g stroke="chocolate" stroke-width="1">
    <line x1="225" y1="345" x2="238" y2="338"/>
    <circle cx="225" cy="345" r="2"/>
    <circle cx="238" cy="338" r="2"/>
  </g>
  <g stroke="chocolate" stroke-width="1">
    <line x1="205" y1="355" x2="225" y2="345"/>
    <circle cx="205" cy="355" r="2"/>
    <circle cx="225" cy="345" r="2"/>
  </g>
  <g stroke="chocolate" stroke-width="1">
    <line x1="280" y1="280" x2="288" y2="272"/>
    <circle cx="280" cy="280" r="2"/>
    <circle cx="288" cy="272" r="2"/>
  </g>
  <g stroke="chocolate" stroke-width="1">
    <line x1="288" y1="272" x2="285" y2="265"/>
    <circle cx="288" cy="272" r="2"/>
    <circle cx="285" cy="265" r="2"/>
  </g>
  <g stroke="chocolate" stroke-width="1">
    <line x1="305" y1="305" x2="288" y2="272"/>
    <circle cx="305" cy="305" r="2"/>
    <circle cx="288" cy="272" r="2"/>
  </g>
  <g stroke="chocolate" stroke-width="1">
    <line x1="288" y1="338" x2="295" y2="335"/>
    <circle cx="288" cy="338" r="2"/>
    <circle cx="295" cy="335" r="2"/>
  </g>
  <g stroke="chocolate" stroke-width="1">
    <line x1="255" y1="355" x2="288" y2="338"/>
    <circle cx="255" cy="355" r="2"/>
    <circle cx="288" cy="338" r="2"/>
  </g>
  <g stroke="chocolate" stroke-width="1">
    <line x1="238" y1="372" x2="230" y2="355"/>
    <circle cx="238" cy="372" r="2"/>
    <circle cx="230" cy="355" r="2"/>
  </g>
  <g stroke="chocolate" stroke-width="1">
    <line x1="230" y1="355" x2="255" y2="355"/>
    <circle cx="230" cy="355" r="2"/>
    <circle cx="255" cy="355" r="2"/>
  </g>
  <g stroke="chocolate" stroke-width="1">
    <line x1="205" y1="355" x2="230" y2="355"/>
    <circle cx="205" cy="355" r="2"/>
    <circle cx="230" cy="355" r="2"/>
  </g>
  <g stroke="chocolate" stroke-width="1">
    <line x1="205" y1="280" x2="215" y2="275"/>
    <circle cx="205" cy="280" r="2"/>
    <circle cx="215" cy="275" r="2"/>
  </g>
  <g stroke="chocolate" stroke-width="1">
    <line x1="215" y1="275" x2="205" y2="255"/>
    <circle cx="215" cy="275" r="2"/>
    <circle cx="205" cy="255" r="2"/>
  </g>
  <g stroke="chocolate" stroke-width="1">
    <line x1="222" y1="288" x2="215" y2="275"/>
    <circle cx="222" cy="288" r="2"/>
    <circle cx="215" cy="275" r="2"/>
  </g>
  <g stroke="chocolate" stroke-width="1">
    <line x1="205" y1="305" x2="225" y2="295"/>
    <circle cx="205" cy="305" r="2"/>
    <circle cx="225" cy="295" r="2"/>
  </g>
  <g stroke="chocolate" stroke-width="1">
    <line x1="225" y1="295" x2="222" y2="288"/>
    <circle cx="225" cy="295" r="2"/>
    <circle cx="222" cy="288" r="2"/>
  </g>
  <g stroke="chocolate" stroke-width="1">
    <line x1="255" y1="405" x2="238" y2="388"/>
    <circle cx="255" cy="405" r="2"/>
    <circle cx="238" cy="388" r="2"/>
  </g>
  <g stroke="chocolate" stroke-width="1">
    <line x1="238" y1="388" x2="245" y2="385"/>
    <circle cx="238" cy="388" r="2"/>
    <circle cx="245" cy="385" r="2"/>
  </g>
  <g stroke="chocolate" stroke-width="1">
    <line x1="205" y1="405" x2="238" y2="388"/>
    <circle cx="205" cy="405" r="2"/>
    <circle cx="238" cy="388" r="2"/>
  </g>
  <g stroke="chocolate" stroke-width="1">
    <line x1="180" y1="280" x2="155" y2="255"/>
    <circle cx="180" cy="280" r="2"/>
    <circle cx="155" cy="255" r="2"/>
  </g>
  <g stroke="chocolate" stroke-width="1">
    <line x1="180" y1="280" x2="255" y2="205"/>
    <circle cx="180" cy="280" r="2"/>
    <circle cx="255" cy="205" r="2"/>
  </g>
  <g stroke="chocolate" stroke-width="1">
    <line x1="172" y1="288" x2="180" y2="280"/>
    <circle cx="172" cy="288" r="2"/>
    <circle cx="180" cy="280" r="2"/>
  </g>
  <g stroke="chocolate" stroke-width="1">
    <line x1="155" y1="305" x2="180" y2="305"/>
    <circle cx="155" cy="305" r="2"/>
    <circle cx="180" cy="305" r="2"/>
  </g>
  <g stroke="chocolate" stroke-width="1">
    <line x1="205" y1="355" x2="180" y2="305"/>
    <circle cx="205" cy="355" r="2"/>
    <circle cx="180" cy="305" r="2"/>
  </g>
  <g stroke="chocolate" stroke-width="1">
    <line x1="355" y1="355" x2="338" y2="322"/>
    <circle cx="355" cy="355" r="2"/>
    <circle cx="338" cy="322" r="2"/>
  </g>
  <g stroke="chocolate" stroke-width="1">
    <line x1="338" y1="322" x2="355" y2="305"/>
    <circle cx="338" cy="322" r="2"/>
    <circle cx="355" cy="305" r="2"/>
  </g>
  <g stroke="chocolate" stroke-width="1">
    <line x1="295" y1="335" x2="305" y2="330"/>
    <circle cx="295" cy="335" r="2"/>
    <circle cx="305" cy="330" r="2"/>
  </g>
  <g stroke="chocolate" stroke-width="1">
    <line x1="305" y1="330" x2="305" y2="305"/>
    <circle cx="305" cy="330" r="2"/>
    <circle cx="305" cy="305" r="2"/>
  </g>
  <g stroke="chocolate" stroke-width="1">
    <line x1="305" y1="355" x2="305" y2="330"/>
    <circle cx="305" cy="355" r="2"/>
    <circle cx="305" cy="330" r="2"/>
  </g>
  <g stroke="chocolate" stroke-width="1">
    <line x1="180" y1="355" x2="205" y2="355"/>
    <circle cx="180" cy="355" r="2"/>
    <circle cx="205" cy="355" r="2"/>
  </g>
  <g stroke="chocolate" stroke-width="1">
    <line x1="155" y1="355" x2="180" y2="355"/>
    <circle cx="155" cy="355" r="2"/>
    <circle cx="180" cy="355" r="2"/>
  </g>
  <g stroke="chocolate" stroke-width="1">
    <line x1="180" y1="355" x2="155" y2="305"/>
    <circle cx="180" cy="355" r="2"/>
    <circle cx="155" cy="305" r="2"/>
  </g>
  <g stroke="chocolate" stroke-width="1">
    <line x1="188" y1="372" x2="180" y2="355"/>
    <circle cx="188" cy="372" r="2"/>
    <circle cx="180" cy="355" r="2"/>
  </g>
  <g stroke="chocolate" stroke-width="1">
    <line x1="295" y1="335" x2="288" y2="322"/>
    <circle cx="295" cy="335" r="2"/>
    <circle cx="288" cy="322" r="2"/>
  </g>
  <g stroke="chocolate" stroke-width="1">
    <line x1="288" y1="322" x2="305" y2="305"/>
    <circle cx="288" cy="322" r="2"/>
    <circle cx="305" cy="305" r="2"/>
  </g>
  <g stroke="chocolate" stroke-width="1">
    <line x1="245" y1="385" x2="238" y2="372"/>
    <circle cx="245" cy="385" r="2"/>
    <circle cx="238" cy="372" r="2"/>
  </g>
  <g stroke="chocolate" stroke-width="1">
    <line x1="238" y1="372" x2="255" y2="355"/>
    <circle cx="238" cy="372" r="2"/>
    <circle cx="255" cy="355" r="2"/>
  </g>
  <g stroke="chocolate" stroke-width="1">
    <line x1="255" y1="380" x2="305" y2="355"/>
    <circle cx="255" cy="380" r="2"/>
    <circle cx="305" cy="355" r="2"/>
  </g>
  <g stroke="chocolate" stroke-width="1">
    <line x1="245" y1="385" x2="255" y2="380"/>
    <circle cx="245" cy="385" r="2"/>
    <circle cx="255" cy="380" r="2"/>
  </g>
  <g stroke="chocolate" stroke-width="1">
    <line x1="255" y1="380" x2="255" y2="355"/>
    <circle cx="255" cy="380" r="2"/>
    <circle cx="255" cy="355" r="2"/>
  </g>
  <g stroke="chocolate" stroke-width="1">
    <line x1="255" y1="405" x2="255" y2="380"/>
    <circle cx="255" cy="405" r="2"/>
    <circle cx="255" cy="380" r="2"/>
  </g>
  <g stroke="chocolate" stroke-width="1">
    <line x1="205" y1="230" x2="205" y2="205"/>
    <circle cx="205" cy="230" r="2"/>
    <circle cx="205" cy="205" r="2"/>
  </g>
  <g stroke="chocolate" stroke-width="1">
    <line x1="205" y1="255" x2="205" y2="230"/>
    <circle cx="205" cy="255" r="2"/>
    <circle cx="205" cy="230" r="2"/>
  </g>
  <g stroke="chocolate" stroke-width="1">
    <line x1="205" y1="230" x2="255" y2="205"/>
    <circle cx="205" cy="230" r="2"/>
    <circle cx="255" cy="205" r="2"/>
  </g>
  <g stroke="chocolate" stroke-width="1">
    <line x1="205" y1="280" x2="205" y2="255"/>
    <circle cx="205" cy="280" r="2"/>
    <circle cx="205" cy="255" r="2"/>
  </g>
  <g stroke="chocolate" stroke-width="1">
    <line x1="205" y1="305" x2="205" y2="280"/>
    <circle cx="205" cy="305" r="2"/>
    <circle cx="205" cy="280" r="2"/>
  </g>
  <g stroke="chocolate" stroke-width="1">
    <line x1="330" y1="230" x2="355" y2="205"/>
    <circle cx="330" cy="230" r="2"/>
    <circle cx="355" cy="205" r="2"/>
  </g>
  <g stroke="chocolate" stroke-width="1">
    <line x1="330" y1="230" x2="305" y2="205"/>
    <circle cx="330" cy="230" r="2"/>
    <circle cx="305" cy="205" r="2"/>
  </g>
  <g stroke="chocolate" stroke-width="1">
    <line x1="355" y1="255" x2="330" y2="230"/>
    <circle cx="355" cy="255" r="2"/>
    <circle cx="330" cy="230" r="2"/>
  </g>
  <g stroke="chocolate" stroke-width="1">
    <line x1="180" y1="230" x2="155" y2="205"/>
    <circle cx="180" cy="230" r="2"/>
    <circle cx="155" cy="205" r="2"/>
  </g>
  <g stroke="chocolate" stroke-width="1">
    <line x1="180" y1="230" x2="205" y2="205"/>
    <circle cx="180" cy="230" r="2"/>
    <circle cx="205" cy="205" r="2"/>
  </g>
  <g stroke="chocolate" stroke-width="1">
    <line x1="155" y1="255" x2="180" y2="230"/>
    <circle cx="155" cy="255" r="2"/>
    <circle cx="180" cy="230" r="2"/>
  </g>
  <g stroke="chocolate" stroke-width="1">
    <line x1="272" y1="222" x2="305" y2="205"/>
    <circle cx="272" cy="222" r="2"/>
    <circle cx="305" cy="205" r="2"/>
  </g>
  <g stroke="chocolate" stroke-width="1">
    <line x1="272" y1="222" x2="255" y2="205"/>
    <circle cx="272" cy="222" r="2"/>
    <circle cx="255" cy="205" r="2"/>
  </g>
  <g stroke="chocolate" stroke-width="1">
    <line x1="330" y1="255" x2="355" y2="255"/>
    <circle cx="330" cy="255" r="2"/>
    <circle cx="355" cy="255" r="2"/>
  </g>
  <g stroke="chocolate" stroke-width="1">
    <line x1="355" y1="305" x2="330" y2="255"/>
    <circle cx="355" cy="305" r="2"/>
    <circle cx="330" cy="255" r="2"/>
  </g>
  <g stroke="chocolate" stroke-width="1">
    <line x1="305" y1="380" x2="305" y2="355"/>
    <circle cx="305" cy="380" r="2"/>
    <circle cx="305" cy="355" r="2"/>
  </g>
  <g stroke="chocolate" stroke-width="1">
    <line x1="305" y1="405" x2="305" y2="380"/>
    <circle cx="305" cy="405" r="2"/>
    <circle cx="305" cy="380" r="2"/>
  </g>
  <g stroke="chocolate" stroke-width="1">
    <line x1="255" y1="405" x2="305" y2="380"/>
    <circle cx="255" cy="405" r="2"/>
    <circle cx="305" cy="380" r="2"/>
  </g>
  <g stroke="chocolate" stroke-width="1">
    <line x1="255" y1="355" x2="238" y2="338"/>
    <circle cx="255" cy="355" r="2"/>
    <circle cx="238" cy="338" r="2"/>
  </g>
  <g stroke="chocolate" stroke-width="1">
    <line x1="330" y1="305" x2="355" y2="305"/>
    <circle cx="330" cy="305" r="2"/>
    <circle cx="355" cy="305" r="2"/>
  </g>
  <g stroke="chocolate" stroke-width="1">
    <line x1="330" y1="305" x2="305" y2="255"/>
    <circle cx="330" cy="305" r="2"/>
    <circle cx="305" cy="255" r="2"/>
  </g>
  <g stroke="chocolate" stroke-width="1">
    <line x1="285" y1="265" x2="305" y2="255"/>
    <circle cx="285" cy="265" r="2"/>
    <circle cx="305" cy="255" r="2"/>
  </g>
  <g stroke="chocolate" stroke-width="1">
    <line x1="305" y1="355" x2="295" y2="335"/>
    <circle cx="305" cy="355" r="2"/>
    <circle cx="295" cy="335" r="2"/>
  </g>
  <g stroke="chocolate" stroke-width="1">
    <line x1="205" y1="355" x2="155" y2="305"/>
    <circle cx="205" cy="355" r="2"/>
    <circle cx="155" cy="305" r="2"/>
  </g>
  <g stroke="chocolate" stroke-width="1">
    <line x1="205" y1="305" x2="222" y2="288"/>
    <circle cx="205" cy="305" r="2"/>
    <circle cx="222" cy="288" r="2"/>
  </g>
  <g stroke="chocolate" stroke-width="1">
    <line x1="180" y1="380" x2="188" y2="372"/>
    <circle cx="180" cy="380" r="2"/>
    <circle cx="188" cy="372" r="2"/>
  </g>
  <g stroke="chocolate" stroke-width="1">
    <line x1="155" y1="405" x2="180" y2="380"/>
    <circle cx="155" cy="405" r="2"/>
    <circle cx="180" cy="380" r="2"/>
  </g>
  <g stroke="chocolate" stroke-width="1">
    <line x1="180" y1="380" x2="155" y2="355"/>
    <circle cx="180" cy="380" r="2"/>
    <circle cx="155" cy="355" r="2"/>
  </g>
  <g stroke="chocolate" stroke-width="1">
    <line x1="205" y1="405" x2="180" y2="380"/>
    <circle cx="205" cy="405" r="2"/>
    <circle cx="180" cy="380" r="2"/>
  </g>
  <g stroke="chocolate" stroke-width="1">
    <line x1="355" y1="405" x2="330" y2="380"/>
    <circle cx="355" cy="405" r="2"/>
    <circle cx="330" cy="380" r="2"/>
  </g>
  <g stroke="chocolate" stroke-width="1">
    <line x1="330" y1="380" x2="355" y2="355"/>
    <circle cx="330" cy="380" r="2"/>
    <circle cx="355" cy="355" r="2"/>
  </g>
  <g stroke="chocolate" stroke-width="1">
    <line x1="305" y1="405" x2="330" y2="380"/>
    <circle cx="305" cy="405" r="2"/>
    <circle cx="330" cy="380" r="2"/>
  </g>
  <g stroke="chocolate" stroke-width="1">
    <line x1="255" y1="405" x2="245" y2="385"/>
    <circle cx="255" cy="405" r="2"/>
    <circle cx="245" cy="385" r="2"/>
  </g>
  <g stroke="chocolate" stroke-width="1">
    <line x1="155" y1="305" x2="172" y2="288"/>
    <circle cx="155" cy="305" r="2"/>
    <circle cx="172" cy="288" r="2"/>
  </g>
  <g stroke="chocolate" stroke-width="1">
    <line x1="172" y1="288" x2="155" y2="255"/>
    <circle cx="172" cy="288" r="2"/>
    <circle cx="155" cy="255" r="2"/>
  </g>
  <g stroke="chocolate" stroke-width="1">
    <line x1="255" y1="405" x2="305" y2="355"/>
    <circle cx="255" cy="405" r="2"/>
    <circle cx="305" cy="355" r="2"/>
  </g>
  <g stroke="chocolate" stroke-width="1">
    <line x1="205" y1="405" x2="188" y2="372"/>
    <circle cx="205" cy="405" r="2"/>
    <circle cx="188" cy="372" r="2"/>
  </g>
  <g stroke="chocolate" stroke-width="1">
    <line x1="205" y1="205" x2="355" y2="205"/>
    <circle cx="205" cy="205" r="2"/>
    <circle cx="355" cy="205" r="2"/>
  </g>
  <g stroke="chocolate" stroke-width="1">
    <line x1="155" y1="405" x2="305" y2="405"/>
    <circle cx="155" cy="405" r="2"/>
    <circle cx="305" cy="405" r="2"/>
  </g>
  <g stroke="chocolate" stroke-width="1">
    <line x1="355" y1="405" x2="355" y2="255"/>
    <circle cx="355" cy="405" r="2"/>
    <circle cx="355" cy="255" r="2"/>
  </g>
  <g stroke="chocolate" stroke-width="1">
    <line x1="155" y1="355" x2="155" y2="205"/>
    <circle cx="155" cy="355" r="2"/>
    <circle cx="155" cy="205" r="2"/>
  </g>
  <g stroke="black" stroke-width="1">
    <line x1="5" y1="5" x2="505" y2="5"/>
    <line x1="5" y1="5" x2="5" y2="505"/>
    <line x1="505" y1="505" x2="5" y2="505"/>
    <line x1="505" y1="505" x2="505" y2="5"/>
    <line x1="105" y1="2" x2="105" y2="8"/>
    <line x1="2" y1="105" x2="8" y2="105"/>
    <line x1="105" y1="502" x2="105" y2="508"/>
    <line x1="502" y1="105" x2="508" y2="105"/>
    <line x1="205" y1="2" x2="205" y2="8"/>
    <line x1="2" y1="205" x2="8" y2="205"/>
    <line x1="205" y1="502" x2="205" y2="508"/>
    <line x1="502" y1="205" x2="508" y2="205"/>
    <line x1="305" y1="2" x2="305" y2="8"/>
    <line x1="2" y1="305" x2="8" y2="305"/>
    <line x1="305" y1="502" x2="305" y2="508"/>
    <line x1="502" y1="305" x2="508" y2="305"/>
    <line x1="405" y1="2" x2="405" y2="8"/>
    <line x1="2" y1="405" x2="8" y2="405"/>
    <line x1="405" y1="502" x2="405" y2="508"/>
    <line x1="502" y1="405" x2="508" y2="405"/>
  </g>
  <g stroke="gray" stroke-width="1" stroke-dasharray="5,5">
    <line x1="105" y1="5" x2="105" y2="505"/>
    <line x1="5" y1="105" x2="505" y2="105"/>
    <line x1="205" y1="5" x2="205" y2="505"/>
    <line x1="5" y1="205" x2="505" y2="205"/>
    <line x1="305" y1="5" x2="305" y2="505"/>
    <line x1="5" y1="305" x2="505" y2="305"/>
    <line x1="405" y1="5" x2="405" y2="505"/>
    <line x1="5" y1="405" x2="505" y2="405"/>
  </g>
</svg>
