<?xml version="1.0" standalone="no"?>
<!DOCTYPE svg PUBLIC "-//W3C//DTD SVG 1.1//EN" 
  "http://www.w3.org/Graphics/SVG/1.1/DTD/svg11.dtd">
<svg width="510" height="510" version="1.1" id="toplevel"
    xmlns="http://www.w3.org/2000/svg"
    xmlns:xlink="http://www.w3.org/1999/xlink">
  <polygon points="360,505 505,505 505,5 78,5 5,142 5,146 223,462" fill="bisque"/>
  <g stroke="chocolate" stroke-width="1">
    <line x1="226" y1="412" x2="154" y2="362"/>
    <circle cx="226" cy="412" r="2"/>
    <circle cx="154" cy="362" r="2"/>
  </g>
  <g stroke="chocolate" stroke-width="1">
    <line x1="360" y1="505" x2="226" y2="412"/>
    <circle cx="360" cy="505" r="2"/>
    <circle cx="226" cy="412" r="2"/>
  </g>
  <g stroke="chocolate" stroke-width="1">
    <line x1="226" y1="412" x2="237" y2="234"/>
    <circle cx="226" cy="412" r="2"/>
    <circle cx="237" cy="234" r="2"/>
  </g>
  <g stroke="chocolate" stroke-width="1">
    <line x1="223" y1="462" x2="226" y2="412"/>
    <circle cx="223" cy="462" r="2"/>
    <circle cx="226" cy="412" r="2"/>
  </g>
  <g stroke="chocolate" stroke-width="1">
    <line x1="78" y1="5" x2="505" y2="5"/>
    <circle cx="78" cy="5" r="2"/>
    <circle cx="505" cy="5" r="2"/>
  </g>
  <g stroke="chocolate" stroke-width="1">
    <line x1="237" y1="234" x2="5" y2="146"/>
    <circle cx="237" cy="234" r="2"/>
    <circle cx="5" cy="146" r="2"/>
  </g>
  <g stroke="chocolate" stroke-width="1">
    <line x1="5" y1="142" x2="119" y2="65"/>
    <circle cx="5" cy="142" r="2"/>
    <circle cx="119" cy="65" r="2"/>
  </g>
  <g stroke="chocolate" stroke-width="1">
    <line x1="129" y1="261" x2="237" y2="234"/>
    <circle cx="129" cy="261" r="2"/>
    <circle cx="237" cy="234" r="2"/>
  </g>
  <g stroke="chocolate" stroke-width="1">
    <line x1="119" y1="65" x2="78" y2="5"/>
    <circle cx="119" cy="65" r="2"/>
    <circle cx="78" cy="5" r="2"/>
  </g>
  <g stroke="chocolate" stroke-width="1">
    <line x1="223" y1="462" x2="5" y2="146"/>
    <circle cx="223" cy="462" r="2"/>
    <circle cx="5" cy="146" r="2"/>
  </g>
  <g stroke="chocolate" stroke-width="1">
    <line x1="360" y1="505" x2="223" y2="462"/>
    <circle cx="360" cy="505" r="2"/>
    <circle cx="223" cy="462" r="2"/>
  </g>
  <g stroke="chocolate" stroke-width="1">
    <line x1="5" y1="142" x2="78" y2="5"/>
    <circle cx="5" cy="142" r="2"/>
    <circle cx="78" cy="5" r="2"/>
  </g>
  <g stroke="chocolate" stroke-width="1">
    <line x1="154" y1="362" x2="129" y2="261"/>
    <circle cx="154" cy="362" r="2"/>
    <circle cx="129" cy="261" r="2"/>
  </g>
  <g stroke="chocolate" stroke-width="1">
    <line x1="505" y1="505" x2="505" y2="5"/>
    <circle cx="505" cy="505" r="2"/>
    <circle cx="505" cy="5" r="2"/>
  </g>
  <g stroke="chocolate" stroke-width="1">
    <line x1="5" y1="146" x2="5" y2="142"/>
    <circle cx="5" cy="146" r="2"/>
    <circle cx="5" cy="142" r="2"/>
  </g>
  <g stroke="chocolate" stroke-width="1">
    <line x1="360" y1="505" x2="505" y2="505"/>
    <circle cx="360" cy="505" r="2"/>
    <circle cx="505" cy="505" r="2"/>
  </g>
  <g stroke="black" stroke-width="1">
    <line x1="5" y1="5" x2="505" y2="5"/>
    <line x1="5" y1="5" x2="5" y2="505"/>
    <line x1="505" y1="505" x2="5" y2="505"/>
    <line x1="505" y1="505" x2="505" y2="5"/>
    <line x1="105" y1="2" x2="105" y2="8"/>
    <line x1="2" y1="105" x2="8" y2="105"/>
    <line x1="105" y1="502" x2="105" y2="508"/>
    <line x1="502" y1="105" x2="508" y2="105"/>
    <line x1="205" y1="2" x2="205" y2="8"/>
    <line x1="2" y1="205" x2="8" y2="205"/>
    <line x1="205" y1="502" x2="205" y2="508"/>
    <line x1="502" y1="205" x2="508" y2="205"/>
    <line x1="305" y1="2" x2="305" y2="8"/>
    <line x1="2" y1="305" x2="8" y2="305"/>
    <line x1="305" y1="502" x2="305" y2="508"/>
    <line x1="502" y1="305" x2="508" y2="305"/>
    <line x1="405" y1="2" x2="405" y2="8"/>
    <line x1="2" y1="405" x2="8" y2="405"/>
    <line x1="405" y1="502" x2="405" y2="508"/>
    <line x1="502" y1="405" x2="508" y2="405"/>
  </g>
  <g stroke="gray" stroke-width="1" stroke-dasharray="5,5">
    <line x1="105" y1="5" x2="105" y2="505"/>
    <line x1="5" y1="105" x2="505" y2="105"/>
    <line x1="205" y1="5" x2="205" y2="505"/>
    <line x1="5" y1="205" x2="505" y2="205"/>
    <line x1="305" y1="5" x2="305" y2="505"/>
    <line x1="5" y1="305" x2="505" y2="305"/>
    <line x1="405" y1="5" x2="405" y2="505"/>
    <line x1="5" y1="405" x2="505" y2="405"/>
  </g>
</svg>
