<?xml version="1.0" standalone="no"?>
<!DOCTYPE svg PUBLIC "-//W3C//DTD SVG 1.1//EN" 
  "http://www.w3.org/Graphics/SVG/1.1/DTD/svg11.dtd">
<svg width="510" height="510" version="1.1" id="toplevel"
    xmlns="http://www.w3.org/2000/svg"
    xmlns:xlink="http://www.w3.org/1999/xlink">
  <polygon points="245,420 268,358 505,240 305,90 141,308" fill="bisque"/>
  <g stroke="chocolate" stroke-width="1">
    <line x1="248" y1="240" x2="313" y2="240"/>
    <circle cx="248" cy="240" r="2"/>
    <circle cx="313" cy="240" r="2"/>
  </g>
  <g stroke="chocolate" stroke-width="1">
    <line x1="232" y1="240" x2="248" y2="240"/>
    <circle cx="232" cy="240" r="2"/>
    <circle cx="248" cy="240" r="2"/>
  </g>
  <g stroke="chocolate" stroke-width="1">
    <line x1="248" y1="240" x2="333" y2="186"/>
    <circle cx="248" cy="240" r="2"/>
    <circle cx="333" cy="186" r="2"/>
  </g>
  <g stroke="chocolate" stroke-width="1">
    <line x1="234" y1="249" x2="248" y2="240"/>
    <circle cx="234" cy="249" r="2"/>
    <circle cx="248" cy="240" r="2"/>
  </g>
  <g stroke="chocolate" stroke-width="1">
    <line x1="201" y1="270" x2="192" y2="240"/>
    <circle cx="201" cy="270" r="2"/>
    <circle cx="192" cy="240" r="2"/>
  </g>
  <g stroke="chocolate" stroke-width="1">
    <line x1="225" y1="350" x2="201" y2="270"/>
    <circle cx="225" cy="350" r="2"/>
    <circle cx="201" cy="270" r="2"/>
  </g>
  <g stroke="chocolate" stroke-width="1">
    <line x1="201" y1="270" x2="234" y2="249"/>
    <circle cx="201" cy="270" r="2"/>
    <circle cx="234" cy="249" r="2"/>
  </g>
  <g stroke="chocolate" stroke-width="1">
    <line x1="141" y1="308" x2="201" y2="270"/>
    <circle cx="141" cy="308" r="2"/>
    <circle cx="201" cy="270" r="2"/>
  </g>
  <g stroke="chocolate" stroke-width="1">
    <line x1="192" y1="240" x2="232" y2="240"/>
    <circle cx="192" cy="240" r="2"/>
    <circle cx="232" cy="240" r="2"/>
  </g>
  <g stroke="chocolate" stroke-width="1">
    <line x1="232" y1="240" x2="225" y2="197"/>
    <circle cx="232" cy="240" r="2"/>
    <circle cx="225" cy="197" r="2"/>
  </g>
  <g stroke="chocolate" stroke-width="1">
    <line x1="234" y1="249" x2="232" y2="240"/>
    <circle cx="234" cy="249" r="2"/>
    <circle cx="232" cy="240" r="2"/>
  </g>
  <g stroke="chocolate" stroke-width="1">
    <line x1="313" y1="240" x2="333" y2="186"/>
    <circle cx="313" cy="240" r="2"/>
    <circle cx="333" cy="186" r="2"/>
  </g>
  <g stroke="chocolate" stroke-width="1">
    <line x1="268" y1="358" x2="313" y2="240"/>
    <circle cx="268" cy="358" r="2"/>
    <circle cx="313" cy="240" r="2"/>
  </g>
  <g stroke="chocolate" stroke-width="1">
    <line x1="313" y1="240" x2="505" y2="240"/>
    <circle cx="313" cy="240" r="2"/>
    <circle cx="505" cy="240" r="2"/>
  </g>
  <g stroke="chocolate" stroke-width="1">
    <line x1="225" y1="350" x2="141" y2="308"/>
    <circle cx="225" cy="350" r="2"/>
    <circle cx="141" cy="308" r="2"/>
  </g>
  <g stroke="chocolate" stroke-width="1">
    <line x1="255" y1="365" x2="225" y2="350"/>
    <circle cx="255" cy="365" r="2"/>
    <circle cx="225" cy="350" r="2"/>
  </g>
  <g stroke="chocolate" stroke-width="1">
    <line x1="245" y1="420" x2="225" y2="350"/>
    <circle cx="245" cy="420" r="2"/>
    <circle cx="225" cy="350" r="2"/>
  </g>
  <g stroke="chocolate" stroke-width="1">
    <line x1="255" y1="365" x2="234" y2="249"/>
    <circle cx="255" cy="365" r="2"/>
    <circle cx="234" cy="249" r="2"/>
  </g>
  <g stroke="chocolate" stroke-width="1">
    <line x1="268" y1="358" x2="505" y2="240"/>
    <circle cx="268" cy="358" r="2"/>
    <circle cx="505" cy="240" r="2"/>
  </g>
  <g stroke="chocolate" stroke-width="1">
    <line x1="255" y1="365" x2="268" y2="358"/>
    <circle cx="255" cy="365" r="2"/>
    <circle cx="268" cy="358" r="2"/>
  </g>
  <g stroke="chocolate" stroke-width="1">
    <line x1="245" y1="420" x2="268" y2="358"/>
    <circle cx="245" cy="420" r="2"/>
    <circle cx="268" cy="358" r="2"/>
  </g>
  <g stroke="chocolate" stroke-width="1">
    <line x1="505" y1="240" x2="305" y2="90"/>
    <circle cx="505" cy="240" r="2"/>
    <circle cx="305" cy="90" r="2"/>
  </g>
  <g stroke="chocolate" stroke-width="1">
    <line x1="225" y1="197" x2="333" y2="186"/>
    <circle cx="225" cy="197" r="2"/>
    <circle cx="333" cy="186" r="2"/>
  </g>
  <g stroke="chocolate" stroke-width="1">
    <line x1="245" y1="420" x2="141" y2="308"/>
    <circle cx="245" cy="420" r="2"/>
    <circle cx="141" cy="308" r="2"/>
  </g>
  <g stroke="chocolate" stroke-width="1">
    <line x1="141" y1="308" x2="305" y2="90"/>
    <circle cx="141" cy="308" r="2"/>
    <circle cx="305" cy="90" r="2"/>
  </g>
  <g stroke="black" stroke-width="1">
    <line x1="5" y1="5" x2="505" y2="5"/>
    <line x1="5" y1="5" x2="5" y2="505"/>
    <line x1="505" y1="505" x2="5" y2="505"/>
    <line x1="505" y1="505" x2="505" y2="5"/>
    <line x1="105" y1="2" x2="105" y2="8"/>
    <line x1="2" y1="105" x2="8" y2="105"/>
    <line x1="105" y1="502" x2="105" y2="508"/>
    <line x1="502" y1="105" x2="508" y2="105"/>
    <line x1="205" y1="2" x2="205" y2="8"/>
    <line x1="2" y1="205" x2="8" y2="205"/>
    <line x1="205" y1="502" x2="205" y2="508"/>
    <line x1="502" y1="205" x2="508" y2="205"/>
    <line x1="305" y1="2" x2="305" y2="8"/>
    <line x1="2" y1="305" x2="8" y2="305"/>
    <line x1="305" y1="502" x2="305" y2="508"/>
    <line x1="502" y1="305" x2="508" y2="305"/>
    <line x1="405" y1="2" x2="405" y2="8"/>
    <line x1="2" y1="405" x2="8" y2="405"/>
    <line x1="405" y1="502" x2="405" y2="508"/>
    <line x1="502" y1="405" x2="508" y2="405"/>
  </g>
  <g stroke="gray" stroke-width="1" stroke-dasharray="5,5">
    <line x1="105" y1="5" x2="105" y2="505"/>
    <line x1="5" y1="105" x2="505" y2="105"/>
    <line x1="205" y1="5" x2="205" y2="505"/>
    <line x1="5" y1="205" x2="505" y2="205"/>
    <line x1="305" y1="5" x2="305" y2="505"/>
    <line x1="5" y1="305" x2="505" y2="305"/>
    <line x1="405" y1="5" x2="405" y2="505"/>
    <line x1="5" y1="405" x2="505" y2="405"/>
  </g>
</svg>
