<?xml version="1.0" standalone="no"?>
<!DOCTYPE svg PUBLIC "-//W3C//DTD SVG 1.1//EN" 
  "http://www.w3.org/Graphics/SVG/1.1/DTD/svg11.dtd">
<svg width="544" height="544" version="1.1" id="toplevel"
    xmlns="http://www.w3.org/2000/svg"
    xmlns:xlink="http://www.w3.org/1999/xlink">
  <polygon points="39,494 539,328 539,50 39,216 39,425 5,450" fill="bisque"/>
  <g stroke="chocolate" stroke-width="1">
    <line x1="39" y1="425" x2="39" y2="216"/>
    <circle cx="39" cy="425" r="2"/>
    <circle cx="39" cy="216" r="2"/>
  </g>
  <g stroke="chocolate" stroke-width="1">
    <line x1="39" y1="494" x2="39" y2="425"/>
    <circle cx="39" cy="494" r="2"/>
    <circle cx="39" cy="425" r="2"/>
  </g>
  <g stroke="chocolate" stroke-width="1">
    <line x1="39" y1="425" x2="539" y2="50"/>
    <circle cx="39" cy="425" r="2"/>
    <circle cx="539" cy="50" r="2"/>
  </g>
  <g stroke="chocolate" stroke-width="1">
    <line x1="5" y1="450" x2="39" y2="425"/>
    <circle cx="5" cy="450" r="2"/>
    <circle cx="39" cy="425" r="2"/>
  </g>
  <g stroke="chocolate" stroke-width="1">
    <line x1="539" y1="328" x2="405" y2="150"/>
    <circle cx="539" cy="328" r="2"/>
    <circle cx="405" cy="150" r="2"/>
  </g>
  <g stroke="chocolate" stroke-width="1">
    <line x1="139" y1="350" x2="39" y2="216"/>
    <circle cx="139" cy="350" r="2"/>
    <circle cx="39" cy="216" r="2"/>
  </g>
  <g stroke="chocolate" stroke-width="1">
    <line x1="39" y1="494" x2="5" y2="450"/>
    <circle cx="39" cy="494" r="2"/>
    <circle cx="5" cy="450" r="2"/>
  </g>
  <g stroke="chocolate" stroke-width="1">
    <line x1="539" y1="328" x2="539" y2="50"/>
    <circle cx="539" cy="328" r="2"/>
    <circle cx="539" cy="50" r="2"/>
  </g>
  <g stroke="chocolate" stroke-width="1">
    <line x1="39" y1="216" x2="539" y2="50"/>
    <circle cx="39" cy="216" r="2"/>
    <circle cx="539" cy="50" r="2"/>
  </g>
  <g stroke="chocolate" stroke-width="1">
    <line x1="39" y1="494" x2="539" y2="328"/>
    <circle cx="39" cy="494" r="2"/>
    <circle cx="539" cy="328" r="2"/>
  </g>
  <g stroke="black" stroke-width="1">
    <line x1="22" y1="22" x2="522" y2="22"/>
    <line x1="22" y1="22" x2="22" y2="522"/>
    <line x1="522" y1="522" x2="22" y2="522"/>
    <line x1="522" y1="522" x2="522" y2="22"/>
    <line x1="122" y1="19" x2="122" y2="25"/>
    <line x1="19" y1="122" x2="25" y2="122"/>
    <line x1="122" y1="519" x2="122" y2="525"/>
    <line x1="519" y1="122" x2="525" y2="122"/>
    <line x1="222" y1="19" x2="222" y2="25"/>
    <line x1="19" y1="222" x2="25" y2="222"/>
    <line x1="222" y1="519" x2="222" y2="525"/>
    <line x1="519" y1="222" x2="525" y2="222"/>
    <line x1="322" y1="19" x2="322" y2="25"/>
    <line x1="19" y1="322" x2="25" y2="322"/>
    <line x1="322" y1="519" x2="322" y2="525"/>
    <line x1="519" y1="322" x2="525" y2="322"/>
    <line x1="422" y1="19" x2="422" y2="25"/>
    <line x1="19" y1="422" x2="25" y2="422"/>
    <line x1="422" y1="519" x2="422" y2="525"/>
    <line x1="519" y1="422" x2="525" y2="422"/>
  </g>
  <g stroke="gray" stroke-width="1" stroke-dasharray="5,5">
    <line x1="122" y1="22" x2="122" y2="522"/>
    <line x1="22" y1="122" x2="522" y2="122"/>
    <line x1="222" y1="22" x2="222" y2="522"/>
    <line x1="22" y1="222" x2="522" y2="222"/>
    <line x1="322" y1="22" x2="322" y2="522"/>
    <line x1="22" y1="322" x2="522" y2="322"/>
    <line x1="422" y1="22" x2="422" y2="522"/>
    <line x1="22" y1="422" x2="522" y2="422"/>
  </g>
</svg>
