<?xml version="1.0" standalone="no"?>
<!DOCTYPE svg PUBLIC "-//W3C//DTD SVG 1.1//EN" 
  "http://www.w3.org/Graphics/SVG/1.1/DTD/svg11.dtd">
<svg width="510" height="510" version="1.1" id="toplevel"
    xmlns="http://www.w3.org/2000/svg"
    xmlns:xlink="http://www.w3.org/1999/xlink">
  <polygon points="225,445 255,405 285,445 325,415 286,363 330,305 305,255 205,255 180,305 224,363 185,415"
           fill="bisque"/>
  <polygon points="255,322 242,305 268,305" fill="bisque"/>
  <g stroke="chocolate" stroke-width="1">
    <line x1="242" y1="305" x2="268" y2="305"/>
    <circle cx="242" cy="305" r="2"/>
    <circle cx="268" cy="305" r="2"/>
  </g>
  <g stroke="chocolate" stroke-width="1">
    <line x1="180" y1="305" x2="242" y2="305"/>
    <circle cx="180" cy="305" r="2"/>
    <circle cx="242" cy="305" r="2"/>
  </g>
  <g stroke="chocolate" stroke-width="1">
    <line x1="242" y1="305" x2="205" y2="255"/>
    <circle cx="242" cy="305" r="2"/>
    <circle cx="205" cy="255" r="2"/>
  </g>
  <g stroke="chocolate" stroke-width="1">
    <line x1="255" y1="322" x2="242" y2="305"/>
    <circle cx="255" cy="322" r="2"/>
    <circle cx="242" cy="305" r="2"/>
  </g>
  <g stroke="chocolate" stroke-width="1">
    <line x1="224" y1="363" x2="255" y2="322"/>
    <circle cx="224" cy="363" r="2"/>
    <circle cx="255" cy="322" r="2"/>
  </g>
  <g stroke="chocolate" stroke-width="1">
    <line x1="185" y1="415" x2="224" y2="363"/>
    <circle cx="185" cy="415" r="2"/>
    <circle cx="224" cy="363" r="2"/>
  </g>
  <g stroke="chocolate" stroke-width="1">
    <line x1="224" y1="363" x2="180" y2="305"/>
    <circle cx="224" cy="363" r="2"/>
    <circle cx="180" cy="305" r="2"/>
  </g>
  <g stroke="chocolate" stroke-width="1">
    <line x1="255" y1="405" x2="224" y2="363"/>
    <circle cx="255" cy="405" r="2"/>
    <circle cx="224" cy="363" r="2"/>
  </g>
  <g stroke="chocolate" stroke-width="1">
    <line x1="286" y1="363" x2="255" y2="322"/>
    <circle cx="286" cy="363" r="2"/>
    <circle cx="255" cy="322" r="2"/>
  </g>
  <g stroke="chocolate" stroke-width="1">
    <line x1="325" y1="415" x2="286" y2="363"/>
    <circle cx="325" cy="415" r="2"/>
    <circle cx="286" cy="363" r="2"/>
  </g>
  <g stroke="chocolate" stroke-width="1">
    <line x1="286" y1="363" x2="330" y2="305"/>
    <circle cx="286" cy="363" r="2"/>
    <circle cx="330" cy="305" r="2"/>
  </g>
  <g stroke="chocolate" stroke-width="1">
    <line x1="255" y1="405" x2="286" y2="363"/>
    <circle cx="255" cy="405" r="2"/>
    <circle cx="286" cy="363" r="2"/>
  </g>
  <g stroke="chocolate" stroke-width="1">
    <line x1="268" y1="305" x2="305" y2="255"/>
    <circle cx="268" cy="305" r="2"/>
    <circle cx="305" cy="255" r="2"/>
  </g>
  <g stroke="chocolate" stroke-width="1">
    <line x1="255" y1="322" x2="268" y2="305"/>
    <circle cx="255" cy="322" r="2"/>
    <circle cx="268" cy="305" r="2"/>
  </g>
  <g stroke="chocolate" stroke-width="1">
    <line x1="268" y1="305" x2="330" y2="305"/>
    <circle cx="268" cy="305" r="2"/>
    <circle cx="330" cy="305" r="2"/>
  </g>
  <g stroke="chocolate" stroke-width="1">
    <line x1="285" y1="445" x2="255" y2="405"/>
    <circle cx="285" cy="445" r="2"/>
    <circle cx="255" cy="405" r="2"/>
  </g>
  <g stroke="chocolate" stroke-width="1">
    <line x1="225" y1="445" x2="255" y2="405"/>
    <circle cx="225" cy="445" r="2"/>
    <circle cx="255" cy="405" r="2"/>
  </g>
  <g stroke="chocolate" stroke-width="1">
    <line x1="205" y1="255" x2="305" y2="255"/>
    <circle cx="205" cy="255" r="2"/>
    <circle cx="305" cy="255" r="2"/>
  </g>
  <g stroke="chocolate" stroke-width="1">
    <line x1="330" y1="305" x2="305" y2="255"/>
    <circle cx="330" cy="305" r="2"/>
    <circle cx="305" cy="255" r="2"/>
  </g>
  <g stroke="chocolate" stroke-width="1">
    <line x1="225" y1="445" x2="185" y2="415"/>
    <circle cx="225" cy="445" r="2"/>
    <circle cx="185" cy="415" r="2"/>
  </g>
  <g stroke="chocolate" stroke-width="1">
    <line x1="180" y1="305" x2="205" y2="255"/>
    <circle cx="180" cy="305" r="2"/>
    <circle cx="205" cy="255" r="2"/>
  </g>
  <g stroke="chocolate" stroke-width="1">
    <line x1="285" y1="445" x2="325" y2="415"/>
    <circle cx="285" cy="445" r="2"/>
    <circle cx="325" cy="415" r="2"/>
  </g>
  <g stroke="black" stroke-width="1">
    <line x1="5" y1="5" x2="505" y2="5"/>
    <line x1="5" y1="5" x2="5" y2="505"/>
    <line x1="505" y1="505" x2="5" y2="505"/>
    <line x1="505" y1="505" x2="505" y2="5"/>
    <line x1="105" y1="2" x2="105" y2="8"/>
    <line x1="2" y1="105" x2="8" y2="105"/>
    <line x1="105" y1="502" x2="105" y2="508"/>
    <line x1="502" y1="105" x2="508" y2="105"/>
    <line x1="205" y1="2" x2="205" y2="8"/>
    <line x1="2" y1="205" x2="8" y2="205"/>
    <line x1="205" y1="502" x2="205" y2="508"/>
    <line x1="502" y1="205" x2="508" y2="205"/>
    <line x1="305" y1="2" x2="305" y2="8"/>
    <line x1="2" y1="305" x2="8" y2="305"/>
    <line x1="305" y1="502" x2="305" y2="508"/>
    <line x1="502" y1="305" x2="508" y2="305"/>
    <line x1="405" y1="2" x2="405" y2="8"/>
    <line x1="2" y1="405" x2="8" y2="405"/>
    <line x1="405" y1="502" x2="405" y2="508"/>
    <line x1="502" y1="405" x2="508" y2="405"/>
  </g>
  <g stroke="gray" stroke-width="1" stroke-dasharray="5,5">
    <line x1="105" y1="5" x2="105" y2="505"/>
    <line x1="5" y1="105" x2="505" y2="105"/>
    <line x1="205" y1="5" x2="205" y2="505"/>
    <line x1="5" y1="205" x2="505" y2="205"/>
    <line x1="305" y1="5" x2="305" y2="505"/>
    <line x1="5" y1="305" x2="505" y2="305"/>
    <line x1="405" y1="5" x2="405" y2="505"/>
    <line x1="5" y1="405" x2="505" y2="405"/>
  </g>
</svg>
