<?xml version="1.0" standalone="no"?>
<!DOCTYPE svg PUBLIC "-//W3C//DTD SVG 1.1//EN" 
  "http://www.w3.org/Graphics/SVG/1.1/DTD/svg11.dtd">
<svg width="644" height="644" version="1.1" id="toplevel"
    xmlns="http://www.w3.org/2000/svg"
    xmlns:xlink="http://www.w3.org/1999/xlink">
  <polygon points="397,567 639,429 247,77 66,180 27,164 5,215" fill="bisque"/>
  <g stroke="chocolate" stroke-width="1">
    <line x1="66" y1="180" x2="27" y2="164"/>
    <circle cx="66" cy="180" r="2"/>
    <circle cx="27" cy="164" r="2"/>
  </g>
  <g stroke="chocolate" stroke-width="1">
    <line x1="639" y1="429" x2="66" y2="180"/>
    <circle cx="639" cy="429" r="2"/>
    <circle cx="66" cy="180" r="2"/>
  </g>
  <g stroke="chocolate" stroke-width="1">
    <line x1="66" y1="180" x2="247" y2="77"/>
    <circle cx="66" cy="180" r="2"/>
    <circle cx="247" cy="77" r="2"/>
  </g>
  <g stroke="chocolate" stroke-width="1">
    <line x1="5" y1="215" x2="66" y2="180"/>
    <circle cx="5" cy="215" r="2"/>
    <circle cx="66" cy="180" r="2"/>
  </g>
  <g stroke="chocolate" stroke-width="1">
    <line x1="639" y1="429" x2="247" y2="77"/>
    <circle cx="639" cy="429" r="2"/>
    <circle cx="247" cy="77" r="2"/>
  </g>
  <g stroke="chocolate" stroke-width="1">
    <line x1="397" y1="567" x2="5" y2="215"/>
    <circle cx="397" cy="567" r="2"/>
    <circle cx="5" cy="215" r="2"/>
  </g>
  <g stroke="chocolate" stroke-width="1">
    <line x1="5" y1="215" x2="27" y2="164"/>
    <circle cx="5" cy="215" r="2"/>
    <circle cx="27" cy="164" r="2"/>
  </g>
  <g stroke="chocolate" stroke-width="1">
    <line x1="180" y1="230" x2="247" y2="77"/>
    <circle cx="180" cy="230" r="2"/>
    <circle cx="247" cy="77" r="2"/>
  </g>
  <g stroke="chocolate" stroke-width="1">
    <line x1="397" y1="567" x2="486" y2="363"/>
    <circle cx="397" cy="567" r="2"/>
    <circle cx="486" cy="363" r="2"/>
  </g>
  <g stroke="chocolate" stroke-width="1">
    <line x1="397" y1="567" x2="639" y2="429"/>
    <circle cx="397" cy="567" r="2"/>
    <circle cx="639" cy="429" r="2"/>
  </g>
  <g stroke="black" stroke-width="1">
    <line x1="72" y1="72" x2="572" y2="72"/>
    <line x1="72" y1="72" x2="72" y2="572"/>
    <line x1="572" y1="572" x2="72" y2="572"/>
    <line x1="572" y1="572" x2="572" y2="72"/>
    <line x1="172" y1="69" x2="172" y2="75"/>
    <line x1="69" y1="172" x2="75" y2="172"/>
    <line x1="172" y1="569" x2="172" y2="575"/>
    <line x1="569" y1="172" x2="575" y2="172"/>
    <line x1="272" y1="69" x2="272" y2="75"/>
    <line x1="69" y1="272" x2="75" y2="272"/>
    <line x1="272" y1="569" x2="272" y2="575"/>
    <line x1="569" y1="272" x2="575" y2="272"/>
    <line x1="372" y1="69" x2="372" y2="75"/>
    <line x1="69" y1="372" x2="75" y2="372"/>
    <line x1="372" y1="569" x2="372" y2="575"/>
    <line x1="569" y1="372" x2="575" y2="372"/>
    <line x1="472" y1="69" x2="472" y2="75"/>
    <line x1="69" y1="472" x2="75" y2="472"/>
    <line x1="472" y1="569" x2="472" y2="575"/>
    <line x1="569" y1="472" x2="575" y2="472"/>
  </g>
  <g stroke="gray" stroke-width="1" stroke-dasharray="5,5">
    <line x1="172" y1="72" x2="172" y2="572"/>
    <line x1="72" y1="172" x2="572" y2="172"/>
    <line x1="272" y1="72" x2="272" y2="572"/>
    <line x1="72" y1="272" x2="572" y2="272"/>
    <line x1="372" y1="72" x2="372" y2="572"/>
    <line x1="72" y1="372" x2="572" y2="372"/>
    <line x1="472" y1="72" x2="472" y2="572"/>
    <line x1="72" y1="472" x2="572" y2="472"/>
  </g>
</svg>
