<?xml version="1.0" standalone="no"?>
<!DOCTYPE svg PUBLIC "-//W3C//DTD SVG 1.1//EN" 
  "http://www.w3.org/Graphics/SVG/1.1/DTD/svg11.dtd">
<svg width="510" height="510" version="1.1" id="toplevel"
    xmlns="http://www.w3.org/2000/svg"
    xmlns:xlink="http://www.w3.org/1999/xlink">
  <polygon points="505,433 232,77 83,163 5,298 113,361 141,313 129,279"
           fill="bisque"/>
  <g stroke="chocolate" stroke-width="1">
    <line x1="101" y1="175" x2="110" y2="169"/>
    <circle cx="101" cy="175" r="2"/>
    <circle cx="110" cy="169" r="2"/>
  </g>
  <g stroke="chocolate" stroke-width="1">
    <line x1="96" y1="179" x2="101" y2="175"/>
    <circle cx="96" cy="179" r="2"/>
    <circle cx="101" cy="175" r="2"/>
  </g>
  <g stroke="chocolate" stroke-width="1">
    <line x1="101" y1="175" x2="93" y2="170"/>
    <circle cx="101" cy="175" r="2"/>
    <circle cx="93" cy="170" r="2"/>
  </g>
  <g stroke="chocolate" stroke-width="1">
    <line x1="505" y1="433" x2="101" y2="175"/>
    <circle cx="505" cy="433" r="2"/>
    <circle cx="101" cy="175" r="2"/>
  </g>
  <g stroke="chocolate" stroke-width="1">
    <line x1="87" y1="186" x2="96" y2="179"/>
    <circle cx="87" cy="186" r="2"/>
    <circle cx="96" cy="179" r="2"/>
  </g>
  <g stroke="chocolate" stroke-width="1">
    <line x1="96" y1="179" x2="93" y2="170"/>
    <circle cx="96" cy="179" r="2"/>
    <circle cx="93" cy="170" r="2"/>
  </g>
  <g stroke="chocolate" stroke-width="1">
    <line x1="107" y1="212" x2="96" y2="179"/>
    <circle cx="107" cy="212" r="2"/>
    <circle cx="96" cy="179" r="2"/>
  </g>
  <g stroke="chocolate" stroke-width="1">
    <line x1="84" y1="188" x2="87" y2="186"/>
    <circle cx="84" cy="188" r="2"/>
    <circle cx="87" cy="186" r="2"/>
  </g>
  <g stroke="chocolate" stroke-width="1">
    <line x1="75" y1="195" x2="84" y2="188"/>
    <circle cx="75" cy="195" r="2"/>
    <circle cx="84" cy="188" r="2"/>
  </g>
  <g stroke="chocolate" stroke-width="1">
    <line x1="84" y1="188" x2="85" y2="179"/>
    <circle cx="84" cy="188" r="2"/>
    <circle cx="85" cy="179" r="2"/>
  </g>
  <g stroke="chocolate" stroke-width="1">
    <line x1="82" y1="198" x2="84" y2="188"/>
    <circle cx="82" cy="198" r="2"/>
    <circle cx="84" cy="188" r="2"/>
  </g>
  <g stroke="chocolate" stroke-width="1">
    <line x1="82" y1="170" x2="83" y2="166"/>
    <circle cx="82" cy="170" r="2"/>
    <circle cx="83" cy="166" r="2"/>
  </g>
  <g stroke="chocolate" stroke-width="1">
    <line x1="73" y1="193" x2="82" y2="170"/>
    <circle cx="73" cy="193" r="2"/>
    <circle cx="82" cy="170" r="2"/>
  </g>
  <g stroke="chocolate" stroke-width="1">
    <line x1="82" y1="170" x2="81" y2="167"/>
    <circle cx="82" cy="170" r="2"/>
    <circle cx="81" cy="167" r="2"/>
  </g>
  <g stroke="chocolate" stroke-width="1">
    <line x1="85" y1="179" x2="82" y2="170"/>
    <circle cx="85" cy="179" r="2"/>
    <circle cx="82" cy="170" r="2"/>
  </g>
  <g stroke="chocolate" stroke-width="1">
    <line x1="87" y1="186" x2="85" y2="179"/>
    <circle cx="87" cy="186" r="2"/>
    <circle cx="85" cy="179" r="2"/>
  </g>
  <g stroke="chocolate" stroke-width="1">
    <line x1="93" y1="204" x2="87" y2="186"/>
    <circle cx="93" cy="204" r="2"/>
    <circle cx="87" cy="186" r="2"/>
  </g>
  <g stroke="chocolate" stroke-width="1">
    <line x1="84" y1="164" x2="84" y2="164"/>
    <circle cx="84" cy="164" r="2"/>
    <circle cx="84" cy="164" r="2"/>
  </g>
  <g stroke="chocolate" stroke-width="1">
    <line x1="83" y1="166" x2="84" y2="164"/>
    <circle cx="83" cy="166" r="2"/>
    <circle cx="84" cy="164" r="2"/>
  </g>
  <g stroke="chocolate" stroke-width="1">
    <line x1="84" y1="164" x2="83" y2="163"/>
    <circle cx="84" cy="164" r="2"/>
    <circle cx="83" cy="163" r="2"/>
  </g>
  <g stroke="chocolate" stroke-width="1">
    <line x1="86" y1="165" x2="84" y2="164"/>
    <circle cx="86" cy="165" r="2"/>
    <circle cx="84" cy="164" r="2"/>
  </g>
  <g stroke="chocolate" stroke-width="1">
    <line x1="51" y1="254" x2="51" y2="252"/>
    <circle cx="51" cy="254" r="2"/>
    <circle cx="51" cy="252" r="2"/>
  </g>
  <g stroke="chocolate" stroke-width="1">
    <line x1="48" y1="273" x2="51" y2="254"/>
    <circle cx="48" cy="273" r="2"/>
    <circle cx="51" cy="254" r="2"/>
  </g>
  <g stroke="chocolate" stroke-width="1">
    <line x1="51" y1="254" x2="52" y2="253"/>
    <circle cx="51" cy="254" r="2"/>
    <circle cx="52" cy="253" r="2"/>
  </g>
  <g stroke="chocolate" stroke-width="1">
    <line x1="36" y1="268" x2="51" y2="254"/>
    <circle cx="36" cy="268" r="2"/>
    <circle cx="51" cy="254" r="2"/>
  </g>
  <g stroke="chocolate" stroke-width="1">
    <line x1="93" y1="170" x2="87" y2="166"/>
    <circle cx="93" cy="170" r="2"/>
    <circle cx="87" cy="166" r="2"/>
  </g>
  <g stroke="chocolate" stroke-width="1">
    <line x1="93" y1="170" x2="91" y2="163"/>
    <circle cx="93" cy="170" r="2"/>
    <circle cx="91" cy="163" r="2"/>
  </g>
  <g stroke="chocolate" stroke-width="1">
    <line x1="129" y1="279" x2="107" y2="212"/>
    <circle cx="129" cy="279" r="2"/>
    <circle cx="107" cy="212" r="2"/>
  </g>
  <g stroke="chocolate" stroke-width="1">
    <line x1="141" y1="313" x2="129" y2="279"/>
    <circle cx="141" cy="313" r="2"/>
    <circle cx="129" cy="279" r="2"/>
  </g>
  <g stroke="chocolate" stroke-width="1">
    <line x1="129" y1="279" x2="75" y2="257"/>
    <circle cx="129" cy="279" r="2"/>
    <circle cx="75" cy="257" r="2"/>
  </g>
  <g stroke="chocolate" stroke-width="1">
    <line x1="505" y1="433" x2="129" y2="279"/>
    <circle cx="505" cy="433" r="2"/>
    <circle cx="129" cy="279" r="2"/>
  </g>
  <g stroke="chocolate" stroke-width="1">
    <line x1="71" y1="198" x2="73" y2="193"/>
    <circle cx="71" cy="198" r="2"/>
    <circle cx="73" cy="193" r="2"/>
  </g>
  <g stroke="chocolate" stroke-width="1">
    <line x1="73" y1="193" x2="68" y2="191"/>
    <circle cx="73" cy="193" r="2"/>
    <circle cx="68" cy="191" r="2"/>
  </g>
  <g stroke="chocolate" stroke-width="1">
    <line x1="75" y1="195" x2="73" y2="193"/>
    <circle cx="75" cy="195" r="2"/>
    <circle cx="73" cy="193" r="2"/>
  </g>
  <g stroke="chocolate" stroke-width="1">
    <line x1="81" y1="210" x2="82" y2="198"/>
    <circle cx="81" cy="210" r="2"/>
    <circle cx="82" cy="198" r="2"/>
  </g>
  <g stroke="chocolate" stroke-width="1">
    <line x1="82" y1="198" x2="75" y2="195"/>
    <circle cx="82" cy="198" r="2"/>
    <circle cx="75" cy="195" r="2"/>
  </g>
  <g stroke="chocolate" stroke-width="1">
    <line x1="93" y1="204" x2="82" y2="198"/>
    <circle cx="93" cy="204" r="2"/>
    <circle cx="82" cy="198" r="2"/>
  </g>
  <g stroke="chocolate" stroke-width="1">
    <line x1="67" y1="207" x2="71" y2="198"/>
    <circle cx="67" cy="207" r="2"/>
    <circle cx="71" cy="198" r="2"/>
  </g>
  <g stroke="chocolate" stroke-width="1">
    <line x1="71" y1="198" x2="75" y2="195"/>
    <circle cx="71" cy="198" r="2"/>
    <circle cx="75" cy="195" r="2"/>
  </g>
  <g stroke="chocolate" stroke-width="1">
    <line x1="60" y1="206" x2="71" y2="198"/>
    <circle cx="60" cy="206" r="2"/>
    <circle cx="71" cy="198" r="2"/>
  </g>
  <g stroke="chocolate" stroke-width="1">
    <line x1="64" y1="214" x2="67" y2="207"/>
    <circle cx="64" cy="214" r="2"/>
    <circle cx="67" cy="207" r="2"/>
  </g>
  <g stroke="chocolate" stroke-width="1">
    <line x1="52" y1="244" x2="64" y2="214"/>
    <circle cx="52" cy="244" r="2"/>
    <circle cx="64" cy="214" r="2"/>
  </g>
  <g stroke="chocolate" stroke-width="1">
    <line x1="64" y1="214" x2="59" y2="207"/>
    <circle cx="64" cy="214" r="2"/>
    <circle cx="59" cy="207" r="2"/>
  </g>
  <g stroke="chocolate" stroke-width="1">
    <line x1="77" y1="229" x2="64" y2="214"/>
    <circle cx="77" cy="229" r="2"/>
    <circle cx="64" cy="214" r="2"/>
  </g>
  <g stroke="chocolate" stroke-width="1">
    <line x1="67" y1="207" x2="60" y2="206"/>
    <circle cx="67" cy="207" r="2"/>
    <circle cx="60" cy="206" r="2"/>
  </g>
  <g stroke="chocolate" stroke-width="1">
    <line x1="81" y1="210" x2="67" y2="207"/>
    <circle cx="81" cy="210" r="2"/>
    <circle cx="67" cy="207" r="2"/>
  </g>
  <g stroke="chocolate" stroke-width="1">
    <line x1="85" y1="163" x2="83" y2="163"/>
    <circle cx="85" cy="163" r="2"/>
    <circle cx="83" cy="163" r="2"/>
  </g>
  <g stroke="chocolate" stroke-width="1">
    <line x1="87" y1="163" x2="85" y2="163"/>
    <circle cx="87" cy="163" r="2"/>
    <circle cx="85" cy="163" r="2"/>
  </g>
  <g stroke="chocolate" stroke-width="1">
    <line x1="85" y1="163" x2="85" y2="162"/>
    <circle cx="85" cy="163" r="2"/>
    <circle cx="85" cy="162" r="2"/>
  </g>
  <g stroke="chocolate" stroke-width="1">
    <line x1="85" y1="163" x2="85" y2="163"/>
    <circle cx="85" cy="163" r="2"/>
    <circle cx="85" cy="163" r="2"/>
  </g>
  <g stroke="chocolate" stroke-width="1">
    <line x1="52" y1="247" x2="52" y2="244"/>
    <circle cx="52" cy="247" r="2"/>
    <circle cx="52" cy="244" r="2"/>
  </g>
  <g stroke="chocolate" stroke-width="1">
    <line x1="51" y1="249" x2="52" y2="247"/>
    <circle cx="51" cy="249" r="2"/>
    <circle cx="52" cy="247" r="2"/>
  </g>
  <g stroke="chocolate" stroke-width="1">
    <line x1="52" y1="247" x2="51" y2="247"/>
    <circle cx="52" cy="247" r="2"/>
    <circle cx="51" cy="247" r="2"/>
  </g>
  <g stroke="chocolate" stroke-width="1">
    <line x1="54" y1="248" x2="52" y2="247"/>
    <circle cx="54" cy="248" r="2"/>
    <circle cx="52" cy="247" r="2"/>
  </g>
  <g stroke="chocolate" stroke-width="1">
    <line x1="85" y1="179" x2="87" y2="166"/>
    <circle cx="85" cy="179" r="2"/>
    <circle cx="87" cy="166" r="2"/>
  </g>
  <g stroke="chocolate" stroke-width="1">
    <line x1="110" y1="169" x2="147" y2="141"/>
    <circle cx="110" cy="169" r="2"/>
    <circle cx="147" cy="141" r="2"/>
  </g>
  <g stroke="chocolate" stroke-width="1">
    <line x1="110" y1="169" x2="98" y2="161"/>
    <circle cx="110" cy="169" r="2"/>
    <circle cx="98" cy="161" r="2"/>
  </g>
  <g stroke="chocolate" stroke-width="1">
    <line x1="505" y1="433" x2="110" y2="169"/>
    <circle cx="505" cy="433" r="2"/>
    <circle cx="110" cy="169" r="2"/>
  </g>
  <g stroke="chocolate" stroke-width="1">
    <line x1="83" y1="166" x2="86" y2="165"/>
    <circle cx="83" cy="166" r="2"/>
    <circle cx="86" cy="165" r="2"/>
  </g>
  <g stroke="chocolate" stroke-width="1">
    <line x1="81" y1="166" x2="83" y2="166"/>
    <circle cx="81" cy="166" r="2"/>
    <circle cx="83" cy="166" r="2"/>
  </g>
  <g stroke="chocolate" stroke-width="1">
    <line x1="87" y1="166" x2="87" y2="163"/>
    <circle cx="87" cy="166" r="2"/>
    <circle cx="87" cy="163" r="2"/>
  </g>
  <g stroke="chocolate" stroke-width="1">
    <line x1="87" y1="166" x2="86" y2="165"/>
    <circle cx="87" cy="166" r="2"/>
    <circle cx="86" cy="165" r="2"/>
  </g>
  <g stroke="chocolate" stroke-width="1">
    <line x1="78" y1="228" x2="81" y2="210"/>
    <circle cx="78" cy="228" r="2"/>
    <circle cx="81" cy="210" r="2"/>
  </g>
  <g stroke="chocolate" stroke-width="1">
    <line x1="75" y1="257" x2="78" y2="228"/>
    <circle cx="75" cy="257" r="2"/>
    <circle cx="78" cy="228" r="2"/>
  </g>
  <g stroke="chocolate" stroke-width="1">
    <line x1="78" y1="228" x2="95" y2="212"/>
    <circle cx="78" cy="228" r="2"/>
    <circle cx="95" cy="212" r="2"/>
  </g>
  <g stroke="chocolate" stroke-width="1">
    <line x1="77" y1="229" x2="78" y2="228"/>
    <circle cx="77" cy="229" r="2"/>
    <circle cx="78" cy="228" r="2"/>
  </g>
  <g stroke="chocolate" stroke-width="1">
    <line x1="83" y1="163" x2="85" y2="163"/>
    <circle cx="83" cy="163" r="2"/>
    <circle cx="85" cy="163" r="2"/>
  </g>
  <g stroke="chocolate" stroke-width="1">
    <line x1="83" y1="163" x2="83" y2="163"/>
    <circle cx="83" cy="163" r="2"/>
    <circle cx="83" cy="163" r="2"/>
  </g>
  <g stroke="chocolate" stroke-width="1">
    <line x1="83" y1="163" x2="83" y2="163"/>
    <circle cx="83" cy="163" r="2"/>
    <circle cx="83" cy="163" r="2"/>
  </g>
  <g stroke="chocolate" stroke-width="1">
    <line x1="83" y1="163" x2="83" y2="163"/>
    <circle cx="83" cy="163" r="2"/>
    <circle cx="83" cy="163" r="2"/>
  </g>
  <g stroke="chocolate" stroke-width="1">
    <line x1="83" y1="163" x2="83" y2="163"/>
    <circle cx="83" cy="163" r="2"/>
    <circle cx="83" cy="163" r="2"/>
  </g>
  <g stroke="chocolate" stroke-width="1">
    <line x1="83" y1="163" x2="83" y2="163"/>
    <circle cx="83" cy="163" r="2"/>
    <circle cx="83" cy="163" r="2"/>
  </g>
  <g stroke="chocolate" stroke-width="1">
    <line x1="81" y1="166" x2="83" y2="163"/>
    <circle cx="81" cy="166" r="2"/>
    <circle cx="83" cy="163" r="2"/>
  </g>
  <g stroke="chocolate" stroke-width="1">
    <line x1="84" y1="164" x2="85" y2="163"/>
    <circle cx="84" cy="164" r="2"/>
    <circle cx="85" cy="163" r="2"/>
  </g>
  <g stroke="chocolate" stroke-width="1">
    <line x1="84" y1="164" x2="83" y2="163"/>
    <circle cx="84" cy="164" r="2"/>
    <circle cx="83" cy="163" r="2"/>
  </g>
  <g stroke="chocolate" stroke-width="1">
    <line x1="87" y1="165" x2="84" y2="164"/>
    <circle cx="87" cy="165" r="2"/>
    <circle cx="84" cy="164" r="2"/>
  </g>
  <g stroke="chocolate" stroke-width="1">
    <line x1="51" y1="249" x2="54" y2="248"/>
    <circle cx="51" cy="249" r="2"/>
    <circle cx="54" cy="248" r="2"/>
  </g>
  <g stroke="chocolate" stroke-width="1">
    <line x1="50" y1="251" x2="51" y2="249"/>
    <circle cx="50" cy="251" r="2"/>
    <circle cx="51" cy="249" r="2"/>
  </g>
  <g stroke="chocolate" stroke-width="1">
    <line x1="51" y1="252" x2="51" y2="249"/>
    <circle cx="51" cy="252" r="2"/>
    <circle cx="51" cy="249" r="2"/>
  </g>
  <g stroke="chocolate" stroke-width="1">
    <line x1="48" y1="273" x2="36" y2="268"/>
    <circle cx="48" cy="273" r="2"/>
    <circle cx="36" cy="268" r="2"/>
  </g>
  <g stroke="chocolate" stroke-width="1">
    <line x1="56" y1="276" x2="48" y2="273"/>
    <circle cx="56" cy="276" r="2"/>
    <circle cx="48" cy="273" r="2"/>
  </g>
  <g stroke="chocolate" stroke-width="1">
    <line x1="48" y1="280" x2="48" y2="273"/>
    <circle cx="48" cy="280" r="2"/>
    <circle cx="48" cy="273" r="2"/>
  </g>
  <g stroke="chocolate" stroke-width="1">
    <line x1="52" y1="253" x2="56" y2="249"/>
    <circle cx="52" cy="253" r="2"/>
    <circle cx="56" cy="249" r="2"/>
  </g>
  <g stroke="chocolate" stroke-width="1">
    <line x1="52" y1="253" x2="51" y2="252"/>
    <circle cx="52" cy="253" r="2"/>
    <circle cx="51" cy="252" r="2"/>
  </g>
  <g stroke="chocolate" stroke-width="1">
    <line x1="73" y1="269" x2="52" y2="253"/>
    <circle cx="73" cy="269" r="2"/>
    <circle cx="52" cy="253" r="2"/>
  </g>
  <g stroke="chocolate" stroke-width="1">
    <line x1="107" y1="212" x2="93" y2="204"/>
    <circle cx="107" cy="212" r="2"/>
    <circle cx="93" cy="204" r="2"/>
  </g>
  <g stroke="chocolate" stroke-width="1">
    <line x1="505" y1="433" x2="107" y2="212"/>
    <circle cx="505" cy="433" r="2"/>
    <circle cx="107" cy="212" r="2"/>
  </g>
  <g stroke="chocolate" stroke-width="1">
    <line x1="73" y1="269" x2="75" y2="257"/>
    <circle cx="73" cy="269" r="2"/>
    <circle cx="75" cy="257" r="2"/>
  </g>
  <g stroke="chocolate" stroke-width="1">
    <line x1="75" y1="257" x2="56" y2="249"/>
    <circle cx="75" cy="257" r="2"/>
    <circle cx="56" cy="249" r="2"/>
  </g>
  <g stroke="chocolate" stroke-width="1">
    <line x1="91" y1="163" x2="91" y2="162"/>
    <circle cx="91" cy="163" r="2"/>
    <circle cx="91" cy="162" r="2"/>
  </g>
  <g stroke="chocolate" stroke-width="1">
    <line x1="91" y1="163" x2="91" y2="163"/>
    <circle cx="91" cy="163" r="2"/>
    <circle cx="91" cy="163" r="2"/>
  </g>
  <g stroke="chocolate" stroke-width="1">
    <line x1="91" y1="163" x2="87" y2="162"/>
    <circle cx="91" cy="163" r="2"/>
    <circle cx="87" cy="162" r="2"/>
  </g>
  <g stroke="chocolate" stroke-width="1">
    <line x1="93" y1="163" x2="91" y2="163"/>
    <circle cx="93" cy="163" r="2"/>
    <circle cx="91" cy="163" r="2"/>
  </g>
  <g stroke="chocolate" stroke-width="1">
    <line x1="59" y1="207" x2="58" y2="206"/>
    <circle cx="59" cy="207" r="2"/>
    <circle cx="58" cy="206" r="2"/>
  </g>
  <g stroke="chocolate" stroke-width="1">
    <line x1="59" y1="207" x2="60" y2="206"/>
    <circle cx="59" cy="207" r="2"/>
    <circle cx="60" cy="206" r="2"/>
  </g>
  <g stroke="chocolate" stroke-width="1">
    <line x1="57" y1="209" x2="59" y2="207"/>
    <circle cx="57" cy="209" r="2"/>
    <circle cx="59" cy="207" r="2"/>
  </g>
  <g stroke="chocolate" stroke-width="1">
    <line x1="87" y1="163" x2="87" y2="162"/>
    <circle cx="87" cy="163" r="2"/>
    <circle cx="87" cy="162" r="2"/>
  </g>
  <g stroke="chocolate" stroke-width="1">
    <line x1="87" y1="163" x2="87" y2="163"/>
    <circle cx="87" cy="163" r="2"/>
    <circle cx="87" cy="163" r="2"/>
  </g>
  <g stroke="chocolate" stroke-width="1">
    <line x1="91" y1="163" x2="87" y2="163"/>
    <circle cx="91" cy="163" r="2"/>
    <circle cx="87" cy="163" r="2"/>
  </g>
  <g stroke="chocolate" stroke-width="1">
    <line x1="91" y1="163" x2="91" y2="163"/>
    <circle cx="91" cy="163" r="2"/>
    <circle cx="91" cy="163" r="2"/>
  </g>
  <g stroke="chocolate" stroke-width="1">
    <line x1="91" y1="163" x2="93" y2="163"/>
    <circle cx="91" cy="163" r="2"/>
    <circle cx="93" cy="163" r="2"/>
  </g>
  <g stroke="chocolate" stroke-width="1">
    <line x1="87" y1="163" x2="91" y2="163"/>
    <circle cx="87" cy="163" r="2"/>
    <circle cx="91" cy="163" r="2"/>
  </g>
  <g stroke="chocolate" stroke-width="1">
    <line x1="95" y1="212" x2="81" y2="210"/>
    <circle cx="95" cy="212" r="2"/>
    <circle cx="81" cy="210" r="2"/>
  </g>
  <g stroke="chocolate" stroke-width="1">
    <line x1="85" y1="163" x2="87" y2="163"/>
    <circle cx="85" cy="163" r="2"/>
    <circle cx="87" cy="163" r="2"/>
  </g>
  <g stroke="chocolate" stroke-width="1">
    <line x1="51" y1="247" x2="37" y2="241"/>
    <circle cx="51" cy="247" r="2"/>
    <circle cx="37" cy="241" r="2"/>
  </g>
  <g stroke="chocolate" stroke-width="1">
    <line x1="51" y1="247" x2="52" y2="244"/>
    <circle cx="51" cy="247" r="2"/>
    <circle cx="52" cy="244" r="2"/>
  </g>
  <g stroke="chocolate" stroke-width="1">
    <line x1="50" y1="251" x2="51" y2="247"/>
    <circle cx="50" cy="251" r="2"/>
    <circle cx="51" cy="247" r="2"/>
  </g>
  <g stroke="chocolate" stroke-width="1">
    <line x1="81" y1="167" x2="81" y2="166"/>
    <circle cx="81" cy="167" r="2"/>
    <circle cx="81" cy="166" r="2"/>
  </g>
  <g stroke="chocolate" stroke-width="1">
    <line x1="81" y1="167" x2="81" y2="166"/>
    <circle cx="81" cy="167" r="2"/>
    <circle cx="81" cy="166" r="2"/>
  </g>
  <g stroke="chocolate" stroke-width="1">
    <line x1="68" y1="191" x2="81" y2="167"/>
    <circle cx="68" cy="191" r="2"/>
    <circle cx="81" cy="167" r="2"/>
  </g>
  <g stroke="chocolate" stroke-width="1">
    <line x1="34" y1="270" x2="36" y2="268"/>
    <circle cx="34" cy="270" r="2"/>
    <circle cx="36" cy="268" r="2"/>
  </g>
  <g stroke="chocolate" stroke-width="1">
    <line x1="36" y1="268" x2="25" y2="263"/>
    <circle cx="36" cy="268" r="2"/>
    <circle cx="25" cy="263" r="2"/>
  </g>
  <g stroke="chocolate" stroke-width="1">
    <line x1="56" y1="249" x2="54" y2="248"/>
    <circle cx="56" cy="249" r="2"/>
    <circle cx="54" cy="248" r="2"/>
  </g>
  <g stroke="chocolate" stroke-width="1">
    <line x1="54" y1="248" x2="69" y2="237"/>
    <circle cx="54" cy="248" r="2"/>
    <circle cx="69" cy="237" r="2"/>
  </g>
  <g stroke="chocolate" stroke-width="1">
    <line x1="98" y1="161" x2="147" y2="141"/>
    <circle cx="98" cy="161" r="2"/>
    <circle cx="147" cy="141" r="2"/>
  </g>
  <g stroke="chocolate" stroke-width="1">
    <line x1="93" y1="163" x2="98" y2="161"/>
    <circle cx="93" cy="163" r="2"/>
    <circle cx="98" cy="161" r="2"/>
  </g>
  <g stroke="chocolate" stroke-width="1">
    <line x1="98" y1="161" x2="93" y2="157"/>
    <circle cx="98" cy="161" r="2"/>
    <circle cx="93" cy="157" r="2"/>
  </g>
  <g stroke="chocolate" stroke-width="1">
    <line x1="86" y1="165" x2="87" y2="165"/>
    <circle cx="86" cy="165" r="2"/>
    <circle cx="87" cy="165" r="2"/>
  </g>
  <g stroke="chocolate" stroke-width="1">
    <line x1="69" y1="237" x2="77" y2="229"/>
    <circle cx="69" cy="237" r="2"/>
    <circle cx="77" cy="229" r="2"/>
  </g>
  <g stroke="chocolate" stroke-width="1">
    <line x1="78" y1="230" x2="77" y2="229"/>
    <circle cx="78" cy="230" r="2"/>
    <circle cx="77" cy="229" r="2"/>
  </g>
  <g stroke="chocolate" stroke-width="1">
    <line x1="83" y1="163" x2="83" y2="163"/>
    <circle cx="83" cy="163" r="2"/>
    <circle cx="83" cy="163" r="2"/>
  </g>
  <g stroke="chocolate" stroke-width="1">
    <line x1="51" y1="252" x2="37" y2="241"/>
    <circle cx="51" cy="252" r="2"/>
    <circle cx="37" cy="241" r="2"/>
  </g>
  <g stroke="chocolate" stroke-width="1">
    <line x1="91" y1="162" x2="90" y2="159"/>
    <circle cx="91" cy="162" r="2"/>
    <circle cx="90" cy="159" r="2"/>
  </g>
  <g stroke="chocolate" stroke-width="1">
    <line x1="91" y1="162" x2="87" y2="161"/>
    <circle cx="91" cy="162" r="2"/>
    <circle cx="87" cy="161" r="2"/>
  </g>
  <g stroke="chocolate" stroke-width="1">
    <line x1="93" y1="163" x2="91" y2="162"/>
    <circle cx="93" cy="163" r="2"/>
    <circle cx="91" cy="162" r="2"/>
  </g>
  <g stroke="chocolate" stroke-width="1">
    <line x1="5" y1="298" x2="34" y2="270"/>
    <circle cx="5" cy="298" r="2"/>
    <circle cx="34" cy="270" r="2"/>
  </g>
  <g stroke="chocolate" stroke-width="1">
    <line x1="34" y1="270" x2="25" y2="263"/>
    <circle cx="34" cy="270" r="2"/>
    <circle cx="25" cy="263" r="2"/>
  </g>
  <g stroke="chocolate" stroke-width="1">
    <line x1="48" y1="280" x2="34" y2="270"/>
    <circle cx="48" cy="280" r="2"/>
    <circle cx="34" cy="270" r="2"/>
  </g>
  <g stroke="chocolate" stroke-width="1">
    <line x1="95" y1="212" x2="93" y2="204"/>
    <circle cx="95" cy="212" r="2"/>
    <circle cx="93" cy="204" r="2"/>
  </g>
  <g stroke="chocolate" stroke-width="1">
    <line x1="56" y1="249" x2="69" y2="237"/>
    <circle cx="56" cy="249" r="2"/>
    <circle cx="69" cy="237" r="2"/>
  </g>
  <g stroke="chocolate" stroke-width="1">
    <line x1="87" y1="162" x2="87" y2="161"/>
    <circle cx="87" cy="162" r="2"/>
    <circle cx="87" cy="161" r="2"/>
  </g>
  <g stroke="chocolate" stroke-width="1">
    <line x1="87" y1="162" x2="85" y2="162"/>
    <circle cx="87" cy="162" r="2"/>
    <circle cx="85" cy="162" r="2"/>
  </g>
  <g stroke="chocolate" stroke-width="1">
    <line x1="60" y1="206" x2="58" y2="206"/>
    <circle cx="60" cy="206" r="2"/>
    <circle cx="58" cy="206" r="2"/>
  </g>
  <g stroke="chocolate" stroke-width="1">
    <line x1="93" y1="163" x2="91" y2="163"/>
    <circle cx="93" cy="163" r="2"/>
    <circle cx="91" cy="163" r="2"/>
  </g>
  <g stroke="chocolate" stroke-width="1">
    <line x1="52" y1="244" x2="57" y2="209"/>
    <circle cx="52" cy="244" r="2"/>
    <circle cx="57" cy="209" r="2"/>
  </g>
  <g stroke="chocolate" stroke-width="1">
    <line x1="81" y1="166" x2="81" y2="166"/>
    <circle cx="81" cy="166" r="2"/>
    <circle cx="81" cy="166" r="2"/>
  </g>
  <g stroke="chocolate" stroke-width="1">
    <line x1="141" y1="313" x2="56" y2="276"/>
    <circle cx="141" cy="313" r="2"/>
    <circle cx="56" cy="276" r="2"/>
  </g>
  <g stroke="chocolate" stroke-width="1">
    <line x1="56" y1="276" x2="73" y2="269"/>
    <circle cx="56" cy="276" r="2"/>
    <circle cx="73" cy="269" r="2"/>
  </g>
  <g stroke="chocolate" stroke-width="1">
    <line x1="5" y1="298" x2="56" y2="276"/>
    <circle cx="5" cy="298" r="2"/>
    <circle cx="56" cy="276" r="2"/>
  </g>
  <g stroke="chocolate" stroke-width="1">
    <line x1="147" y1="141" x2="241" y2="101"/>
    <circle cx="147" cy="141" r="2"/>
    <circle cx="241" cy="101" r="2"/>
  </g>
  <g stroke="chocolate" stroke-width="1">
    <line x1="147" y1="141" x2="231" y2="78"/>
    <circle cx="147" cy="141" r="2"/>
    <circle cx="231" cy="78" r="2"/>
  </g>
  <g stroke="chocolate" stroke-width="1">
    <line x1="69" y1="237" x2="78" y2="230"/>
    <circle cx="69" cy="237" r="2"/>
    <circle cx="78" cy="230" r="2"/>
  </g>
  <g stroke="chocolate" stroke-width="1">
    <line x1="505" y1="433" x2="232" y2="77"/>
    <circle cx="505" cy="433" r="2"/>
    <circle cx="232" cy="77" r="2"/>
  </g>
  <g stroke="chocolate" stroke-width="1">
    <line x1="93" y1="163" x2="90" y2="159"/>
    <circle cx="93" cy="163" r="2"/>
    <circle cx="90" cy="159" r="2"/>
  </g>
  <g stroke="chocolate" stroke-width="1">
    <line x1="241" y1="101" x2="231" y2="78"/>
    <circle cx="241" cy="101" r="2"/>
    <circle cx="231" cy="78" r="2"/>
  </g>
  <g stroke="chocolate" stroke-width="1">
    <line x1="241" y1="101" x2="232" y2="77"/>
    <circle cx="241" cy="101" r="2"/>
    <circle cx="232" cy="77" r="2"/>
  </g>
  <g stroke="chocolate" stroke-width="1">
    <line x1="113" y1="361" x2="5" y2="298"/>
    <circle cx="113" cy="361" r="2"/>
    <circle cx="5" cy="298" r="2"/>
  </g>
  <g stroke="chocolate" stroke-width="1">
    <line x1="93" y1="163" x2="93" y2="157"/>
    <circle cx="93" cy="163" r="2"/>
    <circle cx="93" cy="157" r="2"/>
  </g>
  <g stroke="chocolate" stroke-width="1">
    <line x1="83" y1="163" x2="232" y2="77"/>
    <circle cx="83" cy="163" r="2"/>
    <circle cx="232" cy="77" r="2"/>
  </g>
  <g stroke="chocolate" stroke-width="1">
    <line x1="5" y1="298" x2="83" y2="163"/>
    <circle cx="5" cy="298" r="2"/>
    <circle cx="83" cy="163" r="2"/>
  </g>
  <g stroke="chocolate" stroke-width="1">
    <line x1="113" y1="361" x2="141" y2="313"/>
    <circle cx="113" cy="361" r="2"/>
    <circle cx="141" cy="313" r="2"/>
  </g>
  <g stroke="black" stroke-width="1">
    <line x1="5" y1="5" x2="505" y2="5"/>
    <line x1="5" y1="5" x2="5" y2="505"/>
    <line x1="505" y1="505" x2="5" y2="505"/>
    <line x1="505" y1="505" x2="505" y2="5"/>
    <line x1="105" y1="2" x2="105" y2="8"/>
    <line x1="2" y1="105" x2="8" y2="105"/>
    <line x1="105" y1="502" x2="105" y2="508"/>
    <line x1="502" y1="105" x2="508" y2="105"/>
    <line x1="205" y1="2" x2="205" y2="8"/>
    <line x1="2" y1="205" x2="8" y2="205"/>
    <line x1="205" y1="502" x2="205" y2="508"/>
    <line x1="502" y1="205" x2="508" y2="205"/>
    <line x1="305" y1="2" x2="305" y2="8"/>
    <line x1="2" y1="305" x2="8" y2="305"/>
    <line x1="305" y1="502" x2="305" y2="508"/>
    <line x1="502" y1="305" x2="508" y2="305"/>
    <line x1="405" y1="2" x2="405" y2="8"/>
    <line x1="2" y1="405" x2="8" y2="405"/>
    <line x1="405" y1="502" x2="405" y2="508"/>
    <line x1="502" y1="405" x2="508" y2="405"/>
  </g>
  <g stroke="gray" stroke-width="1" stroke-dasharray="5,5">
    <line x1="105" y1="5" x2="105" y2="505"/>
    <line x1="5" y1="105" x2="505" y2="105"/>
    <line x1="205" y1="5" x2="205" y2="505"/>
    <line x1="5" y1="205" x2="505" y2="205"/>
    <line x1="305" y1="5" x2="305" y2="505"/>
    <line x1="5" y1="305" x2="505" y2="305"/>
    <line x1="405" y1="5" x2="405" y2="505"/>
    <line x1="5" y1="405" x2="505" y2="405"/>
  </g>
</svg>
