<?xml version="1.0" standalone="no"?>
<!DOCTYPE svg PUBLIC "-//W3C//DTD SVG 1.1//EN" 
  "http://www.w3.org/Graphics/SVG/1.1/DTD/svg11.dtd">
<svg width="510" height="510" version="1.1" id="toplevel"
    xmlns="http://www.w3.org/2000/svg"
    xmlns:xlink="http://www.w3.org/1999/xlink">
  <polygon points="88,477 169,397 477,268 477,102 309,102 241,33 173,102 33,102 33,453"
           fill="bisque"/>
  <g stroke="chocolate" stroke-width="1">
    <line x1="173" y1="102" x2="309" y2="102"/>
    <circle cx="173" cy="102" r="2"/>
    <circle cx="309" cy="102" r="2"/>
  </g>
  <g stroke="chocolate" stroke-width="1">
    <line x1="33" y1="102" x2="173" y2="102"/>
    <circle cx="33" cy="102" r="2"/>
    <circle cx="173" cy="102" r="2"/>
  </g>
  <g stroke="chocolate" stroke-width="1">
    <line x1="173" y1="102" x2="241" y2="33"/>
    <circle cx="173" cy="102" r="2"/>
    <circle cx="241" cy="33" r="2"/>
  </g>
  <g stroke="chocolate" stroke-width="1">
    <line x1="88" y1="187" x2="173" y2="102"/>
    <circle cx="88" cy="187" r="2"/>
    <circle cx="173" cy="102" r="2"/>
  </g>
  <g stroke="chocolate" stroke-width="1">
    <line x1="88" y1="430" x2="88" y2="299"/>
    <circle cx="88" cy="430" r="2"/>
    <circle cx="88" cy="299" r="2"/>
  </g>
  <g stroke="chocolate" stroke-width="1">
    <line x1="88" y1="477" x2="88" y2="430"/>
    <circle cx="88" cy="477" r="2"/>
    <circle cx="88" cy="430" r="2"/>
  </g>
  <g stroke="chocolate" stroke-width="1">
    <line x1="88" y1="430" x2="169" y2="397"/>
    <circle cx="88" cy="430" r="2"/>
    <circle cx="169" cy="397" r="2"/>
  </g>
  <g stroke="chocolate" stroke-width="1">
    <line x1="33" y1="453" x2="88" y2="430"/>
    <circle cx="33" cy="453" r="2"/>
    <circle cx="88" cy="430" r="2"/>
  </g>
  <g stroke="chocolate" stroke-width="1">
    <line x1="309" y1="102" x2="241" y2="33"/>
    <circle cx="309" cy="102" r="2"/>
    <circle cx="241" cy="33" r="2"/>
  </g>
  <g stroke="chocolate" stroke-width="1">
    <line x1="477" y1="268" x2="309" y2="102"/>
    <circle cx="477" cy="268" r="2"/>
    <circle cx="309" cy="102" r="2"/>
  </g>
  <g stroke="chocolate" stroke-width="1">
    <line x1="309" y1="102" x2="477" y2="102"/>
    <circle cx="309" cy="102" r="2"/>
    <circle cx="477" cy="102" r="2"/>
  </g>
  <g stroke="chocolate" stroke-width="1">
    <line x1="88" y1="299" x2="88" y2="187"/>
    <circle cx="88" cy="299" r="2"/>
    <circle cx="88" cy="187" r="2"/>
  </g>
  <g stroke="chocolate" stroke-width="1">
    <line x1="88" y1="299" x2="33" y2="243"/>
    <circle cx="88" cy="299" r="2"/>
    <circle cx="33" cy="243" r="2"/>
  </g>
  <g stroke="chocolate" stroke-width="1">
    <line x1="177" y1="389" x2="88" y2="299"/>
    <circle cx="177" cy="389" r="2"/>
    <circle cx="88" cy="299" r="2"/>
  </g>
  <g stroke="chocolate" stroke-width="1">
    <line x1="88" y1="187" x2="88" y2="102"/>
    <circle cx="88" cy="187" r="2"/>
    <circle cx="88" cy="102" r="2"/>
  </g>
  <g stroke="chocolate" stroke-width="1">
    <line x1="33" y1="243" x2="88" y2="187"/>
    <circle cx="33" cy="243" r="2"/>
    <circle cx="88" cy="187" r="2"/>
  </g>
  <g stroke="chocolate" stroke-width="1">
    <line x1="169" y1="397" x2="477" y2="268"/>
    <circle cx="169" cy="397" r="2"/>
    <circle cx="477" cy="268" r="2"/>
  </g>
  <g stroke="chocolate" stroke-width="1">
    <line x1="169" y1="397" x2="177" y2="389"/>
    <circle cx="169" cy="397" r="2"/>
    <circle cx="177" cy="389" r="2"/>
  </g>
  <g stroke="chocolate" stroke-width="1">
    <line x1="88" y1="477" x2="169" y2="397"/>
    <circle cx="88" cy="477" r="2"/>
    <circle cx="169" cy="397" r="2"/>
  </g>
  <g stroke="chocolate" stroke-width="1">
    <line x1="88" y1="477" x2="33" y2="453"/>
    <circle cx="88" cy="477" r="2"/>
    <circle cx="33" cy="453" r="2"/>
  </g>
  <g stroke="chocolate" stroke-width="1">
    <line x1="477" y1="268" x2="477" y2="102"/>
    <circle cx="477" cy="268" r="2"/>
    <circle cx="477" cy="102" r="2"/>
  </g>
  <g stroke="chocolate" stroke-width="1">
    <line x1="33" y1="453" x2="33" y2="102"/>
    <circle cx="33" cy="453" r="2"/>
    <circle cx="33" cy="102" r="2"/>
  </g>
  <g stroke="black" stroke-width="1">
    <line x1="5" y1="5" x2="505" y2="5"/>
    <line x1="5" y1="5" x2="5" y2="505"/>
    <line x1="505" y1="505" x2="5" y2="505"/>
    <line x1="505" y1="505" x2="505" y2="5"/>
    <line x1="105" y1="2" x2="105" y2="8"/>
    <line x1="2" y1="105" x2="8" y2="105"/>
    <line x1="105" y1="502" x2="105" y2="508"/>
    <line x1="502" y1="105" x2="508" y2="105"/>
    <line x1="205" y1="2" x2="205" y2="8"/>
    <line x1="2" y1="205" x2="8" y2="205"/>
    <line x1="205" y1="502" x2="205" y2="508"/>
    <line x1="502" y1="205" x2="508" y2="205"/>
    <line x1="305" y1="2" x2="305" y2="8"/>
    <line x1="2" y1="305" x2="8" y2="305"/>
    <line x1="305" y1="502" x2="305" y2="508"/>
    <line x1="502" y1="305" x2="508" y2="305"/>
    <line x1="405" y1="2" x2="405" y2="8"/>
    <line x1="2" y1="405" x2="8" y2="405"/>
    <line x1="405" y1="502" x2="405" y2="508"/>
    <line x1="502" y1="405" x2="508" y2="405"/>
  </g>
  <g stroke="gray" stroke-width="1" stroke-dasharray="5,5">
    <line x1="105" y1="5" x2="105" y2="505"/>
    <line x1="5" y1="105" x2="505" y2="105"/>
    <line x1="205" y1="5" x2="205" y2="505"/>
    <line x1="5" y1="205" x2="505" y2="205"/>
    <line x1="305" y1="5" x2="305" y2="505"/>
    <line x1="5" y1="305" x2="505" y2="305"/>
    <line x1="405" y1="5" x2="405" y2="505"/>
    <line x1="5" y1="405" x2="505" y2="405"/>
  </g>
</svg>
