<?xml version="1.0" standalone="no"?>
<!DOCTYPE svg PUBLIC "-//W3C//DTD SVG 1.1//EN" 
  "http://www.w3.org/Graphics/SVG/1.1/DTD/svg11.dtd">
<svg width="510" height="510" version="1.1" id="toplevel"
    xmlns="http://www.w3.org/2000/svg"
    xmlns:xlink="http://www.w3.org/1999/xlink">
  <polygon points="305,466 377,340 405,333 405,166 309,166 239,44 105,121 105,413"
           fill="bisque"/>
  <g stroke="chocolate" stroke-width="1">
    <line x1="184" y1="166" x2="309" y2="166"/>
    <circle cx="184" cy="166" r="2"/>
    <circle cx="309" cy="166" r="2"/>
  </g>
  <g stroke="chocolate" stroke-width="1">
    <line x1="105" y1="166" x2="184" y2="166"/>
    <circle cx="105" cy="166" r="2"/>
    <circle cx="184" cy="166" r="2"/>
  </g>
  <g stroke="chocolate" stroke-width="1">
    <line x1="184" y1="166" x2="105" y2="121"/>
    <circle cx="184" cy="166" r="2"/>
    <circle cx="105" cy="121" r="2"/>
  </g>
  <g stroke="chocolate" stroke-width="1">
    <line x1="305" y1="236" x2="184" y2="166"/>
    <circle cx="305" cy="236" r="2"/>
    <circle cx="184" cy="166" r="2"/>
  </g>
  <g stroke="chocolate" stroke-width="1">
    <line x1="371" y1="273" x2="309" y2="166"/>
    <circle cx="371" cy="273" r="2"/>
    <circle cx="309" cy="166" r="2"/>
  </g>
  <g stroke="chocolate" stroke-width="1">
    <line x1="393" y1="312" x2="371" y2="273"/>
    <circle cx="393" cy="312" r="2"/>
    <circle cx="371" cy="273" r="2"/>
  </g>
  <g stroke="chocolate" stroke-width="1">
    <line x1="371" y1="273" x2="305" y2="236"/>
    <circle cx="371" cy="273" r="2"/>
    <circle cx="305" cy="236" r="2"/>
  </g>
  <g stroke="chocolate" stroke-width="1">
    <line x1="405" y1="293" x2="371" y2="273"/>
    <circle cx="405" cy="293" r="2"/>
    <circle cx="371" cy="273" r="2"/>
  </g>
  <g stroke="chocolate" stroke-width="1">
    <line x1="305" y1="360" x2="305" y2="236"/>
    <circle cx="305" cy="360" r="2"/>
    <circle cx="305" cy="236" r="2"/>
  </g>
  <g stroke="chocolate" stroke-width="1">
    <line x1="305" y1="466" x2="305" y2="360"/>
    <circle cx="305" cy="466" r="2"/>
    <circle cx="305" cy="360" r="2"/>
  </g>
  <g stroke="chocolate" stroke-width="1">
    <line x1="305" y1="360" x2="377" y2="340"/>
    <circle cx="305" cy="360" r="2"/>
    <circle cx="377" cy="340" r="2"/>
  </g>
  <g stroke="chocolate" stroke-width="1">
    <line x1="105" y1="413" x2="305" y2="360"/>
    <circle cx="105" cy="413" r="2"/>
    <circle cx="305" cy="360" r="2"/>
  </g>
  <g stroke="chocolate" stroke-width="1">
    <line x1="405" y1="333" x2="393" y2="312"/>
    <circle cx="405" cy="333" r="2"/>
    <circle cx="393" cy="312" r="2"/>
  </g>
  <g stroke="chocolate" stroke-width="1">
    <line x1="393" y1="312" x2="405" y2="293"/>
    <circle cx="393" cy="312" r="2"/>
    <circle cx="405" cy="293" r="2"/>
  </g>
  <g stroke="chocolate" stroke-width="1">
    <line x1="377" y1="340" x2="393" y2="312"/>
    <circle cx="377" cy="340" r="2"/>
    <circle cx="393" cy="312" r="2"/>
  </g>
  <g stroke="chocolate" stroke-width="1">
    <line x1="309" y1="166" x2="405" y2="166"/>
    <circle cx="309" cy="166" r="2"/>
    <circle cx="405" cy="166" r="2"/>
  </g>
  <g stroke="chocolate" stroke-width="1">
    <line x1="309" y1="166" x2="239" y2="44"/>
    <circle cx="309" cy="166" r="2"/>
    <circle cx="239" cy="44" r="2"/>
  </g>
  <g stroke="chocolate" stroke-width="1">
    <line x1="305" y1="236" x2="305" y2="166"/>
    <circle cx="305" cy="236" r="2"/>
    <circle cx="305" cy="166" r="2"/>
  </g>
  <g stroke="chocolate" stroke-width="1">
    <line x1="377" y1="340" x2="405" y2="333"/>
    <circle cx="377" cy="340" r="2"/>
    <circle cx="405" cy="333" r="2"/>
  </g>
  <g stroke="chocolate" stroke-width="1">
    <line x1="305" y1="466" x2="377" y2="340"/>
    <circle cx="305" cy="466" r="2"/>
    <circle cx="377" cy="340" r="2"/>
  </g>
  <g stroke="chocolate" stroke-width="1">
    <line x1="305" y1="466" x2="105" y2="413"/>
    <circle cx="305" cy="466" r="2"/>
    <circle cx="105" cy="413" r="2"/>
  </g>
  <g stroke="chocolate" stroke-width="1">
    <line x1="105" y1="121" x2="239" y2="44"/>
    <circle cx="105" cy="121" r="2"/>
    <circle cx="239" cy="44" r="2"/>
  </g>
  <g stroke="chocolate" stroke-width="1">
    <line x1="405" y1="333" x2="405" y2="166"/>
    <circle cx="405" cy="333" r="2"/>
    <circle cx="405" cy="166" r="2"/>
  </g>
  <g stroke="chocolate" stroke-width="1">
    <line x1="105" y1="413" x2="105" y2="121"/>
    <circle cx="105" cy="413" r="2"/>
    <circle cx="105" cy="121" r="2"/>
  </g>
  <g stroke="black" stroke-width="1">
    <line x1="5" y1="5" x2="505" y2="5"/>
    <line x1="5" y1="5" x2="5" y2="505"/>
    <line x1="505" y1="505" x2="5" y2="505"/>
    <line x1="505" y1="505" x2="505" y2="5"/>
    <line x1="105" y1="2" x2="105" y2="8"/>
    <line x1="2" y1="105" x2="8" y2="105"/>
    <line x1="105" y1="502" x2="105" y2="508"/>
    <line x1="502" y1="105" x2="508" y2="105"/>
    <line x1="205" y1="2" x2="205" y2="8"/>
    <line x1="2" y1="205" x2="8" y2="205"/>
    <line x1="205" y1="502" x2="205" y2="508"/>
    <line x1="502" y1="205" x2="508" y2="205"/>
    <line x1="305" y1="2" x2="305" y2="8"/>
    <line x1="2" y1="305" x2="8" y2="305"/>
    <line x1="305" y1="502" x2="305" y2="508"/>
    <line x1="502" y1="305" x2="508" y2="305"/>
    <line x1="405" y1="2" x2="405" y2="8"/>
    <line x1="2" y1="405" x2="8" y2="405"/>
    <line x1="405" y1="502" x2="405" y2="508"/>
    <line x1="502" y1="405" x2="508" y2="405"/>
  </g>
  <g stroke="gray" stroke-width="1" stroke-dasharray="5,5">
    <line x1="105" y1="5" x2="105" y2="505"/>
    <line x1="5" y1="105" x2="505" y2="105"/>
    <line x1="205" y1="5" x2="205" y2="505"/>
    <line x1="5" y1="205" x2="505" y2="205"/>
    <line x1="305" y1="5" x2="305" y2="505"/>
    <line x1="5" y1="305" x2="505" y2="305"/>
    <line x1="405" y1="5" x2="405" y2="505"/>
    <line x1="5" y1="405" x2="505" y2="405"/>
  </g>
</svg>
