<?xml version="1.0" standalone="no"?>
<!DOCTYPE svg PUBLIC "-//W3C//DTD SVG 1.1//EN" 
  "http://www.w3.org/Graphics/SVG/1.1/DTD/svg11.dtd">
<svg width="510" height="510" version="1.1" id="toplevel"
    xmlns="http://www.w3.org/2000/svg"
    xmlns:xlink="http://www.w3.org/1999/xlink">
  <polygon points="401,430 466,277 401,249 401,97 88,97 80,80 44,96 44,357"
           fill="bisque"/>
  <g stroke="chocolate" stroke-width="1">
    <line x1="46" y1="97" x2="44" y2="96"/>
    <circle cx="46" cy="97" r="2"/>
    <circle cx="44" cy="96" r="2"/>
  </g>
  <g stroke="chocolate" stroke-width="1">
    <line x1="97" y1="119" x2="46" y2="97"/>
    <circle cx="97" cy="119" r="2"/>
    <circle cx="46" cy="97" r="2"/>
  </g>
  <g stroke="chocolate" stroke-width="1">
    <line x1="46" y1="97" x2="88" y2="97"/>
    <circle cx="46" cy="97" r="2"/>
    <circle cx="88" cy="97" r="2"/>
  </g>
  <g stroke="chocolate" stroke-width="1">
    <line x1="44" y1="97" x2="46" y2="97"/>
    <circle cx="44" cy="97" r="2"/>
    <circle cx="46" cy="97" r="2"/>
  </g>
  <g stroke="chocolate" stroke-width="1">
    <line x1="97" y1="119" x2="88" y2="97"/>
    <circle cx="97" cy="119" r="2"/>
    <circle cx="88" cy="97" r="2"/>
  </g>
  <g stroke="chocolate" stroke-width="1">
    <line x1="186" y1="327" x2="97" y2="119"/>
    <circle cx="186" cy="327" r="2"/>
    <circle cx="97" cy="119" r="2"/>
  </g>
  <g stroke="chocolate" stroke-width="1">
    <line x1="186" y1="157" x2="97" y2="119"/>
    <circle cx="186" cy="157" r="2"/>
    <circle cx="97" cy="119" r="2"/>
  </g>
  <g stroke="chocolate" stroke-width="1">
    <line x1="88" y1="97" x2="401" y2="97"/>
    <circle cx="88" cy="97" r="2"/>
    <circle cx="401" cy="97" r="2"/>
  </g>
  <g stroke="chocolate" stroke-width="1">
    <line x1="88" y1="97" x2="80" y2="80"/>
    <circle cx="88" cy="97" r="2"/>
    <circle cx="80" cy="80" r="2"/>
  </g>
  <g stroke="chocolate" stroke-width="1">
    <line x1="401" y1="249" x2="186" y2="157"/>
    <circle cx="401" cy="249" r="2"/>
    <circle cx="186" cy="157" r="2"/>
  </g>
  <g stroke="chocolate" stroke-width="1">
    <line x1="466" y1="277" x2="401" y2="249"/>
    <circle cx="466" cy="277" r="2"/>
    <circle cx="401" cy="249" r="2"/>
  </g>
  <g stroke="chocolate" stroke-width="1">
    <line x1="401" y1="249" x2="401" y2="97"/>
    <circle cx="401" cy="249" r="2"/>
    <circle cx="401" cy="97" r="2"/>
  </g>
  <g stroke="chocolate" stroke-width="1">
    <line x1="401" y1="430" x2="401" y2="249"/>
    <circle cx="401" cy="430" r="2"/>
    <circle cx="401" cy="249" r="2"/>
  </g>
  <g stroke="chocolate" stroke-width="1">
    <line x1="186" y1="157" x2="186" y2="97"/>
    <circle cx="186" cy="157" r="2"/>
    <circle cx="186" cy="97" r="2"/>
  </g>
  <g stroke="chocolate" stroke-width="1">
    <line x1="186" y1="327" x2="186" y2="157"/>
    <circle cx="186" cy="327" r="2"/>
    <circle cx="186" cy="157" r="2"/>
  </g>
  <g stroke="chocolate" stroke-width="1">
    <line x1="401" y1="430" x2="44" y2="357"/>
    <circle cx="401" cy="430" r="2"/>
    <circle cx="44" cy="357" r="2"/>
  </g>
  <g stroke="chocolate" stroke-width="1">
    <line x1="44" y1="96" x2="80" y2="80"/>
    <circle cx="44" cy="96" r="2"/>
    <circle cx="80" cy="80" r="2"/>
  </g>
  <g stroke="chocolate" stroke-width="1">
    <line x1="44" y1="357" x2="186" y2="327"/>
    <circle cx="44" cy="357" r="2"/>
    <circle cx="186" cy="327" r="2"/>
  </g>
  <g stroke="chocolate" stroke-width="1">
    <line x1="44" y1="357" x2="44" y2="96"/>
    <circle cx="44" cy="357" r="2"/>
    <circle cx="44" cy="96" r="2"/>
  </g>
  <g stroke="chocolate" stroke-width="1">
    <line x1="401" y1="430" x2="466" y2="277"/>
    <circle cx="401" cy="430" r="2"/>
    <circle cx="466" cy="277" r="2"/>
  </g>
  <g stroke="black" stroke-width="1">
    <line x1="5" y1="5" x2="505" y2="5"/>
    <line x1="5" y1="5" x2="5" y2="505"/>
    <line x1="505" y1="505" x2="5" y2="505"/>
    <line x1="505" y1="505" x2="505" y2="5"/>
    <line x1="105" y1="2" x2="105" y2="8"/>
    <line x1="2" y1="105" x2="8" y2="105"/>
    <line x1="105" y1="502" x2="105" y2="508"/>
    <line x1="502" y1="105" x2="508" y2="105"/>
    <line x1="205" y1="2" x2="205" y2="8"/>
    <line x1="2" y1="205" x2="8" y2="205"/>
    <line x1="205" y1="502" x2="205" y2="508"/>
    <line x1="502" y1="205" x2="508" y2="205"/>
    <line x1="305" y1="2" x2="305" y2="8"/>
    <line x1="2" y1="305" x2="8" y2="305"/>
    <line x1="305" y1="502" x2="305" y2="508"/>
    <line x1="502" y1="305" x2="508" y2="305"/>
    <line x1="405" y1="2" x2="405" y2="8"/>
    <line x1="2" y1="405" x2="8" y2="405"/>
    <line x1="405" y1="502" x2="405" y2="508"/>
    <line x1="502" y1="405" x2="508" y2="405"/>
  </g>
  <g stroke="gray" stroke-width="1" stroke-dasharray="5,5">
    <line x1="105" y1="5" x2="105" y2="505"/>
    <line x1="5" y1="105" x2="505" y2="105"/>
    <line x1="205" y1="5" x2="205" y2="505"/>
    <line x1="5" y1="205" x2="505" y2="205"/>
    <line x1="305" y1="5" x2="305" y2="505"/>
    <line x1="5" y1="305" x2="505" y2="305"/>
    <line x1="405" y1="5" x2="405" y2="505"/>
    <line x1="5" y1="405" x2="505" y2="405"/>
  </g>
</svg>
