<?xml version="1.0" standalone="no"?>
<!DOCTYPE svg PUBLIC "-//W3C//DTD SVG 1.1//EN" 
  "http://www.w3.org/Graphics/SVG/1.1/DTD/svg11.dtd">
<svg width="674" height="674" version="1.1" id="toplevel"
    xmlns="http://www.w3.org/2000/svg"
    xmlns:xlink="http://www.w3.org/1999/xlink">
  <polygon points="5,587 505,587 505,567 556,569 669,430 505,297 5,536"
           fill="bisque"/>
  <g stroke="chocolate" stroke-width="1">
    <line x1="505" y1="497" x2="505" y2="297"/>
    <circle cx="505" cy="497" r="2"/>
    <circle cx="505" cy="297" r="2"/>
  </g>
  <g stroke="chocolate" stroke-width="1">
    <line x1="505" y1="567" x2="505" y2="497"/>
    <circle cx="505" cy="567" r="2"/>
    <circle cx="505" cy="497" r="2"/>
  </g>
  <g stroke="chocolate" stroke-width="1">
    <line x1="505" y1="497" x2="400" y2="348"/>
    <circle cx="505" cy="497" r="2"/>
    <circle cx="400" cy="348" r="2"/>
  </g>
  <g stroke="chocolate" stroke-width="1">
    <line x1="556" y1="569" x2="505" y2="497"/>
    <circle cx="556" cy="569" r="2"/>
    <circle cx="505" cy="497" r="2"/>
  </g>
  <g stroke="chocolate" stroke-width="1">
    <line x1="505" y1="567" x2="25" y2="552"/>
    <circle cx="505" cy="567" r="2"/>
    <circle cx="25" cy="552" r="2"/>
  </g>
  <g stroke="chocolate" stroke-width="1">
    <line x1="556" y1="569" x2="505" y2="567"/>
    <circle cx="556" cy="569" r="2"/>
    <circle cx="505" cy="567" r="2"/>
  </g>
  <g stroke="chocolate" stroke-width="1">
    <line x1="505" y1="587" x2="505" y2="567"/>
    <circle cx="505" cy="587" r="2"/>
    <circle cx="505" cy="567" r="2"/>
  </g>
  <g stroke="chocolate" stroke-width="1">
    <line x1="669" y1="430" x2="505" y2="297"/>
    <circle cx="669" cy="430" r="2"/>
    <circle cx="505" cy="297" r="2"/>
  </g>
  <g stroke="chocolate" stroke-width="1">
    <line x1="413" y1="396" x2="400" y2="348"/>
    <circle cx="413" cy="396" r="2"/>
    <circle cx="400" cy="348" r="2"/>
  </g>
  <g stroke="chocolate" stroke-width="1">
    <line x1="133" y1="475" x2="413" y2="396"/>
    <circle cx="133" cy="475" r="2"/>
    <circle cx="413" cy="396" r="2"/>
  </g>
  <g stroke="chocolate" stroke-width="1">
    <line x1="5" y1="536" x2="505" y2="297"/>
    <circle cx="5" cy="536" r="2"/>
    <circle cx="505" cy="297" r="2"/>
  </g>
  <g stroke="chocolate" stroke-width="1">
    <line x1="25" y1="552" x2="5" y2="536"/>
    <circle cx="25" cy="552" r="2"/>
    <circle cx="5" cy="536" r="2"/>
  </g>
  <g stroke="chocolate" stroke-width="1">
    <line x1="25" y1="552" x2="133" y2="475"/>
    <circle cx="25" cy="552" r="2"/>
    <circle cx="133" cy="475" r="2"/>
  </g>
  <g stroke="chocolate" stroke-width="1">
    <line x1="5" y1="587" x2="5" y2="536"/>
    <circle cx="5" cy="587" r="2"/>
    <circle cx="5" cy="536" r="2"/>
  </g>
  <g stroke="chocolate" stroke-width="1">
    <line x1="5" y1="587" x2="505" y2="587"/>
    <circle cx="5" cy="587" r="2"/>
    <circle cx="505" cy="587" r="2"/>
  </g>
  <g stroke="chocolate" stroke-width="1">
    <line x1="556" y1="569" x2="669" y2="430"/>
    <circle cx="556" cy="569" r="2"/>
    <circle cx="669" cy="430" r="2"/>
  </g>
  <g stroke="black" stroke-width="1">
    <line x1="87" y1="87" x2="587" y2="87"/>
    <line x1="87" y1="87" x2="87" y2="587"/>
    <line x1="587" y1="587" x2="87" y2="587"/>
    <line x1="587" y1="587" x2="587" y2="87"/>
    <line x1="187" y1="84" x2="187" y2="90"/>
    <line x1="84" y1="187" x2="90" y2="187"/>
    <line x1="187" y1="584" x2="187" y2="590"/>
    <line x1="584" y1="187" x2="590" y2="187"/>
    <line x1="287" y1="84" x2="287" y2="90"/>
    <line x1="84" y1="287" x2="90" y2="287"/>
    <line x1="287" y1="584" x2="287" y2="590"/>
    <line x1="584" y1="287" x2="590" y2="287"/>
    <line x1="387" y1="84" x2="387" y2="90"/>
    <line x1="84" y1="387" x2="90" y2="387"/>
    <line x1="387" y1="584" x2="387" y2="590"/>
    <line x1="584" y1="387" x2="590" y2="387"/>
    <line x1="487" y1="84" x2="487" y2="90"/>
    <line x1="84" y1="487" x2="90" y2="487"/>
    <line x1="487" y1="584" x2="487" y2="590"/>
    <line x1="584" y1="487" x2="590" y2="487"/>
  </g>
  <g stroke="gray" stroke-width="1" stroke-dasharray="5,5">
    <line x1="187" y1="87" x2="187" y2="587"/>
    <line x1="87" y1="187" x2="587" y2="187"/>
    <line x1="287" y1="87" x2="287" y2="587"/>
    <line x1="87" y1="287" x2="587" y2="287"/>
    <line x1="387" y1="87" x2="387" y2="587"/>
    <line x1="87" y1="387" x2="587" y2="387"/>
    <line x1="487" y1="87" x2="487" y2="587"/>
    <line x1="87" y1="487" x2="587" y2="487"/>
  </g>
</svg>
