<?xml version="1.0" standalone="no"?>
<!DOCTYPE svg PUBLIC "-//W3C//DTD SVG 1.1//EN" 
  "http://www.w3.org/Graphics/SVG/1.1/DTD/svg11.dtd">
<svg width="544" height="544" version="1.1" id="toplevel"
    xmlns="http://www.w3.org/2000/svg"
    xmlns:xlink="http://www.w3.org/1999/xlink">
  <polygon points="394,539 477,539 477,210 496,134 477,129 477,39 117,39 93,33 95,30 83,5 48,22 57,106"
           fill="bisque"/>
  <g stroke="chocolate" stroke-width="1">
    <line x1="117" y1="39" x2="93" y2="33"/>
    <circle cx="117" cy="39" r="2"/>
    <circle cx="93" cy="33" r="2"/>
  </g>
  <g stroke="chocolate" stroke-width="1">
    <line x1="477" y1="129" x2="117" y2="39"/>
    <circle cx="477" cy="129" r="2"/>
    <circle cx="117" cy="39" r="2"/>
  </g>
  <g stroke="chocolate" stroke-width="1">
    <line x1="117" y1="39" x2="477" y2="39"/>
    <circle cx="117" cy="39" r="2"/>
    <circle cx="477" cy="39" r="2"/>
  </g>
  <g stroke="chocolate" stroke-width="1">
    <line x1="90" y1="39" x2="117" y2="39"/>
    <circle cx="90" cy="39" r="2"/>
    <circle cx="117" cy="39" r="2"/>
  </g>
  <g stroke="chocolate" stroke-width="1">
    <line x1="93" y1="33" x2="87" y2="31"/>
    <circle cx="93" cy="33" r="2"/>
    <circle cx="87" cy="31" r="2"/>
  </g>
  <g stroke="chocolate" stroke-width="1">
    <line x1="93" y1="33" x2="95" y2="30"/>
    <circle cx="93" cy="33" r="2"/>
    <circle cx="95" cy="30" r="2"/>
  </g>
  <g stroke="chocolate" stroke-width="1">
    <line x1="90" y1="39" x2="93" y2="33"/>
    <circle cx="90" cy="39" r="2"/>
    <circle cx="93" cy="33" r="2"/>
  </g>
  <g stroke="chocolate" stroke-width="1">
    <line x1="496" y1="134" x2="477" y2="129"/>
    <circle cx="496" cy="134" r="2"/>
    <circle cx="477" cy="129" r="2"/>
  </g>
  <g stroke="chocolate" stroke-width="1">
    <line x1="477" y1="129" x2="477" y2="39"/>
    <circle cx="477" cy="129" r="2"/>
    <circle cx="477" cy="39" r="2"/>
  </g>
  <g stroke="chocolate" stroke-width="1">
    <line x1="477" y1="210" x2="477" y2="129"/>
    <circle cx="477" cy="210" r="2"/>
    <circle cx="477" cy="129" r="2"/>
  </g>
  <g stroke="chocolate" stroke-width="1">
    <line x1="87" y1="31" x2="48" y2="22"/>
    <circle cx="87" cy="31" r="2"/>
    <circle cx="48" cy="22" r="2"/>
  </g>
  <g stroke="chocolate" stroke-width="1">
    <line x1="87" y1="31" x2="95" y2="30"/>
    <circle cx="87" cy="31" r="2"/>
    <circle cx="95" cy="30" r="2"/>
  </g>
  <g stroke="chocolate" stroke-width="1">
    <line x1="50" y1="39" x2="87" y2="31"/>
    <circle cx="50" cy="39" r="2"/>
    <circle cx="87" cy="31" r="2"/>
  </g>
  <g stroke="chocolate" stroke-width="1">
    <line x1="50" y1="39" x2="90" y2="39"/>
    <circle cx="50" cy="39" r="2"/>
    <circle cx="90" cy="39" r="2"/>
  </g>
  <g stroke="chocolate" stroke-width="1">
    <line x1="57" y1="106" x2="90" y2="39"/>
    <circle cx="57" cy="106" r="2"/>
    <circle cx="90" cy="39" r="2"/>
  </g>
  <g stroke="chocolate" stroke-width="1">
    <line x1="477" y1="539" x2="477" y2="210"/>
    <circle cx="477" cy="539" r="2"/>
    <circle cx="477" cy="210" r="2"/>
  </g>
  <g stroke="chocolate" stroke-width="1">
    <line x1="477" y1="210" x2="496" y2="134"/>
    <circle cx="477" cy="210" r="2"/>
    <circle cx="496" cy="134" r="2"/>
  </g>
  <g stroke="chocolate" stroke-width="1">
    <line x1="394" y1="539" x2="477" y2="210"/>
    <circle cx="394" cy="539" r="2"/>
    <circle cx="477" cy="210" r="2"/>
  </g>
  <g stroke="chocolate" stroke-width="1">
    <line x1="48" y1="22" x2="83" y2="5"/>
    <circle cx="48" cy="22" r="2"/>
    <circle cx="83" cy="5" r="2"/>
  </g>
  <g stroke="chocolate" stroke-width="1">
    <line x1="394" y1="539" x2="57" y2="106"/>
    <circle cx="394" cy="539" r="2"/>
    <circle cx="57" cy="106" r="2"/>
  </g>
  <g stroke="chocolate" stroke-width="1">
    <line x1="95" y1="30" x2="83" y2="5"/>
    <circle cx="95" cy="30" r="2"/>
    <circle cx="83" cy="5" r="2"/>
  </g>
  <g stroke="chocolate" stroke-width="1">
    <line x1="57" y1="106" x2="48" y2="22"/>
    <circle cx="57" cy="106" r="2"/>
    <circle cx="48" cy="22" r="2"/>
  </g>
  <g stroke="chocolate" stroke-width="1">
    <line x1="394" y1="539" x2="477" y2="539"/>
    <circle cx="394" cy="539" r="2"/>
    <circle cx="477" cy="539" r="2"/>
  </g>
  <g stroke="black" stroke-width="1">
    <line x1="22" y1="22" x2="522" y2="22"/>
    <line x1="22" y1="22" x2="22" y2="522"/>
    <line x1="522" y1="522" x2="22" y2="522"/>
    <line x1="522" y1="522" x2="522" y2="22"/>
    <line x1="122" y1="19" x2="122" y2="25"/>
    <line x1="19" y1="122" x2="25" y2="122"/>
    <line x1="122" y1="519" x2="122" y2="525"/>
    <line x1="519" y1="122" x2="525" y2="122"/>
    <line x1="222" y1="19" x2="222" y2="25"/>
    <line x1="19" y1="222" x2="25" y2="222"/>
    <line x1="222" y1="519" x2="222" y2="525"/>
    <line x1="519" y1="222" x2="525" y2="222"/>
    <line x1="322" y1="19" x2="322" y2="25"/>
    <line x1="19" y1="322" x2="25" y2="322"/>
    <line x1="322" y1="519" x2="322" y2="525"/>
    <line x1="519" y1="322" x2="525" y2="322"/>
    <line x1="422" y1="19" x2="422" y2="25"/>
    <line x1="19" y1="422" x2="25" y2="422"/>
    <line x1="422" y1="519" x2="422" y2="525"/>
    <line x1="519" y1="422" x2="525" y2="422"/>
  </g>
  <g stroke="gray" stroke-width="1" stroke-dasharray="5,5">
    <line x1="122" y1="22" x2="122" y2="522"/>
    <line x1="22" y1="122" x2="522" y2="122"/>
    <line x1="222" y1="22" x2="222" y2="522"/>
    <line x1="22" y1="222" x2="522" y2="222"/>
    <line x1="322" y1="22" x2="322" y2="522"/>
    <line x1="22" y1="322" x2="522" y2="322"/>
    <line x1="422" y1="22" x2="422" y2="522"/>
    <line x1="22" y1="422" x2="522" y2="422"/>
  </g>
</svg>
