<?xml version="1.0" standalone="no"?>
<!DOCTYPE svg PUBLIC "-//W3C//DTD SVG 1.1//EN" 
  "http://www.w3.org/Graphics/SVG/1.1/DTD/svg11.dtd">
<svg width="510" height="510" version="1.1" id="toplevel"
    xmlns="http://www.w3.org/2000/svg"
    xmlns:xlink="http://www.w3.org/1999/xlink">
  <polygon points="29,347 183,296 211,298 221,314 478,202 481,196 503,189 495,164 387,159 236,18 166,93 181,150 112,147 7,280"
           fill="bisque"/>
  <g stroke="chocolate" stroke-width="1">
    <line x1="407" y1="177" x2="387" y2="159"/>
    <circle cx="407" cy="177" r="2"/>
    <circle cx="387" cy="159" r="2"/>
  </g>
  <g stroke="chocolate" stroke-width="1">
    <line x1="441" y1="210" x2="407" y2="177"/>
    <circle cx="441" cy="210" r="2"/>
    <circle cx="407" cy="177" r="2"/>
  </g>
  <g stroke="chocolate" stroke-width="1">
    <line x1="407" y1="177" x2="377" y2="167"/>
    <circle cx="407" cy="177" r="2"/>
    <circle cx="377" cy="167" r="2"/>
  </g>
  <g stroke="chocolate" stroke-width="1">
    <line x1="445" y1="191" x2="407" y2="177"/>
    <circle cx="445" cy="191" r="2"/>
    <circle cx="407" cy="177" r="2"/>
  </g>
  <g stroke="chocolate" stroke-width="1">
    <line x1="435" y1="212" x2="441" y2="210"/>
    <circle cx="435" cy="212" r="2"/>
    <circle cx="441" cy="210" r="2"/>
  </g>
  <g stroke="chocolate" stroke-width="1">
    <line x1="279" y1="264" x2="435" y2="212"/>
    <circle cx="279" cy="264" r="2"/>
    <circle cx="435" cy="212" r="2"/>
  </g>
  <g stroke="chocolate" stroke-width="1">
    <line x1="435" y1="212" x2="377" y2="167"/>
    <circle cx="435" cy="212" r="2"/>
    <circle cx="377" cy="167" r="2"/>
  </g>
  <g stroke="chocolate" stroke-width="1">
    <line x1="443" y1="218" x2="435" y2="212"/>
    <circle cx="443" cy="218" r="2"/>
    <circle cx="435" cy="212" r="2"/>
  </g>
  <g stroke="chocolate" stroke-width="1">
    <line x1="441" y1="210" x2="444" y2="209"/>
    <circle cx="441" cy="210" r="2"/>
    <circle cx="444" cy="209" r="2"/>
  </g>
  <g stroke="chocolate" stroke-width="1">
    <line x1="443" y1="211" x2="441" y2="210"/>
    <circle cx="443" cy="211" r="2"/>
    <circle cx="441" cy="210" r="2"/>
  </g>
  <g stroke="chocolate" stroke-width="1">
    <line x1="448" y1="192" x2="445" y2="191"/>
    <circle cx="448" cy="192" r="2"/>
    <circle cx="445" cy="191" r="2"/>
  </g>
  <g stroke="chocolate" stroke-width="1">
    <line x1="445" y1="191" x2="448" y2="162"/>
    <circle cx="445" cy="191" r="2"/>
    <circle cx="448" cy="162" r="2"/>
  </g>
  <g stroke="chocolate" stroke-width="1">
    <line x1="444" y1="209" x2="445" y2="191"/>
    <circle cx="444" cy="209" r="2"/>
    <circle cx="445" cy="191" r="2"/>
  </g>
  <g stroke="chocolate" stroke-width="1">
    <line x1="214" y1="286" x2="279" y2="264"/>
    <circle cx="214" cy="286" r="2"/>
    <circle cx="279" cy="264" r="2"/>
  </g>
  <g stroke="chocolate" stroke-width="1">
    <line x1="205" y1="289" x2="214" y2="286"/>
    <circle cx="205" cy="289" r="2"/>
    <circle cx="214" cy="286" r="2"/>
  </g>
  <g stroke="chocolate" stroke-width="1">
    <line x1="214" y1="286" x2="181" y2="150"/>
    <circle cx="214" cy="286" r="2"/>
    <circle cx="181" cy="150" r="2"/>
  </g>
  <g stroke="chocolate" stroke-width="1">
    <line x1="217" y1="299" x2="214" y2="286"/>
    <circle cx="217" cy="299" r="2"/>
    <circle cx="214" cy="286" r="2"/>
  </g>
  <g stroke="chocolate" stroke-width="1">
    <line x1="351" y1="158" x2="181" y2="150"/>
    <circle cx="351" cy="158" r="2"/>
    <circle cx="181" cy="150" r="2"/>
  </g>
  <g stroke="chocolate" stroke-width="1">
    <line x1="361" y1="158" x2="351" y2="158"/>
    <circle cx="361" cy="158" r="2"/>
    <circle cx="351" cy="158" r="2"/>
  </g>
  <g stroke="chocolate" stroke-width="1">
    <line x1="351" y1="158" x2="166" y2="93"/>
    <circle cx="351" cy="158" r="2"/>
    <circle cx="166" cy="93" r="2"/>
  </g>
  <g stroke="chocolate" stroke-width="1">
    <line x1="359" y1="161" x2="351" y2="158"/>
    <circle cx="359" cy="161" r="2"/>
    <circle cx="351" cy="158" r="2"/>
  </g>
  <g stroke="chocolate" stroke-width="1">
    <line x1="279" y1="264" x2="359" y2="161"/>
    <circle cx="279" cy="264" r="2"/>
    <circle cx="359" cy="161" r="2"/>
  </g>
  <g stroke="chocolate" stroke-width="1">
    <line x1="250" y1="302" x2="279" y2="264"/>
    <circle cx="250" cy="302" r="2"/>
    <circle cx="279" cy="264" r="2"/>
  </g>
  <g stroke="chocolate" stroke-width="1">
    <line x1="377" y1="167" x2="359" y2="161"/>
    <circle cx="377" cy="167" r="2"/>
    <circle cx="359" cy="161" r="2"/>
  </g>
  <g stroke="chocolate" stroke-width="1">
    <line x1="377" y1="167" x2="366" y2="158"/>
    <circle cx="377" cy="167" r="2"/>
    <circle cx="366" cy="158" r="2"/>
  </g>
  <g stroke="chocolate" stroke-width="1">
    <line x1="183" y1="296" x2="7" y2="280"/>
    <circle cx="183" cy="296" r="2"/>
    <circle cx="7" cy="280" r="2"/>
  </g>
  <g stroke="chocolate" stroke-width="1">
    <line x1="211" y1="298" x2="183" y2="296"/>
    <circle cx="211" cy="298" r="2"/>
    <circle cx="183" cy="296" r="2"/>
  </g>
  <g stroke="chocolate" stroke-width="1">
    <line x1="183" y1="296" x2="205" y2="289"/>
    <circle cx="183" cy="296" r="2"/>
    <circle cx="205" cy="289" r="2"/>
  </g>
  <g stroke="chocolate" stroke-width="1">
    <line x1="29" y1="347" x2="183" y2="296"/>
    <circle cx="29" cy="347" r="2"/>
    <circle cx="183" cy="296" r="2"/>
  </g>
  <g stroke="chocolate" stroke-width="1">
    <line x1="211" y1="298" x2="205" y2="289"/>
    <circle cx="211" cy="298" r="2"/>
    <circle cx="205" cy="289" r="2"/>
  </g>
  <g stroke="chocolate" stroke-width="1">
    <line x1="221" y1="314" x2="211" y2="298"/>
    <circle cx="221" cy="314" r="2"/>
    <circle cx="211" cy="298" r="2"/>
  </g>
  <g stroke="chocolate" stroke-width="1">
    <line x1="217" y1="299" x2="211" y2="298"/>
    <circle cx="217" cy="299" r="2"/>
    <circle cx="211" cy="298" r="2"/>
  </g>
  <g stroke="chocolate" stroke-width="1">
    <line x1="471" y1="200" x2="481" y2="196"/>
    <circle cx="471" cy="200" r="2"/>
    <circle cx="481" cy="196" r="2"/>
  </g>
  <g stroke="chocolate" stroke-width="1">
    <line x1="448" y1="207" x2="471" y2="200"/>
    <circle cx="448" cy="207" r="2"/>
    <circle cx="471" cy="200" r="2"/>
  </g>
  <g stroke="chocolate" stroke-width="1">
    <line x1="471" y1="200" x2="448" y2="192"/>
    <circle cx="471" cy="200" r="2"/>
    <circle cx="448" cy="192" r="2"/>
  </g>
  <g stroke="chocolate" stroke-width="1">
    <line x1="478" y1="202" x2="471" y2="200"/>
    <circle cx="478" cy="202" r="2"/>
    <circle cx="471" cy="200" r="2"/>
  </g>
  <g stroke="chocolate" stroke-width="1">
    <line x1="444" y1="209" x2="448" y2="207"/>
    <circle cx="444" cy="209" r="2"/>
    <circle cx="448" cy="207" r="2"/>
  </g>
  <g stroke="chocolate" stroke-width="1">
    <line x1="448" y1="207" x2="448" y2="192"/>
    <circle cx="448" cy="207" r="2"/>
    <circle cx="448" cy="192" r="2"/>
  </g>
  <g stroke="chocolate" stroke-width="1">
    <line x1="448" y1="216" x2="448" y2="207"/>
    <circle cx="448" cy="216" r="2"/>
    <circle cx="448" cy="207" r="2"/>
  </g>
  <g stroke="chocolate" stroke-width="1">
    <line x1="387" y1="159" x2="366" y2="158"/>
    <circle cx="387" cy="159" r="2"/>
    <circle cx="366" cy="158" r="2"/>
  </g>
  <g stroke="chocolate" stroke-width="1">
    <line x1="495" y1="164" x2="387" y2="159"/>
    <circle cx="495" cy="164" r="2"/>
    <circle cx="387" cy="159" r="2"/>
  </g>
  <g stroke="chocolate" stroke-width="1">
    <line x1="387" y1="159" x2="236" y2="18"/>
    <circle cx="387" cy="159" r="2"/>
    <circle cx="236" cy="18" r="2"/>
  </g>
  <g stroke="chocolate" stroke-width="1">
    <line x1="443" y1="211" x2="444" y2="209"/>
    <circle cx="443" cy="211" r="2"/>
    <circle cx="444" cy="209" r="2"/>
  </g>
  <g stroke="chocolate" stroke-width="1">
    <line x1="181" y1="150" x2="166" y2="93"/>
    <circle cx="181" cy="150" r="2"/>
    <circle cx="166" cy="93" r="2"/>
  </g>
  <g stroke="chocolate" stroke-width="1">
    <line x1="181" y1="150" x2="112" y2="147"/>
    <circle cx="181" cy="150" r="2"/>
    <circle cx="112" cy="147" r="2"/>
  </g>
  <g stroke="chocolate" stroke-width="1">
    <line x1="359" y1="161" x2="361" y2="158"/>
    <circle cx="359" cy="161" r="2"/>
    <circle cx="361" cy="158" r="2"/>
  </g>
  <g stroke="chocolate" stroke-width="1">
    <line x1="366" y1="158" x2="361" y2="158"/>
    <circle cx="366" cy="158" r="2"/>
    <circle cx="361" cy="158" r="2"/>
  </g>
  <g stroke="chocolate" stroke-width="1">
    <line x1="366" y1="158" x2="363" y2="156"/>
    <circle cx="366" cy="158" r="2"/>
    <circle cx="363" cy="156" r="2"/>
  </g>
  <g stroke="chocolate" stroke-width="1">
    <line x1="205" y1="289" x2="112" y2="147"/>
    <circle cx="205" cy="289" r="2"/>
    <circle cx="112" cy="147" r="2"/>
  </g>
  <g stroke="chocolate" stroke-width="1">
    <line x1="250" y1="302" x2="217" y2="299"/>
    <circle cx="250" cy="302" r="2"/>
    <circle cx="217" cy="299" r="2"/>
  </g>
  <g stroke="chocolate" stroke-width="1">
    <line x1="221" y1="314" x2="217" y2="299"/>
    <circle cx="221" cy="314" r="2"/>
    <circle cx="217" cy="299" r="2"/>
  </g>
  <g stroke="chocolate" stroke-width="1">
    <line x1="448" y1="192" x2="448" y2="162"/>
    <circle cx="448" cy="192" r="2"/>
    <circle cx="448" cy="162" r="2"/>
  </g>
  <g stroke="chocolate" stroke-width="1">
    <line x1="448" y1="216" x2="443" y2="211"/>
    <circle cx="448" cy="216" r="2"/>
    <circle cx="443" cy="211" r="2"/>
  </g>
  <g stroke="chocolate" stroke-width="1">
    <line x1="443" y1="218" x2="443" y2="211"/>
    <circle cx="443" cy="218" r="2"/>
    <circle cx="443" cy="211" r="2"/>
  </g>
  <g stroke="chocolate" stroke-width="1">
    <line x1="361" y1="158" x2="363" y2="156"/>
    <circle cx="361" cy="158" r="2"/>
    <circle cx="363" cy="156" r="2"/>
  </g>
  <g stroke="chocolate" stroke-width="1">
    <line x1="481" y1="196" x2="503" y2="189"/>
    <circle cx="481" cy="196" r="2"/>
    <circle cx="503" cy="189" r="2"/>
  </g>
  <g stroke="chocolate" stroke-width="1">
    <line x1="481" y1="196" x2="495" y2="164"/>
    <circle cx="481" cy="196" r="2"/>
    <circle cx="495" cy="164" r="2"/>
  </g>
  <g stroke="chocolate" stroke-width="1">
    <line x1="478" y1="202" x2="481" y2="196"/>
    <circle cx="478" cy="202" r="2"/>
    <circle cx="481" cy="196" r="2"/>
  </g>
  <g stroke="chocolate" stroke-width="1">
    <line x1="503" y1="189" x2="495" y2="164"/>
    <circle cx="503" cy="189" r="2"/>
    <circle cx="495" cy="164" r="2"/>
  </g>
  <g stroke="chocolate" stroke-width="1">
    <line x1="166" y1="93" x2="236" y2="18"/>
    <circle cx="166" cy="93" r="2"/>
    <circle cx="236" cy="18" r="2"/>
  </g>
  <g stroke="chocolate" stroke-width="1">
    <line x1="221" y1="314" x2="478" y2="202"/>
    <circle cx="221" cy="314" r="2"/>
    <circle cx="478" cy="202" r="2"/>
  </g>
  <g stroke="chocolate" stroke-width="1">
    <line x1="7" y1="280" x2="112" y2="147"/>
    <circle cx="7" cy="280" r="2"/>
    <circle cx="112" cy="147" r="2"/>
  </g>
  <g stroke="chocolate" stroke-width="1">
    <line x1="29" y1="347" x2="7" y2="280"/>
    <circle cx="29" cy="347" r="2"/>
    <circle cx="7" cy="280" r="2"/>
  </g>
  <g stroke="black" stroke-width="1">
    <line x1="5" y1="5" x2="505" y2="5"/>
    <line x1="5" y1="5" x2="5" y2="505"/>
    <line x1="505" y1="505" x2="5" y2="505"/>
    <line x1="505" y1="505" x2="505" y2="5"/>
    <line x1="105" y1="2" x2="105" y2="8"/>
    <line x1="2" y1="105" x2="8" y2="105"/>
    <line x1="105" y1="502" x2="105" y2="508"/>
    <line x1="502" y1="105" x2="508" y2="105"/>
    <line x1="205" y1="2" x2="205" y2="8"/>
    <line x1="2" y1="205" x2="8" y2="205"/>
    <line x1="205" y1="502" x2="205" y2="508"/>
    <line x1="502" y1="205" x2="508" y2="205"/>
    <line x1="305" y1="2" x2="305" y2="8"/>
    <line x1="2" y1="305" x2="8" y2="305"/>
    <line x1="305" y1="502" x2="305" y2="508"/>
    <line x1="502" y1="305" x2="508" y2="305"/>
    <line x1="405" y1="2" x2="405" y2="8"/>
    <line x1="2" y1="405" x2="8" y2="405"/>
    <line x1="405" y1="502" x2="405" y2="508"/>
    <line x1="502" y1="405" x2="508" y2="405"/>
  </g>
  <g stroke="gray" stroke-width="1" stroke-dasharray="5,5">
    <line x1="105" y1="5" x2="105" y2="505"/>
    <line x1="5" y1="105" x2="505" y2="105"/>
    <line x1="205" y1="5" x2="205" y2="505"/>
    <line x1="5" y1="205" x2="505" y2="205"/>
    <line x1="305" y1="5" x2="305" y2="505"/>
    <line x1="5" y1="305" x2="505" y2="305"/>
    <line x1="405" y1="5" x2="405" y2="505"/>
    <line x1="5" y1="405" x2="505" y2="405"/>
  </g>
</svg>
