<?xml version="1.0" standalone="no"?>
<!DOCTYPE svg PUBLIC "-//W3C//DTD SVG 1.1//EN" 
  "http://www.w3.org/Graphics/SVG/1.1/DTD/svg11.dtd">
<svg width="552" height="552" version="1.1" id="toplevel"
    xmlns="http://www.w3.org/2000/svg"
    xmlns:xlink="http://www.w3.org/1999/xlink">
  <polygon points="37,443 547,267 547,255 537,255 507,217 502,183 483,186 423,109 254,222 122,242 23,356 26,374 5,387"
           fill="bisque"/>
  <g stroke="chocolate" stroke-width="1">
    <line x1="205" y1="255" x2="504" y2="255"/>
    <circle cx="205" cy="255" r="2"/>
    <circle cx="504" cy="255" r="2"/>
  </g>
  <g stroke="chocolate" stroke-width="1">
    <line x1="122" y1="255" x2="205" y2="255"/>
    <circle cx="122" cy="255" r="2"/>
    <circle cx="205" cy="255" r="2"/>
  </g>
  <g stroke="chocolate" stroke-width="1">
    <line x1="205" y1="255" x2="254" y2="222"/>
    <circle cx="205" cy="255" r="2"/>
    <circle cx="254" cy="222" r="2"/>
  </g>
  <g stroke="chocolate" stroke-width="1">
    <line x1="121" y1="310" x2="205" y2="255"/>
    <circle cx="121" cy="310" r="2"/>
    <circle cx="205" cy="255" r="2"/>
  </g>
  <g stroke="chocolate" stroke-width="1">
    <line x1="504" y1="255" x2="513" y2="255"/>
    <circle cx="504" cy="255" r="2"/>
    <circle cx="513" cy="255" r="2"/>
  </g>
  <g stroke="chocolate" stroke-width="1">
    <line x1="504" y1="255" x2="467" y2="188"/>
    <circle cx="504" cy="255" r="2"/>
    <circle cx="467" cy="188" r="2"/>
  </g>
  <g stroke="chocolate" stroke-width="1">
    <line x1="517" y1="277" x2="504" y2="255"/>
    <circle cx="517" cy="277" r="2"/>
    <circle cx="504" cy="255" r="2"/>
  </g>
  <g stroke="chocolate" stroke-width="1">
    <line x1="483" y1="186" x2="502" y2="183"/>
    <circle cx="483" cy="186" r="2"/>
    <circle cx="502" cy="183" r="2"/>
  </g>
  <g stroke="chocolate" stroke-width="1">
    <line x1="467" y1="188" x2="483" y2="186"/>
    <circle cx="467" cy="188" r="2"/>
    <circle cx="483" cy="186" r="2"/>
  </g>
  <g stroke="chocolate" stroke-width="1">
    <line x1="483" y1="186" x2="423" y2="109"/>
    <circle cx="483" cy="186" r="2"/>
    <circle cx="423" cy="109" r="2"/>
  </g>
  <g stroke="chocolate" stroke-width="1">
    <line x1="507" y1="217" x2="483" y2="186"/>
    <circle cx="507" cy="217" r="2"/>
    <circle cx="483" cy="186" r="2"/>
  </g>
  <g stroke="chocolate" stroke-width="1">
    <line x1="537" y1="255" x2="547" y2="255"/>
    <circle cx="537" cy="255" r="2"/>
    <circle cx="547" cy="255" r="2"/>
  </g>
  <g stroke="chocolate" stroke-width="1">
    <line x1="513" y1="255" x2="537" y2="255"/>
    <circle cx="513" cy="255" r="2"/>
    <circle cx="537" cy="255" r="2"/>
  </g>
  <g stroke="chocolate" stroke-width="1">
    <line x1="537" y1="255" x2="507" y2="217"/>
    <circle cx="537" cy="255" r="2"/>
    <circle cx="507" cy="217" r="2"/>
  </g>
  <g stroke="chocolate" stroke-width="1">
    <line x1="547" y1="267" x2="537" y2="255"/>
    <circle cx="547" cy="267" r="2"/>
    <circle cx="537" cy="255" r="2"/>
  </g>
  <g stroke="chocolate" stroke-width="1">
    <line x1="513" y1="255" x2="507" y2="217"/>
    <circle cx="513" cy="255" r="2"/>
    <circle cx="507" cy="217" r="2"/>
  </g>
  <g stroke="chocolate" stroke-width="1">
    <line x1="517" y1="277" x2="513" y2="255"/>
    <circle cx="517" cy="277" r="2"/>
    <circle cx="513" cy="255" r="2"/>
  </g>
  <g stroke="chocolate" stroke-width="1">
    <line x1="26" y1="374" x2="47" y2="360"/>
    <circle cx="26" cy="374" r="2"/>
    <circle cx="47" cy="360" r="2"/>
  </g>
  <g stroke="chocolate" stroke-width="1">
    <line x1="5" y1="387" x2="26" y2="374"/>
    <circle cx="5" cy="387" r="2"/>
    <circle cx="26" cy="374" r="2"/>
  </g>
  <g stroke="chocolate" stroke-width="1">
    <line x1="26" y1="374" x2="23" y2="356"/>
    <circle cx="26" cy="374" r="2"/>
    <circle cx="23" cy="356" r="2"/>
  </g>
  <g stroke="chocolate" stroke-width="1">
    <line x1="33" y1="423" x2="26" y2="374"/>
    <circle cx="33" cy="423" r="2"/>
    <circle cx="26" cy="374" r="2"/>
  </g>
  <g stroke="chocolate" stroke-width="1">
    <line x1="51" y1="357" x2="104" y2="321"/>
    <circle cx="51" cy="357" r="2"/>
    <circle cx="104" cy="321" r="2"/>
  </g>
  <g stroke="chocolate" stroke-width="1">
    <line x1="47" y1="360" x2="51" y2="357"/>
    <circle cx="47" cy="360" r="2"/>
    <circle cx="51" cy="357" r="2"/>
  </g>
  <g stroke="chocolate" stroke-width="1">
    <line x1="51" y1="357" x2="47" y2="356"/>
    <circle cx="51" cy="357" r="2"/>
    <circle cx="47" cy="356" r="2"/>
  </g>
  <g stroke="chocolate" stroke-width="1">
    <line x1="120" y1="358" x2="51" y2="357"/>
    <circle cx="120" cy="358" r="2"/>
    <circle cx="51" cy="357" r="2"/>
  </g>
  <g stroke="chocolate" stroke-width="1">
    <line x1="47" y1="360" x2="47" y2="356"/>
    <circle cx="47" cy="360" r="2"/>
    <circle cx="47" cy="356" r="2"/>
  </g>
  <g stroke="chocolate" stroke-width="1">
    <line x1="47" y1="439" x2="47" y2="360"/>
    <circle cx="47" cy="439" r="2"/>
    <circle cx="47" cy="360" r="2"/>
  </g>
  <g stroke="chocolate" stroke-width="1">
    <line x1="254" y1="222" x2="467" y2="188"/>
    <circle cx="254" cy="222" r="2"/>
    <circle cx="467" cy="188" r="2"/>
  </g>
  <g stroke="chocolate" stroke-width="1">
    <line x1="122" y1="242" x2="254" y2="222"/>
    <circle cx="122" cy="242" r="2"/>
    <circle cx="254" cy="222" r="2"/>
  </g>
  <g stroke="chocolate" stroke-width="1">
    <line x1="254" y1="222" x2="423" y2="109"/>
    <circle cx="254" cy="222" r="2"/>
    <circle cx="423" cy="109" r="2"/>
  </g>
  <g stroke="chocolate" stroke-width="1">
    <line x1="122" y1="255" x2="122" y2="242"/>
    <circle cx="122" cy="255" r="2"/>
    <circle cx="122" cy="242" r="2"/>
  </g>
  <g stroke="chocolate" stroke-width="1">
    <line x1="121" y1="310" x2="122" y2="255"/>
    <circle cx="121" cy="310" r="2"/>
    <circle cx="122" cy="255" r="2"/>
  </g>
  <g stroke="chocolate" stroke-width="1">
    <line x1="112" y1="255" x2="122" y2="255"/>
    <circle cx="112" cy="255" r="2"/>
    <circle cx="122" cy="255" r="2"/>
  </g>
  <g stroke="chocolate" stroke-width="1">
    <line x1="104" y1="321" x2="119" y2="311"/>
    <circle cx="104" cy="321" r="2"/>
    <circle cx="119" cy="311" r="2"/>
  </g>
  <g stroke="chocolate" stroke-width="1">
    <line x1="104" y1="321" x2="120" y2="319"/>
    <circle cx="104" cy="321" r="2"/>
    <circle cx="120" cy="319" r="2"/>
  </g>
  <g stroke="chocolate" stroke-width="1">
    <line x1="47" y1="329" x2="104" y2="321"/>
    <circle cx="47" cy="329" r="2"/>
    <circle cx="104" cy="321" r="2"/>
  </g>
  <g stroke="chocolate" stroke-width="1">
    <line x1="467" y1="188" x2="423" y2="109"/>
    <circle cx="467" cy="188" r="2"/>
    <circle cx="423" cy="109" r="2"/>
  </g>
  <g stroke="chocolate" stroke-width="1">
    <line x1="507" y1="217" x2="502" y2="183"/>
    <circle cx="507" cy="217" r="2"/>
    <circle cx="502" cy="183" r="2"/>
  </g>
  <g stroke="chocolate" stroke-width="1">
    <line x1="119" y1="311" x2="121" y2="310"/>
    <circle cx="119" cy="311" r="2"/>
    <circle cx="121" cy="310" r="2"/>
  </g>
  <g stroke="chocolate" stroke-width="1">
    <line x1="119" y1="311" x2="112" y2="255"/>
    <circle cx="119" cy="311" r="2"/>
    <circle cx="112" cy="255" r="2"/>
  </g>
  <g stroke="chocolate" stroke-width="1">
    <line x1="120" y1="319" x2="119" y2="311"/>
    <circle cx="120" cy="319" r="2"/>
    <circle cx="119" cy="311" r="2"/>
  </g>
  <g stroke="chocolate" stroke-width="1">
    <line x1="33" y1="423" x2="5" y2="387"/>
    <circle cx="33" cy="423" r="2"/>
    <circle cx="5" cy="387" r="2"/>
  </g>
  <g stroke="chocolate" stroke-width="1">
    <line x1="47" y1="439" x2="33" y2="423"/>
    <circle cx="47" cy="439" r="2"/>
    <circle cx="33" cy="423" r="2"/>
  </g>
  <g stroke="chocolate" stroke-width="1">
    <line x1="37" y1="443" x2="33" y2="423"/>
    <circle cx="37" cy="443" r="2"/>
    <circle cx="33" cy="423" r="2"/>
  </g>
  <g stroke="chocolate" stroke-width="1">
    <line x1="47" y1="356" x2="23" y2="356"/>
    <circle cx="47" cy="356" r="2"/>
    <circle cx="23" cy="356" r="2"/>
  </g>
  <g stroke="chocolate" stroke-width="1">
    <line x1="47" y1="356" x2="47" y2="329"/>
    <circle cx="47" cy="356" r="2"/>
    <circle cx="47" cy="329" r="2"/>
  </g>
  <g stroke="chocolate" stroke-width="1">
    <line x1="120" y1="358" x2="121" y2="310"/>
    <circle cx="120" cy="358" r="2"/>
    <circle cx="121" cy="310" r="2"/>
  </g>
  <g stroke="chocolate" stroke-width="1">
    <line x1="37" y1="443" x2="547" y2="267"/>
    <circle cx="37" cy="443" r="2"/>
    <circle cx="547" cy="267" r="2"/>
  </g>
  <g stroke="chocolate" stroke-width="1">
    <line x1="23" y1="356" x2="122" y2="242"/>
    <circle cx="23" cy="356" r="2"/>
    <circle cx="122" cy="242" r="2"/>
  </g>
  <g stroke="chocolate" stroke-width="1">
    <line x1="37" y1="443" x2="5" y2="387"/>
    <circle cx="37" cy="443" r="2"/>
    <circle cx="5" cy="387" r="2"/>
  </g>
  <g stroke="chocolate" stroke-width="1">
    <line x1="547" y1="267" x2="547" y2="255"/>
    <circle cx="547" cy="267" r="2"/>
    <circle cx="547" cy="255" r="2"/>
  </g>
  <g stroke="black" stroke-width="1">
    <line x1="26" y1="26" x2="526" y2="26"/>
    <line x1="26" y1="26" x2="26" y2="526"/>
    <line x1="526" y1="526" x2="26" y2="526"/>
    <line x1="526" y1="526" x2="526" y2="26"/>
    <line x1="126" y1="23" x2="126" y2="29"/>
    <line x1="23" y1="126" x2="29" y2="126"/>
    <line x1="126" y1="523" x2="126" y2="529"/>
    <line x1="523" y1="126" x2="529" y2="126"/>
    <line x1="226" y1="23" x2="226" y2="29"/>
    <line x1="23" y1="226" x2="29" y2="226"/>
    <line x1="226" y1="523" x2="226" y2="529"/>
    <line x1="523" y1="226" x2="529" y2="226"/>
    <line x1="326" y1="23" x2="326" y2="29"/>
    <line x1="23" y1="326" x2="29" y2="326"/>
    <line x1="326" y1="523" x2="326" y2="529"/>
    <line x1="523" y1="326" x2="529" y2="326"/>
    <line x1="426" y1="23" x2="426" y2="29"/>
    <line x1="23" y1="426" x2="29" y2="426"/>
    <line x1="426" y1="523" x2="426" y2="529"/>
    <line x1="523" y1="426" x2="529" y2="426"/>
  </g>
  <g stroke="gray" stroke-width="1" stroke-dasharray="5,5">
    <line x1="126" y1="26" x2="126" y2="526"/>
    <line x1="26" y1="126" x2="526" y2="126"/>
    <line x1="226" y1="26" x2="226" y2="526"/>
    <line x1="26" y1="226" x2="526" y2="226"/>
    <line x1="326" y1="26" x2="326" y2="526"/>
    <line x1="26" y1="326" x2="526" y2="326"/>
    <line x1="426" y1="26" x2="426" y2="526"/>
    <line x1="26" y1="426" x2="526" y2="426"/>
  </g>
</svg>
