<?xml version="1.0" standalone="no"?>
<!DOCTYPE svg PUBLIC "-//W3C//DTD SVG 1.1//EN" 
  "http://www.w3.org/Graphics/SVG/1.1/DTD/svg11.dtd">
<svg width="716" height="716" version="1.1" id="toplevel"
    xmlns="http://www.w3.org/2000/svg"
    xmlns:xlink="http://www.w3.org/1999/xlink">
  <polygon points="367,711 711,349 349,5 5,367" fill="bisque"/>
  <g stroke="chocolate" stroke-width="1">
    <line x1="711" y1="349" x2="349" y2="5"/>
    <circle cx="711" cy="349" r="2"/>
    <circle cx="349" cy="5" r="2"/>
  </g>
  <g stroke="chocolate" stroke-width="1">
    <line x1="5" y1="367" x2="349" y2="5"/>
    <circle cx="5" cy="367" r="2"/>
    <circle cx="349" cy="5" r="2"/>
  </g>
  <g stroke="chocolate" stroke-width="1">
    <line x1="367" y1="711" x2="5" y2="367"/>
    <circle cx="367" cy="711" r="2"/>
    <circle cx="5" cy="367" r="2"/>
  </g>
  <g stroke="chocolate" stroke-width="1">
    <line x1="367" y1="711" x2="711" y2="349"/>
    <circle cx="367" cy="711" r="2"/>
    <circle cx="711" cy="349" r="2"/>
  </g>
  <g stroke="black" stroke-width="1">
    <line x1="108" y1="108" x2="608" y2="108"/>
    <line x1="108" y1="108" x2="108" y2="608"/>
    <line x1="608" y1="608" x2="108" y2="608"/>
    <line x1="608" y1="608" x2="608" y2="108"/>
    <line x1="208" y1="105" x2="208" y2="111"/>
    <line x1="105" y1="208" x2="111" y2="208"/>
    <line x1="208" y1="605" x2="208" y2="611"/>
    <line x1="605" y1="208" x2="611" y2="208"/>
    <line x1="308" y1="105" x2="308" y2="111"/>
    <line x1="105" y1="308" x2="111" y2="308"/>
    <line x1="308" y1="605" x2="308" y2="611"/>
    <line x1="605" y1="308" x2="611" y2="308"/>
    <line x1="408" y1="105" x2="408" y2="111"/>
    <line x1="105" y1="408" x2="111" y2="408"/>
    <line x1="408" y1="605" x2="408" y2="611"/>
    <line x1="605" y1="408" x2="611" y2="408"/>
    <line x1="508" y1="105" x2="508" y2="111"/>
    <line x1="105" y1="508" x2="111" y2="508"/>
    <line x1="508" y1="605" x2="508" y2="611"/>
    <line x1="605" y1="508" x2="611" y2="508"/>
  </g>
  <g stroke="gray" stroke-width="1" stroke-dasharray="5,5">
    <line x1="208" y1="108" x2="208" y2="608"/>
    <line x1="108" y1="208" x2="608" y2="208"/>
    <line x1="308" y1="108" x2="308" y2="608"/>
    <line x1="108" y1="308" x2="608" y2="308"/>
    <line x1="408" y1="108" x2="408" y2="608"/>
    <line x1="108" y1="408" x2="608" y2="408"/>
    <line x1="508" y1="108" x2="508" y2="608"/>
    <line x1="108" y1="508" x2="608" y2="508"/>
  </g>
</svg>
