<?xml version="1.0" standalone="no"?>
<!DOCTYPE svg PUBLIC "-//W3C//DTD SVG 1.1//EN" 
  "http://www.w3.org/Graphics/SVG/1.1/DTD/svg11.dtd">
<svg width="664" height="664" version="1.1" id="toplevel"
    xmlns="http://www.w3.org/2000/svg"
    xmlns:xlink="http://www.w3.org/1999/xlink">
  <polygon points="590,509 659,425 495,292 259,405 9,376 5,399 7,400 6,404 14,404 116,474"
           fill="bisque"/>
  <g stroke="chocolate" stroke-width="1">
    <line x1="491" y1="461" x2="369" y2="436"/>
    <circle cx="491" cy="461" r="2"/>
    <circle cx="369" cy="436" r="2"/>
  </g>
  <g stroke="chocolate" stroke-width="1">
    <line x1="495" y1="462" x2="491" y2="461"/>
    <circle cx="495" cy="462" r="2"/>
    <circle cx="491" cy="461" r="2"/>
  </g>
  <g stroke="chocolate" stroke-width="1">
    <line x1="491" y1="461" x2="473" y2="443"/>
    <circle cx="491" cy="461" r="2"/>
    <circle cx="473" cy="443" r="2"/>
  </g>
  <g stroke="chocolate" stroke-width="1">
    <line x1="495" y1="465" x2="491" y2="461"/>
    <circle cx="495" cy="465" r="2"/>
    <circle cx="491" cy="461" r="2"/>
  </g>
  <g stroke="chocolate" stroke-width="1">
    <line x1="224" y1="422" x2="79" y2="410"/>
    <circle cx="224" cy="422" r="2"/>
    <circle cx="79" cy="410" r="2"/>
  </g>
  <g stroke="chocolate" stroke-width="1">
    <line x1="349" y1="432" x2="224" y2="422"/>
    <circle cx="349" cy="432" r="2"/>
    <circle cx="224" cy="422" r="2"/>
  </g>
  <g stroke="chocolate" stroke-width="1">
    <line x1="224" y1="422" x2="246" y2="411"/>
    <circle cx="224" cy="422" r="2"/>
    <circle cx="246" cy="411" r="2"/>
  </g>
  <g stroke="chocolate" stroke-width="1">
    <line x1="124" y1="470" x2="224" y2="422"/>
    <circle cx="124" cy="470" r="2"/>
    <circle cx="224" cy="422" r="2"/>
  </g>
  <g stroke="chocolate" stroke-width="1">
    <line x1="381" y1="435" x2="349" y2="432"/>
    <circle cx="381" cy="435" r="2"/>
    <circle cx="349" cy="432" r="2"/>
  </g>
  <g stroke="chocolate" stroke-width="1">
    <line x1="349" y1="432" x2="246" y2="411"/>
    <circle cx="349" cy="432" r="2"/>
    <circle cx="246" cy="411" r="2"/>
  </g>
  <g stroke="chocolate" stroke-width="1">
    <line x1="369" y1="436" x2="349" y2="432"/>
    <circle cx="369" cy="436" r="2"/>
    <circle cx="349" cy="432" r="2"/>
  </g>
  <g stroke="chocolate" stroke-width="1">
    <line x1="495" y1="462" x2="495" y2="444"/>
    <circle cx="495" cy="462" r="2"/>
    <circle cx="495" cy="444" r="2"/>
  </g>
  <g stroke="chocolate" stroke-width="1">
    <line x1="495" y1="465" x2="495" y2="462"/>
    <circle cx="495" cy="465" r="2"/>
    <circle cx="495" cy="462" r="2"/>
  </g>
  <g stroke="chocolate" stroke-width="1">
    <line x1="501" y1="463" x2="495" y2="462"/>
    <circle cx="501" cy="463" r="2"/>
    <circle cx="495" cy="462" r="2"/>
  </g>
  <g stroke="chocolate" stroke-width="1">
    <line x1="473" y1="443" x2="459" y2="429"/>
    <circle cx="473" cy="443" r="2"/>
    <circle cx="459" cy="429" r="2"/>
  </g>
  <g stroke="chocolate" stroke-width="1">
    <line x1="473" y1="443" x2="381" y2="435"/>
    <circle cx="473" cy="443" r="2"/>
    <circle cx="381" cy="435" r="2"/>
  </g>
  <g stroke="chocolate" stroke-width="1">
    <line x1="495" y1="444" x2="473" y2="443"/>
    <circle cx="495" cy="444" r="2"/>
    <circle cx="473" cy="443" r="2"/>
  </g>
  <g stroke="chocolate" stroke-width="1">
    <line x1="500" y1="470" x2="495" y2="465"/>
    <circle cx="500" cy="470" r="2"/>
    <circle cx="495" cy="465" r="2"/>
  </g>
  <g stroke="chocolate" stroke-width="1">
    <line x1="495" y1="502" x2="495" y2="465"/>
    <circle cx="495" cy="502" r="2"/>
    <circle cx="495" cy="465" r="2"/>
  </g>
  <g stroke="chocolate" stroke-width="1">
    <line x1="79" y1="410" x2="14" y2="404"/>
    <circle cx="79" cy="410" r="2"/>
    <circle cx="14" cy="404" r="2"/>
  </g>
  <g stroke="chocolate" stroke-width="1">
    <line x1="79" y1="410" x2="65" y2="390"/>
    <circle cx="79" cy="410" r="2"/>
    <circle cx="65" cy="390" r="2"/>
  </g>
  <g stroke="chocolate" stroke-width="1">
    <line x1="124" y1="470" x2="79" y2="410"/>
    <circle cx="124" cy="470" r="2"/>
    <circle cx="79" cy="410" r="2"/>
  </g>
  <g stroke="chocolate" stroke-width="1">
    <line x1="246" y1="411" x2="259" y2="405"/>
    <circle cx="246" cy="411" r="2"/>
    <circle cx="259" cy="405" r="2"/>
  </g>
  <g stroke="chocolate" stroke-width="1">
    <line x1="246" y1="411" x2="157" y2="393"/>
    <circle cx="246" cy="411" r="2"/>
    <circle cx="157" cy="393" r="2"/>
  </g>
  <g stroke="chocolate" stroke-width="1">
    <line x1="501" y1="463" x2="504" y2="445"/>
    <circle cx="501" cy="463" r="2"/>
    <circle cx="504" cy="445" r="2"/>
  </g>
  <g stroke="chocolate" stroke-width="1">
    <line x1="500" y1="470" x2="501" y2="463"/>
    <circle cx="500" cy="470" r="2"/>
    <circle cx="501" cy="463" r="2"/>
  </g>
  <g stroke="chocolate" stroke-width="1">
    <line x1="572" y1="477" x2="501" y2="463"/>
    <circle cx="572" cy="477" r="2"/>
    <circle cx="501" cy="463" r="2"/>
  </g>
  <g stroke="chocolate" stroke-width="1">
    <line x1="381" y1="435" x2="389" y2="434"/>
    <circle cx="381" cy="435" r="2"/>
    <circle cx="389" cy="434" r="2"/>
  </g>
  <g stroke="chocolate" stroke-width="1">
    <line x1="369" y1="436" x2="381" y2="435"/>
    <circle cx="369" cy="436" r="2"/>
    <circle cx="381" cy="435" r="2"/>
  </g>
  <g stroke="chocolate" stroke-width="1">
    <line x1="459" y1="429" x2="379" y2="348"/>
    <circle cx="459" cy="429" r="2"/>
    <circle cx="379" cy="348" r="2"/>
  </g>
  <g stroke="chocolate" stroke-width="1">
    <line x1="459" y1="429" x2="387" y2="420"/>
    <circle cx="459" cy="429" r="2"/>
    <circle cx="387" cy="420" r="2"/>
  </g>
  <g stroke="chocolate" stroke-width="1">
    <line x1="495" y1="433" x2="459" y2="429"/>
    <circle cx="495" cy="433" r="2"/>
    <circle cx="459" cy="429" r="2"/>
  </g>
  <g stroke="chocolate" stroke-width="1">
    <line x1="259" y1="405" x2="9" y2="376"/>
    <circle cx="259" cy="405" r="2"/>
    <circle cx="9" cy="376" r="2"/>
  </g>
  <g stroke="chocolate" stroke-width="1">
    <line x1="387" y1="420" x2="259" y2="405"/>
    <circle cx="387" cy="420" r="2"/>
    <circle cx="259" cy="405" r="2"/>
  </g>
  <g stroke="chocolate" stroke-width="1">
    <line x1="259" y1="405" x2="495" y2="292"/>
    <circle cx="259" cy="405" r="2"/>
    <circle cx="495" cy="292" r="2"/>
  </g>
  <g stroke="chocolate" stroke-width="1">
    <line x1="14" y1="404" x2="6" y2="404"/>
    <circle cx="14" cy="404" r="2"/>
    <circle cx="6" cy="404" r="2"/>
  </g>
  <g stroke="chocolate" stroke-width="1">
    <line x1="14" y1="404" x2="7" y2="400"/>
    <circle cx="14" cy="404" r="2"/>
    <circle cx="7" cy="400" r="2"/>
  </g>
  <g stroke="chocolate" stroke-width="1">
    <line x1="116" y1="474" x2="14" y2="404"/>
    <circle cx="116" cy="474" r="2"/>
    <circle cx="14" cy="404" r="2"/>
  </g>
  <g stroke="chocolate" stroke-width="1">
    <line x1="495" y1="444" x2="495" y2="433"/>
    <circle cx="495" cy="444" r="2"/>
    <circle cx="495" cy="433" r="2"/>
  </g>
  <g stroke="chocolate" stroke-width="1">
    <line x1="504" y1="445" x2="495" y2="444"/>
    <circle cx="504" cy="445" r="2"/>
    <circle cx="495" cy="444" r="2"/>
  </g>
  <g stroke="chocolate" stroke-width="1">
    <line x1="495" y1="502" x2="500" y2="470"/>
    <circle cx="495" cy="502" r="2"/>
    <circle cx="500" cy="470" r="2"/>
  </g>
  <g stroke="chocolate" stroke-width="1">
    <line x1="534" y1="505" x2="500" y2="470"/>
    <circle cx="534" cy="505" r="2"/>
    <circle cx="500" cy="470" r="2"/>
  </g>
  <g stroke="chocolate" stroke-width="1">
    <line x1="65" y1="390" x2="59" y2="382"/>
    <circle cx="65" cy="390" r="2"/>
    <circle cx="59" cy="382" r="2"/>
  </g>
  <g stroke="chocolate" stroke-width="1">
    <line x1="65" y1="390" x2="49" y2="390"/>
    <circle cx="65" cy="390" r="2"/>
    <circle cx="49" cy="390" r="2"/>
  </g>
  <g stroke="chocolate" stroke-width="1">
    <line x1="157" y1="393" x2="65" y2="390"/>
    <circle cx="157" cy="393" r="2"/>
    <circle cx="65" cy="390" r="2"/>
  </g>
  <g stroke="chocolate" stroke-width="1">
    <line x1="7" y1="398" x2="9" y2="376"/>
    <circle cx="7" cy="398" r="2"/>
    <circle cx="9" cy="376" r="2"/>
  </g>
  <g stroke="chocolate" stroke-width="1">
    <line x1="7" y1="400" x2="7" y2="398"/>
    <circle cx="7" cy="400" r="2"/>
    <circle cx="7" cy="398" r="2"/>
  </g>
  <g stroke="chocolate" stroke-width="1">
    <line x1="7" y1="398" x2="38" y2="379"/>
    <circle cx="7" cy="398" r="2"/>
    <circle cx="38" cy="379" r="2"/>
  </g>
  <g stroke="chocolate" stroke-width="1">
    <line x1="5" y1="399" x2="7" y2="398"/>
    <circle cx="5" cy="399" r="2"/>
    <circle cx="7" cy="398" r="2"/>
  </g>
  <g stroke="chocolate" stroke-width="1">
    <line x1="141" y1="462" x2="369" y2="436"/>
    <circle cx="141" cy="462" r="2"/>
    <circle cx="369" cy="436" r="2"/>
  </g>
  <g stroke="chocolate" stroke-width="1">
    <line x1="387" y1="420" x2="379" y2="348"/>
    <circle cx="387" cy="420" r="2"/>
    <circle cx="379" cy="348" r="2"/>
  </g>
  <g stroke="chocolate" stroke-width="1">
    <line x1="389" y1="434" x2="387" y2="420"/>
    <circle cx="389" cy="434" r="2"/>
    <circle cx="387" cy="420" r="2"/>
  </g>
  <g stroke="chocolate" stroke-width="1">
    <line x1="128" y1="474" x2="124" y2="470"/>
    <circle cx="128" cy="474" r="2"/>
    <circle cx="124" cy="470" r="2"/>
  </g>
  <g stroke="chocolate" stroke-width="1">
    <line x1="116" y1="474" x2="124" y2="470"/>
    <circle cx="116" cy="474" r="2"/>
    <circle cx="124" cy="470" r="2"/>
  </g>
  <g stroke="chocolate" stroke-width="1">
    <line x1="7" y1="400" x2="5" y2="399"/>
    <circle cx="7" cy="400" r="2"/>
    <circle cx="5" cy="399" r="2"/>
  </g>
  <g stroke="chocolate" stroke-width="1">
    <line x1="6" y1="404" x2="7" y2="400"/>
    <circle cx="6" cy="404" r="2"/>
    <circle cx="7" cy="400" r="2"/>
  </g>
  <g stroke="chocolate" stroke-width="1">
    <line x1="506" y1="434" x2="495" y2="433"/>
    <circle cx="506" cy="434" r="2"/>
    <circle cx="495" cy="433" r="2"/>
  </g>
  <g stroke="chocolate" stroke-width="1">
    <line x1="495" y1="433" x2="495" y2="292"/>
    <circle cx="495" cy="433" r="2"/>
    <circle cx="495" cy="292" r="2"/>
  </g>
  <g stroke="chocolate" stroke-width="1">
    <line x1="505" y1="445" x2="504" y2="445"/>
    <circle cx="505" cy="445" r="2"/>
    <circle cx="504" cy="445" r="2"/>
  </g>
  <g stroke="chocolate" stroke-width="1">
    <line x1="504" y1="445" x2="506" y2="434"/>
    <circle cx="504" cy="445" r="2"/>
    <circle cx="506" cy="434" r="2"/>
  </g>
  <g stroke="chocolate" stroke-width="1">
    <line x1="659" y1="425" x2="495" y2="292"/>
    <circle cx="659" cy="425" r="2"/>
    <circle cx="495" cy="292" r="2"/>
  </g>
  <g stroke="chocolate" stroke-width="1">
    <line x1="590" y1="509" x2="572" y2="477"/>
    <circle cx="590" cy="509" r="2"/>
    <circle cx="572" cy="477" r="2"/>
  </g>
  <g stroke="chocolate" stroke-width="1">
    <line x1="49" y1="390" x2="38" y2="379"/>
    <circle cx="49" cy="390" r="2"/>
    <circle cx="38" cy="379" r="2"/>
  </g>
  <g stroke="chocolate" stroke-width="1">
    <line x1="590" y1="509" x2="116" y2="474"/>
    <circle cx="590" cy="509" r="2"/>
    <circle cx="116" cy="474" r="2"/>
  </g>
  <g stroke="chocolate" stroke-width="1">
    <line x1="49" y1="390" x2="59" y2="382"/>
    <circle cx="49" cy="390" r="2"/>
    <circle cx="59" cy="382" r="2"/>
  </g>
  <g stroke="chocolate" stroke-width="1">
    <line x1="5" y1="399" x2="9" y2="376"/>
    <circle cx="5" cy="399" r="2"/>
    <circle cx="9" cy="376" r="2"/>
  </g>
  <g stroke="chocolate" stroke-width="1">
    <line x1="128" y1="474" x2="141" y2="462"/>
    <circle cx="128" cy="474" r="2"/>
    <circle cx="141" cy="462" r="2"/>
  </g>
  <g stroke="chocolate" stroke-width="1">
    <line x1="505" y1="445" x2="506" y2="434"/>
    <circle cx="505" cy="445" r="2"/>
    <circle cx="506" cy="434" r="2"/>
  </g>
  <g stroke="chocolate" stroke-width="1">
    <line x1="534" y1="505" x2="572" y2="477"/>
    <circle cx="534" cy="505" r="2"/>
    <circle cx="572" cy="477" r="2"/>
  </g>
  <g stroke="chocolate" stroke-width="1">
    <line x1="590" y1="509" x2="659" y2="425"/>
    <circle cx="590" cy="509" r="2"/>
    <circle cx="659" cy="425" r="2"/>
  </g>
  <g stroke="black" stroke-width="1">
    <line x1="82" y1="82" x2="582" y2="82"/>
    <line x1="82" y1="82" x2="82" y2="582"/>
    <line x1="582" y1="582" x2="82" y2="582"/>
    <line x1="582" y1="582" x2="582" y2="82"/>
    <line x1="182" y1="79" x2="182" y2="85"/>
    <line x1="79" y1="182" x2="85" y2="182"/>
    <line x1="182" y1="579" x2="182" y2="585"/>
    <line x1="579" y1="182" x2="585" y2="182"/>
    <line x1="282" y1="79" x2="282" y2="85"/>
    <line x1="79" y1="282" x2="85" y2="282"/>
    <line x1="282" y1="579" x2="282" y2="585"/>
    <line x1="579" y1="282" x2="585" y2="282"/>
    <line x1="382" y1="79" x2="382" y2="85"/>
    <line x1="79" y1="382" x2="85" y2="382"/>
    <line x1="382" y1="579" x2="382" y2="585"/>
    <line x1="579" y1="382" x2="585" y2="382"/>
    <line x1="482" y1="79" x2="482" y2="85"/>
    <line x1="79" y1="482" x2="85" y2="482"/>
    <line x1="482" y1="579" x2="482" y2="585"/>
    <line x1="579" y1="482" x2="585" y2="482"/>
  </g>
  <g stroke="gray" stroke-width="1" stroke-dasharray="5,5">
    <line x1="182" y1="82" x2="182" y2="582"/>
    <line x1="82" y1="182" x2="582" y2="182"/>
    <line x1="282" y1="82" x2="282" y2="582"/>
    <line x1="82" y1="282" x2="582" y2="282"/>
    <line x1="382" y1="82" x2="382" y2="582"/>
    <line x1="82" y1="382" x2="582" y2="382"/>
    <line x1="482" y1="82" x2="482" y2="582"/>
    <line x1="82" y1="482" x2="582" y2="482"/>
  </g>
</svg>
