<?xml version="1.0" standalone="no"?>
<!DOCTYPE svg PUBLIC "-//W3C//DTD SVG 1.1//EN" 
  "http://www.w3.org/Graphics/SVG/1.1/DTD/svg11.dtd">
<svg width="510" height="510" version="1.1" id="toplevel"
    xmlns="http://www.w3.org/2000/svg"
    xmlns:xlink="http://www.w3.org/1999/xlink">
  <polygon points="151,263 409,244 424,164 339,138 186,70 86,126 145,231 126,231 126,245"
           fill="bisque"/>
  <g stroke="chocolate" stroke-width="1">
    <line x1="194" y1="225" x2="219" y2="218"/>
    <circle cx="194" cy="225" r="2"/>
    <circle cx="219" cy="218" r="2"/>
  </g>
  <g stroke="chocolate" stroke-width="1">
    <line x1="185" y1="228" x2="194" y2="225"/>
    <circle cx="185" cy="228" r="2"/>
    <circle cx="194" cy="225" r="2"/>
  </g>
  <g stroke="chocolate" stroke-width="1">
    <line x1="194" y1="225" x2="197" y2="216"/>
    <circle cx="194" cy="225" r="2"/>
    <circle cx="197" cy="216" r="2"/>
  </g>
  <g stroke="chocolate" stroke-width="1">
    <line x1="193" y1="231" x2="194" y2="225"/>
    <circle cx="193" cy="231" r="2"/>
    <circle cx="194" cy="225" r="2"/>
  </g>
  <g stroke="chocolate" stroke-width="1">
    <line x1="311" y1="199" x2="302" y2="194"/>
    <circle cx="311" cy="199" r="2"/>
    <circle cx="302" cy="194" r="2"/>
  </g>
  <g stroke="chocolate" stroke-width="1">
    <line x1="346" y1="219" x2="311" y2="199"/>
    <circle cx="346" cy="219" r="2"/>
    <circle cx="311" cy="199" r="2"/>
  </g>
  <g stroke="chocolate" stroke-width="1">
    <line x1="311" y1="199" x2="369" y2="176"/>
    <circle cx="311" cy="199" r="2"/>
    <circle cx="369" cy="176" r="2"/>
  </g>
  <g stroke="chocolate" stroke-width="1">
    <line x1="296" y1="205" x2="311" y2="199"/>
    <circle cx="296" cy="205" r="2"/>
    <circle cx="311" cy="199" r="2"/>
  </g>
  <g stroke="chocolate" stroke-width="1">
    <line x1="182" y1="231" x2="175" y2="231"/>
    <circle cx="182" cy="231" r="2"/>
    <circle cx="175" cy="231" r="2"/>
  </g>
  <g stroke="chocolate" stroke-width="1">
    <line x1="193" y1="231" x2="182" y2="231"/>
    <circle cx="193" cy="231" r="2"/>
    <circle cx="182" cy="231" r="2"/>
  </g>
  <g stroke="chocolate" stroke-width="1">
    <line x1="182" y1="231" x2="185" y2="228"/>
    <circle cx="182" cy="231" r="2"/>
    <circle cx="185" cy="228" r="2"/>
  </g>
  <g stroke="chocolate" stroke-width="1">
    <line x1="170" y1="243" x2="182" y2="231"/>
    <circle cx="170" cy="243" r="2"/>
    <circle cx="182" cy="231" r="2"/>
  </g>
  <g stroke="chocolate" stroke-width="1">
    <line x1="219" y1="218" x2="230" y2="215"/>
    <circle cx="219" cy="218" r="2"/>
    <circle cx="230" cy="215" r="2"/>
  </g>
  <g stroke="chocolate" stroke-width="1">
    <line x1="219" y1="218" x2="214" y2="198"/>
    <circle cx="219" cy="218" r="2"/>
    <circle cx="214" cy="198" r="2"/>
  </g>
  <g stroke="chocolate" stroke-width="1">
    <line x1="222" y1="232" x2="219" y2="218"/>
    <circle cx="222" cy="232" r="2"/>
    <circle cx="219" cy="218" r="2"/>
  </g>
  <g stroke="chocolate" stroke-width="1">
    <line x1="229" y1="232" x2="230" y2="215"/>
    <circle cx="229" cy="232" r="2"/>
    <circle cx="230" cy="215" r="2"/>
  </g>
  <g stroke="chocolate" stroke-width="1">
    <line x1="229" y1="232" x2="229" y2="232"/>
    <circle cx="229" cy="232" r="2"/>
    <circle cx="229" cy="232" r="2"/>
  </g>
  <g stroke="chocolate" stroke-width="1">
    <line x1="229" y1="232" x2="222" y2="232"/>
    <circle cx="229" cy="232" r="2"/>
    <circle cx="222" cy="232" r="2"/>
  </g>
  <g stroke="chocolate" stroke-width="1">
    <line x1="230" y1="232" x2="229" y2="232"/>
    <circle cx="230" cy="232" r="2"/>
    <circle cx="229" cy="232" r="2"/>
  </g>
  <g stroke="chocolate" stroke-width="1">
    <line x1="317" y1="233" x2="296" y2="205"/>
    <circle cx="317" cy="233" r="2"/>
    <circle cx="296" cy="205" r="2"/>
  </g>
  <g stroke="chocolate" stroke-width="1">
    <line x1="330" y1="250" x2="317" y2="233"/>
    <circle cx="330" cy="250" r="2"/>
    <circle cx="317" cy="233" r="2"/>
  </g>
  <g stroke="chocolate" stroke-width="1">
    <line x1="317" y1="233" x2="230" y2="232"/>
    <circle cx="317" cy="233" r="2"/>
    <circle cx="230" cy="232" r="2"/>
  </g>
  <g stroke="chocolate" stroke-width="1">
    <line x1="339" y1="233" x2="317" y2="233"/>
    <circle cx="339" cy="233" r="2"/>
    <circle cx="317" cy="233" r="2"/>
  </g>
  <g stroke="chocolate" stroke-width="1">
    <line x1="222" y1="232" x2="193" y2="231"/>
    <circle cx="222" cy="232" r="2"/>
    <circle cx="193" cy="231" r="2"/>
  </g>
  <g stroke="chocolate" stroke-width="1">
    <line x1="189" y1="248" x2="193" y2="231"/>
    <circle cx="189" cy="248" r="2"/>
    <circle cx="193" cy="231" r="2"/>
  </g>
  <g stroke="chocolate" stroke-width="1">
    <line x1="302" y1="194" x2="277" y2="180"/>
    <circle cx="302" cy="194" r="2"/>
    <circle cx="277" cy="180" r="2"/>
  </g>
  <g stroke="chocolate" stroke-width="1">
    <line x1="302" y1="194" x2="370" y2="174"/>
    <circle cx="302" cy="194" r="2"/>
    <circle cx="370" cy="174" r="2"/>
  </g>
  <g stroke="chocolate" stroke-width="1">
    <line x1="291" y1="197" x2="302" y2="194"/>
    <circle cx="291" cy="197" r="2"/>
    <circle cx="302" cy="194" r="2"/>
  </g>
  <g stroke="chocolate" stroke-width="1">
    <line x1="230" y1="232" x2="296" y2="205"/>
    <circle cx="230" cy="232" r="2"/>
    <circle cx="296" cy="205" r="2"/>
  </g>
  <g stroke="chocolate" stroke-width="1">
    <line x1="296" y1="205" x2="291" y2="197"/>
    <circle cx="296" cy="205" r="2"/>
    <circle cx="291" cy="197" r="2"/>
  </g>
  <g stroke="chocolate" stroke-width="1">
    <line x1="174" y1="231" x2="145" y2="231"/>
    <circle cx="174" cy="231" r="2"/>
    <circle cx="145" cy="231" r="2"/>
  </g>
  <g stroke="chocolate" stroke-width="1">
    <line x1="175" y1="231" x2="174" y2="231"/>
    <circle cx="175" cy="231" r="2"/>
    <circle cx="174" cy="231" r="2"/>
  </g>
  <g stroke="chocolate" stroke-width="1">
    <line x1="174" y1="231" x2="175" y2="231"/>
    <circle cx="174" cy="231" r="2"/>
    <circle cx="175" cy="231" r="2"/>
  </g>
  <g stroke="chocolate" stroke-width="1">
    <line x1="149" y1="238" x2="174" y2="231"/>
    <circle cx="149" cy="238" r="2"/>
    <circle cx="174" cy="231" r="2"/>
  </g>
  <g stroke="chocolate" stroke-width="1">
    <line x1="175" y1="231" x2="185" y2="228"/>
    <circle cx="175" cy="231" r="2"/>
    <circle cx="185" cy="228" r="2"/>
  </g>
  <g stroke="chocolate" stroke-width="1">
    <line x1="185" y1="228" x2="197" y2="216"/>
    <circle cx="185" cy="228" r="2"/>
    <circle cx="197" cy="216" r="2"/>
  </g>
  <g stroke="chocolate" stroke-width="1">
    <line x1="159" y1="255" x2="149" y2="238"/>
    <circle cx="159" cy="255" r="2"/>
    <circle cx="149" cy="238" r="2"/>
  </g>
  <g stroke="chocolate" stroke-width="1">
    <line x1="163" y1="263" x2="159" y2="255"/>
    <circle cx="163" cy="263" r="2"/>
    <circle cx="159" cy="255" r="2"/>
  </g>
  <g stroke="chocolate" stroke-width="1">
    <line x1="159" y1="255" x2="170" y2="243"/>
    <circle cx="159" cy="255" r="2"/>
    <circle cx="170" cy="243" r="2"/>
  </g>
  <g stroke="chocolate" stroke-width="1">
    <line x1="151" y1="263" x2="159" y2="255"/>
    <circle cx="151" cy="263" r="2"/>
    <circle cx="159" cy="255" r="2"/>
  </g>
  <g stroke="chocolate" stroke-width="1">
    <line x1="175" y1="231" x2="175" y2="231"/>
    <circle cx="175" cy="231" r="2"/>
    <circle cx="175" cy="231" r="2"/>
  </g>
  <g stroke="chocolate" stroke-width="1">
    <line x1="170" y1="243" x2="175" y2="231"/>
    <circle cx="170" cy="243" r="2"/>
    <circle cx="175" cy="231" r="2"/>
  </g>
  <g stroke="chocolate" stroke-width="1">
    <line x1="222" y1="235" x2="229" y2="232"/>
    <circle cx="222" cy="235" r="2"/>
    <circle cx="229" cy="232" r="2"/>
  </g>
  <g stroke="chocolate" stroke-width="1">
    <line x1="189" y1="248" x2="222" y2="235"/>
    <circle cx="189" cy="248" r="2"/>
    <circle cx="222" cy="235" r="2"/>
  </g>
  <g stroke="chocolate" stroke-width="1">
    <line x1="222" y1="235" x2="222" y2="232"/>
    <circle cx="222" cy="235" r="2"/>
    <circle cx="222" cy="232" r="2"/>
  </g>
  <g stroke="chocolate" stroke-width="1">
    <line x1="228" y1="258" x2="222" y2="235"/>
    <circle cx="228" cy="258" r="2"/>
    <circle cx="222" cy="235" r="2"/>
  </g>
  <g stroke="chocolate" stroke-width="1">
    <line x1="214" y1="198" x2="208" y2="168"/>
    <circle cx="214" cy="198" r="2"/>
    <circle cx="208" cy="168" r="2"/>
  </g>
  <g stroke="chocolate" stroke-width="1">
    <line x1="214" y1="198" x2="233" y2="179"/>
    <circle cx="214" cy="198" r="2"/>
    <circle cx="233" cy="179" r="2"/>
  </g>
  <g stroke="chocolate" stroke-width="1">
    <line x1="197" y1="216" x2="214" y2="198"/>
    <circle cx="197" cy="216" r="2"/>
    <circle cx="214" cy="198" r="2"/>
  </g>
  <g stroke="chocolate" stroke-width="1">
    <line x1="230" y1="215" x2="291" y2="197"/>
    <circle cx="230" cy="215" r="2"/>
    <circle cx="291" cy="197" r="2"/>
  </g>
  <g stroke="chocolate" stroke-width="1">
    <line x1="230" y1="215" x2="233" y2="179"/>
    <circle cx="230" cy="215" r="2"/>
    <circle cx="233" cy="179" r="2"/>
  </g>
  <g stroke="chocolate" stroke-width="1">
    <line x1="229" y1="232" x2="230" y2="232"/>
    <circle cx="229" cy="232" r="2"/>
    <circle cx="230" cy="232" r="2"/>
  </g>
  <g stroke="chocolate" stroke-width="1">
    <line x1="186" y1="261" x2="189" y2="248"/>
    <circle cx="186" cy="261" r="2"/>
    <circle cx="189" cy="248" r="2"/>
  </g>
  <g stroke="chocolate" stroke-width="1">
    <line x1="182" y1="251" x2="189" y2="248"/>
    <circle cx="182" cy="251" r="2"/>
    <circle cx="189" cy="248" r="2"/>
  </g>
  <g stroke="chocolate" stroke-width="1">
    <line x1="370" y1="233" x2="346" y2="219"/>
    <circle cx="370" cy="233" r="2"/>
    <circle cx="346" cy="219" r="2"/>
  </g>
  <g stroke="chocolate" stroke-width="1">
    <line x1="391" y1="245" x2="370" y2="233"/>
    <circle cx="391" cy="245" r="2"/>
    <circle cx="370" cy="233" r="2"/>
  </g>
  <g stroke="chocolate" stroke-width="1">
    <line x1="370" y1="233" x2="339" y2="233"/>
    <circle cx="370" cy="233" r="2"/>
    <circle cx="339" cy="233" r="2"/>
  </g>
  <g stroke="chocolate" stroke-width="1">
    <line x1="406" y1="234" x2="370" y2="233"/>
    <circle cx="406" cy="234" r="2"/>
    <circle cx="370" cy="233" r="2"/>
  </g>
  <g stroke="chocolate" stroke-width="1">
    <line x1="346" y1="219" x2="369" y2="176"/>
    <circle cx="346" cy="219" r="2"/>
    <circle cx="369" cy="176" r="2"/>
  </g>
  <g stroke="chocolate" stroke-width="1">
    <line x1="339" y1="233" x2="346" y2="219"/>
    <circle cx="339" cy="233" r="2"/>
    <circle cx="346" cy="219" r="2"/>
  </g>
  <g stroke="chocolate" stroke-width="1">
    <line x1="291" y1="197" x2="277" y2="180"/>
    <circle cx="291" cy="197" r="2"/>
    <circle cx="277" cy="180" r="2"/>
  </g>
  <g stroke="chocolate" stroke-width="1">
    <line x1="377" y1="161" x2="379" y2="156"/>
    <circle cx="377" cy="161" r="2"/>
    <circle cx="379" cy="156" r="2"/>
  </g>
  <g stroke="chocolate" stroke-width="1">
    <line x1="370" y1="174" x2="377" y2="161"/>
    <circle cx="370" cy="174" r="2"/>
    <circle cx="377" cy="161" r="2"/>
  </g>
  <g stroke="chocolate" stroke-width="1">
    <line x1="377" y1="161" x2="258" y2="153"/>
    <circle cx="377" cy="161" r="2"/>
    <circle cx="258" cy="153" r="2"/>
  </g>
  <g stroke="chocolate" stroke-width="1">
    <line x1="381" y1="161" x2="377" y2="161"/>
    <circle cx="381" cy="161" r="2"/>
    <circle cx="377" cy="161" r="2"/>
  </g>
  <g stroke="chocolate" stroke-width="1">
    <line x1="149" y1="238" x2="145" y2="231"/>
    <circle cx="149" cy="238" r="2"/>
    <circle cx="145" cy="231" r="2"/>
  </g>
  <g stroke="chocolate" stroke-width="1">
    <line x1="126" y1="245" x2="149" y2="238"/>
    <circle cx="126" cy="245" r="2"/>
    <circle cx="149" cy="238" r="2"/>
  </g>
  <g stroke="chocolate" stroke-width="1">
    <line x1="163" y1="263" x2="170" y2="243"/>
    <circle cx="163" cy="263" r="2"/>
    <circle cx="170" cy="243" r="2"/>
  </g>
  <g stroke="chocolate" stroke-width="1">
    <line x1="204" y1="153" x2="223" y2="103"/>
    <circle cx="204" cy="153" r="2"/>
    <circle cx="223" cy="103" r="2"/>
  </g>
  <g stroke="chocolate" stroke-width="1">
    <line x1="175" y1="231" x2="204" y2="153"/>
    <circle cx="175" cy="231" r="2"/>
    <circle cx="204" cy="153" r="2"/>
  </g>
  <g stroke="chocolate" stroke-width="1">
    <line x1="204" y1="153" x2="186" y2="70"/>
    <circle cx="204" cy="153" r="2"/>
    <circle cx="186" cy="70" r="2"/>
  </g>
  <g stroke="chocolate" stroke-width="1">
    <line x1="208" y1="168" x2="204" y2="153"/>
    <circle cx="208" cy="168" r="2"/>
    <circle cx="204" cy="153" r="2"/>
  </g>
  <g stroke="chocolate" stroke-width="1">
    <line x1="248" y1="163" x2="234" y2="155"/>
    <circle cx="248" cy="163" r="2"/>
    <circle cx="234" cy="155" r="2"/>
  </g>
  <g stroke="chocolate" stroke-width="1">
    <line x1="277" y1="180" x2="248" y2="163"/>
    <circle cx="277" cy="180" r="2"/>
    <circle cx="248" cy="163" r="2"/>
  </g>
  <g stroke="chocolate" stroke-width="1">
    <line x1="248" y1="163" x2="258" y2="153"/>
    <circle cx="248" cy="163" r="2"/>
    <circle cx="258" cy="153" r="2"/>
  </g>
  <g stroke="chocolate" stroke-width="1">
    <line x1="233" y1="179" x2="248" y2="163"/>
    <circle cx="233" cy="179" r="2"/>
    <circle cx="248" cy="163" r="2"/>
  </g>
  <g stroke="chocolate" stroke-width="1">
    <line x1="197" y1="216" x2="208" y2="168"/>
    <circle cx="197" cy="216" r="2"/>
    <circle cx="208" cy="168" r="2"/>
  </g>
  <g stroke="chocolate" stroke-width="1">
    <line x1="234" y1="155" x2="216" y2="144"/>
    <circle cx="234" cy="155" r="2"/>
    <circle cx="216" cy="144" r="2"/>
  </g>
  <g stroke="chocolate" stroke-width="1">
    <line x1="234" y1="155" x2="238" y2="107"/>
    <circle cx="234" cy="155" r="2"/>
    <circle cx="238" cy="107" r="2"/>
  </g>
  <g stroke="chocolate" stroke-width="1">
    <line x1="233" y1="179" x2="234" y2="155"/>
    <circle cx="233" cy="179" r="2"/>
    <circle cx="234" cy="155" r="2"/>
  </g>
  <g stroke="chocolate" stroke-width="1">
    <line x1="228" y1="258" x2="229" y2="232"/>
    <circle cx="228" cy="258" r="2"/>
    <circle cx="229" cy="232" r="2"/>
  </g>
  <g stroke="chocolate" stroke-width="1">
    <line x1="370" y1="174" x2="384" y2="170"/>
    <circle cx="370" cy="174" r="2"/>
    <circle cx="384" cy="170" r="2"/>
  </g>
  <g stroke="chocolate" stroke-width="1">
    <line x1="369" y1="176" x2="370" y2="174"/>
    <circle cx="369" cy="176" r="2"/>
    <circle cx="370" cy="174" r="2"/>
  </g>
  <g stroke="chocolate" stroke-width="1">
    <line x1="330" y1="250" x2="339" y2="233"/>
    <circle cx="330" cy="250" r="2"/>
    <circle cx="339" cy="233" r="2"/>
  </g>
  <g stroke="chocolate" stroke-width="1">
    <line x1="339" y1="138" x2="223" y2="103"/>
    <circle cx="339" cy="138" r="2"/>
    <circle cx="223" cy="103" r="2"/>
  </g>
  <g stroke="chocolate" stroke-width="1">
    <line x1="424" y1="164" x2="339" y2="138"/>
    <circle cx="424" cy="164" r="2"/>
    <circle cx="339" cy="138" r="2"/>
  </g>
  <g stroke="chocolate" stroke-width="1">
    <line x1="339" y1="138" x2="186" y2="70"/>
    <circle cx="339" cy="138" r="2"/>
    <circle cx="186" cy="70" r="2"/>
  </g>
  <g stroke="chocolate" stroke-width="1">
    <line x1="379" y1="156" x2="339" y2="138"/>
    <circle cx="379" cy="156" r="2"/>
    <circle cx="339" cy="138" r="2"/>
  </g>
  <g stroke="chocolate" stroke-width="1">
    <line x1="277" y1="180" x2="258" y2="153"/>
    <circle cx="277" cy="180" r="2"/>
    <circle cx="258" cy="153" r="2"/>
  </g>
  <g stroke="chocolate" stroke-width="1">
    <line x1="424" y1="164" x2="381" y2="161"/>
    <circle cx="424" cy="164" r="2"/>
    <circle cx="381" cy="161" r="2"/>
  </g>
  <g stroke="chocolate" stroke-width="1">
    <line x1="381" y1="161" x2="379" y2="156"/>
    <circle cx="381" cy="161" r="2"/>
    <circle cx="379" cy="156" r="2"/>
  </g>
  <g stroke="chocolate" stroke-width="1">
    <line x1="409" y1="244" x2="381" y2="161"/>
    <circle cx="409" cy="244" r="2"/>
    <circle cx="381" cy="161" r="2"/>
  </g>
  <g stroke="chocolate" stroke-width="1">
    <line x1="145" y1="231" x2="126" y2="231"/>
    <circle cx="145" cy="231" r="2"/>
    <circle cx="126" cy="231" r="2"/>
  </g>
  <g stroke="chocolate" stroke-width="1">
    <line x1="145" y1="231" x2="86" y2="126"/>
    <circle cx="145" cy="231" r="2"/>
    <circle cx="86" cy="126" r="2"/>
  </g>
  <g stroke="chocolate" stroke-width="1">
    <line x1="208" y1="168" x2="223" y2="103"/>
    <circle cx="208" cy="168" r="2"/>
    <circle cx="223" cy="103" r="2"/>
  </g>
  <g stroke="chocolate" stroke-width="1">
    <line x1="369" y1="176" x2="384" y2="170"/>
    <circle cx="369" cy="176" r="2"/>
    <circle cx="384" cy="170" r="2"/>
  </g>
  <g stroke="chocolate" stroke-width="1">
    <line x1="86" y1="126" x2="186" y2="70"/>
    <circle cx="86" cy="126" r="2"/>
    <circle cx="186" cy="70" r="2"/>
  </g>
  <g stroke="chocolate" stroke-width="1">
    <line x1="151" y1="263" x2="409" y2="244"/>
    <circle cx="151" cy="263" r="2"/>
    <circle cx="409" cy="244" r="2"/>
  </g>
  <g stroke="chocolate" stroke-width="1">
    <line x1="151" y1="263" x2="126" y2="245"/>
    <circle cx="151" cy="263" r="2"/>
    <circle cx="126" cy="245" r="2"/>
  </g>
  <g stroke="chocolate" stroke-width="1">
    <line x1="216" y1="144" x2="238" y2="107"/>
    <circle cx="216" cy="144" r="2"/>
    <circle cx="238" cy="107" r="2"/>
  </g>
  <g stroke="chocolate" stroke-width="1">
    <line x1="186" y1="261" x2="182" y2="251"/>
    <circle cx="186" cy="261" r="2"/>
    <circle cx="182" cy="251" r="2"/>
  </g>
  <g stroke="chocolate" stroke-width="1">
    <line x1="391" y1="245" x2="406" y2="234"/>
    <circle cx="391" cy="245" r="2"/>
    <circle cx="406" cy="234" r="2"/>
  </g>
  <g stroke="chocolate" stroke-width="1">
    <line x1="126" y1="245" x2="126" y2="231"/>
    <circle cx="126" cy="245" r="2"/>
    <circle cx="126" cy="231" r="2"/>
  </g>
  <g stroke="chocolate" stroke-width="1">
    <line x1="409" y1="244" x2="424" y2="164"/>
    <circle cx="409" cy="244" r="2"/>
    <circle cx="424" cy="164" r="2"/>
  </g>
  <g stroke="black" stroke-width="1">
    <line x1="5" y1="5" x2="505" y2="5"/>
    <line x1="5" y1="5" x2="5" y2="505"/>
    <line x1="505" y1="505" x2="5" y2="505"/>
    <line x1="505" y1="505" x2="505" y2="5"/>
    <line x1="105" y1="2" x2="105" y2="8"/>
    <line x1="2" y1="105" x2="8" y2="105"/>
    <line x1="105" y1="502" x2="105" y2="508"/>
    <line x1="502" y1="105" x2="508" y2="105"/>
    <line x1="205" y1="2" x2="205" y2="8"/>
    <line x1="2" y1="205" x2="8" y2="205"/>
    <line x1="205" y1="502" x2="205" y2="508"/>
    <line x1="502" y1="205" x2="508" y2="205"/>
    <line x1="305" y1="2" x2="305" y2="8"/>
    <line x1="2" y1="305" x2="8" y2="305"/>
    <line x1="305" y1="502" x2="305" y2="508"/>
    <line x1="502" y1="305" x2="508" y2="305"/>
    <line x1="405" y1="2" x2="405" y2="8"/>
    <line x1="2" y1="405" x2="8" y2="405"/>
    <line x1="405" y1="502" x2="405" y2="508"/>
    <line x1="502" y1="405" x2="508" y2="405"/>
  </g>
  <g stroke="gray" stroke-width="1" stroke-dasharray="5,5">
    <line x1="105" y1="5" x2="105" y2="505"/>
    <line x1="5" y1="105" x2="505" y2="105"/>
    <line x1="205" y1="5" x2="205" y2="505"/>
    <line x1="5" y1="205" x2="505" y2="205"/>
    <line x1="305" y1="5" x2="305" y2="505"/>
    <line x1="5" y1="305" x2="505" y2="305"/>
    <line x1="405" y1="5" x2="405" y2="505"/>
    <line x1="5" y1="405" x2="505" y2="405"/>
  </g>
</svg>
