<?xml version="1.0" standalone="no"?>
<!DOCTYPE svg PUBLIC "-//W3C//DTD SVG 1.1//EN" 
  "http://www.w3.org/Graphics/SVG/1.1/DTD/svg11.dtd">
<svg width="510" height="510" version="1.1" id="toplevel"
    xmlns="http://www.w3.org/2000/svg"
    xmlns:xlink="http://www.w3.org/1999/xlink">
  <polygon points="68,489 305,477 491,373 352,125 380,106 379,78 411,26 409,21 390,29 378,30 202,230 117,394 42,362 19,415"
           fill="bisque"/>
  <g stroke="chocolate" stroke-width="1">
    <line x1="348" y1="128" x2="350" y2="125"/>
    <circle cx="348" cy="128" r="2"/>
    <circle cx="350" cy="125" r="2"/>
  </g>
  <g stroke="chocolate" stroke-width="1">
    <line x1="316" y1="180" x2="348" y2="128"/>
    <circle cx="316" cy="180" r="2"/>
    <circle cx="348" cy="128" r="2"/>
  </g>
  <g stroke="chocolate" stroke-width="1">
    <line x1="348" y1="128" x2="352" y2="125"/>
    <circle cx="348" cy="128" r="2"/>
    <circle cx="352" cy="125" r="2"/>
  </g>
  <g stroke="chocolate" stroke-width="1">
    <line x1="310" y1="155" x2="348" y2="128"/>
    <circle cx="310" cy="155" r="2"/>
    <circle cx="348" cy="128" r="2"/>
  </g>
  <g stroke="chocolate" stroke-width="1">
    <line x1="168" y1="417" x2="316" y2="180"/>
    <circle cx="168" cy="417" r="2"/>
    <circle cx="316" cy="180" r="2"/>
  </g>
  <g stroke="chocolate" stroke-width="1">
    <line x1="128" y1="482" x2="168" y2="417"/>
    <circle cx="128" cy="482" r="2"/>
    <circle cx="168" cy="417" r="2"/>
  </g>
  <g stroke="chocolate" stroke-width="1">
    <line x1="168" y1="417" x2="117" y2="394"/>
    <circle cx="168" cy="417" r="2"/>
    <circle cx="117" cy="394" r="2"/>
  </g>
  <g stroke="chocolate" stroke-width="1">
    <line x1="257" y1="456" x2="168" y2="417"/>
    <circle cx="257" cy="456" r="2"/>
    <circle cx="168" cy="417" r="2"/>
  </g>
  <g stroke="chocolate" stroke-width="1">
    <line x1="366" y1="100" x2="379" y2="78"/>
    <circle cx="366" cy="100" r="2"/>
    <circle cx="379" cy="78" r="2"/>
  </g>
  <g stroke="chocolate" stroke-width="1">
    <line x1="354" y1="118" x2="366" y2="100"/>
    <circle cx="354" cy="118" r="2"/>
    <circle cx="366" cy="100" r="2"/>
  </g>
  <g stroke="chocolate" stroke-width="1">
    <line x1="366" y1="100" x2="359" y2="97"/>
    <circle cx="366" cy="100" r="2"/>
    <circle cx="359" cy="97" r="2"/>
  </g>
  <g stroke="chocolate" stroke-width="1">
    <line x1="380" y1="106" x2="366" y2="100"/>
    <circle cx="380" cy="106" r="2"/>
    <circle cx="366" cy="100" r="2"/>
  </g>
  <g stroke="chocolate" stroke-width="1">
    <line x1="350" y1="125" x2="351" y2="124"/>
    <circle cx="350" cy="125" r="2"/>
    <circle cx="351" cy="124" r="2"/>
  </g>
  <g stroke="chocolate" stroke-width="1">
    <line x1="350" y1="125" x2="300" y2="118"/>
    <circle cx="350" cy="125" r="2"/>
    <circle cx="300" cy="118" r="2"/>
  </g>
  <g stroke="chocolate" stroke-width="1">
    <line x1="351" y1="125" x2="350" y2="125"/>
    <circle cx="351" cy="125" r="2"/>
    <circle cx="350" cy="125" r="2"/>
  </g>
  <g stroke="chocolate" stroke-width="1">
    <line x1="351" y1="124" x2="354" y2="118"/>
    <circle cx="351" cy="124" r="2"/>
    <circle cx="354" cy="118" r="2"/>
  </g>
  <g stroke="chocolate" stroke-width="1">
    <line x1="351" y1="124" x2="329" y2="85"/>
    <circle cx="351" cy="124" r="2"/>
    <circle cx="329" cy="85" r="2"/>
  </g>
  <g stroke="chocolate" stroke-width="1">
    <line x1="351" y1="125" x2="351" y2="124"/>
    <circle cx="351" cy="125" r="2"/>
    <circle cx="351" cy="124" r="2"/>
  </g>
  <g stroke="chocolate" stroke-width="1">
    <line x1="352" y1="125" x2="351" y2="125"/>
    <circle cx="352" cy="125" r="2"/>
    <circle cx="351" cy="125" r="2"/>
  </g>
  <g stroke="chocolate" stroke-width="1">
    <line x1="491" y1="373" x2="352" y2="125"/>
    <circle cx="491" cy="373" r="2"/>
    <circle cx="352" cy="125" r="2"/>
  </g>
  <g stroke="chocolate" stroke-width="1">
    <line x1="352" y1="125" x2="380" y2="106"/>
    <circle cx="352" cy="125" r="2"/>
    <circle cx="380" cy="106" r="2"/>
  </g>
  <g stroke="chocolate" stroke-width="1">
    <line x1="316" y1="180" x2="310" y2="155"/>
    <circle cx="316" cy="180" r="2"/>
    <circle cx="310" cy="155" r="2"/>
  </g>
  <g stroke="chocolate" stroke-width="1">
    <line x1="380" y1="424" x2="316" y2="180"/>
    <circle cx="380" cy="424" r="2"/>
    <circle cx="316" cy="180" r="2"/>
  </g>
  <g stroke="chocolate" stroke-width="1">
    <line x1="122" y1="481" x2="75" y2="474"/>
    <circle cx="122" cy="481" r="2"/>
    <circle cx="75" cy="474" r="2"/>
  </g>
  <g stroke="chocolate" stroke-width="1">
    <line x1="128" y1="482" x2="122" y2="481"/>
    <circle cx="128" cy="482" r="2"/>
    <circle cx="122" cy="481" r="2"/>
  </g>
  <g stroke="chocolate" stroke-width="1">
    <line x1="122" y1="481" x2="92" y2="442"/>
    <circle cx="122" cy="481" r="2"/>
    <circle cx="92" cy="442" r="2"/>
  </g>
  <g stroke="chocolate" stroke-width="1">
    <line x1="126" y1="486" x2="122" y2="481"/>
    <circle cx="126" cy="486" r="2"/>
    <circle cx="122" cy="481" r="2"/>
  </g>
  <g stroke="chocolate" stroke-width="1">
    <line x1="117" y1="394" x2="42" y2="362"/>
    <circle cx="117" cy="394" r="2"/>
    <circle cx="42" cy="362" r="2"/>
  </g>
  <g stroke="chocolate" stroke-width="1">
    <line x1="117" y1="394" x2="202" y2="230"/>
    <circle cx="117" cy="394" r="2"/>
    <circle cx="202" cy="230" r="2"/>
  </g>
  <g stroke="chocolate" stroke-width="1">
    <line x1="92" y1="442" x2="117" y2="394"/>
    <circle cx="92" cy="442" r="2"/>
    <circle cx="117" cy="394" r="2"/>
  </g>
  <g stroke="chocolate" stroke-width="1">
    <line x1="75" y1="474" x2="56" y2="471"/>
    <circle cx="75" cy="474" r="2"/>
    <circle cx="56" cy="471" r="2"/>
  </g>
  <g stroke="chocolate" stroke-width="1">
    <line x1="75" y1="474" x2="92" y2="442"/>
    <circle cx="75" cy="474" r="2"/>
    <circle cx="92" cy="442" r="2"/>
  </g>
  <g stroke="chocolate" stroke-width="1">
    <line x1="68" y1="489" x2="75" y2="474"/>
    <circle cx="68" cy="489" r="2"/>
    <circle cx="75" cy="474" r="2"/>
  </g>
  <g stroke="chocolate" stroke-width="1">
    <line x1="379" y1="78" x2="378" y2="33"/>
    <circle cx="379" cy="78" r="2"/>
    <circle cx="378" cy="33" r="2"/>
  </g>
  <g stroke="chocolate" stroke-width="1">
    <line x1="380" y1="106" x2="379" y2="78"/>
    <circle cx="380" cy="106" r="2"/>
    <circle cx="379" cy="78" r="2"/>
  </g>
  <g stroke="chocolate" stroke-width="1">
    <line x1="379" y1="78" x2="411" y2="26"/>
    <circle cx="379" cy="78" r="2"/>
    <circle cx="411" cy="26" r="2"/>
  </g>
  <g stroke="chocolate" stroke-width="1">
    <line x1="359" y1="97" x2="374" y2="35"/>
    <circle cx="359" cy="97" r="2"/>
    <circle cx="374" cy="35" r="2"/>
  </g>
  <g stroke="chocolate" stroke-width="1">
    <line x1="354" y1="118" x2="359" y2="97"/>
    <circle cx="354" cy="118" r="2"/>
    <circle cx="359" cy="97" r="2"/>
  </g>
  <g stroke="chocolate" stroke-width="1">
    <line x1="359" y1="97" x2="329" y2="85"/>
    <circle cx="359" cy="97" r="2"/>
    <circle cx="329" cy="85" r="2"/>
  </g>
  <g stroke="chocolate" stroke-width="1">
    <line x1="390" y1="29" x2="409" y2="21"/>
    <circle cx="390" cy="29" r="2"/>
    <circle cx="409" cy="21" r="2"/>
  </g>
  <g stroke="chocolate" stroke-width="1">
    <line x1="378" y1="33" x2="390" y2="29"/>
    <circle cx="378" cy="33" r="2"/>
    <circle cx="390" cy="29" r="2"/>
  </g>
  <g stroke="chocolate" stroke-width="1">
    <line x1="390" y1="29" x2="411" y2="26"/>
    <circle cx="390" cy="29" r="2"/>
    <circle cx="411" cy="26" r="2"/>
  </g>
  <g stroke="chocolate" stroke-width="1">
    <line x1="378" y1="30" x2="390" y2="29"/>
    <circle cx="378" cy="30" r="2"/>
    <circle cx="390" cy="29" r="2"/>
  </g>
  <g stroke="chocolate" stroke-width="1">
    <line x1="126" y1="486" x2="128" y2="482"/>
    <circle cx="126" cy="486" r="2"/>
    <circle cx="128" cy="482" r="2"/>
  </g>
  <g stroke="chocolate" stroke-width="1">
    <line x1="146" y1="485" x2="128" y2="482"/>
    <circle cx="146" cy="485" r="2"/>
    <circle cx="128" cy="482" r="2"/>
  </g>
  <g stroke="chocolate" stroke-width="1">
    <line x1="305" y1="477" x2="257" y2="456"/>
    <circle cx="305" cy="477" r="2"/>
    <circle cx="257" cy="456" r="2"/>
  </g>
  <g stroke="chocolate" stroke-width="1">
    <line x1="257" y1="456" x2="380" y2="424"/>
    <circle cx="257" cy="456" r="2"/>
    <circle cx="380" cy="424" r="2"/>
  </g>
  <g stroke="chocolate" stroke-width="1">
    <line x1="146" y1="485" x2="257" y2="456"/>
    <circle cx="146" cy="485" r="2"/>
    <circle cx="257" cy="456" r="2"/>
  </g>
  <g stroke="chocolate" stroke-width="1">
    <line x1="353" y1="125" x2="351" y2="125"/>
    <circle cx="353" cy="125" r="2"/>
    <circle cx="351" cy="125" r="2"/>
  </g>
  <g stroke="chocolate" stroke-width="1">
    <line x1="202" y1="230" x2="310" y2="155"/>
    <circle cx="202" cy="230" r="2"/>
    <circle cx="310" cy="155" r="2"/>
  </g>
  <g stroke="chocolate" stroke-width="1">
    <line x1="310" y1="155" x2="300" y2="118"/>
    <circle cx="310" cy="155" r="2"/>
    <circle cx="300" cy="118" r="2"/>
  </g>
  <g stroke="chocolate" stroke-width="1">
    <line x1="92" y1="442" x2="71" y2="415"/>
    <circle cx="92" cy="442" r="2"/>
    <circle cx="71" cy="415" r="2"/>
  </g>
  <g stroke="chocolate" stroke-width="1">
    <line x1="374" y1="35" x2="378" y2="33"/>
    <circle cx="374" cy="35" r="2"/>
    <circle cx="378" cy="33" r="2"/>
  </g>
  <g stroke="chocolate" stroke-width="1">
    <line x1="378" y1="33" x2="378" y2="30"/>
    <circle cx="378" cy="33" r="2"/>
    <circle cx="378" cy="30" r="2"/>
  </g>
  <g stroke="chocolate" stroke-width="1">
    <line x1="353" y1="125" x2="354" y2="118"/>
    <circle cx="353" cy="125" r="2"/>
    <circle cx="354" cy="118" r="2"/>
  </g>
  <g stroke="chocolate" stroke-width="1">
    <line x1="19" y1="415" x2="71" y2="415"/>
    <circle cx="19" cy="415" r="2"/>
    <circle cx="71" cy="415" r="2"/>
  </g>
  <g stroke="chocolate" stroke-width="1">
    <line x1="68" y1="489" x2="305" y2="477"/>
    <circle cx="68" cy="489" r="2"/>
    <circle cx="305" cy="477" r="2"/>
  </g>
  <g stroke="chocolate" stroke-width="1">
    <line x1="411" y1="26" x2="409" y2="21"/>
    <circle cx="411" cy="26" r="2"/>
    <circle cx="409" cy="21" r="2"/>
  </g>
  <g stroke="chocolate" stroke-width="1">
    <line x1="305" y1="477" x2="491" y2="373"/>
    <circle cx="305" cy="477" r="2"/>
    <circle cx="491" cy="373" r="2"/>
  </g>
  <g stroke="chocolate" stroke-width="1">
    <line x1="202" y1="230" x2="378" y2="30"/>
    <circle cx="202" cy="230" r="2"/>
    <circle cx="378" cy="30" r="2"/>
  </g>
  <g stroke="chocolate" stroke-width="1">
    <line x1="68" y1="489" x2="19" y2="415"/>
    <circle cx="68" cy="489" r="2"/>
    <circle cx="19" cy="415" r="2"/>
  </g>
  <g stroke="chocolate" stroke-width="1">
    <line x1="19" y1="415" x2="42" y2="362"/>
    <circle cx="19" cy="415" r="2"/>
    <circle cx="42" cy="362" r="2"/>
  </g>
  <g stroke="chocolate" stroke-width="1">
    <line x1="56" y1="471" x2="71" y2="415"/>
    <circle cx="56" cy="471" r="2"/>
    <circle cx="71" cy="415" r="2"/>
  </g>
  <g stroke="black" stroke-width="1">
    <line x1="5" y1="5" x2="505" y2="5"/>
    <line x1="5" y1="5" x2="5" y2="505"/>
    <line x1="505" y1="505" x2="5" y2="505"/>
    <line x1="505" y1="505" x2="505" y2="5"/>
    <line x1="105" y1="2" x2="105" y2="8"/>
    <line x1="2" y1="105" x2="8" y2="105"/>
    <line x1="105" y1="502" x2="105" y2="508"/>
    <line x1="502" y1="105" x2="508" y2="105"/>
    <line x1="205" y1="2" x2="205" y2="8"/>
    <line x1="2" y1="205" x2="8" y2="205"/>
    <line x1="205" y1="502" x2="205" y2="508"/>
    <line x1="502" y1="205" x2="508" y2="205"/>
    <line x1="305" y1="2" x2="305" y2="8"/>
    <line x1="2" y1="305" x2="8" y2="305"/>
    <line x1="305" y1="502" x2="305" y2="508"/>
    <line x1="502" y1="305" x2="508" y2="305"/>
    <line x1="405" y1="2" x2="405" y2="8"/>
    <line x1="2" y1="405" x2="8" y2="405"/>
    <line x1="405" y1="502" x2="405" y2="508"/>
    <line x1="502" y1="405" x2="508" y2="405"/>
  </g>
  <g stroke="gray" stroke-width="1" stroke-dasharray="5,5">
    <line x1="105" y1="5" x2="105" y2="505"/>
    <line x1="5" y1="105" x2="505" y2="105"/>
    <line x1="205" y1="5" x2="205" y2="505"/>
    <line x1="5" y1="205" x2="505" y2="205"/>
    <line x1="305" y1="5" x2="305" y2="505"/>
    <line x1="5" y1="305" x2="505" y2="305"/>
    <line x1="405" y1="5" x2="405" y2="505"/>
    <line x1="5" y1="405" x2="505" y2="405"/>
  </g>
</svg>
