<?xml version="1.0" standalone="no"?>
<!DOCTYPE svg PUBLIC "-//W3C//DTD SVG 1.1//EN" 
  "http://www.w3.org/Graphics/SVG/1.1/DTD/svg11.dtd">
<svg width="510" height="510" version="1.1" id="toplevel"
    xmlns="http://www.w3.org/2000/svg"
    xmlns:xlink="http://www.w3.org/1999/xlink">
  <polygon points="138,414 184,409 270,265 328,300 346,294 389,123 401,119 394,96 183,113 109,227 122,260"
           fill="bisque"/>
  <g stroke="chocolate" stroke-width="1">
    <line x1="355" y1="135" x2="389" y2="121"/>
    <circle cx="355" cy="135" r="2"/>
    <circle cx="389" cy="121" r="2"/>
  </g>
  <g stroke="chocolate" stroke-width="1">
    <line x1="346" y1="138" x2="355" y2="135"/>
    <circle cx="346" cy="138" r="2"/>
    <circle cx="355" cy="135" r="2"/>
  </g>
  <g stroke="chocolate" stroke-width="1">
    <line x1="355" y1="135" x2="389" y2="123"/>
    <circle cx="355" cy="135" r="2"/>
    <circle cx="389" cy="123" r="2"/>
  </g>
  <g stroke="chocolate" stroke-width="1">
    <line x1="347" y1="137" x2="355" y2="135"/>
    <circle cx="347" cy="137" r="2"/>
    <circle cx="355" cy="135" r="2"/>
  </g>
  <g stroke="chocolate" stroke-width="1">
    <line x1="346" y1="138" x2="347" y2="137"/>
    <circle cx="346" cy="138" r="2"/>
    <circle cx="347" cy="137" r="2"/>
  </g>
  <g stroke="chocolate" stroke-width="1">
    <line x1="321" y1="181" x2="346" y2="138"/>
    <circle cx="321" cy="181" r="2"/>
    <circle cx="346" cy="138" r="2"/>
  </g>
  <g stroke="chocolate" stroke-width="1">
    <line x1="317" y1="150" x2="346" y2="138"/>
    <circle cx="317" cy="150" r="2"/>
    <circle cx="346" cy="138" r="2"/>
  </g>
  <g stroke="chocolate" stroke-width="1">
    <line x1="317" y1="147" x2="347" y2="137"/>
    <circle cx="317" cy="147" r="2"/>
    <circle cx="347" cy="137" r="2"/>
  </g>
  <g stroke="chocolate" stroke-width="1">
    <line x1="347" y1="137" x2="370" y2="98"/>
    <circle cx="347" cy="137" r="2"/>
    <circle cx="370" cy="98" r="2"/>
  </g>
  <g stroke="chocolate" stroke-width="1">
    <line x1="315" y1="150" x2="317" y2="150"/>
    <circle cx="315" cy="150" r="2"/>
    <circle cx="317" cy="150" r="2"/>
  </g>
  <g stroke="chocolate" stroke-width="1">
    <line x1="317" y1="150" x2="317" y2="147"/>
    <circle cx="317" cy="150" r="2"/>
    <circle cx="317" cy="147" r="2"/>
  </g>
  <g stroke="chocolate" stroke-width="1">
    <line x1="321" y1="181" x2="317" y2="150"/>
    <circle cx="321" cy="181" r="2"/>
    <circle cx="317" cy="150" r="2"/>
  </g>
  <g stroke="chocolate" stroke-width="1">
    <line x1="304" y1="209" x2="317" y2="186"/>
    <circle cx="304" cy="209" r="2"/>
    <circle cx="317" cy="186" r="2"/>
  </g>
  <g stroke="chocolate" stroke-width="1">
    <line x1="300" y1="216" x2="304" y2="209"/>
    <circle cx="300" cy="216" r="2"/>
    <circle cx="304" cy="209" r="2"/>
  </g>
  <g stroke="chocolate" stroke-width="1">
    <line x1="304" y1="209" x2="271" y2="198"/>
    <circle cx="304" cy="209" r="2"/>
    <circle cx="271" cy="198" r="2"/>
  </g>
  <g stroke="chocolate" stroke-width="1">
    <line x1="319" y1="213" x2="304" y2="209"/>
    <circle cx="319" cy="213" r="2"/>
    <circle cx="304" cy="209" r="2"/>
  </g>
  <g stroke="chocolate" stroke-width="1">
    <line x1="315" y1="148" x2="313" y2="102"/>
    <circle cx="315" cy="148" r="2"/>
    <circle cx="313" cy="102" r="2"/>
  </g>
  <g stroke="chocolate" stroke-width="1">
    <line x1="315" y1="150" x2="315" y2="148"/>
    <circle cx="315" cy="150" r="2"/>
    <circle cx="315" cy="148" r="2"/>
  </g>
  <g stroke="chocolate" stroke-width="1">
    <line x1="315" y1="148" x2="317" y2="147"/>
    <circle cx="315" cy="148" r="2"/>
    <circle cx="317" cy="147" r="2"/>
  </g>
  <g stroke="chocolate" stroke-width="1">
    <line x1="269" y1="163" x2="315" y2="148"/>
    <circle cx="269" cy="163" r="2"/>
    <circle cx="315" cy="148" r="2"/>
  </g>
  <g stroke="chocolate" stroke-width="1">
    <line x1="269" y1="169" x2="315" y2="150"/>
    <circle cx="269" cy="169" r="2"/>
    <circle cx="315" cy="150" r="2"/>
  </g>
  <g stroke="chocolate" stroke-width="1">
    <line x1="268" y1="169" x2="269" y2="169"/>
    <circle cx="268" cy="169" r="2"/>
    <circle cx="269" cy="169" r="2"/>
  </g>
  <g stroke="chocolate" stroke-width="1">
    <line x1="269" y1="169" x2="269" y2="163"/>
    <circle cx="269" cy="169" r="2"/>
    <circle cx="269" cy="163" r="2"/>
  </g>
  <g stroke="chocolate" stroke-width="1">
    <line x1="271" y1="198" x2="269" y2="169"/>
    <circle cx="271" cy="198" r="2"/>
    <circle cx="269" cy="169" r="2"/>
  </g>
  <g stroke="chocolate" stroke-width="1">
    <line x1="336" y1="277" x2="353" y2="226"/>
    <circle cx="336" cy="277" r="2"/>
    <circle cx="353" cy="226" r="2"/>
  </g>
  <g stroke="chocolate" stroke-width="1">
    <line x1="336" y1="278" x2="336" y2="277"/>
    <circle cx="336" cy="278" r="2"/>
    <circle cx="336" cy="277" r="2"/>
  </g>
  <g stroke="chocolate" stroke-width="1">
    <line x1="336" y1="277" x2="330" y2="275"/>
    <circle cx="336" cy="277" r="2"/>
    <circle cx="330" cy="275" r="2"/>
  </g>
  <g stroke="chocolate" stroke-width="1">
    <line x1="349" y1="281" x2="336" y2="277"/>
    <circle cx="349" cy="281" r="2"/>
    <circle cx="336" cy="277" r="2"/>
  </g>
  <g stroke="chocolate" stroke-width="1">
    <line x1="281" y1="222" x2="296" y2="222"/>
    <circle cx="281" cy="222" r="2"/>
    <circle cx="296" cy="222" r="2"/>
  </g>
  <g stroke="chocolate" stroke-width="1">
    <line x1="274" y1="223" x2="281" y2="222"/>
    <circle cx="274" cy="223" r="2"/>
    <circle cx="281" cy="222" r="2"/>
  </g>
  <g stroke="chocolate" stroke-width="1">
    <line x1="281" y1="222" x2="273" y2="213"/>
    <circle cx="281" cy="222" r="2"/>
    <circle cx="273" cy="213" r="2"/>
  </g>
  <g stroke="chocolate" stroke-width="1">
    <line x1="283" y1="224" x2="281" y2="222"/>
    <circle cx="283" cy="224" r="2"/>
    <circle cx="281" cy="222" r="2"/>
  </g>
  <g stroke="chocolate" stroke-width="1">
    <line x1="290" y1="232" x2="295" y2="223"/>
    <circle cx="290" cy="232" r="2"/>
    <circle cx="295" cy="223" r="2"/>
  </g>
  <g stroke="chocolate" stroke-width="1">
    <line x1="274" y1="258" x2="290" y2="232"/>
    <circle cx="274" cy="258" r="2"/>
    <circle cx="290" cy="232" r="2"/>
  </g>
  <g stroke="chocolate" stroke-width="1">
    <line x1="290" y1="232" x2="283" y2="224"/>
    <circle cx="290" cy="232" r="2"/>
    <circle cx="283" cy="224" r="2"/>
  </g>
  <g stroke="chocolate" stroke-width="1">
    <line x1="328" y1="274" x2="290" y2="232"/>
    <circle cx="328" cy="274" r="2"/>
    <circle cx="290" cy="232" r="2"/>
  </g>
  <g stroke="chocolate" stroke-width="1">
    <line x1="296" y1="222" x2="300" y2="216"/>
    <circle cx="296" cy="222" r="2"/>
    <circle cx="300" cy="216" r="2"/>
  </g>
  <g stroke="chocolate" stroke-width="1">
    <line x1="300" y1="216" x2="273" y2="211"/>
    <circle cx="300" cy="216" r="2"/>
    <circle cx="273" cy="211" r="2"/>
  </g>
  <g stroke="chocolate" stroke-width="1">
    <line x1="319" y1="220" x2="300" y2="216"/>
    <circle cx="319" cy="220" r="2"/>
    <circle cx="300" cy="216" r="2"/>
  </g>
  <g stroke="chocolate" stroke-width="1">
    <line x1="317" y1="186" x2="315" y2="150"/>
    <circle cx="317" cy="186" r="2"/>
    <circle cx="315" cy="150" r="2"/>
  </g>
  <g stroke="chocolate" stroke-width="1">
    <line x1="270" y1="197" x2="255" y2="192"/>
    <circle cx="270" cy="197" r="2"/>
    <circle cx="255" cy="192" r="2"/>
  </g>
  <g stroke="chocolate" stroke-width="1">
    <line x1="271" y1="198" x2="270" y2="197"/>
    <circle cx="271" cy="198" r="2"/>
    <circle cx="270" cy="197" r="2"/>
  </g>
  <g stroke="chocolate" stroke-width="1">
    <line x1="270" y1="197" x2="268" y2="169"/>
    <circle cx="270" cy="197" r="2"/>
    <circle cx="268" cy="169" r="2"/>
  </g>
  <g stroke="chocolate" stroke-width="1">
    <line x1="271" y1="211" x2="270" y2="197"/>
    <circle cx="271" cy="211" r="2"/>
    <circle cx="270" cy="197" r="2"/>
  </g>
  <g stroke="chocolate" stroke-width="1">
    <line x1="389" y1="123" x2="389" y2="122"/>
    <circle cx="389" cy="123" r="2"/>
    <circle cx="389" cy="122" r="2"/>
  </g>
  <g stroke="chocolate" stroke-width="1">
    <line x1="354" y1="225" x2="389" y2="123"/>
    <circle cx="354" cy="225" r="2"/>
    <circle cx="389" cy="123" r="2"/>
  </g>
  <g stroke="chocolate" stroke-width="1">
    <line x1="389" y1="123" x2="389" y2="123"/>
    <circle cx="389" cy="123" r="2"/>
    <circle cx="389" cy="123" r="2"/>
  </g>
  <g stroke="chocolate" stroke-width="1">
    <line x1="317" y1="186" x2="321" y2="181"/>
    <circle cx="317" cy="186" r="2"/>
    <circle cx="321" cy="181" r="2"/>
  </g>
  <g stroke="chocolate" stroke-width="1">
    <line x1="324" y1="215" x2="321" y2="181"/>
    <circle cx="324" cy="215" r="2"/>
    <circle cx="321" cy="181" r="2"/>
  </g>
  <g stroke="chocolate" stroke-width="1">
    <line x1="353" y1="226" x2="354" y2="225"/>
    <circle cx="353" cy="226" r="2"/>
    <circle cx="354" cy="225" r="2"/>
  </g>
  <g stroke="chocolate" stroke-width="1">
    <line x1="353" y1="226" x2="324" y2="221"/>
    <circle cx="353" cy="226" r="2"/>
    <circle cx="324" cy="221" r="2"/>
  </g>
  <g stroke="chocolate" stroke-width="1">
    <line x1="362" y1="228" x2="353" y2="226"/>
    <circle cx="362" cy="228" r="2"/>
    <circle cx="353" cy="226" r="2"/>
  </g>
  <g stroke="chocolate" stroke-width="1">
    <line x1="319" y1="213" x2="317" y2="186"/>
    <circle cx="319" cy="213" r="2"/>
    <circle cx="317" cy="186" r="2"/>
  </g>
  <g stroke="chocolate" stroke-width="1">
    <line x1="319" y1="220" x2="319" y2="213"/>
    <circle cx="319" cy="220" r="2"/>
    <circle cx="319" cy="213" r="2"/>
  </g>
  <g stroke="chocolate" stroke-width="1">
    <line x1="324" y1="215" x2="319" y2="213"/>
    <circle cx="324" cy="215" r="2"/>
    <circle cx="319" cy="213" r="2"/>
  </g>
  <g stroke="chocolate" stroke-width="1">
    <line x1="268" y1="164" x2="269" y2="163"/>
    <circle cx="268" cy="164" r="2"/>
    <circle cx="269" cy="163" r="2"/>
  </g>
  <g stroke="chocolate" stroke-width="1">
    <line x1="269" y1="163" x2="264" y2="106"/>
    <circle cx="269" cy="163" r="2"/>
    <circle cx="264" cy="106" r="2"/>
  </g>
  <g stroke="chocolate" stroke-width="1">
    <line x1="295" y1="223" x2="296" y2="222"/>
    <circle cx="295" cy="223" r="2"/>
    <circle cx="296" cy="222" r="2"/>
  </g>
  <g stroke="chocolate" stroke-width="1">
    <line x1="296" y1="222" x2="319" y2="221"/>
    <circle cx="296" cy="222" r="2"/>
    <circle cx="319" cy="221" r="2"/>
  </g>
  <g stroke="chocolate" stroke-width="1">
    <line x1="330" y1="275" x2="324" y2="221"/>
    <circle cx="330" cy="275" r="2"/>
    <circle cx="324" cy="221" r="2"/>
  </g>
  <g stroke="chocolate" stroke-width="1">
    <line x1="330" y1="277" x2="330" y2="275"/>
    <circle cx="330" cy="277" r="2"/>
    <circle cx="330" cy="275" r="2"/>
  </g>
  <g stroke="chocolate" stroke-width="1">
    <line x1="330" y1="275" x2="328" y2="274"/>
    <circle cx="330" cy="275" r="2"/>
    <circle cx="328" cy="274" r="2"/>
  </g>
  <g stroke="chocolate" stroke-width="1">
    <line x1="274" y1="258" x2="247" y2="250"/>
    <circle cx="274" cy="258" r="2"/>
    <circle cx="247" cy="250" r="2"/>
  </g>
  <g stroke="chocolate" stroke-width="1">
    <line x1="328" y1="274" x2="274" y2="258"/>
    <circle cx="328" cy="274" r="2"/>
    <circle cx="274" cy="258" r="2"/>
  </g>
  <g stroke="chocolate" stroke-width="1">
    <line x1="270" y1="265" x2="274" y2="258"/>
    <circle cx="270" cy="265" r="2"/>
    <circle cx="274" cy="258" r="2"/>
  </g>
  <g stroke="chocolate" stroke-width="1">
    <line x1="255" y1="192" x2="230" y2="184"/>
    <circle cx="255" cy="192" r="2"/>
    <circle cx="230" cy="184" r="2"/>
  </g>
  <g stroke="chocolate" stroke-width="1">
    <line x1="255" y1="192" x2="243" y2="179"/>
    <circle cx="255" cy="192" r="2"/>
    <circle cx="243" cy="179" r="2"/>
  </g>
  <g stroke="chocolate" stroke-width="1">
    <line x1="273" y1="213" x2="255" y2="192"/>
    <circle cx="273" cy="213" r="2"/>
    <circle cx="255" cy="192" r="2"/>
  </g>
  <g stroke="chocolate" stroke-width="1">
    <line x1="205" y1="225" x2="274" y2="223"/>
    <circle cx="205" cy="225" r="2"/>
    <circle cx="274" cy="223" r="2"/>
  </g>
  <g stroke="chocolate" stroke-width="1">
    <line x1="170" y1="226" x2="205" y2="225"/>
    <circle cx="170" cy="226" r="2"/>
    <circle cx="205" cy="225" r="2"/>
  </g>
  <g stroke="chocolate" stroke-width="1">
    <line x1="205" y1="225" x2="176" y2="207"/>
    <circle cx="205" cy="225" r="2"/>
    <circle cx="176" cy="207" r="2"/>
  </g>
  <g stroke="chocolate" stroke-width="1">
    <line x1="247" y1="250" x2="205" y2="225"/>
    <circle cx="247" cy="250" r="2"/>
    <circle cx="205" cy="225" r="2"/>
  </g>
  <g stroke="chocolate" stroke-width="1">
    <line x1="170" y1="226" x2="170" y2="226"/>
    <circle cx="170" cy="226" r="2"/>
    <circle cx="170" cy="226" r="2"/>
  </g>
  <g stroke="chocolate" stroke-width="1">
    <line x1="170" y1="226" x2="176" y2="207"/>
    <circle cx="170" cy="226" r="2"/>
    <circle cx="176" cy="207" r="2"/>
  </g>
  <g stroke="chocolate" stroke-width="1">
    <line x1="170" y1="227" x2="170" y2="226"/>
    <circle cx="170" cy="227" r="2"/>
    <circle cx="170" cy="226" r="2"/>
  </g>
  <g stroke="chocolate" stroke-width="1">
    <line x1="283" y1="224" x2="295" y2="223"/>
    <circle cx="283" cy="224" r="2"/>
    <circle cx="295" cy="223" r="2"/>
  </g>
  <g stroke="chocolate" stroke-width="1">
    <line x1="274" y1="225" x2="283" y2="224"/>
    <circle cx="274" cy="225" r="2"/>
    <circle cx="283" cy="224" r="2"/>
  </g>
  <g stroke="chocolate" stroke-width="1">
    <line x1="389" y1="121" x2="389" y2="121"/>
    <circle cx="389" cy="121" r="2"/>
    <circle cx="389" cy="121" r="2"/>
  </g>
  <g stroke="chocolate" stroke-width="1">
    <line x1="389" y1="121" x2="389" y2="121"/>
    <circle cx="389" cy="121" r="2"/>
    <circle cx="389" cy="121" r="2"/>
  </g>
  <g stroke="chocolate" stroke-width="1">
    <line x1="389" y1="122" x2="389" y2="121"/>
    <circle cx="389" cy="122" r="2"/>
    <circle cx="389" cy="121" r="2"/>
  </g>
  <g stroke="chocolate" stroke-width="1">
    <line x1="273" y1="211" x2="271" y2="198"/>
    <circle cx="273" cy="211" r="2"/>
    <circle cx="271" cy="198" r="2"/>
  </g>
  <g stroke="chocolate" stroke-width="1">
    <line x1="273" y1="213" x2="273" y2="211"/>
    <circle cx="273" cy="213" r="2"/>
    <circle cx="273" cy="211" r="2"/>
  </g>
  <g stroke="chocolate" stroke-width="1">
    <line x1="273" y1="211" x2="271" y2="211"/>
    <circle cx="273" cy="211" r="2"/>
    <circle cx="271" cy="211" r="2"/>
  </g>
  <g stroke="chocolate" stroke-width="1">
    <line x1="334" y1="281" x2="328" y2="274"/>
    <circle cx="334" cy="281" r="2"/>
    <circle cx="328" cy="274" r="2"/>
  </g>
  <g stroke="chocolate" stroke-width="1">
    <line x1="346" y1="294" x2="334" y2="281"/>
    <circle cx="346" cy="294" r="2"/>
    <circle cx="334" cy="281" r="2"/>
  </g>
  <g stroke="chocolate" stroke-width="1">
    <line x1="334" y1="281" x2="336" y2="278"/>
    <circle cx="334" cy="281" r="2"/>
    <circle cx="336" cy="278" r="2"/>
  </g>
  <g stroke="chocolate" stroke-width="1">
    <line x1="328" y1="300" x2="334" y2="281"/>
    <circle cx="328" cy="300" r="2"/>
    <circle cx="334" cy="281" r="2"/>
  </g>
  <g stroke="chocolate" stroke-width="1">
    <line x1="238" y1="174" x2="183" y2="113"/>
    <circle cx="238" cy="174" r="2"/>
    <circle cx="183" cy="113" r="2"/>
  </g>
  <g stroke="chocolate" stroke-width="1">
    <line x1="243" y1="179" x2="238" y2="174"/>
    <circle cx="243" cy="179" r="2"/>
    <circle cx="238" cy="174" r="2"/>
  </g>
  <g stroke="chocolate" stroke-width="1">
    <line x1="238" y1="174" x2="268" y2="164"/>
    <circle cx="238" cy="174" r="2"/>
    <circle cx="268" cy="164" r="2"/>
  </g>
  <g stroke="chocolate" stroke-width="1">
    <line x1="118" y1="214" x2="238" y2="174"/>
    <circle cx="118" cy="214" r="2"/>
    <circle cx="238" cy="174" r="2"/>
  </g>
  <g stroke="chocolate" stroke-width="1">
    <line x1="243" y1="179" x2="268" y2="169"/>
    <circle cx="243" cy="179" r="2"/>
    <circle cx="268" cy="169" r="2"/>
  </g>
  <g stroke="chocolate" stroke-width="1">
    <line x1="268" y1="169" x2="268" y2="164"/>
    <circle cx="268" cy="169" r="2"/>
    <circle cx="268" cy="164" r="2"/>
  </g>
  <g stroke="chocolate" stroke-width="1">
    <line x1="354" y1="225" x2="324" y2="215"/>
    <circle cx="354" cy="225" r="2"/>
    <circle cx="324" cy="215" r="2"/>
  </g>
  <g stroke="chocolate" stroke-width="1">
    <line x1="362" y1="228" x2="354" y2="225"/>
    <circle cx="362" cy="228" r="2"/>
    <circle cx="354" cy="225" r="2"/>
  </g>
  <g stroke="chocolate" stroke-width="1">
    <line x1="317" y1="147" x2="313" y2="102"/>
    <circle cx="317" cy="147" r="2"/>
    <circle cx="313" cy="102" r="2"/>
  </g>
  <g stroke="chocolate" stroke-width="1">
    <line x1="324" y1="221" x2="319" y2="220"/>
    <circle cx="324" cy="221" r="2"/>
    <circle cx="319" cy="220" r="2"/>
  </g>
  <g stroke="chocolate" stroke-width="1">
    <line x1="324" y1="221" x2="324" y2="215"/>
    <circle cx="324" cy="221" r="2"/>
    <circle cx="324" cy="215" r="2"/>
  </g>
  <g stroke="chocolate" stroke-width="1">
    <line x1="274" y1="223" x2="273" y2="213"/>
    <circle cx="274" cy="223" r="2"/>
    <circle cx="273" cy="213" r="2"/>
  </g>
  <g stroke="chocolate" stroke-width="1">
    <line x1="274" y1="225" x2="274" y2="223"/>
    <circle cx="274" cy="225" r="2"/>
    <circle cx="274" cy="223" r="2"/>
  </g>
  <g stroke="chocolate" stroke-width="1">
    <line x1="184" y1="409" x2="270" y2="265"/>
    <circle cx="184" cy="409" r="2"/>
    <circle cx="270" cy="265" r="2"/>
  </g>
  <g stroke="chocolate" stroke-width="1">
    <line x1="270" y1="265" x2="247" y2="250"/>
    <circle cx="270" cy="265" r="2"/>
    <circle cx="247" cy="250" r="2"/>
  </g>
  <g stroke="chocolate" stroke-width="1">
    <line x1="328" y1="300" x2="270" y2="265"/>
    <circle cx="328" cy="300" r="2"/>
    <circle cx="270" cy="265" r="2"/>
  </g>
  <g stroke="chocolate" stroke-width="1">
    <line x1="119" y1="227" x2="170" y2="226"/>
    <circle cx="119" cy="227" r="2"/>
    <circle cx="170" cy="226" r="2"/>
  </g>
  <g stroke="chocolate" stroke-width="1">
    <line x1="109" y1="227" x2="119" y2="227"/>
    <circle cx="109" cy="227" r="2"/>
    <circle cx="119" cy="227" r="2"/>
  </g>
  <g stroke="chocolate" stroke-width="1">
    <line x1="119" y1="227" x2="118" y2="214"/>
    <circle cx="119" cy="227" r="2"/>
    <circle cx="118" cy="214" r="2"/>
  </g>
  <g stroke="chocolate" stroke-width="1">
    <line x1="122" y1="260" x2="119" y2="227"/>
    <circle cx="122" cy="260" r="2"/>
    <circle cx="119" cy="227" r="2"/>
  </g>
  <g stroke="chocolate" stroke-width="1">
    <line x1="175" y1="206" x2="243" y2="179"/>
    <circle cx="175" cy="206" r="2"/>
    <circle cx="243" cy="179" r="2"/>
  </g>
  <g stroke="chocolate" stroke-width="1">
    <line x1="176" y1="207" x2="175" y2="206"/>
    <circle cx="176" cy="207" r="2"/>
    <circle cx="175" cy="206" r="2"/>
  </g>
  <g stroke="chocolate" stroke-width="1">
    <line x1="176" y1="207" x2="177" y2="206"/>
    <circle cx="176" cy="207" r="2"/>
    <circle cx="177" cy="206" r="2"/>
  </g>
  <g stroke="chocolate" stroke-width="1">
    <line x1="295" y1="223" x2="319" y2="221"/>
    <circle cx="295" cy="223" r="2"/>
    <circle cx="319" cy="221" r="2"/>
  </g>
  <g stroke="chocolate" stroke-width="1">
    <line x1="170" y1="226" x2="175" y2="206"/>
    <circle cx="170" cy="226" r="2"/>
    <circle cx="175" cy="206" r="2"/>
  </g>
  <g stroke="chocolate" stroke-width="1">
    <line x1="170" y1="227" x2="170" y2="226"/>
    <circle cx="170" cy="227" r="2"/>
    <circle cx="170" cy="226" r="2"/>
  </g>
  <g stroke="chocolate" stroke-width="1">
    <line x1="389" y1="123" x2="401" y2="119"/>
    <circle cx="389" cy="123" r="2"/>
    <circle cx="401" cy="119" r="2"/>
  </g>
  <g stroke="chocolate" stroke-width="1">
    <line x1="389" y1="123" x2="389" y2="121"/>
    <circle cx="389" cy="123" r="2"/>
    <circle cx="389" cy="121" r="2"/>
  </g>
  <g stroke="chocolate" stroke-width="1">
    <line x1="346" y1="294" x2="389" y2="123"/>
    <circle cx="346" cy="294" r="2"/>
    <circle cx="389" cy="123" r="2"/>
  </g>
  <g stroke="chocolate" stroke-width="1">
    <line x1="389" y1="121" x2="394" y2="96"/>
    <circle cx="389" cy="121" r="2"/>
    <circle cx="394" cy="96" r="2"/>
  </g>
  <g stroke="chocolate" stroke-width="1">
    <line x1="389" y1="121" x2="370" y2="98"/>
    <circle cx="389" cy="121" r="2"/>
    <circle cx="370" cy="98" r="2"/>
  </g>
  <g stroke="chocolate" stroke-width="1">
    <line x1="389" y1="121" x2="389" y2="121"/>
    <circle cx="389" cy="121" r="2"/>
    <circle cx="389" cy="121" r="2"/>
  </g>
  <g stroke="chocolate" stroke-width="1">
    <line x1="319" y1="221" x2="319" y2="220"/>
    <circle cx="319" cy="221" r="2"/>
    <circle cx="319" cy="220" r="2"/>
  </g>
  <g stroke="chocolate" stroke-width="1">
    <line x1="336" y1="278" x2="330" y2="277"/>
    <circle cx="336" cy="278" r="2"/>
    <circle cx="330" cy="277" r="2"/>
  </g>
  <g stroke="chocolate" stroke-width="1">
    <line x1="349" y1="281" x2="336" y2="278"/>
    <circle cx="349" cy="281" r="2"/>
    <circle cx="336" cy="278" r="2"/>
  </g>
  <g stroke="chocolate" stroke-width="1">
    <line x1="268" y1="164" x2="264" y2="106"/>
    <circle cx="268" cy="164" r="2"/>
    <circle cx="264" cy="106" r="2"/>
  </g>
  <g stroke="chocolate" stroke-width="1">
    <line x1="247" y1="250" x2="170" y2="227"/>
    <circle cx="247" cy="250" r="2"/>
    <circle cx="170" cy="227" r="2"/>
  </g>
  <g stroke="chocolate" stroke-width="1">
    <line x1="138" y1="414" x2="122" y2="260"/>
    <circle cx="138" cy="414" r="2"/>
    <circle cx="122" cy="260" r="2"/>
  </g>
  <g stroke="chocolate" stroke-width="1">
    <line x1="122" y1="260" x2="109" y2="227"/>
    <circle cx="122" cy="260" r="2"/>
    <circle cx="109" cy="227" r="2"/>
  </g>
  <g stroke="chocolate" stroke-width="1">
    <line x1="184" y1="409" x2="122" y2="260"/>
    <circle cx="184" cy="409" r="2"/>
    <circle cx="122" cy="260" r="2"/>
  </g>
  <g stroke="chocolate" stroke-width="1">
    <line x1="183" y1="113" x2="394" y2="96"/>
    <circle cx="183" cy="113" r="2"/>
    <circle cx="394" cy="96" r="2"/>
  </g>
  <g stroke="chocolate" stroke-width="1">
    <line x1="109" y1="227" x2="183" y2="113"/>
    <circle cx="109" cy="227" r="2"/>
    <circle cx="183" cy="113" r="2"/>
  </g>
  <g stroke="chocolate" stroke-width="1">
    <line x1="209" y1="223" x2="230" y2="184"/>
    <circle cx="209" cy="223" r="2"/>
    <circle cx="230" cy="184" r="2"/>
  </g>
  <g stroke="chocolate" stroke-width="1">
    <line x1="328" y1="300" x2="346" y2="294"/>
    <circle cx="328" cy="300" r="2"/>
    <circle cx="346" cy="294" r="2"/>
  </g>
  <g stroke="chocolate" stroke-width="1">
    <line x1="401" y1="119" x2="394" y2="96"/>
    <circle cx="401" cy="119" r="2"/>
    <circle cx="394" cy="96" r="2"/>
  </g>
  <g stroke="chocolate" stroke-width="1">
    <line x1="209" y1="223" x2="177" y2="206"/>
    <circle cx="209" cy="223" r="2"/>
    <circle cx="177" cy="206" r="2"/>
  </g>
  <g stroke="chocolate" stroke-width="1">
    <line x1="138" y1="414" x2="184" y2="409"/>
    <circle cx="138" cy="414" r="2"/>
    <circle cx="184" cy="409" r="2"/>
  </g>
  <g stroke="black" stroke-width="1">
    <line x1="5" y1="5" x2="505" y2="5"/>
    <line x1="5" y1="5" x2="5" y2="505"/>
    <line x1="505" y1="505" x2="5" y2="505"/>
    <line x1="505" y1="505" x2="505" y2="5"/>
    <line x1="105" y1="2" x2="105" y2="8"/>
    <line x1="2" y1="105" x2="8" y2="105"/>
    <line x1="105" y1="502" x2="105" y2="508"/>
    <line x1="502" y1="105" x2="508" y2="105"/>
    <line x1="205" y1="2" x2="205" y2="8"/>
    <line x1="2" y1="205" x2="8" y2="205"/>
    <line x1="205" y1="502" x2="205" y2="508"/>
    <line x1="502" y1="205" x2="508" y2="205"/>
    <line x1="305" y1="2" x2="305" y2="8"/>
    <line x1="2" y1="305" x2="8" y2="305"/>
    <line x1="305" y1="502" x2="305" y2="508"/>
    <line x1="502" y1="305" x2="508" y2="305"/>
    <line x1="405" y1="2" x2="405" y2="8"/>
    <line x1="2" y1="405" x2="8" y2="405"/>
    <line x1="405" y1="502" x2="405" y2="508"/>
    <line x1="502" y1="405" x2="508" y2="405"/>
  </g>
  <g stroke="gray" stroke-width="1" stroke-dasharray="5,5">
    <line x1="105" y1="5" x2="105" y2="505"/>
    <line x1="5" y1="105" x2="505" y2="105"/>
    <line x1="205" y1="5" x2="205" y2="505"/>
    <line x1="5" y1="205" x2="505" y2="205"/>
    <line x1="305" y1="5" x2="305" y2="505"/>
    <line x1="5" y1="305" x2="505" y2="305"/>
    <line x1="405" y1="5" x2="405" y2="505"/>
    <line x1="5" y1="405" x2="505" y2="405"/>
  </g>
</svg>
