<?xml version="1.0" standalone="no"?>
<!DOCTYPE svg PUBLIC "-//W3C//DTD SVG 1.1//EN" 
  "http://www.w3.org/Graphics/SVG/1.1/DTD/svg11.dtd">
<svg width="510" height="510" version="1.1" id="toplevel"
    xmlns="http://www.w3.org/2000/svg"
    xmlns:xlink="http://www.w3.org/1999/xlink">
  <polygon points="149,424 177,336 333,336 361,424 406,336 365,268 409,241 366,113 338,169 255,86 172,169 144,113 101,241 145,268 104,336" 
           fill="bisque"/>
  <g stroke="chocolate" stroke-width="1">
    <line x1="207" y1="240" x2="255" y2="86"/>
    <circle cx="207" cy="240" r="2"/>
    <circle cx="255" cy="86" r="2"/>
  </g>
  <g stroke="chocolate" stroke-width="1">
    <line x1="189" y1="296" x2="207" y2="240"/>
    <circle cx="189" cy="296" r="2"/>
    <circle cx="207" cy="240" r="2"/>
  </g>
  <g stroke="chocolate" stroke-width="1">
    <line x1="207" y1="240" x2="187" y2="199"/>
    <circle cx="207" cy="240" r="2"/>
    <circle cx="187" cy="199" r="2"/>
  </g>
  <g stroke="chocolate" stroke-width="1">
    <line x1="255" y1="336" x2="207" y2="240"/>
    <circle cx="255" cy="336" r="2"/>
    <circle cx="207" cy="240" r="2"/>
  </g>
  <g stroke="chocolate" stroke-width="1">
    <line x1="145" y1="268" x2="101" y2="241"/>
    <circle cx="145" cy="268" r="2"/>
    <circle cx="101" cy="241" r="2"/>
  </g>
  <g stroke="chocolate" stroke-width="1">
    <line x1="189" y1="296" x2="145" y2="268"/>
    <circle cx="189" cy="296" r="2"/>
    <circle cx="145" cy="268" r="2"/>
  </g>
  <g stroke="chocolate" stroke-width="1">
    <line x1="145" y1="268" x2="187" y2="199"/>
    <circle cx="145" cy="268" r="2"/>
    <circle cx="187" cy="199" r="2"/>
  </g>
  <g stroke="chocolate" stroke-width="1">
    <line x1="104" y1="336" x2="145" y2="268"/>
    <circle cx="104" cy="336" r="2"/>
    <circle cx="145" cy="268" r="2"/>
  </g>
  <g stroke="chocolate" stroke-width="1">
    <line x1="303" y1="240" x2="323" y2="199"/>
    <circle cx="303" cy="240" r="2"/>
    <circle cx="323" cy="199" r="2"/>
  </g>
  <g stroke="chocolate" stroke-width="1">
    <line x1="255" y1="336" x2="303" y2="240"/>
    <circle cx="255" cy="336" r="2"/>
    <circle cx="303" cy="240" r="2"/>
  </g>
  <g stroke="chocolate" stroke-width="1">
    <line x1="303" y1="240" x2="255" y2="86"/>
    <circle cx="303" cy="240" r="2"/>
    <circle cx="255" cy="86" r="2"/>
  </g>
  <g stroke="chocolate" stroke-width="1">
    <line x1="321" y1="296" x2="303" y2="240"/>
    <circle cx="321" cy="296" r="2"/>
    <circle cx="303" cy="240" r="2"/>
  </g>
  <g stroke="chocolate" stroke-width="1">
    <line x1="333" y1="336" x2="406" y2="336"/>
    <circle cx="333" cy="336" r="2"/>
    <circle cx="406" cy="336" r="2"/>
  </g>
  <g stroke="chocolate" stroke-width="1">
    <line x1="177" y1="336" x2="333" y2="336"/>
    <circle cx="177" cy="336" r="2"/>
    <circle cx="333" cy="336" r="2"/>
  </g>
  <g stroke="chocolate" stroke-width="1">
    <line x1="333" y1="336" x2="321" y2="296"/>
    <circle cx="333" cy="336" r="2"/>
    <circle cx="321" cy="296" r="2"/>
  </g>
  <g stroke="chocolate" stroke-width="1">
    <line x1="361" y1="424" x2="333" y2="336"/>
    <circle cx="361" cy="424" r="2"/>
    <circle cx="333" cy="336" r="2"/>
  </g>
  <g stroke="chocolate" stroke-width="1">
    <line x1="365" y1="268" x2="323" y2="199"/>
    <circle cx="365" cy="268" r="2"/>
    <circle cx="323" cy="199" r="2"/>
  </g>
  <g stroke="chocolate" stroke-width="1">
    <line x1="406" y1="336" x2="365" y2="268"/>
    <circle cx="406" cy="336" r="2"/>
    <circle cx="365" cy="268" r="2"/>
  </g>
  <g stroke="chocolate" stroke-width="1">
    <line x1="365" y1="268" x2="409" y2="241"/>
    <circle cx="365" cy="268" r="2"/>
    <circle cx="409" cy="241" r="2"/>
  </g>
  <g stroke="chocolate" stroke-width="1">
    <line x1="321" y1="296" x2="365" y2="268"/>
    <circle cx="321" cy="296" r="2"/>
    <circle cx="365" cy="268" r="2"/>
  </g>
  <g stroke="chocolate" stroke-width="1">
    <line x1="338" y1="169" x2="366" y2="113"/>
    <circle cx="338" cy="169" r="2"/>
    <circle cx="366" cy="113" r="2"/>
  </g>
  <g stroke="chocolate" stroke-width="1">
    <line x1="323" y1="199" x2="338" y2="169"/>
    <circle cx="323" cy="199" r="2"/>
    <circle cx="338" cy="169" r="2"/>
  </g>
  <g stroke="chocolate" stroke-width="1">
    <line x1="338" y1="169" x2="255" y2="86"/>
    <circle cx="338" cy="169" r="2"/>
    <circle cx="255" cy="86" r="2"/>
  </g>
  <g stroke="chocolate" stroke-width="1">
    <line x1="409" y1="241" x2="338" y2="169"/>
    <circle cx="409" cy="241" r="2"/>
    <circle cx="338" cy="169" r="2"/>
  </g>
  <g stroke="chocolate" stroke-width="1">
    <line x1="177" y1="336" x2="189" y2="296"/>
    <circle cx="177" cy="336" r="2"/>
    <circle cx="189" cy="296" r="2"/>
  </g>
  <g stroke="chocolate" stroke-width="1">
    <line x1="255" y1="336" x2="189" y2="296"/>
    <circle cx="255" cy="336" r="2"/>
    <circle cx="189" cy="296" r="2"/>
  </g>
  <g stroke="chocolate" stroke-width="1">
    <line x1="172" y1="169" x2="144" y2="113"/>
    <circle cx="172" cy="169" r="2"/>
    <circle cx="144" cy="113" r="2"/>
  </g>
  <g stroke="chocolate" stroke-width="1">
    <line x1="187" y1="199" x2="172" y2="169"/>
    <circle cx="187" cy="199" r="2"/>
    <circle cx="172" cy="169" r="2"/>
  </g>
  <g stroke="chocolate" stroke-width="1">
    <line x1="172" y1="169" x2="255" y2="86"/>
    <circle cx="172" cy="169" r="2"/>
    <circle cx="255" cy="86" r="2"/>
  </g>
  <g stroke="chocolate" stroke-width="1">
    <line x1="101" y1="241" x2="172" y2="169"/>
    <circle cx="101" cy="241" r="2"/>
    <circle cx="172" cy="169" r="2"/>
  </g>
  <g stroke="chocolate" stroke-width="1">
    <line x1="187" y1="199" x2="255" y2="86"/>
    <circle cx="187" cy="199" r="2"/>
    <circle cx="255" cy="86" r="2"/>
  </g>
  <g stroke="chocolate" stroke-width="1">
    <line x1="104" y1="336" x2="177" y2="336"/>
    <circle cx="104" cy="336" r="2"/>
    <circle cx="177" cy="336" r="2"/>
  </g>
  <g stroke="chocolate" stroke-width="1">
    <line x1="149" y1="424" x2="177" y2="336"/>
    <circle cx="149" cy="424" r="2"/>
    <circle cx="177" cy="336" r="2"/>
  </g>
  <g stroke="chocolate" stroke-width="1">
    <line x1="323" y1="199" x2="255" y2="86"/>
    <circle cx="323" cy="199" r="2"/>
    <circle cx="255" cy="86" r="2"/>
  </g>
  <g stroke="chocolate" stroke-width="1">
    <line x1="255" y1="336" x2="321" y2="296"/>
    <circle cx="255" cy="336" r="2"/>
    <circle cx="321" cy="296" r="2"/>
  </g>
  <g stroke="chocolate" stroke-width="1">
    <line x1="409" y1="241" x2="366" y2="113"/>
    <circle cx="409" cy="241" r="2"/>
    <circle cx="366" cy="113" r="2"/>
  </g>
  <g stroke="chocolate" stroke-width="1">
    <line x1="149" y1="424" x2="104" y2="336"/>
    <circle cx="149" cy="424" r="2"/>
    <circle cx="104" cy="336" r="2"/>
  </g>
  <g stroke="chocolate" stroke-width="1">
    <line x1="255" y1="336" x2="255" y2="86"/>
    <circle cx="255" cy="336" r="2"/>
    <circle cx="255" cy="86" r="2"/>
  </g>
  <g stroke="chocolate" stroke-width="1">
    <line x1="101" y1="241" x2="144" y2="113"/>
    <circle cx="101" cy="241" r="2"/>
    <circle cx="144" cy="113" r="2"/>
  </g>
  <g stroke="chocolate" stroke-width="1">
    <line x1="361" y1="424" x2="406" y2="336"/>
    <circle cx="361" cy="424" r="2"/>
    <circle cx="406" cy="336" r="2"/>
  </g>
  <g stroke="black" stroke-width="1">
    <line x1="5" y1="5" x2="505" y2="5"/>
    <line x1="5" y1="5" x2="5" y2="505"/>
    <line x1="505" y1="505" x2="5" y2="505"/>
    <line x1="505" y1="505" x2="505" y2="5"/>
    <line x1="105" y1="2" x2="105" y2="8"/>
    <line x1="2" y1="105" x2="8" y2="105"/>
    <line x1="105" y1="502" x2="105" y2="508"/>
    <line x1="502" y1="105" x2="508" y2="105"/>
    <line x1="205" y1="2" x2="205" y2="8"/>
    <line x1="2" y1="205" x2="8" y2="205"/>
    <line x1="205" y1="502" x2="205" y2="508"/>
    <line x1="502" y1="205" x2="508" y2="205"/>
    <line x1="305" y1="2" x2="305" y2="8"/>
    <line x1="2" y1="305" x2="8" y2="305"/>
    <line x1="305" y1="502" x2="305" y2="508"/>
    <line x1="502" y1="305" x2="508" y2="305"/>
    <line x1="405" y1="2" x2="405" y2="8"/>
    <line x1="2" y1="405" x2="8" y2="405"/>
    <line x1="405" y1="502" x2="405" y2="508"/>
    <line x1="502" y1="405" x2="508" y2="405"/>
  </g>
  <g stroke="gray" stroke-width="1" stroke-dasharray="5,5">
    <line x1="105" y1="5" x2="105" y2="505"/>
    <line x1="5" y1="105" x2="505" y2="105"/>
    <line x1="205" y1="5" x2="205" y2="505"/>
    <line x1="5" y1="205" x2="505" y2="205"/>
    <line x1="305" y1="5" x2="305" y2="505"/>
    <line x1="5" y1="305" x2="505" y2="305"/>
    <line x1="405" y1="5" x2="405" y2="505"/>
    <line x1="5" y1="405" x2="505" y2="405"/>
  </g>
</svg>
