<?xml version="1.0" standalone="no"?>
<!DOCTYPE svg PUBLIC "-//W3C//DTD SVG 1.1//EN" 
  "http://www.w3.org/Graphics/SVG/1.1/DTD/svg11.dtd">
<svg width="510" height="510" version="1.1" id="toplevel"
    xmlns="http://www.w3.org/2000/svg"
    xmlns:xlink="http://www.w3.org/1999/xlink">
  <polygon points="26,390 43,370 467,370 484,390 485,370 402,279 409,275 366,146 338,203 255,120 172,203 144,146 101,275 108,279 25,370"
           fill="bisque"/>
  <g stroke="chocolate" stroke-width="1">
    <line x1="177" y1="213" x2="255" y2="120"/>
    <circle cx="177" cy="213" r="2"/>
    <circle cx="255" cy="120" r="2"/>
  </g>
  <g stroke="chocolate" stroke-width="1">
    <line x1="116" y1="284" x2="177" y2="213"/>
    <circle cx="116" cy="284" r="2"/>
    <circle cx="177" cy="213" r="2"/>
  </g>
  <g stroke="chocolate" stroke-width="1">
    <line x1="177" y1="213" x2="174" y2="208"/>
    <circle cx="177" cy="213" r="2"/>
    <circle cx="174" cy="208" r="2"/>
  </g>
  <g stroke="chocolate" stroke-width="1">
    <line x1="255" y1="370" x2="177" y2="213"/>
    <circle cx="255" cy="370" r="2"/>
    <circle cx="177" cy="213" r="2"/>
  </g>
  <g stroke="chocolate" stroke-width="1">
    <line x1="108" y1="279" x2="101" y2="275"/>
    <circle cx="108" cy="279" r="2"/>
    <circle cx="101" cy="275" r="2"/>
  </g>
  <g stroke="chocolate" stroke-width="1">
    <line x1="116" y1="284" x2="108" y2="279"/>
    <circle cx="116" cy="284" r="2"/>
    <circle cx="108" cy="279" r="2"/>
  </g>
  <g stroke="chocolate" stroke-width="1">
    <line x1="108" y1="279" x2="174" y2="208"/>
    <circle cx="108" cy="279" r="2"/>
    <circle cx="174" cy="208" r="2"/>
  </g>
  <g stroke="chocolate" stroke-width="1">
    <line x1="25" y1="370" x2="108" y2="279"/>
    <circle cx="25" cy="370" r="2"/>
    <circle cx="108" cy="279" r="2"/>
  </g>
  <g stroke="chocolate" stroke-width="1">
    <line x1="333" y1="213" x2="336" y2="208"/>
    <circle cx="333" cy="213" r="2"/>
    <circle cx="336" cy="208" r="2"/>
  </g>
  <g stroke="chocolate" stroke-width="1">
    <line x1="255" y1="370" x2="333" y2="213"/>
    <circle cx="255" cy="370" r="2"/>
    <circle cx="333" cy="213" r="2"/>
  </g>
  <g stroke="chocolate" stroke-width="1">
    <line x1="333" y1="213" x2="255" y2="120"/>
    <circle cx="333" cy="213" r="2"/>
    <circle cx="255" cy="120" r="2"/>
  </g>
  <g stroke="chocolate" stroke-width="1">
    <line x1="394" y1="284" x2="333" y2="213"/>
    <circle cx="394" cy="284" r="2"/>
    <circle cx="333" cy="213" r="2"/>
  </g>
  <g stroke="chocolate" stroke-width="1">
    <line x1="467" y1="370" x2="485" y2="370"/>
    <circle cx="467" cy="370" r="2"/>
    <circle cx="485" cy="370" r="2"/>
  </g>
  <g stroke="chocolate" stroke-width="1">
    <line x1="43" y1="370" x2="467" y2="370"/>
    <circle cx="43" cy="370" r="2"/>
    <circle cx="467" cy="370" r="2"/>
  </g>
  <g stroke="chocolate" stroke-width="1">
    <line x1="467" y1="370" x2="394" y2="284"/>
    <circle cx="467" cy="370" r="2"/>
    <circle cx="394" cy="284" r="2"/>
  </g>
  <g stroke="chocolate" stroke-width="1">
    <line x1="484" y1="390" x2="467" y2="370"/>
    <circle cx="484" cy="390" r="2"/>
    <circle cx="467" cy="370" r="2"/>
  </g>
  <g stroke="chocolate" stroke-width="1">
    <line x1="402" y1="279" x2="336" y2="208"/>
    <circle cx="402" cy="279" r="2"/>
    <circle cx="336" cy="208" r="2"/>
  </g>
  <g stroke="chocolate" stroke-width="1">
    <line x1="485" y1="370" x2="402" y2="279"/>
    <circle cx="485" cy="370" r="2"/>
    <circle cx="402" cy="279" r="2"/>
  </g>
  <g stroke="chocolate" stroke-width="1">
    <line x1="402" y1="279" x2="409" y2="275"/>
    <circle cx="402" cy="279" r="2"/>
    <circle cx="409" cy="275" r="2"/>
  </g>
  <g stroke="chocolate" stroke-width="1">
    <line x1="394" y1="284" x2="402" y2="279"/>
    <circle cx="394" cy="284" r="2"/>
    <circle cx="402" cy="279" r="2"/>
  </g>
  <g stroke="chocolate" stroke-width="1">
    <line x1="338" y1="203" x2="366" y2="146"/>
    <circle cx="338" cy="203" r="2"/>
    <circle cx="366" cy="146" r="2"/>
  </g>
  <g stroke="chocolate" stroke-width="1">
    <line x1="336" y1="208" x2="338" y2="203"/>
    <circle cx="336" cy="208" r="2"/>
    <circle cx="338" cy="203" r="2"/>
  </g>
  <g stroke="chocolate" stroke-width="1">
    <line x1="338" y1="203" x2="255" y2="120"/>
    <circle cx="338" cy="203" r="2"/>
    <circle cx="255" cy="120" r="2"/>
  </g>
  <g stroke="chocolate" stroke-width="1">
    <line x1="409" y1="275" x2="338" y2="203"/>
    <circle cx="409" cy="275" r="2"/>
    <circle cx="338" cy="203" r="2"/>
  </g>
  <g stroke="chocolate" stroke-width="1">
    <line x1="43" y1="370" x2="116" y2="284"/>
    <circle cx="43" cy="370" r="2"/>
    <circle cx="116" cy="284" r="2"/>
  </g>
  <g stroke="chocolate" stroke-width="1">
    <line x1="255" y1="370" x2="116" y2="284"/>
    <circle cx="255" cy="370" r="2"/>
    <circle cx="116" cy="284" r="2"/>
  </g>
  <g stroke="chocolate" stroke-width="1">
    <line x1="172" y1="203" x2="144" y2="146"/>
    <circle cx="172" cy="203" r="2"/>
    <circle cx="144" cy="146" r="2"/>
  </g>
  <g stroke="chocolate" stroke-width="1">
    <line x1="174" y1="208" x2="172" y2="203"/>
    <circle cx="174" cy="208" r="2"/>
    <circle cx="172" cy="203" r="2"/>
  </g>
  <g stroke="chocolate" stroke-width="1">
    <line x1="172" y1="203" x2="255" y2="120"/>
    <circle cx="172" cy="203" r="2"/>
    <circle cx="255" cy="120" r="2"/>
  </g>
  <g stroke="chocolate" stroke-width="1">
    <line x1="101" y1="275" x2="172" y2="203"/>
    <circle cx="101" cy="275" r="2"/>
    <circle cx="172" cy="203" r="2"/>
  </g>
  <g stroke="chocolate" stroke-width="1">
    <line x1="174" y1="208" x2="255" y2="120"/>
    <circle cx="174" cy="208" r="2"/>
    <circle cx="255" cy="120" r="2"/>
  </g>
  <g stroke="chocolate" stroke-width="1">
    <line x1="25" y1="370" x2="43" y2="370"/>
    <circle cx="25" cy="370" r="2"/>
    <circle cx="43" cy="370" r="2"/>
  </g>
  <g stroke="chocolate" stroke-width="1">
    <line x1="26" y1="390" x2="43" y2="370"/>
    <circle cx="26" cy="390" r="2"/>
    <circle cx="43" cy="370" r="2"/>
  </g>
  <g stroke="chocolate" stroke-width="1">
    <line x1="336" y1="208" x2="255" y2="120"/>
    <circle cx="336" cy="208" r="2"/>
    <circle cx="255" cy="120" r="2"/>
  </g>
  <g stroke="chocolate" stroke-width="1">
    <line x1="255" y1="370" x2="394" y2="284"/>
    <circle cx="255" cy="370" r="2"/>
    <circle cx="394" cy="284" r="2"/>
  </g>
  <g stroke="chocolate" stroke-width="1">
    <line x1="409" y1="275" x2="366" y2="146"/>
    <circle cx="409" cy="275" r="2"/>
    <circle cx="366" cy="146" r="2"/>
  </g>
  <g stroke="chocolate" stroke-width="1">
    <line x1="26" y1="390" x2="25" y2="370"/>
    <circle cx="26" cy="390" r="2"/>
    <circle cx="25" cy="370" r="2"/>
  </g>
  <g stroke="chocolate" stroke-width="1">
    <line x1="255" y1="370" x2="255" y2="120"/>
    <circle cx="255" cy="370" r="2"/>
    <circle cx="255" cy="120" r="2"/>
  </g>
  <g stroke="chocolate" stroke-width="1">
    <line x1="101" y1="275" x2="144" y2="146"/>
    <circle cx="101" cy="275" r="2"/>
    <circle cx="144" cy="146" r="2"/>
  </g>
  <g stroke="chocolate" stroke-width="1">
    <line x1="484" y1="390" x2="485" y2="370"/>
    <circle cx="484" cy="390" r="2"/>
    <circle cx="485" cy="370" r="2"/>
  </g>
  <g stroke="black" stroke-width="1">
    <line x1="5" y1="5" x2="505" y2="5"/>
    <line x1="5" y1="5" x2="5" y2="505"/>
    <line x1="505" y1="505" x2="5" y2="505"/>
    <line x1="505" y1="505" x2="505" y2="5"/>
    <line x1="105" y1="2" x2="105" y2="8"/>
    <line x1="2" y1="105" x2="8" y2="105"/>
    <line x1="105" y1="502" x2="105" y2="508"/>
    <line x1="502" y1="105" x2="508" y2="105"/>
    <line x1="205" y1="2" x2="205" y2="8"/>
    <line x1="2" y1="205" x2="8" y2="205"/>
    <line x1="205" y1="502" x2="205" y2="508"/>
    <line x1="502" y1="205" x2="508" y2="205"/>
    <line x1="305" y1="2" x2="305" y2="8"/>
    <line x1="2" y1="305" x2="8" y2="305"/>
    <line x1="305" y1="502" x2="305" y2="508"/>
    <line x1="502" y1="305" x2="508" y2="305"/>
    <line x1="405" y1="2" x2="405" y2="8"/>
    <line x1="2" y1="405" x2="8" y2="405"/>
    <line x1="405" y1="502" x2="405" y2="508"/>
    <line x1="502" y1="405" x2="508" y2="405"/>
  </g>
  <g stroke="gray" stroke-width="1" stroke-dasharray="5,5">
    <line x1="105" y1="5" x2="105" y2="505"/>
    <line x1="5" y1="105" x2="505" y2="105"/>
    <line x1="205" y1="5" x2="205" y2="505"/>
    <line x1="5" y1="205" x2="505" y2="205"/>
    <line x1="305" y1="5" x2="305" y2="505"/>
    <line x1="5" y1="305" x2="505" y2="305"/>
    <line x1="405" y1="5" x2="405" y2="505"/>
    <line x1="5" y1="405" x2="505" y2="405"/>
  </g>
</svg>
