<?xml version="1.0" standalone="no"?>
<!DOCTYPE svg PUBLIC "-//W3C//DTD SVG 1.1//EN" 
  "http://www.w3.org/Graphics/SVG/1.1/DTD/svg11.dtd">
<svg width="510" height="510" version="1.1" id="toplevel"
    xmlns="http://www.w3.org/2000/svg"
    xmlns:xlink="http://www.w3.org/1999/xlink">
  <polygon points="101,414 134,346 376,346 409,414 433,346 396,295 439,280 448,186 392,233 255,96 118,233 62,186 71,280 114,295 77,346"
           fill="bisque"/>
  <g stroke="chocolate" stroke-width="1">
    <line x1="169" y1="274" x2="143" y2="253"/>
    <circle cx="169" cy="274" r="2"/>
    <circle cx="143" cy="253" r="2"/>
  </g>
  <g stroke="chocolate" stroke-width="1">
    <line x1="255" y1="346" x2="169" y2="274"/>
    <circle cx="255" cy="346" r="2"/>
    <circle cx="169" cy="274" r="2"/>
  </g>
  <g stroke="chocolate" stroke-width="1">
    <line x1="169" y1="274" x2="255" y2="96"/>
    <circle cx="169" cy="274" r="2"/>
    <circle cx="255" cy="96" r="2"/>
  </g>
  <g stroke="chocolate" stroke-width="1">
    <line x1="152" y1="309" x2="169" y2="274"/>
    <circle cx="152" cy="309" r="2"/>
    <circle cx="169" cy="274" r="2"/>
  </g>
  <g stroke="chocolate" stroke-width="1">
    <line x1="143" y1="253" x2="118" y2="233"/>
    <circle cx="143" cy="253" r="2"/>
    <circle cx="118" cy="233" r="2"/>
  </g>
  <g stroke="chocolate" stroke-width="1">
    <line x1="143" y1="253" x2="255" y2="96"/>
    <circle cx="143" cy="253" r="2"/>
    <circle cx="255" cy="96" r="2"/>
  </g>
  <g stroke="chocolate" stroke-width="1">
    <line x1="114" y1="295" x2="143" y2="253"/>
    <circle cx="114" cy="295" r="2"/>
    <circle cx="143" cy="253" r="2"/>
  </g>
  <g stroke="chocolate" stroke-width="1">
    <line x1="376" y1="346" x2="358" y2="309"/>
    <circle cx="376" cy="346" r="2"/>
    <circle cx="358" cy="309" r="2"/>
  </g>
  <g stroke="chocolate" stroke-width="1">
    <line x1="409" y1="414" x2="376" y2="346"/>
    <circle cx="409" cy="414" r="2"/>
    <circle cx="376" cy="346" r="2"/>
  </g>
  <g stroke="chocolate" stroke-width="1">
    <line x1="376" y1="346" x2="433" y2="346"/>
    <circle cx="376" cy="346" r="2"/>
    <circle cx="433" cy="346" r="2"/>
  </g>
  <g stroke="chocolate" stroke-width="1">
    <line x1="134" y1="346" x2="376" y2="346"/>
    <circle cx="134" cy="346" r="2"/>
    <circle cx="376" cy="346" r="2"/>
  </g>
  <g stroke="chocolate" stroke-width="1">
    <line x1="152" y1="309" x2="114" y2="295"/>
    <circle cx="152" cy="309" r="2"/>
    <circle cx="114" cy="295" r="2"/>
  </g>
  <g stroke="chocolate" stroke-width="1">
    <line x1="255" y1="346" x2="152" y2="309"/>
    <circle cx="255" cy="346" r="2"/>
    <circle cx="152" cy="309" r="2"/>
  </g>
  <g stroke="chocolate" stroke-width="1">
    <line x1="134" y1="346" x2="152" y2="309"/>
    <circle cx="134" cy="346" r="2"/>
    <circle cx="152" cy="309" r="2"/>
  </g>
  <g stroke="chocolate" stroke-width="1">
    <line x1="367" y1="253" x2="392" y2="233"/>
    <circle cx="367" cy="253" r="2"/>
    <circle cx="392" cy="233" r="2"/>
  </g>
  <g stroke="chocolate" stroke-width="1">
    <line x1="341" y1="274" x2="367" y2="253"/>
    <circle cx="341" cy="274" r="2"/>
    <circle cx="367" cy="253" r="2"/>
  </g>
  <g stroke="chocolate" stroke-width="1">
    <line x1="367" y1="253" x2="255" y2="96"/>
    <circle cx="367" cy="253" r="2"/>
    <circle cx="255" cy="96" r="2"/>
  </g>
  <g stroke="chocolate" stroke-width="1">
    <line x1="396" y1="295" x2="367" y2="253"/>
    <circle cx="396" cy="295" r="2"/>
    <circle cx="367" cy="253" r="2"/>
  </g>
  <g stroke="chocolate" stroke-width="1">
    <line x1="358" y1="309" x2="396" y2="295"/>
    <circle cx="358" cy="309" r="2"/>
    <circle cx="396" cy="295" r="2"/>
  </g>
  <g stroke="chocolate" stroke-width="1">
    <line x1="255" y1="346" x2="358" y2="309"/>
    <circle cx="255" cy="346" r="2"/>
    <circle cx="358" cy="309" r="2"/>
  </g>
  <g stroke="chocolate" stroke-width="1">
    <line x1="358" y1="309" x2="341" y2="274"/>
    <circle cx="358" cy="309" r="2"/>
    <circle cx="341" cy="274" r="2"/>
  </g>
  <g stroke="chocolate" stroke-width="1">
    <line x1="392" y1="233" x2="448" y2="186"/>
    <circle cx="392" cy="233" r="2"/>
    <circle cx="448" cy="186" r="2"/>
  </g>
  <g stroke="chocolate" stroke-width="1">
    <line x1="392" y1="233" x2="255" y2="96"/>
    <circle cx="392" cy="233" r="2"/>
    <circle cx="255" cy="96" r="2"/>
  </g>
  <g stroke="chocolate" stroke-width="1">
    <line x1="439" y1="280" x2="392" y2="233"/>
    <circle cx="439" cy="280" r="2"/>
    <circle cx="392" cy="233" r="2"/>
  </g>
  <g stroke="chocolate" stroke-width="1">
    <line x1="118" y1="233" x2="62" y2="186"/>
    <circle cx="118" cy="233" r="2"/>
    <circle cx="62" cy="186" r="2"/>
  </g>
  <g stroke="chocolate" stroke-width="1">
    <line x1="118" y1="233" x2="255" y2="96"/>
    <circle cx="118" cy="233" r="2"/>
    <circle cx="255" cy="96" r="2"/>
  </g>
  <g stroke="chocolate" stroke-width="1">
    <line x1="71" y1="280" x2="118" y2="233"/>
    <circle cx="71" cy="280" r="2"/>
    <circle cx="118" cy="233" r="2"/>
  </g>
  <g stroke="chocolate" stroke-width="1">
    <line x1="114" y1="295" x2="71" y2="280"/>
    <circle cx="114" cy="295" r="2"/>
    <circle cx="71" cy="280" r="2"/>
  </g>
  <g stroke="chocolate" stroke-width="1">
    <line x1="77" y1="346" x2="114" y2="295"/>
    <circle cx="77" cy="346" r="2"/>
    <circle cx="114" cy="295" r="2"/>
  </g>
  <g stroke="chocolate" stroke-width="1">
    <line x1="77" y1="346" x2="134" y2="346"/>
    <circle cx="77" cy="346" r="2"/>
    <circle cx="134" cy="346" r="2"/>
  </g>
  <g stroke="chocolate" stroke-width="1">
    <line x1="101" y1="414" x2="134" y2="346"/>
    <circle cx="101" cy="414" r="2"/>
    <circle cx="134" cy="346" r="2"/>
  </g>
  <g stroke="chocolate" stroke-width="1">
    <line x1="433" y1="346" x2="396" y2="295"/>
    <circle cx="433" cy="346" r="2"/>
    <circle cx="396" cy="295" r="2"/>
  </g>
  <g stroke="chocolate" stroke-width="1">
    <line x1="396" y1="295" x2="439" y2="280"/>
    <circle cx="396" cy="295" r="2"/>
    <circle cx="439" cy="280" r="2"/>
  </g>
  <g stroke="chocolate" stroke-width="1">
    <line x1="341" y1="274" x2="255" y2="96"/>
    <circle cx="341" cy="274" r="2"/>
    <circle cx="255" cy="96" r="2"/>
  </g>
  <g stroke="chocolate" stroke-width="1">
    <line x1="255" y1="346" x2="341" y2="274"/>
    <circle cx="255" cy="346" r="2"/>
    <circle cx="341" cy="274" r="2"/>
  </g>
  <g stroke="chocolate" stroke-width="1">
    <line x1="101" y1="414" x2="77" y2="346"/>
    <circle cx="101" cy="414" r="2"/>
    <circle cx="77" cy="346" r="2"/>
  </g>
  <g stroke="chocolate" stroke-width="1">
    <line x1="71" y1="280" x2="62" y2="186"/>
    <circle cx="71" cy="280" r="2"/>
    <circle cx="62" cy="186" r="2"/>
  </g>
  <g stroke="chocolate" stroke-width="1">
    <line x1="255" y1="346" x2="255" y2="96"/>
    <circle cx="255" cy="346" r="2"/>
    <circle cx="255" cy="96" r="2"/>
  </g>
  <g stroke="chocolate" stroke-width="1">
    <line x1="439" y1="280" x2="448" y2="186"/>
    <circle cx="439" cy="280" r="2"/>
    <circle cx="448" cy="186" r="2"/>
  </g>
  <g stroke="chocolate" stroke-width="1">
    <line x1="409" y1="414" x2="433" y2="346"/>
    <circle cx="409" cy="414" r="2"/>
    <circle cx="433" cy="346" r="2"/>
  </g>
  <g stroke="black" stroke-width="1">
    <line x1="5" y1="5" x2="505" y2="5"/>
    <line x1="5" y1="5" x2="5" y2="505"/>
    <line x1="505" y1="505" x2="5" y2="505"/>
    <line x1="505" y1="505" x2="505" y2="5"/>
    <line x1="105" y1="2" x2="105" y2="8"/>
    <line x1="2" y1="105" x2="8" y2="105"/>
    <line x1="105" y1="502" x2="105" y2="508"/>
    <line x1="502" y1="105" x2="508" y2="105"/>
    <line x1="205" y1="2" x2="205" y2="8"/>
    <line x1="2" y1="205" x2="8" y2="205"/>
    <line x1="205" y1="502" x2="205" y2="508"/>
    <line x1="502" y1="205" x2="508" y2="205"/>
    <line x1="305" y1="2" x2="305" y2="8"/>
    <line x1="2" y1="305" x2="8" y2="305"/>
    <line x1="305" y1="502" x2="305" y2="508"/>
    <line x1="502" y1="305" x2="508" y2="305"/>
    <line x1="405" y1="2" x2="405" y2="8"/>
    <line x1="2" y1="405" x2="8" y2="405"/>
    <line x1="405" y1="502" x2="405" y2="508"/>
    <line x1="502" y1="405" x2="508" y2="405"/>
  </g>
  <g stroke="gray" stroke-width="1" stroke-dasharray="5,5">
    <line x1="105" y1="5" x2="105" y2="505"/>
    <line x1="5" y1="105" x2="505" y2="105"/>
    <line x1="205" y1="5" x2="205" y2="505"/>
    <line x1="5" y1="205" x2="505" y2="205"/>
    <line x1="305" y1="5" x2="305" y2="505"/>
    <line x1="5" y1="305" x2="505" y2="305"/>
    <line x1="405" y1="5" x2="405" y2="505"/>
    <line x1="5" y1="405" x2="505" y2="405"/>
  </g>
</svg>
