<?xml version="1.0" standalone="no"?>
<!DOCTYPE svg PUBLIC "-//W3C//DTD SVG 1.1//EN" 
  "http://www.w3.org/Graphics/SVG/1.1/DTD/svg11.dtd">
<svg width="510" height="510" version="1.1" id="toplevel"
    xmlns="http://www.w3.org/2000/svg"
    xmlns:xlink="http://www.w3.org/1999/xlink">
  <polygon points="60,403 90,357 420,357 450,403 459,357 413,301 439,291 448,198 392,244 255,107 118,244 62,198 71,291 97,301 51,357"
           fill="bisque"/>
  <g stroke="chocolate" stroke-width="1">
    <line x1="148" y1="269" x2="133" y2="257"/>
    <circle cx="148" cy="269" r="2"/>
    <circle cx="133" cy="257" r="2"/>
  </g>
  <g stroke="chocolate" stroke-width="1">
    <line x1="255" y1="357" x2="148" y2="269"/>
    <circle cx="255" cy="357" r="2"/>
    <circle cx="148" cy="269" r="2"/>
  </g>
  <g stroke="chocolate" stroke-width="1">
    <line x1="148" y1="269" x2="255" y2="107"/>
    <circle cx="148" cy="269" r="2"/>
    <circle cx="255" cy="107" r="2"/>
  </g>
  <g stroke="chocolate" stroke-width="1">
    <line x1="122" y1="309" x2="148" y2="269"/>
    <circle cx="122" cy="309" r="2"/>
    <circle cx="148" cy="269" r="2"/>
  </g>
  <g stroke="chocolate" stroke-width="1">
    <line x1="133" y1="257" x2="118" y2="244"/>
    <circle cx="133" cy="257" r="2"/>
    <circle cx="118" cy="244" r="2"/>
  </g>
  <g stroke="chocolate" stroke-width="1">
    <line x1="133" y1="257" x2="255" y2="107"/>
    <circle cx="133" cy="257" r="2"/>
    <circle cx="255" cy="107" r="2"/>
  </g>
  <g stroke="chocolate" stroke-width="1">
    <line x1="97" y1="301" x2="133" y2="257"/>
    <circle cx="97" cy="301" r="2"/>
    <circle cx="133" cy="257" r="2"/>
  </g>
  <g stroke="chocolate" stroke-width="1">
    <line x1="420" y1="357" x2="388" y2="309"/>
    <circle cx="420" cy="357" r="2"/>
    <circle cx="388" cy="309" r="2"/>
  </g>
  <g stroke="chocolate" stroke-width="1">
    <line x1="450" y1="403" x2="420" y2="357"/>
    <circle cx="450" cy="403" r="2"/>
    <circle cx="420" cy="357" r="2"/>
  </g>
  <g stroke="chocolate" stroke-width="1">
    <line x1="420" y1="357" x2="459" y2="357"/>
    <circle cx="420" cy="357" r="2"/>
    <circle cx="459" cy="357" r="2"/>
  </g>
  <g stroke="chocolate" stroke-width="1">
    <line x1="90" y1="357" x2="420" y2="357"/>
    <circle cx="90" cy="357" r="2"/>
    <circle cx="420" cy="357" r="2"/>
  </g>
  <g stroke="chocolate" stroke-width="1">
    <line x1="122" y1="309" x2="97" y2="301"/>
    <circle cx="122" cy="309" r="2"/>
    <circle cx="97" cy="301" r="2"/>
  </g>
  <g stroke="chocolate" stroke-width="1">
    <line x1="255" y1="357" x2="122" y2="309"/>
    <circle cx="255" cy="357" r="2"/>
    <circle cx="122" cy="309" r="2"/>
  </g>
  <g stroke="chocolate" stroke-width="1">
    <line x1="90" y1="357" x2="122" y2="309"/>
    <circle cx="90" cy="357" r="2"/>
    <circle cx="122" cy="309" r="2"/>
  </g>
  <g stroke="chocolate" stroke-width="1">
    <line x1="377" y1="257" x2="392" y2="244"/>
    <circle cx="377" cy="257" r="2"/>
    <circle cx="392" cy="244" r="2"/>
  </g>
  <g stroke="chocolate" stroke-width="1">
    <line x1="362" y1="269" x2="377" y2="257"/>
    <circle cx="362" cy="269" r="2"/>
    <circle cx="377" cy="257" r="2"/>
  </g>
  <g stroke="chocolate" stroke-width="1">
    <line x1="377" y1="257" x2="255" y2="107"/>
    <circle cx="377" cy="257" r="2"/>
    <circle cx="255" cy="107" r="2"/>
  </g>
  <g stroke="chocolate" stroke-width="1">
    <line x1="413" y1="301" x2="377" y2="257"/>
    <circle cx="413" cy="301" r="2"/>
    <circle cx="377" cy="257" r="2"/>
  </g>
  <g stroke="chocolate" stroke-width="1">
    <line x1="388" y1="309" x2="413" y2="301"/>
    <circle cx="388" cy="309" r="2"/>
    <circle cx="413" cy="301" r="2"/>
  </g>
  <g stroke="chocolate" stroke-width="1">
    <line x1="255" y1="357" x2="388" y2="309"/>
    <circle cx="255" cy="357" r="2"/>
    <circle cx="388" cy="309" r="2"/>
  </g>
  <g stroke="chocolate" stroke-width="1">
    <line x1="388" y1="309" x2="362" y2="269"/>
    <circle cx="388" cy="309" r="2"/>
    <circle cx="362" cy="269" r="2"/>
  </g>
  <g stroke="chocolate" stroke-width="1">
    <line x1="392" y1="244" x2="448" y2="198"/>
    <circle cx="392" cy="244" r="2"/>
    <circle cx="448" cy="198" r="2"/>
  </g>
  <g stroke="chocolate" stroke-width="1">
    <line x1="392" y1="244" x2="255" y2="107"/>
    <circle cx="392" cy="244" r="2"/>
    <circle cx="255" cy="107" r="2"/>
  </g>
  <g stroke="chocolate" stroke-width="1">
    <line x1="439" y1="291" x2="392" y2="244"/>
    <circle cx="439" cy="291" r="2"/>
    <circle cx="392" cy="244" r="2"/>
  </g>
  <g stroke="chocolate" stroke-width="1">
    <line x1="118" y1="244" x2="62" y2="198"/>
    <circle cx="118" cy="244" r="2"/>
    <circle cx="62" cy="198" r="2"/>
  </g>
  <g stroke="chocolate" stroke-width="1">
    <line x1="118" y1="244" x2="255" y2="107"/>
    <circle cx="118" cy="244" r="2"/>
    <circle cx="255" cy="107" r="2"/>
  </g>
  <g stroke="chocolate" stroke-width="1">
    <line x1="71" y1="291" x2="118" y2="244"/>
    <circle cx="71" cy="291" r="2"/>
    <circle cx="118" cy="244" r="2"/>
  </g>
  <g stroke="chocolate" stroke-width="1">
    <line x1="97" y1="301" x2="71" y2="291"/>
    <circle cx="97" cy="301" r="2"/>
    <circle cx="71" cy="291" r="2"/>
  </g>
  <g stroke="chocolate" stroke-width="1">
    <line x1="51" y1="357" x2="97" y2="301"/>
    <circle cx="51" cy="357" r="2"/>
    <circle cx="97" cy="301" r="2"/>
  </g>
  <g stroke="chocolate" stroke-width="1">
    <line x1="51" y1="357" x2="90" y2="357"/>
    <circle cx="51" cy="357" r="2"/>
    <circle cx="90" cy="357" r="2"/>
  </g>
  <g stroke="chocolate" stroke-width="1">
    <line x1="60" y1="403" x2="90" y2="357"/>
    <circle cx="60" cy="403" r="2"/>
    <circle cx="90" cy="357" r="2"/>
  </g>
  <g stroke="chocolate" stroke-width="1">
    <line x1="459" y1="357" x2="413" y2="301"/>
    <circle cx="459" cy="357" r="2"/>
    <circle cx="413" cy="301" r="2"/>
  </g>
  <g stroke="chocolate" stroke-width="1">
    <line x1="413" y1="301" x2="439" y2="291"/>
    <circle cx="413" cy="301" r="2"/>
    <circle cx="439" cy="291" r="2"/>
  </g>
  <g stroke="chocolate" stroke-width="1">
    <line x1="362" y1="269" x2="255" y2="107"/>
    <circle cx="362" cy="269" r="2"/>
    <circle cx="255" cy="107" r="2"/>
  </g>
  <g stroke="chocolate" stroke-width="1">
    <line x1="255" y1="357" x2="362" y2="269"/>
    <circle cx="255" cy="357" r="2"/>
    <circle cx="362" cy="269" r="2"/>
  </g>
  <g stroke="chocolate" stroke-width="1">
    <line x1="60" y1="403" x2="51" y2="357"/>
    <circle cx="60" cy="403" r="2"/>
    <circle cx="51" cy="357" r="2"/>
  </g>
  <g stroke="chocolate" stroke-width="1">
    <line x1="71" y1="291" x2="62" y2="198"/>
    <circle cx="71" cy="291" r="2"/>
    <circle cx="62" cy="198" r="2"/>
  </g>
  <g stroke="chocolate" stroke-width="1">
    <line x1="255" y1="357" x2="255" y2="107"/>
    <circle cx="255" cy="357" r="2"/>
    <circle cx="255" cy="107" r="2"/>
  </g>
  <g stroke="chocolate" stroke-width="1">
    <line x1="439" y1="291" x2="448" y2="198"/>
    <circle cx="439" cy="291" r="2"/>
    <circle cx="448" cy="198" r="2"/>
  </g>
  <g stroke="chocolate" stroke-width="1">
    <line x1="450" y1="403" x2="459" y2="357"/>
    <circle cx="450" cy="403" r="2"/>
    <circle cx="459" cy="357" r="2"/>
  </g>
  <g stroke="black" stroke-width="1">
    <line x1="5" y1="5" x2="505" y2="5"/>
    <line x1="5" y1="5" x2="5" y2="505"/>
    <line x1="505" y1="505" x2="5" y2="505"/>
    <line x1="505" y1="505" x2="505" y2="5"/>
    <line x1="105" y1="2" x2="105" y2="8"/>
    <line x1="2" y1="105" x2="8" y2="105"/>
    <line x1="105" y1="502" x2="105" y2="508"/>
    <line x1="502" y1="105" x2="508" y2="105"/>
    <line x1="205" y1="2" x2="205" y2="8"/>
    <line x1="2" y1="205" x2="8" y2="205"/>
    <line x1="205" y1="502" x2="205" y2="508"/>
    <line x1="502" y1="205" x2="508" y2="205"/>
    <line x1="305" y1="2" x2="305" y2="8"/>
    <line x1="2" y1="305" x2="8" y2="305"/>
    <line x1="305" y1="502" x2="305" y2="508"/>
    <line x1="502" y1="305" x2="508" y2="305"/>
    <line x1="405" y1="2" x2="405" y2="8"/>
    <line x1="2" y1="405" x2="8" y2="405"/>
    <line x1="405" y1="502" x2="405" y2="508"/>
    <line x1="502" y1="405" x2="508" y2="405"/>
  </g>
  <g stroke="gray" stroke-width="1" stroke-dasharray="5,5">
    <line x1="105" y1="5" x2="105" y2="505"/>
    <line x1="5" y1="105" x2="505" y2="105"/>
    <line x1="205" y1="5" x2="205" y2="505"/>
    <line x1="5" y1="205" x2="505" y2="205"/>
    <line x1="305" y1="5" x2="305" y2="505"/>
    <line x1="5" y1="305" x2="505" y2="305"/>
    <line x1="405" y1="5" x2="405" y2="505"/>
    <line x1="5" y1="405" x2="505" y2="405"/>
  </g>
</svg>
