<?xml version="1.0" standalone="no"?>
<!DOCTYPE svg PUBLIC "-//W3C//DTD SVG 1.1//EN" 
  "http://www.w3.org/Graphics/SVG/1.1/DTD/svg11.dtd">
<svg width="510" height="510" version="1.1" id="toplevel"
    xmlns="http://www.w3.org/2000/svg"
    xmlns:xlink="http://www.w3.org/1999/xlink">
  <polygon points="149,424 177,336 333,336 361,424 406,336 392,313 468,300 491,253 439,271 255,86 71,271 19,253 42,300 118,313 104,336"
           fill="bisque"/>
  <g stroke="chocolate" stroke-width="1">
    <line x1="185" y1="311" x2="130" y2="292"/>
    <circle cx="185" cy="311" r="2"/>
    <circle cx="130" cy="292" r="2"/>
  </g>
  <g stroke="chocolate" stroke-width="1">
    <line x1="255" y1="336" x2="185" y2="311"/>
    <circle cx="255" cy="336" r="2"/>
    <circle cx="185" cy="311" r="2"/>
  </g>
  <g stroke="chocolate" stroke-width="1">
    <line x1="185" y1="311" x2="255" y2="86"/>
    <circle cx="185" cy="311" r="2"/>
    <circle cx="255" cy="86" r="2"/>
  </g>
  <g stroke="chocolate" stroke-width="1">
    <line x1="181" y1="323" x2="185" y2="311"/>
    <circle cx="181" cy="323" r="2"/>
    <circle cx="185" cy="311" r="2"/>
  </g>
  <g stroke="chocolate" stroke-width="1">
    <line x1="380" y1="292" x2="439" y2="271"/>
    <circle cx="380" cy="292" r="2"/>
    <circle cx="439" cy="271" r="2"/>
  </g>
  <g stroke="chocolate" stroke-width="1">
    <line x1="325" y1="311" x2="380" y2="292"/>
    <circle cx="325" cy="311" r="2"/>
    <circle cx="380" cy="292" r="2"/>
  </g>
  <g stroke="chocolate" stroke-width="1">
    <line x1="380" y1="292" x2="255" y2="86"/>
    <circle cx="380" cy="292" r="2"/>
    <circle cx="255" cy="86" r="2"/>
  </g>
  <g stroke="chocolate" stroke-width="1">
    <line x1="392" y1="313" x2="380" y2="292"/>
    <circle cx="392" cy="313" r="2"/>
    <circle cx="380" cy="292" r="2"/>
  </g>
  <g stroke="chocolate" stroke-width="1">
    <line x1="329" y1="323" x2="325" y2="311"/>
    <circle cx="329" cy="323" r="2"/>
    <circle cx="325" cy="311" r="2"/>
  </g>
  <g stroke="chocolate" stroke-width="1">
    <line x1="333" y1="336" x2="329" y2="323"/>
    <circle cx="333" cy="336" r="2"/>
    <circle cx="329" cy="323" r="2"/>
  </g>
  <g stroke="chocolate" stroke-width="1">
    <line x1="329" y1="323" x2="392" y2="313"/>
    <circle cx="329" cy="323" r="2"/>
    <circle cx="392" cy="313" r="2"/>
  </g>
  <g stroke="chocolate" stroke-width="1">
    <line x1="255" y1="336" x2="329" y2="323"/>
    <circle cx="255" cy="336" r="2"/>
    <circle cx="329" cy="323" r="2"/>
  </g>
  <g stroke="chocolate" stroke-width="1">
    <line x1="130" y1="292" x2="71" y2="271"/>
    <circle cx="130" cy="292" r="2"/>
    <circle cx="71" cy="271" r="2"/>
  </g>
  <g stroke="chocolate" stroke-width="1">
    <line x1="130" y1="292" x2="255" y2="86"/>
    <circle cx="130" cy="292" r="2"/>
    <circle cx="255" cy="86" r="2"/>
  </g>
  <g stroke="chocolate" stroke-width="1">
    <line x1="118" y1="313" x2="130" y2="292"/>
    <circle cx="118" cy="313" r="2"/>
    <circle cx="130" cy="292" r="2"/>
  </g>
  <g stroke="chocolate" stroke-width="1">
    <line x1="181" y1="323" x2="118" y2="313"/>
    <circle cx="181" cy="323" r="2"/>
    <circle cx="118" cy="313" r="2"/>
  </g>
  <g stroke="chocolate" stroke-width="1">
    <line x1="255" y1="336" x2="181" y2="323"/>
    <circle cx="255" cy="336" r="2"/>
    <circle cx="181" cy="323" r="2"/>
  </g>
  <g stroke="chocolate" stroke-width="1">
    <line x1="177" y1="336" x2="181" y2="323"/>
    <circle cx="177" cy="336" r="2"/>
    <circle cx="181" cy="323" r="2"/>
  </g>
  <g stroke="chocolate" stroke-width="1">
    <line x1="333" y1="336" x2="406" y2="336"/>
    <circle cx="333" cy="336" r="2"/>
    <circle cx="406" cy="336" r="2"/>
  </g>
  <g stroke="chocolate" stroke-width="1">
    <line x1="177" y1="336" x2="333" y2="336"/>
    <circle cx="177" cy="336" r="2"/>
    <circle cx="333" cy="336" r="2"/>
  </g>
  <g stroke="chocolate" stroke-width="1">
    <line x1="361" y1="424" x2="333" y2="336"/>
    <circle cx="361" cy="424" r="2"/>
    <circle cx="333" cy="336" r="2"/>
  </g>
  <g stroke="chocolate" stroke-width="1">
    <line x1="439" y1="271" x2="491" y2="253"/>
    <circle cx="439" cy="271" r="2"/>
    <circle cx="491" cy="253" r="2"/>
  </g>
  <g stroke="chocolate" stroke-width="1">
    <line x1="439" y1="271" x2="255" y2="86"/>
    <circle cx="439" cy="271" r="2"/>
    <circle cx="255" cy="86" r="2"/>
  </g>
  <g stroke="chocolate" stroke-width="1">
    <line x1="468" y1="300" x2="439" y2="271"/>
    <circle cx="468" cy="300" r="2"/>
    <circle cx="439" cy="271" r="2"/>
  </g>
  <g stroke="chocolate" stroke-width="1">
    <line x1="71" y1="271" x2="19" y2="253"/>
    <circle cx="71" cy="271" r="2"/>
    <circle cx="19" cy="253" r="2"/>
  </g>
  <g stroke="chocolate" stroke-width="1">
    <line x1="71" y1="271" x2="255" y2="86"/>
    <circle cx="71" cy="271" r="2"/>
    <circle cx="255" cy="86" r="2"/>
  </g>
  <g stroke="chocolate" stroke-width="1">
    <line x1="42" y1="300" x2="71" y2="271"/>
    <circle cx="42" cy="300" r="2"/>
    <circle cx="71" cy="271" r="2"/>
  </g>
  <g stroke="chocolate" stroke-width="1">
    <line x1="406" y1="336" x2="392" y2="313"/>
    <circle cx="406" cy="336" r="2"/>
    <circle cx="392" cy="313" r="2"/>
  </g>
  <g stroke="chocolate" stroke-width="1">
    <line x1="392" y1="313" x2="468" y2="300"/>
    <circle cx="392" cy="313" r="2"/>
    <circle cx="468" cy="300" r="2"/>
  </g>
  <g stroke="chocolate" stroke-width="1">
    <line x1="118" y1="313" x2="42" y2="300"/>
    <circle cx="118" cy="313" r="2"/>
    <circle cx="42" cy="300" r="2"/>
  </g>
  <g stroke="chocolate" stroke-width="1">
    <line x1="104" y1="336" x2="118" y2="313"/>
    <circle cx="104" cy="336" r="2"/>
    <circle cx="118" cy="313" r="2"/>
  </g>
  <g stroke="chocolate" stroke-width="1">
    <line x1="104" y1="336" x2="177" y2="336"/>
    <circle cx="104" cy="336" r="2"/>
    <circle cx="177" cy="336" r="2"/>
  </g>
  <g stroke="chocolate" stroke-width="1">
    <line x1="149" y1="424" x2="177" y2="336"/>
    <circle cx="149" cy="424" r="2"/>
    <circle cx="177" cy="336" r="2"/>
  </g>
  <g stroke="chocolate" stroke-width="1">
    <line x1="325" y1="311" x2="255" y2="86"/>
    <circle cx="325" cy="311" r="2"/>
    <circle cx="255" cy="86" r="2"/>
  </g>
  <g stroke="chocolate" stroke-width="1">
    <line x1="255" y1="336" x2="325" y2="311"/>
    <circle cx="255" cy="336" r="2"/>
    <circle cx="325" cy="311" r="2"/>
  </g>
  <g stroke="chocolate" stroke-width="1">
    <line x1="149" y1="424" x2="104" y2="336"/>
    <circle cx="149" cy="424" r="2"/>
    <circle cx="104" cy="336" r="2"/>
  </g>
  <g stroke="chocolate" stroke-width="1">
    <line x1="42" y1="300" x2="19" y2="253"/>
    <circle cx="42" cy="300" r="2"/>
    <circle cx="19" cy="253" r="2"/>
  </g>
  <g stroke="chocolate" stroke-width="1">
    <line x1="255" y1="336" x2="255" y2="86"/>
    <circle cx="255" cy="336" r="2"/>
    <circle cx="255" cy="86" r="2"/>
  </g>
  <g stroke="chocolate" stroke-width="1">
    <line x1="361" y1="424" x2="406" y2="336"/>
    <circle cx="361" cy="424" r="2"/>
    <circle cx="406" cy="336" r="2"/>
  </g>
  <g stroke="chocolate" stroke-width="1">
    <line x1="468" y1="300" x2="491" y2="253"/>
    <circle cx="468" cy="300" r="2"/>
    <circle cx="491" cy="253" r="2"/>
  </g>
  <g stroke="black" stroke-width="1">
    <line x1="5" y1="5" x2="505" y2="5"/>
    <line x1="5" y1="5" x2="5" y2="505"/>
    <line x1="505" y1="505" x2="5" y2="505"/>
    <line x1="505" y1="505" x2="505" y2="5"/>
    <line x1="105" y1="2" x2="105" y2="8"/>
    <line x1="2" y1="105" x2="8" y2="105"/>
    <line x1="105" y1="502" x2="105" y2="508"/>
    <line x1="502" y1="105" x2="508" y2="105"/>
    <line x1="205" y1="2" x2="205" y2="8"/>
    <line x1="2" y1="205" x2="8" y2="205"/>
    <line x1="205" y1="502" x2="205" y2="508"/>
    <line x1="502" y1="205" x2="508" y2="205"/>
    <line x1="305" y1="2" x2="305" y2="8"/>
    <line x1="2" y1="305" x2="8" y2="305"/>
    <line x1="305" y1="502" x2="305" y2="508"/>
    <line x1="502" y1="305" x2="508" y2="305"/>
    <line x1="405" y1="2" x2="405" y2="8"/>
    <line x1="2" y1="405" x2="8" y2="405"/>
    <line x1="405" y1="502" x2="405" y2="508"/>
    <line x1="502" y1="405" x2="508" y2="405"/>
  </g>
  <g stroke="gray" stroke-width="1" stroke-dasharray="5,5">
    <line x1="105" y1="5" x2="105" y2="505"/>
    <line x1="5" y1="105" x2="505" y2="105"/>
    <line x1="205" y1="5" x2="205" y2="505"/>
    <line x1="5" y1="205" x2="505" y2="205"/>
    <line x1="305" y1="5" x2="305" y2="505"/>
    <line x1="5" y1="305" x2="505" y2="305"/>
    <line x1="405" y1="5" x2="405" y2="505"/>
    <line x1="5" y1="405" x2="505" y2="405"/>
  </g>
</svg>
