<?xml version="1.0" standalone="no"?>
<!DOCTYPE svg PUBLIC "-//W3C//DTD SVG 1.1//EN" 
  "http://www.w3.org/Graphics/SVG/1.1/DTD/svg11.dtd">
<svg width="510" height="510" version="1.1" id="toplevel"
    xmlns="http://www.w3.org/2000/svg"
    xmlns:xlink="http://www.w3.org/1999/xlink">
  <polygon points="60,403 90,357 420,357 450,403 459,357 434,327 468,321 491,274 439,292 255,107 71,292 19,274 42,321 76,327 51,357"
           fill="bisque"/>
  <g stroke="chocolate" stroke-width="1">
    <line x1="121" y1="310" x2="97" y2="301"/>
    <circle cx="121" cy="310" r="2"/>
    <circle cx="97" cy="301" r="2"/>
  </g>
  <g stroke="chocolate" stroke-width="1">
    <line x1="255" y1="357" x2="121" y2="310"/>
    <circle cx="255" cy="357" r="2"/>
    <circle cx="121" cy="310" r="2"/>
  </g>
  <g stroke="chocolate" stroke-width="1">
    <line x1="121" y1="310" x2="255" y2="107"/>
    <circle cx="121" cy="310" r="2"/>
    <circle cx="255" cy="107" r="2"/>
  </g>
  <g stroke="chocolate" stroke-width="1">
    <line x1="107" y1="332" x2="121" y2="310"/>
    <circle cx="107" cy="332" r="2"/>
    <circle cx="121" cy="310" r="2"/>
  </g>
  <g stroke="chocolate" stroke-width="1">
    <line x1="97" y1="301" x2="71" y2="292"/>
    <circle cx="97" cy="301" r="2"/>
    <circle cx="71" cy="292" r="2"/>
  </g>
  <g stroke="chocolate" stroke-width="1">
    <line x1="97" y1="301" x2="255" y2="107"/>
    <circle cx="97" cy="301" r="2"/>
    <circle cx="255" cy="107" r="2"/>
  </g>
  <g stroke="chocolate" stroke-width="1">
    <line x1="76" y1="327" x2="97" y2="301"/>
    <circle cx="76" cy="327" r="2"/>
    <circle cx="97" cy="301" r="2"/>
  </g>
  <g stroke="chocolate" stroke-width="1">
    <line x1="420" y1="357" x2="403" y2="332"/>
    <circle cx="420" cy="357" r="2"/>
    <circle cx="403" cy="332" r="2"/>
  </g>
  <g stroke="chocolate" stroke-width="1">
    <line x1="450" y1="403" x2="420" y2="357"/>
    <circle cx="450" cy="403" r="2"/>
    <circle cx="420" cy="357" r="2"/>
  </g>
  <g stroke="chocolate" stroke-width="1">
    <line x1="420" y1="357" x2="459" y2="357"/>
    <circle cx="420" cy="357" r="2"/>
    <circle cx="459" cy="357" r="2"/>
  </g>
  <g stroke="chocolate" stroke-width="1">
    <line x1="90" y1="357" x2="420" y2="357"/>
    <circle cx="90" cy="357" r="2"/>
    <circle cx="420" cy="357" r="2"/>
  </g>
  <g stroke="chocolate" stroke-width="1">
    <line x1="107" y1="332" x2="76" y2="327"/>
    <circle cx="107" cy="332" r="2"/>
    <circle cx="76" cy="327" r="2"/>
  </g>
  <g stroke="chocolate" stroke-width="1">
    <line x1="255" y1="357" x2="107" y2="332"/>
    <circle cx="255" cy="357" r="2"/>
    <circle cx="107" cy="332" r="2"/>
  </g>
  <g stroke="chocolate" stroke-width="1">
    <line x1="90" y1="357" x2="107" y2="332"/>
    <circle cx="90" cy="357" r="2"/>
    <circle cx="107" cy="332" r="2"/>
  </g>
  <g stroke="chocolate" stroke-width="1">
    <line x1="413" y1="301" x2="439" y2="292"/>
    <circle cx="413" cy="301" r="2"/>
    <circle cx="439" cy="292" r="2"/>
  </g>
  <g stroke="chocolate" stroke-width="1">
    <line x1="389" y1="310" x2="413" y2="301"/>
    <circle cx="389" cy="310" r="2"/>
    <circle cx="413" cy="301" r="2"/>
  </g>
  <g stroke="chocolate" stroke-width="1">
    <line x1="413" y1="301" x2="255" y2="107"/>
    <circle cx="413" cy="301" r="2"/>
    <circle cx="255" cy="107" r="2"/>
  </g>
  <g stroke="chocolate" stroke-width="1">
    <line x1="434" y1="327" x2="413" y2="301"/>
    <circle cx="434" cy="327" r="2"/>
    <circle cx="413" cy="301" r="2"/>
  </g>
  <g stroke="chocolate" stroke-width="1">
    <line x1="403" y1="332" x2="434" y2="327"/>
    <circle cx="403" cy="332" r="2"/>
    <circle cx="434" cy="327" r="2"/>
  </g>
  <g stroke="chocolate" stroke-width="1">
    <line x1="255" y1="357" x2="403" y2="332"/>
    <circle cx="255" cy="357" r="2"/>
    <circle cx="403" cy="332" r="2"/>
  </g>
  <g stroke="chocolate" stroke-width="1">
    <line x1="403" y1="332" x2="389" y2="310"/>
    <circle cx="403" cy="332" r="2"/>
    <circle cx="389" cy="310" r="2"/>
  </g>
  <g stroke="chocolate" stroke-width="1">
    <line x1="439" y1="292" x2="491" y2="274"/>
    <circle cx="439" cy="292" r="2"/>
    <circle cx="491" cy="274" r="2"/>
  </g>
  <g stroke="chocolate" stroke-width="1">
    <line x1="439" y1="292" x2="255" y2="107"/>
    <circle cx="439" cy="292" r="2"/>
    <circle cx="255" cy="107" r="2"/>
  </g>
  <g stroke="chocolate" stroke-width="1">
    <line x1="468" y1="321" x2="439" y2="292"/>
    <circle cx="468" cy="321" r="2"/>
    <circle cx="439" cy="292" r="2"/>
  </g>
  <g stroke="chocolate" stroke-width="1">
    <line x1="71" y1="292" x2="19" y2="274"/>
    <circle cx="71" cy="292" r="2"/>
    <circle cx="19" cy="274" r="2"/>
  </g>
  <g stroke="chocolate" stroke-width="1">
    <line x1="71" y1="292" x2="255" y2="107"/>
    <circle cx="71" cy="292" r="2"/>
    <circle cx="255" cy="107" r="2"/>
  </g>
  <g stroke="chocolate" stroke-width="1">
    <line x1="42" y1="321" x2="71" y2="292"/>
    <circle cx="42" cy="321" r="2"/>
    <circle cx="71" cy="292" r="2"/>
  </g>
  <g stroke="chocolate" stroke-width="1">
    <line x1="76" y1="327" x2="42" y2="321"/>
    <circle cx="76" cy="327" r="2"/>
    <circle cx="42" cy="321" r="2"/>
  </g>
  <g stroke="chocolate" stroke-width="1">
    <line x1="51" y1="357" x2="76" y2="327"/>
    <circle cx="51" cy="357" r="2"/>
    <circle cx="76" cy="327" r="2"/>
  </g>
  <g stroke="chocolate" stroke-width="1">
    <line x1="51" y1="357" x2="90" y2="357"/>
    <circle cx="51" cy="357" r="2"/>
    <circle cx="90" cy="357" r="2"/>
  </g>
  <g stroke="chocolate" stroke-width="1">
    <line x1="60" y1="403" x2="90" y2="357"/>
    <circle cx="60" cy="403" r="2"/>
    <circle cx="90" cy="357" r="2"/>
  </g>
  <g stroke="chocolate" stroke-width="1">
    <line x1="459" y1="357" x2="434" y2="327"/>
    <circle cx="459" cy="357" r="2"/>
    <circle cx="434" cy="327" r="2"/>
  </g>
  <g stroke="chocolate" stroke-width="1">
    <line x1="434" y1="327" x2="468" y2="321"/>
    <circle cx="434" cy="327" r="2"/>
    <circle cx="468" cy="321" r="2"/>
  </g>
  <g stroke="chocolate" stroke-width="1">
    <line x1="389" y1="310" x2="255" y2="107"/>
    <circle cx="389" cy="310" r="2"/>
    <circle cx="255" cy="107" r="2"/>
  </g>
  <g stroke="chocolate" stroke-width="1">
    <line x1="255" y1="357" x2="389" y2="310"/>
    <circle cx="255" cy="357" r="2"/>
    <circle cx="389" cy="310" r="2"/>
  </g>
  <g stroke="chocolate" stroke-width="1">
    <line x1="42" y1="321" x2="19" y2="274"/>
    <circle cx="42" cy="321" r="2"/>
    <circle cx="19" cy="274" r="2"/>
  </g>
  <g stroke="chocolate" stroke-width="1">
    <line x1="60" y1="403" x2="51" y2="357"/>
    <circle cx="60" cy="403" r="2"/>
    <circle cx="51" cy="357" r="2"/>
  </g>
  <g stroke="chocolate" stroke-width="1">
    <line x1="255" y1="357" x2="255" y2="107"/>
    <circle cx="255" cy="357" r="2"/>
    <circle cx="255" cy="107" r="2"/>
  </g>
  <g stroke="chocolate" stroke-width="1">
    <line x1="450" y1="403" x2="459" y2="357"/>
    <circle cx="450" cy="403" r="2"/>
    <circle cx="459" cy="357" r="2"/>
  </g>
  <g stroke="chocolate" stroke-width="1">
    <line x1="468" y1="321" x2="491" y2="274"/>
    <circle cx="468" cy="321" r="2"/>
    <circle cx="491" cy="274" r="2"/>
  </g>
  <g stroke="black" stroke-width="1">
    <line x1="5" y1="5" x2="505" y2="5"/>
    <line x1="5" y1="5" x2="5" y2="505"/>
    <line x1="505" y1="505" x2="5" y2="505"/>
    <line x1="505" y1="505" x2="505" y2="5"/>
    <line x1="105" y1="2" x2="105" y2="8"/>
    <line x1="2" y1="105" x2="8" y2="105"/>
    <line x1="105" y1="502" x2="105" y2="508"/>
    <line x1="502" y1="105" x2="508" y2="105"/>
    <line x1="205" y1="2" x2="205" y2="8"/>
    <line x1="2" y1="205" x2="8" y2="205"/>
    <line x1="205" y1="502" x2="205" y2="508"/>
    <line x1="502" y1="205" x2="508" y2="205"/>
    <line x1="305" y1="2" x2="305" y2="8"/>
    <line x1="2" y1="305" x2="8" y2="305"/>
    <line x1="305" y1="502" x2="305" y2="508"/>
    <line x1="502" y1="305" x2="508" y2="305"/>
    <line x1="405" y1="2" x2="405" y2="8"/>
    <line x1="2" y1="405" x2="8" y2="405"/>
    <line x1="405" y1="502" x2="405" y2="508"/>
    <line x1="502" y1="405" x2="508" y2="405"/>
  </g>
  <g stroke="gray" stroke-width="1" stroke-dasharray="5,5">
    <line x1="105" y1="5" x2="105" y2="505"/>
    <line x1="5" y1="105" x2="505" y2="105"/>
    <line x1="205" y1="5" x2="205" y2="505"/>
    <line x1="5" y1="205" x2="505" y2="205"/>
    <line x1="305" y1="5" x2="305" y2="505"/>
    <line x1="5" y1="305" x2="505" y2="305"/>
    <line x1="405" y1="5" x2="405" y2="505"/>
    <line x1="5" y1="405" x2="505" y2="405"/>
  </g>
</svg>
