<?xml version="1.0" standalone="no"?>
<!DOCTYPE svg PUBLIC "-//W3C//DTD SVG 1.1//EN" 
  "http://www.w3.org/Graphics/SVG/1.1/DTD/svg11.dtd">
<svg width="510" height="510" version="1.1" id="toplevel"
    xmlns="http://www.w3.org/2000/svg"
    xmlns:xlink="http://www.w3.org/1999/xlink">
  <polygon points="26,390 43,370 467,370 484,390 485,370 454,336 468,333 491,286 439,305 255,120 71,305 19,286 42,333 56,336 25,370"
           fill="bisque"/>
  <g stroke="chocolate" stroke-width="1">
    <line x1="92" y1="312" x2="82" y2="309"/>
    <circle cx="92" cy="312" r="2"/>
    <circle cx="82" cy="309" r="2"/>
  </g>
  <g stroke="chocolate" stroke-width="1">
    <line x1="255" y1="370" x2="92" y2="312"/>
    <circle cx="255" cy="370" r="2"/>
    <circle cx="92" cy="312" r="2"/>
  </g>
  <g stroke="chocolate" stroke-width="1">
    <line x1="92" y1="312" x2="255" y2="120"/>
    <circle cx="92" cy="312" r="2"/>
    <circle cx="255" cy="120" r="2"/>
  </g>
  <g stroke="chocolate" stroke-width="1">
    <line x1="70" y1="338" x2="92" y2="312"/>
    <circle cx="70" cy="338" r="2"/>
    <circle cx="92" cy="312" r="2"/>
  </g>
  <g stroke="chocolate" stroke-width="1">
    <line x1="82" y1="309" x2="71" y2="305"/>
    <circle cx="82" cy="309" r="2"/>
    <circle cx="71" cy="305" r="2"/>
  </g>
  <g stroke="chocolate" stroke-width="1">
    <line x1="82" y1="309" x2="255" y2="120"/>
    <circle cx="82" cy="309" r="2"/>
    <circle cx="255" cy="120" r="2"/>
  </g>
  <g stroke="chocolate" stroke-width="1">
    <line x1="56" y1="336" x2="82" y2="309"/>
    <circle cx="56" cy="336" r="2"/>
    <circle cx="82" cy="309" r="2"/>
  </g>
  <g stroke="chocolate" stroke-width="1">
    <line x1="467" y1="370" x2="440" y2="338"/>
    <circle cx="467" cy="370" r="2"/>
    <circle cx="440" cy="338" r="2"/>
  </g>
  <g stroke="chocolate" stroke-width="1">
    <line x1="484" y1="390" x2="467" y2="370"/>
    <circle cx="484" cy="390" r="2"/>
    <circle cx="467" cy="370" r="2"/>
  </g>
  <g stroke="chocolate" stroke-width="1">
    <line x1="467" y1="370" x2="485" y2="370"/>
    <circle cx="467" cy="370" r="2"/>
    <circle cx="485" cy="370" r="2"/>
  </g>
  <g stroke="chocolate" stroke-width="1">
    <line x1="43" y1="370" x2="467" y2="370"/>
    <circle cx="43" cy="370" r="2"/>
    <circle cx="467" cy="370" r="2"/>
  </g>
  <g stroke="chocolate" stroke-width="1">
    <line x1="70" y1="338" x2="56" y2="336"/>
    <circle cx="70" cy="338" r="2"/>
    <circle cx="56" cy="336" r="2"/>
  </g>
  <g stroke="chocolate" stroke-width="1">
    <line x1="255" y1="370" x2="70" y2="338"/>
    <circle cx="255" cy="370" r="2"/>
    <circle cx="70" cy="338" r="2"/>
  </g>
  <g stroke="chocolate" stroke-width="1">
    <line x1="43" y1="370" x2="70" y2="338"/>
    <circle cx="43" cy="370" r="2"/>
    <circle cx="70" cy="338" r="2"/>
  </g>
  <g stroke="chocolate" stroke-width="1">
    <line x1="428" y1="309" x2="439" y2="305"/>
    <circle cx="428" cy="309" r="2"/>
    <circle cx="439" cy="305" r="2"/>
  </g>
  <g stroke="chocolate" stroke-width="1">
    <line x1="418" y1="312" x2="428" y2="309"/>
    <circle cx="418" cy="312" r="2"/>
    <circle cx="428" cy="309" r="2"/>
  </g>
  <g stroke="chocolate" stroke-width="1">
    <line x1="428" y1="309" x2="255" y2="120"/>
    <circle cx="428" cy="309" r="2"/>
    <circle cx="255" cy="120" r="2"/>
  </g>
  <g stroke="chocolate" stroke-width="1">
    <line x1="454" y1="336" x2="428" y2="309"/>
    <circle cx="454" cy="336" r="2"/>
    <circle cx="428" cy="309" r="2"/>
  </g>
  <g stroke="chocolate" stroke-width="1">
    <line x1="440" y1="338" x2="454" y2="336"/>
    <circle cx="440" cy="338" r="2"/>
    <circle cx="454" cy="336" r="2"/>
  </g>
  <g stroke="chocolate" stroke-width="1">
    <line x1="255" y1="370" x2="440" y2="338"/>
    <circle cx="255" cy="370" r="2"/>
    <circle cx="440" cy="338" r="2"/>
  </g>
  <g stroke="chocolate" stroke-width="1">
    <line x1="440" y1="338" x2="418" y2="312"/>
    <circle cx="440" cy="338" r="2"/>
    <circle cx="418" cy="312" r="2"/>
  </g>
  <g stroke="chocolate" stroke-width="1">
    <line x1="439" y1="305" x2="491" y2="286"/>
    <circle cx="439" cy="305" r="2"/>
    <circle cx="491" cy="286" r="2"/>
  </g>
  <g stroke="chocolate" stroke-width="1">
    <line x1="439" y1="305" x2="255" y2="120"/>
    <circle cx="439" cy="305" r="2"/>
    <circle cx="255" cy="120" r="2"/>
  </g>
  <g stroke="chocolate" stroke-width="1">
    <line x1="468" y1="333" x2="439" y2="305"/>
    <circle cx="468" cy="333" r="2"/>
    <circle cx="439" cy="305" r="2"/>
  </g>
  <g stroke="chocolate" stroke-width="1">
    <line x1="71" y1="305" x2="19" y2="286"/>
    <circle cx="71" cy="305" r="2"/>
    <circle cx="19" cy="286" r="2"/>
  </g>
  <g stroke="chocolate" stroke-width="1">
    <line x1="71" y1="305" x2="255" y2="120"/>
    <circle cx="71" cy="305" r="2"/>
    <circle cx="255" cy="120" r="2"/>
  </g>
  <g stroke="chocolate" stroke-width="1">
    <line x1="42" y1="333" x2="71" y2="305"/>
    <circle cx="42" cy="333" r="2"/>
    <circle cx="71" cy="305" r="2"/>
  </g>
  <g stroke="chocolate" stroke-width="1">
    <line x1="56" y1="336" x2="42" y2="333"/>
    <circle cx="56" cy="336" r="2"/>
    <circle cx="42" cy="333" r="2"/>
  </g>
  <g stroke="chocolate" stroke-width="1">
    <line x1="25" y1="370" x2="56" y2="336"/>
    <circle cx="25" cy="370" r="2"/>
    <circle cx="56" cy="336" r="2"/>
  </g>
  <g stroke="chocolate" stroke-width="1">
    <line x1="25" y1="370" x2="43" y2="370"/>
    <circle cx="25" cy="370" r="2"/>
    <circle cx="43" cy="370" r="2"/>
  </g>
  <g stroke="chocolate" stroke-width="1">
    <line x1="26" y1="390" x2="43" y2="370"/>
    <circle cx="26" cy="390" r="2"/>
    <circle cx="43" cy="370" r="2"/>
  </g>
  <g stroke="chocolate" stroke-width="1">
    <line x1="485" y1="370" x2="454" y2="336"/>
    <circle cx="485" cy="370" r="2"/>
    <circle cx="454" cy="336" r="2"/>
  </g>
  <g stroke="chocolate" stroke-width="1">
    <line x1="454" y1="336" x2="468" y2="333"/>
    <circle cx="454" cy="336" r="2"/>
    <circle cx="468" cy="333" r="2"/>
  </g>
  <g stroke="chocolate" stroke-width="1">
    <line x1="418" y1="312" x2="255" y2="120"/>
    <circle cx="418" cy="312" r="2"/>
    <circle cx="255" cy="120" r="2"/>
  </g>
  <g stroke="chocolate" stroke-width="1">
    <line x1="255" y1="370" x2="418" y2="312"/>
    <circle cx="255" cy="370" r="2"/>
    <circle cx="418" cy="312" r="2"/>
  </g>
  <g stroke="chocolate" stroke-width="1">
    <line x1="42" y1="333" x2="19" y2="286"/>
    <circle cx="42" cy="333" r="2"/>
    <circle cx="19" cy="286" r="2"/>
  </g>
  <g stroke="chocolate" stroke-width="1">
    <line x1="26" y1="390" x2="25" y2="370"/>
    <circle cx="26" cy="390" r="2"/>
    <circle cx="25" cy="370" r="2"/>
  </g>
  <g stroke="chocolate" stroke-width="1">
    <line x1="255" y1="370" x2="255" y2="120"/>
    <circle cx="255" cy="370" r="2"/>
    <circle cx="255" cy="120" r="2"/>
  </g>
  <g stroke="chocolate" stroke-width="1">
    <line x1="484" y1="390" x2="485" y2="370"/>
    <circle cx="484" cy="390" r="2"/>
    <circle cx="485" cy="370" r="2"/>
  </g>
  <g stroke="chocolate" stroke-width="1">
    <line x1="468" y1="333" x2="491" y2="286"/>
    <circle cx="468" cy="333" r="2"/>
    <circle cx="491" cy="286" r="2"/>
  </g>
  <g stroke="black" stroke-width="1">
    <line x1="5" y1="5" x2="505" y2="5"/>
    <line x1="5" y1="5" x2="5" y2="505"/>
    <line x1="505" y1="505" x2="5" y2="505"/>
    <line x1="505" y1="505" x2="505" y2="5"/>
    <line x1="105" y1="2" x2="105" y2="8"/>
    <line x1="2" y1="105" x2="8" y2="105"/>
    <line x1="105" y1="502" x2="105" y2="508"/>
    <line x1="502" y1="105" x2="508" y2="105"/>
    <line x1="205" y1="2" x2="205" y2="8"/>
    <line x1="2" y1="205" x2="8" y2="205"/>
    <line x1="205" y1="502" x2="205" y2="508"/>
    <line x1="502" y1="205" x2="508" y2="205"/>
    <line x1="305" y1="2" x2="305" y2="8"/>
    <line x1="2" y1="305" x2="8" y2="305"/>
    <line x1="305" y1="502" x2="305" y2="508"/>
    <line x1="502" y1="305" x2="508" y2="305"/>
    <line x1="405" y1="2" x2="405" y2="8"/>
    <line x1="2" y1="405" x2="8" y2="405"/>
    <line x1="405" y1="502" x2="405" y2="508"/>
    <line x1="502" y1="405" x2="508" y2="405"/>
  </g>
  <g stroke="gray" stroke-width="1" stroke-dasharray="5,5">
    <line x1="105" y1="5" x2="105" y2="505"/>
    <line x1="5" y1="105" x2="505" y2="105"/>
    <line x1="205" y1="5" x2="205" y2="505"/>
    <line x1="5" y1="205" x2="505" y2="205"/>
    <line x1="305" y1="5" x2="305" y2="505"/>
    <line x1="5" y1="305" x2="505" y2="305"/>
    <line x1="405" y1="5" x2="405" y2="505"/>
    <line x1="5" y1="405" x2="505" y2="405"/>
  </g>
</svg>
