<?xml version="1.0" standalone="no"?>
<!DOCTYPE svg PUBLIC "-//W3C//DTD SVG 1.1//EN" 
  "http://www.w3.org/Graphics/SVG/1.1/DTD/svg11.dtd">
<svg width="510" height="510" version="1.1" id="toplevel"
    xmlns="http://www.w3.org/2000/svg"
    xmlns:xlink="http://www.w3.org/1999/xlink">
  <polygon points="259,475 317,469 440,87 412,35 161,47 70,96 171,337 210,372"
           fill="bisque"/>
  <g stroke="chocolate" stroke-width="1">
    <line x1="176" y1="215" x2="211" y2="198"/>
    <circle cx="176" cy="215" r="2"/>
    <circle cx="211" cy="198" r="2"/>
  </g>
  <g stroke="chocolate" stroke-width="1">
    <line x1="142" y1="231" x2="176" y2="215"/>
    <circle cx="142" cy="231" r="2"/>
    <circle cx="176" cy="215" r="2"/>
  </g>
  <g stroke="chocolate" stroke-width="1">
    <line x1="176" y1="215" x2="177" y2="184"/>
    <circle cx="176" cy="215" r="2"/>
    <circle cx="177" cy="184" r="2"/>
  </g>
  <g stroke="chocolate" stroke-width="1">
    <line x1="172" y1="295" x2="176" y2="215"/>
    <circle cx="172" cy="295" r="2"/>
    <circle cx="176" cy="215" r="2"/>
  </g>
  <g stroke="chocolate" stroke-width="1">
    <line x1="211" y1="198" x2="177" y2="184"/>
    <circle cx="211" cy="198" r="2"/>
    <circle cx="177" cy="184" r="2"/>
  </g>
  <g stroke="chocolate" stroke-width="1">
    <line x1="382" y1="269" x2="211" y2="198"/>
    <circle cx="382" cy="269" r="2"/>
    <circle cx="211" cy="198" r="2"/>
  </g>
  <g stroke="chocolate" stroke-width="1">
    <line x1="211" y1="198" x2="354" y2="129"/>
    <circle cx="211" cy="198" r="2"/>
    <circle cx="354" cy="129" r="2"/>
  </g>
  <g stroke="chocolate" stroke-width="1">
    <line x1="141" y1="170" x2="127" y2="164"/>
    <circle cx="141" cy="170" r="2"/>
    <circle cx="127" cy="164" r="2"/>
  </g>
  <g stroke="chocolate" stroke-width="1">
    <line x1="158" y1="176" x2="141" y2="170"/>
    <circle cx="158" cy="176" r="2"/>
    <circle cx="141" cy="170" r="2"/>
  </g>
  <g stroke="chocolate" stroke-width="1">
    <line x1="141" y1="170" x2="139" y2="140"/>
    <circle cx="141" cy="170" r="2"/>
    <circle cx="139" cy="140" r="2"/>
  </g>
  <g stroke="chocolate" stroke-width="1">
    <line x1="142" y1="179" x2="141" y2="170"/>
    <circle cx="142" cy="179" r="2"/>
    <circle cx="141" cy="170" r="2"/>
  </g>
  <g stroke="chocolate" stroke-width="1">
    <line x1="210" y1="372" x2="172" y2="295"/>
    <circle cx="210" cy="372" r="2"/>
    <circle cx="172" cy="295" r="2"/>
  </g>
  <g stroke="chocolate" stroke-width="1">
    <line x1="259" y1="475" x2="210" y2="372"/>
    <circle cx="259" cy="475" r="2"/>
    <circle cx="210" cy="372" r="2"/>
  </g>
  <g stroke="chocolate" stroke-width="1">
    <line x1="210" y1="372" x2="171" y2="337"/>
    <circle cx="210" cy="372" r="2"/>
    <circle cx="171" cy="337" r="2"/>
  </g>
  <g stroke="chocolate" stroke-width="1">
    <line x1="271" y1="427" x2="210" y2="372"/>
    <circle cx="271" cy="427" r="2"/>
    <circle cx="210" cy="372" r="2"/>
  </g>
  <g stroke="chocolate" stroke-width="1">
    <line x1="98" y1="134" x2="96" y2="132"/>
    <circle cx="98" cy="134" r="2"/>
    <circle cx="96" cy="132" r="2"/>
  </g>
  <g stroke="chocolate" stroke-width="1">
    <line x1="127" y1="164" x2="98" y2="134"/>
    <circle cx="127" cy="164" r="2"/>
    <circle cx="98" cy="134" r="2"/>
  </g>
  <g stroke="chocolate" stroke-width="1">
    <line x1="98" y1="134" x2="99" y2="131"/>
    <circle cx="98" cy="134" r="2"/>
    <circle cx="99" cy="131" r="2"/>
  </g>
  <g stroke="chocolate" stroke-width="1">
    <line x1="92" y1="149" x2="98" y2="134"/>
    <circle cx="92" cy="149" r="2"/>
    <circle cx="98" cy="134" r="2"/>
  </g>
  <g stroke="chocolate" stroke-width="1">
    <line x1="123" y1="129" x2="76" y2="94"/>
    <circle cx="123" cy="129" r="2"/>
    <circle cx="76" cy="94" r="2"/>
  </g>
  <g stroke="chocolate" stroke-width="1">
    <line x1="139" y1="140" x2="123" y2="129"/>
    <circle cx="139" cy="140" r="2"/>
    <circle cx="123" cy="129" r="2"/>
  </g>
  <g stroke="chocolate" stroke-width="1">
    <line x1="123" y1="129" x2="137" y2="128"/>
    <circle cx="123" cy="129" r="2"/>
    <circle cx="137" cy="128" r="2"/>
  </g>
  <g stroke="chocolate" stroke-width="1">
    <line x1="99" y1="131" x2="123" y2="129"/>
    <circle cx="99" cy="131" r="2"/>
    <circle cx="123" cy="129" r="2"/>
  </g>
  <g stroke="chocolate" stroke-width="1">
    <line x1="96" y1="132" x2="91" y2="127"/>
    <circle cx="96" cy="132" r="2"/>
    <circle cx="91" cy="127" r="2"/>
  </g>
  <g stroke="chocolate" stroke-width="1">
    <line x1="96" y1="132" x2="99" y2="131"/>
    <circle cx="96" cy="132" r="2"/>
    <circle cx="99" cy="131" r="2"/>
  </g>
  <g stroke="chocolate" stroke-width="1">
    <line x1="85" y1="133" x2="96" y2="132"/>
    <circle cx="85" cy="133" r="2"/>
    <circle cx="96" cy="132" r="2"/>
  </g>
  <g stroke="chocolate" stroke-width="1">
    <line x1="142" y1="179" x2="127" y2="164"/>
    <circle cx="142" cy="179" r="2"/>
    <circle cx="127" cy="164" r="2"/>
  </g>
  <g stroke="chocolate" stroke-width="1">
    <line x1="127" y1="164" x2="92" y2="149"/>
    <circle cx="127" cy="164" r="2"/>
    <circle cx="92" cy="149" r="2"/>
  </g>
  <g stroke="chocolate" stroke-width="1">
    <line x1="177" y1="184" x2="178" y2="169"/>
    <circle cx="177" cy="184" r="2"/>
    <circle cx="178" cy="169" r="2"/>
  </g>
  <g stroke="chocolate" stroke-width="1">
    <line x1="177" y1="184" x2="158" y2="176"/>
    <circle cx="177" cy="184" r="2"/>
    <circle cx="158" cy="176" r="2"/>
  </g>
  <g stroke="chocolate" stroke-width="1">
    <line x1="354" y1="129" x2="377" y2="118"/>
    <circle cx="354" cy="129" r="2"/>
    <circle cx="377" cy="118" r="2"/>
  </g>
  <g stroke="chocolate" stroke-width="1">
    <line x1="354" y1="129" x2="161" y2="47"/>
    <circle cx="354" cy="129" r="2"/>
    <circle cx="161" cy="47" r="2"/>
  </g>
  <g stroke="chocolate" stroke-width="1">
    <line x1="370" y1="135" x2="354" y2="129"/>
    <circle cx="370" cy="135" r="2"/>
    <circle cx="354" cy="129" r="2"/>
  </g>
  <g stroke="chocolate" stroke-width="1">
    <line x1="178" y1="169" x2="139" y2="140"/>
    <circle cx="178" cy="169" r="2"/>
    <circle cx="139" cy="140" r="2"/>
  </g>
  <g stroke="chocolate" stroke-width="1">
    <line x1="139" y1="140" x2="137" y2="128"/>
    <circle cx="139" cy="140" r="2"/>
    <circle cx="137" cy="128" r="2"/>
  </g>
  <g stroke="chocolate" stroke-width="1">
    <line x1="172" y1="295" x2="142" y2="231"/>
    <circle cx="172" cy="295" r="2"/>
    <circle cx="142" cy="231" r="2"/>
  </g>
  <g stroke="chocolate" stroke-width="1">
    <line x1="171" y1="337" x2="172" y2="295"/>
    <circle cx="171" cy="337" r="2"/>
    <circle cx="172" cy="295" r="2"/>
  </g>
  <g stroke="chocolate" stroke-width="1">
    <line x1="317" y1="469" x2="271" y2="427"/>
    <circle cx="317" cy="469" r="2"/>
    <circle cx="271" cy="427" r="2"/>
  </g>
  <g stroke="chocolate" stroke-width="1">
    <line x1="271" y1="427" x2="312" y2="252"/>
    <circle cx="271" cy="427" r="2"/>
    <circle cx="312" cy="252" r="2"/>
  </g>
  <g stroke="chocolate" stroke-width="1">
    <line x1="259" y1="475" x2="271" y2="427"/>
    <circle cx="259" cy="475" r="2"/>
    <circle cx="271" cy="427" r="2"/>
  </g>
  <g stroke="chocolate" stroke-width="1">
    <line x1="99" y1="131" x2="105" y2="116"/>
    <circle cx="99" cy="131" r="2"/>
    <circle cx="105" cy="116" r="2"/>
  </g>
  <g stroke="chocolate" stroke-width="1">
    <line x1="91" y1="127" x2="76" y2="112"/>
    <circle cx="91" cy="127" r="2"/>
    <circle cx="76" cy="112" r="2"/>
  </g>
  <g stroke="chocolate" stroke-width="1">
    <line x1="91" y1="127" x2="105" y2="116"/>
    <circle cx="91" cy="127" r="2"/>
    <circle cx="105" cy="116" r="2"/>
  </g>
  <g stroke="chocolate" stroke-width="1">
    <line x1="85" y1="133" x2="91" y2="127"/>
    <circle cx="85" cy="133" r="2"/>
    <circle cx="91" cy="127" r="2"/>
  </g>
  <g stroke="chocolate" stroke-width="1">
    <line x1="158" y1="176" x2="178" y2="169"/>
    <circle cx="158" cy="176" r="2"/>
    <circle cx="178" cy="169" r="2"/>
  </g>
  <g stroke="chocolate" stroke-width="1">
    <line x1="111" y1="194" x2="158" y2="176"/>
    <circle cx="111" cy="194" r="2"/>
    <circle cx="158" cy="176" r="2"/>
  </g>
  <g stroke="chocolate" stroke-width="1">
    <line x1="377" y1="118" x2="412" y2="35"/>
    <circle cx="377" cy="118" r="2"/>
    <circle cx="412" cy="35" r="2"/>
  </g>
  <g stroke="chocolate" stroke-width="1">
    <line x1="370" y1="135" x2="377" y2="118"/>
    <circle cx="370" cy="135" r="2"/>
    <circle cx="377" cy="118" r="2"/>
  </g>
  <g stroke="chocolate" stroke-width="1">
    <line x1="377" y1="118" x2="440" y2="87"/>
    <circle cx="377" cy="118" r="2"/>
    <circle cx="440" cy="87" r="2"/>
  </g>
  <g stroke="chocolate" stroke-width="1">
    <line x1="440" y1="87" x2="412" y2="35"/>
    <circle cx="440" cy="87" r="2"/>
    <circle cx="412" cy="35" r="2"/>
  </g>
  <g stroke="chocolate" stroke-width="1">
    <line x1="171" y1="337" x2="70" y2="96"/>
    <circle cx="171" cy="337" r="2"/>
    <circle cx="70" cy="96" r="2"/>
  </g>
  <g stroke="chocolate" stroke-width="1">
    <line x1="76" y1="112" x2="76" y2="94"/>
    <circle cx="76" cy="112" r="2"/>
    <circle cx="76" cy="94" r="2"/>
  </g>
  <g stroke="chocolate" stroke-width="1">
    <line x1="161" y1="47" x2="412" y2="35"/>
    <circle cx="161" cy="47" r="2"/>
    <circle cx="412" cy="35" r="2"/>
  </g>
  <g stroke="chocolate" stroke-width="1">
    <line x1="382" y1="269" x2="312" y2="252"/>
    <circle cx="382" cy="269" r="2"/>
    <circle cx="312" cy="252" r="2"/>
  </g>
  <g stroke="chocolate" stroke-width="1">
    <line x1="70" y1="96" x2="76" y2="94"/>
    <circle cx="70" cy="96" r="2"/>
    <circle cx="76" cy="94" r="2"/>
  </g>
  <g stroke="chocolate" stroke-width="1">
    <line x1="317" y1="469" x2="440" y2="87"/>
    <circle cx="317" cy="469" r="2"/>
    <circle cx="440" cy="87" r="2"/>
  </g>
  <g stroke="chocolate" stroke-width="1">
    <line x1="70" y1="96" x2="161" y2="47"/>
    <circle cx="70" cy="96" r="2"/>
    <circle cx="161" cy="47" r="2"/>
  </g>
  <g stroke="chocolate" stroke-width="1">
    <line x1="111" y1="194" x2="142" y2="179"/>
    <circle cx="111" cy="194" r="2"/>
    <circle cx="142" cy="179" r="2"/>
  </g>
  <g stroke="chocolate" stroke-width="1">
    <line x1="259" y1="475" x2="317" y2="469"/>
    <circle cx="259" cy="475" r="2"/>
    <circle cx="317" cy="469" r="2"/>
  </g>
  <g stroke="black" stroke-width="1">
    <line x1="5" y1="5" x2="505" y2="5"/>
    <line x1="5" y1="5" x2="5" y2="505"/>
    <line x1="505" y1="505" x2="5" y2="505"/>
    <line x1="505" y1="505" x2="505" y2="5"/>
    <line x1="105" y1="2" x2="105" y2="8"/>
    <line x1="2" y1="105" x2="8" y2="105"/>
    <line x1="105" y1="502" x2="105" y2="508"/>
    <line x1="502" y1="105" x2="508" y2="105"/>
    <line x1="205" y1="2" x2="205" y2="8"/>
    <line x1="2" y1="205" x2="8" y2="205"/>
    <line x1="205" y1="502" x2="205" y2="508"/>
    <line x1="502" y1="205" x2="508" y2="205"/>
    <line x1="305" y1="2" x2="305" y2="8"/>
    <line x1="2" y1="305" x2="8" y2="305"/>
    <line x1="305" y1="502" x2="305" y2="508"/>
    <line x1="502" y1="305" x2="508" y2="305"/>
    <line x1="405" y1="2" x2="405" y2="8"/>
    <line x1="2" y1="405" x2="8" y2="405"/>
    <line x1="405" y1="502" x2="405" y2="508"/>
    <line x1="502" y1="405" x2="508" y2="405"/>
  </g>
  <g stroke="gray" stroke-width="1" stroke-dasharray="5,5">
    <line x1="105" y1="5" x2="105" y2="505"/>
    <line x1="5" y1="105" x2="505" y2="105"/>
    <line x1="205" y1="5" x2="205" y2="505"/>
    <line x1="5" y1="205" x2="505" y2="205"/>
    <line x1="305" y1="5" x2="305" y2="505"/>
    <line x1="5" y1="305" x2="505" y2="305"/>
    <line x1="405" y1="5" x2="405" y2="505"/>
    <line x1="5" y1="405" x2="505" y2="405"/>
  </g>
</svg>
