<?xml version="1.0" standalone="no"?>
<!DOCTYPE svg PUBLIC "-//W3C//DTD SVG 1.1//EN" 
  "http://www.w3.org/Graphics/SVG/1.1/DTD/svg11.dtd">
<svg width="510" height="510" version="1.1" id="toplevel"
    xmlns="http://www.w3.org/2000/svg"
    xmlns:xlink="http://www.w3.org/1999/xlink">
  <polygon points="16,505 180,505 180,478 347,451 332,355 483,274 495,218 331,183 64,395 15,494"
           fill="bisque"/>
  <g stroke="chocolate" stroke-width="1">
    <line x1="237" y1="316" x2="324" y2="311"/>
    <circle cx="237" cy="316" r="2"/>
    <circle cx="324" cy="311" r="2"/>
  </g>
  <g stroke="chocolate" stroke-width="1">
    <line x1="180" y1="320" x2="237" y2="316"/>
    <circle cx="180" cy="320" r="2"/>
    <circle cx="237" cy="316" r="2"/>
  </g>
  <g stroke="chocolate" stroke-width="1">
    <line x1="237" y1="316" x2="180" y2="303"/>
    <circle cx="237" cy="316" r="2"/>
    <circle cx="180" cy="303" r="2"/>
  </g>
  <g stroke="chocolate" stroke-width="1">
    <line x1="329" y1="337" x2="237" y2="316"/>
    <circle cx="329" cy="337" r="2"/>
    <circle cx="237" cy="316" r="2"/>
  </g>
  <g stroke="chocolate" stroke-width="1">
    <line x1="330" y1="212" x2="313" y2="205"/>
    <circle cx="330" cy="212" r="2"/>
    <circle cx="313" cy="205" r="2"/>
  </g>
  <g stroke="chocolate" stroke-width="1">
    <line x1="394" y1="238" x2="330" y2="212"/>
    <circle cx="394" cy="238" r="2"/>
    <circle cx="330" cy="212" r="2"/>
  </g>
  <g stroke="chocolate" stroke-width="1">
    <line x1="330" y1="212" x2="330" y2="205"/>
    <circle cx="330" cy="212" r="2"/>
    <circle cx="330" cy="205" r="2"/>
  </g>
  <g stroke="chocolate" stroke-width="1">
    <line x1="328" y1="310" x2="330" y2="212"/>
    <circle cx="328" cy="310" r="2"/>
    <circle cx="330" cy="212" r="2"/>
  </g>
  <g stroke="chocolate" stroke-width="1">
    <line x1="157" y1="321" x2="180" y2="320"/>
    <circle cx="157" cy="321" r="2"/>
    <circle cx="180" cy="320" r="2"/>
  </g>
  <g stroke="chocolate" stroke-width="1">
    <line x1="180" y1="320" x2="180" y2="303"/>
    <circle cx="180" cy="320" r="2"/>
    <circle cx="180" cy="303" r="2"/>
  </g>
  <g stroke="chocolate" stroke-width="1">
    <line x1="180" y1="435" x2="180" y2="320"/>
    <circle cx="180" cy="435" r="2"/>
    <circle cx="180" cy="320" r="2"/>
  </g>
  <g stroke="chocolate" stroke-width="1">
    <line x1="332" y1="355" x2="329" y2="337"/>
    <circle cx="332" cy="355" r="2"/>
    <circle cx="329" cy="337" r="2"/>
  </g>
  <g stroke="chocolate" stroke-width="1">
    <line x1="347" y1="451" x2="332" y2="355"/>
    <circle cx="347" cy="451" r="2"/>
    <circle cx="332" cy="355" r="2"/>
  </g>
  <g stroke="chocolate" stroke-width="1">
    <line x1="332" y1="355" x2="483" y2="274"/>
    <circle cx="332" cy="355" r="2"/>
    <circle cx="483" cy="274" r="2"/>
  </g>
  <g stroke="chocolate" stroke-width="1">
    <line x1="180" y1="435" x2="332" y2="355"/>
    <circle cx="180" cy="435" r="2"/>
    <circle cx="332" cy="355" r="2"/>
  </g>
  <g stroke="chocolate" stroke-width="1">
    <line x1="329" y1="337" x2="324" y2="311"/>
    <circle cx="329" cy="337" r="2"/>
    <circle cx="324" cy="311" r="2"/>
  </g>
  <g stroke="chocolate" stroke-width="1">
    <line x1="354" y1="343" x2="329" y2="337"/>
    <circle cx="354" cy="343" r="2"/>
    <circle cx="329" cy="337" r="2"/>
  </g>
  <g stroke="chocolate" stroke-width="1">
    <line x1="324" y1="311" x2="328" y2="310"/>
    <circle cx="324" cy="311" r="2"/>
    <circle cx="328" cy="310" r="2"/>
  </g>
  <g stroke="chocolate" stroke-width="1">
    <line x1="324" y1="311" x2="307" y2="202"/>
    <circle cx="324" cy="311" r="2"/>
    <circle cx="307" cy="202" r="2"/>
  </g>
  <g stroke="chocolate" stroke-width="1">
    <line x1="313" y1="205" x2="307" y2="202"/>
    <circle cx="313" cy="205" r="2"/>
    <circle cx="307" cy="202" r="2"/>
  </g>
  <g stroke="chocolate" stroke-width="1">
    <line x1="313" y1="205" x2="312" y2="198"/>
    <circle cx="313" cy="205" r="2"/>
    <circle cx="312" cy="198" r="2"/>
  </g>
  <g stroke="chocolate" stroke-width="1">
    <line x1="328" y1="310" x2="313" y2="205"/>
    <circle cx="328" cy="310" r="2"/>
    <circle cx="313" cy="205" r="2"/>
  </g>
  <g stroke="chocolate" stroke-width="1">
    <line x1="63" y1="455" x2="39" y2="447"/>
    <circle cx="63" cy="455" r="2"/>
    <circle cx="39" cy="447" r="2"/>
  </g>
  <g stroke="chocolate" stroke-width="1">
    <line x1="113" y1="470" x2="63" y2="455"/>
    <circle cx="113" cy="470" r="2"/>
    <circle cx="63" cy="455" r="2"/>
  </g>
  <g stroke="chocolate" stroke-width="1">
    <line x1="63" y1="455" x2="64" y2="395"/>
    <circle cx="63" cy="455" r="2"/>
    <circle cx="64" cy="395" r="2"/>
  </g>
  <g stroke="chocolate" stroke-width="1">
    <line x1="63" y1="464" x2="63" y2="455"/>
    <circle cx="63" cy="464" r="2"/>
    <circle cx="63" cy="455" r="2"/>
  </g>
  <g stroke="chocolate" stroke-width="1">
    <line x1="330" y1="205" x2="312" y2="198"/>
    <circle cx="330" cy="205" r="2"/>
    <circle cx="312" cy="198" r="2"/>
  </g>
  <g stroke="chocolate" stroke-width="1">
    <line x1="397" y1="231" x2="330" y2="205"/>
    <circle cx="397" cy="231" r="2"/>
    <circle cx="330" cy="205" r="2"/>
  </g>
  <g stroke="chocolate" stroke-width="1">
    <line x1="330" y1="205" x2="331" y2="183"/>
    <circle cx="330" cy="205" r="2"/>
    <circle cx="331" cy="183" r="2"/>
  </g>
  <g stroke="chocolate" stroke-width="1">
    <line x1="180" y1="478" x2="180" y2="435"/>
    <circle cx="180" cy="478" r="2"/>
    <circle cx="180" cy="435" r="2"/>
  </g>
  <g stroke="chocolate" stroke-width="1">
    <line x1="180" y1="505" x2="180" y2="478"/>
    <circle cx="180" cy="505" r="2"/>
    <circle cx="180" cy="478" r="2"/>
  </g>
  <g stroke="chocolate" stroke-width="1">
    <line x1="180" y1="478" x2="347" y2="451"/>
    <circle cx="180" cy="478" r="2"/>
    <circle cx="347" cy="451" r="2"/>
  </g>
  <g stroke="chocolate" stroke-width="1">
    <line x1="16" y1="505" x2="180" y2="478"/>
    <circle cx="16" cy="505" r="2"/>
    <circle cx="180" cy="478" r="2"/>
  </g>
  <g stroke="chocolate" stroke-width="1">
    <line x1="113" y1="470" x2="180" y2="435"/>
    <circle cx="113" cy="470" r="2"/>
    <circle cx="180" cy="435" r="2"/>
  </g>
  <g stroke="chocolate" stroke-width="1">
    <line x1="483" y1="274" x2="394" y2="238"/>
    <circle cx="483" cy="274" r="2"/>
    <circle cx="394" cy="238" r="2"/>
  </g>
  <g stroke="chocolate" stroke-width="1">
    <line x1="394" y1="238" x2="397" y2="231"/>
    <circle cx="394" cy="238" r="2"/>
    <circle cx="397" cy="231" r="2"/>
  </g>
  <g stroke="chocolate" stroke-width="1">
    <line x1="354" y1="343" x2="394" y2="238"/>
    <circle cx="354" cy="343" r="2"/>
    <circle cx="394" cy="238" r="2"/>
  </g>
  <g stroke="chocolate" stroke-width="1">
    <line x1="495" y1="218" x2="331" y2="183"/>
    <circle cx="495" cy="218" r="2"/>
    <circle cx="331" cy="183" r="2"/>
  </g>
  <g stroke="chocolate" stroke-width="1">
    <line x1="63" y1="464" x2="39" y2="447"/>
    <circle cx="63" cy="464" r="2"/>
    <circle cx="39" cy="447" r="2"/>
  </g>
  <g stroke="chocolate" stroke-width="1">
    <line x1="16" y1="505" x2="15" y2="494"/>
    <circle cx="16" cy="505" r="2"/>
    <circle cx="15" cy="494" r="2"/>
  </g>
  <g stroke="chocolate" stroke-width="1">
    <line x1="16" y1="505" x2="180" y2="505"/>
    <circle cx="16" cy="505" r="2"/>
    <circle cx="180" cy="505" r="2"/>
  </g>
  <g stroke="chocolate" stroke-width="1">
    <line x1="113" y1="470" x2="157" y2="321"/>
    <circle cx="113" cy="470" r="2"/>
    <circle cx="157" cy="321" r="2"/>
  </g>
  <g stroke="chocolate" stroke-width="1">
    <line x1="64" y1="395" x2="331" y2="183"/>
    <circle cx="64" cy="395" r="2"/>
    <circle cx="331" cy="183" r="2"/>
  </g>
  <g stroke="chocolate" stroke-width="1">
    <line x1="15" y1="494" x2="64" y2="395"/>
    <circle cx="15" cy="494" r="2"/>
    <circle cx="64" cy="395" r="2"/>
  </g>
  <g stroke="chocolate" stroke-width="1">
    <line x1="15" y1="494" x2="63" y2="464"/>
    <circle cx="15" cy="494" r="2"/>
    <circle cx="63" cy="464" r="2"/>
  </g>
  <g stroke="chocolate" stroke-width="1">
    <line x1="483" y1="274" x2="495" y2="218"/>
    <circle cx="483" cy="274" r="2"/>
    <circle cx="495" cy="218" r="2"/>
  </g>
  <g stroke="black" stroke-width="1">
    <line x1="5" y1="5" x2="505" y2="5"/>
    <line x1="5" y1="5" x2="5" y2="505"/>
    <line x1="505" y1="505" x2="5" y2="505"/>
    <line x1="505" y1="505" x2="505" y2="5"/>
    <line x1="105" y1="2" x2="105" y2="8"/>
    <line x1="2" y1="105" x2="8" y2="105"/>
    <line x1="105" y1="502" x2="105" y2="508"/>
    <line x1="502" y1="105" x2="508" y2="105"/>
    <line x1="205" y1="2" x2="205" y2="8"/>
    <line x1="2" y1="205" x2="8" y2="205"/>
    <line x1="205" y1="502" x2="205" y2="508"/>
    <line x1="502" y1="205" x2="508" y2="205"/>
    <line x1="305" y1="2" x2="305" y2="8"/>
    <line x1="2" y1="305" x2="8" y2="305"/>
    <line x1="305" y1="502" x2="305" y2="508"/>
    <line x1="502" y1="305" x2="508" y2="305"/>
    <line x1="405" y1="2" x2="405" y2="8"/>
    <line x1="2" y1="405" x2="8" y2="405"/>
    <line x1="405" y1="502" x2="405" y2="508"/>
    <line x1="502" y1="405" x2="508" y2="405"/>
  </g>
  <g stroke="gray" stroke-width="1" stroke-dasharray="5,5">
    <line x1="105" y1="5" x2="105" y2="505"/>
    <line x1="5" y1="105" x2="505" y2="105"/>
    <line x1="205" y1="5" x2="205" y2="505"/>
    <line x1="5" y1="205" x2="505" y2="205"/>
    <line x1="305" y1="5" x2="305" y2="505"/>
    <line x1="5" y1="305" x2="505" y2="305"/>
    <line x1="405" y1="5" x2="405" y2="505"/>
    <line x1="5" y1="405" x2="505" y2="405"/>
  </g>
</svg>
