<?xml version="1.0" standalone="no"?>
<!DOCTYPE svg PUBLIC "-//W3C//DTD SVG 1.1//EN" 
  "http://www.w3.org/Graphics/SVG/1.1/DTD/svg11.dtd">
<svg width="554" height="554" version="1.1" id="toplevel"
    xmlns="http://www.w3.org/2000/svg"
    xmlns:xlink="http://www.w3.org/1999/xlink">
  <polygon points="327,549 336,505 391,505 391,239 428,60 391,52 391,5 316,5 208,178 130,316 126,358 131,509"
           fill="bisque"/>
  <g stroke="chocolate" stroke-width="1">
    <line x1="307" y1="35" x2="298" y2="33"/>
    <circle cx="307" cy="35" r="2"/>
    <circle cx="298" cy="33" r="2"/>
  </g>
  <g stroke="chocolate" stroke-width="1">
    <line x1="326" y1="39" x2="307" y2="35"/>
    <circle cx="326" cy="39" r="2"/>
    <circle cx="307" cy="35" r="2"/>
  </g>
  <g stroke="chocolate" stroke-width="1">
    <line x1="307" y1="35" x2="316" y2="22"/>
    <circle cx="307" cy="35" r="2"/>
    <circle cx="316" cy="22" r="2"/>
  </g>
  <g stroke="chocolate" stroke-width="1">
    <line x1="301" y1="43" x2="307" y2="35"/>
    <circle cx="301" cy="43" r="2"/>
    <circle cx="307" cy="35" r="2"/>
  </g>
  <g stroke="chocolate" stroke-width="1">
    <line x1="142" y1="505" x2="144" y2="505"/>
    <circle cx="142" cy="505" r="2"/>
    <circle cx="144" cy="505" r="2"/>
  </g>
  <g stroke="chocolate" stroke-width="1">
    <line x1="131" y1="505" x2="142" y2="505"/>
    <circle cx="131" cy="505" r="2"/>
    <circle cx="142" cy="505" r="2"/>
  </g>
  <g stroke="chocolate" stroke-width="1">
    <line x1="142" y1="505" x2="141" y2="504"/>
    <circle cx="142" cy="505" r="2"/>
    <circle cx="141" cy="504" r="2"/>
  </g>
  <g stroke="chocolate" stroke-width="1">
    <line x1="144" y1="505" x2="142" y2="505"/>
    <circle cx="144" cy="505" r="2"/>
    <circle cx="142" cy="505" r="2"/>
  </g>
  <g stroke="chocolate" stroke-width="1">
    <line x1="391" y1="52" x2="326" y2="39"/>
    <circle cx="391" cy="52" r="2"/>
    <circle cx="326" cy="39" r="2"/>
  </g>
  <g stroke="chocolate" stroke-width="1">
    <line x1="326" y1="39" x2="316" y2="22"/>
    <circle cx="326" cy="39" r="2"/>
    <circle cx="316" cy="22" r="2"/>
  </g>
  <g stroke="chocolate" stroke-width="1">
    <line x1="379" y1="127" x2="326" y2="39"/>
    <circle cx="379" cy="127" r="2"/>
    <circle cx="326" cy="39" r="2"/>
  </g>
  <g stroke="chocolate" stroke-width="1">
    <line x1="391" y1="239" x2="391" y2="52"/>
    <circle cx="391" cy="239" r="2"/>
    <circle cx="391" cy="52" r="2"/>
  </g>
  <g stroke="chocolate" stroke-width="1">
    <line x1="391" y1="505" x2="391" y2="239"/>
    <circle cx="391" cy="505" r="2"/>
    <circle cx="391" cy="239" r="2"/>
  </g>
  <g stroke="chocolate" stroke-width="1">
    <line x1="391" y1="239" x2="428" y2="60"/>
    <circle cx="391" cy="239" r="2"/>
    <circle cx="428" cy="60" r="2"/>
  </g>
  <g stroke="chocolate" stroke-width="1">
    <line x1="336" y1="505" x2="391" y2="239"/>
    <circle cx="336" cy="505" r="2"/>
    <circle cx="391" cy="239" r="2"/>
  </g>
  <g stroke="chocolate" stroke-width="1">
    <line x1="208" y1="178" x2="301" y2="43"/>
    <circle cx="208" cy="178" r="2"/>
    <circle cx="301" cy="43" r="2"/>
  </g>
  <g stroke="chocolate" stroke-width="1">
    <line x1="301" y1="43" x2="296" y2="37"/>
    <circle cx="301" cy="43" r="2"/>
    <circle cx="296" cy="37" r="2"/>
  </g>
  <g stroke="chocolate" stroke-width="1">
    <line x1="379" y1="127" x2="301" y2="43"/>
    <circle cx="379" cy="127" r="2"/>
    <circle cx="301" cy="43" r="2"/>
  </g>
  <g stroke="chocolate" stroke-width="1">
    <line x1="428" y1="60" x2="391" y2="52"/>
    <circle cx="428" cy="60" r="2"/>
    <circle cx="391" cy="52" r="2"/>
  </g>
  <g stroke="chocolate" stroke-width="1">
    <line x1="391" y1="52" x2="391" y2="5"/>
    <circle cx="391" cy="52" r="2"/>
    <circle cx="391" cy="5" r="2"/>
  </g>
  <g stroke="chocolate" stroke-width="1">
    <line x1="144" y1="505" x2="336" y2="505"/>
    <circle cx="144" cy="505" r="2"/>
    <circle cx="336" cy="505" r="2"/>
  </g>
  <g stroke="chocolate" stroke-width="1">
    <line x1="144" y1="505" x2="145" y2="474"/>
    <circle cx="144" cy="505" r="2"/>
    <circle cx="145" cy="474" r="2"/>
  </g>
  <g stroke="chocolate" stroke-width="1">
    <line x1="144" y1="505" x2="144" y2="505"/>
    <circle cx="144" cy="505" r="2"/>
    <circle cx="144" cy="505" r="2"/>
  </g>
  <g stroke="chocolate" stroke-width="1">
    <line x1="141" y1="504" x2="137" y2="503"/>
    <circle cx="141" cy="504" r="2"/>
    <circle cx="137" cy="503" r="2"/>
  </g>
  <g stroke="chocolate" stroke-width="1">
    <line x1="141" y1="504" x2="144" y2="504"/>
    <circle cx="141" cy="504" r="2"/>
    <circle cx="144" cy="504" r="2"/>
  </g>
  <g stroke="chocolate" stroke-width="1">
    <line x1="131" y1="505" x2="141" y2="504"/>
    <circle cx="131" cy="505" r="2"/>
    <circle cx="141" cy="504" r="2"/>
  </g>
  <g stroke="chocolate" stroke-width="1">
    <line x1="316" y1="22" x2="311" y2="14"/>
    <circle cx="316" cy="22" r="2"/>
    <circle cx="311" cy="14" r="2"/>
  </g>
  <g stroke="chocolate" stroke-width="1">
    <line x1="316" y1="22" x2="321" y2="15"/>
    <circle cx="316" cy="22" r="2"/>
    <circle cx="321" cy="15" r="2"/>
  </g>
  <g stroke="chocolate" stroke-width="1">
    <line x1="336" y1="505" x2="391" y2="505"/>
    <circle cx="336" cy="505" r="2"/>
    <circle cx="391" cy="505" r="2"/>
  </g>
  <g stroke="chocolate" stroke-width="1">
    <line x1="327" y1="549" x2="336" y2="505"/>
    <circle cx="327" cy="549" r="2"/>
    <circle cx="336" cy="505" r="2"/>
  </g>
  <g stroke="chocolate" stroke-width="1">
    <line x1="304" y1="40" x2="296" y2="37"/>
    <circle cx="304" cy="40" r="2"/>
    <circle cx="296" cy="37" r="2"/>
  </g>
  <g stroke="chocolate" stroke-width="1">
    <line x1="321" y1="15" x2="311" y2="14"/>
    <circle cx="321" cy="15" r="2"/>
    <circle cx="311" cy="14" r="2"/>
  </g>
  <g stroke="chocolate" stroke-width="1">
    <line x1="316" y1="5" x2="391" y2="5"/>
    <circle cx="316" cy="5" r="2"/>
    <circle cx="391" cy="5" r="2"/>
  </g>
  <g stroke="chocolate" stroke-width="1">
    <line x1="304" y1="40" x2="298" y2="33"/>
    <circle cx="304" cy="40" r="2"/>
    <circle cx="298" cy="33" r="2"/>
  </g>
  <g stroke="chocolate" stroke-width="1">
    <line x1="321" y1="15" x2="316" y2="5"/>
    <circle cx="321" cy="15" r="2"/>
    <circle cx="316" cy="5" r="2"/>
  </g>
  <g stroke="chocolate" stroke-width="1">
    <line x1="327" y1="549" x2="131" y2="509"/>
    <circle cx="327" cy="549" r="2"/>
    <circle cx="131" cy="509" r="2"/>
  </g>
  <g stroke="chocolate" stroke-width="1">
    <line x1="145" y1="474" x2="126" y2="358"/>
    <circle cx="145" cy="474" r="2"/>
    <circle cx="126" cy="358" r="2"/>
  </g>
  <g stroke="chocolate" stroke-width="1">
    <line x1="144" y1="504" x2="137" y2="503"/>
    <circle cx="144" cy="504" r="2"/>
    <circle cx="137" cy="503" r="2"/>
  </g>
  <g stroke="chocolate" stroke-width="1">
    <line x1="131" y1="509" x2="126" y2="358"/>
    <circle cx="131" cy="509" r="2"/>
    <circle cx="126" cy="358" r="2"/>
  </g>
  <g stroke="chocolate" stroke-width="1">
    <line x1="130" y1="316" x2="379" y2="127"/>
    <circle cx="130" cy="316" r="2"/>
    <circle cx="379" cy="127" r="2"/>
  </g>
  <g stroke="chocolate" stroke-width="1">
    <line x1="126" y1="358" x2="130" y2="316"/>
    <circle cx="126" cy="358" r="2"/>
    <circle cx="130" cy="316" r="2"/>
  </g>
  <g stroke="chocolate" stroke-width="1">
    <line x1="208" y1="178" x2="316" y2="5"/>
    <circle cx="208" cy="178" r="2"/>
    <circle cx="316" cy="5" r="2"/>
  </g>
  <g stroke="chocolate" stroke-width="1">
    <line x1="130" y1="316" x2="208" y2="178"/>
    <circle cx="130" cy="316" r="2"/>
    <circle cx="208" cy="178" r="2"/>
  </g>
  <g stroke="chocolate" stroke-width="1">
    <line x1="137" y1="503" x2="145" y2="474"/>
    <circle cx="137" cy="503" r="2"/>
    <circle cx="145" cy="474" r="2"/>
  </g>
  <g stroke="chocolate" stroke-width="1">
    <line x1="131" y1="509" x2="144" y2="505"/>
    <circle cx="131" cy="509" r="2"/>
    <circle cx="144" cy="505" r="2"/>
  </g>
  <g stroke="black" stroke-width="1">
    <line x1="27" y1="27" x2="527" y2="27"/>
    <line x1="27" y1="27" x2="27" y2="527"/>
    <line x1="527" y1="527" x2="27" y2="527"/>
    <line x1="527" y1="527" x2="527" y2="27"/>
    <line x1="127" y1="24" x2="127" y2="30"/>
    <line x1="24" y1="127" x2="30" y2="127"/>
    <line x1="127" y1="524" x2="127" y2="530"/>
    <line x1="524" y1="127" x2="530" y2="127"/>
    <line x1="227" y1="24" x2="227" y2="30"/>
    <line x1="24" y1="227" x2="30" y2="227"/>
    <line x1="227" y1="524" x2="227" y2="530"/>
    <line x1="524" y1="227" x2="530" y2="227"/>
    <line x1="327" y1="24" x2="327" y2="30"/>
    <line x1="24" y1="327" x2="30" y2="327"/>
    <line x1="327" y1="524" x2="327" y2="530"/>
    <line x1="524" y1="327" x2="530" y2="327"/>
    <line x1="427" y1="24" x2="427" y2="30"/>
    <line x1="24" y1="427" x2="30" y2="427"/>
    <line x1="427" y1="524" x2="427" y2="530"/>
    <line x1="524" y1="427" x2="530" y2="427"/>
  </g>
  <g stroke="gray" stroke-width="1" stroke-dasharray="5,5">
    <line x1="127" y1="27" x2="127" y2="527"/>
    <line x1="27" y1="127" x2="527" y2="127"/>
    <line x1="227" y1="27" x2="227" y2="527"/>
    <line x1="27" y1="227" x2="527" y2="227"/>
    <line x1="327" y1="27" x2="327" y2="527"/>
    <line x1="27" y1="327" x2="527" y2="327"/>
    <line x1="427" y1="27" x2="427" y2="527"/>
    <line x1="27" y1="427" x2="527" y2="427"/>
  </g>
</svg>
