<?xml version="1.0" standalone="no"?>
<!DOCTYPE svg PUBLIC "-//W3C//DTD SVG 1.1//EN" 
  "http://www.w3.org/Graphics/SVG/1.1/DTD/svg11.dtd">
<svg width="558" height="558" version="1.1" id="toplevel"
    xmlns="http://www.w3.org/2000/svg"
    xmlns:xlink="http://www.w3.org/1999/xlink">
  <polygon points="503,413 513,308 553,279 523,234 262,145 22,179 5,368 99,376 100,377 101,376"
           fill="bisque"/>
  <g stroke="chocolate" stroke-width="1">
    <line x1="392" y1="278" x2="447" y2="260"/>
    <circle cx="392" cy="278" r="2"/>
    <circle cx="447" cy="260" r="2"/>
  </g>
  <g stroke="chocolate" stroke-width="1">
    <line x1="101" y1="376" x2="392" y2="278"/>
    <circle cx="101" cy="376" r="2"/>
    <circle cx="392" cy="278" r="2"/>
  </g>
  <g stroke="chocolate" stroke-width="1">
    <line x1="392" y1="278" x2="326" y2="211"/>
    <circle cx="392" cy="278" r="2"/>
    <circle cx="326" cy="211" r="2"/>
  </g>
  <g stroke="chocolate" stroke-width="1">
    <line x1="452" y1="339" x2="392" y2="278"/>
    <circle cx="452" cy="339" r="2"/>
    <circle cx="392" cy="278" r="2"/>
  </g>
  <g stroke="chocolate" stroke-width="1">
    <line x1="447" y1="260" x2="518" y2="236"/>
    <circle cx="447" cy="260" r="2"/>
    <circle cx="518" cy="236" r="2"/>
  </g>
  <g stroke="chocolate" stroke-width="1">
    <line x1="447" y1="260" x2="396" y2="191"/>
    <circle cx="447" cy="260" r="2"/>
    <circle cx="396" cy="191" r="2"/>
  </g>
  <g stroke="chocolate" stroke-width="1">
    <line x1="477" y1="300" x2="447" y2="260"/>
    <circle cx="477" cy="300" r="2"/>
    <circle cx="447" cy="260" r="2"/>
  </g>
  <g stroke="chocolate" stroke-width="1">
    <line x1="518" y1="236" x2="519" y2="235"/>
    <circle cx="518" cy="236" r="2"/>
    <circle cx="519" cy="235" r="2"/>
  </g>
  <g stroke="chocolate" stroke-width="1">
    <line x1="518" y1="236" x2="520" y2="233"/>
    <circle cx="518" cy="236" r="2"/>
    <circle cx="520" cy="233" r="2"/>
  </g>
  <g stroke="chocolate" stroke-width="1">
    <line x1="477" y1="300" x2="518" y2="236"/>
    <circle cx="477" cy="300" r="2"/>
    <circle cx="518" cy="236" r="2"/>
  </g>
  <g stroke="chocolate" stroke-width="1">
    <line x1="519" y1="235" x2="523" y2="234"/>
    <circle cx="519" cy="235" r="2"/>
    <circle cx="523" cy="234" r="2"/>
  </g>
  <g stroke="chocolate" stroke-width="1">
    <line x1="519" y1="235" x2="520" y2="233"/>
    <circle cx="519" cy="235" r="2"/>
    <circle cx="520" cy="233" r="2"/>
  </g>
  <g stroke="chocolate" stroke-width="1">
    <line x1="513" y1="302" x2="519" y2="235"/>
    <circle cx="513" cy="302" r="2"/>
    <circle cx="519" cy="235" r="2"/>
  </g>
  <g stroke="chocolate" stroke-width="1">
    <line x1="489" y1="317" x2="477" y2="300"/>
    <circle cx="489" cy="317" r="2"/>
    <circle cx="477" cy="300" r="2"/>
  </g>
  <g stroke="chocolate" stroke-width="1">
    <line x1="493" y1="322" x2="489" y2="317"/>
    <circle cx="493" cy="322" r="2"/>
    <circle cx="489" cy="317" r="2"/>
  </g>
  <g stroke="chocolate" stroke-width="1">
    <line x1="489" y1="317" x2="513" y2="302"/>
    <circle cx="489" cy="317" r="2"/>
    <circle cx="513" cy="302" r="2"/>
  </g>
  <g stroke="chocolate" stroke-width="1">
    <line x1="452" y1="339" x2="489" y2="317"/>
    <circle cx="452" cy="339" r="2"/>
    <circle cx="489" cy="317" r="2"/>
  </g>
  <g stroke="chocolate" stroke-width="1">
    <line x1="100" y1="376" x2="99" y2="376"/>
    <circle cx="100" cy="376" r="2"/>
    <circle cx="99" cy="376" r="2"/>
  </g>
  <g stroke="chocolate" stroke-width="1">
    <line x1="101" y1="376" x2="100" y2="376"/>
    <circle cx="101" cy="376" r="2"/>
    <circle cx="100" cy="376" r="2"/>
  </g>
  <g stroke="chocolate" stroke-width="1">
    <line x1="100" y1="376" x2="73" y2="284"/>
    <circle cx="100" cy="376" r="2"/>
    <circle cx="73" cy="284" r="2"/>
  </g>
  <g stroke="chocolate" stroke-width="1">
    <line x1="100" y1="377" x2="100" y2="376"/>
    <circle cx="100" cy="377" r="2"/>
    <circle cx="100" cy="376" r="2"/>
  </g>
  <g stroke="chocolate" stroke-width="1">
    <line x1="99" y1="376" x2="5" y2="368"/>
    <circle cx="99" cy="376" r="2"/>
    <circle cx="5" cy="368" r="2"/>
  </g>
  <g stroke="chocolate" stroke-width="1">
    <line x1="99" y1="376" x2="22" y2="179"/>
    <circle cx="99" cy="376" r="2"/>
    <circle cx="22" cy="179" r="2"/>
  </g>
  <g stroke="chocolate" stroke-width="1">
    <line x1="100" y1="377" x2="99" y2="376"/>
    <circle cx="100" cy="377" r="2"/>
    <circle cx="99" cy="376" r="2"/>
  </g>
  <g stroke="chocolate" stroke-width="1">
    <line x1="326" y1="211" x2="262" y2="145"/>
    <circle cx="326" cy="211" r="2"/>
    <circle cx="262" cy="145" r="2"/>
  </g>
  <g stroke="chocolate" stroke-width="1">
    <line x1="326" y1="211" x2="396" y2="191"/>
    <circle cx="326" cy="211" r="2"/>
    <circle cx="396" cy="191" r="2"/>
  </g>
  <g stroke="chocolate" stroke-width="1">
    <line x1="73" y1="284" x2="326" y2="211"/>
    <circle cx="73" cy="284" r="2"/>
    <circle cx="326" cy="211" r="2"/>
  </g>
  <g stroke="chocolate" stroke-width="1">
    <line x1="452" y1="339" x2="477" y2="300"/>
    <circle cx="452" cy="339" r="2"/>
    <circle cx="477" cy="300" r="2"/>
  </g>
  <g stroke="chocolate" stroke-width="1">
    <line x1="100" y1="377" x2="101" y2="376"/>
    <circle cx="100" cy="377" r="2"/>
    <circle cx="101" cy="376" r="2"/>
  </g>
  <g stroke="chocolate" stroke-width="1">
    <line x1="503" y1="413" x2="101" y2="376"/>
    <circle cx="503" cy="413" r="2"/>
    <circle cx="101" cy="376" r="2"/>
  </g>
  <g stroke="chocolate" stroke-width="1">
    <line x1="513" y1="308" x2="513" y2="302"/>
    <circle cx="513" cy="308" r="2"/>
    <circle cx="513" cy="302" r="2"/>
  </g>
  <g stroke="chocolate" stroke-width="1">
    <line x1="503" y1="413" x2="513" y2="308"/>
    <circle cx="503" cy="413" r="2"/>
    <circle cx="513" cy="308" r="2"/>
  </g>
  <g stroke="chocolate" stroke-width="1">
    <line x1="513" y1="308" x2="553" y2="279"/>
    <circle cx="513" cy="308" r="2"/>
    <circle cx="553" cy="279" r="2"/>
  </g>
  <g stroke="chocolate" stroke-width="1">
    <line x1="493" y1="322" x2="513" y2="308"/>
    <circle cx="493" cy="322" r="2"/>
    <circle cx="513" cy="308" r="2"/>
  </g>
  <g stroke="chocolate" stroke-width="1">
    <line x1="513" y1="302" x2="553" y2="279"/>
    <circle cx="513" cy="302" r="2"/>
    <circle cx="553" cy="279" r="2"/>
  </g>
  <g stroke="chocolate" stroke-width="1">
    <line x1="553" y1="279" x2="523" y2="234"/>
    <circle cx="553" cy="279" r="2"/>
    <circle cx="523" cy="234" r="2"/>
  </g>
  <g stroke="chocolate" stroke-width="1">
    <line x1="5" y1="368" x2="22" y2="179"/>
    <circle cx="5" cy="368" r="2"/>
    <circle cx="22" cy="179" r="2"/>
  </g>
  <g stroke="chocolate" stroke-width="1">
    <line x1="523" y1="234" x2="262" y2="145"/>
    <circle cx="523" cy="234" r="2"/>
    <circle cx="262" cy="145" r="2"/>
  </g>
  <g stroke="chocolate" stroke-width="1">
    <line x1="22" y1="179" x2="262" y2="145"/>
    <circle cx="22" cy="179" r="2"/>
    <circle cx="262" cy="145" r="2"/>
  </g>
  <g stroke="black" stroke-width="1">
    <line x1="29" y1="29" x2="529" y2="29"/>
    <line x1="29" y1="29" x2="29" y2="529"/>
    <line x1="529" y1="529" x2="29" y2="529"/>
    <line x1="529" y1="529" x2="529" y2="29"/>
    <line x1="129" y1="26" x2="129" y2="32"/>
    <line x1="26" y1="129" x2="32" y2="129"/>
    <line x1="129" y1="526" x2="129" y2="532"/>
    <line x1="526" y1="129" x2="532" y2="129"/>
    <line x1="229" y1="26" x2="229" y2="32"/>
    <line x1="26" y1="229" x2="32" y2="229"/>
    <line x1="229" y1="526" x2="229" y2="532"/>
    <line x1="526" y1="229" x2="532" y2="229"/>
    <line x1="329" y1="26" x2="329" y2="32"/>
    <line x1="26" y1="329" x2="32" y2="329"/>
    <line x1="329" y1="526" x2="329" y2="532"/>
    <line x1="526" y1="329" x2="532" y2="329"/>
    <line x1="429" y1="26" x2="429" y2="32"/>
    <line x1="26" y1="429" x2="32" y2="429"/>
    <line x1="429" y1="526" x2="429" y2="532"/>
    <line x1="526" y1="429" x2="532" y2="429"/>
  </g>
  <g stroke="gray" stroke-width="1" stroke-dasharray="5,5">
    <line x1="129" y1="29" x2="129" y2="529"/>
    <line x1="29" y1="129" x2="529" y2="129"/>
    <line x1="229" y1="29" x2="229" y2="529"/>
    <line x1="29" y1="229" x2="529" y2="229"/>
    <line x1="329" y1="29" x2="329" y2="529"/>
    <line x1="29" y1="329" x2="529" y2="329"/>
    <line x1="429" y1="29" x2="429" y2="529"/>
    <line x1="29" y1="429" x2="529" y2="429"/>
  </g>
</svg>
