<?xml version="1.0" standalone="no"?>
<!DOCTYPE svg PUBLIC "-//W3C//DTD SVG 1.1//EN" 
  "http://www.w3.org/Graphics/SVG/1.1/DTD/svg11.dtd">
<svg width="616" height="616" version="1.1" id="toplevel"
    xmlns="http://www.w3.org/2000/svg"
    xmlns:xlink="http://www.w3.org/1999/xlink">
  <polygon points="385,501 498,361 611,361 611,221 310,115 12,200 5,219 59,238 111,280 111,361 212,361"
           fill="bisque"/>
  <g stroke="chocolate" stroke-width="1">
    <line x1="59" y1="238" x2="5" y2="219"/>
    <circle cx="59" cy="238" r="2"/>
    <circle cx="5" cy="219" r="2"/>
  </g>
  <g stroke="chocolate" stroke-width="1">
    <line x1="111" y1="256" x2="59" y2="238"/>
    <circle cx="111" cy="256" r="2"/>
    <circle cx="59" cy="238" r="2"/>
  </g>
  <g stroke="chocolate" stroke-width="1">
    <line x1="59" y1="238" x2="12" y2="200"/>
    <circle cx="59" cy="238" r="2"/>
    <circle cx="12" cy="200" r="2"/>
  </g>
  <g stroke="chocolate" stroke-width="1">
    <line x1="111" y1="280" x2="59" y2="238"/>
    <circle cx="111" cy="280" r="2"/>
    <circle cx="59" cy="238" r="2"/>
  </g>
  <g stroke="chocolate" stroke-width="1">
    <line x1="212" y1="361" x2="111" y2="280"/>
    <circle cx="212" cy="361" r="2"/>
    <circle cx="111" cy="280" r="2"/>
  </g>
  <g stroke="chocolate" stroke-width="1">
    <line x1="385" y1="501" x2="212" y2="361"/>
    <circle cx="385" cy="501" r="2"/>
    <circle cx="212" cy="361" r="2"/>
  </g>
  <g stroke="chocolate" stroke-width="1">
    <line x1="212" y1="361" x2="498" y2="361"/>
    <circle cx="212" cy="361" r="2"/>
    <circle cx="498" cy="361" r="2"/>
  </g>
  <g stroke="chocolate" stroke-width="1">
    <line x1="111" y1="361" x2="212" y2="361"/>
    <circle cx="111" cy="361" r="2"/>
    <circle cx="212" cy="361" r="2"/>
  </g>
  <g stroke="chocolate" stroke-width="1">
    <line x1="111" y1="256" x2="111" y2="172"/>
    <circle cx="111" cy="256" r="2"/>
    <circle cx="111" cy="172" r="2"/>
  </g>
  <g stroke="chocolate" stroke-width="1">
    <line x1="111" y1="280" x2="111" y2="256"/>
    <circle cx="111" cy="280" r="2"/>
    <circle cx="111" cy="256" r="2"/>
  </g>
  <g stroke="chocolate" stroke-width="1">
    <line x1="178" y1="279" x2="111" y2="256"/>
    <circle cx="178" cy="279" r="2"/>
    <circle cx="111" cy="256" r="2"/>
  </g>
  <g stroke="chocolate" stroke-width="1">
    <line x1="111" y1="361" x2="111" y2="280"/>
    <circle cx="111" cy="361" r="2"/>
    <circle cx="111" cy="280" r="2"/>
  </g>
  <g stroke="chocolate" stroke-width="1">
    <line x1="498" y1="361" x2="611" y2="361"/>
    <circle cx="498" cy="361" r="2"/>
    <circle cx="611" cy="361" r="2"/>
  </g>
  <g stroke="chocolate" stroke-width="1">
    <line x1="498" y1="361" x2="611" y2="221"/>
    <circle cx="498" cy="361" r="2"/>
    <circle cx="611" cy="221" r="2"/>
  </g>
  <g stroke="chocolate" stroke-width="1">
    <line x1="385" y1="501" x2="498" y2="361"/>
    <circle cx="385" cy="501" r="2"/>
    <circle cx="498" cy="361" r="2"/>
  </g>
  <g stroke="chocolate" stroke-width="1">
    <line x1="611" y1="221" x2="310" y2="115"/>
    <circle cx="611" cy="221" r="2"/>
    <circle cx="310" cy="115" r="2"/>
  </g>
  <g stroke="chocolate" stroke-width="1">
    <line x1="12" y1="200" x2="310" y2="115"/>
    <circle cx="12" cy="200" r="2"/>
    <circle cx="310" cy="115" r="2"/>
  </g>
  <g stroke="chocolate" stroke-width="1">
    <line x1="178" y1="279" x2="111" y2="172"/>
    <circle cx="178" cy="279" r="2"/>
    <circle cx="111" cy="172" r="2"/>
  </g>
  <g stroke="chocolate" stroke-width="1">
    <line x1="5" y1="219" x2="12" y2="200"/>
    <circle cx="5" cy="219" r="2"/>
    <circle cx="12" cy="200" r="2"/>
  </g>
  <g stroke="chocolate" stroke-width="1">
    <line x1="611" y1="361" x2="611" y2="221"/>
    <circle cx="611" cy="361" r="2"/>
    <circle cx="611" cy="221" r="2"/>
  </g>
  <g stroke="chocolate" stroke-width="1">
    <line x1="178" y1="279" x2="310" y2="115"/>
    <circle cx="178" cy="279" r="2"/>
    <circle cx="310" cy="115" r="2"/>
  </g>
  <g stroke="black" stroke-width="1">
    <line x1="58" y1="58" x2="558" y2="58"/>
    <line x1="58" y1="58" x2="58" y2="558"/>
    <line x1="558" y1="558" x2="58" y2="558"/>
    <line x1="558" y1="558" x2="558" y2="58"/>
    <line x1="158" y1="55" x2="158" y2="61"/>
    <line x1="55" y1="158" x2="61" y2="158"/>
    <line x1="158" y1="555" x2="158" y2="561"/>
    <line x1="555" y1="158" x2="561" y2="158"/>
    <line x1="258" y1="55" x2="258" y2="61"/>
    <line x1="55" y1="258" x2="61" y2="258"/>
    <line x1="258" y1="555" x2="258" y2="561"/>
    <line x1="555" y1="258" x2="561" y2="258"/>
    <line x1="358" y1="55" x2="358" y2="61"/>
    <line x1="55" y1="358" x2="61" y2="358"/>
    <line x1="358" y1="555" x2="358" y2="561"/>
    <line x1="555" y1="358" x2="561" y2="358"/>
    <line x1="458" y1="55" x2="458" y2="61"/>
    <line x1="55" y1="458" x2="61" y2="458"/>
    <line x1="458" y1="555" x2="458" y2="561"/>
    <line x1="555" y1="458" x2="561" y2="458"/>
  </g>
  <g stroke="gray" stroke-width="1" stroke-dasharray="5,5">
    <line x1="158" y1="58" x2="158" y2="558"/>
    <line x1="58" y1="158" x2="558" y2="158"/>
    <line x1="258" y1="58" x2="258" y2="558"/>
    <line x1="58" y1="258" x2="558" y2="258"/>
    <line x1="358" y1="58" x2="358" y2="558"/>
    <line x1="58" y1="358" x2="558" y2="358"/>
    <line x1="458" y1="58" x2="458" y2="558"/>
    <line x1="58" y1="458" x2="558" y2="458"/>
  </g>
</svg>
