<?xml version="1.0" standalone="no"?>
<!DOCTYPE svg PUBLIC "-//W3C//DTD SVG 1.1//EN" 
  "http://www.w3.org/Graphics/SVG/1.1/DTD/svg11.dtd">
<svg width="522" height="522" version="1.1" id="toplevel"
    xmlns="http://www.w3.org/2000/svg"
    xmlns:xlink="http://www.w3.org/1999/xlink">
  <polygon points="257,517 426,315 435,298 331,22 235,5 208,158 87,253 171,361 146,497"
           fill="bisque"/>
  <g stroke="chocolate" stroke-width="1">
    <line x1="354" y1="379" x2="355" y2="377"/>
    <circle cx="354" cy="379" r="2"/>
    <circle cx="355" cy="377" r="2"/>
  </g>
  <g stroke="chocolate" stroke-width="1">
    <line x1="254" y1="467" x2="354" y2="379"/>
    <circle cx="254" cy="467" r="2"/>
    <circle cx="354" cy="379" r="2"/>
  </g>
  <g stroke="chocolate" stroke-width="1">
    <line x1="354" y1="379" x2="354" y2="374"/>
    <circle cx="354" cy="379" r="2"/>
    <circle cx="354" cy="374" r="2"/>
  </g>
  <g stroke="chocolate" stroke-width="1">
    <line x1="354" y1="388" x2="354" y2="379"/>
    <circle cx="354" cy="388" r="2"/>
    <circle cx="354" cy="379" r="2"/>
  </g>
  <g stroke="chocolate" stroke-width="1">
    <line x1="354" y1="167" x2="354" y2="82"/>
    <circle cx="354" cy="167" r="2"/>
    <circle cx="354" cy="82" r="2"/>
  </g>
  <g stroke="chocolate" stroke-width="1">
    <line x1="354" y1="221" x2="354" y2="167"/>
    <circle cx="354" cy="221" r="2"/>
    <circle cx="354" cy="167" r="2"/>
  </g>
  <g stroke="chocolate" stroke-width="1">
    <line x1="354" y1="167" x2="320" y2="159"/>
    <circle cx="354" cy="167" r="2"/>
    <circle cx="320" cy="159" r="2"/>
  </g>
  <g stroke="chocolate" stroke-width="1">
    <line x1="388" y1="174" x2="354" y2="167"/>
    <circle cx="388" cy="174" r="2"/>
    <circle cx="354" cy="167" r="2"/>
  </g>
  <g stroke="chocolate" stroke-width="1">
    <line x1="355" y1="377" x2="354" y2="374"/>
    <circle cx="355" cy="377" r="2"/>
    <circle cx="354" cy="374" r="2"/>
  </g>
  <g stroke="chocolate" stroke-width="1">
    <line x1="362" y1="391" x2="355" y2="377"/>
    <circle cx="362" cy="391" r="2"/>
    <circle cx="355" cy="377" r="2"/>
  </g>
  <g stroke="chocolate" stroke-width="1">
    <line x1="355" y1="377" x2="426" y2="315"/>
    <circle cx="355" cy="377" r="2"/>
    <circle cx="426" cy="315" r="2"/>
  </g>
  <g stroke="chocolate" stroke-width="1">
    <line x1="171" y1="361" x2="208" y2="158"/>
    <circle cx="171" cy="361" r="2"/>
    <circle cx="208" cy="158" r="2"/>
  </g>
  <g stroke="chocolate" stroke-width="1">
    <line x1="146" y1="497" x2="171" y2="361"/>
    <circle cx="146" cy="497" r="2"/>
    <circle cx="171" cy="361" r="2"/>
  </g>
  <g stroke="chocolate" stroke-width="1">
    <line x1="171" y1="361" x2="87" y2="253"/>
    <circle cx="171" cy="361" r="2"/>
    <circle cx="87" cy="253" r="2"/>
  </g>
  <g stroke="chocolate" stroke-width="1">
    <line x1="254" y1="467" x2="171" y2="361"/>
    <circle cx="254" cy="467" r="2"/>
    <circle cx="171" cy="361" r="2"/>
  </g>
  <g stroke="chocolate" stroke-width="1">
    <line x1="354" y1="273" x2="354" y2="221"/>
    <circle cx="354" cy="273" r="2"/>
    <circle cx="354" cy="221" r="2"/>
  </g>
  <g stroke="chocolate" stroke-width="1">
    <line x1="354" y1="374" x2="354" y2="273"/>
    <circle cx="354" cy="374" r="2"/>
    <circle cx="354" cy="273" r="2"/>
  </g>
  <g stroke="chocolate" stroke-width="1">
    <line x1="354" y1="273" x2="323" y2="263"/>
    <circle cx="354" cy="273" r="2"/>
    <circle cx="323" cy="263" r="2"/>
  </g>
  <g stroke="chocolate" stroke-width="1">
    <line x1="435" y1="298" x2="354" y2="273"/>
    <circle cx="435" cy="298" r="2"/>
    <circle cx="354" cy="273" r="2"/>
  </g>
  <g stroke="chocolate" stroke-width="1">
    <line x1="354" y1="221" x2="388" y2="174"/>
    <circle cx="354" cy="221" r="2"/>
    <circle cx="388" cy="174" r="2"/>
  </g>
  <g stroke="chocolate" stroke-width="1">
    <line x1="323" y1="263" x2="354" y2="221"/>
    <circle cx="323" cy="263" r="2"/>
    <circle cx="354" cy="221" r="2"/>
  </g>
  <g stroke="chocolate" stroke-width="1">
    <line x1="208" y1="158" x2="231" y2="140"/>
    <circle cx="208" cy="158" r="2"/>
    <circle cx="231" cy="140" r="2"/>
  </g>
  <g stroke="chocolate" stroke-width="1">
    <line x1="87" y1="253" x2="208" y2="158"/>
    <circle cx="87" cy="253" r="2"/>
    <circle cx="208" cy="158" r="2"/>
  </g>
  <g stroke="chocolate" stroke-width="1">
    <line x1="208" y1="158" x2="235" y2="5"/>
    <circle cx="208" cy="158" r="2"/>
    <circle cx="235" cy="5" r="2"/>
  </g>
  <g stroke="chocolate" stroke-width="1">
    <line x1="354" y1="401" x2="354" y2="388"/>
    <circle cx="354" cy="401" r="2"/>
    <circle cx="354" cy="388" r="2"/>
  </g>
  <g stroke="chocolate" stroke-width="1">
    <line x1="354" y1="388" x2="346" y2="386"/>
    <circle cx="354" cy="388" r="2"/>
    <circle cx="346" cy="386" r="2"/>
  </g>
  <g stroke="chocolate" stroke-width="1">
    <line x1="362" y1="391" x2="354" y2="388"/>
    <circle cx="362" cy="391" r="2"/>
    <circle cx="354" cy="388" r="2"/>
  </g>
  <g stroke="chocolate" stroke-width="1">
    <line x1="354" y1="374" x2="231" y2="140"/>
    <circle cx="354" cy="374" r="2"/>
    <circle cx="231" cy="140" r="2"/>
  </g>
  <g stroke="chocolate" stroke-width="1">
    <line x1="320" y1="159" x2="231" y2="140"/>
    <circle cx="320" cy="159" r="2"/>
    <circle cx="231" cy="140" r="2"/>
  </g>
  <g stroke="chocolate" stroke-width="1">
    <line x1="320" y1="159" x2="317" y2="40"/>
    <circle cx="320" cy="159" r="2"/>
    <circle cx="317" cy="40" r="2"/>
  </g>
  <g stroke="chocolate" stroke-width="1">
    <line x1="323" y1="263" x2="320" y2="159"/>
    <circle cx="323" cy="263" r="2"/>
    <circle cx="320" cy="159" r="2"/>
  </g>
  <g stroke="chocolate" stroke-width="1">
    <line x1="242" y1="477" x2="254" y2="467"/>
    <circle cx="242" cy="477" r="2"/>
    <circle cx="254" cy="467" r="2"/>
  </g>
  <g stroke="chocolate" stroke-width="1">
    <line x1="276" y1="495" x2="254" y2="467"/>
    <circle cx="276" cy="495" r="2"/>
    <circle cx="254" cy="467" r="2"/>
  </g>
  <g stroke="chocolate" stroke-width="1">
    <line x1="331" y1="22" x2="235" y2="5"/>
    <circle cx="331" cy="22" r="2"/>
    <circle cx="235" cy="5" r="2"/>
  </g>
  <g stroke="chocolate" stroke-width="1">
    <line x1="317" y1="40" x2="331" y2="22"/>
    <circle cx="317" cy="40" r="2"/>
    <circle cx="331" cy="22" r="2"/>
  </g>
  <g stroke="chocolate" stroke-width="1">
    <line x1="354" y1="82" x2="317" y2="40"/>
    <circle cx="354" cy="82" r="2"/>
    <circle cx="317" cy="40" r="2"/>
  </g>
  <g stroke="chocolate" stroke-width="1">
    <line x1="435" y1="298" x2="331" y2="22"/>
    <circle cx="435" cy="298" r="2"/>
    <circle cx="331" cy="22" r="2"/>
  </g>
  <g stroke="chocolate" stroke-width="1">
    <line x1="349" y1="402" x2="354" y2="401"/>
    <circle cx="349" cy="402" r="2"/>
    <circle cx="354" cy="401" r="2"/>
  </g>
  <g stroke="chocolate" stroke-width="1">
    <line x1="257" y1="517" x2="426" y2="315"/>
    <circle cx="257" cy="517" r="2"/>
    <circle cx="426" cy="315" r="2"/>
  </g>
  <g stroke="chocolate" stroke-width="1">
    <line x1="349" y1="402" x2="346" y2="386"/>
    <circle cx="349" cy="402" r="2"/>
    <circle cx="346" cy="386" r="2"/>
  </g>
  <g stroke="chocolate" stroke-width="1">
    <line x1="426" y1="315" x2="435" y2="298"/>
    <circle cx="426" cy="315" r="2"/>
    <circle cx="435" cy="298" r="2"/>
  </g>
  <g stroke="chocolate" stroke-width="1">
    <line x1="257" y1="517" x2="242" y2="477"/>
    <circle cx="257" cy="517" r="2"/>
    <circle cx="242" cy="477" r="2"/>
  </g>
  <g stroke="chocolate" stroke-width="1">
    <line x1="276" y1="495" x2="242" y2="477"/>
    <circle cx="276" cy="495" r="2"/>
    <circle cx="242" cy="477" r="2"/>
  </g>
  <g stroke="chocolate" stroke-width="1">
    <line x1="257" y1="517" x2="146" y2="497"/>
    <circle cx="257" cy="517" r="2"/>
    <circle cx="146" cy="497" r="2"/>
  </g>
  <g stroke="black" stroke-width="1">
    <line x1="11" y1="11" x2="511" y2="11"/>
    <line x1="11" y1="11" x2="11" y2="511"/>
    <line x1="511" y1="511" x2="11" y2="511"/>
    <line x1="511" y1="511" x2="511" y2="11"/>
    <line x1="111" y1="8" x2="111" y2="14"/>
    <line x1="8" y1="111" x2="14" y2="111"/>
    <line x1="111" y1="508" x2="111" y2="514"/>
    <line x1="508" y1="111" x2="514" y2="111"/>
    <line x1="211" y1="8" x2="211" y2="14"/>
    <line x1="8" y1="211" x2="14" y2="211"/>
    <line x1="211" y1="508" x2="211" y2="514"/>
    <line x1="508" y1="211" x2="514" y2="211"/>
    <line x1="311" y1="8" x2="311" y2="14"/>
    <line x1="8" y1="311" x2="14" y2="311"/>
    <line x1="311" y1="508" x2="311" y2="514"/>
    <line x1="508" y1="311" x2="514" y2="311"/>
    <line x1="411" y1="8" x2="411" y2="14"/>
    <line x1="8" y1="411" x2="14" y2="411"/>
    <line x1="411" y1="508" x2="411" y2="514"/>
    <line x1="508" y1="411" x2="514" y2="411"/>
  </g>
  <g stroke="gray" stroke-width="1" stroke-dasharray="5,5">
    <line x1="111" y1="11" x2="111" y2="511"/>
    <line x1="11" y1="111" x2="511" y2="111"/>
    <line x1="211" y1="11" x2="211" y2="511"/>
    <line x1="11" y1="211" x2="511" y2="211"/>
    <line x1="311" y1="11" x2="311" y2="511"/>
    <line x1="11" y1="311" x2="511" y2="311"/>
    <line x1="411" y1="11" x2="411" y2="511"/>
    <line x1="11" y1="411" x2="511" y2="411"/>
  </g>
</svg>
