<?xml version="1.0" standalone="no"?>
<!DOCTYPE svg PUBLIC "-//W3C//DTD SVG 1.1//EN" 
  "http://www.w3.org/Graphics/SVG/1.1/DTD/svg11.dtd">
<svg width="564" height="564" version="1.1" id="toplevel"
    xmlns="http://www.w3.org/2000/svg"
    xmlns:xlink="http://www.w3.org/1999/xlink">
  <polygon points="216,514 559,375 553,360 22,50 5,60 21,94 24,114 30,113 34,121 73,423 168,410"
           fill="bisque"/>
  <g stroke="chocolate" stroke-width="1">
    <line x1="24" y1="100" x2="21" y2="94"/>
    <circle cx="24" cy="100" r="2"/>
    <circle cx="21" cy="94" r="2"/>
  </g>
  <g stroke="chocolate" stroke-width="1">
    <line x1="30" y1="113" x2="24" y2="100"/>
    <circle cx="30" cy="113" r="2"/>
    <circle cx="24" cy="100" r="2"/>
  </g>
  <g stroke="chocolate" stroke-width="1">
    <line x1="24" y1="100" x2="23" y2="91"/>
    <circle cx="24" cy="100" r="2"/>
    <circle cx="23" cy="91" r="2"/>
  </g>
  <g stroke="chocolate" stroke-width="1">
    <line x1="24" y1="114" x2="24" y2="100"/>
    <circle cx="24" cy="114" r="2"/>
    <circle cx="24" cy="100" r="2"/>
  </g>
  <g stroke="chocolate" stroke-width="1">
    <line x1="30" y1="90" x2="78" y2="83"/>
    <circle cx="30" cy="90" r="2"/>
    <circle cx="78" cy="83" r="2"/>
  </g>
  <g stroke="chocolate" stroke-width="1">
    <line x1="23" y1="91" x2="30" y2="90"/>
    <circle cx="23" cy="91" r="2"/>
    <circle cx="30" cy="90" r="2"/>
  </g>
  <g stroke="chocolate" stroke-width="1">
    <line x1="30" y1="90" x2="24" y2="52"/>
    <circle cx="30" cy="90" r="2"/>
    <circle cx="24" cy="52" r="2"/>
  </g>
  <g stroke="chocolate" stroke-width="1">
    <line x1="32" y1="113" x2="30" y2="90"/>
    <circle cx="32" cy="113" r="2"/>
    <circle cx="30" cy="90" r="2"/>
  </g>
  <g stroke="chocolate" stroke-width="1">
    <line x1="34" y1="121" x2="30" y2="113"/>
    <circle cx="34" cy="121" r="2"/>
    <circle cx="30" cy="113" r="2"/>
  </g>
  <g stroke="chocolate" stroke-width="1">
    <line x1="168" y1="410" x2="34" y2="121"/>
    <circle cx="168" cy="410" r="2"/>
    <circle cx="34" cy="121" r="2"/>
  </g>
  <g stroke="chocolate" stroke-width="1">
    <line x1="34" y1="121" x2="32" y2="113"/>
    <circle cx="34" cy="121" r="2"/>
    <circle cx="32" cy="113" r="2"/>
  </g>
  <g stroke="chocolate" stroke-width="1">
    <line x1="73" y1="423" x2="34" y2="121"/>
    <circle cx="73" cy="423" r="2"/>
    <circle cx="34" cy="121" r="2"/>
  </g>
  <g stroke="chocolate" stroke-width="1">
    <line x1="87" y1="108" x2="78" y2="83"/>
    <circle cx="87" cy="108" r="2"/>
    <circle cx="78" cy="83" r="2"/>
  </g>
  <g stroke="chocolate" stroke-width="1">
    <line x1="199" y1="406" x2="87" y2="108"/>
    <circle cx="199" cy="406" r="2"/>
    <circle cx="87" cy="108" r="2"/>
  </g>
  <g stroke="chocolate" stroke-width="1">
    <line x1="87" y1="108" x2="116" y2="105"/>
    <circle cx="87" cy="108" r="2"/>
    <circle cx="116" cy="105" r="2"/>
  </g>
  <g stroke="chocolate" stroke-width="1">
    <line x1="32" y1="113" x2="87" y2="108"/>
    <circle cx="32" cy="113" r="2"/>
    <circle cx="87" cy="108" r="2"/>
  </g>
  <g stroke="chocolate" stroke-width="1">
    <line x1="30" y1="113" x2="32" y2="113"/>
    <circle cx="30" cy="113" r="2"/>
    <circle cx="32" cy="113" r="2"/>
  </g>
  <g stroke="chocolate" stroke-width="1">
    <line x1="24" y1="114" x2="30" y2="113"/>
    <circle cx="24" cy="114" r="2"/>
    <circle cx="30" cy="113" r="2"/>
  </g>
  <g stroke="chocolate" stroke-width="1">
    <line x1="248" y1="400" x2="553" y2="360"/>
    <circle cx="248" cy="400" r="2"/>
    <circle cx="553" cy="360" r="2"/>
  </g>
  <g stroke="chocolate" stroke-width="1">
    <line x1="199" y1="406" x2="248" y2="400"/>
    <circle cx="199" cy="406" r="2"/>
    <circle cx="248" cy="400" r="2"/>
  </g>
  <g stroke="chocolate" stroke-width="1">
    <line x1="248" y1="400" x2="116" y2="105"/>
    <circle cx="248" cy="400" r="2"/>
    <circle cx="116" cy="105" r="2"/>
  </g>
  <g stroke="chocolate" stroke-width="1">
    <line x1="283" y1="478" x2="248" y2="400"/>
    <circle cx="283" cy="478" r="2"/>
    <circle cx="248" cy="400" r="2"/>
  </g>
  <g stroke="chocolate" stroke-width="1">
    <line x1="168" y1="410" x2="199" y2="406"/>
    <circle cx="168" cy="410" r="2"/>
    <circle cx="199" cy="406" r="2"/>
  </g>
  <g stroke="chocolate" stroke-width="1">
    <line x1="232" y1="497" x2="199" y2="406"/>
    <circle cx="232" cy="497" r="2"/>
    <circle cx="199" cy="406" r="2"/>
  </g>
  <g stroke="chocolate" stroke-width="1">
    <line x1="21" y1="94" x2="5" y2="60"/>
    <circle cx="21" cy="94" r="2"/>
    <circle cx="5" cy="60" r="2"/>
  </g>
  <g stroke="chocolate" stroke-width="1">
    <line x1="21" y1="94" x2="21" y2="92"/>
    <circle cx="21" cy="94" r="2"/>
    <circle cx="21" cy="92" r="2"/>
  </g>
  <g stroke="chocolate" stroke-width="1">
    <line x1="24" y1="114" x2="21" y2="94"/>
    <circle cx="24" cy="114" r="2"/>
    <circle cx="21" cy="94" r="2"/>
  </g>
  <g stroke="chocolate" stroke-width="1">
    <line x1="22" y1="53" x2="22" y2="50"/>
    <circle cx="22" cy="53" r="2"/>
    <circle cx="22" cy="50" r="2"/>
  </g>
  <g stroke="chocolate" stroke-width="1">
    <line x1="23" y1="91" x2="22" y2="53"/>
    <circle cx="23" cy="91" r="2"/>
    <circle cx="22" cy="53" r="2"/>
  </g>
  <g stroke="chocolate" stroke-width="1">
    <line x1="22" y1="53" x2="24" y2="52"/>
    <circle cx="22" cy="53" r="2"/>
    <circle cx="24" cy="52" r="2"/>
  </g>
  <g stroke="chocolate" stroke-width="1">
    <line x1="5" y1="60" x2="22" y2="53"/>
    <circle cx="5" cy="60" r="2"/>
    <circle cx="22" cy="53" r="2"/>
  </g>
  <g stroke="chocolate" stroke-width="1">
    <line x1="21" y1="92" x2="23" y2="91"/>
    <circle cx="21" cy="92" r="2"/>
    <circle cx="23" cy="91" r="2"/>
  </g>
  <g stroke="chocolate" stroke-width="1">
    <line x1="216" y1="514" x2="168" y2="410"/>
    <circle cx="216" cy="514" r="2"/>
    <circle cx="168" cy="410" r="2"/>
  </g>
  <g stroke="chocolate" stroke-width="1">
    <line x1="73" y1="423" x2="168" y2="410"/>
    <circle cx="73" cy="423" r="2"/>
    <circle cx="168" cy="410" r="2"/>
  </g>
  <g stroke="chocolate" stroke-width="1">
    <line x1="559" y1="375" x2="553" y2="360"/>
    <circle cx="559" cy="375" r="2"/>
    <circle cx="553" cy="360" r="2"/>
  </g>
  <g stroke="chocolate" stroke-width="1">
    <line x1="553" y1="360" x2="22" y2="50"/>
    <circle cx="553" cy="360" r="2"/>
    <circle cx="22" cy="50" r="2"/>
  </g>
  <g stroke="chocolate" stroke-width="1">
    <line x1="5" y1="60" x2="22" y2="50"/>
    <circle cx="5" cy="60" r="2"/>
    <circle cx="22" cy="50" r="2"/>
  </g>
  <g stroke="chocolate" stroke-width="1">
    <line x1="216" y1="514" x2="283" y2="478"/>
    <circle cx="216" cy="514" r="2"/>
    <circle cx="283" cy="478" r="2"/>
  </g>
  <g stroke="chocolate" stroke-width="1">
    <line x1="232" y1="497" x2="283" y2="478"/>
    <circle cx="232" cy="497" r="2"/>
    <circle cx="283" cy="478" r="2"/>
  </g>
  <g stroke="chocolate" stroke-width="1">
    <line x1="216" y1="514" x2="559" y2="375"/>
    <circle cx="216" cy="514" r="2"/>
    <circle cx="559" cy="375" r="2"/>
  </g>
  <g stroke="black" stroke-width="1">
    <line x1="32" y1="32" x2="532" y2="32"/>
    <line x1="32" y1="32" x2="32" y2="532"/>
    <line x1="532" y1="532" x2="32" y2="532"/>
    <line x1="532" y1="532" x2="532" y2="32"/>
    <line x1="132" y1="29" x2="132" y2="35"/>
    <line x1="29" y1="132" x2="35" y2="132"/>
    <line x1="132" y1="529" x2="132" y2="535"/>
    <line x1="529" y1="132" x2="535" y2="132"/>
    <line x1="232" y1="29" x2="232" y2="35"/>
    <line x1="29" y1="232" x2="35" y2="232"/>
    <line x1="232" y1="529" x2="232" y2="535"/>
    <line x1="529" y1="232" x2="535" y2="232"/>
    <line x1="332" y1="29" x2="332" y2="35"/>
    <line x1="29" y1="332" x2="35" y2="332"/>
    <line x1="332" y1="529" x2="332" y2="535"/>
    <line x1="529" y1="332" x2="535" y2="332"/>
    <line x1="432" y1="29" x2="432" y2="35"/>
    <line x1="29" y1="432" x2="35" y2="432"/>
    <line x1="432" y1="529" x2="432" y2="535"/>
    <line x1="529" y1="432" x2="535" y2="432"/>
  </g>
  <g stroke="gray" stroke-width="1" stroke-dasharray="5,5">
    <line x1="132" y1="32" x2="132" y2="532"/>
    <line x1="32" y1="132" x2="532" y2="132"/>
    <line x1="232" y1="32" x2="232" y2="532"/>
    <line x1="32" y1="232" x2="532" y2="232"/>
    <line x1="332" y1="32" x2="332" y2="532"/>
    <line x1="32" y1="332" x2="532" y2="332"/>
    <line x1="432" y1="32" x2="432" y2="532"/>
    <line x1="32" y1="432" x2="532" y2="432"/>
  </g>
</svg>
