<?xml version="1.0" standalone="no"?>
<!DOCTYPE svg PUBLIC "-//W3C//DTD SVG 1.1//EN" 
  "http://www.w3.org/Graphics/SVG/1.1/DTD/svg11.dtd">
<svg width="510" height="510" version="1.1" id="toplevel"
    xmlns="http://www.w3.org/2000/svg"
    xmlns:xlink="http://www.w3.org/1999/xlink">
  <polygon points="35,419 42,413 266,413 266,374 274,373 267,328 475,196 481,161 447,156 446,91 266,93 91,270 29,413"
           fill="bisque"/>
  <g stroke="chocolate" stroke-width="1">
    <line x1="266" y1="321" x2="266" y2="237"/>
    <circle cx="266" cy="321" r="2"/>
    <circle cx="266" cy="237" r="2"/>
  </g>
  <g stroke="chocolate" stroke-width="1">
    <line x1="266" y1="329" x2="266" y2="321"/>
    <circle cx="266" cy="329" r="2"/>
    <circle cx="266" cy="321" r="2"/>
  </g>
  <g stroke="chocolate" stroke-width="1">
    <line x1="266" y1="321" x2="256" y2="261"/>
    <circle cx="266" cy="321" r="2"/>
    <circle cx="256" cy="261" r="2"/>
  </g>
  <g stroke="chocolate" stroke-width="1">
    <line x1="267" y1="328" x2="266" y2="321"/>
    <circle cx="267" cy="328" r="2"/>
    <circle cx="266" cy="321" r="2"/>
  </g>
  <g stroke="chocolate" stroke-width="1">
    <line x1="266" y1="129" x2="266" y2="93"/>
    <circle cx="266" cy="129" r="2"/>
    <circle cx="266" cy="93" r="2"/>
  </g>
  <g stroke="chocolate" stroke-width="1">
    <line x1="266" y1="237" x2="266" y2="129"/>
    <circle cx="266" cy="237" r="2"/>
    <circle cx="266" cy="129" r="2"/>
  </g>
  <g stroke="chocolate" stroke-width="1">
    <line x1="266" y1="129" x2="234" y2="125"/>
    <circle cx="266" cy="129" r="2"/>
    <circle cx="234" cy="125" r="2"/>
  </g>
  <g stroke="chocolate" stroke-width="1">
    <line x1="447" y1="156" x2="266" y2="129"/>
    <circle cx="447" cy="156" r="2"/>
    <circle cx="266" cy="129" r="2"/>
  </g>
  <g stroke="chocolate" stroke-width="1">
    <line x1="42" y1="413" x2="266" y2="413"/>
    <circle cx="42" cy="413" r="2"/>
    <circle cx="266" cy="413" r="2"/>
  </g>
  <g stroke="chocolate" stroke-width="1">
    <line x1="31" y1="413" x2="42" y2="413"/>
    <circle cx="31" cy="413" r="2"/>
    <circle cx="42" cy="413" r="2"/>
  </g>
  <g stroke="chocolate" stroke-width="1">
    <line x1="42" y1="413" x2="48" y2="409"/>
    <circle cx="42" cy="413" r="2"/>
    <circle cx="48" cy="409" r="2"/>
  </g>
  <g stroke="chocolate" stroke-width="1">
    <line x1="35" y1="419" x2="42" y2="413"/>
    <circle cx="35" cy="419" r="2"/>
    <circle cx="42" cy="413" r="2"/>
  </g>
  <g stroke="chocolate" stroke-width="1">
    <line x1="266" y1="237" x2="303" y2="143"/>
    <circle cx="266" cy="237" r="2"/>
    <circle cx="303" cy="143" r="2"/>
  </g>
  <g stroke="chocolate" stroke-width="1">
    <line x1="256" y1="261" x2="266" y2="237"/>
    <circle cx="256" cy="261" r="2"/>
    <circle cx="266" cy="237" r="2"/>
  </g>
  <g stroke="chocolate" stroke-width="1">
    <line x1="266" y1="374" x2="274" y2="373"/>
    <circle cx="266" cy="374" r="2"/>
    <circle cx="274" cy="373" r="2"/>
  </g>
  <g stroke="chocolate" stroke-width="1">
    <line x1="48" y1="409" x2="266" y2="374"/>
    <circle cx="48" cy="409" r="2"/>
    <circle cx="266" cy="374" r="2"/>
  </g>
  <g stroke="chocolate" stroke-width="1">
    <line x1="266" y1="374" x2="266" y2="329"/>
    <circle cx="266" cy="374" r="2"/>
    <circle cx="266" cy="329" r="2"/>
  </g>
  <g stroke="chocolate" stroke-width="1">
    <line x1="266" y1="413" x2="266" y2="374"/>
    <circle cx="266" cy="413" r="2"/>
    <circle cx="266" cy="374" r="2"/>
  </g>
  <g stroke="chocolate" stroke-width="1">
    <line x1="274" y1="373" x2="267" y2="328"/>
    <circle cx="274" cy="373" r="2"/>
    <circle cx="267" cy="328" r="2"/>
  </g>
  <g stroke="chocolate" stroke-width="1">
    <line x1="267" y1="328" x2="475" y2="196"/>
    <circle cx="267" cy="328" r="2"/>
    <circle cx="475" cy="196" r="2"/>
  </g>
  <g stroke="chocolate" stroke-width="1">
    <line x1="266" y1="329" x2="267" y2="328"/>
    <circle cx="266" cy="329" r="2"/>
    <circle cx="267" cy="328" r="2"/>
  </g>
  <g stroke="chocolate" stroke-width="1">
    <line x1="447" y1="187" x2="447" y2="156"/>
    <circle cx="447" cy="187" r="2"/>
    <circle cx="447" cy="156" r="2"/>
  </g>
  <g stroke="chocolate" stroke-width="1">
    <line x1="447" y1="214" x2="447" y2="187"/>
    <circle cx="447" cy="214" r="2"/>
    <circle cx="447" cy="187" r="2"/>
  </g>
  <g stroke="chocolate" stroke-width="1">
    <line x1="447" y1="187" x2="303" y2="143"/>
    <circle cx="447" cy="187" r="2"/>
    <circle cx="303" cy="143" r="2"/>
  </g>
  <g stroke="chocolate" stroke-width="1">
    <line x1="475" y1="196" x2="447" y2="187"/>
    <circle cx="475" cy="196" r="2"/>
    <circle cx="447" cy="187" r="2"/>
  </g>
  <g stroke="chocolate" stroke-width="1">
    <line x1="481" y1="161" x2="447" y2="156"/>
    <circle cx="481" cy="161" r="2"/>
    <circle cx="447" cy="156" r="2"/>
  </g>
  <g stroke="chocolate" stroke-width="1">
    <line x1="447" y1="156" x2="446" y2="91"/>
    <circle cx="447" cy="156" r="2"/>
    <circle cx="446" cy="91" r="2"/>
  </g>
  <g stroke="chocolate" stroke-width="1">
    <line x1="31" y1="413" x2="30" y2="412"/>
    <circle cx="31" cy="413" r="2"/>
    <circle cx="30" cy="412" r="2"/>
  </g>
  <g stroke="chocolate" stroke-width="1">
    <line x1="35" y1="419" x2="31" y2="413"/>
    <circle cx="35" cy="419" r="2"/>
    <circle cx="31" cy="413" r="2"/>
  </g>
  <g stroke="chocolate" stroke-width="1">
    <line x1="29" y1="413" x2="31" y2="413"/>
    <circle cx="29" cy="413" r="2"/>
    <circle cx="31" cy="413" r="2"/>
  </g>
  <g stroke="chocolate" stroke-width="1">
    <line x1="88" y1="351" x2="57" y2="349"/>
    <circle cx="88" cy="351" r="2"/>
    <circle cx="57" cy="349" r="2"/>
  </g>
  <g stroke="chocolate" stroke-width="1">
    <line x1="217" y1="359" x2="88" y2="351"/>
    <circle cx="217" cy="359" r="2"/>
    <circle cx="88" cy="351" r="2"/>
  </g>
  <g stroke="chocolate" stroke-width="1">
    <line x1="88" y1="351" x2="91" y2="270"/>
    <circle cx="88" cy="351" r="2"/>
    <circle cx="91" cy="270" r="2"/>
  </g>
  <g stroke="chocolate" stroke-width="1">
    <line x1="87" y1="377" x2="88" y2="351"/>
    <circle cx="87" cy="377" r="2"/>
    <circle cx="88" cy="351" r="2"/>
  </g>
  <g stroke="chocolate" stroke-width="1">
    <line x1="30" y1="412" x2="48" y2="409"/>
    <circle cx="30" cy="412" r="2"/>
    <circle cx="48" cy="409" r="2"/>
  </g>
  <g stroke="chocolate" stroke-width="1">
    <line x1="48" y1="409" x2="87" y2="377"/>
    <circle cx="48" cy="409" r="2"/>
    <circle cx="87" cy="377" r="2"/>
  </g>
  <g stroke="chocolate" stroke-width="1">
    <line x1="256" y1="261" x2="234" y2="125"/>
    <circle cx="256" cy="261" r="2"/>
    <circle cx="234" cy="125" r="2"/>
  </g>
  <g stroke="chocolate" stroke-width="1">
    <line x1="217" y1="359" x2="256" y2="261"/>
    <circle cx="217" cy="359" r="2"/>
    <circle cx="256" cy="261" r="2"/>
  </g>
  <g stroke="chocolate" stroke-width="1">
    <line x1="217" y1="359" x2="266" y2="329"/>
    <circle cx="217" cy="359" r="2"/>
    <circle cx="266" cy="329" r="2"/>
  </g>
  <g stroke="chocolate" stroke-width="1">
    <line x1="447" y1="214" x2="303" y2="143"/>
    <circle cx="447" cy="214" r="2"/>
    <circle cx="303" cy="143" r="2"/>
  </g>
  <g stroke="chocolate" stroke-width="1">
    <line x1="266" y1="93" x2="446" y2="91"/>
    <circle cx="266" cy="93" r="2"/>
    <circle cx="446" cy="91" r="2"/>
  </g>
  <g stroke="chocolate" stroke-width="1">
    <line x1="87" y1="377" x2="57" y2="349"/>
    <circle cx="87" cy="377" r="2"/>
    <circle cx="57" cy="349" r="2"/>
  </g>
  <g stroke="chocolate" stroke-width="1">
    <line x1="35" y1="419" x2="29" y2="413"/>
    <circle cx="35" cy="419" r="2"/>
    <circle cx="29" cy="413" r="2"/>
  </g>
  <g stroke="chocolate" stroke-width="1">
    <line x1="91" y1="270" x2="266" y2="93"/>
    <circle cx="91" cy="270" r="2"/>
    <circle cx="266" cy="93" r="2"/>
  </g>
  <g stroke="chocolate" stroke-width="1">
    <line x1="29" y1="413" x2="91" y2="270"/>
    <circle cx="29" cy="413" r="2"/>
    <circle cx="91" cy="270" r="2"/>
  </g>
  <g stroke="chocolate" stroke-width="1">
    <line x1="475" y1="196" x2="481" y2="161"/>
    <circle cx="475" cy="196" r="2"/>
    <circle cx="481" cy="161" r="2"/>
  </g>
  <g stroke="black" stroke-width="1">
    <line x1="5" y1="5" x2="505" y2="5"/>
    <line x1="5" y1="5" x2="5" y2="505"/>
    <line x1="505" y1="505" x2="5" y2="505"/>
    <line x1="505" y1="505" x2="505" y2="5"/>
    <line x1="105" y1="2" x2="105" y2="8"/>
    <line x1="2" y1="105" x2="8" y2="105"/>
    <line x1="105" y1="502" x2="105" y2="508"/>
    <line x1="502" y1="105" x2="508" y2="105"/>
    <line x1="205" y1="2" x2="205" y2="8"/>
    <line x1="2" y1="205" x2="8" y2="205"/>
    <line x1="205" y1="502" x2="205" y2="508"/>
    <line x1="502" y1="205" x2="508" y2="205"/>
    <line x1="305" y1="2" x2="305" y2="8"/>
    <line x1="2" y1="305" x2="8" y2="305"/>
    <line x1="305" y1="502" x2="305" y2="508"/>
    <line x1="502" y1="305" x2="508" y2="305"/>
    <line x1="405" y1="2" x2="405" y2="8"/>
    <line x1="2" y1="405" x2="8" y2="405"/>
    <line x1="405" y1="502" x2="405" y2="508"/>
    <line x1="502" y1="405" x2="508" y2="405"/>
  </g>
  <g stroke="gray" stroke-width="1" stroke-dasharray="5,5">
    <line x1="105" y1="5" x2="105" y2="505"/>
    <line x1="5" y1="105" x2="505" y2="105"/>
    <line x1="205" y1="5" x2="205" y2="505"/>
    <line x1="5" y1="205" x2="505" y2="205"/>
    <line x1="305" y1="5" x2="305" y2="505"/>
    <line x1="5" y1="305" x2="505" y2="305"/>
    <line x1="405" y1="5" x2="405" y2="505"/>
    <line x1="5" y1="405" x2="505" y2="405"/>
  </g>
</svg>
