<?xml version="1.0" standalone="no"?>
<!DOCTYPE svg PUBLIC "-//W3C//DTD SVG 1.1//EN" 
  "http://www.w3.org/Graphics/SVG/1.1/DTD/svg11.dtd">
<svg width="550" height="550" version="1.1" id="toplevel"
    xmlns="http://www.w3.org/2000/svg"
    xmlns:xlink="http://www.w3.org/1999/xlink">
  <polygon points="137,454 195,365 296,365 442,409 545,252 443,185 443,96 371,96 178,200 5,368 8,373 11,372"
           fill="bisque"/>
  <g stroke="chocolate" stroke-width="1">
    <line x1="212" y1="339" x2="114" y2="310"/>
    <circle cx="212" cy="339" r="2"/>
    <circle cx="114" cy="310" r="2"/>
  </g>
  <g stroke="chocolate" stroke-width="1">
    <line x1="296" y1="365" x2="212" y2="339"/>
    <circle cx="296" cy="365" r="2"/>
    <circle cx="212" cy="339" r="2"/>
  </g>
  <g stroke="chocolate" stroke-width="1">
    <line x1="212" y1="339" x2="337" y2="149"/>
    <circle cx="212" cy="339" r="2"/>
    <circle cx="337" cy="149" r="2"/>
  </g>
  <g stroke="chocolate" stroke-width="1">
    <line x1="195" y1="365" x2="212" y2="339"/>
    <circle cx="195" cy="365" r="2"/>
    <circle cx="212" cy="339" r="2"/>
  </g>
  <g stroke="chocolate" stroke-width="1">
    <line x1="352" y1="125" x2="371" y2="96"/>
    <circle cx="352" cy="125" r="2"/>
    <circle cx="371" cy="96" r="2"/>
  </g>
  <g stroke="chocolate" stroke-width="1">
    <line x1="337" y1="149" x2="352" y2="125"/>
    <circle cx="337" cy="149" r="2"/>
    <circle cx="352" cy="125" r="2"/>
  </g>
  <g stroke="chocolate" stroke-width="1">
    <line x1="352" y1="125" x2="337" y2="115"/>
    <circle cx="352" cy="125" r="2"/>
    <circle cx="337" cy="115" r="2"/>
  </g>
  <g stroke="chocolate" stroke-width="1">
    <line x1="443" y1="185" x2="352" y2="125"/>
    <circle cx="443" cy="185" r="2"/>
    <circle cx="352" cy="125" r="2"/>
  </g>
  <g stroke="chocolate" stroke-width="1">
    <line x1="442" y1="409" x2="296" y2="365"/>
    <circle cx="442" cy="409" r="2"/>
    <circle cx="296" cy="365" r="2"/>
  </g>
  <g stroke="chocolate" stroke-width="1">
    <line x1="296" y1="365" x2="337" y2="365"/>
    <circle cx="296" cy="365" r="2"/>
    <circle cx="337" cy="365" r="2"/>
  </g>
  <g stroke="chocolate" stroke-width="1">
    <line x1="195" y1="365" x2="296" y2="365"/>
    <circle cx="195" cy="365" r="2"/>
    <circle cx="296" cy="365" r="2"/>
  </g>
  <g stroke="chocolate" stroke-width="1">
    <line x1="38" y1="365" x2="91" y2="351"/>
    <circle cx="38" cy="365" r="2"/>
    <circle cx="91" cy="351" r="2"/>
  </g>
  <g stroke="chocolate" stroke-width="1">
    <line x1="11" y1="372" x2="38" y2="365"/>
    <circle cx="11" cy="372" r="2"/>
    <circle cx="38" cy="365" r="2"/>
  </g>
  <g stroke="chocolate" stroke-width="1">
    <line x1="38" y1="365" x2="195" y2="365"/>
    <circle cx="38" cy="365" r="2"/>
    <circle cx="195" cy="365" r="2"/>
  </g>
  <g stroke="chocolate" stroke-width="1">
    <line x1="8" y1="365" x2="38" y2="365"/>
    <circle cx="8" cy="365" r="2"/>
    <circle cx="38" cy="365" r="2"/>
  </g>
  <g stroke="chocolate" stroke-width="1">
    <line x1="337" y1="149" x2="337" y2="115"/>
    <circle cx="337" cy="149" r="2"/>
    <circle cx="337" cy="115" r="2"/>
  </g>
  <g stroke="chocolate" stroke-width="1">
    <line x1="337" y1="365" x2="337" y2="149"/>
    <circle cx="337" cy="365" r="2"/>
    <circle cx="337" cy="149" r="2"/>
  </g>
  <g stroke="chocolate" stroke-width="1">
    <line x1="545" y1="252" x2="443" y2="185"/>
    <circle cx="545" cy="252" r="2"/>
    <circle cx="443" cy="185" r="2"/>
  </g>
  <g stroke="chocolate" stroke-width="1">
    <line x1="443" y1="185" x2="443" y2="96"/>
    <circle cx="443" cy="185" r="2"/>
    <circle cx="443" cy="96" r="2"/>
  </g>
  <g stroke="chocolate" stroke-width="1">
    <line x1="442" y1="409" x2="443" y2="185"/>
    <circle cx="442" cy="409" r="2"/>
    <circle cx="443" cy="185" r="2"/>
  </g>
  <g stroke="chocolate" stroke-width="1">
    <line x1="8" y1="370" x2="5" y2="368"/>
    <circle cx="8" cy="370" r="2"/>
    <circle cx="5" cy="368" r="2"/>
  </g>
  <g stroke="chocolate" stroke-width="1">
    <line x1="11" y1="372" x2="8" y2="370"/>
    <circle cx="11" cy="372" r="2"/>
    <circle cx="8" cy="370" r="2"/>
  </g>
  <g stroke="chocolate" stroke-width="1">
    <line x1="8" y1="370" x2="8" y2="365"/>
    <circle cx="8" cy="370" r="2"/>
    <circle cx="8" cy="365" r="2"/>
  </g>
  <g stroke="chocolate" stroke-width="1">
    <line x1="8" y1="373" x2="8" y2="370"/>
    <circle cx="8" cy="373" r="2"/>
    <circle cx="8" cy="370" r="2"/>
  </g>
  <g stroke="chocolate" stroke-width="1">
    <line x1="137" y1="454" x2="11" y2="372"/>
    <circle cx="137" cy="454" r="2"/>
    <circle cx="11" cy="372" r="2"/>
  </g>
  <g stroke="chocolate" stroke-width="1">
    <line x1="8" y1="373" x2="11" y2="372"/>
    <circle cx="8" cy="373" r="2"/>
    <circle cx="11" cy="372" r="2"/>
  </g>
  <g stroke="chocolate" stroke-width="1">
    <line x1="114" y1="310" x2="77" y2="298"/>
    <circle cx="114" cy="310" r="2"/>
    <circle cx="77" cy="298" r="2"/>
  </g>
  <g stroke="chocolate" stroke-width="1">
    <line x1="114" y1="310" x2="178" y2="200"/>
    <circle cx="114" cy="310" r="2"/>
    <circle cx="178" cy="200" r="2"/>
  </g>
  <g stroke="chocolate" stroke-width="1">
    <line x1="91" y1="351" x2="114" y2="310"/>
    <circle cx="91" cy="351" r="2"/>
    <circle cx="114" cy="310" r="2"/>
  </g>
  <g stroke="chocolate" stroke-width="1">
    <line x1="137" y1="454" x2="195" y2="365"/>
    <circle cx="137" cy="454" r="2"/>
    <circle cx="195" cy="365" r="2"/>
  </g>
  <g stroke="chocolate" stroke-width="1">
    <line x1="443" y1="96" x2="371" y2="96"/>
    <circle cx="443" cy="96" r="2"/>
    <circle cx="371" cy="96" r="2"/>
  </g>
  <g stroke="chocolate" stroke-width="1">
    <line x1="8" y1="373" x2="5" y2="368"/>
    <circle cx="8" cy="373" r="2"/>
    <circle cx="5" cy="368" r="2"/>
  </g>
  <g stroke="chocolate" stroke-width="1">
    <line x1="91" y1="351" x2="77" y2="298"/>
    <circle cx="91" cy="351" r="2"/>
    <circle cx="77" cy="298" r="2"/>
  </g>
  <g stroke="chocolate" stroke-width="1">
    <line x1="178" y1="200" x2="371" y2="96"/>
    <circle cx="178" cy="200" r="2"/>
    <circle cx="371" cy="96" r="2"/>
  </g>
  <g stroke="chocolate" stroke-width="1">
    <line x1="5" y1="368" x2="178" y2="200"/>
    <circle cx="5" cy="368" r="2"/>
    <circle cx="178" cy="200" r="2"/>
  </g>
  <g stroke="chocolate" stroke-width="1">
    <line x1="442" y1="409" x2="545" y2="252"/>
    <circle cx="442" cy="409" r="2"/>
    <circle cx="545" cy="252" r="2"/>
  </g>
  <g stroke="black" stroke-width="1">
    <line x1="25" y1="25" x2="525" y2="25"/>
    <line x1="25" y1="25" x2="25" y2="525"/>
    <line x1="525" y1="525" x2="25" y2="525"/>
    <line x1="525" y1="525" x2="525" y2="25"/>
    <line x1="125" y1="22" x2="125" y2="28"/>
    <line x1="22" y1="125" x2="28" y2="125"/>
    <line x1="125" y1="522" x2="125" y2="528"/>
    <line x1="522" y1="125" x2="528" y2="125"/>
    <line x1="225" y1="22" x2="225" y2="28"/>
    <line x1="22" y1="225" x2="28" y2="225"/>
    <line x1="225" y1="522" x2="225" y2="528"/>
    <line x1="522" y1="225" x2="528" y2="225"/>
    <line x1="325" y1="22" x2="325" y2="28"/>
    <line x1="22" y1="325" x2="28" y2="325"/>
    <line x1="325" y1="522" x2="325" y2="528"/>
    <line x1="522" y1="325" x2="528" y2="325"/>
    <line x1="425" y1="22" x2="425" y2="28"/>
    <line x1="22" y1="425" x2="28" y2="425"/>
    <line x1="425" y1="522" x2="425" y2="528"/>
    <line x1="522" y1="425" x2="528" y2="425"/>
  </g>
  <g stroke="gray" stroke-width="1" stroke-dasharray="5,5">
    <line x1="125" y1="25" x2="125" y2="525"/>
    <line x1="25" y1="125" x2="525" y2="125"/>
    <line x1="225" y1="25" x2="225" y2="525"/>
    <line x1="25" y1="225" x2="525" y2="225"/>
    <line x1="325" y1="25" x2="325" y2="525"/>
    <line x1="25" y1="325" x2="525" y2="325"/>
    <line x1="425" y1="25" x2="425" y2="525"/>
    <line x1="25" y1="425" x2="525" y2="425"/>
  </g>
</svg>
