<?xml version="1.0" standalone="no"?>
<!DOCTYPE svg PUBLIC "-//W3C//DTD SVG 1.1//EN" 
  "http://www.w3.org/Graphics/SVG/1.1/DTD/svg11.dtd">
<svg width="560" height="560" version="1.1" id="toplevel"
    xmlns="http://www.w3.org/2000/svg"
    xmlns:xlink="http://www.w3.org/1999/xlink">
  <polygon points="5,530 555,530 555,430 5,430" fill="bisque"/>
  <g stroke="chocolate" stroke-width="1">
    <line x1="26" y1="458" x2="5" y2="430"/>
    <circle cx="26" cy="458" r="2"/>
    <circle cx="5" cy="430" r="2"/>
  </g>
  <g stroke="chocolate" stroke-width="1">
    <line x1="80" y1="530" x2="26" y2="458"/>
    <circle cx="80" cy="530" r="2"/>
    <circle cx="26" cy="458" r="2"/>
  </g>
  <g stroke="chocolate" stroke-width="1">
    <line x1="26" y1="458" x2="63" y2="430"/>
    <circle cx="26" cy="458" r="2"/>
    <circle cx="63" cy="430" r="2"/>
  </g>
  <g stroke="chocolate" stroke-width="1">
    <line x1="5" y1="474" x2="26" y2="458"/>
    <circle cx="5" cy="474" r="2"/>
    <circle cx="26" cy="458" r="2"/>
  </g>
  <g stroke="chocolate" stroke-width="1">
    <line x1="122" y1="474" x2="63" y2="430"/>
    <circle cx="122" cy="474" r="2"/>
    <circle cx="63" cy="430" r="2"/>
  </g>
  <g stroke="chocolate" stroke-width="1">
    <line x1="197" y1="530" x2="122" y2="474"/>
    <circle cx="197" cy="530" r="2"/>
    <circle cx="122" cy="474" r="2"/>
  </g>
  <g stroke="chocolate" stroke-width="1">
    <line x1="122" y1="474" x2="155" y2="430"/>
    <circle cx="122" cy="474" r="2"/>
    <circle cx="155" cy="430" r="2"/>
  </g>
  <g stroke="chocolate" stroke-width="1">
    <line x1="80" y1="530" x2="122" y2="474"/>
    <circle cx="80" cy="530" r="2"/>
    <circle cx="122" cy="474" r="2"/>
  </g>
  <g stroke="chocolate" stroke-width="1">
    <line x1="218" y1="514" x2="155" y2="430"/>
    <circle cx="218" cy="514" r="2"/>
    <circle cx="155" cy="430" r="2"/>
  </g>
  <g stroke="chocolate" stroke-width="1">
    <line x1="230" y1="530" x2="218" y2="514"/>
    <circle cx="230" cy="530" r="2"/>
    <circle cx="218" cy="514" r="2"/>
  </g>
  <g stroke="chocolate" stroke-width="1">
    <line x1="218" y1="514" x2="330" y2="430"/>
    <circle cx="218" cy="514" r="2"/>
    <circle cx="330" cy="430" r="2"/>
  </g>
  <g stroke="chocolate" stroke-width="1">
    <line x1="197" y1="530" x2="218" y2="514"/>
    <circle cx="197" cy="530" r="2"/>
    <circle cx="218" cy="514" r="2"/>
  </g>
  <g stroke="chocolate" stroke-width="1">
    <line x1="342" y1="446" x2="330" y2="430"/>
    <circle cx="342" cy="446" r="2"/>
    <circle cx="330" cy="430" r="2"/>
  </g>
  <g stroke="chocolate" stroke-width="1">
    <line x1="405" y1="530" x2="342" y2="446"/>
    <circle cx="405" cy="530" r="2"/>
    <circle cx="342" cy="446" r="2"/>
  </g>
  <g stroke="chocolate" stroke-width="1">
    <line x1="342" y1="446" x2="363" y2="430"/>
    <circle cx="342" cy="446" r="2"/>
    <circle cx="363" cy="430" r="2"/>
  </g>
  <g stroke="chocolate" stroke-width="1">
    <line x1="230" y1="530" x2="342" y2="446"/>
    <circle cx="230" cy="530" r="2"/>
    <circle cx="342" cy="446" r="2"/>
  </g>
  <g stroke="chocolate" stroke-width="1">
    <line x1="438" y1="486" x2="363" y2="430"/>
    <circle cx="438" cy="486" r="2"/>
    <circle cx="363" cy="430" r="2"/>
  </g>
  <g stroke="chocolate" stroke-width="1">
    <line x1="497" y1="530" x2="438" y2="486"/>
    <circle cx="497" cy="530" r="2"/>
    <circle cx="438" cy="486" r="2"/>
  </g>
  <g stroke="chocolate" stroke-width="1">
    <line x1="438" y1="486" x2="480" y2="430"/>
    <circle cx="438" cy="486" r="2"/>
    <circle cx="480" cy="430" r="2"/>
  </g>
  <g stroke="chocolate" stroke-width="1">
    <line x1="405" y1="530" x2="438" y2="486"/>
    <circle cx="405" cy="530" r="2"/>
    <circle cx="438" cy="486" r="2"/>
  </g>
  <g stroke="chocolate" stroke-width="1">
    <line x1="534" y1="502" x2="480" y2="430"/>
    <circle cx="534" cy="502" r="2"/>
    <circle cx="480" cy="430" r="2"/>
  </g>
  <g stroke="chocolate" stroke-width="1">
    <line x1="555" y1="530" x2="534" y2="502"/>
    <circle cx="555" cy="530" r="2"/>
    <circle cx="534" cy="502" r="2"/>
  </g>
  <g stroke="chocolate" stroke-width="1">
    <line x1="534" y1="502" x2="555" y2="486"/>
    <circle cx="534" cy="502" r="2"/>
    <circle cx="555" cy="486" r="2"/>
  </g>
  <g stroke="chocolate" stroke-width="1">
    <line x1="497" y1="530" x2="534" y2="502"/>
    <circle cx="497" cy="530" r="2"/>
    <circle cx="534" cy="502" r="2"/>
  </g>
  <g stroke="chocolate" stroke-width="1">
    <line x1="555" y1="486" x2="480" y2="430"/>
    <circle cx="555" cy="486" r="2"/>
    <circle cx="480" cy="430" r="2"/>
  </g>
  <g stroke="chocolate" stroke-width="1">
    <line x1="5" y1="430" x2="555" y2="430"/>
    <circle cx="5" cy="430" r="2"/>
    <circle cx="555" cy="430" r="2"/>
  </g>
  <g stroke="chocolate" stroke-width="1">
    <line x1="80" y1="530" x2="5" y2="474"/>
    <circle cx="80" cy="530" r="2"/>
    <circle cx="5" cy="474" r="2"/>
  </g>
  <g stroke="chocolate" stroke-width="1">
    <line x1="555" y1="530" x2="555" y2="430"/>
    <circle cx="555" cy="530" r="2"/>
    <circle cx="555" cy="430" r="2"/>
  </g>
  <g stroke="chocolate" stroke-width="1">
    <line x1="5" y1="530" x2="5" y2="430"/>
    <circle cx="5" cy="530" r="2"/>
    <circle cx="5" cy="430" r="2"/>
  </g>
  <g stroke="chocolate" stroke-width="1">
    <line x1="5" y1="530" x2="555" y2="530"/>
    <circle cx="5" cy="530" r="2"/>
    <circle cx="555" cy="530" r="2"/>
  </g>
  <g stroke="black" stroke-width="1">
    <line x1="30" y1="30" x2="530" y2="30"/>
    <line x1="30" y1="30" x2="30" y2="530"/>
    <line x1="530" y1="530" x2="30" y2="530"/>
    <line x1="530" y1="530" x2="530" y2="30"/>
    <line x1="130" y1="27" x2="130" y2="33"/>
    <line x1="27" y1="130" x2="33" y2="130"/>
    <line x1="130" y1="527" x2="130" y2="533"/>
    <line x1="527" y1="130" x2="533" y2="130"/>
    <line x1="230" y1="27" x2="230" y2="33"/>
    <line x1="27" y1="230" x2="33" y2="230"/>
    <line x1="230" y1="527" x2="230" y2="533"/>
    <line x1="527" y1="230" x2="533" y2="230"/>
    <line x1="330" y1="27" x2="330" y2="33"/>
    <line x1="27" y1="330" x2="33" y2="330"/>
    <line x1="330" y1="527" x2="330" y2="533"/>
    <line x1="527" y1="330" x2="533" y2="330"/>
    <line x1="430" y1="27" x2="430" y2="33"/>
    <line x1="27" y1="430" x2="33" y2="430"/>
    <line x1="430" y1="527" x2="430" y2="533"/>
    <line x1="527" y1="430" x2="533" y2="430"/>
  </g>
  <g stroke="gray" stroke-width="1" stroke-dasharray="5,5">
    <line x1="130" y1="30" x2="130" y2="530"/>
    <line x1="30" y1="130" x2="530" y2="130"/>
    <line x1="230" y1="30" x2="230" y2="530"/>
    <line x1="30" y1="230" x2="530" y2="230"/>
    <line x1="330" y1="30" x2="330" y2="530"/>
    <line x1="30" y1="330" x2="530" y2="330"/>
    <line x1="430" y1="30" x2="430" y2="530"/>
    <line x1="30" y1="430" x2="530" y2="430"/>
  </g>
</svg>
