<?xml version="1.0" standalone="no"?>
<!DOCTYPE svg PUBLIC "-//W3C//DTD SVG 1.1//EN" 
  "http://www.w3.org/Graphics/SVG/1.1/DTD/svg11.dtd">
<svg width="510" height="510" version="1.1" id="toplevel"
    xmlns="http://www.w3.org/2000/svg"
    xmlns:xlink="http://www.w3.org/1999/xlink">
  <polygon points="334,360 497,182 447,156 133,117 13,179 121,270" fill="bisque"/>
  <g stroke="chocolate" stroke-width="1">
    <line x1="287" y1="193" x2="319" y2="185"/>
    <circle cx="287" cy="193" r="2"/>
    <circle cx="319" cy="185" r="2"/>
  </g>
  <g stroke="chocolate" stroke-width="1">
    <line x1="284" y1="193" x2="287" y2="193"/>
    <circle cx="284" cy="193" r="2"/>
    <circle cx="287" cy="193" r="2"/>
  </g>
  <g stroke="chocolate" stroke-width="1">
    <line x1="287" y1="193" x2="271" y2="172"/>
    <circle cx="287" cy="193" r="2"/>
    <circle cx="271" cy="172" r="2"/>
  </g>
  <g stroke="chocolate" stroke-width="1">
    <line x1="287" y1="193" x2="287" y2="193"/>
    <circle cx="287" cy="193" r="2"/>
    <circle cx="287" cy="193" r="2"/>
  </g>
  <g stroke="chocolate" stroke-width="1">
    <line x1="226" y1="199" x2="227" y2="199"/>
    <circle cx="226" cy="199" r="2"/>
    <circle cx="227" cy="199" r="2"/>
  </g>
  <g stroke="chocolate" stroke-width="1">
    <line x1="212" y1="200" x2="226" y2="199"/>
    <circle cx="212" cy="200" r="2"/>
    <circle cx="226" cy="199" r="2"/>
  </g>
  <g stroke="chocolate" stroke-width="1">
    <line x1="226" y1="199" x2="218" y2="192"/>
    <circle cx="226" cy="199" r="2"/>
    <circle cx="218" cy="192" r="2"/>
  </g>
  <g stroke="chocolate" stroke-width="1">
    <line x1="233" y1="205" x2="226" y2="199"/>
    <circle cx="233" cy="205" r="2"/>
    <circle cx="226" cy="199" r="2"/>
  </g>
  <g stroke="chocolate" stroke-width="1">
    <line x1="312" y1="191" x2="344" y2="188"/>
    <circle cx="312" cy="191" r="2"/>
    <circle cx="344" cy="188" r="2"/>
  </g>
  <g stroke="chocolate" stroke-width="1">
    <line x1="287" y1="193" x2="312" y2="191"/>
    <circle cx="287" cy="193" r="2"/>
    <circle cx="312" cy="191" r="2"/>
  </g>
  <g stroke="chocolate" stroke-width="1">
    <line x1="312" y1="191" x2="319" y2="185"/>
    <circle cx="312" cy="191" r="2"/>
    <circle cx="319" cy="185" r="2"/>
  </g>
  <g stroke="chocolate" stroke-width="1">
    <line x1="295" y1="205" x2="312" y2="191"/>
    <circle cx="295" cy="205" r="2"/>
    <circle cx="312" cy="191" r="2"/>
  </g>
  <g stroke="chocolate" stroke-width="1">
    <line x1="284" y1="193" x2="287" y2="193"/>
    <circle cx="284" cy="193" r="2"/>
    <circle cx="287" cy="193" r="2"/>
  </g>
  <g stroke="chocolate" stroke-width="1">
    <line x1="233" y1="198" x2="284" y2="193"/>
    <circle cx="233" cy="198" r="2"/>
    <circle cx="284" cy="193" r="2"/>
  </g>
  <g stroke="chocolate" stroke-width="1">
    <line x1="233" y1="205" x2="284" y2="193"/>
    <circle cx="233" cy="205" r="2"/>
    <circle cx="284" cy="193" r="2"/>
  </g>
  <g stroke="chocolate" stroke-width="1">
    <line x1="344" y1="188" x2="484" y2="175"/>
    <circle cx="344" cy="188" r="2"/>
    <circle cx="484" cy="175" r="2"/>
  </g>
  <g stroke="chocolate" stroke-width="1">
    <line x1="344" y1="188" x2="344" y2="180"/>
    <circle cx="344" cy="188" r="2"/>
    <circle cx="344" cy="180" r="2"/>
  </g>
  <g stroke="chocolate" stroke-width="1">
    <line x1="340" y1="266" x2="344" y2="188"/>
    <circle cx="340" cy="266" r="2"/>
    <circle cx="344" cy="188" r="2"/>
  </g>
  <g stroke="chocolate" stroke-width="1">
    <line x1="239" y1="148" x2="238" y2="148"/>
    <circle cx="239" cy="148" r="2"/>
    <circle cx="238" cy="148" r="2"/>
  </g>
  <g stroke="chocolate" stroke-width="1">
    <line x1="248" y1="152" x2="239" y2="148"/>
    <circle cx="248" cy="152" r="2"/>
    <circle cx="239" cy="148" r="2"/>
  </g>
  <g stroke="chocolate" stroke-width="1">
    <line x1="239" y1="148" x2="240" y2="132"/>
    <circle cx="239" cy="148" r="2"/>
    <circle cx="240" cy="132" r="2"/>
  </g>
  <g stroke="chocolate" stroke-width="1">
    <line x1="235" y1="179" x2="239" y2="148"/>
    <circle cx="235" cy="179" r="2"/>
    <circle cx="239" cy="148" r="2"/>
  </g>
  <g stroke="chocolate" stroke-width="1">
    <line x1="271" y1="172" x2="242" y2="131"/>
    <circle cx="271" cy="172" r="2"/>
    <circle cx="242" cy="131" r="2"/>
  </g>
  <g stroke="chocolate" stroke-width="1">
    <line x1="271" y1="172" x2="322" y2="141"/>
    <circle cx="271" cy="172" r="2"/>
    <circle cx="322" cy="141" r="2"/>
  </g>
  <g stroke="chocolate" stroke-width="1">
    <line x1="234" y1="195" x2="271" y2="172"/>
    <circle cx="234" cy="195" r="2"/>
    <circle cx="271" cy="172" r="2"/>
  </g>
  <g stroke="chocolate" stroke-width="1">
    <line x1="227" y1="198" x2="233" y2="198"/>
    <circle cx="227" cy="198" r="2"/>
    <circle cx="233" cy="198" r="2"/>
  </g>
  <g stroke="chocolate" stroke-width="1">
    <line x1="233" y1="198" x2="234" y2="195"/>
    <circle cx="233" cy="198" r="2"/>
    <circle cx="234" cy="195" r="2"/>
  </g>
  <g stroke="chocolate" stroke-width="1">
    <line x1="233" y1="205" x2="233" y2="198"/>
    <circle cx="233" cy="205" r="2"/>
    <circle cx="233" cy="198" r="2"/>
  </g>
  <g stroke="chocolate" stroke-width="1">
    <line x1="212" y1="200" x2="218" y2="192"/>
    <circle cx="212" cy="200" r="2"/>
    <circle cx="218" cy="192" r="2"/>
  </g>
  <g stroke="chocolate" stroke-width="1">
    <line x1="179" y1="247" x2="212" y2="200"/>
    <circle cx="179" cy="247" r="2"/>
    <circle cx="212" cy="200" r="2"/>
  </g>
  <g stroke="chocolate" stroke-width="1">
    <line x1="175" y1="203" x2="212" y2="200"/>
    <circle cx="175" cy="203" r="2"/>
    <circle cx="212" cy="200" r="2"/>
  </g>
  <g stroke="chocolate" stroke-width="1">
    <line x1="227" y1="143" x2="226" y2="142"/>
    <circle cx="227" cy="143" r="2"/>
    <circle cx="226" cy="142" r="2"/>
  </g>
  <g stroke="chocolate" stroke-width="1">
    <line x1="238" y1="148" x2="227" y2="143"/>
    <circle cx="238" cy="148" r="2"/>
    <circle cx="227" cy="143" r="2"/>
  </g>
  <g stroke="chocolate" stroke-width="1">
    <line x1="227" y1="143" x2="240" y2="132"/>
    <circle cx="227" cy="143" r="2"/>
    <circle cx="240" cy="132" r="2"/>
  </g>
  <g stroke="chocolate" stroke-width="1">
    <line x1="226" y1="143" x2="227" y2="143"/>
    <circle cx="226" cy="143" r="2"/>
    <circle cx="227" cy="143" r="2"/>
  </g>
  <g stroke="chocolate" stroke-width="1">
    <line x1="226" y1="142" x2="215" y2="137"/>
    <circle cx="226" cy="142" r="2"/>
    <circle cx="215" cy="137" r="2"/>
  </g>
  <g stroke="chocolate" stroke-width="1">
    <line x1="226" y1="142" x2="221" y2="128"/>
    <circle cx="226" cy="142" r="2"/>
    <circle cx="221" cy="128" r="2"/>
  </g>
  <g stroke="chocolate" stroke-width="1">
    <line x1="226" y1="143" x2="226" y2="142"/>
    <circle cx="226" cy="143" r="2"/>
    <circle cx="226" cy="142" r="2"/>
  </g>
  <g stroke="chocolate" stroke-width="1">
    <line x1="36" y1="191" x2="57" y2="170"/>
    <circle cx="36" cy="191" r="2"/>
    <circle cx="57" cy="170" r="2"/>
  </g>
  <g stroke="chocolate" stroke-width="1">
    <line x1="32" y1="195" x2="36" y2="191"/>
    <circle cx="32" cy="195" r="2"/>
    <circle cx="36" cy="191" r="2"/>
  </g>
  <g stroke="chocolate" stroke-width="1">
    <line x1="36" y1="191" x2="35" y2="191"/>
    <circle cx="36" cy="191" r="2"/>
    <circle cx="35" cy="191" r="2"/>
  </g>
  <g stroke="chocolate" stroke-width="1">
    <line x1="87" y1="242" x2="36" y2="191"/>
    <circle cx="87" cy="242" r="2"/>
    <circle cx="36" cy="191" r="2"/>
  </g>
  <g stroke="chocolate" stroke-width="1">
    <line x1="295" y1="205" x2="287" y2="193"/>
    <circle cx="295" cy="205" r="2"/>
    <circle cx="287" cy="193" r="2"/>
  </g>
  <g stroke="chocolate" stroke-width="1">
    <line x1="218" y1="192" x2="148" y2="130"/>
    <circle cx="218" cy="192" r="2"/>
    <circle cx="148" cy="130" r="2"/>
  </g>
  <g stroke="chocolate" stroke-width="1">
    <line x1="218" y1="192" x2="235" y2="168"/>
    <circle cx="218" cy="192" r="2"/>
    <circle cx="235" cy="168" r="2"/>
  </g>
  <g stroke="chocolate" stroke-width="1">
    <line x1="319" y1="185" x2="345" y2="164"/>
    <circle cx="319" cy="185" r="2"/>
    <circle cx="345" cy="164" r="2"/>
  </g>
  <g stroke="chocolate" stroke-width="1">
    <line x1="319" y1="185" x2="344" y2="180"/>
    <circle cx="319" cy="185" r="2"/>
    <circle cx="344" cy="180" r="2"/>
  </g>
  <g stroke="chocolate" stroke-width="1">
    <line x1="340" y1="266" x2="295" y2="205"/>
    <circle cx="340" cy="266" r="2"/>
    <circle cx="295" cy="205" r="2"/>
  </g>
  <g stroke="chocolate" stroke-width="1">
    <line x1="358" y1="292" x2="340" y2="266"/>
    <circle cx="358" cy="292" r="2"/>
    <circle cx="340" cy="266" r="2"/>
  </g>
  <g stroke="chocolate" stroke-width="1">
    <line x1="334" y1="360" x2="340" y2="266"/>
    <circle cx="334" cy="360" r="2"/>
    <circle cx="340" cy="266" r="2"/>
  </g>
  <g stroke="chocolate" stroke-width="1">
    <line x1="238" y1="148" x2="240" y2="132"/>
    <circle cx="238" cy="148" r="2"/>
    <circle cx="240" cy="132" r="2"/>
  </g>
  <g stroke="chocolate" stroke-width="1">
    <line x1="235" y1="168" x2="238" y2="148"/>
    <circle cx="235" cy="168" r="2"/>
    <circle cx="238" cy="148" r="2"/>
  </g>
  <g stroke="chocolate" stroke-width="1">
    <line x1="240" y1="132" x2="242" y2="131"/>
    <circle cx="240" cy="132" r="2"/>
    <circle cx="242" cy="131" r="2"/>
  </g>
  <g stroke="chocolate" stroke-width="1">
    <line x1="240" y1="132" x2="240" y2="132"/>
    <circle cx="240" cy="132" r="2"/>
    <circle cx="240" cy="132" r="2"/>
  </g>
  <g stroke="chocolate" stroke-width="1">
    <line x1="240" y1="132" x2="240" y2="131"/>
    <circle cx="240" cy="132" r="2"/>
    <circle cx="240" cy="131" r="2"/>
  </g>
  <g stroke="chocolate" stroke-width="1">
    <line x1="227" y1="198" x2="234" y2="195"/>
    <circle cx="227" cy="198" r="2"/>
    <circle cx="234" cy="195" r="2"/>
  </g>
  <g stroke="chocolate" stroke-width="1">
    <line x1="234" y1="195" x2="235" y2="179"/>
    <circle cx="234" cy="195" r="2"/>
    <circle cx="235" cy="179" r="2"/>
  </g>
  <g stroke="chocolate" stroke-width="1">
    <line x1="227" y1="199" x2="227" y2="198"/>
    <circle cx="227" cy="199" r="2"/>
    <circle cx="227" cy="198" r="2"/>
  </g>
  <g stroke="chocolate" stroke-width="1">
    <line x1="227" y1="199" x2="235" y2="179"/>
    <circle cx="227" cy="199" r="2"/>
    <circle cx="235" cy="179" r="2"/>
  </g>
  <g stroke="chocolate" stroke-width="1">
    <line x1="226" y1="199" x2="227" y2="199"/>
    <circle cx="226" cy="199" r="2"/>
    <circle cx="227" cy="199" r="2"/>
  </g>
  <g stroke="chocolate" stroke-width="1">
    <line x1="148" y1="130" x2="185" y2="124"/>
    <circle cx="148" cy="130" r="2"/>
    <circle cx="185" cy="124" r="2"/>
  </g>
  <g stroke="chocolate" stroke-width="1">
    <line x1="88" y1="141" x2="148" y2="130"/>
    <circle cx="88" cy="141" r="2"/>
    <circle cx="148" cy="130" r="2"/>
  </g>
  <g stroke="chocolate" stroke-width="1">
    <line x1="148" y1="130" x2="133" y2="117"/>
    <circle cx="148" cy="130" r="2"/>
    <circle cx="133" cy="117" r="2"/>
  </g>
  <g stroke="chocolate" stroke-width="1">
    <line x1="116" y1="262" x2="57" y2="170"/>
    <circle cx="116" cy="262" r="2"/>
    <circle cx="57" cy="170" r="2"/>
  </g>
  <g stroke="chocolate" stroke-width="1">
    <line x1="121" y1="270" x2="116" y2="262"/>
    <circle cx="121" cy="270" r="2"/>
    <circle cx="116" cy="262" r="2"/>
  </g>
  <g stroke="chocolate" stroke-width="1">
    <line x1="116" y1="262" x2="87" y2="242"/>
    <circle cx="116" cy="262" r="2"/>
    <circle cx="87" cy="242" r="2"/>
  </g>
  <g stroke="chocolate" stroke-width="1">
    <line x1="136" y1="277" x2="116" y2="262"/>
    <circle cx="136" cy="277" r="2"/>
    <circle cx="116" cy="262" r="2"/>
  </g>
  <g stroke="chocolate" stroke-width="1">
    <line x1="489" y1="184" x2="484" y2="175"/>
    <circle cx="489" cy="184" r="2"/>
    <circle cx="484" cy="175" r="2"/>
  </g>
  <g stroke="chocolate" stroke-width="1">
    <line x1="492" y1="188" x2="489" y2="184"/>
    <circle cx="492" cy="188" r="2"/>
    <circle cx="489" cy="184" r="2"/>
  </g>
  <g stroke="chocolate" stroke-width="1">
    <line x1="489" y1="184" x2="497" y2="182"/>
    <circle cx="489" cy="184" r="2"/>
    <circle cx="497" cy="182" r="2"/>
  </g>
  <g stroke="chocolate" stroke-width="1">
    <line x1="486" y1="185" x2="489" y2="184"/>
    <circle cx="486" cy="185" r="2"/>
    <circle cx="489" cy="184" r="2"/>
  </g>
  <g stroke="chocolate" stroke-width="1">
    <line x1="24" y1="179" x2="20" y2="175"/>
    <circle cx="24" cy="179" r="2"/>
    <circle cx="20" cy="175" r="2"/>
  </g>
  <g stroke="chocolate" stroke-width="1">
    <line x1="35" y1="191" x2="24" y2="179"/>
    <circle cx="35" cy="191" r="2"/>
    <circle cx="24" cy="179" r="2"/>
  </g>
  <g stroke="chocolate" stroke-width="1">
    <line x1="24" y1="179" x2="36" y2="167"/>
    <circle cx="24" cy="179" r="2"/>
    <circle cx="36" cy="167" r="2"/>
  </g>
  <g stroke="chocolate" stroke-width="1">
    <line x1="21" y1="182" x2="24" y2="179"/>
    <circle cx="21" cy="182" r="2"/>
    <circle cx="24" cy="179" r="2"/>
  </g>
  <g stroke="chocolate" stroke-width="1">
    <line x1="226" y1="199" x2="227" y2="198"/>
    <circle cx="226" cy="199" r="2"/>
    <circle cx="227" cy="198" r="2"/>
  </g>
  <g stroke="chocolate" stroke-width="1">
    <line x1="57" y1="170" x2="88" y2="141"/>
    <circle cx="57" cy="170" r="2"/>
    <circle cx="88" cy="141" r="2"/>
  </g>
  <g stroke="chocolate" stroke-width="1">
    <line x1="57" y1="170" x2="53" y2="164"/>
    <circle cx="57" cy="170" r="2"/>
    <circle cx="53" cy="164" r="2"/>
  </g>
  <g stroke="chocolate" stroke-width="1">
    <line x1="194" y1="171" x2="226" y2="143"/>
    <circle cx="194" cy="171" r="2"/>
    <circle cx="226" cy="143" r="2"/>
  </g>
  <g stroke="chocolate" stroke-width="1">
    <line x1="235" y1="168" x2="226" y2="143"/>
    <circle cx="235" cy="168" r="2"/>
    <circle cx="226" cy="143" r="2"/>
  </g>
  <g stroke="chocolate" stroke-width="1">
    <line x1="35" y1="191" x2="53" y2="164"/>
    <circle cx="35" cy="191" r="2"/>
    <circle cx="53" cy="164" r="2"/>
  </g>
  <g stroke="chocolate" stroke-width="1">
    <line x1="32" y1="195" x2="35" y2="191"/>
    <circle cx="32" cy="195" r="2"/>
    <circle cx="35" cy="191" r="2"/>
  </g>
  <g stroke="chocolate" stroke-width="1">
    <line x1="183" y1="297" x2="295" y2="205"/>
    <circle cx="183" cy="297" r="2"/>
    <circle cx="295" cy="205" r="2"/>
  </g>
  <g stroke="chocolate" stroke-width="1">
    <line x1="215" y1="137" x2="185" y2="124"/>
    <circle cx="215" cy="137" r="2"/>
    <circle cx="185" cy="124" r="2"/>
  </g>
  <g stroke="chocolate" stroke-width="1">
    <line x1="215" y1="137" x2="221" y2="128"/>
    <circle cx="215" cy="137" r="2"/>
    <circle cx="221" cy="128" r="2"/>
  </g>
  <g stroke="chocolate" stroke-width="1">
    <line x1="194" y1="171" x2="215" y2="137"/>
    <circle cx="194" cy="171" r="2"/>
    <circle cx="215" cy="137" r="2"/>
  </g>
  <g stroke="chocolate" stroke-width="1">
    <line x1="179" y1="247" x2="175" y2="203"/>
    <circle cx="179" cy="247" r="2"/>
    <circle cx="175" cy="203" r="2"/>
  </g>
  <g stroke="chocolate" stroke-width="1">
    <line x1="183" y1="297" x2="179" y2="247"/>
    <circle cx="183" cy="297" r="2"/>
    <circle cx="179" cy="247" r="2"/>
  </g>
  <g stroke="chocolate" stroke-width="1">
    <line x1="152" y1="284" x2="179" y2="247"/>
    <circle cx="152" cy="284" r="2"/>
    <circle cx="179" cy="247" r="2"/>
  </g>
  <g stroke="chocolate" stroke-width="1">
    <line x1="344" y1="180" x2="447" y2="156"/>
    <circle cx="344" cy="180" r="2"/>
    <circle cx="447" cy="156" r="2"/>
  </g>
  <g stroke="chocolate" stroke-width="1">
    <line x1="344" y1="180" x2="345" y2="164"/>
    <circle cx="344" cy="180" r="2"/>
    <circle cx="345" cy="164" r="2"/>
  </g>
  <g stroke="chocolate" stroke-width="1">
    <line x1="240" y1="132" x2="240" y2="131"/>
    <circle cx="240" cy="132" r="2"/>
    <circle cx="240" cy="131" r="2"/>
  </g>
  <g stroke="chocolate" stroke-width="1">
    <line x1="235" y1="179" x2="248" y2="152"/>
    <circle cx="235" cy="179" r="2"/>
    <circle cx="248" cy="152" r="2"/>
  </g>
  <g stroke="chocolate" stroke-width="1">
    <line x1="497" y1="182" x2="447" y2="156"/>
    <circle cx="497" cy="182" r="2"/>
    <circle cx="447" cy="156" r="2"/>
  </g>
  <g stroke="chocolate" stroke-width="1">
    <line x1="492" y1="188" x2="486" y2="185"/>
    <circle cx="492" cy="188" r="2"/>
    <circle cx="486" cy="185" r="2"/>
  </g>
  <g stroke="chocolate" stroke-width="1">
    <line x1="447" y1="156" x2="133" y2="117"/>
    <circle cx="447" cy="156" r="2"/>
    <circle cx="133" cy="117" r="2"/>
  </g>
  <g stroke="chocolate" stroke-width="1">
    <line x1="345" y1="164" x2="322" y2="141"/>
    <circle cx="345" cy="164" r="2"/>
    <circle cx="322" cy="141" r="2"/>
  </g>
  <g stroke="chocolate" stroke-width="1">
    <line x1="36" y1="167" x2="53" y2="164"/>
    <circle cx="36" cy="167" r="2"/>
    <circle cx="53" cy="164" r="2"/>
  </g>
  <g stroke="chocolate" stroke-width="1">
    <line x1="21" y1="182" x2="13" y2="179"/>
    <circle cx="21" cy="182" r="2"/>
    <circle cx="13" cy="179" r="2"/>
  </g>
  <g stroke="chocolate" stroke-width="1">
    <line x1="13" y1="179" x2="133" y2="117"/>
    <circle cx="13" cy="179" r="2"/>
    <circle cx="133" cy="117" r="2"/>
  </g>
  <g stroke="chocolate" stroke-width="1">
    <line x1="153" y1="280" x2="136" y2="277"/>
    <circle cx="153" cy="280" r="2"/>
    <circle cx="136" cy="277" r="2"/>
  </g>
  <g stroke="chocolate" stroke-width="1">
    <line x1="334" y1="360" x2="121" y2="270"/>
    <circle cx="334" cy="360" r="2"/>
    <circle cx="121" cy="270" r="2"/>
  </g>
  <g stroke="chocolate" stroke-width="1">
    <line x1="121" y1="270" x2="13" y2="179"/>
    <circle cx="121" cy="270" r="2"/>
    <circle cx="13" cy="179" r="2"/>
  </g>
  <g stroke="chocolate" stroke-width="1">
    <line x1="21" y1="182" x2="20" y2="175"/>
    <circle cx="21" cy="182" r="2"/>
    <circle cx="20" cy="175" r="2"/>
  </g>
  <g stroke="chocolate" stroke-width="1">
    <line x1="152" y1="284" x2="153" y2="280"/>
    <circle cx="152" cy="284" r="2"/>
    <circle cx="153" cy="280" r="2"/>
  </g>
  <g stroke="chocolate" stroke-width="1">
    <line x1="358" y1="292" x2="471" y2="210"/>
    <circle cx="358" cy="292" r="2"/>
    <circle cx="471" cy="210" r="2"/>
  </g>
  <g stroke="chocolate" stroke-width="1">
    <line x1="334" y1="360" x2="497" y2="182"/>
    <circle cx="334" cy="360" r="2"/>
    <circle cx="497" cy="182" r="2"/>
  </g>
  <g stroke="chocolate" stroke-width="1">
    <line x1="471" y1="210" x2="486" y2="185"/>
    <circle cx="471" cy="210" r="2"/>
    <circle cx="486" cy="185" r="2"/>
  </g>
  <g stroke="black" stroke-width="1">
    <line x1="5" y1="5" x2="505" y2="5"/>
    <line x1="5" y1="5" x2="5" y2="505"/>
    <line x1="505" y1="505" x2="5" y2="505"/>
    <line x1="505" y1="505" x2="505" y2="5"/>
    <line x1="105" y1="2" x2="105" y2="8"/>
    <line x1="2" y1="105" x2="8" y2="105"/>
    <line x1="105" y1="502" x2="105" y2="508"/>
    <line x1="502" y1="105" x2="508" y2="105"/>
    <line x1="205" y1="2" x2="205" y2="8"/>
    <line x1="2" y1="205" x2="8" y2="205"/>
    <line x1="205" y1="502" x2="205" y2="508"/>
    <line x1="502" y1="205" x2="508" y2="205"/>
    <line x1="305" y1="2" x2="305" y2="8"/>
    <line x1="2" y1="305" x2="8" y2="305"/>
    <line x1="305" y1="502" x2="305" y2="508"/>
    <line x1="502" y1="305" x2="508" y2="305"/>
    <line x1="405" y1="2" x2="405" y2="8"/>
    <line x1="2" y1="405" x2="8" y2="405"/>
    <line x1="405" y1="502" x2="405" y2="508"/>
    <line x1="502" y1="405" x2="508" y2="405"/>
  </g>
  <g stroke="gray" stroke-width="1" stroke-dasharray="5,5">
    <line x1="105" y1="5" x2="105" y2="505"/>
    <line x1="5" y1="105" x2="505" y2="105"/>
    <line x1="205" y1="5" x2="205" y2="505"/>
    <line x1="5" y1="205" x2="505" y2="205"/>
    <line x1="305" y1="5" x2="305" y2="505"/>
    <line x1="5" y1="305" x2="505" y2="305"/>
    <line x1="405" y1="5" x2="405" y2="505"/>
    <line x1="5" y1="405" x2="505" y2="405"/>
  </g>
</svg>
