<?xml version="1.0" standalone="no"?>
<!DOCTYPE svg PUBLIC "-//W3C//DTD SVG 1.1//EN" 
  "http://www.w3.org/Graphics/SVG/1.1/DTD/svg11.dtd">
<svg width="510" height="510" version="1.1" id="toplevel"
    xmlns="http://www.w3.org/2000/svg"
    xmlns:xlink="http://www.w3.org/1999/xlink">
  <polygon points="157,372 180,308 218,286 432,247 418,171 372,150 83,138 78,168 88,194 102,352"
           fill="bisque"/>
  <g stroke="chocolate" stroke-width="1">
    <line x1="149" y1="220" x2="140" y2="215"/>
    <circle cx="149" cy="220" r="2"/>
    <circle cx="140" cy="215" r="2"/>
  </g>
  <g stroke="chocolate" stroke-width="1">
    <line x1="164" y1="227" x2="149" y2="220"/>
    <circle cx="164" cy="227" r="2"/>
    <circle cx="149" cy="220" r="2"/>
  </g>
  <g stroke="chocolate" stroke-width="1">
    <line x1="149" y1="220" x2="186" y2="174"/>
    <circle cx="149" cy="220" r="2"/>
    <circle cx="186" cy="174" r="2"/>
  </g>
  <g stroke="chocolate" stroke-width="1">
    <line x1="148" y1="222" x2="149" y2="220"/>
    <circle cx="148" cy="222" r="2"/>
    <circle cx="149" cy="220" r="2"/>
  </g>
  <g stroke="chocolate" stroke-width="1">
    <line x1="147" y1="299" x2="149" y2="283"/>
    <circle cx="147" cy="299" r="2"/>
    <circle cx="149" cy="283" r="2"/>
  </g>
  <g stroke="chocolate" stroke-width="1">
    <line x1="146" y1="308" x2="147" y2="299"/>
    <circle cx="146" cy="308" r="2"/>
    <circle cx="147" cy="299" r="2"/>
  </g>
  <g stroke="chocolate" stroke-width="1">
    <line x1="147" y1="299" x2="165" y2="296"/>
    <circle cx="147" cy="299" r="2"/>
    <circle cx="165" cy="296" r="2"/>
  </g>
  <g stroke="chocolate" stroke-width="1">
    <line x1="135" y1="301" x2="147" y2="299"/>
    <circle cx="135" cy="301" r="2"/>
    <circle cx="147" cy="299" r="2"/>
  </g>
  <g stroke="chocolate" stroke-width="1">
    <line x1="215" y1="208" x2="218" y2="207"/>
    <circle cx="215" cy="208" r="2"/>
    <circle cx="218" cy="207" r="2"/>
  </g>
  <g stroke="chocolate" stroke-width="1">
    <line x1="164" y1="227" x2="215" y2="208"/>
    <circle cx="164" cy="227" r="2"/>
    <circle cx="215" cy="208" r="2"/>
  </g>
  <g stroke="chocolate" stroke-width="1">
    <line x1="215" y1="208" x2="216" y2="205"/>
    <circle cx="215" cy="208" r="2"/>
    <circle cx="216" cy="205" r="2"/>
  </g>
  <g stroke="chocolate" stroke-width="1">
    <line x1="202" y1="245" x2="215" y2="208"/>
    <circle cx="202" cy="245" r="2"/>
    <circle cx="215" cy="208" r="2"/>
  </g>
  <g stroke="chocolate" stroke-width="1">
    <line x1="218" y1="207" x2="248" y2="196"/>
    <circle cx="218" cy="207" r="2"/>
    <circle cx="248" cy="196" r="2"/>
  </g>
  <g stroke="chocolate" stroke-width="1">
    <line x1="218" y1="207" x2="216" y2="205"/>
    <circle cx="218" cy="207" r="2"/>
    <circle cx="216" cy="205" r="2"/>
  </g>
  <g stroke="chocolate" stroke-width="1">
    <line x1="251" y1="240" x2="218" y2="207"/>
    <circle cx="251" cy="240" r="2"/>
    <circle cx="218" cy="207" r="2"/>
  </g>
  <g stroke="chocolate" stroke-width="1">
    <line x1="140" y1="215" x2="119" y2="206"/>
    <circle cx="140" cy="215" r="2"/>
    <circle cx="119" cy="206" r="2"/>
  </g>
  <g stroke="chocolate" stroke-width="1">
    <line x1="140" y1="215" x2="123" y2="202"/>
    <circle cx="140" cy="215" r="2"/>
    <circle cx="123" cy="202" r="2"/>
  </g>
  <g stroke="chocolate" stroke-width="1">
    <line x1="148" y1="222" x2="140" y2="215"/>
    <circle cx="148" cy="222" r="2"/>
    <circle cx="140" cy="215" r="2"/>
  </g>
  <g stroke="chocolate" stroke-width="1">
    <line x1="186" y1="174" x2="169" y2="157"/>
    <circle cx="186" cy="174" r="2"/>
    <circle cx="169" cy="157" r="2"/>
  </g>
  <g stroke="chocolate" stroke-width="1">
    <line x1="216" y1="205" x2="186" y2="174"/>
    <circle cx="216" cy="205" r="2"/>
    <circle cx="186" cy="174" r="2"/>
  </g>
  <g stroke="chocolate" stroke-width="1">
    <line x1="186" y1="174" x2="212" y2="143"/>
    <circle cx="186" cy="174" r="2"/>
    <circle cx="212" cy="143" r="2"/>
  </g>
  <g stroke="chocolate" stroke-width="1">
    <line x1="125" y1="241" x2="125" y2="241"/>
    <circle cx="125" cy="241" r="2"/>
    <circle cx="125" cy="241" r="2"/>
  </g>
  <g stroke="chocolate" stroke-width="1">
    <line x1="126" y1="248" x2="125" y2="241"/>
    <circle cx="126" cy="248" r="2"/>
    <circle cx="125" cy="241" r="2"/>
  </g>
  <g stroke="chocolate" stroke-width="1">
    <line x1="125" y1="241" x2="135" y2="238"/>
    <circle cx="125" cy="241" r="2"/>
    <circle cx="135" cy="238" r="2"/>
  </g>
  <g stroke="chocolate" stroke-width="1">
    <line x1="109" y1="247" x2="125" y2="241"/>
    <circle cx="109" cy="247" r="2"/>
    <circle cx="125" cy="241" r="2"/>
  </g>
  <g stroke="chocolate" stroke-width="1">
    <line x1="129" y1="267" x2="126" y2="248"/>
    <circle cx="129" cy="267" r="2"/>
    <circle cx="126" cy="248" r="2"/>
  </g>
  <g stroke="chocolate" stroke-width="1">
    <line x1="126" y1="248" x2="135" y2="238"/>
    <circle cx="126" cy="248" r="2"/>
    <circle cx="135" cy="238" r="2"/>
  </g>
  <g stroke="chocolate" stroke-width="1">
    <line x1="118" y1="258" x2="126" y2="248"/>
    <circle cx="118" cy="258" r="2"/>
    <circle cx="126" cy="248" r="2"/>
  </g>
  <g stroke="chocolate" stroke-width="1">
    <line x1="229" y1="169" x2="238" y2="144"/>
    <circle cx="229" cy="169" r="2"/>
    <circle cx="238" cy="144" r="2"/>
  </g>
  <g stroke="chocolate" stroke-width="1">
    <line x1="216" y1="205" x2="229" y2="169"/>
    <circle cx="216" cy="205" r="2"/>
    <circle cx="229" cy="169" r="2"/>
  </g>
  <g stroke="chocolate" stroke-width="1">
    <line x1="229" y1="169" x2="212" y2="143"/>
    <circle cx="229" cy="169" r="2"/>
    <circle cx="212" cy="143" r="2"/>
  </g>
  <g stroke="chocolate" stroke-width="1">
    <line x1="248" y1="196" x2="229" y2="169"/>
    <circle cx="248" cy="196" r="2"/>
    <circle cx="229" cy="169" r="2"/>
  </g>
  <g stroke="chocolate" stroke-width="1">
    <line x1="185" y1="292" x2="218" y2="286"/>
    <circle cx="185" cy="292" r="2"/>
    <circle cx="218" cy="286" r="2"/>
  </g>
  <g stroke="chocolate" stroke-width="1">
    <line x1="165" y1="296" x2="185" y2="292"/>
    <circle cx="165" cy="296" r="2"/>
    <circle cx="185" cy="292" r="2"/>
  </g>
  <g stroke="chocolate" stroke-width="1">
    <line x1="185" y1="292" x2="202" y2="245"/>
    <circle cx="185" cy="292" r="2"/>
    <circle cx="202" cy="245" r="2"/>
  </g>
  <g stroke="chocolate" stroke-width="1">
    <line x1="180" y1="308" x2="185" y2="292"/>
    <circle cx="180" cy="308" r="2"/>
    <circle cx="185" cy="292" r="2"/>
  </g>
  <g stroke="chocolate" stroke-width="1">
    <line x1="156" y1="230" x2="164" y2="227"/>
    <circle cx="156" cy="230" r="2"/>
    <circle cx="164" cy="227" r="2"/>
  </g>
  <g stroke="chocolate" stroke-width="1">
    <line x1="202" y1="245" x2="164" y2="227"/>
    <circle cx="202" cy="245" r="2"/>
    <circle cx="164" cy="227" r="2"/>
  </g>
  <g stroke="chocolate" stroke-width="1">
    <line x1="146" y1="308" x2="180" y2="308"/>
    <circle cx="146" cy="308" r="2"/>
    <circle cx="180" cy="308" r="2"/>
  </g>
  <g stroke="chocolate" stroke-width="1">
    <line x1="136" y1="308" x2="146" y2="308"/>
    <circle cx="136" cy="308" r="2"/>
    <circle cx="146" cy="308" r="2"/>
  </g>
  <g stroke="chocolate" stroke-width="1">
    <line x1="143" y1="329" x2="146" y2="308"/>
    <circle cx="143" cy="329" r="2"/>
    <circle cx="146" cy="308" r="2"/>
  </g>
  <g stroke="chocolate" stroke-width="1">
    <line x1="135" y1="301" x2="129" y2="267"/>
    <circle cx="135" cy="301" r="2"/>
    <circle cx="129" cy="267" r="2"/>
  </g>
  <g stroke="chocolate" stroke-width="1">
    <line x1="129" y1="267" x2="118" y2="258"/>
    <circle cx="129" cy="267" r="2"/>
    <circle cx="118" cy="258" r="2"/>
  </g>
  <g stroke="chocolate" stroke-width="1">
    <line x1="149" y1="283" x2="129" y2="267"/>
    <circle cx="149" cy="283" r="2"/>
    <circle cx="129" cy="267" r="2"/>
  </g>
  <g stroke="chocolate" stroke-width="1">
    <line x1="165" y1="296" x2="149" y2="283"/>
    <circle cx="165" cy="296" r="2"/>
    <circle cx="149" cy="283" r="2"/>
  </g>
  <g stroke="chocolate" stroke-width="1">
    <line x1="180" y1="308" x2="165" y2="296"/>
    <circle cx="180" cy="308" r="2"/>
    <circle cx="165" cy="296" r="2"/>
  </g>
  <g stroke="chocolate" stroke-width="1">
    <line x1="139" y1="323" x2="136" y2="308"/>
    <circle cx="139" cy="323" r="2"/>
    <circle cx="136" cy="308" r="2"/>
  </g>
  <g stroke="chocolate" stroke-width="1">
    <line x1="140" y1="328" x2="139" y2="323"/>
    <circle cx="140" cy="328" r="2"/>
    <circle cx="139" cy="323" r="2"/>
  </g>
  <g stroke="chocolate" stroke-width="1">
    <line x1="139" y1="323" x2="133" y2="308"/>
    <circle cx="139" cy="323" r="2"/>
    <circle cx="133" cy="308" r="2"/>
  </g>
  <g stroke="chocolate" stroke-width="1">
    <line x1="141" y1="328" x2="139" y2="323"/>
    <circle cx="141" cy="328" r="2"/>
    <circle cx="139" cy="323" r="2"/>
  </g>
  <g stroke="chocolate" stroke-width="1">
    <line x1="88" y1="194" x2="78" y2="168"/>
    <circle cx="88" cy="194" r="2"/>
    <circle cx="78" cy="168" r="2"/>
  </g>
  <g stroke="chocolate" stroke-width="1">
    <line x1="130" y1="302" x2="88" y2="194"/>
    <circle cx="130" cy="302" r="2"/>
    <circle cx="88" cy="194" r="2"/>
  </g>
  <g stroke="chocolate" stroke-width="1">
    <line x1="88" y1="194" x2="86" y2="174"/>
    <circle cx="88" cy="194" r="2"/>
    <circle cx="86" cy="174" r="2"/>
  </g>
  <g stroke="chocolate" stroke-width="1">
    <line x1="102" y1="352" x2="88" y2="194"/>
    <circle cx="102" cy="352" r="2"/>
    <circle cx="88" cy="194" r="2"/>
  </g>
  <g stroke="chocolate" stroke-width="1">
    <line x1="133" y1="308" x2="136" y2="308"/>
    <circle cx="133" cy="308" r="2"/>
    <circle cx="136" cy="308" r="2"/>
  </g>
  <g stroke="chocolate" stroke-width="1">
    <line x1="136" y1="308" x2="135" y2="301"/>
    <circle cx="136" cy="308" r="2"/>
    <circle cx="135" cy="301" r="2"/>
  </g>
  <g stroke="chocolate" stroke-width="1">
    <line x1="133" y1="308" x2="130" y2="302"/>
    <circle cx="133" cy="308" r="2"/>
    <circle cx="130" cy="302" r="2"/>
  </g>
  <g stroke="chocolate" stroke-width="1">
    <line x1="130" y1="302" x2="135" y2="301"/>
    <circle cx="130" cy="302" r="2"/>
    <circle cx="135" cy="301" r="2"/>
  </g>
  <g stroke="chocolate" stroke-width="1">
    <line x1="98" y1="308" x2="130" y2="302"/>
    <circle cx="98" cy="308" r="2"/>
    <circle cx="130" cy="302" r="2"/>
  </g>
  <g stroke="chocolate" stroke-width="1">
    <line x1="125" y1="241" x2="119" y2="206"/>
    <circle cx="125" cy="241" r="2"/>
    <circle cx="119" cy="206" r="2"/>
  </g>
  <g stroke="chocolate" stroke-width="1">
    <line x1="125" y1="241" x2="136" y2="236"/>
    <circle cx="125" cy="241" r="2"/>
    <circle cx="136" cy="236" r="2"/>
  </g>
  <g stroke="chocolate" stroke-width="1">
    <line x1="109" y1="247" x2="125" y2="241"/>
    <circle cx="109" cy="247" r="2"/>
    <circle cx="125" cy="241" r="2"/>
  </g>
  <g stroke="chocolate" stroke-width="1">
    <line x1="156" y1="228" x2="148" y2="222"/>
    <circle cx="156" cy="228" r="2"/>
    <circle cx="148" cy="222" r="2"/>
  </g>
  <g stroke="chocolate" stroke-width="1">
    <line x1="136" y1="236" x2="148" y2="222"/>
    <circle cx="136" cy="236" r="2"/>
    <circle cx="148" cy="222" r="2"/>
  </g>
  <g stroke="chocolate" stroke-width="1">
    <line x1="135" y1="238" x2="156" y2="230"/>
    <circle cx="135" cy="238" r="2"/>
    <circle cx="156" cy="230" r="2"/>
  </g>
  <g stroke="chocolate" stroke-width="1">
    <line x1="135" y1="238" x2="136" y2="236"/>
    <circle cx="135" cy="238" r="2"/>
    <circle cx="136" cy="236" r="2"/>
  </g>
  <g stroke="chocolate" stroke-width="1">
    <line x1="218" y1="286" x2="432" y2="247"/>
    <circle cx="218" cy="286" r="2"/>
    <circle cx="432" cy="247" r="2"/>
  </g>
  <g stroke="chocolate" stroke-width="1">
    <line x1="218" y1="286" x2="418" y2="171"/>
    <circle cx="218" cy="286" r="2"/>
    <circle cx="418" cy="171" r="2"/>
  </g>
  <g stroke="chocolate" stroke-width="1">
    <line x1="180" y1="308" x2="218" y2="286"/>
    <circle cx="180" cy="308" r="2"/>
    <circle cx="218" cy="286" r="2"/>
  </g>
  <g stroke="chocolate" stroke-width="1">
    <line x1="248" y1="196" x2="251" y2="195"/>
    <circle cx="248" cy="196" r="2"/>
    <circle cx="251" cy="195" r="2"/>
  </g>
  <g stroke="chocolate" stroke-width="1">
    <line x1="254" y1="204" x2="248" y2="196"/>
    <circle cx="254" cy="204" r="2"/>
    <circle cx="248" cy="196" r="2"/>
  </g>
  <g stroke="chocolate" stroke-width="1">
    <line x1="249" y1="268" x2="202" y2="245"/>
    <circle cx="249" cy="268" r="2"/>
    <circle cx="202" cy="245" r="2"/>
  </g>
  <g stroke="chocolate" stroke-width="1">
    <line x1="149" y1="283" x2="156" y2="230"/>
    <circle cx="149" cy="283" r="2"/>
    <circle cx="156" cy="230" r="2"/>
  </g>
  <g stroke="chocolate" stroke-width="1">
    <line x1="251" y1="195" x2="372" y2="150"/>
    <circle cx="251" cy="195" r="2"/>
    <circle cx="372" cy="150" r="2"/>
  </g>
  <g stroke="chocolate" stroke-width="1">
    <line x1="251" y1="195" x2="238" y2="144"/>
    <circle cx="251" cy="195" r="2"/>
    <circle cx="238" cy="144" r="2"/>
  </g>
  <g stroke="chocolate" stroke-width="1">
    <line x1="268" y1="257" x2="251" y2="195"/>
    <circle cx="268" cy="257" r="2"/>
    <circle cx="251" cy="195" r="2"/>
  </g>
  <g stroke="chocolate" stroke-width="1">
    <line x1="141" y1="330" x2="141" y2="328"/>
    <circle cx="141" cy="330" r="2"/>
    <circle cx="141" cy="328" r="2"/>
  </g>
  <g stroke="chocolate" stroke-width="1">
    <line x1="141" y1="328" x2="140" y2="328"/>
    <circle cx="141" cy="328" r="2"/>
    <circle cx="140" cy="328" r="2"/>
  </g>
  <g stroke="chocolate" stroke-width="1">
    <line x1="143" y1="329" x2="141" y2="328"/>
    <circle cx="143" cy="329" r="2"/>
    <circle cx="141" cy="328" r="2"/>
  </g>
  <g stroke="chocolate" stroke-width="1">
    <line x1="86" y1="174" x2="78" y2="168"/>
    <circle cx="86" cy="174" r="2"/>
    <circle cx="78" cy="168" r="2"/>
  </g>
  <g stroke="chocolate" stroke-width="1">
    <line x1="123" y1="202" x2="86" y2="174"/>
    <circle cx="123" cy="202" r="2"/>
    <circle cx="86" cy="174" r="2"/>
  </g>
  <g stroke="chocolate" stroke-width="1">
    <line x1="86" y1="174" x2="83" y2="138"/>
    <circle cx="86" cy="174" r="2"/>
    <circle cx="83" cy="138" r="2"/>
  </g>
  <g stroke="chocolate" stroke-width="1">
    <line x1="98" y1="308" x2="133" y2="308"/>
    <circle cx="98" cy="308" r="2"/>
    <circle cx="133" cy="308" r="2"/>
  </g>
  <g stroke="chocolate" stroke-width="1">
    <line x1="268" y1="257" x2="251" y2="240"/>
    <circle cx="268" cy="257" r="2"/>
    <circle cx="251" cy="240" r="2"/>
  </g>
  <g stroke="chocolate" stroke-width="1">
    <line x1="251" y1="240" x2="254" y2="204"/>
    <circle cx="251" cy="240" r="2"/>
    <circle cx="254" cy="204" r="2"/>
  </g>
  <g stroke="chocolate" stroke-width="1">
    <line x1="249" y1="268" x2="251" y2="240"/>
    <circle cx="249" cy="268" r="2"/>
    <circle cx="251" cy="240" r="2"/>
  </g>
  <g stroke="chocolate" stroke-width="1">
    <line x1="156" y1="230" x2="156" y2="228"/>
    <circle cx="156" cy="230" r="2"/>
    <circle cx="156" cy="228" r="2"/>
  </g>
  <g stroke="chocolate" stroke-width="1">
    <line x1="123" y1="202" x2="169" y2="157"/>
    <circle cx="123" cy="202" r="2"/>
    <circle cx="169" cy="157" r="2"/>
  </g>
  <g stroke="chocolate" stroke-width="1">
    <line x1="119" y1="206" x2="123" y2="202"/>
    <circle cx="119" cy="206" r="2"/>
    <circle cx="123" cy="202" r="2"/>
  </g>
  <g stroke="chocolate" stroke-width="1">
    <line x1="136" y1="236" x2="156" y2="228"/>
    <circle cx="136" cy="236" r="2"/>
    <circle cx="156" cy="228" r="2"/>
  </g>
  <g stroke="chocolate" stroke-width="1">
    <line x1="157" y1="372" x2="180" y2="308"/>
    <circle cx="157" cy="372" r="2"/>
    <circle cx="180" cy="308" r="2"/>
  </g>
  <g stroke="chocolate" stroke-width="1">
    <line x1="102" y1="352" x2="180" y2="308"/>
    <circle cx="102" cy="352" r="2"/>
    <circle cx="180" cy="308" r="2"/>
  </g>
  <g stroke="chocolate" stroke-width="1">
    <line x1="418" y1="171" x2="372" y2="150"/>
    <circle cx="418" cy="171" r="2"/>
    <circle cx="372" cy="150" r="2"/>
  </g>
  <g stroke="chocolate" stroke-width="1">
    <line x1="372" y1="150" x2="83" y2="138"/>
    <circle cx="372" cy="150" r="2"/>
    <circle cx="83" cy="138" r="2"/>
  </g>
  <g stroke="chocolate" stroke-width="1">
    <line x1="141" y1="330" x2="140" y2="328"/>
    <circle cx="141" cy="330" r="2"/>
    <circle cx="140" cy="328" r="2"/>
  </g>
  <g stroke="chocolate" stroke-width="1">
    <line x1="432" y1="247" x2="418" y2="171"/>
    <circle cx="432" cy="247" r="2"/>
    <circle cx="418" cy="171" r="2"/>
  </g>
  <g stroke="chocolate" stroke-width="1">
    <line x1="157" y1="372" x2="102" y2="352"/>
    <circle cx="157" cy="372" r="2"/>
    <circle cx="102" cy="352" r="2"/>
  </g>
  <g stroke="chocolate" stroke-width="1">
    <line x1="78" y1="168" x2="83" y2="138"/>
    <circle cx="78" cy="168" r="2"/>
    <circle cx="83" cy="138" r="2"/>
  </g>
  <g stroke="black" stroke-width="1">
    <line x1="5" y1="5" x2="505" y2="5"/>
    <line x1="5" y1="5" x2="5" y2="505"/>
    <line x1="505" y1="505" x2="5" y2="505"/>
    <line x1="505" y1="505" x2="505" y2="5"/>
    <line x1="105" y1="2" x2="105" y2="8"/>
    <line x1="2" y1="105" x2="8" y2="105"/>
    <line x1="105" y1="502" x2="105" y2="508"/>
    <line x1="502" y1="105" x2="508" y2="105"/>
    <line x1="205" y1="2" x2="205" y2="8"/>
    <line x1="2" y1="205" x2="8" y2="205"/>
    <line x1="205" y1="502" x2="205" y2="508"/>
    <line x1="502" y1="205" x2="508" y2="205"/>
    <line x1="305" y1="2" x2="305" y2="8"/>
    <line x1="2" y1="305" x2="8" y2="305"/>
    <line x1="305" y1="502" x2="305" y2="508"/>
    <line x1="502" y1="305" x2="508" y2="305"/>
    <line x1="405" y1="2" x2="405" y2="8"/>
    <line x1="2" y1="405" x2="8" y2="405"/>
    <line x1="405" y1="502" x2="405" y2="508"/>
    <line x1="502" y1="405" x2="508" y2="405"/>
  </g>
  <g stroke="gray" stroke-width="1" stroke-dasharray="5,5">
    <line x1="105" y1="5" x2="105" y2="505"/>
    <line x1="5" y1="105" x2="505" y2="105"/>
    <line x1="205" y1="5" x2="205" y2="505"/>
    <line x1="5" y1="205" x2="505" y2="205"/>
    <line x1="305" y1="5" x2="305" y2="505"/>
    <line x1="5" y1="305" x2="505" y2="305"/>
    <line x1="405" y1="5" x2="405" y2="505"/>
    <line x1="5" y1="405" x2="505" y2="405"/>
  </g>
</svg>
