<?xml version="1.0" standalone="no"?>
<!DOCTYPE svg PUBLIC "-//W3C//DTD SVG 1.1//EN" 
  "http://www.w3.org/Graphics/SVG/1.1/DTD/svg11.dtd">
<svg width="510" height="510" version="1.1" id="toplevel"
    xmlns="http://www.w3.org/2000/svg"
    xmlns:xlink="http://www.w3.org/1999/xlink">
  <polygon points="90,444 347,378 497,322 497,26 427,13 135,13 13,145 13,389"
           fill="bisque"/>
  <g stroke="chocolate" stroke-width="1">
    <line x1="489" y1="325" x2="482" y2="311"/>
    <circle cx="489" cy="325" r="2"/>
    <circle cx="482" cy="311" r="2"/>
  </g>
  <g stroke="chocolate" stroke-width="1">
    <line x1="489" y1="325" x2="489" y2="325"/>
    <circle cx="489" cy="325" r="2"/>
    <circle cx="489" cy="325" r="2"/>
  </g>
  <g stroke="chocolate" stroke-width="1">
    <line x1="489" y1="325" x2="478" y2="313"/>
    <circle cx="489" cy="325" r="2"/>
    <circle cx="478" cy="313" r="2"/>
  </g>
  <g stroke="chocolate" stroke-width="1">
    <line x1="489" y1="325" x2="489" y2="325"/>
    <circle cx="489" cy="325" r="2"/>
    <circle cx="489" cy="325" r="2"/>
  </g>
  <g stroke="chocolate" stroke-width="1">
    <line x1="489" y1="45" x2="412" y2="16"/>
    <circle cx="489" cy="45" r="2"/>
    <circle cx="412" cy="16" r="2"/>
  </g>
  <g stroke="chocolate" stroke-width="1">
    <line x1="497" y1="47" x2="489" y2="45"/>
    <circle cx="497" cy="47" r="2"/>
    <circle cx="489" cy="45" r="2"/>
  </g>
  <g stroke="chocolate" stroke-width="1">
    <line x1="489" y1="45" x2="489" y2="27"/>
    <circle cx="489" cy="45" r="2"/>
    <circle cx="489" cy="27" r="2"/>
  </g>
  <g stroke="chocolate" stroke-width="1">
    <line x1="489" y1="313" x2="489" y2="45"/>
    <circle cx="489" cy="313" r="2"/>
    <circle cx="489" cy="45" r="2"/>
  </g>
  <g stroke="chocolate" stroke-width="1">
    <line x1="412" y1="16" x2="405" y2="13"/>
    <circle cx="412" cy="16" r="2"/>
    <circle cx="405" cy="13" r="2"/>
  </g>
  <g stroke="chocolate" stroke-width="1">
    <line x1="412" y1="16" x2="427" y2="13"/>
    <circle cx="412" cy="16" r="2"/>
    <circle cx="427" cy="13" r="2"/>
  </g>
  <g stroke="chocolate" stroke-width="1">
    <line x1="384" y1="21" x2="412" y2="16"/>
    <circle cx="384" cy="21" r="2"/>
    <circle cx="412" cy="16" r="2"/>
  </g>
  <g stroke="chocolate" stroke-width="1">
    <line x1="21" y1="144" x2="21" y2="136"/>
    <circle cx="21" cy="144" r="2"/>
    <circle cx="21" cy="136" r="2"/>
  </g>
  <g stroke="chocolate" stroke-width="1">
    <line x1="21" y1="378" x2="21" y2="144"/>
    <circle cx="21" cy="378" r="2"/>
    <circle cx="21" cy="144" r="2"/>
  </g>
  <g stroke="chocolate" stroke-width="1">
    <line x1="21" y1="144" x2="152" y2="134"/>
    <circle cx="21" cy="144" r="2"/>
    <circle cx="152" cy="134" r="2"/>
  </g>
  <g stroke="chocolate" stroke-width="1">
    <line x1="13" y1="145" x2="21" y2="144"/>
    <circle cx="13" cy="145" r="2"/>
    <circle cx="21" cy="144" r="2"/>
  </g>
  <g stroke="chocolate" stroke-width="1">
    <line x1="482" y1="311" x2="486" y2="309"/>
    <circle cx="482" cy="311" r="2"/>
    <circle cx="486" cy="309" r="2"/>
  </g>
  <g stroke="chocolate" stroke-width="1">
    <line x1="475" y1="315" x2="482" y2="311"/>
    <circle cx="475" cy="315" r="2"/>
    <circle cx="482" cy="311" r="2"/>
  </g>
  <g stroke="chocolate" stroke-width="1">
    <line x1="482" y1="311" x2="418" y2="195"/>
    <circle cx="482" cy="311" r="2"/>
    <circle cx="418" cy="195" r="2"/>
  </g>
  <g stroke="chocolate" stroke-width="1">
    <line x1="497" y1="47" x2="497" y2="47"/>
    <circle cx="497" cy="47" r="2"/>
    <circle cx="497" cy="47" r="2"/>
  </g>
  <g stroke="chocolate" stroke-width="1">
    <line x1="497" y1="47" x2="489" y2="27"/>
    <circle cx="497" cy="47" r="2"/>
    <circle cx="489" cy="27" r="2"/>
  </g>
  <g stroke="chocolate" stroke-width="1">
    <line x1="497" y1="48" x2="497" y2="47"/>
    <circle cx="497" cy="48" r="2"/>
    <circle cx="497" cy="47" r="2"/>
  </g>
  <g stroke="chocolate" stroke-width="1">
    <line x1="489" y1="325" x2="489" y2="325"/>
    <circle cx="489" cy="325" r="2"/>
    <circle cx="489" cy="325" r="2"/>
  </g>
  <g stroke="chocolate" stroke-width="1">
    <line x1="489" y1="325" x2="486" y2="309"/>
    <circle cx="489" cy="325" r="2"/>
    <circle cx="486" cy="309" r="2"/>
  </g>
  <g stroke="chocolate" stroke-width="1">
    <line x1="489" y1="325" x2="489" y2="325"/>
    <circle cx="489" cy="325" r="2"/>
    <circle cx="489" cy="325" r="2"/>
  </g>
  <g stroke="chocolate" stroke-width="1">
    <line x1="144" y1="21" x2="384" y2="21"/>
    <circle cx="144" cy="21" r="2"/>
    <circle cx="384" cy="21" r="2"/>
  </g>
  <g stroke="chocolate" stroke-width="1">
    <line x1="142" y1="21" x2="144" y2="21"/>
    <circle cx="142" cy="21" r="2"/>
    <circle cx="144" cy="21" r="2"/>
  </g>
  <g stroke="chocolate" stroke-width="1">
    <line x1="144" y1="21" x2="143" y2="13"/>
    <circle cx="144" cy="21" r="2"/>
    <circle cx="143" cy="13" r="2"/>
  </g>
  <g stroke="chocolate" stroke-width="1">
    <line x1="152" y1="134" x2="144" y2="21"/>
    <circle cx="152" cy="134" r="2"/>
    <circle cx="144" cy="21" r="2"/>
  </g>
  <g stroke="chocolate" stroke-width="1">
    <line x1="489" y1="313" x2="486" y2="309"/>
    <circle cx="489" cy="313" r="2"/>
    <circle cx="486" cy="309" r="2"/>
  </g>
  <g stroke="chocolate" stroke-width="1">
    <line x1="497" y1="322" x2="489" y2="313"/>
    <circle cx="497" cy="322" r="2"/>
    <circle cx="489" cy="313" r="2"/>
  </g>
  <g stroke="chocolate" stroke-width="1">
    <line x1="489" y1="325" x2="489" y2="313"/>
    <circle cx="489" cy="325" r="2"/>
    <circle cx="489" cy="313" r="2"/>
  </g>
  <g stroke="chocolate" stroke-width="1">
    <line x1="21" y1="378" x2="120" y2="344"/>
    <circle cx="21" cy="378" r="2"/>
    <circle cx="120" cy="344" r="2"/>
  </g>
  <g stroke="chocolate" stroke-width="1">
    <line x1="13" y1="381" x2="21" y2="378"/>
    <circle cx="13" cy="381" r="2"/>
    <circle cx="21" cy="378" r="2"/>
  </g>
  <g stroke="chocolate" stroke-width="1">
    <line x1="21" y1="383" x2="21" y2="378"/>
    <circle cx="21" cy="383" r="2"/>
    <circle cx="21" cy="378" r="2"/>
  </g>
  <g stroke="chocolate" stroke-width="1">
    <line x1="128" y1="365" x2="120" y2="344"/>
    <circle cx="128" cy="365" r="2"/>
    <circle cx="120" cy="344" r="2"/>
  </g>
  <g stroke="chocolate" stroke-width="1">
    <line x1="149" y1="429" x2="128" y2="365"/>
    <circle cx="149" cy="429" r="2"/>
    <circle cx="128" cy="365" r="2"/>
  </g>
  <g stroke="chocolate" stroke-width="1">
    <line x1="128" y1="365" x2="135" y2="349"/>
    <circle cx="128" cy="365" r="2"/>
    <circle cx="135" cy="349" r="2"/>
  </g>
  <g stroke="chocolate" stroke-width="1">
    <line x1="90" y1="444" x2="128" y2="365"/>
    <circle cx="90" cy="444" r="2"/>
    <circle cx="128" cy="365" r="2"/>
  </g>
  <g stroke="chocolate" stroke-width="1">
    <line x1="475" y1="315" x2="411" y2="199"/>
    <circle cx="475" cy="315" r="2"/>
    <circle cx="411" cy="199" r="2"/>
  </g>
  <g stroke="chocolate" stroke-width="1">
    <line x1="482" y1="328" x2="475" y2="315"/>
    <circle cx="482" cy="328" r="2"/>
    <circle cx="475" cy="315" r="2"/>
  </g>
  <g stroke="chocolate" stroke-width="1">
    <line x1="347" y1="378" x2="475" y2="315"/>
    <circle cx="347" cy="378" r="2"/>
    <circle cx="475" cy="315" r="2"/>
  </g>
  <g stroke="chocolate" stroke-width="1">
    <line x1="497" y1="26" x2="427" y2="13"/>
    <circle cx="497" cy="26" r="2"/>
    <circle cx="427" cy="13" r="2"/>
  </g>
  <g stroke="chocolate" stroke-width="1">
    <line x1="135" y1="13" x2="427" y2="13"/>
    <circle cx="135" cy="13" r="2"/>
    <circle cx="427" cy="13" r="2"/>
  </g>
  <g stroke="chocolate" stroke-width="1">
    <line x1="489" y1="27" x2="497" y2="26"/>
    <circle cx="489" cy="27" r="2"/>
    <circle cx="497" cy="26" r="2"/>
  </g>
  <g stroke="chocolate" stroke-width="1">
    <line x1="21" y1="136" x2="152" y2="126"/>
    <circle cx="21" cy="136" r="2"/>
    <circle cx="152" cy="126" r="2"/>
  </g>
  <g stroke="chocolate" stroke-width="1">
    <line x1="384" y1="21" x2="405" y2="13"/>
    <circle cx="384" cy="21" r="2"/>
    <circle cx="405" cy="13" r="2"/>
  </g>
  <g stroke="chocolate" stroke-width="1">
    <line x1="142" y1="21" x2="135" y2="13"/>
    <circle cx="142" cy="21" r="2"/>
    <circle cx="135" cy="13" r="2"/>
  </g>
  <g stroke="chocolate" stroke-width="1">
    <line x1="497" y1="48" x2="497" y2="47"/>
    <circle cx="497" cy="48" r="2"/>
    <circle cx="497" cy="47" r="2"/>
  </g>
  <g stroke="chocolate" stroke-width="1">
    <line x1="13" y1="145" x2="135" y2="13"/>
    <circle cx="13" cy="145" r="2"/>
    <circle cx="135" cy="13" r="2"/>
  </g>
  <g stroke="chocolate" stroke-width="1">
    <line x1="21" y1="383" x2="13" y2="381"/>
    <circle cx="21" cy="383" r="2"/>
    <circle cx="13" cy="381" r="2"/>
  </g>
  <g stroke="chocolate" stroke-width="1">
    <line x1="482" y1="328" x2="478" y2="313"/>
    <circle cx="482" cy="328" r="2"/>
    <circle cx="478" cy="313" r="2"/>
  </g>
  <g stroke="chocolate" stroke-width="1">
    <line x1="90" y1="444" x2="13" y2="389"/>
    <circle cx="90" cy="444" r="2"/>
    <circle cx="13" cy="389" r="2"/>
  </g>
  <g stroke="chocolate" stroke-width="1">
    <line x1="13" y1="389" x2="21" y2="383"/>
    <circle cx="13" cy="389" r="2"/>
    <circle cx="21" cy="383" r="2"/>
  </g>
  <g stroke="chocolate" stroke-width="1">
    <line x1="135" y1="349" x2="418" y2="195"/>
    <circle cx="135" cy="349" r="2"/>
    <circle cx="418" cy="195" r="2"/>
  </g>
  <g stroke="chocolate" stroke-width="1">
    <line x1="90" y1="444" x2="347" y2="378"/>
    <circle cx="90" cy="444" r="2"/>
    <circle cx="347" cy="378" r="2"/>
  </g>
  <g stroke="chocolate" stroke-width="1">
    <line x1="149" y1="429" x2="135" y2="349"/>
    <circle cx="149" cy="429" r="2"/>
    <circle cx="135" cy="349" r="2"/>
  </g>
  <g stroke="chocolate" stroke-width="1">
    <line x1="497" y1="322" x2="497" y2="26"/>
    <circle cx="497" cy="322" r="2"/>
    <circle cx="497" cy="26" r="2"/>
  </g>
  <g stroke="chocolate" stroke-width="1">
    <line x1="13" y1="389" x2="13" y2="145"/>
    <circle cx="13" cy="389" r="2"/>
    <circle cx="13" cy="145" r="2"/>
  </g>
  <g stroke="chocolate" stroke-width="1">
    <line x1="347" y1="378" x2="497" y2="322"/>
    <circle cx="347" cy="378" r="2"/>
    <circle cx="497" cy="322" r="2"/>
  </g>
  <g stroke="chocolate" stroke-width="1">
    <line x1="142" y1="21" x2="143" y2="13"/>
    <circle cx="142" cy="21" r="2"/>
    <circle cx="143" cy="13" r="2"/>
  </g>
  <g stroke="black" stroke-width="1">
    <line x1="5" y1="5" x2="505" y2="5"/>
    <line x1="5" y1="5" x2="5" y2="505"/>
    <line x1="505" y1="505" x2="5" y2="505"/>
    <line x1="505" y1="505" x2="505" y2="5"/>
    <line x1="105" y1="2" x2="105" y2="8"/>
    <line x1="2" y1="105" x2="8" y2="105"/>
    <line x1="105" y1="502" x2="105" y2="508"/>
    <line x1="502" y1="105" x2="508" y2="105"/>
    <line x1="205" y1="2" x2="205" y2="8"/>
    <line x1="2" y1="205" x2="8" y2="205"/>
    <line x1="205" y1="502" x2="205" y2="508"/>
    <line x1="502" y1="205" x2="508" y2="205"/>
    <line x1="305" y1="2" x2="305" y2="8"/>
    <line x1="2" y1="305" x2="8" y2="305"/>
    <line x1="305" y1="502" x2="305" y2="508"/>
    <line x1="502" y1="305" x2="508" y2="305"/>
    <line x1="405" y1="2" x2="405" y2="8"/>
    <line x1="2" y1="405" x2="8" y2="405"/>
    <line x1="405" y1="502" x2="405" y2="508"/>
    <line x1="502" y1="405" x2="508" y2="405"/>
  </g>
  <g stroke="gray" stroke-width="1" stroke-dasharray="5,5">
    <line x1="105" y1="5" x2="105" y2="505"/>
    <line x1="5" y1="105" x2="505" y2="105"/>
    <line x1="205" y1="5" x2="205" y2="505"/>
    <line x1="5" y1="205" x2="505" y2="205"/>
    <line x1="305" y1="5" x2="305" y2="505"/>
    <line x1="5" y1="305" x2="505" y2="305"/>
    <line x1="405" y1="5" x2="405" y2="505"/>
    <line x1="5" y1="405" x2="505" y2="405"/>
  </g>
</svg>
