<?xml version="1.0" standalone="no"?>
<!DOCTYPE svg PUBLIC "-//W3C//DTD SVG 1.1//EN" 
  "http://www.w3.org/Graphics/SVG/1.1/DTD/svg11.dtd">
<svg width="510" height="510" version="1.1" id="toplevel"
    xmlns="http://www.w3.org/2000/svg"
    xmlns:xlink="http://www.w3.org/1999/xlink">
  <polygon points="214,497 293,497 497,292 479,154 476,143 358,13 281,13 114,82 13,168 13,402 65,447 160,488"
           fill="bisque"/>
  <g stroke="chocolate" stroke-width="1">
    <line x1="386" y1="46" x2="387" y2="45"/>
    <circle cx="386" cy="46" r="2"/>
    <circle cx="387" cy="45" r="2"/>
  </g>
  <g stroke="chocolate" stroke-width="1">
    <line x1="359" y1="83" x2="386" y2="46"/>
    <circle cx="359" cy="83" r="2"/>
    <circle cx="386" cy="46" r="2"/>
  </g>
  <g stroke="chocolate" stroke-width="1">
    <line x1="386" y1="46" x2="385" y2="45"/>
    <circle cx="386" cy="46" r="2"/>
    <circle cx="385" cy="45" r="2"/>
  </g>
  <g stroke="chocolate" stroke-width="1">
    <line x1="390" y1="53" x2="386" y2="46"/>
    <circle cx="390" cy="53" r="2"/>
    <circle cx="386" cy="46" r="2"/>
  </g>
  <g stroke="chocolate" stroke-width="1">
    <line x1="196" y1="491" x2="200" y2="489"/>
    <circle cx="196" cy="491" r="2"/>
    <circle cx="200" cy="489" r="2"/>
  </g>
  <g stroke="chocolate" stroke-width="1">
    <line x1="194" y1="492" x2="196" y2="491"/>
    <circle cx="194" cy="492" r="2"/>
    <circle cx="196" cy="491" r="2"/>
  </g>
  <g stroke="chocolate" stroke-width="1">
    <line x1="196" y1="491" x2="183" y2="487"/>
    <circle cx="196" cy="491" r="2"/>
    <circle cx="183" cy="487" r="2"/>
  </g>
  <g stroke="chocolate" stroke-width="1">
    <line x1="198" y1="492" x2="196" y2="491"/>
    <circle cx="198" cy="492" r="2"/>
    <circle cx="196" cy="491" r="2"/>
  </g>
  <g stroke="chocolate" stroke-width="1">
    <line x1="433" y1="127" x2="390" y2="53"/>
    <circle cx="433" cy="127" r="2"/>
    <circle cx="390" cy="53" r="2"/>
  </g>
  <g stroke="chocolate" stroke-width="1">
    <line x1="479" y1="205" x2="433" y2="127"/>
    <circle cx="479" cy="205" r="2"/>
    <circle cx="433" cy="127" r="2"/>
  </g>
  <g stroke="chocolate" stroke-width="1">
    <line x1="433" y1="127" x2="350" y2="96"/>
    <circle cx="433" cy="127" r="2"/>
    <circle cx="350" cy="96" r="2"/>
  </g>
  <g stroke="chocolate" stroke-width="1">
    <line x1="476" y1="143" x2="433" y2="127"/>
    <circle cx="476" cy="143" r="2"/>
    <circle cx="433" cy="127" r="2"/>
  </g>
  <g stroke="chocolate" stroke-width="1">
    <line x1="21" y1="177" x2="21" y2="174"/>
    <circle cx="21" cy="177" r="2"/>
    <circle cx="21" cy="174" r="2"/>
  </g>
  <g stroke="chocolate" stroke-width="1">
    <line x1="21" y1="393" x2="21" y2="177"/>
    <circle cx="21" cy="393" r="2"/>
    <circle cx="21" cy="177" r="2"/>
  </g>
  <g stroke="chocolate" stroke-width="1">
    <line x1="21" y1="177" x2="13" y2="176"/>
    <circle cx="21" cy="177" r="2"/>
    <circle cx="13" cy="176" r="2"/>
  </g>
  <g stroke="chocolate" stroke-width="1">
    <line x1="50" y1="182" x2="21" y2="177"/>
    <circle cx="50" cy="182" r="2"/>
    <circle cx="21" cy="177" r="2"/>
  </g>
  <g stroke="chocolate" stroke-width="1">
    <line x1="489" y1="291" x2="438" y2="285"/>
    <circle cx="489" cy="291" r="2"/>
    <circle cx="438" cy="285" r="2"/>
  </g>
  <g stroke="chocolate" stroke-width="1">
    <line x1="497" y1="292" x2="489" y2="291"/>
    <circle cx="497" cy="292" r="2"/>
    <circle cx="489" cy="291" r="2"/>
  </g>
  <g stroke="chocolate" stroke-width="1">
    <line x1="489" y1="291" x2="479" y2="253"/>
    <circle cx="489" cy="291" r="2"/>
    <circle cx="479" cy="253" r="2"/>
  </g>
  <g stroke="chocolate" stroke-width="1">
    <line x1="491" y1="299" x2="489" y2="291"/>
    <circle cx="491" cy="299" r="2"/>
    <circle cx="489" cy="291" r="2"/>
  </g>
  <g stroke="chocolate" stroke-width="1">
    <line x1="289" y1="16" x2="281" y2="13"/>
    <circle cx="289" cy="16" r="2"/>
    <circle cx="281" cy="13" r="2"/>
  </g>
  <g stroke="chocolate" stroke-width="1">
    <line x1="300" y1="21" x2="289" y2="16"/>
    <circle cx="300" cy="21" r="2"/>
    <circle cx="289" cy="16" r="2"/>
  </g>
  <g stroke="chocolate" stroke-width="1">
    <line x1="289" y1="16" x2="292" y2="13"/>
    <circle cx="289" cy="16" r="2"/>
    <circle cx="292" cy="13" r="2"/>
  </g>
  <g stroke="chocolate" stroke-width="1">
    <line x1="92" y1="215" x2="289" y2="16"/>
    <circle cx="92" cy="215" r="2"/>
    <circle cx="289" cy="16" r="2"/>
  </g>
  <g stroke="chocolate" stroke-width="1">
    <line x1="54" y1="177" x2="30" y2="153"/>
    <circle cx="54" cy="177" r="2"/>
    <circle cx="30" cy="153" r="2"/>
  </g>
  <g stroke="chocolate" stroke-width="1">
    <line x1="92" y1="215" x2="54" y2="177"/>
    <circle cx="92" cy="215" r="2"/>
    <circle cx="54" cy="177" r="2"/>
  </g>
  <g stroke="chocolate" stroke-width="1">
    <line x1="54" y1="177" x2="114" y2="82"/>
    <circle cx="54" cy="177" r="2"/>
    <circle cx="114" cy="82" r="2"/>
  </g>
  <g stroke="chocolate" stroke-width="1">
    <line x1="50" y1="182" x2="54" y2="177"/>
    <circle cx="50" cy="182" r="2"/>
    <circle cx="54" cy="177" r="2"/>
  </g>
  <g stroke="chocolate" stroke-width="1">
    <line x1="33" y1="395" x2="66" y2="364"/>
    <circle cx="33" cy="395" r="2"/>
    <circle cx="66" cy="364" r="2"/>
  </g>
  <g stroke="chocolate" stroke-width="1">
    <line x1="20" y1="408" x2="33" y2="395"/>
    <circle cx="20" cy="408" r="2"/>
    <circle cx="33" cy="395" r="2"/>
  </g>
  <g stroke="chocolate" stroke-width="1">
    <line x1="33" y1="395" x2="31" y2="391"/>
    <circle cx="33" cy="395" r="2"/>
    <circle cx="31" cy="391" r="2"/>
  </g>
  <g stroke="chocolate" stroke-width="1">
    <line x1="65" y1="447" x2="33" y2="395"/>
    <circle cx="65" cy="447" r="2"/>
    <circle cx="33" cy="395" r="2"/>
  </g>
  <g stroke="chocolate" stroke-width="1">
    <line x1="182" y1="487" x2="66" y2="364"/>
    <circle cx="182" cy="487" r="2"/>
    <circle cx="66" cy="364" r="2"/>
  </g>
  <g stroke="chocolate" stroke-width="1">
    <line x1="188" y1="493" x2="182" y2="487"/>
    <circle cx="188" cy="493" r="2"/>
    <circle cx="182" cy="487" r="2"/>
  </g>
  <g stroke="chocolate" stroke-width="1">
    <line x1="182" y1="487" x2="183" y2="487"/>
    <circle cx="182" cy="487" r="2"/>
    <circle cx="183" cy="487" r="2"/>
  </g>
  <g stroke="chocolate" stroke-width="1">
    <line x1="160" y1="488" x2="182" y2="487"/>
    <circle cx="160" cy="488" r="2"/>
    <circle cx="182" cy="487" r="2"/>
  </g>
  <g stroke="chocolate" stroke-width="1">
    <line x1="293" y1="489" x2="301" y2="489"/>
    <circle cx="293" cy="489" r="2"/>
    <circle cx="301" cy="489" r="2"/>
  </g>
  <g stroke="chocolate" stroke-width="1">
    <line x1="200" y1="489" x2="293" y2="489"/>
    <circle cx="200" cy="489" r="2"/>
    <circle cx="293" cy="489" r="2"/>
  </g>
  <g stroke="chocolate" stroke-width="1">
    <line x1="293" y1="489" x2="292" y2="285"/>
    <circle cx="293" cy="489" r="2"/>
    <circle cx="292" cy="285" r="2"/>
  </g>
  <g stroke="chocolate" stroke-width="1">
    <line x1="293" y1="497" x2="293" y2="489"/>
    <circle cx="293" cy="497" r="2"/>
    <circle cx="293" cy="489" r="2"/>
  </g>
  <g stroke="chocolate" stroke-width="1">
    <line x1="21" y1="393" x2="31" y2="391"/>
    <circle cx="21" cy="393" r="2"/>
    <circle cx="31" cy="391" r="2"/>
  </g>
  <g stroke="chocolate" stroke-width="1">
    <line x1="13" y1="394" x2="21" y2="393"/>
    <circle cx="13" cy="394" r="2"/>
    <circle cx="21" cy="393" r="2"/>
  </g>
  <g stroke="chocolate" stroke-width="1">
    <line x1="21" y1="395" x2="21" y2="393"/>
    <circle cx="21" cy="395" r="2"/>
    <circle cx="21" cy="393" r="2"/>
  </g>
  <g stroke="chocolate" stroke-width="1">
    <line x1="488" y1="220" x2="479" y2="205"/>
    <circle cx="488" cy="220" r="2"/>
    <circle cx="479" cy="205" r="2"/>
  </g>
  <g stroke="chocolate" stroke-width="1">
    <line x1="479" y1="205" x2="479" y2="154"/>
    <circle cx="479" cy="205" r="2"/>
    <circle cx="479" cy="154" r="2"/>
  </g>
  <g stroke="chocolate" stroke-width="1">
    <line x1="479" y1="253" x2="479" y2="205"/>
    <circle cx="479" cy="253" r="2"/>
    <circle cx="479" cy="205" r="2"/>
  </g>
  <g stroke="chocolate" stroke-width="1">
    <line x1="357" y1="21" x2="365" y2="21"/>
    <circle cx="357" cy="21" r="2"/>
    <circle cx="365" cy="21" r="2"/>
  </g>
  <g stroke="chocolate" stroke-width="1">
    <line x1="300" y1="21" x2="357" y2="21"/>
    <circle cx="300" cy="21" r="2"/>
    <circle cx="357" cy="21" r="2"/>
  </g>
  <g stroke="chocolate" stroke-width="1">
    <line x1="357" y1="21" x2="358" y2="13"/>
    <circle cx="357" cy="21" r="2"/>
    <circle cx="358" cy="13" r="2"/>
  </g>
  <g stroke="chocolate" stroke-width="1">
    <line x1="350" y1="96" x2="357" y2="21"/>
    <circle cx="350" cy="96" r="2"/>
    <circle cx="357" cy="21" r="2"/>
  </g>
  <g stroke="chocolate" stroke-width="1">
    <line x1="350" y1="96" x2="359" y2="83"/>
    <circle cx="350" cy="96" r="2"/>
    <circle cx="359" cy="83" r="2"/>
  </g>
  <g stroke="chocolate" stroke-width="1">
    <line x1="359" y1="83" x2="365" y2="21"/>
    <circle cx="359" cy="83" r="2"/>
    <circle cx="365" cy="21" r="2"/>
  </g>
  <g stroke="chocolate" stroke-width="1">
    <line x1="358" y1="99" x2="359" y2="83"/>
    <circle cx="358" cy="99" r="2"/>
    <circle cx="359" cy="83" r="2"/>
  </g>
  <g stroke="chocolate" stroke-width="1">
    <line x1="390" y1="53" x2="392" y2="50"/>
    <circle cx="390" cy="53" r="2"/>
    <circle cx="392" cy="50" r="2"/>
  </g>
  <g stroke="chocolate" stroke-width="1">
    <line x1="358" y1="99" x2="390" y2="53"/>
    <circle cx="358" cy="99" r="2"/>
    <circle cx="390" cy="53" r="2"/>
  </g>
  <g stroke="chocolate" stroke-width="1">
    <line x1="194" y1="492" x2="193" y2="490"/>
    <circle cx="194" cy="492" r="2"/>
    <circle cx="193" cy="490" r="2"/>
  </g>
  <g stroke="chocolate" stroke-width="1">
    <line x1="195" y1="494" x2="194" y2="492"/>
    <circle cx="195" cy="494" r="2"/>
    <circle cx="194" cy="492" r="2"/>
  </g>
  <g stroke="chocolate" stroke-width="1">
    <line x1="191" y1="493" x2="194" y2="492"/>
    <circle cx="191" cy="493" r="2"/>
    <circle cx="194" cy="492" r="2"/>
  </g>
  <g stroke="chocolate" stroke-width="1">
    <line x1="189" y1="492" x2="183" y2="487"/>
    <circle cx="189" cy="492" r="2"/>
    <circle cx="183" cy="487" r="2"/>
  </g>
  <g stroke="chocolate" stroke-width="1">
    <line x1="191" y1="493" x2="189" y2="492"/>
    <circle cx="191" cy="493" r="2"/>
    <circle cx="189" cy="492" r="2"/>
  </g>
  <g stroke="chocolate" stroke-width="1">
    <line x1="189" y1="492" x2="193" y2="490"/>
    <circle cx="189" cy="492" r="2"/>
    <circle cx="193" cy="490" r="2"/>
  </g>
  <g stroke="chocolate" stroke-width="1">
    <line x1="188" y1="493" x2="189" y2="492"/>
    <circle cx="188" cy="493" r="2"/>
    <circle cx="189" cy="492" r="2"/>
  </g>
  <g stroke="chocolate" stroke-width="1">
    <line x1="214" y1="497" x2="198" y2="492"/>
    <circle cx="214" cy="497" r="2"/>
    <circle cx="198" cy="492" r="2"/>
  </g>
  <g stroke="chocolate" stroke-width="1">
    <line x1="198" y1="492" x2="200" y2="489"/>
    <circle cx="198" cy="492" r="2"/>
    <circle cx="200" cy="489" r="2"/>
  </g>
  <g stroke="chocolate" stroke-width="1">
    <line x1="195" y1="494" x2="198" y2="492"/>
    <circle cx="195" cy="494" r="2"/>
    <circle cx="198" cy="492" r="2"/>
  </g>
  <g stroke="chocolate" stroke-width="1">
    <line x1="281" y1="13" x2="358" y2="13"/>
    <circle cx="281" cy="13" r="2"/>
    <circle cx="358" cy="13" r="2"/>
  </g>
  <g stroke="chocolate" stroke-width="1">
    <line x1="476" y1="143" x2="358" y2="13"/>
    <circle cx="476" cy="143" r="2"/>
    <circle cx="358" cy="13" r="2"/>
  </g>
  <g stroke="chocolate" stroke-width="1">
    <line x1="300" y1="21" x2="292" y2="13"/>
    <circle cx="300" cy="21" r="2"/>
    <circle cx="292" cy="13" r="2"/>
  </g>
  <g stroke="chocolate" stroke-width="1">
    <line x1="114" y1="82" x2="281" y2="13"/>
    <circle cx="114" cy="82" r="2"/>
    <circle cx="281" cy="13" r="2"/>
  </g>
  <g stroke="chocolate" stroke-width="1">
    <line x1="13" y1="176" x2="21" y2="174"/>
    <circle cx="13" cy="176" r="2"/>
    <circle cx="21" cy="174" r="2"/>
  </g>
  <g stroke="chocolate" stroke-width="1">
    <line x1="491" y1="299" x2="438" y2="285"/>
    <circle cx="491" cy="299" r="2"/>
    <circle cx="438" cy="285" r="2"/>
  </g>
  <g stroke="chocolate" stroke-width="1">
    <line x1="292" y1="285" x2="438" y2="285"/>
    <circle cx="292" cy="285" r="2"/>
    <circle cx="438" cy="285" r="2"/>
  </g>
  <g stroke="chocolate" stroke-width="1">
    <line x1="21" y1="174" x2="13" y2="168"/>
    <circle cx="21" cy="174" r="2"/>
    <circle cx="13" cy="168" r="2"/>
  </g>
  <g stroke="chocolate" stroke-width="1">
    <line x1="13" y1="168" x2="114" y2="82"/>
    <circle cx="13" cy="168" r="2"/>
    <circle cx="114" cy="82" r="2"/>
  </g>
  <g stroke="chocolate" stroke-width="1">
    <line x1="385" y1="45" x2="387" y2="45"/>
    <circle cx="385" cy="45" r="2"/>
    <circle cx="387" cy="45" r="2"/>
  </g>
  <g stroke="chocolate" stroke-width="1">
    <line x1="389" y1="52" x2="392" y2="50"/>
    <circle cx="389" cy="52" r="2"/>
    <circle cx="392" cy="50" r="2"/>
  </g>
  <g stroke="chocolate" stroke-width="1">
    <line x1="479" y1="154" x2="476" y2="143"/>
    <circle cx="479" cy="154" r="2"/>
    <circle cx="476" cy="143" r="2"/>
  </g>
  <g stroke="chocolate" stroke-width="1">
    <line x1="50" y1="182" x2="30" y2="153"/>
    <circle cx="50" cy="182" r="2"/>
    <circle cx="30" cy="153" r="2"/>
  </g>
  <g stroke="chocolate" stroke-width="1">
    <line x1="21" y1="395" x2="13" y2="394"/>
    <circle cx="21" cy="395" r="2"/>
    <circle cx="13" cy="394" r="2"/>
  </g>
  <g stroke="chocolate" stroke-width="1">
    <line x1="160" y1="488" x2="65" y2="447"/>
    <circle cx="160" cy="488" r="2"/>
    <circle cx="65" cy="447" r="2"/>
  </g>
  <g stroke="chocolate" stroke-width="1">
    <line x1="497" y1="292" x2="479" y2="154"/>
    <circle cx="497" cy="292" r="2"/>
    <circle cx="479" cy="154" r="2"/>
  </g>
  <g stroke="chocolate" stroke-width="1">
    <line x1="65" y1="447" x2="13" y2="402"/>
    <circle cx="65" cy="447" r="2"/>
    <circle cx="13" cy="402" r="2"/>
  </g>
  <g stroke="chocolate" stroke-width="1">
    <line x1="13" y1="402" x2="21" y2="395"/>
    <circle cx="13" cy="402" r="2"/>
    <circle cx="21" cy="395" r="2"/>
  </g>
  <g stroke="chocolate" stroke-width="1">
    <line x1="214" y1="497" x2="160" y2="488"/>
    <circle cx="214" cy="497" r="2"/>
    <circle cx="160" cy="488" r="2"/>
  </g>
  <g stroke="chocolate" stroke-width="1">
    <line x1="20" y1="408" x2="31" y2="391"/>
    <circle cx="20" cy="408" r="2"/>
    <circle cx="31" cy="391" r="2"/>
  </g>
  <g stroke="chocolate" stroke-width="1">
    <line x1="214" y1="497" x2="293" y2="497"/>
    <circle cx="214" cy="497" r="2"/>
    <circle cx="293" cy="497" r="2"/>
  </g>
  <g stroke="chocolate" stroke-width="1">
    <line x1="301" y1="489" x2="300" y2="285"/>
    <circle cx="301" cy="489" r="2"/>
    <circle cx="300" cy="285" r="2"/>
  </g>
  <g stroke="chocolate" stroke-width="1">
    <line x1="13" y1="402" x2="13" y2="168"/>
    <circle cx="13" cy="402" r="2"/>
    <circle cx="13" cy="168" r="2"/>
  </g>
  <g stroke="chocolate" stroke-width="1">
    <line x1="479" y1="253" x2="488" y2="220"/>
    <circle cx="479" cy="253" r="2"/>
    <circle cx="488" cy="220" r="2"/>
  </g>
  <g stroke="chocolate" stroke-width="1">
    <line x1="293" y1="497" x2="497" y2="292"/>
    <circle cx="293" cy="497" r="2"/>
    <circle cx="497" cy="292" r="2"/>
  </g>
  <g stroke="black" stroke-width="1">
    <line x1="5" y1="5" x2="505" y2="5"/>
    <line x1="5" y1="5" x2="5" y2="505"/>
    <line x1="505" y1="505" x2="5" y2="505"/>
    <line x1="505" y1="505" x2="505" y2="5"/>
    <line x1="105" y1="2" x2="105" y2="8"/>
    <line x1="2" y1="105" x2="8" y2="105"/>
    <line x1="105" y1="502" x2="105" y2="508"/>
    <line x1="502" y1="105" x2="508" y2="105"/>
    <line x1="205" y1="2" x2="205" y2="8"/>
    <line x1="2" y1="205" x2="8" y2="205"/>
    <line x1="205" y1="502" x2="205" y2="508"/>
    <line x1="502" y1="205" x2="508" y2="205"/>
    <line x1="305" y1="2" x2="305" y2="8"/>
    <line x1="2" y1="305" x2="8" y2="305"/>
    <line x1="305" y1="502" x2="305" y2="508"/>
    <line x1="502" y1="305" x2="508" y2="305"/>
    <line x1="405" y1="2" x2="405" y2="8"/>
    <line x1="2" y1="405" x2="8" y2="405"/>
    <line x1="405" y1="502" x2="405" y2="508"/>
    <line x1="502" y1="405" x2="508" y2="405"/>
  </g>
  <g stroke="gray" stroke-width="1" stroke-dasharray="5,5">
    <line x1="105" y1="5" x2="105" y2="505"/>
    <line x1="5" y1="105" x2="505" y2="105"/>
    <line x1="205" y1="5" x2="205" y2="505"/>
    <line x1="5" y1="205" x2="505" y2="205"/>
    <line x1="305" y1="5" x2="305" y2="505"/>
    <line x1="5" y1="305" x2="505" y2="305"/>
    <line x1="405" y1="5" x2="405" y2="505"/>
    <line x1="5" y1="405" x2="505" y2="405"/>
  </g>
</svg>
