<?xml version="1.0" standalone="no"?>
<!DOCTYPE svg PUBLIC "-//W3C//DTD SVG 1.1//EN" 
  "http://www.w3.org/Graphics/SVG/1.1/DTD/svg11.dtd">
<svg width="510" height="510" version="1.1" id="toplevel"
    xmlns="http://www.w3.org/2000/svg"
    xmlns:xlink="http://www.w3.org/1999/xlink">
  <polygon points="255,380 442,380 442,318 474,286 474,224 411,161 349,161 318,192 286,161 130,318 192,318"
           fill="bisque"/>
  <g stroke="chocolate" stroke-width="1">
    <line x1="318" y1="318" x2="318" y2="255"/>
    <circle cx="318" cy="318" r="2"/>
    <circle cx="318" cy="255" r="2"/>
  </g>
  <g stroke="chocolate" stroke-width="1">
    <line x1="318" y1="349" x2="318" y2="318"/>
    <circle cx="318" cy="349" r="2"/>
    <circle cx="318" cy="318" r="2"/>
  </g>
  <g stroke="chocolate" stroke-width="1">
    <line x1="318" y1="318" x2="442" y2="318"/>
    <circle cx="318" cy="318" r="2"/>
    <circle cx="442" cy="318" r="2"/>
  </g>
  <g stroke="chocolate" stroke-width="1">
    <line x1="192" y1="318" x2="318" y2="318"/>
    <circle cx="192" cy="318" r="2"/>
    <circle cx="318" cy="318" r="2"/>
  </g>
  <g stroke="chocolate" stroke-width="1">
    <line x1="318" y1="255" x2="318" y2="192"/>
    <circle cx="318" cy="255" r="2"/>
    <circle cx="318" cy="192" r="2"/>
  </g>
  <g stroke="chocolate" stroke-width="1">
    <line x1="318" y1="255" x2="474" y2="255"/>
    <circle cx="318" cy="255" r="2"/>
    <circle cx="474" cy="255" r="2"/>
  </g>
  <g stroke="chocolate" stroke-width="1">
    <line x1="255" y1="255" x2="318" y2="255"/>
    <circle cx="255" cy="255" r="2"/>
    <circle cx="318" cy="255" r="2"/>
  </g>
  <g stroke="chocolate" stroke-width="1">
    <line x1="318" y1="192" x2="286" y2="161"/>
    <circle cx="318" cy="192" r="2"/>
    <circle cx="286" cy="161" r="2"/>
  </g>
  <g stroke="chocolate" stroke-width="1">
    <line x1="380" y1="255" x2="318" y2="192"/>
    <circle cx="380" cy="255" r="2"/>
    <circle cx="318" cy="192" r="2"/>
  </g>
  <g stroke="chocolate" stroke-width="1">
    <line x1="318" y1="192" x2="349" y2="161"/>
    <circle cx="318" cy="192" r="2"/>
    <circle cx="349" cy="161" r="2"/>
  </g>
  <g stroke="chocolate" stroke-width="1">
    <line x1="255" y1="255" x2="318" y2="192"/>
    <circle cx="255" cy="255" r="2"/>
    <circle cx="318" cy="192" r="2"/>
  </g>
  <g stroke="chocolate" stroke-width="1">
    <line x1="192" y1="318" x2="161" y2="286"/>
    <circle cx="192" cy="318" r="2"/>
    <circle cx="161" cy="286" r="2"/>
  </g>
  <g stroke="chocolate" stroke-width="1">
    <line x1="255" y1="380" x2="192" y2="318"/>
    <circle cx="255" cy="380" r="2"/>
    <circle cx="192" cy="318" r="2"/>
  </g>
  <g stroke="chocolate" stroke-width="1">
    <line x1="130" y1="318" x2="192" y2="318"/>
    <circle cx="130" cy="318" r="2"/>
    <circle cx="192" cy="318" r="2"/>
  </g>
  <g stroke="chocolate" stroke-width="1">
    <line x1="442" y1="224" x2="474" y2="224"/>
    <circle cx="442" cy="224" r="2"/>
    <circle cx="474" cy="224" r="2"/>
  </g>
  <g stroke="chocolate" stroke-width="1">
    <line x1="411" y1="224" x2="442" y2="224"/>
    <circle cx="411" cy="224" r="2"/>
    <circle cx="442" cy="224" r="2"/>
  </g>
  <g stroke="chocolate" stroke-width="1">
    <line x1="442" y1="224" x2="442" y2="192"/>
    <circle cx="442" cy="224" r="2"/>
    <circle cx="442" cy="192" r="2"/>
  </g>
  <g stroke="chocolate" stroke-width="1">
    <line x1="442" y1="255" x2="442" y2="224"/>
    <circle cx="442" cy="255" r="2"/>
    <circle cx="442" cy="224" r="2"/>
  </g>
  <g stroke="chocolate" stroke-width="1">
    <line x1="411" y1="192" x2="442" y2="192"/>
    <circle cx="411" cy="192" r="2"/>
    <circle cx="442" cy="192" r="2"/>
  </g>
  <g stroke="chocolate" stroke-width="1">
    <line x1="380" y1="192" x2="411" y2="192"/>
    <circle cx="380" cy="192" r="2"/>
    <circle cx="411" cy="192" r="2"/>
  </g>
  <g stroke="chocolate" stroke-width="1">
    <line x1="411" y1="192" x2="411" y2="161"/>
    <circle cx="411" cy="192" r="2"/>
    <circle cx="411" cy="161" r="2"/>
  </g>
  <g stroke="chocolate" stroke-width="1">
    <line x1="411" y1="224" x2="411" y2="192"/>
    <circle cx="411" cy="224" r="2"/>
    <circle cx="411" cy="192" r="2"/>
  </g>
  <g stroke="chocolate" stroke-width="1">
    <line x1="442" y1="318" x2="380" y2="255"/>
    <circle cx="442" cy="318" r="2"/>
    <circle cx="380" cy="255" r="2"/>
  </g>
  <g stroke="chocolate" stroke-width="1">
    <line x1="380" y1="255" x2="380" y2="161"/>
    <circle cx="380" cy="255" r="2"/>
    <circle cx="380" cy="161" r="2"/>
  </g>
  <g stroke="chocolate" stroke-width="1">
    <line x1="380" y1="318" x2="380" y2="255"/>
    <circle cx="380" cy="318" r="2"/>
    <circle cx="380" cy="255" r="2"/>
  </g>
  <g stroke="chocolate" stroke-width="1">
    <line x1="318" y1="349" x2="442" y2="349"/>
    <circle cx="318" cy="349" r="2"/>
    <circle cx="442" cy="349" r="2"/>
  </g>
  <g stroke="chocolate" stroke-width="1">
    <line x1="286" y1="349" x2="318" y2="349"/>
    <circle cx="286" cy="349" r="2"/>
    <circle cx="318" cy="349" r="2"/>
  </g>
  <g stroke="chocolate" stroke-width="1">
    <line x1="318" y1="380" x2="318" y2="349"/>
    <circle cx="318" cy="380" r="2"/>
    <circle cx="318" cy="349" r="2"/>
  </g>
  <g stroke="chocolate" stroke-width="1">
    <line x1="192" y1="255" x2="255" y2="255"/>
    <circle cx="192" cy="255" r="2"/>
    <circle cx="255" cy="255" r="2"/>
  </g>
  <g stroke="chocolate" stroke-width="1">
    <line x1="192" y1="318" x2="255" y2="255"/>
    <circle cx="192" cy="318" r="2"/>
    <circle cx="255" cy="255" r="2"/>
  </g>
  <g stroke="chocolate" stroke-width="1">
    <line x1="474" y1="224" x2="411" y2="161"/>
    <circle cx="474" cy="224" r="2"/>
    <circle cx="411" cy="161" r="2"/>
  </g>
  <g stroke="chocolate" stroke-width="1">
    <line x1="380" y1="192" x2="349" y2="161"/>
    <circle cx="380" cy="192" r="2"/>
    <circle cx="349" cy="161" r="2"/>
  </g>
  <g stroke="chocolate" stroke-width="1">
    <line x1="474" y1="286" x2="442" y2="255"/>
    <circle cx="474" cy="286" r="2"/>
    <circle cx="442" cy="255" r="2"/>
  </g>
  <g stroke="chocolate" stroke-width="1">
    <line x1="349" y1="161" x2="411" y2="161"/>
    <circle cx="349" cy="161" r="2"/>
    <circle cx="411" cy="161" r="2"/>
  </g>
  <g stroke="chocolate" stroke-width="1">
    <line x1="255" y1="192" x2="318" y2="192"/>
    <circle cx="255" cy="192" r="2"/>
    <circle cx="318" cy="192" r="2"/>
  </g>
  <g stroke="chocolate" stroke-width="1">
    <line x1="318" y1="380" x2="286" y2="349"/>
    <circle cx="318" cy="380" r="2"/>
    <circle cx="286" cy="349" r="2"/>
  </g>
  <g stroke="chocolate" stroke-width="1">
    <line x1="255" y1="380" x2="442" y2="380"/>
    <circle cx="255" cy="380" r="2"/>
    <circle cx="442" cy="380" r="2"/>
  </g>
  <g stroke="chocolate" stroke-width="1">
    <line x1="130" y1="318" x2="286" y2="161"/>
    <circle cx="130" cy="318" r="2"/>
    <circle cx="286" cy="161" r="2"/>
  </g>
  <g stroke="chocolate" stroke-width="1">
    <line x1="474" y1="286" x2="474" y2="224"/>
    <circle cx="474" cy="286" r="2"/>
    <circle cx="474" cy="224" r="2"/>
  </g>
  <g stroke="chocolate" stroke-width="1">
    <line x1="442" y1="380" x2="442" y2="318"/>
    <circle cx="442" cy="380" r="2"/>
    <circle cx="442" cy="318" r="2"/>
  </g>
  <g stroke="chocolate" stroke-width="1">
    <line x1="255" y1="255" x2="255" y2="192"/>
    <circle cx="255" cy="255" r="2"/>
    <circle cx="255" cy="192" r="2"/>
  </g>
  <g stroke="chocolate" stroke-width="1">
    <line x1="192" y1="318" x2="192" y2="255"/>
    <circle cx="192" cy="318" r="2"/>
    <circle cx="192" cy="255" r="2"/>
  </g>
  <g stroke="chocolate" stroke-width="1">
    <line x1="255" y1="380" x2="286" y2="349"/>
    <circle cx="255" cy="380" r="2"/>
    <circle cx="286" cy="349" r="2"/>
  </g>
  <g stroke="chocolate" stroke-width="1">
    <line x1="442" y1="318" x2="474" y2="286"/>
    <circle cx="442" cy="318" r="2"/>
    <circle cx="474" cy="286" r="2"/>
  </g>
  <g stroke="black" stroke-width="1">
    <line x1="5" y1="5" x2="505" y2="5"/>
    <line x1="5" y1="5" x2="5" y2="505"/>
    <line x1="505" y1="505" x2="5" y2="505"/>
    <line x1="505" y1="505" x2="505" y2="5"/>
    <line x1="105" y1="2" x2="105" y2="8"/>
    <line x1="2" y1="105" x2="8" y2="105"/>
    <line x1="105" y1="502" x2="105" y2="508"/>
    <line x1="502" y1="105" x2="508" y2="105"/>
    <line x1="205" y1="2" x2="205" y2="8"/>
    <line x1="2" y1="205" x2="8" y2="205"/>
    <line x1="205" y1="502" x2="205" y2="508"/>
    <line x1="502" y1="205" x2="508" y2="205"/>
    <line x1="305" y1="2" x2="305" y2="8"/>
    <line x1="2" y1="305" x2="8" y2="305"/>
    <line x1="305" y1="502" x2="305" y2="508"/>
    <line x1="502" y1="305" x2="508" y2="305"/>
    <line x1="405" y1="2" x2="405" y2="8"/>
    <line x1="2" y1="405" x2="8" y2="405"/>
    <line x1="405" y1="502" x2="405" y2="508"/>
    <line x1="502" y1="405" x2="508" y2="405"/>
  </g>
  <g stroke="gray" stroke-width="1" stroke-dasharray="5,5">
    <line x1="105" y1="5" x2="105" y2="505"/>
    <line x1="5" y1="105" x2="505" y2="105"/>
    <line x1="205" y1="5" x2="205" y2="505"/>
    <line x1="5" y1="205" x2="505" y2="205"/>
    <line x1="305" y1="5" x2="305" y2="505"/>
    <line x1="5" y1="305" x2="505" y2="305"/>
    <line x1="405" y1="5" x2="405" y2="505"/>
    <line x1="5" y1="405" x2="505" y2="405"/>
  </g>
</svg>
