<?xml version="1.0" standalone="no"?>
<!DOCTYPE svg PUBLIC "-//W3C//DTD SVG 1.1//EN" 
  "http://www.w3.org/Graphics/SVG/1.1/DTD/svg11.dtd">
<svg width="630" height="630" version="1.1" id="toplevel"
    xmlns="http://www.w3.org/2000/svg"
    xmlns:xlink="http://www.w3.org/1999/xlink">
  <polygon points="145,625 625,485 485,5 5,145" fill="bisque"/>
  <g stroke="chocolate" stroke-width="1">
    <line x1="5" y1="145" x2="485" y2="5"/>
    <circle cx="5" cy="145" r="2"/>
    <circle cx="485" cy="5" r="2"/>
  </g>
  <g stroke="chocolate" stroke-width="1">
    <line x1="625" y1="485" x2="485" y2="5"/>
    <circle cx="625" cy="485" r="2"/>
    <circle cx="485" cy="5" r="2"/>
  </g>
  <g stroke="chocolate" stroke-width="1">
    <line x1="145" y1="625" x2="5" y2="145"/>
    <circle cx="145" cy="625" r="2"/>
    <circle cx="5" cy="145" r="2"/>
  </g>
  <g stroke="chocolate" stroke-width="1">
    <line x1="145" y1="625" x2="625" y2="485"/>
    <circle cx="145" cy="625" r="2"/>
    <circle cx="625" cy="485" r="2"/>
  </g>
  <g stroke="black" stroke-width="1">
    <line x1="65" y1="65" x2="565" y2="65"/>
    <line x1="65" y1="65" x2="65" y2="565"/>
    <line x1="565" y1="565" x2="65" y2="565"/>
    <line x1="565" y1="565" x2="565" y2="65"/>
    <line x1="165" y1="62" x2="165" y2="68"/>
    <line x1="62" y1="165" x2="68" y2="165"/>
    <line x1="165" y1="562" x2="165" y2="568"/>
    <line x1="562" y1="165" x2="568" y2="165"/>
    <line x1="265" y1="62" x2="265" y2="68"/>
    <line x1="62" y1="265" x2="68" y2="265"/>
    <line x1="265" y1="562" x2="265" y2="568"/>
    <line x1="562" y1="265" x2="568" y2="265"/>
    <line x1="365" y1="62" x2="365" y2="68"/>
    <line x1="62" y1="365" x2="68" y2="365"/>
    <line x1="365" y1="562" x2="365" y2="568"/>
    <line x1="562" y1="365" x2="568" y2="365"/>
    <line x1="465" y1="62" x2="465" y2="68"/>
    <line x1="62" y1="465" x2="68" y2="465"/>
    <line x1="465" y1="562" x2="465" y2="568"/>
    <line x1="562" y1="465" x2="568" y2="465"/>
  </g>
  <g stroke="gray" stroke-width="1" stroke-dasharray="5,5">
    <line x1="165" y1="65" x2="165" y2="565"/>
    <line x1="65" y1="165" x2="565" y2="165"/>
    <line x1="265" y1="65" x2="265" y2="565"/>
    <line x1="65" y1="265" x2="565" y2="265"/>
    <line x1="365" y1="65" x2="365" y2="565"/>
    <line x1="65" y1="365" x2="565" y2="365"/>
    <line x1="465" y1="65" x2="465" y2="565"/>
    <line x1="65" y1="465" x2="565" y2="465"/>
  </g>
</svg>
