<?xml version="1.0" standalone="no"?>
<!DOCTYPE svg PUBLIC "-//W3C//DTD SVG 1.1//EN" 
  "http://www.w3.org/Graphics/SVG/1.1/DTD/svg11.dtd">
<svg width="716" height="716" version="1.1" id="toplevel"
    xmlns="http://www.w3.org/2000/svg"
    xmlns:xlink="http://www.w3.org/1999/xlink">
  <polygon points="496,416 506,365 595,372 603,361 658,365 711,309 564,312 557,300 5,326"
           fill="bisque"/>
  <g stroke="chocolate" stroke-width="1">
    <line x1="595" y1="372" x2="630" y2="326"/>
    <circle cx="595" cy="372" r="2"/>
    <circle cx="630" cy="326" r="2"/>
  </g>
  <g stroke="chocolate" stroke-width="1">
    <line x1="539" y1="343" x2="557" y2="300"/>
    <circle cx="539" cy="343" r="2"/>
    <circle cx="557" cy="300" r="2"/>
  </g>
  <g stroke="chocolate" stroke-width="1">
    <line x1="658" y1="365" x2="711" y2="309"/>
    <circle cx="658" cy="365" r="2"/>
    <circle cx="711" cy="309" r="2"/>
  </g>
  <g stroke="chocolate" stroke-width="1">
    <line x1="521" y1="342" x2="529" y2="314"/>
    <circle cx="521" cy="342" r="2"/>
    <circle cx="529" cy="314" r="2"/>
  </g>
  <g stroke="chocolate" stroke-width="1">
    <line x1="496" y1="416" x2="515" y2="316"/>
    <circle cx="496" cy="416" r="2"/>
    <circle cx="515" cy="316" r="2"/>
  </g>
  <g stroke="chocolate" stroke-width="1">
    <line x1="505" y1="372" x2="505" y2="326"/>
    <circle cx="505" cy="372" r="2"/>
    <circle cx="505" cy="326" r="2"/>
  </g>
  <g stroke="chocolate" stroke-width="1">
    <line x1="521" y1="342" x2="515" y2="316"/>
    <circle cx="521" cy="342" r="2"/>
    <circle cx="515" cy="316" r="2"/>
  </g>
  <g stroke="chocolate" stroke-width="1">
    <line x1="539" y1="343" x2="529" y2="314"/>
    <circle cx="539" cy="343" r="2"/>
    <circle cx="529" cy="314" r="2"/>
  </g>
  <g stroke="chocolate" stroke-width="1">
    <line x1="595" y1="372" x2="557" y2="300"/>
    <circle cx="595" cy="372" r="2"/>
    <circle cx="557" cy="300" r="2"/>
  </g>
  <g stroke="chocolate" stroke-width="1">
    <line x1="658" y1="365" x2="630" y2="326"/>
    <circle cx="658" cy="365" r="2"/>
    <circle cx="630" cy="326" r="2"/>
  </g>
  <g stroke="chocolate" stroke-width="1">
    <line x1="496" y1="416" x2="5" y2="326"/>
    <circle cx="496" cy="416" r="2"/>
    <circle cx="5" cy="326" r="2"/>
  </g>
  <g stroke="chocolate" stroke-width="1">
    <line x1="505" y1="372" x2="5" y2="326"/>
    <circle cx="505" cy="372" r="2"/>
    <circle cx="5" cy="326" r="2"/>
  </g>
  <g stroke="chocolate" stroke-width="1">
    <line x1="595" y1="372" x2="5" y2="326"/>
    <circle cx="595" cy="372" r="2"/>
    <circle cx="5" cy="326" r="2"/>
  </g>
  <g stroke="chocolate" stroke-width="1">
    <line x1="658" y1="365" x2="5" y2="326"/>
    <circle cx="658" cy="365" r="2"/>
    <circle cx="5" cy="326" r="2"/>
  </g>
  <g stroke="chocolate" stroke-width="1">
    <line x1="5" y1="326" x2="557" y2="300"/>
    <circle cx="5" cy="326" r="2"/>
    <circle cx="557" cy="300" r="2"/>
  </g>
  <g stroke="chocolate" stroke-width="1">
    <line x1="539" y1="343" x2="5" y2="326"/>
    <circle cx="539" cy="343" r="2"/>
    <circle cx="5" cy="326" r="2"/>
  </g>
  <g stroke="chocolate" stroke-width="1">
    <line x1="521" y1="342" x2="5" y2="326"/>
    <circle cx="521" cy="342" r="2"/>
    <circle cx="5" cy="326" r="2"/>
  </g>
  <g stroke="chocolate" stroke-width="1">
    <line x1="5" y1="326" x2="711" y2="309"/>
    <circle cx="5" cy="326" r="2"/>
    <circle cx="711" cy="309" r="2"/>
  </g>
  <g stroke="chocolate" stroke-width="1">
    <line x1="5" y1="326" x2="529" y2="314"/>
    <circle cx="5" cy="326" r="2"/>
    <circle cx="529" cy="314" r="2"/>
  </g>
  <g stroke="chocolate" stroke-width="1">
    <line x1="5" y1="326" x2="515" y2="316"/>
    <circle cx="5" cy="326" r="2"/>
    <circle cx="515" cy="316" r="2"/>
  </g>
  <g stroke="chocolate" stroke-width="1">
    <line x1="5" y1="326" x2="630" y2="326"/>
    <circle cx="5" cy="326" r="2"/>
    <circle cx="630" cy="326" r="2"/>
  </g>
  <g stroke="black" stroke-width="1">
    <line x1="108" y1="108" x2="608" y2="108"/>
    <line x1="108" y1="108" x2="108" y2="608"/>
    <line x1="608" y1="608" x2="108" y2="608"/>
    <line x1="608" y1="608" x2="608" y2="108"/>
    <line x1="208" y1="105" x2="208" y2="111"/>
    <line x1="105" y1="208" x2="111" y2="208"/>
    <line x1="208" y1="605" x2="208" y2="611"/>
    <line x1="605" y1="208" x2="611" y2="208"/>
    <line x1="308" y1="105" x2="308" y2="111"/>
    <line x1="105" y1="308" x2="111" y2="308"/>
    <line x1="308" y1="605" x2="308" y2="611"/>
    <line x1="605" y1="308" x2="611" y2="308"/>
    <line x1="408" y1="105" x2="408" y2="111"/>
    <line x1="105" y1="408" x2="111" y2="408"/>
    <line x1="408" y1="605" x2="408" y2="611"/>
    <line x1="605" y1="408" x2="611" y2="408"/>
    <line x1="508" y1="105" x2="508" y2="111"/>
    <line x1="105" y1="508" x2="111" y2="508"/>
    <line x1="508" y1="605" x2="508" y2="611"/>
    <line x1="605" y1="508" x2="611" y2="508"/>
  </g>
  <g stroke="gray" stroke-width="1" stroke-dasharray="5,5">
    <line x1="208" y1="108" x2="208" y2="608"/>
    <line x1="108" y1="208" x2="608" y2="208"/>
    <line x1="308" y1="108" x2="308" y2="608"/>
    <line x1="108" y1="308" x2="608" y2="308"/>
    <line x1="408" y1="108" x2="408" y2="608"/>
    <line x1="108" y1="408" x2="608" y2="408"/>
    <line x1="508" y1="108" x2="508" y2="608"/>
    <line x1="108" y1="508" x2="608" y2="508"/>
  </g>
</svg>
