<?xml version="1.0" standalone="no"?>
<!DOCTYPE svg PUBLIC "-//W3C//DTD SVG 1.1//EN" 
  "http://www.w3.org/Graphics/SVG/1.1/DTD/svg11.dtd">
<svg width="576" height="576" version="1.1" id="toplevel"
    xmlns="http://www.w3.org/2000/svg"
    xmlns:xlink="http://www.w3.org/1999/xlink">
  <polygon points="172,463 568,315 571,302 511,273 475,246 463,250 180,113 5,252"
           fill="bisque"/>
  <g stroke="chocolate" stroke-width="1">
    <line x1="556" y1="320" x2="571" y2="302"/>
    <circle cx="556" cy="320" r="2"/>
    <circle cx="571" cy="302" r="2"/>
  </g>
  <g stroke="chocolate" stroke-width="1">
    <line x1="369" y1="390" x2="468" y2="304"/>
    <circle cx="369" cy="390" r="2"/>
    <circle cx="468" cy="304" r="2"/>
  </g>
  <g stroke="chocolate" stroke-width="1">
    <line x1="568" y1="315" x2="571" y2="302"/>
    <circle cx="568" cy="315" r="2"/>
    <circle cx="571" cy="302" r="2"/>
  </g>
  <g stroke="chocolate" stroke-width="1">
    <line x1="474" y1="350" x2="499" y2="264"/>
    <circle cx="474" cy="350" r="2"/>
    <circle cx="499" cy="264" r="2"/>
  </g>
  <g stroke="chocolate" stroke-width="1">
    <line x1="172" y1="463" x2="568" y2="315"/>
    <circle cx="172" cy="463" r="2"/>
    <circle cx="568" cy="315" r="2"/>
  </g>
  <g stroke="chocolate" stroke-width="1">
    <line x1="227" y1="437" x2="499" y2="264"/>
    <circle cx="227" cy="437" r="2"/>
    <circle cx="499" cy="264" r="2"/>
  </g>
  <g stroke="chocolate" stroke-width="1">
    <line x1="172" y1="463" x2="5" y2="252"/>
    <circle cx="172" cy="463" r="2"/>
    <circle cx="5" cy="252" r="2"/>
  </g>
  <g stroke="chocolate" stroke-width="1">
    <line x1="434" y1="273" x2="471" y2="254"/>
    <circle cx="434" cy="273" r="2"/>
    <circle cx="471" cy="254" r="2"/>
  </g>
  <g stroke="chocolate" stroke-width="1">
    <line x1="473" y1="351" x2="475" y2="246"/>
    <circle cx="473" cy="351" r="2"/>
    <circle cx="475" cy="246" r="2"/>
  </g>
  <g stroke="chocolate" stroke-width="1">
    <line x1="172" y1="463" x2="167" y2="343"/>
    <circle cx="172" cy="463" r="2"/>
    <circle cx="167" cy="343" r="2"/>
  </g>
  <g stroke="chocolate" stroke-width="1">
    <line x1="180" y1="390" x2="369" y2="390"/>
    <circle cx="180" cy="390" r="2"/>
    <circle cx="369" cy="390" r="2"/>
  </g>
  <g stroke="chocolate" stroke-width="1">
    <line x1="180" y1="390" x2="180" y2="113"/>
    <circle cx="180" cy="390" r="2"/>
    <circle cx="180" cy="113" r="2"/>
  </g>
  <g stroke="chocolate" stroke-width="1">
    <line x1="227" y1="437" x2="167" y2="343"/>
    <circle cx="227" cy="437" r="2"/>
    <circle cx="167" cy="343" r="2"/>
  </g>
  <g stroke="chocolate" stroke-width="1">
    <line x1="167" y1="343" x2="475" y2="246"/>
    <circle cx="167" cy="343" r="2"/>
    <circle cx="475" cy="246" r="2"/>
  </g>
  <g stroke="chocolate" stroke-width="1">
    <line x1="490" y1="344" x2="471" y2="254"/>
    <circle cx="490" cy="344" r="2"/>
    <circle cx="471" cy="254" r="2"/>
  </g>
  <g stroke="chocolate" stroke-width="1">
    <line x1="472" y1="349" x2="434" y2="273"/>
    <circle cx="472" cy="349" r="2"/>
    <circle cx="434" cy="273" r="2"/>
  </g>
  <g stroke="chocolate" stroke-width="1">
    <line x1="556" y1="320" x2="468" y2="304"/>
    <circle cx="556" cy="320" r="2"/>
    <circle cx="468" cy="304" r="2"/>
  </g>
  <g stroke="chocolate" stroke-width="1">
    <line x1="490" y1="344" x2="468" y2="304"/>
    <circle cx="490" cy="344" r="2"/>
    <circle cx="468" cy="304" r="2"/>
  </g>
  <g stroke="chocolate" stroke-width="1">
    <line x1="474" y1="350" x2="472" y2="349"/>
    <circle cx="474" cy="350" r="2"/>
    <circle cx="472" cy="349" r="2"/>
  </g>
  <g stroke="chocolate" stroke-width="1">
    <line x1="473" y1="351" x2="472" y2="349"/>
    <circle cx="473" cy="351" r="2"/>
    <circle cx="472" cy="349" r="2"/>
  </g>
  <g stroke="chocolate" stroke-width="1">
    <line x1="5" y1="252" x2="180" y2="113"/>
    <circle cx="5" cy="252" r="2"/>
    <circle cx="180" cy="113" r="2"/>
  </g>
  <g stroke="chocolate" stroke-width="1">
    <line x1="571" y1="302" x2="180" y2="113"/>
    <circle cx="571" cy="302" r="2"/>
    <circle cx="180" cy="113" r="2"/>
  </g>
  <g stroke="chocolate" stroke-width="1">
    <line x1="568" y1="315" x2="475" y2="246"/>
    <circle cx="568" cy="315" r="2"/>
    <circle cx="475" cy="246" r="2"/>
  </g>
  <g stroke="black" stroke-width="1">
    <line x1="38" y1="38" x2="538" y2="38"/>
    <line x1="38" y1="38" x2="38" y2="538"/>
    <line x1="538" y1="538" x2="38" y2="538"/>
    <line x1="538" y1="538" x2="538" y2="38"/>
    <line x1="138" y1="35" x2="138" y2="41"/>
    <line x1="35" y1="138" x2="41" y2="138"/>
    <line x1="138" y1="535" x2="138" y2="541"/>
    <line x1="535" y1="138" x2="541" y2="138"/>
    <line x1="238" y1="35" x2="238" y2="41"/>
    <line x1="35" y1="238" x2="41" y2="238"/>
    <line x1="238" y1="535" x2="238" y2="541"/>
    <line x1="535" y1="238" x2="541" y2="238"/>
    <line x1="338" y1="35" x2="338" y2="41"/>
    <line x1="35" y1="338" x2="41" y2="338"/>
    <line x1="338" y1="535" x2="338" y2="541"/>
    <line x1="535" y1="338" x2="541" y2="338"/>
    <line x1="438" y1="35" x2="438" y2="41"/>
    <line x1="35" y1="438" x2="41" y2="438"/>
    <line x1="438" y1="535" x2="438" y2="541"/>
    <line x1="535" y1="438" x2="541" y2="438"/>
  </g>
  <g stroke="gray" stroke-width="1" stroke-dasharray="5,5">
    <line x1="138" y1="38" x2="138" y2="538"/>
    <line x1="38" y1="138" x2="538" y2="138"/>
    <line x1="238" y1="38" x2="238" y2="538"/>
    <line x1="38" y1="238" x2="538" y2="238"/>
    <line x1="338" y1="38" x2="338" y2="538"/>
    <line x1="38" y1="338" x2="538" y2="338"/>
    <line x1="438" y1="38" x2="438" y2="538"/>
    <line x1="38" y1="438" x2="538" y2="438"/>
  </g>
</svg>
