<?xml version="1.0" standalone="no"?>
<!DOCTYPE svg PUBLIC "-//W3C//DTD SVG 1.1//EN" 
  "http://www.w3.org/Graphics/SVG/1.1/DTD/svg11.dtd">
<svg width="578" height="578" version="1.1" id="toplevel"
    xmlns="http://www.w3.org/2000/svg"
    xmlns:xlink="http://www.w3.org/1999/xlink">
  <polygon points="211,522 299,438 538,380 504,243 573,177 573,177 459,56 5,305 52,499 164,472"
           fill="bisque"/>
  <g stroke="chocolate" stroke-width="1">
    <line x1="211" y1="522" x2="5" y2="305"/>
    <circle cx="211" cy="522" r="2"/>
    <circle cx="5" cy="305" r="2"/>
  </g>
  <g stroke="chocolate" stroke-width="1">
    <line x1="52" y1="499" x2="538" y2="380"/>
    <circle cx="52" cy="499" r="2"/>
    <circle cx="538" cy="380" r="2"/>
  </g>
  <g stroke="chocolate" stroke-width="1">
    <line x1="52" y1="499" x2="5" y2="305"/>
    <circle cx="52" cy="499" r="2"/>
    <circle cx="5" cy="305" r="2"/>
  </g>
  <g stroke="chocolate" stroke-width="1">
    <line x1="538" y1="380" x2="459" y2="56"/>
    <circle cx="538" cy="380" r="2"/>
    <circle cx="459" cy="56" r="2"/>
  </g>
  <g stroke="chocolate" stroke-width="1">
    <line x1="211" y1="522" x2="573" y2="177"/>
    <circle cx="211" cy="522" r="2"/>
    <circle cx="573" cy="177" r="2"/>
  </g>
  <g stroke="chocolate" stroke-width="1">
    <line x1="573" y1="177" x2="459" y2="56"/>
    <circle cx="573" cy="177" r="2"/>
    <circle cx="459" cy="56" r="2"/>
  </g>
  <g stroke="chocolate" stroke-width="1">
    <line x1="573" y1="177" x2="573" y2="177"/>
    <circle cx="573" cy="177" r="2"/>
    <circle cx="573" cy="177" r="2"/>
  </g>
  <g stroke="chocolate" stroke-width="1">
    <line x1="573" y1="177" x2="573" y2="177"/>
    <circle cx="573" cy="177" r="2"/>
    <circle cx="573" cy="177" r="2"/>
  </g>
  <g stroke="chocolate" stroke-width="1">
    <line x1="573" y1="177" x2="573" y2="177"/>
    <circle cx="573" cy="177" r="2"/>
    <circle cx="573" cy="177" r="2"/>
  </g>
  <g stroke="chocolate" stroke-width="1">
    <line x1="5" y1="305" x2="459" y2="56"/>
    <circle cx="5" cy="305" r="2"/>
    <circle cx="459" cy="56" r="2"/>
  </g>
  <g stroke="black" stroke-width="1">
    <line x1="39" y1="39" x2="539" y2="39"/>
    <line x1="39" y1="39" x2="39" y2="539"/>
    <line x1="539" y1="539" x2="39" y2="539"/>
    <line x1="539" y1="539" x2="539" y2="39"/>
    <line x1="139" y1="36" x2="139" y2="42"/>
    <line x1="36" y1="139" x2="42" y2="139"/>
    <line x1="139" y1="536" x2="139" y2="542"/>
    <line x1="536" y1="139" x2="542" y2="139"/>
    <line x1="239" y1="36" x2="239" y2="42"/>
    <line x1="36" y1="239" x2="42" y2="239"/>
    <line x1="239" y1="536" x2="239" y2="542"/>
    <line x1="536" y1="239" x2="542" y2="239"/>
    <line x1="339" y1="36" x2="339" y2="42"/>
    <line x1="36" y1="339" x2="42" y2="339"/>
    <line x1="339" y1="536" x2="339" y2="542"/>
    <line x1="536" y1="339" x2="542" y2="339"/>
    <line x1="439" y1="36" x2="439" y2="42"/>
    <line x1="36" y1="439" x2="42" y2="439"/>
    <line x1="439" y1="536" x2="439" y2="542"/>
    <line x1="536" y1="439" x2="542" y2="439"/>
  </g>
  <g stroke="gray" stroke-width="1" stroke-dasharray="5,5">
    <line x1="139" y1="39" x2="139" y2="539"/>
    <line x1="39" y1="139" x2="539" y2="139"/>
    <line x1="239" y1="39" x2="239" y2="539"/>
    <line x1="39" y1="239" x2="539" y2="239"/>
    <line x1="339" y1="39" x2="339" y2="539"/>
    <line x1="39" y1="339" x2="539" y2="339"/>
    <line x1="439" y1="39" x2="439" y2="539"/>
    <line x1="39" y1="439" x2="539" y2="439"/>
  </g>
</svg>
