<?xml version="1.0" standalone="no"?>
<!DOCTYPE svg PUBLIC "-//W3C//DTD SVG 1.1//EN" 
  "http://www.w3.org/Graphics/SVG/1.1/DTD/svg11.dtd">
<svg width="622" height="622" version="1.1" id="toplevel"
    xmlns="http://www.w3.org/2000/svg"
    xmlns:xlink="http://www.w3.org/1999/xlink">
  <polygon points="486,475 524,339 617,315 617,315 576,154 59,147 5,340 115,371 133,438 250,408"
           fill="bisque"/>
  <g stroke="chocolate" stroke-width="1">
    <line x1="486" y1="475" x2="5" y2="340"/>
    <circle cx="486" cy="475" r="2"/>
    <circle cx="5" cy="340" r="2"/>
  </g>
  <g stroke="chocolate" stroke-width="1">
    <line x1="133" y1="438" x2="59" y2="147"/>
    <circle cx="133" cy="438" r="2"/>
    <circle cx="59" cy="147" r="2"/>
  </g>
  <g stroke="chocolate" stroke-width="1">
    <line x1="133" y1="438" x2="617" y2="315"/>
    <circle cx="133" cy="438" r="2"/>
    <circle cx="617" cy="315" r="2"/>
  </g>
  <g stroke="chocolate" stroke-width="1">
    <line x1="617" y1="315" x2="576" y2="154"/>
    <circle cx="617" cy="315" r="2"/>
    <circle cx="576" cy="154" r="2"/>
  </g>
  <g stroke="chocolate" stroke-width="1">
    <line x1="617" y1="315" x2="617" y2="315"/>
    <circle cx="617" cy="315" r="2"/>
    <circle cx="617" cy="315" r="2"/>
  </g>
  <g stroke="chocolate" stroke-width="1">
    <line x1="617" y1="315" x2="617" y2="315"/>
    <circle cx="617" cy="315" r="2"/>
    <circle cx="617" cy="315" r="2"/>
  </g>
  <g stroke="chocolate" stroke-width="1">
    <line x1="617" y1="315" x2="617" y2="315"/>
    <circle cx="617" cy="315" r="2"/>
    <circle cx="617" cy="315" r="2"/>
  </g>
  <g stroke="chocolate" stroke-width="1">
    <line x1="486" y1="475" x2="576" y2="154"/>
    <circle cx="486" cy="475" r="2"/>
    <circle cx="576" cy="154" r="2"/>
  </g>
  <g stroke="chocolate" stroke-width="1">
    <line x1="5" y1="340" x2="59" y2="147"/>
    <circle cx="5" cy="340" r="2"/>
    <circle cx="59" cy="147" r="2"/>
  </g>
  <g stroke="chocolate" stroke-width="1">
    <line x1="576" y1="154" x2="59" y2="147"/>
    <circle cx="576" cy="154" r="2"/>
    <circle cx="59" cy="147" r="2"/>
  </g>
  <g stroke="black" stroke-width="1">
    <line x1="61" y1="61" x2="561" y2="61"/>
    <line x1="61" y1="61" x2="61" y2="561"/>
    <line x1="561" y1="561" x2="61" y2="561"/>
    <line x1="561" y1="561" x2="561" y2="61"/>
    <line x1="161" y1="58" x2="161" y2="64"/>
    <line x1="58" y1="161" x2="64" y2="161"/>
    <line x1="161" y1="558" x2="161" y2="564"/>
    <line x1="558" y1="161" x2="564" y2="161"/>
    <line x1="261" y1="58" x2="261" y2="64"/>
    <line x1="58" y1="261" x2="64" y2="261"/>
    <line x1="261" y1="558" x2="261" y2="564"/>
    <line x1="558" y1="261" x2="564" y2="261"/>
    <line x1="361" y1="58" x2="361" y2="64"/>
    <line x1="58" y1="361" x2="64" y2="361"/>
    <line x1="361" y1="558" x2="361" y2="564"/>
    <line x1="558" y1="361" x2="564" y2="361"/>
    <line x1="461" y1="58" x2="461" y2="64"/>
    <line x1="58" y1="461" x2="64" y2="461"/>
    <line x1="461" y1="558" x2="461" y2="564"/>
    <line x1="558" y1="461" x2="564" y2="461"/>
  </g>
  <g stroke="gray" stroke-width="1" stroke-dasharray="5,5">
    <line x1="161" y1="61" x2="161" y2="561"/>
    <line x1="61" y1="161" x2="561" y2="161"/>
    <line x1="261" y1="61" x2="261" y2="561"/>
    <line x1="61" y1="261" x2="561" y2="261"/>
    <line x1="361" y1="61" x2="361" y2="561"/>
    <line x1="61" y1="361" x2="561" y2="361"/>
    <line x1="461" y1="61" x2="461" y2="561"/>
    <line x1="61" y1="461" x2="561" y2="461"/>
  </g>
</svg>
