<?xml version="1.0" standalone="no"?>
<!DOCTYPE svg PUBLIC "-//W3C//DTD SVG 1.1//EN" 
  "http://www.w3.org/Graphics/SVG/1.1/DTD/svg11.dtd">
<svg width="510" height="510" version="1.1" id="toplevel"
    xmlns="http://www.w3.org/2000/svg"
    xmlns:xlink="http://www.w3.org/1999/xlink">
  <polygon points="106,371 393,199 431,80 413,63 263,5 189,5 158,72 171,71 79,362"
           fill="bisque"/>
  <g stroke="chocolate" stroke-width="1">
    <line x1="264" y1="276" x2="155" y2="124"/>
    <circle cx="264" cy="276" r="2"/>
    <circle cx="155" cy="124" r="2"/>
  </g>
  <g stroke="chocolate" stroke-width="1">
    <line x1="264" y1="276" x2="236" y2="220"/>
    <circle cx="264" cy="276" r="2"/>
    <circle cx="236" cy="220" r="2"/>
  </g>
  <g stroke="chocolate" stroke-width="1">
    <line x1="200" y1="29" x2="189" y2="5"/>
    <circle cx="200" cy="29" r="2"/>
    <circle cx="189" cy="5" r="2"/>
  </g>
  <g stroke="chocolate" stroke-width="1">
    <line x1="200" y1="29" x2="192" y2="5"/>
    <circle cx="200" cy="29" r="2"/>
    <circle cx="192" cy="5" r="2"/>
  </g>
  <g stroke="chocolate" stroke-width="1">
    <line x1="349" y1="225" x2="311" y2="184"/>
    <circle cx="349" cy="225" r="2"/>
    <circle cx="311" cy="184" r="2"/>
  </g>
  <g stroke="chocolate" stroke-width="1">
    <line x1="349" y1="225" x2="273" y2="9"/>
    <circle cx="349" cy="225" r="2"/>
    <circle cx="273" cy="9" r="2"/>
  </g>
  <g stroke="chocolate" stroke-width="1">
    <line x1="106" y1="371" x2="79" y2="362"/>
    <circle cx="106" cy="371" r="2"/>
    <circle cx="79" cy="362" r="2"/>
  </g>
  <g stroke="chocolate" stroke-width="1">
    <line x1="431" y1="80" x2="413" y2="63"/>
    <circle cx="431" cy="80" r="2"/>
    <circle cx="413" cy="63" r="2"/>
  </g>
  <g stroke="chocolate" stroke-width="1">
    <line x1="106" y1="371" x2="147" y2="152"/>
    <circle cx="106" cy="371" r="2"/>
    <circle cx="147" cy="152" r="2"/>
  </g>
  <g stroke="chocolate" stroke-width="1">
    <line x1="393" y1="199" x2="431" y2="80"/>
    <circle cx="393" cy="199" r="2"/>
    <circle cx="431" cy="80" r="2"/>
  </g>
  <g stroke="chocolate" stroke-width="1">
    <line x1="393" y1="199" x2="147" y2="152"/>
    <circle cx="393" cy="199" r="2"/>
    <circle cx="147" cy="152" r="2"/>
  </g>
  <g stroke="chocolate" stroke-width="1">
    <line x1="413" y1="63" x2="263" y2="5"/>
    <circle cx="413" cy="63" r="2"/>
    <circle cx="263" cy="5" r="2"/>
  </g>
  <g stroke="chocolate" stroke-width="1">
    <line x1="79" y1="362" x2="192" y2="5"/>
    <circle cx="79" cy="362" r="2"/>
    <circle cx="192" cy="5" r="2"/>
  </g>
  <g stroke="chocolate" stroke-width="1">
    <line x1="158" y1="72" x2="189" y2="5"/>
    <circle cx="158" cy="72" r="2"/>
    <circle cx="189" cy="5" r="2"/>
  </g>
  <g stroke="chocolate" stroke-width="1">
    <line x1="106" y1="371" x2="393" y2="199"/>
    <circle cx="106" cy="371" r="2"/>
    <circle cx="393" cy="199" r="2"/>
  </g>
  <g stroke="chocolate" stroke-width="1">
    <line x1="158" y1="72" x2="413" y2="63"/>
    <circle cx="158" cy="72" r="2"/>
    <circle cx="413" cy="63" r="2"/>
  </g>
  <g stroke="chocolate" stroke-width="1">
    <line x1="155" y1="124" x2="431" y2="80"/>
    <circle cx="155" cy="124" r="2"/>
    <circle cx="431" cy="80" r="2"/>
  </g>
  <g stroke="chocolate" stroke-width="1">
    <line x1="236" y1="220" x2="311" y2="184"/>
    <circle cx="236" cy="220" r="2"/>
    <circle cx="311" cy="184" r="2"/>
  </g>
  <g stroke="chocolate" stroke-width="1">
    <line x1="189" y1="5" x2="263" y2="5"/>
    <circle cx="189" cy="5" r="2"/>
    <circle cx="263" cy="5" r="2"/>
  </g>
  <g stroke="chocolate" stroke-width="1">
    <line x1="158" y1="72" x2="273" y2="9"/>
    <circle cx="158" cy="72" r="2"/>
    <circle cx="273" cy="9" r="2"/>
  </g>
  <g stroke="chocolate" stroke-width="1">
    <line x1="200" y1="29" x2="263" y2="5"/>
    <circle cx="200" cy="29" r="2"/>
    <circle cx="263" cy="5" r="2"/>
  </g>
  <g stroke="black" stroke-width="1">
    <line x1="5" y1="5" x2="505" y2="5"/>
    <line x1="5" y1="5" x2="5" y2="505"/>
    <line x1="505" y1="505" x2="5" y2="505"/>
    <line x1="505" y1="505" x2="505" y2="5"/>
    <line x1="105" y1="2" x2="105" y2="8"/>
    <line x1="2" y1="105" x2="8" y2="105"/>
    <line x1="105" y1="502" x2="105" y2="508"/>
    <line x1="502" y1="105" x2="508" y2="105"/>
    <line x1="205" y1="2" x2="205" y2="8"/>
    <line x1="2" y1="205" x2="8" y2="205"/>
    <line x1="205" y1="502" x2="205" y2="508"/>
    <line x1="502" y1="205" x2="508" y2="205"/>
    <line x1="305" y1="2" x2="305" y2="8"/>
    <line x1="2" y1="305" x2="8" y2="305"/>
    <line x1="305" y1="502" x2="305" y2="508"/>
    <line x1="502" y1="305" x2="508" y2="305"/>
    <line x1="405" y1="2" x2="405" y2="8"/>
    <line x1="2" y1="405" x2="8" y2="405"/>
    <line x1="405" y1="502" x2="405" y2="508"/>
    <line x1="502" y1="405" x2="508" y2="405"/>
  </g>
  <g stroke="gray" stroke-width="1" stroke-dasharray="5,5">
    <line x1="105" y1="5" x2="105" y2="505"/>
    <line x1="5" y1="105" x2="505" y2="105"/>
    <line x1="205" y1="5" x2="205" y2="505"/>
    <line x1="5" y1="205" x2="505" y2="205"/>
    <line x1="305" y1="5" x2="305" y2="505"/>
    <line x1="5" y1="305" x2="505" y2="305"/>
    <line x1="405" y1="5" x2="405" y2="505"/>
    <line x1="5" y1="405" x2="505" y2="405"/>
  </g>
</svg>
