<?xml version="1.0" standalone="no"?>
<!DOCTYPE svg PUBLIC "-//W3C//DTD SVG 1.1//EN" 
  "http://www.w3.org/Graphics/SVG/1.1/DTD/svg11.dtd">
<svg width="510" height="510" version="1.1" id="toplevel"
    xmlns="http://www.w3.org/2000/svg"
    xmlns:xlink="http://www.w3.org/1999/xlink">
  <polygon points="505,505 505,495 15,5 5,5" fill="bisque"/>
  <g stroke="chocolate" stroke-width="1">
    <line x1="15" y1="15" x2="15" y2="5"/>
    <circle cx="15" cy="15" r="2"/>
    <circle cx="15" cy="5" r="2"/>
  </g>
  <g stroke="chocolate" stroke-width="1">
    <line x1="25" y1="25" x2="25" y2="15"/>
    <circle cx="25" cy="25" r="2"/>
    <circle cx="25" cy="15" r="2"/>
  </g>
  <g stroke="chocolate" stroke-width="1">
    <line x1="35" y1="35" x2="35" y2="25"/>
    <circle cx="35" cy="35" r="2"/>
    <circle cx="35" cy="25" r="2"/>
  </g>
  <g stroke="chocolate" stroke-width="1">
    <line x1="45" y1="45" x2="45" y2="35"/>
    <circle cx="45" cy="45" r="2"/>
    <circle cx="45" cy="35" r="2"/>
  </g>
  <g stroke="chocolate" stroke-width="1">
    <line x1="55" y1="55" x2="55" y2="45"/>
    <circle cx="55" cy="55" r="2"/>
    <circle cx="55" cy="45" r="2"/>
  </g>
  <g stroke="chocolate" stroke-width="1">
    <line x1="65" y1="65" x2="65" y2="55"/>
    <circle cx="65" cy="65" r="2"/>
    <circle cx="65" cy="55" r="2"/>
  </g>
  <g stroke="chocolate" stroke-width="1">
    <line x1="75" y1="75" x2="75" y2="65"/>
    <circle cx="75" cy="75" r="2"/>
    <circle cx="75" cy="65" r="2"/>
  </g>
  <g stroke="chocolate" stroke-width="1">
    <line x1="85" y1="85" x2="85" y2="75"/>
    <circle cx="85" cy="85" r="2"/>
    <circle cx="85" cy="75" r="2"/>
  </g>
  <g stroke="chocolate" stroke-width="1">
    <line x1="95" y1="95" x2="95" y2="85"/>
    <circle cx="95" cy="95" r="2"/>
    <circle cx="95" cy="85" r="2"/>
  </g>
  <g stroke="chocolate" stroke-width="1">
    <line x1="105" y1="105" x2="105" y2="95"/>
    <circle cx="105" cy="105" r="2"/>
    <circle cx="105" cy="95" r="2"/>
  </g>
  <g stroke="chocolate" stroke-width="1">
    <line x1="115" y1="115" x2="115" y2="105"/>
    <circle cx="115" cy="115" r="2"/>
    <circle cx="115" cy="105" r="2"/>
  </g>
  <g stroke="chocolate" stroke-width="1">
    <line x1="125" y1="125" x2="125" y2="115"/>
    <circle cx="125" cy="125" r="2"/>
    <circle cx="125" cy="115" r="2"/>
  </g>
  <g stroke="chocolate" stroke-width="1">
    <line x1="135" y1="135" x2="135" y2="125"/>
    <circle cx="135" cy="135" r="2"/>
    <circle cx="135" cy="125" r="2"/>
  </g>
  <g stroke="chocolate" stroke-width="1">
    <line x1="145" y1="145" x2="145" y2="135"/>
    <circle cx="145" cy="145" r="2"/>
    <circle cx="145" cy="135" r="2"/>
  </g>
  <g stroke="chocolate" stroke-width="1">
    <line x1="155" y1="155" x2="155" y2="145"/>
    <circle cx="155" cy="155" r="2"/>
    <circle cx="155" cy="145" r="2"/>
  </g>
  <g stroke="chocolate" stroke-width="1">
    <line x1="165" y1="165" x2="165" y2="155"/>
    <circle cx="165" cy="165" r="2"/>
    <circle cx="165" cy="155" r="2"/>
  </g>
  <g stroke="chocolate" stroke-width="1">
    <line x1="175" y1="175" x2="175" y2="165"/>
    <circle cx="175" cy="175" r="2"/>
    <circle cx="175" cy="165" r="2"/>
  </g>
  <g stroke="chocolate" stroke-width="1">
    <line x1="185" y1="185" x2="185" y2="175"/>
    <circle cx="185" cy="185" r="2"/>
    <circle cx="185" cy="175" r="2"/>
  </g>
  <g stroke="chocolate" stroke-width="1">
    <line x1="195" y1="195" x2="195" y2="185"/>
    <circle cx="195" cy="195" r="2"/>
    <circle cx="195" cy="185" r="2"/>
  </g>
  <g stroke="chocolate" stroke-width="1">
    <line x1="205" y1="205" x2="205" y2="195"/>
    <circle cx="205" cy="205" r="2"/>
    <circle cx="205" cy="195" r="2"/>
  </g>
  <g stroke="chocolate" stroke-width="1">
    <line x1="215" y1="215" x2="215" y2="205"/>
    <circle cx="215" cy="215" r="2"/>
    <circle cx="215" cy="205" r="2"/>
  </g>
  <g stroke="chocolate" stroke-width="1">
    <line x1="225" y1="225" x2="225" y2="215"/>
    <circle cx="225" cy="225" r="2"/>
    <circle cx="225" cy="215" r="2"/>
  </g>
  <g stroke="chocolate" stroke-width="1">
    <line x1="235" y1="235" x2="235" y2="225"/>
    <circle cx="235" cy="235" r="2"/>
    <circle cx="235" cy="225" r="2"/>
  </g>
  <g stroke="chocolate" stroke-width="1">
    <line x1="245" y1="245" x2="245" y2="235"/>
    <circle cx="245" cy="245" r="2"/>
    <circle cx="245" cy="235" r="2"/>
  </g>
  <g stroke="chocolate" stroke-width="1">
    <line x1="255" y1="255" x2="255" y2="245"/>
    <circle cx="255" cy="255" r="2"/>
    <circle cx="255" cy="245" r="2"/>
  </g>
  <g stroke="chocolate" stroke-width="1">
    <line x1="265" y1="265" x2="265" y2="255"/>
    <circle cx="265" cy="265" r="2"/>
    <circle cx="265" cy="255" r="2"/>
  </g>
  <g stroke="chocolate" stroke-width="1">
    <line x1="275" y1="275" x2="275" y2="265"/>
    <circle cx="275" cy="275" r="2"/>
    <circle cx="275" cy="265" r="2"/>
  </g>
  <g stroke="chocolate" stroke-width="1">
    <line x1="285" y1="285" x2="285" y2="275"/>
    <circle cx="285" cy="285" r="2"/>
    <circle cx="285" cy="275" r="2"/>
  </g>
  <g stroke="chocolate" stroke-width="1">
    <line x1="295" y1="295" x2="295" y2="285"/>
    <circle cx="295" cy="295" r="2"/>
    <circle cx="295" cy="285" r="2"/>
  </g>
  <g stroke="chocolate" stroke-width="1">
    <line x1="305" y1="305" x2="305" y2="295"/>
    <circle cx="305" cy="305" r="2"/>
    <circle cx="305" cy="295" r="2"/>
  </g>
  <g stroke="chocolate" stroke-width="1">
    <line x1="315" y1="315" x2="315" y2="305"/>
    <circle cx="315" cy="315" r="2"/>
    <circle cx="315" cy="305" r="2"/>
  </g>
  <g stroke="chocolate" stroke-width="1">
    <line x1="325" y1="325" x2="325" y2="315"/>
    <circle cx="325" cy="325" r="2"/>
    <circle cx="325" cy="315" r="2"/>
  </g>
  <g stroke="chocolate" stroke-width="1">
    <line x1="335" y1="335" x2="335" y2="325"/>
    <circle cx="335" cy="335" r="2"/>
    <circle cx="335" cy="325" r="2"/>
  </g>
  <g stroke="chocolate" stroke-width="1">
    <line x1="345" y1="345" x2="345" y2="335"/>
    <circle cx="345" cy="345" r="2"/>
    <circle cx="345" cy="335" r="2"/>
  </g>
  <g stroke="chocolate" stroke-width="1">
    <line x1="355" y1="355" x2="355" y2="345"/>
    <circle cx="355" cy="355" r="2"/>
    <circle cx="355" cy="345" r="2"/>
  </g>
  <g stroke="chocolate" stroke-width="1">
    <line x1="365" y1="365" x2="365" y2="355"/>
    <circle cx="365" cy="365" r="2"/>
    <circle cx="365" cy="355" r="2"/>
  </g>
  <g stroke="chocolate" stroke-width="1">
    <line x1="375" y1="375" x2="375" y2="365"/>
    <circle cx="375" cy="375" r="2"/>
    <circle cx="375" cy="365" r="2"/>
  </g>
  <g stroke="chocolate" stroke-width="1">
    <line x1="385" y1="385" x2="385" y2="375"/>
    <circle cx="385" cy="385" r="2"/>
    <circle cx="385" cy="375" r="2"/>
  </g>
  <g stroke="chocolate" stroke-width="1">
    <line x1="395" y1="395" x2="395" y2="385"/>
    <circle cx="395" cy="395" r="2"/>
    <circle cx="395" cy="385" r="2"/>
  </g>
  <g stroke="chocolate" stroke-width="1">
    <line x1="405" y1="405" x2="405" y2="395"/>
    <circle cx="405" cy="405" r="2"/>
    <circle cx="405" cy="395" r="2"/>
  </g>
  <g stroke="chocolate" stroke-width="1">
    <line x1="415" y1="415" x2="415" y2="405"/>
    <circle cx="415" cy="415" r="2"/>
    <circle cx="415" cy="405" r="2"/>
  </g>
  <g stroke="chocolate" stroke-width="1">
    <line x1="425" y1="425" x2="425" y2="415"/>
    <circle cx="425" cy="425" r="2"/>
    <circle cx="425" cy="415" r="2"/>
  </g>
  <g stroke="chocolate" stroke-width="1">
    <line x1="435" y1="435" x2="435" y2="425"/>
    <circle cx="435" cy="435" r="2"/>
    <circle cx="435" cy="425" r="2"/>
  </g>
  <g stroke="chocolate" stroke-width="1">
    <line x1="445" y1="445" x2="445" y2="435"/>
    <circle cx="445" cy="445" r="2"/>
    <circle cx="445" cy="435" r="2"/>
  </g>
  <g stroke="chocolate" stroke-width="1">
    <line x1="455" y1="455" x2="455" y2="445"/>
    <circle cx="455" cy="455" r="2"/>
    <circle cx="455" cy="445" r="2"/>
  </g>
  <g stroke="chocolate" stroke-width="1">
    <line x1="465" y1="465" x2="465" y2="455"/>
    <circle cx="465" cy="465" r="2"/>
    <circle cx="465" cy="455" r="2"/>
  </g>
  <g stroke="chocolate" stroke-width="1">
    <line x1="475" y1="475" x2="475" y2="465"/>
    <circle cx="475" cy="475" r="2"/>
    <circle cx="475" cy="465" r="2"/>
  </g>
  <g stroke="chocolate" stroke-width="1">
    <line x1="485" y1="485" x2="485" y2="475"/>
    <circle cx="485" cy="485" r="2"/>
    <circle cx="485" cy="475" r="2"/>
  </g>
  <g stroke="chocolate" stroke-width="1">
    <line x1="495" y1="495" x2="495" y2="485"/>
    <circle cx="495" cy="495" r="2"/>
    <circle cx="495" cy="485" r="2"/>
  </g>
  <g stroke="chocolate" stroke-width="1">
    <line x1="505" y1="505" x2="505" y2="495"/>
    <circle cx="505" cy="505" r="2"/>
    <circle cx="505" cy="495" r="2"/>
  </g>
  <g stroke="chocolate" stroke-width="1">
    <line x1="495" y1="495" x2="505" y2="495"/>
    <circle cx="495" cy="495" r="2"/>
    <circle cx="505" cy="495" r="2"/>
  </g>
  <g stroke="chocolate" stroke-width="1">
    <line x1="485" y1="485" x2="495" y2="485"/>
    <circle cx="485" cy="485" r="2"/>
    <circle cx="495" cy="485" r="2"/>
  </g>
  <g stroke="chocolate" stroke-width="1">
    <line x1="475" y1="475" x2="485" y2="475"/>
    <circle cx="475" cy="475" r="2"/>
    <circle cx="485" cy="475" r="2"/>
  </g>
  <g stroke="chocolate" stroke-width="1">
    <line x1="465" y1="465" x2="475" y2="465"/>
    <circle cx="465" cy="465" r="2"/>
    <circle cx="475" cy="465" r="2"/>
  </g>
  <g stroke="chocolate" stroke-width="1">
    <line x1="455" y1="455" x2="465" y2="455"/>
    <circle cx="455" cy="455" r="2"/>
    <circle cx="465" cy="455" r="2"/>
  </g>
  <g stroke="chocolate" stroke-width="1">
    <line x1="445" y1="445" x2="455" y2="445"/>
    <circle cx="445" cy="445" r="2"/>
    <circle cx="455" cy="445" r="2"/>
  </g>
  <g stroke="chocolate" stroke-width="1">
    <line x1="435" y1="435" x2="445" y2="435"/>
    <circle cx="435" cy="435" r="2"/>
    <circle cx="445" cy="435" r="2"/>
  </g>
  <g stroke="chocolate" stroke-width="1">
    <line x1="425" y1="425" x2="435" y2="425"/>
    <circle cx="425" cy="425" r="2"/>
    <circle cx="435" cy="425" r="2"/>
  </g>
  <g stroke="chocolate" stroke-width="1">
    <line x1="415" y1="415" x2="425" y2="415"/>
    <circle cx="415" cy="415" r="2"/>
    <circle cx="425" cy="415" r="2"/>
  </g>
  <g stroke="chocolate" stroke-width="1">
    <line x1="405" y1="405" x2="415" y2="405"/>
    <circle cx="405" cy="405" r="2"/>
    <circle cx="415" cy="405" r="2"/>
  </g>
  <g stroke="chocolate" stroke-width="1">
    <line x1="395" y1="395" x2="405" y2="395"/>
    <circle cx="395" cy="395" r="2"/>
    <circle cx="405" cy="395" r="2"/>
  </g>
  <g stroke="chocolate" stroke-width="1">
    <line x1="385" y1="385" x2="395" y2="385"/>
    <circle cx="385" cy="385" r="2"/>
    <circle cx="395" cy="385" r="2"/>
  </g>
  <g stroke="chocolate" stroke-width="1">
    <line x1="375" y1="375" x2="385" y2="375"/>
    <circle cx="375" cy="375" r="2"/>
    <circle cx="385" cy="375" r="2"/>
  </g>
  <g stroke="chocolate" stroke-width="1">
    <line x1="365" y1="365" x2="375" y2="365"/>
    <circle cx="365" cy="365" r="2"/>
    <circle cx="375" cy="365" r="2"/>
  </g>
  <g stroke="chocolate" stroke-width="1">
    <line x1="355" y1="355" x2="365" y2="355"/>
    <circle cx="355" cy="355" r="2"/>
    <circle cx="365" cy="355" r="2"/>
  </g>
  <g stroke="chocolate" stroke-width="1">
    <line x1="345" y1="345" x2="355" y2="345"/>
    <circle cx="345" cy="345" r="2"/>
    <circle cx="355" cy="345" r="2"/>
  </g>
  <g stroke="chocolate" stroke-width="1">
    <line x1="335" y1="335" x2="345" y2="335"/>
    <circle cx="335" cy="335" r="2"/>
    <circle cx="345" cy="335" r="2"/>
  </g>
  <g stroke="chocolate" stroke-width="1">
    <line x1="325" y1="325" x2="335" y2="325"/>
    <circle cx="325" cy="325" r="2"/>
    <circle cx="335" cy="325" r="2"/>
  </g>
  <g stroke="chocolate" stroke-width="1">
    <line x1="315" y1="315" x2="325" y2="315"/>
    <circle cx="315" cy="315" r="2"/>
    <circle cx="325" cy="315" r="2"/>
  </g>
  <g stroke="chocolate" stroke-width="1">
    <line x1="305" y1="305" x2="315" y2="305"/>
    <circle cx="305" cy="305" r="2"/>
    <circle cx="315" cy="305" r="2"/>
  </g>
  <g stroke="chocolate" stroke-width="1">
    <line x1="295" y1="295" x2="305" y2="295"/>
    <circle cx="295" cy="295" r="2"/>
    <circle cx="305" cy="295" r="2"/>
  </g>
  <g stroke="chocolate" stroke-width="1">
    <line x1="285" y1="285" x2="295" y2="285"/>
    <circle cx="285" cy="285" r="2"/>
    <circle cx="295" cy="285" r="2"/>
  </g>
  <g stroke="chocolate" stroke-width="1">
    <line x1="275" y1="275" x2="285" y2="275"/>
    <circle cx="275" cy="275" r="2"/>
    <circle cx="285" cy="275" r="2"/>
  </g>
  <g stroke="chocolate" stroke-width="1">
    <line x1="265" y1="265" x2="275" y2="265"/>
    <circle cx="265" cy="265" r="2"/>
    <circle cx="275" cy="265" r="2"/>
  </g>
  <g stroke="chocolate" stroke-width="1">
    <line x1="255" y1="255" x2="265" y2="255"/>
    <circle cx="255" cy="255" r="2"/>
    <circle cx="265" cy="255" r="2"/>
  </g>
  <g stroke="chocolate" stroke-width="1">
    <line x1="505" y1="505" x2="5" y2="5"/>
    <circle cx="505" cy="505" r="2"/>
    <circle cx="5" cy="5" r="2"/>
  </g>
  <g stroke="chocolate" stroke-width="1">
    <line x1="505" y1="495" x2="15" y2="5"/>
    <circle cx="505" cy="495" r="2"/>
    <circle cx="15" cy="5" r="2"/>
  </g>
  <g stroke="chocolate" stroke-width="1">
    <line x1="245" y1="245" x2="255" y2="245"/>
    <circle cx="245" cy="245" r="2"/>
    <circle cx="255" cy="245" r="2"/>
  </g>
  <g stroke="chocolate" stroke-width="1">
    <line x1="235" y1="235" x2="245" y2="235"/>
    <circle cx="235" cy="235" r="2"/>
    <circle cx="245" cy="235" r="2"/>
  </g>
  <g stroke="chocolate" stroke-width="1">
    <line x1="225" y1="225" x2="235" y2="225"/>
    <circle cx="225" cy="225" r="2"/>
    <circle cx="235" cy="225" r="2"/>
  </g>
  <g stroke="chocolate" stroke-width="1">
    <line x1="215" y1="215" x2="225" y2="215"/>
    <circle cx="215" cy="215" r="2"/>
    <circle cx="225" cy="215" r="2"/>
  </g>
  <g stroke="chocolate" stroke-width="1">
    <line x1="205" y1="205" x2="215" y2="205"/>
    <circle cx="205" cy="205" r="2"/>
    <circle cx="215" cy="205" r="2"/>
  </g>
  <g stroke="chocolate" stroke-width="1">
    <line x1="195" y1="195" x2="205" y2="195"/>
    <circle cx="195" cy="195" r="2"/>
    <circle cx="205" cy="195" r="2"/>
  </g>
  <g stroke="chocolate" stroke-width="1">
    <line x1="185" y1="185" x2="195" y2="185"/>
    <circle cx="185" cy="185" r="2"/>
    <circle cx="195" cy="185" r="2"/>
  </g>
  <g stroke="chocolate" stroke-width="1">
    <line x1="175" y1="175" x2="185" y2="175"/>
    <circle cx="175" cy="175" r="2"/>
    <circle cx="185" cy="175" r="2"/>
  </g>
  <g stroke="chocolate" stroke-width="1">
    <line x1="165" y1="165" x2="175" y2="165"/>
    <circle cx="165" cy="165" r="2"/>
    <circle cx="175" cy="165" r="2"/>
  </g>
  <g stroke="chocolate" stroke-width="1">
    <line x1="155" y1="155" x2="165" y2="155"/>
    <circle cx="155" cy="155" r="2"/>
    <circle cx="165" cy="155" r="2"/>
  </g>
  <g stroke="chocolate" stroke-width="1">
    <line x1="145" y1="145" x2="155" y2="145"/>
    <circle cx="145" cy="145" r="2"/>
    <circle cx="155" cy="145" r="2"/>
  </g>
  <g stroke="chocolate" stroke-width="1">
    <line x1="135" y1="135" x2="145" y2="135"/>
    <circle cx="135" cy="135" r="2"/>
    <circle cx="145" cy="135" r="2"/>
  </g>
  <g stroke="chocolate" stroke-width="1">
    <line x1="125" y1="125" x2="135" y2="125"/>
    <circle cx="125" cy="125" r="2"/>
    <circle cx="135" cy="125" r="2"/>
  </g>
  <g stroke="chocolate" stroke-width="1">
    <line x1="115" y1="115" x2="125" y2="115"/>
    <circle cx="115" cy="115" r="2"/>
    <circle cx="125" cy="115" r="2"/>
  </g>
  <g stroke="chocolate" stroke-width="1">
    <line x1="105" y1="105" x2="115" y2="105"/>
    <circle cx="105" cy="105" r="2"/>
    <circle cx="115" cy="105" r="2"/>
  </g>
  <g stroke="chocolate" stroke-width="1">
    <line x1="95" y1="95" x2="105" y2="95"/>
    <circle cx="95" cy="95" r="2"/>
    <circle cx="105" cy="95" r="2"/>
  </g>
  <g stroke="chocolate" stroke-width="1">
    <line x1="85" y1="85" x2="95" y2="85"/>
    <circle cx="85" cy="85" r="2"/>
    <circle cx="95" cy="85" r="2"/>
  </g>
  <g stroke="chocolate" stroke-width="1">
    <line x1="75" y1="75" x2="85" y2="75"/>
    <circle cx="75" cy="75" r="2"/>
    <circle cx="85" cy="75" r="2"/>
  </g>
  <g stroke="chocolate" stroke-width="1">
    <line x1="65" y1="65" x2="75" y2="65"/>
    <circle cx="65" cy="65" r="2"/>
    <circle cx="75" cy="65" r="2"/>
  </g>
  <g stroke="chocolate" stroke-width="1">
    <line x1="55" y1="55" x2="65" y2="55"/>
    <circle cx="55" cy="55" r="2"/>
    <circle cx="65" cy="55" r="2"/>
  </g>
  <g stroke="chocolate" stroke-width="1">
    <line x1="45" y1="45" x2="55" y2="45"/>
    <circle cx="45" cy="45" r="2"/>
    <circle cx="55" cy="45" r="2"/>
  </g>
  <g stroke="chocolate" stroke-width="1">
    <line x1="35" y1="35" x2="45" y2="35"/>
    <circle cx="35" cy="35" r="2"/>
    <circle cx="45" cy="35" r="2"/>
  </g>
  <g stroke="chocolate" stroke-width="1">
    <line x1="25" y1="25" x2="35" y2="25"/>
    <circle cx="25" cy="25" r="2"/>
    <circle cx="35" cy="25" r="2"/>
  </g>
  <g stroke="chocolate" stroke-width="1">
    <line x1="15" y1="15" x2="25" y2="15"/>
    <circle cx="15" cy="15" r="2"/>
    <circle cx="25" cy="15" r="2"/>
  </g>
  <g stroke="chocolate" stroke-width="1">
    <line x1="5" y1="5" x2="15" y2="5"/>
    <circle cx="5" cy="5" r="2"/>
    <circle cx="15" cy="5" r="2"/>
  </g>
  <g stroke="black" stroke-width="1">
    <line x1="5" y1="5" x2="505" y2="5"/>
    <line x1="5" y1="5" x2="5" y2="505"/>
    <line x1="505" y1="505" x2="5" y2="505"/>
    <line x1="505" y1="505" x2="505" y2="5"/>
    <line x1="105" y1="2" x2="105" y2="8"/>
    <line x1="2" y1="105" x2="8" y2="105"/>
    <line x1="105" y1="502" x2="105" y2="508"/>
    <line x1="502" y1="105" x2="508" y2="105"/>
    <line x1="205" y1="2" x2="205" y2="8"/>
    <line x1="2" y1="205" x2="8" y2="205"/>
    <line x1="205" y1="502" x2="205" y2="508"/>
    <line x1="502" y1="205" x2="508" y2="205"/>
    <line x1="305" y1="2" x2="305" y2="8"/>
    <line x1="2" y1="305" x2="8" y2="305"/>
    <line x1="305" y1="502" x2="305" y2="508"/>
    <line x1="502" y1="305" x2="508" y2="305"/>
    <line x1="405" y1="2" x2="405" y2="8"/>
    <line x1="2" y1="405" x2="8" y2="405"/>
    <line x1="405" y1="502" x2="405" y2="508"/>
    <line x1="502" y1="405" x2="508" y2="405"/>
  </g>
  <g stroke="gray" stroke-width="1" stroke-dasharray="5,5">
    <line x1="105" y1="5" x2="105" y2="505"/>
    <line x1="5" y1="105" x2="505" y2="105"/>
    <line x1="205" y1="5" x2="205" y2="505"/>
    <line x1="5" y1="205" x2="505" y2="205"/>
    <line x1="305" y1="5" x2="305" y2="505"/>
    <line x1="5" y1="305" x2="505" y2="305"/>
    <line x1="405" y1="5" x2="405" y2="505"/>
    <line x1="5" y1="405" x2="505" y2="405"/>
  </g>
</svg>
