<?xml version="1.0" standalone="no"?>
<!DOCTYPE svg PUBLIC "-//W3C//DTD SVG 1.1//EN" 
  "http://www.w3.org/Graphics/SVG/1.1/DTD/svg11.dtd">
<svg width="510" height="510" version="1.1" id="toplevel"
    xmlns="http://www.w3.org/2000/svg"
    xmlns:xlink="http://www.w3.org/1999/xlink">
  <polygon points="167,396 315,396 328,301 334,294 329,291 343,188 242,114 193,181 191,174 167,181"
           fill="bisque"/>
  <g stroke="chocolate" stroke-width="1">
    <line x1="320" y1="311" x2="334" y2="294"/>
    <circle cx="320" cy="311" r="2"/>
    <circle cx="334" cy="294" r="2"/>
  </g>
  <g stroke="chocolate" stroke-width="1">
    <line x1="315" y1="396" x2="343" y2="188"/>
    <circle cx="315" cy="396" r="2"/>
    <circle cx="343" cy="188" r="2"/>
  </g>
  <g stroke="chocolate" stroke-width="1">
    <line x1="167" y1="217" x2="242" y2="114"/>
    <circle cx="167" cy="217" r="2"/>
    <circle cx="242" cy="114" r="2"/>
  </g>
  <g stroke="chocolate" stroke-width="1">
    <line x1="167" y1="396" x2="167" y2="181"/>
    <circle cx="167" cy="396" r="2"/>
    <circle cx="167" cy="181" r="2"/>
  </g>
  <g stroke="chocolate" stroke-width="1">
    <line x1="292" y1="389" x2="292" y2="229"/>
    <circle cx="292" cy="389" r="2"/>
    <circle cx="292" cy="229" r="2"/>
  </g>
  <g stroke="chocolate" stroke-width="1">
    <line x1="236" y1="334" x2="191" y2="174"/>
    <circle cx="236" cy="334" r="2"/>
    <circle cx="191" cy="174" r="2"/>
  </g>
  <g stroke="chocolate" stroke-width="1">
    <line x1="271" y1="396" x2="292" y2="389"/>
    <circle cx="271" cy="396" r="2"/>
    <circle cx="292" cy="389" r="2"/>
  </g>
  <g stroke="chocolate" stroke-width="1">
    <line x1="167" y1="203" x2="194" y2="184"/>
    <circle cx="167" cy="203" r="2"/>
    <circle cx="194" cy="184" r="2"/>
  </g>
  <g stroke="chocolate" stroke-width="1">
    <line x1="167" y1="362" x2="327" y2="310"/>
    <circle cx="167" cy="362" r="2"/>
    <circle cx="327" cy="310" r="2"/>
  </g>
  <g stroke="chocolate" stroke-width="1">
    <line x1="167" y1="354" x2="320" y2="311"/>
    <circle cx="167" cy="354" r="2"/>
    <circle cx="320" cy="311" r="2"/>
  </g>
  <g stroke="chocolate" stroke-width="1">
    <line x1="167" y1="254" x2="343" y2="188"/>
    <circle cx="167" cy="254" r="2"/>
    <circle cx="343" cy="188" r="2"/>
  </g>
  <g stroke="chocolate" stroke-width="1">
    <line x1="167" y1="396" x2="315" y2="396"/>
    <circle cx="167" cy="396" r="2"/>
    <circle cx="315" cy="396" r="2"/>
  </g>
  <g stroke="chocolate" stroke-width="1">
    <line x1="292" y1="389" x2="167" y2="217"/>
    <circle cx="292" cy="389" r="2"/>
    <circle cx="167" cy="217" r="2"/>
  </g>
  <g stroke="chocolate" stroke-width="1">
    <line x1="167" y1="181" x2="191" y2="174"/>
    <circle cx="167" cy="181" r="2"/>
    <circle cx="191" cy="174" r="2"/>
  </g>
  <g stroke="chocolate" stroke-width="1">
    <line x1="271" y1="396" x2="167" y2="362"/>
    <circle cx="271" cy="396" r="2"/>
    <circle cx="167" cy="362" r="2"/>
  </g>
  <g stroke="chocolate" stroke-width="1">
    <line x1="315" y1="396" x2="167" y2="354"/>
    <circle cx="315" cy="396" r="2"/>
    <circle cx="167" cy="354" r="2"/>
  </g>
  <g stroke="chocolate" stroke-width="1">
    <line x1="167" y1="229" x2="338" y2="229"/>
    <circle cx="167" cy="229" r="2"/>
    <circle cx="338" cy="229" r="2"/>
  </g>
  <g stroke="chocolate" stroke-width="1">
    <line x1="334" y1="294" x2="194" y2="184"/>
    <circle cx="334" cy="294" r="2"/>
    <circle cx="194" cy="184" r="2"/>
  </g>
  <g stroke="chocolate" stroke-width="1">
    <line x1="327" y1="310" x2="167" y2="203"/>
    <circle cx="327" cy="310" r="2"/>
    <circle cx="167" cy="203" r="2"/>
  </g>
  <g stroke="chocolate" stroke-width="1">
    <line x1="320" y1="311" x2="167" y2="254"/>
    <circle cx="320" cy="311" r="2"/>
    <circle cx="167" cy="254" r="2"/>
  </g>
  <g stroke="chocolate" stroke-width="1">
    <line x1="338" y1="229" x2="167" y2="181"/>
    <circle cx="338" cy="229" r="2"/>
    <circle cx="167" cy="181" r="2"/>
  </g>
  <g stroke="chocolate" stroke-width="1">
    <line x1="343" y1="188" x2="242" y2="114"/>
    <circle cx="343" cy="188" r="2"/>
    <circle cx="242" cy="114" r="2"/>
  </g>
  <g stroke="black" stroke-width="1">
    <line x1="5" y1="5" x2="505" y2="5"/>
    <line x1="5" y1="5" x2="5" y2="505"/>
    <line x1="505" y1="505" x2="5" y2="505"/>
    <line x1="505" y1="505" x2="505" y2="5"/>
    <line x1="105" y1="2" x2="105" y2="8"/>
    <line x1="2" y1="105" x2="8" y2="105"/>
    <line x1="105" y1="502" x2="105" y2="508"/>
    <line x1="502" y1="105" x2="508" y2="105"/>
    <line x1="205" y1="2" x2="205" y2="8"/>
    <line x1="2" y1="205" x2="8" y2="205"/>
    <line x1="205" y1="502" x2="205" y2="508"/>
    <line x1="502" y1="205" x2="508" y2="205"/>
    <line x1="305" y1="2" x2="305" y2="8"/>
    <line x1="2" y1="305" x2="8" y2="305"/>
    <line x1="305" y1="502" x2="305" y2="508"/>
    <line x1="502" y1="305" x2="508" y2="305"/>
    <line x1="405" y1="2" x2="405" y2="8"/>
    <line x1="2" y1="405" x2="8" y2="405"/>
    <line x1="405" y1="502" x2="405" y2="508"/>
    <line x1="502" y1="405" x2="508" y2="405"/>
  </g>
  <g stroke="gray" stroke-width="1" stroke-dasharray="5,5">
    <line x1="105" y1="5" x2="105" y2="505"/>
    <line x1="5" y1="105" x2="505" y2="105"/>
    <line x1="205" y1="5" x2="205" y2="505"/>
    <line x1="5" y1="205" x2="505" y2="205"/>
    <line x1="305" y1="5" x2="305" y2="505"/>
    <line x1="5" y1="305" x2="505" y2="305"/>
    <line x1="405" y1="5" x2="405" y2="505"/>
    <line x1="5" y1="405" x2="505" y2="405"/>
  </g>
</svg>
