<?xml version="1.0" standalone="no"?>
<!DOCTYPE svg PUBLIC "-//W3C//DTD SVG 1.1//EN" 
  "http://www.w3.org/Graphics/SVG/1.1/DTD/svg11.dtd">
<svg width="710" height="710" version="1.1" id="toplevel"
    xmlns="http://www.w3.org/2000/svg"
    xmlns:xlink="http://www.w3.org/1999/xlink">
  <polygon points="331,530 431,454 606,478 705,402 530,379 379,180 180,331 5,308 80,407 256,431"
           fill="bisque"/>
  <g stroke="chocolate" stroke-width="1">
    <line x1="606" y1="478" x2="705" y2="402"/>
    <circle cx="606" cy="478" r="2"/>
    <circle cx="705" cy="402" r="2"/>
  </g>
  <g stroke="chocolate" stroke-width="1">
    <line x1="331" y1="530" x2="530" y2="379"/>
    <circle cx="331" cy="530" r="2"/>
    <circle cx="530" cy="379" r="2"/>
  </g>
  <g stroke="chocolate" stroke-width="1">
    <line x1="80" y1="407" x2="379" y2="180"/>
    <circle cx="80" cy="407" r="2"/>
    <circle cx="379" cy="180" r="2"/>
  </g>
  <g stroke="chocolate" stroke-width="1">
    <line x1="80" y1="407" x2="5" y2="308"/>
    <circle cx="80" cy="407" r="2"/>
    <circle cx="5" cy="308" r="2"/>
  </g>
  <g stroke="chocolate" stroke-width="1">
    <line x1="331" y1="530" x2="180" y2="331"/>
    <circle cx="331" cy="530" r="2"/>
    <circle cx="180" cy="331" r="2"/>
  </g>
  <g stroke="chocolate" stroke-width="1">
    <line x1="606" y1="478" x2="379" y2="180"/>
    <circle cx="606" cy="478" r="2"/>
    <circle cx="379" cy="180" r="2"/>
  </g>
  <g stroke="chocolate" stroke-width="1">
    <line x1="606" y1="478" x2="80" y2="407"/>
    <circle cx="606" cy="478" r="2"/>
    <circle cx="80" cy="407" r="2"/>
  </g>
  <g stroke="chocolate" stroke-width="1">
    <line x1="705" y1="402" x2="5" y2="308"/>
    <circle cx="705" cy="402" r="2"/>
    <circle cx="5" cy="308" r="2"/>
  </g>
  <g stroke="black" stroke-width="1">
    <line x1="105" y1="105" x2="605" y2="105"/>
    <line x1="105" y1="105" x2="105" y2="605"/>
    <line x1="605" y1="605" x2="105" y2="605"/>
    <line x1="605" y1="605" x2="605" y2="105"/>
    <line x1="205" y1="102" x2="205" y2="108"/>
    <line x1="102" y1="205" x2="108" y2="205"/>
    <line x1="205" y1="602" x2="205" y2="608"/>
    <line x1="602" y1="205" x2="608" y2="205"/>
    <line x1="305" y1="102" x2="305" y2="108"/>
    <line x1="102" y1="305" x2="108" y2="305"/>
    <line x1="305" y1="602" x2="305" y2="608"/>
    <line x1="602" y1="305" x2="608" y2="305"/>
    <line x1="405" y1="102" x2="405" y2="108"/>
    <line x1="102" y1="405" x2="108" y2="405"/>
    <line x1="405" y1="602" x2="405" y2="608"/>
    <line x1="602" y1="405" x2="608" y2="405"/>
    <line x1="505" y1="102" x2="505" y2="108"/>
    <line x1="102" y1="505" x2="108" y2="505"/>
    <line x1="505" y1="602" x2="505" y2="608"/>
    <line x1="602" y1="505" x2="608" y2="505"/>
  </g>
  <g stroke="gray" stroke-width="1" stroke-dasharray="5,5">
    <line x1="205" y1="105" x2="205" y2="605"/>
    <line x1="105" y1="205" x2="605" y2="205"/>
    <line x1="305" y1="105" x2="305" y2="605"/>
    <line x1="105" y1="305" x2="605" y2="305"/>
    <line x1="405" y1="105" x2="405" y2="605"/>
    <line x1="105" y1="405" x2="605" y2="405"/>
    <line x1="505" y1="105" x2="505" y2="605"/>
    <line x1="105" y1="505" x2="605" y2="505"/>
  </g>
</svg>
