<?xml version="1.0" standalone="no"?>
<!DOCTYPE svg PUBLIC "-//W3C//DTD SVG 1.1//EN" 
  "http://www.w3.org/Graphics/SVG/1.1/DTD/svg11.dtd">
<svg width="608" height="608" version="1.1" id="toplevel"
    xmlns="http://www.w3.org/2000/svg"
    xmlns:xlink="http://www.w3.org/1999/xlink">
  <polygon points="238,421 421,237 521,237 545,214 549,215 571,237 597,231 603,219 571,187 61,187 5,283"
           fill="bisque"/>
  <g stroke="chocolate" stroke-width="1">
    <line x1="238" y1="421" x2="5" y2="283"/>
    <circle cx="238" cy="421" r="2"/>
    <circle cx="5" cy="283" r="2"/>
  </g>
  <g stroke="chocolate" stroke-width="1">
    <line x1="251" y1="408" x2="220" y2="389"/>
    <circle cx="251" cy="408" r="2"/>
    <circle cx="220" cy="389" r="2"/>
  </g>
  <g stroke="chocolate" stroke-width="1">
    <line x1="155" y1="199" x2="141" y2="187"/>
    <circle cx="155" cy="199" r="2"/>
    <circle cx="141" cy="187" r="2"/>
  </g>
  <g stroke="chocolate" stroke-width="1">
    <line x1="184" y1="237" x2="176" y2="227"/>
    <circle cx="184" cy="237" r="2"/>
    <circle cx="176" cy="227" r="2"/>
  </g>
  <g stroke="chocolate" stroke-width="1">
    <line x1="281" y1="267" x2="221" y2="187"/>
    <circle cx="281" cy="267" r="2"/>
    <circle cx="221" cy="187" r="2"/>
  </g>
  <g stroke="chocolate" stroke-width="1">
    <line x1="86" y1="231" x2="61" y2="187"/>
    <circle cx="86" cy="231" r="2"/>
    <circle cx="61" cy="187" r="2"/>
  </g>
  <g stroke="chocolate" stroke-width="1">
    <line x1="455" y1="237" x2="388" y2="187"/>
    <circle cx="455" cy="237" r="2"/>
    <circle cx="388" cy="187" r="2"/>
  </g>
  <g stroke="chocolate" stroke-width="1">
    <line x1="238" y1="421" x2="220" y2="389"/>
    <circle cx="238" cy="421" r="2"/>
    <circle cx="220" cy="389" r="2"/>
  </g>
  <g stroke="chocolate" stroke-width="1">
    <line x1="251" y1="408" x2="178" y2="284"/>
    <circle cx="251" cy="408" r="2"/>
    <circle cx="178" cy="284" r="2"/>
  </g>
  <g stroke="chocolate" stroke-width="1">
    <line x1="471" y1="237" x2="421" y2="187"/>
    <circle cx="471" cy="237" r="2"/>
    <circle cx="421" cy="187" r="2"/>
  </g>
  <g stroke="chocolate" stroke-width="1">
    <line x1="471" y1="237" x2="371" y2="187"/>
    <circle cx="471" cy="237" r="2"/>
    <circle cx="371" cy="187" r="2"/>
  </g>
  <g stroke="chocolate" stroke-width="1">
    <line x1="521" y1="237" x2="471" y2="187"/>
    <circle cx="521" cy="237" r="2"/>
    <circle cx="471" cy="187" r="2"/>
  </g>
  <g stroke="chocolate" stroke-width="1">
    <line x1="561" y1="217" x2="521" y2="187"/>
    <circle cx="561" cy="217" r="2"/>
    <circle cx="521" cy="187" r="2"/>
  </g>
  <g stroke="chocolate" stroke-width="1">
    <line x1="597" y1="231" x2="577" y2="219"/>
    <circle cx="597" cy="231" r="2"/>
    <circle cx="577" cy="219" r="2"/>
  </g>
  <g stroke="chocolate" stroke-width="1">
    <line x1="571" y1="237" x2="521" y2="187"/>
    <circle cx="571" cy="237" r="2"/>
    <circle cx="521" cy="187" r="2"/>
  </g>
  <g stroke="chocolate" stroke-width="1">
    <line x1="353" y1="237" x2="194" y2="187"/>
    <circle cx="353" cy="237" r="2"/>
    <circle cx="194" cy="187" r="2"/>
  </g>
  <g stroke="chocolate" stroke-width="1">
    <line x1="493" y1="209" x2="441" y2="187"/>
    <circle cx="493" cy="209" r="2"/>
    <circle cx="441" cy="187" r="2"/>
  </g>
  <g stroke="chocolate" stroke-width="1">
    <line x1="603" y1="219" x2="571" y2="187"/>
    <circle cx="603" cy="219" r="2"/>
    <circle cx="571" cy="187" r="2"/>
  </g>
  <g stroke="chocolate" stroke-width="1">
    <line x1="592" y1="232" x2="580" y2="219"/>
    <circle cx="592" cy="232" r="2"/>
    <circle cx="580" cy="219" r="2"/>
  </g>
  <g stroke="chocolate" stroke-width="1">
    <line x1="594" y1="226" x2="580" y2="219"/>
    <circle cx="594" cy="226" r="2"/>
    <circle cx="580" cy="219" r="2"/>
  </g>
  <g stroke="chocolate" stroke-width="1">
    <line x1="593" y1="230" x2="556" y2="214"/>
    <circle cx="593" cy="230" r="2"/>
    <circle cx="556" cy="214" r="2"/>
  </g>
  <g stroke="chocolate" stroke-width="1">
    <line x1="571" y1="212" x2="529" y2="195"/>
    <circle cx="571" cy="212" r="2"/>
    <circle cx="529" cy="195" r="2"/>
  </g>
  <g stroke="chocolate" stroke-width="1">
    <line x1="596" y1="224" x2="585" y2="210"/>
    <circle cx="596" cy="224" r="2"/>
    <circle cx="585" cy="210" r="2"/>
  </g>
  <g stroke="chocolate" stroke-width="1">
    <line x1="121" y1="237" x2="86" y2="231"/>
    <circle cx="121" cy="237" r="2"/>
    <circle cx="86" cy="231" r="2"/>
  </g>
  <g stroke="chocolate" stroke-width="1">
    <line x1="183" y1="295" x2="178" y2="284"/>
    <circle cx="183" cy="295" r="2"/>
    <circle cx="178" cy="284" r="2"/>
  </g>
  <g stroke="chocolate" stroke-width="1">
    <line x1="585" y1="210" x2="512" y2="187"/>
    <circle cx="585" cy="210" r="2"/>
    <circle cx="512" cy="187" r="2"/>
  </g>
  <g stroke="chocolate" stroke-width="1">
    <line x1="596" y1="224" x2="396" y2="187"/>
    <circle cx="596" cy="224" r="2"/>
    <circle cx="396" cy="187" r="2"/>
  </g>
  <g stroke="chocolate" stroke-width="1">
    <line x1="594" y1="232" x2="571" y2="187"/>
    <circle cx="594" cy="232" r="2"/>
    <circle cx="571" cy="187" r="2"/>
  </g>
  <g stroke="chocolate" stroke-width="1">
    <line x1="505" y1="237" x2="493" y2="209"/>
    <circle cx="505" cy="237" r="2"/>
    <circle cx="493" cy="209" r="2"/>
  </g>
  <g stroke="chocolate" stroke-width="1">
    <line x1="174" y1="237" x2="159" y2="187"/>
    <circle cx="174" cy="237" r="2"/>
    <circle cx="159" cy="187" r="2"/>
  </g>
  <g stroke="chocolate" stroke-width="1">
    <line x1="529" y1="195" x2="526" y2="187"/>
    <circle cx="529" cy="195" r="2"/>
    <circle cx="526" cy="187" r="2"/>
  </g>
  <g stroke="chocolate" stroke-width="1">
    <line x1="580" y1="219" x2="577" y2="219"/>
    <circle cx="580" cy="219" r="2"/>
    <circle cx="577" cy="219" r="2"/>
  </g>
  <g stroke="chocolate" stroke-width="1">
    <line x1="121" y1="237" x2="521" y2="237"/>
    <circle cx="121" cy="237" r="2"/>
    <circle cx="521" cy="237" r="2"/>
  </g>
  <g stroke="chocolate" stroke-width="1">
    <line x1="61" y1="187" x2="571" y2="187"/>
    <circle cx="61" cy="187" r="2"/>
    <circle cx="571" cy="187" r="2"/>
  </g>
  <g stroke="chocolate" stroke-width="1">
    <line x1="571" y1="237" x2="597" y2="231"/>
    <circle cx="571" cy="237" r="2"/>
    <circle cx="597" cy="231" r="2"/>
  </g>
  <g stroke="chocolate" stroke-width="1">
    <line x1="121" y1="237" x2="396" y2="187"/>
    <circle cx="121" cy="237" r="2"/>
    <circle cx="396" cy="187" r="2"/>
  </g>
  <g stroke="chocolate" stroke-width="1">
    <line x1="594" y1="232" x2="594" y2="226"/>
    <circle cx="594" cy="232" r="2"/>
    <circle cx="594" cy="226" r="2"/>
  </g>
  <g stroke="chocolate" stroke-width="1">
    <line x1="561" y1="217" x2="585" y2="210"/>
    <circle cx="561" cy="217" r="2"/>
    <circle cx="585" cy="210" r="2"/>
  </g>
  <g stroke="chocolate" stroke-width="1">
    <line x1="571" y1="237" x2="571" y2="212"/>
    <circle cx="571" cy="237" r="2"/>
    <circle cx="571" cy="212" r="2"/>
  </g>
  <g stroke="chocolate" stroke-width="1">
    <line x1="353" y1="237" x2="512" y2="187"/>
    <circle cx="353" cy="237" r="2"/>
    <circle cx="512" cy="187" r="2"/>
  </g>
  <g stroke="chocolate" stroke-width="1">
    <line x1="554" y1="220" x2="571" y2="212"/>
    <circle cx="554" cy="220" r="2"/>
    <circle cx="571" cy="212" r="2"/>
  </g>
  <g stroke="chocolate" stroke-width="1">
    <line x1="571" y1="237" x2="594" y2="226"/>
    <circle cx="571" cy="237" r="2"/>
    <circle cx="594" cy="226" r="2"/>
  </g>
  <g stroke="chocolate" stroke-width="1">
    <line x1="155" y1="199" x2="194" y2="187"/>
    <circle cx="155" cy="199" r="2"/>
    <circle cx="194" cy="187" r="2"/>
  </g>
  <g stroke="chocolate" stroke-width="1">
    <line x1="183" y1="295" x2="441" y2="187"/>
    <circle cx="183" cy="295" r="2"/>
    <circle cx="441" cy="187" r="2"/>
  </g>
  <g stroke="chocolate" stroke-width="1">
    <line x1="471" y1="237" x2="571" y2="187"/>
    <circle cx="471" cy="237" r="2"/>
    <circle cx="571" cy="187" r="2"/>
  </g>
  <g stroke="chocolate" stroke-width="1">
    <line x1="596" y1="224" x2="603" y2="219"/>
    <circle cx="596" cy="224" r="2"/>
    <circle cx="603" cy="219" r="2"/>
  </g>
  <g stroke="chocolate" stroke-width="1">
    <line x1="592" y1="232" x2="593" y2="230"/>
    <circle cx="592" cy="232" r="2"/>
    <circle cx="593" cy="230" r="2"/>
  </g>
  <g stroke="chocolate" stroke-width="1">
    <line x1="571" y1="237" x2="577" y2="219"/>
    <circle cx="571" cy="237" r="2"/>
    <circle cx="577" cy="219" r="2"/>
  </g>
  <g stroke="chocolate" stroke-width="1">
    <line x1="178" y1="284" x2="371" y2="187"/>
    <circle cx="178" cy="284" r="2"/>
    <circle cx="371" cy="187" r="2"/>
  </g>
  <g stroke="chocolate" stroke-width="1">
    <line x1="554" y1="220" x2="556" y2="214"/>
    <circle cx="554" cy="220" r="2"/>
    <circle cx="556" cy="214" r="2"/>
  </g>
  <g stroke="chocolate" stroke-width="1">
    <line x1="505" y1="237" x2="526" y2="187"/>
    <circle cx="505" cy="237" r="2"/>
    <circle cx="526" cy="187" r="2"/>
  </g>
  <g stroke="chocolate" stroke-width="1">
    <line x1="455" y1="237" x2="521" y2="187"/>
    <circle cx="455" cy="237" r="2"/>
    <circle cx="521" cy="187" r="2"/>
  </g>
  <g stroke="chocolate" stroke-width="1">
    <line x1="597" y1="231" x2="603" y2="219"/>
    <circle cx="597" cy="231" r="2"/>
    <circle cx="603" cy="219" r="2"/>
  </g>
  <g stroke="chocolate" stroke-width="1">
    <line x1="521" y1="237" x2="571" y2="187"/>
    <circle cx="521" cy="237" r="2"/>
    <circle cx="571" cy="187" r="2"/>
  </g>
  <g stroke="chocolate" stroke-width="1">
    <line x1="174" y1="237" x2="176" y2="227"/>
    <circle cx="174" cy="237" r="2"/>
    <circle cx="176" cy="227" r="2"/>
  </g>
  <g stroke="chocolate" stroke-width="1">
    <line x1="155" y1="199" x2="159" y2="187"/>
    <circle cx="155" cy="199" r="2"/>
    <circle cx="159" cy="187" r="2"/>
  </g>
  <g stroke="chocolate" stroke-width="1">
    <line x1="471" y1="237" x2="521" y2="187"/>
    <circle cx="471" cy="237" r="2"/>
    <circle cx="521" cy="187" r="2"/>
  </g>
  <g stroke="chocolate" stroke-width="1">
    <line x1="281" y1="267" x2="388" y2="187"/>
    <circle cx="281" cy="267" r="2"/>
    <circle cx="388" cy="187" r="2"/>
  </g>
  <g stroke="chocolate" stroke-width="1">
    <line x1="238" y1="421" x2="471" y2="187"/>
    <circle cx="238" cy="421" r="2"/>
    <circle cx="471" cy="187" r="2"/>
  </g>
  <g stroke="chocolate" stroke-width="1">
    <line x1="220" y1="389" x2="421" y2="187"/>
    <circle cx="220" cy="389" r="2"/>
    <circle cx="421" cy="187" r="2"/>
  </g>
  <g stroke="chocolate" stroke-width="1">
    <line x1="86" y1="231" x2="141" y2="187"/>
    <circle cx="86" cy="231" r="2"/>
    <circle cx="141" cy="187" r="2"/>
  </g>
  <g stroke="chocolate" stroke-width="1">
    <line x1="184" y1="237" x2="221" y2="187"/>
    <circle cx="184" cy="237" r="2"/>
    <circle cx="221" cy="187" r="2"/>
  </g>
  <g stroke="chocolate" stroke-width="1">
    <line x1="5" y1="283" x2="61" y2="187"/>
    <circle cx="5" cy="283" r="2"/>
    <circle cx="61" cy="187" r="2"/>
  </g>
  <g stroke="black" stroke-width="1">
    <line x1="54" y1="54" x2="554" y2="54"/>
    <line x1="54" y1="54" x2="54" y2="554"/>
    <line x1="554" y1="554" x2="54" y2="554"/>
    <line x1="554" y1="554" x2="554" y2="54"/>
    <line x1="154" y1="51" x2="154" y2="57"/>
    <line x1="51" y1="154" x2="57" y2="154"/>
    <line x1="154" y1="551" x2="154" y2="557"/>
    <line x1="551" y1="154" x2="557" y2="154"/>
    <line x1="254" y1="51" x2="254" y2="57"/>
    <line x1="51" y1="254" x2="57" y2="254"/>
    <line x1="254" y1="551" x2="254" y2="557"/>
    <line x1="551" y1="254" x2="557" y2="254"/>
    <line x1="354" y1="51" x2="354" y2="57"/>
    <line x1="51" y1="354" x2="57" y2="354"/>
    <line x1="354" y1="551" x2="354" y2="557"/>
    <line x1="551" y1="354" x2="557" y2="354"/>
    <line x1="454" y1="51" x2="454" y2="57"/>
    <line x1="51" y1="454" x2="57" y2="454"/>
    <line x1="454" y1="551" x2="454" y2="557"/>
    <line x1="551" y1="454" x2="557" y2="454"/>
  </g>
  <g stroke="gray" stroke-width="1" stroke-dasharray="5,5">
    <line x1="154" y1="54" x2="154" y2="554"/>
    <line x1="54" y1="154" x2="554" y2="154"/>
    <line x1="254" y1="54" x2="254" y2="554"/>
    <line x1="54" y1="254" x2="554" y2="254"/>
    <line x1="354" y1="54" x2="354" y2="554"/>
    <line x1="54" y1="354" x2="554" y2="354"/>
    <line x1="454" y1="54" x2="454" y2="554"/>
    <line x1="54" y1="454" x2="554" y2="454"/>
  </g>
</svg>
