<?xml version="1.0" standalone="no"?>
<!DOCTYPE svg PUBLIC "-//W3C//DTD SVG 1.1//EN" 
  "http://www.w3.org/Graphics/SVG/1.1/DTD/svg11.dtd">
<svg width="624" height="624" version="1.1" id="toplevel"
    xmlns="http://www.w3.org/2000/svg"
    xmlns:xlink="http://www.w3.org/1999/xlink">
  <polygon points="398,619 579,439 306,5 236,29 234,77 45,265" fill="bisque"/>
  <g stroke="chocolate" stroke-width="1">
    <line x1="348" y1="520" x2="579" y2="439"/>
    <circle cx="348" cy="520" r="2"/>
    <circle cx="579" cy="439" r="2"/>
  </g>
  <g stroke="chocolate" stroke-width="1">
    <line x1="398" y1="619" x2="579" y2="439"/>
    <circle cx="398" cy="619" r="2"/>
    <circle cx="579" cy="439" r="2"/>
  </g>
  <g stroke="chocolate" stroke-width="1">
    <line x1="398" y1="619" x2="45" y2="265"/>
    <circle cx="398" cy="619" r="2"/>
    <circle cx="45" cy="265" r="2"/>
  </g>
  <g stroke="chocolate" stroke-width="1">
    <line x1="288" y1="54" x2="236" y2="29"/>
    <circle cx="288" cy="54" r="2"/>
    <circle cx="236" cy="29" r="2"/>
  </g>
  <g stroke="chocolate" stroke-width="1">
    <line x1="348" y1="520" x2="228" y2="178"/>
    <circle cx="348" cy="520" r="2"/>
    <circle cx="228" cy="178" r="2"/>
  </g>
  <g stroke="chocolate" stroke-width="1">
    <line x1="579" y1="439" x2="306" y2="5"/>
    <circle cx="579" cy="439" r="2"/>
    <circle cx="306" cy="5" r="2"/>
  </g>
  <g stroke="chocolate" stroke-width="1">
    <line x1="228" y1="178" x2="236" y2="29"/>
    <circle cx="228" cy="178" r="2"/>
    <circle cx="236" cy="29" r="2"/>
  </g>
  <g stroke="chocolate" stroke-width="1">
    <line x1="228" y1="178" x2="288" y2="54"/>
    <circle cx="228" cy="178" r="2"/>
    <circle cx="288" cy="54" r="2"/>
  </g>
  <g stroke="chocolate" stroke-width="1">
    <line x1="236" y1="29" x2="306" y2="5"/>
    <circle cx="236" cy="29" r="2"/>
    <circle cx="306" cy="5" r="2"/>
  </g>
  <g stroke="chocolate" stroke-width="1">
    <line x1="45" y1="265" x2="306" y2="5"/>
    <circle cx="45" cy="265" r="2"/>
    <circle cx="306" cy="5" r="2"/>
  </g>
  <g stroke="black" stroke-width="1">
    <line x1="62" y1="62" x2="562" y2="62"/>
    <line x1="62" y1="62" x2="62" y2="562"/>
    <line x1="562" y1="562" x2="62" y2="562"/>
    <line x1="562" y1="562" x2="562" y2="62"/>
    <line x1="162" y1="59" x2="162" y2="65"/>
    <line x1="59" y1="162" x2="65" y2="162"/>
    <line x1="162" y1="559" x2="162" y2="565"/>
    <line x1="559" y1="162" x2="565" y2="162"/>
    <line x1="262" y1="59" x2="262" y2="65"/>
    <line x1="59" y1="262" x2="65" y2="262"/>
    <line x1="262" y1="559" x2="262" y2="565"/>
    <line x1="559" y1="262" x2="565" y2="262"/>
    <line x1="362" y1="59" x2="362" y2="65"/>
    <line x1="59" y1="362" x2="65" y2="362"/>
    <line x1="362" y1="559" x2="362" y2="565"/>
    <line x1="559" y1="362" x2="565" y2="362"/>
    <line x1="462" y1="59" x2="462" y2="65"/>
    <line x1="59" y1="462" x2="65" y2="462"/>
    <line x1="462" y1="559" x2="462" y2="565"/>
    <line x1="559" y1="462" x2="565" y2="462"/>
  </g>
  <g stroke="gray" stroke-width="1" stroke-dasharray="5,5">
    <line x1="162" y1="62" x2="162" y2="562"/>
    <line x1="62" y1="162" x2="562" y2="162"/>
    <line x1="262" y1="62" x2="262" y2="562"/>
    <line x1="62" y1="262" x2="562" y2="262"/>
    <line x1="362" y1="62" x2="362" y2="562"/>
    <line x1="62" y1="362" x2="562" y2="362"/>
    <line x1="462" y1="62" x2="462" y2="562"/>
    <line x1="62" y1="462" x2="562" y2="462"/>
  </g>
</svg>
