<?xml version="1.0" standalone="no"?>
<!DOCTYPE svg PUBLIC "-//W3C//DTD SVG 1.1//EN" 
  "http://www.w3.org/Graphics/SVG/1.1/DTD/svg11.dtd">
<svg width="510" height="510" version="1.1" id="toplevel"
    xmlns="http://www.w3.org/2000/svg"
    xmlns:xlink="http://www.w3.org/1999/xlink">
  <polygon points="162,394 237,386 336,381 383,388 384,379 149,116 140,116 139,143 134,143 136,186 126,353 130,353 130,353 140,354 140,378 145,378 146,390 161,390"
           fill="bisque"/>
  <g stroke="chocolate" stroke-width="1">
    <line x1="373" y1="386" x2="377" y2="371"/>
    <circle cx="373" cy="386" r="2"/>
    <circle cx="377" cy="371" r="2"/>
  </g>
  <g stroke="chocolate" stroke-width="1">
    <line x1="383" y1="388" x2="384" y2="379"/>
    <circle cx="383" cy="388" r="2"/>
    <circle cx="384" cy="379" r="2"/>
  </g>
  <g stroke="chocolate" stroke-width="1">
    <line x1="383" y1="388" x2="384" y2="378"/>
    <circle cx="383" cy="388" r="2"/>
    <circle cx="384" cy="378" r="2"/>
  </g>
  <g stroke="chocolate" stroke-width="1">
    <line x1="162" y1="394" x2="377" y2="371"/>
    <circle cx="162" cy="394" r="2"/>
    <circle cx="377" cy="371" r="2"/>
  </g>
  <g stroke="chocolate" stroke-width="1">
    <line x1="146" y1="390" x2="384" y2="379"/>
    <circle cx="146" cy="390" r="2"/>
    <circle cx="384" cy="379" r="2"/>
  </g>
  <g stroke="chocolate" stroke-width="1">
    <line x1="373" y1="386" x2="374" y2="368"/>
    <circle cx="373" cy="386" r="2"/>
    <circle cx="374" cy="368" r="2"/>
  </g>
  <g stroke="chocolate" stroke-width="1">
    <line x1="140" y1="378" x2="384" y2="378"/>
    <circle cx="140" cy="378" r="2"/>
    <circle cx="384" cy="378" r="2"/>
  </g>
  <g stroke="chocolate" stroke-width="1">
    <line x1="140" y1="378" x2="140" y2="116"/>
    <circle cx="140" cy="378" r="2"/>
    <circle cx="140" cy="116" r="2"/>
  </g>
  <g stroke="chocolate" stroke-width="1">
    <line x1="146" y1="390" x2="134" y2="143"/>
    <circle cx="146" cy="390" r="2"/>
    <circle cx="134" cy="143" r="2"/>
  </g>
  <g stroke="chocolate" stroke-width="1">
    <line x1="126" y1="353" x2="140" y2="116"/>
    <circle cx="126" cy="353" r="2"/>
    <circle cx="140" cy="116" r="2"/>
  </g>
  <g stroke="chocolate" stroke-width="1">
    <line x1="130" y1="353" x2="149" y2="116"/>
    <circle cx="130" cy="353" r="2"/>
    <circle cx="149" cy="116" r="2"/>
  </g>
  <g stroke="chocolate" stroke-width="1">
    <line x1="162" y1="394" x2="134" y2="143"/>
    <circle cx="162" cy="394" r="2"/>
    <circle cx="134" cy="143" r="2"/>
  </g>
  <g stroke="chocolate" stroke-width="1">
    <line x1="130" y1="353" x2="171" y2="140"/>
    <circle cx="130" cy="353" r="2"/>
    <circle cx="171" cy="140" r="2"/>
  </g>
  <g stroke="chocolate" stroke-width="1">
    <line x1="383" y1="388" x2="130" y2="353"/>
    <circle cx="383" cy="388" r="2"/>
    <circle cx="130" cy="353" r="2"/>
  </g>
  <g stroke="chocolate" stroke-width="1">
    <line x1="374" y1="368" x2="126" y2="353"/>
    <circle cx="374" cy="368" r="2"/>
    <circle cx="126" cy="353" r="2"/>
  </g>
  <g stroke="chocolate" stroke-width="1">
    <line x1="384" y1="379" x2="149" y2="116"/>
    <circle cx="384" cy="379" r="2"/>
    <circle cx="149" cy="116" r="2"/>
  </g>
  <g stroke="chocolate" stroke-width="1">
    <line x1="134" y1="143" x2="171" y2="140"/>
    <circle cx="134" cy="143" r="2"/>
    <circle cx="171" cy="140" r="2"/>
  </g>
  <g stroke="chocolate" stroke-width="1">
    <line x1="149" y1="116" x2="140" y2="116"/>
    <circle cx="149" cy="116" r="2"/>
    <circle cx="140" cy="116" r="2"/>
  </g>
  <g stroke="black" stroke-width="1">
    <line x1="5" y1="5" x2="505" y2="5"/>
    <line x1="5" y1="5" x2="5" y2="505"/>
    <line x1="505" y1="505" x2="5" y2="505"/>
    <line x1="505" y1="505" x2="505" y2="5"/>
    <line x1="105" y1="2" x2="105" y2="8"/>
    <line x1="2" y1="105" x2="8" y2="105"/>
    <line x1="105" y1="502" x2="105" y2="508"/>
    <line x1="502" y1="105" x2="508" y2="105"/>
    <line x1="205" y1="2" x2="205" y2="8"/>
    <line x1="2" y1="205" x2="8" y2="205"/>
    <line x1="205" y1="502" x2="205" y2="508"/>
    <line x1="502" y1="205" x2="508" y2="205"/>
    <line x1="305" y1="2" x2="305" y2="8"/>
    <line x1="2" y1="305" x2="8" y2="305"/>
    <line x1="305" y1="502" x2="305" y2="508"/>
    <line x1="502" y1="305" x2="508" y2="305"/>
    <line x1="405" y1="2" x2="405" y2="8"/>
    <line x1="2" y1="405" x2="8" y2="405"/>
    <line x1="405" y1="502" x2="405" y2="508"/>
    <line x1="502" y1="405" x2="508" y2="405"/>
  </g>
  <g stroke="gray" stroke-width="1" stroke-dasharray="5,5">
    <line x1="105" y1="5" x2="105" y2="505"/>
    <line x1="5" y1="105" x2="505" y2="105"/>
    <line x1="205" y1="5" x2="205" y2="505"/>
    <line x1="5" y1="205" x2="505" y2="205"/>
    <line x1="305" y1="5" x2="305" y2="505"/>
    <line x1="5" y1="305" x2="505" y2="305"/>
    <line x1="405" y1="5" x2="405" y2="505"/>
    <line x1="5" y1="405" x2="505" y2="405"/>
  </g>
</svg>
