<?xml version="1.0" standalone="no"?>
<!DOCTYPE svg PUBLIC "-//W3C//DTD SVG 1.1//EN" 
  "http://www.w3.org/Graphics/SVG/1.1/DTD/svg11.dtd">
<svg width="610" height="610" version="1.1" id="toplevel"
    xmlns="http://www.w3.org/2000/svg"
    xmlns:xlink="http://www.w3.org/1999/xlink">
  <polygon points="405,522 480,422 605,422 605,255 105,88 5,222 105,297 105,422 272,422"
           fill="bisque"/>
  <g stroke="chocolate" stroke-width="1">
    <line x1="405" y1="522" x2="605" y2="255"/>
    <circle cx="405" cy="522" r="2"/>
    <circle cx="605" cy="255" r="2"/>
  </g>
  <g stroke="chocolate" stroke-width="1">
    <line x1="105" y1="422" x2="605" y2="422"/>
    <circle cx="105" cy="422" r="2"/>
    <circle cx="605" cy="422" r="2"/>
  </g>
  <g stroke="chocolate" stroke-width="1">
    <line x1="105" y1="422" x2="105" y2="88"/>
    <circle cx="105" cy="422" r="2"/>
    <circle cx="105" cy="88" r="2"/>
  </g>
  <g stroke="chocolate" stroke-width="1">
    <line x1="605" y1="422" x2="605" y2="255"/>
    <circle cx="605" cy="422" r="2"/>
    <circle cx="605" cy="255" r="2"/>
  </g>
  <g stroke="chocolate" stroke-width="1">
    <line x1="405" y1="522" x2="5" y2="222"/>
    <circle cx="405" cy="522" r="2"/>
    <circle cx="5" cy="222" r="2"/>
  </g>
  <g stroke="chocolate" stroke-width="1">
    <line x1="5" y1="222" x2="105" y2="88"/>
    <circle cx="5" cy="222" r="2"/>
    <circle cx="105" cy="88" r="2"/>
  </g>
  <g stroke="chocolate" stroke-width="1">
    <line x1="605" y1="255" x2="105" y2="88"/>
    <circle cx="605" cy="255" r="2"/>
    <circle cx="105" cy="88" r="2"/>
  </g>
  <g stroke="black" stroke-width="1">
    <line x1="55" y1="55" x2="555" y2="55"/>
    <line x1="55" y1="55" x2="55" y2="555"/>
    <line x1="555" y1="555" x2="55" y2="555"/>
    <line x1="555" y1="555" x2="555" y2="55"/>
    <line x1="155" y1="52" x2="155" y2="58"/>
    <line x1="52" y1="155" x2="58" y2="155"/>
    <line x1="155" y1="552" x2="155" y2="558"/>
    <line x1="552" y1="155" x2="558" y2="155"/>
    <line x1="255" y1="52" x2="255" y2="58"/>
    <line x1="52" y1="255" x2="58" y2="255"/>
    <line x1="255" y1="552" x2="255" y2="558"/>
    <line x1="552" y1="255" x2="558" y2="255"/>
    <line x1="355" y1="52" x2="355" y2="58"/>
    <line x1="52" y1="355" x2="58" y2="355"/>
    <line x1="355" y1="552" x2="355" y2="558"/>
    <line x1="552" y1="355" x2="558" y2="355"/>
    <line x1="455" y1="52" x2="455" y2="58"/>
    <line x1="52" y1="455" x2="58" y2="455"/>
    <line x1="455" y1="552" x2="455" y2="558"/>
    <line x1="552" y1="455" x2="558" y2="455"/>
  </g>
  <g stroke="gray" stroke-width="1" stroke-dasharray="5,5">
    <line x1="155" y1="55" x2="155" y2="555"/>
    <line x1="55" y1="155" x2="555" y2="155"/>
    <line x1="255" y1="55" x2="255" y2="555"/>
    <line x1="55" y1="255" x2="555" y2="255"/>
    <line x1="355" y1="55" x2="355" y2="555"/>
    <line x1="55" y1="355" x2="555" y2="355"/>
    <line x1="455" y1="55" x2="455" y2="555"/>
    <line x1="55" y1="455" x2="555" y2="455"/>
  </g>
</svg>
