<?xml version="1.0" standalone="no"?>
<!DOCTYPE svg PUBLIC "-//W3C//DTD SVG 1.1//EN" 
  "http://www.w3.org/Graphics/SVG/1.1/DTD/svg11.dtd">
<svg width="714" height="714" version="1.1" id="toplevel"
    xmlns="http://www.w3.org/2000/svg"
    xmlns:xlink="http://www.w3.org/1999/xlink">
  <polygon points="686,414 709,394 631,302 534,308 530,300 5,338" fill="bisque"/>
  <g stroke="chocolate" stroke-width="1">
    <line x1="553" y1="372" x2="587" y2="309"/>
    <circle cx="553" cy="372" r="2"/>
    <circle cx="587" cy="309" r="2"/>
  </g>
  <g stroke="chocolate" stroke-width="1">
    <line x1="569" y1="394" x2="631" y2="302"/>
    <circle cx="569" cy="394" r="2"/>
    <circle cx="631" cy="302" r="2"/>
  </g>
  <g stroke="chocolate" stroke-width="1">
    <line x1="617" y1="354" x2="630" y2="338"/>
    <circle cx="617" cy="354" r="2"/>
    <circle cx="630" cy="338" r="2"/>
  </g>
  <g stroke="chocolate" stroke-width="1">
    <line x1="531" y1="345" x2="536" y2="329"/>
    <circle cx="531" cy="345" r="2"/>
    <circle cx="536" cy="329" r="2"/>
  </g>
  <g stroke="chocolate" stroke-width="1">
    <line x1="523" y1="347" x2="527" y2="333"/>
    <circle cx="523" cy="347" r="2"/>
    <circle cx="527" cy="333" r="2"/>
  </g>
  <g stroke="chocolate" stroke-width="1">
    <line x1="520" y1="341" x2="530" y2="300"/>
    <circle cx="520" cy="341" r="2"/>
    <circle cx="530" cy="300" r="2"/>
  </g>
  <g stroke="chocolate" stroke-width="1">
    <line x1="686" y1="414" x2="709" y2="394"/>
    <circle cx="686" cy="414" r="2"/>
    <circle cx="709" cy="394" r="2"/>
  </g>
  <g stroke="chocolate" stroke-width="1">
    <line x1="512" y1="354" x2="518" y2="327"/>
    <circle cx="512" cy="354" r="2"/>
    <circle cx="518" cy="327" r="2"/>
  </g>
  <g stroke="chocolate" stroke-width="1">
    <line x1="508" y1="348" x2="513" y2="314"/>
    <circle cx="508" cy="348" r="2"/>
    <circle cx="513" cy="314" r="2"/>
  </g>
  <g stroke="chocolate" stroke-width="1">
    <line x1="505" y1="362" x2="507" y2="336"/>
    <circle cx="505" cy="362" r="2"/>
    <circle cx="507" cy="336" r="2"/>
  </g>
  <g stroke="chocolate" stroke-width="1">
    <line x1="505" y1="360" x2="508" y2="324"/>
    <circle cx="505" cy="360" r="2"/>
    <circle cx="508" cy="324" r="2"/>
  </g>
  <g stroke="chocolate" stroke-width="1">
    <line x1="505" y1="362" x2="505" y2="338"/>
    <circle cx="505" cy="362" r="2"/>
    <circle cx="505" cy="338" r="2"/>
  </g>
  <g stroke="chocolate" stroke-width="1">
    <line x1="508" y1="348" x2="507" y2="336"/>
    <circle cx="508" cy="348" r="2"/>
    <circle cx="507" cy="336" r="2"/>
  </g>
  <g stroke="chocolate" stroke-width="1">
    <line x1="512" y1="354" x2="508" y2="324"/>
    <circle cx="512" cy="354" r="2"/>
    <circle cx="508" cy="324" r="2"/>
  </g>
  <g stroke="chocolate" stroke-width="1">
    <line x1="520" y1="341" x2="513" y2="314"/>
    <circle cx="520" cy="341" r="2"/>
    <circle cx="513" cy="314" r="2"/>
  </g>
  <g stroke="chocolate" stroke-width="1">
    <line x1="523" y1="347" x2="518" y2="327"/>
    <circle cx="523" cy="347" r="2"/>
    <circle cx="518" cy="327" r="2"/>
  </g>
  <g stroke="chocolate" stroke-width="1">
    <line x1="531" y1="345" x2="527" y2="333"/>
    <circle cx="531" cy="345" r="2"/>
    <circle cx="527" cy="333" r="2"/>
  </g>
  <g stroke="chocolate" stroke-width="1">
    <line x1="553" y1="372" x2="536" y2="329"/>
    <circle cx="553" cy="372" r="2"/>
    <circle cx="536" cy="329" r="2"/>
  </g>
  <g stroke="chocolate" stroke-width="1">
    <line x1="569" y1="394" x2="530" y2="300"/>
    <circle cx="569" cy="394" r="2"/>
    <circle cx="530" cy="300" r="2"/>
  </g>
  <g stroke="chocolate" stroke-width="1">
    <line x1="617" y1="354" x2="587" y2="309"/>
    <circle cx="617" cy="354" r="2"/>
    <circle cx="587" cy="309" r="2"/>
  </g>
  <g stroke="chocolate" stroke-width="1">
    <line x1="686" y1="414" x2="630" y2="338"/>
    <circle cx="686" cy="414" r="2"/>
    <circle cx="630" cy="338" r="2"/>
  </g>
  <g stroke="chocolate" stroke-width="1">
    <line x1="686" y1="414" x2="5" y2="338"/>
    <circle cx="686" cy="414" r="2"/>
    <circle cx="5" cy="338" r="2"/>
  </g>
  <g stroke="chocolate" stroke-width="1">
    <line x1="569" y1="394" x2="5" y2="338"/>
    <circle cx="569" cy="394" r="2"/>
    <circle cx="5" cy="338" r="2"/>
  </g>
  <g stroke="chocolate" stroke-width="1">
    <line x1="5" y1="338" x2="530" y2="300"/>
    <circle cx="5" cy="338" r="2"/>
    <circle cx="530" cy="300" r="2"/>
  </g>
  <g stroke="chocolate" stroke-width="1">
    <line x1="553" y1="372" x2="5" y2="338"/>
    <circle cx="553" cy="372" r="2"/>
    <circle cx="5" cy="338" r="2"/>
  </g>
  <g stroke="chocolate" stroke-width="1">
    <line x1="5" y1="338" x2="631" y2="302"/>
    <circle cx="5" cy="338" r="2"/>
    <circle cx="631" cy="302" r="2"/>
  </g>
  <g stroke="chocolate" stroke-width="1">
    <line x1="5" y1="338" x2="587" y2="309"/>
    <circle cx="5" cy="338" r="2"/>
    <circle cx="587" cy="309" r="2"/>
  </g>
  <g stroke="chocolate" stroke-width="1">
    <line x1="5" y1="338" x2="513" y2="314"/>
    <circle cx="5" cy="338" r="2"/>
    <circle cx="513" cy="314" r="2"/>
  </g>
  <g stroke="chocolate" stroke-width="1">
    <line x1="505" y1="362" x2="5" y2="338"/>
    <circle cx="505" cy="362" r="2"/>
    <circle cx="5" cy="338" r="2"/>
  </g>
  <g stroke="chocolate" stroke-width="1">
    <line x1="505" y1="360" x2="5" y2="338"/>
    <circle cx="505" cy="360" r="2"/>
    <circle cx="5" cy="338" r="2"/>
  </g>
  <g stroke="chocolate" stroke-width="1">
    <line x1="512" y1="354" x2="5" y2="338"/>
    <circle cx="512" cy="354" r="2"/>
    <circle cx="5" cy="338" r="2"/>
  </g>
  <g stroke="chocolate" stroke-width="1">
    <line x1="5" y1="338" x2="508" y2="324"/>
    <circle cx="5" cy="338" r="2"/>
    <circle cx="508" cy="324" r="2"/>
  </g>
  <g stroke="chocolate" stroke-width="1">
    <line x1="617" y1="354" x2="5" y2="338"/>
    <circle cx="617" cy="354" r="2"/>
    <circle cx="5" cy="338" r="2"/>
  </g>
  <g stroke="chocolate" stroke-width="1">
    <line x1="5" y1="338" x2="518" y2="327"/>
    <circle cx="5" cy="338" r="2"/>
    <circle cx="518" cy="327" r="2"/>
  </g>
  <g stroke="chocolate" stroke-width="1">
    <line x1="508" y1="348" x2="5" y2="338"/>
    <circle cx="508" cy="348" r="2"/>
    <circle cx="5" cy="338" r="2"/>
  </g>
  <g stroke="chocolate" stroke-width="1">
    <line x1="5" y1="338" x2="536" y2="329"/>
    <circle cx="5" cy="338" r="2"/>
    <circle cx="536" cy="329" r="2"/>
  </g>
  <g stroke="chocolate" stroke-width="1">
    <line x1="523" y1="347" x2="5" y2="338"/>
    <circle cx="523" cy="347" r="2"/>
    <circle cx="5" cy="338" r="2"/>
  </g>
  <g stroke="chocolate" stroke-width="1">
    <line x1="531" y1="345" x2="5" y2="338"/>
    <circle cx="531" cy="345" r="2"/>
    <circle cx="5" cy="338" r="2"/>
  </g>
  <g stroke="chocolate" stroke-width="1">
    <line x1="5" y1="338" x2="527" y2="333"/>
    <circle cx="5" cy="338" r="2"/>
    <circle cx="527" cy="333" r="2"/>
  </g>
  <g stroke="chocolate" stroke-width="1">
    <line x1="5" y1="338" x2="507" y2="336"/>
    <circle cx="5" cy="338" r="2"/>
    <circle cx="507" cy="336" r="2"/>
  </g>
  <g stroke="chocolate" stroke-width="1">
    <line x1="520" y1="341" x2="5" y2="338"/>
    <circle cx="520" cy="341" r="2"/>
    <circle cx="5" cy="338" r="2"/>
  </g>
  <g stroke="chocolate" stroke-width="1">
    <line x1="5" y1="338" x2="630" y2="338"/>
    <circle cx="5" cy="338" r="2"/>
    <circle cx="630" cy="338" r="2"/>
  </g>
  <g stroke="chocolate" stroke-width="1">
    <line x1="709" y1="394" x2="631" y2="302"/>
    <circle cx="709" cy="394" r="2"/>
    <circle cx="631" cy="302" r="2"/>
  </g>
  <g stroke="black" stroke-width="1">
    <line x1="107" y1="107" x2="607" y2="107"/>
    <line x1="107" y1="107" x2="107" y2="607"/>
    <line x1="607" y1="607" x2="107" y2="607"/>
    <line x1="607" y1="607" x2="607" y2="107"/>
    <line x1="207" y1="104" x2="207" y2="110"/>
    <line x1="104" y1="207" x2="110" y2="207"/>
    <line x1="207" y1="604" x2="207" y2="610"/>
    <line x1="604" y1="207" x2="610" y2="207"/>
    <line x1="307" y1="104" x2="307" y2="110"/>
    <line x1="104" y1="307" x2="110" y2="307"/>
    <line x1="307" y1="604" x2="307" y2="610"/>
    <line x1="604" y1="307" x2="610" y2="307"/>
    <line x1="407" y1="104" x2="407" y2="110"/>
    <line x1="104" y1="407" x2="110" y2="407"/>
    <line x1="407" y1="604" x2="407" y2="610"/>
    <line x1="604" y1="407" x2="610" y2="407"/>
    <line x1="507" y1="104" x2="507" y2="110"/>
    <line x1="104" y1="507" x2="110" y2="507"/>
    <line x1="507" y1="604" x2="507" y2="610"/>
    <line x1="604" y1="507" x2="610" y2="507"/>
  </g>
  <g stroke="gray" stroke-width="1" stroke-dasharray="5,5">
    <line x1="207" y1="107" x2="207" y2="607"/>
    <line x1="107" y1="207" x2="607" y2="207"/>
    <line x1="307" y1="107" x2="307" y2="607"/>
    <line x1="107" y1="307" x2="607" y2="307"/>
    <line x1="407" y1="107" x2="407" y2="607"/>
    <line x1="107" y1="407" x2="607" y2="407"/>
    <line x1="507" y1="107" x2="507" y2="607"/>
    <line x1="107" y1="507" x2="607" y2="507"/>
  </g>
</svg>
