<?xml version="1.0" standalone="no"?>
<!DOCTYPE svg PUBLIC "-//W3C//DTD SVG 1.1//EN" 
  "http://www.w3.org/Graphics/SVG/1.1/DTD/svg11.dtd">
<svg width="630" height="630" version="1.1" id="toplevel"
    xmlns="http://www.w3.org/2000/svg"
    xmlns:xlink="http://www.w3.org/1999/xlink">
  <polygon points="526,625 558,515 584,328 479,91 185,5 46,486" fill="bisque"/>
  <g stroke="chocolate" stroke-width="1">
    <line x1="526" y1="625" x2="46" y2="486"/>
    <circle cx="526" cy="625" r="2"/>
    <circle cx="46" cy="486" r="2"/>
  </g>
  <g stroke="chocolate" stroke-width="1">
    <line x1="558" y1="515" x2="558" y2="268"/>
    <circle cx="558" cy="515" r="2"/>
    <circle cx="558" cy="268" r="2"/>
  </g>
  <g stroke="chocolate" stroke-width="1">
    <line x1="558" y1="515" x2="584" y2="328"/>
    <circle cx="558" cy="515" r="2"/>
    <circle cx="584" cy="328" r="2"/>
  </g>
  <g stroke="chocolate" stroke-width="1">
    <line x1="526" y1="625" x2="558" y2="515"/>
    <circle cx="526" cy="625" r="2"/>
    <circle cx="558" cy="515" r="2"/>
  </g>
  <g stroke="chocolate" stroke-width="1">
    <line x1="584" y1="328" x2="479" y2="91"/>
    <circle cx="584" cy="328" r="2"/>
    <circle cx="479" cy="91" r="2"/>
  </g>
  <g stroke="chocolate" stroke-width="1">
    <line x1="418" y1="216" x2="479" y2="91"/>
    <circle cx="418" cy="216" r="2"/>
    <circle cx="479" cy="91" r="2"/>
  </g>
  <g stroke="chocolate" stroke-width="1">
    <line x1="46" y1="486" x2="185" y2="5"/>
    <circle cx="46" cy="486" r="2"/>
    <circle cx="185" cy="5" r="2"/>
  </g>
  <g stroke="chocolate" stroke-width="1">
    <line x1="558" y1="268" x2="455" y2="175"/>
    <circle cx="558" cy="268" r="2"/>
    <circle cx="455" cy="175" r="2"/>
  </g>
  <g stroke="chocolate" stroke-width="1">
    <line x1="584" y1="328" x2="418" y2="216"/>
    <circle cx="584" cy="328" r="2"/>
    <circle cx="418" cy="216" r="2"/>
  </g>
  <g stroke="chocolate" stroke-width="1">
    <line x1="418" y1="216" x2="455" y2="175"/>
    <circle cx="418" cy="216" r="2"/>
    <circle cx="455" cy="175" r="2"/>
  </g>
  <g stroke="chocolate" stroke-width="1">
    <line x1="479" y1="91" x2="185" y2="5"/>
    <circle cx="479" cy="91" r="2"/>
    <circle cx="185" cy="5" r="2"/>
  </g>
  <g stroke="black" stroke-width="1">
    <line x1="65" y1="65" x2="565" y2="65"/>
    <line x1="65" y1="65" x2="65" y2="565"/>
    <line x1="565" y1="565" x2="65" y2="565"/>
    <line x1="565" y1="565" x2="565" y2="65"/>
    <line x1="165" y1="62" x2="165" y2="68"/>
    <line x1="62" y1="165" x2="68" y2="165"/>
    <line x1="165" y1="562" x2="165" y2="568"/>
    <line x1="562" y1="165" x2="568" y2="165"/>
    <line x1="265" y1="62" x2="265" y2="68"/>
    <line x1="62" y1="265" x2="68" y2="265"/>
    <line x1="265" y1="562" x2="265" y2="568"/>
    <line x1="562" y1="265" x2="568" y2="265"/>
    <line x1="365" y1="62" x2="365" y2="68"/>
    <line x1="62" y1="365" x2="68" y2="365"/>
    <line x1="365" y1="562" x2="365" y2="568"/>
    <line x1="562" y1="365" x2="568" y2="365"/>
    <line x1="465" y1="62" x2="465" y2="68"/>
    <line x1="62" y1="465" x2="68" y2="465"/>
    <line x1="465" y1="562" x2="465" y2="568"/>
    <line x1="562" y1="465" x2="568" y2="465"/>
  </g>
  <g stroke="gray" stroke-width="1" stroke-dasharray="5,5">
    <line x1="165" y1="65" x2="165" y2="565"/>
    <line x1="65" y1="165" x2="565" y2="165"/>
    <line x1="265" y1="65" x2="265" y2="565"/>
    <line x1="65" y1="265" x2="565" y2="265"/>
    <line x1="365" y1="65" x2="365" y2="565"/>
    <line x1="65" y1="365" x2="565" y2="365"/>
    <line x1="465" y1="65" x2="465" y2="565"/>
    <line x1="65" y1="465" x2="565" y2="465"/>
  </g>
</svg>
