<?xml version="1.0" standalone="no"?>
<!DOCTYPE svg PUBLIC "-//W3C//DTD SVG 1.1//EN" 
  "http://www.w3.org/Graphics/SVG/1.1/DTD/svg11.dtd">
<svg width="654" height="654" version="1.1" id="toplevel"
    xmlns="http://www.w3.org/2000/svg"
    xmlns:xlink="http://www.w3.org/1999/xlink">
  <polygon points="186,649 589,352 550,298 549,299 328,5 134,151 65,488"
           fill="bisque"/>
  <g stroke="chocolate" stroke-width="1">
    <line x1="65" y1="488" x2="134" y2="151"/>
    <circle cx="65" cy="488" r="2"/>
    <circle cx="134" cy="151" r="2"/>
  </g>
  <g stroke="chocolate" stroke-width="1">
    <line x1="186" y1="649" x2="589" y2="352"/>
    <circle cx="186" cy="649" r="2"/>
    <circle cx="589" cy="352" r="2"/>
  </g>
  <g stroke="chocolate" stroke-width="1">
    <line x1="144" y1="591" x2="550" y2="298"/>
    <circle cx="144" cy="591" r="2"/>
    <circle cx="550" cy="298" r="2"/>
  </g>
  <g stroke="chocolate" stroke-width="1">
    <line x1="65" y1="488" x2="263" y2="375"/>
    <circle cx="65" cy="488" r="2"/>
    <circle cx="263" cy="375" r="2"/>
  </g>
  <g stroke="chocolate" stroke-width="1">
    <line x1="134" y1="151" x2="328" y2="5"/>
    <circle cx="134" cy="151" r="2"/>
    <circle cx="328" cy="5" r="2"/>
  </g>
  <g stroke="chocolate" stroke-width="1">
    <line x1="186" y1="649" x2="144" y2="591"/>
    <circle cx="186" cy="649" r="2"/>
    <circle cx="144" cy="591" r="2"/>
  </g>
  <g stroke="chocolate" stroke-width="1">
    <line x1="186" y1="649" x2="65" y2="488"/>
    <circle cx="186" cy="649" r="2"/>
    <circle cx="65" cy="488" r="2"/>
  </g>
  <g stroke="chocolate" stroke-width="1">
    <line x1="263" y1="375" x2="134" y2="151"/>
    <circle cx="263" cy="375" r="2"/>
    <circle cx="134" cy="151" r="2"/>
  </g>
  <g stroke="chocolate" stroke-width="1">
    <line x1="589" y1="352" x2="550" y2="298"/>
    <circle cx="589" cy="352" r="2"/>
    <circle cx="550" cy="298" r="2"/>
  </g>
  <g stroke="chocolate" stroke-width="1">
    <line x1="589" y1="352" x2="328" y2="5"/>
    <circle cx="589" cy="352" r="2"/>
    <circle cx="328" cy="5" r="2"/>
  </g>
  <g stroke="black" stroke-width="1">
    <line x1="77" y1="77" x2="577" y2="77"/>
    <line x1="77" y1="77" x2="77" y2="577"/>
    <line x1="577" y1="577" x2="77" y2="577"/>
    <line x1="577" y1="577" x2="577" y2="77"/>
    <line x1="177" y1="74" x2="177" y2="80"/>
    <line x1="74" y1="177" x2="80" y2="177"/>
    <line x1="177" y1="574" x2="177" y2="580"/>
    <line x1="574" y1="177" x2="580" y2="177"/>
    <line x1="277" y1="74" x2="277" y2="80"/>
    <line x1="74" y1="277" x2="80" y2="277"/>
    <line x1="277" y1="574" x2="277" y2="580"/>
    <line x1="574" y1="277" x2="580" y2="277"/>
    <line x1="377" y1="74" x2="377" y2="80"/>
    <line x1="74" y1="377" x2="80" y2="377"/>
    <line x1="377" y1="574" x2="377" y2="580"/>
    <line x1="574" y1="377" x2="580" y2="377"/>
    <line x1="477" y1="74" x2="477" y2="80"/>
    <line x1="74" y1="477" x2="80" y2="477"/>
    <line x1="477" y1="574" x2="477" y2="580"/>
    <line x1="574" y1="477" x2="580" y2="477"/>
  </g>
  <g stroke="gray" stroke-width="1" stroke-dasharray="5,5">
    <line x1="177" y1="77" x2="177" y2="577"/>
    <line x1="77" y1="177" x2="577" y2="177"/>
    <line x1="277" y1="77" x2="277" y2="577"/>
    <line x1="77" y1="277" x2="577" y2="277"/>
    <line x1="377" y1="77" x2="377" y2="577"/>
    <line x1="77" y1="377" x2="577" y2="377"/>
    <line x1="477" y1="77" x2="477" y2="577"/>
    <line x1="77" y1="477" x2="577" y2="477"/>
  </g>
</svg>
