<?xml version="1.0" standalone="no"?>
<!DOCTYPE svg PUBLIC "-//W3C//DTD SVG 1.1//EN" 
  "http://www.w3.org/Graphics/SVG/1.1/DTD/svg11.dtd">
<svg width="510" height="510" version="1.1" id="toplevel"
    xmlns="http://www.w3.org/2000/svg"
    xmlns:xlink="http://www.w3.org/1999/xlink">
  <polygon points="209,408 332,366 334,334 227,227 267,148 260,127 269,107 263,99 249,94 172,172 172,338 175,345 181,345"
           fill="bisque"/>
  <g stroke="chocolate" stroke-width="1">
    <line x1="268" y1="300" x2="276" y2="276"/>
    <circle cx="268" cy="300" r="2"/>
    <circle cx="276" cy="276" r="2"/>
  </g>
  <g stroke="chocolate" stroke-width="1">
    <line x1="260" y1="262" x2="260" y2="260"/>
    <circle cx="260" cy="262" r="2"/>
    <circle cx="260" cy="260" r="2"/>
  </g>
  <g stroke="chocolate" stroke-width="1">
    <line x1="232" y1="189" x2="263" y2="99"/>
    <circle cx="232" cy="189" r="2"/>
    <circle cx="263" cy="99" r="2"/>
  </g>
  <g stroke="chocolate" stroke-width="1">
    <line x1="172" y1="338" x2="267" y2="148"/>
    <circle cx="172" cy="338" r="2"/>
    <circle cx="267" cy="148" r="2"/>
  </g>
  <g stroke="chocolate" stroke-width="1">
    <line x1="172" y1="324" x2="269" y2="107"/>
    <circle cx="172" cy="324" r="2"/>
    <circle cx="269" cy="107" r="2"/>
  </g>
  <g stroke="chocolate" stroke-width="1">
    <line x1="196" y1="259" x2="237" y2="106"/>
    <circle cx="196" cy="259" r="2"/>
    <circle cx="237" cy="106" r="2"/>
  </g>
  <g stroke="chocolate" stroke-width="1">
    <line x1="332" y1="366" x2="334" y2="334"/>
    <circle cx="332" cy="366" r="2"/>
    <circle cx="334" cy="334" r="2"/>
  </g>
  <g stroke="chocolate" stroke-width="1">
    <line x1="172" y1="296" x2="232" y2="189"/>
    <circle cx="172" cy="296" r="2"/>
    <circle cx="232" cy="189" r="2"/>
  </g>
  <g stroke="chocolate" stroke-width="1">
    <line x1="253" y1="383" x2="262" y2="262"/>
    <circle cx="253" cy="383" r="2"/>
    <circle cx="262" cy="262" r="2"/>
  </g>
  <g stroke="chocolate" stroke-width="1">
    <line x1="175" y1="345" x2="196" y2="321"/>
    <circle cx="175" cy="345" r="2"/>
    <circle cx="196" cy="321" r="2"/>
  </g>
  <g stroke="chocolate" stroke-width="1">
    <line x1="225" y1="232" x2="234" y2="110"/>
    <circle cx="225" cy="232" r="2"/>
    <circle cx="234" cy="110" r="2"/>
  </g>
  <g stroke="chocolate" stroke-width="1">
    <line x1="209" y1="408" x2="253" y2="383"/>
    <circle cx="209" cy="408" r="2"/>
    <circle cx="253" cy="383" r="2"/>
  </g>
  <g stroke="chocolate" stroke-width="1">
    <line x1="189" y1="362" x2="268" y2="293"/>
    <circle cx="189" cy="362" r="2"/>
    <circle cx="268" cy="293" r="2"/>
  </g>
  <g stroke="chocolate" stroke-width="1">
    <line x1="196" y1="321" x2="203" y2="189"/>
    <circle cx="196" cy="321" r="2"/>
    <circle cx="203" cy="189" r="2"/>
  </g>
  <g stroke="chocolate" stroke-width="1">
    <line x1="172" y1="286" x2="226" y2="207"/>
    <circle cx="172" cy="286" r="2"/>
    <circle cx="226" cy="207" r="2"/>
  </g>
  <g stroke="chocolate" stroke-width="1">
    <line x1="172" y1="338" x2="172" y2="172"/>
    <circle cx="172" cy="338" r="2"/>
    <circle cx="172" cy="172" r="2"/>
  </g>
  <g stroke="chocolate" stroke-width="1">
    <line x1="264" y1="118" x2="263" y2="99"/>
    <circle cx="264" cy="118" r="2"/>
    <circle cx="263" cy="99" r="2"/>
  </g>
  <g stroke="chocolate" stroke-width="1">
    <line x1="209" y1="408" x2="332" y2="366"/>
    <circle cx="209" cy="408" r="2"/>
    <circle cx="332" cy="366" r="2"/>
  </g>
  <g stroke="chocolate" stroke-width="1">
    <line x1="195" y1="258" x2="225" y2="232"/>
    <circle cx="195" cy="258" r="2"/>
    <circle cx="225" cy="232" r="2"/>
  </g>
  <g stroke="chocolate" stroke-width="1">
    <line x1="229" y1="224" x2="226" y2="207"/>
    <circle cx="229" cy="224" r="2"/>
    <circle cx="226" cy="207" r="2"/>
  </g>
  <g stroke="chocolate" stroke-width="1">
    <line x1="172" y1="311" x2="260" y2="260"/>
    <circle cx="172" cy="311" r="2"/>
    <circle cx="260" cy="260" r="2"/>
  </g>
  <g stroke="chocolate" stroke-width="1">
    <line x1="172" y1="172" x2="249" y2="94"/>
    <circle cx="172" cy="172" r="2"/>
    <circle cx="249" cy="94" r="2"/>
  </g>
  <g stroke="chocolate" stroke-width="1">
    <line x1="214" y1="253" x2="188" y2="174"/>
    <circle cx="214" cy="253" r="2"/>
    <circle cx="188" cy="174" r="2"/>
  </g>
  <g stroke="chocolate" stroke-width="1">
    <line x1="209" y1="408" x2="172" y2="324"/>
    <circle cx="209" cy="408" r="2"/>
    <circle cx="172" cy="324" r="2"/>
  </g>
  <g stroke="chocolate" stroke-width="1">
    <line x1="175" y1="345" x2="172" y2="338"/>
    <circle cx="175" cy="345" r="2"/>
    <circle cx="172" cy="338" r="2"/>
  </g>
  <g stroke="chocolate" stroke-width="1">
    <line x1="172" y1="190" x2="264" y2="118"/>
    <circle cx="172" cy="190" r="2"/>
    <circle cx="264" cy="118" r="2"/>
  </g>
  <g stroke="chocolate" stroke-width="1">
    <line x1="267" y1="148" x2="249" y2="94"/>
    <circle cx="267" cy="148" r="2"/>
    <circle cx="249" cy="94" r="2"/>
  </g>
  <g stroke="chocolate" stroke-width="1">
    <line x1="189" y1="362" x2="208" y2="360"/>
    <circle cx="189" cy="362" r="2"/>
    <circle cx="208" cy="360" r="2"/>
  </g>
  <g stroke="chocolate" stroke-width="1">
    <line x1="229" y1="396" x2="172" y2="296"/>
    <circle cx="229" cy="396" r="2"/>
    <circle cx="172" cy="296" r="2"/>
  </g>
  <g stroke="chocolate" stroke-width="1">
    <line x1="172" y1="312" x2="276" y2="276"/>
    <circle cx="172" cy="312" r="2"/>
    <circle cx="276" cy="276" r="2"/>
  </g>
  <g stroke="chocolate" stroke-width="1">
    <line x1="215" y1="252" x2="207" y2="235"/>
    <circle cx="215" cy="252" r="2"/>
    <circle cx="207" cy="235" r="2"/>
  </g>
  <g stroke="chocolate" stroke-width="1">
    <line x1="207" y1="235" x2="229" y2="224"/>
    <circle cx="207" cy="235" r="2"/>
    <circle cx="229" cy="224" r="2"/>
  </g>
  <g stroke="chocolate" stroke-width="1">
    <line x1="175" y1="345" x2="334" y2="334"/>
    <circle cx="175" cy="345" r="2"/>
    <circle cx="334" cy="334" r="2"/>
  </g>
  <g stroke="chocolate" stroke-width="1">
    <line x1="196" y1="321" x2="172" y2="286"/>
    <circle cx="196" cy="321" r="2"/>
    <circle cx="172" cy="286" r="2"/>
  </g>
  <g stroke="chocolate" stroke-width="1">
    <line x1="172" y1="268" x2="214" y2="253"/>
    <circle cx="172" cy="268" r="2"/>
    <circle cx="214" cy="253" r="2"/>
  </g>
  <g stroke="chocolate" stroke-width="1">
    <line x1="253" y1="383" x2="208" y2="360"/>
    <circle cx="253" cy="383" r="2"/>
    <circle cx="208" cy="360" r="2"/>
  </g>
  <g stroke="chocolate" stroke-width="1">
    <line x1="206" y1="270" x2="195" y2="258"/>
    <circle cx="206" cy="270" r="2"/>
    <circle cx="195" cy="258" r="2"/>
  </g>
  <g stroke="chocolate" stroke-width="1">
    <line x1="206" y1="270" x2="196" y2="259"/>
    <circle cx="206" cy="270" r="2"/>
    <circle cx="196" cy="259" r="2"/>
  </g>
  <g stroke="chocolate" stroke-width="1">
    <line x1="172" y1="260" x2="215" y2="252"/>
    <circle cx="172" cy="260" r="2"/>
    <circle cx="215" cy="252" r="2"/>
  </g>
  <g stroke="chocolate" stroke-width="1">
    <line x1="260" y1="262" x2="253" y2="253"/>
    <circle cx="260" cy="262" r="2"/>
    <circle cx="253" cy="253" r="2"/>
  </g>
  <g stroke="chocolate" stroke-width="1">
    <line x1="177" y1="314" x2="172" y2="311"/>
    <circle cx="177" cy="314" r="2"/>
    <circle cx="172" cy="311" r="2"/>
  </g>
  <g stroke="chocolate" stroke-width="1">
    <line x1="332" y1="366" x2="268" y2="293"/>
    <circle cx="332" cy="366" r="2"/>
    <circle cx="268" cy="293" r="2"/>
  </g>
  <g stroke="chocolate" stroke-width="1">
    <line x1="172" y1="267" x2="199" y2="265"/>
    <circle cx="172" cy="267" r="2"/>
    <circle cx="199" cy="265" r="2"/>
  </g>
  <g stroke="chocolate" stroke-width="1">
    <line x1="177" y1="314" x2="172" y2="312"/>
    <circle cx="177" cy="314" r="2"/>
    <circle cx="172" cy="312" r="2"/>
  </g>
  <g stroke="chocolate" stroke-width="1">
    <line x1="172" y1="268" x2="262" y2="262"/>
    <circle cx="172" cy="268" r="2"/>
    <circle cx="262" cy="262" r="2"/>
  </g>
  <g stroke="chocolate" stroke-width="1">
    <line x1="172" y1="179" x2="267" y2="148"/>
    <circle cx="172" cy="179" r="2"/>
    <circle cx="267" cy="148" r="2"/>
  </g>
  <g stroke="chocolate" stroke-width="1">
    <line x1="206" y1="270" x2="172" y2="268"/>
    <circle cx="206" cy="270" r="2"/>
    <circle cx="172" cy="268" r="2"/>
  </g>
  <g stroke="chocolate" stroke-width="1">
    <line x1="206" y1="270" x2="172" y2="267"/>
    <circle cx="206" cy="270" r="2"/>
    <circle cx="172" cy="267" r="2"/>
  </g>
  <g stroke="chocolate" stroke-width="1">
    <line x1="334" y1="334" x2="172" y2="172"/>
    <circle cx="334" cy="334" r="2"/>
    <circle cx="172" cy="172" r="2"/>
  </g>
  <g stroke="chocolate" stroke-width="1">
    <line x1="172" y1="196" x2="203" y2="189"/>
    <circle cx="172" cy="196" r="2"/>
    <circle cx="203" cy="189" r="2"/>
  </g>
  <g stroke="chocolate" stroke-width="1">
    <line x1="268" y1="300" x2="172" y2="268"/>
    <circle cx="268" cy="300" r="2"/>
    <circle cx="172" cy="268" r="2"/>
  </g>
  <g stroke="chocolate" stroke-width="1">
    <line x1="199" y1="265" x2="172" y2="260"/>
    <circle cx="199" cy="265" r="2"/>
    <circle cx="172" cy="260" r="2"/>
  </g>
  <g stroke="chocolate" stroke-width="1">
    <line x1="269" y1="107" x2="263" y2="99"/>
    <circle cx="269" cy="107" r="2"/>
    <circle cx="263" cy="99" r="2"/>
  </g>
  <g stroke="chocolate" stroke-width="1">
    <line x1="253" y1="253" x2="172" y2="190"/>
    <circle cx="253" cy="253" r="2"/>
    <circle cx="172" cy="190" r="2"/>
  </g>
  <g stroke="chocolate" stroke-width="1">
    <line x1="237" y1="106" x2="263" y2="99"/>
    <circle cx="237" cy="106" r="2"/>
    <circle cx="263" cy="99" r="2"/>
  </g>
  <g stroke="chocolate" stroke-width="1">
    <line x1="226" y1="207" x2="172" y2="196"/>
    <circle cx="226" cy="207" r="2"/>
    <circle cx="172" cy="196" r="2"/>
  </g>
  <g stroke="chocolate" stroke-width="1">
    <line x1="203" y1="189" x2="172" y2="179"/>
    <circle cx="203" cy="189" r="2"/>
    <circle cx="172" cy="179" r="2"/>
  </g>
  <g stroke="chocolate" stroke-width="1">
    <line x1="234" y1="110" x2="269" y2="107"/>
    <circle cx="234" cy="110" r="2"/>
    <circle cx="269" cy="107" r="2"/>
  </g>
  <g stroke="chocolate" stroke-width="1">
    <line x1="263" y1="99" x2="249" y2="94"/>
    <circle cx="263" cy="99" r="2"/>
    <circle cx="249" cy="94" r="2"/>
  </g>
  <g stroke="black" stroke-width="1">
    <line x1="5" y1="5" x2="505" y2="5"/>
    <line x1="5" y1="5" x2="5" y2="505"/>
    <line x1="505" y1="505" x2="5" y2="505"/>
    <line x1="505" y1="505" x2="505" y2="5"/>
    <line x1="105" y1="2" x2="105" y2="8"/>
    <line x1="2" y1="105" x2="8" y2="105"/>
    <line x1="105" y1="502" x2="105" y2="508"/>
    <line x1="502" y1="105" x2="508" y2="105"/>
    <line x1="205" y1="2" x2="205" y2="8"/>
    <line x1="2" y1="205" x2="8" y2="205"/>
    <line x1="205" y1="502" x2="205" y2="508"/>
    <line x1="502" y1="205" x2="508" y2="205"/>
    <line x1="305" y1="2" x2="305" y2="8"/>
    <line x1="2" y1="305" x2="8" y2="305"/>
    <line x1="305" y1="502" x2="305" y2="508"/>
    <line x1="502" y1="305" x2="508" y2="305"/>
    <line x1="405" y1="2" x2="405" y2="8"/>
    <line x1="2" y1="405" x2="8" y2="405"/>
    <line x1="405" y1="502" x2="405" y2="508"/>
    <line x1="502" y1="405" x2="508" y2="405"/>
  </g>
  <g stroke="gray" stroke-width="1" stroke-dasharray="5,5">
    <line x1="105" y1="5" x2="105" y2="505"/>
    <line x1="5" y1="105" x2="505" y2="105"/>
    <line x1="205" y1="5" x2="205" y2="505"/>
    <line x1="5" y1="205" x2="505" y2="205"/>
    <line x1="305" y1="5" x2="305" y2="505"/>
    <line x1="5" y1="305" x2="505" y2="305"/>
    <line x1="405" y1="5" x2="405" y2="505"/>
    <line x1="5" y1="405" x2="505" y2="405"/>
  </g>
</svg>
