<?xml version="1.0" standalone="no"?>
<!DOCTYPE svg PUBLIC "-//W3C//DTD SVG 1.1//EN" 
  "http://www.w3.org/Graphics/SVG/1.1/DTD/svg11.dtd">
<svg width="510" height="510" version="1.1" id="toplevel"
    xmlns="http://www.w3.org/2000/svg"
    xmlns:xlink="http://www.w3.org/1999/xlink">
  <polygon points="157,382 201,343 273,340 280,309 333,297 318,289 365,267 308,245 375,184 381,141 395,129 383,128 115,346"
           fill="bisque"/>
  <g stroke="chocolate" stroke-width="1">
    <line x1="146" y1="339" x2="144" y2="322"/>
    <circle cx="146" cy="339" r="2"/>
    <circle cx="144" cy="322" r="2"/>
  </g>
  <g stroke="chocolate" stroke-width="1">
    <line x1="146" y1="339" x2="142" y2="324"/>
    <circle cx="146" cy="339" r="2"/>
    <circle cx="142" cy="324" r="2"/>
  </g>
  <g stroke="chocolate" stroke-width="1">
    <line x1="156" y1="344" x2="148" y2="319"/>
    <circle cx="156" cy="344" r="2"/>
    <circle cx="148" cy="319" r="2"/>
  </g>
  <g stroke="chocolate" stroke-width="1">
    <line x1="268" y1="281" x2="260" y2="228"/>
    <circle cx="268" cy="281" r="2"/>
    <circle cx="260" cy="228" r="2"/>
  </g>
  <g stroke="chocolate" stroke-width="1">
    <line x1="214" y1="342" x2="212" y2="267"/>
    <circle cx="214" cy="342" r="2"/>
    <circle cx="212" cy="267" r="2"/>
  </g>
  <g stroke="chocolate" stroke-width="1">
    <line x1="134" y1="342" x2="134" y2="330"/>
    <circle cx="134" cy="342" r="2"/>
    <circle cx="134" cy="330" r="2"/>
  </g>
  <g stroke="chocolate" stroke-width="1">
    <line x1="134" y1="342" x2="130" y2="333"/>
    <circle cx="134" cy="342" r="2"/>
    <circle cx="130" cy="333" r="2"/>
  </g>
  <g stroke="chocolate" stroke-width="1">
    <line x1="273" y1="340" x2="241" y2="243"/>
    <circle cx="273" cy="340" r="2"/>
    <circle cx="241" cy="243" r="2"/>
  </g>
  <g stroke="chocolate" stroke-width="1">
    <line x1="165" y1="344" x2="151" y2="316"/>
    <circle cx="165" cy="344" r="2"/>
    <circle cx="151" cy="316" r="2"/>
  </g>
  <g stroke="chocolate" stroke-width="1">
    <line x1="375" y1="184" x2="383" y2="128"/>
    <circle cx="375" cy="184" r="2"/>
    <circle cx="383" cy="128" r="2"/>
  </g>
  <g stroke="chocolate" stroke-width="1">
    <line x1="273" y1="340" x2="311" y2="186"/>
    <circle cx="273" cy="340" r="2"/>
    <circle cx="311" cy="186" r="2"/>
  </g>
  <g stroke="chocolate" stroke-width="1">
    <line x1="156" y1="344" x2="166" y2="304"/>
    <circle cx="156" cy="344" r="2"/>
    <circle cx="166" cy="304" r="2"/>
  </g>
  <g stroke="chocolate" stroke-width="1">
    <line x1="165" y1="344" x2="167" y2="337"/>
    <circle cx="165" cy="344" r="2"/>
    <circle cx="167" cy="337" r="2"/>
  </g>
  <g stroke="chocolate" stroke-width="1">
    <line x1="157" y1="382" x2="115" y2="346"/>
    <circle cx="157" cy="382" r="2"/>
    <circle cx="115" cy="346" r="2"/>
  </g>
  <g stroke="chocolate" stroke-width="1">
    <line x1="146" y1="345" x2="130" y2="333"/>
    <circle cx="146" cy="345" r="2"/>
    <circle cx="130" cy="333" r="2"/>
  </g>
  <g stroke="chocolate" stroke-width="1">
    <line x1="185" y1="341" x2="151" y2="316"/>
    <circle cx="185" cy="341" r="2"/>
    <circle cx="151" cy="316" r="2"/>
  </g>
  <g stroke="chocolate" stroke-width="1">
    <line x1="157" y1="382" x2="185" y2="341"/>
    <circle cx="157" cy="382" r="2"/>
    <circle cx="185" cy="341" r="2"/>
  </g>
  <g stroke="chocolate" stroke-width="1">
    <line x1="185" y1="341" x2="148" y2="319"/>
    <circle cx="185" cy="341" r="2"/>
    <circle cx="148" cy="319" r="2"/>
  </g>
  <g stroke="chocolate" stroke-width="1">
    <line x1="167" y1="337" x2="142" y2="324"/>
    <circle cx="167" cy="337" r="2"/>
    <circle cx="142" cy="324" r="2"/>
  </g>
  <g stroke="chocolate" stroke-width="1">
    <line x1="333" y1="297" x2="241" y2="243"/>
    <circle cx="333" cy="297" r="2"/>
    <circle cx="241" cy="243" r="2"/>
  </g>
  <g stroke="chocolate" stroke-width="1">
    <line x1="157" y1="382" x2="375" y2="184"/>
    <circle cx="157" cy="382" r="2"/>
    <circle cx="375" cy="184" r="2"/>
  </g>
  <g stroke="chocolate" stroke-width="1">
    <line x1="200" y1="343" x2="144" y2="322"/>
    <circle cx="200" cy="343" r="2"/>
    <circle cx="144" cy="322" r="2"/>
  </g>
  <g stroke="chocolate" stroke-width="1">
    <line x1="146" y1="345" x2="395" y2="129"/>
    <circle cx="146" cy="345" r="2"/>
    <circle cx="395" cy="129" r="2"/>
  </g>
  <g stroke="chocolate" stroke-width="1">
    <line x1="115" y1="346" x2="383" y2="128"/>
    <circle cx="115" cy="346" r="2"/>
    <circle cx="383" cy="128" r="2"/>
  </g>
  <g stroke="chocolate" stroke-width="1">
    <line x1="365" y1="267" x2="260" y2="228"/>
    <circle cx="365" cy="267" r="2"/>
    <circle cx="260" cy="228" r="2"/>
  </g>
  <g stroke="chocolate" stroke-width="1">
    <line x1="167" y1="337" x2="134" y2="330"/>
    <circle cx="167" cy="337" r="2"/>
    <circle cx="134" cy="330" r="2"/>
  </g>
  <g stroke="chocolate" stroke-width="1">
    <line x1="333" y1="297" x2="212" y2="267"/>
    <circle cx="333" cy="297" r="2"/>
    <circle cx="212" cy="267" r="2"/>
  </g>
  <g stroke="chocolate" stroke-width="1">
    <line x1="200" y1="343" x2="365" y2="267"/>
    <circle cx="200" cy="343" r="2"/>
    <circle cx="365" cy="267" r="2"/>
  </g>
  <g stroke="chocolate" stroke-width="1">
    <line x1="115" y1="346" x2="273" y2="340"/>
    <circle cx="115" cy="346" r="2"/>
    <circle cx="273" cy="340" r="2"/>
  </g>
  <g stroke="chocolate" stroke-width="1">
    <line x1="115" y1="346" x2="333" y2="297"/>
    <circle cx="115" cy="346" r="2"/>
    <circle cx="333" cy="297" r="2"/>
  </g>
  <g stroke="chocolate" stroke-width="1">
    <line x1="166" y1="304" x2="333" y2="297"/>
    <circle cx="166" cy="304" r="2"/>
    <circle cx="333" cy="297" r="2"/>
  </g>
  <g stroke="chocolate" stroke-width="1">
    <line x1="311" y1="186" x2="375" y2="184"/>
    <circle cx="311" cy="186" r="2"/>
    <circle cx="375" cy="184" r="2"/>
  </g>
  <g stroke="chocolate" stroke-width="1">
    <line x1="395" y1="129" x2="383" y2="128"/>
    <circle cx="395" cy="129" r="2"/>
    <circle cx="383" cy="128" r="2"/>
  </g>
  <g stroke="black" stroke-width="1">
    <line x1="5" y1="5" x2="505" y2="5"/>
    <line x1="5" y1="5" x2="5" y2="505"/>
    <line x1="505" y1="505" x2="5" y2="505"/>
    <line x1="505" y1="505" x2="505" y2="5"/>
    <line x1="105" y1="2" x2="105" y2="8"/>
    <line x1="2" y1="105" x2="8" y2="105"/>
    <line x1="105" y1="502" x2="105" y2="508"/>
    <line x1="502" y1="105" x2="508" y2="105"/>
    <line x1="205" y1="2" x2="205" y2="8"/>
    <line x1="2" y1="205" x2="8" y2="205"/>
    <line x1="205" y1="502" x2="205" y2="508"/>
    <line x1="502" y1="205" x2="508" y2="205"/>
    <line x1="305" y1="2" x2="305" y2="8"/>
    <line x1="2" y1="305" x2="8" y2="305"/>
    <line x1="305" y1="502" x2="305" y2="508"/>
    <line x1="502" y1="305" x2="508" y2="305"/>
    <line x1="405" y1="2" x2="405" y2="8"/>
    <line x1="2" y1="405" x2="8" y2="405"/>
    <line x1="405" y1="502" x2="405" y2="508"/>
    <line x1="502" y1="405" x2="508" y2="405"/>
  </g>
  <g stroke="gray" stroke-width="1" stroke-dasharray="5,5">
    <line x1="105" y1="5" x2="105" y2="505"/>
    <line x1="5" y1="105" x2="505" y2="105"/>
    <line x1="205" y1="5" x2="205" y2="505"/>
    <line x1="5" y1="205" x2="505" y2="205"/>
    <line x1="305" y1="5" x2="305" y2="505"/>
    <line x1="5" y1="305" x2="505" y2="305"/>
    <line x1="405" y1="5" x2="405" y2="505"/>
    <line x1="5" y1="405" x2="505" y2="405"/>
  </g>
</svg>
