<?xml version="1.0" standalone="no"?>
<!DOCTYPE svg PUBLIC "-//W3C//DTD SVG 1.1//EN" 
  "http://www.w3.org/Graphics/SVG/1.1/DTD/svg11.dtd">
<svg width="510" height="510" version="1.1" id="toplevel"
    xmlns="http://www.w3.org/2000/svg"
    xmlns:xlink="http://www.w3.org/1999/xlink">
  <polygon points="57,469 58,465 61,465 67,460 68,460 68,459 69,457 80,458 290,250 88,41 84,41 76,93 59,104 31,465"
           fill="bisque"/>
  <g stroke="chocolate" stroke-width="1">
    <line x1="80" y1="458" x2="290" y2="250"/>
    <circle cx="80" cy="458" r="2"/>
    <circle cx="290" cy="250" r="2"/>
  </g>
  <g stroke="chocolate" stroke-width="1">
    <line x1="61" y1="465" x2="290" y2="250"/>
    <circle cx="61" cy="465" r="2"/>
    <circle cx="290" cy="250" r="2"/>
  </g>
  <g stroke="chocolate" stroke-width="1">
    <line x1="181" y1="200" x2="198" y2="155"/>
    <circle cx="181" cy="200" r="2"/>
    <circle cx="198" cy="155" r="2"/>
  </g>
  <g stroke="chocolate" stroke-width="1">
    <line x1="57" y1="469" x2="95" y2="222"/>
    <circle cx="57" cy="469" r="2"/>
    <circle cx="95" cy="222" r="2"/>
  </g>
  <g stroke="chocolate" stroke-width="1">
    <line x1="68" y1="460" x2="103" y2="145"/>
    <circle cx="68" cy="460" r="2"/>
    <circle cx="103" cy="145" r="2"/>
  </g>
  <g stroke="chocolate" stroke-width="1">
    <line x1="61" y1="465" x2="88" y2="41"/>
    <circle cx="61" cy="465" r="2"/>
    <circle cx="88" cy="41" r="2"/>
  </g>
  <g stroke="chocolate" stroke-width="1">
    <line x1="71" y1="122" x2="84" y2="41"/>
    <circle cx="71" cy="122" r="2"/>
    <circle cx="84" cy="41" r="2"/>
  </g>
  <g stroke="chocolate" stroke-width="1">
    <line x1="31" y1="465" x2="59" y2="104"/>
    <circle cx="31" cy="465" r="2"/>
    <circle cx="59" cy="104" r="2"/>
  </g>
  <g stroke="chocolate" stroke-width="1">
    <line x1="31" y1="465" x2="61" y2="465"/>
    <circle cx="31" cy="465" r="2"/>
    <circle cx="61" cy="465" r="2"/>
  </g>
  <g stroke="chocolate" stroke-width="1">
    <line x1="80" y1="458" x2="71" y2="122"/>
    <circle cx="80" cy="458" r="2"/>
    <circle cx="71" cy="122" r="2"/>
  </g>
  <g stroke="chocolate" stroke-width="1">
    <line x1="57" y1="469" x2="31" y2="465"/>
    <circle cx="57" cy="469" r="2"/>
    <circle cx="31" cy="465" r="2"/>
  </g>
  <g stroke="chocolate" stroke-width="1">
    <line x1="80" y1="458" x2="32" y2="456"/>
    <circle cx="80" cy="458" r="2"/>
    <circle cx="32" cy="456" r="2"/>
  </g>
  <g stroke="chocolate" stroke-width="1">
    <line x1="68" y1="460" x2="32" y2="456"/>
    <circle cx="68" cy="460" r="2"/>
    <circle cx="32" cy="456" r="2"/>
  </g>
  <g stroke="chocolate" stroke-width="1">
    <line x1="71" y1="122" x2="96" y2="49"/>
    <circle cx="71" cy="122" r="2"/>
    <circle cx="96" cy="49" r="2"/>
  </g>
  <g stroke="chocolate" stroke-width="1">
    <line x1="93" y1="50" x2="91" y2="43"/>
    <circle cx="93" cy="50" r="2"/>
    <circle cx="91" cy="43" r="2"/>
  </g>
  <g stroke="chocolate" stroke-width="1">
    <line x1="56" y1="146" x2="114" y2="67"/>
    <circle cx="56" cy="146" r="2"/>
    <circle cx="114" cy="67" r="2"/>
  </g>
  <g stroke="chocolate" stroke-width="1">
    <line x1="95" y1="222" x2="56" y2="146"/>
    <circle cx="95" cy="222" r="2"/>
    <circle cx="56" cy="146" r="2"/>
  </g>
  <g stroke="chocolate" stroke-width="1">
    <line x1="103" y1="145" x2="59" y2="104"/>
    <circle cx="103" cy="145" r="2"/>
    <circle cx="59" cy="104" r="2"/>
  </g>
  <g stroke="chocolate" stroke-width="1">
    <line x1="59" y1="104" x2="114" y2="67"/>
    <circle cx="59" cy="104" r="2"/>
    <circle cx="114" cy="67" r="2"/>
  </g>
  <g stroke="chocolate" stroke-width="1">
    <line x1="51" y1="200" x2="198" y2="155"/>
    <circle cx="51" cy="200" r="2"/>
    <circle cx="198" cy="155" r="2"/>
  </g>
  <g stroke="chocolate" stroke-width="1">
    <line x1="95" y1="222" x2="51" y2="200"/>
    <circle cx="95" cy="222" r="2"/>
    <circle cx="51" cy="200" r="2"/>
  </g>
  <g stroke="chocolate" stroke-width="1">
    <line x1="290" y1="250" x2="88" y2="41"/>
    <circle cx="290" cy="250" r="2"/>
    <circle cx="88" cy="41" r="2"/>
  </g>
  <g stroke="chocolate" stroke-width="1">
    <line x1="55" y1="155" x2="103" y2="145"/>
    <circle cx="55" cy="155" r="2"/>
    <circle cx="103" cy="145" r="2"/>
  </g>
  <g stroke="chocolate" stroke-width="1">
    <line x1="181" y1="200" x2="55" y2="155"/>
    <circle cx="181" cy="200" r="2"/>
    <circle cx="55" cy="155" r="2"/>
  </g>
  <g stroke="chocolate" stroke-width="1">
    <line x1="93" y1="50" x2="96" y2="49"/>
    <circle cx="93" cy="50" r="2"/>
    <circle cx="96" cy="49" r="2"/>
  </g>
  <g stroke="chocolate" stroke-width="1">
    <line x1="91" y1="43" x2="84" y2="41"/>
    <circle cx="91" cy="43" r="2"/>
    <circle cx="84" cy="41" r="2"/>
  </g>
  <g stroke="chocolate" stroke-width="1">
    <line x1="84" y1="41" x2="88" y2="41"/>
    <circle cx="84" cy="41" r="2"/>
    <circle cx="88" cy="41" r="2"/>
  </g>
  <g stroke="black" stroke-width="1">
    <line x1="5" y1="5" x2="505" y2="5"/>
    <line x1="5" y1="5" x2="5" y2="505"/>
    <line x1="505" y1="505" x2="5" y2="505"/>
    <line x1="505" y1="505" x2="505" y2="5"/>
    <line x1="105" y1="2" x2="105" y2="8"/>
    <line x1="2" y1="105" x2="8" y2="105"/>
    <line x1="105" y1="502" x2="105" y2="508"/>
    <line x1="502" y1="105" x2="508" y2="105"/>
    <line x1="205" y1="2" x2="205" y2="8"/>
    <line x1="2" y1="205" x2="8" y2="205"/>
    <line x1="205" y1="502" x2="205" y2="508"/>
    <line x1="502" y1="205" x2="508" y2="205"/>
    <line x1="305" y1="2" x2="305" y2="8"/>
    <line x1="2" y1="305" x2="8" y2="305"/>
    <line x1="305" y1="502" x2="305" y2="508"/>
    <line x1="502" y1="305" x2="508" y2="305"/>
    <line x1="405" y1="2" x2="405" y2="8"/>
    <line x1="2" y1="405" x2="8" y2="405"/>
    <line x1="405" y1="502" x2="405" y2="508"/>
    <line x1="502" y1="405" x2="508" y2="405"/>
  </g>
  <g stroke="gray" stroke-width="1" stroke-dasharray="5,5">
    <line x1="105" y1="5" x2="105" y2="505"/>
    <line x1="5" y1="105" x2="505" y2="105"/>
    <line x1="205" y1="5" x2="205" y2="505"/>
    <line x1="5" y1="205" x2="505" y2="205"/>
    <line x1="305" y1="5" x2="305" y2="505"/>
    <line x1="5" y1="305" x2="505" y2="305"/>
    <line x1="405" y1="5" x2="405" y2="505"/>
    <line x1="5" y1="405" x2="505" y2="405"/>
  </g>
</svg>
