<?xml version="1.0" standalone="no"?>
<!DOCTYPE svg PUBLIC "-//W3C//DTD SVG 1.1//EN" 
  "http://www.w3.org/Graphics/SVG/1.1/DTD/svg11.dtd">
<svg width="510" height="510" version="1.1" id="toplevel"
    xmlns="http://www.w3.org/2000/svg"
    xmlns:xlink="http://www.w3.org/1999/xlink">
  <polygon points="380,322 381,322 372,312 372,312 372,309 378,309 378,305 256,188 129,312 129,315"
           fill="bisque"/>
  <g stroke="chocolate" stroke-width="1">
    <line x1="380" y1="322" x2="381" y2="322"/>
    <circle cx="380" cy="322" r="2"/>
    <circle cx="381" cy="322" r="2"/>
  </g>
  <g stroke="chocolate" stroke-width="1">
    <line x1="380" y1="322" x2="381" y2="322"/>
    <circle cx="380" cy="322" r="2"/>
    <circle cx="381" cy="322" r="2"/>
  </g>
  <g stroke="chocolate" stroke-width="1">
    <line x1="129" y1="312" x2="256" y2="188"/>
    <circle cx="129" cy="312" r="2"/>
    <circle cx="256" cy="188" r="2"/>
  </g>
  <g stroke="chocolate" stroke-width="1">
    <line x1="129" y1="315" x2="129" y2="312"/>
    <circle cx="129" cy="315" r="2"/>
    <circle cx="129" cy="312" r="2"/>
  </g>
  <g stroke="chocolate" stroke-width="1">
    <line x1="132" y1="315" x2="132" y2="309"/>
    <circle cx="132" cy="315" r="2"/>
    <circle cx="132" cy="309" r="2"/>
  </g>
  <g stroke="chocolate" stroke-width="1">
    <line x1="130" y1="315" x2="130" y2="311"/>
    <circle cx="130" cy="315" r="2"/>
    <circle cx="130" cy="311" r="2"/>
  </g>
  <g stroke="chocolate" stroke-width="1">
    <line x1="131" y1="315" x2="132" y2="310"/>
    <circle cx="131" cy="315" r="2"/>
    <circle cx="132" cy="310" r="2"/>
  </g>
  <g stroke="chocolate" stroke-width="1">
    <line x1="131" y1="315" x2="132" y2="310"/>
    <circle cx="131" cy="315" r="2"/>
    <circle cx="132" cy="310" r="2"/>
  </g>
  <g stroke="chocolate" stroke-width="1">
    <line x1="129" y1="312" x2="378" y2="305"/>
    <circle cx="129" cy="312" r="2"/>
    <circle cx="378" cy="305" r="2"/>
  </g>
  <g stroke="chocolate" stroke-width="1">
    <line x1="130" y1="315" x2="130" y2="311"/>
    <circle cx="130" cy="315" r="2"/>
    <circle cx="130" cy="311" r="2"/>
  </g>
  <g stroke="chocolate" stroke-width="1">
    <line x1="132" y1="315" x2="132" y2="309"/>
    <circle cx="132" cy="315" r="2"/>
    <circle cx="132" cy="309" r="2"/>
  </g>
  <g stroke="chocolate" stroke-width="1">
    <line x1="129" y1="315" x2="129" y2="312"/>
    <circle cx="129" cy="315" r="2"/>
    <circle cx="129" cy="312" r="2"/>
  </g>
  <g stroke="chocolate" stroke-width="1">
    <line x1="130" y1="311" x2="375" y2="307"/>
    <circle cx="130" cy="311" r="2"/>
    <circle cx="375" cy="307" r="2"/>
  </g>
  <g stroke="chocolate" stroke-width="1">
    <line x1="132" y1="309" x2="377" y2="304"/>
    <circle cx="132" cy="309" r="2"/>
    <circle cx="377" cy="304" r="2"/>
  </g>
  <g stroke="chocolate" stroke-width="1">
    <line x1="132" y1="310" x2="377" y2="306"/>
    <circle cx="132" cy="310" r="2"/>
    <circle cx="377" cy="306" r="2"/>
  </g>
  <g stroke="chocolate" stroke-width="1">
    <line x1="130" y1="311" x2="378" y2="309"/>
    <circle cx="130" cy="311" r="2"/>
    <circle cx="378" cy="309" r="2"/>
  </g>
  <g stroke="chocolate" stroke-width="1">
    <line x1="132" y1="310" x2="372" y2="307"/>
    <circle cx="132" cy="310" r="2"/>
    <circle cx="372" cy="307" r="2"/>
  </g>
  <g stroke="chocolate" stroke-width="1">
    <line x1="129" y1="312" x2="372" y2="312"/>
    <circle cx="129" cy="312" r="2"/>
    <circle cx="372" cy="312" r="2"/>
  </g>
  <g stroke="chocolate" stroke-width="1">
    <line x1="372" y1="312" x2="372" y2="307"/>
    <circle cx="372" cy="312" r="2"/>
    <circle cx="372" cy="307" r="2"/>
  </g>
  <g stroke="chocolate" stroke-width="1">
    <line x1="132" y1="309" x2="375" y2="308"/>
    <circle cx="132" cy="309" r="2"/>
    <circle cx="375" cy="308" r="2"/>
  </g>
  <g stroke="chocolate" stroke-width="1">
    <line x1="375" y1="308" x2="375" y2="307"/>
    <circle cx="375" cy="308" r="2"/>
    <circle cx="375" cy="307" r="2"/>
  </g>
  <g stroke="chocolate" stroke-width="1">
    <line x1="378" y1="309" x2="378" y2="305"/>
    <circle cx="378" cy="309" r="2"/>
    <circle cx="378" cy="305" r="2"/>
  </g>
  <g stroke="chocolate" stroke-width="1">
    <line x1="380" y1="322" x2="129" y2="315"/>
    <circle cx="380" cy="322" r="2"/>
    <circle cx="129" cy="315" r="2"/>
  </g>
  <g stroke="chocolate" stroke-width="1">
    <line x1="377" y1="306" x2="377" y2="304"/>
    <circle cx="377" cy="306" r="2"/>
    <circle cx="377" cy="304" r="2"/>
  </g>
  <g stroke="chocolate" stroke-width="1">
    <line x1="380" y1="322" x2="254" y2="189"/>
    <circle cx="380" cy="322" r="2"/>
    <circle cx="254" cy="189" r="2"/>
  </g>
  <g stroke="chocolate" stroke-width="1">
    <line x1="380" y1="322" x2="254" y2="190"/>
    <circle cx="380" cy="322" r="2"/>
    <circle cx="254" cy="190" r="2"/>
  </g>
  <g stroke="chocolate" stroke-width="1">
    <line x1="381" y1="322" x2="256" y2="188"/>
    <circle cx="381" cy="322" r="2"/>
    <circle cx="256" cy="188" r="2"/>
  </g>
  <g stroke="chocolate" stroke-width="1">
    <line x1="372" y1="307" x2="254" y2="190"/>
    <circle cx="372" cy="307" r="2"/>
    <circle cx="254" cy="190" r="2"/>
  </g>
  <g stroke="chocolate" stroke-width="1">
    <line x1="375" y1="307" x2="254" y2="189"/>
    <circle cx="375" cy="307" r="2"/>
    <circle cx="254" cy="189" r="2"/>
  </g>
  <g stroke="chocolate" stroke-width="1">
    <line x1="378" y1="305" x2="256" y2="188"/>
    <circle cx="378" cy="305" r="2"/>
    <circle cx="256" cy="188" r="2"/>
  </g>
  <g stroke="black" stroke-width="1">
    <line x1="5" y1="5" x2="505" y2="5"/>
    <line x1="5" y1="5" x2="5" y2="505"/>
    <line x1="505" y1="505" x2="5" y2="505"/>
    <line x1="505" y1="505" x2="505" y2="5"/>
    <line x1="105" y1="2" x2="105" y2="8"/>
    <line x1="2" y1="105" x2="8" y2="105"/>
    <line x1="105" y1="502" x2="105" y2="508"/>
    <line x1="502" y1="105" x2="508" y2="105"/>
    <line x1="205" y1="2" x2="205" y2="8"/>
    <line x1="2" y1="205" x2="8" y2="205"/>
    <line x1="205" y1="502" x2="205" y2="508"/>
    <line x1="502" y1="205" x2="508" y2="205"/>
    <line x1="305" y1="2" x2="305" y2="8"/>
    <line x1="2" y1="305" x2="8" y2="305"/>
    <line x1="305" y1="502" x2="305" y2="508"/>
    <line x1="502" y1="305" x2="508" y2="305"/>
    <line x1="405" y1="2" x2="405" y2="8"/>
    <line x1="2" y1="405" x2="8" y2="405"/>
    <line x1="405" y1="502" x2="405" y2="508"/>
    <line x1="502" y1="405" x2="508" y2="405"/>
  </g>
  <g stroke="gray" stroke-width="1" stroke-dasharray="5,5">
    <line x1="105" y1="5" x2="105" y2="505"/>
    <line x1="5" y1="105" x2="505" y2="105"/>
    <line x1="205" y1="5" x2="205" y2="505"/>
    <line x1="5" y1="205" x2="505" y2="205"/>
    <line x1="305" y1="5" x2="305" y2="505"/>
    <line x1="5" y1="305" x2="505" y2="305"/>
    <line x1="405" y1="5" x2="405" y2="505"/>
    <line x1="5" y1="405" x2="505" y2="405"/>
  </g>
</svg>
