<?xml version="1.0" standalone="no"?>
<!DOCTYPE svg PUBLIC "-//W3C//DTD SVG 1.1//EN" 
  "http://www.w3.org/Graphics/SVG/1.1/DTD/svg11.dtd">
<svg width="544" height="544" version="1.1" id="toplevel"
    xmlns="http://www.w3.org/2000/svg"
    xmlns:xlink="http://www.w3.org/1999/xlink">
  <polygon points="494,441 496,427 497,427 539,191 49,103 7,341 7,341 5,352 493,441 493,441"
           fill="bisque"/>
  <g stroke="chocolate" stroke-width="1">
    <line x1="494" y1="441" x2="493" y2="441"/>
    <circle cx="494" cy="441" r="2"/>
    <circle cx="493" cy="441" r="2"/>
  </g>
  <g stroke="chocolate" stroke-width="1">
    <line x1="494" y1="441" x2="5" y2="352"/>
    <circle cx="494" cy="441" r="2"/>
    <circle cx="5" cy="352" r="2"/>
  </g>
  <g stroke="chocolate" stroke-width="1">
    <line x1="7" y1="352" x2="5" y2="352"/>
    <circle cx="7" cy="352" r="2"/>
    <circle cx="5" cy="352" r="2"/>
  </g>
  <g stroke="chocolate" stroke-width="1">
    <line x1="495" y1="436" x2="494" y2="436"/>
    <circle cx="495" cy="436" r="2"/>
    <circle cx="494" cy="436" r="2"/>
  </g>
  <g stroke="chocolate" stroke-width="1">
    <line x1="495" y1="436" x2="6" y2="346"/>
    <circle cx="495" cy="436" r="2"/>
    <circle cx="6" cy="346" r="2"/>
  </g>
  <g stroke="chocolate" stroke-width="1">
    <line x1="8" y1="347" x2="6" y2="346"/>
    <circle cx="8" cy="347" r="2"/>
    <circle cx="6" cy="346" r="2"/>
  </g>
  <g stroke="chocolate" stroke-width="1">
    <line x1="498" y1="426" x2="303" y2="394"/>
    <circle cx="498" cy="426" r="2"/>
    <circle cx="303" cy="394" r="2"/>
  </g>
  <g stroke="chocolate" stroke-width="1">
    <line x1="498" y1="426" x2="498" y2="426"/>
    <circle cx="498" cy="426" r="2"/>
    <circle cx="498" cy="426" r="2"/>
  </g>
  <g stroke="chocolate" stroke-width="1">
    <line x1="497" y1="427" x2="303" y2="394"/>
    <circle cx="497" cy="427" r="2"/>
    <circle cx="303" cy="394" r="2"/>
  </g>
  <g stroke="chocolate" stroke-width="1">
    <line x1="9" y1="342" x2="7" y2="341"/>
    <circle cx="9" cy="342" r="2"/>
    <circle cx="7" cy="341" r="2"/>
  </g>
  <g stroke="chocolate" stroke-width="1">
    <line x1="303" y1="394" x2="7" y2="341"/>
    <circle cx="303" cy="394" r="2"/>
    <circle cx="7" cy="341" r="2"/>
  </g>
  <g stroke="chocolate" stroke-width="1">
    <line x1="539" y1="191" x2="49" y2="103"/>
    <circle cx="539" cy="191" r="2"/>
    <circle cx="49" cy="103" r="2"/>
  </g>
  <g stroke="chocolate" stroke-width="1">
    <line x1="493" y1="441" x2="539" y2="190"/>
    <circle cx="493" cy="441" r="2"/>
    <circle cx="539" cy="190" r="2"/>
  </g>
  <g stroke="chocolate" stroke-width="1">
    <line x1="494" y1="441" x2="539" y2="191"/>
    <circle cx="494" cy="441" r="2"/>
    <circle cx="539" cy="191" r="2"/>
  </g>
  <g stroke="chocolate" stroke-width="1">
    <line x1="493" y1="441" x2="494" y2="436"/>
    <circle cx="493" cy="441" r="2"/>
    <circle cx="494" cy="436" r="2"/>
  </g>
  <g stroke="chocolate" stroke-width="1">
    <line x1="497" y1="427" x2="539" y2="191"/>
    <circle cx="497" cy="427" r="2"/>
    <circle cx="539" cy="191" r="2"/>
  </g>
  <g stroke="chocolate" stroke-width="1">
    <line x1="497" y1="427" x2="539" y2="190"/>
    <circle cx="497" cy="427" r="2"/>
    <circle cx="539" cy="190" r="2"/>
  </g>
  <g stroke="chocolate" stroke-width="1">
    <line x1="497" y1="427" x2="498" y2="426"/>
    <circle cx="497" cy="427" r="2"/>
    <circle cx="498" cy="426" r="2"/>
  </g>
  <g stroke="chocolate" stroke-width="1">
    <line x1="497" y1="427" x2="498" y2="426"/>
    <circle cx="497" cy="427" r="2"/>
    <circle cx="498" cy="426" r="2"/>
  </g>
  <g stroke="chocolate" stroke-width="1">
    <line x1="7" y1="352" x2="8" y2="347"/>
    <circle cx="7" cy="352" r="2"/>
    <circle cx="8" cy="347" r="2"/>
  </g>
  <g stroke="chocolate" stroke-width="1">
    <line x1="7" y1="352" x2="51" y2="104"/>
    <circle cx="7" cy="352" r="2"/>
    <circle cx="51" cy="104" r="2"/>
  </g>
  <g stroke="chocolate" stroke-width="1">
    <line x1="9" y1="342" x2="51" y2="104"/>
    <circle cx="9" cy="342" r="2"/>
    <circle cx="51" cy="104" r="2"/>
  </g>
  <g stroke="chocolate" stroke-width="1">
    <line x1="5" y1="352" x2="49" y2="103"/>
    <circle cx="5" cy="352" r="2"/>
    <circle cx="49" cy="103" r="2"/>
  </g>
  <g stroke="chocolate" stroke-width="1">
    <line x1="7" y1="341" x2="49" y2="103"/>
    <circle cx="7" cy="341" r="2"/>
    <circle cx="49" cy="103" r="2"/>
  </g>
  <g stroke="black" stroke-width="1">
    <line x1="22" y1="22" x2="522" y2="22"/>
    <line x1="22" y1="22" x2="22" y2="522"/>
    <line x1="522" y1="522" x2="22" y2="522"/>
    <line x1="522" y1="522" x2="522" y2="22"/>
    <line x1="122" y1="19" x2="122" y2="25"/>
    <line x1="19" y1="122" x2="25" y2="122"/>
    <line x1="122" y1="519" x2="122" y2="525"/>
    <line x1="519" y1="122" x2="525" y2="122"/>
    <line x1="222" y1="19" x2="222" y2="25"/>
    <line x1="19" y1="222" x2="25" y2="222"/>
    <line x1="222" y1="519" x2="222" y2="525"/>
    <line x1="519" y1="222" x2="525" y2="222"/>
    <line x1="322" y1="19" x2="322" y2="25"/>
    <line x1="19" y1="322" x2="25" y2="322"/>
    <line x1="322" y1="519" x2="322" y2="525"/>
    <line x1="519" y1="322" x2="525" y2="322"/>
    <line x1="422" y1="19" x2="422" y2="25"/>
    <line x1="19" y1="422" x2="25" y2="422"/>
    <line x1="422" y1="519" x2="422" y2="525"/>
    <line x1="519" y1="422" x2="525" y2="422"/>
  </g>
  <g stroke="gray" stroke-width="1" stroke-dasharray="5,5">
    <line x1="122" y1="22" x2="122" y2="522"/>
    <line x1="22" y1="122" x2="522" y2="122"/>
    <line x1="222" y1="22" x2="222" y2="522"/>
    <line x1="22" y1="222" x2="522" y2="222"/>
    <line x1="322" y1="22" x2="322" y2="522"/>
    <line x1="22" y1="322" x2="522" y2="322"/>
    <line x1="422" y1="22" x2="422" y2="522"/>
    <line x1="22" y1="422" x2="522" y2="422"/>
  </g>
</svg>
