<?xml version="1.0" standalone="no"?>
<!DOCTYPE svg PUBLIC "-//W3C//DTD SVG 1.1//EN" 
  "http://www.w3.org/Graphics/SVG/1.1/DTD/svg11.dtd">
<svg width="716" height="716" version="1.1" id="toplevel"
    xmlns="http://www.w3.org/2000/svg"
    xmlns:xlink="http://www.w3.org/1999/xlink">
  <polygon points="519,405 520,400 556,402 561,393 605,396 617,379 677,381 711,345 654,347 647,339 592,341 592,340 523,343 513,311 5,362"
           fill="bisque"/>
  <g stroke="chocolate" stroke-width="1">
    <line x1="556" y1="402" x2="592" y2="340"/>
    <circle cx="556" cy="402" r="2"/>
    <circle cx="592" cy="340" r="2"/>
  </g>
  <g stroke="chocolate" stroke-width="1">
    <line x1="605" y1="396" x2="647" y2="339"/>
    <circle cx="605" cy="396" r="2"/>
    <circle cx="647" cy="339" r="2"/>
  </g>
  <g stroke="chocolate" stroke-width="1">
    <line x1="541" y1="375" x2="549" y2="355"/>
    <circle cx="541" cy="375" r="2"/>
    <circle cx="549" cy="355" r="2"/>
  </g>
  <g stroke="chocolate" stroke-width="1">
    <line x1="532" y1="374" x2="539" y2="357"/>
    <circle cx="532" cy="374" r="2"/>
    <circle cx="539" cy="357" r="2"/>
  </g>
  <g stroke="chocolate" stroke-width="1">
    <line x1="519" y1="405" x2="535" y2="357"/>
    <circle cx="519" cy="405" r="2"/>
    <circle cx="535" cy="357" r="2"/>
  </g>
  <g stroke="chocolate" stroke-width="1">
    <line x1="677" y1="381" x2="711" y2="345"/>
    <circle cx="677" cy="381" r="2"/>
    <circle cx="711" cy="345" r="2"/>
  </g>
  <g stroke="chocolate" stroke-width="1">
    <line x1="505" y1="389" x2="513" y2="311"/>
    <circle cx="505" cy="389" r="2"/>
    <circle cx="513" cy="311" r="2"/>
  </g>
  <g stroke="chocolate" stroke-width="1">
    <line x1="505" y1="381" x2="508" y2="339"/>
    <circle cx="505" cy="381" r="2"/>
    <circle cx="508" cy="339" r="2"/>
  </g>
  <g stroke="chocolate" stroke-width="1">
    <line x1="505" y1="389" x2="505" y2="362"/>
    <circle cx="505" cy="389" r="2"/>
    <circle cx="505" cy="362" r="2"/>
  </g>
  <g stroke="chocolate" stroke-width="1">
    <line x1="519" y1="405" x2="508" y2="339"/>
    <circle cx="519" cy="405" r="2"/>
    <circle cx="508" cy="339" r="2"/>
  </g>
  <g stroke="chocolate" stroke-width="1">
    <line x1="532" y1="374" x2="513" y2="311"/>
    <circle cx="532" cy="374" r="2"/>
    <circle cx="513" cy="311" r="2"/>
  </g>
  <g stroke="chocolate" stroke-width="1">
    <line x1="541" y1="375" x2="535" y2="357"/>
    <circle cx="541" cy="375" r="2"/>
    <circle cx="535" cy="357" r="2"/>
  </g>
  <g stroke="chocolate" stroke-width="1">
    <line x1="556" y1="402" x2="539" y2="357"/>
    <circle cx="556" cy="402" r="2"/>
    <circle cx="539" cy="357" r="2"/>
  </g>
  <g stroke="chocolate" stroke-width="1">
    <line x1="564" y1="388" x2="549" y2="355"/>
    <circle cx="564" cy="388" r="2"/>
    <circle cx="549" cy="355" r="2"/>
  </g>
  <g stroke="chocolate" stroke-width="1">
    <line x1="605" y1="396" x2="582" y2="357"/>
    <circle cx="605" cy="396" r="2"/>
    <circle cx="582" cy="357" r="2"/>
  </g>
  <g stroke="chocolate" stroke-width="1">
    <line x1="617" y1="379" x2="592" y2="340"/>
    <circle cx="617" cy="379" r="2"/>
    <circle cx="592" cy="340" r="2"/>
  </g>
  <g stroke="chocolate" stroke-width="1">
    <line x1="5" y1="362" x2="513" y2="311"/>
    <circle cx="5" cy="362" r="2"/>
    <circle cx="513" cy="311" r="2"/>
  </g>
  <g stroke="chocolate" stroke-width="1">
    <line x1="519" y1="405" x2="5" y2="362"/>
    <circle cx="519" cy="405" r="2"/>
    <circle cx="5" cy="362" r="2"/>
  </g>
  <g stroke="chocolate" stroke-width="1">
    <line x1="556" y1="402" x2="5" y2="362"/>
    <circle cx="556" cy="402" r="2"/>
    <circle cx="5" cy="362" r="2"/>
  </g>
  <g stroke="chocolate" stroke-width="1">
    <line x1="605" y1="396" x2="5" y2="362"/>
    <circle cx="605" cy="396" r="2"/>
    <circle cx="5" cy="362" r="2"/>
  </g>
  <g stroke="chocolate" stroke-width="1">
    <line x1="505" y1="389" x2="5" y2="362"/>
    <circle cx="505" cy="389" r="2"/>
    <circle cx="5" cy="362" r="2"/>
  </g>
  <g stroke="chocolate" stroke-width="1">
    <line x1="564" y1="388" x2="5" y2="362"/>
    <circle cx="564" cy="388" r="2"/>
    <circle cx="5" cy="362" r="2"/>
  </g>
  <g stroke="chocolate" stroke-width="1">
    <line x1="5" y1="362" x2="508" y2="339"/>
    <circle cx="5" cy="362" r="2"/>
    <circle cx="508" cy="339" r="2"/>
  </g>
  <g stroke="chocolate" stroke-width="1">
    <line x1="5" y1="362" x2="592" y2="340"/>
    <circle cx="5" cy="362" r="2"/>
    <circle cx="592" cy="340" r="2"/>
  </g>
  <g stroke="chocolate" stroke-width="1">
    <line x1="5" y1="362" x2="647" y2="339"/>
    <circle cx="5" cy="362" r="2"/>
    <circle cx="647" cy="339" r="2"/>
  </g>
  <g stroke="chocolate" stroke-width="1">
    <line x1="505" y1="381" x2="5" y2="362"/>
    <circle cx="505" cy="381" r="2"/>
    <circle cx="5" cy="362" r="2"/>
  </g>
  <g stroke="chocolate" stroke-width="1">
    <line x1="5" y1="362" x2="645" y2="342"/>
    <circle cx="5" cy="362" r="2"/>
    <circle cx="645" cy="342" r="2"/>
  </g>
  <g stroke="chocolate" stroke-width="1">
    <line x1="677" y1="381" x2="5" y2="362"/>
    <circle cx="677" cy="381" r="2"/>
    <circle cx="5" cy="362" r="2"/>
  </g>
  <g stroke="chocolate" stroke-width="1">
    <line x1="617" y1="379" x2="5" y2="362"/>
    <circle cx="617" cy="379" r="2"/>
    <circle cx="5" cy="362" r="2"/>
  </g>
  <g stroke="chocolate" stroke-width="1">
    <line x1="5" y1="362" x2="711" y2="345"/>
    <circle cx="5" cy="362" r="2"/>
    <circle cx="711" cy="345" r="2"/>
  </g>
  <g stroke="chocolate" stroke-width="1">
    <line x1="541" y1="375" x2="5" y2="362"/>
    <circle cx="541" cy="375" r="2"/>
    <circle cx="5" cy="362" r="2"/>
  </g>
  <g stroke="chocolate" stroke-width="1">
    <line x1="532" y1="374" x2="5" y2="362"/>
    <circle cx="532" cy="374" r="2"/>
    <circle cx="5" cy="362" r="2"/>
  </g>
  <g stroke="chocolate" stroke-width="1">
    <line x1="681" y1="377" x2="5" y2="362"/>
    <circle cx="681" cy="377" r="2"/>
    <circle cx="5" cy="362" r="2"/>
  </g>
  <g stroke="chocolate" stroke-width="1">
    <line x1="5" y1="362" x2="549" y2="355"/>
    <circle cx="5" cy="362" r="2"/>
    <circle cx="549" cy="355" r="2"/>
  </g>
  <g stroke="chocolate" stroke-width="1">
    <line x1="5" y1="362" x2="539" y2="357"/>
    <circle cx="5" cy="362" r="2"/>
    <circle cx="539" cy="357" r="2"/>
  </g>
  <g stroke="chocolate" stroke-width="1">
    <line x1="5" y1="362" x2="535" y2="357"/>
    <circle cx="5" cy="362" r="2"/>
    <circle cx="535" cy="357" r="2"/>
  </g>
  <g stroke="chocolate" stroke-width="1">
    <line x1="5" y1="362" x2="582" y2="357"/>
    <circle cx="5" cy="362" r="2"/>
    <circle cx="582" cy="357" r="2"/>
  </g>
  <g stroke="chocolate" stroke-width="1">
    <line x1="5" y1="362" x2="505" y2="362"/>
    <circle cx="5" cy="362" r="2"/>
    <circle cx="505" cy="362" r="2"/>
  </g>
  <g stroke="chocolate" stroke-width="1">
    <line x1="677" y1="381" x2="645" y2="342"/>
    <circle cx="677" cy="381" r="2"/>
    <circle cx="645" cy="342" r="2"/>
  </g>
  <g stroke="chocolate" stroke-width="1">
    <line x1="681" y1="377" x2="647" y2="339"/>
    <circle cx="681" cy="377" r="2"/>
    <circle cx="647" cy="339" r="2"/>
  </g>
  <g stroke="black" stroke-width="1">
    <line x1="108" y1="108" x2="608" y2="108"/>
    <line x1="108" y1="108" x2="108" y2="608"/>
    <line x1="608" y1="608" x2="108" y2="608"/>
    <line x1="608" y1="608" x2="608" y2="108"/>
    <line x1="208" y1="105" x2="208" y2="111"/>
    <line x1="105" y1="208" x2="111" y2="208"/>
    <line x1="208" y1="605" x2="208" y2="611"/>
    <line x1="605" y1="208" x2="611" y2="208"/>
    <line x1="308" y1="105" x2="308" y2="111"/>
    <line x1="105" y1="308" x2="111" y2="308"/>
    <line x1="308" y1="605" x2="308" y2="611"/>
    <line x1="605" y1="308" x2="611" y2="308"/>
    <line x1="408" y1="105" x2="408" y2="111"/>
    <line x1="105" y1="408" x2="111" y2="408"/>
    <line x1="408" y1="605" x2="408" y2="611"/>
    <line x1="605" y1="408" x2="611" y2="408"/>
    <line x1="508" y1="105" x2="508" y2="111"/>
    <line x1="105" y1="508" x2="111" y2="508"/>
    <line x1="508" y1="605" x2="508" y2="611"/>
    <line x1="605" y1="508" x2="611" y2="508"/>
  </g>
  <g stroke="gray" stroke-width="1" stroke-dasharray="5,5">
    <line x1="208" y1="108" x2="208" y2="608"/>
    <line x1="108" y1="208" x2="608" y2="208"/>
    <line x1="308" y1="108" x2="308" y2="608"/>
    <line x1="108" y1="308" x2="608" y2="308"/>
    <line x1="408" y1="108" x2="408" y2="608"/>
    <line x1="108" y1="408" x2="608" y2="408"/>
    <line x1="508" y1="108" x2="508" y2="608"/>
    <line x1="108" y1="508" x2="608" y2="508"/>
  </g>
</svg>
