<?xml version="1.0" standalone="no"?>
<!DOCTYPE svg PUBLIC "-//W3C//DTD SVG 1.1//EN" 
  "http://www.w3.org/Graphics/SVG/1.1/DTD/svg11.dtd">
<svg width="714" height="714" version="1.1" id="toplevel"
    xmlns="http://www.w3.org/2000/svg"
    xmlns:xlink="http://www.w3.org/1999/xlink">
  <polygon points="567,413 588,381 645,383 709,307 702,301 5,363 505,409 505,408"
           fill="bisque"/>
  <g stroke="chocolate" stroke-width="1">
    <line x1="580" y1="379" x2="594" y2="356"/>
    <circle cx="580" cy="379" r="2"/>
    <circle cx="594" cy="356" r="2"/>
  </g>
  <g stroke="chocolate" stroke-width="1">
    <line x1="567" y1="413" x2="613" y2="342"/>
    <circle cx="567" cy="413" r="2"/>
    <circle cx="613" cy="342" r="2"/>
  </g>
  <g stroke="chocolate" stroke-width="1">
    <line x1="601" y1="366" x2="616" y2="345"/>
    <circle cx="601" cy="366" r="2"/>
    <circle cx="616" cy="345" r="2"/>
  </g>
  <g stroke="chocolate" stroke-width="1">
    <line x1="534" y1="393" x2="557" y2="337"/>
    <circle cx="534" cy="393" r="2"/>
    <circle cx="557" cy="337" r="2"/>
  </g>
  <g stroke="chocolate" stroke-width="1">
    <line x1="640" y1="377" x2="702" y2="301"/>
    <circle cx="640" cy="377" r="2"/>
    <circle cx="702" cy="301" r="2"/>
  </g>
  <g stroke="chocolate" stroke-width="1">
    <line x1="645" y1="383" x2="709" y2="307"/>
    <circle cx="645" cy="383" r="2"/>
    <circle cx="709" cy="307" r="2"/>
  </g>
  <g stroke="chocolate" stroke-width="1">
    <line x1="525" y1="397" x2="539" y2="358"/>
    <circle cx="525" cy="397" r="2"/>
    <circle cx="539" cy="358" r="2"/>
  </g>
  <g stroke="chocolate" stroke-width="1">
    <line x1="505" y1="409" x2="518" y2="337"/>
    <circle cx="505" cy="409" r="2"/>
    <circle cx="518" cy="337" r="2"/>
  </g>
  <g stroke="chocolate" stroke-width="1">
    <line x1="509" y1="365" x2="512" y2="341"/>
    <circle cx="509" cy="365" r="2"/>
    <circle cx="512" cy="341" r="2"/>
  </g>
  <g stroke="chocolate" stroke-width="1">
    <line x1="505" y1="383" x2="507" y2="352"/>
    <circle cx="505" cy="383" r="2"/>
    <circle cx="507" cy="352" r="2"/>
  </g>
  <g stroke="chocolate" stroke-width="1">
    <line x1="505" y1="409" x2="505" y2="363"/>
    <circle cx="505" cy="409" r="2"/>
    <circle cx="505" cy="363" r="2"/>
  </g>
  <g stroke="chocolate" stroke-width="1">
    <line x1="509" y1="365" x2="507" y2="352"/>
    <circle cx="509" cy="365" r="2"/>
    <circle cx="507" cy="352" r="2"/>
  </g>
  <g stroke="chocolate" stroke-width="1">
    <line x1="525" y1="397" x2="512" y2="341"/>
    <circle cx="525" cy="397" r="2"/>
    <circle cx="512" cy="341" r="2"/>
  </g>
  <g stroke="chocolate" stroke-width="1">
    <line x1="534" y1="393" x2="518" y2="337"/>
    <circle cx="534" cy="393" r="2"/>
    <circle cx="518" cy="337" r="2"/>
  </g>
  <g stroke="chocolate" stroke-width="1">
    <line x1="544" y1="370" x2="539" y2="358"/>
    <circle cx="544" cy="370" r="2"/>
    <circle cx="539" cy="358" r="2"/>
  </g>
  <g stroke="chocolate" stroke-width="1">
    <line x1="567" y1="413" x2="546" y2="363"/>
    <circle cx="567" cy="413" r="2"/>
    <circle cx="546" cy="363" r="2"/>
  </g>
  <g stroke="chocolate" stroke-width="1">
    <line x1="580" y1="379" x2="557" y2="337"/>
    <circle cx="580" cy="379" r="2"/>
    <circle cx="557" cy="337" r="2"/>
  </g>
  <g stroke="chocolate" stroke-width="1">
    <line x1="601" y1="366" x2="594" y2="356"/>
    <circle cx="601" cy="366" r="2"/>
    <circle cx="594" cy="356" r="2"/>
  </g>
  <g stroke="chocolate" stroke-width="1">
    <line x1="645" y1="383" x2="613" y2="342"/>
    <circle cx="645" cy="383" r="2"/>
    <circle cx="613" cy="342" r="2"/>
  </g>
  <g stroke="chocolate" stroke-width="1">
    <line x1="505" y1="409" x2="5" y2="363"/>
    <circle cx="505" cy="409" r="2"/>
    <circle cx="5" cy="363" r="2"/>
  </g>
  <g stroke="chocolate" stroke-width="1">
    <line x1="5" y1="363" x2="702" y2="301"/>
    <circle cx="5" cy="363" r="2"/>
    <circle cx="702" cy="301" r="2"/>
  </g>
  <g stroke="chocolate" stroke-width="1">
    <line x1="567" y1="413" x2="5" y2="363"/>
    <circle cx="567" cy="413" r="2"/>
    <circle cx="5" cy="363" r="2"/>
  </g>
  <g stroke="chocolate" stroke-width="1">
    <line x1="525" y1="397" x2="5" y2="363"/>
    <circle cx="525" cy="397" r="2"/>
    <circle cx="5" cy="363" r="2"/>
  </g>
  <g stroke="chocolate" stroke-width="1">
    <line x1="534" y1="393" x2="5" y2="363"/>
    <circle cx="534" cy="393" r="2"/>
    <circle cx="5" cy="363" r="2"/>
  </g>
  <g stroke="chocolate" stroke-width="1">
    <line x1="5" y1="363" x2="518" y2="337"/>
    <circle cx="5" cy="363" r="2"/>
    <circle cx="518" cy="337" r="2"/>
  </g>
  <g stroke="chocolate" stroke-width="1">
    <line x1="5" y1="363" x2="557" y2="337"/>
    <circle cx="5" cy="363" r="2"/>
    <circle cx="557" cy="337" r="2"/>
  </g>
  <g stroke="chocolate" stroke-width="1">
    <line x1="5" y1="363" x2="512" y2="341"/>
    <circle cx="5" cy="363" r="2"/>
    <circle cx="512" cy="341" r="2"/>
  </g>
  <g stroke="chocolate" stroke-width="1">
    <line x1="505" y1="383" x2="5" y2="363"/>
    <circle cx="505" cy="383" r="2"/>
    <circle cx="5" cy="363" r="2"/>
  </g>
  <g stroke="chocolate" stroke-width="1">
    <line x1="5" y1="363" x2="613" y2="342"/>
    <circle cx="5" cy="363" r="2"/>
    <circle cx="613" cy="342" r="2"/>
  </g>
  <g stroke="chocolate" stroke-width="1">
    <line x1="645" y1="383" x2="5" y2="363"/>
    <circle cx="645" cy="383" r="2"/>
    <circle cx="5" cy="363" r="2"/>
  </g>
  <g stroke="chocolate" stroke-width="1">
    <line x1="5" y1="363" x2="616" y2="345"/>
    <circle cx="5" cy="363" r="2"/>
    <circle cx="616" cy="345" r="2"/>
  </g>
  <g stroke="chocolate" stroke-width="1">
    <line x1="580" y1="379" x2="5" y2="363"/>
    <circle cx="580" cy="379" r="2"/>
    <circle cx="5" cy="363" r="2"/>
  </g>
  <g stroke="chocolate" stroke-width="1">
    <line x1="5" y1="363" x2="507" y2="352"/>
    <circle cx="5" cy="363" r="2"/>
    <circle cx="507" cy="352" r="2"/>
  </g>
  <g stroke="chocolate" stroke-width="1">
    <line x1="640" y1="377" x2="5" y2="363"/>
    <circle cx="640" cy="377" r="2"/>
    <circle cx="5" cy="363" r="2"/>
  </g>
  <g stroke="chocolate" stroke-width="1">
    <line x1="5" y1="363" x2="594" y2="356"/>
    <circle cx="5" cy="363" r="2"/>
    <circle cx="594" cy="356" r="2"/>
  </g>
  <g stroke="chocolate" stroke-width="1">
    <line x1="544" y1="370" x2="5" y2="363"/>
    <circle cx="544" cy="370" r="2"/>
    <circle cx="5" cy="363" r="2"/>
  </g>
  <g stroke="chocolate" stroke-width="1">
    <line x1="5" y1="363" x2="539" y2="358"/>
    <circle cx="5" cy="363" r="2"/>
    <circle cx="539" cy="358" r="2"/>
  </g>
  <g stroke="chocolate" stroke-width="1">
    <line x1="601" y1="366" x2="5" y2="363"/>
    <circle cx="601" cy="366" r="2"/>
    <circle cx="5" cy="363" r="2"/>
  </g>
  <g stroke="chocolate" stroke-width="1">
    <line x1="509" y1="365" x2="5" y2="363"/>
    <circle cx="509" cy="365" r="2"/>
    <circle cx="5" cy="363" r="2"/>
  </g>
  <g stroke="chocolate" stroke-width="1">
    <line x1="5" y1="363" x2="546" y2="363"/>
    <circle cx="5" cy="363" r="2"/>
    <circle cx="546" cy="363" r="2"/>
  </g>
  <g stroke="chocolate" stroke-width="1">
    <line x1="709" y1="307" x2="702" y2="301"/>
    <circle cx="709" cy="307" r="2"/>
    <circle cx="702" cy="301" r="2"/>
  </g>
  <g stroke="black" stroke-width="1">
    <line x1="107" y1="107" x2="607" y2="107"/>
    <line x1="107" y1="107" x2="107" y2="607"/>
    <line x1="607" y1="607" x2="107" y2="607"/>
    <line x1="607" y1="607" x2="607" y2="107"/>
    <line x1="207" y1="104" x2="207" y2="110"/>
    <line x1="104" y1="207" x2="110" y2="207"/>
    <line x1="207" y1="604" x2="207" y2="610"/>
    <line x1="604" y1="207" x2="610" y2="207"/>
    <line x1="307" y1="104" x2="307" y2="110"/>
    <line x1="104" y1="307" x2="110" y2="307"/>
    <line x1="307" y1="604" x2="307" y2="610"/>
    <line x1="604" y1="307" x2="610" y2="307"/>
    <line x1="407" y1="104" x2="407" y2="110"/>
    <line x1="104" y1="407" x2="110" y2="407"/>
    <line x1="407" y1="604" x2="407" y2="610"/>
    <line x1="604" y1="407" x2="610" y2="407"/>
    <line x1="507" y1="104" x2="507" y2="110"/>
    <line x1="104" y1="507" x2="110" y2="507"/>
    <line x1="507" y1="604" x2="507" y2="610"/>
    <line x1="604" y1="507" x2="610" y2="507"/>
  </g>
  <g stroke="gray" stroke-width="1" stroke-dasharray="5,5">
    <line x1="207" y1="107" x2="207" y2="607"/>
    <line x1="107" y1="207" x2="607" y2="207"/>
    <line x1="307" y1="107" x2="307" y2="607"/>
    <line x1="107" y1="307" x2="607" y2="307"/>
    <line x1="407" y1="107" x2="407" y2="607"/>
    <line x1="107" y1="407" x2="607" y2="407"/>
    <line x1="507" y1="107" x2="507" y2="607"/>
    <line x1="107" y1="507" x2="607" y2="507"/>
  </g>
</svg>
