<?xml version="1.0" standalone="no"?>
<!DOCTYPE svg PUBLIC "-//W3C//DTD SVG 1.1//EN" 
  "http://www.w3.org/Graphics/SVG/1.1/DTD/svg11.dtd">
<svg width="716" height="716" version="1.1" id="toplevel"
    xmlns="http://www.w3.org/2000/svg"
    xmlns:xlink="http://www.w3.org/1999/xlink">
  <polygon points="575,422 622,365 689,368 711,347 671,305 637,306 627,294 511,301 510,298 5,330"
           fill="bisque"/>
  <g stroke="chocolate" stroke-width="1">
    <line x1="563" y1="345" x2="578" y2="318"/>
    <circle cx="563" cy="345" r="2"/>
    <circle cx="578" cy="318" r="2"/>
  </g>
  <g stroke="chocolate" stroke-width="1">
    <line x1="594" y1="345" x2="627" y2="294"/>
    <circle cx="594" cy="345" r="2"/>
    <circle cx="627" cy="294" r="2"/>
  </g>
  <g stroke="chocolate" stroke-width="1">
    <line x1="544" y1="351" x2="555" y2="327"/>
    <circle cx="544" cy="351" r="2"/>
    <circle cx="555" cy="327" r="2"/>
  </g>
  <g stroke="chocolate" stroke-width="1">
    <line x1="575" y1="422" x2="671" y2="305"/>
    <circle cx="575" cy="422" r="2"/>
    <circle cx="671" cy="305" r="2"/>
  </g>
  <g stroke="chocolate" stroke-width="1">
    <line x1="529" y1="355" x2="539" y2="328"/>
    <circle cx="529" cy="355" r="2"/>
    <circle cx="539" cy="328" r="2"/>
  </g>
  <g stroke="chocolate" stroke-width="1">
    <line x1="689" y1="368" x2="711" y2="347"/>
    <circle cx="689" cy="368" r="2"/>
    <circle cx="711" cy="347" r="2"/>
  </g>
  <g stroke="chocolate" stroke-width="1">
    <line x1="519" y1="340" x2="528" y2="306"/>
    <circle cx="519" cy="340" r="2"/>
    <circle cx="528" cy="306" r="2"/>
  </g>
  <g stroke="chocolate" stroke-width="1">
    <line x1="512" y1="337" x2="517" y2="308"/>
    <circle cx="512" cy="337" r="2"/>
    <circle cx="517" cy="308" r="2"/>
  </g>
  <g stroke="chocolate" stroke-width="1">
    <line x1="507" y1="342" x2="509" y2="321"/>
    <circle cx="507" cy="342" r="2"/>
    <circle cx="509" cy="321" r="2"/>
  </g>
  <g stroke="chocolate" stroke-width="1">
    <line x1="505" y1="354" x2="510" y2="298"/>
    <circle cx="505" cy="354" r="2"/>
    <circle cx="510" cy="298" r="2"/>
  </g>
  <g stroke="chocolate" stroke-width="1">
    <line x1="505" y1="346" x2="506" y2="329"/>
    <circle cx="505" cy="346" r="2"/>
    <circle cx="506" cy="329" r="2"/>
  </g>
  <g stroke="chocolate" stroke-width="1">
    <line x1="505" y1="354" x2="505" y2="330"/>
    <circle cx="505" cy="354" r="2"/>
    <circle cx="505" cy="330" r="2"/>
  </g>
  <g stroke="chocolate" stroke-width="1">
    <line x1="507" y1="342" x2="506" y2="329"/>
    <circle cx="507" cy="342" r="2"/>
    <circle cx="506" cy="329" r="2"/>
  </g>
  <g stroke="chocolate" stroke-width="1">
    <line x1="512" y1="337" x2="509" y2="321"/>
    <circle cx="512" cy="337" r="2"/>
    <circle cx="509" cy="321" r="2"/>
  </g>
  <g stroke="chocolate" stroke-width="1">
    <line x1="519" y1="340" x2="510" y2="298"/>
    <circle cx="519" cy="340" r="2"/>
    <circle cx="510" cy="298" r="2"/>
  </g>
  <g stroke="chocolate" stroke-width="1">
    <line x1="529" y1="355" x2="517" y2="308"/>
    <circle cx="529" cy="355" r="2"/>
    <circle cx="517" cy="308" r="2"/>
  </g>
  <g stroke="chocolate" stroke-width="1">
    <line x1="544" y1="351" x2="528" y2="306"/>
    <circle cx="544" cy="351" r="2"/>
    <circle cx="528" cy="306" r="2"/>
  </g>
  <g stroke="chocolate" stroke-width="1">
    <line x1="575" y1="422" x2="539" y2="328"/>
    <circle cx="575" cy="422" r="2"/>
    <circle cx="539" cy="328" r="2"/>
  </g>
  <g stroke="chocolate" stroke-width="1">
    <line x1="563" y1="345" x2="555" y2="327"/>
    <circle cx="563" cy="345" r="2"/>
    <circle cx="555" cy="327" r="2"/>
  </g>
  <g stroke="chocolate" stroke-width="1">
    <line x1="594" y1="345" x2="578" y2="318"/>
    <circle cx="594" cy="345" r="2"/>
    <circle cx="578" cy="318" r="2"/>
  </g>
  <g stroke="chocolate" stroke-width="1">
    <line x1="575" y1="422" x2="5" y2="330"/>
    <circle cx="575" cy="422" r="2"/>
    <circle cx="5" cy="330" r="2"/>
  </g>
  <g stroke="chocolate" stroke-width="1">
    <line x1="5" y1="330" x2="510" y2="298"/>
    <circle cx="5" cy="330" r="2"/>
    <circle cx="510" cy="298" r="2"/>
  </g>
  <g stroke="chocolate" stroke-width="1">
    <line x1="5" y1="330" x2="627" y2="294"/>
    <circle cx="5" cy="330" r="2"/>
    <circle cx="627" cy="294" r="2"/>
  </g>
  <g stroke="chocolate" stroke-width="1">
    <line x1="689" y1="368" x2="5" y2="330"/>
    <circle cx="689" cy="368" r="2"/>
    <circle cx="5" cy="330" r="2"/>
  </g>
  <g stroke="chocolate" stroke-width="1">
    <line x1="505" y1="354" x2="5" y2="330"/>
    <circle cx="505" cy="354" r="2"/>
    <circle cx="5" cy="330" r="2"/>
  </g>
  <g stroke="chocolate" stroke-width="1">
    <line x1="529" y1="355" x2="5" y2="330"/>
    <circle cx="529" cy="355" r="2"/>
    <circle cx="5" cy="330" r="2"/>
  </g>
  <g stroke="chocolate" stroke-width="1">
    <line x1="5" y1="330" x2="528" y2="306"/>
    <circle cx="5" cy="330" r="2"/>
    <circle cx="528" cy="306" r="2"/>
  </g>
  <g stroke="chocolate" stroke-width="1">
    <line x1="5" y1="330" x2="517" y2="308"/>
    <circle cx="5" cy="330" r="2"/>
    <circle cx="517" cy="308" r="2"/>
  </g>
  <g stroke="chocolate" stroke-width="1">
    <line x1="544" y1="351" x2="5" y2="330"/>
    <circle cx="544" cy="351" r="2"/>
    <circle cx="5" cy="330" r="2"/>
  </g>
  <g stroke="chocolate" stroke-width="1">
    <line x1="5" y1="330" x2="671" y2="305"/>
    <circle cx="5" cy="330" r="2"/>
    <circle cx="671" cy="305" r="2"/>
  </g>
  <g stroke="chocolate" stroke-width="1">
    <line x1="505" y1="346" x2="5" y2="330"/>
    <circle cx="505" cy="346" r="2"/>
    <circle cx="5" cy="330" r="2"/>
  </g>
  <g stroke="chocolate" stroke-width="1">
    <line x1="563" y1="345" x2="5" y2="330"/>
    <circle cx="563" cy="345" r="2"/>
    <circle cx="5" cy="330" r="2"/>
  </g>
  <g stroke="chocolate" stroke-width="1">
    <line x1="594" y1="345" x2="5" y2="330"/>
    <circle cx="594" cy="345" r="2"/>
    <circle cx="5" cy="330" r="2"/>
  </g>
  <g stroke="chocolate" stroke-width="1">
    <line x1="507" y1="342" x2="5" y2="330"/>
    <circle cx="507" cy="342" r="2"/>
    <circle cx="5" cy="330" r="2"/>
  </g>
  <g stroke="chocolate" stroke-width="1">
    <line x1="5" y1="330" x2="578" y2="318"/>
    <circle cx="5" cy="330" r="2"/>
    <circle cx="578" cy="318" r="2"/>
  </g>
  <g stroke="chocolate" stroke-width="1">
    <line x1="519" y1="340" x2="5" y2="330"/>
    <circle cx="519" cy="340" r="2"/>
    <circle cx="5" cy="330" r="2"/>
  </g>
  <g stroke="chocolate" stroke-width="1">
    <line x1="5" y1="330" x2="509" y2="321"/>
    <circle cx="5" cy="330" r="2"/>
    <circle cx="509" cy="321" r="2"/>
  </g>
  <g stroke="chocolate" stroke-width="1">
    <line x1="512" y1="337" x2="5" y2="330"/>
    <circle cx="512" cy="337" r="2"/>
    <circle cx="5" cy="330" r="2"/>
  </g>
  <g stroke="chocolate" stroke-width="1">
    <line x1="5" y1="330" x2="555" y2="327"/>
    <circle cx="5" cy="330" r="2"/>
    <circle cx="555" cy="327" r="2"/>
  </g>
  <g stroke="chocolate" stroke-width="1">
    <line x1="5" y1="330" x2="539" y2="328"/>
    <circle cx="5" cy="330" r="2"/>
    <circle cx="539" cy="328" r="2"/>
  </g>
  <g stroke="chocolate" stroke-width="1">
    <line x1="5" y1="330" x2="506" y2="329"/>
    <circle cx="5" cy="330" r="2"/>
    <circle cx="506" cy="329" r="2"/>
  </g>
  <g stroke="chocolate" stroke-width="1">
    <line x1="5" y1="330" x2="505" y2="330"/>
    <circle cx="5" cy="330" r="2"/>
    <circle cx="505" cy="330" r="2"/>
  </g>
  <g stroke="chocolate" stroke-width="1">
    <line x1="689" y1="368" x2="627" y2="294"/>
    <circle cx="689" cy="368" r="2"/>
    <circle cx="627" cy="294" r="2"/>
  </g>
  <g stroke="chocolate" stroke-width="1">
    <line x1="711" y1="347" x2="671" y2="305"/>
    <circle cx="711" cy="347" r="2"/>
    <circle cx="671" cy="305" r="2"/>
  </g>
  <g stroke="black" stroke-width="1">
    <line x1="108" y1="108" x2="608" y2="108"/>
    <line x1="108" y1="108" x2="108" y2="608"/>
    <line x1="608" y1="608" x2="108" y2="608"/>
    <line x1="608" y1="608" x2="608" y2="108"/>
    <line x1="208" y1="105" x2="208" y2="111"/>
    <line x1="105" y1="208" x2="111" y2="208"/>
    <line x1="208" y1="605" x2="208" y2="611"/>
    <line x1="605" y1="208" x2="611" y2="208"/>
    <line x1="308" y1="105" x2="308" y2="111"/>
    <line x1="105" y1="308" x2="111" y2="308"/>
    <line x1="308" y1="605" x2="308" y2="611"/>
    <line x1="605" y1="308" x2="611" y2="308"/>
    <line x1="408" y1="105" x2="408" y2="111"/>
    <line x1="105" y1="408" x2="111" y2="408"/>
    <line x1="408" y1="605" x2="408" y2="611"/>
    <line x1="605" y1="408" x2="611" y2="408"/>
    <line x1="508" y1="105" x2="508" y2="111"/>
    <line x1="105" y1="508" x2="111" y2="508"/>
    <line x1="508" y1="605" x2="508" y2="611"/>
    <line x1="605" y1="508" x2="611" y2="508"/>
  </g>
  <g stroke="gray" stroke-width="1" stroke-dasharray="5,5">
    <line x1="208" y1="108" x2="208" y2="608"/>
    <line x1="108" y1="208" x2="608" y2="208"/>
    <line x1="308" y1="108" x2="308" y2="608"/>
    <line x1="108" y1="308" x2="608" y2="308"/>
    <line x1="408" y1="108" x2="408" y2="608"/>
    <line x1="108" y1="408" x2="608" y2="408"/>
    <line x1="508" y1="108" x2="508" y2="608"/>
    <line x1="108" y1="508" x2="608" y2="508"/>
  </g>
</svg>
