<?xml version="1.0" standalone="no"?>
<!DOCTYPE svg PUBLIC "-//W3C//DTD SVG 1.1//EN" 
  "http://www.w3.org/Graphics/SVG/1.1/DTD/svg11.dtd">
<svg width="718" height="718" version="1.1" id="toplevel"
    xmlns="http://www.w3.org/2000/svg"
    xmlns:xlink="http://www.w3.org/1999/xlink">
  <polygon points="541,435 554,413 568,414 573,406 667,413 713,367 629,283 5,364"
           fill="bisque"/>
  <g stroke="chocolate" stroke-width="1">
    <line x1="541" y1="435" x2="629" y2="283"/>
    <circle cx="541" cy="435" r="2"/>
    <circle cx="629" cy="283" r="2"/>
  </g>
  <g stroke="chocolate" stroke-width="1">
    <line x1="568" y1="414" x2="602" y2="361"/>
    <circle cx="568" cy="414" r="2"/>
    <circle cx="602" cy="361" r="2"/>
  </g>
  <g stroke="chocolate" stroke-width="1">
    <line x1="617" y1="383" x2="630" y2="364"/>
    <circle cx="617" cy="383" r="2"/>
    <circle cx="630" cy="364" r="2"/>
  </g>
  <g stroke="chocolate" stroke-width="1">
    <line x1="523" y1="397" x2="540" y2="347"/>
    <circle cx="523" cy="397" r="2"/>
    <circle cx="540" cy="347" r="2"/>
  </g>
  <g stroke="chocolate" stroke-width="1">
    <line x1="667" y1="413" x2="713" y2="367"/>
    <circle cx="667" cy="413" r="2"/>
    <circle cx="713" cy="367" r="2"/>
  </g>
  <g stroke="chocolate" stroke-width="1">
    <line x1="513" y1="379" x2="519" y2="349"/>
    <circle cx="513" cy="379" r="2"/>
    <circle cx="519" cy="349" r="2"/>
  </g>
  <g stroke="chocolate" stroke-width="1">
    <line x1="508" y1="379" x2="511" y2="354"/>
    <circle cx="508" cy="379" r="2"/>
    <circle cx="511" cy="354" r="2"/>
  </g>
  <g stroke="chocolate" stroke-width="1">
    <line x1="508" y1="370" x2="510" y2="358"/>
    <circle cx="508" cy="370" r="2"/>
    <circle cx="510" cy="358" r="2"/>
  </g>
  <g stroke="chocolate" stroke-width="1">
    <line x1="505" y1="384" x2="507" y2="361"/>
    <circle cx="505" cy="384" r="2"/>
    <circle cx="507" cy="361" r="2"/>
  </g>
  <g stroke="chocolate" stroke-width="1">
    <line x1="505" y1="381" x2="507" y2="363"/>
    <circle cx="505" cy="381" r="2"/>
    <circle cx="507" cy="363" r="2"/>
  </g>
  <g stroke="chocolate" stroke-width="1">
    <line x1="505" y1="384" x2="505" y2="364"/>
    <circle cx="505" cy="384" r="2"/>
    <circle cx="505" cy="364" r="2"/>
  </g>
  <g stroke="chocolate" stroke-width="1">
    <line x1="508" y1="379" x2="507" y2="363"/>
    <circle cx="508" cy="379" r="2"/>
    <circle cx="507" cy="363" r="2"/>
  </g>
  <g stroke="chocolate" stroke-width="1">
    <line x1="508" y1="370" x2="507" y2="361"/>
    <circle cx="508" cy="370" r="2"/>
    <circle cx="507" cy="361" r="2"/>
  </g>
  <g stroke="chocolate" stroke-width="1">
    <line x1="513" y1="379" x2="510" y2="358"/>
    <circle cx="513" cy="379" r="2"/>
    <circle cx="510" cy="358" r="2"/>
  </g>
  <g stroke="chocolate" stroke-width="1">
    <line x1="514" y1="373" x2="511" y2="354"/>
    <circle cx="514" cy="373" r="2"/>
    <circle cx="511" cy="354" r="2"/>
  </g>
  <g stroke="chocolate" stroke-width="1">
    <line x1="523" y1="397" x2="516" y2="363"/>
    <circle cx="523" cy="397" r="2"/>
    <circle cx="516" cy="363" r="2"/>
  </g>
  <g stroke="chocolate" stroke-width="1">
    <line x1="541" y1="435" x2="519" y2="349"/>
    <circle cx="541" cy="435" r="2"/>
    <circle cx="519" cy="349" r="2"/>
  </g>
  <g stroke="chocolate" stroke-width="1">
    <line x1="568" y1="414" x2="540" y2="347"/>
    <circle cx="568" cy="414" r="2"/>
    <circle cx="540" cy="347" r="2"/>
  </g>
  <g stroke="chocolate" stroke-width="1">
    <line x1="617" y1="383" x2="602" y2="361"/>
    <circle cx="617" cy="383" r="2"/>
    <circle cx="602" cy="361" r="2"/>
  </g>
  <g stroke="chocolate" stroke-width="1">
    <line x1="667" y1="413" x2="630" y2="364"/>
    <circle cx="667" cy="413" r="2"/>
    <circle cx="630" cy="364" r="2"/>
  </g>
  <g stroke="chocolate" stroke-width="1">
    <line x1="541" y1="435" x2="5" y2="364"/>
    <circle cx="541" cy="435" r="2"/>
    <circle cx="5" cy="364" r="2"/>
  </g>
  <g stroke="chocolate" stroke-width="1">
    <line x1="5" y1="364" x2="629" y2="283"/>
    <circle cx="5" cy="364" r="2"/>
    <circle cx="629" cy="283" r="2"/>
  </g>
  <g stroke="chocolate" stroke-width="1">
    <line x1="568" y1="414" x2="5" y2="364"/>
    <circle cx="568" cy="414" r="2"/>
    <circle cx="5" cy="364" r="2"/>
  </g>
  <g stroke="chocolate" stroke-width="1">
    <line x1="667" y1="413" x2="5" y2="364"/>
    <circle cx="667" cy="413" r="2"/>
    <circle cx="5" cy="364" r="2"/>
  </g>
  <g stroke="chocolate" stroke-width="1">
    <line x1="523" y1="397" x2="5" y2="364"/>
    <circle cx="523" cy="397" r="2"/>
    <circle cx="5" cy="364" r="2"/>
  </g>
  <g stroke="chocolate" stroke-width="1">
    <line x1="505" y1="384" x2="5" y2="364"/>
    <circle cx="505" cy="384" r="2"/>
    <circle cx="5" cy="364" r="2"/>
  </g>
  <g stroke="chocolate" stroke-width="1">
    <line x1="5" y1="364" x2="540" y2="347"/>
    <circle cx="5" cy="364" r="2"/>
    <circle cx="540" cy="347" r="2"/>
  </g>
  <g stroke="chocolate" stroke-width="1">
    <line x1="505" y1="381" x2="5" y2="364"/>
    <circle cx="505" cy="381" r="2"/>
    <circle cx="5" cy="364" r="2"/>
  </g>
  <g stroke="chocolate" stroke-width="1">
    <line x1="617" y1="383" x2="5" y2="364"/>
    <circle cx="617" cy="383" r="2"/>
    <circle cx="5" cy="364" r="2"/>
  </g>
  <g stroke="chocolate" stroke-width="1">
    <line x1="5" y1="364" x2="519" y2="349"/>
    <circle cx="5" cy="364" r="2"/>
    <circle cx="519" cy="349" r="2"/>
  </g>
  <g stroke="chocolate" stroke-width="1">
    <line x1="513" y1="379" x2="5" y2="364"/>
    <circle cx="513" cy="379" r="2"/>
    <circle cx="5" cy="364" r="2"/>
  </g>
  <g stroke="chocolate" stroke-width="1">
    <line x1="508" y1="379" x2="5" y2="364"/>
    <circle cx="508" cy="379" r="2"/>
    <circle cx="5" cy="364" r="2"/>
  </g>
  <g stroke="chocolate" stroke-width="1">
    <line x1="5" y1="364" x2="511" y2="354"/>
    <circle cx="5" cy="364" r="2"/>
    <circle cx="511" cy="354" r="2"/>
  </g>
  <g stroke="chocolate" stroke-width="1">
    <line x1="514" y1="373" x2="5" y2="364"/>
    <circle cx="514" cy="373" r="2"/>
    <circle cx="5" cy="364" r="2"/>
  </g>
  <g stroke="chocolate" stroke-width="1">
    <line x1="5" y1="364" x2="510" y2="358"/>
    <circle cx="5" cy="364" r="2"/>
    <circle cx="510" cy="358" r="2"/>
  </g>
  <g stroke="chocolate" stroke-width="1">
    <line x1="508" y1="370" x2="5" y2="364"/>
    <circle cx="508" cy="370" r="2"/>
    <circle cx="5" cy="364" r="2"/>
  </g>
  <g stroke="chocolate" stroke-width="1">
    <line x1="5" y1="364" x2="507" y2="361"/>
    <circle cx="5" cy="364" r="2"/>
    <circle cx="507" cy="361" r="2"/>
  </g>
  <g stroke="chocolate" stroke-width="1">
    <line x1="5" y1="364" x2="602" y2="361"/>
    <circle cx="5" cy="364" r="2"/>
    <circle cx="602" cy="361" r="2"/>
  </g>
  <g stroke="chocolate" stroke-width="1">
    <line x1="5" y1="364" x2="516" y2="363"/>
    <circle cx="5" cy="364" r="2"/>
    <circle cx="516" cy="363" r="2"/>
  </g>
  <g stroke="chocolate" stroke-width="1">
    <line x1="5" y1="364" x2="507" y2="363"/>
    <circle cx="5" cy="364" r="2"/>
    <circle cx="507" cy="363" r="2"/>
  </g>
  <g stroke="chocolate" stroke-width="1">
    <line x1="5" y1="364" x2="630" y2="364"/>
    <circle cx="5" cy="364" r="2"/>
    <circle cx="630" cy="364" r="2"/>
  </g>
  <g stroke="chocolate" stroke-width="1">
    <line x1="713" y1="367" x2="629" y2="283"/>
    <circle cx="713" cy="367" r="2"/>
    <circle cx="629" cy="283" r="2"/>
  </g>
  <g stroke="black" stroke-width="1">
    <line x1="109" y1="109" x2="609" y2="109"/>
    <line x1="109" y1="109" x2="109" y2="609"/>
    <line x1="609" y1="609" x2="109" y2="609"/>
    <line x1="609" y1="609" x2="609" y2="109"/>
    <line x1="209" y1="106" x2="209" y2="112"/>
    <line x1="106" y1="209" x2="112" y2="209"/>
    <line x1="209" y1="606" x2="209" y2="612"/>
    <line x1="606" y1="209" x2="612" y2="209"/>
    <line x1="309" y1="106" x2="309" y2="112"/>
    <line x1="106" y1="309" x2="112" y2="309"/>
    <line x1="309" y1="606" x2="309" y2="612"/>
    <line x1="606" y1="309" x2="612" y2="309"/>
    <line x1="409" y1="106" x2="409" y2="112"/>
    <line x1="106" y1="409" x2="112" y2="409"/>
    <line x1="409" y1="606" x2="409" y2="612"/>
    <line x1="606" y1="409" x2="612" y2="409"/>
    <line x1="509" y1="106" x2="509" y2="112"/>
    <line x1="106" y1="509" x2="112" y2="509"/>
    <line x1="509" y1="606" x2="509" y2="612"/>
    <line x1="606" y1="509" x2="612" y2="509"/>
  </g>
  <g stroke="gray" stroke-width="1" stroke-dasharray="5,5">
    <line x1="209" y1="109" x2="209" y2="609"/>
    <line x1="109" y1="209" x2="609" y2="209"/>
    <line x1="309" y1="109" x2="309" y2="609"/>
    <line x1="109" y1="309" x2="609" y2="309"/>
    <line x1="409" y1="109" x2="409" y2="609"/>
    <line x1="109" y1="409" x2="609" y2="409"/>
    <line x1="509" y1="109" x2="509" y2="609"/>
    <line x1="109" y1="509" x2="609" y2="509"/>
  </g>
</svg>
