<?xml version="1.0" standalone="no"?>
<!DOCTYPE svg PUBLIC "-//W3C//DTD SVG 1.1//EN" 
  "http://www.w3.org/Graphics/SVG/1.1/DTD/svg11.dtd">
<svg width="716" height="716" version="1.1" id="toplevel"
    xmlns="http://www.w3.org/2000/svg"
    xmlns:xlink="http://www.w3.org/1999/xlink">
  <polygon points="520,408 532,378 561,380 565,374 655,378 711,317 612,321 602,308 5,345"
           fill="bisque"/>
  <g stroke="chocolate" stroke-width="1">
    <line x1="561" y1="380" x2="602" y2="308"/>
    <circle cx="561" cy="380" r="2"/>
    <circle cx="602" cy="308" r="2"/>
  </g>
  <g stroke="chocolate" stroke-width="1">
    <line x1="592" y1="357" x2="613" y2="323"/>
    <circle cx="592" cy="357" r="2"/>
    <circle cx="613" cy="323" r="2"/>
  </g>
  <g stroke="chocolate" stroke-width="1">
    <line x1="551" y1="373" x2="574" y2="327"/>
    <circle cx="551" cy="373" r="2"/>
    <circle cx="574" cy="327" r="2"/>
  </g>
  <g stroke="chocolate" stroke-width="1">
    <line x1="520" y1="408" x2="546" y2="345"/>
    <circle cx="520" cy="408" r="2"/>
    <circle cx="546" cy="345" r="2"/>
  </g>
  <g stroke="chocolate" stroke-width="1">
    <line x1="655" y1="378" x2="711" y2="317"/>
    <circle cx="655" cy="378" r="2"/>
    <circle cx="711" cy="317" r="2"/>
  </g>
  <g stroke="chocolate" stroke-width="1">
    <line x1="525" y1="357" x2="534" y2="329"/>
    <circle cx="525" cy="357" r="2"/>
    <circle cx="534" cy="329" r="2"/>
  </g>
  <g stroke="chocolate" stroke-width="1">
    <line x1="518" y1="350" x2="521" y2="340"/>
    <circle cx="518" cy="350" r="2"/>
    <circle cx="521" cy="340" r="2"/>
  </g>
  <g stroke="chocolate" stroke-width="1">
    <line x1="507" y1="355" x2="512" y2="321"/>
    <circle cx="507" cy="355" r="2"/>
    <circle cx="512" cy="321" r="2"/>
  </g>
  <g stroke="chocolate" stroke-width="1">
    <line x1="505" y1="371" x2="509" y2="333"/>
    <circle cx="505" cy="371" r="2"/>
    <circle cx="509" cy="333" r="2"/>
  </g>
  <g stroke="chocolate" stroke-width="1">
    <line x1="505" y1="362" x2="506" y2="341"/>
    <circle cx="505" cy="362" r="2"/>
    <circle cx="506" cy="341" r="2"/>
  </g>
  <g stroke="chocolate" stroke-width="1">
    <line x1="505" y1="371" x2="505" y2="345"/>
    <circle cx="505" cy="371" r="2"/>
    <circle cx="505" cy="345" r="2"/>
  </g>
  <g stroke="chocolate" stroke-width="1">
    <line x1="507" y1="355" x2="506" y2="341"/>
    <circle cx="507" cy="355" r="2"/>
    <circle cx="506" cy="341" r="2"/>
  </g>
  <g stroke="chocolate" stroke-width="1">
    <line x1="520" y1="408" x2="509" y2="333"/>
    <circle cx="520" cy="408" r="2"/>
    <circle cx="509" cy="333" r="2"/>
  </g>
  <g stroke="chocolate" stroke-width="1">
    <line x1="518" y1="350" x2="512" y2="321"/>
    <circle cx="518" cy="350" r="2"/>
    <circle cx="512" cy="321" r="2"/>
  </g>
  <g stroke="chocolate" stroke-width="1">
    <line x1="525" y1="357" x2="521" y2="340"/>
    <circle cx="525" cy="357" r="2"/>
    <circle cx="521" cy="340" r="2"/>
  </g>
  <g stroke="chocolate" stroke-width="1">
    <line x1="551" y1="373" x2="534" y2="329"/>
    <circle cx="551" cy="373" r="2"/>
    <circle cx="534" cy="329" r="2"/>
  </g>
  <g stroke="chocolate" stroke-width="1">
    <line x1="561" y1="380" x2="546" y2="345"/>
    <circle cx="561" cy="380" r="2"/>
    <circle cx="546" cy="345" r="2"/>
  </g>
  <g stroke="chocolate" stroke-width="1">
    <line x1="592" y1="357" x2="574" y2="327"/>
    <circle cx="592" cy="357" r="2"/>
    <circle cx="574" cy="327" r="2"/>
  </g>
  <g stroke="chocolate" stroke-width="1">
    <line x1="655" y1="378" x2="602" y2="308"/>
    <circle cx="655" cy="378" r="2"/>
    <circle cx="602" cy="308" r="2"/>
  </g>
  <g stroke="chocolate" stroke-width="1">
    <line x1="520" y1="408" x2="5" y2="345"/>
    <circle cx="520" cy="408" r="2"/>
    <circle cx="5" cy="345" r="2"/>
  </g>
  <g stroke="chocolate" stroke-width="1">
    <line x1="561" y1="380" x2="5" y2="345"/>
    <circle cx="561" cy="380" r="2"/>
    <circle cx="5" cy="345" r="2"/>
  </g>
  <g stroke="chocolate" stroke-width="1">
    <line x1="5" y1="345" x2="602" y2="308"/>
    <circle cx="5" cy="345" r="2"/>
    <circle cx="602" cy="308" r="2"/>
  </g>
  <g stroke="chocolate" stroke-width="1">
    <line x1="505" y1="371" x2="5" y2="345"/>
    <circle cx="505" cy="371" r="2"/>
    <circle cx="5" cy="345" r="2"/>
  </g>
  <g stroke="chocolate" stroke-width="1">
    <line x1="655" y1="378" x2="5" y2="345"/>
    <circle cx="655" cy="378" r="2"/>
    <circle cx="5" cy="345" r="2"/>
  </g>
  <g stroke="chocolate" stroke-width="1">
    <line x1="551" y1="373" x2="5" y2="345"/>
    <circle cx="551" cy="373" r="2"/>
    <circle cx="5" cy="345" r="2"/>
  </g>
  <g stroke="chocolate" stroke-width="1">
    <line x1="5" y1="345" x2="512" y2="321"/>
    <circle cx="5" cy="345" r="2"/>
    <circle cx="512" cy="321" r="2"/>
  </g>
  <g stroke="chocolate" stroke-width="1">
    <line x1="5" y1="345" x2="711" y2="317"/>
    <circle cx="5" cy="345" r="2"/>
    <circle cx="711" cy="317" r="2"/>
  </g>
  <g stroke="chocolate" stroke-width="1">
    <line x1="5" y1="345" x2="613" y2="323"/>
    <circle cx="5" cy="345" r="2"/>
    <circle cx="613" cy="323" r="2"/>
  </g>
  <g stroke="chocolate" stroke-width="1">
    <line x1="505" y1="362" x2="5" y2="345"/>
    <circle cx="505" cy="362" r="2"/>
    <circle cx="5" cy="345" r="2"/>
  </g>
  <g stroke="chocolate" stroke-width="1">
    <line x1="5" y1="345" x2="574" y2="327"/>
    <circle cx="5" cy="345" r="2"/>
    <circle cx="574" cy="327" r="2"/>
  </g>
  <g stroke="chocolate" stroke-width="1">
    <line x1="5" y1="345" x2="534" y2="329"/>
    <circle cx="5" cy="345" r="2"/>
    <circle cx="534" cy="329" r="2"/>
  </g>
  <g stroke="chocolate" stroke-width="1">
    <line x1="5" y1="345" x2="509" y2="333"/>
    <circle cx="5" cy="345" r="2"/>
    <circle cx="509" cy="333" r="2"/>
  </g>
  <g stroke="chocolate" stroke-width="1">
    <line x1="525" y1="357" x2="5" y2="345"/>
    <circle cx="525" cy="357" r="2"/>
    <circle cx="5" cy="345" r="2"/>
  </g>
  <g stroke="chocolate" stroke-width="1">
    <line x1="592" y1="357" x2="5" y2="345"/>
    <circle cx="592" cy="357" r="2"/>
    <circle cx="5" cy="345" r="2"/>
  </g>
  <g stroke="chocolate" stroke-width="1">
    <line x1="507" y1="355" x2="5" y2="345"/>
    <circle cx="507" cy="355" r="2"/>
    <circle cx="5" cy="345" r="2"/>
  </g>
  <g stroke="chocolate" stroke-width="1">
    <line x1="5" y1="345" x2="521" y2="340"/>
    <circle cx="5" cy="345" r="2"/>
    <circle cx="521" cy="340" r="2"/>
  </g>
  <g stroke="chocolate" stroke-width="1">
    <line x1="5" y1="345" x2="506" y2="341"/>
    <circle cx="5" cy="345" r="2"/>
    <circle cx="506" cy="341" r="2"/>
  </g>
  <g stroke="chocolate" stroke-width="1">
    <line x1="518" y1="350" x2="5" y2="345"/>
    <circle cx="518" cy="350" r="2"/>
    <circle cx="5" cy="345" r="2"/>
  </g>
  <g stroke="chocolate" stroke-width="1">
    <line x1="5" y1="345" x2="546" y2="345"/>
    <circle cx="5" cy="345" r="2"/>
    <circle cx="546" cy="345" r="2"/>
  </g>
  <g stroke="black" stroke-width="1">
    <line x1="108" y1="108" x2="608" y2="108"/>
    <line x1="108" y1="108" x2="108" y2="608"/>
    <line x1="608" y1="608" x2="108" y2="608"/>
    <line x1="608" y1="608" x2="608" y2="108"/>
    <line x1="208" y1="105" x2="208" y2="111"/>
    <line x1="105" y1="208" x2="111" y2="208"/>
    <line x1="208" y1="605" x2="208" y2="611"/>
    <line x1="605" y1="208" x2="611" y2="208"/>
    <line x1="308" y1="105" x2="308" y2="111"/>
    <line x1="105" y1="308" x2="111" y2="308"/>
    <line x1="308" y1="605" x2="308" y2="611"/>
    <line x1="605" y1="308" x2="611" y2="308"/>
    <line x1="408" y1="105" x2="408" y2="111"/>
    <line x1="105" y1="408" x2="111" y2="408"/>
    <line x1="408" y1="605" x2="408" y2="611"/>
    <line x1="605" y1="408" x2="611" y2="408"/>
    <line x1="508" y1="105" x2="508" y2="111"/>
    <line x1="105" y1="508" x2="111" y2="508"/>
    <line x1="508" y1="605" x2="508" y2="611"/>
    <line x1="605" y1="508" x2="611" y2="508"/>
  </g>
  <g stroke="gray" stroke-width="1" stroke-dasharray="5,5">
    <line x1="208" y1="108" x2="208" y2="608"/>
    <line x1="108" y1="208" x2="608" y2="208"/>
    <line x1="308" y1="108" x2="308" y2="608"/>
    <line x1="108" y1="308" x2="608" y2="308"/>
    <line x1="408" y1="108" x2="408" y2="608"/>
    <line x1="108" y1="408" x2="608" y2="408"/>
    <line x1="508" y1="108" x2="508" y2="608"/>
    <line x1="108" y1="508" x2="608" y2="508"/>
  </g>
</svg>
