<?xml version="1.0" standalone="no"?>
<!DOCTYPE svg PUBLIC "-//W3C//DTD SVG 1.1//EN" 
  "http://www.w3.org/Graphics/SVG/1.1/DTD/svg11.dtd">
<svg width="716" height="716" version="1.1" id="toplevel"
    xmlns="http://www.w3.org/2000/svg"
    xmlns:xlink="http://www.w3.org/1999/xlink">
  <polygon points="542,409 554,385 627,389 633,382 652,383 670,362 686,362 711,336 702,327 589,331 573,307 5,353"
           fill="bisque"/>
  <g stroke="chocolate" stroke-width="1">
    <line x1="542" y1="409" x2="584" y2="329"/>
    <circle cx="542" cy="409" r="2"/>
    <circle cx="584" cy="329" r="2"/>
  </g>
  <g stroke="chocolate" stroke-width="1">
    <line x1="601" y1="356" x2="616" y2="335"/>
    <circle cx="601" cy="356" r="2"/>
    <circle cx="616" cy="335" r="2"/>
  </g>
  <g stroke="chocolate" stroke-width="1">
    <line x1="549" y1="361" x2="573" y2="307"/>
    <circle cx="549" cy="361" r="2"/>
    <circle cx="573" cy="307" r="2"/>
  </g>
  <g stroke="chocolate" stroke-width="1">
    <line x1="539" y1="359" x2="544" y2="347"/>
    <circle cx="539" cy="359" r="2"/>
    <circle cx="544" cy="347" r="2"/>
  </g>
  <g stroke="chocolate" stroke-width="1">
    <line x1="627" y1="389" x2="667" y2="341"/>
    <circle cx="627" cy="389" r="2"/>
    <circle cx="667" cy="341" r="2"/>
  </g>
  <g stroke="chocolate" stroke-width="1">
    <line x1="652" y1="383" x2="702" y2="327"/>
    <circle cx="652" cy="383" r="2"/>
    <circle cx="702" cy="327" r="2"/>
  </g>
  <g stroke="chocolate" stroke-width="1">
    <line x1="686" y1="362" x2="711" y2="336"/>
    <circle cx="686" cy="362" r="2"/>
    <circle cx="711" cy="336" r="2"/>
  </g>
  <g stroke="chocolate" stroke-width="1">
    <line x1="519" y1="387" x2="533" y2="344"/>
    <circle cx="519" cy="387" r="2"/>
    <circle cx="533" cy="344" r="2"/>
  </g>
  <g stroke="chocolate" stroke-width="1">
    <line x1="522" y1="357" x2="524" y2="348"/>
    <circle cx="522" cy="357" r="2"/>
    <circle cx="524" cy="348" r="2"/>
  </g>
  <g stroke="chocolate" stroke-width="1">
    <line x1="505" y1="384" x2="512" y2="322"/>
    <circle cx="505" cy="384" r="2"/>
    <circle cx="512" cy="322" r="2"/>
  </g>
  <g stroke="chocolate" stroke-width="1">
    <line x1="505" y1="369" x2="507" y2="324"/>
    <circle cx="505" cy="369" r="2"/>
    <circle cx="507" cy="324" r="2"/>
  </g>
  <g stroke="chocolate" stroke-width="1">
    <line x1="505" y1="384" x2="505" y2="353"/>
    <circle cx="505" cy="384" r="2"/>
    <circle cx="505" cy="353" r="2"/>
  </g>
  <g stroke="chocolate" stroke-width="1">
    <line x1="519" y1="387" x2="507" y2="324"/>
    <circle cx="519" cy="387" r="2"/>
    <circle cx="507" cy="324" r="2"/>
  </g>
  <g stroke="chocolate" stroke-width="1">
    <line x1="522" y1="357" x2="512" y2="322"/>
    <circle cx="522" cy="357" r="2"/>
    <circle cx="512" cy="322" r="2"/>
  </g>
  <g stroke="chocolate" stroke-width="1">
    <line x1="542" y1="409" x2="524" y2="348"/>
    <circle cx="542" cy="409" r="2"/>
    <circle cx="524" cy="348" r="2"/>
  </g>
  <g stroke="chocolate" stroke-width="1">
    <line x1="539" y1="359" x2="533" y2="344"/>
    <circle cx="539" cy="359" r="2"/>
    <circle cx="533" cy="344" r="2"/>
  </g>
  <g stroke="chocolate" stroke-width="1">
    <line x1="549" y1="361" x2="544" y2="347"/>
    <circle cx="549" cy="361" r="2"/>
    <circle cx="544" cy="347" r="2"/>
  </g>
  <g stroke="chocolate" stroke-width="1">
    <line x1="601" y1="356" x2="584" y2="329"/>
    <circle cx="601" cy="356" r="2"/>
    <circle cx="584" cy="329" r="2"/>
  </g>
  <g stroke="chocolate" stroke-width="1">
    <line x1="627" y1="389" x2="573" y2="307"/>
    <circle cx="627" cy="389" r="2"/>
    <circle cx="573" cy="307" r="2"/>
  </g>
  <g stroke="chocolate" stroke-width="1">
    <line x1="652" y1="383" x2="616" y2="335"/>
    <circle cx="652" cy="383" r="2"/>
    <circle cx="616" cy="335" r="2"/>
  </g>
  <g stroke="chocolate" stroke-width="1">
    <line x1="542" y1="409" x2="5" y2="353"/>
    <circle cx="542" cy="409" r="2"/>
    <circle cx="5" cy="353" r="2"/>
  </g>
  <g stroke="chocolate" stroke-width="1">
    <line x1="5" y1="353" x2="573" y2="307"/>
    <circle cx="5" cy="353" r="2"/>
    <circle cx="573" cy="307" r="2"/>
  </g>
  <g stroke="chocolate" stroke-width="1">
    <line x1="519" y1="387" x2="5" y2="353"/>
    <circle cx="519" cy="387" r="2"/>
    <circle cx="5" cy="353" r="2"/>
  </g>
  <g stroke="chocolate" stroke-width="1">
    <line x1="505" y1="384" x2="5" y2="353"/>
    <circle cx="505" cy="384" r="2"/>
    <circle cx="5" cy="353" r="2"/>
  </g>
  <g stroke="chocolate" stroke-width="1">
    <line x1="5" y1="353" x2="512" y2="322"/>
    <circle cx="5" cy="353" r="2"/>
    <circle cx="512" cy="322" r="2"/>
  </g>
  <g stroke="chocolate" stroke-width="1">
    <line x1="5" y1="353" x2="507" y2="324"/>
    <circle cx="5" cy="353" r="2"/>
    <circle cx="507" cy="324" r="2"/>
  </g>
  <g stroke="chocolate" stroke-width="1">
    <line x1="627" y1="389" x2="5" y2="353"/>
    <circle cx="627" cy="389" r="2"/>
    <circle cx="5" cy="353" r="2"/>
  </g>
  <g stroke="chocolate" stroke-width="1">
    <line x1="652" y1="383" x2="5" y2="353"/>
    <circle cx="652" cy="383" r="2"/>
    <circle cx="5" cy="353" r="2"/>
  </g>
  <g stroke="chocolate" stroke-width="1">
    <line x1="5" y1="353" x2="584" y2="329"/>
    <circle cx="5" cy="353" r="2"/>
    <circle cx="584" cy="329" r="2"/>
  </g>
  <g stroke="chocolate" stroke-width="1">
    <line x1="5" y1="353" x2="702" y2="327"/>
    <circle cx="5" cy="353" r="2"/>
    <circle cx="702" cy="327" r="2"/>
  </g>
  <g stroke="chocolate" stroke-width="1">
    <line x1="505" y1="369" x2="5" y2="353"/>
    <circle cx="505" cy="369" r="2"/>
    <circle cx="5" cy="353" r="2"/>
  </g>
  <g stroke="chocolate" stroke-width="1">
    <line x1="5" y1="353" x2="616" y2="335"/>
    <circle cx="5" cy="353" r="2"/>
    <circle cx="616" cy="335" r="2"/>
  </g>
  <g stroke="chocolate" stroke-width="1">
    <line x1="5" y1="353" x2="667" y2="341"/>
    <circle cx="5" cy="353" r="2"/>
    <circle cx="667" cy="341" r="2"/>
  </g>
  <g stroke="chocolate" stroke-width="1">
    <line x1="5" y1="353" x2="533" y2="344"/>
    <circle cx="5" cy="353" r="2"/>
    <circle cx="533" cy="344" r="2"/>
  </g>
  <g stroke="chocolate" stroke-width="1">
    <line x1="549" y1="361" x2="5" y2="353"/>
    <circle cx="549" cy="361" r="2"/>
    <circle cx="5" cy="353" r="2"/>
  </g>
  <g stroke="chocolate" stroke-width="1">
    <line x1="686" y1="362" x2="5" y2="353"/>
    <circle cx="686" cy="362" r="2"/>
    <circle cx="5" cy="353" r="2"/>
  </g>
  <g stroke="chocolate" stroke-width="1">
    <line x1="5" y1="353" x2="544" y2="347"/>
    <circle cx="5" cy="353" r="2"/>
    <circle cx="544" cy="347" r="2"/>
  </g>
  <g stroke="chocolate" stroke-width="1">
    <line x1="539" y1="359" x2="5" y2="353"/>
    <circle cx="539" cy="359" r="2"/>
    <circle cx="5" cy="353" r="2"/>
  </g>
  <g stroke="chocolate" stroke-width="1">
    <line x1="5" y1="353" x2="524" y2="348"/>
    <circle cx="5" cy="353" r="2"/>
    <circle cx="524" cy="348" r="2"/>
  </g>
  <g stroke="chocolate" stroke-width="1">
    <line x1="522" y1="357" x2="5" y2="353"/>
    <circle cx="522" cy="357" r="2"/>
    <circle cx="5" cy="353" r="2"/>
  </g>
  <g stroke="chocolate" stroke-width="1">
    <line x1="601" y1="356" x2="5" y2="353"/>
    <circle cx="601" cy="356" r="2"/>
    <circle cx="5" cy="353" r="2"/>
  </g>
  <g stroke="chocolate" stroke-width="1">
    <line x1="5" y1="353" x2="505" y2="353"/>
    <circle cx="5" cy="353" r="2"/>
    <circle cx="505" cy="353" r="2"/>
  </g>
  <g stroke="chocolate" stroke-width="1">
    <line x1="686" y1="362" x2="667" y2="341"/>
    <circle cx="686" cy="362" r="2"/>
    <circle cx="667" cy="341" r="2"/>
  </g>
  <g stroke="chocolate" stroke-width="1">
    <line x1="711" y1="336" x2="702" y2="327"/>
    <circle cx="711" cy="336" r="2"/>
    <circle cx="702" cy="327" r="2"/>
  </g>
  <g stroke="black" stroke-width="1">
    <line x1="108" y1="108" x2="608" y2="108"/>
    <line x1="108" y1="108" x2="108" y2="608"/>
    <line x1="608" y1="608" x2="108" y2="608"/>
    <line x1="608" y1="608" x2="608" y2="108"/>
    <line x1="208" y1="105" x2="208" y2="111"/>
    <line x1="105" y1="208" x2="111" y2="208"/>
    <line x1="208" y1="605" x2="208" y2="611"/>
    <line x1="605" y1="208" x2="611" y2="208"/>
    <line x1="308" y1="105" x2="308" y2="111"/>
    <line x1="105" y1="308" x2="111" y2="308"/>
    <line x1="308" y1="605" x2="308" y2="611"/>
    <line x1="605" y1="308" x2="611" y2="308"/>
    <line x1="408" y1="105" x2="408" y2="111"/>
    <line x1="105" y1="408" x2="111" y2="408"/>
    <line x1="408" y1="605" x2="408" y2="611"/>
    <line x1="605" y1="408" x2="611" y2="408"/>
    <line x1="508" y1="105" x2="508" y2="111"/>
    <line x1="105" y1="508" x2="111" y2="508"/>
    <line x1="508" y1="605" x2="508" y2="611"/>
    <line x1="605" y1="508" x2="611" y2="508"/>
  </g>
  <g stroke="gray" stroke-width="1" stroke-dasharray="5,5">
    <line x1="208" y1="108" x2="208" y2="608"/>
    <line x1="108" y1="208" x2="608" y2="208"/>
    <line x1="308" y1="108" x2="308" y2="608"/>
    <line x1="108" y1="308" x2="608" y2="308"/>
    <line x1="408" y1="108" x2="408" y2="608"/>
    <line x1="108" y1="408" x2="608" y2="408"/>
    <line x1="508" y1="108" x2="508" y2="608"/>
    <line x1="108" y1="508" x2="608" y2="508"/>
  </g>
</svg>
