<?xml version="1.0" standalone="no"?>
<!DOCTYPE svg PUBLIC "-//W3C//DTD SVG 1.1//EN" 
  "http://www.w3.org/Graphics/SVG/1.1/DTD/svg11.dtd">
<svg width="716" height="716" version="1.1" id="toplevel"
    xmlns="http://www.w3.org/2000/svg"
    xmlns:xlink="http://www.w3.org/1999/xlink">
  <polygon points="505,404 505,402 526,403 539,372 570,373 572,370 677,373 711,337 702,328 641,330 629,316 569,319 564,312 5,354"
           fill="bisque"/>
  <g stroke="chocolate" stroke-width="1">
    <line x1="570" y1="373" x2="590" y2="339"/>
    <circle cx="570" cy="373" r="2"/>
    <circle cx="590" cy="339" r="2"/>
  </g>
  <g stroke="chocolate" stroke-width="1">
    <line x1="601" y1="357" x2="629" y2="316"/>
    <circle cx="601" cy="357" r="2"/>
    <circle cx="629" cy="316" r="2"/>
  </g>
  <g stroke="chocolate" stroke-width="1">
    <line x1="598" y1="367" x2="631" y2="318"/>
    <circle cx="598" cy="367" r="2"/>
    <circle cx="631" cy="318" r="2"/>
  </g>
  <g stroke="chocolate" stroke-width="1">
    <line x1="526" y1="403" x2="564" y2="312"/>
    <circle cx="526" cy="403" r="2"/>
    <circle cx="564" cy="312" r="2"/>
  </g>
  <g stroke="chocolate" stroke-width="1">
    <line x1="670" y1="364" x2="702" y2="328"/>
    <circle cx="670" cy="364" r="2"/>
    <circle cx="702" cy="328" r="2"/>
  </g>
  <g stroke="chocolate" stroke-width="1">
    <line x1="677" y1="373" x2="711" y2="337"/>
    <circle cx="677" cy="373" r="2"/>
    <circle cx="711" cy="337" r="2"/>
  </g>
  <g stroke="chocolate" stroke-width="1">
    <line x1="517" y1="363" x2="524" y2="335"/>
    <circle cx="517" cy="363" r="2"/>
    <circle cx="524" cy="335" r="2"/>
  </g>
  <g stroke="chocolate" stroke-width="1">
    <line x1="505" y1="404" x2="515" y2="352"/>
    <circle cx="505" cy="404" r="2"/>
    <circle cx="515" cy="352" r="2"/>
  </g>
  <g stroke="chocolate" stroke-width="1">
    <line x1="508" y1="359" x2="511" y2="334"/>
    <circle cx="508" cy="359" r="2"/>
    <circle cx="511" cy="334" r="2"/>
  </g>
  <g stroke="chocolate" stroke-width="1">
    <line x1="505" y1="376" x2="507" y2="350"/>
    <circle cx="505" cy="376" r="2"/>
    <circle cx="507" cy="350" r="2"/>
  </g>
  <g stroke="chocolate" stroke-width="1">
    <line x1="505" y1="404" x2="505" y2="354"/>
    <circle cx="505" cy="404" r="2"/>
    <circle cx="505" cy="354" r="2"/>
  </g>
  <g stroke="chocolate" stroke-width="1">
    <line x1="508" y1="359" x2="507" y2="350"/>
    <circle cx="508" cy="359" r="2"/>
    <circle cx="507" cy="350" r="2"/>
  </g>
  <g stroke="chocolate" stroke-width="1">
    <line x1="526" y1="403" x2="511" y2="334"/>
    <circle cx="526" cy="403" r="2"/>
    <circle cx="511" cy="334" r="2"/>
  </g>
  <g stroke="chocolate" stroke-width="1">
    <line x1="537" y1="376" x2="524" y2="335"/>
    <circle cx="537" cy="376" r="2"/>
    <circle cx="524" cy="335" r="2"/>
  </g>
  <g stroke="chocolate" stroke-width="1">
    <line x1="570" y1="373" x2="553" y2="338"/>
    <circle cx="570" cy="373" r="2"/>
    <circle cx="553" cy="338" r="2"/>
  </g>
  <g stroke="chocolate" stroke-width="1">
    <line x1="598" y1="367" x2="564" y2="312"/>
    <circle cx="598" cy="367" r="2"/>
    <circle cx="564" cy="312" r="2"/>
  </g>
  <g stroke="chocolate" stroke-width="1">
    <line x1="601" y1="357" x2="590" y2="339"/>
    <circle cx="601" cy="357" r="2"/>
    <circle cx="590" cy="339" r="2"/>
  </g>
  <g stroke="chocolate" stroke-width="1">
    <line x1="505" y1="404" x2="5" y2="354"/>
    <circle cx="505" cy="404" r="2"/>
    <circle cx="5" cy="354" r="2"/>
  </g>
  <g stroke="chocolate" stroke-width="1">
    <line x1="526" y1="403" x2="5" y2="354"/>
    <circle cx="526" cy="403" r="2"/>
    <circle cx="5" cy="354" r="2"/>
  </g>
  <g stroke="chocolate" stroke-width="1">
    <line x1="5" y1="354" x2="564" y2="312"/>
    <circle cx="5" cy="354" r="2"/>
    <circle cx="564" cy="312" r="2"/>
  </g>
  <g stroke="chocolate" stroke-width="1">
    <line x1="5" y1="354" x2="629" y2="316"/>
    <circle cx="5" cy="354" r="2"/>
    <circle cx="629" cy="316" r="2"/>
  </g>
  <g stroke="chocolate" stroke-width="1">
    <line x1="5" y1="354" x2="631" y2="318"/>
    <circle cx="5" cy="354" r="2"/>
    <circle cx="631" cy="318" r="2"/>
  </g>
  <g stroke="chocolate" stroke-width="1">
    <line x1="505" y1="376" x2="5" y2="354"/>
    <circle cx="505" cy="376" r="2"/>
    <circle cx="5" cy="354" r="2"/>
  </g>
  <g stroke="chocolate" stroke-width="1">
    <line x1="537" y1="376" x2="5" y2="354"/>
    <circle cx="537" cy="376" r="2"/>
    <circle cx="5" cy="354" r="2"/>
  </g>
  <g stroke="chocolate" stroke-width="1">
    <line x1="5" y1="354" x2="511" y2="334"/>
    <circle cx="5" cy="354" r="2"/>
    <circle cx="511" cy="334" r="2"/>
  </g>
  <g stroke="chocolate" stroke-width="1">
    <line x1="5" y1="354" x2="702" y2="328"/>
    <circle cx="5" cy="354" r="2"/>
    <circle cx="702" cy="328" r="2"/>
  </g>
  <g stroke="chocolate" stroke-width="1">
    <line x1="5" y1="354" x2="524" y2="335"/>
    <circle cx="5" cy="354" r="2"/>
    <circle cx="524" cy="335" r="2"/>
  </g>
  <g stroke="chocolate" stroke-width="1">
    <line x1="570" y1="373" x2="5" y2="354"/>
    <circle cx="570" cy="373" r="2"/>
    <circle cx="5" cy="354" r="2"/>
  </g>
  <g stroke="chocolate" stroke-width="1">
    <line x1="5" y1="354" x2="553" y2="338"/>
    <circle cx="5" cy="354" r="2"/>
    <circle cx="553" cy="338" r="2"/>
  </g>
  <g stroke="chocolate" stroke-width="1">
    <line x1="677" y1="373" x2="5" y2="354"/>
    <circle cx="677" cy="373" r="2"/>
    <circle cx="5" cy="354" r="2"/>
  </g>
  <g stroke="chocolate" stroke-width="1">
    <line x1="5" y1="354" x2="590" y2="339"/>
    <circle cx="5" cy="354" r="2"/>
    <circle cx="590" cy="339" r="2"/>
  </g>
  <g stroke="chocolate" stroke-width="1">
    <line x1="598" y1="367" x2="5" y2="354"/>
    <circle cx="598" cy="367" r="2"/>
    <circle cx="5" cy="354" r="2"/>
  </g>
  <g stroke="chocolate" stroke-width="1">
    <line x1="517" y1="363" x2="5" y2="354"/>
    <circle cx="517" cy="363" r="2"/>
    <circle cx="5" cy="354" r="2"/>
  </g>
  <g stroke="chocolate" stroke-width="1">
    <line x1="670" y1="364" x2="5" y2="354"/>
    <circle cx="670" cy="364" r="2"/>
    <circle cx="5" cy="354" r="2"/>
  </g>
  <g stroke="chocolate" stroke-width="1">
    <line x1="508" y1="359" x2="5" y2="354"/>
    <circle cx="508" cy="359" r="2"/>
    <circle cx="5" cy="354" r="2"/>
  </g>
  <g stroke="chocolate" stroke-width="1">
    <line x1="5" y1="354" x2="507" y2="350"/>
    <circle cx="5" cy="354" r="2"/>
    <circle cx="507" cy="350" r="2"/>
  </g>
  <g stroke="chocolate" stroke-width="1">
    <line x1="601" y1="357" x2="5" y2="354"/>
    <circle cx="601" cy="357" r="2"/>
    <circle cx="5" cy="354" r="2"/>
  </g>
  <g stroke="chocolate" stroke-width="1">
    <line x1="5" y1="354" x2="515" y2="352"/>
    <circle cx="5" cy="354" r="2"/>
    <circle cx="515" cy="352" r="2"/>
  </g>
  <g stroke="chocolate" stroke-width="1">
    <line x1="5" y1="354" x2="505" y2="354"/>
    <circle cx="5" cy="354" r="2"/>
    <circle cx="505" cy="354" r="2"/>
  </g>
  <g stroke="chocolate" stroke-width="1">
    <line x1="677" y1="373" x2="629" y2="316"/>
    <circle cx="677" cy="373" r="2"/>
    <circle cx="629" cy="316" r="2"/>
  </g>
  <g stroke="chocolate" stroke-width="1">
    <line x1="711" y1="337" x2="702" y2="328"/>
    <circle cx="711" cy="337" r="2"/>
    <circle cx="702" cy="328" r="2"/>
  </g>
  <g stroke="black" stroke-width="1">
    <line x1="108" y1="108" x2="608" y2="108"/>
    <line x1="108" y1="108" x2="108" y2="608"/>
    <line x1="608" y1="608" x2="108" y2="608"/>
    <line x1="608" y1="608" x2="608" y2="108"/>
    <line x1="208" y1="105" x2="208" y2="111"/>
    <line x1="105" y1="208" x2="111" y2="208"/>
    <line x1="208" y1="605" x2="208" y2="611"/>
    <line x1="605" y1="208" x2="611" y2="208"/>
    <line x1="308" y1="105" x2="308" y2="111"/>
    <line x1="105" y1="308" x2="111" y2="308"/>
    <line x1="308" y1="605" x2="308" y2="611"/>
    <line x1="605" y1="308" x2="611" y2="308"/>
    <line x1="408" y1="105" x2="408" y2="111"/>
    <line x1="105" y1="408" x2="111" y2="408"/>
    <line x1="408" y1="605" x2="408" y2="611"/>
    <line x1="605" y1="408" x2="611" y2="408"/>
    <line x1="508" y1="105" x2="508" y2="111"/>
    <line x1="105" y1="508" x2="111" y2="508"/>
    <line x1="508" y1="605" x2="508" y2="611"/>
    <line x1="605" y1="508" x2="611" y2="508"/>
  </g>
  <g stroke="gray" stroke-width="1" stroke-dasharray="5,5">
    <line x1="208" y1="108" x2="208" y2="608"/>
    <line x1="108" y1="208" x2="608" y2="208"/>
    <line x1="308" y1="108" x2="308" y2="608"/>
    <line x1="108" y1="308" x2="608" y2="308"/>
    <line x1="408" y1="108" x2="408" y2="608"/>
    <line x1="108" y1="408" x2="608" y2="408"/>
    <line x1="508" y1="108" x2="508" y2="608"/>
    <line x1="108" y1="508" x2="608" y2="508"/>
  </g>
</svg>
