<?xml version="1.0" standalone="no"?>
<!DOCTYPE svg PUBLIC "-//W3C//DTD SVG 1.1//EN" 
  "http://www.w3.org/Graphics/SVG/1.1/DTD/svg11.dtd">
<svg width="716" height="716" version="1.1" id="toplevel"
    xmlns="http://www.w3.org/2000/svg"
    xmlns:xlink="http://www.w3.org/1999/xlink">
  <polygon points="562,435 577,412 639,416 662,390 677,391 711,355 702,346 641,348 584,281 5,372"
           fill="bisque"/>
  <g stroke="chocolate" stroke-width="1">
    <line x1="562" y1="435" x2="606" y2="368"/>
    <circle cx="562" cy="435" r="2"/>
    <circle cx="606" cy="368" r="2"/>
  </g>
  <g stroke="chocolate" stroke-width="1">
    <line x1="546" y1="372" x2="584" y2="281"/>
    <circle cx="546" cy="372" r="2"/>
    <circle cx="584" cy="281" r="2"/>
  </g>
  <g stroke="chocolate" stroke-width="1">
    <line x1="541" y1="373" x2="544" y2="366"/>
    <circle cx="541" cy="373" r="2"/>
    <circle cx="544" cy="366" r="2"/>
  </g>
  <g stroke="chocolate" stroke-width="1">
    <line x1="639" y1="416" x2="702" y2="346"/>
    <circle cx="639" cy="416" r="2"/>
    <circle cx="702" cy="346" r="2"/>
  </g>
  <g stroke="chocolate" stroke-width="1">
    <line x1="677" y1="391" x2="711" y2="355"/>
    <circle cx="677" cy="391" r="2"/>
    <circle cx="711" cy="355" r="2"/>
  </g>
  <g stroke="chocolate" stroke-width="1">
    <line x1="517" y1="394" x2="530" y2="346"/>
    <circle cx="517" cy="394" r="2"/>
    <circle cx="530" cy="346" r="2"/>
  </g>
  <g stroke="chocolate" stroke-width="1">
    <line x1="511" y1="406" x2="520" y2="370"/>
    <circle cx="511" cy="406" r="2"/>
    <circle cx="520" cy="370" r="2"/>
  </g>
  <g stroke="chocolate" stroke-width="1">
    <line x1="508" y1="395" x2="512" y2="368"/>
    <circle cx="508" cy="395" r="2"/>
    <circle cx="512" cy="368" r="2"/>
  </g>
  <g stroke="chocolate" stroke-width="1">
    <line x1="505" y1="388" x2="506" y2="362"/>
    <circle cx="505" cy="388" r="2"/>
    <circle cx="506" cy="362" r="2"/>
  </g>
  <g stroke="chocolate" stroke-width="1">
    <line x1="505" y1="388" x2="505" y2="372"/>
    <circle cx="505" cy="388" r="2"/>
    <circle cx="505" cy="372" r="2"/>
  </g>
  <g stroke="chocolate" stroke-width="1">
    <line x1="508" y1="395" x2="506" y2="370"/>
    <circle cx="508" cy="395" r="2"/>
    <circle cx="506" cy="370" r="2"/>
  </g>
  <g stroke="chocolate" stroke-width="1">
    <line x1="511" y1="406" x2="506" y2="362"/>
    <circle cx="511" cy="406" r="2"/>
    <circle cx="506" cy="362" r="2"/>
  </g>
  <g stroke="chocolate" stroke-width="1">
    <line x1="517" y1="394" x2="512" y2="368"/>
    <circle cx="517" cy="394" r="2"/>
    <circle cx="512" cy="368" r="2"/>
  </g>
  <g stroke="chocolate" stroke-width="1">
    <line x1="522" y1="376" x2="520" y2="370"/>
    <circle cx="522" cy="376" r="2"/>
    <circle cx="520" cy="370" r="2"/>
  </g>
  <g stroke="chocolate" stroke-width="1">
    <line x1="562" y1="435" x2="529" y2="347"/>
    <circle cx="562" cy="435" r="2"/>
    <circle cx="529" cy="347" r="2"/>
  </g>
  <g stroke="chocolate" stroke-width="1">
    <line x1="541" y1="373" x2="530" y2="346"/>
    <circle cx="541" cy="373" r="2"/>
    <circle cx="530" cy="346" r="2"/>
  </g>
  <g stroke="chocolate" stroke-width="1">
    <line x1="546" y1="372" x2="544" y2="366"/>
    <circle cx="546" cy="372" r="2"/>
    <circle cx="544" cy="366" r="2"/>
  </g>
  <g stroke="chocolate" stroke-width="1">
    <line x1="639" y1="416" x2="606" y2="368"/>
    <circle cx="639" cy="416" r="2"/>
    <circle cx="606" cy="368" r="2"/>
  </g>
  <g stroke="chocolate" stroke-width="1">
    <line x1="5" y1="372" x2="584" y2="281"/>
    <circle cx="5" cy="372" r="2"/>
    <circle cx="584" cy="281" r="2"/>
  </g>
  <g stroke="chocolate" stroke-width="1">
    <line x1="562" y1="435" x2="5" y2="372"/>
    <circle cx="562" cy="435" r="2"/>
    <circle cx="5" cy="372" r="2"/>
  </g>
  <g stroke="chocolate" stroke-width="1">
    <line x1="639" y1="416" x2="5" y2="372"/>
    <circle cx="639" cy="416" r="2"/>
    <circle cx="5" cy="372" r="2"/>
  </g>
  <g stroke="chocolate" stroke-width="1">
    <line x1="511" y1="406" x2="5" y2="372"/>
    <circle cx="511" cy="406" r="2"/>
    <circle cx="5" cy="372" r="2"/>
  </g>
  <g stroke="chocolate" stroke-width="1">
    <line x1="5" y1="372" x2="530" y2="346"/>
    <circle cx="5" cy="372" r="2"/>
    <circle cx="530" cy="346" r="2"/>
  </g>
  <g stroke="chocolate" stroke-width="1">
    <line x1="5" y1="372" x2="529" y2="347"/>
    <circle cx="5" cy="372" r="2"/>
    <circle cx="529" cy="347" r="2"/>
  </g>
  <g stroke="chocolate" stroke-width="1">
    <line x1="508" y1="395" x2="5" y2="372"/>
    <circle cx="508" cy="395" r="2"/>
    <circle cx="5" cy="372" r="2"/>
  </g>
  <g stroke="chocolate" stroke-width="1">
    <line x1="517" y1="394" x2="5" y2="372"/>
    <circle cx="517" cy="394" r="2"/>
    <circle cx="5" cy="372" r="2"/>
  </g>
  <g stroke="chocolate" stroke-width="1">
    <line x1="5" y1="372" x2="702" y2="346"/>
    <circle cx="5" cy="372" r="2"/>
    <circle cx="702" cy="346" r="2"/>
  </g>
  <g stroke="chocolate" stroke-width="1">
    <line x1="505" y1="388" x2="5" y2="372"/>
    <circle cx="505" cy="388" r="2"/>
    <circle cx="5" cy="372" r="2"/>
  </g>
  <g stroke="chocolate" stroke-width="1">
    <line x1="677" y1="391" x2="5" y2="372"/>
    <circle cx="677" cy="391" r="2"/>
    <circle cx="5" cy="372" r="2"/>
  </g>
  <g stroke="chocolate" stroke-width="1">
    <line x1="5" y1="372" x2="506" y2="362"/>
    <circle cx="5" cy="372" r="2"/>
    <circle cx="506" cy="362" r="2"/>
  </g>
  <g stroke="chocolate" stroke-width="1">
    <line x1="5" y1="372" x2="544" y2="366"/>
    <circle cx="5" cy="372" r="2"/>
    <circle cx="544" cy="366" r="2"/>
  </g>
  <g stroke="chocolate" stroke-width="1">
    <line x1="522" y1="376" x2="5" y2="372"/>
    <circle cx="522" cy="376" r="2"/>
    <circle cx="5" cy="372" r="2"/>
  </g>
  <g stroke="chocolate" stroke-width="1">
    <line x1="5" y1="372" x2="512" y2="368"/>
    <circle cx="5" cy="372" r="2"/>
    <circle cx="512" cy="368" r="2"/>
  </g>
  <g stroke="chocolate" stroke-width="1">
    <line x1="5" y1="372" x2="606" y2="368"/>
    <circle cx="5" cy="372" r="2"/>
    <circle cx="606" cy="368" r="2"/>
  </g>
  <g stroke="chocolate" stroke-width="1">
    <line x1="5" y1="372" x2="520" y2="370"/>
    <circle cx="5" cy="372" r="2"/>
    <circle cx="520" cy="370" r="2"/>
  </g>
  <g stroke="chocolate" stroke-width="1">
    <line x1="5" y1="372" x2="506" y2="370"/>
    <circle cx="5" cy="372" r="2"/>
    <circle cx="506" cy="370" r="2"/>
  </g>
  <g stroke="chocolate" stroke-width="1">
    <line x1="541" y1="373" x2="5" y2="372"/>
    <circle cx="541" cy="373" r="2"/>
    <circle cx="5" cy="372" r="2"/>
  </g>
  <g stroke="chocolate" stroke-width="1">
    <line x1="5" y1="372" x2="546" y2="372"/>
    <circle cx="5" cy="372" r="2"/>
    <circle cx="546" cy="372" r="2"/>
  </g>
  <g stroke="chocolate" stroke-width="1">
    <line x1="677" y1="391" x2="584" y2="281"/>
    <circle cx="677" cy="391" r="2"/>
    <circle cx="584" cy="281" r="2"/>
  </g>
  <g stroke="chocolate" stroke-width="1">
    <line x1="711" y1="355" x2="702" y2="346"/>
    <circle cx="711" cy="355" r="2"/>
    <circle cx="702" cy="346" r="2"/>
  </g>
  <g stroke="black" stroke-width="1">
    <line x1="108" y1="108" x2="608" y2="108"/>
    <line x1="108" y1="108" x2="108" y2="608"/>
    <line x1="608" y1="608" x2="108" y2="608"/>
    <line x1="608" y1="608" x2="608" y2="108"/>
    <line x1="208" y1="105" x2="208" y2="111"/>
    <line x1="105" y1="208" x2="111" y2="208"/>
    <line x1="208" y1="605" x2="208" y2="611"/>
    <line x1="605" y1="208" x2="611" y2="208"/>
    <line x1="308" y1="105" x2="308" y2="111"/>
    <line x1="105" y1="308" x2="111" y2="308"/>
    <line x1="308" y1="605" x2="308" y2="611"/>
    <line x1="605" y1="308" x2="611" y2="308"/>
    <line x1="408" y1="105" x2="408" y2="111"/>
    <line x1="105" y1="408" x2="111" y2="408"/>
    <line x1="408" y1="605" x2="408" y2="611"/>
    <line x1="605" y1="408" x2="611" y2="408"/>
    <line x1="508" y1="105" x2="508" y2="111"/>
    <line x1="105" y1="508" x2="111" y2="508"/>
    <line x1="508" y1="605" x2="508" y2="611"/>
    <line x1="605" y1="508" x2="611" y2="508"/>
  </g>
  <g stroke="gray" stroke-width="1" stroke-dasharray="5,5">
    <line x1="208" y1="108" x2="208" y2="608"/>
    <line x1="108" y1="208" x2="608" y2="208"/>
    <line x1="308" y1="108" x2="308" y2="608"/>
    <line x1="108" y1="308" x2="608" y2="308"/>
    <line x1="408" y1="108" x2="408" y2="608"/>
    <line x1="108" y1="408" x2="608" y2="408"/>
    <line x1="508" y1="108" x2="508" y2="608"/>
    <line x1="108" y1="508" x2="608" y2="508"/>
  </g>
</svg>
