<?xml version="1.0" standalone="no"?>
<!DOCTYPE svg PUBLIC "-//W3C//DTD SVG 1.1//EN" 
  "http://www.w3.org/Graphics/SVG/1.1/DTD/svg11.dtd">
<svg width="718" height="718" version="1.1" id="toplevel"
    xmlns="http://www.w3.org/2000/svg"
    xmlns:xlink="http://www.w3.org/1999/xlink">
  <polygon points="603,413 624,388 633,389 651,369 700,370 713,358 678,323 558,328 545,305 5,355"
           fill="bisque"/>
  <g stroke="chocolate" stroke-width="1">
    <line x1="587" y1="382" x2="607" y2="350"/>
    <circle cx="587" cy="382" r="2"/>
    <circle cx="607" cy="350" r="2"/>
  </g>
  <g stroke="chocolate" stroke-width="1">
    <line x1="537" y1="378" x2="558" y2="328"/>
    <circle cx="537" cy="378" r="2"/>
    <circle cx="558" cy="328" r="2"/>
  </g>
  <g stroke="chocolate" stroke-width="1">
    <line x1="603" y1="413" x2="678" y2="323"/>
    <circle cx="603" cy="413" r="2"/>
    <circle cx="678" cy="323" r="2"/>
  </g>
  <g stroke="chocolate" stroke-width="1">
    <line x1="633" y1="389" x2="674" y2="341"/>
    <circle cx="633" cy="389" r="2"/>
    <circle cx="674" cy="341" r="2"/>
  </g>
  <g stroke="chocolate" stroke-width="1">
    <line x1="524" y1="372" x2="545" y2="305"/>
    <circle cx="524" cy="372" r="2"/>
    <circle cx="545" cy="305" r="2"/>
  </g>
  <g stroke="chocolate" stroke-width="1">
    <line x1="700" y1="370" x2="713" y2="358"/>
    <circle cx="700" cy="370" r="2"/>
    <circle cx="713" cy="358" r="2"/>
  </g>
  <g stroke="chocolate" stroke-width="1">
    <line x1="522" y1="371" x2="528" y2="349"/>
    <circle cx="522" cy="371" r="2"/>
    <circle cx="528" cy="349" r="2"/>
  </g>
  <g stroke="chocolate" stroke-width="1">
    <line x1="516" y1="356" x2="518" y2="346"/>
    <circle cx="516" cy="356" r="2"/>
    <circle cx="518" cy="346" r="2"/>
  </g>
  <g stroke="chocolate" stroke-width="1">
    <line x1="511" y1="375" x2="517" y2="349"/>
    <circle cx="511" cy="375" r="2"/>
    <circle cx="517" cy="349" r="2"/>
  </g>
  <g stroke="chocolate" stroke-width="1">
    <line x1="505" y1="400" x2="515" y2="350"/>
    <circle cx="505" cy="400" r="2"/>
    <circle cx="515" cy="350" r="2"/>
  </g>
  <g stroke="chocolate" stroke-width="1">
    <line x1="505" y1="371" x2="507" y2="341"/>
    <circle cx="505" cy="371" r="2"/>
    <circle cx="507" cy="341" r="2"/>
  </g>
  <g stroke="chocolate" stroke-width="1">
    <line x1="505" y1="400" x2="505" y2="355"/>
    <circle cx="505" cy="400" r="2"/>
    <circle cx="505" cy="355" r="2"/>
  </g>
  <g stroke="chocolate" stroke-width="1">
    <line x1="511" y1="375" x2="507" y2="341"/>
    <circle cx="511" cy="375" r="2"/>
    <circle cx="507" cy="341" r="2"/>
  </g>
  <g stroke="chocolate" stroke-width="1">
    <line x1="516" y1="356" x2="515" y2="350"/>
    <circle cx="516" cy="356" r="2"/>
    <circle cx="515" cy="350" r="2"/>
  </g>
  <g stroke="chocolate" stroke-width="1">
    <line x1="522" y1="371" x2="517" y2="349"/>
    <circle cx="522" cy="371" r="2"/>
    <circle cx="517" cy="349" r="2"/>
  </g>
  <g stroke="chocolate" stroke-width="1">
    <line x1="524" y1="372" x2="518" y2="346"/>
    <circle cx="524" cy="372" r="2"/>
    <circle cx="518" cy="346" r="2"/>
  </g>
  <g stroke="chocolate" stroke-width="1">
    <line x1="537" y1="378" x2="528" y2="349"/>
    <circle cx="537" cy="378" r="2"/>
    <circle cx="528" cy="349" r="2"/>
  </g>
  <g stroke="chocolate" stroke-width="1">
    <line x1="603" y1="413" x2="545" y2="305"/>
    <circle cx="603" cy="413" r="2"/>
    <circle cx="545" cy="305" r="2"/>
  </g>
  <g stroke="chocolate" stroke-width="1">
    <line x1="633" y1="389" x2="607" y2="350"/>
    <circle cx="633" cy="389" r="2"/>
    <circle cx="607" cy="350" r="2"/>
  </g>
  <g stroke="chocolate" stroke-width="1">
    <line x1="603" y1="413" x2="5" y2="355"/>
    <circle cx="603" cy="413" r="2"/>
    <circle cx="5" cy="355" r="2"/>
  </g>
  <g stroke="chocolate" stroke-width="1">
    <line x1="5" y1="355" x2="545" y2="305"/>
    <circle cx="5" cy="355" r="2"/>
    <circle cx="545" cy="305" r="2"/>
  </g>
  <g stroke="chocolate" stroke-width="1">
    <line x1="505" y1="400" x2="5" y2="355"/>
    <circle cx="505" cy="400" r="2"/>
    <circle cx="5" cy="355" r="2"/>
  </g>
  <g stroke="chocolate" stroke-width="1">
    <line x1="633" y1="389" x2="5" y2="355"/>
    <circle cx="633" cy="389" r="2"/>
    <circle cx="5" cy="355" r="2"/>
  </g>
  <g stroke="chocolate" stroke-width="1">
    <line x1="5" y1="355" x2="678" y2="323"/>
    <circle cx="5" cy="355" r="2"/>
    <circle cx="678" cy="323" r="2"/>
  </g>
  <g stroke="chocolate" stroke-width="1">
    <line x1="587" y1="382" x2="5" y2="355"/>
    <circle cx="587" cy="382" r="2"/>
    <circle cx="5" cy="355" r="2"/>
  </g>
  <g stroke="chocolate" stroke-width="1">
    <line x1="537" y1="378" x2="5" y2="355"/>
    <circle cx="537" cy="378" r="2"/>
    <circle cx="5" cy="355" r="2"/>
  </g>
  <g stroke="chocolate" stroke-width="1">
    <line x1="511" y1="375" x2="5" y2="355"/>
    <circle cx="511" cy="375" r="2"/>
    <circle cx="5" cy="355" r="2"/>
  </g>
  <g stroke="chocolate" stroke-width="1">
    <line x1="524" y1="372" x2="5" y2="355"/>
    <circle cx="524" cy="372" r="2"/>
    <circle cx="5" cy="355" r="2"/>
  </g>
  <g stroke="chocolate" stroke-width="1">
    <line x1="505" y1="371" x2="5" y2="355"/>
    <circle cx="505" cy="371" r="2"/>
    <circle cx="5" cy="355" r="2"/>
  </g>
  <g stroke="chocolate" stroke-width="1">
    <line x1="522" y1="371" x2="5" y2="355"/>
    <circle cx="522" cy="371" r="2"/>
    <circle cx="5" cy="355" r="2"/>
  </g>
  <g stroke="chocolate" stroke-width="1">
    <line x1="5" y1="355" x2="507" y2="341"/>
    <circle cx="5" cy="355" r="2"/>
    <circle cx="507" cy="341" r="2"/>
  </g>
  <g stroke="chocolate" stroke-width="1">
    <line x1="700" y1="370" x2="5" y2="355"/>
    <circle cx="700" cy="370" r="2"/>
    <circle cx="5" cy="355" r="2"/>
  </g>
  <g stroke="chocolate" stroke-width="1">
    <line x1="5" y1="355" x2="674" y2="341"/>
    <circle cx="5" cy="355" r="2"/>
    <circle cx="674" cy="341" r="2"/>
  </g>
  <g stroke="chocolate" stroke-width="1">
    <line x1="5" y1="355" x2="518" y2="346"/>
    <circle cx="5" cy="355" r="2"/>
    <circle cx="518" cy="346" r="2"/>
  </g>
  <g stroke="chocolate" stroke-width="1">
    <line x1="5" y1="355" x2="517" y2="349"/>
    <circle cx="5" cy="355" r="2"/>
    <circle cx="517" cy="349" r="2"/>
  </g>
  <g stroke="chocolate" stroke-width="1">
    <line x1="5" y1="355" x2="528" y2="349"/>
    <circle cx="5" cy="355" r="2"/>
    <circle cx="528" cy="349" r="2"/>
  </g>
  <g stroke="chocolate" stroke-width="1">
    <line x1="5" y1="355" x2="515" y2="350"/>
    <circle cx="5" cy="355" r="2"/>
    <circle cx="515" cy="350" r="2"/>
  </g>
  <g stroke="chocolate" stroke-width="1">
    <line x1="5" y1="355" x2="607" y2="350"/>
    <circle cx="5" cy="355" r="2"/>
    <circle cx="607" cy="350" r="2"/>
  </g>
  <g stroke="chocolate" stroke-width="1">
    <line x1="516" y1="356" x2="5" y2="355"/>
    <circle cx="516" cy="356" r="2"/>
    <circle cx="5" cy="355" r="2"/>
  </g>
  <g stroke="chocolate" stroke-width="1">
    <line x1="5" y1="355" x2="505" y2="355"/>
    <circle cx="5" cy="355" r="2"/>
    <circle cx="505" cy="355" r="2"/>
  </g>
  <g stroke="chocolate" stroke-width="1">
    <line x1="700" y1="370" x2="674" y2="341"/>
    <circle cx="700" cy="370" r="2"/>
    <circle cx="674" cy="341" r="2"/>
  </g>
  <g stroke="chocolate" stroke-width="1">
    <line x1="713" y1="358" x2="678" y2="323"/>
    <circle cx="713" cy="358" r="2"/>
    <circle cx="678" cy="323" r="2"/>
  </g>
  <g stroke="black" stroke-width="1">
    <line x1="109" y1="109" x2="609" y2="109"/>
    <line x1="109" y1="109" x2="109" y2="609"/>
    <line x1="609" y1="609" x2="109" y2="609"/>
    <line x1="609" y1="609" x2="609" y2="109"/>
    <line x1="209" y1="106" x2="209" y2="112"/>
    <line x1="106" y1="209" x2="112" y2="209"/>
    <line x1="209" y1="606" x2="209" y2="612"/>
    <line x1="606" y1="209" x2="612" y2="209"/>
    <line x1="309" y1="106" x2="309" y2="112"/>
    <line x1="106" y1="309" x2="112" y2="309"/>
    <line x1="309" y1="606" x2="309" y2="612"/>
    <line x1="606" y1="309" x2="612" y2="309"/>
    <line x1="409" y1="106" x2="409" y2="112"/>
    <line x1="106" y1="409" x2="112" y2="409"/>
    <line x1="409" y1="606" x2="409" y2="612"/>
    <line x1="606" y1="409" x2="612" y2="409"/>
    <line x1="509" y1="106" x2="509" y2="112"/>
    <line x1="106" y1="509" x2="112" y2="509"/>
    <line x1="509" y1="606" x2="509" y2="612"/>
    <line x1="606" y1="509" x2="612" y2="509"/>
  </g>
  <g stroke="gray" stroke-width="1" stroke-dasharray="5,5">
    <line x1="209" y1="109" x2="209" y2="609"/>
    <line x1="109" y1="209" x2="609" y2="209"/>
    <line x1="309" y1="109" x2="309" y2="609"/>
    <line x1="109" y1="309" x2="609" y2="309"/>
    <line x1="409" y1="109" x2="409" y2="609"/>
    <line x1="109" y1="409" x2="609" y2="409"/>
    <line x1="509" y1="109" x2="509" y2="609"/>
    <line x1="109" y1="509" x2="609" y2="509"/>
  </g>
</svg>
