<?xml version="1.0" standalone="no"?>
<!DOCTYPE svg PUBLIC "-//W3C//DTD SVG 1.1//EN" 
  "http://www.w3.org/Graphics/SVG/1.1/DTD/svg11.dtd">
<svg width="710" height="710" version="1.1" id="toplevel"
    xmlns="http://www.w3.org/2000/svg"
    xmlns:xlink="http://www.w3.org/1999/xlink">
  <polygon points="705,424 601,286 5,324" fill="bisque"/>
  <g stroke="chocolate" stroke-width="1">
    <line x1="557" y1="364" x2="601" y2="286"/>
    <circle cx="557" cy="364" r="2"/>
    <circle cx="601" cy="286" r="2"/>
  </g>
  <g stroke="chocolate" stroke-width="1">
    <line x1="570" y1="405" x2="630" y2="324"/>
    <circle cx="570" cy="405" r="2"/>
    <circle cx="630" cy="324" r="2"/>
  </g>
  <g stroke="chocolate" stroke-width="1">
    <line x1="522" y1="336" x2="533" y2="301"/>
    <circle cx="522" cy="336" r="2"/>
    <circle cx="533" cy="301" r="2"/>
  </g>
  <g stroke="chocolate" stroke-width="1">
    <line x1="512" y1="349" x2="520" y2="313"/>
    <circle cx="512" cy="349" r="2"/>
    <circle cx="520" cy="313" r="2"/>
  </g>
  <g stroke="chocolate" stroke-width="1">
    <line x1="511" y1="330" x2="515" y2="306"/>
    <circle cx="511" cy="330" r="2"/>
    <circle cx="515" cy="306" r="2"/>
  </g>
  <g stroke="chocolate" stroke-width="1">
    <line x1="509" y1="328" x2="510" y2="322"/>
    <circle cx="509" cy="328" r="2"/>
    <circle cx="510" cy="322" r="2"/>
  </g>
  <g stroke="chocolate" stroke-width="1">
    <line x1="505" y1="348" x2="508" y2="317"/>
    <circle cx="505" cy="348" r="2"/>
    <circle cx="508" cy="317" r="2"/>
  </g>
  <g stroke="chocolate" stroke-width="1">
    <line x1="505" y1="343" x2="506" y2="323"/>
    <circle cx="505" cy="343" r="2"/>
    <circle cx="506" cy="323" r="2"/>
  </g>
  <g stroke="chocolate" stroke-width="1">
    <line x1="505" y1="348" x2="505" y2="324"/>
    <circle cx="505" cy="348" r="2"/>
    <circle cx="505" cy="324" r="2"/>
  </g>
  <g stroke="chocolate" stroke-width="1">
    <line x1="507" y1="328" x2="506" y2="323"/>
    <circle cx="507" cy="328" r="2"/>
    <circle cx="506" cy="323" r="2"/>
  </g>
  <g stroke="chocolate" stroke-width="1">
    <line x1="509" y1="328" x2="508" y2="319"/>
    <circle cx="509" cy="328" r="2"/>
    <circle cx="508" cy="319" r="2"/>
  </g>
  <g stroke="chocolate" stroke-width="1">
    <line x1="512" y1="349" x2="508" y2="317"/>
    <circle cx="512" cy="349" r="2"/>
    <circle cx="508" cy="317" r="2"/>
  </g>
  <g stroke="chocolate" stroke-width="1">
    <line x1="511" y1="330" x2="510" y2="322"/>
    <circle cx="511" cy="330" r="2"/>
    <circle cx="510" cy="322" r="2"/>
  </g>
  <g stroke="chocolate" stroke-width="1">
    <line x1="522" y1="336" x2="515" y2="306"/>
    <circle cx="522" cy="336" r="2"/>
    <circle cx="515" cy="306" r="2"/>
  </g>
  <g stroke="chocolate" stroke-width="1">
    <line x1="524" y1="329" x2="520" y2="313"/>
    <circle cx="524" cy="329" r="2"/>
    <circle cx="520" cy="313" r="2"/>
  </g>
  <g stroke="chocolate" stroke-width="1">
    <line x1="570" y1="405" x2="532" y2="304"/>
    <circle cx="570" cy="405" r="2"/>
    <circle cx="532" cy="304" r="2"/>
  </g>
  <g stroke="chocolate" stroke-width="1">
    <line x1="557" y1="364" x2="533" y2="301"/>
    <circle cx="557" cy="364" r="2"/>
    <circle cx="533" cy="301" r="2"/>
  </g>
  <g stroke="chocolate" stroke-width="1">
    <line x1="705" y1="424" x2="601" y2="286"/>
    <circle cx="705" cy="424" r="2"/>
    <circle cx="601" cy="286" r="2"/>
  </g>
  <g stroke="chocolate" stroke-width="1">
    <line x1="705" y1="424" x2="5" y2="324"/>
    <circle cx="705" cy="424" r="2"/>
    <circle cx="5" cy="324" r="2"/>
  </g>
  <g stroke="chocolate" stroke-width="1">
    <line x1="557" y1="364" x2="5" y2="324"/>
    <circle cx="557" cy="364" r="2"/>
    <circle cx="5" cy="324" r="2"/>
  </g>
  <g stroke="chocolate" stroke-width="1">
    <line x1="5" y1="324" x2="601" y2="286"/>
    <circle cx="5" cy="324" r="2"/>
    <circle cx="601" cy="286" r="2"/>
  </g>
  <g stroke="chocolate" stroke-width="1">
    <line x1="512" y1="349" x2="5" y2="324"/>
    <circle cx="512" cy="349" r="2"/>
    <circle cx="5" cy="324" r="2"/>
  </g>
  <g stroke="chocolate" stroke-width="1">
    <line x1="505" y1="348" x2="5" y2="324"/>
    <circle cx="505" cy="348" r="2"/>
    <circle cx="5" cy="324" r="2"/>
  </g>
  <g stroke="chocolate" stroke-width="1">
    <line x1="5" y1="324" x2="533" y2="301"/>
    <circle cx="5" cy="324" r="2"/>
    <circle cx="533" cy="301" r="2"/>
  </g>
  <g stroke="chocolate" stroke-width="1">
    <line x1="5" y1="324" x2="532" y2="304"/>
    <circle cx="5" cy="324" r="2"/>
    <circle cx="532" cy="304" r="2"/>
  </g>
  <g stroke="chocolate" stroke-width="1">
    <line x1="505" y1="343" x2="5" y2="324"/>
    <circle cx="505" cy="343" r="2"/>
    <circle cx="5" cy="324" r="2"/>
  </g>
  <g stroke="chocolate" stroke-width="1">
    <line x1="5" y1="324" x2="515" y2="306"/>
    <circle cx="5" cy="324" r="2"/>
    <circle cx="515" cy="306" r="2"/>
  </g>
  <g stroke="chocolate" stroke-width="1">
    <line x1="522" y1="336" x2="5" y2="324"/>
    <circle cx="522" cy="336" r="2"/>
    <circle cx="5" cy="324" r="2"/>
  </g>
  <g stroke="chocolate" stroke-width="1">
    <line x1="5" y1="324" x2="520" y2="313"/>
    <circle cx="5" cy="324" r="2"/>
    <circle cx="520" cy="313" r="2"/>
  </g>
  <g stroke="chocolate" stroke-width="1">
    <line x1="5" y1="324" x2="508" y2="317"/>
    <circle cx="5" cy="324" r="2"/>
    <circle cx="508" cy="317" r="2"/>
  </g>
  <g stroke="chocolate" stroke-width="1">
    <line x1="511" y1="330" x2="5" y2="324"/>
    <circle cx="511" cy="330" r="2"/>
    <circle cx="5" cy="324" r="2"/>
  </g>
  <g stroke="chocolate" stroke-width="1">
    <line x1="5" y1="324" x2="508" y2="319"/>
    <circle cx="5" cy="324" r="2"/>
    <circle cx="508" cy="319" r="2"/>
  </g>
  <g stroke="chocolate" stroke-width="1">
    <line x1="524" y1="329" x2="5" y2="324"/>
    <circle cx="524" cy="329" r="2"/>
    <circle cx="5" cy="324" r="2"/>
  </g>
  <g stroke="chocolate" stroke-width="1">
    <line x1="509" y1="328" x2="5" y2="324"/>
    <circle cx="509" cy="328" r="2"/>
    <circle cx="5" cy="324" r="2"/>
  </g>
  <g stroke="chocolate" stroke-width="1">
    <line x1="507" y1="328" x2="5" y2="324"/>
    <circle cx="507" cy="328" r="2"/>
    <circle cx="5" cy="324" r="2"/>
  </g>
  <g stroke="chocolate" stroke-width="1">
    <line x1="5" y1="324" x2="510" y2="322"/>
    <circle cx="5" cy="324" r="2"/>
    <circle cx="510" cy="322" r="2"/>
  </g>
  <g stroke="chocolate" stroke-width="1">
    <line x1="5" y1="324" x2="506" y2="323"/>
    <circle cx="5" cy="324" r="2"/>
    <circle cx="506" cy="323" r="2"/>
  </g>
  <g stroke="chocolate" stroke-width="1">
    <line x1="5" y1="324" x2="630" y2="324"/>
    <circle cx="5" cy="324" r="2"/>
    <circle cx="630" cy="324" r="2"/>
  </g>
  <g stroke="black" stroke-width="1">
    <line x1="105" y1="105" x2="605" y2="105"/>
    <line x1="105" y1="105" x2="105" y2="605"/>
    <line x1="605" y1="605" x2="105" y2="605"/>
    <line x1="605" y1="605" x2="605" y2="105"/>
    <line x1="205" y1="102" x2="205" y2="108"/>
    <line x1="102" y1="205" x2="108" y2="205"/>
    <line x1="205" y1="602" x2="205" y2="608"/>
    <line x1="602" y1="205" x2="608" y2="205"/>
    <line x1="305" y1="102" x2="305" y2="108"/>
    <line x1="102" y1="305" x2="108" y2="305"/>
    <line x1="305" y1="602" x2="305" y2="608"/>
    <line x1="602" y1="305" x2="608" y2="305"/>
    <line x1="405" y1="102" x2="405" y2="108"/>
    <line x1="102" y1="405" x2="108" y2="405"/>
    <line x1="405" y1="602" x2="405" y2="608"/>
    <line x1="602" y1="405" x2="608" y2="405"/>
    <line x1="505" y1="102" x2="505" y2="108"/>
    <line x1="102" y1="505" x2="108" y2="505"/>
    <line x1="505" y1="602" x2="505" y2="608"/>
    <line x1="602" y1="505" x2="608" y2="505"/>
  </g>
  <g stroke="gray" stroke-width="1" stroke-dasharray="5,5">
    <line x1="205" y1="105" x2="205" y2="605"/>
    <line x1="105" y1="205" x2="605" y2="205"/>
    <line x1="305" y1="105" x2="305" y2="605"/>
    <line x1="105" y1="305" x2="605" y2="305"/>
    <line x1="405" y1="105" x2="405" y2="605"/>
    <line x1="105" y1="405" x2="605" y2="405"/>
    <line x1="505" y1="105" x2="505" y2="605"/>
    <line x1="105" y1="505" x2="605" y2="505"/>
  </g>
</svg>
