<?xml version="1.0" standalone="no"?>
<!DOCTYPE svg PUBLIC "-//W3C//DTD SVG 1.1//EN" 
  "http://www.w3.org/Graphics/SVG/1.1/DTD/svg11.dtd">
<svg width="510" height="510" version="1.1" id="toplevel"
    xmlns="http://www.w3.org/2000/svg"
    xmlns:xlink="http://www.w3.org/1999/xlink">
  <polygon points="284,365 297,13 13,310 13,361" fill="bisque"/>
  <g stroke="chocolate" stroke-width="1">
    <line x1="257" y1="155" x2="297" y2="13"/>
    <circle cx="257" cy="155" r="2"/>
    <circle cx="297" cy="13" r="2"/>
  </g>
  <g stroke="chocolate" stroke-width="1">
    <line x1="284" y1="365" x2="297" y2="13"/>
    <circle cx="284" cy="365" r="2"/>
    <circle cx="297" cy="13" r="2"/>
  </g>
  <g stroke="chocolate" stroke-width="1">
    <line x1="117" y1="278" x2="127" y2="190"/>
    <circle cx="117" cy="278" r="2"/>
    <circle cx="127" cy="190" r="2"/>
  </g>
  <g stroke="chocolate" stroke-width="1">
    <line x1="55" y1="347" x2="62" y2="258"/>
    <circle cx="55" cy="347" r="2"/>
    <circle cx="62" cy="258" r="2"/>
  </g>
  <g stroke="chocolate" stroke-width="1">
    <line x1="13" y1="361" x2="13" y2="357"/>
    <circle cx="13" cy="361" r="2"/>
    <circle cx="13" cy="357" r="2"/>
  </g>
  <g stroke="chocolate" stroke-width="1">
    <line x1="13" y1="361" x2="13" y2="310"/>
    <circle cx="13" cy="361" r="2"/>
    <circle cx="13" cy="310" r="2"/>
  </g>
  <g stroke="chocolate" stroke-width="1">
    <line x1="123" y1="207" x2="121" y2="197"/>
    <circle cx="123" cy="207" r="2"/>
    <circle cx="121" cy="197" r="2"/>
  </g>
  <g stroke="chocolate" stroke-width="1">
    <line x1="13" y1="310" x2="297" y2="13"/>
    <circle cx="13" cy="310" r="2"/>
    <circle cx="297" cy="13" r="2"/>
  </g>
  <g stroke="chocolate" stroke-width="1">
    <line x1="284" y1="365" x2="13" y2="361"/>
    <circle cx="284" cy="365" r="2"/>
    <circle cx="13" cy="361" r="2"/>
  </g>
  <g stroke="chocolate" stroke-width="1">
    <line x1="284" y1="365" x2="13" y2="357"/>
    <circle cx="284" cy="365" r="2"/>
    <circle cx="13" cy="357" r="2"/>
  </g>
  <g stroke="chocolate" stroke-width="1">
    <line x1="284" y1="365" x2="55" y2="347"/>
    <circle cx="284" cy="365" r="2"/>
    <circle cx="55" cy="347" r="2"/>
  </g>
  <g stroke="chocolate" stroke-width="1">
    <line x1="13" y1="310" x2="286" y2="298"/>
    <circle cx="13" cy="310" r="2"/>
    <circle cx="286" cy="298" r="2"/>
  </g>
  <g stroke="chocolate" stroke-width="1">
    <line x1="62" y1="258" x2="289" y2="231"/>
    <circle cx="62" cy="258" r="2"/>
    <circle cx="289" cy="231" r="2"/>
  </g>
  <g stroke="chocolate" stroke-width="1">
    <line x1="286" y1="298" x2="117" y2="278"/>
    <circle cx="286" cy="298" r="2"/>
    <circle cx="117" cy="278" r="2"/>
  </g>
  <g stroke="chocolate" stroke-width="1">
    <line x1="123" y1="207" x2="291" y2="166"/>
    <circle cx="123" cy="207" r="2"/>
    <circle cx="291" cy="166" r="2"/>
  </g>
  <g stroke="chocolate" stroke-width="1">
    <line x1="127" y1="190" x2="291" y2="163"/>
    <circle cx="127" cy="190" r="2"/>
    <circle cx="291" cy="163" r="2"/>
  </g>
  <g stroke="chocolate" stroke-width="1">
    <line x1="289" y1="231" x2="121" y2="197"/>
    <circle cx="289" cy="231" r="2"/>
    <circle cx="121" cy="197" r="2"/>
  </g>
  <g stroke="chocolate" stroke-width="1">
    <line x1="291" y1="163" x2="257" y2="155"/>
    <circle cx="291" cy="163" r="2"/>
    <circle cx="257" cy="155" r="2"/>
  </g>
  <g stroke="chocolate" stroke-width="1">
    <line x1="291" y1="166" x2="257" y2="155"/>
    <circle cx="291" cy="166" r="2"/>
    <circle cx="257" cy="155" r="2"/>
  </g>
  <g stroke="black" stroke-width="1">
    <line x1="5" y1="5" x2="505" y2="5"/>
    <line x1="5" y1="5" x2="5" y2="505"/>
    <line x1="505" y1="505" x2="5" y2="505"/>
    <line x1="505" y1="505" x2="505" y2="5"/>
    <line x1="105" y1="2" x2="105" y2="8"/>
    <line x1="2" y1="105" x2="8" y2="105"/>
    <line x1="105" y1="502" x2="105" y2="508"/>
    <line x1="502" y1="105" x2="508" y2="105"/>
    <line x1="205" y1="2" x2="205" y2="8"/>
    <line x1="2" y1="205" x2="8" y2="205"/>
    <line x1="205" y1="502" x2="205" y2="508"/>
    <line x1="502" y1="205" x2="508" y2="205"/>
    <line x1="305" y1="2" x2="305" y2="8"/>
    <line x1="2" y1="305" x2="8" y2="305"/>
    <line x1="305" y1="502" x2="305" y2="508"/>
    <line x1="502" y1="305" x2="508" y2="305"/>
    <line x1="405" y1="2" x2="405" y2="8"/>
    <line x1="2" y1="405" x2="8" y2="405"/>
    <line x1="405" y1="502" x2="405" y2="508"/>
    <line x1="502" y1="405" x2="508" y2="405"/>
  </g>
  <g stroke="gray" stroke-width="1" stroke-dasharray="5,5">
    <line x1="105" y1="5" x2="105" y2="505"/>
    <line x1="5" y1="105" x2="505" y2="105"/>
    <line x1="205" y1="5" x2="205" y2="505"/>
    <line x1="5" y1="205" x2="505" y2="205"/>
    <line x1="305" y1="5" x2="305" y2="505"/>
    <line x1="5" y1="305" x2="505" y2="305"/>
    <line x1="405" y1="5" x2="405" y2="505"/>
    <line x1="5" y1="405" x2="505" y2="405"/>
  </g>
</svg>
