<?xml version="1.0" standalone="no"?>
<!DOCTYPE svg PUBLIC "-//W3C//DTD SVG 1.1//EN" 
  "http://www.w3.org/Graphics/SVG/1.1/DTD/svg11.dtd">
<svg width="630" height="630" version="1.1" id="toplevel"
    xmlns="http://www.w3.org/2000/svg"
    xmlns:xlink="http://www.w3.org/1999/xlink">
  <polygon points="415,625 555,145 75,5 188,212 142,372 302,418" fill="bisque"/>
  <g stroke="chocolate" stroke-width="1">
    <line x1="415" y1="625" x2="75" y2="5"/>
    <circle cx="415" cy="625" r="2"/>
    <circle cx="75" cy="5" r="2"/>
  </g>
  <g stroke="chocolate" stroke-width="1">
    <line x1="462" y1="465" x2="235" y2="52"/>
    <circle cx="462" cy="465" r="2"/>
    <circle cx="235" cy="52" r="2"/>
  </g>
  <g stroke="chocolate" stroke-width="1">
    <line x1="415" y1="625" x2="555" y2="145"/>
    <circle cx="415" cy="625" r="2"/>
    <circle cx="555" cy="145" r="2"/>
  </g>
  <g stroke="chocolate" stroke-width="1">
    <line x1="142" y1="372" x2="235" y2="52"/>
    <circle cx="142" cy="372" r="2"/>
    <circle cx="235" cy="52" r="2"/>
  </g>
  <g stroke="chocolate" stroke-width="1">
    <line x1="462" y1="465" x2="142" y2="372"/>
    <circle cx="462" cy="465" r="2"/>
    <circle cx="142" cy="372" r="2"/>
  </g>
  <g stroke="chocolate" stroke-width="1">
    <line x1="555" y1="145" x2="75" y2="5"/>
    <circle cx="555" cy="145" r="2"/>
    <circle cx="75" cy="5" r="2"/>
  </g>
  <g stroke="black" stroke-width="1">
    <line x1="65" y1="65" x2="565" y2="65"/>
    <line x1="65" y1="65" x2="65" y2="565"/>
    <line x1="565" y1="565" x2="65" y2="565"/>
    <line x1="565" y1="565" x2="565" y2="65"/>
    <line x1="165" y1="62" x2="165" y2="68"/>
    <line x1="62" y1="165" x2="68" y2="165"/>
    <line x1="165" y1="562" x2="165" y2="568"/>
    <line x1="562" y1="165" x2="568" y2="165"/>
    <line x1="265" y1="62" x2="265" y2="68"/>
    <line x1="62" y1="265" x2="68" y2="265"/>
    <line x1="265" y1="562" x2="265" y2="568"/>
    <line x1="562" y1="265" x2="568" y2="265"/>
    <line x1="365" y1="62" x2="365" y2="68"/>
    <line x1="62" y1="365" x2="68" y2="365"/>
    <line x1="365" y1="562" x2="365" y2="568"/>
    <line x1="562" y1="365" x2="568" y2="365"/>
    <line x1="465" y1="62" x2="465" y2="68"/>
    <line x1="62" y1="465" x2="68" y2="465"/>
    <line x1="465" y1="562" x2="465" y2="568"/>
    <line x1="562" y1="465" x2="568" y2="465"/>
  </g>
  <g stroke="gray" stroke-width="1" stroke-dasharray="5,5">
    <line x1="165" y1="65" x2="165" y2="565"/>
    <line x1="65" y1="165" x2="565" y2="165"/>
    <line x1="265" y1="65" x2="265" y2="565"/>
    <line x1="65" y1="265" x2="565" y2="265"/>
    <line x1="365" y1="65" x2="365" y2="565"/>
    <line x1="65" y1="365" x2="565" y2="365"/>
    <line x1="465" y1="65" x2="465" y2="565"/>
    <line x1="65" y1="465" x2="565" y2="465"/>
  </g>
</svg>
