<?xml version="1.0" standalone="no"?>
<!DOCTYPE svg PUBLIC "-//W3C//DTD SVG 1.1//EN" 
  "http://www.w3.org/Graphics/SVG/1.1/DTD/svg11.dtd">
<svg width="510" height="510" version="1.1" id="toplevel"
    xmlns="http://www.w3.org/2000/svg"
    xmlns:xlink="http://www.w3.org/1999/xlink">
  <polygon points="304,391 467,215 445,157 367,186 137,119 43,127 61,325 278,388"
           fill="bisque"/>
  <g stroke="chocolate" stroke-width="1">
    <line x1="304" y1="391" x2="467" y2="215"/>
    <circle cx="304" cy="391" r="2"/>
    <circle cx="467" cy="215" r="2"/>
  </g>
  <g stroke="chocolate" stroke-width="1">
    <line x1="165" y1="356" x2="227" y2="145"/>
    <circle cx="165" cy="356" r="2"/>
    <circle cx="227" cy="145" r="2"/>
  </g>
  <g stroke="chocolate" stroke-width="1">
    <line x1="157" y1="353" x2="171" y2="335"/>
    <circle cx="157" cy="353" r="2"/>
    <circle cx="171" cy="335" r="2"/>
  </g>
  <g stroke="chocolate" stroke-width="1">
    <line x1="75" y1="329" x2="137" y2="119"/>
    <circle cx="75" cy="329" r="2"/>
    <circle cx="137" cy="119" r="2"/>
  </g>
  <g stroke="chocolate" stroke-width="1">
    <line x1="54" y1="252" x2="137" y2="119"/>
    <circle cx="54" cy="252" r="2"/>
    <circle cx="137" cy="119" r="2"/>
  </g>
  <g stroke="chocolate" stroke-width="1">
    <line x1="61" y1="325" x2="86" y2="291"/>
    <circle cx="61" cy="325" r="2"/>
    <circle cx="86" cy="291" r="2"/>
  </g>
  <g stroke="chocolate" stroke-width="1">
    <line x1="61" y1="325" x2="43" y2="127"/>
    <circle cx="61" cy="325" r="2"/>
    <circle cx="43" cy="127" r="2"/>
  </g>
  <g stroke="chocolate" stroke-width="1">
    <line x1="157" y1="353" x2="137" y2="119"/>
    <circle cx="157" cy="353" r="2"/>
    <circle cx="137" cy="119" r="2"/>
  </g>
  <g stroke="chocolate" stroke-width="1">
    <line x1="166" y1="342" x2="163" y2="330"/>
    <circle cx="166" cy="342" r="2"/>
    <circle cx="163" cy="330" r="2"/>
  </g>
  <g stroke="chocolate" stroke-width="1">
    <line x1="126" y1="344" x2="163" y2="330"/>
    <circle cx="126" cy="344" r="2"/>
    <circle cx="163" cy="330" r="2"/>
  </g>
  <g stroke="chocolate" stroke-width="1">
    <line x1="141" y1="349" x2="166" y2="342"/>
    <circle cx="141" cy="349" r="2"/>
    <circle cx="166" cy="342" r="2"/>
  </g>
  <g stroke="chocolate" stroke-width="1">
    <line x1="86" y1="291" x2="445" y2="157"/>
    <circle cx="86" cy="291" r="2"/>
    <circle cx="445" cy="157" r="2"/>
  </g>
  <g stroke="chocolate" stroke-width="1">
    <line x1="467" y1="215" x2="445" y2="157"/>
    <circle cx="467" cy="215" r="2"/>
    <circle cx="445" cy="157" r="2"/>
  </g>
  <g stroke="chocolate" stroke-width="1">
    <line x1="126" y1="344" x2="86" y2="291"/>
    <circle cx="126" cy="344" r="2"/>
    <circle cx="86" cy="291" r="2"/>
  </g>
  <g stroke="chocolate" stroke-width="1">
    <line x1="304" y1="391" x2="137" y2="119"/>
    <circle cx="304" cy="391" r="2"/>
    <circle cx="137" cy="119" r="2"/>
  </g>
  <g stroke="chocolate" stroke-width="1">
    <line x1="304" y1="391" x2="278" y2="388"/>
    <circle cx="304" cy="391" r="2"/>
    <circle cx="278" cy="388" r="2"/>
  </g>
  <g stroke="chocolate" stroke-width="1">
    <line x1="141" y1="349" x2="54" y2="252"/>
    <circle cx="141" cy="349" r="2"/>
    <circle cx="54" cy="252" r="2"/>
  </g>
  <g stroke="chocolate" stroke-width="1">
    <line x1="278" y1="388" x2="61" y2="325"/>
    <circle cx="278" cy="388" r="2"/>
    <circle cx="61" cy="325" r="2"/>
  </g>
  <g stroke="chocolate" stroke-width="1">
    <line x1="278" y1="388" x2="86" y2="291"/>
    <circle cx="278" cy="388" r="2"/>
    <circle cx="86" cy="291" r="2"/>
  </g>
  <g stroke="chocolate" stroke-width="1">
    <line x1="43" y1="127" x2="137" y2="119"/>
    <circle cx="43" cy="127" r="2"/>
    <circle cx="137" cy="119" r="2"/>
  </g>
  <g stroke="chocolate" stroke-width="1">
    <line x1="467" y1="215" x2="137" y2="119"/>
    <circle cx="467" cy="215" r="2"/>
    <circle cx="137" cy="119" r="2"/>
  </g>
  <g stroke="black" stroke-width="1">
    <line x1="5" y1="5" x2="505" y2="5"/>
    <line x1="5" y1="5" x2="5" y2="505"/>
    <line x1="505" y1="505" x2="5" y2="505"/>
    <line x1="505" y1="505" x2="505" y2="5"/>
    <line x1="105" y1="2" x2="105" y2="8"/>
    <line x1="2" y1="105" x2="8" y2="105"/>
    <line x1="105" y1="502" x2="105" y2="508"/>
    <line x1="502" y1="105" x2="508" y2="105"/>
    <line x1="205" y1="2" x2="205" y2="8"/>
    <line x1="2" y1="205" x2="8" y2="205"/>
    <line x1="205" y1="502" x2="205" y2="508"/>
    <line x1="502" y1="205" x2="508" y2="205"/>
    <line x1="305" y1="2" x2="305" y2="8"/>
    <line x1="2" y1="305" x2="8" y2="305"/>
    <line x1="305" y1="502" x2="305" y2="508"/>
    <line x1="502" y1="305" x2="508" y2="305"/>
    <line x1="405" y1="2" x2="405" y2="8"/>
    <line x1="2" y1="405" x2="8" y2="405"/>
    <line x1="405" y1="502" x2="405" y2="508"/>
    <line x1="502" y1="405" x2="508" y2="405"/>
  </g>
  <g stroke="gray" stroke-width="1" stroke-dasharray="5,5">
    <line x1="105" y1="5" x2="105" y2="505"/>
    <line x1="5" y1="105" x2="505" y2="105"/>
    <line x1="205" y1="5" x2="205" y2="505"/>
    <line x1="5" y1="205" x2="505" y2="205"/>
    <line x1="305" y1="5" x2="305" y2="505"/>
    <line x1="5" y1="305" x2="505" y2="305"/>
    <line x1="405" y1="5" x2="405" y2="505"/>
    <line x1="5" y1="405" x2="505" y2="405"/>
  </g>
</svg>
