<?xml version="1.0" standalone="no"?>
<!DOCTYPE svg PUBLIC "-//W3C//DTD SVG 1.1//EN" 
  "http://www.w3.org/Graphics/SVG/1.1/DTD/svg11.dtd">
<svg width="510" height="510" version="1.1" id="toplevel"
    xmlns="http://www.w3.org/2000/svg"
    xmlns:xlink="http://www.w3.org/1999/xlink">
  <polygon points="333,457 392,188 283,60 283,60 277,53 167,153 167,203 199,203 129,353 118,423"
           fill="bisque"/>
  <g stroke="chocolate" stroke-width="1">
    <line x1="333" y1="457" x2="118" y2="423"/>
    <circle cx="333" cy="457" r="2"/>
    <circle cx="118" cy="423" r="2"/>
  </g>
  <g stroke="chocolate" stroke-width="1">
    <line x1="333" y1="457" x2="301" y2="447"/>
    <circle cx="333" cy="457" r="2"/>
    <circle cx="301" cy="447" r="2"/>
  </g>
  <g stroke="chocolate" stroke-width="1">
    <line x1="375" y1="196" x2="392" y2="188"/>
    <circle cx="375" cy="196" r="2"/>
    <circle cx="392" cy="188" r="2"/>
  </g>
  <g stroke="chocolate" stroke-width="1">
    <line x1="301" y1="447" x2="375" y2="196"/>
    <circle cx="301" cy="447" r="2"/>
    <circle cx="375" cy="196" r="2"/>
  </g>
  <g stroke="chocolate" stroke-width="1">
    <line x1="333" y1="457" x2="392" y2="188"/>
    <circle cx="333" cy="457" r="2"/>
    <circle cx="392" cy="188" r="2"/>
  </g>
  <g stroke="chocolate" stroke-width="1">
    <line x1="129" y1="353" x2="334" y2="120"/>
    <circle cx="129" cy="353" r="2"/>
    <circle cx="334" cy="120" r="2"/>
  </g>
  <g stroke="chocolate" stroke-width="1">
    <line x1="241" y1="161" x2="283" y2="60"/>
    <circle cx="241" cy="161" r="2"/>
    <circle cx="283" cy="60" r="2"/>
  </g>
  <g stroke="chocolate" stroke-width="1">
    <line x1="234" y1="183" x2="334" y2="120"/>
    <circle cx="234" cy="183" r="2"/>
    <circle cx="334" cy="120" r="2"/>
  </g>
  <g stroke="chocolate" stroke-width="1">
    <line x1="129" y1="353" x2="262" y2="67"/>
    <circle cx="129" cy="353" r="2"/>
    <circle cx="262" cy="67" r="2"/>
  </g>
  <g stroke="chocolate" stroke-width="1">
    <line x1="167" y1="203" x2="389" y2="203"/>
    <circle cx="167" cy="203" r="2"/>
    <circle cx="389" cy="203" r="2"/>
  </g>
  <g stroke="chocolate" stroke-width="1">
    <line x1="167" y1="203" x2="167" y2="153"/>
    <circle cx="167" cy="203" r="2"/>
    <circle cx="167" cy="153" r="2"/>
  </g>
  <g stroke="chocolate" stroke-width="1">
    <line x1="118" y1="423" x2="129" y2="353"/>
    <circle cx="118" cy="423" r="2"/>
    <circle cx="129" cy="353" r="2"/>
  </g>
  <g stroke="chocolate" stroke-width="1">
    <line x1="167" y1="153" x2="277" y2="53"/>
    <circle cx="167" cy="153" r="2"/>
    <circle cx="277" cy="53" r="2"/>
  </g>
  <g stroke="chocolate" stroke-width="1">
    <line x1="234" y1="183" x2="197" y2="125"/>
    <circle cx="234" cy="183" r="2"/>
    <circle cx="197" cy="125" r="2"/>
  </g>
  <g stroke="chocolate" stroke-width="1">
    <line x1="241" y1="161" x2="167" y2="153"/>
    <circle cx="241" cy="161" r="2"/>
    <circle cx="167" cy="153" r="2"/>
  </g>
  <g stroke="chocolate" stroke-width="1">
    <line x1="241" y1="161" x2="197" y2="125"/>
    <circle cx="241" cy="161" r="2"/>
    <circle cx="197" cy="125" r="2"/>
  </g>
  <g stroke="chocolate" stroke-width="1">
    <line x1="389" y1="203" x2="375" y2="196"/>
    <circle cx="389" cy="203" r="2"/>
    <circle cx="375" cy="196" r="2"/>
  </g>
  <g stroke="chocolate" stroke-width="1">
    <line x1="262" y1="67" x2="283" y2="60"/>
    <circle cx="262" cy="67" r="2"/>
    <circle cx="283" cy="60" r="2"/>
  </g>
  <g stroke="chocolate" stroke-width="1">
    <line x1="392" y1="188" x2="277" y2="53"/>
    <circle cx="392" cy="188" r="2"/>
    <circle cx="277" cy="53" r="2"/>
  </g>
  <g stroke="chocolate" stroke-width="1">
    <line x1="283" y1="60" x2="277" y2="53"/>
    <circle cx="283" cy="60" r="2"/>
    <circle cx="277" cy="53" r="2"/>
  </g>
  <g stroke="black" stroke-width="1">
    <line x1="5" y1="5" x2="505" y2="5"/>
    <line x1="5" y1="5" x2="5" y2="505"/>
    <line x1="505" y1="505" x2="5" y2="505"/>
    <line x1="505" y1="505" x2="505" y2="5"/>
    <line x1="105" y1="2" x2="105" y2="8"/>
    <line x1="2" y1="105" x2="8" y2="105"/>
    <line x1="105" y1="502" x2="105" y2="508"/>
    <line x1="502" y1="105" x2="508" y2="105"/>
    <line x1="205" y1="2" x2="205" y2="8"/>
    <line x1="2" y1="205" x2="8" y2="205"/>
    <line x1="205" y1="502" x2="205" y2="508"/>
    <line x1="502" y1="205" x2="508" y2="205"/>
    <line x1="305" y1="2" x2="305" y2="8"/>
    <line x1="2" y1="305" x2="8" y2="305"/>
    <line x1="305" y1="502" x2="305" y2="508"/>
    <line x1="502" y1="305" x2="508" y2="305"/>
    <line x1="405" y1="2" x2="405" y2="8"/>
    <line x1="2" y1="405" x2="8" y2="405"/>
    <line x1="405" y1="502" x2="405" y2="508"/>
    <line x1="502" y1="405" x2="508" y2="405"/>
  </g>
  <g stroke="gray" stroke-width="1" stroke-dasharray="5,5">
    <line x1="105" y1="5" x2="105" y2="505"/>
    <line x1="5" y1="105" x2="505" y2="105"/>
    <line x1="205" y1="5" x2="205" y2="505"/>
    <line x1="5" y1="205" x2="505" y2="205"/>
    <line x1="305" y1="5" x2="305" y2="505"/>
    <line x1="5" y1="305" x2="505" y2="305"/>
    <line x1="405" y1="5" x2="405" y2="505"/>
    <line x1="5" y1="405" x2="505" y2="405"/>
  </g>
</svg>
