<?xml version="1.0" standalone="no"?>
<!DOCTYPE svg PUBLIC "-//W3C//DTD SVG 1.1//EN" 
  "http://www.w3.org/Graphics/SVG/1.1/DTD/svg11.dtd">
<svg width="510" height="510" version="1.1" id="toplevel"
    xmlns="http://www.w3.org/2000/svg"
    xmlns:xlink="http://www.w3.org/1999/xlink">
  <polygon points="213,375 269,252 373,174 344,135 137,173 137,233 165,247"
           fill="bisque"/>
  <g stroke="chocolate" stroke-width="1">
    <line x1="331" y1="179" x2="344" y2="135"/>
    <circle cx="331" cy="179" r="2"/>
    <circle cx="344" cy="135" r="2"/>
  </g>
  <g stroke="chocolate" stroke-width="1">
    <line x1="213" y1="375" x2="320" y2="140"/>
    <circle cx="213" cy="375" r="2"/>
    <circle cx="320" cy="140" r="2"/>
  </g>
  <g stroke="chocolate" stroke-width="1">
    <line x1="273" y1="249" x2="304" y2="143"/>
    <circle cx="273" cy="249" r="2"/>
    <circle cx="304" cy="143" r="2"/>
  </g>
  <g stroke="chocolate" stroke-width="1">
    <line x1="331" y1="179" x2="337" y2="137"/>
    <circle cx="331" cy="179" r="2"/>
    <circle cx="337" cy="137" r="2"/>
  </g>
  <g stroke="chocolate" stroke-width="1">
    <line x1="298" y1="230" x2="310" y2="141"/>
    <circle cx="298" cy="230" r="2"/>
    <circle cx="310" cy="141" r="2"/>
  </g>
  <g stroke="chocolate" stroke-width="1">
    <line x1="137" y1="233" x2="137" y2="173"/>
    <circle cx="137" cy="233" r="2"/>
    <circle cx="137" cy="173" r="2"/>
  </g>
  <g stroke="chocolate" stroke-width="1">
    <line x1="231" y1="280" x2="209" y2="160"/>
    <circle cx="231" cy="280" r="2"/>
    <circle cx="209" cy="160" r="2"/>
  </g>
  <g stroke="chocolate" stroke-width="1">
    <line x1="231" y1="280" x2="373" y2="174"/>
    <circle cx="231" cy="280" r="2"/>
    <circle cx="373" cy="174" r="2"/>
  </g>
  <g stroke="chocolate" stroke-width="1">
    <line x1="213" y1="375" x2="137" y2="173"/>
    <circle cx="213" cy="375" r="2"/>
    <circle cx="137" cy="173" r="2"/>
  </g>
  <g stroke="chocolate" stroke-width="1">
    <line x1="137" y1="233" x2="244" y2="154"/>
    <circle cx="137" cy="233" r="2"/>
    <circle cx="244" cy="154" r="2"/>
  </g>
  <g stroke="chocolate" stroke-width="1">
    <line x1="169" y1="249" x2="137" y2="207"/>
    <circle cx="169" cy="249" r="2"/>
    <circle cx="137" cy="207" r="2"/>
  </g>
  <g stroke="chocolate" stroke-width="1">
    <line x1="331" y1="179" x2="310" y2="141"/>
    <circle cx="331" cy="179" r="2"/>
    <circle cx="310" cy="141" r="2"/>
  </g>
  <g stroke="chocolate" stroke-width="1">
    <line x1="362" y1="182" x2="337" y2="137"/>
    <circle cx="362" cy="182" r="2"/>
    <circle cx="337" cy="137" r="2"/>
  </g>
  <g stroke="chocolate" stroke-width="1">
    <line x1="331" y1="179" x2="304" y2="143"/>
    <circle cx="331" cy="179" r="2"/>
    <circle cx="304" cy="143" r="2"/>
  </g>
  <g stroke="chocolate" stroke-width="1">
    <line x1="216" y1="200" x2="331" y2="179"/>
    <circle cx="216" cy="200" r="2"/>
    <circle cx="331" cy="179" r="2"/>
  </g>
  <g stroke="chocolate" stroke-width="1">
    <line x1="373" y1="174" x2="344" y2="135"/>
    <circle cx="373" cy="174" r="2"/>
    <circle cx="344" cy="135" r="2"/>
  </g>
  <g stroke="chocolate" stroke-width="1">
    <line x1="169" y1="249" x2="273" y2="249"/>
    <circle cx="169" cy="249" r="2"/>
    <circle cx="273" cy="249" r="2"/>
  </g>
  <g stroke="chocolate" stroke-width="1">
    <line x1="137" y1="173" x2="344" y2="135"/>
    <circle cx="137" cy="173" r="2"/>
    <circle cx="344" cy="135" r="2"/>
  </g>
  <g stroke="chocolate" stroke-width="1">
    <line x1="231" y1="280" x2="137" y2="233"/>
    <circle cx="231" cy="280" r="2"/>
    <circle cx="137" cy="233" r="2"/>
  </g>
  <g stroke="chocolate" stroke-width="1">
    <line x1="362" y1="182" x2="320" y2="140"/>
    <circle cx="362" cy="182" r="2"/>
    <circle cx="320" cy="140" r="2"/>
  </g>
  <g stroke="chocolate" stroke-width="1">
    <line x1="298" y1="230" x2="137" y2="207"/>
    <circle cx="298" cy="230" r="2"/>
    <circle cx="137" cy="207" r="2"/>
  </g>
  <g stroke="chocolate" stroke-width="1">
    <line x1="331" y1="179" x2="244" y2="154"/>
    <circle cx="331" cy="179" r="2"/>
    <circle cx="244" cy="154" r="2"/>
  </g>
  <g stroke="black" stroke-width="1">
    <line x1="5" y1="5" x2="505" y2="5"/>
    <line x1="5" y1="5" x2="5" y2="505"/>
    <line x1="505" y1="505" x2="5" y2="505"/>
    <line x1="505" y1="505" x2="505" y2="5"/>
    <line x1="105" y1="2" x2="105" y2="8"/>
    <line x1="2" y1="105" x2="8" y2="105"/>
    <line x1="105" y1="502" x2="105" y2="508"/>
    <line x1="502" y1="105" x2="508" y2="105"/>
    <line x1="205" y1="2" x2="205" y2="8"/>
    <line x1="2" y1="205" x2="8" y2="205"/>
    <line x1="205" y1="502" x2="205" y2="508"/>
    <line x1="502" y1="205" x2="508" y2="205"/>
    <line x1="305" y1="2" x2="305" y2="8"/>
    <line x1="2" y1="305" x2="8" y2="305"/>
    <line x1="305" y1="502" x2="305" y2="508"/>
    <line x1="502" y1="305" x2="508" y2="305"/>
    <line x1="405" y1="2" x2="405" y2="8"/>
    <line x1="2" y1="405" x2="8" y2="405"/>
    <line x1="405" y1="502" x2="405" y2="508"/>
    <line x1="502" y1="405" x2="508" y2="405"/>
  </g>
  <g stroke="gray" stroke-width="1" stroke-dasharray="5,5">
    <line x1="105" y1="5" x2="105" y2="505"/>
    <line x1="5" y1="105" x2="505" y2="105"/>
    <line x1="205" y1="5" x2="205" y2="505"/>
    <line x1="5" y1="205" x2="505" y2="205"/>
    <line x1="305" y1="5" x2="305" y2="505"/>
    <line x1="5" y1="305" x2="505" y2="305"/>
    <line x1="405" y1="5" x2="405" y2="505"/>
    <line x1="5" y1="405" x2="505" y2="405"/>
  </g>
</svg>
