<?xml version="1.0" standalone="no"?>
<!DOCTYPE svg PUBLIC "-//W3C//DTD SVG 1.1//EN" 
  "http://www.w3.org/Graphics/SVG/1.1/DTD/svg11.dtd">
<svg width="510" height="510" version="1.1" id="toplevel"
    xmlns="http://www.w3.org/2000/svg"
    xmlns:xlink="http://www.w3.org/1999/xlink">
  <polygon points="288,452 414,243 183,58 96,107 143,192 105,323 186,346 183,449"
           fill="bisque"/>
  <g stroke="chocolate" stroke-width="1">
    <line x1="288" y1="452" x2="414" y2="243"/>
    <circle cx="288" cy="452" r="2"/>
    <circle cx="414" cy="243" r="2"/>
  </g>
  <g stroke="chocolate" stroke-width="1">
    <line x1="357" y1="299" x2="414" y2="243"/>
    <circle cx="357" cy="299" r="2"/>
    <circle cx="414" cy="243" r="2"/>
  </g>
  <g stroke="chocolate" stroke-width="1">
    <line x1="357" y1="299" x2="385" y2="219"/>
    <circle cx="357" cy="299" r="2"/>
    <circle cx="385" cy="219" r="2"/>
  </g>
  <g stroke="chocolate" stroke-width="1">
    <line x1="218" y1="325" x2="333" y2="178"/>
    <circle cx="218" cy="325" r="2"/>
    <circle cx="333" cy="178" r="2"/>
  </g>
  <g stroke="chocolate" stroke-width="1">
    <line x1="195" y1="349" x2="333" y2="178"/>
    <circle cx="195" cy="349" r="2"/>
    <circle cx="333" cy="178" r="2"/>
  </g>
  <g stroke="chocolate" stroke-width="1">
    <line x1="205" y1="354" x2="218" y2="325"/>
    <circle cx="205" cy="354" r="2"/>
    <circle cx="218" cy="325" r="2"/>
  </g>
  <g stroke="chocolate" stroke-width="1">
    <line x1="186" y1="345" x2="385" y2="219"/>
    <circle cx="186" cy="345" r="2"/>
    <circle cx="385" cy="219" r="2"/>
  </g>
  <g stroke="chocolate" stroke-width="1">
    <line x1="105" y1="323" x2="183" y2="58"/>
    <circle cx="105" cy="323" r="2"/>
    <circle cx="183" cy="58" r="2"/>
  </g>
  <g stroke="chocolate" stroke-width="1">
    <line x1="195" y1="349" x2="357" y2="299"/>
    <circle cx="195" cy="349" r="2"/>
    <circle cx="357" cy="299" r="2"/>
  </g>
  <g stroke="chocolate" stroke-width="1">
    <line x1="288" y1="452" x2="183" y2="449"/>
    <circle cx="288" cy="452" r="2"/>
    <circle cx="183" cy="449" r="2"/>
  </g>
  <g stroke="chocolate" stroke-width="1">
    <line x1="183" y1="449" x2="186" y2="345"/>
    <circle cx="183" cy="449" r="2"/>
    <circle cx="186" cy="345" r="2"/>
  </g>
  <g stroke="chocolate" stroke-width="1">
    <line x1="363" y1="328" x2="218" y2="325"/>
    <circle cx="363" cy="328" r="2"/>
    <circle cx="218" cy="325" r="2"/>
  </g>
  <g stroke="chocolate" stroke-width="1">
    <line x1="96" y1="107" x2="183" y2="58"/>
    <circle cx="96" cy="107" r="2"/>
    <circle cx="183" cy="58" r="2"/>
  </g>
  <g stroke="chocolate" stroke-width="1">
    <line x1="195" y1="349" x2="105" y2="323"/>
    <circle cx="195" cy="349" r="2"/>
    <circle cx="105" cy="323" r="2"/>
  </g>
  <g stroke="chocolate" stroke-width="1">
    <line x1="288" y1="452" x2="96" y2="107"/>
    <circle cx="288" cy="452" r="2"/>
    <circle cx="96" cy="107" r="2"/>
  </g>
  <g stroke="chocolate" stroke-width="1">
    <line x1="317" y1="404" x2="186" y2="345"/>
    <circle cx="317" cy="404" r="2"/>
    <circle cx="186" cy="345" r="2"/>
  </g>
  <g stroke="chocolate" stroke-width="1">
    <line x1="317" y1="404" x2="218" y2="325"/>
    <circle cx="317" cy="404" r="2"/>
    <circle cx="218" cy="325" r="2"/>
  </g>
  <g stroke="chocolate" stroke-width="1">
    <line x1="363" y1="328" x2="236" y2="101"/>
    <circle cx="363" cy="328" r="2"/>
    <circle cx="236" cy="101" r="2"/>
  </g>
  <g stroke="chocolate" stroke-width="1">
    <line x1="414" y1="243" x2="183" y2="58"/>
    <circle cx="414" cy="243" r="2"/>
    <circle cx="183" cy="58" r="2"/>
  </g>
  <g stroke="chocolate" stroke-width="1">
    <line x1="236" y1="101" x2="175" y2="83"/>
    <circle cx="236" cy="101" r="2"/>
    <circle cx="175" cy="83" r="2"/>
  </g>
  <g stroke="black" stroke-width="1">
    <line x1="5" y1="5" x2="505" y2="5"/>
    <line x1="5" y1="5" x2="5" y2="505"/>
    <line x1="505" y1="505" x2="5" y2="505"/>
    <line x1="505" y1="505" x2="505" y2="5"/>
    <line x1="105" y1="2" x2="105" y2="8"/>
    <line x1="2" y1="105" x2="8" y2="105"/>
    <line x1="105" y1="502" x2="105" y2="508"/>
    <line x1="502" y1="105" x2="508" y2="105"/>
    <line x1="205" y1="2" x2="205" y2="8"/>
    <line x1="2" y1="205" x2="8" y2="205"/>
    <line x1="205" y1="502" x2="205" y2="508"/>
    <line x1="502" y1="205" x2="508" y2="205"/>
    <line x1="305" y1="2" x2="305" y2="8"/>
    <line x1="2" y1="305" x2="8" y2="305"/>
    <line x1="305" y1="502" x2="305" y2="508"/>
    <line x1="502" y1="305" x2="508" y2="305"/>
    <line x1="405" y1="2" x2="405" y2="8"/>
    <line x1="2" y1="405" x2="8" y2="405"/>
    <line x1="405" y1="502" x2="405" y2="508"/>
    <line x1="502" y1="405" x2="508" y2="405"/>
  </g>
  <g stroke="gray" stroke-width="1" stroke-dasharray="5,5">
    <line x1="105" y1="5" x2="105" y2="505"/>
    <line x1="5" y1="105" x2="505" y2="105"/>
    <line x1="205" y1="5" x2="205" y2="505"/>
    <line x1="5" y1="205" x2="505" y2="205"/>
    <line x1="305" y1="5" x2="305" y2="505"/>
    <line x1="5" y1="305" x2="505" y2="305"/>
    <line x1="405" y1="5" x2="405" y2="505"/>
    <line x1="5" y1="405" x2="505" y2="405"/>
  </g>
</svg>
