<?xml version="1.0" standalone="no"?>
<!DOCTYPE svg PUBLIC "-//W3C//DTD SVG 1.1//EN" 
  "http://www.w3.org/Graphics/SVG/1.1/DTD/svg11.dtd">
<svg width="510" height="510" version="1.1" id="toplevel"
    xmlns="http://www.w3.org/2000/svg"
    xmlns:xlink="http://www.w3.org/1999/xlink">
  <polygon points="308,443 319,443 413,396 413,240 288,240 286,221 97,67 104,129 212,300 187,333"
           fill="bisque"/>
  <g stroke="chocolate" stroke-width="1">
    <line x1="104" y1="129" x2="97" y2="67"/>
    <circle cx="104" cy="129" r="2"/>
    <circle cx="97" cy="67" r="2"/>
  </g>
  <g stroke="chocolate" stroke-width="1">
    <line x1="288" y1="425" x2="288" y2="240"/>
    <circle cx="288" cy="425" r="2"/>
    <circle cx="288" cy="240" r="2"/>
  </g>
  <g stroke="chocolate" stroke-width="1">
    <line x1="413" y1="396" x2="413" y2="240"/>
    <circle cx="413" cy="396" r="2"/>
    <circle cx="413" cy="240" r="2"/>
  </g>
  <g stroke="chocolate" stroke-width="1">
    <line x1="222" y1="365" x2="216" y2="306"/>
    <circle cx="222" cy="365" r="2"/>
    <circle cx="216" cy="306" r="2"/>
  </g>
  <g stroke="chocolate" stroke-width="1">
    <line x1="308" y1="443" x2="286" y2="221"/>
    <circle cx="308" cy="443" r="2"/>
    <circle cx="286" cy="221" r="2"/>
  </g>
  <g stroke="chocolate" stroke-width="1">
    <line x1="291" y1="424" x2="304" y2="402"/>
    <circle cx="291" cy="424" r="2"/>
    <circle cx="304" cy="402" r="2"/>
  </g>
  <g stroke="chocolate" stroke-width="1">
    <line x1="216" y1="306" x2="264" y2="226"/>
    <circle cx="216" cy="306" r="2"/>
    <circle cx="264" cy="226" r="2"/>
  </g>
  <g stroke="chocolate" stroke-width="1">
    <line x1="295" y1="431" x2="104" y2="129"/>
    <circle cx="295" cy="431" r="2"/>
    <circle cx="104" cy="129" r="2"/>
  </g>
  <g stroke="chocolate" stroke-width="1">
    <line x1="187" y1="333" x2="238" y2="265"/>
    <circle cx="187" cy="333" r="2"/>
    <circle cx="238" cy="265" r="2"/>
  </g>
  <g stroke="chocolate" stroke-width="1">
    <line x1="191" y1="337" x2="286" y2="221"/>
    <circle cx="191" cy="337" r="2"/>
    <circle cx="286" cy="221" r="2"/>
  </g>
  <g stroke="chocolate" stroke-width="1">
    <line x1="191" y1="337" x2="288" y2="240"/>
    <circle cx="191" cy="337" r="2"/>
    <circle cx="288" cy="240" r="2"/>
  </g>
  <g stroke="chocolate" stroke-width="1">
    <line x1="304" y1="402" x2="216" y2="306"/>
    <circle cx="304" cy="402" r="2"/>
    <circle cx="216" cy="306" r="2"/>
  </g>
  <g stroke="chocolate" stroke-width="1">
    <line x1="187" y1="333" x2="288" y2="240"/>
    <circle cx="187" cy="333" r="2"/>
    <circle cx="288" cy="240" r="2"/>
  </g>
  <g stroke="chocolate" stroke-width="1">
    <line x1="308" y1="443" x2="187" y2="333"/>
    <circle cx="308" cy="443" r="2"/>
    <circle cx="187" cy="333" r="2"/>
  </g>
  <g stroke="chocolate" stroke-width="1">
    <line x1="319" y1="443" x2="413" y2="396"/>
    <circle cx="319" cy="443" r="2"/>
    <circle cx="413" cy="396" r="2"/>
  </g>
  <g stroke="chocolate" stroke-width="1">
    <line x1="319" y1="443" x2="295" y2="431"/>
    <circle cx="319" cy="443" r="2"/>
    <circle cx="295" cy="431" r="2"/>
  </g>
  <g stroke="chocolate" stroke-width="1">
    <line x1="413" y1="396" x2="238" y2="265"/>
    <circle cx="413" cy="396" r="2"/>
    <circle cx="238" cy="265" r="2"/>
  </g>
  <g stroke="chocolate" stroke-width="1">
    <line x1="286" y1="221" x2="97" y2="67"/>
    <circle cx="286" cy="221" r="2"/>
    <circle cx="97" cy="67" r="2"/>
  </g>
  <g stroke="chocolate" stroke-width="1">
    <line x1="308" y1="443" x2="319" y2="443"/>
    <circle cx="308" cy="443" r="2"/>
    <circle cx="319" cy="443" r="2"/>
  </g>
  <g stroke="chocolate" stroke-width="1">
    <line x1="288" y1="425" x2="306" y2="423"/>
    <circle cx="288" cy="425" r="2"/>
    <circle cx="306" cy="423" r="2"/>
  </g>
  <g stroke="chocolate" stroke-width="1">
    <line x1="288" y1="240" x2="104" y2="129"/>
    <circle cx="288" cy="240" r="2"/>
    <circle cx="104" cy="129" r="2"/>
  </g>
  <g stroke="chocolate" stroke-width="1">
    <line x1="222" y1="365" x2="413" y2="365"/>
    <circle cx="222" cy="365" r="2"/>
    <circle cx="413" cy="365" r="2"/>
  </g>
  <g stroke="chocolate" stroke-width="1">
    <line x1="216" y1="306" x2="294" y2="298"/>
    <circle cx="216" cy="306" r="2"/>
    <circle cx="294" cy="298" r="2"/>
  </g>
  <g stroke="chocolate" stroke-width="1">
    <line x1="288" y1="240" x2="413" y2="240"/>
    <circle cx="288" cy="240" r="2"/>
    <circle cx="413" cy="240" r="2"/>
  </g>
  <g stroke="black" stroke-width="1">
    <line x1="5" y1="5" x2="505" y2="5"/>
    <line x1="5" y1="5" x2="5" y2="505"/>
    <line x1="505" y1="505" x2="5" y2="505"/>
    <line x1="505" y1="505" x2="505" y2="5"/>
    <line x1="105" y1="2" x2="105" y2="8"/>
    <line x1="2" y1="105" x2="8" y2="105"/>
    <line x1="105" y1="502" x2="105" y2="508"/>
    <line x1="502" y1="105" x2="508" y2="105"/>
    <line x1="205" y1="2" x2="205" y2="8"/>
    <line x1="2" y1="205" x2="8" y2="205"/>
    <line x1="205" y1="502" x2="205" y2="508"/>
    <line x1="502" y1="205" x2="508" y2="205"/>
    <line x1="305" y1="2" x2="305" y2="8"/>
    <line x1="2" y1="305" x2="8" y2="305"/>
    <line x1="305" y1="502" x2="305" y2="508"/>
    <line x1="502" y1="305" x2="508" y2="305"/>
    <line x1="405" y1="2" x2="405" y2="8"/>
    <line x1="2" y1="405" x2="8" y2="405"/>
    <line x1="405" y1="502" x2="405" y2="508"/>
    <line x1="502" y1="405" x2="508" y2="405"/>
  </g>
  <g stroke="gray" stroke-width="1" stroke-dasharray="5,5">
    <line x1="105" y1="5" x2="105" y2="505"/>
    <line x1="5" y1="105" x2="505" y2="105"/>
    <line x1="205" y1="5" x2="205" y2="505"/>
    <line x1="5" y1="205" x2="505" y2="205"/>
    <line x1="305" y1="5" x2="305" y2="505"/>
    <line x1="5" y1="305" x2="505" y2="305"/>
    <line x1="405" y1="5" x2="405" y2="505"/>
    <line x1="5" y1="405" x2="505" y2="405"/>
  </g>
</svg>
