<?xml version="1.0" standalone="no"?>
<!DOCTYPE svg PUBLIC "-//W3C//DTD SVG 1.1//EN" 
  "http://www.w3.org/Graphics/SVG/1.1/DTD/svg11.dtd">
<svg width="510" height="510" version="1.1" id="toplevel"
    xmlns="http://www.w3.org/2000/svg"
    xmlns:xlink="http://www.w3.org/1999/xlink">
  <polygon points="328,440 427,240 380,81 318,70 303,152 159,287 55,287 55,426"
           fill="bisque"/>
  <g stroke="chocolate" stroke-width="1">
    <line x1="253" y1="437" x2="318" y2="70"/>
    <circle cx="253" cy="437" r="2"/>
    <circle cx="318" cy="70" r="2"/>
  </g>
  <g stroke="chocolate" stroke-width="1">
    <line x1="328" y1="440" x2="427" y2="240"/>
    <circle cx="328" cy="440" r="2"/>
    <circle cx="427" cy="240" r="2"/>
  </g>
  <g stroke="chocolate" stroke-width="1">
    <line x1="55" y1="426" x2="55" y2="287"/>
    <circle cx="55" cy="426" r="2"/>
    <circle cx="55" cy="287" r="2"/>
  </g>
  <g stroke="chocolate" stroke-width="1">
    <line x1="55" y1="426" x2="60" y2="379"/>
    <circle cx="55" cy="426" r="2"/>
    <circle cx="60" cy="379" r="2"/>
  </g>
  <g stroke="chocolate" stroke-width="1">
    <line x1="253" y1="437" x2="243" y2="310"/>
    <circle cx="253" cy="437" r="2"/>
    <circle cx="243" cy="310" r="2"/>
  </g>
  <g stroke="chocolate" stroke-width="1">
    <line x1="427" y1="240" x2="380" y2="81"/>
    <circle cx="427" cy="240" r="2"/>
    <circle cx="380" cy="81" r="2"/>
  </g>
  <g stroke="chocolate" stroke-width="1">
    <line x1="328" y1="440" x2="270" y2="287"/>
    <circle cx="328" cy="440" r="2"/>
    <circle cx="270" cy="287" r="2"/>
  </g>
  <g stroke="chocolate" stroke-width="1">
    <line x1="107" y1="429" x2="270" y2="287"/>
    <circle cx="107" cy="429" r="2"/>
    <circle cx="270" cy="287" r="2"/>
  </g>
  <g stroke="chocolate" stroke-width="1">
    <line x1="60" y1="379" x2="380" y2="81"/>
    <circle cx="60" cy="379" r="2"/>
    <circle cx="380" cy="81" r="2"/>
  </g>
  <g stroke="chocolate" stroke-width="1">
    <line x1="107" y1="429" x2="60" y2="379"/>
    <circle cx="107" cy="429" r="2"/>
    <circle cx="60" cy="379" r="2"/>
  </g>
  <g stroke="chocolate" stroke-width="1">
    <line x1="114" y1="430" x2="278" y2="307"/>
    <circle cx="114" cy="430" r="2"/>
    <circle cx="278" cy="307" r="2"/>
  </g>
  <g stroke="chocolate" stroke-width="1">
    <line x1="114" y1="430" x2="60" y2="379"/>
    <circle cx="114" cy="430" r="2"/>
    <circle cx="60" cy="379" r="2"/>
  </g>
  <g stroke="chocolate" stroke-width="1">
    <line x1="60" y1="379" x2="427" y2="240"/>
    <circle cx="60" cy="379" r="2"/>
    <circle cx="427" cy="240" r="2"/>
  </g>
  <g stroke="chocolate" stroke-width="1">
    <line x1="328" y1="440" x2="55" y2="426"/>
    <circle cx="328" cy="440" r="2"/>
    <circle cx="55" cy="426" r="2"/>
  </g>
  <g stroke="chocolate" stroke-width="1">
    <line x1="243" y1="310" x2="278" y2="307"/>
    <circle cx="243" cy="310" r="2"/>
    <circle cx="278" cy="307" r="2"/>
  </g>
  <g stroke="chocolate" stroke-width="1">
    <line x1="55" y1="287" x2="270" y2="287"/>
    <circle cx="55" cy="287" r="2"/>
    <circle cx="270" cy="287" r="2"/>
  </g>
  <g stroke="chocolate" stroke-width="1">
    <line x1="380" y1="81" x2="318" y2="70"/>
    <circle cx="380" cy="81" r="2"/>
    <circle cx="318" cy="70" r="2"/>
  </g>
  <g stroke="black" stroke-width="1">
    <line x1="5" y1="5" x2="505" y2="5"/>
    <line x1="5" y1="5" x2="5" y2="505"/>
    <line x1="505" y1="505" x2="5" y2="505"/>
    <line x1="505" y1="505" x2="505" y2="5"/>
    <line x1="105" y1="2" x2="105" y2="8"/>
    <line x1="2" y1="105" x2="8" y2="105"/>
    <line x1="105" y1="502" x2="105" y2="508"/>
    <line x1="502" y1="105" x2="508" y2="105"/>
    <line x1="205" y1="2" x2="205" y2="8"/>
    <line x1="2" y1="205" x2="8" y2="205"/>
    <line x1="205" y1="502" x2="205" y2="508"/>
    <line x1="502" y1="205" x2="508" y2="205"/>
    <line x1="305" y1="2" x2="305" y2="8"/>
    <line x1="2" y1="305" x2="8" y2="305"/>
    <line x1="305" y1="502" x2="305" y2="508"/>
    <line x1="502" y1="305" x2="508" y2="305"/>
    <line x1="405" y1="2" x2="405" y2="8"/>
    <line x1="2" y1="405" x2="8" y2="405"/>
    <line x1="405" y1="502" x2="405" y2="508"/>
    <line x1="502" y1="405" x2="508" y2="405"/>
  </g>
  <g stroke="gray" stroke-width="1" stroke-dasharray="5,5">
    <line x1="105" y1="5" x2="105" y2="505"/>
    <line x1="5" y1="105" x2="505" y2="105"/>
    <line x1="205" y1="5" x2="205" y2="505"/>
    <line x1="5" y1="205" x2="505" y2="205"/>
    <line x1="305" y1="5" x2="305" y2="505"/>
    <line x1="5" y1="305" x2="505" y2="305"/>
    <line x1="405" y1="5" x2="405" y2="505"/>
    <line x1="5" y1="405" x2="505" y2="405"/>
  </g>
</svg>
