<?xml version="1.0" standalone="no"?>
<!DOCTYPE svg PUBLIC "-//W3C//DTD SVG 1.1//EN" 
  "http://www.w3.org/Graphics/SVG/1.1/DTD/svg11.dtd">
<svg width="510" height="510" version="1.1" id="toplevel"
    xmlns="http://www.w3.org/2000/svg"
    xmlns:xlink="http://www.w3.org/1999/xlink">
  <polygon points="459,478 271,13 56,373" fill="bisque"/>
  <g stroke="chocolate" stroke-width="1">
    <line x1="415" y1="391" x2="422" y2="387"/>
    <circle cx="415" cy="391" r="2"/>
    <circle cx="422" cy="387" r="2"/>
  </g>
  <g stroke="chocolate" stroke-width="1">
    <line x1="228" y1="296" x2="293" y2="66"/>
    <circle cx="228" cy="296" r="2"/>
    <circle cx="293" cy="66" r="2"/>
  </g>
  <g stroke="chocolate" stroke-width="1">
    <line x1="265" y1="50" x2="271" y2="13"/>
    <circle cx="265" cy="50" r="2"/>
    <circle cx="271" cy="13" r="2"/>
  </g>
  <g stroke="chocolate" stroke-width="1">
    <line x1="279" y1="431" x2="422" y2="387"/>
    <circle cx="279" cy="431" r="2"/>
    <circle cx="422" cy="387" r="2"/>
  </g>
  <g stroke="chocolate" stroke-width="1">
    <line x1="56" y1="373" x2="271" y2="13"/>
    <circle cx="56" cy="373" r="2"/>
    <circle cx="271" cy="13" r="2"/>
  </g>
  <g stroke="chocolate" stroke-width="1">
    <line x1="56" y1="373" x2="112" y2="285"/>
    <circle cx="56" cy="373" r="2"/>
    <circle cx="112" cy="285" r="2"/>
  </g>
  <g stroke="chocolate" stroke-width="1">
    <line x1="56" y1="373" x2="352" y2="214"/>
    <circle cx="56" cy="373" r="2"/>
    <circle cx="352" cy="214" r="2"/>
  </g>
  <g stroke="chocolate" stroke-width="1">
    <line x1="296" y1="230" x2="246" y2="54"/>
    <circle cx="296" cy="230" r="2"/>
    <circle cx="246" cy="54" r="2"/>
  </g>
  <g stroke="chocolate" stroke-width="1">
    <line x1="459" y1="478" x2="56" y2="373"/>
    <circle cx="459" cy="478" r="2"/>
    <circle cx="56" cy="373" r="2"/>
  </g>
  <g stroke="chocolate" stroke-width="1">
    <line x1="459" y1="478" x2="271" y2="13"/>
    <circle cx="459" cy="478" r="2"/>
    <circle cx="271" cy="13" r="2"/>
  </g>
  <g stroke="chocolate" stroke-width="1">
    <line x1="279" y1="431" x2="120" y2="266"/>
    <circle cx="279" cy="431" r="2"/>
    <circle cx="120" cy="266" r="2"/>
  </g>
  <g stroke="chocolate" stroke-width="1">
    <line x1="296" y1="230" x2="352" y2="214"/>
    <circle cx="296" cy="230" r="2"/>
    <circle cx="352" cy="214" r="2"/>
  </g>
  <g stroke="chocolate" stroke-width="1">
    <line x1="459" y1="478" x2="415" y2="391"/>
    <circle cx="459" cy="478" r="2"/>
    <circle cx="415" cy="391" r="2"/>
  </g>
  <g stroke="chocolate" stroke-width="1">
    <line x1="112" y1="285" x2="109" y2="283"/>
    <circle cx="112" cy="285" r="2"/>
    <circle cx="109" cy="283" r="2"/>
  </g>
  <g stroke="chocolate" stroke-width="1">
    <line x1="459" y1="478" x2="109" y2="283"/>
    <circle cx="459" cy="478" r="2"/>
    <circle cx="109" cy="283" r="2"/>
  </g>
  <g stroke="chocolate" stroke-width="1">
    <line x1="228" y1="296" x2="120" y2="266"/>
    <circle cx="228" cy="296" r="2"/>
    <circle cx="120" cy="266" r="2"/>
  </g>
  <g stroke="chocolate" stroke-width="1">
    <line x1="246" y1="54" x2="265" y2="50"/>
    <circle cx="246" cy="54" r="2"/>
    <circle cx="265" cy="50" r="2"/>
  </g>
  <g stroke="chocolate" stroke-width="1">
    <line x1="265" y1="50" x2="253" y2="43"/>
    <circle cx="265" cy="50" r="2"/>
    <circle cx="253" cy="43" r="2"/>
  </g>
  <g stroke="chocolate" stroke-width="1">
    <line x1="293" y1="66" x2="253" y2="43"/>
    <circle cx="293" cy="66" r="2"/>
    <circle cx="253" cy="43" r="2"/>
  </g>
  <g stroke="black" stroke-width="1">
    <line x1="5" y1="5" x2="505" y2="5"/>
    <line x1="5" y1="5" x2="5" y2="505"/>
    <line x1="505" y1="505" x2="5" y2="505"/>
    <line x1="505" y1="505" x2="505" y2="5"/>
    <line x1="105" y1="2" x2="105" y2="8"/>
    <line x1="2" y1="105" x2="8" y2="105"/>
    <line x1="105" y1="502" x2="105" y2="508"/>
    <line x1="502" y1="105" x2="508" y2="105"/>
    <line x1="205" y1="2" x2="205" y2="8"/>
    <line x1="2" y1="205" x2="8" y2="205"/>
    <line x1="205" y1="502" x2="205" y2="508"/>
    <line x1="502" y1="205" x2="508" y2="205"/>
    <line x1="305" y1="2" x2="305" y2="8"/>
    <line x1="2" y1="305" x2="8" y2="305"/>
    <line x1="305" y1="502" x2="305" y2="508"/>
    <line x1="502" y1="305" x2="508" y2="305"/>
    <line x1="405" y1="2" x2="405" y2="8"/>
    <line x1="2" y1="405" x2="8" y2="405"/>
    <line x1="405" y1="502" x2="405" y2="508"/>
    <line x1="502" y1="405" x2="508" y2="405"/>
  </g>
  <g stroke="gray" stroke-width="1" stroke-dasharray="5,5">
    <line x1="105" y1="5" x2="105" y2="505"/>
    <line x1="5" y1="105" x2="505" y2="105"/>
    <line x1="205" y1="5" x2="205" y2="505"/>
    <line x1="5" y1="205" x2="505" y2="205"/>
    <line x1="305" y1="5" x2="305" y2="505"/>
    <line x1="5" y1="305" x2="505" y2="305"/>
    <line x1="405" y1="5" x2="405" y2="505"/>
    <line x1="5" y1="405" x2="505" y2="405"/>
  </g>
</svg>
