<?xml version="1.0" standalone="no"?>
<!DOCTYPE svg PUBLIC "-//W3C//DTD SVG 1.1//EN" 
  "http://www.w3.org/Graphics/SVG/1.1/DTD/svg11.dtd">
<svg width="510" height="510" version="1.1" id="toplevel"
    xmlns="http://www.w3.org/2000/svg"
    xmlns:xlink="http://www.w3.org/1999/xlink">
  <polygon points="15,505 57,505 99,463 286,463 224,401 245,401 245,276 161,276 161,234 99,234 5,328 15,338"
           fill="bisque"/>
  <g stroke="chocolate" stroke-width="1">
    <line x1="161" y1="463" x2="224" y2="401"/>
    <circle cx="161" cy="463" r="2"/>
    <circle cx="224" cy="401" r="2"/>
  </g>
  <g stroke="chocolate" stroke-width="1">
    <line x1="140" y1="463" x2="213" y2="390"/>
    <circle cx="140" cy="463" r="2"/>
    <circle cx="213" cy="390" r="2"/>
  </g>
  <g stroke="chocolate" stroke-width="1">
    <line x1="57" y1="505" x2="213" y2="349"/>
    <circle cx="57" cy="505" r="2"/>
    <circle cx="213" cy="349" r="2"/>
  </g>
  <g stroke="chocolate" stroke-width="1">
    <line x1="57" y1="463" x2="192" y2="328"/>
    <circle cx="57" cy="463" r="2"/>
    <circle cx="192" cy="328" r="2"/>
  </g>
  <g stroke="chocolate" stroke-width="1">
    <line x1="15" y1="505" x2="57" y2="505"/>
    <circle cx="15" cy="505" r="2"/>
    <circle cx="57" cy="505" r="2"/>
  </g>
  <g stroke="chocolate" stroke-width="1">
    <line x1="15" y1="505" x2="15" y2="318"/>
    <circle cx="15" cy="505" r="2"/>
    <circle cx="15" cy="318" r="2"/>
  </g>
  <g stroke="chocolate" stroke-width="1">
    <line x1="36" y1="359" x2="36" y2="338"/>
    <circle cx="36" cy="359" r="2"/>
    <circle cx="36" cy="338" r="2"/>
  </g>
  <g stroke="chocolate" stroke-width="1">
    <line x1="57" y1="505" x2="57" y2="463"/>
    <circle cx="57" cy="505" r="2"/>
    <circle cx="57" cy="463" r="2"/>
  </g>
  <g stroke="chocolate" stroke-width="1">
    <line x1="99" y1="338" x2="99" y2="234"/>
    <circle cx="99" cy="338" r="2"/>
    <circle cx="99" cy="234" r="2"/>
  </g>
  <g stroke="chocolate" stroke-width="1">
    <line x1="140" y1="463" x2="140" y2="380"/>
    <circle cx="140" cy="463" r="2"/>
    <circle cx="140" cy="380" r="2"/>
  </g>
  <g stroke="chocolate" stroke-width="1">
    <line x1="140" y1="359" x2="140" y2="234"/>
    <circle cx="140" cy="359" r="2"/>
    <circle cx="140" cy="234" r="2"/>
  </g>
  <g stroke="chocolate" stroke-width="1">
    <line x1="161" y1="463" x2="161" y2="442"/>
    <circle cx="161" cy="463" r="2"/>
    <circle cx="161" cy="442" r="2"/>
  </g>
  <g stroke="chocolate" stroke-width="1">
    <line x1="161" y1="401" x2="161" y2="234"/>
    <circle cx="161" cy="401" r="2"/>
    <circle cx="161" cy="234" r="2"/>
  </g>
  <g stroke="chocolate" stroke-width="1">
    <line x1="182" y1="463" x2="182" y2="422"/>
    <circle cx="182" cy="463" r="2"/>
    <circle cx="182" cy="422" r="2"/>
  </g>
  <g stroke="chocolate" stroke-width="1">
    <line x1="203" y1="422" x2="203" y2="401"/>
    <circle cx="203" cy="422" r="2"/>
    <circle cx="203" cy="401" r="2"/>
  </g>
  <g stroke="chocolate" stroke-width="1">
    <line x1="224" y1="463" x2="224" y2="359"/>
    <circle cx="224" cy="463" r="2"/>
    <circle cx="224" cy="359" r="2"/>
  </g>
  <g stroke="chocolate" stroke-width="1">
    <line x1="245" y1="401" x2="245" y2="276"/>
    <circle cx="245" cy="401" r="2"/>
    <circle cx="245" cy="276" r="2"/>
  </g>
  <g stroke="chocolate" stroke-width="1">
    <line x1="265" y1="463" x2="265" y2="442"/>
    <circle cx="265" cy="463" r="2"/>
    <circle cx="265" cy="442" r="2"/>
  </g>
  <g stroke="chocolate" stroke-width="1">
    <line x1="99" y1="338" x2="161" y2="276"/>
    <circle cx="99" cy="338" r="2"/>
    <circle cx="161" cy="276" r="2"/>
  </g>
  <g stroke="chocolate" stroke-width="1">
    <line x1="57" y1="463" x2="286" y2="463"/>
    <circle cx="57" cy="463" r="2"/>
    <circle cx="286" cy="463" r="2"/>
  </g>
  <g stroke="chocolate" stroke-width="1">
    <line x1="161" y1="442" x2="265" y2="442"/>
    <circle cx="161" cy="442" r="2"/>
    <circle cx="265" cy="442" r="2"/>
  </g>
  <g stroke="chocolate" stroke-width="1">
    <line x1="26" y1="349" x2="140" y2="234"/>
    <circle cx="26" cy="349" r="2"/>
    <circle cx="140" cy="234" r="2"/>
  </g>
  <g stroke="chocolate" stroke-width="1">
    <line x1="182" y1="422" x2="203" y2="422"/>
    <circle cx="182" cy="422" r="2"/>
    <circle cx="203" cy="422" r="2"/>
  </g>
  <g stroke="chocolate" stroke-width="1">
    <line x1="5" y1="328" x2="99" y2="234"/>
    <circle cx="5" cy="328" r="2"/>
    <circle cx="99" cy="234" r="2"/>
  </g>
  <g stroke="chocolate" stroke-width="1">
    <line x1="140" y1="463" x2="5" y2="328"/>
    <circle cx="140" cy="463" r="2"/>
    <circle cx="5" cy="328" r="2"/>
  </g>
  <g stroke="chocolate" stroke-width="1">
    <line x1="161" y1="463" x2="15" y2="318"/>
    <circle cx="161" cy="463" r="2"/>
    <circle cx="15" cy="318" r="2"/>
  </g>
  <g stroke="chocolate" stroke-width="1">
    <line x1="161" y1="401" x2="245" y2="401"/>
    <circle cx="161" cy="401" r="2"/>
    <circle cx="245" cy="401" r="2"/>
  </g>
  <g stroke="chocolate" stroke-width="1">
    <line x1="140" y1="380" x2="245" y2="380"/>
    <circle cx="140" cy="380" r="2"/>
    <circle cx="245" cy="380" r="2"/>
  </g>
  <g stroke="chocolate" stroke-width="1">
    <line x1="161" y1="401" x2="99" y2="338"/>
    <circle cx="161" cy="401" r="2"/>
    <circle cx="99" cy="338" r="2"/>
  </g>
  <g stroke="chocolate" stroke-width="1">
    <line x1="36" y1="359" x2="224" y2="359"/>
    <circle cx="36" cy="359" r="2"/>
    <circle cx="224" cy="359" r="2"/>
  </g>
  <g stroke="chocolate" stroke-width="1">
    <line x1="286" y1="463" x2="78" y2="255"/>
    <circle cx="286" cy="463" r="2"/>
    <circle cx="78" cy="255" r="2"/>
  </g>
  <g stroke="chocolate" stroke-width="1">
    <line x1="245" y1="380" x2="99" y2="234"/>
    <circle cx="245" cy="380" r="2"/>
    <circle cx="99" cy="234" r="2"/>
  </g>
  <g stroke="chocolate" stroke-width="1">
    <line x1="15" y1="318" x2="140" y2="318"/>
    <circle cx="15" cy="318" r="2"/>
    <circle cx="140" cy="318" r="2"/>
  </g>
  <g stroke="chocolate" stroke-width="1">
    <line x1="161" y1="255" x2="140" y2="234"/>
    <circle cx="161" cy="255" r="2"/>
    <circle cx="140" cy="234" r="2"/>
  </g>
  <g stroke="chocolate" stroke-width="1">
    <line x1="99" y1="276" x2="245" y2="276"/>
    <circle cx="99" cy="276" r="2"/>
    <circle cx="245" cy="276" r="2"/>
  </g>
  <g stroke="chocolate" stroke-width="1">
    <line x1="140" y1="255" x2="161" y2="255"/>
    <circle cx="140" cy="255" r="2"/>
    <circle cx="161" cy="255" r="2"/>
  </g>
  <g stroke="chocolate" stroke-width="1">
    <line x1="99" y1="234" x2="161" y2="234"/>
    <circle cx="99" cy="234" r="2"/>
    <circle cx="161" cy="234" r="2"/>
  </g>
  <g stroke="black" stroke-width="1">
    <line x1="5" y1="5" x2="505" y2="5"/>
    <line x1="5" y1="5" x2="5" y2="505"/>
    <line x1="505" y1="505" x2="5" y2="505"/>
    <line x1="505" y1="505" x2="505" y2="5"/>
    <line x1="105" y1="2" x2="105" y2="8"/>
    <line x1="2" y1="105" x2="8" y2="105"/>
    <line x1="105" y1="502" x2="105" y2="508"/>
    <line x1="502" y1="105" x2="508" y2="105"/>
    <line x1="205" y1="2" x2="205" y2="8"/>
    <line x1="2" y1="205" x2="8" y2="205"/>
    <line x1="205" y1="502" x2="205" y2="508"/>
    <line x1="502" y1="205" x2="508" y2="205"/>
    <line x1="305" y1="2" x2="305" y2="8"/>
    <line x1="2" y1="305" x2="8" y2="305"/>
    <line x1="305" y1="502" x2="305" y2="508"/>
    <line x1="502" y1="305" x2="508" y2="305"/>
    <line x1="405" y1="2" x2="405" y2="8"/>
    <line x1="2" y1="405" x2="8" y2="405"/>
    <line x1="405" y1="502" x2="405" y2="508"/>
    <line x1="502" y1="405" x2="508" y2="405"/>
  </g>
  <g stroke="gray" stroke-width="1" stroke-dasharray="5,5">
    <line x1="105" y1="5" x2="105" y2="505"/>
    <line x1="5" y1="105" x2="505" y2="105"/>
    <line x1="205" y1="5" x2="205" y2="505"/>
    <line x1="5" y1="205" x2="505" y2="205"/>
    <line x1="305" y1="5" x2="305" y2="505"/>
    <line x1="5" y1="305" x2="505" y2="305"/>
    <line x1="405" y1="5" x2="405" y2="505"/>
    <line x1="5" y1="405" x2="505" y2="405"/>
  </g>
</svg>
