<?xml version="1.0" standalone="no"?>
<!DOCTYPE svg PUBLIC "-//W3C//DTD SVG 1.1//EN" 
  "http://www.w3.org/Graphics/SVG/1.1/DTD/svg11.dtd">
<svg width="560" height="560" version="1.1" id="toplevel"
    xmlns="http://www.w3.org/2000/svg"
    xmlns:xlink="http://www.w3.org/1999/xlink">
  <polygon points="405,555 455,205 305,5 105,155 280,180 255,355" fill="bisque"/>
  <g stroke="chocolate" stroke-width="1">
    <line x1="405" y1="555" x2="255" y2="355"/>
    <circle cx="405" cy="555" r="2"/>
    <circle cx="255" cy="355" r="2"/>
  </g>
  <g stroke="chocolate" stroke-width="1">
    <line x1="405" y1="555" x2="455" y2="205"/>
    <circle cx="405" cy="555" r="2"/>
    <circle cx="455" cy="205" r="2"/>
  </g>
  <g stroke="chocolate" stroke-width="1">
    <line x1="455" y1="205" x2="305" y2="5"/>
    <circle cx="455" cy="205" r="2"/>
    <circle cx="305" cy="5" r="2"/>
  </g>
  <g stroke="chocolate" stroke-width="1">
    <line x1="255" y1="355" x2="305" y2="5"/>
    <circle cx="255" cy="355" r="2"/>
    <circle cx="305" cy="5" r="2"/>
  </g>
  <g stroke="chocolate" stroke-width="1">
    <line x1="255" y1="355" x2="455" y2="205"/>
    <circle cx="255" cy="355" r="2"/>
    <circle cx="455" cy="205" r="2"/>
  </g>
  <g stroke="chocolate" stroke-width="1">
    <line x1="455" y1="205" x2="105" y2="155"/>
    <circle cx="455" cy="205" r="2"/>
    <circle cx="105" cy="155" r="2"/>
  </g>
  <g stroke="chocolate" stroke-width="1">
    <line x1="105" y1="155" x2="305" y2="5"/>
    <circle cx="105" cy="155" r="2"/>
    <circle cx="305" cy="5" r="2"/>
  </g>
  <g stroke="black" stroke-width="1">
    <line x1="30" y1="30" x2="530" y2="30"/>
    <line x1="30" y1="30" x2="30" y2="530"/>
    <line x1="530" y1="530" x2="30" y2="530"/>
    <line x1="530" y1="530" x2="530" y2="30"/>
    <line x1="130" y1="27" x2="130" y2="33"/>
    <line x1="27" y1="130" x2="33" y2="130"/>
    <line x1="130" y1="527" x2="130" y2="533"/>
    <line x1="527" y1="130" x2="533" y2="130"/>
    <line x1="230" y1="27" x2="230" y2="33"/>
    <line x1="27" y1="230" x2="33" y2="230"/>
    <line x1="230" y1="527" x2="230" y2="533"/>
    <line x1="527" y1="230" x2="533" y2="230"/>
    <line x1="330" y1="27" x2="330" y2="33"/>
    <line x1="27" y1="330" x2="33" y2="330"/>
    <line x1="330" y1="527" x2="330" y2="533"/>
    <line x1="527" y1="330" x2="533" y2="330"/>
    <line x1="430" y1="27" x2="430" y2="33"/>
    <line x1="27" y1="430" x2="33" y2="430"/>
    <line x1="430" y1="527" x2="430" y2="533"/>
    <line x1="527" y1="430" x2="533" y2="430"/>
  </g>
  <g stroke="gray" stroke-width="1" stroke-dasharray="5,5">
    <line x1="130" y1="30" x2="130" y2="530"/>
    <line x1="30" y1="130" x2="530" y2="130"/>
    <line x1="230" y1="30" x2="230" y2="530"/>
    <line x1="30" y1="230" x2="530" y2="230"/>
    <line x1="330" y1="30" x2="330" y2="530"/>
    <line x1="30" y1="330" x2="530" y2="330"/>
    <line x1="430" y1="30" x2="430" y2="530"/>
    <line x1="30" y1="430" x2="530" y2="430"/>
  </g>
</svg>
