<?xml version="1.0" standalone="no"?>
<!DOCTYPE svg PUBLIC "-//W3C//DTD SVG 1.1//EN" 
  "http://www.w3.org/Graphics/SVG/1.1/DTD/svg11.dtd">
<svg width="510" height="510" version="1.1" id="toplevel"
    xmlns="http://www.w3.org/2000/svg"
    xmlns:xlink="http://www.w3.org/1999/xlink">
  <polygon points="297,505 318,484 318,318 234,234 234,213 255,192 318,192 318,151 88,151 88,172 109,172 109,255 5,359 151,359"
           fill="bisque"/>
  <g stroke="chocolate" stroke-width="1">
    <line x1="297" y1="505" x2="318" y2="484"/>
    <circle cx="297" cy="505" r="2"/>
    <circle cx="318" cy="484" r="2"/>
  </g>
  <g stroke="chocolate" stroke-width="1">
    <line x1="276" y1="359" x2="318" y2="318"/>
    <circle cx="276" cy="359" r="2"/>
    <circle cx="318" cy="318" r="2"/>
  </g>
  <g stroke="chocolate" stroke-width="1">
    <line x1="88" y1="172" x2="88" y2="151"/>
    <circle cx="88" cy="172" r="2"/>
    <circle cx="88" cy="151" r="2"/>
  </g>
  <g stroke="chocolate" stroke-width="1">
    <line x1="109" y1="359" x2="109" y2="151"/>
    <circle cx="109" cy="359" r="2"/>
    <circle cx="109" cy="151" r="2"/>
  </g>
  <g stroke="chocolate" stroke-width="1">
    <line x1="172" y1="297" x2="172" y2="172"/>
    <circle cx="172" cy="297" r="2"/>
    <circle cx="172" cy="172" r="2"/>
  </g>
  <g stroke="chocolate" stroke-width="1">
    <line x1="192" y1="192" x2="192" y2="151"/>
    <circle cx="192" cy="192" r="2"/>
    <circle cx="192" cy="151" r="2"/>
  </g>
  <g stroke="chocolate" stroke-width="1">
    <line x1="213" y1="255" x2="213" y2="172"/>
    <circle cx="213" cy="255" r="2"/>
    <circle cx="213" cy="172" r="2"/>
  </g>
  <g stroke="chocolate" stroke-width="1">
    <line x1="234" y1="276" x2="234" y2="151"/>
    <circle cx="234" cy="276" r="2"/>
    <circle cx="234" cy="151" r="2"/>
  </g>
  <g stroke="chocolate" stroke-width="1">
    <line x1="276" y1="484" x2="276" y2="276"/>
    <circle cx="276" cy="484" r="2"/>
    <circle cx="276" cy="276" r="2"/>
  </g>
  <g stroke="chocolate" stroke-width="1">
    <line x1="297" y1="505" x2="297" y2="463"/>
    <circle cx="297" cy="505" r="2"/>
    <circle cx="297" cy="463" r="2"/>
  </g>
  <g stroke="chocolate" stroke-width="1">
    <line x1="318" y1="484" x2="318" y2="318"/>
    <circle cx="318" cy="484" r="2"/>
    <circle cx="318" cy="318" r="2"/>
  </g>
  <g stroke="chocolate" stroke-width="1">
    <line x1="318" y1="192" x2="318" y2="151"/>
    <circle cx="318" cy="192" r="2"/>
    <circle cx="318" cy="151" r="2"/>
  </g>
  <g stroke="chocolate" stroke-width="1">
    <line x1="297" y1="192" x2="318" y2="172"/>
    <circle cx="297" cy="192" r="2"/>
    <circle cx="318" cy="172" r="2"/>
  </g>
  <g stroke="chocolate" stroke-width="1">
    <line x1="109" y1="359" x2="234" y2="234"/>
    <circle cx="109" cy="359" r="2"/>
    <circle cx="234" cy="234" r="2"/>
  </g>
  <g stroke="chocolate" stroke-width="1">
    <line x1="276" y1="484" x2="318" y2="484"/>
    <circle cx="276" cy="484" r="2"/>
    <circle cx="318" cy="484" r="2"/>
  </g>
  <g stroke="chocolate" stroke-width="1">
    <line x1="120" y1="328" x2="276" y2="172"/>
    <circle cx="120" cy="328" r="2"/>
    <circle cx="276" cy="172" r="2"/>
  </g>
  <g stroke="chocolate" stroke-width="1">
    <line x1="276" y1="463" x2="297" y2="463"/>
    <circle cx="276" cy="463" r="2"/>
    <circle cx="297" cy="463" r="2"/>
  </g>
  <g stroke="chocolate" stroke-width="1">
    <line x1="109" y1="297" x2="192" y2="213"/>
    <circle cx="109" cy="297" r="2"/>
    <circle cx="192" cy="213" r="2"/>
  </g>
  <g stroke="chocolate" stroke-width="1">
    <line x1="5" y1="359" x2="203" y2="161"/>
    <circle cx="5" cy="359" r="2"/>
    <circle cx="203" cy="161" r="2"/>
  </g>
  <g stroke="chocolate" stroke-width="1">
    <line x1="172" y1="172" x2="192" y2="151"/>
    <circle cx="172" cy="172" r="2"/>
    <circle cx="192" cy="151" r="2"/>
  </g>
  <g stroke="chocolate" stroke-width="1">
    <line x1="130" y1="172" x2="151" y2="151"/>
    <circle cx="130" cy="172" r="2"/>
    <circle cx="151" cy="151" r="2"/>
  </g>
  <g stroke="chocolate" stroke-width="1">
    <line x1="109" y1="172" x2="130" y2="151"/>
    <circle cx="109" cy="172" r="2"/>
    <circle cx="130" cy="151" r="2"/>
  </g>
  <g stroke="chocolate" stroke-width="1">
    <line x1="88" y1="172" x2="109" y2="151"/>
    <circle cx="88" cy="172" r="2"/>
    <circle cx="109" cy="151" r="2"/>
  </g>
  <g stroke="chocolate" stroke-width="1">
    <line x1="5" y1="359" x2="318" y2="359"/>
    <circle cx="5" cy="359" r="2"/>
    <circle cx="318" cy="359" r="2"/>
  </g>
  <g stroke="chocolate" stroke-width="1">
    <line x1="297" y1="505" x2="109" y2="318"/>
    <circle cx="297" cy="505" r="2"/>
    <circle cx="109" cy="318" r="2"/>
  </g>
  <g stroke="chocolate" stroke-width="1">
    <line x1="297" y1="484" x2="130" y2="318"/>
    <circle cx="297" cy="484" r="2"/>
    <circle cx="130" cy="318" r="2"/>
  </g>
  <g stroke="chocolate" stroke-width="1">
    <line x1="318" y1="484" x2="297" y2="463"/>
    <circle cx="318" cy="484" r="2"/>
    <circle cx="297" cy="463" r="2"/>
  </g>
  <g stroke="chocolate" stroke-width="1">
    <line x1="109" y1="318" x2="130" y2="318"/>
    <circle cx="109" cy="318" r="2"/>
    <circle cx="130" cy="318" r="2"/>
  </g>
  <g stroke="chocolate" stroke-width="1">
    <line x1="109" y1="297" x2="172" y2="297"/>
    <circle cx="109" cy="297" r="2"/>
    <circle cx="172" cy="297" r="2"/>
  </g>
  <g stroke="chocolate" stroke-width="1">
    <line x1="109" y1="172" x2="88" y2="151"/>
    <circle cx="109" cy="172" r="2"/>
    <circle cx="88" cy="151" r="2"/>
  </g>
  <g stroke="chocolate" stroke-width="1">
    <line x1="234" y1="276" x2="276" y2="276"/>
    <circle cx="234" cy="276" r="2"/>
    <circle cx="276" cy="276" r="2"/>
  </g>
  <g stroke="chocolate" stroke-width="1">
    <line x1="234" y1="276" x2="109" y2="151"/>
    <circle cx="234" cy="276" r="2"/>
    <circle cx="109" cy="151" r="2"/>
  </g>
  <g stroke="chocolate" stroke-width="1">
    <line x1="224" y1="245" x2="130" y2="151"/>
    <circle cx="224" cy="245" r="2"/>
    <circle cx="130" cy="151" r="2"/>
  </g>
  <g stroke="chocolate" stroke-width="1">
    <line x1="109" y1="255" x2="213" y2="255"/>
    <circle cx="109" cy="255" r="2"/>
    <circle cx="213" cy="255" r="2"/>
  </g>
  <g stroke="chocolate" stroke-width="1">
    <line x1="318" y1="318" x2="151" y2="151"/>
    <circle cx="318" cy="318" r="2"/>
    <circle cx="151" cy="151" r="2"/>
  </g>
  <g stroke="chocolate" stroke-width="1">
    <line x1="234" y1="213" x2="192" y2="172"/>
    <circle cx="234" cy="213" r="2"/>
    <circle cx="192" cy="172" r="2"/>
  </g>
  <g stroke="chocolate" stroke-width="1">
    <line x1="245" y1="203" x2="192" y2="151"/>
    <circle cx="245" cy="203" r="2"/>
    <circle cx="192" cy="151" r="2"/>
  </g>
  <g stroke="chocolate" stroke-width="1">
    <line x1="192" y1="213" x2="234" y2="213"/>
    <circle cx="192" cy="213" r="2"/>
    <circle cx="234" cy="213" r="2"/>
  </g>
  <g stroke="chocolate" stroke-width="1">
    <line x1="297" y1="192" x2="276" y2="172"/>
    <circle cx="297" cy="192" r="2"/>
    <circle cx="276" cy="172" r="2"/>
  </g>
  <g stroke="chocolate" stroke-width="1">
    <line x1="192" y1="192" x2="318" y2="192"/>
    <circle cx="192" cy="192" r="2"/>
    <circle cx="318" cy="192" r="2"/>
  </g>
  <g stroke="chocolate" stroke-width="1">
    <line x1="88" y1="172" x2="318" y2="172"/>
    <circle cx="88" cy="172" r="2"/>
    <circle cx="318" cy="172" r="2"/>
  </g>
  <g stroke="chocolate" stroke-width="1">
    <line x1="88" y1="151" x2="318" y2="151"/>
    <circle cx="88" cy="151" r="2"/>
    <circle cx="318" cy="151" r="2"/>
  </g>
  <g stroke="black" stroke-width="1">
    <line x1="5" y1="5" x2="505" y2="5"/>
    <line x1="5" y1="5" x2="5" y2="505"/>
    <line x1="505" y1="505" x2="5" y2="505"/>
    <line x1="505" y1="505" x2="505" y2="5"/>
    <line x1="105" y1="2" x2="105" y2="8"/>
    <line x1="2" y1="105" x2="8" y2="105"/>
    <line x1="105" y1="502" x2="105" y2="508"/>
    <line x1="502" y1="105" x2="508" y2="105"/>
    <line x1="205" y1="2" x2="205" y2="8"/>
    <line x1="2" y1="205" x2="8" y2="205"/>
    <line x1="205" y1="502" x2="205" y2="508"/>
    <line x1="502" y1="205" x2="508" y2="205"/>
    <line x1="305" y1="2" x2="305" y2="8"/>
    <line x1="2" y1="305" x2="8" y2="305"/>
    <line x1="305" y1="502" x2="305" y2="508"/>
    <line x1="502" y1="305" x2="508" y2="305"/>
    <line x1="405" y1="2" x2="405" y2="8"/>
    <line x1="2" y1="405" x2="8" y2="405"/>
    <line x1="405" y1="502" x2="405" y2="508"/>
    <line x1="502" y1="405" x2="508" y2="405"/>
  </g>
  <g stroke="gray" stroke-width="1" stroke-dasharray="5,5">
    <line x1="105" y1="5" x2="105" y2="505"/>
    <line x1="5" y1="105" x2="505" y2="105"/>
    <line x1="205" y1="5" x2="205" y2="505"/>
    <line x1="5" y1="205" x2="505" y2="205"/>
    <line x1="305" y1="5" x2="305" y2="505"/>
    <line x1="5" y1="305" x2="505" y2="305"/>
    <line x1="405" y1="5" x2="405" y2="505"/>
    <line x1="5" y1="405" x2="505" y2="405"/>
  </g>
</svg>
