<?xml version="1.0" standalone="no"?>
<!DOCTYPE svg PUBLIC "-//W3C//DTD SVG 1.1//EN" 
  "http://www.w3.org/Graphics/SVG/1.1/DTD/svg11.dtd">
<svg width="566" height="566" version="1.1" id="toplevel"
    xmlns="http://www.w3.org/2000/svg"
    xmlns:xlink="http://www.w3.org/1999/xlink">
  <polygon points="191,561 323,349 283,177 455,137 243,5 111,217" fill="bisque"/>
  <g stroke="chocolate" stroke-width="1">
    <line x1="191" y1="561" x2="323" y2="349"/>
    <circle cx="191" cy="561" r="2"/>
    <circle cx="323" cy="349" r="2"/>
  </g>
  <g stroke="chocolate" stroke-width="1">
    <line x1="111" y1="217" x2="243" y2="5"/>
    <circle cx="111" cy="217" r="2"/>
    <circle cx="243" cy="5" r="2"/>
  </g>
  <g stroke="chocolate" stroke-width="1">
    <line x1="111" y1="217" x2="455" y2="137"/>
    <circle cx="111" cy="217" r="2"/>
    <circle cx="455" cy="137" r="2"/>
  </g>
  <g stroke="chocolate" stroke-width="1">
    <line x1="191" y1="561" x2="111" y2="217"/>
    <circle cx="191" cy="561" r="2"/>
    <circle cx="111" cy="217" r="2"/>
  </g>
  <g stroke="chocolate" stroke-width="1">
    <line x1="323" y1="349" x2="243" y2="5"/>
    <circle cx="323" cy="349" r="2"/>
    <circle cx="243" cy="5" r="2"/>
  </g>
  <g stroke="chocolate" stroke-width="1">
    <line x1="323" y1="349" x2="111" y2="217"/>
    <circle cx="323" cy="349" r="2"/>
    <circle cx="111" cy="217" r="2"/>
  </g>
  <g stroke="chocolate" stroke-width="1">
    <line x1="455" y1="137" x2="243" y2="5"/>
    <circle cx="455" cy="137" r="2"/>
    <circle cx="243" cy="5" r="2"/>
  </g>
  <g stroke="black" stroke-width="1">
    <line x1="33" y1="33" x2="533" y2="33"/>
    <line x1="33" y1="33" x2="33" y2="533"/>
    <line x1="533" y1="533" x2="33" y2="533"/>
    <line x1="533" y1="533" x2="533" y2="33"/>
    <line x1="133" y1="30" x2="133" y2="36"/>
    <line x1="30" y1="133" x2="36" y2="133"/>
    <line x1="133" y1="530" x2="133" y2="536"/>
    <line x1="530" y1="133" x2="536" y2="133"/>
    <line x1="233" y1="30" x2="233" y2="36"/>
    <line x1="30" y1="233" x2="36" y2="233"/>
    <line x1="233" y1="530" x2="233" y2="536"/>
    <line x1="530" y1="233" x2="536" y2="233"/>
    <line x1="333" y1="30" x2="333" y2="36"/>
    <line x1="30" y1="333" x2="36" y2="333"/>
    <line x1="333" y1="530" x2="333" y2="536"/>
    <line x1="530" y1="333" x2="536" y2="333"/>
    <line x1="433" y1="30" x2="433" y2="36"/>
    <line x1="30" y1="433" x2="36" y2="433"/>
    <line x1="433" y1="530" x2="433" y2="536"/>
    <line x1="530" y1="433" x2="536" y2="433"/>
  </g>
  <g stroke="gray" stroke-width="1" stroke-dasharray="5,5">
    <line x1="133" y1="33" x2="133" y2="533"/>
    <line x1="33" y1="133" x2="533" y2="133"/>
    <line x1="233" y1="33" x2="233" y2="533"/>
    <line x1="33" y1="233" x2="533" y2="233"/>
    <line x1="333" y1="33" x2="333" y2="533"/>
    <line x1="33" y1="333" x2="533" y2="333"/>
    <line x1="433" y1="33" x2="433" y2="533"/>
    <line x1="33" y1="433" x2="533" y2="433"/>
  </g>
</svg>
