<?xml version="1.0" standalone="no"?>
<!DOCTYPE svg PUBLIC "-//W3C//DTD SVG 1.1//EN" 
  "http://www.w3.org/Graphics/SVG/1.1/DTD/svg11.dtd">
<svg width="510" height="510" version="1.1" id="toplevel"
    xmlns="http://www.w3.org/2000/svg"
    xmlns:xlink="http://www.w3.org/1999/xlink">
  <polygon points="81,497 407,289 497,151 140,13" fill="bisque"/>
  <g stroke="chocolate" stroke-width="1">
    <line x1="407" y1="289" x2="497" y2="151"/>
    <circle cx="407" cy="289" r="2"/>
    <circle cx="497" cy="151" r="2"/>
  </g>
  <g stroke="chocolate" stroke-width="1">
    <line x1="410" y1="160" x2="432" y2="126"/>
    <circle cx="410" cy="160" r="2"/>
    <circle cx="432" cy="126" r="2"/>
  </g>
  <g stroke="chocolate" stroke-width="1">
    <line x1="407" y1="289" x2="432" y2="126"/>
    <circle cx="407" cy="289" r="2"/>
    <circle cx="432" cy="126" r="2"/>
  </g>
  <g stroke="chocolate" stroke-width="1">
    <line x1="273" y1="92" x2="280" y2="67"/>
    <circle cx="273" cy="92" r="2"/>
    <circle cx="280" cy="67" r="2"/>
  </g>
  <g stroke="chocolate" stroke-width="1">
    <line x1="81" y1="497" x2="407" y2="289"/>
    <circle cx="81" cy="497" r="2"/>
    <circle cx="407" cy="289" r="2"/>
  </g>
  <g stroke="chocolate" stroke-width="1">
    <line x1="81" y1="497" x2="280" y2="67"/>
    <circle cx="81" cy="497" r="2"/>
    <circle cx="280" cy="67" r="2"/>
  </g>
  <g stroke="chocolate" stroke-width="1">
    <line x1="81" y1="497" x2="196" y2="34"/>
    <circle cx="81" cy="497" r="2"/>
    <circle cx="196" cy="34" r="2"/>
  </g>
  <g stroke="chocolate" stroke-width="1">
    <line x1="81" y1="497" x2="140" y2="13"/>
    <circle cx="81" cy="497" r="2"/>
    <circle cx="140" cy="13" r="2"/>
  </g>
  <g stroke="chocolate" stroke-width="1">
    <line x1="185" y1="55" x2="196" y2="34"/>
    <circle cx="185" cy="55" r="2"/>
    <circle cx="196" cy="34" r="2"/>
  </g>
  <g stroke="chocolate" stroke-width="1">
    <line x1="421" y1="200" x2="497" y2="151"/>
    <circle cx="421" cy="200" r="2"/>
    <circle cx="497" cy="151" r="2"/>
  </g>
  <g stroke="chocolate" stroke-width="1">
    <line x1="168" y1="46" x2="159" y2="20"/>
    <circle cx="168" cy="46" r="2"/>
    <circle cx="159" cy="20" r="2"/>
  </g>
  <g stroke="chocolate" stroke-width="1">
    <line x1="414" y1="278" x2="399" y2="231"/>
    <circle cx="414" cy="278" r="2"/>
    <circle cx="399" cy="231" r="2"/>
  </g>
  <g stroke="chocolate" stroke-width="1">
    <line x1="399" y1="231" x2="424" y2="224"/>
    <circle cx="399" cy="231" r="2"/>
    <circle cx="424" cy="224" r="2"/>
  </g>
  <g stroke="chocolate" stroke-width="1">
    <line x1="408" y1="279" x2="414" y2="278"/>
    <circle cx="408" cy="279" r="2"/>
    <circle cx="414" cy="278" r="2"/>
  </g>
  <g stroke="chocolate" stroke-width="1">
    <line x1="443" y1="233" x2="410" y2="160"/>
    <circle cx="443" cy="233" r="2"/>
    <circle cx="410" cy="160" r="2"/>
  </g>
  <g stroke="chocolate" stroke-width="1">
    <line x1="491" y1="161" x2="489" y2="156"/>
    <circle cx="491" cy="161" r="2"/>
    <circle cx="489" cy="156" r="2"/>
  </g>
  <g stroke="chocolate" stroke-width="1">
    <line x1="443" y1="233" x2="415" y2="233"/>
    <circle cx="443" cy="233" r="2"/>
    <circle cx="415" cy="233" r="2"/>
  </g>
  <g stroke="chocolate" stroke-width="1">
    <line x1="168" y1="46" x2="140" y2="13"/>
    <circle cx="168" cy="46" r="2"/>
    <circle cx="140" cy="13" r="2"/>
  </g>
  <g stroke="chocolate" stroke-width="1">
    <line x1="138" y1="32" x2="159" y2="20"/>
    <circle cx="138" cy="32" r="2"/>
    <circle cx="159" cy="20" r="2"/>
  </g>
  <g stroke="chocolate" stroke-width="1">
    <line x1="412" y1="281" x2="138" y2="32"/>
    <circle cx="412" cy="281" r="2"/>
    <circle cx="138" cy="32" r="2"/>
  </g>
  <g stroke="chocolate" stroke-width="1">
    <line x1="438" y1="240" x2="424" y2="224"/>
    <circle cx="438" cy="240" r="2"/>
    <circle cx="424" cy="224" r="2"/>
  </g>
  <g stroke="chocolate" stroke-width="1">
    <line x1="445" y1="230" x2="421" y2="200"/>
    <circle cx="445" cy="230" r="2"/>
    <circle cx="421" cy="200" r="2"/>
  </g>
  <g stroke="chocolate" stroke-width="1">
    <line x1="412" y1="281" x2="408" y2="279"/>
    <circle cx="412" cy="281" r="2"/>
    <circle cx="408" cy="279" r="2"/>
  </g>
  <g stroke="chocolate" stroke-width="1">
    <line x1="491" y1="161" x2="410" y2="160"/>
    <circle cx="491" cy="161" r="2"/>
    <circle cx="410" cy="160" r="2"/>
  </g>
  <g stroke="chocolate" stroke-width="1">
    <line x1="438" y1="240" x2="415" y2="233"/>
    <circle cx="438" cy="240" r="2"/>
    <circle cx="415" cy="233" r="2"/>
  </g>
  <g stroke="chocolate" stroke-width="1">
    <line x1="445" y1="230" x2="424" y2="224"/>
    <circle cx="445" cy="230" r="2"/>
    <circle cx="424" cy="224" r="2"/>
  </g>
  <g stroke="chocolate" stroke-width="1">
    <line x1="491" y1="159" x2="489" y2="156"/>
    <circle cx="491" cy="159" r="2"/>
    <circle cx="489" cy="156" r="2"/>
  </g>
  <g stroke="chocolate" stroke-width="1">
    <line x1="185" y1="55" x2="168" y2="46"/>
    <circle cx="185" cy="55" r="2"/>
    <circle cx="168" cy="46" r="2"/>
  </g>
  <g stroke="chocolate" stroke-width="1">
    <line x1="491" y1="159" x2="273" y2="92"/>
    <circle cx="491" cy="159" r="2"/>
    <circle cx="273" cy="92" r="2"/>
  </g>
  <g stroke="chocolate" stroke-width="1">
    <line x1="497" y1="151" x2="140" y2="13"/>
    <circle cx="497" cy="151" r="2"/>
    <circle cx="140" cy="13" r="2"/>
  </g>
  <g stroke="black" stroke-width="1">
    <line x1="5" y1="5" x2="505" y2="5"/>
    <line x1="5" y1="5" x2="5" y2="505"/>
    <line x1="505" y1="505" x2="5" y2="505"/>
    <line x1="505" y1="505" x2="505" y2="5"/>
    <line x1="105" y1="2" x2="105" y2="8"/>
    <line x1="2" y1="105" x2="8" y2="105"/>
    <line x1="105" y1="502" x2="105" y2="508"/>
    <line x1="502" y1="105" x2="508" y2="105"/>
    <line x1="205" y1="2" x2="205" y2="8"/>
    <line x1="2" y1="205" x2="8" y2="205"/>
    <line x1="205" y1="502" x2="205" y2="508"/>
    <line x1="502" y1="205" x2="508" y2="205"/>
    <line x1="305" y1="2" x2="305" y2="8"/>
    <line x1="2" y1="305" x2="8" y2="305"/>
    <line x1="305" y1="502" x2="305" y2="508"/>
    <line x1="502" y1="305" x2="508" y2="305"/>
    <line x1="405" y1="2" x2="405" y2="8"/>
    <line x1="2" y1="405" x2="8" y2="405"/>
    <line x1="405" y1="502" x2="405" y2="508"/>
    <line x1="502" y1="405" x2="508" y2="405"/>
  </g>
  <g stroke="gray" stroke-width="1" stroke-dasharray="5,5">
    <line x1="105" y1="5" x2="105" y2="505"/>
    <line x1="5" y1="105" x2="505" y2="105"/>
    <line x1="205" y1="5" x2="205" y2="505"/>
    <line x1="5" y1="205" x2="505" y2="205"/>
    <line x1="305" y1="5" x2="305" y2="505"/>
    <line x1="5" y1="305" x2="505" y2="305"/>
    <line x1="405" y1="5" x2="405" y2="505"/>
    <line x1="5" y1="405" x2="505" y2="405"/>
  </g>
</svg>
