<?xml version="1.0" standalone="no"?>
<!DOCTYPE svg PUBLIC "-//W3C//DTD SVG 1.1//EN" 
  "http://www.w3.org/Graphics/SVG/1.1/DTD/svg11.dtd">
<svg width="510" height="510" version="1.1" id="toplevel"
    xmlns="http://www.w3.org/2000/svg"
    xmlns:xlink="http://www.w3.org/1999/xlink">
  <polygon points="250,391 299,391 299,354 311,363 387,344 428,249 354,130 223,119 220,127 195,134 207,173 163,214 174,331"
           fill="bisque"/>
  <polygon points="291,337 224,281 223,277 299,192 343,267 342,267"
           fill="bisque"/>
  <g stroke="chocolate" stroke-width="1">
    <line x1="387" y1="344" x2="428" y2="249"/>
    <circle cx="387" cy="344" r="2"/>
    <circle cx="428" cy="249" r="2"/>
  </g>
  <g stroke="chocolate" stroke-width="1">
    <line x1="286" y1="345" x2="342" y2="267"/>
    <circle cx="286" cy="345" r="2"/>
    <circle cx="342" cy="267" r="2"/>
  </g>
  <g stroke="chocolate" stroke-width="1">
    <line x1="311" y1="363" x2="360" y2="263"/>
    <circle cx="311" cy="363" r="2"/>
    <circle cx="360" cy="263" r="2"/>
  </g>
  <g stroke="chocolate" stroke-width="1">
    <line x1="311" y1="363" x2="387" y2="344"/>
    <circle cx="311" cy="363" r="2"/>
    <circle cx="387" cy="344" r="2"/>
  </g>
  <g stroke="chocolate" stroke-width="1">
    <line x1="174" y1="331" x2="354" y2="130"/>
    <circle cx="174" cy="331" r="2"/>
    <circle cx="354" cy="130" r="2"/>
  </g>
  <g stroke="chocolate" stroke-width="1">
    <line x1="395" y1="299" x2="409" y2="218"/>
    <circle cx="395" cy="299" r="2"/>
    <circle cx="409" cy="218" r="2"/>
  </g>
  <g stroke="chocolate" stroke-width="1">
    <line x1="211" y1="159" x2="223" y2="119"/>
    <circle cx="211" cy="159" r="2"/>
    <circle cx="223" cy="119" r="2"/>
  </g>
  <g stroke="chocolate" stroke-width="1">
    <line x1="209" y1="359" x2="299" y2="343"/>
    <circle cx="209" cy="359" r="2"/>
    <circle cx="299" cy="343" r="2"/>
  </g>
  <g stroke="chocolate" stroke-width="1">
    <line x1="250" y1="391" x2="299" y2="391"/>
    <circle cx="250" cy="391" r="2"/>
    <circle cx="299" cy="391" r="2"/>
  </g>
  <g stroke="chocolate" stroke-width="1">
    <line x1="165" y1="232" x2="258" y2="122"/>
    <circle cx="165" cy="232" r="2"/>
    <circle cx="258" cy="122" r="2"/>
  </g>
  <g stroke="chocolate" stroke-width="1">
    <line x1="395" y1="300" x2="395" y2="197"/>
    <circle cx="395" cy="300" r="2"/>
    <circle cx="395" cy="197" r="2"/>
  </g>
  <g stroke="chocolate" stroke-width="1">
    <line x1="163" y1="214" x2="262" y2="122"/>
    <circle cx="163" cy="214" r="2"/>
    <circle cx="262" cy="122" r="2"/>
  </g>
  <g stroke="chocolate" stroke-width="1">
    <line x1="299" y1="391" x2="299" y2="343"/>
    <circle cx="299" cy="391" r="2"/>
    <circle cx="299" cy="343" r="2"/>
  </g>
  <g stroke="chocolate" stroke-width="1">
    <line x1="209" y1="359" x2="201" y2="239"/>
    <circle cx="209" cy="359" r="2"/>
    <circle cx="201" cy="239" r="2"/>
  </g>
  <g stroke="chocolate" stroke-width="1">
    <line x1="174" y1="331" x2="163" y2="214"/>
    <circle cx="174" cy="331" r="2"/>
    <circle cx="163" cy="214" r="2"/>
  </g>
  <g stroke="chocolate" stroke-width="1">
    <line x1="342" y1="267" x2="428" y2="249"/>
    <circle cx="342" cy="267" r="2"/>
    <circle cx="428" cy="249" r="2"/>
  </g>
  <g stroke="chocolate" stroke-width="1">
    <line x1="239" y1="258" x2="223" y2="119"/>
    <circle cx="239" cy="258" r="2"/>
    <circle cx="223" cy="119" r="2"/>
  </g>
  <g stroke="chocolate" stroke-width="1">
    <line x1="167" y1="252" x2="201" y2="239"/>
    <circle cx="167" cy="252" r="2"/>
    <circle cx="201" cy="239" r="2"/>
  </g>
  <g stroke="chocolate" stroke-width="1">
    <line x1="250" y1="391" x2="216" y2="249"/>
    <circle cx="250" cy="391" r="2"/>
    <circle cx="216" cy="249" r="2"/>
  </g>
  <g stroke="chocolate" stroke-width="1">
    <line x1="234" y1="264" x2="195" y2="134"/>
    <circle cx="234" cy="264" r="2"/>
    <circle cx="195" cy="134" r="2"/>
  </g>
  <g stroke="chocolate" stroke-width="1">
    <line x1="167" y1="258" x2="216" y2="249"/>
    <circle cx="167" cy="258" r="2"/>
    <circle cx="216" cy="249" r="2"/>
  </g>
  <g stroke="chocolate" stroke-width="1">
    <line x1="250" y1="391" x2="174" y2="331"/>
    <circle cx="250" cy="391" r="2"/>
    <circle cx="174" cy="331" r="2"/>
  </g>
  <g stroke="chocolate" stroke-width="1">
    <line x1="239" y1="258" x2="167" y2="258"/>
    <circle cx="239" cy="258" r="2"/>
    <circle cx="167" cy="258" r="2"/>
  </g>
  <g stroke="chocolate" stroke-width="1">
    <line x1="406" y1="301" x2="395" y2="299"/>
    <circle cx="406" cy="301" r="2"/>
    <circle cx="395" cy="299" r="2"/>
  </g>
  <g stroke="chocolate" stroke-width="1">
    <line x1="234" y1="264" x2="167" y2="252"/>
    <circle cx="234" cy="264" r="2"/>
    <circle cx="167" cy="252" r="2"/>
  </g>
  <g stroke="chocolate" stroke-width="1">
    <line x1="311" y1="363" x2="286" y2="345"/>
    <circle cx="311" cy="363" r="2"/>
    <circle cx="286" cy="345" r="2"/>
  </g>
  <g stroke="chocolate" stroke-width="1">
    <line x1="299" y1="343" x2="165" y2="232"/>
    <circle cx="299" cy="343" r="2"/>
    <circle cx="165" cy="232" r="2"/>
  </g>
  <g stroke="chocolate" stroke-width="1">
    <line x1="195" y1="134" x2="241" y2="120"/>
    <circle cx="195" cy="134" r="2"/>
    <circle cx="241" cy="120" r="2"/>
  </g>
  <g stroke="chocolate" stroke-width="1">
    <line x1="405" y1="303" x2="395" y2="300"/>
    <circle cx="405" cy="303" r="2"/>
    <circle cx="395" cy="300" r="2"/>
  </g>
  <g stroke="chocolate" stroke-width="1">
    <line x1="387" y1="344" x2="258" y2="122"/>
    <circle cx="387" cy="344" r="2"/>
    <circle cx="258" cy="122" r="2"/>
  </g>
  <g stroke="chocolate" stroke-width="1">
    <line x1="216" y1="249" x2="163" y2="214"/>
    <circle cx="216" cy="249" r="2"/>
    <circle cx="163" cy="214" r="2"/>
  </g>
  <g stroke="chocolate" stroke-width="1">
    <line x1="395" y1="300" x2="262" y2="122"/>
    <circle cx="395" cy="300" r="2"/>
    <circle cx="262" cy="122" r="2"/>
  </g>
  <g stroke="chocolate" stroke-width="1">
    <line x1="405" y1="303" x2="342" y2="267"/>
    <circle cx="405" cy="303" r="2"/>
    <circle cx="342" cy="267" r="2"/>
  </g>
  <g stroke="chocolate" stroke-width="1">
    <line x1="428" y1="249" x2="354" y2="130"/>
    <circle cx="428" cy="249" r="2"/>
    <circle cx="354" cy="130" r="2"/>
  </g>
  <g stroke="chocolate" stroke-width="1">
    <line x1="406" y1="301" x2="360" y2="263"/>
    <circle cx="406" cy="301" r="2"/>
    <circle cx="360" cy="263" r="2"/>
  </g>
  <g stroke="chocolate" stroke-width="1">
    <line x1="409" y1="218" x2="211" y2="159"/>
    <circle cx="409" cy="218" r="2"/>
    <circle cx="211" cy="159" r="2"/>
  </g>
  <g stroke="chocolate" stroke-width="1">
    <line x1="354" y1="130" x2="223" y2="119"/>
    <circle cx="354" cy="130" r="2"/>
    <circle cx="223" cy="119" r="2"/>
  </g>
  <g stroke="chocolate" stroke-width="1">
    <line x1="395" y1="197" x2="241" y2="120"/>
    <circle cx="395" cy="197" r="2"/>
    <circle cx="241" cy="120" r="2"/>
  </g>
  <g stroke="black" stroke-width="1">
    <line x1="5" y1="5" x2="505" y2="5"/>
    <line x1="5" y1="5" x2="5" y2="505"/>
    <line x1="505" y1="505" x2="5" y2="505"/>
    <line x1="505" y1="505" x2="505" y2="5"/>
    <line x1="105" y1="2" x2="105" y2="8"/>
    <line x1="2" y1="105" x2="8" y2="105"/>
    <line x1="105" y1="502" x2="105" y2="508"/>
    <line x1="502" y1="105" x2="508" y2="105"/>
    <line x1="205" y1="2" x2="205" y2="8"/>
    <line x1="2" y1="205" x2="8" y2="205"/>
    <line x1="205" y1="502" x2="205" y2="508"/>
    <line x1="502" y1="205" x2="508" y2="205"/>
    <line x1="305" y1="2" x2="305" y2="8"/>
    <line x1="2" y1="305" x2="8" y2="305"/>
    <line x1="305" y1="502" x2="305" y2="508"/>
    <line x1="502" y1="305" x2="508" y2="305"/>
    <line x1="405" y1="2" x2="405" y2="8"/>
    <line x1="2" y1="405" x2="8" y2="405"/>
    <line x1="405" y1="502" x2="405" y2="508"/>
    <line x1="502" y1="405" x2="508" y2="405"/>
  </g>
  <g stroke="gray" stroke-width="1" stroke-dasharray="5,5">
    <line x1="105" y1="5" x2="105" y2="505"/>
    <line x1="5" y1="105" x2="505" y2="105"/>
    <line x1="205" y1="5" x2="205" y2="505"/>
    <line x1="5" y1="205" x2="505" y2="205"/>
    <line x1="305" y1="5" x2="305" y2="505"/>
    <line x1="5" y1="305" x2="505" y2="305"/>
    <line x1="405" y1="5" x2="405" y2="505"/>
    <line x1="5" y1="405" x2="505" y2="405"/>
  </g>
</svg>
