<?xml version="1.0" standalone="no"?>
<!DOCTYPE svg PUBLIC "-//W3C//DTD SVG 1.1//EN" 
  "http://www.w3.org/Graphics/SVG/1.1/DTD/svg11.dtd">
<svg width="526" height="526" version="1.1" id="toplevel"
    xmlns="http://www.w3.org/2000/svg"
    xmlns:xlink="http://www.w3.org/1999/xlink">
  <polygon points="255,521 354,508 356,29 338,5 329,7 305,81 282,103 290,112 209,212 220,238 185,241 176,260 170,292 227,320 221,337 231,341"
           fill="bisque"/>
  <g stroke="chocolate" stroke-width="1">
    <line x1="334" y1="505" x2="354" y2="476"/>
    <circle cx="334" cy="505" r="2"/>
    <circle cx="354" cy="476" r="2"/>
  </g>
  <g stroke="chocolate" stroke-width="1">
    <line x1="294" y1="411" x2="355" y2="382"/>
    <circle cx="294" cy="411" r="2"/>
    <circle cx="355" cy="382" r="2"/>
  </g>
  <g stroke="chocolate" stroke-width="1">
    <line x1="294" y1="411" x2="355" y2="388"/>
    <circle cx="294" cy="411" r="2"/>
    <circle cx="355" cy="388" r="2"/>
  </g>
  <g stroke="chocolate" stroke-width="1">
    <line x1="228" y1="315" x2="356" y2="182"/>
    <circle cx="228" cy="315" r="2"/>
    <circle cx="356" cy="182" r="2"/>
  </g>
  <g stroke="chocolate" stroke-width="1">
    <line x1="255" y1="521" x2="354" y2="508"/>
    <circle cx="255" cy="521" r="2"/>
    <circle cx="354" cy="508" r="2"/>
  </g>
  <g stroke="chocolate" stroke-width="1">
    <line x1="209" y1="212" x2="356" y2="29"/>
    <circle cx="209" cy="212" r="2"/>
    <circle cx="356" cy="29" r="2"/>
  </g>
  <g stroke="chocolate" stroke-width="1">
    <line x1="282" y1="103" x2="356" y2="33"/>
    <circle cx="282" cy="103" r="2"/>
    <circle cx="356" cy="33" r="2"/>
  </g>
  <g stroke="chocolate" stroke-width="1">
    <line x1="176" y1="260" x2="185" y2="241"/>
    <circle cx="176" cy="260" r="2"/>
    <circle cx="185" cy="241" r="2"/>
  </g>
  <g stroke="chocolate" stroke-width="1">
    <line x1="281" y1="152" x2="338" y2="5"/>
    <circle cx="281" cy="152" r="2"/>
    <circle cx="338" cy="5" r="2"/>
  </g>
  <g stroke="chocolate" stroke-width="1">
    <line x1="221" y1="337" x2="329" y2="7"/>
    <circle cx="221" cy="337" r="2"/>
    <circle cx="329" cy="7" r="2"/>
  </g>
  <g stroke="chocolate" stroke-width="1">
    <line x1="231" y1="339" x2="281" y2="152"/>
    <circle cx="231" cy="339" r="2"/>
    <circle cx="281" cy="152" r="2"/>
  </g>
  <g stroke="chocolate" stroke-width="1">
    <line x1="170" y1="292" x2="176" y2="260"/>
    <circle cx="170" cy="292" r="2"/>
    <circle cx="176" cy="260" r="2"/>
  </g>
  <g stroke="chocolate" stroke-width="1">
    <line x1="354" y1="508" x2="334" y2="505"/>
    <circle cx="354" cy="508" r="2"/>
    <circle cx="334" cy="505" r="2"/>
  </g>
  <g stroke="chocolate" stroke-width="1">
    <line x1="170" y1="292" x2="178" y2="292"/>
    <circle cx="170" cy="292" r="2"/>
    <circle cx="178" cy="292" r="2"/>
  </g>
  <g stroke="chocolate" stroke-width="1">
    <line x1="354" y1="508" x2="356" y2="29"/>
    <circle cx="354" cy="508" r="2"/>
    <circle cx="356" cy="29" r="2"/>
  </g>
  <g stroke="chocolate" stroke-width="1">
    <line x1="185" y1="241" x2="355" y2="226"/>
    <circle cx="185" cy="241" r="2"/>
    <circle cx="355" cy="226" r="2"/>
  </g>
  <g stroke="chocolate" stroke-width="1">
    <line x1="178" y1="292" x2="176" y2="260"/>
    <circle cx="178" cy="292" r="2"/>
    <circle cx="176" cy="260" r="2"/>
  </g>
  <g stroke="chocolate" stroke-width="1">
    <line x1="255" y1="521" x2="228" y2="315"/>
    <circle cx="255" cy="521" r="2"/>
    <circle cx="228" cy="315" r="2"/>
  </g>
  <g stroke="chocolate" stroke-width="1">
    <line x1="231" y1="339" x2="221" y2="337"/>
    <circle cx="231" cy="339" r="2"/>
    <circle cx="221" cy="337" r="2"/>
  </g>
  <g stroke="chocolate" stroke-width="1">
    <line x1="355" y1="226" x2="209" y2="212"/>
    <circle cx="355" cy="226" r="2"/>
    <circle cx="209" cy="212" r="2"/>
  </g>
  <g stroke="chocolate" stroke-width="1">
    <line x1="355" y1="388" x2="221" y2="337"/>
    <circle cx="355" cy="388" r="2"/>
    <circle cx="221" cy="337" r="2"/>
  </g>
  <g stroke="chocolate" stroke-width="1">
    <line x1="329" y1="7" x2="338" y2="5"/>
    <circle cx="329" cy="7" r="2"/>
    <circle cx="338" cy="5" r="2"/>
  </g>
  <g stroke="chocolate" stroke-width="1">
    <line x1="334" y1="505" x2="209" y2="212"/>
    <circle cx="334" cy="505" r="2"/>
    <circle cx="209" cy="212" r="2"/>
  </g>
  <g stroke="chocolate" stroke-width="1">
    <line x1="355" y1="382" x2="170" y2="292"/>
    <circle cx="355" cy="382" r="2"/>
    <circle cx="170" cy="292" r="2"/>
  </g>
  <g stroke="chocolate" stroke-width="1">
    <line x1="354" y1="476" x2="185" y2="241"/>
    <circle cx="354" cy="476" r="2"/>
    <circle cx="185" cy="241" r="2"/>
  </g>
  <g stroke="chocolate" stroke-width="1">
    <line x1="356" y1="182" x2="282" y2="103"/>
    <circle cx="356" cy="182" r="2"/>
    <circle cx="282" cy="103" r="2"/>
  </g>
  <g stroke="chocolate" stroke-width="1">
    <line x1="356" y1="29" x2="338" y2="5"/>
    <circle cx="356" cy="29" r="2"/>
    <circle cx="338" cy="5" r="2"/>
  </g>
  <g stroke="chocolate" stroke-width="1">
    <line x1="356" y1="33" x2="329" y2="7"/>
    <circle cx="356" cy="33" r="2"/>
    <circle cx="329" cy="7" r="2"/>
  </g>
  <g stroke="black" stroke-width="1">
    <line x1="13" y1="13" x2="513" y2="13"/>
    <line x1="13" y1="13" x2="13" y2="513"/>
    <line x1="513" y1="513" x2="13" y2="513"/>
    <line x1="513" y1="513" x2="513" y2="13"/>
    <line x1="113" y1="10" x2="113" y2="16"/>
    <line x1="10" y1="113" x2="16" y2="113"/>
    <line x1="113" y1="510" x2="113" y2="516"/>
    <line x1="510" y1="113" x2="516" y2="113"/>
    <line x1="213" y1="10" x2="213" y2="16"/>
    <line x1="10" y1="213" x2="16" y2="213"/>
    <line x1="213" y1="510" x2="213" y2="516"/>
    <line x1="510" y1="213" x2="516" y2="213"/>
    <line x1="313" y1="10" x2="313" y2="16"/>
    <line x1="10" y1="313" x2="16" y2="313"/>
    <line x1="313" y1="510" x2="313" y2="516"/>
    <line x1="510" y1="313" x2="516" y2="313"/>
    <line x1="413" y1="10" x2="413" y2="16"/>
    <line x1="10" y1="413" x2="16" y2="413"/>
    <line x1="413" y1="510" x2="413" y2="516"/>
    <line x1="510" y1="413" x2="516" y2="413"/>
  </g>
  <g stroke="gray" stroke-width="1" stroke-dasharray="5,5">
    <line x1="113" y1="13" x2="113" y2="513"/>
    <line x1="13" y1="113" x2="513" y2="113"/>
    <line x1="213" y1="13" x2="213" y2="513"/>
    <line x1="13" y1="213" x2="513" y2="213"/>
    <line x1="313" y1="13" x2="313" y2="513"/>
    <line x1="13" y1="313" x2="513" y2="313"/>
    <line x1="413" y1="13" x2="413" y2="513"/>
    <line x1="13" y1="413" x2="513" y2="413"/>
  </g>
</svg>
