<?xml version="1.0" standalone="no"?>
<!DOCTYPE svg PUBLIC "-//W3C//DTD SVG 1.1//EN" 
  "http://www.w3.org/Graphics/SVG/1.1/DTD/svg11.dtd">
<svg width="510" height="510" version="1.1" id="toplevel"
    xmlns="http://www.w3.org/2000/svg"
    xmlns:xlink="http://www.w3.org/1999/xlink">
  <polygon points="57,393 262,375 373,302 459,148 404,117 298,309 51,330"
           fill="bisque"/>
  <g stroke="chocolate" stroke-width="1">
    <line x1="57" y1="393" x2="51" y2="330"/>
    <circle cx="57" cy="393" r="2"/>
    <circle cx="51" cy="330" r="2"/>
  </g>
  <g stroke="chocolate" stroke-width="1">
    <line x1="373" y1="302" x2="459" y2="148"/>
    <circle cx="373" cy="302" r="2"/>
    <circle cx="459" cy="148" r="2"/>
  </g>
  <g stroke="chocolate" stroke-width="1">
    <line x1="262" y1="375" x2="404" y2="117"/>
    <circle cx="262" cy="375" r="2"/>
    <circle cx="404" cy="117" r="2"/>
  </g>
  <g stroke="chocolate" stroke-width="1">
    <line x1="459" y1="148" x2="404" y2="117"/>
    <circle cx="459" cy="148" r="2"/>
    <circle cx="404" cy="117" r="2"/>
  </g>
  <g stroke="chocolate" stroke-width="1">
    <line x1="262" y1="375" x2="373" y2="302"/>
    <circle cx="262" cy="375" r="2"/>
    <circle cx="373" cy="302" r="2"/>
  </g>
  <g stroke="chocolate" stroke-width="1">
    <line x1="57" y1="393" x2="262" y2="375"/>
    <circle cx="57" cy="393" r="2"/>
    <circle cx="262" cy="375" r="2"/>
  </g>
  <g stroke="chocolate" stroke-width="1">
    <line x1="51" y1="330" x2="373" y2="302"/>
    <circle cx="51" cy="330" r="2"/>
    <circle cx="373" cy="302" r="2"/>
  </g>
  <g stroke="black" stroke-width="1">
    <line x1="5" y1="5" x2="505" y2="5"/>
    <line x1="5" y1="5" x2="5" y2="505"/>
    <line x1="505" y1="505" x2="5" y2="505"/>
    <line x1="505" y1="505" x2="505" y2="5"/>
    <line x1="105" y1="2" x2="105" y2="8"/>
    <line x1="2" y1="105" x2="8" y2="105"/>
    <line x1="105" y1="502" x2="105" y2="508"/>
    <line x1="502" y1="105" x2="508" y2="105"/>
    <line x1="205" y1="2" x2="205" y2="8"/>
    <line x1="2" y1="205" x2="8" y2="205"/>
    <line x1="205" y1="502" x2="205" y2="508"/>
    <line x1="502" y1="205" x2="508" y2="205"/>
    <line x1="305" y1="2" x2="305" y2="8"/>
    <line x1="2" y1="305" x2="8" y2="305"/>
    <line x1="305" y1="502" x2="305" y2="508"/>
    <line x1="502" y1="305" x2="508" y2="305"/>
    <line x1="405" y1="2" x2="405" y2="8"/>
    <line x1="2" y1="405" x2="8" y2="405"/>
    <line x1="405" y1="502" x2="405" y2="508"/>
    <line x1="502" y1="405" x2="508" y2="405"/>
  </g>
  <g stroke="gray" stroke-width="1" stroke-dasharray="5,5">
    <line x1="105" y1="5" x2="105" y2="505"/>
    <line x1="5" y1="105" x2="505" y2="105"/>
    <line x1="205" y1="5" x2="205" y2="505"/>
    <line x1="5" y1="205" x2="505" y2="205"/>
    <line x1="305" y1="5" x2="305" y2="505"/>
    <line x1="5" y1="305" x2="505" y2="305"/>
    <line x1="405" y1="5" x2="405" y2="505"/>
    <line x1="5" y1="405" x2="505" y2="405"/>
  </g>
</svg>
