<?xml version="1.0" standalone="no"?>
<!DOCTYPE svg PUBLIC "-//W3C//DTD SVG 1.1//EN" 
  "http://www.w3.org/Graphics/SVG/1.1/DTD/svg11.dtd">
<svg width="670" height="670" version="1.1" id="toplevel"
    xmlns="http://www.w3.org/2000/svg"
    xmlns:xlink="http://www.w3.org/1999/xlink">
  <polygon points="5,507 597,404 665,251 509,312 367,163 367,163" fill="bisque"/>
  <g stroke="chocolate" stroke-width="1">
    <line x1="5" y1="507" x2="597" y2="404"/>
    <circle cx="5" cy="507" r="2"/>
    <circle cx="597" cy="404" r="2"/>
  </g>
  <g stroke="chocolate" stroke-width="1">
    <line x1="5" y1="507" x2="665" y2="251"/>
    <circle cx="5" cy="507" r="2"/>
    <circle cx="665" cy="251" r="2"/>
  </g>
  <g stroke="chocolate" stroke-width="1">
    <line x1="597" y1="404" x2="665" y2="251"/>
    <circle cx="597" cy="404" r="2"/>
    <circle cx="665" cy="251" r="2"/>
  </g>
  <g stroke="chocolate" stroke-width="1">
    <line x1="367" y1="163" x2="367" y2="163"/>
    <circle cx="367" cy="163" r="2"/>
    <circle cx="367" cy="163" r="2"/>
  </g>
  <g stroke="chocolate" stroke-width="1">
    <line x1="367" y1="163" x2="367" y2="163"/>
    <circle cx="367" cy="163" r="2"/>
    <circle cx="367" cy="163" r="2"/>
  </g>
  <g stroke="chocolate" stroke-width="1">
    <line x1="5" y1="507" x2="367" y2="163"/>
    <circle cx="5" cy="507" r="2"/>
    <circle cx="367" cy="163" r="2"/>
  </g>
  <g stroke="chocolate" stroke-width="1">
    <line x1="597" y1="404" x2="367" y2="163"/>
    <circle cx="597" cy="404" r="2"/>
    <circle cx="367" cy="163" r="2"/>
  </g>
  <g stroke="chocolate" stroke-width="1">
    <line x1="367" y1="163" x2="367" y2="163"/>
    <circle cx="367" cy="163" r="2"/>
    <circle cx="367" cy="163" r="2"/>
  </g>
  <g stroke="black" stroke-width="1">
    <line x1="85" y1="85" x2="585" y2="85"/>
    <line x1="85" y1="85" x2="85" y2="585"/>
    <line x1="585" y1="585" x2="85" y2="585"/>
    <line x1="585" y1="585" x2="585" y2="85"/>
    <line x1="185" y1="82" x2="185" y2="88"/>
    <line x1="82" y1="185" x2="88" y2="185"/>
    <line x1="185" y1="582" x2="185" y2="588"/>
    <line x1="582" y1="185" x2="588" y2="185"/>
    <line x1="285" y1="82" x2="285" y2="88"/>
    <line x1="82" y1="285" x2="88" y2="285"/>
    <line x1="285" y1="582" x2="285" y2="588"/>
    <line x1="582" y1="285" x2="588" y2="285"/>
    <line x1="385" y1="82" x2="385" y2="88"/>
    <line x1="82" y1="385" x2="88" y2="385"/>
    <line x1="385" y1="582" x2="385" y2="588"/>
    <line x1="582" y1="385" x2="588" y2="385"/>
    <line x1="485" y1="82" x2="485" y2="88"/>
    <line x1="82" y1="485" x2="88" y2="485"/>
    <line x1="485" y1="582" x2="485" y2="588"/>
    <line x1="582" y1="485" x2="588" y2="485"/>
  </g>
  <g stroke="gray" stroke-width="1" stroke-dasharray="5,5">
    <line x1="185" y1="85" x2="185" y2="585"/>
    <line x1="85" y1="185" x2="585" y2="185"/>
    <line x1="285" y1="85" x2="285" y2="585"/>
    <line x1="85" y1="285" x2="585" y2="285"/>
    <line x1="385" y1="85" x2="385" y2="585"/>
    <line x1="85" y1="385" x2="585" y2="385"/>
    <line x1="485" y1="85" x2="485" y2="585"/>
    <line x1="85" y1="485" x2="585" y2="485"/>
  </g>
</svg>
