<?xml version="1.0" standalone="no"?>
<!DOCTYPE svg PUBLIC "-//W3C//DTD SVG 1.1//EN" 
  "http://www.w3.org/Graphics/SVG/1.1/DTD/svg11.dtd">
<svg width="510" height="510" version="1.1" id="toplevel"
    xmlns="http://www.w3.org/2000/svg"
    xmlns:xlink="http://www.w3.org/1999/xlink">
  <polygon points="217,351 255,332 255,276 303,262 310,220 249,173 210,193 210,249 163,263 155,305"
           fill="bisque"/>
  <polygon points="217,303 201,292 217,287" fill="bisque"/>
  <polygon points="249,238 249,222 264,233" fill="bisque"/>
  <g stroke="chocolate" stroke-width="1">
    <line x1="303" y1="262" x2="310" y2="220"/>
    <circle cx="303" cy="262" r="2"/>
    <circle cx="310" cy="220" r="2"/>
  </g>
  <g stroke="chocolate" stroke-width="1">
    <line x1="155" y1="305" x2="163" y2="263"/>
    <circle cx="155" cy="305" r="2"/>
    <circle cx="163" cy="263" r="2"/>
  </g>
  <g stroke="chocolate" stroke-width="1">
    <line x1="210" y1="250" x2="210" y2="193"/>
    <circle cx="210" cy="250" r="2"/>
    <circle cx="210" cy="193" r="2"/>
  </g>
  <g stroke="chocolate" stroke-width="1">
    <line x1="217" y1="351" x2="217" y2="255"/>
    <circle cx="217" cy="351" r="2"/>
    <circle cx="217" cy="255" r="2"/>
  </g>
  <g stroke="chocolate" stroke-width="1">
    <line x1="249" y1="250" x2="249" y2="173"/>
    <circle cx="249" cy="250" r="2"/>
    <circle cx="249" cy="173" r="2"/>
  </g>
  <g stroke="chocolate" stroke-width="1">
    <line x1="255" y1="332" x2="255" y2="255"/>
    <circle cx="255" cy="332" r="2"/>
    <circle cx="255" cy="255" r="2"/>
  </g>
  <g stroke="chocolate" stroke-width="1">
    <line x1="217" y1="351" x2="255" y2="332"/>
    <circle cx="217" cy="351" r="2"/>
    <circle cx="255" cy="332" r="2"/>
  </g>
  <g stroke="chocolate" stroke-width="1">
    <line x1="155" y1="305" x2="303" y2="262"/>
    <circle cx="155" cy="305" r="2"/>
    <circle cx="303" cy="262" r="2"/>
  </g>
  <g stroke="chocolate" stroke-width="1">
    <line x1="210" y1="193" x2="249" y2="173"/>
    <circle cx="210" cy="193" r="2"/>
    <circle cx="249" cy="173" r="2"/>
  </g>
  <g stroke="chocolate" stroke-width="1">
    <line x1="163" y1="263" x2="310" y2="220"/>
    <circle cx="163" cy="263" r="2"/>
    <circle cx="310" cy="220" r="2"/>
  </g>
  <g stroke="chocolate" stroke-width="1">
    <line x1="217" y1="351" x2="155" y2="305"/>
    <circle cx="217" cy="351" r="2"/>
    <circle cx="155" cy="305" r="2"/>
  </g>
  <g stroke="chocolate" stroke-width="1">
    <line x1="255" y1="332" x2="163" y2="263"/>
    <circle cx="255" cy="332" r="2"/>
    <circle cx="163" cy="263" r="2"/>
  </g>
  <g stroke="chocolate" stroke-width="1">
    <line x1="217" y1="255" x2="255" y2="255"/>
    <circle cx="217" cy="255" r="2"/>
    <circle cx="255" cy="255" r="2"/>
  </g>
  <g stroke="chocolate" stroke-width="1">
    <line x1="210" y1="250" x2="249" y2="250"/>
    <circle cx="210" cy="250" r="2"/>
    <circle cx="249" cy="250" r="2"/>
  </g>
  <g stroke="chocolate" stroke-width="1">
    <line x1="303" y1="262" x2="210" y2="193"/>
    <circle cx="303" cy="262" r="2"/>
    <circle cx="210" cy="193" r="2"/>
  </g>
  <g stroke="chocolate" stroke-width="1">
    <line x1="310" y1="220" x2="249" y2="173"/>
    <circle cx="310" cy="220" r="2"/>
    <circle cx="249" cy="173" r="2"/>
  </g>
  <g stroke="black" stroke-width="1">
    <line x1="5" y1="5" x2="505" y2="5"/>
    <line x1="5" y1="5" x2="5" y2="505"/>
    <line x1="505" y1="505" x2="5" y2="505"/>
    <line x1="505" y1="505" x2="505" y2="5"/>
    <line x1="105" y1="2" x2="105" y2="8"/>
    <line x1="2" y1="105" x2="8" y2="105"/>
    <line x1="105" y1="502" x2="105" y2="508"/>
    <line x1="502" y1="105" x2="508" y2="105"/>
    <line x1="205" y1="2" x2="205" y2="8"/>
    <line x1="2" y1="205" x2="8" y2="205"/>
    <line x1="205" y1="502" x2="205" y2="508"/>
    <line x1="502" y1="205" x2="508" y2="205"/>
    <line x1="305" y1="2" x2="305" y2="8"/>
    <line x1="2" y1="305" x2="8" y2="305"/>
    <line x1="305" y1="502" x2="305" y2="508"/>
    <line x1="502" y1="305" x2="508" y2="305"/>
    <line x1="405" y1="2" x2="405" y2="8"/>
    <line x1="2" y1="405" x2="8" y2="405"/>
    <line x1="405" y1="502" x2="405" y2="508"/>
    <line x1="502" y1="405" x2="508" y2="405"/>
  </g>
  <g stroke="gray" stroke-width="1" stroke-dasharray="5,5">
    <line x1="105" y1="5" x2="105" y2="505"/>
    <line x1="5" y1="105" x2="505" y2="105"/>
    <line x1="205" y1="5" x2="205" y2="505"/>
    <line x1="5" y1="205" x2="505" y2="205"/>
    <line x1="305" y1="5" x2="305" y2="505"/>
    <line x1="5" y1="305" x2="505" y2="305"/>
    <line x1="405" y1="5" x2="405" y2="505"/>
    <line x1="5" y1="405" x2="505" y2="405"/>
  </g>
</svg>
