<?xml version="1.0" standalone="no"?>
<!DOCTYPE svg PUBLIC "-//W3C//DTD SVG 1.1//EN" 
  "http://www.w3.org/Graphics/SVG/1.1/DTD/svg11.dtd">
<svg width="510" height="510" version="1.1" id="toplevel"
    xmlns="http://www.w3.org/2000/svg"
    xmlns:xlink="http://www.w3.org/1999/xlink">
  <polygon points="293,351 355,305 347,263 300,249 300,193 261,173 200,220 207,262 255,276 255,332"
           fill="bisque"/>
  <polygon points="293,303 293,287 309,292" fill="bisque"/>
  <polygon points="261,238 246,233 261,222" fill="bisque"/>
  <g stroke="chocolate" stroke-width="1">
    <line x1="293" y1="351" x2="355" y2="305"/>
    <circle cx="293" cy="351" r="2"/>
    <circle cx="355" cy="305" r="2"/>
  </g>
  <g stroke="chocolate" stroke-width="1">
    <line x1="255" y1="332" x2="347" y2="263"/>
    <circle cx="255" cy="332" r="2"/>
    <circle cx="347" cy="263" r="2"/>
  </g>
  <g stroke="chocolate" stroke-width="1">
    <line x1="255" y1="332" x2="255" y2="255"/>
    <circle cx="255" cy="332" r="2"/>
    <circle cx="255" cy="255" r="2"/>
  </g>
  <g stroke="chocolate" stroke-width="1">
    <line x1="261" y1="250" x2="261" y2="173"/>
    <circle cx="261" cy="250" r="2"/>
    <circle cx="261" cy="173" r="2"/>
  </g>
  <g stroke="chocolate" stroke-width="1">
    <line x1="293" y1="351" x2="293" y2="255"/>
    <circle cx="293" cy="351" r="2"/>
    <circle cx="293" cy="255" r="2"/>
  </g>
  <g stroke="chocolate" stroke-width="1">
    <line x1="300" y1="250" x2="300" y2="193"/>
    <circle cx="300" cy="250" r="2"/>
    <circle cx="300" cy="193" r="2"/>
  </g>
  <g stroke="chocolate" stroke-width="1">
    <line x1="207" y1="262" x2="200" y2="220"/>
    <circle cx="207" cy="262" r="2"/>
    <circle cx="200" cy="220" r="2"/>
  </g>
  <g stroke="chocolate" stroke-width="1">
    <line x1="207" y1="262" x2="300" y2="193"/>
    <circle cx="207" cy="262" r="2"/>
    <circle cx="300" cy="193" r="2"/>
  </g>
  <g stroke="chocolate" stroke-width="1">
    <line x1="355" y1="305" x2="347" y2="263"/>
    <circle cx="355" cy="305" r="2"/>
    <circle cx="347" cy="263" r="2"/>
  </g>
  <g stroke="chocolate" stroke-width="1">
    <line x1="200" y1="220" x2="261" y2="173"/>
    <circle cx="200" cy="220" r="2"/>
    <circle cx="261" cy="173" r="2"/>
  </g>
  <g stroke="chocolate" stroke-width="1">
    <line x1="293" y1="351" x2="255" y2="332"/>
    <circle cx="293" cy="351" r="2"/>
    <circle cx="255" cy="332" r="2"/>
  </g>
  <g stroke="chocolate" stroke-width="1">
    <line x1="255" y1="255" x2="293" y2="255"/>
    <circle cx="255" cy="255" r="2"/>
    <circle cx="293" cy="255" r="2"/>
  </g>
  <g stroke="chocolate" stroke-width="1">
    <line x1="261" y1="250" x2="300" y2="250"/>
    <circle cx="261" cy="250" r="2"/>
    <circle cx="300" cy="250" r="2"/>
  </g>
  <g stroke="chocolate" stroke-width="1">
    <line x1="355" y1="305" x2="207" y2="262"/>
    <circle cx="355" cy="305" r="2"/>
    <circle cx="207" cy="262" r="2"/>
  </g>
  <g stroke="chocolate" stroke-width="1">
    <line x1="347" y1="263" x2="200" y2="220"/>
    <circle cx="347" cy="263" r="2"/>
    <circle cx="200" cy="220" r="2"/>
  </g>
  <g stroke="chocolate" stroke-width="1">
    <line x1="300" y1="193" x2="261" y2="173"/>
    <circle cx="300" cy="193" r="2"/>
    <circle cx="261" cy="173" r="2"/>
  </g>
  <g stroke="black" stroke-width="1">
    <line x1="5" y1="5" x2="505" y2="5"/>
    <line x1="5" y1="5" x2="5" y2="505"/>
    <line x1="505" y1="505" x2="5" y2="505"/>
    <line x1="505" y1="505" x2="505" y2="5"/>
    <line x1="105" y1="2" x2="105" y2="8"/>
    <line x1="2" y1="105" x2="8" y2="105"/>
    <line x1="105" y1="502" x2="105" y2="508"/>
    <line x1="502" y1="105" x2="508" y2="105"/>
    <line x1="205" y1="2" x2="205" y2="8"/>
    <line x1="2" y1="205" x2="8" y2="205"/>
    <line x1="205" y1="502" x2="205" y2="508"/>
    <line x1="502" y1="205" x2="508" y2="205"/>
    <line x1="305" y1="2" x2="305" y2="8"/>
    <line x1="2" y1="305" x2="8" y2="305"/>
    <line x1="305" y1="502" x2="305" y2="508"/>
    <line x1="502" y1="305" x2="508" y2="305"/>
    <line x1="405" y1="2" x2="405" y2="8"/>
    <line x1="2" y1="405" x2="8" y2="405"/>
    <line x1="405" y1="502" x2="405" y2="508"/>
    <line x1="502" y1="405" x2="508" y2="405"/>
  </g>
  <g stroke="gray" stroke-width="1" stroke-dasharray="5,5">
    <line x1="105" y1="5" x2="105" y2="505"/>
    <line x1="5" y1="105" x2="505" y2="105"/>
    <line x1="205" y1="5" x2="205" y2="505"/>
    <line x1="5" y1="205" x2="505" y2="205"/>
    <line x1="305" y1="5" x2="305" y2="505"/>
    <line x1="5" y1="305" x2="505" y2="305"/>
    <line x1="405" y1="5" x2="405" y2="505"/>
    <line x1="5" y1="405" x2="505" y2="405"/>
  </g>
</svg>
