<?xml version="1.0" standalone="no"?>
<!DOCTYPE svg PUBLIC "-//W3C//DTD SVG 1.1//EN" 
  "http://www.w3.org/Graphics/SVG/1.1/DTD/svg11.dtd">
<svg width="510" height="510" version="1.1" id="toplevel"
    xmlns="http://www.w3.org/2000/svg"
    xmlns:xlink="http://www.w3.org/1999/xlink">
  <polygon points="205,355 247,347 261,300 317,300 337,261 290,200 248,207 234,255 178,255 159,293"
           fill="bisque"/>
  <polygon points="218,309 207,293 223,293" fill="bisque"/>
  <polygon points="272,261 277,246 288,261" fill="bisque"/>
  <g stroke="chocolate" stroke-width="1">
    <line x1="317" y1="300" x2="337" y2="261"/>
    <circle cx="317" cy="300" r="2"/>
    <circle cx="337" cy="261" r="2"/>
  </g>
  <g stroke="chocolate" stroke-width="1">
    <line x1="247" y1="347" x2="290" y2="200"/>
    <circle cx="247" cy="347" r="2"/>
    <circle cx="290" cy="200" r="2"/>
  </g>
  <g stroke="chocolate" stroke-width="1">
    <line x1="205" y1="355" x2="248" y2="207"/>
    <circle cx="205" cy="355" r="2"/>
    <circle cx="248" cy="207" r="2"/>
  </g>
  <g stroke="chocolate" stroke-width="1">
    <line x1="159" y1="293" x2="178" y2="255"/>
    <circle cx="159" cy="293" r="2"/>
    <circle cx="178" cy="255" r="2"/>
  </g>
  <g stroke="chocolate" stroke-width="1">
    <line x1="255" y1="293" x2="255" y2="255"/>
    <circle cx="255" cy="293" r="2"/>
    <circle cx="255" cy="255" r="2"/>
  </g>
  <g stroke="chocolate" stroke-width="1">
    <line x1="260" y1="300" x2="260" y2="261"/>
    <circle cx="260" cy="300" r="2"/>
    <circle cx="260" cy="261" r="2"/>
  </g>
  <g stroke="chocolate" stroke-width="1">
    <line x1="205" y1="355" x2="247" y2="347"/>
    <circle cx="205" cy="355" r="2"/>
    <circle cx="247" cy="347" r="2"/>
  </g>
  <g stroke="chocolate" stroke-width="1">
    <line x1="205" y1="355" x2="159" y2="293"/>
    <circle cx="205" cy="355" r="2"/>
    <circle cx="159" cy="293" r="2"/>
  </g>
  <g stroke="chocolate" stroke-width="1">
    <line x1="247" y1="347" x2="178" y2="255"/>
    <circle cx="247" cy="347" r="2"/>
    <circle cx="178" cy="255" r="2"/>
  </g>
  <g stroke="chocolate" stroke-width="1">
    <line x1="260" y1="300" x2="317" y2="300"/>
    <circle cx="260" cy="300" r="2"/>
    <circle cx="317" cy="300" r="2"/>
  </g>
  <g stroke="chocolate" stroke-width="1">
    <line x1="159" y1="293" x2="255" y2="293"/>
    <circle cx="159" cy="293" r="2"/>
    <circle cx="255" cy="293" r="2"/>
  </g>
  <g stroke="chocolate" stroke-width="1">
    <line x1="317" y1="300" x2="248" y2="207"/>
    <circle cx="317" cy="300" r="2"/>
    <circle cx="248" cy="207" r="2"/>
  </g>
  <g stroke="chocolate" stroke-width="1">
    <line x1="260" y1="261" x2="337" y2="261"/>
    <circle cx="260" cy="261" r="2"/>
    <circle cx="337" cy="261" r="2"/>
  </g>
  <g stroke="chocolate" stroke-width="1">
    <line x1="248" y1="207" x2="290" y2="200"/>
    <circle cx="248" cy="207" r="2"/>
    <circle cx="290" cy="200" r="2"/>
  </g>
  <g stroke="chocolate" stroke-width="1">
    <line x1="337" y1="261" x2="290" y2="200"/>
    <circle cx="337" cy="261" r="2"/>
    <circle cx="290" cy="200" r="2"/>
  </g>
  <g stroke="chocolate" stroke-width="1">
    <line x1="178" y1="255" x2="255" y2="255"/>
    <circle cx="178" cy="255" r="2"/>
    <circle cx="255" cy="255" r="2"/>
  </g>
  <g stroke="black" stroke-width="1">
    <line x1="5" y1="5" x2="505" y2="5"/>
    <line x1="5" y1="5" x2="5" y2="505"/>
    <line x1="505" y1="505" x2="5" y2="505"/>
    <line x1="505" y1="505" x2="505" y2="5"/>
    <line x1="105" y1="2" x2="105" y2="8"/>
    <line x1="2" y1="105" x2="8" y2="105"/>
    <line x1="105" y1="502" x2="105" y2="508"/>
    <line x1="502" y1="105" x2="508" y2="105"/>
    <line x1="205" y1="2" x2="205" y2="8"/>
    <line x1="2" y1="205" x2="8" y2="205"/>
    <line x1="205" y1="502" x2="205" y2="508"/>
    <line x1="502" y1="205" x2="508" y2="205"/>
    <line x1="305" y1="2" x2="305" y2="8"/>
    <line x1="2" y1="305" x2="8" y2="305"/>
    <line x1="305" y1="502" x2="305" y2="508"/>
    <line x1="502" y1="305" x2="508" y2="305"/>
    <line x1="405" y1="2" x2="405" y2="8"/>
    <line x1="2" y1="405" x2="8" y2="405"/>
    <line x1="405" y1="502" x2="405" y2="508"/>
    <line x1="502" y1="405" x2="508" y2="405"/>
  </g>
  <g stroke="gray" stroke-width="1" stroke-dasharray="5,5">
    <line x1="105" y1="5" x2="105" y2="505"/>
    <line x1="5" y1="105" x2="505" y2="105"/>
    <line x1="205" y1="5" x2="205" y2="505"/>
    <line x1="5" y1="205" x2="505" y2="205"/>
    <line x1="305" y1="5" x2="305" y2="505"/>
    <line x1="5" y1="305" x2="505" y2="305"/>
    <line x1="405" y1="5" x2="405" y2="505"/>
    <line x1="5" y1="405" x2="505" y2="405"/>
  </g>
</svg>
