<?xml version="1.0" standalone="no"?>
<!DOCTYPE svg PUBLIC "-//W3C//DTD SVG 1.1//EN" 
  "http://www.w3.org/Graphics/SVG/1.1/DTD/svg11.dtd">
<svg width="644" height="644" version="1.1" id="toplevel"
    xmlns="http://www.w3.org/2000/svg"
    xmlns:xlink="http://www.w3.org/1999/xlink">
  <polygon points="576,462 639,319 563,182 5,210" fill="bisque"/>
  <g stroke="chocolate" stroke-width="1">
    <line x1="576" y1="462" x2="639" y2="319"/>
    <circle cx="576" cy="462" r="2"/>
    <circle cx="639" cy="319" r="2"/>
  </g>
  <g stroke="chocolate" stroke-width="1">
    <line x1="462" y1="411" x2="563" y2="182"/>
    <circle cx="462" cy="411" r="2"/>
    <circle cx="563" cy="182" r="2"/>
  </g>
  <g stroke="chocolate" stroke-width="1">
    <line x1="576" y1="462" x2="5" y2="210"/>
    <circle cx="576" cy="462" r="2"/>
    <circle cx="5" cy="210" r="2"/>
  </g>
  <g stroke="chocolate" stroke-width="1">
    <line x1="576" y1="462" x2="529" y2="259"/>
    <circle cx="576" cy="462" r="2"/>
    <circle cx="529" cy="259" r="2"/>
  </g>
  <g stroke="chocolate" stroke-width="1">
    <line x1="548" y1="340" x2="639" y2="319"/>
    <circle cx="548" cy="340" r="2"/>
    <circle cx="639" cy="319" r="2"/>
  </g>
  <g stroke="chocolate" stroke-width="1">
    <line x1="639" y1="319" x2="563" y2="182"/>
    <circle cx="639" cy="319" r="2"/>
    <circle cx="563" cy="182" r="2"/>
  </g>
  <g stroke="chocolate" stroke-width="1">
    <line x1="529" y1="259" x2="5" y2="210"/>
    <circle cx="529" cy="259" r="2"/>
    <circle cx="5" cy="210" r="2"/>
  </g>
  <g stroke="chocolate" stroke-width="1">
    <line x1="5" y1="210" x2="563" y2="182"/>
    <circle cx="5" cy="210" r="2"/>
    <circle cx="563" cy="182" r="2"/>
  </g>
  <g stroke="black" stroke-width="1">
    <line x1="72" y1="72" x2="572" y2="72"/>
    <line x1="72" y1="72" x2="72" y2="572"/>
    <line x1="572" y1="572" x2="72" y2="572"/>
    <line x1="572" y1="572" x2="572" y2="72"/>
    <line x1="172" y1="69" x2="172" y2="75"/>
    <line x1="69" y1="172" x2="75" y2="172"/>
    <line x1="172" y1="569" x2="172" y2="575"/>
    <line x1="569" y1="172" x2="575" y2="172"/>
    <line x1="272" y1="69" x2="272" y2="75"/>
    <line x1="69" y1="272" x2="75" y2="272"/>
    <line x1="272" y1="569" x2="272" y2="575"/>
    <line x1="569" y1="272" x2="575" y2="272"/>
    <line x1="372" y1="69" x2="372" y2="75"/>
    <line x1="69" y1="372" x2="75" y2="372"/>
    <line x1="372" y1="569" x2="372" y2="575"/>
    <line x1="569" y1="372" x2="575" y2="372"/>
    <line x1="472" y1="69" x2="472" y2="75"/>
    <line x1="69" y1="472" x2="75" y2="472"/>
    <line x1="472" y1="569" x2="472" y2="575"/>
    <line x1="569" y1="472" x2="575" y2="472"/>
  </g>
  <g stroke="gray" stroke-width="1" stroke-dasharray="5,5">
    <line x1="172" y1="72" x2="172" y2="572"/>
    <line x1="72" y1="172" x2="572" y2="172"/>
    <line x1="272" y1="72" x2="272" y2="572"/>
    <line x1="72" y1="272" x2="572" y2="272"/>
    <line x1="372" y1="72" x2="372" y2="572"/>
    <line x1="72" y1="372" x2="572" y2="372"/>
    <line x1="472" y1="72" x2="472" y2="572"/>
    <line x1="72" y1="472" x2="572" y2="472"/>
  </g>
</svg>
