<?xml version="1.0" standalone="no"?>
<!DOCTYPE svg PUBLIC "-//W3C//DTD SVG 1.1//EN" 
  "http://www.w3.org/Graphics/SVG/1.1/DTD/svg11.dtd">
<svg width="556" height="556" version="1.1" id="toplevel"
    xmlns="http://www.w3.org/2000/svg"
    xmlns:xlink="http://www.w3.org/1999/xlink">
  <polygon points="59,550 551,458 480,6 70,70 5,205 55,521 53,522" fill="bisque"/>
  <g stroke="chocolate" stroke-width="1">
    <line x1="59" y1="550" x2="551" y2="458"/>
    <circle cx="59" cy="550" r="2"/>
    <circle cx="551" cy="458" r="2"/>
  </g>
  <g stroke="chocolate" stroke-width="1">
    <line x1="53" y1="522" x2="542" y2="416"/>
    <circle cx="53" cy="522" r="2"/>
    <circle cx="542" cy="416" r="2"/>
  </g>
  <g stroke="chocolate" stroke-width="1">
    <line x1="5" y1="205" x2="112" y2="144"/>
    <circle cx="5" cy="205" r="2"/>
    <circle cx="112" cy="144" r="2"/>
  </g>
  <g stroke="chocolate" stroke-width="1">
    <line x1="5" y1="205" x2="70" y2="70"/>
    <circle cx="5" cy="205" r="2"/>
    <circle cx="70" cy="70" r="2"/>
  </g>
  <g stroke="chocolate" stroke-width="1">
    <line x1="70" y1="70" x2="480" y2="6"/>
    <circle cx="70" cy="70" r="2"/>
    <circle cx="480" cy="6" r="2"/>
  </g>
  <g stroke="chocolate" stroke-width="1">
    <line x1="59" y1="550" x2="5" y2="205"/>
    <circle cx="59" cy="550" r="2"/>
    <circle cx="5" cy="205" r="2"/>
  </g>
  <g stroke="chocolate" stroke-width="1">
    <line x1="59" y1="550" x2="53" y2="522"/>
    <circle cx="59" cy="550" r="2"/>
    <circle cx="53" cy="522" r="2"/>
  </g>
  <g stroke="chocolate" stroke-width="1">
    <line x1="551" y1="458" x2="480" y2="6"/>
    <circle cx="551" cy="458" r="2"/>
    <circle cx="480" cy="6" r="2"/>
  </g>
  <g stroke="chocolate" stroke-width="1">
    <line x1="551" y1="458" x2="542" y2="416"/>
    <circle cx="551" cy="458" r="2"/>
    <circle cx="542" cy="416" r="2"/>
  </g>
  <g stroke="chocolate" stroke-width="1">
    <line x1="112" y1="144" x2="70" y2="70"/>
    <circle cx="112" cy="144" r="2"/>
    <circle cx="70" cy="70" r="2"/>
  </g>
  <g stroke="black" stroke-width="1">
    <line x1="28" y1="28" x2="528" y2="28"/>
    <line x1="28" y1="28" x2="28" y2="528"/>
    <line x1="528" y1="528" x2="28" y2="528"/>
    <line x1="528" y1="528" x2="528" y2="28"/>
    <line x1="128" y1="25" x2="128" y2="31"/>
    <line x1="25" y1="128" x2="31" y2="128"/>
    <line x1="128" y1="525" x2="128" y2="531"/>
    <line x1="525" y1="128" x2="531" y2="128"/>
    <line x1="228" y1="25" x2="228" y2="31"/>
    <line x1="25" y1="228" x2="31" y2="228"/>
    <line x1="228" y1="525" x2="228" y2="531"/>
    <line x1="525" y1="228" x2="531" y2="228"/>
    <line x1="328" y1="25" x2="328" y2="31"/>
    <line x1="25" y1="328" x2="31" y2="328"/>
    <line x1="328" y1="525" x2="328" y2="531"/>
    <line x1="525" y1="328" x2="531" y2="328"/>
    <line x1="428" y1="25" x2="428" y2="31"/>
    <line x1="25" y1="428" x2="31" y2="428"/>
    <line x1="428" y1="525" x2="428" y2="531"/>
    <line x1="525" y1="428" x2="531" y2="428"/>
  </g>
  <g stroke="gray" stroke-width="1" stroke-dasharray="5,5">
    <line x1="128" y1="28" x2="128" y2="528"/>
    <line x1="28" y1="128" x2="528" y2="128"/>
    <line x1="228" y1="28" x2="228" y2="528"/>
    <line x1="28" y1="228" x2="528" y2="228"/>
    <line x1="328" y1="28" x2="328" y2="528"/>
    <line x1="28" y1="328" x2="528" y2="328"/>
    <line x1="428" y1="28" x2="428" y2="528"/>
    <line x1="28" y1="428" x2="528" y2="428"/>
  </g>
</svg>
