<?xml version="1.0" standalone="no"?>
<!DOCTYPE svg PUBLIC "-//W3C//DTD SVG 1.1//EN" 
  "http://www.w3.org/Graphics/SVG/1.1/DTD/svg11.dtd">
<svg width="510" height="510" version="1.1" id="toplevel"
    xmlns="http://www.w3.org/2000/svg"
    xmlns:xlink="http://www.w3.org/1999/xlink">
  <polygon points="318,430 418,355 442,180 368,80 268,155 192,55 92,130 68,305 142,405 242,330"
           fill="bisque"/>
  <g stroke="chocolate" stroke-width="1">
    <line x1="418" y1="355" x2="442" y2="180"/>
    <circle cx="418" cy="355" r="2"/>
    <circle cx="442" cy="180" r="2"/>
  </g>
  <g stroke="chocolate" stroke-width="1">
    <line x1="318" y1="430" x2="418" y2="355"/>
    <circle cx="318" cy="430" r="2"/>
    <circle cx="418" cy="355" r="2"/>
  </g>
  <g stroke="chocolate" stroke-width="1">
    <line x1="142" y1="405" x2="68" y2="305"/>
    <circle cx="142" cy="405" r="2"/>
    <circle cx="68" cy="305" r="2"/>
  </g>
  <g stroke="chocolate" stroke-width="1">
    <line x1="68" y1="305" x2="92" y2="130"/>
    <circle cx="68" cy="305" r="2"/>
    <circle cx="92" cy="130" r="2"/>
  </g>
  <g stroke="chocolate" stroke-width="1">
    <line x1="318" y1="430" x2="92" y2="130"/>
    <circle cx="318" cy="430" r="2"/>
    <circle cx="92" cy="130" r="2"/>
  </g>
  <g stroke="chocolate" stroke-width="1">
    <line x1="142" y1="405" x2="442" y2="180"/>
    <circle cx="142" cy="405" r="2"/>
    <circle cx="442" cy="180" r="2"/>
  </g>
  <g stroke="chocolate" stroke-width="1">
    <line x1="418" y1="355" x2="192" y2="55"/>
    <circle cx="418" cy="355" r="2"/>
    <circle cx="192" cy="55" r="2"/>
  </g>
  <g stroke="chocolate" stroke-width="1">
    <line x1="418" y1="355" x2="68" y2="305"/>
    <circle cx="418" cy="355" r="2"/>
    <circle cx="68" cy="305" r="2"/>
  </g>
  <g stroke="chocolate" stroke-width="1">
    <line x1="68" y1="305" x2="368" y2="80"/>
    <circle cx="68" cy="305" r="2"/>
    <circle cx="368" cy="80" r="2"/>
  </g>
  <g stroke="chocolate" stroke-width="1">
    <line x1="442" y1="180" x2="368" y2="80"/>
    <circle cx="442" cy="180" r="2"/>
    <circle cx="368" cy="80" r="2"/>
  </g>
  <g stroke="chocolate" stroke-width="1">
    <line x1="92" y1="130" x2="192" y2="55"/>
    <circle cx="92" cy="130" r="2"/>
    <circle cx="192" cy="55" r="2"/>
  </g>
  <g stroke="black" stroke-width="1">
    <line x1="5" y1="5" x2="505" y2="5"/>
    <line x1="5" y1="5" x2="5" y2="505"/>
    <line x1="505" y1="505" x2="5" y2="505"/>
    <line x1="505" y1="505" x2="505" y2="5"/>
    <line x1="105" y1="2" x2="105" y2="8"/>
    <line x1="2" y1="105" x2="8" y2="105"/>
    <line x1="105" y1="502" x2="105" y2="508"/>
    <line x1="502" y1="105" x2="508" y2="105"/>
    <line x1="205" y1="2" x2="205" y2="8"/>
    <line x1="2" y1="205" x2="8" y2="205"/>
    <line x1="205" y1="502" x2="205" y2="508"/>
    <line x1="502" y1="205" x2="508" y2="205"/>
    <line x1="305" y1="2" x2="305" y2="8"/>
    <line x1="2" y1="305" x2="8" y2="305"/>
    <line x1="305" y1="502" x2="305" y2="508"/>
    <line x1="502" y1="305" x2="508" y2="305"/>
    <line x1="405" y1="2" x2="405" y2="8"/>
    <line x1="2" y1="405" x2="8" y2="405"/>
    <line x1="405" y1="502" x2="405" y2="508"/>
    <line x1="502" y1="405" x2="508" y2="405"/>
  </g>
  <g stroke="gray" stroke-width="1" stroke-dasharray="5,5">
    <line x1="105" y1="5" x2="105" y2="505"/>
    <line x1="5" y1="105" x2="505" y2="105"/>
    <line x1="205" y1="5" x2="205" y2="505"/>
    <line x1="5" y1="205" x2="505" y2="205"/>
    <line x1="305" y1="5" x2="305" y2="505"/>
    <line x1="5" y1="305" x2="505" y2="305"/>
    <line x1="405" y1="5" x2="405" y2="505"/>
    <line x1="5" y1="405" x2="505" y2="405"/>
  </g>
</svg>
