<?xml version="1.0" standalone="no"?>
<!DOCTYPE svg PUBLIC "-//W3C//DTD SVG 1.1//EN" 
  "http://www.w3.org/Graphics/SVG/1.1/DTD/svg11.dtd">
<svg width="510" height="510" version="1.1" id="toplevel"
    xmlns="http://www.w3.org/2000/svg"
    xmlns:xlink="http://www.w3.org/1999/xlink">
  <polygon points="144,449 172,449 255,366 255,227 172,227 172,255 144,255 61,338 61,366"
           fill="bisque"/>
  <polygon points="144,366 144,338 172,338 172,366" fill="bisque"/>
  <g stroke="chocolate" stroke-width="1">
    <line x1="172" y1="449" x2="255" y2="366"/>
    <circle cx="172" cy="449" r="2"/>
    <circle cx="255" cy="366" r="2"/>
  </g>
  <g stroke="chocolate" stroke-width="1">
    <line x1="61" y1="366" x2="61" y2="338"/>
    <circle cx="61" cy="366" r="2"/>
    <circle cx="61" cy="338" r="2"/>
  </g>
  <g stroke="chocolate" stroke-width="1">
    <line x1="144" y1="449" x2="144" y2="255"/>
    <circle cx="144" cy="449" r="2"/>
    <circle cx="144" cy="255" r="2"/>
  </g>
  <g stroke="chocolate" stroke-width="1">
    <line x1="172" y1="449" x2="172" y2="227"/>
    <circle cx="172" cy="449" r="2"/>
    <circle cx="172" cy="227" r="2"/>
  </g>
  <g stroke="chocolate" stroke-width="1">
    <line x1="199" y1="338" x2="199" y2="255"/>
    <circle cx="199" cy="338" r="2"/>
    <circle cx="199" cy="255" r="2"/>
  </g>
  <g stroke="chocolate" stroke-width="1">
    <line x1="255" y1="366" x2="255" y2="227"/>
    <circle cx="255" cy="366" r="2"/>
    <circle cx="255" cy="227" r="2"/>
  </g>
  <g stroke="chocolate" stroke-width="1">
    <line x1="61" y1="338" x2="144" y2="255"/>
    <circle cx="61" cy="338" r="2"/>
    <circle cx="144" cy="255" r="2"/>
  </g>
  <g stroke="chocolate" stroke-width="1">
    <line x1="144" y1="449" x2="172" y2="449"/>
    <circle cx="144" cy="449" r="2"/>
    <circle cx="172" cy="449" r="2"/>
  </g>
  <g stroke="chocolate" stroke-width="1">
    <line x1="144" y1="449" x2="61" y2="366"/>
    <circle cx="144" cy="449" r="2"/>
    <circle cx="61" cy="366" r="2"/>
  </g>
  <g stroke="chocolate" stroke-width="1">
    <line x1="61" y1="366" x2="255" y2="366"/>
    <circle cx="61" cy="366" r="2"/>
    <circle cx="255" cy="366" r="2"/>
  </g>
  <g stroke="chocolate" stroke-width="1">
    <line x1="61" y1="338" x2="199" y2="338"/>
    <circle cx="61" cy="338" r="2"/>
    <circle cx="199" cy="338" r="2"/>
  </g>
  <g stroke="chocolate" stroke-width="1">
    <line x1="144" y1="255" x2="199" y2="255"/>
    <circle cx="144" cy="255" r="2"/>
    <circle cx="199" cy="255" r="2"/>
  </g>
  <g stroke="chocolate" stroke-width="1">
    <line x1="172" y1="227" x2="255" y2="227"/>
    <circle cx="172" cy="227" r="2"/>
    <circle cx="255" cy="227" r="2"/>
  </g>
  <g stroke="black" stroke-width="1">
    <line x1="5" y1="5" x2="505" y2="5"/>
    <line x1="5" y1="5" x2="5" y2="505"/>
    <line x1="505" y1="505" x2="5" y2="505"/>
    <line x1="505" y1="505" x2="505" y2="5"/>
    <line x1="105" y1="2" x2="105" y2="8"/>
    <line x1="2" y1="105" x2="8" y2="105"/>
    <line x1="105" y1="502" x2="105" y2="508"/>
    <line x1="502" y1="105" x2="508" y2="105"/>
    <line x1="205" y1="2" x2="205" y2="8"/>
    <line x1="2" y1="205" x2="8" y2="205"/>
    <line x1="205" y1="502" x2="205" y2="508"/>
    <line x1="502" y1="205" x2="508" y2="205"/>
    <line x1="305" y1="2" x2="305" y2="8"/>
    <line x1="2" y1="305" x2="8" y2="305"/>
    <line x1="305" y1="502" x2="305" y2="508"/>
    <line x1="502" y1="305" x2="508" y2="305"/>
    <line x1="405" y1="2" x2="405" y2="8"/>
    <line x1="2" y1="405" x2="8" y2="405"/>
    <line x1="405" y1="502" x2="405" y2="508"/>
    <line x1="502" y1="405" x2="508" y2="405"/>
  </g>
  <g stroke="gray" stroke-width="1" stroke-dasharray="5,5">
    <line x1="105" y1="5" x2="105" y2="505"/>
    <line x1="5" y1="105" x2="505" y2="105"/>
    <line x1="205" y1="5" x2="205" y2="505"/>
    <line x1="5" y1="205" x2="505" y2="205"/>
    <line x1="305" y1="5" x2="305" y2="505"/>
    <line x1="5" y1="305" x2="505" y2="305"/>
    <line x1="405" y1="5" x2="405" y2="505"/>
    <line x1="5" y1="405" x2="505" y2="405"/>
  </g>
</svg>
