<?xml version="1.0" standalone="no"?>
<!DOCTYPE svg PUBLIC "-//W3C//DTD SVG 1.1//EN" 
  "http://www.w3.org/Graphics/SVG/1.1/DTD/svg11.dtd">
<svg width="510" height="510" version="1.1" id="toplevel"
    xmlns="http://www.w3.org/2000/svg"
    xmlns:xlink="http://www.w3.org/1999/xlink">
  <polygon points="428,454 440,351 453,323 186,82 104,73 92,56 57,68 92,390 245,357 262,435"
           fill="bisque"/>
  <g stroke="chocolate" stroke-width="1">
    <line x1="262" y1="435" x2="453" y2="323"/>
    <circle cx="262" cy="435" r="2"/>
    <circle cx="453" cy="323" r="2"/>
  </g>
  <g stroke="chocolate" stroke-width="1">
    <line x1="406" y1="424" x2="453" y2="323"/>
    <circle cx="406" cy="424" r="2"/>
    <circle cx="453" cy="323" r="2"/>
  </g>
  <g stroke="chocolate" stroke-width="1">
    <line x1="79" y1="273" x2="191" y2="189"/>
    <circle cx="79" cy="273" r="2"/>
    <circle cx="191" cy="189" r="2"/>
  </g>
  <g stroke="chocolate" stroke-width="1">
    <line x1="92" y1="390" x2="444" y2="315"/>
    <circle cx="92" cy="390" r="2"/>
    <circle cx="444" cy="315" r="2"/>
  </g>
  <g stroke="chocolate" stroke-width="1">
    <line x1="428" y1="454" x2="444" y2="315"/>
    <circle cx="428" cy="454" r="2"/>
    <circle cx="444" cy="315" r="2"/>
  </g>
  <g stroke="chocolate" stroke-width="1">
    <line x1="92" y1="390" x2="92" y2="56"/>
    <circle cx="92" cy="390" r="2"/>
    <circle cx="92" cy="56" r="2"/>
  </g>
  <g stroke="chocolate" stroke-width="1">
    <line x1="428" y1="454" x2="262" y2="435"/>
    <circle cx="428" cy="454" r="2"/>
    <circle cx="262" cy="435" r="2"/>
  </g>
  <g stroke="chocolate" stroke-width="1">
    <line x1="92" y1="390" x2="57" y2="68"/>
    <circle cx="92" cy="390" r="2"/>
    <circle cx="57" cy="68" r="2"/>
  </g>
  <g stroke="chocolate" stroke-width="1">
    <line x1="262" y1="435" x2="186" y2="82"/>
    <circle cx="262" cy="435" r="2"/>
    <circle cx="186" cy="82" r="2"/>
  </g>
  <g stroke="chocolate" stroke-width="1">
    <line x1="57" y1="68" x2="92" y2="56"/>
    <circle cx="57" cy="68" r="2"/>
    <circle cx="92" cy="56" r="2"/>
  </g>
  <g stroke="chocolate" stroke-width="1">
    <line x1="406" y1="424" x2="79" y2="273"/>
    <circle cx="406" cy="424" r="2"/>
    <circle cx="79" cy="273" r="2"/>
  </g>
  <g stroke="chocolate" stroke-width="1">
    <line x1="191" y1="189" x2="92" y2="56"/>
    <circle cx="191" cy="189" r="2"/>
    <circle cx="92" cy="56" r="2"/>
  </g>
  <g stroke="chocolate" stroke-width="1">
    <line x1="186" y1="82" x2="57" y2="68"/>
    <circle cx="186" cy="82" r="2"/>
    <circle cx="57" cy="68" r="2"/>
  </g>
  <g stroke="chocolate" stroke-width="1">
    <line x1="453" y1="323" x2="186" y2="82"/>
    <circle cx="453" cy="323" r="2"/>
    <circle cx="186" cy="82" r="2"/>
  </g>
  <g stroke="black" stroke-width="1">
    <line x1="5" y1="5" x2="505" y2="5"/>
    <line x1="5" y1="5" x2="5" y2="505"/>
    <line x1="505" y1="505" x2="5" y2="505"/>
    <line x1="505" y1="505" x2="505" y2="5"/>
    <line x1="105" y1="2" x2="105" y2="8"/>
    <line x1="2" y1="105" x2="8" y2="105"/>
    <line x1="105" y1="502" x2="105" y2="508"/>
    <line x1="502" y1="105" x2="508" y2="105"/>
    <line x1="205" y1="2" x2="205" y2="8"/>
    <line x1="2" y1="205" x2="8" y2="205"/>
    <line x1="205" y1="502" x2="205" y2="508"/>
    <line x1="502" y1="205" x2="508" y2="205"/>
    <line x1="305" y1="2" x2="305" y2="8"/>
    <line x1="2" y1="305" x2="8" y2="305"/>
    <line x1="305" y1="502" x2="305" y2="508"/>
    <line x1="502" y1="305" x2="508" y2="305"/>
    <line x1="405" y1="2" x2="405" y2="8"/>
    <line x1="2" y1="405" x2="8" y2="405"/>
    <line x1="405" y1="502" x2="405" y2="508"/>
    <line x1="502" y1="405" x2="508" y2="405"/>
  </g>
  <g stroke="gray" stroke-width="1" stroke-dasharray="5,5">
    <line x1="105" y1="5" x2="105" y2="505"/>
    <line x1="5" y1="105" x2="505" y2="105"/>
    <line x1="205" y1="5" x2="205" y2="505"/>
    <line x1="5" y1="205" x2="505" y2="205"/>
    <line x1="305" y1="5" x2="305" y2="505"/>
    <line x1="5" y1="305" x2="505" y2="305"/>
    <line x1="405" y1="5" x2="405" y2="505"/>
    <line x1="5" y1="405" x2="505" y2="405"/>
  </g>
</svg>
