<?xml version="1.0" standalone="no"?>
<!DOCTYPE svg PUBLIC "-//W3C//DTD SVG 1.1//EN" 
  "http://www.w3.org/Graphics/SVG/1.1/DTD/svg11.dtd">
<svg width="536" height="536" version="1.1" id="toplevel"
    xmlns="http://www.w3.org/2000/svg"
    xmlns:xlink="http://www.w3.org/1999/xlink">
  <polygon points="313,454 531,364 377,300 287,82 223,236 5,326 159,390 268,345"
           fill="bisque"/>
  <g stroke="chocolate" stroke-width="1">
    <line x1="313" y1="454" x2="531" y2="364"/>
    <circle cx="313" cy="454" r="2"/>
    <circle cx="531" cy="364" r="2"/>
  </g>
  <g stroke="chocolate" stroke-width="1">
    <line x1="313" y1="454" x2="377" y2="300"/>
    <circle cx="313" cy="454" r="2"/>
    <circle cx="377" cy="300" r="2"/>
  </g>
  <g stroke="chocolate" stroke-width="1">
    <line x1="159" y1="390" x2="377" y2="300"/>
    <circle cx="159" cy="390" r="2"/>
    <circle cx="377" cy="300" r="2"/>
  </g>
  <g stroke="chocolate" stroke-width="1">
    <line x1="159" y1="390" x2="287" y2="82"/>
    <circle cx="159" cy="390" r="2"/>
    <circle cx="287" cy="82" r="2"/>
  </g>
  <g stroke="chocolate" stroke-width="1">
    <line x1="5" y1="326" x2="223" y2="236"/>
    <circle cx="5" cy="326" r="2"/>
    <circle cx="223" cy="236" r="2"/>
  </g>
  <g stroke="chocolate" stroke-width="1">
    <line x1="159" y1="390" x2="5" y2="326"/>
    <circle cx="159" cy="390" r="2"/>
    <circle cx="5" cy="326" r="2"/>
  </g>
  <g stroke="chocolate" stroke-width="1">
    <line x1="313" y1="454" x2="223" y2="236"/>
    <circle cx="313" cy="454" r="2"/>
    <circle cx="223" cy="236" r="2"/>
  </g>
  <g stroke="chocolate" stroke-width="1">
    <line x1="377" y1="300" x2="287" y2="82"/>
    <circle cx="377" cy="300" r="2"/>
    <circle cx="287" cy="82" r="2"/>
  </g>
  <g stroke="chocolate" stroke-width="1">
    <line x1="531" y1="364" x2="223" y2="236"/>
    <circle cx="531" cy="364" r="2"/>
    <circle cx="223" cy="236" r="2"/>
  </g>
  <g stroke="black" stroke-width="1">
    <line x1="18" y1="18" x2="518" y2="18"/>
    <line x1="18" y1="18" x2="18" y2="518"/>
    <line x1="518" y1="518" x2="18" y2="518"/>
    <line x1="518" y1="518" x2="518" y2="18"/>
    <line x1="118" y1="15" x2="118" y2="21"/>
    <line x1="15" y1="118" x2="21" y2="118"/>
    <line x1="118" y1="515" x2="118" y2="521"/>
    <line x1="515" y1="118" x2="521" y2="118"/>
    <line x1="218" y1="15" x2="218" y2="21"/>
    <line x1="15" y1="218" x2="21" y2="218"/>
    <line x1="218" y1="515" x2="218" y2="521"/>
    <line x1="515" y1="218" x2="521" y2="218"/>
    <line x1="318" y1="15" x2="318" y2="21"/>
    <line x1="15" y1="318" x2="21" y2="318"/>
    <line x1="318" y1="515" x2="318" y2="521"/>
    <line x1="515" y1="318" x2="521" y2="318"/>
    <line x1="418" y1="15" x2="418" y2="21"/>
    <line x1="15" y1="418" x2="21" y2="418"/>
    <line x1="418" y1="515" x2="418" y2="521"/>
    <line x1="515" y1="418" x2="521" y2="418"/>
  </g>
  <g stroke="gray" stroke-width="1" stroke-dasharray="5,5">
    <line x1="118" y1="18" x2="118" y2="518"/>
    <line x1="18" y1="118" x2="518" y2="118"/>
    <line x1="218" y1="18" x2="218" y2="518"/>
    <line x1="18" y1="218" x2="518" y2="218"/>
    <line x1="318" y1="18" x2="318" y2="518"/>
    <line x1="18" y1="318" x2="518" y2="318"/>
    <line x1="418" y1="18" x2="418" y2="518"/>
    <line x1="18" y1="418" x2="518" y2="418"/>
  </g>
</svg>
