<?xml version="1.0" standalone="no"?>
<!DOCTYPE svg PUBLIC "-//W3C//DTD SVG 1.1//EN" 
  "http://www.w3.org/Graphics/SVG/1.1/DTD/svg11.dtd">
<svg width="510" height="510" version="1.1" id="toplevel"
    xmlns="http://www.w3.org/2000/svg"
    xmlns:xlink="http://www.w3.org/1999/xlink">
  <polygon points="53,480 121,454 430,151 426,145 485,91 481,80 467,84 334,30 25,445 49,474 48,474 49,475"
           fill="bisque"/>
  <g stroke="chocolate" stroke-width="1">
    <line x1="121" y1="454" x2="430" y2="151"/>
    <circle cx="121" cy="454" r="2"/>
    <circle cx="430" cy="151" r="2"/>
  </g>
  <g stroke="chocolate" stroke-width="1">
    <line x1="53" y1="480" x2="121" y2="454"/>
    <circle cx="53" cy="480" r="2"/>
    <circle cx="121" cy="454" r="2"/>
  </g>
  <g stroke="chocolate" stroke-width="1">
    <line x1="103" y1="461" x2="111" y2="453"/>
    <circle cx="103" cy="461" r="2"/>
    <circle cx="111" cy="453" r="2"/>
  </g>
  <g stroke="chocolate" stroke-width="1">
    <line x1="59" y1="478" x2="48" y2="474"/>
    <circle cx="59" cy="478" r="2"/>
    <circle cx="48" cy="474" r="2"/>
  </g>
  <g stroke="chocolate" stroke-width="1">
    <line x1="80" y1="467" x2="485" y2="91"/>
    <circle cx="80" cy="467" r="2"/>
    <circle cx="485" cy="91" r="2"/>
  </g>
  <g stroke="chocolate" stroke-width="1">
    <line x1="103" y1="461" x2="60" y2="460"/>
    <circle cx="103" cy="461" r="2"/>
    <circle cx="60" cy="460" r="2"/>
  </g>
  <g stroke="chocolate" stroke-width="1">
    <line x1="114" y1="413" x2="155" y2="369"/>
    <circle cx="114" cy="413" r="2"/>
    <circle cx="155" cy="369" r="2"/>
  </g>
  <g stroke="chocolate" stroke-width="1">
    <line x1="121" y1="454" x2="52" y2="451"/>
    <circle cx="121" cy="454" r="2"/>
    <circle cx="52" cy="451" r="2"/>
  </g>
  <g stroke="chocolate" stroke-width="1">
    <line x1="257" y1="321" x2="283" y2="139"/>
    <circle cx="257" cy="321" r="2"/>
    <circle cx="283" cy="139" r="2"/>
  </g>
  <g stroke="chocolate" stroke-width="1">
    <line x1="80" y1="467" x2="25" y2="445"/>
    <circle cx="80" cy="467" r="2"/>
    <circle cx="25" cy="445" r="2"/>
  </g>
  <g stroke="chocolate" stroke-width="1">
    <line x1="61" y1="444" x2="144" y2="431"/>
    <circle cx="61" cy="444" r="2"/>
    <circle cx="144" cy="431" r="2"/>
  </g>
  <g stroke="chocolate" stroke-width="1">
    <line x1="114" y1="413" x2="157" y2="305"/>
    <circle cx="114" cy="413" r="2"/>
    <circle cx="157" cy="305" r="2"/>
  </g>
  <g stroke="chocolate" stroke-width="1">
    <line x1="59" y1="478" x2="170" y2="282"/>
    <circle cx="59" cy="478" r="2"/>
    <circle cx="170" cy="282" r="2"/>
  </g>
  <g stroke="chocolate" stroke-width="1">
    <line x1="53" y1="480" x2="25" y2="445"/>
    <circle cx="53" cy="480" r="2"/>
    <circle cx="25" cy="445" r="2"/>
  </g>
  <g stroke="chocolate" stroke-width="1">
    <line x1="144" y1="431" x2="170" y2="282"/>
    <circle cx="144" cy="431" r="2"/>
    <circle cx="170" cy="282" r="2"/>
  </g>
  <g stroke="chocolate" stroke-width="1">
    <line x1="48" y1="474" x2="61" y2="452"/>
    <circle cx="48" cy="474" r="2"/>
    <circle cx="61" cy="452" r="2"/>
  </g>
  <g stroke="chocolate" stroke-width="1">
    <line x1="157" y1="305" x2="183" y2="271"/>
    <circle cx="157" cy="305" r="2"/>
    <circle cx="183" cy="271" r="2"/>
  </g>
  <g stroke="chocolate" stroke-width="1">
    <line x1="236" y1="341" x2="240" y2="157"/>
    <circle cx="236" cy="341" r="2"/>
    <circle cx="240" cy="157" r="2"/>
  </g>
  <g stroke="chocolate" stroke-width="1">
    <line x1="48" y1="474" x2="52" y2="451"/>
    <circle cx="48" cy="474" r="2"/>
    <circle cx="52" cy="451" r="2"/>
  </g>
  <g stroke="chocolate" stroke-width="1">
    <line x1="114" y1="457" x2="114" y2="413"/>
    <circle cx="114" cy="457" r="2"/>
    <circle cx="114" cy="413" r="2"/>
  </g>
  <g stroke="chocolate" stroke-width="1">
    <line x1="60" y1="460" x2="61" y2="444"/>
    <circle cx="60" cy="460" r="2"/>
    <circle cx="61" cy="444" r="2"/>
  </g>
  <g stroke="chocolate" stroke-width="1">
    <line x1="174" y1="402" x2="173" y2="341"/>
    <circle cx="174" cy="402" r="2"/>
    <circle cx="173" cy="341" r="2"/>
  </g>
  <g stroke="chocolate" stroke-width="1">
    <line x1="53" y1="480" x2="52" y2="451"/>
    <circle cx="53" cy="480" r="2"/>
    <circle cx="52" cy="451" r="2"/>
  </g>
  <g stroke="chocolate" stroke-width="1">
    <line x1="25" y1="445" x2="334" y2="30"/>
    <circle cx="25" cy="445" r="2"/>
    <circle cx="334" cy="30" r="2"/>
  </g>
  <g stroke="chocolate" stroke-width="1">
    <line x1="70" y1="473" x2="61" y2="452"/>
    <circle cx="70" cy="473" r="2"/>
    <circle cx="61" cy="452" r="2"/>
  </g>
  <g stroke="chocolate" stroke-width="1">
    <line x1="70" y1="473" x2="61" y2="444"/>
    <circle cx="70" cy="473" r="2"/>
    <circle cx="61" cy="444" r="2"/>
  </g>
  <g stroke="chocolate" stroke-width="1">
    <line x1="80" y1="467" x2="59" y2="400"/>
    <circle cx="80" cy="467" r="2"/>
    <circle cx="59" cy="400" r="2"/>
  </g>
  <g stroke="chocolate" stroke-width="1">
    <line x1="170" y1="282" x2="183" y2="271"/>
    <circle cx="170" cy="282" r="2"/>
    <circle cx="183" cy="271" r="2"/>
  </g>
  <g stroke="chocolate" stroke-width="1">
    <line x1="114" y1="457" x2="111" y2="453"/>
    <circle cx="114" cy="457" r="2"/>
    <circle cx="111" cy="453" r="2"/>
  </g>
  <g stroke="chocolate" stroke-width="1">
    <line x1="174" y1="402" x2="59" y2="400"/>
    <circle cx="174" cy="402" r="2"/>
    <circle cx="59" cy="400" r="2"/>
  </g>
  <g stroke="chocolate" stroke-width="1">
    <line x1="155" y1="369" x2="140" y2="335"/>
    <circle cx="155" cy="369" r="2"/>
    <circle cx="140" cy="335" r="2"/>
  </g>
  <g stroke="chocolate" stroke-width="1">
    <line x1="422" y1="159" x2="420" y2="142"/>
    <circle cx="422" cy="159" r="2"/>
    <circle cx="420" cy="142" r="2"/>
  </g>
  <g stroke="chocolate" stroke-width="1">
    <line x1="183" y1="271" x2="420" y2="142"/>
    <circle cx="183" cy="271" r="2"/>
    <circle cx="420" cy="142" r="2"/>
  </g>
  <g stroke="chocolate" stroke-width="1">
    <line x1="140" y1="335" x2="257" y2="321"/>
    <circle cx="140" cy="335" r="2"/>
    <circle cx="257" cy="321" r="2"/>
  </g>
  <g stroke="chocolate" stroke-width="1">
    <line x1="173" y1="341" x2="236" y2="341"/>
    <circle cx="173" cy="341" r="2"/>
    <circle cx="236" cy="341" r="2"/>
  </g>
  <g stroke="chocolate" stroke-width="1">
    <line x1="485" y1="91" x2="481" y2="80"/>
    <circle cx="485" cy="91" r="2"/>
    <circle cx="481" cy="80" r="2"/>
  </g>
  <g stroke="chocolate" stroke-width="1">
    <line x1="240" y1="157" x2="481" y2="80"/>
    <circle cx="240" cy="157" r="2"/>
    <circle cx="481" cy="80" r="2"/>
  </g>
  <g stroke="chocolate" stroke-width="1">
    <line x1="430" y1="151" x2="334" y2="30"/>
    <circle cx="430" cy="151" r="2"/>
    <circle cx="334" cy="30" r="2"/>
  </g>
  <g stroke="chocolate" stroke-width="1">
    <line x1="422" y1="159" x2="283" y2="139"/>
    <circle cx="422" cy="159" r="2"/>
    <circle cx="283" cy="139" r="2"/>
  </g>
  <g stroke="chocolate" stroke-width="1">
    <line x1="430" y1="151" x2="420" y2="142"/>
    <circle cx="430" cy="151" r="2"/>
    <circle cx="420" cy="142" r="2"/>
  </g>
  <g stroke="chocolate" stroke-width="1">
    <line x1="485" y1="91" x2="334" y2="30"/>
    <circle cx="485" cy="91" r="2"/>
    <circle cx="334" cy="30" r="2"/>
  </g>
  <g stroke="black" stroke-width="1">
    <line x1="5" y1="5" x2="505" y2="5"/>
    <line x1="5" y1="5" x2="5" y2="505"/>
    <line x1="505" y1="505" x2="5" y2="505"/>
    <line x1="505" y1="505" x2="505" y2="5"/>
    <line x1="105" y1="2" x2="105" y2="8"/>
    <line x1="2" y1="105" x2="8" y2="105"/>
    <line x1="105" y1="502" x2="105" y2="508"/>
    <line x1="502" y1="105" x2="508" y2="105"/>
    <line x1="205" y1="2" x2="205" y2="8"/>
    <line x1="2" y1="205" x2="8" y2="205"/>
    <line x1="205" y1="502" x2="205" y2="508"/>
    <line x1="502" y1="205" x2="508" y2="205"/>
    <line x1="305" y1="2" x2="305" y2="8"/>
    <line x1="2" y1="305" x2="8" y2="305"/>
    <line x1="305" y1="502" x2="305" y2="508"/>
    <line x1="502" y1="305" x2="508" y2="305"/>
    <line x1="405" y1="2" x2="405" y2="8"/>
    <line x1="2" y1="405" x2="8" y2="405"/>
    <line x1="405" y1="502" x2="405" y2="508"/>
    <line x1="502" y1="405" x2="508" y2="405"/>
  </g>
  <g stroke="gray" stroke-width="1" stroke-dasharray="5,5">
    <line x1="105" y1="5" x2="105" y2="505"/>
    <line x1="5" y1="105" x2="505" y2="105"/>
    <line x1="205" y1="5" x2="205" y2="505"/>
    <line x1="5" y1="205" x2="505" y2="205"/>
    <line x1="305" y1="5" x2="305" y2="505"/>
    <line x1="5" y1="305" x2="505" y2="305"/>
    <line x1="405" y1="5" x2="405" y2="505"/>
    <line x1="5" y1="405" x2="505" y2="405"/>
  </g>
</svg>
