<?xml version="1.0" standalone="no"?>
<!DOCTYPE svg PUBLIC "-//W3C//DTD SVG 1.1//EN" 
  "http://www.w3.org/Graphics/SVG/1.1/DTD/svg11.dtd">
<svg width="510" height="510" version="1.1" id="toplevel"
    xmlns="http://www.w3.org/2000/svg"
    xmlns:xlink="http://www.w3.org/1999/xlink">
  <polygon points="377,472 463,416 500,184 465,179 464,28 425,22 423,34 10,101 10,105"
           fill="bisque"/>
  <g stroke="chocolate" stroke-width="1">
    <line x1="10" y1="105" x2="10" y2="101"/>
    <circle cx="10" cy="105" r="2"/>
    <circle cx="10" cy="101" r="2"/>
  </g>
  <g stroke="chocolate" stroke-width="1">
    <line x1="303" y1="383" x2="290" y2="353"/>
    <circle cx="303" cy="383" r="2"/>
    <circle cx="290" cy="353" r="2"/>
  </g>
  <g stroke="chocolate" stroke-width="1">
    <line x1="280" y1="372" x2="277" y2="368"/>
    <circle cx="280" cy="372" r="2"/>
    <circle cx="277" cy="368" r="2"/>
  </g>
  <g stroke="chocolate" stroke-width="1">
    <line x1="277" y1="372" x2="277" y2="369"/>
    <circle cx="277" cy="372" r="2"/>
    <circle cx="277" cy="369" r="2"/>
  </g>
  <g stroke="chocolate" stroke-width="1">
    <line x1="463" y1="416" x2="500" y2="184"/>
    <circle cx="463" cy="416" r="2"/>
    <circle cx="500" cy="184" r="2"/>
  </g>
  <g stroke="chocolate" stroke-width="1">
    <line x1="377" y1="472" x2="10" y2="105"/>
    <circle cx="377" cy="472" r="2"/>
    <circle cx="10" cy="105" r="2"/>
  </g>
  <g stroke="chocolate" stroke-width="1">
    <line x1="465" y1="338" x2="464" y2="28"/>
    <circle cx="465" cy="338" r="2"/>
    <circle cx="464" cy="28" r="2"/>
  </g>
  <g stroke="chocolate" stroke-width="1">
    <line x1="393" y1="230" x2="425" y2="22"/>
    <circle cx="393" cy="230" r="2"/>
    <circle cx="425" cy="22" r="2"/>
  </g>
  <g stroke="chocolate" stroke-width="1">
    <line x1="377" y1="472" x2="465" y2="338"/>
    <circle cx="377" cy="472" r="2"/>
    <circle cx="465" cy="338" r="2"/>
  </g>
  <g stroke="chocolate" stroke-width="1">
    <line x1="377" y1="472" x2="463" y2="416"/>
    <circle cx="377" cy="472" r="2"/>
    <circle cx="463" cy="416" r="2"/>
  </g>
  <g stroke="chocolate" stroke-width="1">
    <line x1="303" y1="383" x2="277" y2="368"/>
    <circle cx="303" cy="383" r="2"/>
    <circle cx="277" cy="368" r="2"/>
  </g>
  <g stroke="chocolate" stroke-width="1">
    <line x1="382" y1="314" x2="413" y2="260"/>
    <circle cx="382" cy="314" r="2"/>
    <circle cx="413" cy="260" r="2"/>
  </g>
  <g stroke="chocolate" stroke-width="1">
    <line x1="465" y1="338" x2="393" y2="230"/>
    <circle cx="465" cy="338" r="2"/>
    <circle cx="393" cy="230" r="2"/>
  </g>
  <g stroke="chocolate" stroke-width="1">
    <line x1="280" y1="372" x2="290" y2="353"/>
    <circle cx="280" cy="372" r="2"/>
    <circle cx="290" cy="353" r="2"/>
  </g>
  <g stroke="chocolate" stroke-width="1">
    <line x1="463" y1="416" x2="277" y2="369"/>
    <circle cx="463" cy="416" r="2"/>
    <circle cx="277" cy="369" r="2"/>
  </g>
  <g stroke="chocolate" stroke-width="1">
    <line x1="280" y1="372" x2="277" y2="372"/>
    <circle cx="280" cy="372" r="2"/>
    <circle cx="277" cy="372" r="2"/>
  </g>
  <g stroke="chocolate" stroke-width="1">
    <line x1="303" y1="383" x2="382" y2="314"/>
    <circle cx="303" cy="383" r="2"/>
    <circle cx="382" cy="314" r="2"/>
  </g>
  <g stroke="chocolate" stroke-width="1">
    <line x1="276" y1="370" x2="290" y2="353"/>
    <circle cx="276" cy="370" r="2"/>
    <circle cx="290" cy="353" r="2"/>
  </g>
  <g stroke="chocolate" stroke-width="1">
    <line x1="276" y1="370" x2="277" y2="369"/>
    <circle cx="276" cy="370" r="2"/>
    <circle cx="277" cy="369" r="2"/>
  </g>
  <g stroke="chocolate" stroke-width="1">
    <line x1="290" y1="353" x2="413" y2="260"/>
    <circle cx="290" cy="353" r="2"/>
    <circle cx="413" cy="260" r="2"/>
  </g>
  <g stroke="chocolate" stroke-width="1">
    <line x1="290" y1="353" x2="382" y2="314"/>
    <circle cx="290" cy="353" r="2"/>
    <circle cx="382" cy="314" r="2"/>
  </g>
  <g stroke="chocolate" stroke-width="1">
    <line x1="413" y1="260" x2="465" y2="247"/>
    <circle cx="413" cy="260" r="2"/>
    <circle cx="465" cy="247" r="2"/>
  </g>
  <g stroke="chocolate" stroke-width="1">
    <line x1="465" y1="247" x2="393" y2="230"/>
    <circle cx="465" cy="247" r="2"/>
    <circle cx="393" cy="230" r="2"/>
  </g>
  <g stroke="chocolate" stroke-width="1">
    <line x1="500" y1="184" x2="10" y2="105"/>
    <circle cx="500" cy="184" r="2"/>
    <circle cx="10" cy="105" r="2"/>
  </g>
  <g stroke="chocolate" stroke-width="1">
    <line x1="10" y1="101" x2="464" y2="28"/>
    <circle cx="10" cy="101" r="2"/>
    <circle cx="464" cy="28" r="2"/>
  </g>
  <g stroke="chocolate" stroke-width="1">
    <line x1="464" y1="28" x2="425" y2="22"/>
    <circle cx="464" cy="28" r="2"/>
    <circle cx="425" cy="22" r="2"/>
  </g>
  <g stroke="black" stroke-width="1">
    <line x1="5" y1="5" x2="505" y2="5"/>
    <line x1="5" y1="5" x2="5" y2="505"/>
    <line x1="505" y1="505" x2="5" y2="505"/>
    <line x1="505" y1="505" x2="505" y2="5"/>
    <line x1="105" y1="2" x2="105" y2="8"/>
    <line x1="2" y1="105" x2="8" y2="105"/>
    <line x1="105" y1="502" x2="105" y2="508"/>
    <line x1="502" y1="105" x2="508" y2="105"/>
    <line x1="205" y1="2" x2="205" y2="8"/>
    <line x1="2" y1="205" x2="8" y2="205"/>
    <line x1="205" y1="502" x2="205" y2="508"/>
    <line x1="502" y1="205" x2="508" y2="205"/>
    <line x1="305" y1="2" x2="305" y2="8"/>
    <line x1="2" y1="305" x2="8" y2="305"/>
    <line x1="305" y1="502" x2="305" y2="508"/>
    <line x1="502" y1="305" x2="508" y2="305"/>
    <line x1="405" y1="2" x2="405" y2="8"/>
    <line x1="2" y1="405" x2="8" y2="405"/>
    <line x1="405" y1="502" x2="405" y2="508"/>
    <line x1="502" y1="405" x2="508" y2="405"/>
  </g>
  <g stroke="gray" stroke-width="1" stroke-dasharray="5,5">
    <line x1="105" y1="5" x2="105" y2="505"/>
    <line x1="5" y1="105" x2="505" y2="105"/>
    <line x1="205" y1="5" x2="205" y2="505"/>
    <line x1="5" y1="205" x2="505" y2="205"/>
    <line x1="305" y1="5" x2="305" y2="505"/>
    <line x1="5" y1="305" x2="505" y2="305"/>
    <line x1="405" y1="5" x2="405" y2="505"/>
    <line x1="5" y1="405" x2="505" y2="405"/>
  </g>
</svg>
