<?xml version="1.0" standalone="no"?>
<!DOCTYPE svg PUBLIC "-//W3C//DTD SVG 1.1//EN" 
  "http://www.w3.org/Graphics/SVG/1.1/DTD/svg11.dtd">
<svg width="526" height="526" version="1.1" id="toplevel"
    xmlns="http://www.w3.org/2000/svg"
    xmlns:xlink="http://www.w3.org/1999/xlink">
  <polygon points="521,502 334,202 119,24 5,74 72,227 34,389" fill="bisque"/>
  <g stroke="chocolate" stroke-width="1">
    <line x1="521" y1="502" x2="34" y2="389"/>
    <circle cx="521" cy="502" r="2"/>
    <circle cx="34" cy="389" r="2"/>
  </g>
  <g stroke="chocolate" stroke-width="1">
    <line x1="72" y1="227" x2="5" y2="74"/>
    <circle cx="72" cy="227" r="2"/>
    <circle cx="5" cy="74" r="2"/>
  </g>
  <g stroke="chocolate" stroke-width="1">
    <line x1="521" y1="502" x2="334" y2="202"/>
    <circle cx="521" cy="502" r="2"/>
    <circle cx="334" cy="202" r="2"/>
  </g>
  <g stroke="chocolate" stroke-width="1">
    <line x1="334" y1="202" x2="119" y2="24"/>
    <circle cx="334" cy="202" r="2"/>
    <circle cx="119" cy="24" r="2"/>
  </g>
  <g stroke="chocolate" stroke-width="1">
    <line x1="334" y1="202" x2="91" y2="146"/>
    <circle cx="334" cy="202" r="2"/>
    <circle cx="91" cy="146" r="2"/>
  </g>
  <g stroke="chocolate" stroke-width="1">
    <line x1="72" y1="227" x2="334" y2="202"/>
    <circle cx="72" cy="227" r="2"/>
    <circle cx="334" cy="202" r="2"/>
  </g>
  <g stroke="chocolate" stroke-width="1">
    <line x1="34" y1="389" x2="119" y2="24"/>
    <circle cx="34" cy="389" r="2"/>
    <circle cx="119" cy="24" r="2"/>
  </g>
  <g stroke="chocolate" stroke-width="1">
    <line x1="5" y1="74" x2="119" y2="24"/>
    <circle cx="5" cy="74" r="2"/>
    <circle cx="119" cy="24" r="2"/>
  </g>
  <g stroke="black" stroke-width="1">
    <line x1="13" y1="13" x2="513" y2="13"/>
    <line x1="13" y1="13" x2="13" y2="513"/>
    <line x1="513" y1="513" x2="13" y2="513"/>
    <line x1="513" y1="513" x2="513" y2="13"/>
    <line x1="113" y1="10" x2="113" y2="16"/>
    <line x1="10" y1="113" x2="16" y2="113"/>
    <line x1="113" y1="510" x2="113" y2="516"/>
    <line x1="510" y1="113" x2="516" y2="113"/>
    <line x1="213" y1="10" x2="213" y2="16"/>
    <line x1="10" y1="213" x2="16" y2="213"/>
    <line x1="213" y1="510" x2="213" y2="516"/>
    <line x1="510" y1="213" x2="516" y2="213"/>
    <line x1="313" y1="10" x2="313" y2="16"/>
    <line x1="10" y1="313" x2="16" y2="313"/>
    <line x1="313" y1="510" x2="313" y2="516"/>
    <line x1="510" y1="313" x2="516" y2="313"/>
    <line x1="413" y1="10" x2="413" y2="16"/>
    <line x1="10" y1="413" x2="16" y2="413"/>
    <line x1="413" y1="510" x2="413" y2="516"/>
    <line x1="510" y1="413" x2="516" y2="413"/>
  </g>
  <g stroke="gray" stroke-width="1" stroke-dasharray="5,5">
    <line x1="113" y1="13" x2="113" y2="513"/>
    <line x1="13" y1="113" x2="513" y2="113"/>
    <line x1="213" y1="13" x2="213" y2="513"/>
    <line x1="13" y1="213" x2="513" y2="213"/>
    <line x1="313" y1="13" x2="313" y2="513"/>
    <line x1="13" y1="313" x2="513" y2="313"/>
    <line x1="413" y1="13" x2="413" y2="513"/>
    <line x1="13" y1="413" x2="513" y2="413"/>
  </g>
</svg>
