<?xml version="1.0" standalone="no"?>
<!DOCTYPE svg PUBLIC "-//W3C//DTD SVG 1.1//EN" 
  "http://www.w3.org/Graphics/SVG/1.1/DTD/svg11.dtd">
<svg width="556" height="556" version="1.1" id="toplevel"
    xmlns="http://www.w3.org/2000/svg"
    xmlns:xlink="http://www.w3.org/1999/xlink">
  <polygon points="85,551 534,276 471,5 22,280 69,483 42,515" fill="bisque"/>
  <g stroke="chocolate" stroke-width="1">
    <line x1="85" y1="551" x2="42" y2="515"/>
    <circle cx="85" cy="551" r="2"/>
    <circle cx="42" cy="515" r="2"/>
  </g>
  <g stroke="chocolate" stroke-width="1">
    <line x1="85" y1="551" x2="22" y2="280"/>
    <circle cx="85" cy="551" r="2"/>
    <circle cx="22" cy="280" r="2"/>
  </g>
  <g stroke="chocolate" stroke-width="1">
    <line x1="149" y1="388" x2="22" y2="280"/>
    <circle cx="149" cy="388" r="2"/>
    <circle cx="22" cy="280" r="2"/>
  </g>
  <g stroke="chocolate" stroke-width="1">
    <line x1="85" y1="551" x2="534" y2="276"/>
    <circle cx="85" cy="551" r="2"/>
    <circle cx="534" cy="276" r="2"/>
  </g>
  <g stroke="chocolate" stroke-width="1">
    <line x1="534" y1="276" x2="471" y2="5"/>
    <circle cx="534" cy="276" r="2"/>
    <circle cx="471" cy="5" r="2"/>
  </g>
  <g stroke="chocolate" stroke-width="1">
    <line x1="42" y1="515" x2="471" y2="5"/>
    <circle cx="42" cy="515" r="2"/>
    <circle cx="471" cy="5" r="2"/>
  </g>
  <g stroke="chocolate" stroke-width="1">
    <line x1="22" y1="280" x2="471" y2="5"/>
    <circle cx="22" cy="280" r="2"/>
    <circle cx="471" cy="5" r="2"/>
  </g>
  <g stroke="chocolate" stroke-width="1">
    <line x1="534" y1="276" x2="364" y2="133"/>
    <circle cx="534" cy="276" r="2"/>
    <circle cx="364" cy="133" r="2"/>
  </g>
  <g stroke="black" stroke-width="1">
    <line x1="28" y1="28" x2="528" y2="28"/>
    <line x1="28" y1="28" x2="28" y2="528"/>
    <line x1="528" y1="528" x2="28" y2="528"/>
    <line x1="528" y1="528" x2="528" y2="28"/>
    <line x1="128" y1="25" x2="128" y2="31"/>
    <line x1="25" y1="128" x2="31" y2="128"/>
    <line x1="128" y1="525" x2="128" y2="531"/>
    <line x1="525" y1="128" x2="531" y2="128"/>
    <line x1="228" y1="25" x2="228" y2="31"/>
    <line x1="25" y1="228" x2="31" y2="228"/>
    <line x1="228" y1="525" x2="228" y2="531"/>
    <line x1="525" y1="228" x2="531" y2="228"/>
    <line x1="328" y1="25" x2="328" y2="31"/>
    <line x1="25" y1="328" x2="31" y2="328"/>
    <line x1="328" y1="525" x2="328" y2="531"/>
    <line x1="525" y1="328" x2="531" y2="328"/>
    <line x1="428" y1="25" x2="428" y2="31"/>
    <line x1="25" y1="428" x2="31" y2="428"/>
    <line x1="428" y1="525" x2="428" y2="531"/>
    <line x1="525" y1="428" x2="531" y2="428"/>
  </g>
  <g stroke="gray" stroke-width="1" stroke-dasharray="5,5">
    <line x1="128" y1="28" x2="128" y2="528"/>
    <line x1="28" y1="128" x2="528" y2="128"/>
    <line x1="228" y1="28" x2="228" y2="528"/>
    <line x1="28" y1="228" x2="528" y2="228"/>
    <line x1="328" y1="28" x2="328" y2="528"/>
    <line x1="28" y1="328" x2="528" y2="328"/>
    <line x1="428" y1="28" x2="428" y2="528"/>
    <line x1="28" y1="428" x2="528" y2="428"/>
  </g>
</svg>
