<?xml version="1.0" standalone="no"?>
<!DOCTYPE svg PUBLIC "-//W3C//DTD SVG 1.1//EN" 
  "http://www.w3.org/Graphics/SVG/1.1/DTD/svg11.dtd">
<svg width="564" height="564" version="1.1" id="toplevel"
    xmlns="http://www.w3.org/2000/svg"
    xmlns:xlink="http://www.w3.org/1999/xlink">
  <polygon points="488,559 534,60 80,5 30,418 142,517 460,555 460,557"
           fill="bisque"/>
  <g stroke="chocolate" stroke-width="1">
    <line x1="488" y1="559" x2="534" y2="60"/>
    <circle cx="488" cy="559" r="2"/>
    <circle cx="534" cy="60" r="2"/>
  </g>
  <g stroke="chocolate" stroke-width="1">
    <line x1="460" y1="557" x2="491" y2="58"/>
    <circle cx="460" cy="557" r="2"/>
    <circle cx="491" cy="58" r="2"/>
  </g>
  <g stroke="chocolate" stroke-width="1">
    <line x1="30" y1="418" x2="80" y2="5"/>
    <circle cx="30" cy="418" r="2"/>
    <circle cx="80" cy="5" r="2"/>
  </g>
  <g stroke="chocolate" stroke-width="1">
    <line x1="142" y1="517" x2="113" y2="397"/>
    <circle cx="142" cy="517" r="2"/>
    <circle cx="113" cy="397" r="2"/>
  </g>
  <g stroke="chocolate" stroke-width="1">
    <line x1="142" y1="517" x2="30" y2="418"/>
    <circle cx="142" cy="517" r="2"/>
    <circle cx="30" cy="418" r="2"/>
  </g>
  <g stroke="chocolate" stroke-width="1">
    <line x1="488" y1="559" x2="460" y2="557"/>
    <circle cx="488" cy="559" r="2"/>
    <circle cx="460" cy="557" r="2"/>
  </g>
  <g stroke="chocolate" stroke-width="1">
    <line x1="488" y1="559" x2="142" y2="517"/>
    <circle cx="488" cy="559" r="2"/>
    <circle cx="142" cy="517" r="2"/>
  </g>
  <g stroke="chocolate" stroke-width="1">
    <line x1="30" y1="418" x2="113" y2="397"/>
    <circle cx="30" cy="418" r="2"/>
    <circle cx="113" cy="397" r="2"/>
  </g>
  <g stroke="chocolate" stroke-width="1">
    <line x1="534" y1="60" x2="491" y2="58"/>
    <circle cx="534" cy="60" r="2"/>
    <circle cx="491" cy="58" r="2"/>
  </g>
  <g stroke="chocolate" stroke-width="1">
    <line x1="534" y1="60" x2="80" y2="5"/>
    <circle cx="534" cy="60" r="2"/>
    <circle cx="80" cy="5" r="2"/>
  </g>
  <g stroke="black" stroke-width="1">
    <line x1="32" y1="32" x2="532" y2="32"/>
    <line x1="32" y1="32" x2="32" y2="532"/>
    <line x1="532" y1="532" x2="32" y2="532"/>
    <line x1="532" y1="532" x2="532" y2="32"/>
    <line x1="132" y1="29" x2="132" y2="35"/>
    <line x1="29" y1="132" x2="35" y2="132"/>
    <line x1="132" y1="529" x2="132" y2="535"/>
    <line x1="529" y1="132" x2="535" y2="132"/>
    <line x1="232" y1="29" x2="232" y2="35"/>
    <line x1="29" y1="232" x2="35" y2="232"/>
    <line x1="232" y1="529" x2="232" y2="535"/>
    <line x1="529" y1="232" x2="535" y2="232"/>
    <line x1="332" y1="29" x2="332" y2="35"/>
    <line x1="29" y1="332" x2="35" y2="332"/>
    <line x1="332" y1="529" x2="332" y2="535"/>
    <line x1="529" y1="332" x2="535" y2="332"/>
    <line x1="432" y1="29" x2="432" y2="35"/>
    <line x1="29" y1="432" x2="35" y2="432"/>
    <line x1="432" y1="529" x2="432" y2="535"/>
    <line x1="529" y1="432" x2="535" y2="432"/>
  </g>
  <g stroke="gray" stroke-width="1" stroke-dasharray="5,5">
    <line x1="132" y1="32" x2="132" y2="532"/>
    <line x1="32" y1="132" x2="532" y2="132"/>
    <line x1="232" y1="32" x2="232" y2="532"/>
    <line x1="32" y1="232" x2="532" y2="232"/>
    <line x1="332" y1="32" x2="332" y2="532"/>
    <line x1="32" y1="332" x2="532" y2="332"/>
    <line x1="432" y1="32" x2="432" y2="532"/>
    <line x1="32" y1="432" x2="532" y2="432"/>
  </g>
</svg>
