<?xml version="1.0" standalone="no"?>
<!DOCTYPE svg PUBLIC "-//W3C//DTD SVG 1.1//EN" 
  "http://www.w3.org/Graphics/SVG/1.1/DTD/svg11.dtd">
<svg width="616" height="616" version="1.1" id="toplevel"
    xmlns="http://www.w3.org/2000/svg"
    xmlns:xlink="http://www.w3.org/1999/xlink">
  <polygon points="287,571 611,491 571,329 329,45 5,125 45,287" fill="bisque"/>
  <g stroke="chocolate" stroke-width="1">
    <line x1="287" y1="571" x2="611" y2="491"/>
    <circle cx="287" cy="571" r="2"/>
    <circle cx="611" cy="491" r="2"/>
  </g>
  <g stroke="chocolate" stroke-width="1">
    <line x1="287" y1="571" x2="45" y2="287"/>
    <circle cx="287" cy="571" r="2"/>
    <circle cx="45" cy="287" r="2"/>
  </g>
  <g stroke="chocolate" stroke-width="1">
    <line x1="352" y1="417" x2="45" y2="287"/>
    <circle cx="352" cy="417" r="2"/>
    <circle cx="45" cy="287" r="2"/>
  </g>
  <g stroke="chocolate" stroke-width="1">
    <line x1="45" y1="287" x2="5" y2="125"/>
    <circle cx="45" cy="287" r="2"/>
    <circle cx="5" cy="125" r="2"/>
  </g>
  <g stroke="chocolate" stroke-width="1">
    <line x1="287" y1="571" x2="352" y2="417"/>
    <circle cx="287" cy="571" r="2"/>
    <circle cx="352" cy="417" r="2"/>
  </g>
  <g stroke="chocolate" stroke-width="1">
    <line x1="611" y1="491" x2="571" y2="329"/>
    <circle cx="611" cy="491" r="2"/>
    <circle cx="571" cy="329" r="2"/>
  </g>
  <g stroke="chocolate" stroke-width="1">
    <line x1="571" y1="329" x2="264" y2="199"/>
    <circle cx="571" cy="329" r="2"/>
    <circle cx="264" cy="199" r="2"/>
  </g>
  <g stroke="chocolate" stroke-width="1">
    <line x1="264" y1="199" x2="329" y2="45"/>
    <circle cx="264" cy="199" r="2"/>
    <circle cx="329" cy="45" r="2"/>
  </g>
  <g stroke="chocolate" stroke-width="1">
    <line x1="571" y1="329" x2="329" y2="45"/>
    <circle cx="571" cy="329" r="2"/>
    <circle cx="329" cy="45" r="2"/>
  </g>
  <g stroke="chocolate" stroke-width="1">
    <line x1="5" y1="125" x2="329" y2="45"/>
    <circle cx="5" cy="125" r="2"/>
    <circle cx="329" cy="45" r="2"/>
  </g>
  <g stroke="black" stroke-width="1">
    <line x1="58" y1="58" x2="558" y2="58"/>
    <line x1="58" y1="58" x2="58" y2="558"/>
    <line x1="558" y1="558" x2="58" y2="558"/>
    <line x1="558" y1="558" x2="558" y2="58"/>
    <line x1="158" y1="55" x2="158" y2="61"/>
    <line x1="55" y1="158" x2="61" y2="158"/>
    <line x1="158" y1="555" x2="158" y2="561"/>
    <line x1="555" y1="158" x2="561" y2="158"/>
    <line x1="258" y1="55" x2="258" y2="61"/>
    <line x1="55" y1="258" x2="61" y2="258"/>
    <line x1="258" y1="555" x2="258" y2="561"/>
    <line x1="555" y1="258" x2="561" y2="258"/>
    <line x1="358" y1="55" x2="358" y2="61"/>
    <line x1="55" y1="358" x2="61" y2="358"/>
    <line x1="358" y1="555" x2="358" y2="561"/>
    <line x1="555" y1="358" x2="561" y2="358"/>
    <line x1="458" y1="55" x2="458" y2="61"/>
    <line x1="55" y1="458" x2="61" y2="458"/>
    <line x1="458" y1="555" x2="458" y2="561"/>
    <line x1="555" y1="458" x2="561" y2="458"/>
  </g>
  <g stroke="gray" stroke-width="1" stroke-dasharray="5,5">
    <line x1="158" y1="58" x2="158" y2="558"/>
    <line x1="58" y1="158" x2="558" y2="158"/>
    <line x1="258" y1="58" x2="258" y2="558"/>
    <line x1="58" y1="258" x2="558" y2="258"/>
    <line x1="358" y1="58" x2="358" y2="558"/>
    <line x1="58" y1="358" x2="558" y2="358"/>
    <line x1="458" y1="58" x2="458" y2="558"/>
    <line x1="58" y1="458" x2="558" y2="458"/>
  </g>
</svg>
