<?xml version="1.0" standalone="no"?>
<!DOCTYPE svg PUBLIC "-//W3C//DTD SVG 1.1//EN" 
  "http://www.w3.org/Graphics/SVG/1.1/DTD/svg11.dtd">
<svg width="532" height="532" version="1.1" id="toplevel"
    xmlns="http://www.w3.org/2000/svg"
    xmlns:xlink="http://www.w3.org/1999/xlink">
  <polygon points="231,527 508,504 301,19 93,36 66,5 24,42" fill="bisque"/>
  <g stroke="chocolate" stroke-width="1">
    <line x1="231" y1="527" x2="508" y2="504"/>
    <circle cx="231" cy="527" r="2"/>
    <circle cx="508" cy="504" r="2"/>
  </g>
  <g stroke="chocolate" stroke-width="1">
    <line x1="231" y1="527" x2="24" y2="42"/>
    <circle cx="231" cy="527" r="2"/>
    <circle cx="24" cy="42" r="2"/>
  </g>
  <g stroke="chocolate" stroke-width="1">
    <line x1="508" y1="504" x2="66" y2="5"/>
    <circle cx="508" cy="504" r="2"/>
    <circle cx="66" cy="5" r="2"/>
  </g>
  <g stroke="chocolate" stroke-width="1">
    <line x1="231" y1="527" x2="397" y2="379"/>
    <circle cx="231" cy="527" r="2"/>
    <circle cx="397" cy="379" r="2"/>
  </g>
  <g stroke="chocolate" stroke-width="1">
    <line x1="508" y1="504" x2="301" y2="19"/>
    <circle cx="508" cy="504" r="2"/>
    <circle cx="301" cy="19" r="2"/>
  </g>
  <g stroke="chocolate" stroke-width="1">
    <line x1="176" y1="130" x2="301" y2="19"/>
    <circle cx="176" cy="130" r="2"/>
    <circle cx="301" cy="19" r="2"/>
  </g>
  <g stroke="chocolate" stroke-width="1">
    <line x1="24" y1="42" x2="301" y2="19"/>
    <circle cx="24" cy="42" r="2"/>
    <circle cx="301" cy="19" r="2"/>
  </g>
  <g stroke="chocolate" stroke-width="1">
    <line x1="24" y1="42" x2="66" y2="5"/>
    <circle cx="24" cy="42" r="2"/>
    <circle cx="66" cy="5" r="2"/>
  </g>
  <g stroke="black" stroke-width="1">
    <line x1="16" y1="16" x2="516" y2="16"/>
    <line x1="16" y1="16" x2="16" y2="516"/>
    <line x1="516" y1="516" x2="16" y2="516"/>
    <line x1="516" y1="516" x2="516" y2="16"/>
    <line x1="116" y1="13" x2="116" y2="19"/>
    <line x1="13" y1="116" x2="19" y2="116"/>
    <line x1="116" y1="513" x2="116" y2="519"/>
    <line x1="513" y1="116" x2="519" y2="116"/>
    <line x1="216" y1="13" x2="216" y2="19"/>
    <line x1="13" y1="216" x2="19" y2="216"/>
    <line x1="216" y1="513" x2="216" y2="519"/>
    <line x1="513" y1="216" x2="519" y2="216"/>
    <line x1="316" y1="13" x2="316" y2="19"/>
    <line x1="13" y1="316" x2="19" y2="316"/>
    <line x1="316" y1="513" x2="316" y2="519"/>
    <line x1="513" y1="316" x2="519" y2="316"/>
    <line x1="416" y1="13" x2="416" y2="19"/>
    <line x1="13" y1="416" x2="19" y2="416"/>
    <line x1="416" y1="513" x2="416" y2="519"/>
    <line x1="513" y1="416" x2="519" y2="416"/>
  </g>
  <g stroke="gray" stroke-width="1" stroke-dasharray="5,5">
    <line x1="116" y1="16" x2="116" y2="516"/>
    <line x1="16" y1="116" x2="516" y2="116"/>
    <line x1="216" y1="16" x2="216" y2="516"/>
    <line x1="16" y1="216" x2="516" y2="216"/>
    <line x1="316" y1="16" x2="316" y2="516"/>
    <line x1="16" y1="316" x2="516" y2="316"/>
    <line x1="416" y1="16" x2="416" y2="516"/>
    <line x1="16" y1="416" x2="516" y2="416"/>
  </g>
</svg>
