<?xml version="1.0" standalone="no"?>
<!DOCTYPE svg PUBLIC "-//W3C//DTD SVG 1.1//EN" 
  "http://www.w3.org/Graphics/SVG/1.1/DTD/svg11.dtd">
<svg width="624" height="624" version="1.1" id="toplevel"
    xmlns="http://www.w3.org/2000/svg"
    xmlns:xlink="http://www.w3.org/1999/xlink">
  <polygon points="417,619 468,597 426,72 156,5 198,531 400,580" fill="bisque"/>
  <g stroke="chocolate" stroke-width="1">
    <line x1="417" y1="619" x2="156" y2="5"/>
    <circle cx="417" cy="619" r="2"/>
    <circle cx="156" cy="5" r="2"/>
  </g>
  <g stroke="chocolate" stroke-width="1">
    <line x1="468" y1="597" x2="198" y2="531"/>
    <circle cx="468" cy="597" r="2"/>
    <circle cx="198" cy="531" r="2"/>
  </g>
  <g stroke="chocolate" stroke-width="1">
    <line x1="198" y1="531" x2="156" y2="5"/>
    <circle cx="198" cy="531" r="2"/>
    <circle cx="156" cy="5" r="2"/>
  </g>
  <g stroke="chocolate" stroke-width="1">
    <line x1="468" y1="597" x2="426" y2="72"/>
    <circle cx="468" cy="597" r="2"/>
    <circle cx="426" cy="72" r="2"/>
  </g>
  <g stroke="chocolate" stroke-width="1">
    <line x1="417" y1="619" x2="468" y2="597"/>
    <circle cx="417" cy="619" r="2"/>
    <circle cx="468" cy="597" r="2"/>
  </g>
  <g stroke="chocolate" stroke-width="1">
    <line x1="198" y1="531" x2="352" y2="465"/>
    <circle cx="198" cy="531" r="2"/>
    <circle cx="352" cy="465" r="2"/>
  </g>
  <g stroke="chocolate" stroke-width="1">
    <line x1="426" y1="72" x2="156" y2="5"/>
    <circle cx="426" cy="72" r="2"/>
    <circle cx="156" cy="5" r="2"/>
  </g>
  <g stroke="chocolate" stroke-width="1">
    <line x1="221" y1="159" x2="426" y2="72"/>
    <circle cx="221" cy="159" r="2"/>
    <circle cx="426" cy="72" r="2"/>
  </g>
  <g stroke="black" stroke-width="1">
    <line x1="62" y1="62" x2="562" y2="62"/>
    <line x1="62" y1="62" x2="62" y2="562"/>
    <line x1="562" y1="562" x2="62" y2="562"/>
    <line x1="562" y1="562" x2="562" y2="62"/>
    <line x1="162" y1="59" x2="162" y2="65"/>
    <line x1="59" y1="162" x2="65" y2="162"/>
    <line x1="162" y1="559" x2="162" y2="565"/>
    <line x1="559" y1="162" x2="565" y2="162"/>
    <line x1="262" y1="59" x2="262" y2="65"/>
    <line x1="59" y1="262" x2="65" y2="262"/>
    <line x1="262" y1="559" x2="262" y2="565"/>
    <line x1="559" y1="262" x2="565" y2="262"/>
    <line x1="362" y1="59" x2="362" y2="65"/>
    <line x1="59" y1="362" x2="65" y2="362"/>
    <line x1="362" y1="559" x2="362" y2="565"/>
    <line x1="559" y1="362" x2="565" y2="362"/>
    <line x1="462" y1="59" x2="462" y2="65"/>
    <line x1="59" y1="462" x2="65" y2="462"/>
    <line x1="462" y1="559" x2="462" y2="565"/>
    <line x1="559" y1="462" x2="565" y2="462"/>
  </g>
  <g stroke="gray" stroke-width="1" stroke-dasharray="5,5">
    <line x1="162" y1="62" x2="162" y2="562"/>
    <line x1="62" y1="162" x2="562" y2="162"/>
    <line x1="262" y1="62" x2="262" y2="562"/>
    <line x1="62" y1="262" x2="562" y2="262"/>
    <line x1="362" y1="62" x2="362" y2="562"/>
    <line x1="62" y1="362" x2="562" y2="362"/>
    <line x1="462" y1="62" x2="462" y2="562"/>
    <line x1="62" y1="462" x2="562" y2="462"/>
  </g>
</svg>
