<?xml version="1.0" standalone="no"?>
<!DOCTYPE svg PUBLIC "-//W3C//DTD SVG 1.1//EN" 
  "http://www.w3.org/Graphics/SVG/1.1/DTD/svg11.dtd">
<svg width="550" height="550" version="1.1" id="toplevel"
    xmlns="http://www.w3.org/2000/svg"
    xmlns:xlink="http://www.w3.org/1999/xlink">
  <polygon points="46,545 212,531 531,338 504,5 338,19 19,212" fill="bisque"/>
  <g stroke="chocolate" stroke-width="1">
    <line x1="46" y1="545" x2="212" y2="531"/>
    <circle cx="46" cy="545" r="2"/>
    <circle cx="212" cy="531" r="2"/>
  </g>
  <g stroke="chocolate" stroke-width="1">
    <line x1="212" y1="531" x2="531" y2="338"/>
    <circle cx="212" cy="531" r="2"/>
    <circle cx="531" cy="338" r="2"/>
  </g>
  <g stroke="chocolate" stroke-width="1">
    <line x1="212" y1="531" x2="390" y2="249"/>
    <circle cx="212" cy="531" r="2"/>
    <circle cx="390" cy="249" r="2"/>
  </g>
  <g stroke="chocolate" stroke-width="1">
    <line x1="46" y1="545" x2="19" y2="212"/>
    <circle cx="46" cy="545" r="2"/>
    <circle cx="19" cy="212" r="2"/>
  </g>
  <g stroke="chocolate" stroke-width="1">
    <line x1="160" y1="301" x2="19" y2="212"/>
    <circle cx="160" cy="301" r="2"/>
    <circle cx="19" cy="212" r="2"/>
  </g>
  <g stroke="chocolate" stroke-width="1">
    <line x1="531" y1="338" x2="504" y2="5"/>
    <circle cx="531" cy="338" r="2"/>
    <circle cx="504" cy="5" r="2"/>
  </g>
  <g stroke="chocolate" stroke-width="1">
    <line x1="160" y1="301" x2="338" y2="19"/>
    <circle cx="160" cy="301" r="2"/>
    <circle cx="338" cy="19" r="2"/>
  </g>
  <g stroke="chocolate" stroke-width="1">
    <line x1="531" y1="338" x2="390" y2="249"/>
    <circle cx="531" cy="338" r="2"/>
    <circle cx="390" cy="249" r="2"/>
  </g>
  <g stroke="chocolate" stroke-width="1">
    <line x1="19" y1="212" x2="338" y2="19"/>
    <circle cx="19" cy="212" r="2"/>
    <circle cx="338" cy="19" r="2"/>
  </g>
  <g stroke="chocolate" stroke-width="1">
    <line x1="338" y1="19" x2="504" y2="5"/>
    <circle cx="338" cy="19" r="2"/>
    <circle cx="504" cy="5" r="2"/>
  </g>
  <g stroke="black" stroke-width="1">
    <line x1="25" y1="25" x2="525" y2="25"/>
    <line x1="25" y1="25" x2="25" y2="525"/>
    <line x1="525" y1="525" x2="25" y2="525"/>
    <line x1="525" y1="525" x2="525" y2="25"/>
    <line x1="125" y1="22" x2="125" y2="28"/>
    <line x1="22" y1="125" x2="28" y2="125"/>
    <line x1="125" y1="522" x2="125" y2="528"/>
    <line x1="522" y1="125" x2="528" y2="125"/>
    <line x1="225" y1="22" x2="225" y2="28"/>
    <line x1="22" y1="225" x2="28" y2="225"/>
    <line x1="225" y1="522" x2="225" y2="528"/>
    <line x1="522" y1="225" x2="528" y2="225"/>
    <line x1="325" y1="22" x2="325" y2="28"/>
    <line x1="22" y1="325" x2="28" y2="325"/>
    <line x1="325" y1="522" x2="325" y2="528"/>
    <line x1="522" y1="325" x2="528" y2="325"/>
    <line x1="425" y1="22" x2="425" y2="28"/>
    <line x1="22" y1="425" x2="28" y2="425"/>
    <line x1="425" y1="522" x2="425" y2="528"/>
    <line x1="522" y1="425" x2="528" y2="425"/>
  </g>
  <g stroke="gray" stroke-width="1" stroke-dasharray="5,5">
    <line x1="125" y1="25" x2="125" y2="525"/>
    <line x1="25" y1="125" x2="525" y2="125"/>
    <line x1="225" y1="25" x2="225" y2="525"/>
    <line x1="25" y1="225" x2="525" y2="225"/>
    <line x1="325" y1="25" x2="325" y2="525"/>
    <line x1="25" y1="325" x2="525" y2="325"/>
    <line x1="425" y1="25" x2="425" y2="525"/>
    <line x1="25" y1="425" x2="525" y2="425"/>
  </g>
</svg>
