<?xml version="1.0" standalone="no"?>
<!DOCTYPE svg PUBLIC "-//W3C//DTD SVG 1.1//EN" 
  "http://www.w3.org/Graphics/SVG/1.1/DTD/svg11.dtd">
<svg width="528" height="528" version="1.1" id="toplevel"
    xmlns="http://www.w3.org/2000/svg"
    xmlns:xlink="http://www.w3.org/1999/xlink">
  <polygon points="391,523 412,274 307,15 183,5 178,67 116,79 142,202 166,209 142,503"
           fill="bisque"/>
  <g stroke="chocolate" stroke-width="1">
    <line x1="412" y1="274" x2="307" y2="15"/>
    <circle cx="412" cy="274" r="2"/>
    <circle cx="307" cy="15" r="2"/>
  </g>
  <g stroke="chocolate" stroke-width="1">
    <line x1="142" y1="202" x2="116" y2="79"/>
    <circle cx="142" cy="202" r="2"/>
    <circle cx="116" cy="79" r="2"/>
  </g>
  <g stroke="chocolate" stroke-width="1">
    <line x1="412" y1="274" x2="178" y2="67"/>
    <circle cx="412" cy="274" r="2"/>
    <circle cx="178" cy="67" r="2"/>
  </g>
  <g stroke="chocolate" stroke-width="1">
    <line x1="391" y1="523" x2="142" y2="503"/>
    <circle cx="391" cy="523" r="2"/>
    <circle cx="142" cy="503" r="2"/>
  </g>
  <g stroke="chocolate" stroke-width="1">
    <line x1="391" y1="523" x2="412" y2="274"/>
    <circle cx="391" cy="523" r="2"/>
    <circle cx="412" cy="274" r="2"/>
  </g>
  <g stroke="chocolate" stroke-width="1">
    <line x1="142" y1="503" x2="183" y2="5"/>
    <circle cx="142" cy="503" r="2"/>
    <circle cx="183" cy="5" r="2"/>
  </g>
  <g stroke="chocolate" stroke-width="1">
    <line x1="412" y1="274" x2="142" y2="202"/>
    <circle cx="412" cy="274" r="2"/>
    <circle cx="142" cy="202" r="2"/>
  </g>
  <g stroke="chocolate" stroke-width="1">
    <line x1="307" y1="15" x2="183" y2="5"/>
    <circle cx="307" cy="15" r="2"/>
    <circle cx="183" cy="5" r="2"/>
  </g>
  <g stroke="chocolate" stroke-width="1">
    <line x1="142" y1="202" x2="307" y2="15"/>
    <circle cx="142" cy="202" r="2"/>
    <circle cx="307" cy="15" r="2"/>
  </g>
  <g stroke="chocolate" stroke-width="1">
    <line x1="116" y1="79" x2="178" y2="67"/>
    <circle cx="116" cy="79" r="2"/>
    <circle cx="178" cy="67" r="2"/>
  </g>
  <g stroke="black" stroke-width="1">
    <line x1="14" y1="14" x2="514" y2="14"/>
    <line x1="14" y1="14" x2="14" y2="514"/>
    <line x1="514" y1="514" x2="14" y2="514"/>
    <line x1="514" y1="514" x2="514" y2="14"/>
    <line x1="114" y1="11" x2="114" y2="17"/>
    <line x1="11" y1="114" x2="17" y2="114"/>
    <line x1="114" y1="511" x2="114" y2="517"/>
    <line x1="511" y1="114" x2="517" y2="114"/>
    <line x1="214" y1="11" x2="214" y2="17"/>
    <line x1="11" y1="214" x2="17" y2="214"/>
    <line x1="214" y1="511" x2="214" y2="517"/>
    <line x1="511" y1="214" x2="517" y2="214"/>
    <line x1="314" y1="11" x2="314" y2="17"/>
    <line x1="11" y1="314" x2="17" y2="314"/>
    <line x1="314" y1="511" x2="314" y2="517"/>
    <line x1="511" y1="314" x2="517" y2="314"/>
    <line x1="414" y1="11" x2="414" y2="17"/>
    <line x1="11" y1="414" x2="17" y2="414"/>
    <line x1="414" y1="511" x2="414" y2="517"/>
    <line x1="511" y1="414" x2="517" y2="414"/>
  </g>
  <g stroke="gray" stroke-width="1" stroke-dasharray="5,5">
    <line x1="114" y1="14" x2="114" y2="514"/>
    <line x1="14" y1="114" x2="514" y2="114"/>
    <line x1="214" y1="14" x2="214" y2="514"/>
    <line x1="14" y1="214" x2="514" y2="214"/>
    <line x1="314" y1="14" x2="314" y2="514"/>
    <line x1="14" y1="314" x2="514" y2="314"/>
    <line x1="414" y1="14" x2="414" y2="514"/>
    <line x1="14" y1="414" x2="514" y2="414"/>
  </g>
</svg>
