<?xml version="1.0" standalone="no"?>
<!DOCTYPE svg PUBLIC "-//W3C//DTD SVG 1.1//EN" 
  "http://www.w3.org/Graphics/SVG/1.1/DTD/svg11.dtd">
<svg width="652" height="652" version="1.1" id="toplevel"
    xmlns="http://www.w3.org/2000/svg"
    xmlns:xlink="http://www.w3.org/1999/xlink">
  <polygon points="401,608 618,275 638,279 647,231 194,48 172,44 5,300 122,426"
           fill="bisque"/>
  <g stroke="chocolate" stroke-width="1">
    <line x1="184" y1="120" x2="201" y2="51"/>
    <circle cx="184" cy="120" r="2"/>
    <circle cx="201" cy="51" r="2"/>
  </g>
  <g stroke="chocolate" stroke-width="1">
    <line x1="638" y1="279" x2="647" y2="231"/>
    <circle cx="638" cy="279" r="2"/>
    <circle cx="647" cy="231" r="2"/>
  </g>
  <g stroke="chocolate" stroke-width="1">
    <line x1="201" y1="53" x2="201" y2="51"/>
    <circle cx="201" cy="53" r="2"/>
    <circle cx="201" cy="51" r="2"/>
  </g>
  <g stroke="chocolate" stroke-width="1">
    <line x1="200" y1="52" x2="201" y2="51"/>
    <circle cx="200" cy="52" r="2"/>
    <circle cx="201" cy="51" r="2"/>
  </g>
  <g stroke="chocolate" stroke-width="1">
    <line x1="401" y1="608" x2="647" y2="231"/>
    <circle cx="401" cy="608" r="2"/>
    <circle cx="647" cy="231" r="2"/>
  </g>
  <g stroke="chocolate" stroke-width="1">
    <line x1="5" y1="300" x2="172" y2="44"/>
    <circle cx="5" cy="300" r="2"/>
    <circle cx="172" cy="44" r="2"/>
  </g>
  <g stroke="chocolate" stroke-width="1">
    <line x1="200" y1="52" x2="201" y2="51"/>
    <circle cx="200" cy="52" r="2"/>
    <circle cx="201" cy="51" r="2"/>
  </g>
  <g stroke="chocolate" stroke-width="1">
    <line x1="184" y1="120" x2="172" y2="44"/>
    <circle cx="184" cy="120" r="2"/>
    <circle cx="172" cy="44" r="2"/>
  </g>
  <g stroke="chocolate" stroke-width="1">
    <line x1="122" y1="426" x2="41" y2="280"/>
    <circle cx="122" cy="426" r="2"/>
    <circle cx="41" cy="280" r="2"/>
  </g>
  <g stroke="chocolate" stroke-width="1">
    <line x1="5" y1="300" x2="41" y2="280"/>
    <circle cx="5" cy="300" r="2"/>
    <circle cx="41" cy="280" r="2"/>
  </g>
  <g stroke="chocolate" stroke-width="1">
    <line x1="540" y1="260" x2="525" y2="240"/>
    <circle cx="540" cy="260" r="2"/>
    <circle cx="525" cy="240" r="2"/>
  </g>
  <g stroke="chocolate" stroke-width="1">
    <line x1="122" y1="426" x2="5" y2="300"/>
    <circle cx="122" cy="426" r="2"/>
    <circle cx="5" cy="300" r="2"/>
  </g>
  <g stroke="chocolate" stroke-width="1">
    <line x1="525" y1="240" x2="398" y2="130"/>
    <circle cx="525" cy="240" r="2"/>
    <circle cx="398" cy="130" r="2"/>
  </g>
  <g stroke="chocolate" stroke-width="1">
    <line x1="283" y1="102" x2="210" y2="55"/>
    <circle cx="283" cy="102" r="2"/>
    <circle cx="210" cy="55" r="2"/>
  </g>
  <g stroke="chocolate" stroke-width="1">
    <line x1="401" y1="608" x2="122" y2="426"/>
    <circle cx="401" cy="608" r="2"/>
    <circle cx="122" cy="426" r="2"/>
  </g>
  <g stroke="chocolate" stroke-width="1">
    <line x1="540" y1="260" x2="194" y2="48"/>
    <circle cx="540" cy="260" r="2"/>
    <circle cx="194" cy="48" r="2"/>
  </g>
  <g stroke="chocolate" stroke-width="1">
    <line x1="525" y1="240" x2="283" y2="102"/>
    <circle cx="525" cy="240" r="2"/>
    <circle cx="283" cy="102" r="2"/>
  </g>
  <g stroke="chocolate" stroke-width="1">
    <line x1="398" y1="130" x2="184" y2="120"/>
    <circle cx="398" cy="130" r="2"/>
    <circle cx="184" cy="120" r="2"/>
  </g>
  <g stroke="chocolate" stroke-width="1">
    <line x1="647" y1="231" x2="194" y2="48"/>
    <circle cx="647" cy="231" r="2"/>
    <circle cx="194" cy="48" r="2"/>
  </g>
  <g stroke="chocolate" stroke-width="1">
    <line x1="210" y1="55" x2="201" y2="53"/>
    <circle cx="210" cy="55" r="2"/>
    <circle cx="201" cy="53" r="2"/>
  </g>
  <g stroke="chocolate" stroke-width="1">
    <line x1="638" y1="279" x2="540" y2="260"/>
    <circle cx="638" cy="279" r="2"/>
    <circle cx="540" cy="260" r="2"/>
  </g>
  <g stroke="chocolate" stroke-width="1">
    <line x1="194" y1="48" x2="172" y2="44"/>
    <circle cx="194" cy="48" r="2"/>
    <circle cx="172" cy="44" r="2"/>
  </g>
  <g stroke="black" stroke-width="1">
    <line x1="76" y1="76" x2="576" y2="76"/>
    <line x1="76" y1="76" x2="76" y2="576"/>
    <line x1="576" y1="576" x2="76" y2="576"/>
    <line x1="576" y1="576" x2="576" y2="76"/>
    <line x1="176" y1="73" x2="176" y2="79"/>
    <line x1="73" y1="176" x2="79" y2="176"/>
    <line x1="176" y1="573" x2="176" y2="579"/>
    <line x1="573" y1="176" x2="579" y2="176"/>
    <line x1="276" y1="73" x2="276" y2="79"/>
    <line x1="73" y1="276" x2="79" y2="276"/>
    <line x1="276" y1="573" x2="276" y2="579"/>
    <line x1="573" y1="276" x2="579" y2="276"/>
    <line x1="376" y1="73" x2="376" y2="79"/>
    <line x1="73" y1="376" x2="79" y2="376"/>
    <line x1="376" y1="573" x2="376" y2="579"/>
    <line x1="573" y1="376" x2="579" y2="376"/>
    <line x1="476" y1="73" x2="476" y2="79"/>
    <line x1="73" y1="476" x2="79" y2="476"/>
    <line x1="476" y1="573" x2="476" y2="579"/>
    <line x1="573" y1="476" x2="579" y2="476"/>
  </g>
  <g stroke="gray" stroke-width="1" stroke-dasharray="5,5">
    <line x1="176" y1="76" x2="176" y2="576"/>
    <line x1="76" y1="176" x2="576" y2="176"/>
    <line x1="276" y1="76" x2="276" y2="576"/>
    <line x1="76" y1="276" x2="576" y2="276"/>
    <line x1="376" y1="76" x2="376" y2="576"/>
    <line x1="76" y1="376" x2="576" y2="376"/>
    <line x1="476" y1="76" x2="476" y2="576"/>
    <line x1="76" y1="476" x2="576" y2="476"/>
  </g>
</svg>
