<?xml version="1.0" standalone="no"?>
<!DOCTYPE svg PUBLIC "-//W3C//DTD SVG 1.1//EN" 
  "http://www.w3.org/Graphics/SVG/1.1/DTD/svg11.dtd">
<svg width="510" height="510" version="1.1" id="toplevel"
    xmlns="http://www.w3.org/2000/svg"
    xmlns:xlink="http://www.w3.org/1999/xlink">
  <polygon points="290,496 327,494 339,459 385,424 355,416 505,5 170,178"
           fill="bisque"/>
  <g stroke="chocolate" stroke-width="1">
    <line x1="290" y1="496" x2="385" y2="424"/>
    <circle cx="290" cy="496" r="2"/>
    <circle cx="385" cy="424" r="2"/>
  </g>
  <g stroke="chocolate" stroke-width="1">
    <line x1="278" y1="463" x2="317" y2="406"/>
    <circle cx="278" cy="463" r="2"/>
    <circle cx="317" cy="406" r="2"/>
  </g>
  <g stroke="chocolate" stroke-width="1">
    <line x1="327" y1="494" x2="505" y2="5"/>
    <circle cx="327" cy="494" r="2"/>
    <circle cx="505" cy="5" r="2"/>
  </g>
  <g stroke="chocolate" stroke-width="1">
    <line x1="287" y1="455" x2="505" y2="5"/>
    <circle cx="287" cy="455" r="2"/>
    <circle cx="505" cy="5" r="2"/>
  </g>
  <g stroke="chocolate" stroke-width="1">
    <line x1="305" y1="405" x2="505" y2="5"/>
    <circle cx="305" cy="405" r="2"/>
    <circle cx="505" cy="5" r="2"/>
  </g>
  <g stroke="chocolate" stroke-width="1">
    <line x1="267" y1="434" x2="305" y2="405"/>
    <circle cx="267" cy="434" r="2"/>
    <circle cx="305" cy="405" r="2"/>
  </g>
  <g stroke="chocolate" stroke-width="1">
    <line x1="249" y1="388" x2="505" y2="5"/>
    <circle cx="249" cy="388" r="2"/>
    <circle cx="505" cy="5" r="2"/>
  </g>
  <g stroke="chocolate" stroke-width="1">
    <line x1="220" y1="311" x2="289" y2="148"/>
    <circle cx="220" cy="311" r="2"/>
    <circle cx="289" cy="148" r="2"/>
  </g>
  <g stroke="chocolate" stroke-width="1">
    <line x1="259" y1="413" x2="285" y2="398"/>
    <circle cx="259" cy="413" r="2"/>
    <circle cx="285" cy="398" r="2"/>
  </g>
  <g stroke="chocolate" stroke-width="1">
    <line x1="267" y1="436" x2="289" y2="148"/>
    <circle cx="267" cy="436" r="2"/>
    <circle cx="289" cy="148" r="2"/>
  </g>
  <g stroke="chocolate" stroke-width="1">
    <line x1="290" y1="496" x2="327" y2="494"/>
    <circle cx="290" cy="496" r="2"/>
    <circle cx="327" cy="494" r="2"/>
  </g>
  <g stroke="chocolate" stroke-width="1">
    <line x1="318" y1="430" x2="317" y2="406"/>
    <circle cx="318" cy="430" r="2"/>
    <circle cx="317" cy="406" r="2"/>
  </g>
  <g stroke="chocolate" stroke-width="1">
    <line x1="259" y1="413" x2="305" y2="405"/>
    <circle cx="259" cy="413" r="2"/>
    <circle cx="305" cy="405" r="2"/>
  </g>
  <g stroke="chocolate" stroke-width="1">
    <line x1="267" y1="434" x2="385" y2="424"/>
    <circle cx="267" cy="434" r="2"/>
    <circle cx="385" cy="424" r="2"/>
  </g>
  <g stroke="chocolate" stroke-width="1">
    <line x1="302" y1="428" x2="385" y2="424"/>
    <circle cx="302" cy="428" r="2"/>
    <circle cx="385" cy="424" r="2"/>
  </g>
  <g stroke="chocolate" stroke-width="1">
    <line x1="290" y1="496" x2="170" y2="178"/>
    <circle cx="290" cy="496" r="2"/>
    <circle cx="170" cy="178" r="2"/>
  </g>
  <g stroke="chocolate" stroke-width="1">
    <line x1="333" y1="477" x2="278" y2="463"/>
    <circle cx="333" cy="477" r="2"/>
    <circle cx="278" cy="463" r="2"/>
  </g>
  <g stroke="chocolate" stroke-width="1">
    <line x1="302" y1="428" x2="285" y2="398"/>
    <circle cx="302" cy="428" r="2"/>
    <circle cx="285" cy="398" r="2"/>
  </g>
  <g stroke="chocolate" stroke-width="1">
    <line x1="333" y1="477" x2="287" y2="455"/>
    <circle cx="333" cy="477" r="2"/>
    <circle cx="287" cy="455" r="2"/>
  </g>
  <g stroke="chocolate" stroke-width="1">
    <line x1="327" y1="494" x2="267" y2="436"/>
    <circle cx="327" cy="494" r="2"/>
    <circle cx="267" cy="436" r="2"/>
  </g>
  <g stroke="chocolate" stroke-width="1">
    <line x1="385" y1="424" x2="249" y2="388"/>
    <circle cx="385" cy="424" r="2"/>
    <circle cx="249" cy="388" r="2"/>
  </g>
  <g stroke="chocolate" stroke-width="1">
    <line x1="305" y1="405" x2="270" y2="358"/>
    <circle cx="305" cy="405" r="2"/>
    <circle cx="270" cy="358" r="2"/>
  </g>
  <g stroke="chocolate" stroke-width="1">
    <line x1="170" y1="178" x2="505" y2="5"/>
    <circle cx="170" cy="178" r="2"/>
    <circle cx="505" cy="5" r="2"/>
  </g>
  <g stroke="chocolate" stroke-width="1">
    <line x1="367" y1="383" x2="270" y2="358"/>
    <circle cx="367" cy="383" r="2"/>
    <circle cx="270" cy="358" r="2"/>
  </g>
  <g stroke="chocolate" stroke-width="1">
    <line x1="367" y1="383" x2="220" y2="311"/>
    <circle cx="367" cy="383" r="2"/>
    <circle cx="220" cy="311" r="2"/>
  </g>
  <g stroke="chocolate" stroke-width="1">
    <line x1="170" y1="178" x2="289" y2="148"/>
    <circle cx="170" cy="178" r="2"/>
    <circle cx="289" cy="148" r="2"/>
  </g>
  <g stroke="black" stroke-width="1">
    <line x1="5" y1="5" x2="505" y2="5"/>
    <line x1="5" y1="5" x2="5" y2="505"/>
    <line x1="505" y1="505" x2="5" y2="505"/>
    <line x1="505" y1="505" x2="505" y2="5"/>
    <line x1="105" y1="2" x2="105" y2="8"/>
    <line x1="2" y1="105" x2="8" y2="105"/>
    <line x1="105" y1="502" x2="105" y2="508"/>
    <line x1="502" y1="105" x2="508" y2="105"/>
    <line x1="205" y1="2" x2="205" y2="8"/>
    <line x1="2" y1="205" x2="8" y2="205"/>
    <line x1="205" y1="502" x2="205" y2="508"/>
    <line x1="502" y1="205" x2="508" y2="205"/>
    <line x1="305" y1="2" x2="305" y2="8"/>
    <line x1="2" y1="305" x2="8" y2="305"/>
    <line x1="305" y1="502" x2="305" y2="508"/>
    <line x1="502" y1="305" x2="508" y2="305"/>
    <line x1="405" y1="2" x2="405" y2="8"/>
    <line x1="2" y1="405" x2="8" y2="405"/>
    <line x1="405" y1="502" x2="405" y2="508"/>
    <line x1="502" y1="405" x2="508" y2="405"/>
  </g>
  <g stroke="gray" stroke-width="1" stroke-dasharray="5,5">
    <line x1="105" y1="5" x2="105" y2="505"/>
    <line x1="5" y1="105" x2="505" y2="105"/>
    <line x1="205" y1="5" x2="205" y2="505"/>
    <line x1="5" y1="205" x2="505" y2="205"/>
    <line x1="305" y1="5" x2="305" y2="505"/>
    <line x1="5" y1="305" x2="505" y2="305"/>
    <line x1="405" y1="5" x2="405" y2="505"/>
    <line x1="5" y1="405" x2="505" y2="405"/>
  </g>
</svg>
