<?xml version="1.0" standalone="no"?>
<!DOCTYPE svg PUBLIC "-//W3C//DTD SVG 1.1//EN" 
  "http://www.w3.org/Graphics/SVG/1.1/DTD/svg11.dtd">
<svg width="510" height="510" version="1.1" id="toplevel"
    xmlns="http://www.w3.org/2000/svg"
    xmlns:xlink="http://www.w3.org/1999/xlink">
  <polygon points="171,372 369,275 343,216 291,237 256,249 205,138 154,159 156,162 143,168 194,271 208,277 141,307 148,324 145,325"
           fill="bisque"/>
  <g stroke="chocolate" stroke-width="1">
    <line x1="171" y1="372" x2="369" y2="275"/>
    <circle cx="171" cy="372" r="2"/>
    <circle cx="369" cy="275" r="2"/>
  </g>
  <g stroke="chocolate" stroke-width="1">
    <line x1="145" y1="325" x2="345" y2="219"/>
    <circle cx="145" cy="325" r="2"/>
    <circle cx="345" cy="219" r="2"/>
  </g>
  <g stroke="chocolate" stroke-width="1">
    <line x1="171" y1="372" x2="141" y2="307"/>
    <circle cx="171" cy="372" r="2"/>
    <circle cx="141" cy="307" r="2"/>
  </g>
  <g stroke="chocolate" stroke-width="1">
    <line x1="202" y1="274" x2="154" y2="159"/>
    <circle cx="202" cy="274" r="2"/>
    <circle cx="154" cy="159" r="2"/>
  </g>
  <g stroke="chocolate" stroke-width="1">
    <line x1="283" y1="307" x2="369" y2="275"/>
    <circle cx="283" cy="307" r="2"/>
    <circle cx="369" cy="275" r="2"/>
  </g>
  <g stroke="chocolate" stroke-width="1">
    <line x1="171" y1="372" x2="145" y2="325"/>
    <circle cx="171" cy="372" r="2"/>
    <circle cx="145" cy="325" r="2"/>
  </g>
  <g stroke="chocolate" stroke-width="1">
    <line x1="141" y1="307" x2="343" y2="216"/>
    <circle cx="141" cy="307" r="2"/>
    <circle cx="343" cy="216" r="2"/>
  </g>
  <g stroke="chocolate" stroke-width="1">
    <line x1="194" y1="271" x2="143" y2="168"/>
    <circle cx="194" cy="271" r="2"/>
    <circle cx="143" cy="168" r="2"/>
  </g>
  <g stroke="chocolate" stroke-width="1">
    <line x1="283" y1="307" x2="205" y2="138"/>
    <circle cx="283" cy="307" r="2"/>
    <circle cx="205" cy="138" r="2"/>
  </g>
  <g stroke="chocolate" stroke-width="1">
    <line x1="202" y1="274" x2="343" y2="216"/>
    <circle cx="202" cy="274" r="2"/>
    <circle cx="343" cy="216" r="2"/>
  </g>
  <g stroke="chocolate" stroke-width="1">
    <line x1="369" y1="275" x2="343" y2="216"/>
    <circle cx="369" cy="275" r="2"/>
    <circle cx="343" cy="216" r="2"/>
  </g>
  <g stroke="chocolate" stroke-width="1">
    <line x1="194" y1="271" x2="345" y2="219"/>
    <circle cx="194" cy="271" r="2"/>
    <circle cx="345" cy="219" r="2"/>
  </g>
  <g stroke="chocolate" stroke-width="1">
    <line x1="143" y1="168" x2="205" y2="138"/>
    <circle cx="143" cy="168" r="2"/>
    <circle cx="205" cy="138" r="2"/>
  </g>
  <g stroke="chocolate" stroke-width="1">
    <line x1="154" y1="159" x2="205" y2="138"/>
    <circle cx="154" cy="159" r="2"/>
    <circle cx="205" cy="138" r="2"/>
  </g>
  <g stroke="chocolate" stroke-width="1">
    <line x1="283" y1="307" x2="194" y2="271"/>
    <circle cx="283" cy="307" r="2"/>
    <circle cx="194" cy="271" r="2"/>
  </g>
  <g stroke="black" stroke-width="1">
    <line x1="5" y1="5" x2="505" y2="5"/>
    <line x1="5" y1="5" x2="5" y2="505"/>
    <line x1="505" y1="505" x2="5" y2="505"/>
    <line x1="505" y1="505" x2="505" y2="5"/>
    <line x1="105" y1="2" x2="105" y2="8"/>
    <line x1="2" y1="105" x2="8" y2="105"/>
    <line x1="105" y1="502" x2="105" y2="508"/>
    <line x1="502" y1="105" x2="508" y2="105"/>
    <line x1="205" y1="2" x2="205" y2="8"/>
    <line x1="2" y1="205" x2="8" y2="205"/>
    <line x1="205" y1="502" x2="205" y2="508"/>
    <line x1="502" y1="205" x2="508" y2="205"/>
    <line x1="305" y1="2" x2="305" y2="8"/>
    <line x1="2" y1="305" x2="8" y2="305"/>
    <line x1="305" y1="502" x2="305" y2="508"/>
    <line x1="502" y1="305" x2="508" y2="305"/>
    <line x1="405" y1="2" x2="405" y2="8"/>
    <line x1="2" y1="405" x2="8" y2="405"/>
    <line x1="405" y1="502" x2="405" y2="508"/>
    <line x1="502" y1="405" x2="508" y2="405"/>
  </g>
  <g stroke="gray" stroke-width="1" stroke-dasharray="5,5">
    <line x1="105" y1="5" x2="105" y2="505"/>
    <line x1="5" y1="105" x2="505" y2="105"/>
    <line x1="205" y1="5" x2="205" y2="505"/>
    <line x1="5" y1="205" x2="505" y2="205"/>
    <line x1="305" y1="5" x2="305" y2="505"/>
    <line x1="5" y1="305" x2="505" y2="305"/>
    <line x1="405" y1="5" x2="405" y2="505"/>
    <line x1="5" y1="405" x2="505" y2="405"/>
  </g>
</svg>
