<?xml version="1.0" standalone="no"?>
<!DOCTYPE svg PUBLIC "-//W3C//DTD SVG 1.1//EN" 
  "http://www.w3.org/Graphics/SVG/1.1/DTD/svg11.dtd">
<svg width="510" height="510" version="1.1" id="toplevel"
    xmlns="http://www.w3.org/2000/svg"
    xmlns:xlink="http://www.w3.org/1999/xlink">
  <polygon points="26,390 43,370 467,370 484,390 485,370 479,363 498,363 505,355 491,356 255,120 19,356 5,355 12,363 31,363 25,370"
           fill="bisque"/>
  <g stroke="chocolate" stroke-width="1">
    <line x1="498" y1="363" x2="505" y2="355"/>
    <circle cx="498" cy="363" r="2"/>
    <circle cx="505" cy="355" r="2"/>
  </g>
  <g stroke="chocolate" stroke-width="1">
    <line x1="484" y1="390" x2="485" y2="370"/>
    <circle cx="484" cy="390" r="2"/>
    <circle cx="485" cy="370" r="2"/>
  </g>
  <g stroke="chocolate" stroke-width="1">
    <line x1="26" y1="390" x2="255" y2="120"/>
    <circle cx="26" cy="390" r="2"/>
    <circle cx="255" cy="120" r="2"/>
  </g>
  <g stroke="chocolate" stroke-width="1">
    <line x1="255" y1="370" x2="505" y2="355"/>
    <circle cx="255" cy="370" r="2"/>
    <circle cx="505" cy="355" r="2"/>
  </g>
  <g stroke="chocolate" stroke-width="1">
    <line x1="25" y1="370" x2="255" y2="120"/>
    <circle cx="25" cy="370" r="2"/>
    <circle cx="255" cy="120" r="2"/>
  </g>
  <g stroke="chocolate" stroke-width="1">
    <line x1="255" y1="370" x2="498" y2="363"/>
    <circle cx="255" cy="370" r="2"/>
    <circle cx="498" cy="363" r="2"/>
  </g>
  <g stroke="chocolate" stroke-width="1">
    <line x1="25" y1="370" x2="485" y2="370"/>
    <circle cx="25" cy="370" r="2"/>
    <circle cx="485" cy="370" r="2"/>
  </g>
  <g stroke="chocolate" stroke-width="1">
    <line x1="12" y1="363" x2="255" y2="120"/>
    <circle cx="12" cy="363" r="2"/>
    <circle cx="255" cy="120" r="2"/>
  </g>
  <g stroke="chocolate" stroke-width="1">
    <line x1="255" y1="370" x2="255" y2="120"/>
    <circle cx="255" cy="370" r="2"/>
    <circle cx="255" cy="120" r="2"/>
  </g>
  <g stroke="chocolate" stroke-width="1">
    <line x1="26" y1="390" x2="25" y2="370"/>
    <circle cx="26" cy="390" r="2"/>
    <circle cx="25" cy="370" r="2"/>
  </g>
  <g stroke="chocolate" stroke-width="1">
    <line x1="12" y1="363" x2="5" y2="355"/>
    <circle cx="12" cy="363" r="2"/>
    <circle cx="5" cy="355" r="2"/>
  </g>
  <g stroke="chocolate" stroke-width="1">
    <line x1="255" y1="370" x2="12" y2="363"/>
    <circle cx="255" cy="370" r="2"/>
    <circle cx="12" cy="363" r="2"/>
  </g>
  <g stroke="chocolate" stroke-width="1">
    <line x1="255" y1="370" x2="5" y2="355"/>
    <circle cx="255" cy="370" r="2"/>
    <circle cx="5" cy="355" r="2"/>
  </g>
  <g stroke="chocolate" stroke-width="1">
    <line x1="484" y1="390" x2="255" y2="120"/>
    <circle cx="484" cy="390" r="2"/>
    <circle cx="255" cy="120" r="2"/>
  </g>
  <g stroke="chocolate" stroke-width="1">
    <line x1="485" y1="370" x2="255" y2="120"/>
    <circle cx="485" cy="370" r="2"/>
    <circle cx="255" cy="120" r="2"/>
  </g>
  <g stroke="chocolate" stroke-width="1">
    <line x1="498" y1="363" x2="255" y2="120"/>
    <circle cx="498" cy="363" r="2"/>
    <circle cx="255" cy="120" r="2"/>
  </g>
  <g stroke="black" stroke-width="1">
    <line x1="5" y1="5" x2="505" y2="5"/>
    <line x1="5" y1="5" x2="5" y2="505"/>
    <line x1="505" y1="505" x2="5" y2="505"/>
    <line x1="505" y1="505" x2="505" y2="5"/>
    <line x1="105" y1="2" x2="105" y2="8"/>
    <line x1="2" y1="105" x2="8" y2="105"/>
    <line x1="105" y1="502" x2="105" y2="508"/>
    <line x1="502" y1="105" x2="508" y2="105"/>
    <line x1="205" y1="2" x2="205" y2="8"/>
    <line x1="2" y1="205" x2="8" y2="205"/>
    <line x1="205" y1="502" x2="205" y2="508"/>
    <line x1="502" y1="205" x2="508" y2="205"/>
    <line x1="305" y1="2" x2="305" y2="8"/>
    <line x1="2" y1="305" x2="8" y2="305"/>
    <line x1="305" y1="502" x2="305" y2="508"/>
    <line x1="502" y1="305" x2="508" y2="305"/>
    <line x1="405" y1="2" x2="405" y2="8"/>
    <line x1="2" y1="405" x2="8" y2="405"/>
    <line x1="405" y1="502" x2="405" y2="508"/>
    <line x1="502" y1="405" x2="508" y2="405"/>
  </g>
  <g stroke="gray" stroke-width="1" stroke-dasharray="5,5">
    <line x1="105" y1="5" x2="105" y2="505"/>
    <line x1="5" y1="105" x2="505" y2="105"/>
    <line x1="205" y1="5" x2="205" y2="505"/>
    <line x1="5" y1="205" x2="505" y2="205"/>
    <line x1="305" y1="5" x2="305" y2="505"/>
    <line x1="5" y1="305" x2="505" y2="305"/>
    <line x1="405" y1="5" x2="405" y2="505"/>
    <line x1="5" y1="405" x2="505" y2="405"/>
  </g>
</svg>
