<?xml version="1.0" standalone="no"?>
<!DOCTYPE svg PUBLIC "-//W3C//DTD SVG 1.1//EN" 
  "http://www.w3.org/Graphics/SVG/1.1/DTD/svg11.dtd">
<svg width="510" height="510" version="1.1" id="toplevel"
    xmlns="http://www.w3.org/2000/svg"
    xmlns:xlink="http://www.w3.org/1999/xlink">
  <polygon points="70,403 446,385 481,270 370,329 311,218 142,167 201,277 122,319 29,305"
           fill="bisque"/>
  <g stroke="chocolate" stroke-width="1">
    <line x1="420" y1="386" x2="437" y2="365"/>
    <circle cx="420" cy="386" r="2"/>
    <circle cx="437" cy="365" r="2"/>
  </g>
  <g stroke="chocolate" stroke-width="1">
    <line x1="408" y1="387" x2="414" y2="380"/>
    <circle cx="408" cy="387" r="2"/>
    <circle cx="414" cy="380" r="2"/>
  </g>
  <g stroke="chocolate" stroke-width="1">
    <line x1="401" y1="387" x2="412" y2="361"/>
    <circle cx="401" cy="387" r="2"/>
    <circle cx="412" cy="361" r="2"/>
  </g>
  <g stroke="chocolate" stroke-width="1">
    <line x1="446" y1="385" x2="481" y2="270"/>
    <circle cx="446" cy="385" r="2"/>
    <circle cx="481" cy="270" r="2"/>
  </g>
  <g stroke="chocolate" stroke-width="1">
    <line x1="258" y1="394" x2="311" y2="218"/>
    <circle cx="258" cy="394" r="2"/>
    <circle cx="311" cy="218" r="2"/>
  </g>
  <g stroke="chocolate" stroke-width="1">
    <line x1="182" y1="398" x2="233" y2="335"/>
    <circle cx="182" cy="398" r="2"/>
    <circle cx="233" cy="335" r="2"/>
  </g>
  <g stroke="chocolate" stroke-width="1">
    <line x1="125" y1="401" x2="157" y2="324"/>
    <circle cx="125" cy="401" r="2"/>
    <circle cx="157" cy="324" r="2"/>
  </g>
  <g stroke="chocolate" stroke-width="1">
    <line x1="246" y1="395" x2="481" y2="270"/>
    <circle cx="246" cy="395" r="2"/>
    <circle cx="481" cy="270" r="2"/>
  </g>
  <g stroke="chocolate" stroke-width="1">
    <line x1="145" y1="400" x2="164" y2="380"/>
    <circle cx="145" cy="400" r="2"/>
    <circle cx="164" cy="380" r="2"/>
  </g>
  <g stroke="chocolate" stroke-width="1">
    <line x1="70" y1="403" x2="91" y2="336"/>
    <circle cx="70" cy="403" r="2"/>
    <circle cx="91" cy="336" r="2"/>
  </g>
  <g stroke="chocolate" stroke-width="1">
    <line x1="164" y1="399" x2="164" y2="380"/>
    <circle cx="164" cy="399" r="2"/>
    <circle cx="164" cy="380" r="2"/>
  </g>
  <g stroke="chocolate" stroke-width="1">
    <line x1="414" y1="386" x2="414" y2="380"/>
    <circle cx="414" cy="386" r="2"/>
    <circle cx="414" cy="380" r="2"/>
  </g>
  <g stroke="chocolate" stroke-width="1">
    <line x1="279" y1="393" x2="369" y2="355"/>
    <circle cx="279" cy="393" r="2"/>
    <circle cx="369" cy="355" r="2"/>
  </g>
  <g stroke="chocolate" stroke-width="1">
    <line x1="164" y1="399" x2="157" y2="324"/>
    <circle cx="164" cy="399" r="2"/>
    <circle cx="157" cy="324" r="2"/>
  </g>
  <g stroke="chocolate" stroke-width="1">
    <line x1="70" y1="403" x2="29" y2="305"/>
    <circle cx="70" cy="403" r="2"/>
    <circle cx="29" cy="305" r="2"/>
  </g>
  <g stroke="chocolate" stroke-width="1">
    <line x1="414" y1="386" x2="412" y2="361"/>
    <circle cx="414" cy="386" r="2"/>
    <circle cx="412" cy="361" r="2"/>
  </g>
  <g stroke="chocolate" stroke-width="1">
    <line x1="125" y1="401" x2="91" y2="336"/>
    <circle cx="125" cy="401" r="2"/>
    <circle cx="91" cy="336" r="2"/>
  </g>
  <g stroke="chocolate" stroke-width="1">
    <line x1="258" y1="394" x2="233" y2="335"/>
    <circle cx="258" cy="394" r="2"/>
    <circle cx="233" cy="335" r="2"/>
  </g>
  <g stroke="chocolate" stroke-width="1">
    <line x1="70" y1="403" x2="446" y2="385"/>
    <circle cx="70" cy="403" r="2"/>
    <circle cx="446" cy="385" r="2"/>
  </g>
  <g stroke="chocolate" stroke-width="1">
    <line x1="91" y1="336" x2="311" y2="218"/>
    <circle cx="91" cy="336" r="2"/>
    <circle cx="311" cy="218" r="2"/>
  </g>
  <g stroke="chocolate" stroke-width="1">
    <line x1="145" y1="400" x2="29" y2="305"/>
    <circle cx="145" cy="400" r="2"/>
    <circle cx="29" cy="305" r="2"/>
  </g>
  <g stroke="chocolate" stroke-width="1">
    <line x1="260" y1="387" x2="142" y2="167"/>
    <circle cx="260" cy="387" r="2"/>
    <circle cx="142" cy="167" r="2"/>
  </g>
  <g stroke="chocolate" stroke-width="1">
    <line x1="164" y1="380" x2="414" y2="380"/>
    <circle cx="164" cy="380" r="2"/>
    <circle cx="414" cy="380" r="2"/>
  </g>
  <g stroke="chocolate" stroke-width="1">
    <line x1="182" y1="398" x2="164" y2="380"/>
    <circle cx="182" cy="398" r="2"/>
    <circle cx="164" cy="380" r="2"/>
  </g>
  <g stroke="chocolate" stroke-width="1">
    <line x1="446" y1="385" x2="437" y2="365"/>
    <circle cx="446" cy="385" r="2"/>
    <circle cx="437" cy="365" r="2"/>
  </g>
  <g stroke="chocolate" stroke-width="1">
    <line x1="246" y1="395" x2="29" y2="305"/>
    <circle cx="246" cy="395" r="2"/>
    <circle cx="29" cy="305" r="2"/>
  </g>
  <g stroke="chocolate" stroke-width="1">
    <line x1="279" y1="393" x2="91" y2="336"/>
    <circle cx="279" cy="393" r="2"/>
    <circle cx="91" cy="336" r="2"/>
  </g>
  <g stroke="chocolate" stroke-width="1">
    <line x1="401" y1="387" x2="311" y2="218"/>
    <circle cx="401" cy="387" r="2"/>
    <circle cx="311" cy="218" r="2"/>
  </g>
  <g stroke="chocolate" stroke-width="1">
    <line x1="437" y1="365" x2="29" y2="305"/>
    <circle cx="437" cy="365" r="2"/>
    <circle cx="29" cy="305" r="2"/>
  </g>
  <g stroke="chocolate" stroke-width="1">
    <line x1="420" y1="386" x2="414" y2="380"/>
    <circle cx="420" cy="386" r="2"/>
    <circle cx="414" cy="380" r="2"/>
  </g>
  <g stroke="chocolate" stroke-width="1">
    <line x1="408" y1="387" x2="369" y2="355"/>
    <circle cx="408" cy="387" r="2"/>
    <circle cx="369" cy="355" r="2"/>
  </g>
  <g stroke="chocolate" stroke-width="1">
    <line x1="311" y1="218" x2="142" y2="167"/>
    <circle cx="311" cy="218" r="2"/>
    <circle cx="142" cy="167" r="2"/>
  </g>
  <g stroke="black" stroke-width="1">
    <line x1="5" y1="5" x2="505" y2="5"/>
    <line x1="5" y1="5" x2="5" y2="505"/>
    <line x1="505" y1="505" x2="5" y2="505"/>
    <line x1="505" y1="505" x2="505" y2="5"/>
    <line x1="105" y1="2" x2="105" y2="8"/>
    <line x1="2" y1="105" x2="8" y2="105"/>
    <line x1="105" y1="502" x2="105" y2="508"/>
    <line x1="502" y1="105" x2="508" y2="105"/>
    <line x1="205" y1="2" x2="205" y2="8"/>
    <line x1="2" y1="205" x2="8" y2="205"/>
    <line x1="205" y1="502" x2="205" y2="508"/>
    <line x1="502" y1="205" x2="508" y2="205"/>
    <line x1="305" y1="2" x2="305" y2="8"/>
    <line x1="2" y1="305" x2="8" y2="305"/>
    <line x1="305" y1="502" x2="305" y2="508"/>
    <line x1="502" y1="305" x2="508" y2="305"/>
    <line x1="405" y1="2" x2="405" y2="8"/>
    <line x1="2" y1="405" x2="8" y2="405"/>
    <line x1="405" y1="502" x2="405" y2="508"/>
    <line x1="502" y1="405" x2="508" y2="405"/>
  </g>
  <g stroke="gray" stroke-width="1" stroke-dasharray="5,5">
    <line x1="105" y1="5" x2="105" y2="505"/>
    <line x1="5" y1="105" x2="505" y2="105"/>
    <line x1="205" y1="5" x2="205" y2="505"/>
    <line x1="5" y1="205" x2="505" y2="205"/>
    <line x1="305" y1="5" x2="305" y2="505"/>
    <line x1="5" y1="305" x2="505" y2="305"/>
    <line x1="405" y1="5" x2="405" y2="505"/>
    <line x1="5" y1="405" x2="505" y2="405"/>
  </g>
</svg>
