<?xml version="1.0" standalone="no"?>
<!DOCTYPE svg PUBLIC "-//W3C//DTD SVG 1.1//EN" 
  "http://www.w3.org/Graphics/SVG/1.1/DTD/svg11.dtd">
<svg width="510" height="510" version="1.1" id="toplevel"
    xmlns="http://www.w3.org/2000/svg"
    xmlns:xlink="http://www.w3.org/1999/xlink">
  <polygon points="105,455 280,430 355,330 455,405 430,230 330,155 405,55 230,80 155,180 55,105 80,280 180,355"
           fill="bisque"/>
  <g stroke="chocolate" stroke-width="1">
    <line x1="280" y1="430" x2="430" y2="230"/>
    <circle cx="280" cy="430" r="2"/>
    <circle cx="430" cy="230" r="2"/>
  </g>
  <g stroke="chocolate" stroke-width="1">
    <line x1="105" y1="455" x2="405" y2="55"/>
    <circle cx="105" cy="455" r="2"/>
    <circle cx="405" cy="55" r="2"/>
  </g>
  <g stroke="chocolate" stroke-width="1">
    <line x1="80" y1="280" x2="230" y2="80"/>
    <circle cx="80" cy="280" r="2"/>
    <circle cx="230" cy="80" r="2"/>
  </g>
  <g stroke="chocolate" stroke-width="1">
    <line x1="105" y1="455" x2="280" y2="430"/>
    <circle cx="105" cy="455" r="2"/>
    <circle cx="280" cy="430" r="2"/>
  </g>
  <g stroke="chocolate" stroke-width="1">
    <line x1="80" y1="280" x2="55" y2="105"/>
    <circle cx="80" cy="280" r="2"/>
    <circle cx="55" cy="105" r="2"/>
  </g>
  <g stroke="chocolate" stroke-width="1">
    <line x1="280" y1="430" x2="230" y2="80"/>
    <circle cx="280" cy="430" r="2"/>
    <circle cx="230" cy="80" r="2"/>
  </g>
  <g stroke="chocolate" stroke-width="1">
    <line x1="455" y1="405" x2="430" y2="230"/>
    <circle cx="455" cy="405" r="2"/>
    <circle cx="430" cy="230" r="2"/>
  </g>
  <g stroke="chocolate" stroke-width="1">
    <line x1="80" y1="280" x2="430" y2="230"/>
    <circle cx="80" cy="280" r="2"/>
    <circle cx="430" cy="230" r="2"/>
  </g>
  <g stroke="chocolate" stroke-width="1">
    <line x1="280" y1="430" x2="80" y2="280"/>
    <circle cx="280" cy="430" r="2"/>
    <circle cx="80" cy="280" r="2"/>
  </g>
  <g stroke="chocolate" stroke-width="1">
    <line x1="230" y1="80" x2="405" y2="55"/>
    <circle cx="230" cy="80" r="2"/>
    <circle cx="405" cy="55" r="2"/>
  </g>
  <g stroke="chocolate" stroke-width="1">
    <line x1="455" y1="405" x2="55" y2="105"/>
    <circle cx="455" cy="405" r="2"/>
    <circle cx="55" cy="105" r="2"/>
  </g>
  <g stroke="chocolate" stroke-width="1">
    <line x1="430" y1="230" x2="230" y2="80"/>
    <circle cx="430" cy="230" r="2"/>
    <circle cx="230" cy="80" r="2"/>
  </g>
  <g stroke="black" stroke-width="1">
    <line x1="5" y1="5" x2="505" y2="5"/>
    <line x1="5" y1="5" x2="5" y2="505"/>
    <line x1="505" y1="505" x2="5" y2="505"/>
    <line x1="505" y1="505" x2="505" y2="5"/>
    <line x1="105" y1="2" x2="105" y2="8"/>
    <line x1="2" y1="105" x2="8" y2="105"/>
    <line x1="105" y1="502" x2="105" y2="508"/>
    <line x1="502" y1="105" x2="508" y2="105"/>
    <line x1="205" y1="2" x2="205" y2="8"/>
    <line x1="2" y1="205" x2="8" y2="205"/>
    <line x1="205" y1="502" x2="205" y2="508"/>
    <line x1="502" y1="205" x2="508" y2="205"/>
    <line x1="305" y1="2" x2="305" y2="8"/>
    <line x1="2" y1="305" x2="8" y2="305"/>
    <line x1="305" y1="502" x2="305" y2="508"/>
    <line x1="502" y1="305" x2="508" y2="305"/>
    <line x1="405" y1="2" x2="405" y2="8"/>
    <line x1="2" y1="405" x2="8" y2="405"/>
    <line x1="405" y1="502" x2="405" y2="508"/>
    <line x1="502" y1="405" x2="508" y2="405"/>
  </g>
  <g stroke="gray" stroke-width="1" stroke-dasharray="5,5">
    <line x1="105" y1="5" x2="105" y2="505"/>
    <line x1="5" y1="105" x2="505" y2="105"/>
    <line x1="205" y1="5" x2="205" y2="505"/>
    <line x1="5" y1="205" x2="505" y2="205"/>
    <line x1="305" y1="5" x2="305" y2="505"/>
    <line x1="5" y1="305" x2="505" y2="305"/>
    <line x1="405" y1="5" x2="405" y2="505"/>
    <line x1="5" y1="405" x2="505" y2="405"/>
  </g>
</svg>
