<?xml version="1.0" standalone="no"?>
<!DOCTYPE svg PUBLIC "-//W3C//DTD SVG 1.1//EN" 
  "http://www.w3.org/Graphics/SVG/1.1/DTD/svg11.dtd">
<svg width="510" height="510" version="1.1" id="toplevel"
    xmlns="http://www.w3.org/2000/svg"
    xmlns:xlink="http://www.w3.org/1999/xlink">
  <polygon points="403,400 413,399 410,296 420,160 407,159 406,142 150,110 90,305 211,344 211,364 267,362 268,356 339,376 349,343"
           fill="bisque"/>
  <g stroke="chocolate" stroke-width="1">
    <line x1="151" y1="137" x2="150" y2="110"/>
    <circle cx="151" cy="137" r="2"/>
    <circle cx="150" cy="110" r="2"/>
  </g>
  <g stroke="chocolate" stroke-width="1">
    <line x1="211" y1="364" x2="203" y2="117"/>
    <circle cx="211" cy="364" r="2"/>
    <circle cx="203" cy="117" r="2"/>
  </g>
  <g stroke="chocolate" stroke-width="1">
    <line x1="413" y1="399" x2="406" y2="142"/>
    <circle cx="413" cy="399" r="2"/>
    <circle cx="406" cy="142" r="2"/>
  </g>
  <g stroke="chocolate" stroke-width="1">
    <line x1="409" y1="267" x2="381" y2="157"/>
    <circle cx="409" cy="267" r="2"/>
    <circle cx="381" cy="157" r="2"/>
  </g>
  <g stroke="chocolate" stroke-width="1">
    <line x1="403" y1="400" x2="420" y2="160"/>
    <circle cx="403" cy="400" r="2"/>
    <circle cx="420" cy="160" r="2"/>
  </g>
  <g stroke="chocolate" stroke-width="1">
    <line x1="409" y1="267" x2="420" y2="160"/>
    <circle cx="409" cy="267" r="2"/>
    <circle cx="420" cy="160" r="2"/>
  </g>
  <g stroke="chocolate" stroke-width="1">
    <line x1="284" y1="275" x2="300" y2="129"/>
    <circle cx="284" cy="275" r="2"/>
    <circle cx="300" cy="129" r="2"/>
  </g>
  <g stroke="chocolate" stroke-width="1">
    <line x1="267" y1="362" x2="300" y2="129"/>
    <circle cx="267" cy="362" r="2"/>
    <circle cx="300" cy="129" r="2"/>
  </g>
  <g stroke="chocolate" stroke-width="1">
    <line x1="339" y1="376" x2="406" y2="142"/>
    <circle cx="339" cy="376" r="2"/>
    <circle cx="406" cy="142" r="2"/>
  </g>
  <g stroke="chocolate" stroke-width="1">
    <line x1="187" y1="174" x2="203" y2="117"/>
    <circle cx="187" cy="174" r="2"/>
    <circle cx="203" cy="117" r="2"/>
  </g>
  <g stroke="chocolate" stroke-width="1">
    <line x1="90" y1="305" x2="150" y2="110"/>
    <circle cx="90" cy="305" r="2"/>
    <circle cx="150" cy="110" r="2"/>
  </g>
  <g stroke="chocolate" stroke-width="1">
    <line x1="369" y1="184" x2="381" y2="157"/>
    <circle cx="369" cy="184" r="2"/>
    <circle cx="381" cy="157" r="2"/>
  </g>
  <g stroke="chocolate" stroke-width="1">
    <line x1="403" y1="400" x2="151" y2="137"/>
    <circle cx="403" cy="400" r="2"/>
    <circle cx="151" cy="137" r="2"/>
  </g>
  <g stroke="chocolate" stroke-width="1">
    <line x1="369" y1="184" x2="289" y2="149"/>
    <circle cx="369" cy="184" r="2"/>
    <circle cx="289" cy="149" r="2"/>
  </g>
  <g stroke="chocolate" stroke-width="1">
    <line x1="267" y1="362" x2="90" y2="305"/>
    <circle cx="267" cy="362" r="2"/>
    <circle cx="90" cy="305" r="2"/>
  </g>
  <g stroke="chocolate" stroke-width="1">
    <line x1="339" y1="376" x2="90" y2="305"/>
    <circle cx="339" cy="376" r="2"/>
    <circle cx="90" cy="305" r="2"/>
  </g>
  <g stroke="chocolate" stroke-width="1">
    <line x1="406" y1="142" x2="150" y2="110"/>
    <circle cx="406" cy="142" r="2"/>
    <circle cx="150" cy="110" r="2"/>
  </g>
  <g stroke="chocolate" stroke-width="1">
    <line x1="420" y1="160" x2="151" y2="137"/>
    <circle cx="420" cy="160" r="2"/>
    <circle cx="151" cy="137" r="2"/>
  </g>
  <g stroke="chocolate" stroke-width="1">
    <line x1="187" y1="174" x2="289" y2="149"/>
    <circle cx="187" cy="174" r="2"/>
    <circle cx="289" cy="149" r="2"/>
  </g>
  <g stroke="chocolate" stroke-width="1">
    <line x1="403" y1="400" x2="413" y2="399"/>
    <circle cx="403" cy="400" r="2"/>
    <circle cx="413" cy="399" r="2"/>
  </g>
  <g stroke="chocolate" stroke-width="1">
    <line x1="211" y1="364" x2="267" y2="362"/>
    <circle cx="211" cy="364" r="2"/>
    <circle cx="267" cy="362" r="2"/>
  </g>
  <g stroke="chocolate" stroke-width="1">
    <line x1="284" y1="275" x2="409" y2="267"/>
    <circle cx="284" cy="275" r="2"/>
    <circle cx="409" cy="267" r="2"/>
  </g>
  <g stroke="black" stroke-width="1">
    <line x1="5" y1="5" x2="505" y2="5"/>
    <line x1="5" y1="5" x2="5" y2="505"/>
    <line x1="505" y1="505" x2="5" y2="505"/>
    <line x1="505" y1="505" x2="505" y2="5"/>
    <line x1="105" y1="2" x2="105" y2="8"/>
    <line x1="2" y1="105" x2="8" y2="105"/>
    <line x1="105" y1="502" x2="105" y2="508"/>
    <line x1="502" y1="105" x2="508" y2="105"/>
    <line x1="205" y1="2" x2="205" y2="8"/>
    <line x1="2" y1="205" x2="8" y2="205"/>
    <line x1="205" y1="502" x2="205" y2="508"/>
    <line x1="502" y1="205" x2="508" y2="205"/>
    <line x1="305" y1="2" x2="305" y2="8"/>
    <line x1="2" y1="305" x2="8" y2="305"/>
    <line x1="305" y1="502" x2="305" y2="508"/>
    <line x1="502" y1="305" x2="508" y2="305"/>
    <line x1="405" y1="2" x2="405" y2="8"/>
    <line x1="2" y1="405" x2="8" y2="405"/>
    <line x1="405" y1="502" x2="405" y2="508"/>
    <line x1="502" y1="405" x2="508" y2="405"/>
  </g>
  <g stroke="gray" stroke-width="1" stroke-dasharray="5,5">
    <line x1="105" y1="5" x2="105" y2="505"/>
    <line x1="5" y1="105" x2="505" y2="105"/>
    <line x1="205" y1="5" x2="205" y2="505"/>
    <line x1="5" y1="205" x2="505" y2="205"/>
    <line x1="305" y1="5" x2="305" y2="505"/>
    <line x1="5" y1="305" x2="505" y2="305"/>
    <line x1="405" y1="5" x2="405" y2="505"/>
    <line x1="5" y1="405" x2="505" y2="405"/>
  </g>
</svg>
