<?xml version="1.0" standalone="no"?>
<!DOCTYPE svg PUBLIC "-//W3C//DTD SVG 1.1//EN" 
  "http://www.w3.org/Graphics/SVG/1.1/DTD/svg11.dtd">
<svg width="510" height="510" version="1.1" id="toplevel"
    xmlns="http://www.w3.org/2000/svg"
    xmlns:xlink="http://www.w3.org/1999/xlink">
  <polygon points="191,377 208,359 228,374 364,197 337,133 239,133 166,206 163,258 176,260 176,273 201,275 146,334"
           fill="bisque"/>
  <polygon points="239,236 239,202 273,201" fill="bisque"/>
  <g stroke="chocolate" stroke-width="1">
    <line x1="228" y1="374" x2="364" y2="197"/>
    <circle cx="228" cy="374" r="2"/>
    <circle cx="364" cy="197" r="2"/>
  </g>
  <g stroke="chocolate" stroke-width="1">
    <line x1="191" y1="377" x2="364" y2="196"/>
    <circle cx="191" cy="377" r="2"/>
    <circle cx="364" cy="196" r="2"/>
  </g>
  <g stroke="chocolate" stroke-width="1">
    <line x1="182" y1="368" x2="364" y2="196"/>
    <circle cx="182" cy="368" r="2"/>
    <circle cx="364" cy="196" r="2"/>
  </g>
  <g stroke="chocolate" stroke-width="1">
    <line x1="199" y1="368" x2="149" y2="330"/>
    <circle cx="199" cy="368" r="2"/>
    <circle cx="149" cy="330" r="2"/>
  </g>
  <g stroke="chocolate" stroke-width="1">
    <line x1="191" y1="377" x2="146" y2="334"/>
    <circle cx="191" cy="377" r="2"/>
    <circle cx="146" cy="334" r="2"/>
  </g>
  <g stroke="chocolate" stroke-width="1">
    <line x1="228" y1="374" x2="159" y2="320"/>
    <circle cx="228" cy="374" r="2"/>
    <circle cx="159" cy="320" r="2"/>
  </g>
  <g stroke="chocolate" stroke-width="1">
    <line x1="182" y1="368" x2="149" y2="330"/>
    <circle cx="182" cy="368" r="2"/>
    <circle cx="149" cy="330" r="2"/>
  </g>
  <g stroke="chocolate" stroke-width="1">
    <line x1="199" y1="368" x2="159" y2="320"/>
    <circle cx="199" cy="368" r="2"/>
    <circle cx="159" cy="320" r="2"/>
  </g>
  <g stroke="chocolate" stroke-width="1">
    <line x1="204" y1="283" x2="239" y2="279"/>
    <circle cx="204" cy="283" r="2"/>
    <circle cx="239" cy="279" r="2"/>
  </g>
  <g stroke="chocolate" stroke-width="1">
    <line x1="146" y1="334" x2="337" y2="133"/>
    <circle cx="146" cy="334" r="2"/>
    <circle cx="337" cy="133" r="2"/>
  </g>
  <g stroke="chocolate" stroke-width="1">
    <line x1="239" y1="279" x2="176" y2="273"/>
    <circle cx="239" cy="279" r="2"/>
    <circle cx="176" cy="273" r="2"/>
  </g>
  <g stroke="chocolate" stroke-width="1">
    <line x1="176" y1="273" x2="239" y2="266"/>
    <circle cx="176" cy="273" r="2"/>
    <circle cx="239" cy="266" r="2"/>
  </g>
  <g stroke="chocolate" stroke-width="1">
    <line x1="239" y1="266" x2="163" y2="258"/>
    <circle cx="239" cy="266" r="2"/>
    <circle cx="163" cy="258" r="2"/>
  </g>
  <g stroke="chocolate" stroke-width="1">
    <line x1="163" y1="258" x2="239" y2="258"/>
    <circle cx="163" cy="258" r="2"/>
    <circle cx="239" cy="258" r="2"/>
  </g>
  <g stroke="chocolate" stroke-width="1">
    <line x1="176" y1="273" x2="176" y2="196"/>
    <circle cx="176" cy="273" r="2"/>
    <circle cx="176" cy="196" r="2"/>
  </g>
  <g stroke="chocolate" stroke-width="1">
    <line x1="239" y1="279" x2="239" y2="133"/>
    <circle cx="239" cy="279" r="2"/>
    <circle cx="239" cy="133" r="2"/>
  </g>
  <g stroke="chocolate" stroke-width="1">
    <line x1="163" y1="258" x2="166" y2="206"/>
    <circle cx="163" cy="258" r="2"/>
    <circle cx="166" cy="206" r="2"/>
  </g>
  <g stroke="chocolate" stroke-width="1">
    <line x1="204" y1="283" x2="193" y2="179"/>
    <circle cx="204" cy="283" r="2"/>
    <circle cx="193" cy="179" r="2"/>
  </g>
  <g stroke="chocolate" stroke-width="1">
    <line x1="166" y1="206" x2="239" y2="133"/>
    <circle cx="166" cy="206" r="2"/>
    <circle cx="239" cy="133" r="2"/>
  </g>
  <g stroke="chocolate" stroke-width="1">
    <line x1="166" y1="206" x2="364" y2="196"/>
    <circle cx="166" cy="206" r="2"/>
    <circle cx="364" cy="196" r="2"/>
  </g>
  <g stroke="chocolate" stroke-width="1">
    <line x1="176" y1="196" x2="364" y2="196"/>
    <circle cx="176" cy="196" r="2"/>
    <circle cx="364" cy="196" r="2"/>
  </g>
  <g stroke="chocolate" stroke-width="1">
    <line x1="364" y1="197" x2="337" y2="133"/>
    <circle cx="364" cy="197" r="2"/>
    <circle cx="337" cy="133" r="2"/>
  </g>
  <g stroke="chocolate" stroke-width="1">
    <line x1="364" y1="197" x2="193" y2="179"/>
    <circle cx="364" cy="197" r="2"/>
    <circle cx="193" cy="179" r="2"/>
  </g>
  <g stroke="chocolate" stroke-width="1">
    <line x1="239" y1="133" x2="337" y2="133"/>
    <circle cx="239" cy="133" r="2"/>
    <circle cx="337" cy="133" r="2"/>
  </g>
  <g stroke="black" stroke-width="1">
    <line x1="5" y1="5" x2="505" y2="5"/>
    <line x1="5" y1="5" x2="5" y2="505"/>
    <line x1="505" y1="505" x2="5" y2="505"/>
    <line x1="505" y1="505" x2="505" y2="5"/>
    <line x1="105" y1="2" x2="105" y2="8"/>
    <line x1="2" y1="105" x2="8" y2="105"/>
    <line x1="105" y1="502" x2="105" y2="508"/>
    <line x1="502" y1="105" x2="508" y2="105"/>
    <line x1="205" y1="2" x2="205" y2="8"/>
    <line x1="2" y1="205" x2="8" y2="205"/>
    <line x1="205" y1="502" x2="205" y2="508"/>
    <line x1="502" y1="205" x2="508" y2="205"/>
    <line x1="305" y1="2" x2="305" y2="8"/>
    <line x1="2" y1="305" x2="8" y2="305"/>
    <line x1="305" y1="502" x2="305" y2="508"/>
    <line x1="502" y1="305" x2="508" y2="305"/>
    <line x1="405" y1="2" x2="405" y2="8"/>
    <line x1="2" y1="405" x2="8" y2="405"/>
    <line x1="405" y1="502" x2="405" y2="508"/>
    <line x1="502" y1="405" x2="508" y2="405"/>
  </g>
  <g stroke="gray" stroke-width="1" stroke-dasharray="5,5">
    <line x1="105" y1="5" x2="105" y2="505"/>
    <line x1="5" y1="105" x2="505" y2="105"/>
    <line x1="205" y1="5" x2="205" y2="505"/>
    <line x1="5" y1="205" x2="505" y2="205"/>
    <line x1="305" y1="5" x2="305" y2="505"/>
    <line x1="5" y1="305" x2="505" y2="305"/>
    <line x1="405" y1="5" x2="405" y2="505"/>
    <line x1="5" y1="405" x2="505" y2="405"/>
  </g>
</svg>
