<?xml version="1.0" standalone="no"?>
<!DOCTYPE svg PUBLIC "-//W3C//DTD SVG 1.1//EN" 
  "http://www.w3.org/Graphics/SVG/1.1/DTD/svg11.dtd">
<svg width="586" height="586" version="1.1" id="toplevel"
    xmlns="http://www.w3.org/2000/svg"
    xmlns:xlink="http://www.w3.org/1999/xlink">
  <polygon points="120,456 305,380 505,380 446,321 581,264 255,130 5,380 152,380"
           fill="bisque"/>
  <g stroke="chocolate" stroke-width="1">
    <line x1="120" y1="456" x2="581" y2="264"/>
    <circle cx="120" cy="456" r="2"/>
    <circle cx="581" cy="264" r="2"/>
  </g>
  <g stroke="chocolate" stroke-width="1">
    <line x1="120" y1="456" x2="255" y2="130"/>
    <circle cx="120" cy="456" r="2"/>
    <circle cx="255" cy="130" r="2"/>
  </g>
  <g stroke="chocolate" stroke-width="1">
    <line x1="5" y1="380" x2="505" y2="380"/>
    <circle cx="5" cy="380" r="2"/>
    <circle cx="505" cy="380" r="2"/>
  </g>
  <g stroke="chocolate" stroke-width="1">
    <line x1="5" y1="380" x2="255" y2="130"/>
    <circle cx="5" cy="380" r="2"/>
    <circle cx="255" cy="130" r="2"/>
  </g>
  <g stroke="chocolate" stroke-width="1">
    <line x1="305" y1="380" x2="255" y2="130"/>
    <circle cx="305" cy="380" r="2"/>
    <circle cx="255" cy="130" r="2"/>
  </g>
  <g stroke="chocolate" stroke-width="1">
    <line x1="505" y1="380" x2="255" y2="130"/>
    <circle cx="505" cy="380" r="2"/>
    <circle cx="255" cy="130" r="2"/>
  </g>
  <g stroke="chocolate" stroke-width="1">
    <line x1="581" y1="264" x2="255" y2="130"/>
    <circle cx="581" cy="264" r="2"/>
    <circle cx="255" cy="130" r="2"/>
  </g>
  <g stroke="black" stroke-width="1">
    <line x1="43" y1="43" x2="543" y2="43"/>
    <line x1="43" y1="43" x2="43" y2="543"/>
    <line x1="543" y1="543" x2="43" y2="543"/>
    <line x1="543" y1="543" x2="543" y2="43"/>
    <line x1="143" y1="40" x2="143" y2="46"/>
    <line x1="40" y1="143" x2="46" y2="143"/>
    <line x1="143" y1="540" x2="143" y2="546"/>
    <line x1="540" y1="143" x2="546" y2="143"/>
    <line x1="243" y1="40" x2="243" y2="46"/>
    <line x1="40" y1="243" x2="46" y2="243"/>
    <line x1="243" y1="540" x2="243" y2="546"/>
    <line x1="540" y1="243" x2="546" y2="243"/>
    <line x1="343" y1="40" x2="343" y2="46"/>
    <line x1="40" y1="343" x2="46" y2="343"/>
    <line x1="343" y1="540" x2="343" y2="546"/>
    <line x1="540" y1="343" x2="546" y2="343"/>
    <line x1="443" y1="40" x2="443" y2="46"/>
    <line x1="40" y1="443" x2="46" y2="443"/>
    <line x1="443" y1="540" x2="443" y2="546"/>
    <line x1="540" y1="443" x2="546" y2="443"/>
  </g>
  <g stroke="gray" stroke-width="1" stroke-dasharray="5,5">
    <line x1="143" y1="43" x2="143" y2="543"/>
    <line x1="43" y1="143" x2="543" y2="143"/>
    <line x1="243" y1="43" x2="243" y2="543"/>
    <line x1="43" y1="243" x2="543" y2="243"/>
    <line x1="343" y1="43" x2="343" y2="543"/>
    <line x1="43" y1="343" x2="543" y2="343"/>
    <line x1="443" y1="43" x2="443" y2="543"/>
    <line x1="43" y1="443" x2="543" y2="443"/>
  </g>
</svg>
