<?xml version="1.0" standalone="no"?>
<!DOCTYPE svg PUBLIC "-//W3C//DTD SVG 1.1//EN" 
  "http://www.w3.org/Graphics/SVG/1.1/DTD/svg11.dtd">
<svg width="510" height="510" version="1.1" id="toplevel"
    xmlns="http://www.w3.org/2000/svg"
    xmlns:xlink="http://www.w3.org/1999/xlink">
  <polygon points="293,471 389,435 439,367 422,251 422,250 321,48 265,39 71,315"
           fill="bisque"/>
  <g stroke="chocolate" stroke-width="1">
    <line x1="293" y1="471" x2="389" y2="435"/>
    <circle cx="293" cy="471" r="2"/>
    <circle cx="389" cy="435" r="2"/>
  </g>
  <g stroke="chocolate" stroke-width="1">
    <line x1="370" y1="442" x2="343" y2="432"/>
    <circle cx="370" cy="442" r="2"/>
    <circle cx="343" cy="432" r="2"/>
  </g>
  <g stroke="chocolate" stroke-width="1">
    <line x1="293" y1="471" x2="71" y2="315"/>
    <circle cx="293" cy="471" r="2"/>
    <circle cx="71" cy="315" r="2"/>
  </g>
  <g stroke="chocolate" stroke-width="1">
    <line x1="299" y1="469" x2="78" y2="314"/>
    <circle cx="299" cy="469" r="2"/>
    <circle cx="78" cy="314" r="2"/>
  </g>
  <g stroke="chocolate" stroke-width="1">
    <line x1="338" y1="435" x2="343" y2="432"/>
    <circle cx="338" cy="435" r="2"/>
    <circle cx="343" cy="432" r="2"/>
  </g>
  <g stroke="chocolate" stroke-width="1">
    <line x1="435" y1="364" x2="439" y2="363"/>
    <circle cx="435" cy="364" r="2"/>
    <circle cx="439" cy="363" r="2"/>
  </g>
  <g stroke="chocolate" stroke-width="1">
    <line x1="393" y1="369" x2="439" y2="363"/>
    <circle cx="393" cy="369" r="2"/>
    <circle cx="439" cy="363" r="2"/>
  </g>
  <g stroke="chocolate" stroke-width="1">
    <line x1="320" y1="359" x2="417" y2="357"/>
    <circle cx="320" cy="359" r="2"/>
    <circle cx="417" cy="357" r="2"/>
  </g>
  <g stroke="chocolate" stroke-width="1">
    <line x1="430" y1="379" x2="393" y2="369"/>
    <circle cx="430" cy="379" r="2"/>
    <circle cx="393" cy="369" r="2"/>
  </g>
  <g stroke="chocolate" stroke-width="1">
    <line x1="389" y1="435" x2="439" y2="367"/>
    <circle cx="389" cy="435" r="2"/>
    <circle cx="439" cy="367" r="2"/>
  </g>
  <g stroke="chocolate" stroke-width="1">
    <line x1="370" y1="442" x2="417" y2="357"/>
    <circle cx="370" cy="442" r="2"/>
    <circle cx="417" cy="357" r="2"/>
  </g>
  <g stroke="chocolate" stroke-width="1">
    <line x1="439" y1="367" x2="435" y2="364"/>
    <circle cx="439" cy="367" r="2"/>
    <circle cx="435" cy="364" r="2"/>
  </g>
  <g stroke="chocolate" stroke-width="1">
    <line x1="346" y1="451" x2="338" y2="435"/>
    <circle cx="346" cy="451" r="2"/>
    <circle cx="338" cy="435" r="2"/>
  </g>
  <g stroke="chocolate" stroke-width="1">
    <line x1="351" y1="449" x2="343" y2="432"/>
    <circle cx="351" cy="449" r="2"/>
    <circle cx="343" cy="432" r="2"/>
  </g>
  <g stroke="chocolate" stroke-width="1">
    <line x1="346" y1="451" x2="320" y2="359"/>
    <circle cx="346" cy="451" r="2"/>
    <circle cx="320" cy="359" r="2"/>
  </g>
  <g stroke="chocolate" stroke-width="1">
    <line x1="351" y1="449" x2="325" y2="359"/>
    <circle cx="351" cy="449" r="2"/>
    <circle cx="325" cy="359" r="2"/>
  </g>
  <g stroke="chocolate" stroke-width="1">
    <line x1="430" y1="379" x2="417" y2="357"/>
    <circle cx="430" cy="379" r="2"/>
    <circle cx="417" cy="357" r="2"/>
  </g>
  <g stroke="chocolate" stroke-width="1">
    <line x1="289" y1="118" x2="264" y2="41"/>
    <circle cx="289" cy="118" r="2"/>
    <circle cx="264" cy="41" r="2"/>
  </g>
  <g stroke="chocolate" stroke-width="1">
    <line x1="289" y1="118" x2="265" y2="39"/>
    <circle cx="289" cy="118" r="2"/>
    <circle cx="265" cy="39" r="2"/>
  </g>
  <g stroke="chocolate" stroke-width="1">
    <line x1="294" y1="117" x2="269" y2="40"/>
    <circle cx="294" cy="117" r="2"/>
    <circle cx="269" cy="40" r="2"/>
  </g>
  <g stroke="chocolate" stroke-width="1">
    <line x1="294" y1="117" x2="270" y2="40"/>
    <circle cx="294" cy="117" r="2"/>
    <circle cx="270" cy="40" r="2"/>
  </g>
  <g stroke="chocolate" stroke-width="1">
    <line x1="299" y1="469" x2="325" y2="359"/>
    <circle cx="299" cy="469" r="2"/>
    <circle cx="325" cy="359" r="2"/>
  </g>
  <g stroke="chocolate" stroke-width="1">
    <line x1="293" y1="471" x2="320" y2="359"/>
    <circle cx="293" cy="471" r="2"/>
    <circle cx="320" cy="359" r="2"/>
  </g>
  <g stroke="chocolate" stroke-width="1">
    <line x1="389" y1="435" x2="393" y2="369"/>
    <circle cx="389" cy="435" r="2"/>
    <circle cx="393" cy="369" r="2"/>
  </g>
  <g stroke="chocolate" stroke-width="1">
    <line x1="422" y1="250" x2="289" y2="109"/>
    <circle cx="422" cy="250" r="2"/>
    <circle cx="289" cy="109" r="2"/>
  </g>
  <g stroke="chocolate" stroke-width="1">
    <line x1="326" y1="114" x2="333" y2="73"/>
    <circle cx="326" cy="114" r="2"/>
    <circle cx="333" cy="73" r="2"/>
  </g>
  <g stroke="chocolate" stroke-width="1">
    <line x1="435" y1="364" x2="422" y2="251"/>
    <circle cx="435" cy="364" r="2"/>
    <circle cx="422" cy="251" r="2"/>
  </g>
  <g stroke="chocolate" stroke-width="1">
    <line x1="439" y1="367" x2="422" y2="251"/>
    <circle cx="439" cy="367" r="2"/>
    <circle cx="422" cy="251" r="2"/>
  </g>
  <g stroke="chocolate" stroke-width="1">
    <line x1="422" y1="251" x2="422" y2="250"/>
    <circle cx="422" cy="251" r="2"/>
    <circle cx="422" cy="250" r="2"/>
  </g>
  <g stroke="chocolate" stroke-width="1">
    <line x1="422" y1="250" x2="321" y2="48"/>
    <circle cx="422" cy="250" r="2"/>
    <circle cx="321" cy="48" r="2"/>
  </g>
  <g stroke="chocolate" stroke-width="1">
    <line x1="289" y1="109" x2="321" y2="48"/>
    <circle cx="289" cy="109" r="2"/>
    <circle cx="321" cy="48" r="2"/>
  </g>
  <g stroke="chocolate" stroke-width="1">
    <line x1="326" y1="114" x2="347" y2="100"/>
    <circle cx="326" cy="114" r="2"/>
    <circle cx="347" cy="100" r="2"/>
  </g>
  <g stroke="chocolate" stroke-width="1">
    <line x1="326" y1="114" x2="289" y2="109"/>
    <circle cx="326" cy="114" r="2"/>
    <circle cx="289" cy="109" r="2"/>
  </g>
  <g stroke="chocolate" stroke-width="1">
    <line x1="289" y1="118" x2="347" y2="100"/>
    <circle cx="289" cy="118" r="2"/>
    <circle cx="347" cy="100" r="2"/>
  </g>
  <g stroke="chocolate" stroke-width="1">
    <line x1="333" y1="73" x2="269" y2="40"/>
    <circle cx="333" cy="73" r="2"/>
    <circle cx="269" cy="40" r="2"/>
  </g>
  <g stroke="chocolate" stroke-width="1">
    <line x1="78" y1="314" x2="270" y2="40"/>
    <circle cx="78" cy="314" r="2"/>
    <circle cx="270" cy="40" r="2"/>
  </g>
  <g stroke="chocolate" stroke-width="1">
    <line x1="71" y1="315" x2="265" y2="39"/>
    <circle cx="71" cy="315" r="2"/>
    <circle cx="265" cy="39" r="2"/>
  </g>
  <g stroke="chocolate" stroke-width="1">
    <line x1="321" y1="48" x2="265" y2="39"/>
    <circle cx="321" cy="48" r="2"/>
    <circle cx="265" cy="39" r="2"/>
  </g>
  <g stroke="chocolate" stroke-width="1">
    <line x1="264" y1="41" x2="269" y2="40"/>
    <circle cx="264" cy="41" r="2"/>
    <circle cx="269" cy="40" r="2"/>
  </g>
  <g stroke="black" stroke-width="1">
    <line x1="5" y1="5" x2="505" y2="5"/>
    <line x1="5" y1="5" x2="5" y2="505"/>
    <line x1="505" y1="505" x2="5" y2="505"/>
    <line x1="505" y1="505" x2="505" y2="5"/>
    <line x1="105" y1="2" x2="105" y2="8"/>
    <line x1="2" y1="105" x2="8" y2="105"/>
    <line x1="105" y1="502" x2="105" y2="508"/>
    <line x1="502" y1="105" x2="508" y2="105"/>
    <line x1="205" y1="2" x2="205" y2="8"/>
    <line x1="2" y1="205" x2="8" y2="205"/>
    <line x1="205" y1="502" x2="205" y2="508"/>
    <line x1="502" y1="205" x2="508" y2="205"/>
    <line x1="305" y1="2" x2="305" y2="8"/>
    <line x1="2" y1="305" x2="8" y2="305"/>
    <line x1="305" y1="502" x2="305" y2="508"/>
    <line x1="502" y1="305" x2="508" y2="305"/>
    <line x1="405" y1="2" x2="405" y2="8"/>
    <line x1="2" y1="405" x2="8" y2="405"/>
    <line x1="405" y1="502" x2="405" y2="508"/>
    <line x1="502" y1="405" x2="508" y2="405"/>
  </g>
  <g stroke="gray" stroke-width="1" stroke-dasharray="5,5">
    <line x1="105" y1="5" x2="105" y2="505"/>
    <line x1="5" y1="105" x2="505" y2="105"/>
    <line x1="205" y1="5" x2="205" y2="505"/>
    <line x1="5" y1="205" x2="505" y2="205"/>
    <line x1="305" y1="5" x2="305" y2="505"/>
    <line x1="5" y1="305" x2="505" y2="305"/>
    <line x1="405" y1="5" x2="405" y2="505"/>
    <line x1="5" y1="405" x2="505" y2="405"/>
  </g>
</svg>
