<?xml version="1.0" standalone="no"?>
<!DOCTYPE svg PUBLIC "-//W3C//DTD SVG 1.1//EN" 
  "http://www.w3.org/Graphics/SVG/1.1/DTD/svg11.dtd">
<svg width="510" height="510" version="1.1" id="toplevel"
    xmlns="http://www.w3.org/2000/svg"
    xmlns:xlink="http://www.w3.org/1999/xlink">
  <polygon points="42,405 468,405 468,105 42,105" fill="bisque"/>
  <g stroke="chocolate" stroke-width="1">
    <line x1="42" y1="405" x2="42" y2="105"/>
    <circle cx="42" cy="405" r="2"/>
    <circle cx="42" cy="105" r="2"/>
  </g>
  <g stroke="chocolate" stroke-width="1">
    <line x1="105" y1="405" x2="105" y2="105"/>
    <circle cx="105" cy="405" r="2"/>
    <circle cx="105" cy="105" r="2"/>
  </g>
  <g stroke="chocolate" stroke-width="1">
    <line x1="142" y1="405" x2="142" y2="105"/>
    <circle cx="142" cy="405" r="2"/>
    <circle cx="142" cy="105" r="2"/>
  </g>
  <g stroke="chocolate" stroke-width="1">
    <line x1="468" y1="405" x2="468" y2="105"/>
    <circle cx="468" cy="405" r="2"/>
    <circle cx="468" cy="105" r="2"/>
  </g>
  <g stroke="chocolate" stroke-width="1">
    <line x1="42" y1="405" x2="468" y2="405"/>
    <circle cx="42" cy="405" r="2"/>
    <circle cx="468" cy="405" r="2"/>
  </g>
  <g stroke="chocolate" stroke-width="1">
    <line x1="42" y1="305" x2="468" y2="305"/>
    <circle cx="42" cy="305" r="2"/>
    <circle cx="468" cy="305" r="2"/>
  </g>
  <g stroke="chocolate" stroke-width="1">
    <line x1="42" y1="205" x2="468" y2="205"/>
    <circle cx="42" cy="205" r="2"/>
    <circle cx="468" cy="205" r="2"/>
  </g>
  <g stroke="chocolate" stroke-width="1">
    <line x1="42" y1="105" x2="468" y2="105"/>
    <circle cx="42" cy="105" r="2"/>
    <circle cx="468" cy="105" r="2"/>
  </g>
  <g stroke="black" stroke-width="1">
    <line x1="5" y1="5" x2="505" y2="5"/>
    <line x1="5" y1="5" x2="5" y2="505"/>
    <line x1="505" y1="505" x2="5" y2="505"/>
    <line x1="505" y1="505" x2="505" y2="5"/>
    <line x1="105" y1="2" x2="105" y2="8"/>
    <line x1="2" y1="105" x2="8" y2="105"/>
    <line x1="105" y1="502" x2="105" y2="508"/>
    <line x1="502" y1="105" x2="508" y2="105"/>
    <line x1="205" y1="2" x2="205" y2="8"/>
    <line x1="2" y1="205" x2="8" y2="205"/>
    <line x1="205" y1="502" x2="205" y2="508"/>
    <line x1="502" y1="205" x2="508" y2="205"/>
    <line x1="305" y1="2" x2="305" y2="8"/>
    <line x1="2" y1="305" x2="8" y2="305"/>
    <line x1="305" y1="502" x2="305" y2="508"/>
    <line x1="502" y1="305" x2="508" y2="305"/>
    <line x1="405" y1="2" x2="405" y2="8"/>
    <line x1="2" y1="405" x2="8" y2="405"/>
    <line x1="405" y1="502" x2="405" y2="508"/>
    <line x1="502" y1="405" x2="508" y2="405"/>
  </g>
  <g stroke="gray" stroke-width="1" stroke-dasharray="5,5">
    <line x1="105" y1="5" x2="105" y2="505"/>
    <line x1="5" y1="105" x2="505" y2="105"/>
    <line x1="205" y1="5" x2="205" y2="505"/>
    <line x1="5" y1="205" x2="505" y2="205"/>
    <line x1="305" y1="5" x2="305" y2="505"/>
    <line x1="5" y1="305" x2="505" y2="305"/>
    <line x1="405" y1="5" x2="405" y2="505"/>
    <line x1="5" y1="405" x2="505" y2="405"/>
  </g>
</svg>
