<?xml version="1.0" standalone="no"?>
<!DOCTYPE svg PUBLIC "-//W3C//DTD SVG 1.1//EN" 
  "http://www.w3.org/Graphics/SVG/1.1/DTD/svg11.dtd">
<svg width="510" height="510" version="1.1" id="toplevel"
    xmlns="http://www.w3.org/2000/svg"
    xmlns:xlink="http://www.w3.org/1999/xlink">
  <polygon points="29,434 194,416 466,269 497,215 304,88 284,117 252,103 182,255 29,255 29,368 13,364"
           fill="bisque"/>
  <g stroke="chocolate" stroke-width="1">
    <line x1="466" y1="269" x2="497" y2="215"/>
    <circle cx="466" cy="269" r="2"/>
    <circle cx="497" cy="215" r="2"/>
  </g>
  <g stroke="chocolate" stroke-width="1">
    <line x1="269" y1="375" x2="279" y2="255"/>
    <circle cx="269" cy="375" r="2"/>
    <circle cx="279" cy="255" r="2"/>
  </g>
  <g stroke="chocolate" stroke-width="1">
    <line x1="156" y1="312" x2="252" y2="103"/>
    <circle cx="156" cy="312" r="2"/>
    <circle cx="252" cy="103" r="2"/>
  </g>
  <g stroke="chocolate" stroke-width="1">
    <line x1="194" y1="416" x2="466" y2="269"/>
    <circle cx="194" cy="416" r="2"/>
    <circle cx="466" cy="269" r="2"/>
  </g>
  <g stroke="chocolate" stroke-width="1">
    <line x1="79" y1="428" x2="304" y2="88"/>
    <circle cx="79" cy="428" r="2"/>
    <circle cx="304" cy="88" r="2"/>
  </g>
  <g stroke="chocolate" stroke-width="1">
    <line x1="29" y1="434" x2="29" y2="255"/>
    <circle cx="29" cy="434" r="2"/>
    <circle cx="29" cy="255" r="2"/>
  </g>
  <g stroke="chocolate" stroke-width="1">
    <line x1="279" y1="370" x2="279" y2="255"/>
    <circle cx="279" cy="370" r="2"/>
    <circle cx="279" cy="255" r="2"/>
  </g>
  <g stroke="chocolate" stroke-width="1">
    <line x1="29" y1="434" x2="13" y2="364"/>
    <circle cx="29" cy="434" r="2"/>
    <circle cx="13" cy="364" r="2"/>
  </g>
  <g stroke="chocolate" stroke-width="1">
    <line x1="79" y1="428" x2="13" y2="364"/>
    <circle cx="79" cy="428" r="2"/>
    <circle cx="13" cy="364" r="2"/>
  </g>
  <g stroke="chocolate" stroke-width="1">
    <line x1="29" y1="434" x2="194" y2="416"/>
    <circle cx="29" cy="434" r="2"/>
    <circle cx="194" cy="416" r="2"/>
  </g>
  <g stroke="chocolate" stroke-width="1">
    <line x1="194" y1="416" x2="13" y2="364"/>
    <circle cx="194" cy="416" r="2"/>
    <circle cx="13" cy="364" r="2"/>
  </g>
  <g stroke="chocolate" stroke-width="1">
    <line x1="269" y1="375" x2="156" y2="312"/>
    <circle cx="269" cy="375" r="2"/>
    <circle cx="156" cy="312" r="2"/>
  </g>
  <g stroke="chocolate" stroke-width="1">
    <line x1="279" y1="370" x2="166" y2="296"/>
    <circle cx="279" cy="370" r="2"/>
    <circle cx="166" cy="296" r="2"/>
  </g>
  <g stroke="chocolate" stroke-width="1">
    <line x1="29" y1="255" x2="279" y2="255"/>
    <circle cx="29" cy="255" r="2"/>
    <circle cx="279" cy="255" r="2"/>
  </g>
  <g stroke="chocolate" stroke-width="1">
    <line x1="466" y1="269" x2="279" y2="255"/>
    <circle cx="466" cy="269" r="2"/>
    <circle cx="279" cy="255" r="2"/>
  </g>
  <g stroke="chocolate" stroke-width="1">
    <line x1="497" y1="215" x2="252" y2="103"/>
    <circle cx="497" cy="215" r="2"/>
    <circle cx="252" cy="103" r="2"/>
  </g>
  <g stroke="chocolate" stroke-width="1">
    <line x1="497" y1="215" x2="304" y2="88"/>
    <circle cx="497" cy="215" r="2"/>
    <circle cx="304" cy="88" r="2"/>
  </g>
  <g stroke="black" stroke-width="1">
    <line x1="5" y1="5" x2="505" y2="5"/>
    <line x1="5" y1="5" x2="5" y2="505"/>
    <line x1="505" y1="505" x2="5" y2="505"/>
    <line x1="505" y1="505" x2="505" y2="5"/>
    <line x1="105" y1="2" x2="105" y2="8"/>
    <line x1="2" y1="105" x2="8" y2="105"/>
    <line x1="105" y1="502" x2="105" y2="508"/>
    <line x1="502" y1="105" x2="508" y2="105"/>
    <line x1="205" y1="2" x2="205" y2="8"/>
    <line x1="2" y1="205" x2="8" y2="205"/>
    <line x1="205" y1="502" x2="205" y2="508"/>
    <line x1="502" y1="205" x2="508" y2="205"/>
    <line x1="305" y1="2" x2="305" y2="8"/>
    <line x1="2" y1="305" x2="8" y2="305"/>
    <line x1="305" y1="502" x2="305" y2="508"/>
    <line x1="502" y1="305" x2="508" y2="305"/>
    <line x1="405" y1="2" x2="405" y2="8"/>
    <line x1="2" y1="405" x2="8" y2="405"/>
    <line x1="405" y1="502" x2="405" y2="508"/>
    <line x1="502" y1="405" x2="508" y2="405"/>
  </g>
  <g stroke="gray" stroke-width="1" stroke-dasharray="5,5">
    <line x1="105" y1="5" x2="105" y2="505"/>
    <line x1="5" y1="105" x2="505" y2="105"/>
    <line x1="205" y1="5" x2="205" y2="505"/>
    <line x1="5" y1="205" x2="505" y2="205"/>
    <line x1="305" y1="5" x2="305" y2="505"/>
    <line x1="5" y1="305" x2="505" y2="305"/>
    <line x1="405" y1="5" x2="405" y2="505"/>
    <line x1="5" y1="405" x2="505" y2="405"/>
  </g>
</svg>
