<?xml version="1.0" standalone="no"?>
<!DOCTYPE svg PUBLIC "-//W3C//DTD SVG 1.1//EN" 
  "http://www.w3.org/Graphics/SVG/1.1/DTD/svg11.dtd">
<svg width="510" height="510" version="1.1" id="toplevel"
    xmlns="http://www.w3.org/2000/svg"
    xmlns:xlink="http://www.w3.org/1999/xlink">
  <polygon points="271,382 379,317 408,209 348,134 225,128 111,157 102,288 183,375"
           fill="bisque"/>
  <g stroke="chocolate" stroke-width="1">
    <line x1="379" y1="317" x2="408" y2="209"/>
    <circle cx="379" cy="317" r="2"/>
    <circle cx="408" cy="209" r="2"/>
  </g>
  <g stroke="chocolate" stroke-width="1">
    <line x1="278" y1="264" x2="293" y2="211"/>
    <circle cx="278" cy="264" r="2"/>
    <circle cx="293" cy="211" r="2"/>
  </g>
  <g stroke="chocolate" stroke-width="1">
    <line x1="217" y1="227" x2="248" y2="177"/>
    <circle cx="217" cy="227" r="2"/>
    <circle cx="248" cy="177" r="2"/>
  </g>
  <g stroke="chocolate" stroke-width="1">
    <line x1="271" y1="382" x2="286" y2="185"/>
    <circle cx="271" cy="382" r="2"/>
    <circle cx="286" cy="185" r="2"/>
  </g>
  <g stroke="chocolate" stroke-width="1">
    <line x1="207" y1="347" x2="225" y2="128"/>
    <circle cx="207" cy="347" r="2"/>
    <circle cx="225" cy="128" r="2"/>
  </g>
  <g stroke="chocolate" stroke-width="1">
    <line x1="145" y1="264" x2="212" y2="158"/>
    <circle cx="145" cy="264" r="2"/>
    <circle cx="212" cy="158" r="2"/>
  </g>
  <g stroke="chocolate" stroke-width="1">
    <line x1="102" y1="288" x2="111" y2="157"/>
    <circle cx="102" cy="288" r="2"/>
    <circle cx="111" cy="157" r="2"/>
  </g>
  <g stroke="chocolate" stroke-width="1">
    <line x1="221" y1="360" x2="265" y2="313"/>
    <circle cx="221" cy="360" r="2"/>
    <circle cx="265" cy="313" r="2"/>
  </g>
  <g stroke="chocolate" stroke-width="1">
    <line x1="102" y1="288" x2="181" y2="178"/>
    <circle cx="102" cy="288" r="2"/>
    <circle cx="181" cy="178" r="2"/>
  </g>
  <g stroke="chocolate" stroke-width="1">
    <line x1="183" y1="375" x2="184" y2="245"/>
    <circle cx="183" cy="375" r="2"/>
    <circle cx="184" cy="245" r="2"/>
  </g>
  <g stroke="chocolate" stroke-width="1">
    <line x1="183" y1="375" x2="261" y2="291"/>
    <circle cx="183" cy="375" r="2"/>
    <circle cx="261" cy="291" r="2"/>
  </g>
  <g stroke="chocolate" stroke-width="1">
    <line x1="190" y1="246" x2="259" y2="162"/>
    <circle cx="190" cy="246" r="2"/>
    <circle cx="259" cy="162" r="2"/>
  </g>
  <g stroke="chocolate" stroke-width="1">
    <line x1="350" y1="251" x2="348" y2="134"/>
    <circle cx="350" cy="251" r="2"/>
    <circle cx="348" cy="134" r="2"/>
  </g>
  <g stroke="chocolate" stroke-width="1">
    <line x1="266" y1="282" x2="327" y2="220"/>
    <circle cx="266" cy="282" r="2"/>
    <circle cx="327" cy="220" r="2"/>
  </g>
  <g stroke="chocolate" stroke-width="1">
    <line x1="318" y1="291" x2="408" y2="209"/>
    <circle cx="318" cy="291" r="2"/>
    <circle cx="408" cy="209" r="2"/>
  </g>
  <g stroke="chocolate" stroke-width="1">
    <line x1="273" y1="203" x2="348" y2="134"/>
    <circle cx="273" cy="203" r="2"/>
    <circle cx="348" cy="134" r="2"/>
  </g>
  <g stroke="chocolate" stroke-width="1">
    <line x1="266" y1="282" x2="248" y2="177"/>
    <circle cx="266" cy="282" r="2"/>
    <circle cx="248" cy="177" r="2"/>
  </g>
  <g stroke="chocolate" stroke-width="1">
    <line x1="265" y1="313" x2="225" y2="128"/>
    <circle cx="265" cy="313" r="2"/>
    <circle cx="225" cy="128" r="2"/>
  </g>
  <g stroke="chocolate" stroke-width="1">
    <line x1="271" y1="382" x2="379" y2="317"/>
    <circle cx="271" cy="382" r="2"/>
    <circle cx="379" cy="317" r="2"/>
  </g>
  <g stroke="chocolate" stroke-width="1">
    <line x1="207" y1="347" x2="350" y2="251"/>
    <circle cx="207" cy="347" r="2"/>
    <circle cx="350" cy="251" r="2"/>
  </g>
  <g stroke="chocolate" stroke-width="1">
    <line x1="145" y1="264" x2="111" y2="157"/>
    <circle cx="145" cy="264" r="2"/>
    <circle cx="111" cy="157" r="2"/>
  </g>
  <g stroke="chocolate" stroke-width="1">
    <line x1="184" y1="245" x2="286" y2="185"/>
    <circle cx="184" cy="245" r="2"/>
    <circle cx="286" cy="185" r="2"/>
  </g>
  <g stroke="chocolate" stroke-width="1">
    <line x1="318" y1="291" x2="273" y2="203"/>
    <circle cx="318" cy="291" r="2"/>
    <circle cx="273" cy="203" r="2"/>
  </g>
  <g stroke="chocolate" stroke-width="1">
    <line x1="271" y1="382" x2="190" y2="246"/>
    <circle cx="271" cy="382" r="2"/>
    <circle cx="190" cy="246" r="2"/>
  </g>
  <g stroke="chocolate" stroke-width="1">
    <line x1="379" y1="317" x2="327" y2="220"/>
    <circle cx="379" cy="317" r="2"/>
    <circle cx="327" cy="220" r="2"/>
  </g>
  <g stroke="chocolate" stroke-width="1">
    <line x1="278" y1="264" x2="212" y2="158"/>
    <circle cx="278" cy="264" r="2"/>
    <circle cx="212" cy="158" r="2"/>
  </g>
  <g stroke="chocolate" stroke-width="1">
    <line x1="261" y1="291" x2="181" y2="178"/>
    <circle cx="261" cy="291" r="2"/>
    <circle cx="181" cy="178" r="2"/>
  </g>
  <g stroke="chocolate" stroke-width="1">
    <line x1="183" y1="375" x2="102" y2="288"/>
    <circle cx="183" cy="375" r="2"/>
    <circle cx="102" cy="288" r="2"/>
  </g>
  <g stroke="chocolate" stroke-width="1">
    <line x1="190" y1="246" x2="327" y2="220"/>
    <circle cx="190" cy="246" r="2"/>
    <circle cx="327" cy="220" r="2"/>
  </g>
  <g stroke="chocolate" stroke-width="1">
    <line x1="102" y1="288" x2="278" y2="264"/>
    <circle cx="102" cy="288" r="2"/>
    <circle cx="278" cy="264" r="2"/>
  </g>
  <g stroke="chocolate" stroke-width="1">
    <line x1="111" y1="157" x2="225" y2="128"/>
    <circle cx="111" cy="157" r="2"/>
    <circle cx="225" cy="128" r="2"/>
  </g>
  <g stroke="chocolate" stroke-width="1">
    <line x1="221" y1="360" x2="207" y2="347"/>
    <circle cx="221" cy="360" r="2"/>
    <circle cx="207" cy="347" r="2"/>
  </g>
  <g stroke="chocolate" stroke-width="1">
    <line x1="271" y1="382" x2="183" y2="375"/>
    <circle cx="271" cy="382" r="2"/>
    <circle cx="183" cy="375" r="2"/>
  </g>
  <g stroke="chocolate" stroke-width="1">
    <line x1="408" y1="209" x2="348" y2="134"/>
    <circle cx="408" cy="209" r="2"/>
    <circle cx="348" cy="134" r="2"/>
  </g>
  <g stroke="chocolate" stroke-width="1">
    <line x1="261" y1="291" x2="184" y2="245"/>
    <circle cx="261" cy="291" r="2"/>
    <circle cx="184" cy="245" r="2"/>
  </g>
  <g stroke="chocolate" stroke-width="1">
    <line x1="286" y1="185" x2="259" y2="162"/>
    <circle cx="286" cy="185" r="2"/>
    <circle cx="259" cy="162" r="2"/>
  </g>
  <g stroke="chocolate" stroke-width="1">
    <line x1="265" y1="313" x2="145" y2="264"/>
    <circle cx="265" cy="313" r="2"/>
    <circle cx="145" cy="264" r="2"/>
  </g>
  <g stroke="chocolate" stroke-width="1">
    <line x1="212" y1="158" x2="111" y2="157"/>
    <circle cx="212" cy="158" r="2"/>
    <circle cx="111" cy="157" r="2"/>
  </g>
  <g stroke="chocolate" stroke-width="1">
    <line x1="318" y1="291" x2="217" y2="227"/>
    <circle cx="318" cy="291" r="2"/>
    <circle cx="217" cy="227" r="2"/>
  </g>
  <g stroke="chocolate" stroke-width="1">
    <line x1="379" y1="317" x2="266" y2="282"/>
    <circle cx="379" cy="317" r="2"/>
    <circle cx="266" cy="282" r="2"/>
  </g>
  <g stroke="chocolate" stroke-width="1">
    <line x1="350" y1="251" x2="273" y2="203"/>
    <circle cx="350" cy="251" r="2"/>
    <circle cx="273" cy="203" r="2"/>
  </g>
  <g stroke="chocolate" stroke-width="1">
    <line x1="348" y1="134" x2="225" y2="128"/>
    <circle cx="348" cy="134" r="2"/>
    <circle cx="225" cy="128" r="2"/>
  </g>
  <g stroke="chocolate" stroke-width="1">
    <line x1="408" y1="209" x2="248" y2="177"/>
    <circle cx="408" cy="209" r="2"/>
    <circle cx="248" cy="177" r="2"/>
  </g>
  <g stroke="chocolate" stroke-width="1">
    <line x1="293" y1="211" x2="181" y2="178"/>
    <circle cx="293" cy="211" r="2"/>
    <circle cx="181" cy="178" r="2"/>
  </g>
  <g stroke="black" stroke-width="1">
    <line x1="5" y1="5" x2="505" y2="5"/>
    <line x1="5" y1="5" x2="5" y2="505"/>
    <line x1="505" y1="505" x2="5" y2="505"/>
    <line x1="505" y1="505" x2="505" y2="5"/>
    <line x1="105" y1="2" x2="105" y2="8"/>
    <line x1="2" y1="105" x2="8" y2="105"/>
    <line x1="105" y1="502" x2="105" y2="508"/>
    <line x1="502" y1="105" x2="508" y2="105"/>
    <line x1="205" y1="2" x2="205" y2="8"/>
    <line x1="2" y1="205" x2="8" y2="205"/>
    <line x1="205" y1="502" x2="205" y2="508"/>
    <line x1="502" y1="205" x2="508" y2="205"/>
    <line x1="305" y1="2" x2="305" y2="8"/>
    <line x1="2" y1="305" x2="8" y2="305"/>
    <line x1="305" y1="502" x2="305" y2="508"/>
    <line x1="502" y1="305" x2="508" y2="305"/>
    <line x1="405" y1="2" x2="405" y2="8"/>
    <line x1="2" y1="405" x2="8" y2="405"/>
    <line x1="405" y1="502" x2="405" y2="508"/>
    <line x1="502" y1="405" x2="508" y2="405"/>
  </g>
  <g stroke="gray" stroke-width="1" stroke-dasharray="5,5">
    <line x1="105" y1="5" x2="105" y2="505"/>
    <line x1="5" y1="105" x2="505" y2="105"/>
    <line x1="205" y1="5" x2="205" y2="505"/>
    <line x1="5" y1="205" x2="505" y2="205"/>
    <line x1="305" y1="5" x2="305" y2="505"/>
    <line x1="5" y1="305" x2="505" y2="305"/>
    <line x1="405" y1="5" x2="405" y2="505"/>
    <line x1="5" y1="405" x2="505" y2="405"/>
  </g>
</svg>
