<?xml version="1.0" standalone="no"?>
<!DOCTYPE svg PUBLIC "-//W3C//DTD SVG 1.1//EN" 
  "http://www.w3.org/Graphics/SVG/1.1/DTD/svg11.dtd">
<svg width="510" height="510" version="1.1" id="toplevel"
    xmlns="http://www.w3.org/2000/svg"
    xmlns:xlink="http://www.w3.org/1999/xlink">
  <polygon points="193,327 268,316 365,258 401,181 375,100 328,20 239,14 140,78 109,144 117,229"
           fill="bisque"/>
  <g stroke="chocolate" stroke-width="1">
    <line x1="216" y1="230" x2="305" y2="120"/>
    <circle cx="216" cy="230" r="2"/>
    <circle cx="305" cy="120" r="2"/>
  </g>
  <g stroke="chocolate" stroke-width="1">
    <line x1="230" y1="205" x2="300" y2="108"/>
    <circle cx="230" cy="205" r="2"/>
    <circle cx="300" cy="108" r="2"/>
  </g>
  <g stroke="chocolate" stroke-width="1">
    <line x1="365" y1="258" x2="401" y2="181"/>
    <circle cx="365" cy="258" r="2"/>
    <circle cx="401" cy="181" r="2"/>
  </g>
  <g stroke="chocolate" stroke-width="1">
    <line x1="193" y1="327" x2="342" y2="218"/>
    <circle cx="193" cy="327" r="2"/>
    <circle cx="342" cy="218" r="2"/>
  </g>
  <g stroke="chocolate" stroke-width="1">
    <line x1="268" y1="316" x2="365" y2="258"/>
    <circle cx="268" cy="316" r="2"/>
    <circle cx="365" cy="258" r="2"/>
  </g>
  <g stroke="chocolate" stroke-width="1">
    <line x1="212" y1="114" x2="328" y2="20"/>
    <circle cx="212" cy="114" r="2"/>
    <circle cx="328" cy="20" r="2"/>
  </g>
  <g stroke="chocolate" stroke-width="1">
    <line x1="109" y1="144" x2="140" y2="78"/>
    <circle cx="109" cy="144" r="2"/>
    <circle cx="140" cy="78" r="2"/>
  </g>
  <g stroke="chocolate" stroke-width="1">
    <line x1="237" y1="204" x2="326" y2="154"/>
    <circle cx="237" cy="204" r="2"/>
    <circle cx="326" cy="154" r="2"/>
  </g>
  <g stroke="chocolate" stroke-width="1">
    <line x1="258" y1="201" x2="339" y2="158"/>
    <circle cx="258" cy="201" r="2"/>
    <circle cx="339" cy="158" r="2"/>
  </g>
  <g stroke="chocolate" stroke-width="1">
    <line x1="224" y1="244" x2="245" y2="172"/>
    <circle cx="224" cy="244" r="2"/>
    <circle cx="245" cy="172" r="2"/>
  </g>
  <g stroke="chocolate" stroke-width="1">
    <line x1="265" y1="159" x2="375" y2="100"/>
    <circle cx="265" cy="159" r="2"/>
    <circle cx="375" cy="100" r="2"/>
  </g>
  <g stroke="chocolate" stroke-width="1">
    <line x1="215" y1="160" x2="286" y2="122"/>
    <circle cx="215" cy="160" r="2"/>
    <circle cx="286" cy="122" r="2"/>
  </g>
  <g stroke="chocolate" stroke-width="1">
    <line x1="140" y1="78" x2="239" y2="14"/>
    <circle cx="140" cy="78" r="2"/>
    <circle cx="239" cy="14" r="2"/>
  </g>
  <g stroke="chocolate" stroke-width="1">
    <line x1="117" y1="229" x2="245" y2="172"/>
    <circle cx="117" cy="229" r="2"/>
    <circle cx="245" cy="172" r="2"/>
  </g>
  <g stroke="chocolate" stroke-width="1">
    <line x1="298" y1="210" x2="401" y2="181"/>
    <circle cx="298" cy="210" r="2"/>
    <circle cx="401" cy="181" r="2"/>
  </g>
  <g stroke="chocolate" stroke-width="1">
    <line x1="230" y1="205" x2="332" y2="175"/>
    <circle cx="230" cy="205" r="2"/>
    <circle cx="332" cy="175" r="2"/>
  </g>
  <g stroke="chocolate" stroke-width="1">
    <line x1="215" y1="160" x2="219" y2="113"/>
    <circle cx="215" cy="160" r="2"/>
    <circle cx="219" cy="113" r="2"/>
  </g>
  <g stroke="chocolate" stroke-width="1">
    <line x1="233" y1="122" x2="239" y2="14"/>
    <circle cx="233" cy="122" r="2"/>
    <circle cx="239" cy="14" r="2"/>
  </g>
  <g stroke="chocolate" stroke-width="1">
    <line x1="262" y1="131" x2="375" y2="100"/>
    <circle cx="262" cy="131" r="2"/>
    <circle cx="375" cy="100" r="2"/>
  </g>
  <g stroke="chocolate" stroke-width="1">
    <line x1="193" y1="327" x2="268" y2="316"/>
    <circle cx="193" cy="327" r="2"/>
    <circle cx="268" cy="316" r="2"/>
  </g>
  <g stroke="chocolate" stroke-width="1">
    <line x1="216" y1="230" x2="255" y2="223"/>
    <circle cx="216" cy="230" r="2"/>
    <circle cx="255" cy="223" r="2"/>
  </g>
  <g stroke="chocolate" stroke-width="1">
    <line x1="224" y1="244" x2="223" y2="133"/>
    <circle cx="224" cy="244" r="2"/>
    <circle cx="223" cy="133" r="2"/>
  </g>
  <g stroke="chocolate" stroke-width="1">
    <line x1="233" y1="122" x2="300" y2="108"/>
    <circle cx="233" cy="122" r="2"/>
    <circle cx="300" cy="108" r="2"/>
  </g>
  <g stroke="chocolate" stroke-width="1">
    <line x1="182" y1="229" x2="340" y2="208"/>
    <circle cx="182" cy="229" r="2"/>
    <circle cx="340" cy="208" r="2"/>
  </g>
  <g stroke="chocolate" stroke-width="1">
    <line x1="339" y1="158" x2="328" y2="20"/>
    <circle cx="339" cy="158" r="2"/>
    <circle cx="328" cy="20" r="2"/>
  </g>
  <g stroke="chocolate" stroke-width="1">
    <line x1="117" y1="229" x2="109" y2="144"/>
    <circle cx="117" cy="229" r="2"/>
    <circle cx="109" cy="144" r="2"/>
  </g>
  <g stroke="chocolate" stroke-width="1">
    <line x1="182" y1="229" x2="255" y2="223"/>
    <circle cx="182" cy="229" r="2"/>
    <circle cx="255" cy="223" r="2"/>
  </g>
  <g stroke="chocolate" stroke-width="1">
    <line x1="193" y1="327" x2="182" y2="229"/>
    <circle cx="193" cy="327" r="2"/>
    <circle cx="182" cy="229" r="2"/>
  </g>
  <g stroke="chocolate" stroke-width="1">
    <line x1="265" y1="159" x2="262" y2="131"/>
    <circle cx="265" cy="159" r="2"/>
    <circle cx="262" cy="131" r="2"/>
  </g>
  <g stroke="chocolate" stroke-width="1">
    <line x1="298" y1="210" x2="286" y2="122"/>
    <circle cx="298" cy="210" r="2"/>
    <circle cx="286" cy="122" r="2"/>
  </g>
  <g stroke="chocolate" stroke-width="1">
    <line x1="268" y1="316" x2="255" y2="223"/>
    <circle cx="268" cy="316" r="2"/>
    <circle cx="255" cy="223" r="2"/>
  </g>
  <g stroke="chocolate" stroke-width="1">
    <line x1="342" y1="218" x2="340" y2="208"/>
    <circle cx="342" cy="218" r="2"/>
    <circle cx="340" cy="208" r="2"/>
  </g>
  <g stroke="chocolate" stroke-width="1">
    <line x1="109" y1="144" x2="223" y2="133"/>
    <circle cx="109" cy="144" r="2"/>
    <circle cx="223" cy="133" r="2"/>
  </g>
  <g stroke="chocolate" stroke-width="1">
    <line x1="237" y1="204" x2="223" y2="133"/>
    <circle cx="237" cy="204" r="2"/>
    <circle cx="223" cy="133" r="2"/>
  </g>
  <g stroke="chocolate" stroke-width="1">
    <line x1="224" y1="244" x2="117" y2="229"/>
    <circle cx="224" cy="244" r="2"/>
    <circle cx="117" cy="229" r="2"/>
  </g>
  <g stroke="chocolate" stroke-width="1">
    <line x1="332" y1="175" x2="326" y2="154"/>
    <circle cx="332" cy="175" r="2"/>
    <circle cx="326" cy="154" r="2"/>
  </g>
  <g stroke="chocolate" stroke-width="1">
    <line x1="305" y1="120" x2="219" y2="113"/>
    <circle cx="305" cy="120" r="2"/>
    <circle cx="219" cy="113" r="2"/>
  </g>
  <g stroke="chocolate" stroke-width="1">
    <line x1="401" y1="181" x2="375" y2="100"/>
    <circle cx="401" cy="181" r="2"/>
    <circle cx="375" cy="100" r="2"/>
  </g>
  <g stroke="chocolate" stroke-width="1">
    <line x1="328" y1="20" x2="239" y2="14"/>
    <circle cx="328" cy="20" r="2"/>
    <circle cx="239" cy="14" r="2"/>
  </g>
  <g stroke="chocolate" stroke-width="1">
    <line x1="365" y1="258" x2="305" y2="120"/>
    <circle cx="365" cy="258" r="2"/>
    <circle cx="305" cy="120" r="2"/>
  </g>
  <g stroke="chocolate" stroke-width="1">
    <line x1="298" y1="210" x2="262" y2="131"/>
    <circle cx="298" cy="210" r="2"/>
    <circle cx="262" cy="131" r="2"/>
  </g>
  <g stroke="chocolate" stroke-width="1">
    <line x1="258" y1="201" x2="212" y2="114"/>
    <circle cx="258" cy="201" r="2"/>
    <circle cx="212" cy="114" r="2"/>
  </g>
  <g stroke="chocolate" stroke-width="1">
    <line x1="268" y1="316" x2="216" y2="230"/>
    <circle cx="268" cy="316" r="2"/>
    <circle cx="216" cy="230" r="2"/>
  </g>
  <g stroke="chocolate" stroke-width="1">
    <line x1="193" y1="327" x2="117" y2="229"/>
    <circle cx="193" cy="327" r="2"/>
    <circle cx="117" cy="229" r="2"/>
  </g>
  <g stroke="chocolate" stroke-width="1">
    <line x1="339" y1="158" x2="233" y2="122"/>
    <circle cx="339" cy="158" r="2"/>
    <circle cx="233" cy="122" r="2"/>
  </g>
  <g stroke="chocolate" stroke-width="1">
    <line x1="230" y1="205" x2="140" y2="78"/>
    <circle cx="230" cy="205" r="2"/>
    <circle cx="140" cy="78" r="2"/>
  </g>
  <g stroke="chocolate" stroke-width="1">
    <line x1="375" y1="100" x2="328" y2="20"/>
    <circle cx="375" cy="100" r="2"/>
    <circle cx="328" cy="20" r="2"/>
  </g>
  <g stroke="chocolate" stroke-width="1">
    <line x1="237" y1="204" x2="109" y2="144"/>
    <circle cx="237" cy="204" r="2"/>
    <circle cx="109" cy="144" r="2"/>
  </g>
  <g stroke="chocolate" stroke-width="1">
    <line x1="300" y1="108" x2="239" y2="14"/>
    <circle cx="300" cy="108" r="2"/>
    <circle cx="239" cy="14" r="2"/>
  </g>
  <g stroke="chocolate" stroke-width="1">
    <line x1="342" y1="218" x2="245" y2="172"/>
    <circle cx="342" cy="218" r="2"/>
    <circle cx="245" cy="172" r="2"/>
  </g>
  <g stroke="chocolate" stroke-width="1">
    <line x1="326" y1="154" x2="140" y2="78"/>
    <circle cx="326" cy="154" r="2"/>
    <circle cx="140" cy="78" r="2"/>
  </g>
  <g stroke="chocolate" stroke-width="1">
    <line x1="365" y1="258" x2="215" y2="160"/>
    <circle cx="365" cy="258" r="2"/>
    <circle cx="215" cy="160" r="2"/>
  </g>
  <g stroke="chocolate" stroke-width="1">
    <line x1="401" y1="181" x2="286" y2="122"/>
    <circle cx="401" cy="181" r="2"/>
    <circle cx="286" cy="122" r="2"/>
  </g>
  <g stroke="chocolate" stroke-width="1">
    <line x1="265" y1="159" x2="212" y2="114"/>
    <circle cx="265" cy="159" r="2"/>
    <circle cx="212" cy="114" r="2"/>
  </g>
  <g stroke="black" stroke-width="1">
    <line x1="5" y1="5" x2="505" y2="5"/>
    <line x1="5" y1="5" x2="5" y2="505"/>
    <line x1="505" y1="505" x2="5" y2="505"/>
    <line x1="505" y1="505" x2="505" y2="5"/>
    <line x1="105" y1="2" x2="105" y2="8"/>
    <line x1="2" y1="105" x2="8" y2="105"/>
    <line x1="105" y1="502" x2="105" y2="508"/>
    <line x1="502" y1="105" x2="508" y2="105"/>
    <line x1="205" y1="2" x2="205" y2="8"/>
    <line x1="2" y1="205" x2="8" y2="205"/>
    <line x1="205" y1="502" x2="205" y2="508"/>
    <line x1="502" y1="205" x2="508" y2="205"/>
    <line x1="305" y1="2" x2="305" y2="8"/>
    <line x1="2" y1="305" x2="8" y2="305"/>
    <line x1="305" y1="502" x2="305" y2="508"/>
    <line x1="502" y1="305" x2="508" y2="305"/>
    <line x1="405" y1="2" x2="405" y2="8"/>
    <line x1="2" y1="405" x2="8" y2="405"/>
    <line x1="405" y1="502" x2="405" y2="508"/>
    <line x1="502" y1="405" x2="508" y2="405"/>
  </g>
  <g stroke="gray" stroke-width="1" stroke-dasharray="5,5">
    <line x1="105" y1="5" x2="105" y2="505"/>
    <line x1="5" y1="105" x2="505" y2="105"/>
    <line x1="205" y1="5" x2="205" y2="505"/>
    <line x1="5" y1="205" x2="505" y2="205"/>
    <line x1="305" y1="5" x2="305" y2="505"/>
    <line x1="5" y1="305" x2="505" y2="305"/>
    <line x1="405" y1="5" x2="405" y2="505"/>
    <line x1="5" y1="405" x2="505" y2="405"/>
  </g>
</svg>
