<?xml version="1.0" standalone="no"?>
<!DOCTYPE svg PUBLIC "-//W3C//DTD SVG 1.1//EN" 
  "http://www.w3.org/Graphics/SVG/1.1/DTD/svg11.dtd">
<svg width="510" height="510" version="1.1" id="toplevel"
    xmlns="http://www.w3.org/2000/svg"
    xmlns:xlink="http://www.w3.org/1999/xlink">
  <polygon points="252,399 303,382 316,303 368,292 431,321 456,307 421,242 415,121 244,130 231,111 195,132 196,133 166,130 120,212 54,272 74,294 213,278 218,294 216,318 230,328"
           fill="bisque"/>
  <g stroke="chocolate" stroke-width="1">
    <line x1="343" y1="263" x2="341" y2="147"/>
    <circle cx="343" cy="263" r="2"/>
    <circle cx="341" cy="147" r="2"/>
  </g>
  <g stroke="chocolate" stroke-width="1">
    <line x1="423" y1="280" x2="415" y2="121"/>
    <circle cx="423" cy="280" r="2"/>
    <circle cx="415" cy="121" r="2"/>
  </g>
  <g stroke="chocolate" stroke-width="1">
    <line x1="216" y1="318" x2="233" y2="142"/>
    <circle cx="216" cy="318" r="2"/>
    <circle cx="233" cy="142" r="2"/>
  </g>
  <g stroke="chocolate" stroke-width="1">
    <line x1="303" y1="382" x2="341" y2="147"/>
    <circle cx="303" cy="382" r="2"/>
    <circle cx="341" cy="147" r="2"/>
  </g>
  <g stroke="chocolate" stroke-width="1">
    <line x1="252" y1="399" x2="166" y2="130"/>
    <circle cx="252" cy="399" r="2"/>
    <circle cx="166" cy="130" r="2"/>
  </g>
  <g stroke="chocolate" stroke-width="1">
    <line x1="251" y1="317" x2="195" y2="132"/>
    <circle cx="251" cy="317" r="2"/>
    <circle cx="195" cy="132" r="2"/>
  </g>
  <g stroke="chocolate" stroke-width="1">
    <line x1="431" y1="321" x2="409" y2="226"/>
    <circle cx="431" cy="321" r="2"/>
    <circle cx="409" cy="226" r="2"/>
  </g>
  <g stroke="chocolate" stroke-width="1">
    <line x1="251" y1="317" x2="201" y2="216"/>
    <circle cx="251" cy="317" r="2"/>
    <circle cx="201" cy="216" r="2"/>
  </g>
  <g stroke="chocolate" stroke-width="1">
    <line x1="423" y1="280" x2="367" y2="139"/>
    <circle cx="423" cy="280" r="2"/>
    <circle cx="367" cy="139" r="2"/>
  </g>
  <g stroke="chocolate" stroke-width="1">
    <line x1="201" y1="216" x2="233" y2="142"/>
    <circle cx="201" cy="216" r="2"/>
    <circle cx="233" cy="142" r="2"/>
  </g>
  <g stroke="chocolate" stroke-width="1">
    <line x1="74" y1="294" x2="54" y2="272"/>
    <circle cx="74" cy="294" r="2"/>
    <circle cx="54" cy="272" r="2"/>
  </g>
  <g stroke="chocolate" stroke-width="1">
    <line x1="456" y1="307" x2="367" y2="139"/>
    <circle cx="456" cy="307" r="2"/>
    <circle cx="367" cy="139" r="2"/>
  </g>
  <g stroke="chocolate" stroke-width="1">
    <line x1="343" y1="263" x2="231" y2="111"/>
    <circle cx="343" cy="263" r="2"/>
    <circle cx="231" cy="111" r="2"/>
  </g>
  <g stroke="chocolate" stroke-width="1">
    <line x1="74" y1="294" x2="166" y2="130"/>
    <circle cx="74" cy="294" r="2"/>
    <circle cx="166" cy="130" r="2"/>
  </g>
  <g stroke="chocolate" stroke-width="1">
    <line x1="303" y1="382" x2="216" y2="318"/>
    <circle cx="303" cy="382" r="2"/>
    <circle cx="216" cy="318" r="2"/>
  </g>
  <g stroke="chocolate" stroke-width="1">
    <line x1="431" y1="321" x2="456" y2="307"/>
    <circle cx="431" cy="321" r="2"/>
    <circle cx="456" cy="307" r="2"/>
  </g>
  <g stroke="chocolate" stroke-width="1">
    <line x1="54" y1="272" x2="231" y2="111"/>
    <circle cx="54" cy="272" r="2"/>
    <circle cx="231" cy="111" r="2"/>
  </g>
  <g stroke="chocolate" stroke-width="1">
    <line x1="251" y1="317" x2="343" y2="263"/>
    <circle cx="251" cy="317" r="2"/>
    <circle cx="343" cy="263" r="2"/>
  </g>
  <g stroke="chocolate" stroke-width="1">
    <line x1="252" y1="399" x2="303" y2="382"/>
    <circle cx="252" cy="399" r="2"/>
    <circle cx="303" cy="382" r="2"/>
  </g>
  <g stroke="chocolate" stroke-width="1">
    <line x1="431" y1="321" x2="201" y2="216"/>
    <circle cx="431" cy="321" r="2"/>
    <circle cx="201" cy="216" r="2"/>
  </g>
  <g stroke="chocolate" stroke-width="1">
    <line x1="216" y1="318" x2="409" y2="226"/>
    <circle cx="216" cy="318" r="2"/>
    <circle cx="409" cy="226" r="2"/>
  </g>
  <g stroke="chocolate" stroke-width="1">
    <line x1="409" y1="226" x2="233" y2="142"/>
    <circle cx="409" cy="226" r="2"/>
    <circle cx="233" cy="142" r="2"/>
  </g>
  <g stroke="chocolate" stroke-width="1">
    <line x1="251" y1="317" x2="423" y2="280"/>
    <circle cx="251" cy="317" r="2"/>
    <circle cx="423" cy="280" r="2"/>
  </g>
  <g stroke="chocolate" stroke-width="1">
    <line x1="201" y1="216" x2="367" y2="139"/>
    <circle cx="201" cy="216" r="2"/>
    <circle cx="367" cy="139" r="2"/>
  </g>
  <g stroke="chocolate" stroke-width="1">
    <line x1="195" y1="132" x2="231" y2="111"/>
    <circle cx="195" cy="132" r="2"/>
    <circle cx="231" cy="111" r="2"/>
  </g>
  <g stroke="chocolate" stroke-width="1">
    <line x1="74" y1="294" x2="343" y2="263"/>
    <circle cx="74" cy="294" r="2"/>
    <circle cx="343" cy="263" r="2"/>
  </g>
  <g stroke="chocolate" stroke-width="1">
    <line x1="341" y1="147" x2="166" y2="130"/>
    <circle cx="341" cy="147" r="2"/>
    <circle cx="166" cy="130" r="2"/>
  </g>
  <g stroke="chocolate" stroke-width="1">
    <line x1="341" y1="147" x2="233" y2="142"/>
    <circle cx="341" cy="147" r="2"/>
    <circle cx="233" cy="142" r="2"/>
  </g>
  <g stroke="chocolate" stroke-width="1">
    <line x1="195" y1="132" x2="415" y2="121"/>
    <circle cx="195" cy="132" r="2"/>
    <circle cx="415" cy="121" r="2"/>
  </g>
  <g stroke="black" stroke-width="1">
    <line x1="5" y1="5" x2="505" y2="5"/>
    <line x1="5" y1="5" x2="5" y2="505"/>
    <line x1="505" y1="505" x2="5" y2="505"/>
    <line x1="505" y1="505" x2="505" y2="5"/>
    <line x1="105" y1="2" x2="105" y2="8"/>
    <line x1="2" y1="105" x2="8" y2="105"/>
    <line x1="105" y1="502" x2="105" y2="508"/>
    <line x1="502" y1="105" x2="508" y2="105"/>
    <line x1="205" y1="2" x2="205" y2="8"/>
    <line x1="2" y1="205" x2="8" y2="205"/>
    <line x1="205" y1="502" x2="205" y2="508"/>
    <line x1="502" y1="205" x2="508" y2="205"/>
    <line x1="305" y1="2" x2="305" y2="8"/>
    <line x1="2" y1="305" x2="8" y2="305"/>
    <line x1="305" y1="502" x2="305" y2="508"/>
    <line x1="502" y1="305" x2="508" y2="305"/>
    <line x1="405" y1="2" x2="405" y2="8"/>
    <line x1="2" y1="405" x2="8" y2="405"/>
    <line x1="405" y1="502" x2="405" y2="508"/>
    <line x1="502" y1="405" x2="508" y2="405"/>
  </g>
  <g stroke="gray" stroke-width="1" stroke-dasharray="5,5">
    <line x1="105" y1="5" x2="105" y2="505"/>
    <line x1="5" y1="105" x2="505" y2="105"/>
    <line x1="205" y1="5" x2="205" y2="505"/>
    <line x1="5" y1="205" x2="505" y2="205"/>
    <line x1="305" y1="5" x2="305" y2="505"/>
    <line x1="5" y1="305" x2="505" y2="305"/>
    <line x1="405" y1="5" x2="405" y2="505"/>
    <line x1="5" y1="405" x2="505" y2="405"/>
  </g>
</svg>
