<?xml version="1.0" standalone="no"?>
<!DOCTYPE svg PUBLIC "-//W3C//DTD SVG 1.1//EN" 
  "http://www.w3.org/Graphics/SVG/1.1/DTD/svg11.dtd">
<svg width="510" height="510" version="1.1" id="toplevel"
    xmlns="http://www.w3.org/2000/svg"
    xmlns:xlink="http://www.w3.org/1999/xlink">
  <polygon points="145,373 179,337 188,342 204,333 241,342 319,370 354,270 343,261 346,257 337,238 356,233 357,219 390,198 381,144 289,159 276,143 225,147 211,117 154,111 142,227 152,234 136,246 140,298 122,308 120,372"
           fill="bisque"/>
  <g stroke="chocolate" stroke-width="1">
    <line x1="305" y1="319" x2="346" y2="257"/>
    <circle cx="305" cy="319" r="2"/>
    <circle cx="346" cy="257" r="2"/>
  </g>
  <g stroke="chocolate" stroke-width="1">
    <line x1="145" y1="373" x2="318" y2="194"/>
    <circle cx="145" cy="373" r="2"/>
    <circle cx="318" cy="194" r="2"/>
  </g>
  <g stroke="chocolate" stroke-width="1">
    <line x1="160" y1="205" x2="202" y2="148"/>
    <circle cx="160" cy="205" r="2"/>
    <circle cx="202" cy="148" r="2"/>
  </g>
  <g stroke="chocolate" stroke-width="1">
    <line x1="308" y1="299" x2="354" y2="270"/>
    <circle cx="308" cy="299" r="2"/>
    <circle cx="354" cy="270" r="2"/>
  </g>
  <g stroke="chocolate" stroke-width="1">
    <line x1="166" y1="184" x2="211" y2="117"/>
    <circle cx="166" cy="184" r="2"/>
    <circle cx="211" cy="117" r="2"/>
  </g>
  <g stroke="chocolate" stroke-width="1">
    <line x1="190" y1="330" x2="390" y2="198"/>
    <circle cx="190" cy="330" r="2"/>
    <circle cx="390" cy="198" r="2"/>
  </g>
  <g stroke="chocolate" stroke-width="1">
    <line x1="142" y1="227" x2="205" y2="178"/>
    <circle cx="142" cy="227" r="2"/>
    <circle cx="205" cy="178" r="2"/>
  </g>
  <g stroke="chocolate" stroke-width="1">
    <line x1="136" y1="246" x2="276" y2="143"/>
    <circle cx="136" cy="246" r="2"/>
    <circle cx="276" cy="143" r="2"/>
  </g>
  <g stroke="chocolate" stroke-width="1">
    <line x1="188" y1="342" x2="346" y2="257"/>
    <circle cx="188" cy="342" r="2"/>
    <circle cx="346" cy="257" r="2"/>
  </g>
  <g stroke="chocolate" stroke-width="1">
    <line x1="319" y1="370" x2="354" y2="270"/>
    <circle cx="319" cy="370" r="2"/>
    <circle cx="354" cy="270" r="2"/>
  </g>
  <g stroke="chocolate" stroke-width="1">
    <line x1="122" y1="308" x2="318" y2="194"/>
    <circle cx="122" cy="308" r="2"/>
    <circle cx="318" cy="194" r="2"/>
  </g>
  <g stroke="chocolate" stroke-width="1">
    <line x1="169" y1="275" x2="360" y2="179"/>
    <circle cx="169" cy="275" r="2"/>
    <circle cx="360" cy="179" r="2"/>
  </g>
  <g stroke="chocolate" stroke-width="1">
    <line x1="208" y1="331" x2="279" y2="300"/>
    <circle cx="208" cy="331" r="2"/>
    <circle cx="279" cy="300" r="2"/>
  </g>
  <g stroke="chocolate" stroke-width="1">
    <line x1="243" y1="343" x2="305" y2="319"/>
    <circle cx="243" cy="343" r="2"/>
    <circle cx="305" cy="319" r="2"/>
  </g>
  <g stroke="chocolate" stroke-width="1">
    <line x1="243" y1="343" x2="266" y2="192"/>
    <circle cx="243" cy="343" r="2"/>
    <circle cx="266" cy="192" r="2"/>
  </g>
  <g stroke="chocolate" stroke-width="1">
    <line x1="308" y1="299" x2="323" y2="174"/>
    <circle cx="308" cy="299" r="2"/>
    <circle cx="323" cy="174" r="2"/>
  </g>
  <g stroke="chocolate" stroke-width="1">
    <line x1="188" y1="342" x2="205" y2="178"/>
    <circle cx="188" cy="342" r="2"/>
    <circle cx="205" cy="178" r="2"/>
  </g>
  <g stroke="chocolate" stroke-width="1">
    <line x1="142" y1="227" x2="154" y2="111"/>
    <circle cx="142" cy="227" r="2"/>
    <circle cx="154" cy="111" r="2"/>
  </g>
  <g stroke="chocolate" stroke-width="1">
    <line x1="356" y1="233" x2="360" y2="179"/>
    <circle cx="356" cy="233" r="2"/>
    <circle cx="360" cy="179" r="2"/>
  </g>
  <g stroke="chocolate" stroke-width="1">
    <line x1="169" y1="275" x2="356" y2="233"/>
    <circle cx="169" cy="275" r="2"/>
    <circle cx="356" cy="233" r="2"/>
  </g>
  <g stroke="chocolate" stroke-width="1">
    <line x1="120" y1="372" x2="122" y2="308"/>
    <circle cx="120" cy="372" r="2"/>
    <circle cx="122" cy="308" r="2"/>
  </g>
  <g stroke="chocolate" stroke-width="1">
    <line x1="190" y1="330" x2="195" y2="175"/>
    <circle cx="190" cy="330" r="2"/>
    <circle cx="195" cy="175" r="2"/>
  </g>
  <g stroke="chocolate" stroke-width="1">
    <line x1="160" y1="205" x2="323" y2="174"/>
    <circle cx="160" cy="205" r="2"/>
    <circle cx="323" cy="174" r="2"/>
  </g>
  <g stroke="chocolate" stroke-width="1">
    <line x1="279" y1="300" x2="276" y2="143"/>
    <circle cx="279" cy="300" r="2"/>
    <circle cx="276" cy="143" r="2"/>
  </g>
  <g stroke="chocolate" stroke-width="1">
    <line x1="208" y1="331" x2="202" y2="148"/>
    <circle cx="208" cy="331" r="2"/>
    <circle cx="202" cy="148" r="2"/>
  </g>
  <g stroke="chocolate" stroke-width="1">
    <line x1="195" y1="175" x2="381" y2="144"/>
    <circle cx="195" cy="175" r="2"/>
    <circle cx="381" cy="144" r="2"/>
  </g>
  <g stroke="chocolate" stroke-width="1">
    <line x1="145" y1="373" x2="136" y2="246"/>
    <circle cx="145" cy="373" r="2"/>
    <circle cx="136" cy="246" r="2"/>
  </g>
  <g stroke="chocolate" stroke-width="1">
    <line x1="145" y1="373" x2="120" y2="372"/>
    <circle cx="145" cy="373" r="2"/>
    <circle cx="120" cy="372" r="2"/>
  </g>
  <g stroke="chocolate" stroke-width="1">
    <line x1="169" y1="275" x2="160" y2="205"/>
    <circle cx="169" cy="275" r="2"/>
    <circle cx="160" cy="205" r="2"/>
  </g>
  <g stroke="chocolate" stroke-width="1">
    <line x1="202" y1="148" x2="276" y2="143"/>
    <circle cx="202" cy="148" r="2"/>
    <circle cx="276" cy="143" r="2"/>
  </g>
  <g stroke="chocolate" stroke-width="1">
    <line x1="390" y1="198" x2="381" y2="144"/>
    <circle cx="390" cy="198" r="2"/>
    <circle cx="381" cy="144" r="2"/>
  </g>
  <g stroke="chocolate" stroke-width="1">
    <line x1="266" y1="192" x2="166" y2="184"/>
    <circle cx="266" cy="192" r="2"/>
    <circle cx="166" cy="184" r="2"/>
  </g>
  <g stroke="chocolate" stroke-width="1">
    <line x1="243" y1="343" x2="190" y2="330"/>
    <circle cx="243" cy="343" r="2"/>
    <circle cx="190" cy="330" r="2"/>
  </g>
  <g stroke="chocolate" stroke-width="1">
    <line x1="190" y1="330" x2="169" y2="275"/>
    <circle cx="190" cy="330" r="2"/>
    <circle cx="169" cy="275" r="2"/>
  </g>
  <g stroke="chocolate" stroke-width="1">
    <line x1="211" y1="117" x2="154" y2="111"/>
    <circle cx="211" cy="117" r="2"/>
    <circle cx="154" cy="111" r="2"/>
  </g>
  <g stroke="chocolate" stroke-width="1">
    <line x1="319" y1="370" x2="208" y2="331"/>
    <circle cx="319" cy="370" r="2"/>
    <circle cx="208" cy="331" r="2"/>
  </g>
  <g stroke="chocolate" stroke-width="1">
    <line x1="243" y1="343" x2="166" y2="184"/>
    <circle cx="243" cy="343" r="2"/>
    <circle cx="166" cy="184" r="2"/>
  </g>
  <g stroke="chocolate" stroke-width="1">
    <line x1="266" y1="192" x2="195" y2="175"/>
    <circle cx="266" cy="192" r="2"/>
    <circle cx="195" cy="175" r="2"/>
  </g>
  <g stroke="chocolate" stroke-width="1">
    <line x1="305" y1="319" x2="211" y2="117"/>
    <circle cx="305" cy="319" r="2"/>
    <circle cx="211" cy="117" r="2"/>
  </g>
  <g stroke="chocolate" stroke-width="1">
    <line x1="346" y1="257" x2="318" y2="194"/>
    <circle cx="346" cy="257" r="2"/>
    <circle cx="318" cy="194" r="2"/>
  </g>
  <g stroke="chocolate" stroke-width="1">
    <line x1="279" y1="300" x2="136" y2="246"/>
    <circle cx="279" cy="300" r="2"/>
    <circle cx="136" cy="246" r="2"/>
  </g>
  <g stroke="chocolate" stroke-width="1">
    <line x1="188" y1="342" x2="122" y2="308"/>
    <circle cx="188" cy="342" r="2"/>
    <circle cx="122" cy="308" r="2"/>
  </g>
  <g stroke="chocolate" stroke-width="1">
    <line x1="356" y1="233" x2="323" y2="174"/>
    <circle cx="356" cy="233" r="2"/>
    <circle cx="323" cy="174" r="2"/>
  </g>
  <g stroke="chocolate" stroke-width="1">
    <line x1="305" y1="319" x2="142" y2="227"/>
    <circle cx="305" cy="319" r="2"/>
    <circle cx="142" cy="227" r="2"/>
  </g>
  <g stroke="chocolate" stroke-width="1">
    <line x1="308" y1="299" x2="160" y2="205"/>
    <circle cx="308" cy="299" r="2"/>
    <circle cx="160" cy="205" r="2"/>
  </g>
  <g stroke="chocolate" stroke-width="1">
    <line x1="346" y1="257" x2="205" y2="178"/>
    <circle cx="346" cy="257" r="2"/>
    <circle cx="205" cy="178" r="2"/>
  </g>
  <g stroke="chocolate" stroke-width="1">
    <line x1="318" y1="194" x2="276" y2="143"/>
    <circle cx="318" cy="194" r="2"/>
    <circle cx="276" cy="143" r="2"/>
  </g>
  <g stroke="chocolate" stroke-width="1">
    <line x1="354" y1="270" x2="202" y2="148"/>
    <circle cx="354" cy="270" r="2"/>
    <circle cx="202" cy="148" r="2"/>
  </g>
  <g stroke="chocolate" stroke-width="1">
    <line x1="390" y1="198" x2="360" y2="179"/>
    <circle cx="390" cy="198" r="2"/>
    <circle cx="360" cy="179" r="2"/>
  </g>
  <g stroke="black" stroke-width="1">
    <line x1="5" y1="5" x2="505" y2="5"/>
    <line x1="5" y1="5" x2="5" y2="505"/>
    <line x1="505" y1="505" x2="5" y2="505"/>
    <line x1="505" y1="505" x2="505" y2="5"/>
    <line x1="105" y1="2" x2="105" y2="8"/>
    <line x1="2" y1="105" x2="8" y2="105"/>
    <line x1="105" y1="502" x2="105" y2="508"/>
    <line x1="502" y1="105" x2="508" y2="105"/>
    <line x1="205" y1="2" x2="205" y2="8"/>
    <line x1="2" y1="205" x2="8" y2="205"/>
    <line x1="205" y1="502" x2="205" y2="508"/>
    <line x1="502" y1="205" x2="508" y2="205"/>
    <line x1="305" y1="2" x2="305" y2="8"/>
    <line x1="2" y1="305" x2="8" y2="305"/>
    <line x1="305" y1="502" x2="305" y2="508"/>
    <line x1="502" y1="305" x2="508" y2="305"/>
    <line x1="405" y1="2" x2="405" y2="8"/>
    <line x1="2" y1="405" x2="8" y2="405"/>
    <line x1="405" y1="502" x2="405" y2="508"/>
    <line x1="502" y1="405" x2="508" y2="405"/>
  </g>
  <g stroke="gray" stroke-width="1" stroke-dasharray="5,5">
    <line x1="105" y1="5" x2="105" y2="505"/>
    <line x1="5" y1="105" x2="505" y2="105"/>
    <line x1="205" y1="5" x2="205" y2="505"/>
    <line x1="5" y1="205" x2="505" y2="205"/>
    <line x1="305" y1="5" x2="305" y2="505"/>
    <line x1="5" y1="305" x2="505" y2="305"/>
    <line x1="405" y1="5" x2="405" y2="505"/>
    <line x1="5" y1="405" x2="505" y2="405"/>
  </g>
</svg>
