<?xml version="1.0" standalone="no"?>
<!DOCTYPE svg PUBLIC "-//W3C//DTD SVG 1.1//EN" 
  "http://www.w3.org/Graphics/SVG/1.1/DTD/svg11.dtd">
<svg width="510" height="510" version="1.1" id="toplevel"
    xmlns="http://www.w3.org/2000/svg"
    xmlns:xlink="http://www.w3.org/1999/xlink">
  <polygon points="124,450 354,309 473,109 467,60 117,100 90,66 37,109 101,259 54,278 80,341 59,375"
           fill="bisque"/>
  <g stroke="chocolate" stroke-width="1">
    <line x1="354" y1="309" x2="473" y2="109"/>
    <circle cx="354" cy="309" r="2"/>
    <circle cx="473" cy="109" r="2"/>
  </g>
  <g stroke="chocolate" stroke-width="1">
    <line x1="247" y1="369" x2="294" y2="313"/>
    <circle cx="247" cy="369" r="2"/>
    <circle cx="294" cy="313" r="2"/>
  </g>
  <g stroke="chocolate" stroke-width="1">
    <line x1="245" y1="370" x2="250" y2="365"/>
    <circle cx="245" cy="370" r="2"/>
    <circle cx="250" cy="365" r="2"/>
  </g>
  <g stroke="chocolate" stroke-width="1">
    <line x1="250" y1="365" x2="276" y2="327"/>
    <circle cx="250" cy="365" r="2"/>
    <circle cx="276" cy="327" r="2"/>
  </g>
  <g stroke="chocolate" stroke-width="1">
    <line x1="245" y1="370" x2="247" y2="369"/>
    <circle cx="245" cy="370" r="2"/>
    <circle cx="247" cy="369" r="2"/>
  </g>
  <g stroke="chocolate" stroke-width="1">
    <line x1="247" y1="369" x2="274" y2="315"/>
    <circle cx="247" cy="369" r="2"/>
    <circle cx="274" cy="315" r="2"/>
  </g>
  <g stroke="chocolate" stroke-width="1">
    <line x1="124" y1="450" x2="354" y2="309"/>
    <circle cx="124" cy="450" r="2"/>
    <circle cx="354" cy="309" r="2"/>
  </g>
  <g stroke="chocolate" stroke-width="1">
    <line x1="176" y1="408" x2="245" y2="370"/>
    <circle cx="176" cy="408" r="2"/>
    <circle cx="245" cy="370" r="2"/>
  </g>
  <g stroke="chocolate" stroke-width="1">
    <line x1="59" y1="375" x2="90" y2="326"/>
    <circle cx="59" cy="375" r="2"/>
    <circle cx="90" cy="326" r="2"/>
  </g>
  <g stroke="chocolate" stroke-width="1">
    <line x1="274" y1="315" x2="277" y2="314"/>
    <circle cx="274" cy="315" r="2"/>
    <circle cx="277" cy="314" r="2"/>
  </g>
  <g stroke="chocolate" stroke-width="1">
    <line x1="176" y1="408" x2="202" y2="319"/>
    <circle cx="176" cy="408" r="2"/>
    <circle cx="202" cy="319" r="2"/>
  </g>
  <g stroke="chocolate" stroke-width="1">
    <line x1="202" y1="319" x2="203" y2="319"/>
    <circle cx="202" cy="319" r="2"/>
    <circle cx="203" cy="319" r="2"/>
  </g>
  <g stroke="chocolate" stroke-width="1">
    <line x1="267" y1="329" x2="276" y2="327"/>
    <circle cx="267" cy="329" r="2"/>
    <circle cx="276" cy="327" r="2"/>
  </g>
  <g stroke="chocolate" stroke-width="1">
    <line x1="54" y1="278" x2="473" y2="109"/>
    <circle cx="54" cy="278" r="2"/>
    <circle cx="473" cy="109" r="2"/>
  </g>
  <g stroke="chocolate" stroke-width="1">
    <line x1="37" y1="109" x2="90" y2="66"/>
    <circle cx="37" cy="109" r="2"/>
    <circle cx="90" cy="66" r="2"/>
  </g>
  <g stroke="chocolate" stroke-width="1">
    <line x1="90" y1="326" x2="354" y2="309"/>
    <circle cx="90" cy="326" r="2"/>
    <circle cx="354" cy="309" r="2"/>
  </g>
  <g stroke="chocolate" stroke-width="1">
    <line x1="473" y1="109" x2="467" y2="60"/>
    <circle cx="473" cy="109" r="2"/>
    <circle cx="467" cy="60" r="2"/>
  </g>
  <g stroke="chocolate" stroke-width="1">
    <line x1="276" y1="327" x2="274" y2="315"/>
    <circle cx="276" cy="327" r="2"/>
    <circle cx="274" cy="315" r="2"/>
  </g>
  <g stroke="chocolate" stroke-width="1">
    <line x1="124" y1="450" x2="54" y2="278"/>
    <circle cx="124" cy="450" r="2"/>
    <circle cx="54" cy="278" r="2"/>
  </g>
  <g stroke="chocolate" stroke-width="1">
    <line x1="176" y1="408" x2="59" y2="375"/>
    <circle cx="176" cy="408" r="2"/>
    <circle cx="59" cy="375" r="2"/>
  </g>
  <g stroke="chocolate" stroke-width="1">
    <line x1="170" y1="421" x2="37" y2="109"/>
    <circle cx="170" cy="421" r="2"/>
    <circle cx="37" cy="109" r="2"/>
  </g>
  <g stroke="chocolate" stroke-width="1">
    <line x1="124" y1="450" x2="59" y2="375"/>
    <circle cx="124" cy="450" r="2"/>
    <circle cx="59" cy="375" r="2"/>
  </g>
  <g stroke="chocolate" stroke-width="1">
    <line x1="202" y1="319" x2="202" y2="319"/>
    <circle cx="202" cy="319" r="2"/>
    <circle cx="202" cy="319" r="2"/>
  </g>
  <g stroke="chocolate" stroke-width="1">
    <line x1="170" y1="421" x2="90" y2="326"/>
    <circle cx="170" cy="421" r="2"/>
    <circle cx="90" cy="326" r="2"/>
  </g>
  <g stroke="chocolate" stroke-width="1">
    <line x1="311" y1="335" x2="306" y2="323"/>
    <circle cx="311" cy="335" r="2"/>
    <circle cx="306" cy="323" r="2"/>
  </g>
  <g stroke="chocolate" stroke-width="1">
    <line x1="272" y1="339" x2="203" y2="319"/>
    <circle cx="272" cy="339" r="2"/>
    <circle cx="203" cy="319" r="2"/>
  </g>
  <g stroke="chocolate" stroke-width="1">
    <line x1="272" y1="339" x2="267" y2="329"/>
    <circle cx="272" cy="339" r="2"/>
    <circle cx="267" cy="329" r="2"/>
  </g>
  <g stroke="chocolate" stroke-width="1">
    <line x1="306" y1="323" x2="277" y2="314"/>
    <circle cx="306" cy="323" r="2"/>
    <circle cx="277" cy="314" r="2"/>
  </g>
  <g stroke="chocolate" stroke-width="1">
    <line x1="37" y1="109" x2="467" y2="60"/>
    <circle cx="37" cy="109" r="2"/>
    <circle cx="467" cy="60" r="2"/>
  </g>
  <g stroke="chocolate" stroke-width="1">
    <line x1="311" y1="335" x2="90" y2="66"/>
    <circle cx="311" cy="335" r="2"/>
    <circle cx="90" cy="66" r="2"/>
  </g>
  <g stroke="chocolate" stroke-width="1">
    <line x1="306" y1="323" x2="294" y2="313"/>
    <circle cx="306" cy="323" r="2"/>
    <circle cx="294" cy="313" r="2"/>
  </g>
  <g stroke="black" stroke-width="1">
    <line x1="5" y1="5" x2="505" y2="5"/>
    <line x1="5" y1="5" x2="5" y2="505"/>
    <line x1="505" y1="505" x2="5" y2="505"/>
    <line x1="505" y1="505" x2="505" y2="5"/>
    <line x1="105" y1="2" x2="105" y2="8"/>
    <line x1="2" y1="105" x2="8" y2="105"/>
    <line x1="105" y1="502" x2="105" y2="508"/>
    <line x1="502" y1="105" x2="508" y2="105"/>
    <line x1="205" y1="2" x2="205" y2="8"/>
    <line x1="2" y1="205" x2="8" y2="205"/>
    <line x1="205" y1="502" x2="205" y2="508"/>
    <line x1="502" y1="205" x2="508" y2="205"/>
    <line x1="305" y1="2" x2="305" y2="8"/>
    <line x1="2" y1="305" x2="8" y2="305"/>
    <line x1="305" y1="502" x2="305" y2="508"/>
    <line x1="502" y1="305" x2="508" y2="305"/>
    <line x1="405" y1="2" x2="405" y2="8"/>
    <line x1="2" y1="405" x2="8" y2="405"/>
    <line x1="405" y1="502" x2="405" y2="508"/>
    <line x1="502" y1="405" x2="508" y2="405"/>
  </g>
  <g stroke="gray" stroke-width="1" stroke-dasharray="5,5">
    <line x1="105" y1="5" x2="105" y2="505"/>
    <line x1="5" y1="105" x2="505" y2="105"/>
    <line x1="205" y1="5" x2="205" y2="505"/>
    <line x1="5" y1="205" x2="505" y2="205"/>
    <line x1="305" y1="5" x2="305" y2="505"/>
    <line x1="5" y1="305" x2="505" y2="305"/>
    <line x1="405" y1="5" x2="405" y2="505"/>
    <line x1="5" y1="405" x2="505" y2="405"/>
  </g>
</svg>
