<?xml version="1.0" standalone="no"?>
<!DOCTYPE svg PUBLIC "-//W3C//DTD SVG 1.1//EN" 
  "http://www.w3.org/Graphics/SVG/1.1/DTD/svg11.dtd">
<svg width="510" height="510" version="1.1" id="toplevel"
    xmlns="http://www.w3.org/2000/svg"
    xmlns:xlink="http://www.w3.org/1999/xlink">
  <polygon points="164,425 193,409 197,395 293,308 288,247 370,257 377,223 268,114 138,229 138,280 120,276 113,311 95,309 94,325"
           fill="bisque"/>
  <g stroke="chocolate" stroke-width="1">
    <line x1="370" y1="257" x2="377" y2="223"/>
    <circle cx="370" cy="257" r="2"/>
    <circle cx="377" cy="223" r="2"/>
  </g>
  <g stroke="chocolate" stroke-width="1">
    <line x1="361" y1="256" x2="366" y2="213"/>
    <circle cx="361" cy="256" r="2"/>
    <circle cx="366" cy="213" r="2"/>
  </g>
  <g stroke="chocolate" stroke-width="1">
    <line x1="193" y1="409" x2="207" y2="353"/>
    <circle cx="193" cy="409" r="2"/>
    <circle cx="207" cy="353" r="2"/>
  </g>
  <g stroke="chocolate" stroke-width="1">
    <line x1="164" y1="425" x2="293" y2="308"/>
    <circle cx="164" cy="425" r="2"/>
    <circle cx="293" cy="308" r="2"/>
  </g>
  <g stroke="chocolate" stroke-width="1">
    <line x1="370" y1="257" x2="371" y2="218"/>
    <circle cx="370" cy="257" r="2"/>
    <circle cx="371" cy="218" r="2"/>
  </g>
  <g stroke="chocolate" stroke-width="1">
    <line x1="107" y1="344" x2="111" y2="329"/>
    <circle cx="107" cy="344" r="2"/>
    <circle cx="111" cy="329" r="2"/>
  </g>
  <g stroke="chocolate" stroke-width="1">
    <line x1="107" y1="344" x2="120" y2="276"/>
    <circle cx="107" cy="344" r="2"/>
    <circle cx="120" cy="276" r="2"/>
  </g>
  <g stroke="chocolate" stroke-width="1">
    <line x1="243" y1="353" x2="252" y2="129"/>
    <circle cx="243" cy="353" r="2"/>
    <circle cx="252" cy="129" r="2"/>
  </g>
  <g stroke="chocolate" stroke-width="1">
    <line x1="94" y1="325" x2="95" y2="309"/>
    <circle cx="94" cy="325" r="2"/>
    <circle cx="95" cy="309" r="2"/>
  </g>
  <g stroke="chocolate" stroke-width="1">
    <line x1="164" y1="425" x2="193" y2="409"/>
    <circle cx="164" cy="425" r="2"/>
    <circle cx="193" cy="409" r="2"/>
  </g>
  <g stroke="chocolate" stroke-width="1">
    <line x1="138" y1="389" x2="138" y2="229"/>
    <circle cx="138" cy="389" r="2"/>
    <circle cx="138" cy="229" r="2"/>
  </g>
  <g stroke="chocolate" stroke-width="1">
    <line x1="272" y1="328" x2="272" y2="118"/>
    <circle cx="272" cy="328" r="2"/>
    <circle cx="272" cy="118" r="2"/>
  </g>
  <g stroke="chocolate" stroke-width="1">
    <line x1="293" y1="308" x2="279" y2="126"/>
    <circle cx="293" cy="308" r="2"/>
    <circle cx="279" cy="126" r="2"/>
  </g>
  <g stroke="chocolate" stroke-width="1">
    <line x1="292" y1="222" x2="285" y2="131"/>
    <circle cx="292" cy="222" r="2"/>
    <circle cx="285" cy="131" r="2"/>
  </g>
  <g stroke="chocolate" stroke-width="1">
    <line x1="277" y1="224" x2="264" y2="118"/>
    <circle cx="277" cy="224" r="2"/>
    <circle cx="264" cy="118" r="2"/>
  </g>
  <g stroke="chocolate" stroke-width="1">
    <line x1="259" y1="124" x2="268" y2="114"/>
    <circle cx="259" cy="124" r="2"/>
    <circle cx="268" cy="114" r="2"/>
  </g>
  <g stroke="chocolate" stroke-width="1">
    <line x1="283" y1="242" x2="259" y2="124"/>
    <circle cx="283" cy="242" r="2"/>
    <circle cx="259" cy="124" r="2"/>
  </g>
  <g stroke="chocolate" stroke-width="1">
    <line x1="138" y1="229" x2="268" y2="114"/>
    <circle cx="138" cy="229" r="2"/>
    <circle cx="268" cy="114" r="2"/>
  </g>
  <g stroke="chocolate" stroke-width="1">
    <line x1="164" y1="425" x2="94" y2="325"/>
    <circle cx="164" cy="425" r="2"/>
    <circle cx="94" cy="325" r="2"/>
  </g>
  <g stroke="chocolate" stroke-width="1">
    <line x1="193" y1="409" x2="138" y2="389"/>
    <circle cx="193" cy="409" r="2"/>
    <circle cx="138" cy="389" r="2"/>
  </g>
  <g stroke="chocolate" stroke-width="1">
    <line x1="243" y1="353" x2="107" y2="344"/>
    <circle cx="243" cy="353" r="2"/>
    <circle cx="107" cy="344" r="2"/>
  </g>
  <g stroke="chocolate" stroke-width="1">
    <line x1="205" y1="360" x2="107" y2="344"/>
    <circle cx="205" cy="360" r="2"/>
    <circle cx="107" cy="344" r="2"/>
  </g>
  <g stroke="chocolate" stroke-width="1">
    <line x1="205" y1="360" x2="111" y2="329"/>
    <circle cx="205" cy="360" r="2"/>
    <circle cx="111" cy="329" r="2"/>
  </g>
  <g stroke="chocolate" stroke-width="1">
    <line x1="207" y1="353" x2="94" y2="325"/>
    <circle cx="207" cy="353" r="2"/>
    <circle cx="94" cy="325" r="2"/>
  </g>
  <g stroke="chocolate" stroke-width="1">
    <line x1="283" y1="242" x2="377" y2="223"/>
    <circle cx="283" cy="242" r="2"/>
    <circle cx="377" cy="223" r="2"/>
  </g>
  <g stroke="chocolate" stroke-width="1">
    <line x1="272" y1="328" x2="95" y2="309"/>
    <circle cx="272" cy="328" r="2"/>
    <circle cx="95" cy="309" r="2"/>
  </g>
  <g stroke="chocolate" stroke-width="1">
    <line x1="293" y1="308" x2="120" y2="276"/>
    <circle cx="293" cy="308" r="2"/>
    <circle cx="120" cy="276" r="2"/>
  </g>
  <g stroke="chocolate" stroke-width="1">
    <line x1="277" y1="224" x2="366" y2="213"/>
    <circle cx="277" cy="224" r="2"/>
    <circle cx="366" cy="213" r="2"/>
  </g>
  <g stroke="chocolate" stroke-width="1">
    <line x1="292" y1="222" x2="371" y2="218"/>
    <circle cx="292" cy="222" r="2"/>
    <circle cx="371" cy="218" r="2"/>
  </g>
  <g stroke="chocolate" stroke-width="1">
    <line x1="370" y1="257" x2="138" y2="229"/>
    <circle cx="370" cy="257" r="2"/>
    <circle cx="138" cy="229" r="2"/>
  </g>
  <g stroke="chocolate" stroke-width="1">
    <line x1="377" y1="223" x2="268" y2="114"/>
    <circle cx="377" cy="223" r="2"/>
    <circle cx="268" cy="114" r="2"/>
  </g>
  <g stroke="chocolate" stroke-width="1">
    <line x1="264" y1="118" x2="272" y2="118"/>
    <circle cx="264" cy="118" r="2"/>
    <circle cx="272" cy="118" r="2"/>
  </g>
  <g stroke="chocolate" stroke-width="1">
    <line x1="285" y1="131" x2="252" y2="129"/>
    <circle cx="285" cy="131" r="2"/>
    <circle cx="252" cy="129" r="2"/>
  </g>
  <g stroke="chocolate" stroke-width="1">
    <line x1="279" y1="126" x2="259" y2="124"/>
    <circle cx="279" cy="126" r="2"/>
    <circle cx="259" cy="124" r="2"/>
  </g>
  <g stroke="black" stroke-width="1">
    <line x1="5" y1="5" x2="505" y2="5"/>
    <line x1="5" y1="5" x2="5" y2="505"/>
    <line x1="505" y1="505" x2="5" y2="505"/>
    <line x1="505" y1="505" x2="505" y2="5"/>
    <line x1="105" y1="2" x2="105" y2="8"/>
    <line x1="2" y1="105" x2="8" y2="105"/>
    <line x1="105" y1="502" x2="105" y2="508"/>
    <line x1="502" y1="105" x2="508" y2="105"/>
    <line x1="205" y1="2" x2="205" y2="8"/>
    <line x1="2" y1="205" x2="8" y2="205"/>
    <line x1="205" y1="502" x2="205" y2="508"/>
    <line x1="502" y1="205" x2="508" y2="205"/>
    <line x1="305" y1="2" x2="305" y2="8"/>
    <line x1="2" y1="305" x2="8" y2="305"/>
    <line x1="305" y1="502" x2="305" y2="508"/>
    <line x1="502" y1="305" x2="508" y2="305"/>
    <line x1="405" y1="2" x2="405" y2="8"/>
    <line x1="2" y1="405" x2="8" y2="405"/>
    <line x1="405" y1="502" x2="405" y2="508"/>
    <line x1="502" y1="405" x2="508" y2="405"/>
  </g>
  <g stroke="gray" stroke-width="1" stroke-dasharray="5,5">
    <line x1="105" y1="5" x2="105" y2="505"/>
    <line x1="5" y1="105" x2="505" y2="105"/>
    <line x1="205" y1="5" x2="205" y2="505"/>
    <line x1="5" y1="205" x2="505" y2="205"/>
    <line x1="305" y1="5" x2="305" y2="505"/>
    <line x1="5" y1="305" x2="505" y2="305"/>
    <line x1="405" y1="5" x2="405" y2="505"/>
    <line x1="5" y1="405" x2="505" y2="405"/>
  </g>
</svg>
