<?xml version="1.0" standalone="no"?>
<!DOCTYPE svg PUBLIC "-//W3C//DTD SVG 1.1//EN" 
  "http://www.w3.org/Graphics/SVG/1.1/DTD/svg11.dtd">
<svg width="554" height="554" version="1.1" id="toplevel"
    xmlns="http://www.w3.org/2000/svg"
    xmlns:xlink="http://www.w3.org/1999/xlink">
  <polygon points="505,446 549,378 505,349 505,27 5,27 5,297" fill="bisque"/>
  <g stroke="chocolate" stroke-width="1">
    <line x1="505" y1="446" x2="549" y2="378"/>
    <circle cx="505" cy="446" r="2"/>
    <circle cx="549" cy="378" r="2"/>
  </g>
  <g stroke="chocolate" stroke-width="1">
    <line x1="5" y1="297" x2="5" y2="27"/>
    <circle cx="5" cy="297" r="2"/>
    <circle cx="5" cy="27" r="2"/>
  </g>
  <g stroke="chocolate" stroke-width="1">
    <line x1="505" y1="446" x2="505" y2="27"/>
    <circle cx="505" cy="446" r="2"/>
    <circle cx="505" cy="27" r="2"/>
  </g>
  <g stroke="chocolate" stroke-width="1">
    <line x1="5" y1="297" x2="131" y2="104"/>
    <circle cx="5" cy="297" r="2"/>
    <circle cx="131" cy="104" r="2"/>
  </g>
  <g stroke="chocolate" stroke-width="1">
    <line x1="505" y1="446" x2="5" y2="297"/>
    <circle cx="505" cy="446" r="2"/>
    <circle cx="5" cy="297" r="2"/>
  </g>
  <g stroke="chocolate" stroke-width="1">
    <line x1="549" y1="378" x2="131" y2="104"/>
    <circle cx="549" cy="378" r="2"/>
    <circle cx="131" cy="104" r="2"/>
  </g>
  <g stroke="chocolate" stroke-width="1">
    <line x1="5" y1="27" x2="505" y2="27"/>
    <circle cx="5" cy="27" r="2"/>
    <circle cx="505" cy="27" r="2"/>
  </g>
  <g stroke="black" stroke-width="1">
    <line x1="27" y1="27" x2="527" y2="27"/>
    <line x1="27" y1="27" x2="27" y2="527"/>
    <line x1="527" y1="527" x2="27" y2="527"/>
    <line x1="527" y1="527" x2="527" y2="27"/>
    <line x1="127" y1="24" x2="127" y2="30"/>
    <line x1="24" y1="127" x2="30" y2="127"/>
    <line x1="127" y1="524" x2="127" y2="530"/>
    <line x1="524" y1="127" x2="530" y2="127"/>
    <line x1="227" y1="24" x2="227" y2="30"/>
    <line x1="24" y1="227" x2="30" y2="227"/>
    <line x1="227" y1="524" x2="227" y2="530"/>
    <line x1="524" y1="227" x2="530" y2="227"/>
    <line x1="327" y1="24" x2="327" y2="30"/>
    <line x1="24" y1="327" x2="30" y2="327"/>
    <line x1="327" y1="524" x2="327" y2="530"/>
    <line x1="524" y1="327" x2="530" y2="327"/>
    <line x1="427" y1="24" x2="427" y2="30"/>
    <line x1="24" y1="427" x2="30" y2="427"/>
    <line x1="427" y1="524" x2="427" y2="530"/>
    <line x1="524" y1="427" x2="530" y2="427"/>
  </g>
  <g stroke="gray" stroke-width="1" stroke-dasharray="5,5">
    <line x1="127" y1="27" x2="127" y2="527"/>
    <line x1="27" y1="127" x2="527" y2="127"/>
    <line x1="227" y1="27" x2="227" y2="527"/>
    <line x1="27" y1="227" x2="527" y2="227"/>
    <line x1="327" y1="27" x2="327" y2="527"/>
    <line x1="27" y1="327" x2="527" y2="327"/>
    <line x1="427" y1="27" x2="427" y2="527"/>
    <line x1="27" y1="427" x2="527" y2="427"/>
  </g>
</svg>
