<?xml version="1.0" standalone="no"?>
<!DOCTYPE svg PUBLIC "-//W3C//DTD SVG 1.1//EN" 
  "http://www.w3.org/Graphics/SVG/1.1/DTD/svg11.dtd">
<svg width="514" height="514" version="1.1" id="toplevel"
    xmlns="http://www.w3.org/2000/svg"
    xmlns:xlink="http://www.w3.org/1999/xlink">
  <polygon points="454,480 509,168 220,67 220,60 126,34 8,412 5,451"
           fill="bisque"/>
  <g stroke="chocolate" stroke-width="1">
    <line x1="416" y1="328" x2="444" y2="287"/>
    <circle cx="416" cy="328" r="2"/>
    <circle cx="444" cy="287" r="2"/>
  </g>
  <g stroke="chocolate" stroke-width="1">
    <line x1="444" y1="287" x2="509" y2="168"/>
    <circle cx="444" cy="287" r="2"/>
    <circle cx="509" cy="168" r="2"/>
  </g>
  <g stroke="chocolate" stroke-width="1">
    <line x1="454" y1="480" x2="5" y2="451"/>
    <circle cx="454" cy="480" r="2"/>
    <circle cx="5" cy="451" r="2"/>
  </g>
  <g stroke="chocolate" stroke-width="1">
    <line x1="444" y1="287" x2="495" y2="163"/>
    <circle cx="444" cy="287" r="2"/>
    <circle cx="495" cy="163" r="2"/>
  </g>
  <g stroke="chocolate" stroke-width="1">
    <line x1="406" y1="466" x2="495" y2="163"/>
    <circle cx="406" cy="466" r="2"/>
    <circle cx="495" cy="163" r="2"/>
  </g>
  <g stroke="chocolate" stroke-width="1">
    <line x1="8" y1="412" x2="220" y2="60"/>
    <circle cx="8" cy="412" r="2"/>
    <circle cx="220" cy="60" r="2"/>
  </g>
  <g stroke="chocolate" stroke-width="1">
    <line x1="454" y1="480" x2="406" y2="466"/>
    <circle cx="454" cy="480" r="2"/>
    <circle cx="406" cy="466" r="2"/>
  </g>
  <g stroke="chocolate" stroke-width="1">
    <line x1="454" y1="480" x2="509" y2="168"/>
    <circle cx="454" cy="480" r="2"/>
    <circle cx="509" cy="168" r="2"/>
  </g>
  <g stroke="chocolate" stroke-width="1">
    <line x1="8" y1="412" x2="126" y2="34"/>
    <circle cx="8" cy="412" r="2"/>
    <circle cx="126" cy="34" r="2"/>
  </g>
  <g stroke="chocolate" stroke-width="1">
    <line x1="5" y1="451" x2="8" y2="412"/>
    <circle cx="5" cy="451" r="2"/>
    <circle cx="8" cy="412" r="2"/>
  </g>
  <g stroke="chocolate" stroke-width="1">
    <line x1="102" y1="110" x2="220" y2="110"/>
    <circle cx="102" cy="110" r="2"/>
    <circle cx="220" cy="110" r="2"/>
  </g>
  <g stroke="chocolate" stroke-width="1">
    <line x1="220" y1="110" x2="220" y2="60"/>
    <circle cx="220" cy="110" r="2"/>
    <circle cx="220" cy="60" r="2"/>
  </g>
  <g stroke="chocolate" stroke-width="1">
    <line x1="220" y1="60" x2="126" y2="34"/>
    <circle cx="220" cy="60" r="2"/>
    <circle cx="126" cy="34" r="2"/>
  </g>
  <g stroke="chocolate" stroke-width="1">
    <line x1="416" y1="328" x2="102" y2="110"/>
    <circle cx="416" cy="328" r="2"/>
    <circle cx="102" cy="110" r="2"/>
  </g>
  <g stroke="chocolate" stroke-width="1">
    <line x1="509" y1="168" x2="126" y2="34"/>
    <circle cx="509" cy="168" r="2"/>
    <circle cx="126" cy="34" r="2"/>
  </g>
  <g stroke="black" stroke-width="1">
    <line x1="7" y1="7" x2="507" y2="7"/>
    <line x1="7" y1="7" x2="7" y2="507"/>
    <line x1="507" y1="507" x2="7" y2="507"/>
    <line x1="507" y1="507" x2="507" y2="7"/>
    <line x1="107" y1="4" x2="107" y2="10"/>
    <line x1="4" y1="107" x2="10" y2="107"/>
    <line x1="107" y1="504" x2="107" y2="510"/>
    <line x1="504" y1="107" x2="510" y2="107"/>
    <line x1="207" y1="4" x2="207" y2="10"/>
    <line x1="4" y1="207" x2="10" y2="207"/>
    <line x1="207" y1="504" x2="207" y2="510"/>
    <line x1="504" y1="207" x2="510" y2="207"/>
    <line x1="307" y1="4" x2="307" y2="10"/>
    <line x1="4" y1="307" x2="10" y2="307"/>
    <line x1="307" y1="504" x2="307" y2="510"/>
    <line x1="504" y1="307" x2="510" y2="307"/>
    <line x1="407" y1="4" x2="407" y2="10"/>
    <line x1="4" y1="407" x2="10" y2="407"/>
    <line x1="407" y1="504" x2="407" y2="510"/>
    <line x1="504" y1="407" x2="510" y2="407"/>
  </g>
  <g stroke="gray" stroke-width="1" stroke-dasharray="5,5">
    <line x1="107" y1="7" x2="107" y2="507"/>
    <line x1="7" y1="107" x2="507" y2="107"/>
    <line x1="207" y1="7" x2="207" y2="507"/>
    <line x1="7" y1="207" x2="507" y2="207"/>
    <line x1="307" y1="7" x2="307" y2="507"/>
    <line x1="7" y1="307" x2="507" y2="307"/>
    <line x1="407" y1="7" x2="407" y2="507"/>
    <line x1="7" y1="407" x2="507" y2="407"/>
  </g>
</svg>
