<?xml version="1.0" standalone="no"?>
<!DOCTYPE svg PUBLIC "-//W3C//DTD SVG 1.1//EN" 
  "http://www.w3.org/Graphics/SVG/1.1/DTD/svg11.dtd">
<svg width="510" height="510" version="1.1" id="toplevel"
    xmlns="http://www.w3.org/2000/svg"
    xmlns:xlink="http://www.w3.org/1999/xlink">
  <polygon points="270,468 455,439 493,298 432,224 355,286 199,44 157,42 150,168 150,170 177,363"
           fill="bisque"/>
  <g stroke="chocolate" stroke-width="1">
    <line x1="455" y1="439" x2="493" y2="298"/>
    <circle cx="455" cy="439" r="2"/>
    <circle cx="493" cy="298" r="2"/>
  </g>
  <g stroke="chocolate" stroke-width="1">
    <line x1="270" y1="468" x2="291" y2="395"/>
    <circle cx="270" cy="468" r="2"/>
    <circle cx="291" cy="395" r="2"/>
  </g>
  <g stroke="chocolate" stroke-width="1">
    <line x1="214" y1="405" x2="229" y2="376"/>
    <circle cx="214" cy="405" r="2"/>
    <circle cx="229" cy="376" r="2"/>
  </g>
  <g stroke="chocolate" stroke-width="1">
    <line x1="203" y1="393" x2="249" y2="300"/>
    <circle cx="203" cy="393" r="2"/>
    <circle cx="249" cy="300" r="2"/>
  </g>
  <g stroke="chocolate" stroke-width="1">
    <line x1="225" y1="418" x2="229" y2="376"/>
    <circle cx="225" cy="418" r="2"/>
    <circle cx="229" cy="376" r="2"/>
  </g>
  <g stroke="chocolate" stroke-width="1">
    <line x1="259" y1="456" x2="262" y2="453"/>
    <circle cx="259" cy="456" r="2"/>
    <circle cx="262" cy="453" r="2"/>
  </g>
  <g stroke="chocolate" stroke-width="1">
    <line x1="150" y1="173" x2="157" y2="42"/>
    <circle cx="150" cy="173" r="2"/>
    <circle cx="157" cy="42" r="2"/>
  </g>
  <g stroke="chocolate" stroke-width="1">
    <line x1="254" y1="451" x2="255" y2="418"/>
    <circle cx="254" cy="451" r="2"/>
    <circle cx="255" cy="418" r="2"/>
  </g>
  <g stroke="chocolate" stroke-width="1">
    <line x1="259" y1="456" x2="278" y2="441"/>
    <circle cx="259" cy="456" r="2"/>
    <circle cx="278" cy="441" r="2"/>
  </g>
  <g stroke="chocolate" stroke-width="1">
    <line x1="150" y1="170" x2="199" y2="44"/>
    <circle cx="150" cy="170" r="2"/>
    <circle cx="199" cy="44" r="2"/>
  </g>
  <g stroke="chocolate" stroke-width="1">
    <line x1="265" y1="463" x2="249" y2="300"/>
    <circle cx="265" cy="463" r="2"/>
    <circle cx="249" cy="300" r="2"/>
  </g>
  <g stroke="chocolate" stroke-width="1">
    <line x1="177" y1="363" x2="150" y2="170"/>
    <circle cx="177" cy="363" r="2"/>
    <circle cx="150" cy="170" r="2"/>
  </g>
  <g stroke="chocolate" stroke-width="1">
    <line x1="212" y1="403" x2="237" y2="378"/>
    <circle cx="212" cy="403" r="2"/>
    <circle cx="237" cy="378" r="2"/>
  </g>
  <g stroke="chocolate" stroke-width="1">
    <line x1="251" y1="393" x2="259" y2="386"/>
    <circle cx="251" cy="393" r="2"/>
    <circle cx="259" cy="386" r="2"/>
  </g>
  <g stroke="chocolate" stroke-width="1">
    <line x1="212" y1="403" x2="432" y2="224"/>
    <circle cx="212" cy="403" r="2"/>
    <circle cx="432" cy="224" r="2"/>
  </g>
  <g stroke="chocolate" stroke-width="1">
    <line x1="253" y1="449" x2="237" y2="378"/>
    <circle cx="253" cy="449" r="2"/>
    <circle cx="237" cy="378" r="2"/>
  </g>
  <g stroke="chocolate" stroke-width="1">
    <line x1="265" y1="462" x2="262" y2="453"/>
    <circle cx="265" cy="462" r="2"/>
    <circle cx="262" cy="453" r="2"/>
  </g>
  <g stroke="chocolate" stroke-width="1">
    <line x1="242" y1="437" x2="150" y2="173"/>
    <circle cx="242" cy="437" r="2"/>
    <circle cx="150" cy="173" r="2"/>
  </g>
  <g stroke="chocolate" stroke-width="1">
    <line x1="278" y1="441" x2="259" y2="386"/>
    <circle cx="278" cy="441" r="2"/>
    <circle cx="259" cy="386" r="2"/>
  </g>
  <g stroke="chocolate" stroke-width="1">
    <line x1="270" y1="468" x2="455" y2="439"/>
    <circle cx="270" cy="468" r="2"/>
    <circle cx="455" cy="439" r="2"/>
  </g>
  <g stroke="chocolate" stroke-width="1">
    <line x1="214" y1="405" x2="493" y2="298"/>
    <circle cx="214" cy="405" r="2"/>
    <circle cx="493" cy="298" r="2"/>
  </g>
  <g stroke="chocolate" stroke-width="1">
    <line x1="203" y1="393" x2="240" y2="381"/>
    <circle cx="203" cy="393" r="2"/>
    <circle cx="240" cy="381" r="2"/>
  </g>
  <g stroke="chocolate" stroke-width="1">
    <line x1="270" y1="468" x2="177" y2="363"/>
    <circle cx="270" cy="468" r="2"/>
    <circle cx="177" cy="363" r="2"/>
  </g>
  <g stroke="chocolate" stroke-width="1">
    <line x1="251" y1="393" x2="240" y2="381"/>
    <circle cx="251" cy="393" r="2"/>
    <circle cx="240" cy="381" r="2"/>
  </g>
  <g stroke="chocolate" stroke-width="1">
    <line x1="274" y1="453" x2="254" y2="451"/>
    <circle cx="274" cy="453" r="2"/>
    <circle cx="254" cy="451" r="2"/>
  </g>
  <g stroke="chocolate" stroke-width="1">
    <line x1="271" y1="465" x2="265" y2="463"/>
    <circle cx="271" cy="465" r="2"/>
    <circle cx="265" cy="463" r="2"/>
  </g>
  <g stroke="chocolate" stroke-width="1">
    <line x1="249" y1="300" x2="150" y2="170"/>
    <circle cx="249" cy="300" r="2"/>
    <circle cx="150" cy="170" r="2"/>
  </g>
  <g stroke="chocolate" stroke-width="1">
    <line x1="255" y1="418" x2="225" y2="418"/>
    <circle cx="255" cy="418" r="2"/>
    <circle cx="225" cy="418" r="2"/>
  </g>
  <g stroke="chocolate" stroke-width="1">
    <line x1="271" y1="465" x2="265" y2="462"/>
    <circle cx="271" cy="465" r="2"/>
    <circle cx="265" cy="462" r="2"/>
  </g>
  <g stroke="chocolate" stroke-width="1">
    <line x1="262" y1="453" x2="253" y2="449"/>
    <circle cx="262" cy="453" r="2"/>
    <circle cx="253" cy="449" r="2"/>
  </g>
  <g stroke="chocolate" stroke-width="1">
    <line x1="455" y1="439" x2="199" y2="44"/>
    <circle cx="455" cy="439" r="2"/>
    <circle cx="199" cy="44" r="2"/>
  </g>
  <g stroke="chocolate" stroke-width="1">
    <line x1="274" y1="453" x2="242" y2="437"/>
    <circle cx="274" cy="453" r="2"/>
    <circle cx="242" cy="437" r="2"/>
  </g>
  <g stroke="chocolate" stroke-width="1">
    <line x1="291" y1="395" x2="177" y2="363"/>
    <circle cx="291" cy="395" r="2"/>
    <circle cx="177" cy="363" r="2"/>
  </g>
  <g stroke="chocolate" stroke-width="1">
    <line x1="291" y1="395" x2="229" y2="376"/>
    <circle cx="291" cy="395" r="2"/>
    <circle cx="229" cy="376" r="2"/>
  </g>
  <g stroke="chocolate" stroke-width="1">
    <line x1="493" y1="298" x2="432" y2="224"/>
    <circle cx="493" cy="298" r="2"/>
    <circle cx="432" cy="224" r="2"/>
  </g>
  <g stroke="chocolate" stroke-width="1">
    <line x1="199" y1="44" x2="157" y2="42"/>
    <circle cx="199" cy="44" r="2"/>
    <circle cx="157" cy="42" r="2"/>
  </g>
  <g stroke="black" stroke-width="1">
    <line x1="5" y1="5" x2="505" y2="5"/>
    <line x1="5" y1="5" x2="5" y2="505"/>
    <line x1="505" y1="505" x2="5" y2="505"/>
    <line x1="505" y1="505" x2="505" y2="5"/>
    <line x1="105" y1="2" x2="105" y2="8"/>
    <line x1="2" y1="105" x2="8" y2="105"/>
    <line x1="105" y1="502" x2="105" y2="508"/>
    <line x1="502" y1="105" x2="508" y2="105"/>
    <line x1="205" y1="2" x2="205" y2="8"/>
    <line x1="2" y1="205" x2="8" y2="205"/>
    <line x1="205" y1="502" x2="205" y2="508"/>
    <line x1="502" y1="205" x2="508" y2="205"/>
    <line x1="305" y1="2" x2="305" y2="8"/>
    <line x1="2" y1="305" x2="8" y2="305"/>
    <line x1="305" y1="502" x2="305" y2="508"/>
    <line x1="502" y1="305" x2="508" y2="305"/>
    <line x1="405" y1="2" x2="405" y2="8"/>
    <line x1="2" y1="405" x2="8" y2="405"/>
    <line x1="405" y1="502" x2="405" y2="508"/>
    <line x1="502" y1="405" x2="508" y2="405"/>
  </g>
  <g stroke="gray" stroke-width="1" stroke-dasharray="5,5">
    <line x1="105" y1="5" x2="105" y2="505"/>
    <line x1="5" y1="105" x2="505" y2="105"/>
    <line x1="205" y1="5" x2="205" y2="505"/>
    <line x1="5" y1="205" x2="505" y2="205"/>
    <line x1="305" y1="5" x2="305" y2="505"/>
    <line x1="5" y1="305" x2="505" y2="305"/>
    <line x1="405" y1="5" x2="405" y2="505"/>
    <line x1="5" y1="405" x2="505" y2="405"/>
  </g>
</svg>
