<?xml version="1.0" standalone="no"?>
<!DOCTYPE svg PUBLIC "-//W3C//DTD SVG 1.1//EN" 
  "http://www.w3.org/Graphics/SVG/1.1/DTD/svg11.dtd">
<svg width="544" height="544" version="1.1" id="toplevel"
    xmlns="http://www.w3.org/2000/svg"
    xmlns:xlink="http://www.w3.org/1999/xlink">
  <polygon points="276,449 363,358 453,444 539,354 268,95 181,186 91,100 5,190"
           fill="bisque"/>
  <g stroke="chocolate" stroke-width="1">
    <line x1="453" y1="444" x2="539" y2="354"/>
    <circle cx="453" cy="444" r="2"/>
    <circle cx="539" cy="354" r="2"/>
  </g>
  <g stroke="chocolate" stroke-width="1">
    <line x1="276" y1="449" x2="5" y2="190"/>
    <circle cx="276" cy="449" r="2"/>
    <circle cx="5" cy="190" r="2"/>
  </g>
  <g stroke="chocolate" stroke-width="1">
    <line x1="186" y1="363" x2="539" y2="354"/>
    <circle cx="186" cy="363" r="2"/>
    <circle cx="539" cy="354" r="2"/>
  </g>
  <g stroke="chocolate" stroke-width="1">
    <line x1="276" y1="449" x2="363" y2="358"/>
    <circle cx="276" cy="449" r="2"/>
    <circle cx="363" cy="358" r="2"/>
  </g>
  <g stroke="chocolate" stroke-width="1">
    <line x1="186" y1="363" x2="181" y2="186"/>
    <circle cx="186" cy="363" r="2"/>
    <circle cx="181" cy="186" r="2"/>
  </g>
  <g stroke="chocolate" stroke-width="1">
    <line x1="186" y1="363" x2="358" y2="181"/>
    <circle cx="186" cy="363" r="2"/>
    <circle cx="358" cy="181" r="2"/>
  </g>
  <g stroke="chocolate" stroke-width="1">
    <line x1="453" y1="444" x2="91" y2="100"/>
    <circle cx="453" cy="444" r="2"/>
    <circle cx="91" cy="100" r="2"/>
  </g>
  <g stroke="chocolate" stroke-width="1">
    <line x1="363" y1="358" x2="358" y2="181"/>
    <circle cx="363" cy="358" r="2"/>
    <circle cx="358" cy="181" r="2"/>
  </g>
  <g stroke="chocolate" stroke-width="1">
    <line x1="181" y1="186" x2="268" y2="95"/>
    <circle cx="181" cy="186" r="2"/>
    <circle cx="268" cy="95" r="2"/>
  </g>
  <g stroke="chocolate" stroke-width="1">
    <line x1="5" y1="190" x2="358" y2="181"/>
    <circle cx="5" cy="190" r="2"/>
    <circle cx="358" cy="181" r="2"/>
  </g>
  <g stroke="chocolate" stroke-width="1">
    <line x1="539" y1="354" x2="268" y2="95"/>
    <circle cx="539" cy="354" r="2"/>
    <circle cx="268" cy="95" r="2"/>
  </g>
  <g stroke="chocolate" stroke-width="1">
    <line x1="5" y1="190" x2="91" y2="100"/>
    <circle cx="5" cy="190" r="2"/>
    <circle cx="91" cy="100" r="2"/>
  </g>
  <g stroke="black" stroke-width="1">
    <line x1="22" y1="22" x2="522" y2="22"/>
    <line x1="22" y1="22" x2="22" y2="522"/>
    <line x1="522" y1="522" x2="22" y2="522"/>
    <line x1="522" y1="522" x2="522" y2="22"/>
    <line x1="122" y1="19" x2="122" y2="25"/>
    <line x1="19" y1="122" x2="25" y2="122"/>
    <line x1="122" y1="519" x2="122" y2="525"/>
    <line x1="519" y1="122" x2="525" y2="122"/>
    <line x1="222" y1="19" x2="222" y2="25"/>
    <line x1="19" y1="222" x2="25" y2="222"/>
    <line x1="222" y1="519" x2="222" y2="525"/>
    <line x1="519" y1="222" x2="525" y2="222"/>
    <line x1="322" y1="19" x2="322" y2="25"/>
    <line x1="19" y1="322" x2="25" y2="322"/>
    <line x1="322" y1="519" x2="322" y2="525"/>
    <line x1="519" y1="322" x2="525" y2="322"/>
    <line x1="422" y1="19" x2="422" y2="25"/>
    <line x1="19" y1="422" x2="25" y2="422"/>
    <line x1="422" y1="519" x2="422" y2="525"/>
    <line x1="519" y1="422" x2="525" y2="422"/>
  </g>
  <g stroke="gray" stroke-width="1" stroke-dasharray="5,5">
    <line x1="122" y1="22" x2="122" y2="522"/>
    <line x1="22" y1="122" x2="522" y2="122"/>
    <line x1="222" y1="22" x2="222" y2="522"/>
    <line x1="22" y1="222" x2="522" y2="222"/>
    <line x1="322" y1="22" x2="322" y2="522"/>
    <line x1="22" y1="322" x2="522" y2="322"/>
    <line x1="422" y1="22" x2="422" y2="522"/>
    <line x1="22" y1="422" x2="522" y2="422"/>
  </g>
</svg>
