<?xml version="1.0" standalone="no"?>
<!DOCTYPE svg PUBLIC "-//W3C//DTD SVG 1.1//EN" 
  "http://www.w3.org/Graphics/SVG/1.1/DTD/svg11.dtd">
<svg width="518" height="518" version="1.1" id="toplevel"
    xmlns="http://www.w3.org/2000/svg"
    xmlns:xlink="http://www.w3.org/1999/xlink">
  <polygon points="292,424 513,307 454,196 344,255 174,204 116,94 5,152 123,373"
           fill="bisque"/>
  <g stroke="chocolate" stroke-width="1">
    <line x1="292" y1="424" x2="344" y2="255"/>
    <circle cx="292" cy="424" r="2"/>
    <circle cx="344" cy="255" r="2"/>
  </g>
  <g stroke="chocolate" stroke-width="1">
    <line x1="123" y1="373" x2="174" y2="204"/>
    <circle cx="123" cy="373" r="2"/>
    <circle cx="174" cy="204" r="2"/>
  </g>
  <g stroke="chocolate" stroke-width="1">
    <line x1="123" y1="373" x2="5" y2="152"/>
    <circle cx="123" cy="373" r="2"/>
    <circle cx="5" cy="152" r="2"/>
  </g>
  <g stroke="chocolate" stroke-width="1">
    <line x1="292" y1="424" x2="116" y2="94"/>
    <circle cx="292" cy="424" r="2"/>
    <circle cx="116" cy="94" r="2"/>
  </g>
  <g stroke="chocolate" stroke-width="1">
    <line x1="402" y1="366" x2="344" y2="255"/>
    <circle cx="402" cy="366" r="2"/>
    <circle cx="344" cy="255" r="2"/>
  </g>
  <g stroke="chocolate" stroke-width="1">
    <line x1="513" y1="307" x2="454" y2="196"/>
    <circle cx="513" cy="307" r="2"/>
    <circle cx="454" cy="196" r="2"/>
  </g>
  <g stroke="chocolate" stroke-width="1">
    <line x1="292" y1="424" x2="513" y2="307"/>
    <circle cx="292" cy="424" r="2"/>
    <circle cx="513" cy="307" r="2"/>
  </g>
  <g stroke="chocolate" stroke-width="1">
    <line x1="123" y1="373" x2="454" y2="196"/>
    <circle cx="123" cy="373" r="2"/>
    <circle cx="454" cy="196" r="2"/>
  </g>
  <g stroke="chocolate" stroke-width="1">
    <line x1="64" y1="263" x2="174" y2="204"/>
    <circle cx="64" cy="263" r="2"/>
    <circle cx="174" cy="204" r="2"/>
  </g>
  <g stroke="chocolate" stroke-width="1">
    <line x1="5" y1="152" x2="116" y2="94"/>
    <circle cx="5" cy="152" r="2"/>
    <circle cx="116" cy="94" r="2"/>
  </g>
  <g stroke="chocolate" stroke-width="1">
    <line x1="292" y1="424" x2="123" y2="373"/>
    <circle cx="292" cy="424" r="2"/>
    <circle cx="123" cy="373" r="2"/>
  </g>
  <g stroke="chocolate" stroke-width="1">
    <line x1="513" y1="307" x2="5" y2="152"/>
    <circle cx="513" cy="307" r="2"/>
    <circle cx="5" cy="152" r="2"/>
  </g>
  <g stroke="black" stroke-width="1">
    <line x1="9" y1="9" x2="509" y2="9"/>
    <line x1="9" y1="9" x2="9" y2="509"/>
    <line x1="509" y1="509" x2="9" y2="509"/>
    <line x1="509" y1="509" x2="509" y2="9"/>
    <line x1="109" y1="6" x2="109" y2="12"/>
    <line x1="6" y1="109" x2="12" y2="109"/>
    <line x1="109" y1="506" x2="109" y2="512"/>
    <line x1="506" y1="109" x2="512" y2="109"/>
    <line x1="209" y1="6" x2="209" y2="12"/>
    <line x1="6" y1="209" x2="12" y2="209"/>
    <line x1="209" y1="506" x2="209" y2="512"/>
    <line x1="506" y1="209" x2="512" y2="209"/>
    <line x1="309" y1="6" x2="309" y2="12"/>
    <line x1="6" y1="309" x2="12" y2="309"/>
    <line x1="309" y1="506" x2="309" y2="512"/>
    <line x1="506" y1="309" x2="512" y2="309"/>
    <line x1="409" y1="6" x2="409" y2="12"/>
    <line x1="6" y1="409" x2="12" y2="409"/>
    <line x1="409" y1="506" x2="409" y2="512"/>
    <line x1="506" y1="409" x2="512" y2="409"/>
  </g>
  <g stroke="gray" stroke-width="1" stroke-dasharray="5,5">
    <line x1="109" y1="9" x2="109" y2="509"/>
    <line x1="9" y1="109" x2="509" y2="109"/>
    <line x1="209" y1="9" x2="209" y2="509"/>
    <line x1="9" y1="209" x2="509" y2="209"/>
    <line x1="309" y1="9" x2="309" y2="509"/>
    <line x1="9" y1="309" x2="509" y2="309"/>
    <line x1="409" y1="9" x2="409" y2="509"/>
    <line x1="9" y1="409" x2="509" y2="409"/>
  </g>
</svg>
