<?xml version="1.0" standalone="no"?>
<!DOCTYPE svg PUBLIC "-//W3C//DTD SVG 1.1//EN" 
  "http://www.w3.org/Graphics/SVG/1.1/DTD/svg11.dtd">
<svg width="510" height="510" version="1.1" id="toplevel"
    xmlns="http://www.w3.org/2000/svg"
    xmlns:xlink="http://www.w3.org/1999/xlink">
  <polygon points="416,428 468,391 315,178 317,177 246,82 42,231 108,427"
           fill="bisque"/>
  <g stroke="chocolate" stroke-width="1">
    <line x1="416" y1="428" x2="468" y2="391"/>
    <circle cx="416" cy="428" r="2"/>
    <circle cx="468" cy="391" r="2"/>
  </g>
  <g stroke="chocolate" stroke-width="1">
    <line x1="108" y1="427" x2="240" y2="326"/>
    <circle cx="108" cy="427" r="2"/>
    <circle cx="240" cy="326" r="2"/>
  </g>
  <g stroke="chocolate" stroke-width="1">
    <line x1="215" y1="345" x2="240" y2="326"/>
    <circle cx="215" cy="345" r="2"/>
    <circle cx="240" cy="326" r="2"/>
  </g>
  <g stroke="chocolate" stroke-width="1">
    <line x1="106" y1="420" x2="241" y2="323"/>
    <circle cx="106" cy="420" r="2"/>
    <circle cx="241" cy="323" r="2"/>
  </g>
  <g stroke="chocolate" stroke-width="1">
    <line x1="207" y1="351" x2="215" y2="323"/>
    <circle cx="207" cy="351" r="2"/>
    <circle cx="215" cy="323" r="2"/>
  </g>
  <g stroke="chocolate" stroke-width="1">
    <line x1="202" y1="274" x2="220" y2="217"/>
    <circle cx="202" cy="274" r="2"/>
    <circle cx="220" cy="217" r="2"/>
  </g>
  <g stroke="chocolate" stroke-width="1">
    <line x1="203" y1="276" x2="220" y2="217"/>
    <circle cx="203" cy="276" r="2"/>
    <circle cx="220" cy="217" r="2"/>
  </g>
  <g stroke="chocolate" stroke-width="1">
    <line x1="240" y1="326" x2="254" y2="227"/>
    <circle cx="240" cy="326" r="2"/>
    <circle cx="254" cy="227" r="2"/>
  </g>
  <g stroke="chocolate" stroke-width="1">
    <line x1="83" y1="352" x2="317" y2="177"/>
    <circle cx="83" cy="352" r="2"/>
    <circle cx="317" cy="177" r="2"/>
  </g>
  <g stroke="chocolate" stroke-width="1">
    <line x1="194" y1="427" x2="199" y2="269"/>
    <circle cx="194" cy="427" r="2"/>
    <circle cx="199" cy="269" r="2"/>
  </g>
  <g stroke="chocolate" stroke-width="1">
    <line x1="416" y1="428" x2="108" y2="427"/>
    <circle cx="416" cy="428" r="2"/>
    <circle cx="108" cy="427" r="2"/>
  </g>
  <g stroke="chocolate" stroke-width="1">
    <line x1="106" y1="420" x2="194" y2="419"/>
    <circle cx="106" cy="420" r="2"/>
    <circle cx="194" cy="419" r="2"/>
  </g>
  <g stroke="chocolate" stroke-width="1">
    <line x1="215" y1="345" x2="215" y2="323"/>
    <circle cx="215" cy="345" r="2"/>
    <circle cx="215" cy="323" r="2"/>
  </g>
  <g stroke="chocolate" stroke-width="1">
    <line x1="194" y1="427" x2="194" y2="419"/>
    <circle cx="194" cy="427" r="2"/>
    <circle cx="194" cy="419" r="2"/>
  </g>
  <g stroke="chocolate" stroke-width="1">
    <line x1="75" y1="330" x2="199" y2="269"/>
    <circle cx="75" cy="330" r="2"/>
    <circle cx="199" cy="269" r="2"/>
  </g>
  <g stroke="chocolate" stroke-width="1">
    <line x1="108" y1="427" x2="42" y2="231"/>
    <circle cx="108" cy="427" r="2"/>
    <circle cx="42" cy="231" r="2"/>
  </g>
  <g stroke="chocolate" stroke-width="1">
    <line x1="215" y1="345" x2="202" y2="274"/>
    <circle cx="215" cy="345" r="2"/>
    <circle cx="202" cy="274" r="2"/>
  </g>
  <g stroke="chocolate" stroke-width="1">
    <line x1="75" y1="330" x2="152" y2="315"/>
    <circle cx="75" cy="330" r="2"/>
    <circle cx="152" cy="315" r="2"/>
  </g>
  <g stroke="chocolate" stroke-width="1">
    <line x1="83" y1="352" x2="207" y2="351"/>
    <circle cx="83" cy="352" r="2"/>
    <circle cx="207" cy="351" r="2"/>
  </g>
  <g stroke="chocolate" stroke-width="1">
    <line x1="42" y1="231" x2="246" y2="82"/>
    <circle cx="42" cy="231" r="2"/>
    <circle cx="246" cy="82" r="2"/>
  </g>
  <g stroke="chocolate" stroke-width="1">
    <line x1="240" y1="326" x2="152" y2="315"/>
    <circle cx="240" cy="326" r="2"/>
    <circle cx="152" cy="315" r="2"/>
  </g>
  <g stroke="chocolate" stroke-width="1">
    <line x1="215" y1="345" x2="215" y2="345"/>
    <circle cx="215" cy="345" r="2"/>
    <circle cx="215" cy="345" r="2"/>
  </g>
  <g stroke="chocolate" stroke-width="1">
    <line x1="215" y1="345" x2="152" y2="315"/>
    <circle cx="215" cy="345" r="2"/>
    <circle cx="152" cy="315" r="2"/>
  </g>
  <g stroke="chocolate" stroke-width="1">
    <line x1="240" y1="326" x2="203" y2="276"/>
    <circle cx="240" cy="326" r="2"/>
    <circle cx="203" cy="276" r="2"/>
  </g>
  <g stroke="chocolate" stroke-width="1">
    <line x1="241" y1="323" x2="202" y2="274"/>
    <circle cx="241" cy="323" r="2"/>
    <circle cx="202" cy="274" r="2"/>
  </g>
  <g stroke="chocolate" stroke-width="1">
    <line x1="42" y1="231" x2="254" y2="227"/>
    <circle cx="42" cy="231" r="2"/>
    <circle cx="254" cy="227" r="2"/>
  </g>
  <g stroke="chocolate" stroke-width="1">
    <line x1="416" y1="428" x2="199" y2="269"/>
    <circle cx="416" cy="428" r="2"/>
    <circle cx="199" cy="269" r="2"/>
  </g>
  <g stroke="chocolate" stroke-width="1">
    <line x1="468" y1="391" x2="246" y2="82"/>
    <circle cx="468" cy="391" r="2"/>
    <circle cx="246" cy="82" r="2"/>
  </g>
  <g stroke="chocolate" stroke-width="1">
    <line x1="254" y1="227" x2="220" y2="217"/>
    <circle cx="254" cy="227" r="2"/>
    <circle cx="220" cy="217" r="2"/>
  </g>
  <g stroke="chocolate" stroke-width="1">
    <line x1="317" y1="177" x2="246" y2="82"/>
    <circle cx="317" cy="177" r="2"/>
    <circle cx="246" cy="82" r="2"/>
  </g>
  <g stroke="black" stroke-width="1">
    <line x1="5" y1="5" x2="505" y2="5"/>
    <line x1="5" y1="5" x2="5" y2="505"/>
    <line x1="505" y1="505" x2="5" y2="505"/>
    <line x1="505" y1="505" x2="505" y2="5"/>
    <line x1="105" y1="2" x2="105" y2="8"/>
    <line x1="2" y1="105" x2="8" y2="105"/>
    <line x1="105" y1="502" x2="105" y2="508"/>
    <line x1="502" y1="105" x2="508" y2="105"/>
    <line x1="205" y1="2" x2="205" y2="8"/>
    <line x1="2" y1="205" x2="8" y2="205"/>
    <line x1="205" y1="502" x2="205" y2="508"/>
    <line x1="502" y1="205" x2="508" y2="205"/>
    <line x1="305" y1="2" x2="305" y2="8"/>
    <line x1="2" y1="305" x2="8" y2="305"/>
    <line x1="305" y1="502" x2="305" y2="508"/>
    <line x1="502" y1="305" x2="508" y2="305"/>
    <line x1="405" y1="2" x2="405" y2="8"/>
    <line x1="2" y1="405" x2="8" y2="405"/>
    <line x1="405" y1="502" x2="405" y2="508"/>
    <line x1="502" y1="405" x2="508" y2="405"/>
  </g>
  <g stroke="gray" stroke-width="1" stroke-dasharray="5,5">
    <line x1="105" y1="5" x2="105" y2="505"/>
    <line x1="5" y1="105" x2="505" y2="105"/>
    <line x1="205" y1="5" x2="205" y2="505"/>
    <line x1="5" y1="205" x2="505" y2="205"/>
    <line x1="305" y1="5" x2="305" y2="505"/>
    <line x1="5" y1="305" x2="505" y2="305"/>
    <line x1="405" y1="5" x2="405" y2="505"/>
    <line x1="5" y1="405" x2="505" y2="405"/>
  </g>
</svg>
