<?xml version="1.0" standalone="no"?>
<!DOCTYPE svg PUBLIC "-//W3C//DTD SVG 1.1//EN" 
  "http://www.w3.org/Graphics/SVG/1.1/DTD/svg11.dtd">
<svg width="510" height="510" version="1.1" id="toplevel"
    xmlns="http://www.w3.org/2000/svg"
    xmlns:xlink="http://www.w3.org/1999/xlink">
  <polygon points="283,470 323,463 333,416 310,286 177,40 185,290 294,392 294,396 238,388"
           fill="bisque"/>
  <g stroke="chocolate" stroke-width="1">
    <line x1="228" y1="330" x2="177" y2="40"/>
    <circle cx="228" cy="330" r="2"/>
    <circle cx="177" cy="40" r="2"/>
  </g>
  <g stroke="chocolate" stroke-width="1">
    <line x1="185" y1="290" x2="177" y2="40"/>
    <circle cx="185" cy="290" r="2"/>
    <circle cx="177" cy="40" r="2"/>
  </g>
  <g stroke="chocolate" stroke-width="1">
    <line x1="326" y1="450" x2="325" y2="429"/>
    <circle cx="326" cy="450" r="2"/>
    <circle cx="325" cy="429" r="2"/>
  </g>
  <g stroke="chocolate" stroke-width="1">
    <line x1="314" y1="411" x2="310" y2="286"/>
    <circle cx="314" cy="411" r="2"/>
    <circle cx="310" cy="286" r="2"/>
  </g>
  <g stroke="chocolate" stroke-width="1">
    <line x1="333" y1="416" x2="310" y2="286"/>
    <circle cx="333" cy="416" r="2"/>
    <circle cx="310" cy="286" r="2"/>
  </g>
  <g stroke="chocolate" stroke-width="1">
    <line x1="283" y1="470" x2="310" y2="286"/>
    <circle cx="283" cy="470" r="2"/>
    <circle cx="310" cy="286" r="2"/>
  </g>
  <g stroke="chocolate" stroke-width="1">
    <line x1="326" y1="450" x2="321" y2="435"/>
    <circle cx="326" cy="450" r="2"/>
    <circle cx="321" cy="435" r="2"/>
  </g>
  <g stroke="chocolate" stroke-width="1">
    <line x1="323" y1="463" x2="333" y2="416"/>
    <circle cx="323" cy="463" r="2"/>
    <circle cx="333" cy="416" r="2"/>
  </g>
  <g stroke="chocolate" stroke-width="1">
    <line x1="283" y1="470" x2="238" y2="388"/>
    <circle cx="283" cy="470" r="2"/>
    <circle cx="238" cy="388" r="2"/>
  </g>
  <g stroke="chocolate" stroke-width="1">
    <line x1="310" y1="286" x2="177" y2="40"/>
    <circle cx="310" cy="286" r="2"/>
    <circle cx="177" cy="40" r="2"/>
  </g>
  <g stroke="chocolate" stroke-width="1">
    <line x1="297" y1="429" x2="325" y2="373"/>
    <circle cx="297" cy="429" r="2"/>
    <circle cx="325" cy="373" r="2"/>
  </g>
  <g stroke="chocolate" stroke-width="1">
    <line x1="309" y1="453" x2="333" y2="416"/>
    <circle cx="309" cy="453" r="2"/>
    <circle cx="333" cy="416" r="2"/>
  </g>
  <g stroke="chocolate" stroke-width="1">
    <line x1="331" y1="426" x2="185" y2="290"/>
    <circle cx="331" cy="426" r="2"/>
    <circle cx="185" cy="290" r="2"/>
  </g>
  <g stroke="chocolate" stroke-width="1">
    <line x1="325" y1="373" x2="301" y2="350"/>
    <circle cx="325" cy="373" r="2"/>
    <circle cx="301" cy="350" r="2"/>
  </g>
  <g stroke="chocolate" stroke-width="1">
    <line x1="323" y1="463" x2="309" y2="453"/>
    <circle cx="323" cy="463" r="2"/>
    <circle cx="309" cy="453" r="2"/>
  </g>
  <g stroke="chocolate" stroke-width="1">
    <line x1="326" y1="450" x2="238" y2="388"/>
    <circle cx="326" cy="450" r="2"/>
    <circle cx="238" cy="388" r="2"/>
  </g>
  <g stroke="chocolate" stroke-width="1">
    <line x1="297" y1="429" x2="314" y2="411"/>
    <circle cx="297" cy="429" r="2"/>
    <circle cx="314" cy="411" r="2"/>
  </g>
  <g stroke="chocolate" stroke-width="1">
    <line x1="329" y1="434" x2="238" y2="388"/>
    <circle cx="329" cy="434" r="2"/>
    <circle cx="238" cy="388" r="2"/>
  </g>
  <g stroke="chocolate" stroke-width="1">
    <line x1="290" y1="424" x2="331" y2="402"/>
    <circle cx="290" cy="424" r="2"/>
    <circle cx="331" cy="402" r="2"/>
  </g>
  <g stroke="chocolate" stroke-width="1">
    <line x1="283" y1="470" x2="323" y2="463"/>
    <circle cx="283" cy="470" r="2"/>
    <circle cx="323" cy="463" r="2"/>
  </g>
  <g stroke="chocolate" stroke-width="1">
    <line x1="325" y1="429" x2="331" y2="426"/>
    <circle cx="325" cy="429" r="2"/>
    <circle cx="331" cy="426" r="2"/>
  </g>
  <g stroke="chocolate" stroke-width="1">
    <line x1="309" y1="453" x2="326" y2="450"/>
    <circle cx="309" cy="453" r="2"/>
    <circle cx="326" cy="450" r="2"/>
  </g>
  <g stroke="chocolate" stroke-width="1">
    <line x1="290" y1="424" x2="332" y2="410"/>
    <circle cx="290" cy="424" r="2"/>
    <circle cx="332" cy="410" r="2"/>
  </g>
  <g stroke="chocolate" stroke-width="1">
    <line x1="321" y1="435" x2="329" y2="434"/>
    <circle cx="321" cy="435" r="2"/>
    <circle cx="329" cy="434" r="2"/>
  </g>
  <g stroke="chocolate" stroke-width="1">
    <line x1="331" y1="402" x2="238" y2="388"/>
    <circle cx="331" cy="402" r="2"/>
    <circle cx="238" cy="388" r="2"/>
  </g>
  <g stroke="chocolate" stroke-width="1">
    <line x1="291" y1="415" x2="332" y2="408"/>
    <circle cx="291" cy="415" r="2"/>
    <circle cx="332" cy="408" r="2"/>
  </g>
  <g stroke="chocolate" stroke-width="1">
    <line x1="301" y1="350" x2="320" y2="340"/>
    <circle cx="301" cy="350" r="2"/>
    <circle cx="320" cy="340" r="2"/>
  </g>
  <g stroke="chocolate" stroke-width="1">
    <line x1="314" y1="411" x2="332" y2="410"/>
    <circle cx="314" cy="411" r="2"/>
    <circle cx="332" cy="410" r="2"/>
  </g>
  <g stroke="chocolate" stroke-width="1">
    <line x1="320" y1="340" x2="228" y2="330"/>
    <circle cx="320" cy="340" r="2"/>
    <circle cx="228" cy="330" r="2"/>
  </g>
  <g stroke="chocolate" stroke-width="1">
    <line x1="185" y1="290" x2="310" y2="286"/>
    <circle cx="185" cy="290" r="2"/>
    <circle cx="310" cy="286" r="2"/>
  </g>
  <g stroke="black" stroke-width="1">
    <line x1="5" y1="5" x2="505" y2="5"/>
    <line x1="5" y1="5" x2="5" y2="505"/>
    <line x1="505" y1="505" x2="5" y2="505"/>
    <line x1="505" y1="505" x2="505" y2="5"/>
    <line x1="105" y1="2" x2="105" y2="8"/>
    <line x1="2" y1="105" x2="8" y2="105"/>
    <line x1="105" y1="502" x2="105" y2="508"/>
    <line x1="502" y1="105" x2="508" y2="105"/>
    <line x1="205" y1="2" x2="205" y2="8"/>
    <line x1="2" y1="205" x2="8" y2="205"/>
    <line x1="205" y1="502" x2="205" y2="508"/>
    <line x1="502" y1="205" x2="508" y2="205"/>
    <line x1="305" y1="2" x2="305" y2="8"/>
    <line x1="2" y1="305" x2="8" y2="305"/>
    <line x1="305" y1="502" x2="305" y2="508"/>
    <line x1="502" y1="305" x2="508" y2="305"/>
    <line x1="405" y1="2" x2="405" y2="8"/>
    <line x1="2" y1="405" x2="8" y2="405"/>
    <line x1="405" y1="502" x2="405" y2="508"/>
    <line x1="502" y1="405" x2="508" y2="405"/>
  </g>
  <g stroke="gray" stroke-width="1" stroke-dasharray="5,5">
    <line x1="105" y1="5" x2="105" y2="505"/>
    <line x1="5" y1="105" x2="505" y2="105"/>
    <line x1="205" y1="5" x2="205" y2="505"/>
    <line x1="5" y1="205" x2="505" y2="205"/>
    <line x1="305" y1="5" x2="305" y2="505"/>
    <line x1="5" y1="305" x2="505" y2="305"/>
    <line x1="405" y1="5" x2="405" y2="505"/>
    <line x1="5" y1="405" x2="505" y2="405"/>
  </g>
</svg>
