<?xml version="1.0" standalone="no"?>
<!DOCTYPE svg PUBLIC "-//W3C//DTD SVG 1.1//EN" 
  "http://www.w3.org/Graphics/SVG/1.1/DTD/svg11.dtd">
<svg width="510" height="510" version="1.1" id="toplevel"
    xmlns="http://www.w3.org/2000/svg"
    xmlns:xlink="http://www.w3.org/1999/xlink">
  <polygon points="221,389 301,354 278,299 286,300 373,215 373,110 415,94 384,12 373,16 286,144 286,212 240,211 181,296"
           fill="bisque"/>
  <g stroke="chocolate" stroke-width="1">
    <line x1="286" y1="300" x2="373" y2="215"/>
    <circle cx="286" cy="300" r="2"/>
    <circle cx="373" cy="215" r="2"/>
  </g>
  <g stroke="chocolate" stroke-width="1">
    <line x1="181" y1="296" x2="240" y2="211"/>
    <circle cx="181" cy="296" r="2"/>
    <circle cx="240" cy="211" r="2"/>
  </g>
  <g stroke="chocolate" stroke-width="1">
    <line x1="286" y1="144" x2="373" y2="16"/>
    <circle cx="286" cy="144" r="2"/>
    <circle cx="373" cy="16" r="2"/>
  </g>
  <g stroke="chocolate" stroke-width="1">
    <line x1="286" y1="300" x2="286" y2="144"/>
    <circle cx="286" cy="300" r="2"/>
    <circle cx="286" cy="144" r="2"/>
  </g>
  <g stroke="chocolate" stroke-width="1">
    <line x1="330" y1="257" x2="330" y2="79"/>
    <circle cx="330" cy="257" r="2"/>
    <circle cx="330" cy="79" r="2"/>
  </g>
  <g stroke="chocolate" stroke-width="1">
    <line x1="347" y1="241" x2="347" y2="55"/>
    <circle cx="347" cy="241" r="2"/>
    <circle cx="347" cy="55" r="2"/>
  </g>
  <g stroke="chocolate" stroke-width="1">
    <line x1="352" y1="236" x2="352" y2="48"/>
    <circle cx="352" cy="236" r="2"/>
    <circle cx="352" cy="48" r="2"/>
  </g>
  <g stroke="chocolate" stroke-width="1">
    <line x1="373" y1="215" x2="373" y2="16"/>
    <circle cx="373" cy="215" r="2"/>
    <circle cx="373" cy="16" r="2"/>
  </g>
  <g stroke="chocolate" stroke-width="1">
    <line x1="221" y1="389" x2="301" y2="354"/>
    <circle cx="221" cy="389" r="2"/>
    <circle cx="301" cy="354" r="2"/>
  </g>
  <g stroke="chocolate" stroke-width="1">
    <line x1="221" y1="389" x2="181" y2="296"/>
    <circle cx="221" cy="389" r="2"/>
    <circle cx="181" cy="296" r="2"/>
  </g>
  <g stroke="chocolate" stroke-width="1">
    <line x1="261" y1="371" x2="211" y2="253"/>
    <circle cx="261" cy="371" r="2"/>
    <circle cx="211" cy="253" r="2"/>
  </g>
  <g stroke="chocolate" stroke-width="1">
    <line x1="277" y1="365" x2="222" y2="237"/>
    <circle cx="277" cy="365" r="2"/>
    <circle cx="222" cy="237" r="2"/>
  </g>
  <g stroke="chocolate" stroke-width="1">
    <line x1="281" y1="363" x2="225" y2="232"/>
    <circle cx="281" cy="363" r="2"/>
    <circle cx="225" cy="232" r="2"/>
  </g>
  <g stroke="chocolate" stroke-width="1">
    <line x1="301" y1="354" x2="240" y2="211"/>
    <circle cx="301" cy="354" r="2"/>
    <circle cx="240" cy="211" r="2"/>
  </g>
  <g stroke="chocolate" stroke-width="1">
    <line x1="415" y1="94" x2="384" y2="12"/>
    <circle cx="415" cy="94" r="2"/>
    <circle cx="384" cy="12" r="2"/>
  </g>
  <g stroke="chocolate" stroke-width="1">
    <line x1="286" y1="300" x2="181" y2="296"/>
    <circle cx="286" cy="300" r="2"/>
    <circle cx="181" cy="296" r="2"/>
  </g>
  <g stroke="chocolate" stroke-width="1">
    <line x1="286" y1="144" x2="415" y2="94"/>
    <circle cx="286" cy="144" r="2"/>
    <circle cx="415" cy="94" r="2"/>
  </g>
  <g stroke="chocolate" stroke-width="1">
    <line x1="330" y1="257" x2="211" y2="253"/>
    <circle cx="330" cy="257" r="2"/>
    <circle cx="211" cy="253" r="2"/>
  </g>
  <g stroke="chocolate" stroke-width="1">
    <line x1="330" y1="79" x2="399" y2="52"/>
    <circle cx="330" cy="79" r="2"/>
    <circle cx="399" cy="52" r="2"/>
  </g>
  <g stroke="chocolate" stroke-width="1">
    <line x1="347" y1="241" x2="222" y2="237"/>
    <circle cx="347" cy="241" r="2"/>
    <circle cx="222" cy="237" r="2"/>
  </g>
  <g stroke="chocolate" stroke-width="1">
    <line x1="347" y1="55" x2="393" y2="37"/>
    <circle cx="347" cy="55" r="2"/>
    <circle cx="393" cy="37" r="2"/>
  </g>
  <g stroke="chocolate" stroke-width="1">
    <line x1="352" y1="236" x2="225" y2="232"/>
    <circle cx="352" cy="236" r="2"/>
    <circle cx="225" cy="232" r="2"/>
  </g>
  <g stroke="chocolate" stroke-width="1">
    <line x1="352" y1="48" x2="391" y2="32"/>
    <circle cx="352" cy="48" r="2"/>
    <circle cx="391" cy="32" r="2"/>
  </g>
  <g stroke="chocolate" stroke-width="1">
    <line x1="373" y1="16" x2="384" y2="12"/>
    <circle cx="373" cy="16" r="2"/>
    <circle cx="384" cy="12" r="2"/>
  </g>
  <g stroke="chocolate" stroke-width="1">
    <line x1="373" y1="215" x2="240" y2="211"/>
    <circle cx="373" cy="215" r="2"/>
    <circle cx="240" cy="211" r="2"/>
  </g>
  <g stroke="black" stroke-width="1">
    <line x1="5" y1="5" x2="505" y2="5"/>
    <line x1="5" y1="5" x2="5" y2="505"/>
    <line x1="505" y1="505" x2="5" y2="505"/>
    <line x1="505" y1="505" x2="505" y2="5"/>
    <line x1="105" y1="2" x2="105" y2="8"/>
    <line x1="2" y1="105" x2="8" y2="105"/>
    <line x1="105" y1="502" x2="105" y2="508"/>
    <line x1="502" y1="105" x2="508" y2="105"/>
    <line x1="205" y1="2" x2="205" y2="8"/>
    <line x1="2" y1="205" x2="8" y2="205"/>
    <line x1="205" y1="502" x2="205" y2="508"/>
    <line x1="502" y1="205" x2="508" y2="205"/>
    <line x1="305" y1="2" x2="305" y2="8"/>
    <line x1="2" y1="305" x2="8" y2="305"/>
    <line x1="305" y1="502" x2="305" y2="508"/>
    <line x1="502" y1="305" x2="508" y2="305"/>
    <line x1="405" y1="2" x2="405" y2="8"/>
    <line x1="2" y1="405" x2="8" y2="405"/>
    <line x1="405" y1="502" x2="405" y2="508"/>
    <line x1="502" y1="405" x2="508" y2="405"/>
  </g>
  <g stroke="gray" stroke-width="1" stroke-dasharray="5,5">
    <line x1="105" y1="5" x2="105" y2="505"/>
    <line x1="5" y1="105" x2="505" y2="105"/>
    <line x1="205" y1="5" x2="205" y2="505"/>
    <line x1="5" y1="205" x2="505" y2="205"/>
    <line x1="305" y1="5" x2="305" y2="505"/>
    <line x1="5" y1="305" x2="505" y2="305"/>
    <line x1="405" y1="5" x2="405" y2="505"/>
    <line x1="5" y1="405" x2="505" y2="405"/>
  </g>
</svg>
