<?xml version="1.0" standalone="no"?>
<!DOCTYPE svg PUBLIC "-//W3C//DTD SVG 1.1//EN" 
  "http://www.w3.org/Graphics/SVG/1.1/DTD/svg11.dtd">
<svg width="510" height="510" version="1.1" id="toplevel"
    xmlns="http://www.w3.org/2000/svg"
    xmlns:xlink="http://www.w3.org/1999/xlink">
  <polygon points="156,435 239,370 235,241 339,210 315,85 265,75 77,176 99,361"
           fill="bisque"/>
  <g stroke="chocolate" stroke-width="1">
    <line x1="156" y1="435" x2="239" y2="370"/>
    <circle cx="156" cy="435" r="2"/>
    <circle cx="239" cy="370" r="2"/>
  </g>
  <g stroke="chocolate" stroke-width="1">
    <line x1="252" y1="107" x2="265" y2="75"/>
    <circle cx="252" cy="107" r="2"/>
    <circle cx="265" cy="75" r="2"/>
  </g>
  <g stroke="chocolate" stroke-width="1">
    <line x1="194" y1="254" x2="261" y2="79"/>
    <circle cx="194" cy="254" r="2"/>
    <circle cx="261" cy="79" r="2"/>
  </g>
  <g stroke="chocolate" stroke-width="1">
    <line x1="252" y1="107" x2="259" y2="79"/>
    <circle cx="252" cy="107" r="2"/>
    <circle cx="259" cy="79" r="2"/>
  </g>
  <g stroke="chocolate" stroke-width="1">
    <line x1="99" y1="361" x2="133" y2="286"/>
    <circle cx="99" cy="361" r="2"/>
    <circle cx="133" cy="286" r="2"/>
  </g>
  <g stroke="chocolate" stroke-width="1">
    <line x1="176" y1="259" x2="223" y2="98"/>
    <circle cx="176" cy="259" r="2"/>
    <circle cx="223" cy="98" r="2"/>
  </g>
  <g stroke="chocolate" stroke-width="1">
    <line x1="108" y1="346" x2="237" y2="320"/>
    <circle cx="108" cy="346" r="2"/>
    <circle cx="237" cy="320" r="2"/>
  </g>
  <g stroke="chocolate" stroke-width="1">
    <line x1="88" y1="270" x2="234" y2="114"/>
    <circle cx="88" cy="270" r="2"/>
    <circle cx="234" cy="114" r="2"/>
  </g>
  <g stroke="chocolate" stroke-width="1">
    <line x1="84" y1="233" x2="134" y2="145"/>
    <circle cx="84" cy="233" r="2"/>
    <circle cx="134" cy="145" r="2"/>
  </g>
  <g stroke="chocolate" stroke-width="1">
    <line x1="92" y1="301" x2="133" y2="286"/>
    <circle cx="92" cy="301" r="2"/>
    <circle cx="133" cy="286" r="2"/>
  </g>
  <g stroke="chocolate" stroke-width="1">
    <line x1="83" y1="224" x2="81" y2="174"/>
    <circle cx="83" cy="224" r="2"/>
    <circle cx="81" cy="174" r="2"/>
  </g>
  <g stroke="chocolate" stroke-width="1">
    <line x1="239" y1="370" x2="229" y2="94"/>
    <circle cx="239" cy="370" r="2"/>
    <circle cx="229" cy="94" r="2"/>
  </g>
  <g stroke="chocolate" stroke-width="1">
    <line x1="99" y1="361" x2="77" y2="176"/>
    <circle cx="99" cy="361" r="2"/>
    <circle cx="77" cy="176" r="2"/>
  </g>
  <g stroke="chocolate" stroke-width="1">
    <line x1="176" y1="259" x2="339" y2="210"/>
    <circle cx="176" cy="259" r="2"/>
    <circle cx="339" cy="210" r="2"/>
  </g>
  <g stroke="chocolate" stroke-width="1">
    <line x1="108" y1="346" x2="83" y2="224"/>
    <circle cx="108" cy="346" r="2"/>
    <circle cx="83" cy="224" r="2"/>
  </g>
  <g stroke="chocolate" stroke-width="1">
    <line x1="205" y1="158" x2="315" y2="85"/>
    <circle cx="205" cy="158" r="2"/>
    <circle cx="315" cy="85" r="2"/>
  </g>
  <g stroke="chocolate" stroke-width="1">
    <line x1="156" y1="435" x2="99" y2="361"/>
    <circle cx="156" cy="435" r="2"/>
    <circle cx="99" cy="361" r="2"/>
  </g>
  <g stroke="chocolate" stroke-width="1">
    <line x1="237" y1="320" x2="92" y2="301"/>
    <circle cx="237" cy="320" r="2"/>
    <circle cx="92" cy="301" r="2"/>
  </g>
  <g stroke="chocolate" stroke-width="1">
    <line x1="242" y1="239" x2="218" y2="100"/>
    <circle cx="242" cy="239" r="2"/>
    <circle cx="218" cy="100" r="2"/>
  </g>
  <g stroke="chocolate" stroke-width="1">
    <line x1="339" y1="210" x2="315" y2="85"/>
    <circle cx="339" cy="210" r="2"/>
    <circle cx="315" cy="85" r="2"/>
  </g>
  <g stroke="chocolate" stroke-width="1">
    <line x1="239" y1="370" x2="88" y2="270"/>
    <circle cx="239" cy="370" r="2"/>
    <circle cx="88" cy="270" r="2"/>
  </g>
  <g stroke="chocolate" stroke-width="1">
    <line x1="133" y1="286" x2="84" y2="233"/>
    <circle cx="133" cy="286" r="2"/>
    <circle cx="84" cy="233" r="2"/>
  </g>
  <g stroke="chocolate" stroke-width="1">
    <line x1="77" y1="176" x2="265" y2="75"/>
    <circle cx="77" cy="176" r="2"/>
    <circle cx="265" cy="75" r="2"/>
  </g>
  <g stroke="chocolate" stroke-width="1">
    <line x1="242" y1="239" x2="205" y2="158"/>
    <circle cx="242" cy="239" r="2"/>
    <circle cx="205" cy="158" r="2"/>
  </g>
  <g stroke="chocolate" stroke-width="1">
    <line x1="176" y1="259" x2="77" y2="176"/>
    <circle cx="176" cy="259" r="2"/>
    <circle cx="77" cy="176" r="2"/>
  </g>
  <g stroke="chocolate" stroke-width="1">
    <line x1="339" y1="210" x2="318" y2="158"/>
    <circle cx="339" cy="210" r="2"/>
    <circle cx="318" cy="158" r="2"/>
  </g>
  <g stroke="chocolate" stroke-width="1">
    <line x1="194" y1="254" x2="81" y2="174"/>
    <circle cx="194" cy="254" r="2"/>
    <circle cx="81" cy="174" r="2"/>
  </g>
  <g stroke="chocolate" stroke-width="1">
    <line x1="318" y1="158" x2="134" y2="145"/>
    <circle cx="318" cy="158" r="2"/>
    <circle cx="134" cy="145" r="2"/>
  </g>
  <g stroke="chocolate" stroke-width="1">
    <line x1="234" y1="114" x2="218" y2="100"/>
    <circle cx="234" cy="114" r="2"/>
    <circle cx="218" cy="100" r="2"/>
  </g>
  <g stroke="chocolate" stroke-width="1">
    <line x1="318" y1="158" x2="229" y2="94"/>
    <circle cx="318" cy="158" r="2"/>
    <circle cx="229" cy="94" r="2"/>
  </g>
  <g stroke="chocolate" stroke-width="1">
    <line x1="252" y1="107" x2="223" y2="98"/>
    <circle cx="252" cy="107" r="2"/>
    <circle cx="223" cy="98" r="2"/>
  </g>
  <g stroke="chocolate" stroke-width="1">
    <line x1="315" y1="85" x2="265" y2="75"/>
    <circle cx="315" cy="85" r="2"/>
    <circle cx="265" cy="75" r="2"/>
  </g>
  <g stroke="chocolate" stroke-width="1">
    <line x1="261" y1="79" x2="259" y2="79"/>
    <circle cx="261" cy="79" r="2"/>
    <circle cx="259" cy="79" r="2"/>
  </g>
  <g stroke="black" stroke-width="1">
    <line x1="5" y1="5" x2="505" y2="5"/>
    <line x1="5" y1="5" x2="5" y2="505"/>
    <line x1="505" y1="505" x2="5" y2="505"/>
    <line x1="505" y1="505" x2="505" y2="5"/>
    <line x1="105" y1="2" x2="105" y2="8"/>
    <line x1="2" y1="105" x2="8" y2="105"/>
    <line x1="105" y1="502" x2="105" y2="508"/>
    <line x1="502" y1="105" x2="508" y2="105"/>
    <line x1="205" y1="2" x2="205" y2="8"/>
    <line x1="2" y1="205" x2="8" y2="205"/>
    <line x1="205" y1="502" x2="205" y2="508"/>
    <line x1="502" y1="205" x2="508" y2="205"/>
    <line x1="305" y1="2" x2="305" y2="8"/>
    <line x1="2" y1="305" x2="8" y2="305"/>
    <line x1="305" y1="502" x2="305" y2="508"/>
    <line x1="502" y1="305" x2="508" y2="305"/>
    <line x1="405" y1="2" x2="405" y2="8"/>
    <line x1="2" y1="405" x2="8" y2="405"/>
    <line x1="405" y1="502" x2="405" y2="508"/>
    <line x1="502" y1="405" x2="508" y2="405"/>
  </g>
  <g stroke="gray" stroke-width="1" stroke-dasharray="5,5">
    <line x1="105" y1="5" x2="105" y2="505"/>
    <line x1="5" y1="105" x2="505" y2="105"/>
    <line x1="205" y1="5" x2="205" y2="505"/>
    <line x1="5" y1="205" x2="505" y2="205"/>
    <line x1="305" y1="5" x2="305" y2="505"/>
    <line x1="5" y1="305" x2="505" y2="305"/>
    <line x1="405" y1="5" x2="405" y2="505"/>
    <line x1="5" y1="405" x2="505" y2="405"/>
  </g>
</svg>
