<?xml version="1.0" standalone="no"?>
<!DOCTYPE svg PUBLIC "-//W3C//DTD SVG 1.1//EN" 
  "http://www.w3.org/Graphics/SVG/1.1/DTD/svg11.dtd">
<svg width="510" height="510" version="1.1" id="toplevel"
    xmlns="http://www.w3.org/2000/svg"
    xmlns:xlink="http://www.w3.org/1999/xlink">
  <polygon points="275,395 365,275 360,240 395,235 275,145 240,150 235,115 145,235 150,270 115,275 235,365 270,360"
           fill="bisque"/>
  <g stroke="chocolate" stroke-width="1">
    <line x1="275" y1="395" x2="365" y2="275"/>
    <circle cx="275" cy="395" r="2"/>
    <circle cx="365" cy="275" r="2"/>
  </g>
  <g stroke="chocolate" stroke-width="1">
    <line x1="235" y1="365" x2="295" y2="285"/>
    <circle cx="235" cy="365" r="2"/>
    <circle cx="295" cy="285" r="2"/>
  </g>
  <g stroke="chocolate" stroke-width="1">
    <line x1="195" y1="335" x2="315" y2="175"/>
    <circle cx="195" cy="335" r="2"/>
    <circle cx="315" cy="175" r="2"/>
  </g>
  <g stroke="chocolate" stroke-width="1">
    <line x1="215" y1="225" x2="275" y2="145"/>
    <circle cx="215" cy="225" r="2"/>
    <circle cx="275" cy="145" r="2"/>
  </g>
  <g stroke="chocolate" stroke-width="1">
    <line x1="145" y1="235" x2="235" y2="115"/>
    <circle cx="145" cy="235" r="2"/>
    <circle cx="235" cy="115" r="2"/>
  </g>
  <g stroke="chocolate" stroke-width="1">
    <line x1="335" y1="315" x2="355" y2="205"/>
    <circle cx="335" cy="315" r="2"/>
    <circle cx="355" cy="205" r="2"/>
  </g>
  <g stroke="chocolate" stroke-width="1">
    <line x1="305" y1="355" x2="325" y2="245"/>
    <circle cx="305" cy="355" r="2"/>
    <circle cx="325" cy="245" r="2"/>
  </g>
  <g stroke="chocolate" stroke-width="1">
    <line x1="295" y1="285" x2="315" y2="175"/>
    <circle cx="295" cy="285" r="2"/>
    <circle cx="315" cy="175" r="2"/>
  </g>
  <g stroke="chocolate" stroke-width="1">
    <line x1="265" y1="325" x2="285" y2="215"/>
    <circle cx="265" cy="325" r="2"/>
    <circle cx="285" cy="215" r="2"/>
  </g>
  <g stroke="chocolate" stroke-width="1">
    <line x1="225" y1="295" x2="245" y2="185"/>
    <circle cx="225" cy="295" r="2"/>
    <circle cx="245" cy="185" r="2"/>
  </g>
  <g stroke="chocolate" stroke-width="1">
    <line x1="195" y1="335" x2="215" y2="225"/>
    <circle cx="195" cy="335" r="2"/>
    <circle cx="215" cy="225" r="2"/>
  </g>
  <g stroke="chocolate" stroke-width="1">
    <line x1="185" y1="265" x2="205" y2="155"/>
    <circle cx="185" cy="265" r="2"/>
    <circle cx="205" cy="155" r="2"/>
  </g>
  <g stroke="chocolate" stroke-width="1">
    <line x1="155" y1="305" x2="175" y2="195"/>
    <circle cx="155" cy="305" r="2"/>
    <circle cx="175" cy="195" r="2"/>
  </g>
  <g stroke="chocolate" stroke-width="1">
    <line x1="155" y1="305" x2="145" y2="235"/>
    <circle cx="155" cy="305" r="2"/>
    <circle cx="145" cy="235" r="2"/>
  </g>
  <g stroke="chocolate" stroke-width="1">
    <line x1="195" y1="335" x2="175" y2="195"/>
    <circle cx="195" cy="335" r="2"/>
    <circle cx="175" cy="195" r="2"/>
  </g>
  <g stroke="chocolate" stroke-width="1">
    <line x1="225" y1="295" x2="205" y2="155"/>
    <circle cx="225" cy="295" r="2"/>
    <circle cx="205" cy="155" r="2"/>
  </g>
  <g stroke="chocolate" stroke-width="1">
    <line x1="275" y1="395" x2="235" y2="115"/>
    <circle cx="275" cy="395" r="2"/>
    <circle cx="235" cy="115" r="2"/>
  </g>
  <g stroke="chocolate" stroke-width="1">
    <line x1="305" y1="355" x2="285" y2="215"/>
    <circle cx="305" cy="355" r="2"/>
    <circle cx="285" cy="215" r="2"/>
  </g>
  <g stroke="chocolate" stroke-width="1">
    <line x1="335" y1="315" x2="315" y2="175"/>
    <circle cx="335" cy="315" r="2"/>
    <circle cx="315" cy="175" r="2"/>
  </g>
  <g stroke="chocolate" stroke-width="1">
    <line x1="365" y1="275" x2="355" y2="205"/>
    <circle cx="365" cy="275" r="2"/>
    <circle cx="355" cy="205" r="2"/>
  </g>
  <g stroke="chocolate" stroke-width="1">
    <line x1="235" y1="365" x2="305" y2="355"/>
    <circle cx="235" cy="365" r="2"/>
    <circle cx="305" cy="355" r="2"/>
  </g>
  <g stroke="chocolate" stroke-width="1">
    <line x1="195" y1="335" x2="335" y2="315"/>
    <circle cx="195" cy="335" r="2"/>
    <circle cx="335" cy="315" r="2"/>
  </g>
  <g stroke="chocolate" stroke-width="1">
    <line x1="155" y1="305" x2="295" y2="285"/>
    <circle cx="155" cy="305" r="2"/>
    <circle cx="295" cy="285" r="2"/>
  </g>
  <g stroke="chocolate" stroke-width="1">
    <line x1="115" y1="275" x2="395" y2="235"/>
    <circle cx="115" cy="275" r="2"/>
    <circle cx="395" cy="235" r="2"/>
  </g>
  <g stroke="chocolate" stroke-width="1">
    <line x1="215" y1="225" x2="355" y2="205"/>
    <circle cx="215" cy="225" r="2"/>
    <circle cx="355" cy="205" r="2"/>
  </g>
  <g stroke="chocolate" stroke-width="1">
    <line x1="175" y1="195" x2="315" y2="175"/>
    <circle cx="175" cy="195" r="2"/>
    <circle cx="315" cy="175" r="2"/>
  </g>
  <g stroke="chocolate" stroke-width="1">
    <line x1="205" y1="155" x2="275" y2="145"/>
    <circle cx="205" cy="155" r="2"/>
    <circle cx="275" cy="145" r="2"/>
  </g>
  <g stroke="chocolate" stroke-width="1">
    <line x1="305" y1="355" x2="195" y2="335"/>
    <circle cx="305" cy="355" r="2"/>
    <circle cx="195" cy="335" r="2"/>
  </g>
  <g stroke="chocolate" stroke-width="1">
    <line x1="265" y1="325" x2="155" y2="305"/>
    <circle cx="265" cy="325" r="2"/>
    <circle cx="155" cy="305" r="2"/>
  </g>
  <g stroke="chocolate" stroke-width="1">
    <line x1="335" y1="315" x2="225" y2="295"/>
    <circle cx="335" cy="315" r="2"/>
    <circle cx="225" cy="295" r="2"/>
  </g>
  <g stroke="chocolate" stroke-width="1">
    <line x1="295" y1="285" x2="185" y2="265"/>
    <circle cx="295" cy="285" r="2"/>
    <circle cx="185" cy="265" r="2"/>
  </g>
  <g stroke="chocolate" stroke-width="1">
    <line x1="325" y1="245" x2="215" y2="225"/>
    <circle cx="325" cy="245" r="2"/>
    <circle cx="215" cy="225" r="2"/>
  </g>
  <g stroke="chocolate" stroke-width="1">
    <line x1="285" y1="215" x2="175" y2="195"/>
    <circle cx="285" cy="215" r="2"/>
    <circle cx="175" cy="195" r="2"/>
  </g>
  <g stroke="chocolate" stroke-width="1">
    <line x1="355" y1="205" x2="245" y2="185"/>
    <circle cx="355" cy="205" r="2"/>
    <circle cx="245" cy="185" r="2"/>
  </g>
  <g stroke="chocolate" stroke-width="1">
    <line x1="235" y1="365" x2="115" y2="275"/>
    <circle cx="235" cy="365" r="2"/>
    <circle cx="115" cy="275" r="2"/>
  </g>
  <g stroke="chocolate" stroke-width="1">
    <line x1="315" y1="175" x2="205" y2="155"/>
    <circle cx="315" cy="175" r="2"/>
    <circle cx="205" cy="155" r="2"/>
  </g>
  <g stroke="chocolate" stroke-width="1">
    <line x1="225" y1="295" x2="145" y2="235"/>
    <circle cx="225" cy="295" r="2"/>
    <circle cx="145" cy="235" r="2"/>
  </g>
  <g stroke="chocolate" stroke-width="1">
    <line x1="335" y1="315" x2="175" y2="195"/>
    <circle cx="335" cy="315" r="2"/>
    <circle cx="175" cy="195" r="2"/>
  </g>
  <g stroke="chocolate" stroke-width="1">
    <line x1="365" y1="275" x2="285" y2="215"/>
    <circle cx="365" cy="275" r="2"/>
    <circle cx="285" cy="215" r="2"/>
  </g>
  <g stroke="chocolate" stroke-width="1">
    <line x1="395" y1="235" x2="275" y2="145"/>
    <circle cx="395" cy="235" r="2"/>
    <circle cx="275" cy="145" r="2"/>
  </g>
  <g stroke="black" stroke-width="1">
    <line x1="5" y1="5" x2="505" y2="5"/>
    <line x1="5" y1="5" x2="5" y2="505"/>
    <line x1="505" y1="505" x2="5" y2="505"/>
    <line x1="505" y1="505" x2="505" y2="5"/>
    <line x1="105" y1="2" x2="105" y2="8"/>
    <line x1="2" y1="105" x2="8" y2="105"/>
    <line x1="105" y1="502" x2="105" y2="508"/>
    <line x1="502" y1="105" x2="508" y2="105"/>
    <line x1="205" y1="2" x2="205" y2="8"/>
    <line x1="2" y1="205" x2="8" y2="205"/>
    <line x1="205" y1="502" x2="205" y2="508"/>
    <line x1="502" y1="205" x2="508" y2="205"/>
    <line x1="305" y1="2" x2="305" y2="8"/>
    <line x1="2" y1="305" x2="8" y2="305"/>
    <line x1="305" y1="502" x2="305" y2="508"/>
    <line x1="502" y1="305" x2="508" y2="305"/>
    <line x1="405" y1="2" x2="405" y2="8"/>
    <line x1="2" y1="405" x2="8" y2="405"/>
    <line x1="405" y1="502" x2="405" y2="508"/>
    <line x1="502" y1="405" x2="508" y2="405"/>
  </g>
  <g stroke="gray" stroke-width="1" stroke-dasharray="5,5">
    <line x1="105" y1="5" x2="105" y2="505"/>
    <line x1="5" y1="105" x2="505" y2="105"/>
    <line x1="205" y1="5" x2="205" y2="505"/>
    <line x1="5" y1="205" x2="505" y2="205"/>
    <line x1="305" y1="5" x2="305" y2="505"/>
    <line x1="5" y1="305" x2="505" y2="305"/>
    <line x1="405" y1="5" x2="405" y2="505"/>
    <line x1="5" y1="405" x2="505" y2="405"/>
  </g>
</svg>
