<?xml version="1.0" standalone="no"?>
<!DOCTYPE svg PUBLIC "-//W3C//DTD SVG 1.1//EN" 
  "http://www.w3.org/Graphics/SVG/1.1/DTD/svg11.dtd">
<svg width="510" height="510" version="1.1" id="toplevel"
    xmlns="http://www.w3.org/2000/svg"
    xmlns:xlink="http://www.w3.org/1999/xlink">
  <polygon points="250,471 305,345 432,211 480,211 480,161 141,25 30,211 54,255 136,211 156,211 204,451"
           fill="bisque"/>
  <g stroke="chocolate" stroke-width="1">
    <line x1="204" y1="451" x2="480" y2="161"/>
    <circle cx="204" cy="451" r="2"/>
    <circle cx="480" cy="161" r="2"/>
  </g>
  <g stroke="chocolate" stroke-width="1">
    <line x1="250" y1="471" x2="399" y2="129"/>
    <circle cx="250" cy="471" r="2"/>
    <circle cx="399" cy="129" r="2"/>
  </g>
  <g stroke="chocolate" stroke-width="1">
    <line x1="356" y1="248" x2="399" y2="129"/>
    <circle cx="356" cy="248" r="2"/>
    <circle cx="399" cy="129" r="2"/>
  </g>
  <g stroke="chocolate" stroke-width="1">
    <line x1="142" y1="208" x2="162" y2="43"/>
    <circle cx="142" cy="208" r="2"/>
    <circle cx="162" cy="43" r="2"/>
  </g>
  <g stroke="chocolate" stroke-width="1">
    <line x1="30" y1="211" x2="141" y2="25"/>
    <circle cx="30" cy="211" r="2"/>
    <circle cx="141" cy="25" r="2"/>
  </g>
  <g stroke="chocolate" stroke-width="1">
    <line x1="480" y1="211" x2="480" y2="161"/>
    <circle cx="480" cy="211" r="2"/>
    <circle cx="480" cy="161" r="2"/>
  </g>
  <g stroke="chocolate" stroke-width="1">
    <line x1="204" y1="451" x2="124" y2="54"/>
    <circle cx="204" cy="451" r="2"/>
    <circle cx="124" cy="54" r="2"/>
  </g>
  <g stroke="chocolate" stroke-width="1">
    <line x1="54" y1="255" x2="142" y2="208"/>
    <circle cx="54" cy="255" r="2"/>
    <circle cx="142" cy="208" r="2"/>
  </g>
  <g stroke="chocolate" stroke-width="1">
    <line x1="54" y1="255" x2="30" y2="211"/>
    <circle cx="54" cy="255" r="2"/>
    <circle cx="30" cy="211" r="2"/>
  </g>
  <g stroke="chocolate" stroke-width="1">
    <line x1="250" y1="471" x2="204" y2="451"/>
    <circle cx="250" cy="471" r="2"/>
    <circle cx="204" cy="451" r="2"/>
  </g>
  <g stroke="chocolate" stroke-width="1">
    <line x1="30" y1="211" x2="480" y2="211"/>
    <circle cx="30" cy="211" r="2"/>
    <circle cx="480" cy="211" r="2"/>
  </g>
  <g stroke="chocolate" stroke-width="1">
    <line x1="124" y1="54" x2="162" y2="43"/>
    <circle cx="124" cy="54" r="2"/>
    <circle cx="162" cy="43" r="2"/>
  </g>
  <g stroke="chocolate" stroke-width="1">
    <line x1="142" y1="208" x2="70" y2="144"/>
    <circle cx="142" cy="208" r="2"/>
    <circle cx="70" cy="144" r="2"/>
  </g>
  <g stroke="chocolate" stroke-width="1">
    <line x1="356" y1="248" x2="70" y2="144"/>
    <circle cx="356" cy="248" r="2"/>
    <circle cx="70" cy="144" r="2"/>
  </g>
  <g stroke="chocolate" stroke-width="1">
    <line x1="162" y1="43" x2="141" y2="25"/>
    <circle cx="162" cy="43" r="2"/>
    <circle cx="141" cy="25" r="2"/>
  </g>
  <g stroke="chocolate" stroke-width="1">
    <line x1="480" y1="161" x2="141" y2="25"/>
    <circle cx="480" cy="161" r="2"/>
    <circle cx="141" cy="25" r="2"/>
  </g>
  <g stroke="black" stroke-width="1">
    <line x1="5" y1="5" x2="505" y2="5"/>
    <line x1="5" y1="5" x2="5" y2="505"/>
    <line x1="505" y1="505" x2="5" y2="505"/>
    <line x1="505" y1="505" x2="505" y2="5"/>
    <line x1="105" y1="2" x2="105" y2="8"/>
    <line x1="2" y1="105" x2="8" y2="105"/>
    <line x1="105" y1="502" x2="105" y2="508"/>
    <line x1="502" y1="105" x2="508" y2="105"/>
    <line x1="205" y1="2" x2="205" y2="8"/>
    <line x1="2" y1="205" x2="8" y2="205"/>
    <line x1="205" y1="502" x2="205" y2="508"/>
    <line x1="502" y1="205" x2="508" y2="205"/>
    <line x1="305" y1="2" x2="305" y2="8"/>
    <line x1="2" y1="305" x2="8" y2="305"/>
    <line x1="305" y1="502" x2="305" y2="508"/>
    <line x1="502" y1="305" x2="508" y2="305"/>
    <line x1="405" y1="2" x2="405" y2="8"/>
    <line x1="2" y1="405" x2="8" y2="405"/>
    <line x1="405" y1="502" x2="405" y2="508"/>
    <line x1="502" y1="405" x2="508" y2="405"/>
  </g>
  <g stroke="gray" stroke-width="1" stroke-dasharray="5,5">
    <line x1="105" y1="5" x2="105" y2="505"/>
    <line x1="5" y1="105" x2="505" y2="105"/>
    <line x1="205" y1="5" x2="205" y2="505"/>
    <line x1="5" y1="205" x2="505" y2="205"/>
    <line x1="305" y1="5" x2="305" y2="505"/>
    <line x1="5" y1="305" x2="505" y2="305"/>
    <line x1="405" y1="5" x2="405" y2="505"/>
    <line x1="5" y1="405" x2="505" y2="405"/>
  </g>
</svg>
