<?xml version="1.0" standalone="no"?>
<!DOCTYPE svg PUBLIC "-//W3C//DTD SVG 1.1//EN" 
  "http://www.w3.org/Graphics/SVG/1.1/DTD/svg11.dtd">
<svg width="510" height="510" version="1.1" id="toplevel"
    xmlns="http://www.w3.org/2000/svg"
    xmlns:xlink="http://www.w3.org/1999/xlink">
  <polygon points="378,351 401,199 378,195 378,5 109,5 109,330" fill="bisque"/>
  <g stroke="chocolate" stroke-width="1">
    <line x1="378" y1="351" x2="401" y2="199"/>
    <circle cx="378" cy="351" r="2"/>
    <circle cx="401" cy="199" r="2"/>
  </g>
  <g stroke="chocolate" stroke-width="1">
    <line x1="109" y1="330" x2="109" y2="5"/>
    <circle cx="109" cy="330" r="2"/>
    <circle cx="109" cy="5" r="2"/>
  </g>
  <g stroke="chocolate" stroke-width="1">
    <line x1="339" y1="313" x2="339" y2="5"/>
    <circle cx="339" cy="313" r="2"/>
    <circle cx="339" cy="5" r="2"/>
  </g>
  <g stroke="chocolate" stroke-width="1">
    <line x1="378" y1="351" x2="378" y2="5"/>
    <circle cx="378" cy="351" r="2"/>
    <circle cx="378" cy="5" r="2"/>
  </g>
  <g stroke="chocolate" stroke-width="1">
    <line x1="339" y1="313" x2="310" y2="123"/>
    <circle cx="339" cy="313" r="2"/>
    <circle cx="310" cy="123" r="2"/>
  </g>
  <g stroke="chocolate" stroke-width="1">
    <line x1="109" y1="330" x2="339" y2="313"/>
    <circle cx="109" cy="330" r="2"/>
    <circle cx="339" cy="313" r="2"/>
  </g>
  <g stroke="chocolate" stroke-width="1">
    <line x1="378" y1="351" x2="109" y2="330"/>
    <circle cx="378" cy="351" r="2"/>
    <circle cx="109" cy="330" r="2"/>
  </g>
  <g stroke="chocolate" stroke-width="1">
    <line x1="109" y1="154" x2="310" y2="123"/>
    <circle cx="109" cy="154" r="2"/>
    <circle cx="310" cy="123" r="2"/>
  </g>
  <g stroke="chocolate" stroke-width="1">
    <line x1="401" y1="199" x2="109" y2="154"/>
    <circle cx="401" cy="199" r="2"/>
    <circle cx="109" cy="154" r="2"/>
  </g>
  <g stroke="chocolate" stroke-width="1">
    <line x1="109" y1="5" x2="378" y2="5"/>
    <circle cx="109" cy="5" r="2"/>
    <circle cx="378" cy="5" r="2"/>
  </g>
  <g stroke="black" stroke-width="1">
    <line x1="5" y1="5" x2="505" y2="5"/>
    <line x1="5" y1="5" x2="5" y2="505"/>
    <line x1="505" y1="505" x2="5" y2="505"/>
    <line x1="505" y1="505" x2="505" y2="5"/>
    <line x1="105" y1="2" x2="105" y2="8"/>
    <line x1="2" y1="105" x2="8" y2="105"/>
    <line x1="105" y1="502" x2="105" y2="508"/>
    <line x1="502" y1="105" x2="508" y2="105"/>
    <line x1="205" y1="2" x2="205" y2="8"/>
    <line x1="2" y1="205" x2="8" y2="205"/>
    <line x1="205" y1="502" x2="205" y2="508"/>
    <line x1="502" y1="205" x2="508" y2="205"/>
    <line x1="305" y1="2" x2="305" y2="8"/>
    <line x1="2" y1="305" x2="8" y2="305"/>
    <line x1="305" y1="502" x2="305" y2="508"/>
    <line x1="502" y1="305" x2="508" y2="305"/>
    <line x1="405" y1="2" x2="405" y2="8"/>
    <line x1="2" y1="405" x2="8" y2="405"/>
    <line x1="405" y1="502" x2="405" y2="508"/>
    <line x1="502" y1="405" x2="508" y2="405"/>
  </g>
  <g stroke="gray" stroke-width="1" stroke-dasharray="5,5">
    <line x1="105" y1="5" x2="105" y2="505"/>
    <line x1="5" y1="105" x2="505" y2="105"/>
    <line x1="205" y1="5" x2="205" y2="505"/>
    <line x1="5" y1="205" x2="505" y2="205"/>
    <line x1="305" y1="5" x2="305" y2="505"/>
    <line x1="5" y1="305" x2="505" y2="305"/>
    <line x1="405" y1="5" x2="405" y2="505"/>
    <line x1="5" y1="405" x2="505" y2="405"/>
  </g>
</svg>
