<?xml version="1.0" standalone="no"?>
<!DOCTYPE svg PUBLIC "-//W3C//DTD SVG 1.1//EN" 
  "http://www.w3.org/Graphics/SVG/1.1/DTD/svg11.dtd">
<svg width="510" height="510" version="1.1" id="toplevel"
    xmlns="http://www.w3.org/2000/svg"
    xmlns:xlink="http://www.w3.org/1999/xlink">
  <polygon points="251,428 270,200 339,184 285,102 286,101 273,82 173,151 171,160 181,157"
           fill="bisque"/>
  <g stroke="chocolate" stroke-width="1">
    <line x1="251" y1="428" x2="277" y2="123"/>
    <circle cx="251" cy="428" r="2"/>
    <circle cx="277" cy="123" r="2"/>
  </g>
  <g stroke="chocolate" stroke-width="1">
    <line x1="214" y1="173" x2="211" y2="125"/>
    <circle cx="214" cy="173" r="2"/>
    <circle cx="211" cy="125" r="2"/>
  </g>
  <g stroke="chocolate" stroke-width="1">
    <line x1="251" y1="428" x2="233" y2="110"/>
    <circle cx="251" cy="428" r="2"/>
    <circle cx="233" cy="110" r="2"/>
  </g>
  <g stroke="chocolate" stroke-width="1">
    <line x1="251" y1="428" x2="215" y2="151"/>
    <circle cx="251" cy="428" r="2"/>
    <circle cx="215" cy="151" r="2"/>
  </g>
  <g stroke="chocolate" stroke-width="1">
    <line x1="225" y1="161" x2="220" y2="119"/>
    <circle cx="225" cy="161" r="2"/>
    <circle cx="220" cy="119" r="2"/>
  </g>
  <g stroke="chocolate" stroke-width="1">
    <line x1="171" y1="160" x2="173" y2="151"/>
    <circle cx="171" cy="160" r="2"/>
    <circle cx="173" cy="151" r="2"/>
  </g>
  <g stroke="chocolate" stroke-width="1">
    <line x1="251" y1="428" x2="178" y2="147"/>
    <circle cx="251" cy="428" r="2"/>
    <circle cx="178" cy="147" r="2"/>
  </g>
  <g stroke="chocolate" stroke-width="1">
    <line x1="269" y1="200" x2="246" y2="100"/>
    <circle cx="269" cy="200" r="2"/>
    <circle cx="246" cy="100" r="2"/>
  </g>
  <g stroke="chocolate" stroke-width="1">
    <line x1="251" y1="136" x2="267" y2="86"/>
    <circle cx="251" cy="136" r="2"/>
    <circle cx="267" cy="86" r="2"/>
  </g>
  <g stroke="chocolate" stroke-width="1">
    <line x1="277" y1="123" x2="267" y2="86"/>
    <circle cx="277" cy="123" r="2"/>
    <circle cx="267" cy="86" r="2"/>
  </g>
  <g stroke="chocolate" stroke-width="1">
    <line x1="214" y1="173" x2="197" y2="134"/>
    <circle cx="214" cy="173" r="2"/>
    <circle cx="197" cy="134" r="2"/>
  </g>
  <g stroke="chocolate" stroke-width="1">
    <line x1="263" y1="124" x2="251" y2="97"/>
    <circle cx="263" cy="124" r="2"/>
    <circle cx="251" cy="97" r="2"/>
  </g>
  <g stroke="chocolate" stroke-width="1">
    <line x1="214" y1="173" x2="203" y2="158"/>
    <circle cx="214" cy="173" r="2"/>
    <circle cx="203" cy="158" r="2"/>
  </g>
  <g stroke="chocolate" stroke-width="1">
    <line x1="271" y1="117" x2="256" y2="94"/>
    <circle cx="271" cy="117" r="2"/>
    <circle cx="256" cy="94" r="2"/>
  </g>
  <g stroke="chocolate" stroke-width="1">
    <line x1="339" y1="184" x2="273" y2="82"/>
    <circle cx="339" cy="184" r="2"/>
    <circle cx="273" cy="82" r="2"/>
  </g>
  <g stroke="chocolate" stroke-width="1">
    <line x1="277" y1="123" x2="256" y2="94"/>
    <circle cx="277" cy="123" r="2"/>
    <circle cx="256" cy="94" r="2"/>
  </g>
  <g stroke="chocolate" stroke-width="1">
    <line x1="286" y1="101" x2="273" y2="82"/>
    <circle cx="286" cy="101" r="2"/>
    <circle cx="273" cy="82" r="2"/>
  </g>
  <g stroke="chocolate" stroke-width="1">
    <line x1="214" y1="173" x2="286" y2="101"/>
    <circle cx="214" cy="173" r="2"/>
    <circle cx="286" cy="101" r="2"/>
  </g>
  <g stroke="chocolate" stroke-width="1">
    <line x1="215" y1="151" x2="197" y2="134"/>
    <circle cx="215" cy="151" r="2"/>
    <circle cx="197" cy="134" r="2"/>
  </g>
  <g stroke="chocolate" stroke-width="1">
    <line x1="339" y1="184" x2="251" y2="97"/>
    <circle cx="339" cy="184" r="2"/>
    <circle cx="251" cy="97" r="2"/>
  </g>
  <g stroke="chocolate" stroke-width="1">
    <line x1="214" y1="173" x2="178" y2="147"/>
    <circle cx="214" cy="173" r="2"/>
    <circle cx="178" cy="147" r="2"/>
  </g>
  <g stroke="chocolate" stroke-width="1">
    <line x1="173" y1="151" x2="273" y2="82"/>
    <circle cx="173" cy="151" r="2"/>
    <circle cx="273" cy="82" r="2"/>
  </g>
  <g stroke="chocolate" stroke-width="1">
    <line x1="286" y1="101" x2="267" y2="86"/>
    <circle cx="286" cy="101" r="2"/>
    <circle cx="267" cy="86" r="2"/>
  </g>
  <g stroke="chocolate" stroke-width="1">
    <line x1="271" y1="117" x2="246" y2="100"/>
    <circle cx="271" cy="117" r="2"/>
    <circle cx="246" cy="100" r="2"/>
  </g>
  <g stroke="chocolate" stroke-width="1">
    <line x1="339" y1="184" x2="220" y2="119"/>
    <circle cx="339" cy="184" r="2"/>
    <circle cx="220" cy="119" r="2"/>
  </g>
  <g stroke="chocolate" stroke-width="1">
    <line x1="171" y1="160" x2="286" y2="101"/>
    <circle cx="171" cy="160" r="2"/>
    <circle cx="286" cy="101" r="2"/>
  </g>
  <g stroke="chocolate" stroke-width="1">
    <line x1="339" y1="184" x2="211" y2="125"/>
    <circle cx="339" cy="184" r="2"/>
    <circle cx="211" cy="125" r="2"/>
  </g>
  <g stroke="chocolate" stroke-width="1">
    <line x1="269" y1="200" x2="339" y2="184"/>
    <circle cx="269" cy="200" r="2"/>
    <circle cx="339" cy="184" r="2"/>
  </g>
  <g stroke="chocolate" stroke-width="1">
    <line x1="263" y1="124" x2="233" y2="110"/>
    <circle cx="263" cy="124" r="2"/>
    <circle cx="233" cy="110" r="2"/>
  </g>
  <g stroke="chocolate" stroke-width="1">
    <line x1="171" y1="160" x2="251" y2="136"/>
    <circle cx="171" cy="160" r="2"/>
    <circle cx="251" cy="136" r="2"/>
  </g>
  <g stroke="chocolate" stroke-width="1">
    <line x1="339" y1="184" x2="173" y2="151"/>
    <circle cx="339" cy="184" r="2"/>
    <circle cx="173" cy="151" r="2"/>
  </g>
  <g stroke="chocolate" stroke-width="1">
    <line x1="225" y1="161" x2="203" y2="158"/>
    <circle cx="225" cy="161" r="2"/>
    <circle cx="203" cy="158" r="2"/>
  </g>
  <g stroke="chocolate" stroke-width="1">
    <line x1="215" y1="151" x2="178" y2="147"/>
    <circle cx="215" cy="151" r="2"/>
    <circle cx="178" cy="147" r="2"/>
  </g>
  <g stroke="black" stroke-width="1">
    <line x1="5" y1="5" x2="505" y2="5"/>
    <line x1="5" y1="5" x2="5" y2="505"/>
    <line x1="505" y1="505" x2="5" y2="505"/>
    <line x1="505" y1="505" x2="505" y2="5"/>
    <line x1="105" y1="2" x2="105" y2="8"/>
    <line x1="2" y1="105" x2="8" y2="105"/>
    <line x1="105" y1="502" x2="105" y2="508"/>
    <line x1="502" y1="105" x2="508" y2="105"/>
    <line x1="205" y1="2" x2="205" y2="8"/>
    <line x1="2" y1="205" x2="8" y2="205"/>
    <line x1="205" y1="502" x2="205" y2="508"/>
    <line x1="502" y1="205" x2="508" y2="205"/>
    <line x1="305" y1="2" x2="305" y2="8"/>
    <line x1="2" y1="305" x2="8" y2="305"/>
    <line x1="305" y1="502" x2="305" y2="508"/>
    <line x1="502" y1="305" x2="508" y2="305"/>
    <line x1="405" y1="2" x2="405" y2="8"/>
    <line x1="2" y1="405" x2="8" y2="405"/>
    <line x1="405" y1="502" x2="405" y2="508"/>
    <line x1="502" y1="405" x2="508" y2="405"/>
  </g>
  <g stroke="gray" stroke-width="1" stroke-dasharray="5,5">
    <line x1="105" y1="5" x2="105" y2="505"/>
    <line x1="5" y1="105" x2="505" y2="105"/>
    <line x1="205" y1="5" x2="205" y2="505"/>
    <line x1="5" y1="205" x2="505" y2="205"/>
    <line x1="305" y1="5" x2="305" y2="505"/>
    <line x1="5" y1="305" x2="505" y2="305"/>
    <line x1="405" y1="5" x2="405" y2="505"/>
    <line x1="5" y1="405" x2="505" y2="405"/>
  </g>
</svg>
