<?xml version="1.0" standalone="no"?>
<!DOCTYPE svg PUBLIC "-//W3C//DTD SVG 1.1//EN" 
  "http://www.w3.org/Graphics/SVG/1.1/DTD/svg11.dtd">
<svg width="520" height="520" version="1.1" id="toplevel"
    xmlns="http://www.w3.org/2000/svg"
    xmlns:xlink="http://www.w3.org/1999/xlink">
  <polygon points="68,515 201,439 182,404 491,225 491,169 393,169 105,5 29,137 29,493"
           fill="bisque"/>
  <g stroke="chocolate" stroke-width="1">
    <line x1="68" y1="515" x2="201" y2="439"/>
    <circle cx="68" cy="515" r="2"/>
    <circle cx="201" cy="439" r="2"/>
  </g>
  <g stroke="chocolate" stroke-width="1">
    <line x1="29" y1="493" x2="491" y2="225"/>
    <circle cx="29" cy="493" r="2"/>
    <circle cx="491" cy="225" r="2"/>
  </g>
  <g stroke="chocolate" stroke-width="1">
    <line x1="29" y1="137" x2="105" y2="5"/>
    <circle cx="29" cy="137" r="2"/>
    <circle cx="105" cy="5" r="2"/>
  </g>
  <g stroke="chocolate" stroke-width="1">
    <line x1="29" y1="493" x2="29" y2="137"/>
    <circle cx="29" cy="493" r="2"/>
    <circle cx="29" cy="137" r="2"/>
  </g>
  <g stroke="chocolate" stroke-width="1">
    <line x1="68" y1="515" x2="68" y2="169"/>
    <circle cx="68" cy="515" r="2"/>
    <circle cx="68" cy="169" r="2"/>
  </g>
  <g stroke="chocolate" stroke-width="1">
    <line x1="491" y1="225" x2="491" y2="169"/>
    <circle cx="491" cy="225" r="2"/>
    <circle cx="491" cy="169" r="2"/>
  </g>
  <g stroke="chocolate" stroke-width="1">
    <line x1="201" y1="439" x2="29" y2="137"/>
    <circle cx="201" cy="439" r="2"/>
    <circle cx="29" cy="137" r="2"/>
  </g>
  <g stroke="chocolate" stroke-width="1">
    <line x1="68" y1="515" x2="29" y2="493"/>
    <circle cx="68" cy="515" r="2"/>
    <circle cx="29" cy="493" r="2"/>
  </g>
  <g stroke="chocolate" stroke-width="1">
    <line x1="29" y1="169" x2="491" y2="169"/>
    <circle cx="29" cy="169" r="2"/>
    <circle cx="491" cy="169" r="2"/>
  </g>
  <g stroke="chocolate" stroke-width="1">
    <line x1="491" y1="225" x2="105" y2="5"/>
    <circle cx="491" cy="225" r="2"/>
    <circle cx="105" cy="5" r="2"/>
  </g>
  <g stroke="black" stroke-width="1">
    <line x1="10" y1="10" x2="510" y2="10"/>
    <line x1="10" y1="10" x2="10" y2="510"/>
    <line x1="510" y1="510" x2="10" y2="510"/>
    <line x1="510" y1="510" x2="510" y2="10"/>
    <line x1="110" y1="7" x2="110" y2="13"/>
    <line x1="7" y1="110" x2="13" y2="110"/>
    <line x1="110" y1="507" x2="110" y2="513"/>
    <line x1="507" y1="110" x2="513" y2="110"/>
    <line x1="210" y1="7" x2="210" y2="13"/>
    <line x1="7" y1="210" x2="13" y2="210"/>
    <line x1="210" y1="507" x2="210" y2="513"/>
    <line x1="507" y1="210" x2="513" y2="210"/>
    <line x1="310" y1="7" x2="310" y2="13"/>
    <line x1="7" y1="310" x2="13" y2="310"/>
    <line x1="310" y1="507" x2="310" y2="513"/>
    <line x1="507" y1="310" x2="513" y2="310"/>
    <line x1="410" y1="7" x2="410" y2="13"/>
    <line x1="7" y1="410" x2="13" y2="410"/>
    <line x1="410" y1="507" x2="410" y2="513"/>
    <line x1="507" y1="410" x2="513" y2="410"/>
  </g>
  <g stroke="gray" stroke-width="1" stroke-dasharray="5,5">
    <line x1="110" y1="10" x2="110" y2="510"/>
    <line x1="10" y1="110" x2="510" y2="110"/>
    <line x1="210" y1="10" x2="210" y2="510"/>
    <line x1="10" y1="210" x2="510" y2="210"/>
    <line x1="310" y1="10" x2="310" y2="510"/>
    <line x1="10" y1="310" x2="510" y2="310"/>
    <line x1="410" y1="10" x2="410" y2="510"/>
    <line x1="10" y1="410" x2="510" y2="410"/>
  </g>
</svg>
