<?xml version="1.0" standalone="no"?>
<!DOCTYPE svg PUBLIC "-//W3C//DTD SVG 1.1//EN" 
  "http://www.w3.org/Graphics/SVG/1.1/DTD/svg11.dtd">
<svg width="558" height="558" version="1.1" id="toplevel"
    xmlns="http://www.w3.org/2000/svg"
    xmlns:xlink="http://www.w3.org/1999/xlink">
  <polygon points="6,466 56,465 549,199 553,195 545,160 499,171 467,151 437,179 308,92 174,290 5,331"
           fill="bisque"/>
  <g stroke="chocolate" stroke-width="1">
    <line x1="402" y1="279" x2="428" y2="188"/>
    <circle cx="402" cy="279" r="2"/>
    <circle cx="428" cy="188" r="2"/>
  </g>
  <g stroke="chocolate" stroke-width="1">
    <line x1="519" y1="215" x2="539" y2="190"/>
    <circle cx="519" cy="215" r="2"/>
    <circle cx="539" cy="190" r="2"/>
  </g>
  <g stroke="chocolate" stroke-width="1">
    <line x1="549" y1="199" x2="553" y2="195"/>
    <circle cx="549" cy="199" r="2"/>
    <circle cx="553" cy="195" r="2"/>
  </g>
  <g stroke="chocolate" stroke-width="1">
    <line x1="6" y1="466" x2="5" y2="331"/>
    <circle cx="6" cy="466" r="2"/>
    <circle cx="5" cy="331" r="2"/>
  </g>
  <g stroke="chocolate" stroke-width="1">
    <line x1="45" y1="412" x2="45" y2="387"/>
    <circle cx="45" cy="412" r="2"/>
    <circle cx="45" cy="387" r="2"/>
  </g>
  <g stroke="chocolate" stroke-width="1">
    <line x1="545" y1="201" x2="545" y2="200"/>
    <circle cx="545" cy="201" r="2"/>
    <circle cx="545" cy="200" r="2"/>
  </g>
  <g stroke="chocolate" stroke-width="1">
    <line x1="503" y1="224" x2="503" y2="210"/>
    <circle cx="503" cy="224" r="2"/>
    <circle cx="503" cy="210" r="2"/>
  </g>
  <g stroke="chocolate" stroke-width="1">
    <line x1="64" y1="407" x2="94" y2="309"/>
    <circle cx="64" cy="407" r="2"/>
    <circle cx="94" cy="309" r="2"/>
  </g>
  <g stroke="chocolate" stroke-width="1">
    <line x1="242" y1="365" x2="467" y2="151"/>
    <circle cx="242" cy="365" r="2"/>
    <circle cx="467" cy="151" r="2"/>
  </g>
  <g stroke="chocolate" stroke-width="1">
    <line x1="45" y1="412" x2="5" y2="331"/>
    <circle cx="45" cy="412" r="2"/>
    <circle cx="5" cy="331" r="2"/>
  </g>
  <g stroke="chocolate" stroke-width="1">
    <line x1="56" y1="465" x2="308" y2="92"/>
    <circle cx="56" cy="465" r="2"/>
    <circle cx="308" cy="92" r="2"/>
  </g>
  <g stroke="chocolate" stroke-width="1">
    <line x1="178" y1="395" x2="322" y2="254"/>
    <circle cx="178" cy="395" r="2"/>
    <circle cx="322" cy="254" r="2"/>
  </g>
  <g stroke="chocolate" stroke-width="1">
    <line x1="64" y1="407" x2="45" y2="387"/>
    <circle cx="64" cy="407" r="2"/>
    <circle cx="45" cy="387" r="2"/>
  </g>
  <g stroke="chocolate" stroke-width="1">
    <line x1="56" y1="465" x2="549" y2="199"/>
    <circle cx="56" cy="465" r="2"/>
    <circle cx="549" cy="199" r="2"/>
  </g>
  <g stroke="chocolate" stroke-width="1">
    <line x1="553" y1="195" x2="545" y2="160"/>
    <circle cx="553" cy="195" r="2"/>
    <circle cx="545" cy="160" r="2"/>
  </g>
  <g stroke="chocolate" stroke-width="1">
    <line x1="6" y1="466" x2="56" y2="465"/>
    <circle cx="6" cy="466" r="2"/>
    <circle cx="56" cy="465" r="2"/>
  </g>
  <g stroke="chocolate" stroke-width="1">
    <line x1="178" y1="395" x2="94" y2="309"/>
    <circle cx="178" cy="395" r="2"/>
    <circle cx="94" cy="309" r="2"/>
  </g>
  <g stroke="chocolate" stroke-width="1">
    <line x1="45" y1="412" x2="242" y2="365"/>
    <circle cx="45" cy="412" r="2"/>
    <circle cx="242" cy="365" r="2"/>
  </g>
  <g stroke="chocolate" stroke-width="1">
    <line x1="45" y1="387" x2="460" y2="221"/>
    <circle cx="45" cy="387" r="2"/>
    <circle cx="460" cy="221" r="2"/>
  </g>
  <g stroke="chocolate" stroke-width="1">
    <line x1="508" y1="221" x2="503" y2="210"/>
    <circle cx="508" cy="221" r="2"/>
    <circle cx="503" cy="210" r="2"/>
  </g>
  <g stroke="chocolate" stroke-width="1">
    <line x1="545" y1="201" x2="545" y2="200"/>
    <circle cx="545" cy="201" r="2"/>
    <circle cx="545" cy="200" r="2"/>
  </g>
  <g stroke="chocolate" stroke-width="1">
    <line x1="5" y1="331" x2="549" y2="199"/>
    <circle cx="5" cy="331" r="2"/>
    <circle cx="549" cy="199" r="2"/>
  </g>
  <g stroke="chocolate" stroke-width="1">
    <line x1="508" y1="221" x2="467" y2="151"/>
    <circle cx="508" cy="221" r="2"/>
    <circle cx="467" cy="151" r="2"/>
  </g>
  <g stroke="chocolate" stroke-width="1">
    <line x1="545" y1="201" x2="539" y2="190"/>
    <circle cx="545" cy="201" r="2"/>
    <circle cx="539" cy="190" r="2"/>
  </g>
  <g stroke="chocolate" stroke-width="1">
    <line x1="428" y1="188" x2="545" y2="160"/>
    <circle cx="428" cy="188" r="2"/>
    <circle cx="545" cy="160" r="2"/>
  </g>
  <g stroke="chocolate" stroke-width="1">
    <line x1="460" y1="221" x2="519" y2="215"/>
    <circle cx="460" cy="221" r="2"/>
    <circle cx="519" cy="215" r="2"/>
  </g>
  <g stroke="chocolate" stroke-width="1">
    <line x1="402" y1="279" x2="322" y2="254"/>
    <circle cx="402" cy="279" r="2"/>
    <circle cx="322" cy="254" r="2"/>
  </g>
  <g stroke="chocolate" stroke-width="1">
    <line x1="503" y1="224" x2="308" y2="92"/>
    <circle cx="503" cy="224" r="2"/>
    <circle cx="308" cy="92" r="2"/>
  </g>
  <g stroke="chocolate" stroke-width="1">
    <line x1="545" y1="201" x2="467" y2="151"/>
    <circle cx="545" cy="201" r="2"/>
    <circle cx="467" cy="151" r="2"/>
  </g>
  <g stroke="chocolate" stroke-width="1">
    <line x1="553" y1="195" x2="539" y2="190"/>
    <circle cx="553" cy="195" r="2"/>
    <circle cx="539" cy="190" r="2"/>
  </g>
  <g stroke="black" stroke-width="1">
    <line x1="29" y1="29" x2="529" y2="29"/>
    <line x1="29" y1="29" x2="29" y2="529"/>
    <line x1="529" y1="529" x2="29" y2="529"/>
    <line x1="529" y1="529" x2="529" y2="29"/>
    <line x1="129" y1="26" x2="129" y2="32"/>
    <line x1="26" y1="129" x2="32" y2="129"/>
    <line x1="129" y1="526" x2="129" y2="532"/>
    <line x1="526" y1="129" x2="532" y2="129"/>
    <line x1="229" y1="26" x2="229" y2="32"/>
    <line x1="26" y1="229" x2="32" y2="229"/>
    <line x1="229" y1="526" x2="229" y2="532"/>
    <line x1="526" y1="229" x2="532" y2="229"/>
    <line x1="329" y1="26" x2="329" y2="32"/>
    <line x1="26" y1="329" x2="32" y2="329"/>
    <line x1="329" y1="526" x2="329" y2="532"/>
    <line x1="526" y1="329" x2="532" y2="329"/>
    <line x1="429" y1="26" x2="429" y2="32"/>
    <line x1="26" y1="429" x2="32" y2="429"/>
    <line x1="429" y1="526" x2="429" y2="532"/>
    <line x1="526" y1="429" x2="532" y2="429"/>
  </g>
  <g stroke="gray" stroke-width="1" stroke-dasharray="5,5">
    <line x1="129" y1="29" x2="129" y2="529"/>
    <line x1="29" y1="129" x2="529" y2="129"/>
    <line x1="229" y1="29" x2="229" y2="529"/>
    <line x1="29" y1="229" x2="529" y2="229"/>
    <line x1="329" y1="29" x2="329" y2="529"/>
    <line x1="29" y1="329" x2="529" y2="329"/>
    <line x1="429" y1="29" x2="429" y2="529"/>
    <line x1="29" y1="429" x2="529" y2="429"/>
  </g>
</svg>
