<?xml version="1.0" standalone="no"?>
<!DOCTYPE svg PUBLIC "-//W3C//DTD SVG 1.1//EN" 
  "http://www.w3.org/Graphics/SVG/1.1/DTD/svg11.dtd">
<svg width="510" height="510" version="1.1" id="toplevel"
    xmlns="http://www.w3.org/2000/svg"
    xmlns:xlink="http://www.w3.org/1999/xlink">
  <polygon points="163,487 209,371 325,417 487,347 371,301 417,185 347,23 301,139 185,93 23,163 139,209 93,325"
           fill="bisque"/>
  <g stroke="chocolate" stroke-width="1">
    <line x1="163" y1="487" x2="93" y2="325"/>
    <circle cx="163" cy="487" r="2"/>
    <circle cx="93" cy="325" r="2"/>
  </g>
  <g stroke="chocolate" stroke-width="1">
    <line x1="325" y1="417" x2="185" y2="93"/>
    <circle cx="325" cy="417" r="2"/>
    <circle cx="185" cy="93" r="2"/>
  </g>
  <g stroke="chocolate" stroke-width="1">
    <line x1="325" y1="417" x2="417" y2="185"/>
    <circle cx="325" cy="417" r="2"/>
    <circle cx="417" cy="185" r="2"/>
  </g>
  <g stroke="chocolate" stroke-width="1">
    <line x1="417" y1="185" x2="347" y2="23"/>
    <circle cx="417" cy="185" r="2"/>
    <circle cx="347" cy="23" r="2"/>
  </g>
  <g stroke="chocolate" stroke-width="1">
    <line x1="163" y1="487" x2="347" y2="23"/>
    <circle cx="163" cy="487" r="2"/>
    <circle cx="347" cy="23" r="2"/>
  </g>
  <g stroke="chocolate" stroke-width="1">
    <line x1="325" y1="417" x2="93" y2="325"/>
    <circle cx="325" cy="417" r="2"/>
    <circle cx="93" cy="325" r="2"/>
  </g>
  <g stroke="chocolate" stroke-width="1">
    <line x1="93" y1="325" x2="185" y2="93"/>
    <circle cx="93" cy="325" r="2"/>
    <circle cx="185" cy="93" r="2"/>
  </g>
  <g stroke="chocolate" stroke-width="1">
    <line x1="325" y1="417" x2="487" y2="347"/>
    <circle cx="325" cy="417" r="2"/>
    <circle cx="487" cy="347" r="2"/>
  </g>
  <g stroke="chocolate" stroke-width="1">
    <line x1="487" y1="347" x2="23" y2="163"/>
    <circle cx="487" cy="347" r="2"/>
    <circle cx="23" cy="163" r="2"/>
  </g>
  <g stroke="chocolate" stroke-width="1">
    <line x1="93" y1="325" x2="417" y2="185"/>
    <circle cx="93" cy="325" r="2"/>
    <circle cx="417" cy="185" r="2"/>
  </g>
  <g stroke="chocolate" stroke-width="1">
    <line x1="417" y1="185" x2="185" y2="93"/>
    <circle cx="417" cy="185" r="2"/>
    <circle cx="185" cy="93" r="2"/>
  </g>
  <g stroke="chocolate" stroke-width="1">
    <line x1="23" y1="163" x2="185" y2="93"/>
    <circle cx="23" cy="163" r="2"/>
    <circle cx="185" cy="93" r="2"/>
  </g>
  <g stroke="black" stroke-width="1">
    <line x1="5" y1="5" x2="505" y2="5"/>
    <line x1="5" y1="5" x2="5" y2="505"/>
    <line x1="505" y1="505" x2="5" y2="505"/>
    <line x1="505" y1="505" x2="505" y2="5"/>
    <line x1="105" y1="2" x2="105" y2="8"/>
    <line x1="2" y1="105" x2="8" y2="105"/>
    <line x1="105" y1="502" x2="105" y2="508"/>
    <line x1="502" y1="105" x2="508" y2="105"/>
    <line x1="205" y1="2" x2="205" y2="8"/>
    <line x1="2" y1="205" x2="8" y2="205"/>
    <line x1="205" y1="502" x2="205" y2="508"/>
    <line x1="502" y1="205" x2="508" y2="205"/>
    <line x1="305" y1="2" x2="305" y2="8"/>
    <line x1="2" y1="305" x2="8" y2="305"/>
    <line x1="305" y1="502" x2="305" y2="508"/>
    <line x1="502" y1="305" x2="508" y2="305"/>
    <line x1="405" y1="2" x2="405" y2="8"/>
    <line x1="2" y1="405" x2="8" y2="405"/>
    <line x1="405" y1="502" x2="405" y2="508"/>
    <line x1="502" y1="405" x2="508" y2="405"/>
  </g>
  <g stroke="gray" stroke-width="1" stroke-dasharray="5,5">
    <line x1="105" y1="5" x2="105" y2="505"/>
    <line x1="5" y1="105" x2="505" y2="105"/>
    <line x1="205" y1="5" x2="205" y2="505"/>
    <line x1="5" y1="205" x2="505" y2="205"/>
    <line x1="305" y1="5" x2="305" y2="505"/>
    <line x1="5" y1="305" x2="505" y2="305"/>
    <line x1="405" y1="5" x2="405" y2="505"/>
    <line x1="5" y1="405" x2="505" y2="405"/>
  </g>
</svg>
