<?xml version="1.0" standalone="no"?>
<!DOCTYPE svg PUBLIC "-//W3C//DTD SVG 1.1//EN" 
  "http://www.w3.org/Graphics/SVG/1.1/DTD/svg11.dtd">
<svg width="598" height="598" version="1.1" id="toplevel"
    xmlns="http://www.w3.org/2000/svg"
    xmlns:xlink="http://www.w3.org/1999/xlink">
  <polygon points="370,593 426,572 393,51 199,5 172,121 316,576" fill="bisque"/>
  <g stroke="chocolate" stroke-width="1">
    <line x1="370" y1="593" x2="426" y2="572"/>
    <circle cx="370" cy="593" r="2"/>
    <circle cx="426" cy="572" r="2"/>
  </g>
  <g stroke="chocolate" stroke-width="1">
    <line x1="316" y1="576" x2="350" y2="531"/>
    <circle cx="316" cy="576" r="2"/>
    <circle cx="350" cy="531" r="2"/>
  </g>
  <g stroke="chocolate" stroke-width="1">
    <line x1="370" y1="593" x2="316" y2="576"/>
    <circle cx="370" cy="593" r="2"/>
    <circle cx="316" cy="576" r="2"/>
  </g>
  <g stroke="chocolate" stroke-width="1">
    <line x1="306" y1="544" x2="343" y2="502"/>
    <circle cx="306" cy="544" r="2"/>
    <circle cx="343" cy="502" r="2"/>
  </g>
  <g stroke="chocolate" stroke-width="1">
    <line x1="302" y1="531" x2="318" y2="519"/>
    <circle cx="302" cy="531" r="2"/>
    <circle cx="318" cy="519" r="2"/>
  </g>
  <g stroke="chocolate" stroke-width="1">
    <line x1="426" y1="572" x2="306" y2="544"/>
    <circle cx="426" cy="572" r="2"/>
    <circle cx="306" cy="544" r="2"/>
  </g>
  <g stroke="chocolate" stroke-width="1">
    <line x1="302" y1="531" x2="350" y2="531"/>
    <circle cx="302" cy="531" r="2"/>
    <circle cx="350" cy="531" r="2"/>
  </g>
  <g stroke="chocolate" stroke-width="1">
    <line x1="236" y1="324" x2="240" y2="272"/>
    <circle cx="236" cy="324" r="2"/>
    <circle cx="240" cy="272" r="2"/>
  </g>
  <g stroke="chocolate" stroke-width="1">
    <line x1="316" y1="576" x2="172" y2="121"/>
    <circle cx="316" cy="576" r="2"/>
    <circle cx="172" cy="121" r="2"/>
  </g>
  <g stroke="chocolate" stroke-width="1">
    <line x1="426" y1="572" x2="393" y2="51"/>
    <circle cx="426" cy="572" r="2"/>
    <circle cx="393" cy="51" r="2"/>
  </g>
  <g stroke="chocolate" stroke-width="1">
    <line x1="312" y1="449" x2="295" y2="370"/>
    <circle cx="312" cy="449" r="2"/>
    <circle cx="295" cy="370" r="2"/>
  </g>
  <g stroke="chocolate" stroke-width="1">
    <line x1="286" y1="483" x2="312" y2="449"/>
    <circle cx="286" cy="483" r="2"/>
    <circle cx="312" cy="449" r="2"/>
  </g>
  <g stroke="chocolate" stroke-width="1">
    <line x1="350" y1="531" x2="259" y2="184"/>
    <circle cx="350" cy="531" r="2"/>
    <circle cx="259" cy="184" r="2"/>
  </g>
  <g stroke="chocolate" stroke-width="1">
    <line x1="232" y1="312" x2="240" y2="272"/>
    <circle cx="232" cy="312" r="2"/>
    <circle cx="240" cy="272" r="2"/>
  </g>
  <g stroke="chocolate" stroke-width="1">
    <line x1="370" y1="593" x2="318" y2="519"/>
    <circle cx="370" cy="593" r="2"/>
    <circle cx="318" cy="519" r="2"/>
  </g>
  <g stroke="chocolate" stroke-width="1">
    <line x1="268" y1="424" x2="276" y2="408"/>
    <circle cx="268" cy="424" r="2"/>
    <circle cx="276" cy="408" r="2"/>
  </g>
  <g stroke="chocolate" stroke-width="1">
    <line x1="240" y1="272" x2="263" y2="203"/>
    <circle cx="240" cy="272" r="2"/>
    <circle cx="263" cy="203" r="2"/>
  </g>
  <g stroke="chocolate" stroke-width="1">
    <line x1="260" y1="401" x2="283" y2="360"/>
    <circle cx="260" cy="401" r="2"/>
    <circle cx="283" cy="360" r="2"/>
  </g>
  <g stroke="chocolate" stroke-width="1">
    <line x1="343" y1="502" x2="286" y2="483"/>
    <circle cx="343" cy="502" r="2"/>
    <circle cx="286" cy="483" r="2"/>
  </g>
  <g stroke="chocolate" stroke-width="1">
    <line x1="172" y1="121" x2="199" y2="5"/>
    <circle cx="172" cy="121" r="2"/>
    <circle cx="199" cy="5" r="2"/>
  </g>
  <g stroke="chocolate" stroke-width="1">
    <line x1="272" y1="367" x2="236" y2="324"/>
    <circle cx="272" cy="367" r="2"/>
    <circle cx="236" cy="324" r="2"/>
  </g>
  <g stroke="chocolate" stroke-width="1">
    <line x1="312" y1="449" x2="268" y2="424"/>
    <circle cx="312" cy="449" r="2"/>
    <circle cx="268" cy="424" r="2"/>
  </g>
  <g stroke="chocolate" stroke-width="1">
    <line x1="191" y1="157" x2="205" y2="124"/>
    <circle cx="191" cy="157" r="2"/>
    <circle cx="205" cy="124" r="2"/>
  </g>
  <g stroke="chocolate" stroke-width="1">
    <line x1="295" y1="370" x2="232" y2="312"/>
    <circle cx="295" cy="370" r="2"/>
    <circle cx="232" cy="312" r="2"/>
  </g>
  <g stroke="chocolate" stroke-width="1">
    <line x1="276" y1="408" x2="260" y2="401"/>
    <circle cx="276" cy="408" r="2"/>
    <circle cx="260" cy="401" r="2"/>
  </g>
  <g stroke="chocolate" stroke-width="1">
    <line x1="272" y1="367" x2="283" y2="360"/>
    <circle cx="272" cy="367" r="2"/>
    <circle cx="283" cy="360" r="2"/>
  </g>
  <g stroke="chocolate" stroke-width="1">
    <line x1="259" y1="184" x2="205" y2="124"/>
    <circle cx="259" cy="184" r="2"/>
    <circle cx="205" cy="124" r="2"/>
  </g>
  <g stroke="chocolate" stroke-width="1">
    <line x1="295" y1="370" x2="272" y2="367"/>
    <circle cx="295" cy="370" r="2"/>
    <circle cx="272" cy="367" r="2"/>
  </g>
  <g stroke="chocolate" stroke-width="1">
    <line x1="263" y1="203" x2="172" y2="121"/>
    <circle cx="263" cy="203" r="2"/>
    <circle cx="172" cy="121" r="2"/>
  </g>
  <g stroke="chocolate" stroke-width="1">
    <line x1="259" y1="184" x2="191" y2="157"/>
    <circle cx="259" cy="184" r="2"/>
    <circle cx="191" cy="157" r="2"/>
  </g>
  <g stroke="chocolate" stroke-width="1">
    <line x1="175" y1="132" x2="393" y2="51"/>
    <circle cx="175" cy="132" r="2"/>
    <circle cx="393" cy="51" r="2"/>
  </g>
  <g stroke="chocolate" stroke-width="1">
    <line x1="175" y1="132" x2="205" y2="124"/>
    <circle cx="175" cy="132" r="2"/>
    <circle cx="205" cy="124" r="2"/>
  </g>
  <g stroke="chocolate" stroke-width="1">
    <line x1="393" y1="51" x2="199" y2="5"/>
    <circle cx="393" cy="51" r="2"/>
    <circle cx="199" cy="5" r="2"/>
  </g>
  <g stroke="black" stroke-width="1">
    <line x1="49" y1="49" x2="549" y2="49"/>
    <line x1="49" y1="49" x2="49" y2="549"/>
    <line x1="549" y1="549" x2="49" y2="549"/>
    <line x1="549" y1="549" x2="549" y2="49"/>
    <line x1="149" y1="46" x2="149" y2="52"/>
    <line x1="46" y1="149" x2="52" y2="149"/>
    <line x1="149" y1="546" x2="149" y2="552"/>
    <line x1="546" y1="149" x2="552" y2="149"/>
    <line x1="249" y1="46" x2="249" y2="52"/>
    <line x1="46" y1="249" x2="52" y2="249"/>
    <line x1="249" y1="546" x2="249" y2="552"/>
    <line x1="546" y1="249" x2="552" y2="249"/>
    <line x1="349" y1="46" x2="349" y2="52"/>
    <line x1="46" y1="349" x2="52" y2="349"/>
    <line x1="349" y1="546" x2="349" y2="552"/>
    <line x1="546" y1="349" x2="552" y2="349"/>
    <line x1="449" y1="46" x2="449" y2="52"/>
    <line x1="46" y1="449" x2="52" y2="449"/>
    <line x1="449" y1="546" x2="449" y2="552"/>
    <line x1="546" y1="449" x2="552" y2="449"/>
  </g>
  <g stroke="gray" stroke-width="1" stroke-dasharray="5,5">
    <line x1="149" y1="49" x2="149" y2="549"/>
    <line x1="49" y1="149" x2="549" y2="149"/>
    <line x1="249" y1="49" x2="249" y2="549"/>
    <line x1="49" y1="249" x2="549" y2="249"/>
    <line x1="349" y1="49" x2="349" y2="549"/>
    <line x1="49" y1="349" x2="549" y2="349"/>
    <line x1="449" y1="49" x2="449" y2="549"/>
    <line x1="49" y1="449" x2="549" y2="449"/>
  </g>
</svg>
