<?xml version="1.0" standalone="no"?>
<!DOCTYPE svg PUBLIC "-//W3C//DTD SVG 1.1//EN" 
  "http://www.w3.org/Graphics/SVG/1.1/DTD/svg11.dtd">
<svg width="530" height="530" version="1.1" id="toplevel"
    xmlns="http://www.w3.org/2000/svg"
    xmlns:xlink="http://www.w3.org/1999/xlink">
  <polygon points="9,508 516,459 525,456 516,307 484,269 288,354 124,339 118,413 84,409 70,433 5,438 7,477 6,478"
           fill="bisque"/>
  <g stroke="chocolate" stroke-width="1">
    <line x1="29" y1="506" x2="6" y2="478"/>
    <circle cx="29" cy="506" r="2"/>
    <circle cx="6" cy="478" r="2"/>
  </g>
  <g stroke="chocolate" stroke-width="1">
    <line x1="110" y1="498" x2="84" y2="409"/>
    <circle cx="110" cy="498" r="2"/>
    <circle cx="84" cy="409" r="2"/>
  </g>
  <g stroke="chocolate" stroke-width="1">
    <line x1="9" y1="508" x2="6" y2="478"/>
    <circle cx="9" cy="508" r="2"/>
    <circle cx="6" cy="478" r="2"/>
  </g>
  <g stroke="chocolate" stroke-width="1">
    <line x1="409" y1="470" x2="406" y2="466"/>
    <circle cx="409" cy="470" r="2"/>
    <circle cx="406" cy="466" r="2"/>
  </g>
  <g stroke="chocolate" stroke-width="1">
    <line x1="9" y1="508" x2="5" y2="438"/>
    <circle cx="9" cy="508" r="2"/>
    <circle cx="5" cy="438" r="2"/>
  </g>
  <g stroke="chocolate" stroke-width="1">
    <line x1="435" y1="467" x2="424" y2="448"/>
    <circle cx="435" cy="467" r="2"/>
    <circle cx="424" cy="448" r="2"/>
  </g>
  <g stroke="chocolate" stroke-width="1">
    <line x1="370" y1="473" x2="210" y2="424"/>
    <circle cx="370" cy="473" r="2"/>
    <circle cx="210" cy="424" r="2"/>
  </g>
  <g stroke="chocolate" stroke-width="1">
    <line x1="507" y1="460" x2="484" y2="269"/>
    <circle cx="507" cy="460" r="2"/>
    <circle cx="484" cy="269" r="2"/>
  </g>
  <g stroke="chocolate" stroke-width="1">
    <line x1="507" y1="460" x2="482" y2="414"/>
    <circle cx="507" cy="460" r="2"/>
    <circle cx="482" cy="414" r="2"/>
  </g>
  <g stroke="chocolate" stroke-width="1">
    <line x1="507" y1="460" x2="507" y2="458"/>
    <circle cx="507" cy="460" r="2"/>
    <circle cx="507" cy="458" r="2"/>
  </g>
  <g stroke="chocolate" stroke-width="1">
    <line x1="525" y1="456" x2="516" y2="307"/>
    <circle cx="525" cy="456" r="2"/>
    <circle cx="516" cy="307" r="2"/>
  </g>
  <g stroke="chocolate" stroke-width="1">
    <line x1="525" y1="456" x2="473" y2="371"/>
    <circle cx="525" cy="456" r="2"/>
    <circle cx="473" cy="371" r="2"/>
  </g>
  <g stroke="chocolate" stroke-width="1">
    <line x1="507" y1="460" x2="507" y2="458"/>
    <circle cx="507" cy="460" r="2"/>
    <circle cx="507" cy="458" r="2"/>
  </g>
  <g stroke="chocolate" stroke-width="1">
    <line x1="110" y1="498" x2="124" y2="339"/>
    <circle cx="110" cy="498" r="2"/>
    <circle cx="124" cy="339" r="2"/>
  </g>
  <g stroke="chocolate" stroke-width="1">
    <line x1="435" y1="467" x2="473" y2="371"/>
    <circle cx="435" cy="467" r="2"/>
    <circle cx="473" cy="371" r="2"/>
  </g>
  <g stroke="chocolate" stroke-width="1">
    <line x1="516" y1="459" x2="84" y2="409"/>
    <circle cx="516" cy="459" r="2"/>
    <circle cx="84" cy="409" r="2"/>
  </g>
  <g stroke="chocolate" stroke-width="1">
    <line x1="9" y1="508" x2="516" y2="459"/>
    <circle cx="9" cy="508" r="2"/>
    <circle cx="516" cy="459" r="2"/>
  </g>
  <g stroke="chocolate" stroke-width="1">
    <line x1="516" y1="459" x2="525" y2="456"/>
    <circle cx="516" cy="459" r="2"/>
    <circle cx="525" cy="456" r="2"/>
  </g>
  <g stroke="chocolate" stroke-width="1">
    <line x1="516" y1="307" x2="484" y2="269"/>
    <circle cx="516" cy="307" r="2"/>
    <circle cx="484" cy="269" r="2"/>
  </g>
  <g stroke="chocolate" stroke-width="1">
    <line x1="409" y1="470" x2="516" y2="307"/>
    <circle cx="409" cy="470" r="2"/>
    <circle cx="516" cy="307" r="2"/>
  </g>
  <g stroke="chocolate" stroke-width="1">
    <line x1="406" y1="466" x2="424" y2="448"/>
    <circle cx="406" cy="466" r="2"/>
    <circle cx="424" cy="448" r="2"/>
  </g>
  <g stroke="chocolate" stroke-width="1">
    <line x1="370" y1="473" x2="482" y2="414"/>
    <circle cx="370" cy="473" r="2"/>
    <circle cx="482" cy="414" r="2"/>
  </g>
  <g stroke="chocolate" stroke-width="1">
    <line x1="5" y1="438" x2="210" y2="424"/>
    <circle cx="5" cy="438" r="2"/>
    <circle cx="210" cy="424" r="2"/>
  </g>
  <g stroke="chocolate" stroke-width="1">
    <line x1="473" y1="371" x2="124" y2="339"/>
    <circle cx="473" cy="371" r="2"/>
    <circle cx="124" cy="339" r="2"/>
  </g>
  <g stroke="chocolate" stroke-width="1">
    <line x1="29" y1="506" x2="84" y2="409"/>
    <circle cx="29" cy="506" r="2"/>
    <circle cx="84" cy="409" r="2"/>
  </g>
  <g stroke="chocolate" stroke-width="1">
    <line x1="6" y1="478" x2="484" y2="269"/>
    <circle cx="6" cy="478" r="2"/>
    <circle cx="484" cy="269" r="2"/>
  </g>
  <g stroke="black" stroke-width="1">
    <line x1="15" y1="15" x2="515" y2="15"/>
    <line x1="15" y1="15" x2="15" y2="515"/>
    <line x1="515" y1="515" x2="15" y2="515"/>
    <line x1="515" y1="515" x2="515" y2="15"/>
    <line x1="115" y1="12" x2="115" y2="18"/>
    <line x1="12" y1="115" x2="18" y2="115"/>
    <line x1="115" y1="512" x2="115" y2="518"/>
    <line x1="512" y1="115" x2="518" y2="115"/>
    <line x1="215" y1="12" x2="215" y2="18"/>
    <line x1="12" y1="215" x2="18" y2="215"/>
    <line x1="215" y1="512" x2="215" y2="518"/>
    <line x1="512" y1="215" x2="518" y2="215"/>
    <line x1="315" y1="12" x2="315" y2="18"/>
    <line x1="12" y1="315" x2="18" y2="315"/>
    <line x1="315" y1="512" x2="315" y2="518"/>
    <line x1="512" y1="315" x2="518" y2="315"/>
    <line x1="415" y1="12" x2="415" y2="18"/>
    <line x1="12" y1="415" x2="18" y2="415"/>
    <line x1="415" y1="512" x2="415" y2="518"/>
    <line x1="512" y1="415" x2="518" y2="415"/>
  </g>
  <g stroke="gray" stroke-width="1" stroke-dasharray="5,5">
    <line x1="115" y1="15" x2="115" y2="515"/>
    <line x1="15" y1="115" x2="515" y2="115"/>
    <line x1="215" y1="15" x2="215" y2="515"/>
    <line x1="15" y1="215" x2="515" y2="215"/>
    <line x1="315" y1="15" x2="315" y2="515"/>
    <line x1="15" y1="315" x2="515" y2="315"/>
    <line x1="415" y1="15" x2="415" y2="515"/>
    <line x1="15" y1="415" x2="515" y2="415"/>
  </g>
</svg>
