<?xml version="1.0" standalone="no"?>
<!DOCTYPE svg PUBLIC "-//W3C//DTD SVG 1.1//EN" 
  "http://www.w3.org/Graphics/SVG/1.1/DTD/svg11.dtd">
<svg width="582" height="582" version="1.1" id="toplevel"
    xmlns="http://www.w3.org/2000/svg"
    xmlns:xlink="http://www.w3.org/1999/xlink">
  <polygon points="89,487 577,358 552,145 490,152 465,95 268,178 55,204 63,266 5,290"
           fill="bisque"/>
  <g stroke="chocolate" stroke-width="1">
    <line x1="89" y1="487" x2="577" y2="358"/>
    <circle cx="89" cy="487" r="2"/>
    <circle cx="577" cy="358" r="2"/>
  </g>
  <g stroke="chocolate" stroke-width="1">
    <line x1="5" y1="290" x2="465" y2="95"/>
    <circle cx="5" cy="290" r="2"/>
    <circle cx="465" cy="95" r="2"/>
  </g>
  <g stroke="chocolate" stroke-width="1">
    <line x1="89" y1="487" x2="5" y2="290"/>
    <circle cx="89" cy="487" r="2"/>
    <circle cx="5" cy="290" r="2"/>
  </g>
  <g stroke="chocolate" stroke-width="1">
    <line x1="55" y1="204" x2="552" y2="145"/>
    <circle cx="55" cy="204" r="2"/>
    <circle cx="552" cy="145" r="2"/>
  </g>
  <g stroke="chocolate" stroke-width="1">
    <line x1="89" y1="487" x2="55" y2="204"/>
    <circle cx="89" cy="487" r="2"/>
    <circle cx="55" cy="204" r="2"/>
  </g>
  <g stroke="chocolate" stroke-width="1">
    <line x1="577" y1="358" x2="552" y2="145"/>
    <circle cx="577" cy="358" r="2"/>
    <circle cx="552" cy="145" r="2"/>
  </g>
  <g stroke="chocolate" stroke-width="1">
    <line x1="577" y1="358" x2="465" y2="95"/>
    <circle cx="577" cy="358" r="2"/>
    <circle cx="465" cy="95" r="2"/>
  </g>
  <g stroke="black" stroke-width="1">
    <line x1="41" y1="41" x2="541" y2="41"/>
    <line x1="41" y1="41" x2="41" y2="541"/>
    <line x1="541" y1="541" x2="41" y2="541"/>
    <line x1="541" y1="541" x2="541" y2="41"/>
    <line x1="141" y1="38" x2="141" y2="44"/>
    <line x1="38" y1="141" x2="44" y2="141"/>
    <line x1="141" y1="538" x2="141" y2="544"/>
    <line x1="538" y1="141" x2="544" y2="141"/>
    <line x1="241" y1="38" x2="241" y2="44"/>
    <line x1="38" y1="241" x2="44" y2="241"/>
    <line x1="241" y1="538" x2="241" y2="544"/>
    <line x1="538" y1="241" x2="544" y2="241"/>
    <line x1="341" y1="38" x2="341" y2="44"/>
    <line x1="38" y1="341" x2="44" y2="341"/>
    <line x1="341" y1="538" x2="341" y2="544"/>
    <line x1="538" y1="341" x2="544" y2="341"/>
    <line x1="441" y1="38" x2="441" y2="44"/>
    <line x1="38" y1="441" x2="44" y2="441"/>
    <line x1="441" y1="538" x2="441" y2="544"/>
    <line x1="538" y1="441" x2="544" y2="441"/>
  </g>
  <g stroke="gray" stroke-width="1" stroke-dasharray="5,5">
    <line x1="141" y1="41" x2="141" y2="541"/>
    <line x1="41" y1="141" x2="541" y2="141"/>
    <line x1="241" y1="41" x2="241" y2="541"/>
    <line x1="41" y1="241" x2="541" y2="241"/>
    <line x1="341" y1="41" x2="341" y2="541"/>
    <line x1="41" y1="341" x2="541" y2="341"/>
    <line x1="441" y1="41" x2="441" y2="541"/>
    <line x1="41" y1="441" x2="541" y2="441"/>
  </g>
</svg>
