<?xml version="1.0" standalone="no"?>
<!DOCTYPE svg PUBLIC "-//W3C//DTD SVG 1.1//EN" 
  "http://www.w3.org/Graphics/SVG/1.1/DTD/svg11.dtd">
<svg width="510" height="510" version="1.1" id="toplevel"
    xmlns="http://www.w3.org/2000/svg"
    xmlns:xlink="http://www.w3.org/1999/xlink">
  <polygon points="327,501 456,501 456,394 71,9 67,10 66,13 69,22 54,121 115,131 261,479 264,484 304,455"
           fill="bisque"/>
  <g stroke="chocolate" stroke-width="1">
    <line x1="327" y1="501" x2="427" y2="365"/>
    <circle cx="327" cy="501" r="2"/>
    <circle cx="427" cy="365" r="2"/>
  </g>
  <g stroke="chocolate" stroke-width="1">
    <line x1="264" y1="484" x2="427" y2="365"/>
    <circle cx="264" cy="484" r="2"/>
    <circle cx="427" cy="365" r="2"/>
  </g>
  <g stroke="chocolate" stroke-width="1">
    <line x1="327" y1="501" x2="456" y2="501"/>
    <circle cx="327" cy="501" r="2"/>
    <circle cx="456" cy="501" r="2"/>
  </g>
  <g stroke="chocolate" stroke-width="1">
    <line x1="225" y1="394" x2="339" y2="279"/>
    <circle cx="225" cy="394" r="2"/>
    <circle cx="339" cy="279" r="2"/>
  </g>
  <g stroke="chocolate" stroke-width="1">
    <line x1="225" y1="394" x2="456" y2="394"/>
    <circle cx="225" cy="394" r="2"/>
    <circle cx="456" cy="394" r="2"/>
  </g>
  <g stroke="chocolate" stroke-width="1">
    <line x1="456" y1="501" x2="456" y2="394"/>
    <circle cx="456" cy="501" r="2"/>
    <circle cx="456" cy="394" r="2"/>
  </g>
  <g stroke="chocolate" stroke-width="1">
    <line x1="54" y1="121" x2="71" y2="9"/>
    <circle cx="54" cy="121" r="2"/>
    <circle cx="71" cy="9" r="2"/>
  </g>
  <g stroke="chocolate" stroke-width="1">
    <line x1="261" y1="479" x2="207" y2="145"/>
    <circle cx="261" cy="479" r="2"/>
    <circle cx="207" cy="145" r="2"/>
  </g>
  <g stroke="chocolate" stroke-width="1">
    <line x1="66" y1="13" x2="67" y2="10"/>
    <circle cx="66" cy="13" r="2"/>
    <circle cx="67" cy="10" r="2"/>
  </g>
  <g stroke="chocolate" stroke-width="1">
    <line x1="261" y1="479" x2="66" y2="13"/>
    <circle cx="261" cy="479" r="2"/>
    <circle cx="66" cy="13" r="2"/>
  </g>
  <g stroke="chocolate" stroke-width="1">
    <line x1="264" y1="484" x2="261" y2="479"/>
    <circle cx="264" cy="484" r="2"/>
    <circle cx="261" cy="479" r="2"/>
  </g>
  <g stroke="chocolate" stroke-width="1">
    <line x1="327" y1="501" x2="85" y2="23"/>
    <circle cx="327" cy="501" r="2"/>
    <circle cx="85" cy="23" r="2"/>
  </g>
  <g stroke="chocolate" stroke-width="1">
    <line x1="339" y1="279" x2="67" y2="10"/>
    <circle cx="339" cy="279" r="2"/>
    <circle cx="67" cy="10" r="2"/>
  </g>
  <g stroke="chocolate" stroke-width="1">
    <line x1="456" y1="394" x2="71" y2="9"/>
    <circle cx="456" cy="394" r="2"/>
    <circle cx="71" cy="9" r="2"/>
  </g>
  <g stroke="chocolate" stroke-width="1">
    <line x1="207" y1="145" x2="54" y2="121"/>
    <circle cx="207" cy="145" r="2"/>
    <circle cx="54" cy="121" r="2"/>
  </g>
  <g stroke="chocolate" stroke-width="1">
    <line x1="85" y1="23" x2="66" y2="13"/>
    <circle cx="85" cy="23" r="2"/>
    <circle cx="66" cy="13" r="2"/>
  </g>
  <g stroke="chocolate" stroke-width="1">
    <line x1="67" y1="10" x2="71" y2="9"/>
    <circle cx="67" cy="10" r="2"/>
    <circle cx="71" cy="9" r="2"/>
  </g>
  <g stroke="black" stroke-width="1">
    <line x1="5" y1="5" x2="505" y2="5"/>
    <line x1="5" y1="5" x2="5" y2="505"/>
    <line x1="505" y1="505" x2="5" y2="505"/>
    <line x1="505" y1="505" x2="505" y2="5"/>
    <line x1="105" y1="2" x2="105" y2="8"/>
    <line x1="2" y1="105" x2="8" y2="105"/>
    <line x1="105" y1="502" x2="105" y2="508"/>
    <line x1="502" y1="105" x2="508" y2="105"/>
    <line x1="205" y1="2" x2="205" y2="8"/>
    <line x1="2" y1="205" x2="8" y2="205"/>
    <line x1="205" y1="502" x2="205" y2="508"/>
    <line x1="502" y1="205" x2="508" y2="205"/>
    <line x1="305" y1="2" x2="305" y2="8"/>
    <line x1="2" y1="305" x2="8" y2="305"/>
    <line x1="305" y1="502" x2="305" y2="508"/>
    <line x1="502" y1="305" x2="508" y2="305"/>
    <line x1="405" y1="2" x2="405" y2="8"/>
    <line x1="2" y1="405" x2="8" y2="405"/>
    <line x1="405" y1="502" x2="405" y2="508"/>
    <line x1="502" y1="405" x2="508" y2="405"/>
  </g>
  <g stroke="gray" stroke-width="1" stroke-dasharray="5,5">
    <line x1="105" y1="5" x2="105" y2="505"/>
    <line x1="5" y1="105" x2="505" y2="105"/>
    <line x1="205" y1="5" x2="205" y2="505"/>
    <line x1="5" y1="205" x2="505" y2="205"/>
    <line x1="305" y1="5" x2="305" y2="505"/>
    <line x1="5" y1="305" x2="505" y2="305"/>
    <line x1="405" y1="5" x2="405" y2="505"/>
    <line x1="5" y1="405" x2="505" y2="405"/>
  </g>
</svg>
