<?xml version="1.0" standalone="no"?>
<!DOCTYPE svg PUBLIC "-//W3C//DTD SVG 1.1//EN" 
  "http://www.w3.org/Graphics/SVG/1.1/DTD/svg11.dtd">
<svg width="510" height="510" version="1.1" id="toplevel"
    xmlns="http://www.w3.org/2000/svg"
    xmlns:xlink="http://www.w3.org/1999/xlink">
  <polygon points="349,463 444,285 438,270 197,47 41,127 51,146 143,176 129,209 321,451"
           fill="bisque"/>
  <g stroke="chocolate" stroke-width="1">
    <line x1="349" y1="463" x2="444" y2="285"/>
    <circle cx="349" cy="463" r="2"/>
    <circle cx="444" cy="285" r="2"/>
  </g>
  <g stroke="chocolate" stroke-width="1">
    <line x1="220" y1="201" x2="248" y2="95"/>
    <circle cx="220" cy="201" r="2"/>
    <circle cx="248" cy="95" r="2"/>
  </g>
  <g stroke="chocolate" stroke-width="1">
    <line x1="220" y1="201" x2="228" y2="76"/>
    <circle cx="220" cy="201" r="2"/>
    <circle cx="228" cy="76" r="2"/>
  </g>
  <g stroke="chocolate" stroke-width="1">
    <line x1="396" y1="271" x2="413" y2="247"/>
    <circle cx="396" cy="271" r="2"/>
    <circle cx="413" cy="247" r="2"/>
  </g>
  <g stroke="chocolate" stroke-width="1">
    <line x1="220" y1="200" x2="203" y2="80"/>
    <circle cx="220" cy="200" r="2"/>
    <circle cx="203" cy="80" r="2"/>
  </g>
  <g stroke="chocolate" stroke-width="1">
    <line x1="129" y1="209" x2="197" y2="47"/>
    <circle cx="129" cy="209" r="2"/>
    <circle cx="197" cy="47" r="2"/>
  </g>
  <g stroke="chocolate" stroke-width="1">
    <line x1="210" y1="311" x2="314" y2="156"/>
    <circle cx="210" cy="311" r="2"/>
    <circle cx="314" cy="156" r="2"/>
  </g>
  <g stroke="chocolate" stroke-width="1">
    <line x1="321" y1="451" x2="277" y2="185"/>
    <circle cx="321" cy="451" r="2"/>
    <circle cx="277" cy="185" r="2"/>
  </g>
  <g stroke="chocolate" stroke-width="1">
    <line x1="68" y1="150" x2="70" y2="143"/>
    <circle cx="68" cy="150" r="2"/>
    <circle cx="70" cy="143" r="2"/>
  </g>
  <g stroke="chocolate" stroke-width="1">
    <line x1="248" y1="209" x2="239" y2="180"/>
    <circle cx="248" cy="209" r="2"/>
    <circle cx="239" cy="180" r="2"/>
  </g>
  <g stroke="chocolate" stroke-width="1">
    <line x1="401" y1="258" x2="413" y2="247"/>
    <circle cx="401" cy="258" r="2"/>
    <circle cx="413" cy="247" r="2"/>
  </g>
  <g stroke="chocolate" stroke-width="1">
    <line x1="401" y1="258" x2="394" y2="229"/>
    <circle cx="401" cy="258" r="2"/>
    <circle cx="394" cy="229" r="2"/>
  </g>
  <g stroke="chocolate" stroke-width="1">
    <line x1="309" y1="436" x2="255" y2="294"/>
    <circle cx="309" cy="436" r="2"/>
    <circle cx="255" cy="294" r="2"/>
  </g>
  <g stroke="chocolate" stroke-width="1">
    <line x1="51" y1="146" x2="41" y2="127"/>
    <circle cx="51" cy="146" r="2"/>
    <circle cx="41" cy="127" r="2"/>
  </g>
  <g stroke="chocolate" stroke-width="1">
    <line x1="396" y1="271" x2="377" y2="214"/>
    <circle cx="396" cy="271" r="2"/>
    <circle cx="377" cy="214" r="2"/>
  </g>
  <g stroke="chocolate" stroke-width="1">
    <line x1="220" y1="200" x2="239" y2="180"/>
    <circle cx="220" cy="200" r="2"/>
    <circle cx="239" cy="180" r="2"/>
  </g>
  <g stroke="chocolate" stroke-width="1">
    <line x1="444" y1="285" x2="438" y2="270"/>
    <circle cx="444" cy="285" r="2"/>
    <circle cx="438" cy="270" r="2"/>
  </g>
  <g stroke="chocolate" stroke-width="1">
    <line x1="248" y1="209" x2="314" y2="156"/>
    <circle cx="248" cy="209" r="2"/>
    <circle cx="314" cy="156" r="2"/>
  </g>
  <g stroke="chocolate" stroke-width="1">
    <line x1="79" y1="155" x2="70" y2="143"/>
    <circle cx="79" cy="155" r="2"/>
    <circle cx="70" cy="143" r="2"/>
  </g>
  <g stroke="chocolate" stroke-width="1">
    <line x1="321" y1="451" x2="129" y2="209"/>
    <circle cx="321" cy="451" r="2"/>
    <circle cx="129" cy="209" r="2"/>
  </g>
  <g stroke="chocolate" stroke-width="1">
    <line x1="210" y1="311" x2="255" y2="294"/>
    <circle cx="210" cy="311" r="2"/>
    <circle cx="255" cy="294" r="2"/>
  </g>
  <g stroke="chocolate" stroke-width="1">
    <line x1="349" y1="463" x2="309" y2="436"/>
    <circle cx="349" cy="463" r="2"/>
    <circle cx="309" cy="436" r="2"/>
  </g>
  <g stroke="chocolate" stroke-width="1">
    <line x1="349" y1="463" x2="321" y2="451"/>
    <circle cx="349" cy="463" r="2"/>
    <circle cx="321" cy="451" r="2"/>
  </g>
  <g stroke="chocolate" stroke-width="1">
    <line x1="51" y1="146" x2="53" y2="145"/>
    <circle cx="51" cy="146" r="2"/>
    <circle cx="53" cy="145" r="2"/>
  </g>
  <g stroke="chocolate" stroke-width="1">
    <line x1="438" y1="270" x2="197" y2="47"/>
    <circle cx="438" cy="270" r="2"/>
    <circle cx="197" cy="47" r="2"/>
  </g>
  <g stroke="chocolate" stroke-width="1">
    <line x1="68" y1="150" x2="84" y2="142"/>
    <circle cx="68" cy="150" r="2"/>
    <circle cx="84" cy="142" r="2"/>
  </g>
  <g stroke="chocolate" stroke-width="1">
    <line x1="41" y1="127" x2="197" y2="47"/>
    <circle cx="41" cy="127" r="2"/>
    <circle cx="197" cy="47" r="2"/>
  </g>
  <g stroke="chocolate" stroke-width="1">
    <line x1="79" y1="155" x2="248" y2="95"/>
    <circle cx="79" cy="155" r="2"/>
    <circle cx="248" cy="95" r="2"/>
  </g>
  <g stroke="chocolate" stroke-width="1">
    <line x1="129" y1="209" x2="277" y2="185"/>
    <circle cx="129" cy="209" r="2"/>
    <circle cx="277" cy="185" r="2"/>
  </g>
  <g stroke="chocolate" stroke-width="1">
    <line x1="444" y1="285" x2="396" y2="271"/>
    <circle cx="444" cy="285" r="2"/>
    <circle cx="396" cy="271" r="2"/>
  </g>
  <g stroke="chocolate" stroke-width="1">
    <line x1="438" y1="270" x2="51" y2="146"/>
    <circle cx="438" cy="270" r="2"/>
    <circle cx="51" cy="146" r="2"/>
  </g>
  <g stroke="chocolate" stroke-width="1">
    <line x1="68" y1="150" x2="53" y2="145"/>
    <circle cx="68" cy="150" r="2"/>
    <circle cx="53" cy="145" r="2"/>
  </g>
  <g stroke="chocolate" stroke-width="1">
    <line x1="394" y1="229" x2="220" y2="201"/>
    <circle cx="394" cy="229" r="2"/>
    <circle cx="220" cy="201" r="2"/>
  </g>
  <g stroke="chocolate" stroke-width="1">
    <line x1="377" y1="214" x2="84" y2="142"/>
    <circle cx="377" cy="214" r="2"/>
    <circle cx="84" cy="142" r="2"/>
  </g>
  <g stroke="chocolate" stroke-width="1">
    <line x1="53" y1="145" x2="84" y2="142"/>
    <circle cx="53" cy="145" r="2"/>
    <circle cx="84" cy="142" r="2"/>
  </g>
  <g stroke="chocolate" stroke-width="1">
    <line x1="203" y1="80" x2="228" y2="76"/>
    <circle cx="203" cy="80" r="2"/>
    <circle cx="228" cy="76" r="2"/>
  </g>
  <g stroke="black" stroke-width="1">
    <line x1="5" y1="5" x2="505" y2="5"/>
    <line x1="5" y1="5" x2="5" y2="505"/>
    <line x1="505" y1="505" x2="5" y2="505"/>
    <line x1="505" y1="505" x2="505" y2="5"/>
    <line x1="105" y1="2" x2="105" y2="8"/>
    <line x1="2" y1="105" x2="8" y2="105"/>
    <line x1="105" y1="502" x2="105" y2="508"/>
    <line x1="502" y1="105" x2="508" y2="105"/>
    <line x1="205" y1="2" x2="205" y2="8"/>
    <line x1="2" y1="205" x2="8" y2="205"/>
    <line x1="205" y1="502" x2="205" y2="508"/>
    <line x1="502" y1="205" x2="508" y2="205"/>
    <line x1="305" y1="2" x2="305" y2="8"/>
    <line x1="2" y1="305" x2="8" y2="305"/>
    <line x1="305" y1="502" x2="305" y2="508"/>
    <line x1="502" y1="305" x2="508" y2="305"/>
    <line x1="405" y1="2" x2="405" y2="8"/>
    <line x1="2" y1="405" x2="8" y2="405"/>
    <line x1="405" y1="502" x2="405" y2="508"/>
    <line x1="502" y1="405" x2="508" y2="405"/>
  </g>
  <g stroke="gray" stroke-width="1" stroke-dasharray="5,5">
    <line x1="105" y1="5" x2="105" y2="505"/>
    <line x1="5" y1="105" x2="505" y2="105"/>
    <line x1="205" y1="5" x2="205" y2="505"/>
    <line x1="5" y1="205" x2="505" y2="205"/>
    <line x1="305" y1="5" x2="305" y2="505"/>
    <line x1="5" y1="305" x2="505" y2="305"/>
    <line x1="405" y1="5" x2="405" y2="505"/>
    <line x1="5" y1="405" x2="505" y2="405"/>
  </g>
</svg>
