<?xml version="1.0" standalone="no"?>
<!DOCTYPE svg PUBLIC "-//W3C//DTD SVG 1.1//EN" 
  "http://www.w3.org/Graphics/SVG/1.1/DTD/svg11.dtd">
<svg width="510" height="510" version="1.1" id="toplevel"
    xmlns="http://www.w3.org/2000/svg"
    xmlns:xlink="http://www.w3.org/1999/xlink">
  <polygon points="148,434 219,434 326,362 434,362 434,291 362,184 362,76 291,76 184,148 76,148 76,219 148,326"
           fill="bisque"/>
  <g stroke="chocolate" stroke-width="1">
    <line x1="76" y1="219" x2="76" y2="148"/>
    <circle cx="76" cy="219" r="2"/>
    <circle cx="76" cy="148" r="2"/>
  </g>
  <g stroke="chocolate" stroke-width="1">
    <line x1="148" y1="434" x2="148" y2="291"/>
    <circle cx="148" cy="434" r="2"/>
    <circle cx="148" cy="291" r="2"/>
  </g>
  <g stroke="chocolate" stroke-width="1">
    <line x1="219" y1="434" x2="219" y2="148"/>
    <circle cx="219" cy="434" r="2"/>
    <circle cx="219" cy="148" r="2"/>
  </g>
  <g stroke="chocolate" stroke-width="1">
    <line x1="291" y1="362" x2="291" y2="76"/>
    <circle cx="291" cy="362" r="2"/>
    <circle cx="291" cy="76" r="2"/>
  </g>
  <g stroke="chocolate" stroke-width="1">
    <line x1="362" y1="219" x2="362" y2="76"/>
    <circle cx="362" cy="219" r="2"/>
    <circle cx="362" cy="76" r="2"/>
  </g>
  <g stroke="chocolate" stroke-width="1">
    <line x1="434" y1="362" x2="434" y2="291"/>
    <circle cx="434" cy="362" r="2"/>
    <circle cx="434" cy="291" r="2"/>
  </g>
  <g stroke="chocolate" stroke-width="1">
    <line x1="219" y1="434" x2="302" y2="236"/>
    <circle cx="219" cy="434" r="2"/>
    <circle cx="302" cy="236" r="2"/>
  </g>
  <g stroke="chocolate" stroke-width="1">
    <line x1="208" y1="274" x2="291" y2="76"/>
    <circle cx="208" cy="274" r="2"/>
    <circle cx="291" cy="76" r="2"/>
  </g>
  <g stroke="chocolate" stroke-width="1">
    <line x1="291" y1="362" x2="362" y2="219"/>
    <circle cx="291" cy="362" r="2"/>
    <circle cx="362" cy="219" r="2"/>
  </g>
  <g stroke="chocolate" stroke-width="1">
    <line x1="148" y1="291" x2="219" y2="148"/>
    <circle cx="148" cy="291" r="2"/>
    <circle cx="219" cy="148" r="2"/>
  </g>
  <g stroke="chocolate" stroke-width="1">
    <line x1="219" y1="434" x2="76" y2="219"/>
    <circle cx="219" cy="434" r="2"/>
    <circle cx="76" cy="219" r="2"/>
  </g>
  <g stroke="chocolate" stroke-width="1">
    <line x1="434" y1="291" x2="291" y2="76"/>
    <circle cx="434" cy="291" r="2"/>
    <circle cx="291" cy="76" r="2"/>
  </g>
  <g stroke="chocolate" stroke-width="1">
    <line x1="219" y1="434" x2="434" y2="291"/>
    <circle cx="219" cy="434" r="2"/>
    <circle cx="434" cy="291" r="2"/>
  </g>
  <g stroke="chocolate" stroke-width="1">
    <line x1="76" y1="219" x2="291" y2="76"/>
    <circle cx="76" cy="219" r="2"/>
    <circle cx="291" cy="76" r="2"/>
  </g>
  <g stroke="chocolate" stroke-width="1">
    <line x1="291" y1="362" x2="148" y2="291"/>
    <circle cx="291" cy="362" r="2"/>
    <circle cx="148" cy="291" r="2"/>
  </g>
  <g stroke="chocolate" stroke-width="1">
    <line x1="362" y1="219" x2="219" y2="148"/>
    <circle cx="362" cy="219" r="2"/>
    <circle cx="219" cy="148" r="2"/>
  </g>
  <g stroke="chocolate" stroke-width="1">
    <line x1="274" y1="302" x2="76" y2="219"/>
    <circle cx="274" cy="302" r="2"/>
    <circle cx="76" cy="219" r="2"/>
  </g>
  <g stroke="chocolate" stroke-width="1">
    <line x1="434" y1="291" x2="236" y2="208"/>
    <circle cx="434" cy="291" r="2"/>
    <circle cx="236" cy="208" r="2"/>
  </g>
  <g stroke="chocolate" stroke-width="1">
    <line x1="148" y1="434" x2="219" y2="434"/>
    <circle cx="148" cy="434" r="2"/>
    <circle cx="219" cy="434" r="2"/>
  </g>
  <g stroke="chocolate" stroke-width="1">
    <line x1="291" y1="362" x2="434" y2="362"/>
    <circle cx="291" cy="362" r="2"/>
    <circle cx="434" cy="362" r="2"/>
  </g>
  <g stroke="chocolate" stroke-width="1">
    <line x1="148" y1="291" x2="434" y2="291"/>
    <circle cx="148" cy="291" r="2"/>
    <circle cx="434" cy="291" r="2"/>
  </g>
  <g stroke="chocolate" stroke-width="1">
    <line x1="76" y1="219" x2="362" y2="219"/>
    <circle cx="76" cy="219" r="2"/>
    <circle cx="362" cy="219" r="2"/>
  </g>
  <g stroke="chocolate" stroke-width="1">
    <line x1="76" y1="148" x2="219" y2="148"/>
    <circle cx="76" cy="148" r="2"/>
    <circle cx="219" cy="148" r="2"/>
  </g>
  <g stroke="chocolate" stroke-width="1">
    <line x1="291" y1="76" x2="362" y2="76"/>
    <circle cx="291" cy="76" r="2"/>
    <circle cx="362" cy="76" r="2"/>
  </g>
  <g stroke="black" stroke-width="1">
    <line x1="5" y1="5" x2="505" y2="5"/>
    <line x1="5" y1="5" x2="5" y2="505"/>
    <line x1="505" y1="505" x2="5" y2="505"/>
    <line x1="505" y1="505" x2="505" y2="5"/>
    <line x1="105" y1="2" x2="105" y2="8"/>
    <line x1="2" y1="105" x2="8" y2="105"/>
    <line x1="105" y1="502" x2="105" y2="508"/>
    <line x1="502" y1="105" x2="508" y2="105"/>
    <line x1="205" y1="2" x2="205" y2="8"/>
    <line x1="2" y1="205" x2="8" y2="205"/>
    <line x1="205" y1="502" x2="205" y2="508"/>
    <line x1="502" y1="205" x2="508" y2="205"/>
    <line x1="305" y1="2" x2="305" y2="8"/>
    <line x1="2" y1="305" x2="8" y2="305"/>
    <line x1="305" y1="502" x2="305" y2="508"/>
    <line x1="502" y1="305" x2="508" y2="305"/>
    <line x1="405" y1="2" x2="405" y2="8"/>
    <line x1="2" y1="405" x2="8" y2="405"/>
    <line x1="405" y1="502" x2="405" y2="508"/>
    <line x1="502" y1="405" x2="508" y2="405"/>
  </g>
  <g stroke="gray" stroke-width="1" stroke-dasharray="5,5">
    <line x1="105" y1="5" x2="105" y2="505"/>
    <line x1="5" y1="105" x2="505" y2="105"/>
    <line x1="205" y1="5" x2="205" y2="505"/>
    <line x1="5" y1="205" x2="505" y2="205"/>
    <line x1="305" y1="5" x2="305" y2="505"/>
    <line x1="5" y1="305" x2="505" y2="305"/>
    <line x1="405" y1="5" x2="405" y2="505"/>
    <line x1="5" y1="405" x2="505" y2="405"/>
  </g>
</svg>
