<?xml version="1.0" standalone="no"?>
<!DOCTYPE svg PUBLIC "-//W3C//DTD SVG 1.1//EN" 
  "http://www.w3.org/Graphics/SVG/1.1/DTD/svg11.dtd">
<svg width="510" height="510" version="1.1" id="toplevel"
    xmlns="http://www.w3.org/2000/svg"
    xmlns:xlink="http://www.w3.org/1999/xlink">
  <polygon points="270,498 353,498 353,318 505,318 505,192 353,192 228,318 228,456"
           fill="bisque"/>
  <g stroke="chocolate" stroke-width="1">
    <line x1="270" y1="498" x2="312" y2="456"/>
    <circle cx="270" cy="498" r="2"/>
    <circle cx="312" cy="456" r="2"/>
  </g>
  <g stroke="chocolate" stroke-width="1">
    <line x1="228" y1="318" x2="353" y2="192"/>
    <circle cx="228" cy="318" r="2"/>
    <circle cx="353" cy="192" r="2"/>
  </g>
  <g stroke="chocolate" stroke-width="1">
    <line x1="228" y1="456" x2="228" y2="318"/>
    <circle cx="228" cy="456" r="2"/>
    <circle cx="228" cy="318" r="2"/>
  </g>
  <g stroke="chocolate" stroke-width="1">
    <line x1="288" y1="498" x2="288" y2="257"/>
    <circle cx="288" cy="498" r="2"/>
    <circle cx="288" cy="257" r="2"/>
  </g>
  <g stroke="chocolate" stroke-width="1">
    <line x1="290" y1="498" x2="290" y2="255"/>
    <circle cx="290" cy="498" r="2"/>
    <circle cx="290" cy="255" r="2"/>
  </g>
  <g stroke="chocolate" stroke-width="1">
    <line x1="291" y1="498" x2="291" y2="254"/>
    <circle cx="291" cy="498" r="2"/>
    <circle cx="291" cy="254" r="2"/>
  </g>
  <g stroke="chocolate" stroke-width="1">
    <line x1="312" y1="498" x2="312" y2="456"/>
    <circle cx="312" cy="498" r="2"/>
    <circle cx="312" cy="456" r="2"/>
  </g>
  <g stroke="chocolate" stroke-width="1">
    <line x1="353" y1="498" x2="353" y2="192"/>
    <circle cx="353" cy="498" r="2"/>
    <circle cx="353" cy="192" r="2"/>
  </g>
  <g stroke="chocolate" stroke-width="1">
    <line x1="505" y1="318" x2="505" y2="192"/>
    <circle cx="505" cy="318" r="2"/>
    <circle cx="505" cy="192" r="2"/>
  </g>
  <g stroke="chocolate" stroke-width="1">
    <line x1="270" y1="498" x2="353" y2="498"/>
    <circle cx="270" cy="498" r="2"/>
    <circle cx="353" cy="498" r="2"/>
  </g>
  <g stroke="chocolate" stroke-width="1">
    <line x1="288" y1="480" x2="312" y2="480"/>
    <circle cx="288" cy="480" r="2"/>
    <circle cx="312" cy="480" r="2"/>
  </g>
  <g stroke="chocolate" stroke-width="1">
    <line x1="290" y1="478" x2="312" y2="478"/>
    <circle cx="290" cy="478" r="2"/>
    <circle cx="312" cy="478" r="2"/>
  </g>
  <g stroke="chocolate" stroke-width="1">
    <line x1="291" y1="477" x2="312" y2="477"/>
    <circle cx="291" cy="477" r="2"/>
    <circle cx="312" cy="477" r="2"/>
  </g>
  <g stroke="chocolate" stroke-width="1">
    <line x1="228" y1="456" x2="353" y2="456"/>
    <circle cx="228" cy="456" r="2"/>
    <circle cx="353" cy="456" r="2"/>
  </g>
  <g stroke="chocolate" stroke-width="1">
    <line x1="270" y1="498" x2="228" y2="456"/>
    <circle cx="270" cy="498" r="2"/>
    <circle cx="228" cy="456" r="2"/>
  </g>
  <g stroke="chocolate" stroke-width="1">
    <line x1="228" y1="318" x2="505" y2="318"/>
    <circle cx="228" cy="318" r="2"/>
    <circle cx="505" cy="318" r="2"/>
  </g>
  <g stroke="chocolate" stroke-width="1">
    <line x1="288" y1="257" x2="505" y2="257"/>
    <circle cx="288" cy="257" r="2"/>
    <circle cx="505" cy="257" r="2"/>
  </g>
  <g stroke="chocolate" stroke-width="1">
    <line x1="290" y1="255" x2="505" y2="255"/>
    <circle cx="290" cy="255" r="2"/>
    <circle cx="505" cy="255" r="2"/>
  </g>
  <g stroke="chocolate" stroke-width="1">
    <line x1="291" y1="254" x2="505" y2="254"/>
    <circle cx="291" cy="254" r="2"/>
    <circle cx="505" cy="254" r="2"/>
  </g>
  <g stroke="chocolate" stroke-width="1">
    <line x1="353" y1="192" x2="505" y2="192"/>
    <circle cx="353" cy="192" r="2"/>
    <circle cx="505" cy="192" r="2"/>
  </g>
  <g stroke="black" stroke-width="1">
    <line x1="5" y1="5" x2="505" y2="5"/>
    <line x1="5" y1="5" x2="5" y2="505"/>
    <line x1="505" y1="505" x2="5" y2="505"/>
    <line x1="505" y1="505" x2="505" y2="5"/>
    <line x1="105" y1="2" x2="105" y2="8"/>
    <line x1="2" y1="105" x2="8" y2="105"/>
    <line x1="105" y1="502" x2="105" y2="508"/>
    <line x1="502" y1="105" x2="508" y2="105"/>
    <line x1="205" y1="2" x2="205" y2="8"/>
    <line x1="2" y1="205" x2="8" y2="205"/>
    <line x1="205" y1="502" x2="205" y2="508"/>
    <line x1="502" y1="205" x2="508" y2="205"/>
    <line x1="305" y1="2" x2="305" y2="8"/>
    <line x1="2" y1="305" x2="8" y2="305"/>
    <line x1="305" y1="502" x2="305" y2="508"/>
    <line x1="502" y1="305" x2="508" y2="305"/>
    <line x1="405" y1="2" x2="405" y2="8"/>
    <line x1="2" y1="405" x2="8" y2="405"/>
    <line x1="405" y1="502" x2="405" y2="508"/>
    <line x1="502" y1="405" x2="508" y2="405"/>
  </g>
  <g stroke="gray" stroke-width="1" stroke-dasharray="5,5">
    <line x1="105" y1="5" x2="105" y2="505"/>
    <line x1="5" y1="105" x2="505" y2="105"/>
    <line x1="205" y1="5" x2="205" y2="505"/>
    <line x1="5" y1="205" x2="505" y2="205"/>
    <line x1="305" y1="5" x2="305" y2="505"/>
    <line x1="5" y1="305" x2="505" y2="305"/>
    <line x1="405" y1="5" x2="405" y2="505"/>
    <line x1="5" y1="405" x2="505" y2="405"/>
  </g>
</svg>
