<?xml version="1.0" standalone="no"?>
<!DOCTYPE svg PUBLIC "-//W3C//DTD SVG 1.1//EN" 
  "http://www.w3.org/Graphics/SVG/1.1/DTD/svg11.dtd">
<svg width="510" height="510" version="1.1" id="toplevel"
    xmlns="http://www.w3.org/2000/svg"
    xmlns:xlink="http://www.w3.org/1999/xlink">
  <polygon points="482,505 505,505 5,5 5,28" fill="bisque"/>
  <g stroke="chocolate" stroke-width="1">
    <line x1="482" y1="505" x2="505" y2="505"/>
    <circle cx="482" cy="505" r="2"/>
    <circle cx="505" cy="505" r="2"/>
  </g>
  <g stroke="chocolate" stroke-width="1">
    <line x1="460" y1="482" x2="482" y2="482"/>
    <circle cx="460" cy="482" r="2"/>
    <circle cx="482" cy="482" r="2"/>
  </g>
  <g stroke="chocolate" stroke-width="1">
    <line x1="437" y1="460" x2="460" y2="460"/>
    <circle cx="437" cy="460" r="2"/>
    <circle cx="460" cy="460" r="2"/>
  </g>
  <g stroke="chocolate" stroke-width="1">
    <line x1="414" y1="437" x2="437" y2="437"/>
    <circle cx="414" cy="437" r="2"/>
    <circle cx="437" cy="437" r="2"/>
  </g>
  <g stroke="chocolate" stroke-width="1">
    <line x1="391" y1="414" x2="414" y2="414"/>
    <circle cx="391" cy="414" r="2"/>
    <circle cx="414" cy="414" r="2"/>
  </g>
  <g stroke="chocolate" stroke-width="1">
    <line x1="369" y1="391" x2="391" y2="391"/>
    <circle cx="369" cy="391" r="2"/>
    <circle cx="391" cy="391" r="2"/>
  </g>
  <g stroke="chocolate" stroke-width="1">
    <line x1="346" y1="369" x2="369" y2="369"/>
    <circle cx="346" cy="369" r="2"/>
    <circle cx="369" cy="369" r="2"/>
  </g>
  <g stroke="chocolate" stroke-width="1">
    <line x1="323" y1="346" x2="346" y2="346"/>
    <circle cx="323" cy="346" r="2"/>
    <circle cx="346" cy="346" r="2"/>
  </g>
  <g stroke="chocolate" stroke-width="1">
    <line x1="300" y1="323" x2="323" y2="323"/>
    <circle cx="300" cy="323" r="2"/>
    <circle cx="323" cy="323" r="2"/>
  </g>
  <g stroke="chocolate" stroke-width="1">
    <line x1="278" y1="300" x2="300" y2="300"/>
    <circle cx="278" cy="300" r="2"/>
    <circle cx="300" cy="300" r="2"/>
  </g>
  <g stroke="chocolate" stroke-width="1">
    <line x1="255" y1="278" x2="278" y2="278"/>
    <circle cx="255" cy="278" r="2"/>
    <circle cx="278" cy="278" r="2"/>
  </g>
  <g stroke="chocolate" stroke-width="1">
    <line x1="232" y1="255" x2="255" y2="255"/>
    <circle cx="232" cy="255" r="2"/>
    <circle cx="255" cy="255" r="2"/>
  </g>
  <g stroke="chocolate" stroke-width="1">
    <line x1="5" y1="28" x2="5" y2="5"/>
    <circle cx="5" cy="28" r="2"/>
    <circle cx="5" cy="5" r="2"/>
  </g>
  <g stroke="chocolate" stroke-width="1">
    <line x1="28" y1="50" x2="28" y2="28"/>
    <circle cx="28" cy="50" r="2"/>
    <circle cx="28" cy="28" r="2"/>
  </g>
  <g stroke="chocolate" stroke-width="1">
    <line x1="50" y1="73" x2="50" y2="50"/>
    <circle cx="50" cy="73" r="2"/>
    <circle cx="50" cy="50" r="2"/>
  </g>
  <g stroke="chocolate" stroke-width="1">
    <line x1="73" y1="96" x2="73" y2="73"/>
    <circle cx="73" cy="96" r="2"/>
    <circle cx="73" cy="73" r="2"/>
  </g>
  <g stroke="chocolate" stroke-width="1">
    <line x1="96" y1="119" x2="96" y2="96"/>
    <circle cx="96" cy="119" r="2"/>
    <circle cx="96" cy="96" r="2"/>
  </g>
  <g stroke="chocolate" stroke-width="1">
    <line x1="119" y1="141" x2="119" y2="119"/>
    <circle cx="119" cy="141" r="2"/>
    <circle cx="119" cy="119" r="2"/>
  </g>
  <g stroke="chocolate" stroke-width="1">
    <line x1="141" y1="164" x2="141" y2="141"/>
    <circle cx="141" cy="164" r="2"/>
    <circle cx="141" cy="141" r="2"/>
  </g>
  <g stroke="chocolate" stroke-width="1">
    <line x1="164" y1="187" x2="164" y2="164"/>
    <circle cx="164" cy="187" r="2"/>
    <circle cx="164" cy="164" r="2"/>
  </g>
  <g stroke="chocolate" stroke-width="1">
    <line x1="187" y1="210" x2="187" y2="187"/>
    <circle cx="187" cy="210" r="2"/>
    <circle cx="187" cy="187" r="2"/>
  </g>
  <g stroke="chocolate" stroke-width="1">
    <line x1="210" y1="232" x2="210" y2="210"/>
    <circle cx="210" cy="232" r="2"/>
    <circle cx="210" cy="210" r="2"/>
  </g>
  <g stroke="chocolate" stroke-width="1">
    <line x1="232" y1="255" x2="232" y2="232"/>
    <circle cx="232" cy="255" r="2"/>
    <circle cx="232" cy="232" r="2"/>
  </g>
  <g stroke="chocolate" stroke-width="1">
    <line x1="255" y1="278" x2="255" y2="255"/>
    <circle cx="255" cy="278" r="2"/>
    <circle cx="255" cy="255" r="2"/>
  </g>
  <g stroke="chocolate" stroke-width="1">
    <line x1="278" y1="300" x2="278" y2="278"/>
    <circle cx="278" cy="300" r="2"/>
    <circle cx="278" cy="278" r="2"/>
  </g>
  <g stroke="chocolate" stroke-width="1">
    <line x1="300" y1="323" x2="300" y2="300"/>
    <circle cx="300" cy="323" r="2"/>
    <circle cx="300" cy="300" r="2"/>
  </g>
  <g stroke="chocolate" stroke-width="1">
    <line x1="323" y1="346" x2="323" y2="323"/>
    <circle cx="323" cy="346" r="2"/>
    <circle cx="323" cy="323" r="2"/>
  </g>
  <g stroke="chocolate" stroke-width="1">
    <line x1="346" y1="369" x2="346" y2="346"/>
    <circle cx="346" cy="369" r="2"/>
    <circle cx="346" cy="346" r="2"/>
  </g>
  <g stroke="chocolate" stroke-width="1">
    <line x1="369" y1="391" x2="369" y2="369"/>
    <circle cx="369" cy="391" r="2"/>
    <circle cx="369" cy="369" r="2"/>
  </g>
  <g stroke="chocolate" stroke-width="1">
    <line x1="391" y1="414" x2="391" y2="391"/>
    <circle cx="391" cy="414" r="2"/>
    <circle cx="391" cy="391" r="2"/>
  </g>
  <g stroke="chocolate" stroke-width="1">
    <line x1="414" y1="437" x2="414" y2="414"/>
    <circle cx="414" cy="437" r="2"/>
    <circle cx="414" cy="414" r="2"/>
  </g>
  <g stroke="chocolate" stroke-width="1">
    <line x1="437" y1="460" x2="437" y2="437"/>
    <circle cx="437" cy="460" r="2"/>
    <circle cx="437" cy="437" r="2"/>
  </g>
  <g stroke="chocolate" stroke-width="1">
    <line x1="460" y1="482" x2="460" y2="460"/>
    <circle cx="460" cy="482" r="2"/>
    <circle cx="460" cy="460" r="2"/>
  </g>
  <g stroke="chocolate" stroke-width="1">
    <line x1="482" y1="505" x2="482" y2="482"/>
    <circle cx="482" cy="505" r="2"/>
    <circle cx="482" cy="482" r="2"/>
  </g>
  <g stroke="chocolate" stroke-width="1">
    <line x1="210" y1="232" x2="232" y2="232"/>
    <circle cx="210" cy="232" r="2"/>
    <circle cx="232" cy="232" r="2"/>
  </g>
  <g stroke="chocolate" stroke-width="1">
    <line x1="187" y1="210" x2="210" y2="210"/>
    <circle cx="187" cy="210" r="2"/>
    <circle cx="210" cy="210" r="2"/>
  </g>
  <g stroke="chocolate" stroke-width="1">
    <line x1="164" y1="187" x2="187" y2="187"/>
    <circle cx="164" cy="187" r="2"/>
    <circle cx="187" cy="187" r="2"/>
  </g>
  <g stroke="chocolate" stroke-width="1">
    <line x1="141" y1="164" x2="164" y2="164"/>
    <circle cx="141" cy="164" r="2"/>
    <circle cx="164" cy="164" r="2"/>
  </g>
  <g stroke="chocolate" stroke-width="1">
    <line x1="119" y1="141" x2="141" y2="141"/>
    <circle cx="119" cy="141" r="2"/>
    <circle cx="141" cy="141" r="2"/>
  </g>
  <g stroke="chocolate" stroke-width="1">
    <line x1="96" y1="119" x2="119" y2="119"/>
    <circle cx="96" cy="119" r="2"/>
    <circle cx="119" cy="119" r="2"/>
  </g>
  <g stroke="chocolate" stroke-width="1">
    <line x1="73" y1="96" x2="96" y2="96"/>
    <circle cx="73" cy="96" r="2"/>
    <circle cx="96" cy="96" r="2"/>
  </g>
  <g stroke="chocolate" stroke-width="1">
    <line x1="50" y1="73" x2="73" y2="73"/>
    <circle cx="50" cy="73" r="2"/>
    <circle cx="73" cy="73" r="2"/>
  </g>
  <g stroke="chocolate" stroke-width="1">
    <line x1="28" y1="50" x2="50" y2="50"/>
    <circle cx="28" cy="50" r="2"/>
    <circle cx="50" cy="50" r="2"/>
  </g>
  <g stroke="chocolate" stroke-width="1">
    <line x1="5" y1="28" x2="28" y2="28"/>
    <circle cx="5" cy="28" r="2"/>
    <circle cx="28" cy="28" r="2"/>
  </g>
  <g stroke="chocolate" stroke-width="1">
    <line x1="482" y1="505" x2="5" y2="28"/>
    <circle cx="482" cy="505" r="2"/>
    <circle cx="5" cy="28" r="2"/>
  </g>
  <g stroke="chocolate" stroke-width="1">
    <line x1="505" y1="505" x2="5" y2="5"/>
    <circle cx="505" cy="505" r="2"/>
    <circle cx="5" cy="5" r="2"/>
  </g>
  <g stroke="black" stroke-width="1">
    <line x1="5" y1="5" x2="505" y2="5"/>
    <line x1="5" y1="5" x2="5" y2="505"/>
    <line x1="505" y1="505" x2="5" y2="505"/>
    <line x1="505" y1="505" x2="505" y2="5"/>
    <line x1="105" y1="2" x2="105" y2="8"/>
    <line x1="2" y1="105" x2="8" y2="105"/>
    <line x1="105" y1="502" x2="105" y2="508"/>
    <line x1="502" y1="105" x2="508" y2="105"/>
    <line x1="205" y1="2" x2="205" y2="8"/>
    <line x1="2" y1="205" x2="8" y2="205"/>
    <line x1="205" y1="502" x2="205" y2="508"/>
    <line x1="502" y1="205" x2="508" y2="205"/>
    <line x1="305" y1="2" x2="305" y2="8"/>
    <line x1="2" y1="305" x2="8" y2="305"/>
    <line x1="305" y1="502" x2="305" y2="508"/>
    <line x1="502" y1="305" x2="508" y2="305"/>
    <line x1="405" y1="2" x2="405" y2="8"/>
    <line x1="2" y1="405" x2="8" y2="405"/>
    <line x1="405" y1="502" x2="405" y2="508"/>
    <line x1="502" y1="405" x2="508" y2="405"/>
  </g>
  <g stroke="gray" stroke-width="1" stroke-dasharray="5,5">
    <line x1="105" y1="5" x2="105" y2="505"/>
    <line x1="5" y1="105" x2="505" y2="105"/>
    <line x1="205" y1="5" x2="205" y2="505"/>
    <line x1="5" y1="205" x2="505" y2="205"/>
    <line x1="305" y1="5" x2="305" y2="505"/>
    <line x1="5" y1="305" x2="505" y2="305"/>
    <line x1="405" y1="5" x2="405" y2="505"/>
    <line x1="5" y1="405" x2="505" y2="405"/>
  </g>
</svg>
