<?xml version="1.0" standalone="no"?>
<!DOCTYPE svg PUBLIC "-//W3C//DTD SVG 1.1//EN" 
  "http://www.w3.org/Graphics/SVG/1.1/DTD/svg11.dtd">
<svg width="510" height="510" version="1.1" id="toplevel"
    xmlns="http://www.w3.org/2000/svg"
    xmlns:xlink="http://www.w3.org/1999/xlink">
  <polygon points="484,505 505,505 5,5 5,26" fill="bisque"/>
  <g stroke="chocolate" stroke-width="1">
    <line x1="484" y1="505" x2="505" y2="505"/>
    <circle cx="484" cy="505" r="2"/>
    <circle cx="505" cy="505" r="2"/>
  </g>
  <g stroke="chocolate" stroke-width="1">
    <line x1="463" y1="484" x2="484" y2="484"/>
    <circle cx="463" cy="484" r="2"/>
    <circle cx="484" cy="484" r="2"/>
  </g>
  <g stroke="chocolate" stroke-width="1">
    <line x1="442" y1="463" x2="463" y2="463"/>
    <circle cx="442" cy="463" r="2"/>
    <circle cx="463" cy="463" r="2"/>
  </g>
  <g stroke="chocolate" stroke-width="1">
    <line x1="422" y1="442" x2="442" y2="442"/>
    <circle cx="422" cy="442" r="2"/>
    <circle cx="442" cy="442" r="2"/>
  </g>
  <g stroke="chocolate" stroke-width="1">
    <line x1="401" y1="422" x2="422" y2="422"/>
    <circle cx="401" cy="422" r="2"/>
    <circle cx="422" cy="422" r="2"/>
  </g>
  <g stroke="chocolate" stroke-width="1">
    <line x1="380" y1="401" x2="401" y2="401"/>
    <circle cx="380" cy="401" r="2"/>
    <circle cx="401" cy="401" r="2"/>
  </g>
  <g stroke="chocolate" stroke-width="1">
    <line x1="359" y1="380" x2="380" y2="380"/>
    <circle cx="359" cy="380" r="2"/>
    <circle cx="380" cy="380" r="2"/>
  </g>
  <g stroke="chocolate" stroke-width="1">
    <line x1="338" y1="359" x2="359" y2="359"/>
    <circle cx="338" cy="359" r="2"/>
    <circle cx="359" cy="359" r="2"/>
  </g>
  <g stroke="chocolate" stroke-width="1">
    <line x1="318" y1="338" x2="338" y2="338"/>
    <circle cx="318" cy="338" r="2"/>
    <circle cx="338" cy="338" r="2"/>
  </g>
  <g stroke="chocolate" stroke-width="1">
    <line x1="297" y1="318" x2="318" y2="318"/>
    <circle cx="297" cy="318" r="2"/>
    <circle cx="318" cy="318" r="2"/>
  </g>
  <g stroke="chocolate" stroke-width="1">
    <line x1="276" y1="297" x2="297" y2="297"/>
    <circle cx="276" cy="297" r="2"/>
    <circle cx="297" cy="297" r="2"/>
  </g>
  <g stroke="chocolate" stroke-width="1">
    <line x1="255" y1="276" x2="276" y2="276"/>
    <circle cx="255" cy="276" r="2"/>
    <circle cx="276" cy="276" r="2"/>
  </g>
  <g stroke="chocolate" stroke-width="1">
    <line x1="234" y1="255" x2="255" y2="255"/>
    <circle cx="234" cy="255" r="2"/>
    <circle cx="255" cy="255" r="2"/>
  </g>
  <g stroke="chocolate" stroke-width="1">
    <line x1="5" y1="26" x2="5" y2="5"/>
    <circle cx="5" cy="26" r="2"/>
    <circle cx="5" cy="5" r="2"/>
  </g>
  <g stroke="chocolate" stroke-width="1">
    <line x1="26" y1="47" x2="26" y2="26"/>
    <circle cx="26" cy="47" r="2"/>
    <circle cx="26" cy="26" r="2"/>
  </g>
  <g stroke="chocolate" stroke-width="1">
    <line x1="47" y1="68" x2="47" y2="47"/>
    <circle cx="47" cy="68" r="2"/>
    <circle cx="47" cy="47" r="2"/>
  </g>
  <g stroke="chocolate" stroke-width="1">
    <line x1="68" y1="88" x2="68" y2="68"/>
    <circle cx="68" cy="88" r="2"/>
    <circle cx="68" cy="68" r="2"/>
  </g>
  <g stroke="chocolate" stroke-width="1">
    <line x1="88" y1="109" x2="88" y2="88"/>
    <circle cx="88" cy="109" r="2"/>
    <circle cx="88" cy="88" r="2"/>
  </g>
  <g stroke="chocolate" stroke-width="1">
    <line x1="109" y1="130" x2="109" y2="109"/>
    <circle cx="109" cy="130" r="2"/>
    <circle cx="109" cy="109" r="2"/>
  </g>
  <g stroke="chocolate" stroke-width="1">
    <line x1="130" y1="151" x2="130" y2="130"/>
    <circle cx="130" cy="151" r="2"/>
    <circle cx="130" cy="130" r="2"/>
  </g>
  <g stroke="chocolate" stroke-width="1">
    <line x1="151" y1="172" x2="151" y2="151"/>
    <circle cx="151" cy="172" r="2"/>
    <circle cx="151" cy="151" r="2"/>
  </g>
  <g stroke="chocolate" stroke-width="1">
    <line x1="172" y1="192" x2="172" y2="172"/>
    <circle cx="172" cy="192" r="2"/>
    <circle cx="172" cy="172" r="2"/>
  </g>
  <g stroke="chocolate" stroke-width="1">
    <line x1="192" y1="213" x2="192" y2="192"/>
    <circle cx="192" cy="213" r="2"/>
    <circle cx="192" cy="192" r="2"/>
  </g>
  <g stroke="chocolate" stroke-width="1">
    <line x1="213" y1="234" x2="213" y2="213"/>
    <circle cx="213" cy="234" r="2"/>
    <circle cx="213" cy="213" r="2"/>
  </g>
  <g stroke="chocolate" stroke-width="1">
    <line x1="234" y1="255" x2="234" y2="234"/>
    <circle cx="234" cy="255" r="2"/>
    <circle cx="234" cy="234" r="2"/>
  </g>
  <g stroke="chocolate" stroke-width="1">
    <line x1="255" y1="276" x2="255" y2="255"/>
    <circle cx="255" cy="276" r="2"/>
    <circle cx="255" cy="255" r="2"/>
  </g>
  <g stroke="chocolate" stroke-width="1">
    <line x1="276" y1="297" x2="276" y2="276"/>
    <circle cx="276" cy="297" r="2"/>
    <circle cx="276" cy="276" r="2"/>
  </g>
  <g stroke="chocolate" stroke-width="1">
    <line x1="297" y1="318" x2="297" y2="297"/>
    <circle cx="297" cy="318" r="2"/>
    <circle cx="297" cy="297" r="2"/>
  </g>
  <g stroke="chocolate" stroke-width="1">
    <line x1="318" y1="338" x2="318" y2="318"/>
    <circle cx="318" cy="338" r="2"/>
    <circle cx="318" cy="318" r="2"/>
  </g>
  <g stroke="chocolate" stroke-width="1">
    <line x1="338" y1="359" x2="338" y2="338"/>
    <circle cx="338" cy="359" r="2"/>
    <circle cx="338" cy="338" r="2"/>
  </g>
  <g stroke="chocolate" stroke-width="1">
    <line x1="359" y1="380" x2="359" y2="359"/>
    <circle cx="359" cy="380" r="2"/>
    <circle cx="359" cy="359" r="2"/>
  </g>
  <g stroke="chocolate" stroke-width="1">
    <line x1="380" y1="401" x2="380" y2="380"/>
    <circle cx="380" cy="401" r="2"/>
    <circle cx="380" cy="380" r="2"/>
  </g>
  <g stroke="chocolate" stroke-width="1">
    <line x1="401" y1="422" x2="401" y2="401"/>
    <circle cx="401" cy="422" r="2"/>
    <circle cx="401" cy="401" r="2"/>
  </g>
  <g stroke="chocolate" stroke-width="1">
    <line x1="422" y1="442" x2="422" y2="422"/>
    <circle cx="422" cy="442" r="2"/>
    <circle cx="422" cy="422" r="2"/>
  </g>
  <g stroke="chocolate" stroke-width="1">
    <line x1="442" y1="463" x2="442" y2="442"/>
    <circle cx="442" cy="463" r="2"/>
    <circle cx="442" cy="442" r="2"/>
  </g>
  <g stroke="chocolate" stroke-width="1">
    <line x1="463" y1="484" x2="463" y2="463"/>
    <circle cx="463" cy="484" r="2"/>
    <circle cx="463" cy="463" r="2"/>
  </g>
  <g stroke="chocolate" stroke-width="1">
    <line x1="484" y1="505" x2="484" y2="484"/>
    <circle cx="484" cy="505" r="2"/>
    <circle cx="484" cy="484" r="2"/>
  </g>
  <g stroke="chocolate" stroke-width="1">
    <line x1="213" y1="234" x2="234" y2="234"/>
    <circle cx="213" cy="234" r="2"/>
    <circle cx="234" cy="234" r="2"/>
  </g>
  <g stroke="chocolate" stroke-width="1">
    <line x1="192" y1="213" x2="213" y2="213"/>
    <circle cx="192" cy="213" r="2"/>
    <circle cx="213" cy="213" r="2"/>
  </g>
  <g stroke="chocolate" stroke-width="1">
    <line x1="172" y1="192" x2="192" y2="192"/>
    <circle cx="172" cy="192" r="2"/>
    <circle cx="192" cy="192" r="2"/>
  </g>
  <g stroke="chocolate" stroke-width="1">
    <line x1="151" y1="172" x2="172" y2="172"/>
    <circle cx="151" cy="172" r="2"/>
    <circle cx="172" cy="172" r="2"/>
  </g>
  <g stroke="chocolate" stroke-width="1">
    <line x1="130" y1="151" x2="151" y2="151"/>
    <circle cx="130" cy="151" r="2"/>
    <circle cx="151" cy="151" r="2"/>
  </g>
  <g stroke="chocolate" stroke-width="1">
    <line x1="109" y1="130" x2="130" y2="130"/>
    <circle cx="109" cy="130" r="2"/>
    <circle cx="130" cy="130" r="2"/>
  </g>
  <g stroke="chocolate" stroke-width="1">
    <line x1="88" y1="109" x2="109" y2="109"/>
    <circle cx="88" cy="109" r="2"/>
    <circle cx="109" cy="109" r="2"/>
  </g>
  <g stroke="chocolate" stroke-width="1">
    <line x1="68" y1="88" x2="88" y2="88"/>
    <circle cx="68" cy="88" r="2"/>
    <circle cx="88" cy="88" r="2"/>
  </g>
  <g stroke="chocolate" stroke-width="1">
    <line x1="47" y1="68" x2="68" y2="68"/>
    <circle cx="47" cy="68" r="2"/>
    <circle cx="68" cy="68" r="2"/>
  </g>
  <g stroke="chocolate" stroke-width="1">
    <line x1="26" y1="47" x2="47" y2="47"/>
    <circle cx="26" cy="47" r="2"/>
    <circle cx="47" cy="47" r="2"/>
  </g>
  <g stroke="chocolate" stroke-width="1">
    <line x1="5" y1="26" x2="26" y2="26"/>
    <circle cx="5" cy="26" r="2"/>
    <circle cx="26" cy="26" r="2"/>
  </g>
  <g stroke="chocolate" stroke-width="1">
    <line x1="484" y1="505" x2="5" y2="26"/>
    <circle cx="484" cy="505" r="2"/>
    <circle cx="5" cy="26" r="2"/>
  </g>
  <g stroke="chocolate" stroke-width="1">
    <line x1="505" y1="505" x2="5" y2="5"/>
    <circle cx="505" cy="505" r="2"/>
    <circle cx="5" cy="5" r="2"/>
  </g>
  <g stroke="black" stroke-width="1">
    <line x1="5" y1="5" x2="505" y2="5"/>
    <line x1="5" y1="5" x2="5" y2="505"/>
    <line x1="505" y1="505" x2="5" y2="505"/>
    <line x1="505" y1="505" x2="505" y2="5"/>
    <line x1="105" y1="2" x2="105" y2="8"/>
    <line x1="2" y1="105" x2="8" y2="105"/>
    <line x1="105" y1="502" x2="105" y2="508"/>
    <line x1="502" y1="105" x2="508" y2="105"/>
    <line x1="205" y1="2" x2="205" y2="8"/>
    <line x1="2" y1="205" x2="8" y2="205"/>
    <line x1="205" y1="502" x2="205" y2="508"/>
    <line x1="502" y1="205" x2="508" y2="205"/>
    <line x1="305" y1="2" x2="305" y2="8"/>
    <line x1="2" y1="305" x2="8" y2="305"/>
    <line x1="305" y1="502" x2="305" y2="508"/>
    <line x1="502" y1="305" x2="508" y2="305"/>
    <line x1="405" y1="2" x2="405" y2="8"/>
    <line x1="2" y1="405" x2="8" y2="405"/>
    <line x1="405" y1="502" x2="405" y2="508"/>
    <line x1="502" y1="405" x2="508" y2="405"/>
  </g>
  <g stroke="gray" stroke-width="1" stroke-dasharray="5,5">
    <line x1="105" y1="5" x2="105" y2="505"/>
    <line x1="5" y1="105" x2="505" y2="105"/>
    <line x1="205" y1="5" x2="205" y2="505"/>
    <line x1="5" y1="205" x2="505" y2="205"/>
    <line x1="305" y1="5" x2="305" y2="505"/>
    <line x1="5" y1="305" x2="505" y2="305"/>
    <line x1="405" y1="5" x2="405" y2="505"/>
    <line x1="5" y1="405" x2="505" y2="405"/>
  </g>
</svg>
