<?xml version="1.0" standalone="no"?>
<!DOCTYPE svg PUBLIC "-//W3C//DTD SVG 1.1//EN" 
  "http://www.w3.org/Graphics/SVG/1.1/DTD/svg11.dtd">
<svg width="510" height="510" version="1.1" id="toplevel"
    xmlns="http://www.w3.org/2000/svg"
    xmlns:xlink="http://www.w3.org/1999/xlink">
  <polygon points="153,505 206,505 269,442 269,355 206,292 120,292 120,355 206,355 206,442 153,442 153,357 91,357 91,442"
           fill="bisque"/>
  <g stroke="chocolate" stroke-width="1">
    <line x1="206" y1="505" x2="269" y2="442"/>
    <circle cx="206" cy="505" r="2"/>
    <circle cx="269" cy="442" r="2"/>
  </g>
  <g stroke="chocolate" stroke-width="1">
    <line x1="153" y1="505" x2="206" y2="505"/>
    <circle cx="153" cy="505" r="2"/>
    <circle cx="206" cy="505" r="2"/>
  </g>
  <g stroke="chocolate" stroke-width="1">
    <line x1="91" y1="442" x2="91" y2="357"/>
    <circle cx="91" cy="442" r="2"/>
    <circle cx="91" cy="357" r="2"/>
  </g>
  <g stroke="chocolate" stroke-width="1">
    <line x1="120" y1="355" x2="120" y2="292"/>
    <circle cx="120" cy="355" r="2"/>
    <circle cx="120" cy="292" r="2"/>
  </g>
  <g stroke="chocolate" stroke-width="1">
    <line x1="153" y1="505" x2="153" y2="357"/>
    <circle cx="153" cy="505" r="2"/>
    <circle cx="153" cy="357" r="2"/>
  </g>
  <g stroke="chocolate" stroke-width="1">
    <line x1="206" y1="505" x2="206" y2="292"/>
    <circle cx="206" cy="505" r="2"/>
    <circle cx="206" cy="292" r="2"/>
  </g>
  <g stroke="chocolate" stroke-width="1">
    <line x1="269" y1="442" x2="269" y2="355"/>
    <circle cx="269" cy="442" r="2"/>
    <circle cx="269" cy="355" r="2"/>
  </g>
  <g stroke="chocolate" stroke-width="1">
    <line x1="91" y1="442" x2="269" y2="442"/>
    <circle cx="91" cy="442" r="2"/>
    <circle cx="269" cy="442" r="2"/>
  </g>
  <g stroke="chocolate" stroke-width="1">
    <line x1="153" y1="505" x2="91" y2="442"/>
    <circle cx="153" cy="505" r="2"/>
    <circle cx="91" cy="442" r="2"/>
  </g>
  <g stroke="chocolate" stroke-width="1">
    <line x1="91" y1="357" x2="153" y2="357"/>
    <circle cx="91" cy="357" r="2"/>
    <circle cx="153" cy="357" r="2"/>
  </g>
  <g stroke="chocolate" stroke-width="1">
    <line x1="120" y1="355" x2="269" y2="355"/>
    <circle cx="120" cy="355" r="2"/>
    <circle cx="269" cy="355" r="2"/>
  </g>
  <g stroke="chocolate" stroke-width="1">
    <line x1="269" y1="355" x2="206" y2="292"/>
    <circle cx="269" cy="355" r="2"/>
    <circle cx="206" cy="292" r="2"/>
  </g>
  <g stroke="chocolate" stroke-width="1">
    <line x1="120" y1="292" x2="206" y2="292"/>
    <circle cx="120" cy="292" r="2"/>
    <circle cx="206" cy="292" r="2"/>
  </g>
  <g stroke="black" stroke-width="1">
    <line x1="5" y1="5" x2="505" y2="5"/>
    <line x1="5" y1="5" x2="5" y2="505"/>
    <line x1="505" y1="505" x2="5" y2="505"/>
    <line x1="505" y1="505" x2="505" y2="5"/>
    <line x1="105" y1="2" x2="105" y2="8"/>
    <line x1="2" y1="105" x2="8" y2="105"/>
    <line x1="105" y1="502" x2="105" y2="508"/>
    <line x1="502" y1="105" x2="508" y2="105"/>
    <line x1="205" y1="2" x2="205" y2="8"/>
    <line x1="2" y1="205" x2="8" y2="205"/>
    <line x1="205" y1="502" x2="205" y2="508"/>
    <line x1="502" y1="205" x2="508" y2="205"/>
    <line x1="305" y1="2" x2="305" y2="8"/>
    <line x1="2" y1="305" x2="8" y2="305"/>
    <line x1="305" y1="502" x2="305" y2="508"/>
    <line x1="502" y1="305" x2="508" y2="305"/>
    <line x1="405" y1="2" x2="405" y2="8"/>
    <line x1="2" y1="405" x2="8" y2="405"/>
    <line x1="405" y1="502" x2="405" y2="508"/>
    <line x1="502" y1="405" x2="508" y2="405"/>
  </g>
  <g stroke="gray" stroke-width="1" stroke-dasharray="5,5">
    <line x1="105" y1="5" x2="105" y2="505"/>
    <line x1="5" y1="105" x2="505" y2="105"/>
    <line x1="205" y1="5" x2="205" y2="505"/>
    <line x1="5" y1="205" x2="505" y2="205"/>
    <line x1="305" y1="5" x2="305" y2="505"/>
    <line x1="5" y1="305" x2="505" y2="305"/>
    <line x1="405" y1="5" x2="405" y2="505"/>
    <line x1="5" y1="405" x2="505" y2="405"/>
  </g>
</svg>
