<?xml version="1.0" standalone="no"?>
<!DOCTYPE svg PUBLIC "-//W3C//DTD SVG 1.1//EN" 
  "http://www.w3.org/Graphics/SVG/1.1/DTD/svg11.dtd">
<svg width="510" height="510" version="1.1" id="toplevel"
    xmlns="http://www.w3.org/2000/svg"
    xmlns:xlink="http://www.w3.org/1999/xlink">
  <polygon points="417,492 432,488 336,53 92,18 78,46 102,78 108,111 125,108 365,423 356,466 406,476 416,490"
           fill="bisque"/>
  <g stroke="chocolate" stroke-width="1">
    <line x1="417" y1="491" x2="428" y2="468"/>
    <circle cx="417" cy="491" r="2"/>
    <circle cx="428" cy="468" r="2"/>
  </g>
  <g stroke="chocolate" stroke-width="1">
    <line x1="417" y1="492" x2="431" y2="481"/>
    <circle cx="417" cy="492" r="2"/>
    <circle cx="431" cy="481" r="2"/>
  </g>
  <g stroke="chocolate" stroke-width="1">
    <line x1="356" y1="466" x2="391" y2="300"/>
    <circle cx="356" cy="466" r="2"/>
    <circle cx="391" cy="300" r="2"/>
  </g>
  <g stroke="chocolate" stroke-width="1">
    <line x1="303" y1="183" x2="351" y2="122"/>
    <circle cx="303" cy="183" r="2"/>
    <circle cx="351" cy="122" r="2"/>
  </g>
  <g stroke="chocolate" stroke-width="1">
    <line x1="392" y1="439" x2="392" y2="307"/>
    <circle cx="392" cy="439" r="2"/>
    <circle cx="392" cy="307" r="2"/>
  </g>
  <g stroke="chocolate" stroke-width="1">
    <line x1="417" y1="492" x2="432" y2="488"/>
    <circle cx="417" cy="492" r="2"/>
    <circle cx="432" cy="488" r="2"/>
  </g>
  <g stroke="chocolate" stroke-width="1">
    <line x1="247" y1="135" x2="288" y2="84"/>
    <circle cx="247" cy="135" r="2"/>
    <circle cx="288" cy="84" r="2"/>
  </g>
  <g stroke="chocolate" stroke-width="1">
    <line x1="78" y1="46" x2="92" y2="18"/>
    <circle cx="78" cy="46" r="2"/>
    <circle cx="92" cy="18" r="2"/>
  </g>
  <g stroke="chocolate" stroke-width="1">
    <line x1="417" y1="491" x2="432" y2="488"/>
    <circle cx="417" cy="491" r="2"/>
    <circle cx="432" cy="488" r="2"/>
  </g>
  <g stroke="chocolate" stroke-width="1">
    <line x1="108" y1="111" x2="92" y2="18"/>
    <circle cx="108" cy="111" r="2"/>
    <circle cx="92" cy="18" r="2"/>
  </g>
  <g stroke="chocolate" stroke-width="1">
    <line x1="432" y1="488" x2="336" y2="53"/>
    <circle cx="432" cy="488" r="2"/>
    <circle cx="336" cy="53" r="2"/>
  </g>
  <g stroke="chocolate" stroke-width="1">
    <line x1="238" y1="117" x2="336" y2="53"/>
    <circle cx="238" cy="117" r="2"/>
    <circle cx="336" cy="53" r="2"/>
  </g>
  <g stroke="chocolate" stroke-width="1">
    <line x1="417" y1="492" x2="238" y2="117"/>
    <circle cx="417" cy="492" r="2"/>
    <circle cx="238" cy="117" r="2"/>
  </g>
  <g stroke="chocolate" stroke-width="1">
    <line x1="320" y1="152" x2="354" y2="135"/>
    <circle cx="320" cy="152" r="2"/>
    <circle cx="354" cy="135" r="2"/>
  </g>
  <g stroke="chocolate" stroke-width="1">
    <line x1="392" y1="307" x2="320" y2="152"/>
    <circle cx="392" cy="307" r="2"/>
    <circle cx="320" cy="152" r="2"/>
  </g>
  <g stroke="chocolate" stroke-width="1">
    <line x1="431" y1="481" x2="356" y2="466"/>
    <circle cx="431" cy="481" r="2"/>
    <circle cx="356" cy="466" r="2"/>
  </g>
  <g stroke="chocolate" stroke-width="1">
    <line x1="278" y1="164" x2="248" y2="110"/>
    <circle cx="278" cy="164" r="2"/>
    <circle cx="248" cy="110" r="2"/>
  </g>
  <g stroke="chocolate" stroke-width="1">
    <line x1="417" y1="491" x2="78" y2="46"/>
    <circle cx="417" cy="491" r="2"/>
    <circle cx="78" cy="46" r="2"/>
  </g>
  <g stroke="chocolate" stroke-width="1">
    <line x1="391" y1="300" x2="248" y2="110"/>
    <circle cx="391" cy="300" r="2"/>
    <circle cx="248" cy="110" r="2"/>
  </g>
  <g stroke="chocolate" stroke-width="1">
    <line x1="428" y1="468" x2="392" y2="439"/>
    <circle cx="428" cy="468" r="2"/>
    <circle cx="392" cy="439" r="2"/>
  </g>
  <g stroke="chocolate" stroke-width="1">
    <line x1="278" y1="164" x2="238" y2="117"/>
    <circle cx="278" cy="164" r="2"/>
    <circle cx="238" cy="117" r="2"/>
  </g>
  <g stroke="chocolate" stroke-width="1">
    <line x1="288" y1="84" x2="339" y2="70"/>
    <circle cx="288" cy="84" r="2"/>
    <circle cx="339" cy="70" r="2"/>
  </g>
  <g stroke="chocolate" stroke-width="1">
    <line x1="108" y1="111" x2="339" y2="70"/>
    <circle cx="108" cy="111" r="2"/>
    <circle cx="339" cy="70" r="2"/>
  </g>
  <g stroke="chocolate" stroke-width="1">
    <line x1="303" y1="183" x2="278" y2="164"/>
    <circle cx="303" cy="183" r="2"/>
    <circle cx="278" cy="164" r="2"/>
  </g>
  <g stroke="chocolate" stroke-width="1">
    <line x1="247" y1="135" x2="354" y2="135"/>
    <circle cx="247" cy="135" r="2"/>
    <circle cx="354" cy="135" r="2"/>
  </g>
  <g stroke="chocolate" stroke-width="1">
    <line x1="78" y1="46" x2="168" y2="29"/>
    <circle cx="78" cy="46" r="2"/>
    <circle cx="168" cy="29" r="2"/>
  </g>
  <g stroke="chocolate" stroke-width="1">
    <line x1="351" y1="122" x2="168" y2="29"/>
    <circle cx="351" cy="122" r="2"/>
    <circle cx="168" cy="29" r="2"/>
  </g>
  <g stroke="chocolate" stroke-width="1">
    <line x1="336" y1="53" x2="92" y2="18"/>
    <circle cx="336" cy="53" r="2"/>
    <circle cx="92" cy="18" r="2"/>
  </g>
  <g stroke="black" stroke-width="1">
    <line x1="5" y1="5" x2="505" y2="5"/>
    <line x1="5" y1="5" x2="5" y2="505"/>
    <line x1="505" y1="505" x2="5" y2="505"/>
    <line x1="505" y1="505" x2="505" y2="5"/>
    <line x1="105" y1="2" x2="105" y2="8"/>
    <line x1="2" y1="105" x2="8" y2="105"/>
    <line x1="105" y1="502" x2="105" y2="508"/>
    <line x1="502" y1="105" x2="508" y2="105"/>
    <line x1="205" y1="2" x2="205" y2="8"/>
    <line x1="2" y1="205" x2="8" y2="205"/>
    <line x1="205" y1="502" x2="205" y2="508"/>
    <line x1="502" y1="205" x2="508" y2="205"/>
    <line x1="305" y1="2" x2="305" y2="8"/>
    <line x1="2" y1="305" x2="8" y2="305"/>
    <line x1="305" y1="502" x2="305" y2="508"/>
    <line x1="502" y1="305" x2="508" y2="305"/>
    <line x1="405" y1="2" x2="405" y2="8"/>
    <line x1="2" y1="405" x2="8" y2="405"/>
    <line x1="405" y1="502" x2="405" y2="508"/>
    <line x1="502" y1="405" x2="508" y2="405"/>
  </g>
  <g stroke="gray" stroke-width="1" stroke-dasharray="5,5">
    <line x1="105" y1="5" x2="105" y2="505"/>
    <line x1="5" y1="105" x2="505" y2="105"/>
    <line x1="205" y1="5" x2="205" y2="505"/>
    <line x1="5" y1="205" x2="505" y2="205"/>
    <line x1="305" y1="5" x2="305" y2="505"/>
    <line x1="5" y1="305" x2="505" y2="305"/>
    <line x1="405" y1="5" x2="405" y2="505"/>
    <line x1="5" y1="405" x2="505" y2="405"/>
  </g>
</svg>
