<?xml version="1.0" standalone="no"?>
<!DOCTYPE svg PUBLIC "-//W3C//DTD SVG 1.1//EN" 
  "http://www.w3.org/Graphics/SVG/1.1/DTD/svg11.dtd">
<svg width="518" height="518" version="1.1" id="toplevel"
    xmlns="http://www.w3.org/2000/svg"
    xmlns:xlink="http://www.w3.org/1999/xlink">
  <polygon points="440,506 450,475 445,474 513,45 307,12 5,235 12,264 61,270 429,504"
           fill="bisque"/>
  <g stroke="chocolate" stroke-width="1">
    <line x1="440" y1="506" x2="450" y2="475"/>
    <circle cx="440" cy="506" r="2"/>
    <circle cx="450" cy="475" r="2"/>
  </g>
  <g stroke="chocolate" stroke-width="1">
    <line x1="12" y1="264" x2="150" y2="154"/>
    <circle cx="12" cy="264" r="2"/>
    <circle cx="150" cy="154" r="2"/>
  </g>
  <g stroke="chocolate" stroke-width="1">
    <line x1="5" y1="235" x2="307" y2="12"/>
    <circle cx="5" cy="235" r="2"/>
    <circle cx="307" cy="12" r="2"/>
  </g>
  <g stroke="chocolate" stroke-width="1">
    <line x1="91" y1="189" x2="150" y2="154"/>
    <circle cx="91" cy="189" r="2"/>
    <circle cx="150" cy="154" r="2"/>
  </g>
  <g stroke="chocolate" stroke-width="1">
    <line x1="440" y1="506" x2="513" y2="45"/>
    <circle cx="440" cy="506" r="2"/>
    <circle cx="513" cy="45" r="2"/>
  </g>
  <g stroke="chocolate" stroke-width="1">
    <line x1="266" y1="300" x2="307" y2="12"/>
    <circle cx="266" cy="300" r="2"/>
    <circle cx="307" cy="12" r="2"/>
  </g>
  <g stroke="chocolate" stroke-width="1">
    <line x1="440" y1="506" x2="429" y2="504"/>
    <circle cx="440" cy="506" r="2"/>
    <circle cx="429" cy="504" r="2"/>
  </g>
  <g stroke="chocolate" stroke-width="1">
    <line x1="266" y1="300" x2="12" y2="264"/>
    <circle cx="266" cy="300" r="2"/>
    <circle cx="12" cy="264" r="2"/>
  </g>
  <g stroke="chocolate" stroke-width="1">
    <line x1="450" y1="475" x2="321" y2="435"/>
    <circle cx="450" cy="475" r="2"/>
    <circle cx="321" cy="435" r="2"/>
  </g>
  <g stroke="chocolate" stroke-width="1">
    <line x1="12" y1="264" x2="5" y2="235"/>
    <circle cx="12" cy="264" r="2"/>
    <circle cx="5" cy="235" r="2"/>
  </g>
  <g stroke="chocolate" stroke-width="1">
    <line x1="429" y1="504" x2="5" y2="235"/>
    <circle cx="429" cy="504" r="2"/>
    <circle cx="5" cy="235" r="2"/>
  </g>
  <g stroke="chocolate" stroke-width="1">
    <line x1="91" y1="189" x2="84" y2="176"/>
    <circle cx="91" cy="189" r="2"/>
    <circle cx="84" cy="176" r="2"/>
  </g>
  <g stroke="chocolate" stroke-width="1">
    <line x1="513" y1="45" x2="307" y2="12"/>
    <circle cx="513" cy="45" r="2"/>
    <circle cx="307" cy="12" r="2"/>
  </g>
  <g stroke="chocolate" stroke-width="1">
    <line x1="321" y1="435" x2="84" y2="176"/>
    <circle cx="321" cy="435" r="2"/>
    <circle cx="84" cy="176" r="2"/>
  </g>
  <g stroke="chocolate" stroke-width="1">
    <line x1="150" y1="154" x2="138" y2="137"/>
    <circle cx="150" cy="154" r="2"/>
    <circle cx="138" cy="137" r="2"/>
  </g>
  <g stroke="chocolate" stroke-width="1">
    <line x1="429" y1="504" x2="138" y2="137"/>
    <circle cx="429" cy="504" r="2"/>
    <circle cx="138" cy="137" r="2"/>
  </g>
  <g stroke="black" stroke-width="1">
    <line x1="9" y1="9" x2="509" y2="9"/>
    <line x1="9" y1="9" x2="9" y2="509"/>
    <line x1="509" y1="509" x2="9" y2="509"/>
    <line x1="509" y1="509" x2="509" y2="9"/>
    <line x1="109" y1="6" x2="109" y2="12"/>
    <line x1="6" y1="109" x2="12" y2="109"/>
    <line x1="109" y1="506" x2="109" y2="512"/>
    <line x1="506" y1="109" x2="512" y2="109"/>
    <line x1="209" y1="6" x2="209" y2="12"/>
    <line x1="6" y1="209" x2="12" y2="209"/>
    <line x1="209" y1="506" x2="209" y2="512"/>
    <line x1="506" y1="209" x2="512" y2="209"/>
    <line x1="309" y1="6" x2="309" y2="12"/>
    <line x1="6" y1="309" x2="12" y2="309"/>
    <line x1="309" y1="506" x2="309" y2="512"/>
    <line x1="506" y1="309" x2="512" y2="309"/>
    <line x1="409" y1="6" x2="409" y2="12"/>
    <line x1="6" y1="409" x2="12" y2="409"/>
    <line x1="409" y1="506" x2="409" y2="512"/>
    <line x1="506" y1="409" x2="512" y2="409"/>
  </g>
  <g stroke="gray" stroke-width="1" stroke-dasharray="5,5">
    <line x1="109" y1="9" x2="109" y2="509"/>
    <line x1="9" y1="109" x2="509" y2="109"/>
    <line x1="209" y1="9" x2="209" y2="509"/>
    <line x1="9" y1="209" x2="509" y2="209"/>
    <line x1="309" y1="9" x2="309" y2="509"/>
    <line x1="9" y1="309" x2="509" y2="309"/>
    <line x1="409" y1="9" x2="409" y2="509"/>
    <line x1="9" y1="409" x2="509" y2="409"/>
  </g>
</svg>
