<?xml version="1.0" standalone="no"?>
<!DOCTYPE svg PUBLIC "-//W3C//DTD SVG 1.1//EN" 
  "http://www.w3.org/Graphics/SVG/1.1/DTD/svg11.dtd">
<svg width="510" height="510" version="1.1" id="toplevel"
    xmlns="http://www.w3.org/2000/svg"
    xmlns:xlink="http://www.w3.org/1999/xlink">
  <polygon points="156,442 355,442 355,306 278,306 278,380 234,380 234,306 156,306"
           fill="bisque"/>
  <g stroke="chocolate" stroke-width="1">
    <line x1="341" y1="442" x2="355" y2="429"/>
    <circle cx="341" cy="442" r="2"/>
    <circle cx="355" cy="429" r="2"/>
  </g>
  <g stroke="chocolate" stroke-width="1">
    <line x1="171" y1="442" x2="234" y2="380"/>
    <circle cx="171" cy="442" r="2"/>
    <circle cx="234" cy="380" r="2"/>
  </g>
  <g stroke="chocolate" stroke-width="1">
    <line x1="156" y1="428" x2="204" y2="380"/>
    <circle cx="156" cy="428" r="2"/>
    <circle cx="204" cy="380" r="2"/>
  </g>
  <g stroke="chocolate" stroke-width="1">
    <line x1="156" y1="442" x2="156" y2="306"/>
    <circle cx="156" cy="442" r="2"/>
    <circle cx="156" cy="306" r="2"/>
  </g>
  <g stroke="chocolate" stroke-width="1">
    <line x1="204" y1="442" x2="204" y2="306"/>
    <circle cx="204" cy="442" r="2"/>
    <circle cx="204" cy="306" r="2"/>
  </g>
  <g stroke="chocolate" stroke-width="1">
    <line x1="234" y1="380" x2="234" y2="306"/>
    <circle cx="234" cy="380" r="2"/>
    <circle cx="234" cy="306" r="2"/>
  </g>
  <g stroke="chocolate" stroke-width="1">
    <line x1="278" y1="380" x2="278" y2="306"/>
    <circle cx="278" cy="380" r="2"/>
    <circle cx="278" cy="306" r="2"/>
  </g>
  <g stroke="chocolate" stroke-width="1">
    <line x1="306" y1="442" x2="306" y2="306"/>
    <circle cx="306" cy="442" r="2"/>
    <circle cx="306" cy="306" r="2"/>
  </g>
  <g stroke="chocolate" stroke-width="1">
    <line x1="355" y1="442" x2="355" y2="306"/>
    <circle cx="355" cy="442" r="2"/>
    <circle cx="355" cy="306" r="2"/>
  </g>
  <g stroke="chocolate" stroke-width="1">
    <line x1="156" y1="442" x2="355" y2="442"/>
    <circle cx="156" cy="442" r="2"/>
    <circle cx="355" cy="442" r="2"/>
  </g>
  <g stroke="chocolate" stroke-width="1">
    <line x1="171" y1="442" x2="156" y2="428"/>
    <circle cx="171" cy="442" r="2"/>
    <circle cx="156" cy="428" r="2"/>
  </g>
  <g stroke="chocolate" stroke-width="1">
    <line x1="156" y1="380" x2="355" y2="380"/>
    <circle cx="156" cy="380" r="2"/>
    <circle cx="355" cy="380" r="2"/>
  </g>
  <g stroke="chocolate" stroke-width="1">
    <line x1="156" y1="306" x2="234" y2="306"/>
    <circle cx="156" cy="306" r="2"/>
    <circle cx="234" cy="306" r="2"/>
  </g>
  <g stroke="chocolate" stroke-width="1">
    <line x1="278" y1="306" x2="355" y2="306"/>
    <circle cx="278" cy="306" r="2"/>
    <circle cx="355" cy="306" r="2"/>
  </g>
  <g stroke="chocolate" stroke-width="1">
    <line x1="341" y1="442" x2="278" y2="380"/>
    <circle cx="341" cy="442" r="2"/>
    <circle cx="278" cy="380" r="2"/>
  </g>
  <g stroke="chocolate" stroke-width="1">
    <line x1="355" y1="429" x2="306" y2="380"/>
    <circle cx="355" cy="429" r="2"/>
    <circle cx="306" cy="380" r="2"/>
  </g>
  <g stroke="black" stroke-width="1">
    <line x1="5" y1="5" x2="505" y2="5"/>
    <line x1="5" y1="5" x2="5" y2="505"/>
    <line x1="505" y1="505" x2="5" y2="505"/>
    <line x1="505" y1="505" x2="505" y2="5"/>
    <line x1="105" y1="2" x2="105" y2="8"/>
    <line x1="2" y1="105" x2="8" y2="105"/>
    <line x1="105" y1="502" x2="105" y2="508"/>
    <line x1="502" y1="105" x2="508" y2="105"/>
    <line x1="205" y1="2" x2="205" y2="8"/>
    <line x1="2" y1="205" x2="8" y2="205"/>
    <line x1="205" y1="502" x2="205" y2="508"/>
    <line x1="502" y1="205" x2="508" y2="205"/>
    <line x1="305" y1="2" x2="305" y2="8"/>
    <line x1="2" y1="305" x2="8" y2="305"/>
    <line x1="305" y1="502" x2="305" y2="508"/>
    <line x1="502" y1="305" x2="508" y2="305"/>
    <line x1="405" y1="2" x2="405" y2="8"/>
    <line x1="2" y1="405" x2="8" y2="405"/>
    <line x1="405" y1="502" x2="405" y2="508"/>
    <line x1="502" y1="405" x2="508" y2="405"/>
  </g>
  <g stroke="gray" stroke-width="1" stroke-dasharray="5,5">
    <line x1="105" y1="5" x2="105" y2="505"/>
    <line x1="5" y1="105" x2="505" y2="105"/>
    <line x1="205" y1="5" x2="205" y2="505"/>
    <line x1="5" y1="205" x2="505" y2="205"/>
    <line x1="305" y1="5" x2="305" y2="505"/>
    <line x1="5" y1="305" x2="505" y2="305"/>
    <line x1="405" y1="5" x2="405" y2="505"/>
    <line x1="5" y1="405" x2="505" y2="405"/>
  </g>
</svg>
