<?xml version="1.0" standalone="no"?>
<!DOCTYPE svg PUBLIC "-//W3C//DTD SVG 1.1//EN" 
  "http://www.w3.org/Graphics/SVG/1.1/DTD/svg11.dtd">
<svg width="522" height="522" version="1.1" id="toplevel"
    xmlns="http://www.w3.org/2000/svg"
    xmlns:xlink="http://www.w3.org/1999/xlink">
  <polygon points="294,517 453,425 377,94 418,80 393,12 357,5 69,295 134,359 114,416 234,458"
           fill="bisque"/>
  <g stroke="chocolate" stroke-width="1">
    <line x1="294" y1="517" x2="254" y2="370"/>
    <circle cx="294" cy="517" r="2"/>
    <circle cx="254" cy="370" r="2"/>
  </g>
  <g stroke="chocolate" stroke-width="1">
    <line x1="453" y1="425" x2="357" y2="5"/>
    <circle cx="453" cy="425" r="2"/>
    <circle cx="357" cy="5" r="2"/>
  </g>
  <g stroke="chocolate" stroke-width="1">
    <line x1="334" y1="494" x2="362" y2="341"/>
    <circle cx="334" cy="494" r="2"/>
    <circle cx="362" cy="341" r="2"/>
  </g>
  <g stroke="chocolate" stroke-width="1">
    <line x1="418" y1="80" x2="393" y2="12"/>
    <circle cx="418" cy="80" r="2"/>
    <circle cx="393" cy="12" r="2"/>
  </g>
  <g stroke="chocolate" stroke-width="1">
    <line x1="114" y1="416" x2="206" y2="157"/>
    <circle cx="114" cy="416" r="2"/>
    <circle cx="206" cy="157" r="2"/>
  </g>
  <g stroke="chocolate" stroke-width="1">
    <line x1="294" y1="517" x2="69" y2="295"/>
    <circle cx="294" cy="517" r="2"/>
    <circle cx="69" cy="295" r="2"/>
  </g>
  <g stroke="chocolate" stroke-width="1">
    <line x1="453" y1="425" x2="362" y2="341"/>
    <circle cx="453" cy="425" r="2"/>
    <circle cx="362" cy="341" r="2"/>
  </g>
  <g stroke="chocolate" stroke-width="1">
    <line x1="91" y1="317" x2="393" y2="12"/>
    <circle cx="91" cy="317" r="2"/>
    <circle cx="393" cy="12" r="2"/>
  </g>
  <g stroke="chocolate" stroke-width="1">
    <line x1="69" y1="295" x2="357" y2="5"/>
    <circle cx="69" cy="295" r="2"/>
    <circle cx="357" cy="5" r="2"/>
  </g>
  <g stroke="chocolate" stroke-width="1">
    <line x1="334" y1="494" x2="114" y2="416"/>
    <circle cx="334" cy="494" r="2"/>
    <circle cx="114" cy="416" r="2"/>
  </g>
  <g stroke="chocolate" stroke-width="1">
    <line x1="294" y1="517" x2="453" y2="425"/>
    <circle cx="294" cy="517" r="2"/>
    <circle cx="453" cy="425" r="2"/>
  </g>
  <g stroke="chocolate" stroke-width="1">
    <line x1="254" y1="370" x2="362" y2="341"/>
    <circle cx="254" cy="370" r="2"/>
    <circle cx="362" cy="341" r="2"/>
  </g>
  <g stroke="chocolate" stroke-width="1">
    <line x1="206" y1="157" x2="418" y2="80"/>
    <circle cx="206" cy="157" r="2"/>
    <circle cx="418" cy="80" r="2"/>
  </g>
  <g stroke="chocolate" stroke-width="1">
    <line x1="393" y1="12" x2="357" y2="5"/>
    <circle cx="393" cy="12" r="2"/>
    <circle cx="357" cy="5" r="2"/>
  </g>
  <g stroke="black" stroke-width="1">
    <line x1="11" y1="11" x2="511" y2="11"/>
    <line x1="11" y1="11" x2="11" y2="511"/>
    <line x1="511" y1="511" x2="11" y2="511"/>
    <line x1="511" y1="511" x2="511" y2="11"/>
    <line x1="111" y1="8" x2="111" y2="14"/>
    <line x1="8" y1="111" x2="14" y2="111"/>
    <line x1="111" y1="508" x2="111" y2="514"/>
    <line x1="508" y1="111" x2="514" y2="111"/>
    <line x1="211" y1="8" x2="211" y2="14"/>
    <line x1="8" y1="211" x2="14" y2="211"/>
    <line x1="211" y1="508" x2="211" y2="514"/>
    <line x1="508" y1="211" x2="514" y2="211"/>
    <line x1="311" y1="8" x2="311" y2="14"/>
    <line x1="8" y1="311" x2="14" y2="311"/>
    <line x1="311" y1="508" x2="311" y2="514"/>
    <line x1="508" y1="311" x2="514" y2="311"/>
    <line x1="411" y1="8" x2="411" y2="14"/>
    <line x1="8" y1="411" x2="14" y2="411"/>
    <line x1="411" y1="508" x2="411" y2="514"/>
    <line x1="508" y1="411" x2="514" y2="411"/>
  </g>
  <g stroke="gray" stroke-width="1" stroke-dasharray="5,5">
    <line x1="111" y1="11" x2="111" y2="511"/>
    <line x1="11" y1="111" x2="511" y2="111"/>
    <line x1="211" y1="11" x2="211" y2="511"/>
    <line x1="11" y1="211" x2="511" y2="211"/>
    <line x1="311" y1="11" x2="311" y2="511"/>
    <line x1="11" y1="311" x2="511" y2="311"/>
    <line x1="411" y1="11" x2="411" y2="511"/>
    <line x1="11" y1="411" x2="511" y2="411"/>
  </g>
</svg>
