<?xml version="1.0" standalone="no"?>
<!DOCTYPE svg PUBLIC "-//W3C//DTD SVG 1.1//EN" 
  "http://www.w3.org/Graphics/SVG/1.1/DTD/svg11.dtd">
<svg width="510" height="510" version="1.1" id="toplevel"
    xmlns="http://www.w3.org/2000/svg"
    xmlns:xlink="http://www.w3.org/1999/xlink">
  <polygon points="172,499 290,471 359,491 458,330 234,93 257,71 199,11 164,20 52,402 156,433"
           fill="bisque"/>
  <g stroke="chocolate" stroke-width="1">
    <line x1="172" y1="499" x2="106" y2="218"/>
    <circle cx="172" cy="499" r="2"/>
    <circle cx="106" cy="218" r="2"/>
  </g>
  <g stroke="chocolate" stroke-width="1">
    <line x1="384" y1="449" x2="347" y2="297"/>
    <circle cx="384" cy="449" r="2"/>
    <circle cx="347" cy="297" r="2"/>
  </g>
  <g stroke="chocolate" stroke-width="1">
    <line x1="82" y1="411" x2="199" y2="11"/>
    <circle cx="82" cy="411" r="2"/>
    <circle cx="199" cy="11" r="2"/>
  </g>
  <g stroke="chocolate" stroke-width="1">
    <line x1="52" y1="402" x2="164" y2="20"/>
    <circle cx="52" cy="402" r="2"/>
    <circle cx="164" cy="20" r="2"/>
  </g>
  <g stroke="chocolate" stroke-width="1">
    <line x1="359" y1="491" x2="458" y2="330"/>
    <circle cx="359" cy="491" r="2"/>
    <circle cx="458" cy="330" r="2"/>
  </g>
  <g stroke="chocolate" stroke-width="1">
    <line x1="359" y1="491" x2="256" y2="382"/>
    <circle cx="359" cy="491" r="2"/>
    <circle cx="256" cy="382" r="2"/>
  </g>
  <g stroke="chocolate" stroke-width="1">
    <line x1="458" y1="330" x2="164" y2="20"/>
    <circle cx="458" cy="330" r="2"/>
    <circle cx="164" cy="20" r="2"/>
  </g>
  <g stroke="chocolate" stroke-width="1">
    <line x1="257" y1="71" x2="199" y2="11"/>
    <circle cx="257" cy="71" r="2"/>
    <circle cx="199" cy="11" r="2"/>
  </g>
  <g stroke="chocolate" stroke-width="1">
    <line x1="256" y1="382" x2="347" y2="297"/>
    <circle cx="256" cy="382" r="2"/>
    <circle cx="347" cy="297" r="2"/>
  </g>
  <g stroke="chocolate" stroke-width="1">
    <line x1="106" y1="218" x2="257" y2="71"/>
    <circle cx="106" cy="218" r="2"/>
    <circle cx="257" cy="71" r="2"/>
  </g>
  <g stroke="chocolate" stroke-width="1">
    <line x1="359" y1="491" x2="52" y2="402"/>
    <circle cx="359" cy="491" r="2"/>
    <circle cx="52" cy="402" r="2"/>
  </g>
  <g stroke="chocolate" stroke-width="1">
    <line x1="458" y1="330" x2="347" y2="297"/>
    <circle cx="458" cy="330" r="2"/>
    <circle cx="347" cy="297" r="2"/>
  </g>
  <g stroke="chocolate" stroke-width="1">
    <line x1="172" y1="499" x2="384" y2="449"/>
    <circle cx="172" cy="499" r="2"/>
    <circle cx="384" cy="449" r="2"/>
  </g>
  <g stroke="chocolate" stroke-width="1">
    <line x1="164" y1="20" x2="199" y2="11"/>
    <circle cx="164" cy="20" r="2"/>
    <circle cx="199" cy="11" r="2"/>
  </g>
  <g stroke="black" stroke-width="1">
    <line x1="5" y1="5" x2="505" y2="5"/>
    <line x1="5" y1="5" x2="5" y2="505"/>
    <line x1="505" y1="505" x2="5" y2="505"/>
    <line x1="505" y1="505" x2="505" y2="5"/>
    <line x1="105" y1="2" x2="105" y2="8"/>
    <line x1="2" y1="105" x2="8" y2="105"/>
    <line x1="105" y1="502" x2="105" y2="508"/>
    <line x1="502" y1="105" x2="508" y2="105"/>
    <line x1="205" y1="2" x2="205" y2="8"/>
    <line x1="2" y1="205" x2="8" y2="205"/>
    <line x1="205" y1="502" x2="205" y2="508"/>
    <line x1="502" y1="205" x2="508" y2="205"/>
    <line x1="305" y1="2" x2="305" y2="8"/>
    <line x1="2" y1="305" x2="8" y2="305"/>
    <line x1="305" y1="502" x2="305" y2="508"/>
    <line x1="502" y1="305" x2="508" y2="305"/>
    <line x1="405" y1="2" x2="405" y2="8"/>
    <line x1="2" y1="405" x2="8" y2="405"/>
    <line x1="405" y1="502" x2="405" y2="508"/>
    <line x1="502" y1="405" x2="508" y2="405"/>
  </g>
  <g stroke="gray" stroke-width="1" stroke-dasharray="5,5">
    <line x1="105" y1="5" x2="105" y2="505"/>
    <line x1="5" y1="105" x2="505" y2="105"/>
    <line x1="205" y1="5" x2="205" y2="505"/>
    <line x1="5" y1="205" x2="505" y2="205"/>
    <line x1="305" y1="5" x2="305" y2="505"/>
    <line x1="5" y1="305" x2="505" y2="305"/>
    <line x1="405" y1="5" x2="405" y2="505"/>
    <line x1="5" y1="405" x2="505" y2="405"/>
  </g>
</svg>
