<?xml version="1.0" standalone="no"?>
<!DOCTYPE svg PUBLIC "-//W3C//DTD SVG 1.1//EN" 
  "http://www.w3.org/Graphics/SVG/1.1/DTD/svg11.dtd">
<svg width="546" height="546" version="1.1" id="toplevel"
    xmlns="http://www.w3.org/2000/svg"
    xmlns:xlink="http://www.w3.org/1999/xlink">
  <polygon points="368,470 399,421 442,432 478,297 541,199 429,76 80,212 44,169 5,201 8,240"
           fill="bisque"/>
  <g stroke="chocolate" stroke-width="1">
    <line x1="8" y1="240" x2="5" y2="201"/>
    <circle cx="8" cy="240" r="2"/>
    <circle cx="5" cy="201" r="2"/>
  </g>
  <g stroke="chocolate" stroke-width="1">
    <line x1="442" y1="432" x2="513" y2="168"/>
    <circle cx="442" cy="432" r="2"/>
    <circle cx="513" cy="168" r="2"/>
  </g>
  <g stroke="chocolate" stroke-width="1">
    <line x1="408" y1="266" x2="371" y2="191"/>
    <circle cx="408" cy="266" r="2"/>
    <circle cx="371" cy="191" r="2"/>
  </g>
  <g stroke="chocolate" stroke-width="1">
    <line x1="371" y1="191" x2="429" y2="76"/>
    <circle cx="371" cy="191" r="2"/>
    <circle cx="429" cy="76" r="2"/>
  </g>
  <g stroke="chocolate" stroke-width="1">
    <line x1="368" y1="470" x2="541" y2="199"/>
    <circle cx="368" cy="470" r="2"/>
    <circle cx="541" cy="199" r="2"/>
  </g>
  <g stroke="chocolate" stroke-width="1">
    <line x1="213" y1="370" x2="44" y2="169"/>
    <circle cx="213" cy="370" r="2"/>
    <circle cx="44" cy="169" r="2"/>
  </g>
  <g stroke="chocolate" stroke-width="1">
    <line x1="541" y1="199" x2="429" y2="76"/>
    <circle cx="541" cy="199" r="2"/>
    <circle cx="429" cy="76" r="2"/>
  </g>
  <g stroke="chocolate" stroke-width="1">
    <line x1="368" y1="470" x2="8" y2="240"/>
    <circle cx="368" cy="470" r="2"/>
    <circle cx="8" cy="240" r="2"/>
  </g>
  <g stroke="chocolate" stroke-width="1">
    <line x1="385" y1="443" x2="5" y2="201"/>
    <circle cx="385" cy="443" r="2"/>
    <circle cx="5" cy="201" r="2"/>
  </g>
  <g stroke="chocolate" stroke-width="1">
    <line x1="5" y1="201" x2="44" y2="169"/>
    <circle cx="5" cy="201" r="2"/>
    <circle cx="44" cy="169" r="2"/>
  </g>
  <g stroke="chocolate" stroke-width="1">
    <line x1="408" y1="266" x2="541" y2="199"/>
    <circle cx="408" cy="266" r="2"/>
    <circle cx="541" cy="199" r="2"/>
  </g>
  <g stroke="chocolate" stroke-width="1">
    <line x1="442" y1="432" x2="213" y2="370"/>
    <circle cx="442" cy="432" r="2"/>
    <circle cx="213" cy="370" r="2"/>
  </g>
  <g stroke="chocolate" stroke-width="1">
    <line x1="8" y1="240" x2="429" y2="76"/>
    <circle cx="8" cy="240" r="2"/>
    <circle cx="429" cy="76" r="2"/>
  </g>
  <g stroke="chocolate" stroke-width="1">
    <line x1="371" y1="191" x2="513" y2="168"/>
    <circle cx="371" cy="191" r="2"/>
    <circle cx="513" cy="168" r="2"/>
  </g>
  <g stroke="black" stroke-width="1">
    <line x1="23" y1="23" x2="523" y2="23"/>
    <line x1="23" y1="23" x2="23" y2="523"/>
    <line x1="523" y1="523" x2="23" y2="523"/>
    <line x1="523" y1="523" x2="523" y2="23"/>
    <line x1="123" y1="20" x2="123" y2="26"/>
    <line x1="20" y1="123" x2="26" y2="123"/>
    <line x1="123" y1="520" x2="123" y2="526"/>
    <line x1="520" y1="123" x2="526" y2="123"/>
    <line x1="223" y1="20" x2="223" y2="26"/>
    <line x1="20" y1="223" x2="26" y2="223"/>
    <line x1="223" y1="520" x2="223" y2="526"/>
    <line x1="520" y1="223" x2="526" y2="223"/>
    <line x1="323" y1="20" x2="323" y2="26"/>
    <line x1="20" y1="323" x2="26" y2="323"/>
    <line x1="323" y1="520" x2="323" y2="526"/>
    <line x1="520" y1="323" x2="526" y2="323"/>
    <line x1="423" y1="20" x2="423" y2="26"/>
    <line x1="20" y1="423" x2="26" y2="423"/>
    <line x1="423" y1="520" x2="423" y2="526"/>
    <line x1="520" y1="423" x2="526" y2="423"/>
  </g>
  <g stroke="gray" stroke-width="1" stroke-dasharray="5,5">
    <line x1="123" y1="23" x2="123" y2="523"/>
    <line x1="23" y1="123" x2="523" y2="123"/>
    <line x1="223" y1="23" x2="223" y2="523"/>
    <line x1="23" y1="223" x2="523" y2="223"/>
    <line x1="323" y1="23" x2="323" y2="523"/>
    <line x1="23" y1="323" x2="523" y2="323"/>
    <line x1="423" y1="23" x2="423" y2="523"/>
    <line x1="23" y1="423" x2="523" y2="423"/>
  </g>
</svg>
