<?xml version="1.0" standalone="no"?>
<!DOCTYPE svg PUBLIC "-//W3C//DTD SVG 1.1//EN" 
  "http://www.w3.org/Graphics/SVG/1.1/DTD/svg11.dtd">
<svg width="522" height="522" version="1.1" id="toplevel"
    xmlns="http://www.w3.org/2000/svg"
    xmlns:xlink="http://www.w3.org/1999/xlink">
  <polygon points="264,517 421,453 404,85 455,69 437,16 401,5 67,264 108,317 82,357 197,431"
           fill="bisque"/>
  <g stroke="chocolate" stroke-width="1">
    <line x1="264" y1="517" x2="246" y2="371"/>
    <circle cx="264" cy="517" r="2"/>
    <circle cx="246" cy="371" r="2"/>
  </g>
  <g stroke="chocolate" stroke-width="1">
    <line x1="421" y1="453" x2="401" y2="5"/>
    <circle cx="421" cy="453" r="2"/>
    <circle cx="401" cy="5" r="2"/>
  </g>
  <g stroke="chocolate" stroke-width="1">
    <line x1="455" y1="69" x2="437" y2="16"/>
    <circle cx="455" cy="69" r="2"/>
    <circle cx="437" cy="16" r="2"/>
  </g>
  <g stroke="chocolate" stroke-width="1">
    <line x1="305" y1="500" x2="336" y2="360"/>
    <circle cx="305" cy="500" r="2"/>
    <circle cx="336" cy="360" r="2"/>
  </g>
  <g stroke="chocolate" stroke-width="1">
    <line x1="264" y1="517" x2="67" y2="264"/>
    <circle cx="264" cy="517" r="2"/>
    <circle cx="67" cy="264" r="2"/>
  </g>
  <g stroke="chocolate" stroke-width="1">
    <line x1="421" y1="453" x2="336" y2="360"/>
    <circle cx="421" cy="453" r="2"/>
    <circle cx="336" cy="360" r="2"/>
  </g>
  <g stroke="chocolate" stroke-width="1">
    <line x1="82" y1="357" x2="217" y2="148"/>
    <circle cx="82" cy="357" r="2"/>
    <circle cx="217" cy="148" r="2"/>
  </g>
  <g stroke="chocolate" stroke-width="1">
    <line x1="305" y1="500" x2="82" y2="357"/>
    <circle cx="305" cy="500" r="2"/>
    <circle cx="82" cy="357" r="2"/>
  </g>
  <g stroke="chocolate" stroke-width="1">
    <line x1="86" y1="288" x2="437" y2="16"/>
    <circle cx="86" cy="288" r="2"/>
    <circle cx="437" cy="16" r="2"/>
  </g>
  <g stroke="chocolate" stroke-width="1">
    <line x1="67" y1="264" x2="401" y2="5"/>
    <circle cx="67" cy="264" r="2"/>
    <circle cx="401" cy="5" r="2"/>
  </g>
  <g stroke="chocolate" stroke-width="1">
    <line x1="264" y1="517" x2="421" y2="453"/>
    <circle cx="264" cy="517" r="2"/>
    <circle cx="421" cy="453" r="2"/>
  </g>
  <g stroke="chocolate" stroke-width="1">
    <line x1="437" y1="16" x2="401" y2="5"/>
    <circle cx="437" cy="16" r="2"/>
    <circle cx="401" cy="5" r="2"/>
  </g>
  <g stroke="chocolate" stroke-width="1">
    <line x1="246" y1="371" x2="336" y2="360"/>
    <circle cx="246" cy="371" r="2"/>
    <circle cx="336" cy="360" r="2"/>
  </g>
  <g stroke="chocolate" stroke-width="1">
    <line x1="217" y1="148" x2="455" y2="69"/>
    <circle cx="217" cy="148" r="2"/>
    <circle cx="455" cy="69" r="2"/>
  </g>
  <g stroke="black" stroke-width="1">
    <line x1="11" y1="11" x2="511" y2="11"/>
    <line x1="11" y1="11" x2="11" y2="511"/>
    <line x1="511" y1="511" x2="11" y2="511"/>
    <line x1="511" y1="511" x2="511" y2="11"/>
    <line x1="111" y1="8" x2="111" y2="14"/>
    <line x1="8" y1="111" x2="14" y2="111"/>
    <line x1="111" y1="508" x2="111" y2="514"/>
    <line x1="508" y1="111" x2="514" y2="111"/>
    <line x1="211" y1="8" x2="211" y2="14"/>
    <line x1="8" y1="211" x2="14" y2="211"/>
    <line x1="211" y1="508" x2="211" y2="514"/>
    <line x1="508" y1="211" x2="514" y2="211"/>
    <line x1="311" y1="8" x2="311" y2="14"/>
    <line x1="8" y1="311" x2="14" y2="311"/>
    <line x1="311" y1="508" x2="311" y2="514"/>
    <line x1="508" y1="311" x2="514" y2="311"/>
    <line x1="411" y1="8" x2="411" y2="14"/>
    <line x1="8" y1="411" x2="14" y2="411"/>
    <line x1="411" y1="508" x2="411" y2="514"/>
    <line x1="508" y1="411" x2="514" y2="411"/>
  </g>
  <g stroke="gray" stroke-width="1" stroke-dasharray="5,5">
    <line x1="111" y1="11" x2="111" y2="511"/>
    <line x1="11" y1="111" x2="511" y2="111"/>
    <line x1="211" y1="11" x2="211" y2="511"/>
    <line x1="11" y1="211" x2="511" y2="211"/>
    <line x1="311" y1="11" x2="311" y2="511"/>
    <line x1="11" y1="311" x2="511" y2="311"/>
    <line x1="411" y1="11" x2="411" y2="511"/>
    <line x1="11" y1="411" x2="511" y2="411"/>
  </g>
</svg>
