<?xml version="1.0" standalone="no"?>
<!DOCTYPE svg PUBLIC "-//W3C//DTD SVG 1.1//EN" 
  "http://www.w3.org/Graphics/SVG/1.1/DTD/svg11.dtd">
<svg width="510" height="510" version="1.1" id="toplevel"
    xmlns="http://www.w3.org/2000/svg"
    xmlns:xlink="http://www.w3.org/1999/xlink">
  <polygon points="324,410 347,375 393,359 393,319 375,284 251,100 117,189 227,236 221,267 268,402 286,396"
           fill="bisque"/>
  <g stroke="chocolate" stroke-width="1">
    <line x1="268" y1="402" x2="393" y2="359"/>
    <circle cx="268" cy="402" r="2"/>
    <circle cx="393" cy="359" r="2"/>
  </g>
  <g stroke="chocolate" stroke-width="1">
    <line x1="275" y1="256" x2="326" y2="217"/>
    <circle cx="275" cy="256" r="2"/>
    <circle cx="326" cy="217" r="2"/>
  </g>
  <g stroke="chocolate" stroke-width="1">
    <line x1="230" y1="223" x2="293" y2="188"/>
    <circle cx="230" cy="223" r="2"/>
    <circle cx="293" cy="188" r="2"/>
  </g>
  <g stroke="chocolate" stroke-width="1">
    <line x1="227" y1="236" x2="269" y2="208"/>
    <circle cx="227" cy="236" r="2"/>
    <circle cx="269" cy="208" r="2"/>
  </g>
  <g stroke="chocolate" stroke-width="1">
    <line x1="306" y1="191" x2="311" y2="189"/>
    <circle cx="306" cy="191" r="2"/>
    <circle cx="311" cy="189" r="2"/>
  </g>
  <g stroke="chocolate" stroke-width="1">
    <line x1="210" y1="229" x2="310" y2="187"/>
    <circle cx="210" cy="229" r="2"/>
    <circle cx="310" cy="187" r="2"/>
  </g>
  <g stroke="chocolate" stroke-width="1">
    <line x1="346" y1="248" x2="350" y2="247"/>
    <circle cx="346" cy="248" r="2"/>
    <circle cx="350" cy="247" r="2"/>
  </g>
  <g stroke="chocolate" stroke-width="1">
    <line x1="223" y1="274" x2="311" y2="189"/>
    <circle cx="223" cy="274" r="2"/>
    <circle cx="311" cy="189" r="2"/>
  </g>
  <g stroke="chocolate" stroke-width="1">
    <line x1="274" y1="255" x2="348" y2="244"/>
    <circle cx="274" cy="255" r="2"/>
    <circle cx="348" cy="244" r="2"/>
  </g>
  <g stroke="chocolate" stroke-width="1">
    <line x1="306" y1="191" x2="310" y2="187"/>
    <circle cx="306" cy="191" r="2"/>
    <circle cx="310" cy="187" r="2"/>
  </g>
  <g stroke="chocolate" stroke-width="1">
    <line x1="253" y1="114" x2="258" y2="111"/>
    <circle cx="253" cy="114" r="2"/>
    <circle cx="258" cy="111" r="2"/>
  </g>
  <g stroke="chocolate" stroke-width="1">
    <line x1="117" y1="189" x2="257" y2="110"/>
    <circle cx="117" cy="189" r="2"/>
    <circle cx="257" cy="110" r="2"/>
  </g>
  <g stroke="chocolate" stroke-width="1">
    <line x1="252" y1="115" x2="258" y2="111"/>
    <circle cx="252" cy="115" r="2"/>
    <circle cx="258" cy="111" r="2"/>
  </g>
  <g stroke="chocolate" stroke-width="1">
    <line x1="117" y1="189" x2="251" y2="100"/>
    <circle cx="117" cy="189" r="2"/>
    <circle cx="251" cy="100" r="2"/>
  </g>
  <g stroke="chocolate" stroke-width="1">
    <line x1="246" y1="104" x2="251" y2="100"/>
    <circle cx="246" cy="104" r="2"/>
    <circle cx="251" cy="100" r="2"/>
  </g>
  <g stroke="chocolate" stroke-width="1">
    <line x1="253" y1="114" x2="257" y2="110"/>
    <circle cx="253" cy="114" r="2"/>
    <circle cx="257" cy="110" r="2"/>
  </g>
  <g stroke="chocolate" stroke-width="1">
    <line x1="221" y1="267" x2="293" y2="188"/>
    <circle cx="221" cy="267" r="2"/>
    <circle cx="293" cy="188" r="2"/>
  </g>
  <g stroke="chocolate" stroke-width="1">
    <line x1="324" y1="410" x2="347" y2="375"/>
    <circle cx="324" cy="410" r="2"/>
    <circle cx="347" cy="375" r="2"/>
  </g>
  <g stroke="chocolate" stroke-width="1">
    <line x1="204" y1="226" x2="231" y2="196"/>
    <circle cx="204" cy="226" r="2"/>
    <circle cx="231" cy="196" r="2"/>
  </g>
  <g stroke="chocolate" stroke-width="1">
    <line x1="149" y1="203" x2="209" y2="137"/>
    <circle cx="149" cy="203" r="2"/>
    <circle cx="209" cy="137" r="2"/>
  </g>
  <g stroke="chocolate" stroke-width="1">
    <line x1="263" y1="388" x2="350" y2="247"/>
    <circle cx="263" cy="388" r="2"/>
    <circle cx="350" cy="247" r="2"/>
  </g>
  <g stroke="chocolate" stroke-width="1">
    <line x1="346" y1="248" x2="348" y2="244"/>
    <circle cx="346" cy="248" r="2"/>
    <circle cx="348" cy="244" r="2"/>
  </g>
  <g stroke="chocolate" stroke-width="1">
    <line x1="330" y1="352" x2="263" y2="342"/>
    <circle cx="330" cy="352" r="2"/>
    <circle cx="263" cy="342" r="2"/>
  </g>
  <g stroke="chocolate" stroke-width="1">
    <line x1="273" y1="279" x2="223" y2="274"/>
    <circle cx="273" cy="279" r="2"/>
    <circle cx="223" cy="274" r="2"/>
  </g>
  <g stroke="chocolate" stroke-width="1">
    <line x1="323" y1="207" x2="317" y2="206"/>
    <circle cx="323" cy="207" r="2"/>
    <circle cx="317" cy="206" r="2"/>
  </g>
  <g stroke="chocolate" stroke-width="1">
    <line x1="319" y1="201" x2="117" y2="189"/>
    <circle cx="319" cy="201" r="2"/>
    <circle cx="117" cy="189" r="2"/>
  </g>
  <g stroke="chocolate" stroke-width="1">
    <line x1="184" y1="217" x2="197" y2="194"/>
    <circle cx="184" cy="217" r="2"/>
    <circle cx="197" cy="194" r="2"/>
  </g>
  <g stroke="chocolate" stroke-width="1">
    <line x1="209" y1="228" x2="221" y2="203"/>
    <circle cx="209" cy="228" r="2"/>
    <circle cx="221" cy="203" r="2"/>
  </g>
  <g stroke="chocolate" stroke-width="1">
    <line x1="326" y1="217" x2="221" y2="203"/>
    <circle cx="326" cy="217" r="2"/>
    <circle cx="221" cy="203" r="2"/>
  </g>
  <g stroke="chocolate" stroke-width="1">
    <line x1="253" y1="104" x2="246" y2="104"/>
    <circle cx="253" cy="104" r="2"/>
    <circle cx="246" cy="104" r="2"/>
  </g>
  <g stroke="chocolate" stroke-width="1">
    <line x1="293" y1="188" x2="239" y2="181"/>
    <circle cx="293" cy="188" r="2"/>
    <circle cx="239" cy="181" r="2"/>
  </g>
  <g stroke="chocolate" stroke-width="1">
    <line x1="324" y1="410" x2="263" y2="388"/>
    <circle cx="324" cy="410" r="2"/>
    <circle cx="263" cy="388" r="2"/>
  </g>
  <g stroke="chocolate" stroke-width="1">
    <line x1="282" y1="319" x2="323" y2="207"/>
    <circle cx="282" cy="319" r="2"/>
    <circle cx="323" cy="207" r="2"/>
  </g>
  <g stroke="chocolate" stroke-width="1">
    <line x1="317" y1="206" x2="319" y2="201"/>
    <circle cx="317" cy="206" r="2"/>
    <circle cx="319" cy="201" r="2"/>
  </g>
  <g stroke="chocolate" stroke-width="1">
    <line x1="209" y1="228" x2="253" y2="104"/>
    <circle cx="209" cy="228" r="2"/>
    <circle cx="253" cy="104" r="2"/>
  </g>
  <g stroke="chocolate" stroke-width="1">
    <line x1="393" y1="359" x2="282" y2="319"/>
    <circle cx="393" cy="359" r="2"/>
    <circle cx="282" cy="319" r="2"/>
  </g>
  <g stroke="chocolate" stroke-width="1">
    <line x1="326" y1="212" x2="320" y2="210"/>
    <circle cx="326" cy="212" r="2"/>
    <circle cx="320" cy="210" r="2"/>
  </g>
  <g stroke="chocolate" stroke-width="1">
    <line x1="184" y1="217" x2="209" y2="137"/>
    <circle cx="184" cy="217" r="2"/>
    <circle cx="209" cy="137" r="2"/>
  </g>
  <g stroke="chocolate" stroke-width="1">
    <line x1="321" y1="204" x2="239" y2="181"/>
    <circle cx="321" cy="204" r="2"/>
    <circle cx="239" cy="181" r="2"/>
  </g>
  <g stroke="chocolate" stroke-width="1">
    <line x1="382" y1="311" x2="385" y2="302"/>
    <circle cx="382" cy="311" r="2"/>
    <circle cx="385" cy="302" r="2"/>
  </g>
  <g stroke="chocolate" stroke-width="1">
    <line x1="269" y1="208" x2="151" y2="166"/>
    <circle cx="269" cy="208" r="2"/>
    <circle cx="151" cy="166" r="2"/>
  </g>
  <g stroke="chocolate" stroke-width="1">
    <line x1="385" y1="302" x2="117" y2="189"/>
    <circle cx="385" cy="302" r="2"/>
    <circle cx="117" cy="189" r="2"/>
  </g>
  <g stroke="chocolate" stroke-width="1">
    <line x1="221" y1="267" x2="252" y2="115"/>
    <circle cx="221" cy="267" r="2"/>
    <circle cx="252" cy="115" r="2"/>
  </g>
  <g stroke="chocolate" stroke-width="1">
    <line x1="263" y1="342" x2="273" y2="279"/>
    <circle cx="263" cy="342" r="2"/>
    <circle cx="273" cy="279" r="2"/>
  </g>
  <g stroke="chocolate" stroke-width="1">
    <line x1="326" y1="217" x2="326" y2="212"/>
    <circle cx="326" cy="217" r="2"/>
    <circle cx="326" cy="212" r="2"/>
  </g>
  <g stroke="chocolate" stroke-width="1">
    <line x1="320" y1="210" x2="321" y2="204"/>
    <circle cx="320" cy="210" r="2"/>
    <circle cx="321" cy="204" r="2"/>
  </g>
  <g stroke="chocolate" stroke-width="1">
    <line x1="324" y1="410" x2="330" y2="352"/>
    <circle cx="324" cy="410" r="2"/>
    <circle cx="330" cy="352" r="2"/>
  </g>
  <g stroke="chocolate" stroke-width="1">
    <line x1="204" y1="226" x2="209" y2="137"/>
    <circle cx="204" cy="226" r="2"/>
    <circle cx="209" cy="137" r="2"/>
  </g>
  <g stroke="chocolate" stroke-width="1">
    <line x1="149" y1="203" x2="151" y2="166"/>
    <circle cx="149" cy="203" r="2"/>
    <circle cx="151" cy="166" r="2"/>
  </g>
  <g stroke="chocolate" stroke-width="1">
    <line x1="393" y1="359" x2="393" y2="319"/>
    <circle cx="393" cy="359" r="2"/>
    <circle cx="393" cy="319" r="2"/>
  </g>
  <g stroke="chocolate" stroke-width="1">
    <line x1="257" y1="110" x2="246" y2="104"/>
    <circle cx="257" cy="110" r="2"/>
    <circle cx="246" cy="104" r="2"/>
  </g>
  <g stroke="chocolate" stroke-width="1">
    <line x1="393" y1="319" x2="382" y2="311"/>
    <circle cx="393" cy="319" r="2"/>
    <circle cx="382" cy="311" r="2"/>
  </g>
  <g stroke="chocolate" stroke-width="1">
    <line x1="275" y1="256" x2="257" y2="110"/>
    <circle cx="275" cy="256" r="2"/>
    <circle cx="257" cy="110" r="2"/>
  </g>
  <g stroke="chocolate" stroke-width="1">
    <line x1="227" y1="236" x2="221" y2="203"/>
    <circle cx="227" cy="236" r="2"/>
    <circle cx="221" cy="203" r="2"/>
  </g>
  <g stroke="chocolate" stroke-width="1">
    <line x1="368" y1="273" x2="357" y2="263"/>
    <circle cx="368" cy="273" r="2"/>
    <circle cx="357" cy="263" r="2"/>
  </g>
  <g stroke="chocolate" stroke-width="1">
    <line x1="268" y1="402" x2="221" y2="267"/>
    <circle cx="268" cy="402" r="2"/>
    <circle cx="221" cy="267" r="2"/>
  </g>
  <g stroke="chocolate" stroke-width="1">
    <line x1="347" y1="375" x2="230" y2="223"/>
    <circle cx="347" cy="375" r="2"/>
    <circle cx="230" cy="223" r="2"/>
  </g>
  <g stroke="chocolate" stroke-width="1">
    <line x1="210" y1="229" x2="197" y2="194"/>
    <circle cx="210" cy="229" r="2"/>
    <circle cx="197" cy="194" r="2"/>
  </g>
  <g stroke="chocolate" stroke-width="1">
    <line x1="274" y1="255" x2="231" y2="196"/>
    <circle cx="274" cy="255" r="2"/>
    <circle cx="231" cy="196" r="2"/>
  </g>
  <g stroke="chocolate" stroke-width="1">
    <line x1="375" y1="284" x2="357" y2="263"/>
    <circle cx="375" cy="284" r="2"/>
    <circle cx="357" cy="263" r="2"/>
  </g>
  <g stroke="chocolate" stroke-width="1">
    <line x1="382" y1="311" x2="368" y2="273"/>
    <circle cx="382" cy="311" r="2"/>
    <circle cx="368" cy="273" r="2"/>
  </g>
  <g stroke="chocolate" stroke-width="1">
    <line x1="357" y1="263" x2="253" y2="114"/>
    <circle cx="357" cy="263" r="2"/>
    <circle cx="253" cy="114" r="2"/>
  </g>
  <g stroke="chocolate" stroke-width="1">
    <line x1="293" y1="188" x2="252" y2="115"/>
    <circle cx="293" cy="188" r="2"/>
    <circle cx="252" cy="115" r="2"/>
  </g>
  <g stroke="chocolate" stroke-width="1">
    <line x1="375" y1="284" x2="251" y2="100"/>
    <circle cx="375" cy="284" r="2"/>
    <circle cx="251" cy="100" r="2"/>
  </g>
  <g stroke="chocolate" stroke-width="1">
    <line x1="393" y1="319" x2="375" y2="284"/>
    <circle cx="393" cy="319" r="2"/>
    <circle cx="375" cy="284" r="2"/>
  </g>
  <g stroke="black" stroke-width="1">
    <line x1="5" y1="5" x2="505" y2="5"/>
    <line x1="5" y1="5" x2="5" y2="505"/>
    <line x1="505" y1="505" x2="5" y2="505"/>
    <line x1="505" y1="505" x2="505" y2="5"/>
    <line x1="105" y1="2" x2="105" y2="8"/>
    <line x1="2" y1="105" x2="8" y2="105"/>
    <line x1="105" y1="502" x2="105" y2="508"/>
    <line x1="502" y1="105" x2="508" y2="105"/>
    <line x1="205" y1="2" x2="205" y2="8"/>
    <line x1="2" y1="205" x2="8" y2="205"/>
    <line x1="205" y1="502" x2="205" y2="508"/>
    <line x1="502" y1="205" x2="508" y2="205"/>
    <line x1="305" y1="2" x2="305" y2="8"/>
    <line x1="2" y1="305" x2="8" y2="305"/>
    <line x1="305" y1="502" x2="305" y2="508"/>
    <line x1="502" y1="305" x2="508" y2="305"/>
    <line x1="405" y1="2" x2="405" y2="8"/>
    <line x1="2" y1="405" x2="8" y2="405"/>
    <line x1="405" y1="502" x2="405" y2="508"/>
    <line x1="502" y1="405" x2="508" y2="405"/>
  </g>
  <g stroke="gray" stroke-width="1" stroke-dasharray="5,5">
    <line x1="105" y1="5" x2="105" y2="505"/>
    <line x1="5" y1="105" x2="505" y2="105"/>
    <line x1="205" y1="5" x2="205" y2="505"/>
    <line x1="5" y1="205" x2="505" y2="205"/>
    <line x1="305" y1="5" x2="305" y2="505"/>
    <line x1="5" y1="305" x2="505" y2="305"/>
    <line x1="405" y1="5" x2="405" y2="505"/>
    <line x1="5" y1="405" x2="505" y2="405"/>
  </g>
</svg>
