<?xml version="1.0" standalone="no"?>
<!DOCTYPE svg PUBLIC "-//W3C//DTD SVG 1.1//EN" 
  "http://www.w3.org/Graphics/SVG/1.1/DTD/svg11.dtd">
<svg width="510" height="510" version="1.1" id="toplevel"
    xmlns="http://www.w3.org/2000/svg"
    xmlns:xlink="http://www.w3.org/1999/xlink">
  <polygon points="132,352 422,283 426,280 426,279 228,185 115,158 85,207 92,216 84,233"
           fill="bisque"/>
  <g stroke="chocolate" stroke-width="1">
    <line x1="399" y1="282" x2="409" y2="271"/>
    <circle cx="399" cy="282" r="2"/>
    <circle cx="409" cy="271" r="2"/>
  </g>
  <g stroke="chocolate" stroke-width="1">
    <line x1="396" y1="289" x2="408" y2="277"/>
    <circle cx="396" cy="289" r="2"/>
    <circle cx="408" cy="277" r="2"/>
  </g>
  <g stroke="chocolate" stroke-width="1">
    <line x1="421" y1="283" x2="426" y2="279"/>
    <circle cx="421" cy="283" r="2"/>
    <circle cx="426" cy="279" r="2"/>
  </g>
  <g stroke="chocolate" stroke-width="1">
    <line x1="298" y1="313" x2="359" y2="247"/>
    <circle cx="298" cy="313" r="2"/>
    <circle cx="359" cy="247" r="2"/>
  </g>
  <g stroke="chocolate" stroke-width="1">
    <line x1="422" y1="283" x2="426" y2="280"/>
    <circle cx="422" cy="283" r="2"/>
    <circle cx="426" cy="280" r="2"/>
  </g>
  <g stroke="chocolate" stroke-width="1">
    <line x1="248" y1="200" x2="252" y2="196"/>
    <circle cx="248" cy="200" r="2"/>
    <circle cx="252" cy="196" r="2"/>
  </g>
  <g stroke="chocolate" stroke-width="1">
    <line x1="234" y1="189" x2="235" y2="188"/>
    <circle cx="234" cy="189" r="2"/>
    <circle cx="235" cy="188" r="2"/>
  </g>
  <g stroke="chocolate" stroke-width="1">
    <line x1="388" y1="291" x2="397" y2="275"/>
    <circle cx="388" cy="291" r="2"/>
    <circle cx="397" cy="275" r="2"/>
  </g>
  <g stroke="chocolate" stroke-width="1">
    <line x1="234" y1="189" x2="234" y2="188"/>
    <circle cx="234" cy="189" r="2"/>
    <circle cx="234" cy="188" r="2"/>
  </g>
  <g stroke="chocolate" stroke-width="1">
    <line x1="403" y1="287" x2="408" y2="277"/>
    <circle cx="403" cy="287" r="2"/>
    <circle cx="408" cy="277" r="2"/>
  </g>
  <g stroke="chocolate" stroke-width="1">
    <line x1="210" y1="309" x2="236" y2="264"/>
    <circle cx="210" cy="309" r="2"/>
    <circle cx="236" cy="264" r="2"/>
  </g>
  <g stroke="chocolate" stroke-width="1">
    <line x1="129" y1="310" x2="203" y2="179"/>
    <circle cx="129" cy="310" r="2"/>
    <circle cx="203" cy="179" r="2"/>
  </g>
  <g stroke="chocolate" stroke-width="1">
    <line x1="85" y1="207" x2="115" y2="158"/>
    <circle cx="85" cy="207" r="2"/>
    <circle cx="115" cy="158" r="2"/>
  </g>
  <g stroke="chocolate" stroke-width="1">
    <line x1="372" y1="295" x2="383" y2="273"/>
    <circle cx="372" cy="295" r="2"/>
    <circle cx="383" cy="273" r="2"/>
  </g>
  <g stroke="chocolate" stroke-width="1">
    <line x1="84" y1="233" x2="103" y2="194"/>
    <circle cx="84" cy="233" r="2"/>
    <circle cx="103" cy="194" r="2"/>
  </g>
  <g stroke="chocolate" stroke-width="1">
    <line x1="404" y1="287" x2="407" y2="279"/>
    <circle cx="404" cy="287" r="2"/>
    <circle cx="407" cy="279" r="2"/>
  </g>
  <g stroke="chocolate" stroke-width="1">
    <line x1="217" y1="239" x2="234" y2="188"/>
    <circle cx="217" cy="239" r="2"/>
    <circle cx="234" cy="188" r="2"/>
  </g>
  <g stroke="chocolate" stroke-width="1">
    <line x1="172" y1="343" x2="225" y2="184"/>
    <circle cx="172" cy="343" r="2"/>
    <circle cx="225" cy="184" r="2"/>
  </g>
  <g stroke="chocolate" stroke-width="1">
    <line x1="354" y1="281" x2="394" y2="263"/>
    <circle cx="354" cy="281" r="2"/>
    <circle cx="394" cy="263" r="2"/>
  </g>
  <g stroke="chocolate" stroke-width="1">
    <line x1="159" y1="297" x2="236" y2="264"/>
    <circle cx="159" cy="297" r="2"/>
    <circle cx="236" cy="264" r="2"/>
  </g>
  <g stroke="chocolate" stroke-width="1">
    <line x1="219" y1="331" x2="252" y2="196"/>
    <circle cx="219" cy="331" r="2"/>
    <circle cx="252" cy="196" r="2"/>
  </g>
  <g stroke="chocolate" stroke-width="1">
    <line x1="158" y1="346" x2="185" y2="229"/>
    <circle cx="158" cy="346" r="2"/>
    <circle cx="185" cy="229" r="2"/>
  </g>
  <g stroke="chocolate" stroke-width="1">
    <line x1="406" y1="287" x2="407" y2="279"/>
    <circle cx="406" cy="287" r="2"/>
    <circle cx="407" cy="279" r="2"/>
  </g>
  <g stroke="chocolate" stroke-width="1">
    <line x1="408" y1="277" x2="409" y2="271"/>
    <circle cx="408" cy="277" r="2"/>
    <circle cx="409" cy="271" r="2"/>
  </g>
  <g stroke="chocolate" stroke-width="1">
    <line x1="354" y1="281" x2="359" y2="247"/>
    <circle cx="354" cy="281" r="2"/>
    <circle cx="359" cy="247" r="2"/>
  </g>
  <g stroke="chocolate" stroke-width="1">
    <line x1="229" y1="229" x2="235" y2="188"/>
    <circle cx="229" cy="229" r="2"/>
    <circle cx="235" cy="188" r="2"/>
  </g>
  <g stroke="chocolate" stroke-width="1">
    <line x1="217" y1="239" x2="225" y2="184"/>
    <circle cx="217" cy="239" r="2"/>
    <circle cx="225" cy="184" r="2"/>
  </g>
  <g stroke="chocolate" stroke-width="1">
    <line x1="132" y1="352" x2="422" y2="283"/>
    <circle cx="132" cy="352" r="2"/>
    <circle cx="422" cy="283" r="2"/>
  </g>
  <g stroke="chocolate" stroke-width="1">
    <line x1="426" y1="280" x2="426" y2="279"/>
    <circle cx="426" cy="280" r="2"/>
    <circle cx="426" cy="279" r="2"/>
  </g>
  <g stroke="chocolate" stroke-width="1">
    <line x1="100" y1="273" x2="103" y2="194"/>
    <circle cx="100" cy="273" r="2"/>
    <circle cx="103" cy="194" r="2"/>
  </g>
  <g stroke="chocolate" stroke-width="1">
    <line x1="210" y1="309" x2="203" y2="179"/>
    <circle cx="210" cy="309" r="2"/>
    <circle cx="203" cy="179" r="2"/>
  </g>
  <g stroke="chocolate" stroke-width="1">
    <line x1="132" y1="352" x2="115" y2="158"/>
    <circle cx="132" cy="352" r="2"/>
    <circle cx="115" cy="158" r="2"/>
  </g>
  <g stroke="chocolate" stroke-width="1">
    <line x1="424" y1="278" x2="397" y2="275"/>
    <circle cx="424" cy="278" r="2"/>
    <circle cx="397" cy="275" r="2"/>
  </g>
  <g stroke="chocolate" stroke-width="1">
    <line x1="362" y1="248" x2="229" y2="229"/>
    <circle cx="362" cy="248" r="2"/>
    <circle cx="229" cy="229" r="2"/>
  </g>
  <g stroke="chocolate" stroke-width="1">
    <line x1="399" y1="282" x2="394" y2="263"/>
    <circle cx="399" cy="282" r="2"/>
    <circle cx="394" cy="263" r="2"/>
  </g>
  <g stroke="chocolate" stroke-width="1">
    <line x1="224" y1="312" x2="159" y2="297"/>
    <circle cx="224" cy="312" r="2"/>
    <circle cx="159" cy="297" r="2"/>
  </g>
  <g stroke="chocolate" stroke-width="1">
    <line x1="422" y1="283" x2="185" y2="229"/>
    <circle cx="422" cy="283" r="2"/>
    <circle cx="185" cy="229" r="2"/>
  </g>
  <g stroke="chocolate" stroke-width="1">
    <line x1="132" y1="352" x2="84" y2="233"/>
    <circle cx="132" cy="352" r="2"/>
    <circle cx="84" cy="233" r="2"/>
  </g>
  <g stroke="chocolate" stroke-width="1">
    <line x1="399" y1="282" x2="85" y2="207"/>
    <circle cx="399" cy="282" r="2"/>
    <circle cx="85" cy="207" r="2"/>
  </g>
  <g stroke="chocolate" stroke-width="1">
    <line x1="228" y1="185" x2="115" y2="158"/>
    <circle cx="228" cy="185" r="2"/>
    <circle cx="115" cy="158" r="2"/>
  </g>
  <g stroke="chocolate" stroke-width="1">
    <line x1="421" y1="283" x2="383" y2="273"/>
    <circle cx="421" cy="283" r="2"/>
    <circle cx="383" cy="273" r="2"/>
  </g>
  <g stroke="chocolate" stroke-width="1">
    <line x1="396" y1="289" x2="377" y2="284"/>
    <circle cx="396" cy="289" r="2"/>
    <circle cx="377" cy="284" r="2"/>
  </g>
  <g stroke="chocolate" stroke-width="1">
    <line x1="298" y1="313" x2="84" y2="233"/>
    <circle cx="298" cy="313" r="2"/>
    <circle cx="84" cy="233" r="2"/>
  </g>
  <g stroke="chocolate" stroke-width="1">
    <line x1="426" y1="279" x2="228" y2="185"/>
    <circle cx="426" cy="279" r="2"/>
    <circle cx="228" cy="185" r="2"/>
  </g>
  <g stroke="chocolate" stroke-width="1">
    <line x1="158" y1="346" x2="129" y2="310"/>
    <circle cx="158" cy="346" r="2"/>
    <circle cx="129" cy="310" r="2"/>
  </g>
  <g stroke="chocolate" stroke-width="1">
    <line x1="159" y1="297" x2="85" y2="207"/>
    <circle cx="159" cy="297" r="2"/>
    <circle cx="85" cy="207" r="2"/>
  </g>
  <g stroke="chocolate" stroke-width="1">
    <line x1="219" y1="331" x2="103" y2="194"/>
    <circle cx="219" cy="331" r="2"/>
    <circle cx="103" cy="194" r="2"/>
  </g>
  <g stroke="chocolate" stroke-width="1">
    <line x1="172" y1="343" x2="100" y2="273"/>
    <circle cx="172" cy="343" r="2"/>
    <circle cx="100" cy="273" r="2"/>
  </g>
  <g stroke="chocolate" stroke-width="1">
    <line x1="406" y1="287" x2="397" y2="275"/>
    <circle cx="406" cy="287" r="2"/>
    <circle cx="397" cy="275" r="2"/>
  </g>
  <g stroke="chocolate" stroke-width="1">
    <line x1="388" y1="291" x2="377" y2="284"/>
    <circle cx="388" cy="291" r="2"/>
    <circle cx="377" cy="284" r="2"/>
  </g>
  <g stroke="chocolate" stroke-width="1">
    <line x1="372" y1="295" x2="228" y2="185"/>
    <circle cx="372" cy="295" r="2"/>
    <circle cx="228" cy="185" r="2"/>
  </g>
  <g stroke="chocolate" stroke-width="1">
    <line x1="403" y1="287" x2="383" y2="273"/>
    <circle cx="403" cy="287" r="2"/>
    <circle cx="383" cy="273" r="2"/>
  </g>
  <g stroke="chocolate" stroke-width="1">
    <line x1="426" y1="280" x2="424" y2="278"/>
    <circle cx="426" cy="280" r="2"/>
    <circle cx="424" cy="278" r="2"/>
  </g>
  <g stroke="chocolate" stroke-width="1">
    <line x1="404" y1="287" x2="362" y2="248"/>
    <circle cx="404" cy="287" r="2"/>
    <circle cx="362" cy="248" r="2"/>
  </g>
  <g stroke="black" stroke-width="1">
    <line x1="5" y1="5" x2="505" y2="5"/>
    <line x1="5" y1="5" x2="5" y2="505"/>
    <line x1="505" y1="505" x2="5" y2="505"/>
    <line x1="505" y1="505" x2="505" y2="5"/>
    <line x1="105" y1="2" x2="105" y2="8"/>
    <line x1="2" y1="105" x2="8" y2="105"/>
    <line x1="105" y1="502" x2="105" y2="508"/>
    <line x1="502" y1="105" x2="508" y2="105"/>
    <line x1="205" y1="2" x2="205" y2="8"/>
    <line x1="2" y1="205" x2="8" y2="205"/>
    <line x1="205" y1="502" x2="205" y2="508"/>
    <line x1="502" y1="205" x2="508" y2="205"/>
    <line x1="305" y1="2" x2="305" y2="8"/>
    <line x1="2" y1="305" x2="8" y2="305"/>
    <line x1="305" y1="502" x2="305" y2="508"/>
    <line x1="502" y1="305" x2="508" y2="305"/>
    <line x1="405" y1="2" x2="405" y2="8"/>
    <line x1="2" y1="405" x2="8" y2="405"/>
    <line x1="405" y1="502" x2="405" y2="508"/>
    <line x1="502" y1="405" x2="508" y2="405"/>
  </g>
  <g stroke="gray" stroke-width="1" stroke-dasharray="5,5">
    <line x1="105" y1="5" x2="105" y2="505"/>
    <line x1="5" y1="105" x2="505" y2="105"/>
    <line x1="205" y1="5" x2="205" y2="505"/>
    <line x1="5" y1="205" x2="505" y2="205"/>
    <line x1="305" y1="5" x2="305" y2="505"/>
    <line x1="5" y1="305" x2="505" y2="305"/>
    <line x1="405" y1="5" x2="405" y2="505"/>
    <line x1="5" y1="405" x2="505" y2="405"/>
  </g>
</svg>
