<?xml version="1.0" standalone="no"?>
<!DOCTYPE svg PUBLIC "-//W3C//DTD SVG 1.1//EN" 
  "http://www.w3.org/Graphics/SVG/1.1/DTD/svg11.dtd">
<svg width="510" height="510" version="1.1" id="toplevel"
    xmlns="http://www.w3.org/2000/svg"
    xmlns:xlink="http://www.w3.org/1999/xlink">
  <polygon points="298,386 405,373 405,253 234,124 105,253 166,345 295,360"
           fill="bisque"/>
  <g stroke="chocolate" stroke-width="1">
    <line x1="298" y1="386" x2="405" y2="373"/>
    <circle cx="298" cy="386" r="2"/>
    <circle cx="405" cy="373" r="2"/>
  </g>
  <g stroke="chocolate" stroke-width="1">
    <line x1="288" y1="192" x2="308" y2="180"/>
    <circle cx="288" cy="192" r="2"/>
    <circle cx="308" cy="180" r="2"/>
  </g>
  <g stroke="chocolate" stroke-width="1">
    <line x1="357" y1="267" x2="405" y2="253"/>
    <circle cx="357" cy="267" r="2"/>
    <circle cx="405" cy="253" r="2"/>
  </g>
  <g stroke="chocolate" stroke-width="1">
    <line x1="155" y1="328" x2="222" y2="253"/>
    <circle cx="155" cy="328" r="2"/>
    <circle cx="222" cy="253" r="2"/>
  </g>
  <g stroke="chocolate" stroke-width="1">
    <line x1="327" y1="234" x2="345" y2="227"/>
    <circle cx="327" cy="234" r="2"/>
    <circle cx="345" cy="227" r="2"/>
  </g>
  <g stroke="chocolate" stroke-width="1">
    <line x1="238" y1="203" x2="288" y2="165"/>
    <circle cx="238" cy="203" r="2"/>
    <circle cx="288" cy="165" r="2"/>
  </g>
  <g stroke="chocolate" stroke-width="1">
    <line x1="288" y1="192" x2="297" y2="180"/>
    <circle cx="288" cy="192" r="2"/>
    <circle cx="297" cy="180" r="2"/>
  </g>
  <g stroke="chocolate" stroke-width="1">
    <line x1="292" y1="197" x2="315" y2="186"/>
    <circle cx="292" cy="197" r="2"/>
    <circle cx="315" cy="186" r="2"/>
  </g>
  <g stroke="chocolate" stroke-width="1">
    <line x1="259" y1="182" x2="288" y2="165"/>
    <circle cx="259" cy="182" r="2"/>
    <circle cx="288" cy="165" r="2"/>
  </g>
  <g stroke="chocolate" stroke-width="1">
    <line x1="291" y1="196" x2="315" y2="185"/>
    <circle cx="291" cy="196" r="2"/>
    <circle cx="315" cy="185" r="2"/>
  </g>
  <g stroke="chocolate" stroke-width="1">
    <line x1="248" y1="150" x2="258" y2="143"/>
    <circle cx="248" cy="150" r="2"/>
    <circle cx="258" cy="143" r="2"/>
  </g>
  <g stroke="chocolate" stroke-width="1">
    <line x1="248" y1="150" x2="256" y2="141"/>
    <circle cx="248" cy="150" r="2"/>
    <circle cx="256" cy="141" r="2"/>
  </g>
  <g stroke="chocolate" stroke-width="1">
    <line x1="292" y1="197" x2="300" y2="184"/>
    <circle cx="292" cy="197" r="2"/>
    <circle cx="300" cy="184" r="2"/>
  </g>
  <g stroke="chocolate" stroke-width="1">
    <line x1="105" y1="253" x2="234" y2="124"/>
    <circle cx="105" cy="253" r="2"/>
    <circle cx="234" cy="124" r="2"/>
  </g>
  <g stroke="chocolate" stroke-width="1">
    <line x1="230" y1="178" x2="256" y2="141"/>
    <circle cx="230" cy="178" r="2"/>
    <circle cx="256" cy="141" r="2"/>
  </g>
  <g stroke="chocolate" stroke-width="1">
    <line x1="105" y1="253" x2="204" y2="212"/>
    <circle cx="105" cy="253" r="2"/>
    <circle cx="204" cy="212" r="2"/>
  </g>
  <g stroke="chocolate" stroke-width="1">
    <line x1="233" y1="155" x2="257" y2="142"/>
    <circle cx="233" cy="155" r="2"/>
    <circle cx="257" cy="142" r="2"/>
  </g>
  <g stroke="chocolate" stroke-width="1">
    <line x1="327" y1="234" x2="335" y2="217"/>
    <circle cx="327" cy="234" r="2"/>
    <circle cx="335" cy="217" r="2"/>
  </g>
  <g stroke="chocolate" stroke-width="1">
    <line x1="291" y1="196" x2="300" y2="177"/>
    <circle cx="291" cy="196" r="2"/>
    <circle cx="300" cy="177" r="2"/>
  </g>
  <g stroke="chocolate" stroke-width="1">
    <line x1="155" y1="328" x2="216" y2="219"/>
    <circle cx="155" cy="328" r="2"/>
    <circle cx="216" cy="219" r="2"/>
  </g>
  <g stroke="chocolate" stroke-width="1">
    <line x1="324" y1="231" x2="345" y2="227"/>
    <circle cx="324" cy="231" r="2"/>
    <circle cx="345" cy="227" r="2"/>
  </g>
  <g stroke="chocolate" stroke-width="1">
    <line x1="281" y1="185" x2="305" y2="178"/>
    <circle cx="281" cy="185" r="2"/>
    <circle cx="305" cy="178" r="2"/>
  </g>
  <g stroke="chocolate" stroke-width="1">
    <line x1="230" y1="130" x2="234" y2="124"/>
    <circle cx="230" cy="130" r="2"/>
    <circle cx="234" cy="124" r="2"/>
  </g>
  <g stroke="chocolate" stroke-width="1">
    <line x1="230" y1="130" x2="237" y2="127"/>
    <circle cx="230" cy="130" r="2"/>
    <circle cx="237" cy="127" r="2"/>
  </g>
  <g stroke="chocolate" stroke-width="1">
    <line x1="281" y1="185" x2="288" y2="165"/>
    <circle cx="281" cy="185" r="2"/>
    <circle cx="288" cy="165" r="2"/>
  </g>
  <g stroke="chocolate" stroke-width="1">
    <line x1="405" y1="373" x2="166" y2="345"/>
    <circle cx="405" cy="373" r="2"/>
    <circle cx="166" cy="345" r="2"/>
  </g>
  <g stroke="chocolate" stroke-width="1">
    <line x1="283" y1="187" x2="300" y2="184"/>
    <circle cx="283" cy="187" r="2"/>
    <circle cx="300" cy="184" r="2"/>
  </g>
  <g stroke="chocolate" stroke-width="1">
    <line x1="324" y1="231" x2="330" y2="208"/>
    <circle cx="324" cy="231" r="2"/>
    <circle cx="330" cy="208" r="2"/>
  </g>
  <g stroke="chocolate" stroke-width="1">
    <line x1="222" y1="253" x2="258" y2="143"/>
    <circle cx="222" cy="253" r="2"/>
    <circle cx="258" cy="143" r="2"/>
  </g>
  <g stroke="chocolate" stroke-width="1">
    <line x1="305" y1="189" x2="308" y2="180"/>
    <circle cx="305" cy="189" r="2"/>
    <circle cx="308" cy="180" r="2"/>
  </g>
  <g stroke="chocolate" stroke-width="1">
    <line x1="253" y1="155" x2="271" y2="152"/>
    <circle cx="253" cy="155" r="2"/>
    <circle cx="271" cy="152" r="2"/>
  </g>
  <g stroke="chocolate" stroke-width="1">
    <line x1="166" y1="345" x2="204" y2="212"/>
    <circle cx="166" cy="345" r="2"/>
    <circle cx="204" cy="212" r="2"/>
  </g>
  <g stroke="chocolate" stroke-width="1">
    <line x1="283" y1="187" x2="288" y2="165"/>
    <circle cx="283" cy="187" r="2"/>
    <circle cx="288" cy="165" r="2"/>
  </g>
  <g stroke="chocolate" stroke-width="1">
    <line x1="253" y1="155" x2="257" y2="142"/>
    <circle cx="253" cy="155" r="2"/>
    <circle cx="257" cy="142" r="2"/>
  </g>
  <g stroke="chocolate" stroke-width="1">
    <line x1="315" y1="190" x2="315" y2="186"/>
    <circle cx="315" cy="190" r="2"/>
    <circle cx="315" cy="186" r="2"/>
  </g>
  <g stroke="chocolate" stroke-width="1">
    <line x1="155" y1="203" x2="338" y2="203"/>
    <circle cx="155" cy="203" r="2"/>
    <circle cx="338" cy="203" r="2"/>
  </g>
  <g stroke="chocolate" stroke-width="1">
    <line x1="230" y1="178" x2="237" y2="127"/>
    <circle cx="230" cy="178" r="2"/>
    <circle cx="237" cy="127" r="2"/>
  </g>
  <g stroke="chocolate" stroke-width="1">
    <line x1="315" y1="190" x2="315" y2="185"/>
    <circle cx="315" cy="190" r="2"/>
    <circle cx="315" cy="185" r="2"/>
  </g>
  <g stroke="chocolate" stroke-width="1">
    <line x1="323" y1="191" x2="230" y2="178"/>
    <circle cx="323" cy="191" r="2"/>
    <circle cx="230" cy="178" r="2"/>
  </g>
  <g stroke="chocolate" stroke-width="1">
    <line x1="268" y1="150" x2="213" y2="145"/>
    <circle cx="268" cy="150" r="2"/>
    <circle cx="213" cy="145" r="2"/>
  </g>
  <g stroke="chocolate" stroke-width="1">
    <line x1="155" y1="328" x2="155" y2="203"/>
    <circle cx="155" cy="328" r="2"/>
    <circle cx="155" cy="203" r="2"/>
  </g>
  <g stroke="chocolate" stroke-width="1">
    <line x1="305" y1="189" x2="305" y2="178"/>
    <circle cx="305" cy="189" r="2"/>
    <circle cx="305" cy="178" r="2"/>
  </g>
  <g stroke="chocolate" stroke-width="1">
    <line x1="405" y1="373" x2="405" y2="253"/>
    <circle cx="405" cy="373" r="2"/>
    <circle cx="405" cy="253" r="2"/>
  </g>
  <g stroke="chocolate" stroke-width="1">
    <line x1="241" y1="130" x2="237" y2="129"/>
    <circle cx="241" cy="130" r="2"/>
    <circle cx="237" cy="129" r="2"/>
  </g>
  <g stroke="chocolate" stroke-width="1">
    <line x1="222" y1="253" x2="213" y2="145"/>
    <circle cx="222" cy="253" r="2"/>
    <circle cx="213" cy="145" r="2"/>
  </g>
  <g stroke="chocolate" stroke-width="1">
    <line x1="335" y1="217" x2="303" y2="208"/>
    <circle cx="335" cy="217" r="2"/>
    <circle cx="303" cy="208" r="2"/>
  </g>
  <g stroke="chocolate" stroke-width="1">
    <line x1="241" y1="130" x2="237" y2="129"/>
    <circle cx="241" cy="130" r="2"/>
    <circle cx="237" cy="129" r="2"/>
  </g>
  <g stroke="chocolate" stroke-width="1">
    <line x1="298" y1="386" x2="271" y2="152"/>
    <circle cx="298" cy="386" r="2"/>
    <circle cx="271" cy="152" r="2"/>
  </g>
  <g stroke="chocolate" stroke-width="1">
    <line x1="303" y1="208" x2="297" y2="180"/>
    <circle cx="303" cy="208" r="2"/>
    <circle cx="297" cy="180" r="2"/>
  </g>
  <g stroke="chocolate" stroke-width="1">
    <line x1="285" y1="163" x2="218" y2="140"/>
    <circle cx="285" cy="163" r="2"/>
    <circle cx="218" cy="140" r="2"/>
  </g>
  <g stroke="chocolate" stroke-width="1">
    <line x1="216" y1="219" x2="204" y2="212"/>
    <circle cx="216" cy="219" r="2"/>
    <circle cx="204" cy="212" r="2"/>
  </g>
  <g stroke="chocolate" stroke-width="1">
    <line x1="166" y1="345" x2="105" y2="253"/>
    <circle cx="166" cy="345" r="2"/>
    <circle cx="105" cy="253" r="2"/>
  </g>
  <g stroke="chocolate" stroke-width="1">
    <line x1="238" y1="203" x2="218" y2="140"/>
    <circle cx="238" cy="203" r="2"/>
    <circle cx="218" cy="140" r="2"/>
  </g>
  <g stroke="chocolate" stroke-width="1">
    <line x1="330" y1="208" x2="281" y2="185"/>
    <circle cx="330" cy="208" r="2"/>
    <circle cx="281" cy="185" r="2"/>
  </g>
  <g stroke="chocolate" stroke-width="1">
    <line x1="357" y1="267" x2="338" y2="203"/>
    <circle cx="357" cy="267" r="2"/>
    <circle cx="338" cy="203" r="2"/>
  </g>
  <g stroke="chocolate" stroke-width="1">
    <line x1="281" y1="185" x2="268" y2="150"/>
    <circle cx="281" cy="185" r="2"/>
    <circle cx="268" cy="150" r="2"/>
  </g>
  <g stroke="chocolate" stroke-width="1">
    <line x1="300" y1="177" x2="250" y2="151"/>
    <circle cx="300" cy="177" r="2"/>
    <circle cx="250" cy="151" r="2"/>
  </g>
  <g stroke="chocolate" stroke-width="1">
    <line x1="250" y1="151" x2="241" y2="130"/>
    <circle cx="250" cy="151" r="2"/>
    <circle cx="241" cy="130" r="2"/>
  </g>
  <g stroke="chocolate" stroke-width="1">
    <line x1="297" y1="180" x2="253" y2="155"/>
    <circle cx="297" cy="180" r="2"/>
    <circle cx="253" cy="155" r="2"/>
  </g>
  <g stroke="chocolate" stroke-width="1">
    <line x1="253" y1="155" x2="241" y2="130"/>
    <circle cx="253" cy="155" r="2"/>
    <circle cx="241" cy="130" r="2"/>
  </g>
  <g stroke="chocolate" stroke-width="1">
    <line x1="357" y1="267" x2="323" y2="191"/>
    <circle cx="357" cy="267" r="2"/>
    <circle cx="323" cy="191" r="2"/>
  </g>
  <g stroke="chocolate" stroke-width="1">
    <line x1="259" y1="182" x2="233" y2="155"/>
    <circle cx="259" cy="182" r="2"/>
    <circle cx="233" cy="155" r="2"/>
  </g>
  <g stroke="chocolate" stroke-width="1">
    <line x1="405" y1="253" x2="234" y2="124"/>
    <circle cx="405" cy="253" r="2"/>
    <circle cx="234" cy="124" r="2"/>
  </g>
  <g stroke="chocolate" stroke-width="1">
    <line x1="357" y1="267" x2="230" y2="130"/>
    <circle cx="357" cy="267" r="2"/>
    <circle cx="230" cy="130" r="2"/>
  </g>
  <g stroke="chocolate" stroke-width="1">
    <line x1="300" y1="184" x2="285" y2="163"/>
    <circle cx="300" cy="184" r="2"/>
    <circle cx="285" cy="163" r="2"/>
  </g>
  <g stroke="black" stroke-width="1">
    <line x1="5" y1="5" x2="505" y2="5"/>
    <line x1="5" y1="5" x2="5" y2="505"/>
    <line x1="505" y1="505" x2="5" y2="505"/>
    <line x1="505" y1="505" x2="505" y2="5"/>
    <line x1="105" y1="2" x2="105" y2="8"/>
    <line x1="2" y1="105" x2="8" y2="105"/>
    <line x1="105" y1="502" x2="105" y2="508"/>
    <line x1="502" y1="105" x2="508" y2="105"/>
    <line x1="205" y1="2" x2="205" y2="8"/>
    <line x1="2" y1="205" x2="8" y2="205"/>
    <line x1="205" y1="502" x2="205" y2="508"/>
    <line x1="502" y1="205" x2="508" y2="205"/>
    <line x1="305" y1="2" x2="305" y2="8"/>
    <line x1="2" y1="305" x2="8" y2="305"/>
    <line x1="305" y1="502" x2="305" y2="508"/>
    <line x1="502" y1="305" x2="508" y2="305"/>
    <line x1="405" y1="2" x2="405" y2="8"/>
    <line x1="2" y1="405" x2="8" y2="405"/>
    <line x1="405" y1="502" x2="405" y2="508"/>
    <line x1="502" y1="405" x2="508" y2="405"/>
  </g>
  <g stroke="gray" stroke-width="1" stroke-dasharray="5,5">
    <line x1="105" y1="5" x2="105" y2="505"/>
    <line x1="5" y1="105" x2="505" y2="105"/>
    <line x1="205" y1="5" x2="205" y2="505"/>
    <line x1="5" y1="205" x2="505" y2="205"/>
    <line x1="305" y1="5" x2="305" y2="505"/>
    <line x1="5" y1="305" x2="505" y2="305"/>
    <line x1="405" y1="5" x2="405" y2="505"/>
    <line x1="5" y1="405" x2="505" y2="405"/>
  </g>
</svg>
