<?xml version="1.0" standalone="no"?>
<!DOCTYPE svg PUBLIC "-//W3C//DTD SVG 1.1//EN" 
  "http://www.w3.org/Graphics/SVG/1.1/DTD/svg11.dtd">
<svg width="510" height="510" version="1.1" id="toplevel"
    xmlns="http://www.w3.org/2000/svg"
    xmlns:xlink="http://www.w3.org/1999/xlink">
  <polygon points="305,431 379,346 394,262 362,150 279,79 116,268" fill="bisque"/>
  <g stroke="chocolate" stroke-width="1">
    <line x1="379" y1="346" x2="394" y2="262"/>
    <circle cx="379" cy="346" r="2"/>
    <circle cx="394" cy="262" r="2"/>
  </g>
  <g stroke="chocolate" stroke-width="1">
    <line x1="305" y1="431" x2="322" y2="182"/>
    <circle cx="305" cy="431" r="2"/>
    <circle cx="322" cy="182" r="2"/>
  </g>
  <g stroke="chocolate" stroke-width="1">
    <line x1="305" y1="431" x2="370" y2="177"/>
    <circle cx="305" cy="431" r="2"/>
    <circle cx="370" cy="177" r="2"/>
  </g>
  <g stroke="chocolate" stroke-width="1">
    <line x1="321" y1="285" x2="362" y2="150"/>
    <circle cx="321" cy="285" r="2"/>
    <circle cx="362" cy="150" r="2"/>
  </g>
  <g stroke="chocolate" stroke-width="1">
    <line x1="258" y1="390" x2="368" y2="172"/>
    <circle cx="258" cy="390" r="2"/>
    <circle cx="368" cy="172" r="2"/>
  </g>
  <g stroke="chocolate" stroke-width="1">
    <line x1="394" y1="262" x2="362" y2="150"/>
    <circle cx="394" cy="262" r="2"/>
    <circle cx="362" cy="150" r="2"/>
  </g>
  <g stroke="chocolate" stroke-width="1">
    <line x1="363" y1="303" x2="394" y2="262"/>
    <circle cx="363" cy="303" r="2"/>
    <circle cx="394" cy="262" r="2"/>
  </g>
  <g stroke="chocolate" stroke-width="1">
    <line x1="393" y1="271" x2="357" y2="165"/>
    <circle cx="393" cy="271" r="2"/>
    <circle cx="357" cy="165" r="2"/>
  </g>
  <g stroke="chocolate" stroke-width="1">
    <line x1="327" y1="406" x2="285" y2="297"/>
    <circle cx="327" cy="406" r="2"/>
    <circle cx="285" cy="297" r="2"/>
  </g>
  <g stroke="chocolate" stroke-width="1">
    <line x1="379" y1="346" x2="363" y2="303"/>
    <circle cx="379" cy="346" r="2"/>
    <circle cx="363" cy="303" r="2"/>
  </g>
  <g stroke="chocolate" stroke-width="1">
    <line x1="381" y1="303" x2="345" y2="205"/>
    <circle cx="381" cy="303" r="2"/>
    <circle cx="345" cy="205" r="2"/>
  </g>
  <g stroke="chocolate" stroke-width="1">
    <line x1="366" y1="303" x2="393" y2="271"/>
    <circle cx="366" cy="303" r="2"/>
    <circle cx="393" cy="271" r="2"/>
  </g>
  <g stroke="chocolate" stroke-width="1">
    <line x1="305" y1="431" x2="379" y2="346"/>
    <circle cx="305" cy="431" r="2"/>
    <circle cx="379" cy="346" r="2"/>
  </g>
  <g stroke="chocolate" stroke-width="1">
    <line x1="116" y1="268" x2="279" y2="79"/>
    <circle cx="116" cy="268" r="2"/>
    <circle cx="279" cy="79" r="2"/>
  </g>
  <g stroke="chocolate" stroke-width="1">
    <line x1="366" y1="303" x2="365" y2="301"/>
    <circle cx="366" cy="303" r="2"/>
    <circle cx="365" cy="301" r="2"/>
  </g>
  <g stroke="chocolate" stroke-width="1">
    <line x1="388" y1="298" x2="378" y2="283"/>
    <circle cx="388" cy="298" r="2"/>
    <circle cx="378" cy="283" r="2"/>
  </g>
  <g stroke="chocolate" stroke-width="1">
    <line x1="381" y1="303" x2="388" y2="298"/>
    <circle cx="381" cy="303" r="2"/>
    <circle cx="388" cy="298" r="2"/>
  </g>
  <g stroke="chocolate" stroke-width="1">
    <line x1="345" y1="205" x2="372" y2="185"/>
    <circle cx="345" cy="205" r="2"/>
    <circle cx="372" cy="185" r="2"/>
  </g>
  <g stroke="chocolate" stroke-width="1">
    <line x1="373" y1="353" x2="313" y2="281"/>
    <circle cx="373" cy="353" r="2"/>
    <circle cx="313" cy="281" r="2"/>
  </g>
  <g stroke="chocolate" stroke-width="1">
    <line x1="305" y1="431" x2="116" y2="268"/>
    <circle cx="305" cy="431" r="2"/>
    <circle cx="116" cy="268" r="2"/>
  </g>
  <g stroke="chocolate" stroke-width="1">
    <line x1="370" y1="177" x2="357" y2="165"/>
    <circle cx="370" cy="177" r="2"/>
    <circle cx="357" cy="165" r="2"/>
  </g>
  <g stroke="chocolate" stroke-width="1">
    <line x1="362" y1="150" x2="279" y2="79"/>
    <circle cx="362" cy="150" r="2"/>
    <circle cx="279" cy="79" r="2"/>
  </g>
  <g stroke="chocolate" stroke-width="1">
    <line x1="373" y1="353" x2="285" y2="297"/>
    <circle cx="373" cy="353" r="2"/>
    <circle cx="285" cy="297" r="2"/>
  </g>
  <g stroke="chocolate" stroke-width="1">
    <line x1="368" y1="172" x2="357" y2="165"/>
    <circle cx="368" cy="172" r="2"/>
    <circle cx="357" cy="165" r="2"/>
  </g>
  <g stroke="chocolate" stroke-width="1">
    <line x1="327" y1="406" x2="258" y2="390"/>
    <circle cx="327" cy="406" r="2"/>
    <circle cx="258" cy="390" r="2"/>
  </g>
  <g stroke="chocolate" stroke-width="1">
    <line x1="386" y1="305" x2="321" y2="285"/>
    <circle cx="386" cy="305" r="2"/>
    <circle cx="321" cy="285" r="2"/>
  </g>
  <g stroke="chocolate" stroke-width="1">
    <line x1="386" y1="307" x2="365" y2="301"/>
    <circle cx="386" cy="307" r="2"/>
    <circle cx="365" cy="301" r="2"/>
  </g>
  <g stroke="chocolate" stroke-width="1">
    <line x1="386" y1="305" x2="363" y2="303"/>
    <circle cx="386" cy="305" r="2"/>
    <circle cx="363" cy="303" r="2"/>
  </g>
  <g stroke="chocolate" stroke-width="1">
    <line x1="390" y1="287" x2="378" y2="283"/>
    <circle cx="390" cy="287" r="2"/>
    <circle cx="378" cy="283" r="2"/>
  </g>
  <g stroke="chocolate" stroke-width="1">
    <line x1="386" y1="307" x2="285" y2="297"/>
    <circle cx="386" cy="307" r="2"/>
    <circle cx="285" cy="297" r="2"/>
  </g>
  <g stroke="chocolate" stroke-width="1">
    <line x1="390" y1="287" x2="313" y2="281"/>
    <circle cx="390" cy="287" r="2"/>
    <circle cx="313" cy="281" r="2"/>
  </g>
  <g stroke="chocolate" stroke-width="1">
    <line x1="372" y1="185" x2="322" y2="182"/>
    <circle cx="372" cy="185" r="2"/>
    <circle cx="322" cy="182" r="2"/>
  </g>
  <g stroke="black" stroke-width="1">
    <line x1="5" y1="5" x2="505" y2="5"/>
    <line x1="5" y1="5" x2="5" y2="505"/>
    <line x1="505" y1="505" x2="5" y2="505"/>
    <line x1="505" y1="505" x2="505" y2="5"/>
    <line x1="105" y1="2" x2="105" y2="8"/>
    <line x1="2" y1="105" x2="8" y2="105"/>
    <line x1="105" y1="502" x2="105" y2="508"/>
    <line x1="502" y1="105" x2="508" y2="105"/>
    <line x1="205" y1="2" x2="205" y2="8"/>
    <line x1="2" y1="205" x2="8" y2="205"/>
    <line x1="205" y1="502" x2="205" y2="508"/>
    <line x1="502" y1="205" x2="508" y2="205"/>
    <line x1="305" y1="2" x2="305" y2="8"/>
    <line x1="2" y1="305" x2="8" y2="305"/>
    <line x1="305" y1="502" x2="305" y2="508"/>
    <line x1="502" y1="305" x2="508" y2="305"/>
    <line x1="405" y1="2" x2="405" y2="8"/>
    <line x1="2" y1="405" x2="8" y2="405"/>
    <line x1="405" y1="502" x2="405" y2="508"/>
    <line x1="502" y1="405" x2="508" y2="405"/>
  </g>
  <g stroke="gray" stroke-width="1" stroke-dasharray="5,5">
    <line x1="105" y1="5" x2="105" y2="505"/>
    <line x1="5" y1="105" x2="505" y2="105"/>
    <line x1="205" y1="5" x2="205" y2="505"/>
    <line x1="5" y1="205" x2="505" y2="205"/>
    <line x1="305" y1="5" x2="305" y2="505"/>
    <line x1="5" y1="305" x2="505" y2="305"/>
    <line x1="405" y1="5" x2="405" y2="505"/>
    <line x1="5" y1="405" x2="505" y2="405"/>
  </g>
</svg>
