<?xml version="1.0" standalone="no"?>
<!DOCTYPE svg PUBLIC "-//W3C//DTD SVG 1.1//EN" 
  "http://www.w3.org/Graphics/SVG/1.1/DTD/svg11.dtd">
<svg width="510" height="510" version="1.1" id="toplevel"
    xmlns="http://www.w3.org/2000/svg"
    xmlns:xlink="http://www.w3.org/1999/xlink">
  <polygon points="247,328 328,328 328,315 371,272 337,238 302,273 216,187 191,206 168,182 139,203 160,224 153,235"
           fill="bisque"/>
  <g stroke="chocolate" stroke-width="1">
    <line x1="247" y1="328" x2="153" y2="235"/>
    <circle cx="247" cy="328" r="2"/>
    <circle cx="153" cy="235" r="2"/>
  </g>
  <g stroke="chocolate" stroke-width="1">
    <line x1="264" y1="328" x2="139" y2="203"/>
    <circle cx="264" cy="328" r="2"/>
    <circle cx="139" cy="203" r="2"/>
  </g>
  <g stroke="chocolate" stroke-width="1">
    <line x1="306" y1="328" x2="139" y2="203"/>
    <circle cx="306" cy="328" r="2"/>
    <circle cx="139" cy="203" r="2"/>
  </g>
  <g stroke="chocolate" stroke-width="1">
    <line x1="314" y1="328" x2="168" y2="182"/>
    <circle cx="314" cy="328" r="2"/>
    <circle cx="168" cy="182" r="2"/>
  </g>
  <g stroke="chocolate" stroke-width="1">
    <line x1="218" y1="224" x2="211" y2="218"/>
    <circle cx="218" cy="224" r="2"/>
    <circle cx="211" cy="218" r="2"/>
  </g>
  <g stroke="chocolate" stroke-width="1">
    <line x1="218" y1="299" x2="185" y2="257"/>
    <circle cx="218" cy="299" r="2"/>
    <circle cx="185" cy="257" r="2"/>
  </g>
  <g stroke="chocolate" stroke-width="1">
    <line x1="260" y1="328" x2="203" y2="253"/>
    <circle cx="260" cy="328" r="2"/>
    <circle cx="203" cy="253" r="2"/>
  </g>
  <g stroke="chocolate" stroke-width="1">
    <line x1="328" y1="299" x2="216" y2="187"/>
    <circle cx="328" cy="299" r="2"/>
    <circle cx="216" cy="187" r="2"/>
  </g>
  <g stroke="chocolate" stroke-width="1">
    <line x1="354" y1="289" x2="346" y2="283"/>
    <circle cx="354" cy="289" r="2"/>
    <circle cx="346" cy="283" r="2"/>
  </g>
  <g stroke="chocolate" stroke-width="1">
    <line x1="346" y1="297" x2="312" y2="263"/>
    <circle cx="346" cy="297" r="2"/>
    <circle cx="312" cy="263" r="2"/>
  </g>
  <g stroke="chocolate" stroke-width="1">
    <line x1="361" y1="282" x2="333" y2="260"/>
    <circle cx="361" cy="282" r="2"/>
    <circle cx="333" cy="260" r="2"/>
  </g>
  <g stroke="chocolate" stroke-width="1">
    <line x1="371" y1="272" x2="332" y2="243"/>
    <circle cx="371" cy="272" r="2"/>
    <circle cx="332" cy="243" r="2"/>
  </g>
  <g stroke="chocolate" stroke-width="1">
    <line x1="371" y1="272" x2="337" y2="238"/>
    <circle cx="371" cy="272" r="2"/>
    <circle cx="337" cy="238" r="2"/>
  </g>
  <g stroke="chocolate" stroke-width="1">
    <line x1="354" y1="289" x2="333" y2="260"/>
    <circle cx="354" cy="289" r="2"/>
    <circle cx="333" cy="260" r="2"/>
  </g>
  <g stroke="chocolate" stroke-width="1">
    <line x1="361" y1="282" x2="332" y2="243"/>
    <circle cx="361" cy="282" r="2"/>
    <circle cx="332" cy="243" r="2"/>
  </g>
  <g stroke="chocolate" stroke-width="1">
    <line x1="247" y1="328" x2="328" y2="328"/>
    <circle cx="247" cy="328" r="2"/>
    <circle cx="328" cy="328" r="2"/>
  </g>
  <g stroke="chocolate" stroke-width="1">
    <line x1="218" y1="299" x2="328" y2="299"/>
    <circle cx="218" cy="299" r="2"/>
    <circle cx="328" cy="299" r="2"/>
  </g>
  <g stroke="chocolate" stroke-width="1">
    <line x1="328" y1="247" x2="346" y2="247"/>
    <circle cx="328" cy="247" r="2"/>
    <circle cx="346" cy="247" r="2"/>
  </g>
  <g stroke="chocolate" stroke-width="1">
    <line x1="218" y1="299" x2="218" y2="224"/>
    <circle cx="218" cy="299" r="2"/>
    <circle cx="218" cy="224" r="2"/>
  </g>
  <g stroke="chocolate" stroke-width="1">
    <line x1="328" y1="328" x2="328" y2="247"/>
    <circle cx="328" cy="328" r="2"/>
    <circle cx="328" cy="247" r="2"/>
  </g>
  <g stroke="chocolate" stroke-width="1">
    <line x1="346" y1="297" x2="346" y2="247"/>
    <circle cx="346" cy="297" r="2"/>
    <circle cx="346" cy="247" r="2"/>
  </g>
  <g stroke="chocolate" stroke-width="1">
    <line x1="306" y1="328" x2="339" y2="304"/>
    <circle cx="306" cy="328" r="2"/>
    <circle cx="339" cy="304" r="2"/>
  </g>
  <g stroke="chocolate" stroke-width="1">
    <line x1="342" y1="293" x2="371" y2="272"/>
    <circle cx="342" cy="293" r="2"/>
    <circle cx="371" cy="272" r="2"/>
  </g>
  <g stroke="chocolate" stroke-width="1">
    <line x1="346" y1="283" x2="366" y2="267"/>
    <circle cx="346" cy="283" r="2"/>
    <circle cx="366" cy="267" r="2"/>
  </g>
  <g stroke="chocolate" stroke-width="1">
    <line x1="335" y1="286" x2="364" y2="265"/>
    <circle cx="335" cy="286" r="2"/>
    <circle cx="364" cy="265" r="2"/>
  </g>
  <g stroke="chocolate" stroke-width="1">
    <line x1="328" y1="279" x2="357" y2="258"/>
    <circle cx="328" cy="279" r="2"/>
    <circle cx="357" cy="258" r="2"/>
  </g>
  <g stroke="chocolate" stroke-width="1">
    <line x1="321" y1="272" x2="350" y2="250"/>
    <circle cx="321" cy="272" r="2"/>
    <circle cx="350" cy="250" r="2"/>
  </g>
  <g stroke="chocolate" stroke-width="1">
    <line x1="300" y1="275" x2="342" y2="243"/>
    <circle cx="300" cy="275" r="2"/>
    <circle cx="342" cy="243" r="2"/>
  </g>
  <g stroke="chocolate" stroke-width="1">
    <line x1="314" y1="328" x2="371" y2="272"/>
    <circle cx="314" cy="328" r="2"/>
    <circle cx="371" cy="272" r="2"/>
  </g>
  <g stroke="chocolate" stroke-width="1">
    <line x1="339" y1="304" x2="366" y2="267"/>
    <circle cx="339" cy="304" r="2"/>
    <circle cx="366" cy="267" r="2"/>
  </g>
  <g stroke="chocolate" stroke-width="1">
    <line x1="342" y1="293" x2="364" y2="265"/>
    <circle cx="342" cy="293" r="2"/>
    <circle cx="364" cy="265" r="2"/>
  </g>
  <g stroke="chocolate" stroke-width="1">
    <line x1="264" y1="328" x2="346" y2="247"/>
    <circle cx="264" cy="328" r="2"/>
    <circle cx="346" cy="247" r="2"/>
  </g>
  <g stroke="chocolate" stroke-width="1">
    <line x1="335" y1="286" x2="357" y2="258"/>
    <circle cx="335" cy="286" r="2"/>
    <circle cx="357" cy="258" r="2"/>
  </g>
  <g stroke="chocolate" stroke-width="1">
    <line x1="328" y1="279" x2="350" y2="250"/>
    <circle cx="328" cy="279" r="2"/>
    <circle cx="350" cy="250" r="2"/>
  </g>
  <g stroke="chocolate" stroke-width="1">
    <line x1="247" y1="328" x2="337" y2="238"/>
    <circle cx="247" cy="328" r="2"/>
    <circle cx="337" cy="238" r="2"/>
  </g>
  <g stroke="chocolate" stroke-width="1">
    <line x1="321" y1="272" x2="342" y2="243"/>
    <circle cx="321" cy="272" r="2"/>
    <circle cx="342" cy="243" r="2"/>
  </g>
  <g stroke="chocolate" stroke-width="1">
    <line x1="202" y1="284" x2="265" y2="236"/>
    <circle cx="202" cy="284" r="2"/>
    <circle cx="265" cy="236" r="2"/>
  </g>
  <g stroke="chocolate" stroke-width="1">
    <line x1="260" y1="328" x2="300" y2="275"/>
    <circle cx="260" cy="328" r="2"/>
    <circle cx="300" cy="275" r="2"/>
  </g>
  <g stroke="chocolate" stroke-width="1">
    <line x1="202" y1="266" x2="231" y2="245"/>
    <circle cx="202" cy="266" r="2"/>
    <circle cx="231" cy="245" r="2"/>
  </g>
  <g stroke="chocolate" stroke-width="1">
    <line x1="185" y1="267" x2="224" y2="238"/>
    <circle cx="185" cy="267" r="2"/>
    <circle cx="224" cy="238" r="2"/>
  </g>
  <g stroke="chocolate" stroke-width="1">
    <line x1="179" y1="261" x2="185" y2="257"/>
    <circle cx="179" cy="261" r="2"/>
    <circle cx="185" cy="257" r="2"/>
  </g>
  <g stroke="chocolate" stroke-width="1">
    <line x1="169" y1="250" x2="211" y2="218"/>
    <circle cx="169" cy="250" r="2"/>
    <circle cx="211" cy="218" r="2"/>
  </g>
  <g stroke="chocolate" stroke-width="1">
    <line x1="218" y1="299" x2="265" y2="236"/>
    <circle cx="218" cy="299" r="2"/>
    <circle cx="265" cy="236" r="2"/>
  </g>
  <g stroke="chocolate" stroke-width="1">
    <line x1="202" y1="284" x2="231" y2="245"/>
    <circle cx="202" cy="284" r="2"/>
    <circle cx="231" cy="245" r="2"/>
  </g>
  <g stroke="chocolate" stroke-width="1">
    <line x1="153" y1="235" x2="216" y2="187"/>
    <circle cx="153" cy="235" r="2"/>
    <circle cx="216" cy="187" r="2"/>
  </g>
  <g stroke="chocolate" stroke-width="1">
    <line x1="202" y1="266" x2="224" y2="238"/>
    <circle cx="202" cy="266" r="2"/>
    <circle cx="224" cy="238" r="2"/>
  </g>
  <g stroke="chocolate" stroke-width="1">
    <line x1="180" y1="262" x2="235" y2="207"/>
    <circle cx="180" cy="262" r="2"/>
    <circle cx="235" cy="207" r="2"/>
  </g>
  <g stroke="chocolate" stroke-width="1">
    <line x1="153" y1="217" x2="182" y2="196"/>
    <circle cx="153" cy="217" r="2"/>
    <circle cx="182" cy="196" r="2"/>
  </g>
  <g stroke="chocolate" stroke-width="1">
    <line x1="185" y1="267" x2="214" y2="228"/>
    <circle cx="185" cy="267" r="2"/>
    <circle cx="214" cy="228" r="2"/>
  </g>
  <g stroke="chocolate" stroke-width="1">
    <line x1="179" y1="261" x2="211" y2="218"/>
    <circle cx="179" cy="261" r="2"/>
    <circle cx="211" cy="218" r="2"/>
  </g>
  <g stroke="chocolate" stroke-width="1">
    <line x1="146" y1="210" x2="175" y2="189"/>
    <circle cx="146" cy="210" r="2"/>
    <circle cx="175" cy="189" r="2"/>
  </g>
  <g stroke="chocolate" stroke-width="1">
    <line x1="169" y1="250" x2="216" y2="187"/>
    <circle cx="169" cy="250" r="2"/>
    <circle cx="216" cy="187" r="2"/>
  </g>
  <g stroke="chocolate" stroke-width="1">
    <line x1="139" y1="203" x2="168" y2="182"/>
    <circle cx="139" cy="203" r="2"/>
    <circle cx="168" cy="182" r="2"/>
  </g>
  <g stroke="chocolate" stroke-width="1">
    <line x1="153" y1="235" x2="182" y2="196"/>
    <circle cx="153" cy="235" r="2"/>
    <circle cx="182" cy="196" r="2"/>
  </g>
  <g stroke="chocolate" stroke-width="1">
    <line x1="153" y1="217" x2="175" y2="189"/>
    <circle cx="153" cy="217" r="2"/>
    <circle cx="175" cy="189" r="2"/>
  </g>
  <g stroke="chocolate" stroke-width="1">
    <line x1="146" y1="210" x2="168" y2="182"/>
    <circle cx="146" cy="210" r="2"/>
    <circle cx="168" cy="182" r="2"/>
  </g>
  <g stroke="black" stroke-width="1">
    <line x1="5" y1="5" x2="505" y2="5"/>
    <line x1="5" y1="5" x2="5" y2="505"/>
    <line x1="505" y1="505" x2="5" y2="505"/>
    <line x1="505" y1="505" x2="505" y2="5"/>
    <line x1="105" y1="2" x2="105" y2="8"/>
    <line x1="2" y1="105" x2="8" y2="105"/>
    <line x1="105" y1="502" x2="105" y2="508"/>
    <line x1="502" y1="105" x2="508" y2="105"/>
    <line x1="205" y1="2" x2="205" y2="8"/>
    <line x1="2" y1="205" x2="8" y2="205"/>
    <line x1="205" y1="502" x2="205" y2="508"/>
    <line x1="502" y1="205" x2="508" y2="205"/>
    <line x1="305" y1="2" x2="305" y2="8"/>
    <line x1="2" y1="305" x2="8" y2="305"/>
    <line x1="305" y1="502" x2="305" y2="508"/>
    <line x1="502" y1="305" x2="508" y2="305"/>
    <line x1="405" y1="2" x2="405" y2="8"/>
    <line x1="2" y1="405" x2="8" y2="405"/>
    <line x1="405" y1="502" x2="405" y2="508"/>
    <line x1="502" y1="405" x2="508" y2="405"/>
  </g>
  <g stroke="gray" stroke-width="1" stroke-dasharray="5,5">
    <line x1="105" y1="5" x2="105" y2="505"/>
    <line x1="5" y1="105" x2="505" y2="105"/>
    <line x1="205" y1="5" x2="205" y2="505"/>
    <line x1="5" y1="205" x2="505" y2="205"/>
    <line x1="305" y1="5" x2="305" y2="505"/>
    <line x1="5" y1="305" x2="505" y2="305"/>
    <line x1="405" y1="5" x2="405" y2="505"/>
    <line x1="5" y1="405" x2="505" y2="405"/>
  </g>
</svg>
