<?xml version="1.0" standalone="no"?>
<!DOCTYPE svg PUBLIC "-//W3C//DTD SVG 1.1//EN" 
  "http://www.w3.org/Graphics/SVG/1.1/DTD/svg11.dtd">
<svg width="510" height="510" version="1.1" id="toplevel"
    xmlns="http://www.w3.org/2000/svg"
    xmlns:xlink="http://www.w3.org/1999/xlink">
  <polygon points="172,337 255,304 255,302 255,302 265,290 234,197 130,173 87,248 147,312 153,330 162,327"
           fill="bisque"/>
  <g stroke="chocolate" stroke-width="1">
    <line x1="195" y1="318" x2="195" y2="316"/>
    <circle cx="195" cy="318" r="2"/>
    <circle cx="195" cy="316" r="2"/>
  </g>
  <g stroke="chocolate" stroke-width="1">
    <line x1="172" y1="337" x2="172" y2="284"/>
    <circle cx="172" cy="337" r="2"/>
    <circle cx="172" cy="284" r="2"/>
  </g>
  <g stroke="chocolate" stroke-width="1">
    <line x1="255" y1="304" x2="255" y2="284"/>
    <circle cx="255" cy="304" r="2"/>
    <circle cx="255" cy="284" r="2"/>
  </g>
  <g stroke="chocolate" stroke-width="1">
    <line x1="153" y1="330" x2="139" y2="260"/>
    <circle cx="153" cy="330" r="2"/>
    <circle cx="139" cy="260" r="2"/>
  </g>
  <g stroke="chocolate" stroke-width="1">
    <line x1="255" y1="302" x2="265" y2="290"/>
    <circle cx="255" cy="302" r="2"/>
    <circle cx="265" cy="290" r="2"/>
  </g>
  <g stroke="chocolate" stroke-width="1">
    <line x1="153" y1="330" x2="145" y2="304"/>
    <circle cx="153" cy="330" r="2"/>
    <circle cx="145" cy="304" r="2"/>
  </g>
  <g stroke="chocolate" stroke-width="1">
    <line x1="87" y1="248" x2="130" y2="173"/>
    <circle cx="87" cy="248" r="2"/>
    <circle cx="130" cy="173" r="2"/>
  </g>
  <g stroke="chocolate" stroke-width="1">
    <line x1="265" y1="290" x2="234" y2="197"/>
    <circle cx="265" cy="290" r="2"/>
    <circle cx="234" cy="197" r="2"/>
  </g>
  <g stroke="chocolate" stroke-width="1">
    <line x1="145" y1="304" x2="234" y2="197"/>
    <circle cx="145" cy="304" r="2"/>
    <circle cx="234" cy="197" r="2"/>
  </g>
  <g stroke="chocolate" stroke-width="1">
    <line x1="139" y1="260" x2="139" y2="259"/>
    <circle cx="139" cy="260" r="2"/>
    <circle cx="139" cy="259" r="2"/>
  </g>
  <g stroke="chocolate" stroke-width="1">
    <line x1="172" y1="337" x2="87" y2="248"/>
    <circle cx="172" cy="337" r="2"/>
    <circle cx="87" cy="248" r="2"/>
  </g>
  <g stroke="chocolate" stroke-width="1">
    <line x1="195" y1="318" x2="139" y2="259"/>
    <circle cx="195" cy="318" r="2"/>
    <circle cx="139" cy="259" r="2"/>
  </g>
  <g stroke="chocolate" stroke-width="1">
    <line x1="172" y1="337" x2="255" y2="304"/>
    <circle cx="172" cy="337" r="2"/>
    <circle cx="255" cy="304" r="2"/>
  </g>
  <g stroke="chocolate" stroke-width="1">
    <line x1="255" y1="304" x2="130" y2="173"/>
    <circle cx="255" cy="304" r="2"/>
    <circle cx="130" cy="173" r="2"/>
  </g>
  <g stroke="chocolate" stroke-width="1">
    <line x1="153" y1="330" x2="255" y2="302"/>
    <circle cx="153" cy="330" r="2"/>
    <circle cx="255" cy="302" r="2"/>
  </g>
  <g stroke="chocolate" stroke-width="1">
    <line x1="195" y1="316" x2="145" y2="304"/>
    <circle cx="195" cy="316" r="2"/>
    <circle cx="145" cy="304" r="2"/>
  </g>
  <g stroke="chocolate" stroke-width="1">
    <line x1="172" y1="284" x2="255" y2="284"/>
    <circle cx="172" cy="284" r="2"/>
    <circle cx="255" cy="284" r="2"/>
  </g>
  <g stroke="chocolate" stroke-width="1">
    <line x1="255" y1="302" x2="139" y2="260"/>
    <circle cx="255" cy="302" r="2"/>
    <circle cx="139" cy="260" r="2"/>
  </g>
  <g stroke="chocolate" stroke-width="1">
    <line x1="265" y1="290" x2="87" y2="248"/>
    <circle cx="265" cy="290" r="2"/>
    <circle cx="87" cy="248" r="2"/>
  </g>
  <g stroke="chocolate" stroke-width="1">
    <line x1="234" y1="197" x2="130" y2="173"/>
    <circle cx="234" cy="197" r="2"/>
    <circle cx="130" cy="173" r="2"/>
  </g>
  <g stroke="black" stroke-width="1">
    <line x1="5" y1="5" x2="505" y2="5"/>
    <line x1="5" y1="5" x2="5" y2="505"/>
    <line x1="505" y1="505" x2="5" y2="505"/>
    <line x1="505" y1="505" x2="505" y2="5"/>
    <line x1="105" y1="2" x2="105" y2="8"/>
    <line x1="2" y1="105" x2="8" y2="105"/>
    <line x1="105" y1="502" x2="105" y2="508"/>
    <line x1="502" y1="105" x2="508" y2="105"/>
    <line x1="205" y1="2" x2="205" y2="8"/>
    <line x1="2" y1="205" x2="8" y2="205"/>
    <line x1="205" y1="502" x2="205" y2="508"/>
    <line x1="502" y1="205" x2="508" y2="205"/>
    <line x1="305" y1="2" x2="305" y2="8"/>
    <line x1="2" y1="305" x2="8" y2="305"/>
    <line x1="305" y1="502" x2="305" y2="508"/>
    <line x1="502" y1="305" x2="508" y2="305"/>
    <line x1="405" y1="2" x2="405" y2="8"/>
    <line x1="2" y1="405" x2="8" y2="405"/>
    <line x1="405" y1="502" x2="405" y2="508"/>
    <line x1="502" y1="405" x2="508" y2="405"/>
  </g>
  <g stroke="gray" stroke-width="1" stroke-dasharray="5,5">
    <line x1="105" y1="5" x2="105" y2="505"/>
    <line x1="5" y1="105" x2="505" y2="105"/>
    <line x1="205" y1="5" x2="205" y2="505"/>
    <line x1="5" y1="205" x2="505" y2="205"/>
    <line x1="305" y1="5" x2="305" y2="505"/>
    <line x1="5" y1="305" x2="505" y2="305"/>
    <line x1="405" y1="5" x2="405" y2="505"/>
    <line x1="5" y1="405" x2="505" y2="405"/>
  </g>
</svg>
