<?xml version="1.0" standalone="no"?>
<!DOCTYPE svg PUBLIC "-//W3C//DTD SVG 1.1//EN" 
  "http://www.w3.org/Graphics/SVG/1.1/DTD/svg11.dtd">
<svg width="510" height="510" version="1.1" id="toplevel"
    xmlns="http://www.w3.org/2000/svg"
    xmlns:xlink="http://www.w3.org/1999/xlink">
  <polygon points="71,406 103,354 407,354 439,406 451,354 385,269 406,255 356,125 331,180 255,104 179,180 154,125 104,255 125,269 59,354"
           fill="bisque"/>
  <g stroke="chocolate" stroke-width="1">
    <line x1="255" y1="354" x2="406" y2="255"/>
    <circle cx="255" cy="354" r="2"/>
    <circle cx="406" cy="255" r="2"/>
  </g>
  <g stroke="chocolate" stroke-width="1">
    <line x1="439" y1="406" x2="451" y2="354"/>
    <circle cx="439" cy="406" r="2"/>
    <circle cx="451" cy="354" r="2"/>
  </g>
  <g stroke="chocolate" stroke-width="1">
    <line x1="255" y1="354" x2="356" y2="125"/>
    <circle cx="255" cy="354" r="2"/>
    <circle cx="356" cy="125" r="2"/>
  </g>
  <g stroke="chocolate" stroke-width="1">
    <line x1="71" y1="406" x2="255" y2="104"/>
    <circle cx="71" cy="406" r="2"/>
    <circle cx="255" cy="104" r="2"/>
  </g>
  <g stroke="chocolate" stroke-width="1">
    <line x1="59" y1="354" x2="255" y2="104"/>
    <circle cx="59" cy="354" r="2"/>
    <circle cx="255" cy="104" r="2"/>
  </g>
  <g stroke="chocolate" stroke-width="1">
    <line x1="104" y1="255" x2="154" y2="125"/>
    <circle cx="104" cy="255" r="2"/>
    <circle cx="154" cy="125" r="2"/>
  </g>
  <g stroke="chocolate" stroke-width="1">
    <line x1="59" y1="354" x2="451" y2="354"/>
    <circle cx="59" cy="354" r="2"/>
    <circle cx="451" cy="354" r="2"/>
  </g>
  <g stroke="chocolate" stroke-width="1">
    <line x1="104" y1="255" x2="255" y2="104"/>
    <circle cx="104" cy="255" r="2"/>
    <circle cx="255" cy="104" r="2"/>
  </g>
  <g stroke="chocolate" stroke-width="1">
    <line x1="255" y1="354" x2="255" y2="104"/>
    <circle cx="255" cy="354" r="2"/>
    <circle cx="255" cy="104" r="2"/>
  </g>
  <g stroke="chocolate" stroke-width="1">
    <line x1="71" y1="406" x2="59" y2="354"/>
    <circle cx="71" cy="406" r="2"/>
    <circle cx="59" cy="354" r="2"/>
  </g>
  <g stroke="chocolate" stroke-width="1">
    <line x1="255" y1="354" x2="154" y2="125"/>
    <circle cx="255" cy="354" r="2"/>
    <circle cx="154" cy="125" r="2"/>
  </g>
  <g stroke="chocolate" stroke-width="1">
    <line x1="255" y1="354" x2="104" y2="255"/>
    <circle cx="255" cy="354" r="2"/>
    <circle cx="104" cy="255" r="2"/>
  </g>
  <g stroke="chocolate" stroke-width="1">
    <line x1="406" y1="255" x2="356" y2="125"/>
    <circle cx="406" cy="255" r="2"/>
    <circle cx="356" cy="125" r="2"/>
  </g>
  <g stroke="chocolate" stroke-width="1">
    <line x1="439" y1="406" x2="255" y2="104"/>
    <circle cx="439" cy="406" r="2"/>
    <circle cx="255" cy="104" r="2"/>
  </g>
  <g stroke="chocolate" stroke-width="1">
    <line x1="451" y1="354" x2="255" y2="104"/>
    <circle cx="451" cy="354" r="2"/>
    <circle cx="255" cy="104" r="2"/>
  </g>
  <g stroke="chocolate" stroke-width="1">
    <line x1="406" y1="255" x2="255" y2="104"/>
    <circle cx="406" cy="255" r="2"/>
    <circle cx="255" cy="104" r="2"/>
  </g>
  <g stroke="black" stroke-width="1">
    <line x1="5" y1="5" x2="505" y2="5"/>
    <line x1="5" y1="5" x2="5" y2="505"/>
    <line x1="505" y1="505" x2="5" y2="505"/>
    <line x1="505" y1="505" x2="505" y2="5"/>
    <line x1="105" y1="2" x2="105" y2="8"/>
    <line x1="2" y1="105" x2="8" y2="105"/>
    <line x1="105" y1="502" x2="105" y2="508"/>
    <line x1="502" y1="105" x2="508" y2="105"/>
    <line x1="205" y1="2" x2="205" y2="8"/>
    <line x1="2" y1="205" x2="8" y2="205"/>
    <line x1="205" y1="502" x2="205" y2="508"/>
    <line x1="502" y1="205" x2="508" y2="205"/>
    <line x1="305" y1="2" x2="305" y2="8"/>
    <line x1="2" y1="305" x2="8" y2="305"/>
    <line x1="305" y1="502" x2="305" y2="508"/>
    <line x1="502" y1="305" x2="508" y2="305"/>
    <line x1="405" y1="2" x2="405" y2="8"/>
    <line x1="2" y1="405" x2="8" y2="405"/>
    <line x1="405" y1="502" x2="405" y2="508"/>
    <line x1="502" y1="405" x2="508" y2="405"/>
  </g>
  <g stroke="gray" stroke-width="1" stroke-dasharray="5,5">
    <line x1="105" y1="5" x2="105" y2="505"/>
    <line x1="5" y1="105" x2="505" y2="105"/>
    <line x1="205" y1="5" x2="205" y2="505"/>
    <line x1="5" y1="205" x2="505" y2="205"/>
    <line x1="305" y1="5" x2="305" y2="505"/>
    <line x1="5" y1="305" x2="505" y2="305"/>
    <line x1="405" y1="5" x2="405" y2="505"/>
    <line x1="5" y1="405" x2="505" y2="405"/>
  </g>
</svg>
