<?xml version="1.0" standalone="no"?>
<!DOCTYPE svg PUBLIC "-//W3C//DTD SVG 1.1//EN" 
  "http://www.w3.org/Graphics/SVG/1.1/DTD/svg11.dtd">
<svg width="510" height="510" version="1.1" id="toplevel"
    xmlns="http://www.w3.org/2000/svg"
    xmlns:xlink="http://www.w3.org/1999/xlink">
  <polygon points="305,396 350,307 338,209 365,205 334,181 326,119 329,116 326,114 145,233 148,257 262,346 246,366"
           fill="bisque"/>
  <g stroke="chocolate" stroke-width="1">
    <line x1="275" y1="381" x2="328" y2="351"/>
    <circle cx="275" cy="381" r="2"/>
    <circle cx="328" cy="351" r="2"/>
  </g>
  <g stroke="chocolate" stroke-width="1">
    <line x1="246" y1="366" x2="350" y2="307"/>
    <circle cx="246" cy="366" r="2"/>
    <circle cx="350" cy="307" r="2"/>
  </g>
  <g stroke="chocolate" stroke-width="1">
    <line x1="246" y1="366" x2="318" y2="273"/>
    <circle cx="246" cy="366" r="2"/>
    <circle cx="318" cy="273" r="2"/>
  </g>
  <g stroke="chocolate" stroke-width="1">
    <line x1="305" y1="396" x2="350" y2="307"/>
    <circle cx="305" cy="396" r="2"/>
    <circle cx="350" cy="307" r="2"/>
  </g>
  <g stroke="chocolate" stroke-width="1">
    <line x1="230" y1="283" x2="329" y2="116"/>
    <circle cx="230" cy="283" r="2"/>
    <circle cx="329" cy="116" r="2"/>
  </g>
  <g stroke="chocolate" stroke-width="1">
    <line x1="148" y1="257" x2="190" y2="203"/>
    <circle cx="148" cy="257" r="2"/>
    <circle cx="190" cy="203" r="2"/>
  </g>
  <g stroke="chocolate" stroke-width="1">
    <line x1="145" y1="233" x2="326" y2="114"/>
    <circle cx="145" cy="233" r="2"/>
    <circle cx="326" cy="114" r="2"/>
  </g>
  <g stroke="chocolate" stroke-width="1">
    <line x1="190" y1="203" x2="293" y2="177"/>
    <circle cx="190" cy="203" r="2"/>
    <circle cx="293" cy="177" r="2"/>
  </g>
  <g stroke="chocolate" stroke-width="1">
    <line x1="145" y1="233" x2="365" y2="205"/>
    <circle cx="145" cy="233" r="2"/>
    <circle cx="365" cy="205" r="2"/>
  </g>
  <g stroke="chocolate" stroke-width="1">
    <line x1="311" y1="384" x2="246" y2="366"/>
    <circle cx="311" cy="384" r="2"/>
    <circle cx="246" cy="366" r="2"/>
  </g>
  <g stroke="chocolate" stroke-width="1">
    <line x1="148" y1="257" x2="145" y2="233"/>
    <circle cx="148" cy="257" r="2"/>
    <circle cx="145" cy="233" r="2"/>
  </g>
  <g stroke="chocolate" stroke-width="1">
    <line x1="275" y1="381" x2="248" y2="165"/>
    <circle cx="275" cy="381" r="2"/>
    <circle cx="248" cy="165" r="2"/>
  </g>
  <g stroke="chocolate" stroke-width="1">
    <line x1="328" y1="351" x2="318" y2="273"/>
    <circle cx="328" cy="351" r="2"/>
    <circle cx="318" cy="273" r="2"/>
  </g>
  <g stroke="chocolate" stroke-width="1">
    <line x1="350" y1="307" x2="326" y2="114"/>
    <circle cx="350" cy="307" r="2"/>
    <circle cx="326" cy="114" r="2"/>
  </g>
  <g stroke="chocolate" stroke-width="1">
    <line x1="305" y1="396" x2="246" y2="366"/>
    <circle cx="305" cy="396" r="2"/>
    <circle cx="246" cy="366" r="2"/>
  </g>
  <g stroke="chocolate" stroke-width="1">
    <line x1="293" y1="177" x2="283" y2="142"/>
    <circle cx="293" cy="177" r="2"/>
    <circle cx="283" cy="142" r="2"/>
  </g>
  <g stroke="chocolate" stroke-width="1">
    <line x1="311" y1="384" x2="148" y2="257"/>
    <circle cx="311" cy="384" r="2"/>
    <circle cx="148" cy="257" r="2"/>
  </g>
  <g stroke="chocolate" stroke-width="1">
    <line x1="230" y1="283" x2="145" y2="233"/>
    <circle cx="230" cy="283" r="2"/>
    <circle cx="145" cy="233" r="2"/>
  </g>
  <g stroke="chocolate" stroke-width="1">
    <line x1="286" y1="187" x2="248" y2="165"/>
    <circle cx="286" cy="187" r="2"/>
    <circle cx="248" cy="165" r="2"/>
  </g>
  <g stroke="chocolate" stroke-width="1">
    <line x1="365" y1="205" x2="283" y2="142"/>
    <circle cx="365" cy="205" r="2"/>
    <circle cx="283" cy="142" r="2"/>
  </g>
  <g stroke="chocolate" stroke-width="1">
    <line x1="329" y1="116" x2="326" y2="114"/>
    <circle cx="329" cy="116" r="2"/>
    <circle cx="326" cy="114" r="2"/>
  </g>
  <g stroke="black" stroke-width="1">
    <line x1="5" y1="5" x2="505" y2="5"/>
    <line x1="5" y1="5" x2="5" y2="505"/>
    <line x1="505" y1="505" x2="5" y2="505"/>
    <line x1="505" y1="505" x2="505" y2="5"/>
    <line x1="105" y1="2" x2="105" y2="8"/>
    <line x1="2" y1="105" x2="8" y2="105"/>
    <line x1="105" y1="502" x2="105" y2="508"/>
    <line x1="502" y1="105" x2="508" y2="105"/>
    <line x1="205" y1="2" x2="205" y2="8"/>
    <line x1="2" y1="205" x2="8" y2="205"/>
    <line x1="205" y1="502" x2="205" y2="508"/>
    <line x1="502" y1="205" x2="508" y2="205"/>
    <line x1="305" y1="2" x2="305" y2="8"/>
    <line x1="2" y1="305" x2="8" y2="305"/>
    <line x1="305" y1="502" x2="305" y2="508"/>
    <line x1="502" y1="305" x2="508" y2="305"/>
    <line x1="405" y1="2" x2="405" y2="8"/>
    <line x1="2" y1="405" x2="8" y2="405"/>
    <line x1="405" y1="502" x2="405" y2="508"/>
    <line x1="502" y1="405" x2="508" y2="405"/>
  </g>
  <g stroke="gray" stroke-width="1" stroke-dasharray="5,5">
    <line x1="105" y1="5" x2="105" y2="505"/>
    <line x1="5" y1="105" x2="505" y2="105"/>
    <line x1="205" y1="5" x2="205" y2="505"/>
    <line x1="5" y1="205" x2="505" y2="205"/>
    <line x1="305" y1="5" x2="305" y2="505"/>
    <line x1="5" y1="305" x2="505" y2="305"/>
    <line x1="405" y1="5" x2="405" y2="505"/>
    <line x1="5" y1="405" x2="505" y2="405"/>
  </g>
</svg>
