<?xml version="1.0" standalone="no"?>
<!DOCTYPE svg PUBLIC "-//W3C//DTD SVG 1.1//EN" 
  "http://www.w3.org/Graphics/SVG/1.1/DTD/svg11.dtd">
<svg width="510" height="510" version="1.1" id="toplevel"
    xmlns="http://www.w3.org/2000/svg"
    xmlns:xlink="http://www.w3.org/1999/xlink">
  <polygon points="259,408 425,276 425,135 431,129 425,102 86,143 79,164 131,226 108,231 95,228 93,235"
           fill="bisque"/>
  <g stroke="chocolate" stroke-width="1">
    <line x1="259" y1="408" x2="86" y2="143"/>
    <circle cx="259" cy="408" r="2"/>
    <circle cx="86" cy="143" r="2"/>
  </g>
  <g stroke="chocolate" stroke-width="1">
    <line x1="330" y1="351" x2="238" y2="168"/>
    <circle cx="330" cy="351" r="2"/>
    <circle cx="238" cy="168" r="2"/>
  </g>
  <g stroke="chocolate" stroke-width="1">
    <line x1="383" y1="309" x2="373" y2="109"/>
    <circle cx="383" cy="309" r="2"/>
    <circle cx="373" cy="109" r="2"/>
  </g>
  <g stroke="chocolate" stroke-width="1">
    <line x1="431" y1="129" x2="425" y2="102"/>
    <circle cx="431" cy="129" r="2"/>
    <circle cx="425" cy="102" r="2"/>
  </g>
  <g stroke="chocolate" stroke-width="1">
    <line x1="425" y1="276" x2="425" y2="102"/>
    <circle cx="425" cy="276" r="2"/>
    <circle cx="425" cy="102" r="2"/>
  </g>
  <g stroke="chocolate" stroke-width="1">
    <line x1="208" y1="318" x2="79" y2="164"/>
    <circle cx="208" cy="318" r="2"/>
    <circle cx="79" cy="164" r="2"/>
  </g>
  <g stroke="chocolate" stroke-width="1">
    <line x1="259" y1="408" x2="93" y2="235"/>
    <circle cx="259" cy="408" r="2"/>
    <circle cx="93" cy="235" r="2"/>
  </g>
  <g stroke="chocolate" stroke-width="1">
    <line x1="330" y1="351" x2="167" y2="217"/>
    <circle cx="330" cy="351" r="2"/>
    <circle cx="167" cy="217" r="2"/>
  </g>
  <g stroke="chocolate" stroke-width="1">
    <line x1="93" y1="235" x2="95" y2="228"/>
    <circle cx="93" cy="235" r="2"/>
    <circle cx="95" cy="228" r="2"/>
  </g>
  <g stroke="chocolate" stroke-width="1">
    <line x1="79" y1="164" x2="86" y2="143"/>
    <circle cx="79" cy="164" r="2"/>
    <circle cx="86" cy="143" r="2"/>
  </g>
  <g stroke="chocolate" stroke-width="1">
    <line x1="383" y1="309" x2="95" y2="228"/>
    <circle cx="383" cy="309" r="2"/>
    <circle cx="95" cy="228" r="2"/>
  </g>
  <g stroke="chocolate" stroke-width="1">
    <line x1="259" y1="408" x2="425" y2="276"/>
    <circle cx="259" cy="408" r="2"/>
    <circle cx="425" cy="276" r="2"/>
  </g>
  <g stroke="chocolate" stroke-width="1">
    <line x1="425" y1="276" x2="167" y2="217"/>
    <circle cx="425" cy="276" r="2"/>
    <circle cx="167" cy="217" r="2"/>
  </g>
  <g stroke="chocolate" stroke-width="1">
    <line x1="208" y1="318" x2="431" y2="129"/>
    <circle cx="208" cy="318" r="2"/>
    <circle cx="431" cy="129" r="2"/>
  </g>
  <g stroke="chocolate" stroke-width="1">
    <line x1="431" y1="129" x2="352" y2="111"/>
    <circle cx="431" cy="129" r="2"/>
    <circle cx="352" cy="111" r="2"/>
  </g>
  <g stroke="chocolate" stroke-width="1">
    <line x1="238" y1="168" x2="352" y2="111"/>
    <circle cx="238" cy="168" r="2"/>
    <circle cx="352" cy="111" r="2"/>
  </g>
  <g stroke="chocolate" stroke-width="1">
    <line x1="93" y1="235" x2="167" y2="217"/>
    <circle cx="93" cy="235" r="2"/>
    <circle cx="167" cy="217" r="2"/>
  </g>
  <g stroke="chocolate" stroke-width="1">
    <line x1="86" y1="143" x2="425" y2="102"/>
    <circle cx="86" cy="143" r="2"/>
    <circle cx="425" cy="102" r="2"/>
  </g>
  <g stroke="chocolate" stroke-width="1">
    <line x1="79" y1="164" x2="373" y2="109"/>
    <circle cx="79" cy="164" r="2"/>
    <circle cx="373" cy="109" r="2"/>
  </g>
  <g stroke="black" stroke-width="1">
    <line x1="5" y1="5" x2="505" y2="5"/>
    <line x1="5" y1="5" x2="5" y2="505"/>
    <line x1="505" y1="505" x2="5" y2="505"/>
    <line x1="505" y1="505" x2="505" y2="5"/>
    <line x1="105" y1="2" x2="105" y2="8"/>
    <line x1="2" y1="105" x2="8" y2="105"/>
    <line x1="105" y1="502" x2="105" y2="508"/>
    <line x1="502" y1="105" x2="508" y2="105"/>
    <line x1="205" y1="2" x2="205" y2="8"/>
    <line x1="2" y1="205" x2="8" y2="205"/>
    <line x1="205" y1="502" x2="205" y2="508"/>
    <line x1="502" y1="205" x2="508" y2="205"/>
    <line x1="305" y1="2" x2="305" y2="8"/>
    <line x1="2" y1="305" x2="8" y2="305"/>
    <line x1="305" y1="502" x2="305" y2="508"/>
    <line x1="502" y1="305" x2="508" y2="305"/>
    <line x1="405" y1="2" x2="405" y2="8"/>
    <line x1="2" y1="405" x2="8" y2="405"/>
    <line x1="405" y1="502" x2="405" y2="508"/>
    <line x1="502" y1="405" x2="508" y2="405"/>
  </g>
  <g stroke="gray" stroke-width="1" stroke-dasharray="5,5">
    <line x1="105" y1="5" x2="105" y2="505"/>
    <line x1="5" y1="105" x2="505" y2="105"/>
    <line x1="205" y1="5" x2="205" y2="505"/>
    <line x1="5" y1="205" x2="505" y2="205"/>
    <line x1="305" y1="5" x2="305" y2="505"/>
    <line x1="5" y1="305" x2="505" y2="305"/>
    <line x1="405" y1="5" x2="405" y2="505"/>
    <line x1="5" y1="405" x2="505" y2="405"/>
  </g>
</svg>
