<?xml version="1.0" standalone="no"?>
<!DOCTYPE svg PUBLIC "-//W3C//DTD SVG 1.1//EN" 
  "http://www.w3.org/Graphics/SVG/1.1/DTD/svg11.dtd">
<svg width="510" height="510" version="1.1" id="toplevel"
    xmlns="http://www.w3.org/2000/svg"
    xmlns:xlink="http://www.w3.org/1999/xlink">
  <polygon points="324,470 330,469 330,466 328,466 327,463 440,251 424,238 442,172 301,133 205,314 268,397 287,413 285,419"
           fill="bisque"/>
  <g stroke="chocolate" stroke-width="1">
    <line x1="324" y1="470" x2="440" y2="251"/>
    <circle cx="324" cy="470" r="2"/>
    <circle cx="440" cy="251" r="2"/>
  </g>
  <g stroke="chocolate" stroke-width="1">
    <line x1="360" y1="374" x2="400" y2="327"/>
    <circle cx="360" cy="374" r="2"/>
    <circle cx="400" cy="327" r="2"/>
  </g>
  <g stroke="chocolate" stroke-width="1">
    <line x1="285" y1="419" x2="382" y2="235"/>
    <circle cx="285" cy="419" r="2"/>
    <circle cx="382" cy="235" r="2"/>
  </g>
  <g stroke="chocolate" stroke-width="1">
    <line x1="400" y1="327" x2="442" y2="172"/>
    <circle cx="400" cy="327" r="2"/>
    <circle cx="442" cy="172" r="2"/>
  </g>
  <g stroke="chocolate" stroke-width="1">
    <line x1="321" y1="466" x2="377" y2="260"/>
    <circle cx="321" cy="466" r="2"/>
    <circle cx="377" cy="260" r="2"/>
  </g>
  <g stroke="chocolate" stroke-width="1">
    <line x1="205" y1="314" x2="301" y2="133"/>
    <circle cx="205" cy="314" r="2"/>
    <circle cx="301" cy="133" r="2"/>
  </g>
  <g stroke="chocolate" stroke-width="1">
    <line x1="324" y1="470" x2="330" y2="469"/>
    <circle cx="324" cy="470" r="2"/>
    <circle cx="330" cy="469" r="2"/>
  </g>
  <g stroke="chocolate" stroke-width="1">
    <line x1="227" y1="343" x2="227" y2="310"/>
    <circle cx="227" cy="343" r="2"/>
    <circle cx="227" cy="310" r="2"/>
  </g>
  <g stroke="chocolate" stroke-width="1">
    <line x1="304" y1="444" x2="304" y2="414"/>
    <circle cx="304" cy="444" r="2"/>
    <circle cx="304" cy="414" r="2"/>
  </g>
  <g stroke="chocolate" stroke-width="1">
    <line x1="330" y1="469" x2="330" y2="466"/>
    <circle cx="330" cy="469" r="2"/>
    <circle cx="330" cy="466" r="2"/>
  </g>
  <g stroke="chocolate" stroke-width="1">
    <line x1="285" y1="419" x2="304" y2="414"/>
    <circle cx="285" cy="419" r="2"/>
    <circle cx="304" cy="414" r="2"/>
  </g>
  <g stroke="chocolate" stroke-width="1">
    <line x1="321" y1="466" x2="330" y2="466"/>
    <circle cx="321" cy="466" r="2"/>
    <circle cx="330" cy="466" r="2"/>
  </g>
  <g stroke="chocolate" stroke-width="1">
    <line x1="268" y1="397" x2="227" y2="310"/>
    <circle cx="268" cy="397" r="2"/>
    <circle cx="227" cy="310" r="2"/>
  </g>
  <g stroke="chocolate" stroke-width="1">
    <line x1="330" y1="469" x2="304" y2="414"/>
    <circle cx="330" cy="469" r="2"/>
    <circle cx="304" cy="414" r="2"/>
  </g>
  <g stroke="chocolate" stroke-width="1">
    <line x1="333" y1="452" x2="304" y2="444"/>
    <circle cx="333" cy="452" r="2"/>
    <circle cx="304" cy="444" r="2"/>
  </g>
  <g stroke="chocolate" stroke-width="1">
    <line x1="205" y1="314" x2="227" y2="310"/>
    <circle cx="205" cy="314" r="2"/>
    <circle cx="227" cy="310" r="2"/>
  </g>
  <g stroke="chocolate" stroke-width="1">
    <line x1="348" y1="425" x2="333" y2="421"/>
    <circle cx="348" cy="425" r="2"/>
    <circle cx="333" cy="421" r="2"/>
  </g>
  <g stroke="chocolate" stroke-width="1">
    <line x1="324" y1="470" x2="285" y2="419"/>
    <circle cx="324" cy="470" r="2"/>
    <circle cx="285" cy="419" r="2"/>
  </g>
  <g stroke="chocolate" stroke-width="1">
    <line x1="268" y1="397" x2="205" y2="314"/>
    <circle cx="268" cy="397" r="2"/>
    <circle cx="205" cy="314" r="2"/>
  </g>
  <g stroke="chocolate" stroke-width="1">
    <line x1="360" y1="402" x2="302" y2="386"/>
    <circle cx="360" cy="402" r="2"/>
    <circle cx="302" cy="386" r="2"/>
  </g>
  <g stroke="chocolate" stroke-width="1">
    <line x1="333" y1="452" x2="268" y2="397"/>
    <circle cx="333" cy="452" r="2"/>
    <circle cx="268" cy="397" r="2"/>
  </g>
  <g stroke="chocolate" stroke-width="1">
    <line x1="370" y1="382" x2="227" y2="343"/>
    <circle cx="370" cy="382" r="2"/>
    <circle cx="227" cy="343" r="2"/>
  </g>
  <g stroke="chocolate" stroke-width="1">
    <line x1="348" y1="425" x2="302" y2="386"/>
    <circle cx="348" cy="425" r="2"/>
    <circle cx="302" cy="386" r="2"/>
  </g>
  <g stroke="chocolate" stroke-width="1">
    <line x1="374" y1="375" x2="348" y2="367"/>
    <circle cx="374" cy="375" r="2"/>
    <circle cx="348" cy="367" r="2"/>
  </g>
  <g stroke="chocolate" stroke-width="1">
    <line x1="360" y1="402" x2="221" y2="284"/>
    <circle cx="360" cy="402" r="2"/>
    <circle cx="221" cy="284" r="2"/>
  </g>
  <g stroke="chocolate" stroke-width="1">
    <line x1="386" y1="352" x2="329" y2="336"/>
    <circle cx="386" cy="352" r="2"/>
    <circle cx="329" cy="336" r="2"/>
  </g>
  <g stroke="chocolate" stroke-width="1">
    <line x1="370" y1="382" x2="360" y2="374"/>
    <circle cx="370" cy="382" r="2"/>
    <circle cx="360" cy="374" r="2"/>
  </g>
  <g stroke="chocolate" stroke-width="1">
    <line x1="374" y1="375" x2="329" y2="336"/>
    <circle cx="374" cy="375" r="2"/>
    <circle cx="329" cy="336" r="2"/>
  </g>
  <g stroke="chocolate" stroke-width="1">
    <line x1="397" y1="332" x2="221" y2="284"/>
    <circle cx="397" cy="332" r="2"/>
    <circle cx="221" cy="284" r="2"/>
  </g>
  <g stroke="chocolate" stroke-width="1">
    <line x1="386" y1="352" x2="248" y2="234"/>
    <circle cx="386" cy="352" r="2"/>
    <circle cx="248" cy="234" r="2"/>
  </g>
  <g stroke="chocolate" stroke-width="1">
    <line x1="397" y1="332" x2="396" y2="331"/>
    <circle cx="397" cy="332" r="2"/>
    <circle cx="396" cy="331" r="2"/>
  </g>
  <g stroke="chocolate" stroke-width="1">
    <line x1="413" y1="279" x2="248" y2="234"/>
    <circle cx="413" cy="279" r="2"/>
    <circle cx="248" cy="234" r="2"/>
  </g>
  <g stroke="chocolate" stroke-width="1">
    <line x1="427" y1="274" x2="377" y2="260"/>
    <circle cx="427" cy="274" r="2"/>
    <circle cx="377" cy="260" r="2"/>
  </g>
  <g stroke="chocolate" stroke-width="1">
    <line x1="427" y1="274" x2="382" y2="235"/>
    <circle cx="427" cy="274" r="2"/>
    <circle cx="382" cy="235" r="2"/>
  </g>
  <g stroke="chocolate" stroke-width="1">
    <line x1="440" y1="251" x2="382" y2="235"/>
    <circle cx="440" cy="251" r="2"/>
    <circle cx="382" cy="235" r="2"/>
  </g>
  <g stroke="chocolate" stroke-width="1">
    <line x1="440" y1="251" x2="301" y2="133"/>
    <circle cx="440" cy="251" r="2"/>
    <circle cx="301" cy="133" r="2"/>
  </g>
  <g stroke="chocolate" stroke-width="1">
    <line x1="442" y1="172" x2="301" y2="133"/>
    <circle cx="442" cy="172" r="2"/>
    <circle cx="301" cy="133" r="2"/>
  </g>
  <g stroke="black" stroke-width="1">
    <line x1="5" y1="5" x2="505" y2="5"/>
    <line x1="5" y1="5" x2="5" y2="505"/>
    <line x1="505" y1="505" x2="5" y2="505"/>
    <line x1="505" y1="505" x2="505" y2="5"/>
    <line x1="105" y1="2" x2="105" y2="8"/>
    <line x1="2" y1="105" x2="8" y2="105"/>
    <line x1="105" y1="502" x2="105" y2="508"/>
    <line x1="502" y1="105" x2="508" y2="105"/>
    <line x1="205" y1="2" x2="205" y2="8"/>
    <line x1="2" y1="205" x2="8" y2="205"/>
    <line x1="205" y1="502" x2="205" y2="508"/>
    <line x1="502" y1="205" x2="508" y2="205"/>
    <line x1="305" y1="2" x2="305" y2="8"/>
    <line x1="2" y1="305" x2="8" y2="305"/>
    <line x1="305" y1="502" x2="305" y2="508"/>
    <line x1="502" y1="305" x2="508" y2="305"/>
    <line x1="405" y1="2" x2="405" y2="8"/>
    <line x1="2" y1="405" x2="8" y2="405"/>
    <line x1="405" y1="502" x2="405" y2="508"/>
    <line x1="502" y1="405" x2="508" y2="405"/>
  </g>
  <g stroke="gray" stroke-width="1" stroke-dasharray="5,5">
    <line x1="105" y1="5" x2="105" y2="505"/>
    <line x1="5" y1="105" x2="505" y2="105"/>
    <line x1="205" y1="5" x2="205" y2="505"/>
    <line x1="5" y1="205" x2="505" y2="205"/>
    <line x1="305" y1="5" x2="305" y2="505"/>
    <line x1="5" y1="305" x2="505" y2="305"/>
    <line x1="405" y1="5" x2="405" y2="505"/>
    <line x1="5" y1="405" x2="505" y2="405"/>
  </g>
</svg>
