<?xml version="1.0" standalone="no"?>
<!DOCTYPE svg PUBLIC "-//W3C//DTD SVG 1.1//EN" 
  "http://www.w3.org/Graphics/SVG/1.1/DTD/svg11.dtd">
<svg width="518" height="518" version="1.1" id="toplevel"
    xmlns="http://www.w3.org/2000/svg"
    xmlns:xlink="http://www.w3.org/1999/xlink">
  <polygon points="362,513 445,491 350,123 248,5 231,19 232,20 219,32 220,33 153,51 220,300"
           fill="bisque"/>
  <g stroke="chocolate" stroke-width="1">
    <line x1="362" y1="513" x2="412" y2="448"/>
    <circle cx="362" cy="513" r="2"/>
    <circle cx="412" cy="448" r="2"/>
  </g>
  <g stroke="chocolate" stroke-width="1">
    <line x1="403" y1="410" x2="413" y2="367"/>
    <circle cx="403" cy="410" r="2"/>
    <circle cx="413" cy="367" r="2"/>
  </g>
  <g stroke="chocolate" stroke-width="1">
    <line x1="295" y1="237" x2="328" y2="98"/>
    <circle cx="295" cy="237" r="2"/>
    <circle cx="328" cy="98" r="2"/>
  </g>
  <g stroke="chocolate" stroke-width="1">
    <line x1="357" y1="479" x2="426" y2="416"/>
    <circle cx="357" cy="479" r="2"/>
    <circle cx="426" cy="416" r="2"/>
  </g>
  <g stroke="chocolate" stroke-width="1">
    <line x1="425" y1="495" x2="424" y2="408"/>
    <circle cx="425" cy="495" r="2"/>
    <circle cx="424" cy="408" r="2"/>
  </g>
  <g stroke="chocolate" stroke-width="1">
    <line x1="239" y1="76" x2="262" y2="21"/>
    <circle cx="239" cy="76" r="2"/>
    <circle cx="262" cy="21" r="2"/>
  </g>
  <g stroke="chocolate" stroke-width="1">
    <line x1="239" y1="76" x2="262" y2="21"/>
    <circle cx="239" cy="76" r="2"/>
    <circle cx="262" cy="21" r="2"/>
  </g>
  <g stroke="chocolate" stroke-width="1">
    <line x1="239" y1="76" x2="262" y2="21"/>
    <circle cx="239" cy="76" r="2"/>
    <circle cx="262" cy="21" r="2"/>
  </g>
  <g stroke="chocolate" stroke-width="1">
    <line x1="239" y1="76" x2="263" y2="22"/>
    <circle cx="239" cy="76" r="2"/>
    <circle cx="263" cy="22" r="2"/>
  </g>
  <g stroke="chocolate" stroke-width="1">
    <line x1="220" y1="300" x2="153" y2="51"/>
    <circle cx="220" cy="300" r="2"/>
    <circle cx="153" cy="51" r="2"/>
  </g>
  <g stroke="chocolate" stroke-width="1">
    <line x1="365" y1="511" x2="240" y2="27"/>
    <circle cx="365" cy="511" r="2"/>
    <circle cx="240" cy="27" r="2"/>
  </g>
  <g stroke="chocolate" stroke-width="1">
    <line x1="362" y1="513" x2="445" y2="491"/>
    <circle cx="362" cy="513" r="2"/>
    <circle cx="445" cy="491" r="2"/>
  </g>
  <g stroke="chocolate" stroke-width="1">
    <line x1="365" y1="511" x2="425" y2="495"/>
    <circle cx="365" cy="511" r="2"/>
    <circle cx="425" cy="495" r="2"/>
  </g>
  <g stroke="chocolate" stroke-width="1">
    <line x1="365" y1="511" x2="445" y2="491"/>
    <circle cx="365" cy="511" r="2"/>
    <circle cx="445" cy="491" r="2"/>
  </g>
  <g stroke="chocolate" stroke-width="1">
    <line x1="445" y1="491" x2="350" y2="123"/>
    <circle cx="445" cy="491" r="2"/>
    <circle cx="350" cy="123" r="2"/>
  </g>
  <g stroke="chocolate" stroke-width="1">
    <line x1="362" y1="513" x2="220" y2="300"/>
    <circle cx="362" cy="513" r="2"/>
    <circle cx="220" cy="300" r="2"/>
  </g>
  <g stroke="chocolate" stroke-width="1">
    <line x1="424" y1="408" x2="219" y2="32"/>
    <circle cx="424" cy="408" r="2"/>
    <circle cx="219" cy="32" r="2"/>
  </g>
  <g stroke="chocolate" stroke-width="1">
    <line x1="219" y1="32" x2="248" y2="5"/>
    <circle cx="219" cy="32" r="2"/>
    <circle cx="248" cy="5" r="2"/>
  </g>
  <g stroke="chocolate" stroke-width="1">
    <line x1="425" y1="495" x2="357" y2="479"/>
    <circle cx="425" cy="495" r="2"/>
    <circle cx="357" cy="479" r="2"/>
  </g>
  <g stroke="chocolate" stroke-width="1">
    <line x1="231" y1="19" x2="248" y2="5"/>
    <circle cx="231" cy="19" r="2"/>
    <circle cx="248" cy="5" r="2"/>
  </g>
  <g stroke="chocolate" stroke-width="1">
    <line x1="413" y1="367" x2="295" y2="237"/>
    <circle cx="413" cy="367" r="2"/>
    <circle cx="295" cy="237" r="2"/>
  </g>
  <g stroke="chocolate" stroke-width="1">
    <line x1="412" y1="448" x2="220" y2="300"/>
    <circle cx="412" cy="448" r="2"/>
    <circle cx="220" cy="300" r="2"/>
  </g>
  <g stroke="chocolate" stroke-width="1">
    <line x1="297" y1="100" x2="231" y2="19"/>
    <circle cx="297" cy="100" r="2"/>
    <circle cx="231" cy="19" r="2"/>
  </g>
  <g stroke="chocolate" stroke-width="1">
    <line x1="426" y1="416" x2="403" y2="410"/>
    <circle cx="426" cy="416" r="2"/>
    <circle cx="403" cy="410" r="2"/>
  </g>
  <g stroke="chocolate" stroke-width="1">
    <line x1="350" y1="123" x2="248" y2="5"/>
    <circle cx="350" cy="123" r="2"/>
    <circle cx="248" cy="5" r="2"/>
  </g>
  <g stroke="chocolate" stroke-width="1">
    <line x1="153" y1="51" x2="263" y2="22"/>
    <circle cx="153" cy="51" r="2"/>
    <circle cx="263" cy="22" r="2"/>
  </g>
  <g stroke="chocolate" stroke-width="1">
    <line x1="297" y1="100" x2="328" y2="98"/>
    <circle cx="297" cy="100" r="2"/>
    <circle cx="328" cy="98" r="2"/>
  </g>
  <g stroke="chocolate" stroke-width="1">
    <line x1="240" y1="27" x2="262" y2="21"/>
    <circle cx="240" cy="27" r="2"/>
    <circle cx="262" cy="21" r="2"/>
  </g>
  <g stroke="chocolate" stroke-width="1">
    <line x1="219" y1="32" x2="262" y2="21"/>
    <circle cx="219" cy="32" r="2"/>
    <circle cx="262" cy="21" r="2"/>
  </g>
  <g stroke="chocolate" stroke-width="1">
    <line x1="240" y1="27" x2="262" y2="21"/>
    <circle cx="240" cy="27" r="2"/>
    <circle cx="262" cy="21" r="2"/>
  </g>
  <g stroke="chocolate" stroke-width="1">
    <line x1="350" y1="123" x2="239" y2="76"/>
    <circle cx="350" cy="123" r="2"/>
    <circle cx="239" cy="76" r="2"/>
  </g>
  <g stroke="black" stroke-width="1">
    <line x1="9" y1="9" x2="509" y2="9"/>
    <line x1="9" y1="9" x2="9" y2="509"/>
    <line x1="509" y1="509" x2="9" y2="509"/>
    <line x1="509" y1="509" x2="509" y2="9"/>
    <line x1="109" y1="6" x2="109" y2="12"/>
    <line x1="6" y1="109" x2="12" y2="109"/>
    <line x1="109" y1="506" x2="109" y2="512"/>
    <line x1="506" y1="109" x2="512" y2="109"/>
    <line x1="209" y1="6" x2="209" y2="12"/>
    <line x1="6" y1="209" x2="12" y2="209"/>
    <line x1="209" y1="506" x2="209" y2="512"/>
    <line x1="506" y1="209" x2="512" y2="209"/>
    <line x1="309" y1="6" x2="309" y2="12"/>
    <line x1="6" y1="309" x2="12" y2="309"/>
    <line x1="309" y1="506" x2="309" y2="512"/>
    <line x1="506" y1="309" x2="512" y2="309"/>
    <line x1="409" y1="6" x2="409" y2="12"/>
    <line x1="6" y1="409" x2="12" y2="409"/>
    <line x1="409" y1="506" x2="409" y2="512"/>
    <line x1="506" y1="409" x2="512" y2="409"/>
  </g>
  <g stroke="gray" stroke-width="1" stroke-dasharray="5,5">
    <line x1="109" y1="9" x2="109" y2="509"/>
    <line x1="9" y1="109" x2="509" y2="109"/>
    <line x1="209" y1="9" x2="209" y2="509"/>
    <line x1="9" y1="209" x2="509" y2="209"/>
    <line x1="309" y1="9" x2="309" y2="509"/>
    <line x1="9" y1="309" x2="509" y2="309"/>
    <line x1="409" y1="9" x2="409" y2="509"/>
    <line x1="9" y1="409" x2="509" y2="409"/>
  </g>
</svg>
