<?xml version="1.0" standalone="no"?>
<!DOCTYPE svg PUBLIC "-//W3C//DTD SVG 1.1//EN" 
  "http://www.w3.org/Graphics/SVG/1.1/DTD/svg11.dtd">
<svg width="510" height="510" version="1.1" id="toplevel"
    xmlns="http://www.w3.org/2000/svg"
    xmlns:xlink="http://www.w3.org/1999/xlink">
  <polygon points="393,394 470,380 460,204 461,200 460,199 378,261 310,227 308,224 303,224 90,116 40,177 78,235"
           fill="bisque"/>
  <g stroke="chocolate" stroke-width="1">
    <line x1="394" y1="393" x2="461" y2="200"/>
    <circle cx="394" cy="393" r="2"/>
    <circle cx="461" cy="200" r="2"/>
  </g>
  <g stroke="chocolate" stroke-width="1">
    <line x1="108" y1="250" x2="105" y2="234"/>
    <circle cx="108" cy="250" r="2"/>
    <circle cx="105" cy="234" r="2"/>
  </g>
  <g stroke="chocolate" stroke-width="1">
    <line x1="279" y1="336" x2="279" y2="258"/>
    <circle cx="279" cy="336" r="2"/>
    <circle cx="279" cy="258" r="2"/>
  </g>
  <g stroke="chocolate" stroke-width="1">
    <line x1="199" y1="182" x2="199" y2="172"/>
    <circle cx="199" cy="182" r="2"/>
    <circle cx="199" cy="172" r="2"/>
  </g>
  <g stroke="chocolate" stroke-width="1">
    <line x1="245" y1="319" x2="256" y2="200"/>
    <circle cx="245" cy="319" r="2"/>
    <circle cx="256" cy="200" r="2"/>
  </g>
  <g stroke="chocolate" stroke-width="1">
    <line x1="105" y1="248" x2="105" y2="234"/>
    <circle cx="105" cy="248" r="2"/>
    <circle cx="105" cy="234" r="2"/>
  </g>
  <g stroke="chocolate" stroke-width="1">
    <line x1="233" y1="222" x2="227" y2="186"/>
    <circle cx="233" cy="222" r="2"/>
    <circle cx="227" cy="186" r="2"/>
  </g>
  <g stroke="chocolate" stroke-width="1">
    <line x1="470" y1="380" x2="460" y2="199"/>
    <circle cx="470" cy="380" r="2"/>
    <circle cx="460" cy="199" r="2"/>
  </g>
  <g stroke="chocolate" stroke-width="1">
    <line x1="202" y1="298" x2="147" y2="145"/>
    <circle cx="202" cy="298" r="2"/>
    <circle cx="147" cy="145" r="2"/>
  </g>
  <g stroke="chocolate" stroke-width="1">
    <line x1="301" y1="347" x2="279" y2="275"/>
    <circle cx="301" cy="347" r="2"/>
    <circle cx="279" cy="275" r="2"/>
  </g>
  <g stroke="chocolate" stroke-width="1">
    <line x1="73" y1="182" x2="90" y2="116"/>
    <circle cx="73" cy="182" r="2"/>
    <circle cx="90" cy="116" r="2"/>
  </g>
  <g stroke="chocolate" stroke-width="1">
    <line x1="470" y1="380" x2="445" y2="295"/>
    <circle cx="470" cy="380" r="2"/>
    <circle cx="445" cy="295" r="2"/>
  </g>
  <g stroke="chocolate" stroke-width="1">
    <line x1="78" y1="235" x2="40" y2="177"/>
    <circle cx="78" cy="235" r="2"/>
    <circle cx="40" cy="177" r="2"/>
  </g>
  <g stroke="chocolate" stroke-width="1">
    <line x1="393" y1="394" x2="308" y2="224"/>
    <circle cx="393" cy="394" r="2"/>
    <circle cx="308" cy="224" r="2"/>
  </g>
  <g stroke="chocolate" stroke-width="1">
    <line x1="279" y1="258" x2="308" y2="224"/>
    <circle cx="279" cy="258" r="2"/>
    <circle cx="308" cy="224" r="2"/>
  </g>
  <g stroke="chocolate" stroke-width="1">
    <line x1="394" y1="393" x2="222" y2="183"/>
    <circle cx="394" cy="393" r="2"/>
    <circle cx="222" cy="183" r="2"/>
  </g>
  <g stroke="chocolate" stroke-width="1">
    <line x1="245" y1="319" x2="321" y2="250"/>
    <circle cx="245" cy="319" r="2"/>
    <circle cx="321" cy="250" r="2"/>
  </g>
  <g stroke="chocolate" stroke-width="1">
    <line x1="279" y1="336" x2="460" y2="199"/>
    <circle cx="279" cy="336" r="2"/>
    <circle cx="460" cy="199" r="2"/>
  </g>
  <g stroke="chocolate" stroke-width="1">
    <line x1="233" y1="222" x2="256" y2="200"/>
    <circle cx="233" cy="222" r="2"/>
    <circle cx="256" cy="200" r="2"/>
  </g>
  <g stroke="chocolate" stroke-width="1">
    <line x1="40" y1="177" x2="90" y2="116"/>
    <circle cx="40" cy="177" r="2"/>
    <circle cx="90" cy="116" r="2"/>
  </g>
  <g stroke="chocolate" stroke-width="1">
    <line x1="393" y1="394" x2="470" y2="380"/>
    <circle cx="393" cy="394" r="2"/>
    <circle cx="470" cy="380" r="2"/>
  </g>
  <g stroke="chocolate" stroke-width="1">
    <line x1="301" y1="347" x2="445" y2="295"/>
    <circle cx="301" cy="347" r="2"/>
    <circle cx="445" cy="295" r="2"/>
  </g>
  <g stroke="chocolate" stroke-width="1">
    <line x1="105" y1="248" x2="199" y2="172"/>
    <circle cx="105" cy="248" r="2"/>
    <circle cx="199" cy="172" r="2"/>
  </g>
  <g stroke="chocolate" stroke-width="1">
    <line x1="393" y1="394" x2="78" y2="235"/>
    <circle cx="393" cy="394" r="2"/>
    <circle cx="78" cy="235" r="2"/>
  </g>
  <g stroke="chocolate" stroke-width="1">
    <line x1="202" y1="298" x2="279" y2="275"/>
    <circle cx="202" cy="298" r="2"/>
    <circle cx="279" cy="275" r="2"/>
  </g>
  <g stroke="chocolate" stroke-width="1">
    <line x1="108" y1="250" x2="227" y2="186"/>
    <circle cx="108" cy="250" r="2"/>
    <circle cx="227" cy="186" r="2"/>
  </g>
  <g stroke="chocolate" stroke-width="1">
    <line x1="445" y1="295" x2="90" y2="116"/>
    <circle cx="445" cy="295" r="2"/>
    <circle cx="90" cy="116" r="2"/>
  </g>
  <g stroke="chocolate" stroke-width="1">
    <line x1="279" y1="258" x2="321" y2="250"/>
    <circle cx="279" cy="258" r="2"/>
    <circle cx="321" cy="250" r="2"/>
  </g>
  <g stroke="chocolate" stroke-width="1">
    <line x1="233" y1="222" x2="73" y2="182"/>
    <circle cx="233" cy="222" r="2"/>
    <circle cx="73" cy="182" r="2"/>
  </g>
  <g stroke="chocolate" stroke-width="1">
    <line x1="78" y1="235" x2="308" y2="224"/>
    <circle cx="78" cy="235" r="2"/>
    <circle cx="308" cy="224" r="2"/>
  </g>
  <g stroke="chocolate" stroke-width="1">
    <line x1="461" y1="200" x2="460" y2="199"/>
    <circle cx="461" cy="200" r="2"/>
    <circle cx="460" cy="199" r="2"/>
  </g>
  <g stroke="chocolate" stroke-width="1">
    <line x1="222" y1="183" x2="199" y2="182"/>
    <circle cx="222" cy="183" r="2"/>
    <circle cx="199" cy="182" r="2"/>
  </g>
  <g stroke="chocolate" stroke-width="1">
    <line x1="40" y1="177" x2="147" y2="145"/>
    <circle cx="40" cy="177" r="2"/>
    <circle cx="147" cy="145" r="2"/>
  </g>
  <g stroke="black" stroke-width="1">
    <line x1="5" y1="5" x2="505" y2="5"/>
    <line x1="5" y1="5" x2="5" y2="505"/>
    <line x1="505" y1="505" x2="5" y2="505"/>
    <line x1="505" y1="505" x2="505" y2="5"/>
    <line x1="105" y1="2" x2="105" y2="8"/>
    <line x1="2" y1="105" x2="8" y2="105"/>
    <line x1="105" y1="502" x2="105" y2="508"/>
    <line x1="502" y1="105" x2="508" y2="105"/>
    <line x1="205" y1="2" x2="205" y2="8"/>
    <line x1="2" y1="205" x2="8" y2="205"/>
    <line x1="205" y1="502" x2="205" y2="508"/>
    <line x1="502" y1="205" x2="508" y2="205"/>
    <line x1="305" y1="2" x2="305" y2="8"/>
    <line x1="2" y1="305" x2="8" y2="305"/>
    <line x1="305" y1="502" x2="305" y2="508"/>
    <line x1="502" y1="305" x2="508" y2="305"/>
    <line x1="405" y1="2" x2="405" y2="8"/>
    <line x1="2" y1="405" x2="8" y2="405"/>
    <line x1="405" y1="502" x2="405" y2="508"/>
    <line x1="502" y1="405" x2="508" y2="405"/>
  </g>
  <g stroke="gray" stroke-width="1" stroke-dasharray="5,5">
    <line x1="105" y1="5" x2="105" y2="505"/>
    <line x1="5" y1="105" x2="505" y2="105"/>
    <line x1="205" y1="5" x2="205" y2="505"/>
    <line x1="5" y1="205" x2="505" y2="205"/>
    <line x1="305" y1="5" x2="305" y2="505"/>
    <line x1="5" y1="305" x2="505" y2="305"/>
    <line x1="405" y1="5" x2="405" y2="505"/>
    <line x1="5" y1="405" x2="505" y2="405"/>
  </g>
</svg>
