<?xml version="1.0" standalone="no"?>
<!DOCTYPE svg PUBLIC "-//W3C//DTD SVG 1.1//EN" 
  "http://www.w3.org/Graphics/SVG/1.1/DTD/svg11.dtd">
<svg width="510" height="510" version="1.1" id="toplevel"
    xmlns="http://www.w3.org/2000/svg"
    xmlns:xlink="http://www.w3.org/1999/xlink">
  <polygon points="145,413 380,410 399,329 214,97 142,115 143,137 111,273 144,280"
           fill="bisque"/>
  <g stroke="chocolate" stroke-width="1">
    <line x1="352" y1="396" x2="392" y2="320"/>
    <circle cx="352" cy="396" r="2"/>
    <circle cx="392" cy="320" r="2"/>
  </g>
  <g stroke="chocolate" stroke-width="1">
    <line x1="380" y1="410" x2="399" y2="329"/>
    <circle cx="380" cy="410" r="2"/>
    <circle cx="399" cy="329" r="2"/>
  </g>
  <g stroke="chocolate" stroke-width="1">
    <line x1="232" y1="301" x2="265" y2="162"/>
    <circle cx="232" cy="301" r="2"/>
    <circle cx="265" cy="162" r="2"/>
  </g>
  <g stroke="chocolate" stroke-width="1">
    <line x1="111" y1="273" x2="148" y2="114"/>
    <circle cx="111" cy="273" r="2"/>
    <circle cx="148" cy="114" r="2"/>
  </g>
  <g stroke="chocolate" stroke-width="1">
    <line x1="200" y1="172" x2="214" y2="97"/>
    <circle cx="200" cy="172" r="2"/>
    <circle cx="214" cy="97" r="2"/>
  </g>
  <g stroke="chocolate" stroke-width="1">
    <line x1="145" y1="413" x2="142" y2="115"/>
    <circle cx="145" cy="413" r="2"/>
    <circle cx="142" cy="115" r="2"/>
  </g>
  <g stroke="chocolate" stroke-width="1">
    <line x1="380" y1="410" x2="379" y2="303"/>
    <circle cx="380" cy="410" r="2"/>
    <circle cx="379" cy="303" r="2"/>
  </g>
  <g stroke="chocolate" stroke-width="1">
    <line x1="179" y1="184" x2="200" y2="172"/>
    <circle cx="179" cy="184" r="2"/>
    <circle cx="200" cy="172" r="2"/>
  </g>
  <g stroke="chocolate" stroke-width="1">
    <line x1="354" y1="330" x2="392" y2="320"/>
    <circle cx="354" cy="330" r="2"/>
    <circle cx="392" cy="320" r="2"/>
  </g>
  <g stroke="chocolate" stroke-width="1">
    <line x1="145" y1="413" x2="380" y2="410"/>
    <circle cx="145" cy="413" r="2"/>
    <circle cx="380" cy="410" r="2"/>
  </g>
  <g stroke="chocolate" stroke-width="1">
    <line x1="142" y1="115" x2="214" y2="97"/>
    <circle cx="142" cy="115" r="2"/>
    <circle cx="214" cy="97" r="2"/>
  </g>
  <g stroke="chocolate" stroke-width="1">
    <line x1="354" y1="330" x2="399" y2="329"/>
    <circle cx="354" cy="330" r="2"/>
    <circle cx="399" cy="329" r="2"/>
  </g>
  <g stroke="chocolate" stroke-width="1">
    <line x1="179" y1="184" x2="142" y2="115"/>
    <circle cx="179" cy="184" r="2"/>
    <circle cx="142" cy="115" r="2"/>
  </g>
  <g stroke="chocolate" stroke-width="1">
    <line x1="143" y1="163" x2="265" y2="162"/>
    <circle cx="143" cy="163" r="2"/>
    <circle cx="265" cy="162" r="2"/>
  </g>
  <g stroke="chocolate" stroke-width="1">
    <line x1="354" y1="330" x2="111" y2="273"/>
    <circle cx="354" cy="330" r="2"/>
    <circle cx="111" cy="273" r="2"/>
  </g>
  <g stroke="chocolate" stroke-width="1">
    <line x1="379" y1="303" x2="118" y2="242"/>
    <circle cx="379" cy="303" r="2"/>
    <circle cx="118" cy="242" r="2"/>
  </g>
  <g stroke="chocolate" stroke-width="1">
    <line x1="380" y1="410" x2="352" y2="396"/>
    <circle cx="380" cy="410" r="2"/>
    <circle cx="352" cy="396" r="2"/>
  </g>
  <g stroke="chocolate" stroke-width="1">
    <line x1="399" y1="329" x2="214" y2="97"/>
    <circle cx="399" cy="329" r="2"/>
    <circle cx="214" cy="97" r="2"/>
  </g>
  <g stroke="chocolate" stroke-width="1">
    <line x1="200" y1="172" x2="148" y2="114"/>
    <circle cx="200" cy="172" r="2"/>
    <circle cx="148" cy="114" r="2"/>
  </g>
  <g stroke="black" stroke-width="1">
    <line x1="5" y1="5" x2="505" y2="5"/>
    <line x1="5" y1="5" x2="5" y2="505"/>
    <line x1="505" y1="505" x2="5" y2="505"/>
    <line x1="505" y1="505" x2="505" y2="5"/>
    <line x1="105" y1="2" x2="105" y2="8"/>
    <line x1="2" y1="105" x2="8" y2="105"/>
    <line x1="105" y1="502" x2="105" y2="508"/>
    <line x1="502" y1="105" x2="508" y2="105"/>
    <line x1="205" y1="2" x2="205" y2="8"/>
    <line x1="2" y1="205" x2="8" y2="205"/>
    <line x1="205" y1="502" x2="205" y2="508"/>
    <line x1="502" y1="205" x2="508" y2="205"/>
    <line x1="305" y1="2" x2="305" y2="8"/>
    <line x1="2" y1="305" x2="8" y2="305"/>
    <line x1="305" y1="502" x2="305" y2="508"/>
    <line x1="502" y1="305" x2="508" y2="305"/>
    <line x1="405" y1="2" x2="405" y2="8"/>
    <line x1="2" y1="405" x2="8" y2="405"/>
    <line x1="405" y1="502" x2="405" y2="508"/>
    <line x1="502" y1="405" x2="508" y2="405"/>
  </g>
  <g stroke="gray" stroke-width="1" stroke-dasharray="5,5">
    <line x1="105" y1="5" x2="105" y2="505"/>
    <line x1="5" y1="105" x2="505" y2="105"/>
    <line x1="205" y1="5" x2="205" y2="505"/>
    <line x1="5" y1="205" x2="505" y2="205"/>
    <line x1="305" y1="5" x2="305" y2="505"/>
    <line x1="5" y1="305" x2="505" y2="305"/>
    <line x1="405" y1="5" x2="405" y2="505"/>
    <line x1="5" y1="405" x2="505" y2="405"/>
  </g>
</svg>
