<?xml version="1.0" standalone="no"?>
<!DOCTYPE svg PUBLIC "-//W3C//DTD SVG 1.1//EN" 
  "http://www.w3.org/Graphics/SVG/1.1/DTD/svg11.dtd">
<svg width="510" height="510" version="1.1" id="toplevel"
    xmlns="http://www.w3.org/2000/svg"
    xmlns:xlink="http://www.w3.org/1999/xlink">
  <polygon points="221,461 223,460 222,460 294,367 423,370 426,206 453,213 476,133 310,49 88,155 86,153 55,169 52,165 34,180"
           fill="bisque"/>
  <g stroke="chocolate" stroke-width="1">
    <line x1="221" y1="461" x2="223" y2="460"/>
    <circle cx="221" cy="461" r="2"/>
    <circle cx="223" cy="460" r="2"/>
  </g>
  <g stroke="chocolate" stroke-width="1">
    <line x1="221" y1="461" x2="476" y2="133"/>
    <circle cx="221" cy="461" r="2"/>
    <circle cx="476" cy="133" r="2"/>
  </g>
  <g stroke="chocolate" stroke-width="1">
    <line x1="366" y1="157" x2="428" y2="109"/>
    <circle cx="366" cy="157" r="2"/>
    <circle cx="428" cy="109" r="2"/>
  </g>
  <g stroke="chocolate" stroke-width="1">
    <line x1="366" y1="157" x2="397" y2="134"/>
    <circle cx="366" cy="157" r="2"/>
    <circle cx="397" cy="134" r="2"/>
  </g>
  <g stroke="chocolate" stroke-width="1">
    <line x1="423" y1="370" x2="157" y2="364"/>
    <circle cx="423" cy="370" r="2"/>
    <circle cx="157" cy="364" r="2"/>
  </g>
  <g stroke="chocolate" stroke-width="1">
    <line x1="129" y1="322" x2="178" y2="311"/>
    <circle cx="129" cy="322" r="2"/>
    <circle cx="178" cy="311" r="2"/>
  </g>
  <g stroke="chocolate" stroke-width="1">
    <line x1="128" y1="280" x2="174" y2="260"/>
    <circle cx="128" cy="280" r="2"/>
    <circle cx="174" cy="260" r="2"/>
  </g>
  <g stroke="chocolate" stroke-width="1">
    <line x1="129" y1="322" x2="174" y2="260"/>
    <circle cx="129" cy="322" r="2"/>
    <circle cx="174" cy="260" r="2"/>
  </g>
  <g stroke="chocolate" stroke-width="1">
    <line x1="453" y1="213" x2="476" y2="133"/>
    <circle cx="453" cy="213" r="2"/>
    <circle cx="476" cy="133" r="2"/>
  </g>
  <g stroke="chocolate" stroke-width="1">
    <line x1="157" y1="364" x2="178" y2="311"/>
    <circle cx="157" cy="364" r="2"/>
    <circle cx="178" cy="311" r="2"/>
  </g>
  <g stroke="chocolate" stroke-width="1">
    <line x1="77" y1="164" x2="86" y2="153"/>
    <circle cx="77" cy="164" r="2"/>
    <circle cx="86" cy="153" r="2"/>
  </g>
  <g stroke="chocolate" stroke-width="1">
    <line x1="35" y1="181" x2="52" y2="165"/>
    <circle cx="35" cy="181" r="2"/>
    <circle cx="52" cy="165" r="2"/>
  </g>
  <g stroke="chocolate" stroke-width="1">
    <line x1="34" y1="180" x2="52" y2="165"/>
    <circle cx="34" cy="180" r="2"/>
    <circle cx="52" cy="165" r="2"/>
  </g>
  <g stroke="chocolate" stroke-width="1">
    <line x1="34" y1="180" x2="86" y2="153"/>
    <circle cx="34" cy="180" r="2"/>
    <circle cx="86" cy="153" r="2"/>
  </g>
  <g stroke="chocolate" stroke-width="1">
    <line x1="35" y1="181" x2="310" y2="49"/>
    <circle cx="35" cy="181" r="2"/>
    <circle cx="310" cy="49" r="2"/>
  </g>
  <g stroke="chocolate" stroke-width="1">
    <line x1="184" y1="318" x2="102" y2="282"/>
    <circle cx="184" cy="318" r="2"/>
    <circle cx="102" cy="282" r="2"/>
  </g>
  <g stroke="chocolate" stroke-width="1">
    <line x1="423" y1="370" x2="428" y2="109"/>
    <circle cx="423" cy="370" r="2"/>
    <circle cx="428" cy="109" r="2"/>
  </g>
  <g stroke="chocolate" stroke-width="1">
    <line x1="397" y1="197" x2="397" y2="134"/>
    <circle cx="397" cy="197" r="2"/>
    <circle cx="397" cy="134" r="2"/>
  </g>
  <g stroke="chocolate" stroke-width="1">
    <line x1="102" y1="282" x2="100" y2="169"/>
    <circle cx="102" cy="282" r="2"/>
    <circle cx="100" cy="169" r="2"/>
  </g>
  <g stroke="chocolate" stroke-width="1">
    <line x1="221" y1="461" x2="34" y2="180"/>
    <circle cx="221" cy="461" r="2"/>
    <circle cx="34" cy="180" r="2"/>
  </g>
  <g stroke="chocolate" stroke-width="1">
    <line x1="223" y1="460" x2="184" y2="318"/>
    <circle cx="223" cy="460" r="2"/>
    <circle cx="184" cy="318" r="2"/>
  </g>
  <g stroke="chocolate" stroke-width="1">
    <line x1="100" y1="169" x2="77" y2="164"/>
    <circle cx="100" cy="169" r="2"/>
    <circle cx="77" cy="164" r="2"/>
  </g>
  <g stroke="chocolate" stroke-width="1">
    <line x1="128" y1="280" x2="77" y2="164"/>
    <circle cx="128" cy="280" r="2"/>
    <circle cx="77" cy="164" r="2"/>
  </g>
  <g stroke="chocolate" stroke-width="1">
    <line x1="184" y1="318" x2="52" y2="165"/>
    <circle cx="184" cy="318" r="2"/>
    <circle cx="52" cy="165" r="2"/>
  </g>
  <g stroke="chocolate" stroke-width="1">
    <line x1="319" y1="95" x2="310" y2="49"/>
    <circle cx="319" cy="95" r="2"/>
    <circle cx="310" cy="49" r="2"/>
  </g>
  <g stroke="chocolate" stroke-width="1">
    <line x1="174" y1="260" x2="86" y2="153"/>
    <circle cx="174" cy="260" r="2"/>
    <circle cx="86" cy="153" r="2"/>
  </g>
  <g stroke="chocolate" stroke-width="1">
    <line x1="453" y1="213" x2="397" y2="197"/>
    <circle cx="453" cy="213" r="2"/>
    <circle cx="397" cy="197" r="2"/>
  </g>
  <g stroke="chocolate" stroke-width="1">
    <line x1="397" y1="197" x2="319" y2="95"/>
    <circle cx="397" cy="197" r="2"/>
    <circle cx="319" cy="95" r="2"/>
  </g>
  <g stroke="chocolate" stroke-width="1">
    <line x1="397" y1="134" x2="319" y2="95"/>
    <circle cx="397" cy="134" r="2"/>
    <circle cx="319" cy="95" r="2"/>
  </g>
  <g stroke="chocolate" stroke-width="1">
    <line x1="476" y1="133" x2="310" y2="49"/>
    <circle cx="476" cy="133" r="2"/>
    <circle cx="310" cy="49" r="2"/>
  </g>
  <g stroke="black" stroke-width="1">
    <line x1="5" y1="5" x2="505" y2="5"/>
    <line x1="5" y1="5" x2="5" y2="505"/>
    <line x1="505" y1="505" x2="5" y2="505"/>
    <line x1="505" y1="505" x2="505" y2="5"/>
    <line x1="105" y1="2" x2="105" y2="8"/>
    <line x1="2" y1="105" x2="8" y2="105"/>
    <line x1="105" y1="502" x2="105" y2="508"/>
    <line x1="502" y1="105" x2="508" y2="105"/>
    <line x1="205" y1="2" x2="205" y2="8"/>
    <line x1="2" y1="205" x2="8" y2="205"/>
    <line x1="205" y1="502" x2="205" y2="508"/>
    <line x1="502" y1="205" x2="508" y2="205"/>
    <line x1="305" y1="2" x2="305" y2="8"/>
    <line x1="2" y1="305" x2="8" y2="305"/>
    <line x1="305" y1="502" x2="305" y2="508"/>
    <line x1="502" y1="305" x2="508" y2="305"/>
    <line x1="405" y1="2" x2="405" y2="8"/>
    <line x1="2" y1="405" x2="8" y2="405"/>
    <line x1="405" y1="502" x2="405" y2="508"/>
    <line x1="502" y1="405" x2="508" y2="405"/>
  </g>
  <g stroke="gray" stroke-width="1" stroke-dasharray="5,5">
    <line x1="105" y1="5" x2="105" y2="505"/>
    <line x1="5" y1="105" x2="505" y2="105"/>
    <line x1="205" y1="5" x2="205" y2="505"/>
    <line x1="5" y1="205" x2="505" y2="205"/>
    <line x1="305" y1="5" x2="305" y2="505"/>
    <line x1="5" y1="305" x2="505" y2="305"/>
    <line x1="405" y1="5" x2="405" y2="505"/>
    <line x1="5" y1="405" x2="505" y2="405"/>
  </g>
</svg>
