<?xml version="1.0" standalone="no"?>
<!DOCTYPE svg PUBLIC "-//W3C//DTD SVG 1.1//EN" 
  "http://www.w3.org/Graphics/SVG/1.1/DTD/svg11.dtd">
<svg width="510" height="510" version="1.1" id="toplevel"
    xmlns="http://www.w3.org/2000/svg"
    xmlns:xlink="http://www.w3.org/1999/xlink">
  <polygon points="148,410 456,240 455,157 444,157 381,100 148,111 98,189 119,281 65,299 66,297 63,296 54,303 68,331"
           fill="bisque"/>
  <g stroke="chocolate" stroke-width="1">
    <line x1="68" y1="331" x2="63" y2="296"/>
    <circle cx="68" cy="331" r="2"/>
    <circle cx="63" cy="296" r="2"/>
  </g>
  <g stroke="chocolate" stroke-width="1">
    <line x1="148" y1="410" x2="98" y2="189"/>
    <circle cx="148" cy="410" r="2"/>
    <circle cx="98" cy="189" r="2"/>
  </g>
  <g stroke="chocolate" stroke-width="1">
    <line x1="405" y1="213" x2="415" y2="156"/>
    <circle cx="405" cy="213" r="2"/>
    <circle cx="415" cy="156" r="2"/>
  </g>
  <g stroke="chocolate" stroke-width="1">
    <line x1="456" y1="240" x2="455" y2="157"/>
    <circle cx="456" cy="240" r="2"/>
    <circle cx="455" cy="157" r="2"/>
  </g>
  <g stroke="chocolate" stroke-width="1">
    <line x1="391" y1="276" x2="381" y2="100"/>
    <circle cx="391" cy="276" r="2"/>
    <circle cx="381" cy="100" r="2"/>
  </g>
  <g stroke="chocolate" stroke-width="1">
    <line x1="68" y1="331" x2="54" y2="303"/>
    <circle cx="68" cy="331" r="2"/>
    <circle cx="54" cy="303" r="2"/>
  </g>
  <g stroke="chocolate" stroke-width="1">
    <line x1="199" y1="177" x2="207" y2="108"/>
    <circle cx="199" cy="177" r="2"/>
    <circle cx="207" cy="108" r="2"/>
  </g>
  <g stroke="chocolate" stroke-width="1">
    <line x1="219" y1="162" x2="207" y2="108"/>
    <circle cx="219" cy="162" r="2"/>
    <circle cx="207" cy="108" r="2"/>
  </g>
  <g stroke="chocolate" stroke-width="1">
    <line x1="455" y1="240" x2="456" y2="238"/>
    <circle cx="455" cy="240" r="2"/>
    <circle cx="456" cy="238" r="2"/>
  </g>
  <g stroke="chocolate" stroke-width="1">
    <line x1="455" y1="240" x2="456" y2="238"/>
    <circle cx="455" cy="240" r="2"/>
    <circle cx="456" cy="238" r="2"/>
  </g>
  <g stroke="chocolate" stroke-width="1">
    <line x1="366" y1="258" x2="414" y2="158"/>
    <circle cx="366" cy="258" r="2"/>
    <circle cx="414" cy="158" r="2"/>
  </g>
  <g stroke="chocolate" stroke-width="1">
    <line x1="382" y1="109" x2="384" y2="103"/>
    <circle cx="382" cy="109" r="2"/>
    <circle cx="384" cy="103" r="2"/>
  </g>
  <g stroke="chocolate" stroke-width="1">
    <line x1="271" y1="342" x2="379" y2="100"/>
    <circle cx="271" cy="342" r="2"/>
    <circle cx="379" cy="100" r="2"/>
  </g>
  <g stroke="chocolate" stroke-width="1">
    <line x1="148" y1="410" x2="68" y2="331"/>
    <circle cx="148" cy="410" r="2"/>
    <circle cx="68" cy="331" r="2"/>
  </g>
  <g stroke="chocolate" stroke-width="1">
    <line x1="410" y1="215" x2="406" y2="208"/>
    <circle cx="410" cy="215" r="2"/>
    <circle cx="406" cy="208" r="2"/>
  </g>
  <g stroke="chocolate" stroke-width="1">
    <line x1="456" y1="238" x2="414" y2="158"/>
    <circle cx="456" cy="238" r="2"/>
    <circle cx="414" cy="158" r="2"/>
  </g>
  <g stroke="chocolate" stroke-width="1">
    <line x1="58" y1="311" x2="66" y2="297"/>
    <circle cx="58" cy="311" r="2"/>
    <circle cx="66" cy="297" r="2"/>
  </g>
  <g stroke="chocolate" stroke-width="1">
    <line x1="199" y1="177" x2="148" y2="111"/>
    <circle cx="199" cy="177" r="2"/>
    <circle cx="148" cy="111" r="2"/>
  </g>
  <g stroke="chocolate" stroke-width="1">
    <line x1="381" y1="104" x2="379" y2="100"/>
    <circle cx="381" cy="104" r="2"/>
    <circle cx="379" cy="100" r="2"/>
  </g>
  <g stroke="chocolate" stroke-width="1">
    <line x1="456" y1="238" x2="382" y2="109"/>
    <circle cx="456" cy="238" r="2"/>
    <circle cx="382" cy="109" r="2"/>
  </g>
  <g stroke="chocolate" stroke-width="1">
    <line x1="406" y1="208" x2="449" y2="163"/>
    <circle cx="406" cy="208" r="2"/>
    <circle cx="449" cy="163" r="2"/>
  </g>
  <g stroke="chocolate" stroke-width="1">
    <line x1="366" y1="258" x2="455" y2="170"/>
    <circle cx="366" cy="258" r="2"/>
    <circle cx="455" cy="170" r="2"/>
  </g>
  <g stroke="chocolate" stroke-width="1">
    <line x1="98" y1="189" x2="148" y2="111"/>
    <circle cx="98" cy="189" r="2"/>
    <circle cx="148" cy="111" r="2"/>
  </g>
  <g stroke="chocolate" stroke-width="1">
    <line x1="405" y1="213" x2="455" y2="167"/>
    <circle cx="405" cy="213" r="2"/>
    <circle cx="455" cy="167" r="2"/>
  </g>
  <g stroke="chocolate" stroke-width="1">
    <line x1="66" y1="297" x2="63" y2="296"/>
    <circle cx="66" cy="297" r="2"/>
    <circle cx="63" cy="296" r="2"/>
  </g>
  <g stroke="chocolate" stroke-width="1">
    <line x1="148" y1="410" x2="456" y2="240"/>
    <circle cx="148" cy="410" r="2"/>
    <circle cx="456" cy="240" r="2"/>
  </g>
  <g stroke="chocolate" stroke-width="1">
    <line x1="391" y1="276" x2="366" y2="258"/>
    <circle cx="391" cy="276" r="2"/>
    <circle cx="366" cy="258" r="2"/>
  </g>
  <g stroke="chocolate" stroke-width="1">
    <line x1="455" y1="170" x2="449" y2="163"/>
    <circle cx="455" cy="170" r="2"/>
    <circle cx="449" cy="163" r="2"/>
  </g>
  <g stroke="chocolate" stroke-width="1">
    <line x1="54" y1="303" x2="63" y2="296"/>
    <circle cx="54" cy="303" r="2"/>
    <circle cx="63" cy="296" r="2"/>
  </g>
  <g stroke="chocolate" stroke-width="1">
    <line x1="455" y1="167" x2="381" y2="100"/>
    <circle cx="455" cy="167" r="2"/>
    <circle cx="381" cy="100" r="2"/>
  </g>
  <g stroke="chocolate" stroke-width="1">
    <line x1="271" y1="342" x2="58" y2="311"/>
    <circle cx="271" cy="342" r="2"/>
    <circle cx="58" cy="311" r="2"/>
  </g>
  <g stroke="chocolate" stroke-width="1">
    <line x1="381" y1="104" x2="384" y2="103"/>
    <circle cx="381" cy="104" r="2"/>
    <circle cx="384" cy="103" r="2"/>
  </g>
  <g stroke="chocolate" stroke-width="1">
    <line x1="456" y1="240" x2="405" y2="213"/>
    <circle cx="456" cy="240" r="2"/>
    <circle cx="405" cy="213" r="2"/>
  </g>
  <g stroke="chocolate" stroke-width="1">
    <line x1="54" y1="303" x2="455" y2="170"/>
    <circle cx="54" cy="303" r="2"/>
    <circle cx="455" cy="170" r="2"/>
  </g>
  <g stroke="chocolate" stroke-width="1">
    <line x1="410" y1="215" x2="456" y2="209"/>
    <circle cx="410" cy="215" r="2"/>
    <circle cx="456" cy="209" r="2"/>
  </g>
  <g stroke="chocolate" stroke-width="1">
    <line x1="456" y1="209" x2="199" y2="177"/>
    <circle cx="456" cy="209" r="2"/>
    <circle cx="199" cy="177" r="2"/>
  </g>
  <g stroke="chocolate" stroke-width="1">
    <line x1="98" y1="189" x2="219" y2="162"/>
    <circle cx="98" cy="189" r="2"/>
    <circle cx="219" cy="162" r="2"/>
  </g>
  <g stroke="chocolate" stroke-width="1">
    <line x1="455" y1="170" x2="415" y2="156"/>
    <circle cx="455" cy="170" r="2"/>
    <circle cx="415" cy="156" r="2"/>
  </g>
  <g stroke="chocolate" stroke-width="1">
    <line x1="414" y1="158" x2="455" y2="157"/>
    <circle cx="414" cy="158" r="2"/>
    <circle cx="455" cy="157" r="2"/>
  </g>
  <g stroke="chocolate" stroke-width="1">
    <line x1="455" y1="157" x2="415" y2="156"/>
    <circle cx="455" cy="157" r="2"/>
    <circle cx="415" cy="156" r="2"/>
  </g>
  <g stroke="chocolate" stroke-width="1">
    <line x1="148" y1="111" x2="381" y2="100"/>
    <circle cx="148" cy="111" r="2"/>
    <circle cx="381" cy="100" r="2"/>
  </g>
  <g stroke="black" stroke-width="1">
    <line x1="5" y1="5" x2="505" y2="5"/>
    <line x1="5" y1="5" x2="5" y2="505"/>
    <line x1="505" y1="505" x2="5" y2="505"/>
    <line x1="505" y1="505" x2="505" y2="5"/>
    <line x1="105" y1="2" x2="105" y2="8"/>
    <line x1="2" y1="105" x2="8" y2="105"/>
    <line x1="105" y1="502" x2="105" y2="508"/>
    <line x1="502" y1="105" x2="508" y2="105"/>
    <line x1="205" y1="2" x2="205" y2="8"/>
    <line x1="2" y1="205" x2="8" y2="205"/>
    <line x1="205" y1="502" x2="205" y2="508"/>
    <line x1="502" y1="205" x2="508" y2="205"/>
    <line x1="305" y1="2" x2="305" y2="8"/>
    <line x1="2" y1="305" x2="8" y2="305"/>
    <line x1="305" y1="502" x2="305" y2="508"/>
    <line x1="502" y1="305" x2="508" y2="305"/>
    <line x1="405" y1="2" x2="405" y2="8"/>
    <line x1="2" y1="405" x2="8" y2="405"/>
    <line x1="405" y1="502" x2="405" y2="508"/>
    <line x1="502" y1="405" x2="508" y2="405"/>
  </g>
  <g stroke="gray" stroke-width="1" stroke-dasharray="5,5">
    <line x1="105" y1="5" x2="105" y2="505"/>
    <line x1="5" y1="105" x2="505" y2="105"/>
    <line x1="205" y1="5" x2="205" y2="505"/>
    <line x1="5" y1="205" x2="505" y2="205"/>
    <line x1="305" y1="5" x2="305" y2="505"/>
    <line x1="5" y1="305" x2="505" y2="305"/>
    <line x1="405" y1="5" x2="405" y2="505"/>
    <line x1="5" y1="405" x2="505" y2="405"/>
  </g>
</svg>
