<?xml version="1.0" standalone="no"?>
<!DOCTYPE svg PUBLIC "-//W3C//DTD SVG 1.1//EN" 
  "http://www.w3.org/Graphics/SVG/1.1/DTD/svg11.dtd">
<svg width="510" height="510" version="1.1" id="toplevel"
    xmlns="http://www.w3.org/2000/svg"
    xmlns:xlink="http://www.w3.org/1999/xlink">
  <polygon points="7,505 253,505 253,501 503,501 503,498 503,498 503,498 503,498 503,491 503,255 253,255 7,501"
           fill="bisque"/>
  <g stroke="chocolate" stroke-width="1">
    <line x1="7" y1="501" x2="253" y2="255"/>
    <circle cx="7" cy="501" r="2"/>
    <circle cx="253" cy="255" r="2"/>
  </g>
  <g stroke="chocolate" stroke-width="1">
    <line x1="503" y1="498" x2="503" y2="498"/>
    <circle cx="503" cy="498" r="2"/>
    <circle cx="503" cy="498" r="2"/>
  </g>
  <g stroke="chocolate" stroke-width="1">
    <line x1="11" y1="505" x2="11" y2="497"/>
    <circle cx="11" cy="505" r="2"/>
    <circle cx="11" cy="497" r="2"/>
  </g>
  <g stroke="chocolate" stroke-width="1">
    <line x1="10" y1="505" x2="18" y2="505"/>
    <circle cx="10" cy="505" r="2"/>
    <circle cx="18" cy="505" r="2"/>
  </g>
  <g stroke="chocolate" stroke-width="1">
    <line x1="7" y1="505" x2="253" y2="505"/>
    <circle cx="7" cy="505" r="2"/>
    <circle cx="253" cy="505" r="2"/>
  </g>
  <g stroke="chocolate" stroke-width="1">
    <line x1="7" y1="505" x2="7" y2="501"/>
    <circle cx="7" cy="505" r="2"/>
    <circle cx="7" cy="501" r="2"/>
  </g>
  <g stroke="chocolate" stroke-width="1">
    <line x1="7" y1="505" x2="7" y2="501"/>
    <circle cx="7" cy="505" r="2"/>
    <circle cx="7" cy="501" r="2"/>
  </g>
  <g stroke="chocolate" stroke-width="1">
    <line x1="7" y1="505" x2="7" y2="501"/>
    <circle cx="7" cy="505" r="2"/>
    <circle cx="7" cy="501" r="2"/>
  </g>
  <g stroke="chocolate" stroke-width="1">
    <line x1="8" y1="505" x2="8" y2="500"/>
    <circle cx="8" cy="505" r="2"/>
    <circle cx="8" cy="500" r="2"/>
  </g>
  <g stroke="chocolate" stroke-width="1">
    <line x1="8" y1="505" x2="8" y2="500"/>
    <circle cx="8" cy="505" r="2"/>
    <circle cx="8" cy="500" r="2"/>
  </g>
  <g stroke="chocolate" stroke-width="1">
    <line x1="8" y1="505" x2="8" y2="500"/>
    <circle cx="8" cy="505" r="2"/>
    <circle cx="8" cy="500" r="2"/>
  </g>
  <g stroke="chocolate" stroke-width="1">
    <line x1="9" y1="505" x2="9" y2="499"/>
    <circle cx="9" cy="505" r="2"/>
    <circle cx="9" cy="499" r="2"/>
  </g>
  <g stroke="chocolate" stroke-width="1">
    <line x1="9" y1="505" x2="9" y2="499"/>
    <circle cx="9" cy="505" r="2"/>
    <circle cx="9" cy="499" r="2"/>
  </g>
  <g stroke="chocolate" stroke-width="1">
    <line x1="9" y1="505" x2="9" y2="499"/>
    <circle cx="9" cy="505" r="2"/>
    <circle cx="9" cy="499" r="2"/>
  </g>
  <g stroke="chocolate" stroke-width="1">
    <line x1="10" y1="505" x2="10" y2="499"/>
    <circle cx="10" cy="505" r="2"/>
    <circle cx="10" cy="499" r="2"/>
  </g>
  <g stroke="chocolate" stroke-width="1">
    <line x1="10" y1="505" x2="10" y2="498"/>
    <circle cx="10" cy="505" r="2"/>
    <circle cx="10" cy="498" r="2"/>
  </g>
  <g stroke="chocolate" stroke-width="1">
    <line x1="18" y1="505" x2="18" y2="490"/>
    <circle cx="18" cy="505" r="2"/>
    <circle cx="18" cy="490" r="2"/>
  </g>
  <g stroke="chocolate" stroke-width="1">
    <line x1="18" y1="505" x2="18" y2="490"/>
    <circle cx="18" cy="505" r="2"/>
    <circle cx="18" cy="490" r="2"/>
  </g>
  <g stroke="chocolate" stroke-width="1">
    <line x1="18" y1="505" x2="18" y2="490"/>
    <circle cx="18" cy="505" r="2"/>
    <circle cx="18" cy="490" r="2"/>
  </g>
  <g stroke="chocolate" stroke-width="1">
    <line x1="19" y1="505" x2="19" y2="489"/>
    <circle cx="19" cy="505" r="2"/>
    <circle cx="19" cy="489" r="2"/>
  </g>
  <g stroke="chocolate" stroke-width="1">
    <line x1="19" y1="505" x2="19" y2="489"/>
    <circle cx="19" cy="505" r="2"/>
    <circle cx="19" cy="489" r="2"/>
  </g>
  <g stroke="chocolate" stroke-width="1">
    <line x1="19" y1="505" x2="19" y2="489"/>
    <circle cx="19" cy="505" r="2"/>
    <circle cx="19" cy="489" r="2"/>
  </g>
  <g stroke="chocolate" stroke-width="1">
    <line x1="20" y1="505" x2="20" y2="488"/>
    <circle cx="20" cy="505" r="2"/>
    <circle cx="20" cy="488" r="2"/>
  </g>
  <g stroke="chocolate" stroke-width="1">
    <line x1="20" y1="505" x2="20" y2="488"/>
    <circle cx="20" cy="505" r="2"/>
    <circle cx="20" cy="488" r="2"/>
  </g>
  <g stroke="chocolate" stroke-width="1">
    <line x1="20" y1="505" x2="20" y2="488"/>
    <circle cx="20" cy="505" r="2"/>
    <circle cx="20" cy="488" r="2"/>
  </g>
  <g stroke="chocolate" stroke-width="1">
    <line x1="21" y1="505" x2="21" y2="488"/>
    <circle cx="21" cy="505" r="2"/>
    <circle cx="21" cy="488" r="2"/>
  </g>
  <g stroke="chocolate" stroke-width="1">
    <line x1="21" y1="505" x2="21" y2="487"/>
    <circle cx="21" cy="505" r="2"/>
    <circle cx="21" cy="487" r="2"/>
  </g>
  <g stroke="chocolate" stroke-width="1">
    <line x1="253" y1="505" x2="253" y2="255"/>
    <circle cx="253" cy="505" r="2"/>
    <circle cx="253" cy="255" r="2"/>
  </g>
  <g stroke="chocolate" stroke-width="1">
    <line x1="503" y1="501" x2="503" y2="255"/>
    <circle cx="503" cy="501" r="2"/>
    <circle cx="503" cy="255" r="2"/>
  </g>
  <g stroke="chocolate" stroke-width="1">
    <line x1="11" y1="497" x2="242" y2="490"/>
    <circle cx="11" cy="497" r="2"/>
    <circle cx="242" cy="490" r="2"/>
  </g>
  <g stroke="chocolate" stroke-width="1">
    <line x1="25" y1="498" x2="503" y2="491"/>
    <circle cx="25" cy="498" r="2"/>
    <circle cx="503" cy="491" r="2"/>
  </g>
  <g stroke="chocolate" stroke-width="1">
    <line x1="7" y1="501" x2="503" y2="501"/>
    <circle cx="7" cy="501" r="2"/>
    <circle cx="503" cy="501" r="2"/>
  </g>
  <g stroke="chocolate" stroke-width="1">
    <line x1="10" y1="505" x2="10" y2="498"/>
    <circle cx="10" cy="505" r="2"/>
    <circle cx="10" cy="498" r="2"/>
  </g>
  <g stroke="chocolate" stroke-width="1">
    <line x1="7" y1="501" x2="503" y2="501"/>
    <circle cx="7" cy="501" r="2"/>
    <circle cx="503" cy="501" r="2"/>
  </g>
  <g stroke="chocolate" stroke-width="1">
    <line x1="7" y1="501" x2="503" y2="501"/>
    <circle cx="7" cy="501" r="2"/>
    <circle cx="503" cy="501" r="2"/>
  </g>
  <g stroke="chocolate" stroke-width="1">
    <line x1="8" y1="500" x2="503" y2="500"/>
    <circle cx="8" cy="500" r="2"/>
    <circle cx="503" cy="500" r="2"/>
  </g>
  <g stroke="chocolate" stroke-width="1">
    <line x1="8" y1="500" x2="503" y2="500"/>
    <circle cx="8" cy="500" r="2"/>
    <circle cx="503" cy="500" r="2"/>
  </g>
  <g stroke="chocolate" stroke-width="1">
    <line x1="8" y1="500" x2="503" y2="500"/>
    <circle cx="8" cy="500" r="2"/>
    <circle cx="503" cy="500" r="2"/>
  </g>
  <g stroke="chocolate" stroke-width="1">
    <line x1="9" y1="499" x2="503" y2="499"/>
    <circle cx="9" cy="499" r="2"/>
    <circle cx="503" cy="499" r="2"/>
  </g>
  <g stroke="chocolate" stroke-width="1">
    <line x1="9" y1="499" x2="503" y2="499"/>
    <circle cx="9" cy="499" r="2"/>
    <circle cx="503" cy="499" r="2"/>
  </g>
  <g stroke="chocolate" stroke-width="1">
    <line x1="9" y1="499" x2="503" y2="499"/>
    <circle cx="9" cy="499" r="2"/>
    <circle cx="503" cy="499" r="2"/>
  </g>
  <g stroke="chocolate" stroke-width="1">
    <line x1="10" y1="499" x2="503" y2="499"/>
    <circle cx="10" cy="499" r="2"/>
    <circle cx="503" cy="499" r="2"/>
  </g>
  <g stroke="chocolate" stroke-width="1">
    <line x1="10" y1="498" x2="503" y2="498"/>
    <circle cx="10" cy="498" r="2"/>
    <circle cx="503" cy="498" r="2"/>
  </g>
  <g stroke="chocolate" stroke-width="1">
    <line x1="18" y1="505" x2="11" y2="505"/>
    <circle cx="18" cy="505" r="2"/>
    <circle cx="11" cy="505" r="2"/>
  </g>
  <g stroke="chocolate" stroke-width="1">
    <line x1="25" y1="498" x2="10" y2="498"/>
    <circle cx="25" cy="498" r="2"/>
    <circle cx="10" cy="498" r="2"/>
  </g>
  <g stroke="chocolate" stroke-width="1">
    <line x1="18" y1="490" x2="503" y2="490"/>
    <circle cx="18" cy="490" r="2"/>
    <circle cx="503" cy="490" r="2"/>
  </g>
  <g stroke="chocolate" stroke-width="1">
    <line x1="18" y1="490" x2="503" y2="490"/>
    <circle cx="18" cy="490" r="2"/>
    <circle cx="503" cy="490" r="2"/>
  </g>
  <g stroke="chocolate" stroke-width="1">
    <line x1="18" y1="490" x2="503" y2="490"/>
    <circle cx="18" cy="490" r="2"/>
    <circle cx="503" cy="490" r="2"/>
  </g>
  <g stroke="chocolate" stroke-width="1">
    <line x1="19" y1="489" x2="503" y2="489"/>
    <circle cx="19" cy="489" r="2"/>
    <circle cx="503" cy="489" r="2"/>
  </g>
  <g stroke="chocolate" stroke-width="1">
    <line x1="19" y1="489" x2="503" y2="489"/>
    <circle cx="19" cy="489" r="2"/>
    <circle cx="503" cy="489" r="2"/>
  </g>
  <g stroke="chocolate" stroke-width="1">
    <line x1="19" y1="489" x2="503" y2="489"/>
    <circle cx="19" cy="489" r="2"/>
    <circle cx="503" cy="489" r="2"/>
  </g>
  <g stroke="chocolate" stroke-width="1">
    <line x1="20" y1="488" x2="503" y2="488"/>
    <circle cx="20" cy="488" r="2"/>
    <circle cx="503" cy="488" r="2"/>
  </g>
  <g stroke="chocolate" stroke-width="1">
    <line x1="20" y1="488" x2="503" y2="488"/>
    <circle cx="20" cy="488" r="2"/>
    <circle cx="503" cy="488" r="2"/>
  </g>
  <g stroke="chocolate" stroke-width="1">
    <line x1="20" y1="488" x2="503" y2="488"/>
    <circle cx="20" cy="488" r="2"/>
    <circle cx="503" cy="488" r="2"/>
  </g>
  <g stroke="chocolate" stroke-width="1">
    <line x1="21" y1="488" x2="503" y2="488"/>
    <circle cx="21" cy="488" r="2"/>
    <circle cx="503" cy="488" r="2"/>
  </g>
  <g stroke="chocolate" stroke-width="1">
    <line x1="21" y1="487" x2="503" y2="487"/>
    <circle cx="21" cy="487" r="2"/>
    <circle cx="503" cy="487" r="2"/>
  </g>
  <g stroke="chocolate" stroke-width="1">
    <line x1="503" y1="498" x2="503" y2="491"/>
    <circle cx="503" cy="498" r="2"/>
    <circle cx="503" cy="491" r="2"/>
  </g>
  <g stroke="chocolate" stroke-width="1">
    <line x1="503" y1="498" x2="242" y2="490"/>
    <circle cx="503" cy="498" r="2"/>
    <circle cx="242" cy="490" r="2"/>
  </g>
  <g stroke="chocolate" stroke-width="1">
    <line x1="253" y1="255" x2="503" y2="255"/>
    <circle cx="253" cy="255" r="2"/>
    <circle cx="503" cy="255" r="2"/>
  </g>
  <g stroke="black" stroke-width="1">
    <line x1="5" y1="5" x2="505" y2="5"/>
    <line x1="5" y1="5" x2="5" y2="505"/>
    <line x1="505" y1="505" x2="5" y2="505"/>
    <line x1="505" y1="505" x2="505" y2="5"/>
    <line x1="105" y1="2" x2="105" y2="8"/>
    <line x1="2" y1="105" x2="8" y2="105"/>
    <line x1="105" y1="502" x2="105" y2="508"/>
    <line x1="502" y1="105" x2="508" y2="105"/>
    <line x1="205" y1="2" x2="205" y2="8"/>
    <line x1="2" y1="205" x2="8" y2="205"/>
    <line x1="205" y1="502" x2="205" y2="508"/>
    <line x1="502" y1="205" x2="508" y2="205"/>
    <line x1="305" y1="2" x2="305" y2="8"/>
    <line x1="2" y1="305" x2="8" y2="305"/>
    <line x1="305" y1="502" x2="305" y2="508"/>
    <line x1="502" y1="305" x2="508" y2="305"/>
    <line x1="405" y1="2" x2="405" y2="8"/>
    <line x1="2" y1="405" x2="8" y2="405"/>
    <line x1="405" y1="502" x2="405" y2="508"/>
    <line x1="502" y1="405" x2="508" y2="405"/>
  </g>
  <g stroke="gray" stroke-width="1" stroke-dasharray="5,5">
    <line x1="105" y1="5" x2="105" y2="505"/>
    <line x1="5" y1="105" x2="505" y2="105"/>
    <line x1="205" y1="5" x2="205" y2="505"/>
    <line x1="5" y1="205" x2="505" y2="205"/>
    <line x1="305" y1="5" x2="305" y2="505"/>
    <line x1="5" y1="305" x2="505" y2="305"/>
    <line x1="405" y1="5" x2="405" y2="505"/>
    <line x1="5" y1="405" x2="505" y2="405"/>
  </g>
</svg>
