<?xml version="1.0" standalone="no"?>
<!DOCTYPE svg PUBLIC "-//W3C//DTD SVG 1.1//EN" 
  "http://www.w3.org/Graphics/SVG/1.1/DTD/svg11.dtd">
<svg width="510" height="510" version="1.1" id="toplevel"
    xmlns="http://www.w3.org/2000/svg"
    xmlns:xlink="http://www.w3.org/1999/xlink">
  <polygon points="360,404 440,240 340,106 184,220 127,217 125,246 111,247 111,273 70,304 112,361 112,402"
           fill="bisque"/>
  <g stroke="chocolate" stroke-width="1">
    <line x1="142" y1="402" x2="70" y2="304"/>
    <circle cx="142" cy="402" r="2"/>
    <circle cx="70" cy="304" r="2"/>
  </g>
  <g stroke="chocolate" stroke-width="1">
    <line x1="360" y1="404" x2="360" y2="404"/>
    <circle cx="360" cy="404" r="2"/>
    <circle cx="360" cy="404" r="2"/>
  </g>
  <g stroke="chocolate" stroke-width="1">
    <line x1="360" y1="404" x2="440" y2="240"/>
    <circle cx="360" cy="404" r="2"/>
    <circle cx="440" cy="240" r="2"/>
  </g>
  <g stroke="chocolate" stroke-width="1">
    <line x1="121" y1="402" x2="114" y2="246"/>
    <circle cx="121" cy="402" r="2"/>
    <circle cx="114" cy="246" r="2"/>
  </g>
  <g stroke="chocolate" stroke-width="1">
    <line x1="117" y1="402" x2="111" y2="247"/>
    <circle cx="117" cy="402" r="2"/>
    <circle cx="111" cy="247" r="2"/>
  </g>
  <g stroke="chocolate" stroke-width="1">
    <line x1="112" y1="402" x2="111" y2="247"/>
    <circle cx="112" cy="402" r="2"/>
    <circle cx="111" cy="247" r="2"/>
  </g>
  <g stroke="chocolate" stroke-width="1">
    <line x1="114" y1="402" x2="114" y2="246"/>
    <circle cx="114" cy="402" r="2"/>
    <circle cx="114" cy="246" r="2"/>
  </g>
  <g stroke="chocolate" stroke-width="1">
    <line x1="360" y1="404" x2="112" y2="402"/>
    <circle cx="360" cy="404" r="2"/>
    <circle cx="112" cy="402" r="2"/>
  </g>
  <g stroke="chocolate" stroke-width="1">
    <line x1="360" y1="404" x2="112" y2="397"/>
    <circle cx="360" cy="404" r="2"/>
    <circle cx="112" cy="397" r="2"/>
  </g>
  <g stroke="chocolate" stroke-width="1">
    <line x1="114" y1="402" x2="115" y2="397"/>
    <circle cx="114" cy="402" r="2"/>
    <circle cx="115" cy="397" r="2"/>
  </g>
  <g stroke="chocolate" stroke-width="1">
    <line x1="115" y1="397" x2="112" y2="397"/>
    <circle cx="115" cy="397" r="2"/>
    <circle cx="112" cy="397" r="2"/>
  </g>
  <g stroke="chocolate" stroke-width="1">
    <line x1="112" y1="402" x2="112" y2="397"/>
    <circle cx="112" cy="402" r="2"/>
    <circle cx="112" cy="397" r="2"/>
  </g>
  <g stroke="chocolate" stroke-width="1">
    <line x1="117" y1="402" x2="127" y2="217"/>
    <circle cx="117" cy="402" r="2"/>
    <circle cx="127" cy="217" r="2"/>
  </g>
  <g stroke="chocolate" stroke-width="1">
    <line x1="121" y1="402" x2="132" y2="218"/>
    <circle cx="121" cy="402" r="2"/>
    <circle cx="132" cy="218" r="2"/>
  </g>
  <g stroke="chocolate" stroke-width="1">
    <line x1="259" y1="272" x2="308" y2="130"/>
    <circle cx="259" cy="272" r="2"/>
    <circle cx="308" cy="130" r="2"/>
  </g>
  <g stroke="chocolate" stroke-width="1">
    <line x1="339" y1="251" x2="308" y2="130"/>
    <circle cx="339" cy="251" r="2"/>
    <circle cx="308" cy="130" r="2"/>
  </g>
  <g stroke="chocolate" stroke-width="1">
    <line x1="360" y1="404" x2="277" y2="225"/>
    <circle cx="360" cy="404" r="2"/>
    <circle cx="277" cy="225" r="2"/>
  </g>
  <g stroke="chocolate" stroke-width="1">
    <line x1="360" y1="404" x2="259" y2="272"/>
    <circle cx="360" cy="404" r="2"/>
    <circle cx="259" cy="272" r="2"/>
  </g>
  <g stroke="chocolate" stroke-width="1">
    <line x1="142" y1="402" x2="277" y2="225"/>
    <circle cx="142" cy="402" r="2"/>
    <circle cx="277" cy="225" r="2"/>
  </g>
  <g stroke="chocolate" stroke-width="1">
    <line x1="259" y1="272" x2="339" y2="251"/>
    <circle cx="259" cy="272" r="2"/>
    <circle cx="339" cy="251" r="2"/>
  </g>
  <g stroke="chocolate" stroke-width="1">
    <line x1="440" y1="240" x2="340" y2="106"/>
    <circle cx="440" cy="240" r="2"/>
    <circle cx="340" cy="106" r="2"/>
  </g>
  <g stroke="chocolate" stroke-width="1">
    <line x1="308" y1="130" x2="340" y2="106"/>
    <circle cx="308" cy="130" r="2"/>
    <circle cx="340" cy="106" r="2"/>
  </g>
  <g stroke="chocolate" stroke-width="1">
    <line x1="111" y1="247" x2="440" y2="240"/>
    <circle cx="111" cy="247" r="2"/>
    <circle cx="440" cy="240" r="2"/>
  </g>
  <g stroke="chocolate" stroke-width="1">
    <line x1="70" y1="304" x2="340" y2="106"/>
    <circle cx="70" cy="304" r="2"/>
    <circle cx="340" cy="106" r="2"/>
  </g>
  <g stroke="chocolate" stroke-width="1">
    <line x1="132" y1="218" x2="127" y2="217"/>
    <circle cx="132" cy="218" r="2"/>
    <circle cx="127" cy="217" r="2"/>
  </g>
  <g stroke="chocolate" stroke-width="1">
    <line x1="277" y1="225" x2="127" y2="217"/>
    <circle cx="277" cy="225" r="2"/>
    <circle cx="127" cy="217" r="2"/>
  </g>
  <g stroke="black" stroke-width="1">
    <line x1="5" y1="5" x2="505" y2="5"/>
    <line x1="5" y1="5" x2="5" y2="505"/>
    <line x1="505" y1="505" x2="5" y2="505"/>
    <line x1="505" y1="505" x2="505" y2="5"/>
    <line x1="105" y1="2" x2="105" y2="8"/>
    <line x1="2" y1="105" x2="8" y2="105"/>
    <line x1="105" y1="502" x2="105" y2="508"/>
    <line x1="502" y1="105" x2="508" y2="105"/>
    <line x1="205" y1="2" x2="205" y2="8"/>
    <line x1="2" y1="205" x2="8" y2="205"/>
    <line x1="205" y1="502" x2="205" y2="508"/>
    <line x1="502" y1="205" x2="508" y2="205"/>
    <line x1="305" y1="2" x2="305" y2="8"/>
    <line x1="2" y1="305" x2="8" y2="305"/>
    <line x1="305" y1="502" x2="305" y2="508"/>
    <line x1="502" y1="305" x2="508" y2="305"/>
    <line x1="405" y1="2" x2="405" y2="8"/>
    <line x1="2" y1="405" x2="8" y2="405"/>
    <line x1="405" y1="502" x2="405" y2="508"/>
    <line x1="502" y1="405" x2="508" y2="405"/>
  </g>
  <g stroke="gray" stroke-width="1" stroke-dasharray="5,5">
    <line x1="105" y1="5" x2="105" y2="505"/>
    <line x1="5" y1="105" x2="505" y2="105"/>
    <line x1="205" y1="5" x2="205" y2="505"/>
    <line x1="5" y1="205" x2="505" y2="205"/>
    <line x1="305" y1="5" x2="305" y2="505"/>
    <line x1="5" y1="305" x2="505" y2="305"/>
    <line x1="405" y1="5" x2="405" y2="505"/>
    <line x1="5" y1="405" x2="505" y2="405"/>
  </g>
</svg>
