<?xml version="1.0" standalone="no"?>
<!DOCTYPE svg PUBLIC "-//W3C//DTD SVG 1.1//EN" 
  "http://www.w3.org/Graphics/SVG/1.1/DTD/svg11.dtd">
<svg width="510" height="510" version="1.1" id="toplevel"
    xmlns="http://www.w3.org/2000/svg"
    xmlns:xlink="http://www.w3.org/1999/xlink">
  <polygon points="259,382 261,381 261,379 505,135 505,132 504,132 505,131 505,130 504,130 504,128 257,130 258,382"
           fill="bisque"/>
  <g stroke="chocolate" stroke-width="1">
    <line x1="259" y1="382" x2="261" y2="381"/>
    <circle cx="259" cy="382" r="2"/>
    <circle cx="261" cy="381" r="2"/>
  </g>
  <g stroke="chocolate" stroke-width="1">
    <line x1="259" y1="382" x2="261" y2="381"/>
    <circle cx="259" cy="382" r="2"/>
    <circle cx="261" cy="381" r="2"/>
  </g>
  <g stroke="chocolate" stroke-width="1">
    <line x1="258" y1="378" x2="498" y2="133"/>
    <circle cx="258" cy="378" r="2"/>
    <circle cx="498" cy="133" r="2"/>
  </g>
  <g stroke="chocolate" stroke-width="1">
    <line x1="258" y1="382" x2="505" y2="135"/>
    <circle cx="258" cy="382" r="2"/>
    <circle cx="505" cy="135" r="2"/>
  </g>
  <g stroke="chocolate" stroke-width="1">
    <line x1="505" y1="135" x2="505" y2="132"/>
    <circle cx="505" cy="135" r="2"/>
    <circle cx="505" cy="132" r="2"/>
  </g>
  <g stroke="chocolate" stroke-width="1">
    <line x1="258" y1="378" x2="505" y2="131"/>
    <circle cx="258" cy="378" r="2"/>
    <circle cx="505" cy="131" r="2"/>
  </g>
  <g stroke="chocolate" stroke-width="1">
    <line x1="258" y1="382" x2="257" y2="130"/>
    <circle cx="258" cy="382" r="2"/>
    <circle cx="257" cy="130" r="2"/>
  </g>
  <g stroke="chocolate" stroke-width="1">
    <line x1="261" y1="381" x2="260" y2="130"/>
    <circle cx="261" cy="381" r="2"/>
    <circle cx="260" cy="130" r="2"/>
  </g>
  <g stroke="chocolate" stroke-width="1">
    <line x1="505" y1="131" x2="505" y2="130"/>
    <circle cx="505" cy="131" r="2"/>
    <circle cx="505" cy="130" r="2"/>
  </g>
  <g stroke="chocolate" stroke-width="1">
    <line x1="504" y1="135" x2="504" y2="128"/>
    <circle cx="504" cy="135" r="2"/>
    <circle cx="504" cy="128" r="2"/>
  </g>
  <g stroke="chocolate" stroke-width="1">
    <line x1="498" y1="133" x2="498" y2="130"/>
    <circle cx="498" cy="133" r="2"/>
    <circle cx="498" cy="130" r="2"/>
  </g>
  <g stroke="chocolate" stroke-width="1">
    <line x1="261" y1="381" x2="258" y2="378"/>
    <circle cx="261" cy="381" r="2"/>
    <circle cx="258" cy="378" r="2"/>
  </g>
  <g stroke="chocolate" stroke-width="1">
    <line x1="259" y1="382" x2="258" y2="382"/>
    <circle cx="259" cy="382" r="2"/>
    <circle cx="258" cy="382" r="2"/>
  </g>
  <g stroke="chocolate" stroke-width="1">
    <line x1="261" y1="381" x2="258" y2="378"/>
    <circle cx="261" cy="381" r="2"/>
    <circle cx="258" cy="378" r="2"/>
  </g>
  <g stroke="chocolate" stroke-width="1">
    <line x1="257" y1="133" x2="260" y2="133"/>
    <circle cx="257" cy="133" r="2"/>
    <circle cx="260" cy="133" r="2"/>
  </g>
  <g stroke="chocolate" stroke-width="1">
    <line x1="257" y1="133" x2="498" y2="130"/>
    <circle cx="257" cy="133" r="2"/>
    <circle cx="498" cy="130" r="2"/>
  </g>
  <g stroke="chocolate" stroke-width="1">
    <line x1="257" y1="135" x2="260" y2="135"/>
    <circle cx="257" cy="135" r="2"/>
    <circle cx="260" cy="135" r="2"/>
  </g>
  <g stroke="chocolate" stroke-width="1">
    <line x1="257" y1="135" x2="498" y2="133"/>
    <circle cx="257" cy="135" r="2"/>
    <circle cx="498" cy="133" r="2"/>
  </g>
  <g stroke="chocolate" stroke-width="1">
    <line x1="257" y1="135" x2="505" y2="135"/>
    <circle cx="257" cy="135" r="2"/>
    <circle cx="505" cy="135" r="2"/>
  </g>
  <g stroke="chocolate" stroke-width="1">
    <line x1="260" y1="135" x2="257" y2="135"/>
    <circle cx="260" cy="135" r="2"/>
    <circle cx="257" cy="135" r="2"/>
  </g>
  <g stroke="chocolate" stroke-width="1">
    <line x1="257" y1="132" x2="260" y2="132"/>
    <circle cx="257" cy="132" r="2"/>
    <circle cx="260" cy="132" r="2"/>
  </g>
  <g stroke="chocolate" stroke-width="1">
    <line x1="257" y1="132" x2="505" y2="130"/>
    <circle cx="257" cy="132" r="2"/>
    <circle cx="505" cy="130" r="2"/>
  </g>
  <g stroke="chocolate" stroke-width="1">
    <line x1="257" y1="130" x2="260" y2="130"/>
    <circle cx="257" cy="130" r="2"/>
    <circle cx="260" cy="130" r="2"/>
  </g>
  <g stroke="chocolate" stroke-width="1">
    <line x1="257" y1="130" x2="504" y2="128"/>
    <circle cx="257" cy="130" r="2"/>
    <circle cx="504" cy="128" r="2"/>
  </g>
  <g stroke="chocolate" stroke-width="1">
    <line x1="257" y1="132" x2="505" y2="132"/>
    <circle cx="257" cy="132" r="2"/>
    <circle cx="505" cy="132" r="2"/>
  </g>
  <g stroke="chocolate" stroke-width="1">
    <line x1="260" y1="132" x2="257" y2="132"/>
    <circle cx="260" cy="132" r="2"/>
    <circle cx="257" cy="132" r="2"/>
  </g>
  <g stroke="chocolate" stroke-width="1">
    <line x1="504" y1="135" x2="257" y2="133"/>
    <circle cx="504" cy="135" r="2"/>
    <circle cx="257" cy="133" r="2"/>
  </g>
  <g stroke="chocolate" stroke-width="1">
    <line x1="260" y1="133" x2="257" y2="133"/>
    <circle cx="260" cy="133" r="2"/>
    <circle cx="257" cy="133" r="2"/>
  </g>
  <g stroke="chocolate" stroke-width="1">
    <line x1="505" y1="131" x2="257" y2="130"/>
    <circle cx="505" cy="131" r="2"/>
    <circle cx="257" cy="130" r="2"/>
  </g>
  <g stroke="chocolate" stroke-width="1">
    <line x1="260" y1="130" x2="257" y2="130"/>
    <circle cx="260" cy="130" r="2"/>
    <circle cx="257" cy="130" r="2"/>
  </g>
  <g stroke="black" stroke-width="1">
    <line x1="5" y1="5" x2="505" y2="5"/>
    <line x1="5" y1="5" x2="5" y2="505"/>
    <line x1="505" y1="505" x2="5" y2="505"/>
    <line x1="505" y1="505" x2="505" y2="5"/>
    <line x1="105" y1="2" x2="105" y2="8"/>
    <line x1="2" y1="105" x2="8" y2="105"/>
    <line x1="105" y1="502" x2="105" y2="508"/>
    <line x1="502" y1="105" x2="508" y2="105"/>
    <line x1="205" y1="2" x2="205" y2="8"/>
    <line x1="2" y1="205" x2="8" y2="205"/>
    <line x1="205" y1="502" x2="205" y2="508"/>
    <line x1="502" y1="205" x2="508" y2="205"/>
    <line x1="305" y1="2" x2="305" y2="8"/>
    <line x1="2" y1="305" x2="8" y2="305"/>
    <line x1="305" y1="502" x2="305" y2="508"/>
    <line x1="502" y1="305" x2="508" y2="305"/>
    <line x1="405" y1="2" x2="405" y2="8"/>
    <line x1="2" y1="405" x2="8" y2="405"/>
    <line x1="405" y1="502" x2="405" y2="508"/>
    <line x1="502" y1="405" x2="508" y2="405"/>
  </g>
  <g stroke="gray" stroke-width="1" stroke-dasharray="5,5">
    <line x1="105" y1="5" x2="105" y2="505"/>
    <line x1="5" y1="105" x2="505" y2="105"/>
    <line x1="205" y1="5" x2="205" y2="505"/>
    <line x1="5" y1="205" x2="505" y2="205"/>
    <line x1="305" y1="5" x2="305" y2="505"/>
    <line x1="5" y1="305" x2="505" y2="305"/>
    <line x1="405" y1="5" x2="405" y2="505"/>
    <line x1="5" y1="405" x2="505" y2="405"/>
  </g>
</svg>
