<?xml version="1.0" standalone="no"?>
<!DOCTYPE svg PUBLIC "-//W3C//DTD SVG 1.1//EN" 
  "http://www.w3.org/Graphics/SVG/1.1/DTD/svg11.dtd">
<svg width="510" height="510" version="1.1" id="toplevel"
    xmlns="http://www.w3.org/2000/svg"
    xmlns:xlink="http://www.w3.org/1999/xlink">
  <polygon points="244,360 294,330 343,204 283,150 234,204 199,205 167,305"
           fill="bisque"/>
  <g stroke="chocolate" stroke-width="1">
    <line x1="244" y1="360" x2="227" y2="211"/>
    <circle cx="244" cy="360" r="2"/>
    <circle cx="227" cy="211" r="2"/>
  </g>
  <g stroke="chocolate" stroke-width="1">
    <line x1="331" y1="235" x2="327" y2="200"/>
    <circle cx="331" cy="235" r="2"/>
    <circle cx="327" cy="200" r="2"/>
  </g>
  <g stroke="chocolate" stroke-width="1">
    <line x1="294" y1="330" x2="279" y2="282"/>
    <circle cx="294" cy="330" r="2"/>
    <circle cx="279" cy="282" r="2"/>
  </g>
  <g stroke="chocolate" stroke-width="1">
    <line x1="294" y1="330" x2="343" y2="204"/>
    <circle cx="294" cy="330" r="2"/>
    <circle cx="343" cy="204" r="2"/>
  </g>
  <g stroke="chocolate" stroke-width="1">
    <line x1="167" y1="305" x2="199" y2="205"/>
    <circle cx="167" cy="305" r="2"/>
    <circle cx="199" cy="205" r="2"/>
  </g>
  <g stroke="chocolate" stroke-width="1">
    <line x1="244" y1="360" x2="167" y2="305"/>
    <circle cx="244" cy="360" r="2"/>
    <circle cx="167" cy="305" r="2"/>
  </g>
  <g stroke="chocolate" stroke-width="1">
    <line x1="304" y1="304" x2="216" y2="224"/>
    <circle cx="304" cy="304" r="2"/>
    <circle cx="216" cy="224" r="2"/>
  </g>
  <g stroke="chocolate" stroke-width="1">
    <line x1="311" y1="286" x2="199" y2="205"/>
    <circle cx="311" cy="286" r="2"/>
    <circle cx="199" cy="205" r="2"/>
  </g>
  <g stroke="chocolate" stroke-width="1">
    <line x1="343" y1="204" x2="283" y2="150"/>
    <circle cx="343" cy="204" r="2"/>
    <circle cx="283" cy="150" r="2"/>
  </g>
  <g stroke="chocolate" stroke-width="1">
    <line x1="279" y1="282" x2="331" y2="235"/>
    <circle cx="279" cy="282" r="2"/>
    <circle cx="331" cy="235" r="2"/>
  </g>
  <g stroke="chocolate" stroke-width="1">
    <line x1="216" y1="224" x2="283" y2="150"/>
    <circle cx="216" cy="224" r="2"/>
    <circle cx="283" cy="150" r="2"/>
  </g>
  <g stroke="chocolate" stroke-width="1">
    <line x1="244" y1="360" x2="294" y2="330"/>
    <circle cx="244" cy="360" r="2"/>
    <circle cx="294" cy="330" r="2"/>
  </g>
  <g stroke="chocolate" stroke-width="1">
    <line x1="167" y1="305" x2="304" y2="304"/>
    <circle cx="167" cy="305" r="2"/>
    <circle cx="304" cy="304" r="2"/>
  </g>
  <g stroke="chocolate" stroke-width="1">
    <line x1="311" y1="286" x2="279" y2="282"/>
    <circle cx="311" cy="286" r="2"/>
    <circle cx="279" cy="282" r="2"/>
  </g>
  <g stroke="chocolate" stroke-width="1">
    <line x1="199" y1="205" x2="343" y2="204"/>
    <circle cx="199" cy="205" r="2"/>
    <circle cx="343" cy="204" r="2"/>
  </g>
  <g stroke="chocolate" stroke-width="1">
    <line x1="227" y1="211" x2="327" y2="200"/>
    <circle cx="227" cy="211" r="2"/>
    <circle cx="327" cy="200" r="2"/>
  </g>
  <g stroke="black" stroke-width="1">
    <line x1="5" y1="5" x2="505" y2="5"/>
    <line x1="5" y1="5" x2="5" y2="505"/>
    <line x1="505" y1="505" x2="5" y2="505"/>
    <line x1="505" y1="505" x2="505" y2="5"/>
    <line x1="105" y1="2" x2="105" y2="8"/>
    <line x1="2" y1="105" x2="8" y2="105"/>
    <line x1="105" y1="502" x2="105" y2="508"/>
    <line x1="502" y1="105" x2="508" y2="105"/>
    <line x1="205" y1="2" x2="205" y2="8"/>
    <line x1="2" y1="205" x2="8" y2="205"/>
    <line x1="205" y1="502" x2="205" y2="508"/>
    <line x1="502" y1="205" x2="508" y2="205"/>
    <line x1="305" y1="2" x2="305" y2="8"/>
    <line x1="2" y1="305" x2="8" y2="305"/>
    <line x1="305" y1="502" x2="305" y2="508"/>
    <line x1="502" y1="305" x2="508" y2="305"/>
    <line x1="405" y1="2" x2="405" y2="8"/>
    <line x1="2" y1="405" x2="8" y2="405"/>
    <line x1="405" y1="502" x2="405" y2="508"/>
    <line x1="502" y1="405" x2="508" y2="405"/>
  </g>
  <g stroke="gray" stroke-width="1" stroke-dasharray="5,5">
    <line x1="105" y1="5" x2="105" y2="505"/>
    <line x1="5" y1="105" x2="505" y2="105"/>
    <line x1="205" y1="5" x2="205" y2="505"/>
    <line x1="5" y1="205" x2="505" y2="205"/>
    <line x1="305" y1="5" x2="305" y2="505"/>
    <line x1="5" y1="305" x2="505" y2="305"/>
    <line x1="405" y1="5" x2="405" y2="505"/>
    <line x1="5" y1="405" x2="505" y2="405"/>
  </g>
</svg>
