<?xml version="1.0" standalone="no"?>
<!DOCTYPE svg PUBLIC "-//W3C//DTD SVG 1.1//EN" 
  "http://www.w3.org/Graphics/SVG/1.1/DTD/svg11.dtd">
<svg width="510" height="510" version="1.1" id="toplevel"
    xmlns="http://www.w3.org/2000/svg"
    xmlns:xlink="http://www.w3.org/1999/xlink">
  <polygon points="212,105 317,102 314,5 201,5 193,69 199,71 200,69 208,69"
           fill="bisque"/>
  <g stroke="chocolate" stroke-width="1">
    <line x1="199" y1="71" x2="214" y2="5"/>
    <circle cx="199" cy="71" r="2"/>
    <circle cx="214" cy="5" r="2"/>
  </g>
  <g stroke="chocolate" stroke-width="1">
    <line x1="237" y1="104" x2="253" y2="5"/>
    <circle cx="237" cy="104" r="2"/>
    <circle cx="253" cy="5" r="2"/>
  </g>
  <g stroke="chocolate" stroke-width="1">
    <line x1="280" y1="57" x2="286" y2="5"/>
    <circle cx="280" cy="57" r="2"/>
    <circle cx="286" cy="5" r="2"/>
  </g>
  <g stroke="chocolate" stroke-width="1">
    <line x1="270" y1="103" x2="281" y2="5"/>
    <circle cx="270" cy="103" r="2"/>
    <circle cx="281" cy="5" r="2"/>
  </g>
  <g stroke="chocolate" stroke-width="1">
    <line x1="193" y1="69" x2="201" y2="5"/>
    <circle cx="193" cy="69" r="2"/>
    <circle cx="201" cy="5" r="2"/>
  </g>
  <g stroke="chocolate" stroke-width="1">
    <line x1="296" y1="70" x2="302" y2="5"/>
    <circle cx="296" cy="70" r="2"/>
    <circle cx="302" cy="5" r="2"/>
  </g>
  <g stroke="chocolate" stroke-width="1">
    <line x1="297" y1="103" x2="303" y2="5"/>
    <circle cx="297" cy="103" r="2"/>
    <circle cx="303" cy="5" r="2"/>
  </g>
  <g stroke="chocolate" stroke-width="1">
    <line x1="212" y1="105" x2="218" y2="5"/>
    <circle cx="212" cy="105" r="2"/>
    <circle cx="218" cy="5" r="2"/>
  </g>
  <g stroke="chocolate" stroke-width="1">
    <line x1="311" y1="102" x2="314" y2="5"/>
    <circle cx="311" cy="102" r="2"/>
    <circle cx="314" cy="5" r="2"/>
  </g>
  <g stroke="chocolate" stroke-width="1">
    <line x1="312" y1="62" x2="314" y2="5"/>
    <circle cx="312" cy="62" r="2"/>
    <circle cx="314" cy="5" r="2"/>
  </g>
  <g stroke="chocolate" stroke-width="1">
    <line x1="224" y1="105" x2="224" y2="5"/>
    <circle cx="224" cy="105" r="2"/>
    <circle cx="224" cy="5" r="2"/>
  </g>
  <g stroke="chocolate" stroke-width="1">
    <line x1="308" y1="102" x2="308" y2="5"/>
    <circle cx="308" cy="102" r="2"/>
    <circle cx="308" cy="5" r="2"/>
  </g>
  <g stroke="chocolate" stroke-width="1">
    <line x1="317" y1="102" x2="314" y2="5"/>
    <circle cx="317" cy="102" r="2"/>
    <circle cx="314" cy="5" r="2"/>
  </g>
  <g stroke="chocolate" stroke-width="1">
    <line x1="317" y1="102" x2="314" y2="5"/>
    <circle cx="317" cy="102" r="2"/>
    <circle cx="314" cy="5" r="2"/>
  </g>
  <g stroke="chocolate" stroke-width="1">
    <line x1="224" y1="105" x2="218" y2="5"/>
    <circle cx="224" cy="105" r="2"/>
    <circle cx="218" cy="5" r="2"/>
  </g>
  <g stroke="chocolate" stroke-width="1">
    <line x1="308" y1="102" x2="303" y2="5"/>
    <circle cx="308" cy="102" r="2"/>
    <circle cx="303" cy="5" r="2"/>
  </g>
  <g stroke="chocolate" stroke-width="1">
    <line x1="311" y1="102" x2="302" y2="5"/>
    <circle cx="311" cy="102" r="2"/>
    <circle cx="302" cy="5" r="2"/>
  </g>
  <g stroke="chocolate" stroke-width="1">
    <line x1="212" y1="105" x2="201" y2="5"/>
    <circle cx="212" cy="105" r="2"/>
    <circle cx="201" cy="5" r="2"/>
  </g>
  <g stroke="chocolate" stroke-width="1">
    <line x1="284" y1="36" x2="281" y2="5"/>
    <circle cx="284" cy="36" r="2"/>
    <circle cx="281" cy="5" r="2"/>
  </g>
  <g stroke="chocolate" stroke-width="1">
    <line x1="297" y1="103" x2="286" y2="5"/>
    <circle cx="297" cy="103" r="2"/>
    <circle cx="286" cy="5" r="2"/>
  </g>
  <g stroke="chocolate" stroke-width="1">
    <line x1="270" y1="103" x2="253" y2="5"/>
    <circle cx="270" cy="103" r="2"/>
    <circle cx="253" cy="5" r="2"/>
  </g>
  <g stroke="chocolate" stroke-width="1">
    <line x1="237" y1="104" x2="214" y2="5"/>
    <circle cx="237" cy="104" r="2"/>
    <circle cx="214" cy="5" r="2"/>
  </g>
  <g stroke="chocolate" stroke-width="1">
    <line x1="212" y1="105" x2="317" y2="102"/>
    <circle cx="212" cy="105" r="2"/>
    <circle cx="317" cy="102" r="2"/>
  </g>
  <g stroke="chocolate" stroke-width="1">
    <line x1="224" y1="43" x2="284" y2="36"/>
    <circle cx="224" cy="43" r="2"/>
    <circle cx="284" cy="36" r="2"/>
  </g>
  <g stroke="chocolate" stroke-width="1">
    <line x1="224" y1="57" x2="313" y2="52"/>
    <circle cx="224" cy="57" r="2"/>
    <circle cx="313" cy="52" r="2"/>
  </g>
  <g stroke="chocolate" stroke-width="1">
    <line x1="296" y1="70" x2="193" y2="69"/>
    <circle cx="296" cy="70" r="2"/>
    <circle cx="193" cy="69" r="2"/>
  </g>
  <g stroke="chocolate" stroke-width="1">
    <line x1="224" y1="62" x2="312" y2="62"/>
    <circle cx="224" cy="62" r="2"/>
    <circle cx="312" cy="62" r="2"/>
  </g>
  <g stroke="chocolate" stroke-width="1">
    <line x1="312" y1="62" x2="224" y2="57"/>
    <circle cx="312" cy="62" r="2"/>
    <circle cx="224" cy="57" r="2"/>
  </g>
  <g stroke="chocolate" stroke-width="1">
    <line x1="297" y1="59" x2="195" y2="53"/>
    <circle cx="297" cy="59" r="2"/>
    <circle cx="195" cy="53" r="2"/>
  </g>
  <g stroke="chocolate" stroke-width="1">
    <line x1="201" y1="5" x2="314" y2="5"/>
    <circle cx="201" cy="5" r="2"/>
    <circle cx="314" cy="5" r="2"/>
  </g>
  <g stroke="chocolate" stroke-width="1">
    <line x1="297" y1="59" x2="196" y2="47"/>
    <circle cx="297" cy="59" r="2"/>
    <circle cx="196" cy="47" r="2"/>
  </g>
  <g stroke="chocolate" stroke-width="1">
    <line x1="313" y1="52" x2="224" y2="43"/>
    <circle cx="313" cy="52" r="2"/>
    <circle cx="224" cy="43" r="2"/>
  </g>
  <g stroke="chocolate" stroke-width="1">
    <line x1="199" y1="71" x2="193" y2="69"/>
    <circle cx="199" cy="71" r="2"/>
    <circle cx="193" cy="69" r="2"/>
  </g>
  <g stroke="chocolate" stroke-width="1">
    <line x1="296" y1="70" x2="195" y2="53"/>
    <circle cx="296" cy="70" r="2"/>
    <circle cx="195" cy="53" r="2"/>
  </g>
  <g stroke="black" stroke-width="1">
    <line x1="5" y1="5" x2="505" y2="5"/>
    <line x1="5" y1="5" x2="5" y2="505"/>
    <line x1="505" y1="505" x2="5" y2="505"/>
    <line x1="505" y1="505" x2="505" y2="5"/>
    <line x1="105" y1="2" x2="105" y2="8"/>
    <line x1="2" y1="105" x2="8" y2="105"/>
    <line x1="105" y1="502" x2="105" y2="508"/>
    <line x1="502" y1="105" x2="508" y2="105"/>
    <line x1="205" y1="2" x2="205" y2="8"/>
    <line x1="2" y1="205" x2="8" y2="205"/>
    <line x1="205" y1="502" x2="205" y2="508"/>
    <line x1="502" y1="205" x2="508" y2="205"/>
    <line x1="305" y1="2" x2="305" y2="8"/>
    <line x1="2" y1="305" x2="8" y2="305"/>
    <line x1="305" y1="502" x2="305" y2="508"/>
    <line x1="502" y1="305" x2="508" y2="305"/>
    <line x1="405" y1="2" x2="405" y2="8"/>
    <line x1="2" y1="405" x2="8" y2="405"/>
    <line x1="405" y1="502" x2="405" y2="508"/>
    <line x1="502" y1="405" x2="508" y2="405"/>
  </g>
  <g stroke="gray" stroke-width="1" stroke-dasharray="5,5">
    <line x1="105" y1="5" x2="105" y2="505"/>
    <line x1="5" y1="105" x2="505" y2="105"/>
    <line x1="205" y1="5" x2="205" y2="505"/>
    <line x1="5" y1="205" x2="505" y2="205"/>
    <line x1="305" y1="5" x2="305" y2="505"/>
    <line x1="5" y1="305" x2="505" y2="305"/>
    <line x1="405" y1="5" x2="405" y2="505"/>
    <line x1="5" y1="405" x2="505" y2="405"/>
  </g>
</svg>
