<?xml version="1.0" standalone="no"?>
<!DOCTYPE svg PUBLIC "-//W3C//DTD SVG 1.1//EN" 
  "http://www.w3.org/Graphics/SVG/1.1/DTD/svg11.dtd">
<svg width="510" height="510" version="1.1" id="toplevel"
    xmlns="http://www.w3.org/2000/svg"
    xmlns:xlink="http://www.w3.org/1999/xlink">
  <polygon points="155,486 314,464 373,467 374,456 393,453 384,341 124,340 117,419 125,435 131,436 132,445 133,445 133,450 133,452 134,459 150,459"
           fill="bisque"/>
  <g stroke="chocolate" stroke-width="1">
    <line x1="373" y1="467" x2="384" y2="341"/>
    <circle cx="373" cy="467" r="2"/>
    <circle cx="384" cy="341" r="2"/>
  </g>
  <g stroke="chocolate" stroke-width="1">
    <line x1="134" y1="459" x2="134" y2="340"/>
    <circle cx="134" cy="459" r="2"/>
    <circle cx="134" cy="340" r="2"/>
  </g>
  <g stroke="chocolate" stroke-width="1">
    <line x1="133" y1="450" x2="134" y2="340"/>
    <circle cx="133" cy="450" r="2"/>
    <circle cx="134" cy="340" r="2"/>
  </g>
  <g stroke="chocolate" stroke-width="1">
    <line x1="134" y1="459" x2="132" y2="414"/>
    <circle cx="134" cy="459" r="2"/>
    <circle cx="132" cy="414" r="2"/>
  </g>
  <g stroke="chocolate" stroke-width="1">
    <line x1="132" y1="445" x2="124" y2="340"/>
    <circle cx="132" cy="445" r="2"/>
    <circle cx="124" cy="340" r="2"/>
  </g>
  <g stroke="chocolate" stroke-width="1">
    <line x1="133" y1="451" x2="143" y2="340"/>
    <circle cx="133" cy="451" r="2"/>
    <circle cx="143" cy="340" r="2"/>
  </g>
  <g stroke="chocolate" stroke-width="1">
    <line x1="151" y1="444" x2="143" y2="340"/>
    <circle cx="151" cy="444" r="2"/>
    <circle cx="143" cy="340" r="2"/>
  </g>
  <g stroke="chocolate" stroke-width="1">
    <line x1="117" y1="419" x2="124" y2="340"/>
    <circle cx="117" cy="419" r="2"/>
    <circle cx="124" cy="340" r="2"/>
  </g>
  <g stroke="chocolate" stroke-width="1">
    <line x1="155" y1="486" x2="148" y2="429"/>
    <circle cx="155" cy="486" r="2"/>
    <circle cx="148" cy="429" r="2"/>
  </g>
  <g stroke="chocolate" stroke-width="1">
    <line x1="155" y1="486" x2="131" y2="340"/>
    <circle cx="155" cy="486" r="2"/>
    <circle cx="131" cy="340" r="2"/>
  </g>
  <g stroke="chocolate" stroke-width="1">
    <line x1="118" y1="421" x2="131" y2="340"/>
    <circle cx="118" cy="421" r="2"/>
    <circle cx="131" cy="340" r="2"/>
  </g>
  <g stroke="chocolate" stroke-width="1">
    <line x1="135" y1="455" x2="133" y2="450"/>
    <circle cx="135" cy="455" r="2"/>
    <circle cx="133" cy="450" r="2"/>
  </g>
  <g stroke="chocolate" stroke-width="1">
    <line x1="125" y1="435" x2="117" y2="419"/>
    <circle cx="125" cy="435" r="2"/>
    <circle cx="117" cy="419" r="2"/>
  </g>
  <g stroke="chocolate" stroke-width="1">
    <line x1="135" y1="455" x2="137" y2="453"/>
    <circle cx="135" cy="455" r="2"/>
    <circle cx="137" cy="453" r="2"/>
  </g>
  <g stroke="chocolate" stroke-width="1">
    <line x1="155" y1="486" x2="393" y2="453"/>
    <circle cx="155" cy="486" r="2"/>
    <circle cx="393" cy="453" r="2"/>
  </g>
  <g stroke="chocolate" stroke-width="1">
    <line x1="125" y1="435" x2="130" y2="427"/>
    <circle cx="125" cy="435" r="2"/>
    <circle cx="130" cy="427" r="2"/>
  </g>
  <g stroke="chocolate" stroke-width="1">
    <line x1="393" y1="453" x2="384" y2="341"/>
    <circle cx="393" cy="453" r="2"/>
    <circle cx="384" cy="341" r="2"/>
  </g>
  <g stroke="chocolate" stroke-width="1">
    <line x1="137" y1="453" x2="133" y2="450"/>
    <circle cx="137" cy="453" r="2"/>
    <circle cx="133" cy="450" r="2"/>
  </g>
  <g stroke="chocolate" stroke-width="1">
    <line x1="137" y1="453" x2="133" y2="451"/>
    <circle cx="137" cy="453" r="2"/>
    <circle cx="133" cy="451" r="2"/>
  </g>
  <g stroke="chocolate" stroke-width="1">
    <line x1="134" y1="459" x2="393" y2="453"/>
    <circle cx="134" cy="459" r="2"/>
    <circle cx="393" cy="453" r="2"/>
  </g>
  <g stroke="chocolate" stroke-width="1">
    <line x1="373" y1="467" x2="135" y2="455"/>
    <circle cx="373" cy="467" r="2"/>
    <circle cx="135" cy="455" r="2"/>
  </g>
  <g stroke="chocolate" stroke-width="1">
    <line x1="130" y1="427" x2="117" y2="419"/>
    <circle cx="130" cy="427" r="2"/>
    <circle cx="117" cy="419" r="2"/>
  </g>
  <g stroke="chocolate" stroke-width="1">
    <line x1="151" y1="444" x2="391" y2="425"/>
    <circle cx="151" cy="444" r="2"/>
    <circle cx="391" cy="425" r="2"/>
  </g>
  <g stroke="chocolate" stroke-width="1">
    <line x1="132" y1="445" x2="391" y2="425"/>
    <circle cx="132" cy="445" r="2"/>
    <circle cx="391" cy="425" r="2"/>
  </g>
  <g stroke="chocolate" stroke-width="1">
    <line x1="130" y1="427" x2="118" y2="421"/>
    <circle cx="130" cy="427" r="2"/>
    <circle cx="118" cy="421" r="2"/>
  </g>
  <g stroke="chocolate" stroke-width="1">
    <line x1="373" y1="467" x2="125" y2="435"/>
    <circle cx="373" cy="467" r="2"/>
    <circle cx="125" cy="435" r="2"/>
  </g>
  <g stroke="chocolate" stroke-width="1">
    <line x1="148" y1="429" x2="389" y2="402"/>
    <circle cx="148" cy="429" r="2"/>
    <circle cx="389" cy="402" r="2"/>
  </g>
  <g stroke="chocolate" stroke-width="1">
    <line x1="132" y1="414" x2="389" y2="402"/>
    <circle cx="132" cy="414" r="2"/>
    <circle cx="389" cy="402" r="2"/>
  </g>
  <g stroke="chocolate" stroke-width="1">
    <line x1="384" y1="341" x2="124" y2="340"/>
    <circle cx="384" cy="341" r="2"/>
    <circle cx="124" cy="340" r="2"/>
  </g>
  <g stroke="black" stroke-width="1">
    <line x1="5" y1="5" x2="505" y2="5"/>
    <line x1="5" y1="5" x2="5" y2="505"/>
    <line x1="505" y1="505" x2="5" y2="505"/>
    <line x1="505" y1="505" x2="505" y2="5"/>
    <line x1="105" y1="2" x2="105" y2="8"/>
    <line x1="2" y1="105" x2="8" y2="105"/>
    <line x1="105" y1="502" x2="105" y2="508"/>
    <line x1="502" y1="105" x2="508" y2="105"/>
    <line x1="205" y1="2" x2="205" y2="8"/>
    <line x1="2" y1="205" x2="8" y2="205"/>
    <line x1="205" y1="502" x2="205" y2="508"/>
    <line x1="502" y1="205" x2="508" y2="205"/>
    <line x1="305" y1="2" x2="305" y2="8"/>
    <line x1="2" y1="305" x2="8" y2="305"/>
    <line x1="305" y1="502" x2="305" y2="508"/>
    <line x1="502" y1="305" x2="508" y2="305"/>
    <line x1="405" y1="2" x2="405" y2="8"/>
    <line x1="2" y1="405" x2="8" y2="405"/>
    <line x1="405" y1="502" x2="405" y2="508"/>
    <line x1="502" y1="405" x2="508" y2="405"/>
  </g>
  <g stroke="gray" stroke-width="1" stroke-dasharray="5,5">
    <line x1="105" y1="5" x2="105" y2="505"/>
    <line x1="5" y1="105" x2="505" y2="105"/>
    <line x1="205" y1="5" x2="205" y2="505"/>
    <line x1="5" y1="205" x2="505" y2="205"/>
    <line x1="305" y1="5" x2="305" y2="505"/>
    <line x1="5" y1="305" x2="505" y2="305"/>
    <line x1="405" y1="5" x2="405" y2="505"/>
    <line x1="5" y1="405" x2="505" y2="405"/>
  </g>
</svg>
