<?xml version="1.0" standalone="no"?>
<!DOCTYPE svg PUBLIC "-//W3C//DTD SVG 1.1//EN" 
  "http://www.w3.org/Graphics/SVG/1.1/DTD/svg11.dtd">
<svg width="510" height="510" version="1.1" id="toplevel"
    xmlns="http://www.w3.org/2000/svg"
    xmlns:xlink="http://www.w3.org/1999/xlink">
  <polygon points="139,363 425,200 425,200 407,192 409,178 401,173 375,178 340,163 310,175 242,147 153,234 128,219 108,255 104,256 111,275 85,300"
           fill="bisque"/>
  <g stroke="chocolate" stroke-width="1">
    <line x1="425" y1="200" x2="425" y2="200"/>
    <circle cx="425" cy="200" r="2"/>
    <circle cx="425" cy="200" r="2"/>
  </g>
  <g stroke="chocolate" stroke-width="1">
    <line x1="394" y1="218" x2="406" y2="197"/>
    <circle cx="394" cy="218" r="2"/>
    <circle cx="406" cy="197" r="2"/>
  </g>
  <g stroke="chocolate" stroke-width="1">
    <line x1="292" y1="276" x2="340" y2="163"/>
    <circle cx="292" cy="276" r="2"/>
    <circle cx="340" cy="163" r="2"/>
  </g>
  <g stroke="chocolate" stroke-width="1">
    <line x1="404" y1="212" x2="409" y2="178"/>
    <circle cx="404" cy="212" r="2"/>
    <circle cx="409" cy="178" r="2"/>
  </g>
  <g stroke="chocolate" stroke-width="1">
    <line x1="226" y1="313" x2="242" y2="177"/>
    <circle cx="226" cy="313" r="2"/>
    <circle cx="242" cy="177" r="2"/>
  </g>
  <g stroke="chocolate" stroke-width="1">
    <line x1="153" y1="355" x2="159" y2="344"/>
    <circle cx="153" cy="355" r="2"/>
    <circle cx="159" cy="344" r="2"/>
  </g>
  <g stroke="chocolate" stroke-width="1">
    <line x1="132" y1="354" x2="142" y2="255"/>
    <circle cx="132" cy="354" r="2"/>
    <circle cx="142" cy="255" r="2"/>
  </g>
  <g stroke="chocolate" stroke-width="1">
    <line x1="165" y1="348" x2="169" y2="218"/>
    <circle cx="165" cy="348" r="2"/>
    <circle cx="169" cy="218" r="2"/>
  </g>
  <g stroke="chocolate" stroke-width="1">
    <line x1="259" y1="295" x2="262" y2="155"/>
    <circle cx="259" cy="295" r="2"/>
    <circle cx="262" cy="155" r="2"/>
  </g>
  <g stroke="chocolate" stroke-width="1">
    <line x1="105" y1="259" x2="128" y2="219"/>
    <circle cx="105" cy="259" r="2"/>
    <circle cx="128" cy="219" r="2"/>
  </g>
  <g stroke="chocolate" stroke-width="1">
    <line x1="243" y1="175" x2="242" y2="147"/>
    <circle cx="243" cy="175" r="2"/>
    <circle cx="242" cy="147" r="2"/>
  </g>
  <g stroke="chocolate" stroke-width="1">
    <line x1="243" y1="175" x2="262" y2="155"/>
    <circle cx="243" cy="175" r="2"/>
    <circle cx="262" cy="155" r="2"/>
  </g>
  <g stroke="chocolate" stroke-width="1">
    <line x1="85" y1="300" x2="242" y2="147"/>
    <circle cx="85" cy="300" r="2"/>
    <circle cx="242" cy="147" r="2"/>
  </g>
  <g stroke="chocolate" stroke-width="1">
    <line x1="328" y1="255" x2="314" y2="192"/>
    <circle cx="328" cy="255" r="2"/>
    <circle cx="314" cy="192" r="2"/>
  </g>
  <g stroke="chocolate" stroke-width="1">
    <line x1="139" y1="363" x2="104" y2="256"/>
    <circle cx="139" cy="363" r="2"/>
    <circle cx="104" cy="256" r="2"/>
  </g>
  <g stroke="chocolate" stroke-width="1">
    <line x1="406" y1="197" x2="401" y2="173"/>
    <circle cx="406" cy="197" r="2"/>
    <circle cx="401" cy="173" r="2"/>
  </g>
  <g stroke="chocolate" stroke-width="1">
    <line x1="85" y1="300" x2="242" y2="177"/>
    <circle cx="85" cy="300" r="2"/>
    <circle cx="242" cy="177" r="2"/>
  </g>
  <g stroke="chocolate" stroke-width="1">
    <line x1="139" y1="363" x2="425" y2="200"/>
    <circle cx="139" cy="363" r="2"/>
    <circle cx="425" cy="200" r="2"/>
  </g>
  <g stroke="chocolate" stroke-width="1">
    <line x1="139" y1="363" x2="85" y2="300"/>
    <circle cx="139" cy="363" r="2"/>
    <circle cx="85" cy="300" r="2"/>
  </g>
  <g stroke="chocolate" stroke-width="1">
    <line x1="104" y1="256" x2="340" y2="163"/>
    <circle cx="104" cy="256" r="2"/>
    <circle cx="340" cy="163" r="2"/>
  </g>
  <g stroke="chocolate" stroke-width="1">
    <line x1="104" y1="256" x2="409" y2="178"/>
    <circle cx="104" cy="256" r="2"/>
    <circle cx="409" cy="178" r="2"/>
  </g>
  <g stroke="chocolate" stroke-width="1">
    <line x1="153" y1="355" x2="132" y2="354"/>
    <circle cx="153" cy="355" r="2"/>
    <circle cx="132" cy="354" r="2"/>
  </g>
  <g stroke="chocolate" stroke-width="1">
    <line x1="314" y1="192" x2="401" y2="173"/>
    <circle cx="314" cy="192" r="2"/>
    <circle cx="401" cy="173" r="2"/>
  </g>
  <g stroke="chocolate" stroke-width="1">
    <line x1="165" y1="348" x2="159" y2="344"/>
    <circle cx="165" cy="348" r="2"/>
    <circle cx="159" cy="344" r="2"/>
  </g>
  <g stroke="chocolate" stroke-width="1">
    <line x1="328" y1="255" x2="243" y2="175"/>
    <circle cx="328" cy="255" r="2"/>
    <circle cx="243" cy="175" r="2"/>
  </g>
  <g stroke="chocolate" stroke-width="1">
    <line x1="226" y1="313" x2="105" y2="259"/>
    <circle cx="226" cy="313" r="2"/>
    <circle cx="105" cy="259" r="2"/>
  </g>
  <g stroke="chocolate" stroke-width="1">
    <line x1="259" y1="295" x2="128" y2="219"/>
    <circle cx="259" cy="295" r="2"/>
    <circle cx="128" cy="219" r="2"/>
  </g>
  <g stroke="chocolate" stroke-width="1">
    <line x1="169" y1="218" x2="394" y2="218"/>
    <circle cx="169" cy="218" r="2"/>
    <circle cx="394" cy="218" r="2"/>
  </g>
  <g stroke="chocolate" stroke-width="1">
    <line x1="292" y1="276" x2="142" y2="255"/>
    <circle cx="292" cy="276" r="2"/>
    <circle cx="142" cy="255" r="2"/>
  </g>
  <g stroke="chocolate" stroke-width="1">
    <line x1="425" y1="200" x2="242" y2="177"/>
    <circle cx="425" cy="200" r="2"/>
    <circle cx="242" cy="177" r="2"/>
  </g>
  <g stroke="chocolate" stroke-width="1">
    <line x1="409" y1="178" x2="401" y2="173"/>
    <circle cx="409" cy="178" r="2"/>
    <circle cx="401" cy="173" r="2"/>
  </g>
  <g stroke="chocolate" stroke-width="1">
    <line x1="404" y1="212" x2="242" y2="147"/>
    <circle cx="404" cy="212" r="2"/>
    <circle cx="242" cy="147" r="2"/>
  </g>
  <g stroke="chocolate" stroke-width="1">
    <line x1="425" y1="200" x2="340" y2="163"/>
    <circle cx="425" cy="200" r="2"/>
    <circle cx="340" cy="163" r="2"/>
  </g>
  <g stroke="black" stroke-width="1">
    <line x1="5" y1="5" x2="505" y2="5"/>
    <line x1="5" y1="5" x2="5" y2="505"/>
    <line x1="505" y1="505" x2="5" y2="505"/>
    <line x1="505" y1="505" x2="505" y2="5"/>
    <line x1="105" y1="2" x2="105" y2="8"/>
    <line x1="2" y1="105" x2="8" y2="105"/>
    <line x1="105" y1="502" x2="105" y2="508"/>
    <line x1="502" y1="105" x2="508" y2="105"/>
    <line x1="205" y1="2" x2="205" y2="8"/>
    <line x1="2" y1="205" x2="8" y2="205"/>
    <line x1="205" y1="502" x2="205" y2="508"/>
    <line x1="502" y1="205" x2="508" y2="205"/>
    <line x1="305" y1="2" x2="305" y2="8"/>
    <line x1="2" y1="305" x2="8" y2="305"/>
    <line x1="305" y1="502" x2="305" y2="508"/>
    <line x1="502" y1="305" x2="508" y2="305"/>
    <line x1="405" y1="2" x2="405" y2="8"/>
    <line x1="2" y1="405" x2="8" y2="405"/>
    <line x1="405" y1="502" x2="405" y2="508"/>
    <line x1="502" y1="405" x2="508" y2="405"/>
  </g>
  <g stroke="gray" stroke-width="1" stroke-dasharray="5,5">
    <line x1="105" y1="5" x2="105" y2="505"/>
    <line x1="5" y1="105" x2="505" y2="105"/>
    <line x1="205" y1="5" x2="205" y2="505"/>
    <line x1="5" y1="205" x2="505" y2="205"/>
    <line x1="305" y1="5" x2="305" y2="505"/>
    <line x1="5" y1="305" x2="505" y2="305"/>
    <line x1="405" y1="5" x2="405" y2="505"/>
    <line x1="5" y1="405" x2="505" y2="405"/>
  </g>
</svg>
