<?xml version="1.0" standalone="no"?>
<!DOCTYPE svg PUBLIC "-//W3C//DTD SVG 1.1//EN" 
  "http://www.w3.org/Graphics/SVG/1.1/DTD/svg11.dtd">
<svg width="510" height="510" version="1.1" id="toplevel"
    xmlns="http://www.w3.org/2000/svg"
    xmlns:xlink="http://www.w3.org/1999/xlink">
  <polygon points="231,389 368,386 365,135 363,135 362,132 227,135 227,137 225,137 227,266 228,266"
           fill="bisque"/>
  <g stroke="chocolate" stroke-width="1">
    <line x1="366" y1="383" x2="367" y2="286"/>
    <circle cx="366" cy="383" r="2"/>
    <circle cx="367" cy="286" r="2"/>
  </g>
  <g stroke="chocolate" stroke-width="1">
    <line x1="366" y1="383" x2="366" y2="266"/>
    <circle cx="366" cy="383" r="2"/>
    <circle cx="366" cy="266" r="2"/>
  </g>
  <g stroke="chocolate" stroke-width="1">
    <line x1="227" y1="266" x2="225" y2="137"/>
    <circle cx="227" cy="266" r="2"/>
    <circle cx="225" cy="137" r="2"/>
  </g>
  <g stroke="chocolate" stroke-width="1">
    <line x1="231" y1="389" x2="229" y2="270"/>
    <circle cx="231" cy="389" r="2"/>
    <circle cx="229" cy="270" r="2"/>
  </g>
  <g stroke="chocolate" stroke-width="1">
    <line x1="231" y1="387" x2="227" y2="135"/>
    <circle cx="231" cy="387" r="2"/>
    <circle cx="227" cy="135" r="2"/>
  </g>
  <g stroke="chocolate" stroke-width="1">
    <line x1="368" y1="386" x2="365" y2="135"/>
    <circle cx="368" cy="386" r="2"/>
    <circle cx="365" cy="135" r="2"/>
  </g>
  <g stroke="chocolate" stroke-width="1">
    <line x1="231" y1="389" x2="225" y2="137"/>
    <circle cx="231" cy="389" r="2"/>
    <circle cx="225" cy="137" r="2"/>
  </g>
  <g stroke="chocolate" stroke-width="1">
    <line x1="275" y1="386" x2="269" y2="134"/>
    <circle cx="275" cy="386" r="2"/>
    <circle cx="269" cy="134" r="2"/>
  </g>
  <g stroke="chocolate" stroke-width="1">
    <line x1="365" y1="263" x2="362" y2="132"/>
    <circle cx="365" cy="263" r="2"/>
    <circle cx="362" cy="132" r="2"/>
  </g>
  <g stroke="chocolate" stroke-width="1">
    <line x1="367" y1="286" x2="362" y2="132"/>
    <circle cx="367" cy="286" r="2"/>
    <circle cx="362" cy="132" r="2"/>
  </g>
  <g stroke="chocolate" stroke-width="1">
    <line x1="231" y1="387" x2="275" y2="386"/>
    <circle cx="231" cy="387" r="2"/>
    <circle cx="275" cy="386" r="2"/>
  </g>
  <g stroke="chocolate" stroke-width="1">
    <line x1="231" y1="389" x2="368" y2="386"/>
    <circle cx="231" cy="389" r="2"/>
    <circle cx="368" cy="386" r="2"/>
  </g>
  <g stroke="chocolate" stroke-width="1">
    <line x1="231" y1="386" x2="368" y2="383"/>
    <circle cx="231" cy="386" r="2"/>
    <circle cx="368" cy="383" r="2"/>
  </g>
  <g stroke="chocolate" stroke-width="1">
    <line x1="231" y1="386" x2="275" y2="386"/>
    <circle cx="231" cy="386" r="2"/>
    <circle cx="275" cy="386" r="2"/>
  </g>
  <g stroke="chocolate" stroke-width="1">
    <line x1="231" y1="387" x2="368" y2="386"/>
    <circle cx="231" cy="387" r="2"/>
    <circle cx="368" cy="386" r="2"/>
  </g>
  <g stroke="chocolate" stroke-width="1">
    <line x1="368" y1="383" x2="366" y2="383"/>
    <circle cx="368" cy="383" r="2"/>
    <circle cx="366" cy="383" r="2"/>
  </g>
  <g stroke="chocolate" stroke-width="1">
    <line x1="229" y1="269" x2="272" y2="268"/>
    <circle cx="229" cy="269" r="2"/>
    <circle cx="272" cy="268" r="2"/>
  </g>
  <g stroke="chocolate" stroke-width="1">
    <line x1="229" y1="268" x2="367" y2="266"/>
    <circle cx="229" cy="268" r="2"/>
    <circle cx="367" cy="266" r="2"/>
  </g>
  <g stroke="chocolate" stroke-width="1">
    <line x1="229" y1="270" x2="367" y2="268"/>
    <circle cx="229" cy="270" r="2"/>
    <circle cx="367" cy="268" r="2"/>
  </g>
  <g stroke="chocolate" stroke-width="1">
    <line x1="229" y1="268" x2="272" y2="268"/>
    <circle cx="229" cy="268" r="2"/>
    <circle cx="272" cy="268" r="2"/>
  </g>
  <g stroke="chocolate" stroke-width="1">
    <line x1="229" y1="266" x2="272" y2="265"/>
    <circle cx="229" cy="266" r="2"/>
    <circle cx="272" cy="265" r="2"/>
  </g>
  <g stroke="chocolate" stroke-width="1">
    <line x1="229" y1="269" x2="367" y2="268"/>
    <circle cx="229" cy="269" r="2"/>
    <circle cx="367" cy="268" r="2"/>
  </g>
  <g stroke="chocolate" stroke-width="1">
    <line x1="229" y1="266" x2="272" y2="265"/>
    <circle cx="229" cy="266" r="2"/>
    <circle cx="272" cy="265" r="2"/>
  </g>
  <g stroke="chocolate" stroke-width="1">
    <line x1="229" y1="266" x2="365" y2="263"/>
    <circle cx="229" cy="266" r="2"/>
    <circle cx="365" cy="263" r="2"/>
  </g>
  <g stroke="chocolate" stroke-width="1">
    <line x1="227" y1="266" x2="367" y2="264"/>
    <circle cx="227" cy="266" r="2"/>
    <circle cx="367" cy="264" r="2"/>
  </g>
  <g stroke="chocolate" stroke-width="1">
    <line x1="229" y1="266" x2="367" y2="264"/>
    <circle cx="229" cy="266" r="2"/>
    <circle cx="367" cy="264" r="2"/>
  </g>
  <g stroke="chocolate" stroke-width="1">
    <line x1="366" y1="266" x2="367" y2="266"/>
    <circle cx="366" cy="266" r="2"/>
    <circle cx="367" cy="266" r="2"/>
  </g>
  <g stroke="chocolate" stroke-width="1">
    <line x1="227" y1="136" x2="269" y2="134"/>
    <circle cx="227" cy="136" r="2"/>
    <circle cx="269" cy="134" r="2"/>
  </g>
  <g stroke="chocolate" stroke-width="1">
    <line x1="225" y1="137" x2="365" y2="135"/>
    <circle cx="225" cy="137" r="2"/>
    <circle cx="365" cy="135" r="2"/>
  </g>
  <g stroke="chocolate" stroke-width="1">
    <line x1="227" y1="135" x2="362" y2="132"/>
    <circle cx="227" cy="135" r="2"/>
    <circle cx="362" cy="132" r="2"/>
  </g>
  <g stroke="chocolate" stroke-width="1">
    <line x1="227" y1="135" x2="269" y2="134"/>
    <circle cx="227" cy="135" r="2"/>
    <circle cx="269" cy="134" r="2"/>
  </g>
  <g stroke="chocolate" stroke-width="1">
    <line x1="227" y1="136" x2="365" y2="135"/>
    <circle cx="227" cy="136" r="2"/>
    <circle cx="365" cy="135" r="2"/>
  </g>
  <g stroke="black" stroke-width="1">
    <line x1="5" y1="5" x2="505" y2="5"/>
    <line x1="5" y1="5" x2="5" y2="505"/>
    <line x1="505" y1="505" x2="5" y2="505"/>
    <line x1="505" y1="505" x2="505" y2="5"/>
    <line x1="105" y1="2" x2="105" y2="8"/>
    <line x1="2" y1="105" x2="8" y2="105"/>
    <line x1="105" y1="502" x2="105" y2="508"/>
    <line x1="502" y1="105" x2="508" y2="105"/>
    <line x1="205" y1="2" x2="205" y2="8"/>
    <line x1="2" y1="205" x2="8" y2="205"/>
    <line x1="205" y1="502" x2="205" y2="508"/>
    <line x1="502" y1="205" x2="508" y2="205"/>
    <line x1="305" y1="2" x2="305" y2="8"/>
    <line x1="2" y1="305" x2="8" y2="305"/>
    <line x1="305" y1="502" x2="305" y2="508"/>
    <line x1="502" y1="305" x2="508" y2="305"/>
    <line x1="405" y1="2" x2="405" y2="8"/>
    <line x1="2" y1="405" x2="8" y2="405"/>
    <line x1="405" y1="502" x2="405" y2="508"/>
    <line x1="502" y1="405" x2="508" y2="405"/>
  </g>
  <g stroke="gray" stroke-width="1" stroke-dasharray="5,5">
    <line x1="105" y1="5" x2="105" y2="505"/>
    <line x1="5" y1="105" x2="505" y2="105"/>
    <line x1="205" y1="5" x2="205" y2="505"/>
    <line x1="5" y1="205" x2="505" y2="205"/>
    <line x1="305" y1="5" x2="305" y2="505"/>
    <line x1="5" y1="305" x2="505" y2="305"/>
    <line x1="405" y1="5" x2="405" y2="505"/>
    <line x1="5" y1="405" x2="505" y2="405"/>
  </g>
</svg>
