<?xml version="1.0" standalone="no"?>
<!DOCTYPE svg PUBLIC "-//W3C//DTD SVG 1.1//EN" 
  "http://www.w3.org/Graphics/SVG/1.1/DTD/svg11.dtd">
<svg width="510" height="510" version="1.1" id="toplevel"
    xmlns="http://www.w3.org/2000/svg"
    xmlns:xlink="http://www.w3.org/1999/xlink">
  <polygon points="433,450 491,361 460,214 223,60 77,91 19,180 165,149 207,345 402,303"
           fill="bisque"/>
  <g stroke="chocolate" stroke-width="1">
    <line x1="433" y1="450" x2="491" y2="361"/>
    <circle cx="433" cy="450" r="2"/>
    <circle cx="491" cy="361" r="2"/>
  </g>
  <g stroke="chocolate" stroke-width="1">
    <line x1="402" y1="303" x2="460" y2="214"/>
    <circle cx="402" cy="303" r="2"/>
    <circle cx="460" cy="214" r="2"/>
  </g>
  <g stroke="chocolate" stroke-width="1">
    <line x1="165" y1="149" x2="223" y2="60"/>
    <circle cx="165" cy="149" r="2"/>
    <circle cx="223" cy="60" r="2"/>
  </g>
  <g stroke="chocolate" stroke-width="1">
    <line x1="19" y1="180" x2="77" y2="91"/>
    <circle cx="19" cy="180" r="2"/>
    <circle cx="77" cy="91" r="2"/>
  </g>
  <g stroke="chocolate" stroke-width="1">
    <line x1="207" y1="345" x2="150" y2="76"/>
    <circle cx="207" cy="345" r="2"/>
    <circle cx="150" cy="76" r="2"/>
  </g>
  <g stroke="chocolate" stroke-width="1">
    <line x1="433" y1="450" x2="402" y2="303"/>
    <circle cx="433" cy="450" r="2"/>
    <circle cx="402" cy="303" r="2"/>
  </g>
  <g stroke="chocolate" stroke-width="1">
    <line x1="491" y1="361" x2="460" y2="214"/>
    <circle cx="491" cy="361" r="2"/>
    <circle cx="460" cy="214" r="2"/>
  </g>
  <g stroke="chocolate" stroke-width="1">
    <line x1="207" y1="345" x2="476" y2="288"/>
    <circle cx="207" cy="345" r="2"/>
    <circle cx="476" cy="288" r="2"/>
  </g>
  <g stroke="chocolate" stroke-width="1">
    <line x1="19" y1="180" x2="165" y2="149"/>
    <circle cx="19" cy="180" r="2"/>
    <circle cx="165" cy="149" r="2"/>
  </g>
  <g stroke="chocolate" stroke-width="1">
    <line x1="77" y1="91" x2="223" y2="60"/>
    <circle cx="77" cy="91" r="2"/>
    <circle cx="223" cy="60" r="2"/>
  </g>
  <g stroke="chocolate" stroke-width="1">
    <line x1="491" y1="361" x2="77" y2="91"/>
    <circle cx="491" cy="361" r="2"/>
    <circle cx="77" cy="91" r="2"/>
  </g>
  <g stroke="chocolate" stroke-width="1">
    <line x1="460" y1="214" x2="223" y2="60"/>
    <circle cx="460" cy="214" r="2"/>
    <circle cx="223" cy="60" r="2"/>
  </g>
  <g stroke="black" stroke-width="1">
    <line x1="5" y1="5" x2="505" y2="5"/>
    <line x1="5" y1="5" x2="5" y2="505"/>
    <line x1="505" y1="505" x2="5" y2="505"/>
    <line x1="505" y1="505" x2="505" y2="5"/>
    <line x1="105" y1="2" x2="105" y2="8"/>
    <line x1="2" y1="105" x2="8" y2="105"/>
    <line x1="105" y1="502" x2="105" y2="508"/>
    <line x1="502" y1="105" x2="508" y2="105"/>
    <line x1="205" y1="2" x2="205" y2="8"/>
    <line x1="2" y1="205" x2="8" y2="205"/>
    <line x1="205" y1="502" x2="205" y2="508"/>
    <line x1="502" y1="205" x2="508" y2="205"/>
    <line x1="305" y1="2" x2="305" y2="8"/>
    <line x1="2" y1="305" x2="8" y2="305"/>
    <line x1="305" y1="502" x2="305" y2="508"/>
    <line x1="502" y1="305" x2="508" y2="305"/>
    <line x1="405" y1="2" x2="405" y2="8"/>
    <line x1="2" y1="405" x2="8" y2="405"/>
    <line x1="405" y1="502" x2="405" y2="508"/>
    <line x1="502" y1="405" x2="508" y2="405"/>
  </g>
  <g stroke="gray" stroke-width="1" stroke-dasharray="5,5">
    <line x1="105" y1="5" x2="105" y2="505"/>
    <line x1="5" y1="105" x2="505" y2="105"/>
    <line x1="205" y1="5" x2="205" y2="505"/>
    <line x1="5" y1="205" x2="505" y2="205"/>
    <line x1="305" y1="5" x2="305" y2="505"/>
    <line x1="5" y1="305" x2="505" y2="305"/>
    <line x1="405" y1="5" x2="405" y2="505"/>
    <line x1="5" y1="405" x2="505" y2="405"/>
  </g>
</svg>
