<?xml version="1.0" standalone="no"?>
<!DOCTYPE svg PUBLIC "-//W3C//DTD SVG 1.1//EN" 
  "http://www.w3.org/Graphics/SVG/1.1/DTD/svg11.dtd">
<svg width="510" height="510" version="1.1" id="toplevel"
    xmlns="http://www.w3.org/2000/svg"
    xmlns:xlink="http://www.w3.org/1999/xlink">
  <polygon points="100,255 270,205 299,205 393,238 415,251 450,205 368,42 114,70 60,121"
           fill="bisque"/>
  <g stroke="chocolate" stroke-width="1">
    <line x1="415" y1="251" x2="450" y2="205"/>
    <circle cx="415" cy="251" r="2"/>
    <circle cx="450" cy="205" r="2"/>
  </g>
  <g stroke="chocolate" stroke-width="1">
    <line x1="400" y1="240" x2="428" y2="162"/>
    <circle cx="400" cy="240" r="2"/>
    <circle cx="428" cy="162" r="2"/>
  </g>
  <g stroke="chocolate" stroke-width="1">
    <line x1="329" y1="205" x2="382" y2="70"/>
    <circle cx="329" cy="205" r="2"/>
    <circle cx="382" cy="70" r="2"/>
  </g>
  <g stroke="chocolate" stroke-width="1">
    <line x1="315" y1="159" x2="342" y2="59"/>
    <circle cx="315" cy="159" r="2"/>
    <circle cx="342" cy="59" r="2"/>
  </g>
  <g stroke="chocolate" stroke-width="1">
    <line x1="262" y1="205" x2="299" y2="156"/>
    <circle cx="262" cy="205" r="2"/>
    <circle cx="299" cy="156" r="2"/>
  </g>
  <g stroke="chocolate" stroke-width="1">
    <line x1="365" y1="205" x2="427" y2="159"/>
    <circle cx="365" cy="205" r="2"/>
    <circle cx="427" cy="159" r="2"/>
  </g>
  <g stroke="chocolate" stroke-width="1">
    <line x1="242" y1="178" x2="368" y2="42"/>
    <circle cx="242" cy="178" r="2"/>
    <circle cx="368" cy="42" r="2"/>
  </g>
  <g stroke="chocolate" stroke-width="1">
    <line x1="284" y1="205" x2="409" y2="124"/>
    <circle cx="284" cy="205" r="2"/>
    <circle cx="409" cy="124" r="2"/>
  </g>
  <g stroke="chocolate" stroke-width="1">
    <line x1="100" y1="255" x2="60" y2="121"/>
    <circle cx="100" cy="255" r="2"/>
    <circle cx="60" cy="121" r="2"/>
  </g>
  <g stroke="chocolate" stroke-width="1">
    <line x1="60" y1="121" x2="114" y2="70"/>
    <circle cx="60" cy="121" r="2"/>
    <circle cx="114" cy="70" r="2"/>
  </g>
  <g stroke="chocolate" stroke-width="1">
    <line x1="315" y1="159" x2="409" y2="124"/>
    <circle cx="315" cy="159" r="2"/>
    <circle cx="409" cy="124" r="2"/>
  </g>
  <g stroke="chocolate" stroke-width="1">
    <line x1="100" y1="255" x2="427" y2="159"/>
    <circle cx="100" cy="255" r="2"/>
    <circle cx="427" cy="159" r="2"/>
  </g>
  <g stroke="chocolate" stroke-width="1">
    <line x1="329" y1="205" x2="296" y2="120"/>
    <circle cx="329" cy="205" r="2"/>
    <circle cx="296" cy="120" r="2"/>
  </g>
  <g stroke="chocolate" stroke-width="1">
    <line x1="262" y1="205" x2="450" y2="205"/>
    <circle cx="262" cy="205" r="2"/>
    <circle cx="450" cy="205" r="2"/>
  </g>
  <g stroke="chocolate" stroke-width="1">
    <line x1="450" y1="205" x2="368" y2="42"/>
    <circle cx="450" cy="205" r="2"/>
    <circle cx="368" cy="42" r="2"/>
  </g>
  <g stroke="chocolate" stroke-width="1">
    <line x1="262" y1="205" x2="242" y2="178"/>
    <circle cx="262" cy="205" r="2"/>
    <circle cx="242" cy="178" r="2"/>
  </g>
  <g stroke="chocolate" stroke-width="1">
    <line x1="114" y1="70" x2="368" y2="42"/>
    <circle cx="114" cy="70" r="2"/>
    <circle cx="368" cy="42" r="2"/>
  </g>
  <g stroke="chocolate" stroke-width="1">
    <line x1="400" y1="240" x2="60" y2="121"/>
    <circle cx="400" cy="240" r="2"/>
    <circle cx="60" cy="121" r="2"/>
  </g>
  <g stroke="chocolate" stroke-width="1">
    <line x1="284" y1="205" x2="242" y2="178"/>
    <circle cx="284" cy="205" r="2"/>
    <circle cx="242" cy="178" r="2"/>
  </g>
  <g stroke="chocolate" stroke-width="1">
    <line x1="415" y1="251" x2="315" y2="159"/>
    <circle cx="415" cy="251" r="2"/>
    <circle cx="315" cy="159" r="2"/>
  </g>
  <g stroke="chocolate" stroke-width="1">
    <line x1="415" y1="251" x2="114" y2="70"/>
    <circle cx="415" cy="251" r="2"/>
    <circle cx="114" cy="70" r="2"/>
  </g>
  <g stroke="chocolate" stroke-width="1">
    <line x1="365" y1="205" x2="299" y2="156"/>
    <circle cx="365" cy="205" r="2"/>
    <circle cx="299" cy="156" r="2"/>
  </g>
  <g stroke="chocolate" stroke-width="1">
    <line x1="428" y1="162" x2="296" y2="120"/>
    <circle cx="428" cy="162" r="2"/>
    <circle cx="296" cy="120" r="2"/>
  </g>
  <g stroke="chocolate" stroke-width="1">
    <line x1="382" y1="70" x2="342" y2="59"/>
    <circle cx="382" cy="70" r="2"/>
    <circle cx="342" cy="59" r="2"/>
  </g>
  <g stroke="black" stroke-width="1">
    <line x1="5" y1="5" x2="505" y2="5"/>
    <line x1="5" y1="5" x2="5" y2="505"/>
    <line x1="505" y1="505" x2="5" y2="505"/>
    <line x1="505" y1="505" x2="505" y2="5"/>
    <line x1="105" y1="2" x2="105" y2="8"/>
    <line x1="2" y1="105" x2="8" y2="105"/>
    <line x1="105" y1="502" x2="105" y2="508"/>
    <line x1="502" y1="105" x2="508" y2="105"/>
    <line x1="205" y1="2" x2="205" y2="8"/>
    <line x1="2" y1="205" x2="8" y2="205"/>
    <line x1="205" y1="502" x2="205" y2="508"/>
    <line x1="502" y1="205" x2="508" y2="205"/>
    <line x1="305" y1="2" x2="305" y2="8"/>
    <line x1="2" y1="305" x2="8" y2="305"/>
    <line x1="305" y1="502" x2="305" y2="508"/>
    <line x1="502" y1="305" x2="508" y2="305"/>
    <line x1="405" y1="2" x2="405" y2="8"/>
    <line x1="2" y1="405" x2="8" y2="405"/>
    <line x1="405" y1="502" x2="405" y2="508"/>
    <line x1="502" y1="405" x2="508" y2="405"/>
  </g>
  <g stroke="gray" stroke-width="1" stroke-dasharray="5,5">
    <line x1="105" y1="5" x2="105" y2="505"/>
    <line x1="5" y1="105" x2="505" y2="105"/>
    <line x1="205" y1="5" x2="205" y2="505"/>
    <line x1="5" y1="205" x2="505" y2="205"/>
    <line x1="305" y1="5" x2="305" y2="505"/>
    <line x1="5" y1="305" x2="505" y2="305"/>
    <line x1="405" y1="5" x2="405" y2="505"/>
    <line x1="5" y1="405" x2="505" y2="405"/>
  </g>
</svg>
