<?xml version="1.0" standalone="no"?>
<!DOCTYPE svg PUBLIC "-//W3C//DTD SVG 1.1//EN" 
  "http://www.w3.org/Graphics/SVG/1.1/DTD/svg11.dtd">
<svg width="564" height="564" version="1.1" id="toplevel"
    xmlns="http://www.w3.org/2000/svg"
    xmlns:xlink="http://www.w3.org/1999/xlink">
  <polygon points="259,559 476,160 339,5 337,5 299,96 322,106 316,136 274,130 264,156 148,515"
           fill="bisque"/>
  <g stroke="chocolate" stroke-width="1">
    <line x1="245" y1="549" x2="268" y2="543"/>
    <circle cx="245" cy="549" r="2"/>
    <circle cx="268" cy="543" r="2"/>
  </g>
  <g stroke="chocolate" stroke-width="1">
    <line x1="259" y1="559" x2="476" y2="160"/>
    <circle cx="259" cy="559" r="2"/>
    <circle cx="476" cy="160" r="2"/>
  </g>
  <g stroke="chocolate" stroke-width="1">
    <line x1="299" y1="96" x2="337" y2="5"/>
    <circle cx="299" cy="96" r="2"/>
    <circle cx="337" cy="5" r="2"/>
  </g>
  <g stroke="chocolate" stroke-width="1">
    <line x1="245" y1="549" x2="339" y2="5"/>
    <circle cx="245" cy="549" r="2"/>
    <circle cx="339" cy="5" r="2"/>
  </g>
  <g stroke="chocolate" stroke-width="1">
    <line x1="148" y1="515" x2="264" y2="156"/>
    <circle cx="148" cy="515" r="2"/>
    <circle cx="264" cy="156" r="2"/>
  </g>
  <g stroke="chocolate" stroke-width="1">
    <line x1="264" y1="156" x2="274" y2="130"/>
    <circle cx="264" cy="156" r="2"/>
    <circle cx="274" cy="130" r="2"/>
  </g>
  <g stroke="chocolate" stroke-width="1">
    <line x1="174" y1="521" x2="264" y2="156"/>
    <circle cx="174" cy="521" r="2"/>
    <circle cx="264" cy="156" r="2"/>
  </g>
  <g stroke="chocolate" stroke-width="1">
    <line x1="174" y1="521" x2="148" y2="515"/>
    <circle cx="174" cy="521" r="2"/>
    <circle cx="148" cy="515" r="2"/>
  </g>
  <g stroke="chocolate" stroke-width="1">
    <line x1="205" y1="339" x2="285" y2="278"/>
    <circle cx="205" cy="339" r="2"/>
    <circle cx="285" cy="278" r="2"/>
  </g>
  <g stroke="chocolate" stroke-width="1">
    <line x1="259" y1="559" x2="148" y2="515"/>
    <circle cx="259" cy="559" r="2"/>
    <circle cx="148" cy="515" r="2"/>
  </g>
  <g stroke="chocolate" stroke-width="1">
    <line x1="282" y1="225" x2="274" y2="130"/>
    <circle cx="282" cy="225" r="2"/>
    <circle cx="274" cy="130" r="2"/>
  </g>
  <g stroke="chocolate" stroke-width="1">
    <line x1="259" y1="559" x2="245" y2="549"/>
    <circle cx="259" cy="559" r="2"/>
    <circle cx="245" cy="549" r="2"/>
  </g>
  <g stroke="chocolate" stroke-width="1">
    <line x1="268" y1="543" x2="205" y2="339"/>
    <circle cx="268" cy="543" r="2"/>
    <circle cx="205" cy="339" r="2"/>
  </g>
  <g stroke="chocolate" stroke-width="1">
    <line x1="243" y1="222" x2="454" y2="157"/>
    <circle cx="243" cy="222" r="2"/>
    <circle cx="454" cy="157" r="2"/>
  </g>
  <g stroke="chocolate" stroke-width="1">
    <line x1="285" y1="278" x2="243" y2="222"/>
    <circle cx="285" cy="278" r="2"/>
    <circle cx="243" cy="222" r="2"/>
  </g>
  <g stroke="chocolate" stroke-width="1">
    <line x1="282" y1="225" x2="448" y2="212"/>
    <circle cx="282" cy="225" r="2"/>
    <circle cx="448" cy="212" r="2"/>
  </g>
  <g stroke="chocolate" stroke-width="1">
    <line x1="448" y1="212" x2="337" y2="5"/>
    <circle cx="448" cy="212" r="2"/>
    <circle cx="337" cy="5" r="2"/>
  </g>
  <g stroke="chocolate" stroke-width="1">
    <line x1="476" y1="160" x2="339" y2="5"/>
    <circle cx="476" cy="160" r="2"/>
    <circle cx="339" cy="5" r="2"/>
  </g>
  <g stroke="chocolate" stroke-width="1">
    <line x1="476" y1="160" x2="274" y2="130"/>
    <circle cx="476" cy="160" r="2"/>
    <circle cx="274" cy="130" r="2"/>
  </g>
  <g stroke="chocolate" stroke-width="1">
    <line x1="472" y1="169" x2="454" y2="157"/>
    <circle cx="472" cy="169" r="2"/>
    <circle cx="454" cy="157" r="2"/>
  </g>
  <g stroke="chocolate" stroke-width="1">
    <line x1="472" y1="169" x2="299" y2="96"/>
    <circle cx="472" cy="169" r="2"/>
    <circle cx="299" cy="96" r="2"/>
  </g>
  <g stroke="chocolate" stroke-width="1">
    <line x1="337" y1="5" x2="339" y2="5"/>
    <circle cx="337" cy="5" r="2"/>
    <circle cx="339" cy="5" r="2"/>
  </g>
  <g stroke="black" stroke-width="1">
    <line x1="32" y1="32" x2="532" y2="32"/>
    <line x1="32" y1="32" x2="32" y2="532"/>
    <line x1="532" y1="532" x2="32" y2="532"/>
    <line x1="532" y1="532" x2="532" y2="32"/>
    <line x1="132" y1="29" x2="132" y2="35"/>
    <line x1="29" y1="132" x2="35" y2="132"/>
    <line x1="132" y1="529" x2="132" y2="535"/>
    <line x1="529" y1="132" x2="535" y2="132"/>
    <line x1="232" y1="29" x2="232" y2="35"/>
    <line x1="29" y1="232" x2="35" y2="232"/>
    <line x1="232" y1="529" x2="232" y2="535"/>
    <line x1="529" y1="232" x2="535" y2="232"/>
    <line x1="332" y1="29" x2="332" y2="35"/>
    <line x1="29" y1="332" x2="35" y2="332"/>
    <line x1="332" y1="529" x2="332" y2="535"/>
    <line x1="529" y1="332" x2="535" y2="332"/>
    <line x1="432" y1="29" x2="432" y2="35"/>
    <line x1="29" y1="432" x2="35" y2="432"/>
    <line x1="432" y1="529" x2="432" y2="535"/>
    <line x1="529" y1="432" x2="535" y2="432"/>
  </g>
  <g stroke="gray" stroke-width="1" stroke-dasharray="5,5">
    <line x1="132" y1="32" x2="132" y2="532"/>
    <line x1="32" y1="132" x2="532" y2="132"/>
    <line x1="232" y1="32" x2="232" y2="532"/>
    <line x1="32" y1="232" x2="532" y2="232"/>
    <line x1="332" y1="32" x2="332" y2="532"/>
    <line x1="32" y1="332" x2="532" y2="332"/>
    <line x1="432" y1="32" x2="432" y2="532"/>
    <line x1="32" y1="432" x2="532" y2="432"/>
  </g>
</svg>
