<?xml version="1.0" standalone="no"?>
<!DOCTYPE svg PUBLIC "-//W3C//DTD SVG 1.1//EN" 
  "http://www.w3.org/Graphics/SVG/1.1/DTD/svg11.dtd">
<svg width="510" height="510" version="1.1" id="toplevel"
    xmlns="http://www.w3.org/2000/svg"
    xmlns:xlink="http://www.w3.org/1999/xlink">
  <polygon points="371,505 411,387 308,235 227,231 99,372 107,434 246,414 232,457"
           fill="bisque"/>
  <polygon points="251,401 248,379 258,380" fill="bisque"/>
  <g stroke="chocolate" stroke-width="1">
    <line x1="107" y1="434" x2="99" y2="372"/>
    <circle cx="107" cy="434" r="2"/>
    <circle cx="99" cy="372" r="2"/>
  </g>
  <g stroke="chocolate" stroke-width="1">
    <line x1="136" y1="430" x2="124" y2="344"/>
    <circle cx="136" cy="430" r="2"/>
    <circle cx="124" cy="344" r="2"/>
  </g>
  <g stroke="chocolate" stroke-width="1">
    <line x1="253" y1="413" x2="227" y2="231"/>
    <circle cx="253" cy="413" r="2"/>
    <circle cx="227" cy="231" r="2"/>
  </g>
  <g stroke="chocolate" stroke-width="1">
    <line x1="371" y1="505" x2="371" y2="505"/>
    <circle cx="371" cy="505" r="2"/>
    <circle cx="371" cy="505" r="2"/>
  </g>
  <g stroke="chocolate" stroke-width="1">
    <line x1="371" y1="505" x2="232" y2="457"/>
    <circle cx="371" cy="505" r="2"/>
    <circle cx="232" cy="457" r="2"/>
  </g>
  <g stroke="chocolate" stroke-width="1">
    <line x1="371" y1="505" x2="411" y2="387"/>
    <circle cx="371" cy="505" r="2"/>
    <circle cx="411" cy="387" r="2"/>
  </g>
  <g stroke="chocolate" stroke-width="1">
    <line x1="371" y1="505" x2="411" y2="387"/>
    <circle cx="371" cy="505" r="2"/>
    <circle cx="411" cy="387" r="2"/>
  </g>
  <g stroke="chocolate" stroke-width="1">
    <line x1="343" y1="495" x2="391" y2="356"/>
    <circle cx="343" cy="495" r="2"/>
    <circle cx="391" cy="356" r="2"/>
  </g>
  <g stroke="chocolate" stroke-width="1">
    <line x1="232" y1="457" x2="308" y2="235"/>
    <circle cx="232" cy="457" r="2"/>
    <circle cx="308" cy="235" r="2"/>
  </g>
  <g stroke="chocolate" stroke-width="1">
    <line x1="411" y1="387" x2="308" y2="235"/>
    <circle cx="411" cy="387" r="2"/>
    <circle cx="308" cy="235" r="2"/>
  </g>
  <g stroke="chocolate" stroke-width="1">
    <line x1="107" y1="434" x2="253" y2="413"/>
    <circle cx="107" cy="434" r="2"/>
    <circle cx="253" cy="413" r="2"/>
  </g>
  <g stroke="chocolate" stroke-width="1">
    <line x1="411" y1="387" x2="99" y2="372"/>
    <circle cx="411" cy="387" r="2"/>
    <circle cx="99" cy="372" r="2"/>
  </g>
  <g stroke="chocolate" stroke-width="1">
    <line x1="391" y1="356" x2="124" y2="344"/>
    <circle cx="391" cy="356" r="2"/>
    <circle cx="124" cy="344" r="2"/>
  </g>
  <g stroke="chocolate" stroke-width="1">
    <line x1="99" y1="372" x2="227" y2="231"/>
    <circle cx="99" cy="372" r="2"/>
    <circle cx="227" cy="231" r="2"/>
  </g>
  <g stroke="chocolate" stroke-width="1">
    <line x1="308" y1="235" x2="227" y2="231"/>
    <circle cx="308" cy="235" r="2"/>
    <circle cx="227" cy="231" r="2"/>
  </g>
  <g stroke="black" stroke-width="1">
    <line x1="5" y1="5" x2="505" y2="5"/>
    <line x1="5" y1="5" x2="5" y2="505"/>
    <line x1="505" y1="505" x2="5" y2="505"/>
    <line x1="505" y1="505" x2="505" y2="5"/>
    <line x1="105" y1="2" x2="105" y2="8"/>
    <line x1="2" y1="105" x2="8" y2="105"/>
    <line x1="105" y1="502" x2="105" y2="508"/>
    <line x1="502" y1="105" x2="508" y2="105"/>
    <line x1="205" y1="2" x2="205" y2="8"/>
    <line x1="2" y1="205" x2="8" y2="205"/>
    <line x1="205" y1="502" x2="205" y2="508"/>
    <line x1="502" y1="205" x2="508" y2="205"/>
    <line x1="305" y1="2" x2="305" y2="8"/>
    <line x1="2" y1="305" x2="8" y2="305"/>
    <line x1="305" y1="502" x2="305" y2="508"/>
    <line x1="502" y1="305" x2="508" y2="305"/>
    <line x1="405" y1="2" x2="405" y2="8"/>
    <line x1="2" y1="405" x2="8" y2="405"/>
    <line x1="405" y1="502" x2="405" y2="508"/>
    <line x1="502" y1="405" x2="508" y2="405"/>
  </g>
  <g stroke="gray" stroke-width="1" stroke-dasharray="5,5">
    <line x1="105" y1="5" x2="105" y2="505"/>
    <line x1="5" y1="105" x2="505" y2="105"/>
    <line x1="205" y1="5" x2="205" y2="505"/>
    <line x1="5" y1="205" x2="505" y2="205"/>
    <line x1="305" y1="5" x2="305" y2="505"/>
    <line x1="5" y1="305" x2="505" y2="305"/>
    <line x1="405" y1="5" x2="405" y2="505"/>
    <line x1="5" y1="405" x2="505" y2="405"/>
  </g>
</svg>
