<?xml version="1.0" standalone="no"?>
<!DOCTYPE svg PUBLIC "-//W3C//DTD SVG 1.1//EN" 
  "http://www.w3.org/Graphics/SVG/1.1/DTD/svg11.dtd">
<svg width="510" height="510" version="1.1" id="toplevel"
    xmlns="http://www.w3.org/2000/svg"
    xmlns:xlink="http://www.w3.org/1999/xlink">
  <polygon points="222,388 269,342 318,354 337,349 347,353 351,345 390,334 383,281 435,175 360,122 75,295 146,312"
           fill="bisque"/>
  <g stroke="chocolate" stroke-width="1">
    <line x1="222" y1="388" x2="435" y2="175"/>
    <circle cx="222" cy="388" r="2"/>
    <circle cx="435" cy="175" r="2"/>
  </g>
  <g stroke="chocolate" stroke-width="1">
    <line x1="318" y1="354" x2="390" y2="334"/>
    <circle cx="318" cy="354" r="2"/>
    <circle cx="390" cy="334" r="2"/>
  </g>
  <g stroke="chocolate" stroke-width="1">
    <line x1="347" y1="353" x2="435" y2="175"/>
    <circle cx="347" cy="353" r="2"/>
    <circle cx="435" cy="175" r="2"/>
  </g>
  <g stroke="chocolate" stroke-width="1">
    <line x1="118" y1="305" x2="143" y2="279"/>
    <circle cx="118" cy="305" r="2"/>
    <circle cx="143" cy="279" r="2"/>
  </g>
  <g stroke="chocolate" stroke-width="1">
    <line x1="75" y1="295" x2="360" y2="122"/>
    <circle cx="75" cy="295" r="2"/>
    <circle cx="360" cy="122" r="2"/>
  </g>
  <g stroke="chocolate" stroke-width="1">
    <line x1="249" y1="337" x2="390" y2="334"/>
    <circle cx="249" cy="337" r="2"/>
    <circle cx="390" cy="334" r="2"/>
  </g>
  <g stroke="chocolate" stroke-width="1">
    <line x1="142" y1="311" x2="182" y2="230"/>
    <circle cx="142" cy="311" r="2"/>
    <circle cx="182" cy="230" r="2"/>
  </g>
  <g stroke="chocolate" stroke-width="1">
    <line x1="325" y1="285" x2="360" y2="122"/>
    <circle cx="325" cy="285" r="2"/>
    <circle cx="360" cy="122" r="2"/>
  </g>
  <g stroke="chocolate" stroke-width="1">
    <line x1="137" y1="310" x2="154" y2="247"/>
    <circle cx="137" cy="310" r="2"/>
    <circle cx="154" cy="247" r="2"/>
  </g>
  <g stroke="chocolate" stroke-width="1">
    <line x1="318" y1="354" x2="75" y2="295"/>
    <circle cx="318" cy="354" r="2"/>
    <circle cx="75" cy="295" r="2"/>
  </g>
  <g stroke="chocolate" stroke-width="1">
    <line x1="137" y1="310" x2="143" y2="279"/>
    <circle cx="137" cy="310" r="2"/>
    <circle cx="143" cy="279" r="2"/>
  </g>
  <g stroke="chocolate" stroke-width="1">
    <line x1="325" y1="285" x2="154" y2="247"/>
    <circle cx="325" cy="285" r="2"/>
    <circle cx="154" cy="247" r="2"/>
  </g>
  <g stroke="chocolate" stroke-width="1">
    <line x1="142" y1="311" x2="143" y2="253"/>
    <circle cx="142" cy="311" r="2"/>
    <circle cx="143" cy="253" r="2"/>
  </g>
  <g stroke="chocolate" stroke-width="1">
    <line x1="249" y1="337" x2="143" y2="279"/>
    <circle cx="249" cy="337" r="2"/>
    <circle cx="143" cy="279" r="2"/>
  </g>
  <g stroke="chocolate" stroke-width="1">
    <line x1="347" y1="353" x2="143" y2="253"/>
    <circle cx="347" cy="353" r="2"/>
    <circle cx="143" cy="253" r="2"/>
  </g>
  <g stroke="chocolate" stroke-width="1">
    <line x1="118" y1="305" x2="108" y2="275"/>
    <circle cx="118" cy="305" r="2"/>
    <circle cx="108" cy="275" r="2"/>
  </g>
  <g stroke="chocolate" stroke-width="1">
    <line x1="390" y1="334" x2="360" y2="122"/>
    <circle cx="390" cy="334" r="2"/>
    <circle cx="360" cy="122" r="2"/>
  </g>
  <g stroke="chocolate" stroke-width="1">
    <line x1="222" y1="388" x2="108" y2="275"/>
    <circle cx="222" cy="388" r="2"/>
    <circle cx="108" cy="275" r="2"/>
  </g>
  <g stroke="chocolate" stroke-width="1">
    <line x1="318" y1="354" x2="182" y2="230"/>
    <circle cx="318" cy="354" r="2"/>
    <circle cx="182" cy="230" r="2"/>
  </g>
  <g stroke="chocolate" stroke-width="1">
    <line x1="435" y1="175" x2="360" y2="122"/>
    <circle cx="435" cy="175" r="2"/>
    <circle cx="360" cy="122" r="2"/>
  </g>
  <g stroke="black" stroke-width="1">
    <line x1="5" y1="5" x2="505" y2="5"/>
    <line x1="5" y1="5" x2="5" y2="505"/>
    <line x1="505" y1="505" x2="5" y2="505"/>
    <line x1="505" y1="505" x2="505" y2="5"/>
    <line x1="105" y1="2" x2="105" y2="8"/>
    <line x1="2" y1="105" x2="8" y2="105"/>
    <line x1="105" y1="502" x2="105" y2="508"/>
    <line x1="502" y1="105" x2="508" y2="105"/>
    <line x1="205" y1="2" x2="205" y2="8"/>
    <line x1="2" y1="205" x2="8" y2="205"/>
    <line x1="205" y1="502" x2="205" y2="508"/>
    <line x1="502" y1="205" x2="508" y2="205"/>
    <line x1="305" y1="2" x2="305" y2="8"/>
    <line x1="2" y1="305" x2="8" y2="305"/>
    <line x1="305" y1="502" x2="305" y2="508"/>
    <line x1="502" y1="305" x2="508" y2="305"/>
    <line x1="405" y1="2" x2="405" y2="8"/>
    <line x1="2" y1="405" x2="8" y2="405"/>
    <line x1="405" y1="502" x2="405" y2="508"/>
    <line x1="502" y1="405" x2="508" y2="405"/>
  </g>
  <g stroke="gray" stroke-width="1" stroke-dasharray="5,5">
    <line x1="105" y1="5" x2="105" y2="505"/>
    <line x1="5" y1="105" x2="505" y2="105"/>
    <line x1="205" y1="5" x2="205" y2="505"/>
    <line x1="5" y1="205" x2="505" y2="205"/>
    <line x1="305" y1="5" x2="305" y2="505"/>
    <line x1="5" y1="305" x2="505" y2="305"/>
    <line x1="405" y1="5" x2="405" y2="505"/>
    <line x1="5" y1="405" x2="505" y2="405"/>
  </g>
</svg>
