<?xml version="1.0" standalone="no"?>
<!DOCTYPE svg PUBLIC "-//W3C//DTD SVG 1.1//EN" 
  "http://www.w3.org/Graphics/SVG/1.1/DTD/svg11.dtd">
<svg width="510" height="510" version="1.1" id="toplevel"
    xmlns="http://www.w3.org/2000/svg"
    xmlns:xlink="http://www.w3.org/1999/xlink">
  <polygon points="235,380 256,379 278,379 277,379 351,378 401,252 360,212 148,215 109,255 162,380 235,380"
           fill="bisque"/>
  <polygon points="256,358 219,321 238,302 255,319 273,302 292,320"
           fill="bisque"/>
  <g stroke="chocolate" stroke-width="1">
    <line x1="351" y1="378" x2="401" y2="252"/>
    <circle cx="351" cy="378" r="2"/>
    <circle cx="401" cy="252" r="2"/>
  </g>
  <g stroke="chocolate" stroke-width="1">
    <line x1="235" y1="380" x2="379" y2="230"/>
    <circle cx="235" cy="380" r="2"/>
    <circle cx="379" cy="230" r="2"/>
  </g>
  <g stroke="chocolate" stroke-width="1">
    <line x1="326" y1="283" x2="379" y2="230"/>
    <circle cx="326" cy="283" r="2"/>
    <circle cx="379" cy="230" r="2"/>
  </g>
  <g stroke="chocolate" stroke-width="1">
    <line x1="255" y1="319" x2="360" y2="212"/>
    <circle cx="255" cy="319" r="2"/>
    <circle cx="360" cy="212" r="2"/>
  </g>
  <g stroke="chocolate" stroke-width="1">
    <line x1="162" y1="380" x2="325" y2="213"/>
    <circle cx="162" cy="380" r="2"/>
    <circle cx="325" cy="213" r="2"/>
  </g>
  <g stroke="chocolate" stroke-width="1">
    <line x1="166" y1="232" x2="183" y2="214"/>
    <circle cx="166" cy="232" r="2"/>
    <circle cx="183" cy="214" r="2"/>
  </g>
  <g stroke="chocolate" stroke-width="1">
    <line x1="109" y1="255" x2="148" y2="215"/>
    <circle cx="109" cy="255" r="2"/>
    <circle cx="148" cy="215" r="2"/>
  </g>
  <g stroke="chocolate" stroke-width="1">
    <line x1="326" y1="283" x2="401" y2="252"/>
    <circle cx="326" cy="283" r="2"/>
    <circle cx="401" cy="252" r="2"/>
  </g>
  <g stroke="chocolate" stroke-width="1">
    <line x1="162" y1="380" x2="109" y2="255"/>
    <circle cx="162" cy="380" r="2"/>
    <circle cx="109" cy="255" r="2"/>
  </g>
  <g stroke="chocolate" stroke-width="1">
    <line x1="235" y1="380" x2="351" y2="378"/>
    <circle cx="235" cy="380" r="2"/>
    <circle cx="351" cy="378" r="2"/>
  </g>
  <g stroke="chocolate" stroke-width="1">
    <line x1="162" y1="380" x2="278" y2="379"/>
    <circle cx="162" cy="380" r="2"/>
    <circle cx="278" cy="379" r="2"/>
  </g>
  <g stroke="chocolate" stroke-width="1">
    <line x1="278" y1="379" x2="130" y2="233"/>
    <circle cx="278" cy="379" r="2"/>
    <circle cx="130" cy="233" r="2"/>
  </g>
  <g stroke="chocolate" stroke-width="1">
    <line x1="184" y1="285" x2="130" y2="233"/>
    <circle cx="184" cy="285" r="2"/>
    <circle cx="130" cy="233" r="2"/>
  </g>
  <g stroke="chocolate" stroke-width="1">
    <line x1="184" y1="285" x2="326" y2="283"/>
    <circle cx="184" cy="285" r="2"/>
    <circle cx="326" cy="283" r="2"/>
  </g>
  <g stroke="chocolate" stroke-width="1">
    <line x1="255" y1="319" x2="148" y2="215"/>
    <circle cx="255" cy="319" r="2"/>
    <circle cx="148" cy="215" r="2"/>
  </g>
  <g stroke="chocolate" stroke-width="1">
    <line x1="351" y1="378" x2="183" y2="214"/>
    <circle cx="351" cy="378" r="2"/>
    <circle cx="183" cy="214" r="2"/>
  </g>
  <g stroke="chocolate" stroke-width="1">
    <line x1="184" y1="285" x2="109" y2="255"/>
    <circle cx="184" cy="285" r="2"/>
    <circle cx="109" cy="255" r="2"/>
  </g>
  <g stroke="chocolate" stroke-width="1">
    <line x1="148" y1="215" x2="360" y2="212"/>
    <circle cx="148" cy="215" r="2"/>
    <circle cx="360" cy="212" r="2"/>
  </g>
  <g stroke="chocolate" stroke-width="1">
    <line x1="343" y1="230" x2="325" y2="213"/>
    <circle cx="343" cy="230" r="2"/>
    <circle cx="325" cy="213" r="2"/>
  </g>
  <g stroke="chocolate" stroke-width="1">
    <line x1="401" y1="252" x2="360" y2="212"/>
    <circle cx="401" cy="252" r="2"/>
    <circle cx="360" cy="212" r="2"/>
  </g>
  <g stroke="black" stroke-width="1">
    <line x1="5" y1="5" x2="505" y2="5"/>
    <line x1="5" y1="5" x2="5" y2="505"/>
    <line x1="505" y1="505" x2="5" y2="505"/>
    <line x1="505" y1="505" x2="505" y2="5"/>
    <line x1="105" y1="2" x2="105" y2="8"/>
    <line x1="2" y1="105" x2="8" y2="105"/>
    <line x1="105" y1="502" x2="105" y2="508"/>
    <line x1="502" y1="105" x2="508" y2="105"/>
    <line x1="205" y1="2" x2="205" y2="8"/>
    <line x1="2" y1="205" x2="8" y2="205"/>
    <line x1="205" y1="502" x2="205" y2="508"/>
    <line x1="502" y1="205" x2="508" y2="205"/>
    <line x1="305" y1="2" x2="305" y2="8"/>
    <line x1="2" y1="305" x2="8" y2="305"/>
    <line x1="305" y1="502" x2="305" y2="508"/>
    <line x1="502" y1="305" x2="508" y2="305"/>
    <line x1="405" y1="2" x2="405" y2="8"/>
    <line x1="2" y1="405" x2="8" y2="405"/>
    <line x1="405" y1="502" x2="405" y2="508"/>
    <line x1="502" y1="405" x2="508" y2="405"/>
  </g>
  <g stroke="gray" stroke-width="1" stroke-dasharray="5,5">
    <line x1="105" y1="5" x2="105" y2="505"/>
    <line x1="5" y1="105" x2="505" y2="105"/>
    <line x1="205" y1="5" x2="205" y2="505"/>
    <line x1="5" y1="205" x2="505" y2="205"/>
    <line x1="305" y1="5" x2="305" y2="505"/>
    <line x1="5" y1="305" x2="505" y2="305"/>
    <line x1="405" y1="5" x2="405" y2="505"/>
    <line x1="5" y1="405" x2="505" y2="405"/>
  </g>
</svg>
