<?xml version="1.0" standalone="no"?>
<!DOCTYPE svg PUBLIC "-//W3C//DTD SVG 1.1//EN" 
  "http://www.w3.org/Graphics/SVG/1.1/DTD/svg11.dtd">
<svg width="510" height="510" version="1.1" id="toplevel"
    xmlns="http://www.w3.org/2000/svg"
    xmlns:xlink="http://www.w3.org/1999/xlink">
  <polygon points="5,366 505,366 505,144 5,144" fill="bisque"/>
  <g stroke="chocolate" stroke-width="1">
    <line x1="5" y1="366" x2="505" y2="366"/>
    <circle cx="5" cy="366" r="2"/>
    <circle cx="505" cy="366" r="2"/>
  </g>
  <g stroke="chocolate" stroke-width="1">
    <line x1="5" y1="325" x2="505" y2="325"/>
    <circle cx="5" cy="325" r="2"/>
    <circle cx="505" cy="325" r="2"/>
  </g>
  <g stroke="chocolate" stroke-width="1">
    <line x1="5" y1="321" x2="505" y2="321"/>
    <circle cx="5" cy="321" r="2"/>
    <circle cx="505" cy="321" r="2"/>
  </g>
  <g stroke="chocolate" stroke-width="1">
    <line x1="5" y1="282" x2="505" y2="282"/>
    <circle cx="5" cy="282" r="2"/>
    <circle cx="505" cy="282" r="2"/>
  </g>
  <g stroke="chocolate" stroke-width="1">
    <line x1="5" y1="277" x2="505" y2="277"/>
    <circle cx="5" cy="277" r="2"/>
    <circle cx="505" cy="277" r="2"/>
  </g>
  <g stroke="chocolate" stroke-width="1">
    <line x1="5" y1="274" x2="505" y2="274"/>
    <circle cx="5" cy="274" r="2"/>
    <circle cx="505" cy="274" r="2"/>
  </g>
  <g stroke="chocolate" stroke-width="1">
    <line x1="5" y1="272" x2="505" y2="272"/>
    <circle cx="5" cy="272" r="2"/>
    <circle cx="505" cy="272" r="2"/>
  </g>
  <g stroke="chocolate" stroke-width="1">
    <line x1="5" y1="269" x2="505" y2="269"/>
    <circle cx="5" cy="269" r="2"/>
    <circle cx="505" cy="269" r="2"/>
  </g>
  <g stroke="chocolate" stroke-width="1">
    <line x1="5" y1="268" x2="505" y2="268"/>
    <circle cx="5" cy="268" r="2"/>
    <circle cx="505" cy="268" r="2"/>
  </g>
  <g stroke="chocolate" stroke-width="1">
    <line x1="5" y1="258" x2="505" y2="258"/>
    <circle cx="5" cy="258" r="2"/>
    <circle cx="505" cy="258" r="2"/>
  </g>
  <g stroke="chocolate" stroke-width="1">
    <line x1="5" y1="245" x2="505" y2="245"/>
    <circle cx="5" cy="245" r="2"/>
    <circle cx="505" cy="245" r="2"/>
  </g>
  <g stroke="chocolate" stroke-width="1">
    <line x1="5" y1="187" x2="505" y2="187"/>
    <circle cx="5" cy="187" r="2"/>
    <circle cx="505" cy="187" r="2"/>
  </g>
  <g stroke="chocolate" stroke-width="1">
    <line x1="5" y1="168" x2="505" y2="168"/>
    <circle cx="5" cy="168" r="2"/>
    <circle cx="505" cy="168" r="2"/>
  </g>
  <g stroke="chocolate" stroke-width="1">
    <line x1="5" y1="366" x2="5" y2="144"/>
    <circle cx="5" cy="366" r="2"/>
    <circle cx="5" cy="144" r="2"/>
  </g>
  <g stroke="chocolate" stroke-width="1">
    <line x1="505" y1="366" x2="505" y2="144"/>
    <circle cx="505" cy="366" r="2"/>
    <circle cx="505" cy="144" r="2"/>
  </g>
  <g stroke="chocolate" stroke-width="1">
    <line x1="5" y1="155" x2="505" y2="155"/>
    <circle cx="5" cy="155" r="2"/>
    <circle cx="505" cy="155" r="2"/>
  </g>
  <g stroke="chocolate" stroke-width="1">
    <line x1="5" y1="144" x2="505" y2="144"/>
    <circle cx="5" cy="144" r="2"/>
    <circle cx="505" cy="144" r="2"/>
  </g>
  <g stroke="black" stroke-width="1">
    <line x1="5" y1="5" x2="505" y2="5"/>
    <line x1="5" y1="5" x2="5" y2="505"/>
    <line x1="505" y1="505" x2="5" y2="505"/>
    <line x1="505" y1="505" x2="505" y2="5"/>
    <line x1="105" y1="2" x2="105" y2="8"/>
    <line x1="2" y1="105" x2="8" y2="105"/>
    <line x1="105" y1="502" x2="105" y2="508"/>
    <line x1="502" y1="105" x2="508" y2="105"/>
    <line x1="205" y1="2" x2="205" y2="8"/>
    <line x1="2" y1="205" x2="8" y2="205"/>
    <line x1="205" y1="502" x2="205" y2="508"/>
    <line x1="502" y1="205" x2="508" y2="205"/>
    <line x1="305" y1="2" x2="305" y2="8"/>
    <line x1="2" y1="305" x2="8" y2="305"/>
    <line x1="305" y1="502" x2="305" y2="508"/>
    <line x1="502" y1="305" x2="508" y2="305"/>
    <line x1="405" y1="2" x2="405" y2="8"/>
    <line x1="2" y1="405" x2="8" y2="405"/>
    <line x1="405" y1="502" x2="405" y2="508"/>
    <line x1="502" y1="405" x2="508" y2="405"/>
  </g>
  <g stroke="gray" stroke-width="1" stroke-dasharray="5,5">
    <line x1="105" y1="5" x2="105" y2="505"/>
    <line x1="5" y1="105" x2="505" y2="105"/>
    <line x1="205" y1="5" x2="205" y2="505"/>
    <line x1="5" y1="205" x2="505" y2="205"/>
    <line x1="305" y1="5" x2="305" y2="505"/>
    <line x1="5" y1="305" x2="505" y2="305"/>
    <line x1="405" y1="5" x2="405" y2="505"/>
    <line x1="5" y1="405" x2="505" y2="405"/>
  </g>
</svg>
