<?xml version="1.0" standalone="no"?>
<!DOCTYPE svg PUBLIC "-//W3C//DTD SVG 1.1//EN" 
  "http://www.w3.org/Graphics/SVG/1.1/DTD/svg11.dtd">
<svg width="510" height="510" version="1.1" id="toplevel"
    xmlns="http://www.w3.org/2000/svg"
    xmlns:xlink="http://www.w3.org/1999/xlink">
  <polygon points="5,366 505,366 505,144 5,144" fill="bisque"/>
  <g stroke="chocolate" stroke-width="1">
    <line x1="5" y1="366" x2="505" y2="366"/>
    <circle cx="5" cy="366" r="2"/>
    <circle cx="505" cy="366" r="2"/>
  </g>
  <g stroke="chocolate" stroke-width="1">
    <line x1="5" y1="366" x2="505" y2="366"/>
    <circle cx="5" cy="366" r="2"/>
    <circle cx="505" cy="366" r="2"/>
  </g>
  <g stroke="chocolate" stroke-width="1">
    <line x1="5" y1="360" x2="505" y2="360"/>
    <circle cx="5" cy="360" r="2"/>
    <circle cx="505" cy="360" r="2"/>
  </g>
  <g stroke="chocolate" stroke-width="1">
    <line x1="5" y1="358" x2="505" y2="358"/>
    <circle cx="5" cy="358" r="2"/>
    <circle cx="505" cy="358" r="2"/>
  </g>
  <g stroke="chocolate" stroke-width="1">
    <line x1="5" y1="366" x2="5" y2="144"/>
    <circle cx="5" cy="366" r="2"/>
    <circle cx="5" cy="144" r="2"/>
  </g>
  <g stroke="chocolate" stroke-width="1">
    <line x1="505" y1="366" x2="505" y2="144"/>
    <circle cx="505" cy="366" r="2"/>
    <circle cx="505" cy="144" r="2"/>
  </g>
  <g stroke="chocolate" stroke-width="1">
    <line x1="5" y1="347" x2="505" y2="347"/>
    <circle cx="5" cy="347" r="2"/>
    <circle cx="505" cy="347" r="2"/>
  </g>
  <g stroke="chocolate" stroke-width="1">
    <line x1="5" y1="252" x2="505" y2="252"/>
    <circle cx="5" cy="252" r="2"/>
    <circle cx="505" cy="252" r="2"/>
  </g>
  <g stroke="chocolate" stroke-width="1">
    <line x1="5" y1="229" x2="505" y2="229"/>
    <circle cx="5" cy="229" r="2"/>
    <circle cx="505" cy="229" r="2"/>
  </g>
  <g stroke="chocolate" stroke-width="1">
    <line x1="5" y1="228" x2="505" y2="228"/>
    <circle cx="5" cy="228" r="2"/>
    <circle cx="505" cy="228" r="2"/>
  </g>
  <g stroke="chocolate" stroke-width="1">
    <line x1="5" y1="218" x2="505" y2="218"/>
    <circle cx="5" cy="218" r="2"/>
    <circle cx="505" cy="218" r="2"/>
  </g>
  <g stroke="chocolate" stroke-width="1">
    <line x1="5" y1="215" x2="505" y2="215"/>
    <circle cx="5" cy="215" r="2"/>
    <circle cx="505" cy="215" r="2"/>
  </g>
  <g stroke="chocolate" stroke-width="1">
    <line x1="5" y1="203" x2="505" y2="203"/>
    <circle cx="5" cy="203" r="2"/>
    <circle cx="505" cy="203" r="2"/>
  </g>
  <g stroke="chocolate" stroke-width="1">
    <line x1="5" y1="191" x2="505" y2="191"/>
    <circle cx="5" cy="191" r="2"/>
    <circle cx="505" cy="191" r="2"/>
  </g>
  <g stroke="chocolate" stroke-width="1">
    <line x1="5" y1="188" x2="505" y2="188"/>
    <circle cx="5" cy="188" r="2"/>
    <circle cx="505" cy="188" r="2"/>
  </g>
  <g stroke="chocolate" stroke-width="1">
    <line x1="5" y1="172" x2="505" y2="172"/>
    <circle cx="5" cy="172" r="2"/>
    <circle cx="505" cy="172" r="2"/>
  </g>
  <g stroke="chocolate" stroke-width="1">
    <line x1="5" y1="144" x2="505" y2="144"/>
    <circle cx="5" cy="144" r="2"/>
    <circle cx="505" cy="144" r="2"/>
  </g>
  <g stroke="black" stroke-width="1">
    <line x1="5" y1="5" x2="505" y2="5"/>
    <line x1="5" y1="5" x2="5" y2="505"/>
    <line x1="505" y1="505" x2="5" y2="505"/>
    <line x1="505" y1="505" x2="505" y2="5"/>
    <line x1="105" y1="2" x2="105" y2="8"/>
    <line x1="2" y1="105" x2="8" y2="105"/>
    <line x1="105" y1="502" x2="105" y2="508"/>
    <line x1="502" y1="105" x2="508" y2="105"/>
    <line x1="205" y1="2" x2="205" y2="8"/>
    <line x1="2" y1="205" x2="8" y2="205"/>
    <line x1="205" y1="502" x2="205" y2="508"/>
    <line x1="502" y1="205" x2="508" y2="205"/>
    <line x1="305" y1="2" x2="305" y2="8"/>
    <line x1="2" y1="305" x2="8" y2="305"/>
    <line x1="305" y1="502" x2="305" y2="508"/>
    <line x1="502" y1="305" x2="508" y2="305"/>
    <line x1="405" y1="2" x2="405" y2="8"/>
    <line x1="2" y1="405" x2="8" y2="405"/>
    <line x1="405" y1="502" x2="405" y2="508"/>
    <line x1="502" y1="405" x2="508" y2="405"/>
  </g>
  <g stroke="gray" stroke-width="1" stroke-dasharray="5,5">
    <line x1="105" y1="5" x2="105" y2="505"/>
    <line x1="5" y1="105" x2="505" y2="105"/>
    <line x1="205" y1="5" x2="205" y2="505"/>
    <line x1="5" y1="205" x2="505" y2="205"/>
    <line x1="305" y1="5" x2="305" y2="505"/>
    <line x1="5" y1="305" x2="505" y2="305"/>
    <line x1="405" y1="5" x2="405" y2="505"/>
    <line x1="5" y1="405" x2="505" y2="405"/>
  </g>
</svg>
