<?xml version="1.0" standalone="no"?>
<!DOCTYPE svg PUBLIC "-//W3C//DTD SVG 1.1//EN" 
  "http://www.w3.org/Graphics/SVG/1.1/DTD/svg11.dtd">
<svg width="510" height="510" version="1.1" id="toplevel"
    xmlns="http://www.w3.org/2000/svg"
    xmlns:xlink="http://www.w3.org/1999/xlink">
  <polygon points="5,347 505,347 505,163 5,163" fill="bisque"/>
  <g stroke="chocolate" stroke-width="1">
    <line x1="5" y1="347" x2="505" y2="347"/>
    <circle cx="5" cy="347" r="2"/>
    <circle cx="505" cy="347" r="2"/>
  </g>
  <g stroke="chocolate" stroke-width="1">
    <line x1="5" y1="306" x2="505" y2="306"/>
    <circle cx="5" cy="306" r="2"/>
    <circle cx="505" cy="306" r="2"/>
  </g>
  <g stroke="chocolate" stroke-width="1">
    <line x1="5" y1="347" x2="5" y2="163"/>
    <circle cx="5" cy="347" r="2"/>
    <circle cx="5" cy="163" r="2"/>
  </g>
  <g stroke="chocolate" stroke-width="1">
    <line x1="505" y1="347" x2="505" y2="163"/>
    <circle cx="505" cy="347" r="2"/>
    <circle cx="505" cy="163" r="2"/>
  </g>
  <g stroke="chocolate" stroke-width="1">
    <line x1="5" y1="299" x2="505" y2="299"/>
    <circle cx="5" cy="299" r="2"/>
    <circle cx="505" cy="299" r="2"/>
  </g>
  <g stroke="chocolate" stroke-width="1">
    <line x1="5" y1="277" x2="505" y2="277"/>
    <circle cx="5" cy="277" r="2"/>
    <circle cx="505" cy="277" r="2"/>
  </g>
  <g stroke="chocolate" stroke-width="1">
    <line x1="5" y1="246" x2="505" y2="246"/>
    <circle cx="5" cy="246" r="2"/>
    <circle cx="505" cy="246" r="2"/>
  </g>
  <g stroke="chocolate" stroke-width="1">
    <line x1="5" y1="177" x2="505" y2="177"/>
    <circle cx="5" cy="177" r="2"/>
    <circle cx="505" cy="177" r="2"/>
  </g>
  <g stroke="chocolate" stroke-width="1">
    <line x1="5" y1="168" x2="505" y2="168"/>
    <circle cx="5" cy="168" r="2"/>
    <circle cx="505" cy="168" r="2"/>
  </g>
  <g stroke="chocolate" stroke-width="1">
    <line x1="5" y1="164" x2="505" y2="164"/>
    <circle cx="5" cy="164" r="2"/>
    <circle cx="505" cy="164" r="2"/>
  </g>
  <g stroke="chocolate" stroke-width="1">
    <line x1="5" y1="163" x2="505" y2="163"/>
    <circle cx="5" cy="163" r="2"/>
    <circle cx="505" cy="163" r="2"/>
  </g>
  <g stroke="black" stroke-width="1">
    <line x1="5" y1="5" x2="505" y2="5"/>
    <line x1="5" y1="5" x2="5" y2="505"/>
    <line x1="505" y1="505" x2="5" y2="505"/>
    <line x1="505" y1="505" x2="505" y2="5"/>
    <line x1="105" y1="2" x2="105" y2="8"/>
    <line x1="2" y1="105" x2="8" y2="105"/>
    <line x1="105" y1="502" x2="105" y2="508"/>
    <line x1="502" y1="105" x2="508" y2="105"/>
    <line x1="205" y1="2" x2="205" y2="8"/>
    <line x1="2" y1="205" x2="8" y2="205"/>
    <line x1="205" y1="502" x2="205" y2="508"/>
    <line x1="502" y1="205" x2="508" y2="205"/>
    <line x1="305" y1="2" x2="305" y2="8"/>
    <line x1="2" y1="305" x2="8" y2="305"/>
    <line x1="305" y1="502" x2="305" y2="508"/>
    <line x1="502" y1="305" x2="508" y2="305"/>
    <line x1="405" y1="2" x2="405" y2="8"/>
    <line x1="2" y1="405" x2="8" y2="405"/>
    <line x1="405" y1="502" x2="405" y2="508"/>
    <line x1="502" y1="405" x2="508" y2="405"/>
  </g>
  <g stroke="gray" stroke-width="1" stroke-dasharray="5,5">
    <line x1="105" y1="5" x2="105" y2="505"/>
    <line x1="5" y1="105" x2="505" y2="105"/>
    <line x1="205" y1="5" x2="205" y2="505"/>
    <line x1="5" y1="205" x2="505" y2="205"/>
    <line x1="305" y1="5" x2="305" y2="505"/>
    <line x1="5" y1="305" x2="505" y2="305"/>
    <line x1="405" y1="5" x2="405" y2="505"/>
    <line x1="5" y1="405" x2="505" y2="405"/>
  </g>
</svg>
