<?xml version="1.0" standalone="no"?>
<!DOCTYPE svg PUBLIC "-//W3C//DTD SVG 1.1//EN" 
  "http://www.w3.org/Graphics/SVG/1.1/DTD/svg11.dtd">
<svg width="510" height="510" version="1.1" id="toplevel"
    xmlns="http://www.w3.org/2000/svg"
    xmlns:xlink="http://www.w3.org/1999/xlink">
  <polygon points="185,396 258,275 282,314 406,236 340,130 157,114 104,174 132,363"
           fill="bisque"/>
  <polygon points="250,263 231,252 238,244" fill="bisque"/>
  <g stroke="chocolate" stroke-width="1">
    <line x1="185" y1="396" x2="132" y2="363"/>
    <circle cx="185" cy="396" r="2"/>
    <circle cx="132" cy="363" r="2"/>
  </g>
  <g stroke="chocolate" stroke-width="1">
    <line x1="200" y1="370" x2="126" y2="326"/>
    <circle cx="200" cy="370" r="2"/>
    <circle cx="126" cy="326" r="2"/>
  </g>
  <g stroke="chocolate" stroke-width="1">
    <line x1="261" y1="270" x2="104" y2="174"/>
    <circle cx="261" cy="270" r="2"/>
    <circle cx="104" cy="174" r="2"/>
  </g>
  <g stroke="chocolate" stroke-width="1">
    <line x1="282" y1="314" x2="157" y2="114"/>
    <circle cx="282" cy="314" r="2"/>
    <circle cx="157" cy="114" r="2"/>
  </g>
  <g stroke="chocolate" stroke-width="1">
    <line x1="132" y1="363" x2="104" y2="174"/>
    <circle cx="132" cy="363" r="2"/>
    <circle cx="104" cy="174" r="2"/>
  </g>
  <g stroke="chocolate" stroke-width="1">
    <line x1="382" y1="252" x2="304" y2="127"/>
    <circle cx="382" cy="252" r="2"/>
    <circle cx="304" cy="127" r="2"/>
  </g>
  <g stroke="chocolate" stroke-width="1">
    <line x1="406" y1="236" x2="340" y2="130"/>
    <circle cx="406" cy="236" r="2"/>
    <circle cx="340" cy="130" r="2"/>
  </g>
  <g stroke="chocolate" stroke-width="1">
    <line x1="406" y1="236" x2="340" y2="130"/>
    <circle cx="406" cy="236" r="2"/>
    <circle cx="340" cy="130" r="2"/>
  </g>
  <g stroke="chocolate" stroke-width="1">
    <line x1="406" y1="236" x2="406" y2="236"/>
    <circle cx="406" cy="236" r="2"/>
    <circle cx="406" cy="236" r="2"/>
  </g>
  <g stroke="chocolate" stroke-width="1">
    <line x1="282" y1="314" x2="406" y2="236"/>
    <circle cx="282" cy="314" r="2"/>
    <circle cx="406" cy="236" r="2"/>
  </g>
  <g stroke="chocolate" stroke-width="1">
    <line x1="185" y1="396" x2="261" y2="270"/>
    <circle cx="185" cy="396" r="2"/>
    <circle cx="261" cy="270" r="2"/>
  </g>
  <g stroke="chocolate" stroke-width="1">
    <line x1="132" y1="363" x2="340" y2="130"/>
    <circle cx="132" cy="363" r="2"/>
    <circle cx="340" cy="130" r="2"/>
  </g>
  <g stroke="chocolate" stroke-width="1">
    <line x1="340" y1="130" x2="157" y2="114"/>
    <circle cx="340" cy="130" r="2"/>
    <circle cx="157" cy="114" r="2"/>
  </g>
  <g stroke="chocolate" stroke-width="1">
    <line x1="126" y1="326" x2="304" y2="127"/>
    <circle cx="126" cy="326" r="2"/>
    <circle cx="304" cy="127" r="2"/>
  </g>
  <g stroke="chocolate" stroke-width="1">
    <line x1="104" y1="174" x2="157" y2="114"/>
    <circle cx="104" cy="174" r="2"/>
    <circle cx="157" cy="114" r="2"/>
  </g>
  <g stroke="black" stroke-width="1">
    <line x1="5" y1="5" x2="505" y2="5"/>
    <line x1="5" y1="5" x2="5" y2="505"/>
    <line x1="505" y1="505" x2="5" y2="505"/>
    <line x1="505" y1="505" x2="505" y2="5"/>
    <line x1="105" y1="2" x2="105" y2="8"/>
    <line x1="2" y1="105" x2="8" y2="105"/>
    <line x1="105" y1="502" x2="105" y2="508"/>
    <line x1="502" y1="105" x2="508" y2="105"/>
    <line x1="205" y1="2" x2="205" y2="8"/>
    <line x1="2" y1="205" x2="8" y2="205"/>
    <line x1="205" y1="502" x2="205" y2="508"/>
    <line x1="502" y1="205" x2="508" y2="205"/>
    <line x1="305" y1="2" x2="305" y2="8"/>
    <line x1="2" y1="305" x2="8" y2="305"/>
    <line x1="305" y1="502" x2="305" y2="508"/>
    <line x1="502" y1="305" x2="508" y2="305"/>
    <line x1="405" y1="2" x2="405" y2="8"/>
    <line x1="2" y1="405" x2="8" y2="405"/>
    <line x1="405" y1="502" x2="405" y2="508"/>
    <line x1="502" y1="405" x2="508" y2="405"/>
  </g>
  <g stroke="gray" stroke-width="1" stroke-dasharray="5,5">
    <line x1="105" y1="5" x2="105" y2="505"/>
    <line x1="5" y1="105" x2="505" y2="105"/>
    <line x1="205" y1="5" x2="205" y2="505"/>
    <line x1="5" y1="205" x2="505" y2="205"/>
    <line x1="305" y1="5" x2="305" y2="505"/>
    <line x1="5" y1="305" x2="505" y2="305"/>
    <line x1="405" y1="5" x2="405" y2="505"/>
    <line x1="5" y1="405" x2="505" y2="405"/>
  </g>
</svg>
