<?xml version="1.0" standalone="no"?>
<!DOCTYPE svg PUBLIC "-//W3C//DTD SVG 1.1//EN" 
  "http://www.w3.org/Graphics/SVG/1.1/DTD/svg11.dtd">
<svg width="510" height="510" version="1.1" id="toplevel"
    xmlns="http://www.w3.org/2000/svg"
    xmlns:xlink="http://www.w3.org/1999/xlink">
  <polygon points="57,473 57,470 67,470 123,324 249,223 131,77 84,37 19,64 6,470"
           fill="bisque"/>
  <g stroke="chocolate" stroke-width="1">
    <line x1="67" y1="470" x2="190" y2="150"/>
    <circle cx="67" cy="470" r="2"/>
    <circle cx="190" cy="150" r="2"/>
  </g>
  <g stroke="chocolate" stroke-width="1">
    <line x1="57" y1="473" x2="84" y2="37"/>
    <circle cx="57" cy="473" r="2"/>
    <circle cx="84" cy="37" r="2"/>
  </g>
  <g stroke="chocolate" stroke-width="1">
    <line x1="54" y1="380" x2="131" y2="77"/>
    <circle cx="54" cy="380" r="2"/>
    <circle cx="131" cy="77" r="2"/>
  </g>
  <g stroke="chocolate" stroke-width="1">
    <line x1="6" y1="470" x2="19" y2="64"/>
    <circle cx="6" cy="470" r="2"/>
    <circle cx="19" cy="64" r="2"/>
  </g>
  <g stroke="chocolate" stroke-width="1">
    <line x1="67" y1="470" x2="8" y2="417"/>
    <circle cx="67" cy="470" r="2"/>
    <circle cx="8" cy="417" r="2"/>
  </g>
  <g stroke="chocolate" stroke-width="1">
    <line x1="8" y1="417" x2="249" y2="223"/>
    <circle cx="8" cy="417" r="2"/>
    <circle cx="249" cy="223" r="2"/>
  </g>
  <g stroke="chocolate" stroke-width="1">
    <line x1="57" y1="473" x2="6" y2="470"/>
    <circle cx="57" cy="473" r="2"/>
    <circle cx="6" cy="470" r="2"/>
  </g>
  <g stroke="chocolate" stroke-width="1">
    <line x1="6" y1="470" x2="67" y2="470"/>
    <circle cx="6" cy="470" r="2"/>
    <circle cx="67" cy="470" r="2"/>
  </g>
  <g stroke="chocolate" stroke-width="1">
    <line x1="114" y1="348" x2="14" y2="215"/>
    <circle cx="114" cy="348" r="2"/>
    <circle cx="14" cy="215" r="2"/>
  </g>
  <g stroke="chocolate" stroke-width="1">
    <line x1="14" y1="215" x2="131" y2="77"/>
    <circle cx="14" cy="215" r="2"/>
    <circle cx="131" cy="77" r="2"/>
  </g>
  <g stroke="chocolate" stroke-width="1">
    <line x1="54" y1="380" x2="9" y2="368"/>
    <circle cx="54" cy="380" r="2"/>
    <circle cx="9" cy="368" r="2"/>
  </g>
  <g stroke="chocolate" stroke-width="1">
    <line x1="9" y1="368" x2="114" y2="348"/>
    <circle cx="9" cy="368" r="2"/>
    <circle cx="114" cy="348" r="2"/>
  </g>
  <g stroke="chocolate" stroke-width="1">
    <line x1="249" y1="223" x2="131" y2="77"/>
    <circle cx="249" cy="223" r="2"/>
    <circle cx="131" cy="77" r="2"/>
  </g>
  <g stroke="chocolate" stroke-width="1">
    <line x1="131" y1="77" x2="84" y2="37"/>
    <circle cx="131" cy="77" r="2"/>
    <circle cx="84" cy="37" r="2"/>
  </g>
  <g stroke="chocolate" stroke-width="1">
    <line x1="190" y1="150" x2="19" y2="64"/>
    <circle cx="190" cy="150" r="2"/>
    <circle cx="19" cy="64" r="2"/>
  </g>
  <g stroke="chocolate" stroke-width="1">
    <line x1="19" y1="64" x2="84" y2="37"/>
    <circle cx="19" cy="64" r="2"/>
    <circle cx="84" cy="37" r="2"/>
  </g>
  <g stroke="chocolate" stroke-width="1">
    <line x1="190" y1="150" x2="17" y2="102"/>
    <circle cx="190" cy="150" r="2"/>
    <circle cx="17" cy="102" r="2"/>
  </g>
  <g stroke="chocolate" stroke-width="1">
    <line x1="17" y1="102" x2="131" y2="77"/>
    <circle cx="17" cy="102" r="2"/>
    <circle cx="131" cy="77" r="2"/>
  </g>
  <g stroke="black" stroke-width="1">
    <line x1="5" y1="5" x2="505" y2="5"/>
    <line x1="5" y1="5" x2="5" y2="505"/>
    <line x1="505" y1="505" x2="5" y2="505"/>
    <line x1="505" y1="505" x2="505" y2="5"/>
    <line x1="105" y1="2" x2="105" y2="8"/>
    <line x1="2" y1="105" x2="8" y2="105"/>
    <line x1="105" y1="502" x2="105" y2="508"/>
    <line x1="502" y1="105" x2="508" y2="105"/>
    <line x1="205" y1="2" x2="205" y2="8"/>
    <line x1="2" y1="205" x2="8" y2="205"/>
    <line x1="205" y1="502" x2="205" y2="508"/>
    <line x1="502" y1="205" x2="508" y2="205"/>
    <line x1="305" y1="2" x2="305" y2="8"/>
    <line x1="2" y1="305" x2="8" y2="305"/>
    <line x1="305" y1="502" x2="305" y2="508"/>
    <line x1="502" y1="305" x2="508" y2="305"/>
    <line x1="405" y1="2" x2="405" y2="8"/>
    <line x1="2" y1="405" x2="8" y2="405"/>
    <line x1="405" y1="502" x2="405" y2="508"/>
    <line x1="502" y1="405" x2="508" y2="405"/>
  </g>
  <g stroke="gray" stroke-width="1" stroke-dasharray="5,5">
    <line x1="105" y1="5" x2="105" y2="505"/>
    <line x1="5" y1="105" x2="505" y2="105"/>
    <line x1="205" y1="5" x2="205" y2="505"/>
    <line x1="5" y1="205" x2="505" y2="205"/>
    <line x1="305" y1="5" x2="305" y2="505"/>
    <line x1="5" y1="305" x2="505" y2="305"/>
    <line x1="405" y1="5" x2="405" y2="505"/>
    <line x1="5" y1="405" x2="505" y2="405"/>
  </g>
</svg>
