<?xml version="1.0" standalone="no"?>
<!DOCTYPE svg PUBLIC "-//W3C//DTD SVG 1.1//EN" 
  "http://www.w3.org/Graphics/SVG/1.1/DTD/svg11.dtd">
<svg width="510" height="510" version="1.1" id="toplevel"
    xmlns="http://www.w3.org/2000/svg"
    xmlns:xlink="http://www.w3.org/1999/xlink">
  <polygon points="324,375 365,344 371,342 370,340 424,300 300,135 86,208 87,211"
           fill="bisque"/>
  <g stroke="chocolate" stroke-width="1">
    <line x1="324" y1="375" x2="350" y2="283"/>
    <circle cx="324" cy="375" r="2"/>
    <circle cx="350" cy="283" r="2"/>
  </g>
  <g stroke="chocolate" stroke-width="1">
    <line x1="324" y1="375" x2="424" y2="300"/>
    <circle cx="324" cy="375" r="2"/>
    <circle cx="424" cy="300" r="2"/>
  </g>
  <g stroke="chocolate" stroke-width="1">
    <line x1="87" y1="211" x2="86" y2="208"/>
    <circle cx="87" cy="211" r="2"/>
    <circle cx="86" cy="208" r="2"/>
  </g>
  <g stroke="chocolate" stroke-width="1">
    <line x1="180" y1="275" x2="176" y2="179"/>
    <circle cx="180" cy="275" r="2"/>
    <circle cx="176" cy="179" r="2"/>
  </g>
  <g stroke="chocolate" stroke-width="1">
    <line x1="244" y1="320" x2="238" y2="157"/>
    <circle cx="244" cy="320" r="2"/>
    <circle cx="238" cy="157" r="2"/>
  </g>
  <g stroke="chocolate" stroke-width="1">
    <line x1="309" y1="364" x2="300" y2="135"/>
    <circle cx="309" cy="364" r="2"/>
    <circle cx="300" cy="135" r="2"/>
  </g>
  <g stroke="chocolate" stroke-width="1">
    <line x1="309" y1="364" x2="371" y2="342"/>
    <circle cx="309" cy="364" r="2"/>
    <circle cx="371" cy="342" r="2"/>
  </g>
  <g stroke="chocolate" stroke-width="1">
    <line x1="371" y1="342" x2="300" y2="135"/>
    <circle cx="371" cy="342" r="2"/>
    <circle cx="300" cy="135" r="2"/>
  </g>
  <g stroke="chocolate" stroke-width="1">
    <line x1="244" y1="320" x2="350" y2="283"/>
    <circle cx="244" cy="320" r="2"/>
    <circle cx="350" cy="283" r="2"/>
  </g>
  <g stroke="chocolate" stroke-width="1">
    <line x1="180" y1="275" x2="330" y2="224"/>
    <circle cx="180" cy="275" r="2"/>
    <circle cx="330" cy="224" r="2"/>
  </g>
  <g stroke="chocolate" stroke-width="1">
    <line x1="87" y1="211" x2="300" y2="135"/>
    <circle cx="87" cy="211" r="2"/>
    <circle cx="300" cy="135" r="2"/>
  </g>
  <g stroke="chocolate" stroke-width="1">
    <line x1="86" y1="208" x2="300" y2="135"/>
    <circle cx="86" cy="208" r="2"/>
    <circle cx="300" cy="135" r="2"/>
  </g>
  <g stroke="chocolate" stroke-width="1">
    <line x1="322" y1="373" x2="176" y2="179"/>
    <circle cx="322" cy="373" r="2"/>
    <circle cx="176" cy="179" r="2"/>
  </g>
  <g stroke="chocolate" stroke-width="1">
    <line x1="374" y1="338" x2="238" y2="157"/>
    <circle cx="374" cy="338" r="2"/>
    <circle cx="238" cy="157" r="2"/>
  </g>
  <g stroke="chocolate" stroke-width="1">
    <line x1="424" y1="300" x2="300" y2="135"/>
    <circle cx="424" cy="300" r="2"/>
    <circle cx="300" cy="135" r="2"/>
  </g>
  <g stroke="chocolate" stroke-width="1">
    <line x1="325" y1="373" x2="322" y2="373"/>
    <circle cx="325" cy="373" r="2"/>
    <circle cx="322" cy="373" r="2"/>
  </g>
  <g stroke="chocolate" stroke-width="1">
    <line x1="324" y1="375" x2="87" y2="211"/>
    <circle cx="324" cy="375" r="2"/>
    <circle cx="87" cy="211" r="2"/>
  </g>
  <g stroke="chocolate" stroke-width="1">
    <line x1="350" y1="283" x2="86" y2="208"/>
    <circle cx="350" cy="283" r="2"/>
    <circle cx="86" cy="208" r="2"/>
  </g>
  <g stroke="black" stroke-width="1">
    <line x1="5" y1="5" x2="505" y2="5"/>
    <line x1="5" y1="5" x2="5" y2="505"/>
    <line x1="505" y1="505" x2="5" y2="505"/>
    <line x1="505" y1="505" x2="505" y2="5"/>
    <line x1="105" y1="2" x2="105" y2="8"/>
    <line x1="2" y1="105" x2="8" y2="105"/>
    <line x1="105" y1="502" x2="105" y2="508"/>
    <line x1="502" y1="105" x2="508" y2="105"/>
    <line x1="205" y1="2" x2="205" y2="8"/>
    <line x1="2" y1="205" x2="8" y2="205"/>
    <line x1="205" y1="502" x2="205" y2="508"/>
    <line x1="502" y1="205" x2="508" y2="205"/>
    <line x1="305" y1="2" x2="305" y2="8"/>
    <line x1="2" y1="305" x2="8" y2="305"/>
    <line x1="305" y1="502" x2="305" y2="508"/>
    <line x1="502" y1="305" x2="508" y2="305"/>
    <line x1="405" y1="2" x2="405" y2="8"/>
    <line x1="2" y1="405" x2="8" y2="405"/>
    <line x1="405" y1="502" x2="405" y2="508"/>
    <line x1="502" y1="405" x2="508" y2="405"/>
  </g>
  <g stroke="gray" stroke-width="1" stroke-dasharray="5,5">
    <line x1="105" y1="5" x2="105" y2="505"/>
    <line x1="5" y1="105" x2="505" y2="105"/>
    <line x1="205" y1="5" x2="205" y2="505"/>
    <line x1="5" y1="205" x2="505" y2="205"/>
    <line x1="305" y1="5" x2="305" y2="505"/>
    <line x1="5" y1="305" x2="505" y2="305"/>
    <line x1="405" y1="5" x2="405" y2="505"/>
    <line x1="5" y1="405" x2="505" y2="405"/>
  </g>
</svg>
