<?xml version="1.0" standalone="no"?>
<!DOCTYPE svg PUBLIC "-//W3C//DTD SVG 1.1//EN" 
  "http://www.w3.org/Graphics/SVG/1.1/DTD/svg11.dtd">
<svg width="510" height="510" version="1.1" id="toplevel"
    xmlns="http://www.w3.org/2000/svg"
    xmlns:xlink="http://www.w3.org/1999/xlink">
  <polygon points="414,448 335,351 431,272 448,96 351,175 272,79 96,62 175,159 79,238 62,414 159,335 238,431"
           fill="bisque"/>
  <g stroke="chocolate" stroke-width="1">
    <line x1="238" y1="431" x2="431" y2="272"/>
    <circle cx="238" cy="431" r="2"/>
    <circle cx="431" cy="272" r="2"/>
  </g>
  <g stroke="chocolate" stroke-width="1">
    <line x1="62" y1="414" x2="448" y2="96"/>
    <circle cx="62" cy="414" r="2"/>
    <circle cx="448" cy="96" r="2"/>
  </g>
  <g stroke="chocolate" stroke-width="1">
    <line x1="79" y1="238" x2="272" y2="79"/>
    <circle cx="79" cy="238" r="2"/>
    <circle cx="272" cy="79" r="2"/>
  </g>
  <g stroke="chocolate" stroke-width="1">
    <line x1="414" y1="448" x2="238" y2="431"/>
    <circle cx="414" cy="448" r="2"/>
    <circle cx="238" cy="431" r="2"/>
  </g>
  <g stroke="chocolate" stroke-width="1">
    <line x1="431" y1="272" x2="79" y2="238"/>
    <circle cx="431" cy="272" r="2"/>
    <circle cx="79" cy="238" r="2"/>
  </g>
  <g stroke="chocolate" stroke-width="1">
    <line x1="272" y1="79" x2="96" y2="62"/>
    <circle cx="272" cy="79" r="2"/>
    <circle cx="96" cy="62" r="2"/>
  </g>
  <g stroke="chocolate" stroke-width="1">
    <line x1="431" y1="272" x2="448" y2="96"/>
    <circle cx="431" cy="272" r="2"/>
    <circle cx="448" cy="96" r="2"/>
  </g>
  <g stroke="chocolate" stroke-width="1">
    <line x1="238" y1="431" x2="272" y2="79"/>
    <circle cx="238" cy="431" r="2"/>
    <circle cx="272" cy="79" r="2"/>
  </g>
  <g stroke="chocolate" stroke-width="1">
    <line x1="62" y1="414" x2="79" y2="238"/>
    <circle cx="62" cy="414" r="2"/>
    <circle cx="79" cy="238" r="2"/>
  </g>
  <g stroke="chocolate" stroke-width="1">
    <line x1="238" y1="431" x2="79" y2="238"/>
    <circle cx="238" cy="431" r="2"/>
    <circle cx="79" cy="238" r="2"/>
  </g>
  <g stroke="chocolate" stroke-width="1">
    <line x1="414" y1="448" x2="96" y2="62"/>
    <circle cx="414" cy="448" r="2"/>
    <circle cx="96" cy="62" r="2"/>
  </g>
  <g stroke="chocolate" stroke-width="1">
    <line x1="431" y1="272" x2="272" y2="79"/>
    <circle cx="431" cy="272" r="2"/>
    <circle cx="272" cy="79" r="2"/>
  </g>
  <g stroke="black" stroke-width="1">
    <line x1="5" y1="5" x2="505" y2="5"/>
    <line x1="5" y1="5" x2="5" y2="505"/>
    <line x1="505" y1="505" x2="5" y2="505"/>
    <line x1="505" y1="505" x2="505" y2="5"/>
    <line x1="105" y1="2" x2="105" y2="8"/>
    <line x1="2" y1="105" x2="8" y2="105"/>
    <line x1="105" y1="502" x2="105" y2="508"/>
    <line x1="502" y1="105" x2="508" y2="105"/>
    <line x1="205" y1="2" x2="205" y2="8"/>
    <line x1="2" y1="205" x2="8" y2="205"/>
    <line x1="205" y1="502" x2="205" y2="508"/>
    <line x1="502" y1="205" x2="508" y2="205"/>
    <line x1="305" y1="2" x2="305" y2="8"/>
    <line x1="2" y1="305" x2="8" y2="305"/>
    <line x1="305" y1="502" x2="305" y2="508"/>
    <line x1="502" y1="305" x2="508" y2="305"/>
    <line x1="405" y1="2" x2="405" y2="8"/>
    <line x1="2" y1="405" x2="8" y2="405"/>
    <line x1="405" y1="502" x2="405" y2="508"/>
    <line x1="502" y1="405" x2="508" y2="405"/>
  </g>
  <g stroke="gray" stroke-width="1" stroke-dasharray="5,5">
    <line x1="105" y1="5" x2="105" y2="505"/>
    <line x1="5" y1="105" x2="505" y2="105"/>
    <line x1="205" y1="5" x2="205" y2="505"/>
    <line x1="5" y1="205" x2="505" y2="205"/>
    <line x1="305" y1="5" x2="305" y2="505"/>
    <line x1="5" y1="305" x2="505" y2="305"/>
    <line x1="405" y1="5" x2="405" y2="505"/>
    <line x1="5" y1="405" x2="505" y2="405"/>
  </g>
</svg>
