<?xml version="1.0" standalone="no"?>
<!DOCTYPE svg PUBLIC "-//W3C//DTD SVG 1.1//EN" 
  "http://www.w3.org/Graphics/SVG/1.1/DTD/svg11.dtd">
<svg width="510" height="510" version="1.1" id="toplevel"
    xmlns="http://www.w3.org/2000/svg"
    xmlns:xlink="http://www.w3.org/1999/xlink">
  <polygon points="390,466 322,360 428,293 466,120 360,188 293,82 120,44 188,150 82,217 44,390 150,322 217,428"
           fill="bisque"/>
  <g stroke="chocolate" stroke-width="1">
    <line x1="217" y1="428" x2="82" y2="217"/>
    <circle cx="217" cy="428" r="2"/>
    <circle cx="82" cy="217" r="2"/>
  </g>
  <g stroke="chocolate" stroke-width="1">
    <line x1="390" y1="466" x2="120" y2="44"/>
    <circle cx="390" cy="466" r="2"/>
    <circle cx="120" cy="44" r="2"/>
  </g>
  <g stroke="chocolate" stroke-width="1">
    <line x1="428" y1="293" x2="293" y2="82"/>
    <circle cx="428" cy="293" r="2"/>
    <circle cx="293" cy="82" r="2"/>
  </g>
  <g stroke="chocolate" stroke-width="1">
    <line x1="390" y1="466" x2="217" y2="428"/>
    <circle cx="390" cy="466" r="2"/>
    <circle cx="217" cy="428" r="2"/>
  </g>
  <g stroke="chocolate" stroke-width="1">
    <line x1="428" y1="293" x2="82" y2="217"/>
    <circle cx="428" cy="293" r="2"/>
    <circle cx="82" cy="217" r="2"/>
  </g>
  <g stroke="chocolate" stroke-width="1">
    <line x1="293" y1="82" x2="120" y2="44"/>
    <circle cx="293" cy="82" r="2"/>
    <circle cx="120" cy="44" r="2"/>
  </g>
  <g stroke="chocolate" stroke-width="1">
    <line x1="428" y1="293" x2="466" y2="120"/>
    <circle cx="428" cy="293" r="2"/>
    <circle cx="466" cy="120" r="2"/>
  </g>
  <g stroke="chocolate" stroke-width="1">
    <line x1="217" y1="428" x2="293" y2="82"/>
    <circle cx="217" cy="428" r="2"/>
    <circle cx="293" cy="82" r="2"/>
  </g>
  <g stroke="chocolate" stroke-width="1">
    <line x1="44" y1="390" x2="82" y2="217"/>
    <circle cx="44" cy="390" r="2"/>
    <circle cx="82" cy="217" r="2"/>
  </g>
  <g stroke="chocolate" stroke-width="1">
    <line x1="217" y1="428" x2="428" y2="293"/>
    <circle cx="217" cy="428" r="2"/>
    <circle cx="428" cy="293" r="2"/>
  </g>
  <g stroke="chocolate" stroke-width="1">
    <line x1="44" y1="390" x2="466" y2="120"/>
    <circle cx="44" cy="390" r="2"/>
    <circle cx="466" cy="120" r="2"/>
  </g>
  <g stroke="chocolate" stroke-width="1">
    <line x1="82" y1="217" x2="293" y2="82"/>
    <circle cx="82" cy="217" r="2"/>
    <circle cx="293" cy="82" r="2"/>
  </g>
  <g stroke="black" stroke-width="1">
    <line x1="5" y1="5" x2="505" y2="5"/>
    <line x1="5" y1="5" x2="5" y2="505"/>
    <line x1="505" y1="505" x2="5" y2="505"/>
    <line x1="505" y1="505" x2="505" y2="5"/>
    <line x1="105" y1="2" x2="105" y2="8"/>
    <line x1="2" y1="105" x2="8" y2="105"/>
    <line x1="105" y1="502" x2="105" y2="508"/>
    <line x1="502" y1="105" x2="508" y2="105"/>
    <line x1="205" y1="2" x2="205" y2="8"/>
    <line x1="2" y1="205" x2="8" y2="205"/>
    <line x1="205" y1="502" x2="205" y2="508"/>
    <line x1="502" y1="205" x2="508" y2="205"/>
    <line x1="305" y1="2" x2="305" y2="8"/>
    <line x1="2" y1="305" x2="8" y2="305"/>
    <line x1="305" y1="502" x2="305" y2="508"/>
    <line x1="502" y1="305" x2="508" y2="305"/>
    <line x1="405" y1="2" x2="405" y2="8"/>
    <line x1="2" y1="405" x2="8" y2="405"/>
    <line x1="405" y1="502" x2="405" y2="508"/>
    <line x1="502" y1="405" x2="508" y2="405"/>
  </g>
  <g stroke="gray" stroke-width="1" stroke-dasharray="5,5">
    <line x1="105" y1="5" x2="105" y2="505"/>
    <line x1="5" y1="105" x2="505" y2="105"/>
    <line x1="205" y1="5" x2="205" y2="505"/>
    <line x1="5" y1="205" x2="505" y2="205"/>
    <line x1="305" y1="5" x2="305" y2="505"/>
    <line x1="5" y1="305" x2="505" y2="305"/>
    <line x1="405" y1="5" x2="405" y2="505"/>
    <line x1="5" y1="405" x2="505" y2="405"/>
  </g>
</svg>
