<?xml version="1.0" standalone="no"?>
<!DOCTYPE svg PUBLIC "-//W3C//DTD SVG 1.1//EN" 
  "http://www.w3.org/Graphics/SVG/1.1/DTD/svg11.dtd">
<svg width="510" height="510" version="1.1" id="toplevel"
    xmlns="http://www.w3.org/2000/svg"
    xmlns:xlink="http://www.w3.org/1999/xlink">
  <polygon points="333,492 294,374 413,334 492,177 374,216 334,97 177,18 216,136 97,176 18,333 136,294 176,413"
           fill="bisque"/>
  <g stroke="chocolate" stroke-width="1">
    <line x1="176" y1="413" x2="413" y2="334"/>
    <circle cx="176" cy="413" r="2"/>
    <circle cx="413" cy="334" r="2"/>
  </g>
  <g stroke="chocolate" stroke-width="1">
    <line x1="18" y1="333" x2="492" y2="177"/>
    <circle cx="18" cy="333" r="2"/>
    <circle cx="492" cy="177" r="2"/>
  </g>
  <g stroke="chocolate" stroke-width="1">
    <line x1="97" y1="176" x2="334" y2="97"/>
    <circle cx="97" cy="176" r="2"/>
    <circle cx="334" cy="97" r="2"/>
  </g>
  <g stroke="chocolate" stroke-width="1">
    <line x1="413" y1="334" x2="492" y2="177"/>
    <circle cx="413" cy="334" r="2"/>
    <circle cx="492" cy="177" r="2"/>
  </g>
  <g stroke="chocolate" stroke-width="1">
    <line x1="176" y1="413" x2="334" y2="97"/>
    <circle cx="176" cy="413" r="2"/>
    <circle cx="334" cy="97" r="2"/>
  </g>
  <g stroke="chocolate" stroke-width="1">
    <line x1="18" y1="333" x2="97" y2="176"/>
    <circle cx="18" cy="333" r="2"/>
    <circle cx="97" cy="176" r="2"/>
  </g>
  <g stroke="chocolate" stroke-width="1">
    <line x1="333" y1="492" x2="176" y2="413"/>
    <circle cx="333" cy="492" r="2"/>
    <circle cx="176" cy="413" r="2"/>
  </g>
  <g stroke="chocolate" stroke-width="1">
    <line x1="413" y1="334" x2="97" y2="176"/>
    <circle cx="413" cy="334" r="2"/>
    <circle cx="97" cy="176" r="2"/>
  </g>
  <g stroke="chocolate" stroke-width="1">
    <line x1="334" y1="97" x2="177" y2="18"/>
    <circle cx="334" cy="97" r="2"/>
    <circle cx="177" cy="18" r="2"/>
  </g>
  <g stroke="chocolate" stroke-width="1">
    <line x1="176" y1="413" x2="97" y2="176"/>
    <circle cx="176" cy="413" r="2"/>
    <circle cx="97" cy="176" r="2"/>
  </g>
  <g stroke="chocolate" stroke-width="1">
    <line x1="333" y1="492" x2="177" y2="18"/>
    <circle cx="333" cy="492" r="2"/>
    <circle cx="177" cy="18" r="2"/>
  </g>
  <g stroke="chocolate" stroke-width="1">
    <line x1="413" y1="334" x2="334" y2="97"/>
    <circle cx="413" cy="334" r="2"/>
    <circle cx="334" cy="97" r="2"/>
  </g>
  <g stroke="black" stroke-width="1">
    <line x1="5" y1="5" x2="505" y2="5"/>
    <line x1="5" y1="5" x2="5" y2="505"/>
    <line x1="505" y1="505" x2="5" y2="505"/>
    <line x1="505" y1="505" x2="505" y2="5"/>
    <line x1="105" y1="2" x2="105" y2="8"/>
    <line x1="2" y1="105" x2="8" y2="105"/>
    <line x1="105" y1="502" x2="105" y2="508"/>
    <line x1="502" y1="105" x2="508" y2="105"/>
    <line x1="205" y1="2" x2="205" y2="8"/>
    <line x1="2" y1="205" x2="8" y2="205"/>
    <line x1="205" y1="502" x2="205" y2="508"/>
    <line x1="502" y1="205" x2="508" y2="205"/>
    <line x1="305" y1="2" x2="305" y2="8"/>
    <line x1="2" y1="305" x2="8" y2="305"/>
    <line x1="305" y1="502" x2="305" y2="508"/>
    <line x1="502" y1="305" x2="508" y2="305"/>
    <line x1="405" y1="2" x2="405" y2="8"/>
    <line x1="2" y1="405" x2="8" y2="405"/>
    <line x1="405" y1="502" x2="405" y2="508"/>
    <line x1="502" y1="405" x2="508" y2="405"/>
  </g>
  <g stroke="gray" stroke-width="1" stroke-dasharray="5,5">
    <line x1="105" y1="5" x2="105" y2="505"/>
    <line x1="5" y1="105" x2="505" y2="105"/>
    <line x1="205" y1="5" x2="205" y2="505"/>
    <line x1="5" y1="205" x2="505" y2="205"/>
    <line x1="305" y1="5" x2="305" y2="505"/>
    <line x1="5" y1="305" x2="505" y2="305"/>
    <line x1="405" y1="5" x2="405" y2="505"/>
    <line x1="5" y1="405" x2="505" y2="405"/>
  </g>
</svg>
