<?xml version="1.0" standalone="no"?>
<!DOCTYPE svg PUBLIC "-//W3C//DTD SVG 1.1//EN" 
  "http://www.w3.org/Graphics/SVG/1.1/DTD/svg11.dtd">
<svg width="510" height="510" version="1.1" id="toplevel"
    xmlns="http://www.w3.org/2000/svg"
    xmlns:xlink="http://www.w3.org/1999/xlink">
  <polygon points="257,398 307,361 418,398 463,367 428,317 164,112 62,234 61,255 47,274 70,305"
           fill="bisque"/>
  <g stroke="chocolate" stroke-width="1">
    <line x1="307" y1="361" x2="344" y2="251"/>
    <circle cx="307" cy="361" r="2"/>
    <circle cx="344" cy="251" r="2"/>
  </g>
  <g stroke="chocolate" stroke-width="1">
    <line x1="418" y1="398" x2="463" y2="367"/>
    <circle cx="418" cy="398" r="2"/>
    <circle cx="463" cy="367" r="2"/>
  </g>
  <g stroke="chocolate" stroke-width="1">
    <line x1="257" y1="398" x2="307" y2="361"/>
    <circle cx="257" cy="398" r="2"/>
    <circle cx="307" cy="361" r="2"/>
  </g>
  <g stroke="chocolate" stroke-width="1">
    <line x1="61" y1="255" x2="62" y2="234"/>
    <circle cx="61" cy="255" r="2"/>
    <circle cx="62" cy="234" r="2"/>
  </g>
  <g stroke="chocolate" stroke-width="1">
    <line x1="257" y1="398" x2="257" y2="184"/>
    <circle cx="257" cy="398" r="2"/>
    <circle cx="257" cy="184" r="2"/>
  </g>
  <g stroke="chocolate" stroke-width="1">
    <line x1="47" y1="274" x2="164" y2="112"/>
    <circle cx="47" cy="274" r="2"/>
    <circle cx="164" cy="112" r="2"/>
  </g>
  <g stroke="chocolate" stroke-width="1">
    <line x1="70" y1="305" x2="61" y2="255"/>
    <circle cx="70" cy="305" r="2"/>
    <circle cx="61" cy="255" r="2"/>
  </g>
  <g stroke="chocolate" stroke-width="1">
    <line x1="310" y1="273" x2="304" y2="220"/>
    <circle cx="310" cy="273" r="2"/>
    <circle cx="304" cy="220" r="2"/>
  </g>
  <g stroke="chocolate" stroke-width="1">
    <line x1="310" y1="273" x2="344" y2="251"/>
    <circle cx="310" cy="273" r="2"/>
    <circle cx="344" cy="251" r="2"/>
  </g>
  <g stroke="chocolate" stroke-width="1">
    <line x1="62" y1="234" x2="164" y2="112"/>
    <circle cx="62" cy="234" r="2"/>
    <circle cx="164" cy="112" r="2"/>
  </g>
  <g stroke="chocolate" stroke-width="1">
    <line x1="418" y1="398" x2="378" y2="278"/>
    <circle cx="418" cy="398" r="2"/>
    <circle cx="378" cy="278" r="2"/>
  </g>
  <g stroke="chocolate" stroke-width="1">
    <line x1="70" y1="305" x2="47" y2="274"/>
    <circle cx="70" cy="305" r="2"/>
    <circle cx="47" cy="274" r="2"/>
  </g>
  <g stroke="chocolate" stroke-width="1">
    <line x1="310" y1="273" x2="248" y2="177"/>
    <circle cx="310" cy="273" r="2"/>
    <circle cx="248" cy="177" r="2"/>
  </g>
  <g stroke="chocolate" stroke-width="1">
    <line x1="307" y1="361" x2="142" y2="141"/>
    <circle cx="307" cy="361" r="2"/>
    <circle cx="142" cy="141" r="2"/>
  </g>
  <g stroke="chocolate" stroke-width="1">
    <line x1="62" y1="234" x2="257" y2="184"/>
    <circle cx="62" cy="234" r="2"/>
    <circle cx="257" cy="184" r="2"/>
  </g>
  <g stroke="chocolate" stroke-width="1">
    <line x1="61" y1="255" x2="304" y2="220"/>
    <circle cx="61" cy="255" r="2"/>
    <circle cx="304" cy="220" r="2"/>
  </g>
  <g stroke="chocolate" stroke-width="1">
    <line x1="257" y1="398" x2="70" y2="305"/>
    <circle cx="257" cy="398" r="2"/>
    <circle cx="70" cy="305" r="2"/>
  </g>
  <g stroke="chocolate" stroke-width="1">
    <line x1="463" y1="367" x2="428" y2="317"/>
    <circle cx="463" cy="367" r="2"/>
    <circle cx="428" cy="317" r="2"/>
  </g>
  <g stroke="chocolate" stroke-width="1">
    <line x1="418" y1="398" x2="47" y2="274"/>
    <circle cx="418" cy="398" r="2"/>
    <circle cx="47" cy="274" r="2"/>
  </g>
  <g stroke="chocolate" stroke-width="1">
    <line x1="378" y1="278" x2="61" y2="255"/>
    <circle cx="378" cy="278" r="2"/>
    <circle cx="61" cy="255" r="2"/>
  </g>
  <g stroke="chocolate" stroke-width="1">
    <line x1="428" y1="317" x2="310" y2="273"/>
    <circle cx="428" cy="317" r="2"/>
    <circle cx="310" cy="273" r="2"/>
  </g>
  <g stroke="chocolate" stroke-width="1">
    <line x1="428" y1="317" x2="164" y2="112"/>
    <circle cx="428" cy="317" r="2"/>
    <circle cx="164" cy="112" r="2"/>
  </g>
  <g stroke="chocolate" stroke-width="1">
    <line x1="248" y1="177" x2="142" y2="141"/>
    <circle cx="248" cy="177" r="2"/>
    <circle cx="142" cy="141" r="2"/>
  </g>
  <g stroke="black" stroke-width="1">
    <line x1="5" y1="5" x2="505" y2="5"/>
    <line x1="5" y1="5" x2="5" y2="505"/>
    <line x1="505" y1="505" x2="5" y2="505"/>
    <line x1="505" y1="505" x2="505" y2="5"/>
    <line x1="105" y1="2" x2="105" y2="8"/>
    <line x1="2" y1="105" x2="8" y2="105"/>
    <line x1="105" y1="502" x2="105" y2="508"/>
    <line x1="502" y1="105" x2="508" y2="105"/>
    <line x1="205" y1="2" x2="205" y2="8"/>
    <line x1="2" y1="205" x2="8" y2="205"/>
    <line x1="205" y1="502" x2="205" y2="508"/>
    <line x1="502" y1="205" x2="508" y2="205"/>
    <line x1="305" y1="2" x2="305" y2="8"/>
    <line x1="2" y1="305" x2="8" y2="305"/>
    <line x1="305" y1="502" x2="305" y2="508"/>
    <line x1="502" y1="305" x2="508" y2="305"/>
    <line x1="405" y1="2" x2="405" y2="8"/>
    <line x1="2" y1="405" x2="8" y2="405"/>
    <line x1="405" y1="502" x2="405" y2="508"/>
    <line x1="502" y1="405" x2="508" y2="405"/>
  </g>
  <g stroke="gray" stroke-width="1" stroke-dasharray="5,5">
    <line x1="105" y1="5" x2="105" y2="505"/>
    <line x1="5" y1="105" x2="505" y2="105"/>
    <line x1="205" y1="5" x2="205" y2="505"/>
    <line x1="5" y1="205" x2="505" y2="205"/>
    <line x1="305" y1="5" x2="305" y2="505"/>
    <line x1="5" y1="305" x2="505" y2="305"/>
    <line x1="405" y1="5" x2="405" y2="505"/>
    <line x1="5" y1="405" x2="505" y2="405"/>
  </g>
</svg>
