<?xml version="1.0" standalone="no"?>
<!DOCTYPE svg PUBLIC "-//W3C//DTD SVG 1.1//EN" 
  "http://www.w3.org/Graphics/SVG/1.1/DTD/svg11.dtd">
<svg width="510" height="510" version="1.1" id="toplevel"
    xmlns="http://www.w3.org/2000/svg"
    xmlns:xlink="http://www.w3.org/1999/xlink">
  <polygon points="284,447 326,395 415,169 309,70 262,66 262,63 198,68 93,171 205,447 245,416"
           fill="bisque"/>
  <polygon points="205,170 259,119 311,170" fill="bisque"/>
  <g stroke="chocolate" stroke-width="1">
    <line x1="284" y1="447" x2="326" y2="395"/>
    <circle cx="284" cy="447" r="2"/>
    <circle cx="326" cy="395" r="2"/>
  </g>
  <g stroke="chocolate" stroke-width="1">
    <line x1="205" y1="447" x2="351" y2="332"/>
    <circle cx="205" cy="447" r="2"/>
    <circle cx="351" cy="332" r="2"/>
  </g>
  <g stroke="chocolate" stroke-width="1">
    <line x1="326" y1="395" x2="415" y2="169"/>
    <circle cx="326" cy="395" r="2"/>
    <circle cx="415" cy="169" r="2"/>
  </g>
  <g stroke="chocolate" stroke-width="1">
    <line x1="326" y1="395" x2="345" y2="104"/>
    <circle cx="326" cy="395" r="2"/>
    <circle cx="345" cy="104" r="2"/>
  </g>
  <g stroke="chocolate" stroke-width="1">
    <line x1="255" y1="115" x2="260" y2="66"/>
    <circle cx="255" cy="115" r="2"/>
    <circle cx="260" cy="66" r="2"/>
  </g>
  <g stroke="chocolate" stroke-width="1">
    <line x1="167" y1="352" x2="198" y2="68"/>
    <circle cx="167" cy="352" r="2"/>
    <circle cx="198" cy="68" r="2"/>
  </g>
  <g stroke="chocolate" stroke-width="1">
    <line x1="205" y1="447" x2="167" y2="99"/>
    <circle cx="205" cy="447" r="2"/>
    <circle cx="167" cy="99" r="2"/>
  </g>
  <g stroke="chocolate" stroke-width="1">
    <line x1="266" y1="113" x2="262" y2="63"/>
    <circle cx="266" cy="113" r="2"/>
    <circle cx="262" cy="63" r="2"/>
  </g>
  <g stroke="chocolate" stroke-width="1">
    <line x1="124" y1="247" x2="266" y2="113"/>
    <circle cx="124" cy="247" r="2"/>
    <circle cx="266" cy="113" r="2"/>
  </g>
  <g stroke="chocolate" stroke-width="1">
    <line x1="351" y1="332" x2="309" y2="70"/>
    <circle cx="351" cy="332" r="2"/>
    <circle cx="309" cy="70" r="2"/>
  </g>
  <g stroke="chocolate" stroke-width="1">
    <line x1="205" y1="447" x2="93" y2="171"/>
    <circle cx="205" cy="447" r="2"/>
    <circle cx="93" cy="171" r="2"/>
  </g>
  <g stroke="chocolate" stroke-width="1">
    <line x1="93" y1="171" x2="198" y2="68"/>
    <circle cx="93" cy="171" r="2"/>
    <circle cx="198" cy="68" r="2"/>
  </g>
  <g stroke="chocolate" stroke-width="1">
    <line x1="284" y1="447" x2="167" y2="352"/>
    <circle cx="284" cy="447" r="2"/>
    <circle cx="167" cy="352" r="2"/>
  </g>
  <g stroke="chocolate" stroke-width="1">
    <line x1="124" y1="247" x2="386" y2="242"/>
    <circle cx="124" cy="247" r="2"/>
    <circle cx="386" cy="242" r="2"/>
  </g>
  <g stroke="chocolate" stroke-width="1">
    <line x1="93" y1="171" x2="415" y2="169"/>
    <circle cx="93" cy="171" r="2"/>
    <circle cx="415" cy="169" r="2"/>
  </g>
  <g stroke="chocolate" stroke-width="1">
    <line x1="255" y1="115" x2="345" y2="104"/>
    <circle cx="255" cy="115" r="2"/>
    <circle cx="345" cy="104" r="2"/>
  </g>
  <g stroke="chocolate" stroke-width="1">
    <line x1="386" y1="242" x2="255" y2="115"/>
    <circle cx="386" cy="242" r="2"/>
    <circle cx="255" cy="115" r="2"/>
  </g>
  <g stroke="chocolate" stroke-width="1">
    <line x1="198" y1="68" x2="262" y2="63"/>
    <circle cx="198" cy="68" r="2"/>
    <circle cx="262" cy="63" r="2"/>
  </g>
  <g stroke="chocolate" stroke-width="1">
    <line x1="266" y1="113" x2="167" y2="99"/>
    <circle cx="266" cy="113" r="2"/>
    <circle cx="167" cy="99" r="2"/>
  </g>
  <g stroke="chocolate" stroke-width="1">
    <line x1="415" y1="169" x2="309" y2="70"/>
    <circle cx="415" cy="169" r="2"/>
    <circle cx="309" cy="70" r="2"/>
  </g>
  <g stroke="chocolate" stroke-width="1">
    <line x1="309" y1="70" x2="260" y2="66"/>
    <circle cx="309" cy="70" r="2"/>
    <circle cx="260" cy="66" r="2"/>
  </g>
  <g stroke="black" stroke-width="1">
    <line x1="5" y1="5" x2="505" y2="5"/>
    <line x1="5" y1="5" x2="5" y2="505"/>
    <line x1="505" y1="505" x2="5" y2="505"/>
    <line x1="505" y1="505" x2="505" y2="5"/>
    <line x1="105" y1="2" x2="105" y2="8"/>
    <line x1="2" y1="105" x2="8" y2="105"/>
    <line x1="105" y1="502" x2="105" y2="508"/>
    <line x1="502" y1="105" x2="508" y2="105"/>
    <line x1="205" y1="2" x2="205" y2="8"/>
    <line x1="2" y1="205" x2="8" y2="205"/>
    <line x1="205" y1="502" x2="205" y2="508"/>
    <line x1="502" y1="205" x2="508" y2="205"/>
    <line x1="305" y1="2" x2="305" y2="8"/>
    <line x1="2" y1="305" x2="8" y2="305"/>
    <line x1="305" y1="502" x2="305" y2="508"/>
    <line x1="502" y1="305" x2="508" y2="305"/>
    <line x1="405" y1="2" x2="405" y2="8"/>
    <line x1="2" y1="405" x2="8" y2="405"/>
    <line x1="405" y1="502" x2="405" y2="508"/>
    <line x1="502" y1="405" x2="508" y2="405"/>
  </g>
  <g stroke="gray" stroke-width="1" stroke-dasharray="5,5">
    <line x1="105" y1="5" x2="105" y2="505"/>
    <line x1="5" y1="105" x2="505" y2="105"/>
    <line x1="205" y1="5" x2="205" y2="505"/>
    <line x1="5" y1="205" x2="505" y2="205"/>
    <line x1="305" y1="5" x2="305" y2="505"/>
    <line x1="5" y1="305" x2="505" y2="305"/>
    <line x1="405" y1="5" x2="405" y2="505"/>
    <line x1="5" y1="405" x2="505" y2="405"/>
  </g>
</svg>
