<?xml version="1.0" standalone="no"?>
<!DOCTYPE svg PUBLIC "-//W3C//DTD SVG 1.1//EN" 
  "http://www.w3.org/Graphics/SVG/1.1/DTD/svg11.dtd">
<svg width="510" height="510" version="1.1" id="toplevel"
    xmlns="http://www.w3.org/2000/svg"
    xmlns:xlink="http://www.w3.org/1999/xlink">
  <polygon points="97,479 146,411 464,312 410,140 248,31 84,209 46,442"
           fill="bisque"/>
  <g stroke="chocolate" stroke-width="1">
    <line x1="97" y1="479" x2="46" y2="442"/>
    <circle cx="97" cy="479" r="2"/>
    <circle cx="46" cy="442" r="2"/>
  </g>
  <g stroke="chocolate" stroke-width="1">
    <line x1="126" y1="199" x2="126" y2="164"/>
    <circle cx="126" cy="199" r="2"/>
    <circle cx="126" cy="164" r="2"/>
  </g>
  <g stroke="chocolate" stroke-width="1">
    <line x1="314" y1="199" x2="340" y2="146"/>
    <circle cx="314" cy="199" r="2"/>
    <circle cx="340" cy="146" r="2"/>
  </g>
  <g stroke="chocolate" stroke-width="1">
    <line x1="46" y1="442" x2="84" y2="209"/>
    <circle cx="46" cy="442" r="2"/>
    <circle cx="84" cy="209" r="2"/>
  </g>
  <g stroke="chocolate" stroke-width="1">
    <line x1="340" y1="146" x2="363" y2="109"/>
    <circle cx="340" cy="146" r="2"/>
    <circle cx="363" cy="109" r="2"/>
  </g>
  <g stroke="chocolate" stroke-width="1">
    <line x1="97" y1="479" x2="363" y2="109"/>
    <circle cx="97" cy="479" r="2"/>
    <circle cx="363" cy="109" r="2"/>
  </g>
  <g stroke="chocolate" stroke-width="1">
    <line x1="46" y1="442" x2="464" y2="312"/>
    <circle cx="46" cy="442" r="2"/>
    <circle cx="464" cy="312" r="2"/>
  </g>
  <g stroke="chocolate" stroke-width="1">
    <line x1="464" y1="312" x2="410" y2="140"/>
    <circle cx="464" cy="312" r="2"/>
    <circle cx="410" cy="140" r="2"/>
  </g>
  <g stroke="chocolate" stroke-width="1">
    <line x1="314" y1="199" x2="215" y2="67"/>
    <circle cx="314" cy="199" r="2"/>
    <circle cx="215" cy="67" r="2"/>
  </g>
  <g stroke="chocolate" stroke-width="1">
    <line x1="340" y1="146" x2="248" y2="31"/>
    <circle cx="340" cy="146" r="2"/>
    <circle cx="248" cy="31" r="2"/>
  </g>
  <g stroke="chocolate" stroke-width="1">
    <line x1="84" y1="209" x2="248" y2="31"/>
    <circle cx="84" cy="209" r="2"/>
    <circle cx="248" cy="31" r="2"/>
  </g>
  <g stroke="chocolate" stroke-width="1">
    <line x1="126" y1="199" x2="314" y2="199"/>
    <circle cx="126" cy="199" r="2"/>
    <circle cx="314" cy="199" r="2"/>
  </g>
  <g stroke="chocolate" stroke-width="1">
    <line x1="84" y1="209" x2="340" y2="146"/>
    <circle cx="84" cy="209" r="2"/>
    <circle cx="340" cy="146" r="2"/>
  </g>
  <g stroke="chocolate" stroke-width="1">
    <line x1="340" y1="146" x2="215" y2="67"/>
    <circle cx="340" cy="146" r="2"/>
    <circle cx="215" cy="67" r="2"/>
  </g>
  <g stroke="chocolate" stroke-width="1">
    <line x1="126" y1="164" x2="410" y2="140"/>
    <circle cx="126" cy="164" r="2"/>
    <circle cx="410" cy="140" r="2"/>
  </g>
  <g stroke="chocolate" stroke-width="1">
    <line x1="410" y1="140" x2="248" y2="31"/>
    <circle cx="410" cy="140" r="2"/>
    <circle cx="248" cy="31" r="2"/>
  </g>
  <g stroke="black" stroke-width="1">
    <line x1="5" y1="5" x2="505" y2="5"/>
    <line x1="5" y1="5" x2="5" y2="505"/>
    <line x1="505" y1="505" x2="5" y2="505"/>
    <line x1="505" y1="505" x2="505" y2="5"/>
    <line x1="105" y1="2" x2="105" y2="8"/>
    <line x1="2" y1="105" x2="8" y2="105"/>
    <line x1="105" y1="502" x2="105" y2="508"/>
    <line x1="502" y1="105" x2="508" y2="105"/>
    <line x1="205" y1="2" x2="205" y2="8"/>
    <line x1="2" y1="205" x2="8" y2="205"/>
    <line x1="205" y1="502" x2="205" y2="508"/>
    <line x1="502" y1="205" x2="508" y2="205"/>
    <line x1="305" y1="2" x2="305" y2="8"/>
    <line x1="2" y1="305" x2="8" y2="305"/>
    <line x1="305" y1="502" x2="305" y2="508"/>
    <line x1="502" y1="305" x2="508" y2="305"/>
    <line x1="405" y1="2" x2="405" y2="8"/>
    <line x1="2" y1="405" x2="8" y2="405"/>
    <line x1="405" y1="502" x2="405" y2="508"/>
    <line x1="502" y1="405" x2="508" y2="405"/>
  </g>
  <g stroke="gray" stroke-width="1" stroke-dasharray="5,5">
    <line x1="105" y1="5" x2="105" y2="505"/>
    <line x1="5" y1="105" x2="505" y2="105"/>
    <line x1="205" y1="5" x2="205" y2="505"/>
    <line x1="5" y1="205" x2="505" y2="205"/>
    <line x1="305" y1="5" x2="305" y2="505"/>
    <line x1="5" y1="305" x2="505" y2="305"/>
    <line x1="405" y1="5" x2="405" y2="505"/>
    <line x1="5" y1="405" x2="505" y2="405"/>
  </g>
</svg>
