<?xml version="1.0" standalone="no"?>
<!DOCTYPE svg PUBLIC "-//W3C//DTD SVG 1.1//EN" 
  "http://www.w3.org/Graphics/SVG/1.1/DTD/svg11.dtd">
<svg width="510" height="510" version="1.1" id="toplevel"
    xmlns="http://www.w3.org/2000/svg"
    xmlns:xlink="http://www.w3.org/1999/xlink">
  <polygon points="99,505 130,474 151,474 192,432 192,390 151,390 172,370 151,349 151,328 130,328 109,307 88,328 26,328 5,349 57,401 26,432"
           fill="bisque"/>
  <g stroke="chocolate" stroke-width="1">
    <line x1="151" y1="474" x2="192" y2="432"/>
    <circle cx="151" cy="474" r="2"/>
    <circle cx="192" cy="432" r="2"/>
  </g>
  <g stroke="chocolate" stroke-width="1">
    <line x1="99" y1="505" x2="140" y2="463"/>
    <circle cx="99" cy="505" r="2"/>
    <circle cx="140" cy="463" r="2"/>
  </g>
  <g stroke="chocolate" stroke-width="1">
    <line x1="88" y1="495" x2="151" y2="432"/>
    <circle cx="88" cy="495" r="2"/>
    <circle cx="151" cy="432" r="2"/>
  </g>
  <g stroke="chocolate" stroke-width="1">
    <line x1="78" y1="484" x2="140" y2="422"/>
    <circle cx="78" cy="484" r="2"/>
    <circle cx="140" cy="422" r="2"/>
  </g>
  <g stroke="chocolate" stroke-width="1">
    <line x1="68" y1="474" x2="172" y2="370"/>
    <circle cx="68" cy="474" r="2"/>
    <circle cx="172" cy="370" r="2"/>
  </g>
  <g stroke="chocolate" stroke-width="1">
    <line x1="68" y1="453" x2="88" y2="432"/>
    <circle cx="68" cy="453" r="2"/>
    <circle cx="88" cy="432" r="2"/>
  </g>
  <g stroke="chocolate" stroke-width="1">
    <line x1="47" y1="453" x2="47" y2="411"/>
    <circle cx="47" cy="453" r="2"/>
    <circle cx="47" cy="411" r="2"/>
  </g>
  <g stroke="chocolate" stroke-width="1">
    <line x1="68" y1="474" x2="68" y2="328"/>
    <circle cx="68" cy="474" r="2"/>
    <circle cx="68" cy="328" r="2"/>
  </g>
  <g stroke="chocolate" stroke-width="1">
    <line x1="88" y1="495" x2="88" y2="349"/>
    <circle cx="88" cy="495" r="2"/>
    <circle cx="88" cy="349" r="2"/>
  </g>
  <g stroke="chocolate" stroke-width="1">
    <line x1="130" y1="474" x2="130" y2="328"/>
    <circle cx="130" cy="474" r="2"/>
    <circle cx="130" cy="328" r="2"/>
  </g>
  <g stroke="chocolate" stroke-width="1">
    <line x1="151" y1="474" x2="151" y2="328"/>
    <circle cx="151" cy="474" r="2"/>
    <circle cx="151" cy="328" r="2"/>
  </g>
  <g stroke="chocolate" stroke-width="1">
    <line x1="192" y1="432" x2="192" y2="390"/>
    <circle cx="192" cy="432" r="2"/>
    <circle cx="192" cy="390" r="2"/>
  </g>
  <g stroke="chocolate" stroke-width="1">
    <line x1="68" y1="411" x2="130" y2="349"/>
    <circle cx="68" cy="411" r="2"/>
    <circle cx="130" cy="349" r="2"/>
  </g>
  <g stroke="chocolate" stroke-width="1">
    <line x1="26" y1="432" x2="130" y2="328"/>
    <circle cx="26" cy="432" r="2"/>
    <circle cx="130" cy="328" r="2"/>
  </g>
  <g stroke="chocolate" stroke-width="1">
    <line x1="68" y1="474" x2="151" y2="474"/>
    <circle cx="68" cy="474" r="2"/>
    <circle cx="151" cy="474" r="2"/>
  </g>
  <g stroke="chocolate" stroke-width="1">
    <line x1="88" y1="349" x2="109" y2="328"/>
    <circle cx="88" cy="349" r="2"/>
    <circle cx="109" cy="328" r="2"/>
  </g>
  <g stroke="chocolate" stroke-width="1">
    <line x1="47" y1="370" x2="109" y2="307"/>
    <circle cx="47" cy="370" r="2"/>
    <circle cx="109" cy="307" r="2"/>
  </g>
  <g stroke="chocolate" stroke-width="1">
    <line x1="99" y1="505" x2="26" y2="432"/>
    <circle cx="99" cy="505" r="2"/>
    <circle cx="26" cy="432" r="2"/>
  </g>
  <g stroke="chocolate" stroke-width="1">
    <line x1="47" y1="453" x2="88" y2="453"/>
    <circle cx="47" cy="453" r="2"/>
    <circle cx="88" cy="453" r="2"/>
  </g>
  <g stroke="chocolate" stroke-width="1">
    <line x1="88" y1="474" x2="68" y2="453"/>
    <circle cx="88" cy="474" r="2"/>
    <circle cx="68" cy="453" r="2"/>
  </g>
  <g stroke="chocolate" stroke-width="1">
    <line x1="88" y1="432" x2="192" y2="432"/>
    <circle cx="88" cy="432" r="2"/>
    <circle cx="192" cy="432" r="2"/>
  </g>
  <g stroke="chocolate" stroke-width="1">
    <line x1="5" y1="349" x2="26" y2="328"/>
    <circle cx="5" cy="349" r="2"/>
    <circle cx="26" cy="328" r="2"/>
  </g>
  <g stroke="chocolate" stroke-width="1">
    <line x1="130" y1="474" x2="5" y2="349"/>
    <circle cx="130" cy="474" r="2"/>
    <circle cx="5" cy="349" r="2"/>
  </g>
  <g stroke="chocolate" stroke-width="1">
    <line x1="151" y1="474" x2="68" y2="390"/>
    <circle cx="151" cy="474" r="2"/>
    <circle cx="68" cy="390" r="2"/>
  </g>
  <g stroke="chocolate" stroke-width="1">
    <line x1="47" y1="411" x2="88" y2="411"/>
    <circle cx="47" cy="411" r="2"/>
    <circle cx="88" cy="411" r="2"/>
  </g>
  <g stroke="chocolate" stroke-width="1">
    <line x1="130" y1="432" x2="26" y2="328"/>
    <circle cx="130" cy="432" r="2"/>
    <circle cx="26" cy="328" r="2"/>
  </g>
  <g stroke="chocolate" stroke-width="1">
    <line x1="151" y1="432" x2="68" y2="349"/>
    <circle cx="151" cy="432" r="2"/>
    <circle cx="68" cy="349" r="2"/>
  </g>
  <g stroke="chocolate" stroke-width="1">
    <line x1="88" y1="390" x2="192" y2="390"/>
    <circle cx="88" cy="390" r="2"/>
    <circle cx="192" cy="390" r="2"/>
  </g>
  <g stroke="chocolate" stroke-width="1">
    <line x1="47" y1="370" x2="172" y2="370"/>
    <circle cx="47" cy="370" r="2"/>
    <circle cx="172" cy="370" r="2"/>
  </g>
  <g stroke="chocolate" stroke-width="1">
    <line x1="130" y1="349" x2="109" y2="328"/>
    <circle cx="130" cy="349" r="2"/>
    <circle cx="109" cy="328" r="2"/>
  </g>
  <g stroke="chocolate" stroke-width="1">
    <line x1="172" y1="370" x2="109" y2="307"/>
    <circle cx="172" cy="370" r="2"/>
    <circle cx="109" cy="307" r="2"/>
  </g>
  <g stroke="chocolate" stroke-width="1">
    <line x1="5" y1="349" x2="151" y2="349"/>
    <circle cx="5" cy="349" r="2"/>
    <circle cx="151" cy="349" r="2"/>
  </g>
  <g stroke="chocolate" stroke-width="1">
    <line x1="26" y1="328" x2="151" y2="328"/>
    <circle cx="26" cy="328" r="2"/>
    <circle cx="151" cy="328" r="2"/>
  </g>
  <g stroke="black" stroke-width="1">
    <line x1="5" y1="5" x2="505" y2="5"/>
    <line x1="5" y1="5" x2="5" y2="505"/>
    <line x1="505" y1="505" x2="5" y2="505"/>
    <line x1="505" y1="505" x2="505" y2="5"/>
    <line x1="105" y1="2" x2="105" y2="8"/>
    <line x1="2" y1="105" x2="8" y2="105"/>
    <line x1="105" y1="502" x2="105" y2="508"/>
    <line x1="502" y1="105" x2="508" y2="105"/>
    <line x1="205" y1="2" x2="205" y2="8"/>
    <line x1="2" y1="205" x2="8" y2="205"/>
    <line x1="205" y1="502" x2="205" y2="508"/>
    <line x1="502" y1="205" x2="508" y2="205"/>
    <line x1="305" y1="2" x2="305" y2="8"/>
    <line x1="2" y1="305" x2="8" y2="305"/>
    <line x1="305" y1="502" x2="305" y2="508"/>
    <line x1="502" y1="305" x2="508" y2="305"/>
    <line x1="405" y1="2" x2="405" y2="8"/>
    <line x1="2" y1="405" x2="8" y2="405"/>
    <line x1="405" y1="502" x2="405" y2="508"/>
    <line x1="502" y1="405" x2="508" y2="405"/>
  </g>
  <g stroke="gray" stroke-width="1" stroke-dasharray="5,5">
    <line x1="105" y1="5" x2="105" y2="505"/>
    <line x1="5" y1="105" x2="505" y2="105"/>
    <line x1="205" y1="5" x2="205" y2="505"/>
    <line x1="5" y1="205" x2="505" y2="205"/>
    <line x1="305" y1="5" x2="305" y2="505"/>
    <line x1="5" y1="305" x2="505" y2="305"/>
    <line x1="405" y1="5" x2="405" y2="505"/>
    <line x1="5" y1="405" x2="505" y2="405"/>
  </g>
</svg>
