<?xml version="1.0" standalone="no"?>
<!DOCTYPE svg PUBLIC "-//W3C//DTD SVG 1.1//EN" 
  "http://www.w3.org/Graphics/SVG/1.1/DTD/svg11.dtd">
<svg width="510" height="510" version="1.1" id="toplevel"
    xmlns="http://www.w3.org/2000/svg"
    xmlns:xlink="http://www.w3.org/1999/xlink">
  <polygon points="100,474 133,474 460,229 405,156 382,174 373,171 373,173 100,36 50,74 100,140"
           fill="bisque"/>
  <g stroke="chocolate" stroke-width="1">
    <line x1="100" y1="474" x2="100" y2="36"/>
    <circle cx="100" cy="474" r="2"/>
    <circle cx="100" cy="36" r="2"/>
  </g>
  <g stroke="chocolate" stroke-width="1">
    <line x1="428" y1="252" x2="428" y2="187"/>
    <circle cx="428" cy="252" r="2"/>
    <circle cx="428" cy="187" r="2"/>
  </g>
  <g stroke="chocolate" stroke-width="1">
    <line x1="366" y1="234" x2="358" y2="191"/>
    <circle cx="366" cy="234" r="2"/>
    <circle cx="358" cy="191" r="2"/>
  </g>
  <g stroke="chocolate" stroke-width="1">
    <line x1="449" y1="237" x2="444" y2="208"/>
    <circle cx="449" cy="237" r="2"/>
    <circle cx="444" cy="208" r="2"/>
  </g>
  <g stroke="chocolate" stroke-width="1">
    <line x1="328" y1="328" x2="373" y2="171"/>
    <circle cx="328" cy="328" r="2"/>
    <circle cx="373" cy="171" r="2"/>
  </g>
  <g stroke="chocolate" stroke-width="1">
    <line x1="133" y1="474" x2="176" y2="328"/>
    <circle cx="133" cy="474" r="2"/>
    <circle cx="176" cy="328" r="2"/>
  </g>
  <g stroke="chocolate" stroke-width="1">
    <line x1="272" y1="370" x2="50" y2="74"/>
    <circle cx="272" cy="370" r="2"/>
    <circle cx="50" cy="74" r="2"/>
  </g>
  <g stroke="chocolate" stroke-width="1">
    <line x1="460" y1="229" x2="405" y2="156"/>
    <circle cx="460" cy="229" r="2"/>
    <circle cx="405" cy="156" r="2"/>
  </g>
  <g stroke="chocolate" stroke-width="1">
    <line x1="133" y1="474" x2="460" y2="229"/>
    <circle cx="133" cy="474" r="2"/>
    <circle cx="460" cy="229" r="2"/>
  </g>
  <g stroke="chocolate" stroke-width="1">
    <line x1="241" y1="328" x2="428" y2="187"/>
    <circle cx="241" cy="328" r="2"/>
    <circle cx="428" cy="187" r="2"/>
  </g>
  <g stroke="chocolate" stroke-width="1">
    <line x1="100" y1="474" x2="133" y2="474"/>
    <circle cx="100" cy="474" r="2"/>
    <circle cx="133" cy="474" r="2"/>
  </g>
  <g stroke="chocolate" stroke-width="1">
    <line x1="176" y1="328" x2="405" y2="156"/>
    <circle cx="176" cy="328" r="2"/>
    <circle cx="405" cy="156" r="2"/>
  </g>
  <g stroke="chocolate" stroke-width="1">
    <line x1="449" y1="237" x2="358" y2="191"/>
    <circle cx="449" cy="237" r="2"/>
    <circle cx="358" cy="191" r="2"/>
  </g>
  <g stroke="chocolate" stroke-width="1">
    <line x1="176" y1="328" x2="328" y2="328"/>
    <circle cx="176" cy="328" r="2"/>
    <circle cx="328" cy="328" r="2"/>
  </g>
  <g stroke="chocolate" stroke-width="1">
    <line x1="444" y1="208" x2="100" y2="36"/>
    <circle cx="444" cy="208" r="2"/>
    <circle cx="100" cy="36" r="2"/>
  </g>
  <g stroke="chocolate" stroke-width="1">
    <line x1="428" y1="252" x2="366" y2="234"/>
    <circle cx="428" cy="252" r="2"/>
    <circle cx="366" cy="234" r="2"/>
  </g>
  <g stroke="chocolate" stroke-width="1">
    <line x1="428" y1="187" x2="373" y2="171"/>
    <circle cx="428" cy="187" r="2"/>
    <circle cx="373" cy="171" r="2"/>
  </g>
  <g stroke="chocolate" stroke-width="1">
    <line x1="50" y1="74" x2="100" y2="36"/>
    <circle cx="50" cy="74" r="2"/>
    <circle cx="100" cy="36" r="2"/>
  </g>
  <g stroke="black" stroke-width="1">
    <line x1="5" y1="5" x2="505" y2="5"/>
    <line x1="5" y1="5" x2="5" y2="505"/>
    <line x1="505" y1="505" x2="5" y2="505"/>
    <line x1="505" y1="505" x2="505" y2="5"/>
    <line x1="105" y1="2" x2="105" y2="8"/>
    <line x1="2" y1="105" x2="8" y2="105"/>
    <line x1="105" y1="502" x2="105" y2="508"/>
    <line x1="502" y1="105" x2="508" y2="105"/>
    <line x1="205" y1="2" x2="205" y2="8"/>
    <line x1="2" y1="205" x2="8" y2="205"/>
    <line x1="205" y1="502" x2="205" y2="508"/>
    <line x1="502" y1="205" x2="508" y2="205"/>
    <line x1="305" y1="2" x2="305" y2="8"/>
    <line x1="2" y1="305" x2="8" y2="305"/>
    <line x1="305" y1="502" x2="305" y2="508"/>
    <line x1="502" y1="305" x2="508" y2="305"/>
    <line x1="405" y1="2" x2="405" y2="8"/>
    <line x1="2" y1="405" x2="8" y2="405"/>
    <line x1="405" y1="502" x2="405" y2="508"/>
    <line x1="502" y1="405" x2="508" y2="405"/>
  </g>
  <g stroke="gray" stroke-width="1" stroke-dasharray="5,5">
    <line x1="105" y1="5" x2="105" y2="505"/>
    <line x1="5" y1="105" x2="505" y2="105"/>
    <line x1="205" y1="5" x2="205" y2="505"/>
    <line x1="5" y1="205" x2="505" y2="205"/>
    <line x1="305" y1="5" x2="305" y2="505"/>
    <line x1="5" y1="305" x2="505" y2="305"/>
    <line x1="405" y1="5" x2="405" y2="505"/>
    <line x1="5" y1="405" x2="505" y2="405"/>
  </g>
</svg>
