<?xml version="1.0" standalone="no"?>
<!DOCTYPE svg PUBLIC "-//W3C//DTD SVG 1.1//EN" 
  "http://www.w3.org/Graphics/SVG/1.1/DTD/svg11.dtd">
<svg width="510" height="510" version="1.1" id="toplevel"
    xmlns="http://www.w3.org/2000/svg"
    xmlns:xlink="http://www.w3.org/1999/xlink">
  <polygon points="148,460 210,460 272,397 429,85 438,55 422,50 310,135 302,187 272,210 210,210 210,257 72,360"
           fill="bisque"/>
  <g stroke="chocolate" stroke-width="1">
    <line x1="429" y1="85" x2="438" y2="55"/>
    <circle cx="429" cy="85" r="2"/>
    <circle cx="438" cy="55" r="2"/>
  </g>
  <g stroke="chocolate" stroke-width="1">
    <line x1="272" y1="397" x2="429" y2="85"/>
    <circle cx="272" cy="397" r="2"/>
    <circle cx="429" cy="85" r="2"/>
  </g>
  <g stroke="chocolate" stroke-width="1">
    <line x1="272" y1="397" x2="310" y2="135"/>
    <circle cx="272" cy="397" r="2"/>
    <circle cx="310" cy="135" r="2"/>
  </g>
  <g stroke="chocolate" stroke-width="1">
    <line x1="148" y1="460" x2="429" y2="85"/>
    <circle cx="148" cy="460" r="2"/>
    <circle cx="429" cy="85" r="2"/>
  </g>
  <g stroke="chocolate" stroke-width="1">
    <line x1="210" y1="460" x2="210" y2="210"/>
    <circle cx="210" cy="460" r="2"/>
    <circle cx="210" cy="210" r="2"/>
  </g>
  <g stroke="chocolate" stroke-width="1">
    <line x1="272" y1="397" x2="272" y2="210"/>
    <circle cx="272" cy="397" r="2"/>
    <circle cx="272" cy="210" r="2"/>
  </g>
  <g stroke="chocolate" stroke-width="1">
    <line x1="422" y1="97" x2="422" y2="50"/>
    <circle cx="422" cy="97" r="2"/>
    <circle cx="422" cy="50" r="2"/>
  </g>
  <g stroke="chocolate" stroke-width="1">
    <line x1="210" y1="460" x2="272" y2="397"/>
    <circle cx="210" cy="460" r="2"/>
    <circle cx="272" cy="397" r="2"/>
  </g>
  <g stroke="chocolate" stroke-width="1">
    <line x1="72" y1="360" x2="422" y2="97"/>
    <circle cx="72" cy="360" r="2"/>
    <circle cx="422" cy="97" r="2"/>
  </g>
  <g stroke="chocolate" stroke-width="1">
    <line x1="310" y1="135" x2="422" y2="50"/>
    <circle cx="310" cy="135" r="2"/>
    <circle cx="422" cy="50" r="2"/>
  </g>
  <g stroke="chocolate" stroke-width="1">
    <line x1="148" y1="460" x2="72" y2="360"/>
    <circle cx="148" cy="460" r="2"/>
    <circle cx="72" cy="360" r="2"/>
  </g>
  <g stroke="chocolate" stroke-width="1">
    <line x1="351" y1="241" x2="335" y2="210"/>
    <circle cx="351" cy="241" r="2"/>
    <circle cx="335" cy="210" r="2"/>
  </g>
  <g stroke="chocolate" stroke-width="1">
    <line x1="148" y1="460" x2="210" y2="460"/>
    <circle cx="148" cy="460" r="2"/>
    <circle cx="210" cy="460" r="2"/>
  </g>
  <g stroke="chocolate" stroke-width="1">
    <line x1="210" y1="397" x2="272" y2="397"/>
    <circle cx="210" cy="397" r="2"/>
    <circle cx="272" cy="397" r="2"/>
  </g>
  <g stroke="chocolate" stroke-width="1">
    <line x1="366" y1="210" x2="310" y2="135"/>
    <circle cx="366" cy="210" r="2"/>
    <circle cx="310" cy="135" r="2"/>
  </g>
  <g stroke="chocolate" stroke-width="1">
    <line x1="293" y1="251" x2="351" y2="241"/>
    <circle cx="293" cy="251" r="2"/>
    <circle cx="351" cy="241" r="2"/>
  </g>
  <g stroke="chocolate" stroke-width="1">
    <line x1="210" y1="210" x2="366" y2="210"/>
    <circle cx="210" cy="210" r="2"/>
    <circle cx="366" cy="210" r="2"/>
  </g>
  <g stroke="chocolate" stroke-width="1">
    <line x1="335" y1="272" x2="210" y2="210"/>
    <circle cx="335" cy="272" r="2"/>
    <circle cx="210" cy="210" r="2"/>
  </g>
  <g stroke="chocolate" stroke-width="1">
    <line x1="438" y1="55" x2="422" y2="50"/>
    <circle cx="438" cy="55" r="2"/>
    <circle cx="422" cy="50" r="2"/>
  </g>
  <g stroke="black" stroke-width="1">
    <line x1="5" y1="5" x2="505" y2="5"/>
    <line x1="5" y1="5" x2="5" y2="505"/>
    <line x1="505" y1="505" x2="5" y2="505"/>
    <line x1="505" y1="505" x2="505" y2="5"/>
    <line x1="105" y1="2" x2="105" y2="8"/>
    <line x1="2" y1="105" x2="8" y2="105"/>
    <line x1="105" y1="502" x2="105" y2="508"/>
    <line x1="502" y1="105" x2="508" y2="105"/>
    <line x1="205" y1="2" x2="205" y2="8"/>
    <line x1="2" y1="205" x2="8" y2="205"/>
    <line x1="205" y1="502" x2="205" y2="508"/>
    <line x1="502" y1="205" x2="508" y2="205"/>
    <line x1="305" y1="2" x2="305" y2="8"/>
    <line x1="2" y1="305" x2="8" y2="305"/>
    <line x1="305" y1="502" x2="305" y2="508"/>
    <line x1="502" y1="305" x2="508" y2="305"/>
    <line x1="405" y1="2" x2="405" y2="8"/>
    <line x1="2" y1="405" x2="8" y2="405"/>
    <line x1="405" y1="502" x2="405" y2="508"/>
    <line x1="502" y1="405" x2="508" y2="405"/>
  </g>
  <g stroke="gray" stroke-width="1" stroke-dasharray="5,5">
    <line x1="105" y1="5" x2="105" y2="505"/>
    <line x1="5" y1="105" x2="505" y2="105"/>
    <line x1="205" y1="5" x2="205" y2="505"/>
    <line x1="5" y1="205" x2="505" y2="205"/>
    <line x1="305" y1="5" x2="305" y2="505"/>
    <line x1="5" y1="305" x2="505" y2="305"/>
    <line x1="405" y1="5" x2="405" y2="505"/>
    <line x1="5" y1="405" x2="505" y2="405"/>
  </g>
</svg>
