<?xml version="1.0" standalone="no"?>
<!DOCTYPE svg PUBLIC "-//W3C//DTD SVG 1.1//EN" 
  "http://www.w3.org/Graphics/SVG/1.1/DTD/svg11.dtd">
<svg width="510" height="510" version="1.1" id="toplevel"
    xmlns="http://www.w3.org/2000/svg"
    xmlns:xlink="http://www.w3.org/1999/xlink">
  <polygon points="375,408 386,330 277,184 224,169 174,102 124,139 161,346 188,381"
           fill="bisque"/>
  <g stroke="chocolate" stroke-width="1">
    <line x1="375" y1="408" x2="386" y2="330"/>
    <circle cx="375" cy="408" r="2"/>
    <circle cx="386" cy="330" r="2"/>
  </g>
  <g stroke="chocolate" stroke-width="1">
    <line x1="255" y1="391" x2="255" y2="221"/>
    <circle cx="255" cy="391" r="2"/>
    <circle cx="255" cy="221" r="2"/>
  </g>
  <g stroke="chocolate" stroke-width="1">
    <line x1="277" y1="314" x2="277" y2="184"/>
    <circle cx="277" cy="314" r="2"/>
    <circle cx="277" cy="184" r="2"/>
  </g>
  <g stroke="chocolate" stroke-width="1">
    <line x1="161" y1="346" x2="124" y2="139"/>
    <circle cx="161" cy="346" r="2"/>
    <circle cx="124" cy="139" r="2"/>
  </g>
  <g stroke="chocolate" stroke-width="1">
    <line x1="255" y1="391" x2="304" y2="221"/>
    <circle cx="255" cy="391" r="2"/>
    <circle cx="304" cy="221" r="2"/>
  </g>
  <g stroke="chocolate" stroke-width="1">
    <line x1="207" y1="221" x2="222" y2="168"/>
    <circle cx="207" cy="221" r="2"/>
    <circle cx="222" cy="168" r="2"/>
  </g>
  <g stroke="chocolate" stroke-width="1">
    <line x1="188" y1="381" x2="161" y2="346"/>
    <circle cx="188" cy="381" r="2"/>
    <circle cx="161" cy="346" r="2"/>
  </g>
  <g stroke="chocolate" stroke-width="1">
    <line x1="344" y1="404" x2="207" y2="221"/>
    <circle cx="344" cy="404" r="2"/>
    <circle cx="207" cy="221" r="2"/>
  </g>
  <g stroke="chocolate" stroke-width="1">
    <line x1="380" y1="377" x2="174" y2="102"/>
    <circle cx="380" cy="377" r="2"/>
    <circle cx="174" cy="102" r="2"/>
  </g>
  <g stroke="chocolate" stroke-width="1">
    <line x1="386" y1="330" x2="277" y2="184"/>
    <circle cx="386" cy="330" r="2"/>
    <circle cx="277" cy="184" r="2"/>
  </g>
  <g stroke="chocolate" stroke-width="1">
    <line x1="344" y1="404" x2="380" y2="377"/>
    <circle cx="344" cy="404" r="2"/>
    <circle cx="380" cy="377" r="2"/>
  </g>
  <g stroke="chocolate" stroke-width="1">
    <line x1="188" y1="381" x2="340" y2="268"/>
    <circle cx="188" cy="381" r="2"/>
    <circle cx="340" cy="268" r="2"/>
  </g>
  <g stroke="chocolate" stroke-width="1">
    <line x1="250" y1="390" x2="161" y2="346"/>
    <circle cx="250" cy="390" r="2"/>
    <circle cx="161" cy="346" r="2"/>
  </g>
  <g stroke="chocolate" stroke-width="1">
    <line x1="381" y1="366" x2="277" y2="314"/>
    <circle cx="381" cy="366" r="2"/>
    <circle cx="277" cy="314" r="2"/>
  </g>
  <g stroke="chocolate" stroke-width="1">
    <line x1="250" y1="390" x2="381" y2="366"/>
    <circle cx="250" cy="390" r="2"/>
    <circle cx="381" cy="366" r="2"/>
  </g>
  <g stroke="chocolate" stroke-width="1">
    <line x1="375" y1="408" x2="188" y2="381"/>
    <circle cx="375" cy="408" r="2"/>
    <circle cx="188" cy="381" r="2"/>
  </g>
  <g stroke="chocolate" stroke-width="1">
    <line x1="124" y1="139" x2="174" y2="102"/>
    <circle cx="124" cy="139" r="2"/>
    <circle cx="174" cy="102" r="2"/>
  </g>
  <g stroke="chocolate" stroke-width="1">
    <line x1="386" y1="330" x2="277" y2="314"/>
    <circle cx="386" cy="330" r="2"/>
    <circle cx="277" cy="314" r="2"/>
  </g>
  <g stroke="chocolate" stroke-width="1">
    <line x1="277" y1="184" x2="124" y2="139"/>
    <circle cx="277" cy="184" r="2"/>
    <circle cx="124" cy="139" r="2"/>
  </g>
  <g stroke="chocolate" stroke-width="1">
    <line x1="207" y1="221" x2="304" y2="221"/>
    <circle cx="207" cy="221" r="2"/>
    <circle cx="304" cy="221" r="2"/>
  </g>
  <g stroke="black" stroke-width="1">
    <line x1="5" y1="5" x2="505" y2="5"/>
    <line x1="5" y1="5" x2="5" y2="505"/>
    <line x1="505" y1="505" x2="5" y2="505"/>
    <line x1="505" y1="505" x2="505" y2="5"/>
    <line x1="105" y1="2" x2="105" y2="8"/>
    <line x1="2" y1="105" x2="8" y2="105"/>
    <line x1="105" y1="502" x2="105" y2="508"/>
    <line x1="502" y1="105" x2="508" y2="105"/>
    <line x1="205" y1="2" x2="205" y2="8"/>
    <line x1="2" y1="205" x2="8" y2="205"/>
    <line x1="205" y1="502" x2="205" y2="508"/>
    <line x1="502" y1="205" x2="508" y2="205"/>
    <line x1="305" y1="2" x2="305" y2="8"/>
    <line x1="2" y1="305" x2="8" y2="305"/>
    <line x1="305" y1="502" x2="305" y2="508"/>
    <line x1="502" y1="305" x2="508" y2="305"/>
    <line x1="405" y1="2" x2="405" y2="8"/>
    <line x1="2" y1="405" x2="8" y2="405"/>
    <line x1="405" y1="502" x2="405" y2="508"/>
    <line x1="502" y1="405" x2="508" y2="405"/>
  </g>
  <g stroke="gray" stroke-width="1" stroke-dasharray="5,5">
    <line x1="105" y1="5" x2="105" y2="505"/>
    <line x1="5" y1="105" x2="505" y2="105"/>
    <line x1="205" y1="5" x2="205" y2="505"/>
    <line x1="5" y1="205" x2="505" y2="205"/>
    <line x1="305" y1="5" x2="305" y2="505"/>
    <line x1="5" y1="305" x2="505" y2="305"/>
    <line x1="405" y1="5" x2="405" y2="505"/>
    <line x1="5" y1="405" x2="505" y2="405"/>
  </g>
</svg>
