<?xml version="1.0" standalone="no"?>
<!DOCTYPE svg PUBLIC "-//W3C//DTD SVG 1.1//EN" 
  "http://www.w3.org/Graphics/SVG/1.1/DTD/svg11.dtd">
<svg width="510" height="510" version="1.1" id="toplevel"
    xmlns="http://www.w3.org/2000/svg"
    xmlns:xlink="http://www.w3.org/1999/xlink">
  <polygon points="243,486 359,408 467,377 464,208 116,82 117,26 67,24 43,55 163,465 219,449"
           fill="bisque"/>
  <g stroke="chocolate" stroke-width="1">
    <line x1="467" y1="377" x2="464" y2="208"/>
    <circle cx="467" cy="377" r="2"/>
    <circle cx="464" cy="208" r="2"/>
  </g>
  <g stroke="chocolate" stroke-width="1">
    <line x1="111" y1="288" x2="117" y2="26"/>
    <circle cx="111" cy="288" r="2"/>
    <circle cx="117" cy="26" r="2"/>
  </g>
  <g stroke="chocolate" stroke-width="1">
    <line x1="163" y1="465" x2="43" y2="55"/>
    <circle cx="163" cy="465" r="2"/>
    <circle cx="43" cy="55" r="2"/>
  </g>
  <g stroke="chocolate" stroke-width="1">
    <line x1="193" y1="456" x2="67" y2="24"/>
    <circle cx="193" cy="456" r="2"/>
    <circle cx="67" cy="24" r="2"/>
  </g>
  <g stroke="chocolate" stroke-width="1">
    <line x1="319" y1="340" x2="339" y2="259"/>
    <circle cx="319" cy="340" r="2"/>
    <circle cx="339" cy="259" r="2"/>
  </g>
  <g stroke="chocolate" stroke-width="1">
    <line x1="243" y1="486" x2="111" y2="288"/>
    <circle cx="243" cy="486" r="2"/>
    <circle cx="111" cy="288" r="2"/>
  </g>
  <g stroke="chocolate" stroke-width="1">
    <line x1="43" y1="55" x2="67" y2="24"/>
    <circle cx="43" cy="55" r="2"/>
    <circle cx="67" cy="24" r="2"/>
  </g>
  <g stroke="chocolate" stroke-width="1">
    <line x1="243" y1="486" x2="466" y2="337"/>
    <circle cx="243" cy="486" r="2"/>
    <circle cx="466" cy="337" r="2"/>
  </g>
  <g stroke="chocolate" stroke-width="1">
    <line x1="466" y1="337" x2="339" y2="259"/>
    <circle cx="466" cy="337" r="2"/>
    <circle cx="339" cy="259" r="2"/>
  </g>
  <g stroke="chocolate" stroke-width="1">
    <line x1="339" y1="259" x2="464" y2="208"/>
    <circle cx="339" cy="259" r="2"/>
    <circle cx="464" cy="208" r="2"/>
  </g>
  <g stroke="chocolate" stroke-width="1">
    <line x1="464" y1="208" x2="43" y2="55"/>
    <circle cx="464" cy="208" r="2"/>
    <circle cx="43" cy="55" r="2"/>
  </g>
  <g stroke="chocolate" stroke-width="1">
    <line x1="163" y1="465" x2="467" y2="377"/>
    <circle cx="163" cy="465" r="2"/>
    <circle cx="467" cy="377" r="2"/>
  </g>
  <g stroke="chocolate" stroke-width="1">
    <line x1="467" y1="377" x2="319" y2="340"/>
    <circle cx="467" cy="377" r="2"/>
    <circle cx="319" cy="340" r="2"/>
  </g>
  <g stroke="chocolate" stroke-width="1">
    <line x1="117" y1="26" x2="67" y2="24"/>
    <circle cx="117" cy="26" r="2"/>
    <circle cx="67" cy="24" r="2"/>
  </g>
  <g stroke="black" stroke-width="1">
    <line x1="5" y1="5" x2="505" y2="5"/>
    <line x1="5" y1="5" x2="5" y2="505"/>
    <line x1="505" y1="505" x2="5" y2="505"/>
    <line x1="505" y1="505" x2="505" y2="5"/>
    <line x1="105" y1="2" x2="105" y2="8"/>
    <line x1="2" y1="105" x2="8" y2="105"/>
    <line x1="105" y1="502" x2="105" y2="508"/>
    <line x1="502" y1="105" x2="508" y2="105"/>
    <line x1="205" y1="2" x2="205" y2="8"/>
    <line x1="2" y1="205" x2="8" y2="205"/>
    <line x1="205" y1="502" x2="205" y2="508"/>
    <line x1="502" y1="205" x2="508" y2="205"/>
    <line x1="305" y1="2" x2="305" y2="8"/>
    <line x1="2" y1="305" x2="8" y2="305"/>
    <line x1="305" y1="502" x2="305" y2="508"/>
    <line x1="502" y1="305" x2="508" y2="305"/>
    <line x1="405" y1="2" x2="405" y2="8"/>
    <line x1="2" y1="405" x2="8" y2="405"/>
    <line x1="405" y1="502" x2="405" y2="508"/>
    <line x1="502" y1="405" x2="508" y2="405"/>
  </g>
  <g stroke="gray" stroke-width="1" stroke-dasharray="5,5">
    <line x1="105" y1="5" x2="105" y2="505"/>
    <line x1="5" y1="105" x2="505" y2="105"/>
    <line x1="205" y1="5" x2="205" y2="505"/>
    <line x1="5" y1="205" x2="505" y2="205"/>
    <line x1="305" y1="5" x2="305" y2="505"/>
    <line x1="5" y1="305" x2="505" y2="305"/>
    <line x1="405" y1="5" x2="405" y2="505"/>
    <line x1="5" y1="405" x2="505" y2="405"/>
  </g>
</svg>
