<?xml version="1.0" standalone="no"?>
<!DOCTYPE svg PUBLIC "-//W3C//DTD SVG 1.1//EN" 
  "http://www.w3.org/Graphics/SVG/1.1/DTD/svg11.dtd">
<svg width="510" height="510" version="1.1" id="toplevel"
    xmlns="http://www.w3.org/2000/svg"
    xmlns:xlink="http://www.w3.org/1999/xlink">
  <polygon points="169,505 268,505 268,289 311,298 310,304 311,304 310,309 310,309 309,314 309,314 309,319 309,319 308,324 343,332 343,330 345,322 345,322 345,317 346,317 346,312 347,312 347,307 348,307 357,244 257,144 243,155 242,164 153,274"
           fill="bisque"/>
  <g stroke="chocolate" stroke-width="1">
    <line x1="343" y1="332" x2="343" y2="330"/>
    <circle cx="343" cy="332" r="2"/>
    <circle cx="343" cy="330" r="2"/>
  </g>
  <g stroke="chocolate" stroke-width="1">
    <line x1="153" y1="274" x2="257" y2="144"/>
    <circle cx="153" cy="274" r="2"/>
    <circle cx="257" cy="144" r="2"/>
  </g>
  <g stroke="chocolate" stroke-width="1">
    <line x1="216" y1="277" x2="243" y2="155"/>
    <circle cx="216" cy="277" r="2"/>
    <circle cx="243" cy="155" r="2"/>
  </g>
  <g stroke="chocolate" stroke-width="1">
    <line x1="348" y1="307" x2="357" y2="244"/>
    <circle cx="348" cy="307" r="2"/>
    <circle cx="357" cy="244" r="2"/>
  </g>
  <g stroke="chocolate" stroke-width="1">
    <line x1="347" y1="312" x2="357" y2="243"/>
    <circle cx="347" cy="312" r="2"/>
    <circle cx="357" cy="243" r="2"/>
  </g>
  <g stroke="chocolate" stroke-width="1">
    <line x1="346" y1="317" x2="357" y2="243"/>
    <circle cx="346" cy="317" r="2"/>
    <circle cx="357" cy="243" r="2"/>
  </g>
  <g stroke="chocolate" stroke-width="1">
    <line x1="345" y1="322" x2="357" y2="243"/>
    <circle cx="345" cy="322" r="2"/>
    <circle cx="357" cy="243" r="2"/>
  </g>
  <g stroke="chocolate" stroke-width="1">
    <line x1="343" y1="330" x2="356" y2="243"/>
    <circle cx="343" cy="330" r="2"/>
    <circle cx="356" cy="243" r="2"/>
  </g>
  <g stroke="chocolate" stroke-width="1">
    <line x1="308" y1="324" x2="325" y2="212"/>
    <circle cx="308" cy="324" r="2"/>
    <circle cx="325" cy="212" r="2"/>
  </g>
  <g stroke="chocolate" stroke-width="1">
    <line x1="309" y1="319" x2="325" y2="211"/>
    <circle cx="309" cy="319" r="2"/>
    <circle cx="325" cy="211" r="2"/>
  </g>
  <g stroke="chocolate" stroke-width="1">
    <line x1="309" y1="314" x2="325" y2="211"/>
    <circle cx="309" cy="314" r="2"/>
    <circle cx="325" cy="211" r="2"/>
  </g>
  <g stroke="chocolate" stroke-width="1">
    <line x1="310" y1="309" x2="325" y2="211"/>
    <circle cx="310" cy="309" r="2"/>
    <circle cx="325" cy="211" r="2"/>
  </g>
  <g stroke="chocolate" stroke-width="1">
    <line x1="310" y1="304" x2="324" y2="211"/>
    <circle cx="310" cy="304" r="2"/>
    <circle cx="324" cy="211" r="2"/>
  </g>
  <g stroke="chocolate" stroke-width="1">
    <line x1="169" y1="505" x2="206" y2="500"/>
    <circle cx="169" cy="505" r="2"/>
    <circle cx="206" cy="500" r="2"/>
  </g>
  <g stroke="chocolate" stroke-width="1">
    <line x1="169" y1="500" x2="206" y2="494"/>
    <circle cx="169" cy="500" r="2"/>
    <circle cx="206" cy="494" r="2"/>
  </g>
  <g stroke="chocolate" stroke-width="1">
    <line x1="169" y1="494" x2="205" y2="489"/>
    <circle cx="169" cy="494" r="2"/>
    <circle cx="205" cy="489" r="2"/>
  </g>
  <g stroke="chocolate" stroke-width="1">
    <line x1="343" y1="330" x2="351" y2="237"/>
    <circle cx="343" cy="330" r="2"/>
    <circle cx="351" cy="237" r="2"/>
  </g>
  <g stroke="chocolate" stroke-width="1">
    <line x1="169" y1="489" x2="205" y2="484"/>
    <circle cx="169" cy="489" r="2"/>
    <circle cx="205" cy="484" r="2"/>
  </g>
  <g stroke="chocolate" stroke-width="1">
    <line x1="169" y1="484" x2="204" y2="479"/>
    <circle cx="169" cy="484" r="2"/>
    <circle cx="204" cy="479" r="2"/>
  </g>
  <g stroke="chocolate" stroke-width="1">
    <line x1="168" y1="479" x2="203" y2="474"/>
    <circle cx="168" cy="479" r="2"/>
    <circle cx="203" cy="474" r="2"/>
  </g>
  <g stroke="chocolate" stroke-width="1">
    <line x1="243" y1="155" x2="257" y2="144"/>
    <circle cx="243" cy="155" r="2"/>
    <circle cx="257" cy="144" r="2"/>
  </g>
  <g stroke="chocolate" stroke-width="1">
    <line x1="169" y1="505" x2="268" y2="505"/>
    <circle cx="169" cy="505" r="2"/>
    <circle cx="268" cy="505" r="2"/>
  </g>
  <g stroke="chocolate" stroke-width="1">
    <line x1="268" y1="505" x2="268" y2="155"/>
    <circle cx="268" cy="505" r="2"/>
    <circle cx="268" cy="155" r="2"/>
  </g>
  <g stroke="chocolate" stroke-width="1">
    <line x1="169" y1="500" x2="206" y2="500"/>
    <circle cx="169" cy="500" r="2"/>
    <circle cx="206" cy="500" r="2"/>
  </g>
  <g stroke="chocolate" stroke-width="1">
    <line x1="169" y1="494" x2="206" y2="494"/>
    <circle cx="169" cy="494" r="2"/>
    <circle cx="206" cy="494" r="2"/>
  </g>
  <g stroke="chocolate" stroke-width="1">
    <line x1="169" y1="489" x2="205" y2="489"/>
    <circle cx="169" cy="489" r="2"/>
    <circle cx="205" cy="489" r="2"/>
  </g>
  <g stroke="chocolate" stroke-width="1">
    <line x1="169" y1="484" x2="205" y2="484"/>
    <circle cx="169" cy="484" r="2"/>
    <circle cx="205" cy="484" r="2"/>
  </g>
  <g stroke="chocolate" stroke-width="1">
    <line x1="168" y1="479" x2="204" y2="479"/>
    <circle cx="168" cy="479" r="2"/>
    <circle cx="204" cy="479" r="2"/>
  </g>
  <g stroke="chocolate" stroke-width="1">
    <line x1="169" y1="505" x2="153" y2="274"/>
    <circle cx="169" cy="505" r="2"/>
    <circle cx="153" cy="274" r="2"/>
  </g>
  <g stroke="chocolate" stroke-width="1">
    <line x1="169" y1="500" x2="153" y2="274"/>
    <circle cx="169" cy="500" r="2"/>
    <circle cx="153" cy="274" r="2"/>
  </g>
  <g stroke="chocolate" stroke-width="1">
    <line x1="169" y1="494" x2="153" y2="274"/>
    <circle cx="169" cy="494" r="2"/>
    <circle cx="153" cy="274" r="2"/>
  </g>
  <g stroke="chocolate" stroke-width="1">
    <line x1="169" y1="489" x2="153" y2="274"/>
    <circle cx="169" cy="489" r="2"/>
    <circle cx="153" cy="274" r="2"/>
  </g>
  <g stroke="chocolate" stroke-width="1">
    <line x1="169" y1="484" x2="154" y2="274"/>
    <circle cx="169" cy="484" r="2"/>
    <circle cx="154" cy="274" r="2"/>
  </g>
  <g stroke="chocolate" stroke-width="1">
    <line x1="204" y1="479" x2="187" y2="232"/>
    <circle cx="204" cy="479" r="2"/>
    <circle cx="187" cy="232" r="2"/>
  </g>
  <g stroke="chocolate" stroke-width="1">
    <line x1="205" y1="484" x2="187" y2="232"/>
    <circle cx="205" cy="484" r="2"/>
    <circle cx="187" cy="232" r="2"/>
  </g>
  <g stroke="chocolate" stroke-width="1">
    <line x1="205" y1="489" x2="187" y2="232"/>
    <circle cx="205" cy="489" r="2"/>
    <circle cx="187" cy="232" r="2"/>
  </g>
  <g stroke="chocolate" stroke-width="1">
    <line x1="206" y1="494" x2="187" y2="232"/>
    <circle cx="206" cy="494" r="2"/>
    <circle cx="187" cy="232" r="2"/>
  </g>
  <g stroke="chocolate" stroke-width="1">
    <line x1="206" y1="500" x2="187" y2="232"/>
    <circle cx="206" cy="500" r="2"/>
    <circle cx="187" cy="232" r="2"/>
  </g>
  <g stroke="chocolate" stroke-width="1">
    <line x1="203" y1="474" x2="171" y2="251"/>
    <circle cx="203" cy="474" r="2"/>
    <circle cx="171" cy="251" r="2"/>
  </g>
  <g stroke="chocolate" stroke-width="1">
    <line x1="153" y1="274" x2="357" y2="244"/>
    <circle cx="153" cy="274" r="2"/>
    <circle cx="357" cy="244" r="2"/>
  </g>
  <g stroke="chocolate" stroke-width="1">
    <line x1="153" y1="274" x2="357" y2="243"/>
    <circle cx="153" cy="274" r="2"/>
    <circle cx="357" cy="243" r="2"/>
  </g>
  <g stroke="chocolate" stroke-width="1">
    <line x1="153" y1="274" x2="357" y2="243"/>
    <circle cx="153" cy="274" r="2"/>
    <circle cx="357" cy="243" r="2"/>
  </g>
  <g stroke="chocolate" stroke-width="1">
    <line x1="153" y1="274" x2="357" y2="243"/>
    <circle cx="153" cy="274" r="2"/>
    <circle cx="357" cy="243" r="2"/>
  </g>
  <g stroke="chocolate" stroke-width="1">
    <line x1="154" y1="274" x2="356" y2="243"/>
    <circle cx="154" cy="274" r="2"/>
    <circle cx="356" cy="243" r="2"/>
  </g>
  <g stroke="chocolate" stroke-width="1">
    <line x1="187" y1="232" x2="325" y2="212"/>
    <circle cx="187" cy="232" r="2"/>
    <circle cx="325" cy="212" r="2"/>
  </g>
  <g stroke="chocolate" stroke-width="1">
    <line x1="187" y1="232" x2="325" y2="211"/>
    <circle cx="187" cy="232" r="2"/>
    <circle cx="325" cy="211" r="2"/>
  </g>
  <g stroke="chocolate" stroke-width="1">
    <line x1="187" y1="232" x2="325" y2="211"/>
    <circle cx="187" cy="232" r="2"/>
    <circle cx="325" cy="211" r="2"/>
  </g>
  <g stroke="chocolate" stroke-width="1">
    <line x1="187" y1="232" x2="325" y2="211"/>
    <circle cx="187" cy="232" r="2"/>
    <circle cx="325" cy="211" r="2"/>
  </g>
  <g stroke="chocolate" stroke-width="1">
    <line x1="187" y1="232" x2="324" y2="211"/>
    <circle cx="187" cy="232" r="2"/>
    <circle cx="324" cy="211" r="2"/>
  </g>
  <g stroke="chocolate" stroke-width="1">
    <line x1="171" y1="251" x2="351" y2="237"/>
    <circle cx="171" cy="251" r="2"/>
    <circle cx="351" cy="237" r="2"/>
  </g>
  <g stroke="chocolate" stroke-width="1">
    <line x1="344" y1="327" x2="308" y2="324"/>
    <circle cx="344" cy="327" r="2"/>
    <circle cx="308" cy="324" r="2"/>
  </g>
  <g stroke="chocolate" stroke-width="1">
    <line x1="345" y1="322" x2="309" y2="319"/>
    <circle cx="345" cy="322" r="2"/>
    <circle cx="309" cy="319" r="2"/>
  </g>
  <g stroke="chocolate" stroke-width="1">
    <line x1="346" y1="317" x2="309" y2="314"/>
    <circle cx="346" cy="317" r="2"/>
    <circle cx="309" cy="314" r="2"/>
  </g>
  <g stroke="chocolate" stroke-width="1">
    <line x1="347" y1="312" x2="310" y2="309"/>
    <circle cx="347" cy="312" r="2"/>
    <circle cx="310" cy="309" r="2"/>
  </g>
  <g stroke="chocolate" stroke-width="1">
    <line x1="348" y1="307" x2="310" y2="304"/>
    <circle cx="348" cy="307" r="2"/>
    <circle cx="310" cy="304" r="2"/>
  </g>
  <g stroke="chocolate" stroke-width="1">
    <line x1="343" y1="332" x2="308" y2="324"/>
    <circle cx="343" cy="332" r="2"/>
    <circle cx="308" cy="324" r="2"/>
  </g>
  <g stroke="chocolate" stroke-width="1">
    <line x1="344" y1="327" x2="309" y2="319"/>
    <circle cx="344" cy="327" r="2"/>
    <circle cx="309" cy="319" r="2"/>
  </g>
  <g stroke="chocolate" stroke-width="1">
    <line x1="345" y1="322" x2="309" y2="314"/>
    <circle cx="345" cy="322" r="2"/>
    <circle cx="309" cy="314" r="2"/>
  </g>
  <g stroke="chocolate" stroke-width="1">
    <line x1="346" y1="317" x2="310" y2="309"/>
    <circle cx="346" cy="317" r="2"/>
    <circle cx="310" cy="309" r="2"/>
  </g>
  <g stroke="chocolate" stroke-width="1">
    <line x1="347" y1="312" x2="310" y2="304"/>
    <circle cx="347" cy="312" r="2"/>
    <circle cx="310" cy="304" r="2"/>
  </g>
  <g stroke="chocolate" stroke-width="1">
    <line x1="348" y1="307" x2="216" y2="277"/>
    <circle cx="348" cy="307" r="2"/>
    <circle cx="216" cy="277" r="2"/>
  </g>
  <g stroke="chocolate" stroke-width="1">
    <line x1="243" y1="155" x2="268" y2="155"/>
    <circle cx="243" cy="155" r="2"/>
    <circle cx="268" cy="155" r="2"/>
  </g>
  <g stroke="chocolate" stroke-width="1">
    <line x1="357" y1="244" x2="257" y2="144"/>
    <circle cx="357" cy="244" r="2"/>
    <circle cx="257" cy="144" r="2"/>
  </g>
  <g stroke="black" stroke-width="1">
    <line x1="5" y1="5" x2="505" y2="5"/>
    <line x1="5" y1="5" x2="5" y2="505"/>
    <line x1="505" y1="505" x2="5" y2="505"/>
    <line x1="505" y1="505" x2="505" y2="5"/>
    <line x1="105" y1="2" x2="105" y2="8"/>
    <line x1="2" y1="105" x2="8" y2="105"/>
    <line x1="105" y1="502" x2="105" y2="508"/>
    <line x1="502" y1="105" x2="508" y2="105"/>
    <line x1="205" y1="2" x2="205" y2="8"/>
    <line x1="2" y1="205" x2="8" y2="205"/>
    <line x1="205" y1="502" x2="205" y2="508"/>
    <line x1="502" y1="205" x2="508" y2="205"/>
    <line x1="305" y1="2" x2="305" y2="8"/>
    <line x1="2" y1="305" x2="8" y2="305"/>
    <line x1="305" y1="502" x2="305" y2="508"/>
    <line x1="502" y1="305" x2="508" y2="305"/>
    <line x1="405" y1="2" x2="405" y2="8"/>
    <line x1="2" y1="405" x2="8" y2="405"/>
    <line x1="405" y1="502" x2="405" y2="508"/>
    <line x1="502" y1="405" x2="508" y2="405"/>
  </g>
  <g stroke="gray" stroke-width="1" stroke-dasharray="5,5">
    <line x1="105" y1="5" x2="105" y2="505"/>
    <line x1="5" y1="105" x2="505" y2="105"/>
    <line x1="205" y1="5" x2="205" y2="505"/>
    <line x1="5" y1="205" x2="505" y2="205"/>
    <line x1="305" y1="5" x2="305" y2="505"/>
    <line x1="5" y1="305" x2="505" y2="305"/>
    <line x1="405" y1="5" x2="405" y2="505"/>
    <line x1="5" y1="405" x2="505" y2="405"/>
  </g>
</svg>
