<?xml version="1.0" standalone="no"?>
<!DOCTYPE svg PUBLIC "-//W3C//DTD SVG 1.1//EN" 
  "http://www.w3.org/Graphics/SVG/1.1/DTD/svg11.dtd">
<svg width="566" height="566" version="1.1" id="toplevel"
    xmlns="http://www.w3.org/2000/svg"
    xmlns:xlink="http://www.w3.org/1999/xlink">
  <polygon points="255,561 501,479 341,5 285,24 65,407" fill="bisque"/>
  <g stroke="chocolate" stroke-width="1">
    <line x1="65" y1="407" x2="285" y2="24"/>
    <circle cx="65" cy="407" r="2"/>
    <circle cx="285" cy="24" r="2"/>
  </g>
  <g stroke="chocolate" stroke-width="1">
    <line x1="255" y1="561" x2="284" y2="322"/>
    <circle cx="255" cy="561" r="2"/>
    <circle cx="284" cy="322" r="2"/>
  </g>
  <g stroke="chocolate" stroke-width="1">
    <line x1="255" y1="561" x2="501" y2="479"/>
    <circle cx="255" cy="561" r="2"/>
    <circle cx="501" cy="479" r="2"/>
  </g>
  <g stroke="chocolate" stroke-width="1">
    <line x1="65" y1="407" x2="175" y2="309"/>
    <circle cx="65" cy="407" r="2"/>
    <circle cx="175" cy="309" r="2"/>
  </g>
  <g stroke="chocolate" stroke-width="1">
    <line x1="175" y1="496" x2="175" y2="309"/>
    <circle cx="175" cy="496" r="2"/>
    <circle cx="175" cy="309" r="2"/>
  </g>
  <g stroke="chocolate" stroke-width="1">
    <line x1="175" y1="496" x2="375" y2="455"/>
    <circle cx="175" cy="496" r="2"/>
    <circle cx="375" cy="455" r="2"/>
  </g>
  <g stroke="chocolate" stroke-width="1">
    <line x1="375" y1="455" x2="285" y2="24"/>
    <circle cx="375" cy="455" r="2"/>
    <circle cx="285" cy="24" r="2"/>
  </g>
  <g stroke="chocolate" stroke-width="1">
    <line x1="501" y1="479" x2="341" y2="5"/>
    <circle cx="501" cy="479" r="2"/>
    <circle cx="341" cy="5" r="2"/>
  </g>
  <g stroke="chocolate" stroke-width="1">
    <line x1="255" y1="561" x2="65" y2="407"/>
    <circle cx="255" cy="561" r="2"/>
    <circle cx="65" cy="407" r="2"/>
  </g>
  <g stroke="chocolate" stroke-width="1">
    <line x1="285" y1="24" x2="341" y2="5"/>
    <circle cx="285" cy="24" r="2"/>
    <circle cx="341" cy="5" r="2"/>
  </g>
  <g stroke="chocolate" stroke-width="1">
    <line x1="284" y1="322" x2="175" y2="309"/>
    <circle cx="284" cy="322" r="2"/>
    <circle cx="175" cy="309" r="2"/>
  </g>
  <g stroke="black" stroke-width="1">
    <line x1="33" y1="33" x2="533" y2="33"/>
    <line x1="33" y1="33" x2="33" y2="533"/>
    <line x1="533" y1="533" x2="33" y2="533"/>
    <line x1="533" y1="533" x2="533" y2="33"/>
    <line x1="133" y1="30" x2="133" y2="36"/>
    <line x1="30" y1="133" x2="36" y2="133"/>
    <line x1="133" y1="530" x2="133" y2="536"/>
    <line x1="530" y1="133" x2="536" y2="133"/>
    <line x1="233" y1="30" x2="233" y2="36"/>
    <line x1="30" y1="233" x2="36" y2="233"/>
    <line x1="233" y1="530" x2="233" y2="536"/>
    <line x1="530" y1="233" x2="536" y2="233"/>
    <line x1="333" y1="30" x2="333" y2="36"/>
    <line x1="30" y1="333" x2="36" y2="333"/>
    <line x1="333" y1="530" x2="333" y2="536"/>
    <line x1="530" y1="333" x2="536" y2="333"/>
    <line x1="433" y1="30" x2="433" y2="36"/>
    <line x1="30" y1="433" x2="36" y2="433"/>
    <line x1="433" y1="530" x2="433" y2="536"/>
    <line x1="530" y1="433" x2="536" y2="433"/>
  </g>
  <g stroke="gray" stroke-width="1" stroke-dasharray="5,5">
    <line x1="133" y1="33" x2="133" y2="533"/>
    <line x1="33" y1="133" x2="533" y2="133"/>
    <line x1="233" y1="33" x2="233" y2="533"/>
    <line x1="33" y1="233" x2="533" y2="233"/>
    <line x1="333" y1="33" x2="333" y2="533"/>
    <line x1="33" y1="333" x2="533" y2="333"/>
    <line x1="433" y1="33" x2="433" y2="533"/>
    <line x1="33" y1="433" x2="533" y2="433"/>
  </g>
</svg>
