<?xml version="1.0" standalone="no"?>
<!DOCTYPE svg PUBLIC "-//W3C//DTD SVG 1.1//EN" 
  "http://www.w3.org/Graphics/SVG/1.1/DTD/svg11.dtd">
<svg width="512" height="512" version="1.1" id="toplevel"
    xmlns="http://www.w3.org/2000/svg"
    xmlns:xlink="http://www.w3.org/1999/xlink">
  <polygon points="6,507 422,507 491,6 488,6 488,6 484,5 484,7 6,7"
           fill="bisque"/>
  <g stroke="chocolate" stroke-width="1">
    <line x1="378" y1="494" x2="488" y2="6"/>
    <circle cx="378" cy="494" r="2"/>
    <circle cx="488" cy="6" r="2"/>
  </g>
  <g stroke="chocolate" stroke-width="1">
    <line x1="416" y1="500" x2="457" y2="257"/>
    <circle cx="416" cy="500" r="2"/>
    <circle cx="457" cy="257" r="2"/>
  </g>
  <g stroke="chocolate" stroke-width="1">
    <line x1="422" y1="507" x2="491" y2="6"/>
    <circle cx="422" cy="507" r="2"/>
    <circle cx="491" cy="6" r="2"/>
  </g>
  <g stroke="chocolate" stroke-width="1">
    <line x1="457" y1="257" x2="484" y2="5"/>
    <circle cx="457" cy="257" r="2"/>
    <circle cx="484" cy="5" r="2"/>
  </g>
  <g stroke="chocolate" stroke-width="1">
    <line x1="6" y1="507" x2="422" y2="507"/>
    <circle cx="6" cy="507" r="2"/>
    <circle cx="422" cy="507" r="2"/>
  </g>
  <g stroke="chocolate" stroke-width="1">
    <line x1="6" y1="507" x2="6" y2="7"/>
    <circle cx="6" cy="507" r="2"/>
    <circle cx="6" cy="7" r="2"/>
  </g>
  <g stroke="chocolate" stroke-width="1">
    <line x1="416" y1="500" x2="378" y2="494"/>
    <circle cx="416" cy="500" r="2"/>
    <circle cx="378" cy="494" r="2"/>
  </g>
  <g stroke="chocolate" stroke-width="1">
    <line x1="422" y1="507" x2="378" y2="494"/>
    <circle cx="422" cy="507" r="2"/>
    <circle cx="378" cy="494" r="2"/>
  </g>
  <g stroke="chocolate" stroke-width="1">
    <line x1="6" y1="7" x2="491" y2="7"/>
    <circle cx="6" cy="7" r="2"/>
    <circle cx="491" cy="7" r="2"/>
  </g>
  <g stroke="chocolate" stroke-width="1">
    <line x1="491" y1="6" x2="484" y2="5"/>
    <circle cx="491" cy="6" r="2"/>
    <circle cx="484" cy="5" r="2"/>
  </g>
  <g stroke="chocolate" stroke-width="1">
    <line x1="491" y1="6" x2="488" y2="6"/>
    <circle cx="491" cy="6" r="2"/>
    <circle cx="488" cy="6" r="2"/>
  </g>
  <g stroke="chocolate" stroke-width="1">
    <line x1="491" y1="7" x2="488" y2="6"/>
    <circle cx="491" cy="7" r="2"/>
    <circle cx="488" cy="6" r="2"/>
  </g>
  <g stroke="black" stroke-width="1">
    <line x1="6" y1="6" x2="506" y2="6"/>
    <line x1="6" y1="6" x2="6" y2="506"/>
    <line x1="506" y1="506" x2="6" y2="506"/>
    <line x1="506" y1="506" x2="506" y2="6"/>
    <line x1="106" y1="3" x2="106" y2="9"/>
    <line x1="3" y1="106" x2="9" y2="106"/>
    <line x1="106" y1="503" x2="106" y2="509"/>
    <line x1="503" y1="106" x2="509" y2="106"/>
    <line x1="206" y1="3" x2="206" y2="9"/>
    <line x1="3" y1="206" x2="9" y2="206"/>
    <line x1="206" y1="503" x2="206" y2="509"/>
    <line x1="503" y1="206" x2="509" y2="206"/>
    <line x1="306" y1="3" x2="306" y2="9"/>
    <line x1="3" y1="306" x2="9" y2="306"/>
    <line x1="306" y1="503" x2="306" y2="509"/>
    <line x1="503" y1="306" x2="509" y2="306"/>
    <line x1="406" y1="3" x2="406" y2="9"/>
    <line x1="3" y1="406" x2="9" y2="406"/>
    <line x1="406" y1="503" x2="406" y2="509"/>
    <line x1="503" y1="406" x2="509" y2="406"/>
  </g>
  <g stroke="gray" stroke-width="1" stroke-dasharray="5,5">
    <line x1="106" y1="6" x2="106" y2="506"/>
    <line x1="6" y1="106" x2="506" y2="106"/>
    <line x1="206" y1="6" x2="206" y2="506"/>
    <line x1="6" y1="206" x2="506" y2="206"/>
    <line x1="306" y1="6" x2="306" y2="506"/>
    <line x1="6" y1="306" x2="506" y2="306"/>
    <line x1="406" y1="6" x2="406" y2="506"/>
    <line x1="6" y1="406" x2="506" y2="406"/>
  </g>
</svg>
