<?xml version="1.0" standalone="no"?>
<!DOCTYPE svg PUBLIC "-//W3C//DTD SVG 1.1//EN" 
  "http://www.w3.org/Graphics/SVG/1.1/DTD/svg11.dtd">
<svg width="558" height="558" version="1.1" id="toplevel"
    xmlns="http://www.w3.org/2000/svg"
    xmlns:xlink="http://www.w3.org/1999/xlink">
  <polygon points="56,518 542,256 553,247 460,44 333,102 321,95 309,113 5,252 69,392 56,396 56,499 47,512"
           fill="bisque"/>
  <g stroke="chocolate" stroke-width="1">
    <line x1="542" y1="256" x2="553" y2="247"/>
    <circle cx="542" cy="256" r="2"/>
    <circle cx="553" cy="247" r="2"/>
  </g>
  <g stroke="chocolate" stroke-width="1">
    <line x1="56" y1="518" x2="56" y2="396"/>
    <circle cx="56" cy="518" r="2"/>
    <circle cx="56" cy="396" r="2"/>
  </g>
  <g stroke="chocolate" stroke-width="1">
    <line x1="56" y1="518" x2="47" y2="512"/>
    <circle cx="56" cy="518" r="2"/>
    <circle cx="47" cy="512" r="2"/>
  </g>
  <g stroke="chocolate" stroke-width="1">
    <line x1="56" y1="518" x2="542" y2="256"/>
    <circle cx="56" cy="518" r="2"/>
    <circle cx="542" cy="256" r="2"/>
  </g>
  <g stroke="chocolate" stroke-width="1">
    <line x1="47" y1="512" x2="321" y2="95"/>
    <circle cx="47" cy="512" r="2"/>
    <circle cx="321" cy="95" r="2"/>
  </g>
  <g stroke="chocolate" stroke-width="1">
    <line x1="113" y1="487" x2="5" y2="252"/>
    <circle cx="113" cy="487" r="2"/>
    <circle cx="5" cy="252" r="2"/>
  </g>
  <g stroke="chocolate" stroke-width="1">
    <line x1="113" y1="487" x2="56" y2="396"/>
    <circle cx="113" cy="487" r="2"/>
    <circle cx="56" cy="396" r="2"/>
  </g>
  <g stroke="chocolate" stroke-width="1">
    <line x1="56" y1="396" x2="542" y2="256"/>
    <circle cx="56" cy="396" r="2"/>
    <circle cx="542" cy="256" r="2"/>
  </g>
  <g stroke="chocolate" stroke-width="1">
    <line x1="553" y1="247" x2="460" y2="44"/>
    <circle cx="553" cy="247" r="2"/>
    <circle cx="460" cy="44" r="2"/>
  </g>
  <g stroke="chocolate" stroke-width="1">
    <line x1="5" y1="252" x2="460" y2="44"/>
    <circle cx="5" cy="252" r="2"/>
    <circle cx="460" cy="44" r="2"/>
  </g>
  <g stroke="chocolate" stroke-width="1">
    <line x1="553" y1="247" x2="321" y2="95"/>
    <circle cx="553" cy="247" r="2"/>
    <circle cx="321" cy="95" r="2"/>
  </g>
  <g stroke="black" stroke-width="1">
    <line x1="29" y1="29" x2="529" y2="29"/>
    <line x1="29" y1="29" x2="29" y2="529"/>
    <line x1="529" y1="529" x2="29" y2="529"/>
    <line x1="529" y1="529" x2="529" y2="29"/>
    <line x1="129" y1="26" x2="129" y2="32"/>
    <line x1="26" y1="129" x2="32" y2="129"/>
    <line x1="129" y1="526" x2="129" y2="532"/>
    <line x1="526" y1="129" x2="532" y2="129"/>
    <line x1="229" y1="26" x2="229" y2="32"/>
    <line x1="26" y1="229" x2="32" y2="229"/>
    <line x1="229" y1="526" x2="229" y2="532"/>
    <line x1="526" y1="229" x2="532" y2="229"/>
    <line x1="329" y1="26" x2="329" y2="32"/>
    <line x1="26" y1="329" x2="32" y2="329"/>
    <line x1="329" y1="526" x2="329" y2="532"/>
    <line x1="526" y1="329" x2="532" y2="329"/>
    <line x1="429" y1="26" x2="429" y2="32"/>
    <line x1="26" y1="429" x2="32" y2="429"/>
    <line x1="429" y1="526" x2="429" y2="532"/>
    <line x1="526" y1="429" x2="532" y2="429"/>
  </g>
  <g stroke="gray" stroke-width="1" stroke-dasharray="5,5">
    <line x1="129" y1="29" x2="129" y2="529"/>
    <line x1="29" y1="129" x2="529" y2="129"/>
    <line x1="229" y1="29" x2="229" y2="529"/>
    <line x1="29" y1="229" x2="529" y2="229"/>
    <line x1="329" y1="29" x2="329" y2="529"/>
    <line x1="29" y1="329" x2="529" y2="329"/>
    <line x1="429" y1="29" x2="429" y2="529"/>
    <line x1="29" y1="429" x2="529" y2="429"/>
  </g>
</svg>
