<?xml version="1.0" standalone="no"?>
<!DOCTYPE svg PUBLIC "-//W3C//DTD SVG 1.1//EN" 
  "http://www.w3.org/Graphics/SVG/1.1/DTD/svg11.dtd">
<svg width="510" height="510" version="1.1" id="toplevel"
    xmlns="http://www.w3.org/2000/svg"
    xmlns:xlink="http://www.w3.org/1999/xlink">
  <polygon points="177,505 276,505 276,309 302,315 301,320 301,320 300,326 301,326 300,331 300,331 299,336 299,336 299,341 333,349 334,346 335,339 335,339 336,334 336,334 337,328 337,328 338,323 338,323 350,246 257,153 234,172 231,186 160,274"
           fill="bisque"/>
  <g stroke="chocolate" stroke-width="1">
    <line x1="333" y1="349" x2="334" y2="346"/>
    <circle cx="333" cy="349" r="2"/>
    <circle cx="334" cy="346" r="2"/>
  </g>
  <g stroke="chocolate" stroke-width="1">
    <line x1="160" y1="274" x2="257" y2="153"/>
    <circle cx="160" cy="274" r="2"/>
    <circle cx="257" cy="153" r="2"/>
  </g>
  <g stroke="chocolate" stroke-width="1">
    <line x1="207" y1="294" x2="234" y2="172"/>
    <circle cx="207" cy="294" r="2"/>
    <circle cx="234" cy="172" r="2"/>
  </g>
  <g stroke="chocolate" stroke-width="1">
    <line x1="338" y1="323" x2="350" y2="246"/>
    <circle cx="338" cy="323" r="2"/>
    <circle cx="350" cy="246" r="2"/>
  </g>
  <g stroke="chocolate" stroke-width="1">
    <line x1="337" y1="328" x2="350" y2="246"/>
    <circle cx="337" cy="328" r="2"/>
    <circle cx="350" cy="246" r="2"/>
  </g>
  <g stroke="chocolate" stroke-width="1">
    <line x1="336" y1="334" x2="350" y2="245"/>
    <circle cx="336" cy="334" r="2"/>
    <circle cx="350" cy="245" r="2"/>
  </g>
  <g stroke="chocolate" stroke-width="1">
    <line x1="335" y1="339" x2="349" y2="245"/>
    <circle cx="335" cy="339" r="2"/>
    <circle cx="349" cy="245" r="2"/>
  </g>
  <g stroke="chocolate" stroke-width="1">
    <line x1="334" y1="346" x2="349" y2="245"/>
    <circle cx="334" cy="346" r="2"/>
    <circle cx="349" cy="245" r="2"/>
  </g>
  <g stroke="chocolate" stroke-width="1">
    <line x1="299" y1="341" x2="318" y2="214"/>
    <circle cx="299" cy="341" r="2"/>
    <circle cx="318" cy="214" r="2"/>
  </g>
  <g stroke="chocolate" stroke-width="1">
    <line x1="299" y1="336" x2="318" y2="214"/>
    <circle cx="299" cy="336" r="2"/>
    <circle cx="318" cy="214" r="2"/>
  </g>
  <g stroke="chocolate" stroke-width="1">
    <line x1="300" y1="331" x2="317" y2="213"/>
    <circle cx="300" cy="331" r="2"/>
    <circle cx="317" cy="213" r="2"/>
  </g>
  <g stroke="chocolate" stroke-width="1">
    <line x1="300" y1="326" x2="317" y2="213"/>
    <circle cx="300" cy="326" r="2"/>
    <circle cx="317" cy="213" r="2"/>
  </g>
  <g stroke="chocolate" stroke-width="1">
    <line x1="301" y1="320" x2="317" y2="213"/>
    <circle cx="301" cy="320" r="2"/>
    <circle cx="317" cy="213" r="2"/>
  </g>
  <g stroke="chocolate" stroke-width="1">
    <line x1="177" y1="505" x2="214" y2="500"/>
    <circle cx="177" cy="505" r="2"/>
    <circle cx="214" cy="500" r="2"/>
  </g>
  <g stroke="chocolate" stroke-width="1">
    <line x1="176" y1="500" x2="213" y2="494"/>
    <circle cx="176" cy="500" r="2"/>
    <circle cx="213" cy="494" r="2"/>
  </g>
  <g stroke="chocolate" stroke-width="1">
    <line x1="176" y1="494" x2="212" y2="489"/>
    <circle cx="176" cy="494" r="2"/>
    <circle cx="212" cy="489" r="2"/>
  </g>
  <g stroke="chocolate" stroke-width="1">
    <line x1="334" y1="346" x2="342" y2="238"/>
    <circle cx="334" cy="346" r="2"/>
    <circle cx="342" cy="238" r="2"/>
  </g>
  <g stroke="chocolate" stroke-width="1">
    <line x1="176" y1="489" x2="212" y2="484"/>
    <circle cx="176" cy="489" r="2"/>
    <circle cx="212" cy="484" r="2"/>
  </g>
  <g stroke="chocolate" stroke-width="1">
    <line x1="176" y1="484" x2="211" y2="479"/>
    <circle cx="176" cy="484" r="2"/>
    <circle cx="211" cy="479" r="2"/>
  </g>
  <g stroke="chocolate" stroke-width="1">
    <line x1="175" y1="479" x2="211" y2="474"/>
    <circle cx="175" cy="479" r="2"/>
    <circle cx="211" cy="474" r="2"/>
  </g>
  <g stroke="chocolate" stroke-width="1">
    <line x1="234" y1="172" x2="257" y2="153"/>
    <circle cx="234" cy="172" r="2"/>
    <circle cx="257" cy="153" r="2"/>
  </g>
  <g stroke="chocolate" stroke-width="1">
    <line x1="177" y1="505" x2="276" y2="505"/>
    <circle cx="177" cy="505" r="2"/>
    <circle cx="276" cy="505" r="2"/>
  </g>
  <g stroke="chocolate" stroke-width="1">
    <line x1="276" y1="505" x2="276" y2="172"/>
    <circle cx="276" cy="505" r="2"/>
    <circle cx="276" cy="172" r="2"/>
  </g>
  <g stroke="chocolate" stroke-width="1">
    <line x1="176" y1="500" x2="214" y2="500"/>
    <circle cx="176" cy="500" r="2"/>
    <circle cx="214" cy="500" r="2"/>
  </g>
  <g stroke="chocolate" stroke-width="1">
    <line x1="176" y1="494" x2="213" y2="494"/>
    <circle cx="176" cy="494" r="2"/>
    <circle cx="213" cy="494" r="2"/>
  </g>
  <g stroke="chocolate" stroke-width="1">
    <line x1="176" y1="489" x2="212" y2="489"/>
    <circle cx="176" cy="489" r="2"/>
    <circle cx="212" cy="489" r="2"/>
  </g>
  <g stroke="chocolate" stroke-width="1">
    <line x1="176" y1="484" x2="212" y2="484"/>
    <circle cx="176" cy="484" r="2"/>
    <circle cx="212" cy="484" r="2"/>
  </g>
  <g stroke="chocolate" stroke-width="1">
    <line x1="175" y1="479" x2="211" y2="479"/>
    <circle cx="175" cy="479" r="2"/>
    <circle cx="211" cy="479" r="2"/>
  </g>
  <g stroke="chocolate" stroke-width="1">
    <line x1="177" y1="505" x2="160" y2="274"/>
    <circle cx="177" cy="505" r="2"/>
    <circle cx="160" cy="274" r="2"/>
  </g>
  <g stroke="chocolate" stroke-width="1">
    <line x1="176" y1="500" x2="160" y2="274"/>
    <circle cx="176" cy="500" r="2"/>
    <circle cx="160" cy="274" r="2"/>
  </g>
  <g stroke="chocolate" stroke-width="1">
    <line x1="176" y1="494" x2="160" y2="274"/>
    <circle cx="176" cy="494" r="2"/>
    <circle cx="160" cy="274" r="2"/>
  </g>
  <g stroke="chocolate" stroke-width="1">
    <line x1="176" y1="489" x2="161" y2="274"/>
    <circle cx="176" cy="489" r="2"/>
    <circle cx="161" cy="274" r="2"/>
  </g>
  <g stroke="chocolate" stroke-width="1">
    <line x1="176" y1="484" x2="161" y2="274"/>
    <circle cx="176" cy="484" r="2"/>
    <circle cx="161" cy="274" r="2"/>
  </g>
  <g stroke="chocolate" stroke-width="1">
    <line x1="211" y1="479" x2="194" y2="232"/>
    <circle cx="211" cy="479" r="2"/>
    <circle cx="194" cy="232" r="2"/>
  </g>
  <g stroke="chocolate" stroke-width="1">
    <line x1="212" y1="484" x2="194" y2="232"/>
    <circle cx="212" cy="484" r="2"/>
    <circle cx="194" cy="232" r="2"/>
  </g>
  <g stroke="chocolate" stroke-width="1">
    <line x1="212" y1="489" x2="194" y2="232"/>
    <circle cx="212" cy="489" r="2"/>
    <circle cx="194" cy="232" r="2"/>
  </g>
  <g stroke="chocolate" stroke-width="1">
    <line x1="213" y1="494" x2="194" y2="232"/>
    <circle cx="213" cy="494" r="2"/>
    <circle cx="194" cy="232" r="2"/>
  </g>
  <g stroke="chocolate" stroke-width="1">
    <line x1="214" y1="500" x2="194" y2="232"/>
    <circle cx="214" cy="500" r="2"/>
    <circle cx="194" cy="232" r="2"/>
  </g>
  <g stroke="chocolate" stroke-width="1">
    <line x1="211" y1="474" x2="179" y2="251"/>
    <circle cx="211" cy="474" r="2"/>
    <circle cx="179" cy="251" r="2"/>
  </g>
  <g stroke="chocolate" stroke-width="1">
    <line x1="160" y1="274" x2="350" y2="246"/>
    <circle cx="160" cy="274" r="2"/>
    <circle cx="350" cy="246" r="2"/>
  </g>
  <g stroke="chocolate" stroke-width="1">
    <line x1="160" y1="274" x2="350" y2="246"/>
    <circle cx="160" cy="274" r="2"/>
    <circle cx="350" cy="246" r="2"/>
  </g>
  <g stroke="chocolate" stroke-width="1">
    <line x1="160" y1="274" x2="350" y2="245"/>
    <circle cx="160" cy="274" r="2"/>
    <circle cx="350" cy="245" r="2"/>
  </g>
  <g stroke="chocolate" stroke-width="1">
    <line x1="161" y1="274" x2="349" y2="245"/>
    <circle cx="161" cy="274" r="2"/>
    <circle cx="349" cy="245" r="2"/>
  </g>
  <g stroke="chocolate" stroke-width="1">
    <line x1="161" y1="274" x2="349" y2="245"/>
    <circle cx="161" cy="274" r="2"/>
    <circle cx="349" cy="245" r="2"/>
  </g>
  <g stroke="chocolate" stroke-width="1">
    <line x1="334" y1="344" x2="299" y2="341"/>
    <circle cx="334" cy="344" r="2"/>
    <circle cx="299" cy="341" r="2"/>
  </g>
  <g stroke="chocolate" stroke-width="1">
    <line x1="194" y1="232" x2="318" y2="214"/>
    <circle cx="194" cy="232" r="2"/>
    <circle cx="318" cy="214" r="2"/>
  </g>
  <g stroke="chocolate" stroke-width="1">
    <line x1="194" y1="232" x2="318" y2="214"/>
    <circle cx="194" cy="232" r="2"/>
    <circle cx="318" cy="214" r="2"/>
  </g>
  <g stroke="chocolate" stroke-width="1">
    <line x1="194" y1="232" x2="317" y2="213"/>
    <circle cx="194" cy="232" r="2"/>
    <circle cx="317" cy="213" r="2"/>
  </g>
  <g stroke="chocolate" stroke-width="1">
    <line x1="194" y1="232" x2="317" y2="213"/>
    <circle cx="194" cy="232" r="2"/>
    <circle cx="317" cy="213" r="2"/>
  </g>
  <g stroke="chocolate" stroke-width="1">
    <line x1="194" y1="232" x2="317" y2="213"/>
    <circle cx="194" cy="232" r="2"/>
    <circle cx="317" cy="213" r="2"/>
  </g>
  <g stroke="chocolate" stroke-width="1">
    <line x1="335" y1="339" x2="299" y2="336"/>
    <circle cx="335" cy="339" r="2"/>
    <circle cx="299" cy="336" r="2"/>
  </g>
  <g stroke="chocolate" stroke-width="1">
    <line x1="336" y1="334" x2="300" y2="331"/>
    <circle cx="336" cy="334" r="2"/>
    <circle cx="300" cy="331" r="2"/>
  </g>
  <g stroke="chocolate" stroke-width="1">
    <line x1="337" y1="328" x2="300" y2="326"/>
    <circle cx="337" cy="328" r="2"/>
    <circle cx="300" cy="326" r="2"/>
  </g>
  <g stroke="chocolate" stroke-width="1">
    <line x1="179" y1="251" x2="342" y2="238"/>
    <circle cx="179" cy="251" r="2"/>
    <circle cx="342" cy="238" r="2"/>
  </g>
  <g stroke="chocolate" stroke-width="1">
    <line x1="338" y1="323" x2="301" y2="320"/>
    <circle cx="338" cy="323" r="2"/>
    <circle cx="301" cy="320" r="2"/>
  </g>
  <g stroke="chocolate" stroke-width="1">
    <line x1="333" y1="349" x2="299" y2="341"/>
    <circle cx="333" cy="349" r="2"/>
    <circle cx="299" cy="341" r="2"/>
  </g>
  <g stroke="chocolate" stroke-width="1">
    <line x1="334" y1="344" x2="299" y2="336"/>
    <circle cx="334" cy="344" r="2"/>
    <circle cx="299" cy="336" r="2"/>
  </g>
  <g stroke="chocolate" stroke-width="1">
    <line x1="335" y1="339" x2="300" y2="331"/>
    <circle cx="335" cy="339" r="2"/>
    <circle cx="300" cy="331" r="2"/>
  </g>
  <g stroke="chocolate" stroke-width="1">
    <line x1="336" y1="334" x2="300" y2="326"/>
    <circle cx="336" cy="334" r="2"/>
    <circle cx="300" cy="326" r="2"/>
  </g>
  <g stroke="chocolate" stroke-width="1">
    <line x1="337" y1="328" x2="301" y2="320"/>
    <circle cx="337" cy="328" r="2"/>
    <circle cx="301" cy="320" r="2"/>
  </g>
  <g stroke="chocolate" stroke-width="1">
    <line x1="338" y1="323" x2="207" y2="294"/>
    <circle cx="338" cy="323" r="2"/>
    <circle cx="207" cy="294" r="2"/>
  </g>
  <g stroke="chocolate" stroke-width="1">
    <line x1="234" y1="172" x2="276" y2="172"/>
    <circle cx="234" cy="172" r="2"/>
    <circle cx="276" cy="172" r="2"/>
  </g>
  <g stroke="chocolate" stroke-width="1">
    <line x1="350" y1="246" x2="257" y2="153"/>
    <circle cx="350" cy="246" r="2"/>
    <circle cx="257" cy="153" r="2"/>
  </g>
  <g stroke="black" stroke-width="1">
    <line x1="5" y1="5" x2="505" y2="5"/>
    <line x1="5" y1="5" x2="5" y2="505"/>
    <line x1="505" y1="505" x2="5" y2="505"/>
    <line x1="505" y1="505" x2="505" y2="5"/>
    <line x1="105" y1="2" x2="105" y2="8"/>
    <line x1="2" y1="105" x2="8" y2="105"/>
    <line x1="105" y1="502" x2="105" y2="508"/>
    <line x1="502" y1="105" x2="508" y2="105"/>
    <line x1="205" y1="2" x2="205" y2="8"/>
    <line x1="2" y1="205" x2="8" y2="205"/>
    <line x1="205" y1="502" x2="205" y2="508"/>
    <line x1="502" y1="205" x2="508" y2="205"/>
    <line x1="305" y1="2" x2="305" y2="8"/>
    <line x1="2" y1="305" x2="8" y2="305"/>
    <line x1="305" y1="502" x2="305" y2="508"/>
    <line x1="502" y1="305" x2="508" y2="305"/>
    <line x1="405" y1="2" x2="405" y2="8"/>
    <line x1="2" y1="405" x2="8" y2="405"/>
    <line x1="405" y1="502" x2="405" y2="508"/>
    <line x1="502" y1="405" x2="508" y2="405"/>
  </g>
  <g stroke="gray" stroke-width="1" stroke-dasharray="5,5">
    <line x1="105" y1="5" x2="105" y2="505"/>
    <line x1="5" y1="105" x2="505" y2="105"/>
    <line x1="205" y1="5" x2="205" y2="505"/>
    <line x1="5" y1="205" x2="505" y2="205"/>
    <line x1="305" y1="5" x2="305" y2="505"/>
    <line x1="5" y1="305" x2="505" y2="305"/>
    <line x1="405" y1="5" x2="405" y2="505"/>
    <line x1="5" y1="405" x2="505" y2="405"/>
  </g>
</svg>
