<?xml version="1.0" standalone="no"?>
<!DOCTYPE svg PUBLIC "-//W3C//DTD SVG 1.1//EN" 
  "http://www.w3.org/Graphics/SVG/1.1/DTD/svg11.dtd">
<svg width="510" height="510" version="1.1" id="toplevel"
    xmlns="http://www.w3.org/2000/svg"
    xmlns:xlink="http://www.w3.org/1999/xlink">
  <polygon points="204,413 306,413 390,353 420,255 390,157 306,97 204,97 120,157 90,255 120,353"
           fill="bisque"/>
  <g stroke="chocolate" stroke-width="1">
    <line x1="377" y1="318" x2="420" y2="255"/>
    <circle cx="377" cy="318" r="2"/>
    <circle cx="420" cy="255" r="2"/>
  </g>
  <g stroke="chocolate" stroke-width="1">
    <line x1="390" y1="353" x2="420" y2="255"/>
    <circle cx="390" cy="353" r="2"/>
    <circle cx="420" cy="255" r="2"/>
  </g>
  <g stroke="chocolate" stroke-width="1">
    <line x1="306" y1="413" x2="390" y2="353"/>
    <circle cx="306" cy="413" r="2"/>
    <circle cx="390" cy="353" r="2"/>
  </g>
  <g stroke="chocolate" stroke-width="1">
    <line x1="306" y1="413" x2="342" y2="305"/>
    <circle cx="306" cy="413" r="2"/>
    <circle cx="342" cy="305" r="2"/>
  </g>
  <g stroke="chocolate" stroke-width="1">
    <line x1="327" y1="158" x2="338" y2="119"/>
    <circle cx="327" cy="158" r="2"/>
    <circle cx="338" cy="119" r="2"/>
  </g>
  <g stroke="chocolate" stroke-width="1">
    <line x1="192" y1="405" x2="204" y2="388"/>
    <circle cx="192" cy="405" r="2"/>
    <circle cx="204" cy="388" r="2"/>
  </g>
  <g stroke="chocolate" stroke-width="1">
    <line x1="192" y1="405" x2="234" y2="351"/>
    <circle cx="192" cy="405" r="2"/>
    <circle cx="234" cy="351" r="2"/>
  </g>
  <g stroke="chocolate" stroke-width="1">
    <line x1="199" y1="410" x2="219" y2="358"/>
    <circle cx="199" cy="410" r="2"/>
    <circle cx="219" cy="358" r="2"/>
  </g>
  <g stroke="chocolate" stroke-width="1">
    <line x1="199" y1="410" x2="249" y2="369"/>
    <circle cx="199" cy="410" r="2"/>
    <circle cx="249" cy="369" r="2"/>
  </g>
  <g stroke="chocolate" stroke-width="1">
    <line x1="172" y1="391" x2="183" y2="352"/>
    <circle cx="172" cy="391" r="2"/>
    <circle cx="183" cy="352" r="2"/>
  </g>
  <g stroke="chocolate" stroke-width="1">
    <line x1="137" y1="365" x2="163" y2="275"/>
    <circle cx="137" cy="365" r="2"/>
    <circle cx="163" cy="275" r="2"/>
  </g>
  <g stroke="chocolate" stroke-width="1">
    <line x1="119" y1="351" x2="204" y2="97"/>
    <circle cx="119" cy="351" r="2"/>
    <circle cx="204" cy="97" r="2"/>
  </g>
  <g stroke="chocolate" stroke-width="1">
    <line x1="129" y1="359" x2="133" y2="353"/>
    <circle cx="129" cy="359" r="2"/>
    <circle cx="133" cy="353" r="2"/>
  </g>
  <g stroke="chocolate" stroke-width="1">
    <line x1="131" y1="360" x2="165" y2="315"/>
    <circle cx="131" cy="360" r="2"/>
    <circle cx="165" cy="315" r="2"/>
  </g>
  <g stroke="chocolate" stroke-width="1">
    <line x1="407" y1="235" x2="413" y2="230"/>
    <circle cx="407" cy="235" r="2"/>
    <circle cx="413" cy="230" r="2"/>
  </g>
  <g stroke="chocolate" stroke-width="1">
    <line x1="90" y1="255" x2="120" y2="157"/>
    <circle cx="90" cy="255" r="2"/>
    <circle cx="120" cy="157" r="2"/>
  </g>
  <g stroke="chocolate" stroke-width="1">
    <line x1="129" y1="359" x2="165" y2="315"/>
    <circle cx="129" cy="359" r="2"/>
    <circle cx="165" cy="315" r="2"/>
  </g>
  <g stroke="chocolate" stroke-width="1">
    <line x1="172" y1="391" x2="219" y2="358"/>
    <circle cx="172" cy="391" r="2"/>
    <circle cx="219" cy="358" r="2"/>
  </g>
  <g stroke="chocolate" stroke-width="1">
    <line x1="137" y1="365" x2="140" y2="363"/>
    <circle cx="137" cy="365" r="2"/>
    <circle cx="140" cy="363" r="2"/>
  </g>
  <g stroke="chocolate" stroke-width="1">
    <line x1="120" y1="353" x2="90" y2="255"/>
    <circle cx="120" cy="353" r="2"/>
    <circle cx="90" cy="255" r="2"/>
  </g>
  <g stroke="chocolate" stroke-width="1">
    <line x1="204" y1="413" x2="183" y2="352"/>
    <circle cx="204" cy="413" r="2"/>
    <circle cx="183" cy="352" r="2"/>
  </g>
  <g stroke="chocolate" stroke-width="1">
    <line x1="204" y1="388" x2="120" y2="157"/>
    <circle cx="204" cy="388" r="2"/>
    <circle cx="120" cy="157" r="2"/>
  </g>
  <g stroke="chocolate" stroke-width="1">
    <line x1="204" y1="413" x2="306" y2="413"/>
    <circle cx="204" cy="413" r="2"/>
    <circle cx="306" cy="413" r="2"/>
  </g>
  <g stroke="chocolate" stroke-width="1">
    <line x1="145" y1="372" x2="133" y2="353"/>
    <circle cx="145" cy="372" r="2"/>
    <circle cx="133" cy="353" r="2"/>
  </g>
  <g stroke="chocolate" stroke-width="1">
    <line x1="331" y1="124" x2="338" y2="119"/>
    <circle cx="331" cy="124" r="2"/>
    <circle cx="338" cy="119" r="2"/>
  </g>
  <g stroke="chocolate" stroke-width="1">
    <line x1="327" y1="158" x2="306" y2="97"/>
    <circle cx="327" cy="158" r="2"/>
    <circle cx="306" cy="97" r="2"/>
  </g>
  <g stroke="chocolate" stroke-width="1">
    <line x1="420" y1="255" x2="390" y2="157"/>
    <circle cx="420" cy="255" r="2"/>
    <circle cx="390" cy="157" r="2"/>
  </g>
  <g stroke="chocolate" stroke-width="1">
    <line x1="390" y1="353" x2="377" y2="318"/>
    <circle cx="390" cy="353" r="2"/>
    <circle cx="377" cy="318" r="2"/>
  </g>
  <g stroke="chocolate" stroke-width="1">
    <line x1="120" y1="353" x2="234" y2="351"/>
    <circle cx="120" cy="353" r="2"/>
    <circle cx="234" cy="351" r="2"/>
  </g>
  <g stroke="chocolate" stroke-width="1">
    <line x1="131" y1="360" x2="119" y2="351"/>
    <circle cx="131" cy="360" r="2"/>
    <circle cx="119" cy="351" r="2"/>
  </g>
  <g stroke="chocolate" stroke-width="1">
    <line x1="204" y1="413" x2="120" y2="353"/>
    <circle cx="204" cy="413" r="2"/>
    <circle cx="120" cy="353" r="2"/>
  </g>
  <g stroke="chocolate" stroke-width="1">
    <line x1="204" y1="388" x2="145" y2="372"/>
    <circle cx="204" cy="388" r="2"/>
    <circle cx="145" cy="372" r="2"/>
  </g>
  <g stroke="chocolate" stroke-width="1">
    <line x1="120" y1="157" x2="204" y2="97"/>
    <circle cx="120" cy="157" r="2"/>
    <circle cx="204" cy="97" r="2"/>
  </g>
  <g stroke="chocolate" stroke-width="1">
    <line x1="249" y1="369" x2="234" y2="351"/>
    <circle cx="249" cy="369" r="2"/>
    <circle cx="234" cy="351" r="2"/>
  </g>
  <g stroke="chocolate" stroke-width="1">
    <line x1="219" y1="358" x2="90" y2="255"/>
    <circle cx="219" cy="358" r="2"/>
    <circle cx="90" cy="255" r="2"/>
  </g>
  <g stroke="chocolate" stroke-width="1">
    <line x1="163" y1="275" x2="97" y2="230"/>
    <circle cx="163" cy="275" r="2"/>
    <circle cx="97" cy="230" r="2"/>
  </g>
  <g stroke="chocolate" stroke-width="1">
    <line x1="399" y1="324" x2="377" y2="318"/>
    <circle cx="399" cy="324" r="2"/>
    <circle cx="377" cy="318" r="2"/>
  </g>
  <g stroke="chocolate" stroke-width="1">
    <line x1="420" y1="255" x2="331" y2="124"/>
    <circle cx="420" cy="255" r="2"/>
    <circle cx="331" cy="124" r="2"/>
  </g>
  <g stroke="chocolate" stroke-width="1">
    <line x1="97" y1="230" x2="413" y2="230"/>
    <circle cx="97" cy="230" r="2"/>
    <circle cx="413" cy="230" r="2"/>
  </g>
  <g stroke="chocolate" stroke-width="1">
    <line x1="399" y1="324" x2="342" y2="305"/>
    <circle cx="399" cy="324" r="2"/>
    <circle cx="342" cy="305" r="2"/>
  </g>
  <g stroke="chocolate" stroke-width="1">
    <line x1="327" y1="158" x2="390" y2="157"/>
    <circle cx="327" cy="158" r="2"/>
    <circle cx="390" cy="157" r="2"/>
  </g>
  <g stroke="chocolate" stroke-width="1">
    <line x1="204" y1="97" x2="306" y2="97"/>
    <circle cx="204" cy="97" r="2"/>
    <circle cx="306" cy="97" r="2"/>
  </g>
  <g stroke="chocolate" stroke-width="1">
    <line x1="390" y1="157" x2="306" y2="97"/>
    <circle cx="390" cy="157" r="2"/>
    <circle cx="306" cy="97" r="2"/>
  </g>
  <g stroke="black" stroke-width="1">
    <line x1="5" y1="5" x2="505" y2="5"/>
    <line x1="5" y1="5" x2="5" y2="505"/>
    <line x1="505" y1="505" x2="5" y2="505"/>
    <line x1="505" y1="505" x2="505" y2="5"/>
    <line x1="105" y1="2" x2="105" y2="8"/>
    <line x1="2" y1="105" x2="8" y2="105"/>
    <line x1="105" y1="502" x2="105" y2="508"/>
    <line x1="502" y1="105" x2="508" y2="105"/>
    <line x1="205" y1="2" x2="205" y2="8"/>
    <line x1="2" y1="205" x2="8" y2="205"/>
    <line x1="205" y1="502" x2="205" y2="508"/>
    <line x1="502" y1="205" x2="508" y2="205"/>
    <line x1="305" y1="2" x2="305" y2="8"/>
    <line x1="2" y1="305" x2="8" y2="305"/>
    <line x1="305" y1="502" x2="305" y2="508"/>
    <line x1="502" y1="305" x2="508" y2="305"/>
    <line x1="405" y1="2" x2="405" y2="8"/>
    <line x1="2" y1="405" x2="8" y2="405"/>
    <line x1="405" y1="502" x2="405" y2="508"/>
    <line x1="502" y1="405" x2="508" y2="405"/>
  </g>
  <g stroke="gray" stroke-width="1" stroke-dasharray="5,5">
    <line x1="105" y1="5" x2="105" y2="505"/>
    <line x1="5" y1="105" x2="505" y2="105"/>
    <line x1="205" y1="5" x2="205" y2="505"/>
    <line x1="5" y1="205" x2="505" y2="205"/>
    <line x1="305" y1="5" x2="305" y2="505"/>
    <line x1="5" y1="305" x2="505" y2="305"/>
    <line x1="405" y1="5" x2="405" y2="505"/>
    <line x1="5" y1="405" x2="505" y2="405"/>
  </g>
</svg>
