<?xml version="1.0" standalone="no"?>
<!DOCTYPE svg PUBLIC "-//W3C//DTD SVG 1.1//EN" 
  "http://www.w3.org/Graphics/SVG/1.1/DTD/svg11.dtd">
<svg width="584" height="584" version="1.1" id="toplevel"
    xmlns="http://www.w3.org/2000/svg"
    xmlns:xlink="http://www.w3.org/1999/xlink">
  <polygon points="223,579 351,529 347,519 550,421 350,5 34,143" fill="bisque"/>
  <g stroke="chocolate" stroke-width="1">
    <line x1="351" y1="529" x2="176" y2="81"/>
    <circle cx="351" cy="529" r="2"/>
    <circle cx="176" cy="81" r="2"/>
  </g>
  <g stroke="chocolate" stroke-width="1">
    <line x1="364" y1="41" x2="350" y2="5"/>
    <circle cx="364" cy="41" r="2"/>
    <circle cx="350" cy="5" r="2"/>
  </g>
  <g stroke="chocolate" stroke-width="1">
    <line x1="223" y1="579" x2="34" y2="143"/>
    <circle cx="223" cy="579" r="2"/>
    <circle cx="34" cy="143" r="2"/>
  </g>
  <g stroke="chocolate" stroke-width="1">
    <line x1="223" y1="579" x2="550" y2="421"/>
    <circle cx="223" cy="579" r="2"/>
    <circle cx="550" cy="421" r="2"/>
  </g>
  <g stroke="chocolate" stroke-width="1">
    <line x1="185" y1="98" x2="176" y2="81"/>
    <circle cx="185" cy="98" r="2"/>
    <circle cx="176" cy="81" r="2"/>
  </g>
  <g stroke="chocolate" stroke-width="1">
    <line x1="550" y1="421" x2="350" y2="5"/>
    <circle cx="550" cy="421" r="2"/>
    <circle cx="350" cy="5" r="2"/>
  </g>
  <g stroke="chocolate" stroke-width="1">
    <line x1="223" y1="579" x2="351" y2="529"/>
    <circle cx="223" cy="579" r="2"/>
    <circle cx="351" cy="529" r="2"/>
  </g>
  <g stroke="chocolate" stroke-width="1">
    <line x1="44" y1="166" x2="185" y2="98"/>
    <circle cx="44" cy="166" r="2"/>
    <circle cx="185" cy="98" r="2"/>
  </g>
  <g stroke="chocolate" stroke-width="1">
    <line x1="34" y1="143" x2="350" y2="5"/>
    <circle cx="34" cy="143" r="2"/>
    <circle cx="350" cy="5" r="2"/>
  </g>
  <g stroke="chocolate" stroke-width="1">
    <line x1="44" y1="166" x2="364" y2="41"/>
    <circle cx="44" cy="166" r="2"/>
    <circle cx="364" cy="41" r="2"/>
  </g>
  <g stroke="black" stroke-width="1">
    <line x1="42" y1="42" x2="542" y2="42"/>
    <line x1="42" y1="42" x2="42" y2="542"/>
    <line x1="542" y1="542" x2="42" y2="542"/>
    <line x1="542" y1="542" x2="542" y2="42"/>
    <line x1="142" y1="39" x2="142" y2="45"/>
    <line x1="39" y1="142" x2="45" y2="142"/>
    <line x1="142" y1="539" x2="142" y2="545"/>
    <line x1="539" y1="142" x2="545" y2="142"/>
    <line x1="242" y1="39" x2="242" y2="45"/>
    <line x1="39" y1="242" x2="45" y2="242"/>
    <line x1="242" y1="539" x2="242" y2="545"/>
    <line x1="539" y1="242" x2="545" y2="242"/>
    <line x1="342" y1="39" x2="342" y2="45"/>
    <line x1="39" y1="342" x2="45" y2="342"/>
    <line x1="342" y1="539" x2="342" y2="545"/>
    <line x1="539" y1="342" x2="545" y2="342"/>
    <line x1="442" y1="39" x2="442" y2="45"/>
    <line x1="39" y1="442" x2="45" y2="442"/>
    <line x1="442" y1="539" x2="442" y2="545"/>
    <line x1="539" y1="442" x2="545" y2="442"/>
  </g>
  <g stroke="gray" stroke-width="1" stroke-dasharray="5,5">
    <line x1="142" y1="42" x2="142" y2="542"/>
    <line x1="42" y1="142" x2="542" y2="142"/>
    <line x1="242" y1="42" x2="242" y2="542"/>
    <line x1="42" y1="242" x2="542" y2="242"/>
    <line x1="342" y1="42" x2="342" y2="542"/>
    <line x1="42" y1="342" x2="542" y2="342"/>
    <line x1="442" y1="42" x2="442" y2="542"/>
    <line x1="42" y1="442" x2="542" y2="442"/>
  </g>
</svg>
