<?xml version="1.0" standalone="no"?>
<!DOCTYPE svg PUBLIC "-//W3C//DTD SVG 1.1//EN" 
  "http://www.w3.org/Graphics/SVG/1.1/DTD/svg11.dtd">
<svg width="510" height="510" version="1.1" id="toplevel"
    xmlns="http://www.w3.org/2000/svg"
    xmlns:xlink="http://www.w3.org/1999/xlink">
  <polygon points="251,366 281,330 301,319 316,322 316,323 318,323 324,241 311,233 290,244 293,223 227,186 186,220 186,313"
           fill="bisque"/>
  <g stroke="chocolate" stroke-width="1">
    <line x1="318" y1="323" x2="324" y2="241"/>
    <circle cx="318" cy="323" r="2"/>
    <circle cx="324" cy="241" r="2"/>
  </g>
  <g stroke="chocolate" stroke-width="1">
    <line x1="277" y1="332" x2="293" y2="223"/>
    <circle cx="277" cy="332" r="2"/>
    <circle cx="293" cy="223" r="2"/>
  </g>
  <g stroke="chocolate" stroke-width="1">
    <line x1="186" y1="313" x2="186" y2="220"/>
    <circle cx="186" cy="313" r="2"/>
    <circle cx="186" cy="220" r="2"/>
  </g>
  <g stroke="chocolate" stroke-width="1">
    <line x1="250" y1="308" x2="259" y2="265"/>
    <circle cx="250" cy="308" r="2"/>
    <circle cx="259" cy="265" r="2"/>
  </g>
  <g stroke="chocolate" stroke-width="1">
    <line x1="212" y1="286" x2="227" y2="186"/>
    <circle cx="212" cy="286" r="2"/>
    <circle cx="227" cy="186" r="2"/>
  </g>
  <g stroke="chocolate" stroke-width="1">
    <line x1="316" y1="323" x2="311" y2="233"/>
    <circle cx="316" cy="323" r="2"/>
    <circle cx="311" cy="233" r="2"/>
  </g>
  <g stroke="chocolate" stroke-width="1">
    <line x1="251" y1="366" x2="296" y2="311"/>
    <circle cx="251" cy="366" r="2"/>
    <circle cx="296" cy="311" r="2"/>
  </g>
  <g stroke="chocolate" stroke-width="1">
    <line x1="251" y1="366" x2="186" y2="313"/>
    <circle cx="251" cy="366" r="2"/>
    <circle cx="186" cy="313" r="2"/>
  </g>
  <g stroke="chocolate" stroke-width="1">
    <line x1="277" y1="332" x2="319" y2="310"/>
    <circle cx="277" cy="332" r="2"/>
    <circle cx="319" cy="310" r="2"/>
  </g>
  <g stroke="chocolate" stroke-width="1">
    <line x1="186" y1="313" x2="293" y2="223"/>
    <circle cx="186" cy="313" r="2"/>
    <circle cx="293" cy="223" r="2"/>
  </g>
  <g stroke="chocolate" stroke-width="1">
    <line x1="277" y1="332" x2="212" y2="286"/>
    <circle cx="277" cy="332" r="2"/>
    <circle cx="212" cy="286" r="2"/>
  </g>
  <g stroke="chocolate" stroke-width="1">
    <line x1="296" y1="311" x2="186" y2="220"/>
    <circle cx="296" cy="311" r="2"/>
    <circle cx="186" cy="220" r="2"/>
  </g>
  <g stroke="chocolate" stroke-width="1">
    <line x1="212" y1="286" x2="311" y2="233"/>
    <circle cx="212" cy="286" r="2"/>
    <circle cx="311" cy="233" r="2"/>
  </g>
  <g stroke="chocolate" stroke-width="1">
    <line x1="319" y1="310" x2="259" y2="265"/>
    <circle cx="319" cy="310" r="2"/>
    <circle cx="259" cy="265" r="2"/>
  </g>
  <g stroke="chocolate" stroke-width="1">
    <line x1="316" y1="323" x2="318" y2="323"/>
    <circle cx="316" cy="323" r="2"/>
    <circle cx="318" cy="323" r="2"/>
  </g>
  <g stroke="chocolate" stroke-width="1">
    <line x1="186" y1="220" x2="227" y2="186"/>
    <circle cx="186" cy="220" r="2"/>
    <circle cx="227" cy="186" r="2"/>
  </g>
  <g stroke="chocolate" stroke-width="1">
    <line x1="318" y1="323" x2="250" y2="308"/>
    <circle cx="318" cy="323" r="2"/>
    <circle cx="250" cy="308" r="2"/>
  </g>
  <g stroke="chocolate" stroke-width="1">
    <line x1="259" y1="265" x2="324" y2="241"/>
    <circle cx="259" cy="265" r="2"/>
    <circle cx="324" cy="241" r="2"/>
  </g>
  <g stroke="chocolate" stroke-width="1">
    <line x1="324" y1="241" x2="311" y2="233"/>
    <circle cx="324" cy="241" r="2"/>
    <circle cx="311" cy="233" r="2"/>
  </g>
  <g stroke="chocolate" stroke-width="1">
    <line x1="293" y1="223" x2="227" y2="186"/>
    <circle cx="293" cy="223" r="2"/>
    <circle cx="227" cy="186" r="2"/>
  </g>
  <g stroke="black" stroke-width="1">
    <line x1="5" y1="5" x2="505" y2="5"/>
    <line x1="5" y1="5" x2="5" y2="505"/>
    <line x1="505" y1="505" x2="5" y2="505"/>
    <line x1="505" y1="505" x2="505" y2="5"/>
    <line x1="105" y1="2" x2="105" y2="8"/>
    <line x1="2" y1="105" x2="8" y2="105"/>
    <line x1="105" y1="502" x2="105" y2="508"/>
    <line x1="502" y1="105" x2="508" y2="105"/>
    <line x1="205" y1="2" x2="205" y2="8"/>
    <line x1="2" y1="205" x2="8" y2="205"/>
    <line x1="205" y1="502" x2="205" y2="508"/>
    <line x1="502" y1="205" x2="508" y2="205"/>
    <line x1="305" y1="2" x2="305" y2="8"/>
    <line x1="2" y1="305" x2="8" y2="305"/>
    <line x1="305" y1="502" x2="305" y2="508"/>
    <line x1="502" y1="305" x2="508" y2="305"/>
    <line x1="405" y1="2" x2="405" y2="8"/>
    <line x1="2" y1="405" x2="8" y2="405"/>
    <line x1="405" y1="502" x2="405" y2="508"/>
    <line x1="502" y1="405" x2="508" y2="405"/>
  </g>
  <g stroke="gray" stroke-width="1" stroke-dasharray="5,5">
    <line x1="105" y1="5" x2="105" y2="505"/>
    <line x1="5" y1="105" x2="505" y2="105"/>
    <line x1="205" y1="5" x2="205" y2="505"/>
    <line x1="5" y1="205" x2="505" y2="205"/>
    <line x1="305" y1="5" x2="305" y2="505"/>
    <line x1="5" y1="305" x2="505" y2="305"/>
    <line x1="405" y1="5" x2="405" y2="505"/>
    <line x1="5" y1="405" x2="505" y2="405"/>
  </g>
</svg>
