<?xml version="1.0" standalone="no"?>
<!DOCTYPE svg PUBLIC "-//W3C//DTD SVG 1.1//EN" 
  "http://www.w3.org/Graphics/SVG/1.1/DTD/svg11.dtd">
<svg width="510" height="510" version="1.1" id="toplevel"
    xmlns="http://www.w3.org/2000/svg"
    xmlns:xlink="http://www.w3.org/1999/xlink">
  <polygon points="187,422 274,335 390,335 468,256 379,168 379,127 187,127 187,88 145,88 42,335 87,380"
           fill="bisque"/>
  <g stroke="chocolate" stroke-width="1">
    <line x1="390" y1="335" x2="468" y2="256"/>
    <circle cx="390" cy="335" r="2"/>
    <circle cx="468" cy="256" r="2"/>
  </g>
  <g stroke="chocolate" stroke-width="1">
    <line x1="187" y1="422" x2="305" y2="304"/>
    <circle cx="187" cy="422" r="2"/>
    <circle cx="305" cy="304" r="2"/>
  </g>
  <g stroke="chocolate" stroke-width="1">
    <line x1="42" y1="335" x2="145" y2="88"/>
    <circle cx="42" cy="335" r="2"/>
    <circle cx="145" cy="88" r="2"/>
  </g>
  <g stroke="chocolate" stroke-width="1">
    <line x1="187" y1="422" x2="187" y2="88"/>
    <circle cx="187" cy="422" r="2"/>
    <circle cx="187" cy="88" r="2"/>
  </g>
  <g stroke="chocolate" stroke-width="1">
    <line x1="379" y1="335" x2="379" y2="127"/>
    <circle cx="379" cy="335" r="2"/>
    <circle cx="379" cy="127" r="2"/>
  </g>
  <g stroke="chocolate" stroke-width="1">
    <line x1="87" y1="380" x2="55" y2="303"/>
    <circle cx="87" cy="380" r="2"/>
    <circle cx="55" cy="303" r="2"/>
  </g>
  <g stroke="chocolate" stroke-width="1">
    <line x1="55" y1="303" x2="379" y2="168"/>
    <circle cx="55" cy="303" r="2"/>
    <circle cx="379" cy="168" r="2"/>
  </g>
  <g stroke="chocolate" stroke-width="1">
    <line x1="87" y1="380" x2="42" y2="335"/>
    <circle cx="87" cy="380" r="2"/>
    <circle cx="42" cy="335" r="2"/>
  </g>
  <g stroke="chocolate" stroke-width="1">
    <line x1="187" y1="422" x2="87" y2="380"/>
    <circle cx="187" cy="422" r="2"/>
    <circle cx="87" cy="380" r="2"/>
  </g>
  <g stroke="chocolate" stroke-width="1">
    <line x1="42" y1="335" x2="390" y2="335"/>
    <circle cx="42" cy="335" r="2"/>
    <circle cx="390" cy="335" r="2"/>
  </g>
  <g stroke="chocolate" stroke-width="1">
    <line x1="305" y1="304" x2="129" y2="127"/>
    <circle cx="305" cy="304" r="2"/>
    <circle cx="129" cy="127" r="2"/>
  </g>
  <g stroke="chocolate" stroke-width="1">
    <line x1="390" y1="335" x2="145" y2="88"/>
    <circle cx="390" cy="335" r="2"/>
    <circle cx="145" cy="88" r="2"/>
  </g>
  <g stroke="chocolate" stroke-width="1">
    <line x1="468" y1="256" x2="379" y2="168"/>
    <circle cx="468" cy="256" r="2"/>
    <circle cx="379" cy="168" r="2"/>
  </g>
  <g stroke="chocolate" stroke-width="1">
    <line x1="129" y1="127" x2="379" y2="127"/>
    <circle cx="129" cy="127" r="2"/>
    <circle cx="379" cy="127" r="2"/>
  </g>
  <g stroke="chocolate" stroke-width="1">
    <line x1="145" y1="88" x2="187" y2="88"/>
    <circle cx="145" cy="88" r="2"/>
    <circle cx="187" cy="88" r="2"/>
  </g>
  <g stroke="black" stroke-width="1">
    <line x1="5" y1="5" x2="505" y2="5"/>
    <line x1="5" y1="5" x2="5" y2="505"/>
    <line x1="505" y1="505" x2="5" y2="505"/>
    <line x1="505" y1="505" x2="505" y2="5"/>
    <line x1="105" y1="2" x2="105" y2="8"/>
    <line x1="2" y1="105" x2="8" y2="105"/>
    <line x1="105" y1="502" x2="105" y2="508"/>
    <line x1="502" y1="105" x2="508" y2="105"/>
    <line x1="205" y1="2" x2="205" y2="8"/>
    <line x1="2" y1="205" x2="8" y2="205"/>
    <line x1="205" y1="502" x2="205" y2="508"/>
    <line x1="502" y1="205" x2="508" y2="205"/>
    <line x1="305" y1="2" x2="305" y2="8"/>
    <line x1="2" y1="305" x2="8" y2="305"/>
    <line x1="305" y1="502" x2="305" y2="508"/>
    <line x1="502" y1="305" x2="508" y2="305"/>
    <line x1="405" y1="2" x2="405" y2="8"/>
    <line x1="2" y1="405" x2="8" y2="405"/>
    <line x1="405" y1="502" x2="405" y2="508"/>
    <line x1="502" y1="405" x2="508" y2="405"/>
  </g>
  <g stroke="gray" stroke-width="1" stroke-dasharray="5,5">
    <line x1="105" y1="5" x2="105" y2="505"/>
    <line x1="5" y1="105" x2="505" y2="105"/>
    <line x1="205" y1="5" x2="205" y2="505"/>
    <line x1="5" y1="205" x2="505" y2="205"/>
    <line x1="305" y1="5" x2="305" y2="505"/>
    <line x1="5" y1="305" x2="505" y2="305"/>
    <line x1="405" y1="5" x2="405" y2="505"/>
    <line x1="5" y1="405" x2="505" y2="405"/>
  </g>
</svg>
