<?xml version="1.0" standalone="no"?>
<!DOCTYPE svg PUBLIC "-//W3C//DTD SVG 1.1//EN" 
  "http://www.w3.org/Graphics/SVG/1.1/DTD/svg11.dtd">
<svg width="510" height="510" version="1.1" id="toplevel"
    xmlns="http://www.w3.org/2000/svg"
    xmlns:xlink="http://www.w3.org/1999/xlink">
  <polygon points="219,344 276,312 282,227 275,222 282,221 287,147 219,125 148,177 148,303"
           fill="bisque"/>
  <polygon points="219,229 219,200 237,206" fill="bisque"/>
  <g stroke="chocolate" stroke-width="1">
    <line x1="276" y1="312" x2="282" y2="227"/>
    <circle cx="276" cy="312" r="2"/>
    <circle cx="282" cy="227" r="2"/>
  </g>
  <g stroke="chocolate" stroke-width="1">
    <line x1="282" y1="221" x2="287" y2="147"/>
    <circle cx="282" cy="221" r="2"/>
    <circle cx="287" cy="147" r="2"/>
  </g>
  <g stroke="chocolate" stroke-width="1">
    <line x1="200" y1="255" x2="243" y2="198"/>
    <circle cx="200" cy="255" r="2"/>
    <circle cx="243" cy="198" r="2"/>
  </g>
  <g stroke="chocolate" stroke-width="1">
    <line x1="148" y1="303" x2="148" y2="177"/>
    <circle cx="148" cy="303" r="2"/>
    <circle cx="148" cy="177" r="2"/>
  </g>
  <g stroke="chocolate" stroke-width="1">
    <line x1="219" y1="344" x2="219" y2="125"/>
    <circle cx="219" cy="344" r="2"/>
    <circle cx="219" cy="125" r="2"/>
  </g>
  <g stroke="chocolate" stroke-width="1">
    <line x1="219" y1="344" x2="276" y2="312"/>
    <circle cx="219" cy="344" r="2"/>
    <circle cx="276" cy="312" r="2"/>
  </g>
  <g stroke="chocolate" stroke-width="1">
    <line x1="252" y1="226" x2="239" y2="156"/>
    <circle cx="252" cy="226" r="2"/>
    <circle cx="239" cy="156" r="2"/>
  </g>
  <g stroke="chocolate" stroke-width="1">
    <line x1="148" y1="303" x2="282" y2="227"/>
    <circle cx="148" cy="303" r="2"/>
    <circle cx="282" cy="227" r="2"/>
  </g>
  <g stroke="chocolate" stroke-width="1">
    <line x1="148" y1="177" x2="219" y2="125"/>
    <circle cx="148" cy="177" r="2"/>
    <circle cx="219" cy="125" r="2"/>
  </g>
  <g stroke="chocolate" stroke-width="1">
    <line x1="219" y1="344" x2="148" y2="303"/>
    <circle cx="219" cy="344" r="2"/>
    <circle cx="148" cy="303" r="2"/>
  </g>
  <g stroke="chocolate" stroke-width="1">
    <line x1="252" y1="226" x2="282" y2="221"/>
    <circle cx="252" cy="226" r="2"/>
    <circle cx="282" cy="221" r="2"/>
  </g>
  <g stroke="chocolate" stroke-width="1">
    <line x1="276" y1="312" x2="200" y2="255"/>
    <circle cx="276" cy="312" r="2"/>
    <circle cx="200" cy="255" r="2"/>
  </g>
  <g stroke="chocolate" stroke-width="1">
    <line x1="239" y1="156" x2="287" y2="147"/>
    <circle cx="239" cy="156" r="2"/>
    <circle cx="287" cy="147" r="2"/>
  </g>
  <g stroke="chocolate" stroke-width="1">
    <line x1="282" y1="227" x2="243" y2="198"/>
    <circle cx="282" cy="227" r="2"/>
    <circle cx="243" cy="198" r="2"/>
  </g>
  <g stroke="chocolate" stroke-width="1">
    <line x1="282" y1="221" x2="148" y2="177"/>
    <circle cx="282" cy="221" r="2"/>
    <circle cx="148" cy="177" r="2"/>
  </g>
  <g stroke="chocolate" stroke-width="1">
    <line x1="287" y1="147" x2="219" y2="125"/>
    <circle cx="287" cy="147" r="2"/>
    <circle cx="219" cy="125" r="2"/>
  </g>
  <g stroke="black" stroke-width="1">
    <line x1="5" y1="5" x2="505" y2="5"/>
    <line x1="5" y1="5" x2="5" y2="505"/>
    <line x1="505" y1="505" x2="5" y2="505"/>
    <line x1="505" y1="505" x2="505" y2="5"/>
    <line x1="105" y1="2" x2="105" y2="8"/>
    <line x1="2" y1="105" x2="8" y2="105"/>
    <line x1="105" y1="502" x2="105" y2="508"/>
    <line x1="502" y1="105" x2="508" y2="105"/>
    <line x1="205" y1="2" x2="205" y2="8"/>
    <line x1="2" y1="205" x2="8" y2="205"/>
    <line x1="205" y1="502" x2="205" y2="508"/>
    <line x1="502" y1="205" x2="508" y2="205"/>
    <line x1="305" y1="2" x2="305" y2="8"/>
    <line x1="2" y1="305" x2="8" y2="305"/>
    <line x1="305" y1="502" x2="305" y2="508"/>
    <line x1="502" y1="305" x2="508" y2="305"/>
    <line x1="405" y1="2" x2="405" y2="8"/>
    <line x1="2" y1="405" x2="8" y2="405"/>
    <line x1="405" y1="502" x2="405" y2="508"/>
    <line x1="502" y1="405" x2="508" y2="405"/>
  </g>
  <g stroke="gray" stroke-width="1" stroke-dasharray="5,5">
    <line x1="105" y1="5" x2="105" y2="505"/>
    <line x1="5" y1="105" x2="505" y2="105"/>
    <line x1="205" y1="5" x2="205" y2="505"/>
    <line x1="5" y1="205" x2="505" y2="205"/>
    <line x1="305" y1="5" x2="305" y2="505"/>
    <line x1="5" y1="305" x2="505" y2="305"/>
    <line x1="405" y1="5" x2="405" y2="505"/>
    <line x1="5" y1="405" x2="505" y2="405"/>
  </g>
</svg>
