<?xml version="1.0" standalone="no"?>
<!DOCTYPE svg PUBLIC "-//W3C//DTD SVG 1.1//EN" 
  "http://www.w3.org/Graphics/SVG/1.1/DTD/svg11.dtd">
<svg width="510" height="510" version="1.1" id="toplevel"
    xmlns="http://www.w3.org/2000/svg"
    xmlns:xlink="http://www.w3.org/1999/xlink">
  <polygon points="308,369 360,360 332,141 268,146 272,203 272,239 150,251 153,307 157,306 158,320 272,306 282,294 289,367 307,366"
           fill="bisque"/>
  <g stroke="chocolate" stroke-width="1">
    <line x1="272" y1="306" x2="335" y2="233"/>
    <circle cx="272" cy="306" r="2"/>
    <circle cx="335" cy="233" r="2"/>
  </g>
  <g stroke="chocolate" stroke-width="1">
    <line x1="272" y1="306" x2="272" y2="146"/>
    <circle cx="272" cy="306" r="2"/>
    <circle cx="272" cy="146" r="2"/>
  </g>
  <g stroke="chocolate" stroke-width="1">
    <line x1="335" y1="233" x2="332" y2="141"/>
    <circle cx="335" cy="233" r="2"/>
    <circle cx="332" cy="141" r="2"/>
  </g>
  <g stroke="chocolate" stroke-width="1">
    <line x1="308" y1="369" x2="360" y2="360"/>
    <circle cx="308" cy="369" r="2"/>
    <circle cx="360" cy="360" r="2"/>
  </g>
  <g stroke="chocolate" stroke-width="1">
    <line x1="153" y1="307" x2="150" y2="251"/>
    <circle cx="153" cy="307" r="2"/>
    <circle cx="150" cy="251" r="2"/>
  </g>
  <g stroke="chocolate" stroke-width="1">
    <line x1="278" y1="299" x2="268" y2="146"/>
    <circle cx="278" cy="299" r="2"/>
    <circle cx="268" cy="146" r="2"/>
  </g>
  <g stroke="chocolate" stroke-width="1">
    <line x1="158" y1="320" x2="272" y2="306"/>
    <circle cx="158" cy="320" r="2"/>
    <circle cx="272" cy="306" r="2"/>
  </g>
  <g stroke="chocolate" stroke-width="1">
    <line x1="289" y1="367" x2="268" y2="146"/>
    <circle cx="289" cy="367" r="2"/>
    <circle cx="268" cy="146" r="2"/>
  </g>
  <g stroke="chocolate" stroke-width="1">
    <line x1="289" y1="367" x2="360" y2="360"/>
    <circle cx="289" cy="367" r="2"/>
    <circle cx="360" cy="360" r="2"/>
  </g>
  <g stroke="chocolate" stroke-width="1">
    <line x1="158" y1="320" x2="150" y2="251"/>
    <circle cx="158" cy="320" r="2"/>
    <circle cx="150" cy="251" r="2"/>
  </g>
  <g stroke="chocolate" stroke-width="1">
    <line x1="360" y1="360" x2="332" y2="141"/>
    <circle cx="360" cy="360" r="2"/>
    <circle cx="332" cy="141" r="2"/>
  </g>
  <g stroke="chocolate" stroke-width="1">
    <line x1="150" y1="251" x2="335" y2="233"/>
    <circle cx="150" cy="251" r="2"/>
    <circle cx="335" cy="233" r="2"/>
  </g>
  <g stroke="chocolate" stroke-width="1">
    <line x1="308" y1="369" x2="272" y2="146"/>
    <circle cx="308" cy="369" r="2"/>
    <circle cx="272" cy="146" r="2"/>
  </g>
  <g stroke="chocolate" stroke-width="1">
    <line x1="153" y1="307" x2="278" y2="299"/>
    <circle cx="153" cy="307" r="2"/>
    <circle cx="278" cy="299" r="2"/>
  </g>
  <g stroke="chocolate" stroke-width="1">
    <line x1="268" y1="146" x2="332" y2="141"/>
    <circle cx="268" cy="146" r="2"/>
    <circle cx="332" cy="141" r="2"/>
  </g>
  <g stroke="black" stroke-width="1">
    <line x1="5" y1="5" x2="505" y2="5"/>
    <line x1="5" y1="5" x2="5" y2="505"/>
    <line x1="505" y1="505" x2="5" y2="505"/>
    <line x1="505" y1="505" x2="505" y2="5"/>
    <line x1="105" y1="2" x2="105" y2="8"/>
    <line x1="2" y1="105" x2="8" y2="105"/>
    <line x1="105" y1="502" x2="105" y2="508"/>
    <line x1="502" y1="105" x2="508" y2="105"/>
    <line x1="205" y1="2" x2="205" y2="8"/>
    <line x1="2" y1="205" x2="8" y2="205"/>
    <line x1="205" y1="502" x2="205" y2="508"/>
    <line x1="502" y1="205" x2="508" y2="205"/>
    <line x1="305" y1="2" x2="305" y2="8"/>
    <line x1="2" y1="305" x2="8" y2="305"/>
    <line x1="305" y1="502" x2="305" y2="508"/>
    <line x1="502" y1="305" x2="508" y2="305"/>
    <line x1="405" y1="2" x2="405" y2="8"/>
    <line x1="2" y1="405" x2="8" y2="405"/>
    <line x1="405" y1="502" x2="405" y2="508"/>
    <line x1="502" y1="405" x2="508" y2="405"/>
  </g>
  <g stroke="gray" stroke-width="1" stroke-dasharray="5,5">
    <line x1="105" y1="5" x2="105" y2="505"/>
    <line x1="5" y1="105" x2="505" y2="105"/>
    <line x1="205" y1="5" x2="205" y2="505"/>
    <line x1="5" y1="205" x2="505" y2="205"/>
    <line x1="305" y1="5" x2="305" y2="505"/>
    <line x1="5" y1="305" x2="505" y2="305"/>
    <line x1="405" y1="5" x2="405" y2="505"/>
    <line x1="5" y1="405" x2="505" y2="405"/>
  </g>
</svg>
