<?xml version="1.0" standalone="no"?>
<!DOCTYPE svg PUBLIC "-//W3C//DTD SVG 1.1//EN" 
  "http://www.w3.org/Graphics/SVG/1.1/DTD/svg11.dtd">
<svg width="510" height="510" version="1.1" id="toplevel"
    xmlns="http://www.w3.org/2000/svg"
    xmlns:xlink="http://www.w3.org/1999/xlink">
  <polygon points="311,378 364,344 351,323 370,308 233,132 164,143 140,238 192,327 242,343 247,330 260,333 268,310"
           fill="bisque"/>
  <polygon points="240,264 207,255 213,222" fill="bisque"/>
  <g stroke="chocolate" stroke-width="1">
    <line x1="242" y1="343" x2="192" y2="327"/>
    <circle cx="242" cy="343" r="2"/>
    <circle cx="192" cy="327" r="2"/>
  </g>
  <g stroke="chocolate" stroke-width="1">
    <line x1="260" y1="333" x2="185" y2="314"/>
    <circle cx="260" cy="333" r="2"/>
    <circle cx="185" cy="314" r="2"/>
  </g>
  <g stroke="chocolate" stroke-width="1">
    <line x1="276" y1="309" x2="173" y2="294"/>
    <circle cx="276" cy="309" r="2"/>
    <circle cx="173" cy="294" r="2"/>
  </g>
  <g stroke="chocolate" stroke-width="1">
    <line x1="281" y1="274" x2="140" y2="238"/>
    <circle cx="281" cy="274" r="2"/>
    <circle cx="140" cy="238" r="2"/>
  </g>
  <g stroke="chocolate" stroke-width="1">
    <line x1="192" y1="327" x2="140" y2="238"/>
    <circle cx="192" cy="327" r="2"/>
    <circle cx="140" cy="238" r="2"/>
  </g>
  <g stroke="chocolate" stroke-width="1">
    <line x1="370" y1="308" x2="233" y2="132"/>
    <circle cx="370" cy="308" r="2"/>
    <circle cx="233" cy="132" r="2"/>
  </g>
  <g stroke="chocolate" stroke-width="1">
    <line x1="311" y1="378" x2="164" y2="143"/>
    <circle cx="311" cy="378" r="2"/>
    <circle cx="164" cy="143" r="2"/>
  </g>
  <g stroke="chocolate" stroke-width="1">
    <line x1="364" y1="344" x2="231" y2="133"/>
    <circle cx="364" cy="344" r="2"/>
    <circle cx="231" cy="133" r="2"/>
  </g>
  <g stroke="chocolate" stroke-width="1">
    <line x1="353" y1="351" x2="231" y2="133"/>
    <circle cx="353" cy="351" r="2"/>
    <circle cx="231" cy="133" r="2"/>
  </g>
  <g stroke="chocolate" stroke-width="1">
    <line x1="308" y1="373" x2="353" y2="351"/>
    <circle cx="308" cy="373" r="2"/>
    <circle cx="353" cy="351" r="2"/>
  </g>
  <g stroke="chocolate" stroke-width="1">
    <line x1="301" y1="362" x2="358" y2="334"/>
    <circle cx="301" cy="362" r="2"/>
    <circle cx="358" cy="334" r="2"/>
  </g>
  <g stroke="chocolate" stroke-width="1">
    <line x1="164" y1="143" x2="233" y2="132"/>
    <circle cx="164" cy="143" r="2"/>
    <circle cx="233" cy="132" r="2"/>
  </g>
  <g stroke="chocolate" stroke-width="1">
    <line x1="311" y1="378" x2="364" y2="344"/>
    <circle cx="311" cy="378" r="2"/>
    <circle cx="364" cy="344" r="2"/>
  </g>
  <g stroke="chocolate" stroke-width="1">
    <line x1="308" y1="373" x2="358" y2="334"/>
    <circle cx="308" cy="373" r="2"/>
    <circle cx="358" cy="334" r="2"/>
  </g>
  <g stroke="chocolate" stroke-width="1">
    <line x1="301" y1="362" x2="370" y2="308"/>
    <circle cx="301" cy="362" r="2"/>
    <circle cx="370" cy="308" r="2"/>
  </g>
  <g stroke="chocolate" stroke-width="1">
    <line x1="276" y1="309" x2="281" y2="274"/>
    <circle cx="276" cy="309" r="2"/>
    <circle cx="281" cy="274" r="2"/>
  </g>
  <g stroke="chocolate" stroke-width="1">
    <line x1="260" y1="333" x2="269" y2="271"/>
    <circle cx="260" cy="333" r="2"/>
    <circle cx="269" cy="271" r="2"/>
  </g>
  <g stroke="chocolate" stroke-width="1">
    <line x1="192" y1="327" x2="231" y2="133"/>
    <circle cx="192" cy="327" r="2"/>
    <circle cx="231" cy="133" r="2"/>
  </g>
  <g stroke="chocolate" stroke-width="1">
    <line x1="242" y1="343" x2="261" y2="269"/>
    <circle cx="242" cy="343" r="2"/>
    <circle cx="261" cy="269" r="2"/>
  </g>
  <g stroke="chocolate" stroke-width="1">
    <line x1="260" y1="333" x2="281" y2="274"/>
    <circle cx="260" cy="333" r="2"/>
    <circle cx="281" cy="274" r="2"/>
  </g>
  <g stroke="chocolate" stroke-width="1">
    <line x1="242" y1="343" x2="269" y2="271"/>
    <circle cx="242" cy="343" r="2"/>
    <circle cx="269" cy="271" r="2"/>
  </g>
  <g stroke="chocolate" stroke-width="1">
    <line x1="185" y1="314" x2="231" y2="133"/>
    <circle cx="185" cy="314" r="2"/>
    <circle cx="231" cy="133" r="2"/>
  </g>
  <g stroke="chocolate" stroke-width="1">
    <line x1="140" y1="238" x2="164" y2="143"/>
    <circle cx="140" cy="238" r="2"/>
    <circle cx="164" cy="143" r="2"/>
  </g>
  <g stroke="chocolate" stroke-width="1">
    <line x1="173" y1="294" x2="233" y2="132"/>
    <circle cx="173" cy="294" r="2"/>
    <circle cx="233" cy="132" r="2"/>
  </g>
  <g stroke="black" stroke-width="1">
    <line x1="5" y1="5" x2="505" y2="5"/>
    <line x1="5" y1="5" x2="5" y2="505"/>
    <line x1="505" y1="505" x2="5" y2="505"/>
    <line x1="505" y1="505" x2="505" y2="5"/>
    <line x1="105" y1="2" x2="105" y2="8"/>
    <line x1="2" y1="105" x2="8" y2="105"/>
    <line x1="105" y1="502" x2="105" y2="508"/>
    <line x1="502" y1="105" x2="508" y2="105"/>
    <line x1="205" y1="2" x2="205" y2="8"/>
    <line x1="2" y1="205" x2="8" y2="205"/>
    <line x1="205" y1="502" x2="205" y2="508"/>
    <line x1="502" y1="205" x2="508" y2="205"/>
    <line x1="305" y1="2" x2="305" y2="8"/>
    <line x1="2" y1="305" x2="8" y2="305"/>
    <line x1="305" y1="502" x2="305" y2="508"/>
    <line x1="502" y1="305" x2="508" y2="305"/>
    <line x1="405" y1="2" x2="405" y2="8"/>
    <line x1="2" y1="405" x2="8" y2="405"/>
    <line x1="405" y1="502" x2="405" y2="508"/>
    <line x1="502" y1="405" x2="508" y2="405"/>
  </g>
  <g stroke="gray" stroke-width="1" stroke-dasharray="5,5">
    <line x1="105" y1="5" x2="105" y2="505"/>
    <line x1="5" y1="105" x2="505" y2="105"/>
    <line x1="205" y1="5" x2="205" y2="505"/>
    <line x1="5" y1="205" x2="505" y2="205"/>
    <line x1="305" y1="5" x2="305" y2="505"/>
    <line x1="5" y1="305" x2="505" y2="305"/>
    <line x1="405" y1="5" x2="405" y2="505"/>
    <line x1="5" y1="405" x2="505" y2="405"/>
  </g>
</svg>
