<?xml version="1.0" standalone="no"?>
<!DOCTYPE svg PUBLIC "-//W3C//DTD SVG 1.1//EN" 
  "http://www.w3.org/Graphics/SVG/1.1/DTD/svg11.dtd">
<svg width="510" height="510" version="1.1" id="toplevel"
    xmlns="http://www.w3.org/2000/svg"
    xmlns:xlink="http://www.w3.org/1999/xlink">
  <polygon points="263,388 358,329 456,325 472,290 442,276 451,270 447,237 390,207 358,122 296,144 289,197 246,214 230,334 234,341 223,360 256,379 257,379"
           fill="bisque"/>
  <g stroke="chocolate" stroke-width="1">
    <line x1="397" y1="298" x2="447" y2="237"/>
    <circle cx="397" cy="298" r="2"/>
    <circle cx="447" cy="237" r="2"/>
  </g>
  <g stroke="chocolate" stroke-width="1">
    <line x1="456" y1="325" x2="472" y2="290"/>
    <circle cx="456" cy="325" r="2"/>
    <circle cx="472" cy="290" r="2"/>
  </g>
  <g stroke="chocolate" stroke-width="1">
    <line x1="263" y1="388" x2="451" y2="270"/>
    <circle cx="263" cy="388" r="2"/>
    <circle cx="451" cy="270" r="2"/>
  </g>
  <g stroke="chocolate" stroke-width="1">
    <line x1="286" y1="374" x2="387" y2="229"/>
    <circle cx="286" cy="374" r="2"/>
    <circle cx="387" cy="229" r="2"/>
  </g>
  <g stroke="chocolate" stroke-width="1">
    <line x1="351" y1="279" x2="393" y2="220"/>
    <circle cx="351" cy="279" r="2"/>
    <circle cx="393" cy="220" r="2"/>
  </g>
  <g stroke="chocolate" stroke-width="1">
    <line x1="313" y1="314" x2="360" y2="259"/>
    <circle cx="313" cy="314" r="2"/>
    <circle cx="360" cy="259" r="2"/>
  </g>
  <g stroke="chocolate" stroke-width="1">
    <line x1="256" y1="379" x2="360" y2="259"/>
    <circle cx="256" cy="379" r="2"/>
    <circle cx="360" cy="259" r="2"/>
  </g>
  <g stroke="chocolate" stroke-width="1">
    <line x1="248" y1="365" x2="356" y2="294"/>
    <circle cx="248" cy="365" r="2"/>
    <circle cx="356" cy="294" r="2"/>
  </g>
  <g stroke="chocolate" stroke-width="1">
    <line x1="356" y1="281" x2="405" y2="250"/>
    <circle cx="356" cy="281" r="2"/>
    <circle cx="405" cy="250" r="2"/>
  </g>
  <g stroke="chocolate" stroke-width="1">
    <line x1="230" y1="334" x2="348" y2="229"/>
    <circle cx="230" cy="334" r="2"/>
    <circle cx="348" cy="229" r="2"/>
  </g>
  <g stroke="chocolate" stroke-width="1">
    <line x1="313" y1="314" x2="423" y2="257"/>
    <circle cx="313" cy="314" r="2"/>
    <circle cx="423" cy="257" r="2"/>
  </g>
  <g stroke="chocolate" stroke-width="1">
    <line x1="223" y1="360" x2="304" y2="223"/>
    <circle cx="223" cy="360" r="2"/>
    <circle cx="304" cy="223" r="2"/>
  </g>
  <g stroke="chocolate" stroke-width="1">
    <line x1="281" y1="250" x2="333" y2="179"/>
    <circle cx="281" cy="250" r="2"/>
    <circle cx="333" cy="179" r="2"/>
  </g>
  <g stroke="chocolate" stroke-width="1">
    <line x1="248" y1="365" x2="294" y2="259"/>
    <circle cx="248" cy="365" r="2"/>
    <circle cx="294" cy="259" r="2"/>
  </g>
  <g stroke="chocolate" stroke-width="1">
    <line x1="286" y1="236" x2="351" y2="177"/>
    <circle cx="286" cy="236" r="2"/>
    <circle cx="351" cy="177" r="2"/>
  </g>
  <g stroke="chocolate" stroke-width="1">
    <line x1="256" y1="379" x2="286" y2="374"/>
    <circle cx="256" cy="379" r="2"/>
    <circle cx="286" cy="374" r="2"/>
  </g>
  <g stroke="chocolate" stroke-width="1">
    <line x1="416" y1="292" x2="423" y2="257"/>
    <circle cx="416" cy="292" r="2"/>
    <circle cx="423" cy="257" r="2"/>
  </g>
  <g stroke="chocolate" stroke-width="1">
    <line x1="319" y1="266" x2="405" y2="226"/>
    <circle cx="319" cy="266" r="2"/>
    <circle cx="405" cy="226" r="2"/>
  </g>
  <g stroke="chocolate" stroke-width="1">
    <line x1="351" y1="279" x2="364" y2="209"/>
    <circle cx="351" cy="279" r="2"/>
    <circle cx="364" cy="209" r="2"/>
  </g>
  <g stroke="chocolate" stroke-width="1">
    <line x1="397" y1="298" x2="405" y2="226"/>
    <circle cx="397" cy="298" r="2"/>
    <circle cx="405" cy="226" r="2"/>
  </g>
  <g stroke="chocolate" stroke-width="1">
    <line x1="281" y1="250" x2="296" y2="144"/>
    <circle cx="281" cy="250" r="2"/>
    <circle cx="296" cy="144" r="2"/>
  </g>
  <g stroke="chocolate" stroke-width="1">
    <line x1="230" y1="334" x2="246" y2="214"/>
    <circle cx="230" cy="334" r="2"/>
    <circle cx="246" cy="214" r="2"/>
  </g>
  <g stroke="chocolate" stroke-width="1">
    <line x1="279" y1="378" x2="286" y2="236"/>
    <circle cx="279" cy="378" r="2"/>
    <circle cx="286" cy="236" r="2"/>
  </g>
  <g stroke="chocolate" stroke-width="1">
    <line x1="294" y1="259" x2="387" y2="229"/>
    <circle cx="294" cy="259" r="2"/>
    <circle cx="387" cy="229" r="2"/>
  </g>
  <g stroke="chocolate" stroke-width="1">
    <line x1="230" y1="334" x2="456" y2="325"/>
    <circle cx="230" cy="334" r="2"/>
    <circle cx="456" cy="325" r="2"/>
  </g>
  <g stroke="chocolate" stroke-width="1">
    <line x1="260" y1="241" x2="364" y2="209"/>
    <circle cx="260" cy="241" r="2"/>
    <circle cx="364" cy="209" r="2"/>
  </g>
  <g stroke="chocolate" stroke-width="1">
    <line x1="246" y1="214" x2="333" y2="179"/>
    <circle cx="246" cy="214" r="2"/>
    <circle cx="333" cy="179" r="2"/>
  </g>
  <g stroke="chocolate" stroke-width="1">
    <line x1="451" y1="270" x2="447" y2="237"/>
    <circle cx="451" cy="270" r="2"/>
    <circle cx="447" cy="237" r="2"/>
  </g>
  <g stroke="chocolate" stroke-width="1">
    <line x1="279" y1="378" x2="248" y2="365"/>
    <circle cx="279" cy="378" r="2"/>
    <circle cx="248" cy="365" r="2"/>
  </g>
  <g stroke="chocolate" stroke-width="1">
    <line x1="356" y1="281" x2="333" y2="179"/>
    <circle cx="356" cy="281" r="2"/>
    <circle cx="333" cy="179" r="2"/>
  </g>
  <g stroke="chocolate" stroke-width="1">
    <line x1="296" y1="144" x2="358" y2="122"/>
    <circle cx="296" cy="144" r="2"/>
    <circle cx="358" cy="122" r="2"/>
  </g>
  <g stroke="chocolate" stroke-width="1">
    <line x1="256" y1="379" x2="223" y2="360"/>
    <circle cx="256" cy="379" r="2"/>
    <circle cx="223" cy="360" r="2"/>
  </g>
  <g stroke="chocolate" stroke-width="1">
    <line x1="263" y1="388" x2="230" y2="334"/>
    <circle cx="263" cy="388" r="2"/>
    <circle cx="230" cy="334" r="2"/>
  </g>
  <g stroke="chocolate" stroke-width="1">
    <line x1="263" y1="388" x2="248" y2="365"/>
    <circle cx="263" cy="388" r="2"/>
    <circle cx="248" cy="365" r="2"/>
  </g>
  <g stroke="chocolate" stroke-width="1">
    <line x1="406" y1="299" x2="387" y2="229"/>
    <circle cx="406" cy="299" r="2"/>
    <circle cx="387" cy="229" r="2"/>
  </g>
  <g stroke="chocolate" stroke-width="1">
    <line x1="319" y1="266" x2="304" y2="223"/>
    <circle cx="319" cy="266" r="2"/>
    <circle cx="304" cy="223" r="2"/>
  </g>
  <g stroke="chocolate" stroke-width="1">
    <line x1="378" y1="316" x2="348" y2="229"/>
    <circle cx="378" cy="316" r="2"/>
    <circle cx="348" cy="229" r="2"/>
  </g>
  <g stroke="chocolate" stroke-width="1">
    <line x1="260" y1="241" x2="246" y2="214"/>
    <circle cx="260" cy="241" r="2"/>
    <circle cx="246" cy="214" r="2"/>
  </g>
  <g stroke="chocolate" stroke-width="1">
    <line x1="367" y1="323" x2="356" y2="294"/>
    <circle cx="367" cy="323" r="2"/>
    <circle cx="356" cy="294" r="2"/>
  </g>
  <g stroke="chocolate" stroke-width="1">
    <line x1="336" y1="343" x2="294" y2="259"/>
    <circle cx="336" cy="343" r="2"/>
    <circle cx="294" cy="259" r="2"/>
  </g>
  <g stroke="chocolate" stroke-width="1">
    <line x1="393" y1="220" x2="246" y2="214"/>
    <circle cx="393" cy="220" r="2"/>
    <circle cx="246" cy="214" r="2"/>
  </g>
  <g stroke="chocolate" stroke-width="1">
    <line x1="405" y1="250" x2="358" y2="122"/>
    <circle cx="405" cy="250" r="2"/>
    <circle cx="358" cy="122" r="2"/>
  </g>
  <g stroke="chocolate" stroke-width="1">
    <line x1="447" y1="237" x2="304" y2="223"/>
    <circle cx="447" cy="237" r="2"/>
    <circle cx="304" cy="223" r="2"/>
  </g>
  <g stroke="chocolate" stroke-width="1">
    <line x1="416" y1="292" x2="294" y2="259"/>
    <circle cx="416" cy="292" r="2"/>
    <circle cx="294" cy="259" r="2"/>
  </g>
  <g stroke="chocolate" stroke-width="1">
    <line x1="336" y1="343" x2="313" y2="314"/>
    <circle cx="336" cy="343" r="2"/>
    <circle cx="313" cy="314" r="2"/>
  </g>
  <g stroke="chocolate" stroke-width="1">
    <line x1="397" y1="298" x2="260" y2="241"/>
    <circle cx="397" cy="298" r="2"/>
    <circle cx="260" cy="241" r="2"/>
  </g>
  <g stroke="chocolate" stroke-width="1">
    <line x1="367" y1="323" x2="286" y2="236"/>
    <circle cx="367" cy="323" r="2"/>
    <circle cx="286" cy="236" r="2"/>
  </g>
  <g stroke="chocolate" stroke-width="1">
    <line x1="378" y1="316" x2="356" y2="294"/>
    <circle cx="378" cy="316" r="2"/>
    <circle cx="356" cy="294" r="2"/>
  </g>
  <g stroke="chocolate" stroke-width="1">
    <line x1="456" y1="325" x2="393" y2="220"/>
    <circle cx="456" cy="325" r="2"/>
    <circle cx="393" cy="220" r="2"/>
  </g>
  <g stroke="chocolate" stroke-width="1">
    <line x1="406" y1="299" x2="360" y2="259"/>
    <circle cx="406" cy="299" r="2"/>
    <circle cx="360" cy="259" r="2"/>
  </g>
  <g stroke="chocolate" stroke-width="1">
    <line x1="472" y1="290" x2="348" y2="229"/>
    <circle cx="472" cy="290" r="2"/>
    <circle cx="348" cy="229" r="2"/>
  </g>
  <g stroke="chocolate" stroke-width="1">
    <line x1="423" y1="257" x2="351" y2="177"/>
    <circle cx="423" cy="257" r="2"/>
    <circle cx="351" cy="177" r="2"/>
  </g>
  <g stroke="chocolate" stroke-width="1">
    <line x1="405" y1="250" x2="364" y2="209"/>
    <circle cx="405" cy="250" r="2"/>
    <circle cx="364" cy="209" r="2"/>
  </g>
  <g stroke="chocolate" stroke-width="1">
    <line x1="451" y1="270" x2="387" y2="229"/>
    <circle cx="451" cy="270" r="2"/>
    <circle cx="387" cy="229" r="2"/>
  </g>
  <g stroke="chocolate" stroke-width="1">
    <line x1="447" y1="237" x2="333" y2="179"/>
    <circle cx="447" cy="237" r="2"/>
    <circle cx="333" cy="179" r="2"/>
  </g>
  <g stroke="chocolate" stroke-width="1">
    <line x1="405" y1="226" x2="296" y2="144"/>
    <circle cx="405" cy="226" r="2"/>
    <circle cx="296" cy="144" r="2"/>
  </g>
  <g stroke="black" stroke-width="1">
    <line x1="5" y1="5" x2="505" y2="5"/>
    <line x1="5" y1="5" x2="5" y2="505"/>
    <line x1="505" y1="505" x2="5" y2="505"/>
    <line x1="505" y1="505" x2="505" y2="5"/>
    <line x1="105" y1="2" x2="105" y2="8"/>
    <line x1="2" y1="105" x2="8" y2="105"/>
    <line x1="105" y1="502" x2="105" y2="508"/>
    <line x1="502" y1="105" x2="508" y2="105"/>
    <line x1="205" y1="2" x2="205" y2="8"/>
    <line x1="2" y1="205" x2="8" y2="205"/>
    <line x1="205" y1="502" x2="205" y2="508"/>
    <line x1="502" y1="205" x2="508" y2="205"/>
    <line x1="305" y1="2" x2="305" y2="8"/>
    <line x1="2" y1="305" x2="8" y2="305"/>
    <line x1="305" y1="502" x2="305" y2="508"/>
    <line x1="502" y1="305" x2="508" y2="305"/>
    <line x1="405" y1="2" x2="405" y2="8"/>
    <line x1="2" y1="405" x2="8" y2="405"/>
    <line x1="405" y1="502" x2="405" y2="508"/>
    <line x1="502" y1="405" x2="508" y2="405"/>
  </g>
  <g stroke="gray" stroke-width="1" stroke-dasharray="5,5">
    <line x1="105" y1="5" x2="105" y2="505"/>
    <line x1="5" y1="105" x2="505" y2="105"/>
    <line x1="205" y1="5" x2="205" y2="505"/>
    <line x1="5" y1="205" x2="505" y2="205"/>
    <line x1="305" y1="5" x2="305" y2="505"/>
    <line x1="5" y1="305" x2="505" y2="305"/>
    <line x1="405" y1="5" x2="405" y2="505"/>
    <line x1="5" y1="405" x2="505" y2="405"/>
  </g>
</svg>
