<?xml version="1.0" standalone="no"?>
<!DOCTYPE svg PUBLIC "-//W3C//DTD SVG 1.1//EN" 
  "http://www.w3.org/Graphics/SVG/1.1/DTD/svg11.dtd">
<svg width="510" height="510" version="1.1" id="toplevel"
    xmlns="http://www.w3.org/2000/svg"
    xmlns:xlink="http://www.w3.org/1999/xlink">
  <polygon points="208,370 354,203 307,159 267,199 240,223 150,140 111,179 113,182 104,192 190,267 206,267 156,322 169,334 167,336"
           fill="bisque"/>
  <g stroke="chocolate" stroke-width="1">
    <line x1="208" y1="370" x2="354" y2="203"/>
    <circle cx="208" cy="370" r="2"/>
    <circle cx="354" cy="203" r="2"/>
  </g>
  <g stroke="chocolate" stroke-width="1">
    <line x1="167" y1="336" x2="310" y2="161"/>
    <circle cx="167" cy="336" r="2"/>
    <circle cx="310" cy="161" r="2"/>
  </g>
  <g stroke="chocolate" stroke-width="1">
    <line x1="156" y1="322" x2="307" y2="159"/>
    <circle cx="156" cy="322" r="2"/>
    <circle cx="307" cy="159" r="2"/>
  </g>
  <g stroke="chocolate" stroke-width="1">
    <line x1="286" y1="267" x2="354" y2="203"/>
    <circle cx="286" cy="267" r="2"/>
    <circle cx="354" cy="203" r="2"/>
  </g>
  <g stroke="chocolate" stroke-width="1">
    <line x1="200" y1="267" x2="307" y2="159"/>
    <circle cx="200" cy="267" r="2"/>
    <circle cx="307" cy="159" r="2"/>
  </g>
  <g stroke="chocolate" stroke-width="1">
    <line x1="104" y1="192" x2="150" y2="140"/>
    <circle cx="104" cy="192" r="2"/>
    <circle cx="150" cy="140" r="2"/>
  </g>
  <g stroke="chocolate" stroke-width="1">
    <line x1="190" y1="267" x2="310" y2="161"/>
    <circle cx="190" cy="267" r="2"/>
    <circle cx="310" cy="161" r="2"/>
  </g>
  <g stroke="chocolate" stroke-width="1">
    <line x1="111" y1="179" x2="150" y2="140"/>
    <circle cx="111" cy="179" r="2"/>
    <circle cx="150" cy="140" r="2"/>
  </g>
  <g stroke="chocolate" stroke-width="1">
    <line x1="208" y1="370" x2="156" y2="322"/>
    <circle cx="208" cy="370" r="2"/>
    <circle cx="156" cy="322" r="2"/>
  </g>
  <g stroke="chocolate" stroke-width="1">
    <line x1="200" y1="267" x2="111" y2="179"/>
    <circle cx="200" cy="267" r="2"/>
    <circle cx="111" cy="179" r="2"/>
  </g>
  <g stroke="chocolate" stroke-width="1">
    <line x1="208" y1="370" x2="167" y2="336"/>
    <circle cx="208" cy="370" r="2"/>
    <circle cx="167" cy="336" r="2"/>
  </g>
  <g stroke="chocolate" stroke-width="1">
    <line x1="190" y1="267" x2="104" y2="192"/>
    <circle cx="190" cy="267" r="2"/>
    <circle cx="104" cy="192" r="2"/>
  </g>
  <g stroke="chocolate" stroke-width="1">
    <line x1="286" y1="267" x2="150" y2="140"/>
    <circle cx="286" cy="267" r="2"/>
    <circle cx="150" cy="140" r="2"/>
  </g>
  <g stroke="chocolate" stroke-width="1">
    <line x1="354" y1="203" x2="307" y2="159"/>
    <circle cx="354" cy="203" r="2"/>
    <circle cx="307" cy="159" r="2"/>
  </g>
  <g stroke="chocolate" stroke-width="1">
    <line x1="190" y1="267" x2="286" y2="267"/>
    <circle cx="190" cy="267" r="2"/>
    <circle cx="286" cy="267" r="2"/>
  </g>
  <g stroke="black" stroke-width="1">
    <line x1="5" y1="5" x2="505" y2="5"/>
    <line x1="5" y1="5" x2="5" y2="505"/>
    <line x1="505" y1="505" x2="5" y2="505"/>
    <line x1="505" y1="505" x2="505" y2="5"/>
    <line x1="105" y1="2" x2="105" y2="8"/>
    <line x1="2" y1="105" x2="8" y2="105"/>
    <line x1="105" y1="502" x2="105" y2="508"/>
    <line x1="502" y1="105" x2="508" y2="105"/>
    <line x1="205" y1="2" x2="205" y2="8"/>
    <line x1="2" y1="205" x2="8" y2="205"/>
    <line x1="205" y1="502" x2="205" y2="508"/>
    <line x1="502" y1="205" x2="508" y2="205"/>
    <line x1="305" y1="2" x2="305" y2="8"/>
    <line x1="2" y1="305" x2="8" y2="305"/>
    <line x1="305" y1="502" x2="305" y2="508"/>
    <line x1="502" y1="305" x2="508" y2="305"/>
    <line x1="405" y1="2" x2="405" y2="8"/>
    <line x1="2" y1="405" x2="8" y2="405"/>
    <line x1="405" y1="502" x2="405" y2="508"/>
    <line x1="502" y1="405" x2="508" y2="405"/>
  </g>
  <g stroke="gray" stroke-width="1" stroke-dasharray="5,5">
    <line x1="105" y1="5" x2="105" y2="505"/>
    <line x1="5" y1="105" x2="505" y2="105"/>
    <line x1="205" y1="5" x2="205" y2="505"/>
    <line x1="5" y1="205" x2="505" y2="205"/>
    <line x1="305" y1="5" x2="305" y2="505"/>
    <line x1="5" y1="305" x2="505" y2="305"/>
    <line x1="405" y1="5" x2="405" y2="505"/>
    <line x1="5" y1="405" x2="505" y2="405"/>
  </g>
</svg>
