<?xml version="1.0" standalone="no"?>
<!DOCTYPE svg PUBLIC "-//W3C//DTD SVG 1.1//EN" 
  "http://www.w3.org/Graphics/SVG/1.1/DTD/svg11.dtd">
<svg width="510" height="510" version="1.1" id="toplevel"
    xmlns="http://www.w3.org/2000/svg"
    xmlns:xlink="http://www.w3.org/1999/xlink">
  <polygon points="79,397 136,359 189,359 216,303 247,282 255,294 264,347 312,391 319,384 330,230 314,217 337,213 381,212 381,206 268,113 191,140 167,139 161,151 56,188 58,288 90,288 52,359"
           fill="bisque"/>
  <g stroke="chocolate" stroke-width="1">
    <line x1="312" y1="391" x2="319" y2="384"/>
    <circle cx="312" cy="391" r="2"/>
    <circle cx="319" cy="384" r="2"/>
  </g>
  <g stroke="chocolate" stroke-width="1">
    <line x1="264" y1="347" x2="326" y2="227"/>
    <circle cx="264" cy="347" r="2"/>
    <circle cx="326" cy="227" r="2"/>
  </g>
  <g stroke="chocolate" stroke-width="1">
    <line x1="189" y1="359" x2="277" y2="178"/>
    <circle cx="189" cy="359" r="2"/>
    <circle cx="277" cy="178" r="2"/>
  </g>
  <g stroke="chocolate" stroke-width="1">
    <line x1="238" y1="265" x2="277" y2="178"/>
    <circle cx="238" cy="265" r="2"/>
    <circle cx="277" cy="178" r="2"/>
  </g>
  <g stroke="chocolate" stroke-width="1">
    <line x1="243" y1="228" x2="266" y2="174"/>
    <circle cx="243" cy="228" r="2"/>
    <circle cx="266" cy="174" r="2"/>
  </g>
  <g stroke="chocolate" stroke-width="1">
    <line x1="79" y1="397" x2="326" y2="227"/>
    <circle cx="79" cy="397" r="2"/>
    <circle cx="326" cy="227" r="2"/>
  </g>
  <g stroke="chocolate" stroke-width="1">
    <line x1="238" y1="265" x2="268" y2="113"/>
    <circle cx="238" cy="265" r="2"/>
    <circle cx="268" cy="113" r="2"/>
  </g>
  <g stroke="chocolate" stroke-width="1">
    <line x1="149" y1="286" x2="205" y2="135"/>
    <circle cx="149" cy="286" r="2"/>
    <circle cx="205" cy="135" r="2"/>
  </g>
  <g stroke="chocolate" stroke-width="1">
    <line x1="199" y1="214" x2="217" y2="131"/>
    <circle cx="199" cy="214" r="2"/>
    <circle cx="217" cy="131" r="2"/>
  </g>
  <g stroke="chocolate" stroke-width="1">
    <line x1="319" y1="384" x2="330" y2="230"/>
    <circle cx="319" cy="384" r="2"/>
    <circle cx="330" cy="230" r="2"/>
  </g>
  <g stroke="chocolate" stroke-width="1">
    <line x1="52" y1="359" x2="167" y2="139"/>
    <circle cx="52" cy="359" r="2"/>
    <circle cx="167" cy="139" r="2"/>
  </g>
  <g stroke="chocolate" stroke-width="1">
    <line x1="74" y1="219" x2="89" y2="176"/>
    <circle cx="74" cy="219" r="2"/>
    <circle cx="89" cy="176" r="2"/>
  </g>
  <g stroke="chocolate" stroke-width="1">
    <line x1="52" y1="359" x2="189" y2="359"/>
    <circle cx="52" cy="359" r="2"/>
    <circle cx="189" cy="359" r="2"/>
  </g>
  <g stroke="chocolate" stroke-width="1">
    <line x1="58" y1="288" x2="56" y2="188"/>
    <circle cx="58" cy="288" r="2"/>
    <circle cx="56" cy="188" r="2"/>
  </g>
  <g stroke="chocolate" stroke-width="1">
    <line x1="180" y1="260" x2="178" y2="145"/>
    <circle cx="180" cy="260" r="2"/>
    <circle cx="178" cy="145" r="2"/>
  </g>
  <g stroke="chocolate" stroke-width="1">
    <line x1="381" y1="212" x2="381" y2="206"/>
    <circle cx="381" cy="212" r="2"/>
    <circle cx="381" cy="206" r="2"/>
  </g>
  <g stroke="chocolate" stroke-width="1">
    <line x1="180" y1="260" x2="167" y2="139"/>
    <circle cx="180" cy="260" r="2"/>
    <circle cx="167" cy="139" r="2"/>
  </g>
  <g stroke="chocolate" stroke-width="1">
    <line x1="79" y1="397" x2="52" y2="359"/>
    <circle cx="79" cy="397" r="2"/>
    <circle cx="52" cy="359" r="2"/>
  </g>
  <g stroke="chocolate" stroke-width="1">
    <line x1="199" y1="214" x2="266" y2="174"/>
    <circle cx="199" cy="214" r="2"/>
    <circle cx="266" cy="174" r="2"/>
  </g>
  <g stroke="chocolate" stroke-width="1">
    <line x1="264" y1="347" x2="229" y2="142"/>
    <circle cx="264" cy="347" r="2"/>
    <circle cx="229" cy="142" r="2"/>
  </g>
  <g stroke="chocolate" stroke-width="1">
    <line x1="180" y1="260" x2="330" y2="230"/>
    <circle cx="180" cy="260" r="2"/>
    <circle cx="330" cy="230" r="2"/>
  </g>
  <g stroke="chocolate" stroke-width="1">
    <line x1="58" y1="288" x2="149" y2="286"/>
    <circle cx="58" cy="288" r="2"/>
    <circle cx="149" cy="286" r="2"/>
  </g>
  <g stroke="chocolate" stroke-width="1">
    <line x1="189" y1="359" x2="56" y2="188"/>
    <circle cx="189" cy="359" r="2"/>
    <circle cx="56" cy="188" r="2"/>
  </g>
  <g stroke="chocolate" stroke-width="1">
    <line x1="243" y1="228" x2="381" y2="206"/>
    <circle cx="243" cy="228" r="2"/>
    <circle cx="381" cy="206" r="2"/>
  </g>
  <g stroke="chocolate" stroke-width="1">
    <line x1="238" y1="265" x2="180" y2="260"/>
    <circle cx="238" cy="265" r="2"/>
    <circle cx="180" cy="260" r="2"/>
  </g>
  <g stroke="chocolate" stroke-width="1">
    <line x1="149" y1="286" x2="74" y2="219"/>
    <circle cx="149" cy="286" r="2"/>
    <circle cx="74" cy="219" r="2"/>
  </g>
  <g stroke="chocolate" stroke-width="1">
    <line x1="56" y1="188" x2="268" y2="113"/>
    <circle cx="56" cy="188" r="2"/>
    <circle cx="268" cy="113" r="2"/>
  </g>
  <g stroke="chocolate" stroke-width="1">
    <line x1="312" y1="391" x2="264" y2="347"/>
    <circle cx="312" cy="391" r="2"/>
    <circle cx="264" cy="347" r="2"/>
  </g>
  <g stroke="chocolate" stroke-width="1">
    <line x1="74" y1="219" x2="381" y2="212"/>
    <circle cx="74" cy="219" r="2"/>
    <circle cx="381" cy="212" r="2"/>
  </g>
  <g stroke="chocolate" stroke-width="1">
    <line x1="319" y1="384" x2="199" y2="214"/>
    <circle cx="319" cy="384" r="2"/>
    <circle cx="199" cy="214" r="2"/>
  </g>
  <g stroke="chocolate" stroke-width="1">
    <line x1="243" y1="228" x2="178" y2="145"/>
    <circle cx="243" cy="228" r="2"/>
    <circle cx="178" cy="145" r="2"/>
  </g>
  <g stroke="chocolate" stroke-width="1">
    <line x1="238" y1="265" x2="89" y2="176"/>
    <circle cx="238" cy="265" r="2"/>
    <circle cx="89" cy="176" r="2"/>
  </g>
  <g stroke="chocolate" stroke-width="1">
    <line x1="229" y1="142" x2="167" y2="139"/>
    <circle cx="229" cy="142" r="2"/>
    <circle cx="167" cy="139" r="2"/>
  </g>
  <g stroke="chocolate" stroke-width="1">
    <line x1="330" y1="230" x2="217" y2="131"/>
    <circle cx="330" cy="230" r="2"/>
    <circle cx="217" cy="131" r="2"/>
  </g>
  <g stroke="chocolate" stroke-width="1">
    <line x1="277" y1="178" x2="167" y2="139"/>
    <circle cx="277" cy="178" r="2"/>
    <circle cx="167" cy="139" r="2"/>
  </g>
  <g stroke="chocolate" stroke-width="1">
    <line x1="277" y1="178" x2="205" y2="135"/>
    <circle cx="277" cy="178" r="2"/>
    <circle cx="205" cy="135" r="2"/>
  </g>
  <g stroke="chocolate" stroke-width="1">
    <line x1="381" y1="206" x2="268" y2="113"/>
    <circle cx="381" cy="206" r="2"/>
    <circle cx="268" cy="113" r="2"/>
  </g>
  <g stroke="black" stroke-width="1">
    <line x1="5" y1="5" x2="505" y2="5"/>
    <line x1="5" y1="5" x2="5" y2="505"/>
    <line x1="505" y1="505" x2="5" y2="505"/>
    <line x1="505" y1="505" x2="505" y2="5"/>
    <line x1="105" y1="2" x2="105" y2="8"/>
    <line x1="2" y1="105" x2="8" y2="105"/>
    <line x1="105" y1="502" x2="105" y2="508"/>
    <line x1="502" y1="105" x2="508" y2="105"/>
    <line x1="205" y1="2" x2="205" y2="8"/>
    <line x1="2" y1="205" x2="8" y2="205"/>
    <line x1="205" y1="502" x2="205" y2="508"/>
    <line x1="502" y1="205" x2="508" y2="205"/>
    <line x1="305" y1="2" x2="305" y2="8"/>
    <line x1="2" y1="305" x2="8" y2="305"/>
    <line x1="305" y1="502" x2="305" y2="508"/>
    <line x1="502" y1="305" x2="508" y2="305"/>
    <line x1="405" y1="2" x2="405" y2="8"/>
    <line x1="2" y1="405" x2="8" y2="405"/>
    <line x1="405" y1="502" x2="405" y2="508"/>
    <line x1="502" y1="405" x2="508" y2="405"/>
  </g>
  <g stroke="gray" stroke-width="1" stroke-dasharray="5,5">
    <line x1="105" y1="5" x2="105" y2="505"/>
    <line x1="5" y1="105" x2="505" y2="105"/>
    <line x1="205" y1="5" x2="205" y2="505"/>
    <line x1="5" y1="205" x2="505" y2="205"/>
    <line x1="305" y1="5" x2="305" y2="505"/>
    <line x1="5" y1="305" x2="505" y2="305"/>
    <line x1="405" y1="5" x2="405" y2="505"/>
    <line x1="5" y1="405" x2="505" y2="405"/>
  </g>
</svg>
