<?xml version="1.0" standalone="no"?>
<!DOCTYPE svg PUBLIC "-//W3C//DTD SVG 1.1//EN" 
  "http://www.w3.org/Graphics/SVG/1.1/DTD/svg11.dtd">
<svg width="510" height="510" version="1.1" id="toplevel"
    xmlns="http://www.w3.org/2000/svg"
    xmlns:xlink="http://www.w3.org/1999/xlink">
  <polygon points="234,449 367,271 355,193 177,61 143,105 322,238 189,416"
           fill="bisque"/>
  <g stroke="chocolate" stroke-width="1">
    <line x1="234" y1="449" x2="367" y2="271"/>
    <circle cx="234" cy="449" r="2"/>
    <circle cx="367" cy="271" r="2"/>
  </g>
  <g stroke="chocolate" stroke-width="1">
    <line x1="189" y1="416" x2="355" y2="193"/>
    <circle cx="189" cy="416" r="2"/>
    <circle cx="355" cy="193" r="2"/>
  </g>
  <g stroke="chocolate" stroke-width="1">
    <line x1="143" y1="105" x2="177" y2="61"/>
    <circle cx="143" cy="105" r="2"/>
    <circle cx="177" cy="61" r="2"/>
  </g>
  <g stroke="chocolate" stroke-width="1">
    <line x1="234" y1="449" x2="189" y2="416"/>
    <circle cx="234" cy="449" r="2"/>
    <circle cx="189" cy="416" r="2"/>
  </g>
  <g stroke="chocolate" stroke-width="1">
    <line x1="367" y1="271" x2="355" y2="193"/>
    <circle cx="367" cy="271" r="2"/>
    <circle cx="355" cy="193" r="2"/>
  </g>
  <g stroke="chocolate" stroke-width="1">
    <line x1="367" y1="271" x2="143" y2="105"/>
    <circle cx="367" cy="271" r="2"/>
    <circle cx="143" cy="105" r="2"/>
  </g>
  <g stroke="chocolate" stroke-width="1">
    <line x1="355" y1="193" x2="177" y2="61"/>
    <circle cx="355" cy="193" r="2"/>
    <circle cx="177" cy="61" r="2"/>
  </g>
  <g stroke="black" stroke-width="1">
    <line x1="5" y1="5" x2="505" y2="5"/>
    <line x1="5" y1="5" x2="5" y2="505"/>
    <line x1="505" y1="505" x2="5" y2="505"/>
    <line x1="505" y1="505" x2="505" y2="5"/>
    <line x1="105" y1="2" x2="105" y2="8"/>
    <line x1="2" y1="105" x2="8" y2="105"/>
    <line x1="105" y1="502" x2="105" y2="508"/>
    <line x1="502" y1="105" x2="508" y2="105"/>
    <line x1="205" y1="2" x2="205" y2="8"/>
    <line x1="2" y1="205" x2="8" y2="205"/>
    <line x1="205" y1="502" x2="205" y2="508"/>
    <line x1="502" y1="205" x2="508" y2="205"/>
    <line x1="305" y1="2" x2="305" y2="8"/>
    <line x1="2" y1="305" x2="8" y2="305"/>
    <line x1="305" y1="502" x2="305" y2="508"/>
    <line x1="502" y1="305" x2="508" y2="305"/>
    <line x1="405" y1="2" x2="405" y2="8"/>
    <line x1="2" y1="405" x2="8" y2="405"/>
    <line x1="405" y1="502" x2="405" y2="508"/>
    <line x1="502" y1="405" x2="508" y2="405"/>
  </g>
  <g stroke="gray" stroke-width="1" stroke-dasharray="5,5">
    <line x1="105" y1="5" x2="105" y2="505"/>
    <line x1="5" y1="105" x2="505" y2="105"/>
    <line x1="205" y1="5" x2="205" y2="505"/>
    <line x1="5" y1="205" x2="505" y2="205"/>
    <line x1="305" y1="5" x2="305" y2="505"/>
    <line x1="5" y1="305" x2="505" y2="305"/>
    <line x1="405" y1="5" x2="405" y2="505"/>
    <line x1="5" y1="405" x2="505" y2="405"/>
  </g>
</svg>
