<?xml version="1.0" standalone="no"?>
<!DOCTYPE svg PUBLIC "-//W3C//DTD SVG 1.1//EN" 
  "http://www.w3.org/Graphics/SVG/1.1/DTD/svg11.dtd">
<svg width="510" height="510" version="1.1" id="toplevel"
    xmlns="http://www.w3.org/2000/svg"
    xmlns:xlink="http://www.w3.org/1999/xlink">
  <polygon points="273,396 411,264 406,202 266,212 283,170 148,114 99,229 193,387"
           fill="bisque"/>
  <polygon points="262,247 252,246 260,226" fill="bisque"/>
  <g stroke="chocolate" stroke-width="1">
    <line x1="273" y1="396" x2="193" y2="387"/>
    <circle cx="273" cy="396" r="2"/>
    <circle cx="193" cy="387" r="2"/>
  </g>
  <g stroke="chocolate" stroke-width="1">
    <line x1="273" y1="396" x2="411" y2="264"/>
    <circle cx="273" cy="396" r="2"/>
    <circle cx="411" cy="264" r="2"/>
  </g>
  <g stroke="chocolate" stroke-width="1">
    <line x1="383" y1="290" x2="118" y2="261"/>
    <circle cx="383" cy="290" r="2"/>
    <circle cx="118" cy="261" r="2"/>
  </g>
  <g stroke="chocolate" stroke-width="1">
    <line x1="411" y1="264" x2="99" y2="229"/>
    <circle cx="411" cy="264" r="2"/>
    <circle cx="99" cy="229" r="2"/>
  </g>
  <g stroke="chocolate" stroke-width="1">
    <line x1="259" y1="213" x2="406" y2="202"/>
    <circle cx="259" cy="213" r="2"/>
    <circle cx="406" cy="202" r="2"/>
  </g>
  <g stroke="chocolate" stroke-width="1">
    <line x1="193" y1="387" x2="283" y2="170"/>
    <circle cx="193" cy="387" r="2"/>
    <circle cx="283" cy="170" r="2"/>
  </g>
  <g stroke="chocolate" stroke-width="1">
    <line x1="193" y1="387" x2="99" y2="229"/>
    <circle cx="193" cy="387" r="2"/>
    <circle cx="99" cy="229" r="2"/>
  </g>
  <g stroke="chocolate" stroke-width="1">
    <line x1="118" y1="261" x2="175" y2="125"/>
    <circle cx="118" cy="261" r="2"/>
    <circle cx="175" cy="125" r="2"/>
  </g>
  <g stroke="chocolate" stroke-width="1">
    <line x1="99" y1="229" x2="148" y2="114"/>
    <circle cx="99" cy="229" r="2"/>
    <circle cx="148" cy="114" r="2"/>
  </g>
  <g stroke="chocolate" stroke-width="1">
    <line x1="99" y1="229" x2="148" y2="114"/>
    <circle cx="99" cy="229" r="2"/>
    <circle cx="148" cy="114" r="2"/>
  </g>
  <g stroke="chocolate" stroke-width="1">
    <line x1="283" y1="170" x2="148" y2="114"/>
    <circle cx="283" cy="170" r="2"/>
    <circle cx="148" cy="114" r="2"/>
  </g>
  <g stroke="chocolate" stroke-width="1">
    <line x1="148" y1="114" x2="148" y2="114"/>
    <circle cx="148" cy="114" r="2"/>
    <circle cx="148" cy="114" r="2"/>
  </g>
  <g stroke="chocolate" stroke-width="1">
    <line x1="273" y1="396" x2="259" y2="213"/>
    <circle cx="273" cy="396" r="2"/>
    <circle cx="259" cy="213" r="2"/>
  </g>
  <g stroke="chocolate" stroke-width="1">
    <line x1="383" y1="290" x2="377" y2="204"/>
    <circle cx="383" cy="290" r="2"/>
    <circle cx="377" cy="204" r="2"/>
  </g>
  <g stroke="chocolate" stroke-width="1">
    <line x1="411" y1="264" x2="406" y2="202"/>
    <circle cx="411" cy="264" r="2"/>
    <circle cx="406" cy="202" r="2"/>
  </g>
  <g stroke="black" stroke-width="1">
    <line x1="5" y1="5" x2="505" y2="5"/>
    <line x1="5" y1="5" x2="5" y2="505"/>
    <line x1="505" y1="505" x2="5" y2="505"/>
    <line x1="505" y1="505" x2="505" y2="5"/>
    <line x1="105" y1="2" x2="105" y2="8"/>
    <line x1="2" y1="105" x2="8" y2="105"/>
    <line x1="105" y1="502" x2="105" y2="508"/>
    <line x1="502" y1="105" x2="508" y2="105"/>
    <line x1="205" y1="2" x2="205" y2="8"/>
    <line x1="2" y1="205" x2="8" y2="205"/>
    <line x1="205" y1="502" x2="205" y2="508"/>
    <line x1="502" y1="205" x2="508" y2="205"/>
    <line x1="305" y1="2" x2="305" y2="8"/>
    <line x1="2" y1="305" x2="8" y2="305"/>
    <line x1="305" y1="502" x2="305" y2="508"/>
    <line x1="502" y1="305" x2="508" y2="305"/>
    <line x1="405" y1="2" x2="405" y2="8"/>
    <line x1="2" y1="405" x2="8" y2="405"/>
    <line x1="405" y1="502" x2="405" y2="508"/>
    <line x1="502" y1="405" x2="508" y2="405"/>
  </g>
  <g stroke="gray" stroke-width="1" stroke-dasharray="5,5">
    <line x1="105" y1="5" x2="105" y2="505"/>
    <line x1="5" y1="105" x2="505" y2="105"/>
    <line x1="205" y1="5" x2="205" y2="505"/>
    <line x1="5" y1="205" x2="505" y2="205"/>
    <line x1="305" y1="5" x2="305" y2="505"/>
    <line x1="5" y1="305" x2="505" y2="305"/>
    <line x1="405" y1="5" x2="405" y2="505"/>
    <line x1="5" y1="405" x2="505" y2="405"/>
  </g>
</svg>
