<?xml version="1.0" standalone="no"?>
<!DOCTYPE svg PUBLIC "-//W3C//DTD SVG 1.1//EN" 
  "http://www.w3.org/Graphics/SVG/1.1/DTD/svg11.dtd">
<svg width="510" height="510" version="1.1" id="toplevel"
    xmlns="http://www.w3.org/2000/svg"
    xmlns:xlink="http://www.w3.org/1999/xlink">
  <polygon points="254,395 263,372 287,379 345,163 295,115 204,152 165,248 183,297 195,293 200,305 225,298 196,373"
           fill="bisque"/>
  <polygon points="244,248 231,216 262,201" fill="bisque"/>
  <g stroke="chocolate" stroke-width="1">
    <line x1="258" y1="384" x2="198" y2="368"/>
    <circle cx="258" cy="384" r="2"/>
    <circle cx="198" cy="368" r="2"/>
  </g>
  <g stroke="chocolate" stroke-width="1">
    <line x1="254" y1="395" x2="196" y2="373"/>
    <circle cx="254" cy="395" r="2"/>
    <circle cx="196" cy="373" r="2"/>
  </g>
  <g stroke="chocolate" stroke-width="1">
    <line x1="242" y1="391" x2="198" y2="368"/>
    <circle cx="242" cy="391" r="2"/>
    <circle cx="198" cy="368" r="2"/>
  </g>
  <g stroke="chocolate" stroke-width="1">
    <line x1="287" y1="379" x2="202" y2="356"/>
    <circle cx="287" cy="379" r="2"/>
    <circle cx="202" cy="356" r="2"/>
  </g>
  <g stroke="chocolate" stroke-width="1">
    <line x1="258" y1="384" x2="202" y2="356"/>
    <circle cx="258" cy="384" r="2"/>
    <circle cx="202" cy="356" r="2"/>
  </g>
  <g stroke="chocolate" stroke-width="1">
    <line x1="242" y1="391" x2="344" y2="162"/>
    <circle cx="242" cy="391" r="2"/>
    <circle cx="344" cy="162" r="2"/>
  </g>
  <g stroke="chocolate" stroke-width="1">
    <line x1="254" y1="395" x2="344" y2="162"/>
    <circle cx="254" cy="395" r="2"/>
    <circle cx="344" cy="162" r="2"/>
  </g>
  <g stroke="chocolate" stroke-width="1">
    <line x1="287" y1="379" x2="345" y2="163"/>
    <circle cx="287" cy="379" r="2"/>
    <circle cx="345" cy="163" r="2"/>
  </g>
  <g stroke="chocolate" stroke-width="1">
    <line x1="230" y1="304" x2="261" y2="287"/>
    <circle cx="230" cy="304" r="2"/>
    <circle cx="261" cy="287" r="2"/>
  </g>
  <g stroke="chocolate" stroke-width="1">
    <line x1="200" y1="305" x2="261" y2="287"/>
    <circle cx="200" cy="305" r="2"/>
    <circle cx="261" cy="287" r="2"/>
  </g>
  <g stroke="chocolate" stroke-width="1">
    <line x1="200" y1="305" x2="256" y2="275"/>
    <circle cx="200" cy="305" r="2"/>
    <circle cx="256" cy="275" r="2"/>
  </g>
  <g stroke="chocolate" stroke-width="1">
    <line x1="196" y1="373" x2="295" y2="115"/>
    <circle cx="196" cy="373" r="2"/>
    <circle cx="295" cy="115" r="2"/>
  </g>
  <g stroke="chocolate" stroke-width="1">
    <line x1="183" y1="297" x2="165" y2="248"/>
    <circle cx="183" cy="297" r="2"/>
    <circle cx="165" cy="248" r="2"/>
  </g>
  <g stroke="chocolate" stroke-width="1">
    <line x1="183" y1="297" x2="256" y2="275"/>
    <circle cx="183" cy="297" r="2"/>
    <circle cx="256" cy="275" r="2"/>
  </g>
  <g stroke="chocolate" stroke-width="1">
    <line x1="183" y1="297" x2="252" y2="268"/>
    <circle cx="183" cy="297" r="2"/>
    <circle cx="252" cy="268" r="2"/>
  </g>
  <g stroke="chocolate" stroke-width="1">
    <line x1="200" y1="305" x2="171" y2="234"/>
    <circle cx="200" cy="305" r="2"/>
    <circle cx="171" cy="234" r="2"/>
  </g>
  <g stroke="chocolate" stroke-width="1">
    <line x1="230" y1="304" x2="180" y2="212"/>
    <circle cx="230" cy="304" r="2"/>
    <circle cx="180" cy="212" r="2"/>
  </g>
  <g stroke="chocolate" stroke-width="1">
    <line x1="165" y1="248" x2="204" y2="152"/>
    <circle cx="165" cy="248" r="2"/>
    <circle cx="204" cy="152" r="2"/>
  </g>
  <g stroke="chocolate" stroke-width="1">
    <line x1="261" y1="287" x2="204" y2="152"/>
    <circle cx="261" cy="287" r="2"/>
    <circle cx="204" cy="152" r="2"/>
  </g>
  <g stroke="chocolate" stroke-width="1">
    <line x1="165" y1="248" x2="344" y2="162"/>
    <circle cx="165" cy="248" r="2"/>
    <circle cx="344" cy="162" r="2"/>
  </g>
  <g stroke="chocolate" stroke-width="1">
    <line x1="171" y1="234" x2="344" y2="162"/>
    <circle cx="171" cy="234" r="2"/>
    <circle cx="344" cy="162" r="2"/>
  </g>
  <g stroke="chocolate" stroke-width="1">
    <line x1="180" y1="212" x2="345" y2="163"/>
    <circle cx="180" cy="212" r="2"/>
    <circle cx="345" cy="163" r="2"/>
  </g>
  <g stroke="chocolate" stroke-width="1">
    <line x1="204" y1="152" x2="295" y2="115"/>
    <circle cx="204" cy="152" r="2"/>
    <circle cx="295" cy="115" r="2"/>
  </g>
  <g stroke="chocolate" stroke-width="1">
    <line x1="345" y1="163" x2="295" y2="115"/>
    <circle cx="345" cy="163" r="2"/>
    <circle cx="295" cy="115" r="2"/>
  </g>
  <g stroke="black" stroke-width="1">
    <line x1="5" y1="5" x2="505" y2="5"/>
    <line x1="5" y1="5" x2="5" y2="505"/>
    <line x1="505" y1="505" x2="5" y2="505"/>
    <line x1="505" y1="505" x2="505" y2="5"/>
    <line x1="105" y1="2" x2="105" y2="8"/>
    <line x1="2" y1="105" x2="8" y2="105"/>
    <line x1="105" y1="502" x2="105" y2="508"/>
    <line x1="502" y1="105" x2="508" y2="105"/>
    <line x1="205" y1="2" x2="205" y2="8"/>
    <line x1="2" y1="205" x2="8" y2="205"/>
    <line x1="205" y1="502" x2="205" y2="508"/>
    <line x1="502" y1="205" x2="508" y2="205"/>
    <line x1="305" y1="2" x2="305" y2="8"/>
    <line x1="2" y1="305" x2="8" y2="305"/>
    <line x1="305" y1="502" x2="305" y2="508"/>
    <line x1="502" y1="305" x2="508" y2="305"/>
    <line x1="405" y1="2" x2="405" y2="8"/>
    <line x1="2" y1="405" x2="8" y2="405"/>
    <line x1="405" y1="502" x2="405" y2="508"/>
    <line x1="502" y1="405" x2="508" y2="405"/>
  </g>
  <g stroke="gray" stroke-width="1" stroke-dasharray="5,5">
    <line x1="105" y1="5" x2="105" y2="505"/>
    <line x1="5" y1="105" x2="505" y2="105"/>
    <line x1="205" y1="5" x2="205" y2="505"/>
    <line x1="5" y1="205" x2="505" y2="205"/>
    <line x1="305" y1="5" x2="305" y2="505"/>
    <line x1="5" y1="305" x2="505" y2="305"/>
    <line x1="405" y1="5" x2="405" y2="505"/>
    <line x1="5" y1="405" x2="505" y2="405"/>
  </g>
</svg>
