<?xml version="1.0" standalone="no"?>
<!DOCTYPE svg PUBLIC "-//W3C//DTD SVG 1.1//EN" 
  "http://www.w3.org/Graphics/SVG/1.1/DTD/svg11.dtd">
<svg width="510" height="510" version="1.1" id="toplevel"
    xmlns="http://www.w3.org/2000/svg"
    xmlns:xlink="http://www.w3.org/1999/xlink">
  <polygon points="91,488 89,466 463,484 480,133 284,42 210,22 73,265 30,463"
           fill="bisque"/>
  <g stroke="chocolate" stroke-width="1">
    <line x1="42" y1="407" x2="378" y2="180"/>
    <circle cx="42" cy="407" r="2"/>
    <circle cx="378" cy="180" r="2"/>
  </g>
  <g stroke="chocolate" stroke-width="1">
    <line x1="372" y1="233" x2="480" y2="133"/>
    <circle cx="372" cy="233" r="2"/>
    <circle cx="480" cy="133" r="2"/>
  </g>
  <g stroke="chocolate" stroke-width="1">
    <line x1="463" y1="484" x2="30" y2="463"/>
    <circle cx="463" cy="484" r="2"/>
    <circle cx="30" cy="463" r="2"/>
  </g>
  <g stroke="chocolate" stroke-width="1">
    <line x1="202" y1="50" x2="284" y2="42"/>
    <circle cx="202" cy="50" r="2"/>
    <circle cx="284" cy="42" r="2"/>
  </g>
  <g stroke="chocolate" stroke-width="1">
    <line x1="284" y1="42" x2="210" y2="36"/>
    <circle cx="284" cy="42" r="2"/>
    <circle cx="210" cy="36" r="2"/>
  </g>
  <g stroke="chocolate" stroke-width="1">
    <line x1="73" y1="265" x2="210" y2="22"/>
    <circle cx="73" cy="265" r="2"/>
    <circle cx="210" cy="22" r="2"/>
  </g>
  <g stroke="chocolate" stroke-width="1">
    <line x1="91" y1="488" x2="30" y2="463"/>
    <circle cx="91" cy="488" r="2"/>
    <circle cx="30" cy="463" r="2"/>
  </g>
  <g stroke="chocolate" stroke-width="1">
    <line x1="284" y1="42" x2="210" y2="22"/>
    <circle cx="284" cy="42" r="2"/>
    <circle cx="210" cy="22" r="2"/>
  </g>
  <g stroke="chocolate" stroke-width="1">
    <line x1="202" y1="50" x2="212" y2="23"/>
    <circle cx="202" cy="50" r="2"/>
    <circle cx="212" cy="23" r="2"/>
  </g>
  <g stroke="chocolate" stroke-width="1">
    <line x1="30" y1="463" x2="73" y2="265"/>
    <circle cx="30" cy="463" r="2"/>
    <circle cx="73" cy="265" r="2"/>
  </g>
  <g stroke="chocolate" stroke-width="1">
    <line x1="480" y1="133" x2="284" y2="42"/>
    <circle cx="480" cy="133" r="2"/>
    <circle cx="284" cy="42" r="2"/>
  </g>
  <g stroke="chocolate" stroke-width="1">
    <line x1="210" y1="36" x2="212" y2="23"/>
    <circle cx="210" cy="36" r="2"/>
    <circle cx="212" cy="23" r="2"/>
  </g>
  <g stroke="chocolate" stroke-width="1">
    <line x1="463" y1="484" x2="480" y2="133"/>
    <circle cx="463" cy="484" r="2"/>
    <circle cx="480" cy="133" r="2"/>
  </g>
  <g stroke="chocolate" stroke-width="1">
    <line x1="210" y1="36" x2="210" y2="22"/>
    <circle cx="210" cy="36" r="2"/>
    <circle cx="210" cy="22" r="2"/>
  </g>
  <g stroke="chocolate" stroke-width="1">
    <line x1="91" y1="488" x2="73" y2="265"/>
    <circle cx="91" cy="488" r="2"/>
    <circle cx="73" cy="265" r="2"/>
  </g>
  <g stroke="chocolate" stroke-width="1">
    <line x1="91" y1="488" x2="42" y2="407"/>
    <circle cx="91" cy="488" r="2"/>
    <circle cx="42" cy="407" r="2"/>
  </g>
  <g stroke="chocolate" stroke-width="1">
    <line x1="372" y1="233" x2="202" y2="50"/>
    <circle cx="372" cy="233" r="2"/>
    <circle cx="202" cy="50" r="2"/>
  </g>
  <g stroke="chocolate" stroke-width="1">
    <line x1="378" y1="180" x2="284" y2="42"/>
    <circle cx="378" cy="180" r="2"/>
    <circle cx="284" cy="42" r="2"/>
  </g>
  <g stroke="black" stroke-width="1">
    <line x1="5" y1="5" x2="505" y2="5"/>
    <line x1="5" y1="5" x2="5" y2="505"/>
    <line x1="505" y1="505" x2="5" y2="505"/>
    <line x1="505" y1="505" x2="505" y2="5"/>
    <line x1="105" y1="2" x2="105" y2="8"/>
    <line x1="2" y1="105" x2="8" y2="105"/>
    <line x1="105" y1="502" x2="105" y2="508"/>
    <line x1="502" y1="105" x2="508" y2="105"/>
    <line x1="205" y1="2" x2="205" y2="8"/>
    <line x1="2" y1="205" x2="8" y2="205"/>
    <line x1="205" y1="502" x2="205" y2="508"/>
    <line x1="502" y1="205" x2="508" y2="205"/>
    <line x1="305" y1="2" x2="305" y2="8"/>
    <line x1="2" y1="305" x2="8" y2="305"/>
    <line x1="305" y1="502" x2="305" y2="508"/>
    <line x1="502" y1="305" x2="508" y2="305"/>
    <line x1="405" y1="2" x2="405" y2="8"/>
    <line x1="2" y1="405" x2="8" y2="405"/>
    <line x1="405" y1="502" x2="405" y2="508"/>
    <line x1="502" y1="405" x2="508" y2="405"/>
  </g>
  <g stroke="gray" stroke-width="1" stroke-dasharray="5,5">
    <line x1="105" y1="5" x2="105" y2="505"/>
    <line x1="5" y1="105" x2="505" y2="105"/>
    <line x1="205" y1="5" x2="205" y2="505"/>
    <line x1="5" y1="205" x2="505" y2="205"/>
    <line x1="305" y1="5" x2="305" y2="505"/>
    <line x1="5" y1="305" x2="505" y2="305"/>
    <line x1="405" y1="5" x2="405" y2="505"/>
    <line x1="5" y1="405" x2="505" y2="405"/>
  </g>
</svg>
