<?xml version="1.0" standalone="no"?>
<!DOCTYPE svg PUBLIC "-//W3C//DTD SVG 1.1//EN" 
  "http://www.w3.org/Graphics/SVG/1.1/DTD/svg11.dtd">
<svg width="548" height="548" version="1.1" id="toplevel"
    xmlns="http://www.w3.org/2000/svg"
    xmlns:xlink="http://www.w3.org/1999/xlink">
  <polygon points="152,543 153,543 474,222 474,117 379,5 341,5 341,88 400,147 319,134 312,172 274,172 274,338 170,443 163,485 146,505"
           fill="bisque"/>
  <g stroke="chocolate" stroke-width="1">
    <line x1="153" y1="543" x2="474" y2="222"/>
    <circle cx="153" cy="543" r="2"/>
    <circle cx="474" cy="222" r="2"/>
  </g>
  <g stroke="chocolate" stroke-width="1">
    <line x1="421" y1="169" x2="433" y2="97"/>
    <circle cx="421" cy="169" r="2"/>
    <circle cx="433" cy="97" r="2"/>
  </g>
  <g stroke="chocolate" stroke-width="1">
    <line x1="362" y1="109" x2="379" y2="5"/>
    <circle cx="362" cy="109" r="2"/>
    <circle cx="379" cy="5" r="2"/>
  </g>
  <g stroke="chocolate" stroke-width="1">
    <line x1="146" y1="505" x2="474" y2="117"/>
    <circle cx="146" cy="505" r="2"/>
    <circle cx="474" cy="117" r="2"/>
  </g>
  <g stroke="chocolate" stroke-width="1">
    <line x1="270" y1="426" x2="319" y2="134"/>
    <circle cx="270" cy="426" r="2"/>
    <circle cx="319" cy="134" r="2"/>
  </g>
  <g stroke="chocolate" stroke-width="1">
    <line x1="153" y1="543" x2="170" y2="443"/>
    <circle cx="153" cy="543" r="2"/>
    <circle cx="170" cy="443" r="2"/>
  </g>
  <g stroke="chocolate" stroke-width="1">
    <line x1="170" y1="443" x2="474" y2="138"/>
    <circle cx="170" cy="443" r="2"/>
    <circle cx="474" cy="138" r="2"/>
  </g>
  <g stroke="chocolate" stroke-width="1">
    <line x1="152" y1="543" x2="153" y2="543"/>
    <circle cx="152" cy="543" r="2"/>
    <circle cx="153" cy="543" r="2"/>
  </g>
  <g stroke="chocolate" stroke-width="1">
    <line x1="191" y1="505" x2="191" y2="422"/>
    <circle cx="191" cy="505" r="2"/>
    <circle cx="191" cy="422" r="2"/>
  </g>
  <g stroke="chocolate" stroke-width="1">
    <line x1="274" y1="422" x2="274" y2="172"/>
    <circle cx="274" cy="422" r="2"/>
    <circle cx="274" cy="172" r="2"/>
  </g>
  <g stroke="chocolate" stroke-width="1">
    <line x1="341" y1="88" x2="341" y2="5"/>
    <circle cx="341" cy="88" r="2"/>
    <circle cx="341" cy="5" r="2"/>
  </g>
  <g stroke="chocolate" stroke-width="1">
    <line x1="424" y1="172" x2="424" y2="88"/>
    <circle cx="424" cy="172" r="2"/>
    <circle cx="424" cy="88" r="2"/>
  </g>
  <g stroke="chocolate" stroke-width="1">
    <line x1="474" y1="222" x2="474" y2="117"/>
    <circle cx="474" cy="222" r="2"/>
    <circle cx="474" cy="117" r="2"/>
  </g>
  <g stroke="chocolate" stroke-width="1">
    <line x1="152" y1="543" x2="146" y2="505"/>
    <circle cx="152" cy="543" r="2"/>
    <circle cx="146" cy="505" r="2"/>
  </g>
  <g stroke="chocolate" stroke-width="1">
    <line x1="146" y1="505" x2="191" y2="505"/>
    <circle cx="146" cy="505" r="2"/>
    <circle cx="191" cy="505" r="2"/>
  </g>
  <g stroke="chocolate" stroke-width="1">
    <line x1="170" y1="443" x2="270" y2="426"/>
    <circle cx="170" cy="443" r="2"/>
    <circle cx="270" cy="426" r="2"/>
  </g>
  <g stroke="chocolate" stroke-width="1">
    <line x1="191" y1="422" x2="274" y2="422"/>
    <circle cx="191" cy="422" r="2"/>
    <circle cx="274" cy="422" r="2"/>
  </g>
  <g stroke="chocolate" stroke-width="1">
    <line x1="421" y1="169" x2="474" y2="160"/>
    <circle cx="421" cy="169" r="2"/>
    <circle cx="474" cy="160" r="2"/>
  </g>
  <g stroke="chocolate" stroke-width="1">
    <line x1="362" y1="109" x2="433" y2="97"/>
    <circle cx="362" cy="109" r="2"/>
    <circle cx="433" cy="97" r="2"/>
  </g>
  <g stroke="chocolate" stroke-width="1">
    <line x1="274" y1="172" x2="474" y2="172"/>
    <circle cx="274" cy="172" r="2"/>
    <circle cx="474" cy="172" r="2"/>
  </g>
  <g stroke="chocolate" stroke-width="1">
    <line x1="474" y1="222" x2="341" y2="88"/>
    <circle cx="474" cy="222" r="2"/>
    <circle cx="341" cy="88" r="2"/>
  </g>
  <g stroke="chocolate" stroke-width="1">
    <line x1="474" y1="117" x2="379" y2="5"/>
    <circle cx="474" cy="117" r="2"/>
    <circle cx="379" cy="5" r="2"/>
  </g>
  <g stroke="chocolate" stroke-width="1">
    <line x1="474" y1="138" x2="424" y2="88"/>
    <circle cx="474" cy="138" r="2"/>
    <circle cx="424" cy="88" r="2"/>
  </g>
  <g stroke="chocolate" stroke-width="1">
    <line x1="474" y1="160" x2="319" y2="134"/>
    <circle cx="474" cy="160" r="2"/>
    <circle cx="319" cy="134" r="2"/>
  </g>
  <g stroke="chocolate" stroke-width="1">
    <line x1="341" y1="88" x2="424" y2="88"/>
    <circle cx="341" cy="88" r="2"/>
    <circle cx="424" cy="88" r="2"/>
  </g>
  <g stroke="chocolate" stroke-width="1">
    <line x1="341" y1="5" x2="379" y2="5"/>
    <circle cx="341" cy="5" r="2"/>
    <circle cx="379" cy="5" r="2"/>
  </g>
  <g stroke="black" stroke-width="1">
    <line x1="24" y1="24" x2="524" y2="24"/>
    <line x1="24" y1="24" x2="24" y2="524"/>
    <line x1="524" y1="524" x2="24" y2="524"/>
    <line x1="524" y1="524" x2="524" y2="24"/>
    <line x1="124" y1="21" x2="124" y2="27"/>
    <line x1="21" y1="124" x2="27" y2="124"/>
    <line x1="124" y1="521" x2="124" y2="527"/>
    <line x1="521" y1="124" x2="527" y2="124"/>
    <line x1="224" y1="21" x2="224" y2="27"/>
    <line x1="21" y1="224" x2="27" y2="224"/>
    <line x1="224" y1="521" x2="224" y2="527"/>
    <line x1="521" y1="224" x2="527" y2="224"/>
    <line x1="324" y1="21" x2="324" y2="27"/>
    <line x1="21" y1="324" x2="27" y2="324"/>
    <line x1="324" y1="521" x2="324" y2="527"/>
    <line x1="521" y1="324" x2="527" y2="324"/>
    <line x1="424" y1="21" x2="424" y2="27"/>
    <line x1="21" y1="424" x2="27" y2="424"/>
    <line x1="424" y1="521" x2="424" y2="527"/>
    <line x1="521" y1="424" x2="527" y2="424"/>
  </g>
  <g stroke="gray" stroke-width="1" stroke-dasharray="5,5">
    <line x1="124" y1="24" x2="124" y2="524"/>
    <line x1="24" y1="124" x2="524" y2="124"/>
    <line x1="224" y1="24" x2="224" y2="524"/>
    <line x1="24" y1="224" x2="524" y2="224"/>
    <line x1="324" y1="24" x2="324" y2="524"/>
    <line x1="24" y1="324" x2="524" y2="324"/>
    <line x1="424" y1="24" x2="424" y2="524"/>
    <line x1="24" y1="424" x2="524" y2="424"/>
  </g>
</svg>
