<?xml version="1.0" standalone="no"?>
<!DOCTYPE svg PUBLIC "-//W3C//DTD SVG 1.1//EN" 
  "http://www.w3.org/Graphics/SVG/1.1/DTD/svg11.dtd">
<svg width="510" height="510" version="1.1" id="toplevel"
    xmlns="http://www.w3.org/2000/svg"
    xmlns:xlink="http://www.w3.org/1999/xlink">
  <polygon points="80,505 172,505 252,339 224,314 145,385 87,327 74,300 57,297 5,402 10,408 9,410"
           fill="bisque"/>
  <polygon points="137,430 128,413 148,402 158,402" fill="bisque"/>
  <polygon points="124,405 123,402 127,402" fill="bisque"/>
  <polygon points="160,400 156,396 167,390" fill="bisque"/>
  <g stroke="chocolate" stroke-width="1">
    <line x1="172" y1="505" x2="252" y2="339"/>
    <circle cx="172" cy="505" r="2"/>
    <circle cx="252" cy="339" r="2"/>
  </g>
  <g stroke="chocolate" stroke-width="1">
    <line x1="82" y1="505" x2="225" y2="314"/>
    <circle cx="82" cy="505" r="2"/>
    <circle cx="225" cy="314" r="2"/>
  </g>
  <g stroke="chocolate" stroke-width="1">
    <line x1="82" y1="505" x2="225" y2="314"/>
    <circle cx="82" cy="505" r="2"/>
    <circle cx="225" cy="314" r="2"/>
  </g>
  <g stroke="chocolate" stroke-width="1">
    <line x1="80" y1="505" x2="224" y2="314"/>
    <circle cx="80" cy="505" r="2"/>
    <circle cx="224" cy="314" r="2"/>
  </g>
  <g stroke="chocolate" stroke-width="1">
    <line x1="88" y1="437" x2="224" y2="314"/>
    <circle cx="88" cy="437" r="2"/>
    <circle cx="224" cy="314" r="2"/>
  </g>
  <g stroke="chocolate" stroke-width="1">
    <line x1="88" y1="437" x2="225" y2="314"/>
    <circle cx="88" cy="437" r="2"/>
    <circle cx="225" cy="314" r="2"/>
  </g>
  <g stroke="chocolate" stroke-width="1">
    <line x1="88" y1="437" x2="225" y2="314"/>
    <circle cx="88" cy="437" r="2"/>
    <circle cx="225" cy="314" r="2"/>
  </g>
  <g stroke="chocolate" stroke-width="1">
    <line x1="80" y1="505" x2="172" y2="505"/>
    <circle cx="80" cy="505" r="2"/>
    <circle cx="172" cy="505" r="2"/>
  </g>
  <g stroke="chocolate" stroke-width="1">
    <line x1="88" y1="437" x2="252" y2="339"/>
    <circle cx="88" cy="437" r="2"/>
    <circle cx="252" cy="339" r="2"/>
  </g>
  <g stroke="chocolate" stroke-width="1">
    <line x1="5" y1="402" x2="57" y2="297"/>
    <circle cx="5" cy="402" r="2"/>
    <circle cx="57" cy="297" r="2"/>
  </g>
  <g stroke="chocolate" stroke-width="1">
    <line x1="9" y1="410" x2="74" y2="300"/>
    <circle cx="9" cy="410" r="2"/>
    <circle cx="74" cy="300" r="2"/>
  </g>
  <g stroke="chocolate" stroke-width="1">
    <line x1="35" y1="442" x2="114" y2="383"/>
    <circle cx="35" cy="442" r="2"/>
    <circle cx="114" cy="383" r="2"/>
  </g>
  <g stroke="chocolate" stroke-width="1">
    <line x1="80" y1="505" x2="9" y2="410"/>
    <circle cx="80" cy="505" r="2"/>
    <circle cx="9" cy="410" r="2"/>
  </g>
  <g stroke="chocolate" stroke-width="1">
    <line x1="82" y1="505" x2="35" y2="442"/>
    <circle cx="82" cy="505" r="2"/>
    <circle cx="35" cy="442" r="2"/>
  </g>
  <g stroke="chocolate" stroke-width="1">
    <line x1="82" y1="505" x2="5" y2="402"/>
    <circle cx="82" cy="505" r="2"/>
    <circle cx="5" cy="402" r="2"/>
  </g>
  <g stroke="chocolate" stroke-width="1">
    <line x1="172" y1="505" x2="74" y2="300"/>
    <circle cx="172" cy="505" r="2"/>
    <circle cx="74" cy="300" r="2"/>
  </g>
  <g stroke="chocolate" stroke-width="1">
    <line x1="9" y1="410" x2="114" y2="383"/>
    <circle cx="9" cy="410" r="2"/>
    <circle cx="114" cy="383" r="2"/>
  </g>
  <g stroke="chocolate" stroke-width="1">
    <line x1="5" y1="402" x2="162" y2="402"/>
    <circle cx="5" cy="402" r="2"/>
    <circle cx="162" cy="402" r="2"/>
  </g>
  <g stroke="chocolate" stroke-width="1">
    <line x1="162" y1="402" x2="57" y2="297"/>
    <circle cx="162" cy="402" r="2"/>
    <circle cx="57" cy="297" r="2"/>
  </g>
  <g stroke="chocolate" stroke-width="1">
    <line x1="74" y1="300" x2="57" y2="297"/>
    <circle cx="74" cy="300" r="2"/>
    <circle cx="57" cy="297" r="2"/>
  </g>
  <g stroke="chocolate" stroke-width="1">
    <line x1="252" y1="339" x2="224" y2="314"/>
    <circle cx="252" cy="339" r="2"/>
    <circle cx="224" cy="314" r="2"/>
  </g>
  <g stroke="black" stroke-width="1">
    <line x1="5" y1="5" x2="505" y2="5"/>
    <line x1="5" y1="5" x2="5" y2="505"/>
    <line x1="505" y1="505" x2="5" y2="505"/>
    <line x1="505" y1="505" x2="505" y2="5"/>
    <line x1="105" y1="2" x2="105" y2="8"/>
    <line x1="2" y1="105" x2="8" y2="105"/>
    <line x1="105" y1="502" x2="105" y2="508"/>
    <line x1="502" y1="105" x2="508" y2="105"/>
    <line x1="205" y1="2" x2="205" y2="8"/>
    <line x1="2" y1="205" x2="8" y2="205"/>
    <line x1="205" y1="502" x2="205" y2="508"/>
    <line x1="502" y1="205" x2="508" y2="205"/>
    <line x1="305" y1="2" x2="305" y2="8"/>
    <line x1="2" y1="305" x2="8" y2="305"/>
    <line x1="305" y1="502" x2="305" y2="508"/>
    <line x1="502" y1="305" x2="508" y2="305"/>
    <line x1="405" y1="2" x2="405" y2="8"/>
    <line x1="2" y1="405" x2="8" y2="405"/>
    <line x1="405" y1="502" x2="405" y2="508"/>
    <line x1="502" y1="405" x2="508" y2="405"/>
  </g>
  <g stroke="gray" stroke-width="1" stroke-dasharray="5,5">
    <line x1="105" y1="5" x2="105" y2="505"/>
    <line x1="5" y1="105" x2="505" y2="105"/>
    <line x1="205" y1="5" x2="205" y2="505"/>
    <line x1="5" y1="205" x2="505" y2="205"/>
    <line x1="305" y1="5" x2="305" y2="505"/>
    <line x1="5" y1="305" x2="505" y2="305"/>
    <line x1="405" y1="5" x2="405" y2="505"/>
    <line x1="5" y1="405" x2="505" y2="405"/>
  </g>
</svg>
