<?xml version="1.0" standalone="no"?>
<!DOCTYPE svg PUBLIC "-//W3C//DTD SVG 1.1//EN" 
  "http://www.w3.org/Graphics/SVG/1.1/DTD/svg11.dtd">
<svg width="510" height="510" version="1.1" id="toplevel"
    xmlns="http://www.w3.org/2000/svg"
    xmlns:xlink="http://www.w3.org/1999/xlink">
  <polygon points="166,450 175,445 169,434 171,429 387,435 393,208 461,167 396,60 77,144 49,271 121,415"
           fill="bisque"/>
  <g stroke="chocolate" stroke-width="1">
    <line x1="148" y1="437" x2="164" y2="425"/>
    <circle cx="148" cy="437" r="2"/>
    <circle cx="164" cy="425" r="2"/>
  </g>
  <g stroke="chocolate" stroke-width="1">
    <line x1="131" y1="423" x2="135" y2="418"/>
    <circle cx="131" cy="423" r="2"/>
    <circle cx="135" cy="418" r="2"/>
  </g>
  <g stroke="chocolate" stroke-width="1">
    <line x1="166" y1="450" x2="175" y2="445"/>
    <circle cx="166" cy="450" r="2"/>
    <circle cx="175" cy="445" r="2"/>
  </g>
  <g stroke="chocolate" stroke-width="1">
    <line x1="131" y1="423" x2="193" y2="337"/>
    <circle cx="131" cy="423" r="2"/>
    <circle cx="193" cy="337" r="2"/>
  </g>
  <g stroke="chocolate" stroke-width="1">
    <line x1="104" y1="382" x2="461" y2="167"/>
    <circle cx="104" cy="382" r="2"/>
    <circle cx="461" cy="167" r="2"/>
  </g>
  <g stroke="chocolate" stroke-width="1">
    <line x1="91" y1="355" x2="223" y2="267"/>
    <circle cx="91" cy="355" r="2"/>
    <circle cx="223" cy="267" r="2"/>
  </g>
  <g stroke="chocolate" stroke-width="1">
    <line x1="148" y1="437" x2="223" y2="267"/>
    <circle cx="148" cy="437" r="2"/>
    <circle cx="223" cy="267" r="2"/>
  </g>
  <g stroke="chocolate" stroke-width="1">
    <line x1="104" y1="382" x2="182" y2="351"/>
    <circle cx="104" cy="382" r="2"/>
    <circle cx="182" cy="351" r="2"/>
  </g>
  <g stroke="chocolate" stroke-width="1">
    <line x1="91" y1="355" x2="172" y2="327"/>
    <circle cx="91" cy="355" r="2"/>
    <circle cx="172" cy="327" r="2"/>
  </g>
  <g stroke="chocolate" stroke-width="1">
    <line x1="166" y1="450" x2="193" y2="337"/>
    <circle cx="166" cy="450" r="2"/>
    <circle cx="193" cy="337" r="2"/>
  </g>
  <g stroke="chocolate" stroke-width="1">
    <line x1="49" y1="271" x2="77" y2="144"/>
    <circle cx="49" cy="271" r="2"/>
    <circle cx="77" cy="144" r="2"/>
  </g>
  <g stroke="chocolate" stroke-width="1">
    <line x1="387" y1="435" x2="138" y2="428"/>
    <circle cx="387" cy="435" r="2"/>
    <circle cx="138" cy="428" r="2"/>
  </g>
  <g stroke="chocolate" stroke-width="1">
    <line x1="387" y1="435" x2="396" y2="60"/>
    <circle cx="387" cy="435" r="2"/>
    <circle cx="396" cy="60" r="2"/>
  </g>
  <g stroke="chocolate" stroke-width="1">
    <line x1="77" y1="144" x2="396" y2="60"/>
    <circle cx="77" cy="144" r="2"/>
    <circle cx="396" cy="60" r="2"/>
  </g>
  <g stroke="chocolate" stroke-width="1">
    <line x1="164" y1="425" x2="121" y2="415"/>
    <circle cx="164" cy="425" r="2"/>
    <circle cx="121" cy="415" r="2"/>
  </g>
  <g stroke="chocolate" stroke-width="1">
    <line x1="138" y1="428" x2="135" y2="418"/>
    <circle cx="138" cy="428" r="2"/>
    <circle cx="135" cy="418" r="2"/>
  </g>
  <g stroke="chocolate" stroke-width="1">
    <line x1="182" y1="351" x2="172" y2="327"/>
    <circle cx="182" cy="351" r="2"/>
    <circle cx="172" cy="327" r="2"/>
  </g>
  <g stroke="chocolate" stroke-width="1">
    <line x1="121" y1="415" x2="49" y2="271"/>
    <circle cx="121" cy="415" r="2"/>
    <circle cx="49" cy="271" r="2"/>
  </g>
  <g stroke="chocolate" stroke-width="1">
    <line x1="175" y1="445" x2="164" y2="425"/>
    <circle cx="175" cy="445" r="2"/>
    <circle cx="164" cy="425" r="2"/>
  </g>
  <g stroke="chocolate" stroke-width="1">
    <line x1="166" y1="450" x2="121" y2="415"/>
    <circle cx="166" cy="450" r="2"/>
    <circle cx="121" cy="415" r="2"/>
  </g>
  <g stroke="chocolate" stroke-width="1">
    <line x1="193" y1="337" x2="49" y2="271"/>
    <circle cx="193" cy="337" r="2"/>
    <circle cx="49" cy="271" r="2"/>
  </g>
  <g stroke="chocolate" stroke-width="1">
    <line x1="223" y1="267" x2="77" y2="144"/>
    <circle cx="223" cy="267" r="2"/>
    <circle cx="77" cy="144" r="2"/>
  </g>
  <g stroke="chocolate" stroke-width="1">
    <line x1="461" y1="167" x2="396" y2="60"/>
    <circle cx="461" cy="167" r="2"/>
    <circle cx="396" cy="60" r="2"/>
  </g>
  <g stroke="black" stroke-width="1">
    <line x1="5" y1="5" x2="505" y2="5"/>
    <line x1="5" y1="5" x2="5" y2="505"/>
    <line x1="505" y1="505" x2="5" y2="505"/>
    <line x1="505" y1="505" x2="505" y2="5"/>
    <line x1="105" y1="2" x2="105" y2="8"/>
    <line x1="2" y1="105" x2="8" y2="105"/>
    <line x1="105" y1="502" x2="105" y2="508"/>
    <line x1="502" y1="105" x2="508" y2="105"/>
    <line x1="205" y1="2" x2="205" y2="8"/>
    <line x1="2" y1="205" x2="8" y2="205"/>
    <line x1="205" y1="502" x2="205" y2="508"/>
    <line x1="502" y1="205" x2="508" y2="205"/>
    <line x1="305" y1="2" x2="305" y2="8"/>
    <line x1="2" y1="305" x2="8" y2="305"/>
    <line x1="305" y1="502" x2="305" y2="508"/>
    <line x1="502" y1="305" x2="508" y2="305"/>
    <line x1="405" y1="2" x2="405" y2="8"/>
    <line x1="2" y1="405" x2="8" y2="405"/>
    <line x1="405" y1="502" x2="405" y2="508"/>
    <line x1="502" y1="405" x2="508" y2="405"/>
  </g>
  <g stroke="gray" stroke-width="1" stroke-dasharray="5,5">
    <line x1="105" y1="5" x2="105" y2="505"/>
    <line x1="5" y1="105" x2="505" y2="105"/>
    <line x1="205" y1="5" x2="205" y2="505"/>
    <line x1="5" y1="205" x2="505" y2="205"/>
    <line x1="305" y1="5" x2="305" y2="505"/>
    <line x1="5" y1="305" x2="505" y2="305"/>
    <line x1="405" y1="5" x2="405" y2="505"/>
    <line x1="5" y1="405" x2="505" y2="405"/>
  </g>
</svg>
