<?xml version="1.0" standalone="no"?>
<!DOCTYPE svg PUBLIC "-//W3C//DTD SVG 1.1//EN" 
  "http://www.w3.org/Graphics/SVG/1.1/DTD/svg11.dtd">
<svg width="510" height="510" version="1.1" id="toplevel"
    xmlns="http://www.w3.org/2000/svg"
    xmlns:xlink="http://www.w3.org/1999/xlink">
  <polygon points="81,403 160,359 183,359 190,341 277,292 287,342 368,396 389,364 376,290 201,107 19,210 26,245 23,255 29,264 38,308 56,305 75,261 100,283 56,359"
           fill="bisque"/>
  <g stroke="chocolate" stroke-width="1">
    <line x1="368" y1="396" x2="389" y2="364"/>
    <circle cx="368" cy="396" r="2"/>
    <circle cx="389" cy="364" r="2"/>
  </g>
  <g stroke="chocolate" stroke-width="1">
    <line x1="287" y1="342" x2="342" y2="255"/>
    <circle cx="287" cy="342" r="2"/>
    <circle cx="342" cy="255" r="2"/>
  </g>
  <g stroke="chocolate" stroke-width="1">
    <line x1="234" y1="272" x2="283" y2="192"/>
    <circle cx="234" cy="272" r="2"/>
    <circle cx="283" cy="192" r="2"/>
  </g>
  <g stroke="chocolate" stroke-width="1">
    <line x1="81" y1="403" x2="342" y2="255"/>
    <circle cx="81" cy="403" r="2"/>
    <circle cx="342" cy="255" r="2"/>
  </g>
  <g stroke="chocolate" stroke-width="1">
    <line x1="183" y1="359" x2="255" y2="172"/>
    <circle cx="183" cy="359" r="2"/>
    <circle cx="255" cy="172" r="2"/>
  </g>
  <g stroke="chocolate" stroke-width="1">
    <line x1="234" y1="272" x2="255" y2="172"/>
    <circle cx="234" cy="272" r="2"/>
    <circle cx="255" cy="172" r="2"/>
  </g>
  <g stroke="chocolate" stroke-width="1">
    <line x1="167" y1="243" x2="225" y2="132"/>
    <circle cx="167" cy="243" r="2"/>
    <circle cx="225" cy="132" r="2"/>
  </g>
  <g stroke="chocolate" stroke-width="1">
    <line x1="167" y1="243" x2="184" y2="139"/>
    <circle cx="167" cy="243" r="2"/>
    <circle cx="184" cy="139" r="2"/>
  </g>
  <g stroke="chocolate" stroke-width="1">
    <line x1="56" y1="359" x2="184" y2="139"/>
    <circle cx="56" cy="359" r="2"/>
    <circle cx="184" cy="139" r="2"/>
  </g>
  <g stroke="chocolate" stroke-width="1">
    <line x1="106" y1="275" x2="218" y2="124"/>
    <circle cx="106" cy="275" r="2"/>
    <circle cx="218" cy="124" r="2"/>
  </g>
  <g stroke="chocolate" stroke-width="1">
    <line x1="99" y1="269" x2="201" y2="107"/>
    <circle cx="99" cy="269" r="2"/>
    <circle cx="201" cy="107" r="2"/>
  </g>
  <g stroke="chocolate" stroke-width="1">
    <line x1="56" y1="305" x2="120" y2="153"/>
    <circle cx="56" cy="305" r="2"/>
    <circle cx="120" cy="153" r="2"/>
  </g>
  <g stroke="chocolate" stroke-width="1">
    <line x1="120" y1="281" x2="129" y2="175"/>
    <circle cx="120" cy="281" r="2"/>
    <circle cx="129" cy="175" r="2"/>
  </g>
  <g stroke="chocolate" stroke-width="1">
    <line x1="56" y1="359" x2="183" y2="359"/>
    <circle cx="56" cy="359" r="2"/>
    <circle cx="183" cy="359" r="2"/>
  </g>
  <g stroke="chocolate" stroke-width="1">
    <line x1="23" y1="255" x2="34" y2="201"/>
    <circle cx="23" cy="255" r="2"/>
    <circle cx="34" cy="201" r="2"/>
  </g>
  <g stroke="chocolate" stroke-width="1">
    <line x1="38" y1="308" x2="19" y2="210"/>
    <circle cx="38" cy="308" r="2"/>
    <circle cx="19" cy="210" r="2"/>
  </g>
  <g stroke="chocolate" stroke-width="1">
    <line x1="120" y1="281" x2="283" y2="192"/>
    <circle cx="120" cy="281" r="2"/>
    <circle cx="283" cy="192" r="2"/>
  </g>
  <g stroke="chocolate" stroke-width="1">
    <line x1="81" y1="403" x2="56" y2="359"/>
    <circle cx="81" cy="403" r="2"/>
    <circle cx="56" cy="359" r="2"/>
  </g>
  <g stroke="chocolate" stroke-width="1">
    <line x1="56" y1="305" x2="23" y2="255"/>
    <circle cx="56" cy="305" r="2"/>
    <circle cx="23" cy="255" r="2"/>
  </g>
  <g stroke="chocolate" stroke-width="1">
    <line x1="38" y1="308" x2="56" y2="305"/>
    <circle cx="38" cy="308" r="2"/>
    <circle cx="56" cy="305" r="2"/>
  </g>
  <g stroke="chocolate" stroke-width="1">
    <line x1="287" y1="342" x2="248" y2="156"/>
    <circle cx="287" cy="342" r="2"/>
    <circle cx="248" cy="156" r="2"/>
  </g>
  <g stroke="chocolate" stroke-width="1">
    <line x1="23" y1="255" x2="218" y2="124"/>
    <circle cx="23" cy="255" r="2"/>
    <circle cx="218" cy="124" r="2"/>
  </g>
  <g stroke="chocolate" stroke-width="1">
    <line x1="389" y1="364" x2="376" y2="290"/>
    <circle cx="389" cy="364" r="2"/>
    <circle cx="376" cy="290" r="2"/>
  </g>
  <g stroke="chocolate" stroke-width="1">
    <line x1="183" y1="359" x2="19" y2="210"/>
    <circle cx="183" cy="359" r="2"/>
    <circle cx="19" cy="210" r="2"/>
  </g>
  <g stroke="chocolate" stroke-width="1">
    <line x1="106" y1="275" x2="99" y2="269"/>
    <circle cx="106" cy="275" r="2"/>
    <circle cx="99" cy="269" r="2"/>
  </g>
  <g stroke="chocolate" stroke-width="1">
    <line x1="129" y1="175" x2="225" y2="132"/>
    <circle cx="129" cy="175" r="2"/>
    <circle cx="225" cy="132" r="2"/>
  </g>
  <g stroke="chocolate" stroke-width="1">
    <line x1="19" y1="210" x2="201" y2="107"/>
    <circle cx="19" cy="210" r="2"/>
    <circle cx="201" cy="107" r="2"/>
  </g>
  <g stroke="chocolate" stroke-width="1">
    <line x1="120" y1="281" x2="99" y2="269"/>
    <circle cx="120" cy="281" r="2"/>
    <circle cx="99" cy="269" r="2"/>
  </g>
  <g stroke="chocolate" stroke-width="1">
    <line x1="368" y1="396" x2="287" y2="342"/>
    <circle cx="368" cy="396" r="2"/>
    <circle cx="287" cy="342" r="2"/>
  </g>
  <g stroke="chocolate" stroke-width="1">
    <line x1="376" y1="290" x2="167" y2="243"/>
    <circle cx="376" cy="290" r="2"/>
    <circle cx="167" cy="243" r="2"/>
  </g>
  <g stroke="chocolate" stroke-width="1">
    <line x1="234" y1="272" x2="34" y2="201"/>
    <circle cx="234" cy="272" r="2"/>
    <circle cx="34" cy="201" r="2"/>
  </g>
  <g stroke="chocolate" stroke-width="1">
    <line x1="234" y1="272" x2="167" y2="243"/>
    <circle cx="234" cy="272" r="2"/>
    <circle cx="167" cy="243" r="2"/>
  </g>
  <g stroke="chocolate" stroke-width="1">
    <line x1="389" y1="364" x2="129" y2="175"/>
    <circle cx="389" cy="364" r="2"/>
    <circle cx="129" cy="175" r="2"/>
  </g>
  <g stroke="chocolate" stroke-width="1">
    <line x1="376" y1="290" x2="201" y2="107"/>
    <circle cx="376" cy="290" r="2"/>
    <circle cx="201" cy="107" r="2"/>
  </g>
  <g stroke="chocolate" stroke-width="1">
    <line x1="255" y1="172" x2="120" y2="153"/>
    <circle cx="255" cy="172" r="2"/>
    <circle cx="120" cy="153" r="2"/>
  </g>
  <g stroke="chocolate" stroke-width="1">
    <line x1="255" y1="172" x2="184" y2="139"/>
    <circle cx="255" cy="172" r="2"/>
    <circle cx="184" cy="139" r="2"/>
  </g>
  <g stroke="chocolate" stroke-width="1">
    <line x1="248" y1="156" x2="184" y2="139"/>
    <circle cx="248" cy="156" r="2"/>
    <circle cx="184" cy="139" r="2"/>
  </g>
  <g stroke="black" stroke-width="1">
    <line x1="5" y1="5" x2="505" y2="5"/>
    <line x1="5" y1="5" x2="5" y2="505"/>
    <line x1="505" y1="505" x2="5" y2="505"/>
    <line x1="505" y1="505" x2="505" y2="5"/>
    <line x1="105" y1="2" x2="105" y2="8"/>
    <line x1="2" y1="105" x2="8" y2="105"/>
    <line x1="105" y1="502" x2="105" y2="508"/>
    <line x1="502" y1="105" x2="508" y2="105"/>
    <line x1="205" y1="2" x2="205" y2="8"/>
    <line x1="2" y1="205" x2="8" y2="205"/>
    <line x1="205" y1="502" x2="205" y2="508"/>
    <line x1="502" y1="205" x2="508" y2="205"/>
    <line x1="305" y1="2" x2="305" y2="8"/>
    <line x1="2" y1="305" x2="8" y2="305"/>
    <line x1="305" y1="502" x2="305" y2="508"/>
    <line x1="502" y1="305" x2="508" y2="305"/>
    <line x1="405" y1="2" x2="405" y2="8"/>
    <line x1="2" y1="405" x2="8" y2="405"/>
    <line x1="405" y1="502" x2="405" y2="508"/>
    <line x1="502" y1="405" x2="508" y2="405"/>
  </g>
  <g stroke="gray" stroke-width="1" stroke-dasharray="5,5">
    <line x1="105" y1="5" x2="105" y2="505"/>
    <line x1="5" y1="105" x2="505" y2="105"/>
    <line x1="205" y1="5" x2="205" y2="505"/>
    <line x1="5" y1="205" x2="505" y2="205"/>
    <line x1="305" y1="5" x2="305" y2="505"/>
    <line x1="5" y1="305" x2="505" y2="305"/>
    <line x1="405" y1="5" x2="405" y2="505"/>
    <line x1="5" y1="405" x2="505" y2="405"/>
  </g>
</svg>
