<?xml version="1.0" standalone="no"?>
<!DOCTYPE svg PUBLIC "-//W3C//DTD SVG 1.1//EN" 
  "http://www.w3.org/Graphics/SVG/1.1/DTD/svg11.dtd">
<svg width="510" height="510" version="1.1" id="toplevel"
    xmlns="http://www.w3.org/2000/svg"
    xmlns:xlink="http://www.w3.org/1999/xlink">
  <polygon points="145,425 284,374 322,392 458,249 463,232 414,140 277,85 243,103 283,177 362,201 285,227 297,264 263,282 280,313 47,398 47,398 79,420 104,413"
           fill="bisque"/>
  <g stroke="chocolate" stroke-width="1">
    <line x1="145" y1="425" x2="47" y2="398"/>
    <circle cx="145" cy="425" r="2"/>
    <circle cx="47" cy="398" r="2"/>
  </g>
  <g stroke="chocolate" stroke-width="1">
    <line x1="79" y1="420" x2="47" y2="398"/>
    <circle cx="79" cy="420" r="2"/>
    <circle cx="47" cy="398" r="2"/>
  </g>
  <g stroke="chocolate" stroke-width="1">
    <line x1="173" y1="415" x2="98" y2="379"/>
    <circle cx="173" cy="415" r="2"/>
    <circle cx="98" cy="379" r="2"/>
  </g>
  <g stroke="chocolate" stroke-width="1">
    <line x1="145" y1="425" x2="367" y2="344"/>
    <circle cx="145" cy="425" r="2"/>
    <circle cx="367" cy="344" r="2"/>
  </g>
  <g stroke="chocolate" stroke-width="1">
    <line x1="79" y1="420" x2="370" y2="341"/>
    <circle cx="79" cy="420" r="2"/>
    <circle cx="370" cy="341" r="2"/>
  </g>
  <g stroke="chocolate" stroke-width="1">
    <line x1="322" y1="392" x2="458" y2="249"/>
    <circle cx="322" cy="392" r="2"/>
    <circle cx="458" cy="249" r="2"/>
  </g>
  <g stroke="chocolate" stroke-width="1">
    <line x1="335" y1="378" x2="203" y2="341"/>
    <circle cx="335" cy="378" r="2"/>
    <circle cx="203" cy="341" r="2"/>
  </g>
  <g stroke="chocolate" stroke-width="1">
    <line x1="322" y1="392" x2="209" y2="339"/>
    <circle cx="322" cy="392" r="2"/>
    <circle cx="209" cy="339" r="2"/>
  </g>
  <g stroke="chocolate" stroke-width="1">
    <line x1="47" y1="398" x2="458" y2="249"/>
    <circle cx="47" cy="398" r="2"/>
    <circle cx="458" cy="249" r="2"/>
  </g>
  <g stroke="chocolate" stroke-width="1">
    <line x1="391" y1="210" x2="434" y2="177"/>
    <circle cx="391" cy="210" r="2"/>
    <circle cx="434" cy="177" r="2"/>
  </g>
  <g stroke="chocolate" stroke-width="1">
    <line x1="458" y1="249" x2="463" y2="232"/>
    <circle cx="458" cy="249" r="2"/>
    <circle cx="463" cy="232" r="2"/>
  </g>
  <g stroke="chocolate" stroke-width="1">
    <line x1="263" y1="282" x2="439" y2="188"/>
    <circle cx="263" cy="282" r="2"/>
    <circle cx="439" cy="188" r="2"/>
  </g>
  <g stroke="chocolate" stroke-width="1">
    <line x1="367" y1="344" x2="424" y2="158"/>
    <circle cx="367" cy="344" r="2"/>
    <circle cx="424" cy="158" r="2"/>
  </g>
  <g stroke="chocolate" stroke-width="1">
    <line x1="370" y1="341" x2="414" y2="140"/>
    <circle cx="370" cy="341" r="2"/>
    <circle cx="414" cy="140" r="2"/>
  </g>
  <g stroke="chocolate" stroke-width="1">
    <line x1="145" y1="425" x2="203" y2="341"/>
    <circle cx="145" cy="425" r="2"/>
    <circle cx="203" cy="341" r="2"/>
  </g>
  <g stroke="chocolate" stroke-width="1">
    <line x1="285" y1="227" x2="434" y2="177"/>
    <circle cx="285" cy="227" r="2"/>
    <circle cx="434" cy="177" r="2"/>
  </g>
  <g stroke="chocolate" stroke-width="1">
    <line x1="311" y1="186" x2="368" y2="141"/>
    <circle cx="311" cy="186" r="2"/>
    <circle cx="368" cy="141" r="2"/>
  </g>
  <g stroke="chocolate" stroke-width="1">
    <line x1="173" y1="415" x2="209" y2="339"/>
    <circle cx="173" cy="415" r="2"/>
    <circle cx="209" cy="339" r="2"/>
  </g>
  <g stroke="chocolate" stroke-width="1">
    <line x1="322" y1="392" x2="263" y2="282"/>
    <circle cx="322" cy="392" r="2"/>
    <circle cx="263" cy="282" r="2"/>
  </g>
  <g stroke="chocolate" stroke-width="1">
    <line x1="283" y1="177" x2="356" y2="138"/>
    <circle cx="283" cy="177" r="2"/>
    <circle cx="356" cy="138" r="2"/>
  </g>
  <g stroke="chocolate" stroke-width="1">
    <line x1="79" y1="420" x2="98" y2="379"/>
    <circle cx="79" cy="420" r="2"/>
    <circle cx="98" cy="379" r="2"/>
  </g>
  <g stroke="chocolate" stroke-width="1">
    <line x1="335" y1="378" x2="285" y2="227"/>
    <circle cx="335" cy="378" r="2"/>
    <circle cx="285" cy="227" r="2"/>
  </g>
  <g stroke="chocolate" stroke-width="1">
    <line x1="47" y1="398" x2="47" y2="398"/>
    <circle cx="47" cy="398" r="2"/>
    <circle cx="47" cy="398" r="2"/>
  </g>
  <g stroke="chocolate" stroke-width="1">
    <line x1="311" y1="186" x2="277" y2="85"/>
    <circle cx="311" cy="186" r="2"/>
    <circle cx="277" cy="85" r="2"/>
  </g>
  <g stroke="chocolate" stroke-width="1">
    <line x1="283" y1="177" x2="243" y2="103"/>
    <circle cx="283" cy="177" r="2"/>
    <circle cx="243" cy="103" r="2"/>
  </g>
  <g stroke="chocolate" stroke-width="1">
    <line x1="391" y1="210" x2="368" y2="141"/>
    <circle cx="391" cy="210" r="2"/>
    <circle cx="368" cy="141" r="2"/>
  </g>
  <g stroke="chocolate" stroke-width="1">
    <line x1="463" y1="232" x2="283" y2="177"/>
    <circle cx="463" cy="232" r="2"/>
    <circle cx="283" cy="177" r="2"/>
  </g>
  <g stroke="chocolate" stroke-width="1">
    <line x1="395" y1="211" x2="356" y2="138"/>
    <circle cx="395" cy="211" r="2"/>
    <circle cx="356" cy="138" r="2"/>
  </g>
  <g stroke="chocolate" stroke-width="1">
    <line x1="243" y1="103" x2="277" y2="85"/>
    <circle cx="243" cy="103" r="2"/>
    <circle cx="277" cy="85" r="2"/>
  </g>
  <g stroke="chocolate" stroke-width="1">
    <line x1="463" y1="232" x2="414" y2="140"/>
    <circle cx="463" cy="232" r="2"/>
    <circle cx="414" cy="140" r="2"/>
  </g>
  <g stroke="chocolate" stroke-width="1">
    <line x1="424" y1="158" x2="356" y2="138"/>
    <circle cx="424" cy="158" r="2"/>
    <circle cx="356" cy="138" r="2"/>
  </g>
  <g stroke="chocolate" stroke-width="1">
    <line x1="414" y1="140" x2="277" y2="85"/>
    <circle cx="414" cy="140" r="2"/>
    <circle cx="277" cy="85" r="2"/>
  </g>
  <g stroke="black" stroke-width="1">
    <line x1="5" y1="5" x2="505" y2="5"/>
    <line x1="5" y1="5" x2="5" y2="505"/>
    <line x1="505" y1="505" x2="5" y2="505"/>
    <line x1="505" y1="505" x2="505" y2="5"/>
    <line x1="105" y1="2" x2="105" y2="8"/>
    <line x1="2" y1="105" x2="8" y2="105"/>
    <line x1="105" y1="502" x2="105" y2="508"/>
    <line x1="502" y1="105" x2="508" y2="105"/>
    <line x1="205" y1="2" x2="205" y2="8"/>
    <line x1="2" y1="205" x2="8" y2="205"/>
    <line x1="205" y1="502" x2="205" y2="508"/>
    <line x1="502" y1="205" x2="508" y2="205"/>
    <line x1="305" y1="2" x2="305" y2="8"/>
    <line x1="2" y1="305" x2="8" y2="305"/>
    <line x1="305" y1="502" x2="305" y2="508"/>
    <line x1="502" y1="305" x2="508" y2="305"/>
    <line x1="405" y1="2" x2="405" y2="8"/>
    <line x1="2" y1="405" x2="8" y2="405"/>
    <line x1="405" y1="502" x2="405" y2="508"/>
    <line x1="502" y1="405" x2="508" y2="405"/>
  </g>
  <g stroke="gray" stroke-width="1" stroke-dasharray="5,5">
    <line x1="105" y1="5" x2="105" y2="505"/>
    <line x1="5" y1="105" x2="505" y2="105"/>
    <line x1="205" y1="5" x2="205" y2="505"/>
    <line x1="5" y1="205" x2="505" y2="205"/>
    <line x1="305" y1="5" x2="305" y2="505"/>
    <line x1="5" y1="305" x2="505" y2="305"/>
    <line x1="405" y1="5" x2="405" y2="505"/>
    <line x1="5" y1="405" x2="505" y2="405"/>
  </g>
</svg>
