<?xml version="1.0" standalone="no"?>
<!DOCTYPE svg PUBLIC "-//W3C//DTD SVG 1.1//EN" 
  "http://www.w3.org/Graphics/SVG/1.1/DTD/svg11.dtd">
<svg width="510" height="510" version="1.1" id="toplevel"
    xmlns="http://www.w3.org/2000/svg"
    xmlns:xlink="http://www.w3.org/1999/xlink">
  <polygon points="74,404 466,309 459,228 323,184 309,225 181,106 50,164 111,301 109,306 44,376"
           fill="bisque"/>
  <g stroke="chocolate" stroke-width="1">
    <line x1="74" y1="404" x2="466" y2="309"/>
    <circle cx="74" cy="404" r="2"/>
    <circle cx="466" cy="309" r="2"/>
  </g>
  <g stroke="chocolate" stroke-width="1">
    <line x1="177" y1="379" x2="139" y2="378"/>
    <circle cx="177" cy="379" r="2"/>
    <circle cx="139" cy="378" r="2"/>
  </g>
  <g stroke="chocolate" stroke-width="1">
    <line x1="177" y1="379" x2="459" y2="228"/>
    <circle cx="177" cy="379" r="2"/>
    <circle cx="459" cy="228" r="2"/>
  </g>
  <g stroke="chocolate" stroke-width="1">
    <line x1="74" y1="404" x2="44" y2="376"/>
    <circle cx="74" cy="404" r="2"/>
    <circle cx="44" cy="376" r="2"/>
  </g>
  <g stroke="chocolate" stroke-width="1">
    <line x1="141" y1="253" x2="440" y2="246"/>
    <circle cx="141" cy="253" r="2"/>
    <circle cx="440" cy="246" r="2"/>
  </g>
  <g stroke="chocolate" stroke-width="1">
    <line x1="413" y1="321" x2="440" y2="246"/>
    <circle cx="413" cy="321" r="2"/>
    <circle cx="440" cy="246" r="2"/>
  </g>
  <g stroke="chocolate" stroke-width="1">
    <line x1="44" y1="376" x2="159" y2="253"/>
    <circle cx="44" cy="376" r="2"/>
    <circle cx="159" cy="253" r="2"/>
  </g>
  <g stroke="chocolate" stroke-width="1">
    <line x1="266" y1="357" x2="323" y2="184"/>
    <circle cx="266" cy="357" r="2"/>
    <circle cx="323" cy="184" r="2"/>
  </g>
  <g stroke="chocolate" stroke-width="1">
    <line x1="50" y1="164" x2="181" y2="106"/>
    <circle cx="50" cy="164" r="2"/>
    <circle cx="181" cy="106" r="2"/>
  </g>
  <g stroke="chocolate" stroke-width="1">
    <line x1="266" y1="357" x2="159" y2="253"/>
    <circle cx="266" cy="357" r="2"/>
    <circle cx="159" cy="253" r="2"/>
  </g>
  <g stroke="chocolate" stroke-width="1">
    <line x1="459" y1="228" x2="323" y2="184"/>
    <circle cx="459" cy="228" r="2"/>
    <circle cx="323" cy="184" r="2"/>
  </g>
  <g stroke="chocolate" stroke-width="1">
    <line x1="74" y1="404" x2="181" y2="106"/>
    <circle cx="74" cy="404" r="2"/>
    <circle cx="181" cy="106" r="2"/>
  </g>
  <g stroke="chocolate" stroke-width="1">
    <line x1="149" y1="386" x2="50" y2="164"/>
    <circle cx="149" cy="386" r="2"/>
    <circle cx="50" cy="164" r="2"/>
  </g>
  <g stroke="chocolate" stroke-width="1">
    <line x1="139" y1="378" x2="141" y2="253"/>
    <circle cx="139" cy="378" r="2"/>
    <circle cx="141" cy="253" r="2"/>
  </g>
  <g stroke="chocolate" stroke-width="1">
    <line x1="149" y1="386" x2="141" y2="253"/>
    <circle cx="149" cy="386" r="2"/>
    <circle cx="141" cy="253" r="2"/>
  </g>
  <g stroke="chocolate" stroke-width="1">
    <line x1="413" y1="321" x2="181" y2="106"/>
    <circle cx="413" cy="321" r="2"/>
    <circle cx="181" cy="106" r="2"/>
  </g>
  <g stroke="chocolate" stroke-width="1">
    <line x1="466" y1="309" x2="459" y2="228"/>
    <circle cx="466" cy="309" r="2"/>
    <circle cx="459" cy="228" r="2"/>
  </g>
  <g stroke="chocolate" stroke-width="1">
    <line x1="466" y1="309" x2="440" y2="246"/>
    <circle cx="466" cy="309" r="2"/>
    <circle cx="440" cy="246" r="2"/>
  </g>
  <g stroke="black" stroke-width="1">
    <line x1="5" y1="5" x2="505" y2="5"/>
    <line x1="5" y1="5" x2="5" y2="505"/>
    <line x1="505" y1="505" x2="5" y2="505"/>
    <line x1="505" y1="505" x2="505" y2="5"/>
    <line x1="105" y1="2" x2="105" y2="8"/>
    <line x1="2" y1="105" x2="8" y2="105"/>
    <line x1="105" y1="502" x2="105" y2="508"/>
    <line x1="502" y1="105" x2="508" y2="105"/>
    <line x1="205" y1="2" x2="205" y2="8"/>
    <line x1="2" y1="205" x2="8" y2="205"/>
    <line x1="205" y1="502" x2="205" y2="508"/>
    <line x1="502" y1="205" x2="508" y2="205"/>
    <line x1="305" y1="2" x2="305" y2="8"/>
    <line x1="2" y1="305" x2="8" y2="305"/>
    <line x1="305" y1="502" x2="305" y2="508"/>
    <line x1="502" y1="305" x2="508" y2="305"/>
    <line x1="405" y1="2" x2="405" y2="8"/>
    <line x1="2" y1="405" x2="8" y2="405"/>
    <line x1="405" y1="502" x2="405" y2="508"/>
    <line x1="502" y1="405" x2="508" y2="405"/>
  </g>
  <g stroke="gray" stroke-width="1" stroke-dasharray="5,5">
    <line x1="105" y1="5" x2="105" y2="505"/>
    <line x1="5" y1="105" x2="505" y2="105"/>
    <line x1="205" y1="5" x2="205" y2="505"/>
    <line x1="5" y1="205" x2="505" y2="205"/>
    <line x1="305" y1="5" x2="305" y2="505"/>
    <line x1="5" y1="305" x2="505" y2="305"/>
    <line x1="405" y1="5" x2="405" y2="505"/>
    <line x1="5" y1="405" x2="505" y2="405"/>
  </g>
</svg>
