<?xml version="1.0" standalone="no"?>
<!DOCTYPE svg PUBLIC "-//W3C//DTD SVG 1.1//EN" 
  "http://www.w3.org/Graphics/SVG/1.1/DTD/svg11.dtd">
<svg width="510" height="510" version="1.1" id="toplevel"
    xmlns="http://www.w3.org/2000/svg"
    xmlns:xlink="http://www.w3.org/1999/xlink">
  <polygon points="398,382 417,308 388,290 376,190 129,128 93,150 150,366"
           fill="bisque"/>
  <g stroke="chocolate" stroke-width="1">
    <line x1="150" y1="366" x2="93" y2="150"/>
    <circle cx="150" cy="366" r="2"/>
    <circle cx="93" cy="150" r="2"/>
  </g>
  <g stroke="chocolate" stroke-width="1">
    <line x1="398" y1="382" x2="403" y2="309"/>
    <circle cx="398" cy="382" r="2"/>
    <circle cx="403" cy="309" r="2"/>
  </g>
  <g stroke="chocolate" stroke-width="1">
    <line x1="273" y1="284" x2="275" y2="222"/>
    <circle cx="273" cy="284" r="2"/>
    <circle cx="275" cy="222" r="2"/>
  </g>
  <g stroke="chocolate" stroke-width="1">
    <line x1="398" y1="382" x2="376" y2="190"/>
    <circle cx="398" cy="382" r="2"/>
    <circle cx="376" cy="190" r="2"/>
  </g>
  <g stroke="chocolate" stroke-width="1">
    <line x1="168" y1="300" x2="161" y2="284"/>
    <circle cx="168" cy="300" r="2"/>
    <circle cx="161" cy="284" r="2"/>
  </g>
  <g stroke="chocolate" stroke-width="1">
    <line x1="332" y1="377" x2="293" y2="233"/>
    <circle cx="332" cy="377" r="2"/>
    <circle cx="293" cy="233" r="2"/>
  </g>
  <g stroke="chocolate" stroke-width="1">
    <line x1="409" y1="340" x2="403" y2="309"/>
    <circle cx="409" cy="340" r="2"/>
    <circle cx="403" cy="309" r="2"/>
  </g>
  <g stroke="chocolate" stroke-width="1">
    <line x1="398" y1="382" x2="417" y2="308"/>
    <circle cx="398" cy="382" r="2"/>
    <circle cx="417" cy="308" r="2"/>
  </g>
  <g stroke="chocolate" stroke-width="1">
    <line x1="168" y1="300" x2="171" y2="279"/>
    <circle cx="168" cy="300" r="2"/>
    <circle cx="171" cy="279" r="2"/>
  </g>
  <g stroke="chocolate" stroke-width="1">
    <line x1="217" y1="370" x2="161" y2="284"/>
    <circle cx="217" cy="370" r="2"/>
    <circle cx="161" cy="284" r="2"/>
  </g>
  <g stroke="chocolate" stroke-width="1">
    <line x1="172" y1="200" x2="129" y2="128"/>
    <circle cx="172" cy="200" r="2"/>
    <circle cx="129" cy="128" r="2"/>
  </g>
  <g stroke="chocolate" stroke-width="1">
    <line x1="332" y1="377" x2="359" y2="311"/>
    <circle cx="332" cy="377" r="2"/>
    <circle cx="359" cy="311" r="2"/>
  </g>
  <g stroke="chocolate" stroke-width="1">
    <line x1="397" y1="382" x2="359" y2="311"/>
    <circle cx="397" cy="382" r="2"/>
    <circle cx="359" cy="311" r="2"/>
  </g>
  <g stroke="chocolate" stroke-width="1">
    <line x1="377" y1="380" x2="243" y2="157"/>
    <circle cx="377" cy="380" r="2"/>
    <circle cx="243" cy="157" r="2"/>
  </g>
  <g stroke="chocolate" stroke-width="1">
    <line x1="150" y1="366" x2="189" y2="269"/>
    <circle cx="150" cy="366" r="2"/>
    <circle cx="189" cy="269" r="2"/>
  </g>
  <g stroke="chocolate" stroke-width="1">
    <line x1="397" y1="382" x2="398" y2="381"/>
    <circle cx="397" cy="382" r="2"/>
    <circle cx="398" cy="381" r="2"/>
  </g>
  <g stroke="chocolate" stroke-width="1">
    <line x1="377" y1="380" x2="409" y2="340"/>
    <circle cx="377" cy="380" r="2"/>
    <circle cx="409" cy="340" r="2"/>
  </g>
  <g stroke="chocolate" stroke-width="1">
    <line x1="327" y1="274" x2="293" y2="233"/>
    <circle cx="327" cy="274" r="2"/>
    <circle cx="293" cy="233" r="2"/>
  </g>
  <g stroke="chocolate" stroke-width="1">
    <line x1="398" y1="381" x2="288" y2="286"/>
    <circle cx="398" cy="381" r="2"/>
    <circle cx="288" cy="286" r="2"/>
  </g>
  <g stroke="chocolate" stroke-width="1">
    <line x1="217" y1="370" x2="288" y2="286"/>
    <circle cx="217" cy="370" r="2"/>
    <circle cx="288" cy="286" r="2"/>
  </g>
  <g stroke="chocolate" stroke-width="1">
    <line x1="327" y1="274" x2="381" y2="229"/>
    <circle cx="327" cy="274" r="2"/>
    <circle cx="381" cy="229" r="2"/>
  </g>
  <g stroke="chocolate" stroke-width="1">
    <line x1="398" y1="382" x2="171" y2="279"/>
    <circle cx="398" cy="382" r="2"/>
    <circle cx="171" cy="279" r="2"/>
  </g>
  <g stroke="chocolate" stroke-width="1">
    <line x1="417" y1="308" x2="275" y2="222"/>
    <circle cx="417" cy="308" r="2"/>
    <circle cx="275" cy="222" r="2"/>
  </g>
  <g stroke="chocolate" stroke-width="1">
    <line x1="398" y1="382" x2="150" y2="366"/>
    <circle cx="398" cy="382" r="2"/>
    <circle cx="150" cy="366" r="2"/>
  </g>
  <g stroke="chocolate" stroke-width="1">
    <line x1="381" y1="229" x2="229" y2="153"/>
    <circle cx="381" cy="229" r="2"/>
    <circle cx="229" cy="153" r="2"/>
  </g>
  <g stroke="chocolate" stroke-width="1">
    <line x1="293" y1="233" x2="376" y2="190"/>
    <circle cx="293" cy="233" r="2"/>
    <circle cx="376" cy="190" r="2"/>
  </g>
  <g stroke="chocolate" stroke-width="1">
    <line x1="161" y1="284" x2="275" y2="222"/>
    <circle cx="161" cy="284" r="2"/>
    <circle cx="275" cy="222" r="2"/>
  </g>
  <g stroke="chocolate" stroke-width="1">
    <line x1="273" y1="284" x2="189" y2="269"/>
    <circle cx="273" cy="284" r="2"/>
    <circle cx="189" cy="269" r="2"/>
  </g>
  <g stroke="chocolate" stroke-width="1">
    <line x1="359" y1="311" x2="417" y2="308"/>
    <circle cx="359" cy="311" r="2"/>
    <circle cx="417" cy="308" r="2"/>
  </g>
  <g stroke="chocolate" stroke-width="1">
    <line x1="172" y1="200" x2="243" y2="157"/>
    <circle cx="172" cy="200" r="2"/>
    <circle cx="243" cy="157" r="2"/>
  </g>
  <g stroke="chocolate" stroke-width="1">
    <line x1="168" y1="300" x2="273" y2="284"/>
    <circle cx="168" cy="300" r="2"/>
    <circle cx="273" cy="284" r="2"/>
  </g>
  <g stroke="chocolate" stroke-width="1">
    <line x1="376" y1="190" x2="129" y2="128"/>
    <circle cx="376" cy="190" r="2"/>
    <circle cx="129" cy="128" r="2"/>
  </g>
  <g stroke="chocolate" stroke-width="1">
    <line x1="93" y1="150" x2="129" y2="128"/>
    <circle cx="93" cy="150" r="2"/>
    <circle cx="129" cy="128" r="2"/>
  </g>
  <g stroke="chocolate" stroke-width="1">
    <line x1="229" y1="153" x2="93" y2="150"/>
    <circle cx="229" cy="153" r="2"/>
    <circle cx="93" cy="150" r="2"/>
  </g>
  <g stroke="black" stroke-width="1">
    <line x1="5" y1="5" x2="505" y2="5"/>
    <line x1="5" y1="5" x2="5" y2="505"/>
    <line x1="505" y1="505" x2="5" y2="505"/>
    <line x1="505" y1="505" x2="505" y2="5"/>
    <line x1="105" y1="2" x2="105" y2="8"/>
    <line x1="2" y1="105" x2="8" y2="105"/>
    <line x1="105" y1="502" x2="105" y2="508"/>
    <line x1="502" y1="105" x2="508" y2="105"/>
    <line x1="205" y1="2" x2="205" y2="8"/>
    <line x1="2" y1="205" x2="8" y2="205"/>
    <line x1="205" y1="502" x2="205" y2="508"/>
    <line x1="502" y1="205" x2="508" y2="205"/>
    <line x1="305" y1="2" x2="305" y2="8"/>
    <line x1="2" y1="305" x2="8" y2="305"/>
    <line x1="305" y1="502" x2="305" y2="508"/>
    <line x1="502" y1="305" x2="508" y2="305"/>
    <line x1="405" y1="2" x2="405" y2="8"/>
    <line x1="2" y1="405" x2="8" y2="405"/>
    <line x1="405" y1="502" x2="405" y2="508"/>
    <line x1="502" y1="405" x2="508" y2="405"/>
  </g>
  <g stroke="gray" stroke-width="1" stroke-dasharray="5,5">
    <line x1="105" y1="5" x2="105" y2="505"/>
    <line x1="5" y1="105" x2="505" y2="105"/>
    <line x1="205" y1="5" x2="205" y2="505"/>
    <line x1="5" y1="205" x2="505" y2="205"/>
    <line x1="305" y1="5" x2="305" y2="505"/>
    <line x1="5" y1="305" x2="505" y2="305"/>
    <line x1="405" y1="5" x2="405" y2="505"/>
    <line x1="5" y1="405" x2="505" y2="405"/>
  </g>
</svg>
