<?xml version="1.0" standalone="no"?>
<!DOCTYPE svg PUBLIC "-//W3C//DTD SVG 1.1//EN" 
  "http://www.w3.org/Graphics/SVG/1.1/DTD/svg11.dtd">
<svg width="510" height="510" version="1.1" id="toplevel"
    xmlns="http://www.w3.org/2000/svg"
    xmlns:xlink="http://www.w3.org/1999/xlink">
  <polygon points="288,387 346,263 263,225 269,186 257,162 261,158 245,144 244,127 223,123 191,186 186,188 162,177 80,328 95,372"
           fill="bisque"/>
  <g stroke="chocolate" stroke-width="1">
    <line x1="262" y1="385" x2="267" y2="361"/>
    <circle cx="262" cy="385" r="2"/>
    <circle cx="267" cy="361" r="2"/>
  </g>
  <g stroke="chocolate" stroke-width="1">
    <line x1="256" y1="282" x2="269" y2="186"/>
    <circle cx="256" cy="282" r="2"/>
    <circle cx="269" cy="186" r="2"/>
  </g>
  <g stroke="chocolate" stroke-width="1">
    <line x1="231" y1="289" x2="233" y2="252"/>
    <circle cx="231" cy="289" r="2"/>
    <circle cx="233" cy="252" r="2"/>
  </g>
  <g stroke="chocolate" stroke-width="1">
    <line x1="288" y1="387" x2="346" y2="263"/>
    <circle cx="288" cy="387" r="2"/>
    <circle cx="346" cy="263" r="2"/>
  </g>
  <g stroke="chocolate" stroke-width="1">
    <line x1="127" y1="337" x2="136" y2="293"/>
    <circle cx="127" cy="337" r="2"/>
    <circle cx="136" cy="293" r="2"/>
  </g>
  <g stroke="chocolate" stroke-width="1">
    <line x1="168" y1="378" x2="226" y2="178"/>
    <circle cx="168" cy="378" r="2"/>
    <circle cx="226" cy="178" r="2"/>
  </g>
  <g stroke="chocolate" stroke-width="1">
    <line x1="262" y1="385" x2="244" y2="127"/>
    <circle cx="262" cy="385" r="2"/>
    <circle cx="244" cy="127" r="2"/>
  </g>
  <g stroke="chocolate" stroke-width="1">
    <line x1="168" y1="378" x2="146" y2="207"/>
    <circle cx="168" cy="378" r="2"/>
    <circle cx="146" cy="207" r="2"/>
  </g>
  <g stroke="chocolate" stroke-width="1">
    <line x1="95" y1="372" x2="223" y2="123"/>
    <circle cx="95" cy="372" r="2"/>
    <circle cx="223" cy="123" r="2"/>
  </g>
  <g stroke="chocolate" stroke-width="1">
    <line x1="95" y1="372" x2="80" y2="328"/>
    <circle cx="95" cy="372" r="2"/>
    <circle cx="80" cy="328" r="2"/>
  </g>
  <g stroke="chocolate" stroke-width="1">
    <line x1="80" y1="328" x2="162" y2="177"/>
    <circle cx="80" cy="328" r="2"/>
    <circle cx="162" cy="177" r="2"/>
  </g>
  <g stroke="chocolate" stroke-width="1">
    <line x1="288" y1="387" x2="215" y2="138"/>
    <circle cx="288" cy="387" r="2"/>
    <circle cx="215" cy="138" r="2"/>
  </g>
  <g stroke="chocolate" stroke-width="1">
    <line x1="209" y1="255" x2="269" y2="186"/>
    <circle cx="209" cy="255" r="2"/>
    <circle cx="269" cy="186" r="2"/>
  </g>
  <g stroke="chocolate" stroke-width="1">
    <line x1="127" y1="337" x2="250" y2="210"/>
    <circle cx="127" cy="337" r="2"/>
    <circle cx="250" cy="210" r="2"/>
  </g>
  <g stroke="chocolate" stroke-width="1">
    <line x1="136" y1="293" x2="261" y2="158"/>
    <circle cx="136" cy="293" r="2"/>
    <circle cx="261" cy="158" r="2"/>
  </g>
  <g stroke="chocolate" stroke-width="1">
    <line x1="269" y1="186" x2="254" y2="156"/>
    <circle cx="269" cy="186" r="2"/>
    <circle cx="254" cy="156" r="2"/>
  </g>
  <g stroke="chocolate" stroke-width="1">
    <line x1="231" y1="289" x2="209" y2="255"/>
    <circle cx="231" cy="289" r="2"/>
    <circle cx="209" cy="255" r="2"/>
  </g>
  <g stroke="chocolate" stroke-width="1">
    <line x1="256" y1="282" x2="233" y2="252"/>
    <circle cx="256" cy="282" r="2"/>
    <circle cx="233" cy="252" r="2"/>
  </g>
  <g stroke="chocolate" stroke-width="1">
    <line x1="267" y1="361" x2="134" y2="230"/>
    <circle cx="267" cy="361" r="2"/>
    <circle cx="134" cy="230" r="2"/>
  </g>
  <g stroke="chocolate" stroke-width="1">
    <line x1="209" y1="381" x2="267" y2="361"/>
    <circle cx="209" cy="381" r="2"/>
    <circle cx="267" cy="361" r="2"/>
  </g>
  <g stroke="chocolate" stroke-width="1">
    <line x1="209" y1="381" x2="127" y2="337"/>
    <circle cx="209" cy="381" r="2"/>
    <circle cx="127" cy="337" r="2"/>
  </g>
  <g stroke="chocolate" stroke-width="1">
    <line x1="146" y1="207" x2="254" y2="156"/>
    <circle cx="146" cy="207" r="2"/>
    <circle cx="254" cy="156" r="2"/>
  </g>
  <g stroke="chocolate" stroke-width="1">
    <line x1="261" y1="158" x2="223" y2="123"/>
    <circle cx="261" cy="158" r="2"/>
    <circle cx="223" cy="123" r="2"/>
  </g>
  <g stroke="chocolate" stroke-width="1">
    <line x1="80" y1="328" x2="256" y2="282"/>
    <circle cx="80" cy="328" r="2"/>
    <circle cx="256" cy="282" r="2"/>
  </g>
  <g stroke="chocolate" stroke-width="1">
    <line x1="250" y1="210" x2="199" y2="170"/>
    <circle cx="250" cy="210" r="2"/>
    <circle cx="199" cy="170" r="2"/>
  </g>
  <g stroke="chocolate" stroke-width="1">
    <line x1="209" y1="255" x2="262" y2="239"/>
    <circle cx="209" cy="255" r="2"/>
    <circle cx="262" cy="239" r="2"/>
  </g>
  <g stroke="chocolate" stroke-width="1">
    <line x1="288" y1="387" x2="95" y2="372"/>
    <circle cx="288" cy="387" r="2"/>
    <circle cx="95" cy="372" r="2"/>
  </g>
  <g stroke="chocolate" stroke-width="1">
    <line x1="262" y1="239" x2="162" y2="177"/>
    <circle cx="262" cy="239" r="2"/>
    <circle cx="162" cy="177" r="2"/>
  </g>
  <g stroke="chocolate" stroke-width="1">
    <line x1="215" y1="138" x2="244" y2="127"/>
    <circle cx="215" cy="138" r="2"/>
    <circle cx="244" cy="127" r="2"/>
  </g>
  <g stroke="chocolate" stroke-width="1">
    <line x1="346" y1="263" x2="162" y2="177"/>
    <circle cx="346" cy="263" r="2"/>
    <circle cx="162" cy="177" r="2"/>
  </g>
  <g stroke="chocolate" stroke-width="1">
    <line x1="233" y1="252" x2="134" y2="230"/>
    <circle cx="233" cy="252" r="2"/>
    <circle cx="134" cy="230" r="2"/>
  </g>
  <g stroke="chocolate" stroke-width="1">
    <line x1="226" y1="178" x2="199" y2="170"/>
    <circle cx="226" cy="178" r="2"/>
    <circle cx="199" cy="170" r="2"/>
  </g>
  <g stroke="chocolate" stroke-width="1">
    <line x1="244" y1="127" x2="223" y2="123"/>
    <circle cx="244" cy="127" r="2"/>
    <circle cx="223" cy="123" r="2"/>
  </g>
  <g stroke="black" stroke-width="1">
    <line x1="5" y1="5" x2="505" y2="5"/>
    <line x1="5" y1="5" x2="5" y2="505"/>
    <line x1="505" y1="505" x2="5" y2="505"/>
    <line x1="505" y1="505" x2="505" y2="5"/>
    <line x1="105" y1="2" x2="105" y2="8"/>
    <line x1="2" y1="105" x2="8" y2="105"/>
    <line x1="105" y1="502" x2="105" y2="508"/>
    <line x1="502" y1="105" x2="508" y2="105"/>
    <line x1="205" y1="2" x2="205" y2="8"/>
    <line x1="2" y1="205" x2="8" y2="205"/>
    <line x1="205" y1="502" x2="205" y2="508"/>
    <line x1="502" y1="205" x2="508" y2="205"/>
    <line x1="305" y1="2" x2="305" y2="8"/>
    <line x1="2" y1="305" x2="8" y2="305"/>
    <line x1="305" y1="502" x2="305" y2="508"/>
    <line x1="502" y1="305" x2="508" y2="305"/>
    <line x1="405" y1="2" x2="405" y2="8"/>
    <line x1="2" y1="405" x2="8" y2="405"/>
    <line x1="405" y1="502" x2="405" y2="508"/>
    <line x1="502" y1="405" x2="508" y2="405"/>
  </g>
  <g stroke="gray" stroke-width="1" stroke-dasharray="5,5">
    <line x1="105" y1="5" x2="105" y2="505"/>
    <line x1="5" y1="105" x2="505" y2="105"/>
    <line x1="205" y1="5" x2="205" y2="505"/>
    <line x1="5" y1="205" x2="505" y2="205"/>
    <line x1="305" y1="5" x2="305" y2="505"/>
    <line x1="5" y1="305" x2="505" y2="305"/>
    <line x1="405" y1="5" x2="405" y2="505"/>
    <line x1="5" y1="405" x2="505" y2="405"/>
  </g>
</svg>
