<?xml version="1.0" standalone="no"?>
<!DOCTYPE svg PUBLIC "-//W3C//DTD SVG 1.1//EN" 
  "http://www.w3.org/Graphics/SVG/1.1/DTD/svg11.dtd">
<svg width="510" height="510" version="1.1" id="toplevel"
    xmlns="http://www.w3.org/2000/svg"
    xmlns:xlink="http://www.w3.org/1999/xlink">
  <polygon points="133,381 458,381 461,378 451,342 238,129 234,131 157,131 157,181 49,249"
           fill="bisque"/>
  <g stroke="chocolate" stroke-width="1">
    <line x1="292" y1="381" x2="295" y2="214"/>
    <circle cx="292" cy="381" r="2"/>
    <circle cx="295" cy="214" r="2"/>
  </g>
  <g stroke="chocolate" stroke-width="1">
    <line x1="157" y1="256" x2="157" y2="131"/>
    <circle cx="157" cy="256" r="2"/>
    <circle cx="157" cy="131" r="2"/>
  </g>
  <g stroke="chocolate" stroke-width="1">
    <line x1="240" y1="381" x2="240" y2="131"/>
    <circle cx="240" cy="381" r="2"/>
    <circle cx="240" cy="131" r="2"/>
  </g>
  <g stroke="chocolate" stroke-width="1">
    <line x1="292" y1="381" x2="291" y2="333"/>
    <circle cx="292" cy="381" r="2"/>
    <circle cx="291" cy="333" r="2"/>
  </g>
  <g stroke="chocolate" stroke-width="1">
    <line x1="461" y1="378" x2="451" y2="342"/>
    <circle cx="461" cy="378" r="2"/>
    <circle cx="451" cy="342" r="2"/>
  </g>
  <g stroke="chocolate" stroke-width="1">
    <line x1="261" y1="381" x2="291" y2="333"/>
    <circle cx="261" cy="381" r="2"/>
    <circle cx="291" cy="333" r="2"/>
  </g>
  <g stroke="chocolate" stroke-width="1">
    <line x1="133" y1="381" x2="49" y2="249"/>
    <circle cx="133" cy="381" r="2"/>
    <circle cx="49" cy="249" r="2"/>
  </g>
  <g stroke="chocolate" stroke-width="1">
    <line x1="458" y1="381" x2="461" y2="378"/>
    <circle cx="458" cy="381" r="2"/>
    <circle cx="461" cy="378" r="2"/>
  </g>
  <g stroke="chocolate" stroke-width="1">
    <line x1="133" y1="381" x2="261" y2="179"/>
    <circle cx="133" cy="381" r="2"/>
    <circle cx="261" cy="179" r="2"/>
  </g>
  <g stroke="chocolate" stroke-width="1">
    <line x1="261" y1="381" x2="172" y2="234"/>
    <circle cx="261" cy="381" r="2"/>
    <circle cx="172" cy="234" r="2"/>
  </g>
  <g stroke="chocolate" stroke-width="1">
    <line x1="157" y1="256" x2="238" y2="129"/>
    <circle cx="157" cy="256" r="2"/>
    <circle cx="238" cy="129" r="2"/>
  </g>
  <g stroke="chocolate" stroke-width="1">
    <line x1="458" y1="381" x2="261" y2="179"/>
    <circle cx="458" cy="381" r="2"/>
    <circle cx="261" cy="179" r="2"/>
  </g>
  <g stroke="chocolate" stroke-width="1">
    <line x1="451" y1="342" x2="238" y2="129"/>
    <circle cx="451" cy="342" r="2"/>
    <circle cx="238" cy="129" r="2"/>
  </g>
  <g stroke="chocolate" stroke-width="1">
    <line x1="172" y1="234" x2="261" y2="179"/>
    <circle cx="172" cy="234" r="2"/>
    <circle cx="261" cy="179" r="2"/>
  </g>
  <g stroke="chocolate" stroke-width="1">
    <line x1="49" y1="249" x2="238" y2="129"/>
    <circle cx="49" cy="249" r="2"/>
    <circle cx="238" cy="129" r="2"/>
  </g>
  <g stroke="chocolate" stroke-width="1">
    <line x1="133" y1="381" x2="458" y2="381"/>
    <circle cx="133" cy="381" r="2"/>
    <circle cx="458" cy="381" r="2"/>
  </g>
  <g stroke="chocolate" stroke-width="1">
    <line x1="461" y1="378" x2="291" y2="333"/>
    <circle cx="461" cy="378" r="2"/>
    <circle cx="291" cy="333" r="2"/>
  </g>
  <g stroke="chocolate" stroke-width="1">
    <line x1="451" y1="342" x2="157" y2="256"/>
    <circle cx="451" cy="342" r="2"/>
    <circle cx="157" cy="256" r="2"/>
  </g>
  <g stroke="chocolate" stroke-width="1">
    <line x1="240" y1="214" x2="295" y2="214"/>
    <circle cx="240" cy="214" r="2"/>
    <circle cx="295" cy="214" r="2"/>
  </g>
  <g stroke="chocolate" stroke-width="1">
    <line x1="157" y1="131" x2="240" y2="131"/>
    <circle cx="157" cy="131" r="2"/>
    <circle cx="240" cy="131" r="2"/>
  </g>
  <g stroke="black" stroke-width="1">
    <line x1="5" y1="5" x2="505" y2="5"/>
    <line x1="5" y1="5" x2="5" y2="505"/>
    <line x1="505" y1="505" x2="5" y2="505"/>
    <line x1="505" y1="505" x2="505" y2="5"/>
    <line x1="105" y1="2" x2="105" y2="8"/>
    <line x1="2" y1="105" x2="8" y2="105"/>
    <line x1="105" y1="502" x2="105" y2="508"/>
    <line x1="502" y1="105" x2="508" y2="105"/>
    <line x1="205" y1="2" x2="205" y2="8"/>
    <line x1="2" y1="205" x2="8" y2="205"/>
    <line x1="205" y1="502" x2="205" y2="508"/>
    <line x1="502" y1="205" x2="508" y2="205"/>
    <line x1="305" y1="2" x2="305" y2="8"/>
    <line x1="2" y1="305" x2="8" y2="305"/>
    <line x1="305" y1="502" x2="305" y2="508"/>
    <line x1="502" y1="305" x2="508" y2="305"/>
    <line x1="405" y1="2" x2="405" y2="8"/>
    <line x1="2" y1="405" x2="8" y2="405"/>
    <line x1="405" y1="502" x2="405" y2="508"/>
    <line x1="502" y1="405" x2="508" y2="405"/>
  </g>
  <g stroke="gray" stroke-width="1" stroke-dasharray="5,5">
    <line x1="105" y1="5" x2="105" y2="505"/>
    <line x1="5" y1="105" x2="505" y2="105"/>
    <line x1="205" y1="5" x2="205" y2="505"/>
    <line x1="5" y1="205" x2="505" y2="205"/>
    <line x1="305" y1="5" x2="305" y2="505"/>
    <line x1="5" y1="305" x2="505" y2="305"/>
    <line x1="405" y1="5" x2="405" y2="505"/>
    <line x1="5" y1="405" x2="505" y2="405"/>
  </g>
</svg>
