<?xml version="1.0" standalone="no"?>
<!DOCTYPE svg PUBLIC "-//W3C//DTD SVG 1.1//EN" 
  "http://www.w3.org/Graphics/SVG/1.1/DTD/svg11.dtd">
<svg width="510" height="510" version="1.1" id="toplevel"
    xmlns="http://www.w3.org/2000/svg"
    xmlns:xlink="http://www.w3.org/1999/xlink">
  <polygon points="326,340 346,306 400,302 405,259 405,229 406,229 406,170 133,170 104,284 165,299 171,322 233,316"
           fill="bisque"/>
  <g stroke="chocolate" stroke-width="1">
    <line x1="186" y1="244" x2="181" y2="170"/>
    <circle cx="186" cy="244" r="2"/>
    <circle cx="181" cy="170" r="2"/>
  </g>
  <g stroke="chocolate" stroke-width="1">
    <line x1="171" y1="322" x2="133" y2="170"/>
    <circle cx="171" cy="322" r="2"/>
    <circle cx="133" cy="170" r="2"/>
  </g>
  <g stroke="chocolate" stroke-width="1">
    <line x1="405" y1="259" x2="406" y2="170"/>
    <circle cx="405" cy="259" r="2"/>
    <circle cx="406" cy="170" r="2"/>
  </g>
  <g stroke="chocolate" stroke-width="1">
    <line x1="406" y1="229" x2="406" y2="170"/>
    <circle cx="406" cy="229" r="2"/>
    <circle cx="406" cy="170" r="2"/>
  </g>
  <g stroke="chocolate" stroke-width="1">
    <line x1="400" y1="302" x2="405" y2="259"/>
    <circle cx="400" cy="302" r="2"/>
    <circle cx="405" cy="259" r="2"/>
  </g>
  <g stroke="chocolate" stroke-width="1">
    <line x1="171" y1="322" x2="181" y2="170"/>
    <circle cx="171" cy="322" r="2"/>
    <circle cx="181" cy="170" r="2"/>
  </g>
  <g stroke="chocolate" stroke-width="1">
    <line x1="361" y1="280" x2="381" y2="170"/>
    <circle cx="361" cy="280" r="2"/>
    <circle cx="381" cy="170" r="2"/>
  </g>
  <g stroke="chocolate" stroke-width="1">
    <line x1="319" y1="309" x2="342" y2="170"/>
    <circle cx="319" cy="309" r="2"/>
    <circle cx="342" cy="170" r="2"/>
  </g>
  <g stroke="chocolate" stroke-width="1">
    <line x1="395" y1="300" x2="405" y2="259"/>
    <circle cx="395" cy="300" r="2"/>
    <circle cx="405" cy="259" r="2"/>
  </g>
  <g stroke="chocolate" stroke-width="1">
    <line x1="361" y1="280" x2="342" y2="170"/>
    <circle cx="361" cy="280" r="2"/>
    <circle cx="342" cy="170" r="2"/>
  </g>
  <g stroke="chocolate" stroke-width="1">
    <line x1="402" y1="284" x2="381" y2="170"/>
    <circle cx="402" cy="284" r="2"/>
    <circle cx="381" cy="170" r="2"/>
  </g>
  <g stroke="chocolate" stroke-width="1">
    <line x1="319" y1="309" x2="269" y2="170"/>
    <circle cx="319" cy="309" r="2"/>
    <circle cx="269" cy="170" r="2"/>
  </g>
  <g stroke="chocolate" stroke-width="1">
    <line x1="395" y1="300" x2="402" y2="284"/>
    <circle cx="395" cy="300" r="2"/>
    <circle cx="402" cy="284" r="2"/>
  </g>
  <g stroke="chocolate" stroke-width="1">
    <line x1="104" y1="284" x2="133" y2="170"/>
    <circle cx="104" cy="284" r="2"/>
    <circle cx="133" cy="170" r="2"/>
  </g>
  <g stroke="chocolate" stroke-width="1">
    <line x1="251" y1="219" x2="269" y2="170"/>
    <circle cx="251" cy="219" r="2"/>
    <circle cx="269" cy="170" r="2"/>
  </g>
  <g stroke="chocolate" stroke-width="1">
    <line x1="326" y1="340" x2="361" y2="280"/>
    <circle cx="326" cy="340" r="2"/>
    <circle cx="361" cy="280" r="2"/>
  </g>
  <g stroke="chocolate" stroke-width="1">
    <line x1="352" y1="293" x2="406" y2="219"/>
    <circle cx="352" cy="293" r="2"/>
    <circle cx="406" cy="219" r="2"/>
  </g>
  <g stroke="chocolate" stroke-width="1">
    <line x1="263" y1="314" x2="370" y2="170"/>
    <circle cx="263" cy="314" r="2"/>
    <circle cx="370" cy="170" r="2"/>
  </g>
  <g stroke="chocolate" stroke-width="1">
    <line x1="326" y1="340" x2="166" y2="170"/>
    <circle cx="326" cy="340" r="2"/>
    <circle cx="166" cy="170" r="2"/>
  </g>
  <g stroke="chocolate" stroke-width="1">
    <line x1="406" y1="219" x2="370" y2="170"/>
    <circle cx="406" cy="219" r="2"/>
    <circle cx="370" cy="170" r="2"/>
  </g>
  <g stroke="chocolate" stroke-width="1">
    <line x1="263" y1="314" x2="140" y2="197"/>
    <circle cx="263" cy="314" r="2"/>
    <circle cx="140" cy="197" r="2"/>
  </g>
  <g stroke="chocolate" stroke-width="1">
    <line x1="352" y1="293" x2="251" y2="219"/>
    <circle cx="352" cy="293" r="2"/>
    <circle cx="251" cy="219" r="2"/>
  </g>
  <g stroke="chocolate" stroke-width="1">
    <line x1="140" y1="197" x2="166" y2="170"/>
    <circle cx="140" cy="197" r="2"/>
    <circle cx="166" cy="170" r="2"/>
  </g>
  <g stroke="chocolate" stroke-width="1">
    <line x1="326" y1="340" x2="104" y2="284"/>
    <circle cx="326" cy="340" r="2"/>
    <circle cx="104" cy="284" r="2"/>
  </g>
  <g stroke="chocolate" stroke-width="1">
    <line x1="400" y1="302" x2="395" y2="300"/>
    <circle cx="400" cy="302" r="2"/>
    <circle cx="395" cy="300" r="2"/>
  </g>
  <g stroke="chocolate" stroke-width="1">
    <line x1="171" y1="322" x2="400" y2="302"/>
    <circle cx="171" cy="322" r="2"/>
    <circle cx="400" cy="302" r="2"/>
  </g>
  <g stroke="chocolate" stroke-width="1">
    <line x1="186" y1="244" x2="406" y2="229"/>
    <circle cx="186" cy="244" r="2"/>
    <circle cx="406" cy="229" r="2"/>
  </g>
  <g stroke="chocolate" stroke-width="1">
    <line x1="406" y1="229" x2="251" y2="219"/>
    <circle cx="406" cy="229" r="2"/>
    <circle cx="251" cy="219" r="2"/>
  </g>
  <g stroke="chocolate" stroke-width="1">
    <line x1="133" y1="170" x2="406" y2="170"/>
    <circle cx="133" cy="170" r="2"/>
    <circle cx="406" cy="170" r="2"/>
  </g>
  <g stroke="black" stroke-width="1">
    <line x1="5" y1="5" x2="505" y2="5"/>
    <line x1="5" y1="5" x2="5" y2="505"/>
    <line x1="505" y1="505" x2="5" y2="505"/>
    <line x1="505" y1="505" x2="505" y2="5"/>
    <line x1="105" y1="2" x2="105" y2="8"/>
    <line x1="2" y1="105" x2="8" y2="105"/>
    <line x1="105" y1="502" x2="105" y2="508"/>
    <line x1="502" y1="105" x2="508" y2="105"/>
    <line x1="205" y1="2" x2="205" y2="8"/>
    <line x1="2" y1="205" x2="8" y2="205"/>
    <line x1="205" y1="502" x2="205" y2="508"/>
    <line x1="502" y1="205" x2="508" y2="205"/>
    <line x1="305" y1="2" x2="305" y2="8"/>
    <line x1="2" y1="305" x2="8" y2="305"/>
    <line x1="305" y1="502" x2="305" y2="508"/>
    <line x1="502" y1="305" x2="508" y2="305"/>
    <line x1="405" y1="2" x2="405" y2="8"/>
    <line x1="2" y1="405" x2="8" y2="405"/>
    <line x1="405" y1="502" x2="405" y2="508"/>
    <line x1="502" y1="405" x2="508" y2="405"/>
  </g>
  <g stroke="gray" stroke-width="1" stroke-dasharray="5,5">
    <line x1="105" y1="5" x2="105" y2="505"/>
    <line x1="5" y1="105" x2="505" y2="105"/>
    <line x1="205" y1="5" x2="205" y2="505"/>
    <line x1="5" y1="205" x2="505" y2="205"/>
    <line x1="305" y1="5" x2="305" y2="505"/>
    <line x1="5" y1="305" x2="505" y2="305"/>
    <line x1="405" y1="5" x2="405" y2="505"/>
    <line x1="5" y1="405" x2="505" y2="405"/>
  </g>
</svg>
