<?xml version="1.0" standalone="no"?>
<!DOCTYPE svg PUBLIC "-//W3C//DTD SVG 1.1//EN" 
  "http://www.w3.org/Graphics/SVG/1.1/DTD/svg11.dtd">
<svg width="510" height="510" version="1.1" id="toplevel"
    xmlns="http://www.w3.org/2000/svg"
    xmlns:xlink="http://www.w3.org/1999/xlink">
  <polygon points="315,469 379,454 495,113 494,112 497,95 394,76 334,300 322,289 246,360 257,373 246,388 261,402 249,418"
           fill="bisque"/>
  <g stroke="chocolate" stroke-width="1">
    <line x1="315" y1="469" x2="492" y2="119"/>
    <circle cx="315" cy="469" r="2"/>
    <circle cx="492" cy="119" r="2"/>
  </g>
  <g stroke="chocolate" stroke-width="1">
    <line x1="331" y1="465" x2="477" y2="107"/>
    <circle cx="331" cy="465" r="2"/>
    <circle cx="477" cy="107" r="2"/>
  </g>
  <g stroke="chocolate" stroke-width="1">
    <line x1="379" y1="454" x2="495" y2="113"/>
    <circle cx="379" cy="454" r="2"/>
    <circle cx="495" cy="113" r="2"/>
  </g>
  <g stroke="chocolate" stroke-width="1">
    <line x1="342" y1="463" x2="449" y2="120"/>
    <circle cx="342" cy="463" r="2"/>
    <circle cx="449" cy="120" r="2"/>
  </g>
  <g stroke="chocolate" stroke-width="1">
    <line x1="249" y1="418" x2="337" y2="302"/>
    <circle cx="249" cy="418" r="2"/>
    <circle cx="337" cy="302" r="2"/>
  </g>
  <g stroke="chocolate" stroke-width="1">
    <line x1="492" y1="119" x2="497" y2="95"/>
    <circle cx="492" cy="119" r="2"/>
    <circle cx="497" cy="95" r="2"/>
  </g>
  <g stroke="chocolate" stroke-width="1">
    <line x1="246" y1="388" x2="322" y2="289"/>
    <circle cx="246" cy="388" r="2"/>
    <circle cx="322" cy="289" r="2"/>
  </g>
  <g stroke="chocolate" stroke-width="1">
    <line x1="313" y1="375" x2="394" y2="76"/>
    <circle cx="313" cy="375" r="2"/>
    <circle cx="394" cy="76" r="2"/>
  </g>
  <g stroke="chocolate" stroke-width="1">
    <line x1="246" y1="388" x2="337" y2="302"/>
    <circle cx="246" cy="388" r="2"/>
    <circle cx="337" cy="302" r="2"/>
  </g>
  <g stroke="chocolate" stroke-width="1">
    <line x1="246" y1="360" x2="322" y2="289"/>
    <circle cx="246" cy="360" r="2"/>
    <circle cx="322" cy="289" r="2"/>
  </g>
  <g stroke="chocolate" stroke-width="1">
    <line x1="315" y1="469" x2="379" y2="454"/>
    <circle cx="315" cy="469" r="2"/>
    <circle cx="379" cy="454" r="2"/>
  </g>
  <g stroke="chocolate" stroke-width="1">
    <line x1="313" y1="375" x2="409" y2="367"/>
    <circle cx="313" cy="375" r="2"/>
    <circle cx="409" cy="367" r="2"/>
  </g>
  <g stroke="chocolate" stroke-width="1">
    <line x1="315" y1="469" x2="249" y2="418"/>
    <circle cx="315" cy="469" r="2"/>
    <circle cx="249" cy="418" r="2"/>
  </g>
  <g stroke="chocolate" stroke-width="1">
    <line x1="331" y1="465" x2="246" y2="388"/>
    <circle cx="331" cy="465" r="2"/>
    <circle cx="246" cy="388" r="2"/>
  </g>
  <g stroke="chocolate" stroke-width="1">
    <line x1="342" y1="463" x2="246" y2="360"/>
    <circle cx="342" cy="463" r="2"/>
    <circle cx="246" cy="360" r="2"/>
  </g>
  <g stroke="chocolate" stroke-width="1">
    <line x1="379" y1="454" x2="313" y2="375"/>
    <circle cx="379" cy="454" r="2"/>
    <circle cx="313" cy="375" r="2"/>
  </g>
  <g stroke="chocolate" stroke-width="1">
    <line x1="409" y1="367" x2="322" y2="289"/>
    <circle cx="409" cy="367" r="2"/>
    <circle cx="322" cy="289" r="2"/>
  </g>
  <g stroke="chocolate" stroke-width="1">
    <line x1="494" y1="116" x2="389" y2="96"/>
    <circle cx="494" cy="116" r="2"/>
    <circle cx="389" cy="96" r="2"/>
  </g>
  <g stroke="chocolate" stroke-width="1">
    <line x1="488" y1="132" x2="449" y2="120"/>
    <circle cx="488" cy="132" r="2"/>
    <circle cx="449" cy="120" r="2"/>
  </g>
  <g stroke="chocolate" stroke-width="1">
    <line x1="497" y1="95" x2="394" y2="76"/>
    <circle cx="497" cy="95" r="2"/>
    <circle cx="394" cy="76" r="2"/>
  </g>
  <g stroke="chocolate" stroke-width="1">
    <line x1="488" y1="132" x2="389" y2="96"/>
    <circle cx="488" cy="132" r="2"/>
    <circle cx="389" cy="96" r="2"/>
  </g>
  <g stroke="chocolate" stroke-width="1">
    <line x1="495" y1="113" x2="477" y2="107"/>
    <circle cx="495" cy="113" r="2"/>
    <circle cx="477" cy="107" r="2"/>
  </g>
  <g stroke="chocolate" stroke-width="1">
    <line x1="495" y1="113" x2="394" y2="76"/>
    <circle cx="495" cy="113" r="2"/>
    <circle cx="394" cy="76" r="2"/>
  </g>
  <g stroke="chocolate" stroke-width="1">
    <line x1="494" y1="116" x2="477" y2="107"/>
    <circle cx="494" cy="116" r="2"/>
    <circle cx="477" cy="107" r="2"/>
  </g>
  <g stroke="black" stroke-width="1">
    <line x1="5" y1="5" x2="505" y2="5"/>
    <line x1="5" y1="5" x2="5" y2="505"/>
    <line x1="505" y1="505" x2="5" y2="505"/>
    <line x1="505" y1="505" x2="505" y2="5"/>
    <line x1="105" y1="2" x2="105" y2="8"/>
    <line x1="2" y1="105" x2="8" y2="105"/>
    <line x1="105" y1="502" x2="105" y2="508"/>
    <line x1="502" y1="105" x2="508" y2="105"/>
    <line x1="205" y1="2" x2="205" y2="8"/>
    <line x1="2" y1="205" x2="8" y2="205"/>
    <line x1="205" y1="502" x2="205" y2="508"/>
    <line x1="502" y1="205" x2="508" y2="205"/>
    <line x1="305" y1="2" x2="305" y2="8"/>
    <line x1="2" y1="305" x2="8" y2="305"/>
    <line x1="305" y1="502" x2="305" y2="508"/>
    <line x1="502" y1="305" x2="508" y2="305"/>
    <line x1="405" y1="2" x2="405" y2="8"/>
    <line x1="2" y1="405" x2="8" y2="405"/>
    <line x1="405" y1="502" x2="405" y2="508"/>
    <line x1="502" y1="405" x2="508" y2="405"/>
  </g>
  <g stroke="gray" stroke-width="1" stroke-dasharray="5,5">
    <line x1="105" y1="5" x2="105" y2="505"/>
    <line x1="5" y1="105" x2="505" y2="105"/>
    <line x1="205" y1="5" x2="205" y2="505"/>
    <line x1="5" y1="205" x2="505" y2="205"/>
    <line x1="305" y1="5" x2="305" y2="505"/>
    <line x1="5" y1="305" x2="505" y2="305"/>
    <line x1="405" y1="5" x2="405" y2="505"/>
    <line x1="5" y1="405" x2="505" y2="405"/>
  </g>
</svg>
