<?xml version="1.0" standalone="no"?>
<!DOCTYPE svg PUBLIC "-//W3C//DTD SVG 1.1//EN" 
  "http://www.w3.org/Graphics/SVG/1.1/DTD/svg11.dtd">
<svg width="510" height="510" version="1.1" id="toplevel"
    xmlns="http://www.w3.org/2000/svg"
    xmlns:xlink="http://www.w3.org/1999/xlink">
  <polygon points="219,444 352,385 278,221 335,237 371,139 355,133 359,114 339,108 343,88 229,66 139,162 139,217 212,424 209,426"
           fill="bisque"/>
  <g stroke="chocolate" stroke-width="1">
    <line x1="219" y1="444" x2="323" y2="375"/>
    <circle cx="219" cy="444" r="2"/>
    <circle cx="323" cy="375" r="2"/>
  </g>
  <g stroke="chocolate" stroke-width="1">
    <line x1="209" y1="426" x2="295" y2="368"/>
    <circle cx="209" cy="426" r="2"/>
    <circle cx="295" cy="368" r="2"/>
  </g>
  <g stroke="chocolate" stroke-width="1">
    <line x1="219" y1="444" x2="352" y2="385"/>
    <circle cx="219" cy="444" r="2"/>
    <circle cx="352" cy="385" r="2"/>
  </g>
  <g stroke="chocolate" stroke-width="1">
    <line x1="209" y1="426" x2="323" y2="375"/>
    <circle cx="209" cy="426" r="2"/>
    <circle cx="323" cy="375" r="2"/>
  </g>
  <g stroke="chocolate" stroke-width="1">
    <line x1="335" y1="237" x2="371" y2="139"/>
    <circle cx="335" cy="237" r="2"/>
    <circle cx="371" cy="139" r="2"/>
  </g>
  <g stroke="chocolate" stroke-width="1">
    <line x1="315" y1="231" x2="359" y2="114"/>
    <circle cx="315" cy="231" r="2"/>
    <circle cx="359" cy="114" r="2"/>
  </g>
  <g stroke="chocolate" stroke-width="1">
    <line x1="139" y1="162" x2="229" y2="66"/>
    <circle cx="139" cy="162" r="2"/>
    <circle cx="229" cy="66" r="2"/>
  </g>
  <g stroke="chocolate" stroke-width="1">
    <line x1="139" y1="217" x2="153" y2="177"/>
    <circle cx="139" cy="217" r="2"/>
    <circle cx="153" cy="177" r="2"/>
  </g>
  <g stroke="chocolate" stroke-width="1">
    <line x1="335" y1="237" x2="359" y2="114"/>
    <circle cx="335" cy="237" r="2"/>
    <circle cx="359" cy="114" r="2"/>
  </g>
  <g stroke="chocolate" stroke-width="1">
    <line x1="315" y1="231" x2="343" y2="88"/>
    <circle cx="315" cy="231" r="2"/>
    <circle cx="343" cy="88" r="2"/>
  </g>
  <g stroke="chocolate" stroke-width="1">
    <line x1="139" y1="181" x2="153" y2="177"/>
    <circle cx="139" cy="181" r="2"/>
    <circle cx="153" cy="177" r="2"/>
  </g>
  <g stroke="chocolate" stroke-width="1">
    <line x1="139" y1="217" x2="139" y2="162"/>
    <circle cx="139" cy="217" r="2"/>
    <circle cx="139" cy="162" r="2"/>
  </g>
  <g stroke="chocolate" stroke-width="1">
    <line x1="317" y1="400" x2="229" y2="66"/>
    <circle cx="317" cy="400" r="2"/>
    <circle cx="229" cy="66" r="2"/>
  </g>
  <g stroke="chocolate" stroke-width="1">
    <line x1="219" y1="444" x2="139" y2="217"/>
    <circle cx="219" cy="444" r="2"/>
    <circle cx="139" cy="217" r="2"/>
  </g>
  <g stroke="chocolate" stroke-width="1">
    <line x1="335" y1="237" x2="139" y2="181"/>
    <circle cx="335" cy="237" r="2"/>
    <circle cx="139" cy="181" r="2"/>
  </g>
  <g stroke="chocolate" stroke-width="1">
    <line x1="219" y1="444" x2="209" y2="426"/>
    <circle cx="219" cy="444" r="2"/>
    <circle cx="209" cy="426" r="2"/>
  </g>
  <g stroke="chocolate" stroke-width="1">
    <line x1="333" y1="393" x2="221" y2="75"/>
    <circle cx="333" cy="393" r="2"/>
    <circle cx="221" cy="75" r="2"/>
  </g>
  <g stroke="chocolate" stroke-width="1">
    <line x1="352" y1="385" x2="215" y2="81"/>
    <circle cx="352" cy="385" r="2"/>
    <circle cx="215" cy="81" r="2"/>
  </g>
  <g stroke="chocolate" stroke-width="1">
    <line x1="333" y1="393" x2="323" y2="375"/>
    <circle cx="333" cy="393" r="2"/>
    <circle cx="323" cy="375" r="2"/>
  </g>
  <g stroke="chocolate" stroke-width="1">
    <line x1="317" y1="400" x2="295" y2="368"/>
    <circle cx="317" cy="400" r="2"/>
    <circle cx="295" cy="368" r="2"/>
  </g>
  <g stroke="chocolate" stroke-width="1">
    <line x1="343" y1="88" x2="229" y2="66"/>
    <circle cx="343" cy="88" r="2"/>
    <circle cx="229" cy="66" r="2"/>
  </g>
  <g stroke="chocolate" stroke-width="1">
    <line x1="153" y1="177" x2="139" y2="162"/>
    <circle cx="153" cy="177" r="2"/>
    <circle cx="139" cy="162" r="2"/>
  </g>
  <g stroke="chocolate" stroke-width="1">
    <line x1="359" y1="114" x2="221" y2="75"/>
    <circle cx="359" cy="114" r="2"/>
    <circle cx="221" cy="75" r="2"/>
  </g>
  <g stroke="chocolate" stroke-width="1">
    <line x1="371" y1="139" x2="215" y2="81"/>
    <circle cx="371" cy="139" r="2"/>
    <circle cx="215" cy="81" r="2"/>
  </g>
  <g stroke="black" stroke-width="1">
    <line x1="5" y1="5" x2="505" y2="5"/>
    <line x1="5" y1="5" x2="5" y2="505"/>
    <line x1="505" y1="505" x2="5" y2="505"/>
    <line x1="505" y1="505" x2="505" y2="5"/>
    <line x1="105" y1="2" x2="105" y2="8"/>
    <line x1="2" y1="105" x2="8" y2="105"/>
    <line x1="105" y1="502" x2="105" y2="508"/>
    <line x1="502" y1="105" x2="508" y2="105"/>
    <line x1="205" y1="2" x2="205" y2="8"/>
    <line x1="2" y1="205" x2="8" y2="205"/>
    <line x1="205" y1="502" x2="205" y2="508"/>
    <line x1="502" y1="205" x2="508" y2="205"/>
    <line x1="305" y1="2" x2="305" y2="8"/>
    <line x1="2" y1="305" x2="8" y2="305"/>
    <line x1="305" y1="502" x2="305" y2="508"/>
    <line x1="502" y1="305" x2="508" y2="305"/>
    <line x1="405" y1="2" x2="405" y2="8"/>
    <line x1="2" y1="405" x2="8" y2="405"/>
    <line x1="405" y1="502" x2="405" y2="508"/>
    <line x1="502" y1="405" x2="508" y2="405"/>
  </g>
  <g stroke="gray" stroke-width="1" stroke-dasharray="5,5">
    <line x1="105" y1="5" x2="105" y2="505"/>
    <line x1="5" y1="105" x2="505" y2="105"/>
    <line x1="205" y1="5" x2="205" y2="505"/>
    <line x1="5" y1="205" x2="505" y2="205"/>
    <line x1="305" y1="5" x2="305" y2="505"/>
    <line x1="5" y1="305" x2="505" y2="305"/>
    <line x1="405" y1="5" x2="405" y2="505"/>
    <line x1="5" y1="405" x2="505" y2="405"/>
  </g>
</svg>
