<?xml version="1.0" standalone="no"?>
<!DOCTYPE svg PUBLIC "-//W3C//DTD SVG 1.1//EN" 
  "http://www.w3.org/Graphics/SVG/1.1/DTD/svg11.dtd">
<svg width="534" height="534" version="1.1" id="toplevel"
    xmlns="http://www.w3.org/2000/svg"
    xmlns:xlink="http://www.w3.org/1999/xlink">
  <polygon points="216,529 393,257 380,229 395,177 310,5 286,17 199,257 182,257 182,306 167,347 139,347 144,528"
           fill="bisque"/>
  <g stroke="chocolate" stroke-width="1">
    <line x1="359" y1="309" x2="395" y2="177"/>
    <circle cx="359" cy="309" r="2"/>
    <circle cx="395" cy="177" r="2"/>
  </g>
  <g stroke="chocolate" stroke-width="1">
    <line x1="144" y1="528" x2="139" y2="347"/>
    <circle cx="144" cy="528" r="2"/>
    <circle cx="139" cy="347" r="2"/>
  </g>
  <g stroke="chocolate" stroke-width="1">
    <line x1="182" y1="529" x2="182" y2="257"/>
    <circle cx="182" cy="529" r="2"/>
    <circle cx="182" cy="257" r="2"/>
  </g>
  <g stroke="chocolate" stroke-width="1">
    <line x1="182" y1="529" x2="185" y2="346"/>
    <circle cx="182" cy="529" r="2"/>
    <circle cx="185" cy="346" r="2"/>
  </g>
  <g stroke="chocolate" stroke-width="1">
    <line x1="144" y1="528" x2="146" y2="481"/>
    <circle cx="144" cy="528" r="2"/>
    <circle cx="146" cy="481" r="2"/>
  </g>
  <g stroke="chocolate" stroke-width="1">
    <line x1="189" y1="366" x2="176" y2="322"/>
    <circle cx="189" cy="366" r="2"/>
    <circle cx="176" cy="322" r="2"/>
  </g>
  <g stroke="chocolate" stroke-width="1">
    <line x1="216" y1="529" x2="152" y2="388"/>
    <circle cx="216" cy="529" r="2"/>
    <circle cx="152" cy="388" r="2"/>
  </g>
  <g stroke="chocolate" stroke-width="1">
    <line x1="216" y1="529" x2="393" y2="257"/>
    <circle cx="216" cy="529" r="2"/>
    <circle cx="393" cy="257" r="2"/>
  </g>
  <g stroke="chocolate" stroke-width="1">
    <line x1="152" y1="388" x2="286" y2="17"/>
    <circle cx="152" cy="388" r="2"/>
    <circle cx="286" cy="17" r="2"/>
  </g>
  <g stroke="chocolate" stroke-width="1">
    <line x1="237" y1="497" x2="156" y2="376"/>
    <circle cx="237" cy="497" r="2"/>
    <circle cx="156" cy="376" r="2"/>
  </g>
  <g stroke="chocolate" stroke-width="1">
    <line x1="393" y1="257" x2="286" y2="17"/>
    <circle cx="393" cy="257" r="2"/>
    <circle cx="286" cy="17" r="2"/>
  </g>
  <g stroke="chocolate" stroke-width="1">
    <line x1="146" y1="481" x2="359" y2="309"/>
    <circle cx="146" cy="481" r="2"/>
    <circle cx="359" cy="309" r="2"/>
  </g>
  <g stroke="chocolate" stroke-width="1">
    <line x1="395" y1="177" x2="310" y2="5"/>
    <circle cx="395" cy="177" r="2"/>
    <circle cx="310" cy="5" r="2"/>
  </g>
  <g stroke="chocolate" stroke-width="1">
    <line x1="276" y1="437" x2="185" y2="346"/>
    <circle cx="276" cy="437" r="2"/>
    <circle cx="185" cy="346" r="2"/>
  </g>
  <g stroke="chocolate" stroke-width="1">
    <line x1="216" y1="529" x2="144" y2="528"/>
    <circle cx="216" cy="529" r="2"/>
    <circle cx="144" cy="528" r="2"/>
  </g>
  <g stroke="chocolate" stroke-width="1">
    <line x1="237" y1="497" x2="146" y2="481"/>
    <circle cx="237" cy="497" r="2"/>
    <circle cx="146" cy="481" r="2"/>
  </g>
  <g stroke="chocolate" stroke-width="1">
    <line x1="176" y1="322" x2="395" y2="177"/>
    <circle cx="176" cy="322" r="2"/>
    <circle cx="395" cy="177" r="2"/>
  </g>
  <g stroke="chocolate" stroke-width="1">
    <line x1="276" y1="437" x2="152" y2="388"/>
    <circle cx="276" cy="437" r="2"/>
    <circle cx="152" cy="388" r="2"/>
  </g>
  <g stroke="chocolate" stroke-width="1">
    <line x1="156" y1="376" x2="189" y2="366"/>
    <circle cx="156" cy="376" r="2"/>
    <circle cx="189" cy="366" r="2"/>
  </g>
  <g stroke="chocolate" stroke-width="1">
    <line x1="139" y1="347" x2="185" y2="346"/>
    <circle cx="139" cy="347" r="2"/>
    <circle cx="185" cy="346" r="2"/>
  </g>
  <g stroke="chocolate" stroke-width="1">
    <line x1="182" y1="257" x2="393" y2="257"/>
    <circle cx="182" cy="257" r="2"/>
    <circle cx="393" cy="257" r="2"/>
  </g>
  <g stroke="chocolate" stroke-width="1">
    <line x1="286" y1="17" x2="310" y2="5"/>
    <circle cx="286" cy="17" r="2"/>
    <circle cx="310" cy="5" r="2"/>
  </g>
  <g stroke="black" stroke-width="1">
    <line x1="17" y1="17" x2="517" y2="17"/>
    <line x1="17" y1="17" x2="17" y2="517"/>
    <line x1="517" y1="517" x2="17" y2="517"/>
    <line x1="517" y1="517" x2="517" y2="17"/>
    <line x1="117" y1="14" x2="117" y2="20"/>
    <line x1="14" y1="117" x2="20" y2="117"/>
    <line x1="117" y1="514" x2="117" y2="520"/>
    <line x1="514" y1="117" x2="520" y2="117"/>
    <line x1="217" y1="14" x2="217" y2="20"/>
    <line x1="14" y1="217" x2="20" y2="217"/>
    <line x1="217" y1="514" x2="217" y2="520"/>
    <line x1="514" y1="217" x2="520" y2="217"/>
    <line x1="317" y1="14" x2="317" y2="20"/>
    <line x1="14" y1="317" x2="20" y2="317"/>
    <line x1="317" y1="514" x2="317" y2="520"/>
    <line x1="514" y1="317" x2="520" y2="317"/>
    <line x1="417" y1="14" x2="417" y2="20"/>
    <line x1="14" y1="417" x2="20" y2="417"/>
    <line x1="417" y1="514" x2="417" y2="520"/>
    <line x1="514" y1="417" x2="520" y2="417"/>
  </g>
  <g stroke="gray" stroke-width="1" stroke-dasharray="5,5">
    <line x1="117" y1="17" x2="117" y2="517"/>
    <line x1="17" y1="117" x2="517" y2="117"/>
    <line x1="217" y1="17" x2="217" y2="517"/>
    <line x1="17" y1="217" x2="517" y2="217"/>
    <line x1="317" y1="17" x2="317" y2="517"/>
    <line x1="17" y1="317" x2="517" y2="317"/>
    <line x1="417" y1="17" x2="417" y2="517"/>
    <line x1="17" y1="417" x2="517" y2="417"/>
  </g>
</svg>
