<?xml version="1.0" standalone="no"?>
<!DOCTYPE svg PUBLIC "-//W3C//DTD SVG 1.1//EN" 
  "http://www.w3.org/Graphics/SVG/1.1/DTD/svg11.dtd">
<svg width="510" height="510" version="1.1" id="toplevel"
    xmlns="http://www.w3.org/2000/svg"
    xmlns:xlink="http://www.w3.org/1999/xlink">
  <polygon points="169,364 386,358 415,306 502,301 492,146 230,147 213,207 132,258"
           fill="bisque"/>
  <g stroke="chocolate" stroke-width="1">
    <line x1="386" y1="358" x2="433" y2="273"/>
    <circle cx="386" cy="358" r="2"/>
    <circle cx="433" cy="273" r="2"/>
  </g>
  <g stroke="chocolate" stroke-width="1">
    <line x1="491" y1="183" x2="492" y2="146"/>
    <circle cx="491" cy="183" r="2"/>
    <circle cx="492" cy="146" r="2"/>
  </g>
  <g stroke="chocolate" stroke-width="1">
    <line x1="202" y1="363" x2="207" y2="250"/>
    <circle cx="202" cy="363" r="2"/>
    <circle cx="207" cy="250" r="2"/>
  </g>
  <g stroke="chocolate" stroke-width="1">
    <line x1="169" y1="364" x2="230" y2="147"/>
    <circle cx="169" cy="364" r="2"/>
    <circle cx="230" cy="147" r="2"/>
  </g>
  <g stroke="chocolate" stroke-width="1">
    <line x1="373" y1="358" x2="433" y2="273"/>
    <circle cx="373" cy="358" r="2"/>
    <circle cx="433" cy="273" r="2"/>
  </g>
  <g stroke="chocolate" stroke-width="1">
    <line x1="202" y1="363" x2="193" y2="280"/>
    <circle cx="202" cy="363" r="2"/>
    <circle cx="193" cy="280" r="2"/>
  </g>
  <g stroke="chocolate" stroke-width="1">
    <line x1="502" y1="301" x2="492" y2="146"/>
    <circle cx="502" cy="301" r="2"/>
    <circle cx="492" cy="146" r="2"/>
  </g>
  <g stroke="chocolate" stroke-width="1">
    <line x1="324" y1="360" x2="491" y2="183"/>
    <circle cx="324" cy="360" r="2"/>
    <circle cx="491" cy="183" r="2"/>
  </g>
  <g stroke="chocolate" stroke-width="1">
    <line x1="169" y1="364" x2="132" y2="258"/>
    <circle cx="169" cy="364" r="2"/>
    <circle cx="132" cy="258" r="2"/>
  </g>
  <g stroke="chocolate" stroke-width="1">
    <line x1="193" y1="280" x2="232" y2="229"/>
    <circle cx="193" cy="280" r="2"/>
    <circle cx="232" cy="229" r="2"/>
  </g>
  <g stroke="chocolate" stroke-width="1">
    <line x1="241" y1="362" x2="323" y2="296"/>
    <circle cx="241" cy="362" r="2"/>
    <circle cx="323" cy="296" r="2"/>
  </g>
  <g stroke="chocolate" stroke-width="1">
    <line x1="386" y1="358" x2="269" y2="172"/>
    <circle cx="386" cy="358" r="2"/>
    <circle cx="269" cy="172" r="2"/>
  </g>
  <g stroke="chocolate" stroke-width="1">
    <line x1="373" y1="358" x2="323" y2="296"/>
    <circle cx="373" cy="358" r="2"/>
    <circle cx="323" cy="296" r="2"/>
  </g>
  <g stroke="chocolate" stroke-width="1">
    <line x1="132" y1="258" x2="269" y2="172"/>
    <circle cx="132" cy="258" r="2"/>
    <circle cx="269" cy="172" r="2"/>
  </g>
  <g stroke="chocolate" stroke-width="1">
    <line x1="324" y1="360" x2="207" y2="250"/>
    <circle cx="324" cy="360" r="2"/>
    <circle cx="207" cy="250" r="2"/>
  </g>
  <g stroke="chocolate" stroke-width="1">
    <line x1="241" y1="362" x2="181" y2="320"/>
    <circle cx="241" cy="362" r="2"/>
    <circle cx="181" cy="320" r="2"/>
  </g>
  <g stroke="chocolate" stroke-width="1">
    <line x1="232" y1="229" x2="212" y2="213"/>
    <circle cx="232" cy="229" r="2"/>
    <circle cx="212" cy="213" r="2"/>
  </g>
  <g stroke="chocolate" stroke-width="1">
    <line x1="169" y1="364" x2="386" y2="358"/>
    <circle cx="169" cy="364" r="2"/>
    <circle cx="386" cy="358" r="2"/>
  </g>
  <g stroke="chocolate" stroke-width="1">
    <line x1="181" y1="320" x2="502" y2="301"/>
    <circle cx="181" cy="320" r="2"/>
    <circle cx="502" cy="301" r="2"/>
  </g>
  <g stroke="chocolate" stroke-width="1">
    <line x1="132" y1="258" x2="207" y2="250"/>
    <circle cx="132" cy="258" r="2"/>
    <circle cx="207" cy="250" r="2"/>
  </g>
  <g stroke="chocolate" stroke-width="1">
    <line x1="433" y1="273" x2="230" y2="147"/>
    <circle cx="433" cy="273" r="2"/>
    <circle cx="230" cy="147" r="2"/>
  </g>
  <g stroke="chocolate" stroke-width="1">
    <line x1="212" y1="213" x2="491" y2="183"/>
    <circle cx="212" cy="213" r="2"/>
    <circle cx="491" cy="183" r="2"/>
  </g>
  <g stroke="chocolate" stroke-width="1">
    <line x1="230" y1="147" x2="492" y2="146"/>
    <circle cx="230" cy="147" r="2"/>
    <circle cx="492" cy="146" r="2"/>
  </g>
  <g stroke="black" stroke-width="1">
    <line x1="5" y1="5" x2="505" y2="5"/>
    <line x1="5" y1="5" x2="5" y2="505"/>
    <line x1="505" y1="505" x2="5" y2="505"/>
    <line x1="505" y1="505" x2="505" y2="5"/>
    <line x1="105" y1="2" x2="105" y2="8"/>
    <line x1="2" y1="105" x2="8" y2="105"/>
    <line x1="105" y1="502" x2="105" y2="508"/>
    <line x1="502" y1="105" x2="508" y2="105"/>
    <line x1="205" y1="2" x2="205" y2="8"/>
    <line x1="2" y1="205" x2="8" y2="205"/>
    <line x1="205" y1="502" x2="205" y2="508"/>
    <line x1="502" y1="205" x2="508" y2="205"/>
    <line x1="305" y1="2" x2="305" y2="8"/>
    <line x1="2" y1="305" x2="8" y2="305"/>
    <line x1="305" y1="502" x2="305" y2="508"/>
    <line x1="502" y1="305" x2="508" y2="305"/>
    <line x1="405" y1="2" x2="405" y2="8"/>
    <line x1="2" y1="405" x2="8" y2="405"/>
    <line x1="405" y1="502" x2="405" y2="508"/>
    <line x1="502" y1="405" x2="508" y2="405"/>
  </g>
  <g stroke="gray" stroke-width="1" stroke-dasharray="5,5">
    <line x1="105" y1="5" x2="105" y2="505"/>
    <line x1="5" y1="105" x2="505" y2="105"/>
    <line x1="205" y1="5" x2="205" y2="505"/>
    <line x1="5" y1="205" x2="505" y2="205"/>
    <line x1="305" y1="5" x2="305" y2="505"/>
    <line x1="5" y1="305" x2="505" y2="305"/>
    <line x1="405" y1="5" x2="405" y2="505"/>
    <line x1="5" y1="405" x2="505" y2="405"/>
  </g>
</svg>
