<?xml version="1.0" standalone="no"?>
<!DOCTYPE svg PUBLIC "-//W3C//DTD SVG 1.1//EN" 
  "http://www.w3.org/Graphics/SVG/1.1/DTD/svg11.dtd">
<svg width="510" height="510" version="1.1" id="toplevel"
    xmlns="http://www.w3.org/2000/svg"
    xmlns:xlink="http://www.w3.org/1999/xlink">
  <polygon points="138,388 255,310 260,356 406,338 392,214 233,122 159,153 104,336"
           fill="bisque"/>
  <polygon points="253,296 241,278 251,274" fill="bisque"/>
  <g stroke="chocolate" stroke-width="1">
    <line x1="138" y1="388" x2="104" y2="336"/>
    <circle cx="138" cy="388" r="2"/>
    <circle cx="104" cy="336" r="2"/>
  </g>
  <g stroke="chocolate" stroke-width="1">
    <line x1="162" y1="372" x2="115" y2="300"/>
    <circle cx="162" cy="372" r="2"/>
    <circle cx="115" cy="300" r="2"/>
  </g>
  <g stroke="chocolate" stroke-width="1">
    <line x1="260" y1="307" x2="159" y2="153"/>
    <circle cx="260" cy="307" r="2"/>
    <circle cx="159" cy="153" r="2"/>
  </g>
  <g stroke="chocolate" stroke-width="1">
    <line x1="260" y1="356" x2="233" y2="122"/>
    <circle cx="260" cy="356" r="2"/>
    <circle cx="233" cy="122" r="2"/>
  </g>
  <g stroke="chocolate" stroke-width="1">
    <line x1="377" y1="342" x2="360" y2="196"/>
    <circle cx="377" cy="342" r="2"/>
    <circle cx="360" cy="196" r="2"/>
  </g>
  <g stroke="chocolate" stroke-width="1">
    <line x1="406" y1="338" x2="392" y2="214"/>
    <circle cx="406" cy="338" r="2"/>
    <circle cx="392" cy="214" r="2"/>
  </g>
  <g stroke="chocolate" stroke-width="1">
    <line x1="406" y1="338" x2="392" y2="214"/>
    <circle cx="406" cy="338" r="2"/>
    <circle cx="392" cy="214" r="2"/>
  </g>
  <g stroke="chocolate" stroke-width="1">
    <line x1="406" y1="338" x2="406" y2="338"/>
    <circle cx="406" cy="338" r="2"/>
    <circle cx="406" cy="338" r="2"/>
  </g>
  <g stroke="chocolate" stroke-width="1">
    <line x1="260" y1="356" x2="406" y2="338"/>
    <circle cx="260" cy="356" r="2"/>
    <circle cx="406" cy="338" r="2"/>
  </g>
  <g stroke="chocolate" stroke-width="1">
    <line x1="104" y1="336" x2="159" y2="153"/>
    <circle cx="104" cy="336" r="2"/>
    <circle cx="159" cy="153" r="2"/>
  </g>
  <g stroke="chocolate" stroke-width="1">
    <line x1="392" y1="214" x2="233" y2="122"/>
    <circle cx="392" cy="214" r="2"/>
    <circle cx="233" cy="122" r="2"/>
  </g>
  <g stroke="chocolate" stroke-width="1">
    <line x1="138" y1="388" x2="260" y2="307"/>
    <circle cx="138" cy="388" r="2"/>
    <circle cx="260" cy="307" r="2"/>
  </g>
  <g stroke="chocolate" stroke-width="1">
    <line x1="104" y1="336" x2="392" y2="214"/>
    <circle cx="104" cy="336" r="2"/>
    <circle cx="392" cy="214" r="2"/>
  </g>
  <g stroke="chocolate" stroke-width="1">
    <line x1="115" y1="300" x2="360" y2="196"/>
    <circle cx="115" cy="300" r="2"/>
    <circle cx="360" cy="196" r="2"/>
  </g>
  <g stroke="chocolate" stroke-width="1">
    <line x1="159" y1="153" x2="233" y2="122"/>
    <circle cx="159" cy="153" r="2"/>
    <circle cx="233" cy="122" r="2"/>
  </g>
  <g stroke="black" stroke-width="1">
    <line x1="5" y1="5" x2="505" y2="5"/>
    <line x1="5" y1="5" x2="5" y2="505"/>
    <line x1="505" y1="505" x2="5" y2="505"/>
    <line x1="505" y1="505" x2="505" y2="5"/>
    <line x1="105" y1="2" x2="105" y2="8"/>
    <line x1="2" y1="105" x2="8" y2="105"/>
    <line x1="105" y1="502" x2="105" y2="508"/>
    <line x1="502" y1="105" x2="508" y2="105"/>
    <line x1="205" y1="2" x2="205" y2="8"/>
    <line x1="2" y1="205" x2="8" y2="205"/>
    <line x1="205" y1="502" x2="205" y2="508"/>
    <line x1="502" y1="205" x2="508" y2="205"/>
    <line x1="305" y1="2" x2="305" y2="8"/>
    <line x1="2" y1="305" x2="8" y2="305"/>
    <line x1="305" y1="502" x2="305" y2="508"/>
    <line x1="502" y1="305" x2="508" y2="305"/>
    <line x1="405" y1="2" x2="405" y2="8"/>
    <line x1="2" y1="405" x2="8" y2="405"/>
    <line x1="405" y1="502" x2="405" y2="508"/>
    <line x1="502" y1="405" x2="508" y2="405"/>
  </g>
  <g stroke="gray" stroke-width="1" stroke-dasharray="5,5">
    <line x1="105" y1="5" x2="105" y2="505"/>
    <line x1="5" y1="105" x2="505" y2="105"/>
    <line x1="205" y1="5" x2="205" y2="505"/>
    <line x1="5" y1="205" x2="505" y2="205"/>
    <line x1="305" y1="5" x2="305" y2="505"/>
    <line x1="5" y1="305" x2="505" y2="305"/>
    <line x1="405" y1="5" x2="405" y2="505"/>
    <line x1="5" y1="405" x2="505" y2="405"/>
  </g>
</svg>
