<?xml version="1.0" standalone="no"?>
<!DOCTYPE svg PUBLIC "-//W3C//DTD SVG 1.1//EN" 
  "http://www.w3.org/Graphics/SVG/1.1/DTD/svg11.dtd">
<svg width="510" height="510" version="1.1" id="toplevel"
    xmlns="http://www.w3.org/2000/svg"
    xmlns:xlink="http://www.w3.org/1999/xlink">
  <polygon points="228,383 308,372 410,210 391,151 257,195 264,150 119,127 100,251"
           fill="bisque"/>
  <polygon points="252,231 255,209 262,230" fill="bisque"/>
  <g stroke="chocolate" stroke-width="1">
    <line x1="228" y1="383" x2="308" y2="372"/>
    <circle cx="228" cy="383" r="2"/>
    <circle cx="308" cy="372" r="2"/>
  </g>
  <g stroke="chocolate" stroke-width="1">
    <line x1="308" y1="372" x2="410" y2="210"/>
    <circle cx="308" cy="372" r="2"/>
    <circle cx="410" cy="210" r="2"/>
  </g>
  <g stroke="chocolate" stroke-width="1">
    <line x1="126" y1="277" x2="390" y2="243"/>
    <circle cx="126" cy="277" r="2"/>
    <circle cx="390" cy="243" r="2"/>
  </g>
  <g stroke="chocolate" stroke-width="1">
    <line x1="100" y1="251" x2="410" y2="210"/>
    <circle cx="100" cy="251" r="2"/>
    <circle cx="410" cy="210" r="2"/>
  </g>
  <g stroke="chocolate" stroke-width="1">
    <line x1="251" y1="197" x2="391" y2="151"/>
    <circle cx="251" cy="197" r="2"/>
    <circle cx="391" cy="151" r="2"/>
  </g>
  <g stroke="chocolate" stroke-width="1">
    <line x1="228" y1="383" x2="100" y2="251"/>
    <circle cx="228" cy="383" r="2"/>
    <circle cx="100" cy="251" r="2"/>
  </g>
  <g stroke="chocolate" stroke-width="1">
    <line x1="228" y1="383" x2="264" y2="150"/>
    <circle cx="228" cy="383" r="2"/>
    <circle cx="264" cy="150" r="2"/>
  </g>
  <g stroke="chocolate" stroke-width="1">
    <line x1="126" y1="277" x2="148" y2="132"/>
    <circle cx="126" cy="277" r="2"/>
    <circle cx="148" cy="132" r="2"/>
  </g>
  <g stroke="chocolate" stroke-width="1">
    <line x1="100" y1="251" x2="119" y2="127"/>
    <circle cx="100" cy="251" r="2"/>
    <circle cx="119" cy="127" r="2"/>
  </g>
  <g stroke="chocolate" stroke-width="1">
    <line x1="100" y1="251" x2="119" y2="127"/>
    <circle cx="100" cy="251" r="2"/>
    <circle cx="119" cy="127" r="2"/>
  </g>
  <g stroke="chocolate" stroke-width="1">
    <line x1="264" y1="150" x2="119" y2="127"/>
    <circle cx="264" cy="150" r="2"/>
    <circle cx="119" cy="127" r="2"/>
  </g>
  <g stroke="chocolate" stroke-width="1">
    <line x1="119" y1="127" x2="119" y2="127"/>
    <circle cx="119" cy="127" r="2"/>
    <circle cx="119" cy="127" r="2"/>
  </g>
  <g stroke="chocolate" stroke-width="1">
    <line x1="308" y1="372" x2="251" y2="197"/>
    <circle cx="308" cy="372" r="2"/>
    <circle cx="251" cy="197" r="2"/>
  </g>
  <g stroke="chocolate" stroke-width="1">
    <line x1="390" y1="243" x2="363" y2="161"/>
    <circle cx="390" cy="243" r="2"/>
    <circle cx="363" cy="161" r="2"/>
  </g>
  <g stroke="chocolate" stroke-width="1">
    <line x1="410" y1="210" x2="391" y2="151"/>
    <circle cx="410" cy="210" r="2"/>
    <circle cx="391" cy="151" r="2"/>
  </g>
  <g stroke="black" stroke-width="1">
    <line x1="5" y1="5" x2="505" y2="5"/>
    <line x1="5" y1="5" x2="5" y2="505"/>
    <line x1="505" y1="505" x2="5" y2="505"/>
    <line x1="505" y1="505" x2="505" y2="5"/>
    <line x1="105" y1="2" x2="105" y2="8"/>
    <line x1="2" y1="105" x2="8" y2="105"/>
    <line x1="105" y1="502" x2="105" y2="508"/>
    <line x1="502" y1="105" x2="508" y2="105"/>
    <line x1="205" y1="2" x2="205" y2="8"/>
    <line x1="2" y1="205" x2="8" y2="205"/>
    <line x1="205" y1="502" x2="205" y2="508"/>
    <line x1="502" y1="205" x2="508" y2="205"/>
    <line x1="305" y1="2" x2="305" y2="8"/>
    <line x1="2" y1="305" x2="8" y2="305"/>
    <line x1="305" y1="502" x2="305" y2="508"/>
    <line x1="502" y1="305" x2="508" y2="305"/>
    <line x1="405" y1="2" x2="405" y2="8"/>
    <line x1="2" y1="405" x2="8" y2="405"/>
    <line x1="405" y1="502" x2="405" y2="508"/>
    <line x1="502" y1="405" x2="508" y2="405"/>
  </g>
  <g stroke="gray" stroke-width="1" stroke-dasharray="5,5">
    <line x1="105" y1="5" x2="105" y2="505"/>
    <line x1="5" y1="105" x2="505" y2="105"/>
    <line x1="205" y1="5" x2="205" y2="505"/>
    <line x1="5" y1="205" x2="505" y2="205"/>
    <line x1="305" y1="5" x2="305" y2="505"/>
    <line x1="5" y1="305" x2="505" y2="305"/>
    <line x1="405" y1="5" x2="405" y2="505"/>
    <line x1="5" y1="405" x2="505" y2="405"/>
  </g>
</svg>
