<?xml version="1.0" standalone="no"?>
<!DOCTYPE svg PUBLIC "-//W3C//DTD SVG 1.1//EN" 
  "http://www.w3.org/Graphics/SVG/1.1/DTD/svg11.dtd">
<svg width="510" height="510" version="1.1" id="toplevel"
    xmlns="http://www.w3.org/2000/svg"
    xmlns:xlink="http://www.w3.org/1999/xlink">
  <polygon points="212,394 280,351 304,161 262,116 159,212 146,168 5,209 40,329"
           fill="bisque"/>
  <polygon points="169,247 163,226 178,242" fill="bisque"/>
  <g stroke="chocolate" stroke-width="1">
    <line x1="212" y1="394" x2="280" y2="351"/>
    <circle cx="212" cy="394" r="2"/>
    <circle cx="280" cy="351" r="2"/>
  </g>
  <g stroke="chocolate" stroke-width="1">
    <line x1="74" y1="342" x2="299" y2="199"/>
    <circle cx="74" cy="342" r="2"/>
    <circle cx="299" cy="199" r="2"/>
  </g>
  <g stroke="chocolate" stroke-width="1">
    <line x1="40" y1="329" x2="304" y2="161"/>
    <circle cx="40" cy="329" r="2"/>
    <circle cx="304" cy="161" r="2"/>
  </g>
  <g stroke="chocolate" stroke-width="1">
    <line x1="212" y1="394" x2="40" y2="329"/>
    <circle cx="212" cy="394" r="2"/>
    <circle cx="40" cy="329" r="2"/>
  </g>
  <g stroke="chocolate" stroke-width="1">
    <line x1="154" y1="216" x2="262" y2="116"/>
    <circle cx="154" cy="216" r="2"/>
    <circle cx="262" cy="116" r="2"/>
  </g>
  <g stroke="chocolate" stroke-width="1">
    <line x1="280" y1="351" x2="304" y2="161"/>
    <circle cx="280" cy="351" r="2"/>
    <circle cx="304" cy="161" r="2"/>
  </g>
  <g stroke="chocolate" stroke-width="1">
    <line x1="5" y1="209" x2="146" y2="168"/>
    <circle cx="5" cy="209" r="2"/>
    <circle cx="146" cy="168" r="2"/>
  </g>
  <g stroke="chocolate" stroke-width="1">
    <line x1="5" y1="209" x2="5" y2="209"/>
    <circle cx="5" cy="209" r="2"/>
    <circle cx="5" cy="209" r="2"/>
  </g>
  <g stroke="chocolate" stroke-width="1">
    <line x1="40" y1="329" x2="5" y2="209"/>
    <circle cx="40" cy="329" r="2"/>
    <circle cx="5" cy="209" r="2"/>
  </g>
  <g stroke="chocolate" stroke-width="1">
    <line x1="40" y1="329" x2="5" y2="209"/>
    <circle cx="40" cy="329" r="2"/>
    <circle cx="5" cy="209" r="2"/>
  </g>
  <g stroke="chocolate" stroke-width="1">
    <line x1="74" y1="342" x2="33" y2="201"/>
    <circle cx="74" cy="342" r="2"/>
    <circle cx="33" cy="201" r="2"/>
  </g>
  <g stroke="chocolate" stroke-width="1">
    <line x1="212" y1="394" x2="146" y2="168"/>
    <circle cx="212" cy="394" r="2"/>
    <circle cx="146" cy="168" r="2"/>
  </g>
  <g stroke="chocolate" stroke-width="1">
    <line x1="280" y1="351" x2="154" y2="216"/>
    <circle cx="280" cy="351" r="2"/>
    <circle cx="154" cy="216" r="2"/>
  </g>
  <g stroke="chocolate" stroke-width="1">
    <line x1="299" y1="199" x2="240" y2="136"/>
    <circle cx="299" cy="199" r="2"/>
    <circle cx="240" cy="136" r="2"/>
  </g>
  <g stroke="chocolate" stroke-width="1">
    <line x1="304" y1="161" x2="262" y2="116"/>
    <circle cx="304" cy="161" r="2"/>
    <circle cx="262" cy="116" r="2"/>
  </g>
  <g stroke="black" stroke-width="1">
    <line x1="5" y1="5" x2="505" y2="5"/>
    <line x1="5" y1="5" x2="5" y2="505"/>
    <line x1="505" y1="505" x2="5" y2="505"/>
    <line x1="505" y1="505" x2="505" y2="5"/>
    <line x1="105" y1="2" x2="105" y2="8"/>
    <line x1="2" y1="105" x2="8" y2="105"/>
    <line x1="105" y1="502" x2="105" y2="508"/>
    <line x1="502" y1="105" x2="508" y2="105"/>
    <line x1="205" y1="2" x2="205" y2="8"/>
    <line x1="2" y1="205" x2="8" y2="205"/>
    <line x1="205" y1="502" x2="205" y2="508"/>
    <line x1="502" y1="205" x2="508" y2="205"/>
    <line x1="305" y1="2" x2="305" y2="8"/>
    <line x1="2" y1="305" x2="8" y2="305"/>
    <line x1="305" y1="502" x2="305" y2="508"/>
    <line x1="502" y1="305" x2="508" y2="305"/>
    <line x1="405" y1="2" x2="405" y2="8"/>
    <line x1="2" y1="405" x2="8" y2="405"/>
    <line x1="405" y1="502" x2="405" y2="508"/>
    <line x1="502" y1="405" x2="508" y2="405"/>
  </g>
  <g stroke="gray" stroke-width="1" stroke-dasharray="5,5">
    <line x1="105" y1="5" x2="105" y2="505"/>
    <line x1="5" y1="105" x2="505" y2="105"/>
    <line x1="205" y1="5" x2="205" y2="505"/>
    <line x1="5" y1="205" x2="505" y2="205"/>
    <line x1="305" y1="5" x2="305" y2="505"/>
    <line x1="5" y1="305" x2="505" y2="305"/>
    <line x1="405" y1="5" x2="405" y2="505"/>
    <line x1="5" y1="405" x2="505" y2="405"/>
  </g>
</svg>
