<?xml version="1.0" standalone="no"?>
<!DOCTYPE svg PUBLIC "-//W3C//DTD SVG 1.1//EN" 
  "http://www.w3.org/Graphics/SVG/1.1/DTD/svg11.dtd">
<svg width="510" height="510" version="1.1" id="toplevel"
    xmlns="http://www.w3.org/2000/svg"
    xmlns:xlink="http://www.w3.org/1999/xlink">
  <polygon points="172,396 253,281 274,321 404,252 345,142 164,114 106,170 121,361"
           fill="bisque"/>
  <polygon points="246,268 228,256 236,249" fill="bisque"/>
  <g stroke="chocolate" stroke-width="1">
    <line x1="172" y1="396" x2="121" y2="361"/>
    <circle cx="172" cy="396" r="2"/>
    <circle cx="121" cy="361" r="2"/>
  </g>
  <g stroke="chocolate" stroke-width="1">
    <line x1="189" y1="372" x2="118" y2="323"/>
    <circle cx="189" cy="372" r="2"/>
    <circle cx="118" cy="323" r="2"/>
  </g>
  <g stroke="chocolate" stroke-width="1">
    <line x1="257" y1="276" x2="106" y2="170"/>
    <circle cx="257" cy="276" r="2"/>
    <circle cx="106" cy="170" r="2"/>
  </g>
  <g stroke="chocolate" stroke-width="1">
    <line x1="274" y1="321" x2="164" y2="114"/>
    <circle cx="274" cy="321" r="2"/>
    <circle cx="164" cy="114" r="2"/>
  </g>
  <g stroke="chocolate" stroke-width="1">
    <line x1="121" y1="361" x2="106" y2="170"/>
    <circle cx="121" cy="361" r="2"/>
    <circle cx="106" cy="170" r="2"/>
  </g>
  <g stroke="chocolate" stroke-width="1">
    <line x1="378" y1="266" x2="309" y2="136"/>
    <circle cx="378" cy="266" r="2"/>
    <circle cx="309" cy="136" r="2"/>
  </g>
  <g stroke="chocolate" stroke-width="1">
    <line x1="404" y1="252" x2="345" y2="142"/>
    <circle cx="404" cy="252" r="2"/>
    <circle cx="345" cy="142" r="2"/>
  </g>
  <g stroke="chocolate" stroke-width="1">
    <line x1="404" y1="252" x2="345" y2="142"/>
    <circle cx="404" cy="252" r="2"/>
    <circle cx="345" cy="142" r="2"/>
  </g>
  <g stroke="chocolate" stroke-width="1">
    <line x1="404" y1="252" x2="404" y2="252"/>
    <circle cx="404" cy="252" r="2"/>
    <circle cx="404" cy="252" r="2"/>
  </g>
  <g stroke="chocolate" stroke-width="1">
    <line x1="274" y1="321" x2="404" y2="252"/>
    <circle cx="274" cy="321" r="2"/>
    <circle cx="404" cy="252" r="2"/>
  </g>
  <g stroke="chocolate" stroke-width="1">
    <line x1="172" y1="396" x2="257" y2="276"/>
    <circle cx="172" cy="396" r="2"/>
    <circle cx="257" cy="276" r="2"/>
  </g>
  <g stroke="chocolate" stroke-width="1">
    <line x1="121" y1="361" x2="345" y2="142"/>
    <circle cx="121" cy="361" r="2"/>
    <circle cx="345" cy="142" r="2"/>
  </g>
  <g stroke="chocolate" stroke-width="1">
    <line x1="345" y1="142" x2="164" y2="114"/>
    <circle cx="345" cy="142" r="2"/>
    <circle cx="164" cy="114" r="2"/>
  </g>
  <g stroke="chocolate" stroke-width="1">
    <line x1="118" y1="323" x2="309" y2="136"/>
    <circle cx="118" cy="323" r="2"/>
    <circle cx="309" cy="136" r="2"/>
  </g>
  <g stroke="chocolate" stroke-width="1">
    <line x1="106" y1="170" x2="164" y2="114"/>
    <circle cx="106" cy="170" r="2"/>
    <circle cx="164" cy="114" r="2"/>
  </g>
  <g stroke="black" stroke-width="1">
    <line x1="5" y1="5" x2="505" y2="5"/>
    <line x1="5" y1="5" x2="5" y2="505"/>
    <line x1="505" y1="505" x2="5" y2="505"/>
    <line x1="505" y1="505" x2="505" y2="5"/>
    <line x1="105" y1="2" x2="105" y2="8"/>
    <line x1="2" y1="105" x2="8" y2="105"/>
    <line x1="105" y1="502" x2="105" y2="508"/>
    <line x1="502" y1="105" x2="508" y2="105"/>
    <line x1="205" y1="2" x2="205" y2="8"/>
    <line x1="2" y1="205" x2="8" y2="205"/>
    <line x1="205" y1="502" x2="205" y2="508"/>
    <line x1="502" y1="205" x2="508" y2="205"/>
    <line x1="305" y1="2" x2="305" y2="8"/>
    <line x1="2" y1="305" x2="8" y2="305"/>
    <line x1="305" y1="502" x2="305" y2="508"/>
    <line x1="502" y1="305" x2="508" y2="305"/>
    <line x1="405" y1="2" x2="405" y2="8"/>
    <line x1="2" y1="405" x2="8" y2="405"/>
    <line x1="405" y1="502" x2="405" y2="508"/>
    <line x1="502" y1="405" x2="508" y2="405"/>
  </g>
  <g stroke="gray" stroke-width="1" stroke-dasharray="5,5">
    <line x1="105" y1="5" x2="105" y2="505"/>
    <line x1="5" y1="105" x2="505" y2="105"/>
    <line x1="205" y1="5" x2="205" y2="505"/>
    <line x1="5" y1="205" x2="505" y2="205"/>
    <line x1="305" y1="5" x2="305" y2="505"/>
    <line x1="5" y1="305" x2="505" y2="305"/>
    <line x1="405" y1="5" x2="405" y2="505"/>
    <line x1="5" y1="405" x2="505" y2="405"/>
  </g>
</svg>
