<?xml version="1.0" standalone="no"?>
<!DOCTYPE svg PUBLIC "-//W3C//DTD SVG 1.1//EN" 
  "http://www.w3.org/Graphics/SVG/1.1/DTD/svg11.dtd">
<svg width="510" height="510" version="1.1" id="toplevel"
    xmlns="http://www.w3.org/2000/svg"
    xmlns:xlink="http://www.w3.org/1999/xlink">
  <polygon points="99,405 279,366 313,293 231,121 171,105 136,242 102,212 5,322"
           fill="bisque"/>
  <polygon points="164,266 147,251 168,256" fill="bisque"/>
  <g stroke="chocolate" stroke-width="1">
    <line x1="279" y1="366" x2="313" y2="293"/>
    <circle cx="279" cy="366" r="2"/>
    <circle cx="313" cy="293" r="2"/>
  </g>
  <g stroke="chocolate" stroke-width="1">
    <line x1="99" y1="405" x2="279" y2="366"/>
    <circle cx="99" cy="405" r="2"/>
    <circle cx="279" cy="366" r="2"/>
  </g>
  <g stroke="chocolate" stroke-width="1">
    <line x1="135" y1="397" x2="247" y2="155"/>
    <circle cx="135" cy="397" r="2"/>
    <circle cx="247" cy="155" r="2"/>
  </g>
  <g stroke="chocolate" stroke-width="1">
    <line x1="99" y1="405" x2="231" y2="121"/>
    <circle cx="99" cy="405" r="2"/>
    <circle cx="231" cy="121" r="2"/>
  </g>
  <g stroke="chocolate" stroke-width="1">
    <line x1="134" y1="248" x2="171" y2="105"/>
    <circle cx="134" cy="248" r="2"/>
    <circle cx="171" cy="105" r="2"/>
  </g>
  <g stroke="chocolate" stroke-width="1">
    <line x1="5" y1="322" x2="102" y2="212"/>
    <circle cx="5" cy="322" r="2"/>
    <circle cx="102" cy="212" r="2"/>
  </g>
  <g stroke="chocolate" stroke-width="1">
    <line x1="5" y1="322" x2="5" y2="322"/>
    <circle cx="5" cy="322" r="2"/>
    <circle cx="5" cy="322" r="2"/>
  </g>
  <g stroke="chocolate" stroke-width="1">
    <line x1="99" y1="405" x2="5" y2="322"/>
    <circle cx="99" cy="405" r="2"/>
    <circle cx="5" cy="322" r="2"/>
  </g>
  <g stroke="chocolate" stroke-width="1">
    <line x1="99" y1="405" x2="5" y2="322"/>
    <circle cx="99" cy="405" r="2"/>
    <circle cx="5" cy="322" r="2"/>
  </g>
  <g stroke="chocolate" stroke-width="1">
    <line x1="135" y1="397" x2="24" y2="300"/>
    <circle cx="135" cy="397" r="2"/>
    <circle cx="24" cy="300" r="2"/>
  </g>
  <g stroke="chocolate" stroke-width="1">
    <line x1="313" y1="293" x2="134" y2="248"/>
    <circle cx="313" cy="293" r="2"/>
    <circle cx="134" cy="248" r="2"/>
  </g>
  <g stroke="chocolate" stroke-width="1">
    <line x1="279" y1="366" x2="102" y2="212"/>
    <circle cx="279" cy="366" r="2"/>
    <circle cx="102" cy="212" r="2"/>
  </g>
  <g stroke="chocolate" stroke-width="1">
    <line x1="313" y1="293" x2="231" y2="121"/>
    <circle cx="313" cy="293" r="2"/>
    <circle cx="231" cy="121" r="2"/>
  </g>
  <g stroke="chocolate" stroke-width="1">
    <line x1="247" y1="155" x2="163" y2="134"/>
    <circle cx="247" cy="155" r="2"/>
    <circle cx="163" cy="134" r="2"/>
  </g>
  <g stroke="chocolate" stroke-width="1">
    <line x1="231" y1="121" x2="171" y2="105"/>
    <circle cx="231" cy="121" r="2"/>
    <circle cx="171" cy="105" r="2"/>
  </g>
  <g stroke="black" stroke-width="1">
    <line x1="5" y1="5" x2="505" y2="5"/>
    <line x1="5" y1="5" x2="5" y2="505"/>
    <line x1="505" y1="505" x2="5" y2="505"/>
    <line x1="505" y1="505" x2="505" y2="5"/>
    <line x1="105" y1="2" x2="105" y2="8"/>
    <line x1="2" y1="105" x2="8" y2="105"/>
    <line x1="105" y1="502" x2="105" y2="508"/>
    <line x1="502" y1="105" x2="508" y2="105"/>
    <line x1="205" y1="2" x2="205" y2="8"/>
    <line x1="2" y1="205" x2="8" y2="205"/>
    <line x1="205" y1="502" x2="205" y2="508"/>
    <line x1="502" y1="205" x2="508" y2="205"/>
    <line x1="305" y1="2" x2="305" y2="8"/>
    <line x1="2" y1="305" x2="8" y2="305"/>
    <line x1="305" y1="502" x2="305" y2="508"/>
    <line x1="502" y1="305" x2="508" y2="305"/>
    <line x1="405" y1="2" x2="405" y2="8"/>
    <line x1="2" y1="405" x2="8" y2="405"/>
    <line x1="405" y1="502" x2="405" y2="508"/>
    <line x1="502" y1="405" x2="508" y2="405"/>
  </g>
  <g stroke="gray" stroke-width="1" stroke-dasharray="5,5">
    <line x1="105" y1="5" x2="105" y2="505"/>
    <line x1="5" y1="105" x2="505" y2="105"/>
    <line x1="205" y1="5" x2="205" y2="505"/>
    <line x1="5" y1="205" x2="505" y2="205"/>
    <line x1="305" y1="5" x2="305" y2="505"/>
    <line x1="5" y1="305" x2="505" y2="305"/>
    <line x1="405" y1="5" x2="405" y2="505"/>
    <line x1="5" y1="405" x2="505" y2="405"/>
  </g>
</svg>
