<?xml version="1.0" standalone="no"?>
<!DOCTYPE svg PUBLIC "-//W3C//DTD SVG 1.1//EN" 
  "http://www.w3.org/Graphics/SVG/1.1/DTD/svg11.dtd">
<svg width="510" height="510" version="1.1" id="toplevel"
    xmlns="http://www.w3.org/2000/svg"
    xmlns:xlink="http://www.w3.org/1999/xlink">
  <polygon points="218,465 268,455 356,168 359,168 442,251 482,211 394,45 138,70 138,166 158,167 162,187 121,248 183,289 192,337 180,366 203,389"
           fill="bisque"/>
  <g stroke="chocolate" stroke-width="1">
    <line x1="442" y1="251" x2="482" y2="211"/>
    <circle cx="442" cy="251" r="2"/>
    <circle cx="482" cy="211" r="2"/>
  </g>
  <g stroke="chocolate" stroke-width="1">
    <line x1="424" y1="222" x2="459" y2="169"/>
    <circle cx="424" cy="222" r="2"/>
    <circle cx="459" cy="169" r="2"/>
  </g>
  <g stroke="chocolate" stroke-width="1">
    <line x1="218" y1="465" x2="268" y2="455"/>
    <circle cx="218" cy="465" r="2"/>
    <circle cx="268" cy="455" r="2"/>
  </g>
  <g stroke="chocolate" stroke-width="1">
    <line x1="268" y1="455" x2="394" y2="45"/>
    <circle cx="268" cy="455" r="2"/>
    <circle cx="394" cy="45" r="2"/>
  </g>
  <g stroke="chocolate" stroke-width="1">
    <line x1="180" y1="366" x2="312" y2="53"/>
    <circle cx="180" cy="366" r="2"/>
    <circle cx="312" cy="53" r="2"/>
  </g>
  <g stroke="chocolate" stroke-width="1">
    <line x1="121" y1="248" x2="250" y2="59"/>
    <circle cx="121" cy="248" r="2"/>
    <circle cx="250" cy="59" r="2"/>
  </g>
  <g stroke="chocolate" stroke-width="1">
    <line x1="138" y1="166" x2="138" y2="70"/>
    <circle cx="138" cy="166" r="2"/>
    <circle cx="138" cy="70" r="2"/>
  </g>
  <g stroke="chocolate" stroke-width="1">
    <line x1="180" y1="366" x2="295" y2="366"/>
    <circle cx="180" cy="366" r="2"/>
    <circle cx="295" cy="366" r="2"/>
  </g>
  <g stroke="chocolate" stroke-width="1">
    <line x1="218" y1="465" x2="138" y2="70"/>
    <circle cx="218" cy="465" r="2"/>
    <circle cx="138" cy="70" r="2"/>
  </g>
  <g stroke="chocolate" stroke-width="1">
    <line x1="424" y1="222" x2="482" y2="211"/>
    <circle cx="424" cy="222" r="2"/>
    <circle cx="482" cy="211" r="2"/>
  </g>
  <g stroke="chocolate" stroke-width="1">
    <line x1="268" y1="455" x2="180" y2="366"/>
    <circle cx="268" cy="455" r="2"/>
    <circle cx="180" cy="366" r="2"/>
  </g>
  <g stroke="chocolate" stroke-width="1">
    <line x1="295" y1="366" x2="121" y2="248"/>
    <circle cx="295" cy="366" r="2"/>
    <circle cx="121" cy="248" r="2"/>
  </g>
  <g stroke="chocolate" stroke-width="1">
    <line x1="459" y1="169" x2="138" y2="166"/>
    <circle cx="459" cy="169" r="2"/>
    <circle cx="138" cy="166" r="2"/>
  </g>
  <g stroke="chocolate" stroke-width="1">
    <line x1="482" y1="211" x2="394" y2="45"/>
    <circle cx="482" cy="211" r="2"/>
    <circle cx="394" cy="45" r="2"/>
  </g>
  <g stroke="chocolate" stroke-width="1">
    <line x1="424" y1="222" x2="312" y2="53"/>
    <circle cx="424" cy="222" r="2"/>
    <circle cx="312" cy="53" r="2"/>
  </g>
  <g stroke="chocolate" stroke-width="1">
    <line x1="442" y1="251" x2="250" y2="59"/>
    <circle cx="442" cy="251" r="2"/>
    <circle cx="250" cy="59" r="2"/>
  </g>
  <g stroke="chocolate" stroke-width="1">
    <line x1="138" y1="70" x2="394" y2="45"/>
    <circle cx="138" cy="70" r="2"/>
    <circle cx="394" cy="45" r="2"/>
  </g>
  <g stroke="black" stroke-width="1">
    <line x1="5" y1="5" x2="505" y2="5"/>
    <line x1="5" y1="5" x2="5" y2="505"/>
    <line x1="505" y1="505" x2="5" y2="505"/>
    <line x1="505" y1="505" x2="505" y2="5"/>
    <line x1="105" y1="2" x2="105" y2="8"/>
    <line x1="2" y1="105" x2="8" y2="105"/>
    <line x1="105" y1="502" x2="105" y2="508"/>
    <line x1="502" y1="105" x2="508" y2="105"/>
    <line x1="205" y1="2" x2="205" y2="8"/>
    <line x1="2" y1="205" x2="8" y2="205"/>
    <line x1="205" y1="502" x2="205" y2="508"/>
    <line x1="502" y1="205" x2="508" y2="205"/>
    <line x1="305" y1="2" x2="305" y2="8"/>
    <line x1="2" y1="305" x2="8" y2="305"/>
    <line x1="305" y1="502" x2="305" y2="508"/>
    <line x1="502" y1="305" x2="508" y2="305"/>
    <line x1="405" y1="2" x2="405" y2="8"/>
    <line x1="2" y1="405" x2="8" y2="405"/>
    <line x1="405" y1="502" x2="405" y2="508"/>
    <line x1="502" y1="405" x2="508" y2="405"/>
  </g>
  <g stroke="gray" stroke-width="1" stroke-dasharray="5,5">
    <line x1="105" y1="5" x2="105" y2="505"/>
    <line x1="5" y1="105" x2="505" y2="105"/>
    <line x1="205" y1="5" x2="205" y2="505"/>
    <line x1="5" y1="205" x2="505" y2="205"/>
    <line x1="305" y1="5" x2="305" y2="505"/>
    <line x1="5" y1="305" x2="505" y2="305"/>
    <line x1="405" y1="5" x2="405" y2="505"/>
    <line x1="5" y1="405" x2="505" y2="405"/>
  </g>
</svg>
