<?xml version="1.0" standalone="no"?>
<!DOCTYPE svg PUBLIC "-//W3C//DTD SVG 1.1//EN" 
  "http://www.w3.org/Graphics/SVG/1.1/DTD/svg11.dtd">
<svg width="614" height="614" version="1.1" id="toplevel"
    xmlns="http://www.w3.org/2000/svg"
    xmlns:xlink="http://www.w3.org/1999/xlink">
  <polygon points="235,609 290,606 315,573 363,552 406,456 518,313 484,286 510,229 274,122 124,5 96,41"
           fill="bisque"/>
  <g stroke="chocolate" stroke-width="1">
    <line x1="290" y1="606" x2="217" y2="532"/>
    <circle cx="290" cy="606" r="2"/>
    <circle cx="217" cy="532" r="2"/>
  </g>
  <g stroke="chocolate" stroke-width="1">
    <line x1="518" y1="313" x2="124" y2="5"/>
    <circle cx="518" cy="313" r="2"/>
    <circle cx="124" cy="5" r="2"/>
  </g>
  <g stroke="chocolate" stroke-width="1">
    <line x1="235" y1="609" x2="96" y2="41"/>
    <circle cx="235" cy="609" r="2"/>
    <circle cx="96" cy="41" r="2"/>
  </g>
  <g stroke="chocolate" stroke-width="1">
    <line x1="510" y1="229" x2="96" y2="41"/>
    <circle cx="510" cy="229" r="2"/>
    <circle cx="96" cy="41" r="2"/>
  </g>
  <g stroke="chocolate" stroke-width="1">
    <line x1="363" y1="552" x2="224" y2="508"/>
    <circle cx="363" cy="552" r="2"/>
    <circle cx="224" cy="508" r="2"/>
  </g>
  <g stroke="chocolate" stroke-width="1">
    <line x1="217" y1="532" x2="224" y2="508"/>
    <circle cx="217" cy="532" r="2"/>
    <circle cx="224" cy="508" r="2"/>
  </g>
  <g stroke="chocolate" stroke-width="1">
    <line x1="235" y1="609" x2="290" y2="606"/>
    <circle cx="235" cy="609" r="2"/>
    <circle cx="290" cy="606" r="2"/>
  </g>
  <g stroke="chocolate" stroke-width="1">
    <line x1="363" y1="552" x2="510" y2="229"/>
    <circle cx="363" cy="552" r="2"/>
    <circle cx="510" cy="229" r="2"/>
  </g>
  <g stroke="chocolate" stroke-width="1">
    <line x1="290" y1="606" x2="518" y2="313"/>
    <circle cx="290" cy="606" r="2"/>
    <circle cx="518" cy="313" r="2"/>
  </g>
  <g stroke="chocolate" stroke-width="1">
    <line x1="235" y1="609" x2="363" y2="552"/>
    <circle cx="235" cy="609" r="2"/>
    <circle cx="363" cy="552" r="2"/>
  </g>
  <g stroke="chocolate" stroke-width="1">
    <line x1="96" y1="41" x2="124" y2="5"/>
    <circle cx="96" cy="41" r="2"/>
    <circle cx="124" cy="5" r="2"/>
  </g>
  <g stroke="black" stroke-width="1">
    <line x1="57" y1="57" x2="557" y2="57"/>
    <line x1="57" y1="57" x2="57" y2="557"/>
    <line x1="557" y1="557" x2="57" y2="557"/>
    <line x1="557" y1="557" x2="557" y2="57"/>
    <line x1="157" y1="54" x2="157" y2="60"/>
    <line x1="54" y1="157" x2="60" y2="157"/>
    <line x1="157" y1="554" x2="157" y2="560"/>
    <line x1="554" y1="157" x2="560" y2="157"/>
    <line x1="257" y1="54" x2="257" y2="60"/>
    <line x1="54" y1="257" x2="60" y2="257"/>
    <line x1="257" y1="554" x2="257" y2="560"/>
    <line x1="554" y1="257" x2="560" y2="257"/>
    <line x1="357" y1="54" x2="357" y2="60"/>
    <line x1="54" y1="357" x2="60" y2="357"/>
    <line x1="357" y1="554" x2="357" y2="560"/>
    <line x1="554" y1="357" x2="560" y2="357"/>
    <line x1="457" y1="54" x2="457" y2="60"/>
    <line x1="54" y1="457" x2="60" y2="457"/>
    <line x1="457" y1="554" x2="457" y2="560"/>
    <line x1="554" y1="457" x2="560" y2="457"/>
  </g>
  <g stroke="gray" stroke-width="1" stroke-dasharray="5,5">
    <line x1="157" y1="57" x2="157" y2="557"/>
    <line x1="57" y1="157" x2="557" y2="157"/>
    <line x1="257" y1="57" x2="257" y2="557"/>
    <line x1="57" y1="257" x2="557" y2="257"/>
    <line x1="357" y1="57" x2="357" y2="557"/>
    <line x1="57" y1="357" x2="557" y2="357"/>
    <line x1="457" y1="57" x2="457" y2="557"/>
    <line x1="57" y1="457" x2="557" y2="457"/>
  </g>
</svg>
