<?xml version="1.0" standalone="no"?>
<!DOCTYPE svg PUBLIC "-//W3C//DTD SVG 1.1//EN" 
  "http://www.w3.org/Graphics/SVG/1.1/DTD/svg11.dtd">
<svg width="510" height="510" version="1.1" id="toplevel"
    xmlns="http://www.w3.org/2000/svg"
    xmlns:xlink="http://www.w3.org/1999/xlink">
  <polygon points="356,401 396,354 289,262 331,245 275,109 159,157 114,335 165,398"
           fill="bisque"/>
  <polygon points="262,284 255,276 276,268" fill="bisque"/>
  <g stroke="chocolate" stroke-width="1">
    <line x1="356" y1="401" x2="165" y2="398"/>
    <circle cx="356" cy="401" r="2"/>
    <circle cx="165" cy="398" r="2"/>
  </g>
  <g stroke="chocolate" stroke-width="1">
    <line x1="165" y1="398" x2="114" y2="335"/>
    <circle cx="165" cy="398" r="2"/>
    <circle cx="114" cy="335" r="2"/>
  </g>
  <g stroke="chocolate" stroke-width="1">
    <line x1="356" y1="401" x2="396" y2="354"/>
    <circle cx="356" cy="401" r="2"/>
    <circle cx="396" cy="354" r="2"/>
  </g>
  <g stroke="chocolate" stroke-width="1">
    <line x1="318" y1="400" x2="374" y2="335"/>
    <circle cx="318" cy="400" r="2"/>
    <circle cx="374" cy="335" r="2"/>
  </g>
  <g stroke="chocolate" stroke-width="1">
    <line x1="114" y1="335" x2="331" y2="245"/>
    <circle cx="114" cy="335" r="2"/>
    <circle cx="331" cy="245" r="2"/>
  </g>
  <g stroke="chocolate" stroke-width="1">
    <line x1="318" y1="400" x2="150" y2="193"/>
    <circle cx="318" cy="400" r="2"/>
    <circle cx="150" cy="193" r="2"/>
  </g>
  <g stroke="chocolate" stroke-width="1">
    <line x1="396" y1="354" x2="284" y2="258"/>
    <circle cx="396" cy="354" r="2"/>
    <circle cx="284" cy="258" r="2"/>
  </g>
  <g stroke="chocolate" stroke-width="1">
    <line x1="356" y1="401" x2="159" y2="157"/>
    <circle cx="356" cy="401" r="2"/>
    <circle cx="159" cy="157" r="2"/>
  </g>
  <g stroke="chocolate" stroke-width="1">
    <line x1="165" y1="398" x2="284" y2="258"/>
    <circle cx="165" cy="398" r="2"/>
    <circle cx="284" cy="258" r="2"/>
  </g>
  <g stroke="chocolate" stroke-width="1">
    <line x1="150" y1="193" x2="286" y2="136"/>
    <circle cx="150" cy="193" r="2"/>
    <circle cx="286" cy="136" r="2"/>
  </g>
  <g stroke="chocolate" stroke-width="1">
    <line x1="159" y1="157" x2="275" y2="109"/>
    <circle cx="159" cy="157" r="2"/>
    <circle cx="275" cy="109" r="2"/>
  </g>
  <g stroke="chocolate" stroke-width="1">
    <line x1="159" y1="157" x2="275" y2="109"/>
    <circle cx="159" cy="157" r="2"/>
    <circle cx="275" cy="109" r="2"/>
  </g>
  <g stroke="chocolate" stroke-width="1">
    <line x1="331" y1="245" x2="275" y2="109"/>
    <circle cx="331" cy="245" r="2"/>
    <circle cx="275" cy="109" r="2"/>
  </g>
  <g stroke="chocolate" stroke-width="1">
    <line x1="275" y1="109" x2="275" y2="109"/>
    <circle cx="275" cy="109" r="2"/>
    <circle cx="275" cy="109" r="2"/>
  </g>
  <g stroke="chocolate" stroke-width="1">
    <line x1="114" y1="335" x2="159" y2="157"/>
    <circle cx="114" cy="335" r="2"/>
    <circle cx="159" cy="157" r="2"/>
  </g>
  <g stroke="black" stroke-width="1">
    <line x1="5" y1="5" x2="505" y2="5"/>
    <line x1="5" y1="5" x2="5" y2="505"/>
    <line x1="505" y1="505" x2="5" y2="505"/>
    <line x1="505" y1="505" x2="505" y2="5"/>
    <line x1="105" y1="2" x2="105" y2="8"/>
    <line x1="2" y1="105" x2="8" y2="105"/>
    <line x1="105" y1="502" x2="105" y2="508"/>
    <line x1="502" y1="105" x2="508" y2="105"/>
    <line x1="205" y1="2" x2="205" y2="8"/>
    <line x1="2" y1="205" x2="8" y2="205"/>
    <line x1="205" y1="502" x2="205" y2="508"/>
    <line x1="502" y1="205" x2="508" y2="205"/>
    <line x1="305" y1="2" x2="305" y2="8"/>
    <line x1="2" y1="305" x2="8" y2="305"/>
    <line x1="305" y1="502" x2="305" y2="508"/>
    <line x1="502" y1="305" x2="508" y2="305"/>
    <line x1="405" y1="2" x2="405" y2="8"/>
    <line x1="2" y1="405" x2="8" y2="405"/>
    <line x1="405" y1="502" x2="405" y2="508"/>
    <line x1="502" y1="405" x2="508" y2="405"/>
  </g>
  <g stroke="gray" stroke-width="1" stroke-dasharray="5,5">
    <line x1="105" y1="5" x2="105" y2="505"/>
    <line x1="5" y1="105" x2="505" y2="105"/>
    <line x1="205" y1="5" x2="205" y2="505"/>
    <line x1="5" y1="205" x2="505" y2="205"/>
    <line x1="305" y1="5" x2="305" y2="505"/>
    <line x1="5" y1="305" x2="505" y2="305"/>
    <line x1="405" y1="5" x2="405" y2="505"/>
    <line x1="5" y1="405" x2="505" y2="405"/>
  </g>
</svg>
