<?xml version="1.0" standalone="no"?>
<!DOCTYPE svg PUBLIC "-//W3C//DTD SVG 1.1//EN" 
  "http://www.w3.org/Graphics/SVG/1.1/DTD/svg11.dtd">
<svg width="510" height="510" version="1.1" id="toplevel"
    xmlns="http://www.w3.org/2000/svg"
    xmlns:xlink="http://www.w3.org/1999/xlink">
  <polygon points="290,391 365,382 431,307 425,233 363,233 364,311 278,316 246,119 186,129 185,125 154,134 197,321"
           fill="bisque"/>
  <g stroke="chocolate" stroke-width="1">
    <line x1="365" y1="382" x2="431" y2="307"/>
    <circle cx="365" cy="382" r="2"/>
    <circle cx="431" cy="307" r="2"/>
  </g>
  <g stroke="chocolate" stroke-width="1">
    <line x1="290" y1="391" x2="365" y2="382"/>
    <circle cx="290" cy="391" r="2"/>
    <circle cx="365" cy="382" r="2"/>
  </g>
  <g stroke="chocolate" stroke-width="1">
    <line x1="255" y1="365" x2="380" y2="365"/>
    <circle cx="255" cy="365" r="2"/>
    <circle cx="380" cy="365" r="2"/>
  </g>
  <g stroke="chocolate" stroke-width="1">
    <line x1="365" y1="382" x2="363" y2="233"/>
    <circle cx="365" cy="382" r="2"/>
    <circle cx="363" cy="233" r="2"/>
  </g>
  <g stroke="chocolate" stroke-width="1">
    <line x1="431" y1="307" x2="425" y2="233"/>
    <circle cx="431" cy="307" r="2"/>
    <circle cx="425" cy="233" r="2"/>
  </g>
  <g stroke="chocolate" stroke-width="1">
    <line x1="197" y1="321" x2="431" y2="307"/>
    <circle cx="197" cy="321" r="2"/>
    <circle cx="431" cy="307" r="2"/>
  </g>
  <g stroke="chocolate" stroke-width="1">
    <line x1="197" y1="321" x2="154" y2="134"/>
    <circle cx="197" cy="321" r="2"/>
    <circle cx="154" cy="134" r="2"/>
  </g>
  <g stroke="chocolate" stroke-width="1">
    <line x1="290" y1="391" x2="246" y2="119"/>
    <circle cx="290" cy="391" r="2"/>
    <circle cx="246" cy="119" r="2"/>
  </g>
  <g stroke="chocolate" stroke-width="1">
    <line x1="380" y1="365" x2="363" y2="241"/>
    <circle cx="380" cy="365" r="2"/>
    <circle cx="363" cy="241" r="2"/>
  </g>
  <g stroke="chocolate" stroke-width="1">
    <line x1="255" y1="365" x2="185" y2="125"/>
    <circle cx="255" cy="365" r="2"/>
    <circle cx="185" cy="125" r="2"/>
  </g>
  <g stroke="chocolate" stroke-width="1">
    <line x1="363" y1="241" x2="425" y2="233"/>
    <circle cx="363" cy="241" r="2"/>
    <circle cx="425" cy="233" r="2"/>
  </g>
  <g stroke="chocolate" stroke-width="1">
    <line x1="290" y1="391" x2="197" y2="321"/>
    <circle cx="290" cy="391" r="2"/>
    <circle cx="197" cy="321" r="2"/>
  </g>
  <g stroke="chocolate" stroke-width="1">
    <line x1="363" y1="233" x2="425" y2="233"/>
    <circle cx="363" cy="233" r="2"/>
    <circle cx="425" cy="233" r="2"/>
  </g>
  <g stroke="chocolate" stroke-width="1">
    <line x1="154" y1="134" x2="185" y2="125"/>
    <circle cx="154" cy="134" r="2"/>
    <circle cx="185" cy="125" r="2"/>
  </g>
  <g stroke="chocolate" stroke-width="1">
    <line x1="154" y1="134" x2="246" y2="119"/>
    <circle cx="154" cy="134" r="2"/>
    <circle cx="246" cy="119" r="2"/>
  </g>
  <g stroke="black" stroke-width="1">
    <line x1="5" y1="5" x2="505" y2="5"/>
    <line x1="5" y1="5" x2="5" y2="505"/>
    <line x1="505" y1="505" x2="5" y2="505"/>
    <line x1="505" y1="505" x2="505" y2="5"/>
    <line x1="105" y1="2" x2="105" y2="8"/>
    <line x1="2" y1="105" x2="8" y2="105"/>
    <line x1="105" y1="502" x2="105" y2="508"/>
    <line x1="502" y1="105" x2="508" y2="105"/>
    <line x1="205" y1="2" x2="205" y2="8"/>
    <line x1="2" y1="205" x2="8" y2="205"/>
    <line x1="205" y1="502" x2="205" y2="508"/>
    <line x1="502" y1="205" x2="508" y2="205"/>
    <line x1="305" y1="2" x2="305" y2="8"/>
    <line x1="2" y1="305" x2="8" y2="305"/>
    <line x1="305" y1="502" x2="305" y2="508"/>
    <line x1="502" y1="305" x2="508" y2="305"/>
    <line x1="405" y1="2" x2="405" y2="8"/>
    <line x1="2" y1="405" x2="8" y2="405"/>
    <line x1="405" y1="502" x2="405" y2="508"/>
    <line x1="502" y1="405" x2="508" y2="405"/>
  </g>
  <g stroke="gray" stroke-width="1" stroke-dasharray="5,5">
    <line x1="105" y1="5" x2="105" y2="505"/>
    <line x1="5" y1="105" x2="505" y2="105"/>
    <line x1="205" y1="5" x2="205" y2="505"/>
    <line x1="5" y1="205" x2="505" y2="205"/>
    <line x1="305" y1="5" x2="305" y2="505"/>
    <line x1="5" y1="305" x2="505" y2="305"/>
    <line x1="405" y1="5" x2="405" y2="505"/>
    <line x1="5" y1="405" x2="505" y2="405"/>
  </g>
</svg>
