<?xml version="1.0" standalone="no"?>
<!DOCTYPE svg PUBLIC "-//W3C//DTD SVG 1.1//EN" 
  "http://www.w3.org/Graphics/SVG/1.1/DTD/svg11.dtd">
<svg width="510" height="510" version="1.1" id="toplevel"
    xmlns="http://www.w3.org/2000/svg"
    xmlns:xlink="http://www.w3.org/1999/xlink">
  <polygon points="325,495 415,448 471,377 425,336 337,434 342,408 303,179 246,189 245,185 213,194 273,456"
           fill="bisque"/>
  <g stroke="chocolate" stroke-width="1">
    <line x1="415" y1="448" x2="471" y2="377"/>
    <circle cx="415" cy="448" r="2"/>
    <circle cx="471" cy="377" r="2"/>
  </g>
  <g stroke="chocolate" stroke-width="1">
    <line x1="317" y1="489" x2="329" y2="473"/>
    <circle cx="317" cy="489" r="2"/>
    <circle cx="329" cy="473" r="2"/>
  </g>
  <g stroke="chocolate" stroke-width="1">
    <line x1="317" y1="489" x2="420" y2="341"/>
    <circle cx="317" cy="489" r="2"/>
    <circle cx="420" cy="341" r="2"/>
  </g>
  <g stroke="chocolate" stroke-width="1">
    <line x1="299" y1="476" x2="425" y2="336"/>
    <circle cx="299" cy="476" r="2"/>
    <circle cx="425" cy="336" r="2"/>
  </g>
  <g stroke="chocolate" stroke-width="1">
    <line x1="299" y1="476" x2="342" y2="408"/>
    <circle cx="299" cy="476" r="2"/>
    <circle cx="342" cy="408" r="2"/>
  </g>
  <g stroke="chocolate" stroke-width="1">
    <line x1="325" y1="495" x2="415" y2="448"/>
    <circle cx="325" cy="495" r="2"/>
    <circle cx="415" cy="448" r="2"/>
  </g>
  <g stroke="chocolate" stroke-width="1">
    <line x1="325" y1="495" x2="342" y2="408"/>
    <circle cx="325" cy="495" r="2"/>
    <circle cx="342" cy="408" r="2"/>
  </g>
  <g stroke="chocolate" stroke-width="1">
    <line x1="273" y1="456" x2="415" y2="448"/>
    <circle cx="273" cy="456" r="2"/>
    <circle cx="415" cy="448" r="2"/>
  </g>
  <g stroke="chocolate" stroke-width="1">
    <line x1="342" y1="408" x2="303" y2="179"/>
    <circle cx="342" cy="408" r="2"/>
    <circle cx="303" cy="179" r="2"/>
  </g>
  <g stroke="chocolate" stroke-width="1">
    <line x1="273" y1="456" x2="213" y2="194"/>
    <circle cx="273" cy="456" r="2"/>
    <circle cx="213" cy="194" r="2"/>
  </g>
  <g stroke="chocolate" stroke-width="1">
    <line x1="329" y1="473" x2="245" y2="185"/>
    <circle cx="329" cy="473" r="2"/>
    <circle cx="245" cy="185" r="2"/>
  </g>
  <g stroke="chocolate" stroke-width="1">
    <line x1="325" y1="495" x2="273" y2="456"/>
    <circle cx="325" cy="495" r="2"/>
    <circle cx="273" cy="456" r="2"/>
  </g>
  <g stroke="chocolate" stroke-width="1">
    <line x1="213" y1="194" x2="245" y2="185"/>
    <circle cx="213" cy="194" r="2"/>
    <circle cx="245" cy="185" r="2"/>
  </g>
  <g stroke="chocolate" stroke-width="1">
    <line x1="213" y1="194" x2="303" y2="179"/>
    <circle cx="213" cy="194" r="2"/>
    <circle cx="303" cy="179" r="2"/>
  </g>
  <g stroke="chocolate" stroke-width="1">
    <line x1="471" y1="377" x2="425" y2="336"/>
    <circle cx="471" cy="377" r="2"/>
    <circle cx="425" cy="336" r="2"/>
  </g>
  <g stroke="chocolate" stroke-width="1">
    <line x1="471" y1="377" x2="420" y2="341"/>
    <circle cx="471" cy="377" r="2"/>
    <circle cx="420" cy="341" r="2"/>
  </g>
  <g stroke="black" stroke-width="1">
    <line x1="5" y1="5" x2="505" y2="5"/>
    <line x1="5" y1="5" x2="5" y2="505"/>
    <line x1="505" y1="505" x2="5" y2="505"/>
    <line x1="505" y1="505" x2="505" y2="5"/>
    <line x1="105" y1="2" x2="105" y2="8"/>
    <line x1="2" y1="105" x2="8" y2="105"/>
    <line x1="105" y1="502" x2="105" y2="508"/>
    <line x1="502" y1="105" x2="508" y2="105"/>
    <line x1="205" y1="2" x2="205" y2="8"/>
    <line x1="2" y1="205" x2="8" y2="205"/>
    <line x1="205" y1="502" x2="205" y2="508"/>
    <line x1="502" y1="205" x2="508" y2="205"/>
    <line x1="305" y1="2" x2="305" y2="8"/>
    <line x1="2" y1="305" x2="8" y2="305"/>
    <line x1="305" y1="502" x2="305" y2="508"/>
    <line x1="502" y1="305" x2="508" y2="305"/>
    <line x1="405" y1="2" x2="405" y2="8"/>
    <line x1="2" y1="405" x2="8" y2="405"/>
    <line x1="405" y1="502" x2="405" y2="508"/>
    <line x1="502" y1="405" x2="508" y2="405"/>
  </g>
  <g stroke="gray" stroke-width="1" stroke-dasharray="5,5">
    <line x1="105" y1="5" x2="105" y2="505"/>
    <line x1="5" y1="105" x2="505" y2="105"/>
    <line x1="205" y1="5" x2="205" y2="505"/>
    <line x1="5" y1="205" x2="505" y2="205"/>
    <line x1="305" y1="5" x2="305" y2="505"/>
    <line x1="5" y1="305" x2="505" y2="305"/>
    <line x1="405" y1="5" x2="405" y2="505"/>
    <line x1="5" y1="405" x2="505" y2="405"/>
  </g>
</svg>
