<?xml version="1.0" standalone="no"?>
<!DOCTYPE svg PUBLIC "-//W3C//DTD SVG 1.1//EN" 
  "http://www.w3.org/Graphics/SVG/1.1/DTD/svg11.dtd">
<svg width="510" height="510" version="1.1" id="toplevel"
    xmlns="http://www.w3.org/2000/svg"
    xmlns:xlink="http://www.w3.org/1999/xlink">
  <polygon points="355,424 414,398 383,329 395,292 402,292 408,248 402,247 402,127 414,107 402,89 402,85 398,85 378,55 334,85 302,85 292,113 194,180 129,116 74,172 75,175"
           fill="bisque"/>
  <g stroke="chocolate" stroke-width="1">
    <line x1="355" y1="424" x2="408" y2="248"/>
    <circle cx="355" cy="424" r="2"/>
    <circle cx="408" cy="248" r="2"/>
  </g>
  <g stroke="chocolate" stroke-width="1">
    <line x1="288" y1="319" x2="414" y2="107"/>
    <circle cx="288" cy="319" r="2"/>
    <circle cx="414" cy="107" r="2"/>
  </g>
  <g stroke="chocolate" stroke-width="1">
    <line x1="284" y1="312" x2="391" y2="152"/>
    <circle cx="284" cy="312" r="2"/>
    <circle cx="391" cy="152" r="2"/>
  </g>
  <g stroke="chocolate" stroke-width="1">
    <line x1="355" y1="424" x2="414" y2="398"/>
    <circle cx="355" cy="424" r="2"/>
    <circle cx="414" cy="398" r="2"/>
  </g>
  <g stroke="chocolate" stroke-width="1">
    <line x1="351" y1="334" x2="361" y2="278"/>
    <circle cx="351" cy="334" r="2"/>
    <circle cx="361" cy="278" r="2"/>
  </g>
  <g stroke="chocolate" stroke-width="1">
    <line x1="284" y1="312" x2="303" y2="236"/>
    <circle cx="284" cy="312" r="2"/>
    <circle cx="303" cy="236" r="2"/>
  </g>
  <g stroke="chocolate" stroke-width="1">
    <line x1="402" y1="292" x2="408" y2="248"/>
    <circle cx="402" cy="292" r="2"/>
    <circle cx="408" cy="248" r="2"/>
  </g>
  <g stroke="chocolate" stroke-width="1">
    <line x1="227" y1="310" x2="302" y2="85"/>
    <circle cx="227" cy="310" r="2"/>
    <circle cx="302" cy="85" r="2"/>
  </g>
  <g stroke="chocolate" stroke-width="1">
    <line x1="240" y1="321" x2="303" y2="236"/>
    <circle cx="240" cy="321" r="2"/>
    <circle cx="303" cy="236" r="2"/>
  </g>
  <g stroke="chocolate" stroke-width="1">
    <line x1="280" y1="357" x2="306" y2="222"/>
    <circle cx="280" cy="357" r="2"/>
    <circle cx="306" cy="222" r="2"/>
  </g>
  <g stroke="chocolate" stroke-width="1">
    <line x1="288" y1="319" x2="306" y2="222"/>
    <circle cx="288" cy="319" r="2"/>
    <circle cx="306" cy="222" r="2"/>
  </g>
  <g stroke="chocolate" stroke-width="1">
    <line x1="240" y1="321" x2="275" y2="287"/>
    <circle cx="240" cy="321" r="2"/>
    <circle cx="275" cy="287" r="2"/>
  </g>
  <g stroke="chocolate" stroke-width="1">
    <line x1="402" y1="292" x2="402" y2="85"/>
    <circle cx="402" cy="292" r="2"/>
    <circle cx="402" cy="85" r="2"/>
  </g>
  <g stroke="chocolate" stroke-width="1">
    <line x1="130" y1="224" x2="151" y2="184"/>
    <circle cx="130" cy="224" r="2"/>
    <circle cx="151" cy="184" r="2"/>
  </g>
  <g stroke="chocolate" stroke-width="1">
    <line x1="75" y1="175" x2="74" y2="172"/>
    <circle cx="75" cy="175" r="2"/>
    <circle cx="74" cy="172" r="2"/>
  </g>
  <g stroke="chocolate" stroke-width="1">
    <line x1="280" y1="357" x2="351" y2="334"/>
    <circle cx="280" cy="357" r="2"/>
    <circle cx="351" cy="334" r="2"/>
  </g>
  <g stroke="chocolate" stroke-width="1">
    <line x1="227" y1="310" x2="275" y2="287"/>
    <circle cx="227" cy="310" r="2"/>
    <circle cx="275" cy="287" r="2"/>
  </g>
  <g stroke="chocolate" stroke-width="1">
    <line x1="203" y1="289" x2="151" y2="184"/>
    <circle cx="203" cy="289" r="2"/>
    <circle cx="151" cy="184" r="2"/>
  </g>
  <g stroke="chocolate" stroke-width="1">
    <line x1="74" y1="172" x2="129" y2="116"/>
    <circle cx="74" cy="172" r="2"/>
    <circle cx="129" cy="116" r="2"/>
  </g>
  <g stroke="chocolate" stroke-width="1">
    <line x1="130" y1="224" x2="378" y2="55"/>
    <circle cx="130" cy="224" r="2"/>
    <circle cx="378" cy="55" r="2"/>
  </g>
  <g stroke="chocolate" stroke-width="1">
    <line x1="414" y1="398" x2="361" y2="278"/>
    <circle cx="414" cy="398" r="2"/>
    <circle cx="361" cy="278" r="2"/>
  </g>
  <g stroke="chocolate" stroke-width="1">
    <line x1="275" y1="287" x2="361" y2="278"/>
    <circle cx="275" cy="287" r="2"/>
    <circle cx="361" cy="278" r="2"/>
  </g>
  <g stroke="chocolate" stroke-width="1">
    <line x1="355" y1="424" x2="75" y2="175"/>
    <circle cx="355" cy="424" r="2"/>
    <circle cx="75" cy="175" r="2"/>
  </g>
  <g stroke="chocolate" stroke-width="1">
    <line x1="402" y1="292" x2="236" y2="281"/>
    <circle cx="402" cy="292" r="2"/>
    <circle cx="236" cy="281" r="2"/>
  </g>
  <g stroke="chocolate" stroke-width="1">
    <line x1="284" y1="312" x2="231" y2="298"/>
    <circle cx="284" cy="312" r="2"/>
    <circle cx="231" cy="298" r="2"/>
  </g>
  <g stroke="chocolate" stroke-width="1">
    <line x1="288" y1="319" x2="203" y2="289"/>
    <circle cx="288" cy="319" r="2"/>
    <circle cx="203" cy="289" r="2"/>
  </g>
  <g stroke="chocolate" stroke-width="1">
    <line x1="288" y1="319" x2="231" y2="298"/>
    <circle cx="288" cy="319" r="2"/>
    <circle cx="231" cy="298" r="2"/>
  </g>
  <g stroke="chocolate" stroke-width="1">
    <line x1="351" y1="334" x2="129" y2="116"/>
    <circle cx="351" cy="334" r="2"/>
    <circle cx="129" cy="116" r="2"/>
  </g>
  <g stroke="chocolate" stroke-width="1">
    <line x1="284" y1="312" x2="236" y2="281"/>
    <circle cx="284" cy="312" r="2"/>
    <circle cx="236" cy="281" r="2"/>
  </g>
  <g stroke="chocolate" stroke-width="1">
    <line x1="414" y1="107" x2="378" y2="55"/>
    <circle cx="414" cy="107" r="2"/>
    <circle cx="378" cy="55" r="2"/>
  </g>
  <g stroke="chocolate" stroke-width="1">
    <line x1="306" y1="222" x2="259" y2="214"/>
    <circle cx="306" cy="222" r="2"/>
    <circle cx="259" cy="214" r="2"/>
  </g>
  <g stroke="chocolate" stroke-width="1">
    <line x1="408" y1="248" x2="258" y2="216"/>
    <circle cx="408" cy="248" r="2"/>
    <circle cx="258" cy="216" r="2"/>
  </g>
  <g stroke="chocolate" stroke-width="1">
    <line x1="306" y1="222" x2="75" y2="175"/>
    <circle cx="306" cy="222" r="2"/>
    <circle cx="75" cy="175" r="2"/>
  </g>
  <g stroke="chocolate" stroke-width="1">
    <line x1="303" y1="236" x2="259" y2="214"/>
    <circle cx="303" cy="236" r="2"/>
    <circle cx="259" cy="214" r="2"/>
  </g>
  <g stroke="chocolate" stroke-width="1">
    <line x1="303" y1="236" x2="258" y2="216"/>
    <circle cx="303" cy="236" r="2"/>
    <circle cx="258" cy="216" r="2"/>
  </g>
  <g stroke="chocolate" stroke-width="1">
    <line x1="151" y1="184" x2="74" y2="172"/>
    <circle cx="151" cy="184" r="2"/>
    <circle cx="74" cy="172" r="2"/>
  </g>
  <g stroke="chocolate" stroke-width="1">
    <line x1="391" y1="152" x2="302" y2="85"/>
    <circle cx="391" cy="152" r="2"/>
    <circle cx="302" cy="85" r="2"/>
  </g>
  <g stroke="chocolate" stroke-width="1">
    <line x1="302" y1="85" x2="402" y2="85"/>
    <circle cx="302" cy="85" r="2"/>
    <circle cx="402" cy="85" r="2"/>
  </g>
  <g stroke="chocolate" stroke-width="1">
    <line x1="391" y1="152" x2="298" y2="96"/>
    <circle cx="391" cy="152" r="2"/>
    <circle cx="298" cy="96" r="2"/>
  </g>
  <g stroke="chocolate" stroke-width="1">
    <line x1="414" y1="107" x2="298" y2="96"/>
    <circle cx="414" cy="107" r="2"/>
    <circle cx="298" cy="96" r="2"/>
  </g>
  <g stroke="black" stroke-width="1">
    <line x1="5" y1="5" x2="505" y2="5"/>
    <line x1="5" y1="5" x2="5" y2="505"/>
    <line x1="505" y1="505" x2="5" y2="505"/>
    <line x1="505" y1="505" x2="505" y2="5"/>
    <line x1="105" y1="2" x2="105" y2="8"/>
    <line x1="2" y1="105" x2="8" y2="105"/>
    <line x1="105" y1="502" x2="105" y2="508"/>
    <line x1="502" y1="105" x2="508" y2="105"/>
    <line x1="205" y1="2" x2="205" y2="8"/>
    <line x1="2" y1="205" x2="8" y2="205"/>
    <line x1="205" y1="502" x2="205" y2="508"/>
    <line x1="502" y1="205" x2="508" y2="205"/>
    <line x1="305" y1="2" x2="305" y2="8"/>
    <line x1="2" y1="305" x2="8" y2="305"/>
    <line x1="305" y1="502" x2="305" y2="508"/>
    <line x1="502" y1="305" x2="508" y2="305"/>
    <line x1="405" y1="2" x2="405" y2="8"/>
    <line x1="2" y1="405" x2="8" y2="405"/>
    <line x1="405" y1="502" x2="405" y2="508"/>
    <line x1="502" y1="405" x2="508" y2="405"/>
  </g>
  <g stroke="gray" stroke-width="1" stroke-dasharray="5,5">
    <line x1="105" y1="5" x2="105" y2="505"/>
    <line x1="5" y1="105" x2="505" y2="105"/>
    <line x1="205" y1="5" x2="205" y2="505"/>
    <line x1="5" y1="205" x2="505" y2="205"/>
    <line x1="305" y1="5" x2="305" y2="505"/>
    <line x1="5" y1="305" x2="505" y2="305"/>
    <line x1="405" y1="5" x2="405" y2="505"/>
    <line x1="5" y1="405" x2="505" y2="405"/>
  </g>
</svg>
