<?xml version="1.0" standalone="no"?>
<!DOCTYPE svg PUBLIC "-//W3C//DTD SVG 1.1//EN" 
  "http://www.w3.org/Graphics/SVG/1.1/DTD/svg11.dtd">
<svg width="510" height="510" version="1.1" id="toplevel"
    xmlns="http://www.w3.org/2000/svg"
    xmlns:xlink="http://www.w3.org/1999/xlink">
  <polygon points="245,350 295,276 242,227 219,246 219,206 170,160 148,178 148,191 133,213 148,267 148,282 152,282 167,337"
           fill="bisque"/>
  <g stroke="chocolate" stroke-width="1">
    <line x1="228" y1="331" x2="295" y2="276"/>
    <circle cx="228" cy="331" r="2"/>
    <circle cx="295" cy="276" r="2"/>
  </g>
  <g stroke="chocolate" stroke-width="1">
    <line x1="245" y1="350" x2="295" y2="276"/>
    <circle cx="245" cy="350" r="2"/>
    <circle cx="295" cy="276" r="2"/>
  </g>
  <g stroke="chocolate" stroke-width="1">
    <line x1="167" y1="337" x2="242" y2="227"/>
    <circle cx="167" cy="337" r="2"/>
    <circle cx="242" cy="227" r="2"/>
  </g>
  <g stroke="chocolate" stroke-width="1">
    <line x1="183" y1="275" x2="242" y2="227"/>
    <circle cx="183" cy="275" r="2"/>
    <circle cx="242" cy="227" r="2"/>
  </g>
  <g stroke="chocolate" stroke-width="1">
    <line x1="133" y1="213" x2="170" y2="160"/>
    <circle cx="133" cy="213" r="2"/>
    <circle cx="170" cy="160" r="2"/>
  </g>
  <g stroke="chocolate" stroke-width="1">
    <line x1="245" y1="350" x2="167" y2="337"/>
    <circle cx="245" cy="350" r="2"/>
    <circle cx="167" cy="337" r="2"/>
  </g>
  <g stroke="chocolate" stroke-width="1">
    <line x1="148" y1="178" x2="170" y2="160"/>
    <circle cx="148" cy="178" r="2"/>
    <circle cx="170" cy="160" r="2"/>
  </g>
  <g stroke="chocolate" stroke-width="1">
    <line x1="148" y1="282" x2="219" y2="282"/>
    <circle cx="148" cy="282" r="2"/>
    <circle cx="219" cy="282" r="2"/>
  </g>
  <g stroke="chocolate" stroke-width="1">
    <line x1="148" y1="282" x2="148" y2="178"/>
    <circle cx="148" cy="282" r="2"/>
    <circle cx="148" cy="178" r="2"/>
  </g>
  <g stroke="chocolate" stroke-width="1">
    <line x1="219" y1="282" x2="219" y2="206"/>
    <circle cx="219" cy="282" r="2"/>
    <circle cx="219" cy="206" r="2"/>
  </g>
  <g stroke="chocolate" stroke-width="1">
    <line x1="167" y1="337" x2="133" y2="213"/>
    <circle cx="167" cy="337" r="2"/>
    <circle cx="133" cy="213" r="2"/>
  </g>
  <g stroke="chocolate" stroke-width="1">
    <line x1="245" y1="350" x2="200" y2="188"/>
    <circle cx="245" cy="350" r="2"/>
    <circle cx="200" cy="188" r="2"/>
  </g>
  <g stroke="chocolate" stroke-width="1">
    <line x1="133" y1="213" x2="219" y2="206"/>
    <circle cx="133" cy="213" r="2"/>
    <circle cx="219" cy="206" r="2"/>
  </g>
  <g stroke="chocolate" stroke-width="1">
    <line x1="228" y1="331" x2="183" y2="275"/>
    <circle cx="228" cy="331" r="2"/>
    <circle cx="183" cy="275" r="2"/>
  </g>
  <g stroke="chocolate" stroke-width="1">
    <line x1="200" y1="188" x2="148" y2="178"/>
    <circle cx="200" cy="188" r="2"/>
    <circle cx="148" cy="178" r="2"/>
  </g>
  <g stroke="chocolate" stroke-width="1">
    <line x1="295" y1="276" x2="242" y2="227"/>
    <circle cx="295" cy="276" r="2"/>
    <circle cx="242" cy="227" r="2"/>
  </g>
  <g stroke="chocolate" stroke-width="1">
    <line x1="219" y1="206" x2="170" y2="160"/>
    <circle cx="219" cy="206" r="2"/>
    <circle cx="170" cy="160" r="2"/>
  </g>
  <g stroke="black" stroke-width="1">
    <line x1="5" y1="5" x2="505" y2="5"/>
    <line x1="5" y1="5" x2="5" y2="505"/>
    <line x1="505" y1="505" x2="5" y2="505"/>
    <line x1="505" y1="505" x2="505" y2="5"/>
    <line x1="105" y1="2" x2="105" y2="8"/>
    <line x1="2" y1="105" x2="8" y2="105"/>
    <line x1="105" y1="502" x2="105" y2="508"/>
    <line x1="502" y1="105" x2="508" y2="105"/>
    <line x1="205" y1="2" x2="205" y2="8"/>
    <line x1="2" y1="205" x2="8" y2="205"/>
    <line x1="205" y1="502" x2="205" y2="508"/>
    <line x1="502" y1="205" x2="508" y2="205"/>
    <line x1="305" y1="2" x2="305" y2="8"/>
    <line x1="2" y1="305" x2="8" y2="305"/>
    <line x1="305" y1="502" x2="305" y2="508"/>
    <line x1="502" y1="305" x2="508" y2="305"/>
    <line x1="405" y1="2" x2="405" y2="8"/>
    <line x1="2" y1="405" x2="8" y2="405"/>
    <line x1="405" y1="502" x2="405" y2="508"/>
    <line x1="502" y1="405" x2="508" y2="405"/>
  </g>
  <g stroke="gray" stroke-width="1" stroke-dasharray="5,5">
    <line x1="105" y1="5" x2="105" y2="505"/>
    <line x1="5" y1="105" x2="505" y2="105"/>
    <line x1="205" y1="5" x2="205" y2="505"/>
    <line x1="5" y1="205" x2="505" y2="205"/>
    <line x1="305" y1="5" x2="305" y2="505"/>
    <line x1="5" y1="305" x2="505" y2="305"/>
    <line x1="405" y1="5" x2="405" y2="505"/>
    <line x1="5" y1="405" x2="505" y2="405"/>
  </g>
</svg>
