<?xml version="1.0" standalone="no"?>
<!DOCTYPE svg PUBLIC "-//W3C//DTD SVG 1.1//EN" 
  "http://www.w3.org/Graphics/SVG/1.1/DTD/svg11.dtd">
<svg width="510" height="510" version="1.1" id="toplevel"
    xmlns="http://www.w3.org/2000/svg"
    xmlns:xlink="http://www.w3.org/1999/xlink">
  <polygon points="146,505 190,461 190,373 252,311 5,310 67,372 66,460 110,505"
           fill="bisque"/>
  <polygon points="146,461 110,461 111,399 146,399" fill="bisque"/>
  <g stroke="chocolate" stroke-width="1">
    <line x1="146" y1="505" x2="190" y2="461"/>
    <circle cx="146" cy="505" r="2"/>
    <circle cx="190" cy="461" r="2"/>
  </g>
  <g stroke="chocolate" stroke-width="1">
    <line x1="128" y1="505" x2="172" y2="461"/>
    <circle cx="128" cy="505" r="2"/>
    <circle cx="172" cy="461" r="2"/>
  </g>
  <g stroke="chocolate" stroke-width="1">
    <line x1="146" y1="434" x2="190" y2="390"/>
    <circle cx="146" cy="434" r="2"/>
    <circle cx="190" cy="390" r="2"/>
  </g>
  <g stroke="chocolate" stroke-width="1">
    <line x1="164" y1="399" x2="252" y2="311"/>
    <circle cx="164" cy="399" r="2"/>
    <circle cx="252" cy="311" r="2"/>
  </g>
  <g stroke="chocolate" stroke-width="1">
    <line x1="75" y1="469" x2="111" y2="434"/>
    <circle cx="75" cy="469" r="2"/>
    <circle cx="111" cy="434" r="2"/>
  </g>
  <g stroke="chocolate" stroke-width="1">
    <line x1="146" y1="399" x2="190" y2="355"/>
    <circle cx="146" cy="399" r="2"/>
    <circle cx="190" cy="355" r="2"/>
  </g>
  <g stroke="chocolate" stroke-width="1">
    <line x1="190" y1="461" x2="190" y2="355"/>
    <circle cx="190" cy="461" r="2"/>
    <circle cx="190" cy="355" r="2"/>
  </g>
  <g stroke="chocolate" stroke-width="1">
    <line x1="146" y1="505" x2="146" y2="311"/>
    <circle cx="146" cy="505" r="2"/>
    <circle cx="146" cy="311" r="2"/>
  </g>
  <g stroke="chocolate" stroke-width="1">
    <line x1="110" y1="505" x2="111" y2="310"/>
    <circle cx="110" cy="505" r="2"/>
    <circle cx="111" cy="310" r="2"/>
  </g>
  <g stroke="chocolate" stroke-width="1">
    <line x1="66" y1="460" x2="67" y2="354"/>
    <circle cx="66" cy="460" r="2"/>
    <circle cx="67" cy="354" r="2"/>
  </g>
  <g stroke="chocolate" stroke-width="1">
    <line x1="146" y1="505" x2="110" y2="505"/>
    <circle cx="146" cy="505" r="2"/>
    <circle cx="110" cy="505" r="2"/>
  </g>
  <g stroke="chocolate" stroke-width="1">
    <line x1="93" y1="399" x2="164" y2="328"/>
    <circle cx="93" cy="399" r="2"/>
    <circle cx="164" cy="328" r="2"/>
  </g>
  <g stroke="chocolate" stroke-width="1">
    <line x1="67" y1="390" x2="111" y2="346"/>
    <circle cx="67" cy="390" r="2"/>
    <circle cx="111" cy="346" r="2"/>
  </g>
  <g stroke="chocolate" stroke-width="1">
    <line x1="190" y1="461" x2="66" y2="460"/>
    <circle cx="190" cy="461" r="2"/>
    <circle cx="66" cy="460" r="2"/>
  </g>
  <g stroke="chocolate" stroke-width="1">
    <line x1="67" y1="354" x2="111" y2="310"/>
    <circle cx="67" cy="354" r="2"/>
    <circle cx="111" cy="310" r="2"/>
  </g>
  <g stroke="chocolate" stroke-width="1">
    <line x1="110" y1="505" x2="66" y2="460"/>
    <circle cx="110" cy="505" r="2"/>
    <circle cx="66" cy="460" r="2"/>
  </g>
  <g stroke="chocolate" stroke-width="1">
    <line x1="128" y1="505" x2="84" y2="461"/>
    <circle cx="128" cy="505" r="2"/>
    <circle cx="84" cy="461" r="2"/>
  </g>
  <g stroke="chocolate" stroke-width="1">
    <line x1="111" y1="434" x2="67" y2="390"/>
    <circle cx="111" cy="434" r="2"/>
    <circle cx="67" cy="390" r="2"/>
  </g>
  <g stroke="chocolate" stroke-width="1">
    <line x1="93" y1="399" x2="5" y2="310"/>
    <circle cx="93" cy="399" r="2"/>
    <circle cx="5" cy="310" r="2"/>
  </g>
  <g stroke="chocolate" stroke-width="1">
    <line x1="181" y1="470" x2="146" y2="434"/>
    <circle cx="181" cy="470" r="2"/>
    <circle cx="146" cy="434" r="2"/>
  </g>
  <g stroke="chocolate" stroke-width="1">
    <line x1="111" y1="399" x2="67" y2="354"/>
    <circle cx="111" cy="399" r="2"/>
    <circle cx="67" cy="354" r="2"/>
  </g>
  <g stroke="chocolate" stroke-width="1">
    <line x1="190" y1="399" x2="67" y2="399"/>
    <circle cx="190" cy="399" r="2"/>
    <circle cx="67" cy="399" r="2"/>
  </g>
  <g stroke="chocolate" stroke-width="1">
    <line x1="164" y1="399" x2="93" y2="328"/>
    <circle cx="164" cy="399" r="2"/>
    <circle cx="93" cy="328" r="2"/>
  </g>
  <g stroke="chocolate" stroke-width="1">
    <line x1="190" y1="390" x2="146" y2="346"/>
    <circle cx="190" cy="390" r="2"/>
    <circle cx="146" cy="346" r="2"/>
  </g>
  <g stroke="chocolate" stroke-width="1">
    <line x1="190" y1="355" x2="146" y2="311"/>
    <circle cx="190" cy="355" r="2"/>
    <circle cx="146" cy="311" r="2"/>
  </g>
  <g stroke="chocolate" stroke-width="1">
    <line x1="252" y1="311" x2="5" y2="310"/>
    <circle cx="252" cy="311" r="2"/>
    <circle cx="5" cy="310" r="2"/>
  </g>
  <g stroke="black" stroke-width="1">
    <line x1="5" y1="5" x2="505" y2="5"/>
    <line x1="5" y1="5" x2="5" y2="505"/>
    <line x1="505" y1="505" x2="5" y2="505"/>
    <line x1="505" y1="505" x2="505" y2="5"/>
    <line x1="105" y1="2" x2="105" y2="8"/>
    <line x1="2" y1="105" x2="8" y2="105"/>
    <line x1="105" y1="502" x2="105" y2="508"/>
    <line x1="502" y1="105" x2="508" y2="105"/>
    <line x1="205" y1="2" x2="205" y2="8"/>
    <line x1="2" y1="205" x2="8" y2="205"/>
    <line x1="205" y1="502" x2="205" y2="508"/>
    <line x1="502" y1="205" x2="508" y2="205"/>
    <line x1="305" y1="2" x2="305" y2="8"/>
    <line x1="2" y1="305" x2="8" y2="305"/>
    <line x1="305" y1="502" x2="305" y2="508"/>
    <line x1="502" y1="305" x2="508" y2="305"/>
    <line x1="405" y1="2" x2="405" y2="8"/>
    <line x1="2" y1="405" x2="8" y2="405"/>
    <line x1="405" y1="502" x2="405" y2="508"/>
    <line x1="502" y1="405" x2="508" y2="405"/>
  </g>
  <g stroke="gray" stroke-width="1" stroke-dasharray="5,5">
    <line x1="105" y1="5" x2="105" y2="505"/>
    <line x1="5" y1="105" x2="505" y2="105"/>
    <line x1="205" y1="5" x2="205" y2="505"/>
    <line x1="5" y1="205" x2="505" y2="205"/>
    <line x1="305" y1="5" x2="305" y2="505"/>
    <line x1="5" y1="305" x2="505" y2="305"/>
    <line x1="405" y1="5" x2="405" y2="505"/>
    <line x1="5" y1="405" x2="505" y2="405"/>
  </g>
</svg>
