<?xml version="1.0" standalone="no"?>
<!DOCTYPE svg PUBLIC "-//W3C//DTD SVG 1.1//EN" 
  "http://www.w3.org/Graphics/SVG/1.1/DTD/svg11.dtd">
<svg width="510" height="510" version="1.1" id="toplevel"
    xmlns="http://www.w3.org/2000/svg"
    xmlns:xlink="http://www.w3.org/1999/xlink">
  <polygon points="293,471 389,435 439,367 422,251 422,250 321,48 265,39 71,315"
           fill="bisque"/>
  <g stroke="chocolate" stroke-width="1">
    <line x1="268" y1="454" x2="280" y2="453"/>
    <circle cx="268" cy="454" r="2"/>
    <circle cx="280" cy="453" r="2"/>
  </g>
  <g stroke="chocolate" stroke-width="1">
    <line x1="293" y1="471" x2="389" y2="435"/>
    <circle cx="293" cy="471" r="2"/>
    <circle cx="389" cy="435" r="2"/>
  </g>
  <g stroke="chocolate" stroke-width="1">
    <line x1="293" y1="471" x2="71" y2="315"/>
    <circle cx="293" cy="471" r="2"/>
    <circle cx="71" cy="315" r="2"/>
  </g>
  <g stroke="chocolate" stroke-width="1">
    <line x1="392" y1="393" x2="427" y2="383"/>
    <circle cx="392" cy="393" r="2"/>
    <circle cx="427" cy="383" r="2"/>
  </g>
  <g stroke="chocolate" stroke-width="1">
    <line x1="435" y1="364" x2="439" y2="363"/>
    <circle cx="435" cy="364" r="2"/>
    <circle cx="439" cy="363" r="2"/>
  </g>
  <g stroke="chocolate" stroke-width="1">
    <line x1="393" y1="369" x2="439" y2="363"/>
    <circle cx="393" cy="369" r="2"/>
    <circle cx="439" cy="363" r="2"/>
  </g>
  <g stroke="chocolate" stroke-width="1">
    <line x1="430" y1="379" x2="393" y2="369"/>
    <circle cx="430" cy="379" r="2"/>
    <circle cx="393" cy="369" r="2"/>
  </g>
  <g stroke="chocolate" stroke-width="1">
    <line x1="414" y1="401" x2="392" y2="393"/>
    <circle cx="414" cy="401" r="2"/>
    <circle cx="392" cy="393" r="2"/>
  </g>
  <g stroke="chocolate" stroke-width="1">
    <line x1="317" y1="373" x2="404" y2="335"/>
    <circle cx="317" cy="373" r="2"/>
    <circle cx="404" cy="335" r="2"/>
  </g>
  <g stroke="chocolate" stroke-width="1">
    <line x1="377" y1="357" x2="404" y2="335"/>
    <circle cx="377" cy="357" r="2"/>
    <circle cx="404" cy="335" r="2"/>
  </g>
  <g stroke="chocolate" stroke-width="1">
    <line x1="389" y1="435" x2="439" y2="367"/>
    <circle cx="389" cy="435" r="2"/>
    <circle cx="439" cy="367" r="2"/>
  </g>
  <g stroke="chocolate" stroke-width="1">
    <line x1="372" y1="441" x2="317" y2="373"/>
    <circle cx="372" cy="441" r="2"/>
    <circle cx="317" cy="373" r="2"/>
  </g>
  <g stroke="chocolate" stroke-width="1">
    <line x1="439" y1="367" x2="435" y2="364"/>
    <circle cx="439" cy="367" r="2"/>
    <circle cx="435" cy="364" r="2"/>
  </g>
  <g stroke="chocolate" stroke-width="1">
    <line x1="414" y1="401" x2="377" y2="357"/>
    <circle cx="414" cy="401" r="2"/>
    <circle cx="377" cy="357" r="2"/>
  </g>
  <g stroke="chocolate" stroke-width="1">
    <line x1="268" y1="454" x2="176" y2="165"/>
    <circle cx="268" cy="454" r="2"/>
    <circle cx="176" cy="165" r="2"/>
  </g>
  <g stroke="chocolate" stroke-width="1">
    <line x1="430" y1="379" x2="404" y2="335"/>
    <circle cx="430" cy="379" r="2"/>
    <circle cx="404" cy="335" r="2"/>
  </g>
  <g stroke="chocolate" stroke-width="1">
    <line x1="293" y1="471" x2="317" y2="373"/>
    <circle cx="293" cy="471" r="2"/>
    <circle cx="317" cy="373" r="2"/>
  </g>
  <g stroke="chocolate" stroke-width="1">
    <line x1="389" y1="435" x2="393" y2="369"/>
    <circle cx="389" cy="435" r="2"/>
    <circle cx="393" cy="369" r="2"/>
  </g>
  <g stroke="chocolate" stroke-width="1">
    <line x1="280" y1="453" x2="265" y2="39"/>
    <circle cx="280" cy="453" r="2"/>
    <circle cx="265" cy="39" r="2"/>
  </g>
  <g stroke="chocolate" stroke-width="1">
    <line x1="372" y1="441" x2="361" y2="158"/>
    <circle cx="372" cy="441" r="2"/>
    <circle cx="361" cy="158" r="2"/>
  </g>
  <g stroke="chocolate" stroke-width="1">
    <line x1="427" y1="383" x2="422" y2="250"/>
    <circle cx="427" cy="383" r="2"/>
    <circle cx="422" cy="250" r="2"/>
  </g>
  <g stroke="chocolate" stroke-width="1">
    <line x1="176" y1="165" x2="361" y2="158"/>
    <circle cx="176" cy="165" r="2"/>
    <circle cx="361" cy="158" r="2"/>
  </g>
  <g stroke="chocolate" stroke-width="1">
    <line x1="435" y1="364" x2="422" y2="251"/>
    <circle cx="435" cy="364" r="2"/>
    <circle cx="422" cy="251" r="2"/>
  </g>
  <g stroke="chocolate" stroke-width="1">
    <line x1="439" y1="367" x2="422" y2="251"/>
    <circle cx="439" cy="367" r="2"/>
    <circle cx="422" cy="251" r="2"/>
  </g>
  <g stroke="chocolate" stroke-width="1">
    <line x1="422" y1="250" x2="278" y2="47"/>
    <circle cx="422" cy="250" r="2"/>
    <circle cx="278" cy="47" r="2"/>
  </g>
  <g stroke="chocolate" stroke-width="1">
    <line x1="422" y1="251" x2="422" y2="250"/>
    <circle cx="422" cy="251" r="2"/>
    <circle cx="422" cy="250" r="2"/>
  </g>
  <g stroke="chocolate" stroke-width="1">
    <line x1="422" y1="250" x2="321" y2="48"/>
    <circle cx="422" cy="250" r="2"/>
    <circle cx="321" cy="48" r="2"/>
  </g>
  <g stroke="chocolate" stroke-width="1">
    <line x1="303" y1="66" x2="285" y2="42"/>
    <circle cx="303" cy="66" r="2"/>
    <circle cx="285" cy="42" r="2"/>
  </g>
  <g stroke="chocolate" stroke-width="1">
    <line x1="303" y1="66" x2="265" y2="39"/>
    <circle cx="303" cy="66" r="2"/>
    <circle cx="265" cy="39" r="2"/>
  </g>
  <g stroke="chocolate" stroke-width="1">
    <line x1="303" y1="66" x2="321" y2="48"/>
    <circle cx="303" cy="66" r="2"/>
    <circle cx="321" cy="48" r="2"/>
  </g>
  <g stroke="chocolate" stroke-width="1">
    <line x1="71" y1="315" x2="265" y2="39"/>
    <circle cx="71" cy="315" r="2"/>
    <circle cx="265" cy="39" r="2"/>
  </g>
  <g stroke="chocolate" stroke-width="1">
    <line x1="278" y1="47" x2="285" y2="42"/>
    <circle cx="278" cy="47" r="2"/>
    <circle cx="285" cy="42" r="2"/>
  </g>
  <g stroke="chocolate" stroke-width="1">
    <line x1="321" y1="48" x2="265" y2="39"/>
    <circle cx="321" cy="48" r="2"/>
    <circle cx="265" cy="39" r="2"/>
  </g>
  <g stroke="black" stroke-width="1">
    <line x1="5" y1="5" x2="505" y2="5"/>
    <line x1="5" y1="5" x2="5" y2="505"/>
    <line x1="505" y1="505" x2="5" y2="505"/>
    <line x1="505" y1="505" x2="505" y2="5"/>
    <line x1="105" y1="2" x2="105" y2="8"/>
    <line x1="2" y1="105" x2="8" y2="105"/>
    <line x1="105" y1="502" x2="105" y2="508"/>
    <line x1="502" y1="105" x2="508" y2="105"/>
    <line x1="205" y1="2" x2="205" y2="8"/>
    <line x1="2" y1="205" x2="8" y2="205"/>
    <line x1="205" y1="502" x2="205" y2="508"/>
    <line x1="502" y1="205" x2="508" y2="205"/>
    <line x1="305" y1="2" x2="305" y2="8"/>
    <line x1="2" y1="305" x2="8" y2="305"/>
    <line x1="305" y1="502" x2="305" y2="508"/>
    <line x1="502" y1="305" x2="508" y2="305"/>
    <line x1="405" y1="2" x2="405" y2="8"/>
    <line x1="2" y1="405" x2="8" y2="405"/>
    <line x1="405" y1="502" x2="405" y2="508"/>
    <line x1="502" y1="405" x2="508" y2="405"/>
  </g>
  <g stroke="gray" stroke-width="1" stroke-dasharray="5,5">
    <line x1="105" y1="5" x2="105" y2="505"/>
    <line x1="5" y1="105" x2="505" y2="105"/>
    <line x1="205" y1="5" x2="205" y2="505"/>
    <line x1="5" y1="205" x2="505" y2="205"/>
    <line x1="305" y1="5" x2="305" y2="505"/>
    <line x1="5" y1="305" x2="505" y2="305"/>
    <line x1="405" y1="5" x2="405" y2="505"/>
    <line x1="5" y1="405" x2="505" y2="405"/>
  </g>
</svg>
