<?xml version="1.0" standalone="no"?>
<!DOCTYPE svg PUBLIC "-//W3C//DTD SVG 1.1//EN" 
  "http://www.w3.org/Graphics/SVG/1.1/DTD/svg11.dtd">
<svg width="512" height="512" version="1.1" id="toplevel"
    xmlns="http://www.w3.org/2000/svg"
    xmlns:xlink="http://www.w3.org/1999/xlink">
  <polygon points="388,425 451,361 454,362 507,273 394,206 398,147 366,145 392,50 391,48 386,52 228,107 220,190 210,198 71,215 68,214 5,292 52,329 224,328"
           fill="bisque"/>
  <g stroke="chocolate" stroke-width="1">
    <line x1="454" y1="362" x2="507" y2="273"/>
    <circle cx="454" cy="362" r="2"/>
    <circle cx="507" cy="273" r="2"/>
  </g>
  <g stroke="chocolate" stroke-width="1">
    <line x1="388" y1="425" x2="454" y2="358"/>
    <circle cx="388" cy="425" r="2"/>
    <circle cx="454" cy="358" r="2"/>
  </g>
  <g stroke="chocolate" stroke-width="1">
    <line x1="380" y1="420" x2="392" y2="413"/>
    <circle cx="380" cy="420" r="2"/>
    <circle cx="392" cy="413" r="2"/>
  </g>
  <g stroke="chocolate" stroke-width="1">
    <line x1="388" y1="425" x2="392" y2="413"/>
    <circle cx="388" cy="425" r="2"/>
    <circle cx="392" cy="413" r="2"/>
  </g>
  <g stroke="chocolate" stroke-width="1">
    <line x1="315" y1="328" x2="392" y2="50"/>
    <circle cx="315" cy="328" r="2"/>
    <circle cx="392" cy="50" r="2"/>
  </g>
  <g stroke="chocolate" stroke-width="1">
    <line x1="260" y1="350" x2="346" y2="182"/>
    <circle cx="260" cy="350" r="2"/>
    <circle cx="346" cy="182" r="2"/>
  </g>
  <g stroke="chocolate" stroke-width="1">
    <line x1="260" y1="350" x2="278" y2="323"/>
    <circle cx="260" cy="350" r="2"/>
    <circle cx="278" cy="323" r="2"/>
  </g>
  <g stroke="chocolate" stroke-width="1">
    <line x1="268" y1="354" x2="278" y2="323"/>
    <circle cx="268" cy="354" r="2"/>
    <circle cx="278" cy="323" r="2"/>
  </g>
  <g stroke="chocolate" stroke-width="1">
    <line x1="268" y1="354" x2="314" y2="306"/>
    <circle cx="268" cy="354" r="2"/>
    <circle cx="314" cy="306" r="2"/>
  </g>
  <g stroke="chocolate" stroke-width="1">
    <line x1="204" y1="317" x2="221" y2="271"/>
    <circle cx="204" cy="317" r="2"/>
    <circle cx="221" cy="271" r="2"/>
  </g>
  <g stroke="chocolate" stroke-width="1">
    <line x1="208" y1="302" x2="221" y2="271"/>
    <circle cx="208" cy="302" r="2"/>
    <circle cx="221" cy="271" r="2"/>
  </g>
  <g stroke="chocolate" stroke-width="1">
    <line x1="211" y1="321" x2="228" y2="290"/>
    <circle cx="211" cy="321" r="2"/>
    <circle cx="228" cy="290" r="2"/>
  </g>
  <g stroke="chocolate" stroke-width="1">
    <line x1="211" y1="321" x2="324" y2="142"/>
    <circle cx="211" cy="321" r="2"/>
    <circle cx="324" cy="142" r="2"/>
  </g>
  <g stroke="chocolate" stroke-width="1">
    <line x1="380" y1="420" x2="398" y2="147"/>
    <circle cx="380" cy="420" r="2"/>
    <circle cx="398" cy="147" r="2"/>
  </g>
  <g stroke="chocolate" stroke-width="1">
    <line x1="208" y1="302" x2="228" y2="107"/>
    <circle cx="208" cy="302" r="2"/>
    <circle cx="228" cy="107" r="2"/>
  </g>
  <g stroke="chocolate" stroke-width="1">
    <line x1="204" y1="317" x2="228" y2="290"/>
    <circle cx="204" cy="317" r="2"/>
    <circle cx="228" cy="290" r="2"/>
  </g>
  <g stroke="chocolate" stroke-width="1">
    <line x1="68" y1="216" x2="68" y2="214"/>
    <circle cx="68" cy="216" r="2"/>
    <circle cx="68" cy="214" r="2"/>
  </g>
  <g stroke="chocolate" stroke-width="1">
    <line x1="315" y1="328" x2="314" y2="306"/>
    <circle cx="315" cy="328" r="2"/>
    <circle cx="314" cy="306" r="2"/>
  </g>
  <g stroke="chocolate" stroke-width="1">
    <line x1="454" y1="362" x2="454" y2="358"/>
    <circle cx="454" cy="362" r="2"/>
    <circle cx="454" cy="358" r="2"/>
  </g>
  <g stroke="chocolate" stroke-width="1">
    <line x1="52" y1="329" x2="391" y2="48"/>
    <circle cx="52" cy="329" r="2"/>
    <circle cx="391" cy="48" r="2"/>
  </g>
  <g stroke="chocolate" stroke-width="1">
    <line x1="5" y1="292" x2="68" y2="214"/>
    <circle cx="5" cy="292" r="2"/>
    <circle cx="68" cy="214" r="2"/>
  </g>
  <g stroke="chocolate" stroke-width="1">
    <line x1="52" y1="329" x2="5" y2="292"/>
    <circle cx="52" cy="329" r="2"/>
    <circle cx="5" cy="292" r="2"/>
  </g>
  <g stroke="chocolate" stroke-width="1">
    <line x1="132" y1="274" x2="68" y2="216"/>
    <circle cx="132" cy="274" r="2"/>
    <circle cx="68" cy="216" r="2"/>
  </g>
  <g stroke="chocolate" stroke-width="1">
    <line x1="52" y1="329" x2="315" y2="328"/>
    <circle cx="52" cy="329" r="2"/>
    <circle cx="315" cy="328" r="2"/>
  </g>
  <g stroke="chocolate" stroke-width="1">
    <line x1="346" y1="182" x2="324" y2="142"/>
    <circle cx="346" cy="182" r="2"/>
    <circle cx="324" cy="142" r="2"/>
  </g>
  <g stroke="chocolate" stroke-width="1">
    <line x1="388" y1="425" x2="132" y2="274"/>
    <circle cx="388" cy="425" r="2"/>
    <circle cx="132" cy="274" r="2"/>
  </g>
  <g stroke="chocolate" stroke-width="1">
    <line x1="392" y1="413" x2="228" y2="290"/>
    <circle cx="392" cy="413" r="2"/>
    <circle cx="228" cy="290" r="2"/>
  </g>
  <g stroke="chocolate" stroke-width="1">
    <line x1="315" y1="328" x2="208" y2="302"/>
    <circle cx="315" cy="328" r="2"/>
    <circle cx="208" cy="302" r="2"/>
  </g>
  <g stroke="chocolate" stroke-width="1">
    <line x1="454" y1="362" x2="208" y2="302"/>
    <circle cx="454" cy="362" r="2"/>
    <circle cx="208" cy="302" r="2"/>
  </g>
  <g stroke="chocolate" stroke-width="1">
    <line x1="278" y1="323" x2="132" y2="274"/>
    <circle cx="278" cy="323" r="2"/>
    <circle cx="132" cy="274" r="2"/>
  </g>
  <g stroke="chocolate" stroke-width="1">
    <line x1="278" y1="323" x2="228" y2="290"/>
    <circle cx="278" cy="323" r="2"/>
    <circle cx="228" cy="290" r="2"/>
  </g>
  <g stroke="chocolate" stroke-width="1">
    <line x1="454" y1="358" x2="68" y2="214"/>
    <circle cx="454" cy="358" r="2"/>
    <circle cx="68" cy="214" r="2"/>
  </g>
  <g stroke="chocolate" stroke-width="1">
    <line x1="68" y1="216" x2="346" y2="182"/>
    <circle cx="68" cy="216" r="2"/>
    <circle cx="346" cy="182" r="2"/>
  </g>
  <g stroke="chocolate" stroke-width="1">
    <line x1="228" y1="107" x2="392" y2="50"/>
    <circle cx="228" cy="107" r="2"/>
    <circle cx="392" cy="50" r="2"/>
  </g>
  <g stroke="chocolate" stroke-width="1">
    <line x1="392" y1="50" x2="391" y2="48"/>
    <circle cx="392" cy="50" r="2"/>
    <circle cx="391" cy="48" r="2"/>
  </g>
  <g stroke="chocolate" stroke-width="1">
    <line x1="507" y1="273" x2="228" y2="107"/>
    <circle cx="507" cy="273" r="2"/>
    <circle cx="228" cy="107" r="2"/>
  </g>
  <g stroke="chocolate" stroke-width="1">
    <line x1="398" y1="147" x2="324" y2="142"/>
    <circle cx="398" cy="147" r="2"/>
    <circle cx="324" cy="142" r="2"/>
  </g>
  <g stroke="black" stroke-width="1">
    <line x1="6" y1="6" x2="506" y2="6"/>
    <line x1="6" y1="6" x2="6" y2="506"/>
    <line x1="506" y1="506" x2="6" y2="506"/>
    <line x1="506" y1="506" x2="506" y2="6"/>
    <line x1="106" y1="3" x2="106" y2="9"/>
    <line x1="3" y1="106" x2="9" y2="106"/>
    <line x1="106" y1="503" x2="106" y2="509"/>
    <line x1="503" y1="106" x2="509" y2="106"/>
    <line x1="206" y1="3" x2="206" y2="9"/>
    <line x1="3" y1="206" x2="9" y2="206"/>
    <line x1="206" y1="503" x2="206" y2="509"/>
    <line x1="503" y1="206" x2="509" y2="206"/>
    <line x1="306" y1="3" x2="306" y2="9"/>
    <line x1="3" y1="306" x2="9" y2="306"/>
    <line x1="306" y1="503" x2="306" y2="509"/>
    <line x1="503" y1="306" x2="509" y2="306"/>
    <line x1="406" y1="3" x2="406" y2="9"/>
    <line x1="3" y1="406" x2="9" y2="406"/>
    <line x1="406" y1="503" x2="406" y2="509"/>
    <line x1="503" y1="406" x2="509" y2="406"/>
  </g>
  <g stroke="gray" stroke-width="1" stroke-dasharray="5,5">
    <line x1="106" y1="6" x2="106" y2="506"/>
    <line x1="6" y1="106" x2="506" y2="106"/>
    <line x1="206" y1="6" x2="206" y2="506"/>
    <line x1="6" y1="206" x2="506" y2="206"/>
    <line x1="306" y1="6" x2="306" y2="506"/>
    <line x1="6" y1="306" x2="506" y2="306"/>
    <line x1="406" y1="6" x2="406" y2="506"/>
    <line x1="6" y1="406" x2="506" y2="406"/>
  </g>
</svg>
