<?xml version="1.0" standalone="no"?>
<!DOCTYPE svg PUBLIC "-//W3C//DTD SVG 1.1//EN" 
  "http://www.w3.org/Graphics/SVG/1.1/DTD/svg11.dtd">
<svg width="510" height="510" version="1.1" id="toplevel"
    xmlns="http://www.w3.org/2000/svg"
    xmlns:xlink="http://www.w3.org/1999/xlink">
  <polygon points="247,348 340,281 345,251 284,167 254,162 170,223 165,253 232,345 241,339"
           fill="bisque"/>
  <polygon points="243,324 183,240 267,180 327,263" fill="bisque"/>
  <g stroke="chocolate" stroke-width="1">
    <line x1="340" y1="281" x2="345" y2="251"/>
    <circle cx="340" cy="281" r="2"/>
    <circle cx="345" cy="251" r="2"/>
  </g>
  <g stroke="chocolate" stroke-width="1">
    <line x1="247" y1="348" x2="340" y2="281"/>
    <circle cx="247" cy="348" r="2"/>
    <circle cx="340" cy="281" r="2"/>
  </g>
  <g stroke="chocolate" stroke-width="1">
    <line x1="232" y1="345" x2="165" y2="253"/>
    <circle cx="232" cy="345" r="2"/>
    <circle cx="165" cy="253" r="2"/>
  </g>
  <g stroke="chocolate" stroke-width="1">
    <line x1="232" y1="345" x2="250" y2="333"/>
    <circle cx="232" cy="345" r="2"/>
    <circle cx="250" cy="333" r="2"/>
  </g>
  <g stroke="chocolate" stroke-width="1">
    <line x1="247" y1="348" x2="235" y2="330"/>
    <circle cx="247" cy="348" r="2"/>
    <circle cx="235" cy="330" r="2"/>
  </g>
  <g stroke="chocolate" stroke-width="1">
    <line x1="250" y1="333" x2="170" y2="223"/>
    <circle cx="250" cy="333" r="2"/>
    <circle cx="170" cy="223" r="2"/>
  </g>
  <g stroke="chocolate" stroke-width="1">
    <line x1="235" y1="330" x2="345" y2="251"/>
    <circle cx="235" cy="330" r="2"/>
    <circle cx="345" cy="251" r="2"/>
  </g>
  <g stroke="chocolate" stroke-width="1">
    <line x1="165" y1="253" x2="170" y2="223"/>
    <circle cx="165" cy="253" r="2"/>
    <circle cx="170" cy="223" r="2"/>
  </g>
  <g stroke="chocolate" stroke-width="1">
    <line x1="340" y1="281" x2="254" y2="162"/>
    <circle cx="340" cy="281" r="2"/>
    <circle cx="254" cy="162" r="2"/>
  </g>
  <g stroke="chocolate" stroke-width="1">
    <line x1="345" y1="251" x2="284" y2="167"/>
    <circle cx="345" cy="251" r="2"/>
    <circle cx="284" cy="167" r="2"/>
  </g>
  <g stroke="chocolate" stroke-width="1">
    <line x1="165" y1="253" x2="284" y2="167"/>
    <circle cx="165" cy="253" r="2"/>
    <circle cx="284" cy="167" r="2"/>
  </g>
  <g stroke="chocolate" stroke-width="1">
    <line x1="170" y1="223" x2="254" y2="162"/>
    <circle cx="170" cy="223" r="2"/>
    <circle cx="254" cy="162" r="2"/>
  </g>
  <g stroke="chocolate" stroke-width="1">
    <line x1="284" y1="167" x2="254" y2="162"/>
    <circle cx="284" cy="167" r="2"/>
    <circle cx="254" cy="162" r="2"/>
  </g>
  <g stroke="black" stroke-width="1">
    <line x1="5" y1="5" x2="505" y2="5"/>
    <line x1="5" y1="5" x2="5" y2="505"/>
    <line x1="505" y1="505" x2="5" y2="505"/>
    <line x1="505" y1="505" x2="505" y2="5"/>
    <line x1="105" y1="2" x2="105" y2="8"/>
    <line x1="2" y1="105" x2="8" y2="105"/>
    <line x1="105" y1="502" x2="105" y2="508"/>
    <line x1="502" y1="105" x2="508" y2="105"/>
    <line x1="205" y1="2" x2="205" y2="8"/>
    <line x1="2" y1="205" x2="8" y2="205"/>
    <line x1="205" y1="502" x2="205" y2="508"/>
    <line x1="502" y1="205" x2="508" y2="205"/>
    <line x1="305" y1="2" x2="305" y2="8"/>
    <line x1="2" y1="305" x2="8" y2="305"/>
    <line x1="305" y1="502" x2="305" y2="508"/>
    <line x1="502" y1="305" x2="508" y2="305"/>
    <line x1="405" y1="2" x2="405" y2="8"/>
    <line x1="2" y1="405" x2="8" y2="405"/>
    <line x1="405" y1="502" x2="405" y2="508"/>
    <line x1="502" y1="405" x2="508" y2="405"/>
  </g>
  <g stroke="gray" stroke-width="1" stroke-dasharray="5,5">
    <line x1="105" y1="5" x2="105" y2="505"/>
    <line x1="5" y1="105" x2="505" y2="105"/>
    <line x1="205" y1="5" x2="205" y2="505"/>
    <line x1="5" y1="205" x2="505" y2="205"/>
    <line x1="305" y1="5" x2="305" y2="505"/>
    <line x1="5" y1="305" x2="505" y2="305"/>
    <line x1="405" y1="5" x2="405" y2="505"/>
    <line x1="5" y1="405" x2="505" y2="405"/>
  </g>
</svg>
