<?xml version="1.0" standalone="no"?>
<!DOCTYPE svg PUBLIC "-//W3C//DTD SVG 1.1//EN" 
  "http://www.w3.org/Graphics/SVG/1.1/DTD/svg11.dtd">
<svg width="510" height="510" version="1.1" id="toplevel"
    xmlns="http://www.w3.org/2000/svg"
    xmlns:xlink="http://www.w3.org/1999/xlink">
  <polygon points="234,347 335,293 344,264 296,173 267,163 175,212 166,241 219,342 229,337"
           fill="bisque"/>
  <polygon points="233,322 185,231 277,183 325,274" fill="bisque"/>
  <g stroke="chocolate" stroke-width="1">
    <line x1="335" y1="293" x2="344" y2="264"/>
    <circle cx="335" cy="293" r="2"/>
    <circle cx="344" cy="264" r="2"/>
  </g>
  <g stroke="chocolate" stroke-width="1">
    <line x1="234" y1="347" x2="335" y2="293"/>
    <circle cx="234" cy="347" r="2"/>
    <circle cx="335" cy="293" r="2"/>
  </g>
  <g stroke="chocolate" stroke-width="1">
    <line x1="219" y1="342" x2="166" y2="241"/>
    <circle cx="219" cy="342" r="2"/>
    <circle cx="166" cy="241" r="2"/>
  </g>
  <g stroke="chocolate" stroke-width="1">
    <line x1="219" y1="342" x2="238" y2="332"/>
    <circle cx="219" cy="342" r="2"/>
    <circle cx="238" cy="332" r="2"/>
  </g>
  <g stroke="chocolate" stroke-width="1">
    <line x1="234" y1="347" x2="224" y2="327"/>
    <circle cx="234" cy="347" r="2"/>
    <circle cx="224" cy="327" r="2"/>
  </g>
  <g stroke="chocolate" stroke-width="1">
    <line x1="238" y1="332" x2="175" y2="212"/>
    <circle cx="238" cy="332" r="2"/>
    <circle cx="175" cy="212" r="2"/>
  </g>
  <g stroke="chocolate" stroke-width="1">
    <line x1="224" y1="327" x2="344" y2="264"/>
    <circle cx="224" cy="327" r="2"/>
    <circle cx="344" cy="264" r="2"/>
  </g>
  <g stroke="chocolate" stroke-width="1">
    <line x1="166" y1="241" x2="175" y2="212"/>
    <circle cx="166" cy="241" r="2"/>
    <circle cx="175" cy="212" r="2"/>
  </g>
  <g stroke="chocolate" stroke-width="1">
    <line x1="335" y1="293" x2="267" y2="163"/>
    <circle cx="335" cy="293" r="2"/>
    <circle cx="267" cy="163" r="2"/>
  </g>
  <g stroke="chocolate" stroke-width="1">
    <line x1="344" y1="264" x2="296" y2="173"/>
    <circle cx="344" cy="264" r="2"/>
    <circle cx="296" cy="173" r="2"/>
  </g>
  <g stroke="chocolate" stroke-width="1">
    <line x1="166" y1="241" x2="296" y2="173"/>
    <circle cx="166" cy="241" r="2"/>
    <circle cx="296" cy="173" r="2"/>
  </g>
  <g stroke="chocolate" stroke-width="1">
    <line x1="175" y1="212" x2="267" y2="163"/>
    <circle cx="175" cy="212" r="2"/>
    <circle cx="267" cy="163" r="2"/>
  </g>
  <g stroke="chocolate" stroke-width="1">
    <line x1="296" y1="173" x2="267" y2="163"/>
    <circle cx="296" cy="173" r="2"/>
    <circle cx="267" cy="163" r="2"/>
  </g>
  <g stroke="black" stroke-width="1">
    <line x1="5" y1="5" x2="505" y2="5"/>
    <line x1="5" y1="5" x2="5" y2="505"/>
    <line x1="505" y1="505" x2="5" y2="505"/>
    <line x1="505" y1="505" x2="505" y2="5"/>
    <line x1="105" y1="2" x2="105" y2="8"/>
    <line x1="2" y1="105" x2="8" y2="105"/>
    <line x1="105" y1="502" x2="105" y2="508"/>
    <line x1="502" y1="105" x2="508" y2="105"/>
    <line x1="205" y1="2" x2="205" y2="8"/>
    <line x1="2" y1="205" x2="8" y2="205"/>
    <line x1="205" y1="502" x2="205" y2="508"/>
    <line x1="502" y1="205" x2="508" y2="205"/>
    <line x1="305" y1="2" x2="305" y2="8"/>
    <line x1="2" y1="305" x2="8" y2="305"/>
    <line x1="305" y1="502" x2="305" y2="508"/>
    <line x1="502" y1="305" x2="508" y2="305"/>
    <line x1="405" y1="2" x2="405" y2="8"/>
    <line x1="2" y1="405" x2="8" y2="405"/>
    <line x1="405" y1="502" x2="405" y2="508"/>
    <line x1="502" y1="405" x2="508" y2="405"/>
  </g>
  <g stroke="gray" stroke-width="1" stroke-dasharray="5,5">
    <line x1="105" y1="5" x2="105" y2="505"/>
    <line x1="5" y1="105" x2="505" y2="105"/>
    <line x1="205" y1="5" x2="205" y2="505"/>
    <line x1="5" y1="205" x2="505" y2="205"/>
    <line x1="305" y1="5" x2="305" y2="505"/>
    <line x1="5" y1="305" x2="505" y2="305"/>
    <line x1="405" y1="5" x2="405" y2="505"/>
    <line x1="5" y1="405" x2="505" y2="405"/>
  </g>
</svg>
