<?xml version="1.0" standalone="no"?>
<!DOCTYPE svg PUBLIC "-//W3C//DTD SVG 1.1//EN" 
  "http://www.w3.org/Graphics/SVG/1.1/DTD/svg11.dtd">
<svg width="510" height="510" version="1.1" id="toplevel"
    xmlns="http://www.w3.org/2000/svg"
    xmlns:xlink="http://www.w3.org/1999/xlink">
  <polygon points="284,323 300,309 314,311 323,211 309,210 295,194 225,187 193,214 187,284 213,316"
           fill="bisque"/>
  <polygon points="286,293 216,287 222,217 293,223" fill="bisque"/>
  <g stroke="chocolate" stroke-width="1">
    <line x1="213" y1="316" x2="187" y2="284"/>
    <circle cx="213" cy="316" r="2"/>
    <circle cx="187" cy="284" r="2"/>
  </g>
  <g stroke="chocolate" stroke-width="1">
    <line x1="284" y1="323" x2="213" y2="316"/>
    <circle cx="284" cy="323" r="2"/>
    <circle cx="213" cy="316" r="2"/>
  </g>
  <g stroke="chocolate" stroke-width="1">
    <line x1="314" y1="311" x2="323" y2="211"/>
    <circle cx="314" cy="311" r="2"/>
    <circle cx="323" cy="211" r="2"/>
  </g>
  <g stroke="chocolate" stroke-width="1">
    <line x1="284" y1="323" x2="316" y2="296"/>
    <circle cx="284" cy="323" r="2"/>
    <circle cx="316" cy="296" r="2"/>
  </g>
  <g stroke="chocolate" stroke-width="1">
    <line x1="314" y1="311" x2="285" y2="308"/>
    <circle cx="314" cy="311" r="2"/>
    <circle cx="285" cy="308" r="2"/>
  </g>
  <g stroke="chocolate" stroke-width="1">
    <line x1="284" y1="323" x2="295" y2="194"/>
    <circle cx="284" cy="323" r="2"/>
    <circle cx="295" cy="194" r="2"/>
  </g>
  <g stroke="chocolate" stroke-width="1">
    <line x1="213" y1="316" x2="225" y2="187"/>
    <circle cx="213" cy="316" r="2"/>
    <circle cx="225" cy="187" r="2"/>
  </g>
  <g stroke="chocolate" stroke-width="1">
    <line x1="187" y1="284" x2="193" y2="214"/>
    <circle cx="187" cy="284" r="2"/>
    <circle cx="193" cy="214" r="2"/>
  </g>
  <g stroke="chocolate" stroke-width="1">
    <line x1="316" y1="296" x2="187" y2="284"/>
    <circle cx="316" cy="296" r="2"/>
    <circle cx="187" cy="284" r="2"/>
  </g>
  <g stroke="chocolate" stroke-width="1">
    <line x1="322" y1="226" x2="295" y2="194"/>
    <circle cx="322" cy="226" r="2"/>
    <circle cx="295" cy="194" r="2"/>
  </g>
  <g stroke="chocolate" stroke-width="1">
    <line x1="322" y1="226" x2="193" y2="214"/>
    <circle cx="322" cy="226" r="2"/>
    <circle cx="193" cy="214" r="2"/>
  </g>
  <g stroke="chocolate" stroke-width="1">
    <line x1="323" y1="211" x2="294" y2="208"/>
    <circle cx="323" cy="211" r="2"/>
    <circle cx="294" cy="208" r="2"/>
  </g>
  <g stroke="chocolate" stroke-width="1">
    <line x1="193" y1="214" x2="225" y2="187"/>
    <circle cx="193" cy="214" r="2"/>
    <circle cx="225" cy="187" r="2"/>
  </g>
  <g stroke="chocolate" stroke-width="1">
    <line x1="295" y1="194" x2="225" y2="187"/>
    <circle cx="295" cy="194" r="2"/>
    <circle cx="225" cy="187" r="2"/>
  </g>
  <g stroke="black" stroke-width="1">
    <line x1="5" y1="5" x2="505" y2="5"/>
    <line x1="5" y1="5" x2="5" y2="505"/>
    <line x1="505" y1="505" x2="5" y2="505"/>
    <line x1="505" y1="505" x2="505" y2="5"/>
    <line x1="105" y1="2" x2="105" y2="8"/>
    <line x1="2" y1="105" x2="8" y2="105"/>
    <line x1="105" y1="502" x2="105" y2="508"/>
    <line x1="502" y1="105" x2="508" y2="105"/>
    <line x1="205" y1="2" x2="205" y2="8"/>
    <line x1="2" y1="205" x2="8" y2="205"/>
    <line x1="205" y1="502" x2="205" y2="508"/>
    <line x1="502" y1="205" x2="508" y2="205"/>
    <line x1="305" y1="2" x2="305" y2="8"/>
    <line x1="2" y1="305" x2="8" y2="305"/>
    <line x1="305" y1="502" x2="305" y2="508"/>
    <line x1="502" y1="305" x2="508" y2="305"/>
    <line x1="405" y1="2" x2="405" y2="8"/>
    <line x1="2" y1="405" x2="8" y2="405"/>
    <line x1="405" y1="502" x2="405" y2="508"/>
    <line x1="502" y1="405" x2="508" y2="405"/>
  </g>
  <g stroke="gray" stroke-width="1" stroke-dasharray="5,5">
    <line x1="105" y1="5" x2="105" y2="505"/>
    <line x1="5" y1="105" x2="505" y2="105"/>
    <line x1="205" y1="5" x2="205" y2="505"/>
    <line x1="5" y1="205" x2="505" y2="205"/>
    <line x1="305" y1="5" x2="305" y2="505"/>
    <line x1="5" y1="305" x2="505" y2="305"/>
    <line x1="405" y1="5" x2="405" y2="505"/>
    <line x1="5" y1="405" x2="505" y2="405"/>
  </g>
</svg>
