<?xml version="1.0" standalone="no"?>
<!DOCTYPE svg PUBLIC "-//W3C//DTD SVG 1.1//EN" 
  "http://www.w3.org/Graphics/SVG/1.1/DTD/svg11.dtd">
<svg width="708" height="708" version="1.1" id="toplevel"
    xmlns="http://www.w3.org/2000/svg"
    xmlns:xlink="http://www.w3.org/1999/xlink">
  <polygon points="455,703 470,702 545,617 570,553 616,223 620,182 419,5 88,379"
           fill="bisque"/>
  <g stroke="chocolate" stroke-width="1">
    <line x1="455" y1="703" x2="88" y2="379"/>
    <circle cx="455" cy="703" r="2"/>
    <circle cx="88" cy="379" r="2"/>
  </g>
  <g stroke="chocolate" stroke-width="1">
    <line x1="470" y1="702" x2="461" y2="695"/>
    <circle cx="470" cy="702" r="2"/>
    <circle cx="461" cy="695" r="2"/>
  </g>
  <g stroke="chocolate" stroke-width="1">
    <line x1="616" y1="223" x2="619" y2="183"/>
    <circle cx="616" cy="223" r="2"/>
    <circle cx="619" cy="183" r="2"/>
  </g>
  <g stroke="chocolate" stroke-width="1">
    <line x1="616" y1="223" x2="620" y2="182"/>
    <circle cx="616" cy="223" r="2"/>
    <circle cx="620" cy="182" r="2"/>
  </g>
  <g stroke="chocolate" stroke-width="1">
    <line x1="545" y1="617" x2="545" y2="242"/>
    <circle cx="545" cy="617" r="2"/>
    <circle cx="545" cy="242" r="2"/>
  </g>
  <g stroke="chocolate" stroke-width="1">
    <line x1="570" y1="553" x2="616" y2="223"/>
    <circle cx="570" cy="553" r="2"/>
    <circle cx="616" cy="223" r="2"/>
  </g>
  <g stroke="chocolate" stroke-width="1">
    <line x1="570" y1="553" x2="541" y2="221"/>
    <circle cx="570" cy="553" r="2"/>
    <circle cx="541" cy="221" r="2"/>
  </g>
  <g stroke="chocolate" stroke-width="1">
    <line x1="545" y1="617" x2="570" y2="553"/>
    <circle cx="545" cy="617" r="2"/>
    <circle cx="570" cy="553" r="2"/>
  </g>
  <g stroke="chocolate" stroke-width="1">
    <line x1="455" y1="703" x2="470" y2="702"/>
    <circle cx="455" cy="703" r="2"/>
    <circle cx="470" cy="702" r="2"/>
  </g>
  <g stroke="chocolate" stroke-width="1">
    <line x1="470" y1="702" x2="545" y2="617"/>
    <circle cx="470" cy="702" r="2"/>
    <circle cx="545" cy="617" r="2"/>
  </g>
  <g stroke="chocolate" stroke-width="1">
    <line x1="455" y1="703" x2="461" y2="695"/>
    <circle cx="455" cy="703" r="2"/>
    <circle cx="461" cy="695" r="2"/>
  </g>
  <g stroke="chocolate" stroke-width="1">
    <line x1="620" y1="182" x2="419" y2="5"/>
    <circle cx="620" cy="182" r="2"/>
    <circle cx="419" cy="5" r="2"/>
  </g>
  <g stroke="chocolate" stroke-width="1">
    <line x1="620" y1="184" x2="619" y2="183"/>
    <circle cx="620" cy="184" r="2"/>
    <circle cx="619" cy="183" r="2"/>
  </g>
  <g stroke="chocolate" stroke-width="1">
    <line x1="88" y1="379" x2="419" y2="5"/>
    <circle cx="88" cy="379" r="2"/>
    <circle cx="419" cy="5" r="2"/>
  </g>
  <g stroke="chocolate" stroke-width="1">
    <line x1="619" y1="183" x2="620" y2="182"/>
    <circle cx="619" cy="183" r="2"/>
    <circle cx="620" cy="182" r="2"/>
  </g>
  <g stroke="chocolate" stroke-width="1">
    <line x1="541" y1="221" x2="620" y2="184"/>
    <circle cx="541" cy="221" r="2"/>
    <circle cx="620" cy="184" r="2"/>
  </g>
  <g stroke="chocolate" stroke-width="1">
    <line x1="613" y1="242" x2="541" y2="221"/>
    <circle cx="613" cy="242" r="2"/>
    <circle cx="541" cy="221" r="2"/>
  </g>
  <g stroke="chocolate" stroke-width="1">
    <line x1="545" y1="242" x2="613" y2="242"/>
    <circle cx="545" cy="242" r="2"/>
    <circle cx="613" cy="242" r="2"/>
  </g>
  <g stroke="black" stroke-width="1">
    <line x1="104" y1="104" x2="604" y2="104"/>
    <line x1="104" y1="104" x2="104" y2="604"/>
    <line x1="604" y1="604" x2="104" y2="604"/>
    <line x1="604" y1="604" x2="604" y2="104"/>
    <line x1="204" y1="101" x2="204" y2="107"/>
    <line x1="101" y1="204" x2="107" y2="204"/>
    <line x1="204" y1="601" x2="204" y2="607"/>
    <line x1="601" y1="204" x2="607" y2="204"/>
    <line x1="304" y1="101" x2="304" y2="107"/>
    <line x1="101" y1="304" x2="107" y2="304"/>
    <line x1="304" y1="601" x2="304" y2="607"/>
    <line x1="601" y1="304" x2="607" y2="304"/>
    <line x1="404" y1="101" x2="404" y2="107"/>
    <line x1="101" y1="404" x2="107" y2="404"/>
    <line x1="404" y1="601" x2="404" y2="607"/>
    <line x1="601" y1="404" x2="607" y2="404"/>
    <line x1="504" y1="101" x2="504" y2="107"/>
    <line x1="101" y1="504" x2="107" y2="504"/>
    <line x1="504" y1="601" x2="504" y2="607"/>
    <line x1="601" y1="504" x2="607" y2="504"/>
  </g>
  <g stroke="gray" stroke-width="1" stroke-dasharray="5,5">
    <line x1="204" y1="104" x2="204" y2="604"/>
    <line x1="104" y1="204" x2="604" y2="204"/>
    <line x1="304" y1="104" x2="304" y2="604"/>
    <line x1="104" y1="304" x2="604" y2="304"/>
    <line x1="404" y1="104" x2="404" y2="604"/>
    <line x1="104" y1="404" x2="604" y2="404"/>
    <line x1="504" y1="104" x2="504" y2="604"/>
    <line x1="104" y1="504" x2="604" y2="504"/>
  </g>
</svg>
