<?xml version="1.0" standalone="no"?>
<!DOCTYPE svg PUBLIC "-//W3C//DTD SVG 1.1//EN" 
  "http://www.w3.org/Graphics/SVG/1.1/DTD/svg11.dtd">
<svg width="510" height="510" version="1.1" id="toplevel"
    xmlns="http://www.w3.org/2000/svg"
    xmlns:xlink="http://www.w3.org/1999/xlink">
  <polygon points="111,351 179,265 108,159 100,159 18,242 26,263 55,258 84,270 55,307"
           fill="bisque"/>
  <g stroke="chocolate" stroke-width="1">
    <line x1="111" y1="351" x2="179" y2="265"/>
    <circle cx="111" cy="351" r="2"/>
    <circle cx="179" cy="265" r="2"/>
  </g>
  <g stroke="chocolate" stroke-width="1">
    <line x1="134" y1="277" x2="179" y2="265"/>
    <circle cx="134" cy="277" r="2"/>
    <circle cx="179" cy="265" r="2"/>
  </g>
  <g stroke="chocolate" stroke-width="1">
    <line x1="55" y1="307" x2="137" y2="202"/>
    <circle cx="55" cy="307" r="2"/>
    <circle cx="137" cy="202" r="2"/>
  </g>
  <g stroke="chocolate" stroke-width="1">
    <line x1="134" y1="277" x2="155" y2="230"/>
    <circle cx="134" cy="277" r="2"/>
    <circle cx="155" cy="230" r="2"/>
  </g>
  <g stroke="chocolate" stroke-width="1">
    <line x1="120" y1="285" x2="148" y2="219"/>
    <circle cx="120" cy="285" r="2"/>
    <circle cx="148" cy="219" r="2"/>
  </g>
  <g stroke="chocolate" stroke-width="1">
    <line x1="26" y1="263" x2="98" y2="250"/>
    <circle cx="26" cy="263" r="2"/>
    <circle cx="98" cy="250" r="2"/>
  </g>
  <g stroke="chocolate" stroke-width="1">
    <line x1="111" y1="351" x2="55" y2="307"/>
    <circle cx="111" cy="351" r="2"/>
    <circle cx="55" cy="307" r="2"/>
  </g>
  <g stroke="chocolate" stroke-width="1">
    <line x1="83" y1="217" x2="108" y2="159"/>
    <circle cx="83" cy="217" r="2"/>
    <circle cx="108" cy="159" r="2"/>
  </g>
  <g stroke="chocolate" stroke-width="1">
    <line x1="83" y1="217" x2="137" y2="202"/>
    <circle cx="83" cy="217" r="2"/>
    <circle cx="137" cy="202" r="2"/>
  </g>
  <g stroke="chocolate" stroke-width="1">
    <line x1="18" y1="242" x2="100" y2="159"/>
    <circle cx="18" cy="242" r="2"/>
    <circle cx="100" cy="159" r="2"/>
  </g>
  <g stroke="chocolate" stroke-width="1">
    <line x1="120" y1="285" x2="18" y2="242"/>
    <circle cx="120" cy="285" r="2"/>
    <circle cx="18" cy="242" r="2"/>
  </g>
  <g stroke="chocolate" stroke-width="1">
    <line x1="27" y1="232" x2="155" y2="230"/>
    <circle cx="27" cy="232" r="2"/>
    <circle cx="155" cy="230" r="2"/>
  </g>
  <g stroke="chocolate" stroke-width="1">
    <line x1="98" y1="250" x2="100" y2="159"/>
    <circle cx="98" cy="250" r="2"/>
    <circle cx="100" cy="159" r="2"/>
  </g>
  <g stroke="chocolate" stroke-width="1">
    <line x1="26" y1="263" x2="27" y2="232"/>
    <circle cx="26" cy="263" r="2"/>
    <circle cx="27" cy="232" r="2"/>
  </g>
  <g stroke="chocolate" stroke-width="1">
    <line x1="26" y1="263" x2="18" y2="242"/>
    <circle cx="26" cy="263" r="2"/>
    <circle cx="18" cy="242" r="2"/>
  </g>
  <g stroke="chocolate" stroke-width="1">
    <line x1="98" y1="250" x2="72" y2="187"/>
    <circle cx="98" cy="250" r="2"/>
    <circle cx="72" cy="187" r="2"/>
  </g>
  <g stroke="chocolate" stroke-width="1">
    <line x1="134" y1="277" x2="83" y2="217"/>
    <circle cx="134" cy="277" r="2"/>
    <circle cx="83" cy="217" r="2"/>
  </g>
  <g stroke="chocolate" stroke-width="1">
    <line x1="148" y1="219" x2="72" y2="187"/>
    <circle cx="148" cy="219" r="2"/>
    <circle cx="72" cy="187" r="2"/>
  </g>
  <g stroke="chocolate" stroke-width="1">
    <line x1="100" y1="159" x2="108" y2="159"/>
    <circle cx="100" cy="159" r="2"/>
    <circle cx="108" cy="159" r="2"/>
  </g>
  <g stroke="chocolate" stroke-width="1">
    <line x1="179" y1="265" x2="108" y2="159"/>
    <circle cx="179" cy="265" r="2"/>
    <circle cx="108" cy="159" r="2"/>
  </g>
  <g stroke="black" stroke-width="1">
    <line x1="5" y1="5" x2="505" y2="5"/>
    <line x1="5" y1="5" x2="5" y2="505"/>
    <line x1="505" y1="505" x2="5" y2="505"/>
    <line x1="505" y1="505" x2="505" y2="5"/>
    <line x1="105" y1="2" x2="105" y2="8"/>
    <line x1="2" y1="105" x2="8" y2="105"/>
    <line x1="105" y1="502" x2="105" y2="508"/>
    <line x1="502" y1="105" x2="508" y2="105"/>
    <line x1="205" y1="2" x2="205" y2="8"/>
    <line x1="2" y1="205" x2="8" y2="205"/>
    <line x1="205" y1="502" x2="205" y2="508"/>
    <line x1="502" y1="205" x2="508" y2="205"/>
    <line x1="305" y1="2" x2="305" y2="8"/>
    <line x1="2" y1="305" x2="8" y2="305"/>
    <line x1="305" y1="502" x2="305" y2="508"/>
    <line x1="502" y1="305" x2="508" y2="305"/>
    <line x1="405" y1="2" x2="405" y2="8"/>
    <line x1="2" y1="405" x2="8" y2="405"/>
    <line x1="405" y1="502" x2="405" y2="508"/>
    <line x1="502" y1="405" x2="508" y2="405"/>
  </g>
  <g stroke="gray" stroke-width="1" stroke-dasharray="5,5">
    <line x1="105" y1="5" x2="105" y2="505"/>
    <line x1="5" y1="105" x2="505" y2="105"/>
    <line x1="205" y1="5" x2="205" y2="505"/>
    <line x1="5" y1="205" x2="505" y2="205"/>
    <line x1="305" y1="5" x2="305" y2="505"/>
    <line x1="5" y1="305" x2="505" y2="305"/>
    <line x1="405" y1="5" x2="405" y2="505"/>
    <line x1="5" y1="405" x2="505" y2="405"/>
  </g>
</svg>
