<?xml version="1.0" standalone="no"?>
<!DOCTYPE svg PUBLIC "-//W3C//DTD SVG 1.1//EN" 
  "http://www.w3.org/Graphics/SVG/1.1/DTD/svg11.dtd">
<svg width="510" height="510" version="1.1" id="toplevel"
    xmlns="http://www.w3.org/2000/svg"
    xmlns:xlink="http://www.w3.org/1999/xlink">
  <polygon points="293,486 245,370 476,274 149,140 101,24 34,188 130,418"
           fill="bisque"/>
  <g stroke="chocolate" stroke-width="1">
    <line x1="130" y1="418" x2="476" y2="274"/>
    <circle cx="130" cy="418" r="2"/>
    <circle cx="476" cy="274" r="2"/>
  </g>
  <g stroke="chocolate" stroke-width="1">
    <line x1="197" y1="255" x2="313" y2="207"/>
    <circle cx="197" cy="255" r="2"/>
    <circle cx="313" cy="207" r="2"/>
  </g>
  <g stroke="chocolate" stroke-width="1">
    <line x1="34" y1="188" x2="149" y2="140"/>
    <circle cx="34" cy="188" r="2"/>
    <circle cx="149" cy="140" r="2"/>
  </g>
  <g stroke="chocolate" stroke-width="1">
    <line x1="130" y1="418" x2="197" y2="255"/>
    <circle cx="130" cy="418" r="2"/>
    <circle cx="197" cy="255" r="2"/>
  </g>
  <g stroke="chocolate" stroke-width="1">
    <line x1="34" y1="188" x2="101" y2="24"/>
    <circle cx="34" cy="188" r="2"/>
    <circle cx="101" cy="24" r="2"/>
  </g>
  <g stroke="chocolate" stroke-width="1">
    <line x1="293" y1="486" x2="130" y2="418"/>
    <circle cx="293" cy="486" r="2"/>
    <circle cx="130" cy="418" r="2"/>
  </g>
  <g stroke="chocolate" stroke-width="1">
    <line x1="197" y1="255" x2="34" y2="188"/>
    <circle cx="197" cy="255" r="2"/>
    <circle cx="34" cy="188" r="2"/>
  </g>
  <g stroke="chocolate" stroke-width="1">
    <line x1="476" y1="274" x2="149" y2="140"/>
    <circle cx="476" cy="274" r="2"/>
    <circle cx="149" cy="140" r="2"/>
  </g>
  <g stroke="chocolate" stroke-width="1">
    <line x1="130" y1="418" x2="34" y2="188"/>
    <circle cx="130" cy="418" r="2"/>
    <circle cx="34" cy="188" r="2"/>
  </g>
  <g stroke="chocolate" stroke-width="1">
    <line x1="293" y1="486" x2="101" y2="24"/>
    <circle cx="293" cy="486" r="2"/>
    <circle cx="101" cy="24" r="2"/>
  </g>
  <g stroke="chocolate" stroke-width="1">
    <line x1="361" y1="322" x2="313" y2="207"/>
    <circle cx="361" cy="322" r="2"/>
    <circle cx="313" cy="207" r="2"/>
  </g>
  <g stroke="black" stroke-width="1">
    <line x1="5" y1="5" x2="505" y2="5"/>
    <line x1="5" y1="5" x2="5" y2="505"/>
    <line x1="505" y1="505" x2="5" y2="505"/>
    <line x1="505" y1="505" x2="505" y2="5"/>
    <line x1="105" y1="2" x2="105" y2="8"/>
    <line x1="2" y1="105" x2="8" y2="105"/>
    <line x1="105" y1="502" x2="105" y2="508"/>
    <line x1="502" y1="105" x2="508" y2="105"/>
    <line x1="205" y1="2" x2="205" y2="8"/>
    <line x1="2" y1="205" x2="8" y2="205"/>
    <line x1="205" y1="502" x2="205" y2="508"/>
    <line x1="502" y1="205" x2="508" y2="205"/>
    <line x1="305" y1="2" x2="305" y2="8"/>
    <line x1="2" y1="305" x2="8" y2="305"/>
    <line x1="305" y1="502" x2="305" y2="508"/>
    <line x1="502" y1="305" x2="508" y2="305"/>
    <line x1="405" y1="2" x2="405" y2="8"/>
    <line x1="2" y1="405" x2="8" y2="405"/>
    <line x1="405" y1="502" x2="405" y2="508"/>
    <line x1="502" y1="405" x2="508" y2="405"/>
  </g>
  <g stroke="gray" stroke-width="1" stroke-dasharray="5,5">
    <line x1="105" y1="5" x2="105" y2="505"/>
    <line x1="5" y1="105" x2="505" y2="105"/>
    <line x1="205" y1="5" x2="205" y2="505"/>
    <line x1="5" y1="205" x2="505" y2="205"/>
    <line x1="305" y1="5" x2="305" y2="505"/>
    <line x1="5" y1="305" x2="505" y2="305"/>
    <line x1="405" y1="5" x2="405" y2="505"/>
    <line x1="5" y1="405" x2="505" y2="405"/>
  </g>
</svg>
