<?xml version="1.0" standalone="no"?>
<!DOCTYPE svg PUBLIC "-//W3C//DTD SVG 1.1//EN" 
  "http://www.w3.org/Graphics/SVG/1.1/DTD/svg11.dtd">
<svg width="510" height="510" version="1.1" id="toplevel"
    xmlns="http://www.w3.org/2000/svg"
    xmlns:xlink="http://www.w3.org/1999/xlink">
  <polygon points="72,451 457,290 425,213 502,181 393,136 361,59 207,124 162,233 8,297"
           fill="bisque"/>
  <g stroke="chocolate" stroke-width="1">
    <line x1="72" y1="451" x2="457" y2="290"/>
    <circle cx="72" cy="451" r="2"/>
    <circle cx="457" cy="290" r="2"/>
  </g>
  <g stroke="chocolate" stroke-width="1">
    <line x1="40" y1="374" x2="502" y2="181"/>
    <circle cx="40" cy="374" r="2"/>
    <circle cx="502" cy="181" r="2"/>
  </g>
  <g stroke="chocolate" stroke-width="1">
    <line x1="348" y1="245" x2="393" y2="136"/>
    <circle cx="348" cy="245" r="2"/>
    <circle cx="393" cy="136" r="2"/>
  </g>
  <g stroke="chocolate" stroke-width="1">
    <line x1="8" y1="297" x2="393" y2="136"/>
    <circle cx="8" cy="297" r="2"/>
    <circle cx="393" cy="136" r="2"/>
  </g>
  <g stroke="chocolate" stroke-width="1">
    <line x1="72" y1="451" x2="207" y2="124"/>
    <circle cx="72" cy="451" r="2"/>
    <circle cx="207" cy="124" r="2"/>
  </g>
  <g stroke="chocolate" stroke-width="1">
    <line x1="207" y1="124" x2="361" y2="59"/>
    <circle cx="207" cy="124" r="2"/>
    <circle cx="361" cy="59" r="2"/>
  </g>
  <g stroke="chocolate" stroke-width="1">
    <line x1="72" y1="451" x2="8" y2="297"/>
    <circle cx="72" cy="451" r="2"/>
    <circle cx="8" cy="297" r="2"/>
  </g>
  <g stroke="chocolate" stroke-width="1">
    <line x1="303" y1="354" x2="207" y2="124"/>
    <circle cx="303" cy="354" r="2"/>
    <circle cx="207" cy="124" r="2"/>
  </g>
  <g stroke="chocolate" stroke-width="1">
    <line x1="380" y1="322" x2="284" y2="92"/>
    <circle cx="380" cy="322" r="2"/>
    <circle cx="284" cy="92" r="2"/>
  </g>
  <g stroke="chocolate" stroke-width="1">
    <line x1="457" y1="290" x2="361" y2="59"/>
    <circle cx="457" cy="290" r="2"/>
    <circle cx="361" cy="59" r="2"/>
  </g>
  <g stroke="chocolate" stroke-width="1">
    <line x1="502" y1="181" x2="393" y2="136"/>
    <circle cx="502" cy="181" r="2"/>
    <circle cx="393" cy="136" r="2"/>
  </g>
  <g stroke="black" stroke-width="1">
    <line x1="5" y1="5" x2="505" y2="5"/>
    <line x1="5" y1="5" x2="5" y2="505"/>
    <line x1="505" y1="505" x2="5" y2="505"/>
    <line x1="505" y1="505" x2="505" y2="5"/>
    <line x1="105" y1="2" x2="105" y2="8"/>
    <line x1="2" y1="105" x2="8" y2="105"/>
    <line x1="105" y1="502" x2="105" y2="508"/>
    <line x1="502" y1="105" x2="508" y2="105"/>
    <line x1="205" y1="2" x2="205" y2="8"/>
    <line x1="2" y1="205" x2="8" y2="205"/>
    <line x1="205" y1="502" x2="205" y2="508"/>
    <line x1="502" y1="205" x2="508" y2="205"/>
    <line x1="305" y1="2" x2="305" y2="8"/>
    <line x1="2" y1="305" x2="8" y2="305"/>
    <line x1="305" y1="502" x2="305" y2="508"/>
    <line x1="502" y1="305" x2="508" y2="305"/>
    <line x1="405" y1="2" x2="405" y2="8"/>
    <line x1="2" y1="405" x2="8" y2="405"/>
    <line x1="405" y1="502" x2="405" y2="508"/>
    <line x1="502" y1="405" x2="508" y2="405"/>
  </g>
  <g stroke="gray" stroke-width="1" stroke-dasharray="5,5">
    <line x1="105" y1="5" x2="105" y2="505"/>
    <line x1="5" y1="105" x2="505" y2="105"/>
    <line x1="205" y1="5" x2="205" y2="505"/>
    <line x1="5" y1="205" x2="505" y2="205"/>
    <line x1="305" y1="5" x2="305" y2="505"/>
    <line x1="5" y1="305" x2="505" y2="305"/>
    <line x1="405" y1="5" x2="405" y2="505"/>
    <line x1="5" y1="405" x2="505" y2="405"/>
  </g>
</svg>
