<?xml version="1.0" standalone="no"?>
<!DOCTYPE svg PUBLIC "-//W3C//DTD SVG 1.1//EN" 
  "http://www.w3.org/Graphics/SVG/1.1/DTD/svg11.dtd">
<svg width="510" height="510" version="1.1" id="toplevel"
    xmlns="http://www.w3.org/2000/svg"
    xmlns:xlink="http://www.w3.org/1999/xlink">
  <polygon points="192,352 255,323 255,188 192,138 152,147 101,276"
           fill="bisque"/>
  <polygon points="192,271 166,249 192,231" fill="bisque"/>
  <polygon points="192,208 189,203 192,202" fill="bisque"/>
  <g stroke="chocolate" stroke-width="1">
    <line x1="134" y1="278" x2="138" y2="215"/>
    <circle cx="134" cy="278" r="2"/>
    <circle cx="138" cy="215" r="2"/>
  </g>
  <g stroke="chocolate" stroke-width="1">
    <line x1="101" y1="276" x2="152" y2="147"/>
    <circle cx="101" cy="276" r="2"/>
    <circle cx="152" cy="147" r="2"/>
  </g>
  <g stroke="chocolate" stroke-width="1">
    <line x1="192" y1="352" x2="192" y2="138"/>
    <circle cx="192" cy="352" r="2"/>
    <circle cx="192" cy="138" r="2"/>
  </g>
  <g stroke="chocolate" stroke-width="1">
    <line x1="255" y1="323" x2="255" y2="188"/>
    <circle cx="255" cy="323" r="2"/>
    <circle cx="255" cy="188" r="2"/>
  </g>
  <g stroke="chocolate" stroke-width="1">
    <line x1="192" y1="352" x2="255" y2="323"/>
    <circle cx="192" cy="352" r="2"/>
    <circle cx="255" cy="323" r="2"/>
  </g>
  <g stroke="chocolate" stroke-width="1">
    <line x1="151" y1="259" x2="203" y2="224"/>
    <circle cx="151" cy="259" r="2"/>
    <circle cx="203" cy="224" r="2"/>
  </g>
  <g stroke="chocolate" stroke-width="1">
    <line x1="151" y1="259" x2="124" y2="218"/>
    <circle cx="151" cy="259" r="2"/>
    <circle cx="124" cy="218" r="2"/>
  </g>
  <g stroke="chocolate" stroke-width="1">
    <line x1="203" y1="224" x2="152" y2="147"/>
    <circle cx="203" cy="224" r="2"/>
    <circle cx="152" cy="147" r="2"/>
  </g>
  <g stroke="chocolate" stroke-width="1">
    <line x1="192" y1="352" x2="101" y2="276"/>
    <circle cx="192" cy="352" r="2"/>
    <circle cx="101" cy="276" r="2"/>
  </g>
  <g stroke="chocolate" stroke-width="1">
    <line x1="255" y1="323" x2="125" y2="214"/>
    <circle cx="255" cy="323" r="2"/>
    <circle cx="125" cy="214" r="2"/>
  </g>
  <g stroke="chocolate" stroke-width="1">
    <line x1="134" y1="278" x2="101" y2="276"/>
    <circle cx="134" cy="278" r="2"/>
    <circle cx="101" cy="276" r="2"/>
  </g>
  <g stroke="chocolate" stroke-width="1">
    <line x1="124" y1="218" x2="255" y2="188"/>
    <circle cx="124" cy="218" r="2"/>
    <circle cx="255" cy="188" r="2"/>
  </g>
  <g stroke="chocolate" stroke-width="1">
    <line x1="138" y1="215" x2="125" y2="214"/>
    <circle cx="138" cy="215" r="2"/>
    <circle cx="125" cy="214" r="2"/>
  </g>
  <g stroke="chocolate" stroke-width="1">
    <line x1="152" y1="147" x2="192" y2="138"/>
    <circle cx="152" cy="147" r="2"/>
    <circle cx="192" cy="138" r="2"/>
  </g>
  <g stroke="chocolate" stroke-width="1">
    <line x1="255" y1="188" x2="192" y2="138"/>
    <circle cx="255" cy="188" r="2"/>
    <circle cx="192" cy="138" r="2"/>
  </g>
  <g stroke="black" stroke-width="1">
    <line x1="5" y1="5" x2="505" y2="5"/>
    <line x1="5" y1="5" x2="5" y2="505"/>
    <line x1="505" y1="505" x2="5" y2="505"/>
    <line x1="505" y1="505" x2="505" y2="5"/>
    <line x1="105" y1="2" x2="105" y2="8"/>
    <line x1="2" y1="105" x2="8" y2="105"/>
    <line x1="105" y1="502" x2="105" y2="508"/>
    <line x1="502" y1="105" x2="508" y2="105"/>
    <line x1="205" y1="2" x2="205" y2="8"/>
    <line x1="2" y1="205" x2="8" y2="205"/>
    <line x1="205" y1="502" x2="205" y2="508"/>
    <line x1="502" y1="205" x2="508" y2="205"/>
    <line x1="305" y1="2" x2="305" y2="8"/>
    <line x1="2" y1="305" x2="8" y2="305"/>
    <line x1="305" y1="502" x2="305" y2="508"/>
    <line x1="502" y1="305" x2="508" y2="305"/>
    <line x1="405" y1="2" x2="405" y2="8"/>
    <line x1="2" y1="405" x2="8" y2="405"/>
    <line x1="405" y1="502" x2="405" y2="508"/>
    <line x1="502" y1="405" x2="508" y2="405"/>
  </g>
  <g stroke="gray" stroke-width="1" stroke-dasharray="5,5">
    <line x1="105" y1="5" x2="105" y2="505"/>
    <line x1="5" y1="105" x2="505" y2="105"/>
    <line x1="205" y1="5" x2="205" y2="505"/>
    <line x1="5" y1="205" x2="505" y2="205"/>
    <line x1="305" y1="5" x2="305" y2="505"/>
    <line x1="5" y1="305" x2="505" y2="305"/>
    <line x1="405" y1="5" x2="405" y2="505"/>
    <line x1="5" y1="405" x2="505" y2="405"/>
  </g>
</svg>
