<?xml version="1.0" standalone="no"?>
<!DOCTYPE svg PUBLIC "-//W3C//DTD SVG 1.1//EN" 
  "http://www.w3.org/Graphics/SVG/1.1/DTD/svg11.dtd">
<svg width="510" height="510" version="1.1" id="toplevel"
    xmlns="http://www.w3.org/2000/svg"
    xmlns:xlink="http://www.w3.org/1999/xlink">
  <polygon points="332,343 406,329 451,220 406,167 335,186 320,208 326,228 313,221 274,283"
           fill="bisque"/>
  <polygon points="359,280 342,263 349,247 375,240" fill="bisque"/>
  <g stroke="chocolate" stroke-width="1">
    <line x1="332" y1="343" x2="406" y2="329"/>
    <circle cx="332" cy="343" r="2"/>
    <circle cx="406" cy="329" r="2"/>
  </g>
  <g stroke="chocolate" stroke-width="1">
    <line x1="332" y1="251" x2="451" y2="220"/>
    <circle cx="332" cy="251" r="2"/>
    <circle cx="451" cy="220" r="2"/>
  </g>
  <g stroke="chocolate" stroke-width="1">
    <line x1="320" y1="208" x2="338" y2="205"/>
    <circle cx="320" cy="208" r="2"/>
    <circle cx="338" cy="205" r="2"/>
  </g>
  <g stroke="chocolate" stroke-width="1">
    <line x1="335" y1="186" x2="406" y2="167"/>
    <circle cx="335" cy="186" r="2"/>
    <circle cx="406" cy="167" r="2"/>
  </g>
  <g stroke="chocolate" stroke-width="1">
    <line x1="325" y1="300" x2="274" y2="283"/>
    <circle cx="325" cy="300" r="2"/>
    <circle cx="274" cy="283" r="2"/>
  </g>
  <g stroke="chocolate" stroke-width="1">
    <line x1="301" y1="289" x2="336" y2="237"/>
    <circle cx="301" cy="289" r="2"/>
    <circle cx="336" cy="237" r="2"/>
  </g>
  <g stroke="chocolate" stroke-width="1">
    <line x1="274" y1="283" x2="313" y2="221"/>
    <circle cx="274" cy="283" r="2"/>
    <circle cx="313" cy="221" r="2"/>
  </g>
  <g stroke="chocolate" stroke-width="1">
    <line x1="320" y1="208" x2="335" y2="186"/>
    <circle cx="320" cy="208" r="2"/>
    <circle cx="335" cy="186" r="2"/>
  </g>
  <g stroke="chocolate" stroke-width="1">
    <line x1="351" y1="243" x2="308" y2="228"/>
    <circle cx="351" cy="243" r="2"/>
    <circle cx="308" cy="228" r="2"/>
  </g>
  <g stroke="chocolate" stroke-width="1">
    <line x1="406" y1="329" x2="451" y2="220"/>
    <circle cx="406" cy="329" r="2"/>
    <circle cx="451" cy="220" r="2"/>
  </g>
  <g stroke="chocolate" stroke-width="1">
    <line x1="325" y1="300" x2="351" y2="243"/>
    <circle cx="325" cy="300" r="2"/>
    <circle cx="351" cy="243" r="2"/>
  </g>
  <g stroke="chocolate" stroke-width="1">
    <line x1="332" y1="343" x2="406" y2="167"/>
    <circle cx="332" cy="343" r="2"/>
    <circle cx="406" cy="167" r="2"/>
  </g>
  <g stroke="chocolate" stroke-width="1">
    <line x1="325" y1="300" x2="280" y2="274"/>
    <circle cx="325" cy="300" r="2"/>
    <circle cx="280" cy="274" r="2"/>
  </g>
  <g stroke="chocolate" stroke-width="1">
    <line x1="301" y1="289" x2="280" y2="274"/>
    <circle cx="301" cy="289" r="2"/>
    <circle cx="280" cy="274" r="2"/>
  </g>
  <g stroke="chocolate" stroke-width="1">
    <line x1="351" y1="243" x2="313" y2="221"/>
    <circle cx="351" cy="243" r="2"/>
    <circle cx="313" cy="221" r="2"/>
  </g>
  <g stroke="chocolate" stroke-width="1">
    <line x1="336" y1="237" x2="313" y2="221"/>
    <circle cx="336" cy="237" r="2"/>
    <circle cx="313" cy="221" r="2"/>
  </g>
  <g stroke="chocolate" stroke-width="1">
    <line x1="332" y1="343" x2="274" y2="283"/>
    <circle cx="332" cy="343" r="2"/>
    <circle cx="274" cy="283" r="2"/>
  </g>
  <g stroke="chocolate" stroke-width="1">
    <line x1="406" y1="329" x2="308" y2="228"/>
    <circle cx="406" cy="329" r="2"/>
    <circle cx="308" cy="228" r="2"/>
  </g>
  <g stroke="chocolate" stroke-width="1">
    <line x1="338" y1="205" x2="335" y2="186"/>
    <circle cx="338" cy="205" r="2"/>
    <circle cx="335" cy="186" r="2"/>
  </g>
  <g stroke="chocolate" stroke-width="1">
    <line x1="332" y1="251" x2="320" y2="208"/>
    <circle cx="332" cy="251" r="2"/>
    <circle cx="320" cy="208" r="2"/>
  </g>
  <g stroke="chocolate" stroke-width="1">
    <line x1="451" y1="220" x2="406" y2="167"/>
    <circle cx="451" cy="220" r="2"/>
    <circle cx="406" cy="167" r="2"/>
  </g>
  <g stroke="black" stroke-width="1">
    <line x1="5" y1="5" x2="505" y2="5"/>
    <line x1="5" y1="5" x2="5" y2="505"/>
    <line x1="505" y1="505" x2="5" y2="505"/>
    <line x1="505" y1="505" x2="505" y2="5"/>
    <line x1="105" y1="2" x2="105" y2="8"/>
    <line x1="2" y1="105" x2="8" y2="105"/>
    <line x1="105" y1="502" x2="105" y2="508"/>
    <line x1="502" y1="105" x2="508" y2="105"/>
    <line x1="205" y1="2" x2="205" y2="8"/>
    <line x1="2" y1="205" x2="8" y2="205"/>
    <line x1="205" y1="502" x2="205" y2="508"/>
    <line x1="502" y1="205" x2="508" y2="205"/>
    <line x1="305" y1="2" x2="305" y2="8"/>
    <line x1="2" y1="305" x2="8" y2="305"/>
    <line x1="305" y1="502" x2="305" y2="508"/>
    <line x1="502" y1="305" x2="508" y2="305"/>
    <line x1="405" y1="2" x2="405" y2="8"/>
    <line x1="2" y1="405" x2="8" y2="405"/>
    <line x1="405" y1="502" x2="405" y2="508"/>
    <line x1="502" y1="405" x2="508" y2="405"/>
  </g>
  <g stroke="gray" stroke-width="1" stroke-dasharray="5,5">
    <line x1="105" y1="5" x2="105" y2="505"/>
    <line x1="5" y1="105" x2="505" y2="105"/>
    <line x1="205" y1="5" x2="205" y2="505"/>
    <line x1="5" y1="205" x2="505" y2="205"/>
    <line x1="305" y1="5" x2="305" y2="505"/>
    <line x1="5" y1="305" x2="505" y2="305"/>
    <line x1="405" y1="5" x2="405" y2="505"/>
    <line x1="5" y1="405" x2="505" y2="405"/>
  </g>
</svg>
