<?xml version="1.0" standalone="no"?>
<!DOCTYPE svg PUBLIC "-//W3C//DTD SVG 1.1//EN" 
  "http://www.w3.org/Graphics/SVG/1.1/DTD/svg11.dtd">
<svg width="510" height="510" version="1.1" id="toplevel"
    xmlns="http://www.w3.org/2000/svg"
    xmlns:xlink="http://www.w3.org/1999/xlink">
  <polygon points="64,505 265,504 349,419 308,321 169,322 211,363 123,363 123,363 123,342 163,342 123,302 27,342 5,364"
           fill="bisque"/>
  <g stroke="chocolate" stroke-width="1">
    <line x1="265" y1="504" x2="349" y2="419"/>
    <circle cx="265" cy="504" r="2"/>
    <circle cx="349" cy="419" r="2"/>
  </g>
  <g stroke="chocolate" stroke-width="1">
    <line x1="268" y1="420" x2="325" y2="362"/>
    <circle cx="268" cy="420" r="2"/>
    <circle cx="325" cy="362" r="2"/>
  </g>
  <g stroke="chocolate" stroke-width="1">
    <line x1="125" y1="505" x2="308" y2="321"/>
    <circle cx="125" cy="505" r="2"/>
    <circle cx="308" cy="321" r="2"/>
  </g>
  <g stroke="chocolate" stroke-width="1">
    <line x1="64" y1="505" x2="122" y2="363"/>
    <circle cx="64" cy="505" r="2"/>
    <circle cx="122" cy="363" r="2"/>
  </g>
  <g stroke="chocolate" stroke-width="1">
    <line x1="64" y1="505" x2="265" y2="504"/>
    <circle cx="64" cy="505" r="2"/>
    <circle cx="265" cy="504" r="2"/>
  </g>
  <g stroke="chocolate" stroke-width="1">
    <line x1="123" y1="505" x2="123" y2="302"/>
    <circle cx="123" cy="505" r="2"/>
    <circle cx="123" cy="302" r="2"/>
  </g>
  <g stroke="chocolate" stroke-width="1">
    <line x1="123" y1="505" x2="122" y2="363"/>
    <circle cx="123" cy="505" r="2"/>
    <circle cx="122" cy="363" r="2"/>
  </g>
  <g stroke="chocolate" stroke-width="1">
    <line x1="122" y1="363" x2="122" y2="362"/>
    <circle cx="122" cy="363" r="2"/>
    <circle cx="122" cy="362" r="2"/>
  </g>
  <g stroke="chocolate" stroke-width="1">
    <line x1="64" y1="505" x2="5" y2="364"/>
    <circle cx="64" cy="505" r="2"/>
    <circle cx="5" cy="364" r="2"/>
  </g>
  <g stroke="chocolate" stroke-width="1">
    <line x1="82" y1="461" x2="123" y2="461"/>
    <circle cx="82" cy="461" r="2"/>
    <circle cx="123" cy="461" r="2"/>
  </g>
  <g stroke="chocolate" stroke-width="1">
    <line x1="125" y1="505" x2="82" y2="461"/>
    <circle cx="125" cy="505" r="2"/>
    <circle cx="82" cy="461" r="2"/>
  </g>
  <g stroke="chocolate" stroke-width="1">
    <line x1="5" y1="364" x2="27" y2="342"/>
    <circle cx="5" cy="364" r="2"/>
    <circle cx="27" cy="342" r="2"/>
  </g>
  <g stroke="chocolate" stroke-width="1">
    <line x1="268" y1="420" x2="349" y2="419"/>
    <circle cx="268" cy="420" r="2"/>
    <circle cx="349" cy="419" r="2"/>
  </g>
  <g stroke="chocolate" stroke-width="1">
    <line x1="265" y1="504" x2="122" y2="362"/>
    <circle cx="265" cy="504" r="2"/>
    <circle cx="122" cy="362" r="2"/>
  </g>
  <g stroke="chocolate" stroke-width="1">
    <line x1="27" y1="342" x2="123" y2="302"/>
    <circle cx="27" cy="342" r="2"/>
    <circle cx="123" cy="302" r="2"/>
  </g>
  <g stroke="chocolate" stroke-width="1">
    <line x1="349" y1="419" x2="308" y2="321"/>
    <circle cx="349" cy="419" r="2"/>
    <circle cx="308" cy="321" r="2"/>
  </g>
  <g stroke="chocolate" stroke-width="1">
    <line x1="5" y1="364" x2="325" y2="362"/>
    <circle cx="5" cy="364" r="2"/>
    <circle cx="325" cy="362" r="2"/>
  </g>
  <g stroke="chocolate" stroke-width="1">
    <line x1="163" y1="342" x2="123" y2="302"/>
    <circle cx="163" cy="342" r="2"/>
    <circle cx="123" cy="302" r="2"/>
  </g>
  <g stroke="chocolate" stroke-width="1">
    <line x1="27" y1="342" x2="163" y2="342"/>
    <circle cx="27" cy="342" r="2"/>
    <circle cx="163" cy="342" r="2"/>
  </g>
  <g stroke="chocolate" stroke-width="1">
    <line x1="268" y1="420" x2="169" y2="322"/>
    <circle cx="268" cy="420" r="2"/>
    <circle cx="169" cy="322" r="2"/>
  </g>
  <g stroke="chocolate" stroke-width="1">
    <line x1="169" y1="322" x2="308" y2="321"/>
    <circle cx="169" cy="322" r="2"/>
    <circle cx="308" cy="321" r="2"/>
  </g>
  <g stroke="black" stroke-width="1">
    <line x1="5" y1="5" x2="505" y2="5"/>
    <line x1="5" y1="5" x2="5" y2="505"/>
    <line x1="505" y1="505" x2="5" y2="505"/>
    <line x1="505" y1="505" x2="505" y2="5"/>
    <line x1="105" y1="2" x2="105" y2="8"/>
    <line x1="2" y1="105" x2="8" y2="105"/>
    <line x1="105" y1="502" x2="105" y2="508"/>
    <line x1="502" y1="105" x2="508" y2="105"/>
    <line x1="205" y1="2" x2="205" y2="8"/>
    <line x1="2" y1="205" x2="8" y2="205"/>
    <line x1="205" y1="502" x2="205" y2="508"/>
    <line x1="502" y1="205" x2="508" y2="205"/>
    <line x1="305" y1="2" x2="305" y2="8"/>
    <line x1="2" y1="305" x2="8" y2="305"/>
    <line x1="305" y1="502" x2="305" y2="508"/>
    <line x1="502" y1="305" x2="508" y2="305"/>
    <line x1="405" y1="2" x2="405" y2="8"/>
    <line x1="2" y1="405" x2="8" y2="405"/>
    <line x1="405" y1="502" x2="405" y2="508"/>
    <line x1="502" y1="405" x2="508" y2="405"/>
  </g>
  <g stroke="gray" stroke-width="1" stroke-dasharray="5,5">
    <line x1="105" y1="5" x2="105" y2="505"/>
    <line x1="5" y1="105" x2="505" y2="105"/>
    <line x1="205" y1="5" x2="205" y2="505"/>
    <line x1="5" y1="205" x2="505" y2="205"/>
    <line x1="305" y1="5" x2="305" y2="505"/>
    <line x1="5" y1="305" x2="505" y2="305"/>
    <line x1="405" y1="5" x2="405" y2="505"/>
    <line x1="5" y1="405" x2="505" y2="405"/>
  </g>
</svg>
