<?xml version="1.0" standalone="no"?>
<!DOCTYPE svg PUBLIC "-//W3C//DTD SVG 1.1//EN" 
  "http://www.w3.org/Graphics/SVG/1.1/DTD/svg11.dtd">
<svg width="538" height="538" version="1.1" id="toplevel"
    xmlns="http://www.w3.org/2000/svg"
    xmlns:xlink="http://www.w3.org/1999/xlink">
  <polygon points="301,533 505,388 527,139 403,128 378,5 133,54 11,272 185,370"
           fill="bisque"/>
  <g stroke="chocolate" stroke-width="1">
    <line x1="207" y1="382" x2="11" y2="272"/>
    <circle cx="207" cy="382" r="2"/>
    <circle cx="11" cy="272" r="2"/>
  </g>
  <g stroke="chocolate" stroke-width="1">
    <line x1="505" y1="388" x2="263" y2="283"/>
    <circle cx="505" cy="388" r="2"/>
    <circle cx="263" cy="283" r="2"/>
  </g>
  <g stroke="chocolate" stroke-width="1">
    <line x1="527" y1="139" x2="333" y2="122"/>
    <circle cx="527" cy="139" r="2"/>
    <circle cx="333" cy="122" r="2"/>
  </g>
  <g stroke="chocolate" stroke-width="1">
    <line x1="301" y1="533" x2="505" y2="388"/>
    <circle cx="301" cy="533" r="2"/>
    <circle cx="505" cy="388" r="2"/>
  </g>
  <g stroke="chocolate" stroke-width="1">
    <line x1="207" y1="382" x2="171" y2="349"/>
    <circle cx="207" cy="382" r="2"/>
    <circle cx="171" cy="349" r="2"/>
  </g>
  <g stroke="chocolate" stroke-width="1">
    <line x1="133" y1="54" x2="378" y2="5"/>
    <circle cx="133" cy="54" r="2"/>
    <circle cx="378" cy="5" r="2"/>
  </g>
  <g stroke="chocolate" stroke-width="1">
    <line x1="263" y1="283" x2="416" y2="196"/>
    <circle cx="263" cy="283" r="2"/>
    <circle cx="416" cy="196" r="2"/>
  </g>
  <g stroke="chocolate" stroke-width="1">
    <line x1="338" y1="200" x2="133" y2="54"/>
    <circle cx="338" cy="200" r="2"/>
    <circle cx="133" cy="54" r="2"/>
  </g>
  <g stroke="chocolate" stroke-width="1">
    <line x1="416" y1="196" x2="333" y2="122"/>
    <circle cx="416" cy="196" r="2"/>
    <circle cx="333" cy="122" r="2"/>
  </g>
  <g stroke="chocolate" stroke-width="1">
    <line x1="301" y1="533" x2="171" y2="349"/>
    <circle cx="301" cy="533" r="2"/>
    <circle cx="171" cy="349" r="2"/>
  </g>
  <g stroke="chocolate" stroke-width="1">
    <line x1="505" y1="388" x2="338" y2="200"/>
    <circle cx="505" cy="388" r="2"/>
    <circle cx="338" cy="200" r="2"/>
  </g>
  <g stroke="chocolate" stroke-width="1">
    <line x1="171" y1="349" x2="338" y2="200"/>
    <circle cx="171" cy="349" r="2"/>
    <circle cx="338" cy="200" r="2"/>
  </g>
  <g stroke="chocolate" stroke-width="1">
    <line x1="263" y1="283" x2="133" y2="54"/>
    <circle cx="263" cy="283" r="2"/>
    <circle cx="133" cy="54" r="2"/>
  </g>
  <g stroke="chocolate" stroke-width="1">
    <line x1="207" y1="382" x2="338" y2="200"/>
    <circle cx="207" cy="382" r="2"/>
    <circle cx="338" cy="200" r="2"/>
  </g>
  <g stroke="chocolate" stroke-width="1">
    <line x1="263" y1="283" x2="333" y2="122"/>
    <circle cx="263" cy="283" r="2"/>
    <circle cx="333" cy="122" r="2"/>
  </g>
  <g stroke="chocolate" stroke-width="1">
    <line x1="11" y1="272" x2="133" y2="54"/>
    <circle cx="11" cy="272" r="2"/>
    <circle cx="133" cy="54" r="2"/>
  </g>
  <g stroke="chocolate" stroke-width="1">
    <line x1="416" y1="196" x2="378" y2="5"/>
    <circle cx="416" cy="196" r="2"/>
    <circle cx="378" cy="5" r="2"/>
  </g>
  <g stroke="chocolate" stroke-width="1">
    <line x1="505" y1="388" x2="527" y2="139"/>
    <circle cx="505" cy="388" r="2"/>
    <circle cx="527" cy="139" r="2"/>
  </g>
  <g stroke="black" stroke-width="1">
    <line x1="19" y1="19" x2="519" y2="19"/>
    <line x1="19" y1="19" x2="19" y2="519"/>
    <line x1="519" y1="519" x2="19" y2="519"/>
    <line x1="519" y1="519" x2="519" y2="19"/>
    <line x1="119" y1="16" x2="119" y2="22"/>
    <line x1="16" y1="119" x2="22" y2="119"/>
    <line x1="119" y1="516" x2="119" y2="522"/>
    <line x1="516" y1="119" x2="522" y2="119"/>
    <line x1="219" y1="16" x2="219" y2="22"/>
    <line x1="16" y1="219" x2="22" y2="219"/>
    <line x1="219" y1="516" x2="219" y2="522"/>
    <line x1="516" y1="219" x2="522" y2="219"/>
    <line x1="319" y1="16" x2="319" y2="22"/>
    <line x1="16" y1="319" x2="22" y2="319"/>
    <line x1="319" y1="516" x2="319" y2="522"/>
    <line x1="516" y1="319" x2="522" y2="319"/>
    <line x1="419" y1="16" x2="419" y2="22"/>
    <line x1="16" y1="419" x2="22" y2="419"/>
    <line x1="419" y1="516" x2="419" y2="522"/>
    <line x1="516" y1="419" x2="522" y2="419"/>
  </g>
  <g stroke="gray" stroke-width="1" stroke-dasharray="5,5">
    <line x1="119" y1="19" x2="119" y2="519"/>
    <line x1="19" y1="119" x2="519" y2="119"/>
    <line x1="219" y1="19" x2="219" y2="519"/>
    <line x1="19" y1="219" x2="519" y2="219"/>
    <line x1="319" y1="19" x2="319" y2="519"/>
    <line x1="19" y1="319" x2="519" y2="319"/>
    <line x1="419" y1="19" x2="419" y2="519"/>
    <line x1="19" y1="419" x2="519" y2="419"/>
  </g>
</svg>
