<?xml version="1.0" standalone="no"?>
<!DOCTYPE svg PUBLIC "-//W3C//DTD SVG 1.1//EN" 
  "http://www.w3.org/Graphics/SVG/1.1/DTD/svg11.dtd">
<svg width="510" height="510" version="1.1" id="toplevel"
    xmlns="http://www.w3.org/2000/svg"
    xmlns:xlink="http://www.w3.org/1999/xlink">
  <polygon points="126,384 368,384 384,368 384,126 368,126 368,368 126,368"
           fill="bisque"/>
  <g stroke="chocolate" stroke-width="1">
    <line x1="126" y1="384" x2="368" y2="384"/>
    <circle cx="126" cy="384" r="2"/>
    <circle cx="368" cy="384" r="2"/>
  </g>
  <g stroke="chocolate" stroke-width="1">
    <line x1="126" y1="368" x2="384" y2="368"/>
    <circle cx="126" cy="368" r="2"/>
    <circle cx="384" cy="368" r="2"/>
  </g>
  <g stroke="chocolate" stroke-width="1">
    <line x1="368" y1="126" x2="384" y2="126"/>
    <circle cx="368" cy="126" r="2"/>
    <circle cx="384" cy="126" r="2"/>
  </g>
  <g stroke="chocolate" stroke-width="1">
    <line x1="368" y1="384" x2="384" y2="368"/>
    <circle cx="368" cy="384" r="2"/>
    <circle cx="384" cy="368" r="2"/>
  </g>
  <g stroke="chocolate" stroke-width="1">
    <line x1="126" y1="384" x2="126" y2="368"/>
    <circle cx="126" cy="384" r="2"/>
    <circle cx="126" cy="368" r="2"/>
  </g>
  <g stroke="chocolate" stroke-width="1">
    <line x1="368" y1="384" x2="368" y2="126"/>
    <circle cx="368" cy="384" r="2"/>
    <circle cx="368" cy="126" r="2"/>
  </g>
  <g stroke="chocolate" stroke-width="1">
    <line x1="384" y1="368" x2="384" y2="126"/>
    <circle cx="384" cy="368" r="2"/>
    <circle cx="384" cy="126" r="2"/>
  </g>
  <g stroke="black" stroke-width="1">
    <line x1="5" y1="5" x2="505" y2="5"/>
    <line x1="5" y1="5" x2="5" y2="505"/>
    <line x1="505" y1="505" x2="5" y2="505"/>
    <line x1="505" y1="505" x2="505" y2="5"/>
    <line x1="105" y1="2" x2="105" y2="8"/>
    <line x1="2" y1="105" x2="8" y2="105"/>
    <line x1="105" y1="502" x2="105" y2="508"/>
    <line x1="502" y1="105" x2="508" y2="105"/>
    <line x1="205" y1="2" x2="205" y2="8"/>
    <line x1="2" y1="205" x2="8" y2="205"/>
    <line x1="205" y1="502" x2="205" y2="508"/>
    <line x1="502" y1="205" x2="508" y2="205"/>
    <line x1="305" y1="2" x2="305" y2="8"/>
    <line x1="2" y1="305" x2="8" y2="305"/>
    <line x1="305" y1="502" x2="305" y2="508"/>
    <line x1="502" y1="305" x2="508" y2="305"/>
    <line x1="405" y1="2" x2="405" y2="8"/>
    <line x1="2" y1="405" x2="8" y2="405"/>
    <line x1="405" y1="502" x2="405" y2="508"/>
    <line x1="502" y1="405" x2="508" y2="405"/>
  </g>
  <g stroke="gray" stroke-width="1" stroke-dasharray="5,5">
    <line x1="105" y1="5" x2="105" y2="505"/>
    <line x1="5" y1="105" x2="505" y2="105"/>
    <line x1="205" y1="5" x2="205" y2="505"/>
    <line x1="5" y1="205" x2="505" y2="205"/>
    <line x1="305" y1="5" x2="305" y2="505"/>
    <line x1="5" y1="305" x2="505" y2="305"/>
    <line x1="405" y1="5" x2="405" y2="505"/>
    <line x1="5" y1="405" x2="505" y2="405"/>
  </g>
</svg>
