<?xml version="1.0" standalone="no"?>
<!DOCTYPE svg PUBLIC "-//W3C//DTD SVG 1.1//EN" 
  "http://www.w3.org/Graphics/SVG/1.1/DTD/svg11.dtd">
<svg width="510" height="510" version="1.1" id="toplevel"
    xmlns="http://www.w3.org/2000/svg"
    xmlns:xlink="http://www.w3.org/1999/xlink">
  <polygon points="256,362 359,266 361,216 313,164 261,212 213,160 161,209 159,259"
           fill="bisque"/>
  <polygon points="309,264 209,260 211,210 311,214" fill="bisque"/>
  <g stroke="chocolate" stroke-width="1">
    <line x1="256" y1="362" x2="359" y2="266"/>
    <circle cx="256" cy="362" r="2"/>
    <circle cx="359" cy="266" r="2"/>
  </g>
  <g stroke="chocolate" stroke-width="1">
    <line x1="232" y1="336" x2="361" y2="216"/>
    <circle cx="232" cy="336" r="2"/>
    <circle cx="361" cy="216" r="2"/>
  </g>
  <g stroke="chocolate" stroke-width="1">
    <line x1="359" y1="266" x2="361" y2="216"/>
    <circle cx="359" cy="266" r="2"/>
    <circle cx="361" cy="216" r="2"/>
  </g>
  <g stroke="chocolate" stroke-width="1">
    <line x1="308" y1="314" x2="313" y2="164"/>
    <circle cx="308" cy="314" r="2"/>
    <circle cx="313" cy="164" r="2"/>
  </g>
  <g stroke="chocolate" stroke-width="1">
    <line x1="208" y1="310" x2="213" y2="160"/>
    <circle cx="208" cy="310" r="2"/>
    <circle cx="213" cy="160" r="2"/>
  </g>
  <g stroke="chocolate" stroke-width="1">
    <line x1="159" y1="259" x2="161" y2="209"/>
    <circle cx="159" cy="259" r="2"/>
    <circle cx="161" cy="209" r="2"/>
  </g>
  <g stroke="chocolate" stroke-width="1">
    <line x1="261" y1="212" x2="313" y2="164"/>
    <circle cx="261" cy="212" r="2"/>
    <circle cx="313" cy="164" r="2"/>
  </g>
  <g stroke="chocolate" stroke-width="1">
    <line x1="161" y1="209" x2="213" y2="160"/>
    <circle cx="161" cy="209" r="2"/>
    <circle cx="213" cy="160" r="2"/>
  </g>
  <g stroke="chocolate" stroke-width="1">
    <line x1="256" y1="362" x2="159" y2="259"/>
    <circle cx="256" cy="362" r="2"/>
    <circle cx="159" cy="259" r="2"/>
  </g>
  <g stroke="chocolate" stroke-width="1">
    <line x1="308" y1="314" x2="208" y2="310"/>
    <circle cx="308" cy="314" r="2"/>
    <circle cx="208" cy="310" r="2"/>
  </g>
  <g stroke="chocolate" stroke-width="1">
    <line x1="282" y1="338" x2="161" y2="209"/>
    <circle cx="282" cy="338" r="2"/>
    <circle cx="161" cy="209" r="2"/>
  </g>
  <g stroke="chocolate" stroke-width="1">
    <line x1="359" y1="266" x2="159" y2="259"/>
    <circle cx="359" cy="266" r="2"/>
    <circle cx="159" cy="259" r="2"/>
  </g>
  <g stroke="chocolate" stroke-width="1">
    <line x1="261" y1="212" x2="213" y2="160"/>
    <circle cx="261" cy="212" r="2"/>
    <circle cx="213" cy="160" r="2"/>
  </g>
  <g stroke="chocolate" stroke-width="1">
    <line x1="361" y1="216" x2="161" y2="209"/>
    <circle cx="361" cy="216" r="2"/>
    <circle cx="161" cy="209" r="2"/>
  </g>
  <g stroke="chocolate" stroke-width="1">
    <line x1="361" y1="216" x2="313" y2="164"/>
    <circle cx="361" cy="216" r="2"/>
    <circle cx="313" cy="164" r="2"/>
  </g>
  <g stroke="black" stroke-width="1">
    <line x1="5" y1="5" x2="505" y2="5"/>
    <line x1="5" y1="5" x2="5" y2="505"/>
    <line x1="505" y1="505" x2="5" y2="505"/>
    <line x1="505" y1="505" x2="505" y2="5"/>
    <line x1="105" y1="2" x2="105" y2="8"/>
    <line x1="2" y1="105" x2="8" y2="105"/>
    <line x1="105" y1="502" x2="105" y2="508"/>
    <line x1="502" y1="105" x2="508" y2="105"/>
    <line x1="205" y1="2" x2="205" y2="8"/>
    <line x1="2" y1="205" x2="8" y2="205"/>
    <line x1="205" y1="502" x2="205" y2="508"/>
    <line x1="502" y1="205" x2="508" y2="205"/>
    <line x1="305" y1="2" x2="305" y2="8"/>
    <line x1="2" y1="305" x2="8" y2="305"/>
    <line x1="305" y1="502" x2="305" y2="508"/>
    <line x1="502" y1="305" x2="508" y2="305"/>
    <line x1="405" y1="2" x2="405" y2="8"/>
    <line x1="2" y1="405" x2="8" y2="405"/>
    <line x1="405" y1="502" x2="405" y2="508"/>
    <line x1="502" y1="405" x2="508" y2="405"/>
  </g>
  <g stroke="gray" stroke-width="1" stroke-dasharray="5,5">
    <line x1="105" y1="5" x2="105" y2="505"/>
    <line x1="5" y1="105" x2="505" y2="105"/>
    <line x1="205" y1="5" x2="205" y2="505"/>
    <line x1="5" y1="205" x2="505" y2="205"/>
    <line x1="305" y1="5" x2="305" y2="505"/>
    <line x1="5" y1="305" x2="505" y2="305"/>
    <line x1="405" y1="5" x2="405" y2="505"/>
    <line x1="5" y1="405" x2="505" y2="405"/>
  </g>
</svg>
