<?xml version="1.0" standalone="no"?>
<!DOCTYPE svg PUBLIC "-//W3C//DTD SVG 1.1//EN" 
  "http://www.w3.org/Graphics/SVG/1.1/DTD/svg11.dtd">
<svg width="696" height="696" version="1.1" id="toplevel"
    xmlns="http://www.w3.org/2000/svg"
    xmlns:xlink="http://www.w3.org/1999/xlink">
  <polygon points="432,691 691,264 264,5 5,432" fill="bisque"/>
  <g stroke="chocolate" stroke-width="1">
    <line x1="432" y1="691" x2="691" y2="264"/>
    <circle cx="432" cy="691" r="2"/>
    <circle cx="691" cy="264" r="2"/>
  </g>
  <g stroke="chocolate" stroke-width="1">
    <line x1="5" y1="432" x2="264" y2="5"/>
    <circle cx="5" cy="432" r="2"/>
    <circle cx="264" cy="5" r="2"/>
  </g>
  <g stroke="chocolate" stroke-width="1">
    <line x1="432" y1="691" x2="5" y2="432"/>
    <circle cx="432" cy="691" r="2"/>
    <circle cx="5" cy="432" r="2"/>
  </g>
  <g stroke="chocolate" stroke-width="1">
    <line x1="691" y1="264" x2="264" y2="5"/>
    <circle cx="691" cy="264" r="2"/>
    <circle cx="264" cy="5" r="2"/>
  </g>
  <g stroke="black" stroke-width="1">
    <line x1="98" y1="98" x2="598" y2="98"/>
    <line x1="98" y1="98" x2="98" y2="598"/>
    <line x1="598" y1="598" x2="98" y2="598"/>
    <line x1="598" y1="598" x2="598" y2="98"/>
    <line x1="198" y1="95" x2="198" y2="101"/>
    <line x1="95" y1="198" x2="101" y2="198"/>
    <line x1="198" y1="595" x2="198" y2="601"/>
    <line x1="595" y1="198" x2="601" y2="198"/>
    <line x1="298" y1="95" x2="298" y2="101"/>
    <line x1="95" y1="298" x2="101" y2="298"/>
    <line x1="298" y1="595" x2="298" y2="601"/>
    <line x1="595" y1="298" x2="601" y2="298"/>
    <line x1="398" y1="95" x2="398" y2="101"/>
    <line x1="95" y1="398" x2="101" y2="398"/>
    <line x1="398" y1="595" x2="398" y2="601"/>
    <line x1="595" y1="398" x2="601" y2="398"/>
    <line x1="498" y1="95" x2="498" y2="101"/>
    <line x1="95" y1="498" x2="101" y2="498"/>
    <line x1="498" y1="595" x2="498" y2="601"/>
    <line x1="595" y1="498" x2="601" y2="498"/>
  </g>
  <g stroke="gray" stroke-width="1" stroke-dasharray="5,5">
    <line x1="198" y1="98" x2="198" y2="598"/>
    <line x1="98" y1="198" x2="598" y2="198"/>
    <line x1="298" y1="98" x2="298" y2="598"/>
    <line x1="98" y1="298" x2="598" y2="298"/>
    <line x1="398" y1="98" x2="398" y2="598"/>
    <line x1="98" y1="398" x2="598" y2="398"/>
    <line x1="498" y1="98" x2="498" y2="598"/>
    <line x1="98" y1="498" x2="598" y2="498"/>
  </g>
</svg>
