<?xml version="1.0" standalone="no"?>
<!DOCTYPE svg PUBLIC "-//W3C//DTD SVG 1.1//EN" 
  "http://www.w3.org/Graphics/SVG/1.1/DTD/svg11.dtd">
<svg width="510" height="510" version="1.1" id="toplevel"
    xmlns="http://www.w3.org/2000/svg"
    xmlns:xlink="http://www.w3.org/1999/xlink">
  <polygon points="153,415 219,349 250,380 313,318 438,318 375,255 125,255 125,379 72,366 97,408"
           fill="bisque"/>
  <g stroke="chocolate" stroke-width="1">
    <line x1="250" y1="380" x2="375" y2="255"/>
    <circle cx="250" cy="380" r="2"/>
    <circle cx="375" cy="255" r="2"/>
  </g>
  <g stroke="chocolate" stroke-width="1">
    <line x1="125" y1="411" x2="125" y2="255"/>
    <circle cx="125" cy="411" r="2"/>
    <circle cx="125" cy="255" r="2"/>
  </g>
  <g stroke="chocolate" stroke-width="1">
    <line x1="125" y1="411" x2="133" y2="381"/>
    <circle cx="125" cy="411" r="2"/>
    <circle cx="133" cy="381" r="2"/>
  </g>
  <g stroke="chocolate" stroke-width="1">
    <line x1="97" y1="408" x2="72" y2="366"/>
    <circle cx="97" cy="408" r="2"/>
    <circle cx="72" cy="366" r="2"/>
  </g>
  <g stroke="chocolate" stroke-width="1">
    <line x1="153" y1="415" x2="313" y2="255"/>
    <circle cx="153" cy="415" r="2"/>
    <circle cx="313" cy="255" r="2"/>
  </g>
  <g stroke="chocolate" stroke-width="1">
    <line x1="153" y1="415" x2="133" y2="381"/>
    <circle cx="153" cy="415" r="2"/>
    <circle cx="133" cy="381" r="2"/>
  </g>
  <g stroke="chocolate" stroke-width="1">
    <line x1="97" y1="408" x2="250" y2="255"/>
    <circle cx="97" cy="408" r="2"/>
    <circle cx="250" cy="255" r="2"/>
  </g>
  <g stroke="chocolate" stroke-width="1">
    <line x1="153" y1="415" x2="97" y2="408"/>
    <circle cx="153" cy="415" r="2"/>
    <circle cx="97" cy="408" r="2"/>
  </g>
  <g stroke="chocolate" stroke-width="1">
    <line x1="125" y1="318" x2="188" y2="255"/>
    <circle cx="125" cy="318" r="2"/>
    <circle cx="188" cy="255" r="2"/>
  </g>
  <g stroke="chocolate" stroke-width="1">
    <line x1="133" y1="381" x2="72" y2="366"/>
    <circle cx="133" cy="381" r="2"/>
    <circle cx="72" cy="366" r="2"/>
  </g>
  <g stroke="chocolate" stroke-width="1">
    <line x1="250" y1="380" x2="125" y2="255"/>
    <circle cx="250" cy="380" r="2"/>
    <circle cx="125" cy="255" r="2"/>
  </g>
  <g stroke="chocolate" stroke-width="1">
    <line x1="281" y1="349" x2="188" y2="255"/>
    <circle cx="281" cy="349" r="2"/>
    <circle cx="188" cy="255" r="2"/>
  </g>
  <g stroke="chocolate" stroke-width="1">
    <line x1="125" y1="318" x2="438" y2="318"/>
    <circle cx="125" cy="318" r="2"/>
    <circle cx="438" cy="318" r="2"/>
  </g>
  <g stroke="chocolate" stroke-width="1">
    <line x1="313" y1="318" x2="250" y2="255"/>
    <circle cx="313" cy="318" r="2"/>
    <circle cx="250" cy="255" r="2"/>
  </g>
  <g stroke="chocolate" stroke-width="1">
    <line x1="344" y1="286" x2="313" y2="255"/>
    <circle cx="344" cy="286" r="2"/>
    <circle cx="313" cy="255" r="2"/>
  </g>
  <g stroke="chocolate" stroke-width="1">
    <line x1="125" y1="255" x2="375" y2="255"/>
    <circle cx="125" cy="255" r="2"/>
    <circle cx="375" cy="255" r="2"/>
  </g>
  <g stroke="chocolate" stroke-width="1">
    <line x1="438" y1="318" x2="375" y2="255"/>
    <circle cx="438" cy="318" r="2"/>
    <circle cx="375" cy="255" r="2"/>
  </g>
  <g stroke="black" stroke-width="1">
    <line x1="5" y1="5" x2="505" y2="5"/>
    <line x1="5" y1="5" x2="5" y2="505"/>
    <line x1="505" y1="505" x2="5" y2="505"/>
    <line x1="505" y1="505" x2="505" y2="5"/>
    <line x1="105" y1="2" x2="105" y2="8"/>
    <line x1="2" y1="105" x2="8" y2="105"/>
    <line x1="105" y1="502" x2="105" y2="508"/>
    <line x1="502" y1="105" x2="508" y2="105"/>
    <line x1="205" y1="2" x2="205" y2="8"/>
    <line x1="2" y1="205" x2="8" y2="205"/>
    <line x1="205" y1="502" x2="205" y2="508"/>
    <line x1="502" y1="205" x2="508" y2="205"/>
    <line x1="305" y1="2" x2="305" y2="8"/>
    <line x1="2" y1="305" x2="8" y2="305"/>
    <line x1="305" y1="502" x2="305" y2="508"/>
    <line x1="502" y1="305" x2="508" y2="305"/>
    <line x1="405" y1="2" x2="405" y2="8"/>
    <line x1="2" y1="405" x2="8" y2="405"/>
    <line x1="405" y1="502" x2="405" y2="508"/>
    <line x1="502" y1="405" x2="508" y2="405"/>
  </g>
  <g stroke="gray" stroke-width="1" stroke-dasharray="5,5">
    <line x1="105" y1="5" x2="105" y2="505"/>
    <line x1="5" y1="105" x2="505" y2="105"/>
    <line x1="205" y1="5" x2="205" y2="505"/>
    <line x1="5" y1="205" x2="505" y2="205"/>
    <line x1="305" y1="5" x2="305" y2="505"/>
    <line x1="5" y1="305" x2="505" y2="305"/>
    <line x1="405" y1="5" x2="405" y2="505"/>
    <line x1="5" y1="405" x2="505" y2="405"/>
  </g>
</svg>
