<?xml version="1.0" standalone="no"?>
<!DOCTYPE svg PUBLIC "-//W3C//DTD SVG 1.1//EN" 
  "http://www.w3.org/Graphics/SVG/1.1/DTD/svg11.dtd">
<svg width="510" height="510" version="1.1" id="toplevel"
    xmlns="http://www.w3.org/2000/svg"
    xmlns:xlink="http://www.w3.org/1999/xlink">
  <polygon points="146,442 208,442 302,349 333,380 349,364 364,255 274,229 227,255 208,255 208,265 197,271 208,275 208,380"
           fill="bisque"/>
  <g stroke="chocolate" stroke-width="1">
    <line x1="349" y1="364" x2="364" y2="255"/>
    <circle cx="349" cy="364" r="2"/>
    <circle cx="364" cy="255" r="2"/>
  </g>
  <g stroke="chocolate" stroke-width="1">
    <line x1="333" y1="380" x2="349" y2="364"/>
    <circle cx="333" cy="380" r="2"/>
    <circle cx="349" cy="364" r="2"/>
  </g>
  <g stroke="chocolate" stroke-width="1">
    <line x1="208" y1="442" x2="208" y2="255"/>
    <circle cx="208" cy="442" r="2"/>
    <circle cx="208" cy="255" r="2"/>
  </g>
  <g stroke="chocolate" stroke-width="1">
    <line x1="208" y1="442" x2="359" y2="291"/>
    <circle cx="208" cy="442" r="2"/>
    <circle cx="359" cy="291" r="2"/>
  </g>
  <g stroke="chocolate" stroke-width="1">
    <line x1="146" y1="442" x2="333" y2="255"/>
    <circle cx="146" cy="442" r="2"/>
    <circle cx="333" cy="255" r="2"/>
  </g>
  <g stroke="chocolate" stroke-width="1">
    <line x1="146" y1="442" x2="208" y2="442"/>
    <circle cx="146" cy="442" r="2"/>
    <circle cx="208" cy="442" r="2"/>
  </g>
  <g stroke="chocolate" stroke-width="1">
    <line x1="338" y1="345" x2="353" y2="337"/>
    <circle cx="338" cy="345" r="2"/>
    <circle cx="353" cy="337" r="2"/>
  </g>
  <g stroke="chocolate" stroke-width="1">
    <line x1="349" y1="364" x2="274" y2="229"/>
    <circle cx="349" cy="364" r="2"/>
    <circle cx="274" cy="229" r="2"/>
  </g>
  <g stroke="chocolate" stroke-width="1">
    <line x1="208" y1="318" x2="271" y2="255"/>
    <circle cx="208" cy="318" r="2"/>
    <circle cx="271" cy="255" r="2"/>
  </g>
  <g stroke="chocolate" stroke-width="1">
    <line x1="317" y1="306" x2="360" y2="282"/>
    <circle cx="317" cy="306" r="2"/>
    <circle cx="360" cy="282" r="2"/>
  </g>
  <g stroke="chocolate" stroke-width="1">
    <line x1="359" y1="291" x2="334" y2="246"/>
    <circle cx="359" cy="291" r="2"/>
    <circle cx="334" cy="246" r="2"/>
  </g>
  <g stroke="chocolate" stroke-width="1">
    <line x1="333" y1="380" x2="208" y2="255"/>
    <circle cx="333" cy="380" r="2"/>
    <circle cx="208" cy="255" r="2"/>
  </g>
  <g stroke="chocolate" stroke-width="1">
    <line x1="296" y1="268" x2="334" y2="246"/>
    <circle cx="296" cy="268" r="2"/>
    <circle cx="334" cy="246" r="2"/>
  </g>
  <g stroke="chocolate" stroke-width="1">
    <line x1="353" y1="337" x2="271" y2="255"/>
    <circle cx="353" cy="337" r="2"/>
    <circle cx="271" cy="255" r="2"/>
  </g>
  <g stroke="chocolate" stroke-width="1">
    <line x1="197" y1="271" x2="274" y2="229"/>
    <circle cx="197" cy="271" r="2"/>
    <circle cx="274" cy="229" r="2"/>
  </g>
  <g stroke="chocolate" stroke-width="1">
    <line x1="208" y1="318" x2="355" y2="318"/>
    <circle cx="208" cy="318" r="2"/>
    <circle cx="355" cy="318" r="2"/>
  </g>
  <g stroke="chocolate" stroke-width="1">
    <line x1="360" y1="282" x2="333" y2="255"/>
    <circle cx="360" cy="282" r="2"/>
    <circle cx="333" cy="255" r="2"/>
  </g>
  <g stroke="chocolate" stroke-width="1">
    <line x1="355" y1="318" x2="197" y2="271"/>
    <circle cx="355" cy="318" r="2"/>
    <circle cx="197" cy="271" r="2"/>
  </g>
  <g stroke="chocolate" stroke-width="1">
    <line x1="208" y1="255" x2="364" y2="255"/>
    <circle cx="208" cy="255" r="2"/>
    <circle cx="364" cy="255" r="2"/>
  </g>
  <g stroke="chocolate" stroke-width="1">
    <line x1="364" y1="255" x2="274" y2="229"/>
    <circle cx="364" cy="255" r="2"/>
    <circle cx="274" cy="229" r="2"/>
  </g>
  <g stroke="black" stroke-width="1">
    <line x1="5" y1="5" x2="505" y2="5"/>
    <line x1="5" y1="5" x2="5" y2="505"/>
    <line x1="505" y1="505" x2="5" y2="505"/>
    <line x1="505" y1="505" x2="505" y2="5"/>
    <line x1="105" y1="2" x2="105" y2="8"/>
    <line x1="2" y1="105" x2="8" y2="105"/>
    <line x1="105" y1="502" x2="105" y2="508"/>
    <line x1="502" y1="105" x2="508" y2="105"/>
    <line x1="205" y1="2" x2="205" y2="8"/>
    <line x1="2" y1="205" x2="8" y2="205"/>
    <line x1="205" y1="502" x2="205" y2="508"/>
    <line x1="502" y1="205" x2="508" y2="205"/>
    <line x1="305" y1="2" x2="305" y2="8"/>
    <line x1="2" y1="305" x2="8" y2="305"/>
    <line x1="305" y1="502" x2="305" y2="508"/>
    <line x1="502" y1="305" x2="508" y2="305"/>
    <line x1="405" y1="2" x2="405" y2="8"/>
    <line x1="2" y1="405" x2="8" y2="405"/>
    <line x1="405" y1="502" x2="405" y2="508"/>
    <line x1="502" y1="405" x2="508" y2="405"/>
  </g>
  <g stroke="gray" stroke-width="1" stroke-dasharray="5,5">
    <line x1="105" y1="5" x2="105" y2="505"/>
    <line x1="5" y1="105" x2="505" y2="105"/>
    <line x1="205" y1="5" x2="205" y2="505"/>
    <line x1="5" y1="205" x2="505" y2="205"/>
    <line x1="305" y1="5" x2="305" y2="505"/>
    <line x1="5" y1="305" x2="505" y2="305"/>
    <line x1="405" y1="5" x2="405" y2="505"/>
    <line x1="5" y1="405" x2="505" y2="405"/>
  </g>
</svg>
