<?xml version="1.0" standalone="no"?>
<!DOCTYPE svg PUBLIC "-//W3C//DTD SVG 1.1//EN" 
  "http://www.w3.org/Graphics/SVG/1.1/DTD/svg11.dtd">
<svg width="510" height="510" version="1.1" id="toplevel"
    xmlns="http://www.w3.org/2000/svg"
    xmlns:xlink="http://www.w3.org/1999/xlink">
  <polygon points="292,442 355,442 388,409 394,255 183,240 116,298 241,307 299,374 332,345 355,370 355,380"
           fill="bisque"/>
  <g stroke="chocolate" stroke-width="1">
    <line x1="388" y1="409" x2="394" y2="255"/>
    <circle cx="388" cy="409" r="2"/>
    <circle cx="394" cy="255" r="2"/>
  </g>
  <g stroke="chocolate" stroke-width="1">
    <line x1="355" y1="442" x2="355" y2="255"/>
    <circle cx="355" cy="442" r="2"/>
    <circle cx="355" cy="255" r="2"/>
  </g>
  <g stroke="chocolate" stroke-width="1">
    <line x1="299" y1="374" x2="183" y2="240"/>
    <circle cx="299" cy="374" r="2"/>
    <circle cx="183" cy="240" r="2"/>
  </g>
  <g stroke="chocolate" stroke-width="1">
    <line x1="355" y1="442" x2="388" y2="409"/>
    <circle cx="355" cy="442" r="2"/>
    <circle cx="388" cy="409" r="2"/>
  </g>
  <g stroke="chocolate" stroke-width="1">
    <line x1="388" y1="409" x2="246" y2="244"/>
    <circle cx="388" cy="409" r="2"/>
    <circle cx="246" cy="244" r="2"/>
  </g>
  <g stroke="chocolate" stroke-width="1">
    <line x1="292" y1="442" x2="390" y2="344"/>
    <circle cx="292" cy="442" r="2"/>
    <circle cx="390" cy="344" r="2"/>
  </g>
  <g stroke="chocolate" stroke-width="1">
    <line x1="292" y1="442" x2="355" y2="442"/>
    <circle cx="292" cy="442" r="2"/>
    <circle cx="355" cy="442" r="2"/>
  </g>
  <g stroke="chocolate" stroke-width="1">
    <line x1="390" y1="344" x2="308" y2="249"/>
    <circle cx="390" cy="344" r="2"/>
    <circle cx="308" cy="249" r="2"/>
  </g>
  <g stroke="chocolate" stroke-width="1">
    <line x1="355" y1="318" x2="393" y2="279"/>
    <circle cx="355" cy="318" r="2"/>
    <circle cx="393" cy="279" r="2"/>
  </g>
  <g stroke="chocolate" stroke-width="1">
    <line x1="299" y1="374" x2="392" y2="293"/>
    <circle cx="299" cy="374" r="2"/>
    <circle cx="392" cy="293" r="2"/>
  </g>
  <g stroke="chocolate" stroke-width="1">
    <line x1="393" y1="279" x2="370" y2="253"/>
    <circle cx="393" cy="279" r="2"/>
    <circle cx="370" cy="253" r="2"/>
  </g>
  <g stroke="chocolate" stroke-width="1">
    <line x1="392" y1="293" x2="355" y2="255"/>
    <circle cx="392" cy="293" r="2"/>
    <circle cx="355" cy="255" r="2"/>
  </g>
  <g stroke="chocolate" stroke-width="1">
    <line x1="270" y1="340" x2="370" y2="253"/>
    <circle cx="270" cy="340" r="2"/>
    <circle cx="370" cy="253" r="2"/>
  </g>
  <g stroke="chocolate" stroke-width="1">
    <line x1="241" y1="307" x2="308" y2="249"/>
    <circle cx="241" cy="307" r="2"/>
    <circle cx="308" cy="249" r="2"/>
  </g>
  <g stroke="chocolate" stroke-width="1">
    <line x1="355" y1="318" x2="391" y2="318"/>
    <circle cx="355" cy="318" r="2"/>
    <circle cx="391" cy="318" r="2"/>
  </g>
  <g stroke="chocolate" stroke-width="1">
    <line x1="391" y1="318" x2="116" y2="298"/>
    <circle cx="391" cy="318" r="2"/>
    <circle cx="116" cy="298" r="2"/>
  </g>
  <g stroke="chocolate" stroke-width="1">
    <line x1="212" y1="273" x2="246" y2="244"/>
    <circle cx="212" cy="273" r="2"/>
    <circle cx="246" cy="244" r="2"/>
  </g>
  <g stroke="chocolate" stroke-width="1">
    <line x1="116" y1="298" x2="183" y2="240"/>
    <circle cx="116" cy="298" r="2"/>
    <circle cx="183" cy="240" r="2"/>
  </g>
  <g stroke="chocolate" stroke-width="1">
    <line x1="355" y1="255" x2="394" y2="255"/>
    <circle cx="355" cy="255" r="2"/>
    <circle cx="394" cy="255" r="2"/>
  </g>
  <g stroke="chocolate" stroke-width="1">
    <line x1="394" y1="255" x2="183" y2="240"/>
    <circle cx="394" cy="255" r="2"/>
    <circle cx="183" cy="240" r="2"/>
  </g>
  <g stroke="black" stroke-width="1">
    <line x1="5" y1="5" x2="505" y2="5"/>
    <line x1="5" y1="5" x2="5" y2="505"/>
    <line x1="505" y1="505" x2="5" y2="505"/>
    <line x1="505" y1="505" x2="505" y2="5"/>
    <line x1="105" y1="2" x2="105" y2="8"/>
    <line x1="2" y1="105" x2="8" y2="105"/>
    <line x1="105" y1="502" x2="105" y2="508"/>
    <line x1="502" y1="105" x2="508" y2="105"/>
    <line x1="205" y1="2" x2="205" y2="8"/>
    <line x1="2" y1="205" x2="8" y2="205"/>
    <line x1="205" y1="502" x2="205" y2="508"/>
    <line x1="502" y1="205" x2="508" y2="205"/>
    <line x1="305" y1="2" x2="305" y2="8"/>
    <line x1="2" y1="305" x2="8" y2="305"/>
    <line x1="305" y1="502" x2="305" y2="508"/>
    <line x1="502" y1="305" x2="508" y2="305"/>
    <line x1="405" y1="2" x2="405" y2="8"/>
    <line x1="2" y1="405" x2="8" y2="405"/>
    <line x1="405" y1="502" x2="405" y2="508"/>
    <line x1="502" y1="405" x2="508" y2="405"/>
  </g>
  <g stroke="gray" stroke-width="1" stroke-dasharray="5,5">
    <line x1="105" y1="5" x2="105" y2="505"/>
    <line x1="5" y1="105" x2="505" y2="105"/>
    <line x1="205" y1="5" x2="205" y2="505"/>
    <line x1="5" y1="205" x2="505" y2="205"/>
    <line x1="305" y1="5" x2="305" y2="505"/>
    <line x1="5" y1="305" x2="505" y2="305"/>
    <line x1="405" y1="5" x2="405" y2="505"/>
    <line x1="5" y1="405" x2="505" y2="405"/>
  </g>
</svg>
