<?xml version="1.0" standalone="no"?>
<!DOCTYPE svg PUBLIC "-//W3C//DTD SVG 1.1//EN" 
  "http://www.w3.org/Graphics/SVG/1.1/DTD/svg11.dtd">
<svg width="572" height="572" version="1.1" id="toplevel"
    xmlns="http://www.w3.org/2000/svg"
    xmlns:xlink="http://www.w3.org/1999/xlink">
  <polygon points="338,567 478,498 508,345 64,5" fill="bisque"/>
  <g stroke="chocolate" stroke-width="1">
    <line x1="338" y1="567" x2="478" y2="498"/>
    <circle cx="338" cy="567" r="2"/>
    <circle cx="478" cy="498" r="2"/>
  </g>
  <g stroke="chocolate" stroke-width="1">
    <line x1="338" y1="567" x2="433" y2="382"/>
    <circle cx="338" cy="567" r="2"/>
    <circle cx="433" cy="382" r="2"/>
  </g>
  <g stroke="chocolate" stroke-width="1">
    <line x1="478" y1="498" x2="508" y2="345"/>
    <circle cx="478" cy="498" r="2"/>
    <circle cx="508" cy="345" r="2"/>
  </g>
  <g stroke="chocolate" stroke-width="1">
    <line x1="283" y1="455" x2="508" y2="345"/>
    <circle cx="283" cy="455" r="2"/>
    <circle cx="508" cy="345" r="2"/>
  </g>
  <g stroke="chocolate" stroke-width="1">
    <line x1="338" y1="567" x2="64" y2="5"/>
    <circle cx="338" cy="567" r="2"/>
    <circle cx="64" cy="5" r="2"/>
  </g>
  <g stroke="chocolate" stroke-width="1">
    <line x1="478" y1="498" x2="395" y2="456"/>
    <circle cx="478" cy="498" r="2"/>
    <circle cx="395" cy="456" r="2"/>
  </g>
  <g stroke="chocolate" stroke-width="1">
    <line x1="433" y1="382" x2="64" y2="5"/>
    <circle cx="433" cy="382" r="2"/>
    <circle cx="64" cy="5" r="2"/>
  </g>
  <g stroke="chocolate" stroke-width="1">
    <line x1="508" y1="345" x2="64" y2="5"/>
    <circle cx="508" cy="345" r="2"/>
    <circle cx="64" cy="5" r="2"/>
  </g>
  <g stroke="black" stroke-width="1">
    <line x1="36" y1="36" x2="536" y2="36"/>
    <line x1="36" y1="36" x2="36" y2="536"/>
    <line x1="536" y1="536" x2="36" y2="536"/>
    <line x1="536" y1="536" x2="536" y2="36"/>
    <line x1="136" y1="33" x2="136" y2="39"/>
    <line x1="33" y1="136" x2="39" y2="136"/>
    <line x1="136" y1="533" x2="136" y2="539"/>
    <line x1="533" y1="136" x2="539" y2="136"/>
    <line x1="236" y1="33" x2="236" y2="39"/>
    <line x1="33" y1="236" x2="39" y2="236"/>
    <line x1="236" y1="533" x2="236" y2="539"/>
    <line x1="533" y1="236" x2="539" y2="236"/>
    <line x1="336" y1="33" x2="336" y2="39"/>
    <line x1="33" y1="336" x2="39" y2="336"/>
    <line x1="336" y1="533" x2="336" y2="539"/>
    <line x1="533" y1="336" x2="539" y2="336"/>
    <line x1="436" y1="33" x2="436" y2="39"/>
    <line x1="33" y1="436" x2="39" y2="436"/>
    <line x1="436" y1="533" x2="436" y2="539"/>
    <line x1="533" y1="436" x2="539" y2="436"/>
  </g>
  <g stroke="gray" stroke-width="1" stroke-dasharray="5,5">
    <line x1="136" y1="36" x2="136" y2="536"/>
    <line x1="36" y1="136" x2="536" y2="136"/>
    <line x1="236" y1="36" x2="236" y2="536"/>
    <line x1="36" y1="236" x2="536" y2="236"/>
    <line x1="336" y1="36" x2="336" y2="536"/>
    <line x1="36" y1="336" x2="536" y2="336"/>
    <line x1="436" y1="36" x2="436" y2="536"/>
    <line x1="36" y1="436" x2="536" y2="436"/>
  </g>
</svg>
