<?xml version="1.0" standalone="no"?>
<!DOCTYPE svg PUBLIC "-//W3C//DTD SVG 1.1//EN" 
  "http://www.w3.org/Graphics/SVG/1.1/DTD/svg11.dtd">
<svg width="510" height="510" version="1.1" id="toplevel"
    xmlns="http://www.w3.org/2000/svg"
    xmlns:xlink="http://www.w3.org/1999/xlink">
  <polygon points="326,360 353,238 306,164 245,150 170,197 157,258 204,333"
           fill="bisque"/>
  <polygon points="279,285 218,272 231,211 292,225" fill="bisque"/>
  <g stroke="chocolate" stroke-width="1">
    <line x1="170" y1="197" x2="245" y2="150"/>
    <circle cx="170" cy="197" r="2"/>
    <circle cx="245" cy="150" r="2"/>
  </g>
  <g stroke="chocolate" stroke-width="1">
    <line x1="326" y1="360" x2="204" y2="333"/>
    <circle cx="326" cy="360" r="2"/>
    <circle cx="204" cy="333" r="2"/>
  </g>
  <g stroke="chocolate" stroke-width="1">
    <line x1="340" y1="299" x2="157" y2="258"/>
    <circle cx="340" cy="299" r="2"/>
    <circle cx="157" cy="258" r="2"/>
  </g>
  <g stroke="chocolate" stroke-width="1">
    <line x1="353" y1="238" x2="170" y2="197"/>
    <circle cx="353" cy="238" r="2"/>
    <circle cx="170" cy="197" r="2"/>
  </g>
  <g stroke="chocolate" stroke-width="1">
    <line x1="306" y1="164" x2="245" y2="150"/>
    <circle cx="306" cy="164" r="2"/>
    <circle cx="245" cy="150" r="2"/>
  </g>
  <g stroke="chocolate" stroke-width="1">
    <line x1="326" y1="360" x2="353" y2="238"/>
    <circle cx="326" cy="360" r="2"/>
    <circle cx="353" cy="238" r="2"/>
  </g>
  <g stroke="chocolate" stroke-width="1">
    <line x1="279" y1="285" x2="306" y2="164"/>
    <circle cx="279" cy="285" r="2"/>
    <circle cx="306" cy="164" r="2"/>
  </g>
  <g stroke="chocolate" stroke-width="1">
    <line x1="204" y1="333" x2="245" y2="150"/>
    <circle cx="204" cy="333" r="2"/>
    <circle cx="245" cy="150" r="2"/>
  </g>
  <g stroke="chocolate" stroke-width="1">
    <line x1="157" y1="258" x2="170" y2="197"/>
    <circle cx="157" cy="258" r="2"/>
    <circle cx="170" cy="197" r="2"/>
  </g>
  <g stroke="chocolate" stroke-width="1">
    <line x1="204" y1="333" x2="157" y2="258"/>
    <circle cx="204" cy="333" r="2"/>
    <circle cx="157" cy="258" r="2"/>
  </g>
  <g stroke="chocolate" stroke-width="1">
    <line x1="353" y1="238" x2="306" y2="164"/>
    <circle cx="353" cy="238" r="2"/>
    <circle cx="306" cy="164" r="2"/>
  </g>
  <g stroke="black" stroke-width="1">
    <line x1="5" y1="5" x2="505" y2="5"/>
    <line x1="5" y1="5" x2="5" y2="505"/>
    <line x1="505" y1="505" x2="5" y2="505"/>
    <line x1="505" y1="505" x2="505" y2="5"/>
    <line x1="105" y1="2" x2="105" y2="8"/>
    <line x1="2" y1="105" x2="8" y2="105"/>
    <line x1="105" y1="502" x2="105" y2="508"/>
    <line x1="502" y1="105" x2="508" y2="105"/>
    <line x1="205" y1="2" x2="205" y2="8"/>
    <line x1="2" y1="205" x2="8" y2="205"/>
    <line x1="205" y1="502" x2="205" y2="508"/>
    <line x1="502" y1="205" x2="508" y2="205"/>
    <line x1="305" y1="2" x2="305" y2="8"/>
    <line x1="2" y1="305" x2="8" y2="305"/>
    <line x1="305" y1="502" x2="305" y2="508"/>
    <line x1="502" y1="305" x2="508" y2="305"/>
    <line x1="405" y1="2" x2="405" y2="8"/>
    <line x1="2" y1="405" x2="8" y2="405"/>
    <line x1="405" y1="502" x2="405" y2="508"/>
    <line x1="502" y1="405" x2="508" y2="405"/>
  </g>
  <g stroke="gray" stroke-width="1" stroke-dasharray="5,5">
    <line x1="105" y1="5" x2="105" y2="505"/>
    <line x1="5" y1="105" x2="505" y2="105"/>
    <line x1="205" y1="5" x2="205" y2="505"/>
    <line x1="5" y1="205" x2="505" y2="205"/>
    <line x1="305" y1="5" x2="305" y2="505"/>
    <line x1="5" y1="305" x2="505" y2="305"/>
    <line x1="405" y1="5" x2="405" y2="505"/>
    <line x1="5" y1="405" x2="505" y2="405"/>
  </g>
</svg>
