<?xml version="1.0" standalone="no"?>
<!DOCTYPE svg PUBLIC "-//W3C//DTD SVG 1.1//EN" 
  "http://www.w3.org/Graphics/SVG/1.1/DTD/svg11.dtd">
<svg width="550" height="550" version="1.1" id="toplevel"
    xmlns="http://www.w3.org/2000/svg"
    xmlns:xlink="http://www.w3.org/1999/xlink">
  <polygon points="204,545 292,540 498,305 545,346 540,258 305,52 346,5 258,10 52,245 5,204 10,292 245,498"
           fill="bisque"/>
  <g stroke="chocolate" stroke-width="1">
    <line x1="292" y1="540" x2="10" y2="292"/>
    <circle cx="292" cy="540" r="2"/>
    <circle cx="10" cy="292" r="2"/>
  </g>
  <g stroke="chocolate" stroke-width="1">
    <line x1="287" y1="451" x2="5" y2="204"/>
    <circle cx="287" cy="451" r="2"/>
    <circle cx="5" cy="204" r="2"/>
  </g>
  <g stroke="chocolate" stroke-width="1">
    <line x1="204" y1="545" x2="292" y2="540"/>
    <circle cx="204" cy="545" r="2"/>
    <circle cx="292" cy="540" r="2"/>
  </g>
  <g stroke="chocolate" stroke-width="1">
    <line x1="545" y1="346" x2="263" y2="99"/>
    <circle cx="545" cy="346" r="2"/>
    <circle cx="263" cy="99" r="2"/>
  </g>
  <g stroke="chocolate" stroke-width="1">
    <line x1="540" y1="258" x2="258" y2="10"/>
    <circle cx="540" cy="258" r="2"/>
    <circle cx="258" cy="10" r="2"/>
  </g>
  <g stroke="chocolate" stroke-width="1">
    <line x1="10" y1="292" x2="5" y2="204"/>
    <circle cx="10" cy="292" r="2"/>
    <circle cx="5" cy="204" r="2"/>
  </g>
  <g stroke="chocolate" stroke-width="1">
    <line x1="292" y1="540" x2="287" y2="451"/>
    <circle cx="292" cy="540" r="2"/>
    <circle cx="287" cy="451" r="2"/>
  </g>
  <g stroke="chocolate" stroke-width="1">
    <line x1="263" y1="99" x2="258" y2="10"/>
    <circle cx="263" cy="99" r="2"/>
    <circle cx="258" cy="10" r="2"/>
  </g>
  <g stroke="chocolate" stroke-width="1">
    <line x1="545" y1="346" x2="540" y2="258"/>
    <circle cx="545" cy="346" r="2"/>
    <circle cx="540" cy="258" r="2"/>
  </g>
  <g stroke="chocolate" stroke-width="1">
    <line x1="10" y1="292" x2="99" y2="287"/>
    <circle cx="10" cy="292" r="2"/>
    <circle cx="99" cy="287" r="2"/>
  </g>
  <g stroke="chocolate" stroke-width="1">
    <line x1="451" y1="263" x2="540" y2="258"/>
    <circle cx="451" cy="263" r="2"/>
    <circle cx="540" cy="258" r="2"/>
  </g>
  <g stroke="chocolate" stroke-width="1">
    <line x1="292" y1="540" x2="540" y2="258"/>
    <circle cx="292" cy="540" r="2"/>
    <circle cx="540" cy="258" r="2"/>
  </g>
  <g stroke="chocolate" stroke-width="1">
    <line x1="204" y1="545" x2="451" y2="263"/>
    <circle cx="204" cy="545" r="2"/>
    <circle cx="451" cy="263" r="2"/>
  </g>
  <g stroke="chocolate" stroke-width="1">
    <line x1="99" y1="287" x2="346" y2="5"/>
    <circle cx="99" cy="287" r="2"/>
    <circle cx="346" cy="5" r="2"/>
  </g>
  <g stroke="chocolate" stroke-width="1">
    <line x1="258" y1="10" x2="346" y2="5"/>
    <circle cx="258" cy="10" r="2"/>
    <circle cx="346" cy="5" r="2"/>
  </g>
  <g stroke="chocolate" stroke-width="1">
    <line x1="10" y1="292" x2="258" y2="10"/>
    <circle cx="10" cy="292" r="2"/>
    <circle cx="258" cy="10" r="2"/>
  </g>
  <g stroke="black" stroke-width="1">
    <line x1="25" y1="25" x2="525" y2="25"/>
    <line x1="25" y1="25" x2="25" y2="525"/>
    <line x1="525" y1="525" x2="25" y2="525"/>
    <line x1="525" y1="525" x2="525" y2="25"/>
    <line x1="125" y1="22" x2="125" y2="28"/>
    <line x1="22" y1="125" x2="28" y2="125"/>
    <line x1="125" y1="522" x2="125" y2="528"/>
    <line x1="522" y1="125" x2="528" y2="125"/>
    <line x1="225" y1="22" x2="225" y2="28"/>
    <line x1="22" y1="225" x2="28" y2="225"/>
    <line x1="225" y1="522" x2="225" y2="528"/>
    <line x1="522" y1="225" x2="528" y2="225"/>
    <line x1="325" y1="22" x2="325" y2="28"/>
    <line x1="22" y1="325" x2="28" y2="325"/>
    <line x1="325" y1="522" x2="325" y2="528"/>
    <line x1="522" y1="325" x2="528" y2="325"/>
    <line x1="425" y1="22" x2="425" y2="28"/>
    <line x1="22" y1="425" x2="28" y2="425"/>
    <line x1="425" y1="522" x2="425" y2="528"/>
    <line x1="522" y1="425" x2="528" y2="425"/>
  </g>
  <g stroke="gray" stroke-width="1" stroke-dasharray="5,5">
    <line x1="125" y1="25" x2="125" y2="525"/>
    <line x1="25" y1="125" x2="525" y2="125"/>
    <line x1="225" y1="25" x2="225" y2="525"/>
    <line x1="25" y1="225" x2="525" y2="225"/>
    <line x1="325" y1="25" x2="325" y2="525"/>
    <line x1="25" y1="325" x2="525" y2="325"/>
    <line x1="425" y1="25" x2="425" y2="525"/>
    <line x1="25" y1="425" x2="525" y2="425"/>
  </g>
</svg>
