<?xml version="1.0" standalone="no"?>
<!DOCTYPE svg PUBLIC "-//W3C//DTD SVG 1.1//EN" 
  "http://www.w3.org/Graphics/SVG/1.1/DTD/svg11.dtd">
<svg width="562" height="562" version="1.1" id="toplevel"
    xmlns="http://www.w3.org/2000/svg"
    xmlns:xlink="http://www.w3.org/1999/xlink">
  <polygon points="326,557 404,516 497,217 557,236 516,158 217,65 236,5 158,46 65,345 5,326 46,404 345,497"
           fill="bisque"/>
  <g stroke="chocolate" stroke-width="1">
    <line x1="46" y1="404" x2="5" y2="326"/>
    <circle cx="46" cy="404" r="2"/>
    <circle cx="5" cy="326" r="2"/>
  </g>
  <g stroke="chocolate" stroke-width="1">
    <line x1="404" y1="516" x2="363" y2="437"/>
    <circle cx="404" cy="516" r="2"/>
    <circle cx="363" cy="437" r="2"/>
  </g>
  <g stroke="chocolate" stroke-width="1">
    <line x1="199" y1="125" x2="158" y2="46"/>
    <circle cx="199" cy="125" r="2"/>
    <circle cx="158" cy="46" r="2"/>
  </g>
  <g stroke="chocolate" stroke-width="1">
    <line x1="404" y1="516" x2="516" y2="158"/>
    <circle cx="404" cy="516" r="2"/>
    <circle cx="516" cy="158" r="2"/>
  </g>
  <g stroke="chocolate" stroke-width="1">
    <line x1="326" y1="557" x2="437" y2="199"/>
    <circle cx="326" cy="557" r="2"/>
    <circle cx="437" cy="199" r="2"/>
  </g>
  <g stroke="chocolate" stroke-width="1">
    <line x1="404" y1="516" x2="46" y2="404"/>
    <circle cx="404" cy="516" r="2"/>
    <circle cx="46" cy="404" r="2"/>
  </g>
  <g stroke="chocolate" stroke-width="1">
    <line x1="326" y1="557" x2="404" y2="516"/>
    <circle cx="326" cy="557" r="2"/>
    <circle cx="404" cy="516" r="2"/>
  </g>
  <g stroke="chocolate" stroke-width="1">
    <line x1="125" y1="363" x2="236" y2="5"/>
    <circle cx="125" cy="363" r="2"/>
    <circle cx="236" cy="5" r="2"/>
  </g>
  <g stroke="chocolate" stroke-width="1">
    <line x1="363" y1="437" x2="5" y2="326"/>
    <circle cx="363" cy="437" r="2"/>
    <circle cx="5" cy="326" r="2"/>
  </g>
  <g stroke="chocolate" stroke-width="1">
    <line x1="557" y1="236" x2="516" y2="158"/>
    <circle cx="557" cy="236" r="2"/>
    <circle cx="516" cy="158" r="2"/>
  </g>
  <g stroke="chocolate" stroke-width="1">
    <line x1="46" y1="404" x2="158" y2="46"/>
    <circle cx="46" cy="404" r="2"/>
    <circle cx="158" cy="46" r="2"/>
  </g>
  <g stroke="chocolate" stroke-width="1">
    <line x1="46" y1="404" x2="125" y2="363"/>
    <circle cx="46" cy="404" r="2"/>
    <circle cx="125" cy="363" r="2"/>
  </g>
  <g stroke="chocolate" stroke-width="1">
    <line x1="437" y1="199" x2="516" y2="158"/>
    <circle cx="437" cy="199" r="2"/>
    <circle cx="516" cy="158" r="2"/>
  </g>
  <g stroke="chocolate" stroke-width="1">
    <line x1="557" y1="236" x2="199" y2="125"/>
    <circle cx="557" cy="236" r="2"/>
    <circle cx="199" cy="125" r="2"/>
  </g>
  <g stroke="chocolate" stroke-width="1">
    <line x1="516" y1="158" x2="158" y2="46"/>
    <circle cx="516" cy="158" r="2"/>
    <circle cx="158" cy="46" r="2"/>
  </g>
  <g stroke="chocolate" stroke-width="1">
    <line x1="158" y1="46" x2="236" y2="5"/>
    <circle cx="158" cy="46" r="2"/>
    <circle cx="236" cy="5" r="2"/>
  </g>
  <g stroke="black" stroke-width="1">
    <line x1="31" y1="31" x2="531" y2="31"/>
    <line x1="31" y1="31" x2="31" y2="531"/>
    <line x1="531" y1="531" x2="31" y2="531"/>
    <line x1="531" y1="531" x2="531" y2="31"/>
    <line x1="131" y1="28" x2="131" y2="34"/>
    <line x1="28" y1="131" x2="34" y2="131"/>
    <line x1="131" y1="528" x2="131" y2="534"/>
    <line x1="528" y1="131" x2="534" y2="131"/>
    <line x1="231" y1="28" x2="231" y2="34"/>
    <line x1="28" y1="231" x2="34" y2="231"/>
    <line x1="231" y1="528" x2="231" y2="534"/>
    <line x1="528" y1="231" x2="534" y2="231"/>
    <line x1="331" y1="28" x2="331" y2="34"/>
    <line x1="28" y1="331" x2="34" y2="331"/>
    <line x1="331" y1="528" x2="331" y2="534"/>
    <line x1="528" y1="331" x2="534" y2="331"/>
    <line x1="431" y1="28" x2="431" y2="34"/>
    <line x1="28" y1="431" x2="34" y2="431"/>
    <line x1="431" y1="528" x2="431" y2="534"/>
    <line x1="528" y1="431" x2="534" y2="431"/>
  </g>
  <g stroke="gray" stroke-width="1" stroke-dasharray="5,5">
    <line x1="131" y1="31" x2="131" y2="531"/>
    <line x1="31" y1="131" x2="531" y2="131"/>
    <line x1="231" y1="31" x2="231" y2="531"/>
    <line x1="31" y1="231" x2="531" y2="231"/>
    <line x1="331" y1="31" x2="331" y2="531"/>
    <line x1="31" y1="331" x2="531" y2="331"/>
    <line x1="431" y1="31" x2="431" y2="531"/>
    <line x1="31" y1="431" x2="531" y2="431"/>
  </g>
</svg>
