<?xml version="1.0" standalone="no"?>
<!DOCTYPE svg PUBLIC "-//W3C//DTD SVG 1.1//EN" 
  "http://www.w3.org/Graphics/SVG/1.1/DTD/svg11.dtd">
<svg width="584" height="584" version="1.1" id="toplevel"
    xmlns="http://www.w3.org/2000/svg"
    xmlns:xlink="http://www.w3.org/1999/xlink">
  <polygon points="476,497 579,380 546,227 5,87" fill="bisque"/>
  <g stroke="chocolate" stroke-width="1">
    <line x1="476" y1="497" x2="579" y2="380"/>
    <circle cx="476" cy="497" r="2"/>
    <circle cx="579" cy="380" r="2"/>
  </g>
  <g stroke="chocolate" stroke-width="1">
    <line x1="476" y1="497" x2="491" y2="290"/>
    <circle cx="476" cy="497" r="2"/>
    <circle cx="491" cy="290" r="2"/>
  </g>
  <g stroke="chocolate" stroke-width="1">
    <line x1="382" y1="415" x2="546" y2="227"/>
    <circle cx="382" cy="415" r="2"/>
    <circle cx="546" cy="227" r="2"/>
  </g>
  <g stroke="chocolate" stroke-width="1">
    <line x1="476" y1="497" x2="5" y2="87"/>
    <circle cx="476" cy="497" r="2"/>
    <circle cx="5" cy="87" r="2"/>
  </g>
  <g stroke="chocolate" stroke-width="1">
    <line x1="579" y1="380" x2="546" y2="227"/>
    <circle cx="579" cy="380" r="2"/>
    <circle cx="546" cy="227" r="2"/>
  </g>
  <g stroke="chocolate" stroke-width="1">
    <line x1="579" y1="380" x2="485" y2="373"/>
    <circle cx="579" cy="380" r="2"/>
    <circle cx="485" cy="373" r="2"/>
  </g>
  <g stroke="chocolate" stroke-width="1">
    <line x1="491" y1="290" x2="5" y2="87"/>
    <circle cx="491" cy="290" r="2"/>
    <circle cx="5" cy="87" r="2"/>
  </g>
  <g stroke="chocolate" stroke-width="1">
    <line x1="546" y1="227" x2="5" y2="87"/>
    <circle cx="546" cy="227" r="2"/>
    <circle cx="5" cy="87" r="2"/>
  </g>
  <g stroke="black" stroke-width="1">
    <line x1="42" y1="42" x2="542" y2="42"/>
    <line x1="42" y1="42" x2="42" y2="542"/>
    <line x1="542" y1="542" x2="42" y2="542"/>
    <line x1="542" y1="542" x2="542" y2="42"/>
    <line x1="142" y1="39" x2="142" y2="45"/>
    <line x1="39" y1="142" x2="45" y2="142"/>
    <line x1="142" y1="539" x2="142" y2="545"/>
    <line x1="539" y1="142" x2="545" y2="142"/>
    <line x1="242" y1="39" x2="242" y2="45"/>
    <line x1="39" y1="242" x2="45" y2="242"/>
    <line x1="242" y1="539" x2="242" y2="545"/>
    <line x1="539" y1="242" x2="545" y2="242"/>
    <line x1="342" y1="39" x2="342" y2="45"/>
    <line x1="39" y1="342" x2="45" y2="342"/>
    <line x1="342" y1="539" x2="342" y2="545"/>
    <line x1="539" y1="342" x2="545" y2="342"/>
    <line x1="442" y1="39" x2="442" y2="45"/>
    <line x1="39" y1="442" x2="45" y2="442"/>
    <line x1="442" y1="539" x2="442" y2="545"/>
    <line x1="539" y1="442" x2="545" y2="442"/>
  </g>
  <g stroke="gray" stroke-width="1" stroke-dasharray="5,5">
    <line x1="142" y1="42" x2="142" y2="542"/>
    <line x1="42" y1="142" x2="542" y2="142"/>
    <line x1="242" y1="42" x2="242" y2="542"/>
    <line x1="42" y1="242" x2="542" y2="242"/>
    <line x1="342" y1="42" x2="342" y2="542"/>
    <line x1="42" y1="342" x2="542" y2="342"/>
    <line x1="442" y1="42" x2="442" y2="542"/>
    <line x1="42" y1="442" x2="542" y2="442"/>
  </g>
</svg>
