<?xml version="1.0" standalone="no"?>
<!DOCTYPE svg PUBLIC "-//W3C//DTD SVG 1.1//EN" 
  "http://www.w3.org/Graphics/SVG/1.1/DTD/svg11.dtd">
<svg width="510" height="510" version="1.1" id="toplevel"
    xmlns="http://www.w3.org/2000/svg"
    xmlns:xlink="http://www.w3.org/1999/xlink">
  <polygon points="421,480 472,408 418,100 480,89 408,38 100,92 89,30 38,102 92,410 30,421 102,472 410,418"
           fill="bisque"/>
  <g stroke="chocolate" stroke-width="1">
    <line x1="102" y1="472" x2="30" y2="421"/>
    <circle cx="102" cy="472" r="2"/>
    <circle cx="30" cy="421" r="2"/>
  </g>
  <g stroke="chocolate" stroke-width="1">
    <line x1="102" y1="472" x2="38" y2="102"/>
    <circle cx="102" cy="472" r="2"/>
    <circle cx="38" cy="102" r="2"/>
  </g>
  <g stroke="chocolate" stroke-width="1">
    <line x1="153" y1="399" x2="89" y2="30"/>
    <circle cx="153" cy="399" r="2"/>
    <circle cx="89" cy="30" r="2"/>
  </g>
  <g stroke="chocolate" stroke-width="1">
    <line x1="421" y1="480" x2="357" y2="111"/>
    <circle cx="421" cy="480" r="2"/>
    <circle cx="357" cy="111" r="2"/>
  </g>
  <g stroke="chocolate" stroke-width="1">
    <line x1="472" y1="408" x2="408" y2="38"/>
    <circle cx="472" cy="408" r="2"/>
    <circle cx="408" cy="38" r="2"/>
  </g>
  <g stroke="chocolate" stroke-width="1">
    <line x1="472" y1="408" x2="399" y2="357"/>
    <circle cx="472" cy="408" r="2"/>
    <circle cx="399" cy="357" r="2"/>
  </g>
  <g stroke="chocolate" stroke-width="1">
    <line x1="111" y1="153" x2="38" y2="102"/>
    <circle cx="111" cy="153" r="2"/>
    <circle cx="38" cy="102" r="2"/>
  </g>
  <g stroke="chocolate" stroke-width="1">
    <line x1="421" y1="480" x2="472" y2="408"/>
    <circle cx="421" cy="480" r="2"/>
    <circle cx="472" cy="408" r="2"/>
  </g>
  <g stroke="chocolate" stroke-width="1">
    <line x1="102" y1="472" x2="472" y2="408"/>
    <circle cx="102" cy="472" r="2"/>
    <circle cx="472" cy="408" r="2"/>
  </g>
  <g stroke="chocolate" stroke-width="1">
    <line x1="30" y1="421" x2="399" y2="357"/>
    <circle cx="30" cy="421" r="2"/>
    <circle cx="399" cy="357" r="2"/>
  </g>
  <g stroke="chocolate" stroke-width="1">
    <line x1="102" y1="472" x2="153" y2="399"/>
    <circle cx="102" cy="472" r="2"/>
    <circle cx="153" cy="399" r="2"/>
  </g>
  <g stroke="chocolate" stroke-width="1">
    <line x1="357" y1="111" x2="408" y2="38"/>
    <circle cx="357" cy="111" r="2"/>
    <circle cx="408" cy="38" r="2"/>
  </g>
  <g stroke="chocolate" stroke-width="1">
    <line x1="480" y1="89" x2="408" y2="38"/>
    <circle cx="480" cy="89" r="2"/>
    <circle cx="408" cy="38" r="2"/>
  </g>
  <g stroke="chocolate" stroke-width="1">
    <line x1="38" y1="102" x2="89" y2="30"/>
    <circle cx="38" cy="102" r="2"/>
    <circle cx="89" cy="30" r="2"/>
  </g>
  <g stroke="chocolate" stroke-width="1">
    <line x1="111" y1="153" x2="480" y2="89"/>
    <circle cx="111" cy="153" r="2"/>
    <circle cx="480" cy="89" r="2"/>
  </g>
  <g stroke="chocolate" stroke-width="1">
    <line x1="38" y1="102" x2="408" y2="38"/>
    <circle cx="38" cy="102" r="2"/>
    <circle cx="408" cy="38" r="2"/>
  </g>
  <g stroke="black" stroke-width="1">
    <line x1="5" y1="5" x2="505" y2="5"/>
    <line x1="5" y1="5" x2="5" y2="505"/>
    <line x1="505" y1="505" x2="5" y2="505"/>
    <line x1="505" y1="505" x2="505" y2="5"/>
    <line x1="105" y1="2" x2="105" y2="8"/>
    <line x1="2" y1="105" x2="8" y2="105"/>
    <line x1="105" y1="502" x2="105" y2="508"/>
    <line x1="502" y1="105" x2="508" y2="105"/>
    <line x1="205" y1="2" x2="205" y2="8"/>
    <line x1="2" y1="205" x2="8" y2="205"/>
    <line x1="205" y1="502" x2="205" y2="508"/>
    <line x1="502" y1="205" x2="508" y2="205"/>
    <line x1="305" y1="2" x2="305" y2="8"/>
    <line x1="2" y1="305" x2="8" y2="305"/>
    <line x1="305" y1="502" x2="305" y2="508"/>
    <line x1="502" y1="305" x2="508" y2="305"/>
    <line x1="405" y1="2" x2="405" y2="8"/>
    <line x1="2" y1="405" x2="8" y2="405"/>
    <line x1="405" y1="502" x2="405" y2="508"/>
    <line x1="502" y1="405" x2="508" y2="405"/>
  </g>
  <g stroke="gray" stroke-width="1" stroke-dasharray="5,5">
    <line x1="105" y1="5" x2="105" y2="505"/>
    <line x1="5" y1="105" x2="505" y2="105"/>
    <line x1="205" y1="5" x2="205" y2="505"/>
    <line x1="5" y1="205" x2="505" y2="205"/>
    <line x1="305" y1="5" x2="305" y2="505"/>
    <line x1="5" y1="305" x2="505" y2="305"/>
    <line x1="405" y1="5" x2="405" y2="505"/>
    <line x1="5" y1="405" x2="505" y2="405"/>
  </g>
</svg>
