<?xml version="1.0" standalone="no"?>
<!DOCTYPE svg PUBLIC "-//W3C//DTD SVG 1.1//EN" 
  "http://www.w3.org/Graphics/SVG/1.1/DTD/svg11.dtd">
<svg width="510" height="510" version="1.1" id="toplevel"
    xmlns="http://www.w3.org/2000/svg"
    xmlns:xlink="http://www.w3.org/1999/xlink">
  <polygon points="425,477 474,404 416,97 477,85 404,36 97,94 85,33 36,106 94,413 33,425 106,474 413,416"
           fill="bisque"/>
  <g stroke="chocolate" stroke-width="1">
    <line x1="106" y1="474" x2="33" y2="425"/>
    <circle cx="106" cy="474" r="2"/>
    <circle cx="33" cy="425" r="2"/>
  </g>
  <g stroke="chocolate" stroke-width="1">
    <line x1="106" y1="474" x2="36" y2="106"/>
    <circle cx="106" cy="474" r="2"/>
    <circle cx="36" cy="106" r="2"/>
  </g>
  <g stroke="chocolate" stroke-width="1">
    <line x1="156" y1="401" x2="85" y2="33"/>
    <circle cx="156" cy="401" r="2"/>
    <circle cx="85" cy="33" r="2"/>
  </g>
  <g stroke="chocolate" stroke-width="1">
    <line x1="425" y1="477" x2="354" y2="109"/>
    <circle cx="425" cy="477" r="2"/>
    <circle cx="354" cy="109" r="2"/>
  </g>
  <g stroke="chocolate" stroke-width="1">
    <line x1="474" y1="404" x2="404" y2="36"/>
    <circle cx="474" cy="404" r="2"/>
    <circle cx="404" cy="36" r="2"/>
  </g>
  <g stroke="chocolate" stroke-width="1">
    <line x1="474" y1="404" x2="401" y2="354"/>
    <circle cx="474" cy="404" r="2"/>
    <circle cx="401" cy="354" r="2"/>
  </g>
  <g stroke="chocolate" stroke-width="1">
    <line x1="109" y1="156" x2="36" y2="106"/>
    <circle cx="109" cy="156" r="2"/>
    <circle cx="36" cy="106" r="2"/>
  </g>
  <g stroke="chocolate" stroke-width="1">
    <line x1="425" y1="477" x2="474" y2="404"/>
    <circle cx="425" cy="477" r="2"/>
    <circle cx="474" cy="404" r="2"/>
  </g>
  <g stroke="chocolate" stroke-width="1">
    <line x1="106" y1="474" x2="474" y2="404"/>
    <circle cx="106" cy="474" r="2"/>
    <circle cx="474" cy="404" r="2"/>
  </g>
  <g stroke="chocolate" stroke-width="1">
    <line x1="33" y1="425" x2="401" y2="354"/>
    <circle cx="33" cy="425" r="2"/>
    <circle cx="401" cy="354" r="2"/>
  </g>
  <g stroke="chocolate" stroke-width="1">
    <line x1="106" y1="474" x2="156" y2="401"/>
    <circle cx="106" cy="474" r="2"/>
    <circle cx="156" cy="401" r="2"/>
  </g>
  <g stroke="chocolate" stroke-width="1">
    <line x1="354" y1="109" x2="404" y2="36"/>
    <circle cx="354" cy="109" r="2"/>
    <circle cx="404" cy="36" r="2"/>
  </g>
  <g stroke="chocolate" stroke-width="1">
    <line x1="477" y1="85" x2="404" y2="36"/>
    <circle cx="477" cy="85" r="2"/>
    <circle cx="404" cy="36" r="2"/>
  </g>
  <g stroke="chocolate" stroke-width="1">
    <line x1="36" y1="106" x2="85" y2="33"/>
    <circle cx="36" cy="106" r="2"/>
    <circle cx="85" cy="33" r="2"/>
  </g>
  <g stroke="chocolate" stroke-width="1">
    <line x1="109" y1="156" x2="477" y2="85"/>
    <circle cx="109" cy="156" r="2"/>
    <circle cx="477" cy="85" r="2"/>
  </g>
  <g stroke="chocolate" stroke-width="1">
    <line x1="36" y1="106" x2="404" y2="36"/>
    <circle cx="36" cy="106" r="2"/>
    <circle cx="404" cy="36" r="2"/>
  </g>
  <g stroke="black" stroke-width="1">
    <line x1="5" y1="5" x2="505" y2="5"/>
    <line x1="5" y1="5" x2="5" y2="505"/>
    <line x1="505" y1="505" x2="5" y2="505"/>
    <line x1="505" y1="505" x2="505" y2="5"/>
    <line x1="105" y1="2" x2="105" y2="8"/>
    <line x1="2" y1="105" x2="8" y2="105"/>
    <line x1="105" y1="502" x2="105" y2="508"/>
    <line x1="502" y1="105" x2="508" y2="105"/>
    <line x1="205" y1="2" x2="205" y2="8"/>
    <line x1="2" y1="205" x2="8" y2="205"/>
    <line x1="205" y1="502" x2="205" y2="508"/>
    <line x1="502" y1="205" x2="508" y2="205"/>
    <line x1="305" y1="2" x2="305" y2="8"/>
    <line x1="2" y1="305" x2="8" y2="305"/>
    <line x1="305" y1="502" x2="305" y2="508"/>
    <line x1="502" y1="305" x2="508" y2="305"/>
    <line x1="405" y1="2" x2="405" y2="8"/>
    <line x1="2" y1="405" x2="8" y2="405"/>
    <line x1="405" y1="502" x2="405" y2="508"/>
    <line x1="502" y1="405" x2="508" y2="405"/>
  </g>
  <g stroke="gray" stroke-width="1" stroke-dasharray="5,5">
    <line x1="105" y1="5" x2="105" y2="505"/>
    <line x1="5" y1="105" x2="505" y2="105"/>
    <line x1="205" y1="5" x2="205" y2="505"/>
    <line x1="5" y1="205" x2="505" y2="205"/>
    <line x1="305" y1="5" x2="305" y2="505"/>
    <line x1="5" y1="305" x2="505" y2="305"/>
    <line x1="405" y1="5" x2="405" y2="505"/>
    <line x1="5" y1="405" x2="505" y2="405"/>
  </g>
</svg>
