<?xml version="1.0" standalone="no"?>
<!DOCTYPE svg PUBLIC "-//W3C//DTD SVG 1.1//EN" 
  "http://www.w3.org/Graphics/SVG/1.1/DTD/svg11.dtd">
<svg width="564" height="564" version="1.1" id="toplevel"
    xmlns="http://www.w3.org/2000/svg"
    xmlns:xlink="http://www.w3.org/1999/xlink">
  <polygon points="242,559 329,543 507,286 559,322 543,235 286,57 322,5 235,21 57,278 5,242 21,329 278,507"
           fill="bisque"/>
  <g stroke="chocolate" stroke-width="1">
    <line x1="329" y1="543" x2="21" y2="329"/>
    <circle cx="329" cy="543" r="2"/>
    <circle cx="21" cy="329" r="2"/>
  </g>
  <g stroke="chocolate" stroke-width="1">
    <line x1="314" y1="456" x2="5" y2="242"/>
    <circle cx="314" cy="456" r="2"/>
    <circle cx="5" cy="242" r="2"/>
  </g>
  <g stroke="chocolate" stroke-width="1">
    <line x1="242" y1="559" x2="329" y2="543"/>
    <circle cx="242" cy="559" r="2"/>
    <circle cx="329" cy="543" r="2"/>
  </g>
  <g stroke="chocolate" stroke-width="1">
    <line x1="21" y1="329" x2="5" y2="242"/>
    <circle cx="21" cy="329" r="2"/>
    <circle cx="5" cy="242" r="2"/>
  </g>
  <g stroke="chocolate" stroke-width="1">
    <line x1="559" y1="322" x2="250" y2="108"/>
    <circle cx="559" cy="322" r="2"/>
    <circle cx="250" cy="108" r="2"/>
  </g>
  <g stroke="chocolate" stroke-width="1">
    <line x1="329" y1="543" x2="314" y2="456"/>
    <circle cx="329" cy="543" r="2"/>
    <circle cx="314" cy="456" r="2"/>
  </g>
  <g stroke="chocolate" stroke-width="1">
    <line x1="250" y1="108" x2="235" y2="21"/>
    <circle cx="250" cy="108" r="2"/>
    <circle cx="235" cy="21" r="2"/>
  </g>
  <g stroke="chocolate" stroke-width="1">
    <line x1="543" y1="235" x2="235" y2="21"/>
    <circle cx="543" cy="235" r="2"/>
    <circle cx="235" cy="21" r="2"/>
  </g>
  <g stroke="chocolate" stroke-width="1">
    <line x1="559" y1="322" x2="543" y2="235"/>
    <circle cx="559" cy="322" r="2"/>
    <circle cx="543" cy="235" r="2"/>
  </g>
  <g stroke="chocolate" stroke-width="1">
    <line x1="21" y1="329" x2="108" y2="314"/>
    <circle cx="21" cy="329" r="2"/>
    <circle cx="108" cy="314" r="2"/>
  </g>
  <g stroke="chocolate" stroke-width="1">
    <line x1="456" y1="250" x2="543" y2="235"/>
    <circle cx="456" cy="250" r="2"/>
    <circle cx="543" cy="235" r="2"/>
  </g>
  <g stroke="chocolate" stroke-width="1">
    <line x1="329" y1="543" x2="543" y2="235"/>
    <circle cx="329" cy="543" r="2"/>
    <circle cx="543" cy="235" r="2"/>
  </g>
  <g stroke="chocolate" stroke-width="1">
    <line x1="242" y1="559" x2="456" y2="250"/>
    <circle cx="242" cy="559" r="2"/>
    <circle cx="456" cy="250" r="2"/>
  </g>
  <g stroke="chocolate" stroke-width="1">
    <line x1="108" y1="314" x2="322" y2="5"/>
    <circle cx="108" cy="314" r="2"/>
    <circle cx="322" cy="5" r="2"/>
  </g>
  <g stroke="chocolate" stroke-width="1">
    <line x1="21" y1="329" x2="235" y2="21"/>
    <circle cx="21" cy="329" r="2"/>
    <circle cx="235" cy="21" r="2"/>
  </g>
  <g stroke="chocolate" stroke-width="1">
    <line x1="235" y1="21" x2="322" y2="5"/>
    <circle cx="235" cy="21" r="2"/>
    <circle cx="322" cy="5" r="2"/>
  </g>
  <g stroke="black" stroke-width="1">
    <line x1="32" y1="32" x2="532" y2="32"/>
    <line x1="32" y1="32" x2="32" y2="532"/>
    <line x1="532" y1="532" x2="32" y2="532"/>
    <line x1="532" y1="532" x2="532" y2="32"/>
    <line x1="132" y1="29" x2="132" y2="35"/>
    <line x1="29" y1="132" x2="35" y2="132"/>
    <line x1="132" y1="529" x2="132" y2="535"/>
    <line x1="529" y1="132" x2="535" y2="132"/>
    <line x1="232" y1="29" x2="232" y2="35"/>
    <line x1="29" y1="232" x2="35" y2="232"/>
    <line x1="232" y1="529" x2="232" y2="535"/>
    <line x1="529" y1="232" x2="535" y2="232"/>
    <line x1="332" y1="29" x2="332" y2="35"/>
    <line x1="29" y1="332" x2="35" y2="332"/>
    <line x1="332" y1="529" x2="332" y2="535"/>
    <line x1="529" y1="332" x2="535" y2="332"/>
    <line x1="432" y1="29" x2="432" y2="35"/>
    <line x1="29" y1="432" x2="35" y2="432"/>
    <line x1="432" y1="529" x2="432" y2="535"/>
    <line x1="529" y1="432" x2="535" y2="432"/>
  </g>
  <g stroke="gray" stroke-width="1" stroke-dasharray="5,5">
    <line x1="132" y1="32" x2="132" y2="532"/>
    <line x1="32" y1="132" x2="532" y2="132"/>
    <line x1="232" y1="32" x2="232" y2="532"/>
    <line x1="32" y1="232" x2="532" y2="232"/>
    <line x1="332" y1="32" x2="332" y2="532"/>
    <line x1="32" y1="332" x2="532" y2="332"/>
    <line x1="432" y1="32" x2="432" y2="532"/>
    <line x1="32" y1="432" x2="532" y2="432"/>
  </g>
</svg>
