<?xml version="1.0" standalone="no"?>
<!DOCTYPE svg PUBLIC "-//W3C//DTD SVG 1.1//EN" 
  "http://www.w3.org/Graphics/SVG/1.1/DTD/svg11.dtd">
<svg width="510" height="510" version="1.1" id="toplevel"
    xmlns="http://www.w3.org/2000/svg"
    xmlns:xlink="http://www.w3.org/1999/xlink">
  <polygon points="160,502 445,376 471,433 502,350 376,65 433,39 350,8 65,134 39,77 8,160 134,445 77,471"
           fill="bisque"/>
  <g stroke="chocolate" stroke-width="1">
    <line x1="160" y1="502" x2="77" y2="471"/>
    <circle cx="160" cy="502" r="2"/>
    <circle cx="77" cy="471" r="2"/>
  </g>
  <g stroke="chocolate" stroke-width="1">
    <line x1="160" y1="502" x2="8" y2="160"/>
    <circle cx="160" cy="502" r="2"/>
    <circle cx="8" cy="160" r="2"/>
  </g>
  <g stroke="chocolate" stroke-width="1">
    <line x1="191" y1="420" x2="39" y2="77"/>
    <circle cx="191" cy="420" r="2"/>
    <circle cx="39" cy="77" r="2"/>
  </g>
  <g stroke="chocolate" stroke-width="1">
    <line x1="471" y1="433" x2="319" y2="90"/>
    <circle cx="471" cy="433" r="2"/>
    <circle cx="319" cy="90" r="2"/>
  </g>
  <g stroke="chocolate" stroke-width="1">
    <line x1="502" y1="350" x2="350" y2="8"/>
    <circle cx="502" cy="350" r="2"/>
    <circle cx="350" cy="8" r="2"/>
  </g>
  <g stroke="chocolate" stroke-width="1">
    <line x1="502" y1="350" x2="420" y2="319"/>
    <circle cx="502" cy="350" r="2"/>
    <circle cx="420" cy="319" r="2"/>
  </g>
  <g stroke="chocolate" stroke-width="1">
    <line x1="90" y1="191" x2="8" y2="160"/>
    <circle cx="90" cy="191" r="2"/>
    <circle cx="8" cy="160" r="2"/>
  </g>
  <g stroke="chocolate" stroke-width="1">
    <line x1="471" y1="433" x2="502" y2="350"/>
    <circle cx="471" cy="433" r="2"/>
    <circle cx="502" cy="350" r="2"/>
  </g>
  <g stroke="chocolate" stroke-width="1">
    <line x1="160" y1="502" x2="502" y2="350"/>
    <circle cx="160" cy="502" r="2"/>
    <circle cx="502" cy="350" r="2"/>
  </g>
  <g stroke="chocolate" stroke-width="1">
    <line x1="77" y1="471" x2="420" y2="319"/>
    <circle cx="77" cy="471" r="2"/>
    <circle cx="420" cy="319" r="2"/>
  </g>
  <g stroke="chocolate" stroke-width="1">
    <line x1="160" y1="502" x2="191" y2="420"/>
    <circle cx="160" cy="502" r="2"/>
    <circle cx="191" cy="420" r="2"/>
  </g>
  <g stroke="chocolate" stroke-width="1">
    <line x1="319" y1="90" x2="350" y2="8"/>
    <circle cx="319" cy="90" r="2"/>
    <circle cx="350" cy="8" r="2"/>
  </g>
  <g stroke="chocolate" stroke-width="1">
    <line x1="8" y1="160" x2="39" y2="77"/>
    <circle cx="8" cy="160" r="2"/>
    <circle cx="39" cy="77" r="2"/>
  </g>
  <g stroke="chocolate" stroke-width="1">
    <line x1="433" y1="39" x2="350" y2="8"/>
    <circle cx="433" cy="39" r="2"/>
    <circle cx="350" cy="8" r="2"/>
  </g>
  <g stroke="chocolate" stroke-width="1">
    <line x1="90" y1="191" x2="433" y2="39"/>
    <circle cx="90" cy="191" r="2"/>
    <circle cx="433" cy="39" r="2"/>
  </g>
  <g stroke="chocolate" stroke-width="1">
    <line x1="8" y1="160" x2="350" y2="8"/>
    <circle cx="8" cy="160" r="2"/>
    <circle cx="350" cy="8" r="2"/>
  </g>
  <g stroke="black" stroke-width="1">
    <line x1="5" y1="5" x2="505" y2="5"/>
    <line x1="5" y1="5" x2="5" y2="505"/>
    <line x1="505" y1="505" x2="5" y2="505"/>
    <line x1="505" y1="505" x2="505" y2="5"/>
    <line x1="105" y1="2" x2="105" y2="8"/>
    <line x1="2" y1="105" x2="8" y2="105"/>
    <line x1="105" y1="502" x2="105" y2="508"/>
    <line x1="502" y1="105" x2="508" y2="105"/>
    <line x1="205" y1="2" x2="205" y2="8"/>
    <line x1="2" y1="205" x2="8" y2="205"/>
    <line x1="205" y1="502" x2="205" y2="508"/>
    <line x1="502" y1="205" x2="508" y2="205"/>
    <line x1="305" y1="2" x2="305" y2="8"/>
    <line x1="2" y1="305" x2="8" y2="305"/>
    <line x1="305" y1="502" x2="305" y2="508"/>
    <line x1="502" y1="305" x2="508" y2="305"/>
    <line x1="405" y1="2" x2="405" y2="8"/>
    <line x1="2" y1="405" x2="8" y2="405"/>
    <line x1="405" y1="502" x2="405" y2="508"/>
    <line x1="502" y1="405" x2="508" y2="405"/>
  </g>
  <g stroke="gray" stroke-width="1" stroke-dasharray="5,5">
    <line x1="105" y1="5" x2="105" y2="505"/>
    <line x1="5" y1="105" x2="505" y2="105"/>
    <line x1="205" y1="5" x2="205" y2="505"/>
    <line x1="5" y1="205" x2="505" y2="205"/>
    <line x1="305" y1="5" x2="305" y2="505"/>
    <line x1="5" y1="305" x2="505" y2="305"/>
    <line x1="405" y1="5" x2="405" y2="505"/>
    <line x1="5" y1="405" x2="505" y2="405"/>
  </g>
</svg>
