<?xml version="1.0" standalone="no"?>
<!DOCTYPE svg PUBLIC "-//W3C//DTD SVG 1.1//EN" 
  "http://www.w3.org/Graphics/SVG/1.1/DTD/svg11.dtd">
<svg width="510" height="510" version="1.1" id="toplevel"
    xmlns="http://www.w3.org/2000/svg"
    xmlns:xlink="http://www.w3.org/1999/xlink">
  <polygon points="99,450 435,208 449,97 301,60 296,80 348,165 301,206 222,191 215,205 204,266 178,279 147,341 139,348 77,315 61,319 97,441 94,446"
           fill="bisque"/>
  <g stroke="chocolate" stroke-width="1">
    <line x1="435" y1="208" x2="449" y2="97"/>
    <circle cx="435" cy="208" r="2"/>
    <circle cx="449" cy="97" r="2"/>
  </g>
  <g stroke="chocolate" stroke-width="1">
    <line x1="408" y1="227" x2="426" y2="97"/>
    <circle cx="408" cy="227" r="2"/>
    <circle cx="426" cy="97" r="2"/>
  </g>
  <g stroke="chocolate" stroke-width="1">
    <line x1="389" y1="241" x2="405" y2="116"/>
    <circle cx="389" cy="241" r="2"/>
    <circle cx="405" cy="116" r="2"/>
  </g>
  <g stroke="chocolate" stroke-width="1">
    <line x1="296" y1="80" x2="301" y2="60"/>
    <circle cx="296" cy="80" r="2"/>
    <circle cx="301" cy="60" r="2"/>
  </g>
  <g stroke="chocolate" stroke-width="1">
    <line x1="201" y1="376" x2="235" y2="211"/>
    <circle cx="201" cy="376" r="2"/>
    <circle cx="235" cy="211" r="2"/>
  </g>
  <g stroke="chocolate" stroke-width="1">
    <line x1="179" y1="392" x2="215" y2="205"/>
    <circle cx="179" cy="392" r="2"/>
    <circle cx="215" cy="205" r="2"/>
  </g>
  <g stroke="chocolate" stroke-width="1">
    <line x1="118" y1="436" x2="119" y2="366"/>
    <circle cx="118" cy="436" r="2"/>
    <circle cx="119" cy="366" r="2"/>
  </g>
  <g stroke="chocolate" stroke-width="1">
    <line x1="101" y1="449" x2="101" y2="382"/>
    <circle cx="101" cy="449" r="2"/>
    <circle cx="101" cy="382" r="2"/>
  </g>
  <g stroke="chocolate" stroke-width="1">
    <line x1="99" y1="450" x2="61" y2="319"/>
    <circle cx="99" cy="450" r="2"/>
    <circle cx="61" cy="319" r="2"/>
  </g>
  <g stroke="chocolate" stroke-width="1">
    <line x1="114" y1="439" x2="77" y2="315"/>
    <circle cx="114" cy="439" r="2"/>
    <circle cx="77" cy="315" r="2"/>
  </g>
  <g stroke="chocolate" stroke-width="1">
    <line x1="196" y1="380" x2="178" y2="279"/>
    <circle cx="196" cy="380" r="2"/>
    <circle cx="178" cy="279" r="2"/>
  </g>
  <g stroke="chocolate" stroke-width="1">
    <line x1="94" y1="446" x2="178" y2="279"/>
    <circle cx="94" cy="446" r="2"/>
    <circle cx="178" cy="279" r="2"/>
  </g>
  <g stroke="chocolate" stroke-width="1">
    <line x1="215" y1="205" x2="222" y2="191"/>
    <circle cx="215" cy="205" r="2"/>
    <circle cx="222" cy="191" r="2"/>
  </g>
  <g stroke="chocolate" stroke-width="1">
    <line x1="99" y1="450" x2="435" y2="208"/>
    <circle cx="99" cy="450" r="2"/>
    <circle cx="435" cy="208" r="2"/>
  </g>
  <g stroke="chocolate" stroke-width="1">
    <line x1="99" y1="450" x2="94" y2="446"/>
    <circle cx="99" cy="450" r="2"/>
    <circle cx="94" cy="446" r="2"/>
  </g>
  <g stroke="chocolate" stroke-width="1">
    <line x1="114" y1="439" x2="102" y2="430"/>
    <circle cx="114" cy="439" r="2"/>
    <circle cx="102" cy="430" r="2"/>
  </g>
  <g stroke="chocolate" stroke-width="1">
    <line x1="215" y1="205" x2="225" y2="194"/>
    <circle cx="215" cy="205" r="2"/>
    <circle cx="225" cy="194" r="2"/>
  </g>
  <g stroke="chocolate" stroke-width="1">
    <line x1="101" y1="382" x2="426" y2="97"/>
    <circle cx="101" cy="382" r="2"/>
    <circle cx="426" cy="97" r="2"/>
  </g>
  <g stroke="chocolate" stroke-width="1">
    <line x1="101" y1="449" x2="94" y2="446"/>
    <circle cx="101" cy="449" r="2"/>
    <circle cx="94" cy="446" r="2"/>
  </g>
  <g stroke="chocolate" stroke-width="1">
    <line x1="118" y1="436" x2="102" y2="430"/>
    <circle cx="118" cy="436" r="2"/>
    <circle cx="102" cy="430" r="2"/>
  </g>
  <g stroke="chocolate" stroke-width="1">
    <line x1="196" y1="380" x2="77" y2="315"/>
    <circle cx="196" cy="380" r="2"/>
    <circle cx="77" cy="315" r="2"/>
  </g>
  <g stroke="chocolate" stroke-width="1">
    <line x1="179" y1="392" x2="101" y2="382"/>
    <circle cx="179" cy="392" r="2"/>
    <circle cx="101" cy="382" r="2"/>
  </g>
  <g stroke="chocolate" stroke-width="1">
    <line x1="178" y1="279" x2="353" y2="191"/>
    <circle cx="178" cy="279" r="2"/>
    <circle cx="353" cy="191" r="2"/>
  </g>
  <g stroke="chocolate" stroke-width="1">
    <line x1="393" y1="239" x2="296" y2="80"/>
    <circle cx="393" cy="239" r="2"/>
    <circle cx="296" cy="80" r="2"/>
  </g>
  <g stroke="chocolate" stroke-width="1">
    <line x1="201" y1="376" x2="119" y2="366"/>
    <circle cx="201" cy="376" r="2"/>
    <circle cx="119" cy="366" r="2"/>
  </g>
  <g stroke="chocolate" stroke-width="1">
    <line x1="61" y1="319" x2="77" y2="315"/>
    <circle cx="61" cy="319" r="2"/>
    <circle cx="77" cy="315" r="2"/>
  </g>
  <g stroke="chocolate" stroke-width="1">
    <line x1="225" y1="194" x2="222" y2="191"/>
    <circle cx="225" cy="194" r="2"/>
    <circle cx="222" cy="191" r="2"/>
  </g>
  <g stroke="chocolate" stroke-width="1">
    <line x1="393" y1="239" x2="353" y2="191"/>
    <circle cx="393" cy="239" r="2"/>
    <circle cx="353" cy="191" r="2"/>
  </g>
  <g stroke="chocolate" stroke-width="1">
    <line x1="389" y1="241" x2="235" y2="211"/>
    <circle cx="389" cy="241" r="2"/>
    <circle cx="235" cy="211" r="2"/>
  </g>
  <g stroke="chocolate" stroke-width="1">
    <line x1="408" y1="227" x2="222" y2="191"/>
    <circle cx="408" cy="227" r="2"/>
    <circle cx="222" cy="191" r="2"/>
  </g>
  <g stroke="chocolate" stroke-width="1">
    <line x1="435" y1="208" x2="353" y2="191"/>
    <circle cx="435" cy="208" r="2"/>
    <circle cx="353" cy="191" r="2"/>
  </g>
  <g stroke="chocolate" stroke-width="1">
    <line x1="446" y1="116" x2="405" y2="116"/>
    <circle cx="446" cy="116" r="2"/>
    <circle cx="405" cy="116" r="2"/>
  </g>
  <g stroke="chocolate" stroke-width="1">
    <line x1="426" y1="97" x2="449" y2="97"/>
    <circle cx="426" cy="97" r="2"/>
    <circle cx="449" cy="97" r="2"/>
  </g>
  <g stroke="chocolate" stroke-width="1">
    <line x1="446" y1="116" x2="296" y2="80"/>
    <circle cx="446" cy="116" r="2"/>
    <circle cx="296" cy="80" r="2"/>
  </g>
  <g stroke="chocolate" stroke-width="1">
    <line x1="449" y1="97" x2="301" y2="60"/>
    <circle cx="449" cy="97" r="2"/>
    <circle cx="301" cy="60" r="2"/>
  </g>
  <g stroke="black" stroke-width="1">
    <line x1="5" y1="5" x2="505" y2="5"/>
    <line x1="5" y1="5" x2="5" y2="505"/>
    <line x1="505" y1="505" x2="5" y2="505"/>
    <line x1="505" y1="505" x2="505" y2="5"/>
    <line x1="105" y1="2" x2="105" y2="8"/>
    <line x1="2" y1="105" x2="8" y2="105"/>
    <line x1="105" y1="502" x2="105" y2="508"/>
    <line x1="502" y1="105" x2="508" y2="105"/>
    <line x1="205" y1="2" x2="205" y2="8"/>
    <line x1="2" y1="205" x2="8" y2="205"/>
    <line x1="205" y1="502" x2="205" y2="508"/>
    <line x1="502" y1="205" x2="508" y2="205"/>
    <line x1="305" y1="2" x2="305" y2="8"/>
    <line x1="2" y1="305" x2="8" y2="305"/>
    <line x1="305" y1="502" x2="305" y2="508"/>
    <line x1="502" y1="305" x2="508" y2="305"/>
    <line x1="405" y1="2" x2="405" y2="8"/>
    <line x1="2" y1="405" x2="8" y2="405"/>
    <line x1="405" y1="502" x2="405" y2="508"/>
    <line x1="502" y1="405" x2="508" y2="405"/>
  </g>
  <g stroke="gray" stroke-width="1" stroke-dasharray="5,5">
    <line x1="105" y1="5" x2="105" y2="505"/>
    <line x1="5" y1="105" x2="505" y2="105"/>
    <line x1="205" y1="5" x2="205" y2="505"/>
    <line x1="5" y1="205" x2="505" y2="205"/>
    <line x1="305" y1="5" x2="305" y2="505"/>
    <line x1="5" y1="305" x2="505" y2="305"/>
    <line x1="405" y1="5" x2="405" y2="505"/>
    <line x1="5" y1="405" x2="505" y2="405"/>
  </g>
</svg>
