<?xml version="1.0" standalone="no"?>
<!DOCTYPE svg PUBLIC "-//W3C//DTD SVG 1.1//EN" 
  "http://www.w3.org/Graphics/SVG/1.1/DTD/svg11.dtd">
<svg width="538" height="538" version="1.1" id="toplevel"
    xmlns="http://www.w3.org/2000/svg"
    xmlns:xlink="http://www.w3.org/1999/xlink">
  <polygon points="90,533 269,358 271,182 448,184 273,5 94,180" fill="bisque"/>
  <g stroke="chocolate" stroke-width="1">
    <line x1="269" y1="358" x2="94" y2="180"/>
    <circle cx="269" cy="358" r="2"/>
    <circle cx="94" cy="180" r="2"/>
  </g>
  <g stroke="chocolate" stroke-width="1">
    <line x1="269" y1="358" x2="273" y2="5"/>
    <circle cx="269" cy="358" r="2"/>
    <circle cx="273" cy="5" r="2"/>
  </g>
  <g stroke="chocolate" stroke-width="1">
    <line x1="90" y1="533" x2="94" y2="180"/>
    <circle cx="90" cy="533" r="2"/>
    <circle cx="94" cy="180" r="2"/>
  </g>
  <g stroke="chocolate" stroke-width="1">
    <line x1="448" y1="184" x2="273" y2="5"/>
    <circle cx="448" cy="184" r="2"/>
    <circle cx="273" cy="5" r="2"/>
  </g>
  <g stroke="chocolate" stroke-width="1">
    <line x1="90" y1="533" x2="269" y2="358"/>
    <circle cx="90" cy="533" r="2"/>
    <circle cx="269" cy="358" r="2"/>
  </g>
  <g stroke="chocolate" stroke-width="1">
    <line x1="448" y1="184" x2="94" y2="180"/>
    <circle cx="448" cy="184" r="2"/>
    <circle cx="94" cy="180" r="2"/>
  </g>
  <g stroke="chocolate" stroke-width="1">
    <line x1="94" y1="180" x2="273" y2="5"/>
    <circle cx="94" cy="180" r="2"/>
    <circle cx="273" cy="5" r="2"/>
  </g>
  <g stroke="black" stroke-width="1">
    <line x1="19" y1="19" x2="519" y2="19"/>
    <line x1="19" y1="19" x2="19" y2="519"/>
    <line x1="519" y1="519" x2="19" y2="519"/>
    <line x1="519" y1="519" x2="519" y2="19"/>
    <line x1="119" y1="16" x2="119" y2="22"/>
    <line x1="16" y1="119" x2="22" y2="119"/>
    <line x1="119" y1="516" x2="119" y2="522"/>
    <line x1="516" y1="119" x2="522" y2="119"/>
    <line x1="219" y1="16" x2="219" y2="22"/>
    <line x1="16" y1="219" x2="22" y2="219"/>
    <line x1="219" y1="516" x2="219" y2="522"/>
    <line x1="516" y1="219" x2="522" y2="219"/>
    <line x1="319" y1="16" x2="319" y2="22"/>
    <line x1="16" y1="319" x2="22" y2="319"/>
    <line x1="319" y1="516" x2="319" y2="522"/>
    <line x1="516" y1="319" x2="522" y2="319"/>
    <line x1="419" y1="16" x2="419" y2="22"/>
    <line x1="16" y1="419" x2="22" y2="419"/>
    <line x1="419" y1="516" x2="419" y2="522"/>
    <line x1="516" y1="419" x2="522" y2="419"/>
  </g>
  <g stroke="gray" stroke-width="1" stroke-dasharray="5,5">
    <line x1="119" y1="19" x2="119" y2="519"/>
    <line x1="19" y1="119" x2="519" y2="119"/>
    <line x1="219" y1="19" x2="219" y2="519"/>
    <line x1="19" y1="219" x2="519" y2="219"/>
    <line x1="319" y1="19" x2="319" y2="519"/>
    <line x1="19" y1="319" x2="519" y2="319"/>
    <line x1="419" y1="19" x2="419" y2="519"/>
    <line x1="19" y1="419" x2="519" y2="419"/>
  </g>
</svg>
