<?xml version="1.0" standalone="no"?>
<!DOCTYPE svg PUBLIC "-//W3C//DTD SVG 1.1//EN" 
  "http://www.w3.org/Graphics/SVG/1.1/DTD/svg11.dtd">
<svg width="510" height="510" version="1.1" id="toplevel"
    xmlns="http://www.w3.org/2000/svg"
    xmlns:xlink="http://www.w3.org/1999/xlink">
  <polygon points="130,336 267,336 298,305 298,266 267,234 237,234 237,205 206,174 159,174 128,205 128,268 159,268 159,205 206,205 206,234 237,266 267,266 267,274 130,274"
           fill="bisque"/>
  <g stroke="chocolate" stroke-width="1">
    <line x1="267" y1="336" x2="298" y2="305"/>
    <circle cx="267" cy="336" r="2"/>
    <circle cx="298" cy="305" r="2"/>
  </g>
  <g stroke="chocolate" stroke-width="1">
    <line x1="130" y1="336" x2="267" y2="336"/>
    <circle cx="130" cy="336" r="2"/>
    <circle cx="267" cy="336" r="2"/>
  </g>
  <g stroke="chocolate" stroke-width="1">
    <line x1="128" y1="205" x2="159" y2="174"/>
    <circle cx="128" cy="205" r="2"/>
    <circle cx="159" cy="174" r="2"/>
  </g>
  <g stroke="chocolate" stroke-width="1">
    <line x1="128" y1="268" x2="128" y2="205"/>
    <circle cx="128" cy="268" r="2"/>
    <circle cx="128" cy="205" r="2"/>
  </g>
  <g stroke="chocolate" stroke-width="1">
    <line x1="130" y1="336" x2="130" y2="274"/>
    <circle cx="130" cy="336" r="2"/>
    <circle cx="130" cy="274" r="2"/>
  </g>
  <g stroke="chocolate" stroke-width="1">
    <line x1="159" y1="268" x2="159" y2="174"/>
    <circle cx="159" cy="268" r="2"/>
    <circle cx="159" cy="174" r="2"/>
  </g>
  <g stroke="chocolate" stroke-width="1">
    <line x1="206" y1="234" x2="206" y2="174"/>
    <circle cx="206" cy="234" r="2"/>
    <circle cx="206" cy="174" r="2"/>
  </g>
  <g stroke="chocolate" stroke-width="1">
    <line x1="237" y1="266" x2="237" y2="205"/>
    <circle cx="237" cy="266" r="2"/>
    <circle cx="237" cy="205" r="2"/>
  </g>
  <g stroke="chocolate" stroke-width="1">
    <line x1="267" y1="336" x2="267" y2="234"/>
    <circle cx="267" cy="336" r="2"/>
    <circle cx="267" cy="234" r="2"/>
  </g>
  <g stroke="chocolate" stroke-width="1">
    <line x1="298" y1="305" x2="298" y2="266"/>
    <circle cx="298" cy="305" r="2"/>
    <circle cx="298" cy="266" r="2"/>
  </g>
  <g stroke="chocolate" stroke-width="1">
    <line x1="130" y1="274" x2="298" y2="274"/>
    <circle cx="130" cy="274" r="2"/>
    <circle cx="298" cy="274" r="2"/>
  </g>
  <g stroke="chocolate" stroke-width="1">
    <line x1="128" y1="268" x2="159" y2="268"/>
    <circle cx="128" cy="268" r="2"/>
    <circle cx="159" cy="268" r="2"/>
  </g>
  <g stroke="chocolate" stroke-width="1">
    <line x1="237" y1="266" x2="298" y2="266"/>
    <circle cx="237" cy="266" r="2"/>
    <circle cx="298" cy="266" r="2"/>
  </g>
  <g stroke="chocolate" stroke-width="1">
    <line x1="206" y1="234" x2="267" y2="234"/>
    <circle cx="206" cy="234" r="2"/>
    <circle cx="267" cy="234" r="2"/>
  </g>
  <g stroke="chocolate" stroke-width="1">
    <line x1="128" y1="205" x2="237" y2="205"/>
    <circle cx="128" cy="205" r="2"/>
    <circle cx="237" cy="205" r="2"/>
  </g>
  <g stroke="chocolate" stroke-width="1">
    <line x1="159" y1="174" x2="206" y2="174"/>
    <circle cx="159" cy="174" r="2"/>
    <circle cx="206" cy="174" r="2"/>
  </g>
  <g stroke="chocolate" stroke-width="1">
    <line x1="237" y1="266" x2="206" y2="234"/>
    <circle cx="237" cy="266" r="2"/>
    <circle cx="206" cy="234" r="2"/>
  </g>
  <g stroke="chocolate" stroke-width="1">
    <line x1="298" y1="305" x2="267" y2="274"/>
    <circle cx="298" cy="305" r="2"/>
    <circle cx="267" cy="274" r="2"/>
  </g>
  <g stroke="chocolate" stroke-width="1">
    <line x1="298" y1="266" x2="267" y2="234"/>
    <circle cx="298" cy="266" r="2"/>
    <circle cx="267" cy="234" r="2"/>
  </g>
  <g stroke="chocolate" stroke-width="1">
    <line x1="237" y1="205" x2="206" y2="174"/>
    <circle cx="237" cy="205" r="2"/>
    <circle cx="206" cy="174" r="2"/>
  </g>
  <g stroke="black" stroke-width="1">
    <line x1="5" y1="5" x2="505" y2="5"/>
    <line x1="5" y1="5" x2="5" y2="505"/>
    <line x1="505" y1="505" x2="5" y2="505"/>
    <line x1="505" y1="505" x2="505" y2="5"/>
    <line x1="105" y1="2" x2="105" y2="8"/>
    <line x1="2" y1="105" x2="8" y2="105"/>
    <line x1="105" y1="502" x2="105" y2="508"/>
    <line x1="502" y1="105" x2="508" y2="105"/>
    <line x1="205" y1="2" x2="205" y2="8"/>
    <line x1="2" y1="205" x2="8" y2="205"/>
    <line x1="205" y1="502" x2="205" y2="508"/>
    <line x1="502" y1="205" x2="508" y2="205"/>
    <line x1="305" y1="2" x2="305" y2="8"/>
    <line x1="2" y1="305" x2="8" y2="305"/>
    <line x1="305" y1="502" x2="305" y2="508"/>
    <line x1="502" y1="305" x2="508" y2="305"/>
    <line x1="405" y1="2" x2="405" y2="8"/>
    <line x1="2" y1="405" x2="8" y2="405"/>
    <line x1="405" y1="502" x2="405" y2="508"/>
    <line x1="502" y1="405" x2="508" y2="405"/>
  </g>
  <g stroke="gray" stroke-width="1" stroke-dasharray="5,5">
    <line x1="105" y1="5" x2="105" y2="505"/>
    <line x1="5" y1="105" x2="505" y2="105"/>
    <line x1="205" y1="5" x2="205" y2="505"/>
    <line x1="5" y1="205" x2="505" y2="205"/>
    <line x1="305" y1="5" x2="305" y2="505"/>
    <line x1="5" y1="305" x2="505" y2="305"/>
    <line x1="405" y1="5" x2="405" y2="505"/>
    <line x1="5" y1="405" x2="505" y2="405"/>
  </g>
</svg>
