<?xml version="1.0" standalone="no"?>
<!DOCTYPE svg PUBLIC "-//W3C//DTD SVG 1.1//EN" 
  "http://www.w3.org/Graphics/SVG/1.1/DTD/svg11.dtd">
<svg width="550" height="550" version="1.1" id="toplevel"
    xmlns="http://www.w3.org/2000/svg"
    xmlns:xlink="http://www.w3.org/1999/xlink">
  <polygon points="495,524 545,279 300,229 5,423 250,474 397,377" fill="bisque"/>
  <g stroke="chocolate" stroke-width="1">
    <line x1="495" y1="524" x2="300" y2="229"/>
    <circle cx="495" cy="524" r="2"/>
    <circle cx="300" cy="229" r="2"/>
  </g>
  <g stroke="chocolate" stroke-width="1">
    <line x1="250" y1="474" x2="5" y2="423"/>
    <circle cx="250" cy="474" r="2"/>
    <circle cx="5" cy="423" r="2"/>
  </g>
  <g stroke="chocolate" stroke-width="1">
    <line x1="495" y1="524" x2="545" y2="279"/>
    <circle cx="495" cy="524" r="2"/>
    <circle cx="545" cy="279" r="2"/>
  </g>
  <g stroke="chocolate" stroke-width="1">
    <line x1="545" y1="279" x2="300" y2="229"/>
    <circle cx="545" cy="279" r="2"/>
    <circle cx="300" cy="229" r="2"/>
  </g>
  <g stroke="chocolate" stroke-width="1">
    <line x1="250" y1="474" x2="300" y2="229"/>
    <circle cx="250" cy="474" r="2"/>
    <circle cx="300" cy="229" r="2"/>
  </g>
  <g stroke="chocolate" stroke-width="1">
    <line x1="250" y1="474" x2="545" y2="279"/>
    <circle cx="250" cy="474" r="2"/>
    <circle cx="545" cy="279" r="2"/>
  </g>
  <g stroke="chocolate" stroke-width="1">
    <line x1="5" y1="423" x2="300" y2="229"/>
    <circle cx="5" cy="423" r="2"/>
    <circle cx="300" cy="229" r="2"/>
  </g>
  <g stroke="black" stroke-width="1">
    <line x1="25" y1="25" x2="525" y2="25"/>
    <line x1="25" y1="25" x2="25" y2="525"/>
    <line x1="525" y1="525" x2="25" y2="525"/>
    <line x1="525" y1="525" x2="525" y2="25"/>
    <line x1="125" y1="22" x2="125" y2="28"/>
    <line x1="22" y1="125" x2="28" y2="125"/>
    <line x1="125" y1="522" x2="125" y2="528"/>
    <line x1="522" y1="125" x2="528" y2="125"/>
    <line x1="225" y1="22" x2="225" y2="28"/>
    <line x1="22" y1="225" x2="28" y2="225"/>
    <line x1="225" y1="522" x2="225" y2="528"/>
    <line x1="522" y1="225" x2="528" y2="225"/>
    <line x1="325" y1="22" x2="325" y2="28"/>
    <line x1="22" y1="325" x2="28" y2="325"/>
    <line x1="325" y1="522" x2="325" y2="528"/>
    <line x1="522" y1="325" x2="528" y2="325"/>
    <line x1="425" y1="22" x2="425" y2="28"/>
    <line x1="22" y1="425" x2="28" y2="425"/>
    <line x1="425" y1="522" x2="425" y2="528"/>
    <line x1="522" y1="425" x2="528" y2="425"/>
  </g>
  <g stroke="gray" stroke-width="1" stroke-dasharray="5,5">
    <line x1="125" y1="25" x2="125" y2="525"/>
    <line x1="25" y1="125" x2="525" y2="125"/>
    <line x1="225" y1="25" x2="225" y2="525"/>
    <line x1="25" y1="225" x2="525" y2="225"/>
    <line x1="325" y1="25" x2="325" y2="525"/>
    <line x1="25" y1="325" x2="525" y2="325"/>
    <line x1="425" y1="25" x2="425" y2="525"/>
    <line x1="25" y1="425" x2="525" y2="425"/>
  </g>
</svg>
