<?xml version="1.0" standalone="no"?>
<!DOCTYPE svg PUBLIC "-//W3C//DTD SVG 1.1//EN" 
  "http://www.w3.org/Graphics/SVG/1.1/DTD/svg11.dtd">
<svg width="538" height="538" version="1.1" id="toplevel"
    xmlns="http://www.w3.org/2000/svg"
    xmlns:xlink="http://www.w3.org/1999/xlink">
  <polygon points="481,519 533,106 5,291" fill="bisque"/>
  <g stroke="chocolate" stroke-width="1">
    <line x1="481" y1="519" x2="533" y2="106"/>
    <circle cx="481" cy="519" r="2"/>
    <circle cx="533" cy="106" r="2"/>
  </g>
  <g stroke="chocolate" stroke-width="1">
    <line x1="481" y1="519" x2="315" y2="230"/>
    <circle cx="481" cy="519" r="2"/>
    <circle cx="315" cy="230" r="2"/>
  </g>
  <g stroke="chocolate" stroke-width="1">
    <line x1="481" y1="519" x2="5" y2="291"/>
    <circle cx="481" cy="519" r="2"/>
    <circle cx="5" cy="291" r="2"/>
  </g>
  <g stroke="chocolate" stroke-width="1">
    <line x1="501" y1="354" x2="5" y2="291"/>
    <circle cx="501" cy="354" r="2"/>
    <circle cx="5" cy="291" r="2"/>
  </g>
  <g stroke="chocolate" stroke-width="1">
    <line x1="315" y1="230" x2="533" y2="106"/>
    <circle cx="315" cy="230" r="2"/>
    <circle cx="533" cy="106" r="2"/>
  </g>
  <g stroke="chocolate" stroke-width="1">
    <line x1="5" y1="291" x2="533" y2="106"/>
    <circle cx="5" cy="291" r="2"/>
    <circle cx="533" cy="106" r="2"/>
  </g>
  <g stroke="black" stroke-width="1">
    <line x1="19" y1="19" x2="519" y2="19"/>
    <line x1="19" y1="19" x2="19" y2="519"/>
    <line x1="519" y1="519" x2="19" y2="519"/>
    <line x1="519" y1="519" x2="519" y2="19"/>
    <line x1="119" y1="16" x2="119" y2="22"/>
    <line x1="16" y1="119" x2="22" y2="119"/>
    <line x1="119" y1="516" x2="119" y2="522"/>
    <line x1="516" y1="119" x2="522" y2="119"/>
    <line x1="219" y1="16" x2="219" y2="22"/>
    <line x1="16" y1="219" x2="22" y2="219"/>
    <line x1="219" y1="516" x2="219" y2="522"/>
    <line x1="516" y1="219" x2="522" y2="219"/>
    <line x1="319" y1="16" x2="319" y2="22"/>
    <line x1="16" y1="319" x2="22" y2="319"/>
    <line x1="319" y1="516" x2="319" y2="522"/>
    <line x1="516" y1="319" x2="522" y2="319"/>
    <line x1="419" y1="16" x2="419" y2="22"/>
    <line x1="16" y1="419" x2="22" y2="419"/>
    <line x1="419" y1="516" x2="419" y2="522"/>
    <line x1="516" y1="419" x2="522" y2="419"/>
  </g>
  <g stroke="gray" stroke-width="1" stroke-dasharray="5,5">
    <line x1="119" y1="19" x2="119" y2="519"/>
    <line x1="19" y1="119" x2="519" y2="119"/>
    <line x1="219" y1="19" x2="219" y2="519"/>
    <line x1="19" y1="219" x2="519" y2="219"/>
    <line x1="319" y1="19" x2="319" y2="519"/>
    <line x1="19" y1="319" x2="519" y2="319"/>
    <line x1="419" y1="19" x2="419" y2="519"/>
    <line x1="19" y1="419" x2="519" y2="419"/>
  </g>
</svg>
