<?xml version="1.0" standalone="no"?>
<!DOCTYPE svg PUBLIC "-//W3C//DTD SVG 1.1//EN" 
  "http://www.w3.org/Graphics/SVG/1.1/DTD/svg11.dtd">
<svg width="510" height="510" version="1.1" id="toplevel"
    xmlns="http://www.w3.org/2000/svg"
    xmlns:xlink="http://www.w3.org/1999/xlink">
  <polygon points="271,465 452,312 371,212 362,211 271,108 225,103 173,364 208,374 209,369 236,372 189,439 179,442 181,451"
           fill="bisque"/>
  <g stroke="chocolate" stroke-width="1">
    <line x1="361" y1="389" x2="417" y2="272"/>
    <circle cx="361" cy="389" r="2"/>
    <circle cx="417" cy="272" r="2"/>
  </g>
  <g stroke="chocolate" stroke-width="1">
    <line x1="271" y1="465" x2="452" y2="312"/>
    <circle cx="271" cy="465" r="2"/>
    <circle cx="452" cy="312" r="2"/>
  </g>
  <g stroke="chocolate" stroke-width="1">
    <line x1="181" y1="451" x2="249" y2="354"/>
    <circle cx="181" cy="451" r="2"/>
    <circle cx="249" cy="354" r="2"/>
  </g>
  <g stroke="chocolate" stroke-width="1">
    <line x1="208" y1="374" x2="279" y2="125"/>
    <circle cx="208" cy="374" r="2"/>
    <circle cx="279" cy="125" r="2"/>
  </g>
  <g stroke="chocolate" stroke-width="1">
    <line x1="232" y1="459" x2="275" y2="197"/>
    <circle cx="232" cy="459" r="2"/>
    <circle cx="275" cy="197" r="2"/>
  </g>
  <g stroke="chocolate" stroke-width="1">
    <line x1="173" y1="364" x2="225" y2="103"/>
    <circle cx="173" cy="364" r="2"/>
    <circle cx="225" cy="103" r="2"/>
  </g>
  <g stroke="chocolate" stroke-width="1">
    <line x1="363" y1="387" x2="371" y2="212"/>
    <circle cx="363" cy="387" r="2"/>
    <circle cx="371" cy="212" r="2"/>
  </g>
  <g stroke="chocolate" stroke-width="1">
    <line x1="271" y1="465" x2="271" y2="108"/>
    <circle cx="271" cy="465" r="2"/>
    <circle cx="271" cy="108" r="2"/>
  </g>
  <g stroke="chocolate" stroke-width="1">
    <line x1="179" y1="442" x2="361" y2="389"/>
    <circle cx="179" cy="442" r="2"/>
    <circle cx="361" cy="389" r="2"/>
  </g>
  <g stroke="chocolate" stroke-width="1">
    <line x1="204" y1="209" x2="279" y2="125"/>
    <circle cx="204" cy="209" r="2"/>
    <circle cx="279" cy="125" r="2"/>
  </g>
  <g stroke="chocolate" stroke-width="1">
    <line x1="181" y1="451" x2="179" y2="442"/>
    <circle cx="181" cy="451" r="2"/>
    <circle cx="179" cy="442" r="2"/>
  </g>
  <g stroke="chocolate" stroke-width="1">
    <line x1="353" y1="396" x2="293" y2="133"/>
    <circle cx="353" cy="396" r="2"/>
    <circle cx="293" cy="133" r="2"/>
  </g>
  <g stroke="chocolate" stroke-width="1">
    <line x1="271" y1="465" x2="181" y2="451"/>
    <circle cx="271" cy="465" r="2"/>
    <circle cx="181" cy="451" r="2"/>
  </g>
  <g stroke="chocolate" stroke-width="1">
    <line x1="245" y1="331" x2="417" y2="272"/>
    <circle cx="245" cy="331" r="2"/>
    <circle cx="417" cy="272" r="2"/>
  </g>
  <g stroke="chocolate" stroke-width="1">
    <line x1="245" y1="331" x2="204" y2="209"/>
    <circle cx="245" cy="331" r="2"/>
    <circle cx="204" cy="209" r="2"/>
  </g>
  <g stroke="chocolate" stroke-width="1">
    <line x1="363" y1="387" x2="173" y2="364"/>
    <circle cx="363" cy="387" r="2"/>
    <circle cx="173" cy="364" r="2"/>
  </g>
  <g stroke="chocolate" stroke-width="1">
    <line x1="208" y1="374" x2="173" y2="364"/>
    <circle cx="208" cy="374" r="2"/>
    <circle cx="173" cy="364" r="2"/>
  </g>
  <g stroke="chocolate" stroke-width="1">
    <line x1="353" y1="396" x2="249" y2="354"/>
    <circle cx="353" cy="396" r="2"/>
    <circle cx="249" cy="354" r="2"/>
  </g>
  <g stroke="chocolate" stroke-width="1">
    <line x1="452" y1="312" x2="371" y2="212"/>
    <circle cx="452" cy="312" r="2"/>
    <circle cx="371" cy="212" r="2"/>
  </g>
  <g stroke="chocolate" stroke-width="1">
    <line x1="452" y1="312" x2="271" y2="108"/>
    <circle cx="452" cy="312" r="2"/>
    <circle cx="271" cy="108" r="2"/>
  </g>
  <g stroke="chocolate" stroke-width="1">
    <line x1="371" y1="212" x2="275" y2="197"/>
    <circle cx="371" cy="212" r="2"/>
    <circle cx="275" cy="197" r="2"/>
  </g>
  <g stroke="chocolate" stroke-width="1">
    <line x1="251" y1="110" x2="224" y2="109"/>
    <circle cx="251" cy="110" r="2"/>
    <circle cx="224" cy="109" r="2"/>
  </g>
  <g stroke="chocolate" stroke-width="1">
    <line x1="279" y1="125" x2="251" y2="110"/>
    <circle cx="279" cy="125" r="2"/>
    <circle cx="251" cy="110" r="2"/>
  </g>
  <g stroke="chocolate" stroke-width="1">
    <line x1="293" y1="133" x2="224" y2="109"/>
    <circle cx="293" cy="133" r="2"/>
    <circle cx="224" cy="109" r="2"/>
  </g>
  <g stroke="chocolate" stroke-width="1">
    <line x1="271" y1="108" x2="225" y2="103"/>
    <circle cx="271" cy="108" r="2"/>
    <circle cx="225" cy="103" r="2"/>
  </g>
  <g stroke="chocolate" stroke-width="1">
    <line x1="251" y1="110" x2="225" y2="103"/>
    <circle cx="251" cy="110" r="2"/>
    <circle cx="225" cy="103" r="2"/>
  </g>
  <g stroke="black" stroke-width="1">
    <line x1="5" y1="5" x2="505" y2="5"/>
    <line x1="5" y1="5" x2="5" y2="505"/>
    <line x1="505" y1="505" x2="5" y2="505"/>
    <line x1="505" y1="505" x2="505" y2="5"/>
    <line x1="105" y1="2" x2="105" y2="8"/>
    <line x1="2" y1="105" x2="8" y2="105"/>
    <line x1="105" y1="502" x2="105" y2="508"/>
    <line x1="502" y1="105" x2="508" y2="105"/>
    <line x1="205" y1="2" x2="205" y2="8"/>
    <line x1="2" y1="205" x2="8" y2="205"/>
    <line x1="205" y1="502" x2="205" y2="508"/>
    <line x1="502" y1="205" x2="508" y2="205"/>
    <line x1="305" y1="2" x2="305" y2="8"/>
    <line x1="2" y1="305" x2="8" y2="305"/>
    <line x1="305" y1="502" x2="305" y2="508"/>
    <line x1="502" y1="305" x2="508" y2="305"/>
    <line x1="405" y1="2" x2="405" y2="8"/>
    <line x1="2" y1="405" x2="8" y2="405"/>
    <line x1="405" y1="502" x2="405" y2="508"/>
    <line x1="502" y1="405" x2="508" y2="405"/>
  </g>
  <g stroke="gray" stroke-width="1" stroke-dasharray="5,5">
    <line x1="105" y1="5" x2="105" y2="505"/>
    <line x1="5" y1="105" x2="505" y2="105"/>
    <line x1="205" y1="5" x2="205" y2="505"/>
    <line x1="5" y1="205" x2="505" y2="205"/>
    <line x1="305" y1="5" x2="305" y2="505"/>
    <line x1="5" y1="305" x2="505" y2="305"/>
    <line x1="405" y1="5" x2="405" y2="505"/>
    <line x1="5" y1="405" x2="505" y2="405"/>
  </g>
</svg>
