<?xml version="1.0" standalone="no"?>
<!DOCTYPE svg PUBLIC "-//W3C//DTD SVG 1.1//EN" 
  "http://www.w3.org/Graphics/SVG/1.1/DTD/svg11.dtd">
<svg width="510" height="510" version="1.1" id="toplevel"
    xmlns="http://www.w3.org/2000/svg"
    xmlns:xlink="http://www.w3.org/1999/xlink">
  <polygon points="262,451 338,406 354,345 308,269 248,254 172,299 156,360 202,436"
           fill="bisque"/>
  <polygon points="278,391 217,375 232,315 293,330" fill="bisque"/>
  <g stroke="chocolate" stroke-width="1">
    <line x1="202" y1="436" x2="156" y2="360"/>
    <circle cx="202" cy="436" r="2"/>
    <circle cx="156" cy="360" r="2"/>
  </g>
  <g stroke="chocolate" stroke-width="1">
    <line x1="338" y1="406" x2="354" y2="345"/>
    <circle cx="338" cy="406" r="2"/>
    <circle cx="354" cy="345" r="2"/>
  </g>
  <g stroke="chocolate" stroke-width="1">
    <line x1="262" y1="451" x2="308" y2="269"/>
    <circle cx="262" cy="451" r="2"/>
    <circle cx="308" cy="269" r="2"/>
  </g>
  <g stroke="chocolate" stroke-width="1">
    <line x1="262" y1="451" x2="202" y2="436"/>
    <circle cx="262" cy="451" r="2"/>
    <circle cx="202" cy="436" r="2"/>
  </g>
  <g stroke="chocolate" stroke-width="1">
    <line x1="354" y1="345" x2="308" y2="269"/>
    <circle cx="354" cy="345" r="2"/>
    <circle cx="308" cy="269" r="2"/>
  </g>
  <g stroke="chocolate" stroke-width="1">
    <line x1="202" y1="436" x2="248" y2="254"/>
    <circle cx="202" cy="436" r="2"/>
    <circle cx="248" cy="254" r="2"/>
  </g>
  <g stroke="chocolate" stroke-width="1">
    <line x1="156" y1="360" x2="172" y2="299"/>
    <circle cx="156" cy="360" r="2"/>
    <circle cx="172" cy="299" r="2"/>
  </g>
  <g stroke="chocolate" stroke-width="1">
    <line x1="262" y1="451" x2="338" y2="406"/>
    <circle cx="262" cy="451" r="2"/>
    <circle cx="338" cy="406" r="2"/>
  </g>
  <g stroke="chocolate" stroke-width="1">
    <line x1="338" y1="406" x2="156" y2="360"/>
    <circle cx="338" cy="406" r="2"/>
    <circle cx="156" cy="360" r="2"/>
  </g>
  <g stroke="chocolate" stroke-width="1">
    <line x1="354" y1="345" x2="172" y2="299"/>
    <circle cx="354" cy="345" r="2"/>
    <circle cx="172" cy="299" r="2"/>
  </g>
  <g stroke="chocolate" stroke-width="1">
    <line x1="308" y1="269" x2="248" y2="254"/>
    <circle cx="308" cy="269" r="2"/>
    <circle cx="248" cy="254" r="2"/>
  </g>
  <g stroke="chocolate" stroke-width="1">
    <line x1="172" y1="299" x2="248" y2="254"/>
    <circle cx="172" cy="299" r="2"/>
    <circle cx="248" cy="254" r="2"/>
  </g>
  <g stroke="black" stroke-width="1">
    <line x1="5" y1="5" x2="505" y2="5"/>
    <line x1="5" y1="5" x2="5" y2="505"/>
    <line x1="505" y1="505" x2="5" y2="505"/>
    <line x1="505" y1="505" x2="505" y2="5"/>
    <line x1="105" y1="2" x2="105" y2="8"/>
    <line x1="2" y1="105" x2="8" y2="105"/>
    <line x1="105" y1="502" x2="105" y2="508"/>
    <line x1="502" y1="105" x2="508" y2="105"/>
    <line x1="205" y1="2" x2="205" y2="8"/>
    <line x1="2" y1="205" x2="8" y2="205"/>
    <line x1="205" y1="502" x2="205" y2="508"/>
    <line x1="502" y1="205" x2="508" y2="205"/>
    <line x1="305" y1="2" x2="305" y2="8"/>
    <line x1="2" y1="305" x2="8" y2="305"/>
    <line x1="305" y1="502" x2="305" y2="508"/>
    <line x1="502" y1="305" x2="508" y2="305"/>
    <line x1="405" y1="2" x2="405" y2="8"/>
    <line x1="2" y1="405" x2="8" y2="405"/>
    <line x1="405" y1="502" x2="405" y2="508"/>
    <line x1="502" y1="405" x2="508" y2="405"/>
  </g>
  <g stroke="gray" stroke-width="1" stroke-dasharray="5,5">
    <line x1="105" y1="5" x2="105" y2="505"/>
    <line x1="5" y1="105" x2="505" y2="105"/>
    <line x1="205" y1="5" x2="205" y2="505"/>
    <line x1="5" y1="205" x2="505" y2="205"/>
    <line x1="305" y1="5" x2="305" y2="505"/>
    <line x1="5" y1="305" x2="505" y2="305"/>
    <line x1="405" y1="5" x2="405" y2="505"/>
    <line x1="5" y1="405" x2="505" y2="405"/>
  </g>
</svg>
