<?xml version="1.0" standalone="no"?>
<!DOCTYPE svg PUBLIC "-//W3C//DTD SVG 1.1//EN" 
  "http://www.w3.org/Graphics/SVG/1.1/DTD/svg11.dtd">
<svg width="510" height="510" version="1.1" id="toplevel"
    xmlns="http://www.w3.org/2000/svg"
    xmlns:xlink="http://www.w3.org/1999/xlink">
  <polygon points="242,435 488,390 421,149 314,178 306,169 294,170 235,75 22,206 171,407 219,371 224,376 231,376"
           fill="bisque"/>
  <g stroke="chocolate" stroke-width="1">
    <line x1="488" y1="390" x2="224" y2="376"/>
    <circle cx="488" cy="390" r="2"/>
    <circle cx="224" cy="376" r="2"/>
  </g>
  <g stroke="chocolate" stroke-width="1">
    <line x1="242" y1="435" x2="488" y2="390"/>
    <circle cx="242" cy="435" r="2"/>
    <circle cx="488" cy="390" r="2"/>
  </g>
  <g stroke="chocolate" stroke-width="1">
    <line x1="323" y1="295" x2="208" y2="250"/>
    <circle cx="323" cy="295" r="2"/>
    <circle cx="208" cy="250" r="2"/>
  </g>
  <g stroke="chocolate" stroke-width="1">
    <line x1="337" y1="241" x2="234" y2="200"/>
    <circle cx="337" cy="241" r="2"/>
    <circle cx="234" cy="200" r="2"/>
  </g>
  <g stroke="chocolate" stroke-width="1">
    <line x1="22" y1="206" x2="306" y2="169"/>
    <circle cx="22" cy="206" r="2"/>
    <circle cx="306" cy="169" r="2"/>
  </g>
  <g stroke="chocolate" stroke-width="1">
    <line x1="234" y1="200" x2="421" y2="149"/>
    <circle cx="234" cy="200" r="2"/>
    <circle cx="421" cy="149" r="2"/>
  </g>
  <g stroke="chocolate" stroke-width="1">
    <line x1="224" y1="376" x2="22" y2="206"/>
    <circle cx="224" cy="376" r="2"/>
    <circle cx="22" cy="206" r="2"/>
  </g>
  <g stroke="chocolate" stroke-width="1">
    <line x1="171" y1="407" x2="323" y2="295"/>
    <circle cx="171" cy="407" r="2"/>
    <circle cx="323" cy="295" r="2"/>
  </g>
  <g stroke="chocolate" stroke-width="1">
    <line x1="171" y1="407" x2="22" y2="206"/>
    <circle cx="171" cy="407" r="2"/>
    <circle cx="22" cy="206" r="2"/>
  </g>
  <g stroke="chocolate" stroke-width="1">
    <line x1="22" y1="206" x2="235" y2="75"/>
    <circle cx="22" cy="206" r="2"/>
    <circle cx="235" cy="75" r="2"/>
  </g>
  <g stroke="chocolate" stroke-width="1">
    <line x1="208" y1="250" x2="306" y2="169"/>
    <circle cx="208" cy="250" r="2"/>
    <circle cx="306" cy="169" r="2"/>
  </g>
  <g stroke="chocolate" stroke-width="1">
    <line x1="488" y1="390" x2="306" y2="169"/>
    <circle cx="488" cy="390" r="2"/>
    <circle cx="306" cy="169" r="2"/>
  </g>
  <g stroke="chocolate" stroke-width="1">
    <line x1="224" y1="376" x2="337" y2="241"/>
    <circle cx="224" cy="376" r="2"/>
    <circle cx="337" cy="241" r="2"/>
  </g>
  <g stroke="chocolate" stroke-width="1">
    <line x1="337" y1="241" x2="235" y2="75"/>
    <circle cx="337" cy="241" r="2"/>
    <circle cx="235" cy="75" r="2"/>
  </g>
  <g stroke="chocolate" stroke-width="1">
    <line x1="242" y1="435" x2="208" y2="250"/>
    <circle cx="242" cy="435" r="2"/>
    <circle cx="208" cy="250" r="2"/>
  </g>
  <g stroke="chocolate" stroke-width="1">
    <line x1="488" y1="390" x2="421" y2="149"/>
    <circle cx="488" cy="390" r="2"/>
    <circle cx="421" cy="149" r="2"/>
  </g>
  <g stroke="chocolate" stroke-width="1">
    <line x1="323" y1="295" x2="306" y2="169"/>
    <circle cx="323" cy="295" r="2"/>
    <circle cx="306" cy="169" r="2"/>
  </g>
  <g stroke="chocolate" stroke-width="1">
    <line x1="224" y1="376" x2="234" y2="200"/>
    <circle cx="224" cy="376" r="2"/>
    <circle cx="234" cy="200" r="2"/>
  </g>
  <g stroke="black" stroke-width="1">
    <line x1="5" y1="5" x2="505" y2="5"/>
    <line x1="5" y1="5" x2="5" y2="505"/>
    <line x1="505" y1="505" x2="5" y2="505"/>
    <line x1="505" y1="505" x2="505" y2="5"/>
    <line x1="105" y1="2" x2="105" y2="8"/>
    <line x1="2" y1="105" x2="8" y2="105"/>
    <line x1="105" y1="502" x2="105" y2="508"/>
    <line x1="502" y1="105" x2="508" y2="105"/>
    <line x1="205" y1="2" x2="205" y2="8"/>
    <line x1="2" y1="205" x2="8" y2="205"/>
    <line x1="205" y1="502" x2="205" y2="508"/>
    <line x1="502" y1="205" x2="508" y2="205"/>
    <line x1="305" y1="2" x2="305" y2="8"/>
    <line x1="2" y1="305" x2="8" y2="305"/>
    <line x1="305" y1="502" x2="305" y2="508"/>
    <line x1="502" y1="305" x2="508" y2="305"/>
    <line x1="405" y1="2" x2="405" y2="8"/>
    <line x1="2" y1="405" x2="8" y2="405"/>
    <line x1="405" y1="502" x2="405" y2="508"/>
    <line x1="502" y1="405" x2="508" y2="405"/>
  </g>
  <g stroke="gray" stroke-width="1" stroke-dasharray="5,5">
    <line x1="105" y1="5" x2="105" y2="505"/>
    <line x1="5" y1="105" x2="505" y2="105"/>
    <line x1="205" y1="5" x2="205" y2="505"/>
    <line x1="5" y1="205" x2="505" y2="205"/>
    <line x1="305" y1="5" x2="305" y2="505"/>
    <line x1="5" y1="305" x2="505" y2="305"/>
    <line x1="405" y1="5" x2="405" y2="505"/>
    <line x1="5" y1="405" x2="505" y2="405"/>
  </g>
</svg>
