<?xml version="1.0" standalone="no"?>
<!DOCTYPE svg PUBLIC "-//W3C//DTD SVG 1.1//EN" 
  "http://www.w3.org/Graphics/SVG/1.1/DTD/svg11.dtd">
<svg width="510" height="510" version="1.1" id="toplevel"
    xmlns="http://www.w3.org/2000/svg"
    xmlns:xlink="http://www.w3.org/1999/xlink">
  <polygon points="455,440 455,190 343,190 338,179 326,177 295,70 55,140 146,373 201,351 205,357 211,359 206,418"
           fill="bisque"/>
  <g stroke="chocolate" stroke-width="1">
    <line x1="455" y1="440" x2="206" y2="418"/>
    <circle cx="455" cy="440" r="2"/>
    <circle cx="206" cy="418" r="2"/>
  </g>
  <g stroke="chocolate" stroke-width="1">
    <line x1="455" y1="440" x2="205" y2="357"/>
    <circle cx="455" cy="440" r="2"/>
    <circle cx="205" cy="357" r="2"/>
  </g>
  <g stroke="chocolate" stroke-width="1">
    <line x1="261" y1="190" x2="455" y2="190"/>
    <circle cx="261" cy="190" r="2"/>
    <circle cx="455" cy="190" r="2"/>
  </g>
  <g stroke="chocolate" stroke-width="1">
    <line x1="338" y1="179" x2="55" y2="140"/>
    <circle cx="338" cy="179" r="2"/>
    <circle cx="55" cy="140" r="2"/>
  </g>
  <g stroke="chocolate" stroke-width="1">
    <line x1="146" y1="373" x2="321" y2="305"/>
    <circle cx="146" cy="373" r="2"/>
    <circle cx="321" cy="305" r="2"/>
  </g>
  <g stroke="chocolate" stroke-width="1">
    <line x1="222" y1="231" x2="338" y2="179"/>
    <circle cx="222" cy="231" r="2"/>
    <circle cx="338" cy="179" r="2"/>
  </g>
  <g stroke="chocolate" stroke-width="1">
    <line x1="321" y1="305" x2="222" y2="231"/>
    <circle cx="321" cy="305" r="2"/>
    <circle cx="222" cy="231" r="2"/>
  </g>
  <g stroke="chocolate" stroke-width="1">
    <line x1="55" y1="140" x2="295" y2="70"/>
    <circle cx="55" cy="140" r="2"/>
    <circle cx="295" cy="70" r="2"/>
  </g>
  <g stroke="chocolate" stroke-width="1">
    <line x1="349" y1="257" x2="261" y2="190"/>
    <circle cx="349" cy="257" r="2"/>
    <circle cx="261" cy="190" r="2"/>
  </g>
  <g stroke="chocolate" stroke-width="1">
    <line x1="205" y1="357" x2="349" y2="257"/>
    <circle cx="205" cy="357" r="2"/>
    <circle cx="349" cy="257" r="2"/>
  </g>
  <g stroke="chocolate" stroke-width="1">
    <line x1="205" y1="357" x2="55" y2="140"/>
    <circle cx="205" cy="357" r="2"/>
    <circle cx="55" cy="140" r="2"/>
  </g>
  <g stroke="chocolate" stroke-width="1">
    <line x1="146" y1="373" x2="55" y2="140"/>
    <circle cx="146" cy="373" r="2"/>
    <circle cx="55" cy="140" r="2"/>
  </g>
  <g stroke="chocolate" stroke-width="1">
    <line x1="455" y1="440" x2="338" y2="179"/>
    <circle cx="455" cy="440" r="2"/>
    <circle cx="338" cy="179" r="2"/>
  </g>
  <g stroke="chocolate" stroke-width="1">
    <line x1="349" y1="257" x2="295" y2="70"/>
    <circle cx="349" cy="257" r="2"/>
    <circle cx="295" cy="70" r="2"/>
  </g>
  <g stroke="chocolate" stroke-width="1">
    <line x1="205" y1="357" x2="261" y2="190"/>
    <circle cx="205" cy="357" r="2"/>
    <circle cx="261" cy="190" r="2"/>
  </g>
  <g stroke="chocolate" stroke-width="1">
    <line x1="321" y1="305" x2="338" y2="179"/>
    <circle cx="321" cy="305" r="2"/>
    <circle cx="338" cy="179" r="2"/>
  </g>
  <g stroke="chocolate" stroke-width="1">
    <line x1="455" y1="440" x2="455" y2="190"/>
    <circle cx="455" cy="440" r="2"/>
    <circle cx="455" cy="190" r="2"/>
  </g>
  <g stroke="chocolate" stroke-width="1">
    <line x1="206" y1="418" x2="222" y2="231"/>
    <circle cx="206" cy="418" r="2"/>
    <circle cx="222" cy="231" r="2"/>
  </g>
  <g stroke="black" stroke-width="1">
    <line x1="5" y1="5" x2="505" y2="5"/>
    <line x1="5" y1="5" x2="5" y2="505"/>
    <line x1="505" y1="505" x2="5" y2="505"/>
    <line x1="505" y1="505" x2="505" y2="5"/>
    <line x1="105" y1="2" x2="105" y2="8"/>
    <line x1="2" y1="105" x2="8" y2="105"/>
    <line x1="105" y1="502" x2="105" y2="508"/>
    <line x1="502" y1="105" x2="508" y2="105"/>
    <line x1="205" y1="2" x2="205" y2="8"/>
    <line x1="2" y1="205" x2="8" y2="205"/>
    <line x1="205" y1="502" x2="205" y2="508"/>
    <line x1="502" y1="205" x2="508" y2="205"/>
    <line x1="305" y1="2" x2="305" y2="8"/>
    <line x1="2" y1="305" x2="8" y2="305"/>
    <line x1="305" y1="502" x2="305" y2="508"/>
    <line x1="502" y1="305" x2="508" y2="305"/>
    <line x1="405" y1="2" x2="405" y2="8"/>
    <line x1="2" y1="405" x2="8" y2="405"/>
    <line x1="405" y1="502" x2="405" y2="508"/>
    <line x1="502" y1="405" x2="508" y2="405"/>
  </g>
  <g stroke="gray" stroke-width="1" stroke-dasharray="5,5">
    <line x1="105" y1="5" x2="105" y2="505"/>
    <line x1="5" y1="105" x2="505" y2="105"/>
    <line x1="205" y1="5" x2="205" y2="505"/>
    <line x1="5" y1="205" x2="505" y2="205"/>
    <line x1="305" y1="5" x2="305" y2="505"/>
    <line x1="5" y1="305" x2="505" y2="305"/>
    <line x1="405" y1="5" x2="405" y2="505"/>
    <line x1="5" y1="405" x2="505" y2="405"/>
  </g>
</svg>
