<?xml version="1.0" standalone="no"?>
<!DOCTYPE svg PUBLIC "-//W3C//DTD SVG 1.1//EN" 
  "http://www.w3.org/Graphics/SVG/1.1/DTD/svg11.dtd">
<svg width="510" height="510" version="1.1" id="toplevel"
    xmlns="http://www.w3.org/2000/svg"
    xmlns:xlink="http://www.w3.org/1999/xlink">
  <polygon points="242,430 255,342 305,305 342,355 442,280 355,268 280,168 292,80 92,230 168,330 68,405 155,418 205,380"
           fill="bisque"/>
  <g stroke="chocolate" stroke-width="1">
    <line x1="155" y1="418" x2="68" y2="405"/>
    <circle cx="155" cy="418" r="2"/>
    <circle cx="68" cy="405" r="2"/>
  </g>
  <g stroke="chocolate" stroke-width="1">
    <line x1="342" y1="355" x2="442" y2="280"/>
    <circle cx="342" cy="355" r="2"/>
    <circle cx="442" cy="280" r="2"/>
  </g>
  <g stroke="chocolate" stroke-width="1">
    <line x1="255" y1="342" x2="168" y2="330"/>
    <circle cx="255" cy="342" r="2"/>
    <circle cx="168" cy="330" r="2"/>
  </g>
  <g stroke="chocolate" stroke-width="1">
    <line x1="242" y1="430" x2="92" y2="230"/>
    <circle cx="242" cy="430" r="2"/>
    <circle cx="92" cy="230" r="2"/>
  </g>
  <g stroke="chocolate" stroke-width="1">
    <line x1="155" y1="418" x2="355" y2="268"/>
    <circle cx="155" cy="418" r="2"/>
    <circle cx="355" cy="268" r="2"/>
  </g>
  <g stroke="chocolate" stroke-width="1">
    <line x1="255" y1="342" x2="142" y2="192"/>
    <circle cx="255" cy="342" r="2"/>
    <circle cx="142" cy="192" r="2"/>
  </g>
  <g stroke="chocolate" stroke-width="1">
    <line x1="342" y1="355" x2="355" y2="268"/>
    <circle cx="342" cy="355" r="2"/>
    <circle cx="355" cy="268" r="2"/>
  </g>
  <g stroke="chocolate" stroke-width="1">
    <line x1="68" y1="405" x2="268" y2="255"/>
    <circle cx="68" cy="405" r="2"/>
    <circle cx="268" cy="255" r="2"/>
  </g>
  <g stroke="chocolate" stroke-width="1">
    <line x1="242" y1="430" x2="255" y2="342"/>
    <circle cx="242" cy="430" r="2"/>
    <circle cx="255" cy="342" r="2"/>
  </g>
  <g stroke="chocolate" stroke-width="1">
    <line x1="268" y1="255" x2="292" y2="80"/>
    <circle cx="268" cy="255" r="2"/>
    <circle cx="292" cy="80" r="2"/>
  </g>
  <g stroke="chocolate" stroke-width="1">
    <line x1="342" y1="355" x2="192" y2="155"/>
    <circle cx="342" cy="355" r="2"/>
    <circle cx="192" cy="155" r="2"/>
  </g>
  <g stroke="chocolate" stroke-width="1">
    <line x1="442" y1="280" x2="92" y2="230"/>
    <circle cx="442" cy="280" r="2"/>
    <circle cx="92" cy="230" r="2"/>
  </g>
  <g stroke="chocolate" stroke-width="1">
    <line x1="155" y1="418" x2="192" y2="155"/>
    <circle cx="155" cy="418" r="2"/>
    <circle cx="192" cy="155" r="2"/>
  </g>
  <g stroke="chocolate" stroke-width="1">
    <line x1="355" y1="268" x2="242" y2="118"/>
    <circle cx="355" cy="268" r="2"/>
    <circle cx="242" cy="118" r="2"/>
  </g>
  <g stroke="chocolate" stroke-width="1">
    <line x1="180" y1="242" x2="280" y2="168"/>
    <circle cx="180" cy="242" r="2"/>
    <circle cx="280" cy="168" r="2"/>
  </g>
  <g stroke="chocolate" stroke-width="1">
    <line x1="280" y1="168" x2="192" y2="155"/>
    <circle cx="280" cy="168" r="2"/>
    <circle cx="192" cy="155" r="2"/>
  </g>
  <g stroke="chocolate" stroke-width="1">
    <line x1="92" y1="230" x2="292" y2="80"/>
    <circle cx="92" cy="230" r="2"/>
    <circle cx="292" cy="80" r="2"/>
  </g>
  <g stroke="black" stroke-width="1">
    <line x1="5" y1="5" x2="505" y2="5"/>
    <line x1="5" y1="5" x2="5" y2="505"/>
    <line x1="505" y1="505" x2="5" y2="505"/>
    <line x1="505" y1="505" x2="505" y2="5"/>
    <line x1="105" y1="2" x2="105" y2="8"/>
    <line x1="2" y1="105" x2="8" y2="105"/>
    <line x1="105" y1="502" x2="105" y2="508"/>
    <line x1="502" y1="105" x2="508" y2="105"/>
    <line x1="205" y1="2" x2="205" y2="8"/>
    <line x1="2" y1="205" x2="8" y2="205"/>
    <line x1="205" y1="502" x2="205" y2="508"/>
    <line x1="502" y1="205" x2="508" y2="205"/>
    <line x1="305" y1="2" x2="305" y2="8"/>
    <line x1="2" y1="305" x2="8" y2="305"/>
    <line x1="305" y1="502" x2="305" y2="508"/>
    <line x1="502" y1="305" x2="508" y2="305"/>
    <line x1="405" y1="2" x2="405" y2="8"/>
    <line x1="2" y1="405" x2="8" y2="405"/>
    <line x1="405" y1="502" x2="405" y2="508"/>
    <line x1="502" y1="405" x2="508" y2="405"/>
  </g>
  <g stroke="gray" stroke-width="1" stroke-dasharray="5,5">
    <line x1="105" y1="5" x2="105" y2="505"/>
    <line x1="5" y1="105" x2="505" y2="105"/>
    <line x1="205" y1="5" x2="205" y2="505"/>
    <line x1="5" y1="205" x2="505" y2="205"/>
    <line x1="305" y1="5" x2="305" y2="505"/>
    <line x1="5" y1="305" x2="505" y2="305"/>
    <line x1="405" y1="5" x2="405" y2="505"/>
    <line x1="5" y1="405" x2="505" y2="405"/>
  </g>
</svg>
