<?xml version="1.0" standalone="no"?>
<!DOCTYPE svg PUBLIC "-//W3C//DTD SVG 1.1//EN" 
  "http://www.w3.org/Graphics/SVG/1.1/DTD/svg11.dtd">
<svg width="510" height="510" version="1.1" id="toplevel"
    xmlns="http://www.w3.org/2000/svg"
    xmlns:xlink="http://www.w3.org/1999/xlink">
  <polygon points="226,434 475,418 438,171 327,188 321,177 309,177 261,76 35,181 159,398 211,368 216,373 222,374"
           fill="bisque"/>
  <g stroke="chocolate" stroke-width="1">
    <line x1="226" y1="434" x2="475" y2="418"/>
    <circle cx="226" cy="434" r="2"/>
    <circle cx="475" cy="418" r="2"/>
  </g>
  <g stroke="chocolate" stroke-width="1">
    <line x1="475" y1="418" x2="216" y2="373"/>
    <circle cx="475" cy="418" r="2"/>
    <circle cx="216" cy="373" r="2"/>
  </g>
  <g stroke="chocolate" stroke-width="1">
    <line x1="35" y1="181" x2="321" y2="177"/>
    <circle cx="35" cy="181" r="2"/>
    <circle cx="321" cy="177" r="2"/>
  </g>
  <g stroke="chocolate" stroke-width="1">
    <line x1="245" y1="200" x2="438" y2="171"/>
    <circle cx="245" cy="200" r="2"/>
    <circle cx="438" cy="171" r="2"/>
  </g>
  <g stroke="chocolate" stroke-width="1">
    <line x1="323" y1="304" x2="214" y2="246"/>
    <circle cx="323" cy="304" r="2"/>
    <circle cx="214" cy="246" r="2"/>
  </g>
  <g stroke="chocolate" stroke-width="1">
    <line x1="343" y1="253" x2="245" y2="200"/>
    <circle cx="343" cy="253" r="2"/>
    <circle cx="245" cy="200" r="2"/>
  </g>
  <g stroke="chocolate" stroke-width="1">
    <line x1="159" y1="398" x2="323" y2="304"/>
    <circle cx="159" cy="398" r="2"/>
    <circle cx="323" cy="304" r="2"/>
  </g>
  <g stroke="chocolate" stroke-width="1">
    <line x1="216" y1="373" x2="35" y2="181"/>
    <circle cx="216" cy="373" r="2"/>
    <circle cx="35" cy="181" r="2"/>
  </g>
  <g stroke="chocolate" stroke-width="1">
    <line x1="214" y1="246" x2="321" y2="177"/>
    <circle cx="214" cy="246" r="2"/>
    <circle cx="321" cy="177" r="2"/>
  </g>
  <g stroke="chocolate" stroke-width="1">
    <line x1="35" y1="181" x2="261" y2="76"/>
    <circle cx="35" cy="181" r="2"/>
    <circle cx="261" cy="76" r="2"/>
  </g>
  <g stroke="chocolate" stroke-width="1">
    <line x1="216" y1="373" x2="343" y2="253"/>
    <circle cx="216" cy="373" r="2"/>
    <circle cx="343" cy="253" r="2"/>
  </g>
  <g stroke="chocolate" stroke-width="1">
    <line x1="159" y1="398" x2="35" y2="181"/>
    <circle cx="159" cy="398" r="2"/>
    <circle cx="35" cy="181" r="2"/>
  </g>
  <g stroke="chocolate" stroke-width="1">
    <line x1="475" y1="418" x2="321" y2="177"/>
    <circle cx="475" cy="418" r="2"/>
    <circle cx="321" cy="177" r="2"/>
  </g>
  <g stroke="chocolate" stroke-width="1">
    <line x1="343" y1="253" x2="261" y2="76"/>
    <circle cx="343" cy="253" r="2"/>
    <circle cx="261" cy="76" r="2"/>
  </g>
  <g stroke="chocolate" stroke-width="1">
    <line x1="226" y1="434" x2="214" y2="246"/>
    <circle cx="226" cy="434" r="2"/>
    <circle cx="214" cy="246" r="2"/>
  </g>
  <g stroke="chocolate" stroke-width="1">
    <line x1="475" y1="418" x2="438" y2="171"/>
    <circle cx="475" cy="418" r="2"/>
    <circle cx="438" cy="171" r="2"/>
  </g>
  <g stroke="chocolate" stroke-width="1">
    <line x1="323" y1="304" x2="321" y2="177"/>
    <circle cx="323" cy="304" r="2"/>
    <circle cx="321" cy="177" r="2"/>
  </g>
  <g stroke="chocolate" stroke-width="1">
    <line x1="216" y1="373" x2="245" y2="200"/>
    <circle cx="216" cy="373" r="2"/>
    <circle cx="245" cy="200" r="2"/>
  </g>
  <g stroke="black" stroke-width="1">
    <line x1="5" y1="5" x2="505" y2="5"/>
    <line x1="5" y1="5" x2="5" y2="505"/>
    <line x1="505" y1="505" x2="5" y2="505"/>
    <line x1="505" y1="505" x2="505" y2="5"/>
    <line x1="105" y1="2" x2="105" y2="8"/>
    <line x1="2" y1="105" x2="8" y2="105"/>
    <line x1="105" y1="502" x2="105" y2="508"/>
    <line x1="502" y1="105" x2="508" y2="105"/>
    <line x1="205" y1="2" x2="205" y2="8"/>
    <line x1="2" y1="205" x2="8" y2="205"/>
    <line x1="205" y1="502" x2="205" y2="508"/>
    <line x1="502" y1="205" x2="508" y2="205"/>
    <line x1="305" y1="2" x2="305" y2="8"/>
    <line x1="2" y1="305" x2="8" y2="305"/>
    <line x1="305" y1="502" x2="305" y2="508"/>
    <line x1="502" y1="305" x2="508" y2="305"/>
    <line x1="405" y1="2" x2="405" y2="8"/>
    <line x1="2" y1="405" x2="8" y2="405"/>
    <line x1="405" y1="502" x2="405" y2="508"/>
    <line x1="502" y1="405" x2="508" y2="405"/>
  </g>
  <g stroke="gray" stroke-width="1" stroke-dasharray="5,5">
    <line x1="105" y1="5" x2="105" y2="505"/>
    <line x1="5" y1="105" x2="505" y2="105"/>
    <line x1="205" y1="5" x2="205" y2="505"/>
    <line x1="5" y1="205" x2="505" y2="205"/>
    <line x1="305" y1="5" x2="305" y2="505"/>
    <line x1="5" y1="305" x2="505" y2="305"/>
    <line x1="405" y1="5" x2="405" y2="505"/>
    <line x1="5" y1="405" x2="505" y2="405"/>
  </g>
</svg>
