<?xml version="1.0" standalone="no"?>
<!DOCTYPE svg PUBLIC "-//W3C//DTD SVG 1.1//EN" 
  "http://www.w3.org/Graphics/SVG/1.1/DTD/svg11.dtd">
<svg width="610" height="610" version="1.1" id="toplevel"
    xmlns="http://www.w3.org/2000/svg"
    xmlns:xlink="http://www.w3.org/1999/xlink">
  <polygon points="5,492 505,492 505,326 605,192 505,118 255,242" fill="bisque"/>
  <g stroke="chocolate" stroke-width="1">
    <line x1="5" y1="492" x2="255" y2="242"/>
    <circle cx="5" cy="492" r="2"/>
    <circle cx="255" cy="242" r="2"/>
  </g>
  <g stroke="chocolate" stroke-width="1">
    <line x1="505" y1="326" x2="605" y2="192"/>
    <circle cx="505" cy="326" r="2"/>
    <circle cx="605" cy="192" r="2"/>
  </g>
  <g stroke="chocolate" stroke-width="1">
    <line x1="255" y1="242" x2="505" y2="118"/>
    <circle cx="255" cy="242" r="2"/>
    <circle cx="505" cy="118" r="2"/>
  </g>
  <g stroke="chocolate" stroke-width="1">
    <line x1="5" y1="492" x2="505" y2="492"/>
    <circle cx="5" cy="492" r="2"/>
    <circle cx="505" cy="492" r="2"/>
  </g>
  <g stroke="chocolate" stroke-width="1">
    <line x1="505" y1="492" x2="505" y2="118"/>
    <circle cx="505" cy="492" r="2"/>
    <circle cx="505" cy="118" r="2"/>
  </g>
  <g stroke="chocolate" stroke-width="1">
    <line x1="255" y1="242" x2="505" y2="242"/>
    <circle cx="255" cy="242" r="2"/>
    <circle cx="505" cy="242" r="2"/>
  </g>
  <g stroke="chocolate" stroke-width="1">
    <line x1="505" y1="326" x2="255" y2="242"/>
    <circle cx="505" cy="326" r="2"/>
    <circle cx="255" cy="242" r="2"/>
  </g>
  <g stroke="chocolate" stroke-width="1">
    <line x1="605" y1="192" x2="505" y2="118"/>
    <circle cx="605" cy="192" r="2"/>
    <circle cx="505" cy="118" r="2"/>
  </g>
  <g stroke="black" stroke-width="1">
    <line x1="55" y1="55" x2="555" y2="55"/>
    <line x1="55" y1="55" x2="55" y2="555"/>
    <line x1="555" y1="555" x2="55" y2="555"/>
    <line x1="555" y1="555" x2="555" y2="55"/>
    <line x1="155" y1="52" x2="155" y2="58"/>
    <line x1="52" y1="155" x2="58" y2="155"/>
    <line x1="155" y1="552" x2="155" y2="558"/>
    <line x1="552" y1="155" x2="558" y2="155"/>
    <line x1="255" y1="52" x2="255" y2="58"/>
    <line x1="52" y1="255" x2="58" y2="255"/>
    <line x1="255" y1="552" x2="255" y2="558"/>
    <line x1="552" y1="255" x2="558" y2="255"/>
    <line x1="355" y1="52" x2="355" y2="58"/>
    <line x1="52" y1="355" x2="58" y2="355"/>
    <line x1="355" y1="552" x2="355" y2="558"/>
    <line x1="552" y1="355" x2="558" y2="355"/>
    <line x1="455" y1="52" x2="455" y2="58"/>
    <line x1="52" y1="455" x2="58" y2="455"/>
    <line x1="455" y1="552" x2="455" y2="558"/>
    <line x1="552" y1="455" x2="558" y2="455"/>
  </g>
  <g stroke="gray" stroke-width="1" stroke-dasharray="5,5">
    <line x1="155" y1="55" x2="155" y2="555"/>
    <line x1="55" y1="155" x2="555" y2="155"/>
    <line x1="255" y1="55" x2="255" y2="555"/>
    <line x1="55" y1="255" x2="555" y2="255"/>
    <line x1="355" y1="55" x2="355" y2="555"/>
    <line x1="55" y1="355" x2="555" y2="355"/>
    <line x1="455" y1="55" x2="455" y2="555"/>
    <line x1="55" y1="455" x2="555" y2="455"/>
  </g>
</svg>
