<?xml version="1.0" standalone="no"?>
<!DOCTYPE svg PUBLIC "-//W3C//DTD SVG 1.1//EN" 
  "http://www.w3.org/Graphics/SVG/1.1/DTD/svg11.dtd">
<svg width="510" height="510" version="1.1" id="toplevel"
    xmlns="http://www.w3.org/2000/svg"
    xmlns:xlink="http://www.w3.org/1999/xlink">
  <polygon points="100,505 350,505 350,210 375,205 410,85 350,68 350,5 225,5 100,255"
           fill="bisque"/>
  <g stroke="chocolate" stroke-width="1">
    <line x1="100" y1="255" x2="350" y2="68"/>
    <circle cx="100" cy="255" r="2"/>
    <circle cx="350" cy="68" r="2"/>
  </g>
  <g stroke="chocolate" stroke-width="1">
    <line x1="100" y1="255" x2="225" y2="5"/>
    <circle cx="100" cy="255" r="2"/>
    <circle cx="225" cy="5" r="2"/>
  </g>
  <g stroke="chocolate" stroke-width="1">
    <line x1="375" y1="205" x2="410" y2="85"/>
    <circle cx="375" cy="205" r="2"/>
    <circle cx="410" cy="85" r="2"/>
  </g>
  <g stroke="chocolate" stroke-width="1">
    <line x1="100" y1="255" x2="375" y2="205"/>
    <circle cx="100" cy="255" r="2"/>
    <circle cx="375" cy="205" r="2"/>
  </g>
  <g stroke="chocolate" stroke-width="1">
    <line x1="100" y1="505" x2="350" y2="505"/>
    <circle cx="100" cy="505" r="2"/>
    <circle cx="350" cy="505" r="2"/>
  </g>
  <g stroke="chocolate" stroke-width="1">
    <line x1="100" y1="505" x2="100" y2="255"/>
    <circle cx="100" cy="505" r="2"/>
    <circle cx="100" cy="255" r="2"/>
  </g>
  <g stroke="chocolate" stroke-width="1">
    <line x1="350" y1="505" x2="350" y2="5"/>
    <circle cx="350" cy="505" r="2"/>
    <circle cx="350" cy="5" r="2"/>
  </g>
  <g stroke="chocolate" stroke-width="1">
    <line x1="225" y1="5" x2="350" y2="5"/>
    <circle cx="225" cy="5" r="2"/>
    <circle cx="350" cy="5" r="2"/>
  </g>
  <g stroke="chocolate" stroke-width="1">
    <line x1="410" y1="85" x2="350" y2="68"/>
    <circle cx="410" cy="85" r="2"/>
    <circle cx="350" cy="68" r="2"/>
  </g>
  <g stroke="chocolate" stroke-width="1">
    <line x1="375" y1="205" x2="225" y2="5"/>
    <circle cx="375" cy="205" r="2"/>
    <circle cx="225" cy="5" r="2"/>
  </g>
  <g stroke="black" stroke-width="1">
    <line x1="5" y1="5" x2="505" y2="5"/>
    <line x1="5" y1="5" x2="5" y2="505"/>
    <line x1="505" y1="505" x2="5" y2="505"/>
    <line x1="505" y1="505" x2="505" y2="5"/>
    <line x1="105" y1="2" x2="105" y2="8"/>
    <line x1="2" y1="105" x2="8" y2="105"/>
    <line x1="105" y1="502" x2="105" y2="508"/>
    <line x1="502" y1="105" x2="508" y2="105"/>
    <line x1="205" y1="2" x2="205" y2="8"/>
    <line x1="2" y1="205" x2="8" y2="205"/>
    <line x1="205" y1="502" x2="205" y2="508"/>
    <line x1="502" y1="205" x2="508" y2="205"/>
    <line x1="305" y1="2" x2="305" y2="8"/>
    <line x1="2" y1="305" x2="8" y2="305"/>
    <line x1="305" y1="502" x2="305" y2="508"/>
    <line x1="502" y1="305" x2="508" y2="305"/>
    <line x1="405" y1="2" x2="405" y2="8"/>
    <line x1="2" y1="405" x2="8" y2="405"/>
    <line x1="405" y1="502" x2="405" y2="508"/>
    <line x1="502" y1="405" x2="508" y2="405"/>
  </g>
  <g stroke="gray" stroke-width="1" stroke-dasharray="5,5">
    <line x1="105" y1="5" x2="105" y2="505"/>
    <line x1="5" y1="105" x2="505" y2="105"/>
    <line x1="205" y1="5" x2="205" y2="505"/>
    <line x1="5" y1="205" x2="505" y2="205"/>
    <line x1="305" y1="5" x2="305" y2="505"/>
    <line x1="5" y1="305" x2="505" y2="305"/>
    <line x1="405" y1="5" x2="405" y2="505"/>
    <line x1="5" y1="405" x2="505" y2="405"/>
  </g>
</svg>
