<?xml version="1.0" standalone="no"?>
<!DOCTYPE svg PUBLIC "-//W3C//DTD SVG 1.1//EN" 
  "http://www.w3.org/Graphics/SVG/1.1/DTD/svg11.dtd">
<svg width="542" height="542" version="1.1" id="toplevel"
    xmlns="http://www.w3.org/2000/svg"
    xmlns:xlink="http://www.w3.org/1999/xlink">
  <polygon points="357,474 430,444 453,405 465,411 474,389 537,343 534,337 176,154 24,171 5,213 275,329"
           fill="bisque"/>
  <g stroke="chocolate" stroke-width="1">
    <line x1="518" y1="341" x2="523" y2="331"/>
    <circle cx="518" cy="341" r="2"/>
    <circle cx="523" cy="331" r="2"/>
  </g>
  <g stroke="chocolate" stroke-width="1">
    <line x1="506" y1="366" x2="523" y2="331"/>
    <circle cx="506" cy="366" r="2"/>
    <circle cx="523" cy="331" r="2"/>
  </g>
  <g stroke="chocolate" stroke-width="1">
    <line x1="430" y1="444" x2="503" y2="321"/>
    <circle cx="430" cy="444" r="2"/>
    <circle cx="503" cy="321" r="2"/>
  </g>
  <g stroke="chocolate" stroke-width="1">
    <line x1="465" y1="411" x2="503" y2="321"/>
    <circle cx="465" cy="411" r="2"/>
    <circle cx="503" cy="321" r="2"/>
  </g>
  <g stroke="chocolate" stroke-width="1">
    <line x1="357" y1="474" x2="537" y2="343"/>
    <circle cx="357" cy="474" r="2"/>
    <circle cx="537" cy="343" r="2"/>
  </g>
  <g stroke="chocolate" stroke-width="1">
    <line x1="312" y1="395" x2="371" y2="323"/>
    <circle cx="312" cy="395" r="2"/>
    <circle cx="371" cy="323" r="2"/>
  </g>
  <g stroke="chocolate" stroke-width="1">
    <line x1="357" y1="474" x2="430" y2="444"/>
    <circle cx="357" cy="474" r="2"/>
    <circle cx="430" cy="444" r="2"/>
  </g>
  <g stroke="chocolate" stroke-width="1">
    <line x1="326" y1="419" x2="372" y2="273"/>
    <circle cx="326" cy="419" r="2"/>
    <circle cx="372" cy="273" r="2"/>
  </g>
  <g stroke="chocolate" stroke-width="1">
    <line x1="184" y1="169" x2="183" y2="158"/>
    <circle cx="184" cy="169" r="2"/>
    <circle cx="183" cy="158" r="2"/>
  </g>
  <g stroke="chocolate" stroke-width="1">
    <line x1="5" y1="213" x2="24" y2="171"/>
    <circle cx="5" cy="213" r="2"/>
    <circle cx="24" cy="171" r="2"/>
  </g>
  <g stroke="chocolate" stroke-width="1">
    <line x1="518" y1="341" x2="534" y2="337"/>
    <circle cx="518" cy="341" r="2"/>
    <circle cx="534" cy="337" r="2"/>
  </g>
  <g stroke="chocolate" stroke-width="1">
    <line x1="312" y1="395" x2="506" y2="366"/>
    <circle cx="312" cy="395" r="2"/>
    <circle cx="506" cy="366" r="2"/>
  </g>
  <g stroke="chocolate" stroke-width="1">
    <line x1="60" y1="221" x2="24" y2="171"/>
    <circle cx="60" cy="221" r="2"/>
    <circle cx="24" cy="171" r="2"/>
  </g>
  <g stroke="chocolate" stroke-width="1">
    <line x1="357" y1="474" x2="176" y2="154"/>
    <circle cx="357" cy="474" r="2"/>
    <circle cx="176" cy="154" r="2"/>
  </g>
  <g stroke="chocolate" stroke-width="1">
    <line x1="430" y1="444" x2="326" y2="419"/>
    <circle cx="430" cy="444" r="2"/>
    <circle cx="326" cy="419" r="2"/>
  </g>
  <g stroke="chocolate" stroke-width="1">
    <line x1="537" y1="343" x2="534" y2="337"/>
    <circle cx="537" cy="343" r="2"/>
    <circle cx="534" cy="337" r="2"/>
  </g>
  <g stroke="chocolate" stroke-width="1">
    <line x1="60" y1="221" x2="183" y2="158"/>
    <circle cx="60" cy="221" r="2"/>
    <circle cx="183" cy="158" r="2"/>
  </g>
  <g stroke="chocolate" stroke-width="1">
    <line x1="465" y1="411" x2="5" y2="213"/>
    <circle cx="465" cy="411" r="2"/>
    <circle cx="5" cy="213" r="2"/>
  </g>
  <g stroke="chocolate" stroke-width="1">
    <line x1="371" y1="323" x2="184" y2="169"/>
    <circle cx="371" cy="323" r="2"/>
    <circle cx="184" cy="169" r="2"/>
  </g>
  <g stroke="chocolate" stroke-width="1">
    <line x1="523" y1="332" x2="60" y2="221"/>
    <circle cx="523" cy="332" r="2"/>
    <circle cx="60" cy="221" r="2"/>
  </g>
  <g stroke="chocolate" stroke-width="1">
    <line x1="465" y1="302" x2="372" y2="273"/>
    <circle cx="465" cy="302" r="2"/>
    <circle cx="372" cy="273" r="2"/>
  </g>
  <g stroke="chocolate" stroke-width="1">
    <line x1="518" y1="341" x2="465" y2="302"/>
    <circle cx="518" cy="341" r="2"/>
    <circle cx="465" cy="302" r="2"/>
  </g>
  <g stroke="chocolate" stroke-width="1">
    <line x1="534" y1="337" x2="176" y2="154"/>
    <circle cx="534" cy="337" r="2"/>
    <circle cx="176" cy="154" r="2"/>
  </g>
  <g stroke="chocolate" stroke-width="1">
    <line x1="537" y1="343" x2="523" y2="332"/>
    <circle cx="537" cy="343" r="2"/>
    <circle cx="523" cy="332" r="2"/>
  </g>
  <g stroke="chocolate" stroke-width="1">
    <line x1="24" y1="171" x2="176" y2="154"/>
    <circle cx="24" cy="171" r="2"/>
    <circle cx="176" cy="154" r="2"/>
  </g>
  <g stroke="black" stroke-width="1">
    <line x1="21" y1="21" x2="521" y2="21"/>
    <line x1="21" y1="21" x2="21" y2="521"/>
    <line x1="521" y1="521" x2="21" y2="521"/>
    <line x1="521" y1="521" x2="521" y2="21"/>
    <line x1="121" y1="18" x2="121" y2="24"/>
    <line x1="18" y1="121" x2="24" y2="121"/>
    <line x1="121" y1="518" x2="121" y2="524"/>
    <line x1="518" y1="121" x2="524" y2="121"/>
    <line x1="221" y1="18" x2="221" y2="24"/>
    <line x1="18" y1="221" x2="24" y2="221"/>
    <line x1="221" y1="518" x2="221" y2="524"/>
    <line x1="518" y1="221" x2="524" y2="221"/>
    <line x1="321" y1="18" x2="321" y2="24"/>
    <line x1="18" y1="321" x2="24" y2="321"/>
    <line x1="321" y1="518" x2="321" y2="524"/>
    <line x1="518" y1="321" x2="524" y2="321"/>
    <line x1="421" y1="18" x2="421" y2="24"/>
    <line x1="18" y1="421" x2="24" y2="421"/>
    <line x1="421" y1="518" x2="421" y2="524"/>
    <line x1="518" y1="421" x2="524" y2="421"/>
  </g>
  <g stroke="gray" stroke-width="1" stroke-dasharray="5,5">
    <line x1="121" y1="21" x2="121" y2="521"/>
    <line x1="21" y1="121" x2="521" y2="121"/>
    <line x1="221" y1="21" x2="221" y2="521"/>
    <line x1="21" y1="221" x2="521" y2="221"/>
    <line x1="321" y1="21" x2="321" y2="521"/>
    <line x1="21" y1="321" x2="521" y2="321"/>
    <line x1="421" y1="21" x2="421" y2="521"/>
    <line x1="21" y1="421" x2="521" y2="421"/>
  </g>
</svg>
