<?xml version="1.0" standalone="no"?>
<!DOCTYPE svg PUBLIC "-//W3C//DTD SVG 1.1//EN" 
  "http://www.w3.org/Graphics/SVG/1.1/DTD/svg11.dtd">
<svg width="510" height="510" version="1.1" id="toplevel"
    xmlns="http://www.w3.org/2000/svg"
    xmlns:xlink="http://www.w3.org/1999/xlink">
  <polygon points="176,421 438,290 365,30 361,28 355,42 321,88 330,108 316,142 277,171 120,65 72,80 132,276 92,305 126,352 119,377 150,386"
           fill="bisque"/>
  <g stroke="chocolate" stroke-width="1">
    <line x1="213" y1="403" x2="361" y2="28"/>
    <circle cx="213" cy="403" r="2"/>
    <circle cx="361" cy="28" r="2"/>
  </g>
  <g stroke="chocolate" stroke-width="1">
    <line x1="129" y1="162" x2="120" y2="65"/>
    <circle cx="129" cy="162" r="2"/>
    <circle cx="120" cy="65" r="2"/>
  </g>
  <g stroke="chocolate" stroke-width="1">
    <line x1="119" y1="377" x2="191" y2="113"/>
    <circle cx="119" cy="377" r="2"/>
    <circle cx="191" cy="113" r="2"/>
  </g>
  <g stroke="chocolate" stroke-width="1">
    <line x1="176" y1="421" x2="72" y2="80"/>
    <circle cx="176" cy="421" r="2"/>
    <circle cx="72" cy="80" r="2"/>
  </g>
  <g stroke="chocolate" stroke-width="1">
    <line x1="176" y1="421" x2="438" y2="290"/>
    <circle cx="176" cy="421" r="2"/>
    <circle cx="438" cy="290" r="2"/>
  </g>
  <g stroke="chocolate" stroke-width="1">
    <line x1="321" y1="88" x2="365" y2="30"/>
    <circle cx="321" cy="88" r="2"/>
    <circle cx="365" cy="30" r="2"/>
  </g>
  <g stroke="chocolate" stroke-width="1">
    <line x1="176" y1="421" x2="92" y2="305"/>
    <circle cx="176" cy="421" r="2"/>
    <circle cx="92" cy="305" r="2"/>
  </g>
  <g stroke="chocolate" stroke-width="1">
    <line x1="438" y1="290" x2="365" y2="30"/>
    <circle cx="438" cy="290" r="2"/>
    <circle cx="365" cy="30" r="2"/>
  </g>
  <g stroke="chocolate" stroke-width="1">
    <line x1="213" y1="403" x2="119" y2="377"/>
    <circle cx="213" cy="403" r="2"/>
    <circle cx="119" cy="377" r="2"/>
  </g>
  <g stroke="chocolate" stroke-width="1">
    <line x1="92" y1="305" x2="383" y2="93"/>
    <circle cx="92" cy="305" r="2"/>
    <circle cx="383" cy="93" r="2"/>
  </g>
  <g stroke="chocolate" stroke-width="1">
    <line x1="417" y1="301" x2="321" y2="88"/>
    <circle cx="417" cy="301" r="2"/>
    <circle cx="321" cy="88" r="2"/>
  </g>
  <g stroke="chocolate" stroke-width="1">
    <line x1="417" y1="301" x2="385" y2="243"/>
    <circle cx="417" cy="301" r="2"/>
    <circle cx="385" cy="243" r="2"/>
  </g>
  <g stroke="chocolate" stroke-width="1">
    <line x1="129" y1="162" x2="191" y2="113"/>
    <circle cx="129" cy="162" r="2"/>
    <circle cx="191" cy="113" r="2"/>
  </g>
  <g stroke="chocolate" stroke-width="1">
    <line x1="438" y1="290" x2="421" y2="267"/>
    <circle cx="438" cy="290" r="2"/>
    <circle cx="421" cy="267" r="2"/>
  </g>
  <g stroke="chocolate" stroke-width="1">
    <line x1="385" y1="243" x2="291" y2="232"/>
    <circle cx="385" cy="243" r="2"/>
    <circle cx="291" cy="232" r="2"/>
  </g>
  <g stroke="chocolate" stroke-width="1">
    <line x1="291" y1="232" x2="129" y2="162"/>
    <circle cx="291" cy="232" r="2"/>
    <circle cx="129" cy="162" r="2"/>
  </g>
  <g stroke="chocolate" stroke-width="1">
    <line x1="421" y1="267" x2="291" y2="232"/>
    <circle cx="421" cy="267" r="2"/>
    <circle cx="291" cy="232" r="2"/>
  </g>
  <g stroke="chocolate" stroke-width="1">
    <line x1="421" y1="267" x2="120" y2="65"/>
    <circle cx="421" cy="267" r="2"/>
    <circle cx="120" cy="65" r="2"/>
  </g>
  <g stroke="chocolate" stroke-width="1">
    <line x1="72" y1="80" x2="120" y2="65"/>
    <circle cx="72" cy="80" r="2"/>
    <circle cx="120" cy="65" r="2"/>
  </g>
  <g stroke="chocolate" stroke-width="1">
    <line x1="383" y1="93" x2="321" y2="88"/>
    <circle cx="383" cy="93" r="2"/>
    <circle cx="321" cy="88" r="2"/>
  </g>
  <g stroke="chocolate" stroke-width="1">
    <line x1="365" y1="30" x2="361" y2="28"/>
    <circle cx="365" cy="30" r="2"/>
    <circle cx="361" cy="28" r="2"/>
  </g>
  <g stroke="black" stroke-width="1">
    <line x1="5" y1="5" x2="505" y2="5"/>
    <line x1="5" y1="5" x2="5" y2="505"/>
    <line x1="505" y1="505" x2="5" y2="505"/>
    <line x1="505" y1="505" x2="505" y2="5"/>
    <line x1="105" y1="2" x2="105" y2="8"/>
    <line x1="2" y1="105" x2="8" y2="105"/>
    <line x1="105" y1="502" x2="105" y2="508"/>
    <line x1="502" y1="105" x2="508" y2="105"/>
    <line x1="205" y1="2" x2="205" y2="8"/>
    <line x1="2" y1="205" x2="8" y2="205"/>
    <line x1="205" y1="502" x2="205" y2="508"/>
    <line x1="502" y1="205" x2="508" y2="205"/>
    <line x1="305" y1="2" x2="305" y2="8"/>
    <line x1="2" y1="305" x2="8" y2="305"/>
    <line x1="305" y1="502" x2="305" y2="508"/>
    <line x1="502" y1="305" x2="508" y2="305"/>
    <line x1="405" y1="2" x2="405" y2="8"/>
    <line x1="2" y1="405" x2="8" y2="405"/>
    <line x1="405" y1="502" x2="405" y2="508"/>
    <line x1="502" y1="405" x2="508" y2="405"/>
  </g>
  <g stroke="gray" stroke-width="1" stroke-dasharray="5,5">
    <line x1="105" y1="5" x2="105" y2="505"/>
    <line x1="5" y1="105" x2="505" y2="105"/>
    <line x1="205" y1="5" x2="205" y2="505"/>
    <line x1="5" y1="205" x2="505" y2="205"/>
    <line x1="305" y1="5" x2="305" y2="505"/>
    <line x1="5" y1="305" x2="505" y2="305"/>
    <line x1="405" y1="5" x2="405" y2="505"/>
    <line x1="5" y1="405" x2="505" y2="405"/>
  </g>
</svg>
