<?xml version="1.0" standalone="no"?>
<!DOCTYPE svg PUBLIC "-//W3C//DTD SVG 1.1//EN" 
  "http://www.w3.org/Graphics/SVG/1.1/DTD/svg11.dtd">
<svg width="510" height="510" version="1.1" id="toplevel"
    xmlns="http://www.w3.org/2000/svg"
    xmlns:xlink="http://www.w3.org/1999/xlink">
  <polygon points="16,457 113,422 231,129 202,53 147,60 76,103 69,142 42,160 58,202 56,213 17,231 43,287 13,451"
           fill="bisque"/>
  <g stroke="chocolate" stroke-width="1">
    <line x1="16" y1="457" x2="113" y2="422"/>
    <circle cx="16" cy="457" r="2"/>
    <circle cx="113" cy="422" r="2"/>
  </g>
  <g stroke="chocolate" stroke-width="1">
    <line x1="93" y1="398" x2="130" y2="381"/>
    <circle cx="93" cy="398" r="2"/>
    <circle cx="130" cy="381" r="2"/>
  </g>
  <g stroke="chocolate" stroke-width="1">
    <line x1="97" y1="291" x2="185" y2="244"/>
    <circle cx="97" cy="291" r="2"/>
    <circle cx="185" cy="244" r="2"/>
  </g>
  <g stroke="chocolate" stroke-width="1">
    <line x1="13" y1="451" x2="183" y2="249"/>
    <circle cx="13" cy="451" r="2"/>
    <circle cx="183" cy="249" r="2"/>
  </g>
  <g stroke="chocolate" stroke-width="1">
    <line x1="97" y1="291" x2="168" y2="286"/>
    <circle cx="97" cy="291" r="2"/>
    <circle cx="168" cy="286" r="2"/>
  </g>
  <g stroke="chocolate" stroke-width="1">
    <line x1="138" y1="252" x2="147" y2="244"/>
    <circle cx="138" cy="252" r="2"/>
    <circle cx="147" cy="244" r="2"/>
  </g>
  <g stroke="chocolate" stroke-width="1">
    <line x1="124" y1="285" x2="169" y2="284"/>
    <circle cx="124" cy="285" r="2"/>
    <circle cx="169" cy="284" r="2"/>
  </g>
  <g stroke="chocolate" stroke-width="1">
    <line x1="113" y1="422" x2="231" y2="129"/>
    <circle cx="113" cy="422" r="2"/>
    <circle cx="231" cy="129" r="2"/>
  </g>
  <g stroke="chocolate" stroke-width="1">
    <line x1="147" y1="244" x2="187" y2="239"/>
    <circle cx="147" cy="244" r="2"/>
    <circle cx="187" cy="239" r="2"/>
  </g>
  <g stroke="chocolate" stroke-width="1">
    <line x1="17" y1="231" x2="231" y2="129"/>
    <circle cx="17" cy="231" r="2"/>
    <circle cx="231" cy="129" r="2"/>
  </g>
  <g stroke="chocolate" stroke-width="1">
    <line x1="188" y1="235" x2="54" y2="225"/>
    <circle cx="188" cy="235" r="2"/>
    <circle cx="54" cy="225" r="2"/>
  </g>
  <g stroke="chocolate" stroke-width="1">
    <line x1="16" y1="457" x2="13" y2="451"/>
    <circle cx="16" cy="457" r="2"/>
    <circle cx="13" cy="451" r="2"/>
  </g>
  <g stroke="chocolate" stroke-width="1">
    <line x1="63" y1="174" x2="147" y2="60"/>
    <circle cx="63" cy="174" r="2"/>
    <circle cx="147" cy="60" r="2"/>
  </g>
  <g stroke="chocolate" stroke-width="1">
    <line x1="178" y1="260" x2="54" y2="225"/>
    <circle cx="178" cy="260" r="2"/>
    <circle cx="54" cy="225" r="2"/>
  </g>
  <g stroke="chocolate" stroke-width="1">
    <line x1="183" y1="249" x2="183" y2="239"/>
    <circle cx="183" cy="249" r="2"/>
    <circle cx="183" cy="239" r="2"/>
  </g>
  <g stroke="chocolate" stroke-width="1">
    <line x1="13" y1="451" x2="76" y2="103"/>
    <circle cx="13" cy="451" r="2"/>
    <circle cx="76" cy="103" r="2"/>
  </g>
  <g stroke="chocolate" stroke-width="1">
    <line x1="113" y1="422" x2="17" y2="231"/>
    <circle cx="113" cy="422" r="2"/>
    <circle cx="17" cy="231" r="2"/>
  </g>
  <g stroke="chocolate" stroke-width="1">
    <line x1="93" y1="398" x2="17" y2="231"/>
    <circle cx="93" cy="398" r="2"/>
    <circle cx="17" cy="231" r="2"/>
  </g>
  <g stroke="chocolate" stroke-width="1">
    <line x1="124" y1="285" x2="123" y2="181"/>
    <circle cx="124" cy="285" r="2"/>
    <circle cx="123" cy="181" r="2"/>
  </g>
  <g stroke="chocolate" stroke-width="1">
    <line x1="42" y1="160" x2="202" y2="53"/>
    <circle cx="42" cy="160" r="2"/>
    <circle cx="202" cy="53" r="2"/>
  </g>
  <g stroke="chocolate" stroke-width="1">
    <line x1="97" y1="291" x2="63" y2="174"/>
    <circle cx="97" cy="291" r="2"/>
    <circle cx="63" cy="174" r="2"/>
  </g>
  <g stroke="chocolate" stroke-width="1">
    <line x1="130" y1="381" x2="42" y2="160"/>
    <circle cx="130" cy="381" r="2"/>
    <circle cx="42" cy="160" r="2"/>
  </g>
  <g stroke="chocolate" stroke-width="1">
    <line x1="178" y1="260" x2="147" y2="244"/>
    <circle cx="178" cy="260" r="2"/>
    <circle cx="147" cy="244" r="2"/>
  </g>
  <g stroke="chocolate" stroke-width="1">
    <line x1="169" y1="284" x2="42" y2="160"/>
    <circle cx="169" cy="284" r="2"/>
    <circle cx="42" cy="160" r="2"/>
  </g>
  <g stroke="chocolate" stroke-width="1">
    <line x1="76" y1="103" x2="147" y2="60"/>
    <circle cx="76" cy="103" r="2"/>
    <circle cx="147" cy="60" r="2"/>
  </g>
  <g stroke="chocolate" stroke-width="1">
    <line x1="168" y1="286" x2="138" y2="252"/>
    <circle cx="168" cy="286" r="2"/>
    <circle cx="138" cy="252" r="2"/>
  </g>
  <g stroke="chocolate" stroke-width="1">
    <line x1="185" y1="244" x2="183" y2="239"/>
    <circle cx="185" cy="244" r="2"/>
    <circle cx="183" cy="239" r="2"/>
  </g>
  <g stroke="chocolate" stroke-width="1">
    <line x1="188" y1="235" x2="123" y2="181"/>
    <circle cx="188" cy="235" r="2"/>
    <circle cx="123" cy="181" r="2"/>
  </g>
  <g stroke="chocolate" stroke-width="1">
    <line x1="187" y1="239" x2="76" y2="103"/>
    <circle cx="187" cy="239" r="2"/>
    <circle cx="76" cy="103" r="2"/>
  </g>
  <g stroke="chocolate" stroke-width="1">
    <line x1="231" y1="129" x2="202" y2="53"/>
    <circle cx="231" cy="129" r="2"/>
    <circle cx="202" cy="53" r="2"/>
  </g>
  <g stroke="chocolate" stroke-width="1">
    <line x1="147" y1="60" x2="202" y2="53"/>
    <circle cx="147" cy="60" r="2"/>
    <circle cx="202" cy="53" r="2"/>
  </g>
  <g stroke="black" stroke-width="1">
    <line x1="5" y1="5" x2="505" y2="5"/>
    <line x1="5" y1="5" x2="5" y2="505"/>
    <line x1="505" y1="505" x2="5" y2="505"/>
    <line x1="505" y1="505" x2="505" y2="5"/>
    <line x1="105" y1="2" x2="105" y2="8"/>
    <line x1="2" y1="105" x2="8" y2="105"/>
    <line x1="105" y1="502" x2="105" y2="508"/>
    <line x1="502" y1="105" x2="508" y2="105"/>
    <line x1="205" y1="2" x2="205" y2="8"/>
    <line x1="2" y1="205" x2="8" y2="205"/>
    <line x1="205" y1="502" x2="205" y2="508"/>
    <line x1="502" y1="205" x2="508" y2="205"/>
    <line x1="305" y1="2" x2="305" y2="8"/>
    <line x1="2" y1="305" x2="8" y2="305"/>
    <line x1="305" y1="502" x2="305" y2="508"/>
    <line x1="502" y1="305" x2="508" y2="305"/>
    <line x1="405" y1="2" x2="405" y2="8"/>
    <line x1="2" y1="405" x2="8" y2="405"/>
    <line x1="405" y1="502" x2="405" y2="508"/>
    <line x1="502" y1="405" x2="508" y2="405"/>
  </g>
  <g stroke="gray" stroke-width="1" stroke-dasharray="5,5">
    <line x1="105" y1="5" x2="105" y2="505"/>
    <line x1="5" y1="105" x2="505" y2="105"/>
    <line x1="205" y1="5" x2="205" y2="505"/>
    <line x1="5" y1="205" x2="505" y2="205"/>
    <line x1="305" y1="5" x2="305" y2="505"/>
    <line x1="5" y1="305" x2="505" y2="305"/>
    <line x1="405" y1="5" x2="405" y2="505"/>
    <line x1="5" y1="405" x2="505" y2="405"/>
  </g>
</svg>
