<?xml version="1.0" standalone="no"?>
<!DOCTYPE svg PUBLIC "-//W3C//DTD SVG 1.1//EN" 
  "http://www.w3.org/Graphics/SVG/1.1/DTD/svg11.dtd">
<svg width="510" height="510" version="1.1" id="toplevel"
    xmlns="http://www.w3.org/2000/svg"
    xmlns:xlink="http://www.w3.org/1999/xlink">
  <polygon points="405,405 438,405 438,372 472,338 472,238 438,238 438,205 372,138 305,138 305,105 238,105 188,155 305,272 338,272 355,288 322,322"
           fill="bisque"/>
  <g stroke="chocolate" stroke-width="1">
    <line x1="405" y1="405" x2="472" y2="338"/>
    <circle cx="405" cy="405" r="2"/>
    <circle cx="472" cy="338" r="2"/>
  </g>
  <g stroke="chocolate" stroke-width="1">
    <line x1="355" y1="355" x2="438" y2="272"/>
    <circle cx="355" cy="355" r="2"/>
    <circle cx="438" cy="272" r="2"/>
  </g>
  <g stroke="chocolate" stroke-width="1">
    <line x1="322" y1="322" x2="438" y2="205"/>
    <circle cx="322" cy="322" r="2"/>
    <circle cx="438" cy="205" r="2"/>
  </g>
  <g stroke="chocolate" stroke-width="1">
    <line x1="238" y1="205" x2="238" y2="105"/>
    <circle cx="238" cy="205" r="2"/>
    <circle cx="238" cy="105" r="2"/>
  </g>
  <g stroke="chocolate" stroke-width="1">
    <line x1="305" y1="272" x2="305" y2="105"/>
    <circle cx="305" cy="272" r="2"/>
    <circle cx="305" cy="105" r="2"/>
  </g>
  <g stroke="chocolate" stroke-width="1">
    <line x1="372" y1="372" x2="372" y2="138"/>
    <circle cx="372" cy="372" r="2"/>
    <circle cx="372" cy="138" r="2"/>
  </g>
  <g stroke="chocolate" stroke-width="1">
    <line x1="405" y1="405" x2="405" y2="172"/>
    <circle cx="405" cy="405" r="2"/>
    <circle cx="405" cy="172" r="2"/>
  </g>
  <g stroke="chocolate" stroke-width="1">
    <line x1="438" y1="405" x2="438" y2="205"/>
    <circle cx="438" cy="405" r="2"/>
    <circle cx="438" cy="205" r="2"/>
  </g>
  <g stroke="chocolate" stroke-width="1">
    <line x1="472" y1="338" x2="472" y2="238"/>
    <circle cx="472" cy="338" r="2"/>
    <circle cx="472" cy="238" r="2"/>
  </g>
  <g stroke="chocolate" stroke-width="1">
    <line x1="238" y1="205" x2="305" y2="138"/>
    <circle cx="238" cy="205" r="2"/>
    <circle cx="305" cy="138" r="2"/>
  </g>
  <g stroke="chocolate" stroke-width="1">
    <line x1="188" y1="155" x2="238" y2="105"/>
    <circle cx="188" cy="155" r="2"/>
    <circle cx="238" cy="105" r="2"/>
  </g>
  <g stroke="chocolate" stroke-width="1">
    <line x1="405" y1="405" x2="438" y2="405"/>
    <circle cx="405" cy="405" r="2"/>
    <circle cx="438" cy="405" r="2"/>
  </g>
  <g stroke="chocolate" stroke-width="1">
    <line x1="372" y1="372" x2="405" y2="372"/>
    <circle cx="372" cy="372" r="2"/>
    <circle cx="405" cy="372" r="2"/>
  </g>
  <g stroke="chocolate" stroke-width="1">
    <line x1="405" y1="405" x2="322" y2="322"/>
    <circle cx="405" cy="405" r="2"/>
    <circle cx="322" cy="322" r="2"/>
  </g>
  <g stroke="chocolate" stroke-width="1">
    <line x1="405" y1="305" x2="472" y2="305"/>
    <circle cx="405" cy="305" r="2"/>
    <circle cx="472" cy="305" r="2"/>
  </g>
  <g stroke="chocolate" stroke-width="1">
    <line x1="305" y1="272" x2="188" y2="155"/>
    <circle cx="305" cy="272" r="2"/>
    <circle cx="188" cy="155" r="2"/>
  </g>
  <g stroke="chocolate" stroke-width="1">
    <line x1="438" y1="372" x2="205" y2="138"/>
    <circle cx="438" cy="372" r="2"/>
    <circle cx="205" cy="138" r="2"/>
  </g>
  <g stroke="chocolate" stroke-width="1">
    <line x1="305" y1="272" x2="438" y2="272"/>
    <circle cx="305" cy="272" r="2"/>
    <circle cx="438" cy="272" r="2"/>
  </g>
  <g stroke="chocolate" stroke-width="1">
    <line x1="472" y1="338" x2="438" y2="305"/>
    <circle cx="472" cy="338" r="2"/>
    <circle cx="438" cy="305" r="2"/>
  </g>
  <g stroke="chocolate" stroke-width="1">
    <line x1="405" y1="238" x2="472" y2="238"/>
    <circle cx="405" cy="238" r="2"/>
    <circle cx="472" cy="238" r="2"/>
  </g>
  <g stroke="chocolate" stroke-width="1">
    <line x1="438" y1="272" x2="305" y2="138"/>
    <circle cx="438" cy="272" r="2"/>
    <circle cx="305" cy="138" r="2"/>
  </g>
  <g stroke="chocolate" stroke-width="1">
    <line x1="438" y1="205" x2="372" y2="138"/>
    <circle cx="438" cy="205" r="2"/>
    <circle cx="372" cy="138" r="2"/>
  </g>
  <g stroke="chocolate" stroke-width="1">
    <line x1="238" y1="172" x2="405" y2="172"/>
    <circle cx="238" cy="172" r="2"/>
    <circle cx="405" cy="172" r="2"/>
  </g>
  <g stroke="chocolate" stroke-width="1">
    <line x1="205" y1="138" x2="372" y2="138"/>
    <circle cx="205" cy="138" r="2"/>
    <circle cx="372" cy="138" r="2"/>
  </g>
  <g stroke="chocolate" stroke-width="1">
    <line x1="238" y1="105" x2="305" y2="105"/>
    <circle cx="238" cy="105" r="2"/>
    <circle cx="305" cy="105" r="2"/>
  </g>
  <g stroke="black" stroke-width="1">
    <line x1="5" y1="5" x2="505" y2="5"/>
    <line x1="5" y1="5" x2="5" y2="505"/>
    <line x1="505" y1="505" x2="5" y2="505"/>
    <line x1="505" y1="505" x2="505" y2="5"/>
    <line x1="105" y1="2" x2="105" y2="8"/>
    <line x1="2" y1="105" x2="8" y2="105"/>
    <line x1="105" y1="502" x2="105" y2="508"/>
    <line x1="502" y1="105" x2="508" y2="105"/>
    <line x1="205" y1="2" x2="205" y2="8"/>
    <line x1="2" y1="205" x2="8" y2="205"/>
    <line x1="205" y1="502" x2="205" y2="508"/>
    <line x1="502" y1="205" x2="508" y2="205"/>
    <line x1="305" y1="2" x2="305" y2="8"/>
    <line x1="2" y1="305" x2="8" y2="305"/>
    <line x1="305" y1="502" x2="305" y2="508"/>
    <line x1="502" y1="305" x2="508" y2="305"/>
    <line x1="405" y1="2" x2="405" y2="8"/>
    <line x1="2" y1="405" x2="8" y2="405"/>
    <line x1="405" y1="502" x2="405" y2="508"/>
    <line x1="502" y1="405" x2="508" y2="405"/>
  </g>
  <g stroke="gray" stroke-width="1" stroke-dasharray="5,5">
    <line x1="105" y1="5" x2="105" y2="505"/>
    <line x1="5" y1="105" x2="505" y2="105"/>
    <line x1="205" y1="5" x2="205" y2="505"/>
    <line x1="5" y1="205" x2="505" y2="205"/>
    <line x1="305" y1="5" x2="305" y2="505"/>
    <line x1="5" y1="305" x2="505" y2="305"/>
    <line x1="405" y1="5" x2="405" y2="505"/>
    <line x1="5" y1="405" x2="505" y2="405"/>
  </g>
</svg>
