<?xml version="1.0" standalone="no"?>
<!DOCTYPE svg PUBLIC "-//W3C//DTD SVG 1.1//EN" 
  "http://www.w3.org/Graphics/SVG/1.1/DTD/svg11.dtd">
<svg width="510" height="510" version="1.1" id="toplevel"
    xmlns="http://www.w3.org/2000/svg"
    xmlns:xlink="http://www.w3.org/1999/xlink">
  <polygon points="82,440 132,377 250,335 302,353 317,312 467,258 400,70 99,71 43,409"
           fill="bisque"/>
  <g stroke="chocolate" stroke-width="1">
    <line x1="82" y1="440" x2="316" y2="147"/>
    <circle cx="82" cy="440" r="2"/>
    <circle cx="316" cy="147" r="2"/>
  </g>
  <g stroke="chocolate" stroke-width="1">
    <line x1="43" y1="409" x2="467" y2="258"/>
    <circle cx="43" cy="409" r="2"/>
    <circle cx="467" cy="258" r="2"/>
  </g>
  <g stroke="chocolate" stroke-width="1">
    <line x1="302" y1="353" x2="400" y2="70"/>
    <circle cx="302" cy="353" r="2"/>
    <circle cx="400" cy="70" r="2"/>
  </g>
  <g stroke="chocolate" stroke-width="1">
    <line x1="43" y1="409" x2="99" y2="71"/>
    <circle cx="43" cy="409" r="2"/>
    <circle cx="99" cy="71" r="2"/>
  </g>
  <g stroke="chocolate" stroke-width="1">
    <line x1="66" y1="272" x2="316" y2="272"/>
    <circle cx="66" cy="272" r="2"/>
    <circle cx="316" cy="272" r="2"/>
  </g>
  <g stroke="chocolate" stroke-width="1">
    <line x1="316" y1="272" x2="316" y2="147"/>
    <circle cx="316" cy="272" r="2"/>
    <circle cx="316" cy="147" r="2"/>
  </g>
  <g stroke="chocolate" stroke-width="1">
    <line x1="82" y1="440" x2="43" y2="409"/>
    <circle cx="82" cy="440" r="2"/>
    <circle cx="43" cy="409" r="2"/>
  </g>
  <g stroke="chocolate" stroke-width="1">
    <line x1="302" y1="353" x2="66" y2="272"/>
    <circle cx="302" cy="353" r="2"/>
    <circle cx="66" cy="272" r="2"/>
  </g>
  <g stroke="chocolate" stroke-width="1">
    <line x1="99" y1="71" x2="400" y2="70"/>
    <circle cx="99" cy="71" r="2"/>
    <circle cx="400" cy="70" r="2"/>
  </g>
  <g stroke="chocolate" stroke-width="1">
    <line x1="467" y1="258" x2="400" y2="70"/>
    <circle cx="467" cy="258" r="2"/>
    <circle cx="400" cy="70" r="2"/>
  </g>
  <g stroke="chocolate" stroke-width="1">
    <line x1="316" y1="147" x2="99" y2="71"/>
    <circle cx="316" cy="147" r="2"/>
    <circle cx="99" cy="71" r="2"/>
  </g>
  <g stroke="black" stroke-width="1">
    <line x1="5" y1="5" x2="505" y2="5"/>
    <line x1="5" y1="5" x2="5" y2="505"/>
    <line x1="505" y1="505" x2="5" y2="505"/>
    <line x1="505" y1="505" x2="505" y2="5"/>
    <line x1="105" y1="2" x2="105" y2="8"/>
    <line x1="2" y1="105" x2="8" y2="105"/>
    <line x1="105" y1="502" x2="105" y2="508"/>
    <line x1="502" y1="105" x2="508" y2="105"/>
    <line x1="205" y1="2" x2="205" y2="8"/>
    <line x1="2" y1="205" x2="8" y2="205"/>
    <line x1="205" y1="502" x2="205" y2="508"/>
    <line x1="502" y1="205" x2="508" y2="205"/>
    <line x1="305" y1="2" x2="305" y2="8"/>
    <line x1="2" y1="305" x2="8" y2="305"/>
    <line x1="305" y1="502" x2="305" y2="508"/>
    <line x1="502" y1="305" x2="508" y2="305"/>
    <line x1="405" y1="2" x2="405" y2="8"/>
    <line x1="2" y1="405" x2="8" y2="405"/>
    <line x1="405" y1="502" x2="405" y2="508"/>
    <line x1="502" y1="405" x2="508" y2="405"/>
  </g>
  <g stroke="gray" stroke-width="1" stroke-dasharray="5,5">
    <line x1="105" y1="5" x2="105" y2="505"/>
    <line x1="5" y1="105" x2="505" y2="105"/>
    <line x1="205" y1="5" x2="205" y2="505"/>
    <line x1="5" y1="205" x2="505" y2="205"/>
    <line x1="305" y1="5" x2="305" y2="505"/>
    <line x1="5" y1="305" x2="505" y2="305"/>
    <line x1="405" y1="5" x2="405" y2="505"/>
    <line x1="5" y1="405" x2="505" y2="405"/>
  </g>
</svg>
