<?xml version="1.0" standalone="no"?>
<!DOCTYPE svg PUBLIC "-//W3C//DTD SVG 1.1//EN" 
  "http://www.w3.org/Graphics/SVG/1.1/DTD/svg11.dtd">
<svg width="510" height="510" version="1.1" id="toplevel"
    xmlns="http://www.w3.org/2000/svg"
    xmlns:xlink="http://www.w3.org/1999/xlink">
  <polygon points="322,454 415,361 438,358 440,120 348,56 160,159 229,284 179,376"
           fill="bisque"/>
  <g stroke="chocolate" stroke-width="1">
    <line x1="322" y1="454" x2="438" y2="337"/>
    <circle cx="322" cy="454" r="2"/>
    <circle cx="438" cy="337" r="2"/>
  </g>
  <g stroke="chocolate" stroke-width="1">
    <line x1="383" y1="365" x2="439" y2="319"/>
    <circle cx="383" cy="365" r="2"/>
    <circle cx="439" cy="319" r="2"/>
  </g>
  <g stroke="chocolate" stroke-width="1">
    <line x1="179" y1="376" x2="351" y2="58"/>
    <circle cx="179" cy="376" r="2"/>
    <circle cx="351" cy="58" r="2"/>
  </g>
  <g stroke="chocolate" stroke-width="1">
    <line x1="383" y1="365" x2="438" y2="358"/>
    <circle cx="383" cy="365" r="2"/>
    <circle cx="438" cy="358" r="2"/>
  </g>
  <g stroke="chocolate" stroke-width="1">
    <line x1="312" y1="206" x2="440" y2="120"/>
    <circle cx="312" cy="206" r="2"/>
    <circle cx="440" cy="120" r="2"/>
  </g>
  <g stroke="chocolate" stroke-width="1">
    <line x1="260" y1="161" x2="351" y2="58"/>
    <circle cx="260" cy="161" r="2"/>
    <circle cx="351" cy="58" r="2"/>
  </g>
  <g stroke="chocolate" stroke-width="1">
    <line x1="305" y1="338" x2="348" y2="56"/>
    <circle cx="305" cy="338" r="2"/>
    <circle cx="348" cy="56" r="2"/>
  </g>
  <g stroke="chocolate" stroke-width="1">
    <line x1="438" y1="358" x2="440" y2="120"/>
    <circle cx="438" cy="358" r="2"/>
    <circle cx="440" cy="120" r="2"/>
  </g>
  <g stroke="chocolate" stroke-width="1">
    <line x1="322" y1="454" x2="179" y2="376"/>
    <circle cx="322" cy="454" r="2"/>
    <circle cx="179" cy="376" r="2"/>
  </g>
  <g stroke="chocolate" stroke-width="1">
    <line x1="438" y1="358" x2="305" y2="338"/>
    <circle cx="438" cy="358" r="2"/>
    <circle cx="305" cy="338" r="2"/>
  </g>
  <g stroke="chocolate" stroke-width="1">
    <line x1="160" y1="159" x2="348" y2="56"/>
    <circle cx="160" cy="159" r="2"/>
    <circle cx="348" cy="56" r="2"/>
  </g>
  <g stroke="chocolate" stroke-width="1">
    <line x1="322" y1="454" x2="160" y2="159"/>
    <circle cx="322" cy="454" r="2"/>
    <circle cx="160" cy="159" r="2"/>
  </g>
  <g stroke="chocolate" stroke-width="1">
    <line x1="383" y1="365" x2="312" y2="206"/>
    <circle cx="383" cy="365" r="2"/>
    <circle cx="312" cy="206" r="2"/>
  </g>
  <g stroke="chocolate" stroke-width="1">
    <line x1="438" y1="337" x2="312" y2="206"/>
    <circle cx="438" cy="337" r="2"/>
    <circle cx="312" cy="206" r="2"/>
  </g>
  <g stroke="chocolate" stroke-width="1">
    <line x1="439" y1="319" x2="260" y2="161"/>
    <circle cx="439" cy="319" r="2"/>
    <circle cx="260" cy="161" r="2"/>
  </g>
  <g stroke="chocolate" stroke-width="1">
    <line x1="440" y1="120" x2="348" y2="56"/>
    <circle cx="440" cy="120" r="2"/>
    <circle cx="348" cy="56" r="2"/>
  </g>
  <g stroke="black" stroke-width="1">
    <line x1="5" y1="5" x2="505" y2="5"/>
    <line x1="5" y1="5" x2="5" y2="505"/>
    <line x1="505" y1="505" x2="5" y2="505"/>
    <line x1="505" y1="505" x2="505" y2="5"/>
    <line x1="105" y1="2" x2="105" y2="8"/>
    <line x1="2" y1="105" x2="8" y2="105"/>
    <line x1="105" y1="502" x2="105" y2="508"/>
    <line x1="502" y1="105" x2="508" y2="105"/>
    <line x1="205" y1="2" x2="205" y2="8"/>
    <line x1="2" y1="205" x2="8" y2="205"/>
    <line x1="205" y1="502" x2="205" y2="508"/>
    <line x1="502" y1="205" x2="508" y2="205"/>
    <line x1="305" y1="2" x2="305" y2="8"/>
    <line x1="2" y1="305" x2="8" y2="305"/>
    <line x1="305" y1="502" x2="305" y2="508"/>
    <line x1="502" y1="305" x2="508" y2="305"/>
    <line x1="405" y1="2" x2="405" y2="8"/>
    <line x1="2" y1="405" x2="8" y2="405"/>
    <line x1="405" y1="502" x2="405" y2="508"/>
    <line x1="502" y1="405" x2="508" y2="405"/>
  </g>
  <g stroke="gray" stroke-width="1" stroke-dasharray="5,5">
    <line x1="105" y1="5" x2="105" y2="505"/>
    <line x1="5" y1="105" x2="505" y2="105"/>
    <line x1="205" y1="5" x2="205" y2="505"/>
    <line x1="5" y1="205" x2="505" y2="205"/>
    <line x1="305" y1="5" x2="305" y2="505"/>
    <line x1="5" y1="305" x2="505" y2="305"/>
    <line x1="405" y1="5" x2="405" y2="505"/>
    <line x1="5" y1="405" x2="505" y2="405"/>
  </g>
</svg>
