<?xml version="1.0" standalone="no"?>
<!DOCTYPE svg PUBLIC "-//W3C//DTD SVG 1.1//EN" 
  "http://www.w3.org/Graphics/SVG/1.1/DTD/svg11.dtd">
<svg width="510" height="510" version="1.1" id="toplevel"
    xmlns="http://www.w3.org/2000/svg"
    xmlns:xlink="http://www.w3.org/1999/xlink">
  <polygon points="251,470 465,128 416,40 334,86 324,120 65,106 56,272 225,443 220,459"
           fill="bisque"/>
  <g stroke="chocolate" stroke-width="1">
    <line x1="251" y1="470" x2="465" y2="128"/>
    <circle cx="251" cy="470" r="2"/>
    <circle cx="465" cy="128" r="2"/>
  </g>
  <g stroke="chocolate" stroke-width="1">
    <line x1="247" y1="467" x2="359" y2="135"/>
    <circle cx="247" cy="467" r="2"/>
    <circle cx="359" cy="135" r="2"/>
  </g>
  <g stroke="chocolate" stroke-width="1">
    <line x1="220" y1="459" x2="334" y2="86"/>
    <circle cx="220" cy="459" r="2"/>
    <circle cx="334" cy="86" r="2"/>
  </g>
  <g stroke="chocolate" stroke-width="1">
    <line x1="247" y1="467" x2="280" y2="319"/>
    <circle cx="247" cy="467" r="2"/>
    <circle cx="280" cy="319" r="2"/>
  </g>
  <g stroke="chocolate" stroke-width="1">
    <line x1="195" y1="413" x2="206" y2="257"/>
    <circle cx="195" cy="413" r="2"/>
    <circle cx="206" cy="257" r="2"/>
  </g>
  <g stroke="chocolate" stroke-width="1">
    <line x1="56" y1="272" x2="65" y2="106"/>
    <circle cx="56" cy="272" r="2"/>
    <circle cx="65" cy="106" r="2"/>
  </g>
  <g stroke="chocolate" stroke-width="1">
    <line x1="258" y1="333" x2="280" y2="319"/>
    <circle cx="258" cy="333" r="2"/>
    <circle cx="280" cy="319" r="2"/>
  </g>
  <g stroke="chocolate" stroke-width="1">
    <line x1="290" y1="408" x2="258" y2="333"/>
    <circle cx="290" cy="408" r="2"/>
    <circle cx="258" cy="333" r="2"/>
  </g>
  <g stroke="chocolate" stroke-width="1">
    <line x1="268" y1="301" x2="379" y2="252"/>
    <circle cx="268" cy="301" r="2"/>
    <circle cx="379" cy="252" r="2"/>
  </g>
  <g stroke="chocolate" stroke-width="1">
    <line x1="195" y1="413" x2="290" y2="408"/>
    <circle cx="195" cy="413" r="2"/>
    <circle cx="290" cy="408" r="2"/>
  </g>
  <g stroke="chocolate" stroke-width="1">
    <line x1="247" y1="467" x2="220" y2="459"/>
    <circle cx="247" cy="467" r="2"/>
    <circle cx="220" cy="459" r="2"/>
  </g>
  <g stroke="chocolate" stroke-width="1">
    <line x1="251" y1="470" x2="220" y2="459"/>
    <circle cx="251" cy="470" r="2"/>
    <circle cx="220" cy="459" r="2"/>
  </g>
  <g stroke="chocolate" stroke-width="1">
    <line x1="251" y1="470" x2="56" y2="272"/>
    <circle cx="251" cy="470" r="2"/>
    <circle cx="56" cy="272" r="2"/>
  </g>
  <g stroke="chocolate" stroke-width="1">
    <line x1="382" y1="259" x2="379" y2="252"/>
    <circle cx="382" cy="259" r="2"/>
    <circle cx="379" cy="252" r="2"/>
  </g>
  <g stroke="chocolate" stroke-width="1">
    <line x1="280" y1="319" x2="268" y2="301"/>
    <circle cx="280" cy="319" r="2"/>
    <circle cx="268" cy="301" r="2"/>
  </g>
  <g stroke="chocolate" stroke-width="1">
    <line x1="312" y1="157" x2="359" y2="135"/>
    <circle cx="312" cy="157" r="2"/>
    <circle cx="359" cy="135" r="2"/>
  </g>
  <g stroke="chocolate" stroke-width="1">
    <line x1="359" y1="135" x2="334" y2="86"/>
    <circle cx="359" cy="135" r="2"/>
    <circle cx="334" cy="86" r="2"/>
  </g>
  <g stroke="chocolate" stroke-width="1">
    <line x1="334" y1="86" x2="416" y2="40"/>
    <circle cx="334" cy="86" r="2"/>
    <circle cx="416" cy="40" r="2"/>
  </g>
  <g stroke="chocolate" stroke-width="1">
    <line x1="377" y1="269" x2="312" y2="157"/>
    <circle cx="377" cy="269" r="2"/>
    <circle cx="312" cy="157" r="2"/>
  </g>
  <g stroke="chocolate" stroke-width="1">
    <line x1="465" y1="128" x2="416" y2="40"/>
    <circle cx="465" cy="128" r="2"/>
    <circle cx="416" cy="40" r="2"/>
  </g>
  <g stroke="chocolate" stroke-width="1">
    <line x1="56" y1="272" x2="382" y2="259"/>
    <circle cx="56" cy="272" r="2"/>
    <circle cx="382" cy="259" r="2"/>
  </g>
  <g stroke="chocolate" stroke-width="1">
    <line x1="377" y1="269" x2="206" y2="257"/>
    <circle cx="377" cy="269" r="2"/>
    <circle cx="206" cy="257" r="2"/>
  </g>
  <g stroke="chocolate" stroke-width="1">
    <line x1="465" y1="128" x2="65" y2="106"/>
    <circle cx="465" cy="128" r="2"/>
    <circle cx="65" cy="106" r="2"/>
  </g>
  <g stroke="black" stroke-width="1">
    <line x1="5" y1="5" x2="505" y2="5"/>
    <line x1="5" y1="5" x2="5" y2="505"/>
    <line x1="505" y1="505" x2="5" y2="505"/>
    <line x1="505" y1="505" x2="505" y2="5"/>
    <line x1="105" y1="2" x2="105" y2="8"/>
    <line x1="2" y1="105" x2="8" y2="105"/>
    <line x1="105" y1="502" x2="105" y2="508"/>
    <line x1="502" y1="105" x2="508" y2="105"/>
    <line x1="205" y1="2" x2="205" y2="8"/>
    <line x1="2" y1="205" x2="8" y2="205"/>
    <line x1="205" y1="502" x2="205" y2="508"/>
    <line x1="502" y1="205" x2="508" y2="205"/>
    <line x1="305" y1="2" x2="305" y2="8"/>
    <line x1="2" y1="305" x2="8" y2="305"/>
    <line x1="305" y1="502" x2="305" y2="508"/>
    <line x1="502" y1="305" x2="508" y2="305"/>
    <line x1="405" y1="2" x2="405" y2="8"/>
    <line x1="2" y1="405" x2="8" y2="405"/>
    <line x1="405" y1="502" x2="405" y2="508"/>
    <line x1="502" y1="405" x2="508" y2="405"/>
  </g>
  <g stroke="gray" stroke-width="1" stroke-dasharray="5,5">
    <line x1="105" y1="5" x2="105" y2="505"/>
    <line x1="5" y1="105" x2="505" y2="105"/>
    <line x1="205" y1="5" x2="205" y2="505"/>
    <line x1="5" y1="205" x2="505" y2="205"/>
    <line x1="305" y1="5" x2="305" y2="505"/>
    <line x1="5" y1="305" x2="505" y2="305"/>
    <line x1="405" y1="5" x2="405" y2="505"/>
    <line x1="5" y1="405" x2="505" y2="405"/>
  </g>
</svg>
