<?xml version="1.0" standalone="no"?>
<!DOCTYPE svg PUBLIC "-//W3C//DTD SVG 1.1//EN" 
  "http://www.w3.org/Graphics/SVG/1.1/DTD/svg11.dtd">
<svg width="510" height="510" version="1.1" id="toplevel"
    xmlns="http://www.w3.org/2000/svg"
    xmlns:xlink="http://www.w3.org/1999/xlink">
  <polygon points="193,461 500,66 479,49 79,83 54,120 10,318" fill="bisque"/>
  <g stroke="chocolate" stroke-width="1">
    <line x1="193" y1="461" x2="500" y2="66"/>
    <circle cx="193" cy="461" r="2"/>
    <circle cx="500" cy="66" r="2"/>
  </g>
  <g stroke="chocolate" stroke-width="1">
    <line x1="412" y1="122" x2="479" y2="49"/>
    <circle cx="412" cy="122" r="2"/>
    <circle cx="479" cy="49" r="2"/>
  </g>
  <g stroke="chocolate" stroke-width="1">
    <line x1="208" y1="311" x2="359" y2="60"/>
    <circle cx="208" cy="311" r="2"/>
    <circle cx="359" cy="60" r="2"/>
  </g>
  <g stroke="chocolate" stroke-width="1">
    <line x1="10" y1="318" x2="271" y2="259"/>
    <circle cx="10" cy="318" r="2"/>
    <circle cx="271" cy="259" r="2"/>
  </g>
  <g stroke="chocolate" stroke-width="1">
    <line x1="10" y1="318" x2="54" y2="120"/>
    <circle cx="10" cy="318" r="2"/>
    <circle cx="54" cy="120" r="2"/>
  </g>
  <g stroke="chocolate" stroke-width="1">
    <line x1="110" y1="116" x2="112" y2="81"/>
    <circle cx="110" cy="116" r="2"/>
    <circle cx="112" cy="81" r="2"/>
  </g>
  <g stroke="chocolate" stroke-width="1">
    <line x1="54" y1="120" x2="79" y2="83"/>
    <circle cx="54" cy="120" r="2"/>
    <circle cx="79" cy="83" r="2"/>
  </g>
  <g stroke="chocolate" stroke-width="1">
    <line x1="193" y1="461" x2="10" y2="318"/>
    <circle cx="193" cy="461" r="2"/>
    <circle cx="10" cy="318" r="2"/>
  </g>
  <g stroke="chocolate" stroke-width="1">
    <line x1="93" y1="98" x2="110" y2="80"/>
    <circle cx="93" cy="98" r="2"/>
    <circle cx="110" cy="80" r="2"/>
  </g>
  <g stroke="chocolate" stroke-width="1">
    <line x1="93" y1="98" x2="112" y2="81"/>
    <circle cx="93" cy="98" r="2"/>
    <circle cx="112" cy="81" r="2"/>
  </g>
  <g stroke="chocolate" stroke-width="1">
    <line x1="54" y1="120" x2="111" y2="80"/>
    <circle cx="54" cy="120" r="2"/>
    <circle cx="111" cy="80" r="2"/>
  </g>
  <g stroke="chocolate" stroke-width="1">
    <line x1="271" y1="259" x2="254" y2="184"/>
    <circle cx="271" cy="259" r="2"/>
    <circle cx="254" cy="184" r="2"/>
  </g>
  <g stroke="chocolate" stroke-width="1">
    <line x1="35" y1="207" x2="254" y2="184"/>
    <circle cx="35" cy="207" r="2"/>
    <circle cx="254" cy="184" r="2"/>
  </g>
  <g stroke="chocolate" stroke-width="1">
    <line x1="208" y1="311" x2="35" y2="207"/>
    <circle cx="208" cy="311" r="2"/>
    <circle cx="35" cy="207" r="2"/>
  </g>
  <g stroke="chocolate" stroke-width="1">
    <line x1="110" y1="116" x2="79" y2="83"/>
    <circle cx="110" cy="116" r="2"/>
    <circle cx="79" cy="83" r="2"/>
  </g>
  <g stroke="chocolate" stroke-width="1">
    <line x1="412" y1="122" x2="110" y2="116"/>
    <circle cx="412" cy="122" r="2"/>
    <circle cx="110" cy="116" r="2"/>
  </g>
  <g stroke="chocolate" stroke-width="1">
    <line x1="79" y1="83" x2="479" y2="49"/>
    <circle cx="79" cy="83" r="2"/>
    <circle cx="479" cy="49" r="2"/>
  </g>
  <g stroke="chocolate" stroke-width="1">
    <line x1="254" y1="184" x2="110" y2="80"/>
    <circle cx="254" cy="184" r="2"/>
    <circle cx="110" cy="80" r="2"/>
  </g>
  <g stroke="chocolate" stroke-width="1">
    <line x1="112" y1="81" x2="111" y2="80"/>
    <circle cx="112" cy="81" r="2"/>
    <circle cx="111" cy="80" r="2"/>
  </g>
  <g stroke="chocolate" stroke-width="1">
    <line x1="412" y1="122" x2="359" y2="60"/>
    <circle cx="412" cy="122" r="2"/>
    <circle cx="359" cy="60" r="2"/>
  </g>
  <g stroke="chocolate" stroke-width="1">
    <line x1="500" y1="66" x2="479" y2="49"/>
    <circle cx="500" cy="66" r="2"/>
    <circle cx="479" cy="49" r="2"/>
  </g>
  <g stroke="black" stroke-width="1">
    <line x1="5" y1="5" x2="505" y2="5"/>
    <line x1="5" y1="5" x2="5" y2="505"/>
    <line x1="505" y1="505" x2="5" y2="505"/>
    <line x1="505" y1="505" x2="505" y2="5"/>
    <line x1="105" y1="2" x2="105" y2="8"/>
    <line x1="2" y1="105" x2="8" y2="105"/>
    <line x1="105" y1="502" x2="105" y2="508"/>
    <line x1="502" y1="105" x2="508" y2="105"/>
    <line x1="205" y1="2" x2="205" y2="8"/>
    <line x1="2" y1="205" x2="8" y2="205"/>
    <line x1="205" y1="502" x2="205" y2="508"/>
    <line x1="502" y1="205" x2="508" y2="205"/>
    <line x1="305" y1="2" x2="305" y2="8"/>
    <line x1="2" y1="305" x2="8" y2="305"/>
    <line x1="305" y1="502" x2="305" y2="508"/>
    <line x1="502" y1="305" x2="508" y2="305"/>
    <line x1="405" y1="2" x2="405" y2="8"/>
    <line x1="2" y1="405" x2="8" y2="405"/>
    <line x1="405" y1="502" x2="405" y2="508"/>
    <line x1="502" y1="405" x2="508" y2="405"/>
  </g>
  <g stroke="gray" stroke-width="1" stroke-dasharray="5,5">
    <line x1="105" y1="5" x2="105" y2="505"/>
    <line x1="5" y1="105" x2="505" y2="105"/>
    <line x1="205" y1="5" x2="205" y2="505"/>
    <line x1="5" y1="205" x2="505" y2="205"/>
    <line x1="305" y1="5" x2="305" y2="505"/>
    <line x1="5" y1="305" x2="505" y2="305"/>
    <line x1="405" y1="5" x2="405" y2="505"/>
    <line x1="5" y1="405" x2="505" y2="405"/>
  </g>
</svg>
