<?xml version="1.0" standalone="no"?>
<!DOCTYPE svg PUBLIC "-//W3C//DTD SVG 1.1//EN" 
  "http://www.w3.org/Graphics/SVG/1.1/DTD/svg11.dtd">
<svg width="510" height="510" version="1.1" id="toplevel"
    xmlns="http://www.w3.org/2000/svg"
    xmlns:xlink="http://www.w3.org/1999/xlink">
  <polygon points="316,444 435,259 189,66 143,124 114,108 75,179 188,411 227,436"
           fill="bisque"/>
  <g stroke="chocolate" stroke-width="1">
    <line x1="316" y1="444" x2="435" y2="259"/>
    <circle cx="316" cy="444" r="2"/>
    <circle cx="435" cy="259" r="2"/>
  </g>
  <g stroke="chocolate" stroke-width="1">
    <line x1="218" y1="271" x2="269" y2="172"/>
    <circle cx="218" cy="271" r="2"/>
    <circle cx="269" cy="172" r="2"/>
  </g>
  <g stroke="chocolate" stroke-width="1">
    <line x1="188" y1="411" x2="204" y2="199"/>
    <circle cx="188" cy="411" r="2"/>
    <circle cx="204" cy="199" r="2"/>
  </g>
  <g stroke="chocolate" stroke-width="1">
    <line x1="229" y1="291" x2="302" y2="193"/>
    <circle cx="229" cy="291" r="2"/>
    <circle cx="302" cy="193" r="2"/>
  </g>
  <g stroke="chocolate" stroke-width="1">
    <line x1="358" y1="379" x2="357" y2="280"/>
    <circle cx="358" cy="379" r="2"/>
    <circle cx="357" cy="280" r="2"/>
  </g>
  <g stroke="chocolate" stroke-width="1">
    <line x1="75" y1="179" x2="114" y2="108"/>
    <circle cx="75" cy="179" r="2"/>
    <circle cx="114" cy="108" r="2"/>
  </g>
  <g stroke="chocolate" stroke-width="1">
    <line x1="227" y1="436" x2="358" y2="379"/>
    <circle cx="227" cy="436" r="2"/>
    <circle cx="358" cy="379" r="2"/>
  </g>
  <g stroke="chocolate" stroke-width="1">
    <line x1="85" y1="199" x2="189" y2="66"/>
    <circle cx="85" cy="199" r="2"/>
    <circle cx="189" cy="66" r="2"/>
  </g>
  <g stroke="chocolate" stroke-width="1">
    <line x1="188" y1="411" x2="75" y2="179"/>
    <circle cx="188" cy="411" r="2"/>
    <circle cx="75" cy="179" r="2"/>
  </g>
  <g stroke="chocolate" stroke-width="1">
    <line x1="316" y1="444" x2="218" y2="271"/>
    <circle cx="316" cy="444" r="2"/>
    <circle cx="218" cy="271" r="2"/>
  </g>
  <g stroke="chocolate" stroke-width="1">
    <line x1="316" y1="444" x2="227" y2="436"/>
    <circle cx="316" cy="444" r="2"/>
    <circle cx="227" cy="436" r="2"/>
  </g>
  <g stroke="chocolate" stroke-width="1">
    <line x1="227" y1="436" x2="188" y2="411"/>
    <circle cx="227" cy="436" r="2"/>
    <circle cx="188" cy="411" r="2"/>
  </g>
  <g stroke="chocolate" stroke-width="1">
    <line x1="229" y1="291" x2="357" y2="280"/>
    <circle cx="229" cy="291" r="2"/>
    <circle cx="357" cy="280" r="2"/>
  </g>
  <g stroke="chocolate" stroke-width="1">
    <line x1="357" y1="280" x2="218" y2="271"/>
    <circle cx="357" cy="280" r="2"/>
    <circle cx="218" cy="271" r="2"/>
  </g>
  <g stroke="chocolate" stroke-width="1">
    <line x1="85" y1="199" x2="204" y2="199"/>
    <circle cx="85" cy="199" r="2"/>
    <circle cx="204" cy="199" r="2"/>
  </g>
  <g stroke="chocolate" stroke-width="1">
    <line x1="421" y1="280" x2="302" y2="193"/>
    <circle cx="421" cy="280" r="2"/>
    <circle cx="302" cy="193" r="2"/>
  </g>
  <g stroke="chocolate" stroke-width="1">
    <line x1="435" y1="259" x2="189" y2="66"/>
    <circle cx="435" cy="259" r="2"/>
    <circle cx="189" cy="66" r="2"/>
  </g>
  <g stroke="chocolate" stroke-width="1">
    <line x1="204" y1="199" x2="75" y2="179"/>
    <circle cx="204" cy="199" r="2"/>
    <circle cx="75" cy="179" r="2"/>
  </g>
  <g stroke="chocolate" stroke-width="1">
    <line x1="421" y1="280" x2="114" y2="108"/>
    <circle cx="421" cy="280" r="2"/>
    <circle cx="114" cy="108" r="2"/>
  </g>
  <g stroke="chocolate" stroke-width="1">
    <line x1="435" y1="259" x2="269" y2="172"/>
    <circle cx="435" cy="259" r="2"/>
    <circle cx="269" cy="172" r="2"/>
  </g>
  <g stroke="black" stroke-width="1">
    <line x1="5" y1="5" x2="505" y2="5"/>
    <line x1="5" y1="5" x2="5" y2="505"/>
    <line x1="505" y1="505" x2="5" y2="505"/>
    <line x1="505" y1="505" x2="505" y2="5"/>
    <line x1="105" y1="2" x2="105" y2="8"/>
    <line x1="2" y1="105" x2="8" y2="105"/>
    <line x1="105" y1="502" x2="105" y2="508"/>
    <line x1="502" y1="105" x2="508" y2="105"/>
    <line x1="205" y1="2" x2="205" y2="8"/>
    <line x1="2" y1="205" x2="8" y2="205"/>
    <line x1="205" y1="502" x2="205" y2="508"/>
    <line x1="502" y1="205" x2="508" y2="205"/>
    <line x1="305" y1="2" x2="305" y2="8"/>
    <line x1="2" y1="305" x2="8" y2="305"/>
    <line x1="305" y1="502" x2="305" y2="508"/>
    <line x1="502" y1="305" x2="508" y2="305"/>
    <line x1="405" y1="2" x2="405" y2="8"/>
    <line x1="2" y1="405" x2="8" y2="405"/>
    <line x1="405" y1="502" x2="405" y2="508"/>
    <line x1="502" y1="405" x2="508" y2="405"/>
  </g>
  <g stroke="gray" stroke-width="1" stroke-dasharray="5,5">
    <line x1="105" y1="5" x2="105" y2="505"/>
    <line x1="5" y1="105" x2="505" y2="105"/>
    <line x1="205" y1="5" x2="205" y2="505"/>
    <line x1="5" y1="205" x2="505" y2="205"/>
    <line x1="305" y1="5" x2="305" y2="505"/>
    <line x1="5" y1="305" x2="505" y2="305"/>
    <line x1="405" y1="5" x2="405" y2="505"/>
    <line x1="5" y1="405" x2="505" y2="405"/>
  </g>
</svg>
