<?xml version="1.0" standalone="no"?>
<!DOCTYPE svg PUBLIC "-//W3C//DTD SVG 1.1//EN" 
  "http://www.w3.org/Graphics/SVG/1.1/DTD/svg11.dtd">
<svg width="510" height="510" version="1.1" id="toplevel"
    xmlns="http://www.w3.org/2000/svg"
    xmlns:xlink="http://www.w3.org/1999/xlink">
  <polygon points="295,437 416,252 397,214 384,166 373,169 333,91 255,73 130,85 94,241 183,328 186,392"
           fill="bisque"/>
  <g stroke="chocolate" stroke-width="1">
    <line x1="229" y1="372" x2="224" y2="362"/>
    <circle cx="229" cy="372" r="2"/>
    <circle cx="224" cy="362" r="2"/>
  </g>
  <g stroke="chocolate" stroke-width="1">
    <line x1="146" y1="122" x2="130" y2="85"/>
    <circle cx="146" cy="122" r="2"/>
    <circle cx="130" cy="85" r="2"/>
  </g>
  <g stroke="chocolate" stroke-width="1">
    <line x1="186" y1="392" x2="179" y2="236"/>
    <circle cx="186" cy="392" r="2"/>
    <circle cx="179" cy="236" r="2"/>
  </g>
  <g stroke="chocolate" stroke-width="1">
    <line x1="409" y1="263" x2="384" y2="166"/>
    <circle cx="409" cy="263" r="2"/>
    <circle cx="384" cy="166" r="2"/>
  </g>
  <g stroke="chocolate" stroke-width="1">
    <line x1="273" y1="428" x2="310" y2="278"/>
    <circle cx="273" cy="428" r="2"/>
    <circle cx="310" cy="278" r="2"/>
  </g>
  <g stroke="chocolate" stroke-width="1">
    <line x1="173" y1="271" x2="179" y2="236"/>
    <circle cx="173" cy="271" r="2"/>
    <circle cx="179" cy="236" r="2"/>
  </g>
  <g stroke="chocolate" stroke-width="1">
    <line x1="295" y1="437" x2="94" y2="241"/>
    <circle cx="295" cy="437" r="2"/>
    <circle cx="94" cy="241" r="2"/>
  </g>
  <g stroke="chocolate" stroke-width="1">
    <line x1="416" y1="252" x2="333" y2="91"/>
    <circle cx="416" cy="252" r="2"/>
    <circle cx="333" cy="91" r="2"/>
  </g>
  <g stroke="chocolate" stroke-width="1">
    <line x1="314" y1="408" x2="173" y2="271"/>
    <circle cx="314" cy="408" r="2"/>
    <circle cx="173" cy="271" r="2"/>
  </g>
  <g stroke="chocolate" stroke-width="1">
    <line x1="94" y1="241" x2="130" y2="85"/>
    <circle cx="94" cy="241" r="2"/>
    <circle cx="130" cy="85" r="2"/>
  </g>
  <g stroke="chocolate" stroke-width="1">
    <line x1="220" y1="364" x2="333" y2="91"/>
    <circle cx="220" cy="364" r="2"/>
    <circle cx="333" cy="91" r="2"/>
  </g>
  <g stroke="chocolate" stroke-width="1">
    <line x1="273" y1="428" x2="349" y2="303"/>
    <circle cx="273" cy="428" r="2"/>
    <circle cx="349" cy="303" r="2"/>
  </g>
  <g stroke="chocolate" stroke-width="1">
    <line x1="295" y1="437" x2="416" y2="252"/>
    <circle cx="295" cy="437" r="2"/>
    <circle cx="416" cy="252" r="2"/>
  </g>
  <g stroke="chocolate" stroke-width="1">
    <line x1="295" y1="437" x2="186" y2="392"/>
    <circle cx="295" cy="437" r="2"/>
    <circle cx="186" cy="392" r="2"/>
  </g>
  <g stroke="chocolate" stroke-width="1">
    <line x1="314" y1="408" x2="229" y2="372"/>
    <circle cx="314" cy="408" r="2"/>
    <circle cx="229" cy="372" r="2"/>
  </g>
  <g stroke="chocolate" stroke-width="1">
    <line x1="349" y1="303" x2="245" y2="240"/>
    <circle cx="349" cy="303" r="2"/>
    <circle cx="245" cy="240" r="2"/>
  </g>
  <g stroke="chocolate" stroke-width="1">
    <line x1="186" y1="392" x2="310" y2="278"/>
    <circle cx="186" cy="392" r="2"/>
    <circle cx="310" cy="278" r="2"/>
  </g>
  <g stroke="chocolate" stroke-width="1">
    <line x1="220" y1="364" x2="224" y2="362"/>
    <circle cx="220" cy="364" r="2"/>
    <circle cx="224" cy="362" r="2"/>
  </g>
  <g stroke="chocolate" stroke-width="1">
    <line x1="310" y1="278" x2="409" y2="263"/>
    <circle cx="310" cy="278" r="2"/>
    <circle cx="409" cy="263" r="2"/>
  </g>
  <g stroke="chocolate" stroke-width="1">
    <line x1="416" y1="252" x2="179" y2="236"/>
    <circle cx="416" cy="252" r="2"/>
    <circle cx="179" cy="236" r="2"/>
  </g>
  <g stroke="chocolate" stroke-width="1">
    <line x1="173" y1="271" x2="245" y2="240"/>
    <circle cx="173" cy="271" r="2"/>
    <circle cx="245" cy="240" r="2"/>
  </g>
  <g stroke="chocolate" stroke-width="1">
    <line x1="94" y1="241" x2="384" y2="166"/>
    <circle cx="94" cy="241" r="2"/>
    <circle cx="384" cy="166" r="2"/>
  </g>
  <g stroke="chocolate" stroke-width="1">
    <line x1="333" y1="91" x2="255" y2="73"/>
    <circle cx="333" cy="91" r="2"/>
    <circle cx="255" cy="73" r="2"/>
  </g>
  <g stroke="chocolate" stroke-width="1">
    <line x1="146" y1="122" x2="255" y2="73"/>
    <circle cx="146" cy="122" r="2"/>
    <circle cx="255" cy="73" r="2"/>
  </g>
  <g stroke="chocolate" stroke-width="1">
    <line x1="130" y1="85" x2="255" y2="73"/>
    <circle cx="130" cy="85" r="2"/>
    <circle cx="255" cy="73" r="2"/>
  </g>
  <g stroke="black" stroke-width="1">
    <line x1="5" y1="5" x2="505" y2="5"/>
    <line x1="5" y1="5" x2="5" y2="505"/>
    <line x1="505" y1="505" x2="5" y2="505"/>
    <line x1="505" y1="505" x2="505" y2="5"/>
    <line x1="105" y1="2" x2="105" y2="8"/>
    <line x1="2" y1="105" x2="8" y2="105"/>
    <line x1="105" y1="502" x2="105" y2="508"/>
    <line x1="502" y1="105" x2="508" y2="105"/>
    <line x1="205" y1="2" x2="205" y2="8"/>
    <line x1="2" y1="205" x2="8" y2="205"/>
    <line x1="205" y1="502" x2="205" y2="508"/>
    <line x1="502" y1="205" x2="508" y2="205"/>
    <line x1="305" y1="2" x2="305" y2="8"/>
    <line x1="2" y1="305" x2="8" y2="305"/>
    <line x1="305" y1="502" x2="305" y2="508"/>
    <line x1="502" y1="305" x2="508" y2="305"/>
    <line x1="405" y1="2" x2="405" y2="8"/>
    <line x1="2" y1="405" x2="8" y2="405"/>
    <line x1="405" y1="502" x2="405" y2="508"/>
    <line x1="502" y1="405" x2="508" y2="405"/>
  </g>
  <g stroke="gray" stroke-width="1" stroke-dasharray="5,5">
    <line x1="105" y1="5" x2="105" y2="505"/>
    <line x1="5" y1="105" x2="505" y2="105"/>
    <line x1="205" y1="5" x2="205" y2="505"/>
    <line x1="5" y1="205" x2="505" y2="205"/>
    <line x1="305" y1="5" x2="305" y2="505"/>
    <line x1="5" y1="305" x2="505" y2="305"/>
    <line x1="405" y1="5" x2="405" y2="505"/>
    <line x1="5" y1="405" x2="505" y2="405"/>
  </g>
</svg>
