<?xml version="1.0" standalone="no"?>
<!DOCTYPE svg PUBLIC "-//W3C//DTD SVG 1.1//EN" 
  "http://www.w3.org/Graphics/SVG/1.1/DTD/svg11.dtd">
<svg width="510" height="510" version="1.1" id="toplevel"
    xmlns="http://www.w3.org/2000/svg"
    xmlns:xlink="http://www.w3.org/1999/xlink">
  <polygon points="260,325 505,10 505,5 5,5 5,98 37,184" fill="bisque"/>
  <g stroke="chocolate" stroke-width="1">
    <line x1="260" y1="325" x2="283" y2="277"/>
    <circle cx="260" cy="325" r="2"/>
    <circle cx="283" cy="277" r="2"/>
  </g>
  <g stroke="chocolate" stroke-width="1">
    <line x1="260" y1="325" x2="505" y2="10"/>
    <circle cx="260" cy="325" r="2"/>
    <circle cx="505" cy="10" r="2"/>
  </g>
  <g stroke="chocolate" stroke-width="1">
    <line x1="222" y1="301" x2="261" y2="227"/>
    <circle cx="222" cy="301" r="2"/>
    <circle cx="261" cy="227" r="2"/>
  </g>
  <g stroke="chocolate" stroke-width="1">
    <line x1="222" y1="301" x2="245" y2="269"/>
    <circle cx="222" cy="301" r="2"/>
    <circle cx="245" cy="269" r="2"/>
  </g>
  <g stroke="chocolate" stroke-width="1">
    <line x1="133" y1="206" x2="143" y2="175"/>
    <circle cx="133" cy="206" r="2"/>
    <circle cx="143" cy="175" r="2"/>
  </g>
  <g stroke="chocolate" stroke-width="1">
    <line x1="101" y1="225" x2="102" y2="211"/>
    <circle cx="101" cy="225" r="2"/>
    <circle cx="102" cy="211" r="2"/>
  </g>
  <g stroke="chocolate" stroke-width="1">
    <line x1="263" y1="320" x2="264" y2="249"/>
    <circle cx="263" cy="320" r="2"/>
    <circle cx="264" cy="249" r="2"/>
  </g>
  <g stroke="chocolate" stroke-width="1">
    <line x1="92" y1="219" x2="103" y2="178"/>
    <circle cx="92" cy="219" r="2"/>
    <circle cx="103" cy="178" r="2"/>
  </g>
  <g stroke="chocolate" stroke-width="1">
    <line x1="5" y1="98" x2="5" y2="5"/>
    <circle cx="5" cy="98" r="2"/>
    <circle cx="5" cy="5" r="2"/>
  </g>
  <g stroke="chocolate" stroke-width="1">
    <line x1="505" y1="10" x2="505" y2="5"/>
    <circle cx="505" cy="10" r="2"/>
    <circle cx="505" cy="5" r="2"/>
  </g>
  <g stroke="chocolate" stroke-width="1">
    <line x1="37" y1="184" x2="5" y2="98"/>
    <circle cx="37" cy="184" r="2"/>
    <circle cx="5" cy="98" r="2"/>
  </g>
  <g stroke="chocolate" stroke-width="1">
    <line x1="256" y1="322" x2="245" y2="269"/>
    <circle cx="256" cy="322" r="2"/>
    <circle cx="245" cy="269" r="2"/>
  </g>
  <g stroke="chocolate" stroke-width="1">
    <line x1="133" y1="206" x2="160" y2="173"/>
    <circle cx="133" cy="206" r="2"/>
    <circle cx="160" cy="173" r="2"/>
  </g>
  <g stroke="chocolate" stroke-width="1">
    <line x1="39" y1="127" x2="46" y2="114"/>
    <circle cx="39" cy="127" r="2"/>
    <circle cx="46" cy="114" r="2"/>
  </g>
  <g stroke="chocolate" stroke-width="1">
    <line x1="282" y1="295" x2="261" y2="227"/>
    <circle cx="282" cy="295" r="2"/>
    <circle cx="261" cy="227" r="2"/>
  </g>
  <g stroke="chocolate" stroke-width="1">
    <line x1="137" y1="248" x2="103" y2="178"/>
    <circle cx="137" cy="248" r="2"/>
    <circle cx="103" cy="178" r="2"/>
  </g>
  <g stroke="chocolate" stroke-width="1">
    <line x1="256" y1="322" x2="263" y2="320"/>
    <circle cx="256" cy="322" r="2"/>
    <circle cx="263" cy="320" r="2"/>
  </g>
  <g stroke="chocolate" stroke-width="1">
    <line x1="92" y1="219" x2="102" y2="211"/>
    <circle cx="92" cy="219" r="2"/>
    <circle cx="102" cy="211" r="2"/>
  </g>
  <g stroke="chocolate" stroke-width="1">
    <line x1="207" y1="291" x2="143" y2="175"/>
    <circle cx="207" cy="291" r="2"/>
    <circle cx="143" cy="175" r="2"/>
  </g>
  <g stroke="chocolate" stroke-width="1">
    <line x1="131" y1="243" x2="39" y2="127"/>
    <circle cx="131" cy="243" r="2"/>
    <circle cx="39" cy="127" r="2"/>
  </g>
  <g stroke="chocolate" stroke-width="1">
    <line x1="101" y1="225" x2="133" y2="206"/>
    <circle cx="101" cy="225" r="2"/>
    <circle cx="133" cy="206" r="2"/>
  </g>
  <g stroke="chocolate" stroke-width="1">
    <line x1="102" y1="211" x2="5" y2="98"/>
    <circle cx="102" cy="211" r="2"/>
    <circle cx="5" cy="98" r="2"/>
  </g>
  <g stroke="chocolate" stroke-width="1">
    <line x1="282" y1="295" x2="207" y2="291"/>
    <circle cx="282" cy="295" r="2"/>
    <circle cx="207" cy="291" r="2"/>
  </g>
  <g stroke="chocolate" stroke-width="1">
    <line x1="260" y1="325" x2="37" y2="184"/>
    <circle cx="260" cy="325" r="2"/>
    <circle cx="37" cy="184" r="2"/>
  </g>
  <g stroke="chocolate" stroke-width="1">
    <line x1="264" y1="249" x2="137" y2="248"/>
    <circle cx="264" cy="249" r="2"/>
    <circle cx="137" cy="248" r="2"/>
  </g>
  <g stroke="chocolate" stroke-width="1">
    <line x1="283" y1="277" x2="160" y2="173"/>
    <circle cx="283" cy="277" r="2"/>
    <circle cx="160" cy="173" r="2"/>
  </g>
  <g stroke="chocolate" stroke-width="1">
    <line x1="283" y1="277" x2="131" y2="243"/>
    <circle cx="283" cy="277" r="2"/>
    <circle cx="131" cy="243" r="2"/>
  </g>
  <g stroke="chocolate" stroke-width="1">
    <line x1="37" y1="184" x2="160" y2="173"/>
    <circle cx="37" cy="184" r="2"/>
    <circle cx="160" cy="173" r="2"/>
  </g>
  <g stroke="chocolate" stroke-width="1">
    <line x1="261" y1="227" x2="46" y2="114"/>
    <circle cx="261" cy="227" r="2"/>
    <circle cx="46" cy="114" r="2"/>
  </g>
  <g stroke="chocolate" stroke-width="1">
    <line x1="39" y1="127" x2="505" y2="10"/>
    <circle cx="39" cy="127" r="2"/>
    <circle cx="505" cy="10" r="2"/>
  </g>
  <g stroke="chocolate" stroke-width="1">
    <line x1="5" y1="5" x2="505" y2="5"/>
    <circle cx="5" cy="5" r="2"/>
    <circle cx="505" cy="5" r="2"/>
  </g>
  <g stroke="black" stroke-width="1">
    <line x1="5" y1="5" x2="505" y2="5"/>
    <line x1="5" y1="5" x2="5" y2="505"/>
    <line x1="505" y1="505" x2="5" y2="505"/>
    <line x1="505" y1="505" x2="505" y2="5"/>
    <line x1="105" y1="2" x2="105" y2="8"/>
    <line x1="2" y1="105" x2="8" y2="105"/>
    <line x1="105" y1="502" x2="105" y2="508"/>
    <line x1="502" y1="105" x2="508" y2="105"/>
    <line x1="205" y1="2" x2="205" y2="8"/>
    <line x1="2" y1="205" x2="8" y2="205"/>
    <line x1="205" y1="502" x2="205" y2="508"/>
    <line x1="502" y1="205" x2="508" y2="205"/>
    <line x1="305" y1="2" x2="305" y2="8"/>
    <line x1="2" y1="305" x2="8" y2="305"/>
    <line x1="305" y1="502" x2="305" y2="508"/>
    <line x1="502" y1="305" x2="508" y2="305"/>
    <line x1="405" y1="2" x2="405" y2="8"/>
    <line x1="2" y1="405" x2="8" y2="405"/>
    <line x1="405" y1="502" x2="405" y2="508"/>
    <line x1="502" y1="405" x2="508" y2="405"/>
  </g>
  <g stroke="gray" stroke-width="1" stroke-dasharray="5,5">
    <line x1="105" y1="5" x2="105" y2="505"/>
    <line x1="5" y1="105" x2="505" y2="105"/>
    <line x1="205" y1="5" x2="205" y2="505"/>
    <line x1="5" y1="205" x2="505" y2="205"/>
    <line x1="305" y1="5" x2="305" y2="505"/>
    <line x1="5" y1="305" x2="505" y2="305"/>
    <line x1="405" y1="5" x2="405" y2="505"/>
    <line x1="5" y1="405" x2="505" y2="405"/>
  </g>
</svg>
