<?xml version="1.0" standalone="no"?>
<!DOCTYPE svg PUBLIC "-//W3C//DTD SVG 1.1//EN" 
  "http://www.w3.org/Graphics/SVG/1.1/DTD/svg11.dtd">
<svg width="510" height="510" version="1.1" id="toplevel"
    xmlns="http://www.w3.org/2000/svg"
    xmlns:xlink="http://www.w3.org/1999/xlink">
  <polygon points="473,430 483,411 398,274 468,185 334,80 142,103 96,312 130,338 164,295 218,282 222,269 292,411 434,411"
           fill="bisque"/>
  <g stroke="chocolate" stroke-width="1">
    <line x1="473" y1="430" x2="483" y2="411"/>
    <circle cx="473" cy="430" r="2"/>
    <circle cx="483" cy="411" r="2"/>
  </g>
  <g stroke="chocolate" stroke-width="1">
    <line x1="292" y1="411" x2="468" y2="185"/>
    <circle cx="292" cy="411" r="2"/>
    <circle cx="468" cy="185" r="2"/>
  </g>
  <g stroke="chocolate" stroke-width="1">
    <line x1="218" y1="282" x2="282" y2="86"/>
    <circle cx="218" cy="282" r="2"/>
    <circle cx="282" cy="86" r="2"/>
  </g>
  <g stroke="chocolate" stroke-width="1">
    <line x1="246" y1="318" x2="294" y2="84"/>
    <circle cx="246" cy="318" r="2"/>
    <circle cx="294" cy="84" r="2"/>
  </g>
  <g stroke="chocolate" stroke-width="1">
    <line x1="130" y1="338" x2="334" y2="80"/>
    <circle cx="130" cy="338" r="2"/>
    <circle cx="334" cy="80" r="2"/>
  </g>
  <g stroke="chocolate" stroke-width="1">
    <line x1="96" y1="312" x2="142" y2="103"/>
    <circle cx="96" cy="312" r="2"/>
    <circle cx="142" cy="103" r="2"/>
  </g>
  <g stroke="chocolate" stroke-width="1">
    <line x1="292" y1="411" x2="483" y2="411"/>
    <circle cx="292" cy="411" r="2"/>
    <circle cx="483" cy="411" r="2"/>
  </g>
  <g stroke="chocolate" stroke-width="1">
    <line x1="96" y1="312" x2="218" y2="282"/>
    <circle cx="96" cy="312" r="2"/>
    <circle cx="218" cy="282" r="2"/>
  </g>
  <g stroke="chocolate" stroke-width="1">
    <line x1="130" y1="338" x2="96" y2="312"/>
    <circle cx="130" cy="338" r="2"/>
    <circle cx="96" cy="312" r="2"/>
  </g>
  <g stroke="chocolate" stroke-width="1">
    <line x1="292" y1="411" x2="142" y2="103"/>
    <circle cx="292" cy="411" r="2"/>
    <circle cx="142" cy="103" r="2"/>
  </g>
  <g stroke="chocolate" stroke-width="1">
    <line x1="126" y1="173" x2="298" y2="92"/>
    <circle cx="126" cy="173" r="2"/>
    <circle cx="298" cy="92" r="2"/>
  </g>
  <g stroke="chocolate" stroke-width="1">
    <line x1="218" y1="282" x2="126" y2="173"/>
    <circle cx="218" cy="282" r="2"/>
    <circle cx="126" cy="173" r="2"/>
  </g>
  <g stroke="chocolate" stroke-width="1">
    <line x1="473" y1="430" x2="246" y2="318"/>
    <circle cx="473" cy="430" r="2"/>
    <circle cx="246" cy="318" r="2"/>
  </g>
  <g stroke="chocolate" stroke-width="1">
    <line x1="298" y1="92" x2="294" y2="84"/>
    <circle cx="298" cy="92" r="2"/>
    <circle cx="294" cy="84" r="2"/>
  </g>
  <g stroke="chocolate" stroke-width="1">
    <line x1="483" y1="411" x2="282" y2="86"/>
    <circle cx="483" cy="411" r="2"/>
    <circle cx="282" cy="86" r="2"/>
  </g>
  <g stroke="chocolate" stroke-width="1">
    <line x1="142" y1="103" x2="334" y2="80"/>
    <circle cx="142" cy="103" r="2"/>
    <circle cx="334" cy="80" r="2"/>
  </g>
  <g stroke="chocolate" stroke-width="1">
    <line x1="468" y1="185" x2="334" y2="80"/>
    <circle cx="468" cy="185" r="2"/>
    <circle cx="334" cy="80" r="2"/>
  </g>
  <g stroke="black" stroke-width="1">
    <line x1="5" y1="5" x2="505" y2="5"/>
    <line x1="5" y1="5" x2="5" y2="505"/>
    <line x1="505" y1="505" x2="5" y2="505"/>
    <line x1="505" y1="505" x2="505" y2="5"/>
    <line x1="105" y1="2" x2="105" y2="8"/>
    <line x1="2" y1="105" x2="8" y2="105"/>
    <line x1="105" y1="502" x2="105" y2="508"/>
    <line x1="502" y1="105" x2="508" y2="105"/>
    <line x1="205" y1="2" x2="205" y2="8"/>
    <line x1="2" y1="205" x2="8" y2="205"/>
    <line x1="205" y1="502" x2="205" y2="508"/>
    <line x1="502" y1="205" x2="508" y2="205"/>
    <line x1="305" y1="2" x2="305" y2="8"/>
    <line x1="2" y1="305" x2="8" y2="305"/>
    <line x1="305" y1="502" x2="305" y2="508"/>
    <line x1="502" y1="305" x2="508" y2="305"/>
    <line x1="405" y1="2" x2="405" y2="8"/>
    <line x1="2" y1="405" x2="8" y2="405"/>
    <line x1="405" y1="502" x2="405" y2="508"/>
    <line x1="502" y1="405" x2="508" y2="405"/>
  </g>
  <g stroke="gray" stroke-width="1" stroke-dasharray="5,5">
    <line x1="105" y1="5" x2="105" y2="505"/>
    <line x1="5" y1="105" x2="505" y2="105"/>
    <line x1="205" y1="5" x2="205" y2="505"/>
    <line x1="5" y1="205" x2="505" y2="205"/>
    <line x1="305" y1="5" x2="305" y2="505"/>
    <line x1="5" y1="305" x2="505" y2="305"/>
    <line x1="405" y1="5" x2="405" y2="505"/>
    <line x1="5" y1="405" x2="505" y2="405"/>
  </g>
</svg>
