<?xml version="1.0" standalone="no"?>
<!DOCTYPE svg PUBLIC "-//W3C//DTD SVG 1.1//EN" 
  "http://www.w3.org/Graphics/SVG/1.1/DTD/svg11.dtd">
<svg width="510" height="510" version="1.1" id="toplevel"
    xmlns="http://www.w3.org/2000/svg"
    xmlns:xlink="http://www.w3.org/1999/xlink">
  <polygon points="235,354 310,315 304,291 282,281 362,156 235,184 231,176 152,220 138,214 124,235"
           fill="bisque"/>
  <g stroke="chocolate" stroke-width="1">
    <line x1="235" y1="354" x2="310" y2="315"/>
    <circle cx="235" cy="354" r="2"/>
    <circle cx="310" cy="315" r="2"/>
  </g>
  <g stroke="chocolate" stroke-width="1">
    <line x1="216" y1="334" x2="304" y2="291"/>
    <circle cx="216" cy="334" r="2"/>
    <circle cx="304" cy="291" r="2"/>
  </g>
  <g stroke="chocolate" stroke-width="1">
    <line x1="255" y1="315" x2="310" y2="315"/>
    <circle cx="255" cy="315" r="2"/>
    <circle cx="310" cy="315" r="2"/>
  </g>
  <g stroke="chocolate" stroke-width="1">
    <line x1="173" y1="288" x2="295" y2="261"/>
    <circle cx="173" cy="288" r="2"/>
    <circle cx="295" cy="261" r="2"/>
  </g>
  <g stroke="chocolate" stroke-width="1">
    <line x1="199" y1="315" x2="255" y2="268"/>
    <circle cx="199" cy="315" r="2"/>
    <circle cx="255" cy="268" r="2"/>
  </g>
  <g stroke="chocolate" stroke-width="1">
    <line x1="163" y1="277" x2="258" y2="225"/>
    <circle cx="163" cy="277" r="2"/>
    <circle cx="258" cy="225" r="2"/>
  </g>
  <g stroke="chocolate" stroke-width="1">
    <line x1="199" y1="315" x2="268" y2="244"/>
    <circle cx="199" cy="315" r="2"/>
    <circle cx="268" cy="244" r="2"/>
  </g>
  <g stroke="chocolate" stroke-width="1">
    <line x1="148" y1="260" x2="247" y2="205"/>
    <circle cx="148" cy="260" r="2"/>
    <circle cx="247" cy="205" r="2"/>
  </g>
  <g stroke="chocolate" stroke-width="1">
    <line x1="137" y1="248" x2="189" y2="237"/>
    <circle cx="137" cy="248" r="2"/>
    <circle cx="189" cy="237" r="2"/>
  </g>
  <g stroke="chocolate" stroke-width="1">
    <line x1="235" y1="354" x2="362" y2="156"/>
    <circle cx="235" cy="354" r="2"/>
    <circle cx="362" cy="156" r="2"/>
  </g>
  <g stroke="chocolate" stroke-width="1">
    <line x1="124" y1="235" x2="231" y2="176"/>
    <circle cx="124" cy="235" r="2"/>
    <circle cx="231" cy="176" r="2"/>
  </g>
  <g stroke="chocolate" stroke-width="1">
    <line x1="142" y1="254" x2="163" y2="236"/>
    <circle cx="142" cy="254" r="2"/>
    <circle cx="163" cy="236" r="2"/>
  </g>
  <g stroke="chocolate" stroke-width="1">
    <line x1="142" y1="254" x2="206" y2="190"/>
    <circle cx="142" cy="254" r="2"/>
    <circle cx="206" cy="190" r="2"/>
  </g>
  <g stroke="chocolate" stroke-width="1">
    <line x1="206" y1="190" x2="362" y2="156"/>
    <circle cx="206" cy="190" r="2"/>
    <circle cx="362" cy="156" r="2"/>
  </g>
  <g stroke="chocolate" stroke-width="1">
    <line x1="216" y1="334" x2="268" y2="244"/>
    <circle cx="216" cy="334" r="2"/>
    <circle cx="268" cy="244" r="2"/>
  </g>
  <g stroke="chocolate" stroke-width="1">
    <line x1="163" y1="277" x2="189" y2="237"/>
    <circle cx="163" cy="277" r="2"/>
    <circle cx="189" cy="237" r="2"/>
  </g>
  <g stroke="chocolate" stroke-width="1">
    <line x1="148" y1="260" x2="163" y2="236"/>
    <circle cx="148" cy="260" r="2"/>
    <circle cx="163" cy="236" r="2"/>
  </g>
  <g stroke="chocolate" stroke-width="1">
    <line x1="189" y1="237" x2="144" y2="224"/>
    <circle cx="189" cy="237" r="2"/>
    <circle cx="144" cy="224" r="2"/>
  </g>
  <g stroke="chocolate" stroke-width="1">
    <line x1="124" y1="235" x2="138" y2="214"/>
    <circle cx="124" cy="235" r="2"/>
    <circle cx="138" cy="214" r="2"/>
  </g>
  <g stroke="chocolate" stroke-width="1">
    <line x1="268" y1="244" x2="238" y2="235"/>
    <circle cx="268" cy="244" r="2"/>
    <circle cx="238" cy="235" r="2"/>
  </g>
  <g stroke="chocolate" stroke-width="1">
    <line x1="238" y1="235" x2="247" y2="205"/>
    <circle cx="238" cy="235" r="2"/>
    <circle cx="247" cy="205" r="2"/>
  </g>
  <g stroke="chocolate" stroke-width="1">
    <line x1="304" y1="291" x2="138" y2="214"/>
    <circle cx="304" cy="291" r="2"/>
    <circle cx="138" cy="214" r="2"/>
  </g>
  <g stroke="chocolate" stroke-width="1">
    <line x1="173" y1="288" x2="189" y2="237"/>
    <circle cx="173" cy="288" r="2"/>
    <circle cx="189" cy="237" r="2"/>
  </g>
  <g stroke="chocolate" stroke-width="1">
    <line x1="247" y1="205" x2="202" y2="192"/>
    <circle cx="247" cy="205" r="2"/>
    <circle cx="202" cy="192" r="2"/>
  </g>
  <g stroke="chocolate" stroke-width="1">
    <line x1="189" y1="237" x2="202" y2="192"/>
    <circle cx="189" cy="237" r="2"/>
    <circle cx="202" cy="192" r="2"/>
  </g>
  <g stroke="chocolate" stroke-width="1">
    <line x1="137" y1="248" x2="144" y2="224"/>
    <circle cx="137" cy="248" r="2"/>
    <circle cx="144" cy="224" r="2"/>
  </g>
  <g stroke="chocolate" stroke-width="1">
    <line x1="235" y1="354" x2="124" y2="235"/>
    <circle cx="235" cy="354" r="2"/>
    <circle cx="124" cy="235" r="2"/>
  </g>
  <g stroke="chocolate" stroke-width="1">
    <line x1="163" y1="236" x2="138" y2="214"/>
    <circle cx="163" cy="236" r="2"/>
    <circle cx="138" cy="214" r="2"/>
  </g>
  <g stroke="chocolate" stroke-width="1">
    <line x1="255" y1="315" x2="255" y2="268"/>
    <circle cx="255" cy="315" r="2"/>
    <circle cx="255" cy="268" r="2"/>
  </g>
  <g stroke="chocolate" stroke-width="1">
    <line x1="295" y1="261" x2="275" y2="175"/>
    <circle cx="295" cy="261" r="2"/>
    <circle cx="275" cy="175" r="2"/>
  </g>
  <g stroke="chocolate" stroke-width="1">
    <line x1="310" y1="315" x2="304" y2="291"/>
    <circle cx="310" cy="315" r="2"/>
    <circle cx="304" cy="291" r="2"/>
  </g>
  <g stroke="chocolate" stroke-width="1">
    <line x1="238" y1="235" x2="212" y2="187"/>
    <circle cx="238" cy="235" r="2"/>
    <circle cx="212" cy="187" r="2"/>
  </g>
  <g stroke="chocolate" stroke-width="1">
    <line x1="268" y1="244" x2="231" y2="176"/>
    <circle cx="268" cy="244" r="2"/>
    <circle cx="231" cy="176" r="2"/>
  </g>
  <g stroke="black" stroke-width="1">
    <line x1="5" y1="5" x2="505" y2="5"/>
    <line x1="5" y1="5" x2="5" y2="505"/>
    <line x1="505" y1="505" x2="5" y2="505"/>
    <line x1="505" y1="505" x2="505" y2="5"/>
    <line x1="105" y1="2" x2="105" y2="8"/>
    <line x1="2" y1="105" x2="8" y2="105"/>
    <line x1="105" y1="502" x2="105" y2="508"/>
    <line x1="502" y1="105" x2="508" y2="105"/>
    <line x1="205" y1="2" x2="205" y2="8"/>
    <line x1="2" y1="205" x2="8" y2="205"/>
    <line x1="205" y1="502" x2="205" y2="508"/>
    <line x1="502" y1="205" x2="508" y2="205"/>
    <line x1="305" y1="2" x2="305" y2="8"/>
    <line x1="2" y1="305" x2="8" y2="305"/>
    <line x1="305" y1="502" x2="305" y2="508"/>
    <line x1="502" y1="305" x2="508" y2="305"/>
    <line x1="405" y1="2" x2="405" y2="8"/>
    <line x1="2" y1="405" x2="8" y2="405"/>
    <line x1="405" y1="502" x2="405" y2="508"/>
    <line x1="502" y1="405" x2="508" y2="405"/>
  </g>
  <g stroke="gray" stroke-width="1" stroke-dasharray="5,5">
    <line x1="105" y1="5" x2="105" y2="505"/>
    <line x1="5" y1="105" x2="505" y2="105"/>
    <line x1="205" y1="5" x2="205" y2="505"/>
    <line x1="5" y1="205" x2="505" y2="205"/>
    <line x1="305" y1="5" x2="305" y2="505"/>
    <line x1="5" y1="305" x2="505" y2="305"/>
    <line x1="405" y1="5" x2="405" y2="505"/>
    <line x1="5" y1="405" x2="505" y2="405"/>
  </g>
</svg>
