<?xml version="1.0" standalone="no"?>
<!DOCTYPE svg PUBLIC "-//W3C//DTD SVG 1.1//EN" 
  "http://www.w3.org/Graphics/SVG/1.1/DTD/svg11.dtd">
<svg width="510" height="510" version="1.1" id="toplevel"
    xmlns="http://www.w3.org/2000/svg"
    xmlns:xlink="http://www.w3.org/1999/xlink">
  <polygon points="244,503 245,500 262,438 295,414 285,350 312,249 265,220 265,219 262,218 233,199 198,207 205,478"
           fill="bisque"/>
  <g stroke="chocolate" stroke-width="1">
    <line x1="206" y1="477" x2="205" y2="476"/>
    <circle cx="206" cy="477" r="2"/>
    <circle cx="205" cy="476" r="2"/>
  </g>
  <g stroke="chocolate" stroke-width="1">
    <line x1="244" y1="503" x2="205" y2="478"/>
    <circle cx="244" cy="503" r="2"/>
    <circle cx="205" cy="478" r="2"/>
  </g>
  <g stroke="chocolate" stroke-width="1">
    <line x1="244" y1="369" x2="199" y2="252"/>
    <circle cx="244" cy="369" r="2"/>
    <circle cx="199" cy="252" r="2"/>
  </g>
  <g stroke="chocolate" stroke-width="1">
    <line x1="245" y1="500" x2="233" y2="253"/>
    <circle cx="245" cy="500" r="2"/>
    <circle cx="233" cy="253" r="2"/>
  </g>
  <g stroke="chocolate" stroke-width="1">
    <line x1="295" y1="414" x2="265" y2="219"/>
    <circle cx="295" cy="414" r="2"/>
    <circle cx="265" cy="219" r="2"/>
  </g>
  <g stroke="chocolate" stroke-width="1">
    <line x1="259" y1="451" x2="249" y2="253"/>
    <circle cx="259" cy="451" r="2"/>
    <circle cx="249" cy="253" r="2"/>
  </g>
  <g stroke="chocolate" stroke-width="1">
    <line x1="205" y1="478" x2="198" y2="207"/>
    <circle cx="205" cy="478" r="2"/>
    <circle cx="198" cy="207" r="2"/>
  </g>
  <g stroke="chocolate" stroke-width="1">
    <line x1="285" y1="351" x2="280" y2="251"/>
    <circle cx="285" cy="351" r="2"/>
    <circle cx="280" cy="251" r="2"/>
  </g>
  <g stroke="chocolate" stroke-width="1">
    <line x1="236" y1="303" x2="199" y2="252"/>
    <circle cx="236" cy="303" r="2"/>
    <circle cx="199" cy="252" r="2"/>
  </g>
  <g stroke="chocolate" stroke-width="1">
    <line x1="245" y1="500" x2="312" y2="249"/>
    <circle cx="245" cy="500" r="2"/>
    <circle cx="312" cy="249" r="2"/>
  </g>
  <g stroke="chocolate" stroke-width="1">
    <line x1="244" y1="503" x2="245" y2="500"/>
    <circle cx="244" cy="503" r="2"/>
    <circle cx="245" cy="500" r="2"/>
  </g>
  <g stroke="chocolate" stroke-width="1">
    <line x1="231" y1="494" x2="259" y2="451"/>
    <circle cx="231" cy="494" r="2"/>
    <circle cx="259" cy="451" r="2"/>
  </g>
  <g stroke="chocolate" stroke-width="1">
    <line x1="205" y1="476" x2="285" y2="351"/>
    <circle cx="205" cy="476" r="2"/>
    <circle cx="285" cy="351" r="2"/>
  </g>
  <g stroke="chocolate" stroke-width="1">
    <line x1="295" y1="414" x2="203" y2="385"/>
    <circle cx="295" cy="414" r="2"/>
    <circle cx="203" cy="385" r="2"/>
  </g>
  <g stroke="chocolate" stroke-width="1">
    <line x1="205" y1="478" x2="295" y2="414"/>
    <circle cx="205" cy="478" r="2"/>
    <circle cx="295" cy="414" r="2"/>
  </g>
  <g stroke="chocolate" stroke-width="1">
    <line x1="199" y1="252" x2="233" y2="199"/>
    <circle cx="199" cy="252" r="2"/>
    <circle cx="233" cy="199" r="2"/>
  </g>
  <g stroke="chocolate" stroke-width="1">
    <line x1="203" y1="385" x2="244" y2="369"/>
    <circle cx="203" cy="385" r="2"/>
    <circle cx="244" cy="369" r="2"/>
  </g>
  <g stroke="chocolate" stroke-width="1">
    <line x1="312" y1="249" x2="233" y2="199"/>
    <circle cx="312" cy="249" r="2"/>
    <circle cx="233" cy="199" r="2"/>
  </g>
  <g stroke="chocolate" stroke-width="1">
    <line x1="236" y1="303" x2="274" y2="276"/>
    <circle cx="236" cy="303" r="2"/>
    <circle cx="274" cy="276" r="2"/>
  </g>
  <g stroke="chocolate" stroke-width="1">
    <line x1="274" y1="276" x2="199" y2="252"/>
    <circle cx="274" cy="276" r="2"/>
    <circle cx="199" cy="252" r="2"/>
  </g>
  <g stroke="chocolate" stroke-width="1">
    <line x1="233" y1="253" x2="312" y2="249"/>
    <circle cx="233" cy="253" r="2"/>
    <circle cx="312" cy="249" r="2"/>
  </g>
  <g stroke="chocolate" stroke-width="1">
    <line x1="199" y1="252" x2="265" y2="219"/>
    <circle cx="199" cy="252" r="2"/>
    <circle cx="265" cy="219" r="2"/>
  </g>
  <g stroke="chocolate" stroke-width="1">
    <line x1="265" y1="219" x2="198" y2="207"/>
    <circle cx="265" cy="219" r="2"/>
    <circle cx="198" cy="207" r="2"/>
  </g>
  <g stroke="chocolate" stroke-width="1">
    <line x1="198" y1="207" x2="233" y2="199"/>
    <circle cx="198" cy="207" r="2"/>
    <circle cx="233" cy="199" r="2"/>
  </g>
  <g stroke="black" stroke-width="1">
    <line x1="5" y1="5" x2="505" y2="5"/>
    <line x1="5" y1="5" x2="5" y2="505"/>
    <line x1="505" y1="505" x2="5" y2="505"/>
    <line x1="505" y1="505" x2="505" y2="5"/>
    <line x1="105" y1="2" x2="105" y2="8"/>
    <line x1="2" y1="105" x2="8" y2="105"/>
    <line x1="105" y1="502" x2="105" y2="508"/>
    <line x1="502" y1="105" x2="508" y2="105"/>
    <line x1="205" y1="2" x2="205" y2="8"/>
    <line x1="2" y1="205" x2="8" y2="205"/>
    <line x1="205" y1="502" x2="205" y2="508"/>
    <line x1="502" y1="205" x2="508" y2="205"/>
    <line x1="305" y1="2" x2="305" y2="8"/>
    <line x1="2" y1="305" x2="8" y2="305"/>
    <line x1="305" y1="502" x2="305" y2="508"/>
    <line x1="502" y1="305" x2="508" y2="305"/>
    <line x1="405" y1="2" x2="405" y2="8"/>
    <line x1="2" y1="405" x2="8" y2="405"/>
    <line x1="405" y1="502" x2="405" y2="508"/>
    <line x1="502" y1="405" x2="508" y2="405"/>
  </g>
  <g stroke="gray" stroke-width="1" stroke-dasharray="5,5">
    <line x1="105" y1="5" x2="105" y2="505"/>
    <line x1="5" y1="105" x2="505" y2="105"/>
    <line x1="205" y1="5" x2="205" y2="505"/>
    <line x1="5" y1="205" x2="505" y2="205"/>
    <line x1="305" y1="5" x2="305" y2="505"/>
    <line x1="5" y1="305" x2="505" y2="305"/>
    <line x1="405" y1="5" x2="405" y2="505"/>
    <line x1="5" y1="405" x2="505" y2="405"/>
  </g>
</svg>
