<?xml version="1.0" standalone="no"?>
<!DOCTYPE svg PUBLIC "-//W3C//DTD SVG 1.1//EN" 
  "http://www.w3.org/Graphics/SVG/1.1/DTD/svg11.dtd">
<svg width="510" height="510" version="1.1" id="toplevel"
    xmlns="http://www.w3.org/2000/svg"
    xmlns:xlink="http://www.w3.org/1999/xlink">
  <polygon points="302,442 349,442 393,413 454,321 454,271 319,68 302,68 302,108 229,283 302,313"
           fill="bisque"/>
  <g stroke="chocolate" stroke-width="1">
    <line x1="349" y1="442" x2="393" y2="413"/>
    <circle cx="349" cy="442" r="2"/>
    <circle cx="393" cy="413" r="2"/>
  </g>
  <g stroke="chocolate" stroke-width="1">
    <line x1="393" y1="413" x2="454" y2="321"/>
    <circle cx="393" cy="413" r="2"/>
    <circle cx="454" cy="321" r="2"/>
  </g>
  <g stroke="chocolate" stroke-width="1">
    <line x1="407" y1="341" x2="454" y2="271"/>
    <circle cx="407" cy="341" r="2"/>
    <circle cx="454" cy="271" r="2"/>
  </g>
  <g stroke="chocolate" stroke-width="1">
    <line x1="349" y1="442" x2="427" y2="255"/>
    <circle cx="349" cy="442" r="2"/>
    <circle cx="427" cy="255" r="2"/>
  </g>
  <g stroke="chocolate" stroke-width="1">
    <line x1="406" y1="346" x2="450" y2="327"/>
    <circle cx="406" cy="346" r="2"/>
    <circle cx="450" cy="327" r="2"/>
  </g>
  <g stroke="chocolate" stroke-width="1">
    <line x1="407" y1="341" x2="454" y2="321"/>
    <circle cx="407" cy="341" r="2"/>
    <circle cx="454" cy="321" r="2"/>
  </g>
  <g stroke="chocolate" stroke-width="1">
    <line x1="393" y1="413" x2="407" y2="341"/>
    <circle cx="393" cy="413" r="2"/>
    <circle cx="407" cy="341" r="2"/>
  </g>
  <g stroke="chocolate" stroke-width="1">
    <line x1="229" y1="283" x2="319" y2="68"/>
    <circle cx="229" cy="283" r="2"/>
    <circle cx="319" cy="68" r="2"/>
  </g>
  <g stroke="chocolate" stroke-width="1">
    <line x1="302" y1="442" x2="349" y2="442"/>
    <circle cx="302" cy="442" r="2"/>
    <circle cx="349" cy="442" r="2"/>
  </g>
  <g stroke="chocolate" stroke-width="1">
    <line x1="302" y1="442" x2="302" y2="68"/>
    <circle cx="302" cy="442" r="2"/>
    <circle cx="302" cy="68" r="2"/>
  </g>
  <g stroke="chocolate" stroke-width="1">
    <line x1="450" y1="327" x2="450" y2="265"/>
    <circle cx="450" cy="327" r="2"/>
    <circle cx="450" cy="265" r="2"/>
  </g>
  <g stroke="chocolate" stroke-width="1">
    <line x1="454" y1="321" x2="454" y2="271"/>
    <circle cx="454" cy="321" r="2"/>
    <circle cx="454" cy="271" r="2"/>
  </g>
  <g stroke="chocolate" stroke-width="1">
    <line x1="419" y1="349" x2="436" y2="349"/>
    <circle cx="419" cy="349" r="2"/>
    <circle cx="436" cy="349" r="2"/>
  </g>
  <g stroke="chocolate" stroke-width="1">
    <line x1="302" y1="318" x2="454" y2="318"/>
    <circle cx="302" cy="318" r="2"/>
    <circle cx="454" cy="318" r="2"/>
  </g>
  <g stroke="chocolate" stroke-width="1">
    <line x1="419" y1="349" x2="415" y2="338"/>
    <circle cx="419" cy="349" r="2"/>
    <circle cx="415" cy="338" r="2"/>
  </g>
  <g stroke="chocolate" stroke-width="1">
    <line x1="436" y1="349" x2="423" y2="318"/>
    <circle cx="436" cy="349" r="2"/>
    <circle cx="423" cy="318" r="2"/>
  </g>
  <g stroke="chocolate" stroke-width="1">
    <line x1="426" y1="364" x2="229" y2="283"/>
    <circle cx="426" cy="364" r="2"/>
    <circle cx="229" cy="283" r="2"/>
  </g>
  <g stroke="chocolate" stroke-width="1">
    <line x1="431" y1="357" x2="407" y2="341"/>
    <circle cx="431" cy="357" r="2"/>
    <circle cx="407" cy="341" r="2"/>
  </g>
  <g stroke="chocolate" stroke-width="1">
    <line x1="426" y1="364" x2="406" y2="346"/>
    <circle cx="426" cy="364" r="2"/>
    <circle cx="406" cy="346" r="2"/>
  </g>
  <g stroke="chocolate" stroke-width="1">
    <line x1="454" y1="271" x2="319" y2="68"/>
    <circle cx="454" cy="271" r="2"/>
    <circle cx="319" cy="68" r="2"/>
  </g>
  <g stroke="chocolate" stroke-width="1">
    <line x1="450" y1="265" x2="427" y2="255"/>
    <circle cx="450" cy="265" r="2"/>
    <circle cx="427" cy="255" r="2"/>
  </g>
  <g stroke="chocolate" stroke-width="1">
    <line x1="302" y1="68" x2="319" y2="68"/>
    <circle cx="302" cy="68" r="2"/>
    <circle cx="319" cy="68" r="2"/>
  </g>
  <g stroke="black" stroke-width="1">
    <line x1="5" y1="5" x2="505" y2="5"/>
    <line x1="5" y1="5" x2="5" y2="505"/>
    <line x1="505" y1="505" x2="5" y2="505"/>
    <line x1="505" y1="505" x2="505" y2="5"/>
    <line x1="105" y1="2" x2="105" y2="8"/>
    <line x1="2" y1="105" x2="8" y2="105"/>
    <line x1="105" y1="502" x2="105" y2="508"/>
    <line x1="502" y1="105" x2="508" y2="105"/>
    <line x1="205" y1="2" x2="205" y2="8"/>
    <line x1="2" y1="205" x2="8" y2="205"/>
    <line x1="205" y1="502" x2="205" y2="508"/>
    <line x1="502" y1="205" x2="508" y2="205"/>
    <line x1="305" y1="2" x2="305" y2="8"/>
    <line x1="2" y1="305" x2="8" y2="305"/>
    <line x1="305" y1="502" x2="305" y2="508"/>
    <line x1="502" y1="305" x2="508" y2="305"/>
    <line x1="405" y1="2" x2="405" y2="8"/>
    <line x1="2" y1="405" x2="8" y2="405"/>
    <line x1="405" y1="502" x2="405" y2="508"/>
    <line x1="502" y1="405" x2="508" y2="405"/>
  </g>
  <g stroke="gray" stroke-width="1" stroke-dasharray="5,5">
    <line x1="105" y1="5" x2="105" y2="505"/>
    <line x1="5" y1="105" x2="505" y2="105"/>
    <line x1="205" y1="5" x2="205" y2="505"/>
    <line x1="5" y1="205" x2="505" y2="205"/>
    <line x1="305" y1="5" x2="305" y2="505"/>
    <line x1="5" y1="305" x2="505" y2="305"/>
    <line x1="405" y1="5" x2="405" y2="505"/>
    <line x1="5" y1="405" x2="505" y2="405"/>
  </g>
</svg>
