<?xml version="1.0" standalone="no"?>
<!DOCTYPE svg PUBLIC "-//W3C//DTD SVG 1.1//EN" 
  "http://www.w3.org/Graphics/SVG/1.1/DTD/svg11.dtd">
<svg width="510" height="510" version="1.1" id="toplevel"
    xmlns="http://www.w3.org/2000/svg"
    xmlns:xlink="http://www.w3.org/1999/xlink">
  <polygon points="179,505 279,505 279,317 298,321 297,327 297,327 297,332 297,332 296,337 296,337 296,342 296,342 295,347 330,355 330,353 331,345 332,345 332,340 333,340 333,335 334,335 334,330 335,330 347,247 257,157 230,178 227,195 163,274"
           fill="bisque"/>
  <g stroke="chocolate" stroke-width="1">
    <line x1="330" y1="355" x2="330" y2="353"/>
    <circle cx="330" cy="355" r="2"/>
    <circle cx="330" cy="353" r="2"/>
  </g>
  <g stroke="chocolate" stroke-width="1">
    <line x1="163" y1="274" x2="257" y2="157"/>
    <circle cx="163" cy="274" r="2"/>
    <circle cx="257" cy="157" r="2"/>
  </g>
  <g stroke="chocolate" stroke-width="1">
    <line x1="203" y1="300" x2="230" y2="178"/>
    <circle cx="203" cy="300" r="2"/>
    <circle cx="230" cy="178" r="2"/>
  </g>
  <g stroke="chocolate" stroke-width="1">
    <line x1="335" y1="330" x2="347" y2="247"/>
    <circle cx="335" cy="330" r="2"/>
    <circle cx="347" cy="247" r="2"/>
  </g>
  <g stroke="chocolate" stroke-width="1">
    <line x1="334" y1="335" x2="347" y2="246"/>
    <circle cx="334" cy="335" r="2"/>
    <circle cx="347" cy="246" r="2"/>
  </g>
  <g stroke="chocolate" stroke-width="1">
    <line x1="333" y1="340" x2="347" y2="246"/>
    <circle cx="333" cy="340" r="2"/>
    <circle cx="347" cy="246" r="2"/>
  </g>
  <g stroke="chocolate" stroke-width="1">
    <line x1="332" y1="345" x2="347" y2="246"/>
    <circle cx="332" cy="345" r="2"/>
    <circle cx="347" cy="246" r="2"/>
  </g>
  <g stroke="chocolate" stroke-width="1">
    <line x1="330" y1="353" x2="346" y2="246"/>
    <circle cx="330" cy="353" r="2"/>
    <circle cx="346" cy="246" r="2"/>
  </g>
  <g stroke="chocolate" stroke-width="1">
    <line x1="295" y1="347" x2="315" y2="215"/>
    <circle cx="295" cy="347" r="2"/>
    <circle cx="315" cy="215" r="2"/>
  </g>
  <g stroke="chocolate" stroke-width="1">
    <line x1="296" y1="342" x2="315" y2="214"/>
    <circle cx="296" cy="342" r="2"/>
    <circle cx="315" cy="214" r="2"/>
  </g>
  <g stroke="chocolate" stroke-width="1">
    <line x1="296" y1="337" x2="315" y2="214"/>
    <circle cx="296" cy="337" r="2"/>
    <circle cx="315" cy="214" r="2"/>
  </g>
  <g stroke="chocolate" stroke-width="1">
    <line x1="297" y1="332" x2="315" y2="214"/>
    <circle cx="297" cy="332" r="2"/>
    <circle cx="315" cy="214" r="2"/>
  </g>
  <g stroke="chocolate" stroke-width="1">
    <line x1="297" y1="327" x2="314" y2="214"/>
    <circle cx="297" cy="327" r="2"/>
    <circle cx="314" cy="214" r="2"/>
  </g>
  <g stroke="chocolate" stroke-width="1">
    <line x1="179" y1="505" x2="216" y2="500"/>
    <circle cx="179" cy="505" r="2"/>
    <circle cx="216" cy="500" r="2"/>
  </g>
  <g stroke="chocolate" stroke-width="1">
    <line x1="179" y1="500" x2="216" y2="494"/>
    <circle cx="179" cy="500" r="2"/>
    <circle cx="216" cy="494" r="2"/>
  </g>
  <g stroke="chocolate" stroke-width="1">
    <line x1="179" y1="494" x2="215" y2="489"/>
    <circle cx="179" cy="494" r="2"/>
    <circle cx="215" cy="489" r="2"/>
  </g>
  <g stroke="chocolate" stroke-width="1">
    <line x1="330" y1="353" x2="339" y2="239"/>
    <circle cx="330" cy="353" r="2"/>
    <circle cx="339" cy="239" r="2"/>
  </g>
  <g stroke="chocolate" stroke-width="1">
    <line x1="179" y1="489" x2="215" y2="484"/>
    <circle cx="179" cy="489" r="2"/>
    <circle cx="215" cy="484" r="2"/>
  </g>
  <g stroke="chocolate" stroke-width="1">
    <line x1="179" y1="484" x2="214" y2="479"/>
    <circle cx="179" cy="484" r="2"/>
    <circle cx="214" cy="479" r="2"/>
  </g>
  <g stroke="chocolate" stroke-width="1">
    <line x1="178" y1="479" x2="213" y2="474"/>
    <circle cx="178" cy="479" r="2"/>
    <circle cx="213" cy="474" r="2"/>
  </g>
  <g stroke="chocolate" stroke-width="1">
    <line x1="230" y1="178" x2="257" y2="157"/>
    <circle cx="230" cy="178" r="2"/>
    <circle cx="257" cy="157" r="2"/>
  </g>
  <g stroke="chocolate" stroke-width="1">
    <line x1="179" y1="505" x2="279" y2="505"/>
    <circle cx="179" cy="505" r="2"/>
    <circle cx="279" cy="505" r="2"/>
  </g>
  <g stroke="chocolate" stroke-width="1">
    <line x1="279" y1="505" x2="279" y2="178"/>
    <circle cx="279" cy="505" r="2"/>
    <circle cx="279" cy="178" r="2"/>
  </g>
  <g stroke="chocolate" stroke-width="1">
    <line x1="179" y1="500" x2="216" y2="500"/>
    <circle cx="179" cy="500" r="2"/>
    <circle cx="216" cy="500" r="2"/>
  </g>
  <g stroke="chocolate" stroke-width="1">
    <line x1="179" y1="494" x2="216" y2="494"/>
    <circle cx="179" cy="494" r="2"/>
    <circle cx="216" cy="494" r="2"/>
  </g>
  <g stroke="chocolate" stroke-width="1">
    <line x1="179" y1="489" x2="215" y2="489"/>
    <circle cx="179" cy="489" r="2"/>
    <circle cx="215" cy="489" r="2"/>
  </g>
  <g stroke="chocolate" stroke-width="1">
    <line x1="179" y1="484" x2="215" y2="484"/>
    <circle cx="179" cy="484" r="2"/>
    <circle cx="215" cy="484" r="2"/>
  </g>
  <g stroke="chocolate" stroke-width="1">
    <line x1="178" y1="479" x2="214" y2="479"/>
    <circle cx="178" cy="479" r="2"/>
    <circle cx="214" cy="479" r="2"/>
  </g>
  <g stroke="chocolate" stroke-width="1">
    <line x1="179" y1="505" x2="163" y2="274"/>
    <circle cx="179" cy="505" r="2"/>
    <circle cx="163" cy="274" r="2"/>
  </g>
  <g stroke="chocolate" stroke-width="1">
    <line x1="179" y1="500" x2="163" y2="274"/>
    <circle cx="179" cy="500" r="2"/>
    <circle cx="163" cy="274" r="2"/>
  </g>
  <g stroke="chocolate" stroke-width="1">
    <line x1="179" y1="494" x2="163" y2="274"/>
    <circle cx="179" cy="494" r="2"/>
    <circle cx="163" cy="274" r="2"/>
  </g>
  <g stroke="chocolate" stroke-width="1">
    <line x1="179" y1="489" x2="163" y2="274"/>
    <circle cx="179" cy="489" r="2"/>
    <circle cx="163" cy="274" r="2"/>
  </g>
  <g stroke="chocolate" stroke-width="1">
    <line x1="179" y1="484" x2="164" y2="274"/>
    <circle cx="179" cy="484" r="2"/>
    <circle cx="164" cy="274" r="2"/>
  </g>
  <g stroke="chocolate" stroke-width="1">
    <line x1="214" y1="479" x2="197" y2="232"/>
    <circle cx="214" cy="479" r="2"/>
    <circle cx="197" cy="232" r="2"/>
  </g>
  <g stroke="chocolate" stroke-width="1">
    <line x1="215" y1="484" x2="197" y2="232"/>
    <circle cx="215" cy="484" r="2"/>
    <circle cx="197" cy="232" r="2"/>
  </g>
  <g stroke="chocolate" stroke-width="1">
    <line x1="215" y1="489" x2="197" y2="232"/>
    <circle cx="215" cy="489" r="2"/>
    <circle cx="197" cy="232" r="2"/>
  </g>
  <g stroke="chocolate" stroke-width="1">
    <line x1="216" y1="494" x2="197" y2="232"/>
    <circle cx="216" cy="494" r="2"/>
    <circle cx="197" cy="232" r="2"/>
  </g>
  <g stroke="chocolate" stroke-width="1">
    <line x1="216" y1="500" x2="197" y2="232"/>
    <circle cx="216" cy="500" r="2"/>
    <circle cx="197" cy="232" r="2"/>
  </g>
  <g stroke="chocolate" stroke-width="1">
    <line x1="213" y1="474" x2="181" y2="251"/>
    <circle cx="213" cy="474" r="2"/>
    <circle cx="181" cy="251" r="2"/>
  </g>
  <g stroke="chocolate" stroke-width="1">
    <line x1="163" y1="274" x2="347" y2="247"/>
    <circle cx="163" cy="274" r="2"/>
    <circle cx="347" cy="247" r="2"/>
  </g>
  <g stroke="chocolate" stroke-width="1">
    <line x1="163" y1="274" x2="347" y2="246"/>
    <circle cx="163" cy="274" r="2"/>
    <circle cx="347" cy="246" r="2"/>
  </g>
  <g stroke="chocolate" stroke-width="1">
    <line x1="163" y1="274" x2="347" y2="246"/>
    <circle cx="163" cy="274" r="2"/>
    <circle cx="347" cy="246" r="2"/>
  </g>
  <g stroke="chocolate" stroke-width="1">
    <line x1="163" y1="274" x2="347" y2="246"/>
    <circle cx="163" cy="274" r="2"/>
    <circle cx="347" cy="246" r="2"/>
  </g>
  <g stroke="chocolate" stroke-width="1">
    <line x1="164" y1="274" x2="346" y2="246"/>
    <circle cx="164" cy="274" r="2"/>
    <circle cx="346" cy="246" r="2"/>
  </g>
  <g stroke="chocolate" stroke-width="1">
    <line x1="331" y1="350" x2="295" y2="347"/>
    <circle cx="331" cy="350" r="2"/>
    <circle cx="295" cy="347" r="2"/>
  </g>
  <g stroke="chocolate" stroke-width="1">
    <line x1="332" y1="345" x2="296" y2="342"/>
    <circle cx="332" cy="345" r="2"/>
    <circle cx="296" cy="342" r="2"/>
  </g>
  <g stroke="chocolate" stroke-width="1">
    <line x1="197" y1="232" x2="315" y2="215"/>
    <circle cx="197" cy="232" r="2"/>
    <circle cx="315" cy="215" r="2"/>
  </g>
  <g stroke="chocolate" stroke-width="1">
    <line x1="197" y1="232" x2="315" y2="214"/>
    <circle cx="197" cy="232" r="2"/>
    <circle cx="315" cy="214" r="2"/>
  </g>
  <g stroke="chocolate" stroke-width="1">
    <line x1="197" y1="232" x2="315" y2="214"/>
    <circle cx="197" cy="232" r="2"/>
    <circle cx="315" cy="214" r="2"/>
  </g>
  <g stroke="chocolate" stroke-width="1">
    <line x1="197" y1="232" x2="315" y2="214"/>
    <circle cx="197" cy="232" r="2"/>
    <circle cx="315" cy="214" r="2"/>
  </g>
  <g stroke="chocolate" stroke-width="1">
    <line x1="197" y1="232" x2="314" y2="214"/>
    <circle cx="197" cy="232" r="2"/>
    <circle cx="314" cy="214" r="2"/>
  </g>
  <g stroke="chocolate" stroke-width="1">
    <line x1="333" y1="340" x2="296" y2="337"/>
    <circle cx="333" cy="340" r="2"/>
    <circle cx="296" cy="337" r="2"/>
  </g>
  <g stroke="chocolate" stroke-width="1">
    <line x1="334" y1="335" x2="297" y2="332"/>
    <circle cx="334" cy="335" r="2"/>
    <circle cx="297" cy="332" r="2"/>
  </g>
  <g stroke="chocolate" stroke-width="1">
    <line x1="335" y1="330" x2="297" y2="327"/>
    <circle cx="335" cy="330" r="2"/>
    <circle cx="297" cy="327" r="2"/>
  </g>
  <g stroke="chocolate" stroke-width="1">
    <line x1="181" y1="251" x2="339" y2="239"/>
    <circle cx="181" cy="251" r="2"/>
    <circle cx="339" cy="239" r="2"/>
  </g>
  <g stroke="chocolate" stroke-width="1">
    <line x1="330" y1="355" x2="295" y2="347"/>
    <circle cx="330" cy="355" r="2"/>
    <circle cx="295" cy="347" r="2"/>
  </g>
  <g stroke="chocolate" stroke-width="1">
    <line x1="331" y1="350" x2="296" y2="342"/>
    <circle cx="331" cy="350" r="2"/>
    <circle cx="296" cy="342" r="2"/>
  </g>
  <g stroke="chocolate" stroke-width="1">
    <line x1="332" y1="345" x2="296" y2="337"/>
    <circle cx="332" cy="345" r="2"/>
    <circle cx="296" cy="337" r="2"/>
  </g>
  <g stroke="chocolate" stroke-width="1">
    <line x1="333" y1="340" x2="297" y2="332"/>
    <circle cx="333" cy="340" r="2"/>
    <circle cx="297" cy="332" r="2"/>
  </g>
  <g stroke="chocolate" stroke-width="1">
    <line x1="334" y1="335" x2="297" y2="327"/>
    <circle cx="334" cy="335" r="2"/>
    <circle cx="297" cy="327" r="2"/>
  </g>
  <g stroke="chocolate" stroke-width="1">
    <line x1="335" y1="330" x2="203" y2="300"/>
    <circle cx="335" cy="330" r="2"/>
    <circle cx="203" cy="300" r="2"/>
  </g>
  <g stroke="chocolate" stroke-width="1">
    <line x1="230" y1="178" x2="279" y2="178"/>
    <circle cx="230" cy="178" r="2"/>
    <circle cx="279" cy="178" r="2"/>
  </g>
  <g stroke="chocolate" stroke-width="1">
    <line x1="347" y1="247" x2="257" y2="157"/>
    <circle cx="347" cy="247" r="2"/>
    <circle cx="257" cy="157" r="2"/>
  </g>
  <g stroke="black" stroke-width="1">
    <line x1="5" y1="5" x2="505" y2="5"/>
    <line x1="5" y1="5" x2="5" y2="505"/>
    <line x1="505" y1="505" x2="5" y2="505"/>
    <line x1="505" y1="505" x2="505" y2="5"/>
    <line x1="105" y1="2" x2="105" y2="8"/>
    <line x1="2" y1="105" x2="8" y2="105"/>
    <line x1="105" y1="502" x2="105" y2="508"/>
    <line x1="502" y1="105" x2="508" y2="105"/>
    <line x1="205" y1="2" x2="205" y2="8"/>
    <line x1="2" y1="205" x2="8" y2="205"/>
    <line x1="205" y1="502" x2="205" y2="508"/>
    <line x1="502" y1="205" x2="508" y2="205"/>
    <line x1="305" y1="2" x2="305" y2="8"/>
    <line x1="2" y1="305" x2="8" y2="305"/>
    <line x1="305" y1="502" x2="305" y2="508"/>
    <line x1="502" y1="305" x2="508" y2="305"/>
    <line x1="405" y1="2" x2="405" y2="8"/>
    <line x1="2" y1="405" x2="8" y2="405"/>
    <line x1="405" y1="502" x2="405" y2="508"/>
    <line x1="502" y1="405" x2="508" y2="405"/>
  </g>
  <g stroke="gray" stroke-width="1" stroke-dasharray="5,5">
    <line x1="105" y1="5" x2="105" y2="505"/>
    <line x1="5" y1="105" x2="505" y2="105"/>
    <line x1="205" y1="5" x2="205" y2="505"/>
    <line x1="5" y1="205" x2="505" y2="205"/>
    <line x1="305" y1="5" x2="305" y2="505"/>
    <line x1="5" y1="305" x2="505" y2="305"/>
    <line x1="405" y1="5" x2="405" y2="505"/>
    <line x1="5" y1="405" x2="505" y2="405"/>
  </g>
</svg>
