<?xml version="1.0" standalone="no"?>
<!DOCTYPE svg PUBLIC "-//W3C//DTD SVG 1.1//EN" 
  "http://www.w3.org/Graphics/SVG/1.1/DTD/svg11.dtd">
<svg width="570" height="570" version="1.1" id="toplevel"
    xmlns="http://www.w3.org/2000/svg"
    xmlns:xlink="http://www.w3.org/1999/xlink">
  <polygon points="474,565 478,563 476,558 476,558 475,558 462,522 456,464 420,446 526,206 68,5 44,58 238,353"
           fill="bisque"/>
  <g stroke="chocolate" stroke-width="1">
    <line x1="474" y1="565" x2="478" y2="563"/>
    <circle cx="474" cy="565" r="2"/>
    <circle cx="478" cy="563" r="2"/>
  </g>
  <g stroke="chocolate" stroke-width="1">
    <line x1="398" y1="497" x2="526" y2="206"/>
    <circle cx="398" cy="497" r="2"/>
    <circle cx="526" cy="206" r="2"/>
  </g>
  <g stroke="chocolate" stroke-width="1">
    <line x1="398" y1="497" x2="456" y2="464"/>
    <circle cx="398" cy="497" r="2"/>
    <circle cx="456" cy="464" r="2"/>
  </g>
  <g stroke="chocolate" stroke-width="1">
    <line x1="474" y1="565" x2="476" y2="558"/>
    <circle cx="474" cy="565" r="2"/>
    <circle cx="476" cy="558" r="2"/>
  </g>
  <g stroke="chocolate" stroke-width="1">
    <line x1="371" y1="473" x2="422" y2="162"/>
    <circle cx="371" cy="473" r="2"/>
    <circle cx="422" cy="162" r="2"/>
  </g>
  <g stroke="chocolate" stroke-width="1">
    <line x1="371" y1="473" x2="437" y2="454"/>
    <circle cx="371" cy="473" r="2"/>
    <circle cx="437" cy="454" r="2"/>
  </g>
  <g stroke="chocolate" stroke-width="1">
    <line x1="466" y1="558" x2="476" y2="558"/>
    <circle cx="466" cy="558" r="2"/>
    <circle cx="476" cy="558" r="2"/>
  </g>
  <g stroke="chocolate" stroke-width="1">
    <line x1="75" y1="104" x2="87" y2="58"/>
    <circle cx="75" cy="104" r="2"/>
    <circle cx="87" cy="58" r="2"/>
  </g>
  <g stroke="chocolate" stroke-width="1">
    <line x1="466" y1="558" x2="456" y2="464"/>
    <circle cx="466" cy="558" r="2"/>
    <circle cx="456" cy="464" r="2"/>
  </g>
  <g stroke="chocolate" stroke-width="1">
    <line x1="44" y1="58" x2="68" y2="5"/>
    <circle cx="44" cy="58" r="2"/>
    <circle cx="68" cy="5" r="2"/>
  </g>
  <g stroke="chocolate" stroke-width="1">
    <line x1="478" y1="563" x2="437" y2="454"/>
    <circle cx="478" cy="563" r="2"/>
    <circle cx="437" cy="454" r="2"/>
  </g>
  <g stroke="chocolate" stroke-width="1">
    <line x1="238" y1="353" x2="44" y2="58"/>
    <circle cx="238" cy="353" r="2"/>
    <circle cx="44" cy="58" r="2"/>
  </g>
  <g stroke="chocolate" stroke-width="1">
    <line x1="476" y1="558" x2="87" y2="58"/>
    <circle cx="476" cy="558" r="2"/>
    <circle cx="87" cy="58" r="2"/>
  </g>
  <g stroke="chocolate" stroke-width="1">
    <line x1="474" y1="565" x2="238" y2="353"/>
    <circle cx="474" cy="565" r="2"/>
    <circle cx="238" cy="353" r="2"/>
  </g>
  <g stroke="chocolate" stroke-width="1">
    <line x1="456" y1="464" x2="238" y2="353"/>
    <circle cx="456" cy="464" r="2"/>
    <circle cx="238" cy="353" r="2"/>
  </g>
  <g stroke="chocolate" stroke-width="1">
    <line x1="422" y1="162" x2="75" y2="104"/>
    <circle cx="422" cy="162" r="2"/>
    <circle cx="75" cy="104" r="2"/>
  </g>
  <g stroke="chocolate" stroke-width="1">
    <line x1="526" y1="206" x2="68" y2="5"/>
    <circle cx="526" cy="206" r="2"/>
    <circle cx="68" cy="5" r="2"/>
  </g>
  <g stroke="chocolate" stroke-width="1">
    <line x1="44" y1="58" x2="87" y2="58"/>
    <circle cx="44" cy="58" r="2"/>
    <circle cx="87" cy="58" r="2"/>
  </g>
  <g stroke="black" stroke-width="1">
    <line x1="35" y1="35" x2="535" y2="35"/>
    <line x1="35" y1="35" x2="35" y2="535"/>
    <line x1="535" y1="535" x2="35" y2="535"/>
    <line x1="535" y1="535" x2="535" y2="35"/>
    <line x1="135" y1="32" x2="135" y2="38"/>
    <line x1="32" y1="135" x2="38" y2="135"/>
    <line x1="135" y1="532" x2="135" y2="538"/>
    <line x1="532" y1="135" x2="538" y2="135"/>
    <line x1="235" y1="32" x2="235" y2="38"/>
    <line x1="32" y1="235" x2="38" y2="235"/>
    <line x1="235" y1="532" x2="235" y2="538"/>
    <line x1="532" y1="235" x2="538" y2="235"/>
    <line x1="335" y1="32" x2="335" y2="38"/>
    <line x1="32" y1="335" x2="38" y2="335"/>
    <line x1="335" y1="532" x2="335" y2="538"/>
    <line x1="532" y1="335" x2="538" y2="335"/>
    <line x1="435" y1="32" x2="435" y2="38"/>
    <line x1="32" y1="435" x2="38" y2="435"/>
    <line x1="435" y1="532" x2="435" y2="538"/>
    <line x1="532" y1="435" x2="538" y2="435"/>
  </g>
  <g stroke="gray" stroke-width="1" stroke-dasharray="5,5">
    <line x1="135" y1="35" x2="135" y2="535"/>
    <line x1="35" y1="135" x2="535" y2="135"/>
    <line x1="235" y1="35" x2="235" y2="535"/>
    <line x1="35" y1="235" x2="535" y2="235"/>
    <line x1="335" y1="35" x2="335" y2="535"/>
    <line x1="35" y1="335" x2="535" y2="335"/>
    <line x1="435" y1="35" x2="435" y2="535"/>
    <line x1="35" y1="435" x2="535" y2="435"/>
  </g>
</svg>
