<?xml version="1.0" standalone="no"?>
<!DOCTYPE svg PUBLIC "-//W3C//DTD SVG 1.1//EN" 
  "http://www.w3.org/Graphics/SVG/1.1/DTD/svg11.dtd">
<svg width="510" height="510" version="1.1" id="toplevel"
    xmlns="http://www.w3.org/2000/svg"
    xmlns:xlink="http://www.w3.org/1999/xlink">
  <polygon points="184,505 283,505 283,330 292,332 292,337 292,337 291,342 291,342 290,347 290,347 290,353 290,353 289,358 324,365 325,363 326,355 326,355 327,350 327,350 328,345 328,345 329,340 329,340 343,248 257,162 225,188 220,209 167,274"
           fill="bisque"/>
  <g stroke="chocolate" stroke-width="1">
    <line x1="324" y1="365" x2="325" y2="363"/>
    <circle cx="324" cy="365" r="2"/>
    <circle cx="325" cy="363" r="2"/>
  </g>
  <g stroke="chocolate" stroke-width="1">
    <line x1="167" y1="274" x2="257" y2="162"/>
    <circle cx="167" cy="274" r="2"/>
    <circle cx="257" cy="162" r="2"/>
  </g>
  <g stroke="chocolate" stroke-width="1">
    <line x1="197" y1="310" x2="225" y2="188"/>
    <circle cx="197" cy="310" r="2"/>
    <circle cx="225" cy="188" r="2"/>
  </g>
  <g stroke="chocolate" stroke-width="1">
    <line x1="329" y1="340" x2="343" y2="248"/>
    <circle cx="329" cy="340" r="2"/>
    <circle cx="343" cy="248" r="2"/>
  </g>
  <g stroke="chocolate" stroke-width="1">
    <line x1="328" y1="345" x2="342" y2="248"/>
    <circle cx="328" cy="345" r="2"/>
    <circle cx="342" cy="248" r="2"/>
  </g>
  <g stroke="chocolate" stroke-width="1">
    <line x1="327" y1="350" x2="342" y2="248"/>
    <circle cx="327" cy="350" r="2"/>
    <circle cx="342" cy="248" r="2"/>
  </g>
  <g stroke="chocolate" stroke-width="1">
    <line x1="326" y1="355" x2="342" y2="248"/>
    <circle cx="326" cy="355" r="2"/>
    <circle cx="342" cy="248" r="2"/>
  </g>
  <g stroke="chocolate" stroke-width="1">
    <line x1="325" y1="363" x2="342" y2="247"/>
    <circle cx="325" cy="363" r="2"/>
    <circle cx="342" cy="247" r="2"/>
  </g>
  <g stroke="chocolate" stroke-width="1">
    <line x1="289" y1="358" x2="311" y2="216"/>
    <circle cx="289" cy="358" r="2"/>
    <circle cx="311" cy="216" r="2"/>
  </g>
  <g stroke="chocolate" stroke-width="1">
    <line x1="290" y1="353" x2="310" y2="216"/>
    <circle cx="290" cy="353" r="2"/>
    <circle cx="310" cy="216" r="2"/>
  </g>
  <g stroke="chocolate" stroke-width="1">
    <line x1="290" y1="347" x2="310" y2="216"/>
    <circle cx="290" cy="347" r="2"/>
    <circle cx="310" cy="216" r="2"/>
  </g>
  <g stroke="chocolate" stroke-width="1">
    <line x1="291" y1="342" x2="310" y2="215"/>
    <circle cx="291" cy="342" r="2"/>
    <circle cx="310" cy="215" r="2"/>
  </g>
  <g stroke="chocolate" stroke-width="1">
    <line x1="292" y1="337" x2="310" y2="215"/>
    <circle cx="292" cy="337" r="2"/>
    <circle cx="310" cy="215" r="2"/>
  </g>
  <g stroke="chocolate" stroke-width="1">
    <line x1="184" y1="505" x2="221" y2="500"/>
    <circle cx="184" cy="505" r="2"/>
    <circle cx="221" cy="500" r="2"/>
  </g>
  <g stroke="chocolate" stroke-width="1">
    <line x1="184" y1="500" x2="220" y2="494"/>
    <circle cx="184" cy="500" r="2"/>
    <circle cx="220" cy="494" r="2"/>
  </g>
  <g stroke="chocolate" stroke-width="1">
    <line x1="183" y1="494" x2="220" y2="489"/>
    <circle cx="183" cy="494" r="2"/>
    <circle cx="220" cy="489" r="2"/>
  </g>
  <g stroke="chocolate" stroke-width="1">
    <line x1="325" y1="363" x2="334" y2="240"/>
    <circle cx="325" cy="363" r="2"/>
    <circle cx="334" cy="240" r="2"/>
  </g>
  <g stroke="chocolate" stroke-width="1">
    <line x1="183" y1="489" x2="219" y2="484"/>
    <circle cx="183" cy="489" r="2"/>
    <circle cx="219" cy="484" r="2"/>
  </g>
  <g stroke="chocolate" stroke-width="1">
    <line x1="183" y1="484" x2="219" y2="479"/>
    <circle cx="183" cy="484" r="2"/>
    <circle cx="219" cy="479" r="2"/>
  </g>
  <g stroke="chocolate" stroke-width="1">
    <line x1="183" y1="479" x2="218" y2="474"/>
    <circle cx="183" cy="479" r="2"/>
    <circle cx="218" cy="474" r="2"/>
  </g>
  <g stroke="chocolate" stroke-width="1">
    <line x1="225" y1="188" x2="257" y2="162"/>
    <circle cx="225" cy="188" r="2"/>
    <circle cx="257" cy="162" r="2"/>
  </g>
  <g stroke="chocolate" stroke-width="1">
    <line x1="184" y1="505" x2="283" y2="505"/>
    <circle cx="184" cy="505" r="2"/>
    <circle cx="283" cy="505" r="2"/>
  </g>
  <g stroke="chocolate" stroke-width="1">
    <line x1="283" y1="505" x2="283" y2="188"/>
    <circle cx="283" cy="505" r="2"/>
    <circle cx="283" cy="188" r="2"/>
  </g>
  <g stroke="chocolate" stroke-width="1">
    <line x1="184" y1="500" x2="221" y2="500"/>
    <circle cx="184" cy="500" r="2"/>
    <circle cx="221" cy="500" r="2"/>
  </g>
  <g stroke="chocolate" stroke-width="1">
    <line x1="183" y1="494" x2="220" y2="494"/>
    <circle cx="183" cy="494" r="2"/>
    <circle cx="220" cy="494" r="2"/>
  </g>
  <g stroke="chocolate" stroke-width="1">
    <line x1="183" y1="489" x2="220" y2="489"/>
    <circle cx="183" cy="489" r="2"/>
    <circle cx="220" cy="489" r="2"/>
  </g>
  <g stroke="chocolate" stroke-width="1">
    <line x1="183" y1="484" x2="219" y2="484"/>
    <circle cx="183" cy="484" r="2"/>
    <circle cx="219" cy="484" r="2"/>
  </g>
  <g stroke="chocolate" stroke-width="1">
    <line x1="183" y1="479" x2="219" y2="479"/>
    <circle cx="183" cy="479" r="2"/>
    <circle cx="219" cy="479" r="2"/>
  </g>
  <g stroke="chocolate" stroke-width="1">
    <line x1="184" y1="505" x2="167" y2="274"/>
    <circle cx="184" cy="505" r="2"/>
    <circle cx="167" cy="274" r="2"/>
  </g>
  <g stroke="chocolate" stroke-width="1">
    <line x1="184" y1="500" x2="168" y2="274"/>
    <circle cx="184" cy="500" r="2"/>
    <circle cx="168" cy="274" r="2"/>
  </g>
  <g stroke="chocolate" stroke-width="1">
    <line x1="183" y1="494" x2="168" y2="274"/>
    <circle cx="183" cy="494" r="2"/>
    <circle cx="168" cy="274" r="2"/>
  </g>
  <g stroke="chocolate" stroke-width="1">
    <line x1="183" y1="489" x2="168" y2="274"/>
    <circle cx="183" cy="489" r="2"/>
    <circle cx="168" cy="274" r="2"/>
  </g>
  <g stroke="chocolate" stroke-width="1">
    <line x1="183" y1="484" x2="168" y2="274"/>
    <circle cx="183" cy="484" r="2"/>
    <circle cx="168" cy="274" r="2"/>
  </g>
  <g stroke="chocolate" stroke-width="1">
    <line x1="219" y1="479" x2="201" y2="232"/>
    <circle cx="219" cy="479" r="2"/>
    <circle cx="201" cy="232" r="2"/>
  </g>
  <g stroke="chocolate" stroke-width="1">
    <line x1="219" y1="484" x2="201" y2="232"/>
    <circle cx="219" cy="484" r="2"/>
    <circle cx="201" cy="232" r="2"/>
  </g>
  <g stroke="chocolate" stroke-width="1">
    <line x1="220" y1="489" x2="201" y2="232"/>
    <circle cx="220" cy="489" r="2"/>
    <circle cx="201" cy="232" r="2"/>
  </g>
  <g stroke="chocolate" stroke-width="1">
    <line x1="220" y1="494" x2="201" y2="232"/>
    <circle cx="220" cy="494" r="2"/>
    <circle cx="201" cy="232" r="2"/>
  </g>
  <g stroke="chocolate" stroke-width="1">
    <line x1="221" y1="500" x2="202" y2="232"/>
    <circle cx="221" cy="500" r="2"/>
    <circle cx="202" cy="232" r="2"/>
  </g>
  <g stroke="chocolate" stroke-width="1">
    <line x1="218" y1="474" x2="186" y2="251"/>
    <circle cx="218" cy="474" r="2"/>
    <circle cx="186" cy="251" r="2"/>
  </g>
  <g stroke="chocolate" stroke-width="1">
    <line x1="167" y1="274" x2="343" y2="248"/>
    <circle cx="167" cy="274" r="2"/>
    <circle cx="343" cy="248" r="2"/>
  </g>
  <g stroke="chocolate" stroke-width="1">
    <line x1="168" y1="274" x2="342" y2="248"/>
    <circle cx="168" cy="274" r="2"/>
    <circle cx="342" cy="248" r="2"/>
  </g>
  <g stroke="chocolate" stroke-width="1">
    <line x1="168" y1="274" x2="342" y2="248"/>
    <circle cx="168" cy="274" r="2"/>
    <circle cx="342" cy="248" r="2"/>
  </g>
  <g stroke="chocolate" stroke-width="1">
    <line x1="168" y1="274" x2="342" y2="248"/>
    <circle cx="168" cy="274" r="2"/>
    <circle cx="342" cy="248" r="2"/>
  </g>
  <g stroke="chocolate" stroke-width="1">
    <line x1="168" y1="274" x2="342" y2="247"/>
    <circle cx="168" cy="274" r="2"/>
    <circle cx="342" cy="247" r="2"/>
  </g>
  <g stroke="chocolate" stroke-width="1">
    <line x1="325" y1="360" x2="289" y2="358"/>
    <circle cx="325" cy="360" r="2"/>
    <circle cx="289" cy="358" r="2"/>
  </g>
  <g stroke="chocolate" stroke-width="1">
    <line x1="326" y1="355" x2="290" y2="353"/>
    <circle cx="326" cy="355" r="2"/>
    <circle cx="290" cy="353" r="2"/>
  </g>
  <g stroke="chocolate" stroke-width="1">
    <line x1="327" y1="350" x2="290" y2="347"/>
    <circle cx="327" cy="350" r="2"/>
    <circle cx="290" cy="347" r="2"/>
  </g>
  <g stroke="chocolate" stroke-width="1">
    <line x1="328" y1="345" x2="291" y2="342"/>
    <circle cx="328" cy="345" r="2"/>
    <circle cx="291" cy="342" r="2"/>
  </g>
  <g stroke="chocolate" stroke-width="1">
    <line x1="201" y1="232" x2="311" y2="216"/>
    <circle cx="201" cy="232" r="2"/>
    <circle cx="311" cy="216" r="2"/>
  </g>
  <g stroke="chocolate" stroke-width="1">
    <line x1="201" y1="232" x2="310" y2="216"/>
    <circle cx="201" cy="232" r="2"/>
    <circle cx="310" cy="216" r="2"/>
  </g>
  <g stroke="chocolate" stroke-width="1">
    <line x1="201" y1="232" x2="310" y2="216"/>
    <circle cx="201" cy="232" r="2"/>
    <circle cx="310" cy="216" r="2"/>
  </g>
  <g stroke="chocolate" stroke-width="1">
    <line x1="201" y1="232" x2="310" y2="215"/>
    <circle cx="201" cy="232" r="2"/>
    <circle cx="310" cy="215" r="2"/>
  </g>
  <g stroke="chocolate" stroke-width="1">
    <line x1="202" y1="232" x2="310" y2="215"/>
    <circle cx="202" cy="232" r="2"/>
    <circle cx="310" cy="215" r="2"/>
  </g>
  <g stroke="chocolate" stroke-width="1">
    <line x1="329" y1="340" x2="292" y2="337"/>
    <circle cx="329" cy="340" r="2"/>
    <circle cx="292" cy="337" r="2"/>
  </g>
  <g stroke="chocolate" stroke-width="1">
    <line x1="186" y1="251" x2="334" y2="240"/>
    <circle cx="186" cy="251" r="2"/>
    <circle cx="334" cy="240" r="2"/>
  </g>
  <g stroke="chocolate" stroke-width="1">
    <line x1="324" y1="365" x2="289" y2="358"/>
    <circle cx="324" cy="365" r="2"/>
    <circle cx="289" cy="358" r="2"/>
  </g>
  <g stroke="chocolate" stroke-width="1">
    <line x1="325" y1="360" x2="290" y2="353"/>
    <circle cx="325" cy="360" r="2"/>
    <circle cx="290" cy="353" r="2"/>
  </g>
  <g stroke="chocolate" stroke-width="1">
    <line x1="326" y1="355" x2="290" y2="347"/>
    <circle cx="326" cy="355" r="2"/>
    <circle cx="290" cy="347" r="2"/>
  </g>
  <g stroke="chocolate" stroke-width="1">
    <line x1="327" y1="350" x2="291" y2="342"/>
    <circle cx="327" cy="350" r="2"/>
    <circle cx="291" cy="342" r="2"/>
  </g>
  <g stroke="chocolate" stroke-width="1">
    <line x1="328" y1="345" x2="292" y2="337"/>
    <circle cx="328" cy="345" r="2"/>
    <circle cx="292" cy="337" r="2"/>
  </g>
  <g stroke="chocolate" stroke-width="1">
    <line x1="329" y1="340" x2="197" y2="310"/>
    <circle cx="329" cy="340" r="2"/>
    <circle cx="197" cy="310" r="2"/>
  </g>
  <g stroke="chocolate" stroke-width="1">
    <line x1="225" y1="188" x2="283" y2="188"/>
    <circle cx="225" cy="188" r="2"/>
    <circle cx="283" cy="188" r="2"/>
  </g>
  <g stroke="chocolate" stroke-width="1">
    <line x1="343" y1="248" x2="257" y2="162"/>
    <circle cx="343" cy="248" r="2"/>
    <circle cx="257" cy="162" r="2"/>
  </g>
  <g stroke="black" stroke-width="1">
    <line x1="5" y1="5" x2="505" y2="5"/>
    <line x1="5" y1="5" x2="5" y2="505"/>
    <line x1="505" y1="505" x2="5" y2="505"/>
    <line x1="505" y1="505" x2="505" y2="5"/>
    <line x1="105" y1="2" x2="105" y2="8"/>
    <line x1="2" y1="105" x2="8" y2="105"/>
    <line x1="105" y1="502" x2="105" y2="508"/>
    <line x1="502" y1="105" x2="508" y2="105"/>
    <line x1="205" y1="2" x2="205" y2="8"/>
    <line x1="2" y1="205" x2="8" y2="205"/>
    <line x1="205" y1="502" x2="205" y2="508"/>
    <line x1="502" y1="205" x2="508" y2="205"/>
    <line x1="305" y1="2" x2="305" y2="8"/>
    <line x1="2" y1="305" x2="8" y2="305"/>
    <line x1="305" y1="502" x2="305" y2="508"/>
    <line x1="502" y1="305" x2="508" y2="305"/>
    <line x1="405" y1="2" x2="405" y2="8"/>
    <line x1="2" y1="405" x2="8" y2="405"/>
    <line x1="405" y1="502" x2="405" y2="508"/>
    <line x1="502" y1="405" x2="508" y2="405"/>
  </g>
  <g stroke="gray" stroke-width="1" stroke-dasharray="5,5">
    <line x1="105" y1="5" x2="105" y2="505"/>
    <line x1="5" y1="105" x2="505" y2="105"/>
    <line x1="205" y1="5" x2="205" y2="505"/>
    <line x1="5" y1="205" x2="505" y2="205"/>
    <line x1="305" y1="5" x2="305" y2="505"/>
    <line x1="5" y1="305" x2="505" y2="305"/>
    <line x1="405" y1="5" x2="405" y2="505"/>
    <line x1="5" y1="405" x2="505" y2="405"/>
  </g>
</svg>
