<?xml version="1.0" standalone="no"?>
<!DOCTYPE svg PUBLIC "-//W3C//DTD SVG 1.1//EN" 
  "http://www.w3.org/Graphics/SVG/1.1/DTD/svg11.dtd">
<svg width="510" height="510" version="1.1" id="toplevel"
    xmlns="http://www.w3.org/2000/svg"
    xmlns:xlink="http://www.w3.org/1999/xlink">
  <polygon points="135,470 382,432 375,383 276,398 261,299 212,306 227,405 128,420"
           fill="bisque"/>
  <g stroke="chocolate" stroke-width="1">
    <line x1="234" y1="455" x2="276" y2="398"/>
    <circle cx="234" cy="455" r="2"/>
    <circle cx="276" cy="398" r="2"/>
  </g>
  <g stroke="chocolate" stroke-width="1">
    <line x1="135" y1="470" x2="382" y2="432"/>
    <circle cx="135" cy="470" r="2"/>
    <circle cx="382" cy="432" r="2"/>
  </g>
  <g stroke="chocolate" stroke-width="1">
    <line x1="128" y1="420" x2="375" y2="383"/>
    <circle cx="128" cy="420" r="2"/>
    <circle cx="375" cy="383" r="2"/>
  </g>
  <g stroke="chocolate" stroke-width="1">
    <line x1="212" y1="306" x2="261" y2="299"/>
    <circle cx="212" cy="306" r="2"/>
    <circle cx="261" cy="299" r="2"/>
  </g>
  <g stroke="chocolate" stroke-width="1">
    <line x1="135" y1="470" x2="128" y2="420"/>
    <circle cx="135" cy="470" r="2"/>
    <circle cx="128" cy="420" r="2"/>
  </g>
  <g stroke="chocolate" stroke-width="1">
    <line x1="234" y1="455" x2="212" y2="306"/>
    <circle cx="234" cy="455" r="2"/>
    <circle cx="212" cy="306" r="2"/>
  </g>
  <g stroke="chocolate" stroke-width="1">
    <line x1="276" y1="398" x2="261" y2="299"/>
    <circle cx="276" cy="398" r="2"/>
    <circle cx="261" cy="299" r="2"/>
  </g>
  <g stroke="chocolate" stroke-width="1">
    <line x1="382" y1="432" x2="375" y2="383"/>
    <circle cx="382" cy="432" r="2"/>
    <circle cx="375" cy="383" r="2"/>
  </g>
  <g stroke="black" stroke-width="1">
    <line x1="5" y1="5" x2="505" y2="5"/>
    <line x1="5" y1="5" x2="5" y2="505"/>
    <line x1="505" y1="505" x2="5" y2="505"/>
    <line x1="505" y1="505" x2="505" y2="5"/>
    <line x1="105" y1="2" x2="105" y2="8"/>
    <line x1="2" y1="105" x2="8" y2="105"/>
    <line x1="105" y1="502" x2="105" y2="508"/>
    <line x1="502" y1="105" x2="508" y2="105"/>
    <line x1="205" y1="2" x2="205" y2="8"/>
    <line x1="2" y1="205" x2="8" y2="205"/>
    <line x1="205" y1="502" x2="205" y2="508"/>
    <line x1="502" y1="205" x2="508" y2="205"/>
    <line x1="305" y1="2" x2="305" y2="8"/>
    <line x1="2" y1="305" x2="8" y2="305"/>
    <line x1="305" y1="502" x2="305" y2="508"/>
    <line x1="502" y1="305" x2="508" y2="305"/>
    <line x1="405" y1="2" x2="405" y2="8"/>
    <line x1="2" y1="405" x2="8" y2="405"/>
    <line x1="405" y1="502" x2="405" y2="508"/>
    <line x1="502" y1="405" x2="508" y2="405"/>
  </g>
  <g stroke="gray" stroke-width="1" stroke-dasharray="5,5">
    <line x1="105" y1="5" x2="105" y2="505"/>
    <line x1="5" y1="105" x2="505" y2="105"/>
    <line x1="205" y1="5" x2="205" y2="505"/>
    <line x1="5" y1="205" x2="505" y2="205"/>
    <line x1="305" y1="5" x2="305" y2="505"/>
    <line x1="5" y1="305" x2="505" y2="305"/>
    <line x1="405" y1="5" x2="405" y2="505"/>
    <line x1="5" y1="405" x2="505" y2="405"/>
  </g>
</svg>
