<?xml version="1.0" standalone="no"?>
<!DOCTYPE svg PUBLIC "-//W3C//DTD SVG 1.1//EN" 
  "http://www.w3.org/Graphics/SVG/1.1/DTD/svg11.dtd">
<svg width="576" height="576" version="1.1" id="toplevel"
    xmlns="http://www.w3.org/2000/svg"
    xmlns:xlink="http://www.w3.org/1999/xlink">
  <polygon points="76,571 571,500 500,5 5,76" fill="bisque"/>
  <g stroke="chocolate" stroke-width="1">
    <line x1="76" y1="571" x2="571" y2="500"/>
    <circle cx="76" cy="571" r="2"/>
    <circle cx="571" cy="500" r="2"/>
  </g>
  <g stroke="chocolate" stroke-width="1">
    <line x1="76" y1="571" x2="5" y2="76"/>
    <circle cx="76" cy="571" r="2"/>
    <circle cx="5" cy="76" r="2"/>
  </g>
  <g stroke="chocolate" stroke-width="1">
    <line x1="571" y1="500" x2="500" y2="5"/>
    <circle cx="571" cy="500" r="2"/>
    <circle cx="500" cy="5" r="2"/>
  </g>
  <g stroke="chocolate" stroke-width="1">
    <line x1="5" y1="76" x2="500" y2="5"/>
    <circle cx="5" cy="76" r="2"/>
    <circle cx="500" cy="5" r="2"/>
  </g>
  <g stroke="black" stroke-width="1">
    <line x1="38" y1="38" x2="538" y2="38"/>
    <line x1="38" y1="38" x2="38" y2="538"/>
    <line x1="538" y1="538" x2="38" y2="538"/>
    <line x1="538" y1="538" x2="538" y2="38"/>
    <line x1="138" y1="35" x2="138" y2="41"/>
    <line x1="35" y1="138" x2="41" y2="138"/>
    <line x1="138" y1="535" x2="138" y2="541"/>
    <line x1="535" y1="138" x2="541" y2="138"/>
    <line x1="238" y1="35" x2="238" y2="41"/>
    <line x1="35" y1="238" x2="41" y2="238"/>
    <line x1="238" y1="535" x2="238" y2="541"/>
    <line x1="535" y1="238" x2="541" y2="238"/>
    <line x1="338" y1="35" x2="338" y2="41"/>
    <line x1="35" y1="338" x2="41" y2="338"/>
    <line x1="338" y1="535" x2="338" y2="541"/>
    <line x1="535" y1="338" x2="541" y2="338"/>
    <line x1="438" y1="35" x2="438" y2="41"/>
    <line x1="35" y1="438" x2="41" y2="438"/>
    <line x1="438" y1="535" x2="438" y2="541"/>
    <line x1="535" y1="438" x2="541" y2="438"/>
  </g>
  <g stroke="gray" stroke-width="1" stroke-dasharray="5,5">
    <line x1="138" y1="38" x2="138" y2="538"/>
    <line x1="38" y1="138" x2="538" y2="138"/>
    <line x1="238" y1="38" x2="238" y2="538"/>
    <line x1="38" y1="238" x2="538" y2="238"/>
    <line x1="338" y1="38" x2="338" y2="538"/>
    <line x1="38" y1="338" x2="538" y2="338"/>
    <line x1="438" y1="38" x2="438" y2="538"/>
    <line x1="38" y1="438" x2="538" y2="438"/>
  </g>
</svg>
