<?xml version="1.0" standalone="no"?>
<!DOCTYPE svg PUBLIC "-//W3C//DTD SVG 1.1//EN" 
  "http://www.w3.org/Graphics/SVG/1.1/DTD/svg11.dtd">
<svg width="528" height="528" version="1.1" id="toplevel"
    xmlns="http://www.w3.org/2000/svg"
    xmlns:xlink="http://www.w3.org/1999/xlink">
  <polygon points="89,436 306,383 523,383 523,329 219,92 7,106 5,125 14,132"
           fill="bisque"/>
  <g stroke="chocolate" stroke-width="1">
    <line x1="89" y1="436" x2="523" y2="329"/>
    <circle cx="89" cy="436" r="2"/>
    <circle cx="523" cy="329" r="2"/>
  </g>
  <g stroke="chocolate" stroke-width="1">
    <line x1="270" y1="383" x2="523" y2="383"/>
    <circle cx="270" cy="383" r="2"/>
    <circle cx="523" cy="383" r="2"/>
  </g>
  <g stroke="chocolate" stroke-width="1">
    <line x1="270" y1="383" x2="489" y2="303"/>
    <circle cx="270" cy="383" r="2"/>
    <circle cx="489" cy="303" r="2"/>
  </g>
  <g stroke="chocolate" stroke-width="1">
    <line x1="488" y1="318" x2="190" y2="286"/>
    <circle cx="488" cy="318" r="2"/>
    <circle cx="190" cy="286" r="2"/>
  </g>
  <g stroke="chocolate" stroke-width="1">
    <line x1="190" y1="286" x2="5" y2="125"/>
    <circle cx="190" cy="286" r="2"/>
    <circle cx="5" cy="125" r="2"/>
  </g>
  <g stroke="chocolate" stroke-width="1">
    <line x1="143" y1="103" x2="110" y2="99"/>
    <circle cx="143" cy="103" r="2"/>
    <circle cx="110" cy="99" r="2"/>
  </g>
  <g stroke="chocolate" stroke-width="1">
    <line x1="7" y1="106" x2="219" y2="92"/>
    <circle cx="7" cy="106" r="2"/>
    <circle cx="219" cy="92" r="2"/>
  </g>
  <g stroke="chocolate" stroke-width="1">
    <line x1="5" y1="125" x2="110" y2="99"/>
    <circle cx="5" cy="125" r="2"/>
    <circle cx="110" cy="99" r="2"/>
  </g>
  <g stroke="chocolate" stroke-width="1">
    <line x1="89" y1="436" x2="7" y2="106"/>
    <circle cx="89" cy="436" r="2"/>
    <circle cx="7" cy="106" r="2"/>
  </g>
  <g stroke="chocolate" stroke-width="1">
    <line x1="523" y1="329" x2="219" y2="92"/>
    <circle cx="523" cy="329" r="2"/>
    <circle cx="219" cy="92" r="2"/>
  </g>
  <g stroke="chocolate" stroke-width="1">
    <line x1="488" y1="318" x2="489" y2="303"/>
    <circle cx="488" cy="318" r="2"/>
    <circle cx="489" cy="303" r="2"/>
  </g>
  <g stroke="chocolate" stroke-width="1">
    <line x1="190" y1="286" x2="143" y2="97"/>
    <circle cx="190" cy="286" r="2"/>
    <circle cx="143" cy="97" r="2"/>
  </g>
  <g stroke="chocolate" stroke-width="1">
    <line x1="523" y1="383" x2="523" y2="329"/>
    <circle cx="523" cy="383" r="2"/>
    <circle cx="523" cy="329" r="2"/>
  </g>
  <g stroke="chocolate" stroke-width="1">
    <line x1="270" y1="383" x2="219" y2="92"/>
    <circle cx="270" cy="383" r="2"/>
    <circle cx="219" cy="92" r="2"/>
  </g>
  <g stroke="chocolate" stroke-width="1">
    <line x1="143" y1="103" x2="143" y2="97"/>
    <circle cx="143" cy="103" r="2"/>
    <circle cx="143" cy="97" r="2"/>
  </g>
  <g stroke="chocolate" stroke-width="1">
    <line x1="5" y1="125" x2="7" y2="106"/>
    <circle cx="5" cy="125" r="2"/>
    <circle cx="7" cy="106" r="2"/>
  </g>
  <g stroke="black" stroke-width="1">
    <line x1="14" y1="14" x2="514" y2="14"/>
    <line x1="14" y1="14" x2="14" y2="514"/>
    <line x1="514" y1="514" x2="14" y2="514"/>
    <line x1="514" y1="514" x2="514" y2="14"/>
    <line x1="114" y1="11" x2="114" y2="17"/>
    <line x1="11" y1="114" x2="17" y2="114"/>
    <line x1="114" y1="511" x2="114" y2="517"/>
    <line x1="511" y1="114" x2="517" y2="114"/>
    <line x1="214" y1="11" x2="214" y2="17"/>
    <line x1="11" y1="214" x2="17" y2="214"/>
    <line x1="214" y1="511" x2="214" y2="517"/>
    <line x1="511" y1="214" x2="517" y2="214"/>
    <line x1="314" y1="11" x2="314" y2="17"/>
    <line x1="11" y1="314" x2="17" y2="314"/>
    <line x1="314" y1="511" x2="314" y2="517"/>
    <line x1="511" y1="314" x2="517" y2="314"/>
    <line x1="414" y1="11" x2="414" y2="17"/>
    <line x1="11" y1="414" x2="17" y2="414"/>
    <line x1="414" y1="511" x2="414" y2="517"/>
    <line x1="511" y1="414" x2="517" y2="414"/>
  </g>
  <g stroke="gray" stroke-width="1" stroke-dasharray="5,5">
    <line x1="114" y1="14" x2="114" y2="514"/>
    <line x1="14" y1="114" x2="514" y2="114"/>
    <line x1="214" y1="14" x2="214" y2="514"/>
    <line x1="14" y1="214" x2="514" y2="214"/>
    <line x1="314" y1="14" x2="314" y2="514"/>
    <line x1="14" y1="314" x2="514" y2="314"/>
    <line x1="414" y1="14" x2="414" y2="514"/>
    <line x1="14" y1="414" x2="514" y2="414"/>
  </g>
</svg>
