<?xml version="1.0" standalone="no"?>
<!DOCTYPE svg PUBLIC "-//W3C//DTD SVG 1.1//EN" 
  "http://www.w3.org/Graphics/SVG/1.1/DTD/svg11.dtd">
<svg width="510" height="510" version="1.1" id="toplevel"
    xmlns="http://www.w3.org/2000/svg"
    xmlns:xlink="http://www.w3.org/1999/xlink">
  <polygon points="350,268 354,214 354,214 358,136 358,136 361,86 188,76 188,74 25,65 15,247"
           fill="bisque"/>
  <g stroke="chocolate" stroke-width="1">
    <line x1="326" y1="266" x2="351" y2="214"/>
    <circle cx="326" cy="266" r="2"/>
    <circle cx="351" cy="214" r="2"/>
  </g>
  <g stroke="chocolate" stroke-width="1">
    <line x1="226" y1="238" x2="277" y2="131"/>
    <circle cx="226" cy="238" r="2"/>
    <circle cx="277" cy="131" r="2"/>
  </g>
  <g stroke="chocolate" stroke-width="1">
    <line x1="226" y1="237" x2="279" y2="131"/>
    <circle cx="226" cy="237" r="2"/>
    <circle cx="279" cy="131" r="2"/>
  </g>
  <g stroke="chocolate" stroke-width="1">
    <line x1="350" y1="268" x2="354" y2="214"/>
    <circle cx="350" cy="268" r="2"/>
    <circle cx="354" cy="214" r="2"/>
  </g>
  <g stroke="chocolate" stroke-width="1">
    <line x1="350" y1="268" x2="358" y2="136"/>
    <circle cx="350" cy="268" r="2"/>
    <circle cx="358" cy="136" r="2"/>
  </g>
  <g stroke="chocolate" stroke-width="1">
    <line x1="350" y1="268" x2="361" y2="86"/>
    <circle cx="350" cy="268" r="2"/>
    <circle cx="361" cy="86" r="2"/>
  </g>
  <g stroke="chocolate" stroke-width="1">
    <line x1="350" y1="268" x2="358" y2="136"/>
    <circle cx="350" cy="268" r="2"/>
    <circle cx="358" cy="136" r="2"/>
  </g>
  <g stroke="chocolate" stroke-width="1">
    <line x1="179" y1="257" x2="188" y2="126"/>
    <circle cx="179" cy="257" r="2"/>
    <circle cx="188" cy="126" r="2"/>
  </g>
  <g stroke="chocolate" stroke-width="1">
    <line x1="179" y1="257" x2="188" y2="74"/>
    <circle cx="179" cy="257" r="2"/>
    <circle cx="188" cy="74" r="2"/>
  </g>
  <g stroke="chocolate" stroke-width="1">
    <line x1="185" y1="200" x2="188" y2="126"/>
    <circle cx="185" cy="200" r="2"/>
    <circle cx="188" cy="126" r="2"/>
  </g>
  <g stroke="chocolate" stroke-width="1">
    <line x1="15" y1="247" x2="25" y2="65"/>
    <circle cx="15" cy="247" r="2"/>
    <circle cx="25" cy="65" r="2"/>
  </g>
  <g stroke="chocolate" stroke-width="1">
    <line x1="15" y1="247" x2="21" y2="151"/>
    <circle cx="15" cy="247" r="2"/>
    <circle cx="21" cy="151" r="2"/>
  </g>
  <g stroke="chocolate" stroke-width="1">
    <line x1="216" y1="245" x2="215" y2="240"/>
    <circle cx="216" cy="245" r="2"/>
    <circle cx="215" cy="240" r="2"/>
  </g>
  <g stroke="chocolate" stroke-width="1">
    <line x1="216" y1="245" x2="226" y2="237"/>
    <circle cx="216" cy="245" r="2"/>
    <circle cx="226" cy="237" r="2"/>
  </g>
  <g stroke="chocolate" stroke-width="1">
    <line x1="267" y1="263" x2="351" y2="214"/>
    <circle cx="267" cy="263" r="2"/>
    <circle cx="351" cy="214" r="2"/>
  </g>
  <g stroke="chocolate" stroke-width="1">
    <line x1="289" y1="165" x2="277" y2="131"/>
    <circle cx="289" cy="165" r="2"/>
    <circle cx="277" cy="131" r="2"/>
  </g>
  <g stroke="chocolate" stroke-width="1">
    <line x1="326" y1="266" x2="279" y2="131"/>
    <circle cx="326" cy="266" r="2"/>
    <circle cx="279" cy="131" r="2"/>
  </g>
  <g stroke="chocolate" stroke-width="1">
    <line x1="215" y1="240" x2="226" y2="237"/>
    <circle cx="215" cy="240" r="2"/>
    <circle cx="226" cy="237" r="2"/>
  </g>
  <g stroke="chocolate" stroke-width="1">
    <line x1="185" y1="200" x2="289" y2="165"/>
    <circle cx="185" cy="200" r="2"/>
    <circle cx="289" cy="165" r="2"/>
  </g>
  <g stroke="chocolate" stroke-width="1">
    <line x1="215" y1="240" x2="226" y2="238"/>
    <circle cx="215" cy="240" r="2"/>
    <circle cx="226" cy="238" r="2"/>
  </g>
  <g stroke="chocolate" stroke-width="1">
    <line x1="350" y1="268" x2="15" y2="247"/>
    <circle cx="350" cy="268" r="2"/>
    <circle cx="15" cy="247" r="2"/>
  </g>
  <g stroke="chocolate" stroke-width="1">
    <line x1="21" y1="151" x2="77" y2="119"/>
    <circle cx="21" cy="151" r="2"/>
    <circle cx="77" cy="119" r="2"/>
  </g>
  <g stroke="chocolate" stroke-width="1">
    <line x1="267" y1="263" x2="77" y2="119"/>
    <circle cx="267" cy="263" r="2"/>
    <circle cx="77" cy="119" r="2"/>
  </g>
  <g stroke="chocolate" stroke-width="1">
    <line x1="216" y1="245" x2="21" y2="151"/>
    <circle cx="216" cy="245" r="2"/>
    <circle cx="21" cy="151" r="2"/>
  </g>
  <g stroke="chocolate" stroke-width="1">
    <line x1="354" y1="214" x2="351" y2="214"/>
    <circle cx="354" cy="214" r="2"/>
    <circle cx="351" cy="214" r="2"/>
  </g>
  <g stroke="chocolate" stroke-width="1">
    <line x1="358" y1="136" x2="77" y2="119"/>
    <circle cx="358" cy="136" r="2"/>
    <circle cx="77" cy="119" r="2"/>
  </g>
  <g stroke="chocolate" stroke-width="1">
    <line x1="361" y1="86" x2="25" y2="65"/>
    <circle cx="361" cy="86" r="2"/>
    <circle cx="25" cy="65" r="2"/>
  </g>
  <g stroke="chocolate" stroke-width="1">
    <line x1="188" y1="74" x2="25" y2="65"/>
    <circle cx="188" cy="74" r="2"/>
    <circle cx="25" cy="65" r="2"/>
  </g>
  <g stroke="black" stroke-width="1">
    <line x1="5" y1="5" x2="505" y2="5"/>
    <line x1="5" y1="5" x2="5" y2="505"/>
    <line x1="505" y1="505" x2="5" y2="505"/>
    <line x1="505" y1="505" x2="505" y2="5"/>
    <line x1="105" y1="2" x2="105" y2="8"/>
    <line x1="2" y1="105" x2="8" y2="105"/>
    <line x1="105" y1="502" x2="105" y2="508"/>
    <line x1="502" y1="105" x2="508" y2="105"/>
    <line x1="205" y1="2" x2="205" y2="8"/>
    <line x1="2" y1="205" x2="8" y2="205"/>
    <line x1="205" y1="502" x2="205" y2="508"/>
    <line x1="502" y1="205" x2="508" y2="205"/>
    <line x1="305" y1="2" x2="305" y2="8"/>
    <line x1="2" y1="305" x2="8" y2="305"/>
    <line x1="305" y1="502" x2="305" y2="508"/>
    <line x1="502" y1="305" x2="508" y2="305"/>
    <line x1="405" y1="2" x2="405" y2="8"/>
    <line x1="2" y1="405" x2="8" y2="405"/>
    <line x1="405" y1="502" x2="405" y2="508"/>
    <line x1="502" y1="405" x2="508" y2="405"/>
  </g>
  <g stroke="gray" stroke-width="1" stroke-dasharray="5,5">
    <line x1="105" y1="5" x2="105" y2="505"/>
    <line x1="5" y1="105" x2="505" y2="105"/>
    <line x1="205" y1="5" x2="205" y2="505"/>
    <line x1="5" y1="205" x2="505" y2="205"/>
    <line x1="305" y1="5" x2="305" y2="505"/>
    <line x1="5" y1="305" x2="505" y2="305"/>
    <line x1="405" y1="5" x2="405" y2="505"/>
    <line x1="5" y1="405" x2="505" y2="405"/>
  </g>
</svg>
