<?xml version="1.0" standalone="no"?>
<!DOCTYPE svg PUBLIC "-//W3C//DTD SVG 1.1//EN" 
  "http://www.w3.org/Graphics/SVG/1.1/DTD/svg11.dtd">
<svg width="510" height="510" version="1.1" id="toplevel"
    xmlns="http://www.w3.org/2000/svg"
    xmlns:xlink="http://www.w3.org/1999/xlink">
  <polygon points="314,441 369,369 369,293 441,196 369,141 293,141 196,69 141,141 141,217 69,314 141,369 217,369"
           fill="bisque"/>
  <g stroke="chocolate" stroke-width="1">
    <line x1="250" y1="287" x2="141" y2="141"/>
    <circle cx="250" cy="287" r="2"/>
    <circle cx="141" cy="141" r="2"/>
  </g>
  <g stroke="chocolate" stroke-width="1">
    <line x1="369" y1="369" x2="260" y2="223"/>
    <circle cx="369" cy="369" r="2"/>
    <circle cx="260" cy="223" r="2"/>
  </g>
  <g stroke="chocolate" stroke-width="1">
    <line x1="141" y1="369" x2="69" y2="314"/>
    <circle cx="141" cy="369" r="2"/>
    <circle cx="69" cy="314" r="2"/>
  </g>
  <g stroke="chocolate" stroke-width="1">
    <line x1="314" y1="441" x2="205" y2="360"/>
    <circle cx="314" cy="441" r="2"/>
    <circle cx="205" cy="360" r="2"/>
  </g>
  <g stroke="chocolate" stroke-width="1">
    <line x1="369" y1="369" x2="150" y2="205"/>
    <circle cx="369" cy="369" r="2"/>
    <circle cx="150" cy="205" r="2"/>
  </g>
  <g stroke="chocolate" stroke-width="1">
    <line x1="360" y1="305" x2="141" y2="141"/>
    <circle cx="360" cy="305" r="2"/>
    <circle cx="141" cy="141" r="2"/>
  </g>
  <g stroke="chocolate" stroke-width="1">
    <line x1="305" y1="150" x2="196" y2="69"/>
    <circle cx="305" cy="150" r="2"/>
    <circle cx="196" cy="69" r="2"/>
  </g>
  <g stroke="chocolate" stroke-width="1">
    <line x1="441" y1="196" x2="369" y2="141"/>
    <circle cx="441" cy="196" r="2"/>
    <circle cx="369" cy="141" r="2"/>
  </g>
  <g stroke="chocolate" stroke-width="1">
    <line x1="205" y1="360" x2="150" y2="205"/>
    <circle cx="205" cy="360" r="2"/>
    <circle cx="150" cy="205" r="2"/>
  </g>
  <g stroke="chocolate" stroke-width="1">
    <line x1="360" y1="305" x2="305" y2="150"/>
    <circle cx="360" cy="305" r="2"/>
    <circle cx="305" cy="150" r="2"/>
  </g>
  <g stroke="chocolate" stroke-width="1">
    <line x1="141" y1="369" x2="141" y2="141"/>
    <circle cx="141" cy="369" r="2"/>
    <circle cx="141" cy="141" r="2"/>
  </g>
  <g stroke="chocolate" stroke-width="1">
    <line x1="369" y1="369" x2="369" y2="141"/>
    <circle cx="369" cy="369" r="2"/>
    <circle cx="369" cy="141" r="2"/>
  </g>
  <g stroke="chocolate" stroke-width="1">
    <line x1="141" y1="369" x2="369" y2="369"/>
    <circle cx="141" cy="369" r="2"/>
    <circle cx="369" cy="369" r="2"/>
  </g>
  <g stroke="chocolate" stroke-width="1">
    <line x1="141" y1="141" x2="369" y2="141"/>
    <circle cx="141" cy="141" r="2"/>
    <circle cx="369" cy="141" r="2"/>
  </g>
  <g stroke="chocolate" stroke-width="1">
    <line x1="205" y1="360" x2="360" y2="305"/>
    <circle cx="205" cy="360" r="2"/>
    <circle cx="360" cy="305" r="2"/>
  </g>
  <g stroke="chocolate" stroke-width="1">
    <line x1="150" y1="205" x2="305" y2="150"/>
    <circle cx="150" cy="205" r="2"/>
    <circle cx="305" cy="150" r="2"/>
  </g>
  <g stroke="chocolate" stroke-width="1">
    <line x1="314" y1="441" x2="369" y2="369"/>
    <circle cx="314" cy="441" r="2"/>
    <circle cx="369" cy="369" r="2"/>
  </g>
  <g stroke="chocolate" stroke-width="1">
    <line x1="360" y1="305" x2="441" y2="196"/>
    <circle cx="360" cy="305" r="2"/>
    <circle cx="441" cy="196" r="2"/>
  </g>
  <g stroke="chocolate" stroke-width="1">
    <line x1="205" y1="360" x2="369" y2="141"/>
    <circle cx="205" cy="360" r="2"/>
    <circle cx="369" cy="141" r="2"/>
  </g>
  <g stroke="chocolate" stroke-width="1">
    <line x1="141" y1="369" x2="305" y2="150"/>
    <circle cx="141" cy="369" r="2"/>
    <circle cx="305" cy="150" r="2"/>
  </g>
  <g stroke="chocolate" stroke-width="1">
    <line x1="69" y1="314" x2="150" y2="205"/>
    <circle cx="69" cy="314" r="2"/>
    <circle cx="150" cy="205" r="2"/>
  </g>
  <g stroke="chocolate" stroke-width="1">
    <line x1="141" y1="141" x2="196" y2="69"/>
    <circle cx="141" cy="141" r="2"/>
    <circle cx="196" cy="69" r="2"/>
  </g>
  <g stroke="chocolate" stroke-width="1">
    <line x1="141" y1="369" x2="287" y2="260"/>
    <circle cx="141" cy="369" r="2"/>
    <circle cx="287" cy="260" r="2"/>
  </g>
  <g stroke="chocolate" stroke-width="1">
    <line x1="223" y1="250" x2="369" y2="141"/>
    <circle cx="223" cy="250" r="2"/>
    <circle cx="369" cy="141" r="2"/>
  </g>
  <g stroke="black" stroke-width="1">
    <line x1="5" y1="5" x2="505" y2="5"/>
    <line x1="5" y1="5" x2="5" y2="505"/>
    <line x1="505" y1="505" x2="5" y2="505"/>
    <line x1="505" y1="505" x2="505" y2="5"/>
    <line x1="105" y1="2" x2="105" y2="8"/>
    <line x1="2" y1="105" x2="8" y2="105"/>
    <line x1="105" y1="502" x2="105" y2="508"/>
    <line x1="502" y1="105" x2="508" y2="105"/>
    <line x1="205" y1="2" x2="205" y2="8"/>
    <line x1="2" y1="205" x2="8" y2="205"/>
    <line x1="205" y1="502" x2="205" y2="508"/>
    <line x1="502" y1="205" x2="508" y2="205"/>
    <line x1="305" y1="2" x2="305" y2="8"/>
    <line x1="2" y1="305" x2="8" y2="305"/>
    <line x1="305" y1="502" x2="305" y2="508"/>
    <line x1="502" y1="305" x2="508" y2="305"/>
    <line x1="405" y1="2" x2="405" y2="8"/>
    <line x1="2" y1="405" x2="8" y2="405"/>
    <line x1="405" y1="502" x2="405" y2="508"/>
    <line x1="502" y1="405" x2="508" y2="405"/>
  </g>
  <g stroke="gray" stroke-width="1" stroke-dasharray="5,5">
    <line x1="105" y1="5" x2="105" y2="505"/>
    <line x1="5" y1="105" x2="505" y2="105"/>
    <line x1="205" y1="5" x2="205" y2="505"/>
    <line x1="5" y1="205" x2="505" y2="205"/>
    <line x1="305" y1="5" x2="305" y2="505"/>
    <line x1="5" y1="305" x2="505" y2="305"/>
    <line x1="405" y1="5" x2="405" y2="505"/>
    <line x1="5" y1="405" x2="505" y2="405"/>
  </g>
</svg>
