<?xml version="1.0" standalone="no"?>
<!DOCTYPE svg PUBLIC "-//W3C//DTD SVG 1.1//EN" 
  "http://www.w3.org/Graphics/SVG/1.1/DTD/svg11.dtd">
<svg width="510" height="510" version="1.1" id="toplevel"
    xmlns="http://www.w3.org/2000/svg"
    xmlns:xlink="http://www.w3.org/1999/xlink">
  <polygon points="437,363 445,328 440,326 440,326 435,325 436,324 431,323 431,323 426,321 426,321 420,319 442,224 100,147 65,176 65,297 128,297 130,271 412,356 412,356 417,357 417,357 423,359 423,358 428,360 428,360 435,362"
           fill="bisque"/>
  <g stroke="chocolate" stroke-width="1">
    <line x1="433" y1="361" x2="445" y2="328"/>
    <circle cx="433" cy="361" r="2"/>
    <circle cx="445" cy="328" r="2"/>
  </g>
  <g stroke="chocolate" stroke-width="1">
    <line x1="428" y1="360" x2="440" y2="326"/>
    <circle cx="428" cy="360" r="2"/>
    <circle cx="440" cy="326" r="2"/>
  </g>
  <g stroke="chocolate" stroke-width="1">
    <line x1="423" y1="359" x2="436" y2="324"/>
    <circle cx="423" cy="359" r="2"/>
    <circle cx="436" cy="324" r="2"/>
  </g>
  <g stroke="chocolate" stroke-width="1">
    <line x1="417" y1="357" x2="431" y2="323"/>
    <circle cx="417" cy="357" r="2"/>
    <circle cx="431" cy="323" r="2"/>
  </g>
  <g stroke="chocolate" stroke-width="1">
    <line x1="412" y1="356" x2="426" y2="321"/>
    <circle cx="412" cy="356" r="2"/>
    <circle cx="426" cy="321" r="2"/>
  </g>
  <g stroke="chocolate" stroke-width="1">
    <line x1="437" y1="363" x2="445" y2="328"/>
    <circle cx="437" cy="363" r="2"/>
    <circle cx="445" cy="328" r="2"/>
  </g>
  <g stroke="chocolate" stroke-width="1">
    <line x1="433" y1="361" x2="440" y2="326"/>
    <circle cx="433" cy="361" r="2"/>
    <circle cx="440" cy="326" r="2"/>
  </g>
  <g stroke="chocolate" stroke-width="1">
    <line x1="428" y1="360" x2="436" y2="324"/>
    <circle cx="428" cy="360" r="2"/>
    <circle cx="436" cy="324" r="2"/>
  </g>
  <g stroke="chocolate" stroke-width="1">
    <line x1="423" y1="359" x2="431" y2="323"/>
    <circle cx="423" cy="359" r="2"/>
    <circle cx="431" cy="323" r="2"/>
  </g>
  <g stroke="chocolate" stroke-width="1">
    <line x1="417" y1="357" x2="426" y2="321"/>
    <circle cx="417" cy="357" r="2"/>
    <circle cx="426" cy="321" r="2"/>
  </g>
  <g stroke="chocolate" stroke-width="1">
    <line x1="412" y1="356" x2="442" y2="224"/>
    <circle cx="412" cy="356" r="2"/>
    <circle cx="442" cy="224" r="2"/>
  </g>
  <g stroke="chocolate" stroke-width="1">
    <line x1="65" y1="176" x2="100" y2="147"/>
    <circle cx="65" cy="176" r="2"/>
    <circle cx="100" cy="147" r="2"/>
  </g>
  <g stroke="chocolate" stroke-width="1">
    <line x1="65" y1="221" x2="103" y2="206"/>
    <circle cx="65" cy="221" r="2"/>
    <circle cx="103" cy="206" r="2"/>
  </g>
  <g stroke="chocolate" stroke-width="1">
    <line x1="65" y1="251" x2="133" y2="231"/>
    <circle cx="65" cy="251" r="2"/>
    <circle cx="133" cy="231" r="2"/>
  </g>
  <g stroke="chocolate" stroke-width="1">
    <line x1="65" y1="251" x2="133" y2="230"/>
    <circle cx="65" cy="251" r="2"/>
    <circle cx="133" cy="230" r="2"/>
  </g>
  <g stroke="chocolate" stroke-width="1">
    <line x1="65" y1="251" x2="133" y2="230"/>
    <circle cx="65" cy="251" r="2"/>
    <circle cx="133" cy="230" r="2"/>
  </g>
  <g stroke="chocolate" stroke-width="1">
    <line x1="65" y1="251" x2="132" y2="230"/>
    <circle cx="65" cy="251" r="2"/>
    <circle cx="132" cy="230" r="2"/>
  </g>
  <g stroke="chocolate" stroke-width="1">
    <line x1="65" y1="250" x2="132" y2="230"/>
    <circle cx="65" cy="250" r="2"/>
    <circle cx="132" cy="230" r="2"/>
  </g>
  <g stroke="chocolate" stroke-width="1">
    <line x1="94" y1="266" x2="103" y2="206"/>
    <circle cx="94" cy="266" r="2"/>
    <circle cx="103" cy="206" r="2"/>
  </g>
  <g stroke="chocolate" stroke-width="1">
    <line x1="65" y1="213" x2="98" y2="203"/>
    <circle cx="65" cy="213" r="2"/>
    <circle cx="98" cy="203" r="2"/>
  </g>
  <g stroke="chocolate" stroke-width="1">
    <line x1="65" y1="213" x2="98" y2="203"/>
    <circle cx="65" cy="213" r="2"/>
    <circle cx="98" cy="203" r="2"/>
  </g>
  <g stroke="chocolate" stroke-width="1">
    <line x1="65" y1="213" x2="98" y2="203"/>
    <circle cx="65" cy="213" r="2"/>
    <circle cx="98" cy="203" r="2"/>
  </g>
  <g stroke="chocolate" stroke-width="1">
    <line x1="65" y1="212" x2="98" y2="202"/>
    <circle cx="65" cy="212" r="2"/>
    <circle cx="98" cy="202" r="2"/>
  </g>
  <g stroke="chocolate" stroke-width="1">
    <line x1="65" y1="212" x2="98" y2="202"/>
    <circle cx="65" cy="212" r="2"/>
    <circle cx="98" cy="202" r="2"/>
  </g>
  <g stroke="chocolate" stroke-width="1">
    <line x1="128" y1="297" x2="133" y2="231"/>
    <circle cx="128" cy="297" r="2"/>
    <circle cx="133" cy="231" r="2"/>
  </g>
  <g stroke="chocolate" stroke-width="1">
    <line x1="128" y1="292" x2="133" y2="230"/>
    <circle cx="128" cy="292" r="2"/>
    <circle cx="133" cy="230" r="2"/>
  </g>
  <g stroke="chocolate" stroke-width="1">
    <line x1="128" y1="287" x2="133" y2="230"/>
    <circle cx="128" cy="287" r="2"/>
    <circle cx="133" cy="230" r="2"/>
  </g>
  <g stroke="chocolate" stroke-width="1">
    <line x1="129" y1="282" x2="132" y2="230"/>
    <circle cx="129" cy="282" r="2"/>
    <circle cx="132" cy="230" r="2"/>
  </g>
  <g stroke="chocolate" stroke-width="1">
    <line x1="129" y1="277" x2="132" y2="230"/>
    <circle cx="129" cy="277" r="2"/>
    <circle cx="132" cy="230" r="2"/>
  </g>
  <g stroke="chocolate" stroke-width="1">
    <line x1="93" y1="271" x2="98" y2="203"/>
    <circle cx="93" cy="271" r="2"/>
    <circle cx="98" cy="203" r="2"/>
  </g>
  <g stroke="chocolate" stroke-width="1">
    <line x1="93" y1="277" x2="98" y2="203"/>
    <circle cx="93" cy="277" r="2"/>
    <circle cx="98" cy="203" r="2"/>
  </g>
  <g stroke="chocolate" stroke-width="1">
    <line x1="92" y1="282" x2="98" y2="203"/>
    <circle cx="92" cy="282" r="2"/>
    <circle cx="98" cy="203" r="2"/>
  </g>
  <g stroke="chocolate" stroke-width="1">
    <line x1="92" y1="287" x2="98" y2="202"/>
    <circle cx="92" cy="287" r="2"/>
    <circle cx="98" cy="202" r="2"/>
  </g>
  <g stroke="chocolate" stroke-width="1">
    <line x1="91" y1="292" x2="98" y2="202"/>
    <circle cx="91" cy="292" r="2"/>
    <circle cx="98" cy="202" r="2"/>
  </g>
  <g stroke="chocolate" stroke-width="1">
    <line x1="65" y1="297" x2="128" y2="297"/>
    <circle cx="65" cy="297" r="2"/>
    <circle cx="128" cy="297" r="2"/>
  </g>
  <g stroke="chocolate" stroke-width="1">
    <line x1="65" y1="297" x2="65" y2="176"/>
    <circle cx="65" cy="297" r="2"/>
    <circle cx="65" cy="176" r="2"/>
  </g>
  <g stroke="chocolate" stroke-width="1">
    <line x1="100" y1="297" x2="100" y2="147"/>
    <circle cx="100" cy="297" r="2"/>
    <circle cx="100" cy="147" r="2"/>
  </g>
  <g stroke="chocolate" stroke-width="1">
    <line x1="91" y1="292" x2="128" y2="292"/>
    <circle cx="91" cy="292" r="2"/>
    <circle cx="128" cy="292" r="2"/>
  </g>
  <g stroke="chocolate" stroke-width="1">
    <line x1="92" y1="287" x2="128" y2="287"/>
    <circle cx="92" cy="287" r="2"/>
    <circle cx="128" cy="287" r="2"/>
  </g>
  <g stroke="chocolate" stroke-width="1">
    <line x1="92" y1="282" x2="129" y2="282"/>
    <circle cx="92" cy="282" r="2"/>
    <circle cx="129" cy="282" r="2"/>
  </g>
  <g stroke="chocolate" stroke-width="1">
    <line x1="93" y1="277" x2="129" y2="277"/>
    <circle cx="93" cy="277" r="2"/>
    <circle cx="129" cy="277" r="2"/>
  </g>
  <g stroke="chocolate" stroke-width="1">
    <line x1="93" y1="271" x2="129" y2="271"/>
    <circle cx="93" cy="271" r="2"/>
    <circle cx="129" cy="271" r="2"/>
  </g>
  <g stroke="chocolate" stroke-width="1">
    <line x1="128" y1="297" x2="91" y2="292"/>
    <circle cx="128" cy="297" r="2"/>
    <circle cx="91" cy="292" r="2"/>
  </g>
  <g stroke="chocolate" stroke-width="1">
    <line x1="128" y1="292" x2="92" y2="287"/>
    <circle cx="128" cy="292" r="2"/>
    <circle cx="92" cy="287" r="2"/>
  </g>
  <g stroke="chocolate" stroke-width="1">
    <line x1="128" y1="287" x2="92" y2="282"/>
    <circle cx="128" cy="287" r="2"/>
    <circle cx="92" cy="282" r="2"/>
  </g>
  <g stroke="chocolate" stroke-width="1">
    <line x1="129" y1="282" x2="93" y2="277"/>
    <circle cx="129" cy="282" r="2"/>
    <circle cx="93" cy="277" r="2"/>
  </g>
  <g stroke="chocolate" stroke-width="1">
    <line x1="129" y1="277" x2="93" y2="271"/>
    <circle cx="129" cy="277" r="2"/>
    <circle cx="93" cy="271" r="2"/>
  </g>
  <g stroke="chocolate" stroke-width="1">
    <line x1="129" y1="271" x2="94" y2="266"/>
    <circle cx="129" cy="271" r="2"/>
    <circle cx="94" cy="266" r="2"/>
  </g>
  <g stroke="chocolate" stroke-width="1">
    <line x1="437" y1="363" x2="435" y2="362"/>
    <circle cx="437" cy="363" r="2"/>
    <circle cx="435" cy="362" r="2"/>
  </g>
  <g stroke="chocolate" stroke-width="1">
    <line x1="412" y1="356" x2="65" y2="251"/>
    <circle cx="412" cy="356" r="2"/>
    <circle cx="65" cy="251" r="2"/>
  </g>
  <g stroke="chocolate" stroke-width="1">
    <line x1="417" y1="357" x2="65" y2="251"/>
    <circle cx="417" cy="357" r="2"/>
    <circle cx="65" cy="251" r="2"/>
  </g>
  <g stroke="chocolate" stroke-width="1">
    <line x1="423" y1="359" x2="65" y2="251"/>
    <circle cx="423" cy="359" r="2"/>
    <circle cx="65" cy="251" r="2"/>
  </g>
  <g stroke="chocolate" stroke-width="1">
    <line x1="428" y1="360" x2="65" y2="251"/>
    <circle cx="428" cy="360" r="2"/>
    <circle cx="65" cy="251" r="2"/>
  </g>
  <g stroke="chocolate" stroke-width="1">
    <line x1="435" y1="362" x2="65" y2="250"/>
    <circle cx="435" cy="362" r="2"/>
    <circle cx="65" cy="250" r="2"/>
  </g>
  <g stroke="chocolate" stroke-width="1">
    <line x1="445" y1="328" x2="65" y2="213"/>
    <circle cx="445" cy="328" r="2"/>
    <circle cx="65" cy="213" r="2"/>
  </g>
  <g stroke="chocolate" stroke-width="1">
    <line x1="440" y1="326" x2="65" y2="213"/>
    <circle cx="440" cy="326" r="2"/>
    <circle cx="65" cy="213" r="2"/>
  </g>
  <g stroke="chocolate" stroke-width="1">
    <line x1="436" y1="324" x2="65" y2="213"/>
    <circle cx="436" cy="324" r="2"/>
    <circle cx="65" cy="213" r="2"/>
  </g>
  <g stroke="chocolate" stroke-width="1">
    <line x1="431" y1="323" x2="65" y2="212"/>
    <circle cx="431" cy="323" r="2"/>
    <circle cx="65" cy="212" r="2"/>
  </g>
  <g stroke="chocolate" stroke-width="1">
    <line x1="426" y1="321" x2="65" y2="212"/>
    <circle cx="426" cy="321" r="2"/>
    <circle cx="65" cy="212" r="2"/>
  </g>
  <g stroke="chocolate" stroke-width="1">
    <line x1="435" y1="362" x2="65" y2="221"/>
    <circle cx="435" cy="362" r="2"/>
    <circle cx="65" cy="221" r="2"/>
  </g>
  <g stroke="chocolate" stroke-width="1">
    <line x1="442" y1="224" x2="100" y2="147"/>
    <circle cx="442" cy="224" r="2"/>
    <circle cx="100" cy="147" r="2"/>
  </g>
  <g stroke="chocolate" stroke-width="1">
    <line x1="133" y1="231" x2="65" y2="176"/>
    <circle cx="133" cy="231" r="2"/>
    <circle cx="65" cy="176" r="2"/>
  </g>
  <g stroke="black" stroke-width="1">
    <line x1="5" y1="5" x2="505" y2="5"/>
    <line x1="5" y1="5" x2="5" y2="505"/>
    <line x1="505" y1="505" x2="5" y2="505"/>
    <line x1="505" y1="505" x2="505" y2="5"/>
    <line x1="105" y1="2" x2="105" y2="8"/>
    <line x1="2" y1="105" x2="8" y2="105"/>
    <line x1="105" y1="502" x2="105" y2="508"/>
    <line x1="502" y1="105" x2="508" y2="105"/>
    <line x1="205" y1="2" x2="205" y2="8"/>
    <line x1="2" y1="205" x2="8" y2="205"/>
    <line x1="205" y1="502" x2="205" y2="508"/>
    <line x1="502" y1="205" x2="508" y2="205"/>
    <line x1="305" y1="2" x2="305" y2="8"/>
    <line x1="2" y1="305" x2="8" y2="305"/>
    <line x1="305" y1="502" x2="305" y2="508"/>
    <line x1="502" y1="305" x2="508" y2="305"/>
    <line x1="405" y1="2" x2="405" y2="8"/>
    <line x1="2" y1="405" x2="8" y2="405"/>
    <line x1="405" y1="502" x2="405" y2="508"/>
    <line x1="502" y1="405" x2="508" y2="405"/>
  </g>
  <g stroke="gray" stroke-width="1" stroke-dasharray="5,5">
    <line x1="105" y1="5" x2="105" y2="505"/>
    <line x1="5" y1="105" x2="505" y2="105"/>
    <line x1="205" y1="5" x2="205" y2="505"/>
    <line x1="5" y1="205" x2="505" y2="205"/>
    <line x1="305" y1="5" x2="305" y2="505"/>
    <line x1="5" y1="305" x2="505" y2="305"/>
    <line x1="405" y1="5" x2="405" y2="505"/>
    <line x1="5" y1="405" x2="505" y2="405"/>
  </g>
</svg>
