<?xml version="1.0" standalone="no"?>
<!DOCTYPE svg PUBLIC "-//W3C//DTD SVG 1.1//EN" 
  "http://www.w3.org/Graphics/SVG/1.1/DTD/svg11.dtd">
<svg width="510" height="510" version="1.1" id="toplevel"
    xmlns="http://www.w3.org/2000/svg"
    xmlns:xlink="http://www.w3.org/1999/xlink">
  <polygon points="143,332 183,290 225,331 260,295 218,255 259,213 224,178 183,220 141,179 106,215 148,255 107,297"
           fill="bisque"/>
  <g stroke="chocolate" stroke-width="1">
    <line x1="225" y1="331" x2="260" y2="295"/>
    <circle cx="225" cy="331" r="2"/>
    <circle cx="260" cy="295" r="2"/>
  </g>
  <g stroke="chocolate" stroke-width="1">
    <line x1="143" y1="332" x2="259" y2="213"/>
    <circle cx="143" cy="332" r="2"/>
    <circle cx="259" cy="213" r="2"/>
  </g>
  <g stroke="chocolate" stroke-width="1">
    <line x1="107" y1="297" x2="224" y2="178"/>
    <circle cx="107" cy="297" r="2"/>
    <circle cx="224" cy="178" r="2"/>
  </g>
  <g stroke="chocolate" stroke-width="1">
    <line x1="106" y1="215" x2="141" y2="179"/>
    <circle cx="106" cy="215" r="2"/>
    <circle cx="141" cy="179" r="2"/>
  </g>
  <g stroke="chocolate" stroke-width="1">
    <line x1="143" y1="332" x2="107" y2="297"/>
    <circle cx="143" cy="332" r="2"/>
    <circle cx="107" cy="297" r="2"/>
  </g>
  <g stroke="chocolate" stroke-width="1">
    <line x1="183" y1="290" x2="183" y2="220"/>
    <circle cx="183" cy="290" r="2"/>
    <circle cx="183" cy="220" r="2"/>
  </g>
  <g stroke="chocolate" stroke-width="1">
    <line x1="225" y1="331" x2="106" y2="215"/>
    <circle cx="225" cy="331" r="2"/>
    <circle cx="106" cy="215" r="2"/>
  </g>
  <g stroke="chocolate" stroke-width="1">
    <line x1="260" y1="295" x2="141" y2="179"/>
    <circle cx="260" cy="295" r="2"/>
    <circle cx="141" cy="179" r="2"/>
  </g>
  <g stroke="chocolate" stroke-width="1">
    <line x1="259" y1="213" x2="224" y2="178"/>
    <circle cx="259" cy="213" r="2"/>
    <circle cx="224" cy="178" r="2"/>
  </g>
  <g stroke="black" stroke-width="1">
    <line x1="5" y1="5" x2="505" y2="5"/>
    <line x1="5" y1="5" x2="5" y2="505"/>
    <line x1="505" y1="505" x2="5" y2="505"/>
    <line x1="505" y1="505" x2="505" y2="5"/>
    <line x1="105" y1="2" x2="105" y2="8"/>
    <line x1="2" y1="105" x2="8" y2="105"/>
    <line x1="105" y1="502" x2="105" y2="508"/>
    <line x1="502" y1="105" x2="508" y2="105"/>
    <line x1="205" y1="2" x2="205" y2="8"/>
    <line x1="2" y1="205" x2="8" y2="205"/>
    <line x1="205" y1="502" x2="205" y2="508"/>
    <line x1="502" y1="205" x2="508" y2="205"/>
    <line x1="305" y1="2" x2="305" y2="8"/>
    <line x1="2" y1="305" x2="8" y2="305"/>
    <line x1="305" y1="502" x2="305" y2="508"/>
    <line x1="502" y1="305" x2="508" y2="305"/>
    <line x1="405" y1="2" x2="405" y2="8"/>
    <line x1="2" y1="405" x2="8" y2="405"/>
    <line x1="405" y1="502" x2="405" y2="508"/>
    <line x1="502" y1="405" x2="508" y2="405"/>
  </g>
  <g stroke="gray" stroke-width="1" stroke-dasharray="5,5">
    <line x1="105" y1="5" x2="105" y2="505"/>
    <line x1="5" y1="105" x2="505" y2="105"/>
    <line x1="205" y1="5" x2="205" y2="505"/>
    <line x1="5" y1="205" x2="505" y2="205"/>
    <line x1="305" y1="5" x2="305" y2="505"/>
    <line x1="5" y1="305" x2="505" y2="305"/>
    <line x1="405" y1="5" x2="405" y2="505"/>
    <line x1="5" y1="405" x2="505" y2="405"/>
  </g>
</svg>
