<?xml version="1.0" standalone="no"?>
<!DOCTYPE svg PUBLIC "-//W3C//DTD SVG 1.1//EN" 
  "http://www.w3.org/Graphics/SVG/1.1/DTD/svg11.dtd">
<svg width="510" height="510" version="1.1" id="toplevel"
    xmlns="http://www.w3.org/2000/svg"
    xmlns:xlink="http://www.w3.org/1999/xlink">
  <polygon points="295,332 331,298 290,256 332,215 298,179 256,220 215,178 179,212 220,254 178,295 212,331 254,290"
           fill="bisque"/>
  <g stroke="chocolate" stroke-width="1">
    <line x1="295" y1="332" x2="331" y2="298"/>
    <circle cx="295" cy="332" r="2"/>
    <circle cx="331" cy="298" r="2"/>
  </g>
  <g stroke="chocolate" stroke-width="1">
    <line x1="212" y1="331" x2="332" y2="215"/>
    <circle cx="212" cy="331" r="2"/>
    <circle cx="332" cy="215" r="2"/>
  </g>
  <g stroke="chocolate" stroke-width="1">
    <line x1="178" y1="295" x2="298" y2="179"/>
    <circle cx="178" cy="295" r="2"/>
    <circle cx="298" cy="179" r="2"/>
  </g>
  <g stroke="chocolate" stroke-width="1">
    <line x1="179" y1="212" x2="215" y2="178"/>
    <circle cx="179" cy="212" r="2"/>
    <circle cx="215" cy="178" r="2"/>
  </g>
  <g stroke="chocolate" stroke-width="1">
    <line x1="254" y1="290" x2="256" y2="220"/>
    <circle cx="254" cy="290" r="2"/>
    <circle cx="256" cy="220" r="2"/>
  </g>
  <g stroke="chocolate" stroke-width="1">
    <line x1="212" y1="331" x2="178" y2="295"/>
    <circle cx="212" cy="331" r="2"/>
    <circle cx="178" cy="295" r="2"/>
  </g>
  <g stroke="chocolate" stroke-width="1">
    <line x1="295" y1="332" x2="179" y2="212"/>
    <circle cx="295" cy="332" r="2"/>
    <circle cx="179" cy="212" r="2"/>
  </g>
  <g stroke="chocolate" stroke-width="1">
    <line x1="331" y1="298" x2="215" y2="178"/>
    <circle cx="331" cy="298" r="2"/>
    <circle cx="215" cy="178" r="2"/>
  </g>
  <g stroke="chocolate" stroke-width="1">
    <line x1="332" y1="215" x2="298" y2="179"/>
    <circle cx="332" cy="215" r="2"/>
    <circle cx="298" cy="179" r="2"/>
  </g>
  <g stroke="black" stroke-width="1">
    <line x1="5" y1="5" x2="505" y2="5"/>
    <line x1="5" y1="5" x2="5" y2="505"/>
    <line x1="505" y1="505" x2="5" y2="505"/>
    <line x1="505" y1="505" x2="505" y2="5"/>
    <line x1="105" y1="2" x2="105" y2="8"/>
    <line x1="2" y1="105" x2="8" y2="105"/>
    <line x1="105" y1="502" x2="105" y2="508"/>
    <line x1="502" y1="105" x2="508" y2="105"/>
    <line x1="205" y1="2" x2="205" y2="8"/>
    <line x1="2" y1="205" x2="8" y2="205"/>
    <line x1="205" y1="502" x2="205" y2="508"/>
    <line x1="502" y1="205" x2="508" y2="205"/>
    <line x1="305" y1="2" x2="305" y2="8"/>
    <line x1="2" y1="305" x2="8" y2="305"/>
    <line x1="305" y1="502" x2="305" y2="508"/>
    <line x1="502" y1="305" x2="508" y2="305"/>
    <line x1="405" y1="2" x2="405" y2="8"/>
    <line x1="2" y1="405" x2="8" y2="405"/>
    <line x1="405" y1="502" x2="405" y2="508"/>
    <line x1="502" y1="405" x2="508" y2="405"/>
  </g>
  <g stroke="gray" stroke-width="1" stroke-dasharray="5,5">
    <line x1="105" y1="5" x2="105" y2="505"/>
    <line x1="5" y1="105" x2="505" y2="105"/>
    <line x1="205" y1="5" x2="205" y2="505"/>
    <line x1="5" y1="205" x2="505" y2="205"/>
    <line x1="305" y1="5" x2="305" y2="505"/>
    <line x1="5" y1="305" x2="505" y2="305"/>
    <line x1="405" y1="5" x2="405" y2="505"/>
    <line x1="5" y1="405" x2="505" y2="405"/>
  </g>
</svg>
