<?xml version="1.0" standalone="no"?>
<!DOCTYPE svg PUBLIC "-//W3C//DTD SVG 1.1//EN" 
  "http://www.w3.org/Graphics/SVG/1.1/DTD/svg11.dtd">
<svg width="510" height="510" version="1.1" id="toplevel"
    xmlns="http://www.w3.org/2000/svg"
    xmlns:xlink="http://www.w3.org/1999/xlink">
  <polygon points="171,466 354,178 355,178 356,177 407,194 430,123 403,104 441,45 439,44 246,76 69,415 78,420 78,419"
           fill="bisque"/>
  <g stroke="chocolate" stroke-width="1">
    <line x1="78" y1="420" x2="69" y2="415"/>
    <circle cx="78" cy="420" r="2"/>
    <circle cx="69" cy="415" r="2"/>
  </g>
  <g stroke="chocolate" stroke-width="1">
    <line x1="171" y1="466" x2="80" y2="395"/>
    <circle cx="171" cy="466" r="2"/>
    <circle cx="80" cy="395" r="2"/>
  </g>
  <g stroke="chocolate" stroke-width="1">
    <line x1="171" y1="466" x2="69" y2="415"/>
    <circle cx="171" cy="466" r="2"/>
    <circle cx="69" cy="415" r="2"/>
  </g>
  <g stroke="chocolate" stroke-width="1">
    <line x1="103" y1="402" x2="80" y2="395"/>
    <circle cx="103" cy="402" r="2"/>
    <circle cx="80" cy="395" r="2"/>
  </g>
  <g stroke="chocolate" stroke-width="1">
    <line x1="103" y1="402" x2="87" y2="381"/>
    <circle cx="103" cy="402" r="2"/>
    <circle cx="87" cy="381" r="2"/>
  </g>
  <g stroke="chocolate" stroke-width="1">
    <line x1="355" y1="178" x2="246" y2="76"/>
    <circle cx="355" cy="178" r="2"/>
    <circle cx="246" cy="76" r="2"/>
  </g>
  <g stroke="chocolate" stroke-width="1">
    <line x1="344" y1="144" x2="266" y2="73"/>
    <circle cx="344" cy="144" r="2"/>
    <circle cx="266" cy="73" r="2"/>
  </g>
  <g stroke="chocolate" stroke-width="1">
    <line x1="430" y1="123" x2="342" y2="60"/>
    <circle cx="430" cy="123" r="2"/>
    <circle cx="342" cy="60" r="2"/>
  </g>
  <g stroke="chocolate" stroke-width="1">
    <line x1="441" y1="45" x2="439" y2="44"/>
    <circle cx="441" cy="45" r="2"/>
    <circle cx="439" cy="44" r="2"/>
  </g>
  <g stroke="chocolate" stroke-width="1">
    <line x1="407" y1="194" x2="352" y2="176"/>
    <circle cx="407" cy="194" r="2"/>
    <circle cx="352" cy="176" r="2"/>
  </g>
  <g stroke="chocolate" stroke-width="1">
    <line x1="222" y1="386" x2="188" y2="320"/>
    <circle cx="222" cy="386" r="2"/>
    <circle cx="188" cy="320" r="2"/>
  </g>
  <g stroke="chocolate" stroke-width="1">
    <line x1="222" y1="386" x2="87" y2="381"/>
    <circle cx="222" cy="386" r="2"/>
    <circle cx="87" cy="381" r="2"/>
  </g>
  <g stroke="chocolate" stroke-width="1">
    <line x1="352" y1="176" x2="309" y2="66"/>
    <circle cx="352" cy="176" r="2"/>
    <circle cx="309" cy="66" r="2"/>
  </g>
  <g stroke="chocolate" stroke-width="1">
    <line x1="246" y1="76" x2="439" y2="44"/>
    <circle cx="246" cy="76" r="2"/>
    <circle cx="439" cy="44" r="2"/>
  </g>
  <g stroke="chocolate" stroke-width="1">
    <line x1="301" y1="261" x2="309" y2="66"/>
    <circle cx="301" cy="261" r="2"/>
    <circle cx="309" cy="66" r="2"/>
  </g>
  <g stroke="chocolate" stroke-width="1">
    <line x1="188" y1="320" x2="301" y2="261"/>
    <circle cx="188" cy="320" r="2"/>
    <circle cx="301" cy="261" r="2"/>
  </g>
  <g stroke="chocolate" stroke-width="1">
    <line x1="355" y1="178" x2="430" y2="123"/>
    <circle cx="355" cy="178" r="2"/>
    <circle cx="430" cy="123" r="2"/>
  </g>
  <g stroke="chocolate" stroke-width="1">
    <line x1="407" y1="194" x2="430" y2="123"/>
    <circle cx="407" cy="194" r="2"/>
    <circle cx="430" cy="123" r="2"/>
  </g>
  <g stroke="chocolate" stroke-width="1">
    <line x1="332" y1="157" x2="441" y2="45"/>
    <circle cx="332" cy="157" r="2"/>
    <circle cx="441" cy="45" r="2"/>
  </g>
  <g stroke="chocolate" stroke-width="1">
    <line x1="332" y1="157" x2="344" y2="144"/>
    <circle cx="332" cy="157" r="2"/>
    <circle cx="344" cy="144" r="2"/>
  </g>
  <g stroke="chocolate" stroke-width="1">
    <line x1="171" y1="466" x2="439" y2="44"/>
    <circle cx="171" cy="466" r="2"/>
    <circle cx="439" cy="44" r="2"/>
  </g>
  <g stroke="chocolate" stroke-width="1">
    <line x1="355" y1="178" x2="441" y2="45"/>
    <circle cx="355" cy="178" r="2"/>
    <circle cx="441" cy="45" r="2"/>
  </g>
  <g stroke="chocolate" stroke-width="1">
    <line x1="69" y1="415" x2="246" y2="76"/>
    <circle cx="69" cy="415" r="2"/>
    <circle cx="246" cy="76" r="2"/>
  </g>
  <g stroke="chocolate" stroke-width="1">
    <line x1="78" y1="420" x2="266" y2="73"/>
    <circle cx="78" cy="420" r="2"/>
    <circle cx="266" cy="73" r="2"/>
  </g>
  <g stroke="chocolate" stroke-width="1">
    <line x1="103" y1="402" x2="342" y2="60"/>
    <circle cx="103" cy="402" r="2"/>
    <circle cx="342" cy="60" r="2"/>
  </g>
  <g stroke="black" stroke-width="1">
    <line x1="5" y1="5" x2="505" y2="5"/>
    <line x1="5" y1="5" x2="5" y2="505"/>
    <line x1="505" y1="505" x2="5" y2="505"/>
    <line x1="505" y1="505" x2="505" y2="5"/>
    <line x1="105" y1="2" x2="105" y2="8"/>
    <line x1="2" y1="105" x2="8" y2="105"/>
    <line x1="105" y1="502" x2="105" y2="508"/>
    <line x1="502" y1="105" x2="508" y2="105"/>
    <line x1="205" y1="2" x2="205" y2="8"/>
    <line x1="2" y1="205" x2="8" y2="205"/>
    <line x1="205" y1="502" x2="205" y2="508"/>
    <line x1="502" y1="205" x2="508" y2="205"/>
    <line x1="305" y1="2" x2="305" y2="8"/>
    <line x1="2" y1="305" x2="8" y2="305"/>
    <line x1="305" y1="502" x2="305" y2="508"/>
    <line x1="502" y1="305" x2="508" y2="305"/>
    <line x1="405" y1="2" x2="405" y2="8"/>
    <line x1="2" y1="405" x2="8" y2="405"/>
    <line x1="405" y1="502" x2="405" y2="508"/>
    <line x1="502" y1="405" x2="508" y2="405"/>
  </g>
  <g stroke="gray" stroke-width="1" stroke-dasharray="5,5">
    <line x1="105" y1="5" x2="105" y2="505"/>
    <line x1="5" y1="105" x2="505" y2="105"/>
    <line x1="205" y1="5" x2="205" y2="505"/>
    <line x1="5" y1="205" x2="505" y2="205"/>
    <line x1="305" y1="5" x2="305" y2="505"/>
    <line x1="5" y1="305" x2="505" y2="305"/>
    <line x1="405" y1="5" x2="405" y2="505"/>
    <line x1="5" y1="405" x2="505" y2="405"/>
  </g>
</svg>
