<?xml version="1.0" standalone="no"?>
<!DOCTYPE svg PUBLIC "-//W3C//DTD SVG 1.1//EN" 
  "http://www.w3.org/Graphics/SVG/1.1/DTD/svg11.dtd">
<svg width="510" height="510" version="1.1" id="toplevel"
    xmlns="http://www.w3.org/2000/svg"
    xmlns:xlink="http://www.w3.org/1999/xlink">
  <polygon points="7,335 479,325 505,311 501,189 344,194 318,175 304,195 208,198 148,261 53,263 39,256 5,257 6,265 5,265"
           fill="bisque"/>
  <g stroke="chocolate" stroke-width="1">
    <line x1="79" y1="333" x2="6" y2="264"/>
    <circle cx="79" cy="333" r="2"/>
    <circle cx="6" cy="264" r="2"/>
  </g>
  <g stroke="chocolate" stroke-width="1">
    <line x1="100" y1="333" x2="39" y2="256"/>
    <circle cx="100" cy="333" r="2"/>
    <circle cx="39" cy="256" r="2"/>
  </g>
  <g stroke="chocolate" stroke-width="1">
    <line x1="139" y1="332" x2="51" y2="269"/>
    <circle cx="139" cy="332" r="2"/>
    <circle cx="51" cy="269" r="2"/>
  </g>
  <g stroke="chocolate" stroke-width="1">
    <line x1="207" y1="331" x2="152" y2="261"/>
    <circle cx="207" cy="331" r="2"/>
    <circle cx="152" cy="261" r="2"/>
  </g>
  <g stroke="chocolate" stroke-width="1">
    <line x1="391" y1="327" x2="337" y2="257"/>
    <circle cx="391" cy="327" r="2"/>
    <circle cx="337" cy="257" r="2"/>
  </g>
  <g stroke="chocolate" stroke-width="1">
    <line x1="505" y1="311" x2="318" y2="175"/>
    <circle cx="505" cy="311" r="2"/>
    <circle cx="318" cy="175" r="2"/>
  </g>
  <g stroke="chocolate" stroke-width="1">
    <line x1="198" y1="331" x2="39" y2="256"/>
    <circle cx="198" cy="331" r="2"/>
    <circle cx="39" cy="256" r="2"/>
  </g>
  <g stroke="chocolate" stroke-width="1">
    <line x1="438" y1="260" x2="318" y2="175"/>
    <circle cx="438" cy="260" r="2"/>
    <circle cx="318" cy="175" r="2"/>
  </g>
  <g stroke="chocolate" stroke-width="1">
    <line x1="479" y1="325" x2="338" y2="257"/>
    <circle cx="479" cy="325" r="2"/>
    <circle cx="338" cy="257" r="2"/>
  </g>
  <g stroke="chocolate" stroke-width="1">
    <line x1="21" y1="335" x2="7" y2="330"/>
    <circle cx="21" cy="335" r="2"/>
    <circle cx="7" cy="330" r="2"/>
  </g>
  <g stroke="chocolate" stroke-width="1">
    <line x1="210" y1="330" x2="208" y2="260"/>
    <circle cx="210" cy="330" r="2"/>
    <circle cx="208" cy="260" r="2"/>
  </g>
  <g stroke="chocolate" stroke-width="1">
    <line x1="7" y1="335" x2="5" y2="265"/>
    <circle cx="7" cy="335" r="2"/>
    <circle cx="5" cy="265" r="2"/>
  </g>
  <g stroke="chocolate" stroke-width="1">
    <line x1="7" y1="330" x2="5" y2="257"/>
    <circle cx="7" cy="330" r="2"/>
    <circle cx="5" cy="257" r="2"/>
  </g>
  <g stroke="chocolate" stroke-width="1">
    <line x1="505" y1="311" x2="501" y2="189"/>
    <circle cx="505" cy="311" r="2"/>
    <circle cx="501" cy="189" r="2"/>
  </g>
  <g stroke="chocolate" stroke-width="1">
    <line x1="7" y1="335" x2="5" y2="257"/>
    <circle cx="7" cy="335" r="2"/>
    <circle cx="5" cy="257" r="2"/>
  </g>
  <g stroke="chocolate" stroke-width="1">
    <line x1="210" y1="330" x2="208" y2="198"/>
    <circle cx="210" cy="330" r="2"/>
    <circle cx="208" cy="198" r="2"/>
  </g>
  <g stroke="chocolate" stroke-width="1">
    <line x1="208" y1="264" x2="208" y2="260"/>
    <circle cx="208" cy="264" r="2"/>
    <circle cx="208" cy="260" r="2"/>
  </g>
  <g stroke="chocolate" stroke-width="1">
    <line x1="7" y1="335" x2="479" y2="325"/>
    <circle cx="7" cy="335" r="2"/>
    <circle cx="479" cy="325" r="2"/>
  </g>
  <g stroke="chocolate" stroke-width="1">
    <line x1="5" y1="265" x2="208" y2="264"/>
    <circle cx="5" cy="265" r="2"/>
    <circle cx="208" cy="264" r="2"/>
  </g>
  <g stroke="chocolate" stroke-width="1">
    <line x1="231" y1="260" x2="336" y2="258"/>
    <circle cx="231" cy="260" r="2"/>
    <circle cx="336" cy="258" r="2"/>
  </g>
  <g stroke="chocolate" stroke-width="1">
    <line x1="6" y1="264" x2="338" y2="257"/>
    <circle cx="6" cy="264" r="2"/>
    <circle cx="338" cy="257" r="2"/>
  </g>
  <g stroke="chocolate" stroke-width="1">
    <line x1="5" y1="257" x2="39" y2="256"/>
    <circle cx="5" cy="257" r="2"/>
    <circle cx="39" cy="256" r="2"/>
  </g>
  <g stroke="chocolate" stroke-width="1">
    <line x1="208" y1="198" x2="501" y2="189"/>
    <circle cx="208" cy="198" r="2"/>
    <circle cx="501" cy="189" r="2"/>
  </g>
  <g stroke="chocolate" stroke-width="1">
    <line x1="21" y1="335" x2="231" y2="260"/>
    <circle cx="21" cy="335" r="2"/>
    <circle cx="231" cy="260" r="2"/>
  </g>
  <g stroke="chocolate" stroke-width="1">
    <line x1="479" y1="325" x2="505" y2="311"/>
    <circle cx="479" cy="325" r="2"/>
    <circle cx="505" cy="311" r="2"/>
  </g>
  <g stroke="chocolate" stroke-width="1">
    <line x1="198" y1="331" x2="338" y2="257"/>
    <circle cx="198" cy="331" r="2"/>
    <circle cx="338" cy="257" r="2"/>
  </g>
  <g stroke="chocolate" stroke-width="1">
    <line x1="391" y1="327" x2="438" y2="260"/>
    <circle cx="391" cy="327" r="2"/>
    <circle cx="438" cy="260" r="2"/>
  </g>
  <g stroke="chocolate" stroke-width="1">
    <line x1="336" y1="258" x2="337" y2="257"/>
    <circle cx="336" cy="258" r="2"/>
    <circle cx="337" cy="257" r="2"/>
  </g>
  <g stroke="chocolate" stroke-width="1">
    <line x1="207" y1="331" x2="318" y2="175"/>
    <circle cx="207" cy="331" r="2"/>
    <circle cx="318" cy="175" r="2"/>
  </g>
  <g stroke="chocolate" stroke-width="1">
    <line x1="100" y1="333" x2="152" y2="261"/>
    <circle cx="100" cy="333" r="2"/>
    <circle cx="152" cy="261" r="2"/>
  </g>
  <g stroke="chocolate" stroke-width="1">
    <line x1="139" y1="332" x2="231" y2="260"/>
    <circle cx="139" cy="332" r="2"/>
    <circle cx="231" cy="260" r="2"/>
  </g>
  <g stroke="chocolate" stroke-width="1">
    <line x1="7" y1="330" x2="51" y2="269"/>
    <circle cx="7" cy="330" r="2"/>
    <circle cx="51" cy="269" r="2"/>
  </g>
  <g stroke="chocolate" stroke-width="1">
    <line x1="79" y1="333" x2="208" y2="198"/>
    <circle cx="79" cy="333" r="2"/>
    <circle cx="208" cy="198" r="2"/>
  </g>
  <g stroke="chocolate" stroke-width="1">
    <line x1="5" y1="265" x2="6" y2="264"/>
    <circle cx="5" cy="265" r="2"/>
    <circle cx="6" cy="264" r="2"/>
  </g>
  <g stroke="black" stroke-width="1">
    <line x1="5" y1="5" x2="505" y2="5"/>
    <line x1="5" y1="5" x2="5" y2="505"/>
    <line x1="505" y1="505" x2="5" y2="505"/>
    <line x1="505" y1="505" x2="505" y2="5"/>
    <line x1="105" y1="2" x2="105" y2="8"/>
    <line x1="2" y1="105" x2="8" y2="105"/>
    <line x1="105" y1="502" x2="105" y2="508"/>
    <line x1="502" y1="105" x2="508" y2="105"/>
    <line x1="205" y1="2" x2="205" y2="8"/>
    <line x1="2" y1="205" x2="8" y2="205"/>
    <line x1="205" y1="502" x2="205" y2="508"/>
    <line x1="502" y1="205" x2="508" y2="205"/>
    <line x1="305" y1="2" x2="305" y2="8"/>
    <line x1="2" y1="305" x2="8" y2="305"/>
    <line x1="305" y1="502" x2="305" y2="508"/>
    <line x1="502" y1="305" x2="508" y2="305"/>
    <line x1="405" y1="2" x2="405" y2="8"/>
    <line x1="2" y1="405" x2="8" y2="405"/>
    <line x1="405" y1="502" x2="405" y2="508"/>
    <line x1="502" y1="405" x2="508" y2="405"/>
  </g>
  <g stroke="gray" stroke-width="1" stroke-dasharray="5,5">
    <line x1="105" y1="5" x2="105" y2="505"/>
    <line x1="5" y1="105" x2="505" y2="105"/>
    <line x1="205" y1="5" x2="205" y2="505"/>
    <line x1="5" y1="205" x2="505" y2="205"/>
    <line x1="305" y1="5" x2="305" y2="505"/>
    <line x1="5" y1="305" x2="505" y2="305"/>
    <line x1="405" y1="5" x2="405" y2="505"/>
    <line x1="5" y1="405" x2="505" y2="405"/>
  </g>
</svg>
