<?xml version="1.0" standalone="no"?>
<!DOCTYPE svg PUBLIC "-//W3C//DTD SVG 1.1//EN" 
  "http://www.w3.org/Graphics/SVG/1.1/DTD/svg11.dtd">
<svg width="594" height="594" version="1.1" id="toplevel"
    xmlns="http://www.w3.org/2000/svg"
    xmlns:xlink="http://www.w3.org/1999/xlink">
  <polygon points="474,589 519,528 360,76 287,5 220,58 226,75 231,80 75,287 75,289"
           fill="bisque"/>
  <g stroke="chocolate" stroke-width="1">
    <line x1="367" y1="489" x2="477" y2="407"/>
    <circle cx="367" cy="489" r="2"/>
    <circle cx="477" cy="407" r="2"/>
  </g>
  <g stroke="chocolate" stroke-width="1">
    <line x1="474" y1="589" x2="519" y2="528"/>
    <circle cx="474" cy="589" r="2"/>
    <circle cx="519" cy="528" r="2"/>
  </g>
  <g stroke="chocolate" stroke-width="1">
    <line x1="398" y1="410" x2="477" y2="407"/>
    <circle cx="398" cy="410" r="2"/>
    <circle cx="477" cy="407" r="2"/>
  </g>
  <g stroke="chocolate" stroke-width="1">
    <line x1="398" y1="410" x2="448" y2="409"/>
    <circle cx="398" cy="410" r="2"/>
    <circle cx="448" cy="409" r="2"/>
  </g>
  <g stroke="chocolate" stroke-width="1">
    <line x1="346" y1="192" x2="389" y2="158"/>
    <circle cx="346" cy="192" r="2"/>
    <circle cx="389" cy="158" r="2"/>
  </g>
  <g stroke="chocolate" stroke-width="1">
    <line x1="355" y1="118" x2="370" y2="105"/>
    <circle cx="355" cy="118" r="2"/>
    <circle cx="370" cy="105" r="2"/>
  </g>
  <g stroke="chocolate" stroke-width="1">
    <line x1="283" y1="121" x2="303" y2="106"/>
    <circle cx="283" cy="121" r="2"/>
    <circle cx="303" cy="106" r="2"/>
  </g>
  <g stroke="chocolate" stroke-width="1">
    <line x1="75" y1="289" x2="76" y2="289"/>
    <circle cx="75" cy="289" r="2"/>
    <circle cx="76" cy="289" r="2"/>
  </g>
  <g stroke="chocolate" stroke-width="1">
    <line x1="519" y1="528" x2="367" y2="489"/>
    <circle cx="519" cy="528" r="2"/>
    <circle cx="367" cy="489" r="2"/>
  </g>
  <g stroke="chocolate" stroke-width="1">
    <line x1="252" y1="65" x2="265" y2="57"/>
    <circle cx="252" cy="65" r="2"/>
    <circle cx="265" cy="57" r="2"/>
  </g>
  <g stroke="chocolate" stroke-width="1">
    <line x1="220" y1="58" x2="287" y2="5"/>
    <circle cx="220" cy="58" r="2"/>
    <circle cx="287" cy="5" r="2"/>
  </g>
  <g stroke="chocolate" stroke-width="1">
    <line x1="331" y1="311" x2="395" y2="176"/>
    <circle cx="331" cy="311" r="2"/>
    <circle cx="395" cy="176" r="2"/>
  </g>
  <g stroke="chocolate" stroke-width="1">
    <line x1="75" y1="287" x2="287" y2="5"/>
    <circle cx="75" cy="287" r="2"/>
    <circle cx="287" cy="5" r="2"/>
  </g>
  <g stroke="chocolate" stroke-width="1">
    <line x1="375" y1="159" x2="389" y2="158"/>
    <circle cx="375" cy="159" r="2"/>
    <circle cx="389" cy="158" r="2"/>
  </g>
  <g stroke="chocolate" stroke-width="1">
    <line x1="251" y1="106" x2="370" y2="105"/>
    <circle cx="251" cy="106" r="2"/>
    <circle cx="370" cy="105" r="2"/>
  </g>
  <g stroke="chocolate" stroke-width="1">
    <line x1="220" y1="58" x2="265" y2="57"/>
    <circle cx="220" cy="58" r="2"/>
    <circle cx="265" cy="57" r="2"/>
  </g>
  <g stroke="chocolate" stroke-width="1">
    <line x1="331" y1="311" x2="360" y2="76"/>
    <circle cx="331" cy="311" r="2"/>
    <circle cx="360" cy="76" r="2"/>
  </g>
  <g stroke="chocolate" stroke-width="1">
    <line x1="474" y1="589" x2="75" y2="289"/>
    <circle cx="474" cy="589" r="2"/>
    <circle cx="75" cy="289" r="2"/>
  </g>
  <g stroke="chocolate" stroke-width="1">
    <line x1="375" y1="159" x2="330" y2="144"/>
    <circle cx="375" cy="159" r="2"/>
    <circle cx="330" cy="144" r="2"/>
  </g>
  <g stroke="chocolate" stroke-width="1">
    <line x1="75" y1="289" x2="75" y2="287"/>
    <circle cx="75" cy="289" r="2"/>
    <circle cx="75" cy="287" r="2"/>
  </g>
  <g stroke="chocolate" stroke-width="1">
    <line x1="448" y1="409" x2="447" y2="321"/>
    <circle cx="448" cy="409" r="2"/>
    <circle cx="447" cy="321" r="2"/>
  </g>
  <g stroke="chocolate" stroke-width="1">
    <line x1="283" y1="121" x2="282" y2="118"/>
    <circle cx="283" cy="121" r="2"/>
    <circle cx="282" cy="118" r="2"/>
  </g>
  <g stroke="chocolate" stroke-width="1">
    <line x1="398" y1="410" x2="392" y2="166"/>
    <circle cx="398" cy="410" r="2"/>
    <circle cx="392" cy="166" r="2"/>
  </g>
  <g stroke="chocolate" stroke-width="1">
    <line x1="76" y1="289" x2="75" y2="287"/>
    <circle cx="76" cy="289" r="2"/>
    <circle cx="75" cy="287" r="2"/>
  </g>
  <g stroke="chocolate" stroke-width="1">
    <line x1="395" y1="176" x2="251" y2="106"/>
    <circle cx="395" cy="176" r="2"/>
    <circle cx="251" cy="106" r="2"/>
  </g>
  <g stroke="chocolate" stroke-width="1">
    <line x1="367" y1="489" x2="331" y2="311"/>
    <circle cx="367" cy="489" r="2"/>
    <circle cx="331" cy="311" r="2"/>
  </g>
  <g stroke="chocolate" stroke-width="1">
    <line x1="282" y1="118" x2="265" y2="57"/>
    <circle cx="282" cy="118" r="2"/>
    <circle cx="265" cy="57" r="2"/>
  </g>
  <g stroke="chocolate" stroke-width="1">
    <line x1="330" y1="144" x2="226" y2="75"/>
    <circle cx="330" cy="144" r="2"/>
    <circle cx="226" cy="75" r="2"/>
  </g>
  <g stroke="chocolate" stroke-width="1">
    <line x1="226" y1="75" x2="220" y2="58"/>
    <circle cx="226" cy="75" r="2"/>
    <circle cx="220" cy="58" r="2"/>
  </g>
  <g stroke="chocolate" stroke-width="1">
    <line x1="375" y1="159" x2="303" y2="106"/>
    <circle cx="375" cy="159" r="2"/>
    <circle cx="303" cy="106" r="2"/>
  </g>
  <g stroke="chocolate" stroke-width="1">
    <line x1="519" y1="528" x2="360" y2="76"/>
    <circle cx="519" cy="528" r="2"/>
    <circle cx="360" cy="76" r="2"/>
  </g>
  <g stroke="chocolate" stroke-width="1">
    <line x1="251" y1="106" x2="226" y2="75"/>
    <circle cx="251" cy="106" r="2"/>
    <circle cx="226" cy="75" r="2"/>
  </g>
  <g stroke="chocolate" stroke-width="1">
    <line x1="282" y1="118" x2="252" y2="65"/>
    <circle cx="282" cy="118" r="2"/>
    <circle cx="252" cy="65" r="2"/>
  </g>
  <g stroke="chocolate" stroke-width="1">
    <line x1="447" y1="321" x2="346" y2="192"/>
    <circle cx="447" cy="321" r="2"/>
    <circle cx="346" cy="192" r="2"/>
  </g>
  <g stroke="chocolate" stroke-width="1">
    <line x1="392" y1="166" x2="355" y2="118"/>
    <circle cx="392" cy="166" r="2"/>
    <circle cx="355" cy="118" r="2"/>
  </g>
  <g stroke="chocolate" stroke-width="1">
    <line x1="360" y1="76" x2="287" y2="5"/>
    <circle cx="360" cy="76" r="2"/>
    <circle cx="287" cy="5" r="2"/>
  </g>
  <g stroke="black" stroke-width="1">
    <line x1="47" y1="47" x2="547" y2="47"/>
    <line x1="47" y1="47" x2="47" y2="547"/>
    <line x1="547" y1="547" x2="47" y2="547"/>
    <line x1="547" y1="547" x2="547" y2="47"/>
    <line x1="147" y1="44" x2="147" y2="50"/>
    <line x1="44" y1="147" x2="50" y2="147"/>
    <line x1="147" y1="544" x2="147" y2="550"/>
    <line x1="544" y1="147" x2="550" y2="147"/>
    <line x1="247" y1="44" x2="247" y2="50"/>
    <line x1="44" y1="247" x2="50" y2="247"/>
    <line x1="247" y1="544" x2="247" y2="550"/>
    <line x1="544" y1="247" x2="550" y2="247"/>
    <line x1="347" y1="44" x2="347" y2="50"/>
    <line x1="44" y1="347" x2="50" y2="347"/>
    <line x1="347" y1="544" x2="347" y2="550"/>
    <line x1="544" y1="347" x2="550" y2="347"/>
    <line x1="447" y1="44" x2="447" y2="50"/>
    <line x1="44" y1="447" x2="50" y2="447"/>
    <line x1="447" y1="544" x2="447" y2="550"/>
    <line x1="544" y1="447" x2="550" y2="447"/>
  </g>
  <g stroke="gray" stroke-width="1" stroke-dasharray="5,5">
    <line x1="147" y1="47" x2="147" y2="547"/>
    <line x1="47" y1="147" x2="547" y2="147"/>
    <line x1="247" y1="47" x2="247" y2="547"/>
    <line x1="47" y1="247" x2="547" y2="247"/>
    <line x1="347" y1="47" x2="347" y2="547"/>
    <line x1="47" y1="347" x2="547" y2="347"/>
    <line x1="447" y1="47" x2="447" y2="547"/>
    <line x1="47" y1="447" x2="547" y2="447"/>
  </g>
</svg>
