<?xml version="1.0" standalone="no"?>
<!DOCTYPE svg PUBLIC "-//W3C//DTD SVG 1.1//EN" 
  "http://www.w3.org/Graphics/SVG/1.1/DTD/svg11.dtd">
<svg width="510" height="510" version="1.1" id="toplevel"
    xmlns="http://www.w3.org/2000/svg"
    xmlns:xlink="http://www.w3.org/1999/xlink">
  <polygon points="303,429 331,389 359,424 363,425 392,328 337,168 207,195 118,341 156,364 149,390 213,421 237,412"
           fill="bisque"/>
  <g stroke="chocolate" stroke-width="1">
    <line x1="303" y1="429" x2="376" y2="324"/>
    <circle cx="303" cy="429" r="2"/>
    <circle cx="376" cy="324" r="2"/>
  </g>
  <g stroke="chocolate" stroke-width="1">
    <line x1="363" y1="425" x2="392" y2="328"/>
    <circle cx="363" cy="425" r="2"/>
    <circle cx="392" cy="328" r="2"/>
  </g>
  <g stroke="chocolate" stroke-width="1">
    <line x1="303" y1="429" x2="357" y2="264"/>
    <circle cx="303" cy="429" r="2"/>
    <circle cx="357" cy="264" r="2"/>
  </g>
  <g stroke="chocolate" stroke-width="1">
    <line x1="213" y1="421" x2="272" y2="291"/>
    <circle cx="213" cy="421" r="2"/>
    <circle cx="272" cy="291" r="2"/>
  </g>
  <g stroke="chocolate" stroke-width="1">
    <line x1="193" y1="386" x2="234" y2="281"/>
    <circle cx="193" cy="386" r="2"/>
    <circle cx="234" cy="281" r="2"/>
  </g>
  <g stroke="chocolate" stroke-width="1">
    <line x1="182" y1="332" x2="223" y2="280"/>
    <circle cx="182" cy="332" r="2"/>
    <circle cx="223" cy="280" r="2"/>
  </g>
  <g stroke="chocolate" stroke-width="1">
    <line x1="182" y1="332" x2="283" y2="205"/>
    <circle cx="182" cy="332" r="2"/>
    <circle cx="283" cy="205" r="2"/>
  </g>
  <g stroke="chocolate" stroke-width="1">
    <line x1="149" y1="390" x2="203" y2="271"/>
    <circle cx="149" cy="390" r="2"/>
    <circle cx="203" cy="271" r="2"/>
  </g>
  <g stroke="chocolate" stroke-width="1">
    <line x1="118" y1="341" x2="207" y2="195"/>
    <circle cx="118" cy="341" r="2"/>
    <circle cx="207" cy="195" r="2"/>
  </g>
  <g stroke="chocolate" stroke-width="1">
    <line x1="149" y1="390" x2="196" y2="223"/>
    <circle cx="149" cy="390" r="2"/>
    <circle cx="196" cy="223" r="2"/>
  </g>
  <g stroke="chocolate" stroke-width="1">
    <line x1="213" y1="421" x2="341" y2="374"/>
    <circle cx="213" cy="421" r="2"/>
    <circle cx="341" cy="374" r="2"/>
  </g>
  <g stroke="chocolate" stroke-width="1">
    <line x1="193" y1="386" x2="376" y2="324"/>
    <circle cx="193" cy="386" r="2"/>
    <circle cx="376" cy="324" r="2"/>
  </g>
  <g stroke="chocolate" stroke-width="1">
    <line x1="341" y1="374" x2="341" y2="217"/>
    <circle cx="341" cy="374" r="2"/>
    <circle cx="341" cy="217" r="2"/>
  </g>
  <g stroke="chocolate" stroke-width="1">
    <line x1="297" y1="390" x2="294" y2="290"/>
    <circle cx="297" cy="390" r="2"/>
    <circle cx="294" cy="290" r="2"/>
  </g>
  <g stroke="chocolate" stroke-width="1">
    <line x1="359" y1="424" x2="341" y2="217"/>
    <circle cx="359" cy="424" r="2"/>
    <circle cx="341" cy="217" r="2"/>
  </g>
  <g stroke="chocolate" stroke-width="1">
    <line x1="238" y1="315" x2="234" y2="281"/>
    <circle cx="238" cy="315" r="2"/>
    <circle cx="234" cy="281" r="2"/>
  </g>
  <g stroke="chocolate" stroke-width="1">
    <line x1="238" y1="315" x2="320" y2="292"/>
    <circle cx="238" cy="315" r="2"/>
    <circle cx="320" cy="292" r="2"/>
  </g>
  <g stroke="chocolate" stroke-width="1">
    <line x1="196" y1="223" x2="337" y2="168"/>
    <circle cx="196" cy="223" r="2"/>
    <circle cx="337" cy="168" r="2"/>
  </g>
  <g stroke="chocolate" stroke-width="1">
    <line x1="376" y1="324" x2="337" y2="168"/>
    <circle cx="376" cy="324" r="2"/>
    <circle cx="337" cy="168" r="2"/>
  </g>
  <g stroke="chocolate" stroke-width="1">
    <line x1="238" y1="315" x2="223" y2="280"/>
    <circle cx="238" cy="315" r="2"/>
    <circle cx="223" cy="280" r="2"/>
  </g>
  <g stroke="chocolate" stroke-width="1">
    <line x1="303" y1="429" x2="149" y2="390"/>
    <circle cx="303" cy="429" r="2"/>
    <circle cx="149" cy="390" r="2"/>
  </g>
  <g stroke="chocolate" stroke-width="1">
    <line x1="392" y1="328" x2="337" y2="168"/>
    <circle cx="392" cy="328" r="2"/>
    <circle cx="337" cy="168" r="2"/>
  </g>
  <g stroke="chocolate" stroke-width="1">
    <line x1="272" y1="291" x2="294" y2="290"/>
    <circle cx="272" cy="291" r="2"/>
    <circle cx="294" cy="290" r="2"/>
  </g>
  <g stroke="chocolate" stroke-width="1">
    <line x1="213" y1="421" x2="149" y2="390"/>
    <circle cx="213" cy="421" r="2"/>
    <circle cx="149" cy="390" r="2"/>
  </g>
  <g stroke="chocolate" stroke-width="1">
    <line x1="203" y1="271" x2="357" y2="264"/>
    <circle cx="203" cy="271" r="2"/>
    <circle cx="357" cy="264" r="2"/>
  </g>
  <g stroke="chocolate" stroke-width="1">
    <line x1="363" y1="425" x2="359" y2="424"/>
    <circle cx="363" cy="425" r="2"/>
    <circle cx="359" cy="424" r="2"/>
  </g>
  <g stroke="chocolate" stroke-width="1">
    <line x1="207" y1="195" x2="337" y2="168"/>
    <circle cx="207" cy="195" r="2"/>
    <circle cx="337" cy="168" r="2"/>
  </g>
  <g stroke="chocolate" stroke-width="1">
    <line x1="193" y1="386" x2="118" y2="341"/>
    <circle cx="193" cy="386" r="2"/>
    <circle cx="118" cy="341" r="2"/>
  </g>
  <g stroke="chocolate" stroke-width="1">
    <line x1="297" y1="390" x2="203" y2="271"/>
    <circle cx="297" cy="390" r="2"/>
    <circle cx="203" cy="271" r="2"/>
  </g>
  <g stroke="chocolate" stroke-width="1">
    <line x1="196" y1="223" x2="341" y2="217"/>
    <circle cx="196" cy="223" r="2"/>
    <circle cx="341" cy="217" r="2"/>
  </g>
  <g stroke="chocolate" stroke-width="1">
    <line x1="320" y1="292" x2="223" y2="280"/>
    <circle cx="320" cy="292" r="2"/>
    <circle cx="223" cy="280" r="2"/>
  </g>
  <g stroke="chocolate" stroke-width="1">
    <line x1="303" y1="429" x2="182" y2="332"/>
    <circle cx="303" cy="429" r="2"/>
    <circle cx="182" cy="332" r="2"/>
  </g>
  <g stroke="chocolate" stroke-width="1">
    <line x1="359" y1="424" x2="196" y2="223"/>
    <circle cx="359" cy="424" r="2"/>
    <circle cx="196" cy="223" r="2"/>
  </g>
  <g stroke="chocolate" stroke-width="1">
    <line x1="341" y1="374" x2="272" y2="291"/>
    <circle cx="341" cy="374" r="2"/>
    <circle cx="272" cy="291" r="2"/>
  </g>
  <g stroke="chocolate" stroke-width="1">
    <line x1="376" y1="324" x2="320" y2="292"/>
    <circle cx="376" cy="324" r="2"/>
    <circle cx="320" cy="292" r="2"/>
  </g>
  <g stroke="chocolate" stroke-width="1">
    <line x1="392" y1="328" x2="207" y2="195"/>
    <circle cx="392" cy="328" r="2"/>
    <circle cx="207" cy="195" r="2"/>
  </g>
  <g stroke="chocolate" stroke-width="1">
    <line x1="357" y1="264" x2="283" y2="205"/>
    <circle cx="357" cy="264" r="2"/>
    <circle cx="283" cy="205" r="2"/>
  </g>
  <g stroke="black" stroke-width="1">
    <line x1="5" y1="5" x2="505" y2="5"/>
    <line x1="5" y1="5" x2="5" y2="505"/>
    <line x1="505" y1="505" x2="5" y2="505"/>
    <line x1="505" y1="505" x2="505" y2="5"/>
    <line x1="105" y1="2" x2="105" y2="8"/>
    <line x1="2" y1="105" x2="8" y2="105"/>
    <line x1="105" y1="502" x2="105" y2="508"/>
    <line x1="502" y1="105" x2="508" y2="105"/>
    <line x1="205" y1="2" x2="205" y2="8"/>
    <line x1="2" y1="205" x2="8" y2="205"/>
    <line x1="205" y1="502" x2="205" y2="508"/>
    <line x1="502" y1="205" x2="508" y2="205"/>
    <line x1="305" y1="2" x2="305" y2="8"/>
    <line x1="2" y1="305" x2="8" y2="305"/>
    <line x1="305" y1="502" x2="305" y2="508"/>
    <line x1="502" y1="305" x2="508" y2="305"/>
    <line x1="405" y1="2" x2="405" y2="8"/>
    <line x1="2" y1="405" x2="8" y2="405"/>
    <line x1="405" y1="502" x2="405" y2="508"/>
    <line x1="502" y1="405" x2="508" y2="405"/>
  </g>
  <g stroke="gray" stroke-width="1" stroke-dasharray="5,5">
    <line x1="105" y1="5" x2="105" y2="505"/>
    <line x1="5" y1="105" x2="505" y2="105"/>
    <line x1="205" y1="5" x2="205" y2="505"/>
    <line x1="5" y1="205" x2="505" y2="205"/>
    <line x1="305" y1="5" x2="305" y2="505"/>
    <line x1="5" y1="305" x2="505" y2="305"/>
    <line x1="405" y1="5" x2="405" y2="505"/>
    <line x1="5" y1="405" x2="505" y2="405"/>
  </g>
</svg>
