<?xml version="1.0" standalone="no"?>
<!DOCTYPE svg PUBLIC "-//W3C//DTD SVG 1.1//EN" 
  "http://www.w3.org/Graphics/SVG/1.1/DTD/svg11.dtd">
<svg width="510" height="510" version="1.1" id="toplevel"
    xmlns="http://www.w3.org/2000/svg"
    xmlns:xlink="http://www.w3.org/1999/xlink">
  <polygon points="191,319 192,318 318,318 255,255 212,255 218,237 176,224 217,98 189,42 161,126 50,182 86,255"
           fill="bisque"/>
  <g stroke="chocolate" stroke-width="1">
    <line x1="191" y1="319" x2="218" y2="237"/>
    <circle cx="191" cy="319" r="2"/>
    <circle cx="218" cy="237" r="2"/>
  </g>
  <g stroke="chocolate" stroke-width="1">
    <line x1="152" y1="295" x2="217" y2="98"/>
    <circle cx="152" cy="295" r="2"/>
    <circle cx="217" cy="98" r="2"/>
  </g>
  <g stroke="chocolate" stroke-width="1">
    <line x1="113" y1="272" x2="189" y2="42"/>
    <circle cx="113" cy="272" r="2"/>
    <circle cx="189" cy="42" r="2"/>
  </g>
  <g stroke="chocolate" stroke-width="1">
    <line x1="191" y1="319" x2="255" y2="255"/>
    <circle cx="191" cy="319" r="2"/>
    <circle cx="255" cy="255" r="2"/>
  </g>
  <g stroke="chocolate" stroke-width="1">
    <line x1="78" y1="238" x2="105" y2="154"/>
    <circle cx="78" cy="238" r="2"/>
    <circle cx="105" cy="154" r="2"/>
  </g>
  <g stroke="chocolate" stroke-width="1">
    <line x1="152" y1="295" x2="192" y2="255"/>
    <circle cx="152" cy="295" r="2"/>
    <circle cx="192" cy="255" r="2"/>
  </g>
  <g stroke="chocolate" stroke-width="1">
    <line x1="113" y1="272" x2="130" y2="255"/>
    <circle cx="113" cy="272" r="2"/>
    <circle cx="130" cy="255" r="2"/>
  </g>
  <g stroke="chocolate" stroke-width="1">
    <line x1="86" y1="255" x2="50" y2="182"/>
    <circle cx="86" cy="255" r="2"/>
    <circle cx="50" cy="182" r="2"/>
  </g>
  <g stroke="chocolate" stroke-width="1">
    <line x1="188" y1="318" x2="105" y2="154"/>
    <circle cx="188" cy="318" r="2"/>
    <circle cx="105" cy="154" r="2"/>
  </g>
  <g stroke="chocolate" stroke-width="1">
    <line x1="217" y1="98" x2="189" y2="42"/>
    <circle cx="217" cy="98" r="2"/>
    <circle cx="189" cy="42" r="2"/>
  </g>
  <g stroke="chocolate" stroke-width="1">
    <line x1="188" y1="318" x2="318" y2="318"/>
    <circle cx="188" cy="318" r="2"/>
    <circle cx="318" cy="318" r="2"/>
  </g>
  <g stroke="chocolate" stroke-width="1">
    <line x1="192" y1="318" x2="130" y2="255"/>
    <circle cx="192" cy="318" r="2"/>
    <circle cx="130" cy="255" r="2"/>
  </g>
  <g stroke="chocolate" stroke-width="1">
    <line x1="191" y1="319" x2="86" y2="255"/>
    <circle cx="191" cy="319" r="2"/>
    <circle cx="86" cy="255" r="2"/>
  </g>
  <g stroke="chocolate" stroke-width="1">
    <line x1="224" y1="286" x2="192" y2="255"/>
    <circle cx="224" cy="286" r="2"/>
    <circle cx="192" cy="255" r="2"/>
  </g>
  <g stroke="chocolate" stroke-width="1">
    <line x1="50" y1="182" x2="217" y2="98"/>
    <circle cx="50" cy="182" r="2"/>
    <circle cx="217" cy="98" r="2"/>
  </g>
  <g stroke="chocolate" stroke-width="1">
    <line x1="86" y1="255" x2="255" y2="255"/>
    <circle cx="86" cy="255" r="2"/>
    <circle cx="255" cy="255" r="2"/>
  </g>
  <g stroke="chocolate" stroke-width="1">
    <line x1="318" y1="318" x2="255" y2="255"/>
    <circle cx="318" cy="318" r="2"/>
    <circle cx="255" cy="255" r="2"/>
  </g>
  <g stroke="chocolate" stroke-width="1">
    <line x1="204" y1="279" x2="78" y2="238"/>
    <circle cx="204" cy="279" r="2"/>
    <circle cx="78" cy="238" r="2"/>
  </g>
  <g stroke="chocolate" stroke-width="1">
    <line x1="218" y1="237" x2="50" y2="182"/>
    <circle cx="218" cy="237" r="2"/>
    <circle cx="50" cy="182" r="2"/>
  </g>
  <g stroke="black" stroke-width="1">
    <line x1="5" y1="5" x2="505" y2="5"/>
    <line x1="5" y1="5" x2="5" y2="505"/>
    <line x1="505" y1="505" x2="5" y2="505"/>
    <line x1="505" y1="505" x2="505" y2="5"/>
    <line x1="105" y1="2" x2="105" y2="8"/>
    <line x1="2" y1="105" x2="8" y2="105"/>
    <line x1="105" y1="502" x2="105" y2="508"/>
    <line x1="502" y1="105" x2="508" y2="105"/>
    <line x1="205" y1="2" x2="205" y2="8"/>
    <line x1="2" y1="205" x2="8" y2="205"/>
    <line x1="205" y1="502" x2="205" y2="508"/>
    <line x1="502" y1="205" x2="508" y2="205"/>
    <line x1="305" y1="2" x2="305" y2="8"/>
    <line x1="2" y1="305" x2="8" y2="305"/>
    <line x1="305" y1="502" x2="305" y2="508"/>
    <line x1="502" y1="305" x2="508" y2="305"/>
    <line x1="405" y1="2" x2="405" y2="8"/>
    <line x1="2" y1="405" x2="8" y2="405"/>
    <line x1="405" y1="502" x2="405" y2="508"/>
    <line x1="502" y1="405" x2="508" y2="405"/>
  </g>
  <g stroke="gray" stroke-width="1" stroke-dasharray="5,5">
    <line x1="105" y1="5" x2="105" y2="505"/>
    <line x1="5" y1="105" x2="505" y2="105"/>
    <line x1="205" y1="5" x2="205" y2="505"/>
    <line x1="5" y1="205" x2="505" y2="205"/>
    <line x1="305" y1="5" x2="305" y2="505"/>
    <line x1="5" y1="305" x2="505" y2="305"/>
    <line x1="405" y1="5" x2="405" y2="505"/>
    <line x1="5" y1="405" x2="505" y2="405"/>
  </g>
</svg>
