<?xml version="1.0" standalone="no"?>
<!DOCTYPE svg PUBLIC "-//W3C//DTD SVG 1.1//EN" 
  "http://www.w3.org/Graphics/SVG/1.1/DTD/svg11.dtd">
<svg width="510" height="510" version="1.1" id="toplevel"
    xmlns="http://www.w3.org/2000/svg"
    xmlns:xlink="http://www.w3.org/1999/xlink">
  <polygon points="99,505 411,505 442,474 474,474 474,442 505,411 505,99 474,68 474,36 442,36 411,5 99,5 68,36 36,36 36,68 5,99 5,411 36,442 36,474 68,474"
           fill="bisque"/>
  <g stroke="chocolate" stroke-width="1">
    <line x1="411" y1="505" x2="505" y2="411"/>
    <circle cx="411" cy="505" r="2"/>
    <circle cx="505" cy="411" r="2"/>
  </g>
  <g stroke="chocolate" stroke-width="1">
    <line x1="411" y1="474" x2="474" y2="411"/>
    <circle cx="411" cy="474" r="2"/>
    <circle cx="474" cy="411" r="2"/>
  </g>
  <g stroke="chocolate" stroke-width="1">
    <line x1="99" y1="505" x2="411" y2="505"/>
    <circle cx="99" cy="505" r="2"/>
    <circle cx="411" cy="505" r="2"/>
  </g>
  <g stroke="chocolate" stroke-width="1">
    <line x1="5" y1="411" x2="5" y2="99"/>
    <circle cx="5" cy="411" r="2"/>
    <circle cx="5" cy="99" r="2"/>
  </g>
  <g stroke="chocolate" stroke-width="1">
    <line x1="36" y1="474" x2="36" y2="411"/>
    <circle cx="36" cy="474" r="2"/>
    <circle cx="36" cy="411" r="2"/>
  </g>
  <g stroke="chocolate" stroke-width="1">
    <line x1="36" y1="99" x2="36" y2="36"/>
    <circle cx="36" cy="99" r="2"/>
    <circle cx="36" cy="36" r="2"/>
  </g>
  <g stroke="chocolate" stroke-width="1">
    <line x1="99" y1="505" x2="99" y2="474"/>
    <circle cx="99" cy="505" r="2"/>
    <circle cx="99" cy="474" r="2"/>
  </g>
  <g stroke="chocolate" stroke-width="1">
    <line x1="99" y1="36" x2="99" y2="5"/>
    <circle cx="99" cy="36" r="2"/>
    <circle cx="99" cy="5" r="2"/>
  </g>
  <g stroke="chocolate" stroke-width="1">
    <line x1="411" y1="505" x2="411" y2="474"/>
    <circle cx="411" cy="505" r="2"/>
    <circle cx="411" cy="474" r="2"/>
  </g>
  <g stroke="chocolate" stroke-width="1">
    <line x1="411" y1="36" x2="411" y2="5"/>
    <circle cx="411" cy="36" r="2"/>
    <circle cx="411" cy="5" r="2"/>
  </g>
  <g stroke="chocolate" stroke-width="1">
    <line x1="474" y1="474" x2="474" y2="411"/>
    <circle cx="474" cy="474" r="2"/>
    <circle cx="474" cy="411" r="2"/>
  </g>
  <g stroke="chocolate" stroke-width="1">
    <line x1="474" y1="99" x2="474" y2="36"/>
    <circle cx="474" cy="99" r="2"/>
    <circle cx="474" cy="36" r="2"/>
  </g>
  <g stroke="chocolate" stroke-width="1">
    <line x1="505" y1="411" x2="505" y2="99"/>
    <circle cx="505" cy="411" r="2"/>
    <circle cx="505" cy="99" r="2"/>
  </g>
  <g stroke="chocolate" stroke-width="1">
    <line x1="36" y1="474" x2="99" y2="474"/>
    <circle cx="36" cy="474" r="2"/>
    <circle cx="99" cy="474" r="2"/>
  </g>
  <g stroke="chocolate" stroke-width="1">
    <line x1="411" y1="474" x2="474" y2="474"/>
    <circle cx="411" cy="474" r="2"/>
    <circle cx="474" cy="474" r="2"/>
  </g>
  <g stroke="chocolate" stroke-width="1">
    <line x1="99" y1="505" x2="5" y2="411"/>
    <circle cx="99" cy="505" r="2"/>
    <circle cx="5" cy="411" r="2"/>
  </g>
  <g stroke="chocolate" stroke-width="1">
    <line x1="99" y1="474" x2="36" y2="411"/>
    <circle cx="99" cy="474" r="2"/>
    <circle cx="36" cy="411" r="2"/>
  </g>
  <g stroke="chocolate" stroke-width="1">
    <line x1="5" y1="411" x2="36" y2="411"/>
    <circle cx="5" cy="411" r="2"/>
    <circle cx="36" cy="411" r="2"/>
  </g>
  <g stroke="chocolate" stroke-width="1">
    <line x1="474" y1="411" x2="505" y2="411"/>
    <circle cx="474" cy="411" r="2"/>
    <circle cx="505" cy="411" r="2"/>
  </g>
  <g stroke="chocolate" stroke-width="1">
    <line x1="36" y1="99" x2="99" y2="36"/>
    <circle cx="36" cy="99" r="2"/>
    <circle cx="99" cy="36" r="2"/>
  </g>
  <g stroke="chocolate" stroke-width="1">
    <line x1="5" y1="99" x2="99" y2="5"/>
    <circle cx="5" cy="99" r="2"/>
    <circle cx="99" cy="5" r="2"/>
  </g>
  <g stroke="chocolate" stroke-width="1">
    <line x1="5" y1="99" x2="36" y2="99"/>
    <circle cx="5" cy="99" r="2"/>
    <circle cx="36" cy="99" r="2"/>
  </g>
  <g stroke="chocolate" stroke-width="1">
    <line x1="474" y1="99" x2="505" y2="99"/>
    <circle cx="474" cy="99" r="2"/>
    <circle cx="505" cy="99" r="2"/>
  </g>
  <g stroke="chocolate" stroke-width="1">
    <line x1="474" y1="99" x2="411" y2="36"/>
    <circle cx="474" cy="99" r="2"/>
    <circle cx="411" cy="36" r="2"/>
  </g>
  <g stroke="chocolate" stroke-width="1">
    <line x1="505" y1="99" x2="411" y2="5"/>
    <circle cx="505" cy="99" r="2"/>
    <circle cx="411" cy="5" r="2"/>
  </g>
  <g stroke="chocolate" stroke-width="1">
    <line x1="36" y1="36" x2="99" y2="36"/>
    <circle cx="36" cy="36" r="2"/>
    <circle cx="99" cy="36" r="2"/>
  </g>
  <g stroke="chocolate" stroke-width="1">
    <line x1="411" y1="36" x2="474" y2="36"/>
    <circle cx="411" cy="36" r="2"/>
    <circle cx="474" cy="36" r="2"/>
  </g>
  <g stroke="chocolate" stroke-width="1">
    <line x1="99" y1="5" x2="411" y2="5"/>
    <circle cx="99" cy="5" r="2"/>
    <circle cx="411" cy="5" r="2"/>
  </g>
  <g stroke="black" stroke-width="1">
    <line x1="5" y1="5" x2="505" y2="5"/>
    <line x1="5" y1="5" x2="5" y2="505"/>
    <line x1="505" y1="505" x2="5" y2="505"/>
    <line x1="505" y1="505" x2="505" y2="5"/>
    <line x1="105" y1="2" x2="105" y2="8"/>
    <line x1="2" y1="105" x2="8" y2="105"/>
    <line x1="105" y1="502" x2="105" y2="508"/>
    <line x1="502" y1="105" x2="508" y2="105"/>
    <line x1="205" y1="2" x2="205" y2="8"/>
    <line x1="2" y1="205" x2="8" y2="205"/>
    <line x1="205" y1="502" x2="205" y2="508"/>
    <line x1="502" y1="205" x2="508" y2="205"/>
    <line x1="305" y1="2" x2="305" y2="8"/>
    <line x1="2" y1="305" x2="8" y2="305"/>
    <line x1="305" y1="502" x2="305" y2="508"/>
    <line x1="502" y1="305" x2="508" y2="305"/>
    <line x1="405" y1="2" x2="405" y2="8"/>
    <line x1="2" y1="405" x2="8" y2="405"/>
    <line x1="405" y1="502" x2="405" y2="508"/>
    <line x1="502" y1="405" x2="508" y2="405"/>
  </g>
  <g stroke="gray" stroke-width="1" stroke-dasharray="5,5">
    <line x1="105" y1="5" x2="105" y2="505"/>
    <line x1="5" y1="105" x2="505" y2="105"/>
    <line x1="205" y1="5" x2="205" y2="505"/>
    <line x1="5" y1="205" x2="505" y2="205"/>
    <line x1="305" y1="5" x2="305" y2="505"/>
    <line x1="5" y1="305" x2="505" y2="305"/>
    <line x1="405" y1="5" x2="405" y2="505"/>
    <line x1="5" y1="405" x2="505" y2="405"/>
  </g>
</svg>
