<?xml version="1.0" standalone="no"?>
<!DOCTYPE svg PUBLIC "-//W3C//DTD SVG 1.1//EN" 
  "http://www.w3.org/Graphics/SVG/1.1/DTD/svg11.dtd">
<svg width="510" height="510" version="1.1" id="toplevel"
    xmlns="http://www.w3.org/2000/svg"
    xmlns:xlink="http://www.w3.org/1999/xlink">
  <polygon points="394,374 403,333 397,331 397,331 390,329 390,328 383,326 383,326 376,324 401,213 190,165 153,136 107,147 107,285 367,367 367,366 374,368 374,368 381,370 381,370 390,373"
           fill="bisque"/>
  <g stroke="chocolate" stroke-width="1">
    <line x1="388" y1="372" x2="403" y2="333"/>
    <circle cx="388" cy="372" r="2"/>
    <circle cx="403" cy="333" r="2"/>
  </g>
  <g stroke="chocolate" stroke-width="1">
    <line x1="381" y1="370" x2="397" y2="331"/>
    <circle cx="381" cy="370" r="2"/>
    <circle cx="397" cy="331" r="2"/>
  </g>
  <g stroke="chocolate" stroke-width="1">
    <line x1="374" y1="368" x2="390" y2="328"/>
    <circle cx="374" cy="368" r="2"/>
    <circle cx="390" cy="328" r="2"/>
  </g>
  <g stroke="chocolate" stroke-width="1">
    <line x1="367" y1="367" x2="383" y2="326"/>
    <circle cx="367" cy="367" r="2"/>
    <circle cx="383" cy="326" r="2"/>
  </g>
  <g stroke="chocolate" stroke-width="1">
    <line x1="116" y1="232" x2="195" y2="169"/>
    <circle cx="116" cy="232" r="2"/>
    <circle cx="195" cy="169" r="2"/>
  </g>
  <g stroke="chocolate" stroke-width="1">
    <line x1="394" y1="374" x2="403" y2="333"/>
    <circle cx="394" cy="374" r="2"/>
    <circle cx="403" cy="333" r="2"/>
  </g>
  <g stroke="chocolate" stroke-width="1">
    <line x1="388" y1="372" x2="397" y2="331"/>
    <circle cx="388" cy="372" r="2"/>
    <circle cx="397" cy="331" r="2"/>
  </g>
  <g stroke="chocolate" stroke-width="1">
    <line x1="381" y1="370" x2="390" y2="328"/>
    <circle cx="381" cy="370" r="2"/>
    <circle cx="390" cy="328" r="2"/>
  </g>
  <g stroke="chocolate" stroke-width="1">
    <line x1="374" y1="368" x2="383" y2="326"/>
    <circle cx="374" cy="368" r="2"/>
    <circle cx="383" cy="326" r="2"/>
  </g>
  <g stroke="chocolate" stroke-width="1">
    <line x1="367" y1="367" x2="401" y2="213"/>
    <circle cx="367" cy="367" r="2"/>
    <circle cx="401" cy="213" r="2"/>
  </g>
  <g stroke="chocolate" stroke-width="1">
    <line x1="107" y1="285" x2="195" y2="257"/>
    <circle cx="107" cy="285" r="2"/>
    <circle cx="195" cy="257" r="2"/>
  </g>
  <g stroke="chocolate" stroke-width="1">
    <line x1="107" y1="257" x2="195" y2="221"/>
    <circle cx="107" cy="257" r="2"/>
    <circle cx="195" cy="221" r="2"/>
  </g>
  <g stroke="chocolate" stroke-width="1">
    <line x1="107" y1="285" x2="195" y2="257"/>
    <circle cx="107" cy="285" r="2"/>
    <circle cx="195" cy="257" r="2"/>
  </g>
  <g stroke="chocolate" stroke-width="1">
    <line x1="107" y1="284" x2="195" y2="256"/>
    <circle cx="107" cy="284" r="2"/>
    <circle cx="195" cy="256" r="2"/>
  </g>
  <g stroke="chocolate" stroke-width="1">
    <line x1="107" y1="284" x2="195" y2="256"/>
    <circle cx="107" cy="284" r="2"/>
    <circle cx="195" cy="256" r="2"/>
  </g>
  <g stroke="chocolate" stroke-width="1">
    <line x1="107" y1="240" x2="195" y2="212"/>
    <circle cx="107" cy="240" r="2"/>
    <circle cx="195" cy="212" r="2"/>
  </g>
  <g stroke="chocolate" stroke-width="1">
    <line x1="107" y1="240" x2="195" y2="212"/>
    <circle cx="107" cy="240" r="2"/>
    <circle cx="195" cy="212" r="2"/>
  </g>
  <g stroke="chocolate" stroke-width="1">
    <line x1="107" y1="239" x2="195" y2="212"/>
    <circle cx="107" cy="239" r="2"/>
    <circle cx="195" cy="212" r="2"/>
  </g>
  <g stroke="chocolate" stroke-width="1">
    <line x1="107" y1="239" x2="195" y2="211"/>
    <circle cx="107" cy="239" r="2"/>
    <circle cx="195" cy="211" r="2"/>
  </g>
  <g stroke="chocolate" stroke-width="1">
    <line x1="121" y1="286" x2="164" y2="279"/>
    <circle cx="121" cy="286" r="2"/>
    <circle cx="164" cy="279" r="2"/>
  </g>
  <g stroke="chocolate" stroke-width="1">
    <line x1="120" y1="279" x2="163" y2="272"/>
    <circle cx="120" cy="279" r="2"/>
    <circle cx="163" cy="272" r="2"/>
  </g>
  <g stroke="chocolate" stroke-width="1">
    <line x1="120" y1="272" x2="162" y2="265"/>
    <circle cx="120" cy="272" r="2"/>
    <circle cx="162" cy="265" r="2"/>
  </g>
  <g stroke="chocolate" stroke-width="1">
    <line x1="120" y1="265" x2="161" y2="258"/>
    <circle cx="120" cy="265" r="2"/>
    <circle cx="161" cy="258" r="2"/>
  </g>
  <g stroke="chocolate" stroke-width="1">
    <line x1="119" y1="258" x2="160" y2="251"/>
    <circle cx="119" cy="258" r="2"/>
    <circle cx="160" cy="251" r="2"/>
  </g>
  <g stroke="chocolate" stroke-width="1">
    <line x1="121" y1="286" x2="195" y2="286"/>
    <circle cx="121" cy="286" r="2"/>
    <circle cx="195" cy="286" r="2"/>
  </g>
  <g stroke="chocolate" stroke-width="1">
    <line x1="107" y1="285" x2="107" y2="147"/>
    <circle cx="107" cy="285" r="2"/>
    <circle cx="107" cy="147" r="2"/>
  </g>
  <g stroke="chocolate" stroke-width="1">
    <line x1="153" y1="286" x2="153" y2="136"/>
    <circle cx="153" cy="286" r="2"/>
    <circle cx="153" cy="136" r="2"/>
  </g>
  <g stroke="chocolate" stroke-width="1">
    <line x1="195" y1="286" x2="195" y2="169"/>
    <circle cx="195" cy="286" r="2"/>
    <circle cx="195" cy="169" r="2"/>
  </g>
  <g stroke="chocolate" stroke-width="1">
    <line x1="120" y1="279" x2="164" y2="279"/>
    <circle cx="120" cy="279" r="2"/>
    <circle cx="164" cy="279" r="2"/>
  </g>
  <g stroke="chocolate" stroke-width="1">
    <line x1="120" y1="272" x2="163" y2="272"/>
    <circle cx="120" cy="272" r="2"/>
    <circle cx="163" cy="272" r="2"/>
  </g>
  <g stroke="chocolate" stroke-width="1">
    <line x1="120" y1="265" x2="162" y2="265"/>
    <circle cx="120" cy="265" r="2"/>
    <circle cx="162" cy="265" r="2"/>
  </g>
  <g stroke="chocolate" stroke-width="1">
    <line x1="119" y1="258" x2="161" y2="258"/>
    <circle cx="119" cy="258" r="2"/>
    <circle cx="161" cy="258" r="2"/>
  </g>
  <g stroke="chocolate" stroke-width="1">
    <line x1="121" y1="286" x2="116" y2="232"/>
    <circle cx="121" cy="286" r="2"/>
    <circle cx="116" cy="232" r="2"/>
  </g>
  <g stroke="chocolate" stroke-width="1">
    <line x1="120" y1="279" x2="117" y2="232"/>
    <circle cx="120" cy="279" r="2"/>
    <circle cx="117" cy="232" r="2"/>
  </g>
  <g stroke="chocolate" stroke-width="1">
    <line x1="120" y1="272" x2="117" y2="232"/>
    <circle cx="120" cy="272" r="2"/>
    <circle cx="117" cy="232" r="2"/>
  </g>
  <g stroke="chocolate" stroke-width="1">
    <line x1="120" y1="265" x2="117" y2="232"/>
    <circle cx="120" cy="265" r="2"/>
    <circle cx="117" cy="232" r="2"/>
  </g>
  <g stroke="chocolate" stroke-width="1">
    <line x1="161" y1="258" x2="156" y2="200"/>
    <circle cx="161" cy="258" r="2"/>
    <circle cx="156" cy="200" r="2"/>
  </g>
  <g stroke="chocolate" stroke-width="1">
    <line x1="162" y1="265" x2="157" y2="200"/>
    <circle cx="162" cy="265" r="2"/>
    <circle cx="157" cy="200" r="2"/>
  </g>
  <g stroke="chocolate" stroke-width="1">
    <line x1="163" y1="272" x2="157" y2="200"/>
    <circle cx="163" cy="272" r="2"/>
    <circle cx="157" cy="200" r="2"/>
  </g>
  <g stroke="chocolate" stroke-width="1">
    <line x1="164" y1="279" x2="157" y2="199"/>
    <circle cx="164" cy="279" r="2"/>
    <circle cx="157" cy="199" r="2"/>
  </g>
  <g stroke="chocolate" stroke-width="1">
    <line x1="107" y1="147" x2="153" y2="136"/>
    <circle cx="107" cy="147" r="2"/>
    <circle cx="153" cy="136" r="2"/>
  </g>
  <g stroke="chocolate" stroke-width="1">
    <line x1="394" y1="374" x2="390" y2="373"/>
    <circle cx="394" cy="374" r="2"/>
    <circle cx="390" cy="373" r="2"/>
  </g>
  <g stroke="chocolate" stroke-width="1">
    <line x1="160" y1="251" x2="152" y2="204"/>
    <circle cx="160" cy="251" r="2"/>
    <circle cx="152" cy="204" r="2"/>
  </g>
  <g stroke="chocolate" stroke-width="1">
    <line x1="367" y1="367" x2="107" y2="285"/>
    <circle cx="367" cy="367" r="2"/>
    <circle cx="107" cy="285" r="2"/>
  </g>
  <g stroke="chocolate" stroke-width="1">
    <line x1="374" y1="368" x2="107" y2="285"/>
    <circle cx="374" cy="368" r="2"/>
    <circle cx="107" cy="285" r="2"/>
  </g>
  <g stroke="chocolate" stroke-width="1">
    <line x1="381" y1="370" x2="107" y2="284"/>
    <circle cx="381" cy="370" r="2"/>
    <circle cx="107" cy="284" r="2"/>
  </g>
  <g stroke="chocolate" stroke-width="1">
    <line x1="390" y1="373" x2="107" y2="284"/>
    <circle cx="390" cy="373" r="2"/>
    <circle cx="107" cy="284" r="2"/>
  </g>
  <g stroke="chocolate" stroke-width="1">
    <line x1="403" y1="333" x2="107" y2="240"/>
    <circle cx="403" cy="333" r="2"/>
    <circle cx="107" cy="240" r="2"/>
  </g>
  <g stroke="chocolate" stroke-width="1">
    <line x1="397" y1="331" x2="107" y2="240"/>
    <circle cx="397" cy="331" r="2"/>
    <circle cx="107" cy="240" r="2"/>
  </g>
  <g stroke="chocolate" stroke-width="1">
    <line x1="390" y1="328" x2="107" y2="239"/>
    <circle cx="390" cy="328" r="2"/>
    <circle cx="107" cy="239" r="2"/>
  </g>
  <g stroke="chocolate" stroke-width="1">
    <line x1="383" y1="326" x2="107" y2="239"/>
    <circle cx="383" cy="326" r="2"/>
    <circle cx="107" cy="239" r="2"/>
  </g>
  <g stroke="chocolate" stroke-width="1">
    <line x1="390" y1="373" x2="107" y2="257"/>
    <circle cx="390" cy="373" r="2"/>
    <circle cx="107" cy="257" r="2"/>
  </g>
  <g stroke="chocolate" stroke-width="1">
    <line x1="195" y1="257" x2="116" y2="232"/>
    <circle cx="195" cy="257" r="2"/>
    <circle cx="116" cy="232" r="2"/>
  </g>
  <g stroke="chocolate" stroke-width="1">
    <line x1="195" y1="257" x2="117" y2="232"/>
    <circle cx="195" cy="257" r="2"/>
    <circle cx="117" cy="232" r="2"/>
  </g>
  <g stroke="chocolate" stroke-width="1">
    <line x1="195" y1="256" x2="117" y2="232"/>
    <circle cx="195" cy="256" r="2"/>
    <circle cx="117" cy="232" r="2"/>
  </g>
  <g stroke="chocolate" stroke-width="1">
    <line x1="195" y1="256" x2="117" y2="232"/>
    <circle cx="195" cy="256" r="2"/>
    <circle cx="117" cy="232" r="2"/>
  </g>
  <g stroke="chocolate" stroke-width="1">
    <line x1="195" y1="212" x2="156" y2="200"/>
    <circle cx="195" cy="212" r="2"/>
    <circle cx="156" cy="200" r="2"/>
  </g>
  <g stroke="chocolate" stroke-width="1">
    <line x1="195" y1="212" x2="157" y2="200"/>
    <circle cx="195" cy="212" r="2"/>
    <circle cx="157" cy="200" r="2"/>
  </g>
  <g stroke="chocolate" stroke-width="1">
    <line x1="195" y1="212" x2="157" y2="200"/>
    <circle cx="195" cy="212" r="2"/>
    <circle cx="157" cy="200" r="2"/>
  </g>
  <g stroke="chocolate" stroke-width="1">
    <line x1="195" y1="211" x2="157" y2="199"/>
    <circle cx="195" cy="211" r="2"/>
    <circle cx="157" cy="199" r="2"/>
  </g>
  <g stroke="chocolate" stroke-width="1">
    <line x1="401" y1="213" x2="107" y2="147"/>
    <circle cx="401" cy="213" r="2"/>
    <circle cx="107" cy="147" r="2"/>
  </g>
  <g stroke="chocolate" stroke-width="1">
    <line x1="195" y1="221" x2="152" y2="204"/>
    <circle cx="195" cy="221" r="2"/>
    <circle cx="152" cy="204" r="2"/>
  </g>
  <g stroke="chocolate" stroke-width="1">
    <line x1="195" y1="169" x2="153" y2="136"/>
    <circle cx="195" cy="169" r="2"/>
    <circle cx="153" cy="136" r="2"/>
  </g>
  <g stroke="black" stroke-width="1">
    <line x1="5" y1="5" x2="505" y2="5"/>
    <line x1="5" y1="5" x2="5" y2="505"/>
    <line x1="505" y1="505" x2="5" y2="505"/>
    <line x1="505" y1="505" x2="505" y2="5"/>
    <line x1="105" y1="2" x2="105" y2="8"/>
    <line x1="2" y1="105" x2="8" y2="105"/>
    <line x1="105" y1="502" x2="105" y2="508"/>
    <line x1="502" y1="105" x2="508" y2="105"/>
    <line x1="205" y1="2" x2="205" y2="8"/>
    <line x1="2" y1="205" x2="8" y2="205"/>
    <line x1="205" y1="502" x2="205" y2="508"/>
    <line x1="502" y1="205" x2="508" y2="205"/>
    <line x1="305" y1="2" x2="305" y2="8"/>
    <line x1="2" y1="305" x2="8" y2="305"/>
    <line x1="305" y1="502" x2="305" y2="508"/>
    <line x1="502" y1="305" x2="508" y2="305"/>
    <line x1="405" y1="2" x2="405" y2="8"/>
    <line x1="2" y1="405" x2="8" y2="405"/>
    <line x1="405" y1="502" x2="405" y2="508"/>
    <line x1="502" y1="405" x2="508" y2="405"/>
  </g>
  <g stroke="gray" stroke-width="1" stroke-dasharray="5,5">
    <line x1="105" y1="5" x2="105" y2="505"/>
    <line x1="5" y1="105" x2="505" y2="105"/>
    <line x1="205" y1="5" x2="205" y2="505"/>
    <line x1="5" y1="205" x2="505" y2="205"/>
    <line x1="305" y1="5" x2="305" y2="505"/>
    <line x1="5" y1="305" x2="505" y2="305"/>
    <line x1="405" y1="5" x2="405" y2="505"/>
    <line x1="5" y1="405" x2="505" y2="405"/>
  </g>
</svg>
