<?xml version="1.0" standalone="no"?>
<!DOCTYPE svg PUBLIC "-//W3C//DTD SVG 1.1//EN" 
  "http://www.w3.org/Graphics/SVG/1.1/DTD/svg11.dtd">
<svg width="510" height="510" version="1.1" id="toplevel"
    xmlns="http://www.w3.org/2000/svg"
    xmlns:xlink="http://www.w3.org/1999/xlink">
  <polygon points="98,408 109,405 169,293 284,355 472,243 472,110 463,102 409,158 409,169 383,195 257,128 38,195"
           fill="bisque"/>
  <g stroke="chocolate" stroke-width="1">
    <line x1="284" y1="355" x2="50" y2="230"/>
    <circle cx="284" cy="355" r="2"/>
    <circle cx="50" cy="230" r="2"/>
  </g>
  <g stroke="chocolate" stroke-width="1">
    <line x1="327" y1="329" x2="284" y2="289"/>
    <circle cx="327" cy="329" r="2"/>
    <circle cx="284" cy="289" r="2"/>
  </g>
  <g stroke="chocolate" stroke-width="1">
    <line x1="50" y1="230" x2="38" y2="195"/>
    <circle cx="50" cy="230" r="2"/>
    <circle cx="38" cy="195" r="2"/>
  </g>
  <g stroke="chocolate" stroke-width="1">
    <line x1="109" y1="405" x2="82" y2="323"/>
    <circle cx="109" cy="405" r="2"/>
    <circle cx="82" cy="323" r="2"/>
  </g>
  <g stroke="chocolate" stroke-width="1">
    <line x1="409" y1="280" x2="172" y2="154"/>
    <circle cx="409" cy="280" r="2"/>
    <circle cx="172" cy="154" r="2"/>
  </g>
  <g stroke="chocolate" stroke-width="1">
    <line x1="98" y1="408" x2="38" y2="195"/>
    <circle cx="98" cy="408" r="2"/>
    <circle cx="38" cy="195" r="2"/>
  </g>
  <g stroke="chocolate" stroke-width="1">
    <line x1="165" y1="300" x2="122" y2="169"/>
    <circle cx="165" cy="300" r="2"/>
    <circle cx="122" cy="169" r="2"/>
  </g>
  <g stroke="chocolate" stroke-width="1">
    <line x1="226" y1="324" x2="208" y2="268"/>
    <circle cx="226" cy="324" r="2"/>
    <circle cx="208" cy="268" r="2"/>
  </g>
  <g stroke="chocolate" stroke-width="1">
    <line x1="154" y1="286" x2="122" y2="169"/>
    <circle cx="154" cy="286" r="2"/>
    <circle cx="122" cy="169" r="2"/>
  </g>
  <g stroke="chocolate" stroke-width="1">
    <line x1="472" y1="224" x2="409" y2="158"/>
    <circle cx="472" cy="224" r="2"/>
    <circle cx="409" cy="158" r="2"/>
  </g>
  <g stroke="chocolate" stroke-width="1">
    <line x1="472" y1="243" x2="257" y2="128"/>
    <circle cx="472" cy="243" r="2"/>
    <circle cx="257" cy="128" r="2"/>
  </g>
  <g stroke="chocolate" stroke-width="1">
    <line x1="327" y1="329" x2="282" y2="166"/>
    <circle cx="327" cy="329" r="2"/>
    <circle cx="282" cy="166" r="2"/>
  </g>
  <g stroke="chocolate" stroke-width="1">
    <line x1="472" y1="110" x2="463" y2="102"/>
    <circle cx="472" cy="110" r="2"/>
    <circle cx="463" cy="102" r="2"/>
  </g>
  <g stroke="chocolate" stroke-width="1">
    <line x1="98" y1="408" x2="109" y2="405"/>
    <circle cx="98" cy="408" r="2"/>
    <circle cx="109" cy="405" r="2"/>
  </g>
  <g stroke="chocolate" stroke-width="1">
    <line x1="284" y1="355" x2="284" y2="289"/>
    <circle cx="284" cy="355" r="2"/>
    <circle cx="284" cy="289" r="2"/>
  </g>
  <g stroke="chocolate" stroke-width="1">
    <line x1="409" y1="280" x2="409" y2="158"/>
    <circle cx="409" cy="280" r="2"/>
    <circle cx="409" cy="158" r="2"/>
  </g>
  <g stroke="chocolate" stroke-width="1">
    <line x1="472" y1="243" x2="472" y2="110"/>
    <circle cx="472" cy="243" r="2"/>
    <circle cx="472" cy="110" r="2"/>
  </g>
  <g stroke="chocolate" stroke-width="1">
    <line x1="226" y1="324" x2="430" y2="268"/>
    <circle cx="226" cy="324" r="2"/>
    <circle cx="430" cy="268" r="2"/>
  </g>
  <g stroke="chocolate" stroke-width="1">
    <line x1="82" y1="323" x2="165" y2="300"/>
    <circle cx="82" cy="323" r="2"/>
    <circle cx="165" cy="300" r="2"/>
  </g>
  <g stroke="chocolate" stroke-width="1">
    <line x1="284" y1="355" x2="472" y2="243"/>
    <circle cx="284" cy="355" r="2"/>
    <circle cx="472" cy="243" r="2"/>
  </g>
  <g stroke="chocolate" stroke-width="1">
    <line x1="154" y1="286" x2="208" y2="268"/>
    <circle cx="154" cy="286" r="2"/>
    <circle cx="208" cy="268" r="2"/>
  </g>
  <g stroke="chocolate" stroke-width="1">
    <line x1="430" y1="268" x2="472" y2="224"/>
    <circle cx="430" cy="268" r="2"/>
    <circle cx="472" cy="224" r="2"/>
  </g>
  <g stroke="chocolate" stroke-width="1">
    <line x1="50" y1="230" x2="282" y2="166"/>
    <circle cx="50" cy="230" r="2"/>
    <circle cx="282" cy="166" r="2"/>
  </g>
  <g stroke="chocolate" stroke-width="1">
    <line x1="284" y1="289" x2="472" y2="110"/>
    <circle cx="284" cy="289" r="2"/>
    <circle cx="472" cy="110" r="2"/>
  </g>
  <g stroke="chocolate" stroke-width="1">
    <line x1="409" y1="158" x2="463" y2="102"/>
    <circle cx="409" cy="158" r="2"/>
    <circle cx="463" cy="102" r="2"/>
  </g>
  <g stroke="chocolate" stroke-width="1">
    <line x1="38" y1="195" x2="257" y2="128"/>
    <circle cx="38" cy="195" r="2"/>
    <circle cx="257" cy="128" r="2"/>
  </g>
  <g stroke="chocolate" stroke-width="1">
    <line x1="109" y1="405" x2="257" y2="128"/>
    <circle cx="109" cy="405" r="2"/>
    <circle cx="257" cy="128" r="2"/>
  </g>
  <g stroke="chocolate" stroke-width="1">
    <line x1="82" y1="323" x2="172" y2="154"/>
    <circle cx="82" cy="323" r="2"/>
    <circle cx="172" cy="154" r="2"/>
  </g>
  <g stroke="black" stroke-width="1">
    <line x1="5" y1="5" x2="505" y2="5"/>
    <line x1="5" y1="5" x2="5" y2="505"/>
    <line x1="505" y1="505" x2="5" y2="505"/>
    <line x1="505" y1="505" x2="505" y2="5"/>
    <line x1="105" y1="2" x2="105" y2="8"/>
    <line x1="2" y1="105" x2="8" y2="105"/>
    <line x1="105" y1="502" x2="105" y2="508"/>
    <line x1="502" y1="105" x2="508" y2="105"/>
    <line x1="205" y1="2" x2="205" y2="8"/>
    <line x1="2" y1="205" x2="8" y2="205"/>
    <line x1="205" y1="502" x2="205" y2="508"/>
    <line x1="502" y1="205" x2="508" y2="205"/>
    <line x1="305" y1="2" x2="305" y2="8"/>
    <line x1="2" y1="305" x2="8" y2="305"/>
    <line x1="305" y1="502" x2="305" y2="508"/>
    <line x1="502" y1="305" x2="508" y2="305"/>
    <line x1="405" y1="2" x2="405" y2="8"/>
    <line x1="2" y1="405" x2="8" y2="405"/>
    <line x1="405" y1="502" x2="405" y2="508"/>
    <line x1="502" y1="405" x2="508" y2="405"/>
  </g>
  <g stroke="gray" stroke-width="1" stroke-dasharray="5,5">
    <line x1="105" y1="5" x2="105" y2="505"/>
    <line x1="5" y1="105" x2="505" y2="105"/>
    <line x1="205" y1="5" x2="205" y2="505"/>
    <line x1="5" y1="205" x2="505" y2="205"/>
    <line x1="305" y1="5" x2="305" y2="505"/>
    <line x1="5" y1="305" x2="505" y2="305"/>
    <line x1="405" y1="5" x2="405" y2="505"/>
    <line x1="5" y1="405" x2="505" y2="405"/>
  </g>
</svg>
