<?xml version="1.0" standalone="no"?>
<!DOCTYPE svg PUBLIC "-//W3C//DTD SVG 1.1//EN" 
  "http://www.w3.org/Graphics/SVG/1.1/DTD/svg11.dtd">
<svg width="510" height="510" version="1.1" id="toplevel"
    xmlns="http://www.w3.org/2000/svg"
    xmlns:xlink="http://www.w3.org/1999/xlink">
  <polygon points="455,388 472,272 422,205 488,155 372,138 305,188 255,122 238,238 288,305 222,355 338,372 405,322"
           fill="bisque"/>
  <g stroke="chocolate" stroke-width="1">
    <line x1="338" y1="372" x2="472" y2="272"/>
    <circle cx="338" cy="372" r="2"/>
    <circle cx="472" cy="272" r="2"/>
  </g>
  <g stroke="chocolate" stroke-width="1">
    <line x1="222" y1="355" x2="488" y2="155"/>
    <circle cx="222" cy="355" r="2"/>
    <circle cx="488" cy="155" r="2"/>
  </g>
  <g stroke="chocolate" stroke-width="1">
    <line x1="238" y1="238" x2="372" y2="138"/>
    <circle cx="238" cy="238" r="2"/>
    <circle cx="372" cy="138" r="2"/>
  </g>
  <g stroke="chocolate" stroke-width="1">
    <line x1="338" y1="372" x2="222" y2="355"/>
    <circle cx="338" cy="372" r="2"/>
    <circle cx="222" cy="355" r="2"/>
  </g>
  <g stroke="chocolate" stroke-width="1">
    <line x1="455" y1="388" x2="472" y2="272"/>
    <circle cx="455" cy="388" r="2"/>
    <circle cx="472" cy="272" r="2"/>
  </g>
  <g stroke="chocolate" stroke-width="1">
    <line x1="463" y1="330" x2="288" y2="305"/>
    <circle cx="463" cy="330" r="2"/>
    <circle cx="288" cy="305" r="2"/>
  </g>
  <g stroke="chocolate" stroke-width="1">
    <line x1="405" y1="322" x2="430" y2="147"/>
    <circle cx="405" cy="322" r="2"/>
    <circle cx="430" cy="147" r="2"/>
  </g>
  <g stroke="chocolate" stroke-width="1">
    <line x1="338" y1="372" x2="372" y2="138"/>
    <circle cx="338" cy="372" r="2"/>
    <circle cx="372" cy="138" r="2"/>
  </g>
  <g stroke="chocolate" stroke-width="1">
    <line x1="280" y1="363" x2="305" y2="188"/>
    <circle cx="280" cy="363" r="2"/>
    <circle cx="305" cy="188" r="2"/>
  </g>
  <g stroke="chocolate" stroke-width="1">
    <line x1="238" y1="238" x2="255" y2="122"/>
    <circle cx="238" cy="238" r="2"/>
    <circle cx="255" cy="122" r="2"/>
  </g>
  <g stroke="chocolate" stroke-width="1">
    <line x1="472" y1="272" x2="238" y2="238"/>
    <circle cx="472" cy="272" r="2"/>
    <circle cx="238" cy="238" r="2"/>
  </g>
  <g stroke="chocolate" stroke-width="1">
    <line x1="422" y1="205" x2="247" y2="180"/>
    <circle cx="422" cy="205" r="2"/>
    <circle cx="247" cy="180" r="2"/>
  </g>
  <g stroke="chocolate" stroke-width="1">
    <line x1="338" y1="372" x2="238" y2="238"/>
    <circle cx="338" cy="372" r="2"/>
    <circle cx="238" cy="238" r="2"/>
  </g>
  <g stroke="chocolate" stroke-width="1">
    <line x1="488" y1="155" x2="372" y2="138"/>
    <circle cx="488" cy="155" r="2"/>
    <circle cx="372" cy="138" r="2"/>
  </g>
  <g stroke="chocolate" stroke-width="1">
    <line x1="455" y1="388" x2="255" y2="122"/>
    <circle cx="455" cy="388" r="2"/>
    <circle cx="255" cy="122" r="2"/>
  </g>
  <g stroke="chocolate" stroke-width="1">
    <line x1="472" y1="272" x2="372" y2="138"/>
    <circle cx="472" cy="272" r="2"/>
    <circle cx="372" cy="138" r="2"/>
  </g>
  <g stroke="black" stroke-width="1">
    <line x1="5" y1="5" x2="505" y2="5"/>
    <line x1="5" y1="5" x2="5" y2="505"/>
    <line x1="505" y1="505" x2="5" y2="505"/>
    <line x1="505" y1="505" x2="505" y2="5"/>
    <line x1="105" y1="2" x2="105" y2="8"/>
    <line x1="2" y1="105" x2="8" y2="105"/>
    <line x1="105" y1="502" x2="105" y2="508"/>
    <line x1="502" y1="105" x2="508" y2="105"/>
    <line x1="205" y1="2" x2="205" y2="8"/>
    <line x1="2" y1="205" x2="8" y2="205"/>
    <line x1="205" y1="502" x2="205" y2="508"/>
    <line x1="502" y1="205" x2="508" y2="205"/>
    <line x1="305" y1="2" x2="305" y2="8"/>
    <line x1="2" y1="305" x2="8" y2="305"/>
    <line x1="305" y1="502" x2="305" y2="508"/>
    <line x1="502" y1="305" x2="508" y2="305"/>
    <line x1="405" y1="2" x2="405" y2="8"/>
    <line x1="2" y1="405" x2="8" y2="405"/>
    <line x1="405" y1="502" x2="405" y2="508"/>
    <line x1="502" y1="405" x2="508" y2="405"/>
  </g>
  <g stroke="gray" stroke-width="1" stroke-dasharray="5,5">
    <line x1="105" y1="5" x2="105" y2="505"/>
    <line x1="5" y1="105" x2="505" y2="105"/>
    <line x1="205" y1="5" x2="205" y2="505"/>
    <line x1="5" y1="205" x2="505" y2="205"/>
    <line x1="305" y1="5" x2="305" y2="505"/>
    <line x1="5" y1="305" x2="505" y2="305"/>
    <line x1="405" y1="5" x2="405" y2="505"/>
    <line x1="5" y1="405" x2="505" y2="405"/>
  </g>
</svg>
