<?xml version="1.0" standalone="no"?>
<!DOCTYPE svg PUBLIC "-//W3C//DTD SVG 1.1//EN" 
  "http://www.w3.org/Graphics/SVG/1.1/DTD/svg11.dtd">
<svg width="686" height="686" version="1.1" id="toplevel"
    xmlns="http://www.w3.org/2000/svg"
    xmlns:xlink="http://www.w3.org/1999/xlink">
  <polygon points="445,572 681,131 650,114 261,153 40,270 5,336" fill="bisque"/>
  <g stroke="chocolate" stroke-width="1">
    <line x1="445" y1="572" x2="681" y2="131"/>
    <circle cx="445" cy="572" r="2"/>
    <circle cx="681" cy="131" r="2"/>
  </g>
  <g stroke="chocolate" stroke-width="1">
    <line x1="347" y1="328" x2="481" y2="131"/>
    <circle cx="347" cy="328" r="2"/>
    <circle cx="481" cy="131" r="2"/>
  </g>
  <g stroke="chocolate" stroke-width="1">
    <line x1="549" y1="198" x2="650" y2="114"/>
    <circle cx="549" cy="198" r="2"/>
    <circle cx="650" cy="114" r="2"/>
  </g>
  <g stroke="chocolate" stroke-width="1">
    <line x1="165" y1="283" x2="165" y2="204"/>
    <circle cx="165" cy="283" r="2"/>
    <circle cx="165" cy="204" r="2"/>
  </g>
  <g stroke="chocolate" stroke-width="1">
    <line x1="445" y1="572" x2="5" y2="336"/>
    <circle cx="445" cy="572" r="2"/>
    <circle cx="5" cy="336" r="2"/>
  </g>
  <g stroke="chocolate" stroke-width="1">
    <line x1="5" y1="336" x2="40" y2="270"/>
    <circle cx="5" cy="336" r="2"/>
    <circle cx="40" cy="270" r="2"/>
  </g>
  <g stroke="chocolate" stroke-width="1">
    <line x1="165" y1="283" x2="316" y2="148"/>
    <circle cx="165" cy="283" r="2"/>
    <circle cx="316" cy="148" r="2"/>
  </g>
  <g stroke="chocolate" stroke-width="1">
    <line x1="347" y1="328" x2="165" y2="204"/>
    <circle cx="347" cy="328" r="2"/>
    <circle cx="165" cy="204" r="2"/>
  </g>
  <g stroke="chocolate" stroke-width="1">
    <line x1="165" y1="283" x2="40" y2="270"/>
    <circle cx="165" cy="283" r="2"/>
    <circle cx="40" cy="270" r="2"/>
  </g>
  <g stroke="chocolate" stroke-width="1">
    <line x1="40" y1="270" x2="261" y2="153"/>
    <circle cx="40" cy="270" r="2"/>
    <circle cx="261" cy="153" r="2"/>
  </g>
  <g stroke="chocolate" stroke-width="1">
    <line x1="549" y1="198" x2="389" y2="191"/>
    <circle cx="549" cy="198" r="2"/>
    <circle cx="389" cy="191" r="2"/>
  </g>
  <g stroke="chocolate" stroke-width="1">
    <line x1="389" y1="191" x2="316" y2="148"/>
    <circle cx="389" cy="191" r="2"/>
    <circle cx="316" cy="148" r="2"/>
  </g>
  <g stroke="chocolate" stroke-width="1">
    <line x1="261" y1="153" x2="650" y2="114"/>
    <circle cx="261" cy="153" r="2"/>
    <circle cx="650" cy="114" r="2"/>
  </g>
  <g stroke="chocolate" stroke-width="1">
    <line x1="389" y1="191" x2="261" y2="153"/>
    <circle cx="389" cy="191" r="2"/>
    <circle cx="261" cy="153" r="2"/>
  </g>
  <g stroke="chocolate" stroke-width="1">
    <line x1="549" y1="198" x2="481" y2="131"/>
    <circle cx="549" cy="198" r="2"/>
    <circle cx="481" cy="131" r="2"/>
  </g>
  <g stroke="chocolate" stroke-width="1">
    <line x1="681" y1="131" x2="650" y2="114"/>
    <circle cx="681" cy="131" r="2"/>
    <circle cx="650" cy="114" r="2"/>
  </g>
  <g stroke="black" stroke-width="1">
    <line x1="93" y1="93" x2="593" y2="93"/>
    <line x1="93" y1="93" x2="93" y2="593"/>
    <line x1="593" y1="593" x2="93" y2="593"/>
    <line x1="593" y1="593" x2="593" y2="93"/>
    <line x1="193" y1="90" x2="193" y2="96"/>
    <line x1="90" y1="193" x2="96" y2="193"/>
    <line x1="193" y1="590" x2="193" y2="596"/>
    <line x1="590" y1="193" x2="596" y2="193"/>
    <line x1="293" y1="90" x2="293" y2="96"/>
    <line x1="90" y1="293" x2="96" y2="293"/>
    <line x1="293" y1="590" x2="293" y2="596"/>
    <line x1="590" y1="293" x2="596" y2="293"/>
    <line x1="393" y1="90" x2="393" y2="96"/>
    <line x1="90" y1="393" x2="96" y2="393"/>
    <line x1="393" y1="590" x2="393" y2="596"/>
    <line x1="590" y1="393" x2="596" y2="393"/>
    <line x1="493" y1="90" x2="493" y2="96"/>
    <line x1="90" y1="493" x2="96" y2="493"/>
    <line x1="493" y1="590" x2="493" y2="596"/>
    <line x1="590" y1="493" x2="596" y2="493"/>
  </g>
  <g stroke="gray" stroke-width="1" stroke-dasharray="5,5">
    <line x1="193" y1="93" x2="193" y2="593"/>
    <line x1="93" y1="193" x2="593" y2="193"/>
    <line x1="293" y1="93" x2="293" y2="593"/>
    <line x1="93" y1="293" x2="593" y2="293"/>
    <line x1="393" y1="93" x2="393" y2="593"/>
    <line x1="93" y1="393" x2="593" y2="393"/>
    <line x1="493" y1="93" x2="493" y2="593"/>
    <line x1="93" y1="493" x2="593" y2="493"/>
  </g>
</svg>
