<?xml version="1.0" standalone="no"?>
<!DOCTYPE svg PUBLIC "-//W3C//DTD SVG 1.1//EN" 
  "http://www.w3.org/Graphics/SVG/1.1/DTD/svg11.dtd">
<svg width="580" height="580" version="1.1" id="toplevel"
    xmlns="http://www.w3.org/2000/svg"
    xmlns:xlink="http://www.w3.org/1999/xlink">
  <polygon points="339,575 498,99 266,5 82,459 136,489 128,519" fill="bisque"/>
  <g stroke="chocolate" stroke-width="1">
    <line x1="339" y1="575" x2="498" y2="99"/>
    <circle cx="339" cy="575" r="2"/>
    <circle cx="498" cy="99" r="2"/>
  </g>
  <g stroke="chocolate" stroke-width="1">
    <line x1="128" y1="519" x2="256" y2="35"/>
    <circle cx="128" cy="519" r="2"/>
    <circle cx="256" cy="35" r="2"/>
  </g>
  <g stroke="chocolate" stroke-width="1">
    <line x1="82" y1="459" x2="266" y2="5"/>
    <circle cx="82" cy="459" r="2"/>
    <circle cx="266" cy="5" r="2"/>
  </g>
  <g stroke="chocolate" stroke-width="1">
    <line x1="82" y1="459" x2="89" y2="450"/>
    <circle cx="82" cy="459" r="2"/>
    <circle cx="89" cy="450" r="2"/>
  </g>
  <g stroke="chocolate" stroke-width="1">
    <line x1="156" y1="500" x2="89" y2="450"/>
    <circle cx="156" cy="500" r="2"/>
    <circle cx="89" cy="450" r="2"/>
  </g>
  <g stroke="chocolate" stroke-width="1">
    <line x1="156" y1="500" x2="82" y2="459"/>
    <circle cx="156" cy="500" r="2"/>
    <circle cx="82" cy="459" r="2"/>
  </g>
  <g stroke="chocolate" stroke-width="1">
    <line x1="339" y1="575" x2="156" y2="500"/>
    <circle cx="339" cy="575" r="2"/>
    <circle cx="156" cy="500" r="2"/>
  </g>
  <g stroke="chocolate" stroke-width="1">
    <line x1="339" y1="575" x2="128" y2="519"/>
    <circle cx="339" cy="575" r="2"/>
    <circle cx="128" cy="519" r="2"/>
  </g>
  <g stroke="chocolate" stroke-width="1">
    <line x1="498" y1="99" x2="266" y2="5"/>
    <circle cx="498" cy="99" r="2"/>
    <circle cx="266" cy="5" r="2"/>
  </g>
  <g stroke="chocolate" stroke-width="1">
    <line x1="498" y1="99" x2="256" y2="35"/>
    <circle cx="498" cy="99" r="2"/>
    <circle cx="256" cy="35" r="2"/>
  </g>
  <g stroke="black" stroke-width="1">
    <line x1="40" y1="40" x2="540" y2="40"/>
    <line x1="40" y1="40" x2="40" y2="540"/>
    <line x1="540" y1="540" x2="40" y2="540"/>
    <line x1="540" y1="540" x2="540" y2="40"/>
    <line x1="140" y1="37" x2="140" y2="43"/>
    <line x1="37" y1="140" x2="43" y2="140"/>
    <line x1="140" y1="537" x2="140" y2="543"/>
    <line x1="537" y1="140" x2="543" y2="140"/>
    <line x1="240" y1="37" x2="240" y2="43"/>
    <line x1="37" y1="240" x2="43" y2="240"/>
    <line x1="240" y1="537" x2="240" y2="543"/>
    <line x1="537" y1="240" x2="543" y2="240"/>
    <line x1="340" y1="37" x2="340" y2="43"/>
    <line x1="37" y1="340" x2="43" y2="340"/>
    <line x1="340" y1="537" x2="340" y2="543"/>
    <line x1="537" y1="340" x2="543" y2="340"/>
    <line x1="440" y1="37" x2="440" y2="43"/>
    <line x1="37" y1="440" x2="43" y2="440"/>
    <line x1="440" y1="537" x2="440" y2="543"/>
    <line x1="537" y1="440" x2="543" y2="440"/>
  </g>
  <g stroke="gray" stroke-width="1" stroke-dasharray="5,5">
    <line x1="140" y1="40" x2="140" y2="540"/>
    <line x1="40" y1="140" x2="540" y2="140"/>
    <line x1="240" y1="40" x2="240" y2="540"/>
    <line x1="40" y1="240" x2="540" y2="240"/>
    <line x1="340" y1="40" x2="340" y2="540"/>
    <line x1="40" y1="340" x2="540" y2="340"/>
    <line x1="440" y1="40" x2="440" y2="540"/>
    <line x1="40" y1="440" x2="540" y2="440"/>
  </g>
</svg>
