<?xml version="1.0" standalone="no"?>
<!DOCTYPE svg PUBLIC "-//W3C//DTD SVG 1.1//EN" 
  "http://www.w3.org/Graphics/SVG/1.1/DTD/svg11.dtd">
<svg width="510" height="510" version="1.1" id="toplevel"
    xmlns="http://www.w3.org/2000/svg"
    xmlns:xlink="http://www.w3.org/1999/xlink">
  <polygon points="225,360 425,360 425,260 315,150 121,345 121,356 201,356 217,340 225,340"
           fill="bisque"/>
  <g stroke="chocolate" stroke-width="1">
    <line x1="225" y1="360" x2="425" y2="360"/>
    <circle cx="225" cy="360" r="2"/>
    <circle cx="425" cy="360" r="2"/>
  </g>
  <g stroke="chocolate" stroke-width="1">
    <line x1="121" y1="356" x2="201" y2="356"/>
    <circle cx="121" cy="356" r="2"/>
    <circle cx="201" cy="356" r="2"/>
  </g>
  <g stroke="chocolate" stroke-width="1">
    <line x1="201" y1="356" x2="361" y2="196"/>
    <circle cx="201" cy="356" r="2"/>
    <circle cx="361" cy="196" r="2"/>
  </g>
  <g stroke="chocolate" stroke-width="1">
    <line x1="121" y1="345" x2="126" y2="345"/>
    <circle cx="121" cy="345" r="2"/>
    <circle cx="126" cy="345" r="2"/>
  </g>
  <g stroke="chocolate" stroke-width="1">
    <line x1="126" y1="340" x2="305" y2="340"/>
    <circle cx="126" cy="340" r="2"/>
    <circle cx="305" cy="340" r="2"/>
  </g>
  <g stroke="chocolate" stroke-width="1">
    <line x1="126" y1="345" x2="318" y2="153"/>
    <circle cx="126" cy="345" r="2"/>
    <circle cx="318" cy="153" r="2"/>
  </g>
  <g stroke="chocolate" stroke-width="1">
    <line x1="121" y1="345" x2="315" y2="150"/>
    <circle cx="121" cy="345" r="2"/>
    <circle cx="315" cy="150" r="2"/>
  </g>
  <g stroke="chocolate" stroke-width="1">
    <line x1="201" y1="265" x2="206" y2="265"/>
    <circle cx="201" cy="265" r="2"/>
    <circle cx="206" cy="265" r="2"/>
  </g>
  <g stroke="chocolate" stroke-width="1">
    <line x1="205" y1="261" x2="210" y2="261"/>
    <circle cx="205" cy="261" r="2"/>
    <circle cx="210" cy="261" r="2"/>
  </g>
  <g stroke="chocolate" stroke-width="1">
    <line x1="206" y1="260" x2="425" y2="260"/>
    <circle cx="206" cy="260" r="2"/>
    <circle cx="425" cy="260" r="2"/>
  </g>
  <g stroke="chocolate" stroke-width="1">
    <line x1="210" y1="256" x2="301" y2="256"/>
    <circle cx="210" cy="256" r="2"/>
    <circle cx="301" cy="256" r="2"/>
  </g>
  <g stroke="chocolate" stroke-width="1">
    <line x1="225" y1="241" x2="230" y2="241"/>
    <circle cx="225" cy="241" r="2"/>
    <circle cx="230" cy="241" r="2"/>
  </g>
  <g stroke="chocolate" stroke-width="1">
    <line x1="230" y1="236" x2="321" y2="236"/>
    <circle cx="230" cy="236" r="2"/>
    <circle cx="321" cy="236" r="2"/>
  </g>
  <g stroke="chocolate" stroke-width="1">
    <line x1="301" y1="165" x2="306" y2="165"/>
    <circle cx="301" cy="165" r="2"/>
    <circle cx="306" cy="165" r="2"/>
  </g>
  <g stroke="chocolate" stroke-width="1">
    <line x1="305" y1="161" x2="310" y2="161"/>
    <circle cx="305" cy="161" r="2"/>
    <circle cx="310" cy="161" r="2"/>
  </g>
  <g stroke="chocolate" stroke-width="1">
    <line x1="306" y1="160" x2="325" y2="160"/>
    <circle cx="306" cy="160" r="2"/>
    <circle cx="325" cy="160" r="2"/>
  </g>
  <g stroke="chocolate" stroke-width="1">
    <line x1="310" y1="156" x2="321" y2="156"/>
    <circle cx="310" cy="156" r="2"/>
    <circle cx="321" cy="156" r="2"/>
  </g>
  <g stroke="chocolate" stroke-width="1">
    <line x1="121" y1="356" x2="121" y2="345"/>
    <circle cx="121" cy="356" r="2"/>
    <circle cx="121" cy="345" r="2"/>
  </g>
  <g stroke="chocolate" stroke-width="1">
    <line x1="126" y1="345" x2="126" y2="340"/>
    <circle cx="126" cy="345" r="2"/>
    <circle cx="126" cy="340" r="2"/>
  </g>
  <g stroke="chocolate" stroke-width="1">
    <line x1="201" y1="356" x2="201" y2="265"/>
    <circle cx="201" cy="356" r="2"/>
    <circle cx="201" cy="265" r="2"/>
  </g>
  <g stroke="chocolate" stroke-width="1">
    <line x1="205" y1="340" x2="205" y2="261"/>
    <circle cx="205" cy="340" r="2"/>
    <circle cx="205" cy="261" r="2"/>
  </g>
  <g stroke="chocolate" stroke-width="1">
    <line x1="206" y1="265" x2="206" y2="260"/>
    <circle cx="206" cy="265" r="2"/>
    <circle cx="206" cy="260" r="2"/>
  </g>
  <g stroke="chocolate" stroke-width="1">
    <line x1="210" y1="261" x2="210" y2="256"/>
    <circle cx="210" cy="261" r="2"/>
    <circle cx="210" cy="256" r="2"/>
  </g>
  <g stroke="chocolate" stroke-width="1">
    <line x1="225" y1="360" x2="225" y2="241"/>
    <circle cx="225" cy="360" r="2"/>
    <circle cx="225" cy="241" r="2"/>
  </g>
  <g stroke="chocolate" stroke-width="1">
    <line x1="230" y1="241" x2="230" y2="236"/>
    <circle cx="230" cy="241" r="2"/>
    <circle cx="230" cy="236" r="2"/>
  </g>
  <g stroke="chocolate" stroke-width="1">
    <line x1="301" y1="256" x2="301" y2="165"/>
    <circle cx="301" cy="256" r="2"/>
    <circle cx="301" cy="165" r="2"/>
  </g>
  <g stroke="chocolate" stroke-width="1">
    <line x1="305" y1="340" x2="305" y2="161"/>
    <circle cx="305" cy="340" r="2"/>
    <circle cx="305" cy="161" r="2"/>
  </g>
  <g stroke="chocolate" stroke-width="1">
    <line x1="306" y1="165" x2="306" y2="160"/>
    <circle cx="306" cy="165" r="2"/>
    <circle cx="306" cy="160" r="2"/>
  </g>
  <g stroke="chocolate" stroke-width="1">
    <line x1="310" y1="161" x2="310" y2="156"/>
    <circle cx="310" cy="161" r="2"/>
    <circle cx="310" cy="156" r="2"/>
  </g>
  <g stroke="chocolate" stroke-width="1">
    <line x1="321" y1="236" x2="321" y2="156"/>
    <circle cx="321" cy="236" r="2"/>
    <circle cx="321" cy="156" r="2"/>
  </g>
  <g stroke="chocolate" stroke-width="1">
    <line x1="325" y1="360" x2="325" y2="160"/>
    <circle cx="325" cy="360" r="2"/>
    <circle cx="325" cy="160" r="2"/>
  </g>
  <g stroke="chocolate" stroke-width="1">
    <line x1="425" y1="360" x2="425" y2="260"/>
    <circle cx="425" cy="360" r="2"/>
    <circle cx="425" cy="260" r="2"/>
  </g>
  <g stroke="chocolate" stroke-width="1">
    <line x1="425" y1="260" x2="315" y2="150"/>
    <circle cx="425" cy="260" r="2"/>
    <circle cx="315" cy="150" r="2"/>
  </g>
  <g stroke="black" stroke-width="1">
    <line x1="5" y1="5" x2="505" y2="5"/>
    <line x1="5" y1="5" x2="5" y2="505"/>
    <line x1="505" y1="505" x2="5" y2="505"/>
    <line x1="505" y1="505" x2="505" y2="5"/>
    <line x1="105" y1="2" x2="105" y2="8"/>
    <line x1="2" y1="105" x2="8" y2="105"/>
    <line x1="105" y1="502" x2="105" y2="508"/>
    <line x1="502" y1="105" x2="508" y2="105"/>
    <line x1="205" y1="2" x2="205" y2="8"/>
    <line x1="2" y1="205" x2="8" y2="205"/>
    <line x1="205" y1="502" x2="205" y2="508"/>
    <line x1="502" y1="205" x2="508" y2="205"/>
    <line x1="305" y1="2" x2="305" y2="8"/>
    <line x1="2" y1="305" x2="8" y2="305"/>
    <line x1="305" y1="502" x2="305" y2="508"/>
    <line x1="502" y1="305" x2="508" y2="305"/>
    <line x1="405" y1="2" x2="405" y2="8"/>
    <line x1="2" y1="405" x2="8" y2="405"/>
    <line x1="405" y1="502" x2="405" y2="508"/>
    <line x1="502" y1="405" x2="508" y2="405"/>
  </g>
  <g stroke="gray" stroke-width="1" stroke-dasharray="5,5">
    <line x1="105" y1="5" x2="105" y2="505"/>
    <line x1="5" y1="105" x2="505" y2="105"/>
    <line x1="205" y1="5" x2="205" y2="505"/>
    <line x1="5" y1="205" x2="505" y2="205"/>
    <line x1="305" y1="5" x2="305" y2="505"/>
    <line x1="5" y1="305" x2="505" y2="305"/>
    <line x1="405" y1="5" x2="405" y2="505"/>
    <line x1="5" y1="405" x2="505" y2="405"/>
  </g>
</svg>
