<?xml version="1.0" standalone="no"?>
<!DOCTYPE svg PUBLIC "-//W3C//DTD SVG 1.1//EN" 
  "http://www.w3.org/Graphics/SVG/1.1/DTD/svg11.dtd">
<svg width="510" height="510" version="1.1" id="toplevel"
    xmlns="http://www.w3.org/2000/svg"
    xmlns:xlink="http://www.w3.org/1999/xlink">
  <polygon points="5,505 68,505 109,463 318,463 411,370 422,380 463,380 505,338 484,338 422,276 422,213 255,213 5,463"
           fill="bisque"/>
  <g stroke="chocolate" stroke-width="1">
    <line x1="463" y1="380" x2="505" y2="338"/>
    <circle cx="463" cy="380" r="2"/>
    <circle cx="505" cy="338" r="2"/>
  </g>
  <g stroke="chocolate" stroke-width="1">
    <line x1="463" y1="359" x2="484" y2="338"/>
    <circle cx="463" cy="359" r="2"/>
    <circle cx="484" cy="338" r="2"/>
  </g>
  <g stroke="chocolate" stroke-width="1">
    <line x1="318" y1="463" x2="422" y2="359"/>
    <circle cx="318" cy="463" r="2"/>
    <circle cx="422" cy="359" r="2"/>
  </g>
  <g stroke="chocolate" stroke-width="1">
    <line x1="234" y1="401" x2="401" y2="234"/>
    <circle cx="234" cy="401" r="2"/>
    <circle cx="401" cy="234" r="2"/>
  </g>
  <g stroke="chocolate" stroke-width="1">
    <line x1="68" y1="505" x2="359" y2="213"/>
    <circle cx="68" cy="505" r="2"/>
    <circle cx="359" cy="213" r="2"/>
  </g>
  <g stroke="chocolate" stroke-width="1">
    <line x1="5" y1="505" x2="68" y2="505"/>
    <circle cx="5" cy="505" r="2"/>
    <circle cx="68" cy="505" r="2"/>
  </g>
  <g stroke="chocolate" stroke-width="1">
    <line x1="5" y1="505" x2="5" y2="463"/>
    <circle cx="5" cy="505" r="2"/>
    <circle cx="5" cy="463" r="2"/>
  </g>
  <g stroke="chocolate" stroke-width="1">
    <line x1="68" y1="505" x2="68" y2="401"/>
    <circle cx="68" cy="505" r="2"/>
    <circle cx="68" cy="401" r="2"/>
  </g>
  <g stroke="chocolate" stroke-width="1">
    <line x1="234" y1="401" x2="234" y2="234"/>
    <circle cx="234" cy="401" r="2"/>
    <circle cx="234" cy="234" r="2"/>
  </g>
  <g stroke="chocolate" stroke-width="1">
    <line x1="318" y1="463" x2="318" y2="318"/>
    <circle cx="318" cy="463" r="2"/>
    <circle cx="318" cy="318" r="2"/>
  </g>
  <g stroke="chocolate" stroke-width="1">
    <line x1="380" y1="338" x2="380" y2="213"/>
    <circle cx="380" cy="338" r="2"/>
    <circle cx="380" cy="213" r="2"/>
  </g>
  <g stroke="chocolate" stroke-width="1">
    <line x1="401" y1="359" x2="401" y2="213"/>
    <circle cx="401" cy="359" r="2"/>
    <circle cx="401" cy="213" r="2"/>
  </g>
  <g stroke="chocolate" stroke-width="1">
    <line x1="422" y1="380" x2="422" y2="213"/>
    <circle cx="422" cy="380" r="2"/>
    <circle cx="422" cy="213" r="2"/>
  </g>
  <g stroke="chocolate" stroke-width="1">
    <line x1="463" y1="380" x2="463" y2="359"/>
    <circle cx="463" cy="380" r="2"/>
    <circle cx="463" cy="359" r="2"/>
  </g>
  <g stroke="chocolate" stroke-width="1">
    <line x1="484" y1="359" x2="484" y2="338"/>
    <circle cx="484" cy="359" r="2"/>
    <circle cx="484" cy="338" r="2"/>
  </g>
  <g stroke="chocolate" stroke-width="1">
    <line x1="5" y1="463" x2="255" y2="213"/>
    <circle cx="5" cy="463" r="2"/>
    <circle cx="255" cy="213" r="2"/>
  </g>
  <g stroke="chocolate" stroke-width="1">
    <line x1="5" y1="463" x2="318" y2="463"/>
    <circle cx="5" cy="463" r="2"/>
    <circle cx="318" cy="463" r="2"/>
  </g>
  <g stroke="chocolate" stroke-width="1">
    <line x1="68" y1="401" x2="234" y2="401"/>
    <circle cx="68" cy="401" r="2"/>
    <circle cx="234" cy="401" r="2"/>
  </g>
  <g stroke="chocolate" stroke-width="1">
    <line x1="422" y1="380" x2="463" y2="380"/>
    <circle cx="422" cy="380" r="2"/>
    <circle cx="463" cy="380" r="2"/>
  </g>
  <g stroke="chocolate" stroke-width="1">
    <line x1="401" y1="359" x2="484" y2="359"/>
    <circle cx="401" cy="359" r="2"/>
    <circle cx="484" cy="359" r="2"/>
  </g>
  <g stroke="chocolate" stroke-width="1">
    <line x1="380" y1="338" x2="505" y2="338"/>
    <circle cx="380" cy="338" r="2"/>
    <circle cx="505" cy="338" r="2"/>
  </g>
  <g stroke="chocolate" stroke-width="1">
    <line x1="318" y1="318" x2="422" y2="318"/>
    <circle cx="318" cy="318" r="2"/>
    <circle cx="422" cy="318" r="2"/>
  </g>
  <g stroke="chocolate" stroke-width="1">
    <line x1="234" y1="234" x2="401" y2="234"/>
    <circle cx="234" cy="234" r="2"/>
    <circle cx="401" cy="234" r="2"/>
  </g>
  <g stroke="chocolate" stroke-width="1">
    <line x1="422" y1="380" x2="255" y2="213"/>
    <circle cx="422" cy="380" r="2"/>
    <circle cx="255" cy="213" r="2"/>
  </g>
  <g stroke="chocolate" stroke-width="1">
    <line x1="422" y1="359" x2="380" y2="318"/>
    <circle cx="422" cy="359" r="2"/>
    <circle cx="380" cy="318" r="2"/>
  </g>
  <g stroke="chocolate" stroke-width="1">
    <line x1="255" y1="213" x2="422" y2="213"/>
    <circle cx="255" cy="213" r="2"/>
    <circle cx="422" cy="213" r="2"/>
  </g>
  <g stroke="chocolate" stroke-width="1">
    <line x1="495" y1="349" x2="359" y2="213"/>
    <circle cx="495" cy="349" r="2"/>
    <circle cx="359" cy="213" r="2"/>
  </g>
  <g stroke="black" stroke-width="1">
    <line x1="5" y1="5" x2="505" y2="5"/>
    <line x1="5" y1="5" x2="5" y2="505"/>
    <line x1="505" y1="505" x2="5" y2="505"/>
    <line x1="505" y1="505" x2="505" y2="5"/>
    <line x1="105" y1="2" x2="105" y2="8"/>
    <line x1="2" y1="105" x2="8" y2="105"/>
    <line x1="105" y1="502" x2="105" y2="508"/>
    <line x1="502" y1="105" x2="508" y2="105"/>
    <line x1="205" y1="2" x2="205" y2="8"/>
    <line x1="2" y1="205" x2="8" y2="205"/>
    <line x1="205" y1="502" x2="205" y2="508"/>
    <line x1="502" y1="205" x2="508" y2="205"/>
    <line x1="305" y1="2" x2="305" y2="8"/>
    <line x1="2" y1="305" x2="8" y2="305"/>
    <line x1="305" y1="502" x2="305" y2="508"/>
    <line x1="502" y1="305" x2="508" y2="305"/>
    <line x1="405" y1="2" x2="405" y2="8"/>
    <line x1="2" y1="405" x2="8" y2="405"/>
    <line x1="405" y1="502" x2="405" y2="508"/>
    <line x1="502" y1="405" x2="508" y2="405"/>
  </g>
  <g stroke="gray" stroke-width="1" stroke-dasharray="5,5">
    <line x1="105" y1="5" x2="105" y2="505"/>
    <line x1="5" y1="105" x2="505" y2="105"/>
    <line x1="205" y1="5" x2="205" y2="505"/>
    <line x1="5" y1="205" x2="505" y2="205"/>
    <line x1="305" y1="5" x2="305" y2="505"/>
    <line x1="5" y1="305" x2="505" y2="305"/>
    <line x1="405" y1="5" x2="405" y2="505"/>
    <line x1="5" y1="405" x2="505" y2="405"/>
  </g>
</svg>
