<?xml version="1.0" standalone="no"?>
<!DOCTYPE svg PUBLIC "-//W3C//DTD SVG 1.1//EN" 
  "http://www.w3.org/Graphics/SVG/1.1/DTD/svg11.dtd">
<svg width="670" height="670" version="1.1" id="toplevel"
    xmlns="http://www.w3.org/2000/svg"
    xmlns:xlink="http://www.w3.org/1999/xlink">
  <polygon points="204,665 223,657 466,24 458,5" fill="bisque"/>
  <g stroke="chocolate" stroke-width="1">
    <line x1="223" y1="657" x2="466" y2="24"/>
    <circle cx="223" cy="657" r="2"/>
    <circle cx="466" cy="24" r="2"/>
  </g>
  <g stroke="chocolate" stroke-width="1">
    <line x1="204" y1="665" x2="458" y2="5"/>
    <circle cx="204" cy="665" r="2"/>
    <circle cx="458" cy="5" r="2"/>
  </g>
  <g stroke="chocolate" stroke-width="1">
    <line x1="204" y1="665" x2="223" y2="657"/>
    <circle cx="204" cy="665" r="2"/>
    <circle cx="223" cy="657" r="2"/>
  </g>
  <g stroke="chocolate" stroke-width="1">
    <line x1="214" y1="637" x2="233" y2="629"/>
    <circle cx="214" cy="637" r="2"/>
    <circle cx="233" cy="629" r="2"/>
  </g>
  <g stroke="chocolate" stroke-width="1">
    <line x1="225" y1="610" x2="244" y2="602"/>
    <circle cx="225" cy="610" r="2"/>
    <circle cx="244" cy="602" r="2"/>
  </g>
  <g stroke="chocolate" stroke-width="1">
    <line x1="236" y1="582" x2="255" y2="574"/>
    <circle cx="236" cy="582" r="2"/>
    <circle cx="255" cy="574" r="2"/>
  </g>
  <g stroke="chocolate" stroke-width="1">
    <line x1="246" y1="555" x2="265" y2="547"/>
    <circle cx="246" cy="555" r="2"/>
    <circle cx="265" cy="547" r="2"/>
  </g>
  <g stroke="chocolate" stroke-width="1">
    <line x1="257" y1="527" x2="276" y2="519"/>
    <circle cx="257" cy="527" r="2"/>
    <circle cx="276" cy="519" r="2"/>
  </g>
  <g stroke="chocolate" stroke-width="1">
    <line x1="267" y1="500" x2="286" y2="492"/>
    <circle cx="267" cy="500" r="2"/>
    <circle cx="286" cy="492" r="2"/>
  </g>
  <g stroke="chocolate" stroke-width="1">
    <line x1="278" y1="472" x2="297" y2="464"/>
    <circle cx="278" cy="472" r="2"/>
    <circle cx="297" cy="464" r="2"/>
  </g>
  <g stroke="chocolate" stroke-width="1">
    <line x1="288" y1="445" x2="307" y2="437"/>
    <circle cx="288" cy="445" r="2"/>
    <circle cx="307" cy="437" r="2"/>
  </g>
  <g stroke="chocolate" stroke-width="1">
    <line x1="299" y1="417" x2="318" y2="409"/>
    <circle cx="299" cy="417" r="2"/>
    <circle cx="318" cy="409" r="2"/>
  </g>
  <g stroke="chocolate" stroke-width="1">
    <line x1="310" y1="390" x2="329" y2="382"/>
    <circle cx="310" cy="390" r="2"/>
    <circle cx="329" cy="382" r="2"/>
  </g>
  <g stroke="chocolate" stroke-width="1">
    <line x1="320" y1="362" x2="339" y2="354"/>
    <circle cx="320" cy="362" r="2"/>
    <circle cx="339" cy="354" r="2"/>
  </g>
  <g stroke="chocolate" stroke-width="1">
    <line x1="331" y1="335" x2="350" y2="327"/>
    <circle cx="331" cy="335" r="2"/>
    <circle cx="350" cy="327" r="2"/>
  </g>
  <g stroke="chocolate" stroke-width="1">
    <line x1="341" y1="308" x2="360" y2="299"/>
    <circle cx="341" cy="308" r="2"/>
    <circle cx="360" cy="299" r="2"/>
  </g>
  <g stroke="chocolate" stroke-width="1">
    <line x1="352" y1="280" x2="371" y2="272"/>
    <circle cx="352" cy="280" r="2"/>
    <circle cx="371" cy="272" r="2"/>
  </g>
  <g stroke="chocolate" stroke-width="1">
    <line x1="363" y1="253" x2="382" y2="244"/>
    <circle cx="363" cy="253" r="2"/>
    <circle cx="382" cy="244" r="2"/>
  </g>
  <g stroke="chocolate" stroke-width="1">
    <line x1="373" y1="225" x2="392" y2="217"/>
    <circle cx="373" cy="225" r="2"/>
    <circle cx="392" cy="217" r="2"/>
  </g>
  <g stroke="chocolate" stroke-width="1">
    <line x1="384" y1="198" x2="403" y2="189"/>
    <circle cx="384" cy="198" r="2"/>
    <circle cx="403" cy="189" r="2"/>
  </g>
  <g stroke="chocolate" stroke-width="1">
    <line x1="394" y1="170" x2="413" y2="162"/>
    <circle cx="394" cy="170" r="2"/>
    <circle cx="413" cy="162" r="2"/>
  </g>
  <g stroke="chocolate" stroke-width="1">
    <line x1="405" y1="143" x2="424" y2="134"/>
    <circle cx="405" cy="143" r="2"/>
    <circle cx="424" cy="134" r="2"/>
  </g>
  <g stroke="chocolate" stroke-width="1">
    <line x1="415" y1="115" x2="434" y2="107"/>
    <circle cx="415" cy="115" r="2"/>
    <circle cx="434" cy="107" r="2"/>
  </g>
  <g stroke="chocolate" stroke-width="1">
    <line x1="426" y1="88" x2="445" y2="79"/>
    <circle cx="426" cy="88" r="2"/>
    <circle cx="445" cy="79" r="2"/>
  </g>
  <g stroke="chocolate" stroke-width="1">
    <line x1="437" y1="60" x2="456" y2="52"/>
    <circle cx="437" cy="60" r="2"/>
    <circle cx="456" cy="52" r="2"/>
  </g>
  <g stroke="chocolate" stroke-width="1">
    <line x1="447" y1="33" x2="466" y2="24"/>
    <circle cx="447" cy="33" r="2"/>
    <circle cx="466" cy="24" r="2"/>
  </g>
  <g stroke="chocolate" stroke-width="1">
    <line x1="223" y1="657" x2="214" y2="637"/>
    <circle cx="223" cy="657" r="2"/>
    <circle cx="214" cy="637" r="2"/>
  </g>
  <g stroke="chocolate" stroke-width="1">
    <line x1="233" y1="629" x2="225" y2="610"/>
    <circle cx="233" cy="629" r="2"/>
    <circle cx="225" cy="610" r="2"/>
  </g>
  <g stroke="chocolate" stroke-width="1">
    <line x1="244" y1="602" x2="236" y2="582"/>
    <circle cx="244" cy="602" r="2"/>
    <circle cx="236" cy="582" r="2"/>
  </g>
  <g stroke="chocolate" stroke-width="1">
    <line x1="255" y1="574" x2="246" y2="555"/>
    <circle cx="255" cy="574" r="2"/>
    <circle cx="246" cy="555" r="2"/>
  </g>
  <g stroke="chocolate" stroke-width="1">
    <line x1="265" y1="547" x2="257" y2="527"/>
    <circle cx="265" cy="547" r="2"/>
    <circle cx="257" cy="527" r="2"/>
  </g>
  <g stroke="chocolate" stroke-width="1">
    <line x1="276" y1="519" x2="267" y2="500"/>
    <circle cx="276" cy="519" r="2"/>
    <circle cx="267" cy="500" r="2"/>
  </g>
  <g stroke="chocolate" stroke-width="1">
    <line x1="286" y1="492" x2="278" y2="472"/>
    <circle cx="286" cy="492" r="2"/>
    <circle cx="278" cy="472" r="2"/>
  </g>
  <g stroke="chocolate" stroke-width="1">
    <line x1="297" y1="464" x2="288" y2="445"/>
    <circle cx="297" cy="464" r="2"/>
    <circle cx="288" cy="445" r="2"/>
  </g>
  <g stroke="chocolate" stroke-width="1">
    <line x1="307" y1="437" x2="299" y2="417"/>
    <circle cx="307" cy="437" r="2"/>
    <circle cx="299" cy="417" r="2"/>
  </g>
  <g stroke="chocolate" stroke-width="1">
    <line x1="318" y1="409" x2="310" y2="390"/>
    <circle cx="318" cy="409" r="2"/>
    <circle cx="310" cy="390" r="2"/>
  </g>
  <g stroke="chocolate" stroke-width="1">
    <line x1="329" y1="382" x2="320" y2="362"/>
    <circle cx="329" cy="382" r="2"/>
    <circle cx="320" cy="362" r="2"/>
  </g>
  <g stroke="chocolate" stroke-width="1">
    <line x1="339" y1="354" x2="331" y2="335"/>
    <circle cx="339" cy="354" r="2"/>
    <circle cx="331" cy="335" r="2"/>
  </g>
  <g stroke="chocolate" stroke-width="1">
    <line x1="350" y1="327" x2="341" y2="308"/>
    <circle cx="350" cy="327" r="2"/>
    <circle cx="341" cy="308" r="2"/>
  </g>
  <g stroke="chocolate" stroke-width="1">
    <line x1="360" y1="299" x2="352" y2="280"/>
    <circle cx="360" cy="299" r="2"/>
    <circle cx="352" cy="280" r="2"/>
  </g>
  <g stroke="chocolate" stroke-width="1">
    <line x1="371" y1="272" x2="363" y2="253"/>
    <circle cx="371" cy="272" r="2"/>
    <circle cx="363" cy="253" r="2"/>
  </g>
  <g stroke="chocolate" stroke-width="1">
    <line x1="382" y1="244" x2="373" y2="225"/>
    <circle cx="382" cy="244" r="2"/>
    <circle cx="373" cy="225" r="2"/>
  </g>
  <g stroke="chocolate" stroke-width="1">
    <line x1="392" y1="217" x2="384" y2="198"/>
    <circle cx="392" cy="217" r="2"/>
    <circle cx="384" cy="198" r="2"/>
  </g>
  <g stroke="chocolate" stroke-width="1">
    <line x1="403" y1="189" x2="394" y2="170"/>
    <circle cx="403" cy="189" r="2"/>
    <circle cx="394" cy="170" r="2"/>
  </g>
  <g stroke="chocolate" stroke-width="1">
    <line x1="413" y1="162" x2="405" y2="143"/>
    <circle cx="413" cy="162" r="2"/>
    <circle cx="405" cy="143" r="2"/>
  </g>
  <g stroke="chocolate" stroke-width="1">
    <line x1="424" y1="134" x2="415" y2="115"/>
    <circle cx="424" cy="134" r="2"/>
    <circle cx="415" cy="115" r="2"/>
  </g>
  <g stroke="chocolate" stroke-width="1">
    <line x1="434" y1="107" x2="426" y2="88"/>
    <circle cx="434" cy="107" r="2"/>
    <circle cx="426" cy="88" r="2"/>
  </g>
  <g stroke="chocolate" stroke-width="1">
    <line x1="445" y1="79" x2="437" y2="60"/>
    <circle cx="445" cy="79" r="2"/>
    <circle cx="437" cy="60" r="2"/>
  </g>
  <g stroke="chocolate" stroke-width="1">
    <line x1="456" y1="52" x2="447" y2="33"/>
    <circle cx="456" cy="52" r="2"/>
    <circle cx="447" cy="33" r="2"/>
  </g>
  <g stroke="chocolate" stroke-width="1">
    <line x1="466" y1="24" x2="458" y2="5"/>
    <circle cx="466" cy="24" r="2"/>
    <circle cx="458" cy="5" r="2"/>
  </g>
  <g stroke="black" stroke-width="1">
    <line x1="85" y1="85" x2="585" y2="85"/>
    <line x1="85" y1="85" x2="85" y2="585"/>
    <line x1="585" y1="585" x2="85" y2="585"/>
    <line x1="585" y1="585" x2="585" y2="85"/>
    <line x1="185" y1="82" x2="185" y2="88"/>
    <line x1="82" y1="185" x2="88" y2="185"/>
    <line x1="185" y1="582" x2="185" y2="588"/>
    <line x1="582" y1="185" x2="588" y2="185"/>
    <line x1="285" y1="82" x2="285" y2="88"/>
    <line x1="82" y1="285" x2="88" y2="285"/>
    <line x1="285" y1="582" x2="285" y2="588"/>
    <line x1="582" y1="285" x2="588" y2="285"/>
    <line x1="385" y1="82" x2="385" y2="88"/>
    <line x1="82" y1="385" x2="88" y2="385"/>
    <line x1="385" y1="582" x2="385" y2="588"/>
    <line x1="582" y1="385" x2="588" y2="385"/>
    <line x1="485" y1="82" x2="485" y2="88"/>
    <line x1="82" y1="485" x2="88" y2="485"/>
    <line x1="485" y1="582" x2="485" y2="588"/>
    <line x1="582" y1="485" x2="588" y2="485"/>
  </g>
  <g stroke="gray" stroke-width="1" stroke-dasharray="5,5">
    <line x1="185" y1="85" x2="185" y2="585"/>
    <line x1="85" y1="185" x2="585" y2="185"/>
    <line x1="285" y1="85" x2="285" y2="585"/>
    <line x1="85" y1="285" x2="585" y2="285"/>
    <line x1="385" y1="85" x2="385" y2="585"/>
    <line x1="85" y1="385" x2="585" y2="385"/>
    <line x1="485" y1="85" x2="485" y2="585"/>
    <line x1="85" y1="485" x2="585" y2="485"/>
  </g>
</svg>
