<?xml version="1.0" standalone="no"?>
<!DOCTYPE svg PUBLIC "-//W3C//DTD SVG 1.1//EN" 
  "http://www.w3.org/Graphics/SVG/1.1/DTD/svg11.dtd">
<svg width="510" height="510" version="1.1" id="toplevel"
    xmlns="http://www.w3.org/2000/svg"
    xmlns:xlink="http://www.w3.org/1999/xlink">
  <polygon points="265,425 265,268 128,131 128,85 66,85 66,185 137,185 165,213 165,325"
           fill="bisque"/>
  <g stroke="chocolate" stroke-width="1">
    <line x1="165" y1="325" x2="265" y2="325"/>
    <circle cx="165" cy="325" r="2"/>
    <circle cx="265" cy="325" r="2"/>
  </g>
  <g stroke="chocolate" stroke-width="1">
    <line x1="246" y1="268" x2="265" y2="268"/>
    <circle cx="246" cy="268" r="2"/>
    <circle cx="265" cy="268" r="2"/>
  </g>
  <g stroke="chocolate" stroke-width="1">
    <line x1="201" y1="249" x2="246" y2="249"/>
    <circle cx="201" cy="249" r="2"/>
    <circle cx="246" cy="249" r="2"/>
  </g>
  <g stroke="chocolate" stroke-width="1">
    <line x1="182" y1="204" x2="201" y2="204"/>
    <circle cx="182" cy="204" r="2"/>
    <circle cx="201" cy="204" r="2"/>
  </g>
  <g stroke="chocolate" stroke-width="1">
    <line x1="66" y1="185" x2="182" y2="185"/>
    <circle cx="66" cy="185" r="2"/>
    <circle cx="182" cy="185" r="2"/>
  </g>
  <g stroke="chocolate" stroke-width="1">
    <line x1="66" y1="185" x2="66" y2="85"/>
    <circle cx="66" cy="185" r="2"/>
    <circle cx="66" cy="85" r="2"/>
  </g>
  <g stroke="chocolate" stroke-width="1">
    <line x1="82" y1="104" x2="82" y2="85"/>
    <circle cx="82" cy="104" r="2"/>
    <circle cx="82" cy="85" r="2"/>
  </g>
  <g stroke="chocolate" stroke-width="1">
    <line x1="101" y1="149" x2="101" y2="104"/>
    <circle cx="101" cy="149" r="2"/>
    <circle cx="101" cy="104" r="2"/>
  </g>
  <g stroke="chocolate" stroke-width="1">
    <line x1="128" y1="185" x2="128" y2="85"/>
    <circle cx="128" cy="185" r="2"/>
    <circle cx="128" cy="85" r="2"/>
  </g>
  <g stroke="chocolate" stroke-width="1">
    <line x1="146" y1="168" x2="146" y2="149"/>
    <circle cx="146" cy="168" r="2"/>
    <circle cx="146" cy="149" r="2"/>
  </g>
  <g stroke="chocolate" stroke-width="1">
    <line x1="165" y1="325" x2="165" y2="168"/>
    <circle cx="165" cy="325" r="2"/>
    <circle cx="165" cy="168" r="2"/>
  </g>
  <g stroke="chocolate" stroke-width="1">
    <line x1="182" y1="204" x2="182" y2="185"/>
    <circle cx="182" cy="204" r="2"/>
    <circle cx="182" cy="185" r="2"/>
  </g>
  <g stroke="chocolate" stroke-width="1">
    <line x1="201" y1="249" x2="201" y2="204"/>
    <circle cx="201" cy="249" r="2"/>
    <circle cx="201" cy="204" r="2"/>
  </g>
  <g stroke="chocolate" stroke-width="1">
    <line x1="246" y1="268" x2="246" y2="249"/>
    <circle cx="246" cy="268" r="2"/>
    <circle cx="246" cy="249" r="2"/>
  </g>
  <g stroke="chocolate" stroke-width="1">
    <line x1="265" y1="425" x2="265" y2="268"/>
    <circle cx="265" cy="425" r="2"/>
    <circle cx="265" cy="268" r="2"/>
  </g>
  <g stroke="chocolate" stroke-width="1">
    <line x1="265" y1="425" x2="165" y2="325"/>
    <circle cx="265" cy="425" r="2"/>
    <circle cx="165" cy="325" r="2"/>
  </g>
  <g stroke="chocolate" stroke-width="1">
    <line x1="146" y1="168" x2="165" y2="168"/>
    <circle cx="146" cy="168" r="2"/>
    <circle cx="165" cy="168" r="2"/>
  </g>
  <g stroke="chocolate" stroke-width="1">
    <line x1="101" y1="149" x2="146" y2="149"/>
    <circle cx="101" cy="149" r="2"/>
    <circle cx="146" cy="149" r="2"/>
  </g>
  <g stroke="chocolate" stroke-width="1">
    <line x1="201" y1="249" x2="101" y2="149"/>
    <circle cx="201" cy="249" r="2"/>
    <circle cx="101" cy="149" r="2"/>
  </g>
  <g stroke="chocolate" stroke-width="1">
    <line x1="246" y1="268" x2="82" y2="104"/>
    <circle cx="246" cy="268" r="2"/>
    <circle cx="82" cy="104" r="2"/>
  </g>
  <g stroke="chocolate" stroke-width="1">
    <line x1="82" y1="104" x2="101" y2="104"/>
    <circle cx="82" cy="104" r="2"/>
    <circle cx="101" cy="104" r="2"/>
  </g>
  <g stroke="chocolate" stroke-width="1">
    <line x1="265" y1="268" x2="82" y2="85"/>
    <circle cx="265" cy="268" r="2"/>
    <circle cx="82" cy="85" r="2"/>
  </g>
  <g stroke="chocolate" stroke-width="1">
    <line x1="66" y1="85" x2="128" y2="85"/>
    <circle cx="66" cy="85" r="2"/>
    <circle cx="128" cy="85" r="2"/>
  </g>
  <g stroke="black" stroke-width="1">
    <line x1="5" y1="5" x2="505" y2="5"/>
    <line x1="5" y1="5" x2="5" y2="505"/>
    <line x1="505" y1="505" x2="5" y2="505"/>
    <line x1="505" y1="505" x2="505" y2="5"/>
    <line x1="105" y1="2" x2="105" y2="8"/>
    <line x1="2" y1="105" x2="8" y2="105"/>
    <line x1="105" y1="502" x2="105" y2="508"/>
    <line x1="502" y1="105" x2="508" y2="105"/>
    <line x1="205" y1="2" x2="205" y2="8"/>
    <line x1="2" y1="205" x2="8" y2="205"/>
    <line x1="205" y1="502" x2="205" y2="508"/>
    <line x1="502" y1="205" x2="508" y2="205"/>
    <line x1="305" y1="2" x2="305" y2="8"/>
    <line x1="2" y1="305" x2="8" y2="305"/>
    <line x1="305" y1="502" x2="305" y2="508"/>
    <line x1="502" y1="305" x2="508" y2="305"/>
    <line x1="405" y1="2" x2="405" y2="8"/>
    <line x1="2" y1="405" x2="8" y2="405"/>
    <line x1="405" y1="502" x2="405" y2="508"/>
    <line x1="502" y1="405" x2="508" y2="405"/>
  </g>
  <g stroke="gray" stroke-width="1" stroke-dasharray="5,5">
    <line x1="105" y1="5" x2="105" y2="505"/>
    <line x1="5" y1="105" x2="505" y2="105"/>
    <line x1="205" y1="5" x2="205" y2="505"/>
    <line x1="5" y1="205" x2="505" y2="205"/>
    <line x1="305" y1="5" x2="305" y2="505"/>
    <line x1="5" y1="305" x2="505" y2="305"/>
    <line x1="405" y1="5" x2="405" y2="505"/>
    <line x1="5" y1="405" x2="505" y2="405"/>
  </g>
</svg>
