<?xml version="1.0" standalone="no"?>
<!DOCTYPE svg PUBLIC "-//W3C//DTD SVG 1.1//EN" 
  "http://www.w3.org/Graphics/SVG/1.1/DTD/svg11.dtd">
<svg width="564" height="564" version="1.1" id="toplevel"
    xmlns="http://www.w3.org/2000/svg"
    xmlns:xlink="http://www.w3.org/1999/xlink">
  <polygon points="477,402 507,317 517,318 550,192 559,166 558,162 31,162 5,238 65,259 69,270 107,274"
           fill="bisque"/>
  <g stroke="chocolate" stroke-width="1">
    <line x1="131" y1="276" x2="94" y2="228"/>
    <circle cx="131" cy="276" r="2"/>
    <circle cx="94" cy="228" r="2"/>
  </g>
  <g stroke="chocolate" stroke-width="1">
    <line x1="69" y1="270" x2="31" y2="162"/>
    <circle cx="69" cy="270" r="2"/>
    <circle cx="31" cy="162" r="2"/>
  </g>
  <g stroke="chocolate" stroke-width="1">
    <line x1="412" y1="307" x2="290" y2="162"/>
    <circle cx="412" cy="307" r="2"/>
    <circle cx="290" cy="162" r="2"/>
  </g>
  <g stroke="chocolate" stroke-width="1">
    <line x1="394" y1="305" x2="377" y2="281"/>
    <circle cx="394" cy="305" r="2"/>
    <circle cx="377" cy="281" r="2"/>
  </g>
  <g stroke="chocolate" stroke-width="1">
    <line x1="281" y1="173" x2="268" y2="162"/>
    <circle cx="281" cy="173" r="2"/>
    <circle cx="268" cy="162" r="2"/>
  </g>
  <g stroke="chocolate" stroke-width="1">
    <line x1="477" y1="402" x2="5" y2="238"/>
    <circle cx="477" cy="402" r="2"/>
    <circle cx="5" cy="238" r="2"/>
  </g>
  <g stroke="chocolate" stroke-width="1">
    <line x1="515" y1="227" x2="479" y2="207"/>
    <circle cx="515" cy="227" r="2"/>
    <circle cx="479" cy="207" r="2"/>
  </g>
  <g stroke="chocolate" stroke-width="1">
    <line x1="559" y1="166" x2="554" y2="162"/>
    <circle cx="559" cy="166" r="2"/>
    <circle cx="554" cy="162" r="2"/>
  </g>
  <g stroke="chocolate" stroke-width="1">
    <line x1="559" y1="166" x2="558" y2="162"/>
    <circle cx="559" cy="166" r="2"/>
    <circle cx="558" cy="162" r="2"/>
  </g>
  <g stroke="chocolate" stroke-width="1">
    <line x1="517" y1="318" x2="69" y2="270"/>
    <circle cx="517" cy="318" r="2"/>
    <circle cx="69" cy="270" r="2"/>
  </g>
  <g stroke="chocolate" stroke-width="1">
    <line x1="515" y1="227" x2="513" y2="205"/>
    <circle cx="515" cy="227" r="2"/>
    <circle cx="513" cy="205" r="2"/>
  </g>
  <g stroke="chocolate" stroke-width="1">
    <line x1="517" y1="318" x2="513" y2="205"/>
    <circle cx="517" cy="318" r="2"/>
    <circle cx="513" cy="205" r="2"/>
  </g>
  <g stroke="chocolate" stroke-width="1">
    <line x1="517" y1="318" x2="558" y2="162"/>
    <circle cx="517" cy="318" r="2"/>
    <circle cx="558" cy="162" r="2"/>
  </g>
  <g stroke="chocolate" stroke-width="1">
    <line x1="94" y1="228" x2="513" y2="205"/>
    <circle cx="94" cy="228" r="2"/>
    <circle cx="513" cy="205" r="2"/>
  </g>
  <g stroke="chocolate" stroke-width="1">
    <line x1="477" y1="402" x2="559" y2="166"/>
    <circle cx="477" cy="402" r="2"/>
    <circle cx="559" cy="166" r="2"/>
  </g>
  <g stroke="chocolate" stroke-width="1">
    <line x1="31" y1="162" x2="558" y2="162"/>
    <circle cx="31" cy="162" r="2"/>
    <circle cx="558" cy="162" r="2"/>
  </g>
  <g stroke="chocolate" stroke-width="1">
    <line x1="412" y1="307" x2="515" y2="227"/>
    <circle cx="412" cy="307" r="2"/>
    <circle cx="515" cy="227" r="2"/>
  </g>
  <g stroke="chocolate" stroke-width="1">
    <line x1="394" y1="305" x2="554" y2="162"/>
    <circle cx="394" cy="305" r="2"/>
    <circle cx="554" cy="162" r="2"/>
  </g>
  <g stroke="chocolate" stroke-width="1">
    <line x1="377" y1="281" x2="479" y2="207"/>
    <circle cx="377" cy="281" r="2"/>
    <circle cx="479" cy="207" r="2"/>
  </g>
  <g stroke="chocolate" stroke-width="1">
    <line x1="5" y1="238" x2="31" y2="162"/>
    <circle cx="5" cy="238" r="2"/>
    <circle cx="31" cy="162" r="2"/>
  </g>
  <g stroke="chocolate" stroke-width="1">
    <line x1="281" y1="173" x2="290" y2="162"/>
    <circle cx="281" cy="173" r="2"/>
    <circle cx="290" cy="162" r="2"/>
  </g>
  <g stroke="chocolate" stroke-width="1">
    <line x1="69" y1="270" x2="94" y2="228"/>
    <circle cx="69" cy="270" r="2"/>
    <circle cx="94" cy="228" r="2"/>
  </g>
  <g stroke="chocolate" stroke-width="1">
    <line x1="131" y1="276" x2="268" y2="162"/>
    <circle cx="131" cy="276" r="2"/>
    <circle cx="268" cy="162" r="2"/>
  </g>
  <g stroke="black" stroke-width="1">
    <line x1="32" y1="32" x2="532" y2="32"/>
    <line x1="32" y1="32" x2="32" y2="532"/>
    <line x1="532" y1="532" x2="32" y2="532"/>
    <line x1="532" y1="532" x2="532" y2="32"/>
    <line x1="132" y1="29" x2="132" y2="35"/>
    <line x1="29" y1="132" x2="35" y2="132"/>
    <line x1="132" y1="529" x2="132" y2="535"/>
    <line x1="529" y1="132" x2="535" y2="132"/>
    <line x1="232" y1="29" x2="232" y2="35"/>
    <line x1="29" y1="232" x2="35" y2="232"/>
    <line x1="232" y1="529" x2="232" y2="535"/>
    <line x1="529" y1="232" x2="535" y2="232"/>
    <line x1="332" y1="29" x2="332" y2="35"/>
    <line x1="29" y1="332" x2="35" y2="332"/>
    <line x1="332" y1="529" x2="332" y2="535"/>
    <line x1="529" y1="332" x2="535" y2="332"/>
    <line x1="432" y1="29" x2="432" y2="35"/>
    <line x1="29" y1="432" x2="35" y2="432"/>
    <line x1="432" y1="529" x2="432" y2="535"/>
    <line x1="529" y1="432" x2="535" y2="432"/>
  </g>
  <g stroke="gray" stroke-width="1" stroke-dasharray="5,5">
    <line x1="132" y1="32" x2="132" y2="532"/>
    <line x1="32" y1="132" x2="532" y2="132"/>
    <line x1="232" y1="32" x2="232" y2="532"/>
    <line x1="32" y1="232" x2="532" y2="232"/>
    <line x1="332" y1="32" x2="332" y2="532"/>
    <line x1="32" y1="332" x2="532" y2="332"/>
    <line x1="432" y1="32" x2="432" y2="532"/>
    <line x1="32" y1="432" x2="532" y2="432"/>
  </g>
</svg>
