<?xml version="1.0" standalone="no"?>
<!DOCTYPE svg PUBLIC "-//W3C//DTD SVG 1.1//EN" 
  "http://www.w3.org/Graphics/SVG/1.1/DTD/svg11.dtd">
<svg width="510" height="510" version="1.1" id="toplevel"
    xmlns="http://www.w3.org/2000/svg"
    xmlns:xlink="http://www.w3.org/1999/xlink">
  <polygon points="152,363 294,359 328,323 292,289 361,216 289,147 218,149 149,221"
           fill="bisque"/>
  <polygon points="258,325 221,290 220,220 292,289" fill="bisque"/>
  <g stroke="chocolate" stroke-width="1">
    <line x1="152" y1="363" x2="294" y2="359"/>
    <circle cx="152" cy="363" r="2"/>
    <circle cx="294" cy="359" r="2"/>
  </g>
  <g stroke="chocolate" stroke-width="1">
    <line x1="294" y1="359" x2="328" y2="323"/>
    <circle cx="294" cy="359" r="2"/>
    <circle cx="328" cy="323" r="2"/>
  </g>
  <g stroke="chocolate" stroke-width="1">
    <line x1="223" y1="361" x2="151" y2="292"/>
    <circle cx="223" cy="361" r="2"/>
    <circle cx="151" cy="292" r="2"/>
  </g>
  <g stroke="chocolate" stroke-width="1">
    <line x1="223" y1="361" x2="361" y2="216"/>
    <circle cx="223" cy="361" r="2"/>
    <circle cx="361" cy="216" r="2"/>
  </g>
  <g stroke="chocolate" stroke-width="1">
    <line x1="152" y1="363" x2="221" y2="290"/>
    <circle cx="152" cy="363" r="2"/>
    <circle cx="221" cy="290" r="2"/>
  </g>
  <g stroke="chocolate" stroke-width="1">
    <line x1="294" y1="359" x2="149" y2="221"/>
    <circle cx="294" cy="359" r="2"/>
    <circle cx="149" cy="221" r="2"/>
  </g>
  <g stroke="chocolate" stroke-width="1">
    <line x1="152" y1="363" x2="149" y2="221"/>
    <circle cx="152" cy="363" r="2"/>
    <circle cx="149" cy="221" r="2"/>
  </g>
  <g stroke="chocolate" stroke-width="1">
    <line x1="151" y1="292" x2="289" y2="147"/>
    <circle cx="151" cy="292" r="2"/>
    <circle cx="289" cy="147" r="2"/>
  </g>
  <g stroke="chocolate" stroke-width="1">
    <line x1="221" y1="290" x2="218" y2="149"/>
    <circle cx="221" cy="290" r="2"/>
    <circle cx="218" cy="149" r="2"/>
  </g>
  <g stroke="chocolate" stroke-width="1">
    <line x1="149" y1="221" x2="361" y2="216"/>
    <circle cx="149" cy="221" r="2"/>
    <circle cx="361" cy="216" r="2"/>
  </g>
  <g stroke="chocolate" stroke-width="1">
    <line x1="328" y1="323" x2="183" y2="185"/>
    <circle cx="328" cy="323" r="2"/>
    <circle cx="183" cy="185" r="2"/>
  </g>
  <g stroke="chocolate" stroke-width="1">
    <line x1="294" y1="359" x2="292" y2="289"/>
    <circle cx="294" cy="359" r="2"/>
    <circle cx="292" cy="289" r="2"/>
  </g>
  <g stroke="chocolate" stroke-width="1">
    <line x1="149" y1="221" x2="218" y2="149"/>
    <circle cx="149" cy="221" r="2"/>
    <circle cx="218" cy="149" r="2"/>
  </g>
  <g stroke="chocolate" stroke-width="1">
    <line x1="218" y1="149" x2="289" y2="147"/>
    <circle cx="218" cy="149" r="2"/>
    <circle cx="289" cy="147" r="2"/>
  </g>
  <g stroke="chocolate" stroke-width="1">
    <line x1="361" y1="216" x2="289" y2="147"/>
    <circle cx="361" cy="216" r="2"/>
    <circle cx="289" cy="147" r="2"/>
  </g>
  <g stroke="black" stroke-width="1">
    <line x1="5" y1="5" x2="505" y2="5"/>
    <line x1="5" y1="5" x2="5" y2="505"/>
    <line x1="505" y1="505" x2="5" y2="505"/>
    <line x1="505" y1="505" x2="505" y2="5"/>
    <line x1="105" y1="2" x2="105" y2="8"/>
    <line x1="2" y1="105" x2="8" y2="105"/>
    <line x1="105" y1="502" x2="105" y2="508"/>
    <line x1="502" y1="105" x2="508" y2="105"/>
    <line x1="205" y1="2" x2="205" y2="8"/>
    <line x1="2" y1="205" x2="8" y2="205"/>
    <line x1="205" y1="502" x2="205" y2="508"/>
    <line x1="502" y1="205" x2="508" y2="205"/>
    <line x1="305" y1="2" x2="305" y2="8"/>
    <line x1="2" y1="305" x2="8" y2="305"/>
    <line x1="305" y1="502" x2="305" y2="508"/>
    <line x1="502" y1="305" x2="508" y2="305"/>
    <line x1="405" y1="2" x2="405" y2="8"/>
    <line x1="2" y1="405" x2="8" y2="405"/>
    <line x1="405" y1="502" x2="405" y2="508"/>
    <line x1="502" y1="405" x2="508" y2="405"/>
  </g>
  <g stroke="gray" stroke-width="1" stroke-dasharray="5,5">
    <line x1="105" y1="5" x2="105" y2="505"/>
    <line x1="5" y1="105" x2="505" y2="105"/>
    <line x1="205" y1="5" x2="205" y2="505"/>
    <line x1="5" y1="205" x2="505" y2="205"/>
    <line x1="305" y1="5" x2="305" y2="505"/>
    <line x1="5" y1="305" x2="505" y2="305"/>
    <line x1="405" y1="5" x2="405" y2="505"/>
    <line x1="5" y1="405" x2="505" y2="405"/>
  </g>
</svg>
