<?xml version="1.0" standalone="no"?>
<!DOCTYPE svg PUBLIC "-//W3C//DTD SVG 1.1//EN" 
  "http://www.w3.org/Graphics/SVG/1.1/DTD/svg11.dtd">
<svg width="510" height="510" version="1.1" id="toplevel"
    xmlns="http://www.w3.org/2000/svg"
    xmlns:xlink="http://www.w3.org/1999/xlink">
  <polygon points="114,428 124,400 229,400 244,373 273,385 398,208 472,200 462,101 449,82 56,298 38,400"
           fill="bisque"/>
  <g stroke="chocolate" stroke-width="1">
    <line x1="273" y1="385" x2="462" y2="115"/>
    <circle cx="273" cy="385" r="2"/>
    <circle cx="462" cy="115" r="2"/>
  </g>
  <g stroke="chocolate" stroke-width="1">
    <line x1="229" y1="400" x2="393" y2="112"/>
    <circle cx="229" cy="400" r="2"/>
    <circle cx="393" cy="112" r="2"/>
  </g>
  <g stroke="chocolate" stroke-width="1">
    <line x1="426" y1="168" x2="436" y2="89"/>
    <circle cx="426" cy="168" r="2"/>
    <circle cx="436" cy="89" r="2"/>
  </g>
  <g stroke="chocolate" stroke-width="1">
    <line x1="114" y1="428" x2="190" y2="224"/>
    <circle cx="114" cy="428" r="2"/>
    <circle cx="190" cy="224" r="2"/>
  </g>
  <g stroke="chocolate" stroke-width="1">
    <line x1="159" y1="258" x2="181" y2="229"/>
    <circle cx="159" cy="258" r="2"/>
    <circle cx="181" cy="229" r="2"/>
  </g>
  <g stroke="chocolate" stroke-width="1">
    <line x1="38" y1="400" x2="56" y2="298"/>
    <circle cx="38" cy="400" r="2"/>
    <circle cx="56" cy="298" r="2"/>
  </g>
  <g stroke="chocolate" stroke-width="1">
    <line x1="167" y1="301" x2="426" y2="168"/>
    <circle cx="167" cy="301" r="2"/>
    <circle cx="426" cy="168" r="2"/>
  </g>
  <g stroke="chocolate" stroke-width="1">
    <line x1="38" y1="400" x2="229" y2="400"/>
    <circle cx="38" cy="400" r="2"/>
    <circle cx="229" cy="400" r="2"/>
  </g>
  <g stroke="chocolate" stroke-width="1">
    <line x1="159" y1="258" x2="305" y2="168"/>
    <circle cx="159" cy="258" r="2"/>
    <circle cx="305" cy="168" r="2"/>
  </g>
  <g stroke="chocolate" stroke-width="1">
    <line x1="114" y1="428" x2="38" y2="400"/>
    <circle cx="114" cy="428" r="2"/>
    <circle cx="38" cy="400" r="2"/>
  </g>
  <g stroke="chocolate" stroke-width="1">
    <line x1="56" y1="298" x2="449" y2="82"/>
    <circle cx="56" cy="298" r="2"/>
    <circle cx="449" cy="82" r="2"/>
  </g>
  <g stroke="chocolate" stroke-width="1">
    <line x1="472" y1="200" x2="462" y2="101"/>
    <circle cx="472" cy="200" r="2"/>
    <circle cx="462" cy="101" r="2"/>
  </g>
  <g stroke="chocolate" stroke-width="1">
    <line x1="167" y1="301" x2="141" y2="251"/>
    <circle cx="167" cy="301" r="2"/>
    <circle cx="141" cy="251" r="2"/>
  </g>
  <g stroke="chocolate" stroke-width="1">
    <line x1="229" y1="400" x2="141" y2="251"/>
    <circle cx="229" cy="400" r="2"/>
    <circle cx="141" cy="251" r="2"/>
  </g>
  <g stroke="chocolate" stroke-width="1">
    <line x1="273" y1="385" x2="56" y2="298"/>
    <circle cx="273" cy="385" r="2"/>
    <circle cx="56" cy="298" r="2"/>
  </g>
  <g stroke="chocolate" stroke-width="1">
    <line x1="181" y1="229" x2="472" y2="200"/>
    <circle cx="181" cy="229" r="2"/>
    <circle cx="472" cy="200" r="2"/>
  </g>
  <g stroke="chocolate" stroke-width="1">
    <line x1="273" y1="385" x2="159" y2="258"/>
    <circle cx="273" cy="385" r="2"/>
    <circle cx="159" cy="258" r="2"/>
  </g>
  <g stroke="chocolate" stroke-width="1">
    <line x1="361" y1="259" x2="190" y2="224"/>
    <circle cx="361" cy="259" r="2"/>
    <circle cx="190" cy="224" r="2"/>
  </g>
  <g stroke="chocolate" stroke-width="1">
    <line x1="361" y1="259" x2="305" y2="168"/>
    <circle cx="361" cy="259" r="2"/>
    <circle cx="305" cy="168" r="2"/>
  </g>
  <g stroke="chocolate" stroke-width="1">
    <line x1="462" y1="115" x2="449" y2="82"/>
    <circle cx="462" cy="115" r="2"/>
    <circle cx="449" cy="82" r="2"/>
  </g>
  <g stroke="chocolate" stroke-width="1">
    <line x1="462" y1="115" x2="393" y2="112"/>
    <circle cx="462" cy="115" r="2"/>
    <circle cx="393" cy="112" r="2"/>
  </g>
  <g stroke="chocolate" stroke-width="1">
    <line x1="462" y1="101" x2="449" y2="82"/>
    <circle cx="462" cy="101" r="2"/>
    <circle cx="449" cy="82" r="2"/>
  </g>
  <g stroke="chocolate" stroke-width="1">
    <line x1="462" y1="101" x2="436" y2="89"/>
    <circle cx="462" cy="101" r="2"/>
    <circle cx="436" cy="89" r="2"/>
  </g>
  <g stroke="black" stroke-width="1">
    <line x1="5" y1="5" x2="505" y2="5"/>
    <line x1="5" y1="5" x2="5" y2="505"/>
    <line x1="505" y1="505" x2="5" y2="505"/>
    <line x1="505" y1="505" x2="505" y2="5"/>
    <line x1="105" y1="2" x2="105" y2="8"/>
    <line x1="2" y1="105" x2="8" y2="105"/>
    <line x1="105" y1="502" x2="105" y2="508"/>
    <line x1="502" y1="105" x2="508" y2="105"/>
    <line x1="205" y1="2" x2="205" y2="8"/>
    <line x1="2" y1="205" x2="8" y2="205"/>
    <line x1="205" y1="502" x2="205" y2="508"/>
    <line x1="502" y1="205" x2="508" y2="205"/>
    <line x1="305" y1="2" x2="305" y2="8"/>
    <line x1="2" y1="305" x2="8" y2="305"/>
    <line x1="305" y1="502" x2="305" y2="508"/>
    <line x1="502" y1="305" x2="508" y2="305"/>
    <line x1="405" y1="2" x2="405" y2="8"/>
    <line x1="2" y1="405" x2="8" y2="405"/>
    <line x1="405" y1="502" x2="405" y2="508"/>
    <line x1="502" y1="405" x2="508" y2="405"/>
  </g>
  <g stroke="gray" stroke-width="1" stroke-dasharray="5,5">
    <line x1="105" y1="5" x2="105" y2="505"/>
    <line x1="5" y1="105" x2="505" y2="105"/>
    <line x1="205" y1="5" x2="205" y2="505"/>
    <line x1="5" y1="205" x2="505" y2="205"/>
    <line x1="305" y1="5" x2="305" y2="505"/>
    <line x1="5" y1="305" x2="505" y2="305"/>
    <line x1="405" y1="5" x2="405" y2="505"/>
    <line x1="5" y1="405" x2="505" y2="405"/>
  </g>
</svg>
