<?xml version="1.0" standalone="no"?>
<!DOCTYPE svg PUBLIC "-//W3C//DTD SVG 1.1//EN" 
  "http://www.w3.org/Graphics/SVG/1.1/DTD/svg11.dtd">
<svg width="510" height="510" version="1.1" id="toplevel"
    xmlns="http://www.w3.org/2000/svg"
    xmlns:xlink="http://www.w3.org/1999/xlink">
  <polygon points="289,485 307,467 308,184 361,132 308,78 308,25 255,25 255,114 167,113 149,131 184,166 255,167 254,449"
           fill="bisque"/>
  <g stroke="chocolate" stroke-width="1">
    <line x1="289" y1="485" x2="307" y2="467"/>
    <circle cx="289" cy="485" r="2"/>
    <circle cx="307" cy="467" r="2"/>
  </g>
  <g stroke="chocolate" stroke-width="1">
    <line x1="254" y1="449" x2="289" y2="414"/>
    <circle cx="254" cy="449" r="2"/>
    <circle cx="289" cy="414" r="2"/>
  </g>
  <g stroke="chocolate" stroke-width="1">
    <line x1="289" y1="485" x2="254" y2="449"/>
    <circle cx="289" cy="485" r="2"/>
    <circle cx="254" cy="449" r="2"/>
  </g>
  <g stroke="chocolate" stroke-width="1">
    <line x1="254" y1="414" x2="289" y2="379"/>
    <circle cx="254" cy="414" r="2"/>
    <circle cx="289" cy="379" r="2"/>
  </g>
  <g stroke="chocolate" stroke-width="1">
    <line x1="307" y1="467" x2="254" y2="414"/>
    <circle cx="307" cy="467" r="2"/>
    <circle cx="254" cy="414" r="2"/>
  </g>
  <g stroke="chocolate" stroke-width="1">
    <line x1="254" y1="379" x2="289" y2="343"/>
    <circle cx="254" cy="379" r="2"/>
    <circle cx="289" cy="343" r="2"/>
  </g>
  <g stroke="chocolate" stroke-width="1">
    <line x1="289" y1="414" x2="254" y2="379"/>
    <circle cx="289" cy="414" r="2"/>
    <circle cx="254" cy="379" r="2"/>
  </g>
  <g stroke="chocolate" stroke-width="1">
    <line x1="254" y1="343" x2="290" y2="308"/>
    <circle cx="254" cy="343" r="2"/>
    <circle cx="290" cy="308" r="2"/>
  </g>
  <g stroke="chocolate" stroke-width="1">
    <line x1="289" y1="379" x2="254" y2="343"/>
    <circle cx="289" cy="379" r="2"/>
    <circle cx="254" cy="343" r="2"/>
  </g>
  <g stroke="chocolate" stroke-width="1">
    <line x1="254" y1="308" x2="290" y2="273"/>
    <circle cx="254" cy="308" r="2"/>
    <circle cx="290" cy="273" r="2"/>
  </g>
  <g stroke="chocolate" stroke-width="1">
    <line x1="289" y1="343" x2="254" y2="308"/>
    <circle cx="289" cy="343" r="2"/>
    <circle cx="254" cy="308" r="2"/>
  </g>
  <g stroke="chocolate" stroke-width="1">
    <line x1="254" y1="273" x2="290" y2="237"/>
    <circle cx="254" cy="273" r="2"/>
    <circle cx="290" cy="237" r="2"/>
  </g>
  <g stroke="chocolate" stroke-width="1">
    <line x1="290" y1="308" x2="254" y2="273"/>
    <circle cx="290" cy="308" r="2"/>
    <circle cx="254" cy="273" r="2"/>
  </g>
  <g stroke="chocolate" stroke-width="1">
    <line x1="255" y1="237" x2="361" y2="132"/>
    <circle cx="255" cy="237" r="2"/>
    <circle cx="361" cy="132" r="2"/>
  </g>
  <g stroke="chocolate" stroke-width="1">
    <line x1="290" y1="273" x2="255" y2="237"/>
    <circle cx="290" cy="273" r="2"/>
    <circle cx="255" cy="237" r="2"/>
  </g>
  <g stroke="chocolate" stroke-width="1">
    <line x1="184" y1="166" x2="149" y2="131"/>
    <circle cx="184" cy="166" r="2"/>
    <circle cx="149" cy="131" r="2"/>
  </g>
  <g stroke="chocolate" stroke-width="1">
    <line x1="255" y1="167" x2="184" y2="166"/>
    <circle cx="255" cy="167" r="2"/>
    <circle cx="184" cy="166" r="2"/>
  </g>
  <g stroke="chocolate" stroke-width="1">
    <line x1="290" y1="237" x2="255" y2="202"/>
    <circle cx="290" cy="237" r="2"/>
    <circle cx="255" cy="202" r="2"/>
  </g>
  <g stroke="chocolate" stroke-width="1">
    <line x1="219" y1="166" x2="167" y2="113"/>
    <circle cx="219" cy="166" r="2"/>
    <circle cx="167" cy="113" r="2"/>
  </g>
  <g stroke="chocolate" stroke-width="1">
    <line x1="255" y1="202" x2="326" y2="131"/>
    <circle cx="255" cy="202" r="2"/>
    <circle cx="326" cy="131" r="2"/>
  </g>
  <g stroke="chocolate" stroke-width="1">
    <line x1="255" y1="167" x2="220" y2="131"/>
    <circle cx="255" cy="167" r="2"/>
    <circle cx="220" cy="131" r="2"/>
  </g>
  <g stroke="chocolate" stroke-width="1">
    <line x1="255" y1="167" x2="308" y2="114"/>
    <circle cx="255" cy="167" r="2"/>
    <circle cx="308" cy="114" r="2"/>
  </g>
  <g stroke="chocolate" stroke-width="1">
    <line x1="290" y1="131" x2="220" y2="131"/>
    <circle cx="290" cy="131" r="2"/>
    <circle cx="220" cy="131" r="2"/>
  </g>
  <g stroke="chocolate" stroke-width="1">
    <line x1="273" y1="149" x2="255" y2="131"/>
    <circle cx="273" cy="149" r="2"/>
    <circle cx="255" cy="131" r="2"/>
  </g>
  <g stroke="chocolate" stroke-width="1">
    <line x1="219" y1="166" x2="291" y2="96"/>
    <circle cx="219" cy="166" r="2"/>
    <circle cx="291" cy="96" r="2"/>
  </g>
  <g stroke="chocolate" stroke-width="1">
    <line x1="307" y1="467" x2="308" y2="25"/>
    <circle cx="307" cy="467" r="2"/>
    <circle cx="308" cy="25" r="2"/>
  </g>
  <g stroke="chocolate" stroke-width="1">
    <line x1="289" y1="414" x2="291" y2="25"/>
    <circle cx="289" cy="414" r="2"/>
    <circle cx="291" cy="25" r="2"/>
  </g>
  <g stroke="chocolate" stroke-width="1">
    <line x1="254" y1="449" x2="255" y2="25"/>
    <circle cx="254" cy="449" r="2"/>
    <circle cx="255" cy="25" r="2"/>
  </g>
  <g stroke="chocolate" stroke-width="1">
    <line x1="308" y1="114" x2="167" y2="113"/>
    <circle cx="308" cy="114" r="2"/>
    <circle cx="167" cy="113" r="2"/>
  </g>
  <g stroke="chocolate" stroke-width="1">
    <line x1="290" y1="131" x2="255" y2="96"/>
    <circle cx="290" cy="131" r="2"/>
    <circle cx="255" cy="96" r="2"/>
  </g>
  <g stroke="chocolate" stroke-width="1">
    <line x1="184" y1="166" x2="220" y2="131"/>
    <circle cx="184" cy="166" r="2"/>
    <circle cx="220" cy="131" r="2"/>
  </g>
  <g stroke="chocolate" stroke-width="1">
    <line x1="255" y1="96" x2="291" y2="61"/>
    <circle cx="255" cy="96" r="2"/>
    <circle cx="291" cy="61" r="2"/>
  </g>
  <g stroke="chocolate" stroke-width="1">
    <line x1="326" y1="131" x2="255" y2="60"/>
    <circle cx="326" cy="131" r="2"/>
    <circle cx="255" cy="60" r="2"/>
  </g>
  <g stroke="chocolate" stroke-width="1">
    <line x1="255" y1="60" x2="291" y2="25"/>
    <circle cx="255" cy="60" r="2"/>
    <circle cx="291" cy="25" r="2"/>
  </g>
  <g stroke="chocolate" stroke-width="1">
    <line x1="361" y1="132" x2="255" y2="25"/>
    <circle cx="361" cy="132" r="2"/>
    <circle cx="255" cy="25" r="2"/>
  </g>
  <g stroke="chocolate" stroke-width="1">
    <line x1="149" y1="131" x2="167" y2="113"/>
    <circle cx="149" cy="131" r="2"/>
    <circle cx="167" cy="113" r="2"/>
  </g>
  <g stroke="chocolate" stroke-width="1">
    <line x1="308" y1="25" x2="255" y2="25"/>
    <circle cx="308" cy="25" r="2"/>
    <circle cx="255" cy="25" r="2"/>
  </g>
  <g stroke="black" stroke-width="1">
    <line x1="5" y1="5" x2="505" y2="5"/>
    <line x1="5" y1="5" x2="5" y2="505"/>
    <line x1="505" y1="505" x2="5" y2="505"/>
    <line x1="505" y1="505" x2="505" y2="5"/>
    <line x1="105" y1="2" x2="105" y2="8"/>
    <line x1="2" y1="105" x2="8" y2="105"/>
    <line x1="105" y1="502" x2="105" y2="508"/>
    <line x1="502" y1="105" x2="508" y2="105"/>
    <line x1="205" y1="2" x2="205" y2="8"/>
    <line x1="2" y1="205" x2="8" y2="205"/>
    <line x1="205" y1="502" x2="205" y2="508"/>
    <line x1="502" y1="205" x2="508" y2="205"/>
    <line x1="305" y1="2" x2="305" y2="8"/>
    <line x1="2" y1="305" x2="8" y2="305"/>
    <line x1="305" y1="502" x2="305" y2="508"/>
    <line x1="502" y1="305" x2="508" y2="305"/>
    <line x1="405" y1="2" x2="405" y2="8"/>
    <line x1="2" y1="405" x2="8" y2="405"/>
    <line x1="405" y1="502" x2="405" y2="508"/>
    <line x1="502" y1="405" x2="508" y2="405"/>
  </g>
  <g stroke="gray" stroke-width="1" stroke-dasharray="5,5">
    <line x1="105" y1="5" x2="105" y2="505"/>
    <line x1="5" y1="105" x2="505" y2="105"/>
    <line x1="205" y1="5" x2="205" y2="505"/>
    <line x1="5" y1="205" x2="505" y2="205"/>
    <line x1="305" y1="5" x2="305" y2="505"/>
    <line x1="5" y1="305" x2="505" y2="305"/>
    <line x1="405" y1="5" x2="405" y2="505"/>
    <line x1="5" y1="405" x2="505" y2="405"/>
  </g>
</svg>
