<?xml version="1.0" standalone="no"?>
<!DOCTYPE svg PUBLIC "-//W3C//DTD SVG 1.1//EN" 
  "http://www.w3.org/Graphics/SVG/1.1/DTD/svg11.dtd">
<svg width="510" height="510" version="1.1" id="toplevel"
    xmlns="http://www.w3.org/2000/svg"
    xmlns:xlink="http://www.w3.org/1999/xlink">
  <polygon points="340,304 344,294 370,300 455,65 442,47 57,93 55,137 71,146 88,203"
           fill="bisque"/>
  <g stroke="chocolate" stroke-width="1">
    <line x1="370" y1="300" x2="455" y2="65"/>
    <circle cx="370" cy="300" r="2"/>
    <circle cx="455" cy="65" r="2"/>
  </g>
  <g stroke="chocolate" stroke-width="1">
    <line x1="340" y1="304" x2="442" y2="47"/>
    <circle cx="340" cy="304" r="2"/>
    <circle cx="442" cy="47" r="2"/>
  </g>
  <g stroke="chocolate" stroke-width="1">
    <line x1="306" y1="286" x2="430" y2="136"/>
    <circle cx="306" cy="286" r="2"/>
    <circle cx="430" cy="136" r="2"/>
  </g>
  <g stroke="chocolate" stroke-width="1">
    <line x1="185" y1="83" x2="185" y2="78"/>
    <circle cx="185" cy="83" r="2"/>
    <circle cx="185" cy="78" r="2"/>
  </g>
  <g stroke="chocolate" stroke-width="1">
    <line x1="55" y1="137" x2="57" y2="93"/>
    <circle cx="55" cy="137" r="2"/>
    <circle cx="57" cy="93" r="2"/>
  </g>
  <g stroke="chocolate" stroke-width="1">
    <line x1="430" y1="136" x2="430" y2="49"/>
    <circle cx="430" cy="136" r="2"/>
    <circle cx="430" cy="49" r="2"/>
  </g>
  <g stroke="chocolate" stroke-width="1">
    <line x1="88" y1="203" x2="180" y2="78"/>
    <circle cx="88" cy="203" r="2"/>
    <circle cx="180" cy="78" r="2"/>
  </g>
  <g stroke="chocolate" stroke-width="1">
    <line x1="88" y1="203" x2="57" y2="93"/>
    <circle cx="88" cy="203" r="2"/>
    <circle cx="57" cy="93" r="2"/>
  </g>
  <g stroke="chocolate" stroke-width="1">
    <line x1="306" y1="286" x2="261" y2="117"/>
    <circle cx="306" cy="286" r="2"/>
    <circle cx="261" cy="117" r="2"/>
  </g>
  <g stroke="chocolate" stroke-width="1">
    <line x1="205" y1="138" x2="185" y2="78"/>
    <circle cx="205" cy="138" r="2"/>
    <circle cx="185" cy="78" r="2"/>
  </g>
  <g stroke="chocolate" stroke-width="1">
    <line x1="440" y1="91" x2="430" y2="49"/>
    <circle cx="440" cy="91" r="2"/>
    <circle cx="430" cy="49" r="2"/>
  </g>
  <g stroke="chocolate" stroke-width="1">
    <line x1="81" y1="178" x2="205" y2="138"/>
    <circle cx="81" cy="178" r="2"/>
    <circle cx="205" cy="138" r="2"/>
  </g>
  <g stroke="chocolate" stroke-width="1">
    <line x1="55" y1="137" x2="185" y2="83"/>
    <circle cx="55" cy="137" r="2"/>
    <circle cx="185" cy="83" r="2"/>
  </g>
  <g stroke="chocolate" stroke-width="1">
    <line x1="81" y1="178" x2="440" y2="91"/>
    <circle cx="81" cy="178" r="2"/>
    <circle cx="440" cy="91" r="2"/>
  </g>
  <g stroke="chocolate" stroke-width="1">
    <line x1="261" y1="117" x2="455" y2="65"/>
    <circle cx="261" cy="117" r="2"/>
    <circle cx="455" cy="65" r="2"/>
  </g>
  <g stroke="chocolate" stroke-width="1">
    <line x1="370" y1="300" x2="306" y2="286"/>
    <circle cx="370" cy="300" r="2"/>
    <circle cx="306" cy="286" r="2"/>
  </g>
  <g stroke="chocolate" stroke-width="1">
    <line x1="340" y1="304" x2="88" y2="203"/>
    <circle cx="340" cy="304" r="2"/>
    <circle cx="88" cy="203" r="2"/>
  </g>
  <g stroke="chocolate" stroke-width="1">
    <line x1="370" y1="300" x2="55" y2="137"/>
    <circle cx="370" cy="300" r="2"/>
    <circle cx="55" cy="137" r="2"/>
  </g>
  <g stroke="chocolate" stroke-width="1">
    <line x1="185" y1="83" x2="180" y2="78"/>
    <circle cx="185" cy="83" r="2"/>
    <circle cx="180" cy="78" r="2"/>
  </g>
  <g stroke="chocolate" stroke-width="1">
    <line x1="57" y1="93" x2="442" y2="47"/>
    <circle cx="57" cy="93" r="2"/>
    <circle cx="442" cy="47" r="2"/>
  </g>
  <g stroke="chocolate" stroke-width="1">
    <line x1="455" y1="65" x2="442" y2="47"/>
    <circle cx="455" cy="65" r="2"/>
    <circle cx="442" cy="47" r="2"/>
  </g>
  <g stroke="black" stroke-width="1">
    <line x1="5" y1="5" x2="505" y2="5"/>
    <line x1="5" y1="5" x2="5" y2="505"/>
    <line x1="505" y1="505" x2="5" y2="505"/>
    <line x1="505" y1="505" x2="505" y2="5"/>
    <line x1="105" y1="2" x2="105" y2="8"/>
    <line x1="2" y1="105" x2="8" y2="105"/>
    <line x1="105" y1="502" x2="105" y2="508"/>
    <line x1="502" y1="105" x2="508" y2="105"/>
    <line x1="205" y1="2" x2="205" y2="8"/>
    <line x1="2" y1="205" x2="8" y2="205"/>
    <line x1="205" y1="502" x2="205" y2="508"/>
    <line x1="502" y1="205" x2="508" y2="205"/>
    <line x1="305" y1="2" x2="305" y2="8"/>
    <line x1="2" y1="305" x2="8" y2="305"/>
    <line x1="305" y1="502" x2="305" y2="508"/>
    <line x1="502" y1="305" x2="508" y2="305"/>
    <line x1="405" y1="2" x2="405" y2="8"/>
    <line x1="2" y1="405" x2="8" y2="405"/>
    <line x1="405" y1="502" x2="405" y2="508"/>
    <line x1="502" y1="405" x2="508" y2="405"/>
  </g>
  <g stroke="gray" stroke-width="1" stroke-dasharray="5,5">
    <line x1="105" y1="5" x2="105" y2="505"/>
    <line x1="5" y1="105" x2="505" y2="105"/>
    <line x1="205" y1="5" x2="205" y2="505"/>
    <line x1="5" y1="205" x2="505" y2="205"/>
    <line x1="305" y1="5" x2="305" y2="505"/>
    <line x1="5" y1="305" x2="505" y2="305"/>
    <line x1="405" y1="5" x2="405" y2="505"/>
    <line x1="5" y1="405" x2="505" y2="405"/>
  </g>
</svg>
