<?xml version="1.0" standalone="no"?>
<!DOCTYPE svg PUBLIC "-//W3C//DTD SVG 1.1//EN" 
  "http://www.w3.org/Graphics/SVG/1.1/DTD/svg11.dtd">
<svg width="510" height="510" version="1.1" id="toplevel"
    xmlns="http://www.w3.org/2000/svg"
    xmlns:xlink="http://www.w3.org/1999/xlink">
  <polygon points="157,372 180,308 224,282 227,284 432,247 418,171 372,150 83,138 78,168 88,194 102,352"
           fill="bisque"/>
  <g stroke="chocolate" stroke-width="1">
    <line x1="102" y1="352" x2="418" y2="171"/>
    <circle cx="102" cy="352" r="2"/>
    <circle cx="418" cy="171" r="2"/>
  </g>
  <g stroke="chocolate" stroke-width="1">
    <line x1="161" y1="228" x2="225" y2="144"/>
    <circle cx="161" cy="228" r="2"/>
    <circle cx="225" cy="144" r="2"/>
  </g>
  <g stroke="chocolate" stroke-width="1">
    <line x1="268" y1="211" x2="379" y2="152"/>
    <circle cx="268" cy="211" r="2"/>
    <circle cx="379" cy="152" r="2"/>
  </g>
  <g stroke="chocolate" stroke-width="1">
    <line x1="157" y1="372" x2="191" y2="276"/>
    <circle cx="157" cy="372" r="2"/>
    <circle cx="191" cy="276" r="2"/>
  </g>
  <g stroke="chocolate" stroke-width="1">
    <line x1="98" y1="215" x2="141" y2="162"/>
    <circle cx="98" cy="215" r="2"/>
    <circle cx="141" cy="162" r="2"/>
  </g>
  <g stroke="chocolate" stroke-width="1">
    <line x1="86" y1="178" x2="111" y2="150"/>
    <circle cx="86" cy="178" r="2"/>
    <circle cx="111" cy="150" r="2"/>
  </g>
  <g stroke="chocolate" stroke-width="1">
    <line x1="79" y1="162" x2="97" y2="139"/>
    <circle cx="79" cy="162" r="2"/>
    <circle cx="97" cy="139" r="2"/>
  </g>
  <g stroke="chocolate" stroke-width="1">
    <line x1="78" y1="168" x2="103" y2="139"/>
    <circle cx="78" cy="168" r="2"/>
    <circle cx="103" cy="139" r="2"/>
  </g>
  <g stroke="chocolate" stroke-width="1">
    <line x1="202" y1="213" x2="214" y2="143"/>
    <circle cx="202" cy="213" r="2"/>
    <circle cx="214" cy="143" r="2"/>
  </g>
  <g stroke="chocolate" stroke-width="1">
    <line x1="109" y1="247" x2="372" y2="150"/>
    <circle cx="109" cy="247" r="2"/>
    <circle cx="372" cy="150" r="2"/>
  </g>
  <g stroke="chocolate" stroke-width="1">
    <line x1="227" y1="284" x2="432" y2="247"/>
    <circle cx="227" cy="284" r="2"/>
    <circle cx="432" cy="247" r="2"/>
  </g>
  <g stroke="chocolate" stroke-width="1">
    <line x1="78" y1="168" x2="83" y2="138"/>
    <circle cx="78" cy="168" r="2"/>
    <circle cx="83" cy="138" r="2"/>
  </g>
  <g stroke="chocolate" stroke-width="1">
    <line x1="95" y1="273" x2="391" y2="208"/>
    <circle cx="95" cy="273" r="2"/>
    <circle cx="391" cy="208" r="2"/>
  </g>
  <g stroke="chocolate" stroke-width="1">
    <line x1="85" y1="163" x2="111" y2="150"/>
    <circle cx="85" cy="163" r="2"/>
    <circle cx="111" cy="150" r="2"/>
  </g>
  <g stroke="chocolate" stroke-width="1">
    <line x1="102" y1="352" x2="83" y2="138"/>
    <circle cx="102" cy="352" r="2"/>
    <circle cx="83" cy="138" r="2"/>
  </g>
  <g stroke="chocolate" stroke-width="1">
    <line x1="227" y1="284" x2="214" y2="143"/>
    <circle cx="227" cy="284" r="2"/>
    <circle cx="214" cy="143" r="2"/>
  </g>
  <g stroke="chocolate" stroke-width="1">
    <line x1="191" y1="276" x2="95" y2="273"/>
    <circle cx="191" cy="276" r="2"/>
    <circle cx="95" cy="273" r="2"/>
  </g>
  <g stroke="chocolate" stroke-width="1">
    <line x1="157" y1="372" x2="102" y2="352"/>
    <circle cx="157" cy="372" r="2"/>
    <circle cx="102" cy="352" r="2"/>
  </g>
  <g stroke="chocolate" stroke-width="1">
    <line x1="109" y1="247" x2="79" y2="162"/>
    <circle cx="109" cy="247" r="2"/>
    <circle cx="79" cy="162" r="2"/>
  </g>
  <g stroke="chocolate" stroke-width="1">
    <line x1="432" y1="247" x2="418" y2="171"/>
    <circle cx="432" cy="247" r="2"/>
    <circle cx="418" cy="171" r="2"/>
  </g>
  <g stroke="chocolate" stroke-width="1">
    <line x1="109" y1="247" x2="78" y2="168"/>
    <circle cx="109" cy="247" r="2"/>
    <circle cx="78" cy="168" r="2"/>
  </g>
  <g stroke="chocolate" stroke-width="1">
    <line x1="391" y1="208" x2="379" y2="152"/>
    <circle cx="391" cy="208" r="2"/>
    <circle cx="379" cy="152" r="2"/>
  </g>
  <g stroke="chocolate" stroke-width="1">
    <line x1="161" y1="228" x2="98" y2="215"/>
    <circle cx="161" cy="228" r="2"/>
    <circle cx="98" cy="215" r="2"/>
  </g>
  <g stroke="chocolate" stroke-width="1">
    <line x1="372" y1="150" x2="83" y2="138"/>
    <circle cx="372" cy="150" r="2"/>
    <circle cx="83" cy="138" r="2"/>
  </g>
  <g stroke="chocolate" stroke-width="1">
    <line x1="191" y1="276" x2="97" y2="139"/>
    <circle cx="191" cy="276" r="2"/>
    <circle cx="97" cy="139" r="2"/>
  </g>
  <g stroke="chocolate" stroke-width="1">
    <line x1="268" y1="211" x2="85" y2="163"/>
    <circle cx="268" cy="211" r="2"/>
    <circle cx="85" cy="163" r="2"/>
  </g>
  <g stroke="chocolate" stroke-width="1">
    <line x1="111" y1="150" x2="103" y2="139"/>
    <circle cx="111" cy="150" r="2"/>
    <circle cx="103" cy="139" r="2"/>
  </g>
  <g stroke="chocolate" stroke-width="1">
    <line x1="227" y1="284" x2="86" y2="178"/>
    <circle cx="227" cy="284" r="2"/>
    <circle cx="86" cy="178" r="2"/>
  </g>
  <g stroke="chocolate" stroke-width="1">
    <line x1="268" y1="211" x2="225" y2="144"/>
    <circle cx="268" cy="211" r="2"/>
    <circle cx="225" cy="144" r="2"/>
  </g>
  <g stroke="chocolate" stroke-width="1">
    <line x1="202" y1="213" x2="141" y2="162"/>
    <circle cx="202" cy="213" r="2"/>
    <circle cx="141" cy="162" r="2"/>
  </g>
  <g stroke="chocolate" stroke-width="1">
    <line x1="418" y1="171" x2="372" y2="150"/>
    <circle cx="418" cy="171" r="2"/>
    <circle cx="372" cy="150" r="2"/>
  </g>
  <g stroke="black" stroke-width="1">
    <line x1="5" y1="5" x2="505" y2="5"/>
    <line x1="5" y1="5" x2="5" y2="505"/>
    <line x1="505" y1="505" x2="5" y2="505"/>
    <line x1="505" y1="505" x2="505" y2="5"/>
    <line x1="105" y1="2" x2="105" y2="8"/>
    <line x1="2" y1="105" x2="8" y2="105"/>
    <line x1="105" y1="502" x2="105" y2="508"/>
    <line x1="502" y1="105" x2="508" y2="105"/>
    <line x1="205" y1="2" x2="205" y2="8"/>
    <line x1="2" y1="205" x2="8" y2="205"/>
    <line x1="205" y1="502" x2="205" y2="508"/>
    <line x1="502" y1="205" x2="508" y2="205"/>
    <line x1="305" y1="2" x2="305" y2="8"/>
    <line x1="2" y1="305" x2="8" y2="305"/>
    <line x1="305" y1="502" x2="305" y2="508"/>
    <line x1="502" y1="305" x2="508" y2="305"/>
    <line x1="405" y1="2" x2="405" y2="8"/>
    <line x1="2" y1="405" x2="8" y2="405"/>
    <line x1="405" y1="502" x2="405" y2="508"/>
    <line x1="502" y1="405" x2="508" y2="405"/>
  </g>
  <g stroke="gray" stroke-width="1" stroke-dasharray="5,5">
    <line x1="105" y1="5" x2="105" y2="505"/>
    <line x1="5" y1="105" x2="505" y2="105"/>
    <line x1="205" y1="5" x2="205" y2="505"/>
    <line x1="5" y1="205" x2="505" y2="205"/>
    <line x1="305" y1="5" x2="305" y2="505"/>
    <line x1="5" y1="305" x2="505" y2="305"/>
    <line x1="405" y1="5" x2="405" y2="505"/>
    <line x1="5" y1="405" x2="505" y2="405"/>
  </g>
</svg>
