<?xml version="1.0" standalone="no"?>
<!DOCTYPE svg PUBLIC "-//W3C//DTD SVG 1.1//EN" 
  "http://www.w3.org/Graphics/SVG/1.1/DTD/svg11.dtd">
<svg width="510" height="510" version="1.1" id="toplevel"
    xmlns="http://www.w3.org/2000/svg"
    xmlns:xlink="http://www.w3.org/1999/xlink">
  <polygon points="101,414 134,346 376,346 409,414 433,346 413,319 468,309 491,262 439,280 255,96 71,280 19,262 42,309 97,319 77,346"
           fill="bisque"/>
  <g stroke="chocolate" stroke-width="1">
    <line x1="468" y1="309" x2="491" y2="262"/>
    <circle cx="468" cy="309" r="2"/>
    <circle cx="491" cy="262" r="2"/>
  </g>
  <g stroke="chocolate" stroke-width="1">
    <line x1="409" y1="414" x2="433" y2="346"/>
    <circle cx="409" cy="414" r="2"/>
    <circle cx="433" cy="346" r="2"/>
  </g>
  <g stroke="chocolate" stroke-width="1">
    <line x1="255" y1="346" x2="491" y2="262"/>
    <circle cx="255" cy="346" r="2"/>
    <circle cx="491" cy="262" r="2"/>
  </g>
  <g stroke="chocolate" stroke-width="1">
    <line x1="101" y1="414" x2="255" y2="96"/>
    <circle cx="101" cy="414" r="2"/>
    <circle cx="255" cy="96" r="2"/>
  </g>
  <g stroke="chocolate" stroke-width="1">
    <line x1="255" y1="346" x2="468" y2="309"/>
    <circle cx="255" cy="346" r="2"/>
    <circle cx="468" cy="309" r="2"/>
  </g>
  <g stroke="chocolate" stroke-width="1">
    <line x1="77" y1="346" x2="255" y2="96"/>
    <circle cx="77" cy="346" r="2"/>
    <circle cx="255" cy="96" r="2"/>
  </g>
  <g stroke="chocolate" stroke-width="1">
    <line x1="77" y1="346" x2="433" y2="346"/>
    <circle cx="77" cy="346" r="2"/>
    <circle cx="433" cy="346" r="2"/>
  </g>
  <g stroke="chocolate" stroke-width="1">
    <line x1="42" y1="309" x2="255" y2="96"/>
    <circle cx="42" cy="309" r="2"/>
    <circle cx="255" cy="96" r="2"/>
  </g>
  <g stroke="chocolate" stroke-width="1">
    <line x1="255" y1="346" x2="255" y2="96"/>
    <circle cx="255" cy="346" r="2"/>
    <circle cx="255" cy="96" r="2"/>
  </g>
  <g stroke="chocolate" stroke-width="1">
    <line x1="42" y1="309" x2="19" y2="262"/>
    <circle cx="42" cy="309" r="2"/>
    <circle cx="19" cy="262" r="2"/>
  </g>
  <g stroke="chocolate" stroke-width="1">
    <line x1="101" y1="414" x2="77" y2="346"/>
    <circle cx="101" cy="414" r="2"/>
    <circle cx="77" cy="346" r="2"/>
  </g>
  <g stroke="chocolate" stroke-width="1">
    <line x1="255" y1="346" x2="42" y2="309"/>
    <circle cx="255" cy="346" r="2"/>
    <circle cx="42" cy="309" r="2"/>
  </g>
  <g stroke="chocolate" stroke-width="1">
    <line x1="255" y1="346" x2="19" y2="262"/>
    <circle cx="255" cy="346" r="2"/>
    <circle cx="19" cy="262" r="2"/>
  </g>
  <g stroke="chocolate" stroke-width="1">
    <line x1="409" y1="414" x2="255" y2="96"/>
    <circle cx="409" cy="414" r="2"/>
    <circle cx="255" cy="96" r="2"/>
  </g>
  <g stroke="chocolate" stroke-width="1">
    <line x1="433" y1="346" x2="255" y2="96"/>
    <circle cx="433" cy="346" r="2"/>
    <circle cx="255" cy="96" r="2"/>
  </g>
  <g stroke="chocolate" stroke-width="1">
    <line x1="468" y1="309" x2="255" y2="96"/>
    <circle cx="468" cy="309" r="2"/>
    <circle cx="255" cy="96" r="2"/>
  </g>
  <g stroke="black" stroke-width="1">
    <line x1="5" y1="5" x2="505" y2="5"/>
    <line x1="5" y1="5" x2="5" y2="505"/>
    <line x1="505" y1="505" x2="5" y2="505"/>
    <line x1="505" y1="505" x2="505" y2="5"/>
    <line x1="105" y1="2" x2="105" y2="8"/>
    <line x1="2" y1="105" x2="8" y2="105"/>
    <line x1="105" y1="502" x2="105" y2="508"/>
    <line x1="502" y1="105" x2="508" y2="105"/>
    <line x1="205" y1="2" x2="205" y2="8"/>
    <line x1="2" y1="205" x2="8" y2="205"/>
    <line x1="205" y1="502" x2="205" y2="508"/>
    <line x1="502" y1="205" x2="508" y2="205"/>
    <line x1="305" y1="2" x2="305" y2="8"/>
    <line x1="2" y1="305" x2="8" y2="305"/>
    <line x1="305" y1="502" x2="305" y2="508"/>
    <line x1="502" y1="305" x2="508" y2="305"/>
    <line x1="405" y1="2" x2="405" y2="8"/>
    <line x1="2" y1="405" x2="8" y2="405"/>
    <line x1="405" y1="502" x2="405" y2="508"/>
    <line x1="502" y1="405" x2="508" y2="405"/>
  </g>
  <g stroke="gray" stroke-width="1" stroke-dasharray="5,5">
    <line x1="105" y1="5" x2="105" y2="505"/>
    <line x1="5" y1="105" x2="505" y2="105"/>
    <line x1="205" y1="5" x2="205" y2="505"/>
    <line x1="5" y1="205" x2="505" y2="205"/>
    <line x1="305" y1="5" x2="305" y2="505"/>
    <line x1="5" y1="305" x2="505" y2="305"/>
    <line x1="405" y1="5" x2="405" y2="505"/>
    <line x1="5" y1="405" x2="505" y2="405"/>
  </g>
</svg>
