<?xml version="1.0" standalone="no"?>
<!DOCTYPE svg PUBLIC "-//W3C//DTD SVG 1.1//EN" 
  "http://www.w3.org/Graphics/SVG/1.1/DTD/svg11.dtd">
<svg width="510" height="510" version="1.1" id="toplevel"
    xmlns="http://www.w3.org/2000/svg"
    xmlns:xlink="http://www.w3.org/1999/xlink">
  <polygon points="81,421 435,338 432,308 420,297 332,60 267,43 173,220 208,239 190,264 122,245 75,418"
           fill="bisque"/>
  <g stroke="chocolate" stroke-width="1">
    <line x1="406" y1="345" x2="432" y2="308"/>
    <circle cx="406" cy="345" r="2"/>
    <circle cx="432" cy="308" r="2"/>
  </g>
  <g stroke="chocolate" stroke-width="1">
    <line x1="309" y1="337" x2="371" y2="173"/>
    <circle cx="309" cy="337" r="2"/>
    <circle cx="371" cy="173" r="2"/>
  </g>
  <g stroke="chocolate" stroke-width="1">
    <line x1="332" y1="362" x2="347" y2="306"/>
    <circle cx="332" cy="362" r="2"/>
    <circle cx="347" cy="306" r="2"/>
  </g>
  <g stroke="chocolate" stroke-width="1">
    <line x1="282" y1="143" x2="291" y2="118"/>
    <circle cx="282" cy="143" r="2"/>
    <circle cx="291" cy="118" r="2"/>
  </g>
  <g stroke="chocolate" stroke-width="1">
    <line x1="81" y1="421" x2="332" y2="60"/>
    <circle cx="81" cy="421" r="2"/>
    <circle cx="332" cy="60" r="2"/>
  </g>
  <g stroke="chocolate" stroke-width="1">
    <line x1="173" y1="220" x2="267" y2="43"/>
    <circle cx="173" cy="220" r="2"/>
    <circle cx="267" cy="43" r="2"/>
  </g>
  <g stroke="chocolate" stroke-width="1">
    <line x1="75" y1="418" x2="290" y2="180"/>
    <circle cx="75" cy="418" r="2"/>
    <circle cx="290" cy="180" r="2"/>
  </g>
  <g stroke="chocolate" stroke-width="1">
    <line x1="75" y1="418" x2="122" y2="245"/>
    <circle cx="75" cy="418" r="2"/>
    <circle cx="122" cy="245" r="2"/>
  </g>
  <g stroke="chocolate" stroke-width="1">
    <line x1="374" y1="352" x2="383" y2="196"/>
    <circle cx="374" cy="352" r="2"/>
    <circle cx="383" cy="196" r="2"/>
  </g>
  <g stroke="chocolate" stroke-width="1">
    <line x1="267" y1="75" x2="267" y2="43"/>
    <circle cx="267" cy="75" r="2"/>
    <circle cx="267" cy="43" r="2"/>
  </g>
  <g stroke="chocolate" stroke-width="1">
    <line x1="291" y1="118" x2="338" y2="76"/>
    <circle cx="291" cy="118" r="2"/>
    <circle cx="338" cy="76" r="2"/>
  </g>
  <g stroke="chocolate" stroke-width="1">
    <line x1="81" y1="421" x2="435" y2="338"/>
    <circle cx="81" cy="421" r="2"/>
    <circle cx="435" cy="338" r="2"/>
  </g>
  <g stroke="chocolate" stroke-width="1">
    <line x1="435" y1="338" x2="432" y2="308"/>
    <circle cx="435" cy="338" r="2"/>
    <circle cx="432" cy="308" r="2"/>
  </g>
  <g stroke="chocolate" stroke-width="1">
    <line x1="309" y1="337" x2="273" y2="144"/>
    <circle cx="309" cy="337" r="2"/>
    <circle cx="273" cy="144" r="2"/>
  </g>
  <g stroke="chocolate" stroke-width="1">
    <line x1="81" y1="421" x2="75" y2="418"/>
    <circle cx="81" cy="421" r="2"/>
    <circle cx="75" cy="418" r="2"/>
  </g>
  <g stroke="chocolate" stroke-width="1">
    <line x1="435" y1="338" x2="332" y2="60"/>
    <circle cx="435" cy="338" r="2"/>
    <circle cx="332" cy="60" r="2"/>
  </g>
  <g stroke="chocolate" stroke-width="1">
    <line x1="374" y1="352" x2="347" y2="306"/>
    <circle cx="374" cy="352" r="2"/>
    <circle cx="347" cy="306" r="2"/>
  </g>
  <g stroke="chocolate" stroke-width="1">
    <line x1="332" y1="362" x2="309" y2="337"/>
    <circle cx="332" cy="362" r="2"/>
    <circle cx="309" cy="337" r="2"/>
  </g>
  <g stroke="chocolate" stroke-width="1">
    <line x1="347" y1="306" x2="122" y2="245"/>
    <circle cx="347" cy="306" r="2"/>
    <circle cx="122" cy="245" r="2"/>
  </g>
  <g stroke="chocolate" stroke-width="1">
    <line x1="273" y1="144" x2="282" y2="143"/>
    <circle cx="273" cy="144" r="2"/>
    <circle cx="282" cy="143" r="2"/>
  </g>
  <g stroke="chocolate" stroke-width="1">
    <line x1="406" y1="345" x2="173" y2="220"/>
    <circle cx="406" cy="345" r="2"/>
    <circle cx="173" cy="220" r="2"/>
  </g>
  <g stroke="chocolate" stroke-width="1">
    <line x1="282" y1="143" x2="278" y2="138"/>
    <circle cx="282" cy="143" r="2"/>
    <circle cx="278" cy="138" r="2"/>
  </g>
  <g stroke="chocolate" stroke-width="1">
    <line x1="432" y1="308" x2="290" y2="180"/>
    <circle cx="432" cy="308" r="2"/>
    <circle cx="290" cy="180" r="2"/>
  </g>
  <g stroke="chocolate" stroke-width="1">
    <line x1="383" y1="196" x2="267" y2="75"/>
    <circle cx="383" cy="196" r="2"/>
    <circle cx="267" cy="75" r="2"/>
  </g>
  <g stroke="chocolate" stroke-width="1">
    <line x1="371" y1="173" x2="278" y2="138"/>
    <circle cx="371" cy="173" r="2"/>
    <circle cx="278" cy="138" r="2"/>
  </g>
  <g stroke="chocolate" stroke-width="1">
    <line x1="338" y1="76" x2="267" y2="75"/>
    <circle cx="338" cy="76" r="2"/>
    <circle cx="267" cy="75" r="2"/>
  </g>
  <g stroke="chocolate" stroke-width="1">
    <line x1="332" y1="60" x2="267" y2="43"/>
    <circle cx="332" cy="60" r="2"/>
    <circle cx="267" cy="43" r="2"/>
  </g>
  <g stroke="black" stroke-width="1">
    <line x1="5" y1="5" x2="505" y2="5"/>
    <line x1="5" y1="5" x2="5" y2="505"/>
    <line x1="505" y1="505" x2="5" y2="505"/>
    <line x1="505" y1="505" x2="505" y2="5"/>
    <line x1="105" y1="2" x2="105" y2="8"/>
    <line x1="2" y1="105" x2="8" y2="105"/>
    <line x1="105" y1="502" x2="105" y2="508"/>
    <line x1="502" y1="105" x2="508" y2="105"/>
    <line x1="205" y1="2" x2="205" y2="8"/>
    <line x1="2" y1="205" x2="8" y2="205"/>
    <line x1="205" y1="502" x2="205" y2="508"/>
    <line x1="502" y1="205" x2="508" y2="205"/>
    <line x1="305" y1="2" x2="305" y2="8"/>
    <line x1="2" y1="305" x2="8" y2="305"/>
    <line x1="305" y1="502" x2="305" y2="508"/>
    <line x1="502" y1="305" x2="508" y2="305"/>
    <line x1="405" y1="2" x2="405" y2="8"/>
    <line x1="2" y1="405" x2="8" y2="405"/>
    <line x1="405" y1="502" x2="405" y2="508"/>
    <line x1="502" y1="405" x2="508" y2="405"/>
  </g>
  <g stroke="gray" stroke-width="1" stroke-dasharray="5,5">
    <line x1="105" y1="5" x2="105" y2="505"/>
    <line x1="5" y1="105" x2="505" y2="105"/>
    <line x1="205" y1="5" x2="205" y2="505"/>
    <line x1="5" y1="205" x2="505" y2="205"/>
    <line x1="305" y1="5" x2="305" y2="505"/>
    <line x1="5" y1="305" x2="505" y2="305"/>
    <line x1="405" y1="5" x2="405" y2="505"/>
    <line x1="5" y1="405" x2="505" y2="405"/>
  </g>
</svg>
