<?xml version="1.0" standalone="no"?>
<!DOCTYPE svg PUBLIC "-//W3C//DTD SVG 1.1//EN" 
  "http://www.w3.org/Graphics/SVG/1.1/DTD/svg11.dtd">
<svg width="510" height="510" version="1.1" id="toplevel"
    xmlns="http://www.w3.org/2000/svg"
    xmlns:xlink="http://www.w3.org/1999/xlink">
  <polygon points="331,450 394,424 385,375 415,334 402,308 374,309 350,164 139,60 95,80 155,210 149,219 173,250 173,251 173,251 179,258 186,262 187,268"
           fill="bisque"/>
  <g stroke="chocolate" stroke-width="1">
    <line x1="354" y1="441" x2="320" y2="437"/>
    <circle cx="354" cy="441" r="2"/>
    <circle cx="320" cy="437" r="2"/>
  </g>
  <g stroke="chocolate" stroke-width="1">
    <line x1="331" y1="450" x2="187" y2="268"/>
    <circle cx="331" cy="450" r="2"/>
    <circle cx="187" cy="268" r="2"/>
  </g>
  <g stroke="chocolate" stroke-width="1">
    <line x1="179" y1="258" x2="149" y2="219"/>
    <circle cx="179" cy="258" r="2"/>
    <circle cx="149" cy="219" r="2"/>
  </g>
  <g stroke="chocolate" stroke-width="1">
    <line x1="389" y1="395" x2="179" y2="258"/>
    <circle cx="389" cy="395" r="2"/>
    <circle cx="179" cy="258" r="2"/>
  </g>
  <g stroke="chocolate" stroke-width="1">
    <line x1="390" y1="369" x2="187" y2="268"/>
    <circle cx="390" cy="369" r="2"/>
    <circle cx="187" cy="268" r="2"/>
  </g>
  <g stroke="chocolate" stroke-width="1">
    <line x1="173" y1="251" x2="95" y2="80"/>
    <circle cx="173" cy="251" r="2"/>
    <circle cx="95" cy="80" r="2"/>
  </g>
  <g stroke="chocolate" stroke-width="1">
    <line x1="390" y1="369" x2="381" y2="360"/>
    <circle cx="390" cy="369" r="2"/>
    <circle cx="381" cy="360" r="2"/>
  </g>
  <g stroke="chocolate" stroke-width="1">
    <line x1="394" y1="424" x2="370" y2="391"/>
    <circle cx="394" cy="424" r="2"/>
    <circle cx="370" cy="391" r="2"/>
  </g>
  <g stroke="chocolate" stroke-width="1">
    <line x1="179" y1="258" x2="163" y2="214"/>
    <circle cx="179" cy="258" r="2"/>
    <circle cx="163" cy="214" r="2"/>
  </g>
  <g stroke="chocolate" stroke-width="1">
    <line x1="415" y1="334" x2="333" y2="325"/>
    <circle cx="415" cy="334" r="2"/>
    <circle cx="333" cy="325" r="2"/>
  </g>
  <g stroke="chocolate" stroke-width="1">
    <line x1="331" y1="450" x2="394" y2="424"/>
    <circle cx="331" cy="450" r="2"/>
    <circle cx="394" cy="424" r="2"/>
  </g>
  <g stroke="chocolate" stroke-width="1">
    <line x1="187" y1="268" x2="139" y2="60"/>
    <circle cx="187" cy="268" r="2"/>
    <circle cx="139" cy="60" r="2"/>
  </g>
  <g stroke="chocolate" stroke-width="1">
    <line x1="415" y1="334" x2="402" y2="308"/>
    <circle cx="415" cy="334" r="2"/>
    <circle cx="402" cy="308" r="2"/>
  </g>
  <g stroke="chocolate" stroke-width="1">
    <line x1="225" y1="316" x2="402" y2="308"/>
    <circle cx="225" cy="316" r="2"/>
    <circle cx="402" cy="308" r="2"/>
  </g>
  <g stroke="chocolate" stroke-width="1">
    <line x1="394" y1="424" x2="350" y2="164"/>
    <circle cx="394" cy="424" r="2"/>
    <circle cx="350" cy="164" r="2"/>
  </g>
  <g stroke="chocolate" stroke-width="1">
    <line x1="313" y1="427" x2="370" y2="391"/>
    <circle cx="313" cy="427" r="2"/>
    <circle cx="370" cy="391" r="2"/>
  </g>
  <g stroke="chocolate" stroke-width="1">
    <line x1="350" y1="164" x2="139" y2="60"/>
    <circle cx="350" cy="164" r="2"/>
    <circle cx="139" cy="60" r="2"/>
  </g>
  <g stroke="chocolate" stroke-width="1">
    <line x1="318" y1="434" x2="373" y2="391"/>
    <circle cx="318" cy="434" r="2"/>
    <circle cx="373" cy="391" r="2"/>
  </g>
  <g stroke="chocolate" stroke-width="1">
    <line x1="318" y1="434" x2="370" y2="391"/>
    <circle cx="318" cy="434" r="2"/>
    <circle cx="370" cy="391" r="2"/>
  </g>
  <g stroke="chocolate" stroke-width="1">
    <line x1="173" y1="251" x2="189" y2="250"/>
    <circle cx="173" cy="251" r="2"/>
    <circle cx="189" cy="250" r="2"/>
  </g>
  <g stroke="chocolate" stroke-width="1">
    <line x1="354" y1="441" x2="389" y2="395"/>
    <circle cx="354" cy="441" r="2"/>
    <circle cx="389" cy="395" r="2"/>
  </g>
  <g stroke="chocolate" stroke-width="1">
    <line x1="320" y1="437" x2="333" y2="325"/>
    <circle cx="320" cy="437" r="2"/>
    <circle cx="333" cy="325" r="2"/>
  </g>
  <g stroke="chocolate" stroke-width="1">
    <line x1="313" y1="427" x2="381" y2="360"/>
    <circle cx="313" cy="427" r="2"/>
    <circle cx="381" cy="360" r="2"/>
  </g>
  <g stroke="chocolate" stroke-width="1">
    <line x1="331" y1="450" x2="415" y2="334"/>
    <circle cx="331" cy="450" r="2"/>
    <circle cx="415" cy="334" r="2"/>
  </g>
  <g stroke="chocolate" stroke-width="1">
    <line x1="373" y1="391" x2="402" y2="308"/>
    <circle cx="373" cy="391" r="2"/>
    <circle cx="402" cy="308" r="2"/>
  </g>
  <g stroke="chocolate" stroke-width="1">
    <line x1="225" y1="316" x2="279" y2="129"/>
    <circle cx="225" cy="316" r="2"/>
    <circle cx="279" cy="129" r="2"/>
  </g>
  <g stroke="chocolate" stroke-width="1">
    <line x1="173" y1="251" x2="225" y2="103"/>
    <circle cx="173" cy="251" r="2"/>
    <circle cx="225" cy="103" r="2"/>
  </g>
  <g stroke="chocolate" stroke-width="1">
    <line x1="189" y1="250" x2="350" y2="164"/>
    <circle cx="189" cy="250" r="2"/>
    <circle cx="350" cy="164" r="2"/>
  </g>
  <g stroke="chocolate" stroke-width="1">
    <line x1="149" y1="219" x2="163" y2="214"/>
    <circle cx="149" cy="219" r="2"/>
    <circle cx="163" cy="214" r="2"/>
  </g>
  <g stroke="chocolate" stroke-width="1">
    <line x1="189" y1="250" x2="279" y2="129"/>
    <circle cx="189" cy="250" r="2"/>
    <circle cx="279" cy="129" r="2"/>
  </g>
  <g stroke="chocolate" stroke-width="1">
    <line x1="149" y1="219" x2="225" y2="103"/>
    <circle cx="149" cy="219" r="2"/>
    <circle cx="225" cy="103" r="2"/>
  </g>
  <g stroke="chocolate" stroke-width="1">
    <line x1="95" y1="80" x2="139" y2="60"/>
    <circle cx="95" cy="80" r="2"/>
    <circle cx="139" cy="60" r="2"/>
  </g>
  <g stroke="black" stroke-width="1">
    <line x1="5" y1="5" x2="505" y2="5"/>
    <line x1="5" y1="5" x2="5" y2="505"/>
    <line x1="505" y1="505" x2="5" y2="505"/>
    <line x1="505" y1="505" x2="505" y2="5"/>
    <line x1="105" y1="2" x2="105" y2="8"/>
    <line x1="2" y1="105" x2="8" y2="105"/>
    <line x1="105" y1="502" x2="105" y2="508"/>
    <line x1="502" y1="105" x2="508" y2="105"/>
    <line x1="205" y1="2" x2="205" y2="8"/>
    <line x1="2" y1="205" x2="8" y2="205"/>
    <line x1="205" y1="502" x2="205" y2="508"/>
    <line x1="502" y1="205" x2="508" y2="205"/>
    <line x1="305" y1="2" x2="305" y2="8"/>
    <line x1="2" y1="305" x2="8" y2="305"/>
    <line x1="305" y1="502" x2="305" y2="508"/>
    <line x1="502" y1="305" x2="508" y2="305"/>
    <line x1="405" y1="2" x2="405" y2="8"/>
    <line x1="2" y1="405" x2="8" y2="405"/>
    <line x1="405" y1="502" x2="405" y2="508"/>
    <line x1="502" y1="405" x2="508" y2="405"/>
  </g>
  <g stroke="gray" stroke-width="1" stroke-dasharray="5,5">
    <line x1="105" y1="5" x2="105" y2="505"/>
    <line x1="5" y1="105" x2="505" y2="105"/>
    <line x1="205" y1="5" x2="205" y2="505"/>
    <line x1="5" y1="205" x2="505" y2="205"/>
    <line x1="305" y1="5" x2="305" y2="505"/>
    <line x1="5" y1="305" x2="505" y2="305"/>
    <line x1="405" y1="5" x2="405" y2="505"/>
    <line x1="5" y1="405" x2="505" y2="405"/>
  </g>
</svg>
