<?xml version="1.0" standalone="no"?>
<!DOCTYPE svg PUBLIC "-//W3C//DTD SVG 1.1//EN" 
  "http://www.w3.org/Graphics/SVG/1.1/DTD/svg11.dtd">
<svg width="510" height="510" version="1.1" id="toplevel"
    xmlns="http://www.w3.org/2000/svg"
    xmlns:xlink="http://www.w3.org/1999/xlink">
  <polygon points="89,375 234,342 244,251 476,270 496,233 459,214 436,142 364,139 363,135 73,164 14,238 75,314"
           fill="bisque"/>
  <g stroke="chocolate" stroke-width="1">
    <line x1="476" y1="270" x2="496" y2="233"/>
    <circle cx="476" cy="270" r="2"/>
    <circle cx="496" cy="233" r="2"/>
  </g>
  <g stroke="chocolate" stroke-width="1">
    <line x1="89" y1="375" x2="234" y2="342"/>
    <circle cx="89" cy="375" r="2"/>
    <circle cx="234" cy="342" r="2"/>
  </g>
  <g stroke="chocolate" stroke-width="1">
    <line x1="290" y1="255" x2="350" y2="139"/>
    <circle cx="290" cy="255" r="2"/>
    <circle cx="350" cy="139" r="2"/>
  </g>
  <g stroke="chocolate" stroke-width="1">
    <line x1="389" y1="263" x2="436" y2="142"/>
    <circle cx="389" cy="263" r="2"/>
    <circle cx="436" cy="142" r="2"/>
  </g>
  <g stroke="chocolate" stroke-width="1">
    <line x1="82" y1="323" x2="313" y2="140"/>
    <circle cx="82" cy="323" r="2"/>
    <circle cx="313" cy="140" r="2"/>
  </g>
  <g stroke="chocolate" stroke-width="1">
    <line x1="169" y1="245" x2="350" y2="139"/>
    <circle cx="169" cy="245" r="2"/>
    <circle cx="350" cy="139" r="2"/>
  </g>
  <g stroke="chocolate" stroke-width="1">
    <line x1="14" y1="238" x2="73" y2="164"/>
    <circle cx="14" cy="238" r="2"/>
    <circle cx="73" cy="164" r="2"/>
  </g>
  <g stroke="chocolate" stroke-width="1">
    <line x1="234" y1="342" x2="255" y2="146"/>
    <circle cx="234" cy="342" r="2"/>
    <circle cx="255" cy="146" r="2"/>
  </g>
  <g stroke="chocolate" stroke-width="1">
    <line x1="476" y1="270" x2="169" y2="245"/>
    <circle cx="476" cy="270" r="2"/>
    <circle cx="169" cy="245" r="2"/>
  </g>
  <g stroke="chocolate" stroke-width="1">
    <line x1="48" y1="196" x2="363" y2="196"/>
    <circle cx="48" cy="196" r="2"/>
    <circle cx="363" cy="196" r="2"/>
  </g>
  <g stroke="chocolate" stroke-width="1">
    <line x1="363" y1="196" x2="363" y2="135"/>
    <circle cx="363" cy="196" r="2"/>
    <circle cx="363" cy="135" r="2"/>
  </g>
  <g stroke="chocolate" stroke-width="1">
    <line x1="73" y1="164" x2="363" y2="135"/>
    <circle cx="73" cy="164" r="2"/>
    <circle cx="363" cy="135" r="2"/>
  </g>
  <g stroke="chocolate" stroke-width="1">
    <line x1="234" y1="342" x2="14" y2="238"/>
    <circle cx="234" cy="342" r="2"/>
    <circle cx="14" cy="238" r="2"/>
  </g>
  <g stroke="chocolate" stroke-width="1">
    <line x1="89" y1="375" x2="48" y2="196"/>
    <circle cx="89" cy="375" r="2"/>
    <circle cx="48" cy="196" r="2"/>
  </g>
  <g stroke="chocolate" stroke-width="1">
    <line x1="82" y1="323" x2="14" y2="238"/>
    <circle cx="82" cy="323" r="2"/>
    <circle cx="14" cy="238" r="2"/>
  </g>
  <g stroke="chocolate" stroke-width="1">
    <line x1="436" y1="142" x2="350" y2="139"/>
    <circle cx="436" cy="142" r="2"/>
    <circle cx="350" cy="139" r="2"/>
  </g>
  <g stroke="chocolate" stroke-width="1">
    <line x1="389" y1="263" x2="363" y2="135"/>
    <circle cx="389" cy="263" r="2"/>
    <circle cx="363" cy="135" r="2"/>
  </g>
  <g stroke="chocolate" stroke-width="1">
    <line x1="290" y1="255" x2="255" y2="146"/>
    <circle cx="290" cy="255" r="2"/>
    <circle cx="255" cy="146" r="2"/>
  </g>
  <g stroke="chocolate" stroke-width="1">
    <line x1="169" y1="245" x2="73" y2="164"/>
    <circle cx="169" cy="245" r="2"/>
    <circle cx="73" cy="164" r="2"/>
  </g>
  <g stroke="chocolate" stroke-width="1">
    <line x1="476" y1="270" x2="436" y2="142"/>
    <circle cx="476" cy="270" r="2"/>
    <circle cx="436" cy="142" r="2"/>
  </g>
  <g stroke="chocolate" stroke-width="1">
    <line x1="496" y1="233" x2="313" y2="140"/>
    <circle cx="496" cy="233" r="2"/>
    <circle cx="313" cy="140" r="2"/>
  </g>
  <g stroke="black" stroke-width="1">
    <line x1="5" y1="5" x2="505" y2="5"/>
    <line x1="5" y1="5" x2="5" y2="505"/>
    <line x1="505" y1="505" x2="5" y2="505"/>
    <line x1="505" y1="505" x2="505" y2="5"/>
    <line x1="105" y1="2" x2="105" y2="8"/>
    <line x1="2" y1="105" x2="8" y2="105"/>
    <line x1="105" y1="502" x2="105" y2="508"/>
    <line x1="502" y1="105" x2="508" y2="105"/>
    <line x1="205" y1="2" x2="205" y2="8"/>
    <line x1="2" y1="205" x2="8" y2="205"/>
    <line x1="205" y1="502" x2="205" y2="508"/>
    <line x1="502" y1="205" x2="508" y2="205"/>
    <line x1="305" y1="2" x2="305" y2="8"/>
    <line x1="2" y1="305" x2="8" y2="305"/>
    <line x1="305" y1="502" x2="305" y2="508"/>
    <line x1="502" y1="305" x2="508" y2="305"/>
    <line x1="405" y1="2" x2="405" y2="8"/>
    <line x1="2" y1="405" x2="8" y2="405"/>
    <line x1="405" y1="502" x2="405" y2="508"/>
    <line x1="502" y1="405" x2="508" y2="405"/>
  </g>
  <g stroke="gray" stroke-width="1" stroke-dasharray="5,5">
    <line x1="105" y1="5" x2="105" y2="505"/>
    <line x1="5" y1="105" x2="505" y2="105"/>
    <line x1="205" y1="5" x2="205" y2="505"/>
    <line x1="5" y1="205" x2="505" y2="205"/>
    <line x1="305" y1="5" x2="305" y2="505"/>
    <line x1="5" y1="305" x2="505" y2="305"/>
    <line x1="405" y1="5" x2="405" y2="505"/>
    <line x1="5" y1="405" x2="505" y2="405"/>
  </g>
</svg>
