<?xml version="1.0" standalone="no"?>
<!DOCTYPE svg PUBLIC "-//W3C//DTD SVG 1.1//EN" 
  "http://www.w3.org/Graphics/SVG/1.1/DTD/svg11.dtd">
<svg width="544" height="544" version="1.1" id="toplevel"
    xmlns="http://www.w3.org/2000/svg"
    xmlns:xlink="http://www.w3.org/1999/xlink">
  <polygon points="154,445 278,306 290,306 290,292 308,272 439,314 455,265 539,231 500,138 489,138 498,109 463,99 96,205 5,312"
           fill="bisque"/>
  <g stroke="chocolate" stroke-width="1">
    <line x1="154" y1="445" x2="463" y2="99"/>
    <circle cx="154" cy="445" r="2"/>
    <circle cx="463" cy="99" r="2"/>
  </g>
  <g stroke="chocolate" stroke-width="1">
    <line x1="439" y1="314" x2="500" y2="138"/>
    <circle cx="439" cy="314" r="2"/>
    <circle cx="500" cy="138" r="2"/>
  </g>
  <g stroke="chocolate" stroke-width="1">
    <line x1="383" y1="296" x2="539" y2="231"/>
    <circle cx="383" cy="296" r="2"/>
    <circle cx="539" cy="231" r="2"/>
  </g>
  <g stroke="chocolate" stroke-width="1">
    <line x1="439" y1="314" x2="498" y2="109"/>
    <circle cx="439" cy="314" r="2"/>
    <circle cx="498" cy="109" r="2"/>
  </g>
  <g stroke="chocolate" stroke-width="1">
    <line x1="5" y1="312" x2="96" y2="205"/>
    <circle cx="5" cy="312" r="2"/>
    <circle cx="96" cy="205" r="2"/>
  </g>
  <g stroke="chocolate" stroke-width="1">
    <line x1="12" y1="318" x2="309" y2="143"/>
    <circle cx="12" cy="318" r="2"/>
    <circle cx="309" cy="143" r="2"/>
  </g>
  <g stroke="chocolate" stroke-width="1">
    <line x1="10" y1="306" x2="290" y2="306"/>
    <circle cx="10" cy="306" r="2"/>
    <circle cx="290" cy="306" r="2"/>
  </g>
  <g stroke="chocolate" stroke-width="1">
    <line x1="290" y1="306" x2="290" y2="149"/>
    <circle cx="290" cy="306" r="2"/>
    <circle cx="290" cy="149" r="2"/>
  </g>
  <g stroke="chocolate" stroke-width="1">
    <line x1="96" y1="205" x2="463" y2="99"/>
    <circle cx="96" cy="205" r="2"/>
    <circle cx="463" cy="99" r="2"/>
  </g>
  <g stroke="chocolate" stroke-width="1">
    <line x1="12" y1="318" x2="10" y2="306"/>
    <circle cx="12" cy="318" r="2"/>
    <circle cx="10" cy="306" r="2"/>
  </g>
  <g stroke="chocolate" stroke-width="1">
    <line x1="12" y1="318" x2="5" y2="312"/>
    <circle cx="12" cy="318" r="2"/>
    <circle cx="5" cy="312" r="2"/>
  </g>
  <g stroke="chocolate" stroke-width="1">
    <line x1="154" y1="445" x2="5" y2="312"/>
    <circle cx="154" cy="445" r="2"/>
    <circle cx="5" cy="312" r="2"/>
  </g>
  <g stroke="chocolate" stroke-width="1">
    <line x1="309" y1="143" x2="500" y2="138"/>
    <circle cx="309" cy="143" r="2"/>
    <circle cx="500" cy="138" r="2"/>
  </g>
  <g stroke="chocolate" stroke-width="1">
    <line x1="439" y1="314" x2="96" y2="205"/>
    <circle cx="439" cy="314" r="2"/>
    <circle cx="96" cy="205" r="2"/>
  </g>
  <g stroke="chocolate" stroke-width="1">
    <line x1="383" y1="296" x2="290" y2="149"/>
    <circle cx="383" cy="296" r="2"/>
    <circle cx="290" cy="149" r="2"/>
  </g>
  <g stroke="chocolate" stroke-width="1">
    <line x1="539" y1="231" x2="500" y2="138"/>
    <circle cx="539" cy="231" r="2"/>
    <circle cx="500" cy="138" r="2"/>
  </g>
  <g stroke="chocolate" stroke-width="1">
    <line x1="498" y1="109" x2="463" y2="99"/>
    <circle cx="498" cy="109" r="2"/>
    <circle cx="463" cy="99" r="2"/>
  </g>
  <g stroke="black" stroke-width="1">
    <line x1="22" y1="22" x2="522" y2="22"/>
    <line x1="22" y1="22" x2="22" y2="522"/>
    <line x1="522" y1="522" x2="22" y2="522"/>
    <line x1="522" y1="522" x2="522" y2="22"/>
    <line x1="122" y1="19" x2="122" y2="25"/>
    <line x1="19" y1="122" x2="25" y2="122"/>
    <line x1="122" y1="519" x2="122" y2="525"/>
    <line x1="519" y1="122" x2="525" y2="122"/>
    <line x1="222" y1="19" x2="222" y2="25"/>
    <line x1="19" y1="222" x2="25" y2="222"/>
    <line x1="222" y1="519" x2="222" y2="525"/>
    <line x1="519" y1="222" x2="525" y2="222"/>
    <line x1="322" y1="19" x2="322" y2="25"/>
    <line x1="19" y1="322" x2="25" y2="322"/>
    <line x1="322" y1="519" x2="322" y2="525"/>
    <line x1="519" y1="322" x2="525" y2="322"/>
    <line x1="422" y1="19" x2="422" y2="25"/>
    <line x1="19" y1="422" x2="25" y2="422"/>
    <line x1="422" y1="519" x2="422" y2="525"/>
    <line x1="519" y1="422" x2="525" y2="422"/>
  </g>
  <g stroke="gray" stroke-width="1" stroke-dasharray="5,5">
    <line x1="122" y1="22" x2="122" y2="522"/>
    <line x1="22" y1="122" x2="522" y2="122"/>
    <line x1="222" y1="22" x2="222" y2="522"/>
    <line x1="22" y1="222" x2="522" y2="222"/>
    <line x1="322" y1="22" x2="322" y2="522"/>
    <line x1="22" y1="322" x2="522" y2="322"/>
    <line x1="422" y1="22" x2="422" y2="522"/>
    <line x1="22" y1="422" x2="522" y2="422"/>
  </g>
</svg>
