<?xml version="1.0" standalone="no"?>
<!DOCTYPE svg PUBLIC "-//W3C//DTD SVG 1.1//EN" 
  "http://www.w3.org/Graphics/SVG/1.1/DTD/svg11.dtd">
<svg width="510" height="510" version="1.1" id="toplevel"
    xmlns="http://www.w3.org/2000/svg"
    xmlns:xlink="http://www.w3.org/1999/xlink">
  <polygon points="13,480 497,416 320,84" fill="bisque"/>
  <g stroke="chocolate" stroke-width="1">
    <line x1="485" y1="418" x2="493" y2="409"/>
    <circle cx="485" cy="418" r="2"/>
    <circle cx="493" cy="409" r="2"/>
  </g>
  <g stroke="chocolate" stroke-width="1">
    <line x1="471" y1="372" x2="473" y2="370"/>
    <circle cx="471" cy="372" r="2"/>
    <circle cx="473" cy="370" r="2"/>
  </g>
  <g stroke="chocolate" stroke-width="1">
    <line x1="433" y1="354" x2="454" y2="335"/>
    <circle cx="433" cy="354" r="2"/>
    <circle cx="454" cy="335" r="2"/>
  </g>
  <g stroke="chocolate" stroke-width="1">
    <line x1="289" y1="169" x2="320" y2="84"/>
    <circle cx="289" cy="169" r="2"/>
    <circle cx="320" cy="84" r="2"/>
  </g>
  <g stroke="chocolate" stroke-width="1">
    <line x1="256" y1="275" x2="360" y2="159"/>
    <circle cx="256" cy="275" r="2"/>
    <circle cx="360" cy="159" r="2"/>
  </g>
  <g stroke="chocolate" stroke-width="1">
    <line x1="37" y1="477" x2="38" y2="448"/>
    <circle cx="37" cy="477" r="2"/>
    <circle cx="38" cy="448" r="2"/>
  </g>
  <g stroke="chocolate" stroke-width="1">
    <line x1="21" y1="479" x2="21" y2="470"/>
    <circle cx="21" cy="479" r="2"/>
    <circle cx="21" cy="470" r="2"/>
  </g>
  <g stroke="chocolate" stroke-width="1">
    <line x1="21" y1="479" x2="21" y2="479"/>
    <circle cx="21" cy="479" r="2"/>
    <circle cx="21" cy="479" r="2"/>
  </g>
  <g stroke="chocolate" stroke-width="1">
    <line x1="21" y1="479" x2="19" y2="473"/>
    <circle cx="21" cy="479" r="2"/>
    <circle cx="19" cy="473" r="2"/>
  </g>
  <g stroke="chocolate" stroke-width="1">
    <line x1="13" y1="480" x2="320" y2="84"/>
    <circle cx="13" cy="480" r="2"/>
    <circle cx="320" cy="84" r="2"/>
  </g>
  <g stroke="chocolate" stroke-width="1">
    <line x1="21" y1="479" x2="21" y2="479"/>
    <circle cx="21" cy="479" r="2"/>
    <circle cx="21" cy="479" r="2"/>
  </g>
  <g stroke="chocolate" stroke-width="1">
    <line x1="37" y1="477" x2="34" y2="466"/>
    <circle cx="37" cy="477" r="2"/>
    <circle cx="34" cy="466" r="2"/>
  </g>
  <g stroke="chocolate" stroke-width="1">
    <line x1="78" y1="472" x2="473" y2="370"/>
    <circle cx="78" cy="472" r="2"/>
    <circle cx="473" cy="370" r="2"/>
  </g>
  <g stroke="chocolate" stroke-width="1">
    <line x1="13" y1="480" x2="21" y2="479"/>
    <circle cx="13" cy="480" r="2"/>
    <circle cx="21" cy="479" r="2"/>
  </g>
  <g stroke="chocolate" stroke-width="1">
    <line x1="13" y1="480" x2="497" y2="416"/>
    <circle cx="13" cy="480" r="2"/>
    <circle cx="497" cy="416" r="2"/>
  </g>
  <g stroke="chocolate" stroke-width="1">
    <line x1="21" y1="470" x2="34" y2="466"/>
    <circle cx="21" cy="470" r="2"/>
    <circle cx="34" cy="466" r="2"/>
  </g>
  <g stroke="chocolate" stroke-width="1">
    <line x1="19" y1="473" x2="78" y2="472"/>
    <circle cx="19" cy="473" r="2"/>
    <circle cx="78" cy="472" r="2"/>
  </g>
  <g stroke="chocolate" stroke-width="1">
    <line x1="482" y1="410" x2="493" y2="409"/>
    <circle cx="482" cy="410" r="2"/>
    <circle cx="493" cy="409" r="2"/>
  </g>
  <g stroke="chocolate" stroke-width="1">
    <line x1="38" y1="448" x2="454" y2="335"/>
    <circle cx="38" cy="448" r="2"/>
    <circle cx="454" cy="335" r="2"/>
  </g>
  <g stroke="chocolate" stroke-width="1">
    <line x1="497" y1="416" x2="320" y2="84"/>
    <circle cx="497" cy="416" r="2"/>
    <circle cx="320" cy="84" r="2"/>
  </g>
  <g stroke="chocolate" stroke-width="1">
    <line x1="497" y1="416" x2="482" y2="410"/>
    <circle cx="497" cy="416" r="2"/>
    <circle cx="482" cy="410" r="2"/>
  </g>
  <g stroke="chocolate" stroke-width="1">
    <line x1="256" y1="275" x2="206" y2="231"/>
    <circle cx="256" cy="275" r="2"/>
    <circle cx="206" cy="231" r="2"/>
  </g>
  <g stroke="chocolate" stroke-width="1">
    <line x1="482" y1="410" x2="433" y2="354"/>
    <circle cx="482" cy="410" r="2"/>
    <circle cx="433" cy="354" r="2"/>
  </g>
  <g stroke="chocolate" stroke-width="1">
    <line x1="485" y1="418" x2="206" y2="231"/>
    <circle cx="485" cy="418" r="2"/>
    <circle cx="206" cy="231" r="2"/>
  </g>
  <g stroke="chocolate" stroke-width="1">
    <line x1="471" y1="372" x2="289" y2="169"/>
    <circle cx="471" cy="372" r="2"/>
    <circle cx="289" cy="169" r="2"/>
  </g>
  <g stroke="chocolate" stroke-width="1">
    <line x1="289" y1="169" x2="360" y2="159"/>
    <circle cx="289" cy="169" r="2"/>
    <circle cx="360" cy="159" r="2"/>
  </g>
  <g stroke="black" stroke-width="1">
    <line x1="5" y1="5" x2="505" y2="5"/>
    <line x1="5" y1="5" x2="5" y2="505"/>
    <line x1="505" y1="505" x2="5" y2="505"/>
    <line x1="505" y1="505" x2="505" y2="5"/>
    <line x1="105" y1="2" x2="105" y2="8"/>
    <line x1="2" y1="105" x2="8" y2="105"/>
    <line x1="105" y1="502" x2="105" y2="508"/>
    <line x1="502" y1="105" x2="508" y2="105"/>
    <line x1="205" y1="2" x2="205" y2="8"/>
    <line x1="2" y1="205" x2="8" y2="205"/>
    <line x1="205" y1="502" x2="205" y2="508"/>
    <line x1="502" y1="205" x2="508" y2="205"/>
    <line x1="305" y1="2" x2="305" y2="8"/>
    <line x1="2" y1="305" x2="8" y2="305"/>
    <line x1="305" y1="502" x2="305" y2="508"/>
    <line x1="502" y1="305" x2="508" y2="305"/>
    <line x1="405" y1="2" x2="405" y2="8"/>
    <line x1="2" y1="405" x2="8" y2="405"/>
    <line x1="405" y1="502" x2="405" y2="508"/>
    <line x1="502" y1="405" x2="508" y2="405"/>
  </g>
  <g stroke="gray" stroke-width="1" stroke-dasharray="5,5">
    <line x1="105" y1="5" x2="105" y2="505"/>
    <line x1="5" y1="105" x2="505" y2="105"/>
    <line x1="205" y1="5" x2="205" y2="505"/>
    <line x1="5" y1="205" x2="505" y2="205"/>
    <line x1="305" y1="5" x2="305" y2="505"/>
    <line x1="5" y1="305" x2="505" y2="305"/>
    <line x1="405" y1="5" x2="405" y2="505"/>
    <line x1="5" y1="405" x2="505" y2="405"/>
  </g>
</svg>
