<?xml version="1.0" standalone="no"?>
<!DOCTYPE svg PUBLIC "-//W3C//DTD SVG 1.1//EN" 
  "http://www.w3.org/Graphics/SVG/1.1/DTD/svg11.dtd">
<svg width="510" height="510" version="1.1" id="toplevel"
    xmlns="http://www.w3.org/2000/svg"
    xmlns:xlink="http://www.w3.org/1999/xlink">
  <polygon points="249,324 252,321 252,318 302,315 302,291 361,287 408,234 354,186 102,202 102,303 202,309 202,321"
           fill="bisque"/>
  <g stroke="chocolate" stroke-width="1">
    <line x1="361" y1="287" x2="408" y2="234"/>
    <circle cx="361" cy="287" r="2"/>
    <circle cx="408" cy="234" r="2"/>
  </g>
  <g stroke="chocolate" stroke-width="1">
    <line x1="249" y1="324" x2="252" y2="321"/>
    <circle cx="249" cy="324" r="2"/>
    <circle cx="252" cy="321" r="2"/>
  </g>
  <g stroke="chocolate" stroke-width="1">
    <line x1="256" y1="318" x2="302" y2="266"/>
    <circle cx="256" cy="318" r="2"/>
    <circle cx="302" cy="266" r="2"/>
  </g>
  <g stroke="chocolate" stroke-width="1">
    <line x1="247" y1="312" x2="302" y2="263"/>
    <circle cx="247" cy="312" r="2"/>
    <circle cx="302" cy="263" r="2"/>
  </g>
  <g stroke="chocolate" stroke-width="1">
    <line x1="260" y1="293" x2="354" y2="186"/>
    <circle cx="260" cy="293" r="2"/>
    <circle cx="354" cy="186" r="2"/>
  </g>
  <g stroke="chocolate" stroke-width="1">
    <line x1="202" y1="271" x2="250" y2="217"/>
    <circle cx="202" cy="271" r="2"/>
    <circle cx="250" cy="217" r="2"/>
  </g>
  <g stroke="chocolate" stroke-width="1">
    <line x1="202" y1="269" x2="231" y2="244"/>
    <circle cx="202" cy="269" r="2"/>
    <circle cx="231" cy="244" r="2"/>
  </g>
  <g stroke="chocolate" stroke-width="1">
    <line x1="159" y1="299" x2="254" y2="192"/>
    <circle cx="159" cy="299" r="2"/>
    <circle cx="254" cy="192" r="2"/>
  </g>
  <g stroke="chocolate" stroke-width="1">
    <line x1="146" y1="305" x2="253" y2="211"/>
    <circle cx="146" cy="305" r="2"/>
    <circle cx="253" cy="211" r="2"/>
  </g>
  <g stroke="chocolate" stroke-width="1">
    <line x1="202" y1="248" x2="232" y2="218"/>
    <circle cx="202" cy="248" r="2"/>
    <circle cx="232" cy="218" r="2"/>
  </g>
  <g stroke="chocolate" stroke-width="1">
    <line x1="102" y1="256" x2="153" y2="198"/>
    <circle cx="102" cy="256" r="2"/>
    <circle cx="153" cy="198" r="2"/>
  </g>
  <g stroke="chocolate" stroke-width="1">
    <line x1="202" y1="276" x2="252" y2="254"/>
    <circle cx="202" cy="276" r="2"/>
    <circle cx="252" cy="254" r="2"/>
  </g>
  <g stroke="chocolate" stroke-width="1">
    <line x1="102" y1="249" x2="152" y2="205"/>
    <circle cx="102" cy="249" r="2"/>
    <circle cx="152" cy="205" r="2"/>
  </g>
  <g stroke="chocolate" stroke-width="1">
    <line x1="202" y1="231" x2="232" y2="218"/>
    <circle cx="202" cy="231" r="2"/>
    <circle cx="232" cy="218" r="2"/>
  </g>
  <g stroke="chocolate" stroke-width="1">
    <line x1="202" y1="321" x2="302" y2="315"/>
    <circle cx="202" cy="321" r="2"/>
    <circle cx="302" cy="315" r="2"/>
  </g>
  <g stroke="chocolate" stroke-width="1">
    <line x1="102" y1="303" x2="361" y2="287"/>
    <circle cx="102" cy="303" r="2"/>
    <circle cx="361" cy="287" r="2"/>
  </g>
  <g stroke="chocolate" stroke-width="1">
    <line x1="203" y1="270" x2="302" y2="264"/>
    <circle cx="203" cy="270" r="2"/>
    <circle cx="302" cy="264" r="2"/>
  </g>
  <g stroke="chocolate" stroke-width="1">
    <line x1="249" y1="324" x2="202" y2="321"/>
    <circle cx="249" cy="324" r="2"/>
    <circle cx="202" cy="321" r="2"/>
  </g>
  <g stroke="chocolate" stroke-width="1">
    <line x1="302" y1="315" x2="102" y2="303"/>
    <circle cx="302" cy="315" r="2"/>
    <circle cx="102" cy="303" r="2"/>
  </g>
  <g stroke="chocolate" stroke-width="1">
    <line x1="202" y1="276" x2="252" y2="276"/>
    <circle cx="202" cy="276" r="2"/>
    <circle cx="252" cy="276" r="2"/>
  </g>
  <g stroke="chocolate" stroke-width="1">
    <line x1="102" y1="252" x2="307" y2="240"/>
    <circle cx="102" cy="252" r="2"/>
    <circle cx="307" cy="240" r="2"/>
  </g>
  <g stroke="chocolate" stroke-width="1">
    <line x1="102" y1="303" x2="102" y2="202"/>
    <circle cx="102" cy="303" r="2"/>
    <circle cx="102" cy="202" r="2"/>
  </g>
  <g stroke="chocolate" stroke-width="1">
    <line x1="202" y1="321" x2="202" y2="231"/>
    <circle cx="202" cy="321" r="2"/>
    <circle cx="202" cy="231" r="2"/>
  </g>
  <g stroke="chocolate" stroke-width="1">
    <line x1="231" y1="276" x2="231" y2="244"/>
    <circle cx="231" cy="276" r="2"/>
    <circle cx="231" cy="244" r="2"/>
  </g>
  <g stroke="chocolate" stroke-width="1">
    <line x1="252" y1="321" x2="252" y2="254"/>
    <circle cx="252" cy="321" r="2"/>
    <circle cx="252" cy="254" r="2"/>
  </g>
  <g stroke="chocolate" stroke-width="1">
    <line x1="302" y1="315" x2="302" y2="214"/>
    <circle cx="302" cy="315" r="2"/>
    <circle cx="302" cy="214" r="2"/>
  </g>
  <g stroke="chocolate" stroke-width="1">
    <line x1="232" y1="218" x2="302" y2="214"/>
    <circle cx="232" cy="218" r="2"/>
    <circle cx="302" cy="214" r="2"/>
  </g>
  <g stroke="chocolate" stroke-width="1">
    <line x1="302" y1="264" x2="102" y2="252"/>
    <circle cx="302" cy="264" r="2"/>
    <circle cx="102" cy="252" r="2"/>
  </g>
  <g stroke="chocolate" stroke-width="1">
    <line x1="102" y1="202" x2="354" y2="186"/>
    <circle cx="102" cy="202" r="2"/>
    <circle cx="354" cy="186" r="2"/>
  </g>
  <g stroke="chocolate" stroke-width="1">
    <line x1="302" y1="214" x2="102" y2="202"/>
    <circle cx="302" cy="214" r="2"/>
    <circle cx="102" cy="202" r="2"/>
  </g>
  <g stroke="chocolate" stroke-width="1">
    <line x1="146" y1="305" x2="102" y2="256"/>
    <circle cx="146" cy="305" r="2"/>
    <circle cx="102" cy="256" r="2"/>
  </g>
  <g stroke="chocolate" stroke-width="1">
    <line x1="159" y1="299" x2="102" y2="249"/>
    <circle cx="159" cy="299" r="2"/>
    <circle cx="102" cy="249" r="2"/>
  </g>
  <g stroke="chocolate" stroke-width="1">
    <line x1="252" y1="254" x2="202" y2="231"/>
    <circle cx="252" cy="254" r="2"/>
    <circle cx="202" cy="231" r="2"/>
  </g>
  <g stroke="chocolate" stroke-width="1">
    <line x1="252" y1="321" x2="202" y2="276"/>
    <circle cx="252" cy="321" r="2"/>
    <circle cx="202" cy="276" r="2"/>
  </g>
  <g stroke="chocolate" stroke-width="1">
    <line x1="249" y1="324" x2="202" y2="271"/>
    <circle cx="249" cy="324" r="2"/>
    <circle cx="202" cy="271" r="2"/>
  </g>
  <g stroke="chocolate" stroke-width="1">
    <line x1="256" y1="318" x2="202" y2="269"/>
    <circle cx="256" cy="318" r="2"/>
    <circle cx="202" cy="269" r="2"/>
  </g>
  <g stroke="chocolate" stroke-width="1">
    <line x1="247" y1="312" x2="152" y2="205"/>
    <circle cx="247" cy="312" r="2"/>
    <circle cx="152" cy="205" r="2"/>
  </g>
  <g stroke="chocolate" stroke-width="1">
    <line x1="231" y1="276" x2="202" y2="248"/>
    <circle cx="231" cy="276" r="2"/>
    <circle cx="202" cy="248" r="2"/>
  </g>
  <g stroke="chocolate" stroke-width="1">
    <line x1="260" y1="293" x2="153" y2="198"/>
    <circle cx="260" cy="293" r="2"/>
    <circle cx="153" cy="198" r="2"/>
  </g>
  <g stroke="chocolate" stroke-width="1">
    <line x1="302" y1="266" x2="253" y2="211"/>
    <circle cx="302" cy="266" r="2"/>
    <circle cx="253" cy="211" r="2"/>
  </g>
  <g stroke="chocolate" stroke-width="1">
    <line x1="302" y1="263" x2="250" y2="217"/>
    <circle cx="302" cy="263" r="2"/>
    <circle cx="250" cy="217" r="2"/>
  </g>
  <g stroke="chocolate" stroke-width="1">
    <line x1="361" y1="287" x2="254" y2="192"/>
    <circle cx="361" cy="287" r="2"/>
    <circle cx="254" cy="192" r="2"/>
  </g>
  <g stroke="chocolate" stroke-width="1">
    <line x1="408" y1="234" x2="354" y2="186"/>
    <circle cx="408" cy="234" r="2"/>
    <circle cx="354" cy="186" r="2"/>
  </g>
  <g stroke="black" stroke-width="1">
    <line x1="5" y1="5" x2="505" y2="5"/>
    <line x1="5" y1="5" x2="5" y2="505"/>
    <line x1="505" y1="505" x2="5" y2="505"/>
    <line x1="505" y1="505" x2="505" y2="5"/>
    <line x1="105" y1="2" x2="105" y2="8"/>
    <line x1="2" y1="105" x2="8" y2="105"/>
    <line x1="105" y1="502" x2="105" y2="508"/>
    <line x1="502" y1="105" x2="508" y2="105"/>
    <line x1="205" y1="2" x2="205" y2="8"/>
    <line x1="2" y1="205" x2="8" y2="205"/>
    <line x1="205" y1="502" x2="205" y2="508"/>
    <line x1="502" y1="205" x2="508" y2="205"/>
    <line x1="305" y1="2" x2="305" y2="8"/>
    <line x1="2" y1="305" x2="8" y2="305"/>
    <line x1="305" y1="502" x2="305" y2="508"/>
    <line x1="502" y1="305" x2="508" y2="305"/>
    <line x1="405" y1="2" x2="405" y2="8"/>
    <line x1="2" y1="405" x2="8" y2="405"/>
    <line x1="405" y1="502" x2="405" y2="508"/>
    <line x1="502" y1="405" x2="508" y2="405"/>
  </g>
  <g stroke="gray" stroke-width="1" stroke-dasharray="5,5">
    <line x1="105" y1="5" x2="105" y2="505"/>
    <line x1="5" y1="105" x2="505" y2="105"/>
    <line x1="205" y1="5" x2="205" y2="505"/>
    <line x1="5" y1="205" x2="505" y2="205"/>
    <line x1="305" y1="5" x2="305" y2="505"/>
    <line x1="5" y1="305" x2="505" y2="305"/>
    <line x1="405" y1="5" x2="405" y2="505"/>
    <line x1="5" y1="405" x2="505" y2="405"/>
  </g>
</svg>
