<?xml version="1.0" standalone="no"?>
<!DOCTYPE svg PUBLIC "-//W3C//DTD SVG 1.1//EN" 
  "http://www.w3.org/Graphics/SVG/1.1/DTD/svg11.dtd">
<svg width="646" height="646" version="1.1" id="toplevel"
    xmlns="http://www.w3.org/2000/svg"
    xmlns:xlink="http://www.w3.org/1999/xlink">
  <polygon points="478,641 641,168 168,5 5,478" fill="bisque"/>
  <g stroke="chocolate" stroke-width="1">
    <line x1="478" y1="641" x2="5" y2="478"/>
    <circle cx="478" cy="641" r="2"/>
    <circle cx="5" cy="478" r="2"/>
  </g>
  <g stroke="chocolate" stroke-width="1">
    <line x1="478" y1="641" x2="641" y2="168"/>
    <circle cx="478" cy="641" r="2"/>
    <circle cx="641" cy="168" r="2"/>
  </g>
  <g stroke="chocolate" stroke-width="1">
    <line x1="5" y1="478" x2="168" y2="5"/>
    <circle cx="5" cy="478" r="2"/>
    <circle cx="168" cy="5" r="2"/>
  </g>
  <g stroke="chocolate" stroke-width="1">
    <line x1="641" y1="168" x2="168" y2="5"/>
    <circle cx="641" cy="168" r="2"/>
    <circle cx="168" cy="5" r="2"/>
  </g>
  <g stroke="black" stroke-width="1">
    <line x1="73" y1="73" x2="573" y2="73"/>
    <line x1="73" y1="73" x2="73" y2="573"/>
    <line x1="573" y1="573" x2="73" y2="573"/>
    <line x1="573" y1="573" x2="573" y2="73"/>
    <line x1="173" y1="70" x2="173" y2="76"/>
    <line x1="70" y1="173" x2="76" y2="173"/>
    <line x1="173" y1="570" x2="173" y2="576"/>
    <line x1="570" y1="173" x2="576" y2="173"/>
    <line x1="273" y1="70" x2="273" y2="76"/>
    <line x1="70" y1="273" x2="76" y2="273"/>
    <line x1="273" y1="570" x2="273" y2="576"/>
    <line x1="570" y1="273" x2="576" y2="273"/>
    <line x1="373" y1="70" x2="373" y2="76"/>
    <line x1="70" y1="373" x2="76" y2="373"/>
    <line x1="373" y1="570" x2="373" y2="576"/>
    <line x1="570" y1="373" x2="576" y2="373"/>
    <line x1="473" y1="70" x2="473" y2="76"/>
    <line x1="70" y1="473" x2="76" y2="473"/>
    <line x1="473" y1="570" x2="473" y2="576"/>
    <line x1="570" y1="473" x2="576" y2="473"/>
  </g>
  <g stroke="gray" stroke-width="1" stroke-dasharray="5,5">
    <line x1="173" y1="73" x2="173" y2="573"/>
    <line x1="73" y1="173" x2="573" y2="173"/>
    <line x1="273" y1="73" x2="273" y2="573"/>
    <line x1="73" y1="273" x2="573" y2="273"/>
    <line x1="373" y1="73" x2="373" y2="573"/>
    <line x1="73" y1="373" x2="573" y2="373"/>
    <line x1="473" y1="73" x2="473" y2="573"/>
    <line x1="73" y1="473" x2="573" y2="473"/>
  </g>
</svg>
