<?xml version="1.0" standalone="no"?>
<!DOCTYPE svg PUBLIC "-//W3C//DTD SVG 1.1//EN" 
  "http://www.w3.org/Graphics/SVG/1.1/DTD/svg11.dtd">
<svg width="694" height="694" version="1.1" id="toplevel"
    xmlns="http://www.w3.org/2000/svg"
    xmlns:xlink="http://www.w3.org/1999/xlink">
  <polygon points="437,689 689,257 257,5 5,437" fill="bisque"/>
  <g stroke="chocolate" stroke-width="1">
    <line x1="437" y1="689" x2="5" y2="437"/>
    <circle cx="437" cy="689" r="2"/>
    <circle cx="5" cy="437" r="2"/>
  </g>
  <g stroke="chocolate" stroke-width="1">
    <line x1="437" y1="689" x2="689" y2="257"/>
    <circle cx="437" cy="689" r="2"/>
    <circle cx="689" cy="257" r="2"/>
  </g>
  <g stroke="chocolate" stroke-width="1">
    <line x1="5" y1="437" x2="257" y2="5"/>
    <circle cx="5" cy="437" r="2"/>
    <circle cx="257" cy="5" r="2"/>
  </g>
  <g stroke="chocolate" stroke-width="1">
    <line x1="689" y1="257" x2="257" y2="5"/>
    <circle cx="689" cy="257" r="2"/>
    <circle cx="257" cy="5" r="2"/>
  </g>
  <g stroke="black" stroke-width="1">
    <line x1="97" y1="97" x2="597" y2="97"/>
    <line x1="97" y1="97" x2="97" y2="597"/>
    <line x1="597" y1="597" x2="97" y2="597"/>
    <line x1="597" y1="597" x2="597" y2="97"/>
    <line x1="197" y1="94" x2="197" y2="100"/>
    <line x1="94" y1="197" x2="100" y2="197"/>
    <line x1="197" y1="594" x2="197" y2="600"/>
    <line x1="594" y1="197" x2="600" y2="197"/>
    <line x1="297" y1="94" x2="297" y2="100"/>
    <line x1="94" y1="297" x2="100" y2="297"/>
    <line x1="297" y1="594" x2="297" y2="600"/>
    <line x1="594" y1="297" x2="600" y2="297"/>
    <line x1="397" y1="94" x2="397" y2="100"/>
    <line x1="94" y1="397" x2="100" y2="397"/>
    <line x1="397" y1="594" x2="397" y2="600"/>
    <line x1="594" y1="397" x2="600" y2="397"/>
    <line x1="497" y1="94" x2="497" y2="100"/>
    <line x1="94" y1="497" x2="100" y2="497"/>
    <line x1="497" y1="594" x2="497" y2="600"/>
    <line x1="594" y1="497" x2="600" y2="497"/>
  </g>
  <g stroke="gray" stroke-width="1" stroke-dasharray="5,5">
    <line x1="197" y1="97" x2="197" y2="597"/>
    <line x1="97" y1="197" x2="597" y2="197"/>
    <line x1="297" y1="97" x2="297" y2="597"/>
    <line x1="97" y1="297" x2="597" y2="297"/>
    <line x1="397" y1="97" x2="397" y2="597"/>
    <line x1="97" y1="397" x2="597" y2="397"/>
    <line x1="497" y1="97" x2="497" y2="597"/>
    <line x1="97" y1="497" x2="597" y2="497"/>
  </g>
</svg>
