<?xml version="1.0" standalone="no"?>
<!DOCTYPE svg PUBLIC "-//W3C//DTD SVG 1.1//EN" 
  "http://www.w3.org/Graphics/SVG/1.1/DTD/svg11.dtd">
<svg width="542" height="542" version="1.1" id="toplevel"
    xmlns="http://www.w3.org/2000/svg"
    xmlns:xlink="http://www.w3.org/1999/xlink">
  <polygon points="503,537 537,39 39,5 5,503" fill="bisque"/>
  <g stroke="chocolate" stroke-width="1">
    <line x1="503" y1="537" x2="5" y2="503"/>
    <circle cx="503" cy="537" r="2"/>
    <circle cx="5" cy="503" r="2"/>
  </g>
  <g stroke="chocolate" stroke-width="1">
    <line x1="503" y1="537" x2="537" y2="39"/>
    <circle cx="503" cy="537" r="2"/>
    <circle cx="537" cy="39" r="2"/>
  </g>
  <g stroke="chocolate" stroke-width="1">
    <line x1="5" y1="503" x2="39" y2="5"/>
    <circle cx="5" cy="503" r="2"/>
    <circle cx="39" cy="5" r="2"/>
  </g>
  <g stroke="chocolate" stroke-width="1">
    <line x1="537" y1="39" x2="39" y2="5"/>
    <circle cx="537" cy="39" r="2"/>
    <circle cx="39" cy="5" r="2"/>
  </g>
  <g stroke="black" stroke-width="1">
    <line x1="21" y1="21" x2="521" y2="21"/>
    <line x1="21" y1="21" x2="21" y2="521"/>
    <line x1="521" y1="521" x2="21" y2="521"/>
    <line x1="521" y1="521" x2="521" y2="21"/>
    <line x1="121" y1="18" x2="121" y2="24"/>
    <line x1="18" y1="121" x2="24" y2="121"/>
    <line x1="121" y1="518" x2="121" y2="524"/>
    <line x1="518" y1="121" x2="524" y2="121"/>
    <line x1="221" y1="18" x2="221" y2="24"/>
    <line x1="18" y1="221" x2="24" y2="221"/>
    <line x1="221" y1="518" x2="221" y2="524"/>
    <line x1="518" y1="221" x2="524" y2="221"/>
    <line x1="321" y1="18" x2="321" y2="24"/>
    <line x1="18" y1="321" x2="24" y2="321"/>
    <line x1="321" y1="518" x2="321" y2="524"/>
    <line x1="518" y1="321" x2="524" y2="321"/>
    <line x1="421" y1="18" x2="421" y2="24"/>
    <line x1="18" y1="421" x2="24" y2="421"/>
    <line x1="421" y1="518" x2="421" y2="524"/>
    <line x1="518" y1="421" x2="524" y2="421"/>
  </g>
  <g stroke="gray" stroke-width="1" stroke-dasharray="5,5">
    <line x1="121" y1="21" x2="121" y2="521"/>
    <line x1="21" y1="121" x2="521" y2="121"/>
    <line x1="221" y1="21" x2="221" y2="521"/>
    <line x1="21" y1="221" x2="521" y2="221"/>
    <line x1="321" y1="21" x2="321" y2="521"/>
    <line x1="21" y1="321" x2="521" y2="321"/>
    <line x1="421" y1="21" x2="421" y2="521"/>
    <line x1="21" y1="421" x2="521" y2="421"/>
  </g>
</svg>
