<?xml version="1.0" standalone="no"?>
<!DOCTYPE svg PUBLIC "-//W3C//DTD SVG 1.1//EN" 
  "http://www.w3.org/Graphics/SVG/1.1/DTD/svg11.dtd">
<svg width="564" height="564" version="1.1" id="toplevel"
    xmlns="http://www.w3.org/2000/svg"
    xmlns:xlink="http://www.w3.org/1999/xlink">
  <polygon points="62,559 559,502 502,5 5,62" fill="bisque"/>
  <g stroke="chocolate" stroke-width="1">
    <line x1="62" y1="559" x2="559" y2="502"/>
    <circle cx="62" cy="559" r="2"/>
    <circle cx="559" cy="502" r="2"/>
  </g>
  <g stroke="chocolate" stroke-width="1">
    <line x1="62" y1="559" x2="5" y2="62"/>
    <circle cx="62" cy="559" r="2"/>
    <circle cx="5" cy="62" r="2"/>
  </g>
  <g stroke="chocolate" stroke-width="1">
    <line x1="559" y1="502" x2="502" y2="5"/>
    <circle cx="559" cy="502" r="2"/>
    <circle cx="502" cy="5" r="2"/>
  </g>
  <g stroke="chocolate" stroke-width="1">
    <line x1="5" y1="62" x2="502" y2="5"/>
    <circle cx="5" cy="62" r="2"/>
    <circle cx="502" cy="5" r="2"/>
  </g>
  <g stroke="black" stroke-width="1">
    <line x1="32" y1="32" x2="532" y2="32"/>
    <line x1="32" y1="32" x2="32" y2="532"/>
    <line x1="532" y1="532" x2="32" y2="532"/>
    <line x1="532" y1="532" x2="532" y2="32"/>
    <line x1="132" y1="29" x2="132" y2="35"/>
    <line x1="29" y1="132" x2="35" y2="132"/>
    <line x1="132" y1="529" x2="132" y2="535"/>
    <line x1="529" y1="132" x2="535" y2="132"/>
    <line x1="232" y1="29" x2="232" y2="35"/>
    <line x1="29" y1="232" x2="35" y2="232"/>
    <line x1="232" y1="529" x2="232" y2="535"/>
    <line x1="529" y1="232" x2="535" y2="232"/>
    <line x1="332" y1="29" x2="332" y2="35"/>
    <line x1="29" y1="332" x2="35" y2="332"/>
    <line x1="332" y1="529" x2="332" y2="535"/>
    <line x1="529" y1="332" x2="535" y2="332"/>
    <line x1="432" y1="29" x2="432" y2="35"/>
    <line x1="29" y1="432" x2="35" y2="432"/>
    <line x1="432" y1="529" x2="432" y2="535"/>
    <line x1="529" y1="432" x2="535" y2="432"/>
  </g>
  <g stroke="gray" stroke-width="1" stroke-dasharray="5,5">
    <line x1="132" y1="32" x2="132" y2="532"/>
    <line x1="32" y1="132" x2="532" y2="132"/>
    <line x1="232" y1="32" x2="232" y2="532"/>
    <line x1="32" y1="232" x2="532" y2="232"/>
    <line x1="332" y1="32" x2="332" y2="532"/>
    <line x1="32" y1="332" x2="532" y2="332"/>
    <line x1="432" y1="32" x2="432" y2="532"/>
    <line x1="32" y1="432" x2="532" y2="432"/>
  </g>
</svg>
