<?xml version="1.0" standalone="no"?>
<!DOCTYPE svg PUBLIC "-//W3C//DTD SVG 1.1//EN" 
  "http://www.w3.org/Graphics/SVG/1.1/DTD/svg11.dtd">
<svg width="648" height="648" version="1.1" id="toplevel"
    xmlns="http://www.w3.org/2000/svg"
    xmlns:xlink="http://www.w3.org/1999/xlink">
  <polygon points="173,643 643,475 475,5 5,173" fill="bisque"/>
  <g stroke="chocolate" stroke-width="1">
    <line x1="173" y1="643" x2="643" y2="475"/>
    <circle cx="173" cy="643" r="2"/>
    <circle cx="643" cy="475" r="2"/>
  </g>
  <g stroke="chocolate" stroke-width="1">
    <line x1="173" y1="643" x2="5" y2="173"/>
    <circle cx="173" cy="643" r="2"/>
    <circle cx="5" cy="173" r="2"/>
  </g>
  <g stroke="chocolate" stroke-width="1">
    <line x1="643" y1="475" x2="475" y2="5"/>
    <circle cx="643" cy="475" r="2"/>
    <circle cx="475" cy="5" r="2"/>
  </g>
  <g stroke="chocolate" stroke-width="1">
    <line x1="5" y1="173" x2="475" y2="5"/>
    <circle cx="5" cy="173" r="2"/>
    <circle cx="475" cy="5" r="2"/>
  </g>
  <g stroke="black" stroke-width="1">
    <line x1="74" y1="74" x2="574" y2="74"/>
    <line x1="74" y1="74" x2="74" y2="574"/>
    <line x1="574" y1="574" x2="74" y2="574"/>
    <line x1="574" y1="574" x2="574" y2="74"/>
    <line x1="174" y1="71" x2="174" y2="77"/>
    <line x1="71" y1="174" x2="77" y2="174"/>
    <line x1="174" y1="571" x2="174" y2="577"/>
    <line x1="571" y1="174" x2="577" y2="174"/>
    <line x1="274" y1="71" x2="274" y2="77"/>
    <line x1="71" y1="274" x2="77" y2="274"/>
    <line x1="274" y1="571" x2="274" y2="577"/>
    <line x1="571" y1="274" x2="577" y2="274"/>
    <line x1="374" y1="71" x2="374" y2="77"/>
    <line x1="71" y1="374" x2="77" y2="374"/>
    <line x1="374" y1="571" x2="374" y2="577"/>
    <line x1="571" y1="374" x2="577" y2="374"/>
    <line x1="474" y1="71" x2="474" y2="77"/>
    <line x1="71" y1="474" x2="77" y2="474"/>
    <line x1="474" y1="571" x2="474" y2="577"/>
    <line x1="571" y1="474" x2="577" y2="474"/>
  </g>
  <g stroke="gray" stroke-width="1" stroke-dasharray="5,5">
    <line x1="174" y1="74" x2="174" y2="574"/>
    <line x1="74" y1="174" x2="574" y2="174"/>
    <line x1="274" y1="74" x2="274" y2="574"/>
    <line x1="74" y1="274" x2="574" y2="274"/>
    <line x1="374" y1="74" x2="374" y2="574"/>
    <line x1="74" y1="374" x2="574" y2="374"/>
    <line x1="474" y1="74" x2="474" y2="574"/>
    <line x1="74" y1="474" x2="574" y2="474"/>
  </g>
</svg>
