<?xml version="1.0" standalone="no"?>
<!DOCTYPE svg PUBLIC "-//W3C//DTD SVG 1.1//EN" 
  "http://www.w3.org/Graphics/SVG/1.1/DTD/svg11.dtd">
<svg width="510" height="510" version="1.1" id="toplevel"
    xmlns="http://www.w3.org/2000/svg"
    xmlns:xlink="http://www.w3.org/1999/xlink">
  <polygon points="200,505 212,498 194,473 190,473 183,451 194,353 135,306 178,231 163,222 189,204 324,37 310,5 273,21 269,26 221,17 95,145 73,151 68,150 67,152 49,157 27,315 177,497"
           fill="bisque"/>
  <g stroke="chocolate" stroke-width="1">
    <line x1="178" y1="498" x2="194" y2="473"/>
    <circle cx="178" cy="498" r="2"/>
    <circle cx="194" cy="473" r="2"/>
  </g>
  <g stroke="chocolate" stroke-width="1">
    <line x1="233" y1="149" x2="251" y2="54"/>
    <circle cx="233" cy="149" r="2"/>
    <circle cx="251" cy="54" r="2"/>
  </g>
  <g stroke="chocolate" stroke-width="1">
    <line x1="157" y1="473" x2="167" y2="428"/>
    <circle cx="157" cy="473" r="2"/>
    <circle cx="167" cy="428" r="2"/>
  </g>
  <g stroke="chocolate" stroke-width="1">
    <line x1="178" y1="498" x2="194" y2="353"/>
    <circle cx="178" cy="498" r="2"/>
    <circle cx="194" cy="353" r="2"/>
  </g>
  <g stroke="chocolate" stroke-width="1">
    <line x1="271" y1="102" x2="273" y2="21"/>
    <circle cx="271" cy="102" r="2"/>
    <circle cx="273" cy="21" r="2"/>
  </g>
  <g stroke="chocolate" stroke-width="1">
    <line x1="200" y1="505" x2="212" y2="498"/>
    <circle cx="200" cy="505" r="2"/>
    <circle cx="212" cy="498" r="2"/>
  </g>
  <g stroke="chocolate" stroke-width="1">
    <line x1="189" y1="204" x2="251" y2="54"/>
    <circle cx="189" cy="204" r="2"/>
    <circle cx="251" cy="54" r="2"/>
  </g>
  <g stroke="chocolate" stroke-width="1">
    <line x1="42" y1="304" x2="68" y2="150"/>
    <circle cx="42" cy="304" r="2"/>
    <circle cx="68" cy="150" r="2"/>
  </g>
  <g stroke="chocolate" stroke-width="1">
    <line x1="27" y1="315" x2="49" y2="157"/>
    <circle cx="27" cy="315" r="2"/>
    <circle cx="49" cy="157" r="2"/>
  </g>
  <g stroke="chocolate" stroke-width="1">
    <line x1="88" y1="389" x2="178" y2="231"/>
    <circle cx="88" cy="389" r="2"/>
    <circle cx="178" cy="231" r="2"/>
  </g>
  <g stroke="chocolate" stroke-width="1">
    <line x1="177" y1="497" x2="167" y2="428"/>
    <circle cx="177" cy="497" r="2"/>
    <circle cx="167" cy="428" r="2"/>
  </g>
  <g stroke="chocolate" stroke-width="1">
    <line x1="200" y1="505" x2="140" y2="310"/>
    <circle cx="200" cy="505" r="2"/>
    <circle cx="140" cy="310" r="2"/>
  </g>
  <g stroke="chocolate" stroke-width="1">
    <line x1="251" y1="54" x2="273" y2="21"/>
    <circle cx="251" cy="54" r="2"/>
    <circle cx="273" cy="21" r="2"/>
  </g>
  <g stroke="chocolate" stroke-width="1">
    <line x1="246" y1="133" x2="221" y2="17"/>
    <circle cx="246" cy="133" r="2"/>
    <circle cx="221" cy="17" r="2"/>
  </g>
  <g stroke="chocolate" stroke-width="1">
    <line x1="189" y1="204" x2="324" y2="37"/>
    <circle cx="189" cy="204" r="2"/>
    <circle cx="324" cy="37" r="2"/>
  </g>
  <g stroke="chocolate" stroke-width="1">
    <line x1="167" y1="428" x2="43" y2="198"/>
    <circle cx="167" cy="428" r="2"/>
    <circle cx="43" cy="198" r="2"/>
  </g>
  <g stroke="chocolate" stroke-width="1">
    <line x1="213" y1="174" x2="207" y2="160"/>
    <circle cx="213" cy="174" r="2"/>
    <circle cx="207" cy="160" r="2"/>
  </g>
  <g stroke="chocolate" stroke-width="1">
    <line x1="177" y1="497" x2="27" y2="315"/>
    <circle cx="177" cy="497" r="2"/>
    <circle cx="27" cy="315" r="2"/>
  </g>
  <g stroke="chocolate" stroke-width="1">
    <line x1="212" y1="498" x2="194" y2="473"/>
    <circle cx="212" cy="498" r="2"/>
    <circle cx="194" cy="473" r="2"/>
  </g>
  <g stroke="chocolate" stroke-width="1">
    <line x1="157" y1="473" x2="194" y2="473"/>
    <circle cx="157" cy="473" r="2"/>
    <circle cx="194" cy="473" r="2"/>
  </g>
  <g stroke="chocolate" stroke-width="1">
    <line x1="200" y1="505" x2="177" y2="497"/>
    <circle cx="200" cy="505" r="2"/>
    <circle cx="177" cy="497" r="2"/>
  </g>
  <g stroke="chocolate" stroke-width="1">
    <line x1="88" y1="389" x2="194" y2="353"/>
    <circle cx="88" cy="389" r="2"/>
    <circle cx="194" cy="353" r="2"/>
  </g>
  <g stroke="chocolate" stroke-width="1">
    <line x1="43" y1="198" x2="221" y2="17"/>
    <circle cx="43" cy="198" r="2"/>
    <circle cx="221" cy="17" r="2"/>
  </g>
  <g stroke="chocolate" stroke-width="1">
    <line x1="27" y1="315" x2="189" y2="204"/>
    <circle cx="27" cy="315" r="2"/>
    <circle cx="189" cy="204" r="2"/>
  </g>
  <g stroke="chocolate" stroke-width="1">
    <line x1="324" y1="37" x2="310" y2="5"/>
    <circle cx="324" cy="37" r="2"/>
    <circle cx="310" cy="5" r="2"/>
  </g>
  <g stroke="chocolate" stroke-width="1">
    <line x1="194" y1="353" x2="39" y2="229"/>
    <circle cx="194" cy="353" r="2"/>
    <circle cx="39" cy="229" r="2"/>
  </g>
  <g stroke="chocolate" stroke-width="1">
    <line x1="207" y1="160" x2="233" y2="148"/>
    <circle cx="207" cy="160" r="2"/>
    <circle cx="233" cy="148" r="2"/>
  </g>
  <g stroke="chocolate" stroke-width="1">
    <line x1="42" y1="304" x2="28" y2="302"/>
    <circle cx="42" cy="304" r="2"/>
    <circle cx="28" cy="302" r="2"/>
  </g>
  <g stroke="chocolate" stroke-width="1">
    <line x1="140" y1="310" x2="28" y2="302"/>
    <circle cx="140" cy="310" r="2"/>
    <circle cx="28" cy="302" r="2"/>
  </g>
  <g stroke="chocolate" stroke-width="1">
    <line x1="39" y1="229" x2="233" y2="149"/>
    <circle cx="39" cy="229" r="2"/>
    <circle cx="233" cy="149" r="2"/>
  </g>
  <g stroke="chocolate" stroke-width="1">
    <line x1="233" y1="148" x2="218" y2="133"/>
    <circle cx="233" cy="148" r="2"/>
    <circle cx="218" cy="133" r="2"/>
  </g>
  <g stroke="chocolate" stroke-width="1">
    <line x1="178" y1="231" x2="49" y2="157"/>
    <circle cx="178" cy="231" r="2"/>
    <circle cx="49" cy="157" r="2"/>
  </g>
  <g stroke="chocolate" stroke-width="1">
    <line x1="273" y1="21" x2="310" y2="5"/>
    <circle cx="273" cy="21" r="2"/>
    <circle cx="310" cy="5" r="2"/>
  </g>
  <g stroke="chocolate" stroke-width="1">
    <line x1="49" y1="157" x2="271" y2="102"/>
    <circle cx="49" cy="157" r="2"/>
    <circle cx="271" cy="102" r="2"/>
  </g>
  <g stroke="chocolate" stroke-width="1">
    <line x1="213" y1="174" x2="68" y2="150"/>
    <circle cx="213" cy="174" r="2"/>
    <circle cx="68" cy="150" r="2"/>
  </g>
  <g stroke="chocolate" stroke-width="1">
    <line x1="218" y1="133" x2="246" y2="133"/>
    <circle cx="218" cy="133" r="2"/>
    <circle cx="246" cy="133" r="2"/>
  </g>
  <g stroke="chocolate" stroke-width="1">
    <line x1="324" y1="37" x2="221" y2="17"/>
    <circle cx="324" cy="37" r="2"/>
    <circle cx="221" cy="17" r="2"/>
  </g>
  <g stroke="black" stroke-width="1">
    <line x1="5" y1="5" x2="505" y2="5"/>
    <line x1="5" y1="5" x2="5" y2="505"/>
    <line x1="505" y1="505" x2="5" y2="505"/>
    <line x1="505" y1="505" x2="505" y2="5"/>
    <line x1="105" y1="2" x2="105" y2="8"/>
    <line x1="2" y1="105" x2="8" y2="105"/>
    <line x1="105" y1="502" x2="105" y2="508"/>
    <line x1="502" y1="105" x2="508" y2="105"/>
    <line x1="205" y1="2" x2="205" y2="8"/>
    <line x1="2" y1="205" x2="8" y2="205"/>
    <line x1="205" y1="502" x2="205" y2="508"/>
    <line x1="502" y1="205" x2="508" y2="205"/>
    <line x1="305" y1="2" x2="305" y2="8"/>
    <line x1="2" y1="305" x2="8" y2="305"/>
    <line x1="305" y1="502" x2="305" y2="508"/>
    <line x1="502" y1="305" x2="508" y2="305"/>
    <line x1="405" y1="2" x2="405" y2="8"/>
    <line x1="2" y1="405" x2="8" y2="405"/>
    <line x1="405" y1="502" x2="405" y2="508"/>
    <line x1="502" y1="405" x2="508" y2="405"/>
  </g>
  <g stroke="gray" stroke-width="1" stroke-dasharray="5,5">
    <line x1="105" y1="5" x2="105" y2="505"/>
    <line x1="5" y1="105" x2="505" y2="105"/>
    <line x1="205" y1="5" x2="205" y2="505"/>
    <line x1="5" y1="205" x2="505" y2="205"/>
    <line x1="305" y1="5" x2="305" y2="505"/>
    <line x1="5" y1="305" x2="505" y2="305"/>
    <line x1="405" y1="5" x2="405" y2="505"/>
    <line x1="5" y1="405" x2="505" y2="405"/>
  </g>
</svg>
