<?xml version="1.0" standalone="no"?>
<!DOCTYPE svg PUBLIC "-//W3C//DTD SVG 1.1//EN" 
  "http://www.w3.org/Graphics/SVG/1.1/DTD/svg11.dtd">
<svg width="712" height="712" version="1.1" id="toplevel"
    xmlns="http://www.w3.org/2000/svg"
    xmlns:xlink="http://www.w3.org/1999/xlink">
  <polygon points="337,532 434,454 610,473 707,395 532,375 375,180 180,337 5,317 83,415 258,434"
           fill="bisque"/>
  <g stroke="chocolate" stroke-width="1">
    <line x1="610" y1="473" x2="707" y2="395"/>
    <circle cx="610" cy="473" r="2"/>
    <circle cx="707" cy="395" r="2"/>
  </g>
  <g stroke="chocolate" stroke-width="1">
    <line x1="337" y1="532" x2="532" y2="375"/>
    <circle cx="337" cy="532" r="2"/>
    <circle cx="532" cy="375" r="2"/>
  </g>
  <g stroke="chocolate" stroke-width="1">
    <line x1="83" y1="415" x2="375" y2="180"/>
    <circle cx="83" cy="415" r="2"/>
    <circle cx="375" cy="180" r="2"/>
  </g>
  <g stroke="chocolate" stroke-width="1">
    <line x1="83" y1="415" x2="5" y2="317"/>
    <circle cx="83" cy="415" r="2"/>
    <circle cx="5" cy="317" r="2"/>
  </g>
  <g stroke="chocolate" stroke-width="1">
    <line x1="610" y1="473" x2="83" y2="415"/>
    <circle cx="610" cy="473" r="2"/>
    <circle cx="83" cy="415" r="2"/>
  </g>
  <g stroke="chocolate" stroke-width="1">
    <line x1="337" y1="532" x2="180" y2="337"/>
    <circle cx="337" cy="532" r="2"/>
    <circle cx="180" cy="337" r="2"/>
  </g>
  <g stroke="chocolate" stroke-width="1">
    <line x1="707" y1="395" x2="5" y2="317"/>
    <circle cx="707" cy="395" r="2"/>
    <circle cx="5" cy="317" r="2"/>
  </g>
  <g stroke="chocolate" stroke-width="1">
    <line x1="610" y1="473" x2="375" y2="180"/>
    <circle cx="610" cy="473" r="2"/>
    <circle cx="375" cy="180" r="2"/>
  </g>
  <g stroke="black" stroke-width="1">
    <line x1="106" y1="106" x2="606" y2="106"/>
    <line x1="106" y1="106" x2="106" y2="606"/>
    <line x1="606" y1="606" x2="106" y2="606"/>
    <line x1="606" y1="606" x2="606" y2="106"/>
    <line x1="206" y1="103" x2="206" y2="109"/>
    <line x1="103" y1="206" x2="109" y2="206"/>
    <line x1="206" y1="603" x2="206" y2="609"/>
    <line x1="603" y1="206" x2="609" y2="206"/>
    <line x1="306" y1="103" x2="306" y2="109"/>
    <line x1="103" y1="306" x2="109" y2="306"/>
    <line x1="306" y1="603" x2="306" y2="609"/>
    <line x1="603" y1="306" x2="609" y2="306"/>
    <line x1="406" y1="103" x2="406" y2="109"/>
    <line x1="103" y1="406" x2="109" y2="406"/>
    <line x1="406" y1="603" x2="406" y2="609"/>
    <line x1="603" y1="406" x2="609" y2="406"/>
    <line x1="506" y1="103" x2="506" y2="109"/>
    <line x1="103" y1="506" x2="109" y2="506"/>
    <line x1="506" y1="603" x2="506" y2="609"/>
    <line x1="603" y1="506" x2="609" y2="506"/>
  </g>
  <g stroke="gray" stroke-width="1" stroke-dasharray="5,5">
    <line x1="206" y1="106" x2="206" y2="606"/>
    <line x1="106" y1="206" x2="606" y2="206"/>
    <line x1="306" y1="106" x2="306" y2="606"/>
    <line x1="106" y1="306" x2="606" y2="306"/>
    <line x1="406" y1="106" x2="406" y2="606"/>
    <line x1="106" y1="406" x2="606" y2="406"/>
    <line x1="506" y1="106" x2="506" y2="606"/>
    <line x1="106" y1="506" x2="606" y2="506"/>
  </g>
</svg>
