<?xml version="1.0" standalone="no"?>
<!DOCTYPE svg PUBLIC "-//W3C//DTD SVG 1.1//EN" 
  "http://www.w3.org/Graphics/SVG/1.1/DTD/svg11.dtd">
<svg width="636" height="636" version="1.1" id="toplevel"
    xmlns="http://www.w3.org/2000/svg"
    xmlns:xlink="http://www.w3.org/1999/xlink">
  <polygon points="11,543 418,420 631,281 631,240 539,240 213,93 29,502 27,503 5,539"
           fill="bisque"/>
  <g stroke="chocolate" stroke-width="1">
    <line x1="408" y1="423" x2="467" y2="336"/>
    <circle cx="408" cy="423" r="2"/>
    <circle cx="467" cy="336" r="2"/>
  </g>
  <g stroke="chocolate" stroke-width="1">
    <line x1="284" y1="460" x2="422" y2="241"/>
    <circle cx="284" cy="460" r="2"/>
    <circle cx="422" cy="241" r="2"/>
  </g>
  <g stroke="chocolate" stroke-width="1">
    <line x1="631" y1="281" x2="631" y2="240"/>
    <circle cx="631" cy="281" r="2"/>
    <circle cx="631" cy="240" r="2"/>
  </g>
  <g stroke="chocolate" stroke-width="1">
    <line x1="11" y1="543" x2="213" y2="93"/>
    <circle cx="11" cy="543" r="2"/>
    <circle cx="213" cy="93" r="2"/>
  </g>
  <g stroke="chocolate" stroke-width="1">
    <line x1="186" y1="490" x2="238" y2="421"/>
    <circle cx="186" cy="490" r="2"/>
    <circle cx="238" cy="421" r="2"/>
  </g>
  <g stroke="chocolate" stroke-width="1">
    <line x1="5" y1="539" x2="27" y2="503"/>
    <circle cx="5" cy="539" r="2"/>
    <circle cx="27" cy="503" r="2"/>
  </g>
  <g stroke="chocolate" stroke-width="1">
    <line x1="418" y1="420" x2="631" y2="281"/>
    <circle cx="418" cy="420" r="2"/>
    <circle cx="631" cy="281" r="2"/>
  </g>
  <g stroke="chocolate" stroke-width="1">
    <line x1="108" y1="513" x2="150" y2="477"/>
    <circle cx="108" cy="513" r="2"/>
    <circle cx="150" cy="477" r="2"/>
  </g>
  <g stroke="chocolate" stroke-width="1">
    <line x1="336" y1="445" x2="410" y2="401"/>
    <circle cx="336" cy="445" r="2"/>
    <circle cx="410" cy="401" r="2"/>
  </g>
  <g stroke="chocolate" stroke-width="1">
    <line x1="356" y1="439" x2="400" y2="420"/>
    <circle cx="356" cy="439" r="2"/>
    <circle cx="400" cy="420" r="2"/>
  </g>
  <g stroke="chocolate" stroke-width="1">
    <line x1="27" y1="503" x2="199" y2="422"/>
    <circle cx="27" cy="503" r="2"/>
    <circle cx="199" cy="422" r="2"/>
  </g>
  <g stroke="chocolate" stroke-width="1">
    <line x1="467" y1="336" x2="422" y2="241"/>
    <circle cx="467" cy="336" r="2"/>
    <circle cx="422" cy="241" r="2"/>
  </g>
  <g stroke="chocolate" stroke-width="1">
    <line x1="11" y1="543" x2="5" y2="539"/>
    <circle cx="11" cy="543" r="2"/>
    <circle cx="5" cy="539" r="2"/>
  </g>
  <g stroke="chocolate" stroke-width="1">
    <line x1="11" y1="543" x2="418" y2="420"/>
    <circle cx="11" cy="543" r="2"/>
    <circle cx="418" cy="420" r="2"/>
  </g>
  <g stroke="chocolate" stroke-width="1">
    <line x1="410" y1="401" x2="367" y2="328"/>
    <circle cx="410" cy="401" r="2"/>
    <circle cx="367" cy="328" r="2"/>
  </g>
  <g stroke="chocolate" stroke-width="1">
    <line x1="259" y1="449" x2="238" y2="421"/>
    <circle cx="259" cy="449" r="2"/>
    <circle cx="238" cy="421" r="2"/>
  </g>
  <g stroke="chocolate" stroke-width="1">
    <line x1="150" y1="477" x2="356" y2="439"/>
    <circle cx="150" cy="477" r="2"/>
    <circle cx="356" cy="439" r="2"/>
  </g>
  <g stroke="chocolate" stroke-width="1">
    <line x1="108" y1="513" x2="27" y2="503"/>
    <circle cx="108" cy="513" r="2"/>
    <circle cx="27" cy="503" r="2"/>
  </g>
  <g stroke="chocolate" stroke-width="1">
    <line x1="259" y1="449" x2="336" y2="445"/>
    <circle cx="259" cy="449" r="2"/>
    <circle cx="336" cy="445" r="2"/>
  </g>
  <g stroke="chocolate" stroke-width="1">
    <line x1="186" y1="490" x2="150" y2="477"/>
    <circle cx="186" cy="490" r="2"/>
    <circle cx="150" cy="477" r="2"/>
  </g>
  <g stroke="chocolate" stroke-width="1">
    <line x1="199" y1="422" x2="418" y2="420"/>
    <circle cx="199" cy="422" r="2"/>
    <circle cx="418" cy="420" r="2"/>
  </g>
  <g stroke="chocolate" stroke-width="1">
    <line x1="284" y1="460" x2="199" y2="422"/>
    <circle cx="284" cy="460" r="2"/>
    <circle cx="199" cy="422" r="2"/>
  </g>
  <g stroke="chocolate" stroke-width="1">
    <line x1="408" y1="423" x2="400" y2="420"/>
    <circle cx="408" cy="423" r="2"/>
    <circle cx="400" cy="420" r="2"/>
  </g>
  <g stroke="chocolate" stroke-width="1">
    <line x1="467" y1="336" x2="367" y2="328"/>
    <circle cx="467" cy="336" r="2"/>
    <circle cx="367" cy="328" r="2"/>
  </g>
  <g stroke="chocolate" stroke-width="1">
    <line x1="422" y1="241" x2="631" y2="240"/>
    <circle cx="422" cy="241" r="2"/>
    <circle cx="631" cy="240" r="2"/>
  </g>
  <g stroke="chocolate" stroke-width="1">
    <line x1="631" y1="281" x2="213" y2="93"/>
    <circle cx="631" cy="281" r="2"/>
    <circle cx="213" cy="93" r="2"/>
  </g>
  <g stroke="black" stroke-width="1">
    <line x1="68" y1="68" x2="568" y2="68"/>
    <line x1="68" y1="68" x2="68" y2="568"/>
    <line x1="568" y1="568" x2="68" y2="568"/>
    <line x1="568" y1="568" x2="568" y2="68"/>
    <line x1="168" y1="65" x2="168" y2="71"/>
    <line x1="65" y1="168" x2="71" y2="168"/>
    <line x1="168" y1="565" x2="168" y2="571"/>
    <line x1="565" y1="168" x2="571" y2="168"/>
    <line x1="268" y1="65" x2="268" y2="71"/>
    <line x1="65" y1="268" x2="71" y2="268"/>
    <line x1="268" y1="565" x2="268" y2="571"/>
    <line x1="565" y1="268" x2="571" y2="268"/>
    <line x1="368" y1="65" x2="368" y2="71"/>
    <line x1="65" y1="368" x2="71" y2="368"/>
    <line x1="368" y1="565" x2="368" y2="571"/>
    <line x1="565" y1="368" x2="571" y2="368"/>
    <line x1="468" y1="65" x2="468" y2="71"/>
    <line x1="65" y1="468" x2="71" y2="468"/>
    <line x1="468" y1="565" x2="468" y2="571"/>
    <line x1="565" y1="468" x2="571" y2="468"/>
  </g>
  <g stroke="gray" stroke-width="1" stroke-dasharray="5,5">
    <line x1="168" y1="68" x2="168" y2="568"/>
    <line x1="68" y1="168" x2="568" y2="168"/>
    <line x1="268" y1="68" x2="268" y2="568"/>
    <line x1="68" y1="268" x2="568" y2="268"/>
    <line x1="368" y1="68" x2="368" y2="568"/>
    <line x1="68" y1="368" x2="568" y2="368"/>
    <line x1="468" y1="68" x2="468" y2="568"/>
    <line x1="68" y1="468" x2="568" y2="468"/>
  </g>
</svg>
