<?xml version="1.0" standalone="no"?>
<!DOCTYPE svg PUBLIC "-//W3C//DTD SVG 1.1//EN" 
  "http://www.w3.org/Graphics/SVG/1.1/DTD/svg11.dtd">
<svg width="510" height="510" version="1.1" id="toplevel"
    xmlns="http://www.w3.org/2000/svg"
    xmlns:xlink="http://www.w3.org/1999/xlink">
  <polygon points="60,339 72,299 130,255 192,224 169,177 91,177 26,307 30,330"
           fill="bisque"/>
  <g stroke="chocolate" stroke-width="1">
    <line x1="60" y1="339" x2="103" y2="192"/>
    <circle cx="60" cy="339" r="2"/>
    <circle cx="103" cy="192" r="2"/>
  </g>
  <g stroke="chocolate" stroke-width="1">
    <line x1="130" y1="255" x2="169" y2="177"/>
    <circle cx="130" cy="255" r="2"/>
    <circle cx="169" cy="177" r="2"/>
  </g>
  <g stroke="chocolate" stroke-width="1">
    <line x1="130" y1="255" x2="130" y2="177"/>
    <circle cx="130" cy="255" r="2"/>
    <circle cx="130" cy="177" r="2"/>
  </g>
  <g stroke="chocolate" stroke-width="1">
    <line x1="30" y1="330" x2="26" y2="307"/>
    <circle cx="30" cy="330" r="2"/>
    <circle cx="26" cy="307" r="2"/>
  </g>
  <g stroke="chocolate" stroke-width="1">
    <line x1="26" y1="307" x2="91" y2="177"/>
    <circle cx="26" cy="307" r="2"/>
    <circle cx="91" cy="177" r="2"/>
  </g>
  <g stroke="chocolate" stroke-width="1">
    <line x1="30" y1="330" x2="142" y2="246"/>
    <circle cx="30" cy="330" r="2"/>
    <circle cx="142" cy="246" r="2"/>
  </g>
  <g stroke="chocolate" stroke-width="1">
    <line x1="192" y1="224" x2="169" y2="177"/>
    <circle cx="192" cy="224" r="2"/>
    <circle cx="169" cy="177" r="2"/>
  </g>
  <g stroke="chocolate" stroke-width="1">
    <line x1="26" y1="307" x2="192" y2="224"/>
    <circle cx="26" cy="307" r="2"/>
    <circle cx="192" cy="224" r="2"/>
  </g>
  <g stroke="chocolate" stroke-width="1">
    <line x1="130" y1="255" x2="83" y2="192"/>
    <circle cx="130" cy="255" r="2"/>
    <circle cx="83" cy="192" r="2"/>
  </g>
  <g stroke="chocolate" stroke-width="1">
    <line x1="142" y1="246" x2="91" y2="177"/>
    <circle cx="142" cy="246" r="2"/>
    <circle cx="91" cy="177" r="2"/>
  </g>
  <g stroke="chocolate" stroke-width="1">
    <line x1="60" y1="339" x2="30" y2="330"/>
    <circle cx="60" cy="339" r="2"/>
    <circle cx="30" cy="330" r="2"/>
  </g>
  <g stroke="chocolate" stroke-width="1">
    <line x1="130" y1="255" x2="73" y2="212"/>
    <circle cx="130" cy="255" r="2"/>
    <circle cx="73" cy="212" r="2"/>
  </g>
  <g stroke="chocolate" stroke-width="1">
    <line x1="130" y1="255" x2="68" y2="224"/>
    <circle cx="130" cy="255" r="2"/>
    <circle cx="68" cy="224" r="2"/>
  </g>
  <g stroke="chocolate" stroke-width="1">
    <line x1="130" y1="229" x2="73" y2="212"/>
    <circle cx="130" cy="229" r="2"/>
    <circle cx="73" cy="212" r="2"/>
  </g>
  <g stroke="chocolate" stroke-width="1">
    <line x1="83" y1="192" x2="103" y2="192"/>
    <circle cx="83" cy="192" r="2"/>
    <circle cx="103" cy="192" r="2"/>
  </g>
  <g stroke="chocolate" stroke-width="1">
    <line x1="91" y1="177" x2="169" y2="177"/>
    <circle cx="91" cy="177" r="2"/>
    <circle cx="169" cy="177" r="2"/>
  </g>
  <g stroke="black" stroke-width="1">
    <line x1="5" y1="5" x2="505" y2="5"/>
    <line x1="5" y1="5" x2="5" y2="505"/>
    <line x1="505" y1="505" x2="5" y2="505"/>
    <line x1="505" y1="505" x2="505" y2="5"/>
    <line x1="105" y1="2" x2="105" y2="8"/>
    <line x1="2" y1="105" x2="8" y2="105"/>
    <line x1="105" y1="502" x2="105" y2="508"/>
    <line x1="502" y1="105" x2="508" y2="105"/>
    <line x1="205" y1="2" x2="205" y2="8"/>
    <line x1="2" y1="205" x2="8" y2="205"/>
    <line x1="205" y1="502" x2="205" y2="508"/>
    <line x1="502" y1="205" x2="508" y2="205"/>
    <line x1="305" y1="2" x2="305" y2="8"/>
    <line x1="2" y1="305" x2="8" y2="305"/>
    <line x1="305" y1="502" x2="305" y2="508"/>
    <line x1="502" y1="305" x2="508" y2="305"/>
    <line x1="405" y1="2" x2="405" y2="8"/>
    <line x1="2" y1="405" x2="8" y2="405"/>
    <line x1="405" y1="502" x2="405" y2="508"/>
    <line x1="502" y1="405" x2="508" y2="405"/>
  </g>
  <g stroke="gray" stroke-width="1" stroke-dasharray="5,5">
    <line x1="105" y1="5" x2="105" y2="505"/>
    <line x1="5" y1="105" x2="505" y2="105"/>
    <line x1="205" y1="5" x2="205" y2="505"/>
    <line x1="5" y1="205" x2="505" y2="205"/>
    <line x1="305" y1="5" x2="305" y2="505"/>
    <line x1="5" y1="305" x2="505" y2="305"/>
    <line x1="405" y1="5" x2="405" y2="505"/>
    <line x1="5" y1="405" x2="505" y2="405"/>
  </g>
</svg>
