<?xml version="1.0" standalone="no"?>
<!DOCTYPE svg PUBLIC "-//W3C//DTD SVG 1.1//EN" 
  "http://www.w3.org/Graphics/SVG/1.1/DTD/svg11.dtd">
<svg width="604" height="604" version="1.1" id="toplevel"
    xmlns="http://www.w3.org/2000/svg"
    xmlns:xlink="http://www.w3.org/1999/xlink">
  <polygon points="24,419 583,359 599,277 545,267 530,232 495,239 491,222 409,242 107,185 83,317 27,327 27,337 5,342"
           fill="bisque"/>
  <g stroke="chocolate" stroke-width="1">
    <line x1="583" y1="359" x2="599" y2="277"/>
    <circle cx="583" cy="359" r="2"/>
    <circle cx="599" cy="277" r="2"/>
  </g>
  <g stroke="chocolate" stroke-width="1">
    <line x1="64" y1="415" x2="107" y2="185"/>
    <circle cx="64" cy="415" r="2"/>
    <circle cx="107" cy="185" r="2"/>
  </g>
  <g stroke="chocolate" stroke-width="1">
    <line x1="526" y1="365" x2="530" y2="232"/>
    <circle cx="526" cy="365" r="2"/>
    <circle cx="530" cy="232" r="2"/>
  </g>
  <g stroke="chocolate" stroke-width="1">
    <line x1="24" y1="419" x2="27" y2="327"/>
    <circle cx="24" cy="419" r="2"/>
    <circle cx="27" cy="327" r="2"/>
  </g>
  <g stroke="chocolate" stroke-width="1">
    <line x1="24" y1="419" x2="5" y2="342"/>
    <circle cx="24" cy="419" r="2"/>
    <circle cx="5" cy="342" r="2"/>
  </g>
  <g stroke="chocolate" stroke-width="1">
    <line x1="64" y1="415" x2="27" y2="327"/>
    <circle cx="64" cy="415" r="2"/>
    <circle cx="27" cy="327" r="2"/>
  </g>
  <g stroke="chocolate" stroke-width="1">
    <line x1="526" y1="365" x2="491" y2="222"/>
    <circle cx="526" cy="365" r="2"/>
    <circle cx="491" cy="222" r="2"/>
  </g>
  <g stroke="chocolate" stroke-width="1">
    <line x1="5" y1="342" x2="491" y2="222"/>
    <circle cx="5" cy="342" r="2"/>
    <circle cx="491" cy="222" r="2"/>
  </g>
  <g stroke="chocolate" stroke-width="1">
    <line x1="24" y1="419" x2="583" y2="359"/>
    <circle cx="24" cy="419" r="2"/>
    <circle cx="583" cy="359" r="2"/>
  </g>
  <g stroke="chocolate" stroke-width="1">
    <line x1="27" y1="327" x2="530" y2="232"/>
    <circle cx="27" cy="327" r="2"/>
    <circle cx="530" cy="232" r="2"/>
  </g>
  <g stroke="chocolate" stroke-width="1">
    <line x1="583" y1="359" x2="530" y2="232"/>
    <circle cx="583" cy="359" r="2"/>
    <circle cx="530" cy="232" r="2"/>
  </g>
  <g stroke="chocolate" stroke-width="1">
    <line x1="599" y1="277" x2="107" y2="185"/>
    <circle cx="599" cy="277" r="2"/>
    <circle cx="107" cy="185" r="2"/>
  </g>
  <g stroke="black" stroke-width="1">
    <line x1="52" y1="52" x2="552" y2="52"/>
    <line x1="52" y1="52" x2="52" y2="552"/>
    <line x1="552" y1="552" x2="52" y2="552"/>
    <line x1="552" y1="552" x2="552" y2="52"/>
    <line x1="152" y1="49" x2="152" y2="55"/>
    <line x1="49" y1="152" x2="55" y2="152"/>
    <line x1="152" y1="549" x2="152" y2="555"/>
    <line x1="549" y1="152" x2="555" y2="152"/>
    <line x1="252" y1="49" x2="252" y2="55"/>
    <line x1="49" y1="252" x2="55" y2="252"/>
    <line x1="252" y1="549" x2="252" y2="555"/>
    <line x1="549" y1="252" x2="555" y2="252"/>
    <line x1="352" y1="49" x2="352" y2="55"/>
    <line x1="49" y1="352" x2="55" y2="352"/>
    <line x1="352" y1="549" x2="352" y2="555"/>
    <line x1="549" y1="352" x2="555" y2="352"/>
    <line x1="452" y1="49" x2="452" y2="55"/>
    <line x1="49" y1="452" x2="55" y2="452"/>
    <line x1="452" y1="549" x2="452" y2="555"/>
    <line x1="549" y1="452" x2="555" y2="452"/>
  </g>
  <g stroke="gray" stroke-width="1" stroke-dasharray="5,5">
    <line x1="152" y1="52" x2="152" y2="552"/>
    <line x1="52" y1="152" x2="552" y2="152"/>
    <line x1="252" y1="52" x2="252" y2="552"/>
    <line x1="52" y1="252" x2="552" y2="252"/>
    <line x1="352" y1="52" x2="352" y2="552"/>
    <line x1="52" y1="352" x2="552" y2="352"/>
    <line x1="452" y1="52" x2="452" y2="552"/>
    <line x1="52" y1="452" x2="552" y2="452"/>
  </g>
</svg>
