<?xml version="1.0" standalone="no"?>
<!DOCTYPE svg PUBLIC "-//W3C//DTD SVG 1.1//EN" 
  "http://www.w3.org/Graphics/SVG/1.1/DTD/svg11.dtd">
<svg width="510" height="510" version="1.1" id="toplevel"
    xmlns="http://www.w3.org/2000/svg"
    xmlns:xlink="http://www.w3.org/1999/xlink">
  <polygon points="187,346 371,283 367,251 290,164 161,208 171,237 139,288 153,305 165,312 163,317"
           fill="bisque"/>
  <g stroke="chocolate" stroke-width="1">
    <line x1="153" y1="305" x2="146" y2="285"/>
    <circle cx="153" cy="305" r="2"/>
    <circle cx="146" cy="285" r="2"/>
  </g>
  <g stroke="chocolate" stroke-width="1">
    <line x1="235" y1="330" x2="230" y2="321"/>
    <circle cx="235" cy="330" r="2"/>
    <circle cx="230" cy="321" r="2"/>
  </g>
  <g stroke="chocolate" stroke-width="1">
    <line x1="242" y1="327" x2="190" y2="224"/>
    <circle cx="242" cy="327" r="2"/>
    <circle cx="190" cy="224" r="2"/>
  </g>
  <g stroke="chocolate" stroke-width="1">
    <line x1="229" y1="234" x2="208" y2="192"/>
    <circle cx="229" cy="234" r="2"/>
    <circle cx="208" cy="192" r="2"/>
  </g>
  <g stroke="chocolate" stroke-width="1">
    <line x1="206" y1="339" x2="161" y2="208"/>
    <circle cx="206" cy="339" r="2"/>
    <circle cx="161" cy="208" r="2"/>
  </g>
  <g stroke="chocolate" stroke-width="1">
    <line x1="289" y1="250" x2="257" y2="175"/>
    <circle cx="289" cy="250" r="2"/>
    <circle cx="257" cy="175" r="2"/>
  </g>
  <g stroke="chocolate" stroke-width="1">
    <line x1="292" y1="231" x2="277" y2="191"/>
    <circle cx="292" cy="231" r="2"/>
    <circle cx="277" cy="191" r="2"/>
  </g>
  <g stroke="chocolate" stroke-width="1">
    <line x1="305" y1="184" x2="303" y2="179"/>
    <circle cx="305" cy="184" r="2"/>
    <circle cx="303" cy="179" r="2"/>
  </g>
  <g stroke="chocolate" stroke-width="1">
    <line x1="187" y1="346" x2="163" y2="317"/>
    <circle cx="187" cy="346" r="2"/>
    <circle cx="163" cy="317" r="2"/>
  </g>
  <g stroke="chocolate" stroke-width="1">
    <line x1="153" y1="305" x2="139" y2="288"/>
    <circle cx="153" cy="305" r="2"/>
    <circle cx="139" cy="288" r="2"/>
  </g>
  <g stroke="chocolate" stroke-width="1">
    <line x1="371" y1="283" x2="325" y2="204"/>
    <circle cx="371" cy="283" r="2"/>
    <circle cx="325" cy="204" r="2"/>
  </g>
  <g stroke="chocolate" stroke-width="1">
    <line x1="336" y1="295" x2="264" y2="184"/>
    <circle cx="336" cy="295" r="2"/>
    <circle cx="264" cy="184" r="2"/>
  </g>
  <g stroke="chocolate" stroke-width="1">
    <line x1="265" y1="206" x2="257" y2="175"/>
    <circle cx="265" cy="206" r="2"/>
    <circle cx="257" cy="175" r="2"/>
  </g>
  <g stroke="chocolate" stroke-width="1">
    <line x1="242" y1="327" x2="237" y2="302"/>
    <circle cx="242" cy="327" r="2"/>
    <circle cx="237" cy="302" r="2"/>
  </g>
  <g stroke="chocolate" stroke-width="1">
    <line x1="235" y1="330" x2="208" y2="192"/>
    <circle cx="235" cy="330" r="2"/>
    <circle cx="208" cy="192" r="2"/>
  </g>
  <g stroke="chocolate" stroke-width="1">
    <line x1="310" y1="234" x2="302" y2="178"/>
    <circle cx="310" cy="234" r="2"/>
    <circle cx="302" cy="178" r="2"/>
  </g>
  <g stroke="chocolate" stroke-width="1">
    <line x1="371" y1="283" x2="367" y2="251"/>
    <circle cx="371" cy="283" r="2"/>
    <circle cx="367" cy="251" r="2"/>
  </g>
  <g stroke="chocolate" stroke-width="1">
    <line x1="367" y1="251" x2="290" y2="164"/>
    <circle cx="367" cy="251" r="2"/>
    <circle cx="290" cy="164" r="2"/>
  </g>
  <g stroke="chocolate" stroke-width="1">
    <line x1="336" y1="295" x2="328" y2="208"/>
    <circle cx="336" cy="295" r="2"/>
    <circle cx="328" cy="208" r="2"/>
  </g>
  <g stroke="chocolate" stroke-width="1">
    <line x1="188" y1="202" x2="186" y2="200"/>
    <circle cx="188" cy="202" r="2"/>
    <circle cx="186" cy="200" r="2"/>
  </g>
  <g stroke="chocolate" stroke-width="1">
    <line x1="187" y1="346" x2="190" y2="224"/>
    <circle cx="187" cy="346" r="2"/>
    <circle cx="190" cy="224" r="2"/>
  </g>
  <g stroke="chocolate" stroke-width="1">
    <line x1="321" y1="300" x2="187" y2="199"/>
    <circle cx="321" cy="300" r="2"/>
    <circle cx="187" cy="199" r="2"/>
  </g>
  <g stroke="chocolate" stroke-width="1">
    <line x1="208" y1="339" x2="153" y2="305"/>
    <circle cx="208" cy="339" r="2"/>
    <circle cx="153" cy="305" r="2"/>
  </g>
  <g stroke="chocolate" stroke-width="1">
    <line x1="325" y1="204" x2="285" y2="174"/>
    <circle cx="325" cy="204" r="2"/>
    <circle cx="285" cy="174" r="2"/>
  </g>
  <g stroke="chocolate" stroke-width="1">
    <line x1="284" y1="229" x2="215" y2="190"/>
    <circle cx="284" cy="229" r="2"/>
    <circle cx="215" cy="190" r="2"/>
  </g>
  <g stroke="chocolate" stroke-width="1">
    <line x1="292" y1="232" x2="298" y2="201"/>
    <circle cx="292" cy="232" r="2"/>
    <circle cx="298" cy="201" r="2"/>
  </g>
  <g stroke="chocolate" stroke-width="1">
    <line x1="303" y1="179" x2="282" y2="167"/>
    <circle cx="303" cy="179" r="2"/>
    <circle cx="282" cy="167" r="2"/>
  </g>
  <g stroke="chocolate" stroke-width="1">
    <line x1="302" y1="187" x2="304" y2="180"/>
    <circle cx="302" cy="187" r="2"/>
    <circle cx="304" cy="180" r="2"/>
  </g>
  <g stroke="chocolate" stroke-width="1">
    <line x1="305" y1="184" x2="306" y2="182"/>
    <circle cx="305" cy="184" r="2"/>
    <circle cx="306" cy="182" r="2"/>
  </g>
  <g stroke="chocolate" stroke-width="1">
    <line x1="180" y1="221" x2="186" y2="200"/>
    <circle cx="180" cy="221" r="2"/>
    <circle cx="186" cy="200" r="2"/>
  </g>
  <g stroke="chocolate" stroke-width="1">
    <line x1="321" y1="300" x2="343" y2="224"/>
    <circle cx="321" cy="300" r="2"/>
    <circle cx="343" cy="224" r="2"/>
  </g>
  <g stroke="chocolate" stroke-width="1">
    <line x1="180" y1="221" x2="187" y2="199"/>
    <circle cx="180" cy="221" r="2"/>
    <circle cx="187" cy="199" r="2"/>
  </g>
  <g stroke="chocolate" stroke-width="1">
    <line x1="292" y1="232" x2="292" y2="231"/>
    <circle cx="292" cy="232" r="2"/>
    <circle cx="292" cy="231" r="2"/>
  </g>
  <g stroke="chocolate" stroke-width="1">
    <line x1="310" y1="234" x2="208" y2="192"/>
    <circle cx="310" cy="234" r="2"/>
    <circle cx="208" cy="192" r="2"/>
  </g>
  <g stroke="chocolate" stroke-width="1">
    <line x1="284" y1="229" x2="196" y2="196"/>
    <circle cx="284" cy="229" r="2"/>
    <circle cx="196" cy="196" r="2"/>
  </g>
  <g stroke="chocolate" stroke-width="1">
    <line x1="208" y1="339" x2="264" y2="184"/>
    <circle cx="208" cy="339" r="2"/>
    <circle cx="264" cy="184" r="2"/>
  </g>
  <g stroke="chocolate" stroke-width="1">
    <line x1="220" y1="334" x2="202" y2="329"/>
    <circle cx="220" cy="334" r="2"/>
    <circle cx="202" cy="329" r="2"/>
  </g>
  <g stroke="chocolate" stroke-width="1">
    <line x1="265" y1="206" x2="282" y2="167"/>
    <circle cx="265" cy="206" r="2"/>
    <circle cx="282" cy="167" r="2"/>
  </g>
  <g stroke="chocolate" stroke-width="1">
    <line x1="163" y1="317" x2="215" y2="190"/>
    <circle cx="163" cy="317" r="2"/>
    <circle cx="215" cy="190" r="2"/>
  </g>
  <g stroke="chocolate" stroke-width="1">
    <line x1="284" y1="229" x2="305" y2="182"/>
    <circle cx="284" cy="229" r="2"/>
    <circle cx="305" cy="182" r="2"/>
  </g>
  <g stroke="chocolate" stroke-width="1">
    <line x1="289" y1="250" x2="164" y2="217"/>
    <circle cx="289" cy="250" r="2"/>
    <circle cx="164" cy="217" r="2"/>
  </g>
  <g stroke="chocolate" stroke-width="1">
    <line x1="277" y1="191" x2="290" y2="164"/>
    <circle cx="277" cy="191" r="2"/>
    <circle cx="290" cy="164" r="2"/>
  </g>
  <g stroke="chocolate" stroke-width="1">
    <line x1="367" y1="251" x2="292" y2="231"/>
    <circle cx="367" cy="251" r="2"/>
    <circle cx="292" cy="231" r="2"/>
  </g>
  <g stroke="chocolate" stroke-width="1">
    <line x1="302" y1="178" x2="285" y2="174"/>
    <circle cx="302" cy="178" r="2"/>
    <circle cx="285" cy="174" r="2"/>
  </g>
  <g stroke="chocolate" stroke-width="1">
    <line x1="328" y1="208" x2="298" y2="201"/>
    <circle cx="328" cy="208" r="2"/>
    <circle cx="298" cy="201" r="2"/>
  </g>
  <g stroke="chocolate" stroke-width="1">
    <line x1="190" y1="224" x2="208" y2="192"/>
    <circle cx="190" cy="224" r="2"/>
    <circle cx="208" cy="192" r="2"/>
  </g>
  <g stroke="chocolate" stroke-width="1">
    <line x1="230" y1="321" x2="199" y2="318"/>
    <circle cx="230" cy="321" r="2"/>
    <circle cx="199" cy="318" r="2"/>
  </g>
  <g stroke="chocolate" stroke-width="1">
    <line x1="139" y1="288" x2="196" y2="196"/>
    <circle cx="139" cy="288" r="2"/>
    <circle cx="196" cy="196" r="2"/>
  </g>
  <g stroke="chocolate" stroke-width="1">
    <line x1="220" y1="334" x2="230" y2="321"/>
    <circle cx="220" cy="334" r="2"/>
    <circle cx="230" cy="321" r="2"/>
  </g>
  <g stroke="chocolate" stroke-width="1">
    <line x1="202" y1="329" x2="307" y2="184"/>
    <circle cx="202" cy="329" r="2"/>
    <circle cx="307" cy="184" r="2"/>
  </g>
  <g stroke="chocolate" stroke-width="1">
    <line x1="265" y1="206" x2="182" y2="201"/>
    <circle cx="265" cy="206" r="2"/>
    <circle cx="182" cy="201" r="2"/>
  </g>
  <g stroke="chocolate" stroke-width="1">
    <line x1="305" y1="184" x2="306" y2="183"/>
    <circle cx="305" cy="184" r="2"/>
    <circle cx="306" cy="183" r="2"/>
  </g>
  <g stroke="chocolate" stroke-width="1">
    <line x1="199" y1="318" x2="324" y2="203"/>
    <circle cx="199" cy="318" r="2"/>
    <circle cx="324" cy="203" r="2"/>
  </g>
  <g stroke="chocolate" stroke-width="1">
    <line x1="163" y1="317" x2="237" y2="302"/>
    <circle cx="163" cy="317" r="2"/>
    <circle cx="237" cy="302" r="2"/>
  </g>
  <g stroke="chocolate" stroke-width="1">
    <line x1="292" y1="231" x2="324" y2="203"/>
    <circle cx="292" cy="231" r="2"/>
    <circle cx="324" cy="203" r="2"/>
  </g>
  <g stroke="chocolate" stroke-width="1">
    <line x1="292" y1="231" x2="343" y2="224"/>
    <circle cx="292" cy="231" r="2"/>
    <circle cx="343" cy="224" r="2"/>
  </g>
  <g stroke="chocolate" stroke-width="1">
    <line x1="264" y1="184" x2="304" y2="180"/>
    <circle cx="264" cy="184" r="2"/>
    <circle cx="304" cy="180" r="2"/>
  </g>
  <g stroke="chocolate" stroke-width="1">
    <line x1="199" y1="195" x2="306" y2="182"/>
    <circle cx="199" cy="195" r="2"/>
    <circle cx="306" cy="182" r="2"/>
  </g>
  <g stroke="chocolate" stroke-width="1">
    <line x1="289" y1="250" x2="310" y2="234"/>
    <circle cx="289" cy="250" r="2"/>
    <circle cx="310" cy="234" r="2"/>
  </g>
  <g stroke="chocolate" stroke-width="1">
    <line x1="187" y1="346" x2="371" y2="283"/>
    <circle cx="187" cy="346" r="2"/>
    <circle cx="371" cy="283" r="2"/>
  </g>
  <g stroke="chocolate" stroke-width="1">
    <line x1="164" y1="217" x2="182" y2="201"/>
    <circle cx="164" cy="217" r="2"/>
    <circle cx="182" cy="201" r="2"/>
  </g>
  <g stroke="chocolate" stroke-width="1">
    <line x1="229" y1="234" x2="306" y2="183"/>
    <circle cx="229" cy="234" r="2"/>
    <circle cx="306" cy="183" r="2"/>
  </g>
  <g stroke="chocolate" stroke-width="1">
    <line x1="139" y1="288" x2="146" y2="285"/>
    <circle cx="139" cy="288" r="2"/>
    <circle cx="146" cy="285" r="2"/>
  </g>
  <g stroke="chocolate" stroke-width="1">
    <line x1="277" y1="191" x2="305" y2="182"/>
    <circle cx="277" cy="191" r="2"/>
    <circle cx="305" cy="182" r="2"/>
  </g>
  <g stroke="chocolate" stroke-width="1">
    <line x1="302" y1="187" x2="307" y2="184"/>
    <circle cx="302" cy="187" r="2"/>
    <circle cx="307" cy="184" r="2"/>
  </g>
  <g stroke="chocolate" stroke-width="1">
    <line x1="161" y1="208" x2="290" y2="164"/>
    <circle cx="161" cy="208" r="2"/>
    <circle cx="290" cy="164" r="2"/>
  </g>
  <g stroke="chocolate" stroke-width="1">
    <line x1="188" y1="202" x2="199" y2="195"/>
    <circle cx="188" cy="202" r="2"/>
    <circle cx="199" cy="195" r="2"/>
  </g>
  <g stroke="black" stroke-width="1">
    <line x1="5" y1="5" x2="505" y2="5"/>
    <line x1="5" y1="5" x2="5" y2="505"/>
    <line x1="505" y1="505" x2="5" y2="505"/>
    <line x1="505" y1="505" x2="505" y2="5"/>
    <line x1="105" y1="2" x2="105" y2="8"/>
    <line x1="2" y1="105" x2="8" y2="105"/>
    <line x1="105" y1="502" x2="105" y2="508"/>
    <line x1="502" y1="105" x2="508" y2="105"/>
    <line x1="205" y1="2" x2="205" y2="8"/>
    <line x1="2" y1="205" x2="8" y2="205"/>
    <line x1="205" y1="502" x2="205" y2="508"/>
    <line x1="502" y1="205" x2="508" y2="205"/>
    <line x1="305" y1="2" x2="305" y2="8"/>
    <line x1="2" y1="305" x2="8" y2="305"/>
    <line x1="305" y1="502" x2="305" y2="508"/>
    <line x1="502" y1="305" x2="508" y2="305"/>
    <line x1="405" y1="2" x2="405" y2="8"/>
    <line x1="2" y1="405" x2="8" y2="405"/>
    <line x1="405" y1="502" x2="405" y2="508"/>
    <line x1="502" y1="405" x2="508" y2="405"/>
  </g>
  <g stroke="gray" stroke-width="1" stroke-dasharray="5,5">
    <line x1="105" y1="5" x2="105" y2="505"/>
    <line x1="5" y1="105" x2="505" y2="105"/>
    <line x1="205" y1="5" x2="205" y2="505"/>
    <line x1="5" y1="205" x2="505" y2="205"/>
    <line x1="305" y1="5" x2="305" y2="505"/>
    <line x1="5" y1="305" x2="505" y2="305"/>
    <line x1="405" y1="5" x2="405" y2="505"/>
    <line x1="5" y1="405" x2="505" y2="405"/>
  </g>
</svg>
