<?xml version="1.0" standalone="no"?>
<!DOCTYPE svg PUBLIC "-//W3C//DTD SVG 1.1//EN" 
  "http://www.w3.org/Graphics/SVG/1.1/DTD/svg11.dtd">
<svg width="510" height="510" version="1.1" id="toplevel"
    xmlns="http://www.w3.org/2000/svg"
    xmlns:xlink="http://www.w3.org/1999/xlink">
  <polygon points="250,322 250,320 257,320 257,318 266,318 266,189 134,188 132,320"
           fill="bisque"/>
  <g stroke="chocolate" stroke-width="1">
    <line x1="260" y1="315" x2="263" y2="189"/>
    <circle cx="260" cy="315" r="2"/>
    <circle cx="263" cy="189" r="2"/>
  </g>
  <g stroke="chocolate" stroke-width="1">
    <line x1="257" y1="320" x2="132" y2="320"/>
    <circle cx="257" cy="320" r="2"/>
    <circle cx="132" cy="320" r="2"/>
  </g>
  <g stroke="chocolate" stroke-width="1">
    <line x1="256" y1="315" x2="259" y2="190"/>
    <circle cx="256" cy="315" r="2"/>
    <circle cx="259" cy="190" r="2"/>
  </g>
  <g stroke="chocolate" stroke-width="1">
    <line x1="266" y1="318" x2="132" y2="317"/>
    <circle cx="266" cy="318" r="2"/>
    <circle cx="132" cy="317" r="2"/>
  </g>
  <g stroke="chocolate" stroke-width="1">
    <line x1="250" y1="322" x2="132" y2="320"/>
    <circle cx="250" cy="322" r="2"/>
    <circle cx="132" cy="320" r="2"/>
  </g>
  <g stroke="chocolate" stroke-width="1">
    <line x1="250" y1="322" x2="253" y2="189"/>
    <circle cx="250" cy="322" r="2"/>
    <circle cx="253" cy="189" r="2"/>
  </g>
  <g stroke="chocolate" stroke-width="1">
    <line x1="254" y1="313" x2="256" y2="189"/>
    <circle cx="254" cy="313" r="2"/>
    <circle cx="256" cy="189" r="2"/>
  </g>
  <g stroke="chocolate" stroke-width="1">
    <line x1="257" y1="320" x2="259" y2="190"/>
    <circle cx="257" cy="320" r="2"/>
    <circle cx="259" cy="190" r="2"/>
  </g>
  <g stroke="chocolate" stroke-width="1">
    <line x1="264" y1="311" x2="266" y2="189"/>
    <circle cx="264" cy="311" r="2"/>
    <circle cx="266" cy="189" r="2"/>
  </g>
  <g stroke="chocolate" stroke-width="1">
    <line x1="257" y1="320" x2="132" y2="317"/>
    <circle cx="257" cy="320" r="2"/>
    <circle cx="132" cy="317" r="2"/>
  </g>
  <g stroke="chocolate" stroke-width="1">
    <line x1="132" y1="320" x2="134" y2="188"/>
    <circle cx="132" cy="320" r="2"/>
    <circle cx="134" cy="188" r="2"/>
  </g>
  <g stroke="chocolate" stroke-width="1">
    <line x1="266" y1="318" x2="266" y2="189"/>
    <circle cx="266" cy="318" r="2"/>
    <circle cx="266" cy="189" r="2"/>
  </g>
  <g stroke="chocolate" stroke-width="1">
    <line x1="132" y1="312" x2="257" y2="312"/>
    <circle cx="132" cy="312" r="2"/>
    <circle cx="257" cy="312" r="2"/>
  </g>
  <g stroke="chocolate" stroke-width="1">
    <line x1="132" y1="311" x2="264" y2="311"/>
    <circle cx="132" cy="311" r="2"/>
    <circle cx="264" cy="311" r="2"/>
  </g>
  <g stroke="chocolate" stroke-width="1">
    <line x1="254" y1="313" x2="132" y2="312"/>
    <circle cx="254" cy="313" r="2"/>
    <circle cx="132" cy="312" r="2"/>
  </g>
  <g stroke="chocolate" stroke-width="1">
    <line x1="256" y1="308" x2="256" y2="189"/>
    <circle cx="256" cy="308" r="2"/>
    <circle cx="256" cy="189" r="2"/>
  </g>
  <g stroke="chocolate" stroke-width="1">
    <line x1="254" y1="313" x2="253" y2="189"/>
    <circle cx="254" cy="313" r="2"/>
    <circle cx="253" cy="189" r="2"/>
  </g>
  <g stroke="chocolate" stroke-width="1">
    <line x1="256" y1="315" x2="132" y2="312"/>
    <circle cx="256" cy="315" r="2"/>
    <circle cx="132" cy="312" r="2"/>
  </g>
  <g stroke="chocolate" stroke-width="1">
    <line x1="264" y1="311" x2="263" y2="189"/>
    <circle cx="264" cy="311" r="2"/>
    <circle cx="263" cy="189" r="2"/>
  </g>
  <g stroke="chocolate" stroke-width="1">
    <line x1="132" y1="308" x2="256" y2="308"/>
    <circle cx="132" cy="308" r="2"/>
    <circle cx="256" cy="308" r="2"/>
  </g>
  <g stroke="chocolate" stroke-width="1">
    <line x1="260" y1="315" x2="132" y2="312"/>
    <circle cx="260" cy="315" r="2"/>
    <circle cx="132" cy="312" r="2"/>
  </g>
  <g stroke="chocolate" stroke-width="1">
    <line x1="256" y1="315" x2="132" y2="311"/>
    <circle cx="256" cy="315" r="2"/>
    <circle cx="132" cy="311" r="2"/>
  </g>
  <g stroke="chocolate" stroke-width="1">
    <line x1="257" y1="312" x2="132" y2="308"/>
    <circle cx="257" cy="312" r="2"/>
    <circle cx="132" cy="308" r="2"/>
  </g>
  <g stroke="chocolate" stroke-width="1">
    <line x1="266" y1="189" x2="134" y2="188"/>
    <circle cx="266" cy="189" r="2"/>
    <circle cx="134" cy="188" r="2"/>
  </g>
  <g stroke="chocolate" stroke-width="1">
    <line x1="259" y1="190" x2="134" y2="188"/>
    <circle cx="259" cy="190" r="2"/>
    <circle cx="134" cy="188" r="2"/>
  </g>
  <g stroke="black" stroke-width="1">
    <line x1="5" y1="5" x2="505" y2="5"/>
    <line x1="5" y1="5" x2="5" y2="505"/>
    <line x1="505" y1="505" x2="5" y2="505"/>
    <line x1="505" y1="505" x2="505" y2="5"/>
    <line x1="105" y1="2" x2="105" y2="8"/>
    <line x1="2" y1="105" x2="8" y2="105"/>
    <line x1="105" y1="502" x2="105" y2="508"/>
    <line x1="502" y1="105" x2="508" y2="105"/>
    <line x1="205" y1="2" x2="205" y2="8"/>
    <line x1="2" y1="205" x2="8" y2="205"/>
    <line x1="205" y1="502" x2="205" y2="508"/>
    <line x1="502" y1="205" x2="508" y2="205"/>
    <line x1="305" y1="2" x2="305" y2="8"/>
    <line x1="2" y1="305" x2="8" y2="305"/>
    <line x1="305" y1="502" x2="305" y2="508"/>
    <line x1="502" y1="305" x2="508" y2="305"/>
    <line x1="405" y1="2" x2="405" y2="8"/>
    <line x1="2" y1="405" x2="8" y2="405"/>
    <line x1="405" y1="502" x2="405" y2="508"/>
    <line x1="502" y1="405" x2="508" y2="405"/>
  </g>
  <g stroke="gray" stroke-width="1" stroke-dasharray="5,5">
    <line x1="105" y1="5" x2="105" y2="505"/>
    <line x1="5" y1="105" x2="505" y2="105"/>
    <line x1="205" y1="5" x2="205" y2="505"/>
    <line x1="5" y1="205" x2="505" y2="205"/>
    <line x1="305" y1="5" x2="305" y2="505"/>
    <line x1="5" y1="305" x2="505" y2="305"/>
    <line x1="405" y1="5" x2="405" y2="505"/>
    <line x1="5" y1="405" x2="505" y2="405"/>
  </g>
</svg>
