<?xml version="1.0" standalone="no"?>
<!DOCTYPE svg PUBLIC "-//W3C//DTD SVG 1.1//EN" 
  "http://www.w3.org/Graphics/SVG/1.1/DTD/svg11.dtd">
<svg width="510" height="510" version="1.1" id="toplevel"
    xmlns="http://www.w3.org/2000/svg"
    xmlns:xlink="http://www.w3.org/1999/xlink">
  <polygon points="296,405 304,390 304,391 304,395 307,395 389,226 412,209 405,200 402,199 402,199 211,102 105,313 203,365 206,362"
           fill="bisque"/>
  <g stroke="chocolate" stroke-width="1">
    <line x1="307" y1="395" x2="402" y2="199"/>
    <circle cx="307" cy="395" r="2"/>
    <circle cx="402" cy="199" r="2"/>
  </g>
  <g stroke="chocolate" stroke-width="1">
    <line x1="296" y1="405" x2="402" y2="199"/>
    <circle cx="296" cy="405" r="2"/>
    <circle cx="402" cy="199" r="2"/>
  </g>
  <g stroke="chocolate" stroke-width="1">
    <line x1="203" y1="365" x2="211" y2="125"/>
    <circle cx="203" cy="365" r="2"/>
    <circle cx="211" cy="125" r="2"/>
  </g>
  <g stroke="chocolate" stroke-width="1">
    <line x1="203" y1="365" x2="412" y2="209"/>
    <circle cx="203" cy="365" r="2"/>
    <circle cx="412" cy="209" r="2"/>
  </g>
  <g stroke="chocolate" stroke-width="1">
    <line x1="105" y1="313" x2="211" y2="102"/>
    <circle cx="105" cy="313" r="2"/>
    <circle cx="211" cy="102" r="2"/>
  </g>
  <g stroke="chocolate" stroke-width="1">
    <line x1="128" y1="310" x2="127" y2="269"/>
    <circle cx="128" cy="310" r="2"/>
    <circle cx="127" cy="269" r="2"/>
  </g>
  <g stroke="chocolate" stroke-width="1">
    <line x1="304" y1="395" x2="299" y2="147"/>
    <circle cx="304" cy="395" r="2"/>
    <circle cx="299" cy="147" r="2"/>
  </g>
  <g stroke="chocolate" stroke-width="1">
    <line x1="127" y1="269" x2="299" y2="147"/>
    <circle cx="127" cy="269" r="2"/>
    <circle cx="299" cy="147" r="2"/>
  </g>
  <g stroke="chocolate" stroke-width="1">
    <line x1="304" y1="395" x2="307" y2="395"/>
    <circle cx="304" cy="395" r="2"/>
    <circle cx="307" cy="395" r="2"/>
  </g>
  <g stroke="chocolate" stroke-width="1">
    <line x1="127" y1="310" x2="114" y2="295"/>
    <circle cx="127" cy="310" r="2"/>
    <circle cx="114" cy="295" r="2"/>
  </g>
  <g stroke="chocolate" stroke-width="1">
    <line x1="307" y1="395" x2="162" y2="200"/>
    <circle cx="307" cy="395" r="2"/>
    <circle cx="162" cy="200" r="2"/>
  </g>
  <g stroke="chocolate" stroke-width="1">
    <line x1="203" y1="365" x2="105" y2="313"/>
    <circle cx="203" cy="365" r="2"/>
    <circle cx="105" cy="313" r="2"/>
  </g>
  <g stroke="chocolate" stroke-width="1">
    <line x1="127" y1="310" x2="128" y2="310"/>
    <circle cx="127" cy="310" r="2"/>
    <circle cx="128" cy="310" r="2"/>
  </g>
  <g stroke="chocolate" stroke-width="1">
    <line x1="296" y1="405" x2="105" y2="313"/>
    <circle cx="296" cy="405" r="2"/>
    <circle cx="105" cy="313" r="2"/>
  </g>
  <g stroke="chocolate" stroke-width="1">
    <line x1="296" y1="405" x2="110" y2="302"/>
    <circle cx="296" cy="405" r="2"/>
    <circle cx="110" cy="302" r="2"/>
  </g>
  <g stroke="chocolate" stroke-width="1">
    <line x1="127" y1="310" x2="110" y2="302"/>
    <circle cx="127" cy="310" r="2"/>
    <circle cx="110" cy="302" r="2"/>
  </g>
  <g stroke="chocolate" stroke-width="1">
    <line x1="346" y1="308" x2="114" y2="295"/>
    <circle cx="346" cy="308" r="2"/>
    <circle cx="114" cy="295" r="2"/>
  </g>
  <g stroke="chocolate" stroke-width="1">
    <line x1="346" y1="308" x2="200" y2="125"/>
    <circle cx="346" cy="308" r="2"/>
    <circle cx="200" cy="125" r="2"/>
  </g>
  <g stroke="chocolate" stroke-width="1">
    <line x1="412" y1="209" x2="405" y2="200"/>
    <circle cx="412" cy="209" r="2"/>
    <circle cx="405" cy="200" r="2"/>
  </g>
  <g stroke="chocolate" stroke-width="1">
    <line x1="405" y1="200" x2="162" y2="200"/>
    <circle cx="405" cy="200" r="2"/>
    <circle cx="162" cy="200" r="2"/>
  </g>
  <g stroke="chocolate" stroke-width="1">
    <line x1="211" y1="125" x2="200" y2="125"/>
    <circle cx="211" cy="125" r="2"/>
    <circle cx="200" cy="125" r="2"/>
  </g>
  <g stroke="chocolate" stroke-width="1">
    <line x1="405" y1="200" x2="211" y2="102"/>
    <circle cx="405" cy="200" r="2"/>
    <circle cx="211" cy="102" r="2"/>
  </g>
  <g stroke="chocolate" stroke-width="1">
    <line x1="402" y1="199" x2="211" y2="102"/>
    <circle cx="402" cy="199" r="2"/>
    <circle cx="211" cy="102" r="2"/>
  </g>
  <g stroke="black" stroke-width="1">
    <line x1="5" y1="5" x2="505" y2="5"/>
    <line x1="5" y1="5" x2="5" y2="505"/>
    <line x1="505" y1="505" x2="5" y2="505"/>
    <line x1="505" y1="505" x2="505" y2="5"/>
    <line x1="105" y1="2" x2="105" y2="8"/>
    <line x1="2" y1="105" x2="8" y2="105"/>
    <line x1="105" y1="502" x2="105" y2="508"/>
    <line x1="502" y1="105" x2="508" y2="105"/>
    <line x1="205" y1="2" x2="205" y2="8"/>
    <line x1="2" y1="205" x2="8" y2="205"/>
    <line x1="205" y1="502" x2="205" y2="508"/>
    <line x1="502" y1="205" x2="508" y2="205"/>
    <line x1="305" y1="2" x2="305" y2="8"/>
    <line x1="2" y1="305" x2="8" y2="305"/>
    <line x1="305" y1="502" x2="305" y2="508"/>
    <line x1="502" y1="305" x2="508" y2="305"/>
    <line x1="405" y1="2" x2="405" y2="8"/>
    <line x1="2" y1="405" x2="8" y2="405"/>
    <line x1="405" y1="502" x2="405" y2="508"/>
    <line x1="502" y1="405" x2="508" y2="405"/>
  </g>
  <g stroke="gray" stroke-width="1" stroke-dasharray="5,5">
    <line x1="105" y1="5" x2="105" y2="505"/>
    <line x1="5" y1="105" x2="505" y2="105"/>
    <line x1="205" y1="5" x2="205" y2="505"/>
    <line x1="5" y1="205" x2="505" y2="205"/>
    <line x1="305" y1="5" x2="305" y2="505"/>
    <line x1="5" y1="305" x2="505" y2="305"/>
    <line x1="405" y1="5" x2="405" y2="505"/>
    <line x1="5" y1="405" x2="505" y2="405"/>
  </g>
</svg>
