<?xml version="1.0" standalone="no"?>
<!DOCTYPE svg PUBLIC "-//W3C//DTD SVG 1.1//EN" 
  "http://www.w3.org/Graphics/SVG/1.1/DTD/svg11.dtd">
<svg width="510" height="510" version="1.1" id="toplevel"
    xmlns="http://www.w3.org/2000/svg"
    xmlns:xlink="http://www.w3.org/1999/xlink">
  <polygon points="393,406 433,158 120,104 99,225 98,225 77,352 217,376 216,379"
           fill="bisque"/>
  <g stroke="chocolate" stroke-width="1">
    <line x1="393" y1="406" x2="216" y2="379"/>
    <circle cx="393" cy="406" r="2"/>
    <circle cx="216" cy="379" r="2"/>
  </g>
  <g stroke="chocolate" stroke-width="1">
    <line x1="393" y1="406" x2="77" y2="352"/>
    <circle cx="393" cy="406" r="2"/>
    <circle cx="77" cy="352" r="2"/>
  </g>
  <g stroke="chocolate" stroke-width="1">
    <line x1="414" y1="277" x2="237" y2="249"/>
    <circle cx="414" cy="277" r="2"/>
    <circle cx="237" cy="249" r="2"/>
  </g>
  <g stroke="chocolate" stroke-width="1">
    <line x1="414" y1="277" x2="98" y2="225"/>
    <circle cx="414" cy="277" r="2"/>
    <circle cx="98" cy="225" r="2"/>
  </g>
  <g stroke="chocolate" stroke-width="1">
    <line x1="415" y1="274" x2="235" y2="246"/>
    <circle cx="415" cy="274" r="2"/>
    <circle cx="235" cy="246" r="2"/>
  </g>
  <g stroke="chocolate" stroke-width="1">
    <line x1="415" y1="274" x2="101" y2="221"/>
    <circle cx="415" cy="274" r="2"/>
    <circle cx="101" cy="221" r="2"/>
  </g>
  <g stroke="chocolate" stroke-width="1">
    <line x1="393" y1="406" x2="433" y2="158"/>
    <circle cx="393" cy="406" r="2"/>
    <circle cx="433" cy="158" r="2"/>
  </g>
  <g stroke="chocolate" stroke-width="1">
    <line x1="216" y1="379" x2="237" y2="249"/>
    <circle cx="216" cy="379" r="2"/>
    <circle cx="237" cy="249" r="2"/>
  </g>
  <g stroke="chocolate" stroke-width="1">
    <line x1="216" y1="379" x2="253" y2="131"/>
    <circle cx="216" cy="379" r="2"/>
    <circle cx="253" cy="131" r="2"/>
  </g>
  <g stroke="chocolate" stroke-width="1">
    <line x1="235" y1="246" x2="253" y2="131"/>
    <circle cx="235" cy="246" r="2"/>
    <circle cx="253" cy="131" r="2"/>
  </g>
  <g stroke="chocolate" stroke-width="1">
    <line x1="433" y1="158" x2="253" y2="131"/>
    <circle cx="433" cy="158" r="2"/>
    <circle cx="253" cy="131" r="2"/>
  </g>
  <g stroke="chocolate" stroke-width="1">
    <line x1="433" y1="158" x2="120" y2="104"/>
    <circle cx="433" cy="158" r="2"/>
    <circle cx="120" cy="104" r="2"/>
  </g>
  <g stroke="chocolate" stroke-width="1">
    <line x1="101" y1="221" x2="120" y2="104"/>
    <circle cx="101" cy="221" r="2"/>
    <circle cx="120" cy="104" r="2"/>
  </g>
  <g stroke="chocolate" stroke-width="1">
    <line x1="77" y1="352" x2="98" y2="225"/>
    <circle cx="77" cy="352" r="2"/>
    <circle cx="98" cy="225" r="2"/>
  </g>
  <g stroke="chocolate" stroke-width="1">
    <line x1="77" y1="352" x2="120" y2="104"/>
    <circle cx="77" cy="352" r="2"/>
    <circle cx="120" cy="104" r="2"/>
  </g>
  <g stroke="black" stroke-width="1">
    <line x1="5" y1="5" x2="505" y2="5"/>
    <line x1="5" y1="5" x2="5" y2="505"/>
    <line x1="505" y1="505" x2="5" y2="505"/>
    <line x1="505" y1="505" x2="505" y2="5"/>
    <line x1="105" y1="2" x2="105" y2="8"/>
    <line x1="2" y1="105" x2="8" y2="105"/>
    <line x1="105" y1="502" x2="105" y2="508"/>
    <line x1="502" y1="105" x2="508" y2="105"/>
    <line x1="205" y1="2" x2="205" y2="8"/>
    <line x1="2" y1="205" x2="8" y2="205"/>
    <line x1="205" y1="502" x2="205" y2="508"/>
    <line x1="502" y1="205" x2="508" y2="205"/>
    <line x1="305" y1="2" x2="305" y2="8"/>
    <line x1="2" y1="305" x2="8" y2="305"/>
    <line x1="305" y1="502" x2="305" y2="508"/>
    <line x1="502" y1="305" x2="508" y2="305"/>
    <line x1="405" y1="2" x2="405" y2="8"/>
    <line x1="2" y1="405" x2="8" y2="405"/>
    <line x1="405" y1="502" x2="405" y2="508"/>
    <line x1="502" y1="405" x2="508" y2="405"/>
  </g>
  <g stroke="gray" stroke-width="1" stroke-dasharray="5,5">
    <line x1="105" y1="5" x2="105" y2="505"/>
    <line x1="5" y1="105" x2="505" y2="105"/>
    <line x1="205" y1="5" x2="205" y2="505"/>
    <line x1="5" y1="205" x2="505" y2="205"/>
    <line x1="305" y1="5" x2="305" y2="505"/>
    <line x1="5" y1="305" x2="505" y2="305"/>
    <line x1="405" y1="5" x2="405" y2="505"/>
    <line x1="5" y1="405" x2="505" y2="405"/>
  </g>
</svg>
