<?xml version="1.0" standalone="no"?>
<!DOCTYPE svg PUBLIC "-//W3C//DTD SVG 1.1//EN" 
  "http://www.w3.org/Graphics/SVG/1.1/DTD/svg11.dtd">
<svg width="716" height="716" version="1.1" id="toplevel"
    xmlns="http://www.w3.org/2000/svg"
    xmlns:xlink="http://www.w3.org/1999/xlink">
  <polygon points="505,409 509,388 551,391 554,385 658,391 662,387 692,389 711,370 695,353 662,353 645,333 615,334 595,307 5,353"
           fill="bisque"/>
  <g stroke="chocolate" stroke-width="1">
    <line x1="580" y1="355" x2="602" y2="316"/>
    <circle cx="580" cy="355" r="2"/>
    <circle cx="602" cy="316" r="2"/>
  </g>
  <g stroke="chocolate" stroke-width="1">
    <line x1="551" y1="391" x2="595" y2="307"/>
    <circle cx="551" cy="391" r="2"/>
    <circle cx="595" cy="307" r="2"/>
  </g>
  <g stroke="chocolate" stroke-width="1">
    <line x1="542" y1="391" x2="569" y2="336"/>
    <circle cx="542" cy="391" r="2"/>
    <circle cx="569" cy="336" r="2"/>
  </g>
  <g stroke="chocolate" stroke-width="1">
    <line x1="630" y1="353" x2="645" y2="333"/>
    <circle cx="630" cy="353" r="2"/>
    <circle cx="645" cy="333" r="2"/>
  </g>
  <g stroke="chocolate" stroke-width="1">
    <line x1="658" y1="391" x2="695" y2="353"/>
    <circle cx="658" cy="391" r="2"/>
    <circle cx="695" cy="353" r="2"/>
  </g>
  <g stroke="chocolate" stroke-width="1">
    <line x1="525" y1="353" x2="530" y2="336"/>
    <circle cx="525" cy="353" r="2"/>
    <circle cx="530" cy="336" r="2"/>
  </g>
  <g stroke="chocolate" stroke-width="1">
    <line x1="692" y1="389" x2="711" y2="370"/>
    <circle cx="692" cy="389" r="2"/>
    <circle cx="711" cy="370" r="2"/>
  </g>
  <g stroke="chocolate" stroke-width="1">
    <line x1="520" y1="355" x2="525" y2="336"/>
    <circle cx="520" cy="355" r="2"/>
    <circle cx="525" cy="336" r="2"/>
  </g>
  <g stroke="chocolate" stroke-width="1">
    <line x1="505" y1="409" x2="521" y2="337"/>
    <circle cx="505" cy="409" r="2"/>
    <circle cx="521" cy="337" r="2"/>
  </g>
  <g stroke="chocolate" stroke-width="1">
    <line x1="505" y1="405" x2="516" y2="349"/>
    <circle cx="505" cy="405" r="2"/>
    <circle cx="516" cy="349" r="2"/>
  </g>
  <g stroke="chocolate" stroke-width="1">
    <line x1="505" y1="409" x2="505" y2="353"/>
    <circle cx="505" cy="409" r="2"/>
    <circle cx="505" cy="353" r="2"/>
  </g>
  <g stroke="chocolate" stroke-width="1">
    <line x1="517" y1="353" x2="516" y2="349"/>
    <circle cx="517" cy="353" r="2"/>
    <circle cx="516" cy="349" r="2"/>
  </g>
  <g stroke="chocolate" stroke-width="1">
    <line x1="520" y1="355" x2="518" y2="348"/>
    <circle cx="520" cy="355" r="2"/>
    <circle cx="518" cy="348" r="2"/>
  </g>
  <g stroke="chocolate" stroke-width="1">
    <line x1="525" y1="353" x2="521" y2="337"/>
    <circle cx="525" cy="353" r="2"/>
    <circle cx="521" cy="337" r="2"/>
  </g>
  <g stroke="chocolate" stroke-width="1">
    <line x1="542" y1="391" x2="525" y2="336"/>
    <circle cx="542" cy="391" r="2"/>
    <circle cx="525" cy="336" r="2"/>
  </g>
  <g stroke="chocolate" stroke-width="1">
    <line x1="551" y1="391" x2="530" y2="336"/>
    <circle cx="551" cy="391" r="2"/>
    <circle cx="530" cy="336" r="2"/>
  </g>
  <g stroke="chocolate" stroke-width="1">
    <line x1="580" y1="355" x2="569" y2="336"/>
    <circle cx="580" cy="355" r="2"/>
    <circle cx="569" cy="336" r="2"/>
  </g>
  <g stroke="chocolate" stroke-width="1">
    <line x1="658" y1="391" x2="595" y2="307"/>
    <circle cx="658" cy="391" r="2"/>
    <circle cx="595" cy="307" r="2"/>
  </g>
  <g stroke="chocolate" stroke-width="1">
    <line x1="505" y1="409" x2="5" y2="353"/>
    <circle cx="505" cy="409" r="2"/>
    <circle cx="5" cy="353" r="2"/>
  </g>
  <g stroke="chocolate" stroke-width="1">
    <line x1="505" y1="405" x2="5" y2="353"/>
    <circle cx="505" cy="405" r="2"/>
    <circle cx="5" cy="353" r="2"/>
  </g>
  <g stroke="chocolate" stroke-width="1">
    <line x1="5" y1="353" x2="595" y2="307"/>
    <circle cx="5" cy="353" r="2"/>
    <circle cx="595" cy="307" r="2"/>
  </g>
  <g stroke="chocolate" stroke-width="1">
    <line x1="551" y1="391" x2="5" y2="353"/>
    <circle cx="551" cy="391" r="2"/>
    <circle cx="5" cy="353" r="2"/>
  </g>
  <g stroke="chocolate" stroke-width="1">
    <line x1="542" y1="391" x2="5" y2="353"/>
    <circle cx="542" cy="391" r="2"/>
    <circle cx="5" cy="353" r="2"/>
  </g>
  <g stroke="chocolate" stroke-width="1">
    <line x1="5" y1="353" x2="602" y2="316"/>
    <circle cx="5" cy="353" r="2"/>
    <circle cx="602" cy="316" r="2"/>
  </g>
  <g stroke="chocolate" stroke-width="1">
    <line x1="658" y1="391" x2="5" y2="353"/>
    <circle cx="658" cy="391" r="2"/>
    <circle cx="5" cy="353" r="2"/>
  </g>
  <g stroke="chocolate" stroke-width="1">
    <line x1="692" y1="389" x2="5" y2="353"/>
    <circle cx="692" cy="389" r="2"/>
    <circle cx="5" cy="353" r="2"/>
  </g>
  <g stroke="chocolate" stroke-width="1">
    <line x1="5" y1="353" x2="530" y2="336"/>
    <circle cx="5" cy="353" r="2"/>
    <circle cx="530" cy="336" r="2"/>
  </g>
  <g stroke="chocolate" stroke-width="1">
    <line x1="5" y1="353" x2="525" y2="336"/>
    <circle cx="5" cy="353" r="2"/>
    <circle cx="525" cy="336" r="2"/>
  </g>
  <g stroke="chocolate" stroke-width="1">
    <line x1="5" y1="353" x2="645" y2="333"/>
    <circle cx="5" cy="353" r="2"/>
    <circle cx="645" cy="333" r="2"/>
  </g>
  <g stroke="chocolate" stroke-width="1">
    <line x1="5" y1="353" x2="569" y2="336"/>
    <circle cx="5" cy="353" r="2"/>
    <circle cx="569" cy="336" r="2"/>
  </g>
  <g stroke="chocolate" stroke-width="1">
    <line x1="5" y1="353" x2="518" y2="348"/>
    <circle cx="5" cy="353" r="2"/>
    <circle cx="518" cy="348" r="2"/>
  </g>
  <g stroke="chocolate" stroke-width="1">
    <line x1="5" y1="353" x2="516" y2="349"/>
    <circle cx="5" cy="353" r="2"/>
    <circle cx="516" cy="349" r="2"/>
  </g>
  <g stroke="chocolate" stroke-width="1">
    <line x1="520" y1="355" x2="5" y2="353"/>
    <circle cx="520" cy="355" r="2"/>
    <circle cx="5" cy="353" r="2"/>
  </g>
  <g stroke="chocolate" stroke-width="1">
    <line x1="580" y1="355" x2="5" y2="353"/>
    <circle cx="580" cy="355" r="2"/>
    <circle cx="5" cy="353" r="2"/>
  </g>
  <g stroke="chocolate" stroke-width="1">
    <line x1="5" y1="353" x2="695" y2="353"/>
    <circle cx="5" cy="353" r="2"/>
    <circle cx="695" cy="353" r="2"/>
  </g>
  <g stroke="chocolate" stroke-width="1">
    <line x1="692" y1="389" x2="645" y2="333"/>
    <circle cx="692" cy="389" r="2"/>
    <circle cx="645" cy="333" r="2"/>
  </g>
  <g stroke="chocolate" stroke-width="1">
    <line x1="711" y1="370" x2="695" y2="353"/>
    <circle cx="711" cy="370" r="2"/>
    <circle cx="695" cy="353" r="2"/>
  </g>
  <g stroke="black" stroke-width="1">
    <line x1="108" y1="108" x2="608" y2="108"/>
    <line x1="108" y1="108" x2="108" y2="608"/>
    <line x1="608" y1="608" x2="108" y2="608"/>
    <line x1="608" y1="608" x2="608" y2="108"/>
    <line x1="208" y1="105" x2="208" y2="111"/>
    <line x1="105" y1="208" x2="111" y2="208"/>
    <line x1="208" y1="605" x2="208" y2="611"/>
    <line x1="605" y1="208" x2="611" y2="208"/>
    <line x1="308" y1="105" x2="308" y2="111"/>
    <line x1="105" y1="308" x2="111" y2="308"/>
    <line x1="308" y1="605" x2="308" y2="611"/>
    <line x1="605" y1="308" x2="611" y2="308"/>
    <line x1="408" y1="105" x2="408" y2="111"/>
    <line x1="105" y1="408" x2="111" y2="408"/>
    <line x1="408" y1="605" x2="408" y2="611"/>
    <line x1="605" y1="408" x2="611" y2="408"/>
    <line x1="508" y1="105" x2="508" y2="111"/>
    <line x1="105" y1="508" x2="111" y2="508"/>
    <line x1="508" y1="605" x2="508" y2="611"/>
    <line x1="605" y1="508" x2="611" y2="508"/>
  </g>
  <g stroke="gray" stroke-width="1" stroke-dasharray="5,5">
    <line x1="208" y1="108" x2="208" y2="608"/>
    <line x1="108" y1="208" x2="608" y2="208"/>
    <line x1="308" y1="108" x2="308" y2="608"/>
    <line x1="108" y1="308" x2="608" y2="308"/>
    <line x1="408" y1="108" x2="408" y2="608"/>
    <line x1="108" y1="408" x2="608" y2="408"/>
    <line x1="508" y1="108" x2="508" y2="608"/>
    <line x1="108" y1="508" x2="608" y2="508"/>
  </g>
</svg>
