<?xml version="1.0" standalone="no"?>
<!DOCTYPE svg PUBLIC "-//W3C//DTD SVG 1.1//EN" 
  "http://www.w3.org/Graphics/SVG/1.1/DTD/svg11.dtd">
<svg width="716" height="716" version="1.1" id="toplevel"
    xmlns="http://www.w3.org/2000/svg"
    xmlns:xlink="http://www.w3.org/1999/xlink">
  <polygon points="529,414 540,390 605,394 607,391 711,397 652,331 570,335 567,330 541,331 528,302 5,361"
           fill="bisque"/>
  <g stroke="chocolate" stroke-width="1">
    <line x1="588" y1="365" x2="599" y2="346"/>
    <circle cx="588" cy="365" r="2"/>
    <circle cx="599" cy="346" r="2"/>
  </g>
  <g stroke="chocolate" stroke-width="1">
    <line x1="558" y1="368" x2="572" y2="338"/>
    <circle cx="558" cy="368" r="2"/>
    <circle cx="572" cy="338" r="2"/>
  </g>
  <g stroke="chocolate" stroke-width="1">
    <line x1="529" y1="414" x2="567" y2="330"/>
    <circle cx="529" cy="414" r="2"/>
    <circle cx="567" cy="330" r="2"/>
  </g>
  <g stroke="chocolate" stroke-width="1">
    <line x1="605" y1="394" x2="652" y2="331"/>
    <circle cx="605" cy="394" r="2"/>
    <circle cx="652" cy="331" r="2"/>
  </g>
  <g stroke="chocolate" stroke-width="1">
    <line x1="628" y1="388" x2="664" y2="345"/>
    <circle cx="628" cy="388" r="2"/>
    <circle cx="664" cy="345" r="2"/>
  </g>
  <g stroke="chocolate" stroke-width="1">
    <line x1="515" y1="362" x2="528" y2="302"/>
    <circle cx="515" cy="362" r="2"/>
    <circle cx="528" cy="302" r="2"/>
  </g>
  <g stroke="chocolate" stroke-width="1">
    <line x1="513" y1="369" x2="516" y2="355"/>
    <circle cx="513" cy="369" r="2"/>
    <circle cx="516" cy="355" r="2"/>
  </g>
  <g stroke="chocolate" stroke-width="1">
    <line x1="508" y1="370" x2="510" y2="352"/>
    <circle cx="508" cy="370" r="2"/>
    <circle cx="510" cy="352" r="2"/>
  </g>
  <g stroke="chocolate" stroke-width="1">
    <line x1="505" y1="381" x2="507" y2="357"/>
    <circle cx="505" cy="381" r="2"/>
    <circle cx="507" cy="357" r="2"/>
  </g>
  <g stroke="chocolate" stroke-width="1">
    <line x1="505" y1="377" x2="508" y2="327"/>
    <circle cx="505" cy="377" r="2"/>
    <circle cx="508" cy="327" r="2"/>
  </g>
  <g stroke="chocolate" stroke-width="1">
    <line x1="505" y1="381" x2="505" y2="361"/>
    <circle cx="505" cy="381" r="2"/>
    <circle cx="505" cy="361" r="2"/>
  </g>
  <g stroke="chocolate" stroke-width="1">
    <line x1="508" y1="370" x2="507" y2="357"/>
    <circle cx="508" cy="370" r="2"/>
    <circle cx="507" cy="357" r="2"/>
  </g>
  <g stroke="chocolate" stroke-width="1">
    <line x1="513" y1="369" x2="510" y2="352"/>
    <circle cx="513" cy="369" r="2"/>
    <circle cx="510" cy="352" r="2"/>
  </g>
  <g stroke="chocolate" stroke-width="1">
    <line x1="515" y1="362" x2="508" y2="327"/>
    <circle cx="515" cy="362" r="2"/>
    <circle cx="508" cy="327" r="2"/>
  </g>
  <g stroke="chocolate" stroke-width="1">
    <line x1="529" y1="414" x2="516" y2="355"/>
    <circle cx="529" cy="414" r="2"/>
    <circle cx="516" cy="355" r="2"/>
  </g>
  <g stroke="chocolate" stroke-width="1">
    <line x1="558" y1="368" x2="528" y2="302"/>
    <circle cx="558" cy="368" r="2"/>
    <circle cx="528" cy="302" r="2"/>
  </g>
  <g stroke="chocolate" stroke-width="1">
    <line x1="605" y1="394" x2="567" y2="330"/>
    <circle cx="605" cy="394" r="2"/>
    <circle cx="567" cy="330" r="2"/>
  </g>
  <g stroke="chocolate" stroke-width="1">
    <line x1="628" y1="388" x2="599" y2="346"/>
    <circle cx="628" cy="388" r="2"/>
    <circle cx="599" cy="346" r="2"/>
  </g>
  <g stroke="chocolate" stroke-width="1">
    <line x1="5" y1="361" x2="528" y2="302"/>
    <circle cx="5" cy="361" r="2"/>
    <circle cx="528" cy="302" r="2"/>
  </g>
  <g stroke="chocolate" stroke-width="1">
    <line x1="529" y1="414" x2="5" y2="361"/>
    <circle cx="529" cy="414" r="2"/>
    <circle cx="5" cy="361" r="2"/>
  </g>
  <g stroke="chocolate" stroke-width="1">
    <line x1="5" y1="361" x2="508" y2="327"/>
    <circle cx="5" cy="361" r="2"/>
    <circle cx="508" cy="327" r="2"/>
  </g>
  <g stroke="chocolate" stroke-width="1">
    <line x1="605" y1="394" x2="5" y2="361"/>
    <circle cx="605" cy="394" r="2"/>
    <circle cx="5" cy="361" r="2"/>
  </g>
  <g stroke="chocolate" stroke-width="1">
    <line x1="5" y1="361" x2="567" y2="330"/>
    <circle cx="5" cy="361" r="2"/>
    <circle cx="567" cy="330" r="2"/>
  </g>
  <g stroke="chocolate" stroke-width="1">
    <line x1="711" y1="397" x2="5" y2="361"/>
    <circle cx="711" cy="397" r="2"/>
    <circle cx="5" cy="361" r="2"/>
  </g>
  <g stroke="chocolate" stroke-width="1">
    <line x1="5" y1="361" x2="652" y2="331"/>
    <circle cx="5" cy="361" r="2"/>
    <circle cx="652" cy="331" r="2"/>
  </g>
  <g stroke="chocolate" stroke-width="1">
    <line x1="628" y1="388" x2="5" y2="361"/>
    <circle cx="628" cy="388" r="2"/>
    <circle cx="5" cy="361" r="2"/>
  </g>
  <g stroke="chocolate" stroke-width="1">
    <line x1="505" y1="381" x2="5" y2="361"/>
    <circle cx="505" cy="381" r="2"/>
    <circle cx="5" cy="361" r="2"/>
  </g>
  <g stroke="chocolate" stroke-width="1">
    <line x1="5" y1="361" x2="572" y2="338"/>
    <circle cx="5" cy="361" r="2"/>
    <circle cx="572" cy="338" r="2"/>
  </g>
  <g stroke="chocolate" stroke-width="1">
    <line x1="505" y1="377" x2="5" y2="361"/>
    <circle cx="505" cy="377" r="2"/>
    <circle cx="5" cy="361" r="2"/>
  </g>
  <g stroke="chocolate" stroke-width="1">
    <line x1="5" y1="361" x2="599" y2="346"/>
    <circle cx="5" cy="361" r="2"/>
    <circle cx="599" cy="346" r="2"/>
  </g>
  <g stroke="chocolate" stroke-width="1">
    <line x1="5" y1="361" x2="664" y2="345"/>
    <circle cx="5" cy="361" r="2"/>
    <circle cx="664" cy="345" r="2"/>
  </g>
  <g stroke="chocolate" stroke-width="1">
    <line x1="508" y1="370" x2="5" y2="361"/>
    <circle cx="508" cy="370" r="2"/>
    <circle cx="5" cy="361" r="2"/>
  </g>
  <g stroke="chocolate" stroke-width="1">
    <line x1="5" y1="361" x2="510" y2="352"/>
    <circle cx="5" cy="361" r="2"/>
    <circle cx="510" cy="352" r="2"/>
  </g>
  <g stroke="chocolate" stroke-width="1">
    <line x1="513" y1="369" x2="5" y2="361"/>
    <circle cx="513" cy="369" r="2"/>
    <circle cx="5" cy="361" r="2"/>
  </g>
  <g stroke="chocolate" stroke-width="1">
    <line x1="558" y1="368" x2="5" y2="361"/>
    <circle cx="558" cy="368" r="2"/>
    <circle cx="5" cy="361" r="2"/>
  </g>
  <g stroke="chocolate" stroke-width="1">
    <line x1="5" y1="361" x2="516" y2="355"/>
    <circle cx="5" cy="361" r="2"/>
    <circle cx="516" cy="355" r="2"/>
  </g>
  <g stroke="chocolate" stroke-width="1">
    <line x1="5" y1="361" x2="507" y2="357"/>
    <circle cx="5" cy="361" r="2"/>
    <circle cx="507" cy="357" r="2"/>
  </g>
  <g stroke="chocolate" stroke-width="1">
    <line x1="588" y1="365" x2="5" y2="361"/>
    <circle cx="588" cy="365" r="2"/>
    <circle cx="5" cy="361" r="2"/>
  </g>
  <g stroke="chocolate" stroke-width="1">
    <line x1="515" y1="362" x2="5" y2="361"/>
    <circle cx="515" cy="362" r="2"/>
    <circle cx="5" cy="361" r="2"/>
  </g>
  <g stroke="chocolate" stroke-width="1">
    <line x1="5" y1="361" x2="505" y2="361"/>
    <circle cx="5" cy="361" r="2"/>
    <circle cx="505" cy="361" r="2"/>
  </g>
  <g stroke="chocolate" stroke-width="1">
    <line x1="711" y1="397" x2="652" y2="331"/>
    <circle cx="711" cy="397" r="2"/>
    <circle cx="652" cy="331" r="2"/>
  </g>
  <g stroke="black" stroke-width="1">
    <line x1="108" y1="108" x2="608" y2="108"/>
    <line x1="108" y1="108" x2="108" y2="608"/>
    <line x1="608" y1="608" x2="108" y2="608"/>
    <line x1="608" y1="608" x2="608" y2="108"/>
    <line x1="208" y1="105" x2="208" y2="111"/>
    <line x1="105" y1="208" x2="111" y2="208"/>
    <line x1="208" y1="605" x2="208" y2="611"/>
    <line x1="605" y1="208" x2="611" y2="208"/>
    <line x1="308" y1="105" x2="308" y2="111"/>
    <line x1="105" y1="308" x2="111" y2="308"/>
    <line x1="308" y1="605" x2="308" y2="611"/>
    <line x1="605" y1="308" x2="611" y2="308"/>
    <line x1="408" y1="105" x2="408" y2="111"/>
    <line x1="105" y1="408" x2="111" y2="408"/>
    <line x1="408" y1="605" x2="408" y2="611"/>
    <line x1="605" y1="408" x2="611" y2="408"/>
    <line x1="508" y1="105" x2="508" y2="111"/>
    <line x1="105" y1="508" x2="111" y2="508"/>
    <line x1="508" y1="605" x2="508" y2="611"/>
    <line x1="605" y1="508" x2="611" y2="508"/>
  </g>
  <g stroke="gray" stroke-width="1" stroke-dasharray="5,5">
    <line x1="208" y1="108" x2="208" y2="608"/>
    <line x1="108" y1="208" x2="608" y2="208"/>
    <line x1="308" y1="108" x2="308" y2="608"/>
    <line x1="108" y1="308" x2="608" y2="308"/>
    <line x1="408" y1="108" x2="408" y2="608"/>
    <line x1="108" y1="408" x2="608" y2="408"/>
    <line x1="508" y1="108" x2="508" y2="608"/>
    <line x1="108" y1="508" x2="608" y2="508"/>
  </g>
</svg>
