<?xml version="1.0" standalone="no"?>
<!DOCTYPE svg PUBLIC "-//W3C//DTD SVG 1.1//EN" 
  "http://www.w3.org/Graphics/SVG/1.1/DTD/svg11.dtd">
<svg width="716" height="716" version="1.1" id="toplevel"
    xmlns="http://www.w3.org/2000/svg"
    xmlns:xlink="http://www.w3.org/1999/xlink">
  <polygon points="529,424 577,346 696,352 711,337 671,295 524,301 521,292 5,320"
           fill="bisque"/>
  <g stroke="chocolate" stroke-width="1">
    <line x1="548" y1="375" x2="590" y2="300"/>
    <circle cx="548" cy="375" r="2"/>
    <circle cx="590" cy="300" r="2"/>
  </g>
  <g stroke="chocolate" stroke-width="1">
    <line x1="529" y1="424" x2="598" y2="312"/>
    <circle cx="529" cy="424" r="2"/>
    <circle cx="598" cy="312" r="2"/>
  </g>
  <g stroke="chocolate" stroke-width="1">
    <line x1="606" y1="324" x2="619" y2="306"/>
    <circle cx="606" cy="324" r="2"/>
    <circle cx="619" cy="306" r="2"/>
  </g>
  <g stroke="chocolate" stroke-width="1">
    <line x1="616" y1="339" x2="647" y2="296"/>
    <circle cx="616" cy="339" r="2"/>
    <circle cx="647" cy="296" r="2"/>
  </g>
  <g stroke="chocolate" stroke-width="1">
    <line x1="640" y1="334" x2="671" y2="295"/>
    <circle cx="640" cy="334" r="2"/>
    <circle cx="671" cy="295" r="2"/>
  </g>
  <g stroke="chocolate" stroke-width="1">
    <line x1="696" y1="352" x2="711" y2="337"/>
    <circle cx="696" cy="352" r="2"/>
    <circle cx="711" cy="337" r="2"/>
  </g>
  <g stroke="chocolate" stroke-width="1">
    <line x1="511" y1="341" x2="521" y2="292"/>
    <circle cx="511" cy="341" r="2"/>
    <circle cx="521" cy="292" r="2"/>
  </g>
  <g stroke="chocolate" stroke-width="1">
    <line x1="505" y1="358" x2="511" y2="317"/>
    <circle cx="505" cy="358" r="2"/>
    <circle cx="511" cy="317" r="2"/>
  </g>
  <g stroke="chocolate" stroke-width="1">
    <line x1="507" y1="325" x2="508" y2="315"/>
    <circle cx="507" cy="325" r="2"/>
    <circle cx="508" cy="315" r="2"/>
  </g>
  <g stroke="chocolate" stroke-width="1">
    <line x1="505" y1="340" x2="506" y2="318"/>
    <circle cx="505" cy="340" r="2"/>
    <circle cx="506" cy="318" r="2"/>
  </g>
  <g stroke="chocolate" stroke-width="1">
    <line x1="505" y1="358" x2="505" y2="320"/>
    <circle cx="505" cy="358" r="2"/>
    <circle cx="505" cy="320" r="2"/>
  </g>
  <g stroke="chocolate" stroke-width="1">
    <line x1="507" y1="325" x2="506" y2="318"/>
    <circle cx="507" cy="325" r="2"/>
    <circle cx="506" cy="318" r="2"/>
  </g>
  <g stroke="chocolate" stroke-width="1">
    <line x1="511" y1="341" x2="508" y2="315"/>
    <circle cx="511" cy="341" r="2"/>
    <circle cx="508" cy="315" r="2"/>
  </g>
  <g stroke="chocolate" stroke-width="1">
    <line x1="529" y1="424" x2="511" y2="317"/>
    <circle cx="529" cy="424" r="2"/>
    <circle cx="511" cy="317" r="2"/>
  </g>
  <g stroke="chocolate" stroke-width="1">
    <line x1="548" y1="375" x2="521" y2="292"/>
    <circle cx="548" cy="375" r="2"/>
    <circle cx="521" cy="292" r="2"/>
  </g>
  <g stroke="chocolate" stroke-width="1">
    <line x1="616" y1="339" x2="590" y2="300"/>
    <circle cx="616" cy="339" r="2"/>
    <circle cx="590" cy="300" r="2"/>
  </g>
  <g stroke="chocolate" stroke-width="1">
    <line x1="640" y1="334" x2="619" y2="306"/>
    <circle cx="640" cy="334" r="2"/>
    <circle cx="619" cy="306" r="2"/>
  </g>
  <g stroke="chocolate" stroke-width="1">
    <line x1="529" y1="424" x2="5" y2="320"/>
    <circle cx="529" cy="424" r="2"/>
    <circle cx="5" cy="320" r="2"/>
  </g>
  <g stroke="chocolate" stroke-width="1">
    <line x1="548" y1="375" x2="5" y2="320"/>
    <circle cx="548" cy="375" r="2"/>
    <circle cx="5" cy="320" r="2"/>
  </g>
  <g stroke="chocolate" stroke-width="1">
    <line x1="505" y1="358" x2="5" y2="320"/>
    <circle cx="505" cy="358" r="2"/>
    <circle cx="5" cy="320" r="2"/>
  </g>
  <g stroke="chocolate" stroke-width="1">
    <line x1="5" y1="320" x2="521" y2="292"/>
    <circle cx="5" cy="320" r="2"/>
    <circle cx="521" cy="292" r="2"/>
  </g>
  <g stroke="chocolate" stroke-width="1">
    <line x1="696" y1="352" x2="5" y2="320"/>
    <circle cx="696" cy="352" r="2"/>
    <circle cx="5" cy="320" r="2"/>
  </g>
  <g stroke="chocolate" stroke-width="1">
    <line x1="511" y1="341" x2="5" y2="320"/>
    <circle cx="511" cy="341" r="2"/>
    <circle cx="5" cy="320" r="2"/>
  </g>
  <g stroke="chocolate" stroke-width="1">
    <line x1="505" y1="340" x2="5" y2="320"/>
    <circle cx="505" cy="340" r="2"/>
    <circle cx="5" cy="320" r="2"/>
  </g>
  <g stroke="chocolate" stroke-width="1">
    <line x1="5" y1="320" x2="671" y2="295"/>
    <circle cx="5" cy="320" r="2"/>
    <circle cx="671" cy="295" r="2"/>
  </g>
  <g stroke="chocolate" stroke-width="1">
    <line x1="5" y1="320" x2="647" y2="296"/>
    <circle cx="5" cy="320" r="2"/>
    <circle cx="647" cy="296" r="2"/>
  </g>
  <g stroke="chocolate" stroke-width="1">
    <line x1="5" y1="320" x2="590" y2="300"/>
    <circle cx="5" cy="320" r="2"/>
    <circle cx="590" cy="300" r="2"/>
  </g>
  <g stroke="chocolate" stroke-width="1">
    <line x1="616" y1="339" x2="5" y2="320"/>
    <circle cx="616" cy="339" r="2"/>
    <circle cx="5" cy="320" r="2"/>
  </g>
  <g stroke="chocolate" stroke-width="1">
    <line x1="5" y1="320" x2="619" y2="306"/>
    <circle cx="5" cy="320" r="2"/>
    <circle cx="619" cy="306" r="2"/>
  </g>
  <g stroke="chocolate" stroke-width="1">
    <line x1="640" y1="334" x2="5" y2="320"/>
    <circle cx="640" cy="334" r="2"/>
    <circle cx="5" cy="320" r="2"/>
  </g>
  <g stroke="chocolate" stroke-width="1">
    <line x1="5" y1="320" x2="598" y2="312"/>
    <circle cx="5" cy="320" r="2"/>
    <circle cx="598" cy="312" r="2"/>
  </g>
  <g stroke="chocolate" stroke-width="1">
    <line x1="5" y1="320" x2="508" y2="315"/>
    <circle cx="5" cy="320" r="2"/>
    <circle cx="508" cy="315" r="2"/>
  </g>
  <g stroke="chocolate" stroke-width="1">
    <line x1="507" y1="325" x2="5" y2="320"/>
    <circle cx="507" cy="325" r="2"/>
    <circle cx="5" cy="320" r="2"/>
  </g>
  <g stroke="chocolate" stroke-width="1">
    <line x1="606" y1="324" x2="5" y2="320"/>
    <circle cx="606" cy="324" r="2"/>
    <circle cx="5" cy="320" r="2"/>
  </g>
  <g stroke="chocolate" stroke-width="1">
    <line x1="5" y1="320" x2="511" y2="317"/>
    <circle cx="5" cy="320" r="2"/>
    <circle cx="511" cy="317" r="2"/>
  </g>
  <g stroke="chocolate" stroke-width="1">
    <line x1="5" y1="320" x2="506" y2="318"/>
    <circle cx="5" cy="320" r="2"/>
    <circle cx="506" cy="318" r="2"/>
  </g>
  <g stroke="chocolate" stroke-width="1">
    <line x1="5" y1="320" x2="630" y2="320"/>
    <circle cx="5" cy="320" r="2"/>
    <circle cx="630" cy="320" r="2"/>
  </g>
  <g stroke="chocolate" stroke-width="1">
    <line x1="696" y1="352" x2="647" y2="296"/>
    <circle cx="696" cy="352" r="2"/>
    <circle cx="647" cy="296" r="2"/>
  </g>
  <g stroke="chocolate" stroke-width="1">
    <line x1="711" y1="337" x2="671" y2="295"/>
    <circle cx="711" cy="337" r="2"/>
    <circle cx="671" cy="295" r="2"/>
  </g>
  <g stroke="black" stroke-width="1">
    <line x1="108" y1="108" x2="608" y2="108"/>
    <line x1="108" y1="108" x2="108" y2="608"/>
    <line x1="608" y1="608" x2="108" y2="608"/>
    <line x1="608" y1="608" x2="608" y2="108"/>
    <line x1="208" y1="105" x2="208" y2="111"/>
    <line x1="105" y1="208" x2="111" y2="208"/>
    <line x1="208" y1="605" x2="208" y2="611"/>
    <line x1="605" y1="208" x2="611" y2="208"/>
    <line x1="308" y1="105" x2="308" y2="111"/>
    <line x1="105" y1="308" x2="111" y2="308"/>
    <line x1="308" y1="605" x2="308" y2="611"/>
    <line x1="605" y1="308" x2="611" y2="308"/>
    <line x1="408" y1="105" x2="408" y2="111"/>
    <line x1="105" y1="408" x2="111" y2="408"/>
    <line x1="408" y1="605" x2="408" y2="611"/>
    <line x1="605" y1="408" x2="611" y2="408"/>
    <line x1="508" y1="105" x2="508" y2="111"/>
    <line x1="105" y1="508" x2="111" y2="508"/>
    <line x1="508" y1="605" x2="508" y2="611"/>
    <line x1="605" y1="508" x2="611" y2="508"/>
  </g>
  <g stroke="gray" stroke-width="1" stroke-dasharray="5,5">
    <line x1="208" y1="108" x2="208" y2="608"/>
    <line x1="108" y1="208" x2="608" y2="208"/>
    <line x1="308" y1="108" x2="308" y2="608"/>
    <line x1="108" y1="308" x2="608" y2="308"/>
    <line x1="408" y1="108" x2="408" y2="608"/>
    <line x1="108" y1="408" x2="608" y2="408"/>
    <line x1="508" y1="108" x2="508" y2="608"/>
    <line x1="108" y1="508" x2="608" y2="508"/>
  </g>
</svg>
