<?xml version="1.0" standalone="no"?>
<!DOCTYPE svg PUBLIC "-//W3C//DTD SVG 1.1//EN" 
  "http://www.w3.org/Graphics/SVG/1.1/DTD/svg11.dtd">
<svg width="716" height="716" version="1.1" id="toplevel"
    xmlns="http://www.w3.org/2000/svg"
    xmlns:xlink="http://www.w3.org/1999/xlink">
  <polygon points="524,409 528,401 540,403 559,370 641,375 664,350 711,351 671,309 597,312 594,307 5,334"
           fill="bisque"/>
  <g stroke="chocolate" stroke-width="1">
    <line x1="540" y1="403" x2="594" y2="307"/>
    <circle cx="540" cy="403" r="2"/>
    <circle cx="594" cy="307" r="2"/>
  </g>
  <g stroke="chocolate" stroke-width="1">
    <line x1="583" y1="370" x2="617" y2="318"/>
    <circle cx="583" cy="370" r="2"/>
    <circle cx="617" cy="318" r="2"/>
  </g>
  <g stroke="chocolate" stroke-width="1">
    <line x1="524" y1="409" x2="563" y2="330"/>
    <circle cx="524" cy="409" r="2"/>
    <circle cx="563" cy="330" r="2"/>
  </g>
  <g stroke="chocolate" stroke-width="1">
    <line x1="640" y1="347" x2="671" y2="309"/>
    <circle cx="640" cy="347" r="2"/>
    <circle cx="671" cy="309" r="2"/>
  </g>
  <g stroke="chocolate" stroke-width="1">
    <line x1="641" y1="375" x2="686" y2="325"/>
    <circle cx="641" cy="375" r="2"/>
    <circle cx="686" cy="325" r="2"/>
  </g>
  <g stroke="chocolate" stroke-width="1">
    <line x1="517" y1="334" x2="519" y2="324"/>
    <circle cx="517" cy="334" r="2"/>
    <circle cx="519" cy="324" r="2"/>
  </g>
  <g stroke="chocolate" stroke-width="1">
    <line x1="505" y1="386" x2="516" y2="330"/>
    <circle cx="505" cy="386" r="2"/>
    <circle cx="516" cy="330" r="2"/>
  </g>
  <g stroke="chocolate" stroke-width="1">
    <line x1="510" y1="339" x2="511" y2="331"/>
    <circle cx="510" cy="339" r="2"/>
    <circle cx="511" cy="331" r="2"/>
  </g>
  <g stroke="chocolate" stroke-width="1">
    <line x1="508" y1="336" x2="509" y2="332"/>
    <circle cx="508" cy="336" r="2"/>
    <circle cx="509" cy="332" r="2"/>
  </g>
  <g stroke="chocolate" stroke-width="1">
    <line x1="505" y1="354" x2="507" y2="324"/>
    <circle cx="505" cy="354" r="2"/>
    <circle cx="507" cy="324" r="2"/>
  </g>
  <g stroke="chocolate" stroke-width="1">
    <line x1="505" y1="386" x2="505" y2="334"/>
    <circle cx="505" cy="386" r="2"/>
    <circle cx="505" cy="334" r="2"/>
  </g>
  <g stroke="chocolate" stroke-width="1">
    <line x1="508" y1="336" x2="507" y2="324"/>
    <circle cx="508" cy="336" r="2"/>
    <circle cx="507" cy="324" r="2"/>
  </g>
  <g stroke="chocolate" stroke-width="1">
    <line x1="510" y1="339" x2="509" y2="332"/>
    <circle cx="510" cy="339" r="2"/>
    <circle cx="509" cy="332" r="2"/>
  </g>
  <g stroke="chocolate" stroke-width="1">
    <line x1="524" y1="409" x2="511" y2="331"/>
    <circle cx="524" cy="409" r="2"/>
    <circle cx="511" cy="331" r="2"/>
  </g>
  <g stroke="chocolate" stroke-width="1">
    <line x1="517" y1="334" x2="516" y2="330"/>
    <circle cx="517" cy="334" r="2"/>
    <circle cx="516" cy="330" r="2"/>
  </g>
  <g stroke="chocolate" stroke-width="1">
    <line x1="540" y1="403" x2="519" y2="324"/>
    <circle cx="540" cy="403" r="2"/>
    <circle cx="519" cy="324" r="2"/>
  </g>
  <g stroke="chocolate" stroke-width="1">
    <line x1="583" y1="370" x2="563" y2="330"/>
    <circle cx="583" cy="370" r="2"/>
    <circle cx="563" cy="330" r="2"/>
  </g>
  <g stroke="chocolate" stroke-width="1">
    <line x1="641" y1="375" x2="594" y2="307"/>
    <circle cx="641" cy="375" r="2"/>
    <circle cx="594" cy="307" r="2"/>
  </g>
  <g stroke="chocolate" stroke-width="1">
    <line x1="640" y1="347" x2="617" y2="318"/>
    <circle cx="640" cy="347" r="2"/>
    <circle cx="617" cy="318" r="2"/>
  </g>
  <g stroke="chocolate" stroke-width="1">
    <line x1="524" y1="409" x2="5" y2="334"/>
    <circle cx="524" cy="409" r="2"/>
    <circle cx="5" cy="334" r="2"/>
  </g>
  <g stroke="chocolate" stroke-width="1">
    <line x1="540" y1="403" x2="5" y2="334"/>
    <circle cx="540" cy="403" r="2"/>
    <circle cx="5" cy="334" r="2"/>
  </g>
  <g stroke="chocolate" stroke-width="1">
    <line x1="505" y1="386" x2="5" y2="334"/>
    <circle cx="505" cy="386" r="2"/>
    <circle cx="5" cy="334" r="2"/>
  </g>
  <g stroke="chocolate" stroke-width="1">
    <line x1="641" y1="375" x2="5" y2="334"/>
    <circle cx="641" cy="375" r="2"/>
    <circle cx="5" cy="334" r="2"/>
  </g>
  <g stroke="chocolate" stroke-width="1">
    <line x1="583" y1="370" x2="5" y2="334"/>
    <circle cx="583" cy="370" r="2"/>
    <circle cx="5" cy="334" r="2"/>
  </g>
  <g stroke="chocolate" stroke-width="1">
    <line x1="5" y1="334" x2="594" y2="307"/>
    <circle cx="5" cy="334" r="2"/>
    <circle cx="594" cy="307" r="2"/>
  </g>
  <g stroke="chocolate" stroke-width="1">
    <line x1="505" y1="354" x2="5" y2="334"/>
    <circle cx="505" cy="354" r="2"/>
    <circle cx="5" cy="334" r="2"/>
  </g>
  <g stroke="chocolate" stroke-width="1">
    <line x1="5" y1="334" x2="671" y2="309"/>
    <circle cx="5" cy="334" r="2"/>
    <circle cx="671" cy="309" r="2"/>
  </g>
  <g stroke="chocolate" stroke-width="1">
    <line x1="5" y1="334" x2="617" y2="318"/>
    <circle cx="5" cy="334" r="2"/>
    <circle cx="617" cy="318" r="2"/>
  </g>
  <g stroke="chocolate" stroke-width="1">
    <line x1="711" y1="351" x2="5" y2="334"/>
    <circle cx="711" cy="351" r="2"/>
    <circle cx="5" cy="334" r="2"/>
  </g>
  <g stroke="chocolate" stroke-width="1">
    <line x1="640" y1="347" x2="5" y2="334"/>
    <circle cx="640" cy="347" r="2"/>
    <circle cx="5" cy="334" r="2"/>
  </g>
  <g stroke="chocolate" stroke-width="1">
    <line x1="5" y1="334" x2="519" y2="324"/>
    <circle cx="5" cy="334" r="2"/>
    <circle cx="519" cy="324" r="2"/>
  </g>
  <g stroke="chocolate" stroke-width="1">
    <line x1="5" y1="334" x2="507" y2="324"/>
    <circle cx="5" cy="334" r="2"/>
    <circle cx="507" cy="324" r="2"/>
  </g>
  <g stroke="chocolate" stroke-width="1">
    <line x1="5" y1="334" x2="686" y2="325"/>
    <circle cx="5" cy="334" r="2"/>
    <circle cx="686" cy="325" r="2"/>
  </g>
  <g stroke="chocolate" stroke-width="1">
    <line x1="510" y1="339" x2="5" y2="334"/>
    <circle cx="510" cy="339" r="2"/>
    <circle cx="5" cy="334" r="2"/>
  </g>
  <g stroke="chocolate" stroke-width="1">
    <line x1="5" y1="334" x2="516" y2="330"/>
    <circle cx="5" cy="334" r="2"/>
    <circle cx="516" cy="330" r="2"/>
  </g>
  <g stroke="chocolate" stroke-width="1">
    <line x1="5" y1="334" x2="563" y2="330"/>
    <circle cx="5" cy="334" r="2"/>
    <circle cx="563" cy="330" r="2"/>
  </g>
  <g stroke="chocolate" stroke-width="1">
    <line x1="5" y1="334" x2="511" y2="331"/>
    <circle cx="5" cy="334" r="2"/>
    <circle cx="511" cy="331" r="2"/>
  </g>
  <g stroke="chocolate" stroke-width="1">
    <line x1="5" y1="334" x2="509" y2="332"/>
    <circle cx="5" cy="334" r="2"/>
    <circle cx="509" cy="332" r="2"/>
  </g>
  <g stroke="chocolate" stroke-width="1">
    <line x1="508" y1="336" x2="5" y2="334"/>
    <circle cx="508" cy="336" r="2"/>
    <circle cx="5" cy="334" r="2"/>
  </g>
  <g stroke="chocolate" stroke-width="1">
    <line x1="5" y1="334" x2="517" y2="334"/>
    <circle cx="5" cy="334" r="2"/>
    <circle cx="517" cy="334" r="2"/>
  </g>
  <g stroke="chocolate" stroke-width="1">
    <line x1="711" y1="351" x2="671" y2="309"/>
    <circle cx="711" cy="351" r="2"/>
    <circle cx="671" cy="309" r="2"/>
  </g>
  <g stroke="black" stroke-width="1">
    <line x1="108" y1="108" x2="608" y2="108"/>
    <line x1="108" y1="108" x2="108" y2="608"/>
    <line x1="608" y1="608" x2="108" y2="608"/>
    <line x1="608" y1="608" x2="608" y2="108"/>
    <line x1="208" y1="105" x2="208" y2="111"/>
    <line x1="105" y1="208" x2="111" y2="208"/>
    <line x1="208" y1="605" x2="208" y2="611"/>
    <line x1="605" y1="208" x2="611" y2="208"/>
    <line x1="308" y1="105" x2="308" y2="111"/>
    <line x1="105" y1="308" x2="111" y2="308"/>
    <line x1="308" y1="605" x2="308" y2="611"/>
    <line x1="605" y1="308" x2="611" y2="308"/>
    <line x1="408" y1="105" x2="408" y2="111"/>
    <line x1="105" y1="408" x2="111" y2="408"/>
    <line x1="408" y1="605" x2="408" y2="611"/>
    <line x1="605" y1="408" x2="611" y2="408"/>
    <line x1="508" y1="105" x2="508" y2="111"/>
    <line x1="105" y1="508" x2="111" y2="508"/>
    <line x1="508" y1="605" x2="508" y2="611"/>
    <line x1="605" y1="508" x2="611" y2="508"/>
  </g>
  <g stroke="gray" stroke-width="1" stroke-dasharray="5,5">
    <line x1="208" y1="108" x2="208" y2="608"/>
    <line x1="108" y1="208" x2="608" y2="208"/>
    <line x1="308" y1="108" x2="308" y2="608"/>
    <line x1="108" y1="308" x2="608" y2="308"/>
    <line x1="408" y1="108" x2="408" y2="608"/>
    <line x1="108" y1="408" x2="608" y2="408"/>
    <line x1="508" y1="108" x2="508" y2="608"/>
    <line x1="108" y1="508" x2="608" y2="508"/>
  </g>
</svg>
