<?xml version="1.0" standalone="no"?>
<!DOCTYPE svg PUBLIC "-//W3C//DTD SVG 1.1//EN" 
  "http://www.w3.org/Graphics/SVG/1.1/DTD/svg11.dtd">
<svg width="716" height="716" version="1.1" id="toplevel"
    xmlns="http://www.w3.org/2000/svg"
    xmlns:xlink="http://www.w3.org/1999/xlink">
  <polygon points="605,419 633,386 696,389 711,374 690,352 664,352 662,350 609,351 600,339 562,340 539,297 5,357"
           fill="bisque"/>
  <g stroke="chocolate" stroke-width="1">
    <line x1="580" y1="373" x2="600" y2="339"/>
    <circle cx="580" cy="373" r="2"/>
    <circle cx="600" cy="339" r="2"/>
  </g>
  <g stroke="chocolate" stroke-width="1">
    <line x1="621" y1="369" x2="630" y2="357"/>
    <circle cx="621" cy="369" r="2"/>
    <circle cx="630" cy="357" r="2"/>
  </g>
  <g stroke="chocolate" stroke-width="1">
    <line x1="539" y1="363" x2="554" y2="324"/>
    <circle cx="539" cy="363" r="2"/>
    <circle cx="554" cy="324" r="2"/>
  </g>
  <g stroke="chocolate" stroke-width="1">
    <line x1="605" y1="419" x2="662" y2="350"/>
    <circle cx="605" cy="419" r="2"/>
    <circle cx="662" cy="350" r="2"/>
  </g>
  <g stroke="chocolate" stroke-width="1">
    <line x1="677" y1="366" x2="690" y2="352"/>
    <circle cx="677" cy="366" r="2"/>
    <circle cx="690" cy="352" r="2"/>
  </g>
  <g stroke="chocolate" stroke-width="1">
    <line x1="528" y1="365" x2="533" y2="347"/>
    <circle cx="528" cy="365" r="2"/>
    <circle cx="533" cy="347" r="2"/>
  </g>
  <g stroke="chocolate" stroke-width="1">
    <line x1="696" y1="389" x2="711" y2="374"/>
    <circle cx="696" cy="389" r="2"/>
    <circle cx="711" cy="374" r="2"/>
  </g>
  <g stroke="chocolate" stroke-width="1">
    <line x1="520" y1="368" x2="539" y2="297"/>
    <circle cx="520" cy="368" r="2"/>
    <circle cx="539" cy="297" r="2"/>
  </g>
  <g stroke="chocolate" stroke-width="1">
    <line x1="505" y1="388" x2="512" y2="332"/>
    <circle cx="505" cy="388" r="2"/>
    <circle cx="512" cy="332" r="2"/>
  </g>
  <g stroke="chocolate" stroke-width="1">
    <line x1="505" y1="374" x2="510" y2="302"/>
    <circle cx="505" cy="374" r="2"/>
    <circle cx="510" cy="302" r="2"/>
  </g>
  <g stroke="chocolate" stroke-width="1">
    <line x1="505" y1="388" x2="505" y2="357"/>
    <circle cx="505" cy="388" r="2"/>
    <circle cx="505" cy="357" r="2"/>
  </g>
  <g stroke="chocolate" stroke-width="1">
    <line x1="520" y1="368" x2="512" y2="332"/>
    <circle cx="520" cy="368" r="2"/>
    <circle cx="512" cy="332" r="2"/>
  </g>
  <g stroke="chocolate" stroke-width="1">
    <line x1="528" y1="365" x2="510" y2="302"/>
    <circle cx="528" cy="365" r="2"/>
    <circle cx="510" cy="302" r="2"/>
  </g>
  <g stroke="chocolate" stroke-width="1">
    <line x1="539" y1="363" x2="533" y2="347"/>
    <circle cx="539" cy="363" r="2"/>
    <circle cx="533" cy="347" r="2"/>
  </g>
  <g stroke="chocolate" stroke-width="1">
    <line x1="605" y1="419" x2="539" y2="297"/>
    <circle cx="605" cy="419" r="2"/>
    <circle cx="539" cy="297" r="2"/>
  </g>
  <g stroke="chocolate" stroke-width="1">
    <line x1="621" y1="369" x2="600" y2="339"/>
    <circle cx="621" cy="369" r="2"/>
    <circle cx="600" cy="339" r="2"/>
  </g>
  <g stroke="chocolate" stroke-width="1">
    <line x1="642" y1="374" x2="630" y2="357"/>
    <circle cx="642" cy="374" r="2"/>
    <circle cx="630" cy="357" r="2"/>
  </g>
  <g stroke="chocolate" stroke-width="1">
    <line x1="5" y1="357" x2="539" y2="297"/>
    <circle cx="5" cy="357" r="2"/>
    <circle cx="539" cy="297" r="2"/>
  </g>
  <g stroke="chocolate" stroke-width="1">
    <line x1="5" y1="357" x2="510" y2="302"/>
    <circle cx="5" cy="357" r="2"/>
    <circle cx="510" cy="302" r="2"/>
  </g>
  <g stroke="chocolate" stroke-width="1">
    <line x1="605" y1="419" x2="5" y2="357"/>
    <circle cx="605" cy="419" r="2"/>
    <circle cx="5" cy="357" r="2"/>
  </g>
  <g stroke="chocolate" stroke-width="1">
    <line x1="505" y1="388" x2="5" y2="357"/>
    <circle cx="505" cy="388" r="2"/>
    <circle cx="5" cy="357" r="2"/>
  </g>
  <g stroke="chocolate" stroke-width="1">
    <line x1="5" y1="357" x2="554" y2="324"/>
    <circle cx="5" cy="357" r="2"/>
    <circle cx="554" cy="324" r="2"/>
  </g>
  <g stroke="chocolate" stroke-width="1">
    <line x1="5" y1="357" x2="512" y2="332"/>
    <circle cx="5" cy="357" r="2"/>
    <circle cx="512" cy="332" r="2"/>
  </g>
  <g stroke="chocolate" stroke-width="1">
    <line x1="696" y1="389" x2="5" y2="357"/>
    <circle cx="696" cy="389" r="2"/>
    <circle cx="5" cy="357" r="2"/>
  </g>
  <g stroke="chocolate" stroke-width="1">
    <line x1="505" y1="374" x2="5" y2="357"/>
    <circle cx="505" cy="374" r="2"/>
    <circle cx="5" cy="357" r="2"/>
  </g>
  <g stroke="chocolate" stroke-width="1">
    <line x1="5" y1="357" x2="600" y2="339"/>
    <circle cx="5" cy="357" r="2"/>
    <circle cx="600" cy="339" r="2"/>
  </g>
  <g stroke="chocolate" stroke-width="1">
    <line x1="580" y1="373" x2="5" y2="357"/>
    <circle cx="580" cy="373" r="2"/>
    <circle cx="5" cy="357" r="2"/>
  </g>
  <g stroke="chocolate" stroke-width="1">
    <line x1="642" y1="374" x2="5" y2="357"/>
    <circle cx="642" cy="374" r="2"/>
    <circle cx="5" cy="357" r="2"/>
  </g>
  <g stroke="chocolate" stroke-width="1">
    <line x1="520" y1="368" x2="5" y2="357"/>
    <circle cx="520" cy="368" r="2"/>
    <circle cx="5" cy="357" r="2"/>
  </g>
  <g stroke="chocolate" stroke-width="1">
    <line x1="621" y1="369" x2="5" y2="357"/>
    <circle cx="621" cy="369" r="2"/>
    <circle cx="5" cy="357" r="2"/>
  </g>
  <g stroke="chocolate" stroke-width="1">
    <line x1="5" y1="357" x2="533" y2="347"/>
    <circle cx="5" cy="357" r="2"/>
    <circle cx="533" cy="347" r="2"/>
  </g>
  <g stroke="chocolate" stroke-width="1">
    <line x1="528" y1="365" x2="5" y2="357"/>
    <circle cx="528" cy="365" r="2"/>
    <circle cx="5" cy="357" r="2"/>
  </g>
  <g stroke="chocolate" stroke-width="1">
    <line x1="677" y1="366" x2="5" y2="357"/>
    <circle cx="677" cy="366" r="2"/>
    <circle cx="5" cy="357" r="2"/>
  </g>
  <g stroke="chocolate" stroke-width="1">
    <line x1="539" y1="363" x2="5" y2="357"/>
    <circle cx="539" cy="363" r="2"/>
    <circle cx="5" cy="357" r="2"/>
  </g>
  <g stroke="chocolate" stroke-width="1">
    <line x1="5" y1="357" x2="662" y2="350"/>
    <circle cx="5" cy="357" r="2"/>
    <circle cx="662" cy="350" r="2"/>
  </g>
  <g stroke="chocolate" stroke-width="1">
    <line x1="5" y1="357" x2="690" y2="352"/>
    <circle cx="5" cy="357" r="2"/>
    <circle cx="690" cy="352" r="2"/>
  </g>
  <g stroke="chocolate" stroke-width="1">
    <line x1="5" y1="357" x2="630" y2="357"/>
    <circle cx="5" cy="357" r="2"/>
    <circle cx="630" cy="357" r="2"/>
  </g>
  <g stroke="chocolate" stroke-width="1">
    <line x1="696" y1="389" x2="662" y2="350"/>
    <circle cx="696" cy="389" r="2"/>
    <circle cx="662" cy="350" r="2"/>
  </g>
  <g stroke="chocolate" stroke-width="1">
    <line x1="711" y1="374" x2="690" y2="352"/>
    <circle cx="711" cy="374" r="2"/>
    <circle cx="690" cy="352" r="2"/>
  </g>
  <g stroke="black" stroke-width="1">
    <line x1="108" y1="108" x2="608" y2="108"/>
    <line x1="108" y1="108" x2="108" y2="608"/>
    <line x1="608" y1="608" x2="108" y2="608"/>
    <line x1="608" y1="608" x2="608" y2="108"/>
    <line x1="208" y1="105" x2="208" y2="111"/>
    <line x1="105" y1="208" x2="111" y2="208"/>
    <line x1="208" y1="605" x2="208" y2="611"/>
    <line x1="605" y1="208" x2="611" y2="208"/>
    <line x1="308" y1="105" x2="308" y2="111"/>
    <line x1="105" y1="308" x2="111" y2="308"/>
    <line x1="308" y1="605" x2="308" y2="611"/>
    <line x1="605" y1="308" x2="611" y2="308"/>
    <line x1="408" y1="105" x2="408" y2="111"/>
    <line x1="105" y1="408" x2="111" y2="408"/>
    <line x1="408" y1="605" x2="408" y2="611"/>
    <line x1="605" y1="408" x2="611" y2="408"/>
    <line x1="508" y1="105" x2="508" y2="111"/>
    <line x1="105" y1="508" x2="111" y2="508"/>
    <line x1="508" y1="605" x2="508" y2="611"/>
    <line x1="605" y1="508" x2="611" y2="508"/>
  </g>
  <g stroke="gray" stroke-width="1" stroke-dasharray="5,5">
    <line x1="208" y1="108" x2="208" y2="608"/>
    <line x1="108" y1="208" x2="608" y2="208"/>
    <line x1="308" y1="108" x2="308" y2="608"/>
    <line x1="108" y1="308" x2="608" y2="308"/>
    <line x1="408" y1="108" x2="408" y2="608"/>
    <line x1="108" y1="408" x2="608" y2="408"/>
    <line x1="508" y1="108" x2="508" y2="608"/>
    <line x1="108" y1="508" x2="608" y2="508"/>
  </g>
</svg>
