<?xml version="1.0" standalone="no"?>
<!DOCTYPE svg PUBLIC "-//W3C//DTD SVG 1.1//EN" 
  "http://www.w3.org/Graphics/SVG/1.1/DTD/svg11.dtd">
<svg width="716" height="716" version="1.1" id="toplevel"
    xmlns="http://www.w3.org/2000/svg"
    xmlns:xlink="http://www.w3.org/1999/xlink">
  <polygon points="512,407 514,401 582,406 587,399 641,403 665,376 681,377 711,345 702,335 647,338 637,326 574,330 560,309 5,362"
           fill="bisque"/>
  <g stroke="chocolate" stroke-width="1">
    <line x1="600" y1="372" x2="610" y2="357"/>
    <circle cx="600" cy="372" r="2"/>
    <circle cx="610" cy="357" r="2"/>
  </g>
  <g stroke="chocolate" stroke-width="1">
    <line x1="582" y1="406" x2="637" y2="326"/>
    <circle cx="582" cy="406" r="2"/>
    <circle cx="637" cy="326" r="2"/>
  </g>
  <g stroke="chocolate" stroke-width="1">
    <line x1="551" y1="373" x2="559" y2="357"/>
    <circle cx="551" cy="373" r="2"/>
    <circle cx="559" cy="357" r="2"/>
  </g>
  <g stroke="chocolate" stroke-width="1">
    <line x1="534" y1="378" x2="560" y2="309"/>
    <circle cx="534" cy="378" r="2"/>
    <circle cx="560" cy="309" r="2"/>
  </g>
  <g stroke="chocolate" stroke-width="1">
    <line x1="527" y1="388" x2="541" y2="350"/>
    <circle cx="527" cy="388" r="2"/>
    <circle cx="541" cy="350" r="2"/>
  </g>
  <g stroke="chocolate" stroke-width="1">
    <line x1="641" y1="403" x2="702" y2="335"/>
    <circle cx="641" cy="403" r="2"/>
    <circle cx="702" cy="335" r="2"/>
  </g>
  <g stroke="chocolate" stroke-width="1">
    <line x1="681" y1="377" x2="711" y2="345"/>
    <circle cx="681" cy="377" r="2"/>
    <circle cx="711" cy="345" r="2"/>
  </g>
  <g stroke="chocolate" stroke-width="1">
    <line x1="512" y1="407" x2="527" y2="356"/>
    <circle cx="512" cy="407" r="2"/>
    <circle cx="527" cy="356" r="2"/>
  </g>
  <g stroke="chocolate" stroke-width="1">
    <line x1="508" y1="371" x2="513" y2="332"/>
    <circle cx="508" cy="371" r="2"/>
    <circle cx="513" cy="332" r="2"/>
  </g>
  <g stroke="chocolate" stroke-width="1">
    <line x1="505" y1="380" x2="507" y2="354"/>
    <circle cx="505" cy="380" r="2"/>
    <circle cx="507" cy="354" r="2"/>
  </g>
  <g stroke="chocolate" stroke-width="1">
    <line x1="505" y1="378" x2="506" y2="354"/>
    <circle cx="505" cy="378" r="2"/>
    <circle cx="506" cy="354" r="2"/>
  </g>
  <g stroke="chocolate" stroke-width="1">
    <line x1="505" y1="380" x2="505" y2="362"/>
    <circle cx="505" cy="380" r="2"/>
    <circle cx="505" cy="362" r="2"/>
  </g>
  <g stroke="chocolate" stroke-width="1">
    <line x1="508" y1="371" x2="506" y2="354"/>
    <circle cx="508" cy="371" r="2"/>
    <circle cx="506" cy="354" r="2"/>
  </g>
  <g stroke="chocolate" stroke-width="1">
    <line x1="512" y1="407" x2="507" y2="354"/>
    <circle cx="512" cy="407" r="2"/>
    <circle cx="507" cy="354" r="2"/>
  </g>
  <g stroke="chocolate" stroke-width="1">
    <line x1="527" y1="388" x2="513" y2="332"/>
    <circle cx="527" cy="388" r="2"/>
    <circle cx="513" cy="332" r="2"/>
  </g>
  <g stroke="chocolate" stroke-width="1">
    <line x1="534" y1="378" x2="527" y2="356"/>
    <circle cx="534" cy="378" r="2"/>
    <circle cx="527" cy="356" r="2"/>
  </g>
  <g stroke="chocolate" stroke-width="1">
    <line x1="551" y1="373" x2="541" y2="350"/>
    <circle cx="551" cy="373" r="2"/>
    <circle cx="541" cy="350" r="2"/>
  </g>
  <g stroke="chocolate" stroke-width="1">
    <line x1="582" y1="406" x2="559" y2="357"/>
    <circle cx="582" cy="406" r="2"/>
    <circle cx="559" cy="357" r="2"/>
  </g>
  <g stroke="chocolate" stroke-width="1">
    <line x1="600" y1="372" x2="560" y2="309"/>
    <circle cx="600" cy="372" r="2"/>
    <circle cx="560" cy="309" r="2"/>
  </g>
  <g stroke="chocolate" stroke-width="1">
    <line x1="641" y1="403" x2="610" y2="357"/>
    <circle cx="641" cy="403" r="2"/>
    <circle cx="610" cy="357" r="2"/>
  </g>
  <g stroke="chocolate" stroke-width="1">
    <line x1="5" y1="362" x2="560" y2="309"/>
    <circle cx="5" cy="362" r="2"/>
    <circle cx="560" cy="309" r="2"/>
  </g>
  <g stroke="chocolate" stroke-width="1">
    <line x1="512" y1="407" x2="5" y2="362"/>
    <circle cx="512" cy="407" r="2"/>
    <circle cx="5" cy="362" r="2"/>
  </g>
  <g stroke="chocolate" stroke-width="1">
    <line x1="582" y1="406" x2="5" y2="362"/>
    <circle cx="582" cy="406" r="2"/>
    <circle cx="5" cy="362" r="2"/>
  </g>
  <g stroke="chocolate" stroke-width="1">
    <line x1="641" y1="403" x2="5" y2="362"/>
    <circle cx="641" cy="403" r="2"/>
    <circle cx="5" cy="362" r="2"/>
  </g>
  <g stroke="chocolate" stroke-width="1">
    <line x1="5" y1="362" x2="513" y2="332"/>
    <circle cx="5" cy="362" r="2"/>
    <circle cx="513" cy="332" r="2"/>
  </g>
  <g stroke="chocolate" stroke-width="1">
    <line x1="5" y1="362" x2="637" y2="326"/>
    <circle cx="5" cy="362" r="2"/>
    <circle cx="637" cy="326" r="2"/>
  </g>
  <g stroke="chocolate" stroke-width="1">
    <line x1="527" y1="388" x2="5" y2="362"/>
    <circle cx="527" cy="388" r="2"/>
    <circle cx="5" cy="362" r="2"/>
  </g>
  <g stroke="chocolate" stroke-width="1">
    <line x1="5" y1="362" x2="702" y2="335"/>
    <circle cx="5" cy="362" r="2"/>
    <circle cx="702" cy="335" r="2"/>
  </g>
  <g stroke="chocolate" stroke-width="1">
    <line x1="505" y1="380" x2="5" y2="362"/>
    <circle cx="505" cy="380" r="2"/>
    <circle cx="5" cy="362" r="2"/>
  </g>
  <g stroke="chocolate" stroke-width="1">
    <line x1="505" y1="378" x2="5" y2="362"/>
    <circle cx="505" cy="378" r="2"/>
    <circle cx="5" cy="362" r="2"/>
  </g>
  <g stroke="chocolate" stroke-width="1">
    <line x1="534" y1="378" x2="5" y2="362"/>
    <circle cx="534" cy="378" r="2"/>
    <circle cx="5" cy="362" r="2"/>
  </g>
  <g stroke="chocolate" stroke-width="1">
    <line x1="5" y1="362" x2="541" y2="350"/>
    <circle cx="5" cy="362" r="2"/>
    <circle cx="541" cy="350" r="2"/>
  </g>
  <g stroke="chocolate" stroke-width="1">
    <line x1="681" y1="377" x2="5" y2="362"/>
    <circle cx="681" cy="377" r="2"/>
    <circle cx="5" cy="362" r="2"/>
  </g>
  <g stroke="chocolate" stroke-width="1">
    <line x1="551" y1="373" x2="5" y2="362"/>
    <circle cx="551" cy="373" r="2"/>
    <circle cx="5" cy="362" r="2"/>
  </g>
  <g stroke="chocolate" stroke-width="1">
    <line x1="508" y1="371" x2="5" y2="362"/>
    <circle cx="508" cy="371" r="2"/>
    <circle cx="5" cy="362" r="2"/>
  </g>
  <g stroke="chocolate" stroke-width="1">
    <line x1="600" y1="372" x2="5" y2="362"/>
    <circle cx="600" cy="372" r="2"/>
    <circle cx="5" cy="362" r="2"/>
  </g>
  <g stroke="chocolate" stroke-width="1">
    <line x1="5" y1="362" x2="507" y2="354"/>
    <circle cx="5" cy="362" r="2"/>
    <circle cx="507" cy="354" r="2"/>
  </g>
  <g stroke="chocolate" stroke-width="1">
    <line x1="5" y1="362" x2="506" y2="354"/>
    <circle cx="5" cy="362" r="2"/>
    <circle cx="506" cy="354" r="2"/>
  </g>
  <g stroke="chocolate" stroke-width="1">
    <line x1="5" y1="362" x2="527" y2="356"/>
    <circle cx="5" cy="362" r="2"/>
    <circle cx="527" cy="356" r="2"/>
  </g>
  <g stroke="chocolate" stroke-width="1">
    <line x1="5" y1="362" x2="559" y2="357"/>
    <circle cx="5" cy="362" r="2"/>
    <circle cx="559" cy="357" r="2"/>
  </g>
  <g stroke="chocolate" stroke-width="1">
    <line x1="5" y1="362" x2="610" y2="357"/>
    <circle cx="5" cy="362" r="2"/>
    <circle cx="610" cy="357" r="2"/>
  </g>
  <g stroke="chocolate" stroke-width="1">
    <line x1="5" y1="362" x2="505" y2="362"/>
    <circle cx="5" cy="362" r="2"/>
    <circle cx="505" cy="362" r="2"/>
  </g>
  <g stroke="chocolate" stroke-width="1">
    <line x1="681" y1="377" x2="637" y2="326"/>
    <circle cx="681" cy="377" r="2"/>
    <circle cx="637" cy="326" r="2"/>
  </g>
  <g stroke="chocolate" stroke-width="1">
    <line x1="711" y1="345" x2="702" y2="335"/>
    <circle cx="711" cy="345" r="2"/>
    <circle cx="702" cy="335" r="2"/>
  </g>
  <g stroke="black" stroke-width="1">
    <line x1="108" y1="108" x2="608" y2="108"/>
    <line x1="108" y1="108" x2="108" y2="608"/>
    <line x1="608" y1="608" x2="108" y2="608"/>
    <line x1="608" y1="608" x2="608" y2="108"/>
    <line x1="208" y1="105" x2="208" y2="111"/>
    <line x1="105" y1="208" x2="111" y2="208"/>
    <line x1="208" y1="605" x2="208" y2="611"/>
    <line x1="605" y1="208" x2="611" y2="208"/>
    <line x1="308" y1="105" x2="308" y2="111"/>
    <line x1="105" y1="308" x2="111" y2="308"/>
    <line x1="308" y1="605" x2="308" y2="611"/>
    <line x1="605" y1="308" x2="611" y2="308"/>
    <line x1="408" y1="105" x2="408" y2="111"/>
    <line x1="105" y1="408" x2="111" y2="408"/>
    <line x1="408" y1="605" x2="408" y2="611"/>
    <line x1="605" y1="408" x2="611" y2="408"/>
    <line x1="508" y1="105" x2="508" y2="111"/>
    <line x1="105" y1="508" x2="111" y2="508"/>
    <line x1="508" y1="605" x2="508" y2="611"/>
    <line x1="605" y1="508" x2="611" y2="508"/>
  </g>
  <g stroke="gray" stroke-width="1" stroke-dasharray="5,5">
    <line x1="208" y1="108" x2="208" y2="608"/>
    <line x1="108" y1="208" x2="608" y2="208"/>
    <line x1="308" y1="108" x2="308" y2="608"/>
    <line x1="108" y1="308" x2="608" y2="308"/>
    <line x1="408" y1="108" x2="408" y2="608"/>
    <line x1="108" y1="408" x2="608" y2="408"/>
    <line x1="508" y1="108" x2="508" y2="608"/>
    <line x1="108" y1="508" x2="608" y2="508"/>
  </g>
</svg>
