<?xml version="1.0" standalone="no"?>
<!DOCTYPE svg PUBLIC "-//W3C//DTD SVG 1.1//EN" 
  "http://www.w3.org/Graphics/SVG/1.1/DTD/svg11.dtd">
<svg width="530" height="530" version="1.1" id="toplevel"
    xmlns="http://www.w3.org/2000/svg"
    xmlns:xlink="http://www.w3.org/1999/xlink">
  <polygon points="122,525 162,505 435,505 435,361 483,335 435,244 435,5 309,5 47,439"
           fill="bisque"/>
  <g stroke="chocolate" stroke-width="1">
    <line x1="122" y1="525" x2="176" y2="451"/>
    <circle cx="122" cy="525" r="2"/>
    <circle cx="176" cy="451" r="2"/>
  </g>
  <g stroke="chocolate" stroke-width="1">
    <line x1="122" y1="525" x2="483" y2="335"/>
    <circle cx="122" cy="525" r="2"/>
    <circle cx="483" cy="335" r="2"/>
  </g>
  <g stroke="chocolate" stroke-width="1">
    <line x1="47" y1="439" x2="309" y2="5"/>
    <circle cx="47" cy="439" r="2"/>
    <circle cx="309" cy="5" r="2"/>
  </g>
  <g stroke="chocolate" stroke-width="1">
    <line x1="104" y1="505" x2="117" y2="408"/>
    <circle cx="104" cy="505" r="2"/>
    <circle cx="117" cy="408" r="2"/>
  </g>
  <g stroke="chocolate" stroke-width="1">
    <line x1="104" y1="505" x2="435" y2="505"/>
    <circle cx="104" cy="505" r="2"/>
    <circle cx="435" cy="505" r="2"/>
  </g>
  <g stroke="chocolate" stroke-width="1">
    <line x1="435" y1="505" x2="435" y2="5"/>
    <circle cx="435" cy="505" r="2"/>
    <circle cx="435" cy="5" r="2"/>
  </g>
  <g stroke="chocolate" stroke-width="1">
    <line x1="47" y1="439" x2="117" y2="408"/>
    <circle cx="47" cy="439" r="2"/>
    <circle cx="117" cy="408" r="2"/>
  </g>
  <g stroke="chocolate" stroke-width="1">
    <line x1="122" y1="525" x2="47" y2="439"/>
    <circle cx="122" cy="525" r="2"/>
    <circle cx="47" cy="439" r="2"/>
  </g>
  <g stroke="chocolate" stroke-width="1">
    <line x1="176" y1="451" x2="117" y2="408"/>
    <circle cx="176" cy="451" r="2"/>
    <circle cx="117" cy="408" r="2"/>
  </g>
  <g stroke="chocolate" stroke-width="1">
    <line x1="483" y1="335" x2="309" y2="5"/>
    <circle cx="483" cy="335" r="2"/>
    <circle cx="309" cy="5" r="2"/>
  </g>
  <g stroke="chocolate" stroke-width="1">
    <line x1="309" y1="5" x2="435" y2="5"/>
    <circle cx="309" cy="5" r="2"/>
    <circle cx="435" cy="5" r="2"/>
  </g>
  <g stroke="black" stroke-width="1">
    <line x1="15" y1="15" x2="515" y2="15"/>
    <line x1="15" y1="15" x2="15" y2="515"/>
    <line x1="515" y1="515" x2="15" y2="515"/>
    <line x1="515" y1="515" x2="515" y2="15"/>
    <line x1="115" y1="12" x2="115" y2="18"/>
    <line x1="12" y1="115" x2="18" y2="115"/>
    <line x1="115" y1="512" x2="115" y2="518"/>
    <line x1="512" y1="115" x2="518" y2="115"/>
    <line x1="215" y1="12" x2="215" y2="18"/>
    <line x1="12" y1="215" x2="18" y2="215"/>
    <line x1="215" y1="512" x2="215" y2="518"/>
    <line x1="512" y1="215" x2="518" y2="215"/>
    <line x1="315" y1="12" x2="315" y2="18"/>
    <line x1="12" y1="315" x2="18" y2="315"/>
    <line x1="315" y1="512" x2="315" y2="518"/>
    <line x1="512" y1="315" x2="518" y2="315"/>
    <line x1="415" y1="12" x2="415" y2="18"/>
    <line x1="12" y1="415" x2="18" y2="415"/>
    <line x1="415" y1="512" x2="415" y2="518"/>
    <line x1="512" y1="415" x2="518" y2="415"/>
  </g>
  <g stroke="gray" stroke-width="1" stroke-dasharray="5,5">
    <line x1="115" y1="15" x2="115" y2="515"/>
    <line x1="15" y1="115" x2="515" y2="115"/>
    <line x1="215" y1="15" x2="215" y2="515"/>
    <line x1="15" y1="215" x2="515" y2="215"/>
    <line x1="315" y1="15" x2="315" y2="515"/>
    <line x1="15" y1="315" x2="515" y2="315"/>
    <line x1="415" y1="15" x2="415" y2="515"/>
    <line x1="15" y1="415" x2="515" y2="415"/>
  </g>
</svg>
