<?xml version="1.0" standalone="no"?>
<!DOCTYPE svg PUBLIC "-//W3C//DTD SVG 1.1//EN" 
  "http://www.w3.org/Graphics/SVG/1.1/DTD/svg11.dtd">
<svg width="510" height="510" version="1.1" id="toplevel"
    xmlns="http://www.w3.org/2000/svg"
    xmlns:xlink="http://www.w3.org/1999/xlink">
  <polygon points="168,428 244,193 130,82 71,102 98,181 69,271 65,274 32,387"
           fill="bisque"/>
  <g stroke="chocolate" stroke-width="1">
    <line x1="74" y1="399" x2="65" y2="274"/>
    <circle cx="74" cy="399" r="2"/>
    <circle cx="65" cy="274" r="2"/>
  </g>
  <g stroke="chocolate" stroke-width="1">
    <line x1="168" y1="428" x2="237" y2="194"/>
    <circle cx="168" cy="428" r="2"/>
    <circle cx="237" cy="194" r="2"/>
  </g>
  <g stroke="chocolate" stroke-width="1">
    <line x1="78" y1="401" x2="65" y2="274"/>
    <circle cx="78" cy="401" r="2"/>
    <circle cx="65" cy="274" r="2"/>
  </g>
  <g stroke="chocolate" stroke-width="1">
    <line x1="168" y1="428" x2="244" y2="193"/>
    <circle cx="168" cy="428" r="2"/>
    <circle cx="244" cy="193" r="2"/>
  </g>
  <g stroke="chocolate" stroke-width="1">
    <line x1="238" y1="211" x2="237" y2="194"/>
    <circle cx="238" cy="211" r="2"/>
    <circle cx="237" cy="194" r="2"/>
  </g>
  <g stroke="chocolate" stroke-width="1">
    <line x1="32" y1="387" x2="65" y2="274"/>
    <circle cx="32" cy="387" r="2"/>
    <circle cx="65" cy="274" r="2"/>
  </g>
  <g stroke="chocolate" stroke-width="1">
    <line x1="32" y1="387" x2="130" y2="82"/>
    <circle cx="32" cy="387" r="2"/>
    <circle cx="130" cy="82" r="2"/>
  </g>
  <g stroke="chocolate" stroke-width="1">
    <line x1="176" y1="405" x2="71" y2="102"/>
    <circle cx="176" cy="405" r="2"/>
    <circle cx="71" cy="102" r="2"/>
  </g>
  <g stroke="chocolate" stroke-width="1">
    <line x1="151" y1="423" x2="99" y2="284"/>
    <circle cx="151" cy="423" r="2"/>
    <circle cx="99" cy="284" r="2"/>
  </g>
  <g stroke="chocolate" stroke-width="1">
    <line x1="74" y1="399" x2="237" y2="194"/>
    <circle cx="74" cy="399" r="2"/>
    <circle cx="237" cy="194" r="2"/>
  </g>
  <g stroke="chocolate" stroke-width="1">
    <line x1="78" y1="401" x2="238" y2="211"/>
    <circle cx="78" cy="401" r="2"/>
    <circle cx="238" cy="211" r="2"/>
  </g>
  <g stroke="chocolate" stroke-width="1">
    <line x1="237" y1="194" x2="223" y2="173"/>
    <circle cx="237" cy="194" r="2"/>
    <circle cx="223" cy="173" r="2"/>
  </g>
  <g stroke="chocolate" stroke-width="1">
    <line x1="151" y1="423" x2="176" y2="405"/>
    <circle cx="151" cy="423" r="2"/>
    <circle cx="176" cy="405" r="2"/>
  </g>
  <g stroke="chocolate" stroke-width="1">
    <line x1="65" y1="274" x2="223" y2="173"/>
    <circle cx="65" cy="274" r="2"/>
    <circle cx="223" cy="173" r="2"/>
  </g>
  <g stroke="chocolate" stroke-width="1">
    <line x1="244" y1="193" x2="130" y2="82"/>
    <circle cx="244" cy="193" r="2"/>
    <circle cx="130" cy="82" r="2"/>
  </g>
  <g stroke="chocolate" stroke-width="1">
    <line x1="65" y1="274" x2="237" y2="194"/>
    <circle cx="65" cy="274" r="2"/>
    <circle cx="237" cy="194" r="2"/>
  </g>
  <g stroke="chocolate" stroke-width="1">
    <line x1="168" y1="428" x2="32" y2="387"/>
    <circle cx="168" cy="428" r="2"/>
    <circle cx="32" cy="387" r="2"/>
  </g>
  <g stroke="chocolate" stroke-width="1">
    <line x1="67" y1="296" x2="99" y2="284"/>
    <circle cx="67" cy="296" r="2"/>
    <circle cx="99" cy="284" r="2"/>
  </g>
  <g stroke="chocolate" stroke-width="1">
    <line x1="199" y1="324" x2="65" y2="274"/>
    <circle cx="199" cy="324" r="2"/>
    <circle cx="65" cy="274" r="2"/>
  </g>
  <g stroke="chocolate" stroke-width="1">
    <line x1="202" y1="314" x2="65" y2="274"/>
    <circle cx="202" cy="314" r="2"/>
    <circle cx="65" cy="274" r="2"/>
  </g>
  <g stroke="chocolate" stroke-width="1">
    <line x1="199" y1="324" x2="67" y2="296"/>
    <circle cx="199" cy="324" r="2"/>
    <circle cx="67" cy="296" r="2"/>
  </g>
  <g stroke="chocolate" stroke-width="1">
    <line x1="237" y1="194" x2="244" y2="193"/>
    <circle cx="237" cy="194" r="2"/>
    <circle cx="244" cy="193" r="2"/>
  </g>
  <g stroke="chocolate" stroke-width="1">
    <line x1="71" y1="102" x2="130" y2="82"/>
    <circle cx="71" cy="102" r="2"/>
    <circle cx="130" cy="82" r="2"/>
  </g>
  <g stroke="black" stroke-width="1">
    <line x1="5" y1="5" x2="505" y2="5"/>
    <line x1="5" y1="5" x2="5" y2="505"/>
    <line x1="505" y1="505" x2="5" y2="505"/>
    <line x1="505" y1="505" x2="505" y2="5"/>
    <line x1="105" y1="2" x2="105" y2="8"/>
    <line x1="2" y1="105" x2="8" y2="105"/>
    <line x1="105" y1="502" x2="105" y2="508"/>
    <line x1="502" y1="105" x2="508" y2="105"/>
    <line x1="205" y1="2" x2="205" y2="8"/>
    <line x1="2" y1="205" x2="8" y2="205"/>
    <line x1="205" y1="502" x2="205" y2="508"/>
    <line x1="502" y1="205" x2="508" y2="205"/>
    <line x1="305" y1="2" x2="305" y2="8"/>
    <line x1="2" y1="305" x2="8" y2="305"/>
    <line x1="305" y1="502" x2="305" y2="508"/>
    <line x1="502" y1="305" x2="508" y2="305"/>
    <line x1="405" y1="2" x2="405" y2="8"/>
    <line x1="2" y1="405" x2="8" y2="405"/>
    <line x1="405" y1="502" x2="405" y2="508"/>
    <line x1="502" y1="405" x2="508" y2="405"/>
  </g>
  <g stroke="gray" stroke-width="1" stroke-dasharray="5,5">
    <line x1="105" y1="5" x2="105" y2="505"/>
    <line x1="5" y1="105" x2="505" y2="105"/>
    <line x1="205" y1="5" x2="205" y2="505"/>
    <line x1="5" y1="205" x2="505" y2="205"/>
    <line x1="305" y1="5" x2="305" y2="505"/>
    <line x1="5" y1="305" x2="505" y2="305"/>
    <line x1="405" y1="5" x2="405" y2="505"/>
    <line x1="5" y1="405" x2="505" y2="405"/>
  </g>
</svg>
