<?xml version="1.0" standalone="no"?>
<!DOCTYPE svg PUBLIC "-//W3C//DTD SVG 1.1//EN" 
  "http://www.w3.org/Graphics/SVG/1.1/DTD/svg11.dtd">
<svg width="510" height="510" version="1.1" id="toplevel"
    xmlns="http://www.w3.org/2000/svg"
    xmlns:xlink="http://www.w3.org/1999/xlink">
  <polygon points="229,417 237,414 446,175 422,119 303,135 151,93 130,108 167,224 164,227"
           fill="bisque"/>
  <g stroke="chocolate" stroke-width="1">
    <line x1="237" y1="414" x2="290" y2="139"/>
    <circle cx="237" cy="414" r="2"/>
    <circle cx="290" cy="139" r="2"/>
  </g>
  <g stroke="chocolate" stroke-width="1">
    <line x1="288" y1="148" x2="293" y2="137"/>
    <circle cx="288" cy="148" r="2"/>
    <circle cx="293" cy="137" r="2"/>
  </g>
  <g stroke="chocolate" stroke-width="1">
    <line x1="237" y1="414" x2="446" y2="175"/>
    <circle cx="237" cy="414" r="2"/>
    <circle cx="446" cy="175" r="2"/>
  </g>
  <g stroke="chocolate" stroke-width="1">
    <line x1="271" y1="255" x2="319" y2="188"/>
    <circle cx="271" cy="255" r="2"/>
    <circle cx="319" cy="188" r="2"/>
  </g>
  <g stroke="chocolate" stroke-width="1">
    <line x1="289" y1="355" x2="288" y2="148"/>
    <circle cx="289" cy="355" r="2"/>
    <circle cx="288" cy="148" r="2"/>
  </g>
  <g stroke="chocolate" stroke-width="1">
    <line x1="223" y1="363" x2="202" y2="198"/>
    <circle cx="223" cy="363" r="2"/>
    <circle cx="202" cy="198" r="2"/>
  </g>
  <g stroke="chocolate" stroke-width="1">
    <line x1="229" y1="417" x2="130" y2="108"/>
    <circle cx="229" cy="417" r="2"/>
    <circle cx="130" cy="108" r="2"/>
  </g>
  <g stroke="chocolate" stroke-width="1">
    <line x1="229" y1="417" x2="164" y2="227"/>
    <circle cx="229" cy="417" r="2"/>
    <circle cx="164" cy="227" r="2"/>
  </g>
  <g stroke="chocolate" stroke-width="1">
    <line x1="357" y1="171" x2="422" y2="119"/>
    <circle cx="357" cy="171" r="2"/>
    <circle cx="422" cy="119" r="2"/>
  </g>
  <g stroke="chocolate" stroke-width="1">
    <line x1="229" y1="417" x2="237" y2="414"/>
    <circle cx="229" cy="417" r="2"/>
    <circle cx="237" cy="414" r="2"/>
  </g>
  <g stroke="chocolate" stroke-width="1">
    <line x1="190" y1="184" x2="151" y2="93"/>
    <circle cx="190" cy="184" r="2"/>
    <circle cx="151" cy="93" r="2"/>
  </g>
  <g stroke="chocolate" stroke-width="1">
    <line x1="290" y1="139" x2="293" y2="137"/>
    <circle cx="290" cy="139" r="2"/>
    <circle cx="293" cy="137" r="2"/>
  </g>
  <g stroke="chocolate" stroke-width="1">
    <line x1="164" y1="227" x2="202" y2="198"/>
    <circle cx="164" cy="227" r="2"/>
    <circle cx="202" cy="198" r="2"/>
  </g>
  <g stroke="chocolate" stroke-width="1">
    <line x1="223" y1="363" x2="289" y2="355"/>
    <circle cx="223" cy="363" r="2"/>
    <circle cx="289" cy="355" r="2"/>
  </g>
  <g stroke="chocolate" stroke-width="1">
    <line x1="446" y1="175" x2="422" y2="119"/>
    <circle cx="446" cy="175" r="2"/>
    <circle cx="422" cy="119" r="2"/>
  </g>
  <g stroke="chocolate" stroke-width="1">
    <line x1="366" y1="267" x2="290" y2="139"/>
    <circle cx="366" cy="267" r="2"/>
    <circle cx="290" cy="139" r="2"/>
  </g>
  <g stroke="chocolate" stroke-width="1">
    <line x1="130" y1="108" x2="151" y2="93"/>
    <circle cx="130" cy="108" r="2"/>
    <circle cx="151" cy="93" r="2"/>
  </g>
  <g stroke="chocolate" stroke-width="1">
    <line x1="190" y1="184" x2="303" y2="136"/>
    <circle cx="190" cy="184" r="2"/>
    <circle cx="303" cy="136" r="2"/>
  </g>
  <g stroke="chocolate" stroke-width="1">
    <line x1="383" y1="247" x2="303" y2="136"/>
    <circle cx="383" cy="247" r="2"/>
    <circle cx="303" cy="136" r="2"/>
  </g>
  <g stroke="chocolate" stroke-width="1">
    <line x1="336" y1="301" x2="264" y2="225"/>
    <circle cx="336" cy="301" r="2"/>
    <circle cx="264" cy="225" r="2"/>
  </g>
  <g stroke="chocolate" stroke-width="1">
    <line x1="401" y1="226" x2="357" y2="171"/>
    <circle cx="401" cy="226" r="2"/>
    <circle cx="357" cy="171" r="2"/>
  </g>
  <g stroke="chocolate" stroke-width="1">
    <line x1="336" y1="301" x2="271" y2="255"/>
    <circle cx="336" cy="301" r="2"/>
    <circle cx="271" cy="255" r="2"/>
  </g>
  <g stroke="chocolate" stroke-width="1">
    <line x1="164" y1="227" x2="264" y2="225"/>
    <circle cx="164" cy="227" r="2"/>
    <circle cx="264" cy="225" r="2"/>
  </g>
  <g stroke="chocolate" stroke-width="1">
    <line x1="280" y1="192" x2="319" y2="188"/>
    <circle cx="280" cy="192" r="2"/>
    <circle cx="319" cy="188" r="2"/>
  </g>
  <g stroke="chocolate" stroke-width="1">
    <line x1="366" y1="267" x2="202" y2="198"/>
    <circle cx="366" cy="267" r="2"/>
    <circle cx="202" cy="198" r="2"/>
  </g>
  <g stroke="chocolate" stroke-width="1">
    <line x1="293" y1="137" x2="422" y2="119"/>
    <circle cx="293" cy="137" r="2"/>
    <circle cx="422" cy="119" r="2"/>
  </g>
  <g stroke="chocolate" stroke-width="1">
    <line x1="383" y1="247" x2="280" y2="192"/>
    <circle cx="383" cy="247" r="2"/>
    <circle cx="280" cy="192" r="2"/>
  </g>
  <g stroke="chocolate" stroke-width="1">
    <line x1="401" y1="226" x2="205" y2="108"/>
    <circle cx="401" cy="226" r="2"/>
    <circle cx="205" cy="108" r="2"/>
  </g>
  <g stroke="chocolate" stroke-width="1">
    <line x1="130" y1="108" x2="205" y2="108"/>
    <circle cx="130" cy="108" r="2"/>
    <circle cx="205" cy="108" r="2"/>
  </g>
  <g stroke="chocolate" stroke-width="1">
    <line x1="446" y1="175" x2="151" y2="93"/>
    <circle cx="446" cy="175" r="2"/>
    <circle cx="151" cy="93" r="2"/>
  </g>
  <g stroke="black" stroke-width="1">
    <line x1="5" y1="5" x2="505" y2="5"/>
    <line x1="5" y1="5" x2="5" y2="505"/>
    <line x1="505" y1="505" x2="5" y2="505"/>
    <line x1="505" y1="505" x2="505" y2="5"/>
    <line x1="105" y1="2" x2="105" y2="8"/>
    <line x1="2" y1="105" x2="8" y2="105"/>
    <line x1="105" y1="502" x2="105" y2="508"/>
    <line x1="502" y1="105" x2="508" y2="105"/>
    <line x1="205" y1="2" x2="205" y2="8"/>
    <line x1="2" y1="205" x2="8" y2="205"/>
    <line x1="205" y1="502" x2="205" y2="508"/>
    <line x1="502" y1="205" x2="508" y2="205"/>
    <line x1="305" y1="2" x2="305" y2="8"/>
    <line x1="2" y1="305" x2="8" y2="305"/>
    <line x1="305" y1="502" x2="305" y2="508"/>
    <line x1="502" y1="305" x2="508" y2="305"/>
    <line x1="405" y1="2" x2="405" y2="8"/>
    <line x1="2" y1="405" x2="8" y2="405"/>
    <line x1="405" y1="502" x2="405" y2="508"/>
    <line x1="502" y1="405" x2="508" y2="405"/>
  </g>
  <g stroke="gray" stroke-width="1" stroke-dasharray="5,5">
    <line x1="105" y1="5" x2="105" y2="505"/>
    <line x1="5" y1="105" x2="505" y2="105"/>
    <line x1="205" y1="5" x2="205" y2="505"/>
    <line x1="5" y1="205" x2="505" y2="205"/>
    <line x1="305" y1="5" x2="305" y2="505"/>
    <line x1="5" y1="305" x2="505" y2="305"/>
    <line x1="405" y1="5" x2="405" y2="505"/>
    <line x1="5" y1="405" x2="505" y2="405"/>
  </g>
</svg>
