<?xml version="1.0" standalone="no"?>
<!DOCTYPE svg PUBLIC "-//W3C//DTD SVG 1.1//EN" 
  "http://www.w3.org/Graphics/SVG/1.1/DTD/svg11.dtd">
<svg width="510" height="510" version="1.1" id="toplevel"
    xmlns="http://www.w3.org/2000/svg"
    xmlns:xlink="http://www.w3.org/1999/xlink">
  <polygon points="256,478 272,404 278,399 357,129 392,99 372,76 374,71 329,32 179,94 118,109 188,463"
           fill="bisque"/>
  <g stroke="chocolate" stroke-width="1">
    <line x1="278" y1="399" x2="374" y2="71"/>
    <circle cx="278" cy="399" r="2"/>
    <circle cx="374" cy="71" r="2"/>
  </g>
  <g stroke="chocolate" stroke-width="1">
    <line x1="251" y1="334" x2="329" y2="32"/>
    <circle cx="251" cy="334" r="2"/>
    <circle cx="329" cy="32" r="2"/>
  </g>
  <g stroke="chocolate" stroke-width="1">
    <line x1="256" y1="478" x2="352" y2="51"/>
    <circle cx="256" cy="478" r="2"/>
    <circle cx="352" cy="51" r="2"/>
  </g>
  <g stroke="chocolate" stroke-width="1">
    <line x1="188" y1="463" x2="278" y2="399"/>
    <circle cx="188" cy="463" r="2"/>
    <circle cx="278" cy="399" r="2"/>
  </g>
  <g stroke="chocolate" stroke-width="1">
    <line x1="156" y1="300" x2="392" y2="99"/>
    <circle cx="156" cy="300" r="2"/>
    <circle cx="392" cy="99" r="2"/>
  </g>
  <g stroke="chocolate" stroke-width="1">
    <line x1="188" y1="463" x2="118" y2="109"/>
    <circle cx="188" cy="463" r="2"/>
    <circle cx="118" cy="109" r="2"/>
  </g>
  <g stroke="chocolate" stroke-width="1">
    <line x1="156" y1="103" x2="329" y2="32"/>
    <circle cx="156" cy="103" r="2"/>
    <circle cx="329" cy="32" r="2"/>
  </g>
  <g stroke="chocolate" stroke-width="1">
    <line x1="278" y1="399" x2="156" y2="103"/>
    <circle cx="278" cy="399" r="2"/>
    <circle cx="156" cy="103" r="2"/>
  </g>
  <g stroke="chocolate" stroke-width="1">
    <line x1="256" y1="478" x2="188" y2="463"/>
    <circle cx="256" cy="478" r="2"/>
    <circle cx="188" cy="463" r="2"/>
  </g>
  <g stroke="chocolate" stroke-width="1">
    <line x1="118" y1="109" x2="352" y2="51"/>
    <circle cx="118" cy="109" r="2"/>
    <circle cx="352" cy="51" r="2"/>
  </g>
  <g stroke="chocolate" stroke-width="1">
    <line x1="118" y1="109" x2="374" y2="71"/>
    <circle cx="118" cy="109" r="2"/>
    <circle cx="374" cy="71" r="2"/>
  </g>
  <g stroke="chocolate" stroke-width="1">
    <line x1="294" y1="345" x2="251" y2="334"/>
    <circle cx="294" cy="345" r="2"/>
    <circle cx="251" cy="334" r="2"/>
  </g>
  <g stroke="chocolate" stroke-width="1">
    <line x1="294" y1="345" x2="156" y2="300"/>
    <circle cx="294" cy="345" r="2"/>
    <circle cx="156" cy="300" r="2"/>
  </g>
  <g stroke="chocolate" stroke-width="1">
    <line x1="392" y1="99" x2="352" y2="51"/>
    <circle cx="392" cy="99" r="2"/>
    <circle cx="352" cy="51" r="2"/>
  </g>
  <g stroke="chocolate" stroke-width="1">
    <line x1="374" y1="71" x2="329" y2="32"/>
    <circle cx="374" cy="71" r="2"/>
    <circle cx="329" cy="32" r="2"/>
  </g>
  <g stroke="black" stroke-width="1">
    <line x1="5" y1="5" x2="505" y2="5"/>
    <line x1="5" y1="5" x2="5" y2="505"/>
    <line x1="505" y1="505" x2="5" y2="505"/>
    <line x1="505" y1="505" x2="505" y2="5"/>
    <line x1="105" y1="2" x2="105" y2="8"/>
    <line x1="2" y1="105" x2="8" y2="105"/>
    <line x1="105" y1="502" x2="105" y2="508"/>
    <line x1="502" y1="105" x2="508" y2="105"/>
    <line x1="205" y1="2" x2="205" y2="8"/>
    <line x1="2" y1="205" x2="8" y2="205"/>
    <line x1="205" y1="502" x2="205" y2="508"/>
    <line x1="502" y1="205" x2="508" y2="205"/>
    <line x1="305" y1="2" x2="305" y2="8"/>
    <line x1="2" y1="305" x2="8" y2="305"/>
    <line x1="305" y1="502" x2="305" y2="508"/>
    <line x1="502" y1="305" x2="508" y2="305"/>
    <line x1="405" y1="2" x2="405" y2="8"/>
    <line x1="2" y1="405" x2="8" y2="405"/>
    <line x1="405" y1="502" x2="405" y2="508"/>
    <line x1="502" y1="405" x2="508" y2="405"/>
  </g>
  <g stroke="gray" stroke-width="1" stroke-dasharray="5,5">
    <line x1="105" y1="5" x2="105" y2="505"/>
    <line x1="5" y1="105" x2="505" y2="105"/>
    <line x1="205" y1="5" x2="205" y2="505"/>
    <line x1="5" y1="205" x2="505" y2="205"/>
    <line x1="305" y1="5" x2="305" y2="505"/>
    <line x1="5" y1="305" x2="505" y2="305"/>
    <line x1="405" y1="5" x2="405" y2="505"/>
    <line x1="5" y1="405" x2="505" y2="405"/>
  </g>
</svg>
