<?xml version="1.0" standalone="no"?>
<!DOCTYPE svg PUBLIC "-//W3C//DTD SVG 1.1//EN" 
  "http://www.w3.org/Graphics/SVG/1.1/DTD/svg11.dtd">
<svg width="510" height="510" version="1.1" id="toplevel"
    xmlns="http://www.w3.org/2000/svg"
    xmlns:xlink="http://www.w3.org/1999/xlink">
  <polygon points="355,365 439,240 366,159 271,181 261,178 264,183 210,196 165,145 71,228"
           fill="bisque"/>
  <g stroke="chocolate" stroke-width="1">
    <line x1="316" y1="346" x2="318" y2="295"/>
    <circle cx="316" cy="346" r="2"/>
    <circle cx="318" cy="295" r="2"/>
  </g>
  <g stroke="chocolate" stroke-width="1">
    <line x1="208" y1="294" x2="195" y2="208"/>
    <circle cx="208" cy="294" r="2"/>
    <circle cx="195" cy="208" r="2"/>
  </g>
  <g stroke="chocolate" stroke-width="1">
    <line x1="318" y1="295" x2="366" y2="159"/>
    <circle cx="318" cy="295" r="2"/>
    <circle cx="366" cy="159" r="2"/>
  </g>
  <g stroke="chocolate" stroke-width="1">
    <line x1="355" y1="365" x2="439" y2="240"/>
    <circle cx="355" cy="365" r="2"/>
    <circle cx="439" cy="240" r="2"/>
  </g>
  <g stroke="chocolate" stroke-width="1">
    <line x1="349" y1="359" x2="261" y2="178"/>
    <circle cx="349" cy="359" r="2"/>
    <circle cx="261" cy="178" r="2"/>
  </g>
  <g stroke="chocolate" stroke-width="1">
    <line x1="318" y1="295" x2="393" y2="190"/>
    <circle cx="318" cy="295" r="2"/>
    <circle cx="393" cy="190" r="2"/>
  </g>
  <g stroke="chocolate" stroke-width="1">
    <line x1="316" y1="346" x2="331" y2="332"/>
    <circle cx="316" cy="346" r="2"/>
    <circle cx="331" cy="332" r="2"/>
  </g>
  <g stroke="chocolate" stroke-width="1">
    <line x1="357" y1="362" x2="165" y2="145"/>
    <circle cx="357" cy="362" r="2"/>
    <circle cx="165" cy="145" r="2"/>
  </g>
  <g stroke="chocolate" stroke-width="1">
    <line x1="355" y1="365" x2="349" y2="359"/>
    <circle cx="355" cy="365" r="2"/>
    <circle cx="349" cy="359" r="2"/>
  </g>
  <g stroke="chocolate" stroke-width="1">
    <line x1="439" y1="240" x2="366" y2="159"/>
    <circle cx="439" cy="240" r="2"/>
    <circle cx="366" cy="159" r="2"/>
  </g>
  <g stroke="chocolate" stroke-width="1">
    <line x1="71" y1="228" x2="165" y2="145"/>
    <circle cx="71" cy="228" r="2"/>
    <circle cx="165" cy="145" r="2"/>
  </g>
  <g stroke="chocolate" stroke-width="1">
    <line x1="208" y1="294" x2="393" y2="190"/>
    <circle cx="208" cy="294" r="2"/>
    <circle cx="393" cy="190" r="2"/>
  </g>
  <g stroke="chocolate" stroke-width="1">
    <line x1="355" y1="365" x2="71" y2="228"/>
    <circle cx="355" cy="365" r="2"/>
    <circle cx="71" cy="228" r="2"/>
  </g>
  <g stroke="chocolate" stroke-width="1">
    <line x1="357" y1="362" x2="349" y2="359"/>
    <circle cx="357" cy="362" r="2"/>
    <circle cx="349" cy="359" r="2"/>
  </g>
  <g stroke="chocolate" stroke-width="1">
    <line x1="439" y1="240" x2="261" y2="178"/>
    <circle cx="439" cy="240" r="2"/>
    <circle cx="261" cy="178" r="2"/>
  </g>
  <g stroke="chocolate" stroke-width="1">
    <line x1="71" y1="228" x2="366" y2="159"/>
    <circle cx="71" cy="228" r="2"/>
    <circle cx="366" cy="159" r="2"/>
  </g>
  <g stroke="chocolate" stroke-width="1">
    <line x1="71" y1="228" x2="195" y2="208"/>
    <circle cx="71" cy="228" r="2"/>
    <circle cx="195" cy="208" r="2"/>
  </g>
  <g stroke="black" stroke-width="1">
    <line x1="5" y1="5" x2="505" y2="5"/>
    <line x1="5" y1="5" x2="5" y2="505"/>
    <line x1="505" y1="505" x2="5" y2="505"/>
    <line x1="505" y1="505" x2="505" y2="5"/>
    <line x1="105" y1="2" x2="105" y2="8"/>
    <line x1="2" y1="105" x2="8" y2="105"/>
    <line x1="105" y1="502" x2="105" y2="508"/>
    <line x1="502" y1="105" x2="508" y2="105"/>
    <line x1="205" y1="2" x2="205" y2="8"/>
    <line x1="2" y1="205" x2="8" y2="205"/>
    <line x1="205" y1="502" x2="205" y2="508"/>
    <line x1="502" y1="205" x2="508" y2="205"/>
    <line x1="305" y1="2" x2="305" y2="8"/>
    <line x1="2" y1="305" x2="8" y2="305"/>
    <line x1="305" y1="502" x2="305" y2="508"/>
    <line x1="502" y1="305" x2="508" y2="305"/>
    <line x1="405" y1="2" x2="405" y2="8"/>
    <line x1="2" y1="405" x2="8" y2="405"/>
    <line x1="405" y1="502" x2="405" y2="508"/>
    <line x1="502" y1="405" x2="508" y2="405"/>
  </g>
  <g stroke="gray" stroke-width="1" stroke-dasharray="5,5">
    <line x1="105" y1="5" x2="105" y2="505"/>
    <line x1="5" y1="105" x2="505" y2="105"/>
    <line x1="205" y1="5" x2="205" y2="505"/>
    <line x1="5" y1="205" x2="505" y2="205"/>
    <line x1="305" y1="5" x2="305" y2="505"/>
    <line x1="5" y1="305" x2="505" y2="305"/>
    <line x1="405" y1="5" x2="405" y2="505"/>
    <line x1="5" y1="405" x2="505" y2="405"/>
  </g>
</svg>
