<?xml version="1.0" standalone="no"?>
<!DOCTYPE svg PUBLIC "-//W3C//DTD SVG 1.1//EN" 
  "http://www.w3.org/Graphics/SVG/1.1/DTD/svg11.dtd">
<svg width="510" height="510" version="1.1" id="toplevel"
    xmlns="http://www.w3.org/2000/svg"
    xmlns:xlink="http://www.w3.org/1999/xlink">
  <polygon points="257,406 372,253 360,137 272,104 244,178 224,163 138,278 152,293 143,295 154,355"
           fill="bisque"/>
  <g stroke="chocolate" stroke-width="1">
    <line x1="337" y1="300" x2="349" y2="257"/>
    <circle cx="337" cy="300" r="2"/>
    <circle cx="349" cy="257" r="2"/>
  </g>
  <g stroke="chocolate" stroke-width="1">
    <line x1="257" y1="406" x2="372" y2="253"/>
    <circle cx="257" cy="406" r="2"/>
    <circle cx="372" cy="253" r="2"/>
  </g>
  <g stroke="chocolate" stroke-width="1">
    <line x1="187" y1="330" x2="272" y2="104"/>
    <circle cx="187" cy="330" r="2"/>
    <circle cx="272" cy="104" r="2"/>
  </g>
  <g stroke="chocolate" stroke-width="1">
    <line x1="225" y1="371" x2="324" y2="238"/>
    <circle cx="225" cy="371" r="2"/>
    <circle cx="324" cy="238" r="2"/>
  </g>
  <g stroke="chocolate" stroke-width="1">
    <line x1="349" y1="283" x2="349" y2="257"/>
    <circle cx="349" cy="283" r="2"/>
    <circle cx="349" cy="257" r="2"/>
  </g>
  <g stroke="chocolate" stroke-width="1">
    <line x1="138" y1="278" x2="224" y2="163"/>
    <circle cx="138" cy="278" r="2"/>
    <circle cx="224" cy="163" r="2"/>
  </g>
  <g stroke="chocolate" stroke-width="1">
    <line x1="372" y1="253" x2="360" y2="137"/>
    <circle cx="372" cy="253" r="2"/>
    <circle cx="360" cy="137" r="2"/>
  </g>
  <g stroke="chocolate" stroke-width="1">
    <line x1="154" y1="355" x2="143" y2="295"/>
    <circle cx="154" cy="355" r="2"/>
    <circle cx="143" cy="295" r="2"/>
  </g>
  <g stroke="chocolate" stroke-width="1">
    <line x1="225" y1="371" x2="337" y2="300"/>
    <circle cx="225" cy="371" r="2"/>
    <circle cx="337" cy="300" r="2"/>
  </g>
  <g stroke="chocolate" stroke-width="1">
    <line x1="154" y1="355" x2="349" y2="257"/>
    <circle cx="154" cy="355" r="2"/>
    <circle cx="349" cy="257" r="2"/>
  </g>
  <g stroke="chocolate" stroke-width="1">
    <line x1="138" y1="278" x2="360" y2="137"/>
    <circle cx="138" cy="278" r="2"/>
    <circle cx="360" cy="137" r="2"/>
  </g>
  <g stroke="chocolate" stroke-width="1">
    <line x1="187" y1="330" x2="349" y2="283"/>
    <circle cx="187" cy="330" r="2"/>
    <circle cx="349" cy="283" r="2"/>
  </g>
  <g stroke="chocolate" stroke-width="1">
    <line x1="257" y1="406" x2="138" y2="278"/>
    <circle cx="257" cy="406" r="2"/>
    <circle cx="138" cy="278" r="2"/>
  </g>
  <g stroke="chocolate" stroke-width="1">
    <line x1="143" y1="295" x2="372" y2="253"/>
    <circle cx="143" cy="295" r="2"/>
    <circle cx="372" cy="253" r="2"/>
  </g>
  <g stroke="chocolate" stroke-width="1">
    <line x1="359" y1="270" x2="349" y2="257"/>
    <circle cx="359" cy="270" r="2"/>
    <circle cx="349" cy="257" r="2"/>
  </g>
  <g stroke="chocolate" stroke-width="1">
    <line x1="257" y1="406" x2="154" y2="355"/>
    <circle cx="257" cy="406" r="2"/>
    <circle cx="154" cy="355" r="2"/>
  </g>
  <g stroke="chocolate" stroke-width="1">
    <line x1="362" y1="266" x2="224" y2="163"/>
    <circle cx="362" cy="266" r="2"/>
    <circle cx="224" cy="163" r="2"/>
  </g>
  <g stroke="chocolate" stroke-width="1">
    <line x1="359" y1="270" x2="228" y2="221"/>
    <circle cx="359" cy="270" r="2"/>
    <circle cx="228" cy="221" r="2"/>
  </g>
  <g stroke="chocolate" stroke-width="1">
    <line x1="360" y1="137" x2="272" y2="104"/>
    <circle cx="360" cy="137" r="2"/>
    <circle cx="272" cy="104" r="2"/>
  </g>
  <g stroke="black" stroke-width="1">
    <line x1="5" y1="5" x2="505" y2="5"/>
    <line x1="5" y1="5" x2="5" y2="505"/>
    <line x1="505" y1="505" x2="5" y2="505"/>
    <line x1="505" y1="505" x2="505" y2="5"/>
    <line x1="105" y1="2" x2="105" y2="8"/>
    <line x1="2" y1="105" x2="8" y2="105"/>
    <line x1="105" y1="502" x2="105" y2="508"/>
    <line x1="502" y1="105" x2="508" y2="105"/>
    <line x1="205" y1="2" x2="205" y2="8"/>
    <line x1="2" y1="205" x2="8" y2="205"/>
    <line x1="205" y1="502" x2="205" y2="508"/>
    <line x1="502" y1="205" x2="508" y2="205"/>
    <line x1="305" y1="2" x2="305" y2="8"/>
    <line x1="2" y1="305" x2="8" y2="305"/>
    <line x1="305" y1="502" x2="305" y2="508"/>
    <line x1="502" y1="305" x2="508" y2="305"/>
    <line x1="405" y1="2" x2="405" y2="8"/>
    <line x1="2" y1="405" x2="8" y2="405"/>
    <line x1="405" y1="502" x2="405" y2="508"/>
    <line x1="502" y1="405" x2="508" y2="405"/>
  </g>
  <g stroke="gray" stroke-width="1" stroke-dasharray="5,5">
    <line x1="105" y1="5" x2="105" y2="505"/>
    <line x1="5" y1="105" x2="505" y2="105"/>
    <line x1="205" y1="5" x2="205" y2="505"/>
    <line x1="5" y1="205" x2="505" y2="205"/>
    <line x1="305" y1="5" x2="305" y2="505"/>
    <line x1="5" y1="305" x2="505" y2="305"/>
    <line x1="405" y1="5" x2="405" y2="505"/>
    <line x1="5" y1="405" x2="505" y2="405"/>
  </g>
</svg>
