<?xml version="1.0" standalone="no"?>
<!DOCTYPE svg PUBLIC "-//W3C//DTD SVG 1.1//EN" 
  "http://www.w3.org/Graphics/SVG/1.1/DTD/svg11.dtd">
<svg width="510" height="510" version="1.1" id="toplevel"
    xmlns="http://www.w3.org/2000/svg"
    xmlns:xlink="http://www.w3.org/1999/xlink">
  <polygon points="252,394 446,218 396,116 328,146 314,137 290,152 284,149 234,186 73,257 64,344 205,358"
           fill="bisque"/>
  <g stroke="chocolate" stroke-width="1">
    <line x1="284" y1="365" x2="284" y2="149"/>
    <circle cx="284" cy="365" r="2"/>
    <circle cx="284" cy="149" r="2"/>
  </g>
  <g stroke="chocolate" stroke-width="1">
    <line x1="202" y1="355" x2="203" y2="200"/>
    <circle cx="202" cy="355" r="2"/>
    <circle cx="203" cy="200" r="2"/>
  </g>
  <g stroke="chocolate" stroke-width="1">
    <line x1="294" y1="356" x2="314" y2="137"/>
    <circle cx="294" cy="356" r="2"/>
    <circle cx="314" cy="137" r="2"/>
  </g>
  <g stroke="chocolate" stroke-width="1">
    <line x1="64" y1="344" x2="73" y2="257"/>
    <circle cx="64" cy="344" r="2"/>
    <circle cx="73" cy="257" r="2"/>
  </g>
  <g stroke="chocolate" stroke-width="1">
    <line x1="252" y1="394" x2="154" y2="236"/>
    <circle cx="252" cy="394" r="2"/>
    <circle cx="154" cy="236" r="2"/>
  </g>
  <g stroke="chocolate" stroke-width="1">
    <line x1="438" y1="226" x2="396" y2="116"/>
    <circle cx="438" cy="226" r="2"/>
    <circle cx="396" cy="116" r="2"/>
  </g>
  <g stroke="chocolate" stroke-width="1">
    <line x1="334" y1="320" x2="234" y2="186"/>
    <circle cx="334" cy="320" r="2"/>
    <circle cx="234" cy="186" r="2"/>
  </g>
  <g stroke="chocolate" stroke-width="1">
    <line x1="446" y1="218" x2="396" y2="116"/>
    <circle cx="446" cy="218" r="2"/>
    <circle cx="396" cy="116" r="2"/>
  </g>
  <g stroke="chocolate" stroke-width="1">
    <line x1="252" y1="394" x2="73" y2="257"/>
    <circle cx="252" cy="394" r="2"/>
    <circle cx="73" cy="257" r="2"/>
  </g>
  <g stroke="chocolate" stroke-width="1">
    <line x1="334" y1="320" x2="203" y2="200"/>
    <circle cx="334" cy="320" r="2"/>
    <circle cx="203" cy="200" r="2"/>
  </g>
  <g stroke="chocolate" stroke-width="1">
    <line x1="252" y1="394" x2="446" y2="218"/>
    <circle cx="252" cy="394" r="2"/>
    <circle cx="446" cy="218" r="2"/>
  </g>
  <g stroke="chocolate" stroke-width="1">
    <line x1="284" y1="365" x2="64" y2="344"/>
    <circle cx="284" cy="365" r="2"/>
    <circle cx="64" cy="344" r="2"/>
  </g>
  <g stroke="chocolate" stroke-width="1">
    <line x1="294" y1="356" x2="202" y2="355"/>
    <circle cx="294" cy="356" r="2"/>
    <circle cx="202" cy="355" r="2"/>
  </g>
  <g stroke="chocolate" stroke-width="1">
    <line x1="234" y1="186" x2="284" y2="149"/>
    <circle cx="234" cy="186" r="2"/>
    <circle cx="284" cy="149" r="2"/>
  </g>
  <g stroke="chocolate" stroke-width="1">
    <line x1="446" y1="218" x2="314" y2="137"/>
    <circle cx="446" cy="218" r="2"/>
    <circle cx="314" cy="137" r="2"/>
  </g>
  <g stroke="chocolate" stroke-width="1">
    <line x1="154" y1="236" x2="314" y2="137"/>
    <circle cx="154" cy="236" r="2"/>
    <circle cx="314" cy="137" r="2"/>
  </g>
  <g stroke="chocolate" stroke-width="1">
    <line x1="438" y1="226" x2="284" y2="149"/>
    <circle cx="438" cy="226" r="2"/>
    <circle cx="284" cy="149" r="2"/>
  </g>
  <g stroke="chocolate" stroke-width="1">
    <line x1="73" y1="257" x2="396" y2="116"/>
    <circle cx="73" cy="257" r="2"/>
    <circle cx="396" cy="116" r="2"/>
  </g>
  <g stroke="black" stroke-width="1">
    <line x1="5" y1="5" x2="505" y2="5"/>
    <line x1="5" y1="5" x2="5" y2="505"/>
    <line x1="505" y1="505" x2="5" y2="505"/>
    <line x1="505" y1="505" x2="505" y2="5"/>
    <line x1="105" y1="2" x2="105" y2="8"/>
    <line x1="2" y1="105" x2="8" y2="105"/>
    <line x1="105" y1="502" x2="105" y2="508"/>
    <line x1="502" y1="105" x2="508" y2="105"/>
    <line x1="205" y1="2" x2="205" y2="8"/>
    <line x1="2" y1="205" x2="8" y2="205"/>
    <line x1="205" y1="502" x2="205" y2="508"/>
    <line x1="502" y1="205" x2="508" y2="205"/>
    <line x1="305" y1="2" x2="305" y2="8"/>
    <line x1="2" y1="305" x2="8" y2="305"/>
    <line x1="305" y1="502" x2="305" y2="508"/>
    <line x1="502" y1="305" x2="508" y2="305"/>
    <line x1="405" y1="2" x2="405" y2="8"/>
    <line x1="2" y1="405" x2="8" y2="405"/>
    <line x1="405" y1="502" x2="405" y2="508"/>
    <line x1="502" y1="405" x2="508" y2="405"/>
  </g>
  <g stroke="gray" stroke-width="1" stroke-dasharray="5,5">
    <line x1="105" y1="5" x2="105" y2="505"/>
    <line x1="5" y1="105" x2="505" y2="105"/>
    <line x1="205" y1="5" x2="205" y2="505"/>
    <line x1="5" y1="205" x2="505" y2="205"/>
    <line x1="305" y1="5" x2="305" y2="505"/>
    <line x1="5" y1="305" x2="505" y2="305"/>
    <line x1="405" y1="5" x2="405" y2="505"/>
    <line x1="5" y1="405" x2="505" y2="405"/>
  </g>
</svg>
