<?xml version="1.0" standalone="no"?>
<!DOCTYPE svg PUBLIC "-//W3C//DTD SVG 1.1//EN" 
  "http://www.w3.org/Graphics/SVG/1.1/DTD/svg11.dtd">
<svg width="510" height="510" version="1.1" id="toplevel"
    xmlns="http://www.w3.org/2000/svg"
    xmlns:xlink="http://www.w3.org/1999/xlink">
  <polygon points="196,433 417,336 362,190 401,128 322,77 295,93 264,90 256,173 93,349 169,419"
           fill="bisque"/>
  <g stroke="chocolate" stroke-width="1">
    <line x1="211" y1="426" x2="401" y2="128"/>
    <circle cx="211" cy="426" r="2"/>
    <circle cx="401" cy="128" r="2"/>
  </g>
  <g stroke="chocolate" stroke-width="1">
    <line x1="196" y1="433" x2="295" y2="93"/>
    <circle cx="196" cy="433" r="2"/>
    <circle cx="295" cy="93" r="2"/>
  </g>
  <g stroke="chocolate" stroke-width="1">
    <line x1="282" y1="141" x2="322" y2="77"/>
    <circle cx="282" cy="141" r="2"/>
    <circle cx="322" cy="77" r="2"/>
  </g>
  <g stroke="chocolate" stroke-width="1">
    <line x1="230" y1="418" x2="264" y2="90"/>
    <circle cx="230" cy="418" r="2"/>
    <circle cx="264" cy="90" r="2"/>
  </g>
  <g stroke="chocolate" stroke-width="1">
    <line x1="93" y1="349" x2="327" y2="97"/>
    <circle cx="93" cy="349" r="2"/>
    <circle cx="327" cy="97" r="2"/>
  </g>
  <g stroke="chocolate" stroke-width="1">
    <line x1="216" y1="364" x2="282" y2="315"/>
    <circle cx="216" cy="364" r="2"/>
    <circle cx="282" cy="315" r="2"/>
  </g>
  <g stroke="chocolate" stroke-width="1">
    <line x1="282" y1="395" x2="282" y2="141"/>
    <circle cx="282" cy="395" r="2"/>
    <circle cx="282" cy="141" r="2"/>
  </g>
  <g stroke="chocolate" stroke-width="1">
    <line x1="196" y1="433" x2="417" y2="336"/>
    <circle cx="196" cy="433" r="2"/>
    <circle cx="417" cy="336" r="2"/>
  </g>
  <g stroke="chocolate" stroke-width="1">
    <line x1="334" y1="233" x2="322" y2="77"/>
    <circle cx="334" cy="233" r="2"/>
    <circle cx="322" cy="77" r="2"/>
  </g>
  <g stroke="chocolate" stroke-width="1">
    <line x1="295" y1="93" x2="322" y2="77"/>
    <circle cx="295" cy="93" r="2"/>
    <circle cx="322" cy="77" r="2"/>
  </g>
  <g stroke="chocolate" stroke-width="1">
    <line x1="245" y1="267" x2="334" y2="233"/>
    <circle cx="245" cy="267" r="2"/>
    <circle cx="334" cy="233" r="2"/>
  </g>
  <g stroke="chocolate" stroke-width="1">
    <line x1="229" y1="398" x2="216" y2="364"/>
    <circle cx="229" cy="398" r="2"/>
    <circle cx="216" cy="364" r="2"/>
  </g>
  <g stroke="chocolate" stroke-width="1">
    <line x1="206" y1="400" x2="229" y2="398"/>
    <circle cx="206" cy="400" r="2"/>
    <circle cx="229" cy="398" r="2"/>
  </g>
  <g stroke="chocolate" stroke-width="1">
    <line x1="417" y1="336" x2="327" y2="97"/>
    <circle cx="417" cy="336" r="2"/>
    <circle cx="327" cy="97" r="2"/>
  </g>
  <g stroke="chocolate" stroke-width="1">
    <line x1="417" y1="336" x2="295" y2="93"/>
    <circle cx="417" cy="336" r="2"/>
    <circle cx="295" cy="93" r="2"/>
  </g>
  <g stroke="chocolate" stroke-width="1">
    <line x1="211" y1="426" x2="169" y2="419"/>
    <circle cx="211" cy="426" r="2"/>
    <circle cx="169" cy="419" r="2"/>
  </g>
  <g stroke="chocolate" stroke-width="1">
    <line x1="169" y1="419" x2="93" y2="349"/>
    <circle cx="169" cy="419" r="2"/>
    <circle cx="93" cy="349" r="2"/>
  </g>
  <g stroke="chocolate" stroke-width="1">
    <line x1="282" y1="315" x2="245" y2="267"/>
    <circle cx="282" cy="315" r="2"/>
    <circle cx="245" cy="267" r="2"/>
  </g>
  <g stroke="chocolate" stroke-width="1">
    <line x1="196" y1="433" x2="169" y2="419"/>
    <circle cx="196" cy="433" r="2"/>
    <circle cx="169" cy="419" r="2"/>
  </g>
  <g stroke="chocolate" stroke-width="1">
    <line x1="230" y1="418" x2="206" y2="400"/>
    <circle cx="230" cy="418" r="2"/>
    <circle cx="206" cy="400" r="2"/>
  </g>
  <g stroke="chocolate" stroke-width="1">
    <line x1="282" y1="395" x2="157" y2="280"/>
    <circle cx="282" cy="395" r="2"/>
    <circle cx="157" cy="280" r="2"/>
  </g>
  <g stroke="chocolate" stroke-width="1">
    <line x1="327" y1="97" x2="264" y2="90"/>
    <circle cx="327" cy="97" r="2"/>
    <circle cx="264" cy="90" r="2"/>
  </g>
  <g stroke="chocolate" stroke-width="1">
    <line x1="401" y1="128" x2="322" y2="77"/>
    <circle cx="401" cy="128" r="2"/>
    <circle cx="322" cy="77" r="2"/>
  </g>
  <g stroke="black" stroke-width="1">
    <line x1="5" y1="5" x2="505" y2="5"/>
    <line x1="5" y1="5" x2="5" y2="505"/>
    <line x1="505" y1="505" x2="5" y2="505"/>
    <line x1="505" y1="505" x2="505" y2="5"/>
    <line x1="105" y1="2" x2="105" y2="8"/>
    <line x1="2" y1="105" x2="8" y2="105"/>
    <line x1="105" y1="502" x2="105" y2="508"/>
    <line x1="502" y1="105" x2="508" y2="105"/>
    <line x1="205" y1="2" x2="205" y2="8"/>
    <line x1="2" y1="205" x2="8" y2="205"/>
    <line x1="205" y1="502" x2="205" y2="508"/>
    <line x1="502" y1="205" x2="508" y2="205"/>
    <line x1="305" y1="2" x2="305" y2="8"/>
    <line x1="2" y1="305" x2="8" y2="305"/>
    <line x1="305" y1="502" x2="305" y2="508"/>
    <line x1="502" y1="305" x2="508" y2="305"/>
    <line x1="405" y1="2" x2="405" y2="8"/>
    <line x1="2" y1="405" x2="8" y2="405"/>
    <line x1="405" y1="502" x2="405" y2="508"/>
    <line x1="502" y1="405" x2="508" y2="405"/>
  </g>
  <g stroke="gray" stroke-width="1" stroke-dasharray="5,5">
    <line x1="105" y1="5" x2="105" y2="505"/>
    <line x1="5" y1="105" x2="505" y2="105"/>
    <line x1="205" y1="5" x2="205" y2="505"/>
    <line x1="5" y1="205" x2="505" y2="205"/>
    <line x1="305" y1="5" x2="305" y2="505"/>
    <line x1="5" y1="305" x2="505" y2="305"/>
    <line x1="405" y1="5" x2="405" y2="505"/>
    <line x1="5" y1="405" x2="505" y2="405"/>
  </g>
</svg>
