<?xml version="1.0" standalone="no"?>
<!DOCTYPE svg PUBLIC "-//W3C//DTD SVG 1.1//EN" 
  "http://www.w3.org/Graphics/SVG/1.1/DTD/svg11.dtd">
<svg width="510" height="510" version="1.1" id="toplevel"
    xmlns="http://www.w3.org/2000/svg"
    xmlns:xlink="http://www.w3.org/1999/xlink">
  <polygon points="323,331 492,291 480,235 478,235 477,230 477,231 472,214 404,231 428,188 322,126 248,169 247,271"
           fill="bisque"/>
  <polygon points="322,252 322,211 373,239" fill="bisque"/>
  <g stroke="chocolate" stroke-width="1">
    <line x1="401" y1="236" x2="428" y2="188"/>
    <circle cx="401" cy="236" r="2"/>
    <circle cx="428" cy="188" r="2"/>
  </g>
  <g stroke="chocolate" stroke-width="1">
    <line x1="391" y1="249" x2="426" y2="187"/>
    <circle cx="391" cy="249" r="2"/>
    <circle cx="426" cy="187" r="2"/>
  </g>
  <g stroke="chocolate" stroke-width="1">
    <line x1="397" y1="237" x2="426" y2="187"/>
    <circle cx="397" cy="237" r="2"/>
    <circle cx="426" cy="187" r="2"/>
  </g>
  <g stroke="chocolate" stroke-width="1">
    <line x1="397" y1="237" x2="426" y2="187"/>
    <circle cx="397" cy="237" r="2"/>
    <circle cx="426" cy="187" r="2"/>
  </g>
  <g stroke="chocolate" stroke-width="1">
    <line x1="394" y1="242" x2="426" y2="187"/>
    <circle cx="394" cy="242" r="2"/>
    <circle cx="426" cy="187" r="2"/>
  </g>
  <g stroke="chocolate" stroke-width="1">
    <line x1="393" y1="242" x2="426" y2="187"/>
    <circle cx="393" cy="242" r="2"/>
    <circle cx="426" cy="187" r="2"/>
  </g>
  <g stroke="chocolate" stroke-width="1">
    <line x1="394" y1="242" x2="428" y2="188"/>
    <circle cx="394" cy="242" r="2"/>
    <circle cx="428" cy="188" r="2"/>
  </g>
  <g stroke="chocolate" stroke-width="1">
    <line x1="393" y1="242" x2="426" y2="187"/>
    <circle cx="393" cy="242" r="2"/>
    <circle cx="426" cy="187" r="2"/>
  </g>
  <g stroke="chocolate" stroke-width="1">
    <line x1="261" y1="283" x2="263" y2="160"/>
    <circle cx="261" cy="283" r="2"/>
    <circle cx="263" cy="160" r="2"/>
  </g>
  <g stroke="chocolate" stroke-width="1">
    <line x1="247" y1="271" x2="248" y2="169"/>
    <circle cx="247" cy="271" r="2"/>
    <circle cx="248" cy="169" r="2"/>
  </g>
  <g stroke="chocolate" stroke-width="1">
    <line x1="262" y1="284" x2="263" y2="160"/>
    <circle cx="262" cy="284" r="2"/>
    <circle cx="263" cy="160" r="2"/>
  </g>
  <g stroke="chocolate" stroke-width="1">
    <line x1="323" y1="331" x2="322" y2="126"/>
    <circle cx="323" cy="331" r="2"/>
    <circle cx="322" cy="126" r="2"/>
  </g>
  <g stroke="chocolate" stroke-width="1">
    <line x1="262" y1="284" x2="260" y2="162"/>
    <circle cx="262" cy="284" r="2"/>
    <circle cx="260" cy="162" r="2"/>
  </g>
  <g stroke="chocolate" stroke-width="1">
    <line x1="323" y1="331" x2="492" y2="291"/>
    <circle cx="323" cy="331" r="2"/>
    <circle cx="492" cy="291" r="2"/>
  </g>
  <g stroke="chocolate" stroke-width="1">
    <line x1="491" y1="291" x2="479" y2="235"/>
    <circle cx="491" cy="291" r="2"/>
    <circle cx="479" cy="235" r="2"/>
  </g>
  <g stroke="chocolate" stroke-width="1">
    <line x1="492" y1="291" x2="480" y2="235"/>
    <circle cx="492" cy="291" r="2"/>
    <circle cx="480" cy="235" r="2"/>
  </g>
  <g stroke="chocolate" stroke-width="1">
    <line x1="492" y1="291" x2="480" y2="235"/>
    <circle cx="492" cy="291" r="2"/>
    <circle cx="480" cy="235" r="2"/>
  </g>
  <g stroke="chocolate" stroke-width="1">
    <line x1="492" y1="291" x2="479" y2="235"/>
    <circle cx="492" cy="291" r="2"/>
    <circle cx="479" cy="235" r="2"/>
  </g>
  <g stroke="chocolate" stroke-width="1">
    <line x1="492" y1="291" x2="477" y2="230"/>
    <circle cx="492" cy="291" r="2"/>
    <circle cx="477" cy="230" r="2"/>
  </g>
  <g stroke="chocolate" stroke-width="1">
    <line x1="492" y1="291" x2="477" y2="230"/>
    <circle cx="492" cy="291" r="2"/>
    <circle cx="477" cy="230" r="2"/>
  </g>
  <g stroke="chocolate" stroke-width="1">
    <line x1="492" y1="291" x2="472" y2="214"/>
    <circle cx="492" cy="291" r="2"/>
    <circle cx="472" cy="214" r="2"/>
  </g>
  <g stroke="chocolate" stroke-width="1">
    <line x1="491" y1="291" x2="473" y2="226"/>
    <circle cx="491" cy="291" r="2"/>
    <circle cx="473" cy="226" r="2"/>
  </g>
  <g stroke="chocolate" stroke-width="1">
    <line x1="261" y1="283" x2="473" y2="226"/>
    <circle cx="261" cy="283" r="2"/>
    <circle cx="473" cy="226" r="2"/>
  </g>
  <g stroke="chocolate" stroke-width="1">
    <line x1="248" y1="169" x2="322" y2="126"/>
    <circle cx="248" cy="169" r="2"/>
    <circle cx="322" cy="126" r="2"/>
  </g>
  <g stroke="chocolate" stroke-width="1">
    <line x1="262" y1="284" x2="477" y2="230"/>
    <circle cx="262" cy="284" r="2"/>
    <circle cx="477" cy="230" r="2"/>
  </g>
  <g stroke="chocolate" stroke-width="1">
    <line x1="262" y1="284" x2="480" y2="235"/>
    <circle cx="262" cy="284" r="2"/>
    <circle cx="480" cy="235" r="2"/>
  </g>
  <g stroke="chocolate" stroke-width="1">
    <line x1="247" y1="271" x2="472" y2="214"/>
    <circle cx="247" cy="271" r="2"/>
    <circle cx="472" cy="214" r="2"/>
  </g>
  <g stroke="chocolate" stroke-width="1">
    <line x1="323" y1="331" x2="247" y2="271"/>
    <circle cx="323" cy="331" r="2"/>
    <circle cx="247" cy="271" r="2"/>
  </g>
  <g stroke="chocolate" stroke-width="1">
    <line x1="391" y1="249" x2="248" y2="169"/>
    <circle cx="391" cy="249" r="2"/>
    <circle cx="248" cy="169" r="2"/>
  </g>
  <g stroke="chocolate" stroke-width="1">
    <line x1="394" y1="242" x2="260" y2="162"/>
    <circle cx="394" cy="242" r="2"/>
    <circle cx="260" cy="162" r="2"/>
  </g>
  <g stroke="chocolate" stroke-width="1">
    <line x1="397" y1="237" x2="263" y2="160"/>
    <circle cx="397" cy="237" r="2"/>
    <circle cx="263" cy="160" r="2"/>
  </g>
  <g stroke="chocolate" stroke-width="1">
    <line x1="401" y1="236" x2="263" y2="160"/>
    <circle cx="401" cy="236" r="2"/>
    <circle cx="263" cy="160" r="2"/>
  </g>
  <g stroke="chocolate" stroke-width="1">
    <line x1="428" y1="188" x2="322" y2="126"/>
    <circle cx="428" cy="188" r="2"/>
    <circle cx="322" cy="126" r="2"/>
  </g>
  <g stroke="black" stroke-width="1">
    <line x1="5" y1="5" x2="505" y2="5"/>
    <line x1="5" y1="5" x2="5" y2="505"/>
    <line x1="505" y1="505" x2="5" y2="505"/>
    <line x1="505" y1="505" x2="505" y2="5"/>
    <line x1="105" y1="2" x2="105" y2="8"/>
    <line x1="2" y1="105" x2="8" y2="105"/>
    <line x1="105" y1="502" x2="105" y2="508"/>
    <line x1="502" y1="105" x2="508" y2="105"/>
    <line x1="205" y1="2" x2="205" y2="8"/>
    <line x1="2" y1="205" x2="8" y2="205"/>
    <line x1="205" y1="502" x2="205" y2="508"/>
    <line x1="502" y1="205" x2="508" y2="205"/>
    <line x1="305" y1="2" x2="305" y2="8"/>
    <line x1="2" y1="305" x2="8" y2="305"/>
    <line x1="305" y1="502" x2="305" y2="508"/>
    <line x1="502" y1="305" x2="508" y2="305"/>
    <line x1="405" y1="2" x2="405" y2="8"/>
    <line x1="2" y1="405" x2="8" y2="405"/>
    <line x1="405" y1="502" x2="405" y2="508"/>
    <line x1="502" y1="405" x2="508" y2="405"/>
  </g>
  <g stroke="gray" stroke-width="1" stroke-dasharray="5,5">
    <line x1="105" y1="5" x2="105" y2="505"/>
    <line x1="5" y1="105" x2="505" y2="105"/>
    <line x1="205" y1="5" x2="205" y2="505"/>
    <line x1="5" y1="205" x2="505" y2="205"/>
    <line x1="305" y1="5" x2="305" y2="505"/>
    <line x1="5" y1="305" x2="505" y2="305"/>
    <line x1="405" y1="5" x2="405" y2="505"/>
    <line x1="5" y1="405" x2="505" y2="405"/>
  </g>
</svg>
