<?xml version="1.0" standalone="no"?>
<!DOCTYPE svg PUBLIC "-//W3C//DTD SVG 1.1//EN" 
  "http://www.w3.org/Graphics/SVG/1.1/DTD/svg11.dtd">
<svg width="510" height="510" version="1.1" id="toplevel"
    xmlns="http://www.w3.org/2000/svg"
    xmlns:xlink="http://www.w3.org/1999/xlink">
  <polygon points="290,310 337,249 317,210 261,210 247,163 205,155 159,217 178,255 234,255 248,303"
           fill="bisque"/>
  <polygon points="277,264 272,249 288,249" fill="bisque"/>
  <polygon points="207,217 218,201 223,217" fill="bisque"/>
  <g stroke="chocolate" stroke-width="1">
    <line x1="290" y1="310" x2="337" y2="249"/>
    <circle cx="290" cy="310" r="2"/>
    <circle cx="337" cy="249" r="2"/>
  </g>
  <g stroke="chocolate" stroke-width="1">
    <line x1="248" y1="303" x2="317" y2="210"/>
    <circle cx="248" cy="303" r="2"/>
    <circle cx="317" cy="210" r="2"/>
  </g>
  <g stroke="chocolate" stroke-width="1">
    <line x1="255" y1="255" x2="255" y2="217"/>
    <circle cx="255" cy="255" r="2"/>
    <circle cx="255" cy="217" r="2"/>
  </g>
  <g stroke="chocolate" stroke-width="1">
    <line x1="260" y1="249" x2="260" y2="210"/>
    <circle cx="260" cy="249" r="2"/>
    <circle cx="260" cy="210" r="2"/>
  </g>
  <g stroke="chocolate" stroke-width="1">
    <line x1="178" y1="255" x2="247" y2="163"/>
    <circle cx="178" cy="255" r="2"/>
    <circle cx="247" cy="163" r="2"/>
  </g>
  <g stroke="chocolate" stroke-width="1">
    <line x1="159" y1="217" x2="205" y2="155"/>
    <circle cx="159" cy="217" r="2"/>
    <circle cx="205" cy="155" r="2"/>
  </g>
  <g stroke="chocolate" stroke-width="1">
    <line x1="248" y1="303" x2="205" y2="155"/>
    <circle cx="248" cy="303" r="2"/>
    <circle cx="205" cy="155" r="2"/>
  </g>
  <g stroke="chocolate" stroke-width="1">
    <line x1="290" y1="310" x2="247" y2="163"/>
    <circle cx="290" cy="310" r="2"/>
    <circle cx="247" cy="163" r="2"/>
  </g>
  <g stroke="chocolate" stroke-width="1">
    <line x1="178" y1="255" x2="159" y2="217"/>
    <circle cx="178" cy="255" r="2"/>
    <circle cx="159" cy="217" r="2"/>
  </g>
  <g stroke="chocolate" stroke-width="1">
    <line x1="337" y1="249" x2="317" y2="210"/>
    <circle cx="337" cy="249" r="2"/>
    <circle cx="317" cy="210" r="2"/>
  </g>
  <g stroke="chocolate" stroke-width="1">
    <line x1="290" y1="310" x2="248" y2="303"/>
    <circle cx="290" cy="310" r="2"/>
    <circle cx="248" cy="303" r="2"/>
  </g>
  <g stroke="chocolate" stroke-width="1">
    <line x1="178" y1="255" x2="255" y2="255"/>
    <circle cx="178" cy="255" r="2"/>
    <circle cx="255" cy="255" r="2"/>
  </g>
  <g stroke="chocolate" stroke-width="1">
    <line x1="260" y1="249" x2="337" y2="249"/>
    <circle cx="260" cy="249" r="2"/>
    <circle cx="337" cy="249" r="2"/>
  </g>
  <g stroke="chocolate" stroke-width="1">
    <line x1="159" y1="217" x2="255" y2="217"/>
    <circle cx="159" cy="217" r="2"/>
    <circle cx="255" cy="217" r="2"/>
  </g>
  <g stroke="chocolate" stroke-width="1">
    <line x1="260" y1="210" x2="317" y2="210"/>
    <circle cx="260" cy="210" r="2"/>
    <circle cx="317" cy="210" r="2"/>
  </g>
  <g stroke="chocolate" stroke-width="1">
    <line x1="247" y1="163" x2="205" y2="155"/>
    <circle cx="247" cy="163" r="2"/>
    <circle cx="205" cy="155" r="2"/>
  </g>
  <g stroke="black" stroke-width="1">
    <line x1="5" y1="5" x2="505" y2="5"/>
    <line x1="5" y1="5" x2="5" y2="505"/>
    <line x1="505" y1="505" x2="5" y2="505"/>
    <line x1="505" y1="505" x2="505" y2="5"/>
    <line x1="105" y1="2" x2="105" y2="8"/>
    <line x1="2" y1="105" x2="8" y2="105"/>
    <line x1="105" y1="502" x2="105" y2="508"/>
    <line x1="502" y1="105" x2="508" y2="105"/>
    <line x1="205" y1="2" x2="205" y2="8"/>
    <line x1="2" y1="205" x2="8" y2="205"/>
    <line x1="205" y1="502" x2="205" y2="508"/>
    <line x1="502" y1="205" x2="508" y2="205"/>
    <line x1="305" y1="2" x2="305" y2="8"/>
    <line x1="2" y1="305" x2="8" y2="305"/>
    <line x1="305" y1="502" x2="305" y2="508"/>
    <line x1="502" y1="305" x2="508" y2="305"/>
    <line x1="405" y1="2" x2="405" y2="8"/>
    <line x1="2" y1="405" x2="8" y2="405"/>
    <line x1="405" y1="502" x2="405" y2="508"/>
    <line x1="502" y1="405" x2="508" y2="405"/>
  </g>
  <g stroke="gray" stroke-width="1" stroke-dasharray="5,5">
    <line x1="105" y1="5" x2="105" y2="505"/>
    <line x1="5" y1="105" x2="505" y2="105"/>
    <line x1="205" y1="5" x2="205" y2="505"/>
    <line x1="5" y1="205" x2="505" y2="205"/>
    <line x1="305" y1="5" x2="305" y2="505"/>
    <line x1="5" y1="305" x2="505" y2="305"/>
    <line x1="405" y1="5" x2="405" y2="505"/>
    <line x1="5" y1="405" x2="505" y2="405"/>
  </g>
</svg>
