<?xml version="1.0" standalone="no"?>
<!DOCTYPE svg PUBLIC "-//W3C//DTD SVG 1.1//EN" 
  "http://www.w3.org/Graphics/SVG/1.1/DTD/svg11.dtd">
<svg width="510" height="510" version="1.1" id="toplevel"
    xmlns="http://www.w3.org/2000/svg"
    xmlns:xlink="http://www.w3.org/1999/xlink">
  <polygon points="159,397 172,286 331,286 401,224 413,121 351,113 338,224 179,224 109,286 97,389"
           fill="bisque"/>
  <g stroke="chocolate" stroke-width="1">
    <line x1="331" y1="286" x2="401" y2="224"/>
    <circle cx="331" cy="286" r="2"/>
    <circle cx="401" cy="224" r="2"/>
  </g>
  <g stroke="chocolate" stroke-width="1">
    <line x1="159" y1="397" x2="97" y2="389"/>
    <circle cx="159" cy="397" r="2"/>
    <circle cx="97" cy="389" r="2"/>
  </g>
  <g stroke="chocolate" stroke-width="1">
    <line x1="109" y1="286" x2="179" y2="224"/>
    <circle cx="109" cy="286" r="2"/>
    <circle cx="179" cy="224" r="2"/>
  </g>
  <g stroke="chocolate" stroke-width="1">
    <line x1="401" y1="224" x2="413" y2="121"/>
    <circle cx="401" cy="224" r="2"/>
    <circle cx="413" cy="121" r="2"/>
  </g>
  <g stroke="chocolate" stroke-width="1">
    <line x1="331" y1="286" x2="351" y2="113"/>
    <circle cx="331" cy="286" r="2"/>
    <circle cx="351" cy="113" r="2"/>
  </g>
  <g stroke="chocolate" stroke-width="1">
    <line x1="159" y1="397" x2="179" y2="224"/>
    <circle cx="159" cy="397" r="2"/>
    <circle cx="179" cy="224" r="2"/>
  </g>
  <g stroke="chocolate" stroke-width="1">
    <line x1="97" y1="389" x2="109" y2="286"/>
    <circle cx="97" cy="389" r="2"/>
    <circle cx="109" cy="286" r="2"/>
  </g>
  <g stroke="chocolate" stroke-width="1">
    <line x1="109" y1="286" x2="331" y2="286"/>
    <circle cx="109" cy="286" r="2"/>
    <circle cx="331" cy="286" r="2"/>
  </g>
  <g stroke="chocolate" stroke-width="1">
    <line x1="179" y1="224" x2="401" y2="224"/>
    <circle cx="179" cy="224" r="2"/>
    <circle cx="401" cy="224" r="2"/>
  </g>
  <g stroke="chocolate" stroke-width="1">
    <line x1="413" y1="121" x2="351" y2="113"/>
    <circle cx="413" cy="121" r="2"/>
    <circle cx="351" cy="113" r="2"/>
  </g>
  <g stroke="black" stroke-width="1">
    <line x1="5" y1="5" x2="505" y2="5"/>
    <line x1="5" y1="5" x2="5" y2="505"/>
    <line x1="505" y1="505" x2="5" y2="505"/>
    <line x1="505" y1="505" x2="505" y2="5"/>
    <line x1="105" y1="2" x2="105" y2="8"/>
    <line x1="2" y1="105" x2="8" y2="105"/>
    <line x1="105" y1="502" x2="105" y2="508"/>
    <line x1="502" y1="105" x2="508" y2="105"/>
    <line x1="205" y1="2" x2="205" y2="8"/>
    <line x1="2" y1="205" x2="8" y2="205"/>
    <line x1="205" y1="502" x2="205" y2="508"/>
    <line x1="502" y1="205" x2="508" y2="205"/>
    <line x1="305" y1="2" x2="305" y2="8"/>
    <line x1="2" y1="305" x2="8" y2="305"/>
    <line x1="305" y1="502" x2="305" y2="508"/>
    <line x1="502" y1="305" x2="508" y2="305"/>
    <line x1="405" y1="2" x2="405" y2="8"/>
    <line x1="2" y1="405" x2="8" y2="405"/>
    <line x1="405" y1="502" x2="405" y2="508"/>
    <line x1="502" y1="405" x2="508" y2="405"/>
  </g>
  <g stroke="gray" stroke-width="1" stroke-dasharray="5,5">
    <line x1="105" y1="5" x2="105" y2="505"/>
    <line x1="5" y1="105" x2="505" y2="105"/>
    <line x1="205" y1="5" x2="205" y2="505"/>
    <line x1="5" y1="205" x2="505" y2="205"/>
    <line x1="305" y1="5" x2="305" y2="505"/>
    <line x1="5" y1="305" x2="505" y2="305"/>
    <line x1="405" y1="5" x2="405" y2="505"/>
    <line x1="5" y1="405" x2="505" y2="405"/>
  </g>
</svg>
