<?xml version="1.0" standalone="no"?>
<!DOCTYPE svg PUBLIC "-//W3C//DTD SVG 1.1//EN" 
  "http://www.w3.org/Graphics/SVG/1.1/DTD/svg11.dtd">
<svg width="510" height="510" version="1.1" id="toplevel"
    xmlns="http://www.w3.org/2000/svg"
    xmlns:xlink="http://www.w3.org/1999/xlink">
  <polygon points="505,433 232,77 83,163 5,298 113,361 141,313 129,279"
           fill="bisque"/>
  <g stroke="chocolate" stroke-width="1">
    <line x1="5" y1="298" x2="95" y2="212"/>
    <circle cx="5" cy="298" r="2"/>
    <circle cx="95" cy="212" r="2"/>
  </g>
  <g stroke="chocolate" stroke-width="1">
    <line x1="113" y1="361" x2="141" y2="313"/>
    <circle cx="113" cy="361" r="2"/>
    <circle cx="141" cy="313" r="2"/>
  </g>
  <g stroke="chocolate" stroke-width="1">
    <line x1="50" y1="251" x2="78" y2="230"/>
    <circle cx="50" cy="251" r="2"/>
    <circle cx="78" cy="230" r="2"/>
  </g>
  <g stroke="chocolate" stroke-width="1">
    <line x1="57" y1="209" x2="231" y2="78"/>
    <circle cx="57" cy="209" r="2"/>
    <circle cx="231" cy="78" r="2"/>
  </g>
  <g stroke="chocolate" stroke-width="1">
    <line x1="5" y1="298" x2="73" y2="269"/>
    <circle cx="5" cy="298" r="2"/>
    <circle cx="73" cy="269" r="2"/>
  </g>
  <g stroke="chocolate" stroke-width="1">
    <line x1="5" y1="298" x2="83" y2="163"/>
    <circle cx="5" cy="298" r="2"/>
    <circle cx="83" cy="163" r="2"/>
  </g>
  <g stroke="chocolate" stroke-width="1">
    <line x1="68" y1="191" x2="83" y2="163"/>
    <circle cx="68" cy="191" r="2"/>
    <circle cx="83" cy="163" r="2"/>
  </g>
  <g stroke="chocolate" stroke-width="1">
    <line x1="83" y1="163" x2="232" y2="77"/>
    <circle cx="83" cy="163" r="2"/>
    <circle cx="232" cy="77" r="2"/>
  </g>
  <g stroke="chocolate" stroke-width="1">
    <line x1="93" y1="163" x2="241" y2="101"/>
    <circle cx="93" cy="163" r="2"/>
    <circle cx="241" cy="101" r="2"/>
  </g>
  <g stroke="chocolate" stroke-width="1">
    <line x1="50" y1="251" x2="85" y2="162"/>
    <circle cx="50" cy="251" r="2"/>
    <circle cx="85" cy="162" r="2"/>
  </g>
  <g stroke="chocolate" stroke-width="1">
    <line x1="81" y1="166" x2="87" y2="165"/>
    <circle cx="81" cy="166" r="2"/>
    <circle cx="87" cy="165" r="2"/>
  </g>
  <g stroke="chocolate" stroke-width="1">
    <line x1="73" y1="269" x2="87" y2="161"/>
    <circle cx="73" cy="269" r="2"/>
    <circle cx="87" cy="161" r="2"/>
  </g>
  <g stroke="chocolate" stroke-width="1">
    <line x1="48" y1="280" x2="57" y2="209"/>
    <circle cx="48" cy="280" r="2"/>
    <circle cx="57" cy="209" r="2"/>
  </g>
  <g stroke="chocolate" stroke-width="1">
    <line x1="83" y1="163" x2="93" y2="163"/>
    <circle cx="83" cy="163" r="2"/>
    <circle cx="93" cy="163" r="2"/>
  </g>
  <g stroke="chocolate" stroke-width="1">
    <line x1="93" y1="163" x2="83" y2="163"/>
    <circle cx="93" cy="163" r="2"/>
    <circle cx="83" cy="163" r="2"/>
  </g>
  <g stroke="chocolate" stroke-width="1">
    <line x1="93" y1="163" x2="93" y2="157"/>
    <circle cx="93" cy="163" r="2"/>
    <circle cx="93" cy="157" r="2"/>
  </g>
  <g stroke="chocolate" stroke-width="1">
    <line x1="95" y1="212" x2="58" y2="206"/>
    <circle cx="95" cy="212" r="2"/>
    <circle cx="58" cy="206" r="2"/>
  </g>
  <g stroke="chocolate" stroke-width="1">
    <line x1="93" y1="163" x2="85" y2="162"/>
    <circle cx="93" cy="163" r="2"/>
    <circle cx="85" cy="162" r="2"/>
  </g>
  <g stroke="chocolate" stroke-width="1">
    <line x1="141" y1="313" x2="25" y2="263"/>
    <circle cx="141" cy="313" r="2"/>
    <circle cx="25" cy="263" r="2"/>
  </g>
  <g stroke="chocolate" stroke-width="1">
    <line x1="505" y1="433" x2="37" y2="241"/>
    <circle cx="505" cy="433" r="2"/>
    <circle cx="37" cy="241" r="2"/>
  </g>
  <g stroke="chocolate" stroke-width="1">
    <line x1="113" y1="361" x2="5" y2="298"/>
    <circle cx="113" cy="361" r="2"/>
    <circle cx="5" cy="298" r="2"/>
  </g>
  <g stroke="chocolate" stroke-width="1">
    <line x1="95" y1="212" x2="81" y2="166"/>
    <circle cx="95" cy="212" r="2"/>
    <circle cx="81" cy="166" r="2"/>
  </g>
  <g stroke="chocolate" stroke-width="1">
    <line x1="141" y1="313" x2="90" y2="159"/>
    <circle cx="141" cy="313" r="2"/>
    <circle cx="90" cy="159" r="2"/>
  </g>
  <g stroke="chocolate" stroke-width="1">
    <line x1="48" y1="280" x2="25" y2="263"/>
    <circle cx="48" cy="280" r="2"/>
    <circle cx="25" cy="263" r="2"/>
  </g>
  <g stroke="chocolate" stroke-width="1">
    <line x1="93" y1="163" x2="87" y2="161"/>
    <circle cx="93" cy="163" r="2"/>
    <circle cx="87" cy="161" r="2"/>
  </g>
  <g stroke="chocolate" stroke-width="1">
    <line x1="73" y1="269" x2="37" y2="241"/>
    <circle cx="73" cy="269" r="2"/>
    <circle cx="37" cy="241" r="2"/>
  </g>
  <g stroke="chocolate" stroke-width="1">
    <line x1="505" y1="433" x2="68" y2="191"/>
    <circle cx="505" cy="433" r="2"/>
    <circle cx="68" cy="191" r="2"/>
  </g>
  <g stroke="chocolate" stroke-width="1">
    <line x1="87" y1="165" x2="83" y2="163"/>
    <circle cx="87" cy="165" r="2"/>
    <circle cx="83" cy="163" r="2"/>
  </g>
  <g stroke="chocolate" stroke-width="1">
    <line x1="78" y1="230" x2="58" y2="206"/>
    <circle cx="78" cy="230" r="2"/>
    <circle cx="58" cy="206" r="2"/>
  </g>
  <g stroke="chocolate" stroke-width="1">
    <line x1="241" y1="101" x2="232" y2="77"/>
    <circle cx="241" cy="101" r="2"/>
    <circle cx="232" cy="77" r="2"/>
  </g>
  <g stroke="chocolate" stroke-width="1">
    <line x1="241" y1="101" x2="231" y2="78"/>
    <circle cx="241" cy="101" r="2"/>
    <circle cx="231" cy="78" r="2"/>
  </g>
  <g stroke="chocolate" stroke-width="1">
    <line x1="505" y1="433" x2="83" y2="163"/>
    <circle cx="505" cy="433" r="2"/>
    <circle cx="83" cy="163" r="2"/>
  </g>
  <g stroke="chocolate" stroke-width="1">
    <line x1="505" y1="433" x2="93" y2="157"/>
    <circle cx="505" cy="433" r="2"/>
    <circle cx="93" cy="157" r="2"/>
  </g>
  <g stroke="chocolate" stroke-width="1">
    <line x1="93" y1="163" x2="90" y2="159"/>
    <circle cx="93" cy="163" r="2"/>
    <circle cx="90" cy="159" r="2"/>
  </g>
  <g stroke="chocolate" stroke-width="1">
    <line x1="505" y1="433" x2="232" y2="77"/>
    <circle cx="505" cy="433" r="2"/>
    <circle cx="232" cy="77" r="2"/>
  </g>
  <g stroke="black" stroke-width="1">
    <line x1="5" y1="5" x2="505" y2="5"/>
    <line x1="5" y1="5" x2="5" y2="505"/>
    <line x1="505" y1="505" x2="5" y2="505"/>
    <line x1="505" y1="505" x2="505" y2="5"/>
    <line x1="105" y1="2" x2="105" y2="8"/>
    <line x1="2" y1="105" x2="8" y2="105"/>
    <line x1="105" y1="502" x2="105" y2="508"/>
    <line x1="502" y1="105" x2="508" y2="105"/>
    <line x1="205" y1="2" x2="205" y2="8"/>
    <line x1="2" y1="205" x2="8" y2="205"/>
    <line x1="205" y1="502" x2="205" y2="508"/>
    <line x1="502" y1="205" x2="508" y2="205"/>
    <line x1="305" y1="2" x2="305" y2="8"/>
    <line x1="2" y1="305" x2="8" y2="305"/>
    <line x1="305" y1="502" x2="305" y2="508"/>
    <line x1="502" y1="305" x2="508" y2="305"/>
    <line x1="405" y1="2" x2="405" y2="8"/>
    <line x1="2" y1="405" x2="8" y2="405"/>
    <line x1="405" y1="502" x2="405" y2="508"/>
    <line x1="502" y1="405" x2="508" y2="405"/>
  </g>
  <g stroke="gray" stroke-width="1" stroke-dasharray="5,5">
    <line x1="105" y1="5" x2="105" y2="505"/>
    <line x1="5" y1="105" x2="505" y2="105"/>
    <line x1="205" y1="5" x2="205" y2="505"/>
    <line x1="5" y1="205" x2="505" y2="205"/>
    <line x1="305" y1="5" x2="305" y2="505"/>
    <line x1="5" y1="305" x2="505" y2="305"/>
    <line x1="405" y1="5" x2="405" y2="505"/>
    <line x1="5" y1="405" x2="505" y2="405"/>
  </g>
</svg>
