<?xml version="1.0" standalone="no"?>
<!DOCTYPE svg PUBLIC "-//W3C//DTD SVG 1.1//EN" 
  "http://www.w3.org/Graphics/SVG/1.1/DTD/svg11.dtd">
<svg width="526" height="526" version="1.1" id="toplevel"
    xmlns="http://www.w3.org/2000/svg"
    xmlns:xlink="http://www.w3.org/1999/xlink">
  <polygon points="297,521 419,492 405,431 459,401 398,292 373,293 306,5 62,62 119,305"
           fill="bisque"/>
  <g stroke="chocolate" stroke-width="1">
    <line x1="297" y1="521" x2="419" y2="492"/>
    <circle cx="297" cy="521" r="2"/>
    <circle cx="419" cy="492" r="2"/>
  </g>
  <g stroke="chocolate" stroke-width="1">
    <line x1="405" y1="431" x2="459" y2="401"/>
    <circle cx="405" cy="431" r="2"/>
    <circle cx="459" cy="401" r="2"/>
  </g>
  <g stroke="chocolate" stroke-width="1">
    <line x1="297" y1="521" x2="398" y2="292"/>
    <circle cx="297" cy="521" r="2"/>
    <circle cx="398" cy="292" r="2"/>
  </g>
  <g stroke="chocolate" stroke-width="1">
    <line x1="119" y1="305" x2="398" y2="292"/>
    <circle cx="119" cy="305" r="2"/>
    <circle cx="398" cy="292" r="2"/>
  </g>
  <g stroke="chocolate" stroke-width="1">
    <line x1="405" y1="431" x2="119" y2="305"/>
    <circle cx="405" cy="431" r="2"/>
    <circle cx="119" cy="305" r="2"/>
  </g>
  <g stroke="chocolate" stroke-width="1">
    <line x1="297" y1="521" x2="119" y2="305"/>
    <circle cx="297" cy="521" r="2"/>
    <circle cx="119" cy="305" r="2"/>
  </g>
  <g stroke="chocolate" stroke-width="1">
    <line x1="119" y1="305" x2="62" y2="62"/>
    <circle cx="119" cy="305" r="2"/>
    <circle cx="62" cy="62" r="2"/>
  </g>
  <g stroke="chocolate" stroke-width="1">
    <line x1="419" y1="492" x2="306" y2="5"/>
    <circle cx="419" cy="492" r="2"/>
    <circle cx="306" cy="5" r="2"/>
  </g>
  <g stroke="chocolate" stroke-width="1">
    <line x1="62" y1="62" x2="306" y2="5"/>
    <circle cx="62" cy="62" r="2"/>
    <circle cx="306" cy="5" r="2"/>
  </g>
  <g stroke="chocolate" stroke-width="1">
    <line x1="459" y1="401" x2="398" y2="292"/>
    <circle cx="459" cy="401" r="2"/>
    <circle cx="398" cy="292" r="2"/>
  </g>
  <g stroke="black" stroke-width="1">
    <line x1="13" y1="13" x2="513" y2="13"/>
    <line x1="13" y1="13" x2="13" y2="513"/>
    <line x1="513" y1="513" x2="13" y2="513"/>
    <line x1="513" y1="513" x2="513" y2="13"/>
    <line x1="113" y1="10" x2="113" y2="16"/>
    <line x1="10" y1="113" x2="16" y2="113"/>
    <line x1="113" y1="510" x2="113" y2="516"/>
    <line x1="510" y1="113" x2="516" y2="113"/>
    <line x1="213" y1="10" x2="213" y2="16"/>
    <line x1="10" y1="213" x2="16" y2="213"/>
    <line x1="213" y1="510" x2="213" y2="516"/>
    <line x1="510" y1="213" x2="516" y2="213"/>
    <line x1="313" y1="10" x2="313" y2="16"/>
    <line x1="10" y1="313" x2="16" y2="313"/>
    <line x1="313" y1="510" x2="313" y2="516"/>
    <line x1="510" y1="313" x2="516" y2="313"/>
    <line x1="413" y1="10" x2="413" y2="16"/>
    <line x1="10" y1="413" x2="16" y2="413"/>
    <line x1="413" y1="510" x2="413" y2="516"/>
    <line x1="510" y1="413" x2="516" y2="413"/>
  </g>
  <g stroke="gray" stroke-width="1" stroke-dasharray="5,5">
    <line x1="113" y1="13" x2="113" y2="513"/>
    <line x1="13" y1="113" x2="513" y2="113"/>
    <line x1="213" y1="13" x2="213" y2="513"/>
    <line x1="13" y1="213" x2="513" y2="213"/>
    <line x1="313" y1="13" x2="313" y2="513"/>
    <line x1="13" y1="313" x2="513" y2="313"/>
    <line x1="413" y1="13" x2="413" y2="513"/>
    <line x1="13" y1="413" x2="513" y2="413"/>
  </g>
</svg>
