<?xml version="1.0" standalone="no"?>
<!DOCTYPE svg PUBLIC "-//W3C//DTD SVG 1.1//EN" 
  "http://www.w3.org/Graphics/SVG/1.1/DTD/svg11.dtd">
<svg width="510" height="510" version="1.1" id="toplevel"
    xmlns="http://www.w3.org/2000/svg"
    xmlns:xlink="http://www.w3.org/1999/xlink">
  <polygon points="318,477 407,389 318,299 318,298 389,268 389,102 221,102 153,33 103,83 103,387"
           fill="bisque"/>
  <g stroke="chocolate" stroke-width="1">
    <line x1="318" y1="477" x2="407" y2="389"/>
    <circle cx="318" cy="477" r="2"/>
    <circle cx="407" cy="389" r="2"/>
  </g>
  <g stroke="chocolate" stroke-width="1">
    <line x1="103" y1="387" x2="103" y2="83"/>
    <circle cx="103" cy="387" r="2"/>
    <circle cx="103" cy="83" r="2"/>
  </g>
  <g stroke="chocolate" stroke-width="1">
    <line x1="318" y1="477" x2="318" y2="102"/>
    <circle cx="318" cy="477" r="2"/>
    <circle cx="318" cy="102" r="2"/>
  </g>
  <g stroke="chocolate" stroke-width="1">
    <line x1="389" y1="268" x2="389" y2="102"/>
    <circle cx="389" cy="268" r="2"/>
    <circle cx="389" cy="102" r="2"/>
  </g>
  <g stroke="chocolate" stroke-width="1">
    <line x1="103" y1="387" x2="389" y2="268"/>
    <circle cx="103" cy="387" r="2"/>
    <circle cx="389" cy="268" r="2"/>
  </g>
  <g stroke="chocolate" stroke-width="1">
    <line x1="103" y1="83" x2="153" y2="33"/>
    <circle cx="103" cy="83" r="2"/>
    <circle cx="153" cy="33" r="2"/>
  </g>
  <g stroke="chocolate" stroke-width="1">
    <line x1="318" y1="477" x2="103" y2="387"/>
    <circle cx="318" cy="477" r="2"/>
    <circle cx="103" cy="387" r="2"/>
  </g>
  <g stroke="chocolate" stroke-width="1">
    <line x1="407" y1="389" x2="103" y2="83"/>
    <circle cx="407" cy="389" r="2"/>
    <circle cx="103" cy="83" r="2"/>
  </g>
  <g stroke="chocolate" stroke-width="1">
    <line x1="389" y1="268" x2="153" y2="33"/>
    <circle cx="389" cy="268" r="2"/>
    <circle cx="153" cy="33" r="2"/>
  </g>
  <g stroke="chocolate" stroke-width="1">
    <line x1="103" y1="102" x2="389" y2="102"/>
    <circle cx="103" cy="102" r="2"/>
    <circle cx="389" cy="102" r="2"/>
  </g>
  <g stroke="black" stroke-width="1">
    <line x1="5" y1="5" x2="505" y2="5"/>
    <line x1="5" y1="5" x2="5" y2="505"/>
    <line x1="505" y1="505" x2="5" y2="505"/>
    <line x1="505" y1="505" x2="505" y2="5"/>
    <line x1="105" y1="2" x2="105" y2="8"/>
    <line x1="2" y1="105" x2="8" y2="105"/>
    <line x1="105" y1="502" x2="105" y2="508"/>
    <line x1="502" y1="105" x2="508" y2="105"/>
    <line x1="205" y1="2" x2="205" y2="8"/>
    <line x1="2" y1="205" x2="8" y2="205"/>
    <line x1="205" y1="502" x2="205" y2="508"/>
    <line x1="502" y1="205" x2="508" y2="205"/>
    <line x1="305" y1="2" x2="305" y2="8"/>
    <line x1="2" y1="305" x2="8" y2="305"/>
    <line x1="305" y1="502" x2="305" y2="508"/>
    <line x1="502" y1="305" x2="508" y2="305"/>
    <line x1="405" y1="2" x2="405" y2="8"/>
    <line x1="2" y1="405" x2="8" y2="405"/>
    <line x1="405" y1="502" x2="405" y2="508"/>
    <line x1="502" y1="405" x2="508" y2="405"/>
  </g>
  <g stroke="gray" stroke-width="1" stroke-dasharray="5,5">
    <line x1="105" y1="5" x2="105" y2="505"/>
    <line x1="5" y1="105" x2="505" y2="105"/>
    <line x1="205" y1="5" x2="205" y2="505"/>
    <line x1="5" y1="205" x2="505" y2="205"/>
    <line x1="305" y1="5" x2="305" y2="505"/>
    <line x1="5" y1="305" x2="505" y2="305"/>
    <line x1="405" y1="5" x2="405" y2="505"/>
    <line x1="5" y1="405" x2="505" y2="405"/>
  </g>
</svg>
