<?xml version="1.0" standalone="no"?>
<!DOCTYPE svg PUBLIC "-//W3C//DTD SVG 1.1//EN" 
  "http://www.w3.org/Graphics/SVG/1.1/DTD/svg11.dtd">
<svg width="688" height="688" version="1.1" id="toplevel"
    xmlns="http://www.w3.org/2000/svg"
    xmlns:xlink="http://www.w3.org/1999/xlink">
  <polygon points="350,649 489,595 667,329 669,329 683,305 260,39 5,418"
           fill="bisque"/>
  <g stroke="chocolate" stroke-width="1">
    <line x1="350" y1="649" x2="5" y2="418"/>
    <circle cx="350" cy="649" r="2"/>
    <circle cx="5" cy="418" r="2"/>
  </g>
  <g stroke="chocolate" stroke-width="1">
    <line x1="350" y1="649" x2="369" y2="567"/>
    <circle cx="350" cy="649" r="2"/>
    <circle cx="369" cy="567" r="2"/>
  </g>
  <g stroke="chocolate" stroke-width="1">
    <line x1="669" y1="329" x2="683" y2="305"/>
    <circle cx="669" cy="329" r="2"/>
    <circle cx="683" cy="305" r="2"/>
  </g>
  <g stroke="chocolate" stroke-width="1">
    <line x1="683" y1="305" x2="260" y2="39"/>
    <circle cx="683" cy="305" r="2"/>
    <circle cx="260" cy="39" r="2"/>
  </g>
  <g stroke="chocolate" stroke-width="1">
    <line x1="489" y1="595" x2="683" y2="305"/>
    <circle cx="489" cy="595" r="2"/>
    <circle cx="683" cy="305" r="2"/>
  </g>
  <g stroke="chocolate" stroke-width="1">
    <line x1="669" y1="329" x2="238" y2="76"/>
    <circle cx="669" cy="329" r="2"/>
    <circle cx="238" cy="76" r="2"/>
  </g>
  <g stroke="chocolate" stroke-width="1">
    <line x1="489" y1="595" x2="369" y2="567"/>
    <circle cx="489" cy="595" r="2"/>
    <circle cx="369" cy="567" r="2"/>
  </g>
  <g stroke="chocolate" stroke-width="1">
    <line x1="238" y1="76" x2="260" y2="39"/>
    <circle cx="238" cy="76" r="2"/>
    <circle cx="260" cy="39" r="2"/>
  </g>
  <g stroke="chocolate" stroke-width="1">
    <line x1="5" y1="418" x2="260" y2="39"/>
    <circle cx="5" cy="418" r="2"/>
    <circle cx="260" cy="39" r="2"/>
  </g>
  <g stroke="chocolate" stroke-width="1">
    <line x1="350" y1="649" x2="489" y2="595"/>
    <circle cx="350" cy="649" r="2"/>
    <circle cx="489" cy="595" r="2"/>
  </g>
  <g stroke="black" stroke-width="1">
    <line x1="94" y1="94" x2="594" y2="94"/>
    <line x1="94" y1="94" x2="94" y2="594"/>
    <line x1="594" y1="594" x2="94" y2="594"/>
    <line x1="594" y1="594" x2="594" y2="94"/>
    <line x1="194" y1="91" x2="194" y2="97"/>
    <line x1="91" y1="194" x2="97" y2="194"/>
    <line x1="194" y1="591" x2="194" y2="597"/>
    <line x1="591" y1="194" x2="597" y2="194"/>
    <line x1="294" y1="91" x2="294" y2="97"/>
    <line x1="91" y1="294" x2="97" y2="294"/>
    <line x1="294" y1="591" x2="294" y2="597"/>
    <line x1="591" y1="294" x2="597" y2="294"/>
    <line x1="394" y1="91" x2="394" y2="97"/>
    <line x1="91" y1="394" x2="97" y2="394"/>
    <line x1="394" y1="591" x2="394" y2="597"/>
    <line x1="591" y1="394" x2="597" y2="394"/>
    <line x1="494" y1="91" x2="494" y2="97"/>
    <line x1="91" y1="494" x2="97" y2="494"/>
    <line x1="494" y1="591" x2="494" y2="597"/>
    <line x1="591" y1="494" x2="597" y2="494"/>
  </g>
  <g stroke="gray" stroke-width="1" stroke-dasharray="5,5">
    <line x1="194" y1="94" x2="194" y2="594"/>
    <line x1="94" y1="194" x2="594" y2="194"/>
    <line x1="294" y1="94" x2="294" y2="594"/>
    <line x1="94" y1="294" x2="594" y2="294"/>
    <line x1="394" y1="94" x2="394" y2="594"/>
    <line x1="94" y1="394" x2="594" y2="394"/>
    <line x1="494" y1="94" x2="494" y2="594"/>
    <line x1="94" y1="494" x2="594" y2="494"/>
  </g>
</svg>
