<?xml version="1.0" standalone="no"?>
<!DOCTYPE svg PUBLIC "-//W3C//DTD SVG 1.1//EN" 
  "http://www.w3.org/Graphics/SVG/1.1/DTD/svg11.dtd">
<svg width="520" height="520" version="1.1" id="toplevel"
    xmlns="http://www.w3.org/2000/svg"
    xmlns:xlink="http://www.w3.org/1999/xlink">
  <polygon points="515,502 333,199 120,18 5,67 70,220 30,382" fill="bisque"/>
  <g stroke="chocolate" stroke-width="1">
    <line x1="70" y1="220" x2="5" y2="67"/>
    <circle cx="70" cy="220" r="2"/>
    <circle cx="5" cy="67" r="2"/>
  </g>
  <g stroke="chocolate" stroke-width="1">
    <line x1="515" y1="502" x2="333" y2="199"/>
    <circle cx="515" cy="502" r="2"/>
    <circle cx="333" cy="199" r="2"/>
  </g>
  <g stroke="chocolate" stroke-width="1">
    <line x1="333" y1="199" x2="120" y2="18"/>
    <circle cx="333" cy="199" r="2"/>
    <circle cx="120" cy="18" r="2"/>
  </g>
  <g stroke="chocolate" stroke-width="1">
    <line x1="515" y1="502" x2="30" y2="382"/>
    <circle cx="515" cy="502" r="2"/>
    <circle cx="30" cy="382" r="2"/>
  </g>
  <g stroke="chocolate" stroke-width="1">
    <line x1="30" y1="382" x2="120" y2="18"/>
    <circle cx="30" cy="382" r="2"/>
    <circle cx="120" cy="18" r="2"/>
  </g>
  <g stroke="chocolate" stroke-width="1">
    <line x1="333" y1="199" x2="90" y2="139"/>
    <circle cx="333" cy="199" r="2"/>
    <circle cx="90" cy="139" r="2"/>
  </g>
  <g stroke="chocolate" stroke-width="1">
    <line x1="70" y1="220" x2="333" y2="199"/>
    <circle cx="70" cy="220" r="2"/>
    <circle cx="333" cy="199" r="2"/>
  </g>
  <g stroke="chocolate" stroke-width="1">
    <line x1="5" y1="67" x2="120" y2="18"/>
    <circle cx="5" cy="67" r="2"/>
    <circle cx="120" cy="18" r="2"/>
  </g>
  <g stroke="black" stroke-width="1">
    <line x1="10" y1="10" x2="510" y2="10"/>
    <line x1="10" y1="10" x2="10" y2="510"/>
    <line x1="510" y1="510" x2="10" y2="510"/>
    <line x1="510" y1="510" x2="510" y2="10"/>
    <line x1="110" y1="7" x2="110" y2="13"/>
    <line x1="7" y1="110" x2="13" y2="110"/>
    <line x1="110" y1="507" x2="110" y2="513"/>
    <line x1="507" y1="110" x2="513" y2="110"/>
    <line x1="210" y1="7" x2="210" y2="13"/>
    <line x1="7" y1="210" x2="13" y2="210"/>
    <line x1="210" y1="507" x2="210" y2="513"/>
    <line x1="507" y1="210" x2="513" y2="210"/>
    <line x1="310" y1="7" x2="310" y2="13"/>
    <line x1="7" y1="310" x2="13" y2="310"/>
    <line x1="310" y1="507" x2="310" y2="513"/>
    <line x1="507" y1="310" x2="513" y2="310"/>
    <line x1="410" y1="7" x2="410" y2="13"/>
    <line x1="7" y1="410" x2="13" y2="410"/>
    <line x1="410" y1="507" x2="410" y2="513"/>
    <line x1="507" y1="410" x2="513" y2="410"/>
  </g>
  <g stroke="gray" stroke-width="1" stroke-dasharray="5,5">
    <line x1="110" y1="10" x2="110" y2="510"/>
    <line x1="10" y1="110" x2="510" y2="110"/>
    <line x1="210" y1="10" x2="210" y2="510"/>
    <line x1="10" y1="210" x2="510" y2="210"/>
    <line x1="310" y1="10" x2="310" y2="510"/>
    <line x1="10" y1="310" x2="510" y2="310"/>
    <line x1="410" y1="10" x2="410" y2="510"/>
    <line x1="10" y1="410" x2="510" y2="410"/>
  </g>
</svg>
