<?xml version="1.0" standalone="no"?>
<!DOCTYPE svg PUBLIC "-//W3C//DTD SVG 1.1//EN" 
  "http://www.w3.org/Graphics/SVG/1.1/DTD/svg11.dtd">
<svg width="510" height="510" version="1.1" id="toplevel"
    xmlns="http://www.w3.org/2000/svg"
    xmlns:xlink="http://www.w3.org/1999/xlink">
  <polygon points="264,505 364,430 396,211 302,86 277,105 189,92 177,180 152,199 189,249 114,305"
           fill="bisque"/>
  <g stroke="chocolate" stroke-width="1">
    <line x1="364" y1="430" x2="396" y2="211"/>
    <circle cx="364" cy="430" r="2"/>
    <circle cx="396" cy="211" r="2"/>
  </g>
  <g stroke="chocolate" stroke-width="1">
    <line x1="339" y1="292" x2="358" y2="161"/>
    <circle cx="339" cy="292" r="2"/>
    <circle cx="358" cy="161" r="2"/>
  </g>
  <g stroke="chocolate" stroke-width="1">
    <line x1="264" y1="505" x2="364" y2="430"/>
    <circle cx="264" cy="505" r="2"/>
    <circle cx="364" cy="430" r="2"/>
  </g>
  <g stroke="chocolate" stroke-width="1">
    <line x1="289" y1="330" x2="321" y2="111"/>
    <circle cx="289" cy="330" r="2"/>
    <circle cx="321" cy="111" r="2"/>
  </g>
  <g stroke="chocolate" stroke-width="1">
    <line x1="264" y1="505" x2="114" y2="305"/>
    <circle cx="264" cy="505" r="2"/>
    <circle cx="114" cy="305" r="2"/>
  </g>
  <g stroke="chocolate" stroke-width="1">
    <line x1="246" y1="324" x2="264" y2="192"/>
    <circle cx="246" cy="324" r="2"/>
    <circle cx="264" cy="192" r="2"/>
  </g>
  <g stroke="chocolate" stroke-width="1">
    <line x1="208" y1="274" x2="227" y2="142"/>
    <circle cx="208" cy="274" r="2"/>
    <circle cx="227" cy="142" r="2"/>
  </g>
  <g stroke="chocolate" stroke-width="1">
    <line x1="171" y1="224" x2="189" y2="92"/>
    <circle cx="171" cy="224" r="2"/>
    <circle cx="189" cy="92" r="2"/>
  </g>
  <g stroke="chocolate" stroke-width="1">
    <line x1="246" y1="324" x2="152" y2="199"/>
    <circle cx="246" cy="324" r="2"/>
    <circle cx="152" cy="199" r="2"/>
  </g>
  <g stroke="chocolate" stroke-width="1">
    <line x1="364" y1="430" x2="289" y2="330"/>
    <circle cx="364" cy="430" r="2"/>
    <circle cx="289" cy="330" r="2"/>
  </g>
  <g stroke="chocolate" stroke-width="1">
    <line x1="289" y1="330" x2="339" y2="292"/>
    <circle cx="289" cy="330" r="2"/>
    <circle cx="339" cy="292" r="2"/>
  </g>
  <g stroke="chocolate" stroke-width="1">
    <line x1="377" y1="342" x2="189" y2="92"/>
    <circle cx="377" cy="342" r="2"/>
    <circle cx="189" cy="92" r="2"/>
  </g>
  <g stroke="chocolate" stroke-width="1">
    <line x1="396" y1="211" x2="302" y2="86"/>
    <circle cx="396" cy="211" r="2"/>
    <circle cx="302" cy="86" r="2"/>
  </g>
  <g stroke="chocolate" stroke-width="1">
    <line x1="377" y1="342" x2="246" y2="324"/>
    <circle cx="377" cy="342" r="2"/>
    <circle cx="246" cy="324" r="2"/>
  </g>
  <g stroke="chocolate" stroke-width="1">
    <line x1="114" y1="305" x2="339" y2="136"/>
    <circle cx="114" cy="305" r="2"/>
    <circle cx="339" cy="136" r="2"/>
  </g>
  <g stroke="chocolate" stroke-width="1">
    <line x1="339" y1="292" x2="208" y2="274"/>
    <circle cx="339" cy="292" r="2"/>
    <circle cx="208" cy="274" r="2"/>
  </g>
  <g stroke="chocolate" stroke-width="1">
    <line x1="152" y1="199" x2="302" y2="86"/>
    <circle cx="152" cy="199" r="2"/>
    <circle cx="302" cy="86" r="2"/>
  </g>
  <g stroke="chocolate" stroke-width="1">
    <line x1="302" y1="242" x2="171" y2="224"/>
    <circle cx="302" cy="242" r="2"/>
    <circle cx="171" cy="224" r="2"/>
  </g>
  <g stroke="chocolate" stroke-width="1">
    <line x1="396" y1="211" x2="264" y2="192"/>
    <circle cx="396" cy="211" r="2"/>
    <circle cx="264" cy="192" r="2"/>
  </g>
  <g stroke="chocolate" stroke-width="1">
    <line x1="358" y1="161" x2="227" y2="142"/>
    <circle cx="358" cy="161" r="2"/>
    <circle cx="227" cy="142" r="2"/>
  </g>
  <g stroke="chocolate" stroke-width="1">
    <line x1="321" y1="111" x2="189" y2="92"/>
    <circle cx="321" cy="111" r="2"/>
    <circle cx="189" cy="92" r="2"/>
  </g>
  <g stroke="black" stroke-width="1">
    <line x1="5" y1="5" x2="505" y2="5"/>
    <line x1="5" y1="5" x2="5" y2="505"/>
    <line x1="505" y1="505" x2="5" y2="505"/>
    <line x1="505" y1="505" x2="505" y2="5"/>
    <line x1="105" y1="2" x2="105" y2="8"/>
    <line x1="2" y1="105" x2="8" y2="105"/>
    <line x1="105" y1="502" x2="105" y2="508"/>
    <line x1="502" y1="105" x2="508" y2="105"/>
    <line x1="205" y1="2" x2="205" y2="8"/>
    <line x1="2" y1="205" x2="8" y2="205"/>
    <line x1="205" y1="502" x2="205" y2="508"/>
    <line x1="502" y1="205" x2="508" y2="205"/>
    <line x1="305" y1="2" x2="305" y2="8"/>
    <line x1="2" y1="305" x2="8" y2="305"/>
    <line x1="305" y1="502" x2="305" y2="508"/>
    <line x1="502" y1="305" x2="508" y2="305"/>
    <line x1="405" y1="2" x2="405" y2="8"/>
    <line x1="2" y1="405" x2="8" y2="405"/>
    <line x1="405" y1="502" x2="405" y2="508"/>
    <line x1="502" y1="405" x2="508" y2="405"/>
  </g>
  <g stroke="gray" stroke-width="1" stroke-dasharray="5,5">
    <line x1="105" y1="5" x2="105" y2="505"/>
    <line x1="5" y1="105" x2="505" y2="105"/>
    <line x1="205" y1="5" x2="205" y2="505"/>
    <line x1="5" y1="205" x2="505" y2="205"/>
    <line x1="305" y1="5" x2="305" y2="505"/>
    <line x1="5" y1="305" x2="505" y2="305"/>
    <line x1="405" y1="5" x2="405" y2="505"/>
    <line x1="5" y1="405" x2="505" y2="405"/>
  </g>
</svg>
