<?xml version="1.0" standalone="no"?>
<!DOCTYPE svg PUBLIC "-//W3C//DTD SVG 1.1//EN" 
  "http://www.w3.org/Graphics/SVG/1.1/DTD/svg11.dtd">
<svg width="510" height="510" version="1.1" id="toplevel"
    xmlns="http://www.w3.org/2000/svg"
    xmlns:xlink="http://www.w3.org/1999/xlink">
  <polygon points="124,505 249,411 280,192 205,92 5,242 61,318 11,355 30,380 18,468 105,480"
           fill="bisque"/>
  <g stroke="chocolate" stroke-width="1">
    <line x1="124" y1="505" x2="249" y2="411"/>
    <circle cx="124" cy="505" r="2"/>
    <circle cx="249" cy="411" r="2"/>
  </g>
  <g stroke="chocolate" stroke-width="1">
    <line x1="249" y1="411" x2="280" y2="192"/>
    <circle cx="249" cy="411" r="2"/>
    <circle cx="280" cy="192" r="2"/>
  </g>
  <g stroke="chocolate" stroke-width="1">
    <line x1="199" y1="449" x2="218" y2="318"/>
    <circle cx="199" cy="449" r="2"/>
    <circle cx="218" cy="318" r="2"/>
  </g>
  <g stroke="chocolate" stroke-width="1">
    <line x1="149" y1="486" x2="180" y2="268"/>
    <circle cx="149" cy="486" r="2"/>
    <circle cx="180" cy="268" r="2"/>
  </g>
  <g stroke="chocolate" stroke-width="1">
    <line x1="118" y1="392" x2="136" y2="261"/>
    <circle cx="118" cy="392" r="2"/>
    <circle cx="136" cy="261" r="2"/>
  </g>
  <g stroke="chocolate" stroke-width="1">
    <line x1="68" y1="430" x2="86" y2="299"/>
    <circle cx="68" cy="430" r="2"/>
    <circle cx="86" cy="299" r="2"/>
  </g>
  <g stroke="chocolate" stroke-width="1">
    <line x1="18" y1="468" x2="36" y2="336"/>
    <circle cx="18" cy="468" r="2"/>
    <circle cx="36" cy="336" r="2"/>
  </g>
  <g stroke="chocolate" stroke-width="1">
    <line x1="18" y1="468" x2="268" y2="280"/>
    <circle cx="18" cy="468" r="2"/>
    <circle cx="268" cy="280" r="2"/>
  </g>
  <g stroke="chocolate" stroke-width="1">
    <line x1="149" y1="486" x2="18" y2="468"/>
    <circle cx="149" cy="486" r="2"/>
    <circle cx="18" cy="468" r="2"/>
  </g>
  <g stroke="chocolate" stroke-width="1">
    <line x1="124" y1="505" x2="11" y2="355"/>
    <circle cx="124" cy="505" r="2"/>
    <circle cx="11" cy="355" r="2"/>
  </g>
  <g stroke="chocolate" stroke-width="1">
    <line x1="180" y1="268" x2="280" y2="192"/>
    <circle cx="180" cy="268" r="2"/>
    <circle cx="280" cy="192" r="2"/>
  </g>
  <g stroke="chocolate" stroke-width="1">
    <line x1="199" y1="449" x2="68" y2="430"/>
    <circle cx="199" cy="449" r="2"/>
    <circle cx="68" cy="430" r="2"/>
  </g>
  <g stroke="chocolate" stroke-width="1">
    <line x1="11" y1="355" x2="136" y2="261"/>
    <circle cx="11" cy="355" r="2"/>
    <circle cx="136" cy="261" r="2"/>
  </g>
  <g stroke="chocolate" stroke-width="1">
    <line x1="174" y1="468" x2="5" y2="242"/>
    <circle cx="174" cy="468" r="2"/>
    <circle cx="5" cy="242" r="2"/>
  </g>
  <g stroke="chocolate" stroke-width="1">
    <line x1="249" y1="411" x2="118" y2="392"/>
    <circle cx="249" cy="411" r="2"/>
    <circle cx="118" cy="392" r="2"/>
  </g>
  <g stroke="chocolate" stroke-width="1">
    <line x1="5" y1="242" x2="205" y2="92"/>
    <circle cx="5" cy="242" r="2"/>
    <circle cx="205" cy="92" r="2"/>
  </g>
  <g stroke="chocolate" stroke-width="1">
    <line x1="218" y1="318" x2="180" y2="268"/>
    <circle cx="218" cy="318" r="2"/>
    <circle cx="180" cy="268" r="2"/>
  </g>
  <g stroke="chocolate" stroke-width="1">
    <line x1="168" y1="355" x2="36" y2="336"/>
    <circle cx="168" cy="355" r="2"/>
    <circle cx="36" cy="336" r="2"/>
  </g>
  <g stroke="chocolate" stroke-width="1">
    <line x1="218" y1="318" x2="86" y2="299"/>
    <circle cx="218" cy="318" r="2"/>
    <circle cx="86" cy="299" r="2"/>
  </g>
  <g stroke="chocolate" stroke-width="1">
    <line x1="280" y1="192" x2="205" y2="92"/>
    <circle cx="280" cy="192" r="2"/>
    <circle cx="205" cy="92" r="2"/>
  </g>
  <g stroke="chocolate" stroke-width="1">
    <line x1="268" y1="280" x2="136" y2="261"/>
    <circle cx="268" cy="280" r="2"/>
    <circle cx="136" cy="261" r="2"/>
  </g>
  <g stroke="black" stroke-width="1">
    <line x1="5" y1="5" x2="505" y2="5"/>
    <line x1="5" y1="5" x2="5" y2="505"/>
    <line x1="505" y1="505" x2="5" y2="505"/>
    <line x1="505" y1="505" x2="505" y2="5"/>
    <line x1="105" y1="2" x2="105" y2="8"/>
    <line x1="2" y1="105" x2="8" y2="105"/>
    <line x1="105" y1="502" x2="105" y2="508"/>
    <line x1="502" y1="105" x2="508" y2="105"/>
    <line x1="205" y1="2" x2="205" y2="8"/>
    <line x1="2" y1="205" x2="8" y2="205"/>
    <line x1="205" y1="502" x2="205" y2="508"/>
    <line x1="502" y1="205" x2="508" y2="205"/>
    <line x1="305" y1="2" x2="305" y2="8"/>
    <line x1="2" y1="305" x2="8" y2="305"/>
    <line x1="305" y1="502" x2="305" y2="508"/>
    <line x1="502" y1="305" x2="508" y2="305"/>
    <line x1="405" y1="2" x2="405" y2="8"/>
    <line x1="2" y1="405" x2="8" y2="405"/>
    <line x1="405" y1="502" x2="405" y2="508"/>
    <line x1="502" y1="405" x2="508" y2="405"/>
  </g>
  <g stroke="gray" stroke-width="1" stroke-dasharray="5,5">
    <line x1="105" y1="5" x2="105" y2="505"/>
    <line x1="5" y1="105" x2="505" y2="105"/>
    <line x1="205" y1="5" x2="205" y2="505"/>
    <line x1="5" y1="205" x2="505" y2="205"/>
    <line x1="305" y1="5" x2="305" y2="505"/>
    <line x1="5" y1="305" x2="505" y2="305"/>
    <line x1="405" y1="5" x2="405" y2="505"/>
    <line x1="5" y1="405" x2="505" y2="405"/>
  </g>
</svg>
