<?xml version="1.0" standalone="no"?>
<!DOCTYPE svg PUBLIC "-//W3C//DTD SVG 1.1//EN" 
  "http://www.w3.org/Graphics/SVG/1.1/DTD/svg11.dtd">
<svg width="510" height="510" version="1.1" id="toplevel"
    xmlns="http://www.w3.org/2000/svg"
    xmlns:xlink="http://www.w3.org/1999/xlink">
  <polygon points="411,371 451,154 389,139 375,194 364,229 244,202 230,256 233,257 231,271 343,292 357,283 341,356 358,360 358,363"
           fill="bisque"/>
  <g stroke="chocolate" stroke-width="1">
    <line x1="426" y1="242" x2="451" y2="154"/>
    <circle cx="426" cy="242" r="2"/>
    <circle cx="451" cy="154" r="2"/>
  </g>
  <g stroke="chocolate" stroke-width="1">
    <line x1="411" y1="371" x2="451" y2="154"/>
    <circle cx="411" cy="371" r="2"/>
    <circle cx="451" cy="154" r="2"/>
  </g>
  <g stroke="chocolate" stroke-width="1">
    <line x1="341" y1="356" x2="389" y2="139"/>
    <circle cx="341" cy="356" r="2"/>
    <circle cx="389" cy="139" r="2"/>
  </g>
  <g stroke="chocolate" stroke-width="1">
    <line x1="351" y1="287" x2="389" y2="139"/>
    <circle cx="351" cy="287" r="2"/>
    <circle cx="389" cy="139" r="2"/>
  </g>
  <g stroke="chocolate" stroke-width="1">
    <line x1="358" y1="363" x2="392" y2="140"/>
    <circle cx="358" cy="363" r="2"/>
    <circle cx="392" cy="140" r="2"/>
  </g>
  <g stroke="chocolate" stroke-width="1">
    <line x1="343" y1="292" x2="392" y2="140"/>
    <circle cx="343" cy="292" r="2"/>
    <circle cx="392" cy="140" r="2"/>
  </g>
  <g stroke="chocolate" stroke-width="1">
    <line x1="231" y1="271" x2="244" y2="202"/>
    <circle cx="231" cy="271" r="2"/>
    <circle cx="244" cy="202" r="2"/>
  </g>
  <g stroke="chocolate" stroke-width="1">
    <line x1="230" y1="256" x2="244" y2="202"/>
    <circle cx="230" cy="256" r="2"/>
    <circle cx="244" cy="202" r="2"/>
  </g>
  <g stroke="chocolate" stroke-width="1">
    <line x1="343" y1="292" x2="426" y2="242"/>
    <circle cx="343" cy="292" r="2"/>
    <circle cx="426" cy="242" r="2"/>
  </g>
  <g stroke="chocolate" stroke-width="1">
    <line x1="411" y1="371" x2="358" y2="363"/>
    <circle cx="411" cy="371" r="2"/>
    <circle cx="358" cy="363" r="2"/>
  </g>
  <g stroke="chocolate" stroke-width="1">
    <line x1="411" y1="371" x2="341" y2="356"/>
    <circle cx="411" cy="371" r="2"/>
    <circle cx="341" cy="356" r="2"/>
  </g>
  <g stroke="chocolate" stroke-width="1">
    <line x1="343" y1="292" x2="231" y2="271"/>
    <circle cx="343" cy="292" r="2"/>
    <circle cx="231" cy="271" r="2"/>
  </g>
  <g stroke="chocolate" stroke-width="1">
    <line x1="351" y1="287" x2="230" y2="256"/>
    <circle cx="351" cy="287" r="2"/>
    <circle cx="230" cy="256" r="2"/>
  </g>
  <g stroke="chocolate" stroke-width="1">
    <line x1="426" y1="242" x2="244" y2="202"/>
    <circle cx="426" cy="242" r="2"/>
    <circle cx="244" cy="202" r="2"/>
  </g>
  <g stroke="chocolate" stroke-width="1">
    <line x1="451" y1="154" x2="389" y2="139"/>
    <circle cx="451" cy="154" r="2"/>
    <circle cx="389" cy="139" r="2"/>
  </g>
  <g stroke="black" stroke-width="1">
    <line x1="5" y1="5" x2="505" y2="5"/>
    <line x1="5" y1="5" x2="5" y2="505"/>
    <line x1="505" y1="505" x2="5" y2="505"/>
    <line x1="505" y1="505" x2="505" y2="5"/>
    <line x1="105" y1="2" x2="105" y2="8"/>
    <line x1="2" y1="105" x2="8" y2="105"/>
    <line x1="105" y1="502" x2="105" y2="508"/>
    <line x1="502" y1="105" x2="508" y2="105"/>
    <line x1="205" y1="2" x2="205" y2="8"/>
    <line x1="2" y1="205" x2="8" y2="205"/>
    <line x1="205" y1="502" x2="205" y2="508"/>
    <line x1="502" y1="205" x2="508" y2="205"/>
    <line x1="305" y1="2" x2="305" y2="8"/>
    <line x1="2" y1="305" x2="8" y2="305"/>
    <line x1="305" y1="502" x2="305" y2="508"/>
    <line x1="502" y1="305" x2="508" y2="305"/>
    <line x1="405" y1="2" x2="405" y2="8"/>
    <line x1="2" y1="405" x2="8" y2="405"/>
    <line x1="405" y1="502" x2="405" y2="508"/>
    <line x1="502" y1="405" x2="508" y2="405"/>
  </g>
  <g stroke="gray" stroke-width="1" stroke-dasharray="5,5">
    <line x1="105" y1="5" x2="105" y2="505"/>
    <line x1="5" y1="105" x2="505" y2="105"/>
    <line x1="205" y1="5" x2="205" y2="505"/>
    <line x1="5" y1="205" x2="505" y2="205"/>
    <line x1="305" y1="5" x2="305" y2="505"/>
    <line x1="5" y1="305" x2="505" y2="305"/>
    <line x1="405" y1="5" x2="405" y2="505"/>
    <line x1="5" y1="405" x2="505" y2="405"/>
  </g>
</svg>
