<?xml version="1.0" standalone="no"?>
<!DOCTYPE svg PUBLIC "-//W3C//DTD SVG 1.1//EN" 
  "http://www.w3.org/Graphics/SVG/1.1/DTD/svg11.dtd">
<svg width="510" height="510" version="1.1" id="toplevel"
    xmlns="http://www.w3.org/2000/svg"
    xmlns:xlink="http://www.w3.org/1999/xlink">
  <polygon points="422,448 434,399 376,334 387,309 383,307 422,95 340,80 288,146 226,124 203,69 162,62 127,253 130,254 76,373 162,411 199,377 233,400 232,402"
           fill="bisque"/>
  <g stroke="chocolate" stroke-width="1">
    <line x1="422" y1="448" x2="434" y2="399"/>
    <circle cx="422" cy="448" r="2"/>
    <circle cx="434" cy="399" r="2"/>
  </g>
  <g stroke="chocolate" stroke-width="1">
    <line x1="380" y1="323" x2="422" y2="95"/>
    <circle cx="380" cy="323" r="2"/>
    <circle cx="422" cy="95" r="2"/>
  </g>
  <g stroke="chocolate" stroke-width="1">
    <line x1="343" y1="410" x2="387" y2="309"/>
    <circle cx="343" cy="410" r="2"/>
    <circle cx="387" cy="309" r="2"/>
  </g>
  <g stroke="chocolate" stroke-width="1">
    <line x1="380" y1="323" x2="387" y2="309"/>
    <circle cx="380" cy="323" r="2"/>
    <circle cx="387" cy="309" r="2"/>
  </g>
  <g stroke="chocolate" stroke-width="1">
    <line x1="236" y1="402" x2="296" y2="209"/>
    <circle cx="236" cy="402" r="2"/>
    <circle cx="296" cy="209" r="2"/>
  </g>
  <g stroke="chocolate" stroke-width="1">
    <line x1="232" y1="402" x2="256" y2="200"/>
    <circle cx="232" cy="402" r="2"/>
    <circle cx="256" cy="200" r="2"/>
  </g>
  <g stroke="chocolate" stroke-width="1">
    <line x1="127" y1="253" x2="162" y2="62"/>
    <circle cx="127" cy="253" r="2"/>
    <circle cx="162" cy="62" r="2"/>
  </g>
  <g stroke="chocolate" stroke-width="1">
    <line x1="305" y1="312" x2="334" y2="254"/>
    <circle cx="305" cy="312" r="2"/>
    <circle cx="334" cy="254" r="2"/>
  </g>
  <g stroke="chocolate" stroke-width="1">
    <line x1="193" y1="266" x2="209" y2="233"/>
    <circle cx="193" cy="266" r="2"/>
    <circle cx="209" cy="233" r="2"/>
  </g>
  <g stroke="chocolate" stroke-width="1">
    <line x1="76" y1="373" x2="166" y2="174"/>
    <circle cx="76" cy="373" r="2"/>
    <circle cx="166" cy="174" r="2"/>
  </g>
  <g stroke="chocolate" stroke-width="1">
    <line x1="127" y1="253" x2="166" y2="174"/>
    <circle cx="127" cy="253" r="2"/>
    <circle cx="166" cy="174" r="2"/>
  </g>
  <g stroke="chocolate" stroke-width="1">
    <line x1="178" y1="106" x2="203" y2="69"/>
    <circle cx="178" cy="106" r="2"/>
    <circle cx="203" cy="69" r="2"/>
  </g>
  <g stroke="chocolate" stroke-width="1">
    <line x1="193" y1="266" x2="340" y2="80"/>
    <circle cx="193" cy="266" r="2"/>
    <circle cx="340" cy="80" r="2"/>
  </g>
  <g stroke="chocolate" stroke-width="1">
    <line x1="250" y1="326" x2="385" y2="181"/>
    <circle cx="250" cy="326" r="2"/>
    <circle cx="385" cy="181" r="2"/>
  </g>
  <g stroke="chocolate" stroke-width="1">
    <line x1="162" y1="411" x2="134" y2="332"/>
    <circle cx="162" cy="411" r="2"/>
    <circle cx="134" cy="332" r="2"/>
  </g>
  <g stroke="chocolate" stroke-width="1">
    <line x1="250" y1="326" x2="178" y2="106"/>
    <circle cx="250" cy="326" r="2"/>
    <circle cx="178" cy="106" r="2"/>
  </g>
  <g stroke="chocolate" stroke-width="1">
    <line x1="162" y1="411" x2="334" y2="254"/>
    <circle cx="162" cy="411" r="2"/>
    <circle cx="334" cy="254" r="2"/>
  </g>
  <g stroke="chocolate" stroke-width="1">
    <line x1="305" y1="312" x2="203" y2="69"/>
    <circle cx="305" cy="312" r="2"/>
    <circle cx="203" cy="69" r="2"/>
  </g>
  <g stroke="chocolate" stroke-width="1">
    <line x1="385" y1="181" x2="340" y2="80"/>
    <circle cx="385" cy="181" r="2"/>
    <circle cx="340" cy="80" r="2"/>
  </g>
  <g stroke="chocolate" stroke-width="1">
    <line x1="134" y1="332" x2="296" y2="209"/>
    <circle cx="134" cy="332" r="2"/>
    <circle cx="296" cy="209" r="2"/>
  </g>
  <g stroke="chocolate" stroke-width="1">
    <line x1="209" y1="233" x2="256" y2="200"/>
    <circle cx="209" cy="233" r="2"/>
    <circle cx="256" cy="200" r="2"/>
  </g>
  <g stroke="chocolate" stroke-width="1">
    <line x1="343" y1="410" x2="209" y2="233"/>
    <circle cx="343" cy="410" r="2"/>
    <circle cx="209" cy="233" r="2"/>
  </g>
  <g stroke="chocolate" stroke-width="1">
    <line x1="250" y1="326" x2="193" y2="266"/>
    <circle cx="250" cy="326" r="2"/>
    <circle cx="193" cy="266" r="2"/>
  </g>
  <g stroke="chocolate" stroke-width="1">
    <line x1="334" y1="254" x2="296" y2="209"/>
    <circle cx="334" cy="254" r="2"/>
    <circle cx="296" cy="209" r="2"/>
  </g>
  <g stroke="chocolate" stroke-width="1">
    <line x1="434" y1="399" x2="256" y2="200"/>
    <circle cx="434" cy="399" r="2"/>
    <circle cx="256" cy="200" r="2"/>
  </g>
  <g stroke="chocolate" stroke-width="1">
    <line x1="250" y1="326" x2="305" y2="312"/>
    <circle cx="250" cy="326" r="2"/>
    <circle cx="305" cy="312" r="2"/>
  </g>
  <g stroke="chocolate" stroke-width="1">
    <line x1="343" y1="410" x2="434" y2="399"/>
    <circle cx="343" cy="410" r="2"/>
    <circle cx="434" cy="399" r="2"/>
  </g>
  <g stroke="chocolate" stroke-width="1">
    <line x1="236" y1="402" x2="134" y2="332"/>
    <circle cx="236" cy="402" r="2"/>
    <circle cx="134" cy="332" r="2"/>
  </g>
  <g stroke="chocolate" stroke-width="1">
    <line x1="162" y1="411" x2="76" y2="373"/>
    <circle cx="162" cy="411" r="2"/>
    <circle cx="76" cy="373" r="2"/>
  </g>
  <g stroke="chocolate" stroke-width="1">
    <line x1="232" y1="402" x2="236" y2="402"/>
    <circle cx="232" cy="402" r="2"/>
    <circle cx="236" cy="402" r="2"/>
  </g>
  <g stroke="chocolate" stroke-width="1">
    <line x1="422" y1="448" x2="232" y2="402"/>
    <circle cx="422" cy="448" r="2"/>
    <circle cx="232" cy="402" r="2"/>
  </g>
  <g stroke="chocolate" stroke-width="1">
    <line x1="305" y1="312" x2="127" y2="253"/>
    <circle cx="305" cy="312" r="2"/>
    <circle cx="127" cy="253" r="2"/>
  </g>
  <g stroke="chocolate" stroke-width="1">
    <line x1="387" y1="309" x2="209" y2="233"/>
    <circle cx="387" cy="309" r="2"/>
    <circle cx="209" cy="233" r="2"/>
  </g>
  <g stroke="chocolate" stroke-width="1">
    <line x1="334" y1="254" x2="166" y2="174"/>
    <circle cx="334" cy="254" r="2"/>
    <circle cx="166" cy="174" r="2"/>
  </g>
  <g stroke="chocolate" stroke-width="1">
    <line x1="380" y1="323" x2="193" y2="266"/>
    <circle cx="380" cy="323" r="2"/>
    <circle cx="193" cy="266" r="2"/>
  </g>
  <g stroke="chocolate" stroke-width="1">
    <line x1="296" y1="209" x2="256" y2="200"/>
    <circle cx="296" cy="209" r="2"/>
    <circle cx="256" cy="200" r="2"/>
  </g>
  <g stroke="chocolate" stroke-width="1">
    <line x1="385" y1="181" x2="178" y2="106"/>
    <circle cx="385" cy="181" r="2"/>
    <circle cx="178" cy="106" r="2"/>
  </g>
  <g stroke="chocolate" stroke-width="1">
    <line x1="203" y1="69" x2="162" y2="62"/>
    <circle cx="203" cy="69" r="2"/>
    <circle cx="162" cy="62" r="2"/>
  </g>
  <g stroke="chocolate" stroke-width="1">
    <line x1="422" y1="95" x2="340" y2="80"/>
    <circle cx="422" cy="95" r="2"/>
    <circle cx="340" cy="80" r="2"/>
  </g>
  <g stroke="black" stroke-width="1">
    <line x1="5" y1="5" x2="505" y2="5"/>
    <line x1="5" y1="5" x2="5" y2="505"/>
    <line x1="505" y1="505" x2="5" y2="505"/>
    <line x1="505" y1="505" x2="505" y2="5"/>
    <line x1="105" y1="2" x2="105" y2="8"/>
    <line x1="2" y1="105" x2="8" y2="105"/>
    <line x1="105" y1="502" x2="105" y2="508"/>
    <line x1="502" y1="105" x2="508" y2="105"/>
    <line x1="205" y1="2" x2="205" y2="8"/>
    <line x1="2" y1="205" x2="8" y2="205"/>
    <line x1="205" y1="502" x2="205" y2="508"/>
    <line x1="502" y1="205" x2="508" y2="205"/>
    <line x1="305" y1="2" x2="305" y2="8"/>
    <line x1="2" y1="305" x2="8" y2="305"/>
    <line x1="305" y1="502" x2="305" y2="508"/>
    <line x1="502" y1="305" x2="508" y2="305"/>
    <line x1="405" y1="2" x2="405" y2="8"/>
    <line x1="2" y1="405" x2="8" y2="405"/>
    <line x1="405" y1="502" x2="405" y2="508"/>
    <line x1="502" y1="405" x2="508" y2="405"/>
  </g>
  <g stroke="gray" stroke-width="1" stroke-dasharray="5,5">
    <line x1="105" y1="5" x2="105" y2="505"/>
    <line x1="5" y1="105" x2="505" y2="105"/>
    <line x1="205" y1="5" x2="205" y2="505"/>
    <line x1="5" y1="205" x2="505" y2="205"/>
    <line x1="305" y1="5" x2="305" y2="505"/>
    <line x1="5" y1="305" x2="505" y2="305"/>
    <line x1="405" y1="5" x2="405" y2="505"/>
    <line x1="5" y1="405" x2="505" y2="405"/>
  </g>
</svg>
