<?xml version="1.0" standalone="no"?>
<!DOCTYPE svg PUBLIC "-//W3C//DTD SVG 1.1//EN" 
  "http://www.w3.org/Graphics/SVG/1.1/DTD/svg11.dtd">
<svg width="510" height="510" version="1.1" id="toplevel"
    xmlns="http://www.w3.org/2000/svg"
    xmlns:xlink="http://www.w3.org/1999/xlink">
  <polygon points="90,427 271,381 304,423 383,403 363,323 475,105 460,83 428,105 307,107 273,151 122,147 101,334 50,369"
           fill="bisque"/>
  <g stroke="chocolate" stroke-width="1">
    <line x1="304" y1="423" x2="383" y2="403"/>
    <circle cx="304" cy="423" r="2"/>
    <circle cx="383" cy="403" r="2"/>
  </g>
  <g stroke="chocolate" stroke-width="1">
    <line x1="90" y1="427" x2="342" y2="363"/>
    <circle cx="90" cy="427" r="2"/>
    <circle cx="342" cy="363" r="2"/>
  </g>
  <g stroke="chocolate" stroke-width="1">
    <line x1="133" y1="296" x2="384" y2="278"/>
    <circle cx="133" cy="296" r="2"/>
    <circle cx="384" cy="278" r="2"/>
  </g>
  <g stroke="chocolate" stroke-width="1">
    <line x1="50" y1="369" x2="460" y2="83"/>
    <circle cx="50" cy="369" r="2"/>
    <circle cx="460" cy="83" r="2"/>
  </g>
  <g stroke="chocolate" stroke-width="1">
    <line x1="184" y1="267" x2="304" y2="151"/>
    <circle cx="184" cy="267" r="2"/>
    <circle cx="304" cy="151" r="2"/>
  </g>
  <g stroke="chocolate" stroke-width="1">
    <line x1="304" y1="151" x2="122" y2="147"/>
    <circle cx="304" cy="151" r="2"/>
    <circle cx="122" cy="147" r="2"/>
  </g>
  <g stroke="chocolate" stroke-width="1">
    <line x1="304" y1="423" x2="384" y2="278"/>
    <circle cx="304" cy="423" r="2"/>
    <circle cx="384" cy="278" r="2"/>
  </g>
  <g stroke="chocolate" stroke-width="1">
    <line x1="342" y1="363" x2="475" y2="105"/>
    <circle cx="342" cy="363" r="2"/>
    <circle cx="475" cy="105" r="2"/>
  </g>
  <g stroke="chocolate" stroke-width="1">
    <line x1="307" y1="107" x2="475" y2="105"/>
    <circle cx="307" cy="107" r="2"/>
    <circle cx="475" cy="105" r="2"/>
  </g>
  <g stroke="chocolate" stroke-width="1">
    <line x1="184" y1="267" x2="307" y2="107"/>
    <circle cx="184" cy="267" r="2"/>
    <circle cx="307" cy="107" r="2"/>
  </g>
  <g stroke="chocolate" stroke-width="1">
    <line x1="342" y1="363" x2="184" y2="267"/>
    <circle cx="342" cy="363" r="2"/>
    <circle cx="184" cy="267" r="2"/>
  </g>
  <g stroke="chocolate" stroke-width="1">
    <line x1="90" y1="427" x2="50" y2="369"/>
    <circle cx="90" cy="427" r="2"/>
    <circle cx="50" cy="369" r="2"/>
  </g>
  <g stroke="chocolate" stroke-width="1">
    <line x1="304" y1="423" x2="184" y2="267"/>
    <circle cx="304" cy="423" r="2"/>
    <circle cx="184" cy="267" r="2"/>
  </g>
  <g stroke="chocolate" stroke-width="1">
    <line x1="90" y1="427" x2="122" y2="147"/>
    <circle cx="90" cy="427" r="2"/>
    <circle cx="122" cy="147" r="2"/>
  </g>
  <g stroke="chocolate" stroke-width="1">
    <line x1="133" y1="296" x2="122" y2="147"/>
    <circle cx="133" cy="296" r="2"/>
    <circle cx="122" cy="147" r="2"/>
  </g>
  <g stroke="chocolate" stroke-width="1">
    <line x1="342" y1="363" x2="304" y2="151"/>
    <circle cx="342" cy="363" r="2"/>
    <circle cx="304" cy="151" r="2"/>
  </g>
  <g stroke="chocolate" stroke-width="1">
    <line x1="384" y1="278" x2="304" y2="151"/>
    <circle cx="384" cy="278" r="2"/>
    <circle cx="304" cy="151" r="2"/>
  </g>
  <g stroke="chocolate" stroke-width="1">
    <line x1="383" y1="403" x2="307" y2="107"/>
    <circle cx="383" cy="403" r="2"/>
    <circle cx="307" cy="107" r="2"/>
  </g>
  <g stroke="chocolate" stroke-width="1">
    <line x1="475" y1="105" x2="460" y2="83"/>
    <circle cx="475" cy="105" r="2"/>
    <circle cx="460" cy="83" r="2"/>
  </g>
  <g stroke="black" stroke-width="1">
    <line x1="5" y1="5" x2="505" y2="5"/>
    <line x1="5" y1="5" x2="5" y2="505"/>
    <line x1="505" y1="505" x2="5" y2="505"/>
    <line x1="505" y1="505" x2="505" y2="5"/>
    <line x1="105" y1="2" x2="105" y2="8"/>
    <line x1="2" y1="105" x2="8" y2="105"/>
    <line x1="105" y1="502" x2="105" y2="508"/>
    <line x1="502" y1="105" x2="508" y2="105"/>
    <line x1="205" y1="2" x2="205" y2="8"/>
    <line x1="2" y1="205" x2="8" y2="205"/>
    <line x1="205" y1="502" x2="205" y2="508"/>
    <line x1="502" y1="205" x2="508" y2="205"/>
    <line x1="305" y1="2" x2="305" y2="8"/>
    <line x1="2" y1="305" x2="8" y2="305"/>
    <line x1="305" y1="502" x2="305" y2="508"/>
    <line x1="502" y1="305" x2="508" y2="305"/>
    <line x1="405" y1="2" x2="405" y2="8"/>
    <line x1="2" y1="405" x2="8" y2="405"/>
    <line x1="405" y1="502" x2="405" y2="508"/>
    <line x1="502" y1="405" x2="508" y2="405"/>
  </g>
  <g stroke="gray" stroke-width="1" stroke-dasharray="5,5">
    <line x1="105" y1="5" x2="105" y2="505"/>
    <line x1="5" y1="105" x2="505" y2="105"/>
    <line x1="205" y1="5" x2="205" y2="505"/>
    <line x1="5" y1="205" x2="505" y2="205"/>
    <line x1="305" y1="5" x2="305" y2="505"/>
    <line x1="5" y1="305" x2="505" y2="305"/>
    <line x1="405" y1="5" x2="405" y2="505"/>
    <line x1="5" y1="405" x2="505" y2="405"/>
  </g>
</svg>
