<?xml version="1.0" standalone="no"?>
<!DOCTYPE svg PUBLIC "-//W3C//DTD SVG 1.1//EN" 
  "http://www.w3.org/Graphics/SVG/1.1/DTD/svg11.dtd">
<svg width="716" height="716" version="1.1" id="toplevel"
    xmlns="http://www.w3.org/2000/svg"
    xmlns:xlink="http://www.w3.org/1999/xlink">
  <polygon points="621,531 711,434 708,431 527,430 371,262 191,430 37,429 29,433 5,459 82,531"
           fill="bisque"/>
  <g stroke="chocolate" stroke-width="1">
    <line x1="621" y1="531" x2="711" y2="434"/>
    <circle cx="621" cy="531" r="2"/>
    <circle cx="711" cy="434" r="2"/>
  </g>
  <g stroke="chocolate" stroke-width="1">
    <line x1="599" y1="531" x2="708" y2="431"/>
    <circle cx="599" cy="531" r="2"/>
    <circle cx="708" cy="431" r="2"/>
  </g>
  <g stroke="chocolate" stroke-width="1">
    <line x1="269" y1="531" x2="493" y2="433"/>
    <circle cx="269" cy="531" r="2"/>
    <circle cx="493" cy="433" r="2"/>
  </g>
  <g stroke="chocolate" stroke-width="1">
    <line x1="493" y1="531" x2="493" y2="430"/>
    <circle cx="493" cy="531" r="2"/>
    <circle cx="493" cy="430" r="2"/>
  </g>
  <g stroke="chocolate" stroke-width="1">
    <line x1="493" y1="434" x2="493" y2="430"/>
    <circle cx="493" cy="434" r="2"/>
    <circle cx="493" cy="430" r="2"/>
  </g>
  <g stroke="chocolate" stroke-width="1">
    <line x1="493" y1="531" x2="493" y2="433"/>
    <circle cx="493" cy="531" r="2"/>
    <circle cx="493" cy="433" r="2"/>
  </g>
  <g stroke="chocolate" stroke-width="1">
    <line x1="82" y1="531" x2="371" y2="262"/>
    <circle cx="82" cy="531" r="2"/>
    <circle cx="371" cy="262" r="2"/>
  </g>
  <g stroke="chocolate" stroke-width="1">
    <line x1="82" y1="531" x2="5" y2="459"/>
    <circle cx="82" cy="531" r="2"/>
    <circle cx="5" cy="459" r="2"/>
  </g>
  <g stroke="chocolate" stroke-width="1">
    <line x1="5" y1="459" x2="29" y2="433"/>
    <circle cx="5" cy="459" r="2"/>
    <circle cx="29" cy="433" r="2"/>
  </g>
  <g stroke="chocolate" stroke-width="1">
    <line x1="621" y1="531" x2="82" y2="531"/>
    <circle cx="621" cy="531" r="2"/>
    <circle cx="82" cy="531" r="2"/>
  </g>
  <g stroke="chocolate" stroke-width="1">
    <line x1="29" y1="433" x2="37" y2="429"/>
    <circle cx="29" cy="433" r="2"/>
    <circle cx="37" cy="429" r="2"/>
  </g>
  <g stroke="chocolate" stroke-width="1">
    <line x1="269" y1="531" x2="37" y2="429"/>
    <circle cx="269" cy="531" r="2"/>
    <circle cx="37" cy="429" r="2"/>
  </g>
  <g stroke="chocolate" stroke-width="1">
    <line x1="493" y1="434" x2="29" y2="433"/>
    <circle cx="493" cy="434" r="2"/>
    <circle cx="29" cy="433" r="2"/>
  </g>
  <g stroke="chocolate" stroke-width="1">
    <line x1="708" y1="431" x2="37" y2="429"/>
    <circle cx="708" cy="431" r="2"/>
    <circle cx="37" cy="429" r="2"/>
  </g>
  <g stroke="chocolate" stroke-width="1">
    <line x1="599" y1="531" x2="493" y2="433"/>
    <circle cx="599" cy="531" r="2"/>
    <circle cx="493" cy="433" r="2"/>
  </g>
  <g stroke="chocolate" stroke-width="1">
    <line x1="621" y1="531" x2="371" y2="262"/>
    <circle cx="621" cy="531" r="2"/>
    <circle cx="371" cy="262" r="2"/>
  </g>
  <g stroke="chocolate" stroke-width="1">
    <line x1="711" y1="434" x2="708" y2="431"/>
    <circle cx="711" cy="434" r="2"/>
    <circle cx="708" cy="431" r="2"/>
  </g>
  <g stroke="black" stroke-width="1">
    <line x1="108" y1="108" x2="608" y2="108"/>
    <line x1="108" y1="108" x2="108" y2="608"/>
    <line x1="608" y1="608" x2="108" y2="608"/>
    <line x1="608" y1="608" x2="608" y2="108"/>
    <line x1="208" y1="105" x2="208" y2="111"/>
    <line x1="105" y1="208" x2="111" y2="208"/>
    <line x1="208" y1="605" x2="208" y2="611"/>
    <line x1="605" y1="208" x2="611" y2="208"/>
    <line x1="308" y1="105" x2="308" y2="111"/>
    <line x1="105" y1="308" x2="111" y2="308"/>
    <line x1="308" y1="605" x2="308" y2="611"/>
    <line x1="605" y1="308" x2="611" y2="308"/>
    <line x1="408" y1="105" x2="408" y2="111"/>
    <line x1="105" y1="408" x2="111" y2="408"/>
    <line x1="408" y1="605" x2="408" y2="611"/>
    <line x1="605" y1="408" x2="611" y2="408"/>
    <line x1="508" y1="105" x2="508" y2="111"/>
    <line x1="105" y1="508" x2="111" y2="508"/>
    <line x1="508" y1="605" x2="508" y2="611"/>
    <line x1="605" y1="508" x2="611" y2="508"/>
  </g>
  <g stroke="gray" stroke-width="1" stroke-dasharray="5,5">
    <line x1="208" y1="108" x2="208" y2="608"/>
    <line x1="108" y1="208" x2="608" y2="208"/>
    <line x1="308" y1="108" x2="308" y2="608"/>
    <line x1="108" y1="308" x2="608" y2="308"/>
    <line x1="408" y1="108" x2="408" y2="608"/>
    <line x1="108" y1="408" x2="608" y2="408"/>
    <line x1="508" y1="108" x2="508" y2="608"/>
    <line x1="108" y1="508" x2="608" y2="508"/>
  </g>
</svg>
