<?xml version="1.0" standalone="no"?>
<!DOCTYPE svg PUBLIC "-//W3C//DTD SVG 1.1//EN" 
  "http://www.w3.org/Graphics/SVG/1.1/DTD/svg11.dtd">
<svg width="606" height="606" version="1.1" id="toplevel"
    xmlns="http://www.w3.org/2000/svg"
    xmlns:xlink="http://www.w3.org/1999/xlink">
  <polygon points="369,525 448,442 601,442 601,279 101,81 5,182 101,272 101,442 281,442"
           fill="bisque"/>
  <g stroke="chocolate" stroke-width="1">
    <line x1="369" y1="525" x2="601" y2="279"/>
    <circle cx="369" cy="525" r="2"/>
    <circle cx="601" cy="279" r="2"/>
  </g>
  <g stroke="chocolate" stroke-width="1">
    <line x1="101" y1="442" x2="601" y2="442"/>
    <circle cx="101" cy="442" r="2"/>
    <circle cx="601" cy="442" r="2"/>
  </g>
  <g stroke="chocolate" stroke-width="1">
    <line x1="101" y1="442" x2="101" y2="81"/>
    <circle cx="101" cy="442" r="2"/>
    <circle cx="101" cy="81" r="2"/>
  </g>
  <g stroke="chocolate" stroke-width="1">
    <line x1="601" y1="442" x2="601" y2="279"/>
    <circle cx="601" cy="442" r="2"/>
    <circle cx="601" cy="279" r="2"/>
  </g>
  <g stroke="chocolate" stroke-width="1">
    <line x1="369" y1="525" x2="5" y2="182"/>
    <circle cx="369" cy="525" r="2"/>
    <circle cx="5" cy="182" r="2"/>
  </g>
  <g stroke="chocolate" stroke-width="1">
    <line x1="5" y1="182" x2="101" y2="81"/>
    <circle cx="5" cy="182" r="2"/>
    <circle cx="101" cy="81" r="2"/>
  </g>
  <g stroke="chocolate" stroke-width="1">
    <line x1="601" y1="279" x2="101" y2="81"/>
    <circle cx="601" cy="279" r="2"/>
    <circle cx="101" cy="81" r="2"/>
  </g>
  <g stroke="black" stroke-width="1">
    <line x1="53" y1="53" x2="553" y2="53"/>
    <line x1="53" y1="53" x2="53" y2="553"/>
    <line x1="553" y1="553" x2="53" y2="553"/>
    <line x1="553" y1="553" x2="553" y2="53"/>
    <line x1="153" y1="50" x2="153" y2="56"/>
    <line x1="50" y1="153" x2="56" y2="153"/>
    <line x1="153" y1="550" x2="153" y2="556"/>
    <line x1="550" y1="153" x2="556" y2="153"/>
    <line x1="253" y1="50" x2="253" y2="56"/>
    <line x1="50" y1="253" x2="56" y2="253"/>
    <line x1="253" y1="550" x2="253" y2="556"/>
    <line x1="550" y1="253" x2="556" y2="253"/>
    <line x1="353" y1="50" x2="353" y2="56"/>
    <line x1="50" y1="353" x2="56" y2="353"/>
    <line x1="353" y1="550" x2="353" y2="556"/>
    <line x1="550" y1="353" x2="556" y2="353"/>
    <line x1="453" y1="50" x2="453" y2="56"/>
    <line x1="50" y1="453" x2="56" y2="453"/>
    <line x1="453" y1="550" x2="453" y2="556"/>
    <line x1="550" y1="453" x2="556" y2="453"/>
  </g>
  <g stroke="gray" stroke-width="1" stroke-dasharray="5,5">
    <line x1="153" y1="53" x2="153" y2="553"/>
    <line x1="53" y1="153" x2="553" y2="153"/>
    <line x1="253" y1="53" x2="253" y2="553"/>
    <line x1="53" y1="253" x2="553" y2="253"/>
    <line x1="353" y1="53" x2="353" y2="553"/>
    <line x1="53" y1="353" x2="553" y2="353"/>
    <line x1="453" y1="53" x2="453" y2="553"/>
    <line x1="53" y1="453" x2="553" y2="453"/>
  </g>
</svg>
