<?xml version="1.0" standalone="no"?>
<!DOCTYPE svg PUBLIC "-//W3C//DTD SVG 1.1//EN" 
  "http://www.w3.org/Graphics/SVG/1.1/DTD/svg11.dtd">
<svg width="510" height="510" version="1.1" id="toplevel"
    xmlns="http://www.w3.org/2000/svg"
    xmlns:xlink="http://www.w3.org/1999/xlink">
  <polygon points="130,442 192,442 130,380 130,349 205,255 194,206 119,159 141,255 68,255 68,380"
           fill="bisque"/>
  <g stroke="chocolate" stroke-width="1">
    <line x1="116" y1="366" x2="205" y2="255"/>
    <circle cx="116" cy="366" r="2"/>
    <circle cx="205" cy="255" r="2"/>
  </g>
  <g stroke="chocolate" stroke-width="1">
    <line x1="100" y1="356" x2="194" y2="206"/>
    <circle cx="100" cy="356" r="2"/>
    <circle cx="194" cy="206" r="2"/>
  </g>
  <g stroke="chocolate" stroke-width="1">
    <line x1="68" y1="380" x2="68" y2="255"/>
    <circle cx="68" cy="380" r="2"/>
    <circle cx="68" cy="255" r="2"/>
  </g>
  <g stroke="chocolate" stroke-width="1">
    <line x1="130" y1="442" x2="130" y2="255"/>
    <circle cx="130" cy="442" r="2"/>
    <circle cx="130" cy="255" r="2"/>
  </g>
  <g stroke="chocolate" stroke-width="1">
    <line x1="68" y1="380" x2="192" y2="255"/>
    <circle cx="68" cy="380" r="2"/>
    <circle cx="192" cy="255" r="2"/>
  </g>
  <g stroke="chocolate" stroke-width="1">
    <line x1="155" y1="318" x2="119" y2="159"/>
    <circle cx="155" cy="318" r="2"/>
    <circle cx="119" cy="159" r="2"/>
  </g>
  <g stroke="chocolate" stroke-width="1">
    <line x1="205" y1="255" x2="194" y2="206"/>
    <circle cx="205" cy="255" r="2"/>
    <circle cx="194" cy="206" r="2"/>
  </g>
  <g stroke="chocolate" stroke-width="1">
    <line x1="68" y1="318" x2="130" y2="255"/>
    <circle cx="68" cy="318" r="2"/>
    <circle cx="130" cy="255" r="2"/>
  </g>
  <g stroke="chocolate" stroke-width="1">
    <line x1="130" y1="442" x2="192" y2="442"/>
    <circle cx="130" cy="442" r="2"/>
    <circle cx="192" cy="442" r="2"/>
  </g>
  <g stroke="chocolate" stroke-width="1">
    <line x1="130" y1="442" x2="68" y2="380"/>
    <circle cx="130" cy="442" r="2"/>
    <circle cx="68" cy="380" r="2"/>
  </g>
  <g stroke="chocolate" stroke-width="1">
    <line x1="192" y1="442" x2="68" y2="318"/>
    <circle cx="192" cy="442" r="2"/>
    <circle cx="68" cy="318" r="2"/>
  </g>
  <g stroke="chocolate" stroke-width="1">
    <line x1="116" y1="366" x2="100" y2="356"/>
    <circle cx="116" cy="366" r="2"/>
    <circle cx="100" cy="356" r="2"/>
  </g>
  <g stroke="chocolate" stroke-width="1">
    <line x1="144" y1="331" x2="68" y2="255"/>
    <circle cx="144" cy="331" r="2"/>
    <circle cx="68" cy="255" r="2"/>
  </g>
  <g stroke="chocolate" stroke-width="1">
    <line x1="144" y1="331" x2="123" y2="318"/>
    <circle cx="144" cy="331" r="2"/>
    <circle cx="123" cy="318" r="2"/>
  </g>
  <g stroke="chocolate" stroke-width="1">
    <line x1="68" y1="318" x2="155" y2="318"/>
    <circle cx="68" cy="318" r="2"/>
    <circle cx="155" cy="318" r="2"/>
  </g>
  <g stroke="chocolate" stroke-width="1">
    <line x1="172" y1="297" x2="130" y2="255"/>
    <circle cx="172" cy="297" r="2"/>
    <circle cx="130" cy="255" r="2"/>
  </g>
  <g stroke="chocolate" stroke-width="1">
    <line x1="199" y1="262" x2="192" y2="255"/>
    <circle cx="199" cy="262" r="2"/>
    <circle cx="192" cy="255" r="2"/>
  </g>
  <g stroke="chocolate" stroke-width="1">
    <line x1="172" y1="297" x2="147" y2="281"/>
    <circle cx="172" cy="297" r="2"/>
    <circle cx="147" cy="281" r="2"/>
  </g>
  <g stroke="chocolate" stroke-width="1">
    <line x1="68" y1="255" x2="205" y2="255"/>
    <circle cx="68" cy="255" r="2"/>
    <circle cx="205" cy="255" r="2"/>
  </g>
  <g stroke="chocolate" stroke-width="1">
    <line x1="199" y1="262" x2="170" y2="244"/>
    <circle cx="199" cy="262" r="2"/>
    <circle cx="170" cy="244" r="2"/>
  </g>
  <g stroke="chocolate" stroke-width="1">
    <line x1="194" y1="206" x2="119" y2="159"/>
    <circle cx="194" cy="206" r="2"/>
    <circle cx="119" cy="159" r="2"/>
  </g>
  <g stroke="black" stroke-width="1">
    <line x1="5" y1="5" x2="505" y2="5"/>
    <line x1="5" y1="5" x2="5" y2="505"/>
    <line x1="505" y1="505" x2="5" y2="505"/>
    <line x1="505" y1="505" x2="505" y2="5"/>
    <line x1="105" y1="2" x2="105" y2="8"/>
    <line x1="2" y1="105" x2="8" y2="105"/>
    <line x1="105" y1="502" x2="105" y2="508"/>
    <line x1="502" y1="105" x2="508" y2="105"/>
    <line x1="205" y1="2" x2="205" y2="8"/>
    <line x1="2" y1="205" x2="8" y2="205"/>
    <line x1="205" y1="502" x2="205" y2="508"/>
    <line x1="502" y1="205" x2="508" y2="205"/>
    <line x1="305" y1="2" x2="305" y2="8"/>
    <line x1="2" y1="305" x2="8" y2="305"/>
    <line x1="305" y1="502" x2="305" y2="508"/>
    <line x1="502" y1="305" x2="508" y2="305"/>
    <line x1="405" y1="2" x2="405" y2="8"/>
    <line x1="2" y1="405" x2="8" y2="405"/>
    <line x1="405" y1="502" x2="405" y2="508"/>
    <line x1="502" y1="405" x2="508" y2="405"/>
  </g>
  <g stroke="gray" stroke-width="1" stroke-dasharray="5,5">
    <line x1="105" y1="5" x2="105" y2="505"/>
    <line x1="5" y1="105" x2="505" y2="105"/>
    <line x1="205" y1="5" x2="205" y2="505"/>
    <line x1="5" y1="205" x2="505" y2="205"/>
    <line x1="305" y1="5" x2="305" y2="505"/>
    <line x1="5" y1="305" x2="505" y2="305"/>
    <line x1="405" y1="5" x2="405" y2="505"/>
    <line x1="5" y1="405" x2="505" y2="405"/>
  </g>
</svg>
