<?xml version="1.0" standalone="no"?>
<!DOCTYPE svg PUBLIC "-//W3C//DTD SVG 1.1//EN" 
  "http://www.w3.org/Graphics/SVG/1.1/DTD/svg11.dtd">
<svg width="716" height="716" version="1.1" id="toplevel"
    xmlns="http://www.w3.org/2000/svg"
    xmlns:xlink="http://www.w3.org/1999/xlink">
  <polygon points="106,478 599,478 622,453 708,453 711,450 668,404 530,404 371,232 185,404 27,405 5,425 29,452 37,455 81,455"
           fill="bisque"/>
  <g stroke="chocolate" stroke-width="1">
    <line x1="708" y1="453" x2="711" y2="450"/>
    <circle cx="708" cy="453" r="2"/>
    <circle cx="711" cy="450" r="2"/>
  </g>
  <g stroke="chocolate" stroke-width="1">
    <line x1="599" y1="478" x2="668" y2="404"/>
    <circle cx="599" cy="478" r="2"/>
    <circle cx="668" cy="404" r="2"/>
  </g>
  <g stroke="chocolate" stroke-width="1">
    <line x1="574" y1="478" x2="655" y2="404"/>
    <circle cx="574" cy="478" r="2"/>
    <circle cx="655" cy="404" r="2"/>
  </g>
  <g stroke="chocolate" stroke-width="1">
    <line x1="29" y1="452" x2="5" y2="425"/>
    <circle cx="29" cy="452" r="2"/>
    <circle cx="5" cy="425" r="2"/>
  </g>
  <g stroke="chocolate" stroke-width="1">
    <line x1="493" y1="478" x2="493" y2="403"/>
    <circle cx="493" cy="478" r="2"/>
    <circle cx="493" cy="403" r="2"/>
  </g>
  <g stroke="chocolate" stroke-width="1">
    <line x1="493" y1="454" x2="493" y2="450"/>
    <circle cx="493" cy="454" r="2"/>
    <circle cx="493" cy="450" r="2"/>
  </g>
  <g stroke="chocolate" stroke-width="1">
    <line x1="493" y1="454" x2="493" y2="404"/>
    <circle cx="493" cy="454" r="2"/>
    <circle cx="493" cy="404" r="2"/>
  </g>
  <g stroke="chocolate" stroke-width="1">
    <line x1="106" y1="478" x2="27" y2="405"/>
    <circle cx="106" cy="478" r="2"/>
    <circle cx="27" cy="405" r="2"/>
  </g>
  <g stroke="chocolate" stroke-width="1">
    <line x1="37" y1="455" x2="29" y2="452"/>
    <circle cx="37" cy="455" r="2"/>
    <circle cx="29" cy="452" r="2"/>
  </g>
  <g stroke="chocolate" stroke-width="1">
    <line x1="321" y1="478" x2="493" y2="403"/>
    <circle cx="321" cy="478" r="2"/>
    <circle cx="493" cy="403" r="2"/>
  </g>
  <g stroke="chocolate" stroke-width="1">
    <line x1="106" y1="478" x2="371" y2="232"/>
    <circle cx="106" cy="478" r="2"/>
    <circle cx="371" cy="232" r="2"/>
  </g>
  <g stroke="chocolate" stroke-width="1">
    <line x1="106" y1="478" x2="599" y2="478"/>
    <circle cx="106" cy="478" r="2"/>
    <circle cx="599" cy="478" r="2"/>
  </g>
  <g stroke="chocolate" stroke-width="1">
    <line x1="321" y1="478" x2="152" y2="404"/>
    <circle cx="321" cy="478" r="2"/>
    <circle cx="152" cy="404" r="2"/>
  </g>
  <g stroke="chocolate" stroke-width="1">
    <line x1="37" y1="455" x2="708" y2="453"/>
    <circle cx="37" cy="455" r="2"/>
    <circle cx="708" cy="453" r="2"/>
  </g>
  <g stroke="chocolate" stroke-width="1">
    <line x1="29" y1="452" x2="493" y2="450"/>
    <circle cx="29" cy="452" r="2"/>
    <circle cx="493" cy="450" r="2"/>
  </g>
  <g stroke="chocolate" stroke-width="1">
    <line x1="37" y1="455" x2="152" y2="404"/>
    <circle cx="37" cy="455" r="2"/>
    <circle cx="152" cy="404" r="2"/>
  </g>
  <g stroke="chocolate" stroke-width="1">
    <line x1="27" y1="405" x2="668" y2="404"/>
    <circle cx="27" cy="405" r="2"/>
    <circle cx="668" cy="404" r="2"/>
  </g>
  <g stroke="chocolate" stroke-width="1">
    <line x1="5" y1="425" x2="27" y2="405"/>
    <circle cx="5" cy="425" r="2"/>
    <circle cx="27" cy="405" r="2"/>
  </g>
  <g stroke="chocolate" stroke-width="1">
    <line x1="574" y1="478" x2="493" y2="403"/>
    <circle cx="574" cy="478" r="2"/>
    <circle cx="493" cy="403" r="2"/>
  </g>
  <g stroke="chocolate" stroke-width="1">
    <line x1="599" y1="478" x2="371" y2="232"/>
    <circle cx="599" cy="478" r="2"/>
    <circle cx="371" cy="232" r="2"/>
  </g>
  <g stroke="chocolate" stroke-width="1">
    <line x1="711" y1="450" x2="668" y2="404"/>
    <circle cx="711" cy="450" r="2"/>
    <circle cx="668" cy="404" r="2"/>
  </g>
  <g stroke="chocolate" stroke-width="1">
    <line x1="708" y1="453" x2="655" y2="404"/>
    <circle cx="708" cy="453" r="2"/>
    <circle cx="655" cy="404" r="2"/>
  </g>
  <g stroke="black" stroke-width="1">
    <line x1="108" y1="108" x2="608" y2="108"/>
    <line x1="108" y1="108" x2="108" y2="608"/>
    <line x1="608" y1="608" x2="108" y2="608"/>
    <line x1="608" y1="608" x2="608" y2="108"/>
    <line x1="208" y1="105" x2="208" y2="111"/>
    <line x1="105" y1="208" x2="111" y2="208"/>
    <line x1="208" y1="605" x2="208" y2="611"/>
    <line x1="605" y1="208" x2="611" y2="208"/>
    <line x1="308" y1="105" x2="308" y2="111"/>
    <line x1="105" y1="308" x2="111" y2="308"/>
    <line x1="308" y1="605" x2="308" y2="611"/>
    <line x1="605" y1="308" x2="611" y2="308"/>
    <line x1="408" y1="105" x2="408" y2="111"/>
    <line x1="105" y1="408" x2="111" y2="408"/>
    <line x1="408" y1="605" x2="408" y2="611"/>
    <line x1="605" y1="408" x2="611" y2="408"/>
    <line x1="508" y1="105" x2="508" y2="111"/>
    <line x1="105" y1="508" x2="111" y2="508"/>
    <line x1="508" y1="605" x2="508" y2="611"/>
    <line x1="605" y1="508" x2="611" y2="508"/>
  </g>
  <g stroke="gray" stroke-width="1" stroke-dasharray="5,5">
    <line x1="208" y1="108" x2="208" y2="608"/>
    <line x1="108" y1="208" x2="608" y2="208"/>
    <line x1="308" y1="108" x2="308" y2="608"/>
    <line x1="108" y1="308" x2="608" y2="308"/>
    <line x1="408" y1="108" x2="408" y2="608"/>
    <line x1="108" y1="408" x2="608" y2="408"/>
    <line x1="508" y1="108" x2="508" y2="608"/>
    <line x1="108" y1="508" x2="608" y2="508"/>
  </g>
</svg>
