<?xml version="1.0" standalone="no"?>
<!DOCTYPE svg PUBLIC "-//W3C//DTD SVG 1.1//EN" 
  "http://www.w3.org/Graphics/SVG/1.1/DTD/svg11.dtd">
<svg width="510" height="510" version="1.1" id="toplevel"
    xmlns="http://www.w3.org/2000/svg"
    xmlns:xlink="http://www.w3.org/1999/xlink">
  <polygon points="110,472 243,472 355,284 293,169 405,109 408,98 195,38 128,257 195,383 169,409 158,409 102,463"
           fill="bisque"/>
  <g stroke="chocolate" stroke-width="1">
    <line x1="405" y1="109" x2="408" y2="98"/>
    <circle cx="405" cy="109" r="2"/>
    <circle cx="408" cy="98" r="2"/>
  </g>
  <g stroke="chocolate" stroke-width="1">
    <line x1="268" y1="430" x2="324" y2="226"/>
    <circle cx="268" cy="430" r="2"/>
    <circle cx="324" cy="226" r="2"/>
  </g>
  <g stroke="chocolate" stroke-width="1">
    <line x1="300" y1="165" x2="323" y2="82"/>
    <circle cx="300" cy="165" r="2"/>
    <circle cx="323" cy="82" r="2"/>
  </g>
  <g stroke="chocolate" stroke-width="1">
    <line x1="268" y1="208" x2="286" y2="154"/>
    <circle cx="268" cy="208" r="2"/>
    <circle cx="286" cy="154" r="2"/>
  </g>
  <g stroke="chocolate" stroke-width="1">
    <line x1="166" y1="282" x2="230" y2="50"/>
    <circle cx="166" cy="282" r="2"/>
    <circle cx="230" cy="50" r="2"/>
  </g>
  <g stroke="chocolate" stroke-width="1">
    <line x1="243" y1="472" x2="355" y2="284"/>
    <circle cx="243" cy="472" r="2"/>
    <circle cx="355" cy="284" r="2"/>
  </g>
  <g stroke="chocolate" stroke-width="1">
    <line x1="128" y1="257" x2="195" y2="38"/>
    <circle cx="128" cy="257" r="2"/>
    <circle cx="195" cy="38" r="2"/>
  </g>
  <g stroke="chocolate" stroke-width="1">
    <line x1="243" y1="472" x2="128" y2="257"/>
    <circle cx="243" cy="472" r="2"/>
    <circle cx="128" cy="257" r="2"/>
  </g>
  <g stroke="chocolate" stroke-width="1">
    <line x1="110" y1="472" x2="102" y2="463"/>
    <circle cx="110" cy="472" r="2"/>
    <circle cx="102" cy="463" r="2"/>
  </g>
  <g stroke="chocolate" stroke-width="1">
    <line x1="280" y1="409" x2="154" y2="172"/>
    <circle cx="280" cy="409" r="2"/>
    <circle cx="154" cy="172" r="2"/>
  </g>
  <g stroke="chocolate" stroke-width="1">
    <line x1="224" y1="472" x2="268" y2="430"/>
    <circle cx="224" cy="472" r="2"/>
    <circle cx="268" cy="430" r="2"/>
  </g>
  <g stroke="chocolate" stroke-width="1">
    <line x1="224" y1="472" x2="158" y2="409"/>
    <circle cx="224" cy="472" r="2"/>
    <circle cx="158" cy="409" r="2"/>
  </g>
  <g stroke="chocolate" stroke-width="1">
    <line x1="355" y1="284" x2="230" y2="50"/>
    <circle cx="355" cy="284" r="2"/>
    <circle cx="230" cy="50" r="2"/>
  </g>
  <g stroke="chocolate" stroke-width="1">
    <line x1="110" y1="472" x2="289" y2="284"/>
    <circle cx="110" cy="472" r="2"/>
    <circle cx="289" cy="284" r="2"/>
  </g>
  <g stroke="chocolate" stroke-width="1">
    <line x1="102" y1="463" x2="158" y2="409"/>
    <circle cx="102" cy="463" r="2"/>
    <circle cx="158" cy="409" r="2"/>
  </g>
  <g stroke="chocolate" stroke-width="1">
    <line x1="329" y1="327" x2="289" y2="284"/>
    <circle cx="329" cy="327" r="2"/>
    <circle cx="289" cy="284" r="2"/>
  </g>
  <g stroke="chocolate" stroke-width="1">
    <line x1="110" y1="472" x2="243" y2="472"/>
    <circle cx="110" cy="472" r="2"/>
    <circle cx="243" cy="472" r="2"/>
  </g>
  <g stroke="chocolate" stroke-width="1">
    <line x1="158" y1="409" x2="280" y2="409"/>
    <circle cx="158" cy="409" r="2"/>
    <circle cx="280" cy="409" r="2"/>
  </g>
  <g stroke="chocolate" stroke-width="1">
    <line x1="128" y1="257" x2="405" y2="109"/>
    <circle cx="128" cy="257" r="2"/>
    <circle cx="405" cy="109" r="2"/>
  </g>
  <g stroke="chocolate" stroke-width="1">
    <line x1="329" y1="327" x2="166" y2="282"/>
    <circle cx="329" cy="327" r="2"/>
    <circle cx="166" cy="282" r="2"/>
  </g>
  <g stroke="chocolate" stroke-width="1">
    <line x1="289" y1="284" x2="355" y2="284"/>
    <circle cx="289" cy="284" r="2"/>
    <circle cx="355" cy="284" r="2"/>
  </g>
  <g stroke="chocolate" stroke-width="1">
    <line x1="154" y1="172" x2="323" y2="82"/>
    <circle cx="154" cy="172" r="2"/>
    <circle cx="323" cy="82" r="2"/>
  </g>
  <g stroke="chocolate" stroke-width="1">
    <line x1="324" y1="226" x2="268" y2="208"/>
    <circle cx="324" cy="226" r="2"/>
    <circle cx="268" cy="208" r="2"/>
  </g>
  <g stroke="chocolate" stroke-width="1">
    <line x1="300" y1="165" x2="169" y2="122"/>
    <circle cx="300" cy="165" r="2"/>
    <circle cx="169" cy="122" r="2"/>
  </g>
  <g stroke="chocolate" stroke-width="1">
    <line x1="286" y1="154" x2="169" y2="122"/>
    <circle cx="286" cy="154" r="2"/>
    <circle cx="169" cy="122" r="2"/>
  </g>
  <g stroke="chocolate" stroke-width="1">
    <line x1="405" y1="109" x2="323" y2="82"/>
    <circle cx="405" cy="109" r="2"/>
    <circle cx="323" cy="82" r="2"/>
  </g>
  <g stroke="chocolate" stroke-width="1">
    <line x1="230" y1="50" x2="195" y2="38"/>
    <circle cx="230" cy="50" r="2"/>
    <circle cx="195" cy="38" r="2"/>
  </g>
  <g stroke="chocolate" stroke-width="1">
    <line x1="408" y1="98" x2="195" y2="38"/>
    <circle cx="408" cy="98" r="2"/>
    <circle cx="195" cy="38" r="2"/>
  </g>
  <g stroke="black" stroke-width="1">
    <line x1="5" y1="5" x2="505" y2="5"/>
    <line x1="5" y1="5" x2="5" y2="505"/>
    <line x1="505" y1="505" x2="5" y2="505"/>
    <line x1="505" y1="505" x2="505" y2="5"/>
    <line x1="105" y1="2" x2="105" y2="8"/>
    <line x1="2" y1="105" x2="8" y2="105"/>
    <line x1="105" y1="502" x2="105" y2="508"/>
    <line x1="502" y1="105" x2="508" y2="105"/>
    <line x1="205" y1="2" x2="205" y2="8"/>
    <line x1="2" y1="205" x2="8" y2="205"/>
    <line x1="205" y1="502" x2="205" y2="508"/>
    <line x1="502" y1="205" x2="508" y2="205"/>
    <line x1="305" y1="2" x2="305" y2="8"/>
    <line x1="2" y1="305" x2="8" y2="305"/>
    <line x1="305" y1="502" x2="305" y2="508"/>
    <line x1="502" y1="305" x2="508" y2="305"/>
    <line x1="405" y1="2" x2="405" y2="8"/>
    <line x1="2" y1="405" x2="8" y2="405"/>
    <line x1="405" y1="502" x2="405" y2="508"/>
    <line x1="502" y1="405" x2="508" y2="405"/>
  </g>
  <g stroke="gray" stroke-width="1" stroke-dasharray="5,5">
    <line x1="105" y1="5" x2="105" y2="505"/>
    <line x1="5" y1="105" x2="505" y2="105"/>
    <line x1="205" y1="5" x2="205" y2="505"/>
    <line x1="5" y1="205" x2="505" y2="205"/>
    <line x1="305" y1="5" x2="305" y2="505"/>
    <line x1="5" y1="305" x2="505" y2="305"/>
    <line x1="405" y1="5" x2="405" y2="505"/>
    <line x1="5" y1="405" x2="505" y2="405"/>
  </g>
</svg>
