<?xml version="1.0" standalone="no"?>
<!DOCTYPE svg PUBLIC "-//W3C//DTD SVG 1.1//EN" 
  "http://www.w3.org/Graphics/SVG/1.1/DTD/svg11.dtd">
<svg width="510" height="510" version="1.1" id="toplevel"
    xmlns="http://www.w3.org/2000/svg"
    xmlns:xlink="http://www.w3.org/1999/xlink">
  <polygon points="103,373 162,357 331,196 367,137 246,241 172,280 95,247 100,318 80,329"
           fill="bisque"/>
  <g stroke="chocolate" stroke-width="1">
    <line x1="162" y1="357" x2="183" y2="295"/>
    <circle cx="162" cy="357" r="2"/>
    <circle cx="183" cy="295" r="2"/>
  </g>
  <g stroke="chocolate" stroke-width="1">
    <line x1="331" y1="196" x2="367" y2="137"/>
    <circle cx="331" cy="196" r="2"/>
    <circle cx="367" cy="137" r="2"/>
  </g>
  <g stroke="chocolate" stroke-width="1">
    <line x1="169" y1="350" x2="197" y2="283"/>
    <circle cx="169" cy="350" r="2"/>
    <circle cx="197" cy="283" r="2"/>
  </g>
  <g stroke="chocolate" stroke-width="1">
    <line x1="103" y1="373" x2="95" y2="247"/>
    <circle cx="103" cy="373" r="2"/>
    <circle cx="95" cy="247" r="2"/>
  </g>
  <g stroke="chocolate" stroke-width="1">
    <line x1="191" y1="294" x2="197" y2="283"/>
    <circle cx="191" cy="294" r="2"/>
    <circle cx="197" cy="283" r="2"/>
  </g>
  <g stroke="chocolate" stroke-width="1">
    <line x1="278" y1="246" x2="367" y2="137"/>
    <circle cx="278" cy="246" r="2"/>
    <circle cx="367" cy="137" r="2"/>
  </g>
  <g stroke="chocolate" stroke-width="1">
    <line x1="237" y1="286" x2="367" y2="137"/>
    <circle cx="237" cy="286" r="2"/>
    <circle cx="367" cy="137" r="2"/>
  </g>
  <g stroke="chocolate" stroke-width="1">
    <line x1="221" y1="301" x2="210" y2="271"/>
    <circle cx="221" cy="301" r="2"/>
    <circle cx="210" cy="271" r="2"/>
  </g>
  <g stroke="chocolate" stroke-width="1">
    <line x1="103" y1="373" x2="80" y2="329"/>
    <circle cx="103" cy="373" r="2"/>
    <circle cx="80" cy="329" r="2"/>
  </g>
  <g stroke="chocolate" stroke-width="1">
    <line x1="162" y1="357" x2="331" y2="196"/>
    <circle cx="162" cy="357" r="2"/>
    <circle cx="331" cy="196" r="2"/>
  </g>
  <g stroke="chocolate" stroke-width="1">
    <line x1="183" y1="295" x2="367" y2="137"/>
    <circle cx="183" cy="295" r="2"/>
    <circle cx="367" cy="137" r="2"/>
  </g>
  <g stroke="chocolate" stroke-width="1">
    <line x1="203" y1="318" x2="187" y2="291"/>
    <circle cx="203" cy="318" r="2"/>
    <circle cx="187" cy="291" r="2"/>
  </g>
  <g stroke="chocolate" stroke-width="1">
    <line x1="103" y1="373" x2="278" y2="246"/>
    <circle cx="103" cy="373" r="2"/>
    <circle cx="278" cy="246" r="2"/>
  </g>
  <g stroke="chocolate" stroke-width="1">
    <line x1="80" y1="329" x2="331" y2="196"/>
    <circle cx="80" cy="329" r="2"/>
    <circle cx="331" cy="196" r="2"/>
  </g>
  <g stroke="chocolate" stroke-width="1">
    <line x1="103" y1="373" x2="169" y2="350"/>
    <circle cx="103" cy="373" r="2"/>
    <circle cx="169" cy="350" r="2"/>
  </g>
  <g stroke="chocolate" stroke-width="1">
    <line x1="103" y1="373" x2="162" y2="357"/>
    <circle cx="103" cy="373" r="2"/>
    <circle cx="162" cy="357" r="2"/>
  </g>
  <g stroke="chocolate" stroke-width="1">
    <line x1="191" y1="294" x2="187" y2="291"/>
    <circle cx="191" cy="294" r="2"/>
    <circle cx="187" cy="291" r="2"/>
  </g>
  <g stroke="chocolate" stroke-width="1">
    <line x1="203" y1="318" x2="95" y2="247"/>
    <circle cx="203" cy="318" r="2"/>
    <circle cx="95" cy="247" r="2"/>
  </g>
  <g stroke="chocolate" stroke-width="1">
    <line x1="183" y1="295" x2="237" y2="286"/>
    <circle cx="183" cy="295" r="2"/>
    <circle cx="237" cy="286" r="2"/>
  </g>
  <g stroke="chocolate" stroke-width="1">
    <line x1="237" y1="286" x2="210" y2="271"/>
    <circle cx="237" cy="286" r="2"/>
    <circle cx="210" cy="271" r="2"/>
  </g>
  <g stroke="chocolate" stroke-width="1">
    <line x1="221" y1="301" x2="95" y2="247"/>
    <circle cx="221" cy="301" r="2"/>
    <circle cx="95" cy="247" r="2"/>
  </g>
  <g stroke="black" stroke-width="1">
    <line x1="5" y1="5" x2="505" y2="5"/>
    <line x1="5" y1="5" x2="5" y2="505"/>
    <line x1="505" y1="505" x2="5" y2="505"/>
    <line x1="505" y1="505" x2="505" y2="5"/>
    <line x1="105" y1="2" x2="105" y2="8"/>
    <line x1="2" y1="105" x2="8" y2="105"/>
    <line x1="105" y1="502" x2="105" y2="508"/>
    <line x1="502" y1="105" x2="508" y2="105"/>
    <line x1="205" y1="2" x2="205" y2="8"/>
    <line x1="2" y1="205" x2="8" y2="205"/>
    <line x1="205" y1="502" x2="205" y2="508"/>
    <line x1="502" y1="205" x2="508" y2="205"/>
    <line x1="305" y1="2" x2="305" y2="8"/>
    <line x1="2" y1="305" x2="8" y2="305"/>
    <line x1="305" y1="502" x2="305" y2="508"/>
    <line x1="502" y1="305" x2="508" y2="305"/>
    <line x1="405" y1="2" x2="405" y2="8"/>
    <line x1="2" y1="405" x2="8" y2="405"/>
    <line x1="405" y1="502" x2="405" y2="508"/>
    <line x1="502" y1="405" x2="508" y2="405"/>
  </g>
  <g stroke="gray" stroke-width="1" stroke-dasharray="5,5">
    <line x1="105" y1="5" x2="105" y2="505"/>
    <line x1="5" y1="105" x2="505" y2="105"/>
    <line x1="205" y1="5" x2="205" y2="505"/>
    <line x1="5" y1="205" x2="505" y2="205"/>
    <line x1="305" y1="5" x2="305" y2="505"/>
    <line x1="5" y1="305" x2="505" y2="305"/>
    <line x1="405" y1="5" x2="405" y2="505"/>
    <line x1="5" y1="405" x2="505" y2="405"/>
  </g>
</svg>
