<?xml version="1.0" standalone="no"?>
<!DOCTYPE svg PUBLIC "-//W3C//DTD SVG 1.1//EN" 
  "http://www.w3.org/Graphics/SVG/1.1/DTD/svg11.dtd">
<svg width="510" height="510" version="1.1" id="toplevel"
    xmlns="http://www.w3.org/2000/svg"
    xmlns:xlink="http://www.w3.org/1999/xlink">
  <polygon points="303,267 349,229 364,254 378,259 469,166 454,141 413,134 337,91 317,98 325,119 274,110 198,170 104,81 101,81 41,89 57,214 94,247 93,253 93,253 93,261"
           fill="bisque"/>
  <g stroke="chocolate" stroke-width="1">
    <line x1="401" y1="235" x2="432" y2="137"/>
    <circle cx="401" cy="235" r="2"/>
    <circle cx="432" cy="137" r="2"/>
  </g>
  <g stroke="chocolate" stroke-width="1">
    <line x1="367" y1="171" x2="378" y2="128"/>
    <circle cx="367" cy="171" r="2"/>
    <circle cx="378" cy="128" r="2"/>
  </g>
  <g stroke="chocolate" stroke-width="1">
    <line x1="364" y1="254" x2="378" y2="128"/>
    <circle cx="364" cy="254" r="2"/>
    <circle cx="378" cy="128" r="2"/>
  </g>
  <g stroke="chocolate" stroke-width="1">
    <line x1="378" y1="259" x2="469" y2="166"/>
    <circle cx="378" cy="259" r="2"/>
    <circle cx="469" cy="166" r="2"/>
  </g>
  <g stroke="chocolate" stroke-width="1">
    <line x1="268" y1="266" x2="271" y2="237"/>
    <circle cx="268" cy="266" r="2"/>
    <circle cx="271" cy="237" r="2"/>
  </g>
  <g stroke="chocolate" stroke-width="1">
    <line x1="208" y1="265" x2="226" y2="148"/>
    <circle cx="208" cy="265" r="2"/>
    <circle cx="226" cy="148" r="2"/>
  </g>
  <g stroke="chocolate" stroke-width="1">
    <line x1="432" y1="147" x2="432" y2="137"/>
    <circle cx="432" cy="147" r="2"/>
    <circle cx="432" cy="137" r="2"/>
  </g>
  <g stroke="chocolate" stroke-width="1">
    <line x1="93" y1="261" x2="93" y2="253"/>
    <circle cx="93" cy="261" r="2"/>
    <circle cx="93" cy="253" r="2"/>
  </g>
  <g stroke="chocolate" stroke-width="1">
    <line x1="57" y1="214" x2="41" y2="89"/>
    <circle cx="57" cy="214" r="2"/>
    <circle cx="41" cy="89" r="2"/>
  </g>
  <g stroke="chocolate" stroke-width="1">
    <line x1="93" y1="261" x2="103" y2="81"/>
    <circle cx="93" cy="261" r="2"/>
    <circle cx="103" cy="81" r="2"/>
  </g>
  <g stroke="chocolate" stroke-width="1">
    <line x1="365" y1="215" x2="432" y2="147"/>
    <circle cx="365" cy="215" r="2"/>
    <circle cx="432" cy="147" r="2"/>
  </g>
  <g stroke="chocolate" stroke-width="1">
    <line x1="268" y1="266" x2="263" y2="155"/>
    <circle cx="268" cy="266" r="2"/>
    <circle cx="263" cy="155" r="2"/>
  </g>
  <g stroke="chocolate" stroke-width="1">
    <line x1="208" y1="265" x2="206" y2="249"/>
    <circle cx="208" cy="265" r="2"/>
    <circle cx="206" cy="249" r="2"/>
  </g>
  <g stroke="chocolate" stroke-width="1">
    <line x1="254" y1="240" x2="252" y2="220"/>
    <circle cx="254" cy="240" r="2"/>
    <circle cx="252" cy="220" r="2"/>
  </g>
  <g stroke="chocolate" stroke-width="1">
    <line x1="103" y1="82" x2="103" y2="81"/>
    <circle cx="103" cy="82" r="2"/>
    <circle cx="103" cy="81" r="2"/>
  </g>
  <g stroke="chocolate" stroke-width="1">
    <line x1="303" y1="267" x2="454" y2="141"/>
    <circle cx="303" cy="267" r="2"/>
    <circle cx="454" cy="141" r="2"/>
  </g>
  <g stroke="chocolate" stroke-width="1">
    <line x1="366" y1="248" x2="337" y2="91"/>
    <circle cx="366" cy="248" r="2"/>
    <circle cx="337" cy="91" r="2"/>
  </g>
  <g stroke="chocolate" stroke-width="1">
    <line x1="289" y1="267" x2="365" y2="215"/>
    <circle cx="289" cy="267" r="2"/>
    <circle cx="365" cy="215" r="2"/>
  </g>
  <g stroke="chocolate" stroke-width="1">
    <line x1="227" y1="265" x2="367" y2="171"/>
    <circle cx="227" cy="265" r="2"/>
    <circle cx="367" cy="171" r="2"/>
  </g>
  <g stroke="chocolate" stroke-width="1">
    <line x1="378" y1="259" x2="317" y2="98"/>
    <circle cx="378" cy="259" r="2"/>
    <circle cx="317" cy="98" r="2"/>
  </g>
  <g stroke="chocolate" stroke-width="1">
    <line x1="110" y1="262" x2="292" y2="113"/>
    <circle cx="110" cy="262" r="2"/>
    <circle cx="292" cy="113" r="2"/>
  </g>
  <g stroke="chocolate" stroke-width="1">
    <line x1="110" y1="262" x2="57" y2="214"/>
    <circle cx="110" cy="262" r="2"/>
    <circle cx="57" cy="214" r="2"/>
  </g>
  <g stroke="chocolate" stroke-width="1">
    <line x1="366" y1="248" x2="401" y2="235"/>
    <circle cx="366" cy="248" r="2"/>
    <circle cx="401" cy="235" r="2"/>
  </g>
  <g stroke="chocolate" stroke-width="1">
    <line x1="93" y1="253" x2="274" y2="110"/>
    <circle cx="93" cy="253" r="2"/>
    <circle cx="274" cy="110" r="2"/>
  </g>
  <g stroke="chocolate" stroke-width="1">
    <line x1="364" y1="254" x2="274" y2="110"/>
    <circle cx="364" cy="254" r="2"/>
    <circle cx="274" cy="110" r="2"/>
  </g>
  <g stroke="chocolate" stroke-width="1">
    <line x1="380" y1="256" x2="292" y2="113"/>
    <circle cx="380" cy="256" r="2"/>
    <circle cx="292" cy="113" r="2"/>
  </g>
  <g stroke="chocolate" stroke-width="1">
    <line x1="227" y1="265" x2="206" y2="249"/>
    <circle cx="227" cy="265" r="2"/>
    <circle cx="206" cy="249" r="2"/>
  </g>
  <g stroke="chocolate" stroke-width="1">
    <line x1="132" y1="262" x2="206" y2="249"/>
    <circle cx="132" cy="262" r="2"/>
    <circle cx="206" cy="249" r="2"/>
  </g>
  <g stroke="chocolate" stroke-width="1">
    <line x1="254" y1="240" x2="271" y2="237"/>
    <circle cx="254" cy="240" r="2"/>
    <circle cx="271" cy="237" r="2"/>
  </g>
  <g stroke="chocolate" stroke-width="1">
    <line x1="303" y1="267" x2="104" y2="81"/>
    <circle cx="303" cy="267" r="2"/>
    <circle cx="104" cy="81" r="2"/>
  </g>
  <g stroke="chocolate" stroke-width="1">
    <line x1="132" y1="262" x2="93" y2="253"/>
    <circle cx="132" cy="262" r="2"/>
    <circle cx="93" cy="253" r="2"/>
  </g>
  <g stroke="chocolate" stroke-width="1">
    <line x1="303" y1="267" x2="93" y2="261"/>
    <circle cx="303" cy="267" r="2"/>
    <circle cx="93" cy="261" r="2"/>
  </g>
  <g stroke="chocolate" stroke-width="1">
    <line x1="289" y1="267" x2="254" y2="240"/>
    <circle cx="289" cy="267" r="2"/>
    <circle cx="254" cy="240" r="2"/>
  </g>
  <g stroke="chocolate" stroke-width="1">
    <line x1="469" y1="166" x2="454" y2="141"/>
    <circle cx="469" cy="166" r="2"/>
    <circle cx="454" cy="141" r="2"/>
  </g>
  <g stroke="chocolate" stroke-width="1">
    <line x1="317" y1="98" x2="337" y2="91"/>
    <circle cx="317" cy="98" r="2"/>
    <circle cx="337" cy="91" r="2"/>
  </g>
  <g stroke="chocolate" stroke-width="1">
    <line x1="252" y1="220" x2="57" y2="214"/>
    <circle cx="252" cy="220" r="2"/>
    <circle cx="57" cy="214" r="2"/>
  </g>
  <g stroke="chocolate" stroke-width="1">
    <line x1="378" y1="259" x2="364" y2="254"/>
    <circle cx="378" cy="259" r="2"/>
    <circle cx="364" cy="254" r="2"/>
  </g>
  <g stroke="chocolate" stroke-width="1">
    <line x1="380" y1="256" x2="366" y2="248"/>
    <circle cx="380" cy="256" r="2"/>
    <circle cx="366" cy="248" r="2"/>
  </g>
  <g stroke="chocolate" stroke-width="1">
    <line x1="263" y1="155" x2="432" y2="147"/>
    <circle cx="263" cy="155" r="2"/>
    <circle cx="432" cy="147" r="2"/>
  </g>
  <g stroke="chocolate" stroke-width="1">
    <line x1="103" y1="82" x2="101" y2="81"/>
    <circle cx="103" cy="82" r="2"/>
    <circle cx="101" cy="81" r="2"/>
  </g>
  <g stroke="chocolate" stroke-width="1">
    <line x1="103" y1="82" x2="104" y2="81"/>
    <circle cx="103" cy="82" r="2"/>
    <circle cx="104" cy="81" r="2"/>
  </g>
  <g stroke="chocolate" stroke-width="1">
    <line x1="367" y1="171" x2="226" y2="148"/>
    <circle cx="367" cy="171" r="2"/>
    <circle cx="226" cy="148" r="2"/>
  </g>
  <g stroke="chocolate" stroke-width="1">
    <line x1="454" y1="141" x2="274" y2="110"/>
    <circle cx="454" cy="141" r="2"/>
    <circle cx="274" cy="110" r="2"/>
  </g>
  <g stroke="chocolate" stroke-width="1">
    <line x1="104" y1="81" x2="101" y2="81"/>
    <circle cx="104" cy="81" r="2"/>
    <circle cx="101" cy="81" r="2"/>
  </g>
  <g stroke="chocolate" stroke-width="1">
    <line x1="41" y1="89" x2="101" y2="81"/>
    <circle cx="41" cy="89" r="2"/>
    <circle cx="101" cy="81" r="2"/>
  </g>
  <g stroke="chocolate" stroke-width="1">
    <line x1="469" y1="166" x2="337" y2="91"/>
    <circle cx="469" cy="166" r="2"/>
    <circle cx="337" cy="91" r="2"/>
  </g>
  <g stroke="black" stroke-width="1">
    <line x1="5" y1="5" x2="505" y2="5"/>
    <line x1="5" y1="5" x2="5" y2="505"/>
    <line x1="505" y1="505" x2="5" y2="505"/>
    <line x1="505" y1="505" x2="505" y2="5"/>
    <line x1="105" y1="2" x2="105" y2="8"/>
    <line x1="2" y1="105" x2="8" y2="105"/>
    <line x1="105" y1="502" x2="105" y2="508"/>
    <line x1="502" y1="105" x2="508" y2="105"/>
    <line x1="205" y1="2" x2="205" y2="8"/>
    <line x1="2" y1="205" x2="8" y2="205"/>
    <line x1="205" y1="502" x2="205" y2="508"/>
    <line x1="502" y1="205" x2="508" y2="205"/>
    <line x1="305" y1="2" x2="305" y2="8"/>
    <line x1="2" y1="305" x2="8" y2="305"/>
    <line x1="305" y1="502" x2="305" y2="508"/>
    <line x1="502" y1="305" x2="508" y2="305"/>
    <line x1="405" y1="2" x2="405" y2="8"/>
    <line x1="2" y1="405" x2="8" y2="405"/>
    <line x1="405" y1="502" x2="405" y2="508"/>
    <line x1="502" y1="405" x2="508" y2="405"/>
  </g>
  <g stroke="gray" stroke-width="1" stroke-dasharray="5,5">
    <line x1="105" y1="5" x2="105" y2="505"/>
    <line x1="5" y1="105" x2="505" y2="105"/>
    <line x1="205" y1="5" x2="205" y2="505"/>
    <line x1="5" y1="205" x2="505" y2="205"/>
    <line x1="305" y1="5" x2="305" y2="505"/>
    <line x1="5" y1="305" x2="505" y2="305"/>
    <line x1="405" y1="5" x2="405" y2="505"/>
    <line x1="5" y1="405" x2="505" y2="405"/>
  </g>
</svg>
