<?xml version="1.0" standalone="no"?>
<!DOCTYPE svg PUBLIC "-//W3C//DTD SVG 1.1//EN" 
  "http://www.w3.org/Graphics/SVG/1.1/DTD/svg11.dtd">
<svg width="538" height="538" version="1.1" id="toplevel"
    xmlns="http://www.w3.org/2000/svg"
    xmlns:xlink="http://www.w3.org/1999/xlink">
  <polygon points="380,533 390,528 395,424 394,424 431,131 475,131 475,21 447,5 112,172 130,217 63,307 130,357"
           fill="bisque"/>
  <g stroke="chocolate" stroke-width="1">
    <line x1="380" y1="533" x2="390" y2="528"/>
    <circle cx="380" cy="533" r="2"/>
    <circle cx="390" cy="528" r="2"/>
  </g>
  <g stroke="chocolate" stroke-width="1">
    <line x1="380" y1="533" x2="447" y2="5"/>
    <circle cx="380" cy="533" r="2"/>
    <circle cx="447" cy="5" r="2"/>
  </g>
  <g stroke="chocolate" stroke-width="1">
    <line x1="63" y1="307" x2="195" y2="131"/>
    <circle cx="63" cy="307" r="2"/>
    <circle cx="195" cy="131" r="2"/>
  </g>
  <g stroke="chocolate" stroke-width="1">
    <line x1="390" y1="528" x2="395" y2="424"/>
    <circle cx="390" cy="528" r="2"/>
    <circle cx="395" cy="424" r="2"/>
  </g>
  <g stroke="chocolate" stroke-width="1">
    <line x1="475" y1="131" x2="475" y2="21"/>
    <circle cx="475" cy="131" r="2"/>
    <circle cx="475" cy="21" r="2"/>
  </g>
  <g stroke="chocolate" stroke-width="1">
    <line x1="139" y1="219" x2="475" y2="21"/>
    <circle cx="139" cy="219" r="2"/>
    <circle cx="475" cy="21" r="2"/>
  </g>
  <g stroke="chocolate" stroke-width="1">
    <line x1="395" y1="424" x2="212" y2="415"/>
    <circle cx="395" cy="424" r="2"/>
    <circle cx="212" cy="415" r="2"/>
  </g>
  <g stroke="chocolate" stroke-width="1">
    <line x1="212" y1="415" x2="112" y2="172"/>
    <circle cx="212" cy="415" r="2"/>
    <circle cx="112" cy="172" r="2"/>
  </g>
  <g stroke="chocolate" stroke-width="1">
    <line x1="112" y1="172" x2="447" y2="5"/>
    <circle cx="112" cy="172" r="2"/>
    <circle cx="447" cy="5" r="2"/>
  </g>
  <g stroke="chocolate" stroke-width="1">
    <line x1="139" y1="219" x2="112" y2="172"/>
    <circle cx="139" cy="219" r="2"/>
    <circle cx="112" cy="172" r="2"/>
  </g>
  <g stroke="chocolate" stroke-width="1">
    <line x1="130" y1="357" x2="63" y2="307"/>
    <circle cx="130" cy="357" r="2"/>
    <circle cx="63" cy="307" r="2"/>
  </g>
  <g stroke="chocolate" stroke-width="1">
    <line x1="380" y1="533" x2="130" y2="357"/>
    <circle cx="380" cy="533" r="2"/>
    <circle cx="130" cy="357" r="2"/>
  </g>
  <g stroke="chocolate" stroke-width="1">
    <line x1="390" y1="528" x2="130" y2="357"/>
    <circle cx="390" cy="528" r="2"/>
    <circle cx="130" cy="357" r="2"/>
  </g>
  <g stroke="chocolate" stroke-width="1">
    <line x1="195" y1="131" x2="475" y2="131"/>
    <circle cx="195" cy="131" r="2"/>
    <circle cx="475" cy="131" r="2"/>
  </g>
  <g stroke="chocolate" stroke-width="1">
    <line x1="475" y1="21" x2="447" y2="5"/>
    <circle cx="475" cy="21" r="2"/>
    <circle cx="447" cy="5" r="2"/>
  </g>
  <g stroke="black" stroke-width="1">
    <line x1="19" y1="19" x2="519" y2="19"/>
    <line x1="19" y1="19" x2="19" y2="519"/>
    <line x1="519" y1="519" x2="19" y2="519"/>
    <line x1="519" y1="519" x2="519" y2="19"/>
    <line x1="119" y1="16" x2="119" y2="22"/>
    <line x1="16" y1="119" x2="22" y2="119"/>
    <line x1="119" y1="516" x2="119" y2="522"/>
    <line x1="516" y1="119" x2="522" y2="119"/>
    <line x1="219" y1="16" x2="219" y2="22"/>
    <line x1="16" y1="219" x2="22" y2="219"/>
    <line x1="219" y1="516" x2="219" y2="522"/>
    <line x1="516" y1="219" x2="522" y2="219"/>
    <line x1="319" y1="16" x2="319" y2="22"/>
    <line x1="16" y1="319" x2="22" y2="319"/>
    <line x1="319" y1="516" x2="319" y2="522"/>
    <line x1="516" y1="319" x2="522" y2="319"/>
    <line x1="419" y1="16" x2="419" y2="22"/>
    <line x1="16" y1="419" x2="22" y2="419"/>
    <line x1="419" y1="516" x2="419" y2="522"/>
    <line x1="516" y1="419" x2="522" y2="419"/>
  </g>
  <g stroke="gray" stroke-width="1" stroke-dasharray="5,5">
    <line x1="119" y1="19" x2="119" y2="519"/>
    <line x1="19" y1="119" x2="519" y2="119"/>
    <line x1="219" y1="19" x2="219" y2="519"/>
    <line x1="19" y1="219" x2="519" y2="219"/>
    <line x1="319" y1="19" x2="319" y2="519"/>
    <line x1="19" y1="319" x2="519" y2="319"/>
    <line x1="419" y1="19" x2="419" y2="519"/>
    <line x1="19" y1="419" x2="519" y2="419"/>
  </g>
</svg>
