<?xml version="1.0" standalone="no"?>
<!DOCTYPE svg PUBLIC "-//W3C//DTD SVG 1.1//EN" 
  "http://www.w3.org/Graphics/SVG/1.1/DTD/svg11.dtd">
<svg width="510" height="510" version="1.1" id="toplevel"
    xmlns="http://www.w3.org/2000/svg"
    xmlns:xlink="http://www.w3.org/1999/xlink">
  <polygon points="290,449 347,362 432,256 421,247 431,233 238,61 78,188 155,288 144,305 191,335 196,330 243,388 269,366 282,443"
           fill="bisque"/>
  <g stroke="chocolate" stroke-width="1">
    <line x1="377" y1="247" x2="402" y2="231"/>
    <circle cx="377" cy="247" r="2"/>
    <circle cx="402" cy="231" r="2"/>
  </g>
  <g stroke="chocolate" stroke-width="1">
    <line x1="78" y1="188" x2="238" y2="61"/>
    <circle cx="78" cy="188" r="2"/>
    <circle cx="238" cy="61" r="2"/>
  </g>
  <g stroke="chocolate" stroke-width="1">
    <line x1="232" y1="135" x2="278" y2="97"/>
    <circle cx="232" cy="135" r="2"/>
    <circle cx="278" cy="97" r="2"/>
  </g>
  <g stroke="chocolate" stroke-width="1">
    <line x1="243" y1="388" x2="431" y2="233"/>
    <circle cx="243" cy="388" r="2"/>
    <circle cx="431" cy="233" r="2"/>
  </g>
  <g stroke="chocolate" stroke-width="1">
    <line x1="191" y1="335" x2="351" y2="162"/>
    <circle cx="191" cy="335" r="2"/>
    <circle cx="351" cy="162" r="2"/>
  </g>
  <g stroke="chocolate" stroke-width="1">
    <line x1="254" y1="273" x2="351" y2="162"/>
    <circle cx="254" cy="273" r="2"/>
    <circle cx="351" cy="162" r="2"/>
  </g>
  <g stroke="chocolate" stroke-width="1">
    <line x1="362" y1="337" x2="432" y2="256"/>
    <circle cx="362" cy="337" r="2"/>
    <circle cx="432" cy="256" r="2"/>
  </g>
  <g stroke="chocolate" stroke-width="1">
    <line x1="282" y1="443" x2="432" y2="256"/>
    <circle cx="282" cy="443" r="2"/>
    <circle cx="432" cy="256" r="2"/>
  </g>
  <g stroke="chocolate" stroke-width="1">
    <line x1="290" y1="449" x2="431" y2="233"/>
    <circle cx="290" cy="449" r="2"/>
    <circle cx="431" cy="233" r="2"/>
  </g>
  <g stroke="chocolate" stroke-width="1">
    <line x1="144" y1="305" x2="278" y2="97"/>
    <circle cx="144" cy="305" r="2"/>
    <circle cx="278" cy="97" r="2"/>
  </g>
  <g stroke="chocolate" stroke-width="1">
    <line x1="224" y1="84" x2="238" y2="61"/>
    <circle cx="224" cy="84" r="2"/>
    <circle cx="238" cy="61" r="2"/>
  </g>
  <g stroke="chocolate" stroke-width="1">
    <line x1="362" y1="337" x2="402" y2="231"/>
    <circle cx="362" cy="337" r="2"/>
    <circle cx="402" cy="231" r="2"/>
  </g>
  <g stroke="chocolate" stroke-width="1">
    <line x1="331" y1="172" x2="232" y2="135"/>
    <circle cx="331" cy="172" r="2"/>
    <circle cx="232" cy="135" r="2"/>
  </g>
  <g stroke="chocolate" stroke-width="1">
    <line x1="362" y1="337" x2="254" y2="273"/>
    <circle cx="362" cy="337" r="2"/>
    <circle cx="254" cy="273" r="2"/>
  </g>
  <g stroke="chocolate" stroke-width="1">
    <line x1="191" y1="335" x2="144" y2="305"/>
    <circle cx="191" cy="335" r="2"/>
    <circle cx="144" cy="305" r="2"/>
  </g>
  <g stroke="chocolate" stroke-width="1">
    <line x1="290" y1="449" x2="282" y2="443"/>
    <circle cx="290" cy="449" r="2"/>
    <circle cx="282" cy="443" r="2"/>
  </g>
  <g stroke="chocolate" stroke-width="1">
    <line x1="432" y1="256" x2="224" y2="84"/>
    <circle cx="432" cy="256" r="2"/>
    <circle cx="224" cy="84" r="2"/>
  </g>
  <g stroke="chocolate" stroke-width="1">
    <line x1="282" y1="443" x2="224" y2="84"/>
    <circle cx="282" cy="443" r="2"/>
    <circle cx="224" cy="84" r="2"/>
  </g>
  <g stroke="chocolate" stroke-width="1">
    <line x1="431" y1="233" x2="238" y2="61"/>
    <circle cx="431" cy="233" r="2"/>
    <circle cx="238" cy="61" r="2"/>
  </g>
  <g stroke="chocolate" stroke-width="1">
    <line x1="243" y1="388" x2="78" y2="188"/>
    <circle cx="243" cy="388" r="2"/>
    <circle cx="78" cy="188" r="2"/>
  </g>
  <g stroke="chocolate" stroke-width="1">
    <line x1="191" y1="335" x2="78" y2="188"/>
    <circle cx="191" cy="335" r="2"/>
    <circle cx="78" cy="188" r="2"/>
  </g>
  <g stroke="chocolate" stroke-width="1">
    <line x1="377" y1="247" x2="331" y2="172"/>
    <circle cx="377" cy="247" r="2"/>
    <circle cx="331" cy="172" r="2"/>
  </g>
  <g stroke="black" stroke-width="1">
    <line x1="5" y1="5" x2="505" y2="5"/>
    <line x1="5" y1="5" x2="5" y2="505"/>
    <line x1="505" y1="505" x2="5" y2="505"/>
    <line x1="505" y1="505" x2="505" y2="5"/>
    <line x1="105" y1="2" x2="105" y2="8"/>
    <line x1="2" y1="105" x2="8" y2="105"/>
    <line x1="105" y1="502" x2="105" y2="508"/>
    <line x1="502" y1="105" x2="508" y2="105"/>
    <line x1="205" y1="2" x2="205" y2="8"/>
    <line x1="2" y1="205" x2="8" y2="205"/>
    <line x1="205" y1="502" x2="205" y2="508"/>
    <line x1="502" y1="205" x2="508" y2="205"/>
    <line x1="305" y1="2" x2="305" y2="8"/>
    <line x1="2" y1="305" x2="8" y2="305"/>
    <line x1="305" y1="502" x2="305" y2="508"/>
    <line x1="502" y1="305" x2="508" y2="305"/>
    <line x1="405" y1="2" x2="405" y2="8"/>
    <line x1="2" y1="405" x2="8" y2="405"/>
    <line x1="405" y1="502" x2="405" y2="508"/>
    <line x1="502" y1="405" x2="508" y2="405"/>
  </g>
  <g stroke="gray" stroke-width="1" stroke-dasharray="5,5">
    <line x1="105" y1="5" x2="105" y2="505"/>
    <line x1="5" y1="105" x2="505" y2="105"/>
    <line x1="205" y1="5" x2="205" y2="505"/>
    <line x1="5" y1="205" x2="505" y2="205"/>
    <line x1="305" y1="5" x2="305" y2="505"/>
    <line x1="5" y1="305" x2="505" y2="305"/>
    <line x1="405" y1="5" x2="405" y2="505"/>
    <line x1="5" y1="405" x2="505" y2="405"/>
  </g>
</svg>
