<?xml version="1.0" standalone="no"?>
<!DOCTYPE svg PUBLIC "-//W3C//DTD SVG 1.1//EN" 
  "http://www.w3.org/Graphics/SVG/1.1/DTD/svg11.dtd">
<svg width="526" height="526" version="1.1" id="toplevel"
    xmlns="http://www.w3.org/2000/svg"
    xmlns:xlink="http://www.w3.org/1999/xlink">
  <polygon points="271,520 391,486 344,326 403,170 286,126 251,6 175,28 123,473"
           fill="bisque"/>
  <g stroke="chocolate" stroke-width="1">
    <line x1="170" y1="488" x2="251" y2="71"/>
    <circle cx="170" cy="488" r="2"/>
    <circle cx="251" cy="71" r="2"/>
  </g>
  <g stroke="chocolate" stroke-width="1">
    <line x1="123" y1="473" x2="175" y2="28"/>
    <circle cx="123" cy="473" r="2"/>
    <circle cx="175" cy="28" r="2"/>
  </g>
  <g stroke="chocolate" stroke-width="1">
    <line x1="271" y1="520" x2="303" y2="400"/>
    <circle cx="271" cy="520" r="2"/>
    <circle cx="303" cy="400" r="2"/>
  </g>
  <g stroke="chocolate" stroke-width="1">
    <line x1="271" y1="520" x2="403" y2="170"/>
    <circle cx="271" cy="520" r="2"/>
    <circle cx="403" cy="170" r="2"/>
  </g>
  <g stroke="chocolate" stroke-width="1">
    <line x1="170" y1="488" x2="212" y2="396"/>
    <circle cx="170" cy="488" r="2"/>
    <circle cx="212" cy="396" r="2"/>
  </g>
  <g stroke="chocolate" stroke-width="1">
    <line x1="123" y1="473" x2="132" y2="458"/>
    <circle cx="123" cy="473" r="2"/>
    <circle cx="132" cy="458" r="2"/>
  </g>
  <g stroke="chocolate" stroke-width="1">
    <line x1="193" y1="413" x2="189" y2="393"/>
    <circle cx="193" cy="413" r="2"/>
    <circle cx="189" cy="393" r="2"/>
  </g>
  <g stroke="chocolate" stroke-width="1">
    <line x1="391" y1="486" x2="251" y2="6"/>
    <circle cx="391" cy="486" r="2"/>
    <circle cx="251" cy="6" r="2"/>
  </g>
  <g stroke="chocolate" stroke-width="1">
    <line x1="132" y1="458" x2="206" y2="374"/>
    <circle cx="132" cy="458" r="2"/>
    <circle cx="206" cy="374" r="2"/>
  </g>
  <g stroke="chocolate" stroke-width="1">
    <line x1="215" y1="397" x2="206" y2="374"/>
    <circle cx="215" cy="397" r="2"/>
    <circle cx="206" cy="374" r="2"/>
  </g>
  <g stroke="chocolate" stroke-width="1">
    <line x1="132" y1="458" x2="215" y2="397"/>
    <circle cx="132" cy="458" r="2"/>
    <circle cx="215" cy="397" r="2"/>
  </g>
  <g stroke="chocolate" stroke-width="1">
    <line x1="271" y1="520" x2="179" y2="404"/>
    <circle cx="271" cy="520" r="2"/>
    <circle cx="179" cy="404" r="2"/>
  </g>
  <g stroke="chocolate" stroke-width="1">
    <line x1="212" y1="396" x2="198" y2="383"/>
    <circle cx="212" cy="396" r="2"/>
    <circle cx="198" cy="383" r="2"/>
  </g>
  <g stroke="chocolate" stroke-width="1">
    <line x1="215" y1="397" x2="198" y2="383"/>
    <circle cx="215" cy="397" r="2"/>
    <circle cx="198" cy="383" r="2"/>
  </g>
  <g stroke="chocolate" stroke-width="1">
    <line x1="271" y1="520" x2="391" y2="486"/>
    <circle cx="271" cy="520" r="2"/>
    <circle cx="391" cy="486" r="2"/>
  </g>
  <g stroke="chocolate" stroke-width="1">
    <line x1="175" y1="28" x2="251" y2="6"/>
    <circle cx="175" cy="28" r="2"/>
    <circle cx="251" cy="6" r="2"/>
  </g>
  <g stroke="chocolate" stroke-width="1">
    <line x1="193" y1="413" x2="179" y2="404"/>
    <circle cx="193" cy="413" r="2"/>
    <circle cx="179" cy="404" r="2"/>
  </g>
  <g stroke="chocolate" stroke-width="1">
    <line x1="251" y1="71" x2="175" y2="28"/>
    <circle cx="251" cy="71" r="2"/>
    <circle cx="175" cy="28" r="2"/>
  </g>
  <g stroke="chocolate" stroke-width="1">
    <line x1="169" y1="82" x2="251" y2="71"/>
    <circle cx="169" cy="82" r="2"/>
    <circle cx="251" cy="71" r="2"/>
  </g>
  <g stroke="chocolate" stroke-width="1">
    <line x1="403" y1="170" x2="169" y2="82"/>
    <circle cx="403" cy="170" r="2"/>
    <circle cx="169" cy="82" r="2"/>
  </g>
  <g stroke="chocolate" stroke-width="1">
    <line x1="271" y1="520" x2="123" y2="473"/>
    <circle cx="271" cy="520" r="2"/>
    <circle cx="123" cy="473" r="2"/>
  </g>
  <g stroke="chocolate" stroke-width="1">
    <line x1="303" y1="400" x2="206" y2="374"/>
    <circle cx="303" cy="400" r="2"/>
    <circle cx="206" cy="374" r="2"/>
  </g>
  <g stroke="chocolate" stroke-width="1">
    <line x1="212" y1="396" x2="189" y2="393"/>
    <circle cx="212" cy="396" r="2"/>
    <circle cx="189" cy="393" r="2"/>
  </g>
  <g stroke="black" stroke-width="1">
    <line x1="13" y1="13" x2="513" y2="13"/>
    <line x1="13" y1="13" x2="13" y2="513"/>
    <line x1="513" y1="513" x2="13" y2="513"/>
    <line x1="513" y1="513" x2="513" y2="13"/>
    <line x1="113" y1="10" x2="113" y2="16"/>
    <line x1="10" y1="113" x2="16" y2="113"/>
    <line x1="113" y1="510" x2="113" y2="516"/>
    <line x1="510" y1="113" x2="516" y2="113"/>
    <line x1="213" y1="10" x2="213" y2="16"/>
    <line x1="10" y1="213" x2="16" y2="213"/>
    <line x1="213" y1="510" x2="213" y2="516"/>
    <line x1="510" y1="213" x2="516" y2="213"/>
    <line x1="313" y1="10" x2="313" y2="16"/>
    <line x1="10" y1="313" x2="16" y2="313"/>
    <line x1="313" y1="510" x2="313" y2="516"/>
    <line x1="510" y1="313" x2="516" y2="313"/>
    <line x1="413" y1="10" x2="413" y2="16"/>
    <line x1="10" y1="413" x2="16" y2="413"/>
    <line x1="413" y1="510" x2="413" y2="516"/>
    <line x1="510" y1="413" x2="516" y2="413"/>
  </g>
  <g stroke="gray" stroke-width="1" stroke-dasharray="5,5">
    <line x1="113" y1="13" x2="113" y2="513"/>
    <line x1="13" y1="113" x2="513" y2="113"/>
    <line x1="213" y1="13" x2="213" y2="513"/>
    <line x1="13" y1="213" x2="513" y2="213"/>
    <line x1="313" y1="13" x2="313" y2="513"/>
    <line x1="13" y1="313" x2="513" y2="313"/>
    <line x1="413" y1="13" x2="413" y2="513"/>
    <line x1="13" y1="413" x2="513" y2="413"/>
  </g>
</svg>
