<?xml version="1.0" standalone="no"?>
<!DOCTYPE svg PUBLIC "-//W3C//DTD SVG 1.1//EN" 
  "http://www.w3.org/Graphics/SVG/1.1/DTD/svg11.dtd">
<svg width="656" height="656" version="1.1" id="toplevel"
    xmlns="http://www.w3.org/2000/svg"
    xmlns:xlink="http://www.w3.org/1999/xlink">
  <polygon points="373,619 618,306 638,312 651,264 216,43 194,37 5,278 110,413"
           fill="bisque"/>
  <g stroke="chocolate" stroke-width="1">
    <line x1="222" y1="49" x2="222" y2="47"/>
    <circle cx="222" cy="49" r="2"/>
    <circle cx="222" cy="47" r="2"/>
  </g>
  <g stroke="chocolate" stroke-width="1">
    <line x1="638" y1="312" x2="651" y2="264"/>
    <circle cx="638" cy="312" r="2"/>
    <circle cx="651" cy="264" r="2"/>
  </g>
  <g stroke="chocolate" stroke-width="1">
    <line x1="199" y1="113" x2="194" y2="37"/>
    <circle cx="199" cy="113" r="2"/>
    <circle cx="194" cy="37" r="2"/>
  </g>
  <g stroke="chocolate" stroke-width="1">
    <line x1="199" y1="113" x2="222" y2="47"/>
    <circle cx="199" cy="113" r="2"/>
    <circle cx="222" cy="47" r="2"/>
  </g>
  <g stroke="chocolate" stroke-width="1">
    <line x1="221" y1="48" x2="222" y2="47"/>
    <circle cx="221" cy="48" r="2"/>
    <circle cx="222" cy="47" r="2"/>
  </g>
  <g stroke="chocolate" stroke-width="1">
    <line x1="110" y1="413" x2="43" y2="261"/>
    <circle cx="110" cy="413" r="2"/>
    <circle cx="43" cy="261" r="2"/>
  </g>
  <g stroke="chocolate" stroke-width="1">
    <line x1="373" y1="619" x2="651" y2="264"/>
    <circle cx="373" cy="619" r="2"/>
    <circle cx="651" cy="264" r="2"/>
  </g>
  <g stroke="chocolate" stroke-width="1">
    <line x1="5" y1="278" x2="194" y2="37"/>
    <circle cx="5" cy="278" r="2"/>
    <circle cx="194" cy="37" r="2"/>
  </g>
  <g stroke="chocolate" stroke-width="1">
    <line x1="221" y1="48" x2="222" y2="47"/>
    <circle cx="221" cy="48" r="2"/>
    <circle cx="222" cy="47" r="2"/>
  </g>
  <g stroke="chocolate" stroke-width="1">
    <line x1="542" y1="285" x2="528" y2="263"/>
    <circle cx="542" cy="285" r="2"/>
    <circle cx="528" cy="263" r="2"/>
  </g>
  <g stroke="chocolate" stroke-width="1">
    <line x1="110" y1="413" x2="5" y2="278"/>
    <circle cx="110" cy="413" r="2"/>
    <circle cx="5" cy="278" r="2"/>
  </g>
  <g stroke="chocolate" stroke-width="1">
    <line x1="528" y1="263" x2="411" y2="143"/>
    <circle cx="528" cy="263" r="2"/>
    <circle cx="411" cy="143" r="2"/>
  </g>
  <g stroke="chocolate" stroke-width="1">
    <line x1="299" y1="105" x2="231" y2="51"/>
    <circle cx="299" cy="105" r="2"/>
    <circle cx="231" cy="51" r="2"/>
  </g>
  <g stroke="chocolate" stroke-width="1">
    <line x1="373" y1="619" x2="110" y2="413"/>
    <circle cx="373" cy="619" r="2"/>
    <circle cx="110" cy="413" r="2"/>
  </g>
  <g stroke="chocolate" stroke-width="1">
    <line x1="5" y1="278" x2="43" y2="261"/>
    <circle cx="5" cy="278" r="2"/>
    <circle cx="43" cy="261" r="2"/>
  </g>
  <g stroke="chocolate" stroke-width="1">
    <line x1="542" y1="285" x2="216" y2="43"/>
    <circle cx="542" cy="285" r="2"/>
    <circle cx="216" cy="43" r="2"/>
  </g>
  <g stroke="chocolate" stroke-width="1">
    <line x1="528" y1="263" x2="299" y2="105"/>
    <circle cx="528" cy="263" r="2"/>
    <circle cx="299" cy="105" r="2"/>
  </g>
  <g stroke="chocolate" stroke-width="1">
    <line x1="651" y1="264" x2="216" y2="43"/>
    <circle cx="651" cy="264" r="2"/>
    <circle cx="216" cy="43" r="2"/>
  </g>
  <g stroke="chocolate" stroke-width="1">
    <line x1="216" y1="43" x2="194" y2="37"/>
    <circle cx="216" cy="43" r="2"/>
    <circle cx="194" cy="37" r="2"/>
  </g>
  <g stroke="chocolate" stroke-width="1">
    <line x1="638" y1="312" x2="542" y2="285"/>
    <circle cx="638" cy="312" r="2"/>
    <circle cx="542" cy="285" r="2"/>
  </g>
  <g stroke="chocolate" stroke-width="1">
    <line x1="231" y1="51" x2="222" y2="49"/>
    <circle cx="231" cy="51" r="2"/>
    <circle cx="222" cy="49" r="2"/>
  </g>
  <g stroke="chocolate" stroke-width="1">
    <line x1="411" y1="143" x2="199" y2="113"/>
    <circle cx="411" cy="143" r="2"/>
    <circle cx="199" cy="113" r="2"/>
  </g>
  <g stroke="black" stroke-width="1">
    <line x1="78" y1="78" x2="578" y2="78"/>
    <line x1="78" y1="78" x2="78" y2="578"/>
    <line x1="578" y1="578" x2="78" y2="578"/>
    <line x1="578" y1="578" x2="578" y2="78"/>
    <line x1="178" y1="75" x2="178" y2="81"/>
    <line x1="75" y1="178" x2="81" y2="178"/>
    <line x1="178" y1="575" x2="178" y2="581"/>
    <line x1="575" y1="178" x2="581" y2="178"/>
    <line x1="278" y1="75" x2="278" y2="81"/>
    <line x1="75" y1="278" x2="81" y2="278"/>
    <line x1="278" y1="575" x2="278" y2="581"/>
    <line x1="575" y1="278" x2="581" y2="278"/>
    <line x1="378" y1="75" x2="378" y2="81"/>
    <line x1="75" y1="378" x2="81" y2="378"/>
    <line x1="378" y1="575" x2="378" y2="581"/>
    <line x1="575" y1="378" x2="581" y2="378"/>
    <line x1="478" y1="75" x2="478" y2="81"/>
    <line x1="75" y1="478" x2="81" y2="478"/>
    <line x1="478" y1="575" x2="478" y2="581"/>
    <line x1="575" y1="478" x2="581" y2="478"/>
  </g>
  <g stroke="gray" stroke-width="1" stroke-dasharray="5,5">
    <line x1="178" y1="78" x2="178" y2="578"/>
    <line x1="78" y1="178" x2="578" y2="178"/>
    <line x1="278" y1="78" x2="278" y2="578"/>
    <line x1="78" y1="278" x2="578" y2="278"/>
    <line x1="378" y1="78" x2="378" y2="578"/>
    <line x1="78" y1="378" x2="578" y2="378"/>
    <line x1="478" y1="78" x2="478" y2="578"/>
    <line x1="78" y1="478" x2="578" y2="478"/>
  </g>
</svg>
