<?xml version="1.0" standalone="no"?>
<!DOCTYPE svg PUBLIC "-//W3C//DTD SVG 1.1//EN" 
  "http://www.w3.org/Graphics/SVG/1.1/DTD/svg11.dtd">
<svg width="510" height="510" version="1.1" id="toplevel"
    xmlns="http://www.w3.org/2000/svg"
    xmlns:xlink="http://www.w3.org/1999/xlink">
  <polygon points="348,436 380,337 434,212 422,207 428,191 197,74 76,238 176,315 170,334 222,351 226,345 286,389 306,361 338,432"
           fill="bisque"/>
  <g stroke="chocolate" stroke-width="1">
    <line x1="388" y1="309" x2="434" y2="212"/>
    <circle cx="388" cy="309" r="2"/>
    <circle cx="434" cy="212" r="2"/>
  </g>
  <g stroke="chocolate" stroke-width="1">
    <line x1="338" y1="432" x2="434" y2="212"/>
    <circle cx="338" cy="432" r="2"/>
    <circle cx="434" cy="212" r="2"/>
  </g>
  <g stroke="chocolate" stroke-width="1">
    <line x1="268" y1="275" x2="332" y2="143"/>
    <circle cx="268" cy="275" r="2"/>
    <circle cx="332" cy="143" r="2"/>
  </g>
  <g stroke="chocolate" stroke-width="1">
    <line x1="222" y1="351" x2="332" y2="143"/>
    <circle cx="222" cy="351" r="2"/>
    <circle cx="332" cy="143" r="2"/>
  </g>
  <g stroke="chocolate" stroke-width="1">
    <line x1="348" y1="436" x2="428" y2="191"/>
    <circle cx="348" cy="436" r="2"/>
    <circle cx="428" cy="191" r="2"/>
  </g>
  <g stroke="chocolate" stroke-width="1">
    <line x1="170" y1="334" x2="245" y2="99"/>
    <circle cx="170" cy="334" r="2"/>
    <circle cx="245" cy="99" r="2"/>
  </g>
  <g stroke="chocolate" stroke-width="1">
    <line x1="189" y1="100" x2="197" y2="74"/>
    <circle cx="189" cy="100" r="2"/>
    <circle cx="197" cy="74" r="2"/>
  </g>
  <g stroke="chocolate" stroke-width="1">
    <line x1="286" y1="389" x2="428" y2="191"/>
    <circle cx="286" cy="389" r="2"/>
    <circle cx="428" cy="191" r="2"/>
  </g>
  <g stroke="chocolate" stroke-width="1">
    <line x1="210" y1="147" x2="245" y2="99"/>
    <circle cx="210" cy="147" r="2"/>
    <circle cx="245" cy="99" r="2"/>
  </g>
  <g stroke="chocolate" stroke-width="1">
    <line x1="76" y1="238" x2="197" y2="74"/>
    <circle cx="76" cy="238" r="2"/>
    <circle cx="197" cy="74" r="2"/>
  </g>
  <g stroke="chocolate" stroke-width="1">
    <line x1="379" y1="218" x2="400" y2="196"/>
    <circle cx="379" cy="218" r="2"/>
    <circle cx="400" cy="196" r="2"/>
  </g>
  <g stroke="chocolate" stroke-width="1">
    <line x1="388" y1="309" x2="400" y2="196"/>
    <circle cx="388" cy="309" r="2"/>
    <circle cx="400" cy="196" r="2"/>
  </g>
  <g stroke="chocolate" stroke-width="1">
    <line x1="338" y1="432" x2="189" y2="100"/>
    <circle cx="338" cy="432" r="2"/>
    <circle cx="189" cy="100" r="2"/>
  </g>
  <g stroke="chocolate" stroke-width="1">
    <line x1="316" y1="158" x2="210" y2="147"/>
    <circle cx="316" cy="158" r="2"/>
    <circle cx="210" cy="147" r="2"/>
  </g>
  <g stroke="chocolate" stroke-width="1">
    <line x1="379" y1="218" x2="316" y2="158"/>
    <circle cx="379" cy="218" r="2"/>
    <circle cx="316" cy="158" r="2"/>
  </g>
  <g stroke="chocolate" stroke-width="1">
    <line x1="222" y1="351" x2="76" y2="238"/>
    <circle cx="222" cy="351" r="2"/>
    <circle cx="76" cy="238" r="2"/>
  </g>
  <g stroke="chocolate" stroke-width="1">
    <line x1="286" y1="389" x2="76" y2="238"/>
    <circle cx="286" cy="389" r="2"/>
    <circle cx="76" cy="238" r="2"/>
  </g>
  <g stroke="chocolate" stroke-width="1">
    <line x1="388" y1="309" x2="268" y2="275"/>
    <circle cx="388" cy="309" r="2"/>
    <circle cx="268" cy="275" r="2"/>
  </g>
  <g stroke="chocolate" stroke-width="1">
    <line x1="222" y1="351" x2="170" y2="334"/>
    <circle cx="222" cy="351" r="2"/>
    <circle cx="170" cy="334" r="2"/>
  </g>
  <g stroke="chocolate" stroke-width="1">
    <line x1="348" y1="436" x2="338" y2="432"/>
    <circle cx="348" cy="436" r="2"/>
    <circle cx="338" cy="432" r="2"/>
  </g>
  <g stroke="chocolate" stroke-width="1">
    <line x1="428" y1="191" x2="197" y2="74"/>
    <circle cx="428" cy="191" r="2"/>
    <circle cx="197" cy="74" r="2"/>
  </g>
  <g stroke="chocolate" stroke-width="1">
    <line x1="434" y1="212" x2="189" y2="100"/>
    <circle cx="434" cy="212" r="2"/>
    <circle cx="189" cy="100" r="2"/>
  </g>
  <g stroke="black" stroke-width="1">
    <line x1="5" y1="5" x2="505" y2="5"/>
    <line x1="5" y1="5" x2="5" y2="505"/>
    <line x1="505" y1="505" x2="5" y2="505"/>
    <line x1="505" y1="505" x2="505" y2="5"/>
    <line x1="105" y1="2" x2="105" y2="8"/>
    <line x1="2" y1="105" x2="8" y2="105"/>
    <line x1="105" y1="502" x2="105" y2="508"/>
    <line x1="502" y1="105" x2="508" y2="105"/>
    <line x1="205" y1="2" x2="205" y2="8"/>
    <line x1="2" y1="205" x2="8" y2="205"/>
    <line x1="205" y1="502" x2="205" y2="508"/>
    <line x1="502" y1="205" x2="508" y2="205"/>
    <line x1="305" y1="2" x2="305" y2="8"/>
    <line x1="2" y1="305" x2="8" y2="305"/>
    <line x1="305" y1="502" x2="305" y2="508"/>
    <line x1="502" y1="305" x2="508" y2="305"/>
    <line x1="405" y1="2" x2="405" y2="8"/>
    <line x1="2" y1="405" x2="8" y2="405"/>
    <line x1="405" y1="502" x2="405" y2="508"/>
    <line x1="502" y1="405" x2="508" y2="405"/>
  </g>
  <g stroke="gray" stroke-width="1" stroke-dasharray="5,5">
    <line x1="105" y1="5" x2="105" y2="505"/>
    <line x1="5" y1="105" x2="505" y2="105"/>
    <line x1="205" y1="5" x2="205" y2="505"/>
    <line x1="5" y1="205" x2="505" y2="205"/>
    <line x1="305" y1="5" x2="305" y2="505"/>
    <line x1="5" y1="305" x2="505" y2="305"/>
    <line x1="405" y1="5" x2="405" y2="505"/>
    <line x1="5" y1="405" x2="505" y2="405"/>
  </g>
</svg>
