<?xml version="1.0" standalone="no"?>
<!DOCTYPE svg PUBLIC "-//W3C//DTD SVG 1.1//EN" 
  "http://www.w3.org/Graphics/SVG/1.1/DTD/svg11.dtd">
<svg width="510" height="510" version="1.1" id="toplevel"
    xmlns="http://www.w3.org/2000/svg"
    xmlns:xlink="http://www.w3.org/1999/xlink">
  <polygon points="219,448 229,410 434,384 434,218 390,218 349,62 76,133 76,430"
           fill="bisque"/>
  <g stroke="chocolate" stroke-width="1">
    <line x1="219" y1="448" x2="287" y2="188"/>
    <circle cx="219" cy="448" r="2"/>
    <circle cx="287" cy="188" r="2"/>
  </g>
  <g stroke="chocolate" stroke-width="1">
    <line x1="76" y1="430" x2="76" y2="133"/>
    <circle cx="76" cy="430" r="2"/>
    <circle cx="76" cy="133" r="2"/>
  </g>
  <g stroke="chocolate" stroke-width="1">
    <line x1="219" y1="448" x2="219" y2="218"/>
    <circle cx="219" cy="448" r="2"/>
    <circle cx="219" cy="218" r="2"/>
  </g>
  <g stroke="chocolate" stroke-width="1">
    <line x1="434" y1="384" x2="434" y2="218"/>
    <circle cx="434" cy="384" r="2"/>
    <circle cx="434" cy="218" r="2"/>
  </g>
  <g stroke="chocolate" stroke-width="1">
    <line x1="434" y1="384" x2="349" y2="62"/>
    <circle cx="434" cy="384" r="2"/>
    <circle cx="349" cy="62" r="2"/>
  </g>
  <g stroke="chocolate" stroke-width="1">
    <line x1="76" y1="430" x2="434" y2="384"/>
    <circle cx="76" cy="430" r="2"/>
    <circle cx="434" cy="384" r="2"/>
  </g>
  <g stroke="chocolate" stroke-width="1">
    <line x1="219" y1="448" x2="76" y2="430"/>
    <circle cx="219" cy="448" r="2"/>
    <circle cx="76" cy="430" r="2"/>
  </g>
  <g stroke="chocolate" stroke-width="1">
    <line x1="76" y1="133" x2="349" y2="62"/>
    <circle cx="76" cy="133" r="2"/>
    <circle cx="349" cy="62" r="2"/>
  </g>
  <g stroke="chocolate" stroke-width="1">
    <line x1="76" y1="218" x2="434" y2="218"/>
    <circle cx="76" cy="218" r="2"/>
    <circle cx="434" cy="218" r="2"/>
  </g>
  <g stroke="chocolate" stroke-width="1">
    <line x1="287" y1="188" x2="76" y2="133"/>
    <circle cx="287" cy="188" r="2"/>
    <circle cx="76" cy="133" r="2"/>
  </g>
  <g stroke="black" stroke-width="1">
    <line x1="5" y1="5" x2="505" y2="5"/>
    <line x1="5" y1="5" x2="5" y2="505"/>
    <line x1="505" y1="505" x2="5" y2="505"/>
    <line x1="505" y1="505" x2="505" y2="5"/>
    <line x1="105" y1="2" x2="105" y2="8"/>
    <line x1="2" y1="105" x2="8" y2="105"/>
    <line x1="105" y1="502" x2="105" y2="508"/>
    <line x1="502" y1="105" x2="508" y2="105"/>
    <line x1="205" y1="2" x2="205" y2="8"/>
    <line x1="2" y1="205" x2="8" y2="205"/>
    <line x1="205" y1="502" x2="205" y2="508"/>
    <line x1="502" y1="205" x2="508" y2="205"/>
    <line x1="305" y1="2" x2="305" y2="8"/>
    <line x1="2" y1="305" x2="8" y2="305"/>
    <line x1="305" y1="502" x2="305" y2="508"/>
    <line x1="502" y1="305" x2="508" y2="305"/>
    <line x1="405" y1="2" x2="405" y2="8"/>
    <line x1="2" y1="405" x2="8" y2="405"/>
    <line x1="405" y1="502" x2="405" y2="508"/>
    <line x1="502" y1="405" x2="508" y2="405"/>
  </g>
  <g stroke="gray" stroke-width="1" stroke-dasharray="5,5">
    <line x1="105" y1="5" x2="105" y2="505"/>
    <line x1="5" y1="105" x2="505" y2="105"/>
    <line x1="205" y1="5" x2="205" y2="505"/>
    <line x1="5" y1="205" x2="505" y2="205"/>
    <line x1="305" y1="5" x2="305" y2="505"/>
    <line x1="5" y1="305" x2="505" y2="305"/>
    <line x1="405" y1="5" x2="405" y2="505"/>
    <line x1="5" y1="405" x2="505" y2="405"/>
  </g>
</svg>
