<?xml version="1.0" standalone="no"?>
<!DOCTYPE svg PUBLIC "-//W3C//DTD SVG 1.1//EN" 
  "http://www.w3.org/Graphics/SVG/1.1/DTD/svg11.dtd">
<svg width="522" height="522" version="1.1" id="toplevel"
    xmlns="http://www.w3.org/2000/svg"
    xmlns:xlink="http://www.w3.org/1999/xlink">
  <polygon points="338,430 517,212 468,92 284,167 227,156 193,182 191,205 5,282 7,286"
           fill="bisque"/>
  <g stroke="chocolate" stroke-width="1">
    <line x1="338" y1="430" x2="517" y2="212"/>
    <circle cx="338" cy="430" r="2"/>
    <circle cx="517" cy="212" r="2"/>
  </g>
  <g stroke="chocolate" stroke-width="1">
    <line x1="338" y1="430" x2="7" y2="286"/>
    <circle cx="338" cy="430" r="2"/>
    <circle cx="7" cy="286" r="2"/>
  </g>
  <g stroke="chocolate" stroke-width="1">
    <line x1="7" y1="286" x2="5" y2="282"/>
    <circle cx="7" cy="286" r="2"/>
    <circle cx="5" cy="282" r="2"/>
  </g>
  <g stroke="chocolate" stroke-width="1">
    <line x1="219" y1="231" x2="227" y2="156"/>
    <circle cx="219" cy="231" r="2"/>
    <circle cx="227" cy="156" r="2"/>
  </g>
  <g stroke="chocolate" stroke-width="1">
    <line x1="200" y1="229" x2="208" y2="170"/>
    <circle cx="200" cy="229" r="2"/>
    <circle cx="208" cy="170" r="2"/>
  </g>
  <g stroke="chocolate" stroke-width="1">
    <line x1="190" y1="219" x2="193" y2="182"/>
    <circle cx="190" cy="219" r="2"/>
    <circle cx="193" cy="182" r="2"/>
  </g>
  <g stroke="chocolate" stroke-width="1">
    <line x1="190" y1="219" x2="209" y2="198"/>
    <circle cx="190" cy="219" r="2"/>
    <circle cx="209" cy="198" r="2"/>
  </g>
  <g stroke="chocolate" stroke-width="1">
    <line x1="190" y1="217" x2="209" y2="198"/>
    <circle cx="190" cy="217" r="2"/>
    <circle cx="209" cy="198" r="2"/>
  </g>
  <g stroke="chocolate" stroke-width="1">
    <line x1="338" y1="430" x2="190" y2="219"/>
    <circle cx="338" cy="430" r="2"/>
    <circle cx="190" cy="219" r="2"/>
  </g>
  <g stroke="chocolate" stroke-width="1">
    <line x1="200" y1="229" x2="190" y2="217"/>
    <circle cx="200" cy="229" r="2"/>
    <circle cx="190" cy="217" r="2"/>
  </g>
  <g stroke="chocolate" stroke-width="1">
    <line x1="219" y1="231" x2="200" y2="229"/>
    <circle cx="219" cy="231" r="2"/>
    <circle cx="200" cy="229" r="2"/>
  </g>
  <g stroke="chocolate" stroke-width="1">
    <line x1="7" y1="286" x2="471" y2="112"/>
    <circle cx="7" cy="286" r="2"/>
    <circle cx="471" cy="112" r="2"/>
  </g>
  <g stroke="chocolate" stroke-width="1">
    <line x1="5" y1="282" x2="468" y2="92"/>
    <circle cx="5" cy="282" r="2"/>
    <circle cx="468" cy="92" r="2"/>
  </g>
  <g stroke="chocolate" stroke-width="1">
    <line x1="193" y1="182" x2="227" y2="156"/>
    <circle cx="193" cy="182" r="2"/>
    <circle cx="227" cy="156" r="2"/>
  </g>
  <g stroke="chocolate" stroke-width="1">
    <line x1="209" y1="198" x2="193" y2="182"/>
    <circle cx="209" cy="198" r="2"/>
    <circle cx="193" cy="182" r="2"/>
  </g>
  <g stroke="chocolate" stroke-width="1">
    <line x1="511" y1="219" x2="208" y2="170"/>
    <circle cx="511" cy="219" r="2"/>
    <circle cx="208" cy="170" r="2"/>
  </g>
  <g stroke="chocolate" stroke-width="1">
    <line x1="517" y1="212" x2="227" y2="156"/>
    <circle cx="517" cy="212" r="2"/>
    <circle cx="227" cy="156" r="2"/>
  </g>
  <g stroke="chocolate" stroke-width="1">
    <line x1="511" y1="219" x2="471" y2="112"/>
    <circle cx="511" cy="219" r="2"/>
    <circle cx="471" cy="112" r="2"/>
  </g>
  <g stroke="chocolate" stroke-width="1">
    <line x1="517" y1="212" x2="468" y2="92"/>
    <circle cx="517" cy="212" r="2"/>
    <circle cx="468" cy="92" r="2"/>
  </g>
  <g stroke="black" stroke-width="1">
    <line x1="11" y1="11" x2="511" y2="11"/>
    <line x1="11" y1="11" x2="11" y2="511"/>
    <line x1="511" y1="511" x2="11" y2="511"/>
    <line x1="511" y1="511" x2="511" y2="11"/>
    <line x1="111" y1="8" x2="111" y2="14"/>
    <line x1="8" y1="111" x2="14" y2="111"/>
    <line x1="111" y1="508" x2="111" y2="514"/>
    <line x1="508" y1="111" x2="514" y2="111"/>
    <line x1="211" y1="8" x2="211" y2="14"/>
    <line x1="8" y1="211" x2="14" y2="211"/>
    <line x1="211" y1="508" x2="211" y2="514"/>
    <line x1="508" y1="211" x2="514" y2="211"/>
    <line x1="311" y1="8" x2="311" y2="14"/>
    <line x1="8" y1="311" x2="14" y2="311"/>
    <line x1="311" y1="508" x2="311" y2="514"/>
    <line x1="508" y1="311" x2="514" y2="311"/>
    <line x1="411" y1="8" x2="411" y2="14"/>
    <line x1="8" y1="411" x2="14" y2="411"/>
    <line x1="411" y1="508" x2="411" y2="514"/>
    <line x1="508" y1="411" x2="514" y2="411"/>
  </g>
  <g stroke="gray" stroke-width="1" stroke-dasharray="5,5">
    <line x1="111" y1="11" x2="111" y2="511"/>
    <line x1="11" y1="111" x2="511" y2="111"/>
    <line x1="211" y1="11" x2="211" y2="511"/>
    <line x1="11" y1="211" x2="511" y2="211"/>
    <line x1="311" y1="11" x2="311" y2="511"/>
    <line x1="11" y1="311" x2="511" y2="311"/>
    <line x1="411" y1="11" x2="411" y2="511"/>
    <line x1="11" y1="411" x2="511" y2="411"/>
  </g>
</svg>
