<?xml version="1.0" standalone="no"?>
<!DOCTYPE svg PUBLIC "-//W3C//DTD SVG 1.1//EN" 
  "http://www.w3.org/Graphics/SVG/1.1/DTD/svg11.dtd">
<svg width="510" height="510" version="1.1" id="toplevel"
    xmlns="http://www.w3.org/2000/svg"
    xmlns:xlink="http://www.w3.org/1999/xlink">
  <polygon points="397,444 403,443 398,372 471,365 461,265 317,66 245,99 223,160 230,163 27,387 9,385 5,411 5,411 5,413"
           fill="bisque"/>
  <g stroke="chocolate" stroke-width="1">
    <line x1="300" y1="436" x2="306" y2="415"/>
    <circle cx="300" cy="436" r="2"/>
    <circle cx="306" cy="415" r="2"/>
  </g>
  <g stroke="chocolate" stroke-width="1">
    <line x1="358" y1="196" x2="373" y2="143"/>
    <circle cx="358" cy="196" r="2"/>
    <circle cx="373" cy="143" r="2"/>
  </g>
  <g stroke="chocolate" stroke-width="1">
    <line x1="397" y1="444" x2="403" y2="443"/>
    <circle cx="397" cy="444" r="2"/>
    <circle cx="403" cy="443" r="2"/>
  </g>
  <g stroke="chocolate" stroke-width="1">
    <line x1="223" y1="160" x2="245" y2="99"/>
    <circle cx="223" cy="160" r="2"/>
    <circle cx="245" cy="99" r="2"/>
  </g>
  <g stroke="chocolate" stroke-width="1">
    <line x1="385" y1="443" x2="403" y2="443"/>
    <circle cx="385" cy="443" r="2"/>
    <circle cx="403" cy="443" r="2"/>
  </g>
  <g stroke="chocolate" stroke-width="1">
    <line x1="5" y1="413" x2="5" y2="411"/>
    <circle cx="5" cy="413" r="2"/>
    <circle cx="5" cy="411" r="2"/>
  </g>
  <g stroke="chocolate" stroke-width="1">
    <line x1="5" y1="413" x2="9" y2="385"/>
    <circle cx="5" cy="413" r="2"/>
    <circle cx="9" cy="385" r="2"/>
  </g>
  <g stroke="chocolate" stroke-width="1">
    <line x1="5" y1="411" x2="317" y2="66"/>
    <circle cx="5" cy="411" r="2"/>
    <circle cx="317" cy="66" r="2"/>
  </g>
  <g stroke="chocolate" stroke-width="1">
    <line x1="397" y1="444" x2="5" y2="413"/>
    <circle cx="397" cy="444" r="2"/>
    <circle cx="5" cy="413" r="2"/>
  </g>
  <g stroke="chocolate" stroke-width="1">
    <line x1="403" y1="443" x2="382" y2="155"/>
    <circle cx="403" cy="443" r="2"/>
    <circle cx="382" cy="155" r="2"/>
  </g>
  <g stroke="chocolate" stroke-width="1">
    <line x1="5" y1="411" x2="471" y2="365"/>
    <circle cx="5" cy="411" r="2"/>
    <circle cx="471" cy="365" r="2"/>
  </g>
  <g stroke="chocolate" stroke-width="1">
    <line x1="300" y1="436" x2="254" y2="136"/>
    <circle cx="300" cy="436" r="2"/>
    <circle cx="254" cy="136" r="2"/>
  </g>
  <g stroke="chocolate" stroke-width="1">
    <line x1="471" y1="365" x2="461" y2="265"/>
    <circle cx="471" cy="365" r="2"/>
    <circle cx="461" cy="265" r="2"/>
  </g>
  <g stroke="chocolate" stroke-width="1">
    <line x1="385" y1="443" x2="9" y2="385"/>
    <circle cx="385" cy="443" r="2"/>
    <circle cx="9" cy="385" r="2"/>
  </g>
  <g stroke="chocolate" stroke-width="1">
    <line x1="397" y1="444" x2="306" y2="415"/>
    <circle cx="397" cy="444" r="2"/>
    <circle cx="306" cy="415" r="2"/>
  </g>
  <g stroke="chocolate" stroke-width="1">
    <line x1="245" y1="99" x2="317" y2="66"/>
    <circle cx="245" cy="99" r="2"/>
    <circle cx="317" cy="66" r="2"/>
  </g>
  <g stroke="chocolate" stroke-width="1">
    <line x1="461" y1="265" x2="317" y2="66"/>
    <circle cx="461" cy="265" r="2"/>
    <circle cx="317" cy="66" r="2"/>
  </g>
  <g stroke="chocolate" stroke-width="1">
    <line x1="461" y1="265" x2="223" y2="160"/>
    <circle cx="461" cy="265" r="2"/>
    <circle cx="223" cy="160" r="2"/>
  </g>
  <g stroke="chocolate" stroke-width="1">
    <line x1="358" y1="196" x2="223" y2="160"/>
    <circle cx="358" cy="196" r="2"/>
    <circle cx="223" cy="160" r="2"/>
  </g>
  <g stroke="chocolate" stroke-width="1">
    <line x1="373" y1="143" x2="254" y2="136"/>
    <circle cx="373" cy="143" r="2"/>
    <circle cx="254" cy="136" r="2"/>
  </g>
  <g stroke="chocolate" stroke-width="1">
    <line x1="382" y1="155" x2="245" y2="99"/>
    <circle cx="382" cy="155" r="2"/>
    <circle cx="245" cy="99" r="2"/>
  </g>
  <g stroke="black" stroke-width="1">
    <line x1="5" y1="5" x2="505" y2="5"/>
    <line x1="5" y1="5" x2="5" y2="505"/>
    <line x1="505" y1="505" x2="5" y2="505"/>
    <line x1="505" y1="505" x2="505" y2="5"/>
    <line x1="105" y1="2" x2="105" y2="8"/>
    <line x1="2" y1="105" x2="8" y2="105"/>
    <line x1="105" y1="502" x2="105" y2="508"/>
    <line x1="502" y1="105" x2="508" y2="105"/>
    <line x1="205" y1="2" x2="205" y2="8"/>
    <line x1="2" y1="205" x2="8" y2="205"/>
    <line x1="205" y1="502" x2="205" y2="508"/>
    <line x1="502" y1="205" x2="508" y2="205"/>
    <line x1="305" y1="2" x2="305" y2="8"/>
    <line x1="2" y1="305" x2="8" y2="305"/>
    <line x1="305" y1="502" x2="305" y2="508"/>
    <line x1="502" y1="305" x2="508" y2="305"/>
    <line x1="405" y1="2" x2="405" y2="8"/>
    <line x1="2" y1="405" x2="8" y2="405"/>
    <line x1="405" y1="502" x2="405" y2="508"/>
    <line x1="502" y1="405" x2="508" y2="405"/>
  </g>
  <g stroke="gray" stroke-width="1" stroke-dasharray="5,5">
    <line x1="105" y1="5" x2="105" y2="505"/>
    <line x1="5" y1="105" x2="505" y2="105"/>
    <line x1="205" y1="5" x2="205" y2="505"/>
    <line x1="5" y1="205" x2="505" y2="205"/>
    <line x1="305" y1="5" x2="305" y2="505"/>
    <line x1="5" y1="305" x2="505" y2="305"/>
    <line x1="405" y1="5" x2="405" y2="505"/>
    <line x1="5" y1="405" x2="505" y2="405"/>
  </g>
</svg>
