<?xml version="1.0" standalone="no"?>
<!DOCTYPE svg PUBLIC "-//W3C//DTD SVG 1.1//EN" 
  "http://www.w3.org/Graphics/SVG/1.1/DTD/svg11.dtd">
<svg width="510" height="510" version="1.1" id="toplevel"
    xmlns="http://www.w3.org/2000/svg"
    xmlns:xlink="http://www.w3.org/1999/xlink">
  <polygon points="216,438 375,412 384,237 265,164 196,208 193,199 184,216 171,225 179,227 126,335"
           fill="bisque"/>
  <polygon points="228,301 205,232 256,243 251,293" fill="bisque"/>
  <g stroke="chocolate" stroke-width="1">
    <line x1="216" y1="438" x2="271" y2="304"/>
    <circle cx="216" cy="438" r="2"/>
    <circle cx="271" cy="304" r="2"/>
  </g>
  <g stroke="chocolate" stroke-width="1">
    <line x1="242" y1="375" x2="315" y2="216"/>
    <circle cx="242" cy="375" r="2"/>
    <circle cx="315" cy="216" r="2"/>
  </g>
  <g stroke="chocolate" stroke-width="1">
    <line x1="375" y1="412" x2="384" y2="237"/>
    <circle cx="375" cy="412" r="2"/>
    <circle cx="384" cy="237" r="2"/>
  </g>
  <g stroke="chocolate" stroke-width="1">
    <line x1="242" y1="375" x2="265" y2="164"/>
    <circle cx="242" cy="375" r="2"/>
    <circle cx="265" cy="164" r="2"/>
  </g>
  <g stroke="chocolate" stroke-width="1">
    <line x1="271" y1="429" x2="271" y2="304"/>
    <circle cx="271" cy="429" r="2"/>
    <circle cx="271" cy="304" r="2"/>
  </g>
  <g stroke="chocolate" stroke-width="1">
    <line x1="271" y1="304" x2="299" y2="277"/>
    <circle cx="271" cy="304" r="2"/>
    <circle cx="299" cy="277" r="2"/>
  </g>
  <g stroke="chocolate" stroke-width="1">
    <line x1="126" y1="335" x2="193" y2="199"/>
    <circle cx="126" cy="335" r="2"/>
    <circle cx="193" cy="199" r="2"/>
  </g>
  <g stroke="chocolate" stroke-width="1">
    <line x1="271" y1="429" x2="193" y2="199"/>
    <circle cx="271" cy="429" r="2"/>
    <circle cx="193" cy="199" r="2"/>
  </g>
  <g stroke="chocolate" stroke-width="1">
    <line x1="216" y1="438" x2="375" y2="412"/>
    <circle cx="216" cy="438" r="2"/>
    <circle cx="375" cy="412" r="2"/>
  </g>
  <g stroke="chocolate" stroke-width="1">
    <line x1="216" y1="438" x2="126" y2="335"/>
    <circle cx="216" cy="438" r="2"/>
    <circle cx="126" cy="335" r="2"/>
  </g>
  <g stroke="chocolate" stroke-width="1">
    <line x1="299" y1="277" x2="384" y2="237"/>
    <circle cx="299" cy="277" r="2"/>
    <circle cx="384" cy="237" r="2"/>
  </g>
  <g stroke="chocolate" stroke-width="1">
    <line x1="375" y1="412" x2="242" y2="375"/>
    <circle cx="375" cy="412" r="2"/>
    <circle cx="242" cy="375" r="2"/>
  </g>
  <g stroke="chocolate" stroke-width="1">
    <line x1="126" y1="335" x2="384" y2="248"/>
    <circle cx="126" cy="335" r="2"/>
    <circle cx="384" cy="248" r="2"/>
  </g>
  <g stroke="chocolate" stroke-width="1">
    <line x1="171" y1="225" x2="265" y2="164"/>
    <circle cx="171" cy="225" r="2"/>
    <circle cx="265" cy="164" r="2"/>
  </g>
  <g stroke="chocolate" stroke-width="1">
    <line x1="299" y1="277" x2="383" y2="269"/>
    <circle cx="299" cy="277" r="2"/>
    <circle cx="383" cy="269" r="2"/>
  </g>
  <g stroke="chocolate" stroke-width="1">
    <line x1="383" y1="269" x2="171" y2="225"/>
    <circle cx="383" cy="269" r="2"/>
    <circle cx="171" cy="225" r="2"/>
  </g>
  <g stroke="chocolate" stroke-width="1">
    <line x1="384" y1="237" x2="265" y2="164"/>
    <circle cx="384" cy="237" r="2"/>
    <circle cx="265" cy="164" r="2"/>
  </g>
  <g stroke="chocolate" stroke-width="1">
    <line x1="384" y1="248" x2="315" y2="216"/>
    <circle cx="384" cy="248" r="2"/>
    <circle cx="315" cy="216" r="2"/>
  </g>
  <g stroke="black" stroke-width="1">
    <line x1="5" y1="5" x2="505" y2="5"/>
    <line x1="5" y1="5" x2="5" y2="505"/>
    <line x1="505" y1="505" x2="5" y2="505"/>
    <line x1="505" y1="505" x2="505" y2="5"/>
    <line x1="105" y1="2" x2="105" y2="8"/>
    <line x1="2" y1="105" x2="8" y2="105"/>
    <line x1="105" y1="502" x2="105" y2="508"/>
    <line x1="502" y1="105" x2="508" y2="105"/>
    <line x1="205" y1="2" x2="205" y2="8"/>
    <line x1="2" y1="205" x2="8" y2="205"/>
    <line x1="205" y1="502" x2="205" y2="508"/>
    <line x1="502" y1="205" x2="508" y2="205"/>
    <line x1="305" y1="2" x2="305" y2="8"/>
    <line x1="2" y1="305" x2="8" y2="305"/>
    <line x1="305" y1="502" x2="305" y2="508"/>
    <line x1="502" y1="305" x2="508" y2="305"/>
    <line x1="405" y1="2" x2="405" y2="8"/>
    <line x1="2" y1="405" x2="8" y2="405"/>
    <line x1="405" y1="502" x2="405" y2="508"/>
    <line x1="502" y1="405" x2="508" y2="405"/>
  </g>
  <g stroke="gray" stroke-width="1" stroke-dasharray="5,5">
    <line x1="105" y1="5" x2="105" y2="505"/>
    <line x1="5" y1="105" x2="505" y2="105"/>
    <line x1="205" y1="5" x2="205" y2="505"/>
    <line x1="5" y1="205" x2="505" y2="205"/>
    <line x1="305" y1="5" x2="305" y2="505"/>
    <line x1="5" y1="305" x2="505" y2="305"/>
    <line x1="405" y1="5" x2="405" y2="505"/>
    <line x1="5" y1="405" x2="505" y2="405"/>
  </g>
</svg>
