<?xml version="1.0" standalone="no"?>
<!DOCTYPE svg PUBLIC "-//W3C//DTD SVG 1.1//EN" 
  "http://www.w3.org/Graphics/SVG/1.1/DTD/svg11.dtd">
<svg width="626" height="626" version="1.1" id="toplevel"
    xmlns="http://www.w3.org/2000/svg"
    xmlns:xlink="http://www.w3.org/1999/xlink">
  <polygon points="458,543 621,293 297,83 49,337 23,399 7,401 5,442"
           fill="bisque"/>
  <g stroke="chocolate" stroke-width="1">
    <line x1="276" y1="235" x2="361" y2="176"/>
    <circle cx="276" cy="235" r="2"/>
    <circle cx="361" cy="176" r="2"/>
  </g>
  <g stroke="chocolate" stroke-width="1">
    <line x1="49" y1="337" x2="276" y2="235"/>
    <circle cx="49" cy="337" r="2"/>
    <circle cx="276" cy="235" r="2"/>
  </g>
  <g stroke="chocolate" stroke-width="1">
    <line x1="458" y1="543" x2="621" y2="293"/>
    <circle cx="458" cy="543" r="2"/>
    <circle cx="621" cy="293" r="2"/>
  </g>
  <g stroke="chocolate" stroke-width="1">
    <line x1="49" y1="337" x2="297" y2="83"/>
    <circle cx="49" cy="337" r="2"/>
    <circle cx="297" cy="83" r="2"/>
  </g>
  <g stroke="chocolate" stroke-width="1">
    <line x1="107" y1="277" x2="276" y2="235"/>
    <circle cx="107" cy="277" r="2"/>
    <circle cx="276" cy="235" r="2"/>
  </g>
  <g stroke="chocolate" stroke-width="1">
    <line x1="7" y1="401" x2="431" y2="344"/>
    <circle cx="7" cy="401" r="2"/>
    <circle cx="431" cy="344" r="2"/>
  </g>
  <g stroke="chocolate" stroke-width="1">
    <line x1="5" y1="442" x2="49" y2="337"/>
    <circle cx="5" cy="442" r="2"/>
    <circle cx="49" cy="337" r="2"/>
  </g>
  <g stroke="chocolate" stroke-width="1">
    <line x1="458" y1="543" x2="5" y2="442"/>
    <circle cx="458" cy="543" r="2"/>
    <circle cx="5" cy="442" r="2"/>
  </g>
  <g stroke="chocolate" stroke-width="1">
    <line x1="77" y1="417" x2="7" y2="401"/>
    <circle cx="77" cy="417" r="2"/>
    <circle cx="7" cy="401" r="2"/>
  </g>
  <g stroke="chocolate" stroke-width="1">
    <line x1="68" y1="456" x2="77" y2="417"/>
    <circle cx="68" cy="456" r="2"/>
    <circle cx="77" cy="417" r="2"/>
  </g>
  <g stroke="chocolate" stroke-width="1">
    <line x1="68" y1="456" x2="107" y2="277"/>
    <circle cx="68" cy="456" r="2"/>
    <circle cx="107" cy="277" r="2"/>
  </g>
  <g stroke="chocolate" stroke-width="1">
    <line x1="5" y1="442" x2="7" y2="401"/>
    <circle cx="5" cy="442" r="2"/>
    <circle cx="7" cy="401" r="2"/>
  </g>
  <g stroke="chocolate" stroke-width="1">
    <line x1="458" y1="543" x2="431" y2="344"/>
    <circle cx="458" cy="543" r="2"/>
    <circle cx="431" cy="344" r="2"/>
  </g>
  <g stroke="chocolate" stroke-width="1">
    <line x1="621" y1="293" x2="297" y2="83"/>
    <circle cx="621" cy="293" r="2"/>
    <circle cx="297" cy="83" r="2"/>
  </g>
  <g stroke="chocolate" stroke-width="1">
    <line x1="361" y1="176" x2="297" y2="83"/>
    <circle cx="361" cy="176" r="2"/>
    <circle cx="297" cy="83" r="2"/>
  </g>
  <g stroke="black" stroke-width="1">
    <line x1="63" y1="63" x2="563" y2="63"/>
    <line x1="63" y1="63" x2="63" y2="563"/>
    <line x1="563" y1="563" x2="63" y2="563"/>
    <line x1="563" y1="563" x2="563" y2="63"/>
    <line x1="163" y1="60" x2="163" y2="66"/>
    <line x1="60" y1="163" x2="66" y2="163"/>
    <line x1="163" y1="560" x2="163" y2="566"/>
    <line x1="560" y1="163" x2="566" y2="163"/>
    <line x1="263" y1="60" x2="263" y2="66"/>
    <line x1="60" y1="263" x2="66" y2="263"/>
    <line x1="263" y1="560" x2="263" y2="566"/>
    <line x1="560" y1="263" x2="566" y2="263"/>
    <line x1="363" y1="60" x2="363" y2="66"/>
    <line x1="60" y1="363" x2="66" y2="363"/>
    <line x1="363" y1="560" x2="363" y2="566"/>
    <line x1="560" y1="363" x2="566" y2="363"/>
    <line x1="463" y1="60" x2="463" y2="66"/>
    <line x1="60" y1="463" x2="66" y2="463"/>
    <line x1="463" y1="560" x2="463" y2="566"/>
    <line x1="560" y1="463" x2="566" y2="463"/>
  </g>
  <g stroke="gray" stroke-width="1" stroke-dasharray="5,5">
    <line x1="163" y1="63" x2="163" y2="563"/>
    <line x1="63" y1="163" x2="563" y2="163"/>
    <line x1="263" y1="63" x2="263" y2="563"/>
    <line x1="63" y1="263" x2="563" y2="263"/>
    <line x1="363" y1="63" x2="363" y2="563"/>
    <line x1="63" y1="363" x2="563" y2="363"/>
    <line x1="463" y1="63" x2="463" y2="563"/>
    <line x1="63" y1="463" x2="563" y2="463"/>
  </g>
</svg>
