<?xml version="1.0" standalone="no"?>
<!DOCTYPE svg PUBLIC "-//W3C//DTD SVG 1.1//EN" 
  "http://www.w3.org/Graphics/SVG/1.1/DTD/svg11.dtd">
<svg width="510" height="510" version="1.1" id="toplevel"
    xmlns="http://www.w3.org/2000/svg"
    xmlns:xlink="http://www.w3.org/1999/xlink">
  <polygon points="302,504 454,316 106,35 93,6 78,12 56,179 69,497"
           fill="bisque"/>
  <g stroke="chocolate" stroke-width="1">
    <line x1="56" y1="179" x2="78" y2="12"/>
    <circle cx="56" cy="179" r="2"/>
    <circle cx="78" cy="12" r="2"/>
  </g>
  <g stroke="chocolate" stroke-width="1">
    <line x1="123" y1="491" x2="122" y2="393"/>
    <circle cx="123" cy="491" r="2"/>
    <circle cx="122" cy="393" r="2"/>
  </g>
  <g stroke="chocolate" stroke-width="1">
    <line x1="69" y1="497" x2="56" y2="179"/>
    <circle cx="69" cy="497" r="2"/>
    <circle cx="56" cy="179" r="2"/>
  </g>
  <g stroke="chocolate" stroke-width="1">
    <line x1="123" y1="491" x2="56" y2="179"/>
    <circle cx="123" cy="491" r="2"/>
    <circle cx="56" cy="179" r="2"/>
  </g>
  <g stroke="chocolate" stroke-width="1">
    <line x1="302" y1="504" x2="454" y2="316"/>
    <circle cx="302" cy="504" r="2"/>
    <circle cx="454" cy="316" r="2"/>
  </g>
  <g stroke="chocolate" stroke-width="1">
    <line x1="295" y1="463" x2="93" y2="6"/>
    <circle cx="295" cy="463" r="2"/>
    <circle cx="93" cy="6" r="2"/>
  </g>
  <g stroke="chocolate" stroke-width="1">
    <line x1="302" y1="504" x2="152" y2="294"/>
    <circle cx="302" cy="504" r="2"/>
    <circle cx="152" cy="294" r="2"/>
  </g>
  <g stroke="chocolate" stroke-width="1">
    <line x1="63" y1="357" x2="152" y2="294"/>
    <circle cx="63" cy="357" r="2"/>
    <circle cx="152" cy="294" r="2"/>
  </g>
  <g stroke="chocolate" stroke-width="1">
    <line x1="66" y1="428" x2="122" y2="393"/>
    <circle cx="66" cy="428" r="2"/>
    <circle cx="122" cy="393" r="2"/>
  </g>
  <g stroke="chocolate" stroke-width="1">
    <line x1="208" y1="501" x2="295" y2="463"/>
    <circle cx="208" cy="501" r="2"/>
    <circle cx="295" cy="463" r="2"/>
  </g>
  <g stroke="chocolate" stroke-width="1">
    <line x1="122" y1="393" x2="63" y2="357"/>
    <circle cx="122" cy="393" r="2"/>
    <circle cx="63" cy="357" r="2"/>
  </g>
  <g stroke="chocolate" stroke-width="1">
    <line x1="208" y1="501" x2="66" y2="428"/>
    <circle cx="208" cy="501" r="2"/>
    <circle cx="66" cy="428" r="2"/>
  </g>
  <g stroke="chocolate" stroke-width="1">
    <line x1="454" y1="316" x2="78" y2="12"/>
    <circle cx="454" cy="316" r="2"/>
    <circle cx="78" cy="12" r="2"/>
  </g>
  <g stroke="chocolate" stroke-width="1">
    <line x1="69" y1="497" x2="123" y2="491"/>
    <circle cx="69" cy="497" r="2"/>
    <circle cx="123" cy="491" r="2"/>
  </g>
  <g stroke="chocolate" stroke-width="1">
    <line x1="302" y1="504" x2="69" y2="497"/>
    <circle cx="302" cy="504" r="2"/>
    <circle cx="69" cy="497" r="2"/>
  </g>
  <g stroke="chocolate" stroke-width="1">
    <line x1="78" y1="12" x2="93" y2="6"/>
    <circle cx="78" cy="12" r="2"/>
    <circle cx="93" cy="6" r="2"/>
  </g>
  <g stroke="black" stroke-width="1">
    <line x1="5" y1="5" x2="505" y2="5"/>
    <line x1="5" y1="5" x2="5" y2="505"/>
    <line x1="505" y1="505" x2="5" y2="505"/>
    <line x1="505" y1="505" x2="505" y2="5"/>
    <line x1="105" y1="2" x2="105" y2="8"/>
    <line x1="2" y1="105" x2="8" y2="105"/>
    <line x1="105" y1="502" x2="105" y2="508"/>
    <line x1="502" y1="105" x2="508" y2="105"/>
    <line x1="205" y1="2" x2="205" y2="8"/>
    <line x1="2" y1="205" x2="8" y2="205"/>
    <line x1="205" y1="502" x2="205" y2="508"/>
    <line x1="502" y1="205" x2="508" y2="205"/>
    <line x1="305" y1="2" x2="305" y2="8"/>
    <line x1="2" y1="305" x2="8" y2="305"/>
    <line x1="305" y1="502" x2="305" y2="508"/>
    <line x1="502" y1="305" x2="508" y2="305"/>
    <line x1="405" y1="2" x2="405" y2="8"/>
    <line x1="2" y1="405" x2="8" y2="405"/>
    <line x1="405" y1="502" x2="405" y2="508"/>
    <line x1="502" y1="405" x2="508" y2="405"/>
  </g>
  <g stroke="gray" stroke-width="1" stroke-dasharray="5,5">
    <line x1="105" y1="5" x2="105" y2="505"/>
    <line x1="5" y1="105" x2="505" y2="105"/>
    <line x1="205" y1="5" x2="205" y2="505"/>
    <line x1="5" y1="205" x2="505" y2="205"/>
    <line x1="305" y1="5" x2="305" y2="505"/>
    <line x1="5" y1="305" x2="505" y2="305"/>
    <line x1="405" y1="5" x2="405" y2="505"/>
    <line x1="5" y1="405" x2="505" y2="405"/>
  </g>
</svg>
