<?xml version="1.0" standalone="no"?>
<!DOCTYPE svg PUBLIC "-//W3C//DTD SVG 1.1//EN" 
  "http://www.w3.org/Graphics/SVG/1.1/DTD/svg11.dtd">
<svg width="510" height="510" version="1.1" id="toplevel"
    xmlns="http://www.w3.org/2000/svg"
    xmlns:xlink="http://www.w3.org/1999/xlink">
  <polygon points="5,505 155,505 169,490 169,357 357,357 357,343 169,343 155,357 155,490 5,490"
           fill="bisque"/>
  <g stroke="chocolate" stroke-width="1">
    <line x1="155" y1="505" x2="169" y2="490"/>
    <circle cx="155" cy="505" r="2"/>
    <circle cx="169" cy="490" r="2"/>
  </g>
  <g stroke="chocolate" stroke-width="1">
    <line x1="155" y1="357" x2="169" y2="343"/>
    <circle cx="155" cy="357" r="2"/>
    <circle cx="169" cy="343" r="2"/>
  </g>
  <g stroke="chocolate" stroke-width="1">
    <line x1="5" y1="505" x2="155" y2="505"/>
    <circle cx="5" cy="505" r="2"/>
    <circle cx="155" cy="505" r="2"/>
  </g>
  <g stroke="chocolate" stroke-width="1">
    <line x1="5" y1="505" x2="5" y2="490"/>
    <circle cx="5" cy="505" r="2"/>
    <circle cx="5" cy="490" r="2"/>
  </g>
  <g stroke="chocolate" stroke-width="1">
    <line x1="155" y1="505" x2="155" y2="357"/>
    <circle cx="155" cy="505" r="2"/>
    <circle cx="155" cy="357" r="2"/>
  </g>
  <g stroke="chocolate" stroke-width="1">
    <line x1="169" y1="490" x2="169" y2="343"/>
    <circle cx="169" cy="490" r="2"/>
    <circle cx="169" cy="343" r="2"/>
  </g>
  <g stroke="chocolate" stroke-width="1">
    <line x1="357" y1="357" x2="357" y2="343"/>
    <circle cx="357" cy="357" r="2"/>
    <circle cx="357" cy="343" r="2"/>
  </g>
  <g stroke="chocolate" stroke-width="1">
    <line x1="5" y1="490" x2="169" y2="490"/>
    <circle cx="5" cy="490" r="2"/>
    <circle cx="169" cy="490" r="2"/>
  </g>
  <g stroke="chocolate" stroke-width="1">
    <line x1="155" y1="357" x2="357" y2="357"/>
    <circle cx="155" cy="357" r="2"/>
    <circle cx="357" cy="357" r="2"/>
  </g>
  <g stroke="chocolate" stroke-width="1">
    <line x1="169" y1="343" x2="357" y2="343"/>
    <circle cx="169" cy="343" r="2"/>
    <circle cx="357" cy="343" r="2"/>
  </g>
  <g stroke="black" stroke-width="1">
    <line x1="5" y1="5" x2="505" y2="5"/>
    <line x1="5" y1="5" x2="5" y2="505"/>
    <line x1="505" y1="505" x2="5" y2="505"/>
    <line x1="505" y1="505" x2="505" y2="5"/>
    <line x1="105" y1="2" x2="105" y2="8"/>
    <line x1="2" y1="105" x2="8" y2="105"/>
    <line x1="105" y1="502" x2="105" y2="508"/>
    <line x1="502" y1="105" x2="508" y2="105"/>
    <line x1="205" y1="2" x2="205" y2="8"/>
    <line x1="2" y1="205" x2="8" y2="205"/>
    <line x1="205" y1="502" x2="205" y2="508"/>
    <line x1="502" y1="205" x2="508" y2="205"/>
    <line x1="305" y1="2" x2="305" y2="8"/>
    <line x1="2" y1="305" x2="8" y2="305"/>
    <line x1="305" y1="502" x2="305" y2="508"/>
    <line x1="502" y1="305" x2="508" y2="305"/>
    <line x1="405" y1="2" x2="405" y2="8"/>
    <line x1="2" y1="405" x2="8" y2="405"/>
    <line x1="405" y1="502" x2="405" y2="508"/>
    <line x1="502" y1="405" x2="508" y2="405"/>
  </g>
  <g stroke="gray" stroke-width="1" stroke-dasharray="5,5">
    <line x1="105" y1="5" x2="105" y2="505"/>
    <line x1="5" y1="105" x2="505" y2="105"/>
    <line x1="205" y1="5" x2="205" y2="505"/>
    <line x1="5" y1="205" x2="505" y2="205"/>
    <line x1="305" y1="5" x2="305" y2="505"/>
    <line x1="5" y1="305" x2="505" y2="305"/>
    <line x1="405" y1="5" x2="405" y2="505"/>
    <line x1="5" y1="405" x2="505" y2="405"/>
  </g>
</svg>
