<?xml version="1.0" standalone="no"?>
<!DOCTYPE svg PUBLIC "-//W3C//DTD SVG 1.1//EN" 
  "http://www.w3.org/Graphics/SVG/1.1/DTD/svg11.dtd">
<svg width="510" height="510" version="1.1" id="toplevel"
    xmlns="http://www.w3.org/2000/svg"
    xmlns:xlink="http://www.w3.org/1999/xlink">
  <polygon points="298,485 338,482 391,32 359,25 352,32 224,31 121,184 160,239 119,283"
           fill="bisque"/>
  <g stroke="chocolate" stroke-width="1">
    <line x1="338" y1="482" x2="391" y2="32"/>
    <circle cx="338" cy="482" r="2"/>
    <circle cx="391" cy="32" r="2"/>
  </g>
  <g stroke="chocolate" stroke-width="1">
    <line x1="219" y1="207" x2="259" y2="31"/>
    <circle cx="219" cy="207" r="2"/>
    <circle cx="259" cy="31" r="2"/>
  </g>
  <g stroke="chocolate" stroke-width="1">
    <line x1="298" y1="485" x2="314" y2="460"/>
    <circle cx="298" cy="485" r="2"/>
    <circle cx="314" cy="460" r="2"/>
  </g>
  <g stroke="chocolate" stroke-width="1">
    <line x1="293" y1="138" x2="292" y2="48"/>
    <circle cx="293" cy="138" r="2"/>
    <circle cx="292" cy="48" r="2"/>
  </g>
  <g stroke="chocolate" stroke-width="1">
    <line x1="348" y1="163" x2="382" y2="103"/>
    <circle cx="348" cy="163" r="2"/>
    <circle cx="382" cy="103" r="2"/>
  </g>
  <g stroke="chocolate" stroke-width="1">
    <line x1="235" y1="48" x2="243" y2="31"/>
    <circle cx="235" cy="48" r="2"/>
    <circle cx="243" cy="31" r="2"/>
  </g>
  <g stroke="chocolate" stroke-width="1">
    <line x1="278" y1="403" x2="360" y2="297"/>
    <circle cx="278" cy="403" r="2"/>
    <circle cx="360" cy="297" r="2"/>
  </g>
  <g stroke="chocolate" stroke-width="1">
    <line x1="275" y1="110" x2="259" y2="31"/>
    <circle cx="275" cy="110" r="2"/>
    <circle cx="259" cy="31" r="2"/>
  </g>
  <g stroke="chocolate" stroke-width="1">
    <line x1="121" y1="184" x2="224" y2="31"/>
    <circle cx="121" cy="184" r="2"/>
    <circle cx="224" cy="31" r="2"/>
  </g>
  <g stroke="chocolate" stroke-width="1">
    <line x1="382" y1="103" x2="359" y2="25"/>
    <circle cx="382" cy="103" r="2"/>
    <circle cx="359" cy="25" r="2"/>
  </g>
  <g stroke="chocolate" stroke-width="1">
    <line x1="119" y1="283" x2="359" y2="25"/>
    <circle cx="119" cy="283" r="2"/>
    <circle cx="359" cy="25" r="2"/>
  </g>
  <g stroke="chocolate" stroke-width="1">
    <line x1="360" y1="297" x2="243" y2="31"/>
    <circle cx="360" cy="297" r="2"/>
    <circle cx="243" cy="31" r="2"/>
  </g>
  <g stroke="chocolate" stroke-width="1">
    <line x1="328" y1="479" x2="121" y2="184"/>
    <circle cx="328" cy="479" r="2"/>
    <circle cx="121" cy="184" r="2"/>
  </g>
  <g stroke="chocolate" stroke-width="1">
    <line x1="328" y1="479" x2="338" y2="475"/>
    <circle cx="328" cy="479" r="2"/>
    <circle cx="338" cy="475" r="2"/>
  </g>
  <g stroke="chocolate" stroke-width="1">
    <line x1="293" y1="138" x2="224" y2="31"/>
    <circle cx="293" cy="138" r="2"/>
    <circle cx="224" cy="31" r="2"/>
  </g>
  <g stroke="chocolate" stroke-width="1">
    <line x1="298" y1="485" x2="119" y2="283"/>
    <circle cx="298" cy="485" r="2"/>
    <circle cx="119" cy="283" r="2"/>
  </g>
  <g stroke="chocolate" stroke-width="1">
    <line x1="298" y1="485" x2="338" y2="482"/>
    <circle cx="298" cy="485" r="2"/>
    <circle cx="338" cy="482" r="2"/>
  </g>
  <g stroke="chocolate" stroke-width="1">
    <line x1="278" y1="403" x2="119" y2="283"/>
    <circle cx="278" cy="403" r="2"/>
    <circle cx="119" cy="283" r="2"/>
  </g>
  <g stroke="chocolate" stroke-width="1">
    <line x1="338" y1="475" x2="314" y2="460"/>
    <circle cx="338" cy="475" r="2"/>
    <circle cx="314" cy="460" r="2"/>
  </g>
  <g stroke="chocolate" stroke-width="1">
    <line x1="338" y1="482" x2="328" y2="479"/>
    <circle cx="338" cy="482" r="2"/>
    <circle cx="328" cy="479" r="2"/>
  </g>
  <g stroke="chocolate" stroke-width="1">
    <line x1="348" y1="163" x2="275" y2="110"/>
    <circle cx="348" cy="163" r="2"/>
    <circle cx="275" cy="110" r="2"/>
  </g>
  <g stroke="chocolate" stroke-width="1">
    <line x1="219" y1="207" x2="121" y2="184"/>
    <circle cx="219" cy="207" r="2"/>
    <circle cx="121" cy="184" r="2"/>
  </g>
  <g stroke="chocolate" stroke-width="1">
    <line x1="348" y1="163" x2="293" y2="138"/>
    <circle cx="348" cy="163" r="2"/>
    <circle cx="293" cy="138" r="2"/>
  </g>
  <g stroke="chocolate" stroke-width="1">
    <line x1="235" y1="48" x2="292" y2="48"/>
    <circle cx="235" cy="48" r="2"/>
    <circle cx="292" cy="48" r="2"/>
  </g>
  <g stroke="chocolate" stroke-width="1">
    <line x1="391" y1="32" x2="224" y2="31"/>
    <circle cx="391" cy="32" r="2"/>
    <circle cx="224" cy="31" r="2"/>
  </g>
  <g stroke="chocolate" stroke-width="1">
    <line x1="391" y1="32" x2="359" y2="25"/>
    <circle cx="391" cy="32" r="2"/>
    <circle cx="359" cy="25" r="2"/>
  </g>
  <g stroke="black" stroke-width="1">
    <line x1="5" y1="5" x2="505" y2="5"/>
    <line x1="5" y1="5" x2="5" y2="505"/>
    <line x1="505" y1="505" x2="5" y2="505"/>
    <line x1="505" y1="505" x2="505" y2="5"/>
    <line x1="105" y1="2" x2="105" y2="8"/>
    <line x1="2" y1="105" x2="8" y2="105"/>
    <line x1="105" y1="502" x2="105" y2="508"/>
    <line x1="502" y1="105" x2="508" y2="105"/>
    <line x1="205" y1="2" x2="205" y2="8"/>
    <line x1="2" y1="205" x2="8" y2="205"/>
    <line x1="205" y1="502" x2="205" y2="508"/>
    <line x1="502" y1="205" x2="508" y2="205"/>
    <line x1="305" y1="2" x2="305" y2="8"/>
    <line x1="2" y1="305" x2="8" y2="305"/>
    <line x1="305" y1="502" x2="305" y2="508"/>
    <line x1="502" y1="305" x2="508" y2="305"/>
    <line x1="405" y1="2" x2="405" y2="8"/>
    <line x1="2" y1="405" x2="8" y2="405"/>
    <line x1="405" y1="502" x2="405" y2="508"/>
    <line x1="502" y1="405" x2="508" y2="405"/>
  </g>
  <g stroke="gray" stroke-width="1" stroke-dasharray="5,5">
    <line x1="105" y1="5" x2="105" y2="505"/>
    <line x1="5" y1="105" x2="505" y2="105"/>
    <line x1="205" y1="5" x2="205" y2="505"/>
    <line x1="5" y1="205" x2="505" y2="205"/>
    <line x1="305" y1="5" x2="305" y2="505"/>
    <line x1="5" y1="305" x2="505" y2="305"/>
    <line x1="405" y1="5" x2="405" y2="505"/>
    <line x1="5" y1="405" x2="505" y2="405"/>
  </g>
</svg>
