<?xml version="1.0" standalone="no"?>
<!DOCTYPE svg PUBLIC "-//W3C//DTD SVG 1.1//EN" 
  "http://www.w3.org/Graphics/SVG/1.1/DTD/svg11.dtd">
<svg width="510" height="510" version="1.1" id="toplevel"
    xmlns="http://www.w3.org/2000/svg"
    xmlns:xlink="http://www.w3.org/1999/xlink">
  <polygon points="160,452 396,406 346,58 144,71 151,294 114,300 125,369 147,429"
           fill="bisque"/>
  <g stroke="chocolate" stroke-width="1">
    <line x1="188" y1="447" x2="341" y2="160"/>
    <circle cx="188" cy="447" r="2"/>
    <circle cx="341" cy="160" r="2"/>
  </g>
  <g stroke="chocolate" stroke-width="1">
    <line x1="139" y1="406" x2="141" y2="395"/>
    <circle cx="139" cy="406" r="2"/>
    <circle cx="141" cy="395" r="2"/>
  </g>
  <g stroke="chocolate" stroke-width="1">
    <line x1="160" y1="452" x2="209" y2="89"/>
    <circle cx="160" cy="452" r="2"/>
    <circle cx="209" cy="89" r="2"/>
  </g>
  <g stroke="chocolate" stroke-width="1">
    <line x1="151" y1="298" x2="151" y2="71"/>
    <circle cx="151" cy="298" r="2"/>
    <circle cx="151" cy="71" r="2"/>
  </g>
  <g stroke="chocolate" stroke-width="1">
    <line x1="151" y1="298" x2="144" y2="71"/>
    <circle cx="151" cy="298" r="2"/>
    <circle cx="144" cy="71" r="2"/>
  </g>
  <g stroke="chocolate" stroke-width="1">
    <line x1="160" y1="452" x2="396" y2="406"/>
    <circle cx="160" cy="452" r="2"/>
    <circle cx="396" cy="406" r="2"/>
  </g>
  <g stroke="chocolate" stroke-width="1">
    <line x1="161" y1="452" x2="151" y2="298"/>
    <circle cx="161" cy="452" r="2"/>
    <circle cx="151" cy="298" r="2"/>
  </g>
  <g stroke="chocolate" stroke-width="1">
    <line x1="123" y1="339" x2="360" y2="259"/>
    <circle cx="123" cy="339" r="2"/>
    <circle cx="360" cy="259" r="2"/>
  </g>
  <g stroke="chocolate" stroke-width="1">
    <line x1="125" y1="369" x2="114" y2="300"/>
    <circle cx="125" cy="369" r="2"/>
    <circle cx="114" cy="300" r="2"/>
  </g>
  <g stroke="chocolate" stroke-width="1">
    <line x1="147" y1="429" x2="141" y2="395"/>
    <circle cx="147" cy="429" r="2"/>
    <circle cx="141" cy="395" r="2"/>
  </g>
  <g stroke="chocolate" stroke-width="1">
    <line x1="396" y1="406" x2="346" y2="58"/>
    <circle cx="396" cy="406" r="2"/>
    <circle cx="346" cy="58" r="2"/>
  </g>
  <g stroke="chocolate" stroke-width="1">
    <line x1="161" y1="452" x2="123" y2="339"/>
    <circle cx="161" cy="452" r="2"/>
    <circle cx="123" cy="339" r="2"/>
  </g>
  <g stroke="chocolate" stroke-width="1">
    <line x1="147" y1="429" x2="125" y2="369"/>
    <circle cx="147" cy="429" r="2"/>
    <circle cx="125" cy="369" r="2"/>
  </g>
  <g stroke="chocolate" stroke-width="1">
    <line x1="396" y1="406" x2="360" y2="259"/>
    <circle cx="396" cy="406" r="2"/>
    <circle cx="360" cy="259" r="2"/>
  </g>
  <g stroke="chocolate" stroke-width="1">
    <line x1="114" y1="300" x2="360" y2="259"/>
    <circle cx="114" cy="300" r="2"/>
    <circle cx="360" cy="259" r="2"/>
  </g>
  <g stroke="chocolate" stroke-width="1">
    <line x1="160" y1="452" x2="147" y2="429"/>
    <circle cx="160" cy="452" r="2"/>
    <circle cx="147" cy="429" r="2"/>
  </g>
  <g stroke="chocolate" stroke-width="1">
    <line x1="141" y1="395" x2="125" y2="369"/>
    <circle cx="141" cy="395" r="2"/>
    <circle cx="125" cy="369" r="2"/>
  </g>
  <g stroke="chocolate" stroke-width="1">
    <line x1="209" y1="89" x2="346" y2="58"/>
    <circle cx="209" cy="89" r="2"/>
    <circle cx="346" cy="58" r="2"/>
  </g>
  <g stroke="chocolate" stroke-width="1">
    <line x1="188" y1="447" x2="139" y2="406"/>
    <circle cx="188" cy="447" r="2"/>
    <circle cx="139" cy="406" r="2"/>
  </g>
  <g stroke="chocolate" stroke-width="1">
    <line x1="144" y1="71" x2="346" y2="58"/>
    <circle cx="144" cy="71" r="2"/>
    <circle cx="346" cy="58" r="2"/>
  </g>
  <g stroke="chocolate" stroke-width="1">
    <line x1="144" y1="71" x2="151" y2="71"/>
    <circle cx="144" cy="71" r="2"/>
    <circle cx="151" cy="71" r="2"/>
  </g>
  <g stroke="chocolate" stroke-width="1">
    <line x1="341" y1="160" x2="209" y2="89"/>
    <circle cx="341" cy="160" r="2"/>
    <circle cx="209" cy="89" r="2"/>
  </g>
  <g stroke="black" stroke-width="1">
    <line x1="5" y1="5" x2="505" y2="5"/>
    <line x1="5" y1="5" x2="5" y2="505"/>
    <line x1="505" y1="505" x2="5" y2="505"/>
    <line x1="505" y1="505" x2="505" y2="5"/>
    <line x1="105" y1="2" x2="105" y2="8"/>
    <line x1="2" y1="105" x2="8" y2="105"/>
    <line x1="105" y1="502" x2="105" y2="508"/>
    <line x1="502" y1="105" x2="508" y2="105"/>
    <line x1="205" y1="2" x2="205" y2="8"/>
    <line x1="2" y1="205" x2="8" y2="205"/>
    <line x1="205" y1="502" x2="205" y2="508"/>
    <line x1="502" y1="205" x2="508" y2="205"/>
    <line x1="305" y1="2" x2="305" y2="8"/>
    <line x1="2" y1="305" x2="8" y2="305"/>
    <line x1="305" y1="502" x2="305" y2="508"/>
    <line x1="502" y1="305" x2="508" y2="305"/>
    <line x1="405" y1="2" x2="405" y2="8"/>
    <line x1="2" y1="405" x2="8" y2="405"/>
    <line x1="405" y1="502" x2="405" y2="508"/>
    <line x1="502" y1="405" x2="508" y2="405"/>
  </g>
  <g stroke="gray" stroke-width="1" stroke-dasharray="5,5">
    <line x1="105" y1="5" x2="105" y2="505"/>
    <line x1="5" y1="105" x2="505" y2="105"/>
    <line x1="205" y1="5" x2="205" y2="505"/>
    <line x1="5" y1="205" x2="505" y2="205"/>
    <line x1="305" y1="5" x2="305" y2="505"/>
    <line x1="5" y1="305" x2="505" y2="305"/>
    <line x1="405" y1="5" x2="405" y2="505"/>
    <line x1="5" y1="405" x2="505" y2="405"/>
  </g>
</svg>
