<?xml version="1.0" standalone="no"?>
<!DOCTYPE svg PUBLIC "-//W3C//DTD SVG 1.1//EN" 
  "http://www.w3.org/Graphics/SVG/1.1/DTD/svg11.dtd">
<svg width="510" height="510" version="1.1" id="toplevel"
    xmlns="http://www.w3.org/2000/svg"
    xmlns:xlink="http://www.w3.org/1999/xlink">
  <polygon points="392,498 469,426 331,281 218,310 59,12 57,13 57,14 41,26 90,343 315,492"
           fill="bisque"/>
  <g stroke="chocolate" stroke-width="1">
    <line x1="392" y1="498" x2="469" y2="426"/>
    <circle cx="392" cy="498" r="2"/>
    <circle cx="469" cy="426" r="2"/>
  </g>
  <g stroke="chocolate" stroke-width="1">
    <line x1="340" y1="494" x2="365" y2="462"/>
    <circle cx="340" cy="494" r="2"/>
    <circle cx="365" cy="462" r="2"/>
  </g>
  <g stroke="chocolate" stroke-width="1">
    <line x1="283" y1="470" x2="298" y2="459"/>
    <circle cx="283" cy="470" r="2"/>
    <circle cx="298" cy="459" r="2"/>
  </g>
  <g stroke="chocolate" stroke-width="1">
    <line x1="277" y1="466" x2="298" y2="459"/>
    <circle cx="277" cy="466" r="2"/>
    <circle cx="298" cy="459" r="2"/>
  </g>
  <g stroke="chocolate" stroke-width="1">
    <line x1="283" y1="470" x2="331" y2="281"/>
    <circle cx="283" cy="470" r="2"/>
    <circle cx="331" cy="281" r="2"/>
  </g>
  <g stroke="chocolate" stroke-width="1">
    <line x1="365" y1="462" x2="268" y2="461"/>
    <circle cx="365" cy="462" r="2"/>
    <circle cx="268" cy="461" r="2"/>
  </g>
  <g stroke="chocolate" stroke-width="1">
    <line x1="191" y1="410" x2="272" y2="403"/>
    <circle cx="191" cy="410" r="2"/>
    <circle cx="272" cy="403" r="2"/>
  </g>
  <g stroke="chocolate" stroke-width="1">
    <line x1="392" y1="498" x2="315" y2="492"/>
    <circle cx="392" cy="498" r="2"/>
    <circle cx="315" cy="492" r="2"/>
  </g>
  <g stroke="chocolate" stroke-width="1">
    <line x1="90" y1="343" x2="331" y2="281"/>
    <circle cx="90" cy="343" r="2"/>
    <circle cx="331" cy="281" r="2"/>
  </g>
  <g stroke="chocolate" stroke-width="1">
    <line x1="56" y1="121" x2="65" y2="34"/>
    <circle cx="56" cy="121" r="2"/>
    <circle cx="65" cy="34" r="2"/>
  </g>
  <g stroke="chocolate" stroke-width="1">
    <line x1="176" y1="400" x2="235" y2="400"/>
    <circle cx="176" cy="400" r="2"/>
    <circle cx="235" cy="400" r="2"/>
  </g>
  <g stroke="chocolate" stroke-width="1">
    <line x1="235" y1="400" x2="235" y2="306"/>
    <circle cx="235" cy="400" r="2"/>
    <circle cx="235" cy="306" r="2"/>
  </g>
  <g stroke="chocolate" stroke-width="1">
    <line x1="277" y1="466" x2="272" y2="403"/>
    <circle cx="277" cy="466" r="2"/>
    <circle cx="272" cy="403" r="2"/>
  </g>
  <g stroke="chocolate" stroke-width="1">
    <line x1="90" y1="343" x2="41" y2="26"/>
    <circle cx="90" cy="343" r="2"/>
    <circle cx="41" cy="26" r="2"/>
  </g>
  <g stroke="chocolate" stroke-width="1">
    <line x1="41" y1="26" x2="59" y2="12"/>
    <circle cx="41" cy="26" r="2"/>
    <circle cx="59" cy="12" r="2"/>
  </g>
  <g stroke="chocolate" stroke-width="1">
    <line x1="191" y1="410" x2="57" y2="13"/>
    <circle cx="191" cy="410" r="2"/>
    <circle cx="57" cy="13" r="2"/>
  </g>
  <g stroke="chocolate" stroke-width="1">
    <line x1="176" y1="400" x2="56" y2="121"/>
    <circle cx="176" cy="400" r="2"/>
    <circle cx="56" cy="121" r="2"/>
  </g>
  <g stroke="chocolate" stroke-width="1">
    <line x1="268" y1="461" x2="108" y2="103"/>
    <circle cx="268" cy="461" r="2"/>
    <circle cx="108" cy="103" r="2"/>
  </g>
  <g stroke="chocolate" stroke-width="1">
    <line x1="315" y1="492" x2="90" y2="343"/>
    <circle cx="315" cy="492" r="2"/>
    <circle cx="90" cy="343" r="2"/>
  </g>
  <g stroke="chocolate" stroke-width="1">
    <line x1="315" y1="492" x2="59" y2="12"/>
    <circle cx="315" cy="492" r="2"/>
    <circle cx="59" cy="12" r="2"/>
  </g>
  <g stroke="chocolate" stroke-width="1">
    <line x1="340" y1="494" x2="235" y2="306"/>
    <circle cx="340" cy="494" r="2"/>
    <circle cx="235" cy="306" r="2"/>
  </g>
  <g stroke="chocolate" stroke-width="1">
    <line x1="57" y1="13" x2="59" y2="12"/>
    <circle cx="57" cy="13" r="2"/>
    <circle cx="59" cy="12" r="2"/>
  </g>
  <g stroke="chocolate" stroke-width="1">
    <line x1="108" y1="103" x2="65" y2="34"/>
    <circle cx="108" cy="103" r="2"/>
    <circle cx="65" cy="34" r="2"/>
  </g>
  <g stroke="chocolate" stroke-width="1">
    <line x1="392" y1="498" x2="365" y2="462"/>
    <circle cx="392" cy="498" r="2"/>
    <circle cx="365" cy="462" r="2"/>
  </g>
  <g stroke="chocolate" stroke-width="1">
    <line x1="469" y1="426" x2="331" y2="281"/>
    <circle cx="469" cy="426" r="2"/>
    <circle cx="331" cy="281" r="2"/>
  </g>
  <g stroke="chocolate" stroke-width="1">
    <line x1="65" y1="34" x2="41" y2="26"/>
    <circle cx="65" cy="34" r="2"/>
    <circle cx="41" cy="26" r="2"/>
  </g>
  <g stroke="black" stroke-width="1">
    <line x1="5" y1="5" x2="505" y2="5"/>
    <line x1="5" y1="5" x2="5" y2="505"/>
    <line x1="505" y1="505" x2="5" y2="505"/>
    <line x1="505" y1="505" x2="505" y2="5"/>
    <line x1="105" y1="2" x2="105" y2="8"/>
    <line x1="2" y1="105" x2="8" y2="105"/>
    <line x1="105" y1="502" x2="105" y2="508"/>
    <line x1="502" y1="105" x2="508" y2="105"/>
    <line x1="205" y1="2" x2="205" y2="8"/>
    <line x1="2" y1="205" x2="8" y2="205"/>
    <line x1="205" y1="502" x2="205" y2="508"/>
    <line x1="502" y1="205" x2="508" y2="205"/>
    <line x1="305" y1="2" x2="305" y2="8"/>
    <line x1="2" y1="305" x2="8" y2="305"/>
    <line x1="305" y1="502" x2="305" y2="508"/>
    <line x1="502" y1="305" x2="508" y2="305"/>
    <line x1="405" y1="2" x2="405" y2="8"/>
    <line x1="2" y1="405" x2="8" y2="405"/>
    <line x1="405" y1="502" x2="405" y2="508"/>
    <line x1="502" y1="405" x2="508" y2="405"/>
  </g>
  <g stroke="gray" stroke-width="1" stroke-dasharray="5,5">
    <line x1="105" y1="5" x2="105" y2="505"/>
    <line x1="5" y1="105" x2="505" y2="105"/>
    <line x1="205" y1="5" x2="205" y2="505"/>
    <line x1="5" y1="205" x2="505" y2="205"/>
    <line x1="305" y1="5" x2="305" y2="505"/>
    <line x1="5" y1="305" x2="505" y2="305"/>
    <line x1="405" y1="5" x2="405" y2="505"/>
    <line x1="5" y1="405" x2="505" y2="405"/>
  </g>
</svg>
