<?xml version="1.0" standalone="no"?>
<!DOCTYPE svg PUBLIC "-//W3C//DTD SVG 1.1//EN" 
  "http://www.w3.org/Graphics/SVG/1.1/DTD/svg11.dtd">
<svg width="646" height="646" version="1.1" id="toplevel"
    xmlns="http://www.w3.org/2000/svg"
    xmlns:xlink="http://www.w3.org/1999/xlink">
  <polygon points="562,496 641,452 635,437 536,405 461,150 91,258 8,231 5,232 29,276"
           fill="bisque"/>
  <g stroke="chocolate" stroke-width="1">
    <line x1="368" y1="416" x2="373" y2="351"/>
    <circle cx="368" cy="416" r="2"/>
    <circle cx="373" cy="351" r="2"/>
  </g>
  <g stroke="chocolate" stroke-width="1">
    <line x1="275" y1="378" x2="274" y2="352"/>
    <circle cx="275" cy="378" r="2"/>
    <circle cx="274" cy="352" r="2"/>
  </g>
  <g stroke="chocolate" stroke-width="1">
    <line x1="512" y1="475" x2="507" y2="434"/>
    <circle cx="512" cy="475" r="2"/>
    <circle cx="507" cy="434" r="2"/>
  </g>
  <g stroke="chocolate" stroke-width="1">
    <line x1="371" y1="355" x2="373" y2="351"/>
    <circle cx="371" cy="355" r="2"/>
    <circle cx="373" cy="351" r="2"/>
  </g>
  <g stroke="chocolate" stroke-width="1">
    <line x1="31" y1="266" x2="28" y2="259"/>
    <circle cx="31" cy="266" r="2"/>
    <circle cx="28" cy="259" r="2"/>
  </g>
  <g stroke="chocolate" stroke-width="1">
    <line x1="20" y1="257" x2="8" y2="231"/>
    <circle cx="20" cy="257" r="2"/>
    <circle cx="8" cy="231" r="2"/>
  </g>
  <g stroke="chocolate" stroke-width="1">
    <line x1="368" y1="416" x2="446" y2="322"/>
    <circle cx="368" cy="416" r="2"/>
    <circle cx="446" cy="322" r="2"/>
  </g>
  <g stroke="chocolate" stroke-width="1">
    <line x1="512" y1="475" x2="581" y2="419"/>
    <circle cx="512" cy="475" r="2"/>
    <circle cx="581" cy="419" r="2"/>
  </g>
  <g stroke="chocolate" stroke-width="1">
    <line x1="29" y1="276" x2="5" y2="232"/>
    <circle cx="29" cy="276" r="2"/>
    <circle cx="5" cy="232" r="2"/>
  </g>
  <g stroke="chocolate" stroke-width="1">
    <line x1="593" y1="465" x2="581" y2="419"/>
    <circle cx="593" cy="465" r="2"/>
    <circle cx="581" cy="419" r="2"/>
  </g>
  <g stroke="chocolate" stroke-width="1">
    <line x1="562" y1="496" x2="461" y2="150"/>
    <circle cx="562" cy="496" r="2"/>
    <circle cx="461" cy="150" r="2"/>
  </g>
  <g stroke="chocolate" stroke-width="1">
    <line x1="580" y1="471" x2="635" y2="437"/>
    <circle cx="580" cy="471" r="2"/>
    <circle cx="635" cy="437" r="2"/>
  </g>
  <g stroke="chocolate" stroke-width="1">
    <line x1="562" y1="496" x2="641" y2="452"/>
    <circle cx="562" cy="496" r="2"/>
    <circle cx="641" cy="452" r="2"/>
  </g>
  <g stroke="chocolate" stroke-width="1">
    <line x1="641" y1="452" x2="635" y2="437"/>
    <circle cx="641" cy="452" r="2"/>
    <circle cx="635" cy="437" r="2"/>
  </g>
  <g stroke="chocolate" stroke-width="1">
    <line x1="275" y1="378" x2="330" y2="328"/>
    <circle cx="275" cy="378" r="2"/>
    <circle cx="330" cy="328" r="2"/>
  </g>
  <g stroke="chocolate" stroke-width="1">
    <line x1="535" y1="485" x2="446" y2="322"/>
    <circle cx="535" cy="485" r="2"/>
    <circle cx="446" cy="322" r="2"/>
  </g>
  <g stroke="chocolate" stroke-width="1">
    <line x1="330" y1="328" x2="352" y2="313"/>
    <circle cx="330" cy="328" r="2"/>
    <circle cx="352" cy="313" r="2"/>
  </g>
  <g stroke="chocolate" stroke-width="1">
    <line x1="535" y1="485" x2="580" y2="471"/>
    <circle cx="535" cy="485" r="2"/>
    <circle cx="580" cy="471" r="2"/>
  </g>
  <g stroke="chocolate" stroke-width="1">
    <line x1="63" y1="290" x2="28" y2="259"/>
    <circle cx="63" cy="290" r="2"/>
    <circle cx="28" cy="259" r="2"/>
  </g>
  <g stroke="chocolate" stroke-width="1">
    <line x1="55" y1="287" x2="20" y2="257"/>
    <circle cx="55" cy="287" r="2"/>
    <circle cx="20" cy="257" r="2"/>
  </g>
  <g stroke="chocolate" stroke-width="1">
    <line x1="593" y1="465" x2="641" y2="452"/>
    <circle cx="593" cy="465" r="2"/>
    <circle cx="641" cy="452" r="2"/>
  </g>
  <g stroke="chocolate" stroke-width="1">
    <line x1="330" y1="328" x2="358" y2="313"/>
    <circle cx="330" cy="328" r="2"/>
    <circle cx="358" cy="313" r="2"/>
  </g>
  <g stroke="chocolate" stroke-width="1">
    <line x1="506" y1="473" x2="352" y2="313"/>
    <circle cx="506" cy="473" r="2"/>
    <circle cx="352" cy="313" r="2"/>
  </g>
  <g stroke="chocolate" stroke-width="1">
    <line x1="371" y1="355" x2="361" y2="347"/>
    <circle cx="371" cy="355" r="2"/>
    <circle cx="361" cy="347" r="2"/>
  </g>
  <g stroke="chocolate" stroke-width="1">
    <line x1="507" y1="434" x2="358" y2="313"/>
    <circle cx="507" cy="434" r="2"/>
    <circle cx="358" cy="313" r="2"/>
  </g>
  <g stroke="chocolate" stroke-width="1">
    <line x1="506" y1="473" x2="580" y2="471"/>
    <circle cx="506" cy="473" r="2"/>
    <circle cx="580" cy="471" r="2"/>
  </g>
  <g stroke="chocolate" stroke-width="1">
    <line x1="562" y1="496" x2="29" y2="276"/>
    <circle cx="562" cy="496" r="2"/>
    <circle cx="29" cy="276" r="2"/>
  </g>
  <g stroke="chocolate" stroke-width="1">
    <line x1="5" y1="232" x2="8" y2="231"/>
    <circle cx="5" cy="232" r="2"/>
    <circle cx="8" cy="231" r="2"/>
  </g>
  <g stroke="chocolate" stroke-width="1">
    <line x1="371" y1="355" x2="323" y2="335"/>
    <circle cx="371" cy="355" r="2"/>
    <circle cx="323" cy="335" r="2"/>
  </g>
  <g stroke="chocolate" stroke-width="1">
    <line x1="274" y1="352" x2="361" y2="347"/>
    <circle cx="274" cy="352" r="2"/>
    <circle cx="361" cy="347" r="2"/>
  </g>
  <g stroke="chocolate" stroke-width="1">
    <line x1="635" y1="437" x2="8" y2="231"/>
    <circle cx="635" cy="437" r="2"/>
    <circle cx="8" cy="231" r="2"/>
  </g>
  <g stroke="chocolate" stroke-width="1">
    <line x1="28" y1="259" x2="20" y2="257"/>
    <circle cx="28" cy="259" r="2"/>
    <circle cx="20" cy="257" r="2"/>
  </g>
  <g stroke="chocolate" stroke-width="1">
    <line x1="323" y1="335" x2="31" y2="266"/>
    <circle cx="323" cy="335" r="2"/>
    <circle cx="31" cy="266" r="2"/>
  </g>
  <g stroke="chocolate" stroke-width="1">
    <line x1="29" y1="276" x2="461" y2="150"/>
    <circle cx="29" cy="276" r="2"/>
    <circle cx="461" cy="150" r="2"/>
  </g>
  <g stroke="chocolate" stroke-width="1">
    <line x1="218" y1="300" x2="63" y2="290"/>
    <circle cx="218" cy="300" r="2"/>
    <circle cx="63" cy="290" r="2"/>
  </g>
  <g stroke="chocolate" stroke-width="1">
    <line x1="446" y1="322" x2="218" y2="300"/>
    <circle cx="446" cy="322" r="2"/>
    <circle cx="218" cy="300" r="2"/>
  </g>
  <g stroke="chocolate" stroke-width="1">
    <line x1="218" y1="300" x2="55" y2="287"/>
    <circle cx="218" cy="300" r="2"/>
    <circle cx="55" cy="287" r="2"/>
  </g>
  <g stroke="black" stroke-width="1">
    <line x1="73" y1="73" x2="573" y2="73"/>
    <line x1="73" y1="73" x2="73" y2="573"/>
    <line x1="573" y1="573" x2="73" y2="573"/>
    <line x1="573" y1="573" x2="573" y2="73"/>
    <line x1="173" y1="70" x2="173" y2="76"/>
    <line x1="70" y1="173" x2="76" y2="173"/>
    <line x1="173" y1="570" x2="173" y2="576"/>
    <line x1="570" y1="173" x2="576" y2="173"/>
    <line x1="273" y1="70" x2="273" y2="76"/>
    <line x1="70" y1="273" x2="76" y2="273"/>
    <line x1="273" y1="570" x2="273" y2="576"/>
    <line x1="570" y1="273" x2="576" y2="273"/>
    <line x1="373" y1="70" x2="373" y2="76"/>
    <line x1="70" y1="373" x2="76" y2="373"/>
    <line x1="373" y1="570" x2="373" y2="576"/>
    <line x1="570" y1="373" x2="576" y2="373"/>
    <line x1="473" y1="70" x2="473" y2="76"/>
    <line x1="70" y1="473" x2="76" y2="473"/>
    <line x1="473" y1="570" x2="473" y2="576"/>
    <line x1="570" y1="473" x2="576" y2="473"/>
  </g>
  <g stroke="gray" stroke-width="1" stroke-dasharray="5,5">
    <line x1="173" y1="73" x2="173" y2="573"/>
    <line x1="73" y1="173" x2="573" y2="173"/>
    <line x1="273" y1="73" x2="273" y2="573"/>
    <line x1="73" y1="273" x2="573" y2="273"/>
    <line x1="373" y1="73" x2="373" y2="573"/>
    <line x1="73" y1="373" x2="573" y2="373"/>
    <line x1="473" y1="73" x2="473" y2="573"/>
    <line x1="73" y1="473" x2="573" y2="473"/>
  </g>
</svg>
