<?xml version="1.0" standalone="no"?>
<!DOCTYPE svg PUBLIC "-//W3C//DTD SVG 1.1//EN" 
  "http://www.w3.org/Graphics/SVG/1.1/DTD/svg11.dtd">
<svg width="510" height="510" version="1.1" id="toplevel"
    xmlns="http://www.w3.org/2000/svg"
    xmlns:xlink="http://www.w3.org/1999/xlink">
  <polygon points="195,460 206,457 206,456 222,449 330,446 386,280 387,263 318,53 304,50 139,111 139,114 142,113 149,117 123,268"
           fill="bisque"/>
  <g stroke="chocolate" stroke-width="1">
    <line x1="206" y1="457" x2="193" y2="457"/>
    <circle cx="206" cy="457" r="2"/>
    <circle cx="193" cy="457" r="2"/>
  </g>
  <g stroke="chocolate" stroke-width="1">
    <line x1="203" y1="439" x2="183" y2="430"/>
    <circle cx="203" cy="439" r="2"/>
    <circle cx="183" cy="430" r="2"/>
  </g>
  <g stroke="chocolate" stroke-width="1">
    <line x1="190" y1="449" x2="330" y2="446"/>
    <circle cx="190" cy="449" r="2"/>
    <circle cx="330" cy="446" r="2"/>
  </g>
  <g stroke="chocolate" stroke-width="1">
    <line x1="183" y1="425" x2="181" y2="425"/>
    <circle cx="183" cy="425" r="2"/>
    <circle cx="181" cy="425" r="2"/>
  </g>
  <g stroke="chocolate" stroke-width="1">
    <line x1="206" y1="446" x2="176" y2="412"/>
    <circle cx="206" cy="446" r="2"/>
    <circle cx="176" cy="412" r="2"/>
  </g>
  <g stroke="chocolate" stroke-width="1">
    <line x1="195" y1="460" x2="206" y2="457"/>
    <circle cx="195" cy="460" r="2"/>
    <circle cx="206" cy="457" r="2"/>
  </g>
  <g stroke="chocolate" stroke-width="1">
    <line x1="208" y1="409" x2="166" y2="383"/>
    <circle cx="208" cy="409" r="2"/>
    <circle cx="166" cy="383" r="2"/>
  </g>
  <g stroke="chocolate" stroke-width="1">
    <line x1="297" y1="419" x2="341" y2="414"/>
    <circle cx="297" cy="419" r="2"/>
    <circle cx="341" cy="414" r="2"/>
  </g>
  <g stroke="chocolate" stroke-width="1">
    <line x1="195" y1="460" x2="348" y2="393"/>
    <circle cx="195" cy="460" r="2"/>
    <circle cx="348" cy="393" r="2"/>
  </g>
  <g stroke="chocolate" stroke-width="1">
    <line x1="181" y1="425" x2="183" y2="425"/>
    <circle cx="181" cy="425" r="2"/>
    <circle cx="183" cy="425" r="2"/>
  </g>
  <g stroke="chocolate" stroke-width="1">
    <line x1="195" y1="460" x2="123" y2="268"/>
    <circle cx="195" cy="460" r="2"/>
    <circle cx="123" cy="268" r="2"/>
  </g>
  <g stroke="chocolate" stroke-width="1">
    <line x1="330" y1="446" x2="386" y2="280"/>
    <circle cx="330" cy="446" r="2"/>
    <circle cx="386" cy="280" r="2"/>
  </g>
  <g stroke="chocolate" stroke-width="1">
    <line x1="384" y1="270" x2="387" y2="263"/>
    <circle cx="384" cy="270" r="2"/>
    <circle cx="387" cy="263" r="2"/>
  </g>
  <g stroke="chocolate" stroke-width="1">
    <line x1="187" y1="335" x2="183" y2="329"/>
    <circle cx="187" cy="335" r="2"/>
    <circle cx="183" cy="329" r="2"/>
  </g>
  <g stroke="chocolate" stroke-width="1">
    <line x1="186" y1="322" x2="182" y2="317"/>
    <circle cx="186" cy="322" r="2"/>
    <circle cx="182" cy="317" r="2"/>
  </g>
  <g stroke="chocolate" stroke-width="1">
    <line x1="187" y1="330" x2="182" y2="317"/>
    <circle cx="187" cy="330" r="2"/>
    <circle cx="182" cy="317" r="2"/>
  </g>
  <g stroke="chocolate" stroke-width="1">
    <line x1="330" y1="446" x2="297" y2="419"/>
    <circle cx="330" cy="446" r="2"/>
    <circle cx="297" cy="419" r="2"/>
  </g>
  <g stroke="chocolate" stroke-width="1">
    <line x1="329" y1="358" x2="367" y2="336"/>
    <circle cx="329" cy="358" r="2"/>
    <circle cx="367" cy="336" r="2"/>
  </g>
  <g stroke="chocolate" stroke-width="1">
    <line x1="206" y1="457" x2="186" y2="322"/>
    <circle cx="206" cy="457" r="2"/>
    <circle cx="186" cy="322" r="2"/>
  </g>
  <g stroke="chocolate" stroke-width="1">
    <line x1="193" y1="457" x2="206" y2="446"/>
    <circle cx="193" cy="457" r="2"/>
    <circle cx="206" cy="446" r="2"/>
  </g>
  <g stroke="chocolate" stroke-width="1">
    <line x1="386" y1="280" x2="387" y2="263"/>
    <circle cx="386" cy="280" r="2"/>
    <circle cx="387" cy="263" r="2"/>
  </g>
  <g stroke="chocolate" stroke-width="1">
    <line x1="182" y1="317" x2="123" y2="268"/>
    <circle cx="182" cy="317" r="2"/>
    <circle cx="123" cy="268" r="2"/>
  </g>
  <g stroke="chocolate" stroke-width="1">
    <line x1="190" y1="449" x2="203" y2="439"/>
    <circle cx="190" cy="449" r="2"/>
    <circle cx="203" cy="439" r="2"/>
  </g>
  <g stroke="chocolate" stroke-width="1">
    <line x1="196" y1="147" x2="193" y2="118"/>
    <circle cx="196" cy="147" r="2"/>
    <circle cx="193" cy="118" r="2"/>
  </g>
  <g stroke="chocolate" stroke-width="1">
    <line x1="199" y1="146" x2="193" y2="118"/>
    <circle cx="199" cy="146" r="2"/>
    <circle cx="193" cy="118" r="2"/>
  </g>
  <g stroke="chocolate" stroke-width="1">
    <line x1="176" y1="412" x2="177" y2="349"/>
    <circle cx="176" cy="412" r="2"/>
    <circle cx="177" cy="349" r="2"/>
  </g>
  <g stroke="chocolate" stroke-width="1">
    <line x1="260" y1="358" x2="312" y2="60"/>
    <circle cx="260" cy="358" r="2"/>
    <circle cx="312" cy="60" r="2"/>
  </g>
  <g stroke="chocolate" stroke-width="1">
    <line x1="297" y1="419" x2="288" y2="340"/>
    <circle cx="297" cy="419" r="2"/>
    <circle cx="288" cy="340" r="2"/>
  </g>
  <g stroke="chocolate" stroke-width="1">
    <line x1="181" y1="425" x2="208" y2="409"/>
    <circle cx="181" cy="425" r="2"/>
    <circle cx="208" cy="409" r="2"/>
  </g>
  <g stroke="chocolate" stroke-width="1">
    <line x1="183" y1="425" x2="187" y2="330"/>
    <circle cx="183" cy="425" r="2"/>
    <circle cx="187" cy="330" r="2"/>
  </g>
  <g stroke="chocolate" stroke-width="1">
    <line x1="206" y1="446" x2="208" y2="409"/>
    <circle cx="206" cy="446" r="2"/>
    <circle cx="208" cy="409" r="2"/>
  </g>
  <g stroke="chocolate" stroke-width="1">
    <line x1="288" y1="340" x2="387" y2="272"/>
    <circle cx="288" cy="340" r="2"/>
    <circle cx="387" cy="272" r="2"/>
  </g>
  <g stroke="chocolate" stroke-width="1">
    <line x1="354" y1="375" x2="260" y2="358"/>
    <circle cx="354" cy="375" r="2"/>
    <circle cx="260" cy="358" r="2"/>
  </g>
  <g stroke="chocolate" stroke-width="1">
    <line x1="341" y1="414" x2="192" y2="272"/>
    <circle cx="341" cy="414" r="2"/>
    <circle cx="192" cy="272" r="2"/>
  </g>
  <g stroke="chocolate" stroke-width="1">
    <line x1="262" y1="107" x2="250" y2="70"/>
    <circle cx="262" cy="107" r="2"/>
    <circle cx="250" cy="70" r="2"/>
  </g>
  <g stroke="chocolate" stroke-width="1">
    <line x1="183" y1="430" x2="197" y2="402"/>
    <circle cx="183" cy="430" r="2"/>
    <circle cx="197" cy="402" r="2"/>
  </g>
  <g stroke="chocolate" stroke-width="1">
    <line x1="181" y1="425" x2="197" y2="402"/>
    <circle cx="181" cy="425" r="2"/>
    <circle cx="197" cy="402" r="2"/>
  </g>
  <g stroke="chocolate" stroke-width="1">
    <line x1="386" y1="280" x2="384" y2="270"/>
    <circle cx="386" cy="280" r="2"/>
    <circle cx="384" cy="270" r="2"/>
  </g>
  <g stroke="chocolate" stroke-width="1">
    <line x1="123" y1="268" x2="151" y2="107"/>
    <circle cx="123" cy="268" r="2"/>
    <circle cx="151" cy="107" r="2"/>
  </g>
  <g stroke="chocolate" stroke-width="1">
    <line x1="166" y1="383" x2="186" y2="322"/>
    <circle cx="166" cy="383" r="2"/>
    <circle cx="186" cy="322" r="2"/>
  </g>
  <g stroke="chocolate" stroke-width="1">
    <line x1="348" y1="393" x2="329" y2="358"/>
    <circle cx="348" cy="393" r="2"/>
    <circle cx="329" cy="358" r="2"/>
  </g>
  <g stroke="chocolate" stroke-width="1">
    <line x1="354" y1="375" x2="288" y2="340"/>
    <circle cx="354" cy="375" r="2"/>
    <circle cx="288" cy="340" r="2"/>
  </g>
  <g stroke="chocolate" stroke-width="1">
    <line x1="187" y1="328" x2="143" y2="324"/>
    <circle cx="187" cy="328" r="2"/>
    <circle cx="143" cy="324" r="2"/>
  </g>
  <g stroke="chocolate" stroke-width="1">
    <line x1="367" y1="336" x2="250" y2="70"/>
    <circle cx="367" cy="336" r="2"/>
    <circle cx="250" cy="70" r="2"/>
  </g>
  <g stroke="chocolate" stroke-width="1">
    <line x1="387" y1="263" x2="318" y2="53"/>
    <circle cx="387" cy="263" r="2"/>
    <circle cx="318" cy="53" r="2"/>
  </g>
  <g stroke="chocolate" stroke-width="1">
    <line x1="177" y1="349" x2="187" y2="335"/>
    <circle cx="177" cy="349" r="2"/>
    <circle cx="187" cy="335" r="2"/>
  </g>
  <g stroke="chocolate" stroke-width="1">
    <line x1="139" y1="114" x2="139" y2="111"/>
    <circle cx="139" cy="114" r="2"/>
    <circle cx="139" cy="111" r="2"/>
  </g>
  <g stroke="chocolate" stroke-width="1">
    <line x1="183" y1="329" x2="187" y2="328"/>
    <circle cx="183" cy="329" r="2"/>
    <circle cx="187" cy="328" r="2"/>
  </g>
  <g stroke="chocolate" stroke-width="1">
    <line x1="143" y1="324" x2="192" y2="272"/>
    <circle cx="143" cy="324" r="2"/>
    <circle cx="192" cy="272" r="2"/>
  </g>
  <g stroke="chocolate" stroke-width="1">
    <line x1="262" y1="107" x2="304" y2="50"/>
    <circle cx="262" cy="107" r="2"/>
    <circle cx="304" cy="50" r="2"/>
  </g>
  <g stroke="chocolate" stroke-width="1">
    <line x1="199" y1="146" x2="151" y2="107"/>
    <circle cx="199" cy="146" r="2"/>
    <circle cx="151" cy="107" r="2"/>
  </g>
  <g stroke="chocolate" stroke-width="1">
    <line x1="312" y1="60" x2="318" y2="53"/>
    <circle cx="312" cy="60" r="2"/>
    <circle cx="318" cy="53" r="2"/>
  </g>
  <g stroke="chocolate" stroke-width="1">
    <line x1="387" y1="272" x2="384" y2="270"/>
    <circle cx="387" cy="272" r="2"/>
    <circle cx="384" cy="270" r="2"/>
  </g>
  <g stroke="chocolate" stroke-width="1">
    <line x1="196" y1="147" x2="139" y2="111"/>
    <circle cx="196" cy="147" r="2"/>
    <circle cx="139" cy="111" r="2"/>
  </g>
  <g stroke="chocolate" stroke-width="1">
    <line x1="196" y1="147" x2="262" y2="107"/>
    <circle cx="196" cy="147" r="2"/>
    <circle cx="262" cy="107" r="2"/>
  </g>
  <g stroke="chocolate" stroke-width="1">
    <line x1="139" y1="114" x2="144" y2="110"/>
    <circle cx="139" cy="114" r="2"/>
    <circle cx="144" cy="110" r="2"/>
  </g>
  <g stroke="chocolate" stroke-width="1">
    <line x1="193" y1="118" x2="262" y2="107"/>
    <circle cx="193" cy="118" r="2"/>
    <circle cx="262" cy="107" r="2"/>
  </g>
  <g stroke="chocolate" stroke-width="1">
    <line x1="312" y1="60" x2="319" y2="57"/>
    <circle cx="312" cy="60" r="2"/>
    <circle cx="319" cy="57" r="2"/>
  </g>
  <g stroke="chocolate" stroke-width="1">
    <line x1="144" y1="110" x2="262" y2="107"/>
    <circle cx="144" cy="110" r="2"/>
    <circle cx="262" cy="107" r="2"/>
  </g>
  <g stroke="chocolate" stroke-width="1">
    <line x1="139" y1="111" x2="304" y2="50"/>
    <circle cx="139" cy="111" r="2"/>
    <circle cx="304" cy="50" r="2"/>
  </g>
  <g stroke="chocolate" stroke-width="1">
    <line x1="139" y1="114" x2="319" y2="57"/>
    <circle cx="139" cy="114" r="2"/>
    <circle cx="319" cy="57" r="2"/>
  </g>
  <g stroke="chocolate" stroke-width="1">
    <line x1="318" y1="53" x2="304" y2="50"/>
    <circle cx="318" cy="53" r="2"/>
    <circle cx="304" cy="50" r="2"/>
  </g>
  <g stroke="black" stroke-width="1">
    <line x1="5" y1="5" x2="505" y2="5"/>
    <line x1="5" y1="5" x2="5" y2="505"/>
    <line x1="505" y1="505" x2="5" y2="505"/>
    <line x1="505" y1="505" x2="505" y2="5"/>
    <line x1="105" y1="2" x2="105" y2="8"/>
    <line x1="2" y1="105" x2="8" y2="105"/>
    <line x1="105" y1="502" x2="105" y2="508"/>
    <line x1="502" y1="105" x2="508" y2="105"/>
    <line x1="205" y1="2" x2="205" y2="8"/>
    <line x1="2" y1="205" x2="8" y2="205"/>
    <line x1="205" y1="502" x2="205" y2="508"/>
    <line x1="502" y1="205" x2="508" y2="205"/>
    <line x1="305" y1="2" x2="305" y2="8"/>
    <line x1="2" y1="305" x2="8" y2="305"/>
    <line x1="305" y1="502" x2="305" y2="508"/>
    <line x1="502" y1="305" x2="508" y2="305"/>
    <line x1="405" y1="2" x2="405" y2="8"/>
    <line x1="2" y1="405" x2="8" y2="405"/>
    <line x1="405" y1="502" x2="405" y2="508"/>
    <line x1="502" y1="405" x2="508" y2="405"/>
  </g>
  <g stroke="gray" stroke-width="1" stroke-dasharray="5,5">
    <line x1="105" y1="5" x2="105" y2="505"/>
    <line x1="5" y1="105" x2="505" y2="105"/>
    <line x1="205" y1="5" x2="205" y2="505"/>
    <line x1="5" y1="205" x2="505" y2="205"/>
    <line x1="305" y1="5" x2="305" y2="505"/>
    <line x1="5" y1="305" x2="505" y2="305"/>
    <line x1="405" y1="5" x2="405" y2="505"/>
    <line x1="5" y1="405" x2="505" y2="405"/>
  </g>
</svg>
