<?xml version="1.0" standalone="no"?>
<!DOCTYPE svg PUBLIC "-//W3C//DTD SVG 1.1//EN" 
  "http://www.w3.org/Graphics/SVG/1.1/DTD/svg11.dtd">
<svg width="510" height="510" version="1.1" id="toplevel"
    xmlns="http://www.w3.org/2000/svg"
    xmlns:xlink="http://www.w3.org/1999/xlink">
  <polygon points="286,338 393,232 389,224 380,227 310,198 300,177 274,183 247,172 119,172 117,238 121,256"
           fill="bisque"/>
  <g stroke="chocolate" stroke-width="1">
    <line x1="286" y1="338" x2="121" y2="256"/>
    <circle cx="286" cy="338" r="2"/>
    <circle cx="121" cy="256" r="2"/>
  </g>
  <g stroke="chocolate" stroke-width="1">
    <line x1="317" y1="303" x2="263" y2="280"/>
    <circle cx="317" cy="303" r="2"/>
    <circle cx="263" cy="280" r="2"/>
  </g>
  <g stroke="chocolate" stroke-width="1">
    <line x1="150" y1="235" x2="120" y2="208"/>
    <circle cx="150" cy="235" r="2"/>
    <circle cx="120" cy="208" r="2"/>
  </g>
  <g stroke="chocolate" stroke-width="1">
    <line x1="150" y1="235" x2="121" y2="224"/>
    <circle cx="150" cy="235" r="2"/>
    <circle cx="121" cy="224" r="2"/>
  </g>
  <g stroke="chocolate" stroke-width="1">
    <line x1="334" y1="291" x2="119" y2="201"/>
    <circle cx="334" cy="291" r="2"/>
    <circle cx="119" cy="201" r="2"/>
  </g>
  <g stroke="chocolate" stroke-width="1">
    <line x1="293" y1="331" x2="262" y2="326"/>
    <circle cx="293" cy="331" r="2"/>
    <circle cx="262" cy="326" r="2"/>
  </g>
  <g stroke="chocolate" stroke-width="1">
    <line x1="262" y1="326" x2="224" y2="290"/>
    <circle cx="262" cy="326" r="2"/>
    <circle cx="224" cy="290" r="2"/>
  </g>
  <g stroke="chocolate" stroke-width="1">
    <line x1="320" y1="274" x2="279" y2="256"/>
    <circle cx="320" cy="274" r="2"/>
    <circle cx="279" cy="256" r="2"/>
  </g>
  <g stroke="chocolate" stroke-width="1">
    <line x1="348" y1="277" x2="278" y2="243"/>
    <circle cx="348" cy="277" r="2"/>
    <circle cx="278" cy="243" r="2"/>
  </g>
  <g stroke="chocolate" stroke-width="1">
    <line x1="169" y1="204" x2="136" y2="172"/>
    <circle cx="169" cy="204" r="2"/>
    <circle cx="136" cy="172" r="2"/>
  </g>
  <g stroke="chocolate" stroke-width="1">
    <line x1="128" y1="198" x2="119" y2="188"/>
    <circle cx="128" cy="198" r="2"/>
    <circle cx="119" cy="188" r="2"/>
  </g>
  <g stroke="chocolate" stroke-width="1">
    <line x1="304" y1="321" x2="263" y2="280"/>
    <circle cx="304" cy="321" r="2"/>
    <circle cx="263" cy="280" r="2"/>
  </g>
  <g stroke="chocolate" stroke-width="1">
    <line x1="304" y1="321" x2="156" y2="172"/>
    <circle cx="304" cy="321" r="2"/>
    <circle cx="156" cy="172" r="2"/>
  </g>
  <g stroke="chocolate" stroke-width="1">
    <line x1="393" y1="232" x2="247" y2="172"/>
    <circle cx="393" cy="232" r="2"/>
    <circle cx="247" cy="172" r="2"/>
  </g>
  <g stroke="chocolate" stroke-width="1">
    <line x1="335" y1="289" x2="260" y2="285"/>
    <circle cx="335" cy="289" r="2"/>
    <circle cx="260" cy="285" r="2"/>
  </g>
  <g stroke="chocolate" stroke-width="1">
    <line x1="391" y1="234" x2="238" y2="208"/>
    <circle cx="391" cy="234" r="2"/>
    <circle cx="238" cy="208" r="2"/>
  </g>
  <g stroke="chocolate" stroke-width="1">
    <line x1="386" y1="239" x2="374" y2="228"/>
    <circle cx="386" cy="239" r="2"/>
    <circle cx="374" cy="228" r="2"/>
  </g>
  <g stroke="chocolate" stroke-width="1">
    <line x1="386" y1="239" x2="369" y2="222"/>
    <circle cx="386" cy="239" r="2"/>
    <circle cx="369" cy="222" r="2"/>
  </g>
  <g stroke="chocolate" stroke-width="1">
    <line x1="330" y1="267" x2="317" y2="245"/>
    <circle cx="330" cy="267" r="2"/>
    <circle cx="317" cy="245" r="2"/>
  </g>
  <g stroke="chocolate" stroke-width="1">
    <line x1="369" y1="222" x2="169" y2="222"/>
    <circle cx="369" cy="222" r="2"/>
    <circle cx="169" cy="222" r="2"/>
  </g>
  <g stroke="chocolate" stroke-width="1">
    <line x1="286" y1="338" x2="250" y2="265"/>
    <circle cx="286" cy="338" r="2"/>
    <circle cx="250" cy="265" r="2"/>
  </g>
  <g stroke="chocolate" stroke-width="1">
    <line x1="300" y1="184" x2="270" y2="183"/>
    <circle cx="300" cy="184" r="2"/>
    <circle cx="270" cy="183" r="2"/>
  </g>
  <g stroke="chocolate" stroke-width="1">
    <line x1="119" y1="172" x2="247" y2="172"/>
    <circle cx="119" cy="172" r="2"/>
    <circle cx="247" cy="172" r="2"/>
  </g>
  <g stroke="chocolate" stroke-width="1">
    <line x1="348" y1="277" x2="300" y2="177"/>
    <circle cx="348" cy="277" r="2"/>
    <circle cx="300" cy="177" r="2"/>
  </g>
  <g stroke="chocolate" stroke-width="1">
    <line x1="224" y1="290" x2="368" y2="257"/>
    <circle cx="224" cy="290" r="2"/>
    <circle cx="368" cy="257" r="2"/>
  </g>
  <g stroke="chocolate" stroke-width="1">
    <line x1="334" y1="291" x2="315" y2="246"/>
    <circle cx="334" cy="291" r="2"/>
    <circle cx="315" cy="246" r="2"/>
  </g>
  <g stroke="chocolate" stroke-width="1">
    <line x1="281" y1="327" x2="308" y2="317"/>
    <circle cx="281" cy="327" r="2"/>
    <circle cx="308" cy="317" r="2"/>
  </g>
  <g stroke="chocolate" stroke-width="1">
    <line x1="393" y1="232" x2="389" y2="224"/>
    <circle cx="393" cy="232" r="2"/>
    <circle cx="389" cy="224" r="2"/>
  </g>
  <g stroke="chocolate" stroke-width="1">
    <line x1="150" y1="235" x2="134" y2="172"/>
    <circle cx="150" cy="235" r="2"/>
    <circle cx="134" cy="172" r="2"/>
  </g>
  <g stroke="chocolate" stroke-width="1">
    <line x1="250" y1="265" x2="389" y2="224"/>
    <circle cx="250" cy="265" r="2"/>
    <circle cx="389" cy="224" r="2"/>
  </g>
  <g stroke="chocolate" stroke-width="1">
    <line x1="270" y1="183" x2="300" y2="177"/>
    <circle cx="270" cy="183" r="2"/>
    <circle cx="300" cy="177" r="2"/>
  </g>
  <g stroke="chocolate" stroke-width="1">
    <line x1="121" y1="256" x2="117" y2="238"/>
    <circle cx="121" cy="256" r="2"/>
    <circle cx="117" cy="238" r="2"/>
  </g>
  <g stroke="chocolate" stroke-width="1">
    <line x1="293" y1="331" x2="278" y2="243"/>
    <circle cx="293" cy="331" r="2"/>
    <circle cx="278" cy="243" r="2"/>
  </g>
  <g stroke="chocolate" stroke-width="1">
    <line x1="320" y1="274" x2="315" y2="246"/>
    <circle cx="320" cy="274" r="2"/>
    <circle cx="315" cy="246" r="2"/>
  </g>
  <g stroke="chocolate" stroke-width="1">
    <line x1="391" y1="234" x2="389" y2="224"/>
    <circle cx="391" cy="234" r="2"/>
    <circle cx="389" cy="224" r="2"/>
  </g>
  <g stroke="chocolate" stroke-width="1">
    <line x1="119" y1="201" x2="128" y2="198"/>
    <circle cx="119" cy="201" r="2"/>
    <circle cx="128" cy="198" r="2"/>
  </g>
  <g stroke="chocolate" stroke-width="1">
    <line x1="281" y1="327" x2="317" y2="303"/>
    <circle cx="281" cy="327" r="2"/>
    <circle cx="317" cy="303" r="2"/>
  </g>
  <g stroke="chocolate" stroke-width="1">
    <line x1="320" y1="274" x2="330" y2="267"/>
    <circle cx="320" cy="274" r="2"/>
    <circle cx="330" cy="267" r="2"/>
  </g>
  <g stroke="chocolate" stroke-width="1">
    <line x1="335" y1="289" x2="333" y2="245"/>
    <circle cx="335" cy="289" r="2"/>
    <circle cx="333" cy="245" r="2"/>
  </g>
  <g stroke="chocolate" stroke-width="1">
    <line x1="121" y1="224" x2="247" y2="172"/>
    <circle cx="121" cy="224" r="2"/>
    <circle cx="247" cy="172" r="2"/>
  </g>
  <g stroke="chocolate" stroke-width="1">
    <line x1="121" y1="224" x2="119" y2="172"/>
    <circle cx="121" cy="224" r="2"/>
    <circle cx="119" cy="172" r="2"/>
  </g>
  <g stroke="chocolate" stroke-width="1">
    <line x1="121" y1="256" x2="270" y2="183"/>
    <circle cx="121" cy="256" r="2"/>
    <circle cx="270" cy="183" r="2"/>
  </g>
  <g stroke="chocolate" stroke-width="1">
    <line x1="169" y1="204" x2="169" y2="172"/>
    <circle cx="169" cy="204" r="2"/>
    <circle cx="169" cy="172" r="2"/>
  </g>
  <g stroke="chocolate" stroke-width="1">
    <line x1="317" y1="303" x2="317" y2="245"/>
    <circle cx="317" cy="303" r="2"/>
    <circle cx="317" cy="245" r="2"/>
  </g>
  <g stroke="chocolate" stroke-width="1">
    <line x1="169" y1="222" x2="169" y2="172"/>
    <circle cx="169" cy="222" r="2"/>
    <circle cx="169" cy="172" r="2"/>
  </g>
  <g stroke="chocolate" stroke-width="1">
    <line x1="300" y1="184" x2="300" y2="177"/>
    <circle cx="300" cy="184" r="2"/>
    <circle cx="300" cy="177" r="2"/>
  </g>
  <g stroke="chocolate" stroke-width="1">
    <line x1="117" y1="238" x2="119" y2="172"/>
    <circle cx="117" cy="238" r="2"/>
    <circle cx="119" cy="172" r="2"/>
  </g>
  <g stroke="chocolate" stroke-width="1">
    <line x1="250" y1="265" x2="278" y2="243"/>
    <circle cx="250" cy="265" r="2"/>
    <circle cx="278" cy="243" r="2"/>
  </g>
  <g stroke="chocolate" stroke-width="1">
    <line x1="286" y1="338" x2="393" y2="232"/>
    <circle cx="286" cy="338" r="2"/>
    <circle cx="393" cy="232" r="2"/>
  </g>
  <g stroke="chocolate" stroke-width="1">
    <line x1="368" y1="257" x2="374" y2="228"/>
    <circle cx="368" cy="257" r="2"/>
    <circle cx="374" cy="228" r="2"/>
  </g>
  <g stroke="chocolate" stroke-width="1">
    <line x1="224" y1="290" x2="238" y2="208"/>
    <circle cx="224" cy="290" r="2"/>
    <circle cx="238" cy="208" r="2"/>
  </g>
  <g stroke="chocolate" stroke-width="1">
    <line x1="308" y1="317" x2="333" y2="245"/>
    <circle cx="308" cy="317" r="2"/>
    <circle cx="333" cy="245" r="2"/>
  </g>
  <g stroke="chocolate" stroke-width="1">
    <line x1="260" y1="285" x2="279" y2="256"/>
    <circle cx="260" cy="285" r="2"/>
    <circle cx="279" cy="256" r="2"/>
  </g>
  <g stroke="chocolate" stroke-width="1">
    <line x1="117" y1="238" x2="134" y2="172"/>
    <circle cx="117" cy="238" r="2"/>
    <circle cx="134" cy="172" r="2"/>
  </g>
  <g stroke="chocolate" stroke-width="1">
    <line x1="120" y1="208" x2="156" y2="172"/>
    <circle cx="120" cy="208" r="2"/>
    <circle cx="156" cy="172" r="2"/>
  </g>
  <g stroke="chocolate" stroke-width="1">
    <line x1="119" y1="188" x2="136" y2="172"/>
    <circle cx="119" cy="188" r="2"/>
    <circle cx="136" cy="172" r="2"/>
  </g>
  <g stroke="black" stroke-width="1">
    <line x1="5" y1="5" x2="505" y2="5"/>
    <line x1="5" y1="5" x2="5" y2="505"/>
    <line x1="505" y1="505" x2="5" y2="505"/>
    <line x1="505" y1="505" x2="505" y2="5"/>
    <line x1="105" y1="2" x2="105" y2="8"/>
    <line x1="2" y1="105" x2="8" y2="105"/>
    <line x1="105" y1="502" x2="105" y2="508"/>
    <line x1="502" y1="105" x2="508" y2="105"/>
    <line x1="205" y1="2" x2="205" y2="8"/>
    <line x1="2" y1="205" x2="8" y2="205"/>
    <line x1="205" y1="502" x2="205" y2="508"/>
    <line x1="502" y1="205" x2="508" y2="205"/>
    <line x1="305" y1="2" x2="305" y2="8"/>
    <line x1="2" y1="305" x2="8" y2="305"/>
    <line x1="305" y1="502" x2="305" y2="508"/>
    <line x1="502" y1="305" x2="508" y2="305"/>
    <line x1="405" y1="2" x2="405" y2="8"/>
    <line x1="2" y1="405" x2="8" y2="405"/>
    <line x1="405" y1="502" x2="405" y2="508"/>
    <line x1="502" y1="405" x2="508" y2="405"/>
  </g>
  <g stroke="gray" stroke-width="1" stroke-dasharray="5,5">
    <line x1="105" y1="5" x2="105" y2="505"/>
    <line x1="5" y1="105" x2="505" y2="105"/>
    <line x1="205" y1="5" x2="205" y2="505"/>
    <line x1="5" y1="205" x2="505" y2="205"/>
    <line x1="305" y1="5" x2="305" y2="505"/>
    <line x1="5" y1="305" x2="505" y2="305"/>
    <line x1="405" y1="5" x2="405" y2="505"/>
    <line x1="5" y1="405" x2="505" y2="405"/>
  </g>
</svg>
