<?xml version="1.0" standalone="no"?>
<!DOCTYPE svg PUBLIC "-//W3C//DTD SVG 1.1//EN" 
  "http://www.w3.org/Graphics/SVG/1.1/DTD/svg11.dtd">
<svg width="510" height="510" version="1.1" id="toplevel"
    xmlns="http://www.w3.org/2000/svg"
    xmlns:xlink="http://www.w3.org/1999/xlink">
  <polygon points="382,408 422,364 208,102 88,138 107,202" fill="bisque"/>
  <g stroke="chocolate" stroke-width="1">
    <line x1="107" y1="202" x2="88" y2="138"/>
    <circle cx="107" cy="202" r="2"/>
    <circle cx="88" cy="138" r="2"/>
  </g>
  <g stroke="chocolate" stroke-width="1">
    <line x1="209" y1="248" x2="208" y2="224"/>
    <circle cx="209" cy="248" r="2"/>
    <circle cx="208" cy="224" r="2"/>
  </g>
  <g stroke="chocolate" stroke-width="1">
    <line x1="186" y1="228" x2="186" y2="202"/>
    <circle cx="186" cy="228" r="2"/>
    <circle cx="186" cy="202" r="2"/>
  </g>
  <g stroke="chocolate" stroke-width="1">
    <line x1="281" y1="332" x2="280" y2="251"/>
    <circle cx="281" cy="332" r="2"/>
    <circle cx="280" cy="251" r="2"/>
  </g>
  <g stroke="chocolate" stroke-width="1">
    <line x1="367" y1="397" x2="355" y2="287"/>
    <circle cx="367" cy="397" r="2"/>
    <circle cx="355" cy="287" r="2"/>
  </g>
  <g stroke="chocolate" stroke-width="1">
    <line x1="126" y1="216" x2="117" y2="194"/>
    <circle cx="126" cy="216" r="2"/>
    <circle cx="117" cy="194" r="2"/>
  </g>
  <g stroke="chocolate" stroke-width="1">
    <line x1="180" y1="229" x2="181" y2="222"/>
    <circle cx="180" cy="229" r="2"/>
    <circle cx="181" cy="222" r="2"/>
  </g>
  <g stroke="chocolate" stroke-width="1">
    <line x1="227" y1="292" x2="231" y2="247"/>
    <circle cx="227" cy="292" r="2"/>
    <circle cx="231" cy="247" r="2"/>
  </g>
  <g stroke="chocolate" stroke-width="1">
    <line x1="378" y1="399" x2="379" y2="395"/>
    <circle cx="378" cy="399" r="2"/>
    <circle cx="379" cy="395" r="2"/>
  </g>
  <g stroke="chocolate" stroke-width="1">
    <line x1="319" y1="310" x2="304" y2="263"/>
    <circle cx="319" cy="310" r="2"/>
    <circle cx="304" cy="263" r="2"/>
  </g>
  <g stroke="chocolate" stroke-width="1">
    <line x1="207" y1="252" x2="210" y2="226"/>
    <circle cx="207" cy="252" r="2"/>
    <circle cx="210" cy="226" r="2"/>
  </g>
  <g stroke="chocolate" stroke-width="1">
    <line x1="380" y1="402" x2="382" y2="398"/>
    <circle cx="380" cy="402" r="2"/>
    <circle cx="382" cy="398" r="2"/>
  </g>
  <g stroke="chocolate" stroke-width="1">
    <line x1="241" y1="302" x2="251" y2="251"/>
    <circle cx="241" cy="302" r="2"/>
    <circle cx="251" cy="251" r="2"/>
  </g>
  <g stroke="chocolate" stroke-width="1">
    <line x1="204" y1="244" x2="208" y2="224"/>
    <circle cx="204" cy="244" r="2"/>
    <circle cx="208" cy="224" r="2"/>
  </g>
  <g stroke="chocolate" stroke-width="1">
    <line x1="282" y1="332" x2="282" y2="331"/>
    <circle cx="282" cy="332" r="2"/>
    <circle cx="282" cy="331" r="2"/>
  </g>
  <g stroke="chocolate" stroke-width="1">
    <line x1="225" y1="263" x2="230" y2="246"/>
    <circle cx="225" cy="263" r="2"/>
    <circle cx="230" cy="246" r="2"/>
  </g>
  <g stroke="chocolate" stroke-width="1">
    <line x1="383" y1="403" x2="384" y2="400"/>
    <circle cx="383" cy="403" r="2"/>
    <circle cx="384" cy="400" r="2"/>
  </g>
  <g stroke="chocolate" stroke-width="1">
    <line x1="210" y1="278" x2="222" y2="238"/>
    <circle cx="210" cy="278" r="2"/>
    <circle cx="222" cy="238" r="2"/>
  </g>
  <g stroke="chocolate" stroke-width="1">
    <line x1="227" y1="292" x2="241" y2="257"/>
    <circle cx="227" cy="292" r="2"/>
    <circle cx="241" cy="257" r="2"/>
  </g>
  <g stroke="chocolate" stroke-width="1">
    <line x1="382" y1="408" x2="386" y2="402"/>
    <circle cx="382" cy="408" r="2"/>
    <circle cx="386" cy="402" r="2"/>
  </g>
  <g stroke="chocolate" stroke-width="1">
    <line x1="256" y1="313" x2="283" y2="253"/>
    <circle cx="256" cy="313" r="2"/>
    <circle cx="283" cy="253" r="2"/>
  </g>
  <g stroke="chocolate" stroke-width="1">
    <line x1="265" y1="298" x2="271" y2="287"/>
    <circle cx="265" cy="298" r="2"/>
    <circle cx="271" cy="287" r="2"/>
  </g>
  <g stroke="chocolate" stroke-width="1">
    <line x1="253" y1="311" x2="283" y2="253"/>
    <circle cx="253" cy="311" r="2"/>
    <circle cx="283" cy="253" r="2"/>
  </g>
  <g stroke="chocolate" stroke-width="1">
    <line x1="282" y1="331" x2="258" y2="306"/>
    <circle cx="282" cy="331" r="2"/>
    <circle cx="258" cy="306" r="2"/>
  </g>
  <g stroke="chocolate" stroke-width="1">
    <line x1="150" y1="196" x2="159" y2="175"/>
    <circle cx="150" cy="196" r="2"/>
    <circle cx="159" cy="175" r="2"/>
  </g>
  <g stroke="chocolate" stroke-width="1">
    <line x1="422" y1="364" x2="208" y2="102"/>
    <circle cx="422" cy="364" r="2"/>
    <circle cx="208" cy="102" r="2"/>
  </g>
  <g stroke="chocolate" stroke-width="1">
    <line x1="386" y1="402" x2="159" y2="175"/>
    <circle cx="386" cy="402" r="2"/>
    <circle cx="159" cy="175" r="2"/>
  </g>
  <g stroke="chocolate" stroke-width="1">
    <line x1="382" y1="408" x2="422" y2="364"/>
    <circle cx="382" cy="408" r="2"/>
    <circle cx="422" cy="364" r="2"/>
  </g>
  <g stroke="chocolate" stroke-width="1">
    <line x1="267" y1="304" x2="275" y2="291"/>
    <circle cx="267" cy="304" r="2"/>
    <circle cx="275" cy="291" r="2"/>
  </g>
  <g stroke="chocolate" stroke-width="1">
    <line x1="319" y1="310" x2="238" y2="231"/>
    <circle cx="319" cy="310" r="2"/>
    <circle cx="238" cy="231" r="2"/>
  </g>
  <g stroke="chocolate" stroke-width="1">
    <line x1="141" y1="227" x2="208" y2="102"/>
    <circle cx="141" cy="227" r="2"/>
    <circle cx="208" cy="102" r="2"/>
  </g>
  <g stroke="chocolate" stroke-width="1">
    <line x1="383" y1="403" x2="150" y2="196"/>
    <circle cx="383" cy="403" r="2"/>
    <circle cx="150" cy="196" r="2"/>
  </g>
  <g stroke="chocolate" stroke-width="1">
    <line x1="380" y1="402" x2="155" y2="208"/>
    <circle cx="380" cy="402" r="2"/>
    <circle cx="155" cy="208" r="2"/>
  </g>
  <g stroke="chocolate" stroke-width="1">
    <line x1="155" y1="208" x2="169" y2="185"/>
    <circle cx="155" cy="208" r="2"/>
    <circle cx="169" cy="185" r="2"/>
  </g>
  <g stroke="chocolate" stroke-width="1">
    <line x1="382" y1="408" x2="107" y2="202"/>
    <circle cx="382" cy="408" r="2"/>
    <circle cx="107" cy="202" r="2"/>
  </g>
  <g stroke="chocolate" stroke-width="1">
    <line x1="270" y1="303" x2="278" y2="294"/>
    <circle cx="270" cy="303" r="2"/>
    <circle cx="278" cy="294" r="2"/>
  </g>
  <g stroke="chocolate" stroke-width="1">
    <line x1="270" y1="303" x2="278" y2="294"/>
    <circle cx="270" cy="303" r="2"/>
    <circle cx="278" cy="294" r="2"/>
  </g>
  <g stroke="chocolate" stroke-width="1">
    <line x1="422" y1="364" x2="251" y2="251"/>
    <circle cx="422" cy="364" r="2"/>
    <circle cx="251" cy="251" r="2"/>
  </g>
  <g stroke="chocolate" stroke-width="1">
    <line x1="383" y1="403" x2="386" y2="402"/>
    <circle cx="383" cy="403" r="2"/>
    <circle cx="386" cy="402" r="2"/>
  </g>
  <g stroke="chocolate" stroke-width="1">
    <line x1="253" y1="311" x2="258" y2="306"/>
    <circle cx="253" cy="311" r="2"/>
    <circle cx="258" cy="306" r="2"/>
  </g>
  <g stroke="chocolate" stroke-width="1">
    <line x1="163" y1="207" x2="175" y2="191"/>
    <circle cx="163" cy="207" r="2"/>
    <circle cx="175" cy="191" r="2"/>
  </g>
  <g stroke="chocolate" stroke-width="1">
    <line x1="267" y1="304" x2="278" y2="294"/>
    <circle cx="267" cy="304" r="2"/>
    <circle cx="278" cy="294" r="2"/>
  </g>
  <g stroke="chocolate" stroke-width="1">
    <line x1="256" y1="313" x2="278" y2="294"/>
    <circle cx="256" cy="313" r="2"/>
    <circle cx="278" cy="294" r="2"/>
  </g>
  <g stroke="chocolate" stroke-width="1">
    <line x1="380" y1="402" x2="384" y2="400"/>
    <circle cx="380" cy="402" r="2"/>
    <circle cx="384" cy="400" r="2"/>
  </g>
  <g stroke="chocolate" stroke-width="1">
    <line x1="163" y1="207" x2="177" y2="193"/>
    <circle cx="163" cy="207" r="2"/>
    <circle cx="177" cy="193" r="2"/>
  </g>
  <g stroke="chocolate" stroke-width="1">
    <line x1="227" y1="292" x2="280" y2="251"/>
    <circle cx="227" cy="292" r="2"/>
    <circle cx="280" cy="251" r="2"/>
  </g>
  <g stroke="chocolate" stroke-width="1">
    <line x1="355" y1="287" x2="238" y2="231"/>
    <circle cx="355" cy="287" r="2"/>
    <circle cx="238" cy="231" r="2"/>
  </g>
  <g stroke="chocolate" stroke-width="1">
    <line x1="282" y1="332" x2="355" y2="287"/>
    <circle cx="282" cy="332" r="2"/>
    <circle cx="355" cy="287" r="2"/>
  </g>
  <g stroke="chocolate" stroke-width="1">
    <line x1="141" y1="227" x2="177" y2="193"/>
    <circle cx="141" cy="227" r="2"/>
    <circle cx="177" cy="193" r="2"/>
  </g>
  <g stroke="chocolate" stroke-width="1">
    <line x1="378" y1="399" x2="382" y2="398"/>
    <circle cx="378" cy="399" r="2"/>
    <circle cx="382" cy="398" r="2"/>
  </g>
  <g stroke="chocolate" stroke-width="1">
    <line x1="265" y1="298" x2="275" y2="291"/>
    <circle cx="265" cy="298" r="2"/>
    <circle cx="275" cy="291" r="2"/>
  </g>
  <g stroke="chocolate" stroke-width="1">
    <line x1="367" y1="397" x2="379" y2="395"/>
    <circle cx="367" cy="397" r="2"/>
    <circle cx="379" cy="395" r="2"/>
  </g>
  <g stroke="chocolate" stroke-width="1">
    <line x1="210" y1="278" x2="251" y2="251"/>
    <circle cx="210" cy="278" r="2"/>
    <circle cx="251" cy="251" r="2"/>
  </g>
  <g stroke="chocolate" stroke-width="1">
    <line x1="155" y1="208" x2="175" y2="191"/>
    <circle cx="155" cy="208" r="2"/>
    <circle cx="175" cy="191" r="2"/>
  </g>
  <g stroke="chocolate" stroke-width="1">
    <line x1="241" y1="302" x2="271" y2="287"/>
    <circle cx="241" cy="302" r="2"/>
    <circle cx="271" cy="287" r="2"/>
  </g>
  <g stroke="chocolate" stroke-width="1">
    <line x1="281" y1="332" x2="282" y2="331"/>
    <circle cx="281" cy="332" r="2"/>
    <circle cx="282" cy="331" r="2"/>
  </g>
  <g stroke="chocolate" stroke-width="1">
    <line x1="227" y1="292" x2="304" y2="263"/>
    <circle cx="227" cy="292" r="2"/>
    <circle cx="304" cy="263" r="2"/>
  </g>
  <g stroke="chocolate" stroke-width="1">
    <line x1="225" y1="263" x2="241" y2="257"/>
    <circle cx="225" cy="263" r="2"/>
    <circle cx="241" cy="257" r="2"/>
  </g>
  <g stroke="chocolate" stroke-width="1">
    <line x1="150" y1="196" x2="169" y2="185"/>
    <circle cx="150" cy="196" r="2"/>
    <circle cx="169" cy="185" r="2"/>
  </g>
  <g stroke="chocolate" stroke-width="1">
    <line x1="238" y1="231" x2="126" y2="216"/>
    <circle cx="238" cy="231" r="2"/>
    <circle cx="126" cy="216" r="2"/>
  </g>
  <g stroke="chocolate" stroke-width="1">
    <line x1="204" y1="244" x2="222" y2="238"/>
    <circle cx="204" cy="244" r="2"/>
    <circle cx="222" cy="238" r="2"/>
  </g>
  <g stroke="chocolate" stroke-width="1">
    <line x1="207" y1="252" x2="230" y2="246"/>
    <circle cx="207" cy="252" r="2"/>
    <circle cx="230" cy="246" r="2"/>
  </g>
  <g stroke="chocolate" stroke-width="1">
    <line x1="209" y1="248" x2="231" y2="247"/>
    <circle cx="209" cy="248" r="2"/>
    <circle cx="231" cy="247" r="2"/>
  </g>
  <g stroke="chocolate" stroke-width="1">
    <line x1="208" y1="224" x2="181" y2="222"/>
    <circle cx="208" cy="224" r="2"/>
    <circle cx="181" cy="222" r="2"/>
  </g>
  <g stroke="chocolate" stroke-width="1">
    <line x1="186" y1="228" x2="210" y2="226"/>
    <circle cx="186" cy="228" r="2"/>
    <circle cx="210" cy="226" r="2"/>
  </g>
  <g stroke="chocolate" stroke-width="1">
    <line x1="180" y1="229" x2="208" y2="224"/>
    <circle cx="180" cy="229" r="2"/>
    <circle cx="208" cy="224" r="2"/>
  </g>
  <g stroke="chocolate" stroke-width="1">
    <line x1="186" y1="202" x2="107" y2="202"/>
    <circle cx="186" cy="202" r="2"/>
    <circle cx="107" cy="202" r="2"/>
  </g>
  <g stroke="chocolate" stroke-width="1">
    <line x1="117" y1="194" x2="159" y2="175"/>
    <circle cx="117" cy="194" r="2"/>
    <circle cx="159" cy="175" r="2"/>
  </g>
  <g stroke="chocolate" stroke-width="1">
    <line x1="88" y1="138" x2="208" y2="102"/>
    <circle cx="88" cy="138" r="2"/>
    <circle cx="208" cy="102" r="2"/>
  </g>
  <g stroke="black" stroke-width="1">
    <line x1="5" y1="5" x2="505" y2="5"/>
    <line x1="5" y1="5" x2="5" y2="505"/>
    <line x1="505" y1="505" x2="5" y2="505"/>
    <line x1="505" y1="505" x2="505" y2="5"/>
    <line x1="105" y1="2" x2="105" y2="8"/>
    <line x1="2" y1="105" x2="8" y2="105"/>
    <line x1="105" y1="502" x2="105" y2="508"/>
    <line x1="502" y1="105" x2="508" y2="105"/>
    <line x1="205" y1="2" x2="205" y2="8"/>
    <line x1="2" y1="205" x2="8" y2="205"/>
    <line x1="205" y1="502" x2="205" y2="508"/>
    <line x1="502" y1="205" x2="508" y2="205"/>
    <line x1="305" y1="2" x2="305" y2="8"/>
    <line x1="2" y1="305" x2="8" y2="305"/>
    <line x1="305" y1="502" x2="305" y2="508"/>
    <line x1="502" y1="305" x2="508" y2="305"/>
    <line x1="405" y1="2" x2="405" y2="8"/>
    <line x1="2" y1="405" x2="8" y2="405"/>
    <line x1="405" y1="502" x2="405" y2="508"/>
    <line x1="502" y1="405" x2="508" y2="405"/>
  </g>
  <g stroke="gray" stroke-width="1" stroke-dasharray="5,5">
    <line x1="105" y1="5" x2="105" y2="505"/>
    <line x1="5" y1="105" x2="505" y2="105"/>
    <line x1="205" y1="5" x2="205" y2="505"/>
    <line x1="5" y1="205" x2="505" y2="205"/>
    <line x1="305" y1="5" x2="305" y2="505"/>
    <line x1="5" y1="305" x2="505" y2="305"/>
    <line x1="405" y1="5" x2="405" y2="505"/>
    <line x1="5" y1="405" x2="505" y2="405"/>
  </g>
</svg>
