<?xml version="1.0" standalone="no"?>
<!DOCTYPE svg PUBLIC "-//W3C//DTD SVG 1.1//EN" 
  "http://www.w3.org/Graphics/SVG/1.1/DTD/svg11.dtd">
<svg width="510" height="510" version="1.1" id="toplevel"
    xmlns="http://www.w3.org/2000/svg"
    xmlns:xlink="http://www.w3.org/1999/xlink">
  <polygon points="156,445 186,398 322,438 423,263 436,186 355,115 345,71 347,66 344,65 151,235 74,366 115,406 110,428"
           fill="bisque"/>
  <g stroke="chocolate" stroke-width="1">
    <line x1="149" y1="431" x2="110" y2="428"/>
    <circle cx="149" cy="431" r="2"/>
    <circle cx="110" cy="428" r="2"/>
  </g>
  <g stroke="chocolate" stroke-width="1">
    <line x1="168" y1="425" x2="112" y2="419"/>
    <circle cx="168" cy="425" r="2"/>
    <circle cx="112" cy="419" r="2"/>
  </g>
  <g stroke="chocolate" stroke-width="1">
    <line x1="149" y1="431" x2="112" y2="419"/>
    <circle cx="149" cy="431" r="2"/>
    <circle cx="112" cy="419" r="2"/>
  </g>
  <g stroke="chocolate" stroke-width="1">
    <line x1="156" y1="445" x2="110" y2="428"/>
    <circle cx="156" cy="445" r="2"/>
    <circle cx="110" cy="428" r="2"/>
  </g>
  <g stroke="chocolate" stroke-width="1">
    <line x1="322" y1="438" x2="74" y2="366"/>
    <circle cx="322" cy="438" r="2"/>
    <circle cx="74" cy="366" r="2"/>
  </g>
  <g stroke="chocolate" stroke-width="1">
    <line x1="380" y1="328" x2="102" y2="318"/>
    <circle cx="380" cy="328" r="2"/>
    <circle cx="102" cy="318" r="2"/>
  </g>
  <g stroke="chocolate" stroke-width="1">
    <line x1="319" y1="334" x2="394" y2="314"/>
    <circle cx="319" cy="334" r="2"/>
    <circle cx="394" cy="314" r="2"/>
  </g>
  <g stroke="chocolate" stroke-width="1">
    <line x1="349" y1="294" x2="415" y2="276"/>
    <circle cx="349" cy="294" r="2"/>
    <circle cx="415" cy="276" r="2"/>
  </g>
  <g stroke="chocolate" stroke-width="1">
    <line x1="431" y1="189" x2="436" y2="188"/>
    <circle cx="431" cy="189" r="2"/>
    <circle cx="436" cy="188" r="2"/>
  </g>
  <g stroke="chocolate" stroke-width="1">
    <line x1="304" y1="170" x2="232" y2="163"/>
    <circle cx="304" cy="170" r="2"/>
    <circle cx="232" cy="163" r="2"/>
  </g>
  <g stroke="chocolate" stroke-width="1">
    <line x1="326" y1="118" x2="308" y2="115"/>
    <circle cx="326" cy="118" r="2"/>
    <circle cx="308" cy="115" r="2"/>
  </g>
  <g stroke="chocolate" stroke-width="1">
    <line x1="431" y1="189" x2="436" y2="186"/>
    <circle cx="431" cy="189" r="2"/>
    <circle cx="436" cy="186" r="2"/>
  </g>
  <g stroke="chocolate" stroke-width="1">
    <line x1="118" y1="392" x2="225" y2="336"/>
    <circle cx="118" cy="392" r="2"/>
    <circle cx="225" cy="336" r="2"/>
  </g>
  <g stroke="chocolate" stroke-width="1">
    <line x1="325" y1="126" x2="344" y2="120"/>
    <circle cx="325" cy="126" r="2"/>
    <circle cx="344" cy="120" r="2"/>
  </g>
  <g stroke="chocolate" stroke-width="1">
    <line x1="282" y1="399" x2="380" y2="337"/>
    <circle cx="282" cy="399" r="2"/>
    <circle cx="380" cy="337" r="2"/>
  </g>
  <g stroke="chocolate" stroke-width="1">
    <line x1="151" y1="235" x2="361" y2="146"/>
    <circle cx="151" cy="235" r="2"/>
    <circle cx="361" cy="146" r="2"/>
  </g>
  <g stroke="chocolate" stroke-width="1">
    <line x1="348" y1="126" x2="298" y2="105"/>
    <circle cx="348" cy="126" r="2"/>
    <circle cx="298" cy="105" r="2"/>
  </g>
  <g stroke="chocolate" stroke-width="1">
    <line x1="420" y1="268" x2="412" y2="263"/>
    <circle cx="420" cy="268" r="2"/>
    <circle cx="412" cy="263" r="2"/>
  </g>
  <g stroke="chocolate" stroke-width="1">
    <line x1="347" y1="66" x2="344" y2="65"/>
    <circle cx="347" cy="66" r="2"/>
    <circle cx="344" cy="65" r="2"/>
  </g>
  <g stroke="chocolate" stroke-width="1">
    <line x1="420" y1="268" x2="374" y2="241"/>
    <circle cx="420" cy="268" r="2"/>
    <circle cx="374" cy="241" r="2"/>
  </g>
  <g stroke="chocolate" stroke-width="1">
    <line x1="156" y1="445" x2="74" y2="366"/>
    <circle cx="156" cy="445" r="2"/>
    <circle cx="74" cy="366" r="2"/>
  </g>
  <g stroke="chocolate" stroke-width="1">
    <line x1="436" y1="188" x2="296" y2="107"/>
    <circle cx="436" cy="188" r="2"/>
    <circle cx="296" cy="107" r="2"/>
  </g>
  <g stroke="chocolate" stroke-width="1">
    <line x1="319" y1="334" x2="425" y2="253"/>
    <circle cx="319" cy="334" r="2"/>
    <circle cx="425" cy="253" r="2"/>
  </g>
  <g stroke="chocolate" stroke-width="1">
    <line x1="308" y1="115" x2="295" y2="107"/>
    <circle cx="308" cy="115" r="2"/>
    <circle cx="295" cy="107" r="2"/>
  </g>
  <g stroke="chocolate" stroke-width="1">
    <line x1="374" y1="241" x2="434" y2="194"/>
    <circle cx="374" cy="241" r="2"/>
    <circle cx="434" cy="194" r="2"/>
  </g>
  <g stroke="chocolate" stroke-width="1">
    <line x1="322" y1="438" x2="282" y2="399"/>
    <circle cx="322" cy="438" r="2"/>
    <circle cx="282" cy="399" r="2"/>
  </g>
  <g stroke="chocolate" stroke-width="1">
    <line x1="326" y1="118" x2="303" y2="101"/>
    <circle cx="326" cy="118" r="2"/>
    <circle cx="303" cy="101" r="2"/>
  </g>
  <g stroke="chocolate" stroke-width="1">
    <line x1="149" y1="431" x2="118" y2="392"/>
    <circle cx="149" cy="431" r="2"/>
    <circle cx="118" cy="392" r="2"/>
  </g>
  <g stroke="chocolate" stroke-width="1">
    <line x1="122" y1="372" x2="305" y2="210"/>
    <circle cx="122" cy="372" r="2"/>
    <circle cx="305" cy="210" r="2"/>
  </g>
  <g stroke="chocolate" stroke-width="1">
    <line x1="436" y1="186" x2="321" y2="85"/>
    <circle cx="436" cy="186" r="2"/>
    <circle cx="321" cy="85" r="2"/>
  </g>
  <g stroke="chocolate" stroke-width="1">
    <line x1="151" y1="235" x2="344" y2="65"/>
    <circle cx="151" cy="235" r="2"/>
    <circle cx="344" cy="65" r="2"/>
  </g>
  <g stroke="chocolate" stroke-width="1">
    <line x1="348" y1="151" x2="300" y2="104"/>
    <circle cx="348" cy="151" r="2"/>
    <circle cx="300" cy="104" r="2"/>
  </g>
  <g stroke="chocolate" stroke-width="1">
    <line x1="168" y1="425" x2="102" y2="318"/>
    <circle cx="168" cy="425" r="2"/>
    <circle cx="102" cy="318" r="2"/>
  </g>
  <g stroke="chocolate" stroke-width="1">
    <line x1="304" y1="170" x2="344" y2="120"/>
    <circle cx="304" cy="170" r="2"/>
    <circle cx="344" cy="120" r="2"/>
  </g>
  <g stroke="chocolate" stroke-width="1">
    <line x1="308" y1="115" x2="300" y2="104"/>
    <circle cx="308" cy="115" r="2"/>
    <circle cx="300" cy="104" r="2"/>
  </g>
  <g stroke="chocolate" stroke-width="1">
    <line x1="322" y1="438" x2="423" y2="263"/>
    <circle cx="322" cy="438" r="2"/>
    <circle cx="423" cy="263" r="2"/>
  </g>
  <g stroke="chocolate" stroke-width="1">
    <line x1="149" y1="431" x2="122" y2="372"/>
    <circle cx="149" cy="431" r="2"/>
    <circle cx="122" cy="372" r="2"/>
  </g>
  <g stroke="chocolate" stroke-width="1">
    <line x1="361" y1="146" x2="321" y2="85"/>
    <circle cx="361" cy="146" r="2"/>
    <circle cx="321" cy="85" r="2"/>
  </g>
  <g stroke="chocolate" stroke-width="1">
    <line x1="425" y1="253" x2="419" y2="244"/>
    <circle cx="425" cy="253" r="2"/>
    <circle cx="419" cy="244" r="2"/>
  </g>
  <g stroke="chocolate" stroke-width="1">
    <line x1="156" y1="445" x2="305" y2="210"/>
    <circle cx="156" cy="445" r="2"/>
    <circle cx="305" cy="210" r="2"/>
  </g>
  <g stroke="chocolate" stroke-width="1">
    <line x1="282" y1="399" x2="319" y2="334"/>
    <circle cx="282" cy="399" r="2"/>
    <circle cx="319" cy="334" r="2"/>
  </g>
  <g stroke="chocolate" stroke-width="1">
    <line x1="434" y1="194" x2="431" y2="189"/>
    <circle cx="434" cy="194" r="2"/>
    <circle cx="431" cy="189" r="2"/>
  </g>
  <g stroke="chocolate" stroke-width="1">
    <line x1="334" y1="157" x2="303" y2="101"/>
    <circle cx="334" cy="157" r="2"/>
    <circle cx="303" cy="101" r="2"/>
  </g>
  <g stroke="chocolate" stroke-width="1">
    <line x1="74" y1="366" x2="151" y2="235"/>
    <circle cx="74" cy="366" r="2"/>
    <circle cx="151" cy="235" r="2"/>
  </g>
  <g stroke="chocolate" stroke-width="1">
    <line x1="319" y1="163" x2="295" y2="107"/>
    <circle cx="319" cy="163" r="2"/>
    <circle cx="295" cy="107" r="2"/>
  </g>
  <g stroke="chocolate" stroke-width="1">
    <line x1="319" y1="163" x2="296" y2="107"/>
    <circle cx="319" cy="163" r="2"/>
    <circle cx="296" cy="107" r="2"/>
  </g>
  <g stroke="chocolate" stroke-width="1">
    <line x1="326" y1="118" x2="347" y2="66"/>
    <circle cx="326" cy="118" r="2"/>
    <circle cx="347" cy="66" r="2"/>
  </g>
  <g stroke="chocolate" stroke-width="1">
    <line x1="334" y1="157" x2="325" y2="126"/>
    <circle cx="334" cy="157" r="2"/>
    <circle cx="325" cy="126" r="2"/>
  </g>
  <g stroke="chocolate" stroke-width="1">
    <line x1="349" y1="294" x2="298" y2="105"/>
    <circle cx="349" cy="294" r="2"/>
    <circle cx="298" cy="105" r="2"/>
  </g>
  <g stroke="chocolate" stroke-width="1">
    <line x1="305" y1="210" x2="347" y2="66"/>
    <circle cx="305" cy="210" r="2"/>
    <circle cx="347" cy="66" r="2"/>
  </g>
  <g stroke="chocolate" stroke-width="1">
    <line x1="394" y1="314" x2="374" y2="241"/>
    <circle cx="394" cy="314" r="2"/>
    <circle cx="374" cy="241" r="2"/>
  </g>
  <g stroke="chocolate" stroke-width="1">
    <line x1="415" y1="276" x2="412" y2="263"/>
    <circle cx="415" cy="276" r="2"/>
    <circle cx="412" cy="263" r="2"/>
  </g>
  <g stroke="chocolate" stroke-width="1">
    <line x1="419" y1="244" x2="431" y2="189"/>
    <circle cx="419" cy="244" r="2"/>
    <circle cx="431" cy="189" r="2"/>
  </g>
  <g stroke="chocolate" stroke-width="1">
    <line x1="423" y1="263" x2="436" y2="186"/>
    <circle cx="423" cy="263" r="2"/>
    <circle cx="436" cy="186" r="2"/>
  </g>
  <g stroke="chocolate" stroke-width="1">
    <line x1="361" y1="146" x2="344" y2="65"/>
    <circle cx="361" cy="146" r="2"/>
    <circle cx="344" cy="65" r="2"/>
  </g>
  <g stroke="chocolate" stroke-width="1">
    <line x1="423" y1="263" x2="419" y2="244"/>
    <circle cx="423" cy="263" r="2"/>
    <circle cx="419" cy="244" r="2"/>
  </g>
  <g stroke="chocolate" stroke-width="1">
    <line x1="110" y1="428" x2="122" y2="372"/>
    <circle cx="110" cy="428" r="2"/>
    <circle cx="122" cy="372" r="2"/>
  </g>
  <g stroke="chocolate" stroke-width="1">
    <line x1="380" y1="337" x2="380" y2="328"/>
    <circle cx="380" cy="337" r="2"/>
    <circle cx="380" cy="328" r="2"/>
  </g>
  <g stroke="chocolate" stroke-width="1">
    <line x1="348" y1="151" x2="348" y2="126"/>
    <circle cx="348" cy="151" r="2"/>
    <circle cx="348" cy="126" r="2"/>
  </g>
  <g stroke="chocolate" stroke-width="1">
    <line x1="225" y1="336" x2="232" y2="163"/>
    <circle cx="225" cy="336" r="2"/>
    <circle cx="232" cy="163" r="2"/>
  </g>
  <g stroke="black" stroke-width="1">
    <line x1="5" y1="5" x2="505" y2="5"/>
    <line x1="5" y1="5" x2="5" y2="505"/>
    <line x1="505" y1="505" x2="5" y2="505"/>
    <line x1="505" y1="505" x2="505" y2="5"/>
    <line x1="105" y1="2" x2="105" y2="8"/>
    <line x1="2" y1="105" x2="8" y2="105"/>
    <line x1="105" y1="502" x2="105" y2="508"/>
    <line x1="502" y1="105" x2="508" y2="105"/>
    <line x1="205" y1="2" x2="205" y2="8"/>
    <line x1="2" y1="205" x2="8" y2="205"/>
    <line x1="205" y1="502" x2="205" y2="508"/>
    <line x1="502" y1="205" x2="508" y2="205"/>
    <line x1="305" y1="2" x2="305" y2="8"/>
    <line x1="2" y1="305" x2="8" y2="305"/>
    <line x1="305" y1="502" x2="305" y2="508"/>
    <line x1="502" y1="305" x2="508" y2="305"/>
    <line x1="405" y1="2" x2="405" y2="8"/>
    <line x1="2" y1="405" x2="8" y2="405"/>
    <line x1="405" y1="502" x2="405" y2="508"/>
    <line x1="502" y1="405" x2="508" y2="405"/>
  </g>
  <g stroke="gray" stroke-width="1" stroke-dasharray="5,5">
    <line x1="105" y1="5" x2="105" y2="505"/>
    <line x1="5" y1="105" x2="505" y2="105"/>
    <line x1="205" y1="5" x2="205" y2="505"/>
    <line x1="5" y1="205" x2="505" y2="205"/>
    <line x1="305" y1="5" x2="305" y2="505"/>
    <line x1="5" y1="305" x2="505" y2="305"/>
    <line x1="405" y1="5" x2="405" y2="505"/>
    <line x1="5" y1="405" x2="505" y2="405"/>
  </g>
</svg>
