<?xml version="1.0" standalone="no"?>
<!DOCTYPE svg PUBLIC "-//W3C//DTD SVG 1.1//EN" 
  "http://www.w3.org/Graphics/SVG/1.1/DTD/svg11.dtd">
<svg width="510" height="510" version="1.1" id="toplevel"
    xmlns="http://www.w3.org/2000/svg"
    xmlns:xlink="http://www.w3.org/1999/xlink">
  <polygon points="371,408 355,365 234,162 194,102 141,115 139,127 168,186 177,208 144,225 169,274 209,274 301,388"
           fill="bisque"/>
  <g stroke="chocolate" stroke-width="1">
    <line x1="263" y1="341" x2="297" y2="331"/>
    <circle cx="263" cy="341" r="2"/>
    <circle cx="297" cy="331" r="2"/>
  </g>
  <g stroke="chocolate" stroke-width="1">
    <line x1="280" y1="362" x2="299" y2="361"/>
    <circle cx="280" cy="362" r="2"/>
    <circle cx="299" cy="361" r="2"/>
  </g>
  <g stroke="chocolate" stroke-width="1">
    <line x1="211" y1="259" x2="275" y2="230"/>
    <circle cx="211" cy="259" r="2"/>
    <circle cx="275" cy="230" r="2"/>
  </g>
  <g stroke="chocolate" stroke-width="1">
    <line x1="214" y1="281" x2="298" y2="269"/>
    <circle cx="214" cy="281" r="2"/>
    <circle cx="298" cy="269" r="2"/>
  </g>
  <g stroke="chocolate" stroke-width="1">
    <line x1="212" y1="278" x2="275" y2="230"/>
    <circle cx="212" cy="278" r="2"/>
    <circle cx="275" cy="230" r="2"/>
  </g>
  <g stroke="chocolate" stroke-width="1">
    <line x1="144" y1="225" x2="242" y2="175"/>
    <circle cx="144" cy="225" r="2"/>
    <circle cx="242" cy="175" r="2"/>
  </g>
  <g stroke="chocolate" stroke-width="1">
    <line x1="203" y1="267" x2="206" y2="267"/>
    <circle cx="203" cy="267" r="2"/>
    <circle cx="206" cy="267" r="2"/>
  </g>
  <g stroke="chocolate" stroke-width="1">
    <line x1="212" y1="278" x2="217" y2="274"/>
    <circle cx="212" cy="278" r="2"/>
    <circle cx="217" cy="274" r="2"/>
  </g>
  <g stroke="chocolate" stroke-width="1">
    <line x1="181" y1="217" x2="258" y2="202"/>
    <circle cx="181" cy="217" r="2"/>
    <circle cx="258" cy="202" r="2"/>
  </g>
  <g stroke="chocolate" stroke-width="1">
    <line x1="181" y1="217" x2="242" y2="175"/>
    <circle cx="181" cy="217" r="2"/>
    <circle cx="242" cy="175" r="2"/>
  </g>
  <g stroke="chocolate" stroke-width="1">
    <line x1="169" y1="274" x2="300" y2="273"/>
    <circle cx="169" cy="274" r="2"/>
    <circle cx="300" cy="273" r="2"/>
  </g>
  <g stroke="chocolate" stroke-width="1">
    <line x1="192" y1="105" x2="195" y2="104"/>
    <circle cx="192" cy="105" r="2"/>
    <circle cx="195" cy="104" r="2"/>
  </g>
  <g stroke="chocolate" stroke-width="1">
    <line x1="141" y1="115" x2="194" y2="102"/>
    <circle cx="141" cy="115" r="2"/>
    <circle cx="194" cy="102" r="2"/>
  </g>
  <g stroke="chocolate" stroke-width="1">
    <line x1="228" y1="154" x2="228" y2="154"/>
    <circle cx="228" cy="154" r="2"/>
    <circle cx="228" cy="154" r="2"/>
  </g>
  <g stroke="chocolate" stroke-width="1">
    <line x1="294" y1="274" x2="298" y2="269"/>
    <circle cx="294" cy="274" r="2"/>
    <circle cx="298" cy="269" r="2"/>
  </g>
  <g stroke="chocolate" stroke-width="1">
    <line x1="218" y1="174" x2="241" y2="174"/>
    <circle cx="218" cy="174" r="2"/>
    <circle cx="241" cy="174" r="2"/>
  </g>
  <g stroke="chocolate" stroke-width="1">
    <line x1="211" y1="259" x2="258" y2="202"/>
    <circle cx="211" cy="259" r="2"/>
    <circle cx="258" cy="202" r="2"/>
  </g>
  <g stroke="chocolate" stroke-width="1">
    <line x1="371" y1="408" x2="301" y2="388"/>
    <circle cx="371" cy="408" r="2"/>
    <circle cx="301" cy="388" r="2"/>
  </g>
  <g stroke="chocolate" stroke-width="1">
    <line x1="153" y1="150" x2="195" y2="104"/>
    <circle cx="153" cy="150" r="2"/>
    <circle cx="195" cy="104" r="2"/>
  </g>
  <g stroke="chocolate" stroke-width="1">
    <line x1="228" y1="153" x2="153" y2="150"/>
    <circle cx="228" cy="153" r="2"/>
    <circle cx="153" cy="150" r="2"/>
  </g>
  <g stroke="chocolate" stroke-width="1">
    <line x1="304" y1="280" x2="203" y2="257"/>
    <circle cx="304" cy="280" r="2"/>
    <circle cx="203" cy="257" r="2"/>
  </g>
  <g stroke="chocolate" stroke-width="1">
    <line x1="263" y1="341" x2="300" y2="273"/>
    <circle cx="263" cy="341" r="2"/>
    <circle cx="300" cy="273" r="2"/>
  </g>
  <g stroke="chocolate" stroke-width="1">
    <line x1="192" y1="105" x2="194" y2="102"/>
    <circle cx="192" cy="105" r="2"/>
    <circle cx="194" cy="102" r="2"/>
  </g>
  <g stroke="chocolate" stroke-width="1">
    <line x1="206" y1="257" x2="196" y2="255"/>
    <circle cx="206" cy="257" r="2"/>
    <circle cx="196" cy="255" r="2"/>
  </g>
  <g stroke="chocolate" stroke-width="1">
    <line x1="196" y1="255" x2="241" y2="174"/>
    <circle cx="196" cy="255" r="2"/>
    <circle cx="241" cy="174" r="2"/>
  </g>
  <g stroke="chocolate" stroke-width="1">
    <line x1="169" y1="274" x2="228" y2="154"/>
    <circle cx="169" cy="274" r="2"/>
    <circle cx="228" cy="154" r="2"/>
  </g>
  <g stroke="chocolate" stroke-width="1">
    <line x1="203" y1="257" x2="241" y2="174"/>
    <circle cx="203" cy="257" r="2"/>
    <circle cx="241" cy="174" r="2"/>
  </g>
  <g stroke="chocolate" stroke-width="1">
    <line x1="214" y1="281" x2="217" y2="274"/>
    <circle cx="214" cy="281" r="2"/>
    <circle cx="217" cy="274" r="2"/>
  </g>
  <g stroke="chocolate" stroke-width="1">
    <line x1="228" y1="154" x2="228" y2="153"/>
    <circle cx="228" cy="154" r="2"/>
    <circle cx="228" cy="153" r="2"/>
  </g>
  <g stroke="chocolate" stroke-width="1">
    <line x1="279" y1="312" x2="208" y2="273"/>
    <circle cx="279" cy="312" r="2"/>
    <circle cx="208" cy="273" r="2"/>
  </g>
  <g stroke="chocolate" stroke-width="1">
    <line x1="280" y1="362" x2="304" y2="280"/>
    <circle cx="280" cy="362" r="2"/>
    <circle cx="304" cy="280" r="2"/>
  </g>
  <g stroke="chocolate" stroke-width="1">
    <line x1="241" y1="174" x2="139" y2="127"/>
    <circle cx="241" cy="174" r="2"/>
    <circle cx="139" cy="127" r="2"/>
  </g>
  <g stroke="chocolate" stroke-width="1">
    <line x1="203" y1="267" x2="220" y2="209"/>
    <circle cx="203" cy="267" r="2"/>
    <circle cx="220" cy="209" r="2"/>
  </g>
  <g stroke="chocolate" stroke-width="1">
    <line x1="297" y1="331" x2="200" y2="262"/>
    <circle cx="297" cy="331" r="2"/>
    <circle cx="200" cy="262" r="2"/>
  </g>
  <g stroke="chocolate" stroke-width="1">
    <line x1="139" y1="127" x2="141" y2="115"/>
    <circle cx="139" cy="127" r="2"/>
    <circle cx="141" cy="115" r="2"/>
  </g>
  <g stroke="chocolate" stroke-width="1">
    <line x1="301" y1="388" x2="200" y2="262"/>
    <circle cx="301" cy="388" r="2"/>
    <circle cx="200" cy="262" r="2"/>
  </g>
  <g stroke="chocolate" stroke-width="1">
    <line x1="301" y1="388" x2="297" y2="331"/>
    <circle cx="301" cy="388" r="2"/>
    <circle cx="297" cy="331" r="2"/>
  </g>
  <g stroke="chocolate" stroke-width="1">
    <line x1="355" y1="365" x2="141" y2="115"/>
    <circle cx="355" cy="365" r="2"/>
    <circle cx="141" cy="115" r="2"/>
  </g>
  <g stroke="chocolate" stroke-width="1">
    <line x1="371" y1="408" x2="220" y2="209"/>
    <circle cx="371" cy="408" r="2"/>
    <circle cx="220" cy="209" r="2"/>
  </g>
  <g stroke="chocolate" stroke-width="1">
    <line x1="169" y1="274" x2="144" y2="225"/>
    <circle cx="169" cy="274" r="2"/>
    <circle cx="144" cy="225" r="2"/>
  </g>
  <g stroke="chocolate" stroke-width="1">
    <line x1="294" y1="274" x2="218" y2="174"/>
    <circle cx="294" cy="274" r="2"/>
    <circle cx="218" cy="174" r="2"/>
  </g>
  <g stroke="chocolate" stroke-width="1">
    <line x1="234" y1="162" x2="192" y2="105"/>
    <circle cx="234" cy="162" r="2"/>
    <circle cx="192" cy="105" r="2"/>
  </g>
  <g stroke="chocolate" stroke-width="1">
    <line x1="203" y1="257" x2="139" y2="127"/>
    <circle cx="203" cy="257" r="2"/>
    <circle cx="139" cy="127" r="2"/>
  </g>
  <g stroke="chocolate" stroke-width="1">
    <line x1="208" y1="273" x2="206" y2="267"/>
    <circle cx="208" cy="273" r="2"/>
    <circle cx="206" cy="267" r="2"/>
  </g>
  <g stroke="chocolate" stroke-width="1">
    <line x1="200" y1="262" x2="153" y2="150"/>
    <circle cx="200" cy="262" r="2"/>
    <circle cx="153" cy="150" r="2"/>
  </g>
  <g stroke="chocolate" stroke-width="1">
    <line x1="234" y1="162" x2="194" y2="102"/>
    <circle cx="234" cy="162" r="2"/>
    <circle cx="194" cy="102" r="2"/>
  </g>
  <g stroke="chocolate" stroke-width="1">
    <line x1="355" y1="365" x2="234" y2="162"/>
    <circle cx="355" cy="365" r="2"/>
    <circle cx="234" cy="162" r="2"/>
  </g>
  <g stroke="chocolate" stroke-width="1">
    <line x1="371" y1="408" x2="355" y2="365"/>
    <circle cx="371" cy="408" r="2"/>
    <circle cx="355" cy="365" r="2"/>
  </g>
  <g stroke="black" stroke-width="1">
    <line x1="5" y1="5" x2="505" y2="5"/>
    <line x1="5" y1="5" x2="5" y2="505"/>
    <line x1="505" y1="505" x2="5" y2="505"/>
    <line x1="505" y1="505" x2="505" y2="5"/>
    <line x1="105" y1="2" x2="105" y2="8"/>
    <line x1="2" y1="105" x2="8" y2="105"/>
    <line x1="105" y1="502" x2="105" y2="508"/>
    <line x1="502" y1="105" x2="508" y2="105"/>
    <line x1="205" y1="2" x2="205" y2="8"/>
    <line x1="2" y1="205" x2="8" y2="205"/>
    <line x1="205" y1="502" x2="205" y2="508"/>
    <line x1="502" y1="205" x2="508" y2="205"/>
    <line x1="305" y1="2" x2="305" y2="8"/>
    <line x1="2" y1="305" x2="8" y2="305"/>
    <line x1="305" y1="502" x2="305" y2="508"/>
    <line x1="502" y1="305" x2="508" y2="305"/>
    <line x1="405" y1="2" x2="405" y2="8"/>
    <line x1="2" y1="405" x2="8" y2="405"/>
    <line x1="405" y1="502" x2="405" y2="508"/>
    <line x1="502" y1="405" x2="508" y2="405"/>
  </g>
  <g stroke="gray" stroke-width="1" stroke-dasharray="5,5">
    <line x1="105" y1="5" x2="105" y2="505"/>
    <line x1="5" y1="105" x2="505" y2="105"/>
    <line x1="205" y1="5" x2="205" y2="505"/>
    <line x1="5" y1="205" x2="505" y2="205"/>
    <line x1="305" y1="5" x2="305" y2="505"/>
    <line x1="5" y1="305" x2="505" y2="305"/>
    <line x1="405" y1="5" x2="405" y2="505"/>
    <line x1="5" y1="405" x2="505" y2="405"/>
  </g>
</svg>
