<?xml version="1.0" standalone="no"?>
<!DOCTYPE svg PUBLIC "-//W3C//DTD SVG 1.1//EN" 
  "http://www.w3.org/Graphics/SVG/1.1/DTD/svg11.dtd">
<svg width="510" height="510" version="1.1" id="toplevel"
    xmlns="http://www.w3.org/2000/svg"
    xmlns:xlink="http://www.w3.org/1999/xlink">
  <polygon points="310,363 427,217 101,147 83,229 261,352" fill="bisque"/>
  <g stroke="chocolate" stroke-width="1">
    <line x1="250" y1="344" x2="298" y2="313"/>
    <circle cx="250" cy="344" r="2"/>
    <circle cx="298" cy="313" r="2"/>
  </g>
  <g stroke="chocolate" stroke-width="1">
    <line x1="301" y1="327" x2="427" y2="217"/>
    <circle cx="301" cy="327" r="2"/>
    <circle cx="427" cy="217" r="2"/>
  </g>
  <g stroke="chocolate" stroke-width="1">
    <line x1="83" y1="229" x2="153" y2="184"/>
    <circle cx="83" cy="229" r="2"/>
    <circle cx="153" cy="184" r="2"/>
  </g>
  <g stroke="chocolate" stroke-width="1">
    <line x1="98" y1="158" x2="112" y2="150"/>
    <circle cx="98" cy="158" r="2"/>
    <circle cx="112" cy="150" r="2"/>
  </g>
  <g stroke="chocolate" stroke-width="1">
    <line x1="92" y1="188" x2="155" y2="159"/>
    <circle cx="92" cy="188" r="2"/>
    <circle cx="155" cy="159" r="2"/>
  </g>
  <g stroke="chocolate" stroke-width="1">
    <line x1="310" y1="363" x2="427" y2="217"/>
    <circle cx="310" cy="363" r="2"/>
    <circle cx="427" cy="217" r="2"/>
  </g>
  <g stroke="chocolate" stroke-width="1">
    <line x1="152" y1="276" x2="186" y2="235"/>
    <circle cx="152" cy="276" r="2"/>
    <circle cx="186" cy="235" r="2"/>
  </g>
  <g stroke="chocolate" stroke-width="1">
    <line x1="118" y1="253" x2="186" y2="235"/>
    <circle cx="118" cy="253" r="2"/>
    <circle cx="186" cy="235" r="2"/>
  </g>
  <g stroke="chocolate" stroke-width="1">
    <line x1="128" y1="260" x2="169" y2="208"/>
    <circle cx="128" cy="260" r="2"/>
    <circle cx="169" cy="208" r="2"/>
  </g>
  <g stroke="chocolate" stroke-width="1">
    <line x1="83" y1="229" x2="169" y2="208"/>
    <circle cx="83" cy="229" r="2"/>
    <circle cx="169" cy="208" r="2"/>
  </g>
  <g stroke="chocolate" stroke-width="1">
    <line x1="128" y1="260" x2="177" y2="178"/>
    <circle cx="128" cy="260" r="2"/>
    <circle cx="177" cy="178" r="2"/>
  </g>
  <g stroke="chocolate" stroke-width="1">
    <line x1="152" y1="276" x2="177" y2="233"/>
    <circle cx="152" cy="276" r="2"/>
    <circle cx="177" cy="233" r="2"/>
  </g>
  <g stroke="chocolate" stroke-width="1">
    <line x1="100" y1="161" x2="107" y2="149"/>
    <circle cx="100" cy="161" r="2"/>
    <circle cx="107" cy="149" r="2"/>
  </g>
  <g stroke="chocolate" stroke-width="1">
    <line x1="100" y1="161" x2="141" y2="156"/>
    <circle cx="100" cy="161" r="2"/>
    <circle cx="141" cy="156" r="2"/>
  </g>
  <g stroke="chocolate" stroke-width="1">
    <line x1="177" y1="233" x2="83" y2="229"/>
    <circle cx="177" cy="233" r="2"/>
    <circle cx="83" cy="229" r="2"/>
  </g>
  <g stroke="chocolate" stroke-width="1">
    <line x1="243" y1="324" x2="218" y2="322"/>
    <circle cx="243" cy="324" r="2"/>
    <circle cx="218" cy="322" r="2"/>
  </g>
  <g stroke="chocolate" stroke-width="1">
    <line x1="310" y1="363" x2="261" y2="352"/>
    <circle cx="310" cy="363" r="2"/>
    <circle cx="261" cy="352" r="2"/>
  </g>
  <g stroke="chocolate" stroke-width="1">
    <line x1="250" y1="344" x2="251" y2="336"/>
    <circle cx="250" cy="344" r="2"/>
    <circle cx="251" cy="336" r="2"/>
  </g>
  <g stroke="chocolate" stroke-width="1">
    <line x1="251" y1="336" x2="232" y2="332"/>
    <circle cx="251" cy="336" r="2"/>
    <circle cx="232" cy="332" r="2"/>
  </g>
  <g stroke="chocolate" stroke-width="1">
    <line x1="83" y1="229" x2="101" y2="147"/>
    <circle cx="83" cy="229" r="2"/>
    <circle cx="101" cy="147" r="2"/>
  </g>
  <g stroke="chocolate" stroke-width="1">
    <line x1="427" y1="217" x2="101" y2="147"/>
    <circle cx="427" cy="217" r="2"/>
    <circle cx="101" cy="147" r="2"/>
  </g>
  <g stroke="chocolate" stroke-width="1">
    <line x1="243" y1="324" x2="195" y2="306"/>
    <circle cx="243" cy="324" r="2"/>
    <circle cx="195" cy="306" r="2"/>
  </g>
  <g stroke="chocolate" stroke-width="1">
    <line x1="298" y1="313" x2="83" y2="229"/>
    <circle cx="298" cy="313" r="2"/>
    <circle cx="83" cy="229" r="2"/>
  </g>
  <g stroke="chocolate" stroke-width="1">
    <line x1="118" y1="253" x2="107" y2="149"/>
    <circle cx="118" cy="253" r="2"/>
    <circle cx="107" cy="149" r="2"/>
  </g>
  <g stroke="chocolate" stroke-width="1">
    <line x1="177" y1="178" x2="141" y2="156"/>
    <circle cx="177" cy="178" r="2"/>
    <circle cx="141" cy="156" r="2"/>
  </g>
  <g stroke="chocolate" stroke-width="1">
    <line x1="261" y1="352" x2="83" y2="229"/>
    <circle cx="261" cy="352" r="2"/>
    <circle cx="83" cy="229" r="2"/>
  </g>
  <g stroke="chocolate" stroke-width="1">
    <line x1="310" y1="363" x2="298" y2="313"/>
    <circle cx="310" cy="363" r="2"/>
    <circle cx="298" cy="313" r="2"/>
  </g>
  <g stroke="chocolate" stroke-width="1">
    <line x1="195" y1="306" x2="92" y2="188"/>
    <circle cx="195" cy="306" r="2"/>
    <circle cx="92" cy="188" r="2"/>
  </g>
  <g stroke="chocolate" stroke-width="1">
    <line x1="218" y1="322" x2="177" y2="233"/>
    <circle cx="218" cy="322" r="2"/>
    <circle cx="177" cy="233" r="2"/>
  </g>
  <g stroke="chocolate" stroke-width="1">
    <line x1="301" y1="327" x2="155" y2="159"/>
    <circle cx="301" cy="327" r="2"/>
    <circle cx="155" cy="159" r="2"/>
  </g>
  <g stroke="chocolate" stroke-width="1">
    <line x1="100" y1="161" x2="98" y2="158"/>
    <circle cx="100" cy="161" r="2"/>
    <circle cx="98" cy="158" r="2"/>
  </g>
  <g stroke="chocolate" stroke-width="1">
    <line x1="232" y1="332" x2="112" y2="150"/>
    <circle cx="232" cy="332" r="2"/>
    <circle cx="112" cy="150" r="2"/>
  </g>
  <g stroke="chocolate" stroke-width="1">
    <line x1="261" y1="352" x2="153" y2="184"/>
    <circle cx="261" cy="352" r="2"/>
    <circle cx="153" cy="184" r="2"/>
  </g>
  <g stroke="black" stroke-width="1">
    <line x1="5" y1="5" x2="505" y2="5"/>
    <line x1="5" y1="5" x2="5" y2="505"/>
    <line x1="505" y1="505" x2="5" y2="505"/>
    <line x1="505" y1="505" x2="505" y2="5"/>
    <line x1="105" y1="2" x2="105" y2="8"/>
    <line x1="2" y1="105" x2="8" y2="105"/>
    <line x1="105" y1="502" x2="105" y2="508"/>
    <line x1="502" y1="105" x2="508" y2="105"/>
    <line x1="205" y1="2" x2="205" y2="8"/>
    <line x1="2" y1="205" x2="8" y2="205"/>
    <line x1="205" y1="502" x2="205" y2="508"/>
    <line x1="502" y1="205" x2="508" y2="205"/>
    <line x1="305" y1="2" x2="305" y2="8"/>
    <line x1="2" y1="305" x2="8" y2="305"/>
    <line x1="305" y1="502" x2="305" y2="508"/>
    <line x1="502" y1="305" x2="508" y2="305"/>
    <line x1="405" y1="2" x2="405" y2="8"/>
    <line x1="2" y1="405" x2="8" y2="405"/>
    <line x1="405" y1="502" x2="405" y2="508"/>
    <line x1="502" y1="405" x2="508" y2="405"/>
  </g>
  <g stroke="gray" stroke-width="1" stroke-dasharray="5,5">
    <line x1="105" y1="5" x2="105" y2="505"/>
    <line x1="5" y1="105" x2="505" y2="105"/>
    <line x1="205" y1="5" x2="205" y2="505"/>
    <line x1="5" y1="205" x2="505" y2="205"/>
    <line x1="305" y1="5" x2="305" y2="505"/>
    <line x1="5" y1="305" x2="505" y2="305"/>
    <line x1="405" y1="5" x2="405" y2="505"/>
    <line x1="5" y1="405" x2="505" y2="405"/>
  </g>
</svg>
