<?xml version="1.0" standalone="no"?>
<!DOCTYPE svg PUBLIC "-//W3C//DTD SVG 1.1//EN" 
  "http://www.w3.org/Graphics/SVG/1.1/DTD/svg11.dtd">
<svg width="510" height="510" version="1.1" id="toplevel"
    xmlns="http://www.w3.org/2000/svg"
    xmlns:xlink="http://www.w3.org/1999/xlink">
  <polygon points="339,378 368,369 409,314 376,254 384,248 310,132 175,212 103,233 101,256 131,286 148,292 146,300 183,337"
           fill="bisque"/>
  <g stroke="chocolate" stroke-width="1">
    <line x1="339" y1="378" x2="368" y2="369"/>
    <circle cx="339" cy="378" r="2"/>
    <circle cx="368" cy="369" r="2"/>
  </g>
  <g stroke="chocolate" stroke-width="1">
    <line x1="296" y1="366" x2="315" y2="353"/>
    <circle cx="296" cy="366" r="2"/>
    <circle cx="315" cy="353" r="2"/>
  </g>
  <g stroke="chocolate" stroke-width="1">
    <line x1="185" y1="338" x2="231" y2="318"/>
    <circle cx="185" cy="338" r="2"/>
    <circle cx="231" cy="318" r="2"/>
  </g>
  <g stroke="chocolate" stroke-width="1">
    <line x1="253" y1="334" x2="280" y2="318"/>
    <circle cx="253" cy="334" r="2"/>
    <circle cx="280" cy="318" r="2"/>
  </g>
  <g stroke="chocolate" stroke-width="1">
    <line x1="341" y1="276" x2="384" y2="248"/>
    <circle cx="341" cy="276" r="2"/>
    <circle cx="384" cy="248" r="2"/>
  </g>
  <g stroke="chocolate" stroke-width="1">
    <line x1="249" y1="354" x2="289" y2="327"/>
    <circle cx="249" cy="354" r="2"/>
    <circle cx="289" cy="327" r="2"/>
  </g>
  <g stroke="chocolate" stroke-width="1">
    <line x1="148" y1="303" x2="172" y2="295"/>
    <circle cx="148" cy="303" r="2"/>
    <circle cx="172" cy="295" r="2"/>
  </g>
  <g stroke="chocolate" stroke-width="1">
    <line x1="154" y1="261" x2="247" y2="223"/>
    <circle cx="154" cy="261" r="2"/>
    <circle cx="247" cy="223" r="2"/>
  </g>
  <g stroke="chocolate" stroke-width="1">
    <line x1="225" y1="348" x2="273" y2="310"/>
    <circle cx="225" cy="348" r="2"/>
    <circle cx="273" cy="310" r="2"/>
  </g>
  <g stroke="chocolate" stroke-width="1">
    <line x1="279" y1="362" x2="300" y2="343"/>
    <circle cx="279" cy="362" r="2"/>
    <circle cx="300" cy="343" r="2"/>
  </g>
  <g stroke="chocolate" stroke-width="1">
    <line x1="146" y1="300" x2="172" y2="295"/>
    <circle cx="146" cy="300" r="2"/>
    <circle cx="172" cy="295" r="2"/>
  </g>
  <g stroke="chocolate" stroke-width="1">
    <line x1="162" y1="220" x2="310" y2="132"/>
    <circle cx="162" cy="220" r="2"/>
    <circle cx="310" cy="132" r="2"/>
  </g>
  <g stroke="chocolate" stroke-width="1">
    <line x1="103" y1="233" x2="177" y2="212"/>
    <circle cx="103" cy="233" r="2"/>
    <circle cx="177" cy="212" r="2"/>
  </g>
  <g stroke="chocolate" stroke-width="1">
    <line x1="157" y1="275" x2="203" y2="238"/>
    <circle cx="157" cy="275" r="2"/>
    <circle cx="203" cy="238" r="2"/>
  </g>
  <g stroke="chocolate" stroke-width="1">
    <line x1="108" y1="262" x2="118" y2="254"/>
    <circle cx="108" cy="262" r="2"/>
    <circle cx="118" cy="254" r="2"/>
  </g>
  <g stroke="chocolate" stroke-width="1">
    <line x1="177" y1="332" x2="201" y2="308"/>
    <circle cx="177" cy="332" r="2"/>
    <circle cx="201" cy="308" r="2"/>
  </g>
  <g stroke="chocolate" stroke-width="1">
    <line x1="101" y1="256" x2="118" y2="254"/>
    <circle cx="101" cy="256" r="2"/>
    <circle cx="118" cy="254" r="2"/>
  </g>
  <g stroke="chocolate" stroke-width="1">
    <line x1="177" y1="332" x2="180" y2="329"/>
    <circle cx="177" cy="332" r="2"/>
    <circle cx="180" cy="329" r="2"/>
  </g>
  <g stroke="chocolate" stroke-width="1">
    <line x1="253" y1="334" x2="273" y2="310"/>
    <circle cx="253" cy="334" r="2"/>
    <circle cx="273" cy="310" r="2"/>
  </g>
  <g stroke="chocolate" stroke-width="1">
    <line x1="368" y1="369" x2="409" y2="314"/>
    <circle cx="368" cy="369" r="2"/>
    <circle cx="409" cy="314" r="2"/>
  </g>
  <g stroke="chocolate" stroke-width="1">
    <line x1="303" y1="368" x2="315" y2="353"/>
    <circle cx="303" cy="368" r="2"/>
    <circle cx="315" cy="353" r="2"/>
  </g>
  <g stroke="chocolate" stroke-width="1">
    <line x1="179" y1="225" x2="318" y2="220"/>
    <circle cx="179" cy="225" r="2"/>
    <circle cx="318" cy="220" r="2"/>
  </g>
  <g stroke="chocolate" stroke-width="1">
    <line x1="155" y1="295" x2="203" y2="238"/>
    <circle cx="155" cy="295" r="2"/>
    <circle cx="203" cy="238" r="2"/>
  </g>
  <g stroke="chocolate" stroke-width="1">
    <line x1="265" y1="359" x2="289" y2="327"/>
    <circle cx="265" cy="359" r="2"/>
    <circle cx="289" cy="327" r="2"/>
  </g>
  <g stroke="chocolate" stroke-width="1">
    <line x1="108" y1="262" x2="139" y2="223"/>
    <circle cx="108" cy="262" r="2"/>
    <circle cx="139" cy="223" r="2"/>
  </g>
  <g stroke="chocolate" stroke-width="1">
    <line x1="255" y1="356" x2="280" y2="318"/>
    <circle cx="255" cy="356" r="2"/>
    <circle cx="280" cy="318" r="2"/>
  </g>
  <g stroke="chocolate" stroke-width="1">
    <line x1="409" y1="314" x2="256" y2="283"/>
    <circle cx="409" cy="314" r="2"/>
    <circle cx="256" cy="283" r="2"/>
  </g>
  <g stroke="chocolate" stroke-width="1">
    <line x1="339" y1="378" x2="183" y2="337"/>
    <circle cx="339" cy="378" r="2"/>
    <circle cx="183" cy="337" r="2"/>
  </g>
  <g stroke="chocolate" stroke-width="1">
    <line x1="180" y1="329" x2="171" y2="326"/>
    <circle cx="180" cy="329" r="2"/>
    <circle cx="171" cy="326" r="2"/>
  </g>
  <g stroke="chocolate" stroke-width="1">
    <line x1="239" y1="276" x2="163" y2="256"/>
    <circle cx="239" cy="276" r="2"/>
    <circle cx="163" cy="256" r="2"/>
  </g>
  <g stroke="chocolate" stroke-width="1">
    <line x1="247" y1="223" x2="184" y2="207"/>
    <circle cx="247" cy="223" r="2"/>
    <circle cx="184" cy="207" r="2"/>
  </g>
  <g stroke="chocolate" stroke-width="1">
    <line x1="368" y1="369" x2="231" y2="318"/>
    <circle cx="368" cy="369" r="2"/>
    <circle cx="231" cy="318" r="2"/>
  </g>
  <g stroke="chocolate" stroke-width="1">
    <line x1="341" y1="276" x2="162" y2="220"/>
    <circle cx="341" cy="276" r="2"/>
    <circle cx="162" cy="220" r="2"/>
  </g>
  <g stroke="chocolate" stroke-width="1">
    <line x1="253" y1="334" x2="131" y2="286"/>
    <circle cx="253" cy="334" r="2"/>
    <circle cx="131" cy="286" r="2"/>
  </g>
  <g stroke="chocolate" stroke-width="1">
    <line x1="254" y1="291" x2="163" y2="256"/>
    <circle cx="254" cy="291" r="2"/>
    <circle cx="163" cy="256" r="2"/>
  </g>
  <g stroke="chocolate" stroke-width="1">
    <line x1="172" y1="234" x2="139" y2="223"/>
    <circle cx="172" cy="234" r="2"/>
    <circle cx="139" cy="223" r="2"/>
  </g>
  <g stroke="chocolate" stroke-width="1">
    <line x1="148" y1="303" x2="177" y2="212"/>
    <circle cx="148" cy="303" r="2"/>
    <circle cx="177" cy="212" r="2"/>
  </g>
  <g stroke="chocolate" stroke-width="1">
    <line x1="179" y1="225" x2="184" y2="207"/>
    <circle cx="179" cy="225" r="2"/>
    <circle cx="184" cy="207" r="2"/>
  </g>
  <g stroke="chocolate" stroke-width="1">
    <line x1="146" y1="300" x2="162" y2="220"/>
    <circle cx="146" cy="300" r="2"/>
    <circle cx="162" cy="220" r="2"/>
  </g>
  <g stroke="chocolate" stroke-width="1">
    <line x1="318" y1="220" x2="243" y2="172"/>
    <circle cx="318" cy="220" r="2"/>
    <circle cx="243" cy="172" r="2"/>
  </g>
  <g stroke="chocolate" stroke-width="1">
    <line x1="101" y1="256" x2="103" y2="233"/>
    <circle cx="101" cy="256" r="2"/>
    <circle cx="103" cy="233" r="2"/>
  </g>
  <g stroke="chocolate" stroke-width="1">
    <line x1="155" y1="295" x2="159" y2="217"/>
    <circle cx="155" cy="295" r="2"/>
    <circle cx="159" cy="217" r="2"/>
  </g>
  <g stroke="chocolate" stroke-width="1">
    <line x1="172" y1="234" x2="172" y2="213"/>
    <circle cx="172" cy="234" r="2"/>
    <circle cx="172" cy="213" r="2"/>
  </g>
  <g stroke="chocolate" stroke-width="1">
    <line x1="183" y1="337" x2="146" y2="300"/>
    <circle cx="183" cy="337" r="2"/>
    <circle cx="146" cy="300" r="2"/>
  </g>
  <g stroke="chocolate" stroke-width="1">
    <line x1="131" y1="286" x2="101" y2="256"/>
    <circle cx="131" cy="286" r="2"/>
    <circle cx="101" cy="256" r="2"/>
  </g>
  <g stroke="chocolate" stroke-width="1">
    <line x1="201" y1="308" x2="154" y2="261"/>
    <circle cx="201" cy="308" r="2"/>
    <circle cx="154" cy="261" r="2"/>
  </g>
  <g stroke="chocolate" stroke-width="1">
    <line x1="255" y1="356" x2="243" y2="172"/>
    <circle cx="255" cy="356" r="2"/>
    <circle cx="243" cy="172" r="2"/>
  </g>
  <g stroke="chocolate" stroke-width="1">
    <line x1="339" y1="378" x2="177" y2="212"/>
    <circle cx="339" cy="378" r="2"/>
    <circle cx="177" cy="212" r="2"/>
  </g>
  <g stroke="chocolate" stroke-width="1">
    <line x1="185" y1="338" x2="103" y2="233"/>
    <circle cx="185" cy="338" r="2"/>
    <circle cx="103" cy="233" r="2"/>
  </g>
  <g stroke="chocolate" stroke-width="1">
    <line x1="265" y1="359" x2="256" y2="283"/>
    <circle cx="265" cy="359" r="2"/>
    <circle cx="256" cy="283" r="2"/>
  </g>
  <g stroke="chocolate" stroke-width="1">
    <line x1="303" y1="368" x2="300" y2="343"/>
    <circle cx="303" cy="368" r="2"/>
    <circle cx="300" cy="343" r="2"/>
  </g>
  <g stroke="chocolate" stroke-width="1">
    <line x1="179" y1="225" x2="171" y2="214"/>
    <circle cx="179" cy="225" r="2"/>
    <circle cx="171" cy="214" r="2"/>
  </g>
  <g stroke="chocolate" stroke-width="1">
    <line x1="172" y1="234" x2="159" y2="217"/>
    <circle cx="172" cy="234" r="2"/>
    <circle cx="159" cy="217" r="2"/>
  </g>
  <g stroke="chocolate" stroke-width="1">
    <line x1="183" y1="337" x2="172" y2="295"/>
    <circle cx="183" cy="337" r="2"/>
    <circle cx="172" cy="295" r="2"/>
  </g>
  <g stroke="chocolate" stroke-width="1">
    <line x1="253" y1="334" x2="239" y2="276"/>
    <circle cx="253" cy="334" r="2"/>
    <circle cx="239" cy="276" r="2"/>
  </g>
  <g stroke="chocolate" stroke-width="1">
    <line x1="171" y1="326" x2="157" y2="275"/>
    <circle cx="171" cy="326" r="2"/>
    <circle cx="157" cy="275" r="2"/>
  </g>
  <g stroke="chocolate" stroke-width="1">
    <line x1="253" y1="334" x2="172" y2="213"/>
    <circle cx="253" cy="334" r="2"/>
    <circle cx="172" cy="213" r="2"/>
  </g>
  <g stroke="chocolate" stroke-width="1">
    <line x1="131" y1="286" x2="118" y2="254"/>
    <circle cx="131" cy="286" r="2"/>
    <circle cx="118" cy="254" r="2"/>
  </g>
  <g stroke="chocolate" stroke-width="1">
    <line x1="225" y1="348" x2="171" y2="214"/>
    <circle cx="225" cy="348" r="2"/>
    <circle cx="171" cy="214" r="2"/>
  </g>
  <g stroke="chocolate" stroke-width="1">
    <line x1="249" y1="354" x2="231" y2="318"/>
    <circle cx="249" cy="354" r="2"/>
    <circle cx="231" cy="318" r="2"/>
  </g>
  <g stroke="chocolate" stroke-width="1">
    <line x1="279" y1="362" x2="254" y2="291"/>
    <circle cx="279" cy="362" r="2"/>
    <circle cx="254" cy="291" r="2"/>
  </g>
  <g stroke="chocolate" stroke-width="1">
    <line x1="296" y1="366" x2="256" y2="283"/>
    <circle cx="296" cy="366" r="2"/>
    <circle cx="256" cy="283" r="2"/>
  </g>
  <g stroke="chocolate" stroke-width="1">
    <line x1="341" y1="276" x2="318" y2="220"/>
    <circle cx="341" cy="276" r="2"/>
    <circle cx="318" cy="220" r="2"/>
  </g>
  <g stroke="chocolate" stroke-width="1">
    <line x1="384" y1="248" x2="310" y2="132"/>
    <circle cx="384" cy="248" r="2"/>
    <circle cx="310" cy="132" r="2"/>
  </g>
  <g stroke="chocolate" stroke-width="1">
    <line x1="409" y1="314" x2="310" y2="132"/>
    <circle cx="409" cy="314" r="2"/>
    <circle cx="310" cy="132" r="2"/>
  </g>
  <g stroke="black" stroke-width="1">
    <line x1="5" y1="5" x2="505" y2="5"/>
    <line x1="5" y1="5" x2="5" y2="505"/>
    <line x1="505" y1="505" x2="5" y2="505"/>
    <line x1="505" y1="505" x2="505" y2="5"/>
    <line x1="105" y1="2" x2="105" y2="8"/>
    <line x1="2" y1="105" x2="8" y2="105"/>
    <line x1="105" y1="502" x2="105" y2="508"/>
    <line x1="502" y1="105" x2="508" y2="105"/>
    <line x1="205" y1="2" x2="205" y2="8"/>
    <line x1="2" y1="205" x2="8" y2="205"/>
    <line x1="205" y1="502" x2="205" y2="508"/>
    <line x1="502" y1="205" x2="508" y2="205"/>
    <line x1="305" y1="2" x2="305" y2="8"/>
    <line x1="2" y1="305" x2="8" y2="305"/>
    <line x1="305" y1="502" x2="305" y2="508"/>
    <line x1="502" y1="305" x2="508" y2="305"/>
    <line x1="405" y1="2" x2="405" y2="8"/>
    <line x1="2" y1="405" x2="8" y2="405"/>
    <line x1="405" y1="502" x2="405" y2="508"/>
    <line x1="502" y1="405" x2="508" y2="405"/>
  </g>
  <g stroke="gray" stroke-width="1" stroke-dasharray="5,5">
    <line x1="105" y1="5" x2="105" y2="505"/>
    <line x1="5" y1="105" x2="505" y2="105"/>
    <line x1="205" y1="5" x2="205" y2="505"/>
    <line x1="5" y1="205" x2="505" y2="205"/>
    <line x1="305" y1="5" x2="305" y2="505"/>
    <line x1="5" y1="305" x2="505" y2="305"/>
    <line x1="405" y1="5" x2="405" y2="505"/>
    <line x1="5" y1="405" x2="505" y2="405"/>
  </g>
</svg>
