<?xml version="1.0" standalone="no"?>
<!DOCTYPE svg PUBLIC "-//W3C//DTD SVG 1.1//EN" 
  "http://www.w3.org/Graphics/SVG/1.1/DTD/svg11.dtd">
<svg width="510" height="510" version="1.1" id="toplevel"
    xmlns="http://www.w3.org/2000/svg"
    xmlns:xlink="http://www.w3.org/1999/xlink">
  <polygon points="351,462 441,360 442,125 345,51 317,48 316,69 68,89 82,259"
           fill="bisque"/>
  <g stroke="chocolate" stroke-width="1">
    <line x1="354" y1="76" x2="345" y2="51"/>
    <circle cx="354" cy="76" r="2"/>
    <circle cx="345" cy="51" r="2"/>
  </g>
  <g stroke="chocolate" stroke-width="1">
    <line x1="405" y1="120" x2="398" y2="102"/>
    <circle cx="405" cy="120" r="2"/>
    <circle cx="398" cy="102" r="2"/>
  </g>
  <g stroke="chocolate" stroke-width="1">
    <line x1="416" y1="318" x2="333" y2="209"/>
    <circle cx="416" cy="318" r="2"/>
    <circle cx="333" cy="209" r="2"/>
  </g>
  <g stroke="chocolate" stroke-width="1">
    <line x1="383" y1="107" x2="376" y2="75"/>
    <circle cx="383" cy="107" r="2"/>
    <circle cx="376" cy="75" r="2"/>
  </g>
  <g stroke="chocolate" stroke-width="1">
    <line x1="368" y1="85" x2="364" y2="65"/>
    <circle cx="368" cy="85" r="2"/>
    <circle cx="364" cy="65" r="2"/>
  </g>
  <g stroke="chocolate" stroke-width="1">
    <line x1="432" y1="128" x2="431" y2="116"/>
    <circle cx="432" cy="128" r="2"/>
    <circle cx="431" cy="116" r="2"/>
  </g>
  <g stroke="chocolate" stroke-width="1">
    <line x1="82" y1="259" x2="68" y2="89"/>
    <circle cx="82" cy="259" r="2"/>
    <circle cx="68" cy="89" r="2"/>
  </g>
  <g stroke="chocolate" stroke-width="1">
    <line x1="386" y1="108" x2="385" y2="81"/>
    <circle cx="386" cy="108" r="2"/>
    <circle cx="385" cy="81" r="2"/>
  </g>
  <g stroke="chocolate" stroke-width="1">
    <line x1="351" y1="462" x2="82" y2="259"/>
    <circle cx="351" cy="462" r="2"/>
    <circle cx="82" cy="259" r="2"/>
  </g>
  <g stroke="chocolate" stroke-width="1">
    <line x1="386" y1="422" x2="322" y2="374"/>
    <circle cx="386" cy="422" r="2"/>
    <circle cx="322" cy="374" r="2"/>
  </g>
  <g stroke="chocolate" stroke-width="1">
    <line x1="441" y1="360" x2="442" y2="125"/>
    <circle cx="441" cy="360" r="2"/>
    <circle cx="442" cy="125" r="2"/>
  </g>
  <g stroke="chocolate" stroke-width="1">
    <line x1="286" y1="413" x2="317" y2="48"/>
    <circle cx="286" cy="413" r="2"/>
    <circle cx="317" cy="48" r="2"/>
  </g>
  <g stroke="chocolate" stroke-width="1">
    <line x1="411" y1="365" x2="416" y2="318"/>
    <circle cx="411" cy="365" r="2"/>
    <circle cx="416" cy="318" r="2"/>
  </g>
  <g stroke="chocolate" stroke-width="1">
    <line x1="442" y1="125" x2="345" y2="51"/>
    <circle cx="442" cy="125" r="2"/>
    <circle cx="345" cy="51" r="2"/>
  </g>
  <g stroke="chocolate" stroke-width="1">
    <line x1="432" y1="128" x2="354" y2="76"/>
    <circle cx="432" cy="128" r="2"/>
    <circle cx="354" cy="76" r="2"/>
  </g>
  <g stroke="chocolate" stroke-width="1">
    <line x1="370" y1="310" x2="299" y2="274"/>
    <circle cx="370" cy="310" r="2"/>
    <circle cx="299" cy="274" r="2"/>
  </g>
  <g stroke="chocolate" stroke-width="1">
    <line x1="405" y1="120" x2="383" y2="107"/>
    <circle cx="405" cy="120" r="2"/>
    <circle cx="383" cy="107" r="2"/>
  </g>
  <g stroke="chocolate" stroke-width="1">
    <line x1="307" y1="429" x2="322" y2="374"/>
    <circle cx="307" cy="429" r="2"/>
    <circle cx="322" cy="374" r="2"/>
  </g>
  <g stroke="chocolate" stroke-width="1">
    <line x1="343" y1="456" x2="406" y2="306"/>
    <circle cx="343" cy="456" r="2"/>
    <circle cx="406" cy="306" r="2"/>
  </g>
  <g stroke="chocolate" stroke-width="1">
    <line x1="299" y1="274" x2="333" y2="209"/>
    <circle cx="299" cy="274" r="2"/>
    <circle cx="333" cy="209" r="2"/>
  </g>
  <g stroke="chocolate" stroke-width="1">
    <line x1="416" y1="318" x2="370" y2="310"/>
    <circle cx="416" cy="318" r="2"/>
    <circle cx="370" cy="310" r="2"/>
  </g>
  <g stroke="chocolate" stroke-width="1">
    <line x1="351" y1="462" x2="411" y2="365"/>
    <circle cx="351" cy="462" r="2"/>
    <circle cx="411" cy="365" r="2"/>
  </g>
  <g stroke="chocolate" stroke-width="1">
    <line x1="351" y1="462" x2="441" y2="360"/>
    <circle cx="351" cy="462" r="2"/>
    <circle cx="441" cy="360" r="2"/>
  </g>
  <g stroke="chocolate" stroke-width="1">
    <line x1="345" y1="51" x2="317" y2="48"/>
    <circle cx="345" cy="51" r="2"/>
    <circle cx="317" cy="48" r="2"/>
  </g>
  <g stroke="chocolate" stroke-width="1">
    <line x1="322" y1="374" x2="441" y2="360"/>
    <circle cx="322" cy="374" r="2"/>
    <circle cx="441" cy="360" r="2"/>
  </g>
  <g stroke="chocolate" stroke-width="1">
    <line x1="370" y1="310" x2="406" y2="306"/>
    <circle cx="370" cy="310" r="2"/>
    <circle cx="406" cy="306" r="2"/>
  </g>
  <g stroke="chocolate" stroke-width="1">
    <line x1="343" y1="456" x2="386" y2="422"/>
    <circle cx="343" cy="456" r="2"/>
    <circle cx="386" cy="422" r="2"/>
  </g>
  <g stroke="chocolate" stroke-width="1">
    <line x1="354" y1="76" x2="376" y2="75"/>
    <circle cx="354" cy="76" r="2"/>
    <circle cx="376" cy="75" r="2"/>
  </g>
  <g stroke="chocolate" stroke-width="1">
    <line x1="307" y1="429" x2="411" y2="365"/>
    <circle cx="307" cy="429" r="2"/>
    <circle cx="411" cy="365" r="2"/>
  </g>
  <g stroke="chocolate" stroke-width="1">
    <line x1="286" y1="413" x2="411" y2="365"/>
    <circle cx="286" cy="413" r="2"/>
    <circle cx="411" cy="365" r="2"/>
  </g>
  <g stroke="chocolate" stroke-width="1">
    <line x1="405" y1="120" x2="431" y2="116"/>
    <circle cx="405" cy="120" r="2"/>
    <circle cx="431" cy="116" r="2"/>
  </g>
  <g stroke="chocolate" stroke-width="1">
    <line x1="68" y1="89" x2="364" y2="65"/>
    <circle cx="68" cy="89" r="2"/>
    <circle cx="364" cy="65" r="2"/>
  </g>
  <g stroke="chocolate" stroke-width="1">
    <line x1="82" y1="259" x2="333" y2="209"/>
    <circle cx="82" cy="259" r="2"/>
    <circle cx="333" cy="209" r="2"/>
  </g>
  <g stroke="chocolate" stroke-width="1">
    <line x1="432" y1="128" x2="442" y2="125"/>
    <circle cx="432" cy="128" r="2"/>
    <circle cx="442" cy="125" r="2"/>
  </g>
  <g stroke="chocolate" stroke-width="1">
    <line x1="368" y1="85" x2="385" y2="81"/>
    <circle cx="368" cy="85" r="2"/>
    <circle cx="385" cy="81" r="2"/>
  </g>
  <g stroke="chocolate" stroke-width="1">
    <line x1="386" y1="108" x2="398" y2="102"/>
    <circle cx="386" cy="108" r="2"/>
    <circle cx="398" cy="102" r="2"/>
  </g>
  <g stroke="chocolate" stroke-width="1">
    <line x1="383" y1="107" x2="398" y2="102"/>
    <circle cx="383" cy="107" r="2"/>
    <circle cx="398" cy="102" r="2"/>
  </g>
  <g stroke="black" stroke-width="1">
    <line x1="5" y1="5" x2="505" y2="5"/>
    <line x1="5" y1="5" x2="5" y2="505"/>
    <line x1="505" y1="505" x2="5" y2="505"/>
    <line x1="505" y1="505" x2="505" y2="5"/>
    <line x1="105" y1="2" x2="105" y2="8"/>
    <line x1="2" y1="105" x2="8" y2="105"/>
    <line x1="105" y1="502" x2="105" y2="508"/>
    <line x1="502" y1="105" x2="508" y2="105"/>
    <line x1="205" y1="2" x2="205" y2="8"/>
    <line x1="2" y1="205" x2="8" y2="205"/>
    <line x1="205" y1="502" x2="205" y2="508"/>
    <line x1="502" y1="205" x2="508" y2="205"/>
    <line x1="305" y1="2" x2="305" y2="8"/>
    <line x1="2" y1="305" x2="8" y2="305"/>
    <line x1="305" y1="502" x2="305" y2="508"/>
    <line x1="502" y1="305" x2="508" y2="305"/>
    <line x1="405" y1="2" x2="405" y2="8"/>
    <line x1="2" y1="405" x2="8" y2="405"/>
    <line x1="405" y1="502" x2="405" y2="508"/>
    <line x1="502" y1="405" x2="508" y2="405"/>
  </g>
  <g stroke="gray" stroke-width="1" stroke-dasharray="5,5">
    <line x1="105" y1="5" x2="105" y2="505"/>
    <line x1="5" y1="105" x2="505" y2="105"/>
    <line x1="205" y1="5" x2="205" y2="505"/>
    <line x1="5" y1="205" x2="505" y2="205"/>
    <line x1="305" y1="5" x2="305" y2="505"/>
    <line x1="5" y1="305" x2="505" y2="305"/>
    <line x1="405" y1="5" x2="405" y2="505"/>
    <line x1="5" y1="405" x2="505" y2="405"/>
  </g>
</svg>
