<?xml version="1.0" standalone="no"?>
<!DOCTYPE svg PUBLIC "-//W3C//DTD SVG 1.1//EN" 
  "http://www.w3.org/Graphics/SVG/1.1/DTD/svg11.dtd">
<svg width="510" height="510" version="1.1" id="toplevel"
    xmlns="http://www.w3.org/2000/svg"
    xmlns:xlink="http://www.w3.org/1999/xlink">
  <polygon points="132,472 142,441 439,264 447,187 425,166 418,173 419,204 368,235 329,218 181,181 190,82 136,38 135,38 141,108 63,152 103,464"
           fill="bisque"/>
  <g stroke="chocolate" stroke-width="1">
    <line x1="418" y1="173" x2="425" y2="166"/>
    <circle cx="418" cy="173" r="2"/>
    <circle cx="425" cy="166" r="2"/>
  </g>
  <g stroke="chocolate" stroke-width="1">
    <line x1="103" y1="464" x2="439" y2="264"/>
    <circle cx="103" cy="464" r="2"/>
    <circle cx="439" cy="264" r="2"/>
  </g>
  <g stroke="chocolate" stroke-width="1">
    <line x1="94" y1="399" x2="447" y2="187"/>
    <circle cx="94" cy="399" r="2"/>
    <circle cx="447" cy="187" r="2"/>
  </g>
  <g stroke="chocolate" stroke-width="1">
    <line x1="95" y1="401" x2="446" y2="198"/>
    <circle cx="95" cy="401" r="2"/>
    <circle cx="446" cy="198" r="2"/>
  </g>
  <g stroke="chocolate" stroke-width="1">
    <line x1="124" y1="470" x2="167" y2="326"/>
    <circle cx="124" cy="470" r="2"/>
    <circle cx="167" cy="326" r="2"/>
  </g>
  <g stroke="chocolate" stroke-width="1">
    <line x1="132" y1="472" x2="149" y2="415"/>
    <circle cx="132" cy="472" r="2"/>
    <circle cx="149" cy="415" r="2"/>
  </g>
  <g stroke="chocolate" stroke-width="1">
    <line x1="132" y1="472" x2="164" y2="361"/>
    <circle cx="132" cy="472" r="2"/>
    <circle cx="164" cy="361" r="2"/>
  </g>
  <g stroke="chocolate" stroke-width="1">
    <line x1="124" y1="470" x2="139" y2="414"/>
    <circle cx="124" cy="470" r="2"/>
    <circle cx="139" cy="414" r="2"/>
  </g>
  <g stroke="chocolate" stroke-width="1">
    <line x1="439" y1="264" x2="447" y2="187"/>
    <circle cx="439" cy="264" r="2"/>
    <circle cx="447" cy="187" r="2"/>
  </g>
  <g stroke="chocolate" stroke-width="1">
    <line x1="164" y1="361" x2="190" y2="82"/>
    <circle cx="164" cy="361" r="2"/>
    <circle cx="190" cy="82" r="2"/>
  </g>
  <g stroke="chocolate" stroke-width="1">
    <line x1="422" y1="274" x2="418" y2="173"/>
    <circle cx="422" cy="274" r="2"/>
    <circle cx="418" cy="173" r="2"/>
  </g>
  <g stroke="chocolate" stroke-width="1">
    <line x1="164" y1="361" x2="135" y2="38"/>
    <circle cx="164" cy="361" r="2"/>
    <circle cx="135" cy="38" r="2"/>
  </g>
  <g stroke="chocolate" stroke-width="1">
    <line x1="63" y1="152" x2="190" y2="82"/>
    <circle cx="63" cy="152" r="2"/>
    <circle cx="190" cy="82" r="2"/>
  </g>
  <g stroke="chocolate" stroke-width="1">
    <line x1="167" y1="326" x2="136" y2="38"/>
    <circle cx="167" cy="326" r="2"/>
    <circle cx="136" cy="38" r="2"/>
  </g>
  <g stroke="chocolate" stroke-width="1">
    <line x1="103" y1="464" x2="63" y2="152"/>
    <circle cx="103" cy="464" r="2"/>
    <circle cx="63" cy="152" r="2"/>
  </g>
  <g stroke="chocolate" stroke-width="1">
    <line x1="132" y1="472" x2="103" y2="464"/>
    <circle cx="132" cy="472" r="2"/>
    <circle cx="103" cy="464" r="2"/>
  </g>
  <g stroke="chocolate" stroke-width="1">
    <line x1="139" y1="414" x2="95" y2="401"/>
    <circle cx="139" cy="414" r="2"/>
    <circle cx="95" cy="401" r="2"/>
  </g>
  <g stroke="chocolate" stroke-width="1">
    <line x1="149" y1="415" x2="94" y2="399"/>
    <circle cx="149" cy="415" r="2"/>
    <circle cx="94" cy="399" r="2"/>
  </g>
  <g stroke="chocolate" stroke-width="1">
    <line x1="135" y1="38" x2="136" y2="38"/>
    <circle cx="135" cy="38" r="2"/>
    <circle cx="136" cy="38" r="2"/>
  </g>
  <g stroke="chocolate" stroke-width="1">
    <line x1="329" y1="218" x2="63" y2="152"/>
    <circle cx="329" cy="218" r="2"/>
    <circle cx="63" cy="152" r="2"/>
  </g>
  <g stroke="chocolate" stroke-width="1">
    <line x1="439" y1="264" x2="329" y2="218"/>
    <circle cx="439" cy="264" r="2"/>
    <circle cx="329" cy="218" r="2"/>
  </g>
  <g stroke="chocolate" stroke-width="1">
    <line x1="422" y1="274" x2="329" y2="218"/>
    <circle cx="422" cy="274" r="2"/>
    <circle cx="329" cy="218" r="2"/>
  </g>
  <g stroke="chocolate" stroke-width="1">
    <line x1="190" y1="82" x2="136" y2="38"/>
    <circle cx="190" cy="82" r="2"/>
    <circle cx="136" cy="38" r="2"/>
  </g>
  <g stroke="chocolate" stroke-width="1">
    <line x1="446" y1="198" x2="418" y2="173"/>
    <circle cx="446" cy="198" r="2"/>
    <circle cx="418" cy="173" r="2"/>
  </g>
  <g stroke="chocolate" stroke-width="1">
    <line x1="447" y1="187" x2="425" y2="166"/>
    <circle cx="447" cy="187" r="2"/>
    <circle cx="425" cy="166" r="2"/>
  </g>
  <g stroke="black" stroke-width="1">
    <line x1="5" y1="5" x2="505" y2="5"/>
    <line x1="5" y1="5" x2="5" y2="505"/>
    <line x1="505" y1="505" x2="5" y2="505"/>
    <line x1="505" y1="505" x2="505" y2="5"/>
    <line x1="105" y1="2" x2="105" y2="8"/>
    <line x1="2" y1="105" x2="8" y2="105"/>
    <line x1="105" y1="502" x2="105" y2="508"/>
    <line x1="502" y1="105" x2="508" y2="105"/>
    <line x1="205" y1="2" x2="205" y2="8"/>
    <line x1="2" y1="205" x2="8" y2="205"/>
    <line x1="205" y1="502" x2="205" y2="508"/>
    <line x1="502" y1="205" x2="508" y2="205"/>
    <line x1="305" y1="2" x2="305" y2="8"/>
    <line x1="2" y1="305" x2="8" y2="305"/>
    <line x1="305" y1="502" x2="305" y2="508"/>
    <line x1="502" y1="305" x2="508" y2="305"/>
    <line x1="405" y1="2" x2="405" y2="8"/>
    <line x1="2" y1="405" x2="8" y2="405"/>
    <line x1="405" y1="502" x2="405" y2="508"/>
    <line x1="502" y1="405" x2="508" y2="405"/>
  </g>
  <g stroke="gray" stroke-width="1" stroke-dasharray="5,5">
    <line x1="105" y1="5" x2="105" y2="505"/>
    <line x1="5" y1="105" x2="505" y2="105"/>
    <line x1="205" y1="5" x2="205" y2="505"/>
    <line x1="5" y1="205" x2="505" y2="205"/>
    <line x1="305" y1="5" x2="305" y2="505"/>
    <line x1="5" y1="305" x2="505" y2="305"/>
    <line x1="405" y1="5" x2="405" y2="505"/>
    <line x1="5" y1="405" x2="505" y2="405"/>
  </g>
</svg>
