<?xml version="1.0" standalone="no"?>
<!DOCTYPE svg PUBLIC "-//W3C//DTD SVG 1.1//EN" 
  "http://www.w3.org/Graphics/SVG/1.1/DTD/svg11.dtd">
<svg width="510" height="510" version="1.1" id="toplevel"
    xmlns="http://www.w3.org/2000/svg"
    xmlns:xlink="http://www.w3.org/1999/xlink">
  <polygon points="117,431 134,430 254,430 254,420 217,386 438,285 425,257 433,252 426,240 433,238 438,79 418,79 397,90 365,122 358,110 72,259"
           fill="bisque"/>
  <g stroke="chocolate" stroke-width="1">
    <line x1="413" y1="87" x2="418" y2="79"/>
    <circle cx="413" cy="87" r="2"/>
    <circle cx="418" cy="79" r="2"/>
  </g>
  <g stroke="chocolate" stroke-width="1">
    <line x1="117" y1="430" x2="433" y2="252"/>
    <circle cx="117" cy="430" r="2"/>
    <circle cx="433" cy="252" r="2"/>
  </g>
  <g stroke="chocolate" stroke-width="1">
    <line x1="191" y1="300" x2="397" y2="90"/>
    <circle cx="191" cy="300" r="2"/>
    <circle cx="397" cy="90" r="2"/>
  </g>
  <g stroke="chocolate" stroke-width="1">
    <line x1="117" y1="431" x2="438" y2="285"/>
    <circle cx="117" cy="431" r="2"/>
    <circle cx="438" cy="285" r="2"/>
  </g>
  <g stroke="chocolate" stroke-width="1">
    <line x1="117" y1="431" x2="254" y2="420"/>
    <circle cx="117" cy="431" r="2"/>
    <circle cx="254" cy="420" r="2"/>
  </g>
  <g stroke="chocolate" stroke-width="1">
    <line x1="433" y1="238" x2="438" y2="79"/>
    <circle cx="433" cy="238" r="2"/>
    <circle cx="438" cy="79" r="2"/>
  </g>
  <g stroke="chocolate" stroke-width="1">
    <line x1="117" y1="430" x2="254" y2="430"/>
    <circle cx="117" cy="430" r="2"/>
    <circle cx="254" cy="430" r="2"/>
  </g>
  <g stroke="chocolate" stroke-width="1">
    <line x1="254" y1="430" x2="254" y2="420"/>
    <circle cx="254" cy="430" r="2"/>
    <circle cx="254" cy="420" r="2"/>
  </g>
  <g stroke="chocolate" stroke-width="1">
    <line x1="72" y1="259" x2="358" y2="110"/>
    <circle cx="72" cy="259" r="2"/>
    <circle cx="358" cy="110" r="2"/>
  </g>
  <g stroke="chocolate" stroke-width="1">
    <line x1="397" y1="90" x2="418" y2="79"/>
    <circle cx="397" cy="90" r="2"/>
    <circle cx="418" cy="79" r="2"/>
  </g>
  <g stroke="chocolate" stroke-width="1">
    <line x1="191" y1="300" x2="433" y2="238"/>
    <circle cx="191" cy="300" r="2"/>
    <circle cx="433" cy="238" r="2"/>
  </g>
  <g stroke="chocolate" stroke-width="1">
    <line x1="417" y1="243" x2="408" y2="84"/>
    <circle cx="417" cy="243" r="2"/>
    <circle cx="408" cy="84" r="2"/>
  </g>
  <g stroke="chocolate" stroke-width="1">
    <line x1="78" y1="266" x2="77" y2="256"/>
    <circle cx="78" cy="266" r="2"/>
    <circle cx="77" cy="256" r="2"/>
  </g>
  <g stroke="chocolate" stroke-width="1">
    <line x1="117" y1="431" x2="72" y2="259"/>
    <circle cx="117" cy="431" r="2"/>
    <circle cx="72" cy="259" r="2"/>
  </g>
  <g stroke="chocolate" stroke-width="1">
    <line x1="397" y1="90" x2="413" y2="87"/>
    <circle cx="397" cy="90" r="2"/>
    <circle cx="413" cy="87" r="2"/>
  </g>
  <g stroke="chocolate" stroke-width="1">
    <line x1="78" y1="266" x2="72" y2="259"/>
    <circle cx="78" cy="266" r="2"/>
    <circle cx="72" cy="259" r="2"/>
  </g>
  <g stroke="chocolate" stroke-width="1">
    <line x1="191" y1="300" x2="78" y2="266"/>
    <circle cx="191" cy="300" r="2"/>
    <circle cx="78" cy="266" r="2"/>
  </g>
  <g stroke="chocolate" stroke-width="1">
    <line x1="254" y1="420" x2="77" y2="256"/>
    <circle cx="254" cy="420" r="2"/>
    <circle cx="77" cy="256" r="2"/>
  </g>
  <g stroke="chocolate" stroke-width="1">
    <line x1="438" y1="285" x2="358" y2="110"/>
    <circle cx="438" cy="285" r="2"/>
    <circle cx="358" cy="110" r="2"/>
  </g>
  <g stroke="chocolate" stroke-width="1">
    <line x1="417" y1="243" x2="354" y2="112"/>
    <circle cx="417" cy="243" r="2"/>
    <circle cx="354" cy="112" r="2"/>
  </g>
  <g stroke="chocolate" stroke-width="1">
    <line x1="433" y1="252" x2="354" y2="112"/>
    <circle cx="433" cy="252" r="2"/>
    <circle cx="354" cy="112" r="2"/>
  </g>
  <g stroke="chocolate" stroke-width="1">
    <line x1="433" y1="238" x2="358" y2="110"/>
    <circle cx="433" cy="238" r="2"/>
    <circle cx="358" cy="110" r="2"/>
  </g>
  <g stroke="chocolate" stroke-width="1">
    <line x1="438" y1="79" x2="418" y2="79"/>
    <circle cx="438" cy="79" r="2"/>
    <circle cx="418" cy="79" r="2"/>
  </g>
  <g stroke="chocolate" stroke-width="1">
    <line x1="413" y1="87" x2="408" y2="84"/>
    <circle cx="413" cy="87" r="2"/>
    <circle cx="408" cy="84" r="2"/>
  </g>
  <g stroke="black" stroke-width="1">
    <line x1="5" y1="5" x2="505" y2="5"/>
    <line x1="5" y1="5" x2="5" y2="505"/>
    <line x1="505" y1="505" x2="5" y2="505"/>
    <line x1="505" y1="505" x2="505" y2="5"/>
    <line x1="105" y1="2" x2="105" y2="8"/>
    <line x1="2" y1="105" x2="8" y2="105"/>
    <line x1="105" y1="502" x2="105" y2="508"/>
    <line x1="502" y1="105" x2="508" y2="105"/>
    <line x1="205" y1="2" x2="205" y2="8"/>
    <line x1="2" y1="205" x2="8" y2="205"/>
    <line x1="205" y1="502" x2="205" y2="508"/>
    <line x1="502" y1="205" x2="508" y2="205"/>
    <line x1="305" y1="2" x2="305" y2="8"/>
    <line x1="2" y1="305" x2="8" y2="305"/>
    <line x1="305" y1="502" x2="305" y2="508"/>
    <line x1="502" y1="305" x2="508" y2="305"/>
    <line x1="405" y1="2" x2="405" y2="8"/>
    <line x1="2" y1="405" x2="8" y2="405"/>
    <line x1="405" y1="502" x2="405" y2="508"/>
    <line x1="502" y1="405" x2="508" y2="405"/>
  </g>
  <g stroke="gray" stroke-width="1" stroke-dasharray="5,5">
    <line x1="105" y1="5" x2="105" y2="505"/>
    <line x1="5" y1="105" x2="505" y2="105"/>
    <line x1="205" y1="5" x2="205" y2="505"/>
    <line x1="5" y1="205" x2="505" y2="205"/>
    <line x1="305" y1="5" x2="305" y2="505"/>
    <line x1="5" y1="305" x2="505" y2="305"/>
    <line x1="405" y1="5" x2="405" y2="505"/>
    <line x1="5" y1="405" x2="505" y2="405"/>
  </g>
</svg>
