<?xml version="1.0" standalone="no"?>
<!DOCTYPE svg PUBLIC "-//W3C//DTD SVG 1.1//EN" 
  "http://www.w3.org/Graphics/SVG/1.1/DTD/svg11.dtd">
<svg width="510" height="510" version="1.1" id="toplevel"
    xmlns="http://www.w3.org/2000/svg"
    xmlns:xlink="http://www.w3.org/1999/xlink">
  <polygon points="332,505 382,505 504,232 120,56 135,5 134,5 134,5 133,5 70,34 70,219 121,386"
           fill="bisque"/>
  <g stroke="chocolate" stroke-width="1">
    <line x1="382" y1="505" x2="504" y2="232"/>
    <circle cx="382" cy="505" r="2"/>
    <circle cx="504" cy="232" r="2"/>
  </g>
  <g stroke="chocolate" stroke-width="1">
    <line x1="300" y1="413" x2="504" y2="232"/>
    <circle cx="300" cy="413" r="2"/>
    <circle cx="504" cy="232" r="2"/>
  </g>
  <g stroke="chocolate" stroke-width="1">
    <line x1="333" y1="381" x2="504" y2="234"/>
    <circle cx="333" cy="381" r="2"/>
    <circle cx="504" cy="234" r="2"/>
  </g>
  <g stroke="chocolate" stroke-width="1">
    <line x1="237" y1="452" x2="284" y2="421"/>
    <circle cx="237" cy="452" r="2"/>
    <circle cx="284" cy="421" r="2"/>
  </g>
  <g stroke="chocolate" stroke-width="1">
    <line x1="237" y1="452" x2="242" y2="355"/>
    <circle cx="237" cy="452" r="2"/>
    <circle cx="242" cy="355" r="2"/>
  </g>
  <g stroke="chocolate" stroke-width="1">
    <line x1="332" y1="505" x2="382" y2="505"/>
    <circle cx="332" cy="505" r="2"/>
    <circle cx="382" cy="505" r="2"/>
  </g>
  <g stroke="chocolate" stroke-width="1">
    <line x1="70" y1="219" x2="70" y2="34"/>
    <circle cx="70" cy="219" r="2"/>
    <circle cx="70" cy="34" r="2"/>
  </g>
  <g stroke="chocolate" stroke-width="1">
    <line x1="70" y1="219" x2="135" y2="5"/>
    <circle cx="70" cy="219" r="2"/>
    <circle cx="135" cy="5" r="2"/>
  </g>
  <g stroke="chocolate" stroke-width="1">
    <line x1="504" y1="234" x2="504" y2="232"/>
    <circle cx="504" cy="234" r="2"/>
    <circle cx="504" cy="232" r="2"/>
  </g>
  <g stroke="chocolate" stroke-width="1">
    <line x1="121" y1="386" x2="70" y2="219"/>
    <circle cx="121" cy="386" r="2"/>
    <circle cx="70" cy="219" r="2"/>
  </g>
  <g stroke="chocolate" stroke-width="1">
    <line x1="121" y1="386" x2="242" y2="355"/>
    <circle cx="121" cy="386" r="2"/>
    <circle cx="242" cy="355" r="2"/>
  </g>
  <g stroke="chocolate" stroke-width="1">
    <line x1="70" y1="101" x2="134" y2="5"/>
    <circle cx="70" cy="101" r="2"/>
    <circle cx="134" cy="5" r="2"/>
  </g>
  <g stroke="chocolate" stroke-width="1">
    <line x1="332" y1="505" x2="121" y2="386"/>
    <circle cx="332" cy="505" r="2"/>
    <circle cx="121" cy="386" r="2"/>
  </g>
  <g stroke="chocolate" stroke-width="1">
    <line x1="332" y1="505" x2="242" y2="355"/>
    <circle cx="332" cy="505" r="2"/>
    <circle cx="242" cy="355" r="2"/>
  </g>
  <g stroke="chocolate" stroke-width="1">
    <line x1="70" y1="77" x2="133" y2="5"/>
    <circle cx="70" cy="77" r="2"/>
    <circle cx="133" cy="5" r="2"/>
  </g>
  <g stroke="chocolate" stroke-width="1">
    <line x1="284" y1="421" x2="70" y2="101"/>
    <circle cx="284" cy="421" r="2"/>
    <circle cx="70" cy="101" r="2"/>
  </g>
  <g stroke="chocolate" stroke-width="1">
    <line x1="382" y1="505" x2="300" y2="413"/>
    <circle cx="382" cy="505" r="2"/>
    <circle cx="300" cy="413" r="2"/>
  </g>
  <g stroke="chocolate" stroke-width="1">
    <line x1="333" y1="381" x2="70" y2="77"/>
    <circle cx="333" cy="381" r="2"/>
    <circle cx="70" cy="77" r="2"/>
  </g>
  <g stroke="chocolate" stroke-width="1">
    <line x1="70" y1="34" x2="133" y2="5"/>
    <circle cx="70" cy="34" r="2"/>
    <circle cx="133" cy="5" r="2"/>
  </g>
  <g stroke="chocolate" stroke-width="1">
    <line x1="135" y1="5" x2="134" y2="5"/>
    <circle cx="135" cy="5" r="2"/>
    <circle cx="134" cy="5" r="2"/>
  </g>
  <g stroke="chocolate" stroke-width="1">
    <line x1="504" y1="232" x2="504" y2="232"/>
    <circle cx="504" cy="232" r="2"/>
    <circle cx="504" cy="232" r="2"/>
  </g>
  <g stroke="chocolate" stroke-width="1">
    <line x1="504" y1="232" x2="70" y2="34"/>
    <circle cx="504" cy="232" r="2"/>
    <circle cx="70" cy="34" r="2"/>
  </g>
  <g stroke="chocolate" stroke-width="1">
    <line x1="133" y1="5" x2="135" y2="5"/>
    <circle cx="133" cy="5" r="2"/>
    <circle cx="135" cy="5" r="2"/>
  </g>
  <g stroke="black" stroke-width="1">
    <line x1="5" y1="5" x2="505" y2="5"/>
    <line x1="5" y1="5" x2="5" y2="505"/>
    <line x1="505" y1="505" x2="5" y2="505"/>
    <line x1="505" y1="505" x2="505" y2="5"/>
    <line x1="105" y1="2" x2="105" y2="8"/>
    <line x1="2" y1="105" x2="8" y2="105"/>
    <line x1="105" y1="502" x2="105" y2="508"/>
    <line x1="502" y1="105" x2="508" y2="105"/>
    <line x1="205" y1="2" x2="205" y2="8"/>
    <line x1="2" y1="205" x2="8" y2="205"/>
    <line x1="205" y1="502" x2="205" y2="508"/>
    <line x1="502" y1="205" x2="508" y2="205"/>
    <line x1="305" y1="2" x2="305" y2="8"/>
    <line x1="2" y1="305" x2="8" y2="305"/>
    <line x1="305" y1="502" x2="305" y2="508"/>
    <line x1="502" y1="305" x2="508" y2="305"/>
    <line x1="405" y1="2" x2="405" y2="8"/>
    <line x1="2" y1="405" x2="8" y2="405"/>
    <line x1="405" y1="502" x2="405" y2="508"/>
    <line x1="502" y1="405" x2="508" y2="405"/>
  </g>
  <g stroke="gray" stroke-width="1" stroke-dasharray="5,5">
    <line x1="105" y1="5" x2="105" y2="505"/>
    <line x1="5" y1="105" x2="505" y2="105"/>
    <line x1="205" y1="5" x2="205" y2="505"/>
    <line x1="5" y1="205" x2="505" y2="205"/>
    <line x1="305" y1="5" x2="305" y2="505"/>
    <line x1="5" y1="305" x2="505" y2="305"/>
    <line x1="405" y1="5" x2="405" y2="505"/>
    <line x1="5" y1="405" x2="505" y2="405"/>
  </g>
</svg>
