<?xml version="1.0" standalone="no"?>
<!DOCTYPE svg PUBLIC "-//W3C//DTD SVG 1.1//EN" 
  "http://www.w3.org/Graphics/SVG/1.1/DTD/svg11.dtd">
<svg width="510" height="510" version="1.1" id="toplevel"
    xmlns="http://www.w3.org/2000/svg"
    xmlns:xlink="http://www.w3.org/1999/xlink">
  <polygon points="366,450 408,408 408,60 116,60 102,74 130,74 144,88 199,88 357,246 357,440"
           fill="bisque"/>
  <g stroke="chocolate" stroke-width="1">
    <line x1="357" y1="440" x2="357" y2="60"/>
    <circle cx="357" cy="440" r="2"/>
    <circle cx="357" cy="60" r="2"/>
  </g>
  <g stroke="chocolate" stroke-width="1">
    <line x1="361" y1="144" x2="361" y2="130"/>
    <circle cx="361" cy="144" r="2"/>
    <circle cx="361" cy="130" r="2"/>
  </g>
  <g stroke="chocolate" stroke-width="1">
    <line x1="371" y1="88" x2="371" y2="60"/>
    <circle cx="371" cy="88" r="2"/>
    <circle cx="371" cy="60" r="2"/>
  </g>
  <g stroke="chocolate" stroke-width="1">
    <line x1="375" y1="130" x2="375" y2="74"/>
    <circle cx="375" cy="130" r="2"/>
    <circle cx="375" cy="74" r="2"/>
  </g>
  <g stroke="chocolate" stroke-width="1">
    <line x1="380" y1="417" x2="380" y2="60"/>
    <circle cx="380" cy="417" r="2"/>
    <circle cx="380" cy="60" r="2"/>
  </g>
  <g stroke="chocolate" stroke-width="1">
    <line x1="408" y1="408" x2="408" y2="60"/>
    <circle cx="408" cy="408" r="2"/>
    <circle cx="408" cy="60" r="2"/>
  </g>
  <g stroke="chocolate" stroke-width="1">
    <line x1="366" y1="450" x2="357" y2="440"/>
    <circle cx="366" cy="450" r="2"/>
    <circle cx="357" cy="440" r="2"/>
  </g>
  <g stroke="chocolate" stroke-width="1">
    <line x1="380" y1="417" x2="357" y2="394"/>
    <circle cx="380" cy="417" r="2"/>
    <circle cx="357" cy="394" r="2"/>
  </g>
  <g stroke="chocolate" stroke-width="1">
    <line x1="380" y1="371" x2="357" y2="347"/>
    <circle cx="380" cy="371" r="2"/>
    <circle cx="357" cy="347" r="2"/>
  </g>
  <g stroke="chocolate" stroke-width="1">
    <line x1="144" y1="88" x2="116" y2="60"/>
    <circle cx="144" cy="88" r="2"/>
    <circle cx="116" cy="60" r="2"/>
  </g>
  <g stroke="chocolate" stroke-width="1">
    <line x1="408" y1="296" x2="172" y2="60"/>
    <circle cx="408" cy="296" r="2"/>
    <circle cx="172" cy="60" r="2"/>
  </g>
  <g stroke="chocolate" stroke-width="1">
    <line x1="380" y1="125" x2="357" y2="102"/>
    <circle cx="380" cy="125" r="2"/>
    <circle cx="357" cy="102" r="2"/>
  </g>
  <g stroke="chocolate" stroke-width="1">
    <line x1="408" y1="144" x2="357" y2="93"/>
    <circle cx="408" cy="144" r="2"/>
    <circle cx="357" cy="93" r="2"/>
  </g>
  <g stroke="chocolate" stroke-width="1">
    <line x1="380" y1="111" x2="357" y2="88"/>
    <circle cx="380" cy="111" r="2"/>
    <circle cx="357" cy="88" r="2"/>
  </g>
  <g stroke="chocolate" stroke-width="1">
    <line x1="371" y1="88" x2="357" y2="74"/>
    <circle cx="371" cy="88" r="2"/>
    <circle cx="357" cy="74" r="2"/>
  </g>
  <g stroke="chocolate" stroke-width="1">
    <line x1="371" y1="74" x2="357" y2="60"/>
    <circle cx="371" cy="74" r="2"/>
    <circle cx="357" cy="60" r="2"/>
  </g>
  <g stroke="chocolate" stroke-width="1">
    <line x1="380" y1="70" x2="371" y2="60"/>
    <circle cx="380" cy="70" r="2"/>
    <circle cx="371" cy="60" r="2"/>
  </g>
  <g stroke="chocolate" stroke-width="1">
    <line x1="366" y1="450" x2="408" y2="408"/>
    <circle cx="366" cy="450" r="2"/>
    <circle cx="408" cy="408" r="2"/>
  </g>
  <g stroke="chocolate" stroke-width="1">
    <line x1="357" y1="440" x2="388" y2="408"/>
    <circle cx="357" cy="440" r="2"/>
    <circle cx="388" cy="408" r="2"/>
  </g>
  <g stroke="chocolate" stroke-width="1">
    <line x1="357" y1="394" x2="380" y2="371"/>
    <circle cx="357" cy="394" r="2"/>
    <circle cx="380" cy="371" r="2"/>
  </g>
  <g stroke="chocolate" stroke-width="1">
    <line x1="357" y1="347" x2="408" y2="296"/>
    <circle cx="357" cy="347" r="2"/>
    <circle cx="408" cy="296" r="2"/>
  </g>
  <g stroke="chocolate" stroke-width="1">
    <line x1="357" y1="408" x2="408" y2="408"/>
    <circle cx="357" cy="408" r="2"/>
    <circle cx="408" cy="408" r="2"/>
  </g>
  <g stroke="chocolate" stroke-width="1">
    <line x1="361" y1="144" x2="380" y2="125"/>
    <circle cx="361" cy="144" r="2"/>
    <circle cx="380" cy="125" r="2"/>
  </g>
  <g stroke="chocolate" stroke-width="1">
    <line x1="361" y1="130" x2="380" y2="111"/>
    <circle cx="361" cy="130" r="2"/>
    <circle cx="380" cy="111" r="2"/>
  </g>
  <g stroke="chocolate" stroke-width="1">
    <line x1="357" y1="102" x2="371" y2="88"/>
    <circle cx="357" cy="102" r="2"/>
    <circle cx="371" cy="88" r="2"/>
  </g>
  <g stroke="chocolate" stroke-width="1">
    <line x1="357" y1="93" x2="380" y2="70"/>
    <circle cx="357" cy="93" r="2"/>
    <circle cx="380" cy="70" r="2"/>
  </g>
  <g stroke="chocolate" stroke-width="1">
    <line x1="357" y1="88" x2="371" y2="74"/>
    <circle cx="357" cy="88" r="2"/>
    <circle cx="371" cy="74" r="2"/>
  </g>
  <g stroke="chocolate" stroke-width="1">
    <line x1="357" y1="74" x2="371" y2="60"/>
    <circle cx="357" cy="74" r="2"/>
    <circle cx="371" cy="60" r="2"/>
  </g>
  <g stroke="chocolate" stroke-width="1">
    <line x1="144" y1="88" x2="172" y2="60"/>
    <circle cx="144" cy="88" r="2"/>
    <circle cx="172" cy="60" r="2"/>
  </g>
  <g stroke="chocolate" stroke-width="1">
    <line x1="102" y1="74" x2="116" y2="60"/>
    <circle cx="102" cy="74" r="2"/>
    <circle cx="116" cy="60" r="2"/>
  </g>
  <g stroke="chocolate" stroke-width="1">
    <line x1="357" y1="144" x2="408" y2="144"/>
    <circle cx="357" cy="144" r="2"/>
    <circle cx="408" cy="144" r="2"/>
  </g>
  <g stroke="chocolate" stroke-width="1">
    <line x1="361" y1="130" x2="375" y2="130"/>
    <circle cx="361" cy="130" r="2"/>
    <circle cx="375" cy="130" r="2"/>
  </g>
  <g stroke="chocolate" stroke-width="1">
    <line x1="144" y1="88" x2="408" y2="88"/>
    <circle cx="144" cy="88" r="2"/>
    <circle cx="408" cy="88" r="2"/>
  </g>
  <g stroke="chocolate" stroke-width="1">
    <line x1="102" y1="74" x2="408" y2="74"/>
    <circle cx="102" cy="74" r="2"/>
    <circle cx="408" cy="74" r="2"/>
  </g>
  <g stroke="chocolate" stroke-width="1">
    <line x1="116" y1="60" x2="408" y2="60"/>
    <circle cx="116" cy="60" r="2"/>
    <circle cx="408" cy="60" r="2"/>
  </g>
  <g stroke="black" stroke-width="1">
    <line x1="5" y1="5" x2="505" y2="5"/>
    <line x1="5" y1="5" x2="5" y2="505"/>
    <line x1="505" y1="505" x2="5" y2="505"/>
    <line x1="505" y1="505" x2="505" y2="5"/>
    <line x1="105" y1="2" x2="105" y2="8"/>
    <line x1="2" y1="105" x2="8" y2="105"/>
    <line x1="105" y1="502" x2="105" y2="508"/>
    <line x1="502" y1="105" x2="508" y2="105"/>
    <line x1="205" y1="2" x2="205" y2="8"/>
    <line x1="2" y1="205" x2="8" y2="205"/>
    <line x1="205" y1="502" x2="205" y2="508"/>
    <line x1="502" y1="205" x2="508" y2="205"/>
    <line x1="305" y1="2" x2="305" y2="8"/>
    <line x1="2" y1="305" x2="8" y2="305"/>
    <line x1="305" y1="502" x2="305" y2="508"/>
    <line x1="502" y1="305" x2="508" y2="305"/>
    <line x1="405" y1="2" x2="405" y2="8"/>
    <line x1="2" y1="405" x2="8" y2="405"/>
    <line x1="405" y1="502" x2="405" y2="508"/>
    <line x1="502" y1="405" x2="508" y2="405"/>
  </g>
  <g stroke="gray" stroke-width="1" stroke-dasharray="5,5">
    <line x1="105" y1="5" x2="105" y2="505"/>
    <line x1="5" y1="105" x2="505" y2="105"/>
    <line x1="205" y1="5" x2="205" y2="505"/>
    <line x1="5" y1="205" x2="505" y2="205"/>
    <line x1="305" y1="5" x2="305" y2="505"/>
    <line x1="5" y1="305" x2="505" y2="305"/>
    <line x1="405" y1="5" x2="405" y2="505"/>
    <line x1="5" y1="405" x2="505" y2="405"/>
  </g>
</svg>
