<?xml version="1.0" standalone="no"?>
<!DOCTYPE svg PUBLIC "-//W3C//DTD SVG 1.1//EN" 
  "http://www.w3.org/Graphics/SVG/1.1/DTD/svg11.dtd">
<svg width="510" height="510" version="1.1" id="toplevel"
    xmlns="http://www.w3.org/2000/svg"
    xmlns:xlink="http://www.w3.org/1999/xlink">
  <polygon points="394,374 469,127 414,94 382,147 41,231 41,360" fill="bisque"/>
  <g stroke="chocolate" stroke-width="1">
    <line x1="91" y1="342" x2="41" y2="256"/>
    <circle cx="91" cy="342" r="2"/>
    <circle cx="41" cy="256" r="2"/>
  </g>
  <g stroke="chocolate" stroke-width="1">
    <line x1="394" y1="374" x2="284" y2="308"/>
    <circle cx="394" cy="374" r="2"/>
    <circle cx="284" cy="308" r="2"/>
  </g>
  <g stroke="chocolate" stroke-width="1">
    <line x1="59" y1="359" x2="54" y2="234"/>
    <circle cx="59" cy="359" r="2"/>
    <circle cx="54" cy="234" r="2"/>
  </g>
  <g stroke="chocolate" stroke-width="1">
    <line x1="41" y1="360" x2="41" y2="231"/>
    <circle cx="41" cy="360" r="2"/>
    <circle cx="41" cy="231" r="2"/>
  </g>
  <g stroke="chocolate" stroke-width="1">
    <line x1="469" y1="127" x2="414" y2="94"/>
    <circle cx="469" cy="127" r="2"/>
    <circle cx="414" cy="94" r="2"/>
  </g>
  <g stroke="chocolate" stroke-width="1">
    <line x1="54" y1="234" x2="41" y2="231"/>
    <circle cx="54" cy="234" r="2"/>
    <circle cx="41" cy="231" r="2"/>
  </g>
  <g stroke="chocolate" stroke-width="1">
    <line x1="394" y1="374" x2="41" y2="360"/>
    <circle cx="394" cy="374" r="2"/>
    <circle cx="41" cy="360" r="2"/>
  </g>
  <g stroke="chocolate" stroke-width="1">
    <line x1="41" y1="360" x2="59" y2="359"/>
    <circle cx="41" cy="360" r="2"/>
    <circle cx="59" cy="359" r="2"/>
  </g>
  <g stroke="chocolate" stroke-width="1">
    <line x1="394" y1="374" x2="469" y2="127"/>
    <circle cx="394" cy="374" r="2"/>
    <circle cx="469" cy="127" r="2"/>
  </g>
  <g stroke="chocolate" stroke-width="1">
    <line x1="469" y1="127" x2="462" y2="127"/>
    <circle cx="469" cy="127" r="2"/>
    <circle cx="462" cy="127" r="2"/>
  </g>
  <g stroke="chocolate" stroke-width="1">
    <line x1="284" y1="308" x2="414" y2="94"/>
    <circle cx="284" cy="308" r="2"/>
    <circle cx="414" cy="94" r="2"/>
  </g>
  <g stroke="chocolate" stroke-width="1">
    <line x1="41" y1="231" x2="462" y2="127"/>
    <circle cx="41" cy="231" r="2"/>
    <circle cx="462" cy="127" r="2"/>
  </g>
  <g stroke="chocolate" stroke-width="1">
    <line x1="41" y1="256" x2="54" y2="234"/>
    <circle cx="41" cy="256" r="2"/>
    <circle cx="54" cy="234" r="2"/>
  </g>
  <g stroke="chocolate" stroke-width="1">
    <line x1="91" y1="342" x2="462" y2="127"/>
    <circle cx="91" cy="342" r="2"/>
    <circle cx="462" cy="127" r="2"/>
  </g>
  <g stroke="black" stroke-width="1">
    <line x1="5" y1="5" x2="505" y2="5"/>
    <line x1="5" y1="5" x2="5" y2="505"/>
    <line x1="505" y1="505" x2="5" y2="505"/>
    <line x1="505" y1="505" x2="505" y2="5"/>
    <line x1="105" y1="2" x2="105" y2="8"/>
    <line x1="2" y1="105" x2="8" y2="105"/>
    <line x1="105" y1="502" x2="105" y2="508"/>
    <line x1="502" y1="105" x2="508" y2="105"/>
    <line x1="205" y1="2" x2="205" y2="8"/>
    <line x1="2" y1="205" x2="8" y2="205"/>
    <line x1="205" y1="502" x2="205" y2="508"/>
    <line x1="502" y1="205" x2="508" y2="205"/>
    <line x1="305" y1="2" x2="305" y2="8"/>
    <line x1="2" y1="305" x2="8" y2="305"/>
    <line x1="305" y1="502" x2="305" y2="508"/>
    <line x1="502" y1="305" x2="508" y2="305"/>
    <line x1="405" y1="2" x2="405" y2="8"/>
    <line x1="2" y1="405" x2="8" y2="405"/>
    <line x1="405" y1="502" x2="405" y2="508"/>
    <line x1="502" y1="405" x2="508" y2="405"/>
  </g>
  <g stroke="gray" stroke-width="1" stroke-dasharray="5,5">
    <line x1="105" y1="5" x2="105" y2="505"/>
    <line x1="5" y1="105" x2="505" y2="105"/>
    <line x1="205" y1="5" x2="205" y2="505"/>
    <line x1="5" y1="205" x2="505" y2="205"/>
    <line x1="305" y1="5" x2="305" y2="505"/>
    <line x1="5" y1="305" x2="505" y2="305"/>
    <line x1="405" y1="5" x2="405" y2="505"/>
    <line x1="5" y1="405" x2="505" y2="405"/>
  </g>
</svg>
