<?xml version="1.0" standalone="no"?>
<!DOCTYPE svg PUBLIC "-//W3C//DTD SVG 1.1//EN" 
  "http://www.w3.org/Graphics/SVG/1.1/DTD/svg11.dtd">
<svg width="510" height="510" version="1.1" id="toplevel"
    xmlns="http://www.w3.org/2000/svg"
    xmlns:xlink="http://www.w3.org/1999/xlink">
  <polygon points="280,236 377,140 338,78 237,50 177,12 175,12 177,16 177,34 106,14 79,71 98,108 95,139 115,141 124,160 175,185 175,190 163,194 175,226 237,215"
           fill="bisque"/>
  <g stroke="chocolate" stroke-width="1">
    <line x1="315" y1="201" x2="338" y2="78"/>
    <circle cx="315" cy="201" r="2"/>
    <circle cx="338" cy="78" r="2"/>
  </g>
  <g stroke="chocolate" stroke-width="1">
    <line x1="124" y1="160" x2="138" y2="81"/>
    <circle cx="124" cy="160" r="2"/>
    <circle cx="138" cy="81" r="2"/>
  </g>
  <g stroke="chocolate" stroke-width="1">
    <line x1="95" y1="139" x2="106" y2="14"/>
    <circle cx="95" cy="139" r="2"/>
    <circle cx="106" cy="14" r="2"/>
  </g>
  <g stroke="chocolate" stroke-width="1">
    <line x1="175" y1="226" x2="177" y2="12"/>
    <circle cx="175" cy="226" r="2"/>
    <circle cx="177" cy="12" r="2"/>
  </g>
  <g stroke="chocolate" stroke-width="1">
    <line x1="280" y1="236" x2="377" y2="140"/>
    <circle cx="280" cy="236" r="2"/>
    <circle cx="377" cy="140" r="2"/>
  </g>
  <g stroke="chocolate" stroke-width="1">
    <line x1="355" y1="162" x2="352" y2="124"/>
    <circle cx="355" cy="162" r="2"/>
    <circle cx="352" cy="124" r="2"/>
  </g>
  <g stroke="chocolate" stroke-width="1">
    <line x1="366" y1="151" x2="365" y2="132"/>
    <circle cx="366" cy="151" r="2"/>
    <circle cx="365" cy="132" r="2"/>
  </g>
  <g stroke="chocolate" stroke-width="1">
    <line x1="367" y1="149" x2="366" y2="133"/>
    <circle cx="367" cy="149" r="2"/>
    <circle cx="366" cy="133" r="2"/>
  </g>
  <g stroke="chocolate" stroke-width="1">
    <line x1="79" y1="71" x2="106" y2="14"/>
    <circle cx="79" cy="71" r="2"/>
    <circle cx="106" cy="14" r="2"/>
  </g>
  <g stroke="chocolate" stroke-width="1">
    <line x1="175" y1="226" x2="163" y2="194"/>
    <circle cx="175" cy="226" r="2"/>
    <circle cx="163" cy="194" r="2"/>
  </g>
  <g stroke="chocolate" stroke-width="1">
    <line x1="124" y1="160" x2="79" y2="71"/>
    <circle cx="124" cy="160" r="2"/>
    <circle cx="79" cy="71" r="2"/>
  </g>
  <g stroke="chocolate" stroke-width="1">
    <line x1="280" y1="236" x2="175" y2="12"/>
    <circle cx="280" cy="236" r="2"/>
    <circle cx="175" cy="12" r="2"/>
  </g>
  <g stroke="chocolate" stroke-width="1">
    <line x1="168" y1="206" x2="366" y2="133"/>
    <circle cx="168" cy="206" r="2"/>
    <circle cx="366" cy="133" r="2"/>
  </g>
  <g stroke="chocolate" stroke-width="1">
    <line x1="167" y1="205" x2="365" y2="132"/>
    <circle cx="167" cy="205" r="2"/>
    <circle cx="365" cy="132" r="2"/>
  </g>
  <g stroke="chocolate" stroke-width="1">
    <line x1="163" y1="194" x2="352" y2="124"/>
    <circle cx="163" cy="194" r="2"/>
    <circle cx="352" cy="124" r="2"/>
  </g>
  <g stroke="chocolate" stroke-width="1">
    <line x1="175" y1="226" x2="315" y2="201"/>
    <circle cx="175" cy="226" r="2"/>
    <circle cx="315" cy="201" r="2"/>
  </g>
  <g stroke="chocolate" stroke-width="1">
    <line x1="377" y1="140" x2="338" y2="78"/>
    <circle cx="377" cy="140" r="2"/>
    <circle cx="338" cy="78" r="2"/>
  </g>
  <g stroke="chocolate" stroke-width="1">
    <line x1="280" y1="236" x2="124" y2="160"/>
    <circle cx="280" cy="236" r="2"/>
    <circle cx="124" cy="160" r="2"/>
  </g>
  <g stroke="chocolate" stroke-width="1">
    <line x1="175" y1="12" x2="177" y2="12"/>
    <circle cx="175" cy="12" r="2"/>
    <circle cx="177" cy="12" r="2"/>
  </g>
  <g stroke="chocolate" stroke-width="1">
    <line x1="355" y1="162" x2="95" y2="139"/>
    <circle cx="355" cy="162" r="2"/>
    <circle cx="95" cy="139" r="2"/>
  </g>
  <g stroke="chocolate" stroke-width="1">
    <line x1="366" y1="151" x2="96" y2="127"/>
    <circle cx="366" cy="151" r="2"/>
    <circle cx="96" cy="127" r="2"/>
  </g>
  <g stroke="chocolate" stroke-width="1">
    <line x1="367" y1="149" x2="96" y2="126"/>
    <circle cx="367" cy="149" r="2"/>
    <circle cx="96" cy="126" r="2"/>
  </g>
  <g stroke="chocolate" stroke-width="1">
    <line x1="377" y1="140" x2="177" y2="12"/>
    <circle cx="377" cy="140" r="2"/>
    <circle cx="177" cy="12" r="2"/>
  </g>
  <g stroke="chocolate" stroke-width="1">
    <line x1="138" y1="81" x2="79" y2="71"/>
    <circle cx="138" cy="81" r="2"/>
    <circle cx="79" cy="71" r="2"/>
  </g>
  <g stroke="chocolate" stroke-width="1">
    <line x1="338" y1="78" x2="106" y2="14"/>
    <circle cx="338" cy="78" r="2"/>
    <circle cx="106" cy="14" r="2"/>
  </g>
  <g stroke="black" stroke-width="1">
    <line x1="5" y1="5" x2="505" y2="5"/>
    <line x1="5" y1="5" x2="5" y2="505"/>
    <line x1="505" y1="505" x2="5" y2="505"/>
    <line x1="505" y1="505" x2="505" y2="5"/>
    <line x1="105" y1="2" x2="105" y2="8"/>
    <line x1="2" y1="105" x2="8" y2="105"/>
    <line x1="105" y1="502" x2="105" y2="508"/>
    <line x1="502" y1="105" x2="508" y2="105"/>
    <line x1="205" y1="2" x2="205" y2="8"/>
    <line x1="2" y1="205" x2="8" y2="205"/>
    <line x1="205" y1="502" x2="205" y2="508"/>
    <line x1="502" y1="205" x2="508" y2="205"/>
    <line x1="305" y1="2" x2="305" y2="8"/>
    <line x1="2" y1="305" x2="8" y2="305"/>
    <line x1="305" y1="502" x2="305" y2="508"/>
    <line x1="502" y1="305" x2="508" y2="305"/>
    <line x1="405" y1="2" x2="405" y2="8"/>
    <line x1="2" y1="405" x2="8" y2="405"/>
    <line x1="405" y1="502" x2="405" y2="508"/>
    <line x1="502" y1="405" x2="508" y2="405"/>
  </g>
  <g stroke="gray" stroke-width="1" stroke-dasharray="5,5">
    <line x1="105" y1="5" x2="105" y2="505"/>
    <line x1="5" y1="105" x2="505" y2="105"/>
    <line x1="205" y1="5" x2="205" y2="505"/>
    <line x1="5" y1="205" x2="505" y2="205"/>
    <line x1="305" y1="5" x2="305" y2="505"/>
    <line x1="5" y1="305" x2="505" y2="305"/>
    <line x1="405" y1="5" x2="405" y2="505"/>
    <line x1="5" y1="405" x2="505" y2="405"/>
  </g>
</svg>
