<?xml version="1.0" standalone="no"?>
<!DOCTYPE svg PUBLIC "-//W3C//DTD SVG 1.1//EN" 
  "http://www.w3.org/Graphics/SVG/1.1/DTD/svg11.dtd">
<svg width="510" height="510" version="1.1" id="toplevel"
    xmlns="http://www.w3.org/2000/svg"
    xmlns:xlink="http://www.w3.org/1999/xlink">
  <polygon points="302,503 314,479 307,472 389,11 387,7 381,8 363,31 266,105 226,197 228,199 223,204 138,402 136,399 130,405 121,443 188,466 189,464 221,476 221,477"
           fill="bisque"/>
  <g stroke="chocolate" stroke-width="1">
    <line x1="302" y1="503" x2="314" y2="479"/>
    <circle cx="302" cy="503" r="2"/>
    <circle cx="314" cy="479" r="2"/>
  </g>
  <g stroke="chocolate" stroke-width="1">
    <line x1="262" y1="490" x2="268" y2="475"/>
    <circle cx="262" cy="490" r="2"/>
    <circle cx="268" cy="475" r="2"/>
  </g>
  <g stroke="chocolate" stroke-width="1">
    <line x1="262" y1="490" x2="375" y2="94"/>
    <circle cx="262" cy="490" r="2"/>
    <circle cx="375" cy="94" r="2"/>
  </g>
  <g stroke="chocolate" stroke-width="1">
    <line x1="303" y1="243" x2="387" y2="24"/>
    <circle cx="303" cy="243" r="2"/>
    <circle cx="387" cy="24" r="2"/>
  </g>
  <g stroke="chocolate" stroke-width="1">
    <line x1="188" y1="466" x2="191" y2="460"/>
    <circle cx="188" cy="466" r="2"/>
    <circle cx="191" cy="460" r="2"/>
  </g>
  <g stroke="chocolate" stroke-width="1">
    <line x1="302" y1="503" x2="389" y2="11"/>
    <circle cx="302" cy="503" r="2"/>
    <circle cx="389" cy="11" r="2"/>
  </g>
  <g stroke="chocolate" stroke-width="1">
    <line x1="221" y1="477" x2="271" y2="432"/>
    <circle cx="221" cy="477" r="2"/>
    <circle cx="271" cy="432" r="2"/>
  </g>
  <g stroke="chocolate" stroke-width="1">
    <line x1="121" y1="443" x2="223" y2="204"/>
    <circle cx="121" cy="443" r="2"/>
    <circle cx="223" cy="204" r="2"/>
  </g>
  <g stroke="chocolate" stroke-width="1">
    <line x1="226" y1="197" x2="266" y2="105"/>
    <circle cx="226" cy="197" r="2"/>
    <circle cx="266" cy="105" r="2"/>
  </g>
  <g stroke="chocolate" stroke-width="1">
    <line x1="121" y1="443" x2="130" y2="405"/>
    <circle cx="121" cy="443" r="2"/>
    <circle cx="130" cy="405" r="2"/>
  </g>
  <g stroke="chocolate" stroke-width="1">
    <line x1="188" y1="466" x2="223" y2="204"/>
    <circle cx="188" cy="466" r="2"/>
    <circle cx="223" cy="204" r="2"/>
  </g>
  <g stroke="chocolate" stroke-width="1">
    <line x1="375" y1="94" x2="381" y2="8"/>
    <circle cx="375" cy="94" r="2"/>
    <circle cx="381" cy="8" r="2"/>
  </g>
  <g stroke="chocolate" stroke-width="1">
    <line x1="387" y1="24" x2="387" y2="7"/>
    <circle cx="387" cy="24" r="2"/>
    <circle cx="387" cy="7" r="2"/>
  </g>
  <g stroke="chocolate" stroke-width="1">
    <line x1="223" y1="204" x2="381" y2="8"/>
    <circle cx="223" cy="204" r="2"/>
    <circle cx="381" cy="8" r="2"/>
  </g>
  <g stroke="chocolate" stroke-width="1">
    <line x1="130" y1="405" x2="136" y2="399"/>
    <circle cx="130" cy="405" r="2"/>
    <circle cx="136" cy="399" r="2"/>
  </g>
  <g stroke="chocolate" stroke-width="1">
    <line x1="148" y1="452" x2="332" y2="335"/>
    <circle cx="148" cy="452" r="2"/>
    <circle cx="332" cy="335" r="2"/>
  </g>
  <g stroke="chocolate" stroke-width="1">
    <line x1="275" y1="192" x2="266" y2="105"/>
    <circle cx="275" cy="192" r="2"/>
    <circle cx="266" cy="105" r="2"/>
  </g>
  <g stroke="chocolate" stroke-width="1">
    <line x1="221" y1="477" x2="184" y2="296"/>
    <circle cx="221" cy="477" r="2"/>
    <circle cx="184" cy="296" r="2"/>
  </g>
  <g stroke="chocolate" stroke-width="1">
    <line x1="148" y1="452" x2="130" y2="405"/>
    <circle cx="148" cy="452" r="2"/>
    <circle cx="130" cy="405" r="2"/>
  </g>
  <g stroke="chocolate" stroke-width="1">
    <line x1="184" y1="296" x2="213" y2="277"/>
    <circle cx="184" cy="296" r="2"/>
    <circle cx="213" cy="277" r="2"/>
  </g>
  <g stroke="chocolate" stroke-width="1">
    <line x1="266" y1="105" x2="389" y2="11"/>
    <circle cx="266" cy="105" r="2"/>
    <circle cx="389" cy="11" r="2"/>
  </g>
  <g stroke="chocolate" stroke-width="1">
    <line x1="314" y1="479" x2="268" y2="475"/>
    <circle cx="314" cy="479" r="2"/>
    <circle cx="268" cy="475" r="2"/>
  </g>
  <g stroke="chocolate" stroke-width="1">
    <line x1="191" y1="460" x2="136" y2="399"/>
    <circle cx="191" cy="460" r="2"/>
    <circle cx="136" cy="399" r="2"/>
  </g>
  <g stroke="chocolate" stroke-width="1">
    <line x1="191" y1="460" x2="147" y2="452"/>
    <circle cx="191" cy="460" r="2"/>
    <circle cx="147" cy="452" r="2"/>
  </g>
  <g stroke="chocolate" stroke-width="1">
    <line x1="303" y1="501" x2="236" y2="482"/>
    <circle cx="303" cy="501" r="2"/>
    <circle cx="236" cy="482" r="2"/>
  </g>
  <g stroke="chocolate" stroke-width="1">
    <line x1="302" y1="503" x2="221" y2="477"/>
    <circle cx="302" cy="503" r="2"/>
    <circle cx="221" cy="477" r="2"/>
  </g>
  <g stroke="chocolate" stroke-width="1">
    <line x1="188" y1="466" x2="121" y2="443"/>
    <circle cx="188" cy="466" r="2"/>
    <circle cx="121" cy="443" r="2"/>
  </g>
  <g stroke="chocolate" stroke-width="1">
    <line x1="147" y1="452" x2="122" y2="440"/>
    <circle cx="147" cy="452" r="2"/>
    <circle cx="122" cy="440" r="2"/>
  </g>
  <g stroke="chocolate" stroke-width="1">
    <line x1="236" y1="482" x2="122" y2="440"/>
    <circle cx="236" cy="482" r="2"/>
    <circle cx="122" cy="440" r="2"/>
  </g>
  <g stroke="chocolate" stroke-width="1">
    <line x1="314" y1="479" x2="271" y2="432"/>
    <circle cx="314" cy="479" r="2"/>
    <circle cx="271" cy="432" r="2"/>
  </g>
  <g stroke="chocolate" stroke-width="1">
    <line x1="303" y1="501" x2="268" y2="475"/>
    <circle cx="303" cy="501" r="2"/>
    <circle cx="268" cy="475" r="2"/>
  </g>
  <g stroke="chocolate" stroke-width="1">
    <line x1="332" y1="335" x2="226" y2="197"/>
    <circle cx="332" cy="335" r="2"/>
    <circle cx="226" cy="197" r="2"/>
  </g>
  <g stroke="chocolate" stroke-width="1">
    <line x1="213" y1="277" x2="199" y2="261"/>
    <circle cx="213" cy="277" r="2"/>
    <circle cx="199" cy="261" r="2"/>
  </g>
  <g stroke="chocolate" stroke-width="1">
    <line x1="199" y1="261" x2="345" y2="260"/>
    <circle cx="199" cy="261" r="2"/>
    <circle cx="345" cy="260" r="2"/>
  </g>
  <g stroke="chocolate" stroke-width="1">
    <line x1="389" y1="11" x2="387" y2="7"/>
    <circle cx="389" cy="11" r="2"/>
    <circle cx="387" cy="7" r="2"/>
  </g>
  <g stroke="chocolate" stroke-width="1">
    <line x1="226" y1="197" x2="275" y2="192"/>
    <circle cx="226" cy="197" r="2"/>
    <circle cx="275" cy="192" r="2"/>
  </g>
  <g stroke="chocolate" stroke-width="1">
    <line x1="381" y1="8" x2="387" y2="7"/>
    <circle cx="381" cy="8" r="2"/>
    <circle cx="387" cy="7" r="2"/>
  </g>
  <g stroke="chocolate" stroke-width="1">
    <line x1="345" y1="260" x2="303" y2="243"/>
    <circle cx="345" cy="260" r="2"/>
    <circle cx="303" cy="243" r="2"/>
  </g>
  <g stroke="black" stroke-width="1">
    <line x1="5" y1="5" x2="505" y2="5"/>
    <line x1="5" y1="5" x2="5" y2="505"/>
    <line x1="505" y1="505" x2="5" y2="505"/>
    <line x1="505" y1="505" x2="505" y2="5"/>
    <line x1="105" y1="2" x2="105" y2="8"/>
    <line x1="2" y1="105" x2="8" y2="105"/>
    <line x1="105" y1="502" x2="105" y2="508"/>
    <line x1="502" y1="105" x2="508" y2="105"/>
    <line x1="205" y1="2" x2="205" y2="8"/>
    <line x1="2" y1="205" x2="8" y2="205"/>
    <line x1="205" y1="502" x2="205" y2="508"/>
    <line x1="502" y1="205" x2="508" y2="205"/>
    <line x1="305" y1="2" x2="305" y2="8"/>
    <line x1="2" y1="305" x2="8" y2="305"/>
    <line x1="305" y1="502" x2="305" y2="508"/>
    <line x1="502" y1="305" x2="508" y2="305"/>
    <line x1="405" y1="2" x2="405" y2="8"/>
    <line x1="2" y1="405" x2="8" y2="405"/>
    <line x1="405" y1="502" x2="405" y2="508"/>
    <line x1="502" y1="405" x2="508" y2="405"/>
  </g>
  <g stroke="gray" stroke-width="1" stroke-dasharray="5,5">
    <line x1="105" y1="5" x2="105" y2="505"/>
    <line x1="5" y1="105" x2="505" y2="105"/>
    <line x1="205" y1="5" x2="205" y2="505"/>
    <line x1="5" y1="205" x2="505" y2="205"/>
    <line x1="305" y1="5" x2="305" y2="505"/>
    <line x1="5" y1="305" x2="505" y2="305"/>
    <line x1="405" y1="5" x2="405" y2="505"/>
    <line x1="5" y1="405" x2="505" y2="405"/>
  </g>
</svg>
