<?xml version="1.0" standalone="no"?>
<!DOCTYPE svg PUBLIC "-//W3C//DTD SVG 1.1//EN" 
  "http://www.w3.org/Graphics/SVG/1.1/DTD/svg11.dtd">
<svg width="510" height="510" version="1.1" id="toplevel"
    xmlns="http://www.w3.org/2000/svg"
    xmlns:xlink="http://www.w3.org/1999/xlink">
  <polygon points="341,389 374,384 374,380 374,380 374,375 374,375 374,371 374,371 374,366 374,366 373,361 374,361 365,239 248,121 238,121 136,224 145,371 238,371 238,231 248,231 248,361 339,361 339,366 339,366 340,371 340,371 340,375 340,375 341,380 341,380 341,387"
           fill="bisque"/>
  <g stroke="chocolate" stroke-width="1">
    <line x1="136" y1="224" x2="238" y2="121"/>
    <circle cx="136" cy="224" r="2"/>
    <circle cx="238" cy="121" r="2"/>
  </g>
  <g stroke="chocolate" stroke-width="1">
    <line x1="341" y1="389" x2="374" y2="384"/>
    <circle cx="341" cy="389" r="2"/>
    <circle cx="374" cy="384" r="2"/>
  </g>
  <g stroke="chocolate" stroke-width="1">
    <line x1="341" y1="384" x2="374" y2="380"/>
    <circle cx="341" cy="384" r="2"/>
    <circle cx="374" cy="380" r="2"/>
  </g>
  <g stroke="chocolate" stroke-width="1">
    <line x1="341" y1="380" x2="374" y2="375"/>
    <circle cx="341" cy="380" r="2"/>
    <circle cx="374" cy="375" r="2"/>
  </g>
  <g stroke="chocolate" stroke-width="1">
    <line x1="340" y1="375" x2="374" y2="371"/>
    <circle cx="340" cy="375" r="2"/>
    <circle cx="374" cy="371" r="2"/>
  </g>
  <g stroke="chocolate" stroke-width="1">
    <line x1="340" y1="371" x2="374" y2="366"/>
    <circle cx="340" cy="371" r="2"/>
    <circle cx="374" cy="366" r="2"/>
  </g>
  <g stroke="chocolate" stroke-width="1">
    <line x1="339" y1="366" x2="374" y2="361"/>
    <circle cx="339" cy="366" r="2"/>
    <circle cx="374" cy="361" r="2"/>
  </g>
  <g stroke="chocolate" stroke-width="1">
    <line x1="145" y1="371" x2="180" y2="367"/>
    <circle cx="145" cy="371" r="2"/>
    <circle cx="180" cy="367" r="2"/>
  </g>
  <g stroke="chocolate" stroke-width="1">
    <line x1="145" y1="367" x2="179" y2="362"/>
    <circle cx="145" cy="367" r="2"/>
    <circle cx="179" cy="362" r="2"/>
  </g>
  <g stroke="chocolate" stroke-width="1">
    <line x1="145" y1="362" x2="179" y2="358"/>
    <circle cx="145" cy="362" r="2"/>
    <circle cx="179" cy="358" r="2"/>
  </g>
  <g stroke="chocolate" stroke-width="1">
    <line x1="145" y1="358" x2="179" y2="353"/>
    <circle cx="145" cy="358" r="2"/>
    <circle cx="179" cy="353" r="2"/>
  </g>
  <g stroke="chocolate" stroke-width="1">
    <line x1="145" y1="353" x2="178" y2="349"/>
    <circle cx="145" cy="353" r="2"/>
    <circle cx="178" cy="349" r="2"/>
  </g>
  <g stroke="chocolate" stroke-width="1">
    <line x1="145" y1="349" x2="178" y2="344"/>
    <circle cx="145" cy="349" r="2"/>
    <circle cx="178" cy="344" r="2"/>
  </g>
  <g stroke="chocolate" stroke-width="1">
    <line x1="341" y1="384" x2="374" y2="384"/>
    <circle cx="341" cy="384" r="2"/>
    <circle cx="374" cy="384" r="2"/>
  </g>
  <g stroke="chocolate" stroke-width="1">
    <line x1="341" y1="380" x2="374" y2="380"/>
    <circle cx="341" cy="380" r="2"/>
    <circle cx="374" cy="380" r="2"/>
  </g>
  <g stroke="chocolate" stroke-width="1">
    <line x1="340" y1="375" x2="374" y2="375"/>
    <circle cx="340" cy="375" r="2"/>
    <circle cx="374" cy="375" r="2"/>
  </g>
  <g stroke="chocolate" stroke-width="1">
    <line x1="145" y1="371" x2="238" y2="371"/>
    <circle cx="145" cy="371" r="2"/>
    <circle cx="238" cy="371" r="2"/>
  </g>
  <g stroke="chocolate" stroke-width="1">
    <line x1="145" y1="344" x2="145" y2="215"/>
    <circle cx="145" cy="344" r="2"/>
    <circle cx="145" cy="215" r="2"/>
  </g>
  <g stroke="chocolate" stroke-width="1">
    <line x1="238" y1="371" x2="238" y2="121"/>
    <circle cx="238" cy="371" r="2"/>
    <circle cx="238" cy="121" r="2"/>
  </g>
  <g stroke="chocolate" stroke-width="1">
    <line x1="248" y1="361" x2="248" y2="121"/>
    <circle cx="248" cy="361" r="2"/>
    <circle cx="248" cy="121" r="2"/>
  </g>
  <g stroke="chocolate" stroke-width="1">
    <line x1="341" y1="387" x2="341" y2="215"/>
    <circle cx="341" cy="387" r="2"/>
    <circle cx="341" cy="215" r="2"/>
  </g>
  <g stroke="chocolate" stroke-width="1">
    <line x1="340" y1="371" x2="374" y2="371"/>
    <circle cx="340" cy="371" r="2"/>
    <circle cx="374" cy="371" r="2"/>
  </g>
  <g stroke="chocolate" stroke-width="1">
    <line x1="145" y1="367" x2="180" y2="367"/>
    <circle cx="145" cy="367" r="2"/>
    <circle cx="180" cy="367" r="2"/>
  </g>
  <g stroke="chocolate" stroke-width="1">
    <line x1="339" y1="366" x2="374" y2="366"/>
    <circle cx="339" cy="366" r="2"/>
    <circle cx="374" cy="366" r="2"/>
  </g>
  <g stroke="chocolate" stroke-width="1">
    <line x1="145" y1="362" x2="179" y2="362"/>
    <circle cx="145" cy="362" r="2"/>
    <circle cx="179" cy="362" r="2"/>
  </g>
  <g stroke="chocolate" stroke-width="1">
    <line x1="248" y1="361" x2="374" y2="361"/>
    <circle cx="248" cy="361" r="2"/>
    <circle cx="374" cy="361" r="2"/>
  </g>
  <g stroke="chocolate" stroke-width="1">
    <line x1="145" y1="358" x2="179" y2="358"/>
    <circle cx="145" cy="358" r="2"/>
    <circle cx="179" cy="358" r="2"/>
  </g>
  <g stroke="chocolate" stroke-width="1">
    <line x1="145" y1="353" x2="179" y2="353"/>
    <circle cx="145" cy="353" r="2"/>
    <circle cx="179" cy="353" r="2"/>
  </g>
  <g stroke="chocolate" stroke-width="1">
    <line x1="145" y1="349" x2="178" y2="349"/>
    <circle cx="145" cy="349" r="2"/>
    <circle cx="178" cy="349" r="2"/>
  </g>
  <g stroke="chocolate" stroke-width="1">
    <line x1="145" y1="371" x2="136" y2="224"/>
    <circle cx="145" cy="371" r="2"/>
    <circle cx="136" cy="224" r="2"/>
  </g>
  <g stroke="chocolate" stroke-width="1">
    <line x1="145" y1="367" x2="136" y2="224"/>
    <circle cx="145" cy="367" r="2"/>
    <circle cx="136" cy="224" r="2"/>
  </g>
  <g stroke="chocolate" stroke-width="1">
    <line x1="145" y1="362" x2="136" y2="223"/>
    <circle cx="145" cy="362" r="2"/>
    <circle cx="136" cy="223" r="2"/>
  </g>
  <g stroke="chocolate" stroke-width="1">
    <line x1="145" y1="358" x2="136" y2="223"/>
    <circle cx="145" cy="358" r="2"/>
    <circle cx="136" cy="223" r="2"/>
  </g>
  <g stroke="chocolate" stroke-width="1">
    <line x1="145" y1="353" x2="136" y2="223"/>
    <circle cx="145" cy="353" r="2"/>
    <circle cx="136" cy="223" r="2"/>
  </g>
  <g stroke="chocolate" stroke-width="1">
    <line x1="145" y1="349" x2="136" y2="223"/>
    <circle cx="145" cy="349" r="2"/>
    <circle cx="136" cy="223" r="2"/>
  </g>
  <g stroke="chocolate" stroke-width="1">
    <line x1="145" y1="344" x2="178" y2="344"/>
    <circle cx="145" cy="344" r="2"/>
    <circle cx="178" cy="344" r="2"/>
  </g>
  <g stroke="chocolate" stroke-width="1">
    <line x1="178" y1="349" x2="168" y2="192"/>
    <circle cx="178" cy="349" r="2"/>
    <circle cx="168" cy="192" r="2"/>
  </g>
  <g stroke="chocolate" stroke-width="1">
    <line x1="179" y1="353" x2="168" y2="192"/>
    <circle cx="179" cy="353" r="2"/>
    <circle cx="168" cy="192" r="2"/>
  </g>
  <g stroke="chocolate" stroke-width="1">
    <line x1="179" y1="358" x2="168" y2="191"/>
    <circle cx="179" cy="358" r="2"/>
    <circle cx="168" cy="191" r="2"/>
  </g>
  <g stroke="chocolate" stroke-width="1">
    <line x1="179" y1="362" x2="168" y2="191"/>
    <circle cx="179" cy="362" r="2"/>
    <circle cx="168" cy="191" r="2"/>
  </g>
  <g stroke="chocolate" stroke-width="1">
    <line x1="180" y1="367" x2="168" y2="191"/>
    <circle cx="180" cy="367" r="2"/>
    <circle cx="168" cy="191" r="2"/>
  </g>
  <g stroke="chocolate" stroke-width="1">
    <line x1="339" y1="366" x2="328" y2="202"/>
    <circle cx="339" cy="366" r="2"/>
    <circle cx="328" cy="202" r="2"/>
  </g>
  <g stroke="chocolate" stroke-width="1">
    <line x1="340" y1="371" x2="328" y2="202"/>
    <circle cx="340" cy="371" r="2"/>
    <circle cx="328" cy="202" r="2"/>
  </g>
  <g stroke="chocolate" stroke-width="1">
    <line x1="340" y1="375" x2="329" y2="202"/>
    <circle cx="340" cy="375" r="2"/>
    <circle cx="329" cy="202" r="2"/>
  </g>
  <g stroke="chocolate" stroke-width="1">
    <line x1="341" y1="380" x2="329" y2="202"/>
    <circle cx="341" cy="380" r="2"/>
    <circle cx="329" cy="202" r="2"/>
  </g>
  <g stroke="chocolate" stroke-width="1">
    <line x1="341" y1="387" x2="329" y2="202"/>
    <circle cx="341" cy="387" r="2"/>
    <circle cx="329" cy="202" r="2"/>
  </g>
  <g stroke="chocolate" stroke-width="1">
    <line x1="374" y1="384" x2="365" y2="238"/>
    <circle cx="374" cy="384" r="2"/>
    <circle cx="365" cy="238" r="2"/>
  </g>
  <g stroke="chocolate" stroke-width="1">
    <line x1="374" y1="380" x2="365" y2="238"/>
    <circle cx="374" cy="380" r="2"/>
    <circle cx="365" cy="238" r="2"/>
  </g>
  <g stroke="chocolate" stroke-width="1">
    <line x1="374" y1="375" x2="365" y2="239"/>
    <circle cx="374" cy="375" r="2"/>
    <circle cx="365" cy="239" r="2"/>
  </g>
  <g stroke="chocolate" stroke-width="1">
    <line x1="374" y1="371" x2="365" y2="239"/>
    <circle cx="374" cy="371" r="2"/>
    <circle cx="365" cy="239" r="2"/>
  </g>
  <g stroke="chocolate" stroke-width="1">
    <line x1="374" y1="366" x2="365" y2="239"/>
    <circle cx="374" cy="366" r="2"/>
    <circle cx="365" cy="239" r="2"/>
  </g>
  <g stroke="chocolate" stroke-width="1">
    <line x1="374" y1="361" x2="365" y2="239"/>
    <circle cx="374" cy="361" r="2"/>
    <circle cx="365" cy="239" r="2"/>
  </g>
  <g stroke="chocolate" stroke-width="1">
    <line x1="341" y1="389" x2="341" y2="387"/>
    <circle cx="341" cy="389" r="2"/>
    <circle cx="341" cy="387" r="2"/>
  </g>
  <g stroke="chocolate" stroke-width="1">
    <line x1="145" y1="215" x2="341" y2="215"/>
    <circle cx="145" cy="215" r="2"/>
    <circle cx="341" cy="215" r="2"/>
  </g>
  <g stroke="chocolate" stroke-width="1">
    <line x1="365" y1="239" x2="136" y2="224"/>
    <circle cx="365" cy="239" r="2"/>
    <circle cx="136" cy="224" r="2"/>
  </g>
  <g stroke="chocolate" stroke-width="1">
    <line x1="365" y1="239" x2="136" y2="224"/>
    <circle cx="365" cy="239" r="2"/>
    <circle cx="136" cy="224" r="2"/>
  </g>
  <g stroke="chocolate" stroke-width="1">
    <line x1="365" y1="239" x2="136" y2="223"/>
    <circle cx="365" cy="239" r="2"/>
    <circle cx="136" cy="223" r="2"/>
  </g>
  <g stroke="chocolate" stroke-width="1">
    <line x1="365" y1="239" x2="136" y2="223"/>
    <circle cx="365" cy="239" r="2"/>
    <circle cx="136" cy="223" r="2"/>
  </g>
  <g stroke="chocolate" stroke-width="1">
    <line x1="365" y1="238" x2="136" y2="223"/>
    <circle cx="365" cy="238" r="2"/>
    <circle cx="136" cy="223" r="2"/>
  </g>
  <g stroke="chocolate" stroke-width="1">
    <line x1="365" y1="238" x2="136" y2="223"/>
    <circle cx="365" cy="238" r="2"/>
    <circle cx="136" cy="223" r="2"/>
  </g>
  <g stroke="chocolate" stroke-width="1">
    <line x1="329" y1="202" x2="168" y2="192"/>
    <circle cx="329" cy="202" r="2"/>
    <circle cx="168" cy="192" r="2"/>
  </g>
  <g stroke="chocolate" stroke-width="1">
    <line x1="329" y1="202" x2="168" y2="192"/>
    <circle cx="329" cy="202" r="2"/>
    <circle cx="168" cy="192" r="2"/>
  </g>
  <g stroke="chocolate" stroke-width="1">
    <line x1="329" y1="202" x2="168" y2="191"/>
    <circle cx="329" cy="202" r="2"/>
    <circle cx="168" cy="191" r="2"/>
  </g>
  <g stroke="chocolate" stroke-width="1">
    <line x1="328" y1="202" x2="168" y2="191"/>
    <circle cx="328" cy="202" r="2"/>
    <circle cx="168" cy="191" r="2"/>
  </g>
  <g stroke="chocolate" stroke-width="1">
    <line x1="328" y1="202" x2="168" y2="191"/>
    <circle cx="328" cy="202" r="2"/>
    <circle cx="168" cy="191" r="2"/>
  </g>
  <g stroke="chocolate" stroke-width="1">
    <line x1="238" y1="121" x2="248" y2="121"/>
    <circle cx="238" cy="121" r="2"/>
    <circle cx="248" cy="121" r="2"/>
  </g>
  <g stroke="chocolate" stroke-width="1">
    <line x1="365" y1="239" x2="248" y2="121"/>
    <circle cx="365" cy="239" r="2"/>
    <circle cx="248" cy="121" r="2"/>
  </g>
  <g stroke="black" stroke-width="1">
    <line x1="5" y1="5" x2="505" y2="5"/>
    <line x1="5" y1="5" x2="5" y2="505"/>
    <line x1="505" y1="505" x2="5" y2="505"/>
    <line x1="505" y1="505" x2="505" y2="5"/>
    <line x1="105" y1="2" x2="105" y2="8"/>
    <line x1="2" y1="105" x2="8" y2="105"/>
    <line x1="105" y1="502" x2="105" y2="508"/>
    <line x1="502" y1="105" x2="508" y2="105"/>
    <line x1="205" y1="2" x2="205" y2="8"/>
    <line x1="2" y1="205" x2="8" y2="205"/>
    <line x1="205" y1="502" x2="205" y2="508"/>
    <line x1="502" y1="205" x2="508" y2="205"/>
    <line x1="305" y1="2" x2="305" y2="8"/>
    <line x1="2" y1="305" x2="8" y2="305"/>
    <line x1="305" y1="502" x2="305" y2="508"/>
    <line x1="502" y1="305" x2="508" y2="305"/>
    <line x1="405" y1="2" x2="405" y2="8"/>
    <line x1="2" y1="405" x2="8" y2="405"/>
    <line x1="405" y1="502" x2="405" y2="508"/>
    <line x1="502" y1="405" x2="508" y2="405"/>
  </g>
  <g stroke="gray" stroke-width="1" stroke-dasharray="5,5">
    <line x1="105" y1="5" x2="105" y2="505"/>
    <line x1="5" y1="105" x2="505" y2="105"/>
    <line x1="205" y1="5" x2="205" y2="505"/>
    <line x1="5" y1="205" x2="505" y2="205"/>
    <line x1="305" y1="5" x2="305" y2="505"/>
    <line x1="5" y1="305" x2="505" y2="305"/>
    <line x1="405" y1="5" x2="405" y2="505"/>
    <line x1="5" y1="405" x2="505" y2="405"/>
  </g>
</svg>
