<?xml version="1.0" standalone="no"?>
<!DOCTYPE svg PUBLIC "-//W3C//DTD SVG 1.1//EN" 
  "http://www.w3.org/Graphics/SVG/1.1/DTD/svg11.dtd">
<svg width="510" height="510" version="1.1" id="toplevel"
    xmlns="http://www.w3.org/2000/svg"
    xmlns:xlink="http://www.w3.org/1999/xlink">
  <polygon points="146,388 384,349 488,252 491,221 389,211 291,236 219,122 99,156 120,232 93,263 19,265 22,343"
           fill="bisque"/>
  <g stroke="chocolate" stroke-width="1">
    <line x1="164" y1="385" x2="99" y2="156"/>
    <circle cx="164" cy="385" r="2"/>
    <circle cx="99" cy="156" r="2"/>
  </g>
  <g stroke="chocolate" stroke-width="1">
    <line x1="266" y1="368" x2="236" y2="265"/>
    <circle cx="266" cy="368" r="2"/>
    <circle cx="236" cy="265" r="2"/>
  </g>
  <g stroke="chocolate" stroke-width="1">
    <line x1="363" y1="352" x2="219" y2="122"/>
    <circle cx="363" cy="352" r="2"/>
    <circle cx="219" cy="122" r="2"/>
  </g>
  <g stroke="chocolate" stroke-width="1">
    <line x1="164" y1="385" x2="163" y2="374"/>
    <circle cx="164" cy="385" r="2"/>
    <circle cx="163" cy="374" r="2"/>
  </g>
  <g stroke="chocolate" stroke-width="1">
    <line x1="266" y1="368" x2="262" y2="294"/>
    <circle cx="266" cy="368" r="2"/>
    <circle cx="262" cy="294" r="2"/>
  </g>
  <g stroke="chocolate" stroke-width="1">
    <line x1="22" y1="343" x2="19" y2="265"/>
    <circle cx="22" cy="343" r="2"/>
    <circle cx="19" cy="265" r="2"/>
  </g>
  <g stroke="chocolate" stroke-width="1">
    <line x1="416" y1="319" x2="374" y2="256"/>
    <circle cx="416" cy="319" r="2"/>
    <circle cx="374" cy="256" r="2"/>
  </g>
  <g stroke="chocolate" stroke-width="1">
    <line x1="488" y1="252" x2="491" y2="221"/>
    <circle cx="488" cy="252" r="2"/>
    <circle cx="491" cy="221" r="2"/>
  </g>
  <g stroke="chocolate" stroke-width="1">
    <line x1="285" y1="284" x2="242" y2="249"/>
    <circle cx="285" cy="284" r="2"/>
    <circle cx="242" cy="249" r="2"/>
  </g>
  <g stroke="chocolate" stroke-width="1">
    <line x1="363" y1="352" x2="366" y2="341"/>
    <circle cx="363" cy="352" r="2"/>
    <circle cx="366" cy="341" r="2"/>
  </g>
  <g stroke="chocolate" stroke-width="1">
    <line x1="357" y1="353" x2="236" y2="265"/>
    <circle cx="357" cy="353" r="2"/>
    <circle cx="236" cy="265" r="2"/>
  </g>
  <g stroke="chocolate" stroke-width="1">
    <line x1="146" y1="388" x2="22" y2="343"/>
    <circle cx="146" cy="388" r="2"/>
    <circle cx="22" cy="343" r="2"/>
  </g>
  <g stroke="chocolate" stroke-width="1">
    <line x1="416" y1="319" x2="306" y2="232"/>
    <circle cx="416" cy="319" r="2"/>
    <circle cx="306" cy="232" r="2"/>
  </g>
  <g stroke="chocolate" stroke-width="1">
    <line x1="188" y1="381" x2="163" y2="374"/>
    <circle cx="188" cy="381" r="2"/>
    <circle cx="163" cy="374" r="2"/>
  </g>
  <g stroke="chocolate" stroke-width="1">
    <line x1="384" y1="349" x2="262" y2="294"/>
    <circle cx="384" cy="349" r="2"/>
    <circle cx="262" cy="294" r="2"/>
  </g>
  <g stroke="chocolate" stroke-width="1">
    <line x1="285" y1="284" x2="306" y2="232"/>
    <circle cx="285" cy="284" r="2"/>
    <circle cx="306" cy="232" r="2"/>
  </g>
  <g stroke="chocolate" stroke-width="1">
    <line x1="236" y1="265" x2="242" y2="249"/>
    <circle cx="236" cy="265" r="2"/>
    <circle cx="242" cy="249" r="2"/>
  </g>
  <g stroke="chocolate" stroke-width="1">
    <line x1="357" y1="353" x2="366" y2="341"/>
    <circle cx="357" cy="353" r="2"/>
    <circle cx="366" cy="341" r="2"/>
  </g>
  <g stroke="chocolate" stroke-width="1">
    <line x1="384" y1="349" x2="488" y2="252"/>
    <circle cx="384" cy="349" r="2"/>
    <circle cx="488" cy="252" r="2"/>
  </g>
  <g stroke="chocolate" stroke-width="1">
    <line x1="146" y1="388" x2="384" y2="349"/>
    <circle cx="146" cy="388" r="2"/>
    <circle cx="384" cy="349" r="2"/>
  </g>
  <g stroke="chocolate" stroke-width="1">
    <line x1="188" y1="381" x2="374" y2="256"/>
    <circle cx="188" cy="381" r="2"/>
    <circle cx="374" cy="256" r="2"/>
  </g>
  <g stroke="chocolate" stroke-width="1">
    <line x1="146" y1="388" x2="262" y2="294"/>
    <circle cx="146" cy="388" r="2"/>
    <circle cx="262" cy="294" r="2"/>
  </g>
  <g stroke="chocolate" stroke-width="1">
    <line x1="285" y1="284" x2="389" y2="211"/>
    <circle cx="285" cy="284" r="2"/>
    <circle cx="389" cy="211" r="2"/>
  </g>
  <g stroke="chocolate" stroke-width="1">
    <line x1="19" y1="265" x2="488" y2="252"/>
    <circle cx="19" cy="265" r="2"/>
    <circle cx="488" cy="252" r="2"/>
  </g>
  <g stroke="chocolate" stroke-width="1">
    <line x1="491" y1="221" x2="389" y2="211"/>
    <circle cx="491" cy="221" r="2"/>
    <circle cx="389" cy="211" r="2"/>
  </g>
  <g stroke="chocolate" stroke-width="1">
    <line x1="22" y1="343" x2="219" y2="122"/>
    <circle cx="22" cy="343" r="2"/>
    <circle cx="219" cy="122" r="2"/>
  </g>
  <g stroke="chocolate" stroke-width="1">
    <line x1="242" y1="249" x2="389" y2="211"/>
    <circle cx="242" cy="249" r="2"/>
    <circle cx="389" cy="211" r="2"/>
  </g>
  <g stroke="chocolate" stroke-width="1">
    <line x1="99" y1="156" x2="219" y2="122"/>
    <circle cx="99" cy="156" r="2"/>
    <circle cx="219" cy="122" r="2"/>
  </g>
  <g stroke="black" stroke-width="1">
    <line x1="5" y1="5" x2="505" y2="5"/>
    <line x1="5" y1="5" x2="5" y2="505"/>
    <line x1="505" y1="505" x2="5" y2="505"/>
    <line x1="505" y1="505" x2="505" y2="5"/>
    <line x1="105" y1="2" x2="105" y2="8"/>
    <line x1="2" y1="105" x2="8" y2="105"/>
    <line x1="105" y1="502" x2="105" y2="508"/>
    <line x1="502" y1="105" x2="508" y2="105"/>
    <line x1="205" y1="2" x2="205" y2="8"/>
    <line x1="2" y1="205" x2="8" y2="205"/>
    <line x1="205" y1="502" x2="205" y2="508"/>
    <line x1="502" y1="205" x2="508" y2="205"/>
    <line x1="305" y1="2" x2="305" y2="8"/>
    <line x1="2" y1="305" x2="8" y2="305"/>
    <line x1="305" y1="502" x2="305" y2="508"/>
    <line x1="502" y1="305" x2="508" y2="305"/>
    <line x1="405" y1="2" x2="405" y2="8"/>
    <line x1="2" y1="405" x2="8" y2="405"/>
    <line x1="405" y1="502" x2="405" y2="508"/>
    <line x1="502" y1="405" x2="508" y2="405"/>
  </g>
  <g stroke="gray" stroke-width="1" stroke-dasharray="5,5">
    <line x1="105" y1="5" x2="105" y2="505"/>
    <line x1="5" y1="105" x2="505" y2="105"/>
    <line x1="205" y1="5" x2="205" y2="505"/>
    <line x1="5" y1="205" x2="505" y2="205"/>
    <line x1="305" y1="5" x2="305" y2="505"/>
    <line x1="5" y1="305" x2="505" y2="305"/>
    <line x1="405" y1="5" x2="405" y2="505"/>
    <line x1="5" y1="405" x2="505" y2="405"/>
  </g>
</svg>
