<?xml version="1.0" standalone="no"?>
<!DOCTYPE svg PUBLIC "-//W3C//DTD SVG 1.1//EN" 
  "http://www.w3.org/Graphics/SVG/1.1/DTD/svg11.dtd">
<svg width="510" height="510" version="1.1" id="toplevel"
    xmlns="http://www.w3.org/2000/svg"
    xmlns:xlink="http://www.w3.org/1999/xlink">
  <polygon points="370,445 398,349 294,74 211,65 112,167 146,218 169,203 196,220 270,416"
           fill="bisque"/>
  <g stroke="chocolate" stroke-width="1">
    <line x1="146" y1="218" x2="112" y2="167"/>
    <circle cx="146" cy="218" r="2"/>
    <circle cx="112" cy="167" r="2"/>
  </g>
  <g stroke="chocolate" stroke-width="1">
    <line x1="166" y1="201" x2="142" y2="137"/>
    <circle cx="166" cy="201" r="2"/>
    <circle cx="142" cy="137" r="2"/>
  </g>
  <g stroke="chocolate" stroke-width="1">
    <line x1="270" y1="416" x2="185" y2="192"/>
    <circle cx="270" cy="416" r="2"/>
    <circle cx="185" cy="192" r="2"/>
  </g>
  <g stroke="chocolate" stroke-width="1">
    <line x1="224" y1="165" x2="179" y2="98"/>
    <circle cx="224" cy="165" r="2"/>
    <circle cx="179" cy="98" r="2"/>
  </g>
  <g stroke="chocolate" stroke-width="1">
    <line x1="331" y1="306" x2="309" y2="247"/>
    <circle cx="331" cy="306" r="2"/>
    <circle cx="309" cy="247" r="2"/>
  </g>
  <g stroke="chocolate" stroke-width="1">
    <line x1="398" y1="349" x2="294" y2="74"/>
    <circle cx="398" cy="349" r="2"/>
    <circle cx="294" cy="74" r="2"/>
  </g>
  <g stroke="chocolate" stroke-width="1">
    <line x1="224" y1="165" x2="211" y2="65"/>
    <circle cx="224" cy="165" r="2"/>
    <circle cx="211" cy="65" r="2"/>
  </g>
  <g stroke="chocolate" stroke-width="1">
    <line x1="331" y1="306" x2="322" y2="189"/>
    <circle cx="331" cy="306" r="2"/>
    <circle cx="322" cy="189" r="2"/>
  </g>
  <g stroke="chocolate" stroke-width="1">
    <line x1="398" y1="349" x2="112" y2="167"/>
    <circle cx="398" cy="349" r="2"/>
    <circle cx="112" cy="167" r="2"/>
  </g>
  <g stroke="chocolate" stroke-width="1">
    <line x1="370" y1="445" x2="270" y2="416"/>
    <circle cx="370" cy="445" r="2"/>
    <circle cx="270" cy="416" r="2"/>
  </g>
  <g stroke="chocolate" stroke-width="1">
    <line x1="343" y1="203" x2="179" y2="98"/>
    <circle cx="343" cy="203" r="2"/>
    <circle cx="179" cy="98" r="2"/>
  </g>
  <g stroke="chocolate" stroke-width="1">
    <line x1="370" y1="445" x2="398" y2="349"/>
    <circle cx="370" cy="445" r="2"/>
    <circle cx="398" cy="349" r="2"/>
  </g>
  <g stroke="chocolate" stroke-width="1">
    <line x1="280" y1="419" x2="343" y2="203"/>
    <circle cx="280" cy="419" r="2"/>
    <circle cx="343" cy="203" r="2"/>
  </g>
  <g stroke="chocolate" stroke-width="1">
    <line x1="366" y1="264" x2="309" y2="247"/>
    <circle cx="366" cy="264" r="2"/>
    <circle cx="309" cy="247" r="2"/>
  </g>
  <g stroke="chocolate" stroke-width="1">
    <line x1="224" y1="165" x2="142" y2="137"/>
    <circle cx="224" cy="165" r="2"/>
    <circle cx="142" cy="137" r="2"/>
  </g>
  <g stroke="chocolate" stroke-width="1">
    <line x1="270" y1="416" x2="366" y2="264"/>
    <circle cx="270" cy="416" r="2"/>
    <circle cx="366" cy="264" r="2"/>
  </g>
  <g stroke="chocolate" stroke-width="1">
    <line x1="345" y1="208" x2="185" y2="192"/>
    <circle cx="345" cy="208" r="2"/>
    <circle cx="185" cy="192" r="2"/>
  </g>
  <g stroke="chocolate" stroke-width="1">
    <line x1="309" y1="247" x2="345" y2="208"/>
    <circle cx="309" cy="247" r="2"/>
    <circle cx="345" cy="208" r="2"/>
  </g>
  <g stroke="chocolate" stroke-width="1">
    <line x1="241" y1="340" x2="375" y2="289"/>
    <circle cx="241" cy="340" r="2"/>
    <circle cx="375" cy="289" r="2"/>
  </g>
  <g stroke="chocolate" stroke-width="1">
    <line x1="166" y1="201" x2="322" y2="189"/>
    <circle cx="166" cy="201" r="2"/>
    <circle cx="322" cy="189" r="2"/>
  </g>
  <g stroke="chocolate" stroke-width="1">
    <line x1="185" y1="192" x2="294" y2="74"/>
    <circle cx="185" cy="192" r="2"/>
    <circle cx="294" cy="74" r="2"/>
  </g>
  <g stroke="chocolate" stroke-width="1">
    <line x1="294" y1="74" x2="211" y2="65"/>
    <circle cx="294" cy="74" r="2"/>
    <circle cx="211" cy="65" r="2"/>
  </g>
  <g stroke="chocolate" stroke-width="1">
    <line x1="112" y1="167" x2="211" y2="65"/>
    <circle cx="112" cy="167" r="2"/>
    <circle cx="211" cy="65" r="2"/>
  </g>
  <g stroke="chocolate" stroke-width="1">
    <line x1="146" y1="218" x2="224" y2="165"/>
    <circle cx="146" cy="218" r="2"/>
    <circle cx="224" cy="165" r="2"/>
  </g>
  <g stroke="black" stroke-width="1">
    <line x1="5" y1="5" x2="505" y2="5"/>
    <line x1="5" y1="5" x2="5" y2="505"/>
    <line x1="505" y1="505" x2="5" y2="505"/>
    <line x1="505" y1="505" x2="505" y2="5"/>
    <line x1="105" y1="2" x2="105" y2="8"/>
    <line x1="2" y1="105" x2="8" y2="105"/>
    <line x1="105" y1="502" x2="105" y2="508"/>
    <line x1="502" y1="105" x2="508" y2="105"/>
    <line x1="205" y1="2" x2="205" y2="8"/>
    <line x1="2" y1="205" x2="8" y2="205"/>
    <line x1="205" y1="502" x2="205" y2="508"/>
    <line x1="502" y1="205" x2="508" y2="205"/>
    <line x1="305" y1="2" x2="305" y2="8"/>
    <line x1="2" y1="305" x2="8" y2="305"/>
    <line x1="305" y1="502" x2="305" y2="508"/>
    <line x1="502" y1="305" x2="508" y2="305"/>
    <line x1="405" y1="2" x2="405" y2="8"/>
    <line x1="2" y1="405" x2="8" y2="405"/>
    <line x1="405" y1="502" x2="405" y2="508"/>
    <line x1="502" y1="405" x2="508" y2="405"/>
  </g>
  <g stroke="gray" stroke-width="1" stroke-dasharray="5,5">
    <line x1="105" y1="5" x2="105" y2="505"/>
    <line x1="5" y1="105" x2="505" y2="105"/>
    <line x1="205" y1="5" x2="205" y2="505"/>
    <line x1="5" y1="205" x2="505" y2="205"/>
    <line x1="305" y1="5" x2="305" y2="505"/>
    <line x1="5" y1="305" x2="505" y2="305"/>
    <line x1="405" y1="5" x2="405" y2="505"/>
    <line x1="5" y1="405" x2="505" y2="405"/>
  </g>
</svg>
