<?xml version="1.0" standalone="no"?>
<!DOCTYPE svg PUBLIC "-//W3C//DTD SVG 1.1//EN" 
  "http://www.w3.org/Graphics/SVG/1.1/DTD/svg11.dtd">
<svg width="510" height="510" version="1.1" id="toplevel"
    xmlns="http://www.w3.org/2000/svg"
    xmlns:xlink="http://www.w3.org/1999/xlink">
  <polygon points="236,402 343,322 426,361 499,205 379,108 16,109 11,115 34,132"
           fill="bisque"/>
  <g stroke="chocolate" stroke-width="1">
    <line x1="236" y1="402" x2="499" y2="205"/>
    <circle cx="236" cy="402" r="2"/>
    <circle cx="499" cy="205" r="2"/>
  </g>
  <g stroke="chocolate" stroke-width="1">
    <line x1="426" y1="361" x2="499" y2="205"/>
    <circle cx="426" cy="361" r="2"/>
    <circle cx="499" cy="205" r="2"/>
  </g>
  <g stroke="chocolate" stroke-width="1">
    <line x1="199" y1="255" x2="379" y2="108"/>
    <circle cx="199" cy="255" r="2"/>
    <circle cx="379" cy="108" r="2"/>
  </g>
  <g stroke="chocolate" stroke-width="1">
    <line x1="199" y1="255" x2="268" y2="108"/>
    <circle cx="199" cy="255" r="2"/>
    <circle cx="268" cy="108" r="2"/>
  </g>
  <g stroke="chocolate" stroke-width="1">
    <line x1="86" y1="202" x2="130" y2="108"/>
    <circle cx="86" cy="202" r="2"/>
    <circle cx="130" cy="108" r="2"/>
  </g>
  <g stroke="chocolate" stroke-width="1">
    <line x1="86" y1="202" x2="211" y2="108"/>
    <circle cx="86" cy="202" r="2"/>
    <circle cx="211" cy="108" r="2"/>
  </g>
  <g stroke="chocolate" stroke-width="1">
    <line x1="11" y1="115" x2="16" y2="109"/>
    <circle cx="11" cy="115" r="2"/>
    <circle cx="16" cy="109" r="2"/>
  </g>
  <g stroke="chocolate" stroke-width="1">
    <line x1="199" y1="255" x2="130" y2="108"/>
    <circle cx="199" cy="255" r="2"/>
    <circle cx="130" cy="108" r="2"/>
  </g>
  <g stroke="chocolate" stroke-width="1">
    <line x1="236" y1="402" x2="16" y2="109"/>
    <circle cx="236" cy="402" r="2"/>
    <circle cx="16" cy="109" r="2"/>
  </g>
  <g stroke="chocolate" stroke-width="1">
    <line x1="426" y1="361" x2="86" y2="202"/>
    <circle cx="426" cy="361" r="2"/>
    <circle cx="86" cy="202" r="2"/>
  </g>
  <g stroke="chocolate" stroke-width="1">
    <line x1="199" y1="255" x2="11" y2="115"/>
    <circle cx="199" cy="255" r="2"/>
    <circle cx="11" cy="115" r="2"/>
  </g>
  <g stroke="chocolate" stroke-width="1">
    <line x1="299" y1="173" x2="268" y2="108"/>
    <circle cx="299" cy="173" r="2"/>
    <circle cx="268" cy="108" r="2"/>
  </g>
  <g stroke="chocolate" stroke-width="1">
    <line x1="16" y1="109" x2="379" y2="108"/>
    <circle cx="16" cy="109" r="2"/>
    <circle cx="379" cy="108" r="2"/>
  </g>
  <g stroke="chocolate" stroke-width="1">
    <line x1="299" y1="173" x2="211" y2="108"/>
    <circle cx="299" cy="173" r="2"/>
    <circle cx="211" cy="108" r="2"/>
  </g>
  <g stroke="chocolate" stroke-width="1">
    <line x1="499" y1="205" x2="379" y2="108"/>
    <circle cx="499" cy="205" r="2"/>
    <circle cx="379" cy="108" r="2"/>
  </g>
  <g stroke="black" stroke-width="1">
    <line x1="5" y1="5" x2="505" y2="5"/>
    <line x1="5" y1="5" x2="5" y2="505"/>
    <line x1="505" y1="505" x2="5" y2="505"/>
    <line x1="505" y1="505" x2="505" y2="5"/>
    <line x1="105" y1="2" x2="105" y2="8"/>
    <line x1="2" y1="105" x2="8" y2="105"/>
    <line x1="105" y1="502" x2="105" y2="508"/>
    <line x1="502" y1="105" x2="508" y2="105"/>
    <line x1="205" y1="2" x2="205" y2="8"/>
    <line x1="2" y1="205" x2="8" y2="205"/>
    <line x1="205" y1="502" x2="205" y2="508"/>
    <line x1="502" y1="205" x2="508" y2="205"/>
    <line x1="305" y1="2" x2="305" y2="8"/>
    <line x1="2" y1="305" x2="8" y2="305"/>
    <line x1="305" y1="502" x2="305" y2="508"/>
    <line x1="502" y1="305" x2="508" y2="305"/>
    <line x1="405" y1="2" x2="405" y2="8"/>
    <line x1="2" y1="405" x2="8" y2="405"/>
    <line x1="405" y1="502" x2="405" y2="508"/>
    <line x1="502" y1="405" x2="508" y2="405"/>
  </g>
  <g stroke="gray" stroke-width="1" stroke-dasharray="5,5">
    <line x1="105" y1="5" x2="105" y2="505"/>
    <line x1="5" y1="105" x2="505" y2="105"/>
    <line x1="205" y1="5" x2="205" y2="505"/>
    <line x1="5" y1="205" x2="505" y2="205"/>
    <line x1="305" y1="5" x2="305" y2="505"/>
    <line x1="5" y1="305" x2="505" y2="305"/>
    <line x1="405" y1="5" x2="405" y2="505"/>
    <line x1="5" y1="405" x2="505" y2="405"/>
  </g>
</svg>
