<?xml version="1.0" standalone="no"?>
<!DOCTYPE svg PUBLIC "-//W3C//DTD SVG 1.1//EN" 
  "http://www.w3.org/Graphics/SVG/1.1/DTD/svg11.dtd">
<svg width="510" height="510" version="1.1" id="toplevel"
    xmlns="http://www.w3.org/2000/svg"
    xmlns:xlink="http://www.w3.org/1999/xlink">
  <polygon points="100,377 285,349 307,283 369,276 385,221 439,179 411,133 88,175 71,189"
           fill="bisque"/>
  <g stroke="chocolate" stroke-width="1">
    <line x1="307" y1="283" x2="439" y2="179"/>
    <circle cx="307" cy="283" r="2"/>
    <circle cx="439" cy="179" r="2"/>
  </g>
  <g stroke="chocolate" stroke-width="1">
    <line x1="307" y1="283" x2="394" y2="135"/>
    <circle cx="307" cy="283" r="2"/>
    <circle cx="394" cy="135" r="2"/>
  </g>
  <g stroke="chocolate" stroke-width="1">
    <line x1="369" y1="276" x2="411" y2="133"/>
    <circle cx="369" cy="276" r="2"/>
    <circle cx="411" cy="133" r="2"/>
  </g>
  <g stroke="chocolate" stroke-width="1">
    <line x1="285" y1="349" x2="328" y2="216"/>
    <circle cx="285" cy="349" r="2"/>
    <circle cx="328" cy="216" r="2"/>
  </g>
  <g stroke="chocolate" stroke-width="1">
    <line x1="201" y1="231" x2="255" y2="153"/>
    <circle cx="201" cy="231" r="2"/>
    <circle cx="255" cy="153" r="2"/>
  </g>
  <g stroke="chocolate" stroke-width="1">
    <line x1="100" y1="377" x2="285" y2="349"/>
    <circle cx="100" cy="377" r="2"/>
    <circle cx="285" cy="349" r="2"/>
  </g>
  <g stroke="chocolate" stroke-width="1">
    <line x1="201" y1="231" x2="225" y2="157"/>
    <circle cx="201" cy="231" r="2"/>
    <circle cx="225" cy="157" r="2"/>
  </g>
  <g stroke="chocolate" stroke-width="1">
    <line x1="101" y1="181" x2="106" y2="173"/>
    <circle cx="101" cy="181" r="2"/>
    <circle cx="106" cy="173" r="2"/>
  </g>
  <g stroke="chocolate" stroke-width="1">
    <line x1="101" y1="181" x2="104" y2="173"/>
    <circle cx="101" cy="181" r="2"/>
    <circle cx="104" cy="173" r="2"/>
  </g>
  <g stroke="chocolate" stroke-width="1">
    <line x1="129" y1="206" x2="188" y2="162"/>
    <circle cx="129" cy="206" r="2"/>
    <circle cx="188" cy="162" r="2"/>
  </g>
  <g stroke="chocolate" stroke-width="1">
    <line x1="307" y1="283" x2="369" y2="276"/>
    <circle cx="307" cy="283" r="2"/>
    <circle cx="369" cy="276" r="2"/>
  </g>
  <g stroke="chocolate" stroke-width="1">
    <line x1="307" y1="283" x2="309" y2="146"/>
    <circle cx="307" cy="283" r="2"/>
    <circle cx="309" cy="146" r="2"/>
  </g>
  <g stroke="chocolate" stroke-width="1">
    <line x1="71" y1="189" x2="88" y2="175"/>
    <circle cx="71" cy="189" r="2"/>
    <circle cx="88" cy="175" r="2"/>
  </g>
  <g stroke="chocolate" stroke-width="1">
    <line x1="100" y1="377" x2="71" y2="189"/>
    <circle cx="100" cy="377" r="2"/>
    <circle cx="71" cy="189" r="2"/>
  </g>
  <g stroke="chocolate" stroke-width="1">
    <line x1="369" y1="276" x2="354" y2="140"/>
    <circle cx="369" cy="276" r="2"/>
    <circle cx="354" cy="140" r="2"/>
  </g>
  <g stroke="chocolate" stroke-width="1">
    <line x1="368" y1="235" x2="354" y2="140"/>
    <circle cx="368" cy="235" r="2"/>
    <circle cx="354" cy="140" r="2"/>
  </g>
  <g stroke="chocolate" stroke-width="1">
    <line x1="88" y1="175" x2="411" y2="133"/>
    <circle cx="88" cy="175" r="2"/>
    <circle cx="411" cy="133" r="2"/>
  </g>
  <g stroke="chocolate" stroke-width="1">
    <line x1="328" y1="216" x2="309" y2="146"/>
    <circle cx="328" cy="216" r="2"/>
    <circle cx="309" cy="146" r="2"/>
  </g>
  <g stroke="chocolate" stroke-width="1">
    <line x1="129" y1="206" x2="104" y2="173"/>
    <circle cx="129" cy="206" r="2"/>
    <circle cx="104" cy="173" r="2"/>
  </g>
  <g stroke="chocolate" stroke-width="1">
    <line x1="369" y1="276" x2="71" y2="189"/>
    <circle cx="369" cy="276" r="2"/>
    <circle cx="71" cy="189" r="2"/>
  </g>
  <g stroke="chocolate" stroke-width="1">
    <line x1="285" y1="349" x2="106" y2="173"/>
    <circle cx="285" cy="349" r="2"/>
    <circle cx="106" cy="173" r="2"/>
  </g>
  <g stroke="chocolate" stroke-width="1">
    <line x1="307" y1="283" x2="88" y2="175"/>
    <circle cx="307" cy="283" r="2"/>
    <circle cx="88" cy="175" r="2"/>
  </g>
  <g stroke="chocolate" stroke-width="1">
    <line x1="307" y1="283" x2="225" y2="157"/>
    <circle cx="307" cy="283" r="2"/>
    <circle cx="225" cy="157" r="2"/>
  </g>
  <g stroke="chocolate" stroke-width="1">
    <line x1="368" y1="235" x2="188" y2="162"/>
    <circle cx="368" cy="235" r="2"/>
    <circle cx="188" cy="162" r="2"/>
  </g>
  <g stroke="chocolate" stroke-width="1">
    <line x1="328" y1="216" x2="255" y2="153"/>
    <circle cx="328" cy="216" r="2"/>
    <circle cx="255" cy="153" r="2"/>
  </g>
  <g stroke="chocolate" stroke-width="1">
    <line x1="439" y1="179" x2="411" y2="133"/>
    <circle cx="439" cy="179" r="2"/>
    <circle cx="411" cy="133" r="2"/>
  </g>
  <g stroke="chocolate" stroke-width="1">
    <line x1="439" y1="179" x2="394" y2="135"/>
    <circle cx="439" cy="179" r="2"/>
    <circle cx="394" cy="135" r="2"/>
  </g>
  <g stroke="black" stroke-width="1">
    <line x1="5" y1="5" x2="505" y2="5"/>
    <line x1="5" y1="5" x2="5" y2="505"/>
    <line x1="505" y1="505" x2="5" y2="505"/>
    <line x1="505" y1="505" x2="505" y2="5"/>
    <line x1="105" y1="2" x2="105" y2="8"/>
    <line x1="2" y1="105" x2="8" y2="105"/>
    <line x1="105" y1="502" x2="105" y2="508"/>
    <line x1="502" y1="105" x2="508" y2="105"/>
    <line x1="205" y1="2" x2="205" y2="8"/>
    <line x1="2" y1="205" x2="8" y2="205"/>
    <line x1="205" y1="502" x2="205" y2="508"/>
    <line x1="502" y1="205" x2="508" y2="205"/>
    <line x1="305" y1="2" x2="305" y2="8"/>
    <line x1="2" y1="305" x2="8" y2="305"/>
    <line x1="305" y1="502" x2="305" y2="508"/>
    <line x1="502" y1="305" x2="508" y2="305"/>
    <line x1="405" y1="2" x2="405" y2="8"/>
    <line x1="2" y1="405" x2="8" y2="405"/>
    <line x1="405" y1="502" x2="405" y2="508"/>
    <line x1="502" y1="405" x2="508" y2="405"/>
  </g>
  <g stroke="gray" stroke-width="1" stroke-dasharray="5,5">
    <line x1="105" y1="5" x2="105" y2="505"/>
    <line x1="5" y1="105" x2="505" y2="105"/>
    <line x1="205" y1="5" x2="205" y2="505"/>
    <line x1="5" y1="205" x2="505" y2="205"/>
    <line x1="305" y1="5" x2="305" y2="505"/>
    <line x1="5" y1="305" x2="505" y2="305"/>
    <line x1="405" y1="5" x2="405" y2="505"/>
    <line x1="5" y1="405" x2="505" y2="405"/>
  </g>
</svg>
