<?xml version="1.0" standalone="no"?>
<!DOCTYPE svg PUBLIC "-//W3C//DTD SVG 1.1//EN" 
  "http://www.w3.org/Graphics/SVG/1.1/DTD/svg11.dtd">
<svg width="510" height="510" version="1.1" id="toplevel"
    xmlns="http://www.w3.org/2000/svg"
    xmlns:xlink="http://www.w3.org/1999/xlink">
  <polygon points="359,471 438,336 301,256 309,244 315,242 280,148 174,136 72,303 213,394 217,388"
           fill="bisque"/>
  <g stroke="chocolate" stroke-width="1">
    <line x1="323" y1="450" x2="222" y2="210"/>
    <circle cx="323" cy="450" r="2"/>
    <circle cx="222" cy="210" r="2"/>
  </g>
  <g stroke="chocolate" stroke-width="1">
    <line x1="244" y1="268" x2="222" y2="210"/>
    <circle cx="244" cy="268" r="2"/>
    <circle cx="222" cy="210" r="2"/>
  </g>
  <g stroke="chocolate" stroke-width="1">
    <line x1="213" y1="394" x2="72" y2="303"/>
    <circle cx="213" cy="394" r="2"/>
    <circle cx="72" cy="303" r="2"/>
  </g>
  <g stroke="chocolate" stroke-width="1">
    <line x1="375" y1="444" x2="174" y2="136"/>
    <circle cx="375" cy="444" r="2"/>
    <circle cx="174" cy="136" r="2"/>
  </g>
  <g stroke="chocolate" stroke-width="1">
    <line x1="359" y1="471" x2="72" y2="303"/>
    <circle cx="359" cy="471" r="2"/>
    <circle cx="72" cy="303" r="2"/>
  </g>
  <g stroke="chocolate" stroke-width="1">
    <line x1="315" y1="242" x2="280" y2="148"/>
    <circle cx="315" cy="242" r="2"/>
    <circle cx="280" cy="148" r="2"/>
  </g>
  <g stroke="chocolate" stroke-width="1">
    <line x1="101" y1="322" x2="97" y2="263"/>
    <circle cx="101" cy="322" r="2"/>
    <circle cx="97" cy="263" r="2"/>
  </g>
  <g stroke="chocolate" stroke-width="1">
    <line x1="359" y1="471" x2="438" y2="336"/>
    <circle cx="359" cy="471" r="2"/>
    <circle cx="438" cy="336" r="2"/>
  </g>
  <g stroke="chocolate" stroke-width="1">
    <line x1="297" y1="262" x2="153" y2="170"/>
    <circle cx="297" cy="262" r="2"/>
    <circle cx="153" cy="170" r="2"/>
  </g>
  <g stroke="chocolate" stroke-width="1">
    <line x1="323" y1="450" x2="375" y2="444"/>
    <circle cx="323" cy="450" r="2"/>
    <circle cx="375" cy="444" r="2"/>
  </g>
  <g stroke="chocolate" stroke-width="1">
    <line x1="438" y1="336" x2="153" y2="170"/>
    <circle cx="438" cy="336" r="2"/>
    <circle cx="153" cy="170" r="2"/>
  </g>
  <g stroke="chocolate" stroke-width="1">
    <line x1="213" y1="394" x2="313" y2="237"/>
    <circle cx="213" cy="394" r="2"/>
    <circle cx="313" cy="237" r="2"/>
  </g>
  <g stroke="chocolate" stroke-width="1">
    <line x1="313" y1="237" x2="222" y2="210"/>
    <circle cx="313" cy="237" r="2"/>
    <circle cx="222" cy="210" r="2"/>
  </g>
  <g stroke="chocolate" stroke-width="1">
    <line x1="72" y1="303" x2="174" y2="136"/>
    <circle cx="72" cy="303" r="2"/>
    <circle cx="174" cy="136" r="2"/>
  </g>
  <g stroke="chocolate" stroke-width="1">
    <line x1="222" y1="210" x2="280" y2="148"/>
    <circle cx="222" cy="210" r="2"/>
    <circle cx="280" cy="148" r="2"/>
  </g>
  <g stroke="chocolate" stroke-width="1">
    <line x1="101" y1="322" x2="315" y2="242"/>
    <circle cx="101" cy="322" r="2"/>
    <circle cx="315" cy="242" r="2"/>
  </g>
  <g stroke="chocolate" stroke-width="1">
    <line x1="280" y1="148" x2="174" y2="136"/>
    <circle cx="280" cy="148" r="2"/>
    <circle cx="174" cy="136" r="2"/>
  </g>
  <g stroke="chocolate" stroke-width="1">
    <line x1="97" y1="263" x2="222" y2="210"/>
    <circle cx="97" cy="263" r="2"/>
    <circle cx="222" cy="210" r="2"/>
  </g>
  <g stroke="black" stroke-width="1">
    <line x1="5" y1="5" x2="505" y2="5"/>
    <line x1="5" y1="5" x2="5" y2="505"/>
    <line x1="505" y1="505" x2="5" y2="505"/>
    <line x1="505" y1="505" x2="505" y2="5"/>
    <line x1="105" y1="2" x2="105" y2="8"/>
    <line x1="2" y1="105" x2="8" y2="105"/>
    <line x1="105" y1="502" x2="105" y2="508"/>
    <line x1="502" y1="105" x2="508" y2="105"/>
    <line x1="205" y1="2" x2="205" y2="8"/>
    <line x1="2" y1="205" x2="8" y2="205"/>
    <line x1="205" y1="502" x2="205" y2="508"/>
    <line x1="502" y1="205" x2="508" y2="205"/>
    <line x1="305" y1="2" x2="305" y2="8"/>
    <line x1="2" y1="305" x2="8" y2="305"/>
    <line x1="305" y1="502" x2="305" y2="508"/>
    <line x1="502" y1="305" x2="508" y2="305"/>
    <line x1="405" y1="2" x2="405" y2="8"/>
    <line x1="2" y1="405" x2="8" y2="405"/>
    <line x1="405" y1="502" x2="405" y2="508"/>
    <line x1="502" y1="405" x2="508" y2="405"/>
  </g>
  <g stroke="gray" stroke-width="1" stroke-dasharray="5,5">
    <line x1="105" y1="5" x2="105" y2="505"/>
    <line x1="5" y1="105" x2="505" y2="105"/>
    <line x1="205" y1="5" x2="205" y2="505"/>
    <line x1="5" y1="205" x2="505" y2="205"/>
    <line x1="305" y1="5" x2="305" y2="505"/>
    <line x1="5" y1="305" x2="505" y2="305"/>
    <line x1="405" y1="5" x2="405" y2="505"/>
    <line x1="5" y1="405" x2="505" y2="405"/>
  </g>
</svg>
