<?xml version="1.0" standalone="no"?>
<!DOCTYPE svg PUBLIC "-//W3C//DTD SVG 1.1//EN" 
  "http://www.w3.org/Graphics/SVG/1.1/DTD/svg11.dtd">
<svg width="510" height="510" version="1.1" id="toplevel"
    xmlns="http://www.w3.org/2000/svg"
    xmlns:xlink="http://www.w3.org/1999/xlink">
  <polygon points="404,378 466,168 426,132 84,138 44,273 87,286 65,318 87,334 164,308"
           fill="bisque"/>
  <g stroke="chocolate" stroke-width="1">
    <line x1="404" y1="378" x2="466" y2="168"/>
    <circle cx="404" cy="378" r="2"/>
    <circle cx="466" cy="168" r="2"/>
  </g>
  <g stroke="chocolate" stroke-width="1">
    <line x1="164" y1="308" x2="215" y2="136"/>
    <circle cx="164" cy="308" r="2"/>
    <circle cx="215" cy="136" r="2"/>
  </g>
  <g stroke="chocolate" stroke-width="1">
    <line x1="242" y1="283" x2="256" y2="261"/>
    <circle cx="242" cy="283" r="2"/>
    <circle cx="256" cy="261" r="2"/>
  </g>
  <g stroke="chocolate" stroke-width="1">
    <line x1="87" y1="334" x2="153" y2="137"/>
    <circle cx="87" cy="334" r="2"/>
    <circle cx="153" cy="137" r="2"/>
  </g>
  <g stroke="chocolate" stroke-width="1">
    <line x1="44" y1="273" x2="84" y2="138"/>
    <circle cx="44" cy="273" r="2"/>
    <circle cx="84" cy="138" r="2"/>
  </g>
  <g stroke="chocolate" stroke-width="1">
    <line x1="291" y1="266" x2="426" y2="132"/>
    <circle cx="291" cy="266" r="2"/>
    <circle cx="426" cy="132" r="2"/>
  </g>
  <g stroke="chocolate" stroke-width="1">
    <line x1="65" y1="318" x2="118" y2="241"/>
    <circle cx="65" cy="318" r="2"/>
    <circle cx="118" cy="241" r="2"/>
  </g>
  <g stroke="chocolate" stroke-width="1">
    <line x1="143" y1="315" x2="84" y2="138"/>
    <circle cx="143" cy="315" r="2"/>
    <circle cx="84" cy="138" r="2"/>
  </g>
  <g stroke="chocolate" stroke-width="1">
    <line x1="261" y1="276" x2="215" y2="136"/>
    <circle cx="261" cy="276" r="2"/>
    <circle cx="215" cy="136" r="2"/>
  </g>
  <g stroke="chocolate" stroke-width="1">
    <line x1="202" y1="267" x2="153" y2="137"/>
    <circle cx="202" cy="267" r="2"/>
    <circle cx="153" cy="137" r="2"/>
  </g>
  <g stroke="chocolate" stroke-width="1">
    <line x1="87" y1="334" x2="291" y2="266"/>
    <circle cx="87" cy="334" r="2"/>
    <circle cx="291" cy="266" r="2"/>
  </g>
  <g stroke="chocolate" stroke-width="1">
    <line x1="202" y1="267" x2="466" y2="168"/>
    <circle cx="202" cy="267" r="2"/>
    <circle cx="466" cy="168" r="2"/>
  </g>
  <g stroke="chocolate" stroke-width="1">
    <line x1="87" y1="334" x2="65" y2="318"/>
    <circle cx="87" cy="334" r="2"/>
    <circle cx="65" cy="318" r="2"/>
  </g>
  <g stroke="chocolate" stroke-width="1">
    <line x1="404" y1="378" x2="44" y2="273"/>
    <circle cx="404" cy="378" r="2"/>
    <circle cx="44" cy="273" r="2"/>
  </g>
  <g stroke="chocolate" stroke-width="1">
    <line x1="291" y1="266" x2="118" y2="241"/>
    <circle cx="291" cy="266" r="2"/>
    <circle cx="118" cy="241" r="2"/>
  </g>
  <g stroke="chocolate" stroke-width="1">
    <line x1="242" y1="283" x2="118" y2="241"/>
    <circle cx="242" cy="283" r="2"/>
    <circle cx="118" cy="241" r="2"/>
  </g>
  <g stroke="chocolate" stroke-width="1">
    <line x1="84" y1="138" x2="426" y2="132"/>
    <circle cx="84" cy="138" r="2"/>
    <circle cx="426" cy="132" r="2"/>
  </g>
  <g stroke="chocolate" stroke-width="1">
    <line x1="466" y1="168" x2="426" y2="132"/>
    <circle cx="466" cy="168" r="2"/>
    <circle cx="426" cy="132" r="2"/>
  </g>
  <g stroke="black" stroke-width="1">
    <line x1="5" y1="5" x2="505" y2="5"/>
    <line x1="5" y1="5" x2="5" y2="505"/>
    <line x1="505" y1="505" x2="5" y2="505"/>
    <line x1="505" y1="505" x2="505" y2="5"/>
    <line x1="105" y1="2" x2="105" y2="8"/>
    <line x1="2" y1="105" x2="8" y2="105"/>
    <line x1="105" y1="502" x2="105" y2="508"/>
    <line x1="502" y1="105" x2="508" y2="105"/>
    <line x1="205" y1="2" x2="205" y2="8"/>
    <line x1="2" y1="205" x2="8" y2="205"/>
    <line x1="205" y1="502" x2="205" y2="508"/>
    <line x1="502" y1="205" x2="508" y2="205"/>
    <line x1="305" y1="2" x2="305" y2="8"/>
    <line x1="2" y1="305" x2="8" y2="305"/>
    <line x1="305" y1="502" x2="305" y2="508"/>
    <line x1="502" y1="305" x2="508" y2="305"/>
    <line x1="405" y1="2" x2="405" y2="8"/>
    <line x1="2" y1="405" x2="8" y2="405"/>
    <line x1="405" y1="502" x2="405" y2="508"/>
    <line x1="502" y1="405" x2="508" y2="405"/>
  </g>
  <g stroke="gray" stroke-width="1" stroke-dasharray="5,5">
    <line x1="105" y1="5" x2="105" y2="505"/>
    <line x1="5" y1="105" x2="505" y2="105"/>
    <line x1="205" y1="5" x2="205" y2="505"/>
    <line x1="5" y1="205" x2="505" y2="205"/>
    <line x1="305" y1="5" x2="305" y2="505"/>
    <line x1="5" y1="305" x2="505" y2="305"/>
    <line x1="405" y1="5" x2="405" y2="505"/>
    <line x1="5" y1="405" x2="505" y2="405"/>
  </g>
</svg>
