<?xml version="1.0" standalone="no"?>
<!DOCTYPE svg PUBLIC "-//W3C//DTD SVG 1.1//EN" 
  "http://www.w3.org/Graphics/SVG/1.1/DTD/svg11.dtd">
<svg width="678" height="678" version="1.1" id="toplevel"
    xmlns="http://www.w3.org/2000/svg"
    xmlns:xlink="http://www.w3.org/1999/xlink">
  <polygon points="322,559 647,394 673,387 672,382 85,119 5,160 134,414"
           fill="bisque"/>
  <g stroke="chocolate" stroke-width="1">
    <line x1="322" y1="559" x2="344" y2="459"/>
    <circle cx="322" cy="559" r="2"/>
    <circle cx="344" cy="459" r="2"/>
  </g>
  <g stroke="chocolate" stroke-width="1">
    <line x1="246" y1="500" x2="246" y2="442"/>
    <circle cx="246" cy="500" r="2"/>
    <circle cx="246" cy="442" r="2"/>
  </g>
  <g stroke="chocolate" stroke-width="1">
    <line x1="322" y1="559" x2="672" y2="382"/>
    <circle cx="322" cy="559" r="2"/>
    <circle cx="672" cy="382" r="2"/>
  </g>
  <g stroke="chocolate" stroke-width="1">
    <line x1="171" y1="442" x2="85" y2="119"/>
    <circle cx="171" cy="442" r="2"/>
    <circle cx="85" cy="119" r="2"/>
  </g>
  <g stroke="chocolate" stroke-width="1">
    <line x1="134" y1="414" x2="5" y2="160"/>
    <circle cx="134" cy="414" r="2"/>
    <circle cx="5" cy="160" r="2"/>
  </g>
  <g stroke="chocolate" stroke-width="1">
    <line x1="673" y1="387" x2="672" y2="382"/>
    <circle cx="673" cy="387" r="2"/>
    <circle cx="672" cy="382" r="2"/>
  </g>
  <g stroke="chocolate" stroke-width="1">
    <line x1="246" y1="500" x2="673" y2="387"/>
    <circle cx="246" cy="500" r="2"/>
    <circle cx="673" cy="387" r="2"/>
  </g>
  <g stroke="chocolate" stroke-width="1">
    <line x1="171" y1="442" x2="246" y2="442"/>
    <circle cx="171" cy="442" r="2"/>
    <circle cx="246" cy="442" r="2"/>
  </g>
  <g stroke="chocolate" stroke-width="1">
    <line x1="5" y1="160" x2="85" y2="119"/>
    <circle cx="5" cy="160" r="2"/>
    <circle cx="85" cy="119" r="2"/>
  </g>
  <g stroke="chocolate" stroke-width="1">
    <line x1="322" y1="559" x2="134" y2="414"/>
    <circle cx="322" cy="559" r="2"/>
    <circle cx="134" cy="414" r="2"/>
  </g>
  <g stroke="chocolate" stroke-width="1">
    <line x1="344" y1="459" x2="134" y2="414"/>
    <circle cx="344" cy="459" r="2"/>
    <circle cx="134" cy="414" r="2"/>
  </g>
  <g stroke="chocolate" stroke-width="1">
    <line x1="672" y1="382" x2="85" y2="119"/>
    <circle cx="672" cy="382" r="2"/>
    <circle cx="85" cy="119" r="2"/>
  </g>
  <g stroke="black" stroke-width="1">
    <line x1="89" y1="89" x2="589" y2="89"/>
    <line x1="89" y1="89" x2="89" y2="589"/>
    <line x1="589" y1="589" x2="89" y2="589"/>
    <line x1="589" y1="589" x2="589" y2="89"/>
    <line x1="189" y1="86" x2="189" y2="92"/>
    <line x1="86" y1="189" x2="92" y2="189"/>
    <line x1="189" y1="586" x2="189" y2="592"/>
    <line x1="586" y1="189" x2="592" y2="189"/>
    <line x1="289" y1="86" x2="289" y2="92"/>
    <line x1="86" y1="289" x2="92" y2="289"/>
    <line x1="289" y1="586" x2="289" y2="592"/>
    <line x1="586" y1="289" x2="592" y2="289"/>
    <line x1="389" y1="86" x2="389" y2="92"/>
    <line x1="86" y1="389" x2="92" y2="389"/>
    <line x1="389" y1="586" x2="389" y2="592"/>
    <line x1="586" y1="389" x2="592" y2="389"/>
    <line x1="489" y1="86" x2="489" y2="92"/>
    <line x1="86" y1="489" x2="92" y2="489"/>
    <line x1="489" y1="586" x2="489" y2="592"/>
    <line x1="586" y1="489" x2="592" y2="489"/>
  </g>
  <g stroke="gray" stroke-width="1" stroke-dasharray="5,5">
    <line x1="189" y1="89" x2="189" y2="589"/>
    <line x1="89" y1="189" x2="589" y2="189"/>
    <line x1="289" y1="89" x2="289" y2="589"/>
    <line x1="89" y1="289" x2="589" y2="289"/>
    <line x1="389" y1="89" x2="389" y2="589"/>
    <line x1="89" y1="389" x2="589" y2="389"/>
    <line x1="489" y1="89" x2="489" y2="589"/>
    <line x1="89" y1="489" x2="589" y2="489"/>
  </g>
</svg>
