<?xml version="1.0" standalone="no"?>
<!DOCTYPE svg PUBLIC "-//W3C//DTD SVG 1.1//EN" 
  "http://www.w3.org/Graphics/SVG/1.1/DTD/svg11.dtd">
<svg width="510" height="510" version="1.1" id="toplevel"
    xmlns="http://www.w3.org/2000/svg"
    xmlns:xlink="http://www.w3.org/1999/xlink">
  <polygon points="282,480 345,425 275,329 121,393 98,433 171,474 205,415 207,428 226,425"
           fill="bisque"/>
  <g stroke="chocolate" stroke-width="1">
    <line x1="282" y1="480" x2="345" y2="425"/>
    <circle cx="282" cy="480" r="2"/>
    <circle cx="345" cy="425" r="2"/>
  </g>
  <g stroke="chocolate" stroke-width="1">
    <line x1="171" y1="474" x2="247" y2="340"/>
    <circle cx="171" cy="474" r="2"/>
    <circle cx="247" cy="340" r="2"/>
  </g>
  <g stroke="chocolate" stroke-width="1">
    <line x1="98" y1="433" x2="121" y2="393"/>
    <circle cx="98" cy="433" r="2"/>
    <circle cx="121" cy="393" r="2"/>
  </g>
  <g stroke="chocolate" stroke-width="1">
    <line x1="172" y1="407" x2="255" y2="343"/>
    <circle cx="172" cy="407" r="2"/>
    <circle cx="255" cy="343" r="2"/>
  </g>
  <g stroke="chocolate" stroke-width="1">
    <line x1="172" y1="407" x2="172" y2="372"/>
    <circle cx="172" cy="407" r="2"/>
    <circle cx="172" cy="372" r="2"/>
  </g>
  <g stroke="chocolate" stroke-width="1">
    <line x1="255" y1="343" x2="255" y2="337"/>
    <circle cx="255" cy="343" r="2"/>
    <circle cx="255" cy="337" r="2"/>
  </g>
  <g stroke="chocolate" stroke-width="1">
    <line x1="207" y1="428" x2="196" y2="362"/>
    <circle cx="207" cy="428" r="2"/>
    <circle cx="196" cy="362" r="2"/>
  </g>
  <g stroke="chocolate" stroke-width="1">
    <line x1="207" y1="428" x2="289" y2="414"/>
    <circle cx="207" cy="428" r="2"/>
    <circle cx="289" cy="414" r="2"/>
  </g>
  <g stroke="chocolate" stroke-width="1">
    <line x1="289" y1="414" x2="275" y2="329"/>
    <circle cx="289" cy="414" r="2"/>
    <circle cx="275" cy="329" r="2"/>
  </g>
  <g stroke="chocolate" stroke-width="1">
    <line x1="121" y1="393" x2="275" y2="329"/>
    <circle cx="121" cy="393" r="2"/>
    <circle cx="275" cy="329" r="2"/>
  </g>
  <g stroke="chocolate" stroke-width="1">
    <line x1="171" y1="474" x2="98" y2="433"/>
    <circle cx="171" cy="474" r="2"/>
    <circle cx="98" cy="433" r="2"/>
  </g>
  <g stroke="chocolate" stroke-width="1">
    <line x1="172" y1="407" x2="121" y2="393"/>
    <circle cx="172" cy="407" r="2"/>
    <circle cx="121" cy="393" r="2"/>
  </g>
  <g stroke="chocolate" stroke-width="1">
    <line x1="282" y1="480" x2="196" y2="362"/>
    <circle cx="282" cy="480" r="2"/>
    <circle cx="196" cy="362" r="2"/>
  </g>
  <g stroke="chocolate" stroke-width="1">
    <line x1="282" y1="480" x2="172" y2="372"/>
    <circle cx="282" cy="480" r="2"/>
    <circle cx="172" cy="372" r="2"/>
  </g>
  <g stroke="chocolate" stroke-width="1">
    <line x1="345" y1="425" x2="275" y2="329"/>
    <circle cx="345" cy="425" r="2"/>
    <circle cx="275" cy="329" r="2"/>
  </g>
  <g stroke="chocolate" stroke-width="1">
    <line x1="345" y1="425" x2="255" y2="337"/>
    <circle cx="345" cy="425" r="2"/>
    <circle cx="255" cy="337" r="2"/>
  </g>
  <g stroke="chocolate" stroke-width="1">
    <line x1="255" y1="343" x2="247" y2="340"/>
    <circle cx="255" cy="343" r="2"/>
    <circle cx="247" cy="340" r="2"/>
  </g>
  <g stroke="black" stroke-width="1">
    <line x1="5" y1="5" x2="505" y2="5"/>
    <line x1="5" y1="5" x2="5" y2="505"/>
    <line x1="505" y1="505" x2="5" y2="505"/>
    <line x1="505" y1="505" x2="505" y2="5"/>
    <line x1="105" y1="2" x2="105" y2="8"/>
    <line x1="2" y1="105" x2="8" y2="105"/>
    <line x1="105" y1="502" x2="105" y2="508"/>
    <line x1="502" y1="105" x2="508" y2="105"/>
    <line x1="205" y1="2" x2="205" y2="8"/>
    <line x1="2" y1="205" x2="8" y2="205"/>
    <line x1="205" y1="502" x2="205" y2="508"/>
    <line x1="502" y1="205" x2="508" y2="205"/>
    <line x1="305" y1="2" x2="305" y2="8"/>
    <line x1="2" y1="305" x2="8" y2="305"/>
    <line x1="305" y1="502" x2="305" y2="508"/>
    <line x1="502" y1="305" x2="508" y2="305"/>
    <line x1="405" y1="2" x2="405" y2="8"/>
    <line x1="2" y1="405" x2="8" y2="405"/>
    <line x1="405" y1="502" x2="405" y2="508"/>
    <line x1="502" y1="405" x2="508" y2="405"/>
  </g>
  <g stroke="gray" stroke-width="1" stroke-dasharray="5,5">
    <line x1="105" y1="5" x2="105" y2="505"/>
    <line x1="5" y1="105" x2="505" y2="105"/>
    <line x1="205" y1="5" x2="205" y2="505"/>
    <line x1="5" y1="205" x2="505" y2="205"/>
    <line x1="305" y1="5" x2="305" y2="505"/>
    <line x1="5" y1="305" x2="505" y2="305"/>
    <line x1="405" y1="5" x2="405" y2="505"/>
    <line x1="5" y1="405" x2="505" y2="405"/>
  </g>
</svg>
