<?xml version="1.0" standalone="no"?>
<!DOCTYPE svg PUBLIC "-//W3C//DTD SVG 1.1//EN" 
  "http://www.w3.org/Graphics/SVG/1.1/DTD/svg11.dtd">
<svg width="510" height="510" version="1.1" id="toplevel"
    xmlns="http://www.w3.org/2000/svg"
    xmlns:xlink="http://www.w3.org/1999/xlink">
  <polygon points="5,505 68,505 68,380 130,380 187,322 198,333 242,289 210,257 152,233 129,256 129,317 68,317 5,380"
           fill="bisque"/>
  <g stroke="chocolate" stroke-width="1">
    <line x1="198" y1="333" x2="242" y2="289"/>
    <circle cx="198" cy="333" r="2"/>
    <circle cx="242" cy="289" r="2"/>
  </g>
  <g stroke="chocolate" stroke-width="1">
    <line x1="130" y1="380" x2="192" y2="317"/>
    <circle cx="130" cy="380" r="2"/>
    <circle cx="192" cy="317" r="2"/>
  </g>
  <g stroke="chocolate" stroke-width="1">
    <line x1="152" y1="288" x2="152" y2="233"/>
    <circle cx="152" cy="288" r="2"/>
    <circle cx="152" cy="233" r="2"/>
  </g>
  <g stroke="chocolate" stroke-width="1">
    <line x1="5" y1="505" x2="68" y2="505"/>
    <circle cx="5" cy="505" r="2"/>
    <circle cx="68" cy="505" r="2"/>
  </g>
  <g stroke="chocolate" stroke-width="1">
    <line x1="5" y1="505" x2="5" y2="380"/>
    <circle cx="5" cy="505" r="2"/>
    <circle cx="5" cy="380" r="2"/>
  </g>
  <g stroke="chocolate" stroke-width="1">
    <line x1="68" y1="505" x2="68" y2="317"/>
    <circle cx="68" cy="505" r="2"/>
    <circle cx="68" cy="317" r="2"/>
  </g>
  <g stroke="chocolate" stroke-width="1">
    <line x1="130" y1="380" x2="129" y2="256"/>
    <circle cx="130" cy="380" r="2"/>
    <circle cx="129" cy="256" r="2"/>
  </g>
  <g stroke="chocolate" stroke-width="1">
    <line x1="192" y1="317" x2="191" y2="249"/>
    <circle cx="192" cy="317" r="2"/>
    <circle cx="191" cy="249" r="2"/>
  </g>
  <g stroke="chocolate" stroke-width="1">
    <line x1="152" y1="288" x2="191" y2="249"/>
    <circle cx="152" cy="288" r="2"/>
    <circle cx="191" cy="249" r="2"/>
  </g>
  <g stroke="chocolate" stroke-width="1">
    <line x1="5" y1="380" x2="68" y2="317"/>
    <circle cx="5" cy="380" r="2"/>
    <circle cx="68" cy="317" r="2"/>
  </g>
  <g stroke="chocolate" stroke-width="1">
    <line x1="129" y1="256" x2="152" y2="233"/>
    <circle cx="129" cy="256" r="2"/>
    <circle cx="152" cy="233" r="2"/>
  </g>
  <g stroke="chocolate" stroke-width="1">
    <line x1="5" y1="380" x2="130" y2="380"/>
    <circle cx="5" cy="380" r="2"/>
    <circle cx="130" cy="380" r="2"/>
  </g>
  <g stroke="chocolate" stroke-width="1">
    <line x1="198" y1="333" x2="152" y2="288"/>
    <circle cx="198" cy="333" r="2"/>
    <circle cx="152" cy="288" r="2"/>
  </g>
  <g stroke="chocolate" stroke-width="1">
    <line x1="68" y1="317" x2="192" y2="317"/>
    <circle cx="68" cy="317" r="2"/>
    <circle cx="192" cy="317" r="2"/>
  </g>
  <g stroke="chocolate" stroke-width="1">
    <line x1="242" y1="289" x2="210" y2="257"/>
    <circle cx="242" cy="289" r="2"/>
    <circle cx="210" cy="257" r="2"/>
  </g>
  <g stroke="chocolate" stroke-width="1">
    <line x1="210" y1="257" x2="129" y2="256"/>
    <circle cx="210" cy="257" r="2"/>
    <circle cx="129" cy="256" r="2"/>
  </g>
  <g stroke="chocolate" stroke-width="1">
    <line x1="210" y1="257" x2="152" y2="233"/>
    <circle cx="210" cy="257" r="2"/>
    <circle cx="152" cy="233" r="2"/>
  </g>
  <g stroke="black" stroke-width="1">
    <line x1="5" y1="5" x2="505" y2="5"/>
    <line x1="5" y1="5" x2="5" y2="505"/>
    <line x1="505" y1="505" x2="5" y2="505"/>
    <line x1="505" y1="505" x2="505" y2="5"/>
    <line x1="105" y1="2" x2="105" y2="8"/>
    <line x1="2" y1="105" x2="8" y2="105"/>
    <line x1="105" y1="502" x2="105" y2="508"/>
    <line x1="502" y1="105" x2="508" y2="105"/>
    <line x1="205" y1="2" x2="205" y2="8"/>
    <line x1="2" y1="205" x2="8" y2="205"/>
    <line x1="205" y1="502" x2="205" y2="508"/>
    <line x1="502" y1="205" x2="508" y2="205"/>
    <line x1="305" y1="2" x2="305" y2="8"/>
    <line x1="2" y1="305" x2="8" y2="305"/>
    <line x1="305" y1="502" x2="305" y2="508"/>
    <line x1="502" y1="305" x2="508" y2="305"/>
    <line x1="405" y1="2" x2="405" y2="8"/>
    <line x1="2" y1="405" x2="8" y2="405"/>
    <line x1="405" y1="502" x2="405" y2="508"/>
    <line x1="502" y1="405" x2="508" y2="405"/>
  </g>
  <g stroke="gray" stroke-width="1" stroke-dasharray="5,5">
    <line x1="105" y1="5" x2="105" y2="505"/>
    <line x1="5" y1="105" x2="505" y2="105"/>
    <line x1="205" y1="5" x2="205" y2="505"/>
    <line x1="5" y1="205" x2="505" y2="205"/>
    <line x1="305" y1="5" x2="305" y2="505"/>
    <line x1="5" y1="305" x2="505" y2="305"/>
    <line x1="405" y1="5" x2="405" y2="505"/>
    <line x1="5" y1="405" x2="505" y2="405"/>
  </g>
</svg>
