<?xml version="1.0" standalone="no"?>
<!DOCTYPE svg PUBLIC "-//W3C//DTD SVG 1.1//EN" 
  "http://www.w3.org/Graphics/SVG/1.1/DTD/svg11.dtd">
<svg width="510" height="510" version="1.1" id="toplevel"
    xmlns="http://www.w3.org/2000/svg"
    xmlns:xlink="http://www.w3.org/1999/xlink">
  <polygon points="182,505 281,505 281,324 295,327 294,332 294,332 294,337 294,337 293,343 293,343 292,348 293,348 292,353 327,361 327,358 328,351 329,351 329,345 329,346 330,340 330,340 331,335 331,335 345,247 257,160 227,184 223,202 165,274"
           fill="bisque"/>
  <g stroke="chocolate" stroke-width="1">
    <line x1="327" y1="361" x2="327" y2="358"/>
    <circle cx="327" cy="361" r="2"/>
    <circle cx="327" cy="358" r="2"/>
  </g>
  <g stroke="chocolate" stroke-width="1">
    <line x1="165" y1="274" x2="257" y2="160"/>
    <circle cx="165" cy="274" r="2"/>
    <circle cx="257" cy="160" r="2"/>
  </g>
  <g stroke="chocolate" stroke-width="1">
    <line x1="200" y1="306" x2="227" y2="184"/>
    <circle cx="200" cy="306" r="2"/>
    <circle cx="227" cy="184" r="2"/>
  </g>
  <g stroke="chocolate" stroke-width="1">
    <line x1="331" y1="335" x2="345" y2="247"/>
    <circle cx="331" cy="335" r="2"/>
    <circle cx="345" cy="247" r="2"/>
  </g>
  <g stroke="chocolate" stroke-width="1">
    <line x1="330" y1="340" x2="345" y2="247"/>
    <circle cx="330" cy="340" r="2"/>
    <circle cx="345" cy="247" r="2"/>
  </g>
  <g stroke="chocolate" stroke-width="1">
    <line x1="329" y1="346" x2="344" y2="247"/>
    <circle cx="329" cy="346" r="2"/>
    <circle cx="344" cy="247" r="2"/>
  </g>
  <g stroke="chocolate" stroke-width="1">
    <line x1="329" y1="351" x2="344" y2="247"/>
    <circle cx="329" cy="351" r="2"/>
    <circle cx="344" cy="247" r="2"/>
  </g>
  <g stroke="chocolate" stroke-width="1">
    <line x1="327" y1="358" x2="344" y2="247"/>
    <circle cx="327" cy="358" r="2"/>
    <circle cx="344" cy="247" r="2"/>
  </g>
  <g stroke="chocolate" stroke-width="1">
    <line x1="292" y1="353" x2="313" y2="215"/>
    <circle cx="292" cy="353" r="2"/>
    <circle cx="313" cy="215" r="2"/>
  </g>
  <g stroke="chocolate" stroke-width="1">
    <line x1="292" y1="348" x2="312" y2="215"/>
    <circle cx="292" cy="348" r="2"/>
    <circle cx="312" cy="215" r="2"/>
  </g>
  <g stroke="chocolate" stroke-width="1">
    <line x1="293" y1="343" x2="312" y2="215"/>
    <circle cx="293" cy="343" r="2"/>
    <circle cx="312" cy="215" r="2"/>
  </g>
  <g stroke="chocolate" stroke-width="1">
    <line x1="294" y1="337" x2="312" y2="215"/>
    <circle cx="294" cy="337" r="2"/>
    <circle cx="312" cy="215" r="2"/>
  </g>
  <g stroke="chocolate" stroke-width="1">
    <line x1="294" y1="332" x2="312" y2="215"/>
    <circle cx="294" cy="332" r="2"/>
    <circle cx="312" cy="215" r="2"/>
  </g>
  <g stroke="chocolate" stroke-width="1">
    <line x1="182" y1="505" x2="219" y2="500"/>
    <circle cx="182" cy="505" r="2"/>
    <circle cx="219" cy="500" r="2"/>
  </g>
  <g stroke="chocolate" stroke-width="1">
    <line x1="182" y1="500" x2="218" y2="494"/>
    <circle cx="182" cy="500" r="2"/>
    <circle cx="218" cy="494" r="2"/>
  </g>
  <g stroke="chocolate" stroke-width="1">
    <line x1="181" y1="494" x2="218" y2="489"/>
    <circle cx="181" cy="494" r="2"/>
    <circle cx="218" cy="489" r="2"/>
  </g>
  <g stroke="chocolate" stroke-width="1">
    <line x1="327" y1="358" x2="337" y2="239"/>
    <circle cx="327" cy="358" r="2"/>
    <circle cx="337" cy="239" r="2"/>
  </g>
  <g stroke="chocolate" stroke-width="1">
    <line x1="181" y1="489" x2="217" y2="484"/>
    <circle cx="181" cy="489" r="2"/>
    <circle cx="217" cy="484" r="2"/>
  </g>
  <g stroke="chocolate" stroke-width="1">
    <line x1="181" y1="484" x2="217" y2="479"/>
    <circle cx="181" cy="484" r="2"/>
    <circle cx="217" cy="479" r="2"/>
  </g>
  <g stroke="chocolate" stroke-width="1">
    <line x1="181" y1="479" x2="216" y2="474"/>
    <circle cx="181" cy="479" r="2"/>
    <circle cx="216" cy="474" r="2"/>
  </g>
  <g stroke="chocolate" stroke-width="1">
    <line x1="227" y1="184" x2="257" y2="160"/>
    <circle cx="227" cy="184" r="2"/>
    <circle cx="257" cy="160" r="2"/>
  </g>
  <g stroke="chocolate" stroke-width="1">
    <line x1="182" y1="505" x2="281" y2="505"/>
    <circle cx="182" cy="505" r="2"/>
    <circle cx="281" cy="505" r="2"/>
  </g>
  <g stroke="chocolate" stroke-width="1">
    <line x1="281" y1="505" x2="281" y2="184"/>
    <circle cx="281" cy="505" r="2"/>
    <circle cx="281" cy="184" r="2"/>
  </g>
  <g stroke="chocolate" stroke-width="1">
    <line x1="182" y1="500" x2="219" y2="500"/>
    <circle cx="182" cy="500" r="2"/>
    <circle cx="219" cy="500" r="2"/>
  </g>
  <g stroke="chocolate" stroke-width="1">
    <line x1="181" y1="494" x2="218" y2="494"/>
    <circle cx="181" cy="494" r="2"/>
    <circle cx="218" cy="494" r="2"/>
  </g>
  <g stroke="chocolate" stroke-width="1">
    <line x1="181" y1="489" x2="218" y2="489"/>
    <circle cx="181" cy="489" r="2"/>
    <circle cx="218" cy="489" r="2"/>
  </g>
  <g stroke="chocolate" stroke-width="1">
    <line x1="181" y1="484" x2="217" y2="484"/>
    <circle cx="181" cy="484" r="2"/>
    <circle cx="217" cy="484" r="2"/>
  </g>
  <g stroke="chocolate" stroke-width="1">
    <line x1="181" y1="479" x2="217" y2="479"/>
    <circle cx="181" cy="479" r="2"/>
    <circle cx="217" cy="479" r="2"/>
  </g>
  <g stroke="chocolate" stroke-width="1">
    <line x1="182" y1="505" x2="165" y2="274"/>
    <circle cx="182" cy="505" r="2"/>
    <circle cx="165" cy="274" r="2"/>
  </g>
  <g stroke="chocolate" stroke-width="1">
    <line x1="182" y1="500" x2="165" y2="274"/>
    <circle cx="182" cy="500" r="2"/>
    <circle cx="165" cy="274" r="2"/>
  </g>
  <g stroke="chocolate" stroke-width="1">
    <line x1="181" y1="494" x2="166" y2="274"/>
    <circle cx="181" cy="494" r="2"/>
    <circle cx="166" cy="274" r="2"/>
  </g>
  <g stroke="chocolate" stroke-width="1">
    <line x1="181" y1="489" x2="166" y2="274"/>
    <circle cx="181" cy="489" r="2"/>
    <circle cx="166" cy="274" r="2"/>
  </g>
  <g stroke="chocolate" stroke-width="1">
    <line x1="181" y1="484" x2="166" y2="274"/>
    <circle cx="181" cy="484" r="2"/>
    <circle cx="166" cy="274" r="2"/>
  </g>
  <g stroke="chocolate" stroke-width="1">
    <line x1="217" y1="479" x2="199" y2="232"/>
    <circle cx="217" cy="479" r="2"/>
    <circle cx="199" cy="232" r="2"/>
  </g>
  <g stroke="chocolate" stroke-width="1">
    <line x1="217" y1="484" x2="199" y2="232"/>
    <circle cx="217" cy="484" r="2"/>
    <circle cx="199" cy="232" r="2"/>
  </g>
  <g stroke="chocolate" stroke-width="1">
    <line x1="218" y1="489" x2="199" y2="232"/>
    <circle cx="218" cy="489" r="2"/>
    <circle cx="199" cy="232" r="2"/>
  </g>
  <g stroke="chocolate" stroke-width="1">
    <line x1="218" y1="494" x2="199" y2="232"/>
    <circle cx="218" cy="494" r="2"/>
    <circle cx="199" cy="232" r="2"/>
  </g>
  <g stroke="chocolate" stroke-width="1">
    <line x1="219" y1="500" x2="200" y2="232"/>
    <circle cx="219" cy="500" r="2"/>
    <circle cx="200" cy="232" r="2"/>
  </g>
  <g stroke="chocolate" stroke-width="1">
    <line x1="216" y1="474" x2="184" y2="251"/>
    <circle cx="216" cy="474" r="2"/>
    <circle cx="184" cy="251" r="2"/>
  </g>
  <g stroke="chocolate" stroke-width="1">
    <line x1="165" y1="274" x2="345" y2="247"/>
    <circle cx="165" cy="274" r="2"/>
    <circle cx="345" cy="247" r="2"/>
  </g>
  <g stroke="chocolate" stroke-width="1">
    <line x1="165" y1="274" x2="345" y2="247"/>
    <circle cx="165" cy="274" r="2"/>
    <circle cx="345" cy="247" r="2"/>
  </g>
  <g stroke="chocolate" stroke-width="1">
    <line x1="166" y1="274" x2="344" y2="247"/>
    <circle cx="166" cy="274" r="2"/>
    <circle cx="344" cy="247" r="2"/>
  </g>
  <g stroke="chocolate" stroke-width="1">
    <line x1="166" y1="274" x2="344" y2="247"/>
    <circle cx="166" cy="274" r="2"/>
    <circle cx="344" cy="247" r="2"/>
  </g>
  <g stroke="chocolate" stroke-width="1">
    <line x1="166" y1="274" x2="344" y2="247"/>
    <circle cx="166" cy="274" r="2"/>
    <circle cx="344" cy="247" r="2"/>
  </g>
  <g stroke="chocolate" stroke-width="1">
    <line x1="328" y1="356" x2="292" y2="353"/>
    <circle cx="328" cy="356" r="2"/>
    <circle cx="292" cy="353" r="2"/>
  </g>
  <g stroke="chocolate" stroke-width="1">
    <line x1="329" y1="351" x2="292" y2="348"/>
    <circle cx="329" cy="351" r="2"/>
    <circle cx="292" cy="348" r="2"/>
  </g>
  <g stroke="chocolate" stroke-width="1">
    <line x1="329" y1="346" x2="293" y2="343"/>
    <circle cx="329" cy="346" r="2"/>
    <circle cx="293" cy="343" r="2"/>
  </g>
  <g stroke="chocolate" stroke-width="1">
    <line x1="199" y1="232" x2="313" y2="215"/>
    <circle cx="199" cy="232" r="2"/>
    <circle cx="313" cy="215" r="2"/>
  </g>
  <g stroke="chocolate" stroke-width="1">
    <line x1="199" y1="232" x2="312" y2="215"/>
    <circle cx="199" cy="232" r="2"/>
    <circle cx="312" cy="215" r="2"/>
  </g>
  <g stroke="chocolate" stroke-width="1">
    <line x1="199" y1="232" x2="312" y2="215"/>
    <circle cx="199" cy="232" r="2"/>
    <circle cx="312" cy="215" r="2"/>
  </g>
  <g stroke="chocolate" stroke-width="1">
    <line x1="199" y1="232" x2="312" y2="215"/>
    <circle cx="199" cy="232" r="2"/>
    <circle cx="312" cy="215" r="2"/>
  </g>
  <g stroke="chocolate" stroke-width="1">
    <line x1="200" y1="232" x2="312" y2="215"/>
    <circle cx="200" cy="232" r="2"/>
    <circle cx="312" cy="215" r="2"/>
  </g>
  <g stroke="chocolate" stroke-width="1">
    <line x1="330" y1="340" x2="294" y2="337"/>
    <circle cx="330" cy="340" r="2"/>
    <circle cx="294" cy="337" r="2"/>
  </g>
  <g stroke="chocolate" stroke-width="1">
    <line x1="331" y1="335" x2="294" y2="332"/>
    <circle cx="331" cy="335" r="2"/>
    <circle cx="294" cy="332" r="2"/>
  </g>
  <g stroke="chocolate" stroke-width="1">
    <line x1="184" y1="251" x2="337" y2="239"/>
    <circle cx="184" cy="251" r="2"/>
    <circle cx="337" cy="239" r="2"/>
  </g>
  <g stroke="chocolate" stroke-width="1">
    <line x1="327" y1="361" x2="292" y2="353"/>
    <circle cx="327" cy="361" r="2"/>
    <circle cx="292" cy="353" r="2"/>
  </g>
  <g stroke="chocolate" stroke-width="1">
    <line x1="328" y1="356" x2="292" y2="348"/>
    <circle cx="328" cy="356" r="2"/>
    <circle cx="292" cy="348" r="2"/>
  </g>
  <g stroke="chocolate" stroke-width="1">
    <line x1="329" y1="351" x2="293" y2="343"/>
    <circle cx="329" cy="351" r="2"/>
    <circle cx="293" cy="343" r="2"/>
  </g>
  <g stroke="chocolate" stroke-width="1">
    <line x1="329" y1="346" x2="294" y2="337"/>
    <circle cx="329" cy="346" r="2"/>
    <circle cx="294" cy="337" r="2"/>
  </g>
  <g stroke="chocolate" stroke-width="1">
    <line x1="330" y1="340" x2="294" y2="332"/>
    <circle cx="330" cy="340" r="2"/>
    <circle cx="294" cy="332" r="2"/>
  </g>
  <g stroke="chocolate" stroke-width="1">
    <line x1="331" y1="335" x2="200" y2="306"/>
    <circle cx="331" cy="335" r="2"/>
    <circle cx="200" cy="306" r="2"/>
  </g>
  <g stroke="chocolate" stroke-width="1">
    <line x1="227" y1="184" x2="281" y2="184"/>
    <circle cx="227" cy="184" r="2"/>
    <circle cx="281" cy="184" r="2"/>
  </g>
  <g stroke="chocolate" stroke-width="1">
    <line x1="345" y1="247" x2="257" y2="160"/>
    <circle cx="345" cy="247" r="2"/>
    <circle cx="257" cy="160" r="2"/>
  </g>
  <g stroke="black" stroke-width="1">
    <line x1="5" y1="5" x2="505" y2="5"/>
    <line x1="5" y1="5" x2="5" y2="505"/>
    <line x1="505" y1="505" x2="5" y2="505"/>
    <line x1="505" y1="505" x2="505" y2="5"/>
    <line x1="105" y1="2" x2="105" y2="8"/>
    <line x1="2" y1="105" x2="8" y2="105"/>
    <line x1="105" y1="502" x2="105" y2="508"/>
    <line x1="502" y1="105" x2="508" y2="105"/>
    <line x1="205" y1="2" x2="205" y2="8"/>
    <line x1="2" y1="205" x2="8" y2="205"/>
    <line x1="205" y1="502" x2="205" y2="508"/>
    <line x1="502" y1="205" x2="508" y2="205"/>
    <line x1="305" y1="2" x2="305" y2="8"/>
    <line x1="2" y1="305" x2="8" y2="305"/>
    <line x1="305" y1="502" x2="305" y2="508"/>
    <line x1="502" y1="305" x2="508" y2="305"/>
    <line x1="405" y1="2" x2="405" y2="8"/>
    <line x1="2" y1="405" x2="8" y2="405"/>
    <line x1="405" y1="502" x2="405" y2="508"/>
    <line x1="502" y1="405" x2="508" y2="405"/>
  </g>
  <g stroke="gray" stroke-width="1" stroke-dasharray="5,5">
    <line x1="105" y1="5" x2="105" y2="505"/>
    <line x1="5" y1="105" x2="505" y2="105"/>
    <line x1="205" y1="5" x2="205" y2="505"/>
    <line x1="5" y1="205" x2="505" y2="205"/>
    <line x1="305" y1="5" x2="305" y2="505"/>
    <line x1="5" y1="305" x2="505" y2="305"/>
    <line x1="405" y1="5" x2="405" y2="505"/>
    <line x1="5" y1="405" x2="505" y2="405"/>
  </g>
</svg>
