<?xml version="1.0" standalone="no"?>
<!DOCTYPE svg PUBLIC "-//W3C//DTD SVG 1.1//EN" 
  "http://www.w3.org/Graphics/SVG/1.1/DTD/svg11.dtd">
<svg width="510" height="510" version="1.1" id="toplevel"
    xmlns="http://www.w3.org/2000/svg"
    xmlns:xlink="http://www.w3.org/1999/xlink">
  <polygon points="186,505 285,505 285,335 290,336 289,341 289,341 289,346 289,346 288,352 288,352 287,357 288,357 287,362 322,370 322,367 323,360 323,360 324,354 324,354 325,349 325,349 326,344 326,344 341,249 257,165 222,192 217,214 169,274"
           fill="bisque"/>
  <g stroke="chocolate" stroke-width="1">
    <line x1="322" y1="370" x2="322" y2="367"/>
    <circle cx="322" cy="370" r="2"/>
    <circle cx="322" cy="367" r="2"/>
  </g>
  <g stroke="chocolate" stroke-width="1">
    <line x1="169" y1="274" x2="257" y2="165"/>
    <circle cx="169" cy="274" r="2"/>
    <circle cx="257" cy="165" r="2"/>
  </g>
  <g stroke="chocolate" stroke-width="1">
    <line x1="195" y1="314" x2="222" y2="192"/>
    <circle cx="195" cy="314" r="2"/>
    <circle cx="222" cy="192" r="2"/>
  </g>
  <g stroke="chocolate" stroke-width="1">
    <line x1="326" y1="344" x2="341" y2="249"/>
    <circle cx="326" cy="344" r="2"/>
    <circle cx="341" cy="249" r="2"/>
  </g>
  <g stroke="chocolate" stroke-width="1">
    <line x1="325" y1="349" x2="341" y2="248"/>
    <circle cx="325" cy="349" r="2"/>
    <circle cx="341" cy="248" r="2"/>
  </g>
  <g stroke="chocolate" stroke-width="1">
    <line x1="324" y1="354" x2="340" y2="248"/>
    <circle cx="324" cy="354" r="2"/>
    <circle cx="340" cy="248" r="2"/>
  </g>
  <g stroke="chocolate" stroke-width="1">
    <line x1="323" y1="360" x2="340" y2="248"/>
    <circle cx="323" cy="360" r="2"/>
    <circle cx="340" cy="248" r="2"/>
  </g>
  <g stroke="chocolate" stroke-width="1">
    <line x1="322" y1="367" x2="340" y2="248"/>
    <circle cx="322" cy="367" r="2"/>
    <circle cx="340" cy="248" r="2"/>
  </g>
  <g stroke="chocolate" stroke-width="1">
    <line x1="287" y1="362" x2="309" y2="216"/>
    <circle cx="287" cy="362" r="2"/>
    <circle cx="309" cy="216" r="2"/>
  </g>
  <g stroke="chocolate" stroke-width="1">
    <line x1="287" y1="357" x2="309" y2="216"/>
    <circle cx="287" cy="357" r="2"/>
    <circle cx="309" cy="216" r="2"/>
  </g>
  <g stroke="chocolate" stroke-width="1">
    <line x1="288" y1="352" x2="308" y2="216"/>
    <circle cx="288" cy="352" r="2"/>
    <circle cx="308" cy="216" r="2"/>
  </g>
  <g stroke="chocolate" stroke-width="1">
    <line x1="289" y1="346" x2="308" y2="216"/>
    <circle cx="289" cy="346" r="2"/>
    <circle cx="308" cy="216" r="2"/>
  </g>
  <g stroke="chocolate" stroke-width="1">
    <line x1="289" y1="341" x2="308" y2="216"/>
    <circle cx="289" cy="341" r="2"/>
    <circle cx="308" cy="216" r="2"/>
  </g>
  <g stroke="chocolate" stroke-width="1">
    <line x1="186" y1="505" x2="223" y2="500"/>
    <circle cx="186" cy="505" r="2"/>
    <circle cx="223" cy="500" r="2"/>
  </g>
  <g stroke="chocolate" stroke-width="1">
    <line x1="185" y1="500" x2="222" y2="494"/>
    <circle cx="185" cy="500" r="2"/>
    <circle cx="222" cy="494" r="2"/>
  </g>
  <g stroke="chocolate" stroke-width="1">
    <line x1="185" y1="494" x2="222" y2="489"/>
    <circle cx="185" cy="494" r="2"/>
    <circle cx="222" cy="489" r="2"/>
  </g>
  <g stroke="chocolate" stroke-width="1">
    <line x1="322" y1="367" x2="332" y2="240"/>
    <circle cx="322" cy="367" r="2"/>
    <circle cx="332" cy="240" r="2"/>
  </g>
  <g stroke="chocolate" stroke-width="1">
    <line x1="185" y1="489" x2="221" y2="484"/>
    <circle cx="185" cy="489" r="2"/>
    <circle cx="221" cy="484" r="2"/>
  </g>
  <g stroke="chocolate" stroke-width="1">
    <line x1="185" y1="484" x2="220" y2="479"/>
    <circle cx="185" cy="484" r="2"/>
    <circle cx="220" cy="479" r="2"/>
  </g>
  <g stroke="chocolate" stroke-width="1">
    <line x1="185" y1="479" x2="220" y2="474"/>
    <circle cx="185" cy="479" r="2"/>
    <circle cx="220" cy="474" r="2"/>
  </g>
  <g stroke="chocolate" stroke-width="1">
    <line x1="222" y1="192" x2="257" y2="165"/>
    <circle cx="222" cy="192" r="2"/>
    <circle cx="257" cy="165" r="2"/>
  </g>
  <g stroke="chocolate" stroke-width="1">
    <line x1="186" y1="505" x2="285" y2="505"/>
    <circle cx="186" cy="505" r="2"/>
    <circle cx="285" cy="505" r="2"/>
  </g>
  <g stroke="chocolate" stroke-width="1">
    <line x1="285" y1="505" x2="285" y2="192"/>
    <circle cx="285" cy="505" r="2"/>
    <circle cx="285" cy="192" r="2"/>
  </g>
  <g stroke="chocolate" stroke-width="1">
    <line x1="185" y1="500" x2="223" y2="500"/>
    <circle cx="185" cy="500" r="2"/>
    <circle cx="223" cy="500" r="2"/>
  </g>
  <g stroke="chocolate" stroke-width="1">
    <line x1="185" y1="494" x2="222" y2="494"/>
    <circle cx="185" cy="494" r="2"/>
    <circle cx="222" cy="494" r="2"/>
  </g>
  <g stroke="chocolate" stroke-width="1">
    <line x1="185" y1="489" x2="222" y2="489"/>
    <circle cx="185" cy="489" r="2"/>
    <circle cx="222" cy="489" r="2"/>
  </g>
  <g stroke="chocolate" stroke-width="1">
    <line x1="185" y1="484" x2="221" y2="484"/>
    <circle cx="185" cy="484" r="2"/>
    <circle cx="221" cy="484" r="2"/>
  </g>
  <g stroke="chocolate" stroke-width="1">
    <line x1="185" y1="479" x2="220" y2="479"/>
    <circle cx="185" cy="479" r="2"/>
    <circle cx="220" cy="479" r="2"/>
  </g>
  <g stroke="chocolate" stroke-width="1">
    <line x1="186" y1="505" x2="169" y2="274"/>
    <circle cx="186" cy="505" r="2"/>
    <circle cx="169" cy="274" r="2"/>
  </g>
  <g stroke="chocolate" stroke-width="1">
    <line x1="185" y1="500" x2="169" y2="274"/>
    <circle cx="185" cy="500" r="2"/>
    <circle cx="169" cy="274" r="2"/>
  </g>
  <g stroke="chocolate" stroke-width="1">
    <line x1="185" y1="494" x2="170" y2="274"/>
    <circle cx="185" cy="494" r="2"/>
    <circle cx="170" cy="274" r="2"/>
  </g>
  <g stroke="chocolate" stroke-width="1">
    <line x1="185" y1="489" x2="170" y2="274"/>
    <circle cx="185" cy="489" r="2"/>
    <circle cx="170" cy="274" r="2"/>
  </g>
  <g stroke="chocolate" stroke-width="1">
    <line x1="185" y1="484" x2="170" y2="274"/>
    <circle cx="185" cy="484" r="2"/>
    <circle cx="170" cy="274" r="2"/>
  </g>
  <g stroke="chocolate" stroke-width="1">
    <line x1="220" y1="479" x2="203" y2="232"/>
    <circle cx="220" cy="479" r="2"/>
    <circle cx="203" cy="232" r="2"/>
  </g>
  <g stroke="chocolate" stroke-width="1">
    <line x1="221" y1="484" x2="203" y2="232"/>
    <circle cx="221" cy="484" r="2"/>
    <circle cx="203" cy="232" r="2"/>
  </g>
  <g stroke="chocolate" stroke-width="1">
    <line x1="222" y1="489" x2="203" y2="232"/>
    <circle cx="222" cy="489" r="2"/>
    <circle cx="203" cy="232" r="2"/>
  </g>
  <g stroke="chocolate" stroke-width="1">
    <line x1="222" y1="494" x2="203" y2="232"/>
    <circle cx="222" cy="494" r="2"/>
    <circle cx="203" cy="232" r="2"/>
  </g>
  <g stroke="chocolate" stroke-width="1">
    <line x1="223" y1="500" x2="203" y2="232"/>
    <circle cx="223" cy="500" r="2"/>
    <circle cx="203" cy="232" r="2"/>
  </g>
  <g stroke="chocolate" stroke-width="1">
    <line x1="220" y1="474" x2="188" y2="251"/>
    <circle cx="220" cy="474" r="2"/>
    <circle cx="188" cy="251" r="2"/>
  </g>
  <g stroke="chocolate" stroke-width="1">
    <line x1="169" y1="274" x2="341" y2="249"/>
    <circle cx="169" cy="274" r="2"/>
    <circle cx="341" cy="249" r="2"/>
  </g>
  <g stroke="chocolate" stroke-width="1">
    <line x1="169" y1="274" x2="341" y2="248"/>
    <circle cx="169" cy="274" r="2"/>
    <circle cx="341" cy="248" r="2"/>
  </g>
  <g stroke="chocolate" stroke-width="1">
    <line x1="170" y1="274" x2="340" y2="248"/>
    <circle cx="170" cy="274" r="2"/>
    <circle cx="340" cy="248" r="2"/>
  </g>
  <g stroke="chocolate" stroke-width="1">
    <line x1="170" y1="274" x2="340" y2="248"/>
    <circle cx="170" cy="274" r="2"/>
    <circle cx="340" cy="248" r="2"/>
  </g>
  <g stroke="chocolate" stroke-width="1">
    <line x1="170" y1="274" x2="340" y2="248"/>
    <circle cx="170" cy="274" r="2"/>
    <circle cx="340" cy="248" r="2"/>
  </g>
  <g stroke="chocolate" stroke-width="1">
    <line x1="323" y1="365" x2="287" y2="362"/>
    <circle cx="323" cy="365" r="2"/>
    <circle cx="287" cy="362" r="2"/>
  </g>
  <g stroke="chocolate" stroke-width="1">
    <line x1="323" y1="360" x2="287" y2="357"/>
    <circle cx="323" cy="360" r="2"/>
    <circle cx="287" cy="357" r="2"/>
  </g>
  <g stroke="chocolate" stroke-width="1">
    <line x1="324" y1="354" x2="288" y2="352"/>
    <circle cx="324" cy="354" r="2"/>
    <circle cx="288" cy="352" r="2"/>
  </g>
  <g stroke="chocolate" stroke-width="1">
    <line x1="325" y1="349" x2="289" y2="346"/>
    <circle cx="325" cy="349" r="2"/>
    <circle cx="289" cy="346" r="2"/>
  </g>
  <g stroke="chocolate" stroke-width="1">
    <line x1="326" y1="344" x2="289" y2="341"/>
    <circle cx="326" cy="344" r="2"/>
    <circle cx="289" cy="341" r="2"/>
  </g>
  <g stroke="chocolate" stroke-width="1">
    <line x1="203" y1="232" x2="309" y2="216"/>
    <circle cx="203" cy="232" r="2"/>
    <circle cx="309" cy="216" r="2"/>
  </g>
  <g stroke="chocolate" stroke-width="1">
    <line x1="203" y1="232" x2="309" y2="216"/>
    <circle cx="203" cy="232" r="2"/>
    <circle cx="309" cy="216" r="2"/>
  </g>
  <g stroke="chocolate" stroke-width="1">
    <line x1="203" y1="232" x2="308" y2="216"/>
    <circle cx="203" cy="232" r="2"/>
    <circle cx="308" cy="216" r="2"/>
  </g>
  <g stroke="chocolate" stroke-width="1">
    <line x1="203" y1="232" x2="308" y2="216"/>
    <circle cx="203" cy="232" r="2"/>
    <circle cx="308" cy="216" r="2"/>
  </g>
  <g stroke="chocolate" stroke-width="1">
    <line x1="203" y1="232" x2="308" y2="216"/>
    <circle cx="203" cy="232" r="2"/>
    <circle cx="308" cy="216" r="2"/>
  </g>
  <g stroke="chocolate" stroke-width="1">
    <line x1="188" y1="251" x2="332" y2="240"/>
    <circle cx="188" cy="251" r="2"/>
    <circle cx="332" cy="240" r="2"/>
  </g>
  <g stroke="chocolate" stroke-width="1">
    <line x1="322" y1="370" x2="287" y2="362"/>
    <circle cx="322" cy="370" r="2"/>
    <circle cx="287" cy="362" r="2"/>
  </g>
  <g stroke="chocolate" stroke-width="1">
    <line x1="323" y1="365" x2="287" y2="357"/>
    <circle cx="323" cy="365" r="2"/>
    <circle cx="287" cy="357" r="2"/>
  </g>
  <g stroke="chocolate" stroke-width="1">
    <line x1="323" y1="360" x2="288" y2="352"/>
    <circle cx="323" cy="360" r="2"/>
    <circle cx="288" cy="352" r="2"/>
  </g>
  <g stroke="chocolate" stroke-width="1">
    <line x1="324" y1="354" x2="289" y2="346"/>
    <circle cx="324" cy="354" r="2"/>
    <circle cx="289" cy="346" r="2"/>
  </g>
  <g stroke="chocolate" stroke-width="1">
    <line x1="325" y1="349" x2="289" y2="341"/>
    <circle cx="325" cy="349" r="2"/>
    <circle cx="289" cy="341" r="2"/>
  </g>
  <g stroke="chocolate" stroke-width="1">
    <line x1="326" y1="344" x2="195" y2="314"/>
    <circle cx="326" cy="344" r="2"/>
    <circle cx="195" cy="314" r="2"/>
  </g>
  <g stroke="chocolate" stroke-width="1">
    <line x1="222" y1="192" x2="285" y2="192"/>
    <circle cx="222" cy="192" r="2"/>
    <circle cx="285" cy="192" r="2"/>
  </g>
  <g stroke="chocolate" stroke-width="1">
    <line x1="341" y1="249" x2="257" y2="165"/>
    <circle cx="341" cy="249" r="2"/>
    <circle cx="257" cy="165" r="2"/>
  </g>
  <g stroke="black" stroke-width="1">
    <line x1="5" y1="5" x2="505" y2="5"/>
    <line x1="5" y1="5" x2="5" y2="505"/>
    <line x1="505" y1="505" x2="5" y2="505"/>
    <line x1="505" y1="505" x2="505" y2="5"/>
    <line x1="105" y1="2" x2="105" y2="8"/>
    <line x1="2" y1="105" x2="8" y2="105"/>
    <line x1="105" y1="502" x2="105" y2="508"/>
    <line x1="502" y1="105" x2="508" y2="105"/>
    <line x1="205" y1="2" x2="205" y2="8"/>
    <line x1="2" y1="205" x2="8" y2="205"/>
    <line x1="205" y1="502" x2="205" y2="508"/>
    <line x1="502" y1="205" x2="508" y2="205"/>
    <line x1="305" y1="2" x2="305" y2="8"/>
    <line x1="2" y1="305" x2="8" y2="305"/>
    <line x1="305" y1="502" x2="305" y2="508"/>
    <line x1="502" y1="305" x2="508" y2="305"/>
    <line x1="405" y1="2" x2="405" y2="8"/>
    <line x1="2" y1="405" x2="8" y2="405"/>
    <line x1="405" y1="502" x2="405" y2="508"/>
    <line x1="502" y1="405" x2="508" y2="405"/>
  </g>
  <g stroke="gray" stroke-width="1" stroke-dasharray="5,5">
    <line x1="105" y1="5" x2="105" y2="505"/>
    <line x1="5" y1="105" x2="505" y2="105"/>
    <line x1="205" y1="5" x2="205" y2="505"/>
    <line x1="5" y1="205" x2="505" y2="205"/>
    <line x1="305" y1="5" x2="305" y2="505"/>
    <line x1="5" y1="305" x2="505" y2="305"/>
    <line x1="405" y1="5" x2="405" y2="505"/>
    <line x1="5" y1="405" x2="505" y2="405"/>
  </g>
</svg>
