<?xml version="1.0" standalone="no"?>
<!DOCTYPE svg PUBLIC "-//W3C//DTD SVG 1.1//EN" 
  "http://www.w3.org/Graphics/SVG/1.1/DTD/svg11.dtd">
<svg width="510" height="510" version="1.1" id="toplevel"
    xmlns="http://www.w3.org/2000/svg"
    xmlns:xlink="http://www.w3.org/1999/xlink">
  <polygon points="173,503 323,448 320,439 486,367 330,7 24,129" fill="bisque"/>
  <g stroke="chocolate" stroke-width="1">
    <line x1="323" y1="448" x2="184" y2="65"/>
    <circle cx="323" cy="448" r="2"/>
    <circle cx="184" cy="65" r="2"/>
  </g>
  <g stroke="chocolate" stroke-width="1">
    <line x1="367" y1="108" x2="330" y2="7"/>
    <circle cx="367" cy="108" r="2"/>
    <circle cx="330" cy="7" r="2"/>
  </g>
  <g stroke="chocolate" stroke-width="1">
    <line x1="173" y1="503" x2="24" y2="129"/>
    <circle cx="173" cy="503" r="2"/>
    <circle cx="24" cy="129" r="2"/>
  </g>
  <g stroke="chocolate" stroke-width="1">
    <line x1="221" y1="151" x2="184" y2="65"/>
    <circle cx="221" cy="151" r="2"/>
    <circle cx="184" cy="65" r="2"/>
  </g>
  <g stroke="chocolate" stroke-width="1">
    <line x1="486" y1="367" x2="330" y2="7"/>
    <circle cx="486" cy="367" r="2"/>
    <circle cx="330" cy="7" r="2"/>
  </g>
  <g stroke="chocolate" stroke-width="1">
    <line x1="173" y1="503" x2="486" y2="367"/>
    <circle cx="173" cy="503" r="2"/>
    <circle cx="486" cy="367" r="2"/>
  </g>
  <g stroke="chocolate" stroke-width="1">
    <line x1="173" y1="503" x2="323" y2="448"/>
    <circle cx="173" cy="503" r="2"/>
    <circle cx="323" cy="448" r="2"/>
  </g>
  <g stroke="chocolate" stroke-width="1">
    <line x1="61" y1="220" x2="221" y2="151"/>
    <circle cx="61" cy="220" r="2"/>
    <circle cx="221" cy="151" r="2"/>
  </g>
  <g stroke="chocolate" stroke-width="1">
    <line x1="24" y1="129" x2="330" y2="7"/>
    <circle cx="24" cy="129" r="2"/>
    <circle cx="330" cy="7" r="2"/>
  </g>
  <g stroke="chocolate" stroke-width="1">
    <line x1="61" y1="220" x2="367" y2="108"/>
    <circle cx="61" cy="220" r="2"/>
    <circle cx="367" cy="108" r="2"/>
  </g>
  <g stroke="black" stroke-width="1">
    <line x1="5" y1="5" x2="505" y2="5"/>
    <line x1="5" y1="5" x2="5" y2="505"/>
    <line x1="505" y1="505" x2="5" y2="505"/>
    <line x1="505" y1="505" x2="505" y2="5"/>
    <line x1="105" y1="2" x2="105" y2="8"/>
    <line x1="2" y1="105" x2="8" y2="105"/>
    <line x1="105" y1="502" x2="105" y2="508"/>
    <line x1="502" y1="105" x2="508" y2="105"/>
    <line x1="205" y1="2" x2="205" y2="8"/>
    <line x1="2" y1="205" x2="8" y2="205"/>
    <line x1="205" y1="502" x2="205" y2="508"/>
    <line x1="502" y1="205" x2="508" y2="205"/>
    <line x1="305" y1="2" x2="305" y2="8"/>
    <line x1="2" y1="305" x2="8" y2="305"/>
    <line x1="305" y1="502" x2="305" y2="508"/>
    <line x1="502" y1="305" x2="508" y2="305"/>
    <line x1="405" y1="2" x2="405" y2="8"/>
    <line x1="2" y1="405" x2="8" y2="405"/>
    <line x1="405" y1="502" x2="405" y2="508"/>
    <line x1="502" y1="405" x2="508" y2="405"/>
  </g>
  <g stroke="gray" stroke-width="1" stroke-dasharray="5,5">
    <line x1="105" y1="5" x2="105" y2="505"/>
    <line x1="5" y1="105" x2="505" y2="105"/>
    <line x1="205" y1="5" x2="205" y2="505"/>
    <line x1="5" y1="205" x2="505" y2="205"/>
    <line x1="305" y1="5" x2="305" y2="505"/>
    <line x1="5" y1="305" x2="505" y2="305"/>
    <line x1="405" y1="5" x2="405" y2="505"/>
    <line x1="5" y1="405" x2="505" y2="405"/>
  </g>
</svg>
