<?xml version="1.0" standalone="no"?>
<!DOCTYPE svg PUBLIC "-//W3C//DTD SVG 1.1//EN" 
  "http://www.w3.org/Graphics/SVG/1.1/DTD/svg11.dtd">
<svg width="510" height="510" version="1.1" id="toplevel"
    xmlns="http://www.w3.org/2000/svg"
    xmlns:xlink="http://www.w3.org/1999/xlink">
  <polygon points="186,505 286,505 286,337 289,338 288,343 288,343 287,348 288,348 287,353 287,353 286,359 286,359 286,364 321,372 321,369 322,361 322,361 323,356 323,356 324,351 324,351 325,346 325,346 340,249 257,166 221,194 216,217 170,274"
           fill="bisque"/>
  <g stroke="chocolate" stroke-width="1">
    <line x1="321" y1="372" x2="321" y2="369"/>
    <circle cx="321" cy="372" r="2"/>
    <circle cx="321" cy="369" r="2"/>
  </g>
  <g stroke="chocolate" stroke-width="1">
    <line x1="170" y1="274" x2="257" y2="166"/>
    <circle cx="170" cy="274" r="2"/>
    <circle cx="257" cy="166" r="2"/>
  </g>
  <g stroke="chocolate" stroke-width="1">
    <line x1="194" y1="316" x2="221" y2="194"/>
    <circle cx="194" cy="316" r="2"/>
    <circle cx="221" cy="194" r="2"/>
  </g>
  <g stroke="chocolate" stroke-width="1">
    <line x1="325" y1="346" x2="340" y2="249"/>
    <circle cx="325" cy="346" r="2"/>
    <circle cx="340" cy="249" r="2"/>
  </g>
  <g stroke="chocolate" stroke-width="1">
    <line x1="324" y1="351" x2="340" y2="249"/>
    <circle cx="324" cy="351" r="2"/>
    <circle cx="340" cy="249" r="2"/>
  </g>
  <g stroke="chocolate" stroke-width="1">
    <line x1="323" y1="356" x2="340" y2="248"/>
    <circle cx="323" cy="356" r="2"/>
    <circle cx="340" cy="248" r="2"/>
  </g>
  <g stroke="chocolate" stroke-width="1">
    <line x1="322" y1="361" x2="340" y2="248"/>
    <circle cx="322" cy="361" r="2"/>
    <circle cx="340" cy="248" r="2"/>
  </g>
  <g stroke="chocolate" stroke-width="1">
    <line x1="321" y1="369" x2="339" y2="248"/>
    <circle cx="321" cy="369" r="2"/>
    <circle cx="339" cy="248" r="2"/>
  </g>
  <g stroke="chocolate" stroke-width="1">
    <line x1="286" y1="364" x2="308" y2="217"/>
    <circle cx="286" cy="364" r="2"/>
    <circle cx="308" cy="217" r="2"/>
  </g>
  <g stroke="chocolate" stroke-width="1">
    <line x1="286" y1="359" x2="308" y2="217"/>
    <circle cx="286" cy="359" r="2"/>
    <circle cx="308" cy="217" r="2"/>
  </g>
  <g stroke="chocolate" stroke-width="1">
    <line x1="287" y1="353" x2="308" y2="216"/>
    <circle cx="287" cy="353" r="2"/>
    <circle cx="308" cy="216" r="2"/>
  </g>
  <g stroke="chocolate" stroke-width="1">
    <line x1="287" y1="348" x2="307" y2="216"/>
    <circle cx="287" cy="348" r="2"/>
    <circle cx="307" cy="216" r="2"/>
  </g>
  <g stroke="chocolate" stroke-width="1">
    <line x1="288" y1="343" x2="307" y2="216"/>
    <circle cx="288" cy="343" r="2"/>
    <circle cx="307" cy="216" r="2"/>
  </g>
  <g stroke="chocolate" stroke-width="1">
    <line x1="186" y1="505" x2="223" y2="500"/>
    <circle cx="186" cy="505" r="2"/>
    <circle cx="223" cy="500" r="2"/>
  </g>
  <g stroke="chocolate" stroke-width="1">
    <line x1="186" y1="500" x2="223" y2="494"/>
    <circle cx="186" cy="500" r="2"/>
    <circle cx="223" cy="494" r="2"/>
  </g>
  <g stroke="chocolate" stroke-width="1">
    <line x1="186" y1="494" x2="222" y2="489"/>
    <circle cx="186" cy="494" r="2"/>
    <circle cx="222" cy="489" r="2"/>
  </g>
  <g stroke="chocolate" stroke-width="1">
    <line x1="321" y1="369" x2="331" y2="240"/>
    <circle cx="321" cy="369" r="2"/>
    <circle cx="331" cy="240" r="2"/>
  </g>
  <g stroke="chocolate" stroke-width="1">
    <line x1="186" y1="489" x2="222" y2="484"/>
    <circle cx="186" cy="489" r="2"/>
    <circle cx="222" cy="484" r="2"/>
  </g>
  <g stroke="chocolate" stroke-width="1">
    <line x1="186" y1="484" x2="221" y2="479"/>
    <circle cx="186" cy="484" r="2"/>
    <circle cx="221" cy="479" r="2"/>
  </g>
  <g stroke="chocolate" stroke-width="1">
    <line x1="185" y1="479" x2="221" y2="474"/>
    <circle cx="185" cy="479" r="2"/>
    <circle cx="221" cy="474" r="2"/>
  </g>
  <g stroke="chocolate" stroke-width="1">
    <line x1="221" y1="194" x2="257" y2="166"/>
    <circle cx="221" cy="194" r="2"/>
    <circle cx="257" cy="166" r="2"/>
  </g>
  <g stroke="chocolate" stroke-width="1">
    <line x1="186" y1="505" x2="286" y2="505"/>
    <circle cx="186" cy="505" r="2"/>
    <circle cx="286" cy="505" r="2"/>
  </g>
  <g stroke="chocolate" stroke-width="1">
    <line x1="286" y1="505" x2="286" y2="194"/>
    <circle cx="286" cy="505" r="2"/>
    <circle cx="286" cy="194" r="2"/>
  </g>
  <g stroke="chocolate" stroke-width="1">
    <line x1="186" y1="500" x2="223" y2="500"/>
    <circle cx="186" cy="500" r="2"/>
    <circle cx="223" cy="500" r="2"/>
  </g>
  <g stroke="chocolate" stroke-width="1">
    <line x1="186" y1="494" x2="223" y2="494"/>
    <circle cx="186" cy="494" r="2"/>
    <circle cx="223" cy="494" r="2"/>
  </g>
  <g stroke="chocolate" stroke-width="1">
    <line x1="186" y1="489" x2="222" y2="489"/>
    <circle cx="186" cy="489" r="2"/>
    <circle cx="222" cy="489" r="2"/>
  </g>
  <g stroke="chocolate" stroke-width="1">
    <line x1="186" y1="484" x2="222" y2="484"/>
    <circle cx="186" cy="484" r="2"/>
    <circle cx="222" cy="484" r="2"/>
  </g>
  <g stroke="chocolate" stroke-width="1">
    <line x1="185" y1="479" x2="221" y2="479"/>
    <circle cx="185" cy="479" r="2"/>
    <circle cx="221" cy="479" r="2"/>
  </g>
  <g stroke="chocolate" stroke-width="1">
    <line x1="186" y1="505" x2="170" y2="274"/>
    <circle cx="186" cy="505" r="2"/>
    <circle cx="170" cy="274" r="2"/>
  </g>
  <g stroke="chocolate" stroke-width="1">
    <line x1="186" y1="500" x2="170" y2="274"/>
    <circle cx="186" cy="500" r="2"/>
    <circle cx="170" cy="274" r="2"/>
  </g>
  <g stroke="chocolate" stroke-width="1">
    <line x1="186" y1="494" x2="170" y2="274"/>
    <circle cx="186" cy="494" r="2"/>
    <circle cx="170" cy="274" r="2"/>
  </g>
  <g stroke="chocolate" stroke-width="1">
    <line x1="186" y1="489" x2="171" y2="274"/>
    <circle cx="186" cy="489" r="2"/>
    <circle cx="171" cy="274" r="2"/>
  </g>
  <g stroke="chocolate" stroke-width="1">
    <line x1="186" y1="484" x2="171" y2="274"/>
    <circle cx="186" cy="484" r="2"/>
    <circle cx="171" cy="274" r="2"/>
  </g>
  <g stroke="chocolate" stroke-width="1">
    <line x1="221" y1="479" x2="204" y2="232"/>
    <circle cx="221" cy="479" r="2"/>
    <circle cx="204" cy="232" r="2"/>
  </g>
  <g stroke="chocolate" stroke-width="1">
    <line x1="222" y1="484" x2="204" y2="232"/>
    <circle cx="222" cy="484" r="2"/>
    <circle cx="204" cy="232" r="2"/>
  </g>
  <g stroke="chocolate" stroke-width="1">
    <line x1="222" y1="489" x2="204" y2="232"/>
    <circle cx="222" cy="489" r="2"/>
    <circle cx="204" cy="232" r="2"/>
  </g>
  <g stroke="chocolate" stroke-width="1">
    <line x1="223" y1="494" x2="204" y2="232"/>
    <circle cx="223" cy="494" r="2"/>
    <circle cx="204" cy="232" r="2"/>
  </g>
  <g stroke="chocolate" stroke-width="1">
    <line x1="223" y1="500" x2="204" y2="232"/>
    <circle cx="223" cy="500" r="2"/>
    <circle cx="204" cy="232" r="2"/>
  </g>
  <g stroke="chocolate" stroke-width="1">
    <line x1="221" y1="474" x2="189" y2="251"/>
    <circle cx="221" cy="474" r="2"/>
    <circle cx="189" cy="251" r="2"/>
  </g>
  <g stroke="chocolate" stroke-width="1">
    <line x1="170" y1="274" x2="340" y2="249"/>
    <circle cx="170" cy="274" r="2"/>
    <circle cx="340" cy="249" r="2"/>
  </g>
  <g stroke="chocolate" stroke-width="1">
    <line x1="170" y1="274" x2="340" y2="249"/>
    <circle cx="170" cy="274" r="2"/>
    <circle cx="340" cy="249" r="2"/>
  </g>
  <g stroke="chocolate" stroke-width="1">
    <line x1="170" y1="274" x2="340" y2="248"/>
    <circle cx="170" cy="274" r="2"/>
    <circle cx="340" cy="248" r="2"/>
  </g>
  <g stroke="chocolate" stroke-width="1">
    <line x1="171" y1="274" x2="340" y2="248"/>
    <circle cx="171" cy="274" r="2"/>
    <circle cx="340" cy="248" r="2"/>
  </g>
  <g stroke="chocolate" stroke-width="1">
    <line x1="171" y1="274" x2="339" y2="248"/>
    <circle cx="171" cy="274" r="2"/>
    <circle cx="339" cy="248" r="2"/>
  </g>
  <g stroke="chocolate" stroke-width="1">
    <line x1="321" y1="366" x2="286" y2="364"/>
    <circle cx="321" cy="366" r="2"/>
    <circle cx="286" cy="364" r="2"/>
  </g>
  <g stroke="chocolate" stroke-width="1">
    <line x1="322" y1="361" x2="286" y2="359"/>
    <circle cx="322" cy="361" r="2"/>
    <circle cx="286" cy="359" r="2"/>
  </g>
  <g stroke="chocolate" stroke-width="1">
    <line x1="323" y1="356" x2="287" y2="353"/>
    <circle cx="323" cy="356" r="2"/>
    <circle cx="287" cy="353" r="2"/>
  </g>
  <g stroke="chocolate" stroke-width="1">
    <line x1="324" y1="351" x2="287" y2="348"/>
    <circle cx="324" cy="351" r="2"/>
    <circle cx="287" cy="348" r="2"/>
  </g>
  <g stroke="chocolate" stroke-width="1">
    <line x1="325" y1="346" x2="288" y2="343"/>
    <circle cx="325" cy="346" r="2"/>
    <circle cx="288" cy="343" r="2"/>
  </g>
  <g stroke="chocolate" stroke-width="1">
    <line x1="204" y1="232" x2="308" y2="217"/>
    <circle cx="204" cy="232" r="2"/>
    <circle cx="308" cy="217" r="2"/>
  </g>
  <g stroke="chocolate" stroke-width="1">
    <line x1="204" y1="232" x2="308" y2="217"/>
    <circle cx="204" cy="232" r="2"/>
    <circle cx="308" cy="217" r="2"/>
  </g>
  <g stroke="chocolate" stroke-width="1">
    <line x1="204" y1="232" x2="308" y2="216"/>
    <circle cx="204" cy="232" r="2"/>
    <circle cx="308" cy="216" r="2"/>
  </g>
  <g stroke="chocolate" stroke-width="1">
    <line x1="204" y1="232" x2="307" y2="216"/>
    <circle cx="204" cy="232" r="2"/>
    <circle cx="307" cy="216" r="2"/>
  </g>
  <g stroke="chocolate" stroke-width="1">
    <line x1="204" y1="232" x2="307" y2="216"/>
    <circle cx="204" cy="232" r="2"/>
    <circle cx="307" cy="216" r="2"/>
  </g>
  <g stroke="chocolate" stroke-width="1">
    <line x1="189" y1="251" x2="331" y2="240"/>
    <circle cx="189" cy="251" r="2"/>
    <circle cx="331" cy="240" r="2"/>
  </g>
  <g stroke="chocolate" stroke-width="1">
    <line x1="321" y1="372" x2="286" y2="364"/>
    <circle cx="321" cy="372" r="2"/>
    <circle cx="286" cy="364" r="2"/>
  </g>
  <g stroke="chocolate" stroke-width="1">
    <line x1="321" y1="366" x2="286" y2="359"/>
    <circle cx="321" cy="366" r="2"/>
    <circle cx="286" cy="359" r="2"/>
  </g>
  <g stroke="chocolate" stroke-width="1">
    <line x1="322" y1="361" x2="287" y2="353"/>
    <circle cx="322" cy="361" r="2"/>
    <circle cx="287" cy="353" r="2"/>
  </g>
  <g stroke="chocolate" stroke-width="1">
    <line x1="323" y1="356" x2="287" y2="348"/>
    <circle cx="323" cy="356" r="2"/>
    <circle cx="287" cy="348" r="2"/>
  </g>
  <g stroke="chocolate" stroke-width="1">
    <line x1="324" y1="351" x2="288" y2="343"/>
    <circle cx="324" cy="351" r="2"/>
    <circle cx="288" cy="343" r="2"/>
  </g>
  <g stroke="chocolate" stroke-width="1">
    <line x1="325" y1="346" x2="194" y2="316"/>
    <circle cx="325" cy="346" r="2"/>
    <circle cx="194" cy="316" r="2"/>
  </g>
  <g stroke="chocolate" stroke-width="1">
    <line x1="221" y1="194" x2="286" y2="194"/>
    <circle cx="221" cy="194" r="2"/>
    <circle cx="286" cy="194" r="2"/>
  </g>
  <g stroke="chocolate" stroke-width="1">
    <line x1="340" y1="249" x2="257" y2="166"/>
    <circle cx="340" cy="249" r="2"/>
    <circle cx="257" cy="166" r="2"/>
  </g>
  <g stroke="black" stroke-width="1">
    <line x1="5" y1="5" x2="505" y2="5"/>
    <line x1="5" y1="5" x2="5" y2="505"/>
    <line x1="505" y1="505" x2="5" y2="505"/>
    <line x1="505" y1="505" x2="505" y2="5"/>
    <line x1="105" y1="2" x2="105" y2="8"/>
    <line x1="2" y1="105" x2="8" y2="105"/>
    <line x1="105" y1="502" x2="105" y2="508"/>
    <line x1="502" y1="105" x2="508" y2="105"/>
    <line x1="205" y1="2" x2="205" y2="8"/>
    <line x1="2" y1="205" x2="8" y2="205"/>
    <line x1="205" y1="502" x2="205" y2="508"/>
    <line x1="502" y1="205" x2="508" y2="205"/>
    <line x1="305" y1="2" x2="305" y2="8"/>
    <line x1="2" y1="305" x2="8" y2="305"/>
    <line x1="305" y1="502" x2="305" y2="508"/>
    <line x1="502" y1="305" x2="508" y2="305"/>
    <line x1="405" y1="2" x2="405" y2="8"/>
    <line x1="2" y1="405" x2="8" y2="405"/>
    <line x1="405" y1="502" x2="405" y2="508"/>
    <line x1="502" y1="405" x2="508" y2="405"/>
  </g>
  <g stroke="gray" stroke-width="1" stroke-dasharray="5,5">
    <line x1="105" y1="5" x2="105" y2="505"/>
    <line x1="5" y1="105" x2="505" y2="105"/>
    <line x1="205" y1="5" x2="205" y2="505"/>
    <line x1="5" y1="205" x2="505" y2="205"/>
    <line x1="305" y1="5" x2="305" y2="505"/>
    <line x1="5" y1="305" x2="505" y2="305"/>
    <line x1="405" y1="5" x2="405" y2="505"/>
    <line x1="5" y1="405" x2="505" y2="405"/>
  </g>
</svg>
