<?xml version="1.0" standalone="no"?>
<!DOCTYPE svg PUBLIC "-//W3C//DTD SVG 1.1//EN" 
  "http://www.w3.org/Graphics/SVG/1.1/DTD/svg11.dtd">
<svg width="510" height="510" version="1.1" id="toplevel"
    xmlns="http://www.w3.org/2000/svg"
    xmlns:xlink="http://www.w3.org/1999/xlink">
  <polygon points="401,504 405,503 403,393 379,393 304,7 273,6 265,23 105,92 235,397"
           fill="bisque"/>
  <g stroke="chocolate" stroke-width="1">
    <line x1="401" y1="504" x2="405" y2="503"/>
    <circle cx="401" cy="504" r="2"/>
    <circle cx="405" cy="503" r="2"/>
  </g>
  <g stroke="chocolate" stroke-width="1">
    <line x1="361" y1="478" x2="393" y2="478"/>
    <circle cx="361" cy="478" r="2"/>
    <circle cx="393" cy="478" r="2"/>
  </g>
  <g stroke="chocolate" stroke-width="1">
    <line x1="397" y1="482" x2="297" y2="431"/>
    <circle cx="397" cy="482" r="2"/>
    <circle cx="297" cy="431" r="2"/>
  </g>
  <g stroke="chocolate" stroke-width="1">
    <line x1="386" y1="494" x2="397" y2="482"/>
    <circle cx="386" cy="494" r="2"/>
    <circle cx="397" cy="482" r="2"/>
  </g>
  <g stroke="chocolate" stroke-width="1">
    <line x1="401" y1="504" x2="235" y2="397"/>
    <circle cx="401" cy="504" r="2"/>
    <circle cx="235" cy="397" r="2"/>
  </g>
  <g stroke="chocolate" stroke-width="1">
    <line x1="235" y1="397" x2="403" y2="393"/>
    <circle cx="235" cy="397" r="2"/>
    <circle cx="403" cy="393" r="2"/>
  </g>
  <g stroke="chocolate" stroke-width="1">
    <line x1="386" y1="494" x2="393" y2="478"/>
    <circle cx="386" cy="494" r="2"/>
    <circle cx="393" cy="478" r="2"/>
  </g>
  <g stroke="chocolate" stroke-width="1">
    <line x1="235" y1="397" x2="105" y2="92"/>
    <circle cx="235" cy="397" r="2"/>
    <circle cx="105" cy="92" r="2"/>
  </g>
  <g stroke="chocolate" stroke-width="1">
    <line x1="265" y1="330" x2="363" y2="307"/>
    <circle cx="265" cy="330" r="2"/>
    <circle cx="363" cy="307" r="2"/>
  </g>
  <g stroke="chocolate" stroke-width="1">
    <line x1="290" y1="318" x2="363" y2="307"/>
    <circle cx="290" cy="318" r="2"/>
    <circle cx="363" cy="307" r="2"/>
  </g>
  <g stroke="chocolate" stroke-width="1">
    <line x1="297" y1="431" x2="363" y2="307"/>
    <circle cx="297" cy="431" r="2"/>
    <circle cx="363" cy="307" r="2"/>
  </g>
  <g stroke="chocolate" stroke-width="1">
    <line x1="297" y1="431" x2="239" y2="251"/>
    <circle cx="297" cy="431" r="2"/>
    <circle cx="239" cy="251" r="2"/>
  </g>
  <g stroke="chocolate" stroke-width="1">
    <line x1="361" y1="478" x2="209" y2="137"/>
    <circle cx="361" cy="478" r="2"/>
    <circle cx="209" cy="137" r="2"/>
  </g>
  <g stroke="chocolate" stroke-width="1">
    <line x1="265" y1="330" x2="360" y2="291"/>
    <circle cx="265" cy="330" r="2"/>
    <circle cx="360" cy="291" r="2"/>
  </g>
  <g stroke="chocolate" stroke-width="1">
    <line x1="405" y1="503" x2="393" y2="478"/>
    <circle cx="405" cy="503" r="2"/>
    <circle cx="393" cy="478" r="2"/>
  </g>
  <g stroke="chocolate" stroke-width="1">
    <line x1="290" y1="318" x2="354" y2="265"/>
    <circle cx="290" cy="318" r="2"/>
    <circle cx="354" cy="265" r="2"/>
  </g>
  <g stroke="chocolate" stroke-width="1">
    <line x1="321" y1="291" x2="360" y2="291"/>
    <circle cx="321" cy="291" r="2"/>
    <circle cx="360" cy="291" r="2"/>
  </g>
  <g stroke="chocolate" stroke-width="1">
    <line x1="321" y1="291" x2="321" y2="271"/>
    <circle cx="321" cy="291" r="2"/>
    <circle cx="321" cy="271" r="2"/>
  </g>
  <g stroke="chocolate" stroke-width="1">
    <line x1="405" y1="503" x2="403" y2="393"/>
    <circle cx="405" cy="503" r="2"/>
    <circle cx="403" cy="393" r="2"/>
  </g>
  <g stroke="chocolate" stroke-width="1">
    <line x1="401" y1="504" x2="304" y2="7"/>
    <circle cx="401" cy="504" r="2"/>
    <circle cx="304" cy="7" r="2"/>
  </g>
  <g stroke="chocolate" stroke-width="1">
    <line x1="363" y1="307" x2="321" y2="271"/>
    <circle cx="363" cy="307" r="2"/>
    <circle cx="321" cy="271" r="2"/>
  </g>
  <g stroke="chocolate" stroke-width="1">
    <line x1="321" y1="271" x2="353" y2="257"/>
    <circle cx="321" cy="271" r="2"/>
    <circle cx="353" cy="257" r="2"/>
  </g>
  <g stroke="chocolate" stroke-width="1">
    <line x1="258" y1="236" x2="313" y2="56"/>
    <circle cx="258" cy="236" r="2"/>
    <circle cx="313" cy="56" r="2"/>
  </g>
  <g stroke="chocolate" stroke-width="1">
    <line x1="354" y1="265" x2="258" y2="236"/>
    <circle cx="354" cy="265" r="2"/>
    <circle cx="258" cy="236" r="2"/>
  </g>
  <g stroke="chocolate" stroke-width="1">
    <line x1="353" y1="257" x2="239" y2="251"/>
    <circle cx="353" cy="257" r="2"/>
    <circle cx="239" cy="251" r="2"/>
  </g>
  <g stroke="chocolate" stroke-width="1">
    <line x1="239" y1="251" x2="337" y2="174"/>
    <circle cx="239" cy="251" r="2"/>
    <circle cx="337" cy="174" r="2"/>
  </g>
  <g stroke="chocolate" stroke-width="1">
    <line x1="209" y1="137" x2="273" y2="6"/>
    <circle cx="209" cy="137" r="2"/>
    <circle cx="273" cy="6" r="2"/>
  </g>
  <g stroke="chocolate" stroke-width="1">
    <line x1="313" y1="56" x2="273" y2="6"/>
    <circle cx="313" cy="56" r="2"/>
    <circle cx="273" cy="6" r="2"/>
  </g>
  <g stroke="chocolate" stroke-width="1">
    <line x1="337" y1="174" x2="209" y2="137"/>
    <circle cx="337" cy="174" r="2"/>
    <circle cx="209" cy="137" r="2"/>
  </g>
  <g stroke="chocolate" stroke-width="1">
    <line x1="105" y1="92" x2="304" y2="7"/>
    <circle cx="105" cy="92" r="2"/>
    <circle cx="304" cy="7" r="2"/>
  </g>
  <g stroke="chocolate" stroke-width="1">
    <line x1="304" y1="7" x2="273" y2="6"/>
    <circle cx="304" cy="7" r="2"/>
    <circle cx="273" cy="6" r="2"/>
  </g>
  <g stroke="black" stroke-width="1">
    <line x1="5" y1="5" x2="505" y2="5"/>
    <line x1="5" y1="5" x2="5" y2="505"/>
    <line x1="505" y1="505" x2="5" y2="505"/>
    <line x1="505" y1="505" x2="505" y2="5"/>
    <line x1="105" y1="2" x2="105" y2="8"/>
    <line x1="2" y1="105" x2="8" y2="105"/>
    <line x1="105" y1="502" x2="105" y2="508"/>
    <line x1="502" y1="105" x2="508" y2="105"/>
    <line x1="205" y1="2" x2="205" y2="8"/>
    <line x1="2" y1="205" x2="8" y2="205"/>
    <line x1="205" y1="502" x2="205" y2="508"/>
    <line x1="502" y1="205" x2="508" y2="205"/>
    <line x1="305" y1="2" x2="305" y2="8"/>
    <line x1="2" y1="305" x2="8" y2="305"/>
    <line x1="305" y1="502" x2="305" y2="508"/>
    <line x1="502" y1="305" x2="508" y2="305"/>
    <line x1="405" y1="2" x2="405" y2="8"/>
    <line x1="2" y1="405" x2="8" y2="405"/>
    <line x1="405" y1="502" x2="405" y2="508"/>
    <line x1="502" y1="405" x2="508" y2="405"/>
  </g>
  <g stroke="gray" stroke-width="1" stroke-dasharray="5,5">
    <line x1="105" y1="5" x2="105" y2="505"/>
    <line x1="5" y1="105" x2="505" y2="105"/>
    <line x1="205" y1="5" x2="205" y2="505"/>
    <line x1="5" y1="205" x2="505" y2="205"/>
    <line x1="305" y1="5" x2="305" y2="505"/>
    <line x1="5" y1="305" x2="505" y2="305"/>
    <line x1="405" y1="5" x2="405" y2="505"/>
    <line x1="5" y1="405" x2="505" y2="405"/>
  </g>
</svg>
