<?xml version="1.0" standalone="no"?>
<!DOCTYPE svg PUBLIC "-//W3C//DTD SVG 1.1//EN" 
  "http://www.w3.org/Graphics/SVG/1.1/DTD/svg11.dtd">
<svg width="510" height="510" version="1.1" id="toplevel"
    xmlns="http://www.w3.org/2000/svg"
    xmlns:xlink="http://www.w3.org/1999/xlink">
  <polygon points="399,476 503,345 405,267 406,226 350,224 263,155 249,101 209,112 111,34 7,165 151,386"
           fill="bisque"/>
  <g stroke="chocolate" stroke-width="1">
    <line x1="399" y1="476" x2="151" y2="386"/>
    <circle cx="399" cy="476" r="2"/>
    <circle cx="151" cy="386" r="2"/>
  </g>
  <g stroke="chocolate" stroke-width="1">
    <line x1="406" y1="226" x2="211" y2="220"/>
    <circle cx="406" cy="226" r="2"/>
    <circle cx="211" cy="220" r="2"/>
  </g>
  <g stroke="chocolate" stroke-width="1">
    <line x1="7" y1="165" x2="249" y2="101"/>
    <circle cx="7" cy="165" r="2"/>
    <circle cx="249" cy="101" r="2"/>
  </g>
  <g stroke="chocolate" stroke-width="1">
    <line x1="151" y1="386" x2="299" y2="290"/>
    <circle cx="151" cy="386" r="2"/>
    <circle cx="299" cy="290" r="2"/>
  </g>
  <g stroke="chocolate" stroke-width="1">
    <line x1="451" y1="410" x2="59" y2="100"/>
    <circle cx="451" cy="410" r="2"/>
    <circle cx="59" cy="100" r="2"/>
  </g>
  <g stroke="chocolate" stroke-width="1">
    <line x1="503" y1="345" x2="111" y2="34"/>
    <circle cx="503" cy="345" r="2"/>
    <circle cx="111" cy="34" r="2"/>
  </g>
  <g stroke="chocolate" stroke-width="1">
    <line x1="399" y1="476" x2="503" y2="345"/>
    <circle cx="399" cy="476" r="2"/>
    <circle cx="503" cy="345" r="2"/>
  </g>
  <g stroke="chocolate" stroke-width="1">
    <line x1="151" y1="386" x2="7" y2="165"/>
    <circle cx="151" cy="386" r="2"/>
    <circle cx="7" cy="165" r="2"/>
  </g>
  <g stroke="chocolate" stroke-width="1">
    <line x1="7" y1="165" x2="111" y2="34"/>
    <circle cx="7" cy="165" r="2"/>
    <circle cx="111" cy="34" r="2"/>
  </g>
  <g stroke="chocolate" stroke-width="1">
    <line x1="299" y1="290" x2="249" y2="101"/>
    <circle cx="299" cy="290" r="2"/>
    <circle cx="249" cy="101" r="2"/>
  </g>
  <g stroke="chocolate" stroke-width="1">
    <line x1="151" y1="386" x2="211" y2="220"/>
    <circle cx="151" cy="386" r="2"/>
    <circle cx="211" cy="220" r="2"/>
  </g>
  <g stroke="chocolate" stroke-width="1">
    <line x1="399" y1="476" x2="406" y2="226"/>
    <circle cx="399" cy="476" r="2"/>
    <circle cx="406" cy="226" r="2"/>
  </g>
  <g stroke="black" stroke-width="1">
    <line x1="5" y1="5" x2="505" y2="5"/>
    <line x1="5" y1="5" x2="5" y2="505"/>
    <line x1="505" y1="505" x2="5" y2="505"/>
    <line x1="505" y1="505" x2="505" y2="5"/>
    <line x1="105" y1="2" x2="105" y2="8"/>
    <line x1="2" y1="105" x2="8" y2="105"/>
    <line x1="105" y1="502" x2="105" y2="508"/>
    <line x1="502" y1="105" x2="508" y2="105"/>
    <line x1="205" y1="2" x2="205" y2="8"/>
    <line x1="2" y1="205" x2="8" y2="205"/>
    <line x1="205" y1="502" x2="205" y2="508"/>
    <line x1="502" y1="205" x2="508" y2="205"/>
    <line x1="305" y1="2" x2="305" y2="8"/>
    <line x1="2" y1="305" x2="8" y2="305"/>
    <line x1="305" y1="502" x2="305" y2="508"/>
    <line x1="502" y1="305" x2="508" y2="305"/>
    <line x1="405" y1="2" x2="405" y2="8"/>
    <line x1="2" y1="405" x2="8" y2="405"/>
    <line x1="405" y1="502" x2="405" y2="508"/>
    <line x1="502" y1="405" x2="508" y2="405"/>
  </g>
  <g stroke="gray" stroke-width="1" stroke-dasharray="5,5">
    <line x1="105" y1="5" x2="105" y2="505"/>
    <line x1="5" y1="105" x2="505" y2="105"/>
    <line x1="205" y1="5" x2="205" y2="505"/>
    <line x1="5" y1="205" x2="505" y2="205"/>
    <line x1="305" y1="5" x2="305" y2="505"/>
    <line x1="5" y1="305" x2="505" y2="305"/>
    <line x1="405" y1="5" x2="405" y2="505"/>
    <line x1="5" y1="405" x2="505" y2="405"/>
  </g>
</svg>
