<?xml version="1.0" standalone="no"?>
<!DOCTYPE svg PUBLIC "-//W3C//DTD SVG 1.1//EN" 
  "http://www.w3.org/Graphics/SVG/1.1/DTD/svg11.dtd">
<svg width="510" height="510" version="1.1" id="toplevel"
    xmlns="http://www.w3.org/2000/svg"
    xmlns:xlink="http://www.w3.org/1999/xlink">
  <polygon points="205,505 440,420 487,175 323,144 230,5 23,145 38,395 163,387"
           fill="bisque"/>
  <g stroke="chocolate" stroke-width="1">
    <line x1="38" y1="395" x2="232" y2="383"/>
    <circle cx="38" cy="395" r="2"/>
    <circle cx="232" cy="383" r="2"/>
  </g>
  <g stroke="chocolate" stroke-width="1">
    <line x1="205" y1="505" x2="440" y2="420"/>
    <circle cx="205" cy="505" r="2"/>
    <circle cx="440" cy="420" r="2"/>
  </g>
  <g stroke="chocolate" stroke-width="1">
    <line x1="440" y1="420" x2="204" y2="324"/>
    <circle cx="440" cy="420" r="2"/>
    <circle cx="204" cy="324" r="2"/>
  </g>
  <g stroke="chocolate" stroke-width="1">
    <line x1="277" y1="213" x2="23" y2="145"/>
    <circle cx="277" cy="213" r="2"/>
    <circle cx="23" cy="145" r="2"/>
  </g>
  <g stroke="chocolate" stroke-width="1">
    <line x1="232" y1="383" x2="139" y2="322"/>
    <circle cx="232" cy="383" r="2"/>
    <circle cx="139" cy="322" r="2"/>
  </g>
  <g stroke="chocolate" stroke-width="1">
    <line x1="487" y1="175" x2="281" y2="135"/>
    <circle cx="487" cy="175" r="2"/>
    <circle cx="281" cy="135" r="2"/>
  </g>
  <g stroke="chocolate" stroke-width="1">
    <line x1="348" y1="179" x2="281" y2="135"/>
    <circle cx="348" cy="179" r="2"/>
    <circle cx="281" cy="135" r="2"/>
  </g>
  <g stroke="chocolate" stroke-width="1">
    <line x1="204" y1="324" x2="23" y2="145"/>
    <circle cx="204" cy="324" r="2"/>
    <circle cx="23" cy="145" r="2"/>
  </g>
  <g stroke="chocolate" stroke-width="1">
    <line x1="139" y1="322" x2="277" y2="213"/>
    <circle cx="139" cy="322" r="2"/>
    <circle cx="277" cy="213" r="2"/>
  </g>
  <g stroke="chocolate" stroke-width="1">
    <line x1="204" y1="324" x2="348" y2="179"/>
    <circle cx="204" cy="324" r="2"/>
    <circle cx="348" cy="179" r="2"/>
  </g>
  <g stroke="chocolate" stroke-width="1">
    <line x1="440" y1="420" x2="277" y2="213"/>
    <circle cx="440" cy="420" r="2"/>
    <circle cx="277" cy="213" r="2"/>
  </g>
  <g stroke="chocolate" stroke-width="1">
    <line x1="23" y1="145" x2="230" y2="5"/>
    <circle cx="23" cy="145" r="2"/>
    <circle cx="230" cy="5" r="2"/>
  </g>
  <g stroke="chocolate" stroke-width="1">
    <line x1="348" y1="179" x2="230" y2="5"/>
    <circle cx="348" cy="179" r="2"/>
    <circle cx="230" cy="5" r="2"/>
  </g>
  <g stroke="chocolate" stroke-width="1">
    <line x1="205" y1="505" x2="139" y2="322"/>
    <circle cx="205" cy="505" r="2"/>
    <circle cx="139" cy="322" r="2"/>
  </g>
  <g stroke="chocolate" stroke-width="1">
    <line x1="204" y1="324" x2="281" y2="135"/>
    <circle cx="204" cy="324" r="2"/>
    <circle cx="281" cy="135" r="2"/>
  </g>
  <g stroke="chocolate" stroke-width="1">
    <line x1="440" y1="420" x2="487" y2="175"/>
    <circle cx="440" cy="420" r="2"/>
    <circle cx="487" cy="175" r="2"/>
  </g>
  <g stroke="chocolate" stroke-width="1">
    <line x1="232" y1="383" x2="277" y2="213"/>
    <circle cx="232" cy="383" r="2"/>
    <circle cx="277" cy="213" r="2"/>
  </g>
  <g stroke="chocolate" stroke-width="1">
    <line x1="38" y1="395" x2="23" y2="145"/>
    <circle cx="38" cy="395" r="2"/>
    <circle cx="23" cy="145" r="2"/>
  </g>
  <g stroke="black" stroke-width="1">
    <line x1="5" y1="5" x2="505" y2="5"/>
    <line x1="5" y1="5" x2="5" y2="505"/>
    <line x1="505" y1="505" x2="5" y2="505"/>
    <line x1="505" y1="505" x2="505" y2="5"/>
    <line x1="105" y1="2" x2="105" y2="8"/>
    <line x1="2" y1="105" x2="8" y2="105"/>
    <line x1="105" y1="502" x2="105" y2="508"/>
    <line x1="502" y1="105" x2="508" y2="105"/>
    <line x1="205" y1="2" x2="205" y2="8"/>
    <line x1="2" y1="205" x2="8" y2="205"/>
    <line x1="205" y1="502" x2="205" y2="508"/>
    <line x1="502" y1="205" x2="508" y2="205"/>
    <line x1="305" y1="2" x2="305" y2="8"/>
    <line x1="2" y1="305" x2="8" y2="305"/>
    <line x1="305" y1="502" x2="305" y2="508"/>
    <line x1="502" y1="305" x2="508" y2="305"/>
    <line x1="405" y1="2" x2="405" y2="8"/>
    <line x1="2" y1="405" x2="8" y2="405"/>
    <line x1="405" y1="502" x2="405" y2="508"/>
    <line x1="502" y1="405" x2="508" y2="405"/>
  </g>
  <g stroke="gray" stroke-width="1" stroke-dasharray="5,5">
    <line x1="105" y1="5" x2="105" y2="505"/>
    <line x1="5" y1="105" x2="505" y2="105"/>
    <line x1="205" y1="5" x2="205" y2="505"/>
    <line x1="5" y1="205" x2="505" y2="205"/>
    <line x1="305" y1="5" x2="305" y2="505"/>
    <line x1="5" y1="305" x2="505" y2="305"/>
    <line x1="405" y1="5" x2="405" y2="505"/>
    <line x1="5" y1="405" x2="505" y2="405"/>
  </g>
</svg>
