<?xml version="1.0" standalone="no"?>
<!DOCTYPE svg PUBLIC "-//W3C//DTD SVG 1.1//EN" 
  "http://www.w3.org/Graphics/SVG/1.1/DTD/svg11.dtd">
<svg width="510" height="510" version="1.1" id="toplevel"
    xmlns="http://www.w3.org/2000/svg"
    xmlns:xlink="http://www.w3.org/1999/xlink">
  <polygon points="306,399 331,382 435,367 446,300 451,297 467,172 48,111 43,131 47,132 46,168 197,245"
           fill="bisque"/>
  <g stroke="chocolate" stroke-width="1">
    <line x1="321" y1="383" x2="435" y2="367"/>
    <circle cx="321" cy="383" r="2"/>
    <circle cx="435" cy="367" r="2"/>
  </g>
  <g stroke="chocolate" stroke-width="1">
    <line x1="306" y1="399" x2="108" y2="120"/>
    <circle cx="306" cy="399" r="2"/>
    <circle cx="108" cy="120" r="2"/>
  </g>
  <g stroke="chocolate" stroke-width="1">
    <line x1="435" y1="367" x2="46" y2="168"/>
    <circle cx="435" cy="367" r="2"/>
    <circle cx="46" cy="168" r="2"/>
  </g>
  <g stroke="chocolate" stroke-width="1">
    <line x1="321" y1="383" x2="218" y2="225"/>
    <circle cx="321" cy="383" r="2"/>
    <circle cx="218" cy="225" r="2"/>
  </g>
  <g stroke="chocolate" stroke-width="1">
    <line x1="306" y1="399" x2="451" y2="297"/>
    <circle cx="306" cy="399" r="2"/>
    <circle cx="451" cy="297" r="2"/>
  </g>
  <g stroke="chocolate" stroke-width="1">
    <line x1="435" y1="367" x2="467" y2="172"/>
    <circle cx="435" cy="367" r="2"/>
    <circle cx="467" cy="172" r="2"/>
  </g>
  <g stroke="chocolate" stroke-width="1">
    <line x1="451" y1="297" x2="467" y2="172"/>
    <circle cx="451" cy="297" r="2"/>
    <circle cx="467" cy="172" r="2"/>
  </g>
  <g stroke="chocolate" stroke-width="1">
    <line x1="388" y1="239" x2="459" y2="239"/>
    <circle cx="388" cy="239" r="2"/>
    <circle cx="459" cy="239" r="2"/>
  </g>
  <g stroke="chocolate" stroke-width="1">
    <line x1="388" y1="239" x2="388" y2="161"/>
    <circle cx="388" cy="239" r="2"/>
    <circle cx="388" cy="161" r="2"/>
  </g>
  <g stroke="chocolate" stroke-width="1">
    <line x1="321" y1="383" x2="388" y2="161"/>
    <circle cx="321" cy="383" r="2"/>
    <circle cx="388" cy="161" r="2"/>
  </g>
  <g stroke="chocolate" stroke-width="1">
    <line x1="451" y1="297" x2="329" y2="152"/>
    <circle cx="451" cy="297" r="2"/>
    <circle cx="329" cy="152" r="2"/>
  </g>
  <g stroke="chocolate" stroke-width="1">
    <line x1="46" y1="168" x2="48" y2="111"/>
    <circle cx="46" cy="168" r="2"/>
    <circle cx="48" cy="111" r="2"/>
  </g>
  <g stroke="chocolate" stroke-width="1">
    <line x1="459" y1="239" x2="43" y2="131"/>
    <circle cx="459" cy="239" r="2"/>
    <circle cx="43" cy="131" r="2"/>
  </g>
  <g stroke="chocolate" stroke-width="1">
    <line x1="467" y1="172" x2="48" y2="111"/>
    <circle cx="467" cy="172" r="2"/>
    <circle cx="48" cy="111" r="2"/>
  </g>
  <g stroke="chocolate" stroke-width="1">
    <line x1="218" y1="225" x2="329" y2="152"/>
    <circle cx="218" cy="225" r="2"/>
    <circle cx="329" cy="152" r="2"/>
  </g>
  <g stroke="chocolate" stroke-width="1">
    <line x1="43" y1="131" x2="48" y2="111"/>
    <circle cx="43" cy="131" r="2"/>
    <circle cx="48" cy="111" r="2"/>
  </g>
  <g stroke="chocolate" stroke-width="1">
    <line x1="46" y1="168" x2="108" y2="120"/>
    <circle cx="46" cy="168" r="2"/>
    <circle cx="108" cy="120" r="2"/>
  </g>
  <g stroke="black" stroke-width="1">
    <line x1="5" y1="5" x2="505" y2="5"/>
    <line x1="5" y1="5" x2="5" y2="505"/>
    <line x1="505" y1="505" x2="5" y2="505"/>
    <line x1="505" y1="505" x2="505" y2="5"/>
    <line x1="105" y1="2" x2="105" y2="8"/>
    <line x1="2" y1="105" x2="8" y2="105"/>
    <line x1="105" y1="502" x2="105" y2="508"/>
    <line x1="502" y1="105" x2="508" y2="105"/>
    <line x1="205" y1="2" x2="205" y2="8"/>
    <line x1="2" y1="205" x2="8" y2="205"/>
    <line x1="205" y1="502" x2="205" y2="508"/>
    <line x1="502" y1="205" x2="508" y2="205"/>
    <line x1="305" y1="2" x2="305" y2="8"/>
    <line x1="2" y1="305" x2="8" y2="305"/>
    <line x1="305" y1="502" x2="305" y2="508"/>
    <line x1="502" y1="305" x2="508" y2="305"/>
    <line x1="405" y1="2" x2="405" y2="8"/>
    <line x1="2" y1="405" x2="8" y2="405"/>
    <line x1="405" y1="502" x2="405" y2="508"/>
    <line x1="502" y1="405" x2="508" y2="405"/>
  </g>
  <g stroke="gray" stroke-width="1" stroke-dasharray="5,5">
    <line x1="105" y1="5" x2="105" y2="505"/>
    <line x1="5" y1="105" x2="505" y2="105"/>
    <line x1="205" y1="5" x2="205" y2="505"/>
    <line x1="5" y1="205" x2="505" y2="205"/>
    <line x1="305" y1="5" x2="305" y2="505"/>
    <line x1="5" y1="305" x2="505" y2="305"/>
    <line x1="405" y1="5" x2="405" y2="505"/>
    <line x1="5" y1="405" x2="505" y2="405"/>
  </g>
</svg>
