<?xml version="1.0" standalone="no"?>
<!DOCTYPE svg PUBLIC "-//W3C//DTD SVG 1.1//EN" 
  "http://www.w3.org/Graphics/SVG/1.1/DTD/svg11.dtd">
<svg width="518" height="518" version="1.1" id="toplevel"
    xmlns="http://www.w3.org/2000/svg"
    xmlns:xlink="http://www.w3.org/1999/xlink">
  <polygon points="50,513 50,512 72,512 493,46 484,5 290,24 170,12 95,12 92,45 25,51 57,369 42,512"
           fill="bisque"/>
  <g stroke="chocolate" stroke-width="1">
    <line x1="72" y1="512" x2="42" y2="512"/>
    <circle cx="72" cy="512" r="2"/>
    <circle cx="42" cy="512" r="2"/>
  </g>
  <g stroke="chocolate" stroke-width="1">
    <line x1="72" y1="512" x2="493" y2="46"/>
    <circle cx="72" cy="512" r="2"/>
    <circle cx="493" cy="46" r="2"/>
  </g>
  <g stroke="chocolate" stroke-width="1">
    <line x1="50" y1="513" x2="42" y2="512"/>
    <circle cx="50" cy="513" r="2"/>
    <circle cx="42" cy="512" r="2"/>
  </g>
  <g stroke="chocolate" stroke-width="1">
    <line x1="448" y1="17" x2="484" y2="5"/>
    <circle cx="448" cy="17" r="2"/>
    <circle cx="484" cy="5" r="2"/>
  </g>
  <g stroke="chocolate" stroke-width="1">
    <line x1="50" y1="513" x2="155" y2="24"/>
    <circle cx="50" cy="513" r="2"/>
    <circle cx="155" cy="24" r="2"/>
  </g>
  <g stroke="chocolate" stroke-width="1">
    <line x1="25" y1="51" x2="484" y2="5"/>
    <circle cx="25" cy="51" r="2"/>
    <circle cx="484" cy="5" r="2"/>
  </g>
  <g stroke="chocolate" stroke-width="1">
    <line x1="42" y1="512" x2="95" y2="12"/>
    <circle cx="42" cy="512" r="2"/>
    <circle cx="95" cy="12" r="2"/>
  </g>
  <g stroke="chocolate" stroke-width="1">
    <line x1="170" y1="12" x2="95" y2="12"/>
    <circle cx="170" cy="12" r="2"/>
    <circle cx="95" cy="12" r="2"/>
  </g>
  <g stroke="chocolate" stroke-width="1">
    <line x1="72" y1="512" x2="25" y2="51"/>
    <circle cx="72" cy="512" r="2"/>
    <circle cx="25" cy="51" r="2"/>
  </g>
  <g stroke="chocolate" stroke-width="1">
    <line x1="493" y1="46" x2="170" y2="12"/>
    <circle cx="493" cy="46" r="2"/>
    <circle cx="170" cy="12" r="2"/>
  </g>
  <g stroke="chocolate" stroke-width="1">
    <line x1="155" y1="24" x2="95" y2="12"/>
    <circle cx="155" cy="24" r="2"/>
    <circle cx="95" cy="12" r="2"/>
  </g>
  <g stroke="chocolate" stroke-width="1">
    <line x1="466" y1="75" x2="170" y2="12"/>
    <circle cx="466" cy="75" r="2"/>
    <circle cx="170" cy="12" r="2"/>
  </g>
  <g stroke="chocolate" stroke-width="1">
    <line x1="493" y1="46" x2="484" y2="5"/>
    <circle cx="493" cy="46" r="2"/>
    <circle cx="484" cy="5" r="2"/>
  </g>
  <g stroke="chocolate" stroke-width="1">
    <line x1="466" y1="75" x2="448" y2="17"/>
    <circle cx="466" cy="75" r="2"/>
    <circle cx="448" cy="17" r="2"/>
  </g>
  <g stroke="black" stroke-width="1">
    <line x1="9" y1="9" x2="509" y2="9"/>
    <line x1="9" y1="9" x2="9" y2="509"/>
    <line x1="509" y1="509" x2="9" y2="509"/>
    <line x1="509" y1="509" x2="509" y2="9"/>
    <line x1="109" y1="6" x2="109" y2="12"/>
    <line x1="6" y1="109" x2="12" y2="109"/>
    <line x1="109" y1="506" x2="109" y2="512"/>
    <line x1="506" y1="109" x2="512" y2="109"/>
    <line x1="209" y1="6" x2="209" y2="12"/>
    <line x1="6" y1="209" x2="12" y2="209"/>
    <line x1="209" y1="506" x2="209" y2="512"/>
    <line x1="506" y1="209" x2="512" y2="209"/>
    <line x1="309" y1="6" x2="309" y2="12"/>
    <line x1="6" y1="309" x2="12" y2="309"/>
    <line x1="309" y1="506" x2="309" y2="512"/>
    <line x1="506" y1="309" x2="512" y2="309"/>
    <line x1="409" y1="6" x2="409" y2="12"/>
    <line x1="6" y1="409" x2="12" y2="409"/>
    <line x1="409" y1="506" x2="409" y2="512"/>
    <line x1="506" y1="409" x2="512" y2="409"/>
  </g>
  <g stroke="gray" stroke-width="1" stroke-dasharray="5,5">
    <line x1="109" y1="9" x2="109" y2="509"/>
    <line x1="9" y1="109" x2="509" y2="109"/>
    <line x1="209" y1="9" x2="209" y2="509"/>
    <line x1="9" y1="209" x2="509" y2="209"/>
    <line x1="309" y1="9" x2="309" y2="509"/>
    <line x1="9" y1="309" x2="509" y2="309"/>
    <line x1="409" y1="9" x2="409" y2="509"/>
    <line x1="9" y1="409" x2="509" y2="409"/>
  </g>
</svg>
