<?xml version="1.0" standalone="no"?>
<!DOCTYPE svg PUBLIC "-//W3C//DTD SVG 1.1//EN" 
  "http://www.w3.org/Graphics/SVG/1.1/DTD/svg11.dtd">
<svg width="510" height="510" version="1.1" id="toplevel"
    xmlns="http://www.w3.org/2000/svg"
    xmlns:xlink="http://www.w3.org/1999/xlink">
  <polygon points="298,456 403,355 376,320 440,96 390,81 335,124 344,70 246,54 173,193 76,226 57,405 89,408 182,335"
           fill="bisque"/>
  <g stroke="chocolate" stroke-width="1">
    <line x1="298" y1="456" x2="403" y2="355"/>
    <circle cx="298" cy="456" r="2"/>
    <circle cx="403" cy="355" r="2"/>
  </g>
  <g stroke="chocolate" stroke-width="1">
    <line x1="358" y1="384" x2="358" y2="384"/>
    <circle cx="358" cy="384" r="2"/>
    <circle cx="358" cy="384" r="2"/>
  </g>
  <g stroke="chocolate" stroke-width="1">
    <line x1="358" y1="384" x2="403" y2="355"/>
    <circle cx="358" cy="384" r="2"/>
    <circle cx="403" cy="355" r="2"/>
  </g>
  <g stroke="chocolate" stroke-width="1">
    <line x1="358" y1="384" x2="440" y2="96"/>
    <circle cx="358" cy="384" r="2"/>
    <circle cx="440" cy="96" r="2"/>
  </g>
  <g stroke="chocolate" stroke-width="1">
    <line x1="358" y1="384" x2="358" y2="384"/>
    <circle cx="358" cy="384" r="2"/>
    <circle cx="358" cy="384" r="2"/>
  </g>
  <g stroke="chocolate" stroke-width="1">
    <line x1="242" y1="274" x2="259" y2="238"/>
    <circle cx="242" cy="274" r="2"/>
    <circle cx="259" cy="238" r="2"/>
  </g>
  <g stroke="chocolate" stroke-width="1">
    <line x1="245" y1="277" x2="259" y2="238"/>
    <circle cx="245" cy="277" r="2"/>
    <circle cx="259" cy="238" r="2"/>
  </g>
  <g stroke="chocolate" stroke-width="1">
    <line x1="332" y1="148" x2="344" y2="70"/>
    <circle cx="332" cy="148" r="2"/>
    <circle cx="344" cy="70" r="2"/>
  </g>
  <g stroke="chocolate" stroke-width="1">
    <line x1="89" y1="408" x2="297" y2="244"/>
    <circle cx="89" cy="408" r="2"/>
    <circle cx="297" cy="244" r="2"/>
  </g>
  <g stroke="chocolate" stroke-width="1">
    <line x1="199" y1="233" x2="214" y2="212"/>
    <circle cx="199" cy="233" r="2"/>
    <circle cx="214" cy="212" r="2"/>
  </g>
  <g stroke="chocolate" stroke-width="1">
    <line x1="98" y1="336" x2="246" y2="54"/>
    <circle cx="98" cy="336" r="2"/>
    <circle cx="246" cy="54" r="2"/>
  </g>
  <g stroke="chocolate" stroke-width="1">
    <line x1="89" y1="408" x2="98" y2="336"/>
    <circle cx="89" cy="408" r="2"/>
    <circle cx="98" cy="336" r="2"/>
  </g>
  <g stroke="chocolate" stroke-width="1">
    <line x1="57" y1="405" x2="76" y2="226"/>
    <circle cx="57" cy="405" r="2"/>
    <circle cx="76" cy="226" r="2"/>
  </g>
  <g stroke="chocolate" stroke-width="1">
    <line x1="196" y1="230" x2="254" y2="165"/>
    <circle cx="196" cy="230" r="2"/>
    <circle cx="254" cy="165" r="2"/>
  </g>
  <g stroke="chocolate" stroke-width="1">
    <line x1="196" y1="230" x2="214" y2="212"/>
    <circle cx="196" cy="230" r="2"/>
    <circle cx="214" cy="212" r="2"/>
  </g>
  <g stroke="chocolate" stroke-width="1">
    <line x1="98" y1="336" x2="321" y2="136"/>
    <circle cx="98" cy="336" r="2"/>
    <circle cx="321" cy="136" r="2"/>
  </g>
  <g stroke="chocolate" stroke-width="1">
    <line x1="242" y1="274" x2="297" y2="244"/>
    <circle cx="242" cy="274" r="2"/>
    <circle cx="297" cy="244" r="2"/>
  </g>
  <g stroke="chocolate" stroke-width="1">
    <line x1="397" y1="211" x2="390" y2="81"/>
    <circle cx="397" cy="211" r="2"/>
    <circle cx="390" cy="81" r="2"/>
  </g>
  <g stroke="chocolate" stroke-width="1">
    <line x1="199" y1="233" x2="390" y2="81"/>
    <circle cx="199" cy="233" r="2"/>
    <circle cx="390" cy="81" r="2"/>
  </g>
  <g stroke="chocolate" stroke-width="1">
    <line x1="89" y1="408" x2="57" y2="405"/>
    <circle cx="89" cy="408" r="2"/>
    <circle cx="57" cy="405" r="2"/>
  </g>
  <g stroke="chocolate" stroke-width="1">
    <line x1="245" y1="277" x2="397" y2="211"/>
    <circle cx="245" cy="277" r="2"/>
    <circle cx="397" cy="211" r="2"/>
  </g>
  <g stroke="chocolate" stroke-width="1">
    <line x1="180" y1="216" x2="173" y2="193"/>
    <circle cx="180" cy="216" r="2"/>
    <circle cx="173" cy="193" r="2"/>
  </g>
  <g stroke="chocolate" stroke-width="1">
    <line x1="298" y1="456" x2="76" y2="226"/>
    <circle cx="298" cy="456" r="2"/>
    <circle cx="76" cy="226" r="2"/>
  </g>
  <g stroke="chocolate" stroke-width="1">
    <line x1="76" y1="226" x2="254" y2="165"/>
    <circle cx="76" cy="226" r="2"/>
    <circle cx="254" cy="165" r="2"/>
  </g>
  <g stroke="chocolate" stroke-width="1">
    <line x1="297" y1="244" x2="254" y2="165"/>
    <circle cx="297" cy="244" r="2"/>
    <circle cx="254" cy="165" r="2"/>
  </g>
  <g stroke="chocolate" stroke-width="1">
    <line x1="173" y1="193" x2="332" y2="148"/>
    <circle cx="173" cy="193" r="2"/>
    <circle cx="332" cy="148" r="2"/>
  </g>
  <g stroke="chocolate" stroke-width="1">
    <line x1="358" y1="384" x2="214" y2="212"/>
    <circle cx="358" cy="384" r="2"/>
    <circle cx="214" cy="212" r="2"/>
  </g>
  <g stroke="chocolate" stroke-width="1">
    <line x1="358" y1="384" x2="180" y2="216"/>
    <circle cx="358" cy="384" r="2"/>
    <circle cx="180" cy="216" r="2"/>
  </g>
  <g stroke="chocolate" stroke-width="1">
    <line x1="297" y1="244" x2="206" y2="129"/>
    <circle cx="297" cy="244" r="2"/>
    <circle cx="206" cy="129" r="2"/>
  </g>
  <g stroke="chocolate" stroke-width="1">
    <line x1="403" y1="355" x2="254" y2="165"/>
    <circle cx="403" cy="355" r="2"/>
    <circle cx="254" cy="165" r="2"/>
  </g>
  <g stroke="chocolate" stroke-width="1">
    <line x1="259" y1="238" x2="180" y2="216"/>
    <circle cx="259" cy="238" r="2"/>
    <circle cx="180" cy="216" r="2"/>
  </g>
  <g stroke="chocolate" stroke-width="1">
    <line x1="259" y1="238" x2="214" y2="212"/>
    <circle cx="259" cy="238" r="2"/>
    <circle cx="214" cy="212" r="2"/>
  </g>
  <g stroke="chocolate" stroke-width="1">
    <line x1="332" y1="148" x2="321" y2="136"/>
    <circle cx="332" cy="148" r="2"/>
    <circle cx="321" cy="136" r="2"/>
  </g>
  <g stroke="chocolate" stroke-width="1">
    <line x1="397" y1="211" x2="246" y2="54"/>
    <circle cx="397" cy="211" r="2"/>
    <circle cx="246" cy="54" r="2"/>
  </g>
  <g stroke="chocolate" stroke-width="1">
    <line x1="321" y1="136" x2="206" y2="129"/>
    <circle cx="321" cy="136" r="2"/>
    <circle cx="206" cy="129" r="2"/>
  </g>
  <g stroke="chocolate" stroke-width="1">
    <line x1="344" y1="70" x2="246" y2="54"/>
    <circle cx="344" cy="70" r="2"/>
    <circle cx="246" cy="54" r="2"/>
  </g>
  <g stroke="chocolate" stroke-width="1">
    <line x1="440" y1="96" x2="390" y2="81"/>
    <circle cx="440" cy="96" r="2"/>
    <circle cx="390" cy="81" r="2"/>
  </g>
  <g stroke="black" stroke-width="1">
    <line x1="5" y1="5" x2="505" y2="5"/>
    <line x1="5" y1="5" x2="5" y2="505"/>
    <line x1="505" y1="505" x2="5" y2="505"/>
    <line x1="505" y1="505" x2="505" y2="5"/>
    <line x1="105" y1="2" x2="105" y2="8"/>
    <line x1="2" y1="105" x2="8" y2="105"/>
    <line x1="105" y1="502" x2="105" y2="508"/>
    <line x1="502" y1="105" x2="508" y2="105"/>
    <line x1="205" y1="2" x2="205" y2="8"/>
    <line x1="2" y1="205" x2="8" y2="205"/>
    <line x1="205" y1="502" x2="205" y2="508"/>
    <line x1="502" y1="205" x2="508" y2="205"/>
    <line x1="305" y1="2" x2="305" y2="8"/>
    <line x1="2" y1="305" x2="8" y2="305"/>
    <line x1="305" y1="502" x2="305" y2="508"/>
    <line x1="502" y1="305" x2="508" y2="305"/>
    <line x1="405" y1="2" x2="405" y2="8"/>
    <line x1="2" y1="405" x2="8" y2="405"/>
    <line x1="405" y1="502" x2="405" y2="508"/>
    <line x1="502" y1="405" x2="508" y2="405"/>
  </g>
  <g stroke="gray" stroke-width="1" stroke-dasharray="5,5">
    <line x1="105" y1="5" x2="105" y2="505"/>
    <line x1="5" y1="105" x2="505" y2="105"/>
    <line x1="205" y1="5" x2="205" y2="505"/>
    <line x1="5" y1="205" x2="505" y2="205"/>
    <line x1="305" y1="5" x2="305" y2="505"/>
    <line x1="5" y1="305" x2="505" y2="305"/>
    <line x1="405" y1="5" x2="405" y2="505"/>
    <line x1="5" y1="405" x2="505" y2="405"/>
  </g>
</svg>
