<?xml version="1.0" standalone="no"?>
<!DOCTYPE svg PUBLIC "-//W3C//DTD SVG 1.1//EN" 
  "http://www.w3.org/Graphics/SVG/1.1/DTD/svg11.dtd">
<svg width="510" height="510" version="1.1" id="toplevel"
    xmlns="http://www.w3.org/2000/svg"
    xmlns:xlink="http://www.w3.org/1999/xlink">
  <polygon points="255,401 442,338 455,326 455,221 360,109 322,109 322,192 381,251 300,238 293,276 255,276 255,312 10,277 10,277 27,311 53,317 84,347 230,368"
           fill="bisque"/>
  <g stroke="chocolate" stroke-width="1">
    <line x1="442" y1="338" x2="455" y2="326"/>
    <circle cx="442" cy="338" r="2"/>
    <circle cx="455" cy="326" r="2"/>
  </g>
  <g stroke="chocolate" stroke-width="1">
    <line x1="402" y1="273" x2="414" y2="201"/>
    <circle cx="402" cy="273" r="2"/>
    <circle cx="414" cy="201" r="2"/>
  </g>
  <g stroke="chocolate" stroke-width="1">
    <line x1="343" y1="213" x2="360" y2="109"/>
    <circle cx="343" cy="213" r="2"/>
    <circle cx="360" cy="109" r="2"/>
  </g>
  <g stroke="chocolate" stroke-width="1">
    <line x1="322" y1="379" x2="455" y2="221"/>
    <circle cx="322" cy="379" r="2"/>
    <circle cx="455" cy="221" r="2"/>
  </g>
  <g stroke="chocolate" stroke-width="1">
    <line x1="274" y1="395" x2="300" y2="238"/>
    <circle cx="274" cy="395" r="2"/>
    <circle cx="300" cy="238" r="2"/>
  </g>
  <g stroke="chocolate" stroke-width="1">
    <line x1="318" y1="380" x2="455" y2="242"/>
    <circle cx="318" cy="380" r="2"/>
    <circle cx="455" cy="242" r="2"/>
  </g>
  <g stroke="chocolate" stroke-width="1">
    <line x1="255" y1="401" x2="255" y2="276"/>
    <circle cx="255" cy="401" r="2"/>
    <circle cx="255" cy="276" r="2"/>
  </g>
  <g stroke="chocolate" stroke-width="1">
    <line x1="322" y1="192" x2="322" y2="109"/>
    <circle cx="322" cy="192" r="2"/>
    <circle cx="322" cy="109" r="2"/>
  </g>
  <g stroke="chocolate" stroke-width="1">
    <line x1="405" y1="276" x2="405" y2="192"/>
    <circle cx="405" cy="276" r="2"/>
    <circle cx="405" cy="192" r="2"/>
  </g>
  <g stroke="chocolate" stroke-width="1">
    <line x1="455" y1="326" x2="455" y2="221"/>
    <circle cx="455" cy="326" r="2"/>
    <circle cx="455" cy="221" r="2"/>
  </g>
  <g stroke="chocolate" stroke-width="1">
    <line x1="27" y1="311" x2="10" y2="277"/>
    <circle cx="27" cy="311" r="2"/>
    <circle cx="10" cy="277" r="2"/>
  </g>
  <g stroke="chocolate" stroke-width="1">
    <line x1="113" y1="351" x2="180" y2="301"/>
    <circle cx="113" cy="351" r="2"/>
    <circle cx="180" cy="301" r="2"/>
  </g>
  <g stroke="chocolate" stroke-width="1">
    <line x1="255" y1="401" x2="442" y2="338"/>
    <circle cx="255" cy="401" r="2"/>
    <circle cx="442" cy="338" r="2"/>
  </g>
  <g stroke="chocolate" stroke-width="1">
    <line x1="113" y1="351" x2="63" y2="284"/>
    <circle cx="113" cy="351" r="2"/>
    <circle cx="63" cy="284" r="2"/>
  </g>
  <g stroke="chocolate" stroke-width="1">
    <line x1="84" y1="347" x2="10" y2="277"/>
    <circle cx="84" cy="347" r="2"/>
    <circle cx="10" cy="277" r="2"/>
  </g>
  <g stroke="chocolate" stroke-width="1">
    <line x1="27" y1="311" x2="63" y2="284"/>
    <circle cx="27" cy="311" r="2"/>
    <circle cx="63" cy="284" r="2"/>
  </g>
  <g stroke="chocolate" stroke-width="1">
    <line x1="84" y1="347" x2="174" y2="300"/>
    <circle cx="84" cy="347" r="2"/>
    <circle cx="174" cy="300" r="2"/>
  </g>
  <g stroke="chocolate" stroke-width="1">
    <line x1="255" y1="401" x2="180" y2="301"/>
    <circle cx="255" cy="401" r="2"/>
    <circle cx="180" cy="301" r="2"/>
  </g>
  <g stroke="chocolate" stroke-width="1">
    <line x1="274" y1="395" x2="174" y2="300"/>
    <circle cx="274" cy="395" r="2"/>
    <circle cx="174" cy="300" r="2"/>
  </g>
  <g stroke="chocolate" stroke-width="1">
    <line x1="10" y1="277" x2="10" y2="277"/>
    <circle cx="10" cy="277" r="2"/>
    <circle cx="10" cy="277" r="2"/>
  </g>
  <g stroke="chocolate" stroke-width="1">
    <line x1="402" y1="273" x2="455" y2="264"/>
    <circle cx="402" cy="273" r="2"/>
    <circle cx="455" cy="264" r="2"/>
  </g>
  <g stroke="chocolate" stroke-width="1">
    <line x1="318" y1="380" x2="84" y2="347"/>
    <circle cx="318" cy="380" r="2"/>
    <circle cx="84" cy="347" r="2"/>
  </g>
  <g stroke="chocolate" stroke-width="1">
    <line x1="322" y1="379" x2="27" y2="311"/>
    <circle cx="322" cy="379" r="2"/>
    <circle cx="27" cy="311" r="2"/>
  </g>
  <g stroke="chocolate" stroke-width="1">
    <line x1="442" y1="338" x2="10" y2="277"/>
    <circle cx="442" cy="338" r="2"/>
    <circle cx="10" cy="277" r="2"/>
  </g>
  <g stroke="chocolate" stroke-width="1">
    <line x1="343" y1="213" x2="414" y2="201"/>
    <circle cx="343" cy="213" r="2"/>
    <circle cx="414" cy="201" r="2"/>
  </g>
  <g stroke="chocolate" stroke-width="1">
    <line x1="255" y1="276" x2="455" y2="276"/>
    <circle cx="255" cy="276" r="2"/>
    <circle cx="455" cy="276" r="2"/>
  </g>
  <g stroke="chocolate" stroke-width="1">
    <line x1="455" y1="326" x2="322" y2="192"/>
    <circle cx="455" cy="326" r="2"/>
    <circle cx="322" cy="192" r="2"/>
  </g>
  <g stroke="chocolate" stroke-width="1">
    <line x1="455" y1="221" x2="360" y2="109"/>
    <circle cx="455" cy="221" r="2"/>
    <circle cx="360" cy="109" r="2"/>
  </g>
  <g stroke="chocolate" stroke-width="1">
    <line x1="455" y1="242" x2="405" y2="192"/>
    <circle cx="455" cy="242" r="2"/>
    <circle cx="405" cy="192" r="2"/>
  </g>
  <g stroke="chocolate" stroke-width="1">
    <line x1="455" y1="264" x2="300" y2="238"/>
    <circle cx="455" cy="264" r="2"/>
    <circle cx="300" cy="238" r="2"/>
  </g>
  <g stroke="chocolate" stroke-width="1">
    <line x1="322" y1="192" x2="405" y2="192"/>
    <circle cx="322" cy="192" r="2"/>
    <circle cx="405" cy="192" r="2"/>
  </g>
  <g stroke="chocolate" stroke-width="1">
    <line x1="322" y1="109" x2="360" y2="109"/>
    <circle cx="322" cy="109" r="2"/>
    <circle cx="360" cy="109" r="2"/>
  </g>
  <g stroke="black" stroke-width="1">
    <line x1="5" y1="5" x2="505" y2="5"/>
    <line x1="5" y1="5" x2="5" y2="505"/>
    <line x1="505" y1="505" x2="5" y2="505"/>
    <line x1="505" y1="505" x2="505" y2="5"/>
    <line x1="105" y1="2" x2="105" y2="8"/>
    <line x1="2" y1="105" x2="8" y2="105"/>
    <line x1="105" y1="502" x2="105" y2="508"/>
    <line x1="502" y1="105" x2="508" y2="105"/>
    <line x1="205" y1="2" x2="205" y2="8"/>
    <line x1="2" y1="205" x2="8" y2="205"/>
    <line x1="205" y1="502" x2="205" y2="508"/>
    <line x1="502" y1="205" x2="508" y2="205"/>
    <line x1="305" y1="2" x2="305" y2="8"/>
    <line x1="2" y1="305" x2="8" y2="305"/>
    <line x1="305" y1="502" x2="305" y2="508"/>
    <line x1="502" y1="305" x2="508" y2="305"/>
    <line x1="405" y1="2" x2="405" y2="8"/>
    <line x1="2" y1="405" x2="8" y2="405"/>
    <line x1="405" y1="502" x2="405" y2="508"/>
    <line x1="502" y1="405" x2="508" y2="405"/>
  </g>
  <g stroke="gray" stroke-width="1" stroke-dasharray="5,5">
    <line x1="105" y1="5" x2="105" y2="505"/>
    <line x1="5" y1="105" x2="505" y2="105"/>
    <line x1="205" y1="5" x2="205" y2="505"/>
    <line x1="5" y1="205" x2="505" y2="205"/>
    <line x1="305" y1="5" x2="305" y2="505"/>
    <line x1="5" y1="305" x2="505" y2="305"/>
    <line x1="405" y1="5" x2="405" y2="505"/>
    <line x1="5" y1="405" x2="505" y2="405"/>
  </g>
</svg>
