<?xml version="1.0" standalone="no"?>
<!DOCTYPE svg PUBLIC "-//W3C//DTD SVG 1.1//EN" 
  "http://www.w3.org/Graphics/SVG/1.1/DTD/svg11.dtd">
<svg width="510" height="510" version="1.1" id="toplevel"
    xmlns="http://www.w3.org/2000/svg"
    xmlns:xlink="http://www.w3.org/1999/xlink">
  <polygon points="38,454 479,218 310,167 251,56 31,174 90,284" fill="bisque"/>
  <g stroke="chocolate" stroke-width="1">
    <line x1="259" y1="336" x2="310" y2="167"/>
    <circle cx="259" cy="336" r="2"/>
    <circle cx="310" cy="167" r="2"/>
  </g>
  <g stroke="chocolate" stroke-width="1">
    <line x1="200" y1="226" x2="251" y2="56"/>
    <circle cx="200" cy="226" r="2"/>
    <circle cx="251" cy="56" r="2"/>
  </g>
  <g stroke="chocolate" stroke-width="1">
    <line x1="38" y1="454" x2="90" y2="284"/>
    <circle cx="38" cy="454" r="2"/>
    <circle cx="90" cy="284" r="2"/>
  </g>
  <g stroke="chocolate" stroke-width="1">
    <line x1="38" y1="454" x2="479" y2="218"/>
    <circle cx="38" cy="454" r="2"/>
    <circle cx="479" cy="218" r="2"/>
  </g>
  <g stroke="chocolate" stroke-width="1">
    <line x1="90" y1="284" x2="310" y2="167"/>
    <circle cx="90" cy="284" r="2"/>
    <circle cx="310" cy="167" r="2"/>
  </g>
  <g stroke="chocolate" stroke-width="1">
    <line x1="148" y1="395" x2="31" y2="174"/>
    <circle cx="148" cy="395" r="2"/>
    <circle cx="31" cy="174" r="2"/>
  </g>
  <g stroke="chocolate" stroke-width="1">
    <line x1="259" y1="336" x2="200" y2="226"/>
    <circle cx="259" cy="336" r="2"/>
    <circle cx="200" cy="226" r="2"/>
  </g>
  <g stroke="chocolate" stroke-width="1">
    <line x1="31" y1="174" x2="251" y2="56"/>
    <circle cx="31" cy="174" r="2"/>
    <circle cx="251" cy="56" r="2"/>
  </g>
  <g stroke="chocolate" stroke-width="1">
    <line x1="369" y1="277" x2="251" y2="56"/>
    <circle cx="369" cy="277" r="2"/>
    <circle cx="251" cy="56" r="2"/>
  </g>
  <g stroke="chocolate" stroke-width="1">
    <line x1="259" y1="336" x2="90" y2="284"/>
    <circle cx="259" cy="336" r="2"/>
    <circle cx="90" cy="284" r="2"/>
  </g>
  <g stroke="chocolate" stroke-width="1">
    <line x1="200" y1="226" x2="31" y2="174"/>
    <circle cx="200" cy="226" r="2"/>
    <circle cx="31" cy="174" r="2"/>
  </g>
  <g stroke="chocolate" stroke-width="1">
    <line x1="479" y1="218" x2="310" y2="167"/>
    <circle cx="479" cy="218" r="2"/>
    <circle cx="310" cy="167" r="2"/>
  </g>
  <g stroke="black" stroke-width="1">
    <line x1="5" y1="5" x2="505" y2="5"/>
    <line x1="5" y1="5" x2="5" y2="505"/>
    <line x1="505" y1="505" x2="5" y2="505"/>
    <line x1="505" y1="505" x2="505" y2="5"/>
    <line x1="105" y1="2" x2="105" y2="8"/>
    <line x1="2" y1="105" x2="8" y2="105"/>
    <line x1="105" y1="502" x2="105" y2="508"/>
    <line x1="502" y1="105" x2="508" y2="105"/>
    <line x1="205" y1="2" x2="205" y2="8"/>
    <line x1="2" y1="205" x2="8" y2="205"/>
    <line x1="205" y1="502" x2="205" y2="508"/>
    <line x1="502" y1="205" x2="508" y2="205"/>
    <line x1="305" y1="2" x2="305" y2="8"/>
    <line x1="2" y1="305" x2="8" y2="305"/>
    <line x1="305" y1="502" x2="305" y2="508"/>
    <line x1="502" y1="305" x2="508" y2="305"/>
    <line x1="405" y1="2" x2="405" y2="8"/>
    <line x1="2" y1="405" x2="8" y2="405"/>
    <line x1="405" y1="502" x2="405" y2="508"/>
    <line x1="502" y1="405" x2="508" y2="405"/>
  </g>
  <g stroke="gray" stroke-width="1" stroke-dasharray="5,5">
    <line x1="105" y1="5" x2="105" y2="505"/>
    <line x1="5" y1="105" x2="505" y2="105"/>
    <line x1="205" y1="5" x2="205" y2="505"/>
    <line x1="5" y1="205" x2="505" y2="205"/>
    <line x1="305" y1="5" x2="305" y2="505"/>
    <line x1="5" y1="305" x2="505" y2="305"/>
    <line x1="405" y1="5" x2="405" y2="505"/>
    <line x1="5" y1="405" x2="505" y2="405"/>
  </g>
</svg>
