<?xml version="1.0" standalone="no"?>
<!DOCTYPE svg PUBLIC "-//W3C//DTD SVG 1.1//EN" 
  "http://www.w3.org/Graphics/SVG/1.1/DTD/svg11.dtd">
<svg width="510" height="510" version="1.1" id="toplevel"
    xmlns="http://www.w3.org/2000/svg"
    xmlns:xlink="http://www.w3.org/1999/xlink">
  <polygon points="130,442 297,442 505,234 505,68 213,359 172,318 5,318"
           fill="bisque"/>
  <g stroke="chocolate" stroke-width="1">
    <line x1="172" y1="401" x2="172" y2="318"/>
    <circle cx="172" cy="401" r="2"/>
    <circle cx="172" cy="318" r="2"/>
  </g>
  <g stroke="chocolate" stroke-width="1">
    <line x1="255" y1="442" x2="255" y2="318"/>
    <circle cx="255" cy="442" r="2"/>
    <circle cx="255" cy="318" r="2"/>
  </g>
  <g stroke="chocolate" stroke-width="1">
    <line x1="422" y1="318" x2="422" y2="234"/>
    <circle cx="422" cy="318" r="2"/>
    <circle cx="422" cy="234" r="2"/>
  </g>
  <g stroke="chocolate" stroke-width="1">
    <line x1="505" y1="234" x2="505" y2="68"/>
    <circle cx="505" cy="234" r="2"/>
    <circle cx="505" cy="68" r="2"/>
  </g>
  <g stroke="chocolate" stroke-width="1">
    <line x1="130" y1="442" x2="5" y2="318"/>
    <circle cx="130" cy="442" r="2"/>
    <circle cx="5" cy="318" r="2"/>
  </g>
  <g stroke="chocolate" stroke-width="1">
    <line x1="297" y1="442" x2="505" y2="234"/>
    <circle cx="297" cy="442" r="2"/>
    <circle cx="505" cy="234" r="2"/>
  </g>
  <g stroke="chocolate" stroke-width="1">
    <line x1="213" y1="442" x2="172" y2="401"/>
    <circle cx="213" cy="442" r="2"/>
    <circle cx="172" cy="401" r="2"/>
  </g>
  <g stroke="chocolate" stroke-width="1">
    <line x1="213" y1="442" x2="422" y2="234"/>
    <circle cx="213" cy="442" r="2"/>
    <circle cx="422" cy="234" r="2"/>
  </g>
  <g stroke="chocolate" stroke-width="1">
    <line x1="297" y1="442" x2="172" y2="318"/>
    <circle cx="297" cy="442" r="2"/>
    <circle cx="172" cy="318" r="2"/>
  </g>
  <g stroke="chocolate" stroke-width="1">
    <line x1="130" y1="442" x2="505" y2="68"/>
    <circle cx="130" cy="442" r="2"/>
    <circle cx="505" cy="68" r="2"/>
  </g>
  <g stroke="chocolate" stroke-width="1">
    <line x1="130" y1="442" x2="297" y2="442"/>
    <circle cx="130" cy="442" r="2"/>
    <circle cx="297" cy="442" r="2"/>
  </g>
  <g stroke="chocolate" stroke-width="1">
    <line x1="172" y1="401" x2="255" y2="401"/>
    <circle cx="172" cy="401" r="2"/>
    <circle cx="255" cy="401" r="2"/>
  </g>
  <g stroke="chocolate" stroke-width="1">
    <line x1="5" y1="318" x2="172" y2="318"/>
    <circle cx="5" cy="318" r="2"/>
    <circle cx="172" cy="318" r="2"/>
  </g>
  <g stroke="chocolate" stroke-width="1">
    <line x1="255" y1="318" x2="422" y2="318"/>
    <circle cx="255" cy="318" r="2"/>
    <circle cx="422" cy="318" r="2"/>
  </g>
  <g stroke="chocolate" stroke-width="1">
    <line x1="422" y1="234" x2="505" y2="234"/>
    <circle cx="422" cy="234" r="2"/>
    <circle cx="505" cy="234" r="2"/>
  </g>
  <g stroke="black" stroke-width="1">
    <line x1="5" y1="5" x2="505" y2="5"/>
    <line x1="5" y1="5" x2="5" y2="505"/>
    <line x1="505" y1="505" x2="5" y2="505"/>
    <line x1="505" y1="505" x2="505" y2="5"/>
    <line x1="105" y1="2" x2="105" y2="8"/>
    <line x1="2" y1="105" x2="8" y2="105"/>
    <line x1="105" y1="502" x2="105" y2="508"/>
    <line x1="502" y1="105" x2="508" y2="105"/>
    <line x1="205" y1="2" x2="205" y2="8"/>
    <line x1="2" y1="205" x2="8" y2="205"/>
    <line x1="205" y1="502" x2="205" y2="508"/>
    <line x1="502" y1="205" x2="508" y2="205"/>
    <line x1="305" y1="2" x2="305" y2="8"/>
    <line x1="2" y1="305" x2="8" y2="305"/>
    <line x1="305" y1="502" x2="305" y2="508"/>
    <line x1="502" y1="305" x2="508" y2="305"/>
    <line x1="405" y1="2" x2="405" y2="8"/>
    <line x1="2" y1="405" x2="8" y2="405"/>
    <line x1="405" y1="502" x2="405" y2="508"/>
    <line x1="502" y1="405" x2="508" y2="405"/>
  </g>
  <g stroke="gray" stroke-width="1" stroke-dasharray="5,5">
    <line x1="105" y1="5" x2="105" y2="505"/>
    <line x1="5" y1="105" x2="505" y2="105"/>
    <line x1="205" y1="5" x2="205" y2="505"/>
    <line x1="5" y1="205" x2="505" y2="205"/>
    <line x1="305" y1="5" x2="305" y2="505"/>
    <line x1="5" y1="305" x2="505" y2="305"/>
    <line x1="405" y1="5" x2="405" y2="505"/>
    <line x1="5" y1="405" x2="505" y2="405"/>
  </g>
</svg>
