<?xml version="1.0" standalone="no"?>
<!DOCTYPE svg PUBLIC "-//W3C//DTD SVG 1.1//EN" 
  "http://www.w3.org/Graphics/SVG/1.1/DTD/svg11.dtd">
<svg width="530" height="530" version="1.1" id="toplevel"
    xmlns="http://www.w3.org/2000/svg"
    xmlns:xlink="http://www.w3.org/1999/xlink">
  <polygon points="336,525 509,345 350,192 233,5 21,137 118,367 151,354 130,383"
           fill="bisque"/>
  <g stroke="chocolate" stroke-width="1">
    <line x1="246" y1="216" x2="324" y2="213"/>
    <circle cx="246" cy="216" r="2"/>
    <circle cx="324" cy="213" r="2"/>
  </g>
  <g stroke="chocolate" stroke-width="1">
    <line x1="324" y1="213" x2="21" y2="137"/>
    <circle cx="324" cy="213" r="2"/>
    <circle cx="21" cy="137" r="2"/>
  </g>
  <g stroke="chocolate" stroke-width="1">
    <line x1="118" y1="367" x2="305" y2="289"/>
    <circle cx="118" cy="367" r="2"/>
    <circle cx="305" cy="289" r="2"/>
  </g>
  <g stroke="chocolate" stroke-width="1">
    <line x1="336" y1="525" x2="130" y2="383"/>
    <circle cx="336" cy="525" r="2"/>
    <circle cx="130" cy="383" r="2"/>
  </g>
  <g stroke="chocolate" stroke-width="1">
    <line x1="166" y1="341" x2="358" y2="205"/>
    <circle cx="166" cy="341" r="2"/>
    <circle cx="358" cy="205" r="2"/>
  </g>
  <g stroke="chocolate" stroke-width="1">
    <line x1="336" y1="525" x2="509" y2="345"/>
    <circle cx="336" cy="525" r="2"/>
    <circle cx="509" cy="345" r="2"/>
  </g>
  <g stroke="chocolate" stroke-width="1">
    <line x1="336" y1="525" x2="166" y2="341"/>
    <circle cx="336" cy="525" r="2"/>
    <circle cx="166" cy="341" r="2"/>
  </g>
  <g stroke="chocolate" stroke-width="1">
    <line x1="166" y1="341" x2="339" y2="182"/>
    <circle cx="166" cy="341" r="2"/>
    <circle cx="339" cy="182" r="2"/>
  </g>
  <g stroke="chocolate" stroke-width="1">
    <line x1="21" y1="137" x2="233" y2="5"/>
    <circle cx="21" cy="137" r="2"/>
    <circle cx="233" cy="5" r="2"/>
  </g>
  <g stroke="chocolate" stroke-width="1">
    <line x1="509" y1="345" x2="339" y2="182"/>
    <circle cx="509" cy="345" r="2"/>
    <circle cx="339" cy="182" r="2"/>
  </g>
  <g stroke="chocolate" stroke-width="1">
    <line x1="166" y1="341" x2="21" y2="137"/>
    <circle cx="166" cy="341" r="2"/>
    <circle cx="21" cy="137" r="2"/>
  </g>
  <g stroke="chocolate" stroke-width="1">
    <line x1="305" y1="289" x2="246" y2="216"/>
    <circle cx="305" cy="289" r="2"/>
    <circle cx="246" cy="216" r="2"/>
  </g>
  <g stroke="chocolate" stroke-width="1">
    <line x1="358" y1="205" x2="339" y2="182"/>
    <circle cx="358" cy="205" r="2"/>
    <circle cx="339" cy="182" r="2"/>
  </g>
  <g stroke="chocolate" stroke-width="1">
    <line x1="130" y1="383" x2="246" y2="216"/>
    <circle cx="130" cy="383" r="2"/>
    <circle cx="246" cy="216" r="2"/>
  </g>
  <g stroke="chocolate" stroke-width="1">
    <line x1="358" y1="205" x2="233" y2="5"/>
    <circle cx="358" cy="205" r="2"/>
    <circle cx="233" cy="5" r="2"/>
  </g>
  <g stroke="chocolate" stroke-width="1">
    <line x1="118" y1="367" x2="21" y2="137"/>
    <circle cx="118" cy="367" r="2"/>
    <circle cx="21" cy="137" r="2"/>
  </g>
  <g stroke="chocolate" stroke-width="1">
    <line x1="305" y1="289" x2="324" y2="213"/>
    <circle cx="305" cy="289" r="2"/>
    <circle cx="324" cy="213" r="2"/>
  </g>
  <g stroke="chocolate" stroke-width="1">
    <line x1="336" y1="525" x2="324" y2="213"/>
    <circle cx="336" cy="525" r="2"/>
    <circle cx="324" cy="213" r="2"/>
  </g>
  <g stroke="black" stroke-width="1">
    <line x1="15" y1="15" x2="515" y2="15"/>
    <line x1="15" y1="15" x2="15" y2="515"/>
    <line x1="515" y1="515" x2="15" y2="515"/>
    <line x1="515" y1="515" x2="515" y2="15"/>
    <line x1="115" y1="12" x2="115" y2="18"/>
    <line x1="12" y1="115" x2="18" y2="115"/>
    <line x1="115" y1="512" x2="115" y2="518"/>
    <line x1="512" y1="115" x2="518" y2="115"/>
    <line x1="215" y1="12" x2="215" y2="18"/>
    <line x1="12" y1="215" x2="18" y2="215"/>
    <line x1="215" y1="512" x2="215" y2="518"/>
    <line x1="512" y1="215" x2="518" y2="215"/>
    <line x1="315" y1="12" x2="315" y2="18"/>
    <line x1="12" y1="315" x2="18" y2="315"/>
    <line x1="315" y1="512" x2="315" y2="518"/>
    <line x1="512" y1="315" x2="518" y2="315"/>
    <line x1="415" y1="12" x2="415" y2="18"/>
    <line x1="12" y1="415" x2="18" y2="415"/>
    <line x1="415" y1="512" x2="415" y2="518"/>
    <line x1="512" y1="415" x2="518" y2="415"/>
  </g>
  <g stroke="gray" stroke-width="1" stroke-dasharray="5,5">
    <line x1="115" y1="15" x2="115" y2="515"/>
    <line x1="15" y1="115" x2="515" y2="115"/>
    <line x1="215" y1="15" x2="215" y2="515"/>
    <line x1="15" y1="215" x2="515" y2="215"/>
    <line x1="315" y1="15" x2="315" y2="515"/>
    <line x1="15" y1="315" x2="515" y2="315"/>
    <line x1="415" y1="15" x2="415" y2="515"/>
    <line x1="15" y1="415" x2="515" y2="415"/>
  </g>
</svg>
