<?xml version="1.0" standalone="no"?>
<!DOCTYPE svg PUBLIC "-//W3C//DTD SVG 1.1//EN" 
  "http://www.w3.org/Graphics/SVG/1.1/DTD/svg11.dtd">
<svg width="676" height="676" version="1.1" id="toplevel"
    xmlns="http://www.w3.org/2000/svg"
    xmlns:xlink="http://www.w3.org/1999/xlink">
  <polygon points="186,605 662,496 671,490 439,81 432,71 432,71 389,77 5,331"
           fill="bisque"/>
  <g stroke="chocolate" stroke-width="1">
    <line x1="186" y1="605" x2="5" y2="331"/>
    <circle cx="186" cy="605" r="2"/>
    <circle cx="5" cy="331" r="2"/>
  </g>
  <g stroke="chocolate" stroke-width="1">
    <line x1="422" y1="78" x2="422" y2="77"/>
    <circle cx="422" cy="78" r="2"/>
    <circle cx="422" cy="77" r="2"/>
  </g>
  <g stroke="chocolate" stroke-width="1">
    <line x1="641" y1="501" x2="641" y2="497"/>
    <circle cx="641" cy="501" r="2"/>
    <circle cx="641" cy="497" r="2"/>
  </g>
  <g stroke="chocolate" stroke-width="1">
    <line x1="422" y1="78" x2="423" y2="73"/>
    <circle cx="422" cy="78" r="2"/>
    <circle cx="423" cy="73" r="2"/>
  </g>
  <g stroke="chocolate" stroke-width="1">
    <line x1="423" y1="75" x2="423" y2="73"/>
    <circle cx="423" cy="75" r="2"/>
    <circle cx="423" cy="73" r="2"/>
  </g>
  <g stroke="chocolate" stroke-width="1">
    <line x1="431" y1="73" x2="431" y2="72"/>
    <circle cx="431" cy="73" r="2"/>
    <circle cx="431" cy="72" r="2"/>
  </g>
  <g stroke="chocolate" stroke-width="1">
    <line x1="186" y1="605" x2="209" y2="435"/>
    <circle cx="186" cy="605" r="2"/>
    <circle cx="209" cy="435" r="2"/>
  </g>
  <g stroke="chocolate" stroke-width="1">
    <line x1="641" y1="501" x2="439" y2="81"/>
    <circle cx="641" cy="501" r="2"/>
    <circle cx="439" cy="81" r="2"/>
  </g>
  <g stroke="chocolate" stroke-width="1">
    <line x1="671" y1="490" x2="439" y2="81"/>
    <circle cx="671" cy="490" r="2"/>
    <circle cx="439" cy="81" r="2"/>
  </g>
  <g stroke="chocolate" stroke-width="1">
    <line x1="439" y1="81" x2="432" y2="71"/>
    <circle cx="439" cy="81" r="2"/>
    <circle cx="432" cy="71" r="2"/>
  </g>
  <g stroke="chocolate" stroke-width="1">
    <line x1="423" y1="75" x2="423" y2="75"/>
    <circle cx="423" cy="75" r="2"/>
    <circle cx="423" cy="75" r="2"/>
  </g>
  <g stroke="chocolate" stroke-width="1">
    <line x1="429" y1="74" x2="431" y2="72"/>
    <circle cx="429" cy="74" r="2"/>
    <circle cx="431" cy="72" r="2"/>
  </g>
  <g stroke="chocolate" stroke-width="1">
    <line x1="662" y1="496" x2="671" y2="490"/>
    <circle cx="662" cy="496" r="2"/>
    <circle cx="671" cy="490" r="2"/>
  </g>
  <g stroke="chocolate" stroke-width="1">
    <line x1="655" y1="497" x2="671" y2="490"/>
    <circle cx="655" cy="497" r="2"/>
    <circle cx="671" cy="490" r="2"/>
  </g>
  <g stroke="chocolate" stroke-width="1">
    <line x1="413" y1="83" x2="420" y2="73"/>
    <circle cx="413" cy="83" r="2"/>
    <circle cx="420" cy="73" r="2"/>
  </g>
  <g stroke="chocolate" stroke-width="1">
    <line x1="419" y1="76" x2="421" y2="73"/>
    <circle cx="419" cy="76" r="2"/>
    <circle cx="421" cy="73" r="2"/>
  </g>
  <g stroke="chocolate" stroke-width="1">
    <line x1="423" y1="75" x2="420" y2="73"/>
    <circle cx="423" cy="75" r="2"/>
    <circle cx="420" cy="73" r="2"/>
  </g>
  <g stroke="chocolate" stroke-width="1">
    <line x1="423" y1="75" x2="421" y2="73"/>
    <circle cx="423" cy="75" r="2"/>
    <circle cx="421" cy="73" r="2"/>
  </g>
  <g stroke="chocolate" stroke-width="1">
    <line x1="186" y1="605" x2="662" y2="496"/>
    <circle cx="186" cy="605" r="2"/>
    <circle cx="662" cy="496" r="2"/>
  </g>
  <g stroke="chocolate" stroke-width="1">
    <line x1="422" y1="78" x2="419" y2="76"/>
    <circle cx="422" cy="78" r="2"/>
    <circle cx="419" cy="76" r="2"/>
  </g>
  <g stroke="chocolate" stroke-width="1">
    <line x1="662" y1="496" x2="209" y2="435"/>
    <circle cx="662" cy="496" r="2"/>
    <circle cx="209" cy="435" r="2"/>
  </g>
  <g stroke="chocolate" stroke-width="1">
    <line x1="641" y1="497" x2="655" y2="497"/>
    <circle cx="641" cy="497" r="2"/>
    <circle cx="655" cy="497" r="2"/>
  </g>
  <g stroke="chocolate" stroke-width="1">
    <line x1="422" y1="78" x2="422" y2="77"/>
    <circle cx="422" cy="78" r="2"/>
    <circle cx="422" cy="77" r="2"/>
  </g>
  <g stroke="chocolate" stroke-width="1">
    <line x1="429" y1="74" x2="432" y2="71"/>
    <circle cx="429" cy="74" r="2"/>
    <circle cx="432" cy="71" r="2"/>
  </g>
  <g stroke="chocolate" stroke-width="1">
    <line x1="432" y1="71" x2="432" y2="71"/>
    <circle cx="432" cy="71" r="2"/>
    <circle cx="432" cy="71" r="2"/>
  </g>
  <g stroke="chocolate" stroke-width="1">
    <line x1="405" y1="82" x2="389" y2="77"/>
    <circle cx="405" cy="82" r="2"/>
    <circle cx="389" cy="77" r="2"/>
  </g>
  <g stroke="chocolate" stroke-width="1">
    <line x1="423" y1="75" x2="429" y2="72"/>
    <circle cx="423" cy="75" r="2"/>
    <circle cx="429" cy="72" r="2"/>
  </g>
  <g stroke="chocolate" stroke-width="1">
    <line x1="5" y1="331" x2="389" y2="77"/>
    <circle cx="5" cy="331" r="2"/>
    <circle cx="389" cy="77" r="2"/>
  </g>
  <g stroke="chocolate" stroke-width="1">
    <line x1="431" y1="73" x2="429" y2="72"/>
    <circle cx="431" cy="73" r="2"/>
    <circle cx="429" cy="72" r="2"/>
  </g>
  <g stroke="chocolate" stroke-width="1">
    <line x1="413" y1="83" x2="429" y2="74"/>
    <circle cx="413" cy="83" r="2"/>
    <circle cx="429" cy="74" r="2"/>
  </g>
  <g stroke="chocolate" stroke-width="1">
    <line x1="405" y1="82" x2="422" y2="77"/>
    <circle cx="405" cy="82" r="2"/>
    <circle cx="422" cy="77" r="2"/>
  </g>
  <g stroke="chocolate" stroke-width="1">
    <line x1="431" y1="72" x2="432" y2="71"/>
    <circle cx="431" cy="72" r="2"/>
    <circle cx="432" cy="71" r="2"/>
  </g>
  <g stroke="chocolate" stroke-width="1">
    <line x1="413" y1="83" x2="405" y2="82"/>
    <circle cx="413" cy="83" r="2"/>
    <circle cx="405" cy="82" r="2"/>
  </g>
  <g stroke="chocolate" stroke-width="1">
    <line x1="432" y1="71" x2="432" y2="71"/>
    <circle cx="432" cy="71" r="2"/>
    <circle cx="432" cy="71" r="2"/>
  </g>
  <g stroke="chocolate" stroke-width="1">
    <line x1="389" y1="77" x2="432" y2="71"/>
    <circle cx="389" cy="77" r="2"/>
    <circle cx="432" cy="71" r="2"/>
  </g>
  <g stroke="black" stroke-width="1">
    <line x1="88" y1="88" x2="588" y2="88"/>
    <line x1="88" y1="88" x2="88" y2="588"/>
    <line x1="588" y1="588" x2="88" y2="588"/>
    <line x1="588" y1="588" x2="588" y2="88"/>
    <line x1="188" y1="85" x2="188" y2="91"/>
    <line x1="85" y1="188" x2="91" y2="188"/>
    <line x1="188" y1="585" x2="188" y2="591"/>
    <line x1="585" y1="188" x2="591" y2="188"/>
    <line x1="288" y1="85" x2="288" y2="91"/>
    <line x1="85" y1="288" x2="91" y2="288"/>
    <line x1="288" y1="585" x2="288" y2="591"/>
    <line x1="585" y1="288" x2="591" y2="288"/>
    <line x1="388" y1="85" x2="388" y2="91"/>
    <line x1="85" y1="388" x2="91" y2="388"/>
    <line x1="388" y1="585" x2="388" y2="591"/>
    <line x1="585" y1="388" x2="591" y2="388"/>
    <line x1="488" y1="85" x2="488" y2="91"/>
    <line x1="85" y1="488" x2="91" y2="488"/>
    <line x1="488" y1="585" x2="488" y2="591"/>
    <line x1="585" y1="488" x2="591" y2="488"/>
  </g>
  <g stroke="gray" stroke-width="1" stroke-dasharray="5,5">
    <line x1="188" y1="88" x2="188" y2="588"/>
    <line x1="88" y1="188" x2="588" y2="188"/>
    <line x1="288" y1="88" x2="288" y2="588"/>
    <line x1="88" y1="288" x2="588" y2="288"/>
    <line x1="388" y1="88" x2="388" y2="588"/>
    <line x1="88" y1="388" x2="588" y2="388"/>
    <line x1="488" y1="88" x2="488" y2="588"/>
    <line x1="88" y1="488" x2="588" y2="488"/>
  </g>
</svg>
