<?xml version="1.0" standalone="no"?>
<!DOCTYPE svg PUBLIC "-//W3C//DTD SVG 1.1//EN" 
  "http://www.w3.org/Graphics/SVG/1.1/DTD/svg11.dtd">
<svg width="510" height="510" version="1.1" id="toplevel"
    xmlns="http://www.w3.org/2000/svg"
    xmlns:xlink="http://www.w3.org/1999/xlink">
  <polygon points="358,497 428,481 410,316 264,44 209,13 82,206 112,226 97,258 249,328 249,481 363,481"
           fill="bisque"/>
  <g stroke="chocolate" stroke-width="1">
    <line x1="428" y1="481" x2="410" y2="316"/>
    <circle cx="428" cy="481" r="2"/>
    <circle cx="410" cy="316" r="2"/>
  </g>
  <g stroke="chocolate" stroke-width="1">
    <line x1="249" y1="481" x2="249" y2="231"/>
    <circle cx="249" cy="481" r="2"/>
    <circle cx="249" cy="231" r="2"/>
  </g>
  <g stroke="chocolate" stroke-width="1">
    <line x1="249" y1="481" x2="428" y2="481"/>
    <circle cx="249" cy="481" r="2"/>
    <circle cx="428" cy="481" r="2"/>
  </g>
  <g stroke="chocolate" stroke-width="1">
    <line x1="410" y1="316" x2="264" y2="44"/>
    <circle cx="410" cy="316" r="2"/>
    <circle cx="264" cy="44" r="2"/>
  </g>
  <g stroke="chocolate" stroke-width="1">
    <line x1="423" y1="431" x2="82" y2="206"/>
    <circle cx="423" cy="431" r="2"/>
    <circle cx="82" cy="206" r="2"/>
  </g>
  <g stroke="chocolate" stroke-width="1">
    <line x1="358" y1="497" x2="428" y2="481"/>
    <circle cx="358" cy="497" r="2"/>
    <circle cx="428" cy="481" r="2"/>
  </g>
  <g stroke="chocolate" stroke-width="1">
    <line x1="249" y1="231" x2="264" y2="44"/>
    <circle cx="249" cy="231" r="2"/>
    <circle cx="264" cy="44" r="2"/>
  </g>
  <g stroke="chocolate" stroke-width="1">
    <line x1="307" y1="354" x2="97" y2="258"/>
    <circle cx="307" cy="354" r="2"/>
    <circle cx="97" cy="258" r="2"/>
  </g>
  <g stroke="chocolate" stroke-width="1">
    <line x1="358" y1="497" x2="410" y2="316"/>
    <circle cx="358" cy="497" r="2"/>
    <circle cx="410" cy="316" r="2"/>
  </g>
  <g stroke="chocolate" stroke-width="1">
    <line x1="358" y1="497" x2="423" y2="431"/>
    <circle cx="358" cy="497" r="2"/>
    <circle cx="423" cy="431" r="2"/>
  </g>
  <g stroke="chocolate" stroke-width="1">
    <line x1="307" y1="354" x2="370" y2="241"/>
    <circle cx="307" cy="354" r="2"/>
    <circle cx="370" cy="241" r="2"/>
  </g>
  <g stroke="chocolate" stroke-width="1">
    <line x1="291" y1="344" x2="365" y2="231"/>
    <circle cx="291" cy="344" r="2"/>
    <circle cx="365" cy="231" r="2"/>
  </g>
  <g stroke="chocolate" stroke-width="1">
    <line x1="97" y1="258" x2="209" y2="13"/>
    <circle cx="97" cy="258" r="2"/>
    <circle cx="209" cy="13" r="2"/>
  </g>
  <g stroke="chocolate" stroke-width="1">
    <line x1="370" y1="241" x2="249" y2="231"/>
    <circle cx="370" cy="241" r="2"/>
    <circle cx="249" cy="231" r="2"/>
  </g>
  <g stroke="chocolate" stroke-width="1">
    <line x1="264" y1="44" x2="209" y2="13"/>
    <circle cx="264" cy="44" r="2"/>
    <circle cx="209" cy="13" r="2"/>
  </g>
  <g stroke="chocolate" stroke-width="1">
    <line x1="249" y1="231" x2="365" y2="231"/>
    <circle cx="249" cy="231" r="2"/>
    <circle cx="365" cy="231" r="2"/>
  </g>
  <g stroke="chocolate" stroke-width="1">
    <line x1="82" y1="206" x2="209" y2="13"/>
    <circle cx="82" cy="206" r="2"/>
    <circle cx="209" cy="13" r="2"/>
  </g>
  <g stroke="black" stroke-width="1">
    <line x1="5" y1="5" x2="505" y2="5"/>
    <line x1="5" y1="5" x2="5" y2="505"/>
    <line x1="505" y1="505" x2="5" y2="505"/>
    <line x1="505" y1="505" x2="505" y2="5"/>
    <line x1="105" y1="2" x2="105" y2="8"/>
    <line x1="2" y1="105" x2="8" y2="105"/>
    <line x1="105" y1="502" x2="105" y2="508"/>
    <line x1="502" y1="105" x2="508" y2="105"/>
    <line x1="205" y1="2" x2="205" y2="8"/>
    <line x1="2" y1="205" x2="8" y2="205"/>
    <line x1="205" y1="502" x2="205" y2="508"/>
    <line x1="502" y1="205" x2="508" y2="205"/>
    <line x1="305" y1="2" x2="305" y2="8"/>
    <line x1="2" y1="305" x2="8" y2="305"/>
    <line x1="305" y1="502" x2="305" y2="508"/>
    <line x1="502" y1="305" x2="508" y2="305"/>
    <line x1="405" y1="2" x2="405" y2="8"/>
    <line x1="2" y1="405" x2="8" y2="405"/>
    <line x1="405" y1="502" x2="405" y2="508"/>
    <line x1="502" y1="405" x2="508" y2="405"/>
  </g>
  <g stroke="gray" stroke-width="1" stroke-dasharray="5,5">
    <line x1="105" y1="5" x2="105" y2="505"/>
    <line x1="5" y1="105" x2="505" y2="105"/>
    <line x1="205" y1="5" x2="205" y2="505"/>
    <line x1="5" y1="205" x2="505" y2="205"/>
    <line x1="305" y1="5" x2="305" y2="505"/>
    <line x1="5" y1="305" x2="505" y2="305"/>
    <line x1="405" y1="5" x2="405" y2="505"/>
    <line x1="5" y1="405" x2="505" y2="405"/>
  </g>
</svg>
