<?xml version="1.0" standalone="no"?>
<!DOCTYPE svg PUBLIC "-//W3C//DTD SVG 1.1//EN" 
  "http://www.w3.org/Graphics/SVG/1.1/DTD/svg11.dtd">
<svg width="510" height="510" version="1.1" id="toplevel"
    xmlns="http://www.w3.org/2000/svg"
    xmlns:xlink="http://www.w3.org/1999/xlink">
  <polygon points="293,502 274,379 398,359 502,217 379,236 359,112 217,8 236,131 112,151 8,293 131,274 151,398"
           fill="bisque"/>
  <g stroke="chocolate" stroke-width="1">
    <line x1="151" y1="398" x2="398" y2="359"/>
    <circle cx="151" cy="398" r="2"/>
    <circle cx="398" cy="359" r="2"/>
  </g>
  <g stroke="chocolate" stroke-width="1">
    <line x1="8" y1="293" x2="502" y2="217"/>
    <circle cx="8" cy="293" r="2"/>
    <circle cx="502" cy="217" r="2"/>
  </g>
  <g stroke="chocolate" stroke-width="1">
    <line x1="398" y1="359" x2="502" y2="217"/>
    <circle cx="398" cy="359" r="2"/>
    <circle cx="502" cy="217" r="2"/>
  </g>
  <g stroke="chocolate" stroke-width="1">
    <line x1="112" y1="151" x2="359" y2="112"/>
    <circle cx="112" cy="151" r="2"/>
    <circle cx="359" cy="112" r="2"/>
  </g>
  <g stroke="chocolate" stroke-width="1">
    <line x1="151" y1="398" x2="359" y2="112"/>
    <circle cx="151" cy="398" r="2"/>
    <circle cx="359" cy="112" r="2"/>
  </g>
  <g stroke="chocolate" stroke-width="1">
    <line x1="293" y1="502" x2="151" y2="398"/>
    <circle cx="293" cy="502" r="2"/>
    <circle cx="151" cy="398" r="2"/>
  </g>
  <g stroke="chocolate" stroke-width="1">
    <line x1="8" y1="293" x2="112" y2="151"/>
    <circle cx="8" cy="293" r="2"/>
    <circle cx="112" cy="151" r="2"/>
  </g>
  <g stroke="chocolate" stroke-width="1">
    <line x1="398" y1="359" x2="112" y2="151"/>
    <circle cx="398" cy="359" r="2"/>
    <circle cx="112" cy="151" r="2"/>
  </g>
  <g stroke="chocolate" stroke-width="1">
    <line x1="359" y1="112" x2="217" y2="8"/>
    <circle cx="359" cy="112" r="2"/>
    <circle cx="217" cy="8" r="2"/>
  </g>
  <g stroke="chocolate" stroke-width="1">
    <line x1="151" y1="398" x2="112" y2="151"/>
    <circle cx="151" cy="398" r="2"/>
    <circle cx="112" cy="151" r="2"/>
  </g>
  <g stroke="chocolate" stroke-width="1">
    <line x1="293" y1="502" x2="217" y2="8"/>
    <circle cx="293" cy="502" r="2"/>
    <circle cx="217" cy="8" r="2"/>
  </g>
  <g stroke="chocolate" stroke-width="1">
    <line x1="398" y1="359" x2="359" y2="112"/>
    <circle cx="398" cy="359" r="2"/>
    <circle cx="359" cy="112" r="2"/>
  </g>
  <g stroke="black" stroke-width="1">
    <line x1="5" y1="5" x2="505" y2="5"/>
    <line x1="5" y1="5" x2="5" y2="505"/>
    <line x1="505" y1="505" x2="5" y2="505"/>
    <line x1="505" y1="505" x2="505" y2="5"/>
    <line x1="105" y1="2" x2="105" y2="8"/>
    <line x1="2" y1="105" x2="8" y2="105"/>
    <line x1="105" y1="502" x2="105" y2="508"/>
    <line x1="502" y1="105" x2="508" y2="105"/>
    <line x1="205" y1="2" x2="205" y2="8"/>
    <line x1="2" y1="205" x2="8" y2="205"/>
    <line x1="205" y1="502" x2="205" y2="508"/>
    <line x1="502" y1="205" x2="508" y2="205"/>
    <line x1="305" y1="2" x2="305" y2="8"/>
    <line x1="2" y1="305" x2="8" y2="305"/>
    <line x1="305" y1="502" x2="305" y2="508"/>
    <line x1="502" y1="305" x2="508" y2="305"/>
    <line x1="405" y1="2" x2="405" y2="8"/>
    <line x1="2" y1="405" x2="8" y2="405"/>
    <line x1="405" y1="502" x2="405" y2="508"/>
    <line x1="502" y1="405" x2="508" y2="405"/>
  </g>
  <g stroke="gray" stroke-width="1" stroke-dasharray="5,5">
    <line x1="105" y1="5" x2="105" y2="505"/>
    <line x1="5" y1="105" x2="505" y2="105"/>
    <line x1="205" y1="5" x2="205" y2="505"/>
    <line x1="5" y1="205" x2="505" y2="205"/>
    <line x1="305" y1="5" x2="305" y2="505"/>
    <line x1="5" y1="305" x2="505" y2="305"/>
    <line x1="405" y1="5" x2="405" y2="505"/>
    <line x1="5" y1="405" x2="505" y2="405"/>
  </g>
</svg>
