<?xml version="1.0" standalone="no"?>
<!DOCTYPE svg PUBLIC "-//W3C//DTD SVG 1.1//EN" 
  "http://www.w3.org/Graphics/SVG/1.1/DTD/svg11.dtd">
<svg width="510" height="510" version="1.1" id="toplevel"
    xmlns="http://www.w3.org/2000/svg"
    xmlns:xlink="http://www.w3.org/1999/xlink">
  <polygon points="324,430 337,414 334,411 402,291 309,192 287,205 253,131 205,80 128,108 134,125 117,134 126,153 108,164 160,256 245,286 203,348"
           fill="bisque"/>
  <g stroke="chocolate" stroke-width="1">
    <line x1="185" y1="265" x2="128" y2="108"/>
    <circle cx="185" cy="265" r="2"/>
    <circle cx="128" cy="108" r="2"/>
  </g>
  <g stroke="chocolate" stroke-width="1">
    <line x1="176" y1="262" x2="117" y2="134"/>
    <circle cx="176" cy="262" r="2"/>
    <circle cx="117" cy="134" r="2"/>
  </g>
  <g stroke="chocolate" stroke-width="1">
    <line x1="235" y1="370" x2="314" y2="197"/>
    <circle cx="235" cy="370" r="2"/>
    <circle cx="314" cy="197" r="2"/>
  </g>
  <g stroke="chocolate" stroke-width="1">
    <line x1="341" y1="320" x2="253" y2="131"/>
    <circle cx="341" cy="320" r="2"/>
    <circle cx="253" cy="131" r="2"/>
  </g>
  <g stroke="chocolate" stroke-width="1">
    <line x1="324" y1="430" x2="402" y2="291"/>
    <circle cx="324" cy="430" r="2"/>
    <circle cx="402" cy="291" r="2"/>
  </g>
  <g stroke="chocolate" stroke-width="1">
    <line x1="214" y1="110" x2="220" y2="96"/>
    <circle cx="214" cy="110" r="2"/>
    <circle cx="220" cy="96" r="2"/>
  </g>
  <g stroke="chocolate" stroke-width="1">
    <line x1="160" y1="256" x2="108" y2="164"/>
    <circle cx="160" cy="256" r="2"/>
    <circle cx="108" cy="164" r="2"/>
  </g>
  <g stroke="chocolate" stroke-width="1">
    <line x1="196" y1="100" x2="205" y2="80"/>
    <circle cx="196" cy="100" r="2"/>
    <circle cx="205" cy="80" r="2"/>
  </g>
  <g stroke="chocolate" stroke-width="1">
    <line x1="220" y1="360" x2="313" y2="195"/>
    <circle cx="220" cy="360" r="2"/>
    <circle cx="313" cy="195" r="2"/>
  </g>
  <g stroke="chocolate" stroke-width="1">
    <line x1="203" y1="348" x2="309" y2="192"/>
    <circle cx="203" cy="348" r="2"/>
    <circle cx="309" cy="192" r="2"/>
  </g>
  <g stroke="chocolate" stroke-width="1">
    <line x1="324" y1="430" x2="337" y2="414"/>
    <circle cx="324" cy="430" r="2"/>
    <circle cx="337" cy="414" r="2"/>
  </g>
  <g stroke="chocolate" stroke-width="1">
    <line x1="214" y1="110" x2="222" y2="98"/>
    <circle cx="214" cy="110" r="2"/>
    <circle cx="222" cy="98" r="2"/>
  </g>
  <g stroke="chocolate" stroke-width="1">
    <line x1="196" y1="100" x2="207" y2="83"/>
    <circle cx="196" cy="100" r="2"/>
    <circle cx="207" cy="83" r="2"/>
  </g>
  <g stroke="chocolate" stroke-width="1">
    <line x1="220" y1="360" x2="233" y2="344"/>
    <circle cx="220" cy="360" r="2"/>
    <circle cx="233" cy="344" r="2"/>
  </g>
  <g stroke="chocolate" stroke-width="1">
    <line x1="235" y1="370" x2="262" y2="342"/>
    <circle cx="235" cy="370" r="2"/>
    <circle cx="262" cy="342" r="2"/>
  </g>
  <g stroke="chocolate" stroke-width="1">
    <line x1="324" y1="430" x2="233" y2="344"/>
    <circle cx="324" cy="430" r="2"/>
    <circle cx="233" cy="344" r="2"/>
  </g>
  <g stroke="chocolate" stroke-width="1">
    <line x1="337" y1="414" x2="262" y2="342"/>
    <circle cx="337" cy="414" r="2"/>
    <circle cx="262" cy="342" r="2"/>
  </g>
  <g stroke="chocolate" stroke-width="1">
    <line x1="402" y1="291" x2="309" y2="192"/>
    <circle cx="402" cy="291" r="2"/>
    <circle cx="309" cy="192" r="2"/>
  </g>
  <g stroke="chocolate" stroke-width="1">
    <line x1="253" y1="131" x2="205" y2="80"/>
    <circle cx="253" cy="131" r="2"/>
    <circle cx="205" cy="80" r="2"/>
  </g>
  <g stroke="chocolate" stroke-width="1">
    <line x1="324" y1="430" x2="203" y2="348"/>
    <circle cx="324" cy="430" r="2"/>
    <circle cx="203" cy="348" r="2"/>
  </g>
  <g stroke="chocolate" stroke-width="1">
    <line x1="337" y1="414" x2="233" y2="344"/>
    <circle cx="337" cy="414" r="2"/>
    <circle cx="233" cy="344" r="2"/>
  </g>
  <g stroke="chocolate" stroke-width="1">
    <line x1="341" y1="320" x2="402" y2="291"/>
    <circle cx="341" cy="320" r="2"/>
    <circle cx="402" cy="291" r="2"/>
  </g>
  <g stroke="chocolate" stroke-width="1">
    <line x1="185" y1="265" x2="309" y2="192"/>
    <circle cx="185" cy="265" r="2"/>
    <circle cx="309" cy="192" r="2"/>
  </g>
  <g stroke="chocolate" stroke-width="1">
    <line x1="253" y1="131" x2="196" y2="100"/>
    <circle cx="253" cy="131" r="2"/>
    <circle cx="196" cy="100" r="2"/>
  </g>
  <g stroke="chocolate" stroke-width="1">
    <line x1="176" y1="262" x2="313" y2="195"/>
    <circle cx="176" cy="262" r="2"/>
    <circle cx="313" cy="195" r="2"/>
  </g>
  <g stroke="chocolate" stroke-width="1">
    <line x1="341" y1="320" x2="160" y2="256"/>
    <circle cx="341" cy="320" r="2"/>
    <circle cx="160" cy="256" r="2"/>
  </g>
  <g stroke="chocolate" stroke-width="1">
    <line x1="108" y1="164" x2="222" y2="98"/>
    <circle cx="108" cy="164" r="2"/>
    <circle cx="222" cy="98" r="2"/>
  </g>
  <g stroke="chocolate" stroke-width="1">
    <line x1="117" y1="134" x2="207" y2="83"/>
    <circle cx="117" cy="134" r="2"/>
    <circle cx="207" cy="83" r="2"/>
  </g>
  <g stroke="chocolate" stroke-width="1">
    <line x1="160" y1="256" x2="314" y2="197"/>
    <circle cx="160" cy="256" r="2"/>
    <circle cx="314" cy="197" r="2"/>
  </g>
  <g stroke="chocolate" stroke-width="1">
    <line x1="117" y1="134" x2="220" y2="96"/>
    <circle cx="117" cy="134" r="2"/>
    <circle cx="220" cy="96" r="2"/>
  </g>
  <g stroke="chocolate" stroke-width="1">
    <line x1="128" y1="108" x2="205" y2="80"/>
    <circle cx="128" cy="108" r="2"/>
    <circle cx="205" cy="80" r="2"/>
  </g>
  <g stroke="black" stroke-width="1">
    <line x1="5" y1="5" x2="505" y2="5"/>
    <line x1="5" y1="5" x2="5" y2="505"/>
    <line x1="505" y1="505" x2="5" y2="505"/>
    <line x1="505" y1="505" x2="505" y2="5"/>
    <line x1="105" y1="2" x2="105" y2="8"/>
    <line x1="2" y1="105" x2="8" y2="105"/>
    <line x1="105" y1="502" x2="105" y2="508"/>
    <line x1="502" y1="105" x2="508" y2="105"/>
    <line x1="205" y1="2" x2="205" y2="8"/>
    <line x1="2" y1="205" x2="8" y2="205"/>
    <line x1="205" y1="502" x2="205" y2="508"/>
    <line x1="502" y1="205" x2="508" y2="205"/>
    <line x1="305" y1="2" x2="305" y2="8"/>
    <line x1="2" y1="305" x2="8" y2="305"/>
    <line x1="305" y1="502" x2="305" y2="508"/>
    <line x1="502" y1="305" x2="508" y2="305"/>
    <line x1="405" y1="2" x2="405" y2="8"/>
    <line x1="2" y1="405" x2="8" y2="405"/>
    <line x1="405" y1="502" x2="405" y2="508"/>
    <line x1="502" y1="405" x2="508" y2="405"/>
  </g>
  <g stroke="gray" stroke-width="1" stroke-dasharray="5,5">
    <line x1="105" y1="5" x2="105" y2="505"/>
    <line x1="5" y1="105" x2="505" y2="105"/>
    <line x1="205" y1="5" x2="205" y2="505"/>
    <line x1="5" y1="205" x2="505" y2="205"/>
    <line x1="305" y1="5" x2="305" y2="505"/>
    <line x1="5" y1="305" x2="505" y2="305"/>
    <line x1="405" y1="5" x2="405" y2="505"/>
    <line x1="5" y1="405" x2="505" y2="405"/>
  </g>
</svg>
