<?xml version="1.0" standalone="no"?>
<!DOCTYPE svg PUBLIC "-//W3C//DTD SVG 1.1//EN" 
  "http://www.w3.org/Graphics/SVG/1.1/DTD/svg11.dtd">
<svg width="510" height="510" version="1.1" id="toplevel"
    xmlns="http://www.w3.org/2000/svg"
    xmlns:xlink="http://www.w3.org/1999/xlink">
  <polygon points="295,497 422,304 393,284 407,252 255,182 255,29 142,29 146,13 76,29 94,194 241,466"
           fill="bisque"/>
  <g stroke="chocolate" stroke-width="1">
    <line x1="295" y1="497" x2="422" y2="304"/>
    <circle cx="295" cy="497" r="2"/>
    <circle cx="422" cy="304" r="2"/>
  </g>
  <g stroke="chocolate" stroke-width="1">
    <line x1="140" y1="279" x2="255" y2="279"/>
    <circle cx="140" cy="279" r="2"/>
    <circle cx="255" cy="279" r="2"/>
  </g>
  <g stroke="chocolate" stroke-width="1">
    <line x1="295" y1="497" x2="241" y2="466"/>
    <circle cx="295" cy="497" r="2"/>
    <circle cx="241" cy="466" r="2"/>
  </g>
  <g stroke="chocolate" stroke-width="1">
    <line x1="255" y1="279" x2="135" y2="269"/>
    <circle cx="255" cy="279" r="2"/>
    <circle cx="135" cy="269" r="2"/>
  </g>
  <g stroke="chocolate" stroke-width="1">
    <line x1="295" y1="497" x2="407" y2="252"/>
    <circle cx="295" cy="497" r="2"/>
    <circle cx="407" cy="252" r="2"/>
  </g>
  <g stroke="chocolate" stroke-width="1">
    <line x1="140" y1="279" x2="214" y2="166"/>
    <circle cx="140" cy="279" r="2"/>
    <circle cx="214" cy="166" r="2"/>
  </g>
  <g stroke="chocolate" stroke-width="1">
    <line x1="135" y1="269" x2="198" y2="156"/>
    <circle cx="135" cy="269" r="2"/>
    <circle cx="198" cy="156" r="2"/>
  </g>
  <g stroke="chocolate" stroke-width="1">
    <line x1="82" y1="79" x2="146" y2="13"/>
    <circle cx="82" cy="79" r="2"/>
    <circle cx="146" cy="13" r="2"/>
  </g>
  <g stroke="chocolate" stroke-width="1">
    <line x1="94" y1="194" x2="146" y2="13"/>
    <circle cx="94" cy="194" r="2"/>
    <circle cx="146" cy="13" r="2"/>
  </g>
  <g stroke="chocolate" stroke-width="1">
    <line x1="407" y1="252" x2="198" y2="156"/>
    <circle cx="407" cy="252" r="2"/>
    <circle cx="198" cy="156" r="2"/>
  </g>
  <g stroke="chocolate" stroke-width="1">
    <line x1="241" y1="466" x2="255" y2="279"/>
    <circle cx="241" cy="466" r="2"/>
    <circle cx="255" cy="279" r="2"/>
  </g>
  <g stroke="chocolate" stroke-width="1">
    <line x1="76" y1="29" x2="146" y2="13"/>
    <circle cx="76" cy="29" r="2"/>
    <circle cx="146" cy="13" r="2"/>
  </g>
  <g stroke="chocolate" stroke-width="1">
    <line x1="76" y1="29" x2="255" y2="29"/>
    <circle cx="76" cy="29" r="2"/>
    <circle cx="255" cy="29" r="2"/>
  </g>
  <g stroke="chocolate" stroke-width="1">
    <line x1="241" y1="466" x2="94" y2="194"/>
    <circle cx="241" cy="466" r="2"/>
    <circle cx="94" cy="194" r="2"/>
  </g>
  <g stroke="chocolate" stroke-width="1">
    <line x1="422" y1="304" x2="82" y2="79"/>
    <circle cx="422" cy="304" r="2"/>
    <circle cx="82" cy="79" r="2"/>
  </g>
  <g stroke="chocolate" stroke-width="1">
    <line x1="255" y1="279" x2="255" y2="29"/>
    <circle cx="255" cy="279" r="2"/>
    <circle cx="255" cy="29" r="2"/>
  </g>
  <g stroke="chocolate" stroke-width="1">
    <line x1="94" y1="194" x2="76" y2="29"/>
    <circle cx="94" cy="194" r="2"/>
    <circle cx="76" cy="29" r="2"/>
  </g>
  <g stroke="black" stroke-width="1">
    <line x1="5" y1="5" x2="505" y2="5"/>
    <line x1="5" y1="5" x2="5" y2="505"/>
    <line x1="505" y1="505" x2="5" y2="505"/>
    <line x1="505" y1="505" x2="505" y2="5"/>
    <line x1="105" y1="2" x2="105" y2="8"/>
    <line x1="2" y1="105" x2="8" y2="105"/>
    <line x1="105" y1="502" x2="105" y2="508"/>
    <line x1="502" y1="105" x2="508" y2="105"/>
    <line x1="205" y1="2" x2="205" y2="8"/>
    <line x1="2" y1="205" x2="8" y2="205"/>
    <line x1="205" y1="502" x2="205" y2="508"/>
    <line x1="502" y1="205" x2="508" y2="205"/>
    <line x1="305" y1="2" x2="305" y2="8"/>
    <line x1="2" y1="305" x2="8" y2="305"/>
    <line x1="305" y1="502" x2="305" y2="508"/>
    <line x1="502" y1="305" x2="508" y2="305"/>
    <line x1="405" y1="2" x2="405" y2="8"/>
    <line x1="2" y1="405" x2="8" y2="405"/>
    <line x1="405" y1="502" x2="405" y2="508"/>
    <line x1="502" y1="405" x2="508" y2="405"/>
  </g>
  <g stroke="gray" stroke-width="1" stroke-dasharray="5,5">
    <line x1="105" y1="5" x2="105" y2="505"/>
    <line x1="5" y1="105" x2="505" y2="105"/>
    <line x1="205" y1="5" x2="205" y2="505"/>
    <line x1="5" y1="205" x2="505" y2="205"/>
    <line x1="305" y1="5" x2="305" y2="505"/>
    <line x1="5" y1="305" x2="505" y2="305"/>
    <line x1="405" y1="5" x2="405" y2="505"/>
    <line x1="5" y1="405" x2="505" y2="405"/>
  </g>
</svg>
