<?xml version="1.0" standalone="no"?>
<!DOCTYPE svg PUBLIC "-//W3C//DTD SVG 1.1//EN" 
  "http://www.w3.org/Graphics/SVG/1.1/DTD/svg11.dtd">
<svg width="510" height="510" version="1.1" id="toplevel"
    xmlns="http://www.w3.org/2000/svg"
    xmlns:xlink="http://www.w3.org/1999/xlink">
  <polygon points="424,417 505,325 505,208 269,208 195,106 101,98 100,93 66,95 63,402"
           fill="bisque"/>
  <g stroke="chocolate" stroke-width="1">
    <line x1="424" y1="417" x2="505" y2="325"/>
    <circle cx="424" cy="417" r="2"/>
    <circle cx="505" cy="325" r="2"/>
  </g>
  <g stroke="chocolate" stroke-width="1">
    <line x1="129" y1="405" x2="195" y2="106"/>
    <circle cx="129" cy="405" r="2"/>
    <circle cx="195" cy="106" r="2"/>
  </g>
  <g stroke="chocolate" stroke-width="1">
    <line x1="121" y1="404" x2="149" y2="218"/>
    <circle cx="121" cy="404" r="2"/>
    <circle cx="149" cy="218" r="2"/>
  </g>
  <g stroke="chocolate" stroke-width="1">
    <line x1="63" y1="402" x2="77" y2="208"/>
    <circle cx="63" cy="402" r="2"/>
    <circle cx="77" cy="208" r="2"/>
  </g>
  <g stroke="chocolate" stroke-width="1">
    <line x1="63" y1="402" x2="66" y2="95"/>
    <circle cx="63" cy="402" r="2"/>
    <circle cx="66" cy="95" r="2"/>
  </g>
  <g stroke="chocolate" stroke-width="1">
    <line x1="505" y1="325" x2="505" y2="208"/>
    <circle cx="505" cy="325" r="2"/>
    <circle cx="505" cy="208" r="2"/>
  </g>
  <g stroke="chocolate" stroke-width="1">
    <line x1="121" y1="404" x2="100" y2="93"/>
    <circle cx="121" cy="404" r="2"/>
    <circle cx="100" cy="93" r="2"/>
  </g>
  <g stroke="chocolate" stroke-width="1">
    <line x1="129" y1="405" x2="125" y2="374"/>
    <circle cx="129" cy="405" r="2"/>
    <circle cx="125" cy="374" r="2"/>
  </g>
  <g stroke="chocolate" stroke-width="1">
    <line x1="424" y1="417" x2="195" y2="106"/>
    <circle cx="424" cy="417" r="2"/>
    <circle cx="195" cy="106" r="2"/>
  </g>
  <g stroke="chocolate" stroke-width="1">
    <line x1="424" y1="417" x2="63" y2="402"/>
    <circle cx="424" cy="417" r="2"/>
    <circle cx="63" cy="402" r="2"/>
  </g>
  <g stroke="chocolate" stroke-width="1">
    <line x1="125" y1="374" x2="505" y2="325"/>
    <circle cx="125" cy="374" r="2"/>
    <circle cx="505" cy="325" r="2"/>
  </g>
  <g stroke="chocolate" stroke-width="1">
    <line x1="149" y1="218" x2="77" y2="208"/>
    <circle cx="149" cy="218" r="2"/>
    <circle cx="77" cy="208" r="2"/>
  </g>
  <g stroke="chocolate" stroke-width="1">
    <line x1="77" y1="208" x2="505" y2="208"/>
    <circle cx="77" cy="208" r="2"/>
    <circle cx="505" cy="208" r="2"/>
  </g>
  <g stroke="chocolate" stroke-width="1">
    <line x1="66" y1="95" x2="100" y2="93"/>
    <circle cx="66" cy="95" r="2"/>
    <circle cx="100" cy="93" r="2"/>
  </g>
  <g stroke="chocolate" stroke-width="1">
    <line x1="195" y1="106" x2="66" y2="95"/>
    <circle cx="195" cy="106" r="2"/>
    <circle cx="66" cy="95" r="2"/>
  </g>
  <g stroke="black" stroke-width="1">
    <line x1="5" y1="5" x2="505" y2="5"/>
    <line x1="5" y1="5" x2="5" y2="505"/>
    <line x1="505" y1="505" x2="5" y2="505"/>
    <line x1="505" y1="505" x2="505" y2="5"/>
    <line x1="105" y1="2" x2="105" y2="8"/>
    <line x1="2" y1="105" x2="8" y2="105"/>
    <line x1="105" y1="502" x2="105" y2="508"/>
    <line x1="502" y1="105" x2="508" y2="105"/>
    <line x1="205" y1="2" x2="205" y2="8"/>
    <line x1="2" y1="205" x2="8" y2="205"/>
    <line x1="205" y1="502" x2="205" y2="508"/>
    <line x1="502" y1="205" x2="508" y2="205"/>
    <line x1="305" y1="2" x2="305" y2="8"/>
    <line x1="2" y1="305" x2="8" y2="305"/>
    <line x1="305" y1="502" x2="305" y2="508"/>
    <line x1="502" y1="305" x2="508" y2="305"/>
    <line x1="405" y1="2" x2="405" y2="8"/>
    <line x1="2" y1="405" x2="8" y2="405"/>
    <line x1="405" y1="502" x2="405" y2="508"/>
    <line x1="502" y1="405" x2="508" y2="405"/>
  </g>
  <g stroke="gray" stroke-width="1" stroke-dasharray="5,5">
    <line x1="105" y1="5" x2="105" y2="505"/>
    <line x1="5" y1="105" x2="505" y2="105"/>
    <line x1="205" y1="5" x2="205" y2="505"/>
    <line x1="5" y1="205" x2="505" y2="205"/>
    <line x1="305" y1="5" x2="305" y2="505"/>
    <line x1="5" y1="305" x2="505" y2="305"/>
    <line x1="405" y1="5" x2="405" y2="505"/>
    <line x1="5" y1="405" x2="505" y2="405"/>
  </g>
</svg>
