<?xml version="1.0" standalone="no"?>
<!DOCTYPE svg PUBLIC "-//W3C//DTD SVG 1.1//EN" 
  "http://www.w3.org/Graphics/SVG/1.1/DTD/svg11.dtd">
<svg width="510" height="510" version="1.1" id="toplevel"
    xmlns="http://www.w3.org/2000/svg"
    xmlns:xlink="http://www.w3.org/1999/xlink">
  <polygon points="289,409 292,268 332,290 402,160 291,101 125,179 108,258 227,408"
           fill="bisque"/>
  <polygon points="280,262 258,261 260,251" fill="bisque"/>
  <g stroke="chocolate" stroke-width="1">
    <line x1="289" y1="409" x2="227" y2="408"/>
    <circle cx="289" cy="409" r="2"/>
    <circle cx="227" cy="408" r="2"/>
  </g>
  <g stroke="chocolate" stroke-width="1">
    <line x1="290" y1="379" x2="204" y2="378"/>
    <circle cx="290" cy="379" r="2"/>
    <circle cx="204" cy="378" r="2"/>
  </g>
  <g stroke="chocolate" stroke-width="1">
    <line x1="227" y1="408" x2="108" y2="258"/>
    <circle cx="227" cy="408" r="2"/>
    <circle cx="108" cy="258" r="2"/>
  </g>
  <g stroke="chocolate" stroke-width="1">
    <line x1="332" y1="290" x2="125" y2="179"/>
    <circle cx="332" cy="290" r="2"/>
    <circle cx="125" cy="179" r="2"/>
  </g>
  <g stroke="chocolate" stroke-width="1">
    <line x1="292" y1="262" x2="108" y2="258"/>
    <circle cx="292" cy="262" r="2"/>
    <circle cx="108" cy="258" r="2"/>
  </g>
  <g stroke="chocolate" stroke-width="1">
    <line x1="388" y1="186" x2="258" y2="117"/>
    <circle cx="388" cy="186" r="2"/>
    <circle cx="258" cy="117" r="2"/>
  </g>
  <g stroke="chocolate" stroke-width="1">
    <line x1="402" y1="160" x2="291" y2="101"/>
    <circle cx="402" cy="160" r="2"/>
    <circle cx="291" cy="101" r="2"/>
  </g>
  <g stroke="chocolate" stroke-width="1">
    <line x1="402" y1="160" x2="291" y2="101"/>
    <circle cx="402" cy="160" r="2"/>
    <circle cx="291" cy="101" r="2"/>
  </g>
  <g stroke="chocolate" stroke-width="1">
    <line x1="402" y1="160" x2="402" y2="160"/>
    <circle cx="402" cy="160" r="2"/>
    <circle cx="402" cy="160" r="2"/>
  </g>
  <g stroke="chocolate" stroke-width="1">
    <line x1="332" y1="290" x2="402" y2="160"/>
    <circle cx="332" cy="290" r="2"/>
    <circle cx="402" cy="160" r="2"/>
  </g>
  <g stroke="chocolate" stroke-width="1">
    <line x1="289" y1="409" x2="292" y2="262"/>
    <circle cx="289" cy="409" r="2"/>
    <circle cx="292" cy="262" r="2"/>
  </g>
  <g stroke="chocolate" stroke-width="1">
    <line x1="227" y1="408" x2="291" y2="101"/>
    <circle cx="227" cy="408" r="2"/>
    <circle cx="291" cy="101" r="2"/>
  </g>
  <g stroke="chocolate" stroke-width="1">
    <line x1="204" y1="378" x2="258" y2="117"/>
    <circle cx="204" cy="378" r="2"/>
    <circle cx="258" cy="117" r="2"/>
  </g>
  <g stroke="chocolate" stroke-width="1">
    <line x1="108" y1="258" x2="125" y2="179"/>
    <circle cx="108" cy="258" r="2"/>
    <circle cx="125" cy="179" r="2"/>
  </g>
  <g stroke="chocolate" stroke-width="1">
    <line x1="125" y1="179" x2="291" y2="101"/>
    <circle cx="125" cy="179" r="2"/>
    <circle cx="291" cy="101" r="2"/>
  </g>
  <g stroke="black" stroke-width="1">
    <line x1="5" y1="5" x2="505" y2="5"/>
    <line x1="5" y1="5" x2="5" y2="505"/>
    <line x1="505" y1="505" x2="5" y2="505"/>
    <line x1="505" y1="505" x2="505" y2="5"/>
    <line x1="105" y1="2" x2="105" y2="8"/>
    <line x1="2" y1="105" x2="8" y2="105"/>
    <line x1="105" y1="502" x2="105" y2="508"/>
    <line x1="502" y1="105" x2="508" y2="105"/>
    <line x1="205" y1="2" x2="205" y2="8"/>
    <line x1="2" y1="205" x2="8" y2="205"/>
    <line x1="205" y1="502" x2="205" y2="508"/>
    <line x1="502" y1="205" x2="508" y2="205"/>
    <line x1="305" y1="2" x2="305" y2="8"/>
    <line x1="2" y1="305" x2="8" y2="305"/>
    <line x1="305" y1="502" x2="305" y2="508"/>
    <line x1="502" y1="305" x2="508" y2="305"/>
    <line x1="405" y1="2" x2="405" y2="8"/>
    <line x1="2" y1="405" x2="8" y2="405"/>
    <line x1="405" y1="502" x2="405" y2="508"/>
    <line x1="502" y1="405" x2="508" y2="405"/>
  </g>
  <g stroke="gray" stroke-width="1" stroke-dasharray="5,5">
    <line x1="105" y1="5" x2="105" y2="505"/>
    <line x1="5" y1="105" x2="505" y2="105"/>
    <line x1="205" y1="5" x2="205" y2="505"/>
    <line x1="5" y1="205" x2="505" y2="205"/>
    <line x1="305" y1="5" x2="305" y2="505"/>
    <line x1="5" y1="305" x2="505" y2="305"/>
    <line x1="405" y1="5" x2="405" y2="505"/>
    <line x1="5" y1="405" x2="505" y2="405"/>
  </g>
</svg>
