<?xml version="1.0" standalone="no"?>
<!DOCTYPE svg PUBLIC "-//W3C//DTD SVG 1.1//EN" 
  "http://www.w3.org/Graphics/SVG/1.1/DTD/svg11.dtd">
<svg width="510" height="510" version="1.1" id="toplevel"
    xmlns="http://www.w3.org/2000/svg"
    xmlns:xlink="http://www.w3.org/1999/xlink">
  <polygon points="209,389 289,389 411,241 400,181 262,206 275,163 134,121 99,241"
           fill="bisque"/>
  <polygon points="252,241 258,220 262,241" fill="bisque"/>
  <g stroke="chocolate" stroke-width="1">
    <line x1="209" y1="389" x2="289" y2="389"/>
    <circle cx="209" cy="389" r="2"/>
    <circle cx="289" cy="389" r="2"/>
  </g>
  <g stroke="chocolate" stroke-width="1">
    <line x1="289" y1="389" x2="411" y2="241"/>
    <circle cx="289" cy="389" r="2"/>
    <circle cx="411" cy="241" r="2"/>
  </g>
  <g stroke="chocolate" stroke-width="1">
    <line x1="121" y1="271" x2="387" y2="271"/>
    <circle cx="121" cy="271" r="2"/>
    <circle cx="387" cy="271" r="2"/>
  </g>
  <g stroke="chocolate" stroke-width="1">
    <line x1="99" y1="241" x2="411" y2="241"/>
    <circle cx="99" cy="241" r="2"/>
    <circle cx="411" cy="241" r="2"/>
  </g>
  <g stroke="chocolate" stroke-width="1">
    <line x1="256" y1="208" x2="400" y2="181"/>
    <circle cx="256" cy="208" r="2"/>
    <circle cx="400" cy="181" r="2"/>
  </g>
  <g stroke="chocolate" stroke-width="1">
    <line x1="209" y1="389" x2="99" y2="241"/>
    <circle cx="209" cy="389" r="2"/>
    <circle cx="99" cy="241" r="2"/>
  </g>
  <g stroke="chocolate" stroke-width="1">
    <line x1="209" y1="389" x2="275" y2="163"/>
    <circle cx="209" cy="389" r="2"/>
    <circle cx="275" cy="163" r="2"/>
  </g>
  <g stroke="chocolate" stroke-width="1">
    <line x1="121" y1="271" x2="162" y2="130"/>
    <circle cx="121" cy="271" r="2"/>
    <circle cx="162" cy="130" r="2"/>
  </g>
  <g stroke="chocolate" stroke-width="1">
    <line x1="99" y1="241" x2="134" y2="121"/>
    <circle cx="99" cy="241" r="2"/>
    <circle cx="134" cy="121" r="2"/>
  </g>
  <g stroke="chocolate" stroke-width="1">
    <line x1="99" y1="241" x2="134" y2="121"/>
    <circle cx="99" cy="241" r="2"/>
    <circle cx="134" cy="121" r="2"/>
  </g>
  <g stroke="chocolate" stroke-width="1">
    <line x1="275" y1="163" x2="134" y2="121"/>
    <circle cx="275" cy="163" r="2"/>
    <circle cx="134" cy="121" r="2"/>
  </g>
  <g stroke="chocolate" stroke-width="1">
    <line x1="134" y1="121" x2="134" y2="121"/>
    <circle cx="134" cy="121" r="2"/>
    <circle cx="134" cy="121" r="2"/>
  </g>
  <g stroke="chocolate" stroke-width="1">
    <line x1="289" y1="389" x2="256" y2="208"/>
    <circle cx="289" cy="389" r="2"/>
    <circle cx="256" cy="208" r="2"/>
  </g>
  <g stroke="chocolate" stroke-width="1">
    <line x1="387" y1="271" x2="371" y2="186"/>
    <circle cx="387" cy="271" r="2"/>
    <circle cx="371" cy="186" r="2"/>
  </g>
  <g stroke="chocolate" stroke-width="1">
    <line x1="411" y1="241" x2="400" y2="181"/>
    <circle cx="411" cy="241" r="2"/>
    <circle cx="400" cy="181" r="2"/>
  </g>
  <g stroke="black" stroke-width="1">
    <line x1="5" y1="5" x2="505" y2="5"/>
    <line x1="5" y1="5" x2="5" y2="505"/>
    <line x1="505" y1="505" x2="5" y2="505"/>
    <line x1="505" y1="505" x2="505" y2="5"/>
    <line x1="105" y1="2" x2="105" y2="8"/>
    <line x1="2" y1="105" x2="8" y2="105"/>
    <line x1="105" y1="502" x2="105" y2="508"/>
    <line x1="502" y1="105" x2="508" y2="105"/>
    <line x1="205" y1="2" x2="205" y2="8"/>
    <line x1="2" y1="205" x2="8" y2="205"/>
    <line x1="205" y1="502" x2="205" y2="508"/>
    <line x1="502" y1="205" x2="508" y2="205"/>
    <line x1="305" y1="2" x2="305" y2="8"/>
    <line x1="2" y1="305" x2="8" y2="305"/>
    <line x1="305" y1="502" x2="305" y2="508"/>
    <line x1="502" y1="305" x2="508" y2="305"/>
    <line x1="405" y1="2" x2="405" y2="8"/>
    <line x1="2" y1="405" x2="8" y2="405"/>
    <line x1="405" y1="502" x2="405" y2="508"/>
    <line x1="502" y1="405" x2="508" y2="405"/>
  </g>
  <g stroke="gray" stroke-width="1" stroke-dasharray="5,5">
    <line x1="105" y1="5" x2="105" y2="505"/>
    <line x1="5" y1="105" x2="505" y2="105"/>
    <line x1="205" y1="5" x2="205" y2="505"/>
    <line x1="5" y1="205" x2="505" y2="205"/>
    <line x1="305" y1="5" x2="305" y2="505"/>
    <line x1="5" y1="305" x2="505" y2="305"/>
    <line x1="405" y1="5" x2="405" y2="505"/>
    <line x1="5" y1="405" x2="505" y2="405"/>
  </g>
</svg>
