<?xml version="1.0" standalone="no"?>
<!DOCTYPE svg PUBLIC "-//W3C//DTD SVG 1.1//EN" 
  "http://www.w3.org/Graphics/SVG/1.1/DTD/svg11.dtd">
<svg width="510" height="510" version="1.1" id="toplevel"
    xmlns="http://www.w3.org/2000/svg"
    xmlns:xlink="http://www.w3.org/1999/xlink">
  <polygon points="238,410 300,408 295,267 337,287 399,153 286,100 123,187 111,267"
           fill="bisque"/>
  <polygon points="261,262 262,252 282,261" fill="bisque"/>
  <g stroke="chocolate" stroke-width="1">
    <line x1="238" y1="410" x2="300" y2="408"/>
    <circle cx="238" cy="410" r="2"/>
    <circle cx="300" cy="408" r="2"/>
  </g>
  <g stroke="chocolate" stroke-width="1">
    <line x1="212" y1="381" x2="299" y2="378"/>
    <circle cx="212" cy="381" r="2"/>
    <circle cx="299" cy="378" r="2"/>
  </g>
  <g stroke="chocolate" stroke-width="1">
    <line x1="238" y1="410" x2="111" y2="267"/>
    <circle cx="238" cy="410" r="2"/>
    <circle cx="111" cy="267" r="2"/>
  </g>
  <g stroke="chocolate" stroke-width="1">
    <line x1="337" y1="287" x2="123" y2="187"/>
    <circle cx="337" cy="287" r="2"/>
    <circle cx="123" cy="187" r="2"/>
  </g>
  <g stroke="chocolate" stroke-width="1">
    <line x1="111" y1="267" x2="295" y2="261"/>
    <circle cx="111" cy="267" r="2"/>
    <circle cx="295" cy="261" r="2"/>
  </g>
  <g stroke="chocolate" stroke-width="1">
    <line x1="386" y1="180" x2="253" y2="118"/>
    <circle cx="386" cy="180" r="2"/>
    <circle cx="253" cy="118" r="2"/>
  </g>
  <g stroke="chocolate" stroke-width="1">
    <line x1="300" y1="408" x2="295" y2="261"/>
    <circle cx="300" cy="408" r="2"/>
    <circle cx="295" cy="261" r="2"/>
  </g>
  <g stroke="chocolate" stroke-width="1">
    <line x1="399" y1="153" x2="286" y2="100"/>
    <circle cx="399" cy="153" r="2"/>
    <circle cx="286" cy="100" r="2"/>
  </g>
  <g stroke="chocolate" stroke-width="1">
    <line x1="399" y1="153" x2="286" y2="100"/>
    <circle cx="399" cy="153" r="2"/>
    <circle cx="286" cy="100" r="2"/>
  </g>
  <g stroke="chocolate" stroke-width="1">
    <line x1="399" y1="153" x2="399" y2="153"/>
    <circle cx="399" cy="153" r="2"/>
    <circle cx="399" cy="153" r="2"/>
  </g>
  <g stroke="chocolate" stroke-width="1">
    <line x1="337" y1="287" x2="399" y2="153"/>
    <circle cx="337" cy="287" r="2"/>
    <circle cx="399" cy="153" r="2"/>
  </g>
  <g stroke="chocolate" stroke-width="1">
    <line x1="238" y1="410" x2="286" y2="100"/>
    <circle cx="238" cy="410" r="2"/>
    <circle cx="286" cy="100" r="2"/>
  </g>
  <g stroke="chocolate" stroke-width="1">
    <line x1="212" y1="381" x2="253" y2="118"/>
    <circle cx="212" cy="381" r="2"/>
    <circle cx="253" cy="118" r="2"/>
  </g>
  <g stroke="chocolate" stroke-width="1">
    <line x1="111" y1="267" x2="123" y2="187"/>
    <circle cx="111" cy="267" r="2"/>
    <circle cx="123" cy="187" r="2"/>
  </g>
  <g stroke="chocolate" stroke-width="1">
    <line x1="123" y1="187" x2="286" y2="100"/>
    <circle cx="123" cy="187" r="2"/>
    <circle cx="286" cy="100" r="2"/>
  </g>
  <g stroke="black" stroke-width="1">
    <line x1="5" y1="5" x2="505" y2="5"/>
    <line x1="5" y1="5" x2="5" y2="505"/>
    <line x1="505" y1="505" x2="5" y2="505"/>
    <line x1="505" y1="505" x2="505" y2="5"/>
    <line x1="105" y1="2" x2="105" y2="8"/>
    <line x1="2" y1="105" x2="8" y2="105"/>
    <line x1="105" y1="502" x2="105" y2="508"/>
    <line x1="502" y1="105" x2="508" y2="105"/>
    <line x1="205" y1="2" x2="205" y2="8"/>
    <line x1="2" y1="205" x2="8" y2="205"/>
    <line x1="205" y1="502" x2="205" y2="508"/>
    <line x1="502" y1="205" x2="508" y2="205"/>
    <line x1="305" y1="2" x2="305" y2="8"/>
    <line x1="2" y1="305" x2="8" y2="305"/>
    <line x1="305" y1="502" x2="305" y2="508"/>
    <line x1="502" y1="305" x2="508" y2="305"/>
    <line x1="405" y1="2" x2="405" y2="8"/>
    <line x1="2" y1="405" x2="8" y2="405"/>
    <line x1="405" y1="502" x2="405" y2="508"/>
    <line x1="502" y1="405" x2="508" y2="405"/>
  </g>
  <g stroke="gray" stroke-width="1" stroke-dasharray="5,5">
    <line x1="105" y1="5" x2="105" y2="505"/>
    <line x1="5" y1="105" x2="505" y2="105"/>
    <line x1="205" y1="5" x2="205" y2="505"/>
    <line x1="5" y1="205" x2="505" y2="205"/>
    <line x1="305" y1="5" x2="305" y2="505"/>
    <line x1="5" y1="305" x2="505" y2="305"/>
    <line x1="405" y1="5" x2="405" y2="505"/>
    <line x1="5" y1="405" x2="505" y2="405"/>
  </g>
</svg>
