<?xml version="1.0" standalone="no"?>
<!DOCTYPE svg PUBLIC "-//W3C//DTD SVG 1.1//EN" 
  "http://www.w3.org/Graphics/SVG/1.1/DTD/svg11.dtd">
<svg width="510" height="510" version="1.1" id="toplevel"
    xmlns="http://www.w3.org/2000/svg"
    xmlns:xlink="http://www.w3.org/1999/xlink">
  <polygon points="132,412 211,384 198,309 446,351 484,288 424,252 391,98 164,108 26,280 68,384 122,384"
           fill="bisque"/>
  <g stroke="chocolate" stroke-width="1">
    <line x1="446" y1="351" x2="484" y2="288"/>
    <circle cx="446" cy="351" r="2"/>
    <circle cx="484" cy="288" r="2"/>
  </g>
  <g stroke="chocolate" stroke-width="1">
    <line x1="68" y1="384" x2="191" y2="267"/>
    <circle cx="68" cy="384" r="2"/>
    <circle cx="191" cy="267" r="2"/>
  </g>
  <g stroke="chocolate" stroke-width="1">
    <line x1="132" y1="412" x2="211" y2="384"/>
    <circle cx="132" cy="412" r="2"/>
    <circle cx="211" cy="384" r="2"/>
  </g>
  <g stroke="chocolate" stroke-width="1">
    <line x1="97" y1="224" x2="131" y2="150"/>
    <circle cx="97" cy="224" r="2"/>
    <circle cx="131" cy="150" r="2"/>
  </g>
  <g stroke="chocolate" stroke-width="1">
    <line x1="26" y1="280" x2="164" y2="108"/>
    <circle cx="26" cy="280" r="2"/>
    <circle cx="164" cy="108" r="2"/>
  </g>
  <g stroke="chocolate" stroke-width="1">
    <line x1="371" y1="265" x2="391" y2="98"/>
    <circle cx="371" cy="265" r="2"/>
    <circle cx="391" cy="98" r="2"/>
  </g>
  <g stroke="chocolate" stroke-width="1">
    <line x1="131" y1="150" x2="188" y2="107"/>
    <circle cx="131" cy="150" r="2"/>
    <circle cx="188" cy="107" r="2"/>
  </g>
  <g stroke="chocolate" stroke-width="1">
    <line x1="68" y1="384" x2="211" y2="384"/>
    <circle cx="68" cy="384" r="2"/>
    <circle cx="211" cy="384" r="2"/>
  </g>
  <g stroke="chocolate" stroke-width="1">
    <line x1="211" y1="384" x2="164" y2="108"/>
    <circle cx="211" cy="384" r="2"/>
    <circle cx="164" cy="108" r="2"/>
  </g>
  <g stroke="chocolate" stroke-width="1">
    <line x1="68" y1="384" x2="26" y2="280"/>
    <circle cx="68" cy="384" r="2"/>
    <circle cx="26" cy="280" r="2"/>
  </g>
  <g stroke="chocolate" stroke-width="1">
    <line x1="132" y1="412" x2="68" y2="228"/>
    <circle cx="132" cy="412" r="2"/>
    <circle cx="68" cy="228" r="2"/>
  </g>
  <g stroke="chocolate" stroke-width="1">
    <line x1="446" y1="351" x2="391" y2="98"/>
    <circle cx="446" cy="351" r="2"/>
    <circle cx="391" cy="98" r="2"/>
  </g>
  <g stroke="chocolate" stroke-width="1">
    <line x1="446" y1="351" x2="26" y2="280"/>
    <circle cx="446" cy="351" r="2"/>
    <circle cx="26" cy="280" r="2"/>
  </g>
  <g stroke="chocolate" stroke-width="1">
    <line x1="371" y1="265" x2="68" y2="228"/>
    <circle cx="371" cy="265" r="2"/>
    <circle cx="68" cy="228" r="2"/>
  </g>
  <g stroke="chocolate" stroke-width="1">
    <line x1="191" y1="267" x2="97" y2="224"/>
    <circle cx="191" cy="267" r="2"/>
    <circle cx="97" cy="224" r="2"/>
  </g>
  <g stroke="chocolate" stroke-width="1">
    <line x1="164" y1="108" x2="391" y2="98"/>
    <circle cx="164" cy="108" r="2"/>
    <circle cx="391" cy="98" r="2"/>
  </g>
  <g stroke="chocolate" stroke-width="1">
    <line x1="484" y1="288" x2="188" y2="107"/>
    <circle cx="484" cy="288" r="2"/>
    <circle cx="188" cy="107" r="2"/>
  </g>
  <g stroke="black" stroke-width="1">
    <line x1="5" y1="5" x2="505" y2="5"/>
    <line x1="5" y1="5" x2="5" y2="505"/>
    <line x1="505" y1="505" x2="5" y2="505"/>
    <line x1="505" y1="505" x2="505" y2="5"/>
    <line x1="105" y1="2" x2="105" y2="8"/>
    <line x1="2" y1="105" x2="8" y2="105"/>
    <line x1="105" y1="502" x2="105" y2="508"/>
    <line x1="502" y1="105" x2="508" y2="105"/>
    <line x1="205" y1="2" x2="205" y2="8"/>
    <line x1="2" y1="205" x2="8" y2="205"/>
    <line x1="205" y1="502" x2="205" y2="508"/>
    <line x1="502" y1="205" x2="508" y2="205"/>
    <line x1="305" y1="2" x2="305" y2="8"/>
    <line x1="2" y1="305" x2="8" y2="305"/>
    <line x1="305" y1="502" x2="305" y2="508"/>
    <line x1="502" y1="305" x2="508" y2="305"/>
    <line x1="405" y1="2" x2="405" y2="8"/>
    <line x1="2" y1="405" x2="8" y2="405"/>
    <line x1="405" y1="502" x2="405" y2="508"/>
    <line x1="502" y1="405" x2="508" y2="405"/>
  </g>
  <g stroke="gray" stroke-width="1" stroke-dasharray="5,5">
    <line x1="105" y1="5" x2="105" y2="505"/>
    <line x1="5" y1="105" x2="505" y2="105"/>
    <line x1="205" y1="5" x2="205" y2="505"/>
    <line x1="5" y1="205" x2="505" y2="205"/>
    <line x1="305" y1="5" x2="305" y2="505"/>
    <line x1="5" y1="305" x2="505" y2="305"/>
    <line x1="405" y1="5" x2="405" y2="505"/>
    <line x1="5" y1="405" x2="505" y2="405"/>
  </g>
</svg>
