<?xml version="1.0" standalone="no"?>
<!DOCTYPE svg PUBLIC "-//W3C//DTD SVG 1.1//EN" 
  "http://www.w3.org/Graphics/SVG/1.1/DTD/svg11.dtd">
<svg width="510" height="510" version="1.1" id="toplevel"
    xmlns="http://www.w3.org/2000/svg"
    xmlns:xlink="http://www.w3.org/1999/xlink">
  <polygon points="258,407 283,268 319,296 407,178 307,103 131,155 103,230 197,396"
           fill="bisque"/>
  <polygon points="271,260 250,256 254,247" fill="bisque"/>
  <g stroke="chocolate" stroke-width="1">
    <line x1="258" y1="407" x2="197" y2="396"/>
    <circle cx="258" cy="407" r="2"/>
    <circle cx="197" cy="396" r="2"/>
  </g>
  <g stroke="chocolate" stroke-width="1">
    <line x1="263" y1="378" x2="178" y2="363"/>
    <circle cx="263" cy="378" r="2"/>
    <circle cx="178" cy="363" r="2"/>
  </g>
  <g stroke="chocolate" stroke-width="1">
    <line x1="197" y1="396" x2="103" y2="230"/>
    <circle cx="197" cy="396" r="2"/>
    <circle cx="103" cy="230" r="2"/>
  </g>
  <g stroke="chocolate" stroke-width="1">
    <line x1="319" y1="296" x2="131" y2="155"/>
    <circle cx="319" cy="296" r="2"/>
    <circle cx="131" cy="155" r="2"/>
  </g>
  <g stroke="chocolate" stroke-width="1">
    <line x1="284" y1="262" x2="103" y2="230"/>
    <circle cx="284" cy="262" r="2"/>
    <circle cx="103" cy="230" r="2"/>
  </g>
  <g stroke="chocolate" stroke-width="1">
    <line x1="390" y1="202" x2="272" y2="113"/>
    <circle cx="390" cy="202" r="2"/>
    <circle cx="272" cy="113" r="2"/>
  </g>
  <g stroke="chocolate" stroke-width="1">
    <line x1="407" y1="178" x2="307" y2="103"/>
    <circle cx="407" cy="178" r="2"/>
    <circle cx="307" cy="103" r="2"/>
  </g>
  <g stroke="chocolate" stroke-width="1">
    <line x1="407" y1="178" x2="307" y2="103"/>
    <circle cx="407" cy="178" r="2"/>
    <circle cx="307" cy="103" r="2"/>
  </g>
  <g stroke="chocolate" stroke-width="1">
    <line x1="407" y1="178" x2="407" y2="178"/>
    <circle cx="407" cy="178" r="2"/>
    <circle cx="407" cy="178" r="2"/>
  </g>
  <g stroke="chocolate" stroke-width="1">
    <line x1="319" y1="296" x2="407" y2="178"/>
    <circle cx="319" cy="296" r="2"/>
    <circle cx="407" cy="178" r="2"/>
  </g>
  <g stroke="chocolate" stroke-width="1">
    <line x1="258" y1="407" x2="284" y2="262"/>
    <circle cx="258" cy="407" r="2"/>
    <circle cx="284" cy="262" r="2"/>
  </g>
  <g stroke="chocolate" stroke-width="1">
    <line x1="197" y1="396" x2="307" y2="103"/>
    <circle cx="197" cy="396" r="2"/>
    <circle cx="307" cy="103" r="2"/>
  </g>
  <g stroke="chocolate" stroke-width="1">
    <line x1="178" y1="363" x2="272" y2="113"/>
    <circle cx="178" cy="363" r="2"/>
    <circle cx="272" cy="113" r="2"/>
  </g>
  <g stroke="chocolate" stroke-width="1">
    <line x1="103" y1="230" x2="131" y2="155"/>
    <circle cx="103" cy="230" r="2"/>
    <circle cx="131" cy="155" r="2"/>
  </g>
  <g stroke="chocolate" stroke-width="1">
    <line x1="131" y1="155" x2="307" y2="103"/>
    <circle cx="131" cy="155" r="2"/>
    <circle cx="307" cy="103" r="2"/>
  </g>
  <g stroke="black" stroke-width="1">
    <line x1="5" y1="5" x2="505" y2="5"/>
    <line x1="5" y1="5" x2="5" y2="505"/>
    <line x1="505" y1="505" x2="5" y2="505"/>
    <line x1="505" y1="505" x2="505" y2="5"/>
    <line x1="105" y1="2" x2="105" y2="8"/>
    <line x1="2" y1="105" x2="8" y2="105"/>
    <line x1="105" y1="502" x2="105" y2="508"/>
    <line x1="502" y1="105" x2="508" y2="105"/>
    <line x1="205" y1="2" x2="205" y2="8"/>
    <line x1="2" y1="205" x2="8" y2="205"/>
    <line x1="205" y1="502" x2="205" y2="508"/>
    <line x1="502" y1="205" x2="508" y2="205"/>
    <line x1="305" y1="2" x2="305" y2="8"/>
    <line x1="2" y1="305" x2="8" y2="305"/>
    <line x1="305" y1="502" x2="305" y2="508"/>
    <line x1="502" y1="305" x2="508" y2="305"/>
    <line x1="405" y1="2" x2="405" y2="8"/>
    <line x1="2" y1="405" x2="8" y2="405"/>
    <line x1="405" y1="502" x2="405" y2="508"/>
    <line x1="502" y1="405" x2="508" y2="405"/>
  </g>
  <g stroke="gray" stroke-width="1" stroke-dasharray="5,5">
    <line x1="105" y1="5" x2="105" y2="505"/>
    <line x1="5" y1="105" x2="505" y2="105"/>
    <line x1="205" y1="5" x2="205" y2="505"/>
    <line x1="5" y1="205" x2="505" y2="205"/>
    <line x1="305" y1="5" x2="305" y2="505"/>
    <line x1="5" y1="305" x2="505" y2="305"/>
    <line x1="405" y1="5" x2="405" y2="505"/>
    <line x1="5" y1="405" x2="505" y2="405"/>
  </g>
</svg>
