<?xml version="1.0" standalone="no"?>
<!DOCTYPE svg PUBLIC "-//W3C//DTD SVG 1.1//EN" 
  "http://www.w3.org/Graphics/SVG/1.1/DTD/svg11.dtd">
<svg width="510" height="510" version="1.1" id="toplevel"
    xmlns="http://www.w3.org/2000/svg"
    xmlns:xlink="http://www.w3.org/1999/xlink">
  <polygon points="167,402 358,396 396,347 286,261 327,241 265,108 151,161 114,341"
           fill="bisque"/>
  <polygon points="259,284 253,276 273,267" fill="bisque"/>
  <g stroke="chocolate" stroke-width="1">
    <line x1="167" y1="402" x2="358" y2="396"/>
    <circle cx="167" cy="402" r="2"/>
    <circle cx="358" cy="396" r="2"/>
  </g>
  <g stroke="chocolate" stroke-width="1">
    <line x1="167" y1="402" x2="114" y2="341"/>
    <circle cx="167" cy="402" r="2"/>
    <circle cx="114" cy="341" r="2"/>
  </g>
  <g stroke="chocolate" stroke-width="1">
    <line x1="358" y1="396" x2="396" y2="347"/>
    <circle cx="358" cy="396" r="2"/>
    <circle cx="396" cy="347" r="2"/>
  </g>
  <g stroke="chocolate" stroke-width="1">
    <line x1="320" y1="397" x2="373" y2="329"/>
    <circle cx="320" cy="397" r="2"/>
    <circle cx="373" cy="329" r="2"/>
  </g>
  <g stroke="chocolate" stroke-width="1">
    <line x1="114" y1="341" x2="327" y2="241"/>
    <circle cx="114" cy="341" r="2"/>
    <circle cx="327" cy="241" r="2"/>
  </g>
  <g stroke="chocolate" stroke-width="1">
    <line x1="320" y1="397" x2="144" y2="197"/>
    <circle cx="320" cy="397" r="2"/>
    <circle cx="144" cy="197" r="2"/>
  </g>
  <g stroke="chocolate" stroke-width="1">
    <line x1="396" y1="347" x2="280" y2="257"/>
    <circle cx="396" cy="347" r="2"/>
    <circle cx="280" cy="257" r="2"/>
  </g>
  <g stroke="chocolate" stroke-width="1">
    <line x1="358" y1="396" x2="151" y2="161"/>
    <circle cx="358" cy="396" r="2"/>
    <circle cx="151" cy="161" r="2"/>
  </g>
  <g stroke="chocolate" stroke-width="1">
    <line x1="167" y1="402" x2="280" y2="257"/>
    <circle cx="167" cy="402" r="2"/>
    <circle cx="280" cy="257" r="2"/>
  </g>
  <g stroke="chocolate" stroke-width="1">
    <line x1="144" y1="197" x2="277" y2="135"/>
    <circle cx="144" cy="197" r="2"/>
    <circle cx="277" cy="135" r="2"/>
  </g>
  <g stroke="chocolate" stroke-width="1">
    <line x1="151" y1="161" x2="265" y2="108"/>
    <circle cx="151" cy="161" r="2"/>
    <circle cx="265" cy="108" r="2"/>
  </g>
  <g stroke="chocolate" stroke-width="1">
    <line x1="151" y1="161" x2="265" y2="108"/>
    <circle cx="151" cy="161" r="2"/>
    <circle cx="265" cy="108" r="2"/>
  </g>
  <g stroke="chocolate" stroke-width="1">
    <line x1="327" y1="241" x2="265" y2="108"/>
    <circle cx="327" cy="241" r="2"/>
    <circle cx="265" cy="108" r="2"/>
  </g>
  <g stroke="chocolate" stroke-width="1">
    <line x1="265" y1="108" x2="265" y2="108"/>
    <circle cx="265" cy="108" r="2"/>
    <circle cx="265" cy="108" r="2"/>
  </g>
  <g stroke="chocolate" stroke-width="1">
    <line x1="114" y1="341" x2="151" y2="161"/>
    <circle cx="114" cy="341" r="2"/>
    <circle cx="151" cy="161" r="2"/>
  </g>
  <g stroke="black" stroke-width="1">
    <line x1="5" y1="5" x2="505" y2="5"/>
    <line x1="5" y1="5" x2="5" y2="505"/>
    <line x1="505" y1="505" x2="5" y2="505"/>
    <line x1="505" y1="505" x2="505" y2="5"/>
    <line x1="105" y1="2" x2="105" y2="8"/>
    <line x1="2" y1="105" x2="8" y2="105"/>
    <line x1="105" y1="502" x2="105" y2="508"/>
    <line x1="502" y1="105" x2="508" y2="105"/>
    <line x1="205" y1="2" x2="205" y2="8"/>
    <line x1="2" y1="205" x2="8" y2="205"/>
    <line x1="205" y1="502" x2="205" y2="508"/>
    <line x1="502" y1="205" x2="508" y2="205"/>
    <line x1="305" y1="2" x2="305" y2="8"/>
    <line x1="2" y1="305" x2="8" y2="305"/>
    <line x1="305" y1="502" x2="305" y2="508"/>
    <line x1="502" y1="305" x2="508" y2="305"/>
    <line x1="405" y1="2" x2="405" y2="8"/>
    <line x1="2" y1="405" x2="8" y2="405"/>
    <line x1="405" y1="502" x2="405" y2="508"/>
    <line x1="502" y1="405" x2="508" y2="405"/>
  </g>
  <g stroke="gray" stroke-width="1" stroke-dasharray="5,5">
    <line x1="105" y1="5" x2="105" y2="505"/>
    <line x1="5" y1="105" x2="505" y2="105"/>
    <line x1="205" y1="5" x2="205" y2="505"/>
    <line x1="5" y1="205" x2="505" y2="205"/>
    <line x1="305" y1="5" x2="305" y2="505"/>
    <line x1="5" y1="305" x2="505" y2="305"/>
    <line x1="405" y1="5" x2="405" y2="505"/>
    <line x1="5" y1="405" x2="505" y2="405"/>
  </g>
</svg>
