<?xml version="1.0" standalone="no"?>
<!DOCTYPE svg PUBLIC "-//W3C//DTD SVG 1.1//EN" 
  "http://www.w3.org/Graphics/SVG/1.1/DTD/svg11.dtd">
<svg width="510" height="510" version="1.1" id="toplevel"
    xmlns="http://www.w3.org/2000/svg"
    xmlns:xlink="http://www.w3.org/1999/xlink">
  <polygon points="307,388 335,366 410,371 414,306 427,296 416,282 418,253 385,241 370,222 387,206 357,170 369,131 351,116 345,34 257,40 235,111 201,139 293,376"
           fill="bisque"/>
  <g stroke="chocolate" stroke-width="1">
    <line x1="371" y1="320" x2="418" y2="253"/>
    <circle cx="371" cy="320" r="2"/>
    <circle cx="418" cy="253" r="2"/>
  </g>
  <g stroke="chocolate" stroke-width="1">
    <line x1="307" y1="388" x2="364" y2="284"/>
    <circle cx="307" cy="388" r="2"/>
    <circle cx="364" cy="284" r="2"/>
  </g>
  <g stroke="chocolate" stroke-width="1">
    <line x1="366" y1="318" x2="372" y2="313"/>
    <circle cx="366" cy="318" r="2"/>
    <circle cx="372" cy="313" r="2"/>
  </g>
  <g stroke="chocolate" stroke-width="1">
    <line x1="288" y1="363" x2="364" y2="284"/>
    <circle cx="288" cy="363" r="2"/>
    <circle cx="364" cy="284" r="2"/>
  </g>
  <g stroke="chocolate" stroke-width="1">
    <line x1="307" y1="388" x2="427" y2="296"/>
    <circle cx="307" cy="388" r="2"/>
    <circle cx="427" cy="296" r="2"/>
  </g>
  <g stroke="chocolate" stroke-width="1">
    <line x1="308" y1="320" x2="369" y2="131"/>
    <circle cx="308" cy="320" r="2"/>
    <circle cx="369" cy="131" r="2"/>
  </g>
  <g stroke="chocolate" stroke-width="1">
    <line x1="266" y1="305" x2="307" y2="228"/>
    <circle cx="266" cy="305" r="2"/>
    <circle cx="307" cy="228" r="2"/>
  </g>
  <g stroke="chocolate" stroke-width="1">
    <line x1="272" y1="282" x2="307" y2="228"/>
    <circle cx="272" cy="282" r="2"/>
    <circle cx="307" cy="228" r="2"/>
  </g>
  <g stroke="chocolate" stroke-width="1">
    <line x1="371" y1="320" x2="372" y2="313"/>
    <circle cx="371" cy="320" r="2"/>
    <circle cx="372" cy="313" r="2"/>
  </g>
  <g stroke="chocolate" stroke-width="1">
    <line x1="272" y1="282" x2="275" y2="265"/>
    <circle cx="272" cy="282" r="2"/>
    <circle cx="275" cy="265" r="2"/>
  </g>
  <g stroke="chocolate" stroke-width="1">
    <line x1="271" y1="319" x2="387" y2="206"/>
    <circle cx="271" cy="319" r="2"/>
    <circle cx="387" cy="206" r="2"/>
  </g>
  <g stroke="chocolate" stroke-width="1">
    <line x1="293" y1="376" x2="314" y2="198"/>
    <circle cx="293" cy="376" r="2"/>
    <circle cx="314" cy="198" r="2"/>
  </g>
  <g stroke="chocolate" stroke-width="1">
    <line x1="215" y1="175" x2="257" y2="40"/>
    <circle cx="215" cy="175" r="2"/>
    <circle cx="257" cy="40" r="2"/>
  </g>
  <g stroke="chocolate" stroke-width="1">
    <line x1="410" y1="371" x2="418" y2="253"/>
    <circle cx="410" cy="371" r="2"/>
    <circle cx="418" cy="253" r="2"/>
  </g>
  <g stroke="chocolate" stroke-width="1">
    <line x1="219" y1="183" x2="221" y2="179"/>
    <circle cx="219" cy="183" r="2"/>
    <circle cx="221" cy="179" r="2"/>
  </g>
  <g stroke="chocolate" stroke-width="1">
    <line x1="308" y1="320" x2="314" y2="198"/>
    <circle cx="308" cy="320" r="2"/>
    <circle cx="314" cy="198" r="2"/>
  </g>
  <g stroke="chocolate" stroke-width="1">
    <line x1="218" y1="182" x2="221" y2="179"/>
    <circle cx="218" cy="182" r="2"/>
    <circle cx="221" cy="179" r="2"/>
  </g>
  <g stroke="chocolate" stroke-width="1">
    <line x1="366" y1="318" x2="345" y2="34"/>
    <circle cx="366" cy="318" r="2"/>
    <circle cx="345" cy="34" r="2"/>
  </g>
  <g stroke="chocolate" stroke-width="1">
    <line x1="224" y1="197" x2="298" y2="128"/>
    <circle cx="224" cy="197" r="2"/>
    <circle cx="298" cy="128" r="2"/>
  </g>
  <g stroke="chocolate" stroke-width="1">
    <line x1="254" y1="276" x2="275" y2="265"/>
    <circle cx="254" cy="276" r="2"/>
    <circle cx="275" cy="265" r="2"/>
  </g>
  <g stroke="chocolate" stroke-width="1">
    <line x1="293" y1="376" x2="201" y2="139"/>
    <circle cx="293" cy="376" r="2"/>
    <circle cx="201" cy="139" r="2"/>
  </g>
  <g stroke="chocolate" stroke-width="1">
    <line x1="201" y1="139" x2="278" y2="76"/>
    <circle cx="201" cy="139" r="2"/>
    <circle cx="278" cy="76" r="2"/>
  </g>
  <g stroke="chocolate" stroke-width="1">
    <line x1="410" y1="371" x2="288" y2="363"/>
    <circle cx="410" cy="371" r="2"/>
    <circle cx="288" cy="363" r="2"/>
  </g>
  <g stroke="chocolate" stroke-width="1">
    <line x1="308" y1="320" x2="271" y2="319"/>
    <circle cx="308" cy="320" r="2"/>
    <circle cx="271" cy="319" r="2"/>
  </g>
  <g stroke="chocolate" stroke-width="1">
    <line x1="307" y1="388" x2="293" y2="376"/>
    <circle cx="307" cy="388" r="2"/>
    <circle cx="293" cy="376" r="2"/>
  </g>
  <g stroke="chocolate" stroke-width="1">
    <line x1="308" y1="320" x2="266" y2="305"/>
    <circle cx="308" cy="320" r="2"/>
    <circle cx="266" cy="305" r="2"/>
  </g>
  <g stroke="chocolate" stroke-width="1">
    <line x1="427" y1="296" x2="298" y2="128"/>
    <circle cx="427" cy="296" r="2"/>
    <circle cx="298" cy="128" r="2"/>
  </g>
  <g stroke="chocolate" stroke-width="1">
    <line x1="371" y1="320" x2="254" y2="276"/>
    <circle cx="371" cy="320" r="2"/>
    <circle cx="254" cy="276" r="2"/>
  </g>
  <g stroke="chocolate" stroke-width="1">
    <line x1="372" y1="313" x2="275" y2="265"/>
    <circle cx="372" cy="313" r="2"/>
    <circle cx="275" cy="265" r="2"/>
  </g>
  <g stroke="chocolate" stroke-width="1">
    <line x1="387" y1="206" x2="278" y2="76"/>
    <circle cx="387" cy="206" r="2"/>
    <circle cx="278" cy="76" r="2"/>
  </g>
  <g stroke="chocolate" stroke-width="1">
    <line x1="314" y1="198" x2="224" y2="197"/>
    <circle cx="314" cy="198" r="2"/>
    <circle cx="224" cy="197" r="2"/>
  </g>
  <g stroke="chocolate" stroke-width="1">
    <line x1="364" y1="284" x2="221" y2="179"/>
    <circle cx="364" cy="284" r="2"/>
    <circle cx="221" cy="179" r="2"/>
  </g>
  <g stroke="chocolate" stroke-width="1">
    <line x1="307" y1="228" x2="215" y2="175"/>
    <circle cx="307" cy="228" r="2"/>
    <circle cx="215" cy="175" r="2"/>
  </g>
  <g stroke="chocolate" stroke-width="1">
    <line x1="307" y1="228" x2="221" y2="179"/>
    <circle cx="307" cy="228" r="2"/>
    <circle cx="221" cy="179" r="2"/>
  </g>
  <g stroke="chocolate" stroke-width="1">
    <line x1="314" y1="198" x2="218" y2="182"/>
    <circle cx="314" cy="198" r="2"/>
    <circle cx="218" cy="182" r="2"/>
  </g>
  <g stroke="chocolate" stroke-width="1">
    <line x1="418" y1="253" x2="219" y2="183"/>
    <circle cx="418" cy="253" r="2"/>
    <circle cx="219" cy="183" r="2"/>
  </g>
  <g stroke="chocolate" stroke-width="1">
    <line x1="201" y1="139" x2="369" y2="131"/>
    <circle cx="201" cy="139" r="2"/>
    <circle cx="369" cy="131" r="2"/>
  </g>
  <g stroke="chocolate" stroke-width="1">
    <line x1="387" y1="206" x2="298" y2="128"/>
    <circle cx="387" cy="206" r="2"/>
    <circle cx="298" cy="128" r="2"/>
  </g>
  <g stroke="chocolate" stroke-width="1">
    <line x1="369" y1="131" x2="257" y2="40"/>
    <circle cx="369" cy="131" r="2"/>
    <circle cx="257" cy="40" r="2"/>
  </g>
  <g stroke="chocolate" stroke-width="1">
    <line x1="257" y1="40" x2="345" y2="34"/>
    <circle cx="257" cy="40" r="2"/>
    <circle cx="345" cy="34" r="2"/>
  </g>
  <g stroke="black" stroke-width="1">
    <line x1="5" y1="5" x2="505" y2="5"/>
    <line x1="5" y1="5" x2="5" y2="505"/>
    <line x1="505" y1="505" x2="5" y2="505"/>
    <line x1="505" y1="505" x2="505" y2="5"/>
    <line x1="105" y1="2" x2="105" y2="8"/>
    <line x1="2" y1="105" x2="8" y2="105"/>
    <line x1="105" y1="502" x2="105" y2="508"/>
    <line x1="502" y1="105" x2="508" y2="105"/>
    <line x1="205" y1="2" x2="205" y2="8"/>
    <line x1="2" y1="205" x2="8" y2="205"/>
    <line x1="205" y1="502" x2="205" y2="508"/>
    <line x1="502" y1="205" x2="508" y2="205"/>
    <line x1="305" y1="2" x2="305" y2="8"/>
    <line x1="2" y1="305" x2="8" y2="305"/>
    <line x1="305" y1="502" x2="305" y2="508"/>
    <line x1="502" y1="305" x2="508" y2="305"/>
    <line x1="405" y1="2" x2="405" y2="8"/>
    <line x1="2" y1="405" x2="8" y2="405"/>
    <line x1="405" y1="502" x2="405" y2="508"/>
    <line x1="502" y1="405" x2="508" y2="405"/>
  </g>
  <g stroke="gray" stroke-width="1" stroke-dasharray="5,5">
    <line x1="105" y1="5" x2="105" y2="505"/>
    <line x1="5" y1="105" x2="505" y2="105"/>
    <line x1="205" y1="5" x2="205" y2="505"/>
    <line x1="5" y1="205" x2="505" y2="205"/>
    <line x1="305" y1="5" x2="305" y2="505"/>
    <line x1="5" y1="305" x2="505" y2="305"/>
    <line x1="405" y1="5" x2="405" y2="505"/>
    <line x1="5" y1="405" x2="505" y2="405"/>
  </g>
</svg>
