<?xml version="1.0" standalone="no"?>
<!DOCTYPE svg PUBLIC "-//W3C//DTD SVG 1.1//EN" 
  "http://www.w3.org/Graphics/SVG/1.1/DTD/svg11.dtd">
<svg width="510" height="510" version="1.1" id="toplevel"
    xmlns="http://www.w3.org/2000/svg"
    xmlns:xlink="http://www.w3.org/1999/xlink">
  <polygon points="67,490 93,485 104,472 116,431 287,435 454,191 457,105 332,20 305,58 332,196 210,246 222,275 149,313 53,430"
           fill="bisque"/>
  <g stroke="chocolate" stroke-width="1">
    <line x1="67" y1="490" x2="53" y2="430"/>
    <circle cx="67" cy="490" r="2"/>
    <circle cx="53" cy="430" r="2"/>
  </g>
  <g stroke="chocolate" stroke-width="1">
    <line x1="104" y1="472" x2="96" y2="435"/>
    <circle cx="104" cy="472" r="2"/>
    <circle cx="96" cy="435" r="2"/>
  </g>
  <g stroke="chocolate" stroke-width="1">
    <line x1="96" y1="435" x2="95" y2="379"/>
    <circle cx="96" cy="435" r="2"/>
    <circle cx="95" cy="379" r="2"/>
  </g>
  <g stroke="chocolate" stroke-width="1">
    <line x1="287" y1="435" x2="210" y2="246"/>
    <circle cx="287" cy="435" r="2"/>
    <circle cx="210" cy="246" r="2"/>
  </g>
  <g stroke="chocolate" stroke-width="1">
    <line x1="454" y1="191" x2="457" y2="105"/>
    <circle cx="454" cy="191" r="2"/>
    <circle cx="457" cy="105" r="2"/>
  </g>
  <g stroke="chocolate" stroke-width="1">
    <line x1="418" y1="243" x2="418" y2="134"/>
    <circle cx="418" cy="243" r="2"/>
    <circle cx="418" cy="134" r="2"/>
  </g>
  <g stroke="chocolate" stroke-width="1">
    <line x1="424" y1="235" x2="424" y2="225"/>
    <circle cx="424" cy="235" r="2"/>
    <circle cx="424" cy="225" r="2"/>
  </g>
  <g stroke="chocolate" stroke-width="1">
    <line x1="420" y1="134" x2="420" y2="128"/>
    <circle cx="420" cy="134" r="2"/>
    <circle cx="420" cy="128" r="2"/>
  </g>
  <g stroke="chocolate" stroke-width="1">
    <line x1="358" y1="331" x2="305" y2="58"/>
    <circle cx="358" cy="331" r="2"/>
    <circle cx="305" cy="58" r="2"/>
  </g>
  <g stroke="chocolate" stroke-width="1">
    <line x1="96" y1="435" x2="108" y2="363"/>
    <circle cx="96" cy="435" r="2"/>
    <circle cx="108" cy="363" r="2"/>
  </g>
  <g stroke="chocolate" stroke-width="1">
    <line x1="93" y1="485" x2="115" y2="355"/>
    <circle cx="93" cy="485" r="2"/>
    <circle cx="115" cy="355" r="2"/>
  </g>
  <g stroke="chocolate" stroke-width="1">
    <line x1="431" y1="225" x2="413" y2="177"/>
    <circle cx="431" cy="225" r="2"/>
    <circle cx="413" cy="177" r="2"/>
  </g>
  <g stroke="chocolate" stroke-width="1">
    <line x1="104" y1="472" x2="149" y2="313"/>
    <circle cx="104" cy="472" r="2"/>
    <circle cx="149" cy="313" r="2"/>
  </g>
  <g stroke="chocolate" stroke-width="1">
    <line x1="287" y1="435" x2="454" y2="191"/>
    <circle cx="287" cy="435" r="2"/>
    <circle cx="454" cy="191" r="2"/>
  </g>
  <g stroke="chocolate" stroke-width="1">
    <line x1="454" y1="191" x2="420" y2="134"/>
    <circle cx="454" cy="191" r="2"/>
    <circle cx="420" cy="134" r="2"/>
  </g>
  <g stroke="chocolate" stroke-width="1">
    <line x1="438" y1="215" x2="413" y2="177"/>
    <circle cx="438" cy="215" r="2"/>
    <circle cx="413" cy="177" r="2"/>
  </g>
  <g stroke="chocolate" stroke-width="1">
    <line x1="305" y1="58" x2="332" y2="20"/>
    <circle cx="305" cy="58" r="2"/>
    <circle cx="332" cy="20" r="2"/>
  </g>
  <g stroke="chocolate" stroke-width="1">
    <line x1="93" y1="485" x2="104" y2="472"/>
    <circle cx="93" cy="485" r="2"/>
    <circle cx="104" cy="472" r="2"/>
  </g>
  <g stroke="chocolate" stroke-width="1">
    <line x1="287" y1="435" x2="53" y2="430"/>
    <circle cx="287" cy="435" r="2"/>
    <circle cx="53" cy="430" r="2"/>
  </g>
  <g stroke="chocolate" stroke-width="1">
    <line x1="53" y1="430" x2="149" y2="313"/>
    <circle cx="53" cy="430" r="2"/>
    <circle cx="149" cy="313" r="2"/>
  </g>
  <g stroke="chocolate" stroke-width="1">
    <line x1="67" y1="490" x2="93" y2="485"/>
    <circle cx="67" cy="490" r="2"/>
    <circle cx="93" cy="485" r="2"/>
  </g>
  <g stroke="chocolate" stroke-width="1">
    <line x1="95" y1="379" x2="358" y2="331"/>
    <circle cx="95" cy="379" r="2"/>
    <circle cx="358" cy="331" r="2"/>
  </g>
  <g stroke="chocolate" stroke-width="1">
    <line x1="418" y1="134" x2="305" y2="58"/>
    <circle cx="418" cy="134" r="2"/>
    <circle cx="305" cy="58" r="2"/>
  </g>
  <g stroke="chocolate" stroke-width="1">
    <line x1="331" y1="192" x2="418" y2="134"/>
    <circle cx="331" cy="192" r="2"/>
    <circle cx="418" cy="134" r="2"/>
  </g>
  <g stroke="chocolate" stroke-width="1">
    <line x1="108" y1="363" x2="418" y2="243"/>
    <circle cx="108" cy="363" r="2"/>
    <circle cx="418" cy="243" r="2"/>
  </g>
  <g stroke="chocolate" stroke-width="1">
    <line x1="115" y1="355" x2="424" y2="235"/>
    <circle cx="115" cy="355" r="2"/>
    <circle cx="424" cy="235" r="2"/>
  </g>
  <g stroke="chocolate" stroke-width="1">
    <line x1="457" y1="105" x2="332" y2="20"/>
    <circle cx="457" cy="105" r="2"/>
    <circle cx="332" cy="20" r="2"/>
  </g>
  <g stroke="chocolate" stroke-width="1">
    <line x1="420" y1="128" x2="457" y2="105"/>
    <circle cx="420" cy="128" r="2"/>
    <circle cx="457" cy="105" r="2"/>
  </g>
  <g stroke="chocolate" stroke-width="1">
    <line x1="149" y1="313" x2="455" y2="155"/>
    <circle cx="149" cy="313" r="2"/>
    <circle cx="455" cy="155" r="2"/>
  </g>
  <g stroke="chocolate" stroke-width="1">
    <line x1="455" y1="155" x2="420" y2="134"/>
    <circle cx="455" cy="155" r="2"/>
    <circle cx="420" cy="134" r="2"/>
  </g>
  <g stroke="chocolate" stroke-width="1">
    <line x1="210" y1="246" x2="456" y2="145"/>
    <circle cx="210" cy="246" r="2"/>
    <circle cx="456" cy="145" r="2"/>
  </g>
  <g stroke="chocolate" stroke-width="1">
    <line x1="456" y1="145" x2="420" y2="128"/>
    <circle cx="456" cy="145" r="2"/>
    <circle cx="420" cy="128" r="2"/>
  </g>
  <g stroke="chocolate" stroke-width="1">
    <line x1="438" y1="215" x2="331" y2="192"/>
    <circle cx="438" cy="215" r="2"/>
    <circle cx="331" cy="192" r="2"/>
  </g>
  <g stroke="chocolate" stroke-width="1">
    <line x1="424" y1="225" x2="431" y2="225"/>
    <circle cx="424" cy="225" r="2"/>
    <circle cx="431" cy="225" r="2"/>
  </g>
  <g stroke="black" stroke-width="1">
    <line x1="5" y1="5" x2="505" y2="5"/>
    <line x1="5" y1="5" x2="5" y2="505"/>
    <line x1="505" y1="505" x2="5" y2="505"/>
    <line x1="505" y1="505" x2="505" y2="5"/>
    <line x1="105" y1="2" x2="105" y2="8"/>
    <line x1="2" y1="105" x2="8" y2="105"/>
    <line x1="105" y1="502" x2="105" y2="508"/>
    <line x1="502" y1="105" x2="508" y2="105"/>
    <line x1="205" y1="2" x2="205" y2="8"/>
    <line x1="2" y1="205" x2="8" y2="205"/>
    <line x1="205" y1="502" x2="205" y2="508"/>
    <line x1="502" y1="205" x2="508" y2="205"/>
    <line x1="305" y1="2" x2="305" y2="8"/>
    <line x1="2" y1="305" x2="8" y2="305"/>
    <line x1="305" y1="502" x2="305" y2="508"/>
    <line x1="502" y1="305" x2="508" y2="305"/>
    <line x1="405" y1="2" x2="405" y2="8"/>
    <line x1="2" y1="405" x2="8" y2="405"/>
    <line x1="405" y1="502" x2="405" y2="508"/>
    <line x1="502" y1="405" x2="508" y2="405"/>
  </g>
  <g stroke="gray" stroke-width="1" stroke-dasharray="5,5">
    <line x1="105" y1="5" x2="105" y2="505"/>
    <line x1="5" y1="105" x2="505" y2="105"/>
    <line x1="205" y1="5" x2="205" y2="505"/>
    <line x1="5" y1="205" x2="505" y2="205"/>
    <line x1="305" y1="5" x2="305" y2="505"/>
    <line x1="5" y1="305" x2="505" y2="305"/>
    <line x1="405" y1="5" x2="405" y2="505"/>
    <line x1="5" y1="405" x2="505" y2="405"/>
  </g>
</svg>
