<?xml version="1.0" standalone="no"?>
<!DOCTYPE svg PUBLIC "-//W3C//DTD SVG 1.1//EN" 
  "http://www.w3.org/Graphics/SVG/1.1/DTD/svg11.dtd">
<svg width="514" height="514" version="1.1" id="toplevel"
    xmlns="http://www.w3.org/2000/svg"
    xmlns:xlink="http://www.w3.org/1999/xlink">
  <polygon points="9,507 509,507 509,257 505,256 505,16 5,16 5,52 9,54"
           fill="bisque"/>
  <g stroke="chocolate" stroke-width="1">
    <line x1="5" y1="52" x2="5" y2="16"/>
    <circle cx="5" cy="52" r="2"/>
    <circle cx="5" cy="16" r="2"/>
  </g>
  <g stroke="chocolate" stroke-width="1">
    <line x1="9" y1="507" x2="9" y2="49"/>
    <circle cx="9" cy="507" r="2"/>
    <circle cx="9" cy="49" r="2"/>
  </g>
  <g stroke="chocolate" stroke-width="1">
    <line x1="505" y1="261" x2="505" y2="16"/>
    <circle cx="505" cy="261" r="2"/>
    <circle cx="505" cy="16" r="2"/>
  </g>
  <g stroke="chocolate" stroke-width="1">
    <line x1="9" y1="507" x2="509" y2="507"/>
    <circle cx="9" cy="507" r="2"/>
    <circle cx="509" cy="507" r="2"/>
  </g>
  <g stroke="chocolate" stroke-width="1">
    <line x1="509" y1="507" x2="509" y2="257"/>
    <circle cx="509" cy="507" r="2"/>
    <circle cx="509" cy="257" r="2"/>
  </g>
  <g stroke="chocolate" stroke-width="1">
    <line x1="505" y1="261" x2="509" y2="257"/>
    <circle cx="505" cy="261" r="2"/>
    <circle cx="509" cy="257" r="2"/>
  </g>
  <g stroke="chocolate" stroke-width="1">
    <line x1="505" y1="261" x2="5" y2="52"/>
    <circle cx="505" cy="261" r="2"/>
    <circle cx="5" cy="52" r="2"/>
  </g>
  <g stroke="chocolate" stroke-width="1">
    <line x1="509" y1="257" x2="9" y2="49"/>
    <circle cx="509" cy="257" r="2"/>
    <circle cx="9" cy="49" r="2"/>
  </g>
  <g stroke="chocolate" stroke-width="1">
    <line x1="5" y1="52" x2="9" y2="49"/>
    <circle cx="5" cy="52" r="2"/>
    <circle cx="9" cy="49" r="2"/>
  </g>
  <g stroke="chocolate" stroke-width="1">
    <line x1="5" y1="16" x2="505" y2="16"/>
    <circle cx="5" cy="16" r="2"/>
    <circle cx="505" cy="16" r="2"/>
  </g>
  <g stroke="black" stroke-width="1">
    <line x1="7" y1="7" x2="507" y2="7"/>
    <line x1="7" y1="7" x2="7" y2="507"/>
    <line x1="507" y1="507" x2="7" y2="507"/>
    <line x1="507" y1="507" x2="507" y2="7"/>
    <line x1="107" y1="4" x2="107" y2="10"/>
    <line x1="4" y1="107" x2="10" y2="107"/>
    <line x1="107" y1="504" x2="107" y2="510"/>
    <line x1="504" y1="107" x2="510" y2="107"/>
    <line x1="207" y1="4" x2="207" y2="10"/>
    <line x1="4" y1="207" x2="10" y2="207"/>
    <line x1="207" y1="504" x2="207" y2="510"/>
    <line x1="504" y1="207" x2="510" y2="207"/>
    <line x1="307" y1="4" x2="307" y2="10"/>
    <line x1="4" y1="307" x2="10" y2="307"/>
    <line x1="307" y1="504" x2="307" y2="510"/>
    <line x1="504" y1="307" x2="510" y2="307"/>
    <line x1="407" y1="4" x2="407" y2="10"/>
    <line x1="4" y1="407" x2="10" y2="407"/>
    <line x1="407" y1="504" x2="407" y2="510"/>
    <line x1="504" y1="407" x2="510" y2="407"/>
  </g>
  <g stroke="gray" stroke-width="1" stroke-dasharray="5,5">
    <line x1="107" y1="7" x2="107" y2="507"/>
    <line x1="7" y1="107" x2="507" y2="107"/>
    <line x1="207" y1="7" x2="207" y2="507"/>
    <line x1="7" y1="207" x2="507" y2="207"/>
    <line x1="307" y1="7" x2="307" y2="507"/>
    <line x1="7" y1="307" x2="507" y2="307"/>
    <line x1="407" y1="7" x2="407" y2="507"/>
    <line x1="7" y1="407" x2="507" y2="407"/>
  </g>
</svg>
