<?xml version="1.0" standalone="no"?>
<!DOCTYPE svg PUBLIC "-//W3C//DTD SVG 1.1//EN" 
  "http://www.w3.org/Graphics/SVG/1.1/DTD/svg11.dtd">
<svg width="510" height="510" version="1.1" id="toplevel"
    xmlns="http://www.w3.org/2000/svg"
    xmlns:xlink="http://www.w3.org/1999/xlink">
  <polygon points="167,417 340,255 445,285 487,248 449,204 460,200 428,114 366,109 352,93 261,143 197,126 167,195 105,229 119,306 101,346" 
           fill="bisque"/>
  <g stroke="chocolate" stroke-width="1">
    <line x1="445" y1="285" x2="487" y2="248"/>
    <circle cx="445" cy="285" r="2"/>
    <circle cx="487" cy="248" r="2"/>
  </g>
  <g stroke="chocolate" stroke-width="1">
    <line x1="382" y1="197" x2="428" y2="114"/>
    <circle cx="382" cy="197" r="2"/>
    <circle cx="428" cy="114" r="2"/>
  </g>
  <g stroke="chocolate" stroke-width="1">
    <line x1="167" y1="417" x2="386" y2="212"/>
    <circle cx="167" cy="417" r="2"/>
    <circle cx="386" cy="212" r="2"/>
  </g>
  <g stroke="chocolate" stroke-width="1">
    <line x1="374" y1="249" x2="386" y2="212"/>
    <circle cx="374" cy="249" r="2"/>
    <circle cx="386" cy="212" r="2"/>
  </g>
  <g stroke="chocolate" stroke-width="1">
    <line x1="260" y1="235" x2="305" y2="159"/>
    <circle cx="260" cy="235" r="2"/>
    <circle cx="305" cy="159" r="2"/>
  </g>
  <g stroke="chocolate" stroke-width="1">
    <line x1="260" y1="235" x2="329" y2="106"/>
    <circle cx="260" cy="235" r="2"/>
    <circle cx="329" cy="106" r="2"/>
  </g>
  <g stroke="chocolate" stroke-width="1">
    <line x1="232" y1="346" x2="305" y2="159"/>
    <circle cx="232" cy="346" r="2"/>
    <circle cx="305" cy="159" r="2"/>
  </g>
  <g stroke="chocolate" stroke-width="1">
    <line x1="184" y1="210" x2="201" y2="176"/>
    <circle cx="184" cy="210" r="2"/>
    <circle cx="201" cy="176" r="2"/>
  </g>
  <g stroke="chocolate" stroke-width="1">
    <line x1="101" y1="346" x2="197" y2="126"/>
    <circle cx="101" cy="346" r="2"/>
    <circle cx="197" cy="126" r="2"/>
  </g>
  <g stroke="chocolate" stroke-width="1">
    <line x1="184" y1="210" x2="197" y2="126"/>
    <circle cx="184" cy="210" r="2"/>
    <circle cx="197" cy="126" r="2"/>
  </g>
  <g stroke="chocolate" stroke-width="1">
    <line x1="210" y1="293" x2="460" y2="200"/>
    <circle cx="210" cy="293" r="2"/>
    <circle cx="460" cy="200" r="2"/>
  </g>
  <g stroke="chocolate" stroke-width="1">
    <line x1="123" y1="327" x2="282" y2="298"/>
    <circle cx="123" cy="327" r="2"/>
    <circle cx="282" cy="298" r="2"/>
  </g>
  <g stroke="chocolate" stroke-width="1">
    <line x1="101" y1="346" x2="232" y2="346"/>
    <circle cx="101" cy="346" r="2"/>
    <circle cx="232" cy="346" r="2"/>
  </g>
  <g stroke="chocolate" stroke-width="1">
    <line x1="282" y1="298" x2="274" y2="136"/>
    <circle cx="282" cy="298" r="2"/>
    <circle cx="274" cy="136" r="2"/>
  </g>
  <g stroke="chocolate" stroke-width="1">
    <line x1="123" y1="327" x2="105" y2="229"/>
    <circle cx="123" cy="327" r="2"/>
    <circle cx="105" cy="229" r="2"/>
  </g>
  <g stroke="chocolate" stroke-width="1">
    <line x1="210" y1="293" x2="195" y2="180"/>
    <circle cx="210" cy="293" r="2"/>
    <circle cx="195" cy="180" r="2"/>
  </g>
  <g stroke="chocolate" stroke-width="1">
    <line x1="374" y1="249" x2="432" y2="241"/>
    <circle cx="374" cy="249" r="2"/>
    <circle cx="432" cy="241" r="2"/>
  </g>
  <g stroke="chocolate" stroke-width="1">
    <line x1="167" y1="417" x2="101" y2="346"/>
    <circle cx="167" cy="417" r="2"/>
    <circle cx="101" cy="346" r="2"/>
  </g>
  <g stroke="chocolate" stroke-width="1">
    <line x1="105" y1="229" x2="352" y2="93"/>
    <circle cx="105" cy="229" r="2"/>
    <circle cx="352" cy="93" r="2"/>
  </g>
  <g stroke="chocolate" stroke-width="1">
    <line x1="282" y1="298" x2="210" y2="293"/>
    <circle cx="282" cy="298" r="2"/>
    <circle cx="210" cy="293" r="2"/>
  </g>
  <g stroke="chocolate" stroke-width="1">
    <line x1="382" y1="197" x2="352" y2="93"/>
    <circle cx="382" cy="197" r="2"/>
    <circle cx="352" cy="93" r="2"/>
  </g>
  <g stroke="chocolate" stroke-width="1">
    <line x1="232" y1="346" x2="105" y2="229"/>
    <circle cx="232" cy="346" r="2"/>
    <circle cx="105" cy="229" r="2"/>
  </g>
  <g stroke="chocolate" stroke-width="1">
    <line x1="445" y1="285" x2="432" y2="241"/>
    <circle cx="445" cy="285" r="2"/>
    <circle cx="432" cy="241" r="2"/>
  </g>
  <g stroke="chocolate" stroke-width="1">
    <line x1="460" y1="200" x2="428" y2="114"/>
    <circle cx="460" cy="200" r="2"/>
    <circle cx="428" cy="114" r="2"/>
  </g>
  <g stroke="chocolate" stroke-width="1">
    <line x1="445" y1="285" x2="184" y2="210"/>
    <circle cx="445" cy="285" r="2"/>
    <circle cx="184" cy="210" r="2"/>
  </g>
  <g stroke="chocolate" stroke-width="1">
    <line x1="260" y1="235" x2="184" y2="210"/>
    <circle cx="260" cy="235" r="2"/>
    <circle cx="184" cy="210" r="2"/>
  </g>
  <g stroke="chocolate" stroke-width="1">
    <line x1="382" y1="197" x2="201" y2="176"/>
    <circle cx="382" cy="197" r="2"/>
    <circle cx="201" cy="176" r="2"/>
  </g>
  <g stroke="chocolate" stroke-width="1">
    <line x1="260" y1="235" x2="195" y2="180"/>
    <circle cx="260" cy="235" r="2"/>
    <circle cx="195" cy="180" r="2"/>
  </g>
  <g stroke="chocolate" stroke-width="1">
    <line x1="374" y1="249" x2="294" y2="152"/>
    <circle cx="374" cy="249" r="2"/>
    <circle cx="294" cy="152" r="2"/>
  </g>
  <g stroke="chocolate" stroke-width="1">
    <line x1="294" y1="152" x2="197" y2="126"/>
    <circle cx="294" cy="152" r="2"/>
    <circle cx="197" cy="126" r="2"/>
  </g>
  <g stroke="chocolate" stroke-width="1">
    <line x1="305" y1="159" x2="197" y2="126"/>
    <circle cx="305" cy="159" r="2"/>
    <circle cx="197" cy="126" r="2"/>
  </g>
  <g stroke="chocolate" stroke-width="1">
    <line x1="428" y1="114" x2="329" y2="106"/>
    <circle cx="428" cy="114" r="2"/>
    <circle cx="329" cy="106" r="2"/>
  </g>
  <g stroke="chocolate" stroke-width="1">
    <line x1="305" y1="159" x2="274" y2="136"/>
    <circle cx="305" cy="159" r="2"/>
    <circle cx="274" cy="136" r="2"/>
  </g>
  <g stroke="chocolate" stroke-width="1">
    <line x1="432" y1="241" x2="294" y2="152"/>
    <circle cx="432" cy="241" r="2"/>
    <circle cx="294" cy="152" r="2"/>
  </g>
  <g stroke="chocolate" stroke-width="1">
    <line x1="487" y1="248" x2="352" y2="93"/>
    <circle cx="487" cy="248" r="2"/>
    <circle cx="352" cy="93" r="2"/>
  </g>
  <g stroke="black" stroke-width="1">
    <line x1="5" y1="5" x2="505" y2="5"/>
    <line x1="5" y1="5" x2="5" y2="505"/>
    <line x1="505" y1="505" x2="5" y2="505"/>
    <line x1="505" y1="505" x2="505" y2="5"/>
    <line x1="105" y1="2" x2="105" y2="8"/>
    <line x1="2" y1="105" x2="8" y2="105"/>
    <line x1="105" y1="502" x2="105" y2="508"/>
    <line x1="502" y1="105" x2="508" y2="105"/>
    <line x1="205" y1="2" x2="205" y2="8"/>
    <line x1="2" y1="205" x2="8" y2="205"/>
    <line x1="205" y1="502" x2="205" y2="508"/>
    <line x1="502" y1="205" x2="508" y2="205"/>
    <line x1="305" y1="2" x2="305" y2="8"/>
    <line x1="2" y1="305" x2="8" y2="305"/>
    <line x1="305" y1="502" x2="305" y2="508"/>
    <line x1="502" y1="305" x2="508" y2="305"/>
    <line x1="405" y1="2" x2="405" y2="8"/>
    <line x1="2" y1="405" x2="8" y2="405"/>
    <line x1="405" y1="502" x2="405" y2="508"/>
    <line x1="502" y1="405" x2="508" y2="405"/>
  </g>
  <g stroke="gray" stroke-width="1" stroke-dasharray="5,5">
    <line x1="105" y1="5" x2="105" y2="505"/>
    <line x1="5" y1="105" x2="505" y2="105"/>
    <line x1="205" y1="5" x2="205" y2="505"/>
    <line x1="5" y1="205" x2="505" y2="205"/>
    <line x1="305" y1="5" x2="305" y2="505"/>
    <line x1="5" y1="305" x2="505" y2="305"/>
    <line x1="405" y1="5" x2="405" y2="505"/>
    <line x1="5" y1="405" x2="505" y2="405"/>
  </g>
</svg>
