<?xml version="1.0" standalone="no"?>
<!DOCTYPE svg PUBLIC "-//W3C//DTD SVG 1.1//EN" 
  "http://www.w3.org/Graphics/SVG/1.1/DTD/svg11.dtd">
<svg width="510" height="510" version="1.1" id="toplevel"
    xmlns="http://www.w3.org/2000/svg"
    xmlns:xlink="http://www.w3.org/1999/xlink">
  <polygon points="161,505 224,505 239,474 197,420 216,374 230,375 231,343 134,341 118,372 161,425 140,474"
           fill="bisque"/>
  <polygon points="174,474 183,453 199,474" fill="bisque"/>
  <polygon points="174,392 159,373 182,373" fill="bisque"/>
  <g stroke="chocolate" stroke-width="1">
    <line x1="224" y1="505" x2="239" y2="474"/>
    <circle cx="224" cy="505" r="2"/>
    <circle cx="239" cy="474" r="2"/>
  </g>
  <g stroke="chocolate" stroke-width="1">
    <line x1="161" y1="505" x2="221" y2="361"/>
    <circle cx="161" cy="505" r="2"/>
    <circle cx="221" cy="361" r="2"/>
  </g>
  <g stroke="chocolate" stroke-width="1">
    <line x1="140" y1="474" x2="192" y2="349"/>
    <circle cx="140" cy="474" r="2"/>
    <circle cx="192" cy="349" r="2"/>
  </g>
  <g stroke="chocolate" stroke-width="1">
    <line x1="118" y1="372" x2="134" y2="341"/>
    <circle cx="118" cy="372" r="2"/>
    <circle cx="134" cy="341" r="2"/>
  </g>
  <g stroke="chocolate" stroke-width="1">
    <line x1="230" y1="375" x2="231" y2="343"/>
    <circle cx="230" cy="375" r="2"/>
    <circle cx="231" cy="343" r="2"/>
  </g>
  <g stroke="chocolate" stroke-width="1">
    <line x1="161" y1="505" x2="224" y2="505"/>
    <circle cx="161" cy="505" r="2"/>
    <circle cx="224" cy="505" r="2"/>
  </g>
  <g stroke="chocolate" stroke-width="1">
    <line x1="140" y1="474" x2="239" y2="474"/>
    <circle cx="140" cy="474" r="2"/>
    <circle cx="239" cy="474" r="2"/>
  </g>
  <g stroke="chocolate" stroke-width="1">
    <line x1="161" y1="505" x2="140" y2="474"/>
    <circle cx="161" cy="505" r="2"/>
    <circle cx="140" cy="474" r="2"/>
  </g>
  <g stroke="chocolate" stroke-width="1">
    <line x1="224" y1="505" x2="118" y2="372"/>
    <circle cx="224" cy="505" r="2"/>
    <circle cx="118" cy="372" r="2"/>
  </g>
  <g stroke="chocolate" stroke-width="1">
    <line x1="239" y1="474" x2="134" y2="341"/>
    <circle cx="239" cy="474" r="2"/>
    <circle cx="134" cy="341" r="2"/>
  </g>
  <g stroke="chocolate" stroke-width="1">
    <line x1="230" y1="375" x2="118" y2="372"/>
    <circle cx="230" cy="375" r="2"/>
    <circle cx="118" cy="372" r="2"/>
  </g>
  <g stroke="chocolate" stroke-width="1">
    <line x1="231" y1="343" x2="134" y2="341"/>
    <circle cx="231" cy="343" r="2"/>
    <circle cx="134" cy="341" r="2"/>
  </g>
  <g stroke="chocolate" stroke-width="1">
    <line x1="221" y1="361" x2="192" y2="349"/>
    <circle cx="221" cy="361" r="2"/>
    <circle cx="192" cy="349" r="2"/>
  </g>
  <g stroke="black" stroke-width="1">
    <line x1="5" y1="5" x2="505" y2="5"/>
    <line x1="5" y1="5" x2="5" y2="505"/>
    <line x1="505" y1="505" x2="5" y2="505"/>
    <line x1="505" y1="505" x2="505" y2="5"/>
    <line x1="105" y1="2" x2="105" y2="8"/>
    <line x1="2" y1="105" x2="8" y2="105"/>
    <line x1="105" y1="502" x2="105" y2="508"/>
    <line x1="502" y1="105" x2="508" y2="105"/>
    <line x1="205" y1="2" x2="205" y2="8"/>
    <line x1="2" y1="205" x2="8" y2="205"/>
    <line x1="205" y1="502" x2="205" y2="508"/>
    <line x1="502" y1="205" x2="508" y2="205"/>
    <line x1="305" y1="2" x2="305" y2="8"/>
    <line x1="2" y1="305" x2="8" y2="305"/>
    <line x1="305" y1="502" x2="305" y2="508"/>
    <line x1="502" y1="305" x2="508" y2="305"/>
    <line x1="405" y1="2" x2="405" y2="8"/>
    <line x1="2" y1="405" x2="8" y2="405"/>
    <line x1="405" y1="502" x2="405" y2="508"/>
    <line x1="502" y1="405" x2="508" y2="405"/>
  </g>
  <g stroke="gray" stroke-width="1" stroke-dasharray="5,5">
    <line x1="105" y1="5" x2="105" y2="505"/>
    <line x1="5" y1="105" x2="505" y2="105"/>
    <line x1="205" y1="5" x2="205" y2="505"/>
    <line x1="5" y1="205" x2="505" y2="205"/>
    <line x1="305" y1="5" x2="305" y2="505"/>
    <line x1="5" y1="305" x2="505" y2="305"/>
    <line x1="405" y1="5" x2="405" y2="505"/>
    <line x1="5" y1="405" x2="505" y2="405"/>
  </g>
</svg>
