<?xml version="1.0" standalone="no"?>
<!DOCTYPE svg PUBLIC "-//W3C//DTD SVG 1.1//EN" 
  "http://www.w3.org/Graphics/SVG/1.1/DTD/svg11.dtd">
<svg width="510" height="510" version="1.1" id="toplevel"
    xmlns="http://www.w3.org/2000/svg"
    xmlns:xlink="http://www.w3.org/1999/xlink">
  <polygon points="242,335 352,274 321,185 306,175 214,200 186,258 175,270 178,273 164,303 228,335 232,326"
           fill="bisque"/>
  <polygon points="275,268 265,258 275,240 292,251" fill="bisque"/>
  <g stroke="chocolate" stroke-width="1">
    <line x1="242" y1="335" x2="352" y2="274"/>
    <circle cx="242" cy="335" r="2"/>
    <circle cx="352" cy="274" r="2"/>
  </g>
  <g stroke="chocolate" stroke-width="1">
    <line x1="235" y1="305" x2="296" y2="247"/>
    <circle cx="235" cy="305" r="2"/>
    <circle cx="296" cy="247" r="2"/>
  </g>
  <g stroke="chocolate" stroke-width="1">
    <line x1="175" y1="270" x2="225" y2="219"/>
    <circle cx="175" cy="270" r="2"/>
    <circle cx="225" cy="219" r="2"/>
  </g>
  <g stroke="chocolate" stroke-width="1">
    <line x1="228" y1="335" x2="306" y2="175"/>
    <circle cx="228" cy="335" r="2"/>
    <circle cx="306" cy="175" r="2"/>
  </g>
  <g stroke="chocolate" stroke-width="1">
    <line x1="277" y1="316" x2="321" y2="185"/>
    <circle cx="277" cy="316" r="2"/>
    <circle cx="321" cy="185" r="2"/>
  </g>
  <g stroke="chocolate" stroke-width="1">
    <line x1="164" y1="303" x2="214" y2="200"/>
    <circle cx="164" cy="303" r="2"/>
    <circle cx="214" cy="200" r="2"/>
  </g>
  <g stroke="chocolate" stroke-width="1">
    <line x1="214" y1="200" x2="306" y2="175"/>
    <circle cx="214" cy="200" r="2"/>
    <circle cx="306" cy="175" r="2"/>
  </g>
  <g stroke="chocolate" stroke-width="1">
    <line x1="277" y1="316" x2="235" y2="305"/>
    <circle cx="277" cy="316" r="2"/>
    <circle cx="235" cy="305" r="2"/>
  </g>
  <g stroke="chocolate" stroke-width="1">
    <line x1="228" y1="335" x2="164" y2="303"/>
    <circle cx="228" cy="335" r="2"/>
    <circle cx="164" cy="303" r="2"/>
  </g>
  <g stroke="chocolate" stroke-width="1">
    <line x1="339" y1="282" x2="339" y2="257"/>
    <circle cx="339" cy="282" r="2"/>
    <circle cx="339" cy="257" r="2"/>
  </g>
  <g stroke="chocolate" stroke-width="1">
    <line x1="339" y1="257" x2="296" y2="247"/>
    <circle cx="339" cy="257" r="2"/>
    <circle cx="296" cy="247" r="2"/>
  </g>
  <g stroke="chocolate" stroke-width="1">
    <line x1="242" y1="335" x2="235" y2="305"/>
    <circle cx="242" cy="335" r="2"/>
    <circle cx="235" cy="305" r="2"/>
  </g>
  <g stroke="chocolate" stroke-width="1">
    <line x1="242" y1="335" x2="175" y2="270"/>
    <circle cx="242" cy="335" r="2"/>
    <circle cx="175" cy="270" r="2"/>
  </g>
  <g stroke="chocolate" stroke-width="1">
    <line x1="307" y1="299" x2="296" y2="247"/>
    <circle cx="307" cy="299" r="2"/>
    <circle cx="296" cy="247" r="2"/>
  </g>
  <g stroke="chocolate" stroke-width="1">
    <line x1="339" y1="282" x2="214" y2="200"/>
    <circle cx="339" cy="282" r="2"/>
    <circle cx="214" cy="200" r="2"/>
  </g>
  <g stroke="chocolate" stroke-width="1">
    <line x1="352" y1="274" x2="321" y2="185"/>
    <circle cx="352" cy="274" r="2"/>
    <circle cx="321" cy="185" r="2"/>
  </g>
  <g stroke="chocolate" stroke-width="1">
    <line x1="307" y1="299" x2="225" y2="219"/>
    <circle cx="307" cy="299" r="2"/>
    <circle cx="225" cy="219" r="2"/>
  </g>
  <g stroke="chocolate" stroke-width="1">
    <line x1="352" y1="274" x2="339" y2="257"/>
    <circle cx="352" cy="274" r="2"/>
    <circle cx="339" cy="257" r="2"/>
  </g>
  <g stroke="chocolate" stroke-width="1">
    <line x1="321" y1="185" x2="306" y2="175"/>
    <circle cx="321" cy="185" r="2"/>
    <circle cx="306" cy="175" r="2"/>
  </g>
  <g stroke="black" stroke-width="1">
    <line x1="5" y1="5" x2="505" y2="5"/>
    <line x1="5" y1="5" x2="5" y2="505"/>
    <line x1="505" y1="505" x2="5" y2="505"/>
    <line x1="505" y1="505" x2="505" y2="5"/>
    <line x1="105" y1="2" x2="105" y2="8"/>
    <line x1="2" y1="105" x2="8" y2="105"/>
    <line x1="105" y1="502" x2="105" y2="508"/>
    <line x1="502" y1="105" x2="508" y2="105"/>
    <line x1="205" y1="2" x2="205" y2="8"/>
    <line x1="2" y1="205" x2="8" y2="205"/>
    <line x1="205" y1="502" x2="205" y2="508"/>
    <line x1="502" y1="205" x2="508" y2="205"/>
    <line x1="305" y1="2" x2="305" y2="8"/>
    <line x1="2" y1="305" x2="8" y2="305"/>
    <line x1="305" y1="502" x2="305" y2="508"/>
    <line x1="502" y1="305" x2="508" y2="305"/>
    <line x1="405" y1="2" x2="405" y2="8"/>
    <line x1="2" y1="405" x2="8" y2="405"/>
    <line x1="405" y1="502" x2="405" y2="508"/>
    <line x1="502" y1="405" x2="508" y2="405"/>
  </g>
  <g stroke="gray" stroke-width="1" stroke-dasharray="5,5">
    <line x1="105" y1="5" x2="105" y2="505"/>
    <line x1="5" y1="105" x2="505" y2="105"/>
    <line x1="205" y1="5" x2="205" y2="505"/>
    <line x1="5" y1="205" x2="505" y2="205"/>
    <line x1="305" y1="5" x2="305" y2="505"/>
    <line x1="5" y1="305" x2="505" y2="305"/>
    <line x1="405" y1="5" x2="405" y2="505"/>
    <line x1="5" y1="405" x2="505" y2="405"/>
  </g>
</svg>
