<?xml version="1.0" standalone="no"?>
<!DOCTYPE svg PUBLIC "-//W3C//DTD SVG 1.1//EN" 
  "http://www.w3.org/Graphics/SVG/1.1/DTD/svg11.dtd">
<svg width="510" height="510" version="1.1" id="toplevel"
    xmlns="http://www.w3.org/2000/svg"
    xmlns:xlink="http://www.w3.org/1999/xlink">
  <polygon points="252,348 341,276 345,246 280,165 249,162 169,227 165,257 237,346 245,339"
           fill="bisque"/>
  <polygon points="247,324 182,244 263,179 328,259" fill="bisque"/>
  <g stroke="chocolate" stroke-width="1">
    <line x1="341" y1="276" x2="345" y2="246"/>
    <circle cx="341" cy="276" r="2"/>
    <circle cx="345" cy="246" r="2"/>
  </g>
  <g stroke="chocolate" stroke-width="1">
    <line x1="252" y1="348" x2="341" y2="276"/>
    <circle cx="252" cy="348" r="2"/>
    <circle cx="341" cy="276" r="2"/>
  </g>
  <g stroke="chocolate" stroke-width="1">
    <line x1="237" y1="346" x2="165" y2="257"/>
    <circle cx="237" cy="346" r="2"/>
    <circle cx="165" cy="257" r="2"/>
  </g>
  <g stroke="chocolate" stroke-width="1">
    <line x1="237" y1="346" x2="254" y2="333"/>
    <circle cx="237" cy="346" r="2"/>
    <circle cx="254" cy="333" r="2"/>
  </g>
  <g stroke="chocolate" stroke-width="1">
    <line x1="252" y1="348" x2="239" y2="331"/>
    <circle cx="252" cy="348" r="2"/>
    <circle cx="239" cy="331" r="2"/>
  </g>
  <g stroke="chocolate" stroke-width="1">
    <line x1="254" y1="333" x2="169" y2="227"/>
    <circle cx="254" cy="333" r="2"/>
    <circle cx="169" cy="227" r="2"/>
  </g>
  <g stroke="chocolate" stroke-width="1">
    <line x1="239" y1="331" x2="345" y2="246"/>
    <circle cx="239" cy="331" r="2"/>
    <circle cx="345" cy="246" r="2"/>
  </g>
  <g stroke="chocolate" stroke-width="1">
    <line x1="165" y1="257" x2="169" y2="227"/>
    <circle cx="165" cy="257" r="2"/>
    <circle cx="169" cy="227" r="2"/>
  </g>
  <g stroke="chocolate" stroke-width="1">
    <line x1="341" y1="276" x2="249" y2="162"/>
    <circle cx="341" cy="276" r="2"/>
    <circle cx="249" cy="162" r="2"/>
  </g>
  <g stroke="chocolate" stroke-width="1">
    <line x1="345" y1="246" x2="280" y2="165"/>
    <circle cx="345" cy="246" r="2"/>
    <circle cx="280" cy="165" r="2"/>
  </g>
  <g stroke="chocolate" stroke-width="1">
    <line x1="165" y1="257" x2="280" y2="165"/>
    <circle cx="165" cy="257" r="2"/>
    <circle cx="280" cy="165" r="2"/>
  </g>
  <g stroke="chocolate" stroke-width="1">
    <line x1="169" y1="227" x2="249" y2="162"/>
    <circle cx="169" cy="227" r="2"/>
    <circle cx="249" cy="162" r="2"/>
  </g>
  <g stroke="chocolate" stroke-width="1">
    <line x1="280" y1="165" x2="249" y2="162"/>
    <circle cx="280" cy="165" r="2"/>
    <circle cx="249" cy="162" r="2"/>
  </g>
  <g stroke="black" stroke-width="1">
    <line x1="5" y1="5" x2="505" y2="5"/>
    <line x1="5" y1="5" x2="5" y2="505"/>
    <line x1="505" y1="505" x2="5" y2="505"/>
    <line x1="505" y1="505" x2="505" y2="5"/>
    <line x1="105" y1="2" x2="105" y2="8"/>
    <line x1="2" y1="105" x2="8" y2="105"/>
    <line x1="105" y1="502" x2="105" y2="508"/>
    <line x1="502" y1="105" x2="508" y2="105"/>
    <line x1="205" y1="2" x2="205" y2="8"/>
    <line x1="2" y1="205" x2="8" y2="205"/>
    <line x1="205" y1="502" x2="205" y2="508"/>
    <line x1="502" y1="205" x2="508" y2="205"/>
    <line x1="305" y1="2" x2="305" y2="8"/>
    <line x1="2" y1="305" x2="8" y2="305"/>
    <line x1="305" y1="502" x2="305" y2="508"/>
    <line x1="502" y1="305" x2="508" y2="305"/>
    <line x1="405" y1="2" x2="405" y2="8"/>
    <line x1="2" y1="405" x2="8" y2="405"/>
    <line x1="405" y1="502" x2="405" y2="508"/>
    <line x1="502" y1="405" x2="508" y2="405"/>
  </g>
  <g stroke="gray" stroke-width="1" stroke-dasharray="5,5">
    <line x1="105" y1="5" x2="105" y2="505"/>
    <line x1="5" y1="105" x2="505" y2="105"/>
    <line x1="205" y1="5" x2="205" y2="505"/>
    <line x1="5" y1="205" x2="505" y2="205"/>
    <line x1="305" y1="5" x2="305" y2="505"/>
    <line x1="5" y1="305" x2="505" y2="305"/>
    <line x1="405" y1="5" x2="405" y2="505"/>
    <line x1="5" y1="405" x2="505" y2="405"/>
  </g>
</svg>
