<?xml version="1.0" standalone="no"?>
<!DOCTYPE svg PUBLIC "-//W3C//DTD SVG 1.1//EN" 
  "http://www.w3.org/Graphics/SVG/1.1/DTD/svg11.dtd">
<svg width="510" height="510" version="1.1" id="toplevel"
    xmlns="http://www.w3.org/2000/svg"
    xmlns:xlink="http://www.w3.org/1999/xlink">
  <polygon points="456,434 474,417 496,245 505,84 493,76 364,125 366,130 394,143 49,326 5,377 14,405 19,403 29,385 30,380"
           fill="bisque"/>
  <g stroke="chocolate" stroke-width="1">
    <line x1="14" y1="405" x2="5" y2="377"/>
    <circle cx="14" cy="405" r="2"/>
    <circle cx="5" cy="377" r="2"/>
  </g>
  <g stroke="chocolate" stroke-width="1">
    <line x1="19" y1="403" x2="9" y2="372"/>
    <circle cx="19" cy="403" r="2"/>
    <circle cx="9" cy="372" r="2"/>
  </g>
  <g stroke="chocolate" stroke-width="1">
    <line x1="461" y1="429" x2="461" y2="423"/>
    <circle cx="461" cy="429" r="2"/>
    <circle cx="461" cy="423" r="2"/>
  </g>
  <g stroke="chocolate" stroke-width="1">
    <line x1="456" y1="434" x2="456" y2="417"/>
    <circle cx="456" cy="434" r="2"/>
    <circle cx="456" cy="417" r="2"/>
  </g>
  <g stroke="chocolate" stroke-width="1">
    <line x1="496" y1="245" x2="505" y2="84"/>
    <circle cx="496" cy="245" r="2"/>
    <circle cx="505" cy="84" r="2"/>
  </g>
  <g stroke="chocolate" stroke-width="1">
    <line x1="496" y1="245" x2="493" y2="76"/>
    <circle cx="496" cy="245" r="2"/>
    <circle cx="493" cy="76" r="2"/>
  </g>
  <g stroke="chocolate" stroke-width="1">
    <line x1="500" y1="171" x2="498" y2="80"/>
    <circle cx="500" cy="171" r="2"/>
    <circle cx="498" cy="80" r="2"/>
  </g>
  <g stroke="chocolate" stroke-width="1">
    <line x1="474" y1="417" x2="496" y2="245"/>
    <circle cx="474" cy="417" r="2"/>
    <circle cx="496" cy="245" r="2"/>
  </g>
  <g stroke="chocolate" stroke-width="1">
    <line x1="468" y1="423" x2="500" y2="171"/>
    <circle cx="468" cy="423" r="2"/>
    <circle cx="500" cy="171" r="2"/>
  </g>
  <g stroke="chocolate" stroke-width="1">
    <line x1="366" y1="130" x2="364" y2="125"/>
    <circle cx="366" cy="130" r="2"/>
    <circle cx="364" cy="125" r="2"/>
  </g>
  <g stroke="chocolate" stroke-width="1">
    <line x1="29" y1="385" x2="35" y2="341"/>
    <circle cx="29" cy="385" r="2"/>
    <circle cx="35" cy="341" r="2"/>
  </g>
  <g stroke="chocolate" stroke-width="1">
    <line x1="29" y1="385" x2="49" y2="326"/>
    <circle cx="29" cy="385" r="2"/>
    <circle cx="49" cy="326" r="2"/>
  </g>
  <g stroke="chocolate" stroke-width="1">
    <line x1="456" y1="434" x2="474" y2="417"/>
    <circle cx="456" cy="434" r="2"/>
    <circle cx="474" cy="417" r="2"/>
  </g>
  <g stroke="chocolate" stroke-width="1">
    <line x1="19" y1="403" x2="29" y2="385"/>
    <circle cx="19" cy="403" r="2"/>
    <circle cx="29" cy="385" r="2"/>
  </g>
  <g stroke="chocolate" stroke-width="1">
    <line x1="5" y1="377" x2="49" y2="326"/>
    <circle cx="5" cy="377" r="2"/>
    <circle cx="49" cy="326" r="2"/>
  </g>
  <g stroke="chocolate" stroke-width="1">
    <line x1="456" y1="434" x2="5" y2="377"/>
    <circle cx="456" cy="434" r="2"/>
    <circle cx="5" cy="377" r="2"/>
  </g>
  <g stroke="chocolate" stroke-width="1">
    <line x1="461" y1="429" x2="9" y2="372"/>
    <circle cx="461" cy="429" r="2"/>
    <circle cx="9" cy="372" r="2"/>
  </g>
  <g stroke="chocolate" stroke-width="1">
    <line x1="461" y1="423" x2="468" y2="423"/>
    <circle cx="461" cy="423" r="2"/>
    <circle cx="468" cy="423" r="2"/>
  </g>
  <g stroke="chocolate" stroke-width="1">
    <line x1="474" y1="417" x2="456" y2="417"/>
    <circle cx="474" cy="417" r="2"/>
    <circle cx="456" cy="417" r="2"/>
  </g>
  <g stroke="chocolate" stroke-width="1">
    <line x1="505" y1="84" x2="493" y2="76"/>
    <circle cx="505" cy="84" r="2"/>
    <circle cx="493" cy="76" r="2"/>
  </g>
  <g stroke="chocolate" stroke-width="1">
    <line x1="14" y1="405" x2="19" y2="403"/>
    <circle cx="14" cy="405" r="2"/>
    <circle cx="19" cy="403" r="2"/>
  </g>
  <g stroke="chocolate" stroke-width="1">
    <line x1="499" y1="190" x2="366" y2="130"/>
    <circle cx="499" cy="190" r="2"/>
    <circle cx="366" cy="130" r="2"/>
  </g>
  <g stroke="chocolate" stroke-width="1">
    <line x1="49" y1="326" x2="505" y2="84"/>
    <circle cx="49" cy="326" r="2"/>
    <circle cx="505" cy="84" r="2"/>
  </g>
  <g stroke="chocolate" stroke-width="1">
    <line x1="35" y1="341" x2="499" y2="190"/>
    <circle cx="35" cy="341" r="2"/>
    <circle cx="499" cy="190" r="2"/>
  </g>
  <g stroke="chocolate" stroke-width="1">
    <line x1="366" y1="130" x2="498" y2="80"/>
    <circle cx="366" cy="130" r="2"/>
    <circle cx="498" cy="80" r="2"/>
  </g>
  <g stroke="chocolate" stroke-width="1">
    <line x1="364" y1="125" x2="493" y2="76"/>
    <circle cx="364" cy="125" r="2"/>
    <circle cx="493" cy="76" r="2"/>
  </g>
  <g stroke="black" stroke-width="1">
    <line x1="5" y1="5" x2="505" y2="5"/>
    <line x1="5" y1="5" x2="5" y2="505"/>
    <line x1="505" y1="505" x2="5" y2="505"/>
    <line x1="505" y1="505" x2="505" y2="5"/>
    <line x1="105" y1="2" x2="105" y2="8"/>
    <line x1="2" y1="105" x2="8" y2="105"/>
    <line x1="105" y1="502" x2="105" y2="508"/>
    <line x1="502" y1="105" x2="508" y2="105"/>
    <line x1="205" y1="2" x2="205" y2="8"/>
    <line x1="2" y1="205" x2="8" y2="205"/>
    <line x1="205" y1="502" x2="205" y2="508"/>
    <line x1="502" y1="205" x2="508" y2="205"/>
    <line x1="305" y1="2" x2="305" y2="8"/>
    <line x1="2" y1="305" x2="8" y2="305"/>
    <line x1="305" y1="502" x2="305" y2="508"/>
    <line x1="502" y1="305" x2="508" y2="305"/>
    <line x1="405" y1="2" x2="405" y2="8"/>
    <line x1="2" y1="405" x2="8" y2="405"/>
    <line x1="405" y1="502" x2="405" y2="508"/>
    <line x1="502" y1="405" x2="508" y2="405"/>
  </g>
  <g stroke="gray" stroke-width="1" stroke-dasharray="5,5">
    <line x1="105" y1="5" x2="105" y2="505"/>
    <line x1="5" y1="105" x2="505" y2="105"/>
    <line x1="205" y1="5" x2="205" y2="505"/>
    <line x1="5" y1="205" x2="505" y2="205"/>
    <line x1="305" y1="5" x2="305" y2="505"/>
    <line x1="5" y1="305" x2="505" y2="305"/>
    <line x1="405" y1="5" x2="405" y2="505"/>
    <line x1="5" y1="405" x2="505" y2="405"/>
  </g>
</svg>
