<?xml version="1.0" standalone="no"?>
<!DOCTYPE svg PUBLIC "-//W3C//DTD SVG 1.1//EN" 
  "http://www.w3.org/Graphics/SVG/1.1/DTD/svg11.dtd">
<svg width="528" height="528" version="1.1" id="toplevel"
    xmlns="http://www.w3.org/2000/svg"
    xmlns:xlink="http://www.w3.org/1999/xlink">
  <polygon points="68,523 82,505 514,505 514,5 210,5 44,505" fill="bisque"/>
  <g stroke="chocolate" stroke-width="1">
    <line x1="68" y1="523" x2="367" y2="122"/>
    <circle cx="68" cy="523" r="2"/>
    <circle cx="367" cy="122" r="2"/>
  </g>
  <g stroke="chocolate" stroke-width="1">
    <line x1="44" y1="505" x2="210" y2="5"/>
    <circle cx="44" cy="505" r="2"/>
    <circle cx="210" cy="5" r="2"/>
  </g>
  <g stroke="chocolate" stroke-width="1">
    <line x1="44" y1="505" x2="514" y2="505"/>
    <circle cx="44" cy="505" r="2"/>
    <circle cx="514" cy="505" r="2"/>
  </g>
  <g stroke="chocolate" stroke-width="1">
    <line x1="514" y1="505" x2="514" y2="5"/>
    <circle cx="514" cy="505" r="2"/>
    <circle cx="514" cy="5" r="2"/>
  </g>
  <g stroke="chocolate" stroke-width="1">
    <line x1="68" y1="523" x2="44" y2="505"/>
    <circle cx="68" cy="523" r="2"/>
    <circle cx="44" cy="505" r="2"/>
  </g>
  <g stroke="chocolate" stroke-width="1">
    <line x1="367" y1="122" x2="210" y2="5"/>
    <circle cx="367" cy="122" r="2"/>
    <circle cx="210" cy="5" r="2"/>
  </g>
  <g stroke="chocolate" stroke-width="1">
    <line x1="210" y1="5" x2="514" y2="5"/>
    <circle cx="210" cy="5" r="2"/>
    <circle cx="514" cy="5" r="2"/>
  </g>
  <g stroke="black" stroke-width="1">
    <line x1="14" y1="14" x2="514" y2="14"/>
    <line x1="14" y1="14" x2="14" y2="514"/>
    <line x1="514" y1="514" x2="14" y2="514"/>
    <line x1="514" y1="514" x2="514" y2="14"/>
    <line x1="114" y1="11" x2="114" y2="17"/>
    <line x1="11" y1="114" x2="17" y2="114"/>
    <line x1="114" y1="511" x2="114" y2="517"/>
    <line x1="511" y1="114" x2="517" y2="114"/>
    <line x1="214" y1="11" x2="214" y2="17"/>
    <line x1="11" y1="214" x2="17" y2="214"/>
    <line x1="214" y1="511" x2="214" y2="517"/>
    <line x1="511" y1="214" x2="517" y2="214"/>
    <line x1="314" y1="11" x2="314" y2="17"/>
    <line x1="11" y1="314" x2="17" y2="314"/>
    <line x1="314" y1="511" x2="314" y2="517"/>
    <line x1="511" y1="314" x2="517" y2="314"/>
    <line x1="414" y1="11" x2="414" y2="17"/>
    <line x1="11" y1="414" x2="17" y2="414"/>
    <line x1="414" y1="511" x2="414" y2="517"/>
    <line x1="511" y1="414" x2="517" y2="414"/>
  </g>
  <g stroke="gray" stroke-width="1" stroke-dasharray="5,5">
    <line x1="114" y1="14" x2="114" y2="514"/>
    <line x1="14" y1="114" x2="514" y2="114"/>
    <line x1="214" y1="14" x2="214" y2="514"/>
    <line x1="14" y1="214" x2="514" y2="214"/>
    <line x1="314" y1="14" x2="314" y2="514"/>
    <line x1="14" y1="314" x2="514" y2="314"/>
    <line x1="414" y1="14" x2="414" y2="514"/>
    <line x1="14" y1="414" x2="514" y2="414"/>
  </g>
</svg>
