<?xml version="1.0" standalone="no"?>
<!DOCTYPE svg PUBLIC "-//W3C//DTD SVG 1.1//EN" 
  "http://www.w3.org/Graphics/SVG/1.1/DTD/svg11.dtd">
<svg width="666" height="666" version="1.1" id="toplevel"
    xmlns="http://www.w3.org/2000/svg"
    xmlns:xlink="http://www.w3.org/1999/xlink">
  <polygon points="215,661 224,653 227,653 230,648 260,620 304,556 457,6 456,5 437,19 345,76 344,92 279,142 283,215 263,215 263,513 209,655"
           fill="bisque"/>
  <g stroke="chocolate" stroke-width="1">
    <line x1="344" y1="412" x2="378" y2="200"/>
    <circle cx="344" cy="412" r="2"/>
    <circle cx="378" cy="200" r="2"/>
  </g>
  <g stroke="chocolate" stroke-width="1">
    <line x1="328" y1="468" x2="345" y2="76"/>
    <circle cx="328" cy="468" r="2"/>
    <circle cx="345" cy="76" r="2"/>
  </g>
  <g stroke="chocolate" stroke-width="1">
    <line x1="227" y1="653" x2="217" y2="633"/>
    <circle cx="227" cy="653" r="2"/>
    <circle cx="217" cy="633" r="2"/>
  </g>
  <g stroke="chocolate" stroke-width="1">
    <line x1="263" y1="616" x2="263" y2="215"/>
    <circle cx="263" cy="616" r="2"/>
    <circle cx="263" cy="215" r="2"/>
  </g>
  <g stroke="chocolate" stroke-width="1">
    <line x1="304" y1="556" x2="457" y2="6"/>
    <circle cx="304" cy="556" r="2"/>
    <circle cx="457" cy="6" r="2"/>
  </g>
  <g stroke="chocolate" stroke-width="1">
    <line x1="215" y1="661" x2="209" y2="655"/>
    <circle cx="215" cy="661" r="2"/>
    <circle cx="209" cy="655" r="2"/>
  </g>
  <g stroke="chocolate" stroke-width="1">
    <line x1="304" y1="556" x2="279" y2="142"/>
    <circle cx="304" cy="556" r="2"/>
    <circle cx="279" cy="142" r="2"/>
  </g>
  <g stroke="chocolate" stroke-width="1">
    <line x1="260" y1="620" x2="344" y2="412"/>
    <circle cx="260" cy="620" r="2"/>
    <circle cx="344" cy="412" r="2"/>
  </g>
  <g stroke="chocolate" stroke-width="1">
    <line x1="209" y1="655" x2="456" y2="6"/>
    <circle cx="209" cy="655" r="2"/>
    <circle cx="456" cy="6" r="2"/>
  </g>
  <g stroke="chocolate" stroke-width="1">
    <line x1="227" y1="653" x2="328" y2="468"/>
    <circle cx="227" cy="653" r="2"/>
    <circle cx="328" cy="468" r="2"/>
  </g>
  <g stroke="chocolate" stroke-width="1">
    <line x1="260" y1="620" x2="304" y2="556"/>
    <circle cx="260" cy="620" r="2"/>
    <circle cx="304" cy="556" r="2"/>
  </g>
  <g stroke="chocolate" stroke-width="1">
    <line x1="215" y1="661" x2="260" y2="620"/>
    <circle cx="215" cy="661" r="2"/>
    <circle cx="260" cy="620" r="2"/>
  </g>
  <g stroke="chocolate" stroke-width="1">
    <line x1="209" y1="655" x2="227" y2="653"/>
    <circle cx="209" cy="655" r="2"/>
    <circle cx="227" cy="653" r="2"/>
  </g>
  <g stroke="chocolate" stroke-width="1">
    <line x1="217" y1="633" x2="263" y2="616"/>
    <circle cx="217" cy="633" r="2"/>
    <circle cx="263" cy="616" r="2"/>
  </g>
  <g stroke="chocolate" stroke-width="1">
    <line x1="457" y1="7" x2="456" y2="6"/>
    <circle cx="457" cy="7" r="2"/>
    <circle cx="456" cy="6" r="2"/>
  </g>
  <g stroke="chocolate" stroke-width="1">
    <line x1="418" y1="145" x2="407" y2="134"/>
    <circle cx="418" cy="145" r="2"/>
    <circle cx="407" cy="134" r="2"/>
  </g>
  <g stroke="chocolate" stroke-width="1">
    <line x1="279" y1="142" x2="456" y2="5"/>
    <circle cx="279" cy="142" r="2"/>
    <circle cx="456" cy="5" r="2"/>
  </g>
  <g stroke="chocolate" stroke-width="1">
    <line x1="457" y1="6" x2="456" y2="5"/>
    <circle cx="457" cy="6" r="2"/>
    <circle cx="456" cy="5" r="2"/>
  </g>
  <g stroke="chocolate" stroke-width="1">
    <line x1="345" y1="76" x2="457" y2="7"/>
    <circle cx="345" cy="76" r="2"/>
    <circle cx="457" cy="7" r="2"/>
  </g>
  <g stroke="chocolate" stroke-width="1">
    <line x1="399" y1="215" x2="279" y2="142"/>
    <circle cx="399" cy="215" r="2"/>
    <circle cx="279" cy="142" r="2"/>
  </g>
  <g stroke="chocolate" stroke-width="1">
    <line x1="422" y1="133" x2="345" y2="76"/>
    <circle cx="422" cy="133" r="2"/>
    <circle cx="345" cy="76" r="2"/>
  </g>
  <g stroke="chocolate" stroke-width="1">
    <line x1="282" y1="184" x2="418" y2="145"/>
    <circle cx="282" cy="184" r="2"/>
    <circle cx="418" cy="145" r="2"/>
  </g>
  <g stroke="chocolate" stroke-width="1">
    <line x1="263" y1="215" x2="399" y2="215"/>
    <circle cx="263" cy="215" r="2"/>
    <circle cx="399" cy="215" r="2"/>
  </g>
  <g stroke="chocolate" stroke-width="1">
    <line x1="378" y1="200" x2="282" y2="184"/>
    <circle cx="378" cy="200" r="2"/>
    <circle cx="282" cy="184" r="2"/>
  </g>
  <g stroke="chocolate" stroke-width="1">
    <line x1="456" y1="6" x2="457" y2="6"/>
    <circle cx="456" cy="6" r="2"/>
    <circle cx="457" cy="6" r="2"/>
  </g>
  <g stroke="chocolate" stroke-width="1">
    <line x1="407" y1="134" x2="422" y2="133"/>
    <circle cx="407" cy="134" r="2"/>
    <circle cx="422" cy="133" r="2"/>
  </g>
  <g stroke="black" stroke-width="1">
    <line x1="83" y1="83" x2="583" y2="83"/>
    <line x1="83" y1="83" x2="83" y2="583"/>
    <line x1="583" y1="583" x2="83" y2="583"/>
    <line x1="583" y1="583" x2="583" y2="83"/>
    <line x1="183" y1="80" x2="183" y2="86"/>
    <line x1="80" y1="183" x2="86" y2="183"/>
    <line x1="183" y1="580" x2="183" y2="586"/>
    <line x1="580" y1="183" x2="586" y2="183"/>
    <line x1="283" y1="80" x2="283" y2="86"/>
    <line x1="80" y1="283" x2="86" y2="283"/>
    <line x1="283" y1="580" x2="283" y2="586"/>
    <line x1="580" y1="283" x2="586" y2="283"/>
    <line x1="383" y1="80" x2="383" y2="86"/>
    <line x1="80" y1="383" x2="86" y2="383"/>
    <line x1="383" y1="580" x2="383" y2="586"/>
    <line x1="580" y1="383" x2="586" y2="383"/>
    <line x1="483" y1="80" x2="483" y2="86"/>
    <line x1="80" y1="483" x2="86" y2="483"/>
    <line x1="483" y1="580" x2="483" y2="586"/>
    <line x1="580" y1="483" x2="586" y2="483"/>
  </g>
  <g stroke="gray" stroke-width="1" stroke-dasharray="5,5">
    <line x1="183" y1="83" x2="183" y2="583"/>
    <line x1="83" y1="183" x2="583" y2="183"/>
    <line x1="283" y1="83" x2="283" y2="583"/>
    <line x1="83" y1="283" x2="583" y2="283"/>
    <line x1="383" y1="83" x2="383" y2="583"/>
    <line x1="83" y1="383" x2="583" y2="383"/>
    <line x1="483" y1="83" x2="483" y2="583"/>
    <line x1="83" y1="483" x2="583" y2="483"/>
  </g>
</svg>
