<?xml version="1.0" standalone="no"?>
<!DOCTYPE svg PUBLIC "-//W3C//DTD SVG 1.1//EN" 
  "http://www.w3.org/Graphics/SVG/1.1/DTD/svg11.dtd">
<svg width="510" height="510" version="1.1" id="toplevel"
    xmlns="http://www.w3.org/2000/svg"
    xmlns:xlink="http://www.w3.org/1999/xlink">
  <polygon points="117,412 502,252 438,98 284,162 175,117 21,181 53,258 8,367 85,335"
           fill="bisque"/>
  <g stroke="chocolate" stroke-width="1">
    <line x1="117" y1="412" x2="502" y2="252"/>
    <circle cx="117" cy="412" r="2"/>
    <circle cx="502" cy="252" r="2"/>
  </g>
  <g stroke="chocolate" stroke-width="1">
    <line x1="8" y1="367" x2="470" y2="175"/>
    <circle cx="8" cy="367" r="2"/>
    <circle cx="470" cy="175" r="2"/>
  </g>
  <g stroke="chocolate" stroke-width="1">
    <line x1="53" y1="258" x2="438" y2="98"/>
    <circle cx="53" cy="258" r="2"/>
    <circle cx="438" cy="98" r="2"/>
  </g>
  <g stroke="chocolate" stroke-width="1">
    <line x1="21" y1="181" x2="175" y2="117"/>
    <circle cx="21" cy="181" r="2"/>
    <circle cx="175" cy="117" r="2"/>
  </g>
  <g stroke="chocolate" stroke-width="1">
    <line x1="162" y1="303" x2="53" y2="258"/>
    <circle cx="162" cy="303" r="2"/>
    <circle cx="53" cy="258" r="2"/>
  </g>
  <g stroke="chocolate" stroke-width="1">
    <line x1="8" y1="367" x2="53" y2="258"/>
    <circle cx="8" cy="367" r="2"/>
    <circle cx="53" cy="258" r="2"/>
  </g>
  <g stroke="chocolate" stroke-width="1">
    <line x1="502" y1="252" x2="175" y2="117"/>
    <circle cx="502" cy="252" r="2"/>
    <circle cx="175" cy="117" r="2"/>
  </g>
  <g stroke="chocolate" stroke-width="1">
    <line x1="117" y1="412" x2="21" y2="181"/>
    <circle cx="117" cy="412" r="2"/>
    <circle cx="21" cy="181" r="2"/>
  </g>
  <g stroke="chocolate" stroke-width="1">
    <line x1="194" y1="380" x2="98" y2="149"/>
    <circle cx="194" cy="380" r="2"/>
    <circle cx="98" cy="149" r="2"/>
  </g>
  <g stroke="chocolate" stroke-width="1">
    <line x1="271" y1="348" x2="175" y2="117"/>
    <circle cx="271" cy="348" r="2"/>
    <circle cx="175" cy="117" r="2"/>
  </g>
  <g stroke="chocolate" stroke-width="1">
    <line x1="502" y1="252" x2="438" y2="98"/>
    <circle cx="502" cy="252" r="2"/>
    <circle cx="438" cy="98" r="2"/>
  </g>
  <g stroke="black" stroke-width="1">
    <line x1="5" y1="5" x2="505" y2="5"/>
    <line x1="5" y1="5" x2="5" y2="505"/>
    <line x1="505" y1="505" x2="5" y2="505"/>
    <line x1="505" y1="505" x2="505" y2="5"/>
    <line x1="105" y1="2" x2="105" y2="8"/>
    <line x1="2" y1="105" x2="8" y2="105"/>
    <line x1="105" y1="502" x2="105" y2="508"/>
    <line x1="502" y1="105" x2="508" y2="105"/>
    <line x1="205" y1="2" x2="205" y2="8"/>
    <line x1="2" y1="205" x2="8" y2="205"/>
    <line x1="205" y1="502" x2="205" y2="508"/>
    <line x1="502" y1="205" x2="508" y2="205"/>
    <line x1="305" y1="2" x2="305" y2="8"/>
    <line x1="2" y1="305" x2="8" y2="305"/>
    <line x1="305" y1="502" x2="305" y2="508"/>
    <line x1="502" y1="305" x2="508" y2="305"/>
    <line x1="405" y1="2" x2="405" y2="8"/>
    <line x1="2" y1="405" x2="8" y2="405"/>
    <line x1="405" y1="502" x2="405" y2="508"/>
    <line x1="502" y1="405" x2="508" y2="405"/>
  </g>
  <g stroke="gray" stroke-width="1" stroke-dasharray="5,5">
    <line x1="105" y1="5" x2="105" y2="505"/>
    <line x1="5" y1="105" x2="505" y2="105"/>
    <line x1="205" y1="5" x2="205" y2="505"/>
    <line x1="5" y1="205" x2="505" y2="205"/>
    <line x1="305" y1="5" x2="305" y2="505"/>
    <line x1="5" y1="305" x2="505" y2="305"/>
    <line x1="405" y1="5" x2="405" y2="505"/>
    <line x1="5" y1="405" x2="505" y2="405"/>
  </g>
</svg>
