<?xml version="1.0" standalone="no"?>
<!DOCTYPE svg PUBLIC "-//W3C//DTD SVG 1.1//EN" 
  "http://www.w3.org/Graphics/SVG/1.1/DTD/svg11.dtd">
<svg width="510" height="510" version="1.1" id="toplevel"
    xmlns="http://www.w3.org/2000/svg"
    xmlns:xlink="http://www.w3.org/1999/xlink">
  <polygon points="101,418 332,322 284,207 318,125 236,92 5,188 53,303 19,385"
           fill="bisque"/>
  <g stroke="chocolate" stroke-width="1">
    <line x1="101" y1="418" x2="332" y2="322"/>
    <circle cx="101" cy="418" r="2"/>
    <circle cx="332" cy="322" r="2"/>
  </g>
  <g stroke="chocolate" stroke-width="1">
    <line x1="101" y1="418" x2="19" y2="385"/>
    <circle cx="101" cy="418" r="2"/>
    <circle cx="19" cy="385" r="2"/>
  </g>
  <g stroke="chocolate" stroke-width="1">
    <line x1="53" y1="303" x2="284" y2="207"/>
    <circle cx="53" cy="303" r="2"/>
    <circle cx="284" cy="207" r="2"/>
  </g>
  <g stroke="chocolate" stroke-width="1">
    <line x1="284" y1="207" x2="318" y2="125"/>
    <circle cx="284" cy="207" r="2"/>
    <circle cx="318" cy="125" r="2"/>
  </g>
  <g stroke="chocolate" stroke-width="1">
    <line x1="101" y1="418" x2="236" y2="92"/>
    <circle cx="101" cy="418" r="2"/>
    <circle cx="236" cy="92" r="2"/>
  </g>
  <g stroke="chocolate" stroke-width="1">
    <line x1="19" y1="385" x2="53" y2="303"/>
    <circle cx="19" cy="385" r="2"/>
    <circle cx="53" cy="303" r="2"/>
  </g>
  <g stroke="chocolate" stroke-width="1">
    <line x1="5" y1="188" x2="236" y2="92"/>
    <circle cx="5" cy="188" r="2"/>
    <circle cx="236" cy="92" r="2"/>
  </g>
  <g stroke="chocolate" stroke-width="1">
    <line x1="101" y1="418" x2="5" y2="188"/>
    <circle cx="101" cy="418" r="2"/>
    <circle cx="5" cy="188" r="2"/>
  </g>
  <g stroke="chocolate" stroke-width="1">
    <line x1="217" y1="370" x2="120" y2="140"/>
    <circle cx="217" cy="370" r="2"/>
    <circle cx="120" cy="140" r="2"/>
  </g>
  <g stroke="chocolate" stroke-width="1">
    <line x1="332" y1="322" x2="236" y2="92"/>
    <circle cx="332" cy="322" r="2"/>
    <circle cx="236" cy="92" r="2"/>
  </g>
  <g stroke="chocolate" stroke-width="1">
    <line x1="318" y1="125" x2="236" y2="92"/>
    <circle cx="318" cy="125" r="2"/>
    <circle cx="236" cy="92" r="2"/>
  </g>
  <g stroke="black" stroke-width="1">
    <line x1="5" y1="5" x2="505" y2="5"/>
    <line x1="5" y1="5" x2="5" y2="505"/>
    <line x1="505" y1="505" x2="5" y2="505"/>
    <line x1="505" y1="505" x2="505" y2="5"/>
    <line x1="105" y1="2" x2="105" y2="8"/>
    <line x1="2" y1="105" x2="8" y2="105"/>
    <line x1="105" y1="502" x2="105" y2="508"/>
    <line x1="502" y1="105" x2="508" y2="105"/>
    <line x1="205" y1="2" x2="205" y2="8"/>
    <line x1="2" y1="205" x2="8" y2="205"/>
    <line x1="205" y1="502" x2="205" y2="508"/>
    <line x1="502" y1="205" x2="508" y2="205"/>
    <line x1="305" y1="2" x2="305" y2="8"/>
    <line x1="2" y1="305" x2="8" y2="305"/>
    <line x1="305" y1="502" x2="305" y2="508"/>
    <line x1="502" y1="305" x2="508" y2="305"/>
    <line x1="405" y1="2" x2="405" y2="8"/>
    <line x1="2" y1="405" x2="8" y2="405"/>
    <line x1="405" y1="502" x2="405" y2="508"/>
    <line x1="502" y1="405" x2="508" y2="405"/>
  </g>
  <g stroke="gray" stroke-width="1" stroke-dasharray="5,5">
    <line x1="105" y1="5" x2="105" y2="505"/>
    <line x1="5" y1="105" x2="505" y2="105"/>
    <line x1="205" y1="5" x2="205" y2="505"/>
    <line x1="5" y1="205" x2="505" y2="205"/>
    <line x1="305" y1="5" x2="305" y2="505"/>
    <line x1="5" y1="305" x2="505" y2="305"/>
    <line x1="405" y1="5" x2="405" y2="505"/>
    <line x1="5" y1="405" x2="505" y2="405"/>
  </g>
</svg>
