<?xml version="1.0" standalone="no"?>
<!DOCTYPE svg PUBLIC "-//W3C//DTD SVG 1.1//EN" 
  "http://www.w3.org/Graphics/SVG/1.1/DTD/svg11.dtd">
<svg width="510" height="510" version="1.1" id="toplevel"
    xmlns="http://www.w3.org/2000/svg"
    xmlns:xlink="http://www.w3.org/1999/xlink">
  <polygon points="229,350 358,297 326,220 300,230 289,205 180,160 155,171 110,280 120,305"
           fill="bisque"/>
  <polygon points="197,273 187,248 212,237 223,262" fill="bisque"/>
  <g stroke="chocolate" stroke-width="1">
    <line x1="229" y1="350" x2="358" y2="297"/>
    <circle cx="229" cy="350" r="2"/>
    <circle cx="358" cy="297" r="2"/>
  </g>
  <g stroke="chocolate" stroke-width="1">
    <line x1="234" y1="288" x2="311" y2="256"/>
    <circle cx="234" cy="288" r="2"/>
    <circle cx="311" cy="256" r="2"/>
  </g>
  <g stroke="chocolate" stroke-width="1">
    <line x1="120" y1="305" x2="326" y2="220"/>
    <circle cx="120" cy="305" r="2"/>
    <circle cx="326" cy="220" r="2"/>
  </g>
  <g stroke="chocolate" stroke-width="1">
    <line x1="110" y1="280" x2="289" y2="205"/>
    <circle cx="110" cy="280" r="2"/>
    <circle cx="289" cy="205" r="2"/>
  </g>
  <g stroke="chocolate" stroke-width="1">
    <line x1="229" y1="350" x2="120" y2="305"/>
    <circle cx="229" cy="350" r="2"/>
    <circle cx="120" cy="305" r="2"/>
  </g>
  <g stroke="chocolate" stroke-width="1">
    <line x1="110" y1="280" x2="155" y2="171"/>
    <circle cx="110" cy="280" r="2"/>
    <circle cx="155" cy="171" r="2"/>
  </g>
  <g stroke="chocolate" stroke-width="1">
    <line x1="155" y1="171" x2="180" y2="160"/>
    <circle cx="155" cy="171" r="2"/>
    <circle cx="180" cy="160" r="2"/>
  </g>
  <g stroke="chocolate" stroke-width="1">
    <line x1="120" y1="305" x2="110" y2="280"/>
    <circle cx="120" cy="305" r="2"/>
    <circle cx="110" cy="280" r="2"/>
  </g>
  <g stroke="chocolate" stroke-width="1">
    <line x1="229" y1="350" x2="155" y2="171"/>
    <circle cx="229" cy="350" r="2"/>
    <circle cx="155" cy="171" r="2"/>
  </g>
  <g stroke="chocolate" stroke-width="1">
    <line x1="234" y1="288" x2="180" y2="160"/>
    <circle cx="234" cy="288" r="2"/>
    <circle cx="180" cy="160" r="2"/>
  </g>
  <g stroke="chocolate" stroke-width="1">
    <line x1="289" y1="205" x2="180" y2="160"/>
    <circle cx="289" cy="205" r="2"/>
    <circle cx="180" cy="160" r="2"/>
  </g>
  <g stroke="chocolate" stroke-width="1">
    <line x1="311" y1="256" x2="289" y2="205"/>
    <circle cx="311" cy="256" r="2"/>
    <circle cx="289" cy="205" r="2"/>
  </g>
  <g stroke="chocolate" stroke-width="1">
    <line x1="358" y1="297" x2="326" y2="220"/>
    <circle cx="358" cy="297" r="2"/>
    <circle cx="326" cy="220" r="2"/>
  </g>
  <g stroke="black" stroke-width="1">
    <line x1="5" y1="5" x2="505" y2="5"/>
    <line x1="5" y1="5" x2="5" y2="505"/>
    <line x1="505" y1="505" x2="5" y2="505"/>
    <line x1="505" y1="505" x2="505" y2="5"/>
    <line x1="105" y1="2" x2="105" y2="8"/>
    <line x1="2" y1="105" x2="8" y2="105"/>
    <line x1="105" y1="502" x2="105" y2="508"/>
    <line x1="502" y1="105" x2="508" y2="105"/>
    <line x1="205" y1="2" x2="205" y2="8"/>
    <line x1="2" y1="205" x2="8" y2="205"/>
    <line x1="205" y1="502" x2="205" y2="508"/>
    <line x1="502" y1="205" x2="508" y2="205"/>
    <line x1="305" y1="2" x2="305" y2="8"/>
    <line x1="2" y1="305" x2="8" y2="305"/>
    <line x1="305" y1="502" x2="305" y2="508"/>
    <line x1="502" y1="305" x2="508" y2="305"/>
    <line x1="405" y1="2" x2="405" y2="8"/>
    <line x1="2" y1="405" x2="8" y2="405"/>
    <line x1="405" y1="502" x2="405" y2="508"/>
    <line x1="502" y1="405" x2="508" y2="405"/>
  </g>
  <g stroke="gray" stroke-width="1" stroke-dasharray="5,5">
    <line x1="105" y1="5" x2="105" y2="505"/>
    <line x1="5" y1="105" x2="505" y2="105"/>
    <line x1="205" y1="5" x2="205" y2="505"/>
    <line x1="5" y1="205" x2="505" y2="205"/>
    <line x1="305" y1="5" x2="305" y2="505"/>
    <line x1="5" y1="305" x2="505" y2="305"/>
    <line x1="405" y1="5" x2="405" y2="505"/>
    <line x1="5" y1="405" x2="505" y2="405"/>
  </g>
</svg>
