<?xml version="1.0" standalone="no"?>
<!DOCTYPE svg PUBLIC "-//W3C//DTD SVG 1.1//EN" 
  "http://www.w3.org/Graphics/SVG/1.1/DTD/svg11.dtd">
<svg width="556" height="556" version="1.1" id="toplevel"
    xmlns="http://www.w3.org/2000/svg"
    xmlns:xlink="http://www.w3.org/1999/xlink">
  <polygon points="237,551 239,546 272,546 279,500 324,478 297,421 452,86 419,60 407,76 353,65 356,46 348,43 343,5 267,14 211,546"
           fill="bisque"/>
  <g stroke="chocolate" stroke-width="1">
    <line x1="237" y1="551" x2="452" y2="86"/>
    <circle cx="237" cy="551" r="2"/>
    <circle cx="452" cy="86" r="2"/>
  </g>
  <g stroke="chocolate" stroke-width="1">
    <line x1="212" y1="532" x2="324" y2="478"/>
    <circle cx="212" cy="532" r="2"/>
    <circle cx="324" cy="478" r="2"/>
  </g>
  <g stroke="chocolate" stroke-width="1">
    <line x1="219" y1="470" x2="286" y2="403"/>
    <circle cx="219" cy="470" r="2"/>
    <circle cx="286" cy="403" r="2"/>
  </g>
  <g stroke="chocolate" stroke-width="1">
    <line x1="272" y1="546" x2="356" y2="46"/>
    <circle cx="272" cy="546" r="2"/>
    <circle cx="356" cy="46" r="2"/>
  </g>
  <g stroke="chocolate" stroke-width="1">
    <line x1="211" y1="546" x2="267" y2="14"/>
    <circle cx="211" cy="546" r="2"/>
    <circle cx="267" cy="14" r="2"/>
  </g>
  <g stroke="chocolate" stroke-width="1">
    <line x1="237" y1="296" x2="419" y2="60"/>
    <circle cx="237" cy="296" r="2"/>
    <circle cx="419" cy="60" r="2"/>
  </g>
  <g stroke="chocolate" stroke-width="1">
    <line x1="213" y1="525" x2="251" y2="520"/>
    <circle cx="213" cy="525" r="2"/>
    <circle cx="251" cy="520" r="2"/>
  </g>
  <g stroke="chocolate" stroke-width="1">
    <line x1="211" y1="546" x2="272" y2="546"/>
    <circle cx="211" cy="546" r="2"/>
    <circle cx="272" cy="546" r="2"/>
  </g>
  <g stroke="chocolate" stroke-width="1">
    <line x1="237" y1="551" x2="211" y2="546"/>
    <circle cx="237" cy="551" r="2"/>
    <circle cx="211" cy="546" r="2"/>
  </g>
  <g stroke="chocolate" stroke-width="1">
    <line x1="231" y1="348" x2="374" y2="254"/>
    <circle cx="231" cy="348" r="2"/>
    <circle cx="374" cy="254" r="2"/>
  </g>
  <g stroke="chocolate" stroke-width="1">
    <line x1="374" y1="254" x2="343" y2="5"/>
    <circle cx="374" cy="254" r="2"/>
    <circle cx="343" cy="5" r="2"/>
  </g>
  <g stroke="chocolate" stroke-width="1">
    <line x1="272" y1="546" x2="213" y2="525"/>
    <circle cx="272" cy="546" r="2"/>
    <circle cx="213" cy="525" r="2"/>
  </g>
  <g stroke="chocolate" stroke-width="1">
    <line x1="237" y1="551" x2="212" y2="532"/>
    <circle cx="237" cy="551" r="2"/>
    <circle cx="212" cy="532" r="2"/>
  </g>
  <g stroke="chocolate" stroke-width="1">
    <line x1="251" y1="520" x2="219" y2="470"/>
    <circle cx="251" cy="520" r="2"/>
    <circle cx="219" cy="470" r="2"/>
  </g>
  <g stroke="chocolate" stroke-width="1">
    <line x1="324" y1="478" x2="237" y2="296"/>
    <circle cx="324" cy="478" r="2"/>
    <circle cx="237" cy="296" r="2"/>
  </g>
  <g stroke="chocolate" stroke-width="1">
    <line x1="286" y1="403" x2="231" y2="348"/>
    <circle cx="286" cy="403" r="2"/>
    <circle cx="231" cy="348" r="2"/>
  </g>
  <g stroke="chocolate" stroke-width="1">
    <line x1="452" y1="86" x2="419" y2="60"/>
    <circle cx="452" cy="86" r="2"/>
    <circle cx="419" cy="60" r="2"/>
  </g>
  <g stroke="chocolate" stroke-width="1">
    <line x1="267" y1="14" x2="343" y2="5"/>
    <circle cx="267" cy="14" r="2"/>
    <circle cx="343" cy="5" r="2"/>
  </g>
  <g stroke="chocolate" stroke-width="1">
    <line x1="263" y1="46" x2="356" y2="46"/>
    <circle cx="263" cy="46" r="2"/>
    <circle cx="356" cy="46" r="2"/>
  </g>
  <g stroke="chocolate" stroke-width="1">
    <line x1="452" y1="86" x2="263" y2="46"/>
    <circle cx="452" cy="86" r="2"/>
    <circle cx="263" cy="46" r="2"/>
  </g>
  <g stroke="chocolate" stroke-width="1">
    <line x1="356" y1="46" x2="267" y2="14"/>
    <circle cx="356" cy="46" r="2"/>
    <circle cx="267" cy="14" r="2"/>
  </g>
  <g stroke="black" stroke-width="1">
    <line x1="28" y1="28" x2="528" y2="28"/>
    <line x1="28" y1="28" x2="28" y2="528"/>
    <line x1="528" y1="528" x2="28" y2="528"/>
    <line x1="528" y1="528" x2="528" y2="28"/>
    <line x1="128" y1="25" x2="128" y2="31"/>
    <line x1="25" y1="128" x2="31" y2="128"/>
    <line x1="128" y1="525" x2="128" y2="531"/>
    <line x1="525" y1="128" x2="531" y2="128"/>
    <line x1="228" y1="25" x2="228" y2="31"/>
    <line x1="25" y1="228" x2="31" y2="228"/>
    <line x1="228" y1="525" x2="228" y2="531"/>
    <line x1="525" y1="228" x2="531" y2="228"/>
    <line x1="328" y1="25" x2="328" y2="31"/>
    <line x1="25" y1="328" x2="31" y2="328"/>
    <line x1="328" y1="525" x2="328" y2="531"/>
    <line x1="525" y1="328" x2="531" y2="328"/>
    <line x1="428" y1="25" x2="428" y2="31"/>
    <line x1="25" y1="428" x2="31" y2="428"/>
    <line x1="428" y1="525" x2="428" y2="531"/>
    <line x1="525" y1="428" x2="531" y2="428"/>
  </g>
  <g stroke="gray" stroke-width="1" stroke-dasharray="5,5">
    <line x1="128" y1="28" x2="128" y2="528"/>
    <line x1="28" y1="128" x2="528" y2="128"/>
    <line x1="228" y1="28" x2="228" y2="528"/>
    <line x1="28" y1="228" x2="528" y2="228"/>
    <line x1="328" y1="28" x2="328" y2="528"/>
    <line x1="28" y1="328" x2="528" y2="328"/>
    <line x1="428" y1="28" x2="428" y2="528"/>
    <line x1="28" y1="428" x2="528" y2="428"/>
  </g>
</svg>
