<?xml version="1.0" standalone="no"?>
<!DOCTYPE svg PUBLIC "-//W3C//DTD SVG 1.1//EN" 
  "http://www.w3.org/Graphics/SVG/1.1/DTD/svg11.dtd">
<svg width="510" height="510" version="1.1" id="toplevel"
    xmlns="http://www.w3.org/2000/svg"
    xmlns:xlink="http://www.w3.org/1999/xlink">
  <polygon points="71,442 134,442 227,349 259,380 321,318 406,318 439,329 434,318 334,255 134,255 134,380"
           fill="bisque"/>
  <g stroke="chocolate" stroke-width="1">
    <line x1="355" y1="300" x2="364" y2="274"/>
    <circle cx="355" cy="300" r="2"/>
    <circle cx="364" cy="274" r="2"/>
  </g>
  <g stroke="chocolate" stroke-width="1">
    <line x1="259" y1="380" x2="364" y2="274"/>
    <circle cx="259" cy="380" r="2"/>
    <circle cx="364" cy="274" r="2"/>
  </g>
  <g stroke="chocolate" stroke-width="1">
    <line x1="134" y1="442" x2="134" y2="255"/>
    <circle cx="134" cy="442" r="2"/>
    <circle cx="134" cy="255" r="2"/>
  </g>
  <g stroke="chocolate" stroke-width="1">
    <line x1="134" y1="442" x2="321" y2="255"/>
    <circle cx="134" cy="442" r="2"/>
    <circle cx="321" cy="255" r="2"/>
  </g>
  <g stroke="chocolate" stroke-width="1">
    <line x1="71" y1="442" x2="259" y2="255"/>
    <circle cx="71" cy="442" r="2"/>
    <circle cx="259" cy="255" r="2"/>
  </g>
  <g stroke="chocolate" stroke-width="1">
    <line x1="71" y1="442" x2="134" y2="442"/>
    <circle cx="71" cy="442" r="2"/>
    <circle cx="134" cy="442" r="2"/>
  </g>
  <g stroke="chocolate" stroke-width="1">
    <line x1="134" y1="318" x2="196" y2="255"/>
    <circle cx="134" cy="318" r="2"/>
    <circle cx="196" cy="255" r="2"/>
  </g>
  <g stroke="chocolate" stroke-width="1">
    <line x1="259" y1="380" x2="134" y2="255"/>
    <circle cx="259" cy="380" r="2"/>
    <circle cx="134" cy="255" r="2"/>
  </g>
  <g stroke="chocolate" stroke-width="1">
    <line x1="355" y1="300" x2="334" y2="255"/>
    <circle cx="355" cy="300" r="2"/>
    <circle cx="334" cy="255" r="2"/>
  </g>
  <g stroke="chocolate" stroke-width="1">
    <line x1="439" y1="329" x2="434" y2="318"/>
    <circle cx="439" cy="329" r="2"/>
    <circle cx="434" cy="318" r="2"/>
  </g>
  <g stroke="chocolate" stroke-width="1">
    <line x1="290" y1="349" x2="196" y2="255"/>
    <circle cx="290" cy="349" r="2"/>
    <circle cx="196" cy="255" r="2"/>
  </g>
  <g stroke="chocolate" stroke-width="1">
    <line x1="134" y1="318" x2="434" y2="318"/>
    <circle cx="134" cy="318" r="2"/>
    <circle cx="434" cy="318" r="2"/>
  </g>
  <g stroke="chocolate" stroke-width="1">
    <line x1="321" y1="318" x2="259" y2="255"/>
    <circle cx="321" cy="318" r="2"/>
    <circle cx="259" cy="255" r="2"/>
  </g>
  <g stroke="chocolate" stroke-width="1">
    <line x1="352" y1="286" x2="321" y2="255"/>
    <circle cx="352" cy="286" r="2"/>
    <circle cx="321" cy="255" r="2"/>
  </g>
  <g stroke="chocolate" stroke-width="1">
    <line x1="134" y1="255" x2="334" y2="255"/>
    <circle cx="134" cy="255" r="2"/>
    <circle cx="334" cy="255" r="2"/>
  </g>
  <g stroke="chocolate" stroke-width="1">
    <line x1="439" y1="329" x2="355" y2="300"/>
    <circle cx="439" cy="329" r="2"/>
    <circle cx="355" cy="300" r="2"/>
  </g>
  <g stroke="chocolate" stroke-width="1">
    <line x1="434" y1="318" x2="334" y2="255"/>
    <circle cx="434" cy="318" r="2"/>
    <circle cx="334" cy="255" r="2"/>
  </g>
  <g stroke="black" stroke-width="1">
    <line x1="5" y1="5" x2="505" y2="5"/>
    <line x1="5" y1="5" x2="5" y2="505"/>
    <line x1="505" y1="505" x2="5" y2="505"/>
    <line x1="505" y1="505" x2="505" y2="5"/>
    <line x1="105" y1="2" x2="105" y2="8"/>
    <line x1="2" y1="105" x2="8" y2="105"/>
    <line x1="105" y1="502" x2="105" y2="508"/>
    <line x1="502" y1="105" x2="508" y2="105"/>
    <line x1="205" y1="2" x2="205" y2="8"/>
    <line x1="2" y1="205" x2="8" y2="205"/>
    <line x1="205" y1="502" x2="205" y2="508"/>
    <line x1="502" y1="205" x2="508" y2="205"/>
    <line x1="305" y1="2" x2="305" y2="8"/>
    <line x1="2" y1="305" x2="8" y2="305"/>
    <line x1="305" y1="502" x2="305" y2="508"/>
    <line x1="502" y1="305" x2="508" y2="305"/>
    <line x1="405" y1="2" x2="405" y2="8"/>
    <line x1="2" y1="405" x2="8" y2="405"/>
    <line x1="405" y1="502" x2="405" y2="508"/>
    <line x1="502" y1="405" x2="508" y2="405"/>
  </g>
  <g stroke="gray" stroke-width="1" stroke-dasharray="5,5">
    <line x1="105" y1="5" x2="105" y2="505"/>
    <line x1="5" y1="105" x2="505" y2="105"/>
    <line x1="205" y1="5" x2="205" y2="505"/>
    <line x1="5" y1="205" x2="505" y2="205"/>
    <line x1="305" y1="5" x2="305" y2="505"/>
    <line x1="5" y1="305" x2="505" y2="305"/>
    <line x1="405" y1="5" x2="405" y2="505"/>
    <line x1="5" y1="405" x2="505" y2="405"/>
  </g>
</svg>
