<?xml version="1.0" standalone="no"?>
<!DOCTYPE svg PUBLIC "-//W3C//DTD SVG 1.1//EN" 
  "http://www.w3.org/Graphics/SVG/1.1/DTD/svg11.dtd">
<svg width="710" height="710" version="1.1" id="toplevel"
    xmlns="http://www.w3.org/2000/svg"
    xmlns:xlink="http://www.w3.org/1999/xlink">
  <polygon points="394,705 430,634 435,576 443,572 494,5 216,421 377,529 360,608 401,655 400,661 394,667"
           fill="bisque"/>
  <g stroke="chocolate" stroke-width="1">
    <line x1="443" y1="572" x2="494" y2="5"/>
    <circle cx="443" cy="572" r="2"/>
    <circle cx="494" cy="5" r="2"/>
  </g>
  <g stroke="chocolate" stroke-width="1">
    <line x1="430" y1="634" x2="494" y2="5"/>
    <circle cx="430" cy="634" r="2"/>
    <circle cx="494" cy="5" r="2"/>
  </g>
  <g stroke="chocolate" stroke-width="1">
    <line x1="394" y1="705" x2="430" y2="634"/>
    <circle cx="394" cy="705" r="2"/>
    <circle cx="430" cy="634" r="2"/>
  </g>
  <g stroke="chocolate" stroke-width="1">
    <line x1="394" y1="705" x2="494" y2="5"/>
    <circle cx="394" cy="705" r="2"/>
    <circle cx="494" cy="5" r="2"/>
  </g>
  <g stroke="chocolate" stroke-width="1">
    <line x1="394" y1="705" x2="394" y2="667"/>
    <circle cx="394" cy="705" r="2"/>
    <circle cx="394" cy="667" r="2"/>
  </g>
  <g stroke="chocolate" stroke-width="1">
    <line x1="360" y1="608" x2="494" y2="5"/>
    <circle cx="360" cy="608" r="2"/>
    <circle cx="494" cy="5" r="2"/>
  </g>
  <g stroke="chocolate" stroke-width="1">
    <line x1="394" y1="667" x2="430" y2="634"/>
    <circle cx="394" cy="667" r="2"/>
    <circle cx="430" cy="634" r="2"/>
  </g>
  <g stroke="chocolate" stroke-width="1">
    <line x1="412" y1="668" x2="360" y2="608"/>
    <circle cx="412" cy="668" r="2"/>
    <circle cx="360" cy="608" r="2"/>
  </g>
  <g stroke="chocolate" stroke-width="1">
    <line x1="412" y1="668" x2="394" y2="667"/>
    <circle cx="412" cy="668" r="2"/>
    <circle cx="394" cy="667" r="2"/>
  </g>
  <g stroke="chocolate" stroke-width="1">
    <line x1="360" y1="608" x2="443" y2="572"/>
    <circle cx="360" cy="608" r="2"/>
    <circle cx="443" cy="572" r="2"/>
  </g>
  <g stroke="chocolate" stroke-width="1">
    <line x1="443" y1="572" x2="216" y2="421"/>
    <circle cx="443" cy="572" r="2"/>
    <circle cx="216" cy="421" r="2"/>
  </g>
  <g stroke="chocolate" stroke-width="1">
    <line x1="216" y1="421" x2="494" y2="5"/>
    <circle cx="216" cy="421" r="2"/>
    <circle cx="494" cy="5" r="2"/>
  </g>
  <g stroke="black" stroke-width="1">
    <line x1="105" y1="105" x2="605" y2="105"/>
    <line x1="105" y1="105" x2="105" y2="605"/>
    <line x1="605" y1="605" x2="105" y2="605"/>
    <line x1="605" y1="605" x2="605" y2="105"/>
    <line x1="205" y1="102" x2="205" y2="108"/>
    <line x1="102" y1="205" x2="108" y2="205"/>
    <line x1="205" y1="602" x2="205" y2="608"/>
    <line x1="602" y1="205" x2="608" y2="205"/>
    <line x1="305" y1="102" x2="305" y2="108"/>
    <line x1="102" y1="305" x2="108" y2="305"/>
    <line x1="305" y1="602" x2="305" y2="608"/>
    <line x1="602" y1="305" x2="608" y2="305"/>
    <line x1="405" y1="102" x2="405" y2="108"/>
    <line x1="102" y1="405" x2="108" y2="405"/>
    <line x1="405" y1="602" x2="405" y2="608"/>
    <line x1="602" y1="405" x2="608" y2="405"/>
    <line x1="505" y1="102" x2="505" y2="108"/>
    <line x1="102" y1="505" x2="108" y2="505"/>
    <line x1="505" y1="602" x2="505" y2="608"/>
    <line x1="602" y1="505" x2="608" y2="505"/>
  </g>
  <g stroke="gray" stroke-width="1" stroke-dasharray="5,5">
    <line x1="205" y1="105" x2="205" y2="605"/>
    <line x1="105" y1="205" x2="605" y2="205"/>
    <line x1="305" y1="105" x2="305" y2="605"/>
    <line x1="105" y1="305" x2="605" y2="305"/>
    <line x1="405" y1="105" x2="405" y2="605"/>
    <line x1="105" y1="405" x2="605" y2="405"/>
    <line x1="505" y1="105" x2="505" y2="605"/>
    <line x1="105" y1="505" x2="605" y2="505"/>
  </g>
</svg>
