<?xml version="1.0" standalone="no"?>
<!DOCTYPE svg PUBLIC "-//W3C//DTD SVG 1.1//EN" 
  "http://www.w3.org/Graphics/SVG/1.1/DTD/svg11.dtd">
<svg width="510" height="510" version="1.1" id="toplevel"
    xmlns="http://www.w3.org/2000/svg"
    xmlns:xlink="http://www.w3.org/1999/xlink">
  <polygon points="309,442 372,442 400,414 394,255 372,255 372,257 167,274 110,341 234,331 302,388 330,354 367,385"
           fill="bisque"/>
  <g stroke="chocolate" stroke-width="1">
    <line x1="372" y1="442" x2="372" y2="255"/>
    <circle cx="372" cy="442" r="2"/>
    <circle cx="372" cy="255" r="2"/>
  </g>
  <g stroke="chocolate" stroke-width="1">
    <line x1="400" y1="414" x2="394" y2="255"/>
    <circle cx="400" cy="414" r="2"/>
    <circle cx="394" cy="255" r="2"/>
  </g>
  <g stroke="chocolate" stroke-width="1">
    <line x1="372" y1="442" x2="400" y2="414"/>
    <circle cx="372" cy="442" r="2"/>
    <circle cx="400" cy="414" r="2"/>
  </g>
  <g stroke="chocolate" stroke-width="1">
    <line x1="302" y1="388" x2="167" y2="274"/>
    <circle cx="302" cy="388" r="2"/>
    <circle cx="167" cy="274" r="2"/>
  </g>
  <g stroke="chocolate" stroke-width="1">
    <line x1="309" y1="442" x2="398" y2="354"/>
    <circle cx="309" cy="442" r="2"/>
    <circle cx="398" cy="354" r="2"/>
  </g>
  <g stroke="chocolate" stroke-width="1">
    <line x1="309" y1="442" x2="372" y2="442"/>
    <circle cx="309" cy="442" r="2"/>
    <circle cx="372" cy="442" r="2"/>
  </g>
  <g stroke="chocolate" stroke-width="1">
    <line x1="400" y1="414" x2="229" y2="269"/>
    <circle cx="400" cy="414" r="2"/>
    <circle cx="229" cy="269" r="2"/>
  </g>
  <g stroke="chocolate" stroke-width="1">
    <line x1="302" y1="388" x2="395" y2="278"/>
    <circle cx="302" cy="388" r="2"/>
    <circle cx="395" cy="278" r="2"/>
  </g>
  <g stroke="chocolate" stroke-width="1">
    <line x1="372" y1="318" x2="395" y2="294"/>
    <circle cx="372" cy="318" r="2"/>
    <circle cx="395" cy="294" r="2"/>
  </g>
  <g stroke="chocolate" stroke-width="1">
    <line x1="398" y1="354" x2="291" y2="264"/>
    <circle cx="398" cy="354" r="2"/>
    <circle cx="291" cy="264" r="2"/>
  </g>
  <g stroke="chocolate" stroke-width="1">
    <line x1="268" y1="360" x2="354" y2="258"/>
    <circle cx="268" cy="360" r="2"/>
    <circle cx="354" cy="258" r="2"/>
  </g>
  <g stroke="chocolate" stroke-width="1">
    <line x1="395" y1="278" x2="372" y2="255"/>
    <circle cx="395" cy="278" r="2"/>
    <circle cx="372" cy="255" r="2"/>
  </g>
  <g stroke="chocolate" stroke-width="1">
    <line x1="395" y1="294" x2="354" y2="258"/>
    <circle cx="395" cy="294" r="2"/>
    <circle cx="354" cy="258" r="2"/>
  </g>
  <g stroke="chocolate" stroke-width="1">
    <line x1="234" y1="331" x2="291" y2="264"/>
    <circle cx="234" cy="331" r="2"/>
    <circle cx="291" cy="264" r="2"/>
  </g>
  <g stroke="chocolate" stroke-width="1">
    <line x1="200" y1="302" x2="229" y2="269"/>
    <circle cx="200" cy="302" r="2"/>
    <circle cx="229" cy="269" r="2"/>
  </g>
  <g stroke="chocolate" stroke-width="1">
    <line x1="110" y1="341" x2="396" y2="318"/>
    <circle cx="110" cy="341" r="2"/>
    <circle cx="396" cy="318" r="2"/>
  </g>
  <g stroke="chocolate" stroke-width="1">
    <line x1="372" y1="318" x2="396" y2="318"/>
    <circle cx="372" cy="318" r="2"/>
    <circle cx="396" cy="318" r="2"/>
  </g>
  <g stroke="chocolate" stroke-width="1">
    <line x1="110" y1="341" x2="167" y2="274"/>
    <circle cx="110" cy="341" r="2"/>
    <circle cx="167" cy="274" r="2"/>
  </g>
  <g stroke="chocolate" stroke-width="1">
    <line x1="167" y1="274" x2="394" y2="255"/>
    <circle cx="167" cy="274" r="2"/>
    <circle cx="394" cy="255" r="2"/>
  </g>
  <g stroke="chocolate" stroke-width="1">
    <line x1="372" y1="255" x2="394" y2="255"/>
    <circle cx="372" cy="255" r="2"/>
    <circle cx="394" cy="255" r="2"/>
  </g>
  <g stroke="black" stroke-width="1">
    <line x1="5" y1="5" x2="505" y2="5"/>
    <line x1="5" y1="5" x2="5" y2="505"/>
    <line x1="505" y1="505" x2="5" y2="505"/>
    <line x1="505" y1="505" x2="505" y2="5"/>
    <line x1="105" y1="2" x2="105" y2="8"/>
    <line x1="2" y1="105" x2="8" y2="105"/>
    <line x1="105" y1="502" x2="105" y2="508"/>
    <line x1="502" y1="105" x2="508" y2="105"/>
    <line x1="205" y1="2" x2="205" y2="8"/>
    <line x1="2" y1="205" x2="8" y2="205"/>
    <line x1="205" y1="502" x2="205" y2="508"/>
    <line x1="502" y1="205" x2="508" y2="205"/>
    <line x1="305" y1="2" x2="305" y2="8"/>
    <line x1="2" y1="305" x2="8" y2="305"/>
    <line x1="305" y1="502" x2="305" y2="508"/>
    <line x1="502" y1="305" x2="508" y2="305"/>
    <line x1="405" y1="2" x2="405" y2="8"/>
    <line x1="2" y1="405" x2="8" y2="405"/>
    <line x1="405" y1="502" x2="405" y2="508"/>
    <line x1="502" y1="405" x2="508" y2="405"/>
  </g>
  <g stroke="gray" stroke-width="1" stroke-dasharray="5,5">
    <line x1="105" y1="5" x2="105" y2="505"/>
    <line x1="5" y1="105" x2="505" y2="105"/>
    <line x1="205" y1="5" x2="205" y2="505"/>
    <line x1="5" y1="205" x2="505" y2="205"/>
    <line x1="305" y1="5" x2="305" y2="505"/>
    <line x1="5" y1="305" x2="505" y2="305"/>
    <line x1="405" y1="5" x2="405" y2="505"/>
    <line x1="5" y1="405" x2="505" y2="405"/>
  </g>
</svg>
