<?xml version="1.0" standalone="no"?>
<!DOCTYPE svg PUBLIC "-//W3C//DTD SVG 1.1//EN" 
  "http://www.w3.org/Graphics/SVG/1.1/DTD/svg11.dtd">
<svg width="510" height="510" version="1.1" id="toplevel"
    xmlns="http://www.w3.org/2000/svg"
    xmlns:xlink="http://www.w3.org/1999/xlink">
  <polygon points="311,365 354,247 317,167 258,145 178,183 156,241 193,321"
           fill="bisque"/>
  <polygon points="274,284 215,263 236,204 295,226" fill="bisque"/>
  <g stroke="chocolate" stroke-width="1">
    <line x1="311" y1="365" x2="354" y2="247"/>
    <circle cx="311" cy="365" r="2"/>
    <circle cx="354" cy="247" r="2"/>
  </g>
  <g stroke="chocolate" stroke-width="1">
    <line x1="274" y1="284" x2="317" y2="167"/>
    <circle cx="274" cy="284" r="2"/>
    <circle cx="317" cy="167" r="2"/>
  </g>
  <g stroke="chocolate" stroke-width="1">
    <line x1="193" y1="321" x2="258" y2="145"/>
    <circle cx="193" cy="321" r="2"/>
    <circle cx="258" cy="145" r="2"/>
  </g>
  <g stroke="chocolate" stroke-width="1">
    <line x1="156" y1="241" x2="178" y2="183"/>
    <circle cx="156" cy="241" r="2"/>
    <circle cx="178" cy="183" r="2"/>
  </g>
  <g stroke="chocolate" stroke-width="1">
    <line x1="178" y1="183" x2="258" y2="145"/>
    <circle cx="178" cy="183" r="2"/>
    <circle cx="258" cy="145" r="2"/>
  </g>
  <g stroke="chocolate" stroke-width="1">
    <line x1="193" y1="321" x2="156" y2="241"/>
    <circle cx="193" cy="321" r="2"/>
    <circle cx="156" cy="241" r="2"/>
  </g>
  <g stroke="chocolate" stroke-width="1">
    <line x1="354" y1="247" x2="317" y2="167"/>
    <circle cx="354" cy="247" r="2"/>
    <circle cx="317" cy="167" r="2"/>
  </g>
  <g stroke="chocolate" stroke-width="1">
    <line x1="311" y1="365" x2="193" y2="321"/>
    <circle cx="311" cy="365" r="2"/>
    <circle cx="193" cy="321" r="2"/>
  </g>
  <g stroke="chocolate" stroke-width="1">
    <line x1="332" y1="306" x2="156" y2="241"/>
    <circle cx="332" cy="306" r="2"/>
    <circle cx="156" cy="241" r="2"/>
  </g>
  <g stroke="chocolate" stroke-width="1">
    <line x1="354" y1="247" x2="178" y2="183"/>
    <circle cx="354" cy="247" r="2"/>
    <circle cx="178" cy="183" r="2"/>
  </g>
  <g stroke="chocolate" stroke-width="1">
    <line x1="317" y1="167" x2="258" y2="145"/>
    <circle cx="317" cy="167" r="2"/>
    <circle cx="258" cy="145" r="2"/>
  </g>
  <g stroke="black" stroke-width="1">
    <line x1="5" y1="5" x2="505" y2="5"/>
    <line x1="5" y1="5" x2="5" y2="505"/>
    <line x1="505" y1="505" x2="5" y2="505"/>
    <line x1="505" y1="505" x2="505" y2="5"/>
    <line x1="105" y1="2" x2="105" y2="8"/>
    <line x1="2" y1="105" x2="8" y2="105"/>
    <line x1="105" y1="502" x2="105" y2="508"/>
    <line x1="502" y1="105" x2="508" y2="105"/>
    <line x1="205" y1="2" x2="205" y2="8"/>
    <line x1="2" y1="205" x2="8" y2="205"/>
    <line x1="205" y1="502" x2="205" y2="508"/>
    <line x1="502" y1="205" x2="508" y2="205"/>
    <line x1="305" y1="2" x2="305" y2="8"/>
    <line x1="2" y1="305" x2="8" y2="305"/>
    <line x1="305" y1="502" x2="305" y2="508"/>
    <line x1="502" y1="305" x2="508" y2="305"/>
    <line x1="405" y1="2" x2="405" y2="8"/>
    <line x1="2" y1="405" x2="8" y2="405"/>
    <line x1="405" y1="502" x2="405" y2="508"/>
    <line x1="502" y1="405" x2="508" y2="405"/>
  </g>
  <g stroke="gray" stroke-width="1" stroke-dasharray="5,5">
    <line x1="105" y1="5" x2="105" y2="505"/>
    <line x1="5" y1="105" x2="505" y2="105"/>
    <line x1="205" y1="5" x2="205" y2="505"/>
    <line x1="5" y1="205" x2="505" y2="205"/>
    <line x1="305" y1="5" x2="305" y2="505"/>
    <line x1="5" y1="305" x2="505" y2="305"/>
    <line x1="405" y1="5" x2="405" y2="505"/>
    <line x1="5" y1="405" x2="505" y2="405"/>
  </g>
</svg>
