<?xml version="1.0" standalone="no"?>
<!DOCTYPE svg PUBLIC "-//W3C//DTD SVG 1.1//EN" 
  "http://www.w3.org/Graphics/SVG/1.1/DTD/svg11.dtd">
<svg width="510" height="510" version="1.1" id="toplevel"
    xmlns="http://www.w3.org/2000/svg"
    xmlns:xlink="http://www.w3.org/1999/xlink">
  <polygon points="269,499 450,327 192,55 101,141 144,187 99,230 142,275 97,318"
           fill="bisque"/>
  <g stroke="chocolate" stroke-width="1">
    <line x1="269" y1="499" x2="450" y2="327"/>
    <circle cx="269" cy="499" r="2"/>
    <circle cx="450" cy="327" r="2"/>
  </g>
  <g stroke="chocolate" stroke-width="1">
    <line x1="183" y1="409" x2="228" y2="366"/>
    <circle cx="183" cy="409" r="2"/>
    <circle cx="228" cy="366" r="2"/>
  </g>
  <g stroke="chocolate" stroke-width="1">
    <line x1="274" y1="323" x2="364" y2="236"/>
    <circle cx="274" cy="323" r="2"/>
    <circle cx="364" cy="236" r="2"/>
  </g>
  <g stroke="chocolate" stroke-width="1">
    <line x1="360" y1="413" x2="364" y2="236"/>
    <circle cx="360" cy="413" r="2"/>
    <circle cx="364" cy="236" r="2"/>
  </g>
  <g stroke="chocolate" stroke-width="1">
    <line x1="228" y1="366" x2="235" y2="101"/>
    <circle cx="228" cy="366" r="2"/>
    <circle cx="235" cy="101" r="2"/>
  </g>
  <g stroke="chocolate" stroke-width="1">
    <line x1="183" y1="409" x2="192" y2="55"/>
    <circle cx="183" cy="409" r="2"/>
    <circle cx="192" cy="55" r="2"/>
  </g>
  <g stroke="chocolate" stroke-width="1">
    <line x1="97" y1="318" x2="278" y2="146"/>
    <circle cx="97" cy="318" r="2"/>
    <circle cx="278" cy="146" r="2"/>
  </g>
  <g stroke="chocolate" stroke-width="1">
    <line x1="99" y1="230" x2="235" y2="101"/>
    <circle cx="99" cy="230" r="2"/>
    <circle cx="235" cy="101" r="2"/>
  </g>
  <g stroke="chocolate" stroke-width="1">
    <line x1="360" y1="413" x2="183" y2="409"/>
    <circle cx="360" cy="413" r="2"/>
    <circle cx="183" cy="409" r="2"/>
  </g>
  <g stroke="chocolate" stroke-width="1">
    <line x1="269" y1="499" x2="97" y2="318"/>
    <circle cx="269" cy="499" r="2"/>
    <circle cx="97" cy="318" r="2"/>
  </g>
  <g stroke="chocolate" stroke-width="1">
    <line x1="101" y1="141" x2="192" y2="55"/>
    <circle cx="101" cy="141" r="2"/>
    <circle cx="192" cy="55" r="2"/>
  </g>
  <g stroke="chocolate" stroke-width="1">
    <line x1="228" y1="366" x2="99" y2="230"/>
    <circle cx="228" cy="366" r="2"/>
    <circle cx="99" cy="230" r="2"/>
  </g>
  <g stroke="chocolate" stroke-width="1">
    <line x1="450" y1="327" x2="97" y2="318"/>
    <circle cx="450" cy="327" r="2"/>
    <circle cx="97" cy="318" r="2"/>
  </g>
  <g stroke="chocolate" stroke-width="1">
    <line x1="360" y1="413" x2="101" y2="141"/>
    <circle cx="360" cy="413" r="2"/>
    <circle cx="101" cy="141" r="2"/>
  </g>
  <g stroke="chocolate" stroke-width="1">
    <line x1="233" y1="189" x2="190" y2="144"/>
    <circle cx="233" cy="189" r="2"/>
    <circle cx="190" cy="144" r="2"/>
  </g>
  <g stroke="chocolate" stroke-width="1">
    <line x1="364" y1="236" x2="187" y2="232"/>
    <circle cx="364" cy="236" r="2"/>
    <circle cx="187" cy="232" r="2"/>
  </g>
  <g stroke="chocolate" stroke-width="1">
    <line x1="450" y1="327" x2="192" y2="55"/>
    <circle cx="450" cy="327" r="2"/>
    <circle cx="192" cy="55" r="2"/>
  </g>
  <g stroke="black" stroke-width="1">
    <line x1="5" y1="5" x2="505" y2="5"/>
    <line x1="5" y1="5" x2="5" y2="505"/>
    <line x1="505" y1="505" x2="5" y2="505"/>
    <line x1="505" y1="505" x2="505" y2="5"/>
    <line x1="105" y1="2" x2="105" y2="8"/>
    <line x1="2" y1="105" x2="8" y2="105"/>
    <line x1="105" y1="502" x2="105" y2="508"/>
    <line x1="502" y1="105" x2="508" y2="105"/>
    <line x1="205" y1="2" x2="205" y2="8"/>
    <line x1="2" y1="205" x2="8" y2="205"/>
    <line x1="205" y1="502" x2="205" y2="508"/>
    <line x1="502" y1="205" x2="508" y2="205"/>
    <line x1="305" y1="2" x2="305" y2="8"/>
    <line x1="2" y1="305" x2="8" y2="305"/>
    <line x1="305" y1="502" x2="305" y2="508"/>
    <line x1="502" y1="305" x2="508" y2="305"/>
    <line x1="405" y1="2" x2="405" y2="8"/>
    <line x1="2" y1="405" x2="8" y2="405"/>
    <line x1="405" y1="502" x2="405" y2="508"/>
    <line x1="502" y1="405" x2="508" y2="405"/>
  </g>
  <g stroke="gray" stroke-width="1" stroke-dasharray="5,5">
    <line x1="105" y1="5" x2="105" y2="505"/>
    <line x1="5" y1="105" x2="505" y2="105"/>
    <line x1="205" y1="5" x2="205" y2="505"/>
    <line x1="5" y1="205" x2="505" y2="205"/>
    <line x1="305" y1="5" x2="305" y2="505"/>
    <line x1="5" y1="305" x2="505" y2="305"/>
    <line x1="405" y1="5" x2="405" y2="505"/>
    <line x1="5" y1="405" x2="505" y2="405"/>
  </g>
</svg>
