<?xml version="1.0" standalone="no"?>
<!DOCTYPE svg PUBLIC "-//W3C//DTD SVG 1.1//EN" 
  "http://www.w3.org/Graphics/SVG/1.1/DTD/svg11.dtd">
<svg width="568" height="568" version="1.1" id="toplevel"
    xmlns="http://www.w3.org/2000/svg"
    xmlns:xlink="http://www.w3.org/1999/xlink">
  <polygon points="271,563 356,539 509,267 563,297 539,212 267,59 297,5 212,29 59,301 5,271 29,356 301,509"
           fill="bisque"/>
  <g stroke="chocolate" stroke-width="1">
    <line x1="356" y1="539" x2="29" y2="356"/>
    <circle cx="356" cy="539" r="2"/>
    <circle cx="29" cy="356" r="2"/>
  </g>
  <g stroke="chocolate" stroke-width="1">
    <line x1="332" y1="454" x2="5" y2="271"/>
    <circle cx="332" cy="454" r="2"/>
    <circle cx="5" cy="271" r="2"/>
  </g>
  <g stroke="chocolate" stroke-width="1">
    <line x1="271" y1="563" x2="356" y2="539"/>
    <circle cx="271" cy="563" r="2"/>
    <circle cx="356" cy="539" r="2"/>
  </g>
  <g stroke="chocolate" stroke-width="1">
    <line x1="29" y1="356" x2="5" y2="271"/>
    <circle cx="29" cy="356" r="2"/>
    <circle cx="5" cy="271" r="2"/>
  </g>
  <g stroke="chocolate" stroke-width="1">
    <line x1="563" y1="297" x2="236" y2="114"/>
    <circle cx="563" cy="297" r="2"/>
    <circle cx="236" cy="114" r="2"/>
  </g>
  <g stroke="chocolate" stroke-width="1">
    <line x1="356" y1="539" x2="332" y2="454"/>
    <circle cx="356" cy="539" r="2"/>
    <circle cx="332" cy="454" r="2"/>
  </g>
  <g stroke="chocolate" stroke-width="1">
    <line x1="236" y1="114" x2="212" y2="29"/>
    <circle cx="236" cy="114" r="2"/>
    <circle cx="212" cy="29" r="2"/>
  </g>
  <g stroke="chocolate" stroke-width="1">
    <line x1="539" y1="212" x2="212" y2="29"/>
    <circle cx="539" cy="212" r="2"/>
    <circle cx="212" cy="29" r="2"/>
  </g>
  <g stroke="chocolate" stroke-width="1">
    <line x1="563" y1="297" x2="539" y2="212"/>
    <circle cx="563" cy="297" r="2"/>
    <circle cx="539" cy="212" r="2"/>
  </g>
  <g stroke="chocolate" stroke-width="1">
    <line x1="29" y1="356" x2="114" y2="332"/>
    <circle cx="29" cy="356" r="2"/>
    <circle cx="114" cy="332" r="2"/>
  </g>
  <g stroke="chocolate" stroke-width="1">
    <line x1="454" y1="236" x2="539" y2="212"/>
    <circle cx="454" cy="236" r="2"/>
    <circle cx="539" cy="212" r="2"/>
  </g>
  <g stroke="chocolate" stroke-width="1">
    <line x1="356" y1="539" x2="539" y2="212"/>
    <circle cx="356" cy="539" r="2"/>
    <circle cx="539" cy="212" r="2"/>
  </g>
  <g stroke="chocolate" stroke-width="1">
    <line x1="271" y1="563" x2="454" y2="236"/>
    <circle cx="271" cy="563" r="2"/>
    <circle cx="454" cy="236" r="2"/>
  </g>
  <g stroke="chocolate" stroke-width="1">
    <line x1="114" y1="332" x2="297" y2="5"/>
    <circle cx="114" cy="332" r="2"/>
    <circle cx="297" cy="5" r="2"/>
  </g>
  <g stroke="chocolate" stroke-width="1">
    <line x1="29" y1="356" x2="212" y2="29"/>
    <circle cx="29" cy="356" r="2"/>
    <circle cx="212" cy="29" r="2"/>
  </g>
  <g stroke="chocolate" stroke-width="1">
    <line x1="212" y1="29" x2="297" y2="5"/>
    <circle cx="212" cy="29" r="2"/>
    <circle cx="297" cy="5" r="2"/>
  </g>
  <g stroke="black" stroke-width="1">
    <line x1="34" y1="34" x2="534" y2="34"/>
    <line x1="34" y1="34" x2="34" y2="534"/>
    <line x1="534" y1="534" x2="34" y2="534"/>
    <line x1="534" y1="534" x2="534" y2="34"/>
    <line x1="134" y1="31" x2="134" y2="37"/>
    <line x1="31" y1="134" x2="37" y2="134"/>
    <line x1="134" y1="531" x2="134" y2="537"/>
    <line x1="531" y1="134" x2="537" y2="134"/>
    <line x1="234" y1="31" x2="234" y2="37"/>
    <line x1="31" y1="234" x2="37" y2="234"/>
    <line x1="234" y1="531" x2="234" y2="537"/>
    <line x1="531" y1="234" x2="537" y2="234"/>
    <line x1="334" y1="31" x2="334" y2="37"/>
    <line x1="31" y1="334" x2="37" y2="334"/>
    <line x1="334" y1="531" x2="334" y2="537"/>
    <line x1="531" y1="334" x2="537" y2="334"/>
    <line x1="434" y1="31" x2="434" y2="37"/>
    <line x1="31" y1="434" x2="37" y2="434"/>
    <line x1="434" y1="531" x2="434" y2="537"/>
    <line x1="531" y1="434" x2="537" y2="434"/>
  </g>
  <g stroke="gray" stroke-width="1" stroke-dasharray="5,5">
    <line x1="134" y1="34" x2="134" y2="534"/>
    <line x1="34" y1="134" x2="534" y2="134"/>
    <line x1="234" y1="34" x2="234" y2="534"/>
    <line x1="34" y1="234" x2="534" y2="234"/>
    <line x1="334" y1="34" x2="334" y2="534"/>
    <line x1="34" y1="334" x2="534" y2="334"/>
    <line x1="434" y1="34" x2="434" y2="534"/>
    <line x1="34" y1="434" x2="534" y2="434"/>
  </g>
</svg>
