<?xml version="1.0" standalone="no"?>
<!DOCTYPE svg PUBLIC "-//W3C//DTD SVG 1.1//EN" 
  "http://www.w3.org/Graphics/SVG/1.1/DTD/svg11.dtd">
<svg width="552" height="552" version="1.1" id="toplevel"
    xmlns="http://www.w3.org/2000/svg"
    xmlns:xlink="http://www.w3.org/1999/xlink">
  <polygon points="37,443 547,267 547,255 537,255 507,217 502,183 483,186 423,109 254,222 122,242 23,356 26,374 5,387"
           fill="bisque"/>
  <g stroke="chocolate" stroke-width="1">
    <line x1="120" y1="358" x2="122" y2="242"/>
    <circle cx="120" cy="358" r="2"/>
    <circle cx="122" cy="242" r="2"/>
  </g>
  <g stroke="chocolate" stroke-width="1">
    <line x1="47" y1="439" x2="47" y2="329"/>
    <circle cx="47" cy="439" r="2"/>
    <circle cx="47" cy="329" r="2"/>
  </g>
  <g stroke="chocolate" stroke-width="1">
    <line x1="547" y1="267" x2="547" y2="255"/>
    <circle cx="547" cy="267" r="2"/>
    <circle cx="547" cy="255" r="2"/>
  </g>
  <g stroke="chocolate" stroke-width="1">
    <line x1="37" y1="443" x2="23" y2="356"/>
    <circle cx="37" cy="443" r="2"/>
    <circle cx="23" cy="356" r="2"/>
  </g>
  <g stroke="chocolate" stroke-width="1">
    <line x1="120" y1="319" x2="112" y2="255"/>
    <circle cx="120" cy="319" r="2"/>
    <circle cx="112" cy="255" r="2"/>
  </g>
  <g stroke="chocolate" stroke-width="1">
    <line x1="37" y1="443" x2="5" y2="387"/>
    <circle cx="37" cy="443" r="2"/>
    <circle cx="5" cy="387" r="2"/>
  </g>
  <g stroke="chocolate" stroke-width="1">
    <line x1="517" y1="277" x2="502" y2="183"/>
    <circle cx="517" cy="277" r="2"/>
    <circle cx="502" cy="183" r="2"/>
  </g>
  <g stroke="chocolate" stroke-width="1">
    <line x1="47" y1="439" x2="5" y2="387"/>
    <circle cx="47" cy="439" r="2"/>
    <circle cx="5" cy="387" r="2"/>
  </g>
  <g stroke="chocolate" stroke-width="1">
    <line x1="23" y1="356" x2="122" y2="242"/>
    <circle cx="23" cy="356" r="2"/>
    <circle cx="122" cy="242" r="2"/>
  </g>
  <g stroke="chocolate" stroke-width="1">
    <line x1="5" y1="387" x2="423" y2="109"/>
    <circle cx="5" cy="387" r="2"/>
    <circle cx="423" cy="109" r="2"/>
  </g>
  <g stroke="chocolate" stroke-width="1">
    <line x1="37" y1="443" x2="547" y2="267"/>
    <circle cx="37" cy="443" r="2"/>
    <circle cx="547" cy="267" r="2"/>
  </g>
  <g stroke="chocolate" stroke-width="1">
    <line x1="517" y1="277" x2="423" y2="109"/>
    <circle cx="517" cy="277" r="2"/>
    <circle cx="423" cy="109" r="2"/>
  </g>
  <g stroke="chocolate" stroke-width="1">
    <line x1="120" y1="358" x2="23" y2="356"/>
    <circle cx="120" cy="358" r="2"/>
    <circle cx="23" cy="356" r="2"/>
  </g>
  <g stroke="chocolate" stroke-width="1">
    <line x1="47" y1="329" x2="120" y2="319"/>
    <circle cx="47" cy="329" r="2"/>
    <circle cx="120" cy="319" r="2"/>
  </g>
  <g stroke="chocolate" stroke-width="1">
    <line x1="547" y1="267" x2="423" y2="109"/>
    <circle cx="547" cy="267" r="2"/>
    <circle cx="423" cy="109" r="2"/>
  </g>
  <g stroke="chocolate" stroke-width="1">
    <line x1="122" y1="242" x2="502" y2="183"/>
    <circle cx="122" cy="242" r="2"/>
    <circle cx="502" cy="183" r="2"/>
  </g>
  <g stroke="chocolate" stroke-width="1">
    <line x1="112" y1="255" x2="547" y2="255"/>
    <circle cx="112" cy="255" r="2"/>
    <circle cx="547" cy="255" r="2"/>
  </g>
  <g stroke="black" stroke-width="1">
    <line x1="26" y1="26" x2="526" y2="26"/>
    <line x1="26" y1="26" x2="26" y2="526"/>
    <line x1="526" y1="526" x2="26" y2="526"/>
    <line x1="526" y1="526" x2="526" y2="26"/>
    <line x1="126" y1="23" x2="126" y2="29"/>
    <line x1="23" y1="126" x2="29" y2="126"/>
    <line x1="126" y1="523" x2="126" y2="529"/>
    <line x1="523" y1="126" x2="529" y2="126"/>
    <line x1="226" y1="23" x2="226" y2="29"/>
    <line x1="23" y1="226" x2="29" y2="226"/>
    <line x1="226" y1="523" x2="226" y2="529"/>
    <line x1="523" y1="226" x2="529" y2="226"/>
    <line x1="326" y1="23" x2="326" y2="29"/>
    <line x1="23" y1="326" x2="29" y2="326"/>
    <line x1="326" y1="523" x2="326" y2="529"/>
    <line x1="523" y1="326" x2="529" y2="326"/>
    <line x1="426" y1="23" x2="426" y2="29"/>
    <line x1="23" y1="426" x2="29" y2="426"/>
    <line x1="426" y1="523" x2="426" y2="529"/>
    <line x1="523" y1="426" x2="529" y2="426"/>
  </g>
  <g stroke="gray" stroke-width="1" stroke-dasharray="5,5">
    <line x1="126" y1="26" x2="126" y2="526"/>
    <line x1="26" y1="126" x2="526" y2="126"/>
    <line x1="226" y1="26" x2="226" y2="526"/>
    <line x1="26" y1="226" x2="526" y2="226"/>
    <line x1="326" y1="26" x2="326" y2="526"/>
    <line x1="26" y1="326" x2="526" y2="326"/>
    <line x1="426" y1="26" x2="426" y2="526"/>
    <line x1="26" y1="426" x2="526" y2="426"/>
  </g>
</svg>
