<?xml version="1.0" standalone="no"?>
<!DOCTYPE svg PUBLIC "-//W3C//DTD SVG 1.1//EN" 
  "http://www.w3.org/Graphics/SVG/1.1/DTD/svg11.dtd">
<svg width="548" height="548" version="1.1" id="toplevel"
    xmlns="http://www.w3.org/2000/svg"
    xmlns:xlink="http://www.w3.org/1999/xlink">
  <polygon points="50,433 414,374 505,374 505,359 543,353 505,115 271,134 5,219 5,374 40,374"
           fill="bisque"/>
  <g stroke="chocolate" stroke-width="1">
    <line x1="50" y1="433" x2="543" y2="353"/>
    <circle cx="50" cy="433" r="2"/>
    <circle cx="543" cy="353" r="2"/>
  </g>
  <g stroke="chocolate" stroke-width="1">
    <line x1="41" y1="269" x2="41" y2="268"/>
    <circle cx="41" cy="269" r="2"/>
    <circle cx="41" cy="268" r="2"/>
  </g>
  <g stroke="chocolate" stroke-width="1">
    <line x1="5" y1="374" x2="505" y2="374"/>
    <circle cx="5" cy="374" r="2"/>
    <circle cx="505" cy="374" r="2"/>
  </g>
  <g stroke="chocolate" stroke-width="1">
    <line x1="5" y1="374" x2="5" y2="219"/>
    <circle cx="5" cy="374" r="2"/>
    <circle cx="5" cy="219" r="2"/>
  </g>
  <g stroke="chocolate" stroke-width="1">
    <line x1="505" y1="374" x2="505" y2="115"/>
    <circle cx="505" cy="374" r="2"/>
    <circle cx="505" cy="115" r="2"/>
  </g>
  <g stroke="chocolate" stroke-width="1">
    <line x1="41" y1="269" x2="41" y2="268"/>
    <circle cx="41" cy="269" r="2"/>
    <circle cx="41" cy="268" r="2"/>
  </g>
  <g stroke="chocolate" stroke-width="1">
    <line x1="50" y1="433" x2="15" y2="216"/>
    <circle cx="50" cy="433" r="2"/>
    <circle cx="15" cy="216" r="2"/>
  </g>
  <g stroke="chocolate" stroke-width="1">
    <line x1="41" y1="269" x2="15" y2="216"/>
    <circle cx="41" cy="269" r="2"/>
    <circle cx="15" cy="216" r="2"/>
  </g>
  <g stroke="chocolate" stroke-width="1">
    <line x1="41" y1="269" x2="5" y2="219"/>
    <circle cx="41" cy="269" r="2"/>
    <circle cx="5" cy="219" r="2"/>
  </g>
  <g stroke="chocolate" stroke-width="1">
    <line x1="46" y1="268" x2="271" y2="134"/>
    <circle cx="46" cy="268" r="2"/>
    <circle cx="271" cy="134" r="2"/>
  </g>
  <g stroke="chocolate" stroke-width="1">
    <line x1="543" y1="353" x2="505" y2="115"/>
    <circle cx="543" cy="353" r="2"/>
    <circle cx="505" cy="115" r="2"/>
  </g>
  <g stroke="chocolate" stroke-width="1">
    <line x1="41" y1="269" x2="46" y2="268"/>
    <circle cx="41" cy="269" r="2"/>
    <circle cx="46" cy="268" r="2"/>
  </g>
  <g stroke="chocolate" stroke-width="1">
    <line x1="46" y1="268" x2="41" y2="268"/>
    <circle cx="46" cy="268" r="2"/>
    <circle cx="41" cy="268" r="2"/>
  </g>
  <g stroke="chocolate" stroke-width="1">
    <line x1="5" y1="219" x2="271" y2="134"/>
    <circle cx="5" cy="219" r="2"/>
    <circle cx="271" cy="134" r="2"/>
  </g>
  <g stroke="chocolate" stroke-width="1">
    <line x1="271" y1="134" x2="505" y2="115"/>
    <circle cx="271" cy="134" r="2"/>
    <circle cx="505" cy="115" r="2"/>
  </g>
  <g stroke="black" stroke-width="1">
    <line x1="24" y1="24" x2="524" y2="24"/>
    <line x1="24" y1="24" x2="24" y2="524"/>
    <line x1="524" y1="524" x2="24" y2="524"/>
    <line x1="524" y1="524" x2="524" y2="24"/>
    <line x1="124" y1="21" x2="124" y2="27"/>
    <line x1="21" y1="124" x2="27" y2="124"/>
    <line x1="124" y1="521" x2="124" y2="527"/>
    <line x1="521" y1="124" x2="527" y2="124"/>
    <line x1="224" y1="21" x2="224" y2="27"/>
    <line x1="21" y1="224" x2="27" y2="224"/>
    <line x1="224" y1="521" x2="224" y2="527"/>
    <line x1="521" y1="224" x2="527" y2="224"/>
    <line x1="324" y1="21" x2="324" y2="27"/>
    <line x1="21" y1="324" x2="27" y2="324"/>
    <line x1="324" y1="521" x2="324" y2="527"/>
    <line x1="521" y1="324" x2="527" y2="324"/>
    <line x1="424" y1="21" x2="424" y2="27"/>
    <line x1="21" y1="424" x2="27" y2="424"/>
    <line x1="424" y1="521" x2="424" y2="527"/>
    <line x1="521" y1="424" x2="527" y2="424"/>
  </g>
  <g stroke="gray" stroke-width="1" stroke-dasharray="5,5">
    <line x1="124" y1="24" x2="124" y2="524"/>
    <line x1="24" y1="124" x2="524" y2="124"/>
    <line x1="224" y1="24" x2="224" y2="524"/>
    <line x1="24" y1="224" x2="524" y2="224"/>
    <line x1="324" y1="24" x2="324" y2="524"/>
    <line x1="24" y1="324" x2="524" y2="324"/>
    <line x1="424" y1="24" x2="424" y2="524"/>
    <line x1="24" y1="424" x2="524" y2="424"/>
  </g>
</svg>
