<?xml version="1.0" standalone="no"?>
<!DOCTYPE svg PUBLIC "-//W3C//DTD SVG 1.1//EN" 
  "http://www.w3.org/Graphics/SVG/1.1/DTD/svg11.dtd">
<svg width="584" height="584" version="1.1" id="toplevel"
    xmlns="http://www.w3.org/2000/svg"
    xmlns:xlink="http://www.w3.org/1999/xlink">
  <polygon points="132,579 201,544 201,505 452,505 452,276 472,261 452,234 452,5 331,5 182,226 112,539"
           fill="bisque"/>
  <g stroke="chocolate" stroke-width="1">
    <line x1="132" y1="579" x2="201" y2="544"/>
    <circle cx="132" cy="579" r="2"/>
    <circle cx="201" cy="544" r="2"/>
  </g>
  <g stroke="chocolate" stroke-width="1">
    <line x1="112" y1="539" x2="472" y2="261"/>
    <circle cx="112" cy="539" r="2"/>
    <circle cx="472" cy="261" r="2"/>
  </g>
  <g stroke="chocolate" stroke-width="1">
    <line x1="261" y1="160" x2="332" y2="10"/>
    <circle cx="261" cy="160" r="2"/>
    <circle cx="332" cy="10" r="2"/>
  </g>
  <g stroke="chocolate" stroke-width="1">
    <line x1="261" y1="160" x2="272" y2="92"/>
    <circle cx="261" cy="160" r="2"/>
    <circle cx="272" cy="92" r="2"/>
  </g>
  <g stroke="chocolate" stroke-width="1">
    <line x1="112" y1="539" x2="182" y2="226"/>
    <circle cx="112" cy="539" r="2"/>
    <circle cx="182" cy="226" r="2"/>
  </g>
  <g stroke="chocolate" stroke-width="1">
    <line x1="182" y1="226" x2="331" y2="5"/>
    <circle cx="182" cy="226" r="2"/>
    <circle cx="331" cy="5" r="2"/>
  </g>
  <g stroke="chocolate" stroke-width="1">
    <line x1="234" y1="190" x2="261" y2="160"/>
    <circle cx="234" cy="190" r="2"/>
    <circle cx="261" cy="160" r="2"/>
  </g>
  <g stroke="chocolate" stroke-width="1">
    <line x1="119" y1="505" x2="452" y2="505"/>
    <circle cx="119" cy="505" r="2"/>
    <circle cx="452" cy="505" r="2"/>
  </g>
  <g stroke="chocolate" stroke-width="1">
    <line x1="452" y1="505" x2="452" y2="5"/>
    <circle cx="452" cy="505" r="2"/>
    <circle cx="452" cy="5" r="2"/>
  </g>
  <g stroke="chocolate" stroke-width="1">
    <line x1="201" y1="544" x2="197" y2="205"/>
    <circle cx="201" cy="544" r="2"/>
    <circle cx="197" cy="205" r="2"/>
  </g>
  <g stroke="chocolate" stroke-width="1">
    <line x1="331" y1="56" x2="326" y2="12"/>
    <circle cx="331" cy="56" r="2"/>
    <circle cx="326" cy="12" r="2"/>
  </g>
  <g stroke="chocolate" stroke-width="1">
    <line x1="132" y1="579" x2="112" y2="539"/>
    <circle cx="132" cy="579" r="2"/>
    <circle cx="112" cy="539" r="2"/>
  </g>
  <g stroke="chocolate" stroke-width="1">
    <line x1="201" y1="544" x2="119" y2="505"/>
    <circle cx="201" cy="544" r="2"/>
    <circle cx="119" cy="505" r="2"/>
  </g>
  <g stroke="chocolate" stroke-width="1">
    <line x1="182" y1="226" x2="234" y2="190"/>
    <circle cx="182" cy="226" r="2"/>
    <circle cx="234" cy="190" r="2"/>
  </g>
  <g stroke="chocolate" stroke-width="1">
    <line x1="272" y1="92" x2="331" y2="56"/>
    <circle cx="272" cy="92" r="2"/>
    <circle cx="331" cy="56" r="2"/>
  </g>
  <g stroke="chocolate" stroke-width="1">
    <line x1="197" y1="205" x2="234" y2="190"/>
    <circle cx="197" cy="205" r="2"/>
    <circle cx="234" cy="190" r="2"/>
  </g>
  <g stroke="chocolate" stroke-width="1">
    <line x1="332" y1="10" x2="331" y2="5"/>
    <circle cx="332" cy="10" r="2"/>
    <circle cx="331" cy="5" r="2"/>
  </g>
  <g stroke="chocolate" stroke-width="1">
    <line x1="472" y1="261" x2="305" y2="44"/>
    <circle cx="472" cy="261" r="2"/>
    <circle cx="305" cy="44" r="2"/>
  </g>
  <g stroke="chocolate" stroke-width="1">
    <line x1="326" y1="12" x2="332" y2="10"/>
    <circle cx="326" cy="12" r="2"/>
    <circle cx="332" cy="10" r="2"/>
  </g>
  <g stroke="chocolate" stroke-width="1">
    <line x1="315" y1="47" x2="307" y2="41"/>
    <circle cx="315" cy="47" r="2"/>
    <circle cx="307" cy="41" r="2"/>
  </g>
  <g stroke="chocolate" stroke-width="1">
    <line x1="331" y1="56" x2="307" y2="41"/>
    <circle cx="331" cy="56" r="2"/>
    <circle cx="307" cy="41" r="2"/>
  </g>
  <g stroke="chocolate" stroke-width="1">
    <line x1="331" y1="5" x2="452" y2="5"/>
    <circle cx="331" cy="5" r="2"/>
    <circle cx="452" cy="5" r="2"/>
  </g>
  <g stroke="chocolate" stroke-width="1">
    <line x1="315" y1="47" x2="305" y2="44"/>
    <circle cx="315" cy="47" r="2"/>
    <circle cx="305" cy="44" r="2"/>
  </g>
  <g stroke="black" stroke-width="1">
    <line x1="42" y1="42" x2="542" y2="42"/>
    <line x1="42" y1="42" x2="42" y2="542"/>
    <line x1="542" y1="542" x2="42" y2="542"/>
    <line x1="542" y1="542" x2="542" y2="42"/>
    <line x1="142" y1="39" x2="142" y2="45"/>
    <line x1="39" y1="142" x2="45" y2="142"/>
    <line x1="142" y1="539" x2="142" y2="545"/>
    <line x1="539" y1="142" x2="545" y2="142"/>
    <line x1="242" y1="39" x2="242" y2="45"/>
    <line x1="39" y1="242" x2="45" y2="242"/>
    <line x1="242" y1="539" x2="242" y2="545"/>
    <line x1="539" y1="242" x2="545" y2="242"/>
    <line x1="342" y1="39" x2="342" y2="45"/>
    <line x1="39" y1="342" x2="45" y2="342"/>
    <line x1="342" y1="539" x2="342" y2="545"/>
    <line x1="539" y1="342" x2="545" y2="342"/>
    <line x1="442" y1="39" x2="442" y2="45"/>
    <line x1="39" y1="442" x2="45" y2="442"/>
    <line x1="442" y1="539" x2="442" y2="545"/>
    <line x1="539" y1="442" x2="545" y2="442"/>
  </g>
  <g stroke="gray" stroke-width="1" stroke-dasharray="5,5">
    <line x1="142" y1="42" x2="142" y2="542"/>
    <line x1="42" y1="142" x2="542" y2="142"/>
    <line x1="242" y1="42" x2="242" y2="542"/>
    <line x1="42" y1="242" x2="542" y2="242"/>
    <line x1="342" y1="42" x2="342" y2="542"/>
    <line x1="42" y1="342" x2="542" y2="342"/>
    <line x1="442" y1="42" x2="442" y2="542"/>
    <line x1="42" y1="442" x2="542" y2="442"/>
  </g>
</svg>
