<?xml version="1.0" standalone="no"?>
<!DOCTYPE svg PUBLIC "-//W3C//DTD SVG 1.1//EN" 
  "http://www.w3.org/Graphics/SVG/1.1/DTD/svg11.dtd">
<svg width="510" height="510" version="1.1" id="toplevel"
    xmlns="http://www.w3.org/2000/svg"
    xmlns:xlink="http://www.w3.org/1999/xlink">
  <polygon points="260,433 498,354 399,125 297,169 288,160 276,164 205,77 12,236 187,415 230,373 235,376 242,376"
           fill="bisque"/>
  <g stroke="chocolate" stroke-width="1">
    <line x1="235" y1="376" x2="498" y2="354"/>
    <circle cx="235" cy="376" r="2"/>
    <circle cx="498" cy="354" r="2"/>
  </g>
  <g stroke="chocolate" stroke-width="1">
    <line x1="260" y1="433" x2="498" y2="354"/>
    <circle cx="260" cy="433" r="2"/>
    <circle cx="498" cy="354" r="2"/>
  </g>
  <g stroke="chocolate" stroke-width="1">
    <line x1="322" y1="283" x2="202" y2="254"/>
    <circle cx="322" cy="283" r="2"/>
    <circle cx="202" cy="254" r="2"/>
  </g>
  <g stroke="chocolate" stroke-width="1">
    <line x1="235" y1="376" x2="12" y2="236"/>
    <circle cx="235" cy="376" r="2"/>
    <circle cx="12" cy="236" r="2"/>
  </g>
  <g stroke="chocolate" stroke-width="1">
    <line x1="329" y1="228" x2="221" y2="201"/>
    <circle cx="329" cy="228" r="2"/>
    <circle cx="221" cy="201" r="2"/>
  </g>
  <g stroke="chocolate" stroke-width="1">
    <line x1="187" y1="415" x2="12" y2="236"/>
    <circle cx="187" cy="415" r="2"/>
    <circle cx="12" cy="236" r="2"/>
  </g>
  <g stroke="chocolate" stroke-width="1">
    <line x1="12" y1="236" x2="288" y2="160"/>
    <circle cx="12" cy="236" r="2"/>
    <circle cx="288" cy="160" r="2"/>
  </g>
  <g stroke="chocolate" stroke-width="1">
    <line x1="221" y1="201" x2="399" y2="125"/>
    <circle cx="221" cy="201" r="2"/>
    <circle cx="399" cy="125" r="2"/>
  </g>
  <g stroke="chocolate" stroke-width="1">
    <line x1="498" y1="354" x2="288" y2="160"/>
    <circle cx="498" cy="354" r="2"/>
    <circle cx="288" cy="160" r="2"/>
  </g>
  <g stroke="chocolate" stroke-width="1">
    <line x1="329" y1="228" x2="205" y2="77"/>
    <circle cx="329" cy="228" r="2"/>
    <circle cx="205" cy="77" r="2"/>
  </g>
  <g stroke="chocolate" stroke-width="1">
    <line x1="187" y1="415" x2="322" y2="283"/>
    <circle cx="187" cy="415" r="2"/>
    <circle cx="322" cy="283" r="2"/>
  </g>
  <g stroke="chocolate" stroke-width="1">
    <line x1="12" y1="236" x2="205" y2="77"/>
    <circle cx="12" cy="236" r="2"/>
    <circle cx="205" cy="77" r="2"/>
  </g>
  <g stroke="chocolate" stroke-width="1">
    <line x1="202" y1="254" x2="288" y2="160"/>
    <circle cx="202" cy="254" r="2"/>
    <circle cx="288" cy="160" r="2"/>
  </g>
  <g stroke="chocolate" stroke-width="1">
    <line x1="235" y1="376" x2="329" y2="228"/>
    <circle cx="235" cy="376" r="2"/>
    <circle cx="329" cy="228" r="2"/>
  </g>
  <g stroke="chocolate" stroke-width="1">
    <line x1="260" y1="433" x2="202" y2="254"/>
    <circle cx="260" cy="433" r="2"/>
    <circle cx="202" cy="254" r="2"/>
  </g>
  <g stroke="chocolate" stroke-width="1">
    <line x1="498" y1="354" x2="399" y2="125"/>
    <circle cx="498" cy="354" r="2"/>
    <circle cx="399" cy="125" r="2"/>
  </g>
  <g stroke="chocolate" stroke-width="1">
    <line x1="322" y1="283" x2="288" y2="160"/>
    <circle cx="322" cy="283" r="2"/>
    <circle cx="288" cy="160" r="2"/>
  </g>
  <g stroke="chocolate" stroke-width="1">
    <line x1="235" y1="376" x2="221" y2="201"/>
    <circle cx="235" cy="376" r="2"/>
    <circle cx="221" cy="201" r="2"/>
  </g>
  <g stroke="black" stroke-width="1">
    <line x1="5" y1="5" x2="505" y2="5"/>
    <line x1="5" y1="5" x2="5" y2="505"/>
    <line x1="505" y1="505" x2="5" y2="505"/>
    <line x1="505" y1="505" x2="505" y2="5"/>
    <line x1="105" y1="2" x2="105" y2="8"/>
    <line x1="2" y1="105" x2="8" y2="105"/>
    <line x1="105" y1="502" x2="105" y2="508"/>
    <line x1="502" y1="105" x2="508" y2="105"/>
    <line x1="205" y1="2" x2="205" y2="8"/>
    <line x1="2" y1="205" x2="8" y2="205"/>
    <line x1="205" y1="502" x2="205" y2="508"/>
    <line x1="502" y1="205" x2="508" y2="205"/>
    <line x1="305" y1="2" x2="305" y2="8"/>
    <line x1="2" y1="305" x2="8" y2="305"/>
    <line x1="305" y1="502" x2="305" y2="508"/>
    <line x1="502" y1="305" x2="508" y2="305"/>
    <line x1="405" y1="2" x2="405" y2="8"/>
    <line x1="2" y1="405" x2="8" y2="405"/>
    <line x1="405" y1="502" x2="405" y2="508"/>
    <line x1="502" y1="405" x2="508" y2="405"/>
  </g>
  <g stroke="gray" stroke-width="1" stroke-dasharray="5,5">
    <line x1="105" y1="5" x2="105" y2="505"/>
    <line x1="5" y1="105" x2="505" y2="105"/>
    <line x1="205" y1="5" x2="205" y2="505"/>
    <line x1="5" y1="205" x2="505" y2="205"/>
    <line x1="305" y1="5" x2="305" y2="505"/>
    <line x1="5" y1="305" x2="505" y2="305"/>
    <line x1="405" y1="5" x2="405" y2="505"/>
    <line x1="5" y1="405" x2="505" y2="405"/>
  </g>
</svg>
