<?xml version="1.0" standalone="no"?>
<!DOCTYPE svg PUBLIC "-//W3C//DTD SVG 1.1//EN" 
  "http://www.w3.org/Graphics/SVG/1.1/DTD/svg11.dtd">
<svg width="510" height="510" version="1.1" id="toplevel"
    xmlns="http://www.w3.org/2000/svg"
    xmlns:xlink="http://www.w3.org/1999/xlink">
  <polygon points="253,434 494,369 409,134 304,172 295,164 283,166 217,76 16,224 181,412 226,373 231,376 237,376"
           fill="bisque"/>
  <g stroke="chocolate" stroke-width="1">
    <line x1="231" y1="376" x2="494" y2="369"/>
    <circle cx="231" cy="376" r="2"/>
    <circle cx="494" cy="369" r="2"/>
  </g>
  <g stroke="chocolate" stroke-width="1">
    <line x1="253" y1="434" x2="494" y2="369"/>
    <circle cx="253" cy="434" r="2"/>
    <circle cx="494" cy="369" r="2"/>
  </g>
  <g stroke="chocolate" stroke-width="1">
    <line x1="322" y1="288" x2="204" y2="252"/>
    <circle cx="322" cy="288" r="2"/>
    <circle cx="204" cy="252" r="2"/>
  </g>
  <g stroke="chocolate" stroke-width="1">
    <line x1="332" y1="233" x2="226" y2="201"/>
    <circle cx="332" cy="233" r="2"/>
    <circle cx="226" cy="201" r="2"/>
  </g>
  <g stroke="chocolate" stroke-width="1">
    <line x1="231" y1="376" x2="16" y2="224"/>
    <circle cx="231" cy="376" r="2"/>
    <circle cx="16" cy="224" r="2"/>
  </g>
  <g stroke="chocolate" stroke-width="1">
    <line x1="16" y1="224" x2="295" y2="164"/>
    <circle cx="16" cy="224" r="2"/>
    <circle cx="295" cy="164" r="2"/>
  </g>
  <g stroke="chocolate" stroke-width="1">
    <line x1="226" y1="201" x2="409" y2="134"/>
    <circle cx="226" cy="201" r="2"/>
    <circle cx="409" cy="134" r="2"/>
  </g>
  <g stroke="chocolate" stroke-width="1">
    <line x1="181" y1="412" x2="16" y2="224"/>
    <circle cx="181" cy="412" r="2"/>
    <circle cx="16" cy="224" r="2"/>
  </g>
  <g stroke="chocolate" stroke-width="1">
    <line x1="494" y1="369" x2="295" y2="164"/>
    <circle cx="494" cy="369" r="2"/>
    <circle cx="295" cy="164" r="2"/>
  </g>
  <g stroke="chocolate" stroke-width="1">
    <line x1="181" y1="412" x2="322" y2="288"/>
    <circle cx="181" cy="412" r="2"/>
    <circle cx="322" cy="288" r="2"/>
  </g>
  <g stroke="chocolate" stroke-width="1">
    <line x1="332" y1="233" x2="217" y2="76"/>
    <circle cx="332" cy="233" r="2"/>
    <circle cx="217" cy="76" r="2"/>
  </g>
  <g stroke="chocolate" stroke-width="1">
    <line x1="16" y1="224" x2="217" y2="76"/>
    <circle cx="16" cy="224" r="2"/>
    <circle cx="217" cy="76" r="2"/>
  </g>
  <g stroke="chocolate" stroke-width="1">
    <line x1="204" y1="252" x2="295" y2="164"/>
    <circle cx="204" cy="252" r="2"/>
    <circle cx="295" cy="164" r="2"/>
  </g>
  <g stroke="chocolate" stroke-width="1">
    <line x1="231" y1="376" x2="332" y2="233"/>
    <circle cx="231" cy="376" r="2"/>
    <circle cx="332" cy="233" r="2"/>
  </g>
  <g stroke="chocolate" stroke-width="1">
    <line x1="253" y1="434" x2="204" y2="252"/>
    <circle cx="253" cy="434" r="2"/>
    <circle cx="204" cy="252" r="2"/>
  </g>
  <g stroke="chocolate" stroke-width="1">
    <line x1="494" y1="369" x2="409" y2="134"/>
    <circle cx="494" cy="369" r="2"/>
    <circle cx="409" cy="134" r="2"/>
  </g>
  <g stroke="chocolate" stroke-width="1">
    <line x1="322" y1="288" x2="295" y2="164"/>
    <circle cx="322" cy="288" r="2"/>
    <circle cx="295" cy="164" r="2"/>
  </g>
  <g stroke="chocolate" stroke-width="1">
    <line x1="231" y1="376" x2="226" y2="201"/>
    <circle cx="231" cy="376" r="2"/>
    <circle cx="226" cy="201" r="2"/>
  </g>
  <g stroke="black" stroke-width="1">
    <line x1="5" y1="5" x2="505" y2="5"/>
    <line x1="5" y1="5" x2="5" y2="505"/>
    <line x1="505" y1="505" x2="5" y2="505"/>
    <line x1="505" y1="505" x2="505" y2="5"/>
    <line x1="105" y1="2" x2="105" y2="8"/>
    <line x1="2" y1="105" x2="8" y2="105"/>
    <line x1="105" y1="502" x2="105" y2="508"/>
    <line x1="502" y1="105" x2="508" y2="105"/>
    <line x1="205" y1="2" x2="205" y2="8"/>
    <line x1="2" y1="205" x2="8" y2="205"/>
    <line x1="205" y1="502" x2="205" y2="508"/>
    <line x1="502" y1="205" x2="508" y2="205"/>
    <line x1="305" y1="2" x2="305" y2="8"/>
    <line x1="2" y1="305" x2="8" y2="305"/>
    <line x1="305" y1="502" x2="305" y2="508"/>
    <line x1="502" y1="305" x2="508" y2="305"/>
    <line x1="405" y1="2" x2="405" y2="8"/>
    <line x1="2" y1="405" x2="8" y2="405"/>
    <line x1="405" y1="502" x2="405" y2="508"/>
    <line x1="502" y1="405" x2="508" y2="405"/>
  </g>
  <g stroke="gray" stroke-width="1" stroke-dasharray="5,5">
    <line x1="105" y1="5" x2="105" y2="505"/>
    <line x1="5" y1="105" x2="505" y2="105"/>
    <line x1="205" y1="5" x2="205" y2="505"/>
    <line x1="5" y1="205" x2="505" y2="205"/>
    <line x1="305" y1="5" x2="305" y2="505"/>
    <line x1="5" y1="305" x2="505" y2="305"/>
    <line x1="405" y1="5" x2="405" y2="505"/>
    <line x1="5" y1="405" x2="505" y2="405"/>
  </g>
</svg>
