<?xml version="1.0" standalone="no"?>
<!DOCTYPE svg PUBLIC "-//W3C//DTD SVG 1.1//EN" 
  "http://www.w3.org/Graphics/SVG/1.1/DTD/svg11.dtd">
<svg width="510" height="510" version="1.1" id="toplevel"
    xmlns="http://www.w3.org/2000/svg"
    xmlns:xlink="http://www.w3.org/1999/xlink">
  <polygon points="266,431 500,344 393,118 292,166 283,158 271,162 197,79 10,245 192,416 233,373 238,376 245,375"
           fill="bisque"/>
  <g stroke="chocolate" stroke-width="1">
    <line x1="238" y1="376" x2="500" y2="344"/>
    <circle cx="238" cy="376" r="2"/>
    <circle cx="500" cy="344" r="2"/>
  </g>
  <g stroke="chocolate" stroke-width="1">
    <line x1="321" y1="280" x2="200" y2="255"/>
    <circle cx="321" cy="280" r="2"/>
    <circle cx="200" cy="255" r="2"/>
  </g>
  <g stroke="chocolate" stroke-width="1">
    <line x1="266" y1="431" x2="500" y2="344"/>
    <circle cx="266" cy="431" r="2"/>
    <circle cx="500" cy="344" r="2"/>
  </g>
  <g stroke="chocolate" stroke-width="1">
    <line x1="238" y1="376" x2="10" y2="245"/>
    <circle cx="238" cy="376" r="2"/>
    <circle cx="10" cy="245" r="2"/>
  </g>
  <g stroke="chocolate" stroke-width="1">
    <line x1="326" y1="224" x2="217" y2="202"/>
    <circle cx="326" cy="224" r="2"/>
    <circle cx="217" cy="202" r="2"/>
  </g>
  <g stroke="chocolate" stroke-width="1">
    <line x1="192" y1="416" x2="10" y2="245"/>
    <circle cx="192" cy="416" r="2"/>
    <circle cx="10" cy="245" r="2"/>
  </g>
  <g stroke="chocolate" stroke-width="1">
    <line x1="10" y1="245" x2="283" y2="158"/>
    <circle cx="10" cy="245" r="2"/>
    <circle cx="283" cy="158" r="2"/>
  </g>
  <g stroke="chocolate" stroke-width="1">
    <line x1="217" y1="202" x2="393" y2="118"/>
    <circle cx="217" cy="202" r="2"/>
    <circle cx="393" cy="118" r="2"/>
  </g>
  <g stroke="chocolate" stroke-width="1">
    <line x1="500" y1="344" x2="283" y2="158"/>
    <circle cx="500" cy="344" r="2"/>
    <circle cx="283" cy="158" r="2"/>
  </g>
  <g stroke="chocolate" stroke-width="1">
    <line x1="326" y1="224" x2="197" y2="79"/>
    <circle cx="326" cy="224" r="2"/>
    <circle cx="197" cy="79" r="2"/>
  </g>
  <g stroke="chocolate" stroke-width="1">
    <line x1="192" y1="416" x2="321" y2="280"/>
    <circle cx="192" cy="416" r="2"/>
    <circle cx="321" cy="280" r="2"/>
  </g>
  <g stroke="chocolate" stroke-width="1">
    <line x1="10" y1="245" x2="197" y2="79"/>
    <circle cx="10" cy="245" r="2"/>
    <circle cx="197" cy="79" r="2"/>
  </g>
  <g stroke="chocolate" stroke-width="1">
    <line x1="200" y1="255" x2="283" y2="158"/>
    <circle cx="200" cy="255" r="2"/>
    <circle cx="283" cy="158" r="2"/>
  </g>
  <g stroke="chocolate" stroke-width="1">
    <line x1="266" y1="431" x2="200" y2="255"/>
    <circle cx="266" cy="431" r="2"/>
    <circle cx="200" cy="255" r="2"/>
  </g>
  <g stroke="chocolate" stroke-width="1">
    <line x1="500" y1="344" x2="393" y2="118"/>
    <circle cx="500" cy="344" r="2"/>
    <circle cx="393" cy="118" r="2"/>
  </g>
  <g stroke="chocolate" stroke-width="1">
    <line x1="238" y1="376" x2="326" y2="224"/>
    <circle cx="238" cy="376" r="2"/>
    <circle cx="326" cy="224" r="2"/>
  </g>
  <g stroke="chocolate" stroke-width="1">
    <line x1="321" y1="280" x2="283" y2="158"/>
    <circle cx="321" cy="280" r="2"/>
    <circle cx="283" cy="158" r="2"/>
  </g>
  <g stroke="chocolate" stroke-width="1">
    <line x1="238" y1="376" x2="217" y2="202"/>
    <circle cx="238" cy="376" r="2"/>
    <circle cx="217" cy="202" r="2"/>
  </g>
  <g stroke="black" stroke-width="1">
    <line x1="5" y1="5" x2="505" y2="5"/>
    <line x1="5" y1="5" x2="5" y2="505"/>
    <line x1="505" y1="505" x2="5" y2="505"/>
    <line x1="505" y1="505" x2="505" y2="5"/>
    <line x1="105" y1="2" x2="105" y2="8"/>
    <line x1="2" y1="105" x2="8" y2="105"/>
    <line x1="105" y1="502" x2="105" y2="508"/>
    <line x1="502" y1="105" x2="508" y2="105"/>
    <line x1="205" y1="2" x2="205" y2="8"/>
    <line x1="2" y1="205" x2="8" y2="205"/>
    <line x1="205" y1="502" x2="205" y2="508"/>
    <line x1="502" y1="205" x2="508" y2="205"/>
    <line x1="305" y1="2" x2="305" y2="8"/>
    <line x1="2" y1="305" x2="8" y2="305"/>
    <line x1="305" y1="502" x2="305" y2="508"/>
    <line x1="502" y1="305" x2="508" y2="305"/>
    <line x1="405" y1="2" x2="405" y2="8"/>
    <line x1="2" y1="405" x2="8" y2="405"/>
    <line x1="405" y1="502" x2="405" y2="508"/>
    <line x1="502" y1="405" x2="508" y2="405"/>
  </g>
  <g stroke="gray" stroke-width="1" stroke-dasharray="5,5">
    <line x1="105" y1="5" x2="105" y2="505"/>
    <line x1="5" y1="105" x2="505" y2="105"/>
    <line x1="205" y1="5" x2="205" y2="505"/>
    <line x1="5" y1="205" x2="505" y2="205"/>
    <line x1="305" y1="5" x2="305" y2="505"/>
    <line x1="5" y1="305" x2="505" y2="305"/>
    <line x1="405" y1="5" x2="405" y2="505"/>
    <line x1="5" y1="405" x2="505" y2="405"/>
  </g>
</svg>
