<?xml version="1.0" standalone="no"?>
<!DOCTYPE svg PUBLIC "-//W3C//DTD SVG 1.1//EN" 
  "http://www.w3.org/Graphics/SVG/1.1/DTD/svg11.dtd">
<svg width="510" height="510" version="1.1" id="toplevel"
    xmlns="http://www.w3.org/2000/svg"
    xmlns:xlink="http://www.w3.org/1999/xlink">
  <polygon points="246,435 491,381 416,142 310,176 302,167 290,169 228,75 19,214 175,409 222,372 227,376 234,376"
           fill="bisque"/>
  <g stroke="chocolate" stroke-width="1">
    <line x1="491" y1="381" x2="227" y2="376"/>
    <circle cx="491" cy="381" r="2"/>
    <circle cx="227" cy="376" r="2"/>
  </g>
  <g stroke="chocolate" stroke-width="1">
    <line x1="246" y1="435" x2="491" y2="381"/>
    <circle cx="246" cy="435" r="2"/>
    <circle cx="491" cy="381" r="2"/>
  </g>
  <g stroke="chocolate" stroke-width="1">
    <line x1="322" y1="292" x2="206" y2="251"/>
    <circle cx="322" cy="292" r="2"/>
    <circle cx="206" cy="251" r="2"/>
  </g>
  <g stroke="chocolate" stroke-width="1">
    <line x1="335" y1="238" x2="231" y2="200"/>
    <circle cx="335" cy="238" r="2"/>
    <circle cx="231" cy="200" r="2"/>
  </g>
  <g stroke="chocolate" stroke-width="1">
    <line x1="227" y1="376" x2="19" y2="214"/>
    <circle cx="227" cy="376" r="2"/>
    <circle cx="19" cy="214" r="2"/>
  </g>
  <g stroke="chocolate" stroke-width="1">
    <line x1="19" y1="214" x2="302" y2="167"/>
    <circle cx="19" cy="214" r="2"/>
    <circle cx="302" cy="167" r="2"/>
  </g>
  <g stroke="chocolate" stroke-width="1">
    <line x1="231" y1="200" x2="416" y2="142"/>
    <circle cx="231" cy="200" r="2"/>
    <circle cx="416" cy="142" r="2"/>
  </g>
  <g stroke="chocolate" stroke-width="1">
    <line x1="175" y1="409" x2="19" y2="214"/>
    <circle cx="175" cy="409" r="2"/>
    <circle cx="19" cy="214" r="2"/>
  </g>
  <g stroke="chocolate" stroke-width="1">
    <line x1="175" y1="409" x2="322" y2="292"/>
    <circle cx="175" cy="409" r="2"/>
    <circle cx="322" cy="292" r="2"/>
  </g>
  <g stroke="chocolate" stroke-width="1">
    <line x1="491" y1="381" x2="302" y2="167"/>
    <circle cx="491" cy="381" r="2"/>
    <circle cx="302" cy="167" r="2"/>
  </g>
  <g stroke="chocolate" stroke-width="1">
    <line x1="19" y1="214" x2="228" y2="75"/>
    <circle cx="19" cy="214" r="2"/>
    <circle cx="228" cy="75" r="2"/>
  </g>
  <g stroke="chocolate" stroke-width="1">
    <line x1="206" y1="251" x2="302" y2="167"/>
    <circle cx="206" cy="251" r="2"/>
    <circle cx="302" cy="167" r="2"/>
  </g>
  <g stroke="chocolate" stroke-width="1">
    <line x1="335" y1="238" x2="228" y2="75"/>
    <circle cx="335" cy="238" r="2"/>
    <circle cx="228" cy="75" r="2"/>
  </g>
  <g stroke="chocolate" stroke-width="1">
    <line x1="227" y1="376" x2="335" y2="238"/>
    <circle cx="227" cy="376" r="2"/>
    <circle cx="335" cy="238" r="2"/>
  </g>
  <g stroke="chocolate" stroke-width="1">
    <line x1="246" y1="435" x2="206" y2="251"/>
    <circle cx="246" cy="435" r="2"/>
    <circle cx="206" cy="251" r="2"/>
  </g>
  <g stroke="chocolate" stroke-width="1">
    <line x1="491" y1="381" x2="416" y2="142"/>
    <circle cx="491" cy="381" r="2"/>
    <circle cx="416" cy="142" r="2"/>
  </g>
  <g stroke="chocolate" stroke-width="1">
    <line x1="322" y1="292" x2="302" y2="167"/>
    <circle cx="322" cy="292" r="2"/>
    <circle cx="302" cy="167" r="2"/>
  </g>
  <g stroke="chocolate" stroke-width="1">
    <line x1="227" y1="376" x2="231" y2="200"/>
    <circle cx="227" cy="376" r="2"/>
    <circle cx="231" cy="200" r="2"/>
  </g>
  <g stroke="black" stroke-width="1">
    <line x1="5" y1="5" x2="505" y2="5"/>
    <line x1="5" y1="5" x2="5" y2="505"/>
    <line x1="505" y1="505" x2="5" y2="505"/>
    <line x1="505" y1="505" x2="505" y2="5"/>
    <line x1="105" y1="2" x2="105" y2="8"/>
    <line x1="2" y1="105" x2="8" y2="105"/>
    <line x1="105" y1="502" x2="105" y2="508"/>
    <line x1="502" y1="105" x2="508" y2="105"/>
    <line x1="205" y1="2" x2="205" y2="8"/>
    <line x1="2" y1="205" x2="8" y2="205"/>
    <line x1="205" y1="502" x2="205" y2="508"/>
    <line x1="502" y1="205" x2="508" y2="205"/>
    <line x1="305" y1="2" x2="305" y2="8"/>
    <line x1="2" y1="305" x2="8" y2="305"/>
    <line x1="305" y1="502" x2="305" y2="508"/>
    <line x1="502" y1="305" x2="508" y2="305"/>
    <line x1="405" y1="2" x2="405" y2="8"/>
    <line x1="2" y1="405" x2="8" y2="405"/>
    <line x1="405" y1="502" x2="405" y2="508"/>
    <line x1="502" y1="405" x2="508" y2="405"/>
  </g>
  <g stroke="gray" stroke-width="1" stroke-dasharray="5,5">
    <line x1="105" y1="5" x2="105" y2="505"/>
    <line x1="5" y1="105" x2="505" y2="105"/>
    <line x1="205" y1="5" x2="205" y2="505"/>
    <line x1="5" y1="205" x2="505" y2="205"/>
    <line x1="305" y1="5" x2="305" y2="505"/>
    <line x1="5" y1="305" x2="505" y2="305"/>
    <line x1="405" y1="5" x2="405" y2="505"/>
    <line x1="5" y1="405" x2="505" y2="405"/>
  </g>
</svg>
