<?xml version="1.0" standalone="no"?>
<!DOCTYPE svg PUBLIC "-//W3C//DTD SVG 1.1//EN" 
  "http://www.w3.org/Graphics/SVG/1.1/DTD/svg11.dtd">
<svg width="510" height="510" version="1.1" id="toplevel"
    xmlns="http://www.w3.org/2000/svg"
    xmlns:xlink="http://www.w3.org/1999/xlink">
  <polygon points="298,410 315,350 375,368 452,325 332,290 368,170 128,100 170,178 135,298 58,340 178,375 195,315 255,332"
           fill="bisque"/>
  <g stroke="chocolate" stroke-width="1">
    <line x1="375" y1="368" x2="452" y2="325"/>
    <circle cx="375" cy="368" r="2"/>
    <circle cx="452" cy="325" r="2"/>
  </g>
  <g stroke="chocolate" stroke-width="1">
    <line x1="178" y1="375" x2="58" y2="340"/>
    <circle cx="178" cy="375" r="2"/>
    <circle cx="58" cy="340" r="2"/>
  </g>
  <g stroke="chocolate" stroke-width="1">
    <line x1="255" y1="332" x2="332" y2="290"/>
    <circle cx="255" cy="332" r="2"/>
    <circle cx="332" cy="290" r="2"/>
  </g>
  <g stroke="chocolate" stroke-width="1">
    <line x1="375" y1="368" x2="135" y2="298"/>
    <circle cx="375" cy="368" r="2"/>
    <circle cx="135" cy="298" r="2"/>
  </g>
  <g stroke="chocolate" stroke-width="1">
    <line x1="178" y1="375" x2="135" y2="298"/>
    <circle cx="178" cy="375" r="2"/>
    <circle cx="135" cy="298" r="2"/>
  </g>
  <g stroke="chocolate" stroke-width="1">
    <line x1="298" y1="410" x2="368" y2="170"/>
    <circle cx="298" cy="410" r="2"/>
    <circle cx="368" cy="170" r="2"/>
  </g>
  <g stroke="chocolate" stroke-width="1">
    <line x1="255" y1="332" x2="308" y2="152"/>
    <circle cx="255" cy="332" r="2"/>
    <circle cx="308" cy="152" r="2"/>
  </g>
  <g stroke="chocolate" stroke-width="1">
    <line x1="58" y1="340" x2="368" y2="170"/>
    <circle cx="58" cy="340" r="2"/>
    <circle cx="368" cy="170" r="2"/>
  </g>
  <g stroke="chocolate" stroke-width="1">
    <line x1="178" y1="375" x2="248" y2="135"/>
    <circle cx="178" cy="375" r="2"/>
    <circle cx="248" cy="135" r="2"/>
  </g>
  <g stroke="chocolate" stroke-width="1">
    <line x1="298" y1="410" x2="255" y2="332"/>
    <circle cx="298" cy="410" r="2"/>
    <circle cx="255" cy="332" r="2"/>
  </g>
  <g stroke="chocolate" stroke-width="1">
    <line x1="212" y1="255" x2="128" y2="100"/>
    <circle cx="212" cy="255" r="2"/>
    <circle cx="128" cy="100" r="2"/>
  </g>
  <g stroke="chocolate" stroke-width="1">
    <line x1="452" y1="325" x2="212" y2="255"/>
    <circle cx="452" cy="325" r="2"/>
    <circle cx="212" cy="255" r="2"/>
  </g>
  <g stroke="chocolate" stroke-width="1">
    <line x1="135" y1="298" x2="188" y2="118"/>
    <circle cx="135" cy="298" r="2"/>
    <circle cx="188" cy="118" r="2"/>
  </g>
  <g stroke="chocolate" stroke-width="1">
    <line x1="375" y1="368" x2="248" y2="135"/>
    <circle cx="375" cy="368" r="2"/>
    <circle cx="248" cy="135" r="2"/>
  </g>
  <g stroke="chocolate" stroke-width="1">
    <line x1="290" y1="212" x2="170" y2="178"/>
    <circle cx="290" cy="212" r="2"/>
    <circle cx="170" cy="178" r="2"/>
  </g>
  <g stroke="chocolate" stroke-width="1">
    <line x1="170" y1="178" x2="248" y2="135"/>
    <circle cx="170" cy="178" r="2"/>
    <circle cx="248" cy="135" r="2"/>
  </g>
  <g stroke="chocolate" stroke-width="1">
    <line x1="368" y1="170" x2="128" y2="100"/>
    <circle cx="368" cy="170" r="2"/>
    <circle cx="128" cy="100" r="2"/>
  </g>
  <g stroke="black" stroke-width="1">
    <line x1="5" y1="5" x2="505" y2="5"/>
    <line x1="5" y1="5" x2="5" y2="505"/>
    <line x1="505" y1="505" x2="5" y2="505"/>
    <line x1="505" y1="505" x2="505" y2="5"/>
    <line x1="105" y1="2" x2="105" y2="8"/>
    <line x1="2" y1="105" x2="8" y2="105"/>
    <line x1="105" y1="502" x2="105" y2="508"/>
    <line x1="502" y1="105" x2="508" y2="105"/>
    <line x1="205" y1="2" x2="205" y2="8"/>
    <line x1="2" y1="205" x2="8" y2="205"/>
    <line x1="205" y1="502" x2="205" y2="508"/>
    <line x1="502" y1="205" x2="508" y2="205"/>
    <line x1="305" y1="2" x2="305" y2="8"/>
    <line x1="2" y1="305" x2="8" y2="305"/>
    <line x1="305" y1="502" x2="305" y2="508"/>
    <line x1="502" y1="305" x2="508" y2="305"/>
    <line x1="405" y1="2" x2="405" y2="8"/>
    <line x1="2" y1="405" x2="8" y2="405"/>
    <line x1="405" y1="502" x2="405" y2="508"/>
    <line x1="502" y1="405" x2="508" y2="405"/>
  </g>
  <g stroke="gray" stroke-width="1" stroke-dasharray="5,5">
    <line x1="105" y1="5" x2="105" y2="505"/>
    <line x1="5" y1="105" x2="505" y2="105"/>
    <line x1="205" y1="5" x2="205" y2="505"/>
    <line x1="5" y1="205" x2="505" y2="205"/>
    <line x1="305" y1="5" x2="305" y2="505"/>
    <line x1="5" y1="305" x2="505" y2="305"/>
    <line x1="405" y1="5" x2="405" y2="505"/>
    <line x1="5" y1="405" x2="505" y2="405"/>
  </g>
</svg>
