<?xml version="1.0" standalone="no"?>
<!DOCTYPE svg PUBLIC "-//W3C//DTD SVG 1.1//EN" 
  "http://www.w3.org/Graphics/SVG/1.1/DTD/svg11.dtd">
<svg width="650" height="650" version="1.1" id="toplevel"
    xmlns="http://www.w3.org/2000/svg"
    xmlns:xlink="http://www.w3.org/1999/xlink">
  <polygon points="275,645 566,239 241,5 105,75 84,508" fill="bisque"/>
  <g stroke="chocolate" stroke-width="1">
    <line x1="84" y1="508" x2="313" y2="375"/>
    <circle cx="84" cy="508" r="2"/>
    <circle cx="313" cy="375" r="2"/>
  </g>
  <g stroke="chocolate" stroke-width="1">
    <line x1="275" y1="645" x2="566" y2="239"/>
    <circle cx="275" cy="645" r="2"/>
    <circle cx="566" cy="239" r="2"/>
  </g>
  <g stroke="chocolate" stroke-width="1">
    <line x1="105" y1="75" x2="241" y2="5"/>
    <circle cx="105" cy="75" r="2"/>
    <circle cx="241" cy="5" r="2"/>
  </g>
  <g stroke="chocolate" stroke-width="1">
    <line x1="275" y1="645" x2="84" y2="508"/>
    <circle cx="275" cy="645" r="2"/>
    <circle cx="84" cy="508" r="2"/>
  </g>
  <g stroke="chocolate" stroke-width="1">
    <line x1="84" y1="508" x2="105" y2="75"/>
    <circle cx="84" cy="508" r="2"/>
    <circle cx="105" cy="75" r="2"/>
  </g>
  <g stroke="chocolate" stroke-width="1">
    <line x1="103" y1="105" x2="241" y2="105"/>
    <circle cx="103" cy="105" r="2"/>
    <circle cx="241" cy="105" r="2"/>
  </g>
  <g stroke="chocolate" stroke-width="1">
    <line x1="241" y1="105" x2="241" y2="5"/>
    <circle cx="241" cy="105" r="2"/>
    <circle cx="241" cy="5" r="2"/>
  </g>
  <g stroke="chocolate" stroke-width="1">
    <line x1="160" y1="111" x2="103" y2="105"/>
    <circle cx="160" cy="111" r="2"/>
    <circle cx="103" cy="105" r="2"/>
  </g>
  <g stroke="chocolate" stroke-width="1">
    <line x1="313" y1="375" x2="160" y2="111"/>
    <circle cx="313" cy="375" r="2"/>
    <circle cx="160" cy="111" r="2"/>
  </g>
  <g stroke="chocolate" stroke-width="1">
    <line x1="160" y1="111" x2="105" y2="75"/>
    <circle cx="160" cy="111" r="2"/>
    <circle cx="105" cy="75" r="2"/>
  </g>
  <g stroke="chocolate" stroke-width="1">
    <line x1="566" y1="239" x2="241" y2="5"/>
    <circle cx="566" cy="239" r="2"/>
    <circle cx="241" cy="5" r="2"/>
  </g>
  <g stroke="black" stroke-width="1">
    <line x1="75" y1="75" x2="575" y2="75"/>
    <line x1="75" y1="75" x2="75" y2="575"/>
    <line x1="575" y1="575" x2="75" y2="575"/>
    <line x1="575" y1="575" x2="575" y2="75"/>
    <line x1="175" y1="72" x2="175" y2="78"/>
    <line x1="72" y1="175" x2="78" y2="175"/>
    <line x1="175" y1="572" x2="175" y2="578"/>
    <line x1="572" y1="175" x2="578" y2="175"/>
    <line x1="275" y1="72" x2="275" y2="78"/>
    <line x1="72" y1="275" x2="78" y2="275"/>
    <line x1="275" y1="572" x2="275" y2="578"/>
    <line x1="572" y1="275" x2="578" y2="275"/>
    <line x1="375" y1="72" x2="375" y2="78"/>
    <line x1="72" y1="375" x2="78" y2="375"/>
    <line x1="375" y1="572" x2="375" y2="578"/>
    <line x1="572" y1="375" x2="578" y2="375"/>
    <line x1="475" y1="72" x2="475" y2="78"/>
    <line x1="72" y1="475" x2="78" y2="475"/>
    <line x1="475" y1="572" x2="475" y2="578"/>
    <line x1="572" y1="475" x2="578" y2="475"/>
  </g>
  <g stroke="gray" stroke-width="1" stroke-dasharray="5,5">
    <line x1="175" y1="75" x2="175" y2="575"/>
    <line x1="75" y1="175" x2="575" y2="175"/>
    <line x1="275" y1="75" x2="275" y2="575"/>
    <line x1="75" y1="275" x2="575" y2="275"/>
    <line x1="375" y1="75" x2="375" y2="575"/>
    <line x1="75" y1="375" x2="575" y2="375"/>
    <line x1="475" y1="75" x2="475" y2="575"/>
    <line x1="75" y1="475" x2="575" y2="475"/>
  </g>
</svg>
