<?xml version="1.0" standalone="no"?>
<!DOCTYPE svg PUBLIC "-//W3C//DTD SVG 1.1//EN" 
  "http://www.w3.org/Graphics/SVG/1.1/DTD/svg11.dtd">
<svg width="510" height="510" version="1.1" id="toplevel"
    xmlns="http://www.w3.org/2000/svg"
    xmlns:xlink="http://www.w3.org/1999/xlink">
  <polygon points="5,505 134,505 370,92 284,40 281,44 241,23 86,5 5,5"
           fill="bisque"/>
  <g stroke="chocolate" stroke-width="1">
    <line x1="134" y1="505" x2="370" y2="92"/>
    <circle cx="134" cy="505" r="2"/>
    <circle cx="370" cy="92" r="2"/>
  </g>
  <g stroke="chocolate" stroke-width="1">
    <line x1="291" y1="232" x2="327" y2="66"/>
    <circle cx="291" cy="232" r="2"/>
    <circle cx="327" cy="66" r="2"/>
  </g>
  <g stroke="chocolate" stroke-width="1">
    <line x1="241" y1="127" x2="284" y2="40"/>
    <circle cx="241" cy="127" r="2"/>
    <circle cx="284" cy="40" r="2"/>
  </g>
  <g stroke="chocolate" stroke-width="1">
    <line x1="5" y1="505" x2="134" y2="505"/>
    <circle cx="5" cy="505" r="2"/>
    <circle cx="134" cy="505" r="2"/>
  </g>
  <g stroke="chocolate" stroke-width="1">
    <line x1="5" y1="505" x2="5" y2="5"/>
    <circle cx="5" cy="505" r="2"/>
    <circle cx="5" cy="5" r="2"/>
  </g>
  <g stroke="chocolate" stroke-width="1">
    <line x1="159" y1="354" x2="291" y2="232"/>
    <circle cx="159" cy="354" r="2"/>
    <circle cx="291" cy="232" r="2"/>
  </g>
  <g stroke="chocolate" stroke-width="1">
    <line x1="247" y1="132" x2="276" y2="94"/>
    <circle cx="247" cy="132" r="2"/>
    <circle cx="276" cy="94" r="2"/>
  </g>
  <g stroke="chocolate" stroke-width="1">
    <line x1="51" y1="363" x2="284" y2="40"/>
    <circle cx="51" cy="363" r="2"/>
    <circle cx="284" cy="40" r="2"/>
  </g>
  <g stroke="chocolate" stroke-width="1">
    <line x1="134" y1="505" x2="51" y2="363"/>
    <circle cx="134" cy="505" r="2"/>
    <circle cx="51" cy="363" r="2"/>
  </g>
  <g stroke="chocolate" stroke-width="1">
    <line x1="247" y1="132" x2="327" y2="66"/>
    <circle cx="247" cy="132" r="2"/>
    <circle cx="327" cy="66" r="2"/>
  </g>
  <g stroke="chocolate" stroke-width="1">
    <line x1="197" y1="395" x2="51" y2="363"/>
    <circle cx="197" cy="395" r="2"/>
    <circle cx="51" cy="363" r="2"/>
  </g>
  <g stroke="chocolate" stroke-width="1">
    <line x1="197" y1="395" x2="159" y2="354"/>
    <circle cx="197" cy="395" r="2"/>
    <circle cx="159" cy="354" r="2"/>
  </g>
  <g stroke="chocolate" stroke-width="1">
    <line x1="341" y1="143" x2="241" y2="23"/>
    <circle cx="341" cy="143" r="2"/>
    <circle cx="241" cy="23" r="2"/>
  </g>
  <g stroke="chocolate" stroke-width="1">
    <line x1="247" y1="132" x2="241" y2="127"/>
    <circle cx="247" cy="132" r="2"/>
    <circle cx="241" cy="127" r="2"/>
  </g>
  <g stroke="chocolate" stroke-width="1">
    <line x1="359" y1="111" x2="299" y2="54"/>
    <circle cx="359" cy="111" r="2"/>
    <circle cx="299" cy="54" r="2"/>
  </g>
  <g stroke="chocolate" stroke-width="1">
    <line x1="276" y1="94" x2="263" y2="84"/>
    <circle cx="276" cy="94" r="2"/>
    <circle cx="263" cy="84" r="2"/>
  </g>
  <g stroke="chocolate" stroke-width="1">
    <line x1="341" y1="143" x2="241" y2="127"/>
    <circle cx="341" cy="143" r="2"/>
    <circle cx="241" cy="127" r="2"/>
  </g>
  <g stroke="chocolate" stroke-width="1">
    <line x1="359" y1="111" x2="263" y2="84"/>
    <circle cx="359" cy="111" r="2"/>
    <circle cx="263" cy="84" r="2"/>
  </g>
  <g stroke="chocolate" stroke-width="1">
    <line x1="370" y1="92" x2="284" y2="40"/>
    <circle cx="370" cy="92" r="2"/>
    <circle cx="284" cy="40" r="2"/>
  </g>
  <g stroke="chocolate" stroke-width="1">
    <line x1="370" y1="92" x2="241" y2="23"/>
    <circle cx="370" cy="92" r="2"/>
    <circle cx="241" cy="23" r="2"/>
  </g>
  <g stroke="chocolate" stroke-width="1">
    <line x1="299" y1="54" x2="86" y2="5"/>
    <circle cx="299" cy="54" r="2"/>
    <circle cx="86" cy="5" r="2"/>
  </g>
  <g stroke="chocolate" stroke-width="1">
    <line x1="5" y1="5" x2="86" y2="5"/>
    <circle cx="5" cy="5" r="2"/>
    <circle cx="86" cy="5" r="2"/>
  </g>
  <g stroke="chocolate" stroke-width="1">
    <line x1="241" y1="23" x2="86" y2="5"/>
    <circle cx="241" cy="23" r="2"/>
    <circle cx="86" cy="5" r="2"/>
  </g>
  <g stroke="black" stroke-width="1">
    <line x1="5" y1="5" x2="505" y2="5"/>
    <line x1="5" y1="5" x2="5" y2="505"/>
    <line x1="505" y1="505" x2="5" y2="505"/>
    <line x1="505" y1="505" x2="505" y2="5"/>
    <line x1="105" y1="2" x2="105" y2="8"/>
    <line x1="2" y1="105" x2="8" y2="105"/>
    <line x1="105" y1="502" x2="105" y2="508"/>
    <line x1="502" y1="105" x2="508" y2="105"/>
    <line x1="205" y1="2" x2="205" y2="8"/>
    <line x1="2" y1="205" x2="8" y2="205"/>
    <line x1="205" y1="502" x2="205" y2="508"/>
    <line x1="502" y1="205" x2="508" y2="205"/>
    <line x1="305" y1="2" x2="305" y2="8"/>
    <line x1="2" y1="305" x2="8" y2="305"/>
    <line x1="305" y1="502" x2="305" y2="508"/>
    <line x1="502" y1="305" x2="508" y2="305"/>
    <line x1="405" y1="2" x2="405" y2="8"/>
    <line x1="2" y1="405" x2="8" y2="405"/>
    <line x1="405" y1="502" x2="405" y2="508"/>
    <line x1="502" y1="405" x2="508" y2="405"/>
  </g>
  <g stroke="gray" stroke-width="1" stroke-dasharray="5,5">
    <line x1="105" y1="5" x2="105" y2="505"/>
    <line x1="5" y1="105" x2="505" y2="105"/>
    <line x1="205" y1="5" x2="205" y2="505"/>
    <line x1="5" y1="205" x2="505" y2="205"/>
    <line x1="305" y1="5" x2="305" y2="505"/>
    <line x1="5" y1="305" x2="505" y2="305"/>
    <line x1="405" y1="5" x2="405" y2="505"/>
    <line x1="5" y1="405" x2="505" y2="405"/>
  </g>
</svg>
