<?xml version="1.0" standalone="no"?>
<!DOCTYPE svg PUBLIC "-//W3C//DTD SVG 1.1//EN" 
  "http://www.w3.org/Graphics/SVG/1.1/DTD/svg11.dtd">
<svg width="510" height="510" version="1.1" id="toplevel"
    xmlns="http://www.w3.org/2000/svg"
    xmlns:xlink="http://www.w3.org/1999/xlink">
  <polygon points="245,392 308,378 390,199 356,156 359,153 334,118 190,160 193,208 160,209 120,320 201,349 202,359 232,363"
           fill="bisque"/>
  <g stroke="chocolate" stroke-width="1">
    <line x1="318" y1="355" x2="334" y2="118"/>
    <circle cx="318" cy="355" r="2"/>
    <circle cx="334" cy="118" r="2"/>
  </g>
  <g stroke="chocolate" stroke-width="1">
    <line x1="304" y1="329" x2="327" y2="120"/>
    <circle cx="304" cy="329" r="2"/>
    <circle cx="327" cy="120" r="2"/>
  </g>
  <g stroke="chocolate" stroke-width="1">
    <line x1="202" y1="359" x2="190" y2="160"/>
    <circle cx="202" cy="359" r="2"/>
    <circle cx="190" cy="160" r="2"/>
  </g>
  <g stroke="chocolate" stroke-width="1">
    <line x1="245" y1="392" x2="245" y2="211"/>
    <circle cx="245" cy="392" r="2"/>
    <circle cx="245" cy="211" r="2"/>
  </g>
  <g stroke="chocolate" stroke-width="1">
    <line x1="271" y1="370" x2="309" y2="125"/>
    <circle cx="271" cy="370" r="2"/>
    <circle cx="309" cy="125" r="2"/>
  </g>
  <g stroke="chocolate" stroke-width="1">
    <line x1="308" y1="378" x2="390" y2="199"/>
    <circle cx="308" cy="378" r="2"/>
    <circle cx="390" cy="199" r="2"/>
  </g>
  <g stroke="chocolate" stroke-width="1">
    <line x1="245" y1="392" x2="160" y2="209"/>
    <circle cx="245" cy="392" r="2"/>
    <circle cx="160" cy="209" r="2"/>
  </g>
  <g stroke="chocolate" stroke-width="1">
    <line x1="120" y1="320" x2="160" y2="209"/>
    <circle cx="120" cy="320" r="2"/>
    <circle cx="160" cy="209" r="2"/>
  </g>
  <g stroke="chocolate" stroke-width="1">
    <line x1="308" y1="378" x2="190" y2="160"/>
    <circle cx="308" cy="378" r="2"/>
    <circle cx="190" cy="160" r="2"/>
  </g>
  <g stroke="chocolate" stroke-width="1">
    <line x1="292" y1="382" x2="318" y2="355"/>
    <circle cx="292" cy="382" r="2"/>
    <circle cx="318" cy="355" r="2"/>
  </g>
  <g stroke="chocolate" stroke-width="1">
    <line x1="359" y1="153" x2="334" y2="118"/>
    <circle cx="359" cy="153" r="2"/>
    <circle cx="334" cy="118" r="2"/>
  </g>
  <g stroke="chocolate" stroke-width="1">
    <line x1="390" y1="199" x2="327" y2="120"/>
    <circle cx="390" cy="199" r="2"/>
    <circle cx="327" cy="120" r="2"/>
  </g>
  <g stroke="chocolate" stroke-width="1">
    <line x1="384" y1="211" x2="309" y2="125"/>
    <circle cx="384" cy="211" r="2"/>
    <circle cx="309" cy="125" r="2"/>
  </g>
  <g stroke="chocolate" stroke-width="1">
    <line x1="245" y1="392" x2="308" y2="378"/>
    <circle cx="245" cy="392" r="2"/>
    <circle cx="308" cy="378" r="2"/>
  </g>
  <g stroke="chocolate" stroke-width="1">
    <line x1="292" y1="382" x2="120" y2="320"/>
    <circle cx="292" cy="382" r="2"/>
    <circle cx="120" cy="320" r="2"/>
  </g>
  <g stroke="chocolate" stroke-width="1">
    <line x1="197" y1="270" x2="359" y2="153"/>
    <circle cx="197" cy="270" r="2"/>
    <circle cx="359" cy="153" r="2"/>
  </g>
  <g stroke="chocolate" stroke-width="1">
    <line x1="304" y1="329" x2="197" y2="270"/>
    <circle cx="304" cy="329" r="2"/>
    <circle cx="197" cy="270" r="2"/>
  </g>
  <g stroke="chocolate" stroke-width="1">
    <line x1="202" y1="359" x2="304" y2="329"/>
    <circle cx="202" cy="359" r="2"/>
    <circle cx="304" cy="329" r="2"/>
  </g>
  <g stroke="chocolate" stroke-width="1">
    <line x1="271" y1="370" x2="202" y2="359"/>
    <circle cx="271" cy="370" r="2"/>
    <circle cx="202" cy="359" r="2"/>
  </g>
  <g stroke="chocolate" stroke-width="1">
    <line x1="245" y1="211" x2="384" y2="211"/>
    <circle cx="245" cy="211" r="2"/>
    <circle cx="384" cy="211" r="2"/>
  </g>
  <g stroke="chocolate" stroke-width="1">
    <line x1="160" y1="209" x2="390" y2="199"/>
    <circle cx="160" cy="209" r="2"/>
    <circle cx="390" cy="199" r="2"/>
  </g>
  <g stroke="chocolate" stroke-width="1">
    <line x1="190" y1="160" x2="334" y2="118"/>
    <circle cx="190" cy="160" r="2"/>
    <circle cx="334" cy="118" r="2"/>
  </g>
  <g stroke="black" stroke-width="1">
    <line x1="5" y1="5" x2="505" y2="5"/>
    <line x1="5" y1="5" x2="5" y2="505"/>
    <line x1="505" y1="505" x2="5" y2="505"/>
    <line x1="505" y1="505" x2="505" y2="5"/>
    <line x1="105" y1="2" x2="105" y2="8"/>
    <line x1="2" y1="105" x2="8" y2="105"/>
    <line x1="105" y1="502" x2="105" y2="508"/>
    <line x1="502" y1="105" x2="508" y2="105"/>
    <line x1="205" y1="2" x2="205" y2="8"/>
    <line x1="2" y1="205" x2="8" y2="205"/>
    <line x1="205" y1="502" x2="205" y2="508"/>
    <line x1="502" y1="205" x2="508" y2="205"/>
    <line x1="305" y1="2" x2="305" y2="8"/>
    <line x1="2" y1="305" x2="8" y2="305"/>
    <line x1="305" y1="502" x2="305" y2="508"/>
    <line x1="502" y1="305" x2="508" y2="305"/>
    <line x1="405" y1="2" x2="405" y2="8"/>
    <line x1="2" y1="405" x2="8" y2="405"/>
    <line x1="405" y1="502" x2="405" y2="508"/>
    <line x1="502" y1="405" x2="508" y2="405"/>
  </g>
  <g stroke="gray" stroke-width="1" stroke-dasharray="5,5">
    <line x1="105" y1="5" x2="105" y2="505"/>
    <line x1="5" y1="105" x2="505" y2="105"/>
    <line x1="205" y1="5" x2="205" y2="505"/>
    <line x1="5" y1="205" x2="505" y2="205"/>
    <line x1="305" y1="5" x2="305" y2="505"/>
    <line x1="5" y1="305" x2="505" y2="305"/>
    <line x1="405" y1="5" x2="405" y2="505"/>
    <line x1="5" y1="405" x2="505" y2="405"/>
  </g>
</svg>
