<?xml version="1.0" standalone="no"?>
<!DOCTYPE svg PUBLIC "-//W3C//DTD SVG 1.1//EN" 
  "http://www.w3.org/Graphics/SVG/1.1/DTD/svg11.dtd">
<svg width="510" height="510" version="1.1" id="toplevel"
    xmlns="http://www.w3.org/2000/svg"
    xmlns:xlink="http://www.w3.org/1999/xlink">
  <polygon points="179,365 179,362 261,362 261,352 266,356 335,336 310,245 311,244 291,175 264,183 263,145 95,145 92,362"
           fill="bisque"/>
  <g stroke="chocolate" stroke-width="1">
    <line x1="266" y1="356" x2="335" y2="336"/>
    <circle cx="266" cy="356" r="2"/>
    <circle cx="335" cy="336" r="2"/>
  </g>
  <g stroke="chocolate" stroke-width="1">
    <line x1="179" y1="365" x2="186" y2="145"/>
    <circle cx="179" cy="365" r="2"/>
    <circle cx="186" cy="145" r="2"/>
  </g>
  <g stroke="chocolate" stroke-width="1">
    <line x1="261" y1="362" x2="263" y2="145"/>
    <circle cx="261" cy="362" r="2"/>
    <circle cx="263" cy="145" r="2"/>
  </g>
  <g stroke="chocolate" stroke-width="1">
    <line x1="168" y1="359" x2="170" y2="145"/>
    <circle cx="168" cy="359" r="2"/>
    <circle cx="170" cy="145" r="2"/>
  </g>
  <g stroke="chocolate" stroke-width="1">
    <line x1="92" y1="362" x2="95" y2="145"/>
    <circle cx="92" cy="362" r="2"/>
    <circle cx="95" cy="145" r="2"/>
  </g>
  <g stroke="chocolate" stroke-width="1">
    <line x1="92" y1="362" x2="261" y2="362"/>
    <circle cx="92" cy="362" r="2"/>
    <circle cx="261" cy="362" r="2"/>
  </g>
  <g stroke="chocolate" stroke-width="1">
    <line x1="171" y1="286" x2="170" y2="145"/>
    <circle cx="171" cy="286" r="2"/>
    <circle cx="170" cy="145" r="2"/>
  </g>
  <g stroke="chocolate" stroke-width="1">
    <line x1="97" y1="231" x2="95" y2="145"/>
    <circle cx="97" cy="231" r="2"/>
    <circle cx="95" cy="145" r="2"/>
  </g>
  <g stroke="chocolate" stroke-width="1">
    <line x1="179" y1="365" x2="92" y2="362"/>
    <circle cx="179" cy="365" r="2"/>
    <circle cx="92" cy="362" r="2"/>
  </g>
  <g stroke="chocolate" stroke-width="1">
    <line x1="266" y1="356" x2="263" y2="145"/>
    <circle cx="266" cy="356" r="2"/>
    <circle cx="263" cy="145" r="2"/>
  </g>
  <g stroke="chocolate" stroke-width="1">
    <line x1="168" y1="359" x2="92" y2="358"/>
    <circle cx="168" cy="359" r="2"/>
    <circle cx="92" cy="358" r="2"/>
  </g>
  <g stroke="chocolate" stroke-width="1">
    <line x1="261" y1="362" x2="92" y2="358"/>
    <circle cx="261" cy="362" r="2"/>
    <circle cx="92" cy="358" r="2"/>
  </g>
  <g stroke="chocolate" stroke-width="1">
    <line x1="191" y1="301" x2="186" y2="145"/>
    <circle cx="191" cy="301" r="2"/>
    <circle cx="186" cy="145" r="2"/>
  </g>
  <g stroke="chocolate" stroke-width="1">
    <line x1="191" y1="301" x2="312" y2="268"/>
    <circle cx="191" cy="301" r="2"/>
    <circle cx="312" cy="268" r="2"/>
  </g>
  <g stroke="chocolate" stroke-width="1">
    <line x1="171" y1="286" x2="311" y2="244"/>
    <circle cx="171" cy="286" r="2"/>
    <circle cx="311" cy="244" r="2"/>
  </g>
  <g stroke="chocolate" stroke-width="1">
    <line x1="312" y1="268" x2="287" y2="176"/>
    <circle cx="312" cy="268" r="2"/>
    <circle cx="287" cy="176" r="2"/>
  </g>
  <g stroke="chocolate" stroke-width="1">
    <line x1="335" y1="336" x2="291" y2="175"/>
    <circle cx="335" cy="336" r="2"/>
    <circle cx="291" cy="175" r="2"/>
  </g>
  <g stroke="chocolate" stroke-width="1">
    <line x1="311" y1="244" x2="291" y2="175"/>
    <circle cx="311" cy="244" r="2"/>
    <circle cx="291" cy="175" r="2"/>
  </g>
  <g stroke="chocolate" stroke-width="1">
    <line x1="335" y1="336" x2="287" y2="176"/>
    <circle cx="335" cy="336" r="2"/>
    <circle cx="287" cy="176" r="2"/>
  </g>
  <g stroke="chocolate" stroke-width="1">
    <line x1="97" y1="231" x2="291" y2="175"/>
    <circle cx="97" cy="231" r="2"/>
    <circle cx="291" cy="175" r="2"/>
  </g>
  <g stroke="chocolate" stroke-width="1">
    <line x1="266" y1="356" x2="97" y2="231"/>
    <circle cx="266" cy="356" r="2"/>
    <circle cx="97" cy="231" r="2"/>
  </g>
  <g stroke="chocolate" stroke-width="1">
    <line x1="95" y1="145" x2="263" y2="145"/>
    <circle cx="95" cy="145" r="2"/>
    <circle cx="263" cy="145" r="2"/>
  </g>
  <g stroke="black" stroke-width="1">
    <line x1="5" y1="5" x2="505" y2="5"/>
    <line x1="5" y1="5" x2="5" y2="505"/>
    <line x1="505" y1="505" x2="5" y2="505"/>
    <line x1="505" y1="505" x2="505" y2="5"/>
    <line x1="105" y1="2" x2="105" y2="8"/>
    <line x1="2" y1="105" x2="8" y2="105"/>
    <line x1="105" y1="502" x2="105" y2="508"/>
    <line x1="502" y1="105" x2="508" y2="105"/>
    <line x1="205" y1="2" x2="205" y2="8"/>
    <line x1="2" y1="205" x2="8" y2="205"/>
    <line x1="205" y1="502" x2="205" y2="508"/>
    <line x1="502" y1="205" x2="508" y2="205"/>
    <line x1="305" y1="2" x2="305" y2="8"/>
    <line x1="2" y1="305" x2="8" y2="305"/>
    <line x1="305" y1="502" x2="305" y2="508"/>
    <line x1="502" y1="305" x2="508" y2="305"/>
    <line x1="405" y1="2" x2="405" y2="8"/>
    <line x1="2" y1="405" x2="8" y2="405"/>
    <line x1="405" y1="502" x2="405" y2="508"/>
    <line x1="502" y1="405" x2="508" y2="405"/>
  </g>
  <g stroke="gray" stroke-width="1" stroke-dasharray="5,5">
    <line x1="105" y1="5" x2="105" y2="505"/>
    <line x1="5" y1="105" x2="505" y2="105"/>
    <line x1="205" y1="5" x2="205" y2="505"/>
    <line x1="5" y1="205" x2="505" y2="205"/>
    <line x1="305" y1="5" x2="305" y2="505"/>
    <line x1="5" y1="305" x2="505" y2="305"/>
    <line x1="405" y1="5" x2="405" y2="505"/>
    <line x1="5" y1="405" x2="505" y2="405"/>
  </g>
</svg>
