<?xml version="1.0" standalone="no"?>
<!DOCTYPE svg PUBLIC "-//W3C//DTD SVG 1.1//EN" 
  "http://www.w3.org/Graphics/SVG/1.1/DTD/svg11.dtd">
<svg width="510" height="510" version="1.1" id="toplevel"
    xmlns="http://www.w3.org/2000/svg"
    xmlns:xlink="http://www.w3.org/1999/xlink">
  <polygon points="78,505 290,500 359,427 358,392 286,323 251,324 216,360 180,326 146,362 109,327 74,328 5,401 6,436"
           fill="bisque"/>
  <polygon points="77,434 76,399 111,398" fill="bisque"/>
  <polygon points="289,429 252,395 288,394" fill="bisque"/>
  <g stroke="chocolate" stroke-width="1">
    <line x1="290" y1="500" x2="359" y2="427"/>
    <circle cx="290" cy="500" r="2"/>
    <circle cx="359" cy="427" r="2"/>
  </g>
  <g stroke="chocolate" stroke-width="1">
    <line x1="220" y1="502" x2="323" y2="393"/>
    <circle cx="220" cy="502" r="2"/>
    <circle cx="323" cy="393" r="2"/>
  </g>
  <g stroke="chocolate" stroke-width="1">
    <line x1="149" y1="503" x2="183" y2="467"/>
    <circle cx="149" cy="503" r="2"/>
    <circle cx="183" cy="467" r="2"/>
  </g>
  <g stroke="chocolate" stroke-width="1">
    <line x1="252" y1="395" x2="304" y2="340"/>
    <circle cx="252" cy="395" r="2"/>
    <circle cx="304" cy="340" r="2"/>
  </g>
  <g stroke="chocolate" stroke-width="1">
    <line x1="216" y1="360" x2="251" y2="324"/>
    <circle cx="216" cy="360" r="2"/>
    <circle cx="251" cy="324" r="2"/>
  </g>
  <g stroke="chocolate" stroke-width="1">
    <line x1="42" y1="471" x2="180" y2="326"/>
    <circle cx="42" cy="471" r="2"/>
    <circle cx="180" cy="326" r="2"/>
  </g>
  <g stroke="chocolate" stroke-width="1">
    <line x1="78" y1="505" x2="290" y2="500"/>
    <circle cx="78" cy="505" r="2"/>
    <circle cx="290" cy="500" r="2"/>
  </g>
  <g stroke="chocolate" stroke-width="1">
    <line x1="6" y1="436" x2="5" y2="401"/>
    <circle cx="6" cy="436" r="2"/>
    <circle cx="5" cy="401" r="2"/>
  </g>
  <g stroke="chocolate" stroke-width="1">
    <line x1="42" y1="471" x2="39" y2="364"/>
    <circle cx="42" cy="471" r="2"/>
    <circle cx="39" cy="364" r="2"/>
  </g>
  <g stroke="chocolate" stroke-width="1">
    <line x1="78" y1="505" x2="74" y2="328"/>
    <circle cx="78" cy="505" r="2"/>
    <circle cx="74" cy="328" r="2"/>
  </g>
  <g stroke="chocolate" stroke-width="1">
    <line x1="290" y1="500" x2="286" y2="323"/>
    <circle cx="290" cy="500" r="2"/>
    <circle cx="286" cy="323" r="2"/>
  </g>
  <g stroke="chocolate" stroke-width="1">
    <line x1="325" y1="464" x2="322" y2="358"/>
    <circle cx="325" cy="464" r="2"/>
    <circle cx="322" cy="358" r="2"/>
  </g>
  <g stroke="chocolate" stroke-width="1">
    <line x1="359" y1="427" x2="358" y2="392"/>
    <circle cx="359" cy="427" r="2"/>
    <circle cx="358" cy="392" r="2"/>
  </g>
  <g stroke="chocolate" stroke-width="1">
    <line x1="40" y1="400" x2="109" y2="327"/>
    <circle cx="40" cy="400" r="2"/>
    <circle cx="109" cy="327" r="2"/>
  </g>
  <g stroke="chocolate" stroke-width="1">
    <line x1="42" y1="471" x2="325" y2="464"/>
    <circle cx="42" cy="471" r="2"/>
    <circle cx="325" cy="464" r="2"/>
  </g>
  <g stroke="chocolate" stroke-width="1">
    <line x1="78" y1="505" x2="6" y2="436"/>
    <circle cx="78" cy="505" r="2"/>
    <circle cx="6" cy="436" r="2"/>
  </g>
  <g stroke="chocolate" stroke-width="1">
    <line x1="5" y1="401" x2="74" y2="328"/>
    <circle cx="5" cy="401" r="2"/>
    <circle cx="74" cy="328" r="2"/>
  </g>
  <g stroke="chocolate" stroke-width="1">
    <line x1="6" y1="436" x2="359" y2="427"/>
    <circle cx="6" cy="436" r="2"/>
    <circle cx="359" cy="427" r="2"/>
  </g>
  <g stroke="chocolate" stroke-width="1">
    <line x1="149" y1="503" x2="40" y2="400"/>
    <circle cx="149" cy="503" r="2"/>
    <circle cx="40" cy="400" r="2"/>
  </g>
  <g stroke="chocolate" stroke-width="1">
    <line x1="5" y1="401" x2="111" y2="398"/>
    <circle cx="5" cy="401" r="2"/>
    <circle cx="111" cy="398" r="2"/>
  </g>
  <g stroke="chocolate" stroke-width="1">
    <line x1="252" y1="395" x2="358" y2="392"/>
    <circle cx="252" cy="395" r="2"/>
    <circle cx="358" cy="392" r="2"/>
  </g>
  <g stroke="chocolate" stroke-width="1">
    <line x1="220" y1="502" x2="183" y2="467"/>
    <circle cx="220" cy="502" r="2"/>
    <circle cx="183" cy="467" r="2"/>
  </g>
  <g stroke="chocolate" stroke-width="1">
    <line x1="111" y1="398" x2="57" y2="346"/>
    <circle cx="111" cy="398" r="2"/>
    <circle cx="57" cy="346" r="2"/>
  </g>
  <g stroke="chocolate" stroke-width="1">
    <line x1="39" y1="364" x2="75" y2="364"/>
    <circle cx="39" cy="364" r="2"/>
    <circle cx="75" cy="364" r="2"/>
  </g>
  <g stroke="chocolate" stroke-width="1">
    <line x1="287" y1="358" x2="322" y2="358"/>
    <circle cx="287" cy="358" r="2"/>
    <circle cx="322" cy="358" r="2"/>
  </g>
  <g stroke="chocolate" stroke-width="1">
    <line x1="146" y1="362" x2="109" y2="327"/>
    <circle cx="146" cy="362" r="2"/>
    <circle cx="109" cy="327" r="2"/>
  </g>
  <g stroke="chocolate" stroke-width="1">
    <line x1="74" y1="328" x2="109" y2="327"/>
    <circle cx="74" cy="328" r="2"/>
    <circle cx="109" cy="327" r="2"/>
  </g>
  <g stroke="chocolate" stroke-width="1">
    <line x1="251" y1="324" x2="286" y2="323"/>
    <circle cx="251" cy="324" r="2"/>
    <circle cx="286" cy="323" r="2"/>
  </g>
  <g stroke="chocolate" stroke-width="1">
    <line x1="325" y1="464" x2="180" y2="326"/>
    <circle cx="325" cy="464" r="2"/>
    <circle cx="180" cy="326" r="2"/>
  </g>
  <g stroke="chocolate" stroke-width="1">
    <line x1="323" y1="393" x2="251" y2="324"/>
    <circle cx="323" cy="393" r="2"/>
    <circle cx="251" cy="324" r="2"/>
  </g>
  <g stroke="chocolate" stroke-width="1">
    <line x1="358" y1="392" x2="286" y2="323"/>
    <circle cx="358" cy="392" r="2"/>
    <circle cx="286" cy="323" r="2"/>
  </g>
  <g stroke="black" stroke-width="1">
    <line x1="5" y1="5" x2="505" y2="5"/>
    <line x1="5" y1="5" x2="5" y2="505"/>
    <line x1="505" y1="505" x2="5" y2="505"/>
    <line x1="505" y1="505" x2="505" y2="5"/>
    <line x1="105" y1="2" x2="105" y2="8"/>
    <line x1="2" y1="105" x2="8" y2="105"/>
    <line x1="105" y1="502" x2="105" y2="508"/>
    <line x1="502" y1="105" x2="508" y2="105"/>
    <line x1="205" y1="2" x2="205" y2="8"/>
    <line x1="2" y1="205" x2="8" y2="205"/>
    <line x1="205" y1="502" x2="205" y2="508"/>
    <line x1="502" y1="205" x2="508" y2="205"/>
    <line x1="305" y1="2" x2="305" y2="8"/>
    <line x1="2" y1="305" x2="8" y2="305"/>
    <line x1="305" y1="502" x2="305" y2="508"/>
    <line x1="502" y1="305" x2="508" y2="305"/>
    <line x1="405" y1="2" x2="405" y2="8"/>
    <line x1="2" y1="405" x2="8" y2="405"/>
    <line x1="405" y1="502" x2="405" y2="508"/>
    <line x1="502" y1="405" x2="508" y2="405"/>
  </g>
  <g stroke="gray" stroke-width="1" stroke-dasharray="5,5">
    <line x1="105" y1="5" x2="105" y2="505"/>
    <line x1="5" y1="105" x2="505" y2="105"/>
    <line x1="205" y1="5" x2="205" y2="505"/>
    <line x1="5" y1="205" x2="505" y2="205"/>
    <line x1="305" y1="5" x2="305" y2="505"/>
    <line x1="5" y1="305" x2="505" y2="305"/>
    <line x1="405" y1="5" x2="405" y2="505"/>
    <line x1="5" y1="405" x2="505" y2="405"/>
  </g>
</svg>
