<?xml version="1.0" standalone="no"?>
<!DOCTYPE svg PUBLIC "-//W3C//DTD SVG 1.1//EN" 
  "http://www.w3.org/Graphics/SVG/1.1/DTD/svg11.dtd">
<svg width="510" height="510" version="1.1" id="toplevel"
    xmlns="http://www.w3.org/2000/svg"
    xmlns:xlink="http://www.w3.org/1999/xlink">
  <polygon points="5,505 43,505 77,470 93,468 151,394 162,383 274,367 271,339 351,333 341,199 407,132 402,34 385,34 5,482"
           fill="bisque"/>
  <g stroke="chocolate" stroke-width="1">
    <line x1="93" y1="468" x2="393" y2="89"/>
    <circle cx="93" cy="468" r="2"/>
    <circle cx="393" cy="89" r="2"/>
  </g>
  <g stroke="chocolate" stroke-width="1">
    <line x1="43" y1="505" x2="407" y2="132"/>
    <circle cx="43" cy="505" r="2"/>
    <circle cx="407" cy="132" r="2"/>
  </g>
  <g stroke="chocolate" stroke-width="1">
    <line x1="5" y1="505" x2="43" y2="505"/>
    <circle cx="5" cy="505" r="2"/>
    <circle cx="43" cy="505" r="2"/>
  </g>
  <g stroke="chocolate" stroke-width="1">
    <line x1="5" y1="505" x2="5" y2="482"/>
    <circle cx="5" cy="505" r="2"/>
    <circle cx="5" cy="482" r="2"/>
  </g>
  <g stroke="chocolate" stroke-width="1">
    <line x1="43" y1="505" x2="41" y2="439"/>
    <circle cx="43" cy="505" r="2"/>
    <circle cx="41" cy="439" r="2"/>
  </g>
  <g stroke="chocolate" stroke-width="1">
    <line x1="93" y1="468" x2="87" y2="385"/>
    <circle cx="93" cy="468" r="2"/>
    <circle cx="87" cy="385" r="2"/>
  </g>
  <g stroke="chocolate" stroke-width="1">
    <line x1="5" y1="482" x2="385" y2="34"/>
    <circle cx="5" cy="482" r="2"/>
    <circle cx="385" cy="34" r="2"/>
  </g>
  <g stroke="chocolate" stroke-width="1">
    <line x1="125" y1="428" x2="117" y2="350"/>
    <circle cx="125" cy="428" r="2"/>
    <circle cx="117" cy="350" r="2"/>
  </g>
  <g stroke="chocolate" stroke-width="1">
    <line x1="407" y1="132" x2="402" y2="34"/>
    <circle cx="407" cy="132" r="2"/>
    <circle cx="402" cy="34" r="2"/>
  </g>
  <g stroke="chocolate" stroke-width="1">
    <line x1="288" y1="253" x2="281" y2="156"/>
    <circle cx="288" cy="253" r="2"/>
    <circle cx="281" cy="156" r="2"/>
  </g>
  <g stroke="chocolate" stroke-width="1">
    <line x1="5" y1="482" x2="93" y2="468"/>
    <circle cx="5" cy="482" r="2"/>
    <circle cx="93" cy="468" r="2"/>
  </g>
  <g stroke="chocolate" stroke-width="1">
    <line x1="158" y1="384" x2="148" y2="314"/>
    <circle cx="158" cy="384" r="2"/>
    <circle cx="148" cy="314" r="2"/>
  </g>
  <g stroke="chocolate" stroke-width="1">
    <line x1="351" y1="333" x2="334" y2="95"/>
    <circle cx="351" cy="333" r="2"/>
    <circle cx="334" cy="95" r="2"/>
  </g>
  <g stroke="chocolate" stroke-width="1">
    <line x1="274" y1="367" x2="253" y2="190"/>
    <circle cx="274" cy="367" r="2"/>
    <circle cx="253" cy="190" r="2"/>
  </g>
  <g stroke="chocolate" stroke-width="1">
    <line x1="390" y1="93" x2="385" y2="35"/>
    <circle cx="390" cy="93" r="2"/>
    <circle cx="385" cy="35" r="2"/>
  </g>
  <g stroke="chocolate" stroke-width="1">
    <line x1="216" y1="313" x2="203" y2="249"/>
    <circle cx="216" cy="313" r="2"/>
    <circle cx="203" cy="249" r="2"/>
  </g>
  <g stroke="chocolate" stroke-width="1">
    <line x1="344" y1="151" x2="337" y2="100"/>
    <circle cx="344" cy="151" r="2"/>
    <circle cx="337" cy="100" r="2"/>
  </g>
  <g stroke="chocolate" stroke-width="1">
    <line x1="41" y1="439" x2="125" y2="428"/>
    <circle cx="41" cy="439" r="2"/>
    <circle cx="125" cy="428" r="2"/>
  </g>
  <g stroke="chocolate" stroke-width="1">
    <line x1="393" y1="89" x2="385" y2="34"/>
    <circle cx="393" cy="89" r="2"/>
    <circle cx="385" cy="34" r="2"/>
  </g>
  <g stroke="chocolate" stroke-width="1">
    <line x1="315" y1="187" x2="304" y2="129"/>
    <circle cx="315" cy="187" r="2"/>
    <circle cx="304" cy="129" r="2"/>
  </g>
  <g stroke="chocolate" stroke-width="1">
    <line x1="158" y1="384" x2="274" y2="367"/>
    <circle cx="158" cy="384" r="2"/>
    <circle cx="274" cy="367" r="2"/>
  </g>
  <g stroke="chocolate" stroke-width="1">
    <line x1="87" y1="385" x2="274" y2="367"/>
    <circle cx="87" cy="385" r="2"/>
    <circle cx="274" cy="367" r="2"/>
  </g>
  <g stroke="chocolate" stroke-width="1">
    <line x1="117" y1="350" x2="351" y2="333"/>
    <circle cx="117" cy="350" r="2"/>
    <circle cx="351" cy="333" r="2"/>
  </g>
  <g stroke="chocolate" stroke-width="1">
    <line x1="148" y1="314" x2="216" y2="313"/>
    <circle cx="148" cy="314" r="2"/>
    <circle cx="216" cy="313" r="2"/>
  </g>
  <g stroke="chocolate" stroke-width="1">
    <line x1="288" y1="253" x2="203" y2="249"/>
    <circle cx="288" cy="253" r="2"/>
    <circle cx="203" cy="249" r="2"/>
  </g>
  <g stroke="chocolate" stroke-width="1">
    <line x1="253" y1="190" x2="315" y2="187"/>
    <circle cx="253" cy="190" r="2"/>
    <circle cx="315" cy="187" r="2"/>
  </g>
  <g stroke="chocolate" stroke-width="1">
    <line x1="281" y1="156" x2="344" y2="151"/>
    <circle cx="281" cy="156" r="2"/>
    <circle cx="344" cy="151" r="2"/>
  </g>
  <g stroke="chocolate" stroke-width="1">
    <line x1="337" y1="100" x2="390" y2="93"/>
    <circle cx="337" cy="100" r="2"/>
    <circle cx="390" cy="93" r="2"/>
  </g>
  <g stroke="chocolate" stroke-width="1">
    <line x1="334" y1="95" x2="393" y2="89"/>
    <circle cx="334" cy="95" r="2"/>
    <circle cx="393" cy="89" r="2"/>
  </g>
  <g stroke="chocolate" stroke-width="1">
    <line x1="407" y1="132" x2="304" y2="129"/>
    <circle cx="407" cy="132" r="2"/>
    <circle cx="304" cy="129" r="2"/>
  </g>
  <g stroke="chocolate" stroke-width="1">
    <line x1="385" y1="35" x2="402" y2="34"/>
    <circle cx="385" cy="35" r="2"/>
    <circle cx="402" cy="34" r="2"/>
  </g>
  <g stroke="chocolate" stroke-width="1">
    <line x1="385" y1="34" x2="402" y2="34"/>
    <circle cx="385" cy="34" r="2"/>
    <circle cx="402" cy="34" r="2"/>
  </g>
  <g stroke="black" stroke-width="1">
    <line x1="5" y1="5" x2="505" y2="5"/>
    <line x1="5" y1="5" x2="5" y2="505"/>
    <line x1="505" y1="505" x2="5" y2="505"/>
    <line x1="505" y1="505" x2="505" y2="5"/>
    <line x1="105" y1="2" x2="105" y2="8"/>
    <line x1="2" y1="105" x2="8" y2="105"/>
    <line x1="105" y1="502" x2="105" y2="508"/>
    <line x1="502" y1="105" x2="508" y2="105"/>
    <line x1="205" y1="2" x2="205" y2="8"/>
    <line x1="2" y1="205" x2="8" y2="205"/>
    <line x1="205" y1="502" x2="205" y2="508"/>
    <line x1="502" y1="205" x2="508" y2="205"/>
    <line x1="305" y1="2" x2="305" y2="8"/>
    <line x1="2" y1="305" x2="8" y2="305"/>
    <line x1="305" y1="502" x2="305" y2="508"/>
    <line x1="502" y1="305" x2="508" y2="305"/>
    <line x1="405" y1="2" x2="405" y2="8"/>
    <line x1="2" y1="405" x2="8" y2="405"/>
    <line x1="405" y1="502" x2="405" y2="508"/>
    <line x1="502" y1="405" x2="508" y2="405"/>
  </g>
  <g stroke="gray" stroke-width="1" stroke-dasharray="5,5">
    <line x1="105" y1="5" x2="105" y2="505"/>
    <line x1="5" y1="105" x2="505" y2="105"/>
    <line x1="205" y1="5" x2="205" y2="505"/>
    <line x1="5" y1="205" x2="505" y2="205"/>
    <line x1="305" y1="5" x2="305" y2="505"/>
    <line x1="5" y1="305" x2="505" y2="305"/>
    <line x1="405" y1="5" x2="405" y2="505"/>
    <line x1="5" y1="405" x2="505" y2="405"/>
  </g>
</svg>
