<?xml version="1.0" standalone="no"?>
<!DOCTYPE svg PUBLIC "-//W3C//DTD SVG 1.1//EN" 
  "http://www.w3.org/Graphics/SVG/1.1/DTD/svg11.dtd">
<svg width="510" height="510" version="1.1" id="toplevel"
    xmlns="http://www.w3.org/2000/svg"
    xmlns:xlink="http://www.w3.org/1999/xlink">
  <polygon points="187,505 323,505 354,442 294,363 297,359 285,350 263,322 255,328 247,322 225,350 213,359 216,363 156,442"
           fill="bisque"/>
  <polygon points="234,442 255,415 276,442" fill="bisque"/>
  <g stroke="chocolate" stroke-width="1">
    <line x1="323" y1="505" x2="354" y2="442"/>
    <circle cx="323" cy="505" r="2"/>
    <circle cx="354" cy="442" r="2"/>
  </g>
  <g stroke="chocolate" stroke-width="1">
    <line x1="187" y1="505" x2="297" y2="359"/>
    <circle cx="187" cy="505" r="2"/>
    <circle cx="297" cy="359" r="2"/>
  </g>
  <g stroke="chocolate" stroke-width="1">
    <line x1="156" y1="442" x2="247" y2="322"/>
    <circle cx="156" cy="442" r="2"/>
    <circle cx="247" cy="322" r="2"/>
  </g>
  <g stroke="chocolate" stroke-width="1">
    <line x1="213" y1="359" x2="263" y2="322"/>
    <circle cx="213" cy="359" r="2"/>
    <circle cx="263" cy="322" r="2"/>
  </g>
  <g stroke="chocolate" stroke-width="1">
    <line x1="187" y1="505" x2="323" y2="505"/>
    <circle cx="187" cy="505" r="2"/>
    <circle cx="323" cy="505" r="2"/>
  </g>
  <g stroke="chocolate" stroke-width="1">
    <line x1="156" y1="442" x2="354" y2="442"/>
    <circle cx="156" cy="442" r="2"/>
    <circle cx="354" cy="442" r="2"/>
  </g>
  <g stroke="chocolate" stroke-width="1">
    <line x1="187" y1="505" x2="156" y2="442"/>
    <circle cx="187" cy="505" r="2"/>
    <circle cx="156" cy="442" r="2"/>
  </g>
  <g stroke="chocolate" stroke-width="1">
    <line x1="323" y1="505" x2="213" y2="359"/>
    <circle cx="323" cy="505" r="2"/>
    <circle cx="213" cy="359" r="2"/>
  </g>
  <g stroke="chocolate" stroke-width="1">
    <line x1="354" y1="442" x2="263" y2="322"/>
    <circle cx="354" cy="442" r="2"/>
    <circle cx="263" cy="322" r="2"/>
  </g>
  <g stroke="chocolate" stroke-width="1">
    <line x1="297" y1="359" x2="247" y2="322"/>
    <circle cx="297" cy="359" r="2"/>
    <circle cx="247" cy="322" r="2"/>
  </g>
  <g stroke="black" stroke-width="1">
    <line x1="5" y1="5" x2="505" y2="5"/>
    <line x1="5" y1="5" x2="5" y2="505"/>
    <line x1="505" y1="505" x2="5" y2="505"/>
    <line x1="505" y1="505" x2="505" y2="5"/>
    <line x1="105" y1="2" x2="105" y2="8"/>
    <line x1="2" y1="105" x2="8" y2="105"/>
    <line x1="105" y1="502" x2="105" y2="508"/>
    <line x1="502" y1="105" x2="508" y2="105"/>
    <line x1="205" y1="2" x2="205" y2="8"/>
    <line x1="2" y1="205" x2="8" y2="205"/>
    <line x1="205" y1="502" x2="205" y2="508"/>
    <line x1="502" y1="205" x2="508" y2="205"/>
    <line x1="305" y1="2" x2="305" y2="8"/>
    <line x1="2" y1="305" x2="8" y2="305"/>
    <line x1="305" y1="502" x2="305" y2="508"/>
    <line x1="502" y1="305" x2="508" y2="305"/>
    <line x1="405" y1="2" x2="405" y2="8"/>
    <line x1="2" y1="405" x2="8" y2="405"/>
    <line x1="405" y1="502" x2="405" y2="508"/>
    <line x1="502" y1="405" x2="508" y2="405"/>
  </g>
  <g stroke="gray" stroke-width="1" stroke-dasharray="5,5">
    <line x1="105" y1="5" x2="105" y2="505"/>
    <line x1="5" y1="105" x2="505" y2="105"/>
    <line x1="205" y1="5" x2="205" y2="505"/>
    <line x1="5" y1="205" x2="505" y2="205"/>
    <line x1="305" y1="5" x2="305" y2="505"/>
    <line x1="5" y1="305" x2="505" y2="305"/>
    <line x1="405" y1="5" x2="405" y2="505"/>
    <line x1="5" y1="405" x2="505" y2="405"/>
  </g>
</svg>
