<?xml version="1.0" standalone="no"?>
<!DOCTYPE svg PUBLIC "-//W3C//DTD SVG 1.1//EN" 
  "http://www.w3.org/Graphics/SVG/1.1/DTD/svg11.dtd">
<svg width="510" height="510" version="1.1" id="toplevel"
    xmlns="http://www.w3.org/2000/svg"
    xmlns:xlink="http://www.w3.org/1999/xlink">
  <polygon points="305,405 438,405 472,372 505,372 505,338 405,338 405,272 372,238 372,138 272,138 238,105 205,105 205,38 172,5 138,38 138,238"
           fill="bisque"/>
  <g stroke="chocolate" stroke-width="1">
    <line x1="438" y1="405" x2="505" y2="338"/>
    <circle cx="438" cy="405" r="2"/>
    <circle cx="505" cy="338" r="2"/>
  </g>
  <g stroke="chocolate" stroke-width="1">
    <line x1="305" y1="405" x2="372" y2="338"/>
    <circle cx="305" cy="405" r="2"/>
    <circle cx="372" cy="338" r="2"/>
  </g>
  <g stroke="chocolate" stroke-width="1">
    <line x1="138" y1="238" x2="138" y2="38"/>
    <circle cx="138" cy="238" r="2"/>
    <circle cx="138" cy="38" r="2"/>
  </g>
  <g stroke="chocolate" stroke-width="1">
    <line x1="172" y1="205" x2="172" y2="5"/>
    <circle cx="172" cy="205" r="2"/>
    <circle cx="172" cy="5" r="2"/>
  </g>
  <g stroke="chocolate" stroke-width="1">
    <line x1="205" y1="105" x2="205" y2="38"/>
    <circle cx="205" cy="105" r="2"/>
    <circle cx="205" cy="38" r="2"/>
  </g>
  <g stroke="chocolate" stroke-width="1">
    <line x1="238" y1="272" x2="238" y2="105"/>
    <circle cx="238" cy="272" r="2"/>
    <circle cx="238" cy="105" r="2"/>
  </g>
  <g stroke="chocolate" stroke-width="1">
    <line x1="372" y1="405" x2="372" y2="138"/>
    <circle cx="372" cy="405" r="2"/>
    <circle cx="372" cy="138" r="2"/>
  </g>
  <g stroke="chocolate" stroke-width="1">
    <line x1="405" y1="405" x2="405" y2="272"/>
    <circle cx="405" cy="405" r="2"/>
    <circle cx="405" cy="272" r="2"/>
  </g>
  <g stroke="chocolate" stroke-width="1">
    <line x1="505" y1="372" x2="505" y2="338"/>
    <circle cx="505" cy="372" r="2"/>
    <circle cx="505" cy="338" r="2"/>
  </g>
  <g stroke="chocolate" stroke-width="1">
    <line x1="138" y1="238" x2="172" y2="205"/>
    <circle cx="138" cy="238" r="2"/>
    <circle cx="172" cy="205" r="2"/>
  </g>
  <g stroke="chocolate" stroke-width="1">
    <line x1="138" y1="172" x2="205" y2="105"/>
    <circle cx="138" cy="172" r="2"/>
    <circle cx="205" cy="105" r="2"/>
  </g>
  <g stroke="chocolate" stroke-width="1">
    <line x1="305" y1="405" x2="438" y2="405"/>
    <circle cx="305" cy="405" r="2"/>
    <circle cx="438" cy="405" r="2"/>
  </g>
  <g stroke="chocolate" stroke-width="1">
    <line x1="138" y1="105" x2="172" y2="72"/>
    <circle cx="138" cy="105" r="2"/>
    <circle cx="172" cy="72" r="2"/>
  </g>
  <g stroke="chocolate" stroke-width="1">
    <line x1="405" y1="372" x2="505" y2="372"/>
    <circle cx="405" cy="372" r="2"/>
    <circle cx="505" cy="372" r="2"/>
  </g>
  <g stroke="chocolate" stroke-width="1">
    <line x1="138" y1="38" x2="172" y2="5"/>
    <circle cx="138" cy="38" r="2"/>
    <circle cx="172" cy="5" r="2"/>
  </g>
  <g stroke="chocolate" stroke-width="1">
    <line x1="372" y1="338" x2="505" y2="338"/>
    <circle cx="372" cy="338" r="2"/>
    <circle cx="505" cy="338" r="2"/>
  </g>
  <g stroke="chocolate" stroke-width="1">
    <line x1="305" y1="405" x2="138" y2="238"/>
    <circle cx="305" cy="405" r="2"/>
    <circle cx="138" cy="238" r="2"/>
  </g>
  <g stroke="chocolate" stroke-width="1">
    <line x1="238" y1="272" x2="405" y2="272"/>
    <circle cx="238" cy="272" r="2"/>
    <circle cx="405" cy="272" r="2"/>
  </g>
  <g stroke="chocolate" stroke-width="1">
    <line x1="172" y1="205" x2="138" y2="172"/>
    <circle cx="172" cy="205" r="2"/>
    <circle cx="138" cy="172" r="2"/>
  </g>
  <g stroke="chocolate" stroke-width="1">
    <line x1="438" y1="405" x2="138" y2="105"/>
    <circle cx="438" cy="405" r="2"/>
    <circle cx="138" cy="105" r="2"/>
  </g>
  <g stroke="chocolate" stroke-width="1">
    <line x1="172" y1="72" x2="138" y2="38"/>
    <circle cx="172" cy="72" r="2"/>
    <circle cx="138" cy="38" r="2"/>
  </g>
  <g stroke="chocolate" stroke-width="1">
    <line x1="405" y1="272" x2="238" y2="105"/>
    <circle cx="405" cy="272" r="2"/>
    <circle cx="238" cy="105" r="2"/>
  </g>
  <g stroke="chocolate" stroke-width="1">
    <line x1="205" y1="38" x2="172" y2="5"/>
    <circle cx="205" cy="38" r="2"/>
    <circle cx="172" cy="5" r="2"/>
  </g>
  <g stroke="chocolate" stroke-width="1">
    <line x1="138" y1="138" x2="372" y2="138"/>
    <circle cx="138" cy="138" r="2"/>
    <circle cx="372" cy="138" r="2"/>
  </g>
  <g stroke="chocolate" stroke-width="1">
    <line x1="138" y1="105" x2="238" y2="105"/>
    <circle cx="138" cy="105" r="2"/>
    <circle cx="238" cy="105" r="2"/>
  </g>
  <g stroke="chocolate" stroke-width="1">
    <line x1="172" y1="38" x2="205" y2="38"/>
    <circle cx="172" cy="38" r="2"/>
    <circle cx="205" cy="38" r="2"/>
  </g>
  <g stroke="black" stroke-width="1">
    <line x1="5" y1="5" x2="505" y2="5"/>
    <line x1="5" y1="5" x2="5" y2="505"/>
    <line x1="505" y1="505" x2="5" y2="505"/>
    <line x1="505" y1="505" x2="505" y2="5"/>
    <line x1="105" y1="2" x2="105" y2="8"/>
    <line x1="2" y1="105" x2="8" y2="105"/>
    <line x1="105" y1="502" x2="105" y2="508"/>
    <line x1="502" y1="105" x2="508" y2="105"/>
    <line x1="205" y1="2" x2="205" y2="8"/>
    <line x1="2" y1="205" x2="8" y2="205"/>
    <line x1="205" y1="502" x2="205" y2="508"/>
    <line x1="502" y1="205" x2="508" y2="205"/>
    <line x1="305" y1="2" x2="305" y2="8"/>
    <line x1="2" y1="305" x2="8" y2="305"/>
    <line x1="305" y1="502" x2="305" y2="508"/>
    <line x1="502" y1="305" x2="508" y2="305"/>
    <line x1="405" y1="2" x2="405" y2="8"/>
    <line x1="2" y1="405" x2="8" y2="405"/>
    <line x1="405" y1="502" x2="405" y2="508"/>
    <line x1="502" y1="405" x2="508" y2="405"/>
  </g>
  <g stroke="gray" stroke-width="1" stroke-dasharray="5,5">
    <line x1="105" y1="5" x2="105" y2="505"/>
    <line x1="5" y1="105" x2="505" y2="105"/>
    <line x1="205" y1="5" x2="205" y2="505"/>
    <line x1="5" y1="205" x2="505" y2="205"/>
    <line x1="305" y1="5" x2="305" y2="505"/>
    <line x1="5" y1="305" x2="505" y2="305"/>
    <line x1="405" y1="5" x2="405" y2="505"/>
    <line x1="5" y1="405" x2="505" y2="405"/>
  </g>
</svg>
