<?xml version="1.0" standalone="no"?>
<!DOCTYPE svg PUBLIC "-//W3C//DTD SVG 1.1//EN" 
  "http://www.w3.org/Graphics/SVG/1.1/DTD/svg11.dtd">
<svg width="510" height="510" version="1.1" id="toplevel"
    xmlns="http://www.w3.org/2000/svg"
    xmlns:xlink="http://www.w3.org/1999/xlink">
  <polygon points="89,411 292,349 287,315 423,172 423,168 329,170 350,122 346,120 263,154 255,99 155,199 172,224 62,389 63,393 104,384"
           fill="bisque"/>
  <g stroke="chocolate" stroke-width="1">
    <line x1="255" y1="349" x2="423" y2="172"/>
    <circle cx="255" cy="349" r="2"/>
    <circle cx="423" cy="172" r="2"/>
  </g>
  <g stroke="chocolate" stroke-width="1">
    <line x1="421" y1="170" x2="423" y2="168"/>
    <circle cx="421" cy="170" r="2"/>
    <circle cx="423" cy="168" r="2"/>
  </g>
  <g stroke="chocolate" stroke-width="1">
    <line x1="255" y1="349" x2="350" y2="122"/>
    <circle cx="255" cy="349" r="2"/>
    <circle cx="350" cy="122" r="2"/>
  </g>
  <g stroke="chocolate" stroke-width="1">
    <line x1="89" y1="411" x2="292" y2="349"/>
    <circle cx="89" cy="411" r="2"/>
    <circle cx="292" cy="349" r="2"/>
  </g>
  <g stroke="chocolate" stroke-width="1">
    <line x1="63" y1="393" x2="280" y2="349"/>
    <circle cx="63" cy="393" r="2"/>
    <circle cx="280" cy="349" r="2"/>
  </g>
  <g stroke="chocolate" stroke-width="1">
    <line x1="89" y1="411" x2="255" y2="99"/>
    <circle cx="89" cy="411" r="2"/>
    <circle cx="255" cy="99" r="2"/>
  </g>
  <g stroke="chocolate" stroke-width="1">
    <line x1="63" y1="393" x2="65" y2="390"/>
    <circle cx="63" cy="393" r="2"/>
    <circle cx="65" cy="390" r="2"/>
  </g>
  <g stroke="chocolate" stroke-width="1">
    <line x1="62" y1="389" x2="255" y2="99"/>
    <circle cx="62" cy="389" r="2"/>
    <circle cx="255" cy="99" r="2"/>
  </g>
  <g stroke="chocolate" stroke-width="1">
    <line x1="65" y1="390" x2="62" y2="389"/>
    <circle cx="65" cy="390" r="2"/>
    <circle cx="62" cy="389" r="2"/>
  </g>
  <g stroke="chocolate" stroke-width="1">
    <line x1="255" y1="349" x2="292" y2="349"/>
    <circle cx="255" cy="349" r="2"/>
    <circle cx="292" cy="349" r="2"/>
  </g>
  <g stroke="chocolate" stroke-width="1">
    <line x1="155" y1="199" x2="255" y2="99"/>
    <circle cx="155" cy="199" r="2"/>
    <circle cx="255" cy="99" r="2"/>
  </g>
  <g stroke="chocolate" stroke-width="1">
    <line x1="255" y1="349" x2="255" y2="99"/>
    <circle cx="255" cy="349" r="2"/>
    <circle cx="255" cy="99" r="2"/>
  </g>
  <g stroke="chocolate" stroke-width="1">
    <line x1="63" y1="393" x2="62" y2="389"/>
    <circle cx="63" cy="393" r="2"/>
    <circle cx="62" cy="389" r="2"/>
  </g>
  <g stroke="chocolate" stroke-width="1">
    <line x1="65" y1="392" x2="65" y2="390"/>
    <circle cx="65" cy="392" r="2"/>
    <circle cx="65" cy="390" r="2"/>
  </g>
  <g stroke="chocolate" stroke-width="1">
    <line x1="421" y1="170" x2="421" y2="168"/>
    <circle cx="421" cy="170" r="2"/>
    <circle cx="421" cy="168" r="2"/>
  </g>
  <g stroke="chocolate" stroke-width="1">
    <line x1="423" y1="172" x2="423" y2="168"/>
    <circle cx="423" cy="172" r="2"/>
    <circle cx="423" cy="168" r="2"/>
  </g>
  <g stroke="chocolate" stroke-width="1">
    <line x1="280" y1="349" x2="255" y2="99"/>
    <circle cx="280" cy="349" r="2"/>
    <circle cx="255" cy="99" r="2"/>
  </g>
  <g stroke="chocolate" stroke-width="1">
    <line x1="292" y1="349" x2="255" y2="99"/>
    <circle cx="292" cy="349" r="2"/>
    <circle cx="255" cy="99" r="2"/>
  </g>
  <g stroke="chocolate" stroke-width="1">
    <line x1="347" y1="123" x2="350" y2="122"/>
    <circle cx="347" cy="123" r="2"/>
    <circle cx="350" cy="122" r="2"/>
  </g>
  <g stroke="chocolate" stroke-width="1">
    <line x1="155" y1="199" x2="346" y2="120"/>
    <circle cx="155" cy="199" r="2"/>
    <circle cx="346" cy="120" r="2"/>
  </g>
  <g stroke="chocolate" stroke-width="1">
    <line x1="255" y1="349" x2="180" y2="174"/>
    <circle cx="255" cy="349" r="2"/>
    <circle cx="180" cy="174" r="2"/>
  </g>
  <g stroke="chocolate" stroke-width="1">
    <line x1="255" y1="349" x2="155" y2="199"/>
    <circle cx="255" cy="349" r="2"/>
    <circle cx="155" cy="199" r="2"/>
  </g>
  <g stroke="chocolate" stroke-width="1">
    <line x1="347" y1="123" x2="346" y2="120"/>
    <circle cx="347" cy="123" r="2"/>
    <circle cx="346" cy="120" r="2"/>
  </g>
  <g stroke="chocolate" stroke-width="1">
    <line x1="180" y1="174" x2="423" y2="168"/>
    <circle cx="180" cy="174" r="2"/>
    <circle cx="423" cy="168" r="2"/>
  </g>
  <g stroke="chocolate" stroke-width="1">
    <line x1="423" y1="172" x2="421" y2="170"/>
    <circle cx="423" cy="172" r="2"/>
    <circle cx="421" cy="170" r="2"/>
  </g>
  <g stroke="chocolate" stroke-width="1">
    <line x1="349" y1="124" x2="347" y2="123"/>
    <circle cx="349" cy="124" r="2"/>
    <circle cx="347" cy="123" r="2"/>
  </g>
  <g stroke="chocolate" stroke-width="1">
    <line x1="350" y1="122" x2="346" y2="120"/>
    <circle cx="350" cy="122" r="2"/>
    <circle cx="346" cy="120" r="2"/>
  </g>
  <g stroke="black" stroke-width="1">
    <line x1="5" y1="5" x2="505" y2="5"/>
    <line x1="5" y1="5" x2="5" y2="505"/>
    <line x1="505" y1="505" x2="5" y2="505"/>
    <line x1="505" y1="505" x2="505" y2="5"/>
    <line x1="105" y1="2" x2="105" y2="8"/>
    <line x1="2" y1="105" x2="8" y2="105"/>
    <line x1="105" y1="502" x2="105" y2="508"/>
    <line x1="502" y1="105" x2="508" y2="105"/>
    <line x1="205" y1="2" x2="205" y2="8"/>
    <line x1="2" y1="205" x2="8" y2="205"/>
    <line x1="205" y1="502" x2="205" y2="508"/>
    <line x1="502" y1="205" x2="508" y2="205"/>
    <line x1="305" y1="2" x2="305" y2="8"/>
    <line x1="2" y1="305" x2="8" y2="305"/>
    <line x1="305" y1="502" x2="305" y2="508"/>
    <line x1="502" y1="305" x2="508" y2="305"/>
    <line x1="405" y1="2" x2="405" y2="8"/>
    <line x1="2" y1="405" x2="8" y2="405"/>
    <line x1="405" y1="502" x2="405" y2="508"/>
    <line x1="502" y1="405" x2="508" y2="405"/>
  </g>
  <g stroke="gray" stroke-width="1" stroke-dasharray="5,5">
    <line x1="105" y1="5" x2="105" y2="505"/>
    <line x1="5" y1="105" x2="505" y2="105"/>
    <line x1="205" y1="5" x2="205" y2="505"/>
    <line x1="5" y1="205" x2="505" y2="205"/>
    <line x1="305" y1="5" x2="305" y2="505"/>
    <line x1="5" y1="305" x2="505" y2="305"/>
    <line x1="405" y1="5" x2="405" y2="505"/>
    <line x1="5" y1="405" x2="505" y2="405"/>
  </g>
</svg>
