<?xml version="1.0" standalone="no"?>
<!DOCTYPE svg PUBLIC "-//W3C//DTD SVG 1.1//EN" 
  "http://www.w3.org/Graphics/SVG/1.1/DTD/svg11.dtd">
<svg width="510" height="510" version="1.1" id="toplevel"
    xmlns="http://www.w3.org/2000/svg"
    xmlns:xlink="http://www.w3.org/1999/xlink">
  <polygon points="128,417 305,343 296,300 423,166 423,162 329,164 350,116 346,115 266,147 255,93 155,193 172,218 59,388 140,371 123,415"
           fill="bisque"/>
  <g stroke="chocolate" stroke-width="1">
    <line x1="255" y1="343" x2="423" y2="166"/>
    <circle cx="255" cy="343" r="2"/>
    <circle cx="423" cy="166" r="2"/>
  </g>
  <g stroke="chocolate" stroke-width="1">
    <line x1="421" y1="164" x2="423" y2="162"/>
    <circle cx="421" cy="164" r="2"/>
    <circle cx="423" cy="162" r="2"/>
  </g>
  <g stroke="chocolate" stroke-width="1">
    <line x1="128" y1="417" x2="305" y2="343"/>
    <circle cx="128" cy="417" r="2"/>
    <circle cx="305" cy="343" r="2"/>
  </g>
  <g stroke="chocolate" stroke-width="1">
    <line x1="123" y1="415" x2="126" y2="413"/>
    <circle cx="123" cy="415" r="2"/>
    <circle cx="126" cy="413" r="2"/>
  </g>
  <g stroke="chocolate" stroke-width="1">
    <line x1="255" y1="343" x2="350" y2="116"/>
    <circle cx="255" cy="343" r="2"/>
    <circle cx="350" cy="116" r="2"/>
  </g>
  <g stroke="chocolate" stroke-width="1">
    <line x1="59" y1="388" x2="280" y2="343"/>
    <circle cx="59" cy="388" r="2"/>
    <circle cx="280" cy="343" r="2"/>
  </g>
  <g stroke="chocolate" stroke-width="1">
    <line x1="123" y1="415" x2="255" y2="93"/>
    <circle cx="123" cy="415" r="2"/>
    <circle cx="255" cy="93" r="2"/>
  </g>
  <g stroke="chocolate" stroke-width="1">
    <line x1="59" y1="388" x2="255" y2="93"/>
    <circle cx="59" cy="388" r="2"/>
    <circle cx="255" cy="93" r="2"/>
  </g>
  <g stroke="chocolate" stroke-width="1">
    <line x1="128" y1="417" x2="123" y2="415"/>
    <circle cx="128" cy="417" r="2"/>
    <circle cx="123" cy="415" r="2"/>
  </g>
  <g stroke="chocolate" stroke-width="1">
    <line x1="126" y1="413" x2="124" y2="412"/>
    <circle cx="126" cy="413" r="2"/>
    <circle cx="124" cy="412" r="2"/>
  </g>
  <g stroke="chocolate" stroke-width="1">
    <line x1="255" y1="343" x2="305" y2="343"/>
    <circle cx="255" cy="343" r="2"/>
    <circle cx="305" cy="343" r="2"/>
  </g>
  <g stroke="chocolate" stroke-width="1">
    <line x1="155" y1="193" x2="255" y2="93"/>
    <circle cx="155" cy="193" r="2"/>
    <circle cx="255" cy="93" r="2"/>
  </g>
  <g stroke="chocolate" stroke-width="1">
    <line x1="255" y1="343" x2="255" y2="93"/>
    <circle cx="255" cy="343" r="2"/>
    <circle cx="255" cy="93" r="2"/>
  </g>
  <g stroke="chocolate" stroke-width="1">
    <line x1="421" y1="164" x2="421" y2="162"/>
    <circle cx="421" cy="164" r="2"/>
    <circle cx="421" cy="162" r="2"/>
  </g>
  <g stroke="chocolate" stroke-width="1">
    <line x1="423" y1="166" x2="423" y2="162"/>
    <circle cx="423" cy="166" r="2"/>
    <circle cx="423" cy="162" r="2"/>
  </g>
  <g stroke="chocolate" stroke-width="1">
    <line x1="280" y1="343" x2="255" y2="93"/>
    <circle cx="280" cy="343" r="2"/>
    <circle cx="255" cy="93" r="2"/>
  </g>
  <g stroke="chocolate" stroke-width="1">
    <line x1="128" y1="417" x2="126" y2="413"/>
    <circle cx="128" cy="417" r="2"/>
    <circle cx="126" cy="413" r="2"/>
  </g>
  <g stroke="chocolate" stroke-width="1">
    <line x1="305" y1="343" x2="255" y2="93"/>
    <circle cx="305" cy="343" r="2"/>
    <circle cx="255" cy="93" r="2"/>
  </g>
  <g stroke="chocolate" stroke-width="1">
    <line x1="347" y1="117" x2="350" y2="116"/>
    <circle cx="347" cy="117" r="2"/>
    <circle cx="350" cy="116" r="2"/>
  </g>
  <g stroke="chocolate" stroke-width="1">
    <line x1="155" y1="193" x2="346" y2="115"/>
    <circle cx="155" cy="193" r="2"/>
    <circle cx="346" cy="115" r="2"/>
  </g>
  <g stroke="chocolate" stroke-width="1">
    <line x1="255" y1="343" x2="180" y2="168"/>
    <circle cx="255" cy="343" r="2"/>
    <circle cx="180" cy="168" r="2"/>
  </g>
  <g stroke="chocolate" stroke-width="1">
    <line x1="255" y1="343" x2="155" y2="193"/>
    <circle cx="255" cy="343" r="2"/>
    <circle cx="155" cy="193" r="2"/>
  </g>
  <g stroke="chocolate" stroke-width="1">
    <line x1="347" y1="117" x2="346" y2="115"/>
    <circle cx="347" cy="117" r="2"/>
    <circle cx="346" cy="115" r="2"/>
  </g>
  <g stroke="chocolate" stroke-width="1">
    <line x1="180" y1="168" x2="423" y2="162"/>
    <circle cx="180" cy="168" r="2"/>
    <circle cx="423" cy="162" r="2"/>
  </g>
  <g stroke="chocolate" stroke-width="1">
    <line x1="423" y1="166" x2="421" y2="164"/>
    <circle cx="423" cy="166" r="2"/>
    <circle cx="421" cy="164" r="2"/>
  </g>
  <g stroke="chocolate" stroke-width="1">
    <line x1="349" y1="118" x2="347" y2="117"/>
    <circle cx="349" cy="118" r="2"/>
    <circle cx="347" cy="117" r="2"/>
  </g>
  <g stroke="chocolate" stroke-width="1">
    <line x1="350" y1="116" x2="346" y2="115"/>
    <circle cx="350" cy="116" r="2"/>
    <circle cx="346" cy="115" r="2"/>
  </g>
  <g stroke="black" stroke-width="1">
    <line x1="5" y1="5" x2="505" y2="5"/>
    <line x1="5" y1="5" x2="5" y2="505"/>
    <line x1="505" y1="505" x2="5" y2="505"/>
    <line x1="505" y1="505" x2="505" y2="5"/>
    <line x1="105" y1="2" x2="105" y2="8"/>
    <line x1="2" y1="105" x2="8" y2="105"/>
    <line x1="105" y1="502" x2="105" y2="508"/>
    <line x1="502" y1="105" x2="508" y2="105"/>
    <line x1="205" y1="2" x2="205" y2="8"/>
    <line x1="2" y1="205" x2="8" y2="205"/>
    <line x1="205" y1="502" x2="205" y2="508"/>
    <line x1="502" y1="205" x2="508" y2="205"/>
    <line x1="305" y1="2" x2="305" y2="8"/>
    <line x1="2" y1="305" x2="8" y2="305"/>
    <line x1="305" y1="502" x2="305" y2="508"/>
    <line x1="502" y1="305" x2="508" y2="305"/>
    <line x1="405" y1="2" x2="405" y2="8"/>
    <line x1="2" y1="405" x2="8" y2="405"/>
    <line x1="405" y1="502" x2="405" y2="508"/>
    <line x1="502" y1="405" x2="508" y2="405"/>
  </g>
  <g stroke="gray" stroke-width="1" stroke-dasharray="5,5">
    <line x1="105" y1="5" x2="105" y2="505"/>
    <line x1="5" y1="105" x2="505" y2="105"/>
    <line x1="205" y1="5" x2="205" y2="505"/>
    <line x1="5" y1="205" x2="505" y2="205"/>
    <line x1="305" y1="5" x2="305" y2="505"/>
    <line x1="5" y1="305" x2="505" y2="305"/>
    <line x1="405" y1="5" x2="405" y2="505"/>
    <line x1="5" y1="405" x2="505" y2="405"/>
  </g>
</svg>
