<?xml version="1.0" standalone="no"?>
<!DOCTYPE svg PUBLIC "-//W3C//DTD SVG 1.1//EN" 
  "http://www.w3.org/Graphics/SVG/1.1/DTD/svg11.dtd">
<svg width="510" height="510" version="1.1" id="toplevel"
    xmlns="http://www.w3.org/2000/svg"
    xmlns:xlink="http://www.w3.org/1999/xlink">
  <polygon points="97,410 292,350 286,304 390,145 387,143 337,153 350,123 346,122 263,155 255,100 155,200 163,212 31,374 114,365 92,407"
           fill="bisque"/>
  <g stroke="chocolate" stroke-width="1">
    <line x1="255" y1="350" x2="390" y2="145"/>
    <circle cx="255" cy="350" r="2"/>
    <circle cx="390" cy="145" r="2"/>
  </g>
  <g stroke="chocolate" stroke-width="1">
    <line x1="255" y1="350" x2="350" y2="123"/>
    <circle cx="255" cy="350" r="2"/>
    <circle cx="350" cy="123" r="2"/>
  </g>
  <g stroke="chocolate" stroke-width="1">
    <line x1="97" y1="410" x2="292" y2="350"/>
    <circle cx="97" cy="410" r="2"/>
    <circle cx="292" cy="350" r="2"/>
  </g>
  <g stroke="chocolate" stroke-width="1">
    <line x1="92" y1="407" x2="96" y2="406"/>
    <circle cx="92" cy="407" r="2"/>
    <circle cx="96" cy="406" r="2"/>
  </g>
  <g stroke="chocolate" stroke-width="1">
    <line x1="92" y1="407" x2="255" y2="100"/>
    <circle cx="92" cy="407" r="2"/>
    <circle cx="255" cy="100" r="2"/>
  </g>
  <g stroke="chocolate" stroke-width="1">
    <line x1="31" y1="374" x2="268" y2="350"/>
    <circle cx="31" cy="374" r="2"/>
    <circle cx="268" cy="350" r="2"/>
  </g>
  <g stroke="chocolate" stroke-width="1">
    <line x1="31" y1="374" x2="255" y2="100"/>
    <circle cx="31" cy="374" r="2"/>
    <circle cx="255" cy="100" r="2"/>
  </g>
  <g stroke="chocolate" stroke-width="1">
    <line x1="97" y1="410" x2="92" y2="407"/>
    <circle cx="97" cy="410" r="2"/>
    <circle cx="92" cy="407" r="2"/>
  </g>
  <g stroke="chocolate" stroke-width="1">
    <line x1="96" y1="406" x2="93" y2="405"/>
    <circle cx="96" cy="406" r="2"/>
    <circle cx="93" cy="405" r="2"/>
  </g>
  <g stroke="chocolate" stroke-width="1">
    <line x1="255" y1="350" x2="292" y2="350"/>
    <circle cx="255" cy="350" r="2"/>
    <circle cx="292" cy="350" r="2"/>
  </g>
  <g stroke="chocolate" stroke-width="1">
    <line x1="155" y1="200" x2="255" y2="100"/>
    <circle cx="155" cy="200" r="2"/>
    <circle cx="255" cy="100" r="2"/>
  </g>
  <g stroke="chocolate" stroke-width="1">
    <line x1="255" y1="350" x2="255" y2="100"/>
    <circle cx="255" cy="350" r="2"/>
    <circle cx="255" cy="100" r="2"/>
  </g>
  <g stroke="chocolate" stroke-width="1">
    <line x1="268" y1="350" x2="255" y2="100"/>
    <circle cx="268" cy="350" r="2"/>
    <circle cx="255" cy="100" r="2"/>
  </g>
  <g stroke="chocolate" stroke-width="1">
    <line x1="97" y1="410" x2="96" y2="406"/>
    <circle cx="97" cy="410" r="2"/>
    <circle cx="96" cy="406" r="2"/>
  </g>
  <g stroke="chocolate" stroke-width="1">
    <line x1="292" y1="350" x2="255" y2="100"/>
    <circle cx="292" cy="350" r="2"/>
    <circle cx="255" cy="100" r="2"/>
  </g>
  <g stroke="chocolate" stroke-width="1">
    <line x1="347" y1="124" x2="350" y2="123"/>
    <circle cx="347" cy="124" r="2"/>
    <circle cx="350" cy="123" r="2"/>
  </g>
  <g stroke="chocolate" stroke-width="1">
    <line x1="155" y1="200" x2="346" y2="122"/>
    <circle cx="155" cy="200" r="2"/>
    <circle cx="346" cy="122" r="2"/>
  </g>
  <g stroke="chocolate" stroke-width="1">
    <line x1="387" y1="145" x2="387" y2="143"/>
    <circle cx="387" cy="145" r="2"/>
    <circle cx="387" cy="143" r="2"/>
  </g>
  <g stroke="chocolate" stroke-width="1">
    <line x1="255" y1="350" x2="168" y2="188"/>
    <circle cx="255" cy="350" r="2"/>
    <circle cx="168" cy="188" r="2"/>
  </g>
  <g stroke="chocolate" stroke-width="1">
    <line x1="255" y1="350" x2="155" y2="200"/>
    <circle cx="255" cy="350" r="2"/>
    <circle cx="155" cy="200" r="2"/>
  </g>
  <g stroke="chocolate" stroke-width="1">
    <line x1="387" y1="145" x2="390" y2="145"/>
    <circle cx="387" cy="145" r="2"/>
    <circle cx="390" cy="145" r="2"/>
  </g>
  <g stroke="chocolate" stroke-width="1">
    <line x1="168" y1="188" x2="387" y2="143"/>
    <circle cx="168" cy="188" r="2"/>
    <circle cx="387" cy="143" r="2"/>
  </g>
  <g stroke="chocolate" stroke-width="1">
    <line x1="347" y1="124" x2="346" y2="122"/>
    <circle cx="347" cy="124" r="2"/>
    <circle cx="346" cy="122" r="2"/>
  </g>
  <g stroke="chocolate" stroke-width="1">
    <line x1="349" y1="125" x2="347" y2="124"/>
    <circle cx="349" cy="125" r="2"/>
    <circle cx="347" cy="124" r="2"/>
  </g>
  <g stroke="chocolate" stroke-width="1">
    <line x1="350" y1="123" x2="346" y2="122"/>
    <circle cx="350" cy="123" r="2"/>
    <circle cx="346" cy="122" r="2"/>
  </g>
  <g stroke="chocolate" stroke-width="1">
    <line x1="389" y1="147" x2="387" y2="145"/>
    <circle cx="389" cy="147" r="2"/>
    <circle cx="387" cy="145" r="2"/>
  </g>
  <g stroke="chocolate" stroke-width="1">
    <line x1="390" y1="145" x2="387" y2="143"/>
    <circle cx="390" cy="145" r="2"/>
    <circle cx="387" cy="143" r="2"/>
  </g>
  <g stroke="black" stroke-width="1">
    <line x1="5" y1="5" x2="505" y2="5"/>
    <line x1="5" y1="5" x2="5" y2="505"/>
    <line x1="505" y1="505" x2="5" y2="505"/>
    <line x1="505" y1="505" x2="505" y2="5"/>
    <line x1="105" y1="2" x2="105" y2="8"/>
    <line x1="2" y1="105" x2="8" y2="105"/>
    <line x1="105" y1="502" x2="105" y2="508"/>
    <line x1="502" y1="105" x2="508" y2="105"/>
    <line x1="205" y1="2" x2="205" y2="8"/>
    <line x1="2" y1="205" x2="8" y2="205"/>
    <line x1="205" y1="502" x2="205" y2="508"/>
    <line x1="502" y1="205" x2="508" y2="205"/>
    <line x1="305" y1="2" x2="305" y2="8"/>
    <line x1="2" y1="305" x2="8" y2="305"/>
    <line x1="305" y1="502" x2="305" y2="508"/>
    <line x1="502" y1="305" x2="508" y2="305"/>
    <line x1="405" y1="2" x2="405" y2="8"/>
    <line x1="2" y1="405" x2="8" y2="405"/>
    <line x1="405" y1="502" x2="405" y2="508"/>
    <line x1="502" y1="405" x2="508" y2="405"/>
  </g>
  <g stroke="gray" stroke-width="1" stroke-dasharray="5,5">
    <line x1="105" y1="5" x2="105" y2="505"/>
    <line x1="5" y1="105" x2="505" y2="105"/>
    <line x1="205" y1="5" x2="205" y2="505"/>
    <line x1="5" y1="205" x2="505" y2="205"/>
    <line x1="305" y1="5" x2="305" y2="505"/>
    <line x1="5" y1="305" x2="505" y2="305"/>
    <line x1="405" y1="5" x2="405" y2="505"/>
    <line x1="5" y1="405" x2="505" y2="405"/>
  </g>
</svg>
