<?xml version="1.0" standalone="no"?>
<!DOCTYPE svg PUBLIC "-//W3C//DTD SVG 1.1//EN" 
  "http://www.w3.org/Graphics/SVG/1.1/DTD/svg11.dtd">
<svg width="510" height="510" version="1.1" id="toplevel"
    xmlns="http://www.w3.org/2000/svg"
    xmlns:xlink="http://www.w3.org/1999/xlink">
  <polygon points="56,494 76,486 70,472 197,447 261,305 213,124 52,166 39,187 98,283 23,265 5,310 5,484"
           fill="bisque"/>
  <g stroke="chocolate" stroke-width="1">
    <line x1="197" y1="447" x2="261" y2="305"/>
    <circle cx="197" cy="447" r="2"/>
    <circle cx="261" cy="305" r="2"/>
  </g>
  <g stroke="chocolate" stroke-width="1">
    <line x1="131" y1="460" x2="188" y2="306"/>
    <circle cx="131" cy="460" r="2"/>
    <circle cx="188" cy="306" r="2"/>
  </g>
  <g stroke="chocolate" stroke-width="1">
    <line x1="181" y1="368" x2="188" y2="306"/>
    <circle cx="181" cy="368" r="2"/>
    <circle cx="188" cy="306" r="2"/>
  </g>
  <g stroke="chocolate" stroke-width="1">
    <line x1="56" y1="494" x2="76" y2="486"/>
    <circle cx="56" cy="494" r="2"/>
    <circle cx="76" cy="486" r="2"/>
  </g>
  <g stroke="chocolate" stroke-width="1">
    <line x1="5" y1="484" x2="5" y2="310"/>
    <circle cx="5" cy="484" r="2"/>
    <circle cx="5" cy="310" r="2"/>
  </g>
  <g stroke="chocolate" stroke-width="1">
    <line x1="5" y1="451" x2="23" y2="265"/>
    <circle cx="5" cy="451" r="2"/>
    <circle cx="23" cy="265" r="2"/>
  </g>
  <g stroke="chocolate" stroke-width="1">
    <line x1="8" y1="485" x2="5" y2="451"/>
    <circle cx="8" cy="485" r="2"/>
    <circle cx="5" cy="451" r="2"/>
  </g>
  <g stroke="chocolate" stroke-width="1">
    <line x1="8" y1="485" x2="27" y2="448"/>
    <circle cx="8" cy="485" r="2"/>
    <circle cx="27" cy="448" r="2"/>
  </g>
  <g stroke="chocolate" stroke-width="1">
    <line x1="5" y1="484" x2="197" y2="447"/>
    <circle cx="5" cy="484" r="2"/>
    <circle cx="197" cy="447" r="2"/>
  </g>
  <g stroke="chocolate" stroke-width="1">
    <line x1="56" y1="494" x2="5" y2="484"/>
    <circle cx="56" cy="494" r="2"/>
    <circle cx="5" cy="484" r="2"/>
  </g>
  <g stroke="chocolate" stroke-width="1">
    <line x1="5" y1="310" x2="23" y2="265"/>
    <circle cx="5" cy="310" r="2"/>
    <circle cx="23" cy="265" r="2"/>
  </g>
  <g stroke="chocolate" stroke-width="1">
    <line x1="76" y1="486" x2="5" y2="310"/>
    <circle cx="76" cy="486" r="2"/>
    <circle cx="5" cy="310" r="2"/>
  </g>
  <g stroke="chocolate" stroke-width="1">
    <line x1="67" y1="233" x2="52" y2="166"/>
    <circle cx="67" cy="233" r="2"/>
    <circle cx="52" cy="166" r="2"/>
  </g>
  <g stroke="chocolate" stroke-width="1">
    <line x1="5" y1="446" x2="66" y2="388"/>
    <circle cx="5" cy="446" r="2"/>
    <circle cx="66" cy="388" r="2"/>
  </g>
  <g stroke="chocolate" stroke-width="1">
    <line x1="56" y1="494" x2="5" y2="446"/>
    <circle cx="56" cy="494" r="2"/>
    <circle cx="5" cy="446" r="2"/>
  </g>
  <g stroke="chocolate" stroke-width="1">
    <line x1="72" y1="240" x2="54" y2="186"/>
    <circle cx="72" cy="240" r="2"/>
    <circle cx="54" cy="186" r="2"/>
  </g>
  <g stroke="chocolate" stroke-width="1">
    <line x1="5" y1="437" x2="261" y2="305"/>
    <circle cx="5" cy="437" r="2"/>
    <circle cx="261" cy="305" r="2"/>
  </g>
  <g stroke="chocolate" stroke-width="1">
    <line x1="27" y1="448" x2="5" y2="437"/>
    <circle cx="27" cy="448" r="2"/>
    <circle cx="5" cy="437" r="2"/>
  </g>
  <g stroke="chocolate" stroke-width="1">
    <line x1="39" y1="187" x2="52" y2="166"/>
    <circle cx="39" cy="187" r="2"/>
    <circle cx="52" cy="166" r="2"/>
  </g>
  <g stroke="chocolate" stroke-width="1">
    <line x1="261" y1="305" x2="213" y2="124"/>
    <circle cx="261" cy="305" r="2"/>
    <circle cx="213" cy="124" r="2"/>
  </g>
  <g stroke="chocolate" stroke-width="1">
    <line x1="131" y1="460" x2="66" y2="388"/>
    <circle cx="131" cy="460" r="2"/>
    <circle cx="66" cy="388" r="2"/>
  </g>
  <g stroke="chocolate" stroke-width="1">
    <line x1="197" y1="447" x2="39" y2="187"/>
    <circle cx="197" cy="447" r="2"/>
    <circle cx="39" cy="187" r="2"/>
  </g>
  <g stroke="chocolate" stroke-width="1">
    <line x1="221" y1="394" x2="66" y2="388"/>
    <circle cx="221" cy="394" r="2"/>
    <circle cx="66" cy="388" r="2"/>
  </g>
  <g stroke="chocolate" stroke-width="1">
    <line x1="230" y1="374" x2="181" y2="368"/>
    <circle cx="230" cy="374" r="2"/>
    <circle cx="181" cy="368" r="2"/>
  </g>
  <g stroke="chocolate" stroke-width="1">
    <line x1="221" y1="394" x2="72" y2="240"/>
    <circle cx="221" cy="394" r="2"/>
    <circle cx="72" cy="240" r="2"/>
  </g>
  <g stroke="chocolate" stroke-width="1">
    <line x1="230" y1="374" x2="67" y2="233"/>
    <circle cx="230" cy="374" r="2"/>
    <circle cx="67" cy="233" r="2"/>
  </g>
  <g stroke="chocolate" stroke-width="1">
    <line x1="253" y1="321" x2="23" y2="265"/>
    <circle cx="253" cy="321" r="2"/>
    <circle cx="23" cy="265" r="2"/>
  </g>
  <g stroke="chocolate" stroke-width="1">
    <line x1="253" y1="321" x2="54" y2="186"/>
    <circle cx="253" cy="321" r="2"/>
    <circle cx="54" cy="186" r="2"/>
  </g>
  <g stroke="chocolate" stroke-width="1">
    <line x1="52" y1="166" x2="213" y2="124"/>
    <circle cx="52" cy="166" r="2"/>
    <circle cx="213" cy="124" r="2"/>
  </g>
  <g stroke="chocolate" stroke-width="1">
    <line x1="39" y1="187" x2="54" y2="186"/>
    <circle cx="39" cy="187" r="2"/>
    <circle cx="54" cy="186" r="2"/>
  </g>
  <g stroke="black" stroke-width="1">
    <line x1="5" y1="5" x2="505" y2="5"/>
    <line x1="5" y1="5" x2="5" y2="505"/>
    <line x1="505" y1="505" x2="5" y2="505"/>
    <line x1="505" y1="505" x2="505" y2="5"/>
    <line x1="105" y1="2" x2="105" y2="8"/>
    <line x1="2" y1="105" x2="8" y2="105"/>
    <line x1="105" y1="502" x2="105" y2="508"/>
    <line x1="502" y1="105" x2="508" y2="105"/>
    <line x1="205" y1="2" x2="205" y2="8"/>
    <line x1="2" y1="205" x2="8" y2="205"/>
    <line x1="205" y1="502" x2="205" y2="508"/>
    <line x1="502" y1="205" x2="508" y2="205"/>
    <line x1="305" y1="2" x2="305" y2="8"/>
    <line x1="2" y1="305" x2="8" y2="305"/>
    <line x1="305" y1="502" x2="305" y2="508"/>
    <line x1="502" y1="305" x2="508" y2="305"/>
    <line x1="405" y1="2" x2="405" y2="8"/>
    <line x1="2" y1="405" x2="8" y2="405"/>
    <line x1="405" y1="502" x2="405" y2="508"/>
    <line x1="502" y1="405" x2="508" y2="405"/>
  </g>
  <g stroke="gray" stroke-width="1" stroke-dasharray="5,5">
    <line x1="105" y1="5" x2="105" y2="505"/>
    <line x1="5" y1="105" x2="505" y2="105"/>
    <line x1="205" y1="5" x2="205" y2="505"/>
    <line x1="5" y1="205" x2="505" y2="205"/>
    <line x1="305" y1="5" x2="305" y2="505"/>
    <line x1="5" y1="305" x2="505" y2="305"/>
    <line x1="405" y1="5" x2="405" y2="505"/>
    <line x1="5" y1="405" x2="505" y2="405"/>
  </g>
</svg>
