<?xml version="1.0" standalone="no"?>
<!DOCTYPE svg PUBLIC "-//W3C//DTD SVG 1.1//EN" 
  "http://www.w3.org/Graphics/SVG/1.1/DTD/svg11.dtd">
<svg width="510" height="510" version="1.1" id="toplevel"
    xmlns="http://www.w3.org/2000/svg"
    xmlns:xlink="http://www.w3.org/1999/xlink">
  <polygon points="201,479 348,367 392,404 443,342 488,261 495,255 504,231 68,31 31,55 6,86 84,150 122,435 132,467"
           fill="bisque"/>
  <g stroke="chocolate" stroke-width="1">
    <line x1="495" y1="255" x2="504" y2="231"/>
    <circle cx="495" cy="255" r="2"/>
    <circle cx="504" cy="231" r="2"/>
  </g>
  <g stroke="chocolate" stroke-width="1">
    <line x1="443" y1="342" x2="481" y2="228"/>
    <circle cx="443" cy="342" r="2"/>
    <circle cx="481" cy="228" r="2"/>
  </g>
  <g stroke="chocolate" stroke-width="1">
    <line x1="443" y1="342" x2="504" y2="231"/>
    <circle cx="443" cy="342" r="2"/>
    <circle cx="504" cy="231" r="2"/>
  </g>
  <g stroke="chocolate" stroke-width="1">
    <line x1="201" y1="479" x2="229" y2="200"/>
    <circle cx="201" cy="479" r="2"/>
    <circle cx="229" cy="200" r="2"/>
  </g>
  <g stroke="chocolate" stroke-width="1">
    <line x1="122" y1="435" x2="130" y2="133"/>
    <circle cx="122" cy="435" r="2"/>
    <circle cx="130" cy="133" r="2"/>
  </g>
  <g stroke="chocolate" stroke-width="1">
    <line x1="122" y1="435" x2="68" y2="31"/>
    <circle cx="122" cy="435" r="2"/>
    <circle cx="68" cy="31" r="2"/>
  </g>
  <g stroke="chocolate" stroke-width="1">
    <line x1="392" y1="404" x2="443" y2="342"/>
    <circle cx="392" cy="404" r="2"/>
    <circle cx="443" cy="342" r="2"/>
  </g>
  <g stroke="chocolate" stroke-width="1">
    <line x1="132" y1="467" x2="122" y2="435"/>
    <circle cx="132" cy="467" r="2"/>
    <circle cx="122" cy="435" r="2"/>
  </g>
  <g stroke="chocolate" stroke-width="1">
    <line x1="495" y1="255" x2="488" y2="224"/>
    <circle cx="495" cy="255" r="2"/>
    <circle cx="488" cy="224" r="2"/>
  </g>
  <g stroke="chocolate" stroke-width="1">
    <line x1="91" y1="205" x2="130" y2="133"/>
    <circle cx="91" cy="205" r="2"/>
    <circle cx="130" cy="133" r="2"/>
  </g>
  <g stroke="chocolate" stroke-width="1">
    <line x1="130" y1="133" x2="86" y2="40"/>
    <circle cx="130" cy="133" r="2"/>
    <circle cx="86" cy="40" r="2"/>
  </g>
  <g stroke="chocolate" stroke-width="1">
    <line x1="132" y1="467" x2="241" y2="364"/>
    <circle cx="132" cy="467" r="2"/>
    <circle cx="241" cy="364" r="2"/>
  </g>
  <g stroke="chocolate" stroke-width="1">
    <line x1="201" y1="479" x2="495" y2="255"/>
    <circle cx="201" cy="479" r="2"/>
    <circle cx="495" cy="255" r="2"/>
  </g>
  <g stroke="chocolate" stroke-width="1">
    <line x1="6" y1="86" x2="31" y2="55"/>
    <circle cx="6" cy="86" r="2"/>
    <circle cx="31" cy="55" r="2"/>
  </g>
  <g stroke="chocolate" stroke-width="1">
    <line x1="241" y1="364" x2="91" y2="205"/>
    <circle cx="241" cy="364" r="2"/>
    <circle cx="91" cy="205" r="2"/>
  </g>
  <g stroke="chocolate" stroke-width="1">
    <line x1="481" y1="228" x2="488" y2="224"/>
    <circle cx="481" cy="228" r="2"/>
    <circle cx="488" cy="224" r="2"/>
  </g>
  <g stroke="chocolate" stroke-width="1">
    <line x1="392" y1="404" x2="6" y2="86"/>
    <circle cx="392" cy="404" r="2"/>
    <circle cx="6" cy="86" r="2"/>
  </g>
  <g stroke="chocolate" stroke-width="1">
    <line x1="201" y1="479" x2="132" y2="467"/>
    <circle cx="201" cy="479" r="2"/>
    <circle cx="132" cy="467" r="2"/>
  </g>
  <g stroke="chocolate" stroke-width="1">
    <line x1="503" y1="233" x2="496" y2="227"/>
    <circle cx="503" cy="233" r="2"/>
    <circle cx="496" cy="227" r="2"/>
  </g>
  <g stroke="chocolate" stroke-width="1">
    <line x1="31" y1="55" x2="68" y2="31"/>
    <circle cx="31" cy="55" r="2"/>
    <circle cx="68" cy="31" r="2"/>
  </g>
  <g stroke="chocolate" stroke-width="1">
    <line x1="504" y1="231" x2="68" y2="31"/>
    <circle cx="504" cy="231" r="2"/>
    <circle cx="68" cy="31" r="2"/>
  </g>
  <g stroke="chocolate" stroke-width="1">
    <line x1="496" y1="227" x2="229" y2="200"/>
    <circle cx="496" cy="227" r="2"/>
    <circle cx="229" cy="200" r="2"/>
  </g>
  <g stroke="chocolate" stroke-width="1">
    <line x1="503" y1="233" x2="481" y2="228"/>
    <circle cx="503" cy="233" r="2"/>
    <circle cx="481" cy="228" r="2"/>
  </g>
  <g stroke="chocolate" stroke-width="1">
    <line x1="31" y1="55" x2="86" y2="40"/>
    <circle cx="31" cy="55" r="2"/>
    <circle cx="86" cy="40" r="2"/>
  </g>
  <g stroke="black" stroke-width="1">
    <line x1="5" y1="5" x2="505" y2="5"/>
    <line x1="5" y1="5" x2="5" y2="505"/>
    <line x1="505" y1="505" x2="5" y2="505"/>
    <line x1="505" y1="505" x2="505" y2="5"/>
    <line x1="105" y1="2" x2="105" y2="8"/>
    <line x1="2" y1="105" x2="8" y2="105"/>
    <line x1="105" y1="502" x2="105" y2="508"/>
    <line x1="502" y1="105" x2="508" y2="105"/>
    <line x1="205" y1="2" x2="205" y2="8"/>
    <line x1="2" y1="205" x2="8" y2="205"/>
    <line x1="205" y1="502" x2="205" y2="508"/>
    <line x1="502" y1="205" x2="508" y2="205"/>
    <line x1="305" y1="2" x2="305" y2="8"/>
    <line x1="2" y1="305" x2="8" y2="305"/>
    <line x1="305" y1="502" x2="305" y2="508"/>
    <line x1="502" y1="305" x2="508" y2="305"/>
    <line x1="405" y1="2" x2="405" y2="8"/>
    <line x1="2" y1="405" x2="8" y2="405"/>
    <line x1="405" y1="502" x2="405" y2="508"/>
    <line x1="502" y1="405" x2="508" y2="405"/>
  </g>
  <g stroke="gray" stroke-width="1" stroke-dasharray="5,5">
    <line x1="105" y1="5" x2="105" y2="505"/>
    <line x1="5" y1="105" x2="505" y2="105"/>
    <line x1="205" y1="5" x2="205" y2="505"/>
    <line x1="5" y1="205" x2="505" y2="205"/>
    <line x1="305" y1="5" x2="305" y2="505"/>
    <line x1="5" y1="305" x2="505" y2="305"/>
    <line x1="405" y1="5" x2="405" y2="505"/>
    <line x1="5" y1="405" x2="505" y2="405"/>
  </g>
</svg>
