<?xml version="1.0" standalone="no"?>
<!DOCTYPE svg PUBLIC "-//W3C//DTD SVG 1.1//EN" 
  "http://www.w3.org/Graphics/SVG/1.1/DTD/svg11.dtd">
<svg width="578" height="578" version="1.1" id="toplevel"
    xmlns="http://www.w3.org/2000/svg"
    xmlns:xlink="http://www.w3.org/1999/xlink">
  <polygon points="284,573 535,199 380,96 392,30 244,5 209,93 173,518"
           fill="bisque"/>
  <g stroke="chocolate" stroke-width="1">
    <line x1="284" y1="573" x2="535" y2="199"/>
    <circle cx="284" cy="573" r="2"/>
    <circle cx="535" cy="199" r="2"/>
  </g>
  <g stroke="chocolate" stroke-width="1">
    <line x1="284" y1="573" x2="301" y2="526"/>
    <circle cx="284" cy="573" r="2"/>
    <circle cx="301" cy="526" r="2"/>
  </g>
  <g stroke="chocolate" stroke-width="1">
    <line x1="219" y1="490" x2="236" y2="475"/>
    <circle cx="219" cy="490" r="2"/>
    <circle cx="236" cy="475" r="2"/>
  </g>
  <g stroke="chocolate" stroke-width="1">
    <line x1="230" y1="489" x2="236" y2="475"/>
    <circle cx="230" cy="489" r="2"/>
    <circle cx="236" cy="475" r="2"/>
  </g>
  <g stroke="chocolate" stroke-width="1">
    <line x1="173" y1="518" x2="292" y2="481"/>
    <circle cx="173" cy="518" r="2"/>
    <circle cx="292" cy="481" r="2"/>
  </g>
  <g stroke="chocolate" stroke-width="1">
    <line x1="325" y1="424" x2="392" y2="30"/>
    <circle cx="325" cy="424" r="2"/>
    <circle cx="392" cy="30" r="2"/>
  </g>
  <g stroke="chocolate" stroke-width="1">
    <line x1="181" y1="423" x2="256" y2="352"/>
    <circle cx="181" cy="423" r="2"/>
    <circle cx="256" cy="352" r="2"/>
  </g>
  <g stroke="chocolate" stroke-width="1">
    <line x1="236" y1="475" x2="288" y2="462"/>
    <circle cx="236" cy="475" r="2"/>
    <circle cx="288" cy="462" r="2"/>
  </g>
  <g stroke="chocolate" stroke-width="1">
    <line x1="219" y1="490" x2="292" y2="481"/>
    <circle cx="219" cy="490" r="2"/>
    <circle cx="292" cy="481" r="2"/>
  </g>
  <g stroke="chocolate" stroke-width="1">
    <line x1="173" y1="518" x2="209" y2="93"/>
    <circle cx="173" cy="518" r="2"/>
    <circle cx="209" cy="93" r="2"/>
  </g>
  <g stroke="chocolate" stroke-width="1">
    <line x1="177" y1="469" x2="325" y2="424"/>
    <circle cx="177" cy="469" r="2"/>
    <circle cx="325" cy="424" r="2"/>
  </g>
  <g stroke="chocolate" stroke-width="1">
    <line x1="176" y1="482" x2="288" y2="462"/>
    <circle cx="176" cy="482" r="2"/>
    <circle cx="288" cy="462" r="2"/>
  </g>
  <g stroke="chocolate" stroke-width="1">
    <line x1="209" y1="93" x2="244" y2="5"/>
    <circle cx="209" cy="93" r="2"/>
    <circle cx="244" cy="5" r="2"/>
  </g>
  <g stroke="chocolate" stroke-width="1">
    <line x1="284" y1="573" x2="173" y2="518"/>
    <circle cx="284" cy="573" r="2"/>
    <circle cx="173" cy="518" r="2"/>
  </g>
  <g stroke="chocolate" stroke-width="1">
    <line x1="292" y1="481" x2="209" y2="93"/>
    <circle cx="292" cy="481" r="2"/>
    <circle cx="209" cy="93" r="2"/>
  </g>
  <g stroke="chocolate" stroke-width="1">
    <line x1="301" y1="526" x2="176" y2="482"/>
    <circle cx="301" cy="526" r="2"/>
    <circle cx="176" cy="482" r="2"/>
  </g>
  <g stroke="chocolate" stroke-width="1">
    <line x1="219" y1="490" x2="177" y2="469"/>
    <circle cx="219" cy="490" r="2"/>
    <circle cx="177" cy="469" r="2"/>
  </g>
  <g stroke="chocolate" stroke-width="1">
    <line x1="230" y1="489" x2="181" y2="423"/>
    <circle cx="230" cy="489" r="2"/>
    <circle cx="181" cy="423" r="2"/>
  </g>
  <g stroke="chocolate" stroke-width="1">
    <line x1="325" y1="424" x2="256" y2="352"/>
    <circle cx="325" cy="424" r="2"/>
    <circle cx="256" cy="352" r="2"/>
  </g>
  <g stroke="chocolate" stroke-width="1">
    <line x1="535" y1="199" x2="244" y2="5"/>
    <circle cx="535" cy="199" r="2"/>
    <circle cx="244" cy="5" r="2"/>
  </g>
  <g stroke="chocolate" stroke-width="1">
    <line x1="392" y1="30" x2="244" y2="5"/>
    <circle cx="392" cy="30" r="2"/>
    <circle cx="244" cy="5" r="2"/>
  </g>
  <g stroke="black" stroke-width="1">
    <line x1="39" y1="39" x2="539" y2="39"/>
    <line x1="39" y1="39" x2="39" y2="539"/>
    <line x1="539" y1="539" x2="39" y2="539"/>
    <line x1="539" y1="539" x2="539" y2="39"/>
    <line x1="139" y1="36" x2="139" y2="42"/>
    <line x1="36" y1="139" x2="42" y2="139"/>
    <line x1="139" y1="536" x2="139" y2="542"/>
    <line x1="536" y1="139" x2="542" y2="139"/>
    <line x1="239" y1="36" x2="239" y2="42"/>
    <line x1="36" y1="239" x2="42" y2="239"/>
    <line x1="239" y1="536" x2="239" y2="542"/>
    <line x1="536" y1="239" x2="542" y2="239"/>
    <line x1="339" y1="36" x2="339" y2="42"/>
    <line x1="36" y1="339" x2="42" y2="339"/>
    <line x1="339" y1="536" x2="339" y2="542"/>
    <line x1="536" y1="339" x2="542" y2="339"/>
    <line x1="439" y1="36" x2="439" y2="42"/>
    <line x1="36" y1="439" x2="42" y2="439"/>
    <line x1="439" y1="536" x2="439" y2="542"/>
    <line x1="536" y1="439" x2="542" y2="439"/>
  </g>
  <g stroke="gray" stroke-width="1" stroke-dasharray="5,5">
    <line x1="139" y1="39" x2="139" y2="539"/>
    <line x1="39" y1="139" x2="539" y2="139"/>
    <line x1="239" y1="39" x2="239" y2="539"/>
    <line x1="39" y1="239" x2="539" y2="239"/>
    <line x1="339" y1="39" x2="339" y2="539"/>
    <line x1="39" y1="339" x2="539" y2="339"/>
    <line x1="439" y1="39" x2="439" y2="539"/>
    <line x1="39" y1="439" x2="539" y2="439"/>
  </g>
</svg>
