<?xml version="1.0" standalone="no"?>
<!DOCTYPE svg PUBLIC "-//W3C//DTD SVG 1.1//EN" 
  "http://www.w3.org/Graphics/SVG/1.1/DTD/svg11.dtd">
<svg width="598" height="598" version="1.1" id="toplevel"
    xmlns="http://www.w3.org/2000/svg"
    xmlns:xlink="http://www.w3.org/1999/xlink">
  <polygon points="103,593 593,495 495,5 5,103" fill="bisque"/>
  <g stroke="chocolate" stroke-width="1">
    <line x1="103" y1="593" x2="593" y2="495"/>
    <circle cx="103" cy="593" r="2"/>
    <circle cx="593" cy="495" r="2"/>
  </g>
  <g stroke="chocolate" stroke-width="1">
    <line x1="103" y1="593" x2="5" y2="103"/>
    <circle cx="103" cy="593" r="2"/>
    <circle cx="5" cy="103" r="2"/>
  </g>
  <g stroke="chocolate" stroke-width="1">
    <line x1="593" y1="495" x2="495" y2="5"/>
    <circle cx="593" cy="495" r="2"/>
    <circle cx="495" cy="5" r="2"/>
  </g>
  <g stroke="chocolate" stroke-width="1">
    <line x1="5" y1="103" x2="495" y2="5"/>
    <circle cx="5" cy="103" r="2"/>
    <circle cx="495" cy="5" r="2"/>
  </g>
  <g stroke="black" stroke-width="1">
    <line x1="49" y1="49" x2="549" y2="49"/>
    <line x1="49" y1="49" x2="49" y2="549"/>
    <line x1="549" y1="549" x2="49" y2="549"/>
    <line x1="549" y1="549" x2="549" y2="49"/>
    <line x1="149" y1="46" x2="149" y2="52"/>
    <line x1="46" y1="149" x2="52" y2="149"/>
    <line x1="149" y1="546" x2="149" y2="552"/>
    <line x1="546" y1="149" x2="552" y2="149"/>
    <line x1="249" y1="46" x2="249" y2="52"/>
    <line x1="46" y1="249" x2="52" y2="249"/>
    <line x1="249" y1="546" x2="249" y2="552"/>
    <line x1="546" y1="249" x2="552" y2="249"/>
    <line x1="349" y1="46" x2="349" y2="52"/>
    <line x1="46" y1="349" x2="52" y2="349"/>
    <line x1="349" y1="546" x2="349" y2="552"/>
    <line x1="546" y1="349" x2="552" y2="349"/>
    <line x1="449" y1="46" x2="449" y2="52"/>
    <line x1="46" y1="449" x2="52" y2="449"/>
    <line x1="449" y1="546" x2="449" y2="552"/>
    <line x1="546" y1="449" x2="552" y2="449"/>
  </g>
  <g stroke="gray" stroke-width="1" stroke-dasharray="5,5">
    <line x1="149" y1="49" x2="149" y2="549"/>
    <line x1="49" y1="149" x2="549" y2="149"/>
    <line x1="249" y1="49" x2="249" y2="549"/>
    <line x1="49" y1="249" x2="549" y2="249"/>
    <line x1="349" y1="49" x2="349" y2="549"/>
    <line x1="49" y1="349" x2="549" y2="349"/>
    <line x1="449" y1="49" x2="449" y2="549"/>
    <line x1="49" y1="449" x2="549" y2="449"/>
  </g>
</svg>
