<?xml version="1.0" standalone="no"?>
<!DOCTYPE svg PUBLIC "-//W3C//DTD SVG 1.1//EN" 
  "http://www.w3.org/Graphics/SVG/1.1/DTD/svg11.dtd">
<svg width="510" height="510" version="1.1" id="toplevel"
    xmlns="http://www.w3.org/2000/svg"
    xmlns:xlink="http://www.w3.org/1999/xlink">
  <polygon points="351,439 396,417 309,242 312,223 301,151 289,153 304,65 227,53 114,304 173,391"
           fill="bisque"/>
  <g stroke="chocolate" stroke-width="1">
    <line x1="351" y1="439" x2="396" y2="417"/>
    <circle cx="351" cy="439" r="2"/>
    <circle cx="396" cy="417" r="2"/>
  </g>
  <g stroke="chocolate" stroke-width="1">
    <line x1="279" y1="281" x2="312" y2="223"/>
    <circle cx="279" cy="281" r="2"/>
    <circle cx="312" cy="223" r="2"/>
  </g>
  <g stroke="chocolate" stroke-width="1">
    <line x1="248" y1="411" x2="302" y2="271"/>
    <circle cx="248" cy="411" r="2"/>
    <circle cx="302" cy="271" r="2"/>
  </g>
  <g stroke="chocolate" stroke-width="1">
    <line x1="271" y1="273" x2="282" y2="238"/>
    <circle cx="271" cy="273" r="2"/>
    <circle cx="282" cy="238" r="2"/>
  </g>
  <g stroke="chocolate" stroke-width="1">
    <line x1="284" y1="281" x2="297" y2="269"/>
    <circle cx="284" cy="281" r="2"/>
    <circle cx="297" cy="269" r="2"/>
  </g>
  <g stroke="chocolate" stroke-width="1">
    <line x1="302" y1="278" x2="312" y2="223"/>
    <circle cx="302" cy="278" r="2"/>
    <circle cx="312" cy="223" r="2"/>
  </g>
  <g stroke="chocolate" stroke-width="1">
    <line x1="248" y1="411" x2="304" y2="65"/>
    <circle cx="248" cy="411" r="2"/>
    <circle cx="304" cy="65" r="2"/>
  </g>
  <g stroke="chocolate" stroke-width="1">
    <line x1="188" y1="294" x2="237" y2="61"/>
    <circle cx="188" cy="294" r="2"/>
    <circle cx="237" cy="61" r="2"/>
  </g>
  <g stroke="chocolate" stroke-width="1">
    <line x1="114" y1="304" x2="227" y2="53"/>
    <circle cx="114" cy="304" r="2"/>
    <circle cx="227" cy="53" r="2"/>
  </g>
  <g stroke="chocolate" stroke-width="1">
    <line x1="173" y1="391" x2="195" y2="211"/>
    <circle cx="173" cy="391" r="2"/>
    <circle cx="195" cy="211" r="2"/>
  </g>
  <g stroke="chocolate" stroke-width="1">
    <line x1="312" y1="223" x2="301" y2="151"/>
    <circle cx="312" cy="223" r="2"/>
    <circle cx="301" cy="151" r="2"/>
  </g>
  <g stroke="chocolate" stroke-width="1">
    <line x1="271" y1="273" x2="297" y2="269"/>
    <circle cx="271" cy="273" r="2"/>
    <circle cx="297" cy="269" r="2"/>
  </g>
  <g stroke="chocolate" stroke-width="1">
    <line x1="188" y1="294" x2="151" y2="222"/>
    <circle cx="188" cy="294" r="2"/>
    <circle cx="151" cy="222" r="2"/>
  </g>
  <g stroke="chocolate" stroke-width="1">
    <line x1="114" y1="304" x2="302" y2="278"/>
    <circle cx="114" cy="304" r="2"/>
    <circle cx="302" cy="278" r="2"/>
  </g>
  <g stroke="chocolate" stroke-width="1">
    <line x1="173" y1="391" x2="114" y2="304"/>
    <circle cx="173" cy="391" r="2"/>
    <circle cx="114" cy="304" r="2"/>
  </g>
  <g stroke="chocolate" stroke-width="1">
    <line x1="351" y1="439" x2="173" y2="391"/>
    <circle cx="351" cy="439" r="2"/>
    <circle cx="173" cy="391" r="2"/>
  </g>
  <g stroke="chocolate" stroke-width="1">
    <line x1="151" y1="222" x2="195" y2="211"/>
    <circle cx="151" cy="222" r="2"/>
    <circle cx="195" cy="211" r="2"/>
  </g>
  <g stroke="chocolate" stroke-width="1">
    <line x1="302" y1="278" x2="282" y2="238"/>
    <circle cx="302" cy="278" r="2"/>
    <circle cx="282" cy="238" r="2"/>
  </g>
  <g stroke="chocolate" stroke-width="1">
    <line x1="396" y1="417" x2="221" y2="66"/>
    <circle cx="396" cy="417" r="2"/>
    <circle cx="221" cy="66" r="2"/>
  </g>
  <g stroke="chocolate" stroke-width="1">
    <line x1="351" y1="439" x2="174" y2="170"/>
    <circle cx="351" cy="439" r="2"/>
    <circle cx="174" cy="170" r="2"/>
  </g>
  <g stroke="chocolate" stroke-width="1">
    <line x1="174" y1="170" x2="301" y2="151"/>
    <circle cx="174" cy="170" r="2"/>
    <circle cx="301" cy="151" r="2"/>
  </g>
  <g stroke="chocolate" stroke-width="1">
    <line x1="279" y1="281" x2="271" y2="273"/>
    <circle cx="279" cy="281" r="2"/>
    <circle cx="271" cy="273" r="2"/>
  </g>
  <g stroke="chocolate" stroke-width="1">
    <line x1="221" y1="66" x2="237" y2="61"/>
    <circle cx="221" cy="66" r="2"/>
    <circle cx="237" cy="61" r="2"/>
  </g>
  <g stroke="chocolate" stroke-width="1">
    <line x1="284" y1="281" x2="154" y2="214"/>
    <circle cx="284" cy="281" r="2"/>
    <circle cx="154" cy="214" r="2"/>
  </g>
  <g stroke="chocolate" stroke-width="1">
    <line x1="302" y1="271" x2="154" y2="214"/>
    <circle cx="302" cy="271" r="2"/>
    <circle cx="154" cy="214" r="2"/>
  </g>
  <g stroke="chocolate" stroke-width="1">
    <line x1="195" y1="211" x2="163" y2="194"/>
    <circle cx="195" cy="211" r="2"/>
    <circle cx="163" cy="194" r="2"/>
  </g>
  <g stroke="chocolate" stroke-width="1">
    <line x1="282" y1="238" x2="163" y2="194"/>
    <circle cx="282" cy="238" r="2"/>
    <circle cx="163" cy="194" r="2"/>
  </g>
  <g stroke="chocolate" stroke-width="1">
    <line x1="237" y1="61" x2="227" y2="53"/>
    <circle cx="237" cy="61" r="2"/>
    <circle cx="227" cy="53" r="2"/>
  </g>
  <g stroke="chocolate" stroke-width="1">
    <line x1="304" y1="65" x2="227" y2="53"/>
    <circle cx="304" cy="65" r="2"/>
    <circle cx="227" cy="53" r="2"/>
  </g>
  <g stroke="black" stroke-width="1">
    <line x1="5" y1="5" x2="505" y2="5"/>
    <line x1="5" y1="5" x2="5" y2="505"/>
    <line x1="505" y1="505" x2="5" y2="505"/>
    <line x1="505" y1="505" x2="505" y2="5"/>
    <line x1="105" y1="2" x2="105" y2="8"/>
    <line x1="2" y1="105" x2="8" y2="105"/>
    <line x1="105" y1="502" x2="105" y2="508"/>
    <line x1="502" y1="105" x2="508" y2="105"/>
    <line x1="205" y1="2" x2="205" y2="8"/>
    <line x1="2" y1="205" x2="8" y2="205"/>
    <line x1="205" y1="502" x2="205" y2="508"/>
    <line x1="502" y1="205" x2="508" y2="205"/>
    <line x1="305" y1="2" x2="305" y2="8"/>
    <line x1="2" y1="305" x2="8" y2="305"/>
    <line x1="305" y1="502" x2="305" y2="508"/>
    <line x1="502" y1="305" x2="508" y2="305"/>
    <line x1="405" y1="2" x2="405" y2="8"/>
    <line x1="2" y1="405" x2="8" y2="405"/>
    <line x1="405" y1="502" x2="405" y2="508"/>
    <line x1="502" y1="405" x2="508" y2="405"/>
  </g>
  <g stroke="gray" stroke-width="1" stroke-dasharray="5,5">
    <line x1="105" y1="5" x2="105" y2="505"/>
    <line x1="5" y1="105" x2="505" y2="105"/>
    <line x1="205" y1="5" x2="205" y2="505"/>
    <line x1="5" y1="205" x2="505" y2="205"/>
    <line x1="305" y1="5" x2="305" y2="505"/>
    <line x1="5" y1="305" x2="505" y2="305"/>
    <line x1="405" y1="5" x2="405" y2="505"/>
    <line x1="5" y1="405" x2="505" y2="405"/>
  </g>
</svg>
