<?xml version="1.0" standalone="no"?>
<!DOCTYPE svg PUBLIC "-//W3C//DTD SVG 1.1//EN" 
  "http://www.w3.org/Graphics/SVG/1.1/DTD/svg11.dtd">
<svg width="510" height="510" version="1.1" id="toplevel"
    xmlns="http://www.w3.org/2000/svg"
    xmlns:xlink="http://www.w3.org/1999/xlink">
  <polygon points="139,418 309,363 333,307 379,287 430,320 481,242 353,92 259,112 132,397"
           fill="bisque"/>
  <g stroke="chocolate" stroke-width="1">
    <line x1="430" y1="320" x2="481" y2="242"/>
    <circle cx="430" cy="320" r="2"/>
    <circle cx="481" cy="242" r="2"/>
  </g>
  <g stroke="chocolate" stroke-width="1">
    <line x1="479" y1="242" x2="480" y2="241"/>
    <circle cx="479" cy="242" r="2"/>
    <circle cx="480" cy="241" r="2"/>
  </g>
  <g stroke="chocolate" stroke-width="1">
    <line x1="309" y1="363" x2="349" y2="269"/>
    <circle cx="309" cy="363" r="2"/>
    <circle cx="349" cy="269" r="2"/>
  </g>
  <g stroke="chocolate" stroke-width="1">
    <line x1="352" y1="94" x2="353" y2="92"/>
    <circle cx="352" cy="94" r="2"/>
    <circle cx="353" cy="92" r="2"/>
  </g>
  <g stroke="chocolate" stroke-width="1">
    <line x1="286" y1="327" x2="354" y2="94"/>
    <circle cx="286" cy="327" r="2"/>
    <circle cx="354" cy="94" r="2"/>
  </g>
  <g stroke="chocolate" stroke-width="1">
    <line x1="301" y1="263" x2="316" y2="211"/>
    <circle cx="301" cy="263" r="2"/>
    <circle cx="316" cy="211" r="2"/>
  </g>
  <g stroke="chocolate" stroke-width="1">
    <line x1="275" y1="168" x2="283" y2="154"/>
    <circle cx="275" cy="168" r="2"/>
    <circle cx="283" cy="154" r="2"/>
  </g>
  <g stroke="chocolate" stroke-width="1">
    <line x1="139" y1="418" x2="309" y2="363"/>
    <circle cx="139" cy="418" r="2"/>
    <circle cx="309" cy="363" r="2"/>
  </g>
  <g stroke="chocolate" stroke-width="1">
    <line x1="132" y1="397" x2="259" y2="112"/>
    <circle cx="132" cy="397" r="2"/>
    <circle cx="259" cy="112" r="2"/>
  </g>
  <g stroke="chocolate" stroke-width="1">
    <line x1="479" y1="242" x2="481" y2="242"/>
    <circle cx="479" cy="242" r="2"/>
    <circle cx="481" cy="242" r="2"/>
  </g>
  <g stroke="chocolate" stroke-width="1">
    <line x1="132" y1="397" x2="480" y2="241"/>
    <circle cx="132" cy="397" r="2"/>
    <circle cx="480" cy="241" r="2"/>
  </g>
  <g stroke="chocolate" stroke-width="1">
    <line x1="286" y1="327" x2="359" y2="294"/>
    <circle cx="286" cy="327" r="2"/>
    <circle cx="359" cy="294" r="2"/>
  </g>
  <g stroke="chocolate" stroke-width="1">
    <line x1="301" y1="263" x2="300" y2="183"/>
    <circle cx="301" cy="263" r="2"/>
    <circle cx="300" cy="183" r="2"/>
  </g>
  <g stroke="chocolate" stroke-width="1">
    <line x1="139" y1="418" x2="132" y2="397"/>
    <circle cx="139" cy="418" r="2"/>
    <circle cx="132" cy="397" r="2"/>
  </g>
  <g stroke="chocolate" stroke-width="1">
    <line x1="359" y1="294" x2="332" y2="97"/>
    <circle cx="359" cy="294" r="2"/>
    <circle cx="332" cy="97" r="2"/>
  </g>
  <g stroke="chocolate" stroke-width="1">
    <line x1="348" y1="154" x2="332" y2="97"/>
    <circle cx="348" cy="154" r="2"/>
    <circle cx="332" cy="97" r="2"/>
  </g>
  <g stroke="chocolate" stroke-width="1">
    <line x1="309" y1="363" x2="225" y2="189"/>
    <circle cx="309" cy="363" r="2"/>
    <circle cx="225" cy="189" r="2"/>
  </g>
  <g stroke="chocolate" stroke-width="1">
    <line x1="225" y1="189" x2="348" y2="154"/>
    <circle cx="225" cy="189" r="2"/>
    <circle cx="348" cy="154" r="2"/>
  </g>
  <g stroke="chocolate" stroke-width="1">
    <line x1="349" y1="269" x2="198" y2="250"/>
    <circle cx="349" cy="269" r="2"/>
    <circle cx="198" cy="250" r="2"/>
  </g>
  <g stroke="chocolate" stroke-width="1">
    <line x1="349" y1="269" x2="259" y2="112"/>
    <circle cx="349" cy="269" r="2"/>
    <circle cx="259" cy="112" r="2"/>
  </g>
  <g stroke="chocolate" stroke-width="1">
    <line x1="286" y1="327" x2="198" y2="250"/>
    <circle cx="286" cy="327" r="2"/>
    <circle cx="198" cy="250" r="2"/>
  </g>
  <g stroke="chocolate" stroke-width="1">
    <line x1="359" y1="294" x2="240" y2="155"/>
    <circle cx="359" cy="294" r="2"/>
    <circle cx="240" cy="155" r="2"/>
  </g>
  <g stroke="chocolate" stroke-width="1">
    <line x1="259" y1="112" x2="353" y2="92"/>
    <circle cx="259" cy="112" r="2"/>
    <circle cx="353" cy="92" r="2"/>
  </g>
  <g stroke="chocolate" stroke-width="1">
    <line x1="240" y1="155" x2="283" y2="154"/>
    <circle cx="240" cy="155" r="2"/>
    <circle cx="283" cy="154" r="2"/>
  </g>
  <g stroke="chocolate" stroke-width="1">
    <line x1="430" y1="320" x2="226" y2="187"/>
    <circle cx="430" cy="320" r="2"/>
    <circle cx="226" cy="187" r="2"/>
  </g>
  <g stroke="chocolate" stroke-width="1">
    <line x1="316" y1="211" x2="226" y2="187"/>
    <circle cx="316" cy="211" r="2"/>
    <circle cx="226" cy="187" r="2"/>
  </g>
  <g stroke="chocolate" stroke-width="1">
    <line x1="352" y1="94" x2="354" y2="94"/>
    <circle cx="352" cy="94" r="2"/>
    <circle cx="354" cy="94" r="2"/>
  </g>
  <g stroke="chocolate" stroke-width="1">
    <line x1="300" y1="183" x2="275" y2="168"/>
    <circle cx="300" cy="183" r="2"/>
    <circle cx="275" cy="168" r="2"/>
  </g>
  <g stroke="chocolate" stroke-width="1">
    <line x1="479" y1="242" x2="352" y2="94"/>
    <circle cx="479" cy="242" r="2"/>
    <circle cx="352" cy="94" r="2"/>
  </g>
  <g stroke="chocolate" stroke-width="1">
    <line x1="481" y1="242" x2="353" y2="92"/>
    <circle cx="481" cy="242" r="2"/>
    <circle cx="353" cy="92" r="2"/>
  </g>
  <g stroke="black" stroke-width="1">
    <line x1="5" y1="5" x2="505" y2="5"/>
    <line x1="5" y1="5" x2="5" y2="505"/>
    <line x1="505" y1="505" x2="5" y2="505"/>
    <line x1="505" y1="505" x2="505" y2="5"/>
    <line x1="105" y1="2" x2="105" y2="8"/>
    <line x1="2" y1="105" x2="8" y2="105"/>
    <line x1="105" y1="502" x2="105" y2="508"/>
    <line x1="502" y1="105" x2="508" y2="105"/>
    <line x1="205" y1="2" x2="205" y2="8"/>
    <line x1="2" y1="205" x2="8" y2="205"/>
    <line x1="205" y1="502" x2="205" y2="508"/>
    <line x1="502" y1="205" x2="508" y2="205"/>
    <line x1="305" y1="2" x2="305" y2="8"/>
    <line x1="2" y1="305" x2="8" y2="305"/>
    <line x1="305" y1="502" x2="305" y2="508"/>
    <line x1="502" y1="305" x2="508" y2="305"/>
    <line x1="405" y1="2" x2="405" y2="8"/>
    <line x1="2" y1="405" x2="8" y2="405"/>
    <line x1="405" y1="502" x2="405" y2="508"/>
    <line x1="502" y1="405" x2="508" y2="405"/>
  </g>
  <g stroke="gray" stroke-width="1" stroke-dasharray="5,5">
    <line x1="105" y1="5" x2="105" y2="505"/>
    <line x1="5" y1="105" x2="505" y2="105"/>
    <line x1="205" y1="5" x2="205" y2="505"/>
    <line x1="5" y1="205" x2="505" y2="205"/>
    <line x1="305" y1="5" x2="305" y2="505"/>
    <line x1="5" y1="305" x2="505" y2="305"/>
    <line x1="405" y1="5" x2="405" y2="505"/>
    <line x1="5" y1="405" x2="505" y2="405"/>
  </g>
</svg>
