<?xml version="1.0" standalone="no"?>
<!DOCTYPE svg PUBLIC "-//W3C//DTD SVG 1.1//EN" 
  "http://www.w3.org/Graphics/SVG/1.1/DTD/svg11.dtd">
<svg width="510" height="510" version="1.1" id="toplevel"
    xmlns="http://www.w3.org/2000/svg"
    xmlns:xlink="http://www.w3.org/1999/xlink">
  <polygon points="428,484 473,404 373,348 274,105 230,123 225,112 56,176 60,257 131,338 163,309 184,335 403,482"
           fill="bisque"/>
  <g stroke="chocolate" stroke-width="1">
    <line x1="428" y1="484" x2="473" y2="404"/>
    <circle cx="428" cy="484" r="2"/>
    <circle cx="473" cy="404" r="2"/>
  </g>
  <g stroke="chocolate" stroke-width="1">
    <line x1="60" y1="257" x2="56" y2="176"/>
    <circle cx="60" cy="257" r="2"/>
    <circle cx="56" cy="176" r="2"/>
  </g>
  <g stroke="chocolate" stroke-width="1">
    <line x1="113" y1="177" x2="111" y2="155"/>
    <circle cx="113" cy="177" r="2"/>
    <circle cx="111" cy="155" r="2"/>
  </g>
  <g stroke="chocolate" stroke-width="1">
    <line x1="57" y1="188" x2="62" y2="174"/>
    <circle cx="57" cy="188" r="2"/>
    <circle cx="62" cy="174" r="2"/>
  </g>
  <g stroke="chocolate" stroke-width="1">
    <line x1="131" y1="338" x2="257" y2="227"/>
    <circle cx="131" cy="338" r="2"/>
    <circle cx="257" cy="227" r="2"/>
  </g>
  <g stroke="chocolate" stroke-width="1">
    <line x1="117" y1="179" x2="112" y2="155"/>
    <circle cx="117" cy="179" r="2"/>
    <circle cx="112" cy="155" r="2"/>
  </g>
  <g stroke="chocolate" stroke-width="1">
    <line x1="428" y1="484" x2="403" y2="482"/>
    <circle cx="428" cy="484" r="2"/>
    <circle cx="403" cy="482" r="2"/>
  </g>
  <g stroke="chocolate" stroke-width="1">
    <line x1="60" y1="257" x2="117" y2="179"/>
    <circle cx="60" cy="257" r="2"/>
    <circle cx="117" cy="179" r="2"/>
  </g>
  <g stroke="chocolate" stroke-width="1">
    <line x1="67" y1="189" x2="83" y2="166"/>
    <circle cx="67" cy="189" r="2"/>
    <circle cx="83" cy="166" r="2"/>
  </g>
  <g stroke="chocolate" stroke-width="1">
    <line x1="62" y1="200" x2="57" y2="188"/>
    <circle cx="62" cy="200" r="2"/>
    <circle cx="57" cy="188" r="2"/>
  </g>
  <g stroke="chocolate" stroke-width="1">
    <line x1="184" y1="335" x2="115" y2="160"/>
    <circle cx="184" cy="335" r="2"/>
    <circle cx="115" cy="160" r="2"/>
  </g>
  <g stroke="chocolate" stroke-width="1">
    <line x1="257" y1="227" x2="225" y2="112"/>
    <circle cx="257" cy="227" r="2"/>
    <circle cx="225" cy="112" r="2"/>
  </g>
  <g stroke="chocolate" stroke-width="1">
    <line x1="115" y1="160" x2="112" y2="155"/>
    <circle cx="115" cy="160" r="2"/>
    <circle cx="112" cy="155" r="2"/>
  </g>
  <g stroke="chocolate" stroke-width="1">
    <line x1="131" y1="338" x2="60" y2="257"/>
    <circle cx="131" cy="338" r="2"/>
    <circle cx="60" cy="257" r="2"/>
  </g>
  <g stroke="chocolate" stroke-width="1">
    <line x1="113" y1="177" x2="116" y2="174"/>
    <circle cx="113" cy="177" r="2"/>
    <circle cx="116" cy="174" r="2"/>
  </g>
  <g stroke="chocolate" stroke-width="1">
    <line x1="428" y1="484" x2="274" y2="105"/>
    <circle cx="428" cy="484" r="2"/>
    <circle cx="274" cy="105" r="2"/>
  </g>
  <g stroke="chocolate" stroke-width="1">
    <line x1="184" y1="335" x2="56" y2="176"/>
    <circle cx="184" cy="335" r="2"/>
    <circle cx="56" cy="176" r="2"/>
  </g>
  <g stroke="chocolate" stroke-width="1">
    <line x1="403" y1="482" x2="225" y2="112"/>
    <circle cx="403" cy="482" r="2"/>
    <circle cx="225" cy="112" r="2"/>
  </g>
  <g stroke="chocolate" stroke-width="1">
    <line x1="115" y1="160" x2="111" y2="155"/>
    <circle cx="115" cy="160" r="2"/>
    <circle cx="111" cy="155" r="2"/>
  </g>
  <g stroke="chocolate" stroke-width="1">
    <line x1="403" y1="482" x2="184" y2="335"/>
    <circle cx="403" cy="482" r="2"/>
    <circle cx="184" cy="335" r="2"/>
  </g>
  <g stroke="chocolate" stroke-width="1">
    <line x1="62" y1="200" x2="116" y2="176"/>
    <circle cx="62" cy="200" r="2"/>
    <circle cx="116" cy="176" r="2"/>
  </g>
  <g stroke="chocolate" stroke-width="1">
    <line x1="67" y1="189" x2="274" y2="105"/>
    <circle cx="67" cy="189" r="2"/>
    <circle cx="274" cy="105" r="2"/>
  </g>
  <g stroke="chocolate" stroke-width="1">
    <line x1="56" y1="176" x2="225" y2="112"/>
    <circle cx="56" cy="176" r="2"/>
    <circle cx="225" cy="112" r="2"/>
  </g>
  <g stroke="chocolate" stroke-width="1">
    <line x1="473" y1="404" x2="62" y2="174"/>
    <circle cx="473" cy="404" r="2"/>
    <circle cx="62" cy="174" r="2"/>
  </g>
  <g stroke="chocolate" stroke-width="1">
    <line x1="57" y1="191" x2="116" y2="175"/>
    <circle cx="57" cy="191" r="2"/>
    <circle cx="116" cy="175" r="2"/>
  </g>
  <g stroke="chocolate" stroke-width="1">
    <line x1="117" y1="179" x2="113" y2="177"/>
    <circle cx="117" cy="179" r="2"/>
    <circle cx="113" cy="177" r="2"/>
  </g>
  <g stroke="chocolate" stroke-width="1">
    <line x1="113" y1="176" x2="116" y2="175"/>
    <circle cx="113" cy="176" r="2"/>
    <circle cx="116" cy="175" r="2"/>
  </g>
  <g stroke="chocolate" stroke-width="1">
    <line x1="257" y1="227" x2="57" y2="191"/>
    <circle cx="257" cy="227" r="2"/>
    <circle cx="57" cy="191" r="2"/>
  </g>
  <g stroke="chocolate" stroke-width="1">
    <line x1="116" y1="176" x2="113" y2="176"/>
    <circle cx="116" cy="176" r="2"/>
    <circle cx="113" cy="176" r="2"/>
  </g>
  <g stroke="chocolate" stroke-width="1">
    <line x1="116" y1="174" x2="83" y2="166"/>
    <circle cx="116" cy="174" r="2"/>
    <circle cx="83" cy="166" r="2"/>
  </g>
  <g stroke="black" stroke-width="1">
    <line x1="5" y1="5" x2="505" y2="5"/>
    <line x1="5" y1="5" x2="5" y2="505"/>
    <line x1="505" y1="505" x2="5" y2="505"/>
    <line x1="505" y1="505" x2="505" y2="5"/>
    <line x1="105" y1="2" x2="105" y2="8"/>
    <line x1="2" y1="105" x2="8" y2="105"/>
    <line x1="105" y1="502" x2="105" y2="508"/>
    <line x1="502" y1="105" x2="508" y2="105"/>
    <line x1="205" y1="2" x2="205" y2="8"/>
    <line x1="2" y1="205" x2="8" y2="205"/>
    <line x1="205" y1="502" x2="205" y2="508"/>
    <line x1="502" y1="205" x2="508" y2="205"/>
    <line x1="305" y1="2" x2="305" y2="8"/>
    <line x1="2" y1="305" x2="8" y2="305"/>
    <line x1="305" y1="502" x2="305" y2="508"/>
    <line x1="502" y1="305" x2="508" y2="305"/>
    <line x1="405" y1="2" x2="405" y2="8"/>
    <line x1="2" y1="405" x2="8" y2="405"/>
    <line x1="405" y1="502" x2="405" y2="508"/>
    <line x1="502" y1="405" x2="508" y2="405"/>
  </g>
  <g stroke="gray" stroke-width="1" stroke-dasharray="5,5">
    <line x1="105" y1="5" x2="105" y2="505"/>
    <line x1="5" y1="105" x2="505" y2="105"/>
    <line x1="205" y1="5" x2="205" y2="505"/>
    <line x1="5" y1="205" x2="505" y2="205"/>
    <line x1="305" y1="5" x2="305" y2="505"/>
    <line x1="5" y1="305" x2="505" y2="305"/>
    <line x1="405" y1="5" x2="405" y2="505"/>
    <line x1="5" y1="405" x2="505" y2="405"/>
  </g>
</svg>
