<?xml version="1.0" standalone="no"?>
<!DOCTYPE svg PUBLIC "-//W3C//DTD SVG 1.1//EN" 
  "http://www.w3.org/Graphics/SVG/1.1/DTD/svg11.dtd">
<svg width="510" height="510" version="1.1" id="toplevel"
    xmlns="http://www.w3.org/2000/svg"
    xmlns:xlink="http://www.w3.org/1999/xlink">
  <polygon points="5,505 505,505 505,408 248,217 5,442" fill="bisque"/>
  <g stroke="chocolate" stroke-width="1">
    <line x1="298" y1="463" x2="340" y2="362"/>
    <circle cx="298" cy="463" r="2"/>
    <circle cx="340" cy="362" r="2"/>
  </g>
  <g stroke="chocolate" stroke-width="1">
    <line x1="247" y1="441" x2="345" y2="370"/>
    <circle cx="247" cy="441" r="2"/>
    <circle cx="345" cy="370" r="2"/>
  </g>
  <g stroke="chocolate" stroke-width="1">
    <line x1="325" y1="473" x2="345" y2="370"/>
    <circle cx="325" cy="473" r="2"/>
    <circle cx="345" cy="370" r="2"/>
  </g>
  <g stroke="chocolate" stroke-width="1">
    <line x1="247" y1="472" x2="247" y2="441"/>
    <circle cx="247" cy="472" r="2"/>
    <circle cx="247" cy="441" r="2"/>
  </g>
  <g stroke="chocolate" stroke-width="1">
    <line x1="102" y1="397" x2="103" y2="350"/>
    <circle cx="102" cy="397" r="2"/>
    <circle cx="103" cy="350" r="2"/>
  </g>
  <g stroke="chocolate" stroke-width="1">
    <line x1="5" y1="505" x2="505" y2="505"/>
    <circle cx="5" cy="505" r="2"/>
    <circle cx="505" cy="505" r="2"/>
  </g>
  <g stroke="chocolate" stroke-width="1">
    <line x1="5" y1="505" x2="5" y2="442"/>
    <circle cx="5" cy="505" r="2"/>
    <circle cx="5" cy="442" r="2"/>
  </g>
  <g stroke="chocolate" stroke-width="1">
    <line x1="505" y1="505" x2="505" y2="408"/>
    <circle cx="505" cy="505" r="2"/>
    <circle cx="505" cy="408" r="2"/>
  </g>
  <g stroke="chocolate" stroke-width="1">
    <line x1="5" y1="442" x2="248" y2="217"/>
    <circle cx="5" cy="442" r="2"/>
    <circle cx="248" cy="217" r="2"/>
  </g>
  <g stroke="chocolate" stroke-width="1">
    <line x1="325" y1="473" x2="247" y2="472"/>
    <circle cx="325" cy="473" r="2"/>
    <circle cx="247" cy="472" r="2"/>
  </g>
  <g stroke="chocolate" stroke-width="1">
    <line x1="327" y1="466" x2="5" y2="442"/>
    <circle cx="327" cy="466" r="2"/>
    <circle cx="5" cy="442" r="2"/>
  </g>
  <g stroke="chocolate" stroke-width="1">
    <line x1="505" y1="408" x2="102" y2="397"/>
    <circle cx="505" cy="408" r="2"/>
    <circle cx="102" cy="397" r="2"/>
  </g>
  <g stroke="chocolate" stroke-width="1">
    <line x1="298" y1="463" x2="208" y2="253"/>
    <circle cx="298" cy="463" r="2"/>
    <circle cx="208" cy="253" r="2"/>
  </g>
  <g stroke="chocolate" stroke-width="1">
    <line x1="327" y1="466" x2="247" y2="441"/>
    <circle cx="327" cy="466" r="2"/>
    <circle cx="247" cy="441" r="2"/>
  </g>
  <g stroke="chocolate" stroke-width="1">
    <line x1="325" y1="473" x2="298" y2="463"/>
    <circle cx="325" cy="473" r="2"/>
    <circle cx="298" cy="463" r="2"/>
  </g>
  <g stroke="chocolate" stroke-width="1">
    <line x1="340" y1="362" x2="103" y2="350"/>
    <circle cx="340" cy="362" r="2"/>
    <circle cx="103" cy="350" r="2"/>
  </g>
  <g stroke="chocolate" stroke-width="1">
    <line x1="345" y1="370" x2="248" y2="217"/>
    <circle cx="345" cy="370" r="2"/>
    <circle cx="248" cy="217" r="2"/>
  </g>
  <g stroke="chocolate" stroke-width="1">
    <line x1="505" y1="408" x2="208" y2="253"/>
    <circle cx="505" cy="408" r="2"/>
    <circle cx="208" cy="253" r="2"/>
  </g>
  <g stroke="chocolate" stroke-width="1">
    <line x1="505" y1="408" x2="248" y2="217"/>
    <circle cx="505" cy="408" r="2"/>
    <circle cx="248" cy="217" r="2"/>
  </g>
  <g stroke="black" stroke-width="1">
    <line x1="5" y1="5" x2="505" y2="5"/>
    <line x1="5" y1="5" x2="5" y2="505"/>
    <line x1="505" y1="505" x2="5" y2="505"/>
    <line x1="505" y1="505" x2="505" y2="5"/>
    <line x1="105" y1="2" x2="105" y2="8"/>
    <line x1="2" y1="105" x2="8" y2="105"/>
    <line x1="105" y1="502" x2="105" y2="508"/>
    <line x1="502" y1="105" x2="508" y2="105"/>
    <line x1="205" y1="2" x2="205" y2="8"/>
    <line x1="2" y1="205" x2="8" y2="205"/>
    <line x1="205" y1="502" x2="205" y2="508"/>
    <line x1="502" y1="205" x2="508" y2="205"/>
    <line x1="305" y1="2" x2="305" y2="8"/>
    <line x1="2" y1="305" x2="8" y2="305"/>
    <line x1="305" y1="502" x2="305" y2="508"/>
    <line x1="502" y1="305" x2="508" y2="305"/>
    <line x1="405" y1="2" x2="405" y2="8"/>
    <line x1="2" y1="405" x2="8" y2="405"/>
    <line x1="405" y1="502" x2="405" y2="508"/>
    <line x1="502" y1="405" x2="508" y2="405"/>
  </g>
  <g stroke="gray" stroke-width="1" stroke-dasharray="5,5">
    <line x1="105" y1="5" x2="105" y2="505"/>
    <line x1="5" y1="105" x2="505" y2="105"/>
    <line x1="205" y1="5" x2="205" y2="505"/>
    <line x1="5" y1="205" x2="505" y2="205"/>
    <line x1="305" y1="5" x2="305" y2="505"/>
    <line x1="5" y1="305" x2="505" y2="305"/>
    <line x1="405" y1="5" x2="405" y2="505"/>
    <line x1="5" y1="405" x2="505" y2="405"/>
  </g>
</svg>
