<?xml version="1.0" standalone="no"?>
<!DOCTYPE svg PUBLIC "-//W3C//DTD SVG 1.1//EN" 
  "http://www.w3.org/Graphics/SVG/1.1/DTD/svg11.dtd">
<svg width="680" height="680" version="1.1" id="toplevel"
    xmlns="http://www.w3.org/2000/svg"
    xmlns:xlink="http://www.w3.org/1999/xlink">
  <polygon points="453,611 675,163 487,69 412,76 211,177 49,299 5,389"
           fill="bisque"/>
  <g stroke="chocolate" stroke-width="1">
    <line x1="453" y1="611" x2="675" y2="163"/>
    <circle cx="453" cy="611" r="2"/>
    <circle cx="675" cy="163" r="2"/>
  </g>
  <g stroke="chocolate" stroke-width="1">
    <line x1="357" y1="126" x2="390" y2="87"/>
    <circle cx="357" cy="126" r="2"/>
    <circle cx="390" cy="87" r="2"/>
  </g>
  <g stroke="chocolate" stroke-width="1">
    <line x1="403" y1="86" x2="412" y2="76"/>
    <circle cx="403" cy="86" r="2"/>
    <circle cx="412" cy="76" r="2"/>
  </g>
  <g stroke="chocolate" stroke-width="1">
    <line x1="366" y1="105" x2="366" y2="99"/>
    <circle cx="366" cy="105" r="2"/>
    <circle cx="366" cy="99" r="2"/>
  </g>
  <g stroke="chocolate" stroke-width="1">
    <line x1="357" y1="126" x2="361" y2="102"/>
    <circle cx="357" cy="126" r="2"/>
    <circle cx="361" cy="102" r="2"/>
  </g>
  <g stroke="chocolate" stroke-width="1">
    <line x1="415" y1="123" x2="487" y2="69"/>
    <circle cx="415" cy="123" r="2"/>
    <circle cx="487" cy="69" r="2"/>
  </g>
  <g stroke="chocolate" stroke-width="1">
    <line x1="5" y1="389" x2="49" y2="299"/>
    <circle cx="5" cy="389" r="2"/>
    <circle cx="49" cy="299" r="2"/>
  </g>
  <g stroke="chocolate" stroke-width="1">
    <line x1="415" y1="123" x2="415" y2="76"/>
    <circle cx="415" cy="123" r="2"/>
    <circle cx="415" cy="76" r="2"/>
  </g>
  <g stroke="chocolate" stroke-width="1">
    <line x1="49" y1="299" x2="211" y2="177"/>
    <circle cx="49" cy="299" r="2"/>
    <circle cx="211" cy="177" r="2"/>
  </g>
  <g stroke="chocolate" stroke-width="1">
    <line x1="223" y1="174" x2="234" y2="165"/>
    <circle cx="223" cy="174" r="2"/>
    <circle cx="234" cy="165" r="2"/>
  </g>
  <g stroke="chocolate" stroke-width="1">
    <line x1="453" y1="611" x2="5" y2="389"/>
    <circle cx="453" cy="611" r="2"/>
    <circle cx="5" cy="389" r="2"/>
  </g>
  <g stroke="chocolate" stroke-width="1">
    <line x1="211" y1="177" x2="412" y2="76"/>
    <circle cx="211" cy="177" r="2"/>
    <circle cx="412" cy="76" r="2"/>
  </g>
  <g stroke="chocolate" stroke-width="1">
    <line x1="223" y1="174" x2="403" y2="86"/>
    <circle cx="223" cy="174" r="2"/>
    <circle cx="403" cy="86" r="2"/>
  </g>
  <g stroke="chocolate" stroke-width="1">
    <line x1="49" y1="299" x2="443" y2="226"/>
    <circle cx="49" cy="299" r="2"/>
    <circle cx="443" cy="226" r="2"/>
  </g>
  <g stroke="chocolate" stroke-width="1">
    <line x1="443" y1="226" x2="415" y2="76"/>
    <circle cx="443" cy="226" r="2"/>
    <circle cx="415" cy="76" r="2"/>
  </g>
  <g stroke="chocolate" stroke-width="1">
    <line x1="234" y1="165" x2="357" y2="126"/>
    <circle cx="234" cy="165" r="2"/>
    <circle cx="357" cy="126" r="2"/>
  </g>
  <g stroke="chocolate" stroke-width="1">
    <line x1="211" y1="177" x2="223" y2="174"/>
    <circle cx="211" cy="177" r="2"/>
    <circle cx="223" cy="174" r="2"/>
  </g>
  <g stroke="chocolate" stroke-width="1">
    <line x1="412" y1="76" x2="487" y2="69"/>
    <circle cx="412" cy="76" r="2"/>
    <circle cx="487" cy="69" r="2"/>
  </g>
  <g stroke="chocolate" stroke-width="1">
    <line x1="390" y1="87" x2="403" y2="86"/>
    <circle cx="390" cy="87" r="2"/>
    <circle cx="403" cy="86" r="2"/>
  </g>
  <g stroke="chocolate" stroke-width="1">
    <line x1="366" y1="105" x2="361" y2="102"/>
    <circle cx="366" cy="105" r="2"/>
    <circle cx="361" cy="102" r="2"/>
  </g>
  <g stroke="chocolate" stroke-width="1">
    <line x1="415" y1="123" x2="366" y2="99"/>
    <circle cx="415" cy="123" r="2"/>
    <circle cx="366" cy="99" r="2"/>
  </g>
  <g stroke="chocolate" stroke-width="1">
    <line x1="675" y1="163" x2="487" y2="69"/>
    <circle cx="675" cy="163" r="2"/>
    <circle cx="487" cy="69" r="2"/>
  </g>
  <g stroke="black" stroke-width="1">
    <line x1="90" y1="90" x2="590" y2="90"/>
    <line x1="90" y1="90" x2="90" y2="590"/>
    <line x1="590" y1="590" x2="90" y2="590"/>
    <line x1="590" y1="590" x2="590" y2="90"/>
    <line x1="190" y1="87" x2="190" y2="93"/>
    <line x1="87" y1="190" x2="93" y2="190"/>
    <line x1="190" y1="587" x2="190" y2="593"/>
    <line x1="587" y1="190" x2="593" y2="190"/>
    <line x1="290" y1="87" x2="290" y2="93"/>
    <line x1="87" y1="290" x2="93" y2="290"/>
    <line x1="290" y1="587" x2="290" y2="593"/>
    <line x1="587" y1="290" x2="593" y2="290"/>
    <line x1="390" y1="87" x2="390" y2="93"/>
    <line x1="87" y1="390" x2="93" y2="390"/>
    <line x1="390" y1="587" x2="390" y2="593"/>
    <line x1="587" y1="390" x2="593" y2="390"/>
    <line x1="490" y1="87" x2="490" y2="93"/>
    <line x1="87" y1="490" x2="93" y2="490"/>
    <line x1="490" y1="587" x2="490" y2="593"/>
    <line x1="587" y1="490" x2="593" y2="490"/>
  </g>
  <g stroke="gray" stroke-width="1" stroke-dasharray="5,5">
    <line x1="190" y1="90" x2="190" y2="590"/>
    <line x1="90" y1="190" x2="590" y2="190"/>
    <line x1="290" y1="90" x2="290" y2="590"/>
    <line x1="90" y1="290" x2="590" y2="290"/>
    <line x1="390" y1="90" x2="390" y2="590"/>
    <line x1="90" y1="390" x2="590" y2="390"/>
    <line x1="490" y1="90" x2="490" y2="590"/>
    <line x1="90" y1="490" x2="590" y2="490"/>
  </g>
</svg>
