<?xml version="1.0" standalone="no"?>
<!DOCTYPE svg PUBLIC "-//W3C//DTD SVG 1.1//EN" 
  "http://www.w3.org/Graphics/SVG/1.1/DTD/svg11.dtd">
<svg width="510" height="510" version="1.1" id="toplevel"
    xmlns="http://www.w3.org/2000/svg"
    xmlns:xlink="http://www.w3.org/1999/xlink">
  <polygon points="444,414 467,405 444,346 478,226 397,203 364,101 339,96 288,171"
           fill="bisque"/>
  <g stroke="chocolate" stroke-width="1">
    <line x1="444" y1="414" x2="460" y2="398"/>
    <circle cx="444" cy="414" r="2"/>
    <circle cx="460" cy="398" r="2"/>
  </g>
  <g stroke="chocolate" stroke-width="1">
    <line x1="444" y1="414" x2="467" y2="405"/>
    <circle cx="444" cy="414" r="2"/>
    <circle cx="467" cy="405" r="2"/>
  </g>
  <g stroke="chocolate" stroke-width="1">
    <line x1="431" y1="394" x2="478" y2="226"/>
    <circle cx="431" cy="394" r="2"/>
    <circle cx="478" cy="226" r="2"/>
  </g>
  <g stroke="chocolate" stroke-width="1">
    <line x1="332" y1="181" x2="367" y2="141"/>
    <circle cx="332" cy="181" r="2"/>
    <circle cx="367" cy="141" r="2"/>
  </g>
  <g stroke="chocolate" stroke-width="1">
    <line x1="306" y1="199" x2="374" y2="132"/>
    <circle cx="306" cy="199" r="2"/>
    <circle cx="374" cy="132" r="2"/>
  </g>
  <g stroke="chocolate" stroke-width="1">
    <line x1="295" y1="183" x2="364" y2="101"/>
    <circle cx="295" cy="183" r="2"/>
    <circle cx="364" cy="101" r="2"/>
  </g>
  <g stroke="chocolate" stroke-width="1">
    <line x1="288" y1="171" x2="339" y2="96"/>
    <circle cx="288" cy="171" r="2"/>
    <circle cx="339" cy="96" r="2"/>
  </g>
  <g stroke="chocolate" stroke-width="1">
    <line x1="338" y1="203" x2="359" y2="128"/>
    <circle cx="338" cy="203" r="2"/>
    <circle cx="359" cy="128" r="2"/>
  </g>
  <g stroke="chocolate" stroke-width="1">
    <line x1="295" y1="183" x2="298" y2="168"/>
    <circle cx="295" cy="183" r="2"/>
    <circle cx="298" cy="168" r="2"/>
  </g>
  <g stroke="chocolate" stroke-width="1">
    <line x1="302" y1="193" x2="310" y2="139"/>
    <circle cx="302" cy="193" r="2"/>
    <circle cx="310" cy="139" r="2"/>
  </g>
  <g stroke="chocolate" stroke-width="1">
    <line x1="289" y1="173" x2="290" y2="169"/>
    <circle cx="289" cy="173" r="2"/>
    <circle cx="290" cy="169" r="2"/>
  </g>
  <g stroke="chocolate" stroke-width="1">
    <line x1="295" y1="173" x2="359" y2="128"/>
    <circle cx="295" cy="173" r="2"/>
    <circle cx="359" cy="128" r="2"/>
  </g>
  <g stroke="chocolate" stroke-width="1">
    <line x1="427" y1="387" x2="428" y2="299"/>
    <circle cx="427" cy="387" r="2"/>
    <circle cx="428" cy="299" r="2"/>
  </g>
  <g stroke="chocolate" stroke-width="1">
    <line x1="290" y1="169" x2="359" y2="128"/>
    <circle cx="290" cy="169" r="2"/>
    <circle cx="359" cy="128" r="2"/>
  </g>
  <g stroke="chocolate" stroke-width="1">
    <line x1="460" y1="398" x2="431" y2="394"/>
    <circle cx="460" cy="398" r="2"/>
    <circle cx="431" cy="394" r="2"/>
  </g>
  <g stroke="chocolate" stroke-width="1">
    <line x1="310" y1="139" x2="334" y2="125"/>
    <circle cx="310" cy="139" r="2"/>
    <circle cx="334" cy="125" r="2"/>
  </g>
  <g stroke="chocolate" stroke-width="1">
    <line x1="306" y1="199" x2="376" y2="172"/>
    <circle cx="306" cy="199" r="2"/>
    <circle cx="376" cy="172" r="2"/>
  </g>
  <g stroke="chocolate" stroke-width="1">
    <line x1="341" y1="171" x2="334" y2="125"/>
    <circle cx="341" cy="171" r="2"/>
    <circle cx="334" cy="125" r="2"/>
  </g>
  <g stroke="chocolate" stroke-width="1">
    <line x1="332" y1="181" x2="316" y2="130"/>
    <circle cx="332" cy="181" r="2"/>
    <circle cx="316" cy="130" r="2"/>
  </g>
  <g stroke="chocolate" stroke-width="1">
    <line x1="467" y1="405" x2="427" y2="387"/>
    <circle cx="467" cy="405" r="2"/>
    <circle cx="427" cy="387" r="2"/>
  </g>
  <g stroke="chocolate" stroke-width="1">
    <line x1="460" y1="398" x2="364" y2="101"/>
    <circle cx="460" cy="398" r="2"/>
    <circle cx="364" cy="101" r="2"/>
  </g>
  <g stroke="chocolate" stroke-width="1">
    <line x1="295" y1="183" x2="289" y2="169"/>
    <circle cx="295" cy="183" r="2"/>
    <circle cx="289" cy="169" r="2"/>
  </g>
  <g stroke="chocolate" stroke-width="1">
    <line x1="467" y1="405" x2="359" y2="128"/>
    <circle cx="467" cy="405" r="2"/>
    <circle cx="359" cy="128" r="2"/>
  </g>
  <g stroke="chocolate" stroke-width="1">
    <line x1="295" y1="173" x2="291" y2="167"/>
    <circle cx="295" cy="173" r="2"/>
    <circle cx="291" cy="167" r="2"/>
  </g>
  <g stroke="chocolate" stroke-width="1">
    <line x1="444" y1="414" x2="288" y2="171"/>
    <circle cx="444" cy="414" r="2"/>
    <circle cx="288" cy="171" r="2"/>
  </g>
  <g stroke="chocolate" stroke-width="1">
    <line x1="341" y1="171" x2="289" y2="169"/>
    <circle cx="341" cy="171" r="2"/>
    <circle cx="289" cy="169" r="2"/>
  </g>
  <g stroke="chocolate" stroke-width="1">
    <line x1="332" y1="144" x2="320" y2="124"/>
    <circle cx="332" cy="144" r="2"/>
    <circle cx="320" cy="124" r="2"/>
  </g>
  <g stroke="chocolate" stroke-width="1">
    <line x1="316" y1="130" x2="359" y2="128"/>
    <circle cx="316" cy="130" r="2"/>
    <circle cx="359" cy="128" r="2"/>
  </g>
  <g stroke="chocolate" stroke-width="1">
    <line x1="338" y1="203" x2="302" y2="193"/>
    <circle cx="338" cy="203" r="2"/>
    <circle cx="302" cy="193" r="2"/>
  </g>
  <g stroke="chocolate" stroke-width="1">
    <line x1="428" y1="299" x2="310" y2="138"/>
    <circle cx="428" cy="299" r="2"/>
    <circle cx="310" cy="138" r="2"/>
  </g>
  <g stroke="chocolate" stroke-width="1">
    <line x1="332" y1="181" x2="288" y2="171"/>
    <circle cx="332" cy="181" r="2"/>
    <circle cx="288" cy="171" r="2"/>
  </g>
  <g stroke="chocolate" stroke-width="1">
    <line x1="298" y1="168" x2="291" y2="167"/>
    <circle cx="298" cy="168" r="2"/>
    <circle cx="291" cy="167" r="2"/>
  </g>
  <g stroke="chocolate" stroke-width="1">
    <line x1="367" y1="141" x2="339" y2="96"/>
    <circle cx="367" cy="141" r="2"/>
    <circle cx="339" cy="96" r="2"/>
  </g>
  <g stroke="chocolate" stroke-width="1">
    <line x1="478" y1="226" x2="289" y2="173"/>
    <circle cx="478" cy="226" r="2"/>
    <circle cx="289" cy="173" r="2"/>
  </g>
  <g stroke="chocolate" stroke-width="1">
    <line x1="374" y1="132" x2="320" y2="124"/>
    <circle cx="374" cy="132" r="2"/>
    <circle cx="320" cy="124" r="2"/>
  </g>
  <g stroke="chocolate" stroke-width="1">
    <line x1="332" y1="144" x2="310" y2="138"/>
    <circle cx="332" cy="144" r="2"/>
    <circle cx="310" cy="138" r="2"/>
  </g>
  <g stroke="chocolate" stroke-width="1">
    <line x1="364" y1="101" x2="339" y2="96"/>
    <circle cx="364" cy="101" r="2"/>
    <circle cx="339" cy="96" r="2"/>
  </g>
  <g stroke="chocolate" stroke-width="1">
    <line x1="367" y1="141" x2="334" y2="125"/>
    <circle cx="367" cy="141" r="2"/>
    <circle cx="334" cy="125" r="2"/>
  </g>
  <g stroke="black" stroke-width="1">
    <line x1="5" y1="5" x2="505" y2="5"/>
    <line x1="5" y1="5" x2="5" y2="505"/>
    <line x1="505" y1="505" x2="5" y2="505"/>
    <line x1="505" y1="505" x2="505" y2="5"/>
    <line x1="105" y1="2" x2="105" y2="8"/>
    <line x1="2" y1="105" x2="8" y2="105"/>
    <line x1="105" y1="502" x2="105" y2="508"/>
    <line x1="502" y1="105" x2="508" y2="105"/>
    <line x1="205" y1="2" x2="205" y2="8"/>
    <line x1="2" y1="205" x2="8" y2="205"/>
    <line x1="205" y1="502" x2="205" y2="508"/>
    <line x1="502" y1="205" x2="508" y2="205"/>
    <line x1="305" y1="2" x2="305" y2="8"/>
    <line x1="2" y1="305" x2="8" y2="305"/>
    <line x1="305" y1="502" x2="305" y2="508"/>
    <line x1="502" y1="305" x2="508" y2="305"/>
    <line x1="405" y1="2" x2="405" y2="8"/>
    <line x1="2" y1="405" x2="8" y2="405"/>
    <line x1="405" y1="502" x2="405" y2="508"/>
    <line x1="502" y1="405" x2="508" y2="405"/>
  </g>
  <g stroke="gray" stroke-width="1" stroke-dasharray="5,5">
    <line x1="105" y1="5" x2="105" y2="505"/>
    <line x1="5" y1="105" x2="505" y2="105"/>
    <line x1="205" y1="5" x2="205" y2="505"/>
    <line x1="5" y1="205" x2="505" y2="205"/>
    <line x1="305" y1="5" x2="305" y2="505"/>
    <line x1="5" y1="305" x2="505" y2="305"/>
    <line x1="405" y1="5" x2="405" y2="505"/>
    <line x1="5" y1="405" x2="505" y2="405"/>
  </g>
</svg>
