<?xml version="1.0" standalone="no"?>
<!DOCTYPE svg PUBLIC "-//W3C//DTD SVG 1.1//EN" 
  "http://www.w3.org/Graphics/SVG/1.1/DTD/svg11.dtd">
<svg width="510" height="510" version="1.1" id="toplevel"
    xmlns="http://www.w3.org/2000/svg"
    xmlns:xlink="http://www.w3.org/1999/xlink">
  <polygon points="130,407 505,40 505,5 355,5 204,155 155,155 155,204 130,230 130,282 35,280 32,405"
           fill="bisque"/>
  <g stroke="chocolate" stroke-width="1">
    <line x1="130" y1="407" x2="505" y2="40"/>
    <circle cx="130" cy="407" r="2"/>
    <circle cx="505" cy="40" r="2"/>
  </g>
  <g stroke="chocolate" stroke-width="1">
    <line x1="387" y1="155" x2="390" y2="38"/>
    <circle cx="387" cy="155" r="2"/>
    <circle cx="390" cy="38" r="2"/>
  </g>
  <g stroke="chocolate" stroke-width="1">
    <line x1="235" y1="234" x2="236" y2="185"/>
    <circle cx="235" cy="234" r="2"/>
    <circle cx="236" cy="185" r="2"/>
  </g>
  <g stroke="chocolate" stroke-width="1">
    <line x1="184" y1="355" x2="186" y2="233"/>
    <circle cx="184" cy="355" r="2"/>
    <circle cx="186" cy="233" r="2"/>
  </g>
  <g stroke="chocolate" stroke-width="1">
    <line x1="32" y1="405" x2="35" y2="280"/>
    <circle cx="32" cy="405" r="2"/>
    <circle cx="35" cy="280" r="2"/>
  </g>
  <g stroke="chocolate" stroke-width="1">
    <line x1="130" y1="407" x2="130" y2="230"/>
    <circle cx="130" cy="407" r="2"/>
    <circle cx="130" cy="230" r="2"/>
  </g>
  <g stroke="chocolate" stroke-width="1">
    <line x1="155" y1="382" x2="155" y2="155"/>
    <circle cx="155" cy="382" r="2"/>
    <circle cx="155" cy="155" r="2"/>
  </g>
  <g stroke="chocolate" stroke-width="1">
    <line x1="355" y1="187" x2="355" y2="5"/>
    <circle cx="355" cy="187" r="2"/>
    <circle cx="355" cy="5" r="2"/>
  </g>
  <g stroke="chocolate" stroke-width="1">
    <line x1="505" y1="40" x2="505" y2="5"/>
    <circle cx="505" cy="40" r="2"/>
    <circle cx="505" cy="5" r="2"/>
  </g>
  <g stroke="chocolate" stroke-width="1">
    <line x1="33" y1="380" x2="390" y2="38"/>
    <circle cx="33" cy="380" r="2"/>
    <circle cx="390" cy="38" r="2"/>
  </g>
  <g stroke="chocolate" stroke-width="1">
    <line x1="130" y1="230" x2="355" y2="5"/>
    <circle cx="130" cy="230" r="2"/>
    <circle cx="355" cy="5" r="2"/>
  </g>
  <g stroke="chocolate" stroke-width="1">
    <line x1="130" y1="407" x2="32" y2="405"/>
    <circle cx="130" cy="407" r="2"/>
    <circle cx="32" cy="405" r="2"/>
  </g>
  <g stroke="chocolate" stroke-width="1">
    <line x1="155" y1="382" x2="33" y2="380"/>
    <circle cx="155" cy="382" r="2"/>
    <circle cx="33" cy="380" r="2"/>
  </g>
  <g stroke="chocolate" stroke-width="1">
    <line x1="130" y1="355" x2="184" y2="355"/>
    <circle cx="130" cy="355" r="2"/>
    <circle cx="184" cy="355" r="2"/>
  </g>
  <g stroke="chocolate" stroke-width="1">
    <line x1="220" y1="319" x2="185" y2="283"/>
    <circle cx="220" cy="319" r="2"/>
    <circle cx="185" cy="283" r="2"/>
  </g>
  <g stroke="chocolate" stroke-width="1">
    <line x1="220" y1="319" x2="130" y2="230"/>
    <circle cx="220" cy="319" r="2"/>
    <circle cx="130" cy="230" r="2"/>
  </g>
  <g stroke="chocolate" stroke-width="1">
    <line x1="185" y1="283" x2="35" y2="280"/>
    <circle cx="185" cy="283" r="2"/>
    <circle cx="35" cy="280" r="2"/>
  </g>
  <g stroke="chocolate" stroke-width="1">
    <line x1="235" y1="234" x2="186" y2="233"/>
    <circle cx="235" cy="234" r="2"/>
    <circle cx="186" cy="233" r="2"/>
  </g>
  <g stroke="chocolate" stroke-width="1">
    <line x1="355" y1="187" x2="236" y2="185"/>
    <circle cx="355" cy="187" r="2"/>
    <circle cx="236" cy="185" r="2"/>
  </g>
  <g stroke="chocolate" stroke-width="1">
    <line x1="155" y1="155" x2="387" y2="155"/>
    <circle cx="155" cy="155" r="2"/>
    <circle cx="387" cy="155" r="2"/>
  </g>
  <g stroke="chocolate" stroke-width="1">
    <line x1="505" y1="40" x2="390" y2="38"/>
    <circle cx="505" cy="40" r="2"/>
    <circle cx="390" cy="38" r="2"/>
  </g>
  <g stroke="chocolate" stroke-width="1">
    <line x1="355" y1="5" x2="505" y2="5"/>
    <circle cx="355" cy="5" r="2"/>
    <circle cx="505" cy="5" r="2"/>
  </g>
  <g stroke="black" stroke-width="1">
    <line x1="5" y1="5" x2="505" y2="5"/>
    <line x1="5" y1="5" x2="5" y2="505"/>
    <line x1="505" y1="505" x2="5" y2="505"/>
    <line x1="505" y1="505" x2="505" y2="5"/>
    <line x1="105" y1="2" x2="105" y2="8"/>
    <line x1="2" y1="105" x2="8" y2="105"/>
    <line x1="105" y1="502" x2="105" y2="508"/>
    <line x1="502" y1="105" x2="508" y2="105"/>
    <line x1="205" y1="2" x2="205" y2="8"/>
    <line x1="2" y1="205" x2="8" y2="205"/>
    <line x1="205" y1="502" x2="205" y2="508"/>
    <line x1="502" y1="205" x2="508" y2="205"/>
    <line x1="305" y1="2" x2="305" y2="8"/>
    <line x1="2" y1="305" x2="8" y2="305"/>
    <line x1="305" y1="502" x2="305" y2="508"/>
    <line x1="502" y1="305" x2="508" y2="305"/>
    <line x1="405" y1="2" x2="405" y2="8"/>
    <line x1="2" y1="405" x2="8" y2="405"/>
    <line x1="405" y1="502" x2="405" y2="508"/>
    <line x1="502" y1="405" x2="508" y2="405"/>
  </g>
  <g stroke="gray" stroke-width="1" stroke-dasharray="5,5">
    <line x1="105" y1="5" x2="105" y2="505"/>
    <line x1="5" y1="105" x2="505" y2="105"/>
    <line x1="205" y1="5" x2="205" y2="505"/>
    <line x1="5" y1="205" x2="505" y2="205"/>
    <line x1="305" y1="5" x2="305" y2="505"/>
    <line x1="5" y1="305" x2="505" y2="305"/>
    <line x1="405" y1="5" x2="405" y2="505"/>
    <line x1="5" y1="405" x2="505" y2="405"/>
  </g>
</svg>
