<?xml version="1.0" standalone="no"?>
<!DOCTYPE svg PUBLIC "-//W3C//DTD SVG 1.1//EN" 
  "http://www.w3.org/Graphics/SVG/1.1/DTD/svg11.dtd">
<svg width="510" height="510" version="1.1" id="toplevel"
    xmlns="http://www.w3.org/2000/svg"
    xmlns:xlink="http://www.w3.org/1999/xlink">
  <polygon points="9,481 16,478 56,478 91,443 237,375 216,329 395,246 307,55 307,29 295,29 8,478"
           fill="bisque"/>
  <g stroke="chocolate" stroke-width="1">
    <line x1="56" y1="478" x2="307" y2="227"/>
    <circle cx="56" cy="478" r="2"/>
    <circle cx="307" cy="227" r="2"/>
  </g>
  <g stroke="chocolate" stroke-width="1">
    <line x1="9" y1="481" x2="237" y2="375"/>
    <circle cx="9" cy="481" r="2"/>
    <circle cx="237" cy="375" r="2"/>
  </g>
  <g stroke="chocolate" stroke-width="1">
    <line x1="8" y1="478" x2="295" y2="29"/>
    <circle cx="8" cy="478" r="2"/>
    <circle cx="295" cy="29" r="2"/>
  </g>
  <g stroke="chocolate" stroke-width="1">
    <line x1="8" y1="478" x2="56" y2="478"/>
    <circle cx="8" cy="478" r="2"/>
    <circle cx="56" cy="478" r="2"/>
  </g>
  <g stroke="chocolate" stroke-width="1">
    <line x1="56" y1="478" x2="56" y2="404"/>
    <circle cx="56" cy="478" r="2"/>
    <circle cx="56" cy="404" r="2"/>
  </g>
  <g stroke="chocolate" stroke-width="1">
    <line x1="58" y1="476" x2="58" y2="400"/>
    <circle cx="58" cy="476" r="2"/>
    <circle cx="58" cy="400" r="2"/>
  </g>
  <g stroke="chocolate" stroke-width="1">
    <line x1="307" y1="227" x2="307" y2="29"/>
    <circle cx="307" cy="227" r="2"/>
    <circle cx="307" cy="29" r="2"/>
  </g>
  <g stroke="chocolate" stroke-width="1">
    <line x1="9" y1="481" x2="8" y2="478"/>
    <circle cx="9" cy="481" r="2"/>
    <circle cx="8" cy="478" r="2"/>
  </g>
  <g stroke="chocolate" stroke-width="1">
    <line x1="9" y1="476" x2="58" y2="476"/>
    <circle cx="9" cy="476" r="2"/>
    <circle cx="58" cy="476" r="2"/>
  </g>
  <g stroke="chocolate" stroke-width="1">
    <line x1="11" y1="480" x2="9" y2="476"/>
    <circle cx="11" cy="480" r="2"/>
    <circle cx="9" cy="476" r="2"/>
  </g>
  <g stroke="chocolate" stroke-width="1">
    <line x1="56" y1="404" x2="395" y2="246"/>
    <circle cx="56" cy="404" r="2"/>
    <circle cx="395" cy="246" r="2"/>
  </g>
  <g stroke="chocolate" stroke-width="1">
    <line x1="58" y1="400" x2="395" y2="244"/>
    <circle cx="58" cy="400" r="2"/>
    <circle cx="395" cy="244" r="2"/>
  </g>
  <g stroke="chocolate" stroke-width="1">
    <line x1="237" y1="375" x2="168" y2="227"/>
    <circle cx="237" cy="375" r="2"/>
    <circle cx="168" cy="227" r="2"/>
  </g>
  <g stroke="chocolate" stroke-width="1">
    <line x1="395" y1="246" x2="295" y2="29"/>
    <circle cx="395" cy="246" r="2"/>
    <circle cx="295" cy="29" r="2"/>
  </g>
  <g stroke="chocolate" stroke-width="1">
    <line x1="168" y1="227" x2="307" y2="227"/>
    <circle cx="168" cy="227" r="2"/>
    <circle cx="307" cy="227" r="2"/>
  </g>
  <g stroke="chocolate" stroke-width="1">
    <line x1="295" y1="29" x2="307" y2="29"/>
    <circle cx="295" cy="29" r="2"/>
    <circle cx="307" cy="29" r="2"/>
  </g>
  <g stroke="black" stroke-width="1">
    <line x1="5" y1="5" x2="505" y2="5"/>
    <line x1="5" y1="5" x2="5" y2="505"/>
    <line x1="505" y1="505" x2="5" y2="505"/>
    <line x1="505" y1="505" x2="505" y2="5"/>
    <line x1="105" y1="2" x2="105" y2="8"/>
    <line x1="2" y1="105" x2="8" y2="105"/>
    <line x1="105" y1="502" x2="105" y2="508"/>
    <line x1="502" y1="105" x2="508" y2="105"/>
    <line x1="205" y1="2" x2="205" y2="8"/>
    <line x1="2" y1="205" x2="8" y2="205"/>
    <line x1="205" y1="502" x2="205" y2="508"/>
    <line x1="502" y1="205" x2="508" y2="205"/>
    <line x1="305" y1="2" x2="305" y2="8"/>
    <line x1="2" y1="305" x2="8" y2="305"/>
    <line x1="305" y1="502" x2="305" y2="508"/>
    <line x1="502" y1="305" x2="508" y2="305"/>
    <line x1="405" y1="2" x2="405" y2="8"/>
    <line x1="2" y1="405" x2="8" y2="405"/>
    <line x1="405" y1="502" x2="405" y2="508"/>
    <line x1="502" y1="405" x2="508" y2="405"/>
  </g>
  <g stroke="gray" stroke-width="1" stroke-dasharray="5,5">
    <line x1="105" y1="5" x2="105" y2="505"/>
    <line x1="5" y1="105" x2="505" y2="105"/>
    <line x1="205" y1="5" x2="205" y2="505"/>
    <line x1="5" y1="205" x2="505" y2="205"/>
    <line x1="305" y1="5" x2="305" y2="505"/>
    <line x1="5" y1="305" x2="505" y2="305"/>
    <line x1="405" y1="5" x2="405" y2="505"/>
    <line x1="5" y1="405" x2="505" y2="405"/>
  </g>
</svg>
