<?xml version="1.0" standalone="no"?>
<!DOCTYPE svg PUBLIC "-//W3C//DTD SVG 1.1//EN" 
  "http://www.w3.org/Graphics/SVG/1.1/DTD/svg11.dtd">
<svg width="510" height="510" version="1.1" id="toplevel"
    xmlns="http://www.w3.org/2000/svg"
    xmlns:xlink="http://www.w3.org/1999/xlink">
  <polygon points="291,439 393,333 418,327 448,276 176,71 157,71 154,188 62,239 149,394 196,382 191,402 202,405 199,415"
           fill="bisque"/>
  <g stroke="chocolate" stroke-width="1">
    <line x1="418" y1="327" x2="448" y2="276"/>
    <circle cx="418" cy="327" r="2"/>
    <circle cx="448" cy="276" r="2"/>
  </g>
  <g stroke="chocolate" stroke-width="1">
    <line x1="149" y1="394" x2="157" y2="71"/>
    <circle cx="149" cy="394" r="2"/>
    <circle cx="157" cy="71" r="2"/>
  </g>
  <g stroke="chocolate" stroke-width="1">
    <line x1="199" y1="415" x2="247" y2="236"/>
    <circle cx="199" cy="415" r="2"/>
    <circle cx="247" cy="236" r="2"/>
  </g>
  <g stroke="chocolate" stroke-width="1">
    <line x1="191" y1="402" x2="256" y2="131"/>
    <circle cx="191" cy="402" r="2"/>
    <circle cx="256" cy="131" r="2"/>
  </g>
  <g stroke="chocolate" stroke-width="1">
    <line x1="291" y1="439" x2="448" y2="276"/>
    <circle cx="291" cy="439" r="2"/>
    <circle cx="448" cy="276" r="2"/>
  </g>
  <g stroke="chocolate" stroke-width="1">
    <line x1="149" y1="394" x2="62" y2="239"/>
    <circle cx="149" cy="394" r="2"/>
    <circle cx="62" cy="239" r="2"/>
  </g>
  <g stroke="chocolate" stroke-width="1">
    <line x1="302" y1="429" x2="247" y2="236"/>
    <circle cx="302" cy="429" r="2"/>
    <circle cx="247" cy="236" r="2"/>
  </g>
  <g stroke="chocolate" stroke-width="1">
    <line x1="291" y1="439" x2="176" y2="71"/>
    <circle cx="291" cy="439" r="2"/>
    <circle cx="176" cy="71" r="2"/>
  </g>
  <g stroke="chocolate" stroke-width="1">
    <line x1="418" y1="327" x2="392" y2="234"/>
    <circle cx="418" cy="327" r="2"/>
    <circle cx="392" cy="234" r="2"/>
  </g>
  <g stroke="chocolate" stroke-width="1">
    <line x1="291" y1="439" x2="199" y2="415"/>
    <circle cx="291" cy="439" r="2"/>
    <circle cx="199" cy="415" r="2"/>
  </g>
  <g stroke="chocolate" stroke-width="1">
    <line x1="302" y1="429" x2="191" y2="402"/>
    <circle cx="302" cy="429" r="2"/>
    <circle cx="191" cy="402" r="2"/>
  </g>
  <g stroke="chocolate" stroke-width="1">
    <line x1="149" y1="394" x2="418" y2="327"/>
    <circle cx="149" cy="394" r="2"/>
    <circle cx="418" cy="327" r="2"/>
  </g>
  <g stroke="chocolate" stroke-width="1">
    <line x1="62" y1="239" x2="256" y2="131"/>
    <circle cx="62" cy="239" r="2"/>
    <circle cx="256" cy="131" r="2"/>
  </g>
  <g stroke="chocolate" stroke-width="1">
    <line x1="448" y1="276" x2="176" y2="71"/>
    <circle cx="448" cy="276" r="2"/>
    <circle cx="176" cy="71" r="2"/>
  </g>
  <g stroke="chocolate" stroke-width="1">
    <line x1="247" y1="236" x2="392" y2="234"/>
    <circle cx="247" cy="236" r="2"/>
    <circle cx="392" cy="234" r="2"/>
  </g>
  <g stroke="chocolate" stroke-width="1">
    <line x1="176" y1="71" x2="157" y2="71"/>
    <circle cx="176" cy="71" r="2"/>
    <circle cx="157" cy="71" r="2"/>
  </g>
  <g stroke="black" stroke-width="1">
    <line x1="5" y1="5" x2="505" y2="5"/>
    <line x1="5" y1="5" x2="5" y2="505"/>
    <line x1="505" y1="505" x2="5" y2="505"/>
    <line x1="505" y1="505" x2="505" y2="5"/>
    <line x1="105" y1="2" x2="105" y2="8"/>
    <line x1="2" y1="105" x2="8" y2="105"/>
    <line x1="105" y1="502" x2="105" y2="508"/>
    <line x1="502" y1="105" x2="508" y2="105"/>
    <line x1="205" y1="2" x2="205" y2="8"/>
    <line x1="2" y1="205" x2="8" y2="205"/>
    <line x1="205" y1="502" x2="205" y2="508"/>
    <line x1="502" y1="205" x2="508" y2="205"/>
    <line x1="305" y1="2" x2="305" y2="8"/>
    <line x1="2" y1="305" x2="8" y2="305"/>
    <line x1="305" y1="502" x2="305" y2="508"/>
    <line x1="502" y1="305" x2="508" y2="305"/>
    <line x1="405" y1="2" x2="405" y2="8"/>
    <line x1="2" y1="405" x2="8" y2="405"/>
    <line x1="405" y1="502" x2="405" y2="508"/>
    <line x1="502" y1="405" x2="508" y2="405"/>
  </g>
  <g stroke="gray" stroke-width="1" stroke-dasharray="5,5">
    <line x1="105" y1="5" x2="105" y2="505"/>
    <line x1="5" y1="105" x2="505" y2="105"/>
    <line x1="205" y1="5" x2="205" y2="505"/>
    <line x1="5" y1="205" x2="505" y2="205"/>
    <line x1="305" y1="5" x2="305" y2="505"/>
    <line x1="5" y1="305" x2="505" y2="305"/>
    <line x1="405" y1="5" x2="405" y2="505"/>
    <line x1="5" y1="405" x2="505" y2="405"/>
  </g>
</svg>
