<?xml version="1.0" standalone="no"?>
<!DOCTYPE svg PUBLIC "-//W3C//DTD SVG 1.1//EN" 
  "http://www.w3.org/Graphics/SVG/1.1/DTD/svg11.dtd">
<svg width="510" height="510" version="1.1" id="toplevel"
    xmlns="http://www.w3.org/2000/svg"
    xmlns:xlink="http://www.w3.org/1999/xlink">
  <polygon points="292,433 363,433 363,326 433,218 433,147 326,147 218,77 147,77 147,184 77,292 77,363 184,363"
           fill="bisque"/>
  <g stroke="chocolate" stroke-width="1">
    <line x1="292" y1="433" x2="363" y2="433"/>
    <circle cx="292" cy="433" r="2"/>
    <circle cx="363" cy="433" r="2"/>
  </g>
  <g stroke="chocolate" stroke-width="1">
    <line x1="292" y1="433" x2="77" y2="292"/>
    <circle cx="292" cy="433" r="2"/>
    <circle cx="77" cy="292" r="2"/>
  </g>
  <g stroke="chocolate" stroke-width="1">
    <line x1="77" y1="363" x2="220" y2="362"/>
    <circle cx="77" cy="363" r="2"/>
    <circle cx="220" cy="362" r="2"/>
  </g>
  <g stroke="chocolate" stroke-width="1">
    <line x1="220" y1="362" x2="362" y2="290"/>
    <circle cx="220" cy="362" r="2"/>
    <circle cx="362" cy="290" r="2"/>
  </g>
  <g stroke="chocolate" stroke-width="1">
    <line x1="292" y1="433" x2="433" y2="218"/>
    <circle cx="292" cy="433" r="2"/>
    <circle cx="433" cy="218" r="2"/>
  </g>
  <g stroke="chocolate" stroke-width="1">
    <line x1="220" y1="362" x2="148" y2="220"/>
    <circle cx="220" cy="362" r="2"/>
    <circle cx="148" cy="220" r="2"/>
  </g>
  <g stroke="chocolate" stroke-width="1">
    <line x1="77" y1="292" x2="362" y2="290"/>
    <circle cx="77" cy="292" r="2"/>
    <circle cx="362" cy="290" r="2"/>
  </g>
  <g stroke="chocolate" stroke-width="1">
    <line x1="236" y1="302" x2="433" y2="218"/>
    <circle cx="236" cy="302" r="2"/>
    <circle cx="433" cy="218" r="2"/>
  </g>
  <g stroke="chocolate" stroke-width="1">
    <line x1="292" y1="433" x2="208" y2="236"/>
    <circle cx="292" cy="433" r="2"/>
    <circle cx="208" cy="236" r="2"/>
  </g>
  <g stroke="chocolate" stroke-width="1">
    <line x1="77" y1="363" x2="77" y2="292"/>
    <circle cx="77" cy="363" r="2"/>
    <circle cx="77" cy="292" r="2"/>
  </g>
  <g stroke="chocolate" stroke-width="1">
    <line x1="148" y1="220" x2="147" y2="77"/>
    <circle cx="148" cy="220" r="2"/>
    <circle cx="147" cy="77" r="2"/>
  </g>
  <g stroke="chocolate" stroke-width="1">
    <line x1="220" y1="362" x2="218" y2="77"/>
    <circle cx="220" cy="362" r="2"/>
    <circle cx="218" cy="77" r="2"/>
  </g>
  <g stroke="chocolate" stroke-width="1">
    <line x1="292" y1="433" x2="290" y2="148"/>
    <circle cx="292" cy="433" r="2"/>
    <circle cx="290" cy="148" r="2"/>
  </g>
  <g stroke="chocolate" stroke-width="1">
    <line x1="363" y1="433" x2="362" y2="290"/>
    <circle cx="363" cy="433" r="2"/>
    <circle cx="362" cy="290" r="2"/>
  </g>
  <g stroke="chocolate" stroke-width="1">
    <line x1="433" y1="218" x2="433" y2="147"/>
    <circle cx="433" cy="218" r="2"/>
    <circle cx="433" cy="147" r="2"/>
  </g>
  <g stroke="chocolate" stroke-width="1">
    <line x1="302" y1="274" x2="218" y2="77"/>
    <circle cx="302" cy="274" r="2"/>
    <circle cx="218" cy="77" r="2"/>
  </g>
  <g stroke="chocolate" stroke-width="1">
    <line x1="77" y1="292" x2="274" y2="208"/>
    <circle cx="77" cy="292" r="2"/>
    <circle cx="274" cy="208" r="2"/>
  </g>
  <g stroke="chocolate" stroke-width="1">
    <line x1="148" y1="220" x2="433" y2="218"/>
    <circle cx="148" cy="220" r="2"/>
    <circle cx="433" cy="218" r="2"/>
  </g>
  <g stroke="chocolate" stroke-width="1">
    <line x1="362" y1="290" x2="290" y2="148"/>
    <circle cx="362" cy="290" r="2"/>
    <circle cx="290" cy="148" r="2"/>
  </g>
  <g stroke="chocolate" stroke-width="1">
    <line x1="77" y1="292" x2="218" y2="77"/>
    <circle cx="77" cy="292" r="2"/>
    <circle cx="218" cy="77" r="2"/>
  </g>
  <g stroke="chocolate" stroke-width="1">
    <line x1="148" y1="220" x2="290" y2="148"/>
    <circle cx="148" cy="220" r="2"/>
    <circle cx="290" cy="148" r="2"/>
  </g>
  <g stroke="chocolate" stroke-width="1">
    <line x1="290" y1="148" x2="433" y2="147"/>
    <circle cx="290" cy="148" r="2"/>
    <circle cx="433" cy="147" r="2"/>
  </g>
  <g stroke="chocolate" stroke-width="1">
    <line x1="433" y1="218" x2="218" y2="77"/>
    <circle cx="433" cy="218" r="2"/>
    <circle cx="218" cy="77" r="2"/>
  </g>
  <g stroke="chocolate" stroke-width="1">
    <line x1="147" y1="77" x2="218" y2="77"/>
    <circle cx="147" cy="77" r="2"/>
    <circle cx="218" cy="77" r="2"/>
  </g>
  <g stroke="black" stroke-width="1">
    <line x1="5" y1="5" x2="505" y2="5"/>
    <line x1="5" y1="5" x2="5" y2="505"/>
    <line x1="505" y1="505" x2="5" y2="505"/>
    <line x1="505" y1="505" x2="505" y2="5"/>
    <line x1="105" y1="2" x2="105" y2="8"/>
    <line x1="2" y1="105" x2="8" y2="105"/>
    <line x1="105" y1="502" x2="105" y2="508"/>
    <line x1="502" y1="105" x2="508" y2="105"/>
    <line x1="205" y1="2" x2="205" y2="8"/>
    <line x1="2" y1="205" x2="8" y2="205"/>
    <line x1="205" y1="502" x2="205" y2="508"/>
    <line x1="502" y1="205" x2="508" y2="205"/>
    <line x1="305" y1="2" x2="305" y2="8"/>
    <line x1="2" y1="305" x2="8" y2="305"/>
    <line x1="305" y1="502" x2="305" y2="508"/>
    <line x1="502" y1="305" x2="508" y2="305"/>
    <line x1="405" y1="2" x2="405" y2="8"/>
    <line x1="2" y1="405" x2="8" y2="405"/>
    <line x1="405" y1="502" x2="405" y2="508"/>
    <line x1="502" y1="405" x2="508" y2="405"/>
  </g>
  <g stroke="gray" stroke-width="1" stroke-dasharray="5,5">
    <line x1="105" y1="5" x2="105" y2="505"/>
    <line x1="5" y1="105" x2="505" y2="105"/>
    <line x1="205" y1="5" x2="205" y2="505"/>
    <line x1="5" y1="205" x2="505" y2="205"/>
    <line x1="305" y1="5" x2="305" y2="505"/>
    <line x1="5" y1="305" x2="505" y2="305"/>
    <line x1="405" y1="5" x2="405" y2="505"/>
    <line x1="5" y1="405" x2="505" y2="405"/>
  </g>
</svg>
