<?xml version="1.0" standalone="no"?>
<!DOCTYPE svg PUBLIC "-//W3C//DTD SVG 1.1//EN" 
  "http://www.w3.org/Graphics/SVG/1.1/DTD/svg11.dtd">
<svg width="510" height="510" version="1.1" id="toplevel"
    xmlns="http://www.w3.org/2000/svg"
    xmlns:xlink="http://www.w3.org/1999/xlink">
  <polygon points="315,441 369,368 369,292 441,195 368,141 292,141 195,69 141,142 141,218 69,315 142,369 218,369"
           fill="bisque"/>
  <g stroke="chocolate" stroke-width="1">
    <line x1="142" y1="369" x2="69" y2="315"/>
    <circle cx="142" cy="369" r="2"/>
    <circle cx="69" cy="315" r="2"/>
  </g>
  <g stroke="chocolate" stroke-width="1">
    <line x1="142" y1="369" x2="369" y2="368"/>
    <circle cx="142" cy="369" r="2"/>
    <circle cx="369" cy="368" r="2"/>
  </g>
  <g stroke="chocolate" stroke-width="1">
    <line x1="315" y1="441" x2="369" y2="368"/>
    <circle cx="315" cy="441" r="2"/>
    <circle cx="369" cy="368" r="2"/>
  </g>
  <g stroke="chocolate" stroke-width="1">
    <line x1="315" y1="441" x2="206" y2="360"/>
    <circle cx="315" cy="441" r="2"/>
    <circle cx="206" cy="360" r="2"/>
  </g>
  <g stroke="chocolate" stroke-width="1">
    <line x1="206" y1="360" x2="360" y2="304"/>
    <circle cx="206" cy="360" r="2"/>
    <circle cx="360" cy="304" r="2"/>
  </g>
  <g stroke="chocolate" stroke-width="1">
    <line x1="360" y1="304" x2="441" y2="195"/>
    <circle cx="360" cy="304" r="2"/>
    <circle cx="441" cy="195" r="2"/>
  </g>
  <g stroke="chocolate" stroke-width="1">
    <line x1="206" y1="360" x2="150" y2="206"/>
    <circle cx="206" cy="360" r="2"/>
    <circle cx="150" cy="206" r="2"/>
  </g>
  <g stroke="chocolate" stroke-width="1">
    <line x1="369" y1="368" x2="150" y2="206"/>
    <circle cx="369" cy="368" r="2"/>
    <circle cx="150" cy="206" r="2"/>
  </g>
  <g stroke="chocolate" stroke-width="1">
    <line x1="142" y1="369" x2="287" y2="259"/>
    <circle cx="142" cy="369" r="2"/>
    <circle cx="287" cy="259" r="2"/>
  </g>
  <g stroke="chocolate" stroke-width="1">
    <line x1="251" y1="287" x2="141" y2="142"/>
    <circle cx="251" cy="287" r="2"/>
    <circle cx="141" cy="142" r="2"/>
  </g>
  <g stroke="chocolate" stroke-width="1">
    <line x1="206" y1="360" x2="368" y2="141"/>
    <circle cx="206" cy="360" r="2"/>
    <circle cx="368" cy="141" r="2"/>
  </g>
  <g stroke="chocolate" stroke-width="1">
    <line x1="142" y1="369" x2="141" y2="142"/>
    <circle cx="142" cy="369" r="2"/>
    <circle cx="141" cy="142" r="2"/>
  </g>
  <g stroke="chocolate" stroke-width="1">
    <line x1="369" y1="368" x2="368" y2="141"/>
    <circle cx="369" cy="368" r="2"/>
    <circle cx="368" cy="141" r="2"/>
  </g>
  <g stroke="chocolate" stroke-width="1">
    <line x1="142" y1="369" x2="304" y2="150"/>
    <circle cx="142" cy="369" r="2"/>
    <circle cx="304" cy="150" r="2"/>
  </g>
  <g stroke="chocolate" stroke-width="1">
    <line x1="369" y1="368" x2="259" y2="223"/>
    <circle cx="369" cy="368" r="2"/>
    <circle cx="259" cy="223" r="2"/>
  </g>
  <g stroke="chocolate" stroke-width="1">
    <line x1="223" y1="251" x2="368" y2="141"/>
    <circle cx="223" cy="251" r="2"/>
    <circle cx="368" cy="141" r="2"/>
  </g>
  <g stroke="chocolate" stroke-width="1">
    <line x1="360" y1="304" x2="141" y2="142"/>
    <circle cx="360" cy="304" r="2"/>
    <circle cx="141" cy="142" r="2"/>
  </g>
  <g stroke="chocolate" stroke-width="1">
    <line x1="360" y1="304" x2="304" y2="150"/>
    <circle cx="360" cy="304" r="2"/>
    <circle cx="304" cy="150" r="2"/>
  </g>
  <g stroke="chocolate" stroke-width="1">
    <line x1="69" y1="315" x2="150" y2="206"/>
    <circle cx="69" cy="315" r="2"/>
    <circle cx="150" cy="206" r="2"/>
  </g>
  <g stroke="chocolate" stroke-width="1">
    <line x1="150" y1="206" x2="304" y2="150"/>
    <circle cx="150" cy="206" r="2"/>
    <circle cx="304" cy="150" r="2"/>
  </g>
  <g stroke="chocolate" stroke-width="1">
    <line x1="304" y1="150" x2="195" y2="69"/>
    <circle cx="304" cy="150" r="2"/>
    <circle cx="195" cy="69" r="2"/>
  </g>
  <g stroke="chocolate" stroke-width="1">
    <line x1="141" y1="142" x2="195" y2="69"/>
    <circle cx="141" cy="142" r="2"/>
    <circle cx="195" cy="69" r="2"/>
  </g>
  <g stroke="chocolate" stroke-width="1">
    <line x1="141" y1="142" x2="368" y2="141"/>
    <circle cx="141" cy="142" r="2"/>
    <circle cx="368" cy="141" r="2"/>
  </g>
  <g stroke="chocolate" stroke-width="1">
    <line x1="441" y1="195" x2="368" y2="141"/>
    <circle cx="441" cy="195" r="2"/>
    <circle cx="368" cy="141" r="2"/>
  </g>
  <g stroke="black" stroke-width="1">
    <line x1="5" y1="5" x2="505" y2="5"/>
    <line x1="5" y1="5" x2="5" y2="505"/>
    <line x1="505" y1="505" x2="5" y2="505"/>
    <line x1="505" y1="505" x2="505" y2="5"/>
    <line x1="105" y1="2" x2="105" y2="8"/>
    <line x1="2" y1="105" x2="8" y2="105"/>
    <line x1="105" y1="502" x2="105" y2="508"/>
    <line x1="502" y1="105" x2="508" y2="105"/>
    <line x1="205" y1="2" x2="205" y2="8"/>
    <line x1="2" y1="205" x2="8" y2="205"/>
    <line x1="205" y1="502" x2="205" y2="508"/>
    <line x1="502" y1="205" x2="508" y2="205"/>
    <line x1="305" y1="2" x2="305" y2="8"/>
    <line x1="2" y1="305" x2="8" y2="305"/>
    <line x1="305" y1="502" x2="305" y2="508"/>
    <line x1="502" y1="305" x2="508" y2="305"/>
    <line x1="405" y1="2" x2="405" y2="8"/>
    <line x1="2" y1="405" x2="8" y2="405"/>
    <line x1="405" y1="502" x2="405" y2="508"/>
    <line x1="502" y1="405" x2="508" y2="405"/>
  </g>
  <g stroke="gray" stroke-width="1" stroke-dasharray="5,5">
    <line x1="105" y1="5" x2="105" y2="505"/>
    <line x1="5" y1="105" x2="505" y2="105"/>
    <line x1="205" y1="5" x2="205" y2="505"/>
    <line x1="5" y1="205" x2="505" y2="205"/>
    <line x1="305" y1="5" x2="305" y2="505"/>
    <line x1="5" y1="305" x2="505" y2="305"/>
    <line x1="405" y1="5" x2="405" y2="505"/>
    <line x1="5" y1="405" x2="505" y2="405"/>
  </g>
</svg>
