<?xml version="1.0" standalone="no"?>
<!DOCTYPE svg PUBLIC "-//W3C//DTD SVG 1.1//EN" 
  "http://www.w3.org/Graphics/SVG/1.1/DTD/svg11.dtd">
<svg width="510" height="510" version="1.1" id="toplevel"
    xmlns="http://www.w3.org/2000/svg"
    xmlns:xlink="http://www.w3.org/1999/xlink">
  <polygon points="211,404 346,259 434,338 451,336 444,243 430,233 427,172 248,106 59,288 119,368 122,339 141,354 149,346"
           fill="bisque"/>
  <g stroke="chocolate" stroke-width="1">
    <line x1="211" y1="404" x2="427" y2="172"/>
    <circle cx="211" cy="404" r="2"/>
    <circle cx="427" cy="172" r="2"/>
  </g>
  <g stroke="chocolate" stroke-width="1">
    <line x1="315" y1="231" x2="338" y2="169"/>
    <circle cx="315" cy="231" r="2"/>
    <circle cx="338" cy="169" r="2"/>
  </g>
  <g stroke="chocolate" stroke-width="1">
    <line x1="356" y1="268" x2="367" y2="205"/>
    <circle cx="356" cy="268" r="2"/>
    <circle cx="367" cy="205" r="2"/>
  </g>
  <g stroke="chocolate" stroke-width="1">
    <line x1="291" y1="210" x2="327" y2="159"/>
    <circle cx="291" cy="210" r="2"/>
    <circle cx="327" cy="159" r="2"/>
  </g>
  <g stroke="chocolate" stroke-width="1">
    <line x1="292" y1="198" x2="296" y2="124"/>
    <circle cx="292" cy="198" r="2"/>
    <circle cx="296" cy="124" r="2"/>
  </g>
  <g stroke="chocolate" stroke-width="1">
    <line x1="141" y1="354" x2="292" y2="198"/>
    <circle cx="141" cy="354" r="2"/>
    <circle cx="292" cy="198" r="2"/>
  </g>
  <g stroke="chocolate" stroke-width="1">
    <line x1="119" y1="368" x2="138" y2="211"/>
    <circle cx="119" cy="368" r="2"/>
    <circle cx="138" cy="211" r="2"/>
  </g>
  <g stroke="chocolate" stroke-width="1">
    <line x1="119" y1="368" x2="122" y2="227"/>
    <circle cx="119" cy="368" r="2"/>
    <circle cx="122" cy="227" r="2"/>
  </g>
  <g stroke="chocolate" stroke-width="1">
    <line x1="119" y1="368" x2="119" y2="230"/>
    <circle cx="119" cy="368" r="2"/>
    <circle cx="119" cy="230" r="2"/>
  </g>
  <g stroke="chocolate" stroke-width="1">
    <line x1="119" y1="368" x2="119" y2="230"/>
    <circle cx="119" cy="368" r="2"/>
    <circle cx="119" cy="230" r="2"/>
  </g>
  <g stroke="chocolate" stroke-width="1">
    <line x1="119" y1="368" x2="59" y2="288"/>
    <circle cx="119" cy="368" r="2"/>
    <circle cx="59" cy="288" r="2"/>
  </g>
  <g stroke="chocolate" stroke-width="1">
    <line x1="291" y1="210" x2="338" y2="169"/>
    <circle cx="291" cy="210" r="2"/>
    <circle cx="338" cy="169" r="2"/>
  </g>
  <g stroke="chocolate" stroke-width="1">
    <line x1="254" y1="178" x2="296" y2="124"/>
    <circle cx="254" cy="178" r="2"/>
    <circle cx="296" cy="124" r="2"/>
  </g>
  <g stroke="chocolate" stroke-width="1">
    <line x1="434" y1="338" x2="451" y2="336"/>
    <circle cx="434" cy="338" r="2"/>
    <circle cx="451" cy="336" r="2"/>
  </g>
  <g stroke="chocolate" stroke-width="1">
    <line x1="263" y1="228" x2="258" y2="109"/>
    <circle cx="263" cy="228" r="2"/>
    <circle cx="258" cy="109" r="2"/>
  </g>
  <g stroke="chocolate" stroke-width="1">
    <line x1="257" y1="234" x2="248" y2="106"/>
    <circle cx="257" cy="234" r="2"/>
    <circle cx="248" cy="106" r="2"/>
  </g>
  <g stroke="chocolate" stroke-width="1">
    <line x1="256" y1="235" x2="247" y2="106"/>
    <circle cx="256" cy="235" r="2"/>
    <circle cx="247" cy="106" r="2"/>
  </g>
  <g stroke="chocolate" stroke-width="1">
    <line x1="434" y1="338" x2="427" y2="172"/>
    <circle cx="434" cy="338" r="2"/>
    <circle cx="427" cy="172" r="2"/>
  </g>
  <g stroke="chocolate" stroke-width="1">
    <line x1="254" y1="178" x2="248" y2="106"/>
    <circle cx="254" cy="178" r="2"/>
    <circle cx="248" cy="106" r="2"/>
  </g>
  <g stroke="chocolate" stroke-width="1">
    <line x1="141" y1="354" x2="72" y2="275"/>
    <circle cx="141" cy="354" r="2"/>
    <circle cx="72" cy="275" r="2"/>
  </g>
  <g stroke="chocolate" stroke-width="1">
    <line x1="141" y1="354" x2="59" y2="288"/>
    <circle cx="141" cy="354" r="2"/>
    <circle cx="59" cy="288" r="2"/>
  </g>
  <g stroke="chocolate" stroke-width="1">
    <line x1="451" y1="336" x2="444" y2="243"/>
    <circle cx="451" cy="336" r="2"/>
    <circle cx="444" cy="243" r="2"/>
  </g>
  <g stroke="chocolate" stroke-width="1">
    <line x1="211" y1="404" x2="72" y2="275"/>
    <circle cx="211" cy="404" r="2"/>
    <circle cx="72" cy="275" r="2"/>
  </g>
  <g stroke="chocolate" stroke-width="1">
    <line x1="315" y1="231" x2="367" y2="205"/>
    <circle cx="315" cy="231" r="2"/>
    <circle cx="367" cy="205" r="2"/>
  </g>
  <g stroke="chocolate" stroke-width="1">
    <line x1="356" y1="268" x2="444" y2="243"/>
    <circle cx="356" cy="268" r="2"/>
    <circle cx="444" cy="243" r="2"/>
  </g>
  <g stroke="chocolate" stroke-width="1">
    <line x1="249" y1="119" x2="258" y2="109"/>
    <circle cx="249" cy="119" r="2"/>
    <circle cx="258" cy="109" r="2"/>
  </g>
  <g stroke="chocolate" stroke-width="1">
    <line x1="248" y1="106" x2="248" y2="106"/>
    <circle cx="248" cy="106" r="2"/>
    <circle cx="248" cy="106" r="2"/>
  </g>
  <g stroke="chocolate" stroke-width="1">
    <line x1="59" y1="288" x2="248" y2="106"/>
    <circle cx="59" cy="288" r="2"/>
    <circle cx="248" cy="106" r="2"/>
  </g>
  <g stroke="chocolate" stroke-width="1">
    <line x1="256" y1="235" x2="119" y2="230"/>
    <circle cx="256" cy="235" r="2"/>
    <circle cx="119" cy="230" r="2"/>
  </g>
  <g stroke="chocolate" stroke-width="1">
    <line x1="257" y1="234" x2="119" y2="230"/>
    <circle cx="257" cy="234" r="2"/>
    <circle cx="119" cy="230" r="2"/>
  </g>
  <g stroke="chocolate" stroke-width="1">
    <line x1="263" y1="228" x2="122" y2="227"/>
    <circle cx="263" cy="228" r="2"/>
    <circle cx="122" cy="227" r="2"/>
  </g>
  <g stroke="chocolate" stroke-width="1">
    <line x1="138" y1="211" x2="292" y2="198"/>
    <circle cx="138" cy="211" r="2"/>
    <circle cx="292" cy="198" r="2"/>
  </g>
  <g stroke="chocolate" stroke-width="1">
    <line x1="434" y1="338" x2="254" y2="178"/>
    <circle cx="434" cy="338" r="2"/>
    <circle cx="254" cy="178" r="2"/>
  </g>
  <g stroke="chocolate" stroke-width="1">
    <line x1="367" y1="205" x2="249" y2="119"/>
    <circle cx="367" cy="205" r="2"/>
    <circle cx="249" cy="119" r="2"/>
  </g>
  <g stroke="chocolate" stroke-width="1">
    <line x1="444" y1="243" x2="248" y2="106"/>
    <circle cx="444" cy="243" r="2"/>
    <circle cx="248" cy="106" r="2"/>
  </g>
  <g stroke="chocolate" stroke-width="1">
    <line x1="327" y1="159" x2="251" y2="107"/>
    <circle cx="327" cy="159" r="2"/>
    <circle cx="251" cy="107" r="2"/>
  </g>
  <g stroke="chocolate" stroke-width="1">
    <line x1="251" y1="107" x2="247" y2="106"/>
    <circle cx="251" cy="107" r="2"/>
    <circle cx="247" cy="106" r="2"/>
  </g>
  <g stroke="chocolate" stroke-width="1">
    <line x1="427" y1="172" x2="248" y2="106"/>
    <circle cx="427" cy="172" r="2"/>
    <circle cx="248" cy="106" r="2"/>
  </g>
  <g stroke="black" stroke-width="1">
    <line x1="5" y1="5" x2="505" y2="5"/>
    <line x1="5" y1="5" x2="5" y2="505"/>
    <line x1="505" y1="505" x2="5" y2="505"/>
    <line x1="505" y1="505" x2="505" y2="5"/>
    <line x1="105" y1="2" x2="105" y2="8"/>
    <line x1="2" y1="105" x2="8" y2="105"/>
    <line x1="105" y1="502" x2="105" y2="508"/>
    <line x1="502" y1="105" x2="508" y2="105"/>
    <line x1="205" y1="2" x2="205" y2="8"/>
    <line x1="2" y1="205" x2="8" y2="205"/>
    <line x1="205" y1="502" x2="205" y2="508"/>
    <line x1="502" y1="205" x2="508" y2="205"/>
    <line x1="305" y1="2" x2="305" y2="8"/>
    <line x1="2" y1="305" x2="8" y2="305"/>
    <line x1="305" y1="502" x2="305" y2="508"/>
    <line x1="502" y1="305" x2="508" y2="305"/>
    <line x1="405" y1="2" x2="405" y2="8"/>
    <line x1="2" y1="405" x2="8" y2="405"/>
    <line x1="405" y1="502" x2="405" y2="508"/>
    <line x1="502" y1="405" x2="508" y2="405"/>
  </g>
  <g stroke="gray" stroke-width="1" stroke-dasharray="5,5">
    <line x1="105" y1="5" x2="105" y2="505"/>
    <line x1="5" y1="105" x2="505" y2="105"/>
    <line x1="205" y1="5" x2="205" y2="505"/>
    <line x1="5" y1="205" x2="505" y2="205"/>
    <line x1="305" y1="5" x2="305" y2="505"/>
    <line x1="5" y1="305" x2="505" y2="305"/>
    <line x1="405" y1="5" x2="405" y2="505"/>
    <line x1="5" y1="405" x2="505" y2="405"/>
  </g>
</svg>
