<?xml version="1.0" standalone="no"?>
<!DOCTYPE svg PUBLIC "-//W3C//DTD SVG 1.1//EN" 
  "http://www.w3.org/Graphics/SVG/1.1/DTD/svg11.dtd">
<svg width="510" height="510" version="1.1" id="toplevel"
    xmlns="http://www.w3.org/2000/svg"
    xmlns:xlink="http://www.w3.org/1999/xlink">
  <polygon points="206,427 393,383 397,372 351,280 350,269 345,268 291,159 252,177 223,185 224,190 189,207 130,210 132,240 114,249 134,288 138,374 196,408"
           fill="bisque"/>
  <g stroke="chocolate" stroke-width="1">
    <line x1="393" y1="383" x2="397" y2="372"/>
    <circle cx="393" cy="383" r="2"/>
    <circle cx="397" cy="372" r="2"/>
  </g>
  <g stroke="chocolate" stroke-width="1">
    <line x1="286" y1="408" x2="346" y2="329"/>
    <circle cx="286" cy="408" r="2"/>
    <circle cx="346" cy="329" r="2"/>
  </g>
  <g stroke="chocolate" stroke-width="1">
    <line x1="222" y1="423" x2="294" y2="315"/>
    <circle cx="222" cy="423" r="2"/>
    <circle cx="294" cy="315" r="2"/>
  </g>
  <g stroke="chocolate" stroke-width="1">
    <line x1="228" y1="380" x2="268" y2="334"/>
    <circle cx="228" cy="380" r="2"/>
    <circle cx="268" cy="334" r="2"/>
  </g>
  <g stroke="chocolate" stroke-width="1">
    <line x1="281" y1="410" x2="362" y2="360"/>
    <circle cx="281" cy="410" r="2"/>
    <circle cx="362" cy="360" r="2"/>
  </g>
  <g stroke="chocolate" stroke-width="1">
    <line x1="274" y1="409" x2="294" y2="315"/>
    <circle cx="274" cy="409" r="2"/>
    <circle cx="294" cy="315" r="2"/>
  </g>
  <g stroke="chocolate" stroke-width="1">
    <line x1="228" y1="380" x2="251" y2="251"/>
    <circle cx="228" cy="380" r="2"/>
    <circle cx="251" cy="251" r="2"/>
  </g>
  <g stroke="chocolate" stroke-width="1">
    <line x1="206" y1="427" x2="209" y2="206"/>
    <circle cx="206" cy="427" r="2"/>
    <circle cx="209" cy="206" r="2"/>
  </g>
  <g stroke="chocolate" stroke-width="1">
    <line x1="138" y1="374" x2="130" y2="210"/>
    <circle cx="138" cy="374" r="2"/>
    <circle cx="130" cy="210" r="2"/>
  </g>
  <g stroke="chocolate" stroke-width="1">
    <line x1="274" y1="409" x2="397" y2="372"/>
    <circle cx="274" cy="409" r="2"/>
    <circle cx="397" cy="372" r="2"/>
  </g>
  <g stroke="chocolate" stroke-width="1">
    <line x1="206" y1="427" x2="393" y2="383"/>
    <circle cx="206" cy="427" r="2"/>
    <circle cx="393" cy="383" r="2"/>
  </g>
  <g stroke="chocolate" stroke-width="1">
    <line x1="367" y1="390" x2="350" y2="269"/>
    <circle cx="367" cy="390" r="2"/>
    <circle cx="350" cy="269" r="2"/>
  </g>
  <g stroke="chocolate" stroke-width="1">
    <line x1="138" y1="374" x2="350" y2="269"/>
    <circle cx="138" cy="374" r="2"/>
    <circle cx="350" cy="269" r="2"/>
  </g>
  <g stroke="chocolate" stroke-width="1">
    <line x1="283" y1="409" x2="268" y2="334"/>
    <circle cx="283" cy="409" r="2"/>
    <circle cx="268" cy="334" r="2"/>
  </g>
  <g stroke="chocolate" stroke-width="1">
    <line x1="283" y1="409" x2="223" y2="185"/>
    <circle cx="283" cy="409" r="2"/>
    <circle cx="223" cy="185" r="2"/>
  </g>
  <g stroke="chocolate" stroke-width="1">
    <line x1="206" y1="427" x2="114" y2="249"/>
    <circle cx="206" cy="427" r="2"/>
    <circle cx="114" cy="249" r="2"/>
  </g>
  <g stroke="chocolate" stroke-width="1">
    <line x1="274" y1="409" x2="186" y2="209"/>
    <circle cx="274" cy="409" r="2"/>
    <circle cx="186" cy="209" r="2"/>
  </g>
  <g stroke="chocolate" stroke-width="1">
    <line x1="281" y1="410" x2="274" y2="409"/>
    <circle cx="281" cy="410" r="2"/>
    <circle cx="274" cy="409" r="2"/>
  </g>
  <g stroke="chocolate" stroke-width="1">
    <line x1="367" y1="390" x2="292" y2="166"/>
    <circle cx="367" cy="390" r="2"/>
    <circle cx="292" cy="166" r="2"/>
  </g>
  <g stroke="chocolate" stroke-width="1">
    <line x1="222" y1="423" x2="138" y2="374"/>
    <circle cx="222" cy="423" r="2"/>
    <circle cx="138" cy="374" r="2"/>
  </g>
  <g stroke="chocolate" stroke-width="1">
    <line x1="114" y1="249" x2="291" y2="159"/>
    <circle cx="114" cy="249" r="2"/>
    <circle cx="291" cy="159" r="2"/>
  </g>
  <g stroke="chocolate" stroke-width="1">
    <line x1="186" y1="209" x2="291" y2="159"/>
    <circle cx="186" cy="209" r="2"/>
    <circle cx="291" cy="159" r="2"/>
  </g>
  <g stroke="chocolate" stroke-width="1">
    <line x1="397" y1="372" x2="291" y2="159"/>
    <circle cx="397" cy="372" r="2"/>
    <circle cx="291" cy="159" r="2"/>
  </g>
  <g stroke="chocolate" stroke-width="1">
    <line x1="286" y1="408" x2="228" y2="380"/>
    <circle cx="286" cy="408" r="2"/>
    <circle cx="228" cy="380" r="2"/>
  </g>
  <g stroke="chocolate" stroke-width="1">
    <line x1="186" y1="209" x2="292" y2="166"/>
    <circle cx="186" cy="209" r="2"/>
    <circle cx="292" cy="166" r="2"/>
  </g>
  <g stroke="chocolate" stroke-width="1">
    <line x1="362" y1="360" x2="268" y2="334"/>
    <circle cx="362" cy="360" r="2"/>
    <circle cx="268" cy="334" r="2"/>
  </g>
  <g stroke="chocolate" stroke-width="1">
    <line x1="223" y1="185" x2="292" y2="166"/>
    <circle cx="223" cy="185" r="2"/>
    <circle cx="292" cy="166" r="2"/>
  </g>
  <g stroke="chocolate" stroke-width="1">
    <line x1="346" y1="329" x2="294" y2="315"/>
    <circle cx="346" cy="329" r="2"/>
    <circle cx="294" cy="315" r="2"/>
  </g>
  <g stroke="chocolate" stroke-width="1">
    <line x1="393" y1="383" x2="209" y2="206"/>
    <circle cx="393" cy="383" r="2"/>
    <circle cx="209" cy="206" r="2"/>
  </g>
  <g stroke="chocolate" stroke-width="1">
    <line x1="397" y1="372" x2="294" y2="315"/>
    <circle cx="397" cy="372" r="2"/>
    <circle cx="294" cy="315" r="2"/>
  </g>
  <g stroke="chocolate" stroke-width="1">
    <line x1="130" y1="210" x2="209" y2="206"/>
    <circle cx="130" cy="210" r="2"/>
    <circle cx="209" cy="206" r="2"/>
  </g>
  <g stroke="chocolate" stroke-width="1">
    <line x1="350" y1="269" x2="251" y2="251"/>
    <circle cx="350" cy="269" r="2"/>
    <circle cx="251" cy="251" r="2"/>
  </g>
  <g stroke="black" stroke-width="1">
    <line x1="5" y1="5" x2="505" y2="5"/>
    <line x1="5" y1="5" x2="5" y2="505"/>
    <line x1="505" y1="505" x2="5" y2="505"/>
    <line x1="505" y1="505" x2="505" y2="5"/>
    <line x1="105" y1="2" x2="105" y2="8"/>
    <line x1="2" y1="105" x2="8" y2="105"/>
    <line x1="105" y1="502" x2="105" y2="508"/>
    <line x1="502" y1="105" x2="508" y2="105"/>
    <line x1="205" y1="2" x2="205" y2="8"/>
    <line x1="2" y1="205" x2="8" y2="205"/>
    <line x1="205" y1="502" x2="205" y2="508"/>
    <line x1="502" y1="205" x2="508" y2="205"/>
    <line x1="305" y1="2" x2="305" y2="8"/>
    <line x1="2" y1="305" x2="8" y2="305"/>
    <line x1="305" y1="502" x2="305" y2="508"/>
    <line x1="502" y1="305" x2="508" y2="305"/>
    <line x1="405" y1="2" x2="405" y2="8"/>
    <line x1="2" y1="405" x2="8" y2="405"/>
    <line x1="405" y1="502" x2="405" y2="508"/>
    <line x1="502" y1="405" x2="508" y2="405"/>
  </g>
  <g stroke="gray" stroke-width="1" stroke-dasharray="5,5">
    <line x1="105" y1="5" x2="105" y2="505"/>
    <line x1="5" y1="105" x2="505" y2="105"/>
    <line x1="205" y1="5" x2="205" y2="505"/>
    <line x1="5" y1="205" x2="505" y2="205"/>
    <line x1="305" y1="5" x2="305" y2="505"/>
    <line x1="5" y1="305" x2="505" y2="305"/>
    <line x1="405" y1="5" x2="405" y2="505"/>
    <line x1="5" y1="405" x2="505" y2="405"/>
  </g>
</svg>
