<?xml version="1.0" standalone="no"?>
<!DOCTYPE svg PUBLIC "-//W3C//DTD SVG 1.1//EN" 
  "http://www.w3.org/Graphics/SVG/1.1/DTD/svg11.dtd">
<svg width="510" height="510" version="1.1" id="toplevel"
    xmlns="http://www.w3.org/2000/svg"
    xmlns:xlink="http://www.w3.org/1999/xlink">
  <polygon points="415,505 505,505 505,426 462,404 483,363 406,290 416,228 368,160 305,204 296,253 285,246 212,302 251,354 251,356 251,356 216,389 271,485 317,459 325,465 371,445 373,445 400,489"
           fill="bisque"/>
  <g stroke="chocolate" stroke-width="1">
    <line x1="465" y1="453" x2="505" y2="426"/>
    <circle cx="465" cy="453" r="2"/>
    <circle cx="505" cy="426" r="2"/>
  </g>
  <g stroke="chocolate" stroke-width="1">
    <line x1="411" y1="501" x2="483" y2="363"/>
    <circle cx="411" cy="501" r="2"/>
    <circle cx="483" cy="363" r="2"/>
  </g>
  <g stroke="chocolate" stroke-width="1">
    <line x1="383" y1="448" x2="458" y2="367"/>
    <circle cx="383" cy="448" r="2"/>
    <circle cx="458" cy="367" r="2"/>
  </g>
  <g stroke="chocolate" stroke-width="1">
    <line x1="393" y1="435" x2="458" y2="367"/>
    <circle cx="393" cy="435" r="2"/>
    <circle cx="458" cy="367" r="2"/>
  </g>
  <g stroke="chocolate" stroke-width="1">
    <line x1="411" y1="501" x2="415" y2="499"/>
    <circle cx="411" cy="501" r="2"/>
    <circle cx="415" cy="499" r="2"/>
  </g>
  <g stroke="chocolate" stroke-width="1">
    <line x1="271" y1="485" x2="483" y2="363"/>
    <circle cx="271" cy="485" r="2"/>
    <circle cx="483" cy="363" r="2"/>
  </g>
  <g stroke="chocolate" stroke-width="1">
    <line x1="325" y1="465" x2="393" y2="435"/>
    <circle cx="325" cy="465" r="2"/>
    <circle cx="393" cy="435" r="2"/>
  </g>
  <g stroke="chocolate" stroke-width="1">
    <line x1="265" y1="413" x2="294" y2="315"/>
    <circle cx="265" cy="413" r="2"/>
    <circle cx="294" cy="315" r="2"/>
  </g>
  <g stroke="chocolate" stroke-width="1">
    <line x1="251" y1="356" x2="285" y2="246"/>
    <circle cx="251" cy="356" r="2"/>
    <circle cx="285" cy="246" r="2"/>
  </g>
  <g stroke="chocolate" stroke-width="1">
    <line x1="383" y1="448" x2="416" y2="228"/>
    <circle cx="383" cy="448" r="2"/>
    <circle cx="416" cy="228" r="2"/>
  </g>
  <g stroke="chocolate" stroke-width="1">
    <line x1="325" y1="465" x2="329" y2="436"/>
    <circle cx="325" cy="465" r="2"/>
    <circle cx="329" cy="436" r="2"/>
  </g>
  <g stroke="chocolate" stroke-width="1">
    <line x1="265" y1="413" x2="305" y2="204"/>
    <circle cx="265" cy="413" r="2"/>
    <circle cx="305" cy="204" r="2"/>
  </g>
  <g stroke="chocolate" stroke-width="1">
    <line x1="216" y1="389" x2="366" y2="251"/>
    <circle cx="216" cy="389" r="2"/>
    <circle cx="366" cy="251" r="2"/>
  </g>
  <g stroke="chocolate" stroke-width="1">
    <line x1="294" y1="315" x2="366" y2="251"/>
    <circle cx="294" cy="315" r="2"/>
    <circle cx="366" cy="251" r="2"/>
  </g>
  <g stroke="chocolate" stroke-width="1">
    <line x1="251" y1="356" x2="416" y2="228"/>
    <circle cx="251" cy="356" r="2"/>
    <circle cx="416" cy="228" r="2"/>
  </g>
  <g stroke="chocolate" stroke-width="1">
    <line x1="415" y1="505" x2="415" y2="499"/>
    <circle cx="415" cy="505" r="2"/>
    <circle cx="415" cy="499" r="2"/>
  </g>
  <g stroke="chocolate" stroke-width="1">
    <line x1="415" y1="505" x2="505" y2="505"/>
    <circle cx="415" cy="505" r="2"/>
    <circle cx="505" cy="505" r="2"/>
  </g>
  <g stroke="chocolate" stroke-width="1">
    <line x1="505" y1="505" x2="505" y2="426"/>
    <circle cx="505" cy="505" r="2"/>
    <circle cx="505" cy="426" r="2"/>
  </g>
  <g stroke="chocolate" stroke-width="1">
    <line x1="212" y1="302" x2="285" y2="246"/>
    <circle cx="212" cy="302" r="2"/>
    <circle cx="285" cy="246" r="2"/>
  </g>
  <g stroke="chocolate" stroke-width="1">
    <line x1="333" y1="461" x2="329" y2="436"/>
    <circle cx="333" cy="461" r="2"/>
    <circle cx="329" cy="436" r="2"/>
  </g>
  <g stroke="chocolate" stroke-width="1">
    <line x1="305" y1="204" x2="368" y2="160"/>
    <circle cx="305" cy="204" r="2"/>
    <circle cx="368" cy="160" r="2"/>
  </g>
  <g stroke="chocolate" stroke-width="1">
    <line x1="329" y1="436" x2="393" y2="435"/>
    <circle cx="329" cy="436" r="2"/>
    <circle cx="393" cy="435" r="2"/>
  </g>
  <g stroke="chocolate" stroke-width="1">
    <line x1="271" y1="485" x2="216" y2="389"/>
    <circle cx="271" cy="485" r="2"/>
    <circle cx="216" cy="389" r="2"/>
  </g>
  <g stroke="chocolate" stroke-width="1">
    <line x1="465" y1="453" x2="265" y2="413"/>
    <circle cx="465" cy="453" r="2"/>
    <circle cx="265" cy="413" r="2"/>
  </g>
  <g stroke="chocolate" stroke-width="1">
    <line x1="383" y1="448" x2="265" y2="413"/>
    <circle cx="383" cy="448" r="2"/>
    <circle cx="265" cy="413" r="2"/>
  </g>
  <g stroke="chocolate" stroke-width="1">
    <line x1="333" y1="461" x2="212" y2="302"/>
    <circle cx="333" cy="461" r="2"/>
    <circle cx="212" cy="302" r="2"/>
  </g>
  <g stroke="chocolate" stroke-width="1">
    <line x1="325" y1="465" x2="216" y2="389"/>
    <circle cx="325" cy="465" r="2"/>
    <circle cx="216" cy="389" r="2"/>
  </g>
  <g stroke="chocolate" stroke-width="1">
    <line x1="400" y1="489" x2="294" y2="315"/>
    <circle cx="400" cy="489" r="2"/>
    <circle cx="294" cy="315" r="2"/>
  </g>
  <g stroke="chocolate" stroke-width="1">
    <line x1="415" y1="499" x2="400" y2="489"/>
    <circle cx="415" cy="499" r="2"/>
    <circle cx="400" cy="489" r="2"/>
  </g>
  <g stroke="chocolate" stroke-width="1">
    <line x1="415" y1="505" x2="400" y2="489"/>
    <circle cx="415" cy="505" r="2"/>
    <circle cx="400" cy="489" r="2"/>
  </g>
  <g stroke="chocolate" stroke-width="1">
    <line x1="383" y1="448" x2="251" y2="356"/>
    <circle cx="383" cy="448" r="2"/>
    <circle cx="251" cy="356" r="2"/>
  </g>
  <g stroke="chocolate" stroke-width="1">
    <line x1="465" y1="453" x2="305" y2="204"/>
    <circle cx="465" cy="453" r="2"/>
    <circle cx="305" cy="204" r="2"/>
  </g>
  <g stroke="chocolate" stroke-width="1">
    <line x1="505" y1="426" x2="294" y2="315"/>
    <circle cx="505" cy="426" r="2"/>
    <circle cx="294" cy="315" r="2"/>
  </g>
  <g stroke="chocolate" stroke-width="1">
    <line x1="458" y1="367" x2="366" y2="251"/>
    <circle cx="458" cy="367" r="2"/>
    <circle cx="366" cy="251" r="2"/>
  </g>
  <g stroke="chocolate" stroke-width="1">
    <line x1="416" y1="228" x2="368" y2="160"/>
    <circle cx="416" cy="228" r="2"/>
    <circle cx="368" cy="160" r="2"/>
  </g>
  <g stroke="chocolate" stroke-width="1">
    <line x1="458" y1="367" x2="285" y2="246"/>
    <circle cx="458" cy="367" r="2"/>
    <circle cx="285" cy="246" r="2"/>
  </g>
  <g stroke="chocolate" stroke-width="1">
    <line x1="483" y1="363" x2="366" y2="251"/>
    <circle cx="483" cy="363" r="2"/>
    <circle cx="366" cy="251" r="2"/>
  </g>
  <g stroke="black" stroke-width="1">
    <line x1="5" y1="5" x2="505" y2="5"/>
    <line x1="5" y1="5" x2="5" y2="505"/>
    <line x1="505" y1="505" x2="5" y2="505"/>
    <line x1="505" y1="505" x2="505" y2="5"/>
    <line x1="105" y1="2" x2="105" y2="8"/>
    <line x1="2" y1="105" x2="8" y2="105"/>
    <line x1="105" y1="502" x2="105" y2="508"/>
    <line x1="502" y1="105" x2="508" y2="105"/>
    <line x1="205" y1="2" x2="205" y2="8"/>
    <line x1="2" y1="205" x2="8" y2="205"/>
    <line x1="205" y1="502" x2="205" y2="508"/>
    <line x1="502" y1="205" x2="508" y2="205"/>
    <line x1="305" y1="2" x2="305" y2="8"/>
    <line x1="2" y1="305" x2="8" y2="305"/>
    <line x1="305" y1="502" x2="305" y2="508"/>
    <line x1="502" y1="305" x2="508" y2="305"/>
    <line x1="405" y1="2" x2="405" y2="8"/>
    <line x1="2" y1="405" x2="8" y2="405"/>
    <line x1="405" y1="502" x2="405" y2="508"/>
    <line x1="502" y1="405" x2="508" y2="405"/>
  </g>
  <g stroke="gray" stroke-width="1" stroke-dasharray="5,5">
    <line x1="105" y1="5" x2="105" y2="505"/>
    <line x1="5" y1="105" x2="505" y2="105"/>
    <line x1="205" y1="5" x2="205" y2="505"/>
    <line x1="5" y1="205" x2="505" y2="205"/>
    <line x1="305" y1="5" x2="305" y2="505"/>
    <line x1="5" y1="305" x2="505" y2="305"/>
    <line x1="405" y1="5" x2="405" y2="505"/>
    <line x1="5" y1="405" x2="505" y2="405"/>
  </g>
</svg>
