<?xml version="1.0" standalone="no"?>
<!DOCTYPE svg PUBLIC "-//W3C//DTD SVG 1.1//EN" 
  "http://www.w3.org/Graphics/SVG/1.1/DTD/svg11.dtd">
<svg width="510" height="510" version="1.1" id="toplevel"
    xmlns="http://www.w3.org/2000/svg"
    xmlns:xlink="http://www.w3.org/1999/xlink">
  <polygon points="155,410 216,349 248,380 310,318 435,318 373,255 123,255 123,366 75,350 101,402"
           fill="bisque"/>
  <g stroke="chocolate" stroke-width="1">
    <line x1="248" y1="380" x2="373" y2="255"/>
    <circle cx="248" cy="380" r="2"/>
    <circle cx="373" cy="255" r="2"/>
  </g>
  <g stroke="chocolate" stroke-width="1">
    <line x1="123" y1="405" x2="123" y2="255"/>
    <circle cx="123" cy="405" r="2"/>
    <circle cx="123" cy="255" r="2"/>
  </g>
  <g stroke="chocolate" stroke-width="1">
    <line x1="123" y1="405" x2="134" y2="369"/>
    <circle cx="123" cy="405" r="2"/>
    <circle cx="134" cy="369" r="2"/>
  </g>
  <g stroke="chocolate" stroke-width="1">
    <line x1="101" y1="402" x2="75" y2="350"/>
    <circle cx="101" cy="402" r="2"/>
    <circle cx="75" cy="350" r="2"/>
  </g>
  <g stroke="chocolate" stroke-width="1">
    <line x1="155" y1="410" x2="310" y2="255"/>
    <circle cx="155" cy="410" r="2"/>
    <circle cx="310" cy="255" r="2"/>
  </g>
  <g stroke="chocolate" stroke-width="1">
    <line x1="155" y1="410" x2="134" y2="369"/>
    <circle cx="155" cy="410" r="2"/>
    <circle cx="134" cy="369" r="2"/>
  </g>
  <g stroke="chocolate" stroke-width="1">
    <line x1="101" y1="402" x2="248" y2="255"/>
    <circle cx="101" cy="402" r="2"/>
    <circle cx="248" cy="255" r="2"/>
  </g>
  <g stroke="chocolate" stroke-width="1">
    <line x1="123" y1="318" x2="185" y2="255"/>
    <circle cx="123" cy="318" r="2"/>
    <circle cx="185" cy="255" r="2"/>
  </g>
  <g stroke="chocolate" stroke-width="1">
    <line x1="155" y1="410" x2="101" y2="402"/>
    <circle cx="155" cy="410" r="2"/>
    <circle cx="101" cy="402" r="2"/>
  </g>
  <g stroke="chocolate" stroke-width="1">
    <line x1="248" y1="380" x2="123" y2="255"/>
    <circle cx="248" cy="380" r="2"/>
    <circle cx="123" cy="255" r="2"/>
  </g>
  <g stroke="chocolate" stroke-width="1">
    <line x1="134" y1="369" x2="75" y2="350"/>
    <circle cx="134" cy="369" r="2"/>
    <circle cx="75" cy="350" r="2"/>
  </g>
  <g stroke="chocolate" stroke-width="1">
    <line x1="279" y1="349" x2="185" y2="255"/>
    <circle cx="279" cy="349" r="2"/>
    <circle cx="185" cy="255" r="2"/>
  </g>
  <g stroke="chocolate" stroke-width="1">
    <line x1="123" y1="318" x2="435" y2="318"/>
    <circle cx="123" cy="318" r="2"/>
    <circle cx="435" cy="318" r="2"/>
  </g>
  <g stroke="chocolate" stroke-width="1">
    <line x1="310" y1="318" x2="248" y2="255"/>
    <circle cx="310" cy="318" r="2"/>
    <circle cx="248" cy="255" r="2"/>
  </g>
  <g stroke="chocolate" stroke-width="1">
    <line x1="341" y1="286" x2="310" y2="255"/>
    <circle cx="341" cy="286" r="2"/>
    <circle cx="310" cy="255" r="2"/>
  </g>
  <g stroke="chocolate" stroke-width="1">
    <line x1="123" y1="255" x2="373" y2="255"/>
    <circle cx="123" cy="255" r="2"/>
    <circle cx="373" cy="255" r="2"/>
  </g>
  <g stroke="chocolate" stroke-width="1">
    <line x1="435" y1="318" x2="373" y2="255"/>
    <circle cx="435" cy="318" r="2"/>
    <circle cx="373" cy="255" r="2"/>
  </g>
  <g stroke="black" stroke-width="1">
    <line x1="5" y1="5" x2="505" y2="5"/>
    <line x1="5" y1="5" x2="5" y2="505"/>
    <line x1="505" y1="505" x2="5" y2="505"/>
    <line x1="505" y1="505" x2="505" y2="5"/>
    <line x1="105" y1="2" x2="105" y2="8"/>
    <line x1="2" y1="105" x2="8" y2="105"/>
    <line x1="105" y1="502" x2="105" y2="508"/>
    <line x1="502" y1="105" x2="508" y2="105"/>
    <line x1="205" y1="2" x2="205" y2="8"/>
    <line x1="2" y1="205" x2="8" y2="205"/>
    <line x1="205" y1="502" x2="205" y2="508"/>
    <line x1="502" y1="205" x2="508" y2="205"/>
    <line x1="305" y1="2" x2="305" y2="8"/>
    <line x1="2" y1="305" x2="8" y2="305"/>
    <line x1="305" y1="502" x2="305" y2="508"/>
    <line x1="502" y1="305" x2="508" y2="305"/>
    <line x1="405" y1="2" x2="405" y2="8"/>
    <line x1="2" y1="405" x2="8" y2="405"/>
    <line x1="405" y1="502" x2="405" y2="508"/>
    <line x1="502" y1="405" x2="508" y2="405"/>
  </g>
  <g stroke="gray" stroke-width="1" stroke-dasharray="5,5">
    <line x1="105" y1="5" x2="105" y2="505"/>
    <line x1="5" y1="105" x2="505" y2="105"/>
    <line x1="205" y1="5" x2="205" y2="505"/>
    <line x1="5" y1="205" x2="505" y2="205"/>
    <line x1="305" y1="5" x2="305" y2="505"/>
    <line x1="5" y1="305" x2="505" y2="305"/>
    <line x1="405" y1="5" x2="405" y2="505"/>
    <line x1="5" y1="405" x2="505" y2="405"/>
  </g>
</svg>
