<?xml version="1.0" standalone="no"?>
<!DOCTYPE svg PUBLIC "-//W3C//DTD SVG 1.1//EN" 
  "http://www.w3.org/Graphics/SVG/1.1/DTD/svg11.dtd">
<svg width="510" height="510" version="1.1" id="toplevel"
    xmlns="http://www.w3.org/2000/svg"
    xmlns:xlink="http://www.w3.org/1999/xlink">
  <polygon points="185,476 312,439 368,228 276,134 367,45 367,34 145,36 142,265 242,367 225,400 214,403 175,470"
           fill="bisque"/>
  <g stroke="chocolate" stroke-width="1">
    <line x1="185" y1="278" x2="182" y2="38"/>
    <circle cx="185" cy="278" r="2"/>
    <circle cx="182" cy="38" r="2"/>
  </g>
  <g stroke="chocolate" stroke-width="1">
    <line x1="282" y1="129" x2="280" y2="42"/>
    <circle cx="282" cy="129" r="2"/>
    <circle cx="280" cy="42" r="2"/>
  </g>
  <g stroke="chocolate" stroke-width="1">
    <line x1="325" y1="392" x2="322" y2="181"/>
    <circle cx="325" cy="392" r="2"/>
    <circle cx="322" cy="181" r="2"/>
  </g>
  <g stroke="chocolate" stroke-width="1">
    <line x1="367" y1="45" x2="367" y2="34"/>
    <circle cx="367" cy="45" r="2"/>
    <circle cx="367" cy="34" r="2"/>
  </g>
  <g stroke="chocolate" stroke-width="1">
    <line x1="142" y1="265" x2="145" y2="36"/>
    <circle cx="142" cy="265" r="2"/>
    <circle cx="145" cy="36" r="2"/>
  </g>
  <g stroke="chocolate" stroke-width="1">
    <line x1="263" y1="179" x2="265" y2="122"/>
    <circle cx="263" cy="179" r="2"/>
    <circle cx="265" cy="122" r="2"/>
  </g>
  <g stroke="chocolate" stroke-width="1">
    <line x1="312" y1="439" x2="368" y2="228"/>
    <circle cx="312" cy="439" r="2"/>
    <circle cx="368" cy="228" r="2"/>
  </g>
  <g stroke="chocolate" stroke-width="1">
    <line x1="294" y1="445" x2="325" y2="392"/>
    <circle cx="294" cy="445" r="2"/>
    <circle cx="325" cy="392" r="2"/>
  </g>
  <g stroke="chocolate" stroke-width="1">
    <line x1="185" y1="476" x2="175" y2="470"/>
    <circle cx="185" cy="476" r="2"/>
    <circle cx="175" cy="470" r="2"/>
  </g>
  <g stroke="chocolate" stroke-width="1">
    <line x1="312" y1="439" x2="142" y2="265"/>
    <circle cx="312" cy="439" r="2"/>
    <circle cx="142" cy="265" r="2"/>
  </g>
  <g stroke="chocolate" stroke-width="1">
    <line x1="185" y1="476" x2="304" y2="246"/>
    <circle cx="185" cy="476" r="2"/>
    <circle cx="304" cy="246" r="2"/>
  </g>
  <g stroke="chocolate" stroke-width="1">
    <line x1="175" y1="470" x2="214" y2="403"/>
    <circle cx="175" cy="470" r="2"/>
    <circle cx="214" cy="403" r="2"/>
  </g>
  <g stroke="chocolate" stroke-width="1">
    <line x1="331" y1="369" x2="143" y2="177"/>
    <circle cx="331" cy="369" r="2"/>
    <circle cx="143" cy="177" r="2"/>
  </g>
  <g stroke="chocolate" stroke-width="1">
    <line x1="294" y1="445" x2="214" y2="403"/>
    <circle cx="294" cy="445" r="2"/>
    <circle cx="214" cy="403" r="2"/>
  </g>
  <g stroke="chocolate" stroke-width="1">
    <line x1="368" y1="228" x2="182" y2="38"/>
    <circle cx="368" cy="228" r="2"/>
    <circle cx="182" cy="38" r="2"/>
  </g>
  <g stroke="chocolate" stroke-width="1">
    <line x1="185" y1="476" x2="312" y2="439"/>
    <circle cx="185" cy="476" r="2"/>
    <circle cx="312" cy="439" r="2"/>
  </g>
  <g stroke="chocolate" stroke-width="1">
    <line x1="214" y1="403" x2="331" y2="369"/>
    <circle cx="214" cy="403" r="2"/>
    <circle cx="331" cy="369" r="2"/>
  </g>
  <g stroke="chocolate" stroke-width="1">
    <line x1="355" y1="276" x2="304" y2="246"/>
    <circle cx="355" cy="276" r="2"/>
    <circle cx="304" cy="246" r="2"/>
  </g>
  <g stroke="chocolate" stroke-width="1">
    <line x1="142" y1="265" x2="367" y2="45"/>
    <circle cx="142" cy="265" r="2"/>
    <circle cx="367" cy="45" r="2"/>
  </g>
  <g stroke="chocolate" stroke-width="1">
    <line x1="143" y1="177" x2="280" y2="42"/>
    <circle cx="143" cy="177" r="2"/>
    <circle cx="280" cy="42" r="2"/>
  </g>
  <g stroke="chocolate" stroke-width="1">
    <line x1="185" y1="278" x2="355" y2="276"/>
    <circle cx="185" cy="278" r="2"/>
    <circle cx="355" cy="276" r="2"/>
  </g>
  <g stroke="chocolate" stroke-width="1">
    <line x1="304" y1="246" x2="368" y2="228"/>
    <circle cx="304" cy="246" r="2"/>
    <circle cx="368" cy="228" r="2"/>
  </g>
  <g stroke="chocolate" stroke-width="1">
    <line x1="322" y1="181" x2="263" y2="179"/>
    <circle cx="322" cy="181" r="2"/>
    <circle cx="263" cy="179" r="2"/>
  </g>
  <g stroke="chocolate" stroke-width="1">
    <line x1="282" y1="129" x2="144" y2="124"/>
    <circle cx="282" cy="129" r="2"/>
    <circle cx="144" cy="124" r="2"/>
  </g>
  <g stroke="chocolate" stroke-width="1">
    <line x1="144" y1="124" x2="265" y2="122"/>
    <circle cx="144" cy="124" r="2"/>
    <circle cx="265" cy="122" r="2"/>
  </g>
  <g stroke="chocolate" stroke-width="1">
    <line x1="367" y1="45" x2="280" y2="42"/>
    <circle cx="367" cy="45" r="2"/>
    <circle cx="280" cy="42" r="2"/>
  </g>
  <g stroke="chocolate" stroke-width="1">
    <line x1="182" y1="38" x2="145" y2="36"/>
    <circle cx="182" cy="38" r="2"/>
    <circle cx="145" cy="36" r="2"/>
  </g>
  <g stroke="chocolate" stroke-width="1">
    <line x1="145" y1="36" x2="367" y2="34"/>
    <circle cx="145" cy="36" r="2"/>
    <circle cx="367" cy="34" r="2"/>
  </g>
  <g stroke="black" stroke-width="1">
    <line x1="5" y1="5" x2="505" y2="5"/>
    <line x1="5" y1="5" x2="5" y2="505"/>
    <line x1="505" y1="505" x2="5" y2="505"/>
    <line x1="505" y1="505" x2="505" y2="5"/>
    <line x1="105" y1="2" x2="105" y2="8"/>
    <line x1="2" y1="105" x2="8" y2="105"/>
    <line x1="105" y1="502" x2="105" y2="508"/>
    <line x1="502" y1="105" x2="508" y2="105"/>
    <line x1="205" y1="2" x2="205" y2="8"/>
    <line x1="2" y1="205" x2="8" y2="205"/>
    <line x1="205" y1="502" x2="205" y2="508"/>
    <line x1="502" y1="205" x2="508" y2="205"/>
    <line x1="305" y1="2" x2="305" y2="8"/>
    <line x1="2" y1="305" x2="8" y2="305"/>
    <line x1="305" y1="502" x2="305" y2="508"/>
    <line x1="502" y1="305" x2="508" y2="305"/>
    <line x1="405" y1="2" x2="405" y2="8"/>
    <line x1="2" y1="405" x2="8" y2="405"/>
    <line x1="405" y1="502" x2="405" y2="508"/>
    <line x1="502" y1="405" x2="508" y2="405"/>
  </g>
  <g stroke="gray" stroke-width="1" stroke-dasharray="5,5">
    <line x1="105" y1="5" x2="105" y2="505"/>
    <line x1="5" y1="105" x2="505" y2="105"/>
    <line x1="205" y1="5" x2="205" y2="505"/>
    <line x1="5" y1="205" x2="505" y2="205"/>
    <line x1="305" y1="5" x2="305" y2="505"/>
    <line x1="5" y1="305" x2="505" y2="305"/>
    <line x1="405" y1="5" x2="405" y2="505"/>
    <line x1="5" y1="405" x2="505" y2="405"/>
  </g>
</svg>
