<?xml version="1.0" standalone="no"?>
<!DOCTYPE svg PUBLIC "-//W3C//DTD SVG 1.1//EN" 
  "http://www.w3.org/Graphics/SVG/1.1/DTD/svg11.dtd">
<svg width="510" height="510" version="1.1" id="toplevel"
    xmlns="http://www.w3.org/2000/svg"
    xmlns:xlink="http://www.w3.org/1999/xlink">
  <polygon points="120,505 307,505 307,463 390,380 390,338 370,338 328,380 307,380 307,297 370,234 370,213 328,213 161,380 120,380"
           fill="bisque"/>
  <g stroke="chocolate" stroke-width="1">
    <line x1="265" y1="505" x2="390" y2="380"/>
    <circle cx="265" cy="505" r="2"/>
    <circle cx="390" cy="380" r="2"/>
  </g>
  <g stroke="chocolate" stroke-width="1">
    <line x1="203" y1="505" x2="370" y2="338"/>
    <circle cx="203" cy="505" r="2"/>
    <circle cx="370" cy="338" r="2"/>
  </g>
  <g stroke="chocolate" stroke-width="1">
    <line x1="120" y1="505" x2="120" y2="380"/>
    <circle cx="120" cy="505" r="2"/>
    <circle cx="120" cy="380" r="2"/>
  </g>
  <g stroke="chocolate" stroke-width="1">
    <line x1="120" y1="505" x2="307" y2="505"/>
    <circle cx="120" cy="505" r="2"/>
    <circle cx="307" cy="505" r="2"/>
  </g>
  <g stroke="chocolate" stroke-width="1">
    <line x1="245" y1="505" x2="245" y2="297"/>
    <circle cx="245" cy="505" r="2"/>
    <circle cx="245" cy="297" r="2"/>
  </g>
  <g stroke="chocolate" stroke-width="1">
    <line x1="265" y1="505" x2="265" y2="276"/>
    <circle cx="265" cy="505" r="2"/>
    <circle cx="265" cy="276" r="2"/>
  </g>
  <g stroke="chocolate" stroke-width="1">
    <line x1="307" y1="505" x2="307" y2="234"/>
    <circle cx="307" cy="505" r="2"/>
    <circle cx="307" cy="234" r="2"/>
  </g>
  <g stroke="chocolate" stroke-width="1">
    <line x1="328" y1="276" x2="328" y2="213"/>
    <circle cx="328" cy="276" r="2"/>
    <circle cx="328" cy="213" r="2"/>
  </g>
  <g stroke="chocolate" stroke-width="1">
    <line x1="370" y1="401" x2="370" y2="338"/>
    <circle cx="370" cy="401" r="2"/>
    <circle cx="370" cy="338" r="2"/>
  </g>
  <g stroke="chocolate" stroke-width="1">
    <line x1="370" y1="234" x2="370" y2="213"/>
    <circle cx="370" cy="234" r="2"/>
    <circle cx="370" cy="213" r="2"/>
  </g>
  <g stroke="chocolate" stroke-width="1">
    <line x1="390" y1="380" x2="390" y2="338"/>
    <circle cx="390" cy="380" r="2"/>
    <circle cx="390" cy="338" r="2"/>
  </g>
  <g stroke="chocolate" stroke-width="1">
    <line x1="182" y1="422" x2="370" y2="234"/>
    <circle cx="182" cy="422" r="2"/>
    <circle cx="370" cy="234" r="2"/>
  </g>
  <g stroke="chocolate" stroke-width="1">
    <line x1="203" y1="505" x2="120" y2="422"/>
    <circle cx="203" cy="505" r="2"/>
    <circle cx="120" cy="422" r="2"/>
  </g>
  <g stroke="chocolate" stroke-width="1">
    <line x1="120" y1="422" x2="328" y2="213"/>
    <circle cx="120" cy="422" r="2"/>
    <circle cx="328" cy="213" r="2"/>
  </g>
  <g stroke="chocolate" stroke-width="1">
    <line x1="265" y1="505" x2="151" y2="390"/>
    <circle cx="265" cy="505" r="2"/>
    <circle cx="151" cy="390" r="2"/>
  </g>
  <g stroke="chocolate" stroke-width="1">
    <line x1="120" y1="422" x2="182" y2="422"/>
    <circle cx="120" cy="422" r="2"/>
    <circle cx="182" cy="422" r="2"/>
  </g>
  <g stroke="chocolate" stroke-width="1">
    <line x1="120" y1="401" x2="370" y2="401"/>
    <circle cx="120" cy="401" r="2"/>
    <circle cx="370" cy="401" r="2"/>
  </g>
  <g stroke="chocolate" stroke-width="1">
    <line x1="120" y1="380" x2="390" y2="380"/>
    <circle cx="120" cy="380" r="2"/>
    <circle cx="390" cy="380" r="2"/>
  </g>
  <g stroke="chocolate" stroke-width="1">
    <line x1="370" y1="338" x2="390" y2="338"/>
    <circle cx="370" cy="338" r="2"/>
    <circle cx="390" cy="338" r="2"/>
  </g>
  <g stroke="chocolate" stroke-width="1">
    <line x1="245" y1="297" x2="307" y2="297"/>
    <circle cx="245" cy="297" r="2"/>
    <circle cx="307" cy="297" r="2"/>
  </g>
  <g stroke="chocolate" stroke-width="1">
    <line x1="265" y1="276" x2="328" y2="276"/>
    <circle cx="265" cy="276" r="2"/>
    <circle cx="328" cy="276" r="2"/>
  </g>
  <g stroke="chocolate" stroke-width="1">
    <line x1="307" y1="234" x2="370" y2="234"/>
    <circle cx="307" cy="234" r="2"/>
    <circle cx="370" cy="234" r="2"/>
  </g>
  <g stroke="chocolate" stroke-width="1">
    <line x1="328" y1="213" x2="370" y2="213"/>
    <circle cx="328" cy="213" r="2"/>
    <circle cx="370" cy="213" r="2"/>
  </g>
  <g stroke="black" stroke-width="1">
    <line x1="5" y1="5" x2="505" y2="5"/>
    <line x1="5" y1="5" x2="5" y2="505"/>
    <line x1="505" y1="505" x2="5" y2="505"/>
    <line x1="505" y1="505" x2="505" y2="5"/>
    <line x1="105" y1="2" x2="105" y2="8"/>
    <line x1="2" y1="105" x2="8" y2="105"/>
    <line x1="105" y1="502" x2="105" y2="508"/>
    <line x1="502" y1="105" x2="508" y2="105"/>
    <line x1="205" y1="2" x2="205" y2="8"/>
    <line x1="2" y1="205" x2="8" y2="205"/>
    <line x1="205" y1="502" x2="205" y2="508"/>
    <line x1="502" y1="205" x2="508" y2="205"/>
    <line x1="305" y1="2" x2="305" y2="8"/>
    <line x1="2" y1="305" x2="8" y2="305"/>
    <line x1="305" y1="502" x2="305" y2="508"/>
    <line x1="502" y1="305" x2="508" y2="305"/>
    <line x1="405" y1="2" x2="405" y2="8"/>
    <line x1="2" y1="405" x2="8" y2="405"/>
    <line x1="405" y1="502" x2="405" y2="508"/>
    <line x1="502" y1="405" x2="508" y2="405"/>
  </g>
  <g stroke="gray" stroke-width="1" stroke-dasharray="5,5">
    <line x1="105" y1="5" x2="105" y2="505"/>
    <line x1="5" y1="105" x2="505" y2="105"/>
    <line x1="205" y1="5" x2="205" y2="505"/>
    <line x1="5" y1="205" x2="505" y2="205"/>
    <line x1="305" y1="5" x2="305" y2="505"/>
    <line x1="5" y1="305" x2="505" y2="305"/>
    <line x1="405" y1="5" x2="405" y2="505"/>
    <line x1="5" y1="405" x2="505" y2="405"/>
  </g>
</svg>
