<?xml version="1.0" standalone="no"?>
<!DOCTYPE svg PUBLIC "-//W3C//DTD SVG 1.1//EN" 
  "http://www.w3.org/Graphics/SVG/1.1/DTD/svg11.dtd">
<svg width="676" height="676" version="1.1" id="toplevel"
    xmlns="http://www.w3.org/2000/svg"
    xmlns:xlink="http://www.w3.org/1999/xlink">
  <polygon points="429,671 604,261 225,5 221,8 223,10 72,404 426,669 426,671"
           fill="bisque"/>
  <g stroke="chocolate" stroke-width="1">
    <line x1="431" y1="667" x2="426" y2="667"/>
    <circle cx="431" cy="667" r="2"/>
    <circle cx="426" cy="667" r="2"/>
  </g>
  <g stroke="chocolate" stroke-width="1">
    <line x1="429" y1="671" x2="426" y2="671"/>
    <circle cx="429" cy="671" r="2"/>
    <circle cx="426" cy="671" r="2"/>
  </g>
  <g stroke="chocolate" stroke-width="1">
    <line x1="429" y1="671" x2="72" y2="404"/>
    <circle cx="429" cy="671" r="2"/>
    <circle cx="72" cy="404" r="2"/>
  </g>
  <g stroke="chocolate" stroke-width="1">
    <line x1="431" y1="667" x2="129" y2="360"/>
    <circle cx="431" cy="667" r="2"/>
    <circle cx="129" cy="360" r="2"/>
  </g>
  <g stroke="chocolate" stroke-width="1">
    <line x1="162" y1="417" x2="129" y2="360"/>
    <circle cx="162" cy="417" r="2"/>
    <circle cx="129" cy="360" r="2"/>
  </g>
  <g stroke="chocolate" stroke-width="1">
    <line x1="568" y1="297" x2="604" y2="261"/>
    <circle cx="568" cy="297" r="2"/>
    <circle cx="604" cy="261" r="2"/>
  </g>
  <g stroke="chocolate" stroke-width="1">
    <line x1="429" y1="671" x2="604" y2="261"/>
    <circle cx="429" cy="671" r="2"/>
    <circle cx="604" cy="261" r="2"/>
  </g>
  <g stroke="chocolate" stroke-width="1">
    <line x1="426" y1="671" x2="569" y2="237"/>
    <circle cx="426" cy="671" r="2"/>
    <circle cx="569" cy="237" r="2"/>
  </g>
  <g stroke="chocolate" stroke-width="1">
    <line x1="539" y1="263" x2="569" y2="237"/>
    <circle cx="539" cy="263" r="2"/>
    <circle cx="569" cy="237" r="2"/>
  </g>
  <g stroke="chocolate" stroke-width="1">
    <line x1="426" y1="671" x2="426" y2="667"/>
    <circle cx="426" cy="671" r="2"/>
    <circle cx="426" cy="667" r="2"/>
  </g>
  <g stroke="chocolate" stroke-width="1">
    <line x1="223" y1="10" x2="221" y2="8"/>
    <circle cx="223" cy="10" r="2"/>
    <circle cx="221" cy="8" r="2"/>
  </g>
  <g stroke="chocolate" stroke-width="1">
    <line x1="121" y1="441" x2="162" y2="417"/>
    <circle cx="121" cy="441" r="2"/>
    <circle cx="162" cy="417" r="2"/>
  </g>
  <g stroke="chocolate" stroke-width="1">
    <line x1="121" y1="441" x2="228" y2="7"/>
    <circle cx="121" cy="441" r="2"/>
    <circle cx="228" cy="7" r="2"/>
  </g>
  <g stroke="chocolate" stroke-width="1">
    <line x1="568" y1="297" x2="221" y2="8"/>
    <circle cx="568" cy="297" r="2"/>
    <circle cx="221" cy="8" r="2"/>
  </g>
  <g stroke="chocolate" stroke-width="1">
    <line x1="568" y1="297" x2="539" y2="263"/>
    <circle cx="568" cy="297" r="2"/>
    <circle cx="539" cy="263" r="2"/>
  </g>
  <g stroke="chocolate" stroke-width="1">
    <line x1="72" y1="404" x2="129" y2="360"/>
    <circle cx="72" cy="404" r="2"/>
    <circle cx="129" cy="360" r="2"/>
  </g>
  <g stroke="chocolate" stroke-width="1">
    <line x1="72" y1="404" x2="225" y2="5"/>
    <circle cx="72" cy="404" r="2"/>
    <circle cx="225" cy="5" r="2"/>
  </g>
  <g stroke="chocolate" stroke-width="1">
    <line x1="604" y1="261" x2="225" y2="5"/>
    <circle cx="604" cy="261" r="2"/>
    <circle cx="225" cy="5" r="2"/>
  </g>
  <g stroke="chocolate" stroke-width="1">
    <line x1="221" y1="8" x2="225" y2="5"/>
    <circle cx="221" cy="8" r="2"/>
    <circle cx="225" cy="5" r="2"/>
  </g>
  <g stroke="chocolate" stroke-width="1">
    <line x1="223" y1="10" x2="228" y2="7"/>
    <circle cx="223" cy="10" r="2"/>
    <circle cx="228" cy="7" r="2"/>
  </g>
  <g stroke="black" stroke-width="1">
    <line x1="88" y1="88" x2="588" y2="88"/>
    <line x1="88" y1="88" x2="88" y2="588"/>
    <line x1="588" y1="588" x2="88" y2="588"/>
    <line x1="588" y1="588" x2="588" y2="88"/>
    <line x1="188" y1="85" x2="188" y2="91"/>
    <line x1="85" y1="188" x2="91" y2="188"/>
    <line x1="188" y1="585" x2="188" y2="591"/>
    <line x1="585" y1="188" x2="591" y2="188"/>
    <line x1="288" y1="85" x2="288" y2="91"/>
    <line x1="85" y1="288" x2="91" y2="288"/>
    <line x1="288" y1="585" x2="288" y2="591"/>
    <line x1="585" y1="288" x2="591" y2="288"/>
    <line x1="388" y1="85" x2="388" y2="91"/>
    <line x1="85" y1="388" x2="91" y2="388"/>
    <line x1="388" y1="585" x2="388" y2="591"/>
    <line x1="585" y1="388" x2="591" y2="388"/>
    <line x1="488" y1="85" x2="488" y2="91"/>
    <line x1="85" y1="488" x2="91" y2="488"/>
    <line x1="488" y1="585" x2="488" y2="591"/>
    <line x1="585" y1="488" x2="591" y2="488"/>
  </g>
  <g stroke="gray" stroke-width="1" stroke-dasharray="5,5">
    <line x1="188" y1="88" x2="188" y2="588"/>
    <line x1="88" y1="188" x2="588" y2="188"/>
    <line x1="288" y1="88" x2="288" y2="588"/>
    <line x1="88" y1="288" x2="588" y2="288"/>
    <line x1="388" y1="88" x2="388" y2="588"/>
    <line x1="88" y1="388" x2="588" y2="388"/>
    <line x1="488" y1="88" x2="488" y2="588"/>
    <line x1="88" y1="488" x2="588" y2="488"/>
  </g>
</svg>
