<?xml version="1.0" standalone="no"?>
<!DOCTYPE svg PUBLIC "-//W3C//DTD SVG 1.1//EN" 
  "http://www.w3.org/Graphics/SVG/1.1/DTD/svg11.dtd">
<svg width="584" height="584" version="1.1" id="toplevel"
    xmlns="http://www.w3.org/2000/svg"
    xmlns:xlink="http://www.w3.org/1999/xlink">
  <polygon points="84,579 264,564 278,541 330,58 124,5 103,74 104,75 43,80"
           fill="bisque"/>
  <g stroke="chocolate" stroke-width="1">
    <line x1="84" y1="579" x2="264" y2="564"/>
    <circle cx="84" cy="579" r="2"/>
    <circle cx="264" cy="564" r="2"/>
  </g>
  <g stroke="chocolate" stroke-width="1">
    <line x1="264" y1="564" x2="278" y2="541"/>
    <circle cx="264" cy="564" r="2"/>
    <circle cx="278" cy="541" r="2"/>
  </g>
  <g stroke="chocolate" stroke-width="1">
    <line x1="155" y1="264" x2="314" y2="206"/>
    <circle cx="155" cy="264" r="2"/>
    <circle cx="314" cy="206" r="2"/>
  </g>
  <g stroke="chocolate" stroke-width="1">
    <line x1="278" y1="541" x2="330" y2="58"/>
    <circle cx="278" cy="541" r="2"/>
    <circle cx="330" cy="58" r="2"/>
  </g>
  <g stroke="chocolate" stroke-width="1">
    <line x1="43" y1="80" x2="292" y2="60"/>
    <circle cx="43" cy="80" r="2"/>
    <circle cx="292" cy="60" r="2"/>
  </g>
  <g stroke="chocolate" stroke-width="1">
    <line x1="103" y1="74" x2="124" y2="5"/>
    <circle cx="103" cy="74" r="2"/>
    <circle cx="124" cy="5" r="2"/>
  </g>
  <g stroke="chocolate" stroke-width="1">
    <line x1="122" y1="15" x2="124" y2="5"/>
    <circle cx="122" cy="15" r="2"/>
    <circle cx="124" cy="5" r="2"/>
  </g>
  <g stroke="chocolate" stroke-width="1">
    <line x1="292" y1="60" x2="330" y2="58"/>
    <circle cx="292" cy="60" r="2"/>
    <circle cx="330" cy="58" r="2"/>
  </g>
  <g stroke="chocolate" stroke-width="1">
    <line x1="84" y1="579" x2="43" y2="80"/>
    <circle cx="84" cy="579" r="2"/>
    <circle cx="43" cy="80" r="2"/>
  </g>
  <g stroke="chocolate" stroke-width="1">
    <line x1="292" y1="60" x2="330" y2="60"/>
    <circle cx="292" cy="60" r="2"/>
    <circle cx="330" cy="60" r="2"/>
  </g>
  <g stroke="chocolate" stroke-width="1">
    <line x1="264" y1="564" x2="155" y2="264"/>
    <circle cx="264" cy="564" r="2"/>
    <circle cx="155" cy="264" r="2"/>
  </g>
  <g stroke="chocolate" stroke-width="1">
    <line x1="314" y1="206" x2="103" y2="74"/>
    <circle cx="314" cy="206" r="2"/>
    <circle cx="103" cy="74" r="2"/>
  </g>
  <g stroke="chocolate" stroke-width="1">
    <line x1="278" y1="541" x2="103" y2="74"/>
    <circle cx="278" cy="541" r="2"/>
    <circle cx="103" cy="74" r="2"/>
  </g>
  <g stroke="chocolate" stroke-width="1">
    <line x1="330" y1="60" x2="122" y2="15"/>
    <circle cx="330" cy="60" r="2"/>
    <circle cx="122" cy="15" r="2"/>
  </g>
  <g stroke="chocolate" stroke-width="1">
    <line x1="330" y1="58" x2="124" y2="5"/>
    <circle cx="330" cy="58" r="2"/>
    <circle cx="124" cy="5" r="2"/>
  </g>
  <g stroke="black" stroke-width="1">
    <line x1="42" y1="42" x2="542" y2="42"/>
    <line x1="42" y1="42" x2="42" y2="542"/>
    <line x1="542" y1="542" x2="42" y2="542"/>
    <line x1="542" y1="542" x2="542" y2="42"/>
    <line x1="142" y1="39" x2="142" y2="45"/>
    <line x1="39" y1="142" x2="45" y2="142"/>
    <line x1="142" y1="539" x2="142" y2="545"/>
    <line x1="539" y1="142" x2="545" y2="142"/>
    <line x1="242" y1="39" x2="242" y2="45"/>
    <line x1="39" y1="242" x2="45" y2="242"/>
    <line x1="242" y1="539" x2="242" y2="545"/>
    <line x1="539" y1="242" x2="545" y2="242"/>
    <line x1="342" y1="39" x2="342" y2="45"/>
    <line x1="39" y1="342" x2="45" y2="342"/>
    <line x1="342" y1="539" x2="342" y2="545"/>
    <line x1="539" y1="342" x2="545" y2="342"/>
    <line x1="442" y1="39" x2="442" y2="45"/>
    <line x1="39" y1="442" x2="45" y2="442"/>
    <line x1="442" y1="539" x2="442" y2="545"/>
    <line x1="539" y1="442" x2="545" y2="442"/>
  </g>
  <g stroke="gray" stroke-width="1" stroke-dasharray="5,5">
    <line x1="142" y1="42" x2="142" y2="542"/>
    <line x1="42" y1="142" x2="542" y2="142"/>
    <line x1="242" y1="42" x2="242" y2="542"/>
    <line x1="42" y1="242" x2="542" y2="242"/>
    <line x1="342" y1="42" x2="342" y2="542"/>
    <line x1="42" y1="342" x2="542" y2="342"/>
    <line x1="442" y1="42" x2="442" y2="542"/>
    <line x1="42" y1="442" x2="542" y2="442"/>
  </g>
</svg>
