<?xml version="1.0" standalone="no"?>
<!DOCTYPE svg PUBLIC "-//W3C//DTD SVG 1.1//EN" 
  "http://www.w3.org/Graphics/SVG/1.1/DTD/svg11.dtd">
<svg width="510" height="510" version="1.1" id="toplevel"
    xmlns="http://www.w3.org/2000/svg"
    xmlns:xlink="http://www.w3.org/1999/xlink">
  <polygon points="261,472 357,472 357,41 346,38 344,45 153,98 157,109 268,169 207,284 292,426 253,463"
           fill="bisque"/>
  <g stroke="chocolate" stroke-width="1">
    <line x1="157" y1="109" x2="153" y2="98"/>
    <circle cx="157" cy="109" r="2"/>
    <circle cx="153" cy="98" r="2"/>
  </g>
  <g stroke="chocolate" stroke-width="1">
    <line x1="357" y1="472" x2="357" y2="41"/>
    <circle cx="357" cy="472" r="2"/>
    <circle cx="357" cy="41" r="2"/>
  </g>
  <g stroke="chocolate" stroke-width="1">
    <line x1="294" y1="430" x2="237" y2="226"/>
    <circle cx="294" cy="430" r="2"/>
    <circle cx="237" cy="226" r="2"/>
  </g>
  <g stroke="chocolate" stroke-width="1">
    <line x1="262" y1="165" x2="239" y2="82"/>
    <circle cx="262" cy="165" r="2"/>
    <circle cx="239" cy="82" r="2"/>
  </g>
  <g stroke="chocolate" stroke-width="1">
    <line x1="294" y1="208" x2="276" y2="154"/>
    <circle cx="294" cy="208" r="2"/>
    <circle cx="276" cy="154" r="2"/>
  </g>
  <g stroke="chocolate" stroke-width="1">
    <line x1="317" y1="282" x2="357" y2="140"/>
    <circle cx="317" cy="282" r="2"/>
    <circle cx="357" cy="140" r="2"/>
  </g>
  <g stroke="chocolate" stroke-width="1">
    <line x1="357" y1="140" x2="332" y2="50"/>
    <circle cx="357" cy="140" r="2"/>
    <circle cx="332" cy="50" r="2"/>
  </g>
  <g stroke="chocolate" stroke-width="1">
    <line x1="319" y1="472" x2="207" y2="284"/>
    <circle cx="319" cy="472" r="2"/>
    <circle cx="207" cy="284" r="2"/>
  </g>
  <g stroke="chocolate" stroke-width="1">
    <line x1="279" y1="257" x2="346" y2="38"/>
    <circle cx="279" cy="257" r="2"/>
    <circle cx="346" cy="38" r="2"/>
  </g>
  <g stroke="chocolate" stroke-width="1">
    <line x1="319" y1="472" x2="357" y2="402"/>
    <circle cx="319" cy="472" r="2"/>
    <circle cx="357" cy="402" r="2"/>
  </g>
  <g stroke="chocolate" stroke-width="1">
    <line x1="357" y1="402" x2="279" y2="257"/>
    <circle cx="357" cy="402" r="2"/>
    <circle cx="279" cy="257" r="2"/>
  </g>
  <g stroke="chocolate" stroke-width="1">
    <line x1="261" y1="472" x2="253" y2="463"/>
    <circle cx="261" cy="472" r="2"/>
    <circle cx="253" cy="463" r="2"/>
  </g>
  <g stroke="chocolate" stroke-width="1">
    <line x1="282" y1="409" x2="357" y2="269"/>
    <circle cx="282" cy="409" r="2"/>
    <circle cx="357" cy="269" r="2"/>
  </g>
  <g stroke="chocolate" stroke-width="1">
    <line x1="357" y1="269" x2="305" y2="172"/>
    <circle cx="357" cy="269" r="2"/>
    <circle cx="305" cy="172" r="2"/>
  </g>
  <g stroke="chocolate" stroke-width="1">
    <line x1="338" y1="472" x2="294" y2="430"/>
    <circle cx="338" cy="472" r="2"/>
    <circle cx="294" cy="430" r="2"/>
  </g>
  <g stroke="chocolate" stroke-width="1">
    <line x1="338" y1="472" x2="357" y2="454"/>
    <circle cx="338" cy="472" r="2"/>
    <circle cx="357" cy="454" r="2"/>
  </g>
  <g stroke="chocolate" stroke-width="1">
    <line x1="357" y1="454" x2="310" y2="409"/>
    <circle cx="357" cy="454" r="2"/>
    <circle cx="310" cy="409" r="2"/>
  </g>
  <g stroke="chocolate" stroke-width="1">
    <line x1="207" y1="284" x2="332" y2="50"/>
    <circle cx="207" cy="284" r="2"/>
    <circle cx="332" cy="50" r="2"/>
  </g>
  <g stroke="chocolate" stroke-width="1">
    <line x1="261" y1="472" x2="357" y2="372"/>
    <circle cx="261" cy="472" r="2"/>
    <circle cx="357" cy="372" r="2"/>
  </g>
  <g stroke="chocolate" stroke-width="1">
    <line x1="357" y1="372" x2="273" y2="284"/>
    <circle cx="357" cy="372" r="2"/>
    <circle cx="273" cy="284" r="2"/>
  </g>
  <g stroke="chocolate" stroke-width="1">
    <line x1="253" y1="463" x2="310" y2="409"/>
    <circle cx="253" cy="463" r="2"/>
    <circle cx="310" cy="409" r="2"/>
  </g>
  <g stroke="chocolate" stroke-width="1">
    <line x1="232" y1="327" x2="273" y2="284"/>
    <circle cx="232" cy="327" r="2"/>
    <circle cx="273" cy="284" r="2"/>
  </g>
  <g stroke="chocolate" stroke-width="1">
    <line x1="261" y1="472" x2="357" y2="472"/>
    <circle cx="261" cy="472" r="2"/>
    <circle cx="357" cy="472" r="2"/>
  </g>
  <g stroke="chocolate" stroke-width="1">
    <line x1="282" y1="409" x2="357" y2="409"/>
    <circle cx="282" cy="409" r="2"/>
    <circle cx="357" cy="409" r="2"/>
  </g>
  <g stroke="chocolate" stroke-width="1">
    <line x1="279" y1="257" x2="357" y2="216"/>
    <circle cx="279" cy="257" r="2"/>
    <circle cx="357" cy="216" r="2"/>
  </g>
  <g stroke="chocolate" stroke-width="1">
    <line x1="357" y1="216" x2="157" y2="109"/>
    <circle cx="357" cy="216" r="2"/>
    <circle cx="157" cy="109" r="2"/>
  </g>
  <g stroke="chocolate" stroke-width="1">
    <line x1="232" y1="327" x2="357" y2="293"/>
    <circle cx="232" cy="327" r="2"/>
    <circle cx="357" cy="293" r="2"/>
  </g>
  <g stroke="chocolate" stroke-width="1">
    <line x1="357" y1="293" x2="317" y2="282"/>
    <circle cx="357" cy="293" r="2"/>
    <circle cx="317" cy="282" r="2"/>
  </g>
  <g stroke="chocolate" stroke-width="1">
    <line x1="207" y1="284" x2="273" y2="284"/>
    <circle cx="207" cy="284" r="2"/>
    <circle cx="273" cy="284" r="2"/>
  </g>
  <g stroke="chocolate" stroke-width="1">
    <line x1="305" y1="172" x2="357" y2="145"/>
    <circle cx="305" cy="172" r="2"/>
    <circle cx="357" cy="145" r="2"/>
  </g>
  <g stroke="chocolate" stroke-width="1">
    <line x1="357" y1="145" x2="239" y2="82"/>
    <circle cx="357" cy="145" r="2"/>
    <circle cx="239" cy="82" r="2"/>
  </g>
  <g stroke="chocolate" stroke-width="1">
    <line x1="237" y1="226" x2="294" y2="208"/>
    <circle cx="237" cy="226" r="2"/>
    <circle cx="294" cy="208" r="2"/>
  </g>
  <g stroke="chocolate" stroke-width="1">
    <line x1="262" y1="165" x2="357" y2="134"/>
    <circle cx="262" cy="165" r="2"/>
    <circle cx="357" cy="134" r="2"/>
  </g>
  <g stroke="chocolate" stroke-width="1">
    <line x1="357" y1="134" x2="320" y2="122"/>
    <circle cx="357" cy="134" r="2"/>
    <circle cx="320" cy="122" r="2"/>
  </g>
  <g stroke="chocolate" stroke-width="1">
    <line x1="276" y1="154" x2="357" y2="132"/>
    <circle cx="276" cy="154" r="2"/>
    <circle cx="357" cy="132" r="2"/>
  </g>
  <g stroke="chocolate" stroke-width="1">
    <line x1="357" y1="132" x2="320" y2="122"/>
    <circle cx="357" cy="132" r="2"/>
    <circle cx="320" cy="122" r="2"/>
  </g>
  <g stroke="chocolate" stroke-width="1">
    <line x1="157" y1="109" x2="239" y2="82"/>
    <circle cx="157" cy="109" r="2"/>
    <circle cx="239" cy="82" r="2"/>
  </g>
  <g stroke="chocolate" stroke-width="1">
    <line x1="332" y1="50" x2="357" y2="42"/>
    <circle cx="332" cy="50" r="2"/>
    <circle cx="357" cy="42" r="2"/>
  </g>
  <g stroke="chocolate" stroke-width="1">
    <line x1="357" y1="42" x2="346" y2="38"/>
    <circle cx="357" cy="42" r="2"/>
    <circle cx="346" cy="38" r="2"/>
  </g>
  <g stroke="chocolate" stroke-width="1">
    <line x1="153" y1="98" x2="357" y2="41"/>
    <circle cx="153" cy="98" r="2"/>
    <circle cx="357" cy="41" r="2"/>
  </g>
  <g stroke="chocolate" stroke-width="1">
    <line x1="357" y1="41" x2="346" y2="38"/>
    <circle cx="357" cy="41" r="2"/>
    <circle cx="346" cy="38" r="2"/>
  </g>
  <g stroke="black" stroke-width="1">
    <line x1="5" y1="5" x2="505" y2="5"/>
    <line x1="5" y1="5" x2="5" y2="505"/>
    <line x1="505" y1="505" x2="5" y2="505"/>
    <line x1="505" y1="505" x2="505" y2="5"/>
    <line x1="105" y1="2" x2="105" y2="8"/>
    <line x1="2" y1="105" x2="8" y2="105"/>
    <line x1="105" y1="502" x2="105" y2="508"/>
    <line x1="502" y1="105" x2="508" y2="105"/>
    <line x1="205" y1="2" x2="205" y2="8"/>
    <line x1="2" y1="205" x2="8" y2="205"/>
    <line x1="205" y1="502" x2="205" y2="508"/>
    <line x1="502" y1="205" x2="508" y2="205"/>
    <line x1="305" y1="2" x2="305" y2="8"/>
    <line x1="2" y1="305" x2="8" y2="305"/>
    <line x1="305" y1="502" x2="305" y2="508"/>
    <line x1="502" y1="305" x2="508" y2="305"/>
    <line x1="405" y1="2" x2="405" y2="8"/>
    <line x1="2" y1="405" x2="8" y2="405"/>
    <line x1="405" y1="502" x2="405" y2="508"/>
    <line x1="502" y1="405" x2="508" y2="405"/>
  </g>
  <g stroke="gray" stroke-width="1" stroke-dasharray="5,5">
    <line x1="105" y1="5" x2="105" y2="505"/>
    <line x1="5" y1="105" x2="505" y2="105"/>
    <line x1="205" y1="5" x2="205" y2="505"/>
    <line x1="5" y1="205" x2="505" y2="205"/>
    <line x1="305" y1="5" x2="305" y2="505"/>
    <line x1="5" y1="305" x2="505" y2="305"/>
    <line x1="405" y1="5" x2="405" y2="505"/>
    <line x1="5" y1="405" x2="505" y2="405"/>
  </g>
</svg>
