<?xml version="1.0" standalone="no"?>
<!DOCTYPE svg PUBLIC "-//W3C//DTD SVG 1.1//EN" 
  "http://www.w3.org/Graphics/SVG/1.1/DTD/svg11.dtd">
<svg width="510" height="510" version="1.1" id="toplevel"
    xmlns="http://www.w3.org/2000/svg"
    xmlns:xlink="http://www.w3.org/1999/xlink">
  <polygon points="224,192 286,192 349,130 349,5 224,5 161,68 161,130"
           fill="bisque"/>
  <polygon points="224,130 224,68 286,68 286,130" fill="bisque"/>
  <g stroke="chocolate" stroke-width="1">
    <line x1="161" y1="130" x2="161" y2="68"/>
    <circle cx="161" cy="130" r="2"/>
    <circle cx="161" cy="68" r="2"/>
  </g>
  <g stroke="chocolate" stroke-width="1">
    <line x1="224" y1="192" x2="224" y2="5"/>
    <circle cx="224" cy="192" r="2"/>
    <circle cx="224" cy="5" r="2"/>
  </g>
  <g stroke="chocolate" stroke-width="1">
    <line x1="286" y1="192" x2="286" y2="5"/>
    <circle cx="286" cy="192" r="2"/>
    <circle cx="286" cy="5" r="2"/>
  </g>
  <g stroke="chocolate" stroke-width="1">
    <line x1="349" y1="130" x2="349" y2="5"/>
    <circle cx="349" cy="130" r="2"/>
    <circle cx="349" cy="5" r="2"/>
  </g>
  <g stroke="chocolate" stroke-width="1">
    <line x1="224" y1="192" x2="161" y2="130"/>
    <circle cx="224" cy="192" r="2"/>
    <circle cx="161" cy="130" r="2"/>
  </g>
  <g stroke="chocolate" stroke-width="1">
    <line x1="286" y1="192" x2="349" y2="130"/>
    <circle cx="286" cy="192" r="2"/>
    <circle cx="349" cy="130" r="2"/>
  </g>
  <g stroke="chocolate" stroke-width="1">
    <line x1="161" y1="68" x2="224" y2="5"/>
    <circle cx="161" cy="68" r="2"/>
    <circle cx="224" cy="5" r="2"/>
  </g>
  <g stroke="chocolate" stroke-width="1">
    <line x1="224" y1="192" x2="286" y2="192"/>
    <circle cx="224" cy="192" r="2"/>
    <circle cx="286" cy="192" r="2"/>
  </g>
  <g stroke="chocolate" stroke-width="1">
    <line x1="161" y1="130" x2="349" y2="130"/>
    <circle cx="161" cy="130" r="2"/>
    <circle cx="349" cy="130" r="2"/>
  </g>
  <g stroke="chocolate" stroke-width="1">
    <line x1="161" y1="68" x2="286" y2="68"/>
    <circle cx="161" cy="68" r="2"/>
    <circle cx="286" cy="68" r="2"/>
  </g>
  <g stroke="chocolate" stroke-width="1">
    <line x1="224" y1="5" x2="349" y2="5"/>
    <circle cx="224" cy="5" r="2"/>
    <circle cx="349" cy="5" r="2"/>
  </g>
  <g stroke="black" stroke-width="1">
    <line x1="5" y1="5" x2="505" y2="5"/>
    <line x1="5" y1="5" x2="5" y2="505"/>
    <line x1="505" y1="505" x2="5" y2="505"/>
    <line x1="505" y1="505" x2="505" y2="5"/>
    <line x1="105" y1="2" x2="105" y2="8"/>
    <line x1="2" y1="105" x2="8" y2="105"/>
    <line x1="105" y1="502" x2="105" y2="508"/>
    <line x1="502" y1="105" x2="508" y2="105"/>
    <line x1="205" y1="2" x2="205" y2="8"/>
    <line x1="2" y1="205" x2="8" y2="205"/>
    <line x1="205" y1="502" x2="205" y2="508"/>
    <line x1="502" y1="205" x2="508" y2="205"/>
    <line x1="305" y1="2" x2="305" y2="8"/>
    <line x1="2" y1="305" x2="8" y2="305"/>
    <line x1="305" y1="502" x2="305" y2="508"/>
    <line x1="502" y1="305" x2="508" y2="305"/>
    <line x1="405" y1="2" x2="405" y2="8"/>
    <line x1="2" y1="405" x2="8" y2="405"/>
    <line x1="405" y1="502" x2="405" y2="508"/>
    <line x1="502" y1="405" x2="508" y2="405"/>
  </g>
  <g stroke="gray" stroke-width="1" stroke-dasharray="5,5">
    <line x1="105" y1="5" x2="105" y2="505"/>
    <line x1="5" y1="105" x2="505" y2="105"/>
    <line x1="205" y1="5" x2="205" y2="505"/>
    <line x1="5" y1="205" x2="505" y2="205"/>
    <line x1="305" y1="5" x2="305" y2="505"/>
    <line x1="5" y1="305" x2="505" y2="305"/>
    <line x1="405" y1="5" x2="405" y2="505"/>
    <line x1="5" y1="405" x2="505" y2="405"/>
  </g>
</svg>
