<?xml version="1.0" standalone="no"?>
<!DOCTYPE svg PUBLIC "-//W3C//DTD SVG 1.1//EN" 
  "http://www.w3.org/Graphics/SVG/1.1/DTD/svg11.dtd">
<svg width="706" height="706" version="1.1" id="toplevel"
    xmlns="http://www.w3.org/2000/svg"
    xmlns:xlink="http://www.w3.org/1999/xlink">
  <polygon points="298,701 420,5 403,17 286,683" fill="bisque"/>
  <g stroke="chocolate" stroke-width="1">
    <line x1="286" y1="683" x2="303" y2="671"/>
    <circle cx="286" cy="683" r="2"/>
    <circle cx="303" cy="671" r="2"/>
  </g>
  <g stroke="chocolate" stroke-width="1">
    <line x1="298" y1="701" x2="420" y2="5"/>
    <circle cx="298" cy="701" r="2"/>
    <circle cx="420" cy="5" r="2"/>
  </g>
  <g stroke="chocolate" stroke-width="1">
    <line x1="286" y1="683" x2="403" y2="17"/>
    <circle cx="286" cy="683" r="2"/>
    <circle cx="403" cy="17" r="2"/>
  </g>
  <g stroke="chocolate" stroke-width="1">
    <line x1="291" y1="653" x2="309" y2="641"/>
    <circle cx="291" cy="653" r="2"/>
    <circle cx="309" cy="641" r="2"/>
  </g>
  <g stroke="chocolate" stroke-width="1">
    <line x1="296" y1="623" x2="314" y2="610"/>
    <circle cx="296" cy="623" r="2"/>
    <circle cx="314" cy="610" r="2"/>
  </g>
  <g stroke="chocolate" stroke-width="1">
    <line x1="302" y1="593" x2="319" y2="580"/>
    <circle cx="302" cy="593" r="2"/>
    <circle cx="319" cy="580" r="2"/>
  </g>
  <g stroke="chocolate" stroke-width="1">
    <line x1="307" y1="562" x2="325" y2="550"/>
    <circle cx="307" cy="562" r="2"/>
    <circle cx="325" cy="550" r="2"/>
  </g>
  <g stroke="chocolate" stroke-width="1">
    <line x1="312" y1="532" x2="330" y2="520"/>
    <circle cx="312" cy="532" r="2"/>
    <circle cx="330" cy="520" r="2"/>
  </g>
  <g stroke="chocolate" stroke-width="1">
    <line x1="318" y1="502" x2="335" y2="489"/>
    <circle cx="318" cy="502" r="2"/>
    <circle cx="335" cy="489" r="2"/>
  </g>
  <g stroke="chocolate" stroke-width="1">
    <line x1="323" y1="471" x2="341" y2="459"/>
    <circle cx="323" cy="471" r="2"/>
    <circle cx="341" cy="459" r="2"/>
  </g>
  <g stroke="chocolate" stroke-width="1">
    <line x1="328" y1="441" x2="346" y2="429"/>
    <circle cx="328" cy="441" r="2"/>
    <circle cx="346" cy="429" r="2"/>
  </g>
  <g stroke="chocolate" stroke-width="1">
    <line x1="333" y1="411" x2="351" y2="398"/>
    <circle cx="333" cy="411" r="2"/>
    <circle cx="351" cy="398" r="2"/>
  </g>
  <g stroke="chocolate" stroke-width="1">
    <line x1="339" y1="381" x2="357" y2="368"/>
    <circle cx="339" cy="381" r="2"/>
    <circle cx="357" cy="368" r="2"/>
  </g>
  <g stroke="chocolate" stroke-width="1">
    <line x1="344" y1="350" x2="362" y2="338"/>
    <circle cx="344" cy="350" r="2"/>
    <circle cx="362" cy="338" r="2"/>
  </g>
  <g stroke="chocolate" stroke-width="1">
    <line x1="349" y1="320" x2="367" y2="308"/>
    <circle cx="349" cy="320" r="2"/>
    <circle cx="367" cy="308" r="2"/>
  </g>
  <g stroke="chocolate" stroke-width="1">
    <line x1="355" y1="290" x2="373" y2="277"/>
    <circle cx="355" cy="290" r="2"/>
    <circle cx="373" cy="277" r="2"/>
  </g>
  <g stroke="chocolate" stroke-width="1">
    <line x1="360" y1="259" x2="378" y2="247"/>
    <circle cx="360" cy="259" r="2"/>
    <circle cx="378" cy="247" r="2"/>
  </g>
  <g stroke="chocolate" stroke-width="1">
    <line x1="365" y1="229" x2="383" y2="217"/>
    <circle cx="365" cy="229" r="2"/>
    <circle cx="383" cy="217" r="2"/>
  </g>
  <g stroke="chocolate" stroke-width="1">
    <line x1="371" y1="199" x2="388" y2="186"/>
    <circle cx="371" cy="199" r="2"/>
    <circle cx="388" cy="186" r="2"/>
  </g>
  <g stroke="chocolate" stroke-width="1">
    <line x1="376" y1="169" x2="394" y2="156"/>
    <circle cx="376" cy="169" r="2"/>
    <circle cx="394" cy="156" r="2"/>
  </g>
  <g stroke="chocolate" stroke-width="1">
    <line x1="381" y1="138" x2="399" y2="126"/>
    <circle cx="381" cy="138" r="2"/>
    <circle cx="399" cy="126" r="2"/>
  </g>
  <g stroke="chocolate" stroke-width="1">
    <line x1="387" y1="108" x2="404" y2="96"/>
    <circle cx="387" cy="108" r="2"/>
    <circle cx="404" cy="96" r="2"/>
  </g>
  <g stroke="chocolate" stroke-width="1">
    <line x1="392" y1="78" x2="410" y2="65"/>
    <circle cx="392" cy="78" r="2"/>
    <circle cx="410" cy="65" r="2"/>
  </g>
  <g stroke="chocolate" stroke-width="1">
    <line x1="397" y1="48" x2="415" y2="35"/>
    <circle cx="397" cy="48" r="2"/>
    <circle cx="415" cy="35" r="2"/>
  </g>
  <g stroke="chocolate" stroke-width="1">
    <line x1="403" y1="17" x2="420" y2="5"/>
    <circle cx="403" cy="17" r="2"/>
    <circle cx="420" cy="5" r="2"/>
  </g>
  <g stroke="chocolate" stroke-width="1">
    <line x1="298" y1="701" x2="286" y2="683"/>
    <circle cx="298" cy="701" r="2"/>
    <circle cx="286" cy="683" r="2"/>
  </g>
  <g stroke="chocolate" stroke-width="1">
    <line x1="303" y1="671" x2="291" y2="653"/>
    <circle cx="303" cy="671" r="2"/>
    <circle cx="291" cy="653" r="2"/>
  </g>
  <g stroke="chocolate" stroke-width="1">
    <line x1="309" y1="641" x2="296" y2="623"/>
    <circle cx="309" cy="641" r="2"/>
    <circle cx="296" cy="623" r="2"/>
  </g>
  <g stroke="chocolate" stroke-width="1">
    <line x1="314" y1="610" x2="302" y2="593"/>
    <circle cx="314" cy="610" r="2"/>
    <circle cx="302" cy="593" r="2"/>
  </g>
  <g stroke="chocolate" stroke-width="1">
    <line x1="319" y1="580" x2="307" y2="562"/>
    <circle cx="319" cy="580" r="2"/>
    <circle cx="307" cy="562" r="2"/>
  </g>
  <g stroke="chocolate" stroke-width="1">
    <line x1="325" y1="550" x2="312" y2="532"/>
    <circle cx="325" cy="550" r="2"/>
    <circle cx="312" cy="532" r="2"/>
  </g>
  <g stroke="chocolate" stroke-width="1">
    <line x1="330" y1="520" x2="318" y2="502"/>
    <circle cx="330" cy="520" r="2"/>
    <circle cx="318" cy="502" r="2"/>
  </g>
  <g stroke="chocolate" stroke-width="1">
    <line x1="335" y1="489" x2="323" y2="471"/>
    <circle cx="335" cy="489" r="2"/>
    <circle cx="323" cy="471" r="2"/>
  </g>
  <g stroke="chocolate" stroke-width="1">
    <line x1="341" y1="459" x2="328" y2="441"/>
    <circle cx="341" cy="459" r="2"/>
    <circle cx="328" cy="441" r="2"/>
  </g>
  <g stroke="chocolate" stroke-width="1">
    <line x1="346" y1="429" x2="333" y2="411"/>
    <circle cx="346" cy="429" r="2"/>
    <circle cx="333" cy="411" r="2"/>
  </g>
  <g stroke="chocolate" stroke-width="1">
    <line x1="351" y1="398" x2="339" y2="381"/>
    <circle cx="351" cy="398" r="2"/>
    <circle cx="339" cy="381" r="2"/>
  </g>
  <g stroke="chocolate" stroke-width="1">
    <line x1="357" y1="368" x2="344" y2="350"/>
    <circle cx="357" cy="368" r="2"/>
    <circle cx="344" cy="350" r="2"/>
  </g>
  <g stroke="chocolate" stroke-width="1">
    <line x1="362" y1="338" x2="349" y2="320"/>
    <circle cx="362" cy="338" r="2"/>
    <circle cx="349" cy="320" r="2"/>
  </g>
  <g stroke="chocolate" stroke-width="1">
    <line x1="367" y1="308" x2="355" y2="290"/>
    <circle cx="367" cy="308" r="2"/>
    <circle cx="355" cy="290" r="2"/>
  </g>
  <g stroke="chocolate" stroke-width="1">
    <line x1="373" y1="277" x2="360" y2="259"/>
    <circle cx="373" cy="277" r="2"/>
    <circle cx="360" cy="259" r="2"/>
  </g>
  <g stroke="chocolate" stroke-width="1">
    <line x1="378" y1="247" x2="365" y2="229"/>
    <circle cx="378" cy="247" r="2"/>
    <circle cx="365" cy="229" r="2"/>
  </g>
  <g stroke="chocolate" stroke-width="1">
    <line x1="383" y1="217" x2="371" y2="199"/>
    <circle cx="383" cy="217" r="2"/>
    <circle cx="371" cy="199" r="2"/>
  </g>
  <g stroke="chocolate" stroke-width="1">
    <line x1="388" y1="186" x2="376" y2="169"/>
    <circle cx="388" cy="186" r="2"/>
    <circle cx="376" cy="169" r="2"/>
  </g>
  <g stroke="chocolate" stroke-width="1">
    <line x1="394" y1="156" x2="381" y2="138"/>
    <circle cx="394" cy="156" r="2"/>
    <circle cx="381" cy="138" r="2"/>
  </g>
  <g stroke="chocolate" stroke-width="1">
    <line x1="399" y1="126" x2="387" y2="108"/>
    <circle cx="399" cy="126" r="2"/>
    <circle cx="387" cy="108" r="2"/>
  </g>
  <g stroke="chocolate" stroke-width="1">
    <line x1="404" y1="96" x2="392" y2="78"/>
    <circle cx="404" cy="96" r="2"/>
    <circle cx="392" cy="78" r="2"/>
  </g>
  <g stroke="chocolate" stroke-width="1">
    <line x1="410" y1="65" x2="397" y2="48"/>
    <circle cx="410" cy="65" r="2"/>
    <circle cx="397" cy="48" r="2"/>
  </g>
  <g stroke="chocolate" stroke-width="1">
    <line x1="415" y1="35" x2="403" y2="17"/>
    <circle cx="415" cy="35" r="2"/>
    <circle cx="403" cy="17" r="2"/>
  </g>
  <g stroke="black" stroke-width="1">
    <line x1="103" y1="103" x2="603" y2="103"/>
    <line x1="103" y1="103" x2="103" y2="603"/>
    <line x1="603" y1="603" x2="103" y2="603"/>
    <line x1="603" y1="603" x2="603" y2="103"/>
    <line x1="203" y1="100" x2="203" y2="106"/>
    <line x1="100" y1="203" x2="106" y2="203"/>
    <line x1="203" y1="600" x2="203" y2="606"/>
    <line x1="600" y1="203" x2="606" y2="203"/>
    <line x1="303" y1="100" x2="303" y2="106"/>
    <line x1="100" y1="303" x2="106" y2="303"/>
    <line x1="303" y1="600" x2="303" y2="606"/>
    <line x1="600" y1="303" x2="606" y2="303"/>
    <line x1="403" y1="100" x2="403" y2="106"/>
    <line x1="100" y1="403" x2="106" y2="403"/>
    <line x1="403" y1="600" x2="403" y2="606"/>
    <line x1="600" y1="403" x2="606" y2="403"/>
    <line x1="503" y1="100" x2="503" y2="106"/>
    <line x1="100" y1="503" x2="106" y2="503"/>
    <line x1="503" y1="600" x2="503" y2="606"/>
    <line x1="600" y1="503" x2="606" y2="503"/>
  </g>
  <g stroke="gray" stroke-width="1" stroke-dasharray="5,5">
    <line x1="203" y1="103" x2="203" y2="603"/>
    <line x1="103" y1="203" x2="603" y2="203"/>
    <line x1="303" y1="103" x2="303" y2="603"/>
    <line x1="103" y1="303" x2="603" y2="303"/>
    <line x1="403" y1="103" x2="403" y2="603"/>
    <line x1="103" y1="403" x2="603" y2="403"/>
    <line x1="503" y1="103" x2="503" y2="603"/>
    <line x1="103" y1="503" x2="603" y2="503"/>
  </g>
</svg>
