<?xml version="1.0" standalone="no"?>
<!DOCTYPE svg PUBLIC "-//W3C//DTD SVG 1.1//EN" 
  "http://www.w3.org/Graphics/SVG/1.1/DTD/svg11.dtd">
<svg width="510" height="510" version="1.1" id="toplevel"
    xmlns="http://www.w3.org/2000/svg"
    xmlns:xlink="http://www.w3.org/1999/xlink">
  <polygon points="396,409 441,300 409,223 486,191 377,146 300,178 268,101 223,210 255,287 178,319 287,364 364,332"
           fill="bisque"/>
  <g stroke="chocolate" stroke-width="1">
    <line x1="287" y1="364" x2="441" y2="300"/>
    <circle cx="287" cy="364" r="2"/>
    <circle cx="441" cy="300" r="2"/>
  </g>
  <g stroke="chocolate" stroke-width="1">
    <line x1="178" y1="319" x2="486" y2="191"/>
    <circle cx="178" cy="319" r="2"/>
    <circle cx="486" cy="191" r="2"/>
  </g>
  <g stroke="chocolate" stroke-width="1">
    <line x1="396" y1="409" x2="441" y2="300"/>
    <circle cx="396" cy="409" r="2"/>
    <circle cx="441" cy="300" r="2"/>
  </g>
  <g stroke="chocolate" stroke-width="1">
    <line x1="364" y1="332" x2="431" y2="168"/>
    <circle cx="364" cy="332" r="2"/>
    <circle cx="431" cy="168" r="2"/>
  </g>
  <g stroke="chocolate" stroke-width="1">
    <line x1="223" y1="210" x2="377" y2="146"/>
    <circle cx="223" cy="210" r="2"/>
    <circle cx="377" cy="146" r="2"/>
  </g>
  <g stroke="chocolate" stroke-width="1">
    <line x1="287" y1="364" x2="377" y2="146"/>
    <circle cx="287" cy="364" r="2"/>
    <circle cx="377" cy="146" r="2"/>
  </g>
  <g stroke="chocolate" stroke-width="1">
    <line x1="233" y1="342" x2="300" y2="178"/>
    <circle cx="233" cy="342" r="2"/>
    <circle cx="300" cy="178" r="2"/>
  </g>
  <g stroke="chocolate" stroke-width="1">
    <line x1="287" y1="364" x2="178" y2="319"/>
    <circle cx="287" cy="364" r="2"/>
    <circle cx="178" cy="319" r="2"/>
  </g>
  <g stroke="chocolate" stroke-width="1">
    <line x1="223" y1="210" x2="268" y2="101"/>
    <circle cx="223" cy="210" r="2"/>
    <circle cx="268" cy="101" r="2"/>
  </g>
  <g stroke="chocolate" stroke-width="1">
    <line x1="418" y1="354" x2="255" y2="287"/>
    <circle cx="418" cy="354" r="2"/>
    <circle cx="255" cy="287" r="2"/>
  </g>
  <g stroke="chocolate" stroke-width="1">
    <line x1="441" y1="300" x2="223" y2="210"/>
    <circle cx="441" cy="300" r="2"/>
    <circle cx="223" cy="210" r="2"/>
  </g>
  <g stroke="chocolate" stroke-width="1">
    <line x1="409" y1="223" x2="245" y2="156"/>
    <circle cx="409" cy="223" r="2"/>
    <circle cx="245" cy="156" r="2"/>
  </g>
  <g stroke="chocolate" stroke-width="1">
    <line x1="287" y1="364" x2="223" y2="210"/>
    <circle cx="287" cy="364" r="2"/>
    <circle cx="223" cy="210" r="2"/>
  </g>
  <g stroke="chocolate" stroke-width="1">
    <line x1="396" y1="409" x2="268" y2="101"/>
    <circle cx="396" cy="409" r="2"/>
    <circle cx="268" cy="101" r="2"/>
  </g>
  <g stroke="chocolate" stroke-width="1">
    <line x1="486" y1="191" x2="377" y2="146"/>
    <circle cx="486" cy="191" r="2"/>
    <circle cx="377" cy="146" r="2"/>
  </g>
  <g stroke="chocolate" stroke-width="1">
    <line x1="441" y1="300" x2="377" y2="146"/>
    <circle cx="441" cy="300" r="2"/>
    <circle cx="377" cy="146" r="2"/>
  </g>
  <g stroke="black" stroke-width="1">
    <line x1="5" y1="5" x2="505" y2="5"/>
    <line x1="5" y1="5" x2="5" y2="505"/>
    <line x1="505" y1="505" x2="5" y2="505"/>
    <line x1="505" y1="505" x2="505" y2="5"/>
    <line x1="105" y1="2" x2="105" y2="8"/>
    <line x1="2" y1="105" x2="8" y2="105"/>
    <line x1="105" y1="502" x2="105" y2="508"/>
    <line x1="502" y1="105" x2="508" y2="105"/>
    <line x1="205" y1="2" x2="205" y2="8"/>
    <line x1="2" y1="205" x2="8" y2="205"/>
    <line x1="205" y1="502" x2="205" y2="508"/>
    <line x1="502" y1="205" x2="508" y2="205"/>
    <line x1="305" y1="2" x2="305" y2="8"/>
    <line x1="2" y1="305" x2="8" y2="305"/>
    <line x1="305" y1="502" x2="305" y2="508"/>
    <line x1="502" y1="305" x2="508" y2="305"/>
    <line x1="405" y1="2" x2="405" y2="8"/>
    <line x1="2" y1="405" x2="8" y2="405"/>
    <line x1="405" y1="502" x2="405" y2="508"/>
    <line x1="502" y1="405" x2="508" y2="405"/>
  </g>
  <g stroke="gray" stroke-width="1" stroke-dasharray="5,5">
    <line x1="105" y1="5" x2="105" y2="505"/>
    <line x1="5" y1="105" x2="505" y2="105"/>
    <line x1="205" y1="5" x2="205" y2="505"/>
    <line x1="5" y1="205" x2="505" y2="205"/>
    <line x1="305" y1="5" x2="305" y2="505"/>
    <line x1="5" y1="305" x2="505" y2="305"/>
    <line x1="405" y1="5" x2="405" y2="505"/>
    <line x1="5" y1="405" x2="505" y2="405"/>
  </g>
</svg>
