<?xml version="1.0" standalone="no"?>
<!DOCTYPE svg PUBLIC "-//W3C//DTD SVG 1.1//EN" 
  "http://www.w3.org/Graphics/SVG/1.1/DTD/svg11.dtd">
<svg width="510" height="510" version="1.1" id="toplevel"
    xmlns="http://www.w3.org/2000/svg"
    xmlns:xlink="http://www.w3.org/1999/xlink">
  <polygon points="255,388 372,372 422,305 488,355 472,238 405,188 455,122 338,138 288,205 222,155 238,272 305,322"
           fill="bisque"/>
  <g stroke="chocolate" stroke-width="1">
    <line x1="372" y1="372" x2="472" y2="238"/>
    <circle cx="372" cy="372" r="2"/>
    <circle cx="472" cy="238" r="2"/>
  </g>
  <g stroke="chocolate" stroke-width="1">
    <line x1="255" y1="388" x2="455" y2="122"/>
    <circle cx="255" cy="388" r="2"/>
    <circle cx="455" cy="122" r="2"/>
  </g>
  <g stroke="chocolate" stroke-width="1">
    <line x1="255" y1="388" x2="372" y2="372"/>
    <circle cx="255" cy="388" r="2"/>
    <circle cx="372" cy="372" r="2"/>
  </g>
  <g stroke="chocolate" stroke-width="1">
    <line x1="238" y1="272" x2="338" y2="138"/>
    <circle cx="238" cy="272" r="2"/>
    <circle cx="338" cy="138" r="2"/>
  </g>
  <g stroke="chocolate" stroke-width="1">
    <line x1="305" y1="322" x2="480" y2="297"/>
    <circle cx="305" cy="322" r="2"/>
    <circle cx="480" cy="297" r="2"/>
  </g>
  <g stroke="chocolate" stroke-width="1">
    <line x1="238" y1="272" x2="472" y2="238"/>
    <circle cx="238" cy="272" r="2"/>
    <circle cx="472" cy="238" r="2"/>
  </g>
  <g stroke="chocolate" stroke-width="1">
    <line x1="238" y1="272" x2="222" y2="155"/>
    <circle cx="238" cy="272" r="2"/>
    <circle cx="222" cy="155" r="2"/>
  </g>
  <g stroke="chocolate" stroke-width="1">
    <line x1="313" y1="380" x2="288" y2="205"/>
    <circle cx="313" cy="380" r="2"/>
    <circle cx="288" cy="205" r="2"/>
  </g>
  <g stroke="chocolate" stroke-width="1">
    <line x1="372" y1="372" x2="338" y2="138"/>
    <circle cx="372" cy="372" r="2"/>
    <circle cx="338" cy="138" r="2"/>
  </g>
  <g stroke="chocolate" stroke-width="1">
    <line x1="230" y1="213" x2="405" y2="188"/>
    <circle cx="230" cy="213" r="2"/>
    <circle cx="405" cy="188" r="2"/>
  </g>
  <g stroke="chocolate" stroke-width="1">
    <line x1="422" y1="305" x2="397" y2="130"/>
    <circle cx="422" cy="305" r="2"/>
    <circle cx="397" cy="130" r="2"/>
  </g>
  <g stroke="chocolate" stroke-width="1">
    <line x1="488" y1="355" x2="472" y2="238"/>
    <circle cx="488" cy="355" r="2"/>
    <circle cx="472" cy="238" r="2"/>
  </g>
  <g stroke="chocolate" stroke-width="1">
    <line x1="338" y1="138" x2="455" y2="122"/>
    <circle cx="338" cy="138" r="2"/>
    <circle cx="455" cy="122" r="2"/>
  </g>
  <g stroke="chocolate" stroke-width="1">
    <line x1="372" y1="372" x2="238" y2="272"/>
    <circle cx="372" cy="372" r="2"/>
    <circle cx="238" cy="272" r="2"/>
  </g>
  <g stroke="chocolate" stroke-width="1">
    <line x1="488" y1="355" x2="222" y2="155"/>
    <circle cx="488" cy="355" r="2"/>
    <circle cx="222" cy="155" r="2"/>
  </g>
  <g stroke="chocolate" stroke-width="1">
    <line x1="472" y1="238" x2="338" y2="138"/>
    <circle cx="472" cy="238" r="2"/>
    <circle cx="338" cy="138" r="2"/>
  </g>
  <g stroke="black" stroke-width="1">
    <line x1="5" y1="5" x2="505" y2="5"/>
    <line x1="5" y1="5" x2="5" y2="505"/>
    <line x1="505" y1="505" x2="5" y2="505"/>
    <line x1="505" y1="505" x2="505" y2="5"/>
    <line x1="105" y1="2" x2="105" y2="8"/>
    <line x1="2" y1="105" x2="8" y2="105"/>
    <line x1="105" y1="502" x2="105" y2="508"/>
    <line x1="502" y1="105" x2="508" y2="105"/>
    <line x1="205" y1="2" x2="205" y2="8"/>
    <line x1="2" y1="205" x2="8" y2="205"/>
    <line x1="205" y1="502" x2="205" y2="508"/>
    <line x1="502" y1="205" x2="508" y2="205"/>
    <line x1="305" y1="2" x2="305" y2="8"/>
    <line x1="2" y1="305" x2="8" y2="305"/>
    <line x1="305" y1="502" x2="305" y2="508"/>
    <line x1="502" y1="305" x2="508" y2="305"/>
    <line x1="405" y1="2" x2="405" y2="8"/>
    <line x1="2" y1="405" x2="8" y2="405"/>
    <line x1="405" y1="502" x2="405" y2="508"/>
    <line x1="502" y1="405" x2="508" y2="405"/>
  </g>
  <g stroke="gray" stroke-width="1" stroke-dasharray="5,5">
    <line x1="105" y1="5" x2="105" y2="505"/>
    <line x1="5" y1="105" x2="505" y2="105"/>
    <line x1="205" y1="5" x2="205" y2="505"/>
    <line x1="5" y1="205" x2="505" y2="205"/>
    <line x1="305" y1="5" x2="305" y2="505"/>
    <line x1="5" y1="305" x2="505" y2="305"/>
    <line x1="405" y1="5" x2="405" y2="505"/>
    <line x1="5" y1="405" x2="505" y2="405"/>
  </g>
</svg>
