<?xml version="1.0" standalone="no"?>
<!DOCTYPE svg PUBLIC "-//W3C//DTD SVG 1.1//EN" 
  "http://www.w3.org/Graphics/SVG/1.1/DTD/svg11.dtd">
<svg width="510" height="510" version="1.1" id="toplevel"
    xmlns="http://www.w3.org/2000/svg"
    xmlns:xlink="http://www.w3.org/1999/xlink">
  <polygon points="319,332 364,223 332,146 409,114 300,69 223,101 191,24 146,133 178,210 101,242 210,287 287,255"
           fill="bisque"/>
  <g stroke="chocolate" stroke-width="1">
    <line x1="319" y1="332" x2="364" y2="223"/>
    <circle cx="319" cy="332" r="2"/>
    <circle cx="364" cy="223" r="2"/>
  </g>
  <g stroke="chocolate" stroke-width="1">
    <line x1="287" y1="255" x2="354" y2="92"/>
    <circle cx="287" cy="255" r="2"/>
    <circle cx="354" cy="92" r="2"/>
  </g>
  <g stroke="chocolate" stroke-width="1">
    <line x1="210" y1="287" x2="300" y2="69"/>
    <circle cx="210" cy="287" r="2"/>
    <circle cx="300" cy="69" r="2"/>
  </g>
  <g stroke="chocolate" stroke-width="1">
    <line x1="156" y1="265" x2="223" y2="101"/>
    <circle cx="156" cy="265" r="2"/>
    <circle cx="223" cy="101" r="2"/>
  </g>
  <g stroke="chocolate" stroke-width="1">
    <line x1="146" y1="133" x2="191" y2="24"/>
    <circle cx="146" cy="133" r="2"/>
    <circle cx="191" cy="24" r="2"/>
  </g>
  <g stroke="chocolate" stroke-width="1">
    <line x1="210" y1="287" x2="146" y2="133"/>
    <circle cx="210" cy="287" r="2"/>
    <circle cx="146" cy="133" r="2"/>
  </g>
  <g stroke="chocolate" stroke-width="1">
    <line x1="319" y1="332" x2="191" y2="24"/>
    <circle cx="319" cy="332" r="2"/>
    <circle cx="191" cy="24" r="2"/>
  </g>
  <g stroke="chocolate" stroke-width="1">
    <line x1="364" y1="223" x2="300" y2="69"/>
    <circle cx="364" cy="223" r="2"/>
    <circle cx="300" cy="69" r="2"/>
  </g>
  <g stroke="chocolate" stroke-width="1">
    <line x1="210" y1="287" x2="364" y2="223"/>
    <circle cx="210" cy="287" r="2"/>
    <circle cx="364" cy="223" r="2"/>
  </g>
  <g stroke="chocolate" stroke-width="1">
    <line x1="210" y1="287" x2="101" y2="242"/>
    <circle cx="210" cy="287" r="2"/>
    <circle cx="101" cy="242" r="2"/>
  </g>
  <g stroke="chocolate" stroke-width="1">
    <line x1="101" y1="242" x2="409" y2="114"/>
    <circle cx="101" cy="242" r="2"/>
    <circle cx="409" cy="114" r="2"/>
  </g>
  <g stroke="chocolate" stroke-width="1">
    <line x1="342" y1="277" x2="178" y2="210"/>
    <circle cx="342" cy="277" r="2"/>
    <circle cx="178" cy="210" r="2"/>
  </g>
  <g stroke="chocolate" stroke-width="1">
    <line x1="146" y1="133" x2="300" y2="69"/>
    <circle cx="146" cy="133" r="2"/>
    <circle cx="300" cy="69" r="2"/>
  </g>
  <g stroke="chocolate" stroke-width="1">
    <line x1="364" y1="223" x2="146" y2="133"/>
    <circle cx="364" cy="223" r="2"/>
    <circle cx="146" cy="133" r="2"/>
  </g>
  <g stroke="chocolate" stroke-width="1">
    <line x1="332" y1="146" x2="168" y2="79"/>
    <circle cx="332" cy="146" r="2"/>
    <circle cx="168" cy="79" r="2"/>
  </g>
  <g stroke="chocolate" stroke-width="1">
    <line x1="409" y1="114" x2="300" y2="69"/>
    <circle cx="409" cy="114" r="2"/>
    <circle cx="300" cy="69" r="2"/>
  </g>
  <g stroke="black" stroke-width="1">
    <line x1="5" y1="5" x2="505" y2="5"/>
    <line x1="5" y1="5" x2="5" y2="505"/>
    <line x1="505" y1="505" x2="5" y2="505"/>
    <line x1="505" y1="505" x2="505" y2="5"/>
    <line x1="105" y1="2" x2="105" y2="8"/>
    <line x1="2" y1="105" x2="8" y2="105"/>
    <line x1="105" y1="502" x2="105" y2="508"/>
    <line x1="502" y1="105" x2="508" y2="105"/>
    <line x1="205" y1="2" x2="205" y2="8"/>
    <line x1="2" y1="205" x2="8" y2="205"/>
    <line x1="205" y1="502" x2="205" y2="508"/>
    <line x1="502" y1="205" x2="508" y2="205"/>
    <line x1="305" y1="2" x2="305" y2="8"/>
    <line x1="2" y1="305" x2="8" y2="305"/>
    <line x1="305" y1="502" x2="305" y2="508"/>
    <line x1="502" y1="305" x2="508" y2="305"/>
    <line x1="405" y1="2" x2="405" y2="8"/>
    <line x1="2" y1="405" x2="8" y2="405"/>
    <line x1="405" y1="502" x2="405" y2="508"/>
    <line x1="502" y1="405" x2="508" y2="405"/>
  </g>
  <g stroke="gray" stroke-width="1" stroke-dasharray="5,5">
    <line x1="105" y1="5" x2="105" y2="505"/>
    <line x1="5" y1="105" x2="505" y2="105"/>
    <line x1="205" y1="5" x2="205" y2="505"/>
    <line x1="5" y1="205" x2="505" y2="205"/>
    <line x1="305" y1="5" x2="305" y2="505"/>
    <line x1="5" y1="305" x2="505" y2="305"/>
    <line x1="405" y1="5" x2="405" y2="505"/>
    <line x1="5" y1="405" x2="505" y2="405"/>
  </g>
</svg>
