<?xml version="1.0" standalone="no"?>
<!DOCTYPE svg PUBLIC "-//W3C//DTD SVG 1.1//EN" 
  "http://www.w3.org/Graphics/SVG/1.1/DTD/svg11.dtd">
<svg width="510" height="510" version="1.1" id="toplevel"
    xmlns="http://www.w3.org/2000/svg"
    xmlns:xlink="http://www.w3.org/1999/xlink">
  <polygon points="292,382 392,332 418,304 418,215 292,215 292,226 223,174 228,167 162,128 92,232"
           fill="bisque"/>
  <g stroke="chocolate" stroke-width="1">
    <line x1="164" y1="274" x2="92" y2="232"/>
    <circle cx="164" cy="274" r="2"/>
    <circle cx="92" cy="232" r="2"/>
  </g>
  <g stroke="chocolate" stroke-width="1">
    <line x1="292" y1="382" x2="92" y2="232"/>
    <circle cx="292" cy="382" r="2"/>
    <circle cx="92" cy="232" r="2"/>
  </g>
  <g stroke="chocolate" stroke-width="1">
    <line x1="402" y1="306" x2="418" y2="304"/>
    <circle cx="402" cy="306" r="2"/>
    <circle cx="418" cy="304" r="2"/>
  </g>
  <g stroke="chocolate" stroke-width="1">
    <line x1="292" y1="382" x2="392" y2="332"/>
    <circle cx="292" cy="382" r="2"/>
    <circle cx="392" cy="332" r="2"/>
  </g>
  <g stroke="chocolate" stroke-width="1">
    <line x1="292" y1="215" x2="418" y2="215"/>
    <circle cx="292" cy="215" r="2"/>
    <circle cx="418" cy="215" r="2"/>
  </g>
  <g stroke="chocolate" stroke-width="1">
    <line x1="228" y1="167" x2="162" y2="128"/>
    <circle cx="228" cy="167" r="2"/>
    <circle cx="162" cy="128" r="2"/>
  </g>
  <g stroke="chocolate" stroke-width="1">
    <line x1="409" y1="313" x2="162" y2="128"/>
    <circle cx="409" cy="313" r="2"/>
    <circle cx="162" cy="128" r="2"/>
  </g>
  <g stroke="chocolate" stroke-width="1">
    <line x1="409" y1="313" x2="402" y2="306"/>
    <circle cx="409" cy="313" r="2"/>
    <circle cx="402" cy="306" r="2"/>
  </g>
  <g stroke="chocolate" stroke-width="1">
    <line x1="392" y1="332" x2="418" y2="304"/>
    <circle cx="392" cy="332" r="2"/>
    <circle cx="418" cy="304" r="2"/>
  </g>
  <g stroke="chocolate" stroke-width="1">
    <line x1="392" y1="332" x2="402" y2="306"/>
    <circle cx="392" cy="332" r="2"/>
    <circle cx="402" cy="306" r="2"/>
  </g>
  <g stroke="chocolate" stroke-width="1">
    <line x1="292" y1="382" x2="292" y2="215"/>
    <circle cx="292" cy="382" r="2"/>
    <circle cx="292" cy="215" r="2"/>
  </g>
  <g stroke="chocolate" stroke-width="1">
    <line x1="418" y1="304" x2="418" y2="215"/>
    <circle cx="418" cy="304" r="2"/>
    <circle cx="418" cy="215" r="2"/>
  </g>
  <g stroke="chocolate" stroke-width="1">
    <line x1="164" y1="274" x2="228" y2="167"/>
    <circle cx="164" cy="274" r="2"/>
    <circle cx="228" cy="167" r="2"/>
  </g>
  <g stroke="chocolate" stroke-width="1">
    <line x1="92" y1="232" x2="162" y2="128"/>
    <circle cx="92" cy="232" r="2"/>
    <circle cx="162" cy="128" r="2"/>
  </g>
  <g stroke="black" stroke-width="1">
    <line x1="5" y1="5" x2="505" y2="5"/>
    <line x1="5" y1="5" x2="5" y2="505"/>
    <line x1="505" y1="505" x2="5" y2="505"/>
    <line x1="505" y1="505" x2="505" y2="5"/>
    <line x1="105" y1="2" x2="105" y2="8"/>
    <line x1="2" y1="105" x2="8" y2="105"/>
    <line x1="105" y1="502" x2="105" y2="508"/>
    <line x1="502" y1="105" x2="508" y2="105"/>
    <line x1="205" y1="2" x2="205" y2="8"/>
    <line x1="2" y1="205" x2="8" y2="205"/>
    <line x1="205" y1="502" x2="205" y2="508"/>
    <line x1="502" y1="205" x2="508" y2="205"/>
    <line x1="305" y1="2" x2="305" y2="8"/>
    <line x1="2" y1="305" x2="8" y2="305"/>
    <line x1="305" y1="502" x2="305" y2="508"/>
    <line x1="502" y1="305" x2="508" y2="305"/>
    <line x1="405" y1="2" x2="405" y2="8"/>
    <line x1="2" y1="405" x2="8" y2="405"/>
    <line x1="405" y1="502" x2="405" y2="508"/>
    <line x1="502" y1="405" x2="508" y2="405"/>
  </g>
  <g stroke="gray" stroke-width="1" stroke-dasharray="5,5">
    <line x1="105" y1="5" x2="105" y2="505"/>
    <line x1="5" y1="105" x2="505" y2="105"/>
    <line x1="205" y1="5" x2="205" y2="505"/>
    <line x1="5" y1="205" x2="505" y2="205"/>
    <line x1="305" y1="5" x2="305" y2="505"/>
    <line x1="5" y1="305" x2="505" y2="305"/>
    <line x1="405" y1="5" x2="405" y2="505"/>
    <line x1="5" y1="405" x2="505" y2="405"/>
  </g>
</svg>
