<?xml version="1.0" standalone="no"?>
<!DOCTYPE svg PUBLIC "-//W3C//DTD SVG 1.1//EN" 
  "http://www.w3.org/Graphics/SVG/1.1/DTD/svg11.dtd">
<svg width="548" height="548" version="1.1" id="toplevel"
    xmlns="http://www.w3.org/2000/svg"
    xmlns:xlink="http://www.w3.org/1999/xlink">
  <polygon points="388,524 439,524 459,372 540,358 543,328 521,321 478,232 32,304 5,405 388,510"
           fill="bisque"/>
  <g stroke="chocolate" stroke-width="1">
    <line x1="117" y1="431" x2="32" y2="304"/>
    <circle cx="117" cy="431" r="2"/>
    <circle cx="32" cy="304" r="2"/>
  </g>
  <g stroke="chocolate" stroke-width="1">
    <line x1="147" y1="425" x2="125" y2="400"/>
    <circle cx="147" cy="425" r="2"/>
    <circle cx="125" cy="400" r="2"/>
  </g>
  <g stroke="chocolate" stroke-width="1">
    <line x1="540" y1="358" x2="543" y2="328"/>
    <circle cx="540" cy="358" r="2"/>
    <circle cx="543" cy="328" r="2"/>
  </g>
  <g stroke="chocolate" stroke-width="1">
    <line x1="439" y1="524" x2="478" y2="232"/>
    <circle cx="439" cy="524" r="2"/>
    <circle cx="478" cy="232" r="2"/>
  </g>
  <g stroke="chocolate" stroke-width="1">
    <line x1="388" y1="524" x2="439" y2="524"/>
    <circle cx="388" cy="524" r="2"/>
    <circle cx="439" cy="524" r="2"/>
  </g>
  <g stroke="chocolate" stroke-width="1">
    <line x1="388" y1="524" x2="388" y2="247"/>
    <circle cx="388" cy="524" r="2"/>
    <circle cx="388" cy="247" r="2"/>
  </g>
  <g stroke="chocolate" stroke-width="1">
    <line x1="432" y1="377" x2="431" y2="334"/>
    <circle cx="432" cy="377" r="2"/>
    <circle cx="431" cy="334" r="2"/>
  </g>
  <g stroke="chocolate" stroke-width="1">
    <line x1="435" y1="376" x2="431" y2="334"/>
    <circle cx="435" cy="376" r="2"/>
    <circle cx="431" cy="334" r="2"/>
  </g>
  <g stroke="chocolate" stroke-width="1">
    <line x1="439" y1="524" x2="5" y2="405"/>
    <circle cx="439" cy="524" r="2"/>
    <circle cx="5" cy="405" r="2"/>
  </g>
  <g stroke="chocolate" stroke-width="1">
    <line x1="435" y1="376" x2="435" y2="375"/>
    <circle cx="435" cy="376" r="2"/>
    <circle cx="435" cy="375" r="2"/>
  </g>
  <g stroke="chocolate" stroke-width="1">
    <line x1="432" y1="377" x2="388" y2="247"/>
    <circle cx="432" cy="377" r="2"/>
    <circle cx="388" cy="247" r="2"/>
  </g>
  <g stroke="chocolate" stroke-width="1">
    <line x1="523" y1="361" x2="536" y2="351"/>
    <circle cx="523" cy="361" r="2"/>
    <circle cx="536" cy="351" r="2"/>
  </g>
  <g stroke="chocolate" stroke-width="1">
    <line x1="418" y1="379" x2="484" y2="315"/>
    <circle cx="418" cy="379" r="2"/>
    <circle cx="484" cy="315" r="2"/>
  </g>
  <g stroke="chocolate" stroke-width="1">
    <line x1="117" y1="431" x2="125" y2="400"/>
    <circle cx="117" cy="431" r="2"/>
    <circle cx="125" cy="400" r="2"/>
  </g>
  <g stroke="chocolate" stroke-width="1">
    <line x1="367" y1="388" x2="425" y2="327"/>
    <circle cx="367" cy="388" r="2"/>
    <circle cx="425" cy="327" r="2"/>
  </g>
  <g stroke="chocolate" stroke-width="1">
    <line x1="540" y1="358" x2="478" y2="232"/>
    <circle cx="540" cy="358" r="2"/>
    <circle cx="478" cy="232" r="2"/>
  </g>
  <g stroke="chocolate" stroke-width="1">
    <line x1="367" y1="388" x2="197" y2="300"/>
    <circle cx="367" cy="388" r="2"/>
    <circle cx="197" cy="300" r="2"/>
  </g>
  <g stroke="chocolate" stroke-width="1">
    <line x1="147" y1="425" x2="207" y2="281"/>
    <circle cx="147" cy="425" r="2"/>
    <circle cx="207" cy="281" r="2"/>
  </g>
  <g stroke="chocolate" stroke-width="1">
    <line x1="5" y1="405" x2="32" y2="304"/>
    <circle cx="5" cy="405" r="2"/>
    <circle cx="32" cy="304" r="2"/>
  </g>
  <g stroke="chocolate" stroke-width="1">
    <line x1="197" y1="300" x2="207" y2="281"/>
    <circle cx="197" cy="300" r="2"/>
    <circle cx="207" cy="281" r="2"/>
  </g>
  <g stroke="chocolate" stroke-width="1">
    <line x1="435" y1="375" x2="536" y2="351"/>
    <circle cx="435" cy="375" r="2"/>
    <circle cx="536" cy="351" r="2"/>
  </g>
  <g stroke="chocolate" stroke-width="1">
    <line x1="418" y1="379" x2="207" y2="281"/>
    <circle cx="418" cy="379" r="2"/>
    <circle cx="207" cy="281" r="2"/>
  </g>
  <g stroke="chocolate" stroke-width="1">
    <line x1="117" y1="431" x2="540" y2="358"/>
    <circle cx="117" cy="431" r="2"/>
    <circle cx="540" cy="358" r="2"/>
  </g>
  <g stroke="chocolate" stroke-width="1">
    <line x1="488" y1="319" x2="500" y2="315"/>
    <circle cx="488" cy="319" r="2"/>
    <circle cx="500" cy="315" r="2"/>
  </g>
  <g stroke="chocolate" stroke-width="1">
    <line x1="488" y1="319" x2="484" y2="315"/>
    <circle cx="488" cy="319" r="2"/>
    <circle cx="484" cy="315" r="2"/>
  </g>
  <g stroke="chocolate" stroke-width="1">
    <line x1="125" y1="400" x2="470" y2="315"/>
    <circle cx="125" cy="400" r="2"/>
    <circle cx="470" cy="315" r="2"/>
  </g>
  <g stroke="chocolate" stroke-width="1">
    <line x1="431" y1="334" x2="543" y2="328"/>
    <circle cx="431" cy="334" r="2"/>
    <circle cx="543" cy="328" r="2"/>
  </g>
  <g stroke="chocolate" stroke-width="1">
    <line x1="523" y1="361" x2="425" y2="327"/>
    <circle cx="523" cy="361" r="2"/>
    <circle cx="425" cy="327" r="2"/>
  </g>
  <g stroke="chocolate" stroke-width="1">
    <line x1="470" y1="315" x2="500" y2="315"/>
    <circle cx="470" cy="315" r="2"/>
    <circle cx="500" cy="315" r="2"/>
  </g>
  <g stroke="chocolate" stroke-width="1">
    <line x1="488" y1="319" x2="470" y2="315"/>
    <circle cx="488" cy="319" r="2"/>
    <circle cx="470" cy="315" r="2"/>
  </g>
  <g stroke="chocolate" stroke-width="1">
    <line x1="543" y1="328" x2="500" y2="315"/>
    <circle cx="543" cy="328" r="2"/>
    <circle cx="500" cy="315" r="2"/>
  </g>
  <g stroke="chocolate" stroke-width="1">
    <line x1="32" y1="304" x2="478" y2="232"/>
    <circle cx="32" cy="304" r="2"/>
    <circle cx="478" cy="232" r="2"/>
  </g>
  <g stroke="black" stroke-width="1">
    <line x1="24" y1="24" x2="524" y2="24"/>
    <line x1="24" y1="24" x2="24" y2="524"/>
    <line x1="524" y1="524" x2="24" y2="524"/>
    <line x1="524" y1="524" x2="524" y2="24"/>
    <line x1="124" y1="21" x2="124" y2="27"/>
    <line x1="21" y1="124" x2="27" y2="124"/>
    <line x1="124" y1="521" x2="124" y2="527"/>
    <line x1="521" y1="124" x2="527" y2="124"/>
    <line x1="224" y1="21" x2="224" y2="27"/>
    <line x1="21" y1="224" x2="27" y2="224"/>
    <line x1="224" y1="521" x2="224" y2="527"/>
    <line x1="521" y1="224" x2="527" y2="224"/>
    <line x1="324" y1="21" x2="324" y2="27"/>
    <line x1="21" y1="324" x2="27" y2="324"/>
    <line x1="324" y1="521" x2="324" y2="527"/>
    <line x1="521" y1="324" x2="527" y2="324"/>
    <line x1="424" y1="21" x2="424" y2="27"/>
    <line x1="21" y1="424" x2="27" y2="424"/>
    <line x1="424" y1="521" x2="424" y2="527"/>
    <line x1="521" y1="424" x2="527" y2="424"/>
  </g>
  <g stroke="gray" stroke-width="1" stroke-dasharray="5,5">
    <line x1="124" y1="24" x2="124" y2="524"/>
    <line x1="24" y1="124" x2="524" y2="124"/>
    <line x1="224" y1="24" x2="224" y2="524"/>
    <line x1="24" y1="224" x2="524" y2="224"/>
    <line x1="324" y1="24" x2="324" y2="524"/>
    <line x1="24" y1="324" x2="524" y2="324"/>
    <line x1="424" y1="24" x2="424" y2="524"/>
    <line x1="24" y1="424" x2="524" y2="424"/>
  </g>
</svg>
