<?xml version="1.0" standalone="no"?>
<!DOCTYPE svg PUBLIC "-//W3C//DTD SVG 1.1//EN" 
  "http://www.w3.org/Graphics/SVG/1.1/DTD/svg11.dtd">
<svg width="532" height="532" version="1.1" id="toplevel"
    xmlns="http://www.w3.org/2000/svg"
    xmlns:xlink="http://www.w3.org/1999/xlink">
  <polygon points="142,527 236,409 302,57 185,11 109,5 98,27 98,29 116,25 126,57 16,57 16,405 102,489 106,504"
           fill="bisque"/>
  <g stroke="chocolate" stroke-width="1">
    <line x1="142" y1="527" x2="236" y2="409"/>
    <circle cx="142" cy="527" r="2"/>
    <circle cx="236" cy="409" r="2"/>
  </g>
  <g stroke="chocolate" stroke-width="1">
    <line x1="236" y1="409" x2="302" y2="57"/>
    <circle cx="236" cy="409" r="2"/>
    <circle cx="302" cy="57" r="2"/>
  </g>
  <g stroke="chocolate" stroke-width="1">
    <line x1="16" y1="405" x2="16" y2="57"/>
    <circle cx="16" cy="405" r="2"/>
    <circle cx="16" cy="57" r="2"/>
  </g>
  <g stroke="chocolate" stroke-width="1">
    <line x1="170" y1="491" x2="167" y2="401"/>
    <circle cx="170" cy="491" r="2"/>
    <circle cx="167" cy="401" r="2"/>
  </g>
  <g stroke="chocolate" stroke-width="1">
    <line x1="106" y1="504" x2="30" y2="168"/>
    <circle cx="106" cy="504" r="2"/>
    <circle cx="30" cy="168" r="2"/>
  </g>
  <g stroke="chocolate" stroke-width="1">
    <line x1="106" y1="504" x2="170" y2="491"/>
    <circle cx="106" cy="504" r="2"/>
    <circle cx="170" cy="491" r="2"/>
  </g>
  <g stroke="chocolate" stroke-width="1">
    <line x1="98" y1="29" x2="98" y2="27"/>
    <circle cx="98" cy="29" r="2"/>
    <circle cx="98" cy="27" r="2"/>
  </g>
  <g stroke="chocolate" stroke-width="1">
    <line x1="236" y1="409" x2="109" y2="5"/>
    <circle cx="236" cy="409" r="2"/>
    <circle cx="109" cy="5" r="2"/>
  </g>
  <g stroke="chocolate" stroke-width="1">
    <line x1="142" y1="527" x2="16" y2="405"/>
    <circle cx="142" cy="527" r="2"/>
    <circle cx="16" cy="405" r="2"/>
  </g>
  <g stroke="chocolate" stroke-width="1">
    <line x1="98" y1="27" x2="109" y2="5"/>
    <circle cx="98" cy="27" r="2"/>
    <circle cx="109" cy="5" r="2"/>
  </g>
  <g stroke="chocolate" stroke-width="1">
    <line x1="142" y1="527" x2="106" y2="504"/>
    <circle cx="142" cy="527" r="2"/>
    <circle cx="106" cy="504" r="2"/>
  </g>
  <g stroke="chocolate" stroke-width="1">
    <line x1="16" y1="405" x2="167" y2="401"/>
    <circle cx="16" cy="405" r="2"/>
    <circle cx="167" cy="401" r="2"/>
  </g>
  <g stroke="chocolate" stroke-width="1">
    <line x1="30" y1="168" x2="292" y2="109"/>
    <circle cx="30" cy="168" r="2"/>
    <circle cx="292" cy="109" r="2"/>
  </g>
  <g stroke="chocolate" stroke-width="1">
    <line x1="98" y1="27" x2="141" y2="8"/>
    <circle cx="98" cy="27" r="2"/>
    <circle cx="141" cy="8" r="2"/>
  </g>
  <g stroke="chocolate" stroke-width="1">
    <line x1="292" y1="109" x2="141" y2="8"/>
    <circle cx="292" cy="109" r="2"/>
    <circle cx="141" cy="8" r="2"/>
  </g>
  <g stroke="chocolate" stroke-width="1">
    <line x1="98" y1="29" x2="185" y2="11"/>
    <circle cx="98" cy="29" r="2"/>
    <circle cx="185" cy="11" r="2"/>
  </g>
  <g stroke="chocolate" stroke-width="1">
    <line x1="16" y1="57" x2="302" y2="57"/>
    <circle cx="16" cy="57" r="2"/>
    <circle cx="302" cy="57" r="2"/>
  </g>
  <g stroke="chocolate" stroke-width="1">
    <line x1="302" y1="57" x2="185" y2="11"/>
    <circle cx="302" cy="57" r="2"/>
    <circle cx="185" cy="11" r="2"/>
  </g>
  <g stroke="chocolate" stroke-width="1">
    <line x1="185" y1="11" x2="109" y2="5"/>
    <circle cx="185" cy="11" r="2"/>
    <circle cx="109" cy="5" r="2"/>
  </g>
  <g stroke="black" stroke-width="1">
    <line x1="16" y1="16" x2="516" y2="16"/>
    <line x1="16" y1="16" x2="16" y2="516"/>
    <line x1="516" y1="516" x2="16" y2="516"/>
    <line x1="516" y1="516" x2="516" y2="16"/>
    <line x1="116" y1="13" x2="116" y2="19"/>
    <line x1="13" y1="116" x2="19" y2="116"/>
    <line x1="116" y1="513" x2="116" y2="519"/>
    <line x1="513" y1="116" x2="519" y2="116"/>
    <line x1="216" y1="13" x2="216" y2="19"/>
    <line x1="13" y1="216" x2="19" y2="216"/>
    <line x1="216" y1="513" x2="216" y2="519"/>
    <line x1="513" y1="216" x2="519" y2="216"/>
    <line x1="316" y1="13" x2="316" y2="19"/>
    <line x1="13" y1="316" x2="19" y2="316"/>
    <line x1="316" y1="513" x2="316" y2="519"/>
    <line x1="513" y1="316" x2="519" y2="316"/>
    <line x1="416" y1="13" x2="416" y2="19"/>
    <line x1="13" y1="416" x2="19" y2="416"/>
    <line x1="416" y1="513" x2="416" y2="519"/>
    <line x1="513" y1="416" x2="519" y2="416"/>
  </g>
  <g stroke="gray" stroke-width="1" stroke-dasharray="5,5">
    <line x1="116" y1="16" x2="116" y2="516"/>
    <line x1="16" y1="116" x2="516" y2="116"/>
    <line x1="216" y1="16" x2="216" y2="516"/>
    <line x1="16" y1="216" x2="516" y2="216"/>
    <line x1="316" y1="16" x2="316" y2="516"/>
    <line x1="16" y1="316" x2="516" y2="316"/>
    <line x1="416" y1="16" x2="416" y2="516"/>
    <line x1="16" y1="416" x2="516" y2="416"/>
  </g>
</svg>
