<?xml version="1.0" standalone="no"?>
<!DOCTYPE svg PUBLIC "-//W3C//DTD SVG 1.1//EN" 
  "http://www.w3.org/Graphics/SVG/1.1/DTD/svg11.dtd">
<svg width="510" height="510" version="1.1" id="toplevel"
    xmlns="http://www.w3.org/2000/svg"
    xmlns:xlink="http://www.w3.org/1999/xlink">
  <polygon points="149,424 177,336 333,336 361,424 406,336 404,332 498,329 505,321 491,322 255,86 19,322 5,321 12,329 106,332 104,336"
           fill="bisque"/>
  <g stroke="chocolate" stroke-width="1">
    <line x1="498" y1="329" x2="505" y2="321"/>
    <circle cx="498" cy="329" r="2"/>
    <circle cx="505" cy="321" r="2"/>
  </g>
  <g stroke="chocolate" stroke-width="1">
    <line x1="361" y1="424" x2="406" y2="336"/>
    <circle cx="361" cy="424" r="2"/>
    <circle cx="406" cy="336" r="2"/>
  </g>
  <g stroke="chocolate" stroke-width="1">
    <line x1="149" y1="424" x2="255" y2="86"/>
    <circle cx="149" cy="424" r="2"/>
    <circle cx="255" cy="86" r="2"/>
  </g>
  <g stroke="chocolate" stroke-width="1">
    <line x1="104" y1="336" x2="255" y2="86"/>
    <circle cx="104" cy="336" r="2"/>
    <circle cx="255" cy="86" r="2"/>
  </g>
  <g stroke="chocolate" stroke-width="1">
    <line x1="255" y1="336" x2="505" y2="321"/>
    <circle cx="255" cy="336" r="2"/>
    <circle cx="505" cy="321" r="2"/>
  </g>
  <g stroke="chocolate" stroke-width="1">
    <line x1="255" y1="336" x2="498" y2="329"/>
    <circle cx="255" cy="336" r="2"/>
    <circle cx="498" cy="329" r="2"/>
  </g>
  <g stroke="chocolate" stroke-width="1">
    <line x1="104" y1="336" x2="406" y2="336"/>
    <circle cx="104" cy="336" r="2"/>
    <circle cx="406" cy="336" r="2"/>
  </g>
  <g stroke="chocolate" stroke-width="1">
    <line x1="12" y1="329" x2="255" y2="86"/>
    <circle cx="12" cy="329" r="2"/>
    <circle cx="255" cy="86" r="2"/>
  </g>
  <g stroke="chocolate" stroke-width="1">
    <line x1="255" y1="336" x2="255" y2="86"/>
    <circle cx="255" cy="336" r="2"/>
    <circle cx="255" cy="86" r="2"/>
  </g>
  <g stroke="chocolate" stroke-width="1">
    <line x1="12" y1="329" x2="5" y2="321"/>
    <circle cx="12" cy="329" r="2"/>
    <circle cx="5" cy="321" r="2"/>
  </g>
  <g stroke="chocolate" stroke-width="1">
    <line x1="255" y1="336" x2="12" y2="329"/>
    <circle cx="255" cy="336" r="2"/>
    <circle cx="12" cy="329" r="2"/>
  </g>
  <g stroke="chocolate" stroke-width="1">
    <line x1="255" y1="336" x2="5" y2="321"/>
    <circle cx="255" cy="336" r="2"/>
    <circle cx="5" cy="321" r="2"/>
  </g>
  <g stroke="chocolate" stroke-width="1">
    <line x1="149" y1="424" x2="104" y2="336"/>
    <circle cx="149" cy="424" r="2"/>
    <circle cx="104" cy="336" r="2"/>
  </g>
  <g stroke="chocolate" stroke-width="1">
    <line x1="361" y1="424" x2="255" y2="86"/>
    <circle cx="361" cy="424" r="2"/>
    <circle cx="255" cy="86" r="2"/>
  </g>
  <g stroke="chocolate" stroke-width="1">
    <line x1="406" y1="336" x2="255" y2="86"/>
    <circle cx="406" cy="336" r="2"/>
    <circle cx="255" cy="86" r="2"/>
  </g>
  <g stroke="chocolate" stroke-width="1">
    <line x1="498" y1="329" x2="255" y2="86"/>
    <circle cx="498" cy="329" r="2"/>
    <circle cx="255" cy="86" r="2"/>
  </g>
  <g stroke="black" stroke-width="1">
    <line x1="5" y1="5" x2="505" y2="5"/>
    <line x1="5" y1="5" x2="5" y2="505"/>
    <line x1="505" y1="505" x2="5" y2="505"/>
    <line x1="505" y1="505" x2="505" y2="5"/>
    <line x1="105" y1="2" x2="105" y2="8"/>
    <line x1="2" y1="105" x2="8" y2="105"/>
    <line x1="105" y1="502" x2="105" y2="508"/>
    <line x1="502" y1="105" x2="508" y2="105"/>
    <line x1="205" y1="2" x2="205" y2="8"/>
    <line x1="2" y1="205" x2="8" y2="205"/>
    <line x1="205" y1="502" x2="205" y2="508"/>
    <line x1="502" y1="205" x2="508" y2="205"/>
    <line x1="305" y1="2" x2="305" y2="8"/>
    <line x1="2" y1="305" x2="8" y2="305"/>
    <line x1="305" y1="502" x2="305" y2="508"/>
    <line x1="502" y1="305" x2="508" y2="305"/>
    <line x1="405" y1="2" x2="405" y2="8"/>
    <line x1="2" y1="405" x2="8" y2="405"/>
    <line x1="405" y1="502" x2="405" y2="508"/>
    <line x1="502" y1="405" x2="508" y2="405"/>
  </g>
  <g stroke="gray" stroke-width="1" stroke-dasharray="5,5">
    <line x1="105" y1="5" x2="105" y2="505"/>
    <line x1="5" y1="105" x2="505" y2="105"/>
    <line x1="205" y1="5" x2="205" y2="505"/>
    <line x1="5" y1="205" x2="505" y2="205"/>
    <line x1="305" y1="5" x2="305" y2="505"/>
    <line x1="5" y1="305" x2="505" y2="305"/>
    <line x1="405" y1="5" x2="405" y2="505"/>
    <line x1="5" y1="405" x2="505" y2="405"/>
  </g>
</svg>
