<?xml version="1.0" standalone="no"?>
<!DOCTYPE svg PUBLIC "-//W3C//DTD SVG 1.1//EN" 
  "http://www.w3.org/Graphics/SVG/1.1/DTD/svg11.dtd">
<svg width="556" height="556" version="1.1" id="toplevel"
    xmlns="http://www.w3.org/2000/svg"
    xmlns:xlink="http://www.w3.org/1999/xlink">
  <polygon points="268,416 304,370 505,370 505,327 551,303 505,213 505,158 335,140 5,298 5,370 211,370"
           fill="bisque"/>
  <g stroke="chocolate" stroke-width="1">
    <line x1="467" y1="346" x2="551" y2="303"/>
    <circle cx="467" cy="346" r="2"/>
    <circle cx="551" cy="303" r="2"/>
  </g>
  <g stroke="chocolate" stroke-width="1">
    <line x1="268" y1="416" x2="475" y2="155"/>
    <circle cx="268" cy="416" r="2"/>
    <circle cx="475" cy="155" r="2"/>
  </g>
  <g stroke="chocolate" stroke-width="1">
    <line x1="467" y1="346" x2="505" y2="158"/>
    <circle cx="467" cy="346" r="2"/>
    <circle cx="505" cy="158" r="2"/>
  </g>
  <g stroke="chocolate" stroke-width="1">
    <line x1="247" y1="275" x2="335" y2="140"/>
    <circle cx="247" cy="275" r="2"/>
    <circle cx="335" cy="140" r="2"/>
  </g>
  <g stroke="chocolate" stroke-width="1">
    <line x1="76" y1="355" x2="247" y2="275"/>
    <circle cx="76" cy="355" r="2"/>
    <circle cx="247" cy="275" r="2"/>
  </g>
  <g stroke="chocolate" stroke-width="1">
    <line x1="247" y1="275" x2="250" y2="181"/>
    <circle cx="247" cy="275" r="2"/>
    <circle cx="250" cy="181" r="2"/>
  </g>
  <g stroke="chocolate" stroke-width="1">
    <line x1="76" y1="355" x2="77" y2="264"/>
    <circle cx="76" cy="355" r="2"/>
    <circle cx="77" cy="264" r="2"/>
  </g>
  <g stroke="chocolate" stroke-width="1">
    <line x1="5" y1="370" x2="505" y2="370"/>
    <circle cx="5" cy="370" r="2"/>
    <circle cx="505" cy="370" r="2"/>
  </g>
  <g stroke="chocolate" stroke-width="1">
    <line x1="5" y1="370" x2="5" y2="298"/>
    <circle cx="5" cy="370" r="2"/>
    <circle cx="5" cy="298" r="2"/>
  </g>
  <g stroke="chocolate" stroke-width="1">
    <line x1="505" y1="370" x2="505" y2="158"/>
    <circle cx="505" cy="370" r="2"/>
    <circle cx="505" cy="158" r="2"/>
  </g>
  <g stroke="chocolate" stroke-width="1">
    <line x1="76" y1="355" x2="5" y2="298"/>
    <circle cx="76" cy="355" r="2"/>
    <circle cx="5" cy="298" r="2"/>
  </g>
  <g stroke="chocolate" stroke-width="1">
    <line x1="5" y1="298" x2="335" y2="140"/>
    <circle cx="5" cy="298" r="2"/>
    <circle cx="335" cy="140" r="2"/>
  </g>
  <g stroke="chocolate" stroke-width="1">
    <line x1="268" y1="416" x2="77" y2="264"/>
    <circle cx="268" cy="416" r="2"/>
    <circle cx="77" cy="264" r="2"/>
  </g>
  <g stroke="chocolate" stroke-width="1">
    <line x1="551" y1="303" x2="475" y2="155"/>
    <circle cx="551" cy="303" r="2"/>
    <circle cx="475" cy="155" r="2"/>
  </g>
  <g stroke="chocolate" stroke-width="1">
    <line x1="467" y1="346" x2="250" y2="181"/>
    <circle cx="467" cy="346" r="2"/>
    <circle cx="250" cy="181" r="2"/>
  </g>
  <g stroke="chocolate" stroke-width="1">
    <line x1="505" y1="158" x2="335" y2="140"/>
    <circle cx="505" cy="158" r="2"/>
    <circle cx="335" cy="140" r="2"/>
  </g>
  <g stroke="black" stroke-width="1">
    <line x1="28" y1="28" x2="528" y2="28"/>
    <line x1="28" y1="28" x2="28" y2="528"/>
    <line x1="528" y1="528" x2="28" y2="528"/>
    <line x1="528" y1="528" x2="528" y2="28"/>
    <line x1="128" y1="25" x2="128" y2="31"/>
    <line x1="25" y1="128" x2="31" y2="128"/>
    <line x1="128" y1="525" x2="128" y2="531"/>
    <line x1="525" y1="128" x2="531" y2="128"/>
    <line x1="228" y1="25" x2="228" y2="31"/>
    <line x1="25" y1="228" x2="31" y2="228"/>
    <line x1="228" y1="525" x2="228" y2="531"/>
    <line x1="525" y1="228" x2="531" y2="228"/>
    <line x1="328" y1="25" x2="328" y2="31"/>
    <line x1="25" y1="328" x2="31" y2="328"/>
    <line x1="328" y1="525" x2="328" y2="531"/>
    <line x1="525" y1="328" x2="531" y2="328"/>
    <line x1="428" y1="25" x2="428" y2="31"/>
    <line x1="25" y1="428" x2="31" y2="428"/>
    <line x1="428" y1="525" x2="428" y2="531"/>
    <line x1="525" y1="428" x2="531" y2="428"/>
  </g>
  <g stroke="gray" stroke-width="1" stroke-dasharray="5,5">
    <line x1="128" y1="28" x2="128" y2="528"/>
    <line x1="28" y1="128" x2="528" y2="128"/>
    <line x1="228" y1="28" x2="228" y2="528"/>
    <line x1="28" y1="228" x2="528" y2="228"/>
    <line x1="328" y1="28" x2="328" y2="528"/>
    <line x1="28" y1="328" x2="528" y2="328"/>
    <line x1="428" y1="28" x2="428" y2="528"/>
    <line x1="28" y1="428" x2="528" y2="428"/>
  </g>
</svg>
