<?xml version="1.0" standalone="no"?>
<!DOCTYPE svg PUBLIC "-//W3C//DTD SVG 1.1//EN" 
  "http://www.w3.org/Graphics/SVG/1.1/DTD/svg11.dtd">
<svg width="638" height="638" version="1.1" id="toplevel"
    xmlns="http://www.w3.org/2000/svg"
    xmlns:xlink="http://www.w3.org/1999/xlink">
  <polygon points="359,449 376,409 505,409 505,277 518,281 633,228 615,189 284,206 201,243 5,409 5,409 9,409 83,422 91,409 267,409"
           fill="bisque"/>
  <g stroke="chocolate" stroke-width="1">
    <line x1="515" y1="280" x2="595" y2="190"/>
    <circle cx="515" cy="280" r="2"/>
    <circle cx="595" cy="190" r="2"/>
  </g>
  <g stroke="chocolate" stroke-width="1">
    <line x1="610" y1="203" x2="615" y2="189"/>
    <circle cx="610" cy="203" r="2"/>
    <circle cx="615" cy="189" r="2"/>
  </g>
  <g stroke="chocolate" stroke-width="1">
    <line x1="359" y1="449" x2="469" y2="196"/>
    <circle cx="359" cy="449" r="2"/>
    <circle cx="469" cy="196" r="2"/>
  </g>
  <g stroke="chocolate" stroke-width="1">
    <line x1="518" y1="281" x2="633" y2="228"/>
    <circle cx="518" cy="281" r="2"/>
    <circle cx="633" cy="228" r="2"/>
  </g>
  <g stroke="chocolate" stroke-width="1">
    <line x1="83" y1="422" x2="201" y2="243"/>
    <circle cx="83" cy="422" r="2"/>
    <circle cx="201" cy="243" r="2"/>
  </g>
  <g stroke="chocolate" stroke-width="1">
    <line x1="64" y1="392" x2="88" y2="339"/>
    <circle cx="64" cy="392" r="2"/>
    <circle cx="88" cy="339" r="2"/>
  </g>
  <g stroke="chocolate" stroke-width="1">
    <line x1="5" y1="409" x2="505" y2="409"/>
    <circle cx="5" cy="409" r="2"/>
    <circle cx="505" cy="409" r="2"/>
  </g>
  <g stroke="chocolate" stroke-width="1">
    <line x1="5" y1="409" x2="5" y2="409"/>
    <circle cx="5" cy="409" r="2"/>
    <circle cx="5" cy="409" r="2"/>
  </g>
  <g stroke="chocolate" stroke-width="1">
    <line x1="505" y1="409" x2="505" y2="195"/>
    <circle cx="505" cy="409" r="2"/>
    <circle cx="505" cy="195" r="2"/>
  </g>
  <g stroke="chocolate" stroke-width="1">
    <line x1="5" y1="409" x2="201" y2="243"/>
    <circle cx="5" cy="409" r="2"/>
    <circle cx="201" cy="243" r="2"/>
  </g>
  <g stroke="chocolate" stroke-width="1">
    <line x1="83" y1="422" x2="5" y2="409"/>
    <circle cx="83" cy="422" r="2"/>
    <circle cx="5" cy="409" r="2"/>
  </g>
  <g stroke="chocolate" stroke-width="1">
    <line x1="64" y1="392" x2="107" y2="386"/>
    <circle cx="64" cy="392" r="2"/>
    <circle cx="107" cy="386" r="2"/>
  </g>
  <g stroke="chocolate" stroke-width="1">
    <line x1="107" y1="386" x2="94" y2="334"/>
    <circle cx="107" cy="386" r="2"/>
    <circle cx="94" cy="334" r="2"/>
  </g>
  <g stroke="chocolate" stroke-width="1">
    <line x1="83" y1="422" x2="64" y2="392"/>
    <circle cx="83" cy="422" r="2"/>
    <circle cx="64" cy="392" r="2"/>
  </g>
  <g stroke="chocolate" stroke-width="1">
    <line x1="88" y1="339" x2="610" y2="203"/>
    <circle cx="88" cy="339" r="2"/>
    <circle cx="610" cy="203" r="2"/>
  </g>
  <g stroke="chocolate" stroke-width="1">
    <line x1="515" y1="280" x2="505" y2="195"/>
    <circle cx="515" cy="280" r="2"/>
    <circle cx="505" cy="195" r="2"/>
  </g>
  <g stroke="chocolate" stroke-width="1">
    <line x1="201" y1="243" x2="284" y2="206"/>
    <circle cx="201" cy="243" r="2"/>
    <circle cx="284" cy="206" r="2"/>
  </g>
  <g stroke="chocolate" stroke-width="1">
    <line x1="359" y1="449" x2="94" y2="334"/>
    <circle cx="359" cy="449" r="2"/>
    <circle cx="94" cy="334" r="2"/>
  </g>
  <g stroke="chocolate" stroke-width="1">
    <line x1="284" y1="206" x2="615" y2="189"/>
    <circle cx="284" cy="206" r="2"/>
    <circle cx="615" cy="189" r="2"/>
  </g>
  <g stroke="chocolate" stroke-width="1">
    <line x1="518" y1="281" x2="469" y2="196"/>
    <circle cx="518" cy="281" r="2"/>
    <circle cx="469" cy="196" r="2"/>
  </g>
  <g stroke="chocolate" stroke-width="1">
    <line x1="518" y1="281" x2="284" y2="206"/>
    <circle cx="518" cy="281" r="2"/>
    <circle cx="284" cy="206" r="2"/>
  </g>
  <g stroke="chocolate" stroke-width="1">
    <line x1="633" y1="228" x2="615" y2="189"/>
    <circle cx="633" cy="228" r="2"/>
    <circle cx="615" cy="189" r="2"/>
  </g>
  <g stroke="chocolate" stroke-width="1">
    <line x1="610" y1="203" x2="595" y2="190"/>
    <circle cx="610" cy="203" r="2"/>
    <circle cx="595" cy="190" r="2"/>
  </g>
  <g stroke="black" stroke-width="1">
    <line x1="69" y1="69" x2="569" y2="69"/>
    <line x1="69" y1="69" x2="69" y2="569"/>
    <line x1="569" y1="569" x2="69" y2="569"/>
    <line x1="569" y1="569" x2="569" y2="69"/>
    <line x1="169" y1="66" x2="169" y2="72"/>
    <line x1="66" y1="169" x2="72" y2="169"/>
    <line x1="169" y1="566" x2="169" y2="572"/>
    <line x1="566" y1="169" x2="572" y2="169"/>
    <line x1="269" y1="66" x2="269" y2="72"/>
    <line x1="66" y1="269" x2="72" y2="269"/>
    <line x1="269" y1="566" x2="269" y2="572"/>
    <line x1="566" y1="269" x2="572" y2="269"/>
    <line x1="369" y1="66" x2="369" y2="72"/>
    <line x1="66" y1="369" x2="72" y2="369"/>
    <line x1="369" y1="566" x2="369" y2="572"/>
    <line x1="566" y1="369" x2="572" y2="369"/>
    <line x1="469" y1="66" x2="469" y2="72"/>
    <line x1="66" y1="469" x2="72" y2="469"/>
    <line x1="469" y1="566" x2="469" y2="572"/>
    <line x1="566" y1="469" x2="572" y2="469"/>
  </g>
  <g stroke="gray" stroke-width="1" stroke-dasharray="5,5">
    <line x1="169" y1="69" x2="169" y2="569"/>
    <line x1="69" y1="169" x2="569" y2="169"/>
    <line x1="269" y1="69" x2="269" y2="569"/>
    <line x1="69" y1="269" x2="569" y2="269"/>
    <line x1="369" y1="69" x2="369" y2="569"/>
    <line x1="69" y1="369" x2="569" y2="369"/>
    <line x1="469" y1="69" x2="469" y2="569"/>
    <line x1="69" y1="469" x2="569" y2="469"/>
  </g>
</svg>
