<?xml version="1.0" standalone="no"?>
<!DOCTYPE svg PUBLIC "-//W3C//DTD SVG 1.1//EN" 
  "http://www.w3.org/Graphics/SVG/1.1/DTD/svg11.dtd">
<svg width="510" height="510" version="1.1" id="toplevel"
    xmlns="http://www.w3.org/2000/svg"
    xmlns:xlink="http://www.w3.org/1999/xlink">
  <polygon points="74,505 291,505 291,442 328,441 476,388 473,198 468,198 468,176 291,182 34,448"
           fill="bisque"/>
  <g stroke="chocolate" stroke-width="1">
    <line x1="328" y1="441" x2="446" y2="350"/>
    <circle cx="328" cy="441" r="2"/>
    <circle cx="446" cy="350" r="2"/>
  </g>
  <g stroke="chocolate" stroke-width="1">
    <line x1="294" y1="442" x2="376" y2="199"/>
    <circle cx="294" cy="442" r="2"/>
    <circle cx="376" cy="199" r="2"/>
  </g>
  <g stroke="chocolate" stroke-width="1">
    <line x1="328" y1="441" x2="476" y2="388"/>
    <circle cx="328" cy="441" r="2"/>
    <circle cx="476" cy="388" r="2"/>
  </g>
  <g stroke="chocolate" stroke-width="1">
    <line x1="34" y1="448" x2="291" y2="182"/>
    <circle cx="34" cy="448" r="2"/>
    <circle cx="291" cy="182" r="2"/>
  </g>
  <g stroke="chocolate" stroke-width="1">
    <line x1="74" y1="505" x2="131" y2="348"/>
    <circle cx="74" cy="505" r="2"/>
    <circle cx="131" cy="348" r="2"/>
  </g>
  <g stroke="chocolate" stroke-width="1">
    <line x1="35" y1="448" x2="376" y2="199"/>
    <circle cx="35" cy="448" r="2"/>
    <circle cx="376" cy="199" r="2"/>
  </g>
  <g stroke="chocolate" stroke-width="1">
    <line x1="74" y1="505" x2="291" y2="505"/>
    <circle cx="74" cy="505" r="2"/>
    <circle cx="291" cy="505" r="2"/>
  </g>
  <g stroke="chocolate" stroke-width="1">
    <line x1="291" y1="505" x2="291" y2="182"/>
    <circle cx="291" cy="505" r="2"/>
    <circle cx="291" cy="182" r="2"/>
  </g>
  <g stroke="chocolate" stroke-width="1">
    <line x1="476" y1="388" x2="473" y2="198"/>
    <circle cx="476" cy="388" r="2"/>
    <circle cx="473" cy="198" r="2"/>
  </g>
  <g stroke="chocolate" stroke-width="1">
    <line x1="131" y1="348" x2="239" y2="304"/>
    <circle cx="131" cy="348" r="2"/>
    <circle cx="239" cy="304" r="2"/>
  </g>
  <g stroke="chocolate" stroke-width="1">
    <line x1="475" y1="389" x2="468" y2="176"/>
    <circle cx="475" cy="389" r="2"/>
    <circle cx="468" cy="176" r="2"/>
  </g>
  <g stroke="chocolate" stroke-width="1">
    <line x1="35" y1="448" x2="328" y2="441"/>
    <circle cx="35" cy="448" r="2"/>
    <circle cx="328" cy="441" r="2"/>
  </g>
  <g stroke="chocolate" stroke-width="1">
    <line x1="74" y1="505" x2="34" y2="448"/>
    <circle cx="74" cy="505" r="2"/>
    <circle cx="34" cy="448" r="2"/>
  </g>
  <g stroke="chocolate" stroke-width="1">
    <line x1="35" y1="448" x2="34" y2="448"/>
    <circle cx="35" cy="448" r="2"/>
    <circle cx="34" cy="448" r="2"/>
  </g>
  <g stroke="chocolate" stroke-width="1">
    <line x1="294" y1="442" x2="239" y2="304"/>
    <circle cx="294" cy="442" r="2"/>
    <circle cx="239" cy="304" r="2"/>
  </g>
  <g stroke="chocolate" stroke-width="1">
    <line x1="376" y1="199" x2="473" y2="198"/>
    <circle cx="376" cy="199" r="2"/>
    <circle cx="473" cy="198" r="2"/>
  </g>
  <g stroke="chocolate" stroke-width="1">
    <line x1="291" y1="182" x2="468" y2="176"/>
    <circle cx="291" cy="182" r="2"/>
    <circle cx="468" cy="176" r="2"/>
  </g>
  <g stroke="chocolate" stroke-width="1">
    <line x1="475" y1="389" x2="446" y2="350"/>
    <circle cx="475" cy="389" r="2"/>
    <circle cx="446" cy="350" r="2"/>
  </g>
  <g stroke="chocolate" stroke-width="1">
    <line x1="476" y1="388" x2="446" y2="350"/>
    <circle cx="476" cy="388" r="2"/>
    <circle cx="446" cy="350" r="2"/>
  </g>
  <g stroke="black" stroke-width="1">
    <line x1="5" y1="5" x2="505" y2="5"/>
    <line x1="5" y1="5" x2="5" y2="505"/>
    <line x1="505" y1="505" x2="5" y2="505"/>
    <line x1="505" y1="505" x2="505" y2="5"/>
    <line x1="105" y1="2" x2="105" y2="8"/>
    <line x1="2" y1="105" x2="8" y2="105"/>
    <line x1="105" y1="502" x2="105" y2="508"/>
    <line x1="502" y1="105" x2="508" y2="105"/>
    <line x1="205" y1="2" x2="205" y2="8"/>
    <line x1="2" y1="205" x2="8" y2="205"/>
    <line x1="205" y1="502" x2="205" y2="508"/>
    <line x1="502" y1="205" x2="508" y2="205"/>
    <line x1="305" y1="2" x2="305" y2="8"/>
    <line x1="2" y1="305" x2="8" y2="305"/>
    <line x1="305" y1="502" x2="305" y2="508"/>
    <line x1="502" y1="305" x2="508" y2="305"/>
    <line x1="405" y1="2" x2="405" y2="8"/>
    <line x1="2" y1="405" x2="8" y2="405"/>
    <line x1="405" y1="502" x2="405" y2="508"/>
    <line x1="502" y1="405" x2="508" y2="405"/>
  </g>
  <g stroke="gray" stroke-width="1" stroke-dasharray="5,5">
    <line x1="105" y1="5" x2="105" y2="505"/>
    <line x1="5" y1="105" x2="505" y2="105"/>
    <line x1="205" y1="5" x2="205" y2="505"/>
    <line x1="5" y1="205" x2="505" y2="205"/>
    <line x1="305" y1="5" x2="305" y2="505"/>
    <line x1="5" y1="305" x2="505" y2="305"/>
    <line x1="405" y1="5" x2="405" y2="505"/>
    <line x1="5" y1="405" x2="505" y2="405"/>
  </g>
</svg>
