<?xml version="1.0" standalone="no"?>
<!DOCTYPE svg PUBLIC "-//W3C//DTD SVG 1.1//EN" 
  "http://www.w3.org/Graphics/SVG/1.1/DTD/svg11.dtd">
<svg width="642" height="642" version="1.1" id="toplevel"
    xmlns="http://www.w3.org/2000/svg"
    xmlns:xlink="http://www.w3.org/1999/xlink">
  <polygon points="208,551 637,295 515,91 20,238 23,298 5,309 24,337 47,331 71,323"
           fill="bisque"/>
  <g stroke="chocolate" stroke-width="1">
    <line x1="208" y1="551" x2="637" y2="295"/>
    <circle cx="208" cy="551" r="2"/>
    <circle cx="637" cy="295" r="2"/>
  </g>
  <g stroke="chocolate" stroke-width="1">
    <line x1="24" y1="337" x2="47" y2="331"/>
    <circle cx="24" cy="337" r="2"/>
    <circle cx="47" cy="331" r="2"/>
  </g>
  <g stroke="chocolate" stroke-width="1">
    <line x1="24" y1="336" x2="47" y2="331"/>
    <circle cx="24" cy="336" r="2"/>
    <circle cx="47" cy="331" r="2"/>
  </g>
  <g stroke="chocolate" stroke-width="1">
    <line x1="47" y1="331" x2="518" y2="180"/>
    <circle cx="47" cy="331" r="2"/>
    <circle cx="518" cy="180" r="2"/>
  </g>
  <g stroke="chocolate" stroke-width="1">
    <line x1="5" y1="309" x2="193" y2="186"/>
    <circle cx="5" cy="309" r="2"/>
    <circle cx="193" cy="186" r="2"/>
  </g>
  <g stroke="chocolate" stroke-width="1">
    <line x1="20" y1="238" x2="515" y2="91"/>
    <circle cx="20" cy="238" r="2"/>
    <circle cx="515" cy="91" r="2"/>
  </g>
  <g stroke="chocolate" stroke-width="1">
    <line x1="24" y1="337" x2="5" y2="309"/>
    <circle cx="24" cy="337" r="2"/>
    <circle cx="5" cy="309" r="2"/>
  </g>
  <g stroke="chocolate" stroke-width="1">
    <line x1="24" y1="337" x2="24" y2="336"/>
    <circle cx="24" cy="337" r="2"/>
    <circle cx="24" cy="336" r="2"/>
  </g>
  <g stroke="chocolate" stroke-width="1">
    <line x1="24" y1="337" x2="24" y2="336"/>
    <circle cx="24" cy="337" r="2"/>
    <circle cx="24" cy="336" r="2"/>
  </g>
  <g stroke="chocolate" stroke-width="1">
    <line x1="193" y1="186" x2="469" y2="186"/>
    <circle cx="193" cy="186" r="2"/>
    <circle cx="469" cy="186" r="2"/>
  </g>
  <g stroke="chocolate" stroke-width="1">
    <line x1="469" y1="186" x2="469" y2="104"/>
    <circle cx="469" cy="186" r="2"/>
    <circle cx="469" cy="104" r="2"/>
  </g>
  <g stroke="chocolate" stroke-width="1">
    <line x1="24" y1="337" x2="20" y2="238"/>
    <circle cx="24" cy="337" r="2"/>
    <circle cx="20" cy="238" r="2"/>
  </g>
  <g stroke="chocolate" stroke-width="1">
    <line x1="208" y1="551" x2="20" y2="238"/>
    <circle cx="208" cy="551" r="2"/>
    <circle cx="20" cy="238" r="2"/>
  </g>
  <g stroke="chocolate" stroke-width="1">
    <line x1="518" y1="180" x2="515" y2="91"/>
    <circle cx="518" cy="180" r="2"/>
    <circle cx="515" cy="91" r="2"/>
  </g>
  <g stroke="chocolate" stroke-width="1">
    <line x1="518" y1="180" x2="469" y2="104"/>
    <circle cx="518" cy="180" r="2"/>
    <circle cx="469" cy="104" r="2"/>
  </g>
  <g stroke="chocolate" stroke-width="1">
    <line x1="637" y1="295" x2="515" y2="91"/>
    <circle cx="637" cy="295" r="2"/>
    <circle cx="515" cy="91" r="2"/>
  </g>
  <g stroke="black" stroke-width="1">
    <line x1="71" y1="71" x2="571" y2="71"/>
    <line x1="71" y1="71" x2="71" y2="571"/>
    <line x1="571" y1="571" x2="71" y2="571"/>
    <line x1="571" y1="571" x2="571" y2="71"/>
    <line x1="171" y1="68" x2="171" y2="74"/>
    <line x1="68" y1="171" x2="74" y2="171"/>
    <line x1="171" y1="568" x2="171" y2="574"/>
    <line x1="568" y1="171" x2="574" y2="171"/>
    <line x1="271" y1="68" x2="271" y2="74"/>
    <line x1="68" y1="271" x2="74" y2="271"/>
    <line x1="271" y1="568" x2="271" y2="574"/>
    <line x1="568" y1="271" x2="574" y2="271"/>
    <line x1="371" y1="68" x2="371" y2="74"/>
    <line x1="68" y1="371" x2="74" y2="371"/>
    <line x1="371" y1="568" x2="371" y2="574"/>
    <line x1="568" y1="371" x2="574" y2="371"/>
    <line x1="471" y1="68" x2="471" y2="74"/>
    <line x1="68" y1="471" x2="74" y2="471"/>
    <line x1="471" y1="568" x2="471" y2="574"/>
    <line x1="568" y1="471" x2="574" y2="471"/>
  </g>
  <g stroke="gray" stroke-width="1" stroke-dasharray="5,5">
    <line x1="171" y1="71" x2="171" y2="571"/>
    <line x1="71" y1="171" x2="571" y2="171"/>
    <line x1="271" y1="71" x2="271" y2="571"/>
    <line x1="71" y1="271" x2="571" y2="271"/>
    <line x1="371" y1="71" x2="371" y2="571"/>
    <line x1="71" y1="371" x2="571" y2="371"/>
    <line x1="471" y1="71" x2="471" y2="571"/>
    <line x1="71" y1="471" x2="571" y2="471"/>
  </g>
</svg>
