<?xml version="1.0" standalone="no"?>
<!DOCTYPE svg PUBLIC "-//W3C//DTD SVG 1.1//EN" 
  "http://www.w3.org/Graphics/SVG/1.1/DTD/svg11.dtd">
<svg width="510" height="510" version="1.1" id="toplevel"
    xmlns="http://www.w3.org/2000/svg"
    xmlns:xlink="http://www.w3.org/1999/xlink">
  <polygon points="35,458 116,458 183,361 380,389 486,98 359,52 190,201 24,407"
           fill="bisque"/>
  <g stroke="chocolate" stroke-width="1">
    <line x1="116" y1="458" x2="362" y2="102"/>
    <circle cx="116" cy="458" r="2"/>
    <circle cx="362" cy="102" r="2"/>
  </g>
  <g stroke="chocolate" stroke-width="1">
    <line x1="380" y1="389" x2="486" y2="98"/>
    <circle cx="380" cy="389" r="2"/>
    <circle cx="486" cy="98" r="2"/>
  </g>
  <g stroke="chocolate" stroke-width="1">
    <line x1="24" y1="407" x2="190" y2="201"/>
    <circle cx="24" cy="407" r="2"/>
    <circle cx="190" cy="201" r="2"/>
  </g>
  <g stroke="chocolate" stroke-width="1">
    <line x1="190" y1="201" x2="359" y2="52"/>
    <circle cx="190" cy="201" r="2"/>
    <circle cx="359" cy="52" r="2"/>
  </g>
  <g stroke="chocolate" stroke-width="1">
    <line x1="52" y1="372" x2="351" y2="241"/>
    <circle cx="52" cy="372" r="2"/>
    <circle cx="351" cy="241" r="2"/>
  </g>
  <g stroke="chocolate" stroke-width="1">
    <line x1="190" y1="201" x2="368" y2="91"/>
    <circle cx="190" cy="201" r="2"/>
    <circle cx="368" cy="91" r="2"/>
  </g>
  <g stroke="chocolate" stroke-width="1">
    <line x1="35" y1="458" x2="52" y2="372"/>
    <circle cx="35" cy="458" r="2"/>
    <circle cx="52" cy="372" r="2"/>
  </g>
  <g stroke="chocolate" stroke-width="1">
    <line x1="57" y1="366" x2="201" y2="335"/>
    <circle cx="57" cy="366" r="2"/>
    <circle cx="201" cy="335" r="2"/>
  </g>
  <g stroke="chocolate" stroke-width="1">
    <line x1="35" y1="458" x2="116" y2="458"/>
    <circle cx="35" cy="458" r="2"/>
    <circle cx="116" cy="458" r="2"/>
  </g>
  <g stroke="chocolate" stroke-width="1">
    <line x1="24" y1="407" x2="57" y2="407"/>
    <circle cx="24" cy="407" r="2"/>
    <circle cx="57" cy="407" r="2"/>
  </g>
  <g stroke="chocolate" stroke-width="1">
    <line x1="57" y1="407" x2="57" y2="366"/>
    <circle cx="57" cy="407" r="2"/>
    <circle cx="57" cy="366" r="2"/>
  </g>
  <g stroke="chocolate" stroke-width="1">
    <line x1="380" y1="389" x2="368" y2="199"/>
    <circle cx="380" cy="389" r="2"/>
    <circle cx="368" cy="199" r="2"/>
  </g>
  <g stroke="chocolate" stroke-width="1">
    <line x1="316" y1="123" x2="314" y2="92"/>
    <circle cx="316" cy="123" r="2"/>
    <circle cx="314" cy="92" r="2"/>
  </g>
  <g stroke="chocolate" stroke-width="1">
    <line x1="201" y1="335" x2="183" y2="210"/>
    <circle cx="201" cy="335" r="2"/>
    <circle cx="183" cy="210" r="2"/>
  </g>
  <g stroke="chocolate" stroke-width="1">
    <line x1="35" y1="458" x2="24" y2="407"/>
    <circle cx="35" cy="458" r="2"/>
    <circle cx="24" cy="407" r="2"/>
  </g>
  <g stroke="chocolate" stroke-width="1">
    <line x1="380" y1="389" x2="74" y2="345"/>
    <circle cx="380" cy="389" r="2"/>
    <circle cx="74" cy="345" r="2"/>
  </g>
  <g stroke="chocolate" stroke-width="1">
    <line x1="183" y1="210" x2="368" y2="199"/>
    <circle cx="183" cy="210" r="2"/>
    <circle cx="368" cy="199" r="2"/>
  </g>
  <g stroke="chocolate" stroke-width="1">
    <line x1="116" y1="458" x2="74" y2="345"/>
    <circle cx="116" cy="458" r="2"/>
    <circle cx="74" cy="345" r="2"/>
  </g>
  <g stroke="chocolate" stroke-width="1">
    <line x1="368" y1="91" x2="359" y2="52"/>
    <circle cx="368" cy="91" r="2"/>
    <circle cx="359" cy="52" r="2"/>
  </g>
  <g stroke="chocolate" stroke-width="1">
    <line x1="351" y1="241" x2="294" y2="110"/>
    <circle cx="351" cy="241" r="2"/>
    <circle cx="294" cy="110" r="2"/>
  </g>
  <g stroke="chocolate" stroke-width="1">
    <line x1="362" y1="102" x2="341" y2="68"/>
    <circle cx="362" cy="102" r="2"/>
    <circle cx="341" cy="68" r="2"/>
  </g>
  <g stroke="chocolate" stroke-width="1">
    <line x1="362" y1="102" x2="314" y2="92"/>
    <circle cx="362" cy="102" r="2"/>
    <circle cx="314" cy="92" r="2"/>
  </g>
  <g stroke="chocolate" stroke-width="1">
    <line x1="316" y1="123" x2="294" y2="110"/>
    <circle cx="316" cy="123" r="2"/>
    <circle cx="294" cy="110" r="2"/>
  </g>
  <g stroke="chocolate" stroke-width="1">
    <line x1="486" y1="98" x2="359" y2="52"/>
    <circle cx="486" cy="98" r="2"/>
    <circle cx="359" cy="52" r="2"/>
  </g>
  <g stroke="chocolate" stroke-width="1">
    <line x1="368" y1="91" x2="341" y2="68"/>
    <circle cx="368" cy="91" r="2"/>
    <circle cx="341" cy="68" r="2"/>
  </g>
  <g stroke="black" stroke-width="1">
    <line x1="5" y1="5" x2="505" y2="5"/>
    <line x1="5" y1="5" x2="5" y2="505"/>
    <line x1="505" y1="505" x2="5" y2="505"/>
    <line x1="505" y1="505" x2="505" y2="5"/>
    <line x1="105" y1="2" x2="105" y2="8"/>
    <line x1="2" y1="105" x2="8" y2="105"/>
    <line x1="105" y1="502" x2="105" y2="508"/>
    <line x1="502" y1="105" x2="508" y2="105"/>
    <line x1="205" y1="2" x2="205" y2="8"/>
    <line x1="2" y1="205" x2="8" y2="205"/>
    <line x1="205" y1="502" x2="205" y2="508"/>
    <line x1="502" y1="205" x2="508" y2="205"/>
    <line x1="305" y1="2" x2="305" y2="8"/>
    <line x1="2" y1="305" x2="8" y2="305"/>
    <line x1="305" y1="502" x2="305" y2="508"/>
    <line x1="502" y1="305" x2="508" y2="305"/>
    <line x1="405" y1="2" x2="405" y2="8"/>
    <line x1="2" y1="405" x2="8" y2="405"/>
    <line x1="405" y1="502" x2="405" y2="508"/>
    <line x1="502" y1="405" x2="508" y2="405"/>
  </g>
  <g stroke="gray" stroke-width="1" stroke-dasharray="5,5">
    <line x1="105" y1="5" x2="105" y2="505"/>
    <line x1="5" y1="105" x2="505" y2="105"/>
    <line x1="205" y1="5" x2="205" y2="505"/>
    <line x1="5" y1="205" x2="505" y2="205"/>
    <line x1="305" y1="5" x2="305" y2="505"/>
    <line x1="5" y1="305" x2="505" y2="305"/>
    <line x1="405" y1="5" x2="405" y2="505"/>
    <line x1="5" y1="405" x2="505" y2="405"/>
  </g>
</svg>
