<?xml version="1.0" standalone="no"?>
<!DOCTYPE svg PUBLIC "-//W3C//DTD SVG 1.1//EN" 
  "http://www.w3.org/Graphics/SVG/1.1/DTD/svg11.dtd">
<svg width="510" height="510" version="1.1" id="toplevel"
    xmlns="http://www.w3.org/2000/svg"
    xmlns:xlink="http://www.w3.org/1999/xlink">
  <polygon points="204,413 306,413 390,353 420,255 390,157 306,97 204,97 120,157 90,255 120,353"
           fill="bisque"/>
  <g stroke="chocolate" stroke-width="1">
    <line x1="390" y1="353" x2="420" y2="255"/>
    <circle cx="390" cy="353" r="2"/>
    <circle cx="420" cy="255" r="2"/>
  </g>
  <g stroke="chocolate" stroke-width="1">
    <line x1="369" y1="214" x2="390" y2="157"/>
    <circle cx="369" cy="214" r="2"/>
    <circle cx="390" cy="157" r="2"/>
  </g>
  <g stroke="chocolate" stroke-width="1">
    <line x1="306" y1="413" x2="390" y2="353"/>
    <circle cx="306" cy="413" r="2"/>
    <circle cx="390" cy="353" r="2"/>
  </g>
  <g stroke="chocolate" stroke-width="1">
    <line x1="374" y1="214" x2="392" y2="162"/>
    <circle cx="374" cy="214" r="2"/>
    <circle cx="392" cy="162" r="2"/>
  </g>
  <g stroke="chocolate" stroke-width="1">
    <line x1="267" y1="413" x2="283" y2="362"/>
    <circle cx="267" cy="413" r="2"/>
    <circle cx="283" cy="362" r="2"/>
  </g>
  <g stroke="chocolate" stroke-width="1">
    <line x1="210" y1="413" x2="387" y2="154"/>
    <circle cx="210" cy="413" r="2"/>
    <circle cx="387" cy="154" r="2"/>
  </g>
  <g stroke="chocolate" stroke-width="1">
    <line x1="249" y1="413" x2="259" y2="379"/>
    <circle cx="249" cy="413" r="2"/>
    <circle cx="259" cy="379" r="2"/>
  </g>
  <g stroke="chocolate" stroke-width="1">
    <line x1="329" y1="229" x2="387" y2="154"/>
    <circle cx="329" cy="229" r="2"/>
    <circle cx="387" cy="154" r="2"/>
  </g>
  <g stroke="chocolate" stroke-width="1">
    <line x1="210" y1="413" x2="231" y2="350"/>
    <circle cx="210" cy="413" r="2"/>
    <circle cx="231" cy="350" r="2"/>
  </g>
  <g stroke="chocolate" stroke-width="1">
    <line x1="214" y1="413" x2="283" y2="362"/>
    <circle cx="214" cy="413" r="2"/>
    <circle cx="283" cy="362" r="2"/>
  </g>
  <g stroke="chocolate" stroke-width="1">
    <line x1="204" y1="413" x2="255" y2="376"/>
    <circle cx="204" cy="413" r="2"/>
    <circle cx="255" cy="376" r="2"/>
  </g>
  <g stroke="chocolate" stroke-width="1">
    <line x1="210" y1="413" x2="259" y2="379"/>
    <circle cx="210" cy="413" r="2"/>
    <circle cx="259" cy="379" r="2"/>
  </g>
  <g stroke="chocolate" stroke-width="1">
    <line x1="120" y1="353" x2="141" y2="296"/>
    <circle cx="120" cy="353" r="2"/>
    <circle cx="141" cy="296" r="2"/>
  </g>
  <g stroke="chocolate" stroke-width="1">
    <line x1="183" y1="158" x2="204" y2="97"/>
    <circle cx="183" cy="158" r="2"/>
    <circle cx="204" cy="97" r="2"/>
  </g>
  <g stroke="chocolate" stroke-width="1">
    <line x1="123" y1="356" x2="300" y2="97"/>
    <circle cx="123" cy="356" r="2"/>
    <circle cx="300" cy="97" r="2"/>
  </g>
  <g stroke="chocolate" stroke-width="1">
    <line x1="123" y1="356" x2="236" y2="208"/>
    <circle cx="123" cy="356" r="2"/>
    <circle cx="236" cy="208" r="2"/>
  </g>
  <g stroke="chocolate" stroke-width="1">
    <line x1="90" y1="255" x2="120" y2="157"/>
    <circle cx="90" cy="255" r="2"/>
    <circle cx="120" cy="157" r="2"/>
  </g>
  <g stroke="chocolate" stroke-width="1">
    <line x1="358" y1="251" x2="408" y2="215"/>
    <circle cx="358" cy="251" r="2"/>
    <circle cx="408" cy="215" r="2"/>
  </g>
  <g stroke="chocolate" stroke-width="1">
    <line x1="372" y1="207" x2="400" y2="188"/>
    <circle cx="372" cy="207" r="2"/>
    <circle cx="400" cy="188" r="2"/>
  </g>
  <g stroke="chocolate" stroke-width="1">
    <line x1="120" y1="353" x2="90" y2="255"/>
    <circle cx="120" cy="353" r="2"/>
    <circle cx="90" cy="255" r="2"/>
  </g>
  <g stroke="chocolate" stroke-width="1">
    <line x1="210" y1="413" x2="209" y2="410"/>
    <circle cx="210" cy="413" r="2"/>
    <circle cx="209" cy="410" r="2"/>
  </g>
  <g stroke="chocolate" stroke-width="1">
    <line x1="249" y1="413" x2="231" y2="350"/>
    <circle cx="249" cy="413" r="2"/>
    <circle cx="231" cy="350" r="2"/>
  </g>
  <g stroke="chocolate" stroke-width="1">
    <line x1="167" y1="188" x2="150" y2="135"/>
    <circle cx="167" cy="188" r="2"/>
    <circle cx="150" cy="135" r="2"/>
  </g>
  <g stroke="chocolate" stroke-width="1">
    <line x1="267" y1="413" x2="255" y2="376"/>
    <circle cx="267" cy="413" r="2"/>
    <circle cx="255" cy="376" r="2"/>
  </g>
  <g stroke="chocolate" stroke-width="1">
    <line x1="204" y1="413" x2="306" y2="413"/>
    <circle cx="204" cy="413" r="2"/>
    <circle cx="306" cy="413" r="2"/>
  </g>
  <g stroke="chocolate" stroke-width="1">
    <line x1="102" y1="295" x2="230" y2="203"/>
    <circle cx="102" cy="295" r="2"/>
    <circle cx="230" cy="203" r="2"/>
  </g>
  <g stroke="chocolate" stroke-width="1">
    <line x1="283" y1="362" x2="230" y2="203"/>
    <circle cx="283" cy="362" r="2"/>
    <circle cx="230" cy="203" r="2"/>
  </g>
  <g stroke="chocolate" stroke-width="1">
    <line x1="374" y1="214" x2="372" y2="207"/>
    <circle cx="374" cy="214" r="2"/>
    <circle cx="372" cy="207" r="2"/>
  </g>
  <g stroke="chocolate" stroke-width="1">
    <line x1="210" y1="413" x2="210" y2="413"/>
    <circle cx="210" cy="413" r="2"/>
    <circle cx="210" cy="413" r="2"/>
  </g>
  <g stroke="chocolate" stroke-width="1">
    <line x1="358" y1="251" x2="306" y2="97"/>
    <circle cx="358" cy="251" r="2"/>
    <circle cx="306" cy="97" r="2"/>
  </g>
  <g stroke="chocolate" stroke-width="1">
    <line x1="420" y1="255" x2="390" y2="157"/>
    <circle cx="420" cy="255" r="2"/>
    <circle cx="390" cy="157" r="2"/>
  </g>
  <g stroke="chocolate" stroke-width="1">
    <line x1="167" y1="188" x2="300" y2="97"/>
    <circle cx="167" cy="188" r="2"/>
    <circle cx="300" cy="97" r="2"/>
  </g>
  <g stroke="chocolate" stroke-width="1">
    <line x1="204" y1="413" x2="120" y2="353"/>
    <circle cx="204" cy="413" r="2"/>
    <circle cx="120" cy="353" r="2"/>
  </g>
  <g stroke="chocolate" stroke-width="1">
    <line x1="214" y1="413" x2="209" y2="410"/>
    <circle cx="214" cy="413" r="2"/>
    <circle cx="209" cy="410" r="2"/>
  </g>
  <g stroke="chocolate" stroke-width="1">
    <line x1="390" y1="353" x2="231" y2="350"/>
    <circle cx="390" cy="353" r="2"/>
    <circle cx="231" cy="350" r="2"/>
  </g>
  <g stroke="chocolate" stroke-width="1">
    <line x1="120" y1="157" x2="204" y2="97"/>
    <circle cx="120" cy="157" r="2"/>
    <circle cx="204" cy="97" r="2"/>
  </g>
  <g stroke="chocolate" stroke-width="1">
    <line x1="141" y1="296" x2="90" y2="255"/>
    <circle cx="141" cy="296" r="2"/>
    <circle cx="90" cy="255" r="2"/>
  </g>
  <g stroke="chocolate" stroke-width="1">
    <line x1="306" y1="413" x2="255" y2="376"/>
    <circle cx="306" cy="413" r="2"/>
    <circle cx="255" cy="376" r="2"/>
  </g>
  <g stroke="chocolate" stroke-width="1">
    <line x1="141" y1="296" x2="102" y2="295"/>
    <circle cx="141" cy="296" r="2"/>
    <circle cx="102" cy="295" r="2"/>
  </g>
  <g stroke="chocolate" stroke-width="1">
    <line x1="300" y1="97" x2="300" y2="97"/>
    <circle cx="300" cy="97" r="2"/>
    <circle cx="300" cy="97" r="2"/>
  </g>
  <g stroke="chocolate" stroke-width="1">
    <line x1="408" y1="215" x2="369" y2="214"/>
    <circle cx="408" cy="215" r="2"/>
    <circle cx="369" cy="214" r="2"/>
  </g>
  <g stroke="chocolate" stroke-width="1">
    <line x1="236" y1="208" x2="230" y2="203"/>
    <circle cx="236" cy="208" r="2"/>
    <circle cx="230" cy="203" r="2"/>
  </g>
  <g stroke="chocolate" stroke-width="1">
    <line x1="183" y1="158" x2="150" y2="135"/>
    <circle cx="183" cy="158" r="2"/>
    <circle cx="150" cy="135" r="2"/>
  </g>
  <g stroke="chocolate" stroke-width="1">
    <line x1="167" y1="188" x2="400" y2="188"/>
    <circle cx="167" cy="188" r="2"/>
    <circle cx="400" cy="188" r="2"/>
  </g>
  <g stroke="chocolate" stroke-width="1">
    <line x1="358" y1="251" x2="329" y2="229"/>
    <circle cx="358" cy="251" r="2"/>
    <circle cx="329" cy="229" r="2"/>
  </g>
  <g stroke="chocolate" stroke-width="1">
    <line x1="183" y1="158" x2="120" y2="157"/>
    <circle cx="183" cy="158" r="2"/>
    <circle cx="120" cy="157" r="2"/>
  </g>
  <g stroke="chocolate" stroke-width="1">
    <line x1="420" y1="255" x2="369" y2="214"/>
    <circle cx="420" cy="255" r="2"/>
    <circle cx="369" cy="214" r="2"/>
  </g>
  <g stroke="chocolate" stroke-width="1">
    <line x1="392" y1="162" x2="385" y2="157"/>
    <circle cx="392" cy="162" r="2"/>
    <circle cx="385" cy="157" r="2"/>
  </g>
  <g stroke="chocolate" stroke-width="1">
    <line x1="204" y1="97" x2="306" y2="97"/>
    <circle cx="204" cy="97" r="2"/>
    <circle cx="306" cy="97" r="2"/>
  </g>
  <g stroke="chocolate" stroke-width="1">
    <line x1="390" y1="157" x2="306" y2="97"/>
    <circle cx="390" cy="157" r="2"/>
    <circle cx="306" cy="97" r="2"/>
  </g>
  <g stroke="black" stroke-width="1">
    <line x1="5" y1="5" x2="505" y2="5"/>
    <line x1="5" y1="5" x2="5" y2="505"/>
    <line x1="505" y1="505" x2="5" y2="505"/>
    <line x1="505" y1="505" x2="505" y2="5"/>
    <line x1="105" y1="2" x2="105" y2="8"/>
    <line x1="2" y1="105" x2="8" y2="105"/>
    <line x1="105" y1="502" x2="105" y2="508"/>
    <line x1="502" y1="105" x2="508" y2="105"/>
    <line x1="205" y1="2" x2="205" y2="8"/>
    <line x1="2" y1="205" x2="8" y2="205"/>
    <line x1="205" y1="502" x2="205" y2="508"/>
    <line x1="502" y1="205" x2="508" y2="205"/>
    <line x1="305" y1="2" x2="305" y2="8"/>
    <line x1="2" y1="305" x2="8" y2="305"/>
    <line x1="305" y1="502" x2="305" y2="508"/>
    <line x1="502" y1="305" x2="508" y2="305"/>
    <line x1="405" y1="2" x2="405" y2="8"/>
    <line x1="2" y1="405" x2="8" y2="405"/>
    <line x1="405" y1="502" x2="405" y2="508"/>
    <line x1="502" y1="405" x2="508" y2="405"/>
  </g>
  <g stroke="gray" stroke-width="1" stroke-dasharray="5,5">
    <line x1="105" y1="5" x2="105" y2="505"/>
    <line x1="5" y1="105" x2="505" y2="105"/>
    <line x1="205" y1="5" x2="205" y2="505"/>
    <line x1="5" y1="205" x2="505" y2="205"/>
    <line x1="305" y1="5" x2="305" y2="505"/>
    <line x1="5" y1="305" x2="505" y2="305"/>
    <line x1="405" y1="5" x2="405" y2="505"/>
    <line x1="5" y1="405" x2="505" y2="405"/>
  </g>
</svg>
