<?xml version="1.0" standalone="no"?>
<!DOCTYPE svg PUBLIC "-//W3C//DTD SVG 1.1//EN" 
  "http://www.w3.org/Graphics/SVG/1.1/DTD/svg11.dtd">
<svg width="618" height="618" version="1.1" id="toplevel"
    xmlns="http://www.w3.org/2000/svg"
    xmlns:xlink="http://www.w3.org/1999/xlink">
  <polygon points="128,613 613,490 490,5 5,128" fill="bisque"/>
  <g stroke="chocolate" stroke-width="1">
    <line x1="128" y1="613" x2="613" y2="490"/>
    <circle cx="128" cy="613" r="2"/>
    <circle cx="613" cy="490" r="2"/>
  </g>
  <g stroke="chocolate" stroke-width="1">
    <line x1="128" y1="613" x2="5" y2="128"/>
    <circle cx="128" cy="613" r="2"/>
    <circle cx="5" cy="128" r="2"/>
  </g>
  <g stroke="chocolate" stroke-width="1">
    <line x1="613" y1="490" x2="490" y2="5"/>
    <circle cx="613" cy="490" r="2"/>
    <circle cx="490" cy="5" r="2"/>
  </g>
  <g stroke="chocolate" stroke-width="1">
    <line x1="5" y1="128" x2="490" y2="5"/>
    <circle cx="5" cy="128" r="2"/>
    <circle cx="490" cy="5" r="2"/>
  </g>
  <g stroke="black" stroke-width="1">
    <line x1="59" y1="59" x2="559" y2="59"/>
    <line x1="59" y1="59" x2="59" y2="559"/>
    <line x1="559" y1="559" x2="59" y2="559"/>
    <line x1="559" y1="559" x2="559" y2="59"/>
    <line x1="159" y1="56" x2="159" y2="62"/>
    <line x1="56" y1="159" x2="62" y2="159"/>
    <line x1="159" y1="556" x2="159" y2="562"/>
    <line x1="556" y1="159" x2="562" y2="159"/>
    <line x1="259" y1="56" x2="259" y2="62"/>
    <line x1="56" y1="259" x2="62" y2="259"/>
    <line x1="259" y1="556" x2="259" y2="562"/>
    <line x1="556" y1="259" x2="562" y2="259"/>
    <line x1="359" y1="56" x2="359" y2="62"/>
    <line x1="56" y1="359" x2="62" y2="359"/>
    <line x1="359" y1="556" x2="359" y2="562"/>
    <line x1="556" y1="359" x2="562" y2="359"/>
    <line x1="459" y1="56" x2="459" y2="62"/>
    <line x1="56" y1="459" x2="62" y2="459"/>
    <line x1="459" y1="556" x2="459" y2="562"/>
    <line x1="556" y1="459" x2="562" y2="459"/>
  </g>
  <g stroke="gray" stroke-width="1" stroke-dasharray="5,5">
    <line x1="159" y1="59" x2="159" y2="559"/>
    <line x1="59" y1="159" x2="559" y2="159"/>
    <line x1="259" y1="59" x2="259" y2="559"/>
    <line x1="59" y1="259" x2="559" y2="259"/>
    <line x1="359" y1="59" x2="359" y2="559"/>
    <line x1="59" y1="359" x2="559" y2="359"/>
    <line x1="459" y1="59" x2="459" y2="559"/>
    <line x1="59" y1="459" x2="559" y2="459"/>
  </g>
</svg>
